<svg width="128" height="265" viewBox="0 0 128 265" fill="none" xmlns="http://www.w3.org/2000/svg">
<path d="M40.6 52.8C36.3 52.3 31.9 51.6 27.7 50.8C24 50.1 20.3 49.2 16.7 48.2C13.6 47.3 10.4 46.2 7.60003 44.5C5.70003 43.3 3.30001 41.5 3.70001 38.9L2.70001 39.5C3.80001 39 5.20008 39 6.40008 39C10.7001 39 15.1 40.1 19.2 41.5C23.4 42.9 27.5001 44.7 31.4001 46.6C31.5001 46.6 32.3001 46 32.4001 46C30.4001 44.1 28.5 42 26.7 40C23.6 36.4 20.4001 32.5 18.9001 28C18.2001 26.1 17.9001 24 18.9001 22.1L17.9001 22.7C19.0001 23 20.1 23.6 21.1 24.2C23.9 25.9 26.3001 28.2 28.3001 30.8C30.1001 33.1 31.7001 35.6 33.0001 38.2C33.0001 38.2 34.0001 37.7 34.0001 37.6C33.6001 33.4 33.4 29.2 33.7 25C33.8 22.6 34 19.8 35.2 17.6C35.4 17.2 35.6001 16.9 35.9001 16.6C35.9001 16.6 36.1 16.5 36.1 16.4C36.1 16.4 35.3001 16.8 35.3001 16.9H35.5001C35.8001 16.9 36.1 17.3 36.2 17.5C36.9 18.7 37.2001 20.3 37.4001 21.6C37.8001 23.8 38.1001 26.1 38.3001 28.4C38.8001 33.6 39.1001 38.9 39.3001 44.2C39.3001 46.3 39.5001 48.3 39.5001 50.4C39.5001 51.1 39.5001 51.8 39.5001 52.4C39.5001 52.7 39.5001 53.2 39.5001 53.5V53.6C39.5001 53.4 40.5001 53.2 40.5001 53C40.5001 50.3 40.4001 47.6 40.3001 44.9C40.1001 39.5 39.8001 34.2 39.4001 28.8C39.2001 26.4 38.9001 24 38.5001 21.6C38.2001 20.1 38.0001 18.4 37.3001 17C37.1001 16.7 36.9 16.3 36.6 16.2C36.1 16.1 35.5 16.6 35.1 16.8C34.4 17.3 34 18.2 33.7 19C33.3 20.2 33.1001 21.5 32.9001 22.7C32.3001 27.6 32.5001 32.7 32.9001 37.7C32.9001 37.8 32.9001 37.9 32.9001 38L33.9001 37.4C31.8001 33.3 29.1 29.4 25.7 26.2C24 24.6 22.0001 23.2 19.8001 22.3C19.4001 22.2 19.1 22 18.7 21.9C18.6 21.9 17.8 22.4 17.7 22.5C16.8 24.1 17.0001 26 17.5001 27.6C18.1001 29.8 19.3001 31.8 20.5001 33.7C23.0001 37.5 26 41 29.2 44.3C29.9 45 30.6001 45.7 31.3001 46.4L32.3001 45.8C27.7001 43.6 23 41.6 18.1 40.1C15.2 39.2 12.1 38.5 9.10003 38.3C7.60003 38.2 6.00006 38.2 4.50006 38.5C3.90006 38.6 2.70006 38.9 2.50006 39.5C2.30006 40.2 2.60008 41.1 2.90008 41.7C3.30008 42.5 4.00003 43.2 4.60003 43.7C6.40003 45.2 8.70008 46.2 10.9001 47.1C16.5001 49.3 22.4 50.6 28.2 51.6C30.6 52.1 33.0001 52.4 35.4001 52.8C36.2001 52.9 37.0001 53 37.8001 53.1C38.2001 53.1 38.7 53.3 39.1 53.3C39.5 53.3 39.2001 53.3 39.3001 53.3C39.6001 53.3 40.0001 52.7 40.3001 52.7L40.6 52.8Z" fill="#231F20"/>
<path d="M40.5999 52.4C33.3999 51.6 26.3 50.3 19.3 48.4C16 47.5 12.5999 46.5 9.49994 45C7.09994 43.8 3.59994 41.9 3.99994 38.8C3.99994 38.5 3.69997 38.3 3.39997 38.5L2.39997 39.1C1.99997 39.3 2.29989 40 2.69989 39.8C5.09989 38.8 8.39997 39.2 10.9 39.6C13.7 40.1 16.5 40.9 19.3 41.8C22.1 42.7 24.8999 43.9 27.5999 45.1C28.2999 45.4 28.8999 45.7 29.4999 46C29.9999 46.2 30.7 46.8 31.3 46.8C31.8 46.8 32 46.3 32.4 46.3C32.7 46.3 32.8999 45.9 32.6999 45.7C29.2999 42.5 26.1 38.9 23.3 35.1C22 33.4 20.8999 31.6 19.9999 29.6C18.8999 27.3 17.9999 24.6 19.1999 22.2C19.3999 21.9 18.9999 21.5 18.6999 21.7L17.6999 22.3C17.3999 22.5 17.4999 22.9 17.6999 23C21.1999 23.9 24.2999 26.7 26.5999 29.3C28.8999 31.9 30.9999 35.1 32.5999 38.3C32.6999 38.5 32.9999 38.5 33.1999 38.3C33.4999 38.1 33.9999 38.1 34.1999 37.7C34.4999 37.2 34.1999 36.1 34.1999 35.5C33.9999 33.2 33.9 30.8 33.9 28.5C33.9 26.4 33.8999 24.4 34.1999 22.3C34.4999 20.2 34.8 18 36.3 16.6C36.6 16.3 36.3 15.8 35.9 16C35.6 16.2 35.2999 16.3 35.0999 16.5C34.8999 16.8 35.0999 17.3 35.4999 17.1C36.7999 16.6 37.7 24.6 37.8 25.3C38.2 28.6 38.4999 32 38.6999 35.4C39.0999 41.4 39.3 47.5 39.4 53.5C39.4 53.8 39.7999 54 39.9999 53.8C40.2999 53.5 40.7999 53.6 40.9999 53.2C41.1999 52.9 40.9999 52.3 40.9999 52.1C40.9999 51.5 40.9999 50.8 40.9999 50.2C40.9999 47.8 40.8 45.4 40.8 43C40.6 38.1 40.3 33.3 39.9 28.4C39.7 26.1 39.3999 23.9 39.0999 21.6C38.7999 20 38.6999 17.6 37.4999 16.4C36.6999 15.5 35.4999 16.3 34.6999 17C33.2999 18.3 32.9999 20.6 32.6999 22.4C31.9999 27.6 32.1999 33 32.6999 38.3C32.6999 38.6 33 38.8 33.3 38.6L34.3 38C34.5 37.9 34.5 37.7 34.4 37.5C31.2 31.4 26.5 24.6 19.8 22.1C17 21.1 16.7999 25.2 17.1999 27C17.8999 30.7 20.2 34 22.4 37C25.1 40.6 28.1 43.9 31.3 47C31.4 47.1 31.5999 47.1 31.6999 47L32.6999 46.4C32.8999 46.3 32.9999 45.9 32.6999 45.8C27.7999 43.4 22.7999 41.3 17.5999 39.8C14.9999 39.1 12.4 38.5 9.79999 38.3C7.79999 38.1 5.19999 37.9 3.29999 38.9C1.69999 39.7 2.49999 41.7 3.29999 42.9C4.59999 44.7 6.59994 45.8 8.49994 46.7C13.3999 49 18.7999 50.4 23.9999 51.5C27.0999 52.2 30.2999 52.7 33.4999 53.2C34.9999 53.4 36.5999 53.7 38.0999 53.9C38.4999 53.9 39.2999 54.2 39.6999 54.1C40.0999 54.1 40.2999 53.6 40.6999 53.5C41.1999 53.4 40.9999 52.6 40.4999 52.8C40.2999 52.8 40.1999 53 39.9999 53.1C39.2999 53.4 38.8999 53.3 38.1999 53.2C36.8999 53 35.6 52.8 34.3 52.7C31.9 52.3 29.4999 51.9 27.0999 51.5C22.4999 50.6 17.8 49.6 13.4 48C11.2 47.2 9.09992 46.4 7.09992 45.3C5.99992 44.6 0.999894 41 3.69989 39.6C5.49989 38.7 8.19992 39 10.0999 39.2C12.4999 39.4 14.8999 40 17.1999 40.7C22.3999 42.2 27.2999 44.3 32.0999 46.6V46L31.0999 46.6H31.4999C28.3999 43.7 25.4 40.5 22.8 37C20.4 33.8 17.3 29.7 17.4 25.5C17.4 24.7 17.5999 22.9 18.6999 22.9C19.5999 22.9 20.7999 23.7 21.5999 24.2C23.3999 25.2 25 26.6 26.4 28.1C29.3 31 31.5999 34.5 33.4999 38.2V37.7C33.5999 37.7 32.6999 38.3 32.6999 38.3L33.3 38.6C32.8 33.5 32.4999 28.4 33.1999 23.3C33.3999 21.9 33.5999 20.4 34.1999 19.1C34.5999 18.2 35.9 16.5 36.9 17.8C37.6 18.7 37.7 20.4 37.9 21.5C38.1 22.8 38.2999 24.1 38.4999 25.4C39.0999 30.5 39.3999 35.6 39.6999 40.7C39.7999 43.3 39.8999 45.9 39.9999 48.4C39.9999 49.7 39.9999 50.9 39.9999 52.2C39.9999 52.9 39.9999 53.2 39.5999 53.7C39.4999 53.8 39.2999 53.8 39.1999 54L39.8 54.3C39.7 47.3 39.4 40.2 38.9 33.2C38.8 31.5 37.9999 16.1 34.9999 17.2L35.4 17.8C35.6 17.6 35.8999 17.6 36.0999 17.4L35.6999 16.8C33.0999 19.2 33.1999 23.6 33.0999 26.8C33.0999 29.2 33.0999 31.5 33.0999 33.8C33.0999 34.9 33.2 36.1 33.3 37.2C33.3 37.9 33.4999 37.8 32.9999 38.2C32.8999 38.3 32.6999 38.3 32.5999 38.5H33.1999C31.3999 35.2 29.4 31.9 26.8 29.1C24.4 26.5 21.3 23.9 17.9 22.9V23.6L18.9999 23L18.4999 22.5C16.3999 26.6 19.6 31.8 21.9 35.1C24.8 39.4 28.3999 43.3 32.1999 46.9L32.4999 46.3C32.1999 46.3 32.2 46.5 31.9 46.6C31.8 46.6 31.6999 46.8 31.5999 46.9C31.3999 46.9 30.8999 46.6 30.6999 46.5C29.3999 45.9 27.9999 45.2 26.5999 44.6C23.9999 43.5 21.2999 42.4 18.5999 41.6C15.8999 40.8 13.2 40 10.4 39.6C7.99997 39.3 5.09999 39 2.79999 39.9L3.09992 40.6L4.09992 40L3.49994 39.7C3.19994 42.3 5.29999 44.2 7.29999 45.5C10.4 47.5 13.9999 48.6 17.4999 49.6C25.0999 51.8 33 53.2 40.8 54.1C41.3 54.1 41.3 53.4 40.8 53.3L40.5999 52.4Z" fill="#231F20"/>
<path d="M71.5 32.6C70.8 27.6 70.6 22.4 70.8 17.3C71 13.7 71.4 9.90001 72.8 6.50001C73.4 5.10001 74.0999 3.70002 75.1999 2.70002C75.3999 2.50002 75.7 2.20001 76 2.00001C76.3 1.80001 76.9 1.60001 76 2.00001C76 2.00001 76.2 1.9 76.3 1.9C76.5 1.9 76.7 2.50002 76.8 2.70002C79.3 7.20002 79.0999 12.8 77.5999 17.6C77.5999 17.4 78.3999 17.2 78.5999 17C80.2999 14.8 82.3 12.7 84.3 10.8C85.1 10.1 85.9 9.40002 86.8 8.70002C87.2 8.40002 87.6999 8.00002 88.1999 7.70002C88.2999 7.70002 88.4 7.60001 88.5 7.50001H88.6999C88.5999 7.50001 88.5999 7.5 88.6999 7.4C88.9999 7.3 89.2 7.10001 89.5 7.00001C90.3 6.60001 91.1999 6.4 92.0999 6.3C92.3999 6.3 92.8999 6.2 93.0999 6.3C93.3999 6.6 93.4999 7.30002 93.5999 7.70002C93.7999 8.70002 93.6999 9.8 93.5999 10.9C92.5999 15.8 88.9999 19.9 85.6999 23.4C85.3999 23.7 85.7 23.6 86 23.5C86.4 23.5 86.9 23.5 87.3 23.4C88.8 23.3 90.3 23.2 91.8 23.2C93.3 23.2 95.2 23.2 96.9 23.6C98.2 23.8 99.6999 24.2 100.7 25.1C101.5 25.8 101.8 27 101.4 28C101.2 28.4 100.9 28.8 100.6 29C100.6 29 100 29.5 99.9 29.5C99.9 29.5 100.6 29.1 100.3 29.3C100.3 29.3 100.1 29.3 100.1 29.4C99.8999 29.4 99.7999 29.6 99.5999 29.6C96.4999 30.9 93.1 31.4 89.8 31.7C83.9 32.4 77.8 32.6 71.9 32.5H71.5999C71.2999 32.5 70.8999 33.1 70.5999 33.1C76.0999 33.2 81.6999 33.1 87.1999 32.5C90.7999 32.2 94.5 31.7 97.9 30.5C99.1 30.1 100.3 29.5 101.3 28.7C102.1 28.1 102.7 27.2 102.6 26.2C102.5 24.9 101.4 24.2 100.3 23.7C98.7 23.1 97 22.9 95.3 22.7C92.5 22.5 89.5999 22.7 86.6999 22.9H86.5C86.5 22.9 87.7 21.7 87.8 21.5C88.9 20.3 90 19 91 17.6C92.3 15.8 93.4999 13.8 94.1999 11.6C94.7999 9.80002 95.1999 7.50002 94.1999 5.70002C94.1999 5.70002 94.2 5.50001 94 5.50001C93.8 5.30001 92.8999 5.50001 92.6999 5.50001C92.1999 5.50001 91.8 5.7 91.3 5.8C89.5 6.4 87.8 7.50002 86.3 8.60002C83.2 10.8 80.4 13.7 78 16.7C77.8 16.9 77.6999 17.1 77.5999 17.2L78.5999 16.6C80.0999 11.9 80.3 6.60002 78 2.10002C77.8 1.80002 77.7 1.20001 77.4 1.00001C77.2 0.900011 77.3999 1.00001 77.1999 1.00001C76.9999 1.00001 76.5 1.40001 76.3 1.50001C75 2.30001 73.9999 3.20001 73.0999 4.50001C71.1999 7.60001 70.4999 11.5 70.1999 15C69.7999 18.8 69.8999 22.7 70.0999 26.5C70.1999 28.6 70.3999 30.7 70.6999 32.7C70.6999 32.6 71.6999 32.3 71.6999 32.1L71.5 32.6Z" fill="#231F20"/>
<path d="M71.9001 32.5C71.1001 27 70.9001 21.4 71.3001 15.8C71.5001 13.2 71.9 10.6 72.7 8.10001C73.1 6.90001 73.6001 5.6 74.3001 4.5C74.8001 3.7 75.6 2.50001 76.6 2.20001L76.3001 1.5C76.2001 1.5 76.0001 1.60001 75.9001 1.70001L76.2 2.39999C76.2 2.39999 77.4 5.2 77.5 5.5C77.9 6.9 78.2 8.30001 78.2 9.70001C78.3 12.4 77.9 15 77.1 17.6C77 18 77.5 18.2 77.7 18C77.9 17.8 78.4 17.7 78.6 17.5C79 17.1 79.4001 16.5 79.8001 16.1C80.7001 15.1 81.6 14.1 82.5 13.1C84.4 11.2 86.4001 9.29999 88.8001 7.89999L88.4001 7.29999H88.3001C87.9001 7.59999 88.3 8.2 88.7 8C89.8 7.5 90.8 6.99999 92 6.89999C93.2 6.79999 93.2001 8 93.3001 9C93.4001 11 92.7001 13.1 91.8001 14.9C91.0001 16.6 89.9 18.1 88.7 19.6C87.5 21.1 86.2 22.3 85.1 23.7C85 23.9 84.9 24.1 85.1 24.2C85.3 24.4 85.4 24.3 85.7 24.3C86.6 24.3 87.6 24.1 88.5 24.1C90.4 24 92.3 24 94.2 24.1C96 24.2 98.1 24.4 99.6 25.3C101.5 26.4 101.4 28.6 99.6 29.6L100 30.2C100.2 30.1 100.3 30 100.5 29.9C100.9 29.7 100.6 29.1 100.2 29.2C99.3 29.5 98.5 30 97.5 30.2C96.2 30.6 94.9 30.9 93.7 31.1C90.9 31.6 88.1001 31.8 85.3001 32C82.5001 32.2 79.8 32.3 77.1 32.4C75.6 32.4 74.2 32.4 72.7 32.4C72.3 32.4 71.7001 32.3 71.3001 32.4C70.9001 32.5 70.7001 32.8 70.3001 33C69.9001 33.2 70.0001 33.7 70.3001 33.7C74.5001 33.7 78.6001 33.7 82.8001 33.4C86.6001 33.2 90.5 32.9 94.2 32.1C95.9 31.7 97.6 31.2 99.1 30.5C100.3 29.9 101.8 29.2 102.3 27.9C103.6 25.2 100.5 23.6 98.3001 23.1C94.2001 22.2 90.1 22.7 86 22.9L86.3001 23.5C87.0001 22.4 88.2 21.5 89 20.5C90.2 19 91.4001 17.4 92.4001 15.7C93.4001 14 94.2 12.2 94.5 10.3C94.7 8.99999 94.8 7.09999 94 5.89999C93.4 4.99999 92.1 5.50001 91.2 5.70001C89.2 6.20001 87.3 7.40001 85.6 8.60001C82.3 11 79.4001 14.1 76.8001 17.3C76.6001 17.6 76.8 18.1 77.2 17.9C77.8 17.6 78.1001 17.5 78.4001 16.9C78.7001 16.2 78.9 15.2 79 14.4C79.3 12.8 79.5001 11.1 79.4001 9.39999C79.3001 7.69999 79.1 6.20001 78.6 4.70001C78.4 4.00001 78.1001 3.30001 77.8001 2.60001C77.6001 2.20001 77.5001 1.8 77.3001 1.5C77.2001 1.3 77 0.799988 77 1.29999C77 1.09999 76.8 0.899994 76.6 0.899994C75.8 0.899994 74.9001 1.70001 74.3001 2.20001C73.2001 3.00001 72.4001 4.00001 71.8001 5.20001C70.4001 7.70001 69.7001 10.5 69.4001 13.3C68.5001 19.9 68.7 26.7 69.6 33.3C69.6 33.7 70.1001 33.6 70.3001 33.3C70.5001 33 71.0001 33.1 71.3001 32.7C71.6001 32.3 70.9 31.9 70.6 32.3C70.4 32.6 69.9 32.6 69.6 32.9H70.3001C69.5001 27.2 69.3001 21.2 69.8001 15.3C70.0001 12.7 70.4001 10.1 71.3001 7.70001C71.8001 6.30001 72.5001 4.99999 73.4001 3.89999C73.8001 3.39999 74.4 2.9 75 2.5C75.4 2.2 76.1 1.60001 76.5 1.60001L76.1 1.20001C76.1 1.40001 76.2001 1.4 76.3001 1.5C76.7001 2.2 77.1001 2.99999 77.4001 3.79999C78.0001 5.29999 78.3001 6.79999 78.4001 8.39999C78.5001 9.99999 78.4 11.4 78.2 12.9C78 14.4 77.9 16.2 76.5 16.9L76.9001 17.5C79.1001 14.7 81.5 12.1 84.2 10C85.7 8.8 87.2001 7.69999 88.9001 6.89999C89.8001 6.39999 90.8001 6.09999 91.8001 5.89999C92.0001 5.89999 92.6001 5.69999 92.8001 5.79999C93.0001 5.79999 93.2 6.69999 93.2 6.89999C94.1 10.2 91.9 14.1 90.1 16.7C89 18.2 87.9 19.7 86.6 21.1C86.1 21.6 85.5 22.1 85.1 22.7C84.9 22.9 85.1001 23.3 85.4001 23.3C89.4001 23.1 93.5 22.5 97.5 23.5C99.2 23.9 102.3 25.2 100.8 27.5C99.7001 29.2 97 30 95.2 30.5C91.2 31.7 86.9 32 82.7 32.3C78.3 32.6 73.9 32.7 69.5 32.6V33.3C69.9 33.2 70.2 32.9 70.5 32.8C71.1 32.6 71.8 32.8 72.5 32.8C74 32.8 75.4001 32.8 76.9001 32.8C79.7001 32.8 82.6001 32.6 85.4001 32.4C87.9001 32.2 90.3001 31.9 92.8001 31.5C94.1001 31.3 95.4 31 96.6 30.6C97.6 30.3 98.5 29.8 99.5 29.5L99.2 28.8C99 28.8 98.9 29 98.7 29.1C98.3 29.4 98.7 30 99.1 29.7C100.2 29.1 101.1 28 101 26.7C100.9 25 99.3001 24.1 97.9001 23.6C95.8001 22.9 93.5001 22.8 91.3001 22.8C90.0001 22.8 88.7001 22.8 87.4001 22.9C86.8001 22.9 86.2 22.9 85.6 23C85.4 23 85.1001 23 84.9001 23C84.7001 23 84.6001 23 84.9001 23.1V23.6C86.3001 21.8 88.0001 20.2 89.4001 18.3C90.8001 16.4 92 14.3 92.7 12C93 10.9 93.3 9.6 93.2 8.5C93.2 7.7 93.1 6.5 92.5 6C92 5.5 91.3 5.69999 90.7 5.79999C89.6 5.99999 88.5 6.39999 87.5 6.89999L87.9001 7.5H88C88.4 7.2 88 6.49999 87.6 6.79999C85.4 8.19999 83.4 9.89999 81.5 11.8C80.6 12.7 79.7001 13.7 78.8001 14.7C78.4001 15.2 77.9001 16.1 77.3001 16.5C77.0001 16.7 76.7001 16.7 76.4001 17L77 17.4C78 14.2 78.4001 10.8 77.9001 7.39999C77.7001 6.49999 76.5001 0.5 74.9001 1.5C74.5001 1.7 74.8 2.40001 75.2 2.20001C75.4 2.20001 75.6001 1.99999 75.8001 1.89999C76.2001 1.69999 75.9 1.10001 75.5 1.20001C73.7 1.80001 72.5001 4.20001 71.8001 5.70001C70.7001 8.30001 70.1001 11 69.8001 13.8C69.1001 20 69.4 26.3 70.2 32.5C70.2 33 71.0001 32.8 70.9001 32.3L71.9001 32.5Z" fill="#231F20"/>
<path d="M91.4 93.4C90.7 90.6 90.3 87.6 90 84.8C89.5 79.6 89.4 74 91.1 68.9C91.5 67.6 92.1 66.3 92.9 65.2C93.3 64.7 93.7 64.2 94.1 63.7C94.3 63.5 94.6 63.2 94.8 63.1C94.9 63 95.1 62.9 95.2 62.8C95.4 62.7 96 62.3 95.4 62.7H95.2C96 63.1 96.6 63.8 97 64.5C98.5 66.8 98.6 69.9 98.4 72.6C98.2 75.7 97.5 78.8 96.7 81.8C96.7 81.6 97.5 81.5 97.7 81.2C99 79 100.6 76.9 102.3 74.9C103.7 73.3 105.2 71.7 106.9 70.3C107.3 69.9 107.8 69.6 108.3 69.3C108.3 69.3 108.5 69.2 108.5 69.1C108.8 69 109 68.8 109.3 68.7C110.1 68.4 111 68.1 111.9 68.1C117.5 68 109.9 79.1 108.9 80.7C107.4 82.9 105.9 85.1 104.3 87.2C104.3 87.2 103.9 87.6 103.9 87.7C103.9 87.7 103.9 87.7 104.1 87.7C105.1 87.7 106.1 87.5 107.1 87.4C109.6 87.2 124.3 86 122 91.5C121.4 92.8 120.3 93.9 119.1 94.7C118.9 94.8 118.7 95 118.4 95.2C118.4 95.2 117.9 95.5 118.2 95.4C118.5 95.3 118 95.5 118 95.5C117.5 95.8 116.9 96 116.4 96.3C115.3 96.8 114.2 97.1 113 97.4C107.3 98.8 101.3 98.1 95.9 95.9C94.3 95.2 92.7 94.4 91.2 93.4C91 93.3 90.4 94 90.2 94C95.8 97.5 102.4 99.3 109 98.5C113.2 98 117.6 96.4 120.8 93.6C121.8 92.8 122.9 91.6 123 90.3C123.1 89.1 122.3 88.3 121.3 87.8C119.8 87.1 118.1 86.9 116.6 86.8C114.7 86.6 112.8 86.7 110.8 86.8C109.3 86.8 107.7 87 106.2 87.1C105.8 87.1 105.4 87.1 104.9 87.2C104.8 87.2 104.7 87.2 104.7 87.2C104.7 87.1 105.1 86.7 105.1 86.7C105.4 86.3 105.7 86 105.9 85.6C106.8 84.4 107.6 83.2 108.5 82C109.6 80.4 118.1 68.6 113.4 67.7C111.8 67.4 110 68.2 108.6 69C106.8 70 105.2 71.2 103.7 72.6C101 75.1 98.8 78.1 96.8 81.2C96.7 81.4 96.6 81.6 96.5 81.8L97.5 81.2C98.4 77.9 99.2 74.4 99.3 71C99.3 69.1 99.3 67.1 98.5 65.3C98.1 64.4 97.6 63.5 96.8 62.8C96.6 62.6 96.2 62.3 95.9 62.3C95.6 62.3 95.1 62.8 94.8 62.9C94.4 63.1 94 63.4 93.6 63.7C92.8 64.3 92.1 65.1 91.6 66C90.4 67.8 89.7 69.9 89.3 72C88.4 76.5 88.5 81.2 89 85.8C89.3 88.5 89.7 91.3 90.3 94C90.3 93.9 91.3 93.5 91.3 93.4H91.4Z" fill="#231F20"/>
<path d="M91.8 93.3C90.5 87.8 89.9 81.9 90.2 76.3C90.5 71.5 91.6 65.7 95.9 62.8C96.3 62.6 96 62 95.6 62.1C95.4 62.1 95.2 62.3 95 62.4C94.7 62.6 94.8 63 95 63.1C98 64.3 98.2 69.1 98.1 71.7C98 75.1 97.2 78.3 96.4 81.6C96.4 82 96.8 82.3 97 82C97.2 81.7 97.7 81.7 98 81.4C98.4 81 98.7 80.3 99.1 79.8C100.1 78.4 101.1 77 102.2 75.6C104.1 73.3 106.2 71.1 108.8 69.4L108.4 68.8H108.2C107.8 69.2 108.2 69.8 108.6 69.6C110 68.9 113.9 67.4 113.8 70.2C113.8 72.1 112.6 74.1 111.7 75.7C110.9 77.2 110 78.6 109.1 80C108.4 81.1 107.7 82.1 106.9 83.2C106.4 84 105.8 84.7 105.2 85.5C104.7 86.1 104.1 86.8 103.7 87.5C103.7 87.6 103.7 87.9 103.7 88C104.1 88.3 104.6 88.1 105 88C105.8 88 106.6 87.8 107.3 87.8C108 87.8 108.6 87.7 109.3 87.7C111.4 87.6 113.5 87.5 115.7 87.7C117.5 87.8 119.9 88 121.3 89.2C123.5 91.2 119.5 94.2 118 95.1C117.6 95.3 118 96 118.4 95.7C118.8 95.4 118.4 94.8 118 95.1C113.2 97.6 107.7 98.2 102.4 97.4C99.8 97 97.2 96.2 94.9 95C94.3 94.7 93.7 94.4 93.1 94.1C92.6 93.8 91.9 93.2 91.4 93.1C90.8 93 90.7 93.5 90.2 93.6C89.9 93.6 89.9 94.1 90.2 94.3C97.1 98.5 105.5 100.3 113.4 98C116.7 97 120.4 95.3 122.6 92.5C123.4 91.5 124 90.1 123.3 88.8C122.5 87.4 120.5 86.9 119.1 86.7C116.8 86.3 114.3 86.3 112 86.3C110.7 86.3 109.4 86.4 108.1 86.5C107.5 86.5 106.9 86.6 106.3 86.7C106.1 86.7 105.1 86.8 105.2 86.9V87.4C105.7 86.7 106.4 86 106.9 85.3C107.7 84.2 108.5 83.2 109.2 82.1C109.6 81.5 110.1 80.9 110.5 80.2C112 78 113.4 75.8 114.4 73.4C115 72 116.2 69.5 115.1 68C114.5 67.2 113.4 67.1 112.5 67.2C110.3 67.4 108.3 68.7 106.5 70C102.3 73 99.1 77.2 96.4 81.6C96.2 81.9 96.6 82.3 96.9 82.1C97.6 81.7 98 81.6 98.2 80.9C98.5 79.8 98.8 78.8 99 77.7C99.4 75.7 99.8 73.6 99.8 71.5C99.9 68.6 99.8 63.7 96.6 62.1C95.7 61.6 94.6 62.7 93.8 63.2C92.3 64.3 91.2 65.8 90.4 67.5C88.6 71.2 88.2 75.5 88.2 79.6C88.2 84.4 88.8 89.4 89.9 94.1C89.9 94.4 90.3 94.5 90.5 94.3C90.8 94 91.3 94 91.5 93.7C91.8 93.3 91.1 92.9 90.8 93.3C90.6 93.5 90.1 93.5 89.9 93.8L90.5 94C89.4 89.5 88.9 84.8 88.8 80.2C88.7 75.6 89.1 70.9 91.4 67.1C92 66.1 92.7 65.2 93.5 64.5C94 64.1 94.9 63.2 95.6 63C96.5 62.7 97.4 64.3 97.8 65C98.4 66.1 98.6 67.3 98.8 68.5C99 70.8 98.8 73.1 98.5 75.3C98.3 76.4 98.1 77.5 97.8 78.5C97.5 79.7 97.5 80.9 96.3 81.6L96.8 82.1C99 78.6 101.6 75.2 104.7 72.4C106.4 70.9 108.3 69.5 110.4 68.7C111.5 68.3 113.8 67.5 114.4 68.9C115.1 70.5 113.6 73.1 113 74.4C112 76.4 110.8 78.3 109.5 80.2C109.1 80.8 108.7 81.3 108.3 81.9C107.6 82.9 106.9 83.9 106.1 84.9C105.6 85.6 104.8 86.4 104.4 87.2C104.4 87.4 104.4 87.6 104.5 87.7C105.1 88 106.1 87.7 106.7 87.6C107.9 87.5 109.1 87.4 110.4 87.4C112.8 87.3 115.2 87.3 117.5 87.5C119.8 87.7 124.3 88.8 122 92C120.8 93.7 118.7 95 116.9 95.9C108.4 100.2 98.3 98.7 90.4 93.8V94.5C90.6 94.5 90.7 94.2 90.9 94.1C91.4 93.9 92 94.5 92.5 94.7C93.6 95.3 94.8 95.9 96 96.4C98.4 97.4 101 98.1 103.6 98.4C108.6 99 113.8 98.2 118.3 95.9C120.1 94.8 122.4 93.1 122.6 90.8C122.6 89.5 121.8 88.7 120.8 88.1C117.7 86.5 113.5 86.8 110.1 87C109.3 87 108.5 87 107.7 87.1C107.3 87.1 106.9 87.1 106.5 87.2C106 87.2 105.5 87.3 105 87.4C104.7 87.4 103.9 87.3 104.2 87.5V88C104.7 87.2 105.5 86.4 106.1 85.6C106.8 84.6 107.6 83.6 108.3 82.6C108.9 81.7 109.5 80.8 110.1 79.9C111.3 78 112.5 76 113.4 74C114 72.6 115 70.4 114.2 68.9C113.1 66.8 109.6 68.3 108.2 69L108.6 69.6H108.8C109.2 69.2 108.8 68.6 108.4 68.8C105.9 70.4 103.8 72.5 102 74.7C101 75.8 100.1 77 99.3 78.2C98.9 78.8 98.5 79.5 98 80.1C97.6 80.6 97 80.9 96.6 81.4L97.2 81.8C98.2 78 99.1 74.1 99 70.2C99 67.5 98.2 63.6 95.4 62.4V63.1C95.6 63.1 95.8 63 95.9 62.9L95.6 62.2C91.4 65 90 70.2 89.6 75C89 81.1 89.8 87.6 91.2 93.5C91.3 94 92 93.8 91.9 93.3H91.8Z" fill="#231F20"/>
<path d="M35.9999 150.4C36.6999 148.2 37.3 146 37.8 143.8C39 139.1 39.8999 134.3 40.1999 129.4C40.4999 124.5 40.5 119.6 38.4 115.3C38 114.4 37.3999 113.5 36.6999 112.8C36.0999 112.1 35.3 111.3 34.4 111C34.2 111 34.1 111 33.9 111C33.4 111.3 32.9 111.5 32.4 111.9C28.9 114.4 28.7999 120 29.0999 123.8C29.0999 124.9 29.2999 125.9 29.4999 127L30.4999 126.4C29.0999 125 27.6999 123.7 26.0999 122.5C24.7999 121.5 23.4999 120.6 22.0999 119.8C20.8999 119.2 19.4999 118.6 18.0999 118.6C16.9999 118.6 15.8999 119.2 14.9999 119.9C14.0999 120.7 13.7 121.9 13.8 123.1C13.8 126.2 15.5999 129.2 17.1999 131.8C18.3999 133.8 19.6999 135.7 21.1999 137.4L22.1999 136.8C19.9999 136.1 17.6 135.5 15.3 135C13.4 134.6 11.4 134.2 9.39997 134C7.79997 133.8 5.99997 133.8 4.39997 134.1C3.69997 134.3 3.09995 134.5 2.49995 134.9C1.99995 135.2 1.4999 135.5 1.1999 136C0.399897 137.1 0.899946 138.7 1.49995 139.8C2.39995 141.6 3.99992 143 5.59992 144.1C7.69992 145.7 10.0999 146.9 12.4999 147.9C19.5999 150.8 27.4999 151.7 35.0999 150.8C35.3999 150.8 35.6999 150.3 36.0999 150.2C29.4999 151 22.7 150.4 16.3 148.3C11.7 146.8 6.79992 144.6 3.59992 140.8C2.59992 139.7 1.79999 138.2 1.79999 136.7C1.79999 136.2 1.89999 135.7 2.29999 135.2C2.49999 135 2.79997 134.8 2.89997 134.6C2.89997 134.6 1.89997 135.1 2.39997 134.9H2.59992C2.79992 134.9 2.89992 134.8 3.09992 134.7C4.59992 134.3 6.29999 134.3 7.79999 134.4C9.7 134.5 11.6 134.9 13.4 135.2C16 135.7 18.5999 136.4 21.1999 137.2C21.2999 137.2 22.0999 136.6 22.1999 136.6C21.0999 135.3 19.9999 133.8 19.0999 132.4C17.3999 129.9 15.7999 127.1 15.0999 124.1C14.7999 122.9 14.6999 121.6 15.0999 120.5C15.2999 120 15.6999 119.5 16.0999 119.2C16.0999 119.2 16.2 119.2 16.3 119C16.7 118.7 15.3 119.5 15.8 119.3C15.9 119.3 16.0999 119.2 16.1999 119.1C16.4999 119.1 16.7999 119 16.9999 118.9C19.7999 118.7 22.5999 120.7 24.6999 122.3C26.3999 123.6 28.0999 125.1 29.5999 126.6C29.5999 126.6 30.5999 126.1 30.5999 126C30.0999 122.8 29.7999 119.3 30.5999 116.1C30.9999 114.5 31.6 112.8 32.8 111.6C33 111.4 33.2 111.2 33.4 111.1C33.4 111.1 33.5999 111 33.6999 110.9C34.1999 110.5 33.0999 111.2 33.1999 111.2C33.4999 111.2 33.4 111 33.8 111.2C35.5 112.2 36.7999 113.7 37.5999 115.4C39.6999 119.4 39.7999 124.4 39.4999 128.8C39.1999 133.6 38.4 138.3 37.3 143C36.9 144.7 36.4999 146.4 35.9999 148C35.7999 148.5 35.6999 149.1 35.4999 149.6C35.4999 149.8 35.1999 150.2 35.1999 150.5C35.1999 150.5 35.1999 150.5 35.1999 150.6C35.1999 150.3 36.0999 150.3 36.1999 150L35.9999 150.4Z" fill="#231F20"/>
<path d="M36.4 150.5C38 145.7 39.1 140.7 39.9 135.8C40.6 131.3 41.1 126.6 40.6 122C40.2 118.1 38.9 113.9 35.8 111.4C35.4 111.1 34.7999 110.6 34.2 110.6C33.5 110.6 32.5 111.4 32 111.8C30.9 112.7 30.1 113.9 29.6 115.2C28.2 118.9 28.5999 123.2 29.1999 127.1C29.1999 127.3 29.6 127.4 29.8 127.3L30.8 126.7C31 126.6 31 126.3 30.8 126.1C28.3 123.5 25.4 121 22.1 119.4C19.5 118.1 16.3 117.6 14.3 120.2C12.5 122.5 13.7 125.9 14.8 128.2C16.4 131.6 18.6 134.8 20.9 137.6C20.9 137.7 21.2 137.7 21.3 137.6L22.3 137C22.6 136.8 22.5 136.4 22.3 136.3C17.8 134.9 13.1 133.7 8.30005 133.4C5.40005 133.2 -0.300002 133.9 0.499998 138C1.2 141.8 5.39997 144.5 8.59997 146.3C12.6 148.5 17.1 149.9 21.6 150.7C24.2 151.1 26.7 151.4 29.3 151.4C30.6 151.4 31.9 151.4 33.1 151.3C33.7 151.3 34.5 151.3 35.1 151.1C35.5 151 35.7999 150.7 36.2 150.5C36.5 150.4 36.6 149.7 36.2 149.8C29.2 150.6 22.1 149.8 15.4 147.5C12.6 146.5 9.80002 145.3 7.40002 143.6C6.20002 142.7 5 141.7 4 140.5C3.3 139.7 2.70002 138.8 2.40002 137.8C2.10002 136.6 2.39995 135.8 3.19995 134.9C3.49995 134.6 3.20005 134.1 2.80005 134.3C2.60005 134.4 2.19997 134.5 2.09997 134.7C1.89997 135 2.1 135.4 2.5 135.3C6.2 134.2 9.99995 134.8 13.6999 135.6C15.5999 136 17.5 136.5 19.4 137C20 137.2 20.8 137.6 21.4 137.5C21.8 137.5 22 137 22.4 136.9C22.7 136.9 22.7 136.5 22.6 136.3C20.5 133.8 18.6999 131 17.1999 128.2C16.3999 126.7 15.8 125.2 15.5 123.6C15.1 121.8 15.5 120.5 16.8 119.2C17 119 16.9 118.7 16.8 118.6C16.4 118.4 15.6 118.9 15.6 119.3C15.6 119.5 15.8 119.7 16.1 119.7C18.9 118.9 21.3 120.2 23.6 121.8C25.9 123.4 27.7999 125.1 29.6999 127C29.7999 127.1 30 127.1 30.1 127C30.6 126.8 31.0999 126.6 31.1999 126C31.2999 125.5 31 124.7 31 124.2C31 123.7 30.9 123.2 30.9 122.8C30.9 121.8 30.8 120.7 30.9 119.7C30.9 117.8 31.2 115.8 32 114.1C32.4 113.3 32.9 112.4 33.5 111.8C33.7 111.6 34.3 111.3 34.4 110.9C34.4 110.6 34.1 110.3 33.8 110.5C33.6 110.6 33.3 110.8 33.1 110.9C32.9 111.1 33.1 111.7 33.5 111.5C34.1 111.3 34.9 112.2 35.3 112.5C35.9 113.1 36.5 113.7 37 114.5C37.9 115.9 38.5 117.4 38.8 119C39.6 122.4 39.6 126 39.4 129.4C38.9 136.5 37.4 143.6 35.2 150.4C35.1 150.7 35.6 151.1 35.8 150.8C36 150.5 36.5 150.6 36.8 150.2C37.1 149.8 36.6 149.3 36.3 149.7C36.1 150 35.6 150 35.3 150.3L35.9 150.7C38.3 143.2 40 135.2 40.2 127.3C40.2999 123.6 40.2 119.9 38.7 116.4C38.1 115 37.4 113.7 36.3 112.6C35.6 111.9 34.2999 110.4 33.2 110.9L33.6 111.5C33.7 111.4 34 111.3 34.1 111.2L33.5 110.8L32.9 111.2C32.6 111.4 32.3 111.8 32.1 112.1C31.7 112.6 31.3 113.2 31.1 113.9C30.5 115.2 30.2 116.6 30 118C29.8 119.8 29.8 121.6 30 123.5C30 124.1 30.5 125.4 30.3 126C30.3 126.2 30.3 126.1 30.1 126.3C30 126.4 29.8 126.5 29.6 126.6H30C27.9 124.5 25.6 122.5 23 120.9C20.7 119.4 18.4 118.4 15.6999 119.2L16.1999 119.6C16.1999 119.9 16.6 119.6 16.3 119.6V119C15.2 120 14.6 120.9 14.5 122.4C14.5 124.1 15.0999 125.8 15.6999 127.3C17.1999 130.9 19.6 134.2 22 137.2L22.1999 136.6C21.6999 136.7 21.6 137.1 21 137C20.1 137 19.2 136.5 18.3 136.2C16.3 135.7 14.3 135.2 12.3 134.9C8.90005 134.3 5.60005 133.9 2.30005 134.9L2.69995 135.5C2.69995 135.4 3.10005 135.3 3.30005 135.2L2.90002 134.6C1.80002 135.7 1.40002 136.7 1.90002 138.2C2.40002 139.7 3.40002 141 4.40002 142.1C6.70002 144.5 9.70005 146.2 12.8 147.5C20.2 150.6 28.4 151.7 36.3 150.8V150.1C35.4 150.4 34.7001 150.7 33.8 150.8C32.9 150.9 31.9 150.9 30.9 151C28.9 151 27 151 25 150.8C21 150.4 17 149.4 13.3 148C9.60005 146.6 6.00002 144.7 3.40002 141.8C2.10002 140.3 0.199998 137.3 2.5 135.8C4.3 134.6 6.4 134.5 8.5 134.6C13.2 134.9 17.8 136.1 22.3 137.5V136.8L21.1999 137.4H21.6C19.7 135.1 18 132.6 16.5 129.9C15.2 127.6 13.3 123.8 14.8 121.3C16.7 118.1 20.6999 119.7 23.1999 121.2C25.7999 122.8 28.2 124.9 30.4 127.1V126.5L29.5 127.1L30.1 127.3C29.6 124.1 29.3 120.7 30 117.5C30.3 116 30.9 114.5 31.9 113.4C32.5 112.8 33.3 112.1 34.1 111.8C35 111.5 35.9 112.5 36.4 113.1C39.2 116 40 120.3 40.2 124.2C40.4 128.3 39.9 132.5 39.3 136.6C38.5 141.3 37.4 146 35.9 150.6C35.7 151.1 36.5 151.3 36.6 150.8L36.4 150.5Z" fill="#231F20"/>
<path d="M93.6 191.8C93 186.4 93 180.8 93.6 175.5C94 171.9 94.7 168.1 96.7 165C97.1 164.4 97.6 163.8 98.1 163.2C98.4 163 98.7 162.7 99 162.5C99.3 162.3 99.4 162.5 98.6 162.7C98.7 162.7 98.8 162.6 98.9 162.5C99.1 162.5 99.2 162.3 99.4 162.3C99.7 162.2 100.1 162.1 100.4 162C100.6 162 101.2 161.8 101.4 162C101.6 162 101.7 162.3 101.8 162.5C102.7 163.8 103.2 165.4 103.3 167C103.6 170.5 102.6 174 101.4 177.2C101.4 177 102.2 176.9 102.4 176.6C104.3 174.3 106.4 172.1 108.6 170.1C110.3 168.6 112.2 167.2 114.4 166.5C115.7 166.1 117.7 165.8 118.8 166.8C119.6 167.6 119.5 168.8 119.3 169.7C119 171.3 118.2 172.8 117.4 174.2C115.5 177.7 113.2 180.9 110.8 184C109.9 185.2 109 186.3 108.1 187.4L107 188.6C107 188.6 107.6 188.6 107.7 188.6C108.3 188.6 108.8 188.6 109.4 188.6C111.2 188.6 112.9 188.6 114.6 188.6C118.2 188.9 122.8 189.6 125.2 192.7C126.1 193.9 126.7 195.5 126.3 197C126.1 197.6 125.8 198.2 125.4 198.7C125.2 198.9 125 199.2 124.7 199.4C124.6 199.4 124.5 199.6 124.3 199.7C124.3 199.7 124.1 199.8 124.1 199.9C124.1 199.9 123.9 199.9 123.9 200.1C123.7 200.2 123.8 200.1 124.1 200C124 200 123.7 200.2 123.5 200.3C123.3 200.3 123.1 200.5 122.9 200.6C122.5 200.8 122 200.9 121.6 201C120.7 201.3 119.7 201.5 118.7 201.6C116.4 201.9 114.1 201.8 111.8 201.4C106.4 200.6 101.1 198.3 96.8001 194.9C95.6001 194 94.5 192.9 93.4 191.8C93.4 191.8 92.5 192.4 92.4 192.4C96.6 196.8 102 199.9 107.8 201.3C112.2 202.4 117.2 202.7 121.6 201.1C124.1 200.2 127.5 198.3 127.3 195.2C127 191 122.5 189.2 119 188.6C115.5 188 112.1 187.9 108.6 188.2H107.9C107.9 188.2 108.2 187.9 108.2 187.8C109 186.9 109.7 186 110.4 185C112.9 181.9 115.3 178.6 117.4 175.2C118.3 173.6 119.2 172 119.8 170.3C120.2 169.2 120.6 167.8 120 166.8C119.3 165.5 117.4 165.5 116.2 165.8C114.2 166.2 112.4 167.3 110.7 168.4C107.3 170.6 104.4 173.6 101.8 176.6C101.6 176.8 101.5 177 101.3 177.2L102.3 176.6C104 172.4 105.6 166.5 103 162.3C102.9 162.1 102.7 161.6 102.4 161.5C102.1 161.3 101.2 161.5 100.8 161.6C99.4001 161.9 98 162.8 96.9 163.8C94.3 166.3 93.3 170.2 92.7 173.6C92 177.5 91.9 181.5 92 185.4C92 187.7 92.2 190 92.4 192.2C92.4 192.1 93.4 191.8 93.4 191.6L93.6 191.8Z" fill="#231F20"/>
<path d="M94 191.8C93.4 186.5 93.4 181.2 94 175.9C94.3 173.5 94.6001 171.1 95.4001 168.9C95.8001 167.7 96.3 166.5 97 165.4C97.5 164.6 98.5001 163.1 99.4001 162.9L99 162.7C99 162.6 99 162.4 99 162.3L98.6 162.5L98.9001 163.2C99.4001 162.9 100.1 162.6 100.7 162.6C101.6 162.6 101.9 163.1 102.3 163.8C103 165.2 103.2 166.7 103.2 168.2C103.2 171.3 102.4 174.3 101.2 177.1C101.1 177.4 101.6 177.7 101.8 177.5C102 177.3 102.4 177.2 102.7 177C103 176.8 103.1 176.5 103.3 176.2C104 175.4 104.7 174.6 105.4 173.9C106.8 172.4 108.4 171 110 169.7C111.6 168.4 113.2 167.3 115.2 166.8C116.1 166.6 117.3 166.4 118.2 166.8C119.5 167.5 119.2 169 118.9 170.1C117.9 174 115.1 177.7 112.7 180.9C111.3 182.8 109.9 184.6 108.5 186.4C108 187 107 187.8 106.7 188.6C106.7 188.8 106.8 189.1 107.1 189.1C107.9 189.1 108.9 188.9 109.7 188.9C111 188.9 112.2 188.9 113.5 188.9C115.6 188.9 117.8 189.2 119.8 189.8C121.8 190.4 123.9 191.4 125.1 193.2C126.7 195.6 125.9 198.2 123.6 199.7C123.2 200 123.6 200.6 124 200.4C124.1 200.4 124.2 200.3 124.3 200.2C124.7 200 124.4 199.4 124 199.5C122.7 199.9 121.6 200.5 120.3 200.8C118.6 201.1 117 201.2 115.3 201.2C112.1 201.2 108.9 200.5 105.8 199.4C102.7 198.3 100.2 196.9 97.7 195.1C96.9 194.5 96.2 193.9 95.5 193.3C95 192.8 94.3 191.8 93.7 191.6C93.1 191.4 92.9001 191.9 92.4001 192.1C92.1001 192.1 92 192.5 92.2 192.7C98.7 199.4 108.5 203.7 118 202.5C121.3 202.1 126.2 200.6 127.5 197.1C128.8 193.6 125.7 190.7 122.8 189.4C120.7 188.5 118.5 188.1 116.3 187.9C114.8 187.7 113.3 187.7 111.8 187.7C110.6 187.7 109.3 188 108.1 187.9L108.4 188.5C109.6 186.8 111.1 185.2 112.4 183.6C113.9 181.6 115.4 179.6 116.7 177.6C118 175.6 119.2 173.6 120.1 171.5C120.7 170.1 121.4 168 120.4 166.6C119.6 165.5 117.9 165.4 116.7 165.6C114.6 165.9 112.8 166.9 111.1 168.1C107.3 170.5 104.1 173.8 101.3 177.2C101 177.5 101.3 178 101.7 177.8C102.3 177.4 102.7 177.3 103 176.7C103.3 175.9 103.6 175.1 103.9 174.2C104.4 172.5 104.8 170.7 104.9 169C105 167.3 104.9 165.6 104.3 164C103.9 163 103.4 161.3 102.1 161.3C100.7 161.3 99.0001 162.2 97.9001 163C96.6001 163.9 95.6001 165.2 94.8001 166.6C93.1001 169.8 92.5 173.5 92.2 177C91.7 182.2 91.8 187.4 92.2 192.6C92.2 193 92.7001 193.1 92.9001 192.8C93.1001 192.5 93.6001 192.6 93.9001 192.2C94.2001 191.8 93.5 191.4 93.2 191.8C93 192.1 92.5 192 92.2 192.4L92.9001 192.6C92.4001 188 92.3 183.3 92.7 178.7C93 174.7 93.5 170.1 95.7 166.5C96.8 164.6 98.6 163.1 100.7 162.4C101 162.4 101.8 162 102.1 162.1C102.5 162.1 102.8 162.8 103 163.1C103.5 164 103.8 165 104 166C104.3 168 104 170.1 103.6 172.1C103.4 173 103.1 173.8 102.8 174.7C102.4 175.8 102.3 176.5 101.2 177.1L101.6 177.7C104.1 174.6 106.9 171.7 110.2 169.4C111.8 168.3 113.6 167.1 115.5 166.6C117.2 166.1 120 166 120 168.5C120 170.5 118.8 172.5 117.8 174.2C116.8 176 115.7 177.6 114.6 179.3C113.4 181.1 112.1 182.8 110.8 184.4C109.8 185.7 108.6 186.9 107.6 188.3C107.4 188.5 107.6 188.8 107.9 188.9C108.6 188.9 109.3 188.8 110 188.7C111.3 188.7 112.5 188.7 113.8 188.7C115.9 188.7 118.1 189 120.2 189.6C123.2 190.4 127.3 192.4 126.9 196.2C126.5 200 120.6 201.7 117.4 202C113.1 202.5 108.7 201.7 104.6 200.2C100.1 198.5 96 195.8 92.7 192.4L92.5 193C92.7 193 93.1001 192.5 93.3001 192.5C93.5001 192.5 94.5 193.7 94.7 193.9C95.8 194.9 97 195.8 98.2 196.7C100.7 198.4 103.5 199.8 106.4 200.7C109.3 201.6 112.5 202.2 115.6 202.2C117.1 202.2 118.7 202.2 120.2 201.8C121.6 201.5 122.8 200.9 124.1 200.5L123.8 199.8C123.7 199.8 123.6 199.9 123.5 200L123.9 200.7C125.7 199.5 127 197.6 126.6 195.4C126.2 193.2 124.3 191.4 122.3 190.4C120.3 189.4 117.9 189 115.5 188.7C113.9 188.5 112.3 188.5 110.7 188.5C109.5 188.5 108.1 188.8 106.9 188.7L107.3 189.2C107.4 188.9 107.9 188.5 108.1 188.3C108.6 187.7 109.1 187.1 109.6 186.5C110.8 185 111.9 183.5 113.1 182C115.3 179 117.4 175.9 118.9 172.5C119.8 170.3 120.6 166.8 117.4 166.3C114.6 165.8 111.7 167.6 109.6 169.3C107.9 170.6 106.3 172.1 104.8 173.6C104.1 174.4 103.4 175.1 102.7 175.9C102.3 176.4 102 176.7 101.5 177C101.3 177.1 101.2 177.2 101 177.3L101.6 177.7C103 174.1 104.1 170.1 103.4 166.1C103.2 165 102.6 162.7 101.5 162.1C100.7 161.7 99 162.5 98.2 162.8C97.8 163 98.1 163.6 98.5 163.5C98.8 163.5 99.0001 163.3 99.3001 163.1C99.4001 163.1 99.4001 162.8 99.3001 162.6C99.2001 162.4 99.0001 162.4 98.9001 162.4C97.2001 162.9 95.8 165.5 95.1 166.9C94 169.2 93.5 171.8 93.1 174.4C92.3 180.3 92.3001 186.2 92.9001 192.1C92.9001 192.6 93.7 192.6 93.7 192.1L94 191.8Z" fill="#231F20"/>
<path d="M31.4 46.3C34.1 48.6 36.8 50.8 39.5 53.1L40.5 52.5C38.6 48 36.7 43.6 34.8 39.2C34.5 38.6 34.3 37.9 34 37.3C34 37.3 33 37.8 33 37.9C34.9 42.4 36.8 46.8 38.7 51.2C39 51.8 39.2 52.5 39.5 53.1L40.5 52.5C37.8 50.2 35.1 48 32.4 45.7C32.4 45.7 31.5 46.3 31.4 46.3Z" fill="#231F20"/>
<path d="M31.0999 46.6C33.0999 48.3 35.0999 49.9 37.0999 51.6L38.5 52.8C38.7 53 39.1 53.5 39.5 53.5C39.9 53.5 40.2999 53.1 40.6999 52.9C40.8999 52.8 40.9 52.6 40.8 52.4C38.6 47.3 36.5 42.2 34.3 37.2C34.3 37 33.8999 37 33.6999 37.2C33.4999 37.4 32.9999 37.5 32.6999 37.8C32.5999 37.9 32.5999 38.1 32.6999 38.3C34.8999 43.4 36.9999 48.5 39.1999 53.5C39.1999 53.7 39.5999 53.7 39.6999 53.6L40.6999 53C40.8999 52.9 40.9999 52.6 40.6999 52.4C38.7999 50.8 36.8 49.1 34.9 47.5L33.5 46.3C33.2 46.1 32.8 45.6 32.4 45.5C32.2 45.5 32.1 45.5 31.9 45.7C31.8 45.7 31.6999 45.9 31.5999 45.9C31.5999 45.9 31.3 46 31.4 46C30.9 46 30.9 46.7 31.4 46.8C31.8 46.8 32.2 46.3 32.3 46.3C32.4 46.3 32.9 46.8 33 46.9L33.5999 47.4L34.9 48.5C36.7 50 38.3999 51.4 40.0999 52.9V52.3L39.1999 52.9H39.6999C37.4999 48 35.3999 42.9 33.1999 37.8V38.3C33.2999 38 33.7999 38 34.0999 37.7H33.5C35.7 42.7 37.8 47.8 40 52.9V52.4C39.9 52.5 39.5999 52.9 39.1999 52.9H39.5999C36.8999 50.7 34.2 48.5 31.5 46.2C31.1 45.9 30.6 46.4 31 46.7L31.0999 46.6Z" fill="#231F20"/>
<path d="M77.5 17.5C76.4 19.4 75.4 21.3 74.5 23.2C72.9 26.4 71.3 29.7 70.6 33.1C70.6 33 71.4 32.6 71.5 32.6C75.8 29.8 80.2 27.1 84.5 24.3C85.1 23.9 85.7 23.5 86.4 23.1C86.2 23.2 85.7 23.5 85.5 23.6C81.2 26.4 76.8 29.1 72.5 31.9C71.9 32.3 71.3 32.7 70.6 33.1L71.5 32.6C72.3 29.1 73.9 25.8 75.4 22.7C76.3 20.8 77.3 18.8 78.4 17C78.2 17.3 77.6 17.3 77.4 17.6L77.5 17.5Z" fill="#231F20"/>
<path d="M77.2 17.3C75.8 19.9 74.4 22.5 73.2 25.2C72 27.9 70.9 30.3 70.3 33.1C70.3 33.5 70.7 33.7 71 33.4C71.2 33.2 71.8 33 72.1 32.8C72.8 32.3 73.5 31.9 74.3 31.4C75.6 30.5 77 29.7 78.4 28.8C81.2 27 84 25.3 86.7 23.5C87.1 23.2 86.7 22.6 86.3 22.9C81 26.1 75.8 29.6 70.5 32.9C70.1 33.2 70.5 33.8 70.9 33.5C71.5 33.2 71.9 33.1 72.1 32.4C72.3 31.6 72.5 30.9 72.8 30.1C73.3 28.6 74 27.1 74.6 25.6C75.9 22.7 77.4 19.8 78.9 17.1C79.1 16.7 78.6 16.3 78.3 16.6C78 16.9 77.6 16.9 77.3 17.2C77 17.6 77.5 18.1 77.8 17.7C78 17.4 78.5 17.4 78.8 17.1L78.2 16.6C76.7 19.3 75.3 22.1 74 24.9C73.4 26.2 72.8 27.5 72.3 28.8C72 29.5 71.8 30.2 71.6 30.9C71.6 31.2 71.5 31.8 71.3 32C71.1 32.3 70.8 32.4 70.5 32.6L70.9 33.2C76.1 29.8 81.3 26.4 86.7 23.2L86.3 22.6C83.4 24.5 80.5 26.3 77.5 28.2C76.1 29.1 74.6 30 73.2 31C72.6 31.4 72 31.9 71.3 32.2C71 32.4 70.6 32.5 70.4 32.8L71.1 33.1C71.8 30.3 72.9 27.7 74.1 25.1C75.3 22.5 76.6 20 78 17.5C78.2 17.1 77.6 16.7 77.3 17.1L77.2 17.3Z" fill="#231F20"/>
<path d="M96.8 81.8C95 85.2 93.3 88.6 91.5 92C91.2 92.6 90.8 93.2 90.6 93.8V94L91.1 93.9C93.4 93.4 95.6 92.7 97.8 91.9C99.2 91.3 100.6 90.7 101.9 89.9C103.1 89.2 104.3 88.4 105.1 87.3C104.9 87.6 104.3 87.6 104.1 87.9C102.5 90 99.9 91 97.4 91.9C95.6 92.5 93.7 93.1 91.7 93.5C91.4 93.5 91.4 93.5 91.6 93.3L92.6 91.4L95.7 85.4C96.4 84 97.1 82.7 97.8 81.3C97.7 81.6 97 81.6 96.8 81.9V81.8Z" fill="#231F20"/>
<path d="M96.4 81.6C95.3 83.8 94.2 85.9 93 88.1L91.3 91.3C90.9 92.1 90.2 93 90 93.9C90 94.1 90.1 94.4 90.4 94.4C90.8 94.4 91.3 94.2 91.7 94.1C92.4 93.9 93.2 93.7 93.9 93.5C95.4 93.1 96.8 92.6 98.2 92C100.7 91 103.5 89.6 105.2 87.5C105.5 87.1 105 86.6 104.7 87C104.5 87.2 104.3 87.2 104.1 87.3C103.9 87.4 103.8 87.5 103.6 87.7C103.2 88.2 102.7 88.6 102.2 89C101.3 89.7 100.2 90.2 99.1 90.7C98 91.2 96.8 91.6 95.6 91.9C94.9 92.1 94.2 92.3 93.4 92.5C92.8 92.7 92 93 91.4 93L91.8 93.3C91.8 93.6 91.8 93.3 92 93.1C92.1 92.8 92.3 92.6 92.4 92.3L93.1 90.9L94.7 87.8C95.8 85.7 96.9 83.6 98 81.5C98.2 81.1 97.7 80.7 97.4 81C97.2 81.3 96.7 81.2 96.4 81.6C96.1 82 96.6 82.5 96.9 82.1C97.1 81.8 97.6 81.9 97.9 81.5L97.3 81C96.1 83.3 94.9 85.6 93.8 87.8L92.1 91C91.8 91.5 91.5 92.1 91.3 92.6C91.2 92.8 91 93.1 91 93.4C91 93.6 91.2 93.7 91.4 93.7C92 93.7 92.6 93.5 93.2 93.3C94 93.1 94.7 92.9 95.5 92.7C96.8 92.3 98.2 91.8 99.5 91.3C100.6 90.8 101.7 90.3 102.7 89.6C103.2 89.2 103.6 88.8 104 88.4C104.4 88 104.4 88 104.8 87.8C105 87.8 105.1 87.6 105.3 87.5L104.8 87C103.1 89.1 100.4 90.4 97.9 91.4C96.7 91.9 95.4 92.3 94.1 92.7C93.4 92.9 92.7 93.1 92 93.2C91.6 93.3 91 93.6 90.5 93.5L90.9 94C91.1 93.1 91.8 92.2 92.3 91.3L94 88.1C95.1 86 96.2 83.9 97.2 81.8C97.4 81.4 96.8 81 96.5 81.4L96.4 81.6Z" fill="#231F20"/>
<path d="M29.5 127.1C31.9 132.2 33.6 137.8 34.5 143.3C34.9 145.8 35.1 148.4 35.1 151L36.1 150.4C32 146.5 27.9 142.5 23.9 138.6C23.3 138 22.7 137.5 22.2 136.9C22.2 136.9 21.3 137.5 21.2 137.5C25.3 141.4 29.4 145.4 33.4 149.3C34 149.9 34.6 150.4 35.1 151C35.1 151 36.1 150.5 36.1 150.4C36.3 142.8 34.2 135.1 31.3 128.2C31.1 127.6 30.8 127.1 30.5 126.5C30.5 126.5 29.5 127 29.5 127.1Z" fill="#231F20"/>
<path d="M29.2 127.3C32.7 134.6 34.9 142.9 34.7 151C34.7 151.3 35.0001 151.5 35.3001 151.3L36.3001 150.7C36.5001 150.6 36.5001 150.3 36.3001 150.1C33.3001 147.2 30.4001 144.4 27.4001 141.5C26.0001 140.1 24.5 138.7 23 137.3C22.7 137 22.4001 136.5 21.9001 136.5C21.5001 136.5 21.3001 137 20.9001 137.1C20.6001 137.1 20.5 137.5 20.7 137.7C25.4 142.2 30 146.7 34.6 151.2C34.7 151.3 34.9 151.3 35 151.2C35.3 151.1 35.9 150.9 36.1 150.5C36.5 149.9 36.1 148.3 36.1 147.6C36.1 145.2 35.7 142.8 35.2 140.4C34.2 135.5 32.6 130.7 30.5 126.2C30.5 126 30.1 126 30 126.1C29.7 126.3 29.3 126.5 29 126.7C28.6 127 29.2 127.5 29.5 127.2C29.8 127 30.1001 126.9 30.4001 126.7H29.9001C31.8001 130.6 33.3 134.9 34.2 139.3C34.7 141.5 35 143.6 35.2 145.9C35.2 146.9 35.3001 148 35.3001 149C35.3001 149.5 35.4 149.9 35.1 150.3C35 150.4 34.7 150.5 34.5 150.6H34.9001C30.2001 146.2 25.6 141.7 21 137.2L20.8001 137.8C21.1001 137.8 21.4 137.3 21.6 137.3C21.6 137.3 22.3001 138.1 22.4001 138.2L23.3001 139C24.6001 140.3 26.0001 141.6 27.3001 142.9C30.0001 145.5 32.6001 148.1 35.3001 150.7V150.1L34.4001 150.7L35 151C35.2 142.8 32.9001 134.3 29.4001 126.9C29.2001 126.5 28.6 126.9 28.7 127.3H29.2Z" fill="#231F20"/>
<path d="M102 177.2C99.3 181.5 96.6 185.8 94 190.2C93.7 190.8 93.3 191.3 93 191.9C93 191.9 92.7 192.3 92.7 192.4H92.8C93 192.4 93.3 192.3 93.6 192.2L94.9 191.9C97.4 191.3 99.9 190.7 102.5 190.1C104.3 189.7 106.1 189.3 107.9 188.8C108.2 188.8 108.5 188.3 108.9 188.2C104.8 189.2 100.8 190.1 96.7 191.1L94.2 191.7C94.2 191.7 93.8 191.8 93.7 191.8C93.7 191.8 94.3 190.7 94.4 190.6C96 187.8 97.7 185.1 99.4 182.4C100.6 180.5 101.8 178.6 103 176.7C102.8 177 102.2 177 102 177.3V177.2Z" fill="#231F20"/>
<path d="M101.6 177C99.9 179.7 98.2 182.5 96.5 185.2C95.7 186.6 94.8 187.9 94 189.3C93.6 189.9 93.2 190.6 92.9 191.2C92.7 191.5 92.4 191.9 92.3 192.2C92.3 192.5 92.5 192.7 92.8 192.7C95.4 192.2 98 191.5 100.6 190.9C102.1 190.6 103.5 190.2 105 189.9L107.1 189.4C107.5 189.4 107.9 189.3 108.2 189.1C108.5 189 108.7 188.7 109 188.6C109.4 188.4 109.3 187.8 108.8 187.9C106.1 188.5 103.5 189.1 100.9 189.8L97 190.7L95.3 191.1C94.8 191.2 94.3 191.4 93.8 191.5L94.2 191.9C94.2 191.7 94.6 191.2 94.8 191C95.1 190.4 95.5 189.8 95.8 189.3C96.6 188 97.4 186.6 98.2 185.3C99.9 182.5 101.7 179.7 103.4 176.9C103.6 176.5 103.1 176.1 102.8 176.4C102.5 176.7 102.1 176.7 101.8 177C101.5 177.3 102 177.9 102.3 177.5C102.6 177.2 103 177.2 103.3 176.9L102.7 176.4C100.8 179.4 99 182.3 97.2 185.3C96.3 186.7 95.5 188.1 94.6 189.5C94.3 190 94 190.4 93.8 190.9C93.6 191.1 93.4 191.4 93.4 191.7C93.4 192 93.6 192.1 93.8 192.1C94.7 192.1 95.7 191.7 96.6 191.4L100.8 190.4C103.6 189.7 106.3 189.1 109.1 188.5L108.9 187.8C108.6 187.8 108.5 188 108.2 188.2C107.8 188.4 107.4 188.5 107 188.6L104.9 189.1C103.4 189.4 102 189.8 100.5 190.1C97.9 190.7 95.3 191.4 92.7 191.9L93.2 192.4C93.3 191.9 93.8 191.4 94 191.1C94.4 190.5 94.7 189.9 95.1 189.3C95.9 188 96.7 186.7 97.5 185.4C99.1 182.7 100.8 180.1 102.5 177.4C102.8 177 102.1 176.6 101.8 177H101.6Z" fill="#231F20"/>
<path d="M70.5999 33.1C67.2999 42.9 65.1 53.2 63.3 63.4C59.5 85.2 58.1999 107.8 61.5999 129.8C62.4999 135.4 63.2999 141 63.6999 146.7C63.8999 149.3 64.1 152 64.3 154.6C64.8 161.4 65.3 168.2 65.8 175C67 191.2 68 207.5 68.9 223.8C69.3 231.1 69.6 238.4 69.8 245.7C69.9 250.9 70.1 256.1 69.8 261.2C69.8 262 69.7999 262.9 69.5999 263.7C69.5999 263.5 70.4999 263.4 70.5999 263.1C70.9999 258.6 70.9 253.9 70.8 249.4C70.7 242.6 70.3999 235.8 70.0999 229C69.2999 212.7 68.2999 196.5 67.1999 180.2C66.6999 172.9 66.1999 165.7 65.5999 158.4C65.0999 151.8 64.8 145.2 63.9 138.7C63.1 132.5 62 126.4 61.3 120.2C60.7 114.3 60.4999 108.3 60.4999 102.3C60.4999 91.5 61.3999 80.7 62.9999 70C64.7999 57.6 67.4 45.1 71.3 33.2C71.3 33 71.3999 32.8 71.4999 32.7C71.4999 33 70.5999 33 70.4999 33.3L70.5999 33.1Z" fill="#231F20"/>
<path d="M70.1999 33C65.4999 46.8 62.8 61.4 61 75.9C59.1 90.8 58.6 105.9 60.1 120.8C60.9 128.4 62.3 135.8 63.1 143.4C63.9 151 64.3 158.5 64.9 166.1C66 181.5 67.1 196.9 68 212.4C68.5 221 68.9 229.6 69.3 238.3C69.7 247 70.1 255.4 69.4 263.8C69.4 264.1 69.8 264.3 70 264.1C70.2 263.8 70.7 263.9 70.9 263.6C71.2 263.2 71.1 262.4 71.1 261.8C71.2 259.8 71.3 257.9 71.3 255.9C71.3 252.1 71.3 248.3 71.1 244.5C70.9 236.7 70.5 228.9 70.1 221.1C69.3 205.5 68.2999 189.9 67.1999 174.3C66.6999 166.7 66.1 159.1 65.6 151.5C65.1 143.9 64.1 136.4 63 128.8C60.7 113.3 60.6 97.7 62.1 82.1C63.7 65.4 66.7 48.6 72 32.6C72.1 32.2 71.6 32 71.4 32.2C71.2 32.4 70.7 32.5 70.4 32.8C70.1 33.2 70.6 33.7 70.9 33.3C71.1 33 71.6 33 71.9 32.7L71.3 32.3C66.6 46.3 63.8 61 62 75.6C60.2 90.2 59.6 106.2 61.3 121.4C62.1 128.9 63.6 136.4 64.3 143.9C65 151.4 65.5 159.4 66 167.1C67.1 182.5 68.2 197.9 69 213.3C69.5 221.9 69.8999 230.6 70.1999 239.2C70.3999 243.5 70.5 247.8 70.5 252.1C70.5 254.2 70.5 256.3 70.5 258.5C70.5 259.6 70.5 260.8 70.3 261.9C70.2 262.5 70.3 262.5 69.8 262.9C69.7 263 69.5 263 69.4 263.2L70 263.5C70.6 256 70.2 248.4 70 241C69.7 233.4 69.4 225.7 68.9 218.1C68.1 202.7 67 187.2 65.9 171.8C65.4 164.2 64.7999 156.6 64.1999 149C63.5999 141.4 62.5 134.5 61.5 127.2C59.4 112.2 59.4 97 60.9 81.9C61.7 73.5 63.0999 65.1 64.6999 56.8C66.2999 48.5 68.2 40.8 70.8 33C71 32.5 70.2 32.3 70.1 32.8L70.1999 33Z" fill="#231F20"/>
<path d="M39.5 53.1C41.9 56.8 44.2 60.5 46.6 64.1L57.8 81.6C58.7 82.9 59.5 84.3 60.4 85.6L61.4 85C59 81.3 56.7 77.6 54.3 74L43.1 56.5C42.2 55.2 41.4 53.8 40.5 52.5L39.5 53.1Z" fill="#231F20"/>
<path d="M39.2 53.3C46.1 64.2 53.1 75 60.1 85.9C60.2 86.1 60.4 86.1 60.6 86C60.9 85.9 61.2 85.6 61.6 85.4C61.8 85.4 61.8 85 61.7 84.9C54.8 74 47.8001 63.2 40.8001 52.3C40.7001 52.1 40.5001 52.1 40.3001 52.2C40.0001 52.3 39.7001 52.6 39.3001 52.8C38.9001 53 39.3 53.7 39.7 53.4C40 53.2 40.3 53 40.7 52.8H40.2C47.1 63.5 54.1 74.4 61.1 85.2V84.7C60.9 84.9 60.6001 85.1 60.3001 85.3H60.8001C53.9001 74.6 46.9001 63.7 39.9001 52.9C39.6001 52.5 39 52.9 39.2 53.3Z" fill="#231F20"/>
<path d="M90.5 94C87.6 96.5 84.9 99.4 82.4 102.3C76.8 108.8 71.8 115.8 68.1 123.5C65.7 128.4 63.9 133.6 62.9 138.9C62.9 138.7 63.8 138.6 63.9 138.3C65.6 128.9 69.8 120.2 75.1 112.3C79 106.5 83.5 101 88.5 96C89.4 95.1 90.4 94.1 91.4 93.2C91.1 93.4 90.7 93.5 90.4 93.8L90.5 94Z" fill="#231F20"/>
<path d="M90.2 93.7C83.5 99.6 77.7 106.8 72.9 114.3C68.1 121.8 64.2 130.1 62.6 138.9C62.6 139.2 63 139.6 63.2 139.3C63.5 138.9 64 139 64.3 138.6C64.5 138.2 64.5 137.3 64.6 136.9C64.7 136.3 64.9 135.8 65 135.2C65.6 132.9 66.3 130.7 67.1 128.5C68.8 124.1 70.9 119.9 73.4 115.8C78.4 107.7 84.6 100 91.7 93.7C92 93.4 91.7 92.9 91.3 93.1C91 93.3 90.6 93.5 90.3 93.7C89.9 94 90.3 94.6 90.7 94.3C91 94.1 91.4 93.9 91.7 93.7L91.3 93.1C84.3 99.3 78.2 106.9 73.3 114.8C70.9 118.7 68.7 122.7 67 127C66.1 129.2 65.4 131.4 64.8 133.6C64.5 134.7 64.2 135.9 64 137C63.9 137.7 63.8 138 63.3 138.4C63.1 138.5 63 138.5 62.9 138.7L63.5 139.1C65.1 130.3 68.9 122.1 73.7 114.7C78.5 107.3 84.3 100.1 90.9 94.3C91.3 94 90.7 93.4 90.4 93.8L90.2 93.7Z" fill="#231F20"/>
<path d="M35 151C38.4 153.4 41.7 156.2 44.8 159C51.2 164.8 57.1 171.3 61.6 178.7C64.1 182.9 66.1 187.5 66.9 192.4C66.9 192.3 67.9 192 67.9 191.8C66.4 183 61.2 175.1 55.5 168.4C50.7 162.7 45.3 157.6 39.4 153C38.2 152.1 37.1 151.2 35.9 150.3C35.8 150.3 35.1 150.9 34.9 150.9L35 151Z" fill="#231F20"/>
<path d="M34.8 151.3C42 156.4 48.7 162.6 54.4 169.3C60 176 65.1 183.7 66.6 192.4C66.6 192.7 67.1 192.8 67.2 192.6C67.4 192.3 68 192.4 68.2 192C68.5 191.6 68.2 190.8 68 190.4C67.6 188.4 67 186.4 66.2 184.5C64.7 180.8 62.8 177.4 60.5 174.2C55.8 167.4 50 161.4 43.7 156.1C41.9 154.6 40.1 153.1 38.3 151.6C37.8 151.2 36.7 150 36 149.9C35.5 149.9 35.3 150.4 35 150.4C34.5 150.4 34.5 151.2 35 151.2C35.3 151.2 35.5 150.9 35.8 150.8C36.3 150.6 37.7 152 38.2 152.4C39.7 153.6 41.1 154.7 42.6 155.9C45.6 158.4 48.5 161.1 51.2 164C56.3 169.4 61.1 175.3 64.4 182C65.3 183.9 66.1 186 66.7 188C67 188.9 67.4 190.1 67.4 191.1C67.4 192.1 67.5 191.4 67.1 191.6C66.9 191.6 66.7999 191.7 66.7 191.9L67.3 192.1C65.8 183.4 60.8 175.6 55.2 169C49.4 162.1 42.6 155.7 35.2 150.5C34.8 150.2 34.4 150.9 34.8 151.2V151.3Z" fill="#231F20"/>
<path d="M92.7 192.3C90 194 87.5 196.3 85.3 198.7C79.8 204.5 75.6 211.5 73 219C70.9 224.9 69.8 231.1 69.5 237.3C69.5 237.1 70.4 237 70.5 236.7C71 226.6 73.7 216.6 79 207.8C82.2 202.5 86.2 197.6 91 193.7C91.9 193 92.8 192.3 93.7 191.7C93.5 191.8 93 192.1 92.8 192.2L92.7 192.3Z" fill="#231F20"/>
<path d="M92.5 192C88.8 194.4 85.6 197.6 82.8 201C80.1 204.2 77.8 207.7 75.9 211.4C71.7 219.4 69.6 228.3 69.1 237.3C69.1 237.6 69.5 237.8 69.7 237.6C70 237.2 70.5 237.4 70.8 236.9C71 236.5 70.8 235.9 70.8 235.5C70.8 234.9 70.8 234.3 71 233.7C71.2 231.4 71.6 229.1 72 226.8C72.9 222.2 74.4 217.6 76.4 213.3C78.4 209 80.8 205.1 83.7 201.6C86.6 198.1 89.9 194.6 93.8 192.1C94.2 191.8 93.8 191.2 93.4 191.4C93.1 191.6 92.8 191.7 92.5 191.9C92.1 192.1 92.5 192.8 92.9 192.6C93.2 192.4 93.5 192.3 93.8 192.1L93.4 191.4C87.6 195.1 82.9 200.8 79.2 206.5C75.3 212.7 72.6 219.6 71.2 226.7C70.8 228.6 70.5 230.5 70.3 232.5C70.2 233.5 70.1 234.5 70 235.6C70 236.2 70 236.4 69.5 236.7C69.4 236.8 69.2 236.8 69.1 237L69.7 237.3C70.2 228.4 72.3 219.7 76.4 211.8C78.3 208.2 80.6 204.7 83.2 201.6C86 198.3 89.1 195.1 92.8 192.7C93.2 192.4 92.8 191.8 92.4 192H92.5Z" fill="#231F20"/>
<path d="M68.9 206.4C67.1 205.8 65.4 205 63.8 204.1C60.7 202.4 57.7 200.3 55.7 197.3C54.5 195.5 53.8 193.5 53.8 191.4L52.8 192C54.2 192.3 55.6 192.9 56.9 193.5C59.9 195 62.6 197.3 64.6 200C66.1 202.1 67.3 204.5 68 207C68 207 69 206.5 69 206.4C67 199.7 62 194.1 55.3 191.8C54.8 191.6 54.4 191.5 53.9 191.4C53.9 191.4 52.9 191.9 52.9 192C53 199.1 60.3 203.7 66.1 206.2C66.7 206.5 67.3 206.7 68 207C68.2 207 68.7 206.4 69 206.4H68.9Z" fill="#231F20"/>
<path d="M69 206C65.5 204.8 62.1 203 59.3 200.6C56.5 198.2 54.2999 195.1 54.0999 191.4C54.0999 191.1 53.8 190.9 53.5 191.1L52.5 191.7C52.2 191.9 52.3 192.3 52.5 192.4C56 193.2 59.4 195.3 61.9 197.8C64.4 200.3 66.3 203.6 67.4 207.1C67.4 207.4 67.8999 207.5 68.0999 207.1C68.0999 207.2 68.4999 206.9 68.6999 206.9C68.8999 206.9 68.9999 206.7 69.0999 206.6C69.2999 206.3 69.1 205.9 68.9 205.6C68.7 205.1 68.5 204.6 68.3 204.1C67.6 202.4 66.6999 200.8 65.5999 199.3C63.4999 196.4 60.7 193.9 57.4 192.4C56.6 192 55.7 191.7 54.8 191.4C54 191.1 53.6 190.9 52.8 191.4C52.2 191.8 52.0999 191.9 52.1999 192.7C52.1999 193.5 52.3999 194.3 52.6999 195.1C53.6999 198.3 56.2 200.8 58.8 202.8C60.4 204 62.1 205 63.9 205.8C64.8 206.3 65.7999 206.7 66.6999 207C67.0999 207.2 67.5 207.4 67.9 207.3C68.1 207.3 68.3999 206.8 68.5999 206.8C69.0999 206.8 69.0999 206 68.5999 206C68.3999 206 68.2999 206 68.0999 206.2C67.9999 206.2 67.9 206.4 67.8 206.5C67.5 206.7 67.8 206.5 67.5 206.5C67 206.5 66.4 206.1 66 205.9C65.6 205.7 65.2 205.6 64.9 205.4C63.5 204.8 62.2 204.1 60.9 203.2C58.3 201.6 55.9 199.5 54.3 196.9C53.9 196.2 53.6 195.6 53.4 194.9C53.3 194.6 53.1999 194.2 53.0999 193.9C53.0999 193.4 53.1 192.9 52.9 192.5C52.9 192.2 52.7999 192.3 53.0999 192.1C53.3999 191.9 53.5 191.9 53.9 192.1C54.8 192.4 55.7999 192.7 56.6999 193.1C59.5999 194.4 62.1999 196.5 64.1999 199C65.3999 200.4 66.2999 202 67.0999 203.7C67.4999 204.5 67.9999 205.5 68.1999 206.5C68.0999 206.6 67.7999 206.7 67.6999 206.7C67.4999 206.7 67.4 206.9 67.3 207H68C66.9 203.5 65 200.1 62.3 197.4C59.6 194.7 56.1999 192.6 52.5999 191.8V192.5L53.6999 191.9L53.0999 191.6C53.1999 195.5 55.4 198.7 58.3 201.2C61.2 203.7 64.9 205.7 68.5 207C69 207.2 69.1999 206.4 68.6999 206.3L69 206Z" fill="#231F20"/>
<path d="M80.8001 204.9C79.9001 203.5 79.0001 202 78.3001 200.5C76.9001 197.6 75.7 194.5 75.4 191.2C75.3 189.4 75.4 187.6 76.2 186L75.2 186.6C76.1 187.3 76.9 188.2 77.6 189.2C79.3 191.4 80.4 194.1 80.9 196.9C81.2 198.8 81.3 200.8 81.1 202.7C81.1 202.8 80.9 203.7 81 203.7C81 203.7 81 203.7 81.1 203.7C81.3 203.7 81.6 203.7 81.7 203.7C83.7 203.5 85.8 203.5 87.7 204C91 204.8 93.6 207 94.9 210.2L95.9 209.6C94.3 210 92.6 210 90.9 209.8C87 209.4 83.4 207.6 80.6 204.8C80.6 204.8 79.7 205.4 79.6 205.4C82.4 208.1 86 209.9 89.9 210.4C91.5 210.6 93.3 210.6 94.9 210.2C94.9 210.2 95.9 209.7 95.9 209.6C94.7 206.7 92.5 204.6 89.6 203.6C87.5 202.9 85.3 202.7 83.2 202.9C83 202.9 82.1 203.2 81.9 203.1C81.9 203.1 81.9 202.3 82 202.2C82 201.6 82.1 201 82.1 200.4C82.1 199.5 82.1 198.5 82.1 197.6C81.8 194.6 80.8 191.7 79.1 189.2C78.3 188 77.3 186.8 76.2 186C76.2 186 75.3 186.5 75.2 186.6C73.8 189.6 74.3 193 75.2 196C76 198.8 77.3001 201.4 78.8001 203.9C79.1001 204.4 79.4001 204.9 79.8001 205.4C79.8001 205.4 80.7001 204.8 80.8001 204.8V204.9Z" fill="#231F20"/>
<path d="M81.0999 204.8C79.2999 202.1 77.8 199.1 76.8 196C75.8 192.9 75.1999 189.4 76.5999 186.3C76.7999 186 76.3999 185.6 76.0999 185.8L75.0999 186.4C74.8999 186.5 74.7999 186.8 75.0999 187C77.5999 189 79.4 192.1 80.3 195.1C80.8 196.7 81 198.4 81 200.1C81 201 81 201.9 80.9 202.8C80.9 203.1 80.7 203.5 80.8 203.8C80.8 204.1 81 204.2 81.3 204.2C86.8 203.2 92.6 205.1 94.9 210.5C94.9 210.7 95.2 210.7 95.4 210.6L96.4 210C96.8 209.8 96.4999 209.2 96.0999 209.3C92.6999 210.1 88.7999 209.4 85.6999 207.8C84.1999 207.1 82.8999 206.1 81.5999 205C81.2999 204.8 81.2 204.5 80.8 204.5C80.4 204.5 80.2 205 79.9 205C79.6 205 79.4999 205.4 79.6999 205.6C82.0999 207.9 84.9999 209.6 88.1999 210.4C90.5999 211 94.2 211.5 96.3 209.9C96.5 209.8 96.5 209.6 96.4 209.4C95.3 206.8 93.3 204.7 90.8 203.6C89.4 203 87.9 202.7 86.4 202.6C85.5 202.6 84.7 202.6 83.8 202.6C83.4 202.6 82.5999 202.9 82.1999 202.8L82.5 203.2C82.5 202.5 82.6999 201.7 82.6999 201C82.6999 199.9 82.6999 198.8 82.6999 197.7C82.4999 195.9 82.1 194.1 81.4 192.4C80.7 190.7 79.7999 189.1 78.5999 187.7C77.9999 187 76.9 185.3 75.9 185.8C74.7 186.4 74.4 187.9 74.3 189.1C74.1 190.8 74.2999 192.6 74.5999 194.3C75.4999 198.3 77.3999 202.1 79.5999 205.5C79.5999 205.6 79.9 205.7 80 205.7C80.4 205.6 80.6999 205.3 81.0999 205.1C81.4999 204.9 81.0999 204.2 80.6999 204.4C80.3999 204.6 80.1 204.8 79.8 204.9L80.1999 205.1C78.2999 202.2 76.6999 199.1 75.6999 195.8C75.1999 194.2 74.9 192.6 74.8 191C74.8 190.2 74.7999 186.6 76.0999 186.5C76.9999 186.5 78.4 188.7 78.9 189.4C79.9 190.9 80.5999 192.4 81.1999 194.1C81.7999 195.8 82 197.4 82 199C82 199.9 82 200.8 82 201.7C82 202.1 81.8 202.6 81.8 203C81.8 203.2 81.7999 203.3 82.0999 203.4C82.8999 203.6 84 203.2 84.8 203.2C86.6 203.2 88.3 203.4 90 204C92.8 205 94.8 207.1 95.9 209.7V209.2C94 210.7 90.3999 210.1 88.0999 209.5C85.0999 208.7 82.5 207.1 80.3 205L80.0999 205.6C80.2999 205.6 80.3 205.5 80.5 205.4C80.8 205.3 80.8 205.2 81 205.2C81.5 205.2 82.1999 206.2 82.5999 206.5C83.8999 207.5 85.1999 208.2 86.6999 208.8C89.6999 210 93.2 210.5 96.4 209.7L96.0999 209L95.0999 209.6H95.5999C93.1999 204.1 86.8999 202 81.1999 203.1L81.6999 203.5C81.6999 203.1 81.8 202.5 81.9 202C81.9 201.1 82 200.2 81.9 199.3C81.9 197.6 81.6 195.8 81 194.2C80 191.2 78.2999 188.1 75.6999 186.1V186.7L76.5999 186.1L76.0999 185.6C74.7999 188.6 75.1 191.9 76 195C77 198.5 78.6999 201.8 80.6999 204.8C80.9999 205.2 81.6 204.8 81.4 204.4L81.0999 204.8Z" fill="#231F20"/>
<path d="M65.5 157.2C67.3 156.1 68.9 154.8 70.4 153.3C73.3 150.5 75.9 147.1 76.8 143.1C76.9 142.6 77 142.1 77.1 141.6C77.1 141.4 77.3 139.9 77.1 139.8C77.1 139.8 76.9 139.8 76.8 139.8C76.2 139.8 75.5 140.2 75 140.5C72.8 141.5 70.7 142.9 69.1 144.7C66 148.2 64.7 153 64.6 157.6C64.6 157.4 65.6 157.3 65.6 157C65.8 152.9 66.7 148.8 69 145.5C69.8 144.3 70.8 143.3 71.9 142.4C72.4 142 72.9 141.7 73.4 141.3C73.5 141.3 72.8 141.6 73.3 141.3C73.4 141.3 73.5 141.2 73.6 141.1C73.8 141 74 140.9 74.3 140.8C74.8 140.6 75.4 140.3 75.9 140.2H76.1C76.2 140.2 76.1 141.4 76.1 141.6C76.1 142.1 76 142.6 75.9 143.1C75.1 146.9 72.8 150.3 70.1 153C68.4 154.7 66.6 156.2 64.6 157.5C64.8 157.4 65.2 157.1 65.5 157V157.2Z" fill="#231F20"/>
<path d="M65.7 157.5C69.2 155.3 72.4 152.3 74.7 148.9C75.8 147.3 76.6 145.5 77.1 143.6C77.3 142.8 77.4 142 77.5 141.2C77.5 140.8 77.7 140.1 77.5 139.7C77.4 139.5 77.3 139.5 77.1 139.5C75.3 139.8 73.4 140.9 71.9 142C70.3 143.1 68.8 144.5 67.7 146.1C65.4 149.5 64.5 153.6 64.3 157.7C64.3 158.1 64.8 158.2 65 157.9C65 157.7 65.7 157.7 65.9 157.4C66.2 157 66.1 155.9 66.1 155.4C66.3 153.6 66.6 151.7 67.2 150C67.8 148.3 68.7 146.5 69.9 145.1C70.5 144.4 71.1 143.7 71.8 143.1C72.4 142.6 73.2 142.2 73.8 141.6C74.1 141.3 73.8 140.8 73.4 141C73.4 141 73.2 141 73.1 141.2C72.8 141.4 73 142.1 73.4 141.9C74.4 141.5 75.3 140.9 76.4 140.7L76 140.5C76.2 140.8 76 141.7 75.9 142C75.9 142.9 75.6 143.8 75.3 144.7C74.7 146.4 73.9 148 72.8 149.5C70.6 152.6 67.7 155.3 64.5 157.3C64.1 157.5 64.5 158.2 64.9 158C65.2 157.8 65.5 157.7 65.8 157.5C66.2 157.3 65.8 156.6 65.4 156.8C65.1 157 64.8 157.1 64.5 157.3L64.9 158C68.3 155.8 71.5 152.9 73.8 149.5C74.9 147.9 75.7 146.2 76.2 144.3C76.4 143.5 76.5 142.6 76.6 141.7C76.6 141.2 76.8 140.6 76.6 140.2C76.6 140 76.4 140 76.2 140C75.1 140.2 74.2 140.8 73.2 141.2L73.5 141.9C73.5 141.9 73.7 141.8 73.8 141.7L73.4 141.1C72.8 141.6 72 142 71.4 142.6C70.7 143.2 70.1 143.9 69.5 144.6C68.4 146 67.6 147.5 66.9 149.1C66.2 150.7 65.8 152.5 65.6 154.3C65.6 154.7 65.6 155.1 65.5 155.6C65.5 155.9 65.5 156.6 65.5 156.9C65.5 157.2 64.7 157.2 64.6 157.5L65.3 157.7C65.5 153.9 66.3 150 68.5 146.7C69.6 145 71 143.6 72.7 142.5C74.1 141.5 75.9 140.4 77.6 140.2L77.2 140C77.4 140.2 77.2 141.1 77.2 141.4C77.1 142.3 76.9 143.1 76.7 144C76.2 145.8 75.3 147.4 74.2 148.9C72 152 69 154.8 65.8 156.8C65.4 157 65.8 157.7 66.2 157.5H65.7Z" fill="#231F20"/>
<path d="M52.6 165.1C53.2 163.7 53.5001 162.3 53.8001 160.8C54.4001 157.5 54.5001 154.1 53.9001 150.8C53.5001 148.5 52.7 146.4 51.5 144.4C51.5 144.4 50.6 144.9 50.5 145C49.8 145.8 49.4 146.7 49 147.6C47.9 150.1 47.5 152.9 47.6 155.6C47.6 158 48.1 160.3 48.7 162.6L49.7 162C48.2 161.4 46.5001 161.1 44.9001 161C43.4001 160.9 41.9001 161 40.4001 161.3C38.9001 161.6 37.7 162.3 36.5 163C35.8 163.4 35.2 163.9 34.6 164.4C34.4 164.6 34 164.8 34.1 165.1C34.1 165.4 34.7001 165.7 34.9001 165.9C36.3001 167.1 38.1001 167.7 39.8001 168C43.9001 168.6 48 167.3 51.7 165.6C52 165.4 52.3 165.2 52.7 165C47.9 167.2 41.5 169 36.7 165.9C36.4 165.7 34.9 164.8 35.1 164.3C35.1 164 35.8 163.6 36 163.4C36.2 163.3 36.3 163.2 36.5 163C36.5 163 36.7001 162.9 36.8001 162.8C36.8001 162.8 37.2 162.5 37 162.6C36.8 162.7 37.3 162.5 37.2 162.5C37.3 162.5 37.4 162.5 37.5 162.3C37.7 162.3 37.8 162.2 38 162.1C38.4 162 38.8 161.8 39.2 161.7C40.6 161.3 42 161.2 43.5 161.3C45.3 161.3 47.1001 161.7 48.8001 162.4C48.8001 162.4 49.8001 161.9 49.8001 161.8C48.4001 156.4 48 149.9 51.1 145C51.3 144.7 51.5 144.4 51.7 144.2L50.7 144.8C54 150.6 54.2001 157.7 52.3001 164C52.1001 164.5 52.0001 165 51.8001 165.5C51.9001 165.2 52.6001 165.2 52.8001 164.9L52.6 165.1Z" fill="#231F20"/>
<path d="M53 165.2C55.6 158.5 55.4 150.5 51.9 144.2C51.9 144 51.6 144 51.4 144.1C50.4 144.7 49.8001 145.3 49.3001 146.4C48.5001 148 48 149.7 47.7 151.4C47.1 155.2 47.5 159 48.5 162.7C48.5 162.9 48.8 163 49.1 162.9L50.1 162.3C50.4 162.1 50.3 161.7 50.1 161.6C46.8 160.4 42.8 160 39.4 161.2C37.9 161.7 36.4 162.6 35.2 163.6C34.5 164.2 33.5001 164.8 34.3001 165.7C36.5001 168 40 168.7 43 168.5C46.5 168.3 50 167.1 53.1 165.4C53.5 165.2 53.1 164.6 52.7 164.7C49.4 166.2 45.8 167.4 42.1 167.2C40.3 167.2 38.5 166.6 36.9 165.6C36.4 165.3 35.4001 164.9 35.8001 164.2C36.1001 163.7 36.9001 163.4 37.3001 163.1C37.7001 162.8 37.3 162.2 36.9 162.4C36.9 162.4 36.9001 162.4 36.8001 162.4C36.4001 162.7 36.8 163.3 37.2 163.1C39.5 162 42 161.7 44.6 161.9C45.3 161.9 46.1001 162.1 46.8001 162.3C47.4001 162.4 48.2001 162.9 48.8001 162.9C49.3001 162.9 49.7 162.6 50 162.3C50.1 162.3 50.2 162.1 50.2 161.9C48.8 156.4 48.2 149.3 52 144.6C52.2 144.3 52 143.8 51.6 144L50.6 144.6C50.4 144.6 50.4 144.9 50.5 145.1C53.9 151.2 54 159 51.6 165.5C51.5 165.8 52 166.1 52.2 165.9C52.4 165.7 52.9 165.6 53.2 165.3C53.5 164.9 53 164.4 52.7 164.8C52.5 165.1 52 165.1 51.7 165.4L52.3001 165.8C54.9001 159.1 54.7 151.1 51.2 144.8V145.3C51.1 145.3 52 144.7 52 144.7L51.6 144.1C47.6 149.1 48.1 156.4 49.6 162.1L49.8001 161.7C49.6001 161.8 49.3 162.1 49.1 162.2C48.6 162.2 47.7 161.8 47.2 161.7C46 161.4 44.6 161.2 43.4 161.2C41.2 161.2 39.1 161.6 37.1 162.5L37.5 163.2C37.5 163.2 37.5 163.2 37.6 163.2L37.2 162.5C36.4 163 34.5001 164 35.3001 165.1C36.2001 166.4 38.5 167.3 40 167.7C44.5 168.9 49.3001 167.3 53.3001 165.5L52.9 164.8C48 167.5 40.8001 169.6 35.8001 165.9C35.4001 165.6 34.8 165.4 35.1 164.9C35.4 164.3 36.3 163.9 36.9 163.5C38.1 162.8 39.4 162.1 40.7 161.7C43.7 160.9 47.1 161.3 50 162.4V161.7L48.9 162.3L49.5 162.5C48.6 159.1 48.2 155.7 48.6 152.2C48.8 150.5 49.3 148.8 50 147.3C50.3 146.6 50.7 145.8 51.2 145.3C51.4 145.1 51.8 145 52.1 144.8H51.6C55 150.8 55.2 158.6 52.7 165.1C52.5 165.6 53.3 165.8 53.4 165.3L53 165.2Z" fill="#231F20"/>
<path d="M60.6 106.6C55.8 106 51 103.2 48.5 99.1C47.2 97 46.7 94.6 46.5 92.1L45.5 92.7C47 93.1 48.4 93.7 49.8 94.5C52.7 96 55.4 98.2 57.2 100.9C58.4 102.8 59.2 105 59.6 107.2C59.6 107.1 60.6 106.8 60.6 106.6C59.6 99.8 54.3 95 48.1 92.6C47.6 92.4 47.1 92.2 46.5 92.1C46.5 92.1 45.5 92.6 45.5 92.7C45.7 96.8 47.3 100.6 50.5 103.3C52.6 105.1 55.2 106.3 57.9 106.9C58.5 107 59 107.2 59.6 107.2C59.9 107.2 60.3 106.6 60.6 106.6Z" fill="#231F20"/>
<path d="M60.6 106.2C57.2 105.8 53.9 104.3 51.4 101.9C48.6 99.3 47.2 95.8 47 92C47 91.7 46.7 91.5 46.4 91.7L45.4 92.3C45.1 92.5 45.2 92.9 45.4 93C48.7 93.9 52 95.8 54.5 98.2C57 100.6 58.7 103.8 59.2 107.3C59.2 107.6 59.8 107.7 59.9 107.3C59.9 107.4 59.9 107.3 60.1 107.3C60.2 107.3 60.4 107.2 60.5 107.1C60.7 107.1 60.8 106.9 60.9 106.8C61 106.6 60.9 106.3 60.9 106.1C60.9 105.6 60.7 105.1 60.6 104.6C60.2 103.1 59.5 101.6 58.6 100.3C56.8 97.6 54.3 95.4 51.4 93.8C50.7 93.4 50.0001 93.1 49.3001 92.8C48.9001 92.6 48.6 92.5 48.2 92.4C47.7 92.2 47.1 91.9 46.6 91.9C46.2 91.9 45.8 92.1 45.5 92.4C44.9 92.8 45.2001 93.5 45.3001 94.1C45.7001 97.5 47.2001 100.8 49.8001 103.2C51.4001 104.6 53.2 105.7 55.2 106.5C56.3 106.9 57.4 107.3 58.5 107.5C58.9 107.5 59.5 107.8 59.9 107.7C60.2 107.7 60.4 107.2 60.7 107.2C61.2 107.2 61 106.4 60.5 106.5C60.3 106.5 60.2 106.6 60 106.8C59.6 107.1 59.4 107.1 58.9 107C58 106.8 57.2001 106.6 56.3001 106.3C54.6001 105.7 53 104.9 51.6 103.9C49 102 47.2 99.3 46.4 96.1C46.2 95.3 46.1 94.5 46 93.7C46 93.6 46 93.4 46 93.2C46 93.1 46.5 92.8 46.6 92.8C46.8 92.8 47.5 93.1 47.7 93.2C48 93.3 48.4 93.5 48.7 93.6C49.4 93.9 50.1001 94.2 50.8001 94.6C53.3001 96 55.6001 97.8 57.3001 100.1C58.2001 101.4 59 102.8 59.5 104.3C59.7 105 60.1 106 60.1 106.7C60.1 106.9 60.3 106.7 60.1 106.8C60 106.8 59.8 106.9 59.7 107C59.6 107.1 59.4001 107.2 59.3001 107.3H60C58.9 100 52.7 94.5 45.7 92.6V93.3L46.8001 92.7L46.2 92.4C46.4 96.4 47.9 100.1 50.9 102.8C53.6 105.3 57.1 106.8 60.7 107.3C61.2 107.3 61.2 106.6 60.7 106.5L60.6 106.2Z" fill="#231F20"/>
<path d="M73.6999 88.4C73.1999 91.2 73.2 94.1 73.4 96.9C73.6 99.2 74 101.6 74.9 103.8C75.6 105.5 76.6 106.9 77.9 108.3C80.3 110.9 83.9 112 87.3 111.1C88.6 110.8 89.7 110.2 90.9 109.5C91.4 109.2 91.9 108.9 92.4 108.6C92.6 108.5 93.1999 108.1 93.1999 107.9C93.1999 107.7 92.7999 107.2 92.6999 107.1C92.3999 106.6 92 106.1 91.6 105.7C90.3 104.3 88.5 103.4 86.6 103.4C83.9 103.4 81.5 104.8 79.3 106.2L80.3 105.6C81.1 101.3 80.7 96.3 78.6 92.4C77.7 90.6 76.3999 89.1 74.6999 87.9C74.5999 87.9 73.8999 88.5 73.6999 88.5C78.7999 92.1 80 98.7 79.5 104.6C79.5 105.1 79.4 105.6 79.3 106.2C79.3 106.1 80.1 105.7 80.3 105.6C82.2 104.3 84.7 103.5 87 104C88.5 104.3 89.8 105.2 90.8 106.2C91.2 106.6 91.5 107 91.8 107.5C91.9 107.7 92.3 108.1 92.3 108.3C92.3 108.5 92.3 108.3 92.3 108.5C92.1 108.8 91.5 109.1 91.1 109.3C90.6 109.6 90.1999 109.8 89.6999 110C88.5999 110.4 87.3999 110.7 86.1999 110.8C83.3999 110.8 80.8 109.6 78.8 107.6C77.5 106.3 76.6 104.8 75.9 103.1C75.1 101.1 74.7 98.9 74.5 96.7C74.2 93.8 74.3 90.8 74.8 87.9C74.8 88.1 73.9 88.2 73.8 88.5L73.6999 88.4Z" fill="#231F20"/>
<path d="M73.3001 88.3C72.1001 95.7 72.6 106.3 80 110.4C83.2 112.2 86.9 111.9 90.1 110.2C91 109.7 91.8 109.2 92.6 108.7C93 108.5 93.4 108.2 93.5 107.7C93.6 107.2 92.8 106.5 92.5 106.1C92 105.4 91.4 104.8 90.7 104.3C86.9 101.4 82.5001 103.3 78.9001 105.6C78.5001 105.9 78.9001 106.5 79.3001 106.3C80.4001 105.7 80.5 105.6 80.6 104.4C80.8 103.4 80.8001 102.3 80.8001 101.3C80.8001 99.1 80.5001 96.8 79.8001 94.6C79.2001 92.6 78.2001 90.8 76.8001 89.3C76.3001 88.7 75.4 87.5 74.6 87.4C74.1 87.3 73.9 87.9 73.5 87.9C73.1 87.9 73.0001 88.4 73.3001 88.6C78.5001 92.5 79.7 99.8 78.7 105.8C78.7 106.1 79.1001 106.5 79.3001 106.2C79.5001 106 79.9 105.9 80.2 105.7C80.7 105.4 81.1 105.1 81.6 104.9C82.8 104.3 84.2 104 85.5 104.1C86.8 104.2 88.2001 104.7 89.3001 105.6C90.2001 106.3 91.2 107.3 91.6 108.4C91.8 108.9 92.5001 108.7 92.3001 108.2C92.3001 107.9 91.8 107.8 91.6 108.2C90.9 109.2 89.1 109.7 88 110C86.6 110.4 85.1 110.5 83.7 110.2C80.9 109.6 78.7 107.7 77.2 105.4C73.9 100.6 73.9001 93.5 74.8001 87.9C74.8001 87.6 74.4 87.2 74.2 87.5C74 87.8 73.4 87.8 73.2 88.1C72.9 88.5 73.6001 88.9 73.9001 88.5C74.1001 88.3 74.6001 88.3 74.8001 88L74.2 87.6C73.2 93.9 73.4 101.8 77.7 106.9C79.5 109.1 82.0001 110.7 84.9001 110.9C86.5001 111 88.1 110.7 89.6 110.1C90.6 109.7 91.9 109.2 92.5 108.3H91.8001C92.0001 108.1 92.3 108.1 92.5 108C91.7 105.6 88.8001 103.6 86.4001 103.2C84.9001 103 83.4 103.2 82 103.8C81.3 104.1 80.7 104.5 80 104.9C79.7 105.1 79.2 105.2 79 105.5L79.6 105.9C80.7 99.5 79.4001 91.9 73.9001 87.8L73.7 88.5C74 88.5 74.4 88 74.6 88C74.9 88 75.6001 88.8 75.8001 89C76.1001 89.3 76.3 89.5 76.6 89.8C77.9 91.3 78.7001 93 79.3001 94.8C79.9001 96.6 80.1 98.4 80.2 100.3C80.2 101.2 80.2 102.1 80.2 103C80.2 103.5 80.2 103.9 80 104.4C79.8 105 79.6 105.1 79.1 105.5L79.5 106.2C81.4 104.9 83.5001 103.7 85.8001 103.4C87.9001 103.2 89.9001 104.1 91.4001 105.6C91.8001 106 92.1 106.5 92.5 106.9C92.8 107.3 92.8 107.4 92.5 107.8C91.8 108.5 90.7001 109 89.8001 109.4C87.8001 110.4 85.7 110.9 83.5 110.5C79.2 109.7 76.2 106 75 102C73.6 97.6 73.6001 92.7 74.3001 88.2C74.3001 87.7 73.6 87.5 73.6 88L73.3001 88.3Z" fill="#231F20"/>
<path d="M47.6 63.8C48.6 62.3 49.3 60.4 49.7 58.7C50.7 54.7 50.5001 50.5 48.8001 46.7C48.8001 46.7 47.9001 47.2 47.8001 47.3C47.2001 47.8 46.7001 48.6 46.4001 49.3C45.3001 51.3 44.8 53.7 44.7 56C44.7 58.1 44.8 60.2 45.2 62.2L46.2 61.6C43.6 60.2 40.1001 59.5 37.4001 60.7C36.7001 61 35.9001 61.5 35.3001 61.9C34.9001 62.2 34.5 62.6 34.1 63C33.9 63.2 33.5 63.6 33.6 63.8C33.6 63.9 34 63.9 34.2 64C34.6 64.1 34.9001 64.2 35.3001 64.3C36.3001 64.6 37.4001 64.8 38.4001 64.9C41.1001 65.3 44.1 65.5 46.7 64.3C47 64.2 47.3 63.9 47.7 63.7C45.6 64.7 43.2001 64.7 40.9001 64.5C39.0001 64.3 37.2001 64 35.3001 63.4C35.1001 63.4 34.9 63.4 34.7 63.2C34.5 63.1 34.5 63.2 34.7 63C34.8 62.6 35.4001 62 35.8001 61.7C36.0001 61.5 36.2 61.3 36.5 61.2C37.1 60.8 36.5001 61.2 36.4001 61.2C36.6001 61.2 36.8 61 37 61C38.7 60.3 40.7001 60.4 42.4001 60.9C43.5001 61.2 44.5 61.5 45.5 62.1C45.5 62.1 46.5 61.6 46.5 61.5C45.7 56.9 45.5 51.1 48.6 47.2C48.8 47 48.9 46.8 49.2 46.6L48.2 47.2C49.8 51 50.1 55.2 49.1 59.2C48.6 61 48 62.8 47 64.3C47.2 64 47.8 64 48 63.7L47.6 63.8Z" fill="#231F20"/>
<path d="M47.9 63.9C51.2 58.8 51.4999 52 49.1999 46.5C49.1999 46.3 48.9 46.1 48.6 46.3C48.3 46.5 47.9999 46.6 47.6999 46.8C47.1999 47.1 46.9 47.7 46.5 48.1C45.7 49.3 45.1 50.8 44.8 52.2C44 55.4 44.2 58.8 44.8 62.1C44.8 62.3 45.2 62.4 45.4 62.3L46.4 61.7C46.6 61.6 46.6 61.2 46.4 61.1C44.1 59.9 41.5 59.2 38.9 59.7C37.6 59.9 36.4 60.5 35.3 61.3C34.8 61.6 34.4 62 34 62.5C33.8 62.8 33.2999 63.1 33.1999 63.5C32.9999 64.4 34.6 64.5 35.1 64.6C36.6 65 38 65.2 39.5 65.4C41 65.6 42.4 65.6 43.9 65.4C45.4 65.2 46.4999 64.7 47.6999 64C48.0999 63.8 47.7 63.2 47.3 63.4C45.1 64.3 42.7 64.3 40.3 64.1C39.1 64 38 63.8 36.8 63.5C36 63.3 35.1 62.9 34.3 62.8L34.6 63.4C35 62.5 35.8 61.9 36.5 61.4L36.1 60.8L35.9 60.9C35.5 61.1 35.6 61.8 36.1 61.6C37.1 61.3 38 60.9 39.1 60.9C40.3 60.9 41.4999 61.1 42.6999 61.4C43.2999 61.6 43.9 61.8 44.5 62.1C44.7 62.2 45 62.4 45.3 62.4C45.7 62.4 46.1 62 46.4 61.8C46.5 61.8 46.5 61.6 46.4 61.4C45.6 56.8 45.2 50.4 49 46.9C49.3 46.6 49 46.1 48.6 46.3L47.6 46.9C47.5 46.9 47.4 47.2 47.4 47.3C49.6 52.6 49.2999 59.2 46.1999 64.1C45.9999 64.5 46.5 64.8 46.8 64.6C47.1 64.3 47.5 64.3 47.8 64C48.1 63.7 47.6 63.1 47.3 63.5C47 63.8 46.6 63.8 46.3 64.1L46.9 64.6C50.2 59.5 50.4999 52.7 48.1999 47.2L48 47.6L49 47L48.6 46.4C44.6 50.1 45 56.8 45.8 61.6V61.2C45.8 61.3 45.5 61.5 45.3 61.6C45.1 61.6 44.7 61.4 44.4 61.3C43.4 60.9 42.4 60.6 41.4 60.4C40.5 60.2 39.5 60.2 38.6 60.3C37.7 60.4 36.9 60.7 36.1 61L36.3 61.7C36.5 61.7 36.7 61.5 36.9 61.4C37.2 61.1 36.9 60.6 36.5 60.8C35.6 61.4 34.7 62.1 34.3 63.1C34.2 63.4 34.3 63.6 34.6 63.7C35 63.7 35.5 64 35.9 64.1C36.5 64.2 37.0999 64.4 37.6999 64.5C38.8999 64.7 39.9999 64.9 41.1999 65C43.4999 65.2 45.8 65 47.9 64.2L47.5 63.6C46.4 64.2 45.3999 64.6 44.1999 64.8C42.9999 65 41.8999 65 40.6999 64.9C39.4999 64.8 38.3 64.6 37.1 64.4C36.7 64.4 34.2 63.9 34.1 63.6C34.1 63.4 34.8 62.8 34.9 62.7C35.3 62.3 35.8 61.9 36.4 61.6C37.4 61 38.5 60.6 39.6 60.4C41.8 60.2 44.1 60.8 46 61.8V61.2L45 61.8L45.6 62C45.1 59 44.8 55.8 45.6 52.8C45.9 51.4 46.3999 50 47.1999 48.8C47.4999 48.3 47.9 47.8 48.4 47.4C48.7 47.2 48.9999 47.1 49.1999 46.9L48.6 46.7C50.8 52 50.5 58.6 47.4 63.5C47.1 63.9 47.8 64.3 48.1 63.9H47.9Z" fill="#231F20"/>
<path d="M55.7 39.9C55.8 43 56.5 46.2 57.7 49.1C58.6 51.4 59.9 53.6 61.8 55.3C62.2 55.7 62.7 56.1 63.3 56.4C63.6 56.6 64.2 57 64.6 57C64.9 57 65.3 56.7 65.6 56.6C69.4 55.1 73.3 53 76.3 50.2C78.1 48.5 79.7 46.5 80.4 44C80.6 43.3 80.5 43.4 80 43.5C79.4 43.5 78.7 43.6 78.1 43.8C72.8 44.8 67.8 48.2 65.5 53.2L66.5 52.6C65.9 48.8 64.1 44.8 61.3 42.1C60 40.9 58.5 39.9 56.9 39.4C56.7 39.4 56.2 40 55.9 40C61 41.8 63.9 46.9 65.2 51.9C65.3 52.3 65.4 52.8 65.5 53.2C65.5 53.1 66.4 52.8 66.5 52.6C67.7 50.1 69.5 47.9 71.8 46.4C71.9 46.4 72.1 46.2 72.2 46.2C71.8 46.4 72.9 45.8 72.2 46.2C72.4 46.1 72.7 45.9 73 45.8C73.5 45.6 74 45.4 74.5 45.2C75.3 44.9 76.2 44.7 77.1 44.5C77.7 44.4 78.3 44.3 78.9 44.2C78.9 44.2 79.6 44.1 79.6 44.2C79.7 44.4 79.3 45.4 79.2 45.6C79 46.2 78.8 46.7 78.5 47.2C77.9 48.2 77.2 49.1 76.4 50C73.6 52.9 70 54.9 66.3 56.4C66.1 56.4 65.8 56.7 65.6 56.7C65.2 56.7 64.6 56.2 64.2 56C63.7 55.7 63.2 55.3 62.8 54.9C61.1 53.4 59.9 51.3 59 49.2C57.8 46.2 57 42.8 56.9 39.6C56.9 39.8 55.9 40 55.9 40.2L55.7 39.9Z" fill="#231F20"/>
<path d="M55.3 39.9C55.5 44.6 56.8 49.6 59.6 53.4C60.7 54.8 62.3 56.7 64.1 57.3C64.7 57.5 65.2 57.2 65.8 56.9C66.9 56.4 68 55.9 69.1 55.4C73.1 53.4 77.3 50.7 79.6 46.7C80 46.1 81.5 43.5 80.4 43C79.8 42.7 78.5 43.2 77.8 43.3C76.7 43.5 75.7 43.8 74.7 44.2C70.5 45.8 66.9 48.8 65 52.9C64.8 53.2 65.2 53.6 65.5 53.4L66.5 52.8C66.7 52.8 66.7 52.5 66.7 52.4C66.1 49 64.8 45.7 62.6 43C61.5 41.7 60.3 40.5 58.8 39.7C58.3 39.4 57.4 38.8 56.8 38.8C56.2 38.8 56.1 39.3 55.7 39.4C55.3 39.5 55.4 40 55.7 40.1C61.1 42.1 64.1 47.7 65 53.1C65 53.4 65.4 53.5 65.6 53.3C65.8 53 66.4 53 66.6 52.7C66.9 52.3 67.1 51.7 67.3 51.3C67.5 50.9 67.8 50.5 68.1 50.1C69.3 48.4 70.8 47.4 72.4 46.1C72.7 45.9 72.6 45.2 72.1 45.4C72 45.4 71.9 45.5 71.8 45.6C71.5 45.8 71.6 46.2 71.8 46.3C72.1 46.4 72.7 46 73 45.8C74 45.3 75 45 76.1 44.7C76.5 44.6 78.8 44 78.9 44.2C78.9 44.3 78.8 44.8 78.7 45.1C77.2 49.1 73.6 51.9 69.9 53.8C69.1 54.2 68.3 54.6 67.5 55C66.6 55.4 65.7 56 64.8 55.5C63 54.6 61.6 52.9 60.6 51.2C58.4 47.6 57.3 43.2 57.1 39.1C57.1 38.7 56.6 38.6 56.4 38.9C56.2 39.2 55.7 39.1 55.4 39.5C55.1 39.9 55.8 40.3 56.1 39.9C56.3 39.6 56.8 39.7 57.1 39.3L56.4 39.1C56.6 43 57.5 46.9 59.3 50.4C60.1 52 61.1 53.5 62.5 54.7C63.3 55.4 64.8 56.8 65.9 56.6C67.5 56.2 69.3 55.1 70.7 54.3C72.3 53.4 73.8 52.4 75.2 51.2C76.6 50 77.9 48.5 78.8 46.9C79.2 46.2 80.1 44.6 79.8 43.8C79.8 43.7 79.7 43.6 79.5 43.5C78.4 43.3 76.9 43.7 75.9 44C75.1 44.2 74.2 44.5 73.5 44.8C73.3 44.8 73.1 45 72.8 45.1C72.6 45.2 71.7 45.5 72 45.6V46.3C72 46.3 72.2 46.3 72.2 46.2L71.9 45.5C70.4 46.6 69.1 47.6 67.9 49C67.3 49.7 66.8 50.4 66.4 51.2C66.1 51.7 66 52.1 65.5 52.4C65.3 52.5 65.1 52.5 65 52.7L65.6 52.9C64.6 47.2 61.4 41.5 55.8 39.4V40.1C56.1 40.1 56.4 39.8 56.7 39.7C57.4 39.6 58.5 40.4 59 40.7C60.4 41.6 61.6 42.8 62.5 44.2C64.3 46.7 65.4 49.6 65.8 52.5L66 52.1L65 52.7L65.5 53.2C67 50.1 69.5 47.6 72.6 45.9C74.1 45.1 75.7 44.5 77.4 44.1C78 44 78.6 43.9 79.2 43.8C79.5 43.8 80 43.8 79.8 43.6C79.8 43.8 79.5 44.6 79.4 44.8C79.2 45.3 79 45.8 78.7 46.3C76.7 49.7 73.2 52.2 69.8 54C68.2 54.9 66.4 55.9 64.7 56.4C63.9 56.6 62.8 55.7 62.2 55.2C61.4 54.6 60.7 53.8 60.1 52.9C57.4 49.2 56.2 44.3 55.9 39.7C55.9 39.2 55.1 39.2 55.1 39.7L55.3 39.9Z" fill="#231F20"/>
</svg>
