<svg width="76" height="265" viewBox="0 0 76 265" fill="none" xmlns="http://www.w3.org/2000/svg">
<path d="M36.4 26.8C37.5 29.8 38.3 32.9 38.9 36C40.7 44.3 41.5 52.7 41.7 61.2C41.8 67.1 41.7 73 41.1 78.9C40.6 84.4 39.7 89.8 38.9 95.3C37.9 102.2 37.2 109.1 36.7 116C35.3 133.6 34.8 151.4 34.7 169C34.6 186.6 34.9 205.4 36.1 223.5C36.6 230.8 37.2 238.2 38.1 245.5C38.8 250.7 39.5 256 41 261.1C41.2 262 41.5 262.9 41.9 263.8C41.9 263.8 43 263.3 42.9 263.2C41.3 258.8 40.5 254 39.8 249.3C38.8 242.5 38.1 235.5 37.6 228.6C36.3 210.8 35.8 193 35.8 175.1C35.8 157.1 36.2 139 37.4 121C37.9 113.7 38.5 106.3 39.4 99C39.9 95.2 40.5 91.5 41.1 87.7C42 81.4 42.6 74.9 42.8 68.5C43.1 58.9 42.6 49.3 40.9 39.9C40.1 35.4 39.2 30.9 37.7 26.6C37.7 26.4 37.6 26.2 37.5 26C37.5 26 36.4 26.5 36.5 26.6L36.4 26.8Z" fill="#231F20"/>
<path d="M36 26.9C38.7 34 39.8 41.9 40.6 49.5C41.4 57.1 41.5 64.8 41.1 72.5C40.7 80.2 39.5 88.3 38.3 96.1C37.2 103.5 36.5 111 36 118.4C34.9 134.1 34.4 149.8 34.2 165.5C34 181.2 34.2 196.9 35 212.6C35.4 221.3 35.9 230 36.8 238.6C37.7 247.2 38.4 255.8 41.3 263.8C41.4 264.1 41.7 264.2 41.9 264C42.2 263.7 42.7 263.7 42.9 263.4C42.9 263.4 43 263.2 43 263C40.4 255.8 39.6 248 38.8 240.4C38 232.8 37.4 224.9 37 217.2C36.1 201.5 35.9 185.8 35.9 170.2C35.9 154.6 36.4 138.7 37.3 123C37.8 115.2 38.4 107.3 39.4 99.5C40.4 91.7 41.8 84.2 42.4 76.5C43.1 67.9 43.1 59.2 42.4 50.6C41.7 42 40.4 33.8 37.6 26.1C37.5 25.8 37.2 25.7 37 25.9C36.7 26.2 36.2 26.2 36 26.5C35.7 26.9 36.2 27.4 36.5 27C36.8 26.7 37.3 26.7 37.5 26.4L36.9 26.2C39.6 33.5 40.8 41.4 41.5 49.1C42.2 56.8 42.4 64.7 42 72.5C41.6 80.3 40.3 88.5 39.1 96.5C37.9 104.5 37.3 111.9 36.8 119.6C35.7 135.5 35.2 151.4 35.1 167.2C35 183 35.2 199.2 36 215.2C36.5 224.1 37.1 233 38.1 241.8C38.6 246 39.1 250.1 39.9 254.2C40.3 256.2 40.7 258.1 41.2 260C41.3 260.4 41.5 260.9 41.6 261.3C41.6 261.5 42.2 262.7 42.2 262.7C42.2 262.9 41.4 263.1 41.2 263.2L41.8 263.4C39.2 256.1 38.3 248.1 37.5 240.4C36.7 232.7 36.1 225.1 35.7 217.4C34.8 201.7 34.6 186 34.6 170.3C34.6 154.6 35 138.9 36.1 123.2C36.6 115.4 37.2 107.6 38.2 99.8C39.2 92 40.6 84.8 41.2 77.1C41.9 68.4 41.9 59.7 41.2 51.1C40.8 46.9 40.3 42.6 39.5 38.4C38.7 34.2 37.9 30.2 36.4 26.4C36.2 25.9 35.5 26.2 35.7 26.6L36 26.9Z" fill="#231F20"/>
<path d="M44 163.9C42 166.4 41.8 169.8 41.8 172.9C41.8 176 42.2 179.8 43.8 182.7C45.4 185.6 48.4 186.7 51.6 186.9C54.5 187.1 57.5 186.4 60.1 185.1C62.4 183.9 64.6 182.5 66.2 180.5C67.2 179.2 67.9 177.7 67.8 176C67.7 174.5 66.9 173.2 65.6 172.6C65 172.3 64.4 172.1 63.7 172C63 171.9 62.2 172 61.5 171.5C60.6 170.9 60.5 169.9 60.4 168.9C60.4 168 60.4 167.1 59.7 166.4C59 165.7 58 165.9 57.1 165.9C56 165.9 54.9 166 54 165.1C53.5 164.5 53.3 163.7 52.9 163.1C52.5 162.5 52 161.8 51.3 161.4C50 160.6 48.2 161 46.9 161.7C45.8 162.3 44.8 162.9 44 163.8C44.2 163.5 44.8 163.5 45 163.2C45.9 162.1 47 161.6 48.4 161.6C49.8 161.6 50.7 162.2 51.5 163.3C52.2 164.3 52.5 165.7 53.5 166.3C54.3 166.8 55.2 166.6 56 166.6C56.8 166.6 57.7 166.4 58.4 166.9C59.1 167.4 59.2 168.2 59.3 169.1C59.4 170 59.3 170.8 59.8 171.5C60.6 172.7 62.1 172.4 63.3 172.7C64.5 173 65.7 173.7 66.3 174.9C66.9 176.1 66.9 177.6 66.3 178.9C65.3 181.5 62.7 183.7 60.2 184.8C57.7 185.9 54.8 186.4 52.1 186.1C49.3 185.9 46.5 184.9 45 182.4C43.3 179.6 42.9 175.8 42.8 172.5C42.7 169.2 42.9 165.8 45 163.2C44.8 163.5 44.2 163.5 44 163.8V163.9Z" fill="#231F20"/>
<path d="M43.7 163.7C41.9 166.1 41.5 169 41.5 171.9C41.5 174.8 41.7 178.1 42.7 181C43.6 183.5 45.1 185.4 47.6 186.3C50.2 187.3 53.3 187.3 56 186.8C58.9 186.2 61.8 184.8 64.1 182.9C66.2 181.2 68.3 178.8 68.1 175.9C67.9 173.4 66 171.9 63.6 171.5C62.7 171.4 61.6 171.5 61 170.5C60.6 169.8 60.7 168.9 60.6 168.2C60.5 167.1 60.2 166.1 59 165.7C57.3 165.1 55.2 166.4 53.9 164.6C53 163.4 52.7 161.9 51.3 161C48.8 159.5 45.3 161.6 43.5 163.5C43.2 163.8 43.6 164.4 43.9 164.1C44.2 163.8 44.7 163.7 45 163.4C45.4 163.1 45.8 162.6 46.3 162.3C47.7 161.6 49.4 161.7 50.5 162.8C51.8 164.1 51.9 166.4 54.1 166.8C55.3 167 57.5 166.2 58.3 167.5C59 168.5 58.4 170 58.9 171.1C59.7 172.9 61.6 172.5 63.2 173C66.8 174.1 66.5 178 64.7 180.5C63.1 182.7 60.8 184.1 58.2 184.9C55.6 185.7 52.6 185.9 49.9 185.3C47.2 184.7 45.2 183 44.2 180.3C43.2 177.6 42.9 174.5 42.9 171.6C42.9 168.7 43.2 165.7 45 163.3C45.2 163 44.8 162.6 44.5 162.8C44.1 163.1 43.7 163.2 43.4 163.5C43 163.8 43.5 164.3 43.9 164C44.2 163.8 44.6 163.7 44.9 163.5L44.4 163C42.7 165.3 42.2 168.1 42.2 170.9C42.2 173.9 42.3 177 43.3 179.8C44.1 182.4 45.6 184.5 48.2 185.5C50.8 186.5 53.6 186.6 56.2 186.2C59 185.7 61.7 184.6 63.8 182.7C65.7 181 67.3 178.5 66.9 175.8C66.5 173.1 64.2 172.3 61.8 172C60.9 171.9 60 171.7 59.6 170.6C59.4 169.9 59.5 169 59.4 168.3C59.3 167.4 58.8 166.6 57.9 166.2C56.1 165.6 54 166.9 52.8 165C52.1 163.9 51.7 162.7 50.6 161.8C49.6 161 48.3 160.9 47.1 161.2C46.5 161.4 46 161.6 45.5 162C45.3 162.2 45.1 162.3 44.9 162.5C44.5 162.9 44.1 163 43.7 163.3L44.1 163.9C46.1 161.7 50.1 159.7 52.2 162.8C52.8 163.7 53 164.8 53.9 165.5C54.6 166.1 55.5 166.2 56.4 166.2C58 166.2 59.7 165.9 59.9 168C59.9 168.9 59.9 169.9 60.4 170.7C60.8 171.4 61.6 171.8 62.4 171.9C63.8 172.1 65.2 172.2 66.3 173.2C68.7 175.6 66.8 179.1 64.8 181C62.8 182.9 60.2 184.5 57.5 185.3C52.7 186.8 46 186.6 43.7 181.4C42.4 178.5 42.2 175.3 42.1 172.2C42 169.1 42.4 166.2 44.2 163.8C44.5 163.4 43.8 163 43.6 163.4L43.7 163.7Z" fill="#231F20"/>
<path d="M2.4 148.1C4.4 150.8 7.70001 151.9 10.8 152.7C12.6 153.1 14.5 153.4 16.4 153.5C18 153.5 19.7 153.5 21.2 153.1C23.8 152.2 25.8 150.3 27 147.8C28.4 144.8 28.8 141.3 28.2 138C27.7 135 26.3 131.5 23.7 129.8C22.4 128.9 20.7 128.6 19.3 129.2C18.4 129.6 17.5 130.1 16.8 130.8C16.4 131.3 16 131.9 15.7 132.5C15.6 132.8 15.4 133.2 15.3 133.5C15.3 133.6 15.2 133.7 15.1 133.9C15.1 134.1 14.7 134.3 14.7 134.4C15.1 134.3 15.2 134.2 14.9 134.4C14.7 134.4 14.6 134.4 14.4 134.4C14.2 134.4 14 134.4 13.8 134.4C13.4 134.4 12.9 134.2 12.5 134.1C11.6 133.9 10.9 134.1 10.1 134.5C9.3 134.9 8.7 135.4 8.5 136.4C8.3 137.4 8.2 138.6 7.5 139.4L7.2 139.7C7.6 139.5 7.60001 139.5 7.3 139.6H7.1C6.7 139.7 6.3 139.8 5.9 139.9C5.3 140.1 4.7 140.3 4.1 140.6C2.9 141.2 1.9 141.8 1.5 143.2C1 144.9 1.5 146.8 2.4 148.2L3.4 147.6C2.3 146 1.8 143.7 2.7 141.9C2.9 141.5 3.1 141.3 3.4 141C3.6 140.8 3.6 140.8 3.4 141C3.4 141 3.6 141 3.7 140.9C3.9 140.9 4.2 140.7 4.4 140.7C5.2 140.5 6 140.5 6.7 140.1C7.9 139.5 8.8 138.9 9.1 137.5C9.3 136.4 9.4 135.1 10.4 134.4L10 134.6H10.2L9.5 134.9C10.6 134.4 11.7 134.9 12.8 135.1C14.1 135.3 15.8 134.2 16.3 133C16.7 132.1 17 131.2 17.6 130.4C17.7 130.2 17.9 130 18.1 129.9C18.1 129.9 18.3 129.8 18.3 129.7C18.5 129.4 18.1 129.9 18.1 129.8C18.1 129.5 19.5 129.5 19.7 129.5C21.9 129.5 23.7 131.1 24.9 132.9C27.3 136.7 28 141.5 26.8 145.8C26.2 147.9 25.3 150.2 23.6 151.7C23.4 151.9 23.2 152 23 152.2C22.8 152.2 22.6 152.4 22.5 152.4C22 152.6 21.4 152.7 20.9 152.8C19.8 153 18.7 153 17.6 152.9C14.8 152.7 11.9 152.2 9.3 151.3C7.10001 150.5 4.9 149.4 3.4 147.5L2.4 148.1Z" fill="#231F20"/>
<path d="M2.10001 148.3C4.70001 151.6 9.00001 152.8 13 153.5C17.2 154.2 21.8 154.4 25 151.2C28.1 148.2 29.1 143.4 28.7 139.3C28.3 135.7 27 131.5 23.8 129.5C22 128.3 20 128.3 18.1 129.3C17.2 129.8 16.4 130.5 15.8 131.3C15.2 132.2 15 133.6 14.2 134.3C13.9 134.6 14.2 135.1 14.6 134.9C14.8 134.9 14.9 134.8 15 134.6C15.3 134.3 15 133.9 14.6 134C13.5 134.3 12.5 133.7 11.4 133.7C10.5 133.7 9.70001 134.1 9.00001 134.6C7.30001 135.8 8.00001 138.1 6.60001 139.5C6.30001 139.8 6.60001 140.3 7.00001 140.1C7.20001 140.1 7.30002 140 7.40002 139.9C7.70002 139.7 7.40001 139.1 7.00001 139.3C6.00001 139.7 4.90002 139.7 3.80002 140.2C2.90002 140.6 1.80001 141.2 1.20001 142.1C-0.0999892 144 0.500012 146.7 1.60001 148.5C1.60001 148.6 1.90001 148.7 2.00001 148.7C2.40001 148.6 2.70001 148.2 3.10001 148.1C3.30001 148.1 3.30001 147.8 3.20001 147.6C2.10001 145.8 1.40002 142.9 3.30002 141.3C3.60002 141 3.30002 140.5 2.90002 140.7H2.70001C2.30001 141 2.60001 141.6 3.00001 141.5C4.70001 140.8 6.40002 140.9 7.80002 139.6C9.20002 138.3 8.60001 136 10.1 134.8C10.4 134.5 10.1 134 9.70001 134.2L9.30002 134.4C8.90002 134.6 9.30001 135.3 9.70001 135.1H9.90001C10.3 134.8 9.90001 134.1 9.50001 134.3L8.80002 134.7C8.40002 134.9 8.70001 135.5 9.10001 135.4C10.4 135 11.5 135.7 12.8 135.6C13.6 135.6 14.4 135.2 15 134.7C15.5 134.3 15.9 133.8 16.2 133.2C16.5 132.5 16.7 131.8 17.1 131.2C17.4 130.7 17.9 130.4 18.2 130C18.4 129.7 18.2 129.2 17.8 129.4C17.7 129.4 17.6 129.6 17.5 129.6L17.9 130.2C18.3 129.7 20.1 130.1 20.5 130.2C21.6 130.5 22.6 131.4 23.3 132.3C24.8 134.1 25.7 136.5 26.2 138.8C27 143.3 26.1 149.1 22.3 152.1C22 152.4 22.3 152.9 22.7 152.7C22.9 152.7 22.8 152.7 22.5 152.7V152C19.3 153.5 15.3 152.9 12 152.2C8.70001 151.5 5.30001 150.4 3.20001 147.7C3.20001 147.6 3.00002 147.5 2.80002 147.5C2.40002 147.6 2.10002 148 1.80002 148.1C1.40002 148.3 1.60001 149 2.00001 148.8C2.40001 148.7 2.70001 148.3 3.00001 148.2L2.60001 148C4.80001 150.9 8.40001 152.1 11.9 152.9C15.4 153.7 19.6 154.3 23 152.7C23.2 152.6 23.2 152.2 23 152C22.8 152 22.6 152 22.4 152L22.8 152.6C27.2 149.1 28 142.1 26.5 137C25.8 134.6 24.6 132.1 22.6 130.5C21.7 129.8 20.7 129.3 19.5 129.2C18.9 129.2 17.7 129.2 17.3 129.6C17 129.9 17.3 130.4 17.7 130.2C17.8 130.2 17.9 130.1 18 130L17.6 129.4C17 130.1 16.5 130.5 16 131.3C15.5 132.1 15.4 133.1 14.7 133.8C13.7 134.7 12.7 134.8 11.5 134.6C10.6 134.4 9.80002 134.2 8.80002 134.6L9.10001 135.3L9.80002 134.9L9.40001 134.2H9.20001L9.60001 135L10 134.8L9.60001 134.2C8.30001 135.3 8.70002 137 7.90002 138.4C6.80002 140.2 4.50002 140.1 2.80002 140.7L3.10001 141.4H3.30002L2.90002 140.7C0.700015 142.5 1.40001 145.8 2.70001 147.9V147.4C2.50001 147.6 2.20002 147.9 1.90002 148L2.30002 148.2C1.10002 146.4 0.500015 143.6 2.40002 142C3.10002 141.4 4.00002 141 4.80002 140.7C5.60002 140.4 6.40001 140.4 7.10001 140.2L6.70001 139.6H6.40002C6.40002 139.7 6.80002 140.3 6.80002 140.3C7.30002 139.8 7.60002 139.3 7.80002 138.6C8.10002 137.6 8.00001 136.4 8.90001 135.6C10 134.6 11.2 134.7 12.6 134.9C13.2 135 13.8 135.1 14.5 134.9L14.1 134.3L13.8 134.5L14.2 135.1C15.3 134.1 15.3 132.5 16.3 131.4C17.8 129.7 20.2 129 22.3 130.1C25.3 131.7 26.7 135.5 27.2 138.6C27.8 142.5 27.2 147.2 24.5 150.3C21.8 153.4 17.8 153.7 13.9 153.3C10 152.9 4.80001 151.7 2.10001 148.3C1.80001 147.9 1.20002 148.3 1.40002 148.7L2.10001 148.3Z" fill="#231F20"/>
<path d="M51 87.3C49 89.8 48.8 93.2 48.8 96.3C48.8 99.4 49.2 103.2 50.8 106.1C52.4 109 55.4001 110.1 58.6001 110.3C61.5001 110.5 64.5001 109.8 67.1001 108.5C69.4001 107.3 71.6 105.9 73.2 103.9C74.2 102.6 74.9 101.1 74.8 99.4C74.7 97.9 73.9001 96.6 72.6001 96C72.0001 95.7 71.4 95.5 70.7 95.4C70 95.3 69.2 95.4 68.5 94.9C67.6 94.3 67.5 93.3 67.4 92.3C67.4 91.4 67.4 90.5 66.7 89.8C66 89.1 65.0001 89.3 64.1001 89.3C63.0001 89.3 61.9 89.4 61 88.5C60.5 87.9 60.3 87.1 59.9 86.5C59.5 85.9 59 85.2 58.3 84.8C57 84 55.2 84.4 53.9 85.1C52.8 85.7 51.8 86.3 51 87.2C51.2 86.9 51.8 86.9 52 86.6C52.9 85.5 54 85 55.4 85C56.8 85 57.7 85.6 58.5 86.7C59.2 87.7 59.5 89.1 60.5 89.7C61.3 90.2 62.2 90 63 90C63.8 90 64.7 89.8 65.4 90.3C66.1 90.8 66.2 91.6 66.3 92.5C66.4 93.4 66.3 94.2 66.8 94.9C67.6 96.1 69.1 95.8 70.3 96.1C71.5 96.4 72.7 97.1 73.3 98.3C73.9 99.5 73.9 101 73.3 102.3C72.3 104.9 69.7 107.1 67.2 108.2C64.7 109.3 61.8001 109.8 59.1001 109.5C56.4001 109.2 53.5 108.3 52 105.8C50.3 103 49.9 99.2 49.8 95.9C49.7 92.6 49.9 89.2 52 86.6C51.8 86.9 51.2 86.9 51 87.2V87.3Z" fill="#231F20"/>
<path d="M50.6 87.1C48.8 89.5 48.4 92.4 48.4 95.3C48.4 98.2 48.6 101.5 49.6 104.4C50.5 106.9 52 108.8 54.5 109.7C57.1 110.7 60.2 110.7 62.9 110.2C65.8 109.6 68.7 108.2 71 106.3C73.1 104.6 75.2 102.2 75 99.3C74.8 96.8 72.9 95.3 70.5 94.9C69.6 94.8 68.5 94.9 67.9 93.9C67.5 93.2 67.6 92.3 67.5 91.6C67.4 90.5 67.1 89.5 65.9 89.1C64.2 88.5 62.1 89.8 60.8 88C59.9 86.8 59.6 85.3 58.2 84.4C55.7 82.9 52.2 85 50.4 86.9C50.1 87.2 50.5 87.8 50.8 87.5C51.1 87.2 51.6 87.1 51.9 86.8C52.3 86.5 52.7 86 53.2 85.7C54.6 85 56.3 85.1 57.4 86.2C58.7 87.5 58.8 89.8 61 90.2C62.2 90.4 64.4 89.6 65.2 90.9C65.9 91.9 65.3 93.4 65.8 94.5C66.6 96.3 68.5 95.9 70.1 96.4C73.7 97.5 73.4 101.4 71.6 103.9C70 106.1 67.7 107.5 65.1 108.3C62.5 109.1 59.5 109.3 56.8 108.7C54.1 108.1 52.1 106.4 51.1 103.7C50.1 101 49.8 97.9 49.8 95C49.8 92.1 50.1 89.1 51.9 86.7C52.1 86.4 51.7 86 51.4 86.2C51 86.5 50.6 86.6 50.3 86.9C49.9 87.2 50.4 87.7 50.8 87.4C51.1 87.2 51.5 87.1 51.8 86.9L51.3 86.4C49.6 88.7 49.1 91.5 49.1 94.3C49.1 97.3 49.2 100.4 50.2 103.2C51 105.8 52.5 107.9 55.1 108.9C57.7 109.9 60.5 110 63.1 109.6C65.9 109.1 68.6 108 70.7 106.1C72.6 104.4 74.2 101.9 73.8 99.2C73.4 96.5 71.1 95.7 68.7 95.4C67.8 95.3 66.9 95.1 66.5 94C66.3 93.3 66.4 92.4 66.3 91.7C66.2 90.8 65.7 90 64.8 89.6C63 89 60.9 90.3 59.7 88.4C59 87.3 58.6 86.1 57.5 85.2C56.5 84.4 55.2 84.3 54 84.6C53.4 84.8 52.9 85 52.4 85.4C52.2 85.6 52 85.7 51.8 85.9C51.4 86.3 51 86.4 50.6 86.7L51 87.3C53 85.1 57 83.1 59.1 86.2C59.7 87.1 59.9 88.2 60.8 88.9C61.5 89.5 62.4 89.6 63.3 89.6C64.9 89.6 66.6 89.3 66.8 91.4C66.8 92.3 66.8 93.3 67.3 94.1C67.7 94.8 68.5 95.2 69.3 95.3C70.7 95.5 72.1 95.6 73.2 96.6C75.6 99 73.7 102.5 71.7 104.4C69.7 106.3 67.1 107.9 64.4 108.7C59.6 110.2 52.9 110 50.6 104.8C49.3 101.9 49.1 98.7 49 95.6C48.9 92.5 49.3 89.6 51.1 87.2C51.4 86.8 50.7 86.4 50.5 86.8L50.6 87.1Z" fill="#231F20"/>
<path d="M50.7 13.8C49.1 16.7 49.4 20.2 49.9 23.4C50.4 26.6 51.1 29.9 52.9 32.6C53.7 33.9 54.8 34.9 56.3 35.4C57.8 35.9 59.3 36 60.8 35.9C63.4 35.7 65.7 34.8 67.9 33.5C70.3 32.1 72.3 30.3 73.7 27.9C75 25.5 75.4 21.7 72.5 20.2C71.9 19.9 71.2 19.7 70.5 19.7C69.8 19.7 69.1 19.8 68.4 19.7C67.4 19.4 67 18.4 66.9 17.4C66.7 16.6 66.7 15.6 66.1 14.9C65.4 14.2 64.5 14.4 63.6 14.5C62.5 14.7 61.5 15 60.5 14.2C59.9 13.7 59.6 12.9 59.2 12.3C58.8 11.7 58.2 11.1 57.6 10.7C56.4 10 54.9 10.5 53.8 11.2C52.6 11.9 51.6 12.6 50.9 13.8C51.1 13.5 51.8 13.5 51.9 13.2C52.6 12 53.4 11.3 54.6 11C56 10.8 57 11.3 57.8 12.4C58.6 13.3 59 14.7 60.2 15.1C61 15.4 61.8 15.1 62.6 15.1C63.4 14.9 64.2 14.7 64.9 15.3C65.6 15.8 65.6 16.7 65.8 17.5C66 18.3 66 19.1 66.6 19.7C67.5 20.6 68.9 20.2 70 20.4C72.8 20.9 74.1 23.6 73.5 26.2C72.9 28.8 70.9 31.2 68.8 32.8C64.9 35.8 57.4 36.9 54.2 32.4C52.3 29.8 51.5 26.2 51 23.1C50.5 20 50.1 16.2 51.8 13.3C51.6 13.6 50.9 13.6 50.8 13.9L50.7 13.8Z" fill="#231F20"/>
<path d="M50.4 13.6C49 16.3 49 19.3 49.4 22.2C49.8 25.1 50.3 28.1 51.6 30.8C52.9 33.5 54.6 35.5 57.6 36C60.6 36.5 63.6 36 66.3 34.7C70.5 32.7 75.9 28.4 75 23.1C74.7 20.9 73.1 19.5 70.9 19.2C70.1 19.2 69 19.4 68.3 19C67.5 18.6 67.3 17.6 67.2 16.8C67 15.7 66.8 14.5 65.6 14C63.9 13.3 62 15.1 60.5 13.5C59.4 12.3 59 10.7 57.4 10.1C54.9 9.19996 51.8 11.5 50.5 13.5C50.3 13.9 50.8 14.2 51.1 14C51.4 13.8 51.8 13.7 52.1 13.4C52.5 13.1 52.7 12.5 53 12.2C54.3 11 56.1 11.1 57.3 12.4C58.7 13.8 59.1 15.9 61.5 15.6C63.1 15.4 64.8 14.6 65.3 16.8C65.5 17.7 65.5 18.8 66.1 19.6C66.7 20.4 67.6 20.6 68.6 20.6C70 20.6 71.3 20.8 72.3 21.9C74.2 24 73.2 27.1 71.8 29.1C70.4 31.1 68.5 32.8 66.2 33.8C62.3 35.5 57 35.6 54.3 31.8C52.6 29.3 51.9 26.2 51.4 23.3C50.8 20 50.5 16.5 52.1 13.4C52.3 13 51.8 12.6 51.5 12.9C51.2 13.2 50.8 13.2 50.5 13.5C50.1 13.8 50.7 14.4 51 14C51.3 13.7 51.7 13.7 52 13.4L51.4 12.9C50 15.7 50 18.8 50.4 21.8C50.8 24.8 51.4 28 52.8 30.7C53.9 32.9 55.6 34.5 57.9 35.2C60.1 35.9 62.6 35.7 64.8 35C69.2 33.7 74.4 29.1 73.8 24.1C73.5 21.9 72 20.2 69.8 19.9C69 19.8 68.2 19.9 67.4 19.8C66.2 19.5 66.1 18.4 65.9 17.4C65.7 16.4 65.5 15.2 64.4 14.8C62.8 14 60.8 15.8 59.4 14.4C58.3 13.4 57.9 11.8 56.5 11.1C55.5 10.6 54.3 10.6 53.3 11.1C52.8 11.4 52.3 11.8 52 12.2C51.5 12.8 50.9 13.1 50.4 13.6L51 14.1C51.7 13 52.7 12.2 53.8 11.6C55.6 10.6 57.2 10.6 58.5 12.3C59.1 13.1 59.5 14.1 60.4 14.7C61.3 15.3 62.2 15.2 63.2 15C64.2 14.8 65.3 14.5 65.9 15.5C66.2 16 66.3 16.6 66.4 17.1C66.5 17.9 66.8 18.8 67.4 19.4C68 20 68.8 20 69.6 20C71.2 20 72.8 20.3 73.7 21.7C74.8 23.5 74.3 25.9 73.4 27.6C72.2 29.9 70.1 31.7 67.9 33C63.2 35.8 56 37.2 52.8 31.7C51.3 29.1 50.7 26.2 50.3 23.3C49.8 20.2 49.6 16.9 51.1 14C51.3 13.6 50.7 13.2 50.5 13.6H50.4Z" fill="#231F20"/>
<path d="M22.2 77.5C25.3 77.8 28.5 76.1 30.6 73.9C32.9 71.5 34.7 68.2 35.2 64.9C35.7 61 34 57.2 31.3 54.4C30 53.1 28.3 52.2 26.5 53.2C25.8 53.6 25.2 54 24.6 54.5C24.3 54.8 24 55.1 23.7 55.3C24.2 54.9 23.6 55.3 23.3 55.5C23.2 55.5 23 55.5 22.9 55.6C22.3 55.8 21.6 55.8 21 55.8C19.8 55.8 18.8 56 17.7 56.6C16.5 57.3 15.5 58.1 15 59.5C14.8 60.2 14.8 60.8 14.3 61.4L13.6 62.1L14 61.9C13.9 61.9 13.8 61.9 13.6 62C13.3 62 13.1 62 12.8 62.1C11.6 62.1 10.6 62.7 9.60001 63.3C6.90001 65 7.40002 68.3 8.50002 70.8C9.10002 72.3 10.1 73.7 11.5 74.5C12.4 75 13.3 75.2 14.3 75.5C16.9 76.2 19.5 77 22.2 77.3C22.5 77.3 22.9 76.7 23.2 76.7C20.9 76.4 18.7 75.8 16.5 75.2C14.6 74.7 12.7 74.3 11.3 73C10.4 72.1 9.70002 70.9 9.30002 69.7C8.90002 68.5 8.50001 67 8.60001 65.7C8.60001 65.1 8.90002 64.4 9.30002 63.9C9.50002 63.6 9.70002 63.4 9.90002 63.2C10.2 62.9 10.4 63 9.90002 63.2C10.1 63.2 10.4 63 10.6 62.9C11.2 62.7 11.8 62.8 12.4 62.7C13 62.6 13.4 62.3 13.9 62C15 61.3 15.6 60.6 15.9 59.3C16 58.6 16.3 58 16.7 57.5C16.9 57.2 17.2 57 17.4 56.8C17.7 56.5 17.1 56.8 17.5 56.8C17.7 56.8 17.9 56.7 18.1 56.6C19.2 56.4 20.2 56.6 21.3 56.4C22.4 56.2 23.5 55.6 24.4 54.9C24.9 54.6 25.3 54.2 25.7 53.8C25.8 53.7 25.9 53.6 26.1 53.5C26.8 52.9 25.1 53.9 25.9 53.5C26.6 53.2 27.4 53.2 28.1 53.5C29.2 53.9 30 54.7 30.7 55.5C31.9 57 33 58.7 33.6 60.5C34.8 64.2 33.8 68.1 31.7 71.3C30.8 72.7 29.7 74.1 28.4 75.2C28.3 75.3 28.1 75.4 27.9 75.6C27.7 75.7 27.5 75.9 27.3 76C27.4334 75.8667 27.4334 75.8667 27.3 76C26.8 76.2 26.4 76.4 25.9 76.5C25 76.8 24 76.8 23 76.7C22.7 76.7 22.3 77.3 22 77.3L22.2 77.5Z" fill="#231F20"/>
<path d="M22.2 77.9C29.4 78.4 35.5 70.4 35.7 63.8C35.7 60.3 34.1 56.7 31.6 54.3C30.6 53.3 29.2 52.4 27.7 52.6C26 52.8 24.8 54.2 23.5 55.2C23.1 55.5 23.7 56 24 55.7C24.1 55.7 24.2 55.6 24.2 55.5C24.4 55.2 24 54.8 23.7 55C22.5 55.7 21.3 55.5 20 55.6C18.9 55.7 17.9 56.1 16.9 56.8C16.1 57.3 15.4 58 15 58.8C14.5 59.8 14.5 61.1 13.5 61.9C13.1 62.2 13.5 62.8 13.9 62.6L14.3 62.4C14.7 62.2 14.4 61.6 14 61.7C13.2 62 12.4 61.9 11.7 62.1C11.1 62.3 10.6 62.5 10 62.8C9.00003 63.4 8.20003 64.1 7.70003 65.2C6.90003 67.2 7.50003 69.6 8.40003 71.5C8.90003 72.7 9.70003 73.7 10.7 74.5C11.9 75.4 13.3 75.7 14.7 76.1C16.4 76.6 18.1 77.1 19.8 77.4C20.5 77.6 21.5 77.9 22.2 77.8C22.7 77.8 22.9 77.3 23.3 77.2C23.6 77.2 23.7 76.5 23.3 76.5C21.4 76.2 19.5 75.8 17.7 75.3C16.1 74.9 14.2 74.6 12.7 73.7C11 72.7 10.1 71.1 9.50003 69.3C9.20003 68.4 9.00003 67.5 8.90003 66.6C8.80003 65.7 9.20003 63.9 10.2 63.5L9.90003 62.8H9.60003L9.80004 63.6C10.8 63.2 11.8 63.3 12.8 62.9C13.6 62.6 14.5 62.1 15.1 61.4C15.6 60.9 15.9 60.3 16 59.6C16.3 58.4 16.9 57.8 17.6 56.9C17.8 56.7 17.6 56.4 17.4 56.4C17.1 56.3 16.8 56.6 16.8 56.8C16.8 57 17.1 57.2 17.3 57.2C18.3 57.1 19.2 56.9 20.2 56.9C21.1 56.9 21.9 56.7 22.7 56.3C24 55.7 25.5 54.7 26.3 53.6C26.4 53.4 26.3 53.2 26.2 53.1C25.8 52.9 25.1 53.3 25.1 53.8C25.1 54.1 25.3 54.2 25.6 54.2C27.1 54 28 54 29.2 55C30.1 55.7 30.8 56.7 31.4 57.6C32.7 59.5 33.5 61.7 33.5 64.1C33.5 68.6 30.7 73.5 27 76C26.6 76.3 27 76.9 27.4 76.7H27.6C28 76.3 27.6 75.7 27.2 75.9C26.1 76.4 25 76.7 23.7 76.7C22.4 76.7 22.9 76.7 22.6 76.7C22.3 76.7 22.1 77.2 21.8 77.2C21.3 77.3 21.5 78 22 77.9C22.4 77.9 22.6 77.6 23 77.5C23.6 77.3 24.4 77.4 25 77.3C25.9 77.2 26.8 76.8 27.6 76.5L27.2 75.8H27C27 75.9 27.4 76.6 27.4 76.6C31.6 73.8 34.8 68 34.2 62.8C33.9 60.3 32.7 57.9 31.1 55.9C30.3 54.9 29.5 54 28.3 53.5C27.1 53 26.4 53.2 25.3 53.5L25.8 53.9C25.8 54.2 26 54 25.8 53.9V53.4C24.8 54.6 23 55.7 21.6 56.1C20.7 56.4 19.7 56.3 18.8 56.3C18.2 56.3 17.7 56.5 17 56.6L17.5 57L17.1 57.3L16.9 56.8C16.4 57.5 15.9 57.9 15.5 58.7C15.2 59.4 15.1 60.2 14.7 60.8C14.2 61.5 13.4 62.1 12.6 62.4C11.6 62.8 10.4 62.8 9.40003 63.2C9.00003 63.4 9.10003 64 9.60003 63.9C9.80003 63.9 9.90003 63.9 10.1 63.7C10.5 63.5 10.2 62.9 9.80004 63C8.40004 63.6 7.80003 65.7 7.90003 67.1C8.00003 69.1 8.70003 71.2 9.90003 72.8C11.1 74.5 12.9 75.2 14.9 75.7C17.5 76.4 20.1 77.2 22.7 77.5V76.8C22.3 76.8 22.1 77.1 21.8 77.2C21.2 77.4 20.4 77.2 19.8 77C18.5 76.7 17.2 76.4 15.9 76C13.2 75.3 10.6 74.7 9.10003 72.1C8.10003 70.4 7.40003 68 7.90003 66.1C8.20003 64.9 9.10003 64.1 10.2 63.5C11.4 62.8 12.6 62.9 13.8 62.5L13.5 61.8L13.1 62L13.5 62.7C14 62.3 14.4 61.8 14.6 61.2C14.9 60.5 14.9 59.8 15.3 59.1C15.7 58.4 16.3 57.9 16.9 57.5C18.2 56.6 19.5 56.4 21 56.4C22 56.4 22.9 56.2 23.7 55.7L23.2 55.2H23.1L23.6 55.8C24.9 54.7 26.4 53.1 28.3 53.4C29.9 53.7 31.1 55.1 32 56.3C33.9 58.9 35 62.1 34.5 65.3C33.5 71.1 28.3 77.7 21.9 77.2C21.4 77.2 21.4 77.9 21.9 78L22.2 77.9Z" fill="#231F20"/>
<path d="M33.1001 3.7C34.5001 4.4 35.9 3.7 37 2.7C37.2 2.5 37.4001 2.3 37.6001 2.2C37.7001 2.2 37.8 2.00001 38 1.90001C38 1.90001 38.2001 1.8 38.3001 1.7C38.7001 1.4 37.5 2.10001 38 1.90001C38.6 1.70001 39.2 1.40001 39.9 1.40001C43.4 1.30001 45.3 5.59999 45.7 8.49999C46.2 11.8 45.5001 15.3 44.3001 18.4C43.2001 21.1 41.7 24 39.2 25.8C39 25.9 38.4001 26.3 39.1001 25.9C39.8001 25.5 39.1 25.9 39 25.9C38.8 25.9 38.5 26.1 38.2 26.1C37.7 26.1 37.3001 26.1 36.8001 26.1C35.7001 26.1 34.5 25.8 33.4 25.5C30.5 24.7 27.6 23.4 25 21.9C22.4 20.4 19.9001 18.6 18.1001 16.2C17.4001 15.2 16.8001 14.1 16.6001 12.9C16.4001 11.5 16.7 10.3 17.4 9.09996C17.8 8.29996 18.3 7.59999 19 6.99999C19.2 6.89999 19.9 6.39997 19.2 6.79997C18.5 7.19997 19.2001 6.79997 19.3001 6.79997C19.6001 6.69997 20.0001 6.59999 20.3001 6.49999C21.4001 6.29999 22.6 6.50001 23.7 6.90001C24.5 7.20001 25.1001 7.1 25.8001 6.7C26.4001 6.4 27.1 5.99999 27.4 5.49999C27.7 4.99999 28 4.29997 28.5 3.79997L29 3.29997C29 3.29997 28.3001 3.59997 28.8001 3.29997C28.9001 3.29997 29 3.29996 29.2 3.09996C29.7 2.89996 30.1001 2.89997 30.6001 2.79997C31.4001 2.79997 32.3 3.00001 33 3.40001C33.2 3.40001 33.9 2.69997 34 2.79997C32.5 1.89997 30.7 1.99997 29.2 2.79997C28.6 3.19997 27.9 3.49999 27.4 3.99999C26.9 4.49999 26.6 5.29997 26.2 5.79997C26.2 5.79997 26 5.89999 26 5.99999C25.8 6.29999 26.2 5.80001 26.2 5.90001C26.2 5.90001 25.6 5.99999 25.5 5.99999C25.1 5.99999 24.7 5.8 24.4 5.7C23.8 5.5 23.2001 5.39997 22.6001 5.29997C21.3001 5.19997 20.1 5.6 19 6.2C16.5 7.6 14.8001 10.6 15.6001 13.5C16.3001 16.2 18.7 18.3 20.9 20C23.6 22 26.6 23.5 29.7 24.7C31 25.2 32.4 25.6 33.7 25.9C34.7 26.1 35.9 26.3 36.9 26.1C37.9 25.9 39 25.3 39.9 24.6C41 23.8 42.0001 22.8 42.8001 21.7C44.8001 18.8 46.1001 15.4 46.6001 11.9C47.1001 8.40001 46.6 4.70001 44.3001 1.90001C43.2001 0.600011 41.7001 -0.200001 40.1001 0.199999C39.0001 0.399999 37.9 1.1 37 1.7C36.4 2.1 36 2.59999 35.4 2.99999H35.5H35.3001L36.2 2.49999C35.5 2.79999 34.7 2.79999 34 2.49999C33.8 2.49999 33.1 3.19996 33 3.09996L33.1001 3.7Z" fill="#231F20"/>
<path d="M32.9 3.99998C35.2 4.99998 36.9 3.19997 38.5 1.79997C38.6 1.79997 38.6 1.49997 38.5 1.29997C38.4 1.09997 38.2 1.1 38 1.2C37.8 1.2 37.7 1.39998 37.5 1.49998C37.3 1.59998 37.3 1.79998 37.4 1.99998C37.4 2.19998 37.7 2.2 37.8 2.2C39 1.8 40.2 1.39996 41.4 2.09996C42.3 2.59996 43.1 3.39997 43.6 4.29997C44.8 6.29997 45.3 8.69998 45.2 11C45.1 16.1 42.8 22.7 38.4 25.6C38.1 25.8 38.3 26.4 38.7 26.3C38.9 26.3 39.2 26.1 39.4 25.9C39.7 25.6 39.4 25.1 39 25.3C36.5 26.5 33.3 25.3 30.9 24.4C28.2 23.4 25.5 22 23.1 20.4C20.9 18.9 18.6 17.1 17.4 14.6C16 11.8 17.1 8.70001 19.5 6.90001C19.9 6.60001 19.5 6.1 19.1 6.2C18.9 6.2 18.6 6.39996 18.4 6.59996C18 6.89996 18.5 7.4 18.8 7.2C20 6.6 21.2 6.60001 22.5 6.90001C23.5 7.10001 24.3 7.49996 25.3 7.09996C26 6.79996 26.9 6.39997 27.4 5.79997C28 5.09997 28.4 4.09998 29.2 3.49998C29.5 3.19998 29.1 2.70001 28.8 2.90001C28.8 2.90001 28.6 2.89998 28.5 2.99998C28.1 3.19998 28.3 3.9 28.7 3.7C29.2 3.5 29.7 3.29997 30.3 3.29997C30.8 3.29997 31.3 3.29997 31.8 3.29997C32.2 3.29997 32.6 3.69997 32.9 3.79997C33.5 3.79997 33.6 3.3 34.1 3.2C34.4 3.2 34.6 2.69998 34.3 2.49998C32.6 1.59998 30.8 1.69998 29.1 2.49998C27.5 3.29998 26.6 4.49998 25.7 5.99998C25.5 6.39998 26 6.69998 26.3 6.49998C26.3 6.49998 26.3 6.50001 26.4 6.40001C26.8 6.30001 26.8 5.6 26.3 5.7C25.1 5.9 23.9 5.3 22.7 5.2C21.2 5.1 19.8 5.60001 18.6 6.40001C16.7 7.60001 15.2 9.69996 15.1 12.1C14.8 17.6 21.4 21.6 25.5 23.7C28.3 25.1 31.4 26.4 34.5 26.9C37.4 27.4 40 26 41.9 23.9C45.7 19.8 47.8 13.2 47 7.7C46.6 5 45.3 1.9 42.8 0.699996C39.9 -0.800004 37.3 1.6 35.2 3.2C34.9 3.5 35.3 3.99997 35.6 3.79997H35.7C36.1 3.49997 35.7 2.79996 35.3 3.09996H35.1C34.7 3.49996 35.1 4.10001 35.5 3.90001L36.4 3.40001C36.8 3.20001 36.5 2.6 36.1 2.7C35.3 3 34.5 2.4 33.8 2.7C33.6 2.7 33.2 3.29997 33 3.29997C32.5 3.29997 32.5 4.09996 33 4.09996C33.5 4.09996 33.7 3.59996 34.1 3.59996C34.3 3.59996 34.7 3.79997 34.9 3.79997C35.4 3.79997 35.8 3.79996 36.3 3.59996L36 2.90001L35.1 3.40001L35.5 4.09996H35.7C35.7 3.99996 35.3 3.29997 35.3 3.29997H35.2L35.6 3.99998C37.7 2.39998 40.3 -1.57356e-05 43 1.99998C45.1 3.49998 46.1 6.29997 46.3 8.79997C46.7 13.6 45.1 18.8 42.2 22.6C40.4 25 37.8 26.9 34.7 26.4C32.1 26 29.5 25 27 23.9C24.8 22.9 22.7 21.6 20.8 20.2C18.9 18.8 17 17 16.2 14.7C15.2 12 16.6 9.09998 18.8 7.49998C20.2 6.49998 21.8 6.09998 23.5 6.49998C24.5 6.69998 25.3 7.00001 26.3 6.90001V6.2C26 6.2 25.9 6.39998 25.7 6.49998L26.3 6.99998C27 5.89998 27.7 4.79996 28.9 4.09996C30.5 3.09996 32.2 2.69996 34 3.59996L34.2 2.90001C33.9 2.90001 33.8 3.1 33.6 3.2C33.2 3.4 33.4 3.39997 33 3.29997C32.7 3.29997 32.4 3.09998 32.1 2.99998C30.9 2.69998 29.8 2.89997 28.7 3.29997L28.9 3.99998C29 3.99998 29.2 3.89997 29.3 3.79997L28.9 3.2C28.3 3.7 27.9 4.30001 27.5 4.90001C26.7 6.20001 25.3 6.89996 23.8 6.59996C22 6.19996 20.4 5.9 18.7 6.7L19.1 7.29997C19.2 7.19997 19.5 7.09998 19.6 6.99998L19.2 6.29997C17.2 7.79997 15.7 10.4 16.2 13C16.7 16 19.2 18.4 21.5 20.1C24.3 22.2 27.4 23.8 30.6 25C33.3 26 36.7 27.3 39.5 26L39.1 25.4C39 25.4 38.9 25.5 38.7 25.6L39 26.3C41.4 24.7 43 22.2 44.2 19.6C45.6 16.5 46.4 13.1 46.2 9.7C46.1 7.3 45.3 4.89998 43.8 2.99998C43.2 2.19998 42.4 1.5 41.4 1.2C40.1 0.799996 39 1.19998 37.8 1.49998L38.2 1.7C38.2 1.9 38.2 2 38.1 2.2C38.2 2.1 38.4 2.00001 38.6 1.90001H38.1C38.1 1.60001 38.1 1.49997 38.1 1.29997C36.8 2.29997 35.2 4.09997 33.3 3.29997C32.9 3.09997 32.5 3.79998 32.9 3.99998Z" fill="#231F20"/>
<path d="M56.4 35.4C55.6 37.1 54.6 38.8 53.7 40.5C51.8 43.7 49.7 46.9 47.2 49.6C46.5 50.3 45.8 51 45.1 51.6C44.9 51.8 44.7 51.9 44.5 52.1C44.4 52.1 44.3 52.3 44.2 52.3H44.1C43.9 52.5 43.9 52.5 44.1 52.3C43.9 52.3 43.8 52.5 43.6 52.5C43.4 52.5 43.2 52.7 43 52.7C42.6 52.8 42.3 53.2 42 53.3C45.4 52.2 48.1 49.4 50.2 46.6C52.6 43.6 54.6 40.2 56.4 36.8C56.8 36.1 57.2 35.3 57.5 34.6C57.4 34.9 56.6 34.9 56.5 35.2L56.4 35.4Z" fill="#231F20"/>
<path d="M56.1 35.2C54.5 38.5 52.7 41.7 50.6 44.6C48.7 47.4 46.5 50.3 43.6 52.1C43.2 52.4 43.6 53 44 52.8C44 52.8 44.3 52.6 44.2 52.7L43.9 52C43.5 52.2 43.1 52.3 42.7 52.5C42.3 52.7 42 52.9 41.7 53.1C41.4 53.3 41.6 53.9 42 53.8C45.6 52.5 48.4 49.7 50.7 46.7C53.5 43.1 55.9 39.1 57.8 35C58 34.6 57.5 34.2 57.2 34.5C56.9 34.8 56.4 34.8 56.2 35.1C55.9 35.5 56.4 36 56.7 35.6C57 35.3 57.5 35.3 57.7 35L57.1 34.5C55.3 38.3 53.1 42 50.6 45.4C48.3 48.5 45.5 51.6 41.8 53L42.1 53.7C42.5 53.5 42.9 53.2 43.4 53C43.7 52.9 44 52.7 44.4 52.6C44.8 52.4 44.5 51.8 44.1 51.9C44 51.9 43.9 52 43.8 52.1L44.2 52.8C47 51 49.2 48.3 51.1 45.6C53.3 42.5 55.3 39.1 57 35.6C57.2 35.2 56.6 34.8 56.4 35.2H56.1Z" fill="#231F20"/>
<path d="M52.6 108.3C48.7 111.7 44.6 115.1 40.2 118C39.9 118.2 39.6 118.4 39.2 118.6C39.2 118.6 39 118.6 39 118.8C39.2 118.8 39.3 118.6 39 118.8C38.9 118.8 38.7 119 38.6 119C38.2 119.2 37.8 119.4 37.4 119.4C37 119.4 36.7 120 36.4 120C37.4 120 38.4 119.2 39.2 118.8C40.6 118 41.9 117.1 43.1 116.2C46 114.1 48.9 111.8 51.6 109.5C52.2 109 52.9 108.4 53.5 107.9C53.2 108.2 52.8 108.2 52.5 108.5L52.6 108.3Z" fill="#231F20"/>
<path d="M52.3 108C48 111.7 43.6 115.4 38.8 118.4C38.4 118.6 38.8 119.3 39.2 119.1C39.2 119.1 39.3 119.1 39.4 119L39 118.3C38.4 118.6 37.9 118.8 37.3 118.9C36.9 119 36.7 119.4 36.3 119.5C35.9 119.6 36 120.3 36.4 120.2C37.9 120.1 39.2 119.1 40.4 118.3C42 117.3 43.6 116.1 45.1 115C48.1 112.7 51.1 110.3 53.9 107.8C54.2 107.5 53.8 107 53.5 107.2C53.2 107.4 52.8 107.6 52.5 107.8C52.1 108.1 52.5 108.7 52.9 108.5C53.2 108.3 53.6 108.1 53.9 107.9L53.5 107.3C50.8 109.6 48 112 45.1 114.1C43.7 115.1 42.3 116.2 40.9 117.1C40.2 117.5 39.5 117.9 38.8 118.4C38.1 118.8 37.3 119.3 36.5 119.4V120.1C37.1 120 37.5 119.6 38 119.5C38.6 119.3 39.1 119.1 39.6 118.8C40 118.6 39.6 117.9 39.2 118.1C39.2 118.1 39.1 118.1 39 118.2L39.4 118.9C44.3 115.9 48.7 112.1 53.1 108.4C53.5 108.1 52.9 107.6 52.6 107.9L52.3 108Z" fill="#231F20"/>
<path d="M26.4 76.8C29.9 80.8 33.4 84.8 37.2 88.4C37.9 89.1 38.8 90 39.7 90.4C39.9 90.4 40.5 89.7 40.7 89.8C39.9 89.5 39.2 88.7 38.6 88.1C37.5 87 36.4 85.9 35.3 84.8C33.1 82.5 31 80.1 28.8 77.7C28.3 77.2 27.9 76.7 27.4 76.1C27.4 76.1 26.4 76.8 26.4 76.7V76.8Z" fill="#231F20"/>
<path d="M26.1 77C28.7 80 31.3 82.9 34 85.7C35.3 87 36.6 88.3 37.9 89.6C38.3 90 39 90.8 39.7 90.8C39.9 90.8 40 90.8 40.1 90.7C40.2 90.6 40.6 90.2 40.7 90.2C41.1 90.2 41.2 89.7 40.9 89.5C40.1 89.1 39.5 88.5 38.8 87.9C38.1 87.2 37.4 86.5 36.7 85.8C35.3 84.4 33.9 82.9 32.6 81.4C31.3 79.9 29.9 78.4 28.6 76.9C28.3 76.6 27.8 75.7 27.3 75.8C27.1 75.8 27 76 26.8 76.1C26.7 76.1 26.6 76.2 26.5 76.3C26 76.3 26 77.1 26.5 77.1C26.8 77.1 27.2 76.8 27.4 76.6C27.6 76.8 27.8 77 27.9 77.2C28.2 77.5 28.5 77.9 28.8 78.2C30.1 79.7 31.4 81.1 32.8 82.6C34.2 84.1 35.4 85.4 36.7 86.7C37.3 87.4 38 88 38.7 88.6C39.3 89.1 39.9 89.7 40.6 90.1L40.8 89.4C40.4 89.4 40.2 89.9 39.8 90C39.5 90 39 89.5 38.9 89.4C38.6 89.2 38.3 88.9 38 88.6C36.7 87.3 35.4 86.1 34.1 84.7C31.5 82 29.1 79.3 26.7 76.5C26.4 76.1 25.8 76.7 26.2 77H26.1Z" fill="#231F20"/>
<path d="M23.1 152.1C26.5 154.9 29.8 157.8 33.2 160.6L34.6 161.8C34.7 161.8 35.5 161.1 35.6 161.2C32.2 158.4 28.9 155.5 25.5 152.7L24.1 151.5C24 151.5 23.2 152.2 23.1 152.1Z" fill="#231F20"/>
<path d="M22.9 152.4C25.4 154.5 27.8 156.6 30.3 158.7L33.9 161.7C34.2 162 34.5 162.4 35 162.2C35.1 162.2 35.3 162 35.4 162C35.4 162 35.6 161.9 35.6 161.8C35.6 161.8 35.9 161.8 35.6 161.7C35.9 161.7 36.3 161.3 36 161.1C33.5 159 31.1 156.9 28.6 154.8C27.4 153.8 26.2 152.8 25 151.8C24.7 151.5 24.4 151.1 23.9 151.3C23.8 151.3 23.6 151.5 23.5 151.5C23.5 151.5 23.3 151.6 23.3 151.7C23.3 151.7 23 151.7 23.3 151.8C22.8 151.8 22.6 152.5 23.1 152.5C23.4 152.5 23.6 152.4 23.9 152.2C24 152.2 24.2 151.9 24.3 151.9C24 151.9 24.3 152.1 24.4 152.2L24.8 152.5L28.4 155.5C30.8 157.5 33.1 159.5 35.5 161.5L35.9 160.9C35.6 160.9 35.4 161 35.1 161.2C35 161.2 34.8 161.5 34.7 161.5C35 161.5 34.7 161.3 34.6 161.2L34.2 160.9L30.6 157.9C28.2 155.9 25.9 153.9 23.5 151.9C23.1 151.6 22.6 152.1 23 152.4H22.9Z" fill="#231F20"/>
<path d="M45.6 184.9C42.5 188.3 39.3 191.6 36.2 195C35.8 195.5 35.3 196 34.9 196.4C35.2 196.1 35.7 196.1 35.9 195.8C39 192.4 42.2 189.1 45.3 185.7C45.7 185.2 46.2 184.7 46.6 184.3C46.3 184.6 45.8 184.6 45.6 184.9Z" fill="#231F20"/>
<path d="M45.4 184.6C41.8 188.4 38.3 192.3 34.7 196.1C34.4 196.5 34.9 196.9 35.2 196.6C35.5 196.3 36 196.2 36.4 195.8C36.9 195.3 37.4 194.7 38 194.1C39 193 40 191.9 41.1 190.8C43.1 188.7 45.1 186.6 47 184.4C47.3 184 46.8 183.6 46.5 183.9C46.2 184.2 45.8 184.2 45.5 184.5C45.1 184.8 45.7 185.3 46 185C46.3 184.7 46.7 184.7 47 184.4L46.5 183.9C44.5 186 42.5 188.1 40.6 190.3C39.6 191.4 38.6 192.4 37.6 193.5C37.1 194.1 36.6 194.6 36 195.2C35.6 195.6 35.1 195.7 34.7 196.1L35.2 196.6C38.8 192.8 42.3 188.9 45.9 185.1C46.2 184.8 45.7 184.2 45.4 184.6Z" fill="#231F20"/>
</svg>
