<svg width="103" height="265" viewBox="0 0 103 265" fill="none" xmlns="http://www.w3.org/2000/svg">
<path d="M25.7 16C28.3 21.8 30.1 28 31.8 34C36.5 50.4 39.4 67.3 40.9 84.3C42 96 42.4 107.8 42.2 119.5C42 132.8 41.2 146.1 40.7 159.4C39.7 182.8 38.8 206.1 37.8 229.5C37.5 237.2 37.1 244.9 36.8 252.5C36.6 256.2 36.3 259.9 36.3 263.6C36.3 263.8 36.3 263.9 36.3 264.1C36.3 263.9 37.3 263.7 37.3 263.5C37.7 254.2 38.1 244.8 38.5 235.5C39.5 213.1 40.4 190.7 41.3 168.4C41.8 155.1 42.4 141.8 42.9 128.5C43.4 116.3 43.3 104 42.5 91.7C41.3 73.6 38.6 55.5 34 37.9C32.6 32.7 31.1 27.6 29.4 22.6C28.9 21.1 28.3 19.5 27.7 18C27.4 17.3 27.2 16.2 26.8 15.7C26.8 15.7 26.8 15.5 26.7 15.4C26.7 15.4 25.7 15.9 25.7 16Z" fill="#231F20"/>
<path d="M25.4 16.2C28.6 23.4 30.8 31.2 32.8 38.8C34.8 46.4 36.5 54.5 37.8 62.4C40.5 78.5 41.8 94.8 42 111.1C42.1 127.6 41.1 144 40.4 160.5C39.7 176.9 39 193.3 38.4 209.7C37.6 227.9 36.9 246 36 264.2C36 264.6 36.5 264.7 36.7 264.4C36.9 264.2 37.4 264.2 37.6 264C38 263.5 37.8 262.7 37.8 262.2C37.8 260.2 38 258.1 38.1 256C38.3 251.8 38.5 247.6 38.6 243.5C39 235.1 39.3 226.7 39.7 218.2C40.4 201.3 41.1 184.4 41.8 167.5C42.5 150.6 43.5 133.6 43.7 116.6C43.9 99.6 42.8 83.6 40.4 67.2C38 50.8 34.4 34.7 28.7 19.3C28.2 17.9 27.7 16.6 27.1 15.3C27 15.1 26.7 15.1 26.5 15.3C26.2 15.5 25.8 15.6 25.5 15.9C25.1 16.2 25.7 16.8 26 16.4C26.3 16.1 26.7 16 27 15.8H26.4C29.5 22.8 31.7 30.4 33.7 37.9C35.7 45.4 37.4 53.6 38.8 61.5C41.6 77.8 42.9 94.4 43 110.9C43.1 127.6 42.1 144.3 41.4 161C40.7 177.7 40 194.3 39.3 211C38.6 227.7 37.9 244.3 37.2 260.9C37.2 261.6 37.4 263.1 36.8 263.6C36.6 263.8 36.3 263.8 36.1 264.1L36.8 264.3C38.3 231.4 39.6 198.5 41 165.6C41.7 149 42.7 132.4 42.8 115.7C42.8 99.4 41.8 83.2 39.4 67.1C38.1 58.2 36.3 49.2999 34.1 40.6C31.9 31.9 29.6 23.8 26.2 16C26 15.6 25.4 16 25.6 16.4L25.4 16.2Z" fill="#231F20"/>
<path d="M85.8 58.9C84.5 60.2 83.3 61.6 82 62.9C78.9 66.3 75.8 69.8 72.8 73.4C68.8 78.2 64.9 83 61.1 88C57.2 93.2 53.5 98.6 50.1 104.2C47.2 109.1 44.5 114.3 42.7 119.7C42.5 120.3 42.3 120.9 42.2 121.4C42.2 121.1 43.2 121.1 43.2 120.8C44.6 115.4 47.2 110.3 49.9 105.5C53.1 99.9 56.8 94.5 60.6 89.3C64.4 84.2 68.3 79.2 72.4 74.4C75.5 70.6 78.8 66.9 82.1 63.3C83.1 62.2 84.2 61 85.2 59.9C85.5 59.6 85.8 59.2 86.2 58.9C86.3 58.7 86.6 58.6 86.7 58.4C86.4 58.7 85.9 58.7 85.7 59L85.8 58.9Z" fill="#231F20"/>
<path d="M85.5 58.7C78.4 66.1 71.6 74 65.3 82.1C59.2 89.9 53.3 97.9 48.4 106.6C45.7 111.3 43.4 116.2 42 121.4C42 121.7 42.4 122.1 42.6 121.8C42.9 121.4 43.5 121.5 43.7 121C43.9 120.5 44 119.8 44.2 119.3C44.4 118.6 44.7 117.9 44.9 117.2C45.8 114.8 46.8 112.5 48 110.2C50.3 105.6 53 101.2 55.9 97C61.9 88.1 68.5 79.7 75.5 71.6C79.3 67.2 83.1 62.8 87.1 58.7C87.4 58.4 87 57.9 86.6 58.1C86.3 58.3 85.9 58.5 85.6 58.7C85.2 59 85.6 59.6001 86 59.4001C86.3 59.2001 86.7 59 87 58.8L86.5 58.2C79.2 65.8 72.4 73.8 65.9 82C59.5 90.1 53.5 98.4001 48.6 107.4C47.3 109.8 46.1 112.3 45 114.8C44.5 116 44 117.3 43.6 118.6C43.4 119.3 43.3 120.4 42.7 120.8C42.5 121 42.2 121 42 121.2L42.6 121.6C45.1 112.2 50.5 103.7 56 95.8C61.7 87.5 68 79.6001 74.6 71.9001C78.3 67.6001 82.1 63.3 86 59.2C86.3 58.9 85.8 58.3 85.5 58.7Z" fill="#231F20"/>
<path d="M6.89999 123.7C8.29999 125.7 10.6 127.3 12.8 128.4C13.9 129 15.2 129.5 16.4 129.9C17.6 130.3 18.9 130.5 20.1 130.9C21.5 131.4 22.8 132.2 24 133.1C27 135.5 29.5 138.7 31.7 141.8C33.9 144.9 36 148.2 37.9 151.6C38.9 153.4 40 155.2 40.9 157.1L41.9 156.5C39.4 151.7 36.6 147 33.5 142.5C31.3 139.3 28.8 136 25.9 133.4C24.7 132.4 23.4 131.4 22 130.7C21.2 130.3 20.3 130.2 19.5 129.9C18.1 129.6 16.8 129.1 15.5 128.6C12.7 127.4 9.59999 125.6 7.89999 123.1L6.89999 123.7Z" fill="#231F20"/>
<path d="M6.60001 123.9C8.60001 126.7 11.9 128.6 15.1 129.9C17.2 130.7 19.5 130.9 21.4 132C23.2 133 24.8 134.4 26.2 135.9C29.2 138.9 31.6 142.5 33.9 146C36.2 149.5 38.5 153.5 40.5 157.4C40.5 157.6 40.9 157.6 41 157.5C41.4 157.3 41.8 157.1 42.1 156.8C42.2 156.7 42.2 156.5 42.1 156.3C40.1 152.4 37.9 148.6 35.6 145C33.3 141.5 31 138.1 28.1 135.1C26.8 133.7 25.4 132.4 23.8 131.3C22.1 130.2 20.3 129.8 18.4 129.2C14.6 128.1 10.5 126.1 8.20002 122.8C8.20002 122.7 7.89999 122.6 7.79999 122.6C7.39999 122.7 7.10002 123.1 6.70002 123.2C6.30002 123.4 6.70001 124.1 7.10001 123.9C7.40001 123.7 7.70001 123.5 8.00001 123.3L7.60001 123.1C9.50001 125.8 12.4 127.6 15.4 128.8C17.4 129.6 19.5 130 21.5 130.7C23.6 131.5 25.5 133.2 27.1 134.9C30.1 137.9 32.6 141.5 34.9 145.1C37.2 148.7 39.6 152.6 41.6 156.6V156.1C41.4 156.3 41 156.4 40.7 156.6H41.2C37.4 149.4 33 141.8 27.3 135.7C26 134.3 24.7 133 23.1 131.9C21.5 130.7 19.7 130.2 17.8 129.7C13.9 128.7 9.60002 126.6 7.20002 123.2C6.90002 122.8 6.30001 123.2 6.60001 123.6V123.9Z" fill="#231F20"/>
<path d="M43.3 119.2C41.9 117.5 40.4 115.9 38.7 114.4C36.3 112.3 32.9 109.8 29.5 110.2C28.8 110.2 28.2 110.5 27.5 110.9C27.2 111.1 27 111.1 26.9 111.4C26.7 112.2 26.7 113.2 26.8 114C26.9 115.3 27.3 116.6 28.2 117.6C29.4 119.1 31.3 119.6 33.2 119.8C35.6 120 38 120.2 40.3 120C40.9 120 41.6 120 42.2 119.7C42.6 119.6 42.9 119.2 43.2 119.1C42.7 119.3 42 119.3 41.4 119.4C39.2 119.6 37 119.4 34.8 119.2C32.6 119 30.5 118.7 29.1 116.9C28.2 115.8 27.8 114.4 27.8 113C27.8 112.2 27.8 111.3 28 110.5L27 111.1C29.7 110 32.6 111.3 34.9 112.8C37.2 114.3 39.2 116.2 41 118.3C41.4 118.8 41.8 119.2 42.2 119.7L43.2 119.1L43.3 119.2Z" fill="#231F20"/>
<path d="M43.6 118.9C41.6 116.4 39.4 114.2 36.8 112.4C34.6 110.8 31.8 109.4 29 110C27.9 110.3 26.8 110.7 26.6 111.9C26.4 113.2 26.5 114.6 26.9 115.9C27.8 118.6 30.1 119.9 32.8 120.2C34.8 120.5 36.8 120.6 38.8 120.6C39.7 120.6 40.6 120.6 41.5 120.4C42.3 120.3 42.8 119.9 43.5 119.6C43.9 119.4 43.6 118.8 43.2 118.9C41.6 119.4 39.6 119.3 37.9 119.2C36.2 119.1 34.4 119 32.7 118.7C31.1 118.3 29.7 117.5 28.9 116.1C28.1 114.5 28 112.6 28.4 110.9C28.4 110.6 28.1 110.3 27.9 110.5L26.9 111.1C26.5 111.3 26.8 111.9 27.2 111.8C30.9 110.4 34.7 113.1 37.4 115.4C38.8 116.6 40 117.9 41.2 119.3C41.5 119.6 41.8 120.4 42.4 120.3C42.8 120.3 43 119.8 43.4 119.7C43.9 119.6 43.7 118.9 43.2 119C42.9 119 42.4 119.7 42.2 119.6C42.5 119.6 42.2 119.3 42.2 119.2C42.1 119 41.9 118.8 41.7 118.6C41.4 118.2 41 117.9 40.7 117.5C39.4 116.2 38.1 114.9 36.6 113.8C33.9 111.8 30.4 109.8 27 111L27.3 111.7L28.3 111.1L27.8 110.7C27 114.1 28.1 118 31.7 119.2C33.4 119.8 35.4 119.9 37.2 120C39.2 120.1 41.6 120.3 43.5 119.7L43.2 119C42.6 119.3 42.2 119.6 41.5 119.8C40.8 119.9 40 119.9 39.3 120C37.8 120 36.4 120 34.9 119.8C32.4 119.6 29.4 119.3 28 116.8C27.4 115.7 27.2 114.4 27.2 113.2C27.2 112.6 27.2 111.9 27.7 111.5C28.2 111.1 28.9 110.9 29.6 110.8C32.2 110.5 34.6 111.9 36.6 113.3C39 115.1 41.2 117.2 43 119.6C43.3 120 43.8 119.4 43.5 119.1L43.6 118.9Z" fill="#231F20"/>
<path d="M43.3 101.7C41.9 100 40.4 98.5 38.9 96.9C37.6 95.7 36.3 94.5 34.9 93.4C33.7 92.5 32.4 91.6 31 91.3C30.5 91.2 29.9 91.1 29.4 91.3C28.9 91.4 28.2 91.8 27.9 92.1C27.5 92.5 27.5 93.7 27.5 94.2C27.5 95.7 27.6 97.4 28.3 98.7C29.3 100.7 31.2 101.8 33.3 102.5C36.6 103.5 40.4 103.7 43.4 101.6C43.1 101.8 42.7 102 42.4 102.2C42 102.5 43.1 101.8 43.1 101.8C42.9 101.8 42.6 102 42.4 102.1C41.8 102.3 41.1 102.5 40.5 102.6C38.2 102.9 35.8 102.4 33.6 101.6C31.8 101 30.3 99.8 29.4 98.1C28.8 96.8 28.5 95.4 28.5 94C28.5 93.5 28.5 92.9 28.6 92.4C28.6 92.2 28.8 91.8 28.8 91.6C28.8 91.3 27.8 92 28.2 91.9C28.4 91.9 28.7 91.8 28.9 91.7C29.4 91.7 29.9 91.7 30.4 91.9C33.2 92.8 35.6 95.2 37.6 97.2C39.2 98.8 40.7 100.4 42.2 102.1L43.2 101.5L43.3 101.7Z" fill="#231F20"/>
<path d="M43.6 101.4C41.3 98.6 38.7 95.9 35.9 93.7C33.8 92 30.9 89.9 28.2 91.5C27.2 92.1 27.2 93.1 27.1 94.2C27.1 95.7 27.1 97.2 27.7 98.6C28.8 101.2 31.3 102.6 33.9 103.3C37.1 104.1 40.6 104.1 43.4 102.1C43.8 101.8 43.4 101.2 43 101.4C42.6 101.6 42.1 101.8 41.8 102.1C41.6 102.4 41.8 102.9 42.2 102.7C42.5 102.6 42.9 102.4 43.1 102.2C43.4 102 43.1 101.4 42.7 101.6C41.6 102 40.6 102.4 39.3 102.4C38 102.4 36.8 102.4 35.6 102.1C33.6 101.6 31.5 100.9 30.1 99.2C28.6 97.4 28.3 94.7 28.8 92.5C28.8 92.1 29.1 91.4 28.5 91.3C28.2 91.3 27.7 91.5 27.5 91.8C27.5 92 27.5 92.1 27.5 92.3C27.5 92.5 27.7 92.4 27.9 92.4C28.1 92.4 28.3 92.4 28.4 92.3C28.8 92.3 29.1 92.3 29.5 92.3C30.4 92.5 31.2 92.9 32 93.4C33.7 94.4 35.1 95.7 36.5 97C37.9 98.3 39.3 99.8 40.7 101.3C41 101.7 41.6 102.7 42.1 102.6C42.3 102.6 42.4 102.4 42.6 102.4C42.7 102.4 42.8 102.2 43 102.2C43.5 102.2 43.5 101.4 43 101.4C42.6 101.4 42.3 101.8 42 101.9C42 101.7 41.6 101.5 41.5 101.3C41.1 100.9 40.8 100.5 40.4 100.1C39.1 98.7 37.8 97.3 36.4 96C35.1 94.8 33.8 93.7 32.3 92.8C31.6 92.4 30.9 92 30.1 91.8C29.7 91.7 29.3 91.6 28.9 91.5C28.8 91.5 27.8 91.5 28 91.7V92.2C28.1 92.2 28.2 92.2 28.3 92C28.1 92 28 92 28 92.1C28 92.1 28 92.3 28 92.4C28 92.9 27.9 93.4 27.9 93.8C27.9 94.8 27.9 95.8 28.2 96.7C28.6 98.5 29.7 100 31.2 101C32.8 102.1 34.9 102.7 36.8 102.9C37.8 103.1 38.9 103.1 39.9 102.9C40.9 102.7 41.9 102.4 42.9 102.1L42.5 101.5C42.5 101.5 42.1 101.8 41.9 101.8L42.3 102.4C42.5 102.1 43.1 102 43.3 101.8L42.9 101.1C40.7 102.7 37.9 103 35.3 102.5C32.9 102.1 30.3 101.2 28.9 99.2C28.1 98 27.7 96.6 27.6 95.1C27.6 94.2 27.4 92.4 28.2 91.9C30.7 90.2 33.9 93 35.7 94.5C38.3 96.6 40.6 99.1 42.7 101.7C43 102.1 43.5 101.5 43.2 101.2L43.6 101.4Z" fill="#231F20"/>
<path d="M49.4 105.7C51.7 104.6 54.1 103.7 56.5 103.1C59.9 102.2 64.6 101.4 67.5 103.9C67.8 104.2 67.9 104.2 67.9 104.6C67.9 104.9 67.8 105.2 67.7 105.5C67.3 106.5 66.8 107.4 65.9 108.1C65.8 108.1 65.7 108.3 65.5 108.4C64.8 108.9 66.2 108.1 65.7 108.3C65.3 108.5 64.9 108.7 64.4 108.8C63.4 109 62.4 109.1 61.4 109C58.6 108.8 55.9 107.9 53.3 107C52.5 106.7 51.7 106.4 50.9 106.1C50.7 106 50.1 105.8 50 105.5C50 105.4 50 105.2 50 105.2C50.3 106 48.6 105.8 49.2 105.7C49.6 105.7 49.9 105.2 50.2 105.1C50.2 105.1 50.1 105.1 50 105.1C49.8 105.2 49 105.5 48.9 105.8C48.7 106.2 49.7 106.6 50 106.7C52.3 107.7 54.9 108.4 57.3 109C59.5 109.5 62 109.8 64.2 109C66.4 108.1 68.3 106.5 68.8 104.1C68.8 103.7 68.8 103.7 68.6 103.4C67.9 102.7 67 102.3 66.1 102C64.1 101.4 61.9 101.5 59.8 101.9C56.5 102.5 53.2 103.6 50.2 105C49.9 105.2 49.5 105.5 49.2 105.6L49.4 105.7Z" fill="#231F20"/>
<path d="M49.5 106C53.2 104.2 57.4 102.8 61.5 102.6C63.3 102.6 65.3 102.8 66.8 103.9C67.3 104.3 67.5 104.6 67.3 105.3C67.1 105.8 66.9 106.3 66.6 106.8C66.2 107.3 65.8 107.7 65.3 108.1C65.2 108.1 65 108.3 65 108.4C64.8 108.7 65.1 109 65.4 108.9C65.6 108.9 65.9 108.7 66.1 108.5C66.3 108.3 66.1 107.9 65.8 107.9C65.5 107.9 65 108.2 64.6 108.3C63.9 108.5 63.2 108.6 62.5 108.6C61 108.6 59.4 108.4 57.9 108C56.5 107.7 55.2 107.2 53.9 106.8C53.4 106.6 50.3 105.8 50.3 105.3H49.6C49.6 105.3 49.4 105.3 49.3 105.4C49.1 105.6 49 104.8 49.3 105.6L49.1 106C49.4 105.8 49.9 105.5 50.2 105.4C50.6 105.2 50.5 104.5 50 104.7C49.4 104.9 48 105.4 48.5 106.3C48.7 106.7 49.2 106.9 49.6 107C50.4 107.4 51.2 107.7 52 108C53.9 108.7 55.8 109.2 57.8 109.6C59.6 110 61.4 110.2 63.2 109.7C64.6 109.4 66 108.6 67.1 107.6C68 106.7 69.1 105.3 69.1 104C69.1 102.9 67.4 102.2 66.5 101.9C64.8 101.2 62.9 101.2 61.1 101.4C56.9 101.9 52.7 103.3 49 105.4C48.6 105.6 49 106.3 49.4 106.1C52.6 104.3 56.2 103 59.9 102.4C61.9 102.1 64 101.9 66 102.5C66.6 102.7 68 103.2 68.3 103.8C68.6 104.5 68 105.5 67.6 106.1C65.4 109.4 61.2 109.7 57.7 108.9C55.9 108.5 54.2 108 52.4 107.4C51.5 107.1 50.7 106.8 49.9 106.4C49.6 106.2 49.2 106.2 49.5 105.9C49.6 105.7 50.1 105.6 50.3 105.5L50.1 104.8C49.7 105 49.3 105.3 48.8 105.5C48.7 105.5 48.6 105.8 48.6 105.9C48.9 106.7 50.5 106.1 50.2 105.2C50.2 104.9 49.5 104.8 49.5 105.2C49.3 106.2 50.5 106.5 51.2 106.8C52.8 107.5 54.4 108 56.1 108.5C57.8 109 59.4 109.4 61 109.5C61.8 109.5 62.5 109.5 63.3 109.5C63.7 109.5 64.1 109.4 64.5 109.2C64.7 109.2 65.3 108.8 65.5 108.8L65.2 108.2C65.2 108.2 64.9 108.4 64.8 108.4L65.2 108.9C65.4 108.6 66 108.3 66.2 108.1C66.6 107.7 66.9 107.2 67.2 106.7C67.5 106.1 68.1 105 67.8 104.2C67.5 103.4 66.3 103 65.7 102.7C64.8 102.3 63.8 102.1 62.8 102C60.7 101.8 58.6 102.2 56.5 102.7C53.8 103.4 51.2 104.3 48.8 105.5C48.4 105.7 48.8 106.4 49.2 106.2L49.5 106Z" fill="#231F20"/>
<path d="M58 93.4C58.2 91.7 58.2 90.1 58 88.4C57.8 85.6 57.3 82.4 55.6 80.1C54.8 78.9 53.7 78 52.3 77.6C51.9 77.5 51.9 77.5 51.6 77.6C51.4 77.7 51.1 77.9 50.9 78C50.7 78.1 50.5 78.3 50.4 78.5C49.5 79.4 48.9 80.5 48.6 81.7C48.1 83.9 49 86 50.1 87.9C51.4 89.9 52.9 91.8 54.9 93.1C55.5 93.5 56.2 93.9 56.9 94C57.2 94 57.6 93.4 57.9 93.4C57.4 93.4 56.9 93.1 56.5 92.9C55.1 92.2 54 91.1 53 89.9C50.5 87 48.1 83 50.3 79.3C50.7 78.6 51.2 78 51.9 77.5L50.9 78.1C56.6 79.5 57.2 87.4 57 92.3C57 92.9 57 93.5 56.9 94.1C56.9 93.9 57.9 93.7 57.9 93.5L58 93.4Z" fill="#231F20"/>
<path d="M58.4 93.4C58.7 90.2 58.6 86.8 57.8 83.7C57.1 81.1 55.7 78.5 53.1 77.4C52.7 77.2 52.3 77.1 51.8 77.2C51.2 77.4 50.7 77.8 50.2 78.3C49.2 79.3 48.5 80.6 48.2 82C47.7 85 49.4 87.8 51.2 90C52.2 91.3 53.3 92.5 54.7 93.4C55.3 93.8 56.2 94.4 56.9 94.4C57.5 94.4 57.6 93.9 58.1 93.8C58.5 93.8 58.5 93.0999 58.1 93.0999C56.5 92.7999 55.1 91.5 54 90.4C52.9 89.3 52 87.9999 51.2 86.5999C49.6 83.6999 49.4 80 52.3 77.8C52.6 77.5 52.2 77 51.8 77.2L50.8 77.8C50.5 78 50.6 78.4 50.8 78.5C53.8 79.3 55.3 82 56 84.9C56.7 87.8 56.8 91.0999 56.5 94.0999C56.5 94.4999 57 94.6 57.2 94.3C57.3 94.1 58 94.1 58.2 93.7C58.4 93.3 57.8 92.9 57.6 93.3C57.5 93.6 56.8 93.5 56.6 93.9L57.3 94.0999C57.8 88.6999 57.6 79.5 51 77.8V78.5L52.1 77.9L51.6 77.3C48.6 79.6 48.6 83.3999 50.1 86.5999C50.9 88.1999 52 89.6 53.2 90.9C54.4 92.2 56 93.6 57.7 93.9V93.2C57.4 93.2 57.2 93.5 56.9 93.7C56.4 94 55.6 93.3999 55.1 93.0999C54 92.3999 53.1 91.5999 52.2 90.5999C50.5 88.6999 48.8 86.3 48.6 83.7C48.6 82.4 48.9 81.1 49.6 80C50 79.5 50.4 78.9999 50.9 78.5999C51.6 78.0999 52.2 78.1999 52.9 78.5999C55.1 79.7999 56.2 82.4 56.8 84.7C57.5 87.6 57.6 90.7 57.3 93.7C57.3 94.2 58 94.2 58.1 93.7L58.4 93.4Z" fill="#231F20"/>
<path d="M64.2 84.2C65.7 87.5 69.1 90.2 72.7 90.9C74.7 91.3 76.7 91.2 78.6 90.7C78.7 90.7 79.6 90.2 79.6 90.1C79.8 89.2 79.6 88.2 79.2 87.4C78.2 85.2 75.7 84.2 73.5 83.7C70.8 83.2 67.9 83.3 65.2 83.6C64.8 83.6 64.5 84.2 64.2 84.2C68 83.8 72.7 83.5 76.1 85.6C77.5 86.5 78.5 87.9 78.6 89.6C78.6 89.9 78.6 90.3 78.6 90.6L79.6 90C76.4 90.8 73.1 90.6 70.3 88.9C68.5 87.9 67 86.4 65.9 84.6C65.7 84.3 65.4 83.9 65.3 83.5L64.3 84.1L64.2 84.2Z" fill="#231F20"/>
<path d="M63.9 84.4C65 86.7 66.9 88.7 69.2 89.9C71.7 91.3 74.5 91.7 77.3 91.3C78 91.2 79.4 91 79.9 90.3C80.4 89.5 79.9 87.8 79.5 87C78.4 84.9 76.1 83.8 73.9 83.4C72.2 83 70.4 82.9 68.7 83C67.7 83 66.8 83 65.8 83.2C65.5 83.2 65.2 83.2 64.9 83.4C64.6 83.6 64.4 83.8 64.1 83.9C63.7 84 63.8 84.7 64.2 84.6C67 84.3 70 84.1 72.7 84.6C75.4 85.1 78.7 87.2 78.2 90.5C78.2 90.8 78.4 91.1 78.7 90.9L79.7 90.3C80.1 90.1 79.8 89.5 79.4 89.6C76.6 90.3 73.6 90.2 71 88.9C68.6 87.7 66.6 85.7 65.5 83.3C65.4 83.1 65.1 83.1 64.9 83.3C64.6 83.5 64.1 83.6 63.9 83.9C63.6 84.3 64.1 84.8 64.4 84.4C64.6 84.1 65.2 84.1 65.4 83.8H64.8C66.1 86.3 68.3 88.5 70.9 89.7C73.7 91 76.7 91.1 79.7 90.4L79.4 89.7L78.4 90.3L78.9 90.7C79.4 87.5 76.9 85.2 74 84.2C70.8 83.1 67.4 83.4 64.1 83.7V84.4C64.6 84.3 64.8 84 65.2 83.8C65.8 83.6 66.7 83.6 67.4 83.6C68.7 83.6 70 83.6 71.3 83.6C73.5 83.8 76 84.3 77.7 85.8C78.6 86.6 79.1 87.7 79.2 88.9C79.2 89.5 79.2 89.8 78.6 90.1C78.1 90.3 77.5 90.4 77 90.5C74.5 90.9 71.9 90.5 69.6 89.3C67.3 88.1 65.5 86.2 64.4 83.9C64.2 83.5 63.5 83.9 63.8 84.3L63.9 84.4Z" fill="#231F20"/>
<path d="M66.8 81.7C67.2 80.3 67.4 78.8 67.5 77.4C67.7 74.7 67.6 71.9 66.6 69.3C66 67.8 65 66.6 63.6 65.8C63.6 65.8 62.7 66.3 62.6 66.4C60.7 67.8 59 70 58.6 72.3C58.2 74.6 59.4 76.5 60.8 78.3C61.8 79.6 63.1 81.2 64.6 82C64.9 82.2 65.5 82.5 65.9 82.3C66.2 82.1 66.6 81.8 66.9 81.7C66.6 81.8 66.1 81.7 65.8 81.5C64.4 80.8 63.3 79.5 62.3 78.3C60.9 76.6 59.5 74.7 59.6 72.3C59.7 70.6 60.5 69.1 61.6 67.8C62.2 67 62.9 66.3 63.7 65.8L62.7 66.4C67.4 69.2 67 76 66.2 80.6C66.2 81.1 66 81.7 65.9 82.2C65.9 81.9 66.9 81.9 66.9 81.6L66.8 81.7Z" fill="#231F20"/>
<path d="M67.1 81.8C67.9 78.6 68.2 75.1 67.6 71.9C67.3 70.4 66.9 69 66 67.8C65.6 67.3 65.2 66.8 64.7 66.4C64.4 66.1 63.8 65.6 63.4 65.6C62.7 65.6 61.6 66.7 61.1 67.1C60 68.1 59.1 69.3 58.5 70.6C57.3 73.4 58.1 75.9 59.8 78.3C60.8 79.6 61.8 80.9 63.1 81.9C63.6 82.3 64.3 82.8 65 82.9C65.7 82.9 66.2 82.5 66.7 82.2C67.1 82 66.8 81.4 66.4 81.5C65.7 81.7 64.7 80.8 64.3 80.5C63.8 80 63.3 79.5 62.8 79C61.8 77.8 60.8 76.6 60.1 75.2C58.6 71.9 60.8 68.4 63.5 66.4C63.9 66.1 63.5 65.5 63.1 65.7L62.1 66.3C61.9 66.4 61.9 66.8 62.1 67C67.1 70 66.3 77.6 65.1 82.4C65 82.8 65.6 83.1 65.8 82.7C66 82.4 66.6 82.5 66.8 82.1C67 81.7 66.4 81.3 66.2 81.7C66 82 65.4 81.9 65.2 82.3L65.9 82.6C67.2 77.4 67.8 69.6 62.5 66.3V67L63.5 66.4L63.1 65.7C60.1 67.9 57.8 71.7 59.4 75.4C60.1 77.1 61.4 78.5 62.6 79.8C63.5 80.8 65.1 82.6 66.6 82.2L66.3 81.5C65.7 81.8 65.2 82.2 64.5 81.9C63.9 81.6 63.4 81.2 63 80.8C62.1 80 61.3 79 60.6 78C59.1 76 58.1 73.7 59 71.2C59.5 70 60.2 69 61.1 68.1C61.5 67.7 62 67.3 62.5 66.9C62.7 66.8 63.1 66.4 63.3 66.4C63.6 66.4 64.2 67.1 64.4 67.3C64.8 67.7 65.2 68.2 65.5 68.8C66.1 69.9 66.5 71.1 66.7 72.4C67.2 75.4 66.9 78.8 66.1 81.8C66 82.3 66.7 82.5 66.8 82L67.1 81.8Z" fill="#231F20"/>
<path d="M75.9 70.6C74.5 68.9 73.4 67 72.5 65C70.9 61.4 70.1 57.2 71.8 53.5L70.8 54.1C72.6 54.9 74.2 56.5 75.2 58.2C76.2 60 76.4 62 76.3 64.1C76.2 66 76 67.9 75.6 69.8C75.5 70.3 75.4 70.9 75.1 71.3C75.3 71 75.9 71 76.1 70.7C76.3 70.4 76.4 70 76.5 69.6C77 68 77.1 66.3 77.3 64.6C77.5 62.4 77.5 60.3 76.6 58.3C76 57 75 55.8 73.9 54.8C73.3 54.3 72.7 53.8 71.9 53.5C71.9 53.5 70.9 54 70.9 54.1C69.2 57.8 70 62 71.6 65.6C72.5 67.6 73.6 69.6 75 71.2L76 70.6H75.9Z" fill="#231F20"/>
<path d="M76.2 70.3C72.6 65.9 69.7 59.2 72.1 53.6C72.2 53.3 71.9 52.9 71.6 53.1L70.6 53.7C70.4 53.8 70.3 54.2 70.6 54.4C73.5 55.7 75.5 58.5 75.8 61.6C76 63.2 75.8 64.8 75.6 66.4C75.6 67.3 75.4 68.1 75.2 69C75.1 69.7 75 70.5 74.5 71.1C74.2 71.5 74.8 71.8 75.1 71.6C75.5 71.2 76 71.3 76.3 70.7C76.7 70.1 76.8 69.2 76.9 68.5C77.2 66.9 77.4 65.2 77.5 63.5C77.7 60.2 76.8 57.2 74.4 54.9C73.8 54.3 72.4 52.9 71.4 53.2C70.3 53.6 70 54.5 69.8 55.6C69 58.8 69.6 62.2 70.9 65.2C71.7 67 72.6 68.8 73.8 70.4C74 70.7 74.5 71.6 74.9 71.6C75.3 71.6 75.6 71.1 76 71C76.5 71 76.3 70.2 75.8 70.3C75.6 70.3 75.4 70.5 75.2 70.6C75.2 70.6 75 70.8 74.9 70.8C75 70.8 74.7 70.3 74.6 70.3C74.5 70.1 74.4 70 74.2 69.8C73.4 68.7 72.7 67.5 72.1 66.3C70.9 63.8 70 60.9 70.1 58.1C70.1 57.4 70.2 56.7 70.4 56.1C70.5 55.5 70.7 54.7 71.1 54.3C71.5 54 71.6 53.9 72 54.2C72.6 54.6 73.2 55 73.7 55.4C75.9 57.4 76.8 60 76.8 62.9C76.8 64.5 76.6 66.1 76.4 67.7C76.3 68.4 76.1 69.1 75.9 69.8C75.7 70.3 75.5 70.5 75.1 70.8C74.9 70.8 74.8 71 74.6 71.1L75.2 71.6C75.6 71 75.7 70.4 75.9 69.7C76.1 68.8 76.2 67.9 76.4 66.9C76.6 65.1 76.8 63.2 76.5 61.4C76 58.2 73.9 55.3 71 53.9V54.6L72 54L71.5 53.5C68.9 59.5 71.9 66.4 75.7 71.1C76 71.5 76.5 70.9 76.2 70.6V70.3Z" fill="#231F20"/>
<path d="M78.5 67C77.8 69.8 78 73.6 80.4 75.6C81.4 76.4 82.6 76.8 83.9 77C84.6 77 85.6 77.3 86.2 77C86.5 76.8 86.8 76.7 87 76.5C87.6 75.8 87.4 74.5 87.2 73.8C86.8 72.6 86 71.6 85.2 70.7C83.6 69 81.6 67.7 79.6 66.6L79.1 66.9L78.6 67.2C81.2 68.7 84.2 70.6 85.7 73.3C86.3 74.3 86.7 75.6 86.3 76.7C86.3 76.9 86.2 77.1 86 77.2L87 76.6C84.3 76.6 81.4 76 80.1 73.4C79.2 71.7 79.1 69.7 79.3 67.9C79.3 67.5 79.4 67 79.5 66.6C79.5 66.6 79.1 66.8 79 66.9C79 66.9 78.5 67.1 78.5 67.2V67Z" fill="#231F20"/>
<path d="M78.2 66.9C77.7 68.9 77.7 71.1 78.3 73C79.1 75.2 80.8 76.6 83 77.1C84 77.3 85.3 77.6 86.2 77.2C87.1 76.8 87.7 76.2 87.8 75.1C87.9 72.7 86 70.6 84.3 69.2C83.2 68.2 81.9 67.4 80.7 66.6C80.3 66.4 79.7 65.8 79.2 66.1C79 66.1 78.9 66.3 78.8 66.4C78.8 66.4 78.7 66.4 78.6 66.5C78.6 66.5 78.2 66.7 78.5 66.6C78.1 66.6 78 67.1 78.3 67.3C80.1 68.3 81.9 69.5 83.5 70.9C84.9 72.2 87 74.8 85.7 76.8C85.5 77.1 85.9 77.5 86.2 77.3L87.2 76.7C87.5 76.5 87.4 76 87 76C84.9 76 82.6 75.7 81.1 74C79.3 72 79.3 68.8 79.9 66.4C79.9 66.1 79.5 65.7 79.3 66C79 66.3 78.5 66.3 78.2 66.7C77.9 67.1 78.6 67.5 78.8 67.1H79C79 67.1 79.1 67.1 79.2 67.1C79.4 67.1 79.6 66.9 79.7 66.8L79.1 66.4C78.5 69.1 78.6 72.4 80.4 74.6C82 76.5 84.6 77 86.9 76.9L86.7 76.2L85.7 76.8L86.2 77.3C87.6 75.2 85.8 72.5 84.4 71C82.8 69.3 80.7 68 78.6 66.8L78.4 67.5C78.7 67.5 78.9 67.3 79.1 67.2C79.1 67.2 79.2 67.2 79.3 67.1C79.3 67.1 79.4 67.1 79.5 67C79.6 67 79.6 67 79.5 67H79.7C79.9 67.3 80.2 67.4 80.4 67.5C80.6 67.7 80.9 67.8 81.1 68C81.6 68.3 82.1 68.6 82.5 69C84.2 70.3 86.2 72 86.9 74.1C87.1 74.9 87.3 76.1 86.4 76.6C85.5 77.1 84.5 76.9 83.5 76.7C81.5 76.3 79.8 75.2 79.1 73.2C78.4 71.2 78.4 69.2 78.9 67.3C79 66.8 78.3 66.6 78.2 67.1V66.9Z" fill="#231F20"/>
<path d="M86.8 58.3C83.7 56.7 81.2 53.6 80.2 50.3C79.7 48.6 79.5 46.7 79.7 44.9L78.7 45.5C79.9 45.5 81.1 45.7 82.2 46.2C84.6 47.2 86.1 49.2 86.5 51.7C86.9 54.2 86.5 56.6 85.7 58.9C85.7 58.6 86.7 58.6 86.7 58.3C87.7 55 88.4 50.7 86.1 47.8C84.9 46.2 83 45.3 81 45C80.6 45 80.1 44.9 79.7 45C79.6 45 78.7 45.5 78.7 45.6C78.2 50.7 80.6 55.4 84.7 58.3C85 58.5 85.4 58.8 85.7 58.9C85.9 58.9 86.6 58.2 86.7 58.3H86.8Z" fill="#231F20"/>
<path d="M87 58C84.8 56.8 83 55 81.8 52.9C80.4 50.5 79.9 47.8 80.2 45C80.2 44.7 79.9 44.5 79.6 44.7L78.6 45.3C78.3 45.5 78.4 46 78.8 46C81.6 46 84.3 47.2 85.6 49.8C87 52.6 86.3 56 85.6 58.9C85.5 59.3 86.1 59.6 86.3 59.2C86.5 58.9 87.1 59 87.3 58.6C87.6 58.1 87.7 57.2 87.8 56.7C88.1 55.3 88.3 53.8 88.3 52.4C88.2 49.5 86.8 46.9 84.1 45.6C83.5 45.3 82.8 45.1 82.1 44.9C81.4 44.7 80.5 44.5 79.8 44.7C79.5 44.7 79.1 45 78.8 45.2C78.4 45.5 78.5 46 78.4 46.5C78.3 49.4 79.1 52.2 80.7 54.6C81.6 55.9 82.7 57.1 83.9 58.1C84.2 58.3 84.5 58.6 84.9 58.8C85.2 59 85.5 59.3 85.9 59.3C86.1 59.3 86.3 59.3 86.4 59.1C86.5 59.1 86.8 58.7 86.9 58.7C87.4 58.7 87.4 58 86.9 57.9C86.6 57.9 86.4 58.1 86.2 58.3C86 58.5 86 58.5 85.8 58.3C85.5 58.2 85.1 57.8 84.8 57.6C83.8 56.9 82.9 56 82.1 55.1C80.5 53.2 79.5 50.8 79.2 48.4C79.2 47.8 79.1 47.3 79.2 46.7C79.2 46.4 79.2 46 79.2 45.7C79.2 45.5 79.3 45.5 79.5 45.4C80.5 44.8 82.1 45.4 83.1 45.8C85.7 46.8 87.2 49 87.5 51.8C87.6 53.2 87.5 54.6 87.2 55.9C87.2 56.2 87.1 56.6 87 56.9C87 57.2 86.9 57.6 86.7 57.9C86.5 58.3 85.9 58.2 85.7 58.6L86.4 58.9C87.3 55.7 88 52.1 86.4 49C85 46.4 82 45 79.1 45L79.3 45.7L80.3 45.1L79.7 44.8C79.2 50.3 82 55.8 86.9 58.5C87.3 58.7 87.7 58.1 87.3 57.8L87 58Z" fill="#231F20"/>
<path d="M39.8 74.4C43.6 74.8 47.5 73.7 50.6 71.5C51.8 70.7 52.8 69.5 53.4 68.3C53.8 67.5 54.1 66.8 54.3 65.9C54.4 65.4 54.5 65 54.5 64.6C54.5 64.4 54.7 63.4 54.6 63.2C54.4 63 53.7 63 53.4 63C52.5 62.9 51.6 62.9 50.8 63C48.8 63.2 47 64.1 45.4 65.3C42.6 67.4 40.7 71.1 39.8 74.5C39.8 74.2 40.8 74.2 40.8 73.9C41.5 71.4 42.7 68.9 44.3 66.8C44.9 66 45.6 65.3 46.4 64.7C46.4 64.7 46.9 64.4 46.9 64.3C47.1 64.3 47.4 64.1 47.6 64C48.1 63.8 48.7 63.7 49.2 63.6C50 63.4 50.9 63.4 51.7 63.5C52.2 63.5 52.8 63.5 53.3 63.7H53.5C53.6 63.9 53.5 64.9 53.4 65.1C53.3 65.9 53.1 66.8 52.8 67.5C52.3 68.8 51.6 70 50.6 71C50.1 71.5 49.6 71.9 49.1 72.2C48.6 72.5 49.7 71.9 49.2 72.2C49 72.2 48.9 72.4 48.7 72.4C48.4 72.5 48.2 72.6 47.9 72.7C46.9 73.1 45.8 73.4 44.7 73.5C43.4 73.7 42 73.8 40.7 73.6C40.4 73.6 40 74.2 39.7 74.2L39.8 74.4Z" fill="#231F20"/>
<path d="M39.8 74.7C45.6 75.3 52.8 72.5 54.5 66.4C54.7 65.7 54.8 65 54.9 64.3C54.9 63.9 55.1 63.4 54.9 63C54.8 62.7 54.4 62.6 54 62.5C53.3 62.5 52.7 62.4 52 62.3C49 62.3 46.1 63.6 44 65.6C41.6 67.9 40.2 71 39.3 74.1C39.2 74.5 39.8 74.8 40 74.4C40.1 74.2 40.6 74.2 40.8 74.1C41.1 73.8 41.2 73.4 41.3 73C41.7 71.8 42.2 70.6 42.8 69.4C43.4 68.2 44.1 67.2 44.9 66.2C45.3 65.8 45.7 65.3 46.1 65C46.4 64.8 46.8 64.6 47 64.3C47.3 63.9 46.8 63.4 46.5 63.8L46.2 64L46.5 64.7C47.7 63.9 49.3 63.7 50.7 63.7C51.4 63.7 52.2 63.7 52.9 63.9C53 63.9 53.2 63.9 52.9 63.9C52.9 64 52.9 64.2 52.9 64.3C52.9 64.5 52.9 64.7 52.8 64.9C52.6 66.4 52.2 67.8 51.4 69.1C51 69.7 50.5 70.3 50 70.8C49.5 71.2 49 71.6 48.5 72C48.3 72.2 48.4 72.5 48.5 72.6C48.8 72.8 49.5 72.4 49.5 72.1C49.5 71.9 49.3 71.6 49 71.7C48.2 72 47.5 72.4 46.8 72.6C45.8 72.9 44.8 73.1 43.8 73.2C42.9 73.3 41.9 73.4 41 73.2C40.7 73.2 40.4 73.2 40.2 73.2C39.9 73.3 39.7 73.7 39.4 73.7C38.9 73.7 39.1 74.5 39.6 74.4C39.8 74.4 40 74.2 40.2 74.1C40.6 73.8 41.1 73.9 41.6 73.9C42.5 73.9 43.4 73.9 44.3 73.7C45.2 73.5 46.2 73.4 47.1 73.1C47.9 72.9 48.6 72.5 49.3 72.2L48.8 71.8C48.8 71.8 48.9 71.6 49 71.5H48.9C48.6 71.5 49 71.6 49 71.6V72.2C49.7 71.7 50.3 71.3 50.9 70.7C51.5 70.1 52 69.4 52.4 68.7C53.2 67.2 53.5 65.6 53.7 64C53.7 63.6 53.7 63.2 53.3 63C52.7 62.7 51.7 62.7 51 62.7C49.4 62.7 47.4 62.9 46 63.8C45.6 64 45.9 64.6 46.3 64.5C46.5 64.5 46.8 64.3 46.9 64.1L46.4 63.6C46.2 63.9 45.7 64.1 45.5 64.3C45 64.7 44.6 65.1 44.3 65.5C43.5 66.4 42.8 67.4 42.2 68.5C41.6 69.6 41.1 70.7 40.7 71.8C40.5 72.3 40.4 73.1 40 73.3C39.7 73.5 39.5 73.5 39.3 73.8L40 74.1C41.4 69.2 44.5 64.2 49.9 63C51.2 62.7 52.4 62.8 53.7 63C53.9 63 54.1 63 54.1 63C54.1 63.2 54.1 63.5 54.1 63.7C54 64.3 53.9 64.9 53.8 65.5C53.1 68.3 51.3 70.4 48.7 71.7C45.9 73.2 42.8 73.9 39.7 73.5C39.2 73.5 39.2 74.2 39.7 74.3L39.8 74.7Z" fill="#231F20"/>
<path d="M87.5 50.1C88.4 47.6 89.9 45.4 91.9 43.7L90.9 44.3C92.8 46.5 93.1 49.9 92 52.5C91.2 54.4 89.8 56.4 88.2 57.7C88 57.9 87.7 58.1 87.4 58.3C87 58.6 88.5 57.8 87.8 58.1C87.8 58.1 87.6 58.1 87.6 58.2C87.5 58.2 87.3 58.3 87.2 58.3C86.8 58.3 86.5 58.8 86.2 58.9C86.6 58.9 87 58.6 87.4 58.4C88.4 57.9 89.3 57.3 90.1 56.4C92.8 53.6 94.7 49.8 93.3 46C93 45.2 92.6 44.3 92 43.6C92 43.6 91 44.1 91 44.2C89 45.9 87.5 48.1 86.6 50.6C86.6 50.3 87.5 50.3 87.6 50L87.5 50.1Z" fill="#231F20"/>
<path d="M87.8 50.2C88.7 47.8 90.1 45.7 92.1 44C92.4 43.7 92.1 43.2 91.6 43.4L90.6 44C90.4 44.1 90.4 44.4 90.6 44.6C92.2 46.6 92.6 49.5 91.8 51.9C91.3 53.2 90.6 54.5 89.7 55.6C89.3 56.1 88.8 56.7 88.3 57.1C87.9 57.5 87.4 57.7 87.1 58.1C86.9 58.3 87 58.6 87.1 58.7C87.4 58.9 88.1 58.5 88.2 58.2C88.3 58 88.2 57.6 87.9 57.6C87.6 57.6 87.2 57.8 86.9 57.9C86.5 58 86.2 58.4 85.9 58.5C85.4 58.6 85.6 59.3 86.1 59.2C87.6 58.9 89.2 57.6 90.3 56.5C91.4 55.3 92.4 53.9 93.1 52.4C94.4 49.4 94.2 46 92.1 43.4C92.1 43.4 91.9 43.3 91.7 43.4C90.5 43.7 89.4 45.1 88.7 45.9C87.5 47.3 86.7 48.9 86 50.6C85.9 51 86.5 51.2 86.7 50.9C86.7 50.8 87.2 50.7 87.3 50.7C87.5 50.7 87.6 50.5 87.7 50.3C88 49.9 87.3 49.5 87.1 49.9C86.9 50.2 86.3 50.1 86.1 50.5L86.8 50.8C87.4 49.2 88.2 47.7 89.3 46.4C89.9 45.6 90.9 44.3 92 44.1H91.6C93.6 46.5 93.6 49.8 92.3 52.6C91.7 53.9 90.8 55.1 89.8 56.1C88.8 57.1 87.4 58.3 85.9 58.6L86.1 59.3C86.7 59.1 87.3 58.5 87.9 58.4L87.6 57.8C87.6 57.7 87.5 57.8 87.4 57.8C87.1 58 87.2 57.8 87.4 58V58.6C87.9 58.1 88.5 57.8 89 57.3C89.5 56.8 90 56.2 90.4 55.6C91.3 54.4 92.1 53 92.5 51.5C93.2 48.9 92.6 46 91 43.9V44.5L92 43.9L91.5 43.3C89.5 45.1 87.9 47.3 87 49.9C86.8 50.4 87.6 50.6 87.7 50.1L87.8 50.2Z" fill="#231F20"/>
<path d="M85.6 59C87.1 62.1 90.1 64.8 93.3 66C95 66.6 96.8 66.8 98.6 66.7C98.7 66.7 99.6 66.2 99.6 66.1C99.7 64.9 99.5 63.6 99.1 62.5C98.2 60.1 96.3 58.5 93.8 57.9C91.3 57.3 88.9 57.8 86.6 58.3C86.2 58.3 85.9 58.8 85.6 58.9C89 58.1 93.2 57.6 96.1 60C97.6 61.3 98.4 63.3 98.6 65.2C98.6 65.6 98.6 66.1 98.6 66.5L99.6 65.9C94.5 66.2 89.9 63.5 87.2 59.2C87 58.9 86.8 58.5 86.6 58.2L85.6 58.8V59Z" fill="#231F20"/>
<path d="M85.3 59.2C87.7 64.1 92.8 67.3 98.3 67.1C98.8 67.1 99.8 66.8 100.1 66.2C100.3 65.7 100.1 64.9 100.1 64.4C100 63.7 99.8 63 99.6 62.3C98.8 60.2 97.1 58.6 95.1 57.9C93.6 57.4 92 57.3 90.4 57.4C89.5 57.4 88.7 57.6 87.9 57.8C87.5 57.8 87.1 57.9 86.7 58.1C86.3 58.2 86.1 58.5 85.8 58.7C85.4 58.9 85.5 59.5 86 59.4C88.6 58.8 91.6 58.3 94.2 59.3C97.3 60.4 98.8 63.6 98.6 66.7C98.6 67 98.9 67.2 99.2 67L100.2 66.4C100.5 66.2 100.4 65.7 100 65.7C94.7 66 89.6 62.9 87.3 58.2C87.2 58 86.9 58 86.7 58.2C86.5 58.4 85.9 58.5 85.7 58.8C85.4 59.2 85.9 59.7 86.2 59.3C86.4 59.1 87 59 87.2 58.7H86.6C89.1 63.6 94.4 66.8 99.9 66.5L99.7 65.8L98.7 66.4L99.3 66.7C99.5 63.4 97.9 60.1 94.8 58.7C92 57.5 88.7 57.9 85.8 58.7L86 59.4C86.5 59.2 86.8 58.9 87.3 58.7C88 58.5 88.7 58.4 89.3 58.3C90.7 58.1 92.1 58 93.5 58.3C95.5 58.6 97.4 59.6 98.5 61.4C99.1 62.4 99.5 63.6 99.6 64.8C99.6 65.1 99.6 65.4 99.6 65.6C99.6 65.9 99.6 65.8 99.5 66C99.2 66.3 98.7 66.3 98.3 66.3C95.8 66.3 93.4 65.7 91.3 64.4C89.2 63.1 87.3 61.1 86.2 58.8C86 58.4 85.3 58.8 85.6 59.2H85.3Z" fill="#231F20"/>
<path d="M95 59.1C96.4 58.7 97.6 58 98.9 57.3C99.5 56.9 100.2 56.5 100.7 56C100.8 56 101.7 55.2 101.7 55.1C101.7 54.9 101.3 54.8 101.2 54.7C100.9 54.5 100.6 54.3 100.3 54.1C99.4 53.6 98.4 53.2 97.4 53C95.8 52.7 94.1 53 92.6 53.6C92.2 53.8 91.9 54 91.6 54.2C93.8 53.2 96.2 53.2 98.4 54.2C99 54.5 99.7 54.9 100.2 55.3C100.3 55.3 100.6 55.5 100.7 55.7C100.7 55.7 100.2 56.2 100.1 56.2C99.8 56.5 99.4 56.8 99.1 57C98.9 57.2 98.7 57.3 98.5 57.4C97.8 57.8 97 58.1 96.2 58.3C95.8 58.4 95.5 58.8 95.2 58.9L95 59.1Z" fill="#231F20"/>
<path d="M95.1 59.4C96.5 58.9 97.9 58.3 99.1 57.5C100 57 101 56.3 101.8 55.5C102.1 55.2 102.1 55 101.8 54.7C101.4 54.2 100.7 53.9 100.2 53.5C99 52.8 97.5 52.4 96.1 52.3C95.2 52.3 94.3 52.4 93.5 52.6C93.1 52.7 92.7 52.9 92.3 53C91.9 53.1 91.6 53.4 91.2 53.6C90.8 53.8 91.1 54.4 91.5 54.3C93 53.7 94.7 53.4 96.3 53.7C97.7 54 99.3 54.7 100.3 55.7V55.3C100.2 55.3 100 55.5 99.9 55.5C99.7 55.6 99.5 55.8 99.4 55.9C98.9 56.3 98.5 56.6 98 56.9C97.8 57.1 97.8 57.5 98 57.6C98.2 57.6 98.3 57.6 98.5 57.4C98.6 57.4 98.7 57.1 98.7 57C98.7 56.8 98.4 56.7 98.2 56.8C97.7 57.1 97.1 57.4 96.5 57.6C96.2 57.6 95.9 57.8 95.6 57.9C95.3 58 95.1 58.3 94.8 58.4C94.4 58.6 94.6 59.3 95 59.1C95.3 59 95.5 58.8 95.7 58.7C96 58.5 96.4 58.4 96.8 58.3C97.4 58.1 98 57.8 98.5 57.5L98 57.3C98 57.2 98.1 57 98.2 56.9C98.2 56.9 98.1 56.9 98 57H98.3C98.3 57.2 98.3 57.4 98.3 57.7C98.8 57.4 99.3 57 99.7 56.7C100 56.4 100.5 56.2 100.7 55.8C100.9 55.4 100.7 55.2 100.5 55C100 54.6 99.5 54.2 98.9 53.9C96.5 52.6 93.7 52.5 91.2 53.6L91.5 54.3C92 54.1 92.3 53.8 92.8 53.6C93.2 53.4 93.6 53.3 94.1 53.2C95 53 96 52.9 97 53.1C98.5 53.3 100.3 54.1 101.3 55.2V54.8C101.3 54.7 101.2 54.8 101.1 54.8C101.1 54.8 101 54.9 100.9 55C100.8 55.1 100.6 55.2 100.4 55.3C99.9 55.7 99.3 56.1 98.7 56.5C97.4 57.3 96.1 58 94.7 58.4C94.2 58.6 94.4 59.3 94.9 59.1L95.1 59.4Z" fill="#231F20"/>
<path d="M40.8 73.8C40.3 72.6 39.5 71.5 38.7 70.6C36.6 68.3 33.7 66.8 30.6 66.1C27.9 65.5 25.2 65.5 22.5 65.9C22.4 65.9 21.5 66.5 21.5 66.5C23.3 71 27.3 75.4 32.3 76C34.9 76.3 37.5 75.6 39.8 74.5C40.2 74.3 40.5 74.1 40.8 73.9C37 75.7 32.7 76.2 28.9 73.9C26.5 72.4 24.6 70.1 23.2 67.7C22.9 67.2 22.6 66.6 22.4 66L21.4 66.6C25.6 66.1 30.1 66.3 33.9 68.4C36 69.6 37.9 71.2 39.1 73.3C39.3 73.7 39.6 74.1 39.7 74.5C39.7 74.5 40.8 74 40.7 73.9L40.8 73.8Z" fill="#231F20"/>
<path d="M41.2 73.7C39.7 70.1 36.2 67.4 32.5 66.2C30.4 65.5 28.2 65.2 26 65.2C24.4 65.2 22.6 65.0999 21.3 66.0999C21.2 66.0999 21.1 66.4 21.1 66.5C22.5 70.1 25.1 73.3999 28.6 75.0999C32.7 77.0999 37.1 76.1 41 74C41.4 73.8 41 73.2 40.6 73.3C37.2 74.9 33.2 75.3999 29.7 73.5999C26.6 71.9999 24.1 68.8 22.8 65.5C22.8 65.3 22.5 65.1 22.3 65.3L21.3 65.9C21 66.1 21.1 66.6999 21.5 66.5999C28.3 65.7999 36.5 67.4 39.5 74.4C39.6 74.6 39.9 74.6 40.1 74.4C40.4 74.1 40.9 74.1 41.2 73.7C41.5 73.3 40.8 72.9 40.6 73.3C40.6 73.3 40.2 73.5 40.1 73.5C40 73.5 39.8 73.7 39.7 73.8H40.3C37.2 66.7 28.6 64.9 21.6 65.8L21.8 66.5L22.8 65.9L22.3 65.7C23.7 69.2 26.4 72.7 29.9 74.4C33.6 76.2 37.7 75.6 41.2 73.9L40.8 73.2C37.1 75.2 32.8 76.1999 28.9 74.0999C25.7 72.3999 23.3 69.3999 22 66.0999L21.8 66.5C23 65.6 24.7 65.7 26.2 65.7C28.2 65.7 30.3 65.9 32.2 66.5C35.7 67.6 39.2 70.0999 40.7 73.5999C40.9 73.9999 41.6 73.8 41.4 73.4L41.2 73.7Z" fill="#231F20"/>
<path d="M40.3 196.6C41.1 195 42.1 193.4 43.2 191.9C44.1 190.6 45.2 189.2 46.3 188C46.9 187.4 47.5 186.8 48.1 186.3C48.4 186 48.7 185.8 49.1 185.6C49.2 185.6 49.4 185.4 49.5 185.3C49.7 185.2 49.7 185.3 49.3 185.3C49.5 185.3 49.7 185.1 49.9 185C50.2 184.8 50.6 184.7 50.9 184.6C51.1 184.6 51.7 184.3 51.9 184.4C51.9 184.4 52 184.8 52.1 184.9C52.4 185.9 52.6 186.9 52.6 188C52.6 189.5 52.4 191 51.8 192.3C50.9 194.2 49.3 195.6 47.3 196.4C45.7 197.1 43.8 197.6 42 197.2C41.4 197.1 40.7 196.9 40.3 196.4C40.3 196.4 39.3 197.1 39.3 197C39.7 197.4 40.4 197.6 41 197.8C42.7 198.2 44.6 197.8 46.2 197.1C47.2 196.7 48.2 196.1 49.2 195.6C50.1 195.1 50.9 194.5 51.6 193.8C52.9 192.5 53.6 190.7 53.7 188.9C53.8 187.6 53.7 186.2 53.4 184.9C53.4 184.6 53.3 184.2 53.1 183.9C52.9 183.6 52 184 51.7 184.1C48.4 185.2 45.7 187.8 43.6 190.5C42 192.5 40.5 194.8 39.4 197.1C39.5 196.8 40.3 196.8 40.4 196.5L40.3 196.6Z" fill="#231F20"/>
<path d="M40.6 196.8C41.7 194.6 43.1 192.4 44.6 190.5C45.3 189.5 46.1 188.6 47 187.8C47.4 187.4 47.8 187 48.3 186.6C48.5 186.4 48.8 186.2 49 186.1C49.1 186.1 49.6 185.7 49.5 185.7L49.2 185.1L49.4 185.8C49.8 185.6 50.2 185.4 50.7 185.3C50.9 185.3 51.6 184.9 51.8 185C51.8 185 52 186 52.1 186.2C52.2 186.9 52.3 187.5 52.3 188.2C52.4 190.6 51.7 192.9 49.9 194.6C48.3 196.1 45.9 197.1 43.7 197.2C43.1 197.2 42.5 197.2 41.9 197C41.6 197 41.4 196.8 41.1 196.7C40.9 196.7 40.7 196.4 40.5 196.3C40.3 196.3 40.1 196.3 39.9 196.4C39.8 196.4 39.6 196.6 39.5 196.7C39.4 196.7 39.1 196.9 39.3 196.9C39 196.9 38.8 197.3 39 197.5C41.4 199.5 45.1 198.3 47.5 197.1C50.3 195.7 52.8 193.9 53.7 190.8C54.1 189.3 54.1 187.6 53.9 186.1C53.8 185.2 53.7 183.6 52.5 183.8C51.3 184 50 184.7 48.9 185.3C47.6 186.1 46.4 187.1 45.4 188.1C42.8 190.7 40.6 193.9 39 197.2C38.8 197.6 39.3 198 39.6 197.7C39.8 197.4 40.4 197.4 40.6 197.1C40.9 196.7 40.4 196.2 40.1 196.6C39.9 196.9 39.3 196.9 39.1 197.2L39.7 197.7C41 195.1 42.6 192.7 44.5 190.5C46.1 188.5 48 186.7 50.3 185.6C50.8 185.3 51.4 185.1 52 184.9C52.2 184.9 52.3 184.8 52.5 184.7C52.9 184.7 52.9 184.7 53 185.1C53.3 186.5 53.5 187.9 53.4 189.3C53.3 190.6 52.8 191.9 52.1 193C51.3 194.2 50.1 195 48.9 195.8C47.5 196.6 46.1 197.4 44.6 197.8C43.1 198.2 41.1 198.3 39.8 197.3L39.5 197.9C39.7 197.9 39.9 197.8 40 197.7C40.1 197.7 40.2 197.5 40.4 197.5C40.6 197.3 40.4 197.4 40.6 197.5C41.2 198.1 42.4 198.2 43.2 198.3C45.2 198.4 47.4 197.7 49.1 196.6C52.7 194.4 53.8 190.2 52.9 186.2C52.8 185.6 52.7 184.5 51.9 184.5C51 184.5 50.2 185.1 49.4 185.4C48.9 185.6 49.1 186.3 49.6 186.1C49.8 186.1 50 186 50.1 185.8C50.3 185.6 50.1 185.2 49.8 185.2C49.4 185.2 49 185.6 48.7 185.9C48.2 186.3 47.7 186.7 47.3 187.1C46.3 188 45.4 189 44.6 190C42.9 192.1 41.4 194.4 40.2 196.8C40 197.2 40.6 197.6 40.8 197.2L40.6 196.8Z" fill="#231F20"/>
<path d="M40.3 199.4C38.6 199.1 37 198.6 35.4 197.9C32.4 196.7 29.5 195 27.6 192.4C26.4 190.8 25.7 188.9 25.6 186.8L24.6 187.4C26.7 187.2 28.9 187.4 30.9 188.1C32.5 188.6 34.1 189.3 35.3 190.5C36.9 192.1 38 194.3 38.7 196.4C39.1 197.5 39.3 198.7 39.3 199.9C39.3 199.7 40.3 199.5 40.3 199.3C40.3 196.2 38.8 192.8 36.8 190.4C34.7 187.9 31.2 187 28.1 186.8C27.3 186.8 26.5 186.8 25.6 186.8C25.5 186.8 24.6 187.3 24.6 187.4C24.9 194.2 31.7 197.9 37.5 199.5C38.1 199.7 38.7 199.8 39.3 199.9C39.6 199.9 40 199.2 40.3 199.3V199.4Z" fill="#231F20"/>
<path d="M40.4 199.1C34.2 197.9 26.4 194.2 26 187C26 186.7 25.7 186.5 25.4 186.7L24.4 187.3C24.1 187.5 24.2 188 24.6 188C28 187.8 32.1 188.3 34.8 190.7C37.3 192.9 38.9 196.8 38.9 200.1C38.9 200.4 39.4 200.6 39.6 200.3C39.6 200.2 40.2 200.1 40.3 200C40.5 200 40.6 199.8 40.6 199.7C40.7 199.4 40.6 198.9 40.6 198.6C40.6 198.1 40.5 197.6 40.4 197.1C40 195.2 39.2 193.4 38.1 191.8C37.1 190.3 35.9 189.1 34.3 188.3C32.8 187.5 31.1 187.1 29.4 186.9C27.9 186.7 26 186.3 24.6 187.2C24.1 187.5 24.1 187.8 24.2 188.4C24.2 189.2 24.4 190 24.7 190.7C25.7 193.6 28 195.8 30.6 197.3C32.1 198.2 33.7 198.9 35.4 199.5C36.3 199.8 37.3 200.1 38.2 200.3C38.6 200.3 39 200.6 39.4 200.5C39.7 200.5 39.9 200 40.2 199.9C40.7 199.9 40.7 199.1 40.2 199.1C40 199.1 39.8 199.1 39.6 199.3C39.3 199.5 39.2 199.7 38.8 199.6C38 199.5 37.1 199.2 36.3 198.9C35 198.5 33.8 198 32.5 197.4C30.1 196.2 27.7 194.5 26.3 192.2C25.6 191.1 25.1 189.8 24.9 188.5C24.9 188.2 24.8 187.8 24.9 187.6C24.9 187.5 25.3 187.4 25.4 187.3C26.2 187 27.4 187.3 28.3 187.3C31.4 187.5 34.6 188.5 36.6 190.9C37.8 192.4 38.8 194.3 39.4 196.2C39.5 196.6 39.6 197 39.7 197.4C39.7 197.7 40 198.7 39.9 199.1C39.8 199.5 39.1 199.3 38.9 199.8L39.6 200C39.6 196.5 37.8 192.4 35.2 190.1C32.4 187.6 28.1 186.9 24.5 187.2L24.7 187.9L25.7 187.3L25.1 187C25.5 194.5 33.5 198.6 40.1 199.8C40.6 199.8 40.8 199.2 40.3 199.1H40.4Z" fill="#231F20"/>
<path d="M40.5 168C42.1 167.9 43.7 167.5 45.2 167.1C47.8 166.3 50.6 165.1 52.7 163.2C53.8 162.2 54.7 160.9 55.2 159.4C55.3 159 55.4 158.6 55.5 158.2C55.6 157.8 55.7 157.2 55.6 156.8C55.6 156.6 55.6 156.8 55.4 156.6C55.2 156.6 54.9 156.6 54.8 156.6C51.5 156.4 48.2 156.8 45.4 158.6C43.6 159.8 42.6 162.1 41.8 164C41.3 165.3 40.9 166.6 40.6 168C40.6 167.8 41.6 167.7 41.6 167.4C42.2 164.7 43.2 161.9 44.8 159.6C45.1 159.2 45.3 158.9 45.7 158.6C46.1 158.3 45.9 158.4 46.1 158.3C46.1 158.3 46.3 158.2 46.4 158.1C46.8 157.8 45.6 158.5 46.3 158.1C47.1 157.8 47.9 157.5 48.7 157.4C50.2 157.1 51.8 157 53.3 157.1C53.6 157.1 54.2 157.1 54.5 157.1C54.7 157.1 54.5 157.1 54.6 157.1C54.7 157.3 54.6 158.1 54.6 158.4C54.4 159.8 53.9 161.2 53 162.3C52.6 162.8 52.1 163.3 51.6 163.8C51.4 164 51.1 164.2 50.8 164.4C50.6 164.5 50.5 164.6 50.3 164.7C50.3 164.7 50.2 164.7 50.1 164.8C49.9 165 50.5 164.6 50.1 164.8C48.9 165.4 47.7 165.9 46.4 166.3C44.9 166.8 43.3 167.1 41.6 167.2C41.2 167.2 40.9 167.8 40.6 167.8L40.5 168Z" fill="#231F20"/>
<path d="M40.5 168.3C44.3 168 48.3 166.8 51.4 164.6C52.8 163.6 54.1 162.4 54.9 160.8C55.6 159.5 56.1 157.9 55.8 156.4C55.8 156.2 55.6 156.1 55.4 156.1C55.1 156.1 54.7 156.1 54.4 156.1C53.9 156.1 53.4 156.1 52.8 156.1C51.9 156.1 51 156.1 50.1 156.3C48.2 156.6 46.3 157.2 44.7 158.4C43.4 159.4 42.5 160.8 41.9 162.2C41.1 164 40.4 165.9 40 167.8C40 168.2 40.5 168.5 40.7 168.1C40.7 167.9 41.3 167.9 41.5 167.8C41.8 167.6 41.8 167.3 41.9 167C42.1 165.9 42.5 164.8 42.9 163.8C43.3 162.8 43.8 161.6 44.4 160.6C44.7 160 45.1 159.5 45.6 159C45.9 158.7 46.3 158.5 46.5 158.2C46.6 158 46.7 157.7 46.5 157.6C46.2 157.4 45.5 157.8 45.5 158.2C45.5 158.5 45.7 158.6 46 158.6C46.6 158.6 47.2 158.1 47.8 158C48.7 157.8 49.7 157.6 50.7 157.5C51.6 157.5 52.4 157.5 53.2 157.5C53.5 157.5 53.8 157.5 54.1 157.5C54.3 157.5 54.4 157.5 54.6 157.5L54.2 157.3C54.4 157.7 54.1 158.8 54 159.2C53.8 160 53.5 160.8 53 161.5C52.5 162.2 52 162.8 51.4 163.4C50.9 163.9 50.2 164.2 49.7 164.7C49.5 164.9 49.7 165.4 50 165.3C50.2 165.3 50.3 165.2 50.5 165.1C50.8 164.9 50.5 164.4 50.1 164.5C49.4 164.7 48.7 165.2 48 165.4C47.1 165.7 46.2 166 45.3 166.3C44.3 166.5 43.3 166.8 42.3 166.9C42 166.9 41.6 166.9 41.3 167C41 167.1 40.8 167.5 40.5 167.5C40 167.6 40.2 168.3 40.7 168.2C40.9 168.2 41.1 168 41.3 167.9C41.8 167.6 42.2 167.6 42.8 167.5C43.7 167.4 44.7 167.2 45.6 167C46.5 166.8 47.4 166.5 48.2 166.2C48.6 166.1 48.9 165.9 49.3 165.8C49.7 165.7 50.1 165.4 50.4 165.3L50 164.7L50.3 165.3C50.9 164.7 51.7 164.3 52.4 163.7C53.1 163.1 53.7 162.2 54.1 161.4C54.5 160.6 54.8 159.6 55 158.7C55 158.2 55.3 157.5 55 157C55 156.8 54.7 156.8 54.6 156.8C54.8 156.8 54.2 156.7 54.1 156.7C53.8 156.7 53.5 156.7 53.2 156.7C52.3 156.7 51.4 156.7 50.4 156.7C49.6 156.7 48.8 156.9 48 157.1C47.3 157.3 46.6 157.7 45.9 157.8L46.4 158.2C46.4 158.4 46.2 158.5 46.4 158.4C46.6 158.3 46.5 158.4 46.3 158.4V157.8C46 158.1 45.6 158.3 45.3 158.6C44.9 159 44.6 159.5 44.3 159.9C43.7 160.8 43.2 161.8 42.8 162.8C42.3 163.9 42 165 41.7 166.1C41.6 166.6 41.6 167.2 41 167.4C40.8 167.4 40.5 167.6 40.4 167.8L41.1 168.1C41.5 166.3 42.1 164.5 42.9 162.8C43.5 161.4 44.4 159.9 45.7 159C47.2 158 49 157.4 50.7 157.1C51.6 157 52.5 156.9 53.4 156.9C53.9 156.9 54.4 156.9 54.8 156.9C55.1 156.9 55.4 156.9 55.7 156.9L55.3 156.6C55.5 158 54.9 159.7 54.2 160.8C53.3 162.3 52 163.4 50.6 164.3C47.7 166.1 44.1 167.2 40.7 167.5C40.2 167.5 40.2 168.3 40.7 168.3H40.5Z" fill="#231F20"/>
<path d="M41.9 164.2C40.4 163.4 38.9 162.8 37.4 162.2C34.6 161.1 31.6 160.2 28.6 160.1C27.2 160.1 25.8 160.3 24.5 161L23.6 161.5C24.1 163.6 25.4 165.6 27.2 166.8C30.7 169.1 35.7 167.6 39.1 165.8C40 165.3 41 164.8 41.9 164.1C41.6 164.3 41.2 164.5 40.9 164.7C40.7 164.9 40.5 165 40.3 165.1C40.3 165.1 39.7 165.4 40.1 165.2C40.5 165 39.9 165.2 39.8 165.3C39.4 165.5 38.9 165.7 38.4 165.9C36.5 166.7 34.5 167.2 32.5 167.2C29.3 167.2 26.8 165.5 25.4 162.7C25.1 162.1 24.8 161.4 24.7 160.8L23.8 161.3C26.2 160 29.4 160.6 31.9 161.2C34.5 161.8 36.9 162.8 39.4 163.9C39.9 164.1 40.4 164.4 40.9 164.6C41.1 164.6 41.8 163.9 41.9 164V164.2Z" fill="#231F20"/>
<path d="M42.1 163.8C39.1 162.2 35.7 160.9 32.4 160.2C29.6 159.6 26.7 159.4 24.1 160.8C23.9 160.9 23.5 161.1 23.3 161.3C23.1 161.7 23.5 162.5 23.7 162.9C24.2 164.2 25 165.3 25.9 166.2C27.8 168 30.4 168.5 33 168.2C36.2 167.8 39.4 166.3 42 164.4C42.4 164.1 42 163.5 41.6 163.7C41 164.1 40.1 164.4 39.5 165C39.2 165.3 39.5 165.8 40 165.6C40.1 165.6 40.2 165.6 40.3 165.4C40.6 165.1 40.3 164.6 39.8 164.8C37.1 166.2 33.8 167.4 30.6 166.7C27.4 166 25.6 163.6 24.8 160.7C24.8 160.5 24.4 160.4 24.3 160.5L23.4 161C23 161.2 23.4 161.9 23.8 161.7C26.8 160.1 30.7 161.3 33.8 162.2C35.6 162.8 37.4 163.5 39.2 164.3C39.7 164.5 40.3 165.1 40.9 165C41.2 165 41.5 164.4 41.8 164.4C42.3 164.4 42.3 163.7 41.8 163.6C41.4 163.6 41.2 164 40.9 164.1C40.7 164.1 40.1 163.8 39.8 163.6C39.3 163.4 38.9 163.2 38.4 163C36.6 162.2 34.8 161.5 33 161C30 160.2 26.5 159.4 23.6 160.9L24 161.6L24.9 161.1L24.4 160.9C25.2 163.9 27.3 166.6 30.4 167.4C33.8 168.2 37.4 167 40.4 165.4L39.9 164.8C39.9 164.8 39.8 164.8 39.7 164.8L40.2 165.4C40.7 164.9 41.5 164.6 42.1 164.2L41.7 163.5C38.9 165.5 35.3 167.2 31.8 167.3C27.9 167.4 24.9 164.8 24 161.1V161.5C24 161.3 24.6 161.1 24.8 161C25.6 160.6 26.4 160.3 27.3 160.3C28.9 160.1 30.5 160.3 32.1 160.7C35.4 161.4 38.6 162.7 41.6 164.2C42 164.4 42.4 163.8 42 163.5L42.1 163.8Z" fill="#231F20"/>
<path d="M36.5 149.3C35.9 150.2 35.1 151 34.2 151.7C34 151.9 33.8 152 33.6 152.1C33.5 152.1 33.3 152.3 33.2 152.4C32.8 152.7 33.6 152.2 33.2 152.4C32.6 152.6 32.1 152.9 31.5 153.1C30.2 153.5 28.9 153.6 27.6 153.4C26.8 153.4 26.1 153.1 25.3 152.9C25.1 152.9 24 152.5 23.9 152.3C23.9 152.1 24.1 151.8 24.2 151.7C24.5 151.3 24.8 150.9 25.2 150.6C25.5 150.4 25.8 150.1 26.1 149.9C26.5 149.6 25.6 150.1 25.7 150.1C25.8 150.1 25.9 150 26.1 149.9C26.3 149.9 26.5 149.7 26.8 149.6C29.9 148.5 33.4 148.8 36.5 149.4C36.8 149.4 37.2 148.7 37.5 148.8C34.3 148.2 30.8 147.8 27.7 149C26.2 149.6 24.6 150.5 23.6 151.8C23.4 152 23 152.5 23 152.8C23 153 23 152.9 23.4 153.1C24.3 153.5 25.1 153.8 26 153.9C28.9 154.4 31.5 153.6 33.9 152.1C35.3 151.3 36.6 150.2 37.5 148.8C37.3 149.1 36.7 149.1 36.5 149.4V149.3Z" fill="#231F20"/>
<path d="M36.1 149.1C35.6 149.8 35 150.4 34.4 151C33.9 151.4 33.3 151.8 32.8 152.2C32.6 152.4 32.8 152.9 33.1 152.8C33.3 152.8 33.5 152.7 33.6 152.5C33.8 152.3 33.6 151.9 33.3 151.9C32.9 151.9 32.4 152.2 32.1 152.4C31.5 152.6 30.9 152.8 30.3 152.9C29 153.1 27.7 153.1 26.4 152.7C26 152.6 25.5 152.5 25.1 152.3C24.9 152.3 24.7 152.2 24.5 152.1C24.4 152.1 24.2 151.9 24.2 152.1C24.2 152.1 24.4 151.8 24.4 151.7C24.6 151.4 24.8 151.1 25.1 150.8C25.4 150.5 25.9 150.3 26.2 149.9C26.4 149.6 26.2 149.2 25.8 149.3C25.6 149.3 25.3 149.5 25.2 149.7C25 149.9 25.2 150.4 25.5 150.3C25.9 150.3 26.3 150 26.6 149.8C27.2 149.6 27.7 149.4 28.3 149.3C29.4 149.1 30.6 149 31.8 149.1C33 149.2 34.2 149.3 35.3 149.5C35.7 149.5 36.1 149.7 36.4 149.5C36.6 149.5 36.9 149 37.1 149C37.5 149 37.6 148.3 37.2 148.3C32.6 147.4 27.3 147.2 23.6 150.6C23.1 151.1 22.2 151.9 22.2 152.6C22.2 152.9 22.3 153 22.5 153.1C23 153.4 23.6 153.5 24.1 153.7C26.4 154.4 28.9 154.3 31.1 153.4C33.5 152.4 35.8 150.9 37.3 148.7C37.5 148.4 37 147.9 36.7 148.2C36.4 148.5 36 148.5 35.7 148.8C35.4 149.1 35.9 149.7 36.2 149.3C36.5 149 36.9 149 37.2 148.7L36.6 148.2C35.1 150.4 32.6 152 30.1 152.8C28.9 153.2 27.6 153.4 26.4 153.3C25.7 153.3 25 153.1 24.3 152.9C24 152.9 23.7 152.7 23.3 152.6C23.1 152.6 23 152.5 22.8 152.4C22.6 152.4 22.6 152.4 22.7 152.4L23.1 151.9C23.3 151.7 23.4 151.5 23.6 151.3C24.1 150.8 24.6 150.4 25.1 150.1C26.1 149.5 27.3 149 28.5 148.7C31.2 148.1 34 148.4 36.7 148.9V148.2C36.5 148.2 36.3 148.4 36.1 148.5C35.9 148.7 35.8 148.7 35.5 148.7C35.2 148.7 34.9 148.6 34.6 148.5C33.5 148.3 32.4 148.2 31.3 148.2C30.2 148.2 29.1 148.2 28 148.4C27.4 148.5 26.8 148.6 26.2 148.9C26 148.9 25.7 149.1 25.5 149.2C25.4 149.2 25.1 149.4 25 149.5L25.3 150.1L25.6 149.9L25.2 149.3C24.8 149.8 24.2 150.1 23.7 150.6C23.4 150.9 23 151.4 22.9 151.8C22.7 152.6 23.8 152.8 24.4 153C25.7 153.4 27.1 153.7 28.5 153.7C29.2 153.7 29.9 153.6 30.6 153.4C31 153.4 31.4 153.2 31.7 153C31.9 153 32.4 152.6 32.7 152.6C33.2 152.1 33.9 151.8 34.5 151.3C35.1 150.7 35.7 150.1 36.2 149.4C36.5 149 35.8 148.6 35.6 149L36.1 149.1Z" fill="#231F20"/>
<path d="M41.6 139.3C43.2 138.8 44.8 137.9 46.3 137.1C49 135.5 51.6 133.4 52.9 130.5C53.3 129.7 53.5 128.9 53.7 128C53.7 127.5 53.8 127.1 53.8 126.6C53.8 126.4 53.9 125.4 53.8 125.3C53.7 125.2 53 125.3 52.8 125.3C50.9 125.5 49 126.6 47.5 127.7C44 130.4 42.4 135 41.6 139.2C41.6 139 42.6 138.9 42.6 138.6C43.3 135 44.5 131.2 47.1 128.4C47.5 127.9 48 127.5 48.5 127.1C48.7 126.9 49 126.8 49.2 126.6C49.6 126.3 48.9 126.8 49 126.7C49.1 126.7 49.3 126.6 49.4 126.5C50.1 126.2 50.8 126 51.5 125.8C51.8 125.8 52.4 125.6 52.7 125.8C52.9 125.8 52.8 126.4 52.8 126.6C52.8 127.4 52.7 128.3 52.5 129.1C51.8 132 49.7 134.4 47.3 136.2C47 136.4 46.6 136.7 46.3 136.9C46.3 136.9 45.7 137.3 46 137.1C46.3 136.9 45.8 137.2 45.7 137.3C45.2 137.6 44.7 137.8 44.1 138.1C43.6 138.3 43.1 138.5 42.7 138.7C42.3 138.8 42 139.2 41.7 139.3H41.6Z" fill="#231F20"/>
<path d="M41.7 139.7C44.5 138.8 47.3 137.1 49.6 135.2C51.9 133.3 53.6 130.8 54.1 127.9C54.1 127.3 54.2 126.8 54.3 126.2C54.3 125.9 54.4 125.3 54.1 125.1C53.8 124.9 53.3 124.9 53 125.1C52.3 125.2 51.6 125.3 50.9 125.6C48.3 126.5 46 128.4 44.5 130.6C42.7 133.2 41.8 136.3 41.2 139.3C41.2 139.7 41.7 140 41.9 139.6C42 139.4 42.6 139.4 42.8 139.1C43.1 138.7 43.1 138 43.2 137.5C43.5 136.1 43.9 134.7 44.5 133.4C45.1 132.1 45.7 130.8 46.6 129.6C47 129 47.5 128.5 48.1 128C48.6 127.6 49.1 127.3 49.6 126.9C49.9 126.7 49.6 126.1 49.2 126.3C49 126.3 48.7 126.5 48.6 126.7C48.5 127 48.6 127.4 49 127.2C49.7 126.9 50.3 126.6 51.1 126.4C51.4 126.4 51.7 126.3 52 126.2C52.4 126.2 52.5 126.2 52.4 126.5C52.4 128.2 52.1 129.7 51.3 131.2C50.6 132.5 49.7 133.6 48.6 134.6C48 135.1 47.4 135.6 46.8 136.1C46.4 136.3 45.9 136.6 45.6 136.9C45.3 137.2 45.6 137.7 46.1 137.5H46.2C46.3 137.5 46.4 137.2 46.4 137.1C46.4 136.9 46.1 136.8 45.9 136.9C45.3 137.2 44.6 137.6 44 137.9C43.5 138.1 43 138.3 42.6 138.5C42.2 138.7 41.9 138.9 41.6 139.1C41.2 139.3 41.6 139.9 42 139.8C42.4 139.7 42.8 139.3 43.2 139.2C43.6 139.1 44.1 138.9 44.5 138.7C45.2 138.4 45.8 138.1 46.4 137.7L45.9 137.5C45.9 137.4 46 137.2 46.1 137.1H46L46.5 137.7C46.5 137.7 46.9 137.5 47 137.4C47.4 137.1 47.8 136.8 48.2 136.5C48.9 136 49.5 135.4 50.1 134.8C51.3 133.6 52.2 132.1 52.8 130.5C53.1 129.7 53.3 128.7 53.4 127.8C53.4 127.3 53.7 126.2 53.3 125.8C52.9 125.4 52.2 125.6 51.8 125.8C50.8 126 50 126.4 49.1 126.7L49.5 127.2C49.5 127.4 49.5 127.2 49.6 127.2L49.2 126.6C48.7 127 48.2 127.3 47.7 127.7C47.2 128.2 46.7 128.7 46.3 129.2C45.4 130.3 44.7 131.5 44.2 132.8C43.7 134.1 43.2 135.4 42.9 136.7C42.9 137 42.7 137.4 42.7 137.7C42.7 137.9 42.7 138.5 42.5 138.7C42.2 139 41.7 138.8 41.5 139.2L42.2 139.5C43.2 134.7 45 129.8 49.4 127.2C50.6 126.5 51.8 126 53.2 125.8C53.4 125.8 53.6 125.8 53.8 125.8C53.8 125.6 54 125.8 53.8 125.8V126.1C53.8 126.6 53.8 127 53.7 127.5C53.4 130.3 51.8 132.7 49.7 134.6C48.7 135.5 47.5 136.3 46.3 137C44.9 137.8 43.4 138.6 41.8 139.2C41.3 139.4 41.5 140.1 42 139.9L41.7 139.7Z" fill="#231F20"/>
<path d="M31.6 139.9C33.5 135.7 33.7 130.3 31.6 126.2C31.6 126.2 30.6 126.7 30.6 126.8C29.7 127.8 29.2 129.2 28.8 130.5C27.9 134 28.9 137.5 30.6 140.6L31.6 140C30 136.9 29 133.4 29.8 129.9C30.1 128.6 30.7 127.2 31.6 126.2L30.6 126.8C32.7 130.9 32.5 136.3 30.6 140.5C30.7 140.2 31.5 140.2 31.6 139.9Z" fill="#231F20"/>
<path d="M32 140.1C34 135.7 34.2 130.4 32 126C31.9 125.8 31.6 125.8 31.4 126C31.2 126.2 30.8 126.3 30.5 126.5C30.1 126.8 29.8 127.3 29.5 127.8C28.8 129 28.4 130.4 28.2 131.8C27.8 134.9 28.8 138 30.2 140.8C30.2 141 30.5 141 30.7 140.9C31.1 140.7 31.5 140.5 31.8 140.2C31.9 140.1 31.9 139.9 31.8 139.7C30.7 137.6 29.9 135.3 29.8 132.9C29.8 130.7 30.3 128.2 31.8 126.5C32.1 126.2 31.8 125.7 31.3 125.9L30.3 126.5C30.1 126.6 30.1 126.8 30.2 127C32.3 131.1 32.1 136.2 30.2 140.3C30 140.7 30.6 141.1 30.8 140.7C30.8 140.6 31.3 140.5 31.4 140.5C31.6 140.5 31.7 140.3 31.8 140.1C32.1 139.7 31.4 139.3 31.2 139.7C31.1 139.8 30.7 139.9 30.6 139.9C30.4 139.9 30.3 140.1 30.2 140.2L30.8 140.6C32.8 136.2 33 130.9 30.8 126.5V127C30.7 127 31.7 126.4 31.7 126.4L31.2 125.8C27.8 129.8 28.9 135.7 31.2 140V139.5C31.1 139.7 30.6 139.9 30.3 140H30.8C29.4 137.6 28.5 134.7 28.8 131.8C28.9 130.5 29.3 129.1 30 127.9C30.3 127.4 30.5 127 31 126.7C31.2 126.6 31.5 126.4 31.8 126.3H31.2C33.3 130.3 33.1 135.4 31.2 139.6C31 140 31.7 140.4 31.8 140L32 140.1Z" fill="#231F20"/>
<path d="M28.5 136C26.9 135.9 25.2 136 23.6 136C20.9 136.2 18.5 136.9 16.1 138.3C15.6 138.6 15.2 138.9 14.8 139.3C14.7 139.5 14 140.1 14.1 140.3C14.1 140.3 14.4 140.5 14.5 140.5C14.8 140.7 15.1 140.8 15.3 140.9C17.2 141.8 19.3 142.3 21.4 141.9C24.7 141.3 27.2 138.7 28.4 135.8C28.3 136.1 27.5 136.1 27.4 136.4C26.8 137.8 25.9 139.2 24.8 140.3C24.6 140.5 24.3 140.7 24 140.9C23.7 141.1 24.3 140.7 24.3 140.7C24.3 140.7 24.1 140.7 24.1 140.8C24 140.8 23.8 140.9 23.6 141C23.1 141.2 22.6 141.3 22 141.4C20.2 141.6 18.3 141.2 16.6 140.5C16.2 140.3 15.6 140.1 15.2 139.8C15 139.6 15 139.8 15.2 139.6C15.3 139.2 15.9 138.7 16.2 138.4C16.4 138.2 16.7 138.1 16.9 137.9C17.1 137.7 16.5 138.1 16.5 138.1C16.5 138.1 16.7 138.1 16.7 138C16.9 138 17 137.8 17.2 137.8C17.8 137.6 18.3 137.4 18.9 137.2C20.1 136.9 21.3 136.7 22.5 136.6C24.1 136.4 25.7 136.4 27.4 136.6C27.7 136.6 28.1 136 28.4 136H28.5Z" fill="#231F20"/>
<path d="M28.5 135.6C25.8 135.4 23 135.6 20.3 136.2C18.2 136.7 15.7 137.7 14.3 139.4C13.9 139.9 13.5 140.5 14.3 140.9C15.3 141.4 16.4 141.9 17.5 142.2C19.8 142.8 22.2 142.6 24.3 141.5C26.4 140.4 28 138.3 28.9 136.2C29.1 135.8 28.5 135.4 28.3 135.8C28.1 136 27.6 136 27.3 136.3C26.9 136.8 26.7 137.5 26.4 138.1C26 138.7 25.6 139.3 25.1 139.8C24.8 140.1 24.5 140.3 24.2 140.6C24.1 140.7 23.9 140.8 23.8 141C23.6 141.3 24 141.7 24.3 141.5C24.4 141.5 24.6 141.3 24.7 141.3C25.1 141.1 24.7 140.5 24.3 140.6C21.3 141.9 18.2 141.2 15.5 139.6L15.7 140C15.9 139.2 16.8 138.8 17.4 138.2C17.7 137.9 17.4 137.5 17 137.6C16.8 137.6 16.6 137.8 16.4 138C16 138.3 16.5 138.8 16.9 138.6C18.9 137.7 21.1 137.3 23.3 137.1C24.4 137.1 25.5 137 26.5 137.1C26.9 137.1 27.4 137.2 27.8 137.1C28.2 137 28.4 136.6 28.7 136.5C29.2 136.5 29 135.7 28.5 135.8C28.1 135.8 28 136.2 27.6 136.3C27.1 136.5 26.4 136.3 25.9 136.3C24.7 136.3 23.6 136.3 22.4 136.5C20.3 136.7 18.3 137.2 16.4 138L16.9 138.6C16.9 138.6 17.1 138.4 17.2 138.4L16.8 137.8C16.1 138.4 15.1 138.9 14.9 139.9C14.9 140.1 14.9 140.2 15.1 140.3C16.5 141.1 18 141.8 19.6 142C21.4 142.3 23 142 24.7 141.3L24.3 140.6C24.2 140.6 24 140.8 23.9 140.8L24.4 141.3C24.5 141.1 24.9 140.9 25.1 140.8C25.4 140.6 25.6 140.3 25.9 140C26.3 139.5 26.7 139 27.1 138.4C27.3 138.1 27.4 137.9 27.6 137.6C27.8 137.3 27.8 136.9 28 136.7C28.3 136.4 28.7 136.5 29 136.1L28.4 135.7C26.8 139.3 23.5 142.1 19.4 141.7C18.3 141.7 17.2 141.3 16.2 140.9C15.7 140.7 15.3 140.5 14.8 140.2C14.6 140.2 14.6 140.2 14.8 140.2C14.9 140 15 139.9 15.2 139.8C16.6 138.3 18.9 137.4 20.8 136.9C23.3 136.3 26.1 136.1 28.7 136.3C29.2 136.3 29.2 135.6 28.7 135.5L28.5 135.6Z" fill="#231F20"/>
<path d="M18.9 129.8C19.7 128.4 20.2 126.8 20.7 125.3C21.4 122.6 21.8 119.5 20.4 116.9C20.1 116.4 20.1 116.4 19.7 116.6C19.1 116.9 18.6 117.2 18.1 117.6C16.9 118.4 16.1 119.7 15.7 121.1C14.9 124.3 16.4 127.7 18 130.4L19 129.8C16.9 126.3 14.9 120.9 18.4 117.6C18.6 117.4 18.8 117.3 19 117.1C19.1 117.1 19.2 116.9 19.3 116.9C19.8 116.6 18.4 117.4 18.8 117.2C18.8 117.2 19 117.1 19.1 117.1C19.3 117.1 19.5 117.6 19.6 117.8C20.8 120.2 20.5 123.1 19.9 125.6C19.5 127.3 18.9 129 18 130.5C18.2 130.2 18.9 130.2 19 129.9L18.9 129.8Z" fill="#231F20"/>
<path d="M19.2 130C20.3 127.9 21.1 125.6 21.4 123.3C21.7 121.2 21.7 119 20.8 117.1C20.5 116.5 20.3 115.9 19.6 116.1C18.7 116.5 17.7 117.1 17 117.8C15.5 119.2 14.8 121.3 14.9 123.3C15 125.9 16.2 128.3 17.5 130.6C17.6 130.8 17.8 130.8 18 130.7C18.4 130.5 18.7 130.3 19 130.1C19.2 130 19.2 129.8 19.1 129.6C17.9 127.6 16.9 125.3 16.7 122.9C16.7 121.7 16.7 120.6 17.2 119.5C17.5 118.9 17.9 118.4 18.3 117.9C18.6 117.6 19.2 117.3 19.4 116.9C19.6 116.7 19.4 116.3 19.1 116.3C18.8 116.3 18.4 116.6 18.2 116.8C18.1 116.9 18.1 117.2 18.2 117.3C18.3 117.3 18.4 117.4 18.6 117.3C18.9 117.3 18.9 117.5 19.1 117.8C19.4 118.4 19.6 119 19.7 119.6C19.9 120.7 19.9 121.9 19.7 123C19.4 125.4 18.6 127.8 17.5 130C17.3 130.4 17.8 130.8 18.1 130.5C18.3 130.2 18.9 130.2 19.1 129.9C19.4 129.5 18.9 129 18.6 129.4C18.4 129.7 17.8 129.7 17.6 130L18.2 130.5C19.5 128 20.5 125.1 20.6 122.2C20.6 120.9 20.6 119.5 20.1 118.2C19.9 117.7 19.7 117.1 19.4 116.8C19.1 116.5 18.9 116.7 18.5 116.8H18.9V117.4L19.1 117.3C19.1 117.3 19.5 117.1 19.3 117.2L19 116.6C19 116.6 18.6 116.9 18.4 117C18.1 117.2 17.8 117.5 17.6 117.8C17.2 118.3 16.8 118.8 16.6 119.4C16.1 120.5 16 121.7 16.1 122.9C16.3 125.4 17.4 127.9 18.6 130V129.5C18.4 129.7 18.1 129.9 17.7 130.1H18.2C17 128.1 15.8 125.7 15.7 123.2C15.6 120.7 16.8 118.6 19.1 117.3C19.3 117.2 19.7 117.1 19.8 116.9C20 116.9 20 116.9 19.8 116.8C19.8 116.8 19.9 117 20 117.1C20.3 117.6 20.5 118.2 20.6 118.8C20.9 120 20.9 121.1 20.8 122.3C20.6 124.8 19.7 127.4 18.5 129.6C18.3 130 18.9 130.4 19.1 130H19.2Z" fill="#231F20"/>
<path d="M14.1 128.9C13.6 129.7 12.9 130.4 12.2 130.9C11.8 131.2 11.5 131.4 11.1 131.7C10.8 131.9 11.7 131.4 11.3 131.6C11.2 131.6 11 131.7 10.9 131.8C10.7 131.9 10.4 132 10.2 132.1C9.10001 132.5 7.90001 132.7 6.70001 132.6C6.00001 132.6 5.30001 132.5 4.70001 132.3C4.50001 132.3 3.39999 132.1 3.39999 131.9C3.39999 131.8 3.70001 131.4 3.70001 131.2C4.00001 130.8 4.30001 130.4 4.60001 130C4.80001 129.8 5.09999 129.5 5.39999 129.3C5.59999 129.2 5.69999 129.1 5.89999 129C6.29999 128.7 5.40001 129.3 5.60001 129.2C5.70001 129.2 5.9 129.1 6 129C8.6 127.8 11.5 128.1 14.2 128.7C14.2 128.7 14.6 128.5 14.7 128.4C14.8 128.3 15.1 128.1 15.2 128.1C12.5 127.5 9.49999 127.2 6.89999 128.4C5.39999 129.1 4 130 3 131.3C2.8 131.5 2.39999 132 2.39999 132.3C2.39999 132.5 2.39999 132.5 2.79999 132.6C3.59999 132.8 4.39999 133 5.29999 133.1C7.79999 133.3 10.1 132.4 12.2 131.1C13.4 130.4 14.5 129.4 15.3 128.2C15.1 128.5 14.5 128.5 14.3 128.8L14.1 128.9Z" fill="#231F20"/>
<path d="M13.8 128.7C13.4 129.3 12.9 129.9 12.3 130.4C11.8 130.8 11.2 131.1 10.8 131.6C10.6 131.8 10.8 132.3 11.1 132.2C11.3 132.2 11.7 132 11.8 131.8C11.9 131.5 11.8 131.2 11.4 131.3C11 131.3 10.6 131.7 10.2 131.8C9.70001 132 9.10001 132.1 8.60001 132.2C7.40001 132.4 6.09999 132.3 4.89999 132.1C4.59999 132.1 4.40001 132.1 4.10001 131.9H3.89999C3.69999 131.9 3.79999 131.9 3.89999 131.9C3.99999 131.9 4.10001 131.5 4.20001 131.4C4.80001 130.5 5.49999 130 6.29999 129.4C6.49999 129.2 6.39999 128.9 6.29999 128.8C5.99999 128.6 5.49999 129 5.29999 129.2C5.09999 129.5 5.40001 129.8 5.70001 129.7C6.10001 129.6 6.49999 129.3 6.89999 129.2C7.29999 129.1 7.70001 129 8.20001 128.9C9.20001 128.7 10.3 128.7 11.3 128.8C11.8 128.8 12.3 128.9 12.8 129C13.2 129 13.7 129.3 14.1 129.3C14.6 129.3 14.8 128.8 15.3 128.7C15.7 128.7 15.7 128.1 15.3 128C13.2 127.5 11 127.3 8.79999 127.7C6.79999 128.1 4.79999 129.1 3.39999 130.6C2.89999 131.1 2.1 131.9 2 132.6C2 132.8 1.99999 133 2.29999 133.1C2.69999 133.3 3.29999 133.4 3.79999 133.5C5.89999 133.9 8 133.7 10 132.8C12.1 131.9 14.2 130.5 15.5 128.5C15.7 128.2 15.2 127.7 14.9 128C14.6 128.3 14.1 128.3 13.9 128.6C13.6 129 14.1 129.5 14.4 129.1C14.7 128.8 15.2 128.8 15.4 128.5L14.8 128C13.5 129.9 11.4 131.3 9.29999 132.1C8.19999 132.5 6.99999 132.8 5.89999 132.8C4.79999 132.8 4.6 132.8 4 132.6C3.7 132.6 3.40001 132.5 3.10001 132.4C3.00001 132.4 2.80001 132.4 2.70001 132.3C2.56668 132.3 2.56668 132.3 2.70001 132.3C2.80001 132.3 2.89999 132.3 2.89999 132.2C2.89999 132.2 3.00001 132 3.10001 131.9C3.30001 131.7 3.40001 131.5 3.60001 131.2C4.00001 130.8 4.39999 130.4 4.89999 130C5.79999 129.4 6.79999 128.8 7.89999 128.5C10.2 127.7 12.7 128 15.1 128.5V127.8C14.9 127.8 14.7 128 14.5 128.1C14.5 128.1 14.3 128.2 14.2 128.3C14 128.3 13.8 128.3 13.6 128.3C12.7 128.1 11.8 128 10.9 127.9C9.99999 127.8 9.10001 127.9 8.20001 128C7.70001 128 7.20001 128.2 6.70001 128.4C6.30001 128.5 5.9 128.8 5.5 128.9L5.89999 129.4C5.69999 129.6 5.9 129.4 6 129.4C6 129.4 6.10001 129.4 6.20001 129.3H5.79999C5.79999 129.1 5.79999 128.9 5.79999 128.7C5.39999 129.1 4.9 129.4 4.5 129.8C4.1 130.2 3.69999 130.7 3.39999 131.2C3.19999 131.5 3.00001 131.8 3.20001 132.1C3.40001 132.4 3.90001 132.5 4.20001 132.5C5.40001 132.8 6.59999 132.9 7.79999 132.9C8.49999 132.9 9.3 132.7 10 132.5C10.6 132.3 11.1 132 11.7 131.8L11.3 131.3C11.3 131.1 11.4 131.3 11.3 131.3C11.1 131.3 11.2 131.3 11.3 131.3L11.6 131.9C11.8 131.7 12.2 131.5 12.4 131.3C12.7 131.1 13 130.8 13.2 130.6C13.7 130.1 14.2 129.5 14.7 128.9C15 128.5 14.3 128.1 14.1 128.5L13.8 128.7Z" fill="#231F20"/>
<path d="M7.99999 123.1C8.79999 119.6 8.59998 115.4 6.79998 112.3C5.99998 110.9 4.79998 109.8 3.29998 109.1C3.29998 109.1 2.29998 109.6 2.29998 109.7C0.899982 113.1 0.500006 117.6 2.70001 120.7C3.70001 122.2 5.29999 123.1 6.99999 123.7C7.19999 123.7 7.79999 123 7.99999 123.1C5.09999 122.1 2.99999 120 2.39999 117C1.99999 114.8 2.19998 112.6 2.79998 110.5C2.89998 110 3.09998 109.5 3.29998 109.1L2.29998 109.7C6.89998 112.1 7.80001 117.7 7.20001 122.4C7.20001 122.9 7.09999 123.3 6.99999 123.7C6.99999 123.4 7.99999 123.4 7.99999 123.1Z" fill="#231F20"/>
<path d="M8.3 123.2C9.4 118.2 8.7 111.7 3.8 108.9C3.4 108.7 3.30001 108.6 2.90001 108.9C2.60001 109 2.20001 109.2 2.00001 109.5C1.70001 109.9 1.60001 110.5 1.40001 111C1.20001 111.7 1.00001 112.4 0.900008 113C0.500008 115.5 0.600008 118.2 1.90001 120.4C2.60001 121.6 3.60001 122.6 4.90001 123.3C5.40001 123.6 6.30001 124.1 6.90001 124.2C7.10001 124.2 7.20001 124.2 7.40001 124.1C7.60001 124 7.80001 123.6 8.00001 123.6C8.40001 123.6 8.50002 123 8.10002 122.9C5.80002 122.1 3.90002 120.4 3.10002 118.1C2.10002 115.3 2.70003 112 3.70003 109.3C3.80003 109 3.40003 108.7 3.20003 108.9L2.20003 109.5C2.00003 109.6 2.00003 110 2.20003 110.2C7.00003 112.8 7.70003 119 6.70003 123.8C6.70003 124.2 7.20001 124.5 7.40001 124.1C7.50001 123.8 8.20001 123.9 8.40001 123.5C8.60001 123.1 8 122.7 7.8 123.1C7.6 123.4 7 123.3 6.8 123.7L7.50001 124C8.60001 118.8 7.70003 112.3 2.70003 109.5V110.2L3.70003 109.6L3.20003 109.2C2.10003 112.1 1.50003 115.8 2.70003 118.8C3.70003 121.2 5.70002 122.9 8.10002 123.8V123.1C7.90002 123.1 7.70001 123.3 7.50001 123.4C7.00001 123.8 6.50001 123.4 6.00001 123.2C5.00001 122.7 4.10001 122 3.40001 121.2C1.90001 119.4 1.6 116.9 1.8 114.7C1.8 113.6 2.10001 112.5 2.40001 111.4C2.50001 111.1 2.6 110.5 2.8 110.3C2.9 110.3 3.10003 110.1 3.20003 110.1C3.50003 109.9 3.40002 110 3.60002 110.1C4.10002 110.3 4.60001 110.8 5.00001 111.1C5.50001 111.5 5.90003 112 6.20003 112.5C6.90003 113.5 7.40003 114.6 7.70003 115.7C8.40003 118.3 8.30003 121 7.70003 123.6C7.60003 124.1 8.30001 124.3 8.40001 123.8L8.3 123.2Z" fill="#231F20"/>
<path d="M37 51C37 49.5 37.3 48 37.6 46.5C38.2 43.9 39.1 41.2 41 39.3C41.2 39.1 41.5 38.8 41.7 38.6C41.8 38.6 42 38.4 42.1 38.3C31.5 46.8 41.5 38.3 41.6 38.6C41.6 38.8 41.9 38.9 42 39.1C42.6 39.9 43.1 40.9 43.4 41.9C43.9 43.5 43.9 45.2 43.5 46.8C43.1 48.5 42.5 50.4 41.1 51.6C41.1 51.6 41 51.6 40.9 51.8C40.7 52 41.1 51.6 41.2 51.6C41.1 51.6 40.9 51.7 40.7 51.8C40.4 51.8 40.1 51.9 39.8 52C39.3 52 38.8 52 38.3 51.8C37.8 51.6 37.2 51.4 36.8 51.1C36.7 51.1 35.9 51.8 35.8 51.7C36.3 52.1 37 52.4 37.7 52.5C39.1 52.8 40.2 52.3 41.4 51.6C43.2 50.6 44 48.5 44.5 46.6C45 44.7 44.9 42.4 44.1 40.5C43.7 39.6 43.2 38.7 42.5 38.1C41.5 38.6 40.5 39.2 39.7 40.1C38.8 41.1 38.1 42.2 37.6 43.4C36.7 45.5 36.2 47.9 35.9 50.2C35.9 50.7 35.8 51.2 35.8 51.7C35.8 51.5 36.8 51.3 36.8 51.1L37 51Z" fill="#231F20"/>
<path d="M37.4 51C37.5 48.7 38 46.3 38.7 44.2C39.4 42.1 40.5 40 42.4 38.7L41.9 38.1C40.7 39.1 39.5 40 38.2 41C37.9 41.2 37.7 41.4 37.4 41.6C37.4 41.6 37.2 41.6 37.2 41.8C37.2 41.9 36.9 41.8 37.4 41.8L37.7 42.2C37.7 42.4 37.5 42.4 37.7 42.4L37.9 42.2C38.1 42 38.4 41.8 38.6 41.6C39.2 41.1 39.9 40.6 40.5 40.1C40.8 39.9 41 39.7 41.3 39.5L41.8 39.2C41.8 39.4 41.3 38.9 41.5 39.2C41.5 39.4 41.9 39.6 42 39.7C42.3 40.1 42.6 40.6 42.9 41.1C43.5 42.3 43.7 43.7 43.7 45C43.7 46.3 43.4 47.6 42.9 48.8C42.7 49.4 42.4 50 42 50.5C41.7 51 41.2 51.3 40.9 51.7C40.8 51.9 40.8 52.1 40.9 52.2C41 52.3 41.2 52.4 41.4 52.2C41.6 52 41.6 52 41.7 52C42.1 51.8 42 51.2 41.5 51.3C40.9 51.5 40.4 51.6 39.8 51.6C39.1 51.6 38.4 51.3 37.8 50.9C37.5 50.7 37.3 50.6 37 50.7C36.8 50.7 36.4 51.2 36.3 51.2C35.9 51.2 35.8 51.7 36.1 51.9C37.6 52.9 39.4 53.1 41.1 52.3C42.8 51.5 43.9 50.3 44.6 48.6C46.1 45.1 46.1 40.5 43.2 37.7C43.1 37.6 42.9 37.6 42.7 37.7C40.3 38.9 38.7 40.7 37.7 43.2C36.6 45.8 36 48.7 35.9 51.6C35.9 52 36.4 52.1 36.6 51.8C36.6 51.7 37.1 51.6 37.2 51.5C37.4 51.5 37.5 51.3 37.6 51.2C37.8 50.8 37.1 50.4 37 50.8C36.9 51.1 36.1 51 36 51.4L36.7 51.6C36.8 49 37.3 46.3 38.3 43.9C39.3 41.5 40.8 39.5 43.2 38.4H42.7C45.2 40.8 45.3 44.9 44.1 48C42.9 51.1 39.6 53.3 36.5 51.3L36.3 52C36.6 52 36.8 51.8 37.1 51.6C37.3 51.4 37.3 51.4 37.5 51.6C37.8 51.7 38.1 51.9 38.4 52C39 52.2 39.6 52.4 40.2 52.4C40.8 52.4 41.3 52.2 41.9 52.1L41.7 51.4C41.5 51.4 41.4 51.6 41.2 51.7H41.7V52.3C42 52 42.4 51.7 42.7 51.3C43.1 50.8 43.4 50.3 43.7 49.7C44.2 48.6 44.5 47.4 44.7 46.2C45.1 43.6 44.4 40.8 42.7 38.8C42.4 38.5 42.3 38.3 41.9 38.5C41.6 38.6 41.4 38.8 41.2 39C40.4 39.6 39.7 40.2 39 40.8C38.7 41.1 38.3 41.4 38 41.7C37.8 41.8 37.5 42 37.6 42.3C37.6 42.5 37.7 42.6 37.9 42.7C38.3 42.7 38.9 42.2 39.2 41.9C40.5 40.9 41.8 39.8 43.2 38.8C43.5 38.5 43.1 38 42.7 38.2C40.8 39.6 39.6 41.5 38.8 43.7C37.9 46.1 37.5 48.7 37.3 51.2C37.3 51.7 38 51.7 38.1 51.2L37.4 51Z" fill="#231F20"/>
<path d="M37.6 54.3C35.9 54.3 34.2 54.1 32.6 53.8C29.1 53.1 25.7 51.6 23 49.2C21.1 47.5 19.7 45.4 18.8 43L17.8 43.6C17.7 43.6 17.9 43.6 17.9 43.6C18.1 43.6 18.2 43.4 18.4 43.4C18.9 43.2 19.5 43 20 42.9C21.5 42.5 23.1 42.4 24.7 42.9C27 43.6 28.1 45.4 29.4 47.2C30.8 49.2 32.4 51.1 34.1 52.8C34.9 53.6 35.7 54.4 36.6 55.1C36.7 55.1 37.5 54.4 37.6 54.5C35 52.4 32.8 49.8 30.8 47.1C29.4 45.2 28.4 43.1 26 42.3C24.5 41.7 22.7 41.8 21.1 42.3C20.2 42.5 19.4 42.8 18.6 43.3C18.6 43.3 17.6 43.8 17.6 43.9C19.2 47.9 22.2 51 26 52.9C28.7 54.2 31.6 55 34.6 55.2C35.2 55.2 35.8 55.2 36.4 55.2C36.8 55.2 37.1 54.6 37.4 54.6L37.6 54.3Z" fill="#231F20"/>
<path d="M37.6 53.9C29.9 54.1 22.1 50.1 19.1 42.9C19.1 42.7 18.8 42.5 18.6 42.7C18.3 42.9 17.9 43.1 17.6 43.3C17.2 43.5 17.6 44.2 18 44C20.2 42.9 23.1 42.3 25.4 43.4C27.3 44.3 28.4 46.4 29.6 48C31 49.9 32.6 51.7 34.3 53.4C34.7 53.8 35.1 54.1999 35.5 54.5999C35.7 54.7999 36.1 55.3 36.5 55.4C37 55.4 37.3 54.8 37.6 54.8C37.9 54.8 38.1 54.4 37.9 54.2C35.9 52.6 34.2 50.7 32.6 48.8C31.2 47 30.1 44.9 28.5 43.4C26.9 41.9 24.7 41.4 22.5 41.7C20.9 41.9 18.7 42.3999 17.5 43.5999C17.5 43.5999 17.4 43.8 17.4 44C18.9 47.7 21.6 50.8 25.2 52.8C27.2 53.9 29.4 54.6999 31.7 55.0999C32.8 55.2999 34 55.4999 35.2 55.5999C35.7 55.5999 36.3 55.6999 36.7 55.5999C37.1 55.5999 37.3 55.1 37.7 55C38.2 54.9 38 54.2 37.5 54.3C37.3 54.3 37.2 54.4 37 54.5C36.6 54.7 36.3 54.8 35.8 54.9C34.8 54.9 33.8 54.7999 32.9 54.5999C31.2 54.2999 29.5 53.9 27.9 53.3C25 52.2 22.4 50.4 20.5 48C20 47.4 19.6 46.7999 19.2 46.0999C19 45.7999 18.8 45.5 18.7 45.2C18.7 45 18.5 44.8 18.4 44.7C18.4 44.7 18 44.2 18 44.3C18 44.2 19 43.8 19.1 43.7C19.9 43.3 20.9 43 21.8 42.8C23.6 42.4 25.6 42.5999 27.2 43.5999C28.4 44.3999 29.2 45.7 30 46.9C32.1 49.9 34.5 52.6999 37.3 55.0999L37.6 54.5C37.4 54.5 37.2 54.7 37 54.8C36.6 55.1 36.7 55.1 36.3 54.8C35.5 53.9 34.4 53.0999 33.6 52.0999C31.8 50.0999 30.3 48 28.7 45.8C27.5 44.2 26 42.8999 24 42.5999C21.9 42.1999 19.6 42.8 17.6 43.8L18 44.5C18.3 44.3 18.6 44.1 19 43.9L18.5 43.7C20 47.3 22.5 50.3 25.9 52.3C29.3 54.3 33.6 55.4 37.7 55.3C38.2 55.3 38.2 54.5 37.7 54.5L37.6 53.9Z" fill="#231F20"/>
<path d="M31.3 32.6C32.9 31.9 34.5 31 35.9 30C38.6 28.1 41.1 25.6 42 22.3C42.2 21.4 42.4 20.5 42.3 19.5C42.3 19 42.3 18.5 42.2 18C42.2 17.8 42.1 16.9 41.9 16.8C41.8 16.8 41.3 16.8 41.2 16.9C40.7 17 40.1 17.1 39.6 17.3C36.6 18.3 33.6 20.3 32.5 23.3C32 24.7 31.9 26.2 31.7 27.6C31.6 28.7 31.4 29.7 31.3 30.8C31.3 31.3 31.1 32 31.3 32.5C31.3 32.5 32.4 32 32.3 31.9C32.3 31.6 32.3 31.3 32.3 31C32.3 29.5 32.6 27.9 32.8 26.4C33.1 24.3 33.3 22.3 34.6 20.6C35.1 20 35.6 19.4 36.2 19C36.4 18.9 36.5 18.8 36.7 18.6C36.3 18.8 37.2 18.3 36.7 18.6C37 18.4 37.4 18.3 37.7 18.1C38.6 17.8 39.5 17.5 40.4 17.4C40.8 17.4 40.7 17.4 40.9 17.9C41.1 18.8 41.2 19.7 41.2 20.6C41.1 23.8 39.3 26.6 37 28.7C36.4 29.2 35.9 29.7 35.2 30.1C34.9 30.3 34.6 30.6 34.2 30.8C34.1 30.8 33.9 31 33.8 31.1C33.7 31.1 33.2 31.4 33.6 31.2C34 31 33.6 31.2 33.4 31.2C33.3 31.2 33.2 31.3 33.1 31.4C32.9 31.4 32.8 31.6 32.6 31.6C32.5 31.6 32.3 31.7 32.2 31.8C31.8 32 31.5 32.2 31.2 32.4L31.3 32.6Z" fill="#231F20"/>
<path d="M31.5 32.9C36.8 30.6 42.8 25.9 42.7 19.6C42.7 18.9 42.6 18.3 42.5 17.6C42.5 17.3 42.5 16.7 42.1 16.5C41.8 16.3 41.4 16.5 41.1 16.5C40.3 16.7 39.5 16.9 38.8 17.2C36.3 18.2 33.9 19.8 32.6 22.2C31.8 23.7 31.6 25.4 31.4 27.1C31.3 28.1 31.2 29 31.1 29.9C31.1 30.8 30.8 31.7 31 32.6C31 32.9 31.5 32.9 31.7 32.6C31.7 32.7 31.9 32.6 32 32.5C32.2 32.5 32.4 32.3 32.5 32.2C32.8 31.9 32.7 31.5 32.7 31.1C32.7 29.3 33 27.6 33.3 25.9C33.5 24.5 33.7 23 34.4 21.7C34.8 21 35.3 20.4 35.8 19.8C36.2 19.4 36.8 19.1 37.2 18.7C37.4 18.5 37.3 18.1 37 18.1C36.8 18.1 36.5 18.1 36.4 18.4C36.3 18.7 36.5 19.1 36.8 18.9C37.6 18.7 38.3 18.2 39 18C39.4 17.9 39.9 17.8 40.4 17.7H40.7L40.6 17.6C40.6 17.7 40.7 18.1 40.7 18.2C41.1 20.1 40.9 22 40.2 23.7C38.9 26.8 36.2 29.2 33.4 30.9C33 31.2 33.4 31.7 33.8 31.6C33.8 31.6 34 31.6 34.1 31.4C34.5 31.2 34.2 30.6 33.8 30.7C32.9 31.1 32 31.7 31.1 32.1C30.7 32.3 31.1 33 31.5 32.8C32.3 32.4 33.1 31.8 34 31.5L33.7 30.8C33.7 30.8 33.5 30.9 33.4 31L33.8 31.7C37.1 29.7 40.2 26.9 41.3 23.1C41.6 22.1 41.7 21.1 41.7 20.1C41.7 19.6 41.7 19 41.5 18.5C41.5 18.2 41.5 17.7 41.3 17.4C41 16.9 40.2 17.2 39.7 17.4C38.6 17.6 37.7 18.2 36.7 18.5L37.1 19C37 19 37 19.1 37.1 19C37.2 19 37.1 19 36.9 19L36.7 18.4C36.2 18.8 35.7 19.1 35.3 19.5C34.8 20 34.3 20.6 33.9 21.2C33.1 22.5 32.8 24 32.6 25.4C32.4 27 32.1 28.7 32 30.4C32 30.8 32 31.2 32 31.6C32 32 32 32.1 32 31.9C32 31.8 32 31.9 31.9 31.9C31.6 31.9 31.1 32.2 31 32.5H31.7C31.6 31.9 31.7 31.2 31.8 30.5C31.8 29.8 31.9 29 32 28.3C32.2 26.9 32.3 25.4 32.7 24C33.4 21.5 35.4 19.7 37.7 18.5C38.9 17.9 40.1 17.5 41.3 17.3C41.8 17.2 41.7 17.4 41.8 17.9C41.8 18.6 42 19.2 42 19.9C42 22.7 40.6 25.2 38.7 27.2C36.6 29.4 33.9 31.1 31.2 32.3C30.8 32.5 31.2 33.1 31.6 33L31.5 32.9Z" fill="#231F20"/>
<path d="M31.3 28.6C29.5 27.8 27.7 27.1 25.8 26.5C22.8 25.6 19.4 24.7 16.3 25.6C16.2 25.6 15.3 26.1 15.3 26.2C15.5 28.6 16.7 31.2 18.7 32.6C21.9 34.9 27.2 33.9 29.9 31.1C30.5 30.4 31.1 29.5 31.3 28.6C31.3 28.8 30.3 28.9 30.3 29.2C30.2 29.8 29.9 30.4 29.5 31C29.3 31.2 29.1 31.5 28.9 31.7C28.8 31.8 27.9 32.4 27.9 32.5C27.9 32.5 28.7 32.1 28 32.5C27.9 32.5 27.8 32.5 27.7 32.6C27.5 32.6 27.3 32.8 27.1 32.8C26.6 33 26 33.1 25.4 33.1C23.3 33.3 21.2 33.1 19.5 31.8C18.3 30.9 17.5 29.5 16.9 28.1C16.6 27.3 16.4 26.4 16.3 25.6L15.3 26.2C18.4 25.4 21.8 26.2 24.8 27.1C26.7 27.7 28.5 28.3 30.3 29.2C30.5 29.2 31.1 28.5 31.3 28.6Z" fill="#231F20"/>
<path d="M31.5 28.2C28.5 26.8 25.2 25.7 21.9 25.1C20.4 24.8 18.8 24.7 17.3 24.9C16.7 24.9 15.2 25.2 14.9 25.9C14.7 26.3 15 27.2 15.1 27.6C15.3 28.3 15.5 28.9 15.8 29.5C16.4 30.7 17.2 31.8 18.3 32.7C20.3 34.2 22.9 34.4 25.2 33.9C27.9 33.3 31 31.5 31.6 28.6C31.6 28.2 31.1 27.9 30.9 28.3C30.9 28.5 30.2 28.5 30 28.7C29.6 29 29.6 29.8 29.3 30.2C29 30.7 28.6 31.2 28.2 31.5C28 31.7 27.6 31.9 27.5 32.2C27.3 32.6 27.8 33 28.1 32.7C28.1 32.7 28.3 32.7 28.3 32.6L28 31.9C26 33.1 22.9 33.1 20.9 32.2C18.3 31.1 16.9 28.2 16.6 25.5C16.6 25.2 16.3 25 16 25.2L15 25.8C14.6 26 14.9 26.6 15.3 26.5C18.4 25.7 21.6 26.5 24.6 27.4C26.2 27.9 27.7 28.4 29.2 29.1C29.6 29.3 30 29.6 30.5 29.5C30.7 29.5 31.1 28.9 31.3 29C31.8 29 31.8 28.3 31.3 28.2C31 28.2 30.8 28.5 30.5 28.6C30.1 28.8 29.9 28.6 29.5 28.4C29.2 28.3 28.9 28.1 28.6 28C27.1 27.4 25.6 26.9 24.1 26.5C21.2 25.7 18.2 25 15.2 25.8L15.5 26.5L16.5 25.9L15.9 25.6C16.2 28.5 17.7 31.6 20.5 32.9C21.8 33.5 23.3 33.7 24.7 33.6C25.9 33.6 27.4 33.3 28.5 32.7C28.9 32.5 28.6 31.9 28.2 32C28 32 27.8 32.2 27.6 32.3L28.2 32.8C28.4 32.5 28.8 32.3 29.1 32.1C29.5 31.8 29.8 31.3 30 30.9C30.3 30.4 30.4 29.6 30.9 29.4C31.2 29.2 31.5 29.2 31.6 28.9L30.9 28.6C30.4 30.9 28 32.5 25.9 33.1C23.8 33.7 21.4 33.8 19.5 32.7C17.4 31.6 16.1 29.2 15.7 27C15.7 26.9 15.6 26.4 15.6 26.5C15.7 26.4 15.9 26.3 16.1 26.2C16.7 25.9 17.3 25.9 17.9 25.8C19.3 25.7 20.7 25.8 22.1 26.1C25.2 26.7 28.2 27.8 31.1 29.1C31.5 29.3 31.9 28.6 31.5 28.4V28.2Z" fill="#231F20"/>
<path d="M27.4 16.8C28.7 15.6 29.7 14 30.4 12.3C32 8.49999 31.6 4.40001 29.8 0.700012C29.8 0.700012 28.8 1.19999 28.8 1.29999C27.7 2.39999 26.9 4.00002 26.3 5.40002C24.8 9.20002 25.2 13.4 26.4 17.3C26.4 17.3 27.5 16.8 27.4 16.7C26.1 12.8 25.8 8.59999 27.3 4.79999C27.8 3.29999 28.7 1.80001 29.8 0.700012L28.8 1.29999C30.7 4.89999 31.1 9.10002 29.4 12.9C28.7 14.5 27.7 16.2 26.4 17.4C26.7 17.1 27.1 17.1 27.4 16.8Z" fill="#231F20"/>
<path d="M27.7 17.0999C29.8 15.0999 31.3 12.2 31.7 9.29996C32.1 6.39996 31.5 3.29995 30.1 0.599945C30.1 0.399945 29.7 0.39997 29.6 0.49997C29.3 0.69997 28.9 0.799945 28.6 1.09995C28.1 1.49995 27.7 2.09995 27.3 2.59995C26.4 3.99995 25.7 5.59998 25.3 7.19998C24.5 10.7 24.9 14.1999 25.9 17.5999C26 17.8999 26.4 17.8999 26.6 17.5999C26.5 17.6999 26.9 17.5 27 17.4C27.1 17.4 27.3 17.3 27.5 17.2C27.9 16.9 27.6 16.5 27.5 16C27 14.3 26.7 12.5 26.6 10.7C26.6 7.29998 27.5 3.49997 29.9 0.99997C30.2 0.69997 29.9 0.199994 29.4 0.399994L28.4 0.99997C28.2 1.09997 28.2 1.29997 28.3 1.49997C30.9 6.59997 30.3 12.9999 26 17.0999C25.7 17.3999 26.1 17.9 26.5 17.7C26.8 17.5 27.2 17.2999 27.5 17.0999C27.9 16.7999 27.5 16.2 27.1 16.4C26.8 16.6 26.4 16.8 26.1 17L26.6 17.5999C28.7 15.5999 30.2 12.7 30.6 9.79996C31 6.89996 30.4 3.79995 29 1.09995V1.59995C28.9 1.59995 29.9 0.99997 29.9 0.99997L29.4 0.399994C27.1 2.69999 26 6.19999 25.9 9.39999C25.9 11.1 25.9 12.8 26.4 14.5C26.5 15 26.6 15.5 26.8 15.9C26.8 16.1 26.9 16.3 27 16.5C26.7 16.7 26.3 16.7999 26.1 17.0999H26.8C25.8 14.0999 25.4 10.7 26.1 7.49997C26.4 5.99997 27 4.49998 27.8 3.19998C28.2 2.59998 28.6 1.99997 29.1 1.49997C29.4 1.29997 29.7 1.19997 30 0.99997H29.5C32.1 5.99997 31.5 12.4 27.2 16.5C26.8 16.8 27.4 17.4 27.7 17V17.0999Z" fill="#231F20"/>
<path d="M12.9 4.50002C12.7 4.50002 11.9 4.89999 11.9 5.09999C11.9 5.29999 12.1 5.60003 12.2 5.70003C12.8 6.70003 13.5 7.60002 14.2 8.50002C16.2 11 18.5 13.6 21.4 15.2C22.7 15.9 24.3 16.4 25.8 16C25.9 16 26.8 15.5 26.8 15.4C27.2 11.1 24.9 6.50002 20.7 5.00002C18.2 4.10002 15.5 4.10002 13 4.50002C12.6 4.50002 12.3 4.99999 12 5.09999C15.9 4.59999 20.4 4.90004 23.2 7.90004C24.8 9.70004 25.7 12.1 25.8 14.5C25.8 15 25.8 15.6 25.8 16.1L26.8 15.5C24.1 16.3 21.4 14.3 19.5 12.6C17.4 10.7 15.5 8.49999 13.9 6.09999C13.9 5.99999 12.8 4.60004 13 4.40004L12 5.00002C12.4 4.90002 12.7 4.50004 13 4.40004L12.9 4.50002Z" fill="#231F20"/>
<path d="M12.8 4.09998C12.4 4.19998 11.8 4.39999 11.6 4.79999C11.3 5.19999 11.6 5.7 11.9 6C12.8 7.5 13.9 8.89999 15.1 10.3C16.3 11.7 17.6 13 19 14.1C20.3 15.1 21.8 16.1 23.4 16.4C24.5 16.6 26.1 16.6 27 15.7C27.4 15.4 27.2 14.7 27.2 14.3C27.2 13.6 27.2 12.8 27 12.1C26.5 9.39998 24.9 6.90002 22.6 5.40002C21 4.40002 19.1 3.89999 17.3 3.79999C16.2 3.79999 15.1 3.79999 14.1 3.79999C13.7 3.79999 13.2 3.8 12.8 4C12.5 4.1 12.3 4.5 11.9 4.5C11.5 4.6 11.6 5.30001 12 5.20001C15.1 4.80001 18.5 4.8 21.2 6.5C24.3 8.4 25.7 12.3 25.4 15.8C25.4 16.1 25.7 16.3 26 16.1L27 15.5C27.4 15.3 27.1 14.7 26.7 14.8C23.5 15.7 20.3 12.7 18.2 10.6C17 9.39998 15.9 8.10001 14.9 6.70001C14.6 6.20001 14.2 5.79999 13.9 5.29999C13.8 5.09999 13.7 4.99999 13.5 4.79999C13.5 4.79999 13.4 4.6 13.3 4.5C13.3 4.4 13.3 4.2 13.2 4.5C13.4 4.2 13 3.8 12.7 4L11.7 4.59998C11.3 4.79998 11.6 5.39999 12 5.29999C12.4 5.19999 12.7 4.80001 13.1 4.70001C13.5 4.50001 13.1 3.9 12.7 4C12.4 4.1 12.1 4.49998 11.7 4.59998L12 5.29999L13 4.70001L12.5 4.20001C12.1 4.90001 13.3 6.10001 13.7 6.70001C14.8 8.30001 16.1 9.89999 17.5 11.3C19.8 13.6 23.2 16.8 26.8 15.8L26.5 15.1L25.5 15.7L26.1 16C26.3 12.4 24.9 8.39999 21.8 6.29999C18.9 4.29999 15.2 4.20001 11.8 4.70001V5.40002C12.1 5.40002 12.3 5.19998 12.4 5.09998C12.7 4.89998 13 4.80001 13.3 4.70001C14.1 4.60001 14.9 4.5 15.7 4.5C17.2 4.5 18.8 4.70001 20.2 5.20001C22.5 6.00001 24.3 7.79998 25.3 10.1C25.8 11.2 26.1 12.4 26.2 13.6C26.2 14 26.4 14.8 26.2 15.2C26 15.6 25.3 15.7 24.9 15.8C23.4 16 21.8 15.3 20.5 14.5C19.2 13.7 18.2 12.8 17.1 11.8C16 10.8 14.9 9.40001 14 8.20001C13.5 7.50001 13 6.79998 12.5 6.09998C12.5 6.09998 12 5.39999 12 5.29999C12 5.19999 12.6 5.00002 12.7 4.90002C13.2 4.70002 12.9 4.00001 12.5 4.20001L12.8 4.09998Z" fill="#231F20"/>
</svg>
