<svg width="125" height="265" viewBox="0 0 125 265" fill="none" xmlns="http://www.w3.org/2000/svg">
<path d="M52.6 263.2C52.6 260.4 52.6 257.7 52.6 255C52.6 247.8 52.5 240.7 52.4 233.5C52.4 223.7 52.2 214 52.2 204.2C52.2 193.5 52.2 182.8 52.1 172.1C52.1 162.1 52.1 152.1 52.1 142.1C52.1 134.6 52.2 127.2 52.5 119.7C52.8 111.3 53.4 102.9 54 94.5C54.8 83.1 55.8 71.7 56.7 60.3C57.6 49.9 58.5 39.4 59.5 29C60 23.3 60.5 17.6 61.1 11.9C61.1 11.6 61.1 11.4 61.1 11.1C61.1 11.3 60.1 11.5 60.1 11.7C59.7 15.7 59.3 19.7 59 23.7C58.1 33.3 57.3 42.9 56.4 52.6C55.4 64.1 54.4 75.6 53.6 87.1C52.8 96.8 52.1 106.5 51.7 116.2C51.4 123 51.3 129.7 51.2 136.5C51.1 146 51.1 155.5 51 165C51 175.7 51 186.4 51 197C51 207.2 51.1 217.3 51.2 227.5C51.2 235.5 51.3 243.4 51.4 251.4C51.4 255.4 51.4 259.4 51.5 263.3V263.8C51.5 263.6 52.5 263.4 52.5 263.2H52.6Z" fill="#231F20"/>
<path d="M53 263.2C52.6 230.2 52.4 197.1 52.4 164.1C52.4 147.8 52.4 131.6 53.1 115.3C53.9 98.8 55.3 82.3 56.7 65.9C58.2 47.6 59.9 29.4 61.6 11.1C61.6 10.7 61.1 10.6 60.9 10.9C60.7 11.1 60.2 11.1 60 11.3C59.7 11.7 59.8 12.4 59.7 12.9C59.5 15 59.3 17.1 59.1 19.2C58.7 23.4 58.3 27.7 57.9 31.9C57.1 40.2 56.4 48.5 55.7 56.8C54.2 73.6 52.8 90.5 51.8 107.3C50.8 124 50.7 140.7 50.7 157.4C50.7 174.2 50.7 190.9 50.8 207.7C50.8 224.5 51 241.3 51.2 258C51.2 259.9 51.2 261.8 51.2 263.8C51.2 264.2 51.7 264.3 51.9 264C52.1 263.7 52.7 263.8 52.9 263.4C53.2 263 52.5 262.6 52.2 263C52 263.3 51.4 263.2 51.2 263.6L51.9 263.8C51.7 247.3 51.6 230.9 51.5 214.5C51.4 198.1 51.3 181.1 51.3 164.5C51.3 147.9 51.2 131.1 52 114.5C52.8 97.9 54.3 81.1 55.7 64.4C57.1 47.8 58.6 31.1 60.1 14.5C60.1 13.8 60.1 12.3 60.6 11.8C60.8 11.6 61.1 11.6 61.3 11.3L60.6 11.1C57.5 43.8 54.4 76.6 52.4 109.4C51.4 125.6 51.5 141.9 51.4 158.2C51.4 174.7 51.4 191.3 51.5 207.9C51.6 226.4 51.8 244.9 52 263.4C52 263.9 52.8 263.9 52.8 263.4L53 263.2Z" fill="#231F20"/>
<path d="M74.1 18.8C72.4 19.5 70.9 20.3 69.3 21.2C66.3 22.9 63.5 24.7 61.1 27.3C59.8 28.8 58.6 30.5 58.1 32.4C58.1 32.1 59.1 32.1 59.1 31.8C59.9 28.8 62.1 26.4 64.5 24.5C66.7 22.7 69.1 21.3 71.6 20.1C72.1 19.9 72.5 19.7 73 19.5C73.4 19.3 73.7 19 74 18.9L74.1 18.8Z" fill="#231F20"/>
<path d="M74 18.4C70.5 19.8 67 21.7999 64 24.0999C61.3 26.1999 58.8 28.8 57.8 32.2C57.7 32.6 58.3 32.8 58.5 32.5C58.5 32.3 59 32.3 59.2 32.2C59.4 32.2 59.5 32 59.6 31.8C59.8 31.4 59.9 30.8 60.1 30.4C60.3 30 60.5 29.6 60.7 29.3C61.6 27.7 62.9 26.2999 64.3 25.0999C65.8 23.7999 67.4 22.7 69.1 21.7C69.9 21.2 70.8 20.8 71.7 20.3C72.6 19.8 73.5 19.4 74.4 19C74.8 18.8 74.4 18.1 74 18.3C73.1 18.7 72.2 19.1999 71.3 19.5999C70.4 19.9999 69.5 20.5 68.6 21C66.9 22 65.3 23.1 63.8 24.4C62.4 25.6 61.1 26.9 60.2 28.5C59.8 29.2 59.4 30 59.1 30.8C59.1 30.9 59.1 31.2 58.9 31.3C58.7 31.4 58.5 31.4 58.4 31.5C58.2 31.5 58 31.7 57.9 31.9L58.6 32.2C59.6 28.9 62.2 26.3 64.9 24.2C67.6 22.1 71 20.2 74.2 18.9C74.6 18.7 74.4 18 74 18.2V18.4Z" fill="#231F20"/>
<path d="M76.2 44.2C74 46.6 71.9 49 69.8 51.5C65.8 56.2 61.9 61.1 58.6 66.3C57.1 68.7 55.5 71.3 54.6 74C54.6 73.7 55.5 73.7 55.6 73.4C56.4 71 57.6 68.8 58.9 66.7C60.5 64.1 62.3 61.5 64.2 59.1C67.6 54.7 71.1 50.4 74.8 46.2C75.6 45.3 76.3 44.5 77.1 43.6C76.8 43.9 76.3 43.9 76.1 44.2H76.2Z" fill="#231F20"/>
<path d="M76 43.9C71.7 48.5 67.6 53.3 63.8 58.3C60 63.3 56.2 68.1 54.3 73.9C54.2 74.2 54.7 74.6 54.9 74.3C55.1 74 55.6 74 55.9 73.8C56.2 73.5 56.3 72.8 56.5 72.3C57.1 70.8 57.9 69.3 58.8 67.8C60.5 65 62.4 62.2999 64.4 59.5999C68.5 54.0999 73 48.9 77.6 43.8C77.9 43.5 77.6 43 77.1 43.2C76.8 43.4 76.4 43.5 76.1 43.8C75.7 44.1 76.1 44.7 76.5 44.5C76.8 44.3 77.2 44.2 77.5 43.9L77 43.3C72.5 48.2 68.1 53.3 64.1 58.7C62.1 61.4 60.2 64 58.4 66.9C57.6 68.3 56.7 69.7 56.1 71.2C55.9 71.7 55.7 72.4 55.4 72.9C55.1 73.4 54.7 73.3 54.3 73.7L54.9 74.0999C56.8 68.3999 60.8 63.2999 64.5 58.5999C68.2 53.8999 72.3 49 76.5 44.5C76.8 44.2 76.3 43.6 76 44V43.9Z" fill="#231F20"/>
<path d="M81.4 57.6C79.6 57 77.8 56.6 75.9 56.2C72.9 55.6 69.6 55.1 66.6 56C66.2 56.1 65.9 56.5 65.6 56.6C68.6 55.8 71.9 56.3 74.9 56.8C76.7 57.2 78.6 57.6 80.4 58.2C80.7 58.2 81.2 57.5 81.4 57.6Z" fill="#231F20"/>
<path d="M81.5 57.2C78.8 56.3 76 55.7 73.2 55.3C71.8 55.1 70.3 55 68.9 55.1C68.3 55.1 67.7 55.2 67.1 55.4C66.5 55.6 66.1 55.9 65.5 56.1C65.1 56.3 65.2 56.9 65.7 56.8C68.6 56 71.7 56.5 74.7 57C76.2 57.3 77.6 57.6 79 58C79.4 58.1 80.1 58.5 80.6 58.4C80.9 58.4 81.2 57.8 81.4 57.8C81.9 57.8 81.9 57 81.4 57C81 57 80.9 57.3 80.6 57.5C80.3 57.7 80 57.5 79.7 57.4C79.4 57.3 78.9 57.2 78.6 57.1C77.1 56.7 75.7 56.4 74.2 56.1C71.4 55.6 68.5 55.3 65.7 56.1L65.9 56.8C66.4 56.6 66.7 56.3 67.2 56.1C67.9 55.9 68.6 55.8 69.3 55.8C70.7 55.8 72.1 55.8 73.5 56C76.2 56.4 78.9 57 81.5 57.8C82 58 82.2 57.2 81.7 57.1L81.5 57.2Z" fill="#231F20"/>
<path d="M19.2 41.9C21.9 43.3 24.3 45.3 26.6 47.3C33 52.7 38.6 59.1 43.3 66C47.2 71.6 50.7 77.6 53.7 83.8L54.7 83.2C49.8 73.2 43.8 63.7 36.4 55.3C32.3 50.7 27.8 46.4 22.7 42.9C21.9 42.3 21 41.8 20.2 41.3C20 41.3 19.4 42 19.2 41.9Z" fill="#231F20"/>
<path d="M19.1 42.2C23.1 44.4 26.7 47.6 30.1 50.8C33.3 53.8 36.2 57 38.9 60.4C44.7 67.6 49.5 75.6 53.6 83.9C53.6 84.1 54 84.1 54.1 84C54.4 83.8 54.9 83.6 55.2 83.3C55.3 83.2 55.3 83 55.2 82.8C48.4 68.9 39.4 55.5 27.4 45.7C25.9 44.4 24.2 43.2 22.6 42.1C22.1 41.8 21.1 40.8 20.4 40.8C19.9 40.8 19.7 41.4 19.4 41.4C18.9 41.4 18.9 42.2 19.4 42.2C19.7 42.2 19.8 42 20.1 41.9C20.5 41.7 20.5 41.7 21 42C21.4 42.2 21.8 42.5 22.3 42.8C23.9 43.9 25.5 45 27 46.3C29.8 48.6 32.5 51.2 35 53.9C40.2 59.5 44.7 65.6 48.7 72.1C50.9 75.7 52.9 79.5 54.8 83.3V82.8C54.6 83 54.2 83.1 53.9 83.3H54.4C50.3 75 45.4 67 39.6 59.7C36.8 56.2 33.8 52.9 30.5 49.8C27.2 46.7 23.7 43.6 19.7 41.4C19.3 41.2 18.9 41.8 19.3 42.1L19.1 42.2Z" fill="#231F20"/>
<path d="M39.2 36.2C39.2 43.1 39 50 38.9 56.9C38.9 57.9 38.9 58.9 38.9 59.9C38.9 59.7 39.9 59.5 39.9 59.3C39.9 52.4 40.1 45.5 40.2 38.6V35.6C40.2 35.8 39.2 36 39.2 36.2Z" fill="#231F20"/>
<path d="M38.8 36.2C38.7 44.1 38.6 52 38.5 59.9C38.5 60.3 39 60.4 39.2 60.1C39.4 59.8 40 59.9 40.2 59.5C40.5 58.9 40.2 57.5 40.2 56.9C40.2 54.5 40.2 52.1 40.3 49.7C40.3 45 40.4 40.3 40.5 35.7C40.5 35.3 40 35.2 39.8 35.5C39.6 35.8 39 35.7 38.8 36.1C38.5 36.5 39.2 36.9 39.5 36.5C39.7 36.2 40.3 36.3 40.5 35.9L39.8 35.7C39.8 40.1 39.7 44.6 39.6 49C39.6 51.2 39.6 53.5 39.6 55.8V57.5C39.6 57.9 39.7 58.8 39.6 59.1C39.5 59.4 38.9 59.4 38.6 59.8L39.3 60C39.4 52.1 39.5 44.2 39.6 36.3C39.6 35.8 38.9 35.8 38.8 36.3V36.2Z" fill="#231F20"/>
<path d="M17.5 61.9C19.1 61.1 20.8 60.3 22.5 59.7C25.6 58.5 28.9 57.4 32.3 57.2C34 57.1 35.7 57.2 37.2 57.9C37.4 57.9 38 57.2 38.2 57.3C35.3 56 31.7 56.6 28.8 57.4C25.8 58.2 23 59.3 20.2 60.6C19.6 60.9 19 61.1 18.5 61.4C18.2 61.6 17.8 61.9 17.5 62V61.9Z" fill="#231F20"/>
<path d="M17.7 62.2C21.3 60.4 25.2 58.8 29.1 58C31.1 57.6 33.2 57.3 35.2 57.6C35.6 57.6 36 57.8 36.4 57.9C36.6 57.9 37 58.2 37.3 58.2C37.6 58.2 38 57.6 38.2 57.6C38.5 57.6 38.7 57.1 38.4 56.9C35.1 55.5 31.5 56.2 28.2 57.1C24.4 58.1 20.8 59.6 17.4 61.5C17 61.7 17.4 62.4 17.8 62.2C20.9 60.4 24.3 59.1 27.7 58C31.1 56.9 34.8 56 38.1 57.5L38.3 56.8C37.8 56.8 37.7 57.3 37.3 57.4C37.1 57.4 36.5 57.1 36.2 57C35.8 56.9 35.4 56.8 34.9 56.8C33 56.6 31 56.8 29.2 57.2C25.1 58 21.1 59.7 17.4 61.5C17 61.7 17.4 62.4 17.8 62.2H17.7Z" fill="#231F20"/>
<path d="M31.6 76.2C33.1 75.7 34.8 75.5 36.4 75.3C39.4 74.9 42.4 74.7 45.4 75C46.9 75.2 48.5 75.5 49.8 76.2C50 76.2 50.6 75.5 50.8 75.6C48.3 74.3 45.2 74.2 42.4 74.3C39.7 74.3 37 74.7 34.3 75.2C33.7 75.3 33.1 75.4 32.5 75.6C32.1 75.7 31.8 76.1 31.5 76.2H31.6Z" fill="#231F20"/>
<path d="M31.7 76.5999C33.5 76.0999 35.3 75.9 37.1 75.7C38.9 75.5 40.8 75.3 42.7 75.3C44.6 75.3 46.3 75.4 48.1 75.9C48.7 76.1 49.4 76.5999 50 76.5999C50.4 76.5999 50.6 76 50.9 76C51.2 76 51.4 75.5 51.1 75.3C48.1 73.8 44.7 73.8 41.4 74C39.5 74.1 37.7 74.2999 35.8 74.5999C34.9 74.6999 34 74.8999 33.1 75.0999C32.4 75.2999 32 75.6 31.4 75.9C31 76.1 31.4 76.6999 31.8 76.5999C32.4 76.2999 32.9 76 33.6 75.8C34.4 75.6 35.2 75.5 36 75.4C37.8 75.1 39.6 74.9 41.4 74.8C44.5 74.6 47.9 74.6 50.7 76L50.9 75.3C50.5 75.3 50.3 75.8 49.9 75.9C49.8 75.9 49.2 75.6 49.1 75.5C48.7 75.3 48.3 75.1999 47.9 75.0999C46.2 74.6999 44.4 74.5999 42.6 74.5999C40.8 74.5999 38.7 74.8 36.8 75C35 75.2 33.3 75.4 31.5 75.9C31 76 31.2 76.7999 31.7 76.5999Z" fill="#231F20"/>
<path d="M36.5 98.1C38.2 100.5 39.9 102.9 41.5 105.4C44.2 109.3 46.9 113.1 49.5 117C50 117.7 50.4 118.3 50.8 119C50.9 119.2 51.3 119.5 51.3 119.8C51.3 119.7 52.3 119.3 52.3 119.2C52.3 119 52 118.7 51.9 118.6C51.6 118.1 51.2 117.6 50.8 117C49.6 115.3 48.4 113.5 47.2 111.8C44.5 108 41.9 104.1 39.2 100.3C38.6 99.4 38 98.5 37.3 97.6L36.3 98.2L36.5 98.1Z" fill="#231F20"/>
<path d="M36.2 98.3C38.8 102 41.3 105.7 43.9 109.4C45.2 111.2 46.4 113 47.7 114.8C48.3 115.7 48.9 116.6 49.5 117.5C50 118.2 50.7999 119 51.0999 119.9C51.1999 120.2 51.6 120.3 51.8 119.9C52 119.6 52.7 119.7 52.8 119.3C53 118.8 52 117.8 51.7 117.4C50.2 115.2 48.7 113 47.2 110.9C44.1 106.4 41 101.9 37.8 97.4C37.8 97.3 37.5 97.2 37.4 97.2C37 97.3 36.7 97.7 36.3 97.8C35.9 98 36.3 98.6 36.7 98.5C37 98.4 37.2999 98 37.5999 97.9L37.2 97.7C40.1 101.9 43 106.1 46 110.3C47.4 112.3 48.8 114.4 50.2 116.4C50.8 117.3 51.4 118.1 52 119C52.1 119.2 52.3 118.9 52 119C51.9 119 51.6999 119 51.5999 119.2C51.3999 119.2 51.2999 119.4 51.0999 119.5H51.8C51.5 118.9 50.9999 118.3 50.5999 117.7C49.9999 116.8 49.3 115.8 48.7 114.9C47.4 113 46.1 111.1 44.8 109.3C42.2 105.5 39.5 101.7 36.9 97.9C36.6 97.5 36 97.9 36.2 98.3Z" fill="#231F20"/>
<path d="M52.5 119.4C49.7 116 45.3 113.1 40.9 112.4C38.9 112.1 36.9 112.3 35 112.9C34.6 113 34.3 113.4 34 113.5C40 111.4 46.1 114.6 50.4 118.8C50.8 119.2 51.2 119.6 51.5 120L52.5 119.4Z" fill="#231F20"/>
<path d="M52.7 119.1C50.4 116.4 47.4 114.1 44.1 112.8C42.4 112.1 40.6 111.8 38.9 111.8C37.9 111.8 36.9 111.9 36 112.2C35.1 112.4 34.5 112.8 33.8 113.2C33.4 113.4 33.7 114 34.1 113.9C38 112.6 42 113.5 45.5 115.5C47.2 116.5 48.7 117.7 50.1 119.1C50.4 119.4 51 120.4 51.5 120.4C52 120.4 52.2 119.9 52.6 119.8C53.1 119.8 52.9 119 52.4 119.1C52.2 119.1 52.1 119.3 51.9 119.3C51.8 119.3 51.7 119.5 51.5 119.5C50.8 118.9 50.1 118.1 49.4 117.4C48 116.2 46.4 115 44.7 114.2C41.3 112.5 37.5 111.9 33.9 113.2L34.2 113.9C34.5 113.8 34.7 113.6 35 113.4C35.4 113.2 36 113.1 36.4 113C37.3 112.8 38.3 112.7 39.3 112.7C41 112.7 42.7 113.2 44.3 113.8C47.4 115.1 50.1 117.2 52.3 119.8C52.6 120.2 53.1 119.6 52.8 119.3L52.7 119.1Z" fill="#231F20"/>
<path d="M91.2 98.1C89.9 100.3 88.8 102.5 87.6 104.7C85.5 108.8 83.5 113.1 82.1 117.5C81.5 119.5 80.9 121.7 81 123.8C81 123.6 82 123.4 82 123.2C82 121.4 82.3 119.5 82.8 117.7C83.4 115.5 84.3 113.3 85.2 111.1C86.8 107.2 88.7 103.5 90.7 99.8C91.1 99 91.6 98.2 92 97.5C91.8 97.8 91.2 97.8 91 98.1H91.2Z" fill="#231F20"/>
<path d="M90.9 97.9C88.5 102.1 86.3 106.4 84.4 110.8C82.6 114.8 80.7 119.3 80.8 123.8C80.8 124.2 81.3 124.3 81.5 124C81.7 123.7 82.3 123.8 82.5 123.4C82.7 123.1 82.5 122.5 82.5 122.1C82.5 121.3 82.7 120.5 82.9 119.7C83.5 117.1 84.4 114.6 85.4 112.2C87.4 107.2 89.9 102.4 92.6 97.8C92.8 97.4 92.3 97.1 92 97.3C91.7 97.6 91.3 97.6 91 97.9C90.7 98.2 91.2 98.8 91.5 98.4C91.8 98.1 92.2 98.1 92.5 97.8L91.9 97.3C89.3 101.8 86.9 106.6 84.8 111.4C83.8 113.8 82.9 116.2 82.3 118.7C82 119.9 81.8 121 81.7 122.2C81.7 122.4 81.7 122.8 81.7 123C81.7 123 81.4 123.1 81.3 123.2C81.1 123.4 80.9 123.4 80.8 123.6L81.5 123.8C81.4 119.2 83.5 114.4 85.4 110.3C87.3 106.2 89.3 102.2 91.6 98.3C91.8 97.9 91.2 97.5 90.9 97.9Z" fill="#231F20"/>
<path d="M102.7 118.3C99 118.9 95.4 119.6 91.8 120.5C87.1 121.6 82 122.6 77.9 125.3C75.3 127 72.7 128.8 70.3 130.9C66.3 134.3 62.9 138.3 60 142.7C56.1 148.7 53.3 155.5 51.7 162.5C51.5 163.6 51.2 164.6 51 165.7C51 165.5 52 165.4 52 165.1C54.4 152.6 60.1 140.8 69.4 132C72 129.6 74.8 127.4 77.7 125.5C77.9 125.3 78.2 125.2 78.4 125C78.4 125 78.6 124.9 78.7 124.8C78.7 124.8 78.7 124.8 78.8 124.8C79.3 124.5 78.2 125.1 78.6 124.9C79.6 124.4 80.5 124 81.5 123.7C84.1 122.8 86.7 122.1 89.4 121.5C93.5 120.5 97.6 119.7 101.7 119C102.1 119 102.4 118.5 102.7 118.4V118.3Z" fill="#231F20"/>
<path d="M102.6 117.9C97.4 118.8 92.3 119.8 87.2 121.1C85 121.7 82.8 122.3 80.7 123.3C78.5 124.3 76.4 125.7 74.4 127.1C66.4 132.9 60 140.5 55.8 149.5C53.4 154.6 51.8 160 50.7 165.5C50.7 165.8 51.1 166.2 51.3 165.9C51.5 165.6 52 165.6 52.3 165.4C52.7 164.9 52.7 163.8 52.8 163.2C53.2 161.5 53.6 159.9 54.1 158.3C55.1 154.8 56.4 151.5 58 148.3C61.1 142 65.3 136.3 70.5 131.5C72.2 129.9 74.1 128.5 76 127.1C76.9 126.5 77.8 125.9 78.7 125.3C78.9 125.1 79.3 125 79.3 124.7C79.3 124.4 79 124.2 78.7 124.4C78.5 124.4 78.3 124.6 78.2 124.7C78 124.9 78.2 125.5 78.6 125.3C82.5 123.7 86.5 122.5 90.6 121.5C92.7 121 94.9 120.6 97 120.1C98.1 119.9 99.2 119.7 100.3 119.5C100.7 119.5 101.3 119.5 101.7 119.3C102.1 119.1 102.4 118.9 102.7 118.7C103.1 118.5 102.9 117.8 102.5 118C102.1 118.2 101.8 118.5 101.5 118.6C101.1 118.8 100.5 118.8 100.1 118.8C99 119 97.9 119.2 96.8 119.4C94.7 119.8 92.5 120.3 90.4 120.8C86.3 121.8 82.3 122.9 78.4 124.6L78.8 125.2C78.8 125.2 79 125 79.1 125L78.5 124.7C78.5 124.4 78.5 124.5 78.1 124.7C77.7 124.9 77.4 125.2 77 125.4C76.2 126 75.4 126.5 74.5 127.1C73 128.2 71.5 129.4 70.1 130.6C67.6 132.9 65.3 135.4 63.2 138.1C59.2 143.4 56.1 149.3 53.9 155.6C53.3 157.4 52.7 159.3 52.2 161.2C52 162.1 51.8 163 51.6 164C51.5 164.6 51.4 164.8 50.9 165.1C50.7 165.2 50.6 165.2 50.5 165.4L51.1 165.8C53 156.1 56.7 146.8 62.8 139C68.6 131.5 76.6 124.8 85.9 122.2C91.4 120.7 97 119.6 102.6 118.7C103.1 118.7 102.9 117.9 102.4 118L102.6 117.9Z" fill="#231F20"/>
<path d="M81.6 149.2C76.8 146.5 71.8 143.9 66.7 141.8C65.2 141.2 63.7 140.6 62.2 140.3C61.9 140.3 61.5 141 61.2 140.9C64.3 141.5 67.2 143 70.1 144.4C73 145.8 76 147.3 78.8 148.9C79.4 149.2 80 149.6 80.6 149.9C80.8 149.9 81.5 149.2 81.6 149.3V149.2Z" fill="#231F20"/>
<path d="M81.8 148.9C78.1 146.8 74.3 144.8 70.5 143C68.7 142.2 67 141.4 65.2 140.7C64.4 140.4 63.2 139.9 62.3 139.8C61.8 139.8 61.5999 140.3 61.0999 140.4C60.6999 140.4 60.7999 141.1 61.0999 141.1C65.1999 142 69.1 144.1 72.9 146C74.8 147 76.6999 148 78.5999 149C79.0999 149.3 79.9999 150 80.5999 150C80.9999 150 81.2999 149.4 81.5999 149.4C82.0999 149.4 82.0999 148.6 81.5999 148.6C81.1999 148.6 80.8999 149.2 80.5999 149.2C80.2999 149.2 79.7 148.7 79.4 148.5C79 148.3 78.4999 148 78.0999 147.8C76.1999 146.8 74.3 145.8 72.3 144.8C68.8 143 65.1 141.1 61.2 140.3V141C61.4 141 61.4999 140.9 61.5999 140.8C61.6999 140.8 61.8 140.6 61.9 140.5C62.2 140.5 62.4 140.5 62.7 140.5C63.5 140.6 64.4 141 65.2 141.3C67.1 142.1 69 142.9 70.9 143.8C74.5 145.5 77.9 147.3 81.4 149.3C81.8 149.5 82.2 148.9 81.8 148.6V148.9Z" fill="#231F20"/>
<path d="M82.6 123.2C84.8 125.1 86.9 127 89 129L99.3 138.2C100.1 138.9 100.9 139.6 101.7 140.3C101.7 140.3 102.6 139.6 102.7 139.7C100.5 137.8 98.4 135.9 96.3 133.9C92.9 130.8 89.5 127.8 86 124.7C85.2 124 84.4 123.3 83.6 122.6C83.6 122.6 82.7 123.3 82.6 123.2Z" fill="#231F20"/>
<path d="M82.3 123.4C86.1 126.8 89.9 130.2 93.7 133.6C95.6 135.3 97.4 136.9 99.3 138.6C99.8 139 100.3 139.5 100.8 139.9C101 140.1 101.3 140.5 101.7 140.5C102.1 140.5 102.5 139.9 102.7 139.9C103 139.9 103.2 139.5 103 139.3C99.2 135.9 95.4 132.5 91.6 129.1C89.7 127.4 87.9 125.8 86 124.1C85.5 123.7 85 123.2 84.5 122.8C84.3 122.6 84 122.2 83.6 122.2C83.2 122.2 82.8 122.8 82.6 122.8C82.1 122.8 82.1 123.6 82.6 123.6C83 123.6 83.3 123 83.7 123C83.6 123 84.1 123.5 84.1 123.5L84.8 124.2L86.1 125.4L91.5 130.3C95.1 133.5 98.7 136.8 102.3 140L102.6 139.4C102.2 139.4 101.9 140 101.5 140C101.6 140 101.1 139.5 101.1 139.5L100.4 138.8L99.1 137.6L93.7 132.7C90.1 129.5 86.5 126.2 82.9 123C82.5 122.7 82 123.2 82.4 123.5L82.3 123.4Z" fill="#231F20"/>
<path d="M12 167.8C16.3 170.2 20.4 173.1 24.3 176.1C32.3 182.3 39.6 189.5 44.9 198.2C48 203.4 50.3 209.1 51.1 215.1C51.1 215 52.1 214.7 52.1 214.5C50.7 203.7 44.5 194.2 37.2 186.4C31.3 180.1 24.5 174.6 17.3 169.9C15.9 169 14.4 168 12.9 167.2C12.7 167.2 12 167.9 11.9 167.8H12Z" fill="#231F20"/>
<path d="M11.8 168.2C19.1 172.2 25.8 177.4 31.8 183.1C37.8 188.8 42.8 194.8 46.5 201.9C48.6 206.1 50.1 210.6 50.7 215.2C50.7 215.6 51.2 215.5 51.4 215.2C51.6 214.9 52.2 215 52.4 214.6C52.7 214 52.2 212.5 52 211.9C51.6 209.7 50.9 207.5 50.1 205.4C48.5 201.2 46.3 197.3 43.7 193.7C38.2 186 31.2 179.5 23.7 173.8C21.4 172.1 19.1 170.5 16.7 169C16.1 168.6 15.5 168.2 14.9 167.9C14.4 167.6 13.6 166.9 13.1 166.8C12.5 166.7 12.4 167.3 11.9 167.3C11.4 167.3 11.4 168.1 11.9 168.1C12.4 168.1 12.6 167.6 13 167.6C13.4 167.6 14 168.2 14.4 168.4C15 168.8 15.6 169.1 16.2 169.5C18.2 170.7 20.1 172.1 22 173.4C25.8 176.2 29.5 179.2 32.9 182.4C39.2 188.4 44.9 195.2 48.5 203.2C49.5 205.4 50.3 207.7 50.9 210C51.2 211.2 51.4 212.4 51.6 213.6C51.6 214.2 51.6 214.1 51.3 214.3C51.1 214.5 50.9 214.5 50.8 214.7H51.5C49.2 198.4 37 185.2 24.4 175.5C20.5 172.5 16.5 169.6 12.2 167.2C11.8 167 11.4 167.6 11.8 167.9V168.2Z" fill="#231F20"/>
<path d="M13 185.6C16.1 182.7 20 179.9 24.2 179.2C25.7 179 27.2 179.1 28.6 179.7C28.6 179.7 29.6 179.2 29.6 179.1C29.4 173.1 29.2 167.2 28.9 161.3C28.9 160.4 28.9 159.6 28.9 158.7C28.9 158.9 27.9 159.1 27.9 159.3C28.1 165.3 28.3 171.2 28.6 177.1C28.6 178 28.6 178.8 28.6 179.7L29.6 179.1C26.7 177.7 23.3 178.8 20.6 180.2C18.1 181.5 15.7 183 13.5 184.8C13 185.2 12.4 185.7 11.9 186.1C12.2 185.8 12.7 185.8 12.9 185.5L13 185.6Z" fill="#231F20"/>
<path d="M13.3 185.9C15.8 183.6 18.6 181.4 21.8 180.3C23.5 179.7 25.5 179.3 27.3 179.7C28.3 179.9 29 180.5 29.8 179.5C30.4 178.8 30 176.8 29.9 175.9C29.9 174 29.8 172.1 29.7 170.2C29.6 166.4 29.4 162.5 29.3 158.7C29.3 158.3 28.8 158.2 28.6 158.5C28.4 158.8 27.8 158.7 27.6 159C27.3 159.4 27.6 160.3 27.6 160.8C27.6 163 27.8 165.1 27.8 167.3C28 171.5 28.1 175.6 28.3 179.8C28.3 180.1 28.6 180.3 28.9 180.1L29.9 179.5C30.1 179.4 30.2 179 29.9 178.8C26.8 177.5 23.6 178.4 20.7 179.8C17.5 181.4 14.4 183.5 11.8 185.9C11.5 186.2 11.8 186.7 12.3 186.5C12.6 186.3 13 186.1 13.3 185.9C13.7 185.6 13.3 185 12.9 185.2C12.6 185.4 12.2 185.6 11.9 185.8L12.4 186.4C14.7 184.3 17.3 182.5 20 181C22.9 179.4 26.4 178 29.7 179.4V178.7L28.7 179.3L29.3 179.6C29.2 175.7 29 171.8 28.9 167.8C28.9 165.8 28.7 163.8 28.7 161.8C28.7 161.2 28.4 159.6 28.7 159.2C28.9 159 29.3 159 29.5 158.7L28.8 158.5C28.9 162.2 29.1 165.8 29.2 169.5C29.2 171.3 29.3 173.1 29.4 175C29.4 176 29.4 177 29.5 178C29.5 178.7 29.5 179.1 28.7 179.1C28.1 179.1 27.4 178.7 26.7 178.6C26 178.6 25.3 178.6 24.6 178.6C23.1 178.8 21.7 179.3 20.4 179.9C17.6 181.2 15.2 183.1 13 185.1C12.7 185.4 13.2 186 13.5 185.6L13.3 185.9Z" fill="#231F20"/>
<path d="M116.5 192.3C116 192.4 115.5 192.5 115 192.6C113.7 192.9 112.4 193.2 111.1 193.6C106.7 194.8 102.3 196.4 98.1 198.4C92.4 201 86.9 204.2 81.8 207.8C75.5 212.4 69.8 217.8 65 224C59.3 231.3 55 239.7 52 248.4C51.6 249.6 51.7 249.2 51.3 250.4C51.3 250.1 51.8 251.7 51.8 251.4C54.4 242.5 58.3 234.1 63.6 226.5C68 220.2 73.4 214.5 79.4 209.7C84.5 205.6 90.1 202.1 96.1 199.4C100.3 197.4 104.6 195.8 109.1 194.5C110.5 194.1 111.8 193.7 113.2 193.4C113.9 193.2 114.5 193.2 115.2 193C115.6 192.9 115.9 192.5 116.2 192.4L116.5 192.3Z" fill="#231F20"/>
<path d="M116.4 191.9C113.4 192.7 110.4 193.3 107.5 194.2C104.6 195.1 101.8 196.2 99 197.4C93.2 200 87.6 203.1 82.4 206.8C72.7 213.6 64.5 222.5 58.6 232.8C55.5 238.3 52.8 244.1 51.1 250.2C51 250.6 51.5 250.8 51.7 250.6L51.1 250.5C51.4 250.8 51.3 251.3 51.6 251.7C51.7 251.9 52 251.8 52.1 251.7C52.3 251.5 52.4 250.9 52.5 250.7C52.7 250 52.9 249.3 53.2 248.6C53.7 247.1 54.2 245.6 54.8 244.2C55.9 241.2 57.3 238.4 58.7 235.6C61.5 230.3 64.9 225.2 68.8 220.7C76.7 211.5 86.6 204.2 97.7 199.2C101 197.7 104.5 196.4 108 195.3C109.7 194.8 111.3 194.3 113 193.9C113.8 193.7 114.7 193.7 115.4 193.4C115.8 193.2 116.2 192.9 116.6 192.7C117 192.5 116.6 191.9 116.2 192C115.7 192.2 115.3 192.5 114.8 192.7C114.1 192.9 113.4 193 112.8 193.1C111.1 193.5 109.5 194 107.8 194.5C105 195.4 102.2 196.4 99.5 197.5C93.8 199.9 88.3 202.9 83.2 206.5C73.5 213.3 65.4 222.2 59.5 232.5C57.8 235.4 56.4 238.5 55.1 241.5C54.5 243 53.9 244.6 53.3 246.1C53 246.9 52.7 247.8 52.4 248.6C52.4 248.9 52.2 249.2 52.1 249.4C52.1 249.7 51.9 250.7 51.6 251H52.1C51.9 250.7 51.9 250.3 51.7 250C51.5 249.8 51.3 249.8 51.1 250L51.7 250.4C54.9 239.4 60.8 229 68.3 220.4C76.2 211.4 86.1 204.3 97 199.2C100.2 197.7 103.4 196.4 106.7 195.3C110 194.2 113.2 193.5 116.5 192.7C117 192.6 116.8 191.9 116.3 192L116.4 191.9Z" fill="#231F20"/>
<path d="M101.3 177.5C100.2 179.9 99.0999 182.3 98.0999 184.7C96.2999 188.9 94.5 193.1 93.2 197.5C93 198.3 92.6999 199.2 92.5999 200C92.5999 200.4 92.2999 201 92.5999 201.3C92.6999 201.5 93.1 201.8 93.2 202L94.4 203.3C97.1 206 99.7 208.7 102.4 211.4C104.3 213.4 106.3 215.4 108.2 217.3C108.2 217.3 109.2 216.6 109.2 216.7C104.9 212.3 100.5 207.9 96.2 203.4C95.4 202.6 94.6 201.8 93.8 200.9C93.6 200.7 93.5 200.7 93.5 200.4C93.5 199.6 93.7 198.9 93.9 198.2C95 193.9 96.7 189.7 98.5 185.7C99.7 182.8 101 179.9 102.4 177.1C102.3 177.4 101.5 177.4 101.4 177.7L101.3 177.5Z" fill="#231F20"/>
<path d="M101 177.3C99 181.5 97.1 185.8 95.3 190.2C94.5 192.2 93.6999 194.3 93.0999 196.4C92.7999 197.5 92.4 198.7 92.2 199.8C92.2 200.3 91.9 200.9 92.2 201.4C92.5 202 93.4 202.6 93.8 203.1L96.5 205.9L101.4 210.8C103.1 212.5 104.8 214.3 106.6 216C107 216.4 107.6 217.4 108.2 217.5C108.6 217.5 108.9 217 109.3 216.9C109.6 216.9 109.7 216.5 109.5 216.3C106.7 213.5 104 210.7 101.3 207.9C99.9 206.5 98.5 205.1 97.2 203.7L95.0999 201.6C94.7999 201.3 94.1999 200.9 94.0999 200.6C93.7999 200 94.0999 199.4 94.0999 198.8C94.9999 195 96.4 191.4 97.9 187.8C99.4 184.2 101 180.6 102.7 177C102.9 176.6 102.4 176.2 102.1 176.5C101.8 176.8 101.4 176.8 101.1 177.1C100.8 177.4 101.3 178 101.6 177.6C101.9 177.3 102.3 177.3 102.6 177L102 176.5C100.2 180.2 98.5 184 97 187.8C95.5 191.6 93.6 195.5 93.2 199.5C93 201 94.3 201.7 95.2 202.6C96.7 204.1 98.2 205.6 99.7 207.1C102.8 210.2 105.9 213.4 109 216.5L109.2 215.9C109 215.9 108.9 216 108.8 216.1C108.8 216.1 108.6 216.2 108.5 216.3C108.3 216.5 108.3 216.5 108.2 216.3C107.9 216.2 107.4 215.5 107.2 215.3L106.2 214.3C104.7 212.8 103.2 211.3 101.7 209.8L97.2 205.2L94.9 202.9C94.4 202.4 93.4 201.7 93 201C92.6 200.3 93.2 198.8 93.4 198.1C93.7 197.1 94 196 94.3 195C95 193.1 95.7 191.2 96.5 189.3C98.1 185.3 99.9 181.4 101.7 177.5C101.9 177.1 101.3 176.7 101 177.1V177.3Z" fill="#231F20"/>
<path d="M107.8 220.1C107.8 219.1 108.1 218.1 108.6 217.3C108.8 216.9 109.1 216.6 109.4 216.3C109.6 216.1 109.8 216 110 215.8C109 216.6 109.3 216.2 109.7 216C109.8 216 109.9 216 110.1 215.9C111.9 215.3 113.9 216.1 114.9 217.6C115.9 219.1 116.2 221.4 115.2 223.1C115 223.5 114.7 223.8 114.4 224.1C114.2 224.3 114.1 224.4 113.9 224.5C113.8 224.5 113.6 224.7 113.5 224.8C114.5 224 114.2 224.4 113.8 224.6C113 225 112 225 111.1 224.8C109 224.2 107.7 222.1 107.6 220L107.1 220.3C107.1 220.3 106.6 220.5 106.6 220.6C106.6 222.8 108 224.9 110.2 225.4C111.2 225.6 112.2 225.4 113.2 225C114.1 224.6 115 224.1 115.6 223.3C117.1 221.6 117.2 219 116 217.1C114.8 215.2 112.5 214.5 110.5 215.4C109.6 215.8 108.6 216.4 108 217.1C107.2 218 106.7 219.3 106.7 220.5L107.2 220.2C107.2 220.2 107.7 220 107.7 219.9L107.8 220.1Z" fill="#231F20"/>
<path d="M108.2 220.1C108.2 218.5 108.9 217.1 110.2 216.2C110.6 215.9 110.2 215.3 109.8 215.5C109.6 215.6 109.5 215.7 109.3 215.8C109.1 215.8 109.1 215.9 109.3 215.8L109.6 216.4C109.6 216.6 109.6 216.4 109.7 216.4C109.9 216.4 110.1 216.2 110.4 216.2C110.9 216.1 111.5 216.1 112.1 216.2C113.2 216.4 114.2 217.2 114.8 218.1C116.1 220.3 115.5 223.1 113.5 224.5L113.9 225.2C114.1 225.1 114.2 225 114.4 224.9C114.6 224.8 114.6 224.9 114.4 224.9L114.2 224.4C114.2 224.4 114 224.5 113.9 224.5C113.4 224.7 113 224.7 112.5 224.7C111.7 224.7 110.9 224.4 110.3 224C109.1 223.1 108.4 221.7 108.4 220.2C108.4 219.9 108 219.7 107.8 219.9C107.6 220.1 107.2 220.2 107 220.3C106.6 220.6 106.7 221.1 106.8 221.5C107 222.6 107.5 223.7 108.3 224.5C109.1 225.3 110.2 225.9 111.3 226C112.7 226.1 113.9 225.5 115.1 224.8C117.2 223.4 118.2 220.8 117.4 218.4C116.7 216.2 114.6 214.6 112.2 214.9C110.8 215.1 109.4 215.8 108.4 216.8C107.3 217.8 106.8 219.3 106.7 220.8C106.7 221.1 107.1 221.3 107.3 221.1C107.6 220.8 108.1 220.8 108.4 220.4C108.7 220 108 219.6 107.7 220C107.7 219.8 107.7 220 107.5 220C107.5 220 107.3 220 107.3 220.1C107.1 220.1 106.9 220.3 106.7 220.4L107.3 220.7C107.3 219.5 107.7 218.4 108.5 217.5C109.2 216.7 110.3 216.1 111.3 215.7C113.2 215.1 115.3 216.1 116.2 217.9C117.1 219.7 116.8 222.2 115.2 223.6C113.5 225.1 111 225.9 109.1 224.4C108.3 223.8 107.8 222.8 107.5 221.8C107.5 221.5 107.5 221.2 107.4 220.9C107.4 220.8 107.4 220.7 107.3 220.9C107.3 220.9 107.5 220.9 107.5 220.8C107.7 220.7 108.1 220.6 108.3 220.4L107.7 220.1C107.7 221.9 108.6 223.7 110.2 224.7C111 225.2 112.1 225.5 113.1 225.4C113.6 225.4 114.6 225.2 114.9 224.7C115 224.5 114.9 224.2 114.7 224.2C114.3 224.2 114 224.5 113.7 224.7C113.3 225 113.7 225.6 114.1 225.4C115.3 224.5 116.2 223.3 116.4 221.8C116.6 220.3 116.4 218.8 115.5 217.6C114.7 216.5 113.5 215.7 112.2 215.5C111.5 215.5 110.8 215.5 110.2 215.7C109.9 215.7 109.4 215.9 109.2 216.2C109 216.5 109.2 216.7 109.5 216.8C109.8 216.9 110.2 216.4 110.4 216.3L110 215.6C108.5 216.7 107.6 218.3 107.6 220.2C107.6 220.7 108.3 220.7 108.4 220.2L108.2 220.1Z" fill="#231F20"/>
<path d="M115.2 191.5C115.2 193.4 116.4 195.4 118.4 195.9C119.3 196.1 120.2 195.9 120.9 195.5C121.6 195.1 122.5 194.7 123 194C124.3 192.5 124.4 190.1 123.4 188.4C122.4 186.8 120.5 185.9 118.7 186.7C117.9 187.1 116.9 187.6 116.3 188.3C115.5 189.2 115.2 190.3 115.1 191.5L115.6 191.2C115.6 191.2 116.1 191 116.1 190.9C116.1 190 116.3 189.2 116.8 188.4C117 188.1 117.3 187.7 117.6 187.4C117.8 187.3 117.9 187.1 118.1 187C118.6 186.7 116.9 187.6 117.7 187.3C117.7 187.3 117.9 187.3 118 187.2C119.6 186.7 121.3 187.4 122.2 188.7C123.2 190.1 123.3 192.1 122.6 193.7C122.4 194.1 122.2 194.4 121.9 194.7C121.8 194.8 121.6 195 121.5 195.1C121.5 195.1 121.3 195.2 121.3 195.3C120.6 195.8 122.5 194.8 121.6 195.1C120.9 195.4 120 195.5 119.3 195.3C117.4 194.8 116.3 192.8 116.3 191L115.8 191.3C115.8 191.3 115.3 191.5 115.3 191.6L115.2 191.5Z" fill="#231F20"/>
<path d="M114.9 191.5C114.9 193.3 115.9 195.3 117.6 196C118.6 196.4 119.8 196.4 120.8 196C121.8 195.6 122.8 195 123.4 194.2C124.7 192.6 124.9 190.4 124 188.6C123.1 186.8 121.2 185.7 119.2 186.2C118.1 186.5 116.8 187.2 116.1 188.1C115.3 189.1 114.9 190.3 114.8 191.5C114.8 191.8 115.2 192 115.4 191.8C115.5 191.7 115.9 191.5 116.2 191.4C116.7 191.1 116.6 190.6 116.7 190.1C116.8 189.4 117.1 188.8 117.5 188.2C117.7 187.9 118 187.7 118.2 187.5C118.3 187.5 118.5 187.3 118.5 187.2C118.5 187 118.5 186.8 118.4 186.7C118.1 186.5 117.4 187 117.2 187.2C117.2 187.3 117.2 187.5 117.2 187.7C117.4 188 117.8 187.7 118.1 187.7C118.6 187.5 119.2 187.5 119.7 187.7C120.8 187.9 121.7 188.8 122.2 189.8C122.7 190.8 122.7 192.1 122.4 193.2C122.2 193.8 121.9 194.4 121.4 194.8C121.2 195 120.7 195.2 120.7 195.5C120.7 195.7 120.7 195.9 121 196C121.3 196 122 195.7 122.1 195.4C122.1 195.3 122.1 195.1 122.1 195C121.8 194.6 121.2 195 120.8 195C120 195.2 119.1 195 118.4 194.5C117.2 193.7 116.6 192.3 116.6 190.9C116.6 190.6 116.2 190.4 116 190.6C115.8 190.8 115.1 190.9 114.9 191.3C114.7 191.7 115.3 192.1 115.6 191.7H115.8C115.8 191.7 116 191.7 116 191.6C116.2 191.6 116.4 191.4 116.5 191.3L115.9 191C115.9 192.5 116.5 194 117.7 194.9C118.3 195.4 119 195.7 119.7 195.8C120.2 195.8 120.6 195.8 121 195.8C121.2 195.8 121.5 195.7 121.7 195.6C121.7 195.6 122 195.6 121.8 195.6L121.5 195.4V195C121.5 195 121.4 195 121.3 195.1C121.3 195.1 121.2 195.1 121.1 195.1C121.1 195.1 121.1 195.1 121.2 195.1L121.5 195.6C121.4 195.7 121.5 195.8 121.5 195.6C121.5 195.6 121.7 195.4 121.8 195.4C122 195.2 122.3 194.9 122.5 194.7C122.9 194.2 123.2 193.6 123.3 193C123.6 191.8 123.6 190.5 123.1 189.4C122.6 188.3 121.8 187.4 120.6 187C120.1 186.8 119.5 186.7 119 186.7C118.7 186.7 118.4 186.7 118.1 186.9C117.9 186.9 117.8 186.9 117.6 187.1H117.9C117.9 187.4 117.9 187.5 117.9 187.7C117.8 187.7 117.9 187.8 117.9 187.7C117.9 187.7 118 187.7 118.1 187.6C118.1 187.6 118.2 187.6 118.3 187.6C118.4 187.6 118.4 187.6 118.3 187.6H118C118 187.4 118 187.2 117.9 187.1C117.9 186.9 117.9 187.1 117.8 187.1C117.7 187.1 117.6 187.3 117.5 187.3C117.3 187.5 117.1 187.8 116.9 188C116.5 188.5 116.3 189.1 116.1 189.7C116.1 190 116 190.3 115.9 190.6C115.9 190.6 115.9 191 115.9 190.8C115.9 190.8 115.7 190.8 115.7 190.9C115.5 191 115.1 191.1 114.9 191.3L115.5 191.6C115.5 190.7 115.8 189.8 116.3 189C116.8 188.2 117.8 187.7 118.6 187.3C120.2 186.6 121.9 187.1 122.9 188.6C123.9 190.1 123.9 192 122.9 193.4C122.4 194.2 121.7 194.7 120.9 195.1C120 195.6 119.1 195.9 118.1 195.6C116.3 195.1 115.4 193.3 115.3 191.6C115.3 191.1 114.5 191.1 114.5 191.6L114.9 191.5Z" fill="#231F20"/>
<path d="M105.8 172.6C105.8 173.6 105.6 174.7 105.1 175.6C104.9 176 104.7 176.3 104.4 176.6C104.3 176.8 104.1 176.9 103.9 177.1C103.9 177.1 103.8 177.2 103.7 177.3C103 177.8 104.5 177 104 177.1C102.3 177.6 100.8 176.8 100 175.3C99 173.5 98.9 171.3 99.7 169.4C100 168.6 100.6 167.9 101.3 167.3C101.7 167 100.4 167.7 100.9 167.5H101.1C101.3 167.5 101.5 167.5 101.7 167.4C102.1 167.4 102.5 167.4 102.9 167.6C104.9 168.3 105.7 170.8 105.8 172.7C105.8 172.5 106.8 172.3 106.8 172.1C106.8 170.1 105.9 167.5 103.8 166.9C103 166.7 102.1 166.9 101.4 167.3C100.6 167.8 99.8 168.2 99.2 169.1C97.9 171 97.8001 173.7 98.9001 175.7C99.7001 177.4 101.6 178.6 103.4 177.6C104.3 177.1 105.1 176.6 105.7 175.8C106.5 174.7 106.8 173.4 106.8 172.1L106.3 172.4C106.3 172.4 105.8 172.6 105.8 172.7V172.6Z" fill="#231F20"/>
<path d="M105.4 172.6C105.4 173.7 105.2 174.8 104.6 175.8C104.3 176.2 104 176.6 103.6 176.9C103.4 177 103.3 177.1 103.3 177.4C103.3 177.6 103.5 177.8 103.7 177.8C104 177.8 104.8 177.4 104.6 177C104.6 176.8 104.4 176.8 104.2 176.7C104.1 176.7 103.9 176.7 103.8 176.7C103.5 176.7 103.3 176.8 103 176.7C102.5 176.7 101.9 176.5 101.5 176.2C100.5 175.5 100 174.4 99.7 173.3C99.4 172.2 99.5 170.9 99.9 169.8C100.1 169.2 100.4 168.6 100.8 168.1C101.1 167.8 101.5 167.5 101.7 167.2C101.7 167.1 101.7 166.9 101.7 166.7C101.4 166.4 100.3 166.9 100.5 167.4C100.5 167.6 100.7 167.7 100.9 167.7C101.1 167.7 101.3 167.6 101.5 167.5C102 167.5 102.4 167.5 102.9 167.5C103.5 167.7 104.1 168.2 104.4 168.7C105.1 169.7 105.4 171 105.4 172.2C105.4 172.6 106 172.7 106.1 172.2C106.1 172.2 106.3 172.2 106.4 172.1C106.6 172.1 106.7 172 106.8 171.9C107.1 171.6 107 171.1 106.9 170.7C106.8 169.7 106.5 168.7 105.9 167.8C105.3 166.9 104.5 166.2 103.4 166C102.1 165.7 100.9 166.4 99.9 167.1C97.9 168.5 97.2 171.1 97.6 173.5C98 175.6 99.6 178.1 102 177.8C103.3 177.7 104.7 176.7 105.5 175.7C106.4 174.5 106.8 173 106.8 171.6C106.8 171.3 106.4 171.1 106.2 171.3C105.9 171.6 105.4 171.6 105.1 172C104.8 172.4 105.5 172.8 105.8 172.4C105.8 172.5 106 172.4 106 172.4C106 172.4 106.1 172.4 106.2 172.4C106.4 172.4 106.6 172.2 106.7 172.1L106.1 171.8C106.1 173 105.8 174.1 105.2 175.1C104.6 176 103.6 176.7 102.6 177.1C100.5 177.9 98.8 175.8 98.4 174C97.9 172.1 98.4 169.6 99.9 168.3C100.7 167.6 101.8 166.9 102.9 167C103.9 167 104.7 167.7 105.2 168.4C105.7 169.1 106 170.1 106.1 171.1C106.1 171.3 106.1 171.6 106.1 171.8C106.1 171.7 106.2 171.8 106.1 171.8H105.9C105.6 171.9 105.3 172 105.2 172.3H105.9C105.9 170.9 105.5 169.4 104.6 168.3C104.2 167.7 103.6 167.3 102.9 167C102.5 166.8 102 166.7 101.5 166.8C101.3 166.8 101 166.8 100.8 166.9C100.8 166.9 100.4 167 100.5 167L100.9 167.3C100.9 167.3 100.9 167.5 100.9 167.6C100.8 167.8 100.9 167.6 101.1 167.6H101.3H100.9C100.9 167.4 100.9 167.2 100.9 167.1C100.9 167.1 100.8 167.1 100.7 167.2C100.6 167.3 100.4 167.4 100.3 167.5C100.1 167.7 99.8 168 99.7 168.3C99.3 168.8 99.1 169.4 98.9 170.1C98.5 171.4 98.5 172.8 98.9 174.1C99.2 175.3 99.9 176.4 100.9 177.1C101.4 177.4 101.9 177.6 102.4 177.7C102.7 177.7 103 177.7 103.3 177.7C103.5 177.7 103.6 177.7 103.7 177.7C103.7 177.7 104 177.7 103.9 177.7L103.5 177.4C103.5 177.4 103.5 177.2 103.5 177.1C103.5 177 103.4 177.1 103.4 177.1L103.8 177.5C103.8 177.5 103.8 177.7 103.7 177.8C103.9 177.6 104.2 177.4 104.4 177.2C104.8 176.8 105.1 176.4 105.3 175.9C105.8 174.9 106 173.9 106 172.8C106 172.3 105.3 172.3 105.2 172.8L105.4 172.6Z" fill="#231F20"/>
<path d="M32 156C32 156.8 31.7 157.5 31.2 158C31.1 158.1 30.9 158.3 30.8 158.4C30.8 158.4 30.6 158.6 30.5 158.6C30.1 158.9 31.5 158.1 30.7 158.5C30.3 158.7 29.8 158.8 29.4 158.9C27.7 159.2 25.6 158.9 24.3 157.6C23.1 156.5 22.9 154.8 23.9 153.5C24.1 153.2 24.4 153 24.7 152.7C25.4 152.2 23.9 153 24.5 152.8C24.6 152.8 24.7 152.7 24.9 152.6C25.1 152.6 25.3 152.4 25.6 152.4C26.5 152.2 27.5 152.1 28.4 152.4C30.2 152.7 32.1 154 32.1 155.9L32.6 155.6C32.6 155.6 33.1 155.4 33.1 155.3C33.1 153.2 31 152 29.2 151.7C27.2 151.4 25.2 152.1 23.6 153.4C22.1 154.6 21.8 156.6 23.1 158C24.6 159.6 27.1 159.9 29 159.3C29.9 159 30.8 158.5 31.6 157.9C32.4 157.3 33 156.4 33 155.3L32.5 155.6C32.5 155.6 32 155.8 32 155.9V156Z" fill="#231F20"/>
<path d="M31.6 156C31.6 156.7 31.3 157.3 30.8 157.8C30.5 158.1 30 158.3 30 158.7C30 158.9 30.2 159.1 30.4 159.1C30.6 159.1 31.1 158.9 31.2 158.7C31.2 158.6 31.4 158.4 31.2 158.2C31.2 158.2 31 158 30.9 158C30.5 158 30.2 158.3 29.8 158.4C29.3 158.6 28.7 158.6 28.1 158.6C27 158.6 25.9 158.3 25 157.7C24.1 157.1 23.5 156.1 23.6 155C23.6 154.4 23.9 153.9 24.3 153.5C24.5 153.3 25 153 25.1 152.7C25.1 152.5 25.1 152.3 25 152.2C24.7 152.1 24.1 152.4 24 152.6C23.9 152.8 24 153.1 24.2 153.1C24.4 153.1 24.6 153.1 24.7 153C25.1 152.8 25.6 152.7 26 152.6C26.9 152.4 27.9 152.6 28.8 152.8C30.2 153.2 31.5 154.3 31.6 155.8C31.6 156.1 32 156.3 32.2 156.1C32.4 155.9 32.8 155.8 33 155.7C33.4 155.4 33.3 155.1 33.3 154.6C33.1 153.6 32.4 152.8 31.6 152.2C29.6 150.9 27.1 151 25 151.9C23.9 152.4 22.8 153.1 22.2 154.2C21.7 155.1 21.6 156.2 22 157.1C22.9 159.1 25.4 160 27.5 159.8C28.9 159.7 30.2 159.1 31.4 158.3C32.5 157.6 33.2 156.5 33.3 155.2C33.3 154.9 32.9 154.7 32.7 154.9C32.4 155.2 31.9 155.2 31.6 155.6C31.3 156 32 156.4 32.3 156C32.3 156 32.6 155.8 32.8 155.8C33 155.8 33.2 155.6 33.3 155.5L32.7 155.2C32.7 156.3 32 157.1 31.2 157.7C30.4 158.3 29.4 158.8 28.4 159C26.6 159.4 24.5 159 23.3 157.5C22.7 156.8 22.5 155.8 22.8 155C23.1 154.2 23.9 153.5 24.7 153C26.5 152 28.7 151.6 30.6 152.5C31.4 152.9 32.2 153.5 32.5 154.4C32.5 154.6 32.5 154.9 32.7 155.1C32.7 155.1 32.5 155.1 32.4 155.2C32.2 155.3 31.9 155.4 31.7 155.6L32.3 155.9C32.3 154.2 31 153 29.5 152.4C28.7 152.1 27.7 151.9 26.8 151.9C26.3 151.9 25.8 151.9 25.3 152.1C25 152.1 24.8 152.3 24.5 152.4C24.5 152.4 24.3 152.4 24.3 152.5C24.1 152.5 24.2 152.5 24.3 152.5L24.5 153C24.4 153.2 24.5 153 24.6 153H24.8H24.5C24.5 152.8 24.5 152.6 24.4 152.5C24.3 152.5 24.1 152.7 24 152.8C23.8 153 23.5 153.3 23.4 153.5C23.1 154 22.9 154.5 22.8 155C22.7 156.2 23.3 157.3 24.1 158C24.9 158.7 26.2 159.2 27.4 159.3C28 159.3 28.6 159.3 29.2 159.3C29.5 159.3 29.9 159.2 30.2 159.1C30.4 159.1 30.5 159 30.7 158.9C30.7 158.9 31 158.9 30.8 158.9L30.5 158.7C30.5 158.5 30.5 158.4 30.5 158.2C30.5 158.2 30.5 158.2 30.3 158.2C30.2 158.2 30 158.2 30.2 158.2L30.6 158.6C30.6 158.6 30.6 158.8 30.5 158.9C30.6 158.7 30.9 158.6 31 158.5C31.2 158.3 31.5 158 31.7 157.7C32 157.2 32.2 156.6 32.2 155.9C32.2 155.4 31.5 155.4 31.4 155.9L31.6 156Z" fill="#231F20"/>
<path d="M13.6 165.3C13.6 166.2 13.2 166.9 12.5 167.5C12.3 167.6 12.2 167.8 12 167.9C11.2 168.4 12.6 167.6 12 167.9C11.9 167.9 11.8 168 11.6 168.1C11.1 168.3 10.5 168.5 9.90003 168.6C7.80003 169 5.29998 168.6 3.59998 167.2C2.19998 166.1 1.89998 164.3 3.09998 162.9C3.19998 162.7 3.39998 162.6 3.59998 162.4C3.59998 162.4 3.80003 162.2 3.90003 162.2C4.20003 162 4.40002 162.2 3.70002 162.2C4.30002 162 4.80003 161.7 5.40003 161.6C6.60003 161.3 7.80001 161.3 9.00001 161.6C10.9 161.9 13.5 163.1 13.5 165.4C13.5 165.2 14.5 165 14.5 164.8C14.5 162.4 11.6 161.2 9.59998 161C7.19998 160.7 4.90001 161.4 3.00001 162.7C2.20001 163.2 1.50003 164 1.40003 165C1.30003 166 1.70003 166.9 2.40003 167.6C4.30003 169.4 7.50003 169.6 9.90003 169C11 168.7 12 168.1 12.9 167.5C13.8 166.9 14.5 166 14.6 164.8C14.6 165 13.6 165.2 13.6 165.4V165.3Z" fill="#231F20"/>
<path d="M13.3 165.3C13.3 166 13 166.5 12.5 167C12.2 167.3 11.8 167.5 11.6 167.8C11.6 167.9 11.4 168.1 11.6 168.3C11.6 168.5 11.9 168.5 12 168.5C12.3 168.5 12.7 168.2 12.7 167.9C12.7 167.7 12.5 167.5 12.3 167.5C11.9 167.5 11.5 167.8 11.1 167.9C10.5 168.1 9.79999 168.2 9.09999 168.2C7.89999 168.2 6.69999 168.2 5.59999 167.7C4.49999 167.2 3.40002 166.5 3.00002 165.4C2.80001 164.8 2.89999 164.2 3.09999 163.7C3.29999 163.4 3.50003 163.1 3.70003 162.9C3.90003 162.7 3.90002 162.7 4.00002 162.6C4.30001 162.4 4.20002 162.6 4.00002 162.4V161.8C3.80001 161.8 3.69999 161.8 3.59999 161.8C3.09999 162 3.3 162.7 3.8 162.5C4.9 162.2 5.89999 161.7 7.09999 161.7C8.09999 161.7 9.00004 161.7 9.90004 162C11.4 162.5 13.1 163.4 13.1 165.2C13.1 165.6 13.7 165.7 13.8 165.2C13.8 165.4 14.1 165.2 14.2 165.2C14.4 165.2 14.5 165.1 14.7 164.9C15 164.6 14.8 164 14.7 163.7C14.4 162.7 13.6 161.9 12.7 161.4C10.5 160.1 7.7 160 5.3 160.8C3.1 161.6 -0.200009 163.5 1.09999 166.4C2.19999 168.8 5.4 169.6 7.8 169.4C9.4 169.3 10.9 168.8 12.3 167.9C13.6 167.1 14.7 166.1 14.8 164.5C14.8 164.1 14.3 164 14.1 164.3C14.1 164.4 13.5 164.5 13.4 164.6C13.2 164.6 13.1 164.8 13 165C12.8 165.5 13.5 165.6 13.7 165.2C13.7 165.2 14.2 165.1 14.3 165C14.5 165 14.6 164.8 14.7 164.7L14 164.5C14 165.8 13 166.6 11.9 167.2C10.8 167.8 9.70004 168.3 8.40004 168.5C6.30004 168.8 3.90004 168.5 2.40004 166.8C1.40004 165.8 1.4 164.4 2.3 163.4C3.1 162.5 4.3 161.9 5.3 161.5C7.3 160.7 9.59999 160.7 11.6 161.5C12.5 161.9 13.4 162.5 13.8 163.4C13.8 163.6 14 164 14 164.2C14 164.2 13.8 164.2 13.7 164.3C13.4 164.4 13.2 164.5 13 164.8H13.7C13.7 163 12.1 161.8 10.4 161.2C9.40004 160.8 8.3 160.7 7.3 160.7C6.7 160.7 6.00004 160.7 5.40004 160.9C4.70004 161 4.10002 161.3 3.50002 161.6L3.70003 162.3C3.90003 162.3 4.2 162.2 4.3 162C4.5 161.8 4.4 161.5 4.3 161.4C3.9 161.1 3.39999 161.7 3.09999 161.9C2.59999 162.4 2.20002 163 2.00002 163.7C1.70002 165.1 2.40004 166.4 3.40004 167.2C4.60004 168.1 6.00004 168.5 7.40004 168.7C8.20004 168.7 8.90003 168.7 9.70003 168.7C10.2 168.7 10.6 168.5 11.1 168.4C11.3 168.4 11.9 168 12 168L11.6 167.6C11.6 167.8 11.7 167.1 11.6 167.4C11.6 167.4 11.4 167.4 11.5 167.4L11.9 167.6C11.9 167.7 11.9 167.9 11.9 168.1C12.2 167.7 12.8 167.4 13.1 166.9C13.5 166.3 13.7 165.7 13.8 165C13.8 164.5 13.1 164.5 13 165L13.3 165.3Z" fill="#231F20"/>
<path d="M12.5 187.8C12.5 188.8 12.2 189.8 11.6 190.6C11.3 191 11 191.3 10.7 191.6C10.6 191.7 10.4 191.8 10.3 191.9C11 191.4 10.9 191.6 10.5 191.7C10.3 191.8 10 191.9 9.7 192C7.7 192.5 5.5 191.8 4.2 190.2C2.9 188.6 2.79997 186.4 3.79997 184.7C3.99997 184.3 4.29996 184 4.59996 183.7C4.79996 183.5 5 183.4 5.2 183.2C5.7 182.9 4.19999 183.7 4.99999 183.3C5.19999 183.3 5.29999 183.2 5.49999 183.1C6.49999 182.8 7.49999 182.7 8.49999 183C10.7 183.5 12.3 185.5 12.4 187.8L12.9 187.5C12.9 187.5 13.4 187.3 13.4 187.2C13.4 184.9 11.7 182.9 9.40001 182.4C8.20001 182.2 7.00001 182.3 5.90001 182.8C5.00001 183.2 4.10001 183.7 3.40001 184.4C1.80001 186.1 1.50001 188.7 2.90001 190.6C4.30001 192.5 6.89996 193.3 9.09996 192.4C11.3 191.5 13.3 189.8 13.3 187.2L12.8 187.5C12.8 187.5 12.3 187.7 12.3 187.8H12.5Z" fill="#231F20"/>
<path d="M12.2 187.8C12.2 189.4 11.4 190.6 10.2 191.6L10.7 192.2C10.7 192.2 10.9 192.1 11 192C11.1 192 11 192 10.9 192L10.7 191.5C10.5 191.5 10.4 191.6 10.2 191.7C9.9 191.7 9.5 191.9 9.2 191.9C8.6 191.9 7.89998 191.9 7.29998 191.7C6.09998 191.4 5.00001 190.5 4.40001 189.4C3.80001 188.3 3.7 186.9 4.2 185.7C4.4 185 4.90001 184.5 5.40001 184C5.60001 183.8 6.19996 183.6 6.09996 183.2C6.09996 183 5.9 182.9 5.7 182.9C5.4 182.9 4.89998 183.2 4.79998 183.5C4.79998 183.7 4.9 184 5.2 184C5.5 184 5.69998 183.8 5.79998 183.8C6.29998 183.6 6.79998 183.5 7.29998 183.5C8.19998 183.5 9.19999 183.6 9.99999 184.1C11.5 184.9 12.3 186.4 12.4 188.1C12.4 188.4 12.8 188.6 13 188.4C13.2 188.2 13.6 188.1 13.9 187.9C14.3 187.6 14.1 187 14.1 186.5C13.9 185.3 13.2 184.2 12.3 183.4C11.3 182.6 10.1 182.1 8.79998 182.1C7.29998 182.1 5.79996 182.7 4.59996 183.5C2.39996 185 1.39996 187.8 2.59996 190.3C3.69996 192.6 6.50001 193.8 8.90001 193.2C11.6 192.6 14.1 190.3 14.1 187.4C14.1 187.1 13.7 186.9 13.5 187.1C13.2 187.4 12.7 187.4 12.4 187.8C12.1 188.2 12.8 188.6 13.1 188.2C13.1 188.2 13.4 188 13.6 188C13.8 188 14 187.8 14.1 187.7L13.5 187.4C13.5 189.7 11.7 191.3 9.79998 192.1C7.89998 192.9 5.30001 192.5 3.90001 190.7C2.50001 188.9 2.70001 186.2 4.40001 184.7C6.20001 183 9 182.1 11.2 183.4C12.2 184 13 184.9 13.4 186C13.4 186.3 13.6 186.6 13.6 186.9C13.6 186.9 13.6 187.1 13.6 187.2C13.8 187.1 13.8 187.1 13.6 187.2C13.6 187.2 13.5 187.2 13.4 187.2C13.2 187.3 12.8 187.4 12.6 187.6L13.2 187.9C13.2 186.1 12.2 184.4 10.7 183.4C9.9 182.9 8.89999 182.6 7.99999 182.5C7.49999 182.5 6.90001 182.5 6.40001 182.7C6.10001 182.7 5.89996 182.9 5.59996 183H5.40001L5.79998 183.5C5.79998 183.8 5.59998 183.7 5.79998 183.6C5.79998 183.6 5.80001 183.6 5.90001 183.6L5.49999 183.3C5.49999 183.2 5.49999 183.1 5.49999 182.9C5.29999 183.1 4.99998 183.3 4.79998 183.5C4.49998 183.7 4.29996 184 4.09996 184.3C3.69996 184.9 3.39998 185.6 3.29998 186.3C3.09998 187.8 3.39998 189.3 4.29998 190.4C5.19998 191.5 6.49999 192.3 7.99999 192.5C8.69999 192.5 9.39999 192.5 9.99999 192.5C10.4 192.5 11.2 192.3 11.5 191.8C11.6 191.6 11.5 191.3 11.3 191.3C11 191.3 10.6 191.6 10.4 191.7C10.1 192 10.5 192.5 10.9 192.3C12.4 191.2 13.3 189.8 13.3 187.9C13.3 187.4 12.6 187.4 12.5 187.9L12.2 187.8Z" fill="#231F20"/>
<path d="M80.5 151.7C80.5 150.8 80.8 149.9 81.3 149.2C81.5 148.9 81.8 148.6 82.1 148.4C82.1 148.4 82.3 148.3 82.4 148.2C83.1 147.7 81.4 148.7 82 148.4C82.2 148.3 82.5 148.2 82.8 148.1C84.5 147.6 86.3 148.2 87.4 149.6C88.5 151 88.6 153 87.7 154.5C87.5 154.8 87.2 155.2 87 155.5C86.9 155.6 86.7 155.8 86.6 155.9C86.2 156.2 86.4 156.1 87.1 155.7C86.9 155.7 86.8 155.9 86.6 155.9C85.8 156.2 84.9 156.2 84 156C82 155.5 80.7 153.7 80.7 151.7L80.2 152C80.2 152 79.7 152.2 79.7 152.3C79.7 154.3 81.1 156.1 83.1 156.6C84.1 156.8 85.1 156.7 86.1 156.3C86.9 155.9 87.8 155.4 88.4 154.8C89.8 153.3 90 151 88.9 149.3C87.8 147.6 85.6 146.9 83.7 147.6C81.7 148.4 79.9 150 79.9 152.3L80.4 152C80.4 152 80.9 151.8 80.9 151.7H80.5Z" fill="#231F20"/>
<path d="M80.9 151.7C80.9 150.8 81.2 149.9 81.8 149.2C82 148.9 82.3 148.6 82.7 148.4C82.8 148.4 83 148.2 83 148C83 147.8 82.8 147.6 82.6 147.6C82.3 147.6 81.5 148 81.5 148.4C81.5 148.6 81.7 148.8 81.9 148.8C82.3 148.8 82.7 148.5 83.1 148.4C83.6 148.3 84.2 148.3 84.7 148.4C85.8 148.6 86.7 149.3 87.3 150.2C87.9 151.1 88.1 152.3 87.8 153.4C87.6 154 87.3 154.5 86.9 155C86.6 155.3 86.3 155.5 86 155.8C85.8 156 86 156.4 86.3 156.4C86.6 156.4 87 156.1 87.2 155.9C87.6 155.7 87.2 155.1 86.8 155.2C85.4 155.9 83.8 155.8 82.6 154.8C81.6 154 81 152.8 81 151.6C81 151.3 80.6 151.1 80.4 151.3C80.3 151.4 79.8 151.6 79.6 151.7C79.2 152 79.3 152.4 79.3 152.8C79.5 153.9 80 154.9 80.8 155.6C81.6 156.4 82.8 156.9 83.9 156.9C85.2 156.9 86.5 156.3 87.5 155.6C89.5 154.3 90.3 151.8 89.3 149.5C88.4 147.4 85.9 146.3 83.7 146.9C81.3 147.6 79.3 149.5 79.2 152.1C79.2 152.4 79.6 152.6 79.8 152.4C80 152.2 80.7 152.1 80.9 151.7C81.1 151.3 80.5 150.9 80.2 151.3H80C80 151.3 79.8 151.3 79.8 151.4C79.6 151.4 79.4 151.6 79.3 151.7L79.9 152C79.9 150.1 81.3 148.7 83 147.9C84.8 147.1 86.9 147.4 88.1 148.9C89.3 150.4 89.2 152.9 87.8 154.3C86.3 155.8 83.8 156.6 81.9 155.5C81 155 80.4 154.1 80.1 153.1C80.1 152.9 80 152.6 79.9 152.3C79.9 152 79.9 152.2 79.9 152.3C79.9 152.3 80.1 152.3 80.2 152.2C80.4 152.1 80.8 152 80.9 151.8L80.3 151.5C80.3 153 81.1 154.5 82.3 155.4C83.8 156.5 85.7 156.5 87.3 155.7L86.9 155C86.7 155 86.6 155.2 86.4 155.3C86.1 155.3 86.2 155.4 86.4 155.3L86.7 155.9H86.8C86.8 155.9 87 155.8 87.1 155.7C87.4 155.5 87.6 155.2 87.8 155C88.2 154.5 88.5 153.9 88.7 153.3C89 152.1 88.9 150.7 88.2 149.6C87.5 148.5 86.6 147.8 85.4 147.4C84.8 147.2 84.2 147.2 83.6 147.2C83.3 147.2 83 147.2 82.7 147.4C82.5 147.4 82.4 147.5 82.2 147.6C82.2 147.6 81.7 147.7 82 147.7L82.4 148.1C82.4 148.1 82.4 148.3 82.3 148.4C82.3 148.4 82.4 148.4 82.5 148.3C82.6 148.2 82.6 148.3 82.7 148.2L82.3 147.8C82.3 147.8 82.3 147.6 82.4 147.5C82.2 147.7 81.9 147.8 81.7 148C81.4 148.3 81.1 148.6 80.9 149C80.4 149.8 80.2 150.6 80.2 151.5C80.2 152 80.9 152 81 151.5L80.9 151.7Z" fill="#231F20"/>
<path d="M101.4 142.7C101.4 141.8 101.6 140.9 102.1 140.1C102.3 139.8 102.6 139.4 102.9 139.2C103.1 139 103.3 138.9 103.4 138.8C102.6 139.5 102.7 139.1 103.1 139C103.2 139 103.3 139 103.4 138.9C105.1 138.4 106.8 139.2 107.8 140.6C108.8 142 108.9 144.1 108.1 145.6C107.9 146 107.7 146.3 107.4 146.6C107.3 146.8 107.1 146.9 107 147C106.9 147 106.7 147.2 106.6 147.3L107.2 147C107.2 147 107 147 106.9 147.1C106.1 147.4 105.2 147.4 104.4 147.2C102.5 146.6 101.3 144.7 101.3 142.7L100.8 143C100.8 143 100.3 143.2 100.3 143.3C100.3 145.3 101.6 147.3 103.6 147.8C104.5 148 105.5 147.8 106.3 147.4C107.1 147 107.9 146.5 108.5 145.8C109.8 144.2 110 141.8 108.9 140.1C107.8 138.4 105.8 137.6 103.9 138.4C103 138.8 102.1 139.3 101.4 140C100.6 140.9 100.2 142.1 100.2 143.3L100.7 143C100.7 143 101.2 142.8 101.2 142.7H101.4Z" fill="#231F20"/>
<path d="M101.8 142.7C101.8 141.2 102.5 140 103.6 139.1L103.2 138.4C103.1 138.4 102.9 138.6 102.8 138.7C102.8 138.7 102.6 138.7 102.7 138.7H103.1C103.1 138.9 103.1 139.1 103.1 139.2C103.1 139.3 103.2 139.2 103.3 139.2C103.6 139.2 103.8 139 104.1 139C104.6 139 105 139 105.5 139.1C106.5 139.4 107.3 140.1 107.8 141C108.3 141.9 108.5 143.1 108.2 144.1C108 145.3 107.3 146.1 106.4 146.8C106.1 147.1 106.4 147.6 106.9 147.4L107.5 147.1C107.9 146.9 107.5 146.3 107.1 146.4C105.8 147 104.2 146.8 103.1 145.7C102.2 144.9 101.8 143.7 101.8 142.5C101.8 142.2 101.4 142 101.2 142.2C101.1 142.3 100.6 142.5 100.4 142.6C99.9 142.9 100 143.2 100.1 143.7C100.2 144.7 100.7 145.7 101.3 146.5C101.9 147.3 103 147.9 104.1 148C105.4 148.2 106.6 147.6 107.7 146.9C109.7 145.6 110.6 143.2 110 141C109.4 138.9 107.4 137.3 105.1 137.5C103.8 137.7 102.4 138.4 101.5 139.3C100.6 140.2 100 141.6 100 143C100 143.3 100.4 143.5 100.6 143.3C100.8 143 101.4 143 101.7 142.6C102 142.2 101.3 141.8 101 142.2C101 142.1 101 142.2 100.8 142.2C100.8 142.2 100.6 142.2 100.6 142.3C100.4 142.3 100.2 142.5 100.1 142.6L100.7 142.9C100.7 141.9 101 140.8 101.7 140C102.4 139.2 103.4 138.6 104.4 138.2C106.2 137.6 108.2 138.6 109 140.3C109.8 142 109.4 144.3 107.9 145.5C107.1 146.2 106.1 146.8 105.1 147C104.1 147.2 103.1 146.8 102.3 146.2C101.5 145.6 101.1 144.7 100.9 143.7C100.9 143.5 100.9 143.1 100.9 142.9C100.9 142.9 101.1 142.9 101.2 142.8C101.4 142.7 101.7 142.6 101.9 142.4L101.3 142.1C101.3 143.6 101.9 145.1 103.1 146C104.4 147.1 106.2 147.3 107.8 146.6L107.4 145.9L106.8 146.2L107.3 146.8C107.8 146.3 108.3 145.9 108.7 145.3C109 144.7 109.3 144.1 109.4 143.4C109.6 142.1 109.4 140.8 108.6 139.7C107.9 138.7 106.9 137.9 105.7 137.7C105.1 137.6 104.5 137.6 103.9 137.7C103.6 137.7 103.1 137.9 102.9 138.2C102.9 138.3 102.9 138.5 102.9 138.7C102.9 138.7 103.1 138.8 103.3 138.7C103.5 138.7 103.8 138.4 104 138.3C104.4 138 104 137.4 103.6 137.6C102.2 138.6 101.4 140.1 101.4 141.9C101.4 142.4 102.1 142.4 102.2 141.9L101.8 142.7Z" fill="#231F20"/>
<path d="M100.9 116.5C100.9 118.5 102 120.7 104 121.2C104.9 121.4 105.8 121.2 106.5 120.8C107.2 120.4 108.1 119.9 108.7 119.2C110 117.5 110.1 115 109.1 113.2C108.2 111.5 106.2 110.6 104.4 111.4C103.6 111.8 102.7 112.3 102.1 113.1C101.3 114.1 101 115.3 100.9 116.5L101.4 116.2C101.4 116.2 101.9 116 101.9 115.9C101.9 115 102.1 114.1 102.6 113.2C102.8 112.8 103.1 112.5 103.4 112.2C103.5 112 103.7 111.9 103.9 111.8C104.1 111.6 104.1 111.8 103.6 112C103.7 112 103.8 112 103.9 111.9C105.5 111.4 107.2 112.2 108.1 113.6C109.1 115.2 109.2 117.3 108.4 118.9C108.2 119.3 108 119.6 107.8 119.9C107.7 120.1 107.5 120.2 107.4 120.4C107.4 120.4 107.3 120.5 107.2 120.6C107.1 120.7 107.1 120.6 107 120.8C107.4 120.6 107.6 120.5 107.4 120.6C107 120.6 106.7 120.8 106.3 120.9C105.9 120.9 105.4 120.9 105 120.7C103.1 120 102.1 118 102.1 116L101.6 116.3C101.6 116.3 101.1 116.5 101.1 116.6L100.9 116.5Z" fill="#231F20"/>
<path d="M100.5 116.5C100.5 118.3 101.3 120.4 103.1 121.3C104.1 121.8 105.3 121.9 106.3 121.4C107.3 120.9 108.4 120.3 109 119.4C110.3 117.7 110.5 115.3 109.6 113.4C108.7 111.5 106.8 110.2 104.8 110.8C103.6 111.1 102.4 111.9 101.6 112.9C100.8 113.9 100.5 115.2 100.4 116.4C100.4 116.7 100.8 116.9 101 116.7C101.1 116.5 101.5 116.4 101.7 116.3C102.2 116 102.1 115.7 102.2 115.2C102.2 114.5 102.5 113.9 102.8 113.3C103 113 103.1 112.8 103.3 112.5C103.3 112.4 103.5 112.3 103.6 112.2C103.7 112.1 103.9 112 103.6 112L103.2 111.6C103.2 111.6 103.2 111.4 103.3 111.4C103.3 111.4 103.1 111.4 103 111.5L103.2 112.2C104.2 111.8 105.1 111.8 106 112.4C106.9 112.9 107.5 113.7 107.8 114.7C108.5 116.6 108 119 106.3 120.3C105.9 120.6 106.3 121.2 106.7 121C106.9 120.9 107.3 120.8 107.3 120.4C107.3 120.2 107.1 120 106.8 120C106.1 120.2 105.4 120.4 104.7 120.2C104.1 120 103.6 119.7 103.2 119.2C102.4 118.3 102 117 102 115.8C102 115.5 101.6 115.3 101.4 115.5C101.1 115.8 100.6 115.8 100.3 116.2C100 116.6 100.7 117 101 116.6C101 116.8 101 116.6 101.2 116.6C101.2 116.6 101.4 116.6 101.4 116.5C101.6 116.5 101.8 116.3 102 116.2L101.4 115.9C101.4 117.4 101.9 118.9 103 119.9C103.5 120.4 104.2 120.8 104.8 121C105.6 121.2 106.4 121 107.2 120.8L106.7 120.4C106.7 120.4 106.8 120.2 106.9 120.1C106.8 120.1 106.6 120.3 106.4 120.3L106.8 121C108.8 119.5 109.4 116.7 108.6 114.4C108.2 113.3 107.5 112.4 106.5 111.8C105.4 111.2 104.3 111.1 103.1 111.6C102.7 111.8 102.8 112.5 103.3 112.3C103.6 112.3 104.1 112.1 104 111.7C104 111.5 103.8 111.3 103.6 111.3C103.2 111.3 102.7 111.9 102.4 112.2C102 112.7 101.7 113.3 101.5 114C101.5 114.3 101.3 114.6 101.3 114.9C101.3 115 101.2 115.4 101.3 115.5C101.3 115.6 101.3 115.6 101.4 115.5C101.4 115.5 101.3 115.5 101.2 115.5C100.9 115.6 100.5 115.8 100.3 116L100.9 116.3C100.9 115.3 101.2 114.3 101.7 113.5C102.2 112.7 103 112.2 103.9 111.7C104.8 111.2 105.6 111.1 106.5 111.5C107.3 111.8 107.9 112.4 108.4 113.1C109.3 114.6 109.4 116.6 108.6 118.1C108.1 119 107.4 119.6 106.5 120.1C105.6 120.6 104.6 121 103.6 120.6C101.9 120 101.1 118 101 116.3C101 115.8 100.2 115.8 100.2 116.3L100.5 116.5Z" fill="#231F20"/>
<path d="M96.5 94.4C96.5 95.2 96.2 96 95.7 96.7C95.5 97 95.2 97.3 94.9 97.5C94.6 97.7 94.4 97.7 95.2 97.3C95.1 97.3 94.9 97.4 94.8 97.5C94.6 97.5 94.3 97.7 94.1 97.7C92.4 98.1 90.4 97.7 89.2 96.3C88.1 95 87.9 93.2 88.8 91.8C89 91.5 89.3 91.2 89.6 90.9C89.6 90.9 89.7 90.9 89.8 90.7C90.2 90.4 90 90.5 89.4 90.8C89.6 90.8 89.9 90.6 90.1 90.5C91 90.2 92 90.2 92.9 90.4C94.8 90.8 96.3 92.4 96.3 94.3L96.8 94C96.8 94 97.3 93.8 97.3 93.7C97.3 91.6 95.6 90.1 93.6 89.7C92.5 89.5 91.4 89.7 90.4 90.1C89.6 90.4 88.9 90.9 88.2 91.4C86.7 92.7 86.4 94.9 87.7 96.5C89 98.1 91.3 98.6 93.2 98C93.7 97.8 94.2 97.5 94.7 97.3C95.1 97.1 95.5 96.8 95.9 96.5C96.7 95.8 97.2 94.8 97.2 93.7L96.7 94C96.7 94 96.2 94.2 96.2 94.3L96.5 94.4Z" fill="#231F20"/>
<path d="M96.0999 94.4C96.0999 95.1 95.9 95.7 95.5 96.3C95.3 96.6 95.1 96.8 94.8 97.1C94.8 97.1 94.6 97.2 94.5 97.3C94.3 97.3 94.5 97.4 94.5 97.3L94.7 97.8C94.7 97.8 95 97.7 95 97.6L94.7 96.9C92.7 97.8 90.1 97.4 88.9 95.5C88.3 94.6 88.2 93.4 88.7 92.4C88.9 91.9 89.3 91.4 89.7 91.1C89.9 90.9 90.3 90.8 90.3 90.5C90.3 90.2 90 90.1 89.7 90.2C89.5 90.2 89.2999 90.4 89.0999 90.5C88.7999 90.7 89 91.3 89.4 91.2C90.9 90.6 92.4 90.5 93.9 91.2C95.1 91.8 95.9 93 95.9 94.3C95.9 94.6 96.3 94.8 96.5 94.6C96.5 94.5 97 94.3 97.2 94.2C97.7 93.9 97.5999 93.6 97.5999 93.1C97.3999 92.1 96.7999 91.1 96.0999 90.5C95.2999 89.8 94.2 89.4 93.2 89.3C91.9 89.2 90.6 89.6 89.5 90.2C88.5 90.8 87.5 91.5 87 92.7C86.6 93.7 86.5 94.8 87 95.8C87.8 97.9 90.2 99 92.3 98.7C93.7 98.6 94.9999 97.9 96.0999 97.1C97.1999 96.3 97.8 95.1 97.9 93.7C97.9 93.4 97.5 93.2 97.3 93.4C97.1 93.7 96.5 93.7 96.2 94.1C95.9 94.5 96.6 94.9 96.9 94.5C96.9 94.5 97.3 94.3 97.4 94.3C97.6 94.3 97.8 94.1 97.9 94L97.3 93.7C97.3 94.7 96.8 95.7 96 96.4C95.2 97.1 94.0999 97.6 93.0999 97.9C91.2999 98.3 89.2 97.7 88.2 96.1C87.1 94.4 87.9 92.4 89.4 91.3C91.2 90.1 93.3 89.5 95.3 90.6C96.1 91.1 96.7999 91.8 97.0999 92.8C97.0999 92.8 97.1 93.6 97.2 93.6C97.1 93.6 97.5 93.4 97.2 93.6C97.2 93.6 97 93.6 96.9 93.7C96.7 93.8 96.4 93.9 96.2 94.1L96.8 94.4C96.8 92.8 95.9 91.5 94.5 90.7C92.9 89.8 91 89.8 89.4 90.5L89.7 91.2C89.9 91.1 90.1 91 90.3 90.9L89.7 90.6C89.7 90.5 89.8 90.4 89.9 90.3C89 91 88.2 91.8 87.9 93C87.6 94.2 87.8999 95.4 88.5999 96.4C90.1999 98.5 93 98.8 95.3 97.8C95.7 97.6 95.3 97 95 97.1C94.8 97.2 94.3 97.3 94.2 97.6C94.1 97.8 94.2 98.1 94.4 98.1C94.6 98.1 94.8 98.1 94.9 98C95.3 97.8 95.6 97.4 95.9 97.1C96.5 96.4 96.8 95.5 96.8 94.6C96.8 94.1 96.1 94.1 96 94.6L96.0999 94.4Z" fill="#231F20"/>
<path d="M34.2 114.7C34.2 115.6 33.9001 116.5 33.4001 117.2C33.2001 117.5 32.9 117.8 32.6 118C32.6 118 32.4 118.1 32.3 118.2C31.6 118.7 33.3 117.7 32.7 118C32.5 118.1 32.2 118.2 32 118.3C30.3 118.8 28.5 118.2 27.5 116.8C26.4 115.4 26.3 113.5 27.2 112C27.4 111.7 27.6001 111.3 27.9001 111.1C28.2001 110.9 28.2 110.9 28.3 110.7C28.7 110.4 28.5 110.5 27.8 110.9C28 110.9 28.1 110.7 28.3 110.7C29.1 110.4 30 110.4 30.8 110.6C32.7 111.1 34 112.8 34 114.8L34.5 114.5C34.5 114.5 35 114.3 35 114.2C35 112.2 33.6 110.5 31.7 110C30.7 109.8 29.7 109.9 28.8 110.3C28 110.7 27.2 111.1 26.6 111.8C25.2 113.2 25 115.5 26.1 117.2C27.2 118.9 29.4 119.5 31.2 118.8C31.7 118.6 32.2 118.3 32.6 118C33 117.8 33.4 117.5 33.7 117.2C34.5 116.4 34.9001 115.3 34.9001 114.2L34.4001 114.5C34.4001 114.5 33.9001 114.7 33.9001 114.8L34.2 114.7Z" fill="#231F20"/>
<path d="M33.9 114.7C33.9 115.6 33.6 116.5 33.1 117.1C32.9 117.4 32.6 117.6 32.3 117.9C32.1 118 32 118.1 32 118.3C32 118.5 32.2 118.7 32.4 118.7C32.8 118.7 33.6 118.2 33.5 117.8C33.5 117.6 33.3 117.5 33.1 117.5C32.7 117.5 32.3 117.8 31.9 117.9C31.4 118 30.8 118 30.3 117.9C29.3 117.7 28.3 117.1 27.8 116.1C27.3 115.1 27.1 114 27.3 113C27.5 112.4 27.7 111.9 28.1 111.5C28.4 111.2 28.7 111 29 110.7C29.2 110.5 29 110 28.7 110.1C28.4 110.2 28 110.4 27.8 110.6C27.4 110.8 27.8 111.4 28.2 111.3C29.5 110.7 31.1 110.7 32.3 111.6C33.3 112.3 33.9 113.5 33.9 114.8C33.9 115.1 34.3 115.3 34.5 115.1C34.5 115 35.1 114.8 35.3 114.7C35.7 114.5 35.7 114.1 35.6 113.7C35.5 112.7 35 111.7 34.3 111C33.6 110.3 32.6 109.8 31.5 109.6C30.2 109.4 29 109.9 27.9 110.6C26.9 111.2 26.1 112 25.6 113.1C25.2 114.1 25.1 115.3 25.5 116.3C26.2 118.3 28.2 119.7 30.4 119.5C31 119.5 31.6 119.3 32.2 119C32.9 118.7 33.5 118.3 34.1 117.8C35.1 116.9 35.6 115.6 35.7 114.3C35.7 114 35.3 113.8 35.1 114C34.9 114.2 34.2 114.3 34 114.7C33.8 115.1 34.4 115.5 34.7 115.1H34.9C34.9 115.1 35.1 115.1 35.1 115C35.3 115 35.5 114.8 35.6 114.7L35 114.4C35 115.4 34.6 116.4 33.9 117.1C33.5 117.5 33.1 117.7 32.6 118C32.1 118.3 31.6 118.6 31.1 118.7C29.4 119.2 27.4 118.4 26.6 116.8C25.7 115.1 26.2 113 27.6 111.8C29.2 110.5 31.5 109.8 33.3 111.1C34.1 111.6 34.6 112.5 34.9 113.4C34.9 113.6 34.9 113.9 34.9 114C34.9 114 34.7 114 34.7 114.1C34.5 114.2 34.2 114.3 34 114.5L34.6 114.8C34.6 113.3 33.8 111.9 32.6 111C31.1 110 29.3 109.9 27.7 110.7L28.1 111.4C28.3 111.4 28.4 111.2 28.6 111.1C28.8 111.1 28.9 111.1 28.6 111.1L28.3 110.5H28.2C28.2 110.5 28 110.6 27.9 110.7C27.6 110.9 27.4 111.2 27.2 111.4C26.8 111.9 26.5 112.4 26.4 113.1C26.1 114.3 26.2 115.6 26.9 116.7C27.6 117.8 28.5 118.5 29.6 118.8C30.2 119 30.8 119 31.4 119C31.7 119 32 119 32.3 118.8C32.5 118.8 32.6 118.7 32.8 118.6C32.8 118.6 33.3 118.5 33 118.5L32.6 118.2C32.6 118.1 32.6 118 32.6 117.8C32.6 117.8 32.5 117.8 32.4 117.9C32.3 118 32.3 117.9 32.2 118C32 118 32.1 118 32.2 118L32.6 118.4C32.6 118.4 32.6 118.6 32.5 118.7C32.7 118.5 32.9 118.4 33.1 118.2C33.4 117.9 33.7 117.6 33.9 117.2C34.4 116.5 34.6 115.6 34.6 114.8C34.6 114.3 33.9 114.3 33.8 114.8L33.9 114.7Z" fill="#231F20"/>
<path d="M38.5 94.3C38.5 95.3 38.2 96.4 37.6 97.2C37.3 97.6 37 97.9 36.6 98.2C36.5 98.3 36.3 98.4 36.2 98.5C36.9 98 36.8 98.2 36.4001 98.4C36.1 98.5 35.9 98.6 35.6 98.7C33.5 99.2 31.3 98.5 29.9 96.9C28.5 95.3 28.4 93 29.5 91.2C29.7 90.8 30 90.3999 30.4 90.0999C30.6 89.8999 30.8 89.7999 31 89.5999C31.5 89.1999 30 90.0999 30.8 89.5999C31 89.5999 31.1 89.5 31.3 89.4C32.3 89.1 33.4 89 34.5 89.3C36.8 89.9 38.5 91.9 38.5 94.3C38.5 94.1 39.5 93.9 39.5 93.7C39.5 91.2 37.7 89.2 35.3 88.7C34.1 88.4 32.8 88.5999 31.7 89.0999C30.8 89.4999 29.9 90.1 29.2 90.8C27.5 92.5 27.2 95.3 28.7 97.3C30.2 99.3 32.9 100.1 35.2 99.2C37.5 98.3 39.5 96.5 39.6 93.8C39.6 94 38.6 94.2 38.6 94.4L38.5 94.3Z" fill="#231F20"/>
<path d="M38.2 94.3C38.2 96 37.4 97.3 36.1 98.2L36.6 98.8L36.9 98.6L36.4 98.1C36.4 98.1 36.1 98.3 35.9 98.3C35.6 98.4 35.2 98.5 34.9 98.5C34.3 98.5 33.6 98.5 33 98.4C31.7 98.1 30.5 97.2 29.9 96C29.3 94.8 29.1 93.3 29.6 92C29.9 91.3 30.3 90.8 30.8 90.3C31 90.1 31.7 89.8 31.6 89.4C31.6 89.3 31.4 89.1 31.2 89.1C30.9 89.1 30.4 89.4 30.3 89.7C30.3 89.9 30.4 90.2 30.7 90.2C31 90.2 31.2 90 31.4 90C31.9 89.8 32.5 89.7 33 89.7C34 89.7 34.9 89.9 35.8 90.4C37.3 91.2 38.2 92.8 38.3 94.5C38.3 94.9 38.9 95 39 94.5C39.1 94.5 39.2 94.5 39.3 94.4C39.5 94.4 39.6 94.3 39.8 94.1C40.1 93.7 39.8 92.9 39.8 92.5C39.5 91.3 38.8 90.2 37.8 89.5C36.7 88.7 35.4 88.3 34.1 88.3C32.6 88.3 31.1 89 29.9 89.9C27.7 91.5 26.8 94.5 28.1 97C29.3 99.3 32.1 100.4 34.6 99.8C37.4 99.1 39.9 96.8 40 93.8C40 93.4 39.4 93.3 39.3 93.8C39.3 93.6 39.3 93.8 39.1 93.8C39 93.8 38.8 93.8 38.7 94C38.5 94 38.3 94.2 38.3 94.4C38.1 94.9 38.9 95.1 39 94.6C39 94.7 39 94.7 39 94.6C39 94.6 39.1 94.6 39.2 94.6C39.3 94.6 39.5 94.6 39.6 94.4C39.8 94.4 40 94.2 40 94H39.3C39.3 96.3 37.4 98 35.3 98.9C33.2 99.8 30.8 99.2 29.3 97.6C27.7 95.7 27.9 92.9 29.7 91.2C31.5 89.5 34.5 88.6 36.8 89.9C37.8 90.5 38.7 91.5 39 92.7C39 93 39.2 93.3 39.2 93.6C39.2 93.6 39.2 93.8 39.2 93.9C39.3 93.9 39.3 93.9 39.2 93.9C39.2 93.9 39.1 93.9 39 93.9C38.7 94 38.3 94.1 38.2 94.5H38.9C38.9 92.7 37.9 91 36.3 90C35.5 89.5 34.5 89.2 33.5 89.1C32.9 89.1 32.3 89.1 31.7 89.3C31.4 89.3 31.2 89.4 30.9 89.5C30.9 89.5 30.7 89.5 30.6 89.6L31 90.1C30.8 90.3 31 90.3 31 90.1L30.6 89.8C30.6 89.8 30.6 89.6 30.6 89.5C30.5 89.6 30 89.9 29.8 90.2C29.5 90.5 29.3 90.8 29.1 91.1C28.7 91.7 28.4 92.4 28.3 93.2C28.1 94.7 28.5 96.3 29.5 97.5C30.5 98.7 31.8 99.3 33.3 99.5C34 99.5 34.8 99.5 35.5 99.4C35.9 99.4 36.8 99.1 36.9 98.7C36.9 98.4 36.7 98.2 36.4 98.2C36.2 98.2 35.9 98.5 35.7 98.6C35.4 98.9 35.8 99.4 36.2 99.2C37.7 98.1 38.7 96.6 38.7 94.6C38.7 94.1 38 94.1 37.9 94.6L38.2 94.3Z" fill="#231F20"/>
<path d="M31.9 77.1C31.9 77.8 31.7 78.5 31.4 79.1C31.2 79.4 31 79.6 30.8 79.8C30.7 79.9 30.6 80 30.4 80.1C30 80.4 31.6 79.5 31 79.8H30.8C29.6 80.2 28.2 79.7 27.5 78.6C26.7 77.5 26.6 75.9 27.2 74.7C27.3 74.4 27.5 74.1 27.7 73.9C27.7 73.8 27.9 73.7 28 73.6C28.1 73.5 28.1 73.6 28.2 73.5C28.8 73.1 27 74.1 27.7 73.8C28.3 73.6 28.9 73.5 29.5 73.7C31 74.1 31.8 75.6 31.9 77.1L32.4 76.8C32.4 76.8 32.9 76.6 32.9 76.5C32.9 75 32 73.4 30.4 73.1C29.7 72.9 29 73.1 28.4 73.4C27.7 73.8 27 74.1 26.5 74.7C25.5 75.9 25.4 77.7 26.2 79.1C27 80.4 28.5 81 29.9 80.4C30.3 80.2 30.8 79.9 31.2 79.7C31.5 79.5 31.8 79.3 32 79C32.6 78.3 32.9 77.4 32.9 76.5L32.4 76.8C32.4 76.8 31.9 77 31.9 77.1Z" fill="#231F20"/>
<path d="M31.5 77.1C31.5 77.8 31.3001 78.5 30.9001 79.1C30.7001 79.4 30.5 79.6 30.2 79.8C30.2 79.8 30 80 30 80.1C30 80.3 30 80.5 30.3 80.6C30.6 80.6 30.8 80.5 31 80.3C31.2 80.2 31.6 80 31.5 79.8C31.5 79.6 31.3 79.5 31.1 79.4C31.1 79.4 31.0001 79.4 30.9001 79.4C30.7001 79.4 30.5 79.6 30.3 79.6C29.9 79.6 29.4 79.6 29 79.5C28.1 79.2 27.5 78.5 27.2 77.6C26.9 76.7 27.0001 75.7 27.4001 74.9C27.6001 74.5 27.9 74.2 28.3 73.9C28.5 73.7 28.7 73.6 28.5 73.3C28.5 73.2 28.3 73.1 28.2 73.1C28 73.1 27.7 73.3 27.6 73.4C27.4 73.5 27.1 73.6 27.1 73.9C27.1 74.1 27.2001 74.2 27.4001 74.3C27.5001 74.3 27.6 74.3 27.7 74.3C28 74.3 28.2 74.1 28.5 74.1C29.1 74.1 29.7 74.2 30.2 74.6C31 75.2 31.5 76.3 31.5 77.3C31.5 77.7 32 77.8 32.2 77.5C32.1 77.5 32.2 77.6 32.2 77.5C32.2 77.5 32.3001 77.5 32.4001 77.5C32.4001 77.5 32.6 77.5 32.7 77.4C33 77.3 33.3 77.1 33.3 76.8C33.3 76 33 75.1 32.6 74.5C32.1 73.8 31.4 73.3 30.6 73.1C29.6 72.9 28.6 73.2 27.7 73.7C26.9 74.2 26.1 74.7 25.7 75.6C25.3 76.5 25.2001 77.4 25.4001 78.3C25.7001 80 27.3 81.5 29.1 81.3C29.6 81.3 30.1 81.1 30.6 80.8C31.1 80.5 31.6 80.2 32.1 79.8C32.9 79 33.3001 77.9 33.4001 76.8C33.4001 76.4 32.9 76.3 32.7 76.6C32.7 76.6 32.6 76.6 32.5 76.6C32.5 76.6 32.3 76.6 32.3 76.7C32.1 76.7 31.8 76.9 31.7 77.1C31.5 77.5 32.1001 77.9 32.4001 77.5C32.4001 77.5 32.5 77.5 32.6 77.5C32.6 77.5 32.7 77.5 32.8 77.4C33 77.4 33.3001 77.2 33.4001 77L32.7 76.8C32.7 77.6 32.4001 78.4 31.9001 79.1C31.6001 79.4 31.3 79.6 31 79.8C30.6 80 30.2 80.3 29.7 80.5C28.3 80.9 26.9001 80 26.4001 78.7C25.9001 77.2 26.4 75.6 27.7 74.7C28.4 74.3 29.1001 73.8 29.9001 73.8C30.7001 73.8 31.3 74.1 31.8 74.7C32 75 32.3001 75.3 32.4001 75.7C32.4001 75.9 32.5 76 32.6 76.2C32.7 76.4 32.6 76.6 32.6 76.8C32.6 76.8 32.6 76.8 32.7 76.8L32.5 76.9C32.5 76.9 32.3 76.9 32.3 77C32.1 77.1 31.8 77.2 31.7 77.4L32.4001 77.6C32.4001 76.4 31.9 75.2 31 74.5C30.5 74.1 30 73.9 29.3 73.8C29 73.8 28.6 73.8 28.3 73.8C28.1 73.8 27.9 73.8 27.8 74C27.6 74 27.7 74 27.8 74L28.1 74.4C28.1 74.6 27.9 74.7 28.1 74.6C28.1 74.6 28.2 74.6 28.3 74.5C28.4 74.4 28.4 74.5 28.5 74.4L28.2 74.2V73.8C28.2 73.8 28 73.9 28 74C27.8 74.2 27.6 74.4 27.5 74.6C27.2 75 27 75.5 26.8 75.9C26.5 76.9 26.6 77.9 27 78.8C27.4 79.7 28.1 80.4 29 80.7C29.4 80.9 29.9 80.9 30.3 80.9C30.5 80.9 30.8 80.9 31 80.8C31 80.8 31.2 80.8 31.3 80.7L30.9001 80.3C30.9001 80.3 30.9 80.1 31 80C31 80 30.8 80 30.8 80.1C30.8 80.2 30.6 80.1 30.6 80.2C30.4 80.2 30.6 80.2 30.7 80.2L31 80.7C30.8 80.9 31 80.9 31 80.7C31.1 80.7 31.2 80.5 31.3 80.4C31.5 80.2 31.8 79.9 32 79.6C32.4 79 32.5 78.2 32.5 77.5C32.5 77 31.8 77 31.7 77.5L31.5 77.1Z" fill="#231F20"/>
<path d="M18.5 64.4C18.5 65.2 18.3 66 17.8 66.6C17.6 66.9 17.3 67.1 17.1 67.4C17 67.4 16.9 67.6 16.8 67.6C17.6 67 17.6 67.2 17.2 67.4C17 67.4 16.8 67.6 16.6 67.6C15 68 13.3 67.5 12.2 66.2C11.1 64.9 11.1 63.2 11.9 61.8C12.1 61.5 12.3 61.2 12.6 61C12.8 60.8 12.9 60.7 13.1 60.6C13.5 60.3 12.1 61.1 12.8 60.8C12.9 60.8 13 60.8 13.2 60.7C14 60.4 14.8 60.4 15.6 60.6C17.4 61 18.7 62.6 18.7 64.5L19.2 64.2C19.2 64.2 19.7 64 19.7 63.9C19.7 62 18.3 60.4 16.5 60C15.6 59.8 14.6 60 13.7 60.3C12.9 60.7 12.1 61.1 11.5 61.7C10.2 63 9.99999 65.2 11.1 66.7C12.2 68.2 14.3 68.8 16.1 68.1C16.6 67.9 17 67.6 17.5 67.4C17.9 67.2 18.3 66.9 18.6 66.6C19.3 65.9 19.7 64.9 19.7 63.9L19.2 64.2C19.2 64.2 18.7 64.4 18.7 64.5L18.5 64.4Z" fill="#231F20"/>
<path d="M18.1 64.4C18.1 65.6 17.5 66.6 16.5 67.4L16.9 68.1C17 68.1 17.2 67.9 17.3 67.8C17.5 67.7 17.5 67.8 17.3 67.8L17 67.3C17 67.1 17.1 67.2 17 67.2H16.8C16.6 67.2 16.3 67.4 16.1 67.4C15.6 67.4 15.1 67.5 14.6 67.4C13.6 67.2 12.8 66.7 12.2 65.9C11.6 65.1 11.4 64 11.6 63C11.7 62.5 12 62 12.3 61.6C12.5 61.3 12.8 61.1 13 60.9C13 60.9 13.2 60.8 13.2 60.7C13.2 60.5 13.2 60.3 13.1 60.2C12.8 60 12.2 60.4 12 60.7C12 60.8 12 61 12 61.2C12.1 61.3 12.3 61.3 12.5 61.2C12.8 61.1 13.1 61 13.5 60.9C14.3 60.7 15.2 60.9 16 61.2C17.2 61.8 18 63 18.1 64.4C18.1 64.7 18.5 64.9 18.7 64.7C18.7 64.6 19.2 64.4 19.4 64.3C19.9 64.1 19.8 63.8 19.8 63.3C19.7 62.3 19.2 61.5 18.5 60.8C17.8 60.1 16.8 59.6 15.8 59.5C14.5 59.4 13.4 59.8 12.3 60.5C11.3 61.1 10.5 61.8 10.1 62.8C9.69999 63.7 9.60001 64.8 10 65.8C10.7 67.8 12.7 69 14.7 68.8C16 68.7 17.2 68 18.2 67.2C19.2 66.4 19.8 65.2 19.9 63.8C19.9 63.5 19.5 63.3 19.3 63.5C19.3 63.5 18.9 63.7 18.8 63.8C18.6 63.8 18.3 64 18.2 64.2C18 64.6 18.6 65 18.9 64.6H19.1C19.1 64.6 19.3 64.6 19.3 64.5C19.5 64.5 19.7 64.3 19.8 64.2L19.2 63.9C19.2 64.9 18.8 65.8 18 66.5C17.7 66.8 17.2 67 16.9 67.3C16.4 67.6 16 67.8 15.5 68C13.9 68.5 12 67.8 11.1 66.3C10.2 64.7 10.7 62.8 12.1 61.7C13.6 60.5 15.7 59.9 17.5 61C18.3 61.5 18.9 62.3 19.1 63.2C19.1 63.4 19.1 63.7 19.2 63.9C19.2 63.9 19 63.9 19 64C18.8 64.1 18.5 64.2 18.3 64.4L18.9 64.7C18.9 63.2 18.1 61.8 16.8 61C16.1 60.6 15.3 60.3 14.6 60.3C14.1 60.3 13.6 60.3 13.2 60.5C12.9 60.5 12.6 60.8 12.4 60.8H12.8C12.8 61 12.8 61.2 12.8 61.3C12.8 61.3 12.9 61.3 13 61.3C13 61.3 13.1 61.3 13.2 61.3H12.9C12.9 61.1 12.9 60.9 12.8 60.8C12.8 60.7 12.8 60.8 12.6 60.8C12.4 60.9 12.3 61.1 12.1 61.2C11.9 61.4 11.7 61.7 11.5 62C11.2 62.5 11 63.1 10.9 63.7C10.7 64.9 11.2 66.2 12 67.1C12.8 68 13.9 68.5 15.1 68.6C15.7 68.6 16.3 68.6 16.8 68.4C17 68.4 17.6 68.2 17.7 67.8C17.7 67.6 17.7 67.4 17.4 67.3C17.1 67.3 16.7 67.5 16.5 67.8C16.1 68.1 16.5 68.7 16.9 68.5C18.1 67.6 18.8 66.4 18.9 64.9C18.9 64.4 18.2 64.4 18.1 64.9V64.4Z" fill="#231F20"/>
<path d="M20.4 38.9C20.4 40 20.1 41 19.4 41.9C19.1 42.3 18.8 42.6 18.4 42.9C18.3 43 18.1 43.1 17.9 43.2C18.6 42.7 18.5 42.9 18.1 43.1C17.8 43.2 17.5 43.3 17.3 43.4C15.2 43.9 12.8 43.2 11.4 41.5C10 39.8 9.9 37.5 11 35.7C11.2 35.3 11.5 34.9 11.9 34.6C12.1 34.4 12.3 34.2 12.6 34.1C13.1 33.7 11.6 34.6 12.5 34.1C12.7 34.1 12.8 34 13 33.9C14 33.5 15.2 33.5 16.3 33.7C18.7 34.3 20.4 36.4 20.5 38.8C20.5 38.6 21.5 38.4 21.5 38.2C21.5 35.7 19.6 33.6 17.2 33.1C16 32.8 14.6 33 13.5 33.5C12.6 33.9 11.7 34.5 10.9 35.2C9.10003 37 8.90003 39.8 10.4 41.8C11.9 43.8 14.7 44.6 17.1 43.7C19.5 42.8 21.6 40.9 21.6 38.2C21.6 38.4 20.6 38.6 20.6 38.8L20.4 38.9Z" fill="#231F20"/>
<path d="M20 38.9C20 40.6 19.1 41.9 17.8 42.9L18.3 43.5C18.4 43.5 18.8 43.3 18.5 43.3L18.2 42.7C18 42.7 17.9 42.8 17.7 42.9C17.4 43 17 43.1 16.7 43.1C16 43.1 15.4 43.1 14.7 43C13.4 42.7 12.2 41.8 11.5 40.6C10.8 39.4 10.7 37.8 11.2 36.5C11.5 35.8 11.9 35.2 12.4 34.7C12.6 34.5 13.3 34.2 13.2 33.8C13.2 33.6 13 33.5 12.8 33.5C12.6 33.5 12 33.8 12 34C12 34.2 12 34.5 12.4 34.5C12.8 34.5 12.9 34.3 13.1 34.3C13.6 34.1 14.1 34 14.7 34C15.7 34 16.7 34.2 17.6 34.6C19.2 35.5 20.1 37.1 20.2 38.8C20.2 39.2 20.8 39.3 20.9 38.8C21 38.8 21.1 38.8 21.2 38.7C21.4 38.7 21.5 38.6 21.7 38.4C22 38 21.7 37.2 21.7 36.8C21.4 35.6 20.6 34.5 19.6 33.7C18.5 32.9 17.2 32.4 15.8 32.5C14.2 32.5 12.7 33.2 11.4 34.2C9.20002 35.8 8.29997 38.9 9.59997 41.4C10.9 43.7 13.7 44.9 16.3 44.3C19.1 43.6 21.7 41.3 21.8 38.2C21.8 37.8 21.2 37.7 21.1 38.2C21.1 38 21.1 38.2 20.9 38.2C20.8 38.2 20.6 38.2 20.5 38.4C20.3 38.4 20.1 38.6 20.1 38.8C19.9 39.3 20.7 39.5 20.8 39C20.8 39.2 20.8 39 21 39C21.1 39 21.3 39 21.4 38.8C21.6 38.8 21.8 38.6 21.8 38.4H21.1C21.1 40.7 19.2 42.4 17.1 43.3C15 44.2 12.4 43.8 10.8 42C9.19998 40.2 9.29997 37.3 11.1 35.6C12.9 33.9 16.1 32.8 18.5 34.1C19.6 34.7 20.5 35.7 20.8 36.9C20.8 37.2 21 37.5 21 37.8C21 37.8 21 38 21 38.1C21.0667 38.1 21.0667 38.1 21 38.1C21 38.1 20.9 38.1 20.8 38.1C20.5 38.2 20.1 38.3 20 38.7H20.7C20.7 36.9 19.6 35.1 18 34.1C17.1 33.6 16.1 33.3 15.1 33.2C14.5 33.2 13.9 33.2 13.4 33.4C13.1 33.4 12.8 33.6 12.5 33.7C12.5 33.7 12.1 33.9 12.2 33.9L12.6 34.4C12.6 34.5 12.4 34.6 12.6 34.5C12.6 34.5 12.6 34.5 12.7 34.5L12.3 34.2C12.3 34.1 12.3 34 12.3 33.8C12.1 34 11.8 34.2 11.5 34.4C11.2 34.7 11 35 10.7 35.3C10.3 35.9 9.89998 36.7 9.79998 37.4C9.49998 38.9 9.90002 40.6 10.9 41.8C11.9 43 13.3 43.8 14.8 44C15.6 44.1 16.3 44 17 44C17.4 44 18.3 43.7 18.5 43.3C18.6 43.1 18.5 42.7 18.2 42.7C17.9 42.7 17.7 43 17.5 43.1C17.2 43.4 17.6 43.9 18 43.7C19.6 42.5 20.5 41 20.6 39C20.6 38.5 19.9 38.5 19.8 39L20 38.9Z" fill="#231F20"/>
<path d="M79.7 17C79.7 17.7 79.5 18.4 79 19C78.8 19.3 78.6 19.5 78.3 19.7C78.3 19.7 78.1 19.9 78 19.9C78.9 19.3 78.8 19.5 78.4 19.6C78.2 19.6 78 19.8 77.8 19.8C76.3 20.2 74.8 19.7 73.8 18.5C72.8 17.3 72.8 15.8 73.5 14.5C73.7 14.2 73.9 14 74.1 13.7C74.2 13.6 74.4 13.5 74.6 13.3C75 13 73.5 13.8 74.2 13.5C74.3 13.5 74.4 13.5 74.5 13.4C75.2 13.2 76 13.1 76.7 13.4C78.3 13.8 79.5 15.2 79.5 16.9L80 16.6C80 16.6 80.5 16.4 80.5 16.3C80.5 14.6 79.2 13.1 77.5 12.8C76.7 12.6 75.7 12.8 75 13.1C74.3 13.4 73.5 13.9 72.9 14.4C71.7 15.6 71.5 17.5 72.5 18.9C73.5 20.3 75.5 20.8 77 20.2C77.5 20 77.9 19.7 78.3 19.5C78.7 19.3 79 19.1 79.3 18.7C80 18 80.3 17.2 80.3 16.2L79.8 16.5C79.8 16.5 79.3 16.7 79.3 16.8L79.7 17Z" fill="#231F20"/>
<path d="M79.4 17C79.4 18.1 78.8 19 77.9 19.6L78.3 20.3C78.5 20.2 78.6 20.1 78.8 20C78.9 20 79 19.9 78.8 20L78.5 19.5C78.5 19.3 78.6 19.3 78.5 19.3C78.4 19.3 78.5 19.3 78.4 19.3C78.2 19.3 78 19.5 77.8 19.5C77.4 19.5 76.9 19.6 76.5 19.5C75.6 19.4 74.8 18.9 74.2 18.2C73.6 17.5 73.4 16.5 73.6 15.6C73.7 15.1 73.9 14.7 74.2 14.3C74.4 14.1 74.6 13.9 74.9 13.7C74.9 13.7 75.1 13.6 75.1 13.5C75.1 13.3 75.1 13.2 75.1 13C74.9 12.7 74 13.2 73.9 13.5C73.8 13.7 73.9 14 74.1 14C74.2 14 74.4 14 74.5 14C74.8 13.9 75.2 13.8 75.5 13.7C76.2 13.7 77 13.7 77.6 14.1C78.7 14.7 79.4 15.7 79.4 16.9C79.4 17.3 79.9 17.4 80.1 17.1C80.1 17.1 80.2 17.1 80.3 17C80.4 17 80.5 16.9 80.6 16.8C81 16.6 81.1 16.4 81.1 16C81.1 15.1 80.6 14.2 80 13.5C79.4 12.8 78.5 12.4 77.6 12.3C76.4 12.1 75.4 12.5 74.4 13.1C73.5 13.6 72.7 14.3 72.2 15.2C71.8 16.1 71.7 17.1 72 18C72.6 19.8 74.5 20.9 76.4 20.7C77.6 20.6 78.7 19.9 79.6 19.2C80.5 18.5 81.1 17.3 81.1 16.2C81.1 15.8 80.6 15.7 80.4 16C80.4 16 80.4 16 80.2 16C80.2 16 80 16 79.9 16.1C79.7 16.1 79.4 16.3 79.3 16.5C79.1 16.9 79.7 17.3 80 16.9C80 16.9 80.1 16.9 80.2 16.9C80.2 16.9 80.3 16.9 80.4 16.8C80.6 16.7 80.8 16.6 81 16.4L80.3 16.2C80.3 17.1 79.9 18 79.2 18.6C78.9 18.9 78.5 19.1 78.1 19.3C77.7 19.5 77.3 19.7 76.9 19.9C75.4 20.3 73.6 19.7 72.9 18.3C72.1 16.8 72.7 15 74.1 14.1C74.9 13.6 75.8 13.1 76.7 13.1C77.5 13.1 78.4 13.3 79 13.8C79.6 14.3 80.1 15 80.3 15.8C80.3 15.8 80.3 16 80.3 16.1C80.3 16.3 80.3 16.3 80.3 16.1C80.2 16.1 80.1 16.3 80 16.3C79.8 16.4 79.5 16.5 79.3 16.7L80 16.9C80 15.5 79.2 14.3 78.1 13.6C77.5 13.2 76.8 13 76 13C75.6 13 75.1 13 74.7 13.1C74.5 13.1 74.3 13.2 74.1 13.3C73.9 13.3 74 13.3 74.1 13.3L74.3 13.8C74.3 13.8 74.4 13.8 74.5 13.7C74.5 13.7 74.6 13.7 74.7 13.7H74.4C74.4 13.4 74.4 13.3 74.4 13.1C74.5 12.9 74.3 13.1 74.2 13.1C74.1 13.1 74 13.3 73.9 13.4C73.7 13.6 73.4 13.9 73.3 14.2C73 14.7 72.8 15.2 72.8 15.8C72.7 16.9 73.1 18.1 73.8 18.9C74.5 19.7 75.6 20.1 76.7 20.2C77.2 20.2 77.8 20.2 78.3 20C78.6 20 78.9 19.8 79 19.5C79 19.3 79 19.1 78.7 19C78.4 18.9 77.9 19.3 77.7 19.5C77.3 19.8 77.7 20.4 78.1 20.2C79.2 19.4 79.9 18.3 79.9 16.9C79.9 16.4 79.2 16.4 79.1 16.9L79.4 17Z" fill="#231F20"/>
<path d="M41.8 32.6C41.8 33.4 41.7 34.1 41.4 34.8C41.3 35.1 41.2 35.3 41 35.6C41 35.7 40.8 35.8 40.7 36C40.6 36.2 40.7 36 40.6 36.1C40.3 36.4 40.2 36.1 41.1 35.8C40 36.2 39.1 35.4 38.6 34.4C38 33.1 37.9 31.4 38.4 30.1C38.6 29.5 38.9 29 39.3 28.6C39.4 28.5 39.7 28.3 39.1 28.6C38.5 28.9 38.8 28.8 38.9 28.7C38.9 28.7 39.1 28.7 39.2 28.7C39.4 28.7 39.7 28.7 39.9 28.8C41.3 29.4 41.7 31.3 41.7 32.6L42.2 32.3C42.2 32.3 42.7 32.1 42.7 32C42.7 30.7 42.3 28.6 40.8 28.2C40.2 28 39.7 28.2 39.1 28.6C38.5 29 38 29.3 37.6 29.9C36.8 31.4 36.7 33.4 37.4 34.9C37.9 36.1 38.9 37 40.2 36.3C40.9 35.9 41.6 35.5 42 34.8C42.5 34 42.7 33 42.7 32L42.2 32.3C42.2 32.3 41.7 32.5 41.7 32.6H41.8Z" fill="#231F20"/>
<path d="M41.4 32.6C41.4 33.3 41.3 34 41 34.7C40.9 35 40.7 35.3 40.5 35.5L40.3 35.7C40.1 35.7 40.3 35.8 40.3 35.7H40.6C40.6 35.9 40.6 36 40.6 36.2C40.5 36.4 40.6 36.4 40.6 36.2C40.7 36.2 40.9 36.1 41 36C41.5 35.8 41.3 35.1 40.8 35.3C39.2 35.8 38.4 33.7 38.3 32.5C38.2 31.3 38.5 29.4 39.5 28.6C39.8 28.4 39.7 27.8 39.2 27.9C39.1 27.9 38.9 28.1 38.8 28.1C38.7 28.1 38.5 28.3 38.3 28.3C37.9 28.6 38.3 29.1 38.7 29C39.4 28.7 40.2 29.2 40.6 29.9C41 30.7 41.2 31.6 41.2 32.4C41.2 32.8 41.7 32.9 41.9 32.6C41.9 32.6 42 32.6 42.1 32.5C42.1 32.5 42.3 32.5 42.3 32.4C42.6 32.2 42.9 32.1 42.9 31.8C42.9 31.1 42.8 30.3 42.5 29.6C42.2 28.9 41.8 28.2 41.2 27.8C40.3 27.3 39.4 27.6 38.6 28.1C37.8 28.6 37.2 29.2 36.9 30.1C36.6 31 36.4 32 36.5 32.9C36.6 34.4 37.5 36.8 39.4 36.6C39.9 36.6 40.4 36.3 40.8 36C41.2 35.7 41.7 35.4 42 35C42.7 34.1 42.9 32.9 42.9 31.7C42.9 31.3 42.4 31.2 42.2 31.5C42.2 31.5 42.2 31.5 42 31.5C42 31.5 41.8 31.5 41.7 31.6C41.5 31.6 41.2 31.8 41.1 32C40.9 32.4 41.5 32.8 41.8 32.4C41.8 32.4 41.9 32.4 42 32.4C42 32.4 42.1 32.4 42.2 32.3C42.4 32.2 42.6 32.1 42.8 31.9L42.1 31.7C42.1 32.5 41.9 33.4 41.5 34.2C41.1 34.9 40.4 35.3 39.7 35.7C38.1 36.5 37.3 34.4 37.1 33.2C36.9 31.8 37.1 29.9 38.4 29C39 28.6 39.8 28 40.6 28.3C41.1 28.6 41.5 29.1 41.7 29.6C41.8 29.9 41.9 30.2 42 30.6C42 30.9 42 31.3 42 31.5C42.1 31.5 42.1 31.5 42 31.5C42 31.5 41.8 31.5 41.8 31.6C41.8 31.6 41.6 31.6 41.6 31.7C41.4 31.8 41.1 31.9 41 32.1L41.7 32.3C41.7 31.2 41.5 30 40.8 29C40.2 28.1 39.1 27.7 38.1 28.2L38.5 28.9C38.5 28.9 38.7 28.8 38.8 28.7C38.9 28.6 39 28.6 39.1 28.5L38.8 27.8C37.3 28.9 37 31 37.2 32.7C37.4 34.4 38.6 36.5 40.6 35.9L40.4 35.2C40.1 35.3 39.4 35.5 39.4 35.9C39.4 36.4 39.9 36.3 40.2 36.1C41.3 35.2 41.6 33.6 41.6 32.3C41.6 31.8 40.9 31.8 40.8 32.3L41.4 32.6Z" fill="#231F20"/>
<path d="M88.4 59.5C88.4 60.4 88.2 61.2 87.7 61.9C87.5 62.2 87.2 62.6 86.9 62.8C86.9 62.8 86.8 62.8 86.7 62.9C86.3 63.2 86.5 63.1 87.2 62.7C87 62.8 86.7 62.9 86.5 63C84.9 63.5 83.1 62.9 82.1 61.5C81.1 60.1 80.9 58.2 81.8 56.7C82 56.3 82.3 56 82.5 55.7C82.7 55.4 82.8 55.5 82.9 55.3C82.9 55.3 83.1 55.2 83.2 55.1C82.4 55.5 82.3 55.6 82.7 55.4C82.7 55.4 82.8 55.4 82.9 55.4C83.7 55.1 84.6 55 85.4 55.3C87.3 55.8 88.5 57.6 88.5 59.5L89 59.2C89 59.2 89.5 59 89.5 58.9C89.5 57 88.2 55.2 86.3 54.7C85.4 54.5 84.4 54.7 83.6 55C82.8 55.3 82 55.9 81.4 56.5C80.1 58 79.9 60.2 81 61.9C82.1 63.6 84.2 64.2 86 63.5C86.9 63.1 87.8 62.6 88.5 61.9C89.2 61.1 89.6 60 89.6 58.9L89.1 59.2C89.1 59.2 88.6 59.4 88.6 59.5H88.4Z" fill="#231F20"/>
<path d="M88 59.5C88 60.4 87.7 61.3 87.1 62C86.9 62.3 86.6 62.5 86.3 62.7C86.1 62.8 86 62.9 86 63.1C86 63.3 86.3 63.5 86.6 63.4C86.9 63.3 87.1 63.1 87.3 63C87.7 62.8 87.3 62.2 86.9 62.3C85.1 63.1 83 62.5 82 60.7C81 58.9 81.6 56.6 83.3 55.4C83.7 55.1 83.3 54.5 82.9 54.7C82.7 54.8 82.4 55 82.2 55.1C82 55.3 81.9 55.6 82.2 55.8C82.4 55.8 82.5 55.8 82.7 55.8C83.1 55.6 83.4 55.5 83.8 55.5C84.6 55.4 85.4 55.5 86.1 56C87.3 56.7 88 58 88 59.4C88 59.7 88.4 59.9 88.6 59.7C88.7 59.6 89.1 59.4 89.4 59.3C89.8 59.1 89.8 58.7 89.7 58.2C89.6 57.2 89.1 56.2 88.4 55.5C87.7 54.7 86.7 54.2 85.6 54.1C84.3 54 83.1 54.5 82.1 55.2C80.2 56.4 79.3 58.7 80 60.8C80.7 62.8 82.7 64.2 84.8 63.9C86 63.7 87.3 63.1 88.2 62.2C89.2 61.3 89.7 60 89.8 58.6C89.8 58.3 89.4 58.1 89.2 58.3C89 58.5 88.3 58.6 88.1 59C87.9 59.4 88.5 59.8 88.8 59.4H89C89 59.4 89.2 59.4 89.2 59.3C89.4 59.3 89.6 59.1 89.7 59L89.1 58.7C89.1 59.7 88.7 60.7 88 61.5C87.3 62.2 86.4 62.7 85.5 63C83.8 63.6 81.9 62.8 81.1 61.2C80.3 59.6 80.6 57.5 81.9 56.3C83.4 55 85.6 54.2 87.4 55.4C88.2 55.9 88.7 56.8 88.9 57.7C88.9 57.9 88.9 58.2 89 58.4C89 58.4 88.8 58.4 88.8 58.5C88.6 58.6 88.3 58.7 88.1 58.9L88.7 59.2C88.7 57.7 88 56.2 86.7 55.3C86 54.8 85.3 54.6 84.5 54.5C84 54.5 83.5 54.5 83.1 54.6C82.9 54.6 82.7 54.7 82.5 54.8C82.5 54.8 82.2 55 82.3 54.9H82.6V55.6C82.8 55.4 83.1 55.3 83.3 55.2L82.9 54.5C80.9 55.9 80.1 58.6 81.4 60.8C81.9 61.8 82.9 62.5 83.9 62.9C85.1 63.3 86.2 63.1 87.3 62.6L86.9 61.9C86.7 62 86.4 62.2 86.2 62.3L86.8 62.6C86.8 62.6 86.8 62.8 86.7 62.9C86.7 62.9 86.8 62.9 86.9 62.8C87 62.8 87.2 62.6 87.3 62.5C87.6 62.2 87.9 61.8 88.1 61.5C88.6 60.7 88.8 59.9 88.8 59C88.8 58.5 88.1 58.5 88 59V59.5Z" fill="#231F20"/>
<path d="M83.1 41.2C83.1 42.1 82.9 42.9 82.4 43.6C82.2 43.9 81.9 44.3 81.6 44.5C81.6 44.5 81.5 44.5 81.4 44.6C81 44.9 81.2 44.8 81.9 44.4C81.7 44.5 81.4 44.6 81.2 44.7C79.6 45.2 77.8 44.6 76.8 43.2C75.8 41.8 75.6 39.9 76.5 38.4C76.7 38 77 37.7 77.2 37.4C77.4 37.1 77.5 37.2 77.6 37C77.6 37 77.8 36.9 77.9 36.8C77.1 37.2 77 37.3 77.4 37.1C77.4 37.1 77.5 37.1 77.6 37.1C78.4 36.8 79.3 36.7 80.1 37C82 37.5 83.2 39.3 83.2 41.2L83.7 40.9C83.7 40.9 84.2 40.7 84.2 40.6C84.2 38.7 82.9 36.9 81 36.4C80.1 36.2 79.1 36.4 78.3 36.7C77.5 37 76.7 37.6 76.1 38.2C74.8 39.7 74.6 41.9 75.7 43.6C76.8 45.3 78.9 45.9 80.7 45.2C81.6 44.8 82.5 44.3 83.2 43.6C83.9 42.8 84.3 41.7 84.3 40.6L83.8 40.9C83.8 40.9 83.3 41.1 83.3 41.2H83.1Z" fill="#231F20"/>
<path d="M82.7 41.2C82.7 42.1 82.4 43 81.8 43.7C81.6 44 81.3 44.2 81 44.4C80.8 44.5 80.7 44.6 80.7 44.8C80.7 45 81 45.2 81.3 45.1C81.6 45 81.8 44.8 82 44.7C82.4 44.5 82 43.9 81.6 44C79.8 44.8 77.7 44.2 76.7 42.4C75.7 40.6 76.3 38.3 78 37.1C78.4 36.8 78 36.2 77.6 36.4C77.4 36.5 77.1 36.7 76.9 36.8C76.7 37 76.6 37.3 76.9 37.5C77.1 37.5 77.2 37.5 77.4 37.5C77.8 37.3 78.1 37.2 78.5 37.2C79.3 37.1 80.1 37.2 80.8 37.7C82 38.4 82.7 39.7 82.7 41.1C82.7 41.4 83.1 41.6 83.3 41.4C83.4 41.3 83.8 41.1 84.1 41C84.5 40.8 84.5 40.4 84.4 39.9C84.3 38.9 83.8 37.9 83.1 37.2C82.4 36.4 81.4 35.9 80.3 35.8C79 35.7 77.8 36.2 76.8 36.9C74.9 38.1 74 40.4 74.7 42.5C75.4 44.5 77.4 45.9 79.5 45.6C80.7 45.4 82 44.8 82.9 43.9C83.9 43 84.4 41.7 84.5 40.3C84.5 40 84.1 39.8 83.9 40C83.7 40.2 83 40.3 82.8 40.7C82.6 41.1 83.2 41.5 83.5 41.1H83.7C83.7 41.1 83.9 41.1 83.9 41C84.1 41 84.3 40.8 84.4 40.7L83.8 40.4C83.8 41.4 83.4 42.4 82.7 43.2C82 43.9 81.1 44.4 80.2 44.7C78.5 45.3 76.6 44.5 75.8 42.9C75 41.3 75.3 39.2 76.6 38C78.1 36.7 80.3 35.9 82.1 37.1C82.9 37.6 83.4 38.5 83.6 39.4C83.6 39.6 83.6 39.9 83.7 40.1C83.7 40.1 83.5 40.1 83.5 40.2C83.3 40.3 83 40.4 82.8 40.6L83.4 40.9C83.4 39.4 82.7 37.9 81.4 37C80.7 36.5 80 36.3 79.2 36.2C78.7 36.2 78.2 36.2 77.8 36.3C77.6 36.3 77.4 36.4 77.2 36.5C77.2 36.5 76.9 36.7 77 36.6H77.3V37.3C77.5 37.1 77.8 37 78 36.9L77.6 36.2C75.6 37.6 74.8 40.3 76.1 42.5C76.6 43.5 77.6 44.2 78.6 44.6C79.8 45 80.9 44.8 82 44.3L81.6 43.6C81.4 43.7 81.1 43.9 80.9 44L81.5 44.3C81.5 44.3 81.5 44.5 81.4 44.6C81.4 44.6 81.5 44.6 81.6 44.5C81.7 44.5 81.9 44.3 82 44.2C82.3 43.9 82.6 43.5 82.8 43.2C83.3 42.4 83.5 41.6 83.5 40.7C83.5 40.2 82.8 40.2 82.7 40.7V41.2Z" fill="#231F20"/>
<path d="M64.1 6.80001C64.1 7.80001 63.9 8.8 63.4 9.6C63.2 10 62.9 10.4 62.6 10.7C62.4 10.9 62.3 11 62.1 11.1C61.8 11.3 61.9 11.1 62.3 11C62.2 11 62.1 11 61.9 11.1C60.1 11.7 58.3 10.8 57.4 9.30001C56.3 7.60001 56.2 5.4 57.1 3.6C57.3 3.2 57.5 2.80003 57.8 2.50003C58.1 2.20003 58.1 2.20003 58.3 2.00003C58.3 2.00003 58.4 1.90001 58.5 1.80001C58.5 1.80001 58.7 1.6 58.8 1.6C58.3 1.9 58.2 1.90001 58.4 1.80001C58.8 1.80001 59.2 1.50003 59.6 1.50003C60.1 1.50003 60.6 1.50004 61 1.70004C63.1 2.40004 64.1 4.60004 64.2 6.70004L64.7 6.40005C64.7 6.40005 65.2 6.2 65.2 6.1C65.2 4 64 1.6 61.8 1.1C60.8 0.900002 59.9 1.10003 59 1.50003C58.1 1.90003 57.3 2.40004 56.7 3.20004C55.3 5.00004 55.2 7.70004 56.3 9.70004C57.3 11.5 59.5 12.5 61.5 11.6C62.4 11.2 63.3 10.6001 64 9.90005C64.8 8.90005 65.2 7.60001 65.3 6.30001L64.8 6.6C64.8 6.6 64.3 6.80005 64.3 6.90005L64.1 6.80001Z" fill="#231F20"/>
<path d="M63.7 6.79998C63.7 7.69998 63.5 8.49998 63.1 9.29998C62.9 9.59998 62.7 10 62.5 10.2C62.4 10.3 62.3 10.4 62.2 10.6C62.1 10.8 62 10.8 62 10.8C61.8 10.8 61.8 10.9 62 10.8L62.4 11.1C62.4 11.1 62.4 11.3 62.4 11.4C62.4 11.4 62.6 11.4 62.7 11.3L62.5 10.6C62 10.8 61.5 10.9 61 10.9C60.5 10.9 60 10.7 59.5 10.5C58.5 9.99999 57.8 8.99999 57.5 7.99999C56.8 5.89999 57.3 3.29999 59.2 1.99999C59.6 1.69999 59.2 1.09998 58.8 1.29998C58.6 1.39998 58.1 1.60002 58.1 1.90002C58.1 2.10002 58.3 2.29998 58.6 2.29998C59.4 1.99998 60.1 1.89997 60.9 2.09997C61.5 2.29997 62.1 2.59997 62.6 3.09997C63.5 4.09997 63.9 5.40001 64 6.70001C64 7.00001 64.4 7.19999 64.6 6.99999C64.8 6.79999 65.2 6.69997 65.4 6.59997C65.9 6.29997 65.7 5.80002 65.7 5.40002C65.6 4.30002 65.2 3.30002 64.5 2.40002C63.8 1.50002 62.8 0.900005 61.7 0.700005C60.3 0.500005 59.1 1.09998 58 1.79998C55.8 3.19998 54.9 5.89998 55.6 8.29998C56.2 10.5 58.1 12.5 60.5 12.2C61.8 12.1 63.2 11.2 64.2 10.3C65.3 9.19998 65.8 7.69997 65.8 6.09997C65.8 5.79997 65.4 5.59998 65.2 5.79998C64.9 6.09998 64.4 6.09999 64.1 6.49999C63.8 6.89999 64.5 7.30002 64.8 6.90002C64.8 7.10002 64.8 6.90002 65 6.90002C65 6.90002 65.2 6.89998 65.2 6.79998C65.4 6.79998 65.6 6.59999 65.8 6.49999L65.2 6.20001C65.2 7.40001 64.9 8.49999 64.1 9.49999C63.4 10.3 62.4 11 61.4 11.4C59.4 12.2 57.4 10.7 56.7 8.79998C56 6.89998 56.3 4.49997 57.9 3.09997C58.7 2.29997 59.9 1.59999 61.1 1.49999C62.1 1.49999 63.1 1.79999 63.8 2.49999C64.5 3.19999 65 4.20001 65.1 5.20001C65.1 5.40001 65.1 5.89999 65.1 5.99999C65.3 5.99999 65.3 5.99999 65.1 5.99999C65.1 5.99999 64.9 5.99997 64.8 6.09997C64.6 6.19997 64.3 6.29999 64.1 6.49999L64.7 6.79998C64.7 5.19998 64.1 3.59999 63 2.49999C62.5 1.99999 61.8 1.50002 61 1.40002C60.1 1.20002 59.2 1.39997 58.4 1.59997L58.9 1.99999C58.9 1.99999 58.8 2.19998 58.7 2.29998C58.9 2.19998 59 2.09999 59.2 1.99999L58.8 1.29998C56.6 2.79998 55.8 5.89998 56.8 8.29998C57.3 9.49998 58.1 10.5 59.2 11.1C60.3 11.7 61.5 11.6 62.7 11.3C63.2 11.1 63 10.5 62.5 10.6C62.2 10.6 61.7 10.9 61.8 11.3C61.8 11.5 62 11.6 62.2 11.6C62.5 11.6 62.8 11.3 63 11.1C63.4 10.8 63.7 10.3 64 9.90002C64.5 8.90002 64.8 7.89998 64.8 6.79998C64.8 6.29998 64.1 6.29998 64 6.79998H63.7Z" fill="#231F20"/>
</svg>
