<svg width="123" height="265" viewBox="0 0 123 265" fill="none" xmlns="http://www.w3.org/2000/svg">
<path d="M57.8 168.8V168.2C59.9 167.9 61.8 166.7 63.5 165.6C66.2 163.8 68.6 161.4 70.7 158.9C75.2 153.8 79.1 148.1 82.7 142.3C83.3 141.3 83.9 140.4 84.5 139.4C86.3 140.6 88.4 141.2 90.5 141.2C92.6 141.2 91.4001 141.2 91.9001 141.2C98.7001 140.4 105.3 137 110.3 131.9C115.4 126.7 118.9 119.9 120.4 112.2C122.1 103.8 121.4 94.7 118.2 86.7C117.8 85.7 117.3 84.6 116.4 83.8C113.7 81.7 110.1 84.1 108.7 85.2C97.6 93.8 90.4 106.6 84.1 118C82.1 121.6 79.6 126 79.7 130.8C79.7 133.9 81 136.7 83.3 138.7C83.5 138.9 83.7001 139 83.9001 139.1V139.3C82.1001 142.5 80.1 145.6 78 148.7C74.2 154.2 70.1 159.9 65 164.3C64.4 164.8 63.8 165.3 63.1 165.8C62.8 166 62.4 166.3 62 166.5C62 166.5 61.9 166.5 61.8 166.6C61.6 166.6 61.5 166.8 61.3 166.8C60.2 167.3 59 167.7 57.7 167.6C57.8 158.5 58 149.4 58.1 140.4C58.2 131.7 58.3 123.1 58.5 114.4C61.9 114.1 65.1 112.6 68 110.7C71.6 108.3 74.6 105 77.3 101.5C82.3 94.9 86.3 87.4 89.5 79.7C90.1 78.3 90.7 76.9 91.2 75.5C91.2 75.5 91.4 75.5 91.5 75.5C91.6 75.5 91.8001 75.5 91.9001 75.5L92.8 76.1C93 75.8 93.2001 75.6 93.4001 75.3C96.0001 74.8 99.6 73.2 103.1 70.3C107.2 66.9 112.2 60.6 112.6 50.2C113.3 35.9 113.4 26.9 110.1 22.3C109.2 21.1 107.9 20.3 106.5 20.1C105 19.9 103.3 20.3 102.1 21.2C95.7 25.9 84.6 37.3 83.5 50.2C82.3 64.6 86.1 74.2 90.5 75.5C88.9 79.8 87.0001 84.1 84.9001 88.2C81.1001 95.7 76.5 103.4 70.1 109C69.2 109.8 68.3001 110.5 67.4001 111.1C67.2001 111.3 66.9 111.4 66.7 111.6C66.6 111.6 66.5 111.8 66.3 111.8C65.8 112 65.3 112.3 64.8 112.5C62.9 113.3 60.9 113.8 58.8 113.8C58.9 106.2 59 98.8 59.1 91.3C59.1 85.9 59.3 80.5 59.3 75.1C59.3 73.4 59.3 71.8 59.3 70.1C59.3 69.5 59.3 68.8 59.3 68.2C59.5 68.2 59.7001 68.2 59.9001 68.2C62.1001 68.2 64.1 66.3 66.3 64.2C67.2 63.3 68.3001 62.3 69.4001 61.3C74.6001 56.9 76.7 46.6001 76.6 25.9C76.6 14.9 70.7 7.20001 65.7 2.80001C64.1 1.30001 61.9 0.600012 59.7 0.800012C57.5 1.00001 55.4 2.20002 54.1 4.00002C48.8 11.1 44.8001 22.9 43.9001 34C42.7001 47.4 51.1 61.6 55.6 65.9C56.6 66.8 57.5 67.4 58.3 67.7C58.3 69.4 58.3 71.1 58.3 72.8C58.3 77.6 58.2 82.3 58.1 87C58.1 94.1 57.9 101.1 57.8 108.2C57.8 110.2 57.8 112.2 57.8 114.1C57.8 116.7 57.8 119.3 57.7 121.8C55.3 121.4 53.2 119.8 51.5 118.2C48.9 115.8 46.8 113 44.8 110.2C40.9 104.6 37.5 98.6 34.4001 92.5C33.9001 91.4 33.4 90.4 32.8 89.3C33.9 88.9 35 88 35.7 86.8C36.5 85.4 36.9 83.8 37.2 82C37.5 80 37.9001 78 37.9001 75.8C38 69.9 35.9 64.3 34 59.3C32.8 56.2 31.5 52.7 29.8 49.4C28.6 47.2 27.2001 45 25.9001 42.9C24.9001 41.4 24 39.9 22.6 38.7C22.3 38.4 19.4 35.8 17.1 35.9C15.4 36 13.8 37.9 12.8 39.2V39.4C10.3 42.2 8.6 45.8 7.6 50.2C7 52.7 6.80005 54.7 6.90005 56.6C6.90005 58.9 7.60004 61.4 8.70004 64.3C11.6 72.1 16.5 79.1 22.8 84.5C25.1 86.5 27.1 87.8 29.1 88.7C29.8 89 30.7 89.3 31.6 89.3H31.8C33.5 92.9 35.3 96.4 37.3 99.9C40.8 106.2 44.7 112.7 49.8 117.8C51.8 119.8 54.3 122 57.3 122.3C57.5 122.3 57.7001 122.1 57.9001 121.9C57.9001 125.8 57.8 129.7 57.7 133.6C57.6 143.1 57.4 152.5 57.3 161.9C57.2 171.4 57 180.8 56.9001 190.3C56.9001 195.7 56.7 201.1 56.7 206.5C56.4 206.3 56.2 206.1 56 205.9C55.2 205.1 54.4 204.1 53.7 203.1C51.7 200.3 50 197.2 48.4001 194.2C44.9001 187.7 41.8 181 38.8 174.3C38.2 173 37.7 171.8 37.1 170.5C37.8 170 38.3 169.3 38.7 168.6C43.2 160.7 41.1 151.5 39.5 146.6C37.9 141.9 35.6001 137.5 33.4001 133.3C32.2001 131.1 31.1 128.9 30 126.6C29.6 125.7 29.1 124.7 28.7 123.8C27.2 120.4 25.6 116.9 23.3 113.8C21.1 110.8 16 106.2 11.2 108.3C8.90004 109.3 7.50005 111.4 6.40005 113.2C-0.199948 124.6 -0.0999722 138.8 6.50003 148.7C8.50003 151.7 11.1 154.2 13.3 156.4C18.4 161.4 24.6001 166.9 31.9001 170.2C32.8001 170.6 34 171.1 35.1 171.1C36.2 171.1 35.6 171.1 35.8 171.1C37.5 175.1 39.3 179.1 41.2 183C44.4 189.8 47.7 196.7 51.8 203C52.6 204.2 53.4001 205.3 54.4001 206.4C54.9001 207 55.6 207.7 56.5 207.8C56.5 210.9 56.5 214 56.4001 217.1C56.3001 224.6 56.2 232 56.1 239.5C56.1 244.9 55.9001 250.3 55.9001 255.7C55.9001 257.4 55.9001 259 55.9001 260.7C55.9001 261.6 55.8001 262.5 55.9001 263.3V263.6C55.9001 263.4 57 263.2 57 263V257.7C57.2 252.9 57.2 248.2 57.3 243.5C57.3 236.4 57.5 229.4 57.6 222.3C57.6 221.8 57.6 221.4 57.6 220.9C60 219.4 62.4 217.8 64.6 216.1C69.9 212.1 74.8 207.7 79.2 202.8C81.8 199.8 84.2 196.6 86.2 193.1C86.2 193.1 86.3001 193.1 86.4001 193.1C86.6001 193.1 86.7 193.1 86.8 193.2C87.6 193.4 88.4 193.5 89.2 193.5C96 193.5 103.8 187.6 107.2 184.1C112.3 178.9 115.6 172.3 116.4 165.5C116.8 162.6 116.7 159.6 116.6 156.7C116.6 153.6 116.4 150.3 115.9 147.2C115.7 146.3 115.5 145.2 114.8 144.5C114.8 144.5 114.8 144.5 114.7 144.5C113.8 143.7 112.4 143.4 110.5 143.8C103.2 145.1 97.5 149.8 94.1 153.6C89.7 158.4 86.4 164 83.3 169.4C81.8 172.1 80.1 174.8 79.5 177.9C78.9 180.5 79.1001 183.3 79.9001 185.8C80.6001 188.1 81.7 189.8 83 191.1C83.8 191.9 84.7 192.5 85.7 192.9C85.7 192.9 85.6 192.9 85.6 193C82.1 199.3 77.2001 204.9 71.9001 209.8C67.9001 213.5 63.7 216.8 59.2 219.8C58.7 220.2 58.1 220.5 57.6 220.9C57.6 216.3 57.7 211.8 57.8 207.2L58 196.7C58.1 187.2 58.3001 177.8 58.4001 168.4L57.8 168.8ZM118.1 89.6C120.4 96.7 120.8 104.5 119.3 111.8C117.8 119.3 114.4 125.9 109.5 130.8C104.6 135.8 98.3 139 91.8 139.8C89.7 140.1 87.5 139.6 85.7 138.6C93.2 135.4 102.6 126 109.7 114.4C115.5 104.9 117.5 94.5 118.1 89.6ZM82.7 136C81.6 134.5 81.0001 132.6 80.9001 130.6C80.9001 126.2 83.1 122.1 85.1 118.4C91.4 107.2 98.5001 94.4 109.4 86C110.6 85.1 113.6 83.1 115.6 84.6C116.2 85.1 116.6 85.8 116.9 86.6C115.6 87.8 110.2 93.1 101.8 102.7C93.2 112.6 84.6 131.5 82.6 135.9L82.7 136ZM83.6 137C84.9 134.1 93.9 113.8 102.8 103.5C109.9 95.3 114.8 90.4 116.9 88.3C116.5 92.4 114.7 103.6 108.5 113.7C101.4 125.3 91.6 135 84.3 137.7C84.3 137.7 84.1 137.5 84 137.5C83.8 137.3 83.6 137.2 83.5 137H83.6ZM106.8 21.4C107.7 21.7 108.5 22.2 109 23C112.1 27.3 111.9 36.1 111.3 50.2C110.8 60.2 106.1 66.2001 102.2 69.4C99.5 71.7001 96.6001 73.1 94.4001 73.8C107.4 53.9 107 26.6 106.8 21.4ZM84.6 50.2C85.5 38.9 94.9 28.5 101 23.4C98.1 31.3 88.3 59.4 88.5 72.4C85.9 69.1 83.7 61.3 84.6 50.1V50.2ZM102.9 22C103.7 21.5 104.6 21.2 105.5 21.2C105.7 25.5 106.4 54.1 92.6 74.2C92 74.2 91.4 74.3 91.1 74.2C90.7 74.2 90.3 74 89.8 73.7C88.8 60.5 101.8 24.8 102.9 22ZM75.3 25.9C75.3 46.2001 73.4 56.2 68.5 60.4C67.7 61.1 66.9 61.8 66.2 62.5C73.8 28.8 68 10.4 65.3 4.30001C70 8.60001 75.3 15.8 75.3 26V25.9ZM62 2.30001C62.4 2.30001 62.8 2.50004 63.2 2.70004C64.3 4.60004 74.2 23.7 64.6 64C63.1 65.4 61.9 66.5 60.7 66.8L61.9001 2.20004L62 2.30001ZM45 34.2C45.9 23.3 49.9 11.7 55 4.80001C55.2 4.60001 55.4 4.3 55.6 4.1C54 7.8 51.3001 16.1 51.4001 29.8C51.5 45.1 54.9 59.9 56.2 65C51.8 60.8 43.9 47.1 45 34.2ZM52.7 29.8C52.5 12.6 57.1 3.90004 57.7 2.70004C58.4 2.40004 59.1 2.2 59.8 2.1C60 2.1 60.3 2.1 60.5 2.1C60.7 2.1 60.7 2.1 60.8 2.1L59.6 67C59.1 67 58.5 66.7001 57.9001 66.4C57.3001 64.2 52.9 47.4 52.8 29.9L52.7 29.8ZM29 88.1C27.1 87.3 25.2 86 23 84.1C16.8 78.8 12.1 72 9.20004 64.4C8.10004 61.6 7.60003 59.2 7.50003 57.1C7.50003 55.3 7.70004 53.4 8.20004 51C9.20004 46.8 10.8 43.3 13 40.7V40.5C13.8 39.7 14.9001 38.4 15.9001 37.9C15.4001 42.3 13.7 60.9 17.6 68C21.3 74.6 28.4001 85.6 30.4001 88.7C29.9001 88.7 29.3001 88.4 28.9001 88.2L29 88.1ZM18.8 67.3C15.5 61.4 16.5 46.1 17 39.8C18.3 43.7 21.1 51.2 24.5 59.1C28.3 67.8 30.1 81 30.7 86.5C28 82.3 22.1 73.1 18.8 67.2V67.3ZM25.6 58.7C21.6 49.4 18.5 40.6 17.6 37.8C18.8 38.1 20.3001 39.1 21.4001 40.1C22.6001 41.2 23.6 42.7 24.5 44.1C25.8 46.1 27.2001 48.3 28.4001 50.5C30.1001 53.7 31.4 57.2 32.6 60.2C34.4 65 36.5 70.5 36.4001 76.2C36.4001 78.2 36 80.3 35.7 82.2C35.4 83.9 35.1001 85.3 34.4001 86.5C33.9001 87.4 33.1 88.1 32.2 88.4C31.9 85 30.1 68.9 25.7 58.7H25.6ZM11.2 110C11.9 109.7 12.5 109.6 13.2 109.6C16.7 109.6 20.1 112.9 21.8 115.1C24 118.1 25.6 121.5 27.1 124.9C27.5 125.9 28.0001 126.8 28.4001 127.8C29.5001 130.1 30.7 132.3 31.8 134.5C34 138.7 36.3 143.1 37.8 147.7C39.4 152.3 41.3 161.2 37.1 168.7C36.8 169.2 36.5 169.6 36.1 170C35.6 167.7 33.9001 159.5 29.9001 144.6C25.6001 128.4 12.6001 113.6 9.90005 110.7C10.2001 110.5 10.6 110.2 11 110H11.2ZM32 169.6C24.8 166.3 18.8 160.9 13.7 156C11.5 153.9 9.00003 151.3 7.00003 148.5C0.600028 139 0.600028 125.3 7.00003 114.3C7.00003 114.3 7.10004 114.1 7.20004 114C6.90004 144.2 29.5001 165.9 34.4001 170.3C33.7001 170.3 32.9 170 32 169.6ZM8.50003 112.2C8.70003 111.9 8.90004 111.7 9.20004 111.4C11.7 114.1 24.7001 128.8 28.9001 144.8C32.3001 157.8 34.1 165.7 34.8 169C29 163.8 7.30003 142 8.50003 112.2ZM114.3 147.8C114.3 147.8 114.3 147.9 114.3 148C114.8 151.1 114.9 154.3 115 157.4C115 160.2 115.2 163.1 114.8 166C114 172.5 110.8 178.8 105.9 183.8C101.7 188 93.4 193.8 87.2 192.7C89.7 190.7 95.4 185.7 102.8 176.4C110.7 166.5 113.4 153.1 114.2 147.8H114.3ZM80.5 185.9C79.7 183.6 79.6 181 80.1 178.6C80.7 175.7 82.3 173 83.8 170.4C86.9 165 90.2 159.4 94.5 154.8C97.8 151.2 103.3 146.6 110.3 145.4C111.5 145.2 112.3 145.2 113 145.5C110.9 147.3 103.4 153.8 95.4001 162.2C87.9001 170.1 83.3 184.6 82.6 189.7C81.8 188.7 81.2 187.4 80.7 185.9H80.5ZM96.2 163.1C103.5 155.4 110.4 149.3 113.2 147C112.5 151.6 110 165.5 101.9 175.6C93.7001 185.9 87.5 191 85.7 192.3C84.9 192 84.1 191.5 83.5 190.9C83.7 188.8 87.3 172.4 96.2 163.1Z" fill="#231F20"/>
<path d="M58.2 168.8V168.2C58.2 168.3 58 168.4 57.9 168.6C60.9 168.1 63.7 166.1 66 164.2C68.6 162 70.9 159.4 73 156.8C77.4 151.4 81.3 145.6 84.8 139.6H84.3C89.8 143.2 96.8 141.1 102.1 138.3C107.4 135.5 112.4 130.9 115.6 125.5C122.6 114 123.5 99 118.6 86.5C113.7 74 97.6 95.5 94.4 100.1C90.7 105.4 87.5 111 84.3 116.6C81.4 121.8 77.8 127.8 79.8 134C80.3 135.5 81.1 136.8 82.1 137.9C82.4 138.3 83.4 138.9 83.4 139.3C83.4 139.5 82.9 140.1 82.8 140.3C82.5 140.9 82.1 141.5 81.8 142C79.7 145.5 77.4 148.8 75 152.1C72.6 155.4 70 158.7 67.1 161.6C65.6 163.1 64 164.6 62.2 165.8C61.6 166.2 61 166.5 60.4 166.7C59.5 167 58.5 166.9 57.7 167.2L58.2 167.6C58.4 149.8 58.7 132.1 59 114.3L58.6 114.7C67.2 113.9 73.8 106.9 78.6 100.3C84.1 92.8 88.3 84.3 91.5 75.6L91.1 75.9C91.8 75.9 92 76.1 92.5 76.5C92.7 76.6 92.9 76.5 93 76.4C93.7 75.4 94.8 75.4 95.9 75C97 74.6 97.9 74.2 98.9 73.6C100.9 72.5 102.7 71.2 104.3 69.6C107 67.1 109.1 63.9 110.6 60.5C112.6 55.7 112.8 50.8 113 45.7C113.2 41 113.4 36.2 113 31.5C112.7 28.2 112.2 24.7 110.3 22L110 22.6C110.4 22.6 110.4 22.2 110.3 22C108.7 19.9 105.9 19.1 103.4 20C101.6 20.7 99.9 22.3 98.5 23.5C94.7 26.8 91.3 30.7 88.6 35C85.7 39.6 83.5 44.7 83 50.2C82.5 55.9 82.7 62 84.3 67.5C85.2 70.6 86.8 74.7 90.2 75.8L89.9 75.3C86.9 83.4 83 91.5 78.2 98.6C73.7 105.3 67.2 113.2 58.5 113.4L58.9 113.8C59.1 98.6 59.4 83.4 59.6 68.2L59.2 68.6C62.8 69 65.6 65.3 67.9 63.1C69.4 61.7 71 60.4 72.1 58.6C74.5 54.8 75.3 50.2 75.9 45.8C76.4 42.4 76.6 38.9 76.7 35.5C76.9 31.4 77.1 27.1 76.7 23C76 16.4 73.2 10.4 68.8 5.50001C66.9 3.30001 64.7 1.00001 61.7 0.500006C58.4 6.49691e-06 55.4 1.49998 53.4 4.09998C49 10.1 46.4 17.6 44.7 24.9C43.8 28.8 43.1 32.9 43.2 36.9C43.3 40.9 43.9 44.5 45 48.2C46.8 54.2 49.7 60.1 53.7 64.9C54.5 65.9 55.4 66.8 56.5 67.5C56.7 67.7 57.3 67.8 57.5 68.1C57.8 68.5 57.6 69.3 57.5 69.7C57.5 70.9 57.5 72.1 57.5 73.3C57.5 78 57.4 82.6 57.3 87.3C57.2 96.6 57 105.9 56.9 115.2C56.9 117.5 56.9 119.8 56.9 122.2L57.4 121.8C54.1 121.2 51.5 118.6 49.3 116.2C46.9 113.6 44.8 110.6 42.8 107.7C39 101.9 35.6 95.7 32.6 89.4L32.4 89.9C34.8 88.9 36.1 86.7 36.6 84.3C37.3 81.2 37.8 77.9 37.7 74.7C37.4 68.3 34.8 62.2 32.5 56.3C31.3 53.3 29.9 50.3 28.3 47.5C26.7 44.7 25 41.7 22.8 39.4C21.5 38.1 19.9 36.9 18.2 36.3C16.3 35.7 14.8 36.3 13.4 37.8C9.50001 41.6 7.29998 46.8 6.29998 52.1C5.19998 57.9 6.7 63.3 9.2 68.6C11.7 73.9 15.2 78.8 19.3 83C21.4 85.1 23.7 87.1 26.2 88.6C27.3 89.2 28.5 89.9 29.7 90.2C30.3 90.3 30.7 90.2 31.1 90.6C31.6 91.1 32 92.4 32.3 93.1C35.6 99.8 39.3 106.4 43.6 112.4C45.6 115.2 47.9 117.9 50.5 120.2C52 121.5 55.6 124.5 57.6 122.9L57 122.6C56.7 144.6 56.4 166.5 56.1 188.4C56.1 194.7 55.9 201 55.8 207.3L56.4 207C53.9 205 52.2 201.8 50.6 199.1C48.9 196.2 47.3 193.1 45.8 190.1C42.6 183.9 39.7 177.5 36.9 171.1V171.6C38.8 170.5 39.7 167.4 40.4 165.4C41.1 163 41.4 160.4 41.4 157.9C41.4 153.1 40.1 148.5 38.3 144.1C36 138.4 32.8 133.2 30.2 127.6C27.7 122.4 25.8 116.7 21.7 112.5C18.7 109.4 14.1 106.6 9.90001 109C7.90001 110.1 6.59999 112.1 5.49999 114C4.19999 116.3 3.09998 118.8 2.29998 121.4C-0.700023 131.3 0.500013 142.6 6.90001 150.9C10.6 155.7 15.3 159.9 19.9 163.7C22.4 165.7 24.9 167.6 27.7 169.2C30 170.5 32.8 172.3 35.6 171.9L35.2 171.7C38.2 178.7 41.4 185.6 44.8 192.3C46.5 195.6 48.2 198.9 50.2 202C51.1 203.4 51.9 204.7 53 206C53.8 207 54.8 208.3 56.2 208.6L55.9 208.2C55.6 226.8 55.4 245.5 55.1 264.1C55.1 264.5 55.6 264.6 55.8 264.3C56 264 56.7 264.1 56.9 263.6C57.1 263.2 56.9 262.4 56.9 262V259.8C56.9 256.9 57 253.9 57.1 251C57.1 245.1 57.3 239.2 57.3 233.3C57.3 230.3 57.3 227.3 57.4 224.3C57.4 223.6 57.4 222.9 57.4 222.3C57.4 221.5 57.9 221.3 58.5 220.9C59.8 220.1 61 219.2 62.2 218.4C66.6 215.2 70.8 211.8 74.7 208C79 203.7 82.9 199 86 193.8L85.6 194C85.7 194.1 85.9 194.2 86.1 194L87.3 194.3C87.9 194.3 88.5 194.4 89.1 194.3C90.1 194.3 91 194.1 92 193.9C94 193.4 96 192.6 97.8 191.6C101.2 189.8 104.3 187.4 107 184.7C110.2 181.5 112.8 177.6 114.5 173.3C116.3 168.7 116.7 163.9 116.6 159C116.6 156.3 116.5 153.5 116.2 150.8C116 149 116 146.4 114.8 144.8C112.5 142 107.5 143.9 104.9 145C96.7 148.4 90.8 155.5 86.2 162.9C84.7 165.2 83.3 167.7 81.9 170.1C80.5 172.5 79.3 174.7 78.6 177.3C77.9 179.9 77.9 182.6 78.6 185.2C78.9 186.4 79.4 187.6 79.9 188.7C80.2 189.3 80.6 189.9 81 190.4C81.3 190.8 81.8 191.2 82 191.6C82.2 192 82.4 191.8 82.6 191.6H82.1C82.9 192.4 83.9 193 84.9 193.4V192.8C84.4 193.2 84.1 193.9 83.8 194.4C83.4 195.1 82.9 195.8 82.5 196.5C81.6 197.9 80.6 199.2 79.6 200.5C77.6 203.1 75.4 205.5 73.1 207.7C68.1 212.6 62.6 217 56.7 220.7L57.3 221C57.5 203.5 57.8 185.9 58.1 168.4C58.1 167.9 57.4 167.9 57.3 168.4C57.1 185.9 56.8 203.5 56.5 221C56.5 221.3 56.8 221.5 57.1 221.3C62.9 217.6 68.3 213.3 73.3 208.5C75.6 206.2 77.8 203.8 79.9 201.3C80.9 200.1 81.8 198.9 82.7 197.6C83.1 197 83.5 196.4 83.9 195.7C84.3 195 84.8 193.8 85.4 193.3C85.6 193.2 85.5 192.8 85.4 192.7C84.4 192.3 83.5 191.7 82.7 191C82.5 190.9 82.3 190.8 82.2 191C82.4 191 82.6 191 82.8 191C82.5 190.4 81.8 189.8 81.3 189.2C80.6 188.2 80.1 187.1 79.8 186C79 183.5 78.8 180.8 79.3 178.3C80.2 173.9 82.9 170 85.1 166.2C89.4 159 94.3 151.9 101.6 147.5C103.4 146.4 105.4 145.5 107.4 144.9C109.4 144.3 112.1 143.4 114 144.9C114.5 145.4 114.8 146 114.9 146.6C115.2 147.8 115.3 149.1 115.5 150.4C115.7 152.8 115.8 155.2 115.9 157.6C116 162.3 115.9 166.8 114.4 171.3C113 175.5 110.7 179.4 107.8 182.7C105.1 185.8 101.8 188.4 98.2 190.4C96.3 191.5 94.2 192.4 92.1 192.9C91 193.2 89.8 193.3 88.6 193.3C87.8 193.3 87.1 193.1 86.3 193C86.1 193 86 192.9 85.8 193H86.3C86.2 193 86.1 193 85.8 192.8C85.6 192.8 85.5 192.8 85.4 193C79.7 202.7 71.3 210.5 62.3 217.1C61.2 217.9 60.1 218.7 59 219.4C58.3 219.9 57 220.3 56.7 221.1C56.5 221.5 56.7 222.5 56.7 223C56.7 223.7 56.7 224.4 56.7 225.1C56.7 226.6 56.7 228.2 56.7 229.8C56.7 235.6 56.5 241.5 56.5 247.3C56.5 250.5 56.5 253.8 56.4 257C56.4 258.6 56.4 260.2 56.4 261.9C56.4 262.2 56.4 262.6 56.4 262.9C56.3 263.3 56.2 263.2 55.8 263.5C55.6 263.6 55.5 263.7 55.4 263.8L56.1 264C56.4 245.4 56.6 226.7 56.9 208.1C56.9 207.9 56.8 207.8 56.6 207.7C54.9 207.3 53.6 205.2 52.7 203.9C51.7 202.5 50.9 201.1 50 199.7C48.2 196.7 46.6 193.7 45.1 190.5C41.9 184.1 39 177.7 36.1 171.2C36.1 171 35.8 171 35.7 171C33.1 171.4 30.2 169.4 28 168.1C25.6 166.7 23.4 165.1 21.3 163.4C17.5 160.4 14 157.1 10.6 153.5C7.09997 149.8 4.39999 145.5 2.99999 140.6C1.69999 135.9 1.5 130.9 2.2 126.1C2.9 121.3 4.70001 116.5 7.40001 112.5C8.90001 110.3 11 108.4 13.9 108.5C16.3 108.5 18.6 110 20.3 111.6C24.1 115 26.2 119.8 28.3 124.4C30.6 129.6 33.4 134.5 35.9 139.6C38.2 144.3 40.1 149.2 40.8 154.4C41.1 157.1 41.1 159.9 40.6 162.6C40.4 163.9 40 165.3 39.5 166.6C39 167.9 38.2 170 36.8 170.7C36.6 170.7 36.6 171 36.7 171.2C39.5 177.8 42.5 184.3 45.8 190.7C47.4 193.8 49 196.9 50.8 199.9C52.3 202.5 54 205.5 56.4 207.4C56.6 207.6 57 207.4 57 207.1C57.3 185 57.6 163 58 140.9C58 134.7 58.2 128.5 58.3 122.4C58.3 122.1 57.9 121.9 57.7 122.1C56.9 122.8 55 121.7 54.4 121.4C53.7 121 53 120.5 52.4 120C51.2 119 50 117.9 49 116.7C46.6 114.1 44.5 111.2 42.5 108.2C38.7 102.3 35.2 96 32.2 89.6C32.2 89.5 32 89.4 31.9 89.4C30.1 89.5 28.1 88.3 26.6 87.4C24.7 86.2 23.1 84.8 21.4 83.3C18.4 80.5 15.8 77.3 13.6 73.8C11.4 70.3 9.49998 66.4 8.29998 62.4C7.09998 58.4 7.09998 54.2 8.29998 50.1C9.29998 46.3 10.9 42.8 13.4 39.8C14.4 38.6 15.9 36.8 17.5 36.7C19.1 36.6 20.7 37.7 21.8 38.6C24.8 40.9 26.8 44.7 28.7 48C31 51.9 32.7 56.1 34.3 60.4C36.1 65.1 37.8 70 38 75.2C38 77.9 37.7 80.5 37.2 83.1C36.7 85.7 35.8 88.2 33.3 89.2C33.1 89.2 33 89.5 33.1 89.7C36.3 96.4 39.9 103 44.1 109.2C46 112.1 48.1 114.9 50.5 117.4C52.6 119.6 55.1 121.9 58.3 122.5C58.5 122.5 58.8 122.5 58.8 122.1C59.1 104 59.3 85.9 59.6 67.9C59.6 67.8 59.6 67.6 59.4 67.6C55.6 65.9 53 61.3 51.1 57.9C48.4 53.1 46.5 47.7 45.6 42.3C44.6 36.1 45.6 29.9 47 23.9C48.4 17.9 50.4 12.6 53.4 7.50001C54.9 5.00001 56.4 2.60002 59.3 1.70002C62.3 0.700019 65.1 1.90001 67.3 4.00001C70.7 7.20001 73.5 11.2 75.3 15.5C77.6 21.2 77.4 27.2 77.2 33.2C77.1 38.2 76.8 43.3 75.9 48.3C75.3 51.8 74.4 55.5 72.4 58.6C71.5 60 70.3 61 69 62.2C66.7 64.3 63.8 68.3 60.3 68C60.1 68 59.9 68.2 59.9 68.4C59.7 83.6 59.4 98.8 59.2 114C59.2 114.2 59.4 114.4 59.6 114.4C68.3 114.2 74.6 106.9 79.2 100.4C84.4 92.9 88.7 84.4 91.8 75.8C91.8 75.6 91.8 75.4 91.5 75.3C88.7 74.4 87.2 70.9 86.3 68.3C84.8 63.6 84.4 58.5 84.6 53.6C84.8 48.1 86.1 43 88.7 38.2C91 34 94 30.2 97.4 26.8C98.9 25.3 100.5 23.8 102.2 22.5C103.4 21.6 104.6 20.8 106.1 20.7C108 20.6 109.6 21.4 110.7 22.9L111 22.3C110.7 22.3 110.5 22.6 110.7 22.9C112.4 25.3 112.9 28.3 113.2 31.1C113.6 35.3 113.5 39.6 113.4 43.9C113.2 49.1 113.2 54.3 111.5 59.3C110.2 63 108.1 66.3 105.3 69.1C103.5 70.8 101.5 72.3 99.3 73.5C98.1 74.1 96.9 74.7 95.7 75C95.2 75.1 94.6 75.2 94.2 75.4C93.8 75.6 93.6 76.1 93.4 76.4H93.9C93.1 75.7 93.1 75.7 92.1 75.6C91.9 75.6 91.8 75.7 91.7 75.9C88.6 84.1 84.7 92.1 79.7 99.3C75 106.1 68.3 113.6 59.5 114.5C59.3 114.5 59.1 114.7 59.1 114.9C58.9 132.7 58.6 150.4 58.3 168.2C58.3 168.4 58.5 168.6 58.8 168.6C59.3 168.4 60.1 168.6 60.7 168.4C61.4 168.2 62 168 62.7 167.7C63.8 167.2 64.8 166.3 65.7 165.6C68.2 163.5 70.5 161 72.7 158.5C76.9 153.4 80.6 147.9 84 142.3C84.4 141.7 85.6 140.4 85.3 139.6C85.1 139.2 84.6 139 84.3 138.7C83.6 138.1 83.1 137.4 82.6 136.6C80.8 133.7 80.8 130.2 81.7 127C82.6 123.8 84.1 121.2 85.7 118.4C87.1 115.8 88.6 113.2 90.1 110.7C93.2 105.4 96.6 100.2 100.5 95.4C102.4 93.1 104.5 90.9 106.7 88.8C108.7 87 110.8 85 113.4 84.2C115 83.7 116.6 83.9 117.8 85.2C119 86.5 119.4 88.4 119.9 90C121 93.3 121.6 96.8 121.9 100.3C122.4 106.9 121.5 113.6 119 119.8C116.4 126.3 112.2 132.1 106.5 136.1C103.6 138.1 100.4 139.7 97 140.6C93.1 141.7 89.3 141.9 85.8 139.7C85.6 139.6 85.4 139.7 85.3 139.8C81.9 145.6 78.2 151.2 73.9 156.4C71.9 158.9 69.8 161.3 67.4 163.4C65 165.5 62 167.9 58.7 168.4C58.5 168.4 58.4 168.6 58.4 168.8V169.4C58.4 169.9 59.1 169.9 59.1 169.4L58.2 168.8Z" fill="#231F20"/>
<path d="M117.7 89.7C123 106.8 117.7 128.4 100.7 136.8C96.3 139 90.5 140.8 85.9 138.3V139C92.9 136 98.6001 130 103.3 124.1C109.1 116.9 113.6 109.1 116.2 100.2C117.2 96.7 118 93.2 118.4 89.6C118.4 89.1 117.7 89.1 117.6 89.6C116.6 96.9 114.5 104.2 111.1 110.8C107.1 118.6 101.4 125.9 94.9 131.8C92 134.4 88.9 136.8 85.3 138.3C85 138.4 85.1 138.8 85.3 139C89.3 141.2 93.9 140.2 98 138.7C102.1 137.2 106 134.7 109.2 131.5C115.7 125 119.4 116 120.1 106.9C120.6 101.1 119.9 95.1 118.2 89.6C118.1 89.1 117.3 89.3 117.5 89.8L117.7 89.7Z" fill="#231F20"/>
<path d="M83 135.8C80 131.4 81.6 126.2 83.8 121.9C85.7 118.1 87.9 114.5 90 110.9C94.3 103.5 99.1 96.3 105.3 90.3C106.9 88.7 108.6 87.1 110.5 85.9C111.4 85.3 112.3 84.8 113.4 84.6C115.1 84.3 116.1 85.4 116.7 86.9V86.4C111.2 91.6 105.9 97.4 101 103.2C95.2 110.2 90.8 118.5 86.7 126.6C85.2 129.6 83.7 132.7 82.4 135.8C82.2 136.2 82.8999 136.6 83.0999 136.2C86.0999 129.5 89.4 122.9 93 116.6C95.3 112.5 97.9 108.5 100.8 104.8C104 100.7 107.6 96.9 111.2 93.2C113.2 91.1 115.3 89 117.4 87C117.5 86.9 117.5 86.7 117.4 86.5C116.7 84.8 115.5 83.6 113.6 83.8C111.9 84 110.3 85 109 86.1C105.1 89.1 101.8 92.7 98.7 96.6C92.8 104.1 87.9 112.5 83.5 121C81 125.7 79.1 131.5 82.4 136.3C82.7 136.7 83.2999 136.3 83.0999 135.9L83 135.8Z" fill="#231F20"/>
<path d="M83.9 137.2C86.4 131.4 89.3 125.7 92.3 120.2C94.5 116.2 96.9 112.2 99.6 108.4C102.5 104.3 105.9 100.6 109.3 96.9C111.9 94.1 114.5 91.3 117.3 88.6L116.7 88.3C115.9 95.6 113.8 102.9 110.5 109.5C106.5 117.6 100.5 125.2 93.7 131.2C92.1 132.6 90.4 133.9 88.7 135.1C87.9 135.6 87.2 136 86.4 136.4C86 136.6 85.7 136.8 85.3 136.9C84.6 137.2 84.5 137.2 83.9 136.6C83.6 136.3 83 136.8 83.4 137.1C84 137.7 84.3 138.1 85.1 137.8C85.8 137.5 86.5 137.2 87.2 136.8C88.8 136 90.3 134.9 91.7 133.8C95.2 131.1 98.4 127.9 101.2 124.6C107.6 117 112.7 108.5 115.4 98.9C116.4 95.4 117.1 91.8 117.5 88.2C117.5 87.9 117.1 87.7 116.9 87.9C114.6 90.1 112.4 92.5 110.2 94.8C106.8 98.5 103.3 102.1 100.3 106.1C95 113.2 90.8 121.1 87 129.1C85.8 131.6 84.6 134.1 83.5 136.6C83.3 137 84 137.4 84.2 137L83.9 137.2Z" fill="#231F20"/>
<path d="M106.7 21.8C107.5 22.1 108.5 22.7 109 23.4C108.8 23.1 109 23.7 109.1 23.8C109.3 24 109.4 24.3 109.5 24.6C110.1 25.8 110.4 27.1 110.7 28.4C111.4 32 111.4 35.8 111.3 39.5C111.3 42 111.2 44.4 111.1 46.8C111 49.4 110.9 52 110.4 54.6C109.6 58.6 107.9 62.4 105.3 65.6C102.5 69.1 98.6 71.9 94.3 73.4L94.7 73.9C103.5 60.4 106.7 43.7 107.1 27.7C107.1 25.6 107.1 23.4 107.1 21.3C107.1 20.8 106.3 20.8 106.3 21.3C106.8 34.1 105.1 47.3 100.8 59.3C99.1 64.3 96.8 69 94 73.5C93.8 73.8 94.1 74.2 94.4 74C102.4 71.4 108.4 64.6 110.6 56.6C112 51.5 111.8 46 112 40.7C112 36.6 112.2 32.5 111.5 28.4C111 25.4 110 21.9 106.9 20.9C106.4 20.7 106.2 21.5 106.7 21.6V21.8Z" fill="#231F20"/>
<path d="M85 50.2C86 39.7 93.4 30.3 101.3 23.7L100.7 23.3C96.1 35.9 91.8 48.8 89.3 62C88.7 65.4 88.1 68.9001 88.1 72.4001L88.8 72.2C87 69.9 86.1 66.9 85.6 64.1C84.7 59.5 84.6 54.8 85 50.1C85 49.6 84.3 49.6 84.2 50.1C83.8 54.8 83.9 59.6 84.8 64.3C85.4 67.2 86.3 70.2 88.1 72.6C88.3 72.9 88.8 72.8001 88.8 72.4001C88.8 65.6001 90.5 58.8 92.2 52.2C94.1 45.1 96.3 38.1 98.6 31.1C99.5 28.5 100.4 26.0001 101.3 23.4001C101.4 23.0001 100.9 22.8 100.7 23C92.7 29.7 85.2 39.3 84.2 50C84.2 50.5 84.9 50.5 85 50V50.2Z" fill="#231F20"/>
<path d="M103.1 22.3C103.8 21.8 104.7 21.5 105.6 21.5L105.2 21.1C105.4 26.6 105.2 32.1 104.5 37.5C103.4 47.2 101.2 56.8 97 65.7C95.9 68 94.7 70.2 93.3 72.4C92.9 73.1 92.6 73.8 91.7 73.9C91.2 73.9 90.3 73.9 90.1 73.4C89.9 72.9 90.1 71.9 90.1 71.4C90.1 68.1 90.8 64.7 91.4 61.4C93 53.5 95.3 45.7 97.8 38C99.5 32.7 101.3 27.4 103.2 22.2C103.4 21.7 102.6 21.5 102.5 22C97.8 34.6 93.5 47.6 90.8 60.8C90.1 64.2 89.5 67.7 89.3 71.2C89.3 71.9 89.3 72.5 89.3 73.2C89.3 74 89.3 74.3 90.3 74.6C91 74.9 92.3 75 92.9 74.6C93.3 74.3 93.7 73.4 94 73C94.4 72.4 94.8 71.7 95.2 71C100.3 62.2 103.2 52.1 104.7 42.1C105.7 35.3 106.2 28.3 105.9 21.4C105.9 21.2 105.7 21 105.5 21C104.5 21 103.5 21.4 102.6 21.9C102.2 22.1 102.6 22.8 103 22.6L103.1 22.3Z" fill="#231F20"/>
<path d="M75 25.9C75 32.5 75 39.2 74 45.7C73.5 49.6 72.7 53.8 70.6 57.2C69.4 59.2 67.6 60.5 66 62.1L66.6 62.5C70.4 45.6 72.6 26.9 67.8 9.90003C67.2 7.90003 66.6 5.9 65.7 4L65.1 4.5C71.1 10.2 74.9 17.6 75 26C75 26.5 75.8 26.5 75.8 26C75.8 17.5 71.9 9.8 65.7 4C65.4 3.7 64.9 4 65.1 4.5C66.9 8.6 68 13 68.7 17.3C70 25.6 70 34 69.2 42.3C68.6 49.1 67.4001 55.7 65.9001 62.3C65.9001 62.7 66.2 62.9 66.5 62.7C68 61.3 69.6 60.1 70.8 58.4C71.8 57 72.4 55.4 73 53.9C74.6 49.1 75.1001 43.9 75.4001 38.8C75.7001 34.5 75.7 30.3 75.7 26C75.7 25.5 74.9001 25.5 74.9001 26L75 25.9Z" fill="#231F20"/>
<path d="M61.9 2.59996C63 2.89996 63 3.00001 63.4 3.90001C63.7 4.60001 64 5.29998 64.3 5.99998C65.3 8.49998 66 11 66.5 13.6C68.6 23.3 68.7 33.4 67.7 43.2C67.3 47.2 66.7 51.2 66 55.2C65.6 57.4 65.2 59.5 64.7 61.7C64.4 63 64.2 63.9 63.2 64.8C62.4 65.5 61.6 66.1 60.6 66.5L61.1 66.9C61.2 59.6 61.4 52.3 61.5 45.1C61.7 33.5 61.9 21.9 62.2 10.3C62.2 7.59997 62.2 5.00001 62.4 2.40001C62.4 1.90001 61.7 1.90001 61.6 2.40001C61.5 9.70001 61.3 17 61.2 24.2C61 35.8 60.8 47.4 60.5 59C60.5 61.7 60.5 64.3 60.3 66.9C60.3 67.1 60.5 67.3 60.8 67.3C62.2 66.8 63.3 65.8 64.3 64.8C65 64.1 65 63.7 65.2 62.7C65.4 61.6 65.7 60.5 65.9 59.4C66.7 55.7 67.3 51.9 67.8 48.1C68.6 41.7 69.1 35.2 68.9 28.8C68.7 21.2 67.7 13.4 65 6.29997C64.7 5.39997 64.3 4.49996 63.9 3.59996C63.4 2.59996 63.2 2.30001 61.9 1.90001C61.4 1.80001 61.2 2.49996 61.7 2.59996H61.9Z" fill="#231F20"/>
<path d="M45.4 34.2C45.9 28.7 47.1 23.2 48.9 17.9C49.8 15.4 50.8 13 51.9 10.6C53 8.39998 54.2 6.10003 55.9 4.40003L55.3 3.90003C52.8 9.80003 51.7 16.3 51.3 22.7C50.6 33.1 51.7 43.7 53.5 54C54.2 57.7 54.9 61.4 55.8 65.1L56.4 64.7C53.1 61.4 50.7 57 48.9 52.8C46.4 47 44.8 40.6 45.3 34.2C45.3 33.7 44.6 33.7 44.5 34.2C44 40.6 45.5 47 48 52.9C49.9 57.3 52.3 61.9 55.8 65.3C56.1 65.6 56.5 65.3 56.4 64.9C54.5 57.3 53.2 49.5 52.4 41.7C51.4 32 51.2 22.1 53.3 12.5C53.9 9.70001 54.7 6.89999 55.8 4.29999C56 3.89999 55.5 3.49999 55.2 3.79999C53.6 5.49999 52.4 7.79999 51.3 9.79999C50.1 12.2 49 14.7 48.1 17.2C46.2 22.7 45 28.4 44.4 34.1C44.4 34.6 45.1 34.6 45.2 34.1L45.4 34.2Z" fill="#231F20"/>
<path d="M53.1 29.8C53.1 23 53.6 16.1 55.5 9.59998C56 7.89998 56.5 6.19998 57.3 4.59998C57.5 4.19998 57.6 3.69999 57.9 3.29999C58.4 2.49999 59.9 2.5 60.8 2.5L60.4 2.09998C60.3 9.39998 60.1 16.7 60 24L59.3 58.9C59.3 61.6 59.3 64.3 59.1 67L59.6 66.6C59 66.6 58.3 66.4 58.1 65.9C58 65.7 58 65.4 57.9 65.1C57.7 64.3 57.5 63.4 57.3 62.6C56.7 59.9 56.1 57.2 55.6 54.4C54.1 46.3 53.2 38 53.1 29.7C53.1 29.2 52.3 29.2 52.3 29.7C52.3 38.3 53.4 46.8 55 55.3C55.5 58.1 56.1 60.8 56.8 63.6C57 64.4 57.2 65.1 57.4 65.9C57.6 66.9 58.5 67.1 59.5 67.3C59.7 67.3 60 67.3 60 66.9C60.1 59.6 60.3 52.3 60.4 45L61.1 10.1C61.1 7.39998 61.1 4.7 61.3 2C61.3 1.8 61.1 1.59998 60.9 1.59998C59.9 1.59998 58.1 1.6 57.5 2.5C57.3 2.8 57.1 3.30001 56.9 3.70001C56.2 5.30001 55.6 6.89998 55.1 8.59998C53.1 15.4 52.4 22.6 52.5 29.7C52.5 30.2 53.3 30.2 53.3 29.7L53.1 29.8Z" fill="#231F20"/>
<path d="M29.2 87.8C25.6 86.2 22.6 83.5 20 80.7C17.4 77.9 14.8 74.6 12.8 71.1C10.8 67.6 9.10001 63.9 8.30001 60C7.50001 56.1 8.20005 52 9.40005 48.2C10.1 46.2 11 44.2 12.2 42.5C13.2 41 14.6 39.2 16.2 38.3L15.6 38C14.9 44.7 14.5 51.4 15 58.1C15.3 61.4 15.7 64.9 17.2 67.9C19.1 71.7 21.5 75.3 23.8 78.9C25.9 82.3 28.1 85.6 30.2 89L30.6 88.5C30.1 88.4 29.6 88.2 29.1 88C28.7 87.8 28.5 88.5 28.9 88.7C29.4 88.9 29.9 89.1 30.4 89.2C30.7 89.2 31 88.9 30.8 88.7C26.6 82.3 22.5 75.8 18.6 69.2C14.7 62.6 15.3 54.7 15.6 47.5C15.7 44.4 16 41.3 16.3 38.1C16.3 37.8 16 37.6 15.7 37.8C12.9 39.5 10.7 43.1 9.50003 46C7.90003 49.7 6.80004 53.9 7.20004 58C7.60004 62.1 9.10005 65.8 10.9 69.4C12.8 73.2 15.1 76.7 17.9 79.9C20.9 83.4 24.6 86.8 28.8 88.7C29.2 88.9 29.6 88.2 29.2 88V87.8Z" fill="#231F20"/>
<path d="M19.0999 67.0999C16.8999 63.0999 16.9 57.8 16.8 53.3C16.7 48.8 17 44.3 17.4 39.8H16.7C18.9 46.3 21.4 52.6 24 58.8C26.6 65 27.9999 71.5 29.0999 78C29.5999 80.8 30 83.7 30.3 86.5L31 86.3C26.9 80 22.7999 73.6 19.0999 67C18.8999 66.6 18.2 67 18.4 67.4C22.1 74 26.2 80.4 30.3 86.7C30.5 87 31 86.9 31 86.5C30.4 81 29.5 75.4 28.2 70C27.4 66.8 26.6 63.5 25.4 60.5C24 56.8 22.3 53.2 20.9 49.5C19.7 46.3 18.5 43 17.3 39.8C17.2 39.4 16.5999 39.5 16.5999 39.8C16.1999 44.5 15.9 49.3 16 54C16 58.4 16.2 63.5 18.4 67.5C18.6 67.9 19.2999 67.4999 19.0999 67.0999Z" fill="#231F20"/>
<path d="M26 58.5C23.1 51.7 20.4 44.7 18 37.7L17.5 38.2C19.9 39 21.8 40.9 23.2 42.9C24.5 44.8 25.7 46.7 26.9 48.7C29.3 52.7 30.9 57 32.6 61.4C34.3 65.8 35.8 70.2 36 74.9C36 77.3 35.8 79.7 35.3 82.1C34.8 84.5 34.4 87.1 32 88.2L32.6 88.5C32.2 84.3 31.6 80.2 30.9 76.1C29.8 70.2 28.5 64.2 26.1 58.6C25.9 58.2 25.3 58.6 25.4 59C27.7 64.5 29.1 70.5 30.1 76.3C30.8 80.3 31.4 84.4 31.8 88.5C31.8 88.8 32.1 89 32.4 88.8C35.7 87.3 36 83 36.5 79.8C37 75.8 36.7 71.9 35.7 68C34.7 64.1 33.2 60.4 31.7 56.7C30.2 53 28.4 49.3 26.2 45.9C24 42.5 21.9 38.7 17.9 37.4C17.6 37.4 17.4 37.6 17.4 37.9C19.8 45 22.5 52 25.5 58.9C25.7 59.3 26.3 58.9 26.2 58.5H26Z" fill="#231F20"/>
<path d="M11.3 110.4C15.8 108.7 20.1 113.2 22.4 116.6C25.1 120.7 26.8 125.3 28.9 129.7C32.9 137.8 38.1 145.7 39.1 154.9C39.4 157.2 39.4 159.6 39.1 162C38.7 164.5 37.9 167.8 35.9 169.7L36.5 169.9C35 162.5 33.1 155.1 31.2 147.8C29.7 142.1 27.8 136.7 25.1 131.4C22.7 126.9 19.9 122.5 16.8 118.4C14.8 115.7 12.6 113 10.3 110.5V111.1C10.6 110.9 10.9 110.6 11.3 110.4C11.7 110.2 11.3 109.5 10.9 109.7C10.5 109.9 10.1 110.1 9.79996 110.4C9.59996 110.5 9.59996 110.8 9.79996 111C15.1 116.8 19.7 123.2 23.5 130C26.3 135.1 28.5 140.4 30 146.1C31.4 151.3 32.7 156.6 34 161.8C34.7 164.5 35.3 167.3 35.9 170C35.9 170.3 36.3 170.3 36.5 170.2C38.1 168.7 39 166.1 39.5 164C40 161.9 40.2 159.6 40.2 157.3C40 153.2 39 149.2 37.5 145.4C35.5 140.2 32.7 135.4 30.2 130.4C27.7 125.4 25.9 120.2 22.8 115.7C20.4 112.2 15.9 107.9 11.2 109.7C10.7 109.9 11 110.6 11.4 110.4H11.3Z" fill="#231F20"/>
<path d="M32.2 169.3C24 165.5 17 159.2 10.9 152.6C7.80001 149.3 5.39996 145.6 4.09996 141.3C2.79996 137.2 2.50001 132.9 2.90001 128.7C3.40001 123.7 4.99996 118.7 7.59996 114.3L6.90001 114.1C6.80001 133.3 15.9 151.3 28.7 165.2C30.5 167.1 32.3 169 34.2 170.7L34.5 170.1C33.7 170.1 33 169.7 32.3 169.4C31.9 169.2 31.5 169.9 31.9 170.1C32.7 170.5 33.6 170.8 34.5 170.9C34.8 170.9 35 170.5 34.8 170.3C23.6 160.4 14.7 147.1 10.4 132.8C8.60001 126.8 7.7 120.6 7.7 114.3C7.7 113.9 7.19999 113.8 6.99999 114.1C2.49999 121.6 0.90001 130.9 2.90001 139.5C3.90001 143.7 5.69997 147.5 8.29997 150.8C11.3 154.6 14.9 157.9 18.5 161C22.6 164.6 27 167.8 31.9 170.1C32.3 170.3 32.7 169.7 32.3 169.4L32.2 169.3Z" fill="#231F20"/>
<path d="M8.70003 112.5C8.90003 112.2 9.10004 112 9.40004 111.7H8.90004C13.7 117 18 122.8 21.6 129C24.3 133.7 26.7 138.6 28.2 143.8C29.7 148.9 30.9 154.1 32.2 159.3C33 162.6 33.8 165.8 34.5 169.1L35.1 168.7C23.9 158.6 15 145.1 11 130.5C9.40002 124.5 8.70004 118.3 8.90004 112.1C8.90004 111.6 8.19999 111.6 8.09999 112.1C7.39999 131.3 16.1 149.3 28.7 163.3C30.5 165.3 32.5 167.3 34.5 169.2C34.8 169.5 35.2 169.2 35.1 168.8C33.3 160.7 31.3 152.6 29.2 144.6C26.6 135 21.4 126.2 15.4 118.3C13.5 115.8 11.5 113.3 9.40004 111C9.30004 110.8 9.00004 110.9 8.90004 111C8.70004 111.2 8.40003 111.5 8.20003 111.8C7.90003 112.2 8.40003 112.7 8.70003 112.3V112.5Z" fill="#231F20"/>
<path d="M113.9 147.9C114.7 152.1 114.7 156.6 114.7 160.9C114.7 165.2 114.2 169.1 112.6 172.9C109.9 179.7 104.7 185.3 98.4 189.1C95.1 191.1 91.2 192.9 87.3 192.3L87.5 192.9C92.6 188.8 97 184 101.1 179C103.9 175.6 106.4 172.1 108.4 168.1C110.1 164.6 111.5 160.9 112.6 157.1C113.5 154.1 114.2 150.9 114.7 147.8C114.7 147.3 114 147.1 114 147.6C113 154 111.2 160.4 108.5 166.3C104.9 174.2 99.1 180.9 93 187C91.1 188.9 89.2 190.7 87.1 192.4C86.9 192.6 87.1 193 87.3 193C90.6 193.5 93.9 192.4 96.8 190.9C100 189.3 103 187.2 105.5 184.7C111.4 179.2 115.1 171.5 115.5 163.5C115.6 160.8 115.5 158.1 115.5 155.4C115.5 152.7 115.3 150.2 114.8 147.6C114.8 147.1 114 147.3 114.1 147.8L113.9 147.9Z" fill="#231F20"/>
<path d="M80.9 185.8C79.6 181.5 80.5 177.5 82.5 173.6C84.2 170.4 86.2 167.2 88.1 164.1C91.7 158.4 95.9 153 101.7 149.3C103.4 148.2 105.2 147.3 107 146.7C108.7 146.1 111 145.3 112.8 145.9L112.6 145.3C106.9 150.1 101.5 155.2 96.3 160.5C90.8 166.2 87.1 173.1 84.5 180.5C83.5 183.5 82.5 186.5 82 189.6H82.7C81.9 188.4 81.3 187.1 80.8 185.7C80.6 185.2 79.9 185.4 80.1 185.9C80.6 187.3 81.2 188.6 82.1 189.8C82.3 190 82.7 190.1 82.8 189.8C83.8 183.5 86.3 177.2 89.2 171.6C91 168.1 93.2 164.9 95.9 162C99.2 158.5 102.6 155.2 106.2 151.9C108.5 149.8 110.8 147.7 113.2 145.7C113.4 145.5 113.2 145.2 113 145.1C111.6 144.6 109.9 145 108.5 145.3C106.7 145.8 105 146.4 103.4 147.3C100.5 148.8 97.8 150.9 95.5 153.2C89.9 158.7 85.8 165.9 82.1 172.7C79.9 176.9 78.8 181.2 80.2 185.9C80.3 186.4 81.1 186.2 80.9 185.7V185.8Z" fill="#231F20"/>
<path d="M96.5 163.3C101.9 157.7 107.5 152.3 113.5 147.2L112.9 146.8C112.2 151.8 110.9 156.8 109.2 161.6C108 165 106.4 168.2 104.6 171.3C102.4 174.8 99.7 178 97 181C93.7 184.7 90.2 188.4 86.3 191.5C85.9 191.8 85.9 191.9 85.5 191.5C85 191.2 84.2 191 84.2 190.5C84.2 189.9 84.4 189.2 84.6 188.7C85.1 186.5 85.7 184.4 86.4 182.3C88.6 175.5 91.8 168.6 96.8 163.3C97.1 163 96.6 162.4 96.3 162.8C91.5 168 88.3 174.6 86.1 181.2C85.3 183.6 84.5 186.1 84 188.6C83.8 189.3 83.7 189.9 83.6 190.6C83.6 191.7 85.2 192.3 86.1 192.7C86.1 192.7 86.3 192.7 86.4 192.7C91.2 189 95.4 184.5 99.4 179.9C102.5 176.2 105.4 172.5 107.6 168.2C109.5 164.5 110.9 160.6 112 156.7C112.9 153.6 113.6 150.4 114 147.2C114 146.8 113.7 146.6 113.4 146.8C107.5 151.9 101.8 157.3 96.4 162.9C96.1 163.2 96.6 163.8 96.9 163.4L96.5 163.3Z" fill="#231F20"/>
</svg>
