<svg width="109" height="265" viewBox="0 0 109 265" fill="none" xmlns="http://www.w3.org/2000/svg">
<path d="M72.7 6.90002C74.412 6.90002 75.8 5.51207 75.8 3.79999C75.8 2.08791 74.412 0.700012 72.7 0.700012C70.9879 0.700012 69.6 2.08791 69.6 3.79999C69.6 5.51207 70.9879 6.90002 72.7 6.90002Z" fill="#231F20"/>
<path d="M75.5001 3.79997C75.5001 4.89997 74.8 6.00001 73.7 6.40001C72.6 6.80001 71.4 6.39996 70.6 5.59996C69.8 4.79996 69.8001 3.39999 70.4001 2.49999C71.0001 1.59999 72.1 0.999998 73.2 1.2C74.5 1.4 75.4001 2.60001 75.4001 3.90001C75.4001 4.40001 76.2 4.40001 76.2 3.90001C76.2 2.40001 75.3001 1.09996 73.9001 0.599961C72.5001 0.099961 70.9001 0.599961 70.0001 1.59996C69.1001 2.59996 68.9 4.39996 69.7 5.59996C70.5 6.79996 71.9001 7.5 73.4001 7.2C75.0001 6.9 76.2 5.39997 76.2 3.79997C76.2 3.29997 75.5001 3.29997 75.4001 3.79997H75.5001Z" fill="#231F20"/>
<path d="M76.6 17.6C78.3121 17.6 79.7 16.2121 79.7 14.5C79.7 12.7879 78.3121 11.4 76.6 11.4C74.8879 11.4 73.5 12.7879 73.5 14.5C73.5 16.2121 74.8879 17.6 76.6 17.6Z" fill="#231F20"/>
<path d="M79.3001 14.5C79.3001 15.6 78.6001 16.7 77.5001 17.1C76.4001 17.5 75.2001 17.1 74.4001 16.3C73.6001 15.5 73.6 14.1 74.2 13.2C74.8 12.3 75.9001 11.7 77.0001 11.9C78.3001 12.1 79.2 13.3 79.2 14.6C79.2 15.1 80.0001 15.1 80.0001 14.6C80.0001 13.1 79.1 11.8 77.7 11.3C76.3 10.8 74.7001 11.3 73.8001 12.3C72.9001 13.3 72.7001 15.1 73.5001 16.3C74.3001 17.5 75.7 18.2 77.2 17.9C78.8 17.6 80.0001 16.1 80.0001 14.5C80.0001 14 79.3 14 79.2 14.5H79.3001Z" fill="#231F20"/>
<path d="M59.1 10C60.8121 10 62.2 8.61211 62.2 6.90002C62.2 5.18794 60.8121 3.79999 59.1 3.79999C57.3879 3.79999 56 5.18794 56 6.90002C56 8.61211 57.3879 10 59.1 10Z" fill="#231F20"/>
<path d="M61.8001 6.90001C61.8001 8.00001 61.1001 9.09999 60.0001 9.49999C58.9001 9.89999 57.7001 9.5 56.9001 8.7C56.1001 7.9 56.1 6.49996 56.7 5.59996C57.3 4.69996 58.4001 4.09997 59.5001 4.29997C60.8001 4.49997 61.7 5.69999 61.7 6.99999C61.7 7.49999 62.5001 7.49999 62.5001 6.99999C62.5001 5.49999 61.6 4.2 60.2 3.7C58.8 3.2 57.2001 3.7 56.3001 4.7C55.4001 5.7 55.2001 7.5 56.0001 8.7C56.8001 9.9 58.2 10.6 59.7 10.3C61.3 9.99997 62.5001 8.50001 62.5001 6.90001C62.5001 6.40001 61.8 6.40001 61.7 6.90001H61.8001Z" fill="#231F20"/>
<path d="M54.2 21.4C55.912 21.4 57.3 20.0121 57.3 18.3C57.3 16.5879 55.912 15.2 54.2 15.2C52.4879 15.2 51.1 16.5879 51.1 18.3C51.1 20.0121 52.4879 21.4 54.2 21.4Z" fill="#231F20"/>
<path d="M56.9001 18.3C56.9001 19.4 56.2 20.5 55.1 20.9C54 21.3 52.8001 20.9 52.0001 20.1C51.2001 19.3 51.2001 17.9 51.8001 17C52.4001 16.1 53.5 15.5 54.6 15.7C55.9 15.9 56.8001 17.1 56.8001 18.4C56.8001 18.9 57.6 18.9 57.6 18.4C57.6 16.9 56.7001 15.6 55.3001 15.1C53.9001 14.6 52.3001 15.1 51.4001 16.1C50.5001 17.1 50.3 18.9 51.1 20.1C51.9 21.3 53.3001 22 54.8001 21.7C56.4001 21.4 57.6 19.9 57.6 18.3C57.6 17.8 56.9001 17.8 56.8001 18.3H56.9001Z" fill="#231F20"/>
<path d="M73.5 28.4C75.2121 28.4 76.6 27.0121 76.6 25.3C76.6 23.5879 75.2121 22.2 73.5 22.2C71.7879 22.2 70.4 23.5879 70.4 25.3C70.4 27.0121 71.7879 28.4 73.5 28.4Z" fill="#231F20"/>
<path d="M76.1999 25.3C76.1999 26.4 75.5 27.5 74.4 27.9C73.3 28.3 72.1 27.9 71.3 27.1C70.5 26.3 70.5 24.9 71.1 24C71.7 23.1 72.8 22.5 73.9 22.7C75.2 22.9 76.1 24.1 76.1 25.4C76.1 25.9 76.9 25.9 76.9 25.4C76.9 23.9 76 22.6 74.6 22.1C73.2 21.6 71.5999 22.1 70.6999 23.1C69.7999 24.1 69.6 25.9 70.4 27.1C71.2 28.3 72.6 29 74.1 28.7C75.7 28.4 76.9 26.9 76.9 25.3C76.9 24.8 76.2 24.8 76.1 25.3H76.1999Z" fill="#231F20"/>
<path d="M67.2 40C68.912 40 70.3 38.6121 70.3 36.9C70.3 35.1879 68.912 33.8 67.2 33.8C65.4879 33.8 64.1 35.1879 64.1 36.9C64.1 38.6121 65.4879 40 67.2 40Z" fill="#231F20"/>
<path d="M70.0001 36.9C70.0001 38 69.3 39.1 68.2 39.5C67.1 39.9 65.9 39.5 65.1 38.7C64.3 37.9 64.3001 36.5 64.9001 35.6C65.5001 34.7 66.6 34.1 67.7 34.3C69 34.5 69.9001 35.7 69.9001 37C69.9001 37.5 70.7 37.5 70.7 37C70.7 35.5 69.8001 34.2 68.4001 33.7C67.0001 33.2 65.4001 33.7 64.5001 34.7C63.6001 35.7 63.4 37.5 64.2 38.7C65 39.9 66.4001 40.6 67.9001 40.3C69.5001 40 70.7 38.5 70.7 36.9C70.7 36.4 70.0001 36.4 69.9001 36.9H70.0001Z" fill="#231F20"/>
<path d="M49.1 33.7C50.8121 33.7 52.2 32.3121 52.2 30.6C52.2 28.8879 50.8121 27.5 49.1 27.5C47.3879 27.5 46 28.8879 46 30.6C46 32.3121 47.3879 33.7 49.1 33.7Z" fill="#231F20"/>
<path d="M51.9001 30.6C51.9001 31.7 51.2 32.8 50.1 33.2C49 33.6 47.8001 33.2 47.0001 32.4C46.2001 31.6 46.2001 30.2 46.8001 29.3C47.4001 28.4 48.5 27.8 49.6 28C50.9 28.2 51.8001 29.4 51.8001 30.7C51.8001 31.2 52.6 31.2 52.6 30.7C52.6 29.2 51.7001 27.9 50.3001 27.4C48.9001 26.9 47.3001 27.4 46.4001 28.4C45.5001 29.4 45.3 31.2 46.1 32.4C46.9 33.6 48.3001 34.3 49.8001 34C51.4001 33.7 52.6 32.2 52.6 30.6C52.6 30.1 51.9001 30.1 51.8001 30.6H51.9001Z" fill="#231F20"/>
<path d="M44.9 46.7C46.6121 46.7 48 45.3121 48 43.6C48 41.8879 46.6121 40.5 44.9 40.5C43.1879 40.5 41.8 41.8879 41.8 43.6C41.8 45.3121 43.1879 46.7 44.9 46.7Z" fill="#231F20"/>
<path d="M47.6999 43.6C47.6999 44.7 47 45.8 45.9 46.2C44.8 46.6 43.6 46.2 42.8 45.4C42 44.6 42 43.2 42.6 42.3C43.2 41.4 44.3 40.8 45.4 41C46.7 41.2 47.6 42.4 47.6 43.7C47.6 44.2 48.4 44.2 48.4 43.7C48.4 42.2 47.5 40.9 46.1 40.4C44.7 39.9 43.0999 40.4 42.1999 41.4C41.2999 42.4 41.1 44.2 41.9 45.4C42.7 46.6 44.1 47.3 45.6 47C47.2 46.7 48.4 45.2 48.4 43.6C48.4 43.1 47.7 43.1 47.6 43.6H47.6999Z" fill="#231F20"/>
<path d="M65.3 53.6C67.0121 53.6 68.4 52.2121 68.4 50.5C68.4 48.7879 67.0121 47.4 65.3 47.4C63.588 47.4 62.2 48.7879 62.2 50.5C62.2 52.2121 63.588 53.6 65.3 53.6Z" fill="#231F20"/>
<path d="M68.0001 50.5C68.0001 51.6 67.3 52.7 66.2 53.1C65.1 53.5 63.9 53.1 63.1 52.3C62.3 51.5 62.3001 50.1 62.9001 49.2C63.5001 48.3 64.6 47.7 65.7 47.9C67 48.1 67.9001 49.3 67.9001 50.6C67.9001 51.1 68.7 51.1 68.7 50.6C68.7 49.1 67.8001 47.8 66.4001 47.3C65.0001 46.8 63.4001 47.3 62.5001 48.3C61.6001 49.3 61.4 51.1 62.2 52.3C63 53.5 64.4001 54.2 65.9001 53.9C67.5001 53.6 68.7 52.1 68.7 50.5C68.7 50 68.0001 50 67.9001 50.5H68.0001Z" fill="#231F20"/>
<path d="M63.4 65.9C65.1121 65.9 66.5 64.5121 66.5 62.8C66.5 61.0879 65.1121 59.7 63.4 59.7C61.6879 59.7 60.3 61.0879 60.3 62.8C60.3 64.5121 61.6879 65.9 63.4 65.9Z" fill="#231F20"/>
<path d="M66.1999 62.8C66.1999 63.9 65.5 65 64.4 65.4C63.3 65.8 62.1 65.4 61.3 64.6C60.5 63.8 60.5 62.4 61.1 61.5C61.7 60.6 62.8 60 63.9 60.2C65.2 60.4 66.1 61.6 66.1 62.9C66.1 63.4 66.9 63.4 66.9 62.9C66.9 61.4 66 60.1 64.6 59.6C63.2 59.1 61.5999 59.6 60.6999 60.6C59.7999 61.6 59.6 63.4 60.4 64.6C61.2 65.8 62.6 66.5 64.1 66.2C65.7 65.9 66.9 64.4 66.9 62.8C66.9 62.3 66.2 62.3 66.1 62.8H66.1999Z" fill="#231F20"/>
<path d="M42.2 60.5C43.912 60.5 45.3 59.1121 45.3 57.4C45.3 55.6879 43.912 54.3 42.2 54.3C40.4879 54.3 39.1 55.6879 39.1 57.4C39.1 59.1121 40.4879 60.5 42.2 60.5Z" fill="#231F20"/>
<path d="M44.9001 57.4C44.9001 58.5 44.2 59.6 43.1 60C42 60.4 40.8001 60 40.0001 59.2C39.2001 58.4 39.2001 57 39.8001 56.1C40.4001 55.2 41.5 54.6 42.6 54.8C43.9 55 44.8001 56.2 44.8001 57.5C44.8001 58 45.6 58 45.6 57.5C45.6 56 44.7001 54.7 43.3001 54.2C41.9001 53.7 40.3001 54.2 39.4001 55.2C38.5001 56.2 38.3 58 39.1 59.2C39.9 60.4 41.3001 61.1 42.8001 60.8C44.4001 60.5 45.6 59 45.6 57.4C45.6 56.9 44.9001 56.9 44.8001 57.4H44.9001Z" fill="#231F20"/>
<path d="M42.9 71.1C44.6121 71.1 46 69.7121 46 68C46 66.2879 44.6121 64.9 42.9 64.9C41.1879 64.9 39.8 66.2879 39.8 68C39.8 69.7121 41.1879 71.1 42.9 71.1Z" fill="#231F20"/>
<path d="M45.6 68C45.6 69.1 44.9 70.2 43.8 70.6C42.7 71 41.4999 70.6 40.6999 69.8C39.8999 69 39.9 67.6 40.5 66.7C41.1 65.8 42.2 65.2 43.3 65.4C44.6 65.6 45.5 66.8 45.5 68.1C45.5 68.6 46.3 68.6 46.3 68.1C46.3 66.6 45.4 65.3 44 64.8C42.6 64.3 41 64.8 40.1 65.8C39.2 66.8 39 68.6 39.8 69.8C40.6 71 42 71.7 43.5 71.4C45.1 71.1 46.3 69.6 46.3 68C46.3 67.5 45.6 67.5 45.5 68H45.6Z" fill="#231F20"/>
<path d="M42.2 83C43.912 83 45.3 81.6121 45.3 79.9C45.3 78.1879 43.912 76.8 42.2 76.8C40.4879 76.8 39.1 78.1879 39.1 79.9C39.1 81.6121 40.4879 83 42.2 83Z" fill="#231F20"/>
<path d="M44.9001 79.9C44.9001 81 44.2 82.1 43.1 82.5C42 82.9 40.8001 82.5 40.0001 81.7C39.2001 80.9 39.2001 79.5 39.8001 78.6C40.4001 77.7 41.5 77.1 42.6 77.3C43.9 77.5 44.8001 78.7 44.8001 80C44.8001 80.5 45.6 80.5 45.6 80C45.6 78.5 44.7001 77.2 43.3001 76.7C41.9001 76.2 40.3001 76.7 39.4001 77.7C38.5001 78.7 38.3 80.5 39.1 81.7C39.9 82.9 41.3001 83.6 42.8001 83.3C44.4001 83 45.6 81.5 45.6 79.9C45.6 79.4 44.9001 79.4 44.8001 79.9H44.9001Z" fill="#231F20"/>
<path d="M57.2 88.1C58.912 88.1 60.3 86.7121 60.3 85C60.3 83.2879 58.912 81.9 57.2 81.9C55.4879 81.9 54.1 83.2879 54.1 85C54.1 86.7121 55.4879 88.1 57.2 88.1Z" fill="#231F20"/>
<path d="M59.9001 85C59.9001 86.1 59.2 87.2 58.1 87.6C57 88 55.8001 87.6 55.0001 86.8C54.2001 86 54.2001 84.6 54.8001 83.7C55.4001 82.8 56.5 82.2 57.6 82.4C58.9 82.6 59.8001 83.8 59.8001 85.1C59.8001 85.6 60.6 85.6 60.6 85.1C60.6 83.6 59.7001 82.3 58.3001 81.8C56.9001 81.3 55.3001 81.8 54.4001 82.8C53.5001 83.8 53.3 85.6 54.1 86.8C54.9 88 56.3001 88.7 57.8001 88.4C59.4001 88.1 60.6 86.6 60.6 85C60.6 84.5 59.9001 84.5 59.8001 85H59.9001Z" fill="#231F20"/>
<path d="M59.1 74.7C60.8121 74.7 62.2 73.3121 62.2 71.6C62.2 69.8879 60.8121 68.5 59.1 68.5C57.3879 68.5 56 69.8879 56 71.6C56 73.3121 57.3879 74.7 59.1 74.7Z" fill="#231F20"/>
<path d="M61.8001 71.6C61.8001 72.7 61.1001 73.8 60.0001 74.2C58.9001 74.6 57.7001 74.2 56.9001 73.4C56.1001 72.6 56.1 71.2 56.7 70.3C57.3 69.4 58.4001 68.8 59.5001 69C60.8001 69.2 61.7 70.4 61.7 71.7C61.7 72.2 62.5001 72.2 62.5001 71.7C62.5001 70.2 61.6 68.9 60.2 68.4C58.8 67.9 57.2001 68.4 56.3001 69.4C55.4001 70.4 55.2001 72.2 56.0001 73.4C56.8001 74.6 58.2 75.3 59.7 75C61.3 74.7 62.5001 73.2 62.5001 71.6C62.5001 71.1 61.8 71.1 61.7 71.6H61.8001Z" fill="#231F20"/>
<path d="M108.2 117.1C108.2 117.1 107 117 106.8 117C102.8 116.8 98.8 117.5 95.1 119C87.5 122.2 81.2 127.9 76 134.3C70.2 141.5 65.7 149.6 62 158.1C59 164.9 56.5 172 55.1 179.3C54 185 52.7 190.7 50.7 196.1C49.9 198.2 49.1 200.3 48 202.2C47.6 196.9 47.2 191.6 46.9 186.3C46.2 176 45.7001 165.8 45.3 155.5C44.9 145.6 44.7001 135.7 44.8 125.9C44.8 117.4 45.1 108.8 45.9 100.3C46.3 95.7 47 91.2 47.9 86.7C48.1 86.7 48.2 86.7 48.4 86.5C49.7 86.1 51.1 85.8 52.5 85.5C53.8 85.2 55.4 84.9 56.7 85.2C57 85.2 57.5 84.5 57.7 84.6C56.5 84.3 55.3 84.6 54.1 84.8C52.7 85 51.2001 85.4 49.8 85.8C49.3 85.9 48.9 86.1 48.4 86.2C48.4 86.2 48 86.4 47.9 86.4C48.8 81.9 49.8 77.3 50.9 72.8C52.2 72.8 53.6 72.6 54.9 72.5C56.1 72.5 57.3 72.3 58.5 72.2C58.9 72.2 59.2 71.6 59.5 71.6C57 71.8 54.4 72 51.9 72.1C51.6 72.1 51.2 72.2 51 72.1C51 72 51 71.8 51 71.7C51.5 69.5 52 67.3 52.5 65.1C52.8 63.9 53 62.8 53.3 61.6C55.2001 61.2 57.2 61.3 59.1 61.6C60.3 61.8 61.5 62.1 62.7 62.4C62.7 62.4 63.1 62.2 63.2 62.1C63.2 62.1 63.6 61.8 63.7 61.8C62.5 61.4 61.3 61.2 60.1 61C57.9 60.7 55.5 60.5 53.3 61.2C54.1 57.7 55 54.2 55.9 50.7C56.2 50.7 56.6 50.7 56.9 50.7H64.6C64.9 50.7 65.3 50.1 65.6 50.1H56.4C56.3 50.1 56.2 50.1 56.1 50.1C57.1 46 58.2001 42 59.3 37.9C61.4 37.7 63.4 37.4 65.5 37.2C65.8 37.2 66.2 37.2 66.5 37.1C66.7 37.1 66.9 36.9 67 36.8C67.1 36.8 67.4 36.5 67.5 36.5C65.1 36.8 62.7 37 60.4 37.3C60.1 37.3 59.8 37.3 59.5 37.3C60.1 35.2 60.7001 33.1 61.3 31.1C61.9 29.1 62.5 27.1 63.2 25.1C65.6 25.2 68.1 25.3 70.5 25.4C70.9 25.4 71.2999 25.4 71.7 25.4C71.7999 25.4 72.1 25.2 72.2 25.1C72.2999 25 72.6 24.8 72.7 24.8C70 24.7 67.3 24.6 64.5 24.4H63.3C64.1 21.8 65 19.3 66 16.8C66.6 15.2 67.3 13.6 68 12C70.3 12.7 72.5 13.5 74.8 14.2C75.1001 14.3 75.5 14.4 75.9 14.5C75.9 14.5 76.3 14.3 76.4 14.2C76.4 14.2 76.8 13.9 76.9 13.9L69.5 11.5C69.2 11.4 68.8 11.3 68.4 11.2C69 10 69.6 8.80001 70.4 7.70001C71 6.80001 71.6 5.90001 72.4 5.20001C72.1 5.50001 71.6 5.49999 71.4 5.79999C69.6 7.39999 68.5 9.70002 67.4 11.9C67.4 12.1 67.2 12.2 67.2 12.4C66.7 13.4 66.3 14.5 65.8 15.5C64.1 12.9 62.4 10.2 60.6 7.59998C60.3 7.19998 60.1 6.80002 59.8 6.40002L58.8 7C60.7001 9.9 62.6 12.8 64.5 15.6C64.8 16 65 16.4 65.3 16.8C64.4 19.2 63.5 21.6 62.7 24.1C62.7 24.4 62.5 24.7 62.4 25L62 26.3C60 23.9 58.1 21.4 56.1 19C55.8 18.6 55.5 18.2 55.2 17.9L54.2 18.5C56.4 21.2 58.5 23.9 60.7 26.5C61 26.9 61.3 27.3 61.6 27.6C60.5 31 59.5 34.4 58.5 37.9C58.4 38.4 58.2 38.9 58.1 39.4L51.2 31.4C50.7999 31 50.5 30.6 50.1 30.2L49.1 30.8C51.6 33.7 54 36.5 56.5 39.4C56.9 39.8 57.2 40.2 57.6 40.6C57.6 40.6 57.7 40.6 57.9 40.5C57.1 43.5 56.3 46.5 55.5 49.6C55.2 49.4 54.9 49.1 54.7 48.9C53.1 47.8 51.5 46.7 49.9 45.5L46.5 43.1C46.4 43.1 45.6 43.8 45.5 43.7C48.1 45.5 50.6 47.3 53.2 49.1C53.7999 49.5 54.3 49.9 54.9 50.3C55 50.3 55.2001 50.5 55.3 50.5C54.4 53.9 53.6 57.4 52.8 60.8C52.8 61.1 52.7 61.4 52.6 61.7C52.4 62.6 52.2 63.5 52 64.3C49.3 62.1 46.7 59.9 44 57.8C43.6 57.5 43.2001 57.1 42.8 56.8C42.7001 56.8 41.9 57.5 41.8 57.4C44.7001 59.8 47.6 62.2 50.5 64.6C50.9 64.9 51.2999 65.3 51.7 65.6C51.2 67.6 50.8 69.6 50.3 71.6C49 70.8 47.8 70.1 46.5 69.3C45.5 68.7 44.5 68.1 43.4 67.5C43.2 67.5 42.5 68.2 42.4 68.1C44.6 69.4 46.8 70.7 49 72.1C49.3 72.3 49.7 72.6 50 72.7C49.1 76.7 48.2001 80.7 47.3 84.8C47.1 84.5 47 84.2 46.8 83.9C46.4 83.2 45.7999 82.5 45.2 81.9C44.4 81.1 43.6 80.2 42.7 79.6C42.6 79.6 41.7999 80.3 41.7 80.2C43.7 81.7 45.7999 83.9 46.7 86.3C46.7999 86.6 46.7 86.8 46.9 86.9C46.3 89.8 45.8 92.7 45.4 95.7C44.4 103.7 44 111.7 43.9 119.8C43.7 129.4 43.9 139.1 44.1 148.7C44.1 151.4 44.3 154 44.4 156.7C43 153.4 41.6 150.1 40.2 146.8C38.6 143 37.1 139.3 35.6 135.5C34.4 132.4 33.4 129.2 31.9 126.3C29.3 121 25.6 116.3 22 111.7C18.1 106.9 14 102.2 9.80005 97.7C8.30005 96.1 6.79995 94.5 5.19995 92.9C4.69995 92.4 4.19995 91.9 3.69995 91.4C3.49995 91.2 3.20002 90.7 2.90002 90.6C2.90002 90.6 2.10002 91 1.90002 91.1C2.30002 95.2 3.20005 99.3 4.30005 103.2C5.30005 106.7 6.49998 110.2 8.09998 113.5C8.89998 115.2 9.80002 116.8 10.9 118.3C12 119.9 13.3 121.3 14.5 122.8C20.1 129.6 25 137.1 28.6 145.1C30.1 148.5 31.4 152.2 31.9 155.9C32.1 157.6 32 159.3 32.4 160.9C32.8 162.7 33.5 164.3 34.3 165.9C37 170.9 41 175.3 45.3 178.8C45.3 178.8 45.5 178.9 45.5 179C45.5 179.1 45.5 179.3 45.5 179.4C46 187.5 46.6 195.6 47.2 203.8C47.2999 205.6 47.5 207.5 47.6 209.3C47.8 212.5 48.1 215.6 48.4 218.8C48.9 224.3 49.3 229.7 49.8 235.2C49.8 235.4 49.8 235.6 49.8 235.9C50.4 242 51 248.1 51.6 254.2C51.8 256.2 52 258.2 52.2 260.2C52.4 262.2 52.2 262.4 52.5 263.3C52.5 263.4 52.5 263.6 52.5 263.7C52.5 263.5 53.6 263.3 53.5 263.1C53.3 261 53 258.9 52.8 256.9C52.2001 251.3 51.6 245.7 51.1 240.1C50.9 238.5 50.7999 236.9 50.7 235.3C53.7 233 56.1 230.1 58.1 226.9C60.5 223.2 62.4 219.1 64.1 215C67.9 205.8 70.4 196.2 72.6 186.5C74.5 178.1 76 169.5 77.4 161C77.7 159.3 77.8999 157.7 78.2 156C78.7 153.8 79.4 151.8 80.3 149.8C82.3 145.4 85.1 141.3 88 137.5C93.1 131 99 125 105.2 119.6C105.9 119 106.6 118.3 107.4 117.7C107.4 117.7 107.9 117.4 107.9 117.3L108.2 117.1ZM7.30005 96.8C11.4 101.2 15.5 105.7 19.3 110.3C23.2 115 27 119.8 29.9 125.1C31.3 127.7 32.3 130.4 33.3 133.1C34.8 136.9 36.3 140.7 37.9 144.5C39.3 147.8 40.7 151.1 42.1 154.3C42.6 155.4 43.1 156.5 43.6 157.7C43.9 158.3 44.1 159 44.4 159.5C44.4 159.5 44.4 159.7 44.5 159.7C44.5 161.8 44.7001 163.8 44.8 165.9C43.2001 162.8 41.6 159.7 40.1 156.7C38.5 153.5 37 150.4 35.5 147.2C34.3 144.6 33.3 142 32.2 139.4C29.3 133.1 25.6 127.2 21.8 121.4C20 118.5 18.1 115.7 16.1 112.9C14.6 110.8 13 108.8 11.5 106.7C8.7 102.5 6.29995 98 4.19995 93.4C5.29995 94.5 6.30002 95.6 7.40002 96.7L7.30005 96.8ZM36.6 167.6C34.7 164.6 33.1 161.2 32.9 157.6C32.8 154 31.9 150.6 30.6 147.2C27.5 139 22.6 131.4 17.3 124.5C14.9 121.4 12.2 118.6 10.3 115.2C8.40005 111.9 7.00002 108.4 5.90002 104.8C5.00002 101.8 4.19998 98.7 3.59998 95.6C3.59998 95.2 3.50002 94.9 3.40002 94.5C5.10002 98.1 6.99998 101.7 9.09998 105.1C10.6 107.5 12.3 109.6 13.9 111.9C15.8 114.5 17.5 117.1 19.3 119.8C23.2 125.8 27 131.8 30.2 138.2C31.4 140.7 32.4 143.2 33.5 145.7C34.9 148.8 36.3 151.9 37.8 155C39.2001 157.9 40.7 160.8 42.1 163.7C42.9 165.3 43.7 167 44.6 168.6C44.6 168.6 44.6 168.8 44.7 168.8C44.9 171.7 45 174.6 45.2 177.6C41.7999 174.8 38.8 171.4 36.4 167.7L36.6 167.6ZM49.9 200C51.6 196.4 52.9 192.5 53.9 188.6C55.2 183.9 55.9 179.1 57.1 174.3C58 170.8 59.2 167.3 60.4 163.8C63.5 155.5 67.5 147.4 72.3 140C77.1001 132.8 83 125.7 90.5 121.2C93.8 119.2 97.7 117.9 101.6 117.6C102.6 117.6 103.6 117.5 104.6 117.5C104.8 117.5 105.9 117.5 106.5 117.5C99.6 119.9 93.5 124.4 88.5 129.5C82.3 135.7 77.4 143.1 73.1 150.8C69.2 157.9 65.9 165.3 63.2 172.8C62.2 175.6 61.3 178.5 60.5 181.5C59.2 186.4 57.9 191.2 56.4 196C54.2 202.9 51.7 209.7 49.1 216.4C49.1 216 49.1 215.7 49.1 215.3C48.8 211.2 48.4 207.1 48.1 203.1C48.8 202.1 49.4 201 49.9 199.9V200ZM106.1 118.6C100.6 123.3 95.3999 128.4 90.7 133.8C87.5 137.5 84.6 141.3 82.1 145.5C79.8 149.3 77.8999 153.4 77.2 157.8C75.8999 165.6 74.7 173.3 73.1 181C71.2 190.6 68.8 200.2 65.6 209.5C62.8 217.5 59.3 225.9 53.6 232.4C52.8 233.3 51.8 234.2 50.9 235C50.4 229.4 49.9 223.8 49.4 218.3C51.8 212.4 54 206.4 56 200.4C57.7 195.3 59.4 190.1 60.7 184.9C61.5 181.9 62.2 178.9 63.2 175.9C65.5 168.8 68.3999 161.9 71.7 155.3C75.5 147.7 80 140.3 85.5 133.8C90.7 127.6 96.9 121.7 104.5 118.8C105.4 118.5 106.2 118.2 107.1 117.9C107.1 118 106.1 118.7 106 118.8L106.1 118.6Z" fill="#231F20"/>
<path d="M108.1 116.8C108.3 116.8 108.4 116.8 108.1 116.8C107.9 116.8 107.7 116.8 107.6 116.8C107 116.8 106.5 116.8 105.9 116.8C104 116.8 102 117 100.1 117.3C96.5 118 93.2 119.5 90.1 121.4C84.2 124.9 79.3 129.9 75.1 135.4C70.6 141.3 66.8 147.7 63.6 154.4C60.4 161.1 57.4 168.6 55.7 176.2C53.6 185.1 52.3001 194.3 47.9001 202.4L48.6 202.6C47.3 185.9 46.3 169.1 45.7 152.3C45.1 135.6 44.8 118.8 46.2 102.1C46.6 97.5 47.2 93 48.1 88.5C48.1 88.2 48.1001 87.5 48.4001 87.2C48.7001 86.9 49.6001 86.9 50.0001 86.8C51.0001 86.5 52.1 86.3 53.1 86.1C53.6 86.1 54.2 85.9 54.7 85.8C55.4 85.8 56.1 85.9 56.7 85.8C57.3 85.8 57.4001 85.3 57.9001 85.2C58.2001 85.2 58.3001 84.5 57.9001 84.5C54.7001 83.9 51.0001 85.3 47.9001 86.2L48.4001 86.7C49.3001 82.1 50.3001 77.6 51.4001 73.1L51.0001 73.4C52.8001 73.3 54.6001 73.1 56.4001 73C57.1001 73 58 73 58.7 72.8C59.2 72.7 59.4001 72.4 59.8001 72.2C60.2001 72.1 60.2001 71.4 59.8001 71.5C58.3001 71.6 56.8 71.7 55.2 71.8C54.5 71.8 53.9 71.8 53.2 72C52.8 72 51.8001 72.3 51.3001 72.2L51.6 72.7C52.1 70.4 52.7 68 53.2 65.7L52.8001 66C53.1001 66 53.3 65.6 53.1 65.4C53.3 65.6 53.6 63.9 53.7 63.8C53.9 62.8 53.9 62.5 55.1 62.4C56.5 62.3 58.0001 62.4 59.4001 62.6C60.0001 62.6 60.6 62.8 61.2 62.9C61.7 63 62.5001 63.4 63.0001 63.4C63.5001 63.4 63.8 63 64.2 62.8C64.5 62.7 64.6 62.2 64.2 62.1C62.3 61.5 60.4001 61.2 58.4001 61C56.9001 60.9 54.9001 60.8 53.5001 61.5L54.1 61.9C54.9 58.4 55.8 54.9 56.7 51.4L56.3001 51.7C58.2001 51.7 60.2 51.7 62.1 51.7C64 51.7 64.1001 51.9 64.9001 51.7C65.3001 51.6 65.6001 51.2 66.0001 51.1C66.4001 51 66.3001 50.4 66.0001 50.4H61.4001C59.8001 50.4 58.1 50.6 56.6 50.4L56.9001 50.9C57.9001 46.8 59 42.8 60.1 38.7L59.7 39C61.5 38.8 63.3 38.6 65.1 38.4C65.7 38.4 66.4001 38.4 66.9001 38.2C67.3001 38.1 67.7 37.8 68.1 37.6C68.5 37.4 68.3001 36.9 67.9001 36.9C65.2001 37.2 62.5001 37.5 59.8001 37.8L60.2 38.3C61.4 34.2 62.6001 30.1 63.9001 26.1L63.5001 26.4C65.5001 26.4 67.6 26.6 69.6 26.7C70.3 26.7 71.4001 27 72.0001 26.7C72.4001 26.7 72.7 26.2 73.1 26.1C73.5 26 73.4 25.4 73.1 25.4C71.3 25.4 69.5001 25.2 67.8001 25.2C67.0001 25.2 66.1 25.2 65.2 25.1C64.8 25.1 64.1 24.9 63.7 25.1L64.2 25.6C65.6 21.5 67.0001 17.4 68.8001 13.4L68.4001 13.6C70.4001 14.3 72.4001 14.9 74.5001 15.6C75.0001 15.8 75.9001 16.2 76.4001 16.2C76.8001 16.2 77.1001 15.7 77.5001 15.6C77.8001 15.5 77.9001 15 77.5001 14.9L72.4001 13.3C71.6001 13.1 70.8 12.8 70.1 12.6C69.8 12.5 69.2001 12.2 68.8001 12.3L69.2 12.8C70.3 10.7 71.4 8.49999 73.1 6.79999C73.4 6.49999 73.1 6.00001 72.7 6.20001C72.2 6.50001 71.7001 6.70001 71.3001 7.20001C70.8001 7.70001 70.4001 8.20001 70.0001 8.70001C69.5001 9.30001 69.1 10 68.7 10.7C68.5 11.1 68.3 11.5 68.1 11.8C68.1 11.9 67.7001 12.8 67.8001 12.8C67.4001 12.8 67.5001 13.4 67.8001 13.5C67.8001 13.3 67.6 13.1 67.6 13C67 14.2 66.5001 15.5 65.9001 16.7H66.6C64.6 13.6 62.6 10.5 60.6 7.5C60.6 7.4 60.3 7.29999 60.2 7.29999C59.8 7.49999 59.5 7.70002 59.1 7.90002C58.9 7.90002 58.9001 8.20002 59.0001 8.40002C61.2001 11.7 63.3001 15 65.5001 18.3C65.5001 18.4 65.8001 18.5 65.9001 18.5C65.7001 18.3 65.6001 18.2 65.4001 18C64.9001 19.3 64.4001 20.7 63.9001 22.1C63.7001 22.7 63.5001 23.3 63.3001 23.9C63.3001 24 62.7001 25.9 62.8001 25.9C62.4001 26 62.5001 26.6 62.8001 26.6C62.7001 26.4 62.6001 26.3 62.4001 26.1L62.0001 27.4L62.6 27.2C60.3 24.4 58.0001 21.6 55.8001 18.7C55.8001 18.7 55.6001 18.6 55.4001 18.7C55.0001 18.7 54.7001 19.2 54.4001 19.3C54.1001 19.3 54.1 19.7 54.2 19.9C56.7 23 59.1 26 61.6 29.1C61.6 29.2 61.8001 29.2 62.0001 29.1C61.8001 28.9 61.7001 28.8 61.5001 28.6C61.0001 30.3 60.4001 32 59.9001 33.7C59.7001 34.5 59.4 35.3 59.2 36.2C59.2 36.4 58.6 38.7 58.6 38.7C58.2 38.8 58.3 39.5 58.6 39.4C58.5 39.2 58.4 39.1 58.2 38.9C58.1 39.4 57.9001 39.9 57.8001 40.4L58.4001 40.2C55.7001 37.1 53.1001 34 50.4001 30.9C50.4001 30.9 50.2001 30.8 50.0001 30.9C49.6001 30.9 49.3001 31.4 49.0001 31.5C48.7001 31.5 48.7001 31.9 48.8001 32.1C51.6001 35.4 54.4001 38.7 57.3001 42C57.3001 42 57.5 42.1 57.7 42C57.8 42 57.9001 42 58.0001 41.8L57.4001 41.4C56.6001 44.4 55.8001 47.4 55.0001 50.5L55.6 50.3C53.6 48.7 51.4001 47.3 49.3001 45.8L47.8001 44.7C47.4001 44.4 46.9001 43.8 46.4001 43.7C45.9001 43.7 45.7001 44.2 45.3001 44.3C44.9001 44.3 44.8 44.8 45.1 45C46.8 46.2 48.5 47.4 50.2 48.6C51.7 49.7 53.3001 51 54.9001 51.9L54.7 51.5C54.2 53.4 53.8001 55.3 53.3001 57.2C53.1001 58.1 52.9 59 52.6 59.9C52.5 60.4 52.4 60.9 52.2 61.4C52.2 61.5 52.0001 62.6 52.0001 62.6C51.6001 62.8 51.9001 63.4 52.3001 63.3C52.1001 63.1 52.0001 63 51.8001 62.8C51.6001 63.7 51.4 64.6 51.2 65.4L51.8001 65.2C49.5001 63.3 47.2001 61.4 44.8001 59.5C44.3001 59.1 43.8001 58.7 43.3001 58.3C43.0001 58.1 42.7001 57.6 42.4001 57.6C41.9001 57.6 41.6 58.1 41.2 58.2C40.9 58.2 40.8001 58.7 41.0001 58.8C43.0001 60.4 44.9001 62 46.9001 63.7C47.8001 64.5 48.7 65.2 49.7 66C50 66.3 50.7 67.1 51.2 67.1L50.8001 66.6C50.3001 68.6 49.9001 70.6 49.4001 72.6L50.0001 72.4C48.2001 71.3 46.3001 70.2 44.5001 69.1C44.1001 68.9 43.4001 68.2 42.9001 68.3C42.5001 68.3 42.3001 68.9 42.0001 68.9C41.6001 68.9 41.5001 69.4 41.8001 69.6C43.3001 70.5 44.9001 71.4 46.4001 72.4C47.1001 72.8 47.8001 73.2 48.5001 73.7C48.8001 73.9 49.2 74.2 49.6 74.2L49.2 73.7C48.3 77.7 47.4001 81.7 46.5001 85.8H47.2C46.4 84 45.1 82.6 43.7 81.3C43.4 81 42.7 80.2 42.2 80.2C41.7 80.2 41.6 80.7 41.2 80.8C40.8 80.8 40.7001 81.3 41.0001 81.5C42.9001 83 44.8 84.8 45.7 87.1C46.1 88 45.9 88.3 45.7 89.3C45.5 90.6 45.2001 91.9 45.0001 93.2C44.2001 98.3 43.8001 103.4 43.4001 108.5C42.8001 118.9 42.7001 129.4 42.9001 139.8C42.9001 145.8 43.2001 151.7 43.4001 157.6L44.1 157.4C41.8 152.2 39.6001 147 37.5001 141.7C35.6001 137 34.0001 132 31.8001 127.4C29.7001 123 26.9001 119.1 23.9001 115.2C20.7001 111.1 17.3001 107.1 13.8001 103.2C10.1001 99 6.30008 95 2.40008 91C2.30008 90.9 2.10006 90.9 2.00006 91C1.50006 91.2 1.00011 91.4 0.800109 91.9C0.600109 92.4 1.00004 93.9 1.10004 94.4C1.20004 95.4 1.40004 96.4 1.60004 97.3C2.30004 101 3.30006 104.6 4.50006 108.1C5.60006 111.4 7.00011 114.7 8.80011 117.7C10.6001 120.7 12.9001 123 14.9001 125.7C19.4001 131.4 23.4001 137.5 26.5001 144C28.0001 147.2 29.4 150.5 30.2 154C31 157.5 30.7001 161 32.0001 164.4C33.3001 167.8 35.4 170.8 37.7 173.5C38.9 175 40.3 176.3 41.7 177.6C42.3 178.2 43 178.8 43.7 179.3C44 179.5 44.5001 180.2 44.9001 180.2L44.5001 179.8C44.7001 183.9 45.0001 188 45.3001 192.1C45.4001 194.1 45.6 196.2 45.7 198.2C45.7 199.2 45.9001 200.2 45.9001 201.2C45.9001 201.7 45.9001 202.2 46.0001 202.7C46.0001 203 46.3 204.1 46.2 204.3C45.9 204.7 46.5001 205 46.8001 204.8C46.6001 204.8 46.4 204.6 46.2 204.5C46.4 207 46.6001 209.5 46.8001 212C46.8001 213.2 47 214.3 47.1 215.5C47.1 216.2 47.2001 216.8 47.3001 217.5C47.3001 217.9 47.6001 219 47.5001 219.4C47.3001 219.8 47.9 220 48.1 219.8C47.9 219.8 47.7001 219.6 47.5001 219.5C47.7001 222.4 48.0001 225.3 48.3001 228.2C48.4001 229.6 48.5 230.9 48.7 232.3C48.7 233.1 48.8001 233.8 48.9001 234.6C48.9001 234.8 49.1 236.4 49.2 236.3C48.9 236.6 49.2 237.1 49.6 236.9C49.4 236.8 49.2001 236.7 49.0001 236.6C49.9001 245.9 50.8001 255.1 51.8001 264.4C51.8001 264.8 52.3001 264.9 52.5001 264.6C52.7001 264.3 53.3 264.4 53.6 264C53.8 263.7 53.6 263 53.6 262.7C53.6 262 53.4001 261.3 53.4001 260.5C53.1001 257.7 52.8001 254.8 52.5001 252C52.2001 249 51.9 246.1 51.6 243.1C51.5 241.8 51.3 240.5 51.2 239.1C51.2 238.5 51.1001 237.8 51.0001 237.2C51.0001 236.2 51.2001 236 51.9001 235.3C55.6001 232.1 58.4 227.8 60.7 223.5C63.2 218.8 65.2001 213.8 66.9001 208.8C70.6001 198.1 73 187 75.1 175.9C76.2 170.2 77.0001 164.6 78.0001 158.9C79.0001 153.2 81.2 148.6 84.2 144C90.5 134.2 99.0001 125.5 108 118.2C108.2 118 108 117.7 107.8 117.6C107.8 117.8 107.8 118.1 107.8 118.3C108.2 118.1 107.8 117.4 107.4 117.6C107.1 117.8 107.2 118.2 107.4 118.3C107.4 118.1 107.3 117.9 107.2 117.7C99.3 124.1 92.0001 131.5 86.0001 139.7C82.9001 143.8 80.2001 148.3 78.4001 153.1C77.4001 155.7 77 158.4 76.6 161.2C76.2 164 75.7 166.9 75.2 169.7C73.3 180.9 71 192.1 67.7 203C66.1 208.5 64.2001 213.9 61.8001 219.1C59.6001 223.9 57.0001 228.7 53.4001 232.6C52.5001 233.6 51.5001 234.6 50.4001 235.4C50.1001 235.6 49.9001 235.7 49.8001 236.1C49.6001 236.7 50.0001 237.9 50.0001 238.5C50.3001 241.7 50.6001 244.8 50.9001 248C51.2001 251.2 51.6001 254.6 51.9001 257.9C52.1001 259.4 52.2001 260.9 52.4001 262.5C52.4001 262.8 52.6001 263.2 52.5001 263.5C52.4001 264 52.5 263.7 52.1 264C51.9 264.2 51.7 264.2 51.6 264.4L52.3001 264.6C51.2001 255.4 50.3001 246.1 49.5001 236.8C49.5001 236.5 49.2001 236.3 48.9001 236.5C49.1001 236.7 49.2001 236.9 49.3001 237.1C49.7001 236.8 49.3 234.8 49.2 234.4C49 232.8 48.9001 231.2 48.8001 229.6C48.5001 226.4 48.2001 223.1 48.0001 219.9C48.0001 219.6 47.6001 219.4 47.4001 219.6C47.6001 219.7 47.8001 219.8 48.0001 220C48.1001 219.7 48.0001 219.2 48.0001 218.9C48.0001 218.2 47.9001 217.6 47.8001 216.9C47.7001 215.6 47.6001 214.2 47.5001 212.9C47.3001 210.2 47.1001 207.6 46.9001 204.9C46.9001 204.6 46.5001 204.4 46.3001 204.6C46.5001 204.8 46.7001 204.9 46.9001 205.1C47.2001 204.6 46.9001 203.4 46.9001 202.9C46.9001 201.9 46.7 200.9 46.7 199.9C46.5 197.7 46.4 195.5 46.2 193.3C45.9 188.9 45.6001 184.6 45.4001 180.2C45.4001 180 45.2001 179.8 45.0001 179.8C44.8001 179.8 43.8001 178.6 43.5001 178.4C42.9001 177.9 42.3 177.3 41.7 176.8C40.5 175.7 39.4001 174.5 38.4001 173.3C36.3001 170.9 34.5 168.2 33.2 165.3C32.5 163.7 32.0001 162 31.8001 160.3C31.6001 158.7 31.6001 157.1 31.3001 155.6C30.7001 152.4 29.6001 149.3 28.3001 146.3C25.6001 140.3 22.2001 134.6 18.4001 129.3C16.5001 126.7 14.5001 124.3 12.5001 121.8C10.3001 119.1 8.50004 116.2 7.10004 113.1C5.50004 109.5 4.30011 105.6 3.30011 101.8C2.80011 100 2.40004 98.1 2.10004 96.2C1.90004 95.1 1.80004 94 1.60004 92.9C1.60004 92.2 1.80008 92.1 2.40008 91.9H2.00006C9.10006 98.9 15.8001 106.4 22.0001 114.2C25.2001 118.2 28.2 122.3 30.6 126.8C33 131.5 34.6001 136.6 36.5001 141.5C38.8001 147 41.1001 152.6 43.5001 158C43.7001 158.3 44.2 158.2 44.2 157.8C43.8 146.9 43.5 135.9 43.7 125C43.9 114.1 44.1001 103.1 46.0001 92.3C46.1001 91.6 46.3001 90.8 46.4001 90.1C46.5001 89.5 46.8001 88.7 46.8001 88.1C46.8001 87.6 46.4 86.8 46.1 86.3C45.1 84.1 43.3001 82.4 41.4001 81L41.2 81.7C41.5 81.7 41.6001 81.4 41.9001 81.4C42.3001 81.2 42.2 81.2 42.6 81.6C42.9 81.9 43.3 82.2 43.6 82.5C44.8 83.6 45.8001 84.8 46.5001 86.3C46.6001 86.6 47.1 86.5 47.2 86.3C48.1 82.3 49.0001 78.3 49.9001 74.2C49.9001 74 49.8001 73.7 49.5001 73.7C49.1001 73.7 48.4001 73 48.0001 72.7L46.0001 71.5L42.1 69.1L41.9001 69.8C42.2001 69.8 42.3 69.6 42.6 69.5C43 69.3 42.9001 69.3 43.4001 69.5C43.9001 69.7 44.3 70 44.7 70.3C46.3 71.3 48 72.3 49.6 73.2C49.8 73.3 50.1 73.2 50.2 73C50.7 71 51.1 69 51.6 67C51.6 66.8 51.5 66.5 51.2 66.5C51 66.5 49.4 65 49.2 64.8C48.3 64.1 47.5 63.4 46.6 62.7C44.9 61.3 43.2001 59.9 41.5001 58.5L41.3001 59.1C42.0001 59.1 41.9 58.3 42.6 58.9C43.4 59.6 44.3 60.3 45.2 61.1C47.2 62.7 49.2 64.4 51.2 66C51.4 66.2 51.8001 66.1 51.8001 65.8C52.0001 64.9 52.2001 64 52.4001 63.2C52.4001 62.9 52.2001 62.7 51.9001 62.7C51.9001 62.9 52.1 63.2 52.2 63.4C52.6 63.2 52.6 62.1 52.7 61.8C53 60.7 53.2001 59.7 53.5001 58.6C54.0001 56.4 54.6 54.2 55.1 51.9C55.1 51.7 55.1001 51.6 54.9001 51.5C53.2001 50.6 51.7 49.3 50.2 48.2C48.5 47 46.8 45.8 45.1 44.6L44.9001 45.3C45.1001 45.3 45.2001 45.3 45.3001 45.1C45.8001 44.9 45.6 44.7 46.1 44.9C47 45.2 48 46.2 48.7 46.8C50.7 48.2 52.7 49.5 54.6 51C54.8 51.2 55.2 51.1 55.2 50.8C56 47.8 56.8 44.7 57.6 41.7C57.6 41.4 57.3001 41.1 57.0001 41.3C57.0001 41.3 53.4 37.1 53.1 36.7C51.6 35 50.2 33.3 48.7 31.6L48.5001 32.2C48.7001 32.2 48.8001 32 49.0001 31.9C49.5001 31.7 49.3 31.6 49.7 32.1C50.4 33.1 51.3001 33.9 52.0001 34.8C53.7001 36.8 55.4 38.8 57.1 40.7C57.3 40.9 57.7 40.7 57.7 40.5C57.8 40 58 39.5 58.1 39C58.1 38.8 58 38.5 57.7 38.5C57.7 38.7 57.7 39 57.7 39.3C58.1 39.1 58.1001 38.7 58.3001 38.3C58.6001 37.2 58.9 36.2 59.2 35.1C59.8 33 60.5 30.9 61.1 28.8C61.1 28.5 60.9 28.3 60.6 28.3C60.8 28.3 59.3 26.3 59.1 26.1C58.5 25.3 57.9 24.6 57.2 23.8C56 22.3 54.7001 20.7 53.5001 19.2L53.3001 19.8C53.5001 19.8 53.6001 19.6 53.8001 19.5C53.8001 19.5 54 19.4 54.1 19.3C54.2 19.2 54.3001 19.3 54.3001 19.5C54.7001 19.7 55.1001 20.5 55.4001 20.8C55.8001 21.3 56.1001 21.7 56.5001 22.1C57.9001 23.9 59.4001 25.7 60.9001 27.5C61.1001 27.7 61.5001 27.5 61.5001 27.3L61.9001 26C61.9001 25.8 61.8001 25.5 61.5001 25.5C61.5001 25.7 61.5001 26 61.5001 26.2C61.8001 26.2 61.8001 25.7 61.9001 25.5C62.2001 24.7 62.5 23.8 62.7 23C63.3 21.2 63.9 19.5 64.6 17.8C64.6 17.5 64.4 17.2 64.1 17.3C64.2 17.3 64.4001 17.4 64.5001 17.5C62.3001 14.2 60.2001 10.9 58.0001 7.59998V8.09998C58.2001 7.89998 58.5001 7.7 58.8001 7.5L58.4001 7.29999C60.4001 10.3 62.4001 13.4 64.4001 16.4C64.6001 16.7 65 16.6 65.1 16.4C65.6 15.2 66.1 14 66.7 12.9C66.8 12.7 66.7001 12.4 66.5001 12.4V13.1C66.8001 13.1 67 12.4 67.1 12.2C67.4 11.5 67.8 10.8 68.2 10.1C68.7 9.29998 69.2 8.60002 69.7 7.90002C70.2 7.20002 70.9001 6.90002 71.5001 6.40002L71.1 5.79999C69.3 7.49999 68.2 9.70002 67.1 11.9C67 12.2 67.1001 12.6 67.5001 12.4C67.7001 12.4 68.8 12.9 69.1 13L71.4001 13.7L75.8001 15.1V14.4C75.5001 14.5 75.2001 14.8 74.8001 14.9C74.1001 14.9 73.1001 14.4 72.4001 14.2C70.6001 13.6 68.8 13.1 67.1 12.5C67 12.5 66.7 12.5 66.7 12.7C64.9 16.7 63.4001 20.9 62.0001 25.1C62.0001 25.4 62.2001 25.6 62.5001 25.6C63.0001 25.5 63.8001 25.6 64.3001 25.6C65.1001 25.6 66.0001 25.6 66.9001 25.7C68.5001 25.7 70.1 25.8 71.7 25.9V25.2C71.1 25.4 70.9001 25.7 70.3001 25.8C69.5001 25.8 68.6001 25.8 67.8001 25.7C65.9001 25.7 64 25.5 62.2 25.5C62 25.5 61.9001 25.6 61.8001 25.8C60.5001 29.8 59.3 33.9 58.1 38C58.1 38.2 58.2001 38.5 58.5001 38.5C61.2001 38.2 63.9 37.9 66.6 37.6L66.4001 36.9C65.9001 37.1 65.6 37.4 65.1 37.5C64.4 37.6 63.7001 37.7 63.0001 37.7C61.5001 37.9 59.9001 38 58.4001 38.2C58.2001 38.2 58.1001 38.2 58.0001 38.5C56.9001 42.5 55.8001 46.6 54.8001 50.7C54.8001 50.9 54.8 51.1 55.1 51.2C56.6 51.4 58.1 51.2 59.6 51.2H64.7V50.5C64 50.7 63.6001 51 63.0001 51.1C62.2001 51.1 61.2001 51.1 60.4001 51.1C58.6001 51.1 56.8 51.1 55.1 51.1C54.9 51.1 54.8 51.2 54.7 51.4C53.8 54.9 53 58.4 52.1 61.9C52.1 62.2 52.4 62.5 52.7 62.3C54.1 61.6 56.2 61.8 57.7 61.9C59.4 62.1 61.1001 62.4 62.8001 62.9V62.2C62.0001 62.5 62 62.7 61.1 62.5C60.1 62.3 59.1 62 58.1 61.9C56.2 61.6 54.2001 61.5 52.3001 61.9C52.2001 61.9 52.1001 62 52.0001 62.2C51.7001 63.4 51.5 64.5 51.2 65.7C51.2 65.8 51.2 66 51.2 66.1C51.2 65.9 51.4001 65.7 51.5001 65.5C51.3001 65.5 51.2 65.6 51.1 65.8C50.5 68.1 50.0001 70.5 49.5001 72.8C49.5001 73 49.5001 73.2 49.8001 73.3C50.1001 73.4 50.5001 73.3 50.9001 73.3C51.7001 73.3 52.6001 73.2 53.4001 73.1C55.1001 73 56.8001 72.9 58.5001 72.7V72C57.9001 72.2 57.6001 72.5 57.0001 72.6C56.3001 72.7 55.5 72.7 54.7 72.8C53.1 72.9 51.4001 73 49.8001 73.2C49.6001 73.2 49.5001 73.3 49.4001 73.5C48.4001 78 47.3001 82.6 46.4001 87.1C46.4001 87.4 46.6001 87.6 46.9001 87.6C48.3001 87.2 49.7 86.8 51.2 86.4C52.9 86 54.8001 85.5 56.5001 85.8V85.1C55.8001 85.3 55.5 85.6 54.7 85.6C53.9 85.6 53 85.6 52.2 85.8C50.3 86.1 48.4 86.6 46.6 87.1C46.5 87.1 46.4001 87.2 46.3001 87.4C43.5001 102.1 43.1 117 43.2 131.9C43.2 147.1 43.9001 162.3 44.8001 177.5C45.3001 186 45.9001 194.6 46.5001 203.1C46.5001 203.4 47 203.6 47.2 203.3C50.8 196.7 52.6 189 54.1 181.7C55.7 173.9 58.0001 166.4 61.3001 159.2C67.0001 146.3 74.7001 133 86.4001 124.6C89.7001 122.3 93.3 120.3 97.2 119.2C99.3 118.6 101.5 118.3 103.7 118.2C104.5 118.2 105.3 118.2 106.1 118.2C106.3 118.2 106.9 118.4 107.1 118.2C107.5 118 107.3 117.3 106.9 117.5H106.8L108.1 116.8Z" fill="#231F20"/>
<path d="M7.10001 97.1C13.7 104.1 20.2001 111.3 25.8001 119.2C28.6001 123.2 30.8 127.4 32.6 132C34.4 136.6 36.2 141.1 38 145.6C40 150.4 42.1 155.3 44.2 160.1C44.3 160.3 44.6001 160.3 44.8001 160.1C44.6001 160.1 44.4 159.9 44.2 159.8C44.2 161.9 44.4 163.9 44.5 166L45.2 165.8C42.6 160.8 40.1 155.8 37.7 150.7C35.3 145.6 33.5 140.7 31 135.9C26.1 126.4 20 117.3 13.6 108.7C10 103.9 7.19998 98.6 4.69998 93.2L4.10001 93.7C5.20001 94.8 6.20008 95.9 7.30008 97C7.60008 97.3 8.20008 96.8 7.80008 96.5C6.70008 95.4 5.70001 94.3 4.60001 93.2C4.30001 92.9 3.80003 93.2 4.00003 93.7C6.20003 98.5 8.69998 103.2 11.7 107.5C14.7 111.8 18.1 116.3 21.1 120.9C24.1 125.5 26.9001 129.9 29.4001 134.7C31.9001 139.5 33.8 144.4 36.1 149.2C38.8 154.9 41.6 160.6 44.5 166.2C44.7 166.5 45.2 166.4 45.2 166C45.2 164 45.0001 161.9 44.9001 159.8C44.9001 159.5 44.5001 159.3 44.3001 159.5C44.5001 159.5 44.7001 159.5 44.9001 159.5C40.9001 150.4 37 141.3 33.5 132C31.8 127.6 29.9001 123.6 27.3001 119.7C24.7001 115.8 21.8001 112.3 18.8001 108.7C15.2001 104.4 11.5 100.3 7.69998 96.3C7.39998 96 6.79998 96.5 7.19998 96.8L7.10001 97.1Z" fill="#231F20"/>
<path d="M36.9 167.5C35.4 165.2 34.2 162.8 33.6 160.2C33 157.6 33.2 155.1 32.6 152.6C31.5 147.6 29.3 142.9 26.9 138.5C24.4 133.8 21.4 129.4 18.2 125.2C15 121 11.5 117.2 9.19995 112.4C6.49995 106.8 4.80005 100.7 3.80005 94.6L3.09998 94.9001C5.49998 99.8001 8.00005 104.7 11.3 109.1C14.6 113.5 17.7 118.1 20.7 122.7C23.7 127.3 26.7 132.2 29.3 137.2C31.9 142.2 33.7 147.3 36.1 152.2C38.8 157.9 41.6 163.5 44.5 169C44.5 169.2 44.8 169.2 45 169.1L44.4 168.7C44.6 171.6 44.7 174.6 44.9 177.5L45.5 177.2C42.2 174.3 39.2001 171.1 36.8 167.4C36.5 167 35.9 167.4 36.1 167.8C38.6 171.5 41.5 174.9 44.9 177.8C45.1 178 45.6 177.8 45.5 177.5C45.3 174.6 45.2 171.7 45 168.7C45 168.4 44.7 168.2 44.4 168.4L44.9 168.6C42.3 163.7 39.8 158.7 37.4 153.7C35 148.7 33 143.6 30.6 138.6C28.2 133.6 25.2 128.7 22.2 124C19.2 119.3 16.2 114.7 12.9 110.2C9.20002 105.2 6.1 99.9 3.5 94.3C3.3 93.9 2.80005 94.3 2.80005 94.6C3.60005 100 5.20005 105.4 7.30005 110.4C8.30005 112.7 9.40005 115 10.8 117.1C12.2 119.2 13.9 121.2 15.5 123.2C18.9 127.4 22 131.9 24.7 136.5C27.4 141.1 29.9 146.1 31.2 151.3C31.6 152.8 31.9 154.4 32.1 156C32.2 157.3 32.2 158.7 32.5 160C33.1 162.8 34.4 165.3 35.9 167.7C36.2 168.1 36.8 167.7 36.6 167.3L36.9 167.5Z" fill="#231F20"/>
<path d="M50.3001 200.2C53.4001 193.7 54.9001 186.7 56.4001 179.7C57.9001 172.4 60.2 165.3 63.1 158.5C65.9 152 69.2 145.8 73.1 139.9C76.7 134.5 80.8001 129.3 85.9001 125.1C91.8001 120.2 99.0001 117.3 106.8 117.9V117.2C93.0001 122 83.1001 134 75.8001 146C71.8001 152.6 68.4 159.5 65.5 166.7C64 170.5 62.6001 174.3 61.4001 178.2C60.2001 182.1 59.3 186.2 58.1 190.1C55.6 199 52.4 207.8 49 216.4H49.7C49.5 213.7 49.2 210.9 49 208.1C48.9 206.7 48.6 205.3 48.7 203.9C48.7 202.7 49.9001 201.3 50.4001 200.1C50.6001 199.7 50 199.3 49.7 199.7C49.4 200.3 49.1001 200.9 48.8001 201.5C48.6001 202 48.0001 202.5 47.9001 203C47.8001 203.5 47.9 204.3 48 204.8C48 205.6 48.1 206.4 48.2 207.3C48.4 210.4 48.7001 213.4 48.9001 216.5C48.9001 216.9 49.5 217 49.6 216.5C52.5 209 55.3 201.4 57.7 193.7C60.1 186 61.7 178.5 64.5 171.1C69.7 157 77 142.8 87.2 131.6C92.7 125.6 99.2001 120.5 106.9 117.8C107.3 117.7 107.2 117.1 106.9 117.1C100.3 116.6 94 118.5 88.6 122.2C83.2 125.9 78.8 130.8 75 136C66.6 147.5 60.2001 161.2 56.8001 175C54.8001 183.3 53.5001 191.8 49.8001 199.7C49.6001 200.1 50.2 200.5 50.5 200.1L50.3001 200.2Z" fill="#231F20"/>
<path d="M105.8 118.4C99.2001 123.9 93.1 130.1 87.7 136.7C82.2999 143.3 77.9 150.3 76.6 158.5C73.6 176.3 70.6 194.2 64.5 211.2C61.4 219.7 57.5 228.7 50.5 234.7L51.1 235C50.7 230.3 50.2 225.7 49.8 221C49.7 219.8 49.5 218.7 49.9 217.5C50.3 216.3 50.8 215.2 51.2 214.1C52 212 52.8 209.8 53.6 207.7C56.7 199.1 59.4 190.5 61.7 181.7C64 172.9 67.4 164.3 71.5 156.2C75.3 148.5 79.8 141.1 85.3 134.4C88.1 131 91.2 127.7 94.6 124.9C96.4 123.5 98.2 122.2 100.2 121.1C101.2 120.6 102.1 120.1 103.2 119.6C103.8 119.3 104.5 119.1 105.1 118.8C105.3 118.8 105.5 118.6 105.8 118.6C105.8 118.6 106.9 118.2 106.8 118.1V117.6C106.5 117.9 106 118.1 105.7 118.4C105.3 118.7 105.7 119.3 106.1 119.1C106.5 118.9 107.1 118.5 107.3 118.1C107.3 117.9 107.3 117.7 107.2 117.6C106.8 117.4 106 117.8 105.6 118C104.6 118.3 103.6 118.7 102.7 119.2C100.8 120 99 121.1 97.3 122.2C94 124.4 91 127.1 88.3 130C82.4 136.3 77.6 143.5 73.5 151C69.1 159.1 65.4 167.6 62.6 176.4C61.2 180.9 60.1 185.6 58.8 190.2C57.5 194.8 56 199.2 54.4 203.7C53.5 206.3 52.5 208.9 51.6 211.5C51.1 212.7 50.7 213.9 50.2 215.2C49.8 216.3 49 217.6 48.9 218.7C48.9 220 49.1 221.4 49.2 222.6C49.3 224 49.4 225.4 49.6 226.8C49.8 229.6 50.1 232.4 50.4 235.2C50.4 235.5 50.8 235.7 51 235.5C56.9 230.4 60.6 223.3 63.4 216.2C66.7 208.1 69.1 199.6 71.2 191.1C73.3 182.6 74.9 173.3 76.4 164.3C77.1 159.9 77.7 155.5 79.5 151.3C81.2 147.5 83.4 143.9 85.9 140.5C91.7 132.6 98.7999 125.5 106.2 119.2C106.6 118.9 106 118.4 105.7 118.7L105.8 118.4Z" fill="#231F20"/>
</svg>
