<svg width="87" height="266" viewBox="0 0 87 266" fill="none" xmlns="http://www.w3.org/2000/svg">
<path d="M84.9 32.2C84.9 31.8 84.5 31.6 84.2 31.7C83.9 31.7 83.7 32.1 83.8 32.5C83.8 32.5 83.8 32.5 83.8 32.6C83.1 33.6 81.4 35.9 79.8 36.1C79.5 36.1 79.3 36.1 79.1 36.1C80.4 35.6 81.9 33.2 82.5 32H82.7C83 32 83.2 31.6 83.1 31.2C83 30.8 82.7 30.6 82.4 30.7C82.1 30.7 81.9 31.1 82 31.5C82 31.5 82 31.5 82 31.6C81.2 33 79.7 35.5 78.6 35.7C78.4 35.7 78.3 35.7 78.2 35.7C77.7 35.2 78.9 32.8 80.3 30.5C80.3 30.5 80.4 30.5 80.5 30.5C80.8 30.5 81 30.1 80.9 29.7C80.8 29.3 80.5 29.1 80.2 29.2C79.9 29.2 79.7 29.6 79.8 30V30.2C79.1 31.3 77.9 33.3001 77.5 34.8001C76.7 33.0001 77.9 30.8 78.6 29.7C78.6 29.7 78.7 29.7 78.8 29.7C79.1 29.7 79.3 29.3 79.2 28.9C79.1 28.5 78.8 28.3 78.5 28.4C78.2 28.4 78 28.8 78.1 29.2C78.1 29.2 78.1 29.3 78.1 29.4C77.3 30.7 75.8 33.5 77.3 35.7C77.3 35.7 77.2 35.7001 77.1 35.8001C76.3 37.6001 75 39.3 73.6 40.7C70 44.3 65.2 46.5 60.2 47.4C56.4 48.1 52.6 48 48.8 47.5C48.9 47.3 49 47.2 49.1 47C55.6 46.3 61.7 43.6 66.7 39.2C70.5 35.8 73.6 31.5 75.9 27C76.3 26.2 76.7 25.4 77 24.6C77.4 24.8 77.7 24.8001 78.1 24.8001C78.5 24.8001 78.7 24.8 79 24.7C81.2 24 82.9 20.7 83.5 19.2C83.6 19.2 83.8 19.2 83.9 19.2C84.3 19 84.5 18.6 84.3 18.2C84.1 17.8 83.7 17.6001 83.3 17.8001C82.9 18.0001 82.7 18.4001 82.9 18.8001C82.9 18.8001 82.9 18.9 83 19C82.4 20.4 80.8 23.6 78.8 24.2C78.4 24.3 78.1 24.3 77.7 24.2C79.2 23.4 80.5 20 81 18.4C81.1 18.4 81.2 18.4 81.4 18.4C81.8 18.2 82 17.8 81.8 17.4C81.6 17 81.2 16.8 80.8 17C80.4 17.2 80.2 17.6 80.4 18C80.4 18 80.4 18.1 80.5 18.2C79.9 20.1 78.5 23.3 77.3 23.9C77.1 23.9 76.9 23.9 76.7 23.9C76.7 23.9 76.7 23.9 76.6 23.9C76 23.3 76.9 20.2001 78.1 17.3001C78.2 17.3001 78.3 17.3001 78.4 17.3001C78.8 17.1001 79 16.7001 78.8 16.3001C78.6 15.9001 78.2 15.7 77.8 15.9C77.4 16.1 77.2 16.5 77.4 16.9C77.4 17 77.5 17.1 77.6 17.2C77 18.7 75.9 21.6001 75.9 23.3001C74.3 21.4001 75.2 18.4 75.9 16.9C76 16.9 76.1 16.9 76.2 16.9C76.6 16.7 76.8 16.3 76.6 15.9C76.4 15.5 76 15.3 75.6 15.5C75.2 15.7 75 16.1 75.2 16.5C75.2 16.5 75.3 16.7001 75.4 16.8001C74.6 18.6001 73.5 22.4 76.2 24.5C75.2 27.1 73.8 29.6001 72.3 31.8001C69 36.8001 64.7 41.2 59.4 43.9C56.3 45.5 53 46.5 49.5 46.9C49.6 46.7 49.7 46.6 49.7 46.6C49.7 46.6 49.7 46.6 49.5 46.6C56.3 44.5 61.4 38.9 64.4 32.5C64.6 32.1 64.8 31.7001 64.9 31.3001C65.3 31.5001 65.6 31.6 66 31.6C66.4 31.6 66.3 31.6 66.4 31.6C68.2 31.3 69.8 28.7 70.5 27.6C70.5 27.6 70.7 27.6 70.8 27.6C71.1 27.6 71.3 27.1001 71.2 26.8001C71.1 26.5001 70.8 26.2001 70.4 26.3001C70.1 26.3001 69.9 26.8 70 27.1C70 27.1 70 27.1 70 27.2C69.4 28.2 67.9 30.7 66.3 31C66 31 65.8 31 65.6 31C66.8 30.4 68.1 27.8 68.6 26.6H68.8C69.1 26.6 69.3 26.1001 69.2 25.8001C69.1 25.5001 68.8 25.2001 68.4 25.3001C68 25.4001 67.9 25.8 68 26.1C68 26.1 68 26.1 68 26.2C67.4 27.7 66 30.3 65 30.5C65 30.5 65 30.5 64.9 30.5C64.9 30.5 64.7 30.5 64.6 30.5C64.1 30.1 65 27.5 66.3 25.2C66.3 25.2 66.4 25.2 66.5 25.2C66.8 25.2 67 24.7 66.9 24.4C66.8 24.1 66.5 23.8 66.1 23.9C65.7 24 65.6 24.4 65.7 24.7C65.7 24.7 65.7 24.8 65.8 24.9C65.2 26.1 64.1 28.2 63.9 29.6C63 27.8 63.9 25.6 64.5 24.4C64.5 24.4 64.6 24.4 64.7 24.4C65 24.4 65.2 23.9 65.1 23.6C65 23.3 64.7 23 64.3 23.1C64 23.1 63.8 23.6 63.9 23.9C63.9 23.9 63.9 24 64 24.1C63.3 25.5 62 28.5 63.9 30.6C63.3 32.2 62.5 33.7 61.6 35.2C59.7 38.4 57.3 41.2 54.2 43.4C52.6 44.5 50.9 45.4 49 46C50.1 45.1 51.1 43.9001 52 42.8001C53.8 40.5001 55.3 38 56.7 35.5C59.4 30.6 61.7 25.5 63.9 20.4C64.3 19.4 64.7 18.4 65.1 17.4C65.5 17.6 65.8 17.6 66.2 17.6C66.6 17.6 66.8 17.6 67.1 17.5C69.3 16.8 71 13.5 71.6 12C71.7 12 71.9 12 72 12C72.4 11.8 72.6 11.4 72.4 11C72.2 10.6 71.8 10.4 71.4 10.6C71 10.8 70.8 11.2 71 11.6C71 11.6 71 11.7001 71.1 11.8001C70.5 13.2001 68.9 16.4 66.9 17C66.5 17.1 66.2 17.1 65.8 17C67.3 16.2 68.6 12.8 69.1 11.2C69.2 11.2 69.3 11.2 69.5 11.2C69.9 11 70.1 10.6 69.9 10.2C69.7 9.79998 69.3 9.60007 68.9 9.80007C68.5 10.0001 68.3 10.4001 68.5 10.8001C68.5 10.8001 68.5 10.9 68.6 11C68 12.9 66.6 16.1 65.4 16.7C65.2 16.7 65 16.7 64.8 16.7C64.8 16.7 64.8 16.7 64.7 16.7C64.1 16.1 65 13 66.2 10.1C66.3 10.1 66.4 10.1 66.5 10.1C66.9 9.9 67.1 9.5 66.9 9.1C66.7 8.7 66.3 8.49998 65.9 8.69998C65.5 8.89998 65.3 9.29998 65.5 9.69998C65.5 9.79998 65.6 9.90002 65.7 10C65.1 11.5 64 14.4 64 16.1C62.4 14.2 63.3 11.2 64 9.69998C64.1 9.69998 64.2 9.69998 64.3 9.69998C64.7 9.49998 64.9 9.09998 64.7 8.69998C64.5 8.29998 64.1 8.10007 63.7 8.30007C63.3 8.50007 63.1 8.90007 63.3 9.30007C63.3 9.30007 63.4 9.5 63.5 9.6C62.7 11.4 61.6 15.2001 64.3 17.3001C63.1 20.4001 61.8 23.4001 60.4 26.3001C57.9 31.7001 55.3 37.1 51.8 42C50.7 43.5 49.5 45.2 47.9 46.4C47.6 46.4 47.3 46.2 46.9 46.2C48.8 42.5 50.7 38.9 52.8 35.4C53.6 34.1 54.5 32.8 55.2 31.4C55.9 30.2 56.4 28.8 56.8 27.4C57.5 24.7 57.8 21.9 57.9 19.1C57.9 17.5 57.9 15.9 57.7 14.4C60.5 13.6 61 10.3 61.1 8.69998C61.1 8.69998 61.2 8.7 61.3 8.6C61.6 8.4 61.6 7.89998 61.3 7.69998C61.1 7.49998 60.7 7.49998 60.4 7.69998C60.1 7.89998 60.1 8.4 60.4 8.6C60.4 8.6 60.5 8.59998 60.5 8.69998C60.5 9.99998 60.1 12.4 58.4 13.5C59 12.2 59.2 9.80002 59.2 8.50002C59.2 8.50002 59.3 8.50005 59.4 8.40005C59.7 8.20005 59.7 7.70002 59.4 7.50002C59.2 7.30002 58.8 7.30002 58.5 7.50002C58.2 7.70002 58.2 8.20005 58.5 8.40005C58.5 8.40005 58.5 8.40005 58.6 8.40005C58.5 10.9 58 13.5001 57.4 13.8001C57.4 13.8001 57.4 13.8001 57.3 13.8001C57.2 13.8001 57 13.8 56.9 13.6C56.2 12.8 56.3 9.90007 56.5 8.30007C56.5 8.30007 56.5 8.30007 56.6 8.30007C56.9 8.10007 56.9 7.60005 56.6 7.40005C56.3 7.20005 56 7.20005 55.7 7.40005C55.4 7.60005 55.4 8.10007 55.7 8.30007C55.7 8.30007 55.8 8.40005 55.9 8.40005C55.8 9.80005 55.5 12.6 56.3 13.7C56.1 13.7 55.8 13.5 55.6 13.4C54.4 12.3 54.3 9.39998 54.3 8.19998C54.3 8.19998 54.3 8.19998 54.4 8.19998C54.7 7.99998 54.7 7.50007 54.4 7.30007C54.1 7.10007 53.8 7.10007 53.5 7.30007C53.2 7.50007 53.2 7.99998 53.5 8.19998C53.5 8.19998 53.6 8.30007 53.7 8.30007C53.7 9.60007 53.7 12.6001 55.2 13.8001C55.6 14.1001 56 14.3001 56.4 14.3001C56.6 16.6001 56.6 19 56.4 21.4C56.4 21.4 56.4 21.3 56.4 21.2C56.2 21 55.9 20.9 55.6 21.1C55.3 21.3 55.2 21.7 55.4 21.9C55.4 21.9 55.4 21.9 55.5 21.9C55.3 23 54.8 25.2 53.2 25.9C53.8 24.7 54.3 22.7 54.4 21.5C54.4 21.5 54.5 21.5 54.6 21.5C54.9 21.3 55 20.9 54.8 20.7C54.6 20.5 54.3 20.4 54 20.6C53.7 20.8 53.6 21.2 53.8 21.4C53.4 23.8 52.7 26.1 52.2 26.2C52.1 26.2 52 26.2 51.9 26C51.3 25.2 51.8 22.6 52.1 21.1C52.4 20.9 52.5 20.5001 52.3 20.3001C52.1 20.1001 51.8 20 51.5 20.2C51.2 20.4 51.1 20.8 51.3 21C51.3 21 51.3 21 51.4 21.1C51.1 22.3 50.7 24.8 51.2 26C51 26 50.9 25.8 50.7 25.6C49.7 24.4 49.9 21.8 50.1 20.7C50.4 20.5 50.5 20.1 50.3 19.9C50.1 19.7 49.8 19.6001 49.5 19.8001C49.2 20.0001 49.1 20.4 49.3 20.6C49.3 20.6 49.4 20.7001 49.5 20.8001C49.3 22.0001 49.1 24.8 50.3 26.1C50.5 26.3 50.7 26.5 50.9 26.6C50.9 27.7 50.7 28.9 50.5 30C49.9 33.3 48.9 36.6 47.6 39.7C47 41 46.5 42.3 45.8 43.5C46.2 40.2 46.6 36.9 47.2 33.7C47.5 32.4 47.8 31.1001 48.1 29.8001C48.4 28.5001 48.5 27.1 48.7 25.7C48.9 22.6 48.9 19.5 48.8 16.4C48.8 14.6 48.7 12.7 48.5 10.9C48.5 10.9 48.5 10.7 48.3 10.7C52 9.89998 52.5 5.69998 52.6 3.69998C52.7 3.69998 52.8 3.70002 52.9 3.50002C53.2 3.20002 53.3 2.70005 52.9 2.40005C52.6 2.10005 52.1 2.10005 51.8 2.40005C51.5 2.70005 51.4 3.20002 51.8 3.50002C51.8 3.50002 52 3.59998 52.1 3.69998C52.1 5.39998 51.7 8.50007 49.4 9.80007C50.2 8.20007 50.3 5.00005 50.4 3.40005C50.5 3.40005 50.6 3.39998 50.7 3.19998C51 2.89998 51.1 2.4 50.7 2.1C50.4 1.8 49.9 1.8 49.6 2.1C49.3 2.4 49.2 2.89998 49.6 3.19998C49.6 3.19998 49.8 3.30005 49.8 3.40005C49.8 6.30005 49.3 9.89998 48.4 10.2C48.4 10.2 48.4 10.2 48.3 10.2C48.1 10.2 47.9 10.2 47.7 10C46.8 9.00002 46.9 5.40005 47.1 3.40005C47.1 3.40005 47.3 3.40007 47.3 3.30007C47.6 3.00007 47.7 2.49998 47.3 2.19998C47 1.89998 46.5 1.89998 46.2 2.19998C45.9 2.49998 45.8 3.00007 46.2 3.30007C46.2 3.30007 46.4 3.50002 46.5 3.50002C46.4 5.20002 46.2 9.00007 47.2 10.3001C46.8 10.3001 46.5 10.1001 46.2 9.80007C44.6 8.40007 44.4 4.79998 44.4 3.19998C44.4 3.19998 44.5 3.2 44.6 3.1C44.9 2.8 45 2.30002 44.6 2.00002C44.3 1.70002 43.8 1.70002 43.5 2.00002C43.2 2.30002 43.1 2.8 43.5 3.1C43.6 3.2 43.7 3.30007 43.9 3.30007C43.9 5.00007 44.1 8.69998 45.9 10.2C46.4 10.6 46.9 10.8 47.6 10.9C47.9 15.4 48 19.9 47.8 24.4C47.8 25.8 47.6 27.3 47.4 28.7C47.2 30 46.8 31.2 46.5 32.4C45.8 35.6 45.4 38.8 45 42C44.9 43.2 44.7 44.3 44.6 45.5C44.6 42.4 44.6 39.3 44.8 36.2C44.8 34.7 44.9 33.1 45.1 31.6C45.2 30.2 45.4 28.7001 45.5 27.3001C45.7 24.0001 45 20.7 44 17.6C43.4 15.7 42.8 13.8 41.9 12C41.9 12 41.9 12 41.7 11.9C42.2 11.6 42.6 11.1 42.8 10.5C43.4 8.50002 41.8 5.60005 41.1 4.40005C41.1 4.40005 41.2 4.2 41.2 4.1C41.2 3.7 41 3.40007 40.6 3.30007C40.2 3.30007 39.9 3.50005 39.8 3.90005C39.7 4.30005 40 4.59998 40.4 4.69998H40.5C41.2 5.79998 42.7 8.60005 42.1 10.4C42.1 10.7 41.9 10.9 41.7 11.1C41.7 9.6 40 7.00005 39.2 5.90005C39.2 5.90005 39.3 5.7 39.3 5.6C39.3 5.2 39.1 4.90007 38.7 4.80007C38.3 4.80007 38 5.00005 37.9 5.40005C37.8 5.80005 38.1 6.09998 38.5 6.19998H38.7C39.7 7.59998 41.4 10.2001 41.1 11.3001C41.1 11.5001 41 11.6 40.8 11.7C40.8 11.7 40.8 11.7 40.7 11.7C40 11.7 38.3 9.70005 36.8 7.40005C36.8 7.40005 36.8 7.29998 36.8 7.19998C36.8 6.79998 36.6 6.50005 36.2 6.40005C35.8 6.40005 35.5 6.60002 35.4 7.00002C35.3 7.40002 35.6 7.70007 36 7.80007H36.2C37 9.00007 38.4 11.1 39.6 12C37.5 12.1 35.9 10 35.2 8.90005C35.2 8.90005 35.2 8.79998 35.2 8.69998C35.2 8.29998 35 8.00005 34.6 7.90005C34.2 7.90005 33.9 8.10002 33.8 8.50002C33.7 8.90002 34 9.20007 34.4 9.30007H34.6C35.4 10.5001 37 12.7 39.2 12.7C41.4 12.7 39.9 12.7 40.3 12.5C40.9 13.9 41.5 15.4001 42 16.8001C43 19.9001 43.8 23.2 43.8 26.5C43.8 28 43.6 29.4 43.4 30.9C43.3 32.3 43.2 33.8 43.1 35.2C43.1 36.9 43 38.5 42.9 40.2C42.4 37.7 41.7 35.3 41 32.9C39.7 28.8 38.2 24.9 36.4 21C36.1 20.4 35.9 19.8 35.6 19.2C35.6 19 35.5 18.9 35.4 18.7C35.4 18.7 35.4 18.6 35.4 18.5C35.8 18.2 36.2 17.9 36.4 17.4C37.2 15.6 36 12.6 35.5 11.4L35.6 11.2C35.7 10.9 35.6 10.5 35.2 10.4C34.9 10.4 34.5 10.4001 34.4 10.8001C34.3 11.1001 34.4 11.5 34.8 11.6C34.8 11.6 34.8 11.6 34.9 11.6C35.4 12.7 36.5 15.5 35.8 17.2C35.7 17.4 35.6 17.6001 35.4 17.8001C35.5 16.3001 34.3 13.8 33.6 12.6C33.6 12.6 33.7 12.5 33.7 12.4C33.8 12.1 33.7 11.7 33.3 11.6C33 11.6 32.6 11.6 32.5 12C32.4 12.4 32.5 12.7001 32.9 12.8001C32.9 12.8001 32.9 12.8001 33 12.8001C33.8 14.2001 35.1 16.9 34.7 18C34.7 18.2 34.6 18.3001 34.4 18.3001C34.4 18.3001 34.4 18.3001 34.3 18.3001C33.7 18.3001 32.2 16.1 31.1 13.7C31.1 13.7 31.1 13.7 31.1 13.5C31.2 13.2 31.1 12.8 30.7 12.7C30.3 12.6 30 12.7 29.9 13.1C29.8 13.4 29.9 13.8 30.3 13.9C30.3 13.9 30.4 13.9 30.5 13.9C31.1 15.2 32.2 17.3 33.2 18.2C31.2 18.1 30 15.9 29.4 14.7C29.4 14.7 29.4 14.6 29.5 14.5C29.6 14.2 29.5 13.8 29.1 13.7C28.8 13.7 28.4 13.7 28.3 14.1C28.2 14.4 28.3 14.8 28.7 14.9C28.7 14.9 28.8 14.9 28.9 14.9C29.5 16.2 31 18.7 33.3 18.7C33.5 18.7 33.8 18.7 34 18.7C34.2 19.2 34.5 19.8001 34.7 20.3001C35.4 21.9001 36.1 23.6 36.8 25.2C38.7 29.8 40.3 34.5 41.3 39.4C41.7 41.2 41.9 43.1 42.1 44.9C40.3 39.2 37.5 33.8 33.9 29.1C33.6 28.7 33.3 28.3 33 27.9C33.4 27.6 33.8 27.2 33.9 26.7C34.5 25 33.4 22.3 32.9 21.2C32.9 21.2 32.9 21.1 33 21C33 20.7 32.9 20.4001 32.6 20.3001C32.3 20.3001 32 20.4 31.9 20.7C31.9 21 32 21.3 32.3 21.4C32.8 22.4 33.9 24.9 33.3 26.4C33.3 26.6 33.1 26.7 33 26.9C33 25.5 31.8 23.3001 31.2 22.3001C31.2 22.3001 31.2 22.2 31.2 22.1C31.2 21.8 31.1 21.5 30.8 21.4C30.5 21.4 30.2 21.5001 30.1 21.8001C30.1 22.1001 30.2 22.4 30.5 22.5C31.3 23.7 32.5 26.1 32.3 27.1C32.3 27.3 32.2 27.4 32.1 27.4C32.1 27.4 32.1 27.4 32 27.4C31.2 27.2 29.9 25 29.1 23.4C29.1 23.4 29.1 23.4001 29.1 23.3001C29.1 23.0001 29 22.7 28.7 22.6C28.4 22.5 28.1 22.7 28 23C28 23.3 28.1 23.6 28.4 23.7C28.4 23.7 28.5 23.7 28.6 23.7C29.1 24.7 30.2 26.6 31.2 27.5C29.5 27.5 28.3 25.5 27.8 24.5C27.8 24.5 27.8 24.5 27.8 24.4C27.8 24.1 27.7 23.8 27.4 23.7C27.1 23.6 26.8 23.8 26.7 24.1C26.7 24.4 26.8 24.7001 27.1 24.8001C27.1 24.8001 27.2 24.8001 27.3 24.8001C27.9 26.0001 29.3 28.1 31.3 28.1C33.3 28.1 31.8 28.1 32 28.1C35.1 31.7 37.4 36.0001 39.2 40.3001C40 42.2001 40.7 44.1 41.2 46.1C41.2 46.1 41 46.1 41 46.2C36.9 43.1 33.7 38.9 31 34.6C28.5 30.7 26.3 26.6001 24.4 22.3001C24 21.5001 23.7 20.6001 23.3 19.8001C23.8 19.5001 24.2 19 24.4 18.4C25 16.4 23.4 13.5001 22.7 12.3001C22.7 12.3001 22.8 12.1 22.8 12C22.8 11.6 22.6 11.3 22.2 11.2C21.8 11.2 21.5 11.4001 21.4 11.8001C21.3 12.2001 21.6 12.5 22 12.6H22.1C22.8 13.7 24.3 16.5001 23.7 18.3001C23.7 18.6001 23.5 18.8 23.3 19C23.3 17.5 21.6 14.9001 20.8 13.8001C20.8 13.8001 20.9 13.6 20.9 13.5C20.9 13.1 20.7 12.8 20.3 12.7C19.9 12.7 19.6 12.9001 19.5 13.3001C19.4 13.7001 19.7 14 20.1 14.1H20.3C21.3 15.5 23 18.1 22.7 19.2C22.7 19.4 22.6 19.5 22.4 19.6C22.4 19.6 22.4 19.6 22.3 19.6C21.6 19.7 19.9 17.6001 18.4 15.3001C18.4 15.3001 18.4 15.2 18.4 15.1C18.4 14.7 18.2 14.4001 17.8 14.3001C17.4 14.3001 17.1 14.5 17 14.9C16.9 15.3 17.2 15.6 17.6 15.7H17.8C18.6 17 20 19 21.2 19.9C19.1 20 17.5 17.9001 16.8 16.8001C16.8 16.8001 16.8 16.7 16.8 16.6C16.8 16.2 16.6 15.9001 16.2 15.8001C15.8 15.7001 15.5 16 15.4 16.4C15.3 16.8 15.6 17.1 16 17.2H16.2C17 18.4 18.6 20.6 20.9 20.6C23.2 20.6 21.5 20.6 21.8 20.5C22.7 22.9 23.9 25.2 25 27.5C27.5 32.4 30.4 37.2 33.9 41.4C35.6 43.5 37.5 45.4 39.7 46.9L39.5 47.1C30.4 43.3 23.1 35.7 18.2 27.2C17.8 26.5 17.4 25.8 17.1 25.1C17.1 25.1 17 25 16.9 24.9C18.7 22.4 16.6 19.6 15.4 18.4C15.4 18.4 15.4 18.3 15.4 18.2C15.4 17.8 15.2 17.5 14.8 17.5C14.4 17.5 14.1 17.7 14.1 18.1C14.1 18.5 14.3 18.8001 14.7 18.8001H14.9C15.8 19.8001 17.5 21.9001 16.8 23.8001C16.3 22.4001 14.6 20.5 13.6 19.5V19.3001C13.6 18.9001 13.4 18.6 13 18.6C12.6 18.6 12.3 18.8 12.3 19.2C12.3 19.6 12.5 19.9 12.9 19.9C12.9 19.9 13 19.9 13.1 19.9C15.1 22 16.7 24.3001 16.3 24.8001C16.2 24.9001 16 25 15.8 25C14.6 25 12.5 22.7001 11.4 21.3001C11.4 21.3001 11.4 21.3 11.4 21.1C11.4 20.7 11.2 20.4 10.8 20.4C10.4 20.4 10.1 20.6 10.1 21C10.1 21.4 10.3 21.7 10.7 21.7C10.7 21.7 10.9 21.7 11 21.7C11.9 22.8 13.9 25.1 15.4 25.5C15.2 25.6 14.9 25.7 14.6 25.7C12.8 25.7 10.5 23.6 9.59999 22.7C9.59999 22.7 9.59999 22.7 9.59999 22.6C9.59999 22.2 9.39999 21.9 8.99999 21.9C8.59999 21.9 8.3 22.1 8.3 22.5C8.3 22.9 8.49999 23.2 8.89999 23.2C8.99999 23.2 9.09999 23.2 9.19999 23.2C10.2 24.2 12.5 26.4 14.6 26.4C15.2 26.4 15.7 26.2001 16.1 25.8001C17.1 27.8001 18.3 29.7 19.6 31.5C22.7 35.9 26.5 40 30.9 43.2C33.4 45 36.1 46.5 38.9 47.7C37.5 47.4 36.1 47.2 34.7 47.1C33.2 47 31.7 47 30.2 47.1C29.5 47.1 28.8 46.9 28.2 46.7C26.3 45.9 24.6 44.6001 23 43.3001C21.4 42.0001 19.8 40.6 18.3 39.2C17.5 38.4 16.7 37.6001 15.9 36.8001C15.9 36.8001 15.9 36.8001 15.7 36.8001C17.3 34.4001 15.2 31.6 14.1 30.4C14.1 30.4 14.1 30.3 14.1 30.2C14.1 29.8 13.9 29.5 13.5 29.5C13.1 29.5 12.8 29.7 12.8 30.1C12.8 30.5 13 30.8001 13.4 30.8001H13.6C14.5 31.8001 16.2 33.9001 15.5 35.8001C15 34.4001 13.3 32.5 12.3 31.5V31.3001C12.3 30.9001 12.1 30.6 11.7 30.6C11.3 30.6 11 30.8 11 31.2C11 31.6 11.2 31.9 11.6 31.9C11.6 31.9 11.7 31.9 11.8 31.9C13.8 34 15.4 36.3001 15 36.8001C14.9 36.9001 14.7 37 14.5 37C13.3 37 11.2 34.7001 10.1 33.3001C10.1 33.3001 10.1 33.3 10.1 33.1C10.1 32.7 9.89999 32.4 9.49999 32.4C9.09999 32.4 8.8 32.6 8.8 33C8.8 33.4 8.99999 33.7 9.39999 33.7C9.39999 33.7 9.59999 33.7 9.69999 33.7C10.6 34.8 12.6 37.1 14.1 37.5C13.9 37.6 13.6 37.7 13.3 37.7C11.5 37.7 9.2 35.6 8.3 34.7C8.3 34.7 8.3 34.7 8.3 34.6C8.3 34.2 8.09999 33.9 7.69999 33.9C7.29999 33.9 6.99999 34.1 6.99999 34.5C6.99999 34.9 7.19999 35.2 7.59999 35.2C7.69999 35.2 7.79999 35.2 7.89999 35.2C8.89999 36.2 11.2 38.4 13.3 38.4C13.9 38.4 14.5 38.2 15 37.7C17 39.7 19.1 41.7 21.3 43.5C22.9 44.8 24.6 46.1 26.5 47.1C27.2 47.5 28 47.8 28.8 47.9C29.9 48.1 31.1 47.9 32.2 47.9C34.3 47.9 36.4 48.2 38.4 48.7C38.4 48.7 38.3 48.8 38.3 48.9C38.3 48.9 38.2 48.9 38.1 48.9C36.3 49.2 34.5 49.7 32.7 50.4C31.4 50.9 30.1 51.5001 28.7 51.8001C27.6 52.0001 26.5 52.0001 25.5 51.8001C23.6 51.4001 21.9 50.3 20.4 49.1C19.8 48.6 19.2 48.1 18.6 47.5C18.4 47.3 18.1 47.0001 18 46.8001C18 46.7001 17.7 46.6 17.5 46.6C18.5 43.9 15.9 41.8 14.6 40.9C14.6 40.9 14.6 40.8 14.6 40.7C14.6 40.4 14.2 40.1 13.9 40.2C13.6 40.3 13.3 40.6 13.4 40.9C13.4 41.2 13.8 41.5 14.1 41.4C14.1 41.4 14.2 41.4 14.3 41.4C15.4 42.1 17.3 43.6 17.2 45.5C16.4 44.4 14.5 43.0001 13.3 42.3001C13.3 42.3001 13.3 42.2 13.3 42.1C13.3 41.8 12.9 41.5 12.6 41.6C12.3 41.6 12 42.0001 12.1 42.3001C12.1 42.6001 12.5 42.9001 12.8 42.8001C12.8 42.8001 12.8 42.8001 13 42.8001C15.2 44.2001 17.3 46 17 46.5C17 46.7 16.8 46.7001 16.6 46.8001C15.5 47.0001 13.1 45.4 11.8 44.5C11.8 44.5 11.8 44.5 11.8 44.4C11.8 44.1 11.4 43.8 11.1 43.9C10.8 44 10.5 44.3 10.6 44.6C10.6 44.9 11 45.2 11.3 45.1H11.5C12.6 45.9 14.8 47.5 16.3 47.5C16.1 47.6 15.9 47.7001 15.7 47.8001C14 48.3001 11.5 46.9 10.5 46.2C10.5 45.7 10.1 45.5 9.8 45.6C9.5 45.7 9.2 46.0001 9.3 46.3001C9.3 46.6001 9.69999 46.9001 9.99999 46.8001C9.99999 46.8001 10.2 46.8 10.2 46.7C11.1 47.3 13.2 48.4 15 48.4C16.8 48.4 15.6 48.4001 15.9 48.3001C16.5 48.1001 16.9 47.8001 17.2 47.3001C17.3 47.4001 17.4 47.5 17.5 47.6C17.9 48.1 18.4 48.5 18.9 48.9C20.3 50.1 22 51.2 23.8 51.9C25.8 52.7 28.1 52.8 30.2 52.2C31.6 51.8 33 51.1 34.3 50.7C35.3 50.4 36.4 50.0001 37.4 49.8001C37.6 49.8001 37.8 49.8 38 49.7C37.9 49.9 37.8 50.1 37.6 50.4C32.6 53.5 27 55.5 21 55.2C17.6 55 14.1 54.0001 11.1 52.3001C10.6 52.0001 9.99999 51.7001 9.49999 51.3001C9.49999 51.3001 9.29999 51.3001 9.19999 51.3001C10.1 48.6001 7.6 46.6 6.3 45.7C6.3 45.7 6.3 45.6 6.3 45.5C6.3 45.2 5.89999 44.9 5.59999 45C5.29999 45.1 4.99999 45.4 5.09999 45.7C5.09999 46 5.5 46.3 5.8 46.2C5.8 46.2 5.89999 46.2 5.99999 46.2C7.09999 46.9 8.99999 48.4001 8.89999 50.3001C8.09999 49.2001 6.19999 47.8 4.99999 47.1C4.99999 47.1 4.99999 47 4.99999 46.9C4.99999 46.6 4.6 46.3 4.3 46.4C4 46.4 3.7 46.8 3.8 47.1C3.8 47.4 4.19999 47.7 4.49999 47.6C4.49999 47.6 4.49999 47.6 4.69999 47.6C6.89999 49 8.99999 50.8001 8.69999 51.3001C8.69999 51.5001 8.5 51.5 8.3 51.6C7.2 51.8 4.79999 50.2001 3.49999 49.3001C3.49999 49.3001 3.49999 49.3 3.49999 49.2C3.49999 48.9 3.1 48.6 2.8 48.7C2.5 48.8 2.2 49.1 2.3 49.4C2.3 49.7 2.69999 50 2.99999 49.9H3.19999C4.29999 50.7 6.49999 52.3001 7.99999 52.3001C7.79999 52.4001 7.59999 52.5 7.39999 52.6C5.69999 53.1 3.19999 51.7 2.19999 51C2.19999 50.5 1.79999 50.3 1.49999 50.4C1.19999 50.4 0.899992 50.8 0.999992 51.1C0.999992 51.4 1.39999 51.7 1.69999 51.6C1.69999 51.6 1.89999 51.6 1.89999 51.5C2.79999 52.1 4.89999 53.2 6.69999 53.2C8.49999 53.2 7.29999 53.2 7.59999 53.1C8.19999 52.9 8.69999 52.5 8.99999 52C10.6 53.1 12.4 53.9 14.2 54.6C18.7 56.2 23.7 56.4001 28.4 55.3001C31.9 54.5001 35.2 53.1 38.2 51.2C39.2 52 41.4 53.1 43.3 52.5C43.4 54.8 43.5 57.0001 43.7 59.3001C42.9 57.9001 41.3 56 38.7 56.7C38.6 56.7 42 58.3 43.8 60C43.8 61.8 44 63.6 44.1 65.4C44.5 73.7001 45 82.1 45.7 90.4C46.1 94.9 45.8 99.2 45.5 103.7C45.3 107.1 45 110.5 44.7 113.8C43.9 110.9 41.8 104.3 38.3 102.7C38.3 102.7 41.1 113.6 44.6 115.1C44.2 119.5 43.9 123.8 43.5 128.2C42.7 137.7 41.9 147.2 41.3 156.7C41.1 159.6 40.9 162.6 40.8 165.5C39.5 162.7 35.7 154.6 32.2 152.4C32.2 152.4 36.8 163.7 40.8 166.2C40.6 170.9 40.4 175.7 40.5 180.4C40.6 185.8 41.6 191.1 42.1 196.4C42.8 204.9 43.2 213.5 43.5 222C43.8 231 44 239.9 44.1 248.9C44.1 254.2 44.2 259.4 44.3 264.7V265.5C44.3 265.3 45.3 265.1 45.3 264.9C45.3 261.2 45.3 257.5 45.2 253.7C45.1 245.3 44.9 236.8 44.7 228.4C44.5 219.4 44.1 210.4 43.6 201.4C43.4 197.9 43.1 194.4 42.7 190.9C42.4 188.6 41.9 186.3 41.8 183.9C41.3 176.8 41.7 169.6 42.1 162.5C42.3 158.9 42.5 155.3 42.8 151.8C44.7 150.1 51.6 143.6 51.8 139C51.8 139 45.1 145.1 42.9 150.2C43.3 144.9 43.7 139.6 44.1 134.3C44.8 125.5 45.6 116.8 46.3 108C46.7 103 47.3 97.9 47.1 92.9C49 90.5 55.5 81.6 55.9 78.9C56.3 76 49.4 85.2 47.1 92.1C47 89.6 46.6 87 46.5 84.5C46.2 80.1 45.9 75.8 45.7 71.4C45.5 67.8 45.3 64.2 45.1 60.5C48.1 59.6 50.4 54.3001 50.4 54.3001C48.5 54.9001 46 58.3001 45 59.8001C44.9 57.1001 44.7 54.4 44.6 51.7C45.6 51 46.4 50.2 46.9 49.4C53.5 50.3 60.4 50 66.5 47.1C70.1 45.4 73.3 42.8 75.4 39.5C75.7 39 76 38.5 76.3 37.9C76.7 38.2 77.2 38.4 77.7 38.4C78.2 38.4 77.8 38.4 77.9 38.4C79.7 38.2 81.5 35.8 82.3 34.7C82.3 34.7 82.5 34.7 82.6 34.7C82.9 34.7 83.1 34.3 83 33.9L84.9 32.2ZM52.4 26.6C52.4 26.3 52.4 26.0001 52.4 25.8001H52.6C55.4 25.6001 56.2 22.5 56.4 21H56.5C56.6 21 56.7 20.8 56.7 20.7C56.6 22.1 56.4 23.6 56.1 25C55.8 26.4 55.3 27.8 54.7 29.2C54 30.6 53.1 31.8 52.4 33.1C51.2 35.1 50.1 37.1 49 39.1C50.8 35.1 52 30.9 52.4 26.7V26.6Z" fill="#231F20"/>
<path d="M85.2 32C85 31.6 84.6 31.2001 84.1 31.3001C83.6 31.4001 83.5 31.8001 83.4 32.3001C82.9 33.7001 80.8 36.1 79.1 35.6V36.3001C80.5 35.6001 81.4 34.2 82.2 33C82.3 32.8 82.5 32.4 82.7 32.2C82.7 32.2 83.1 32.1 83.2 32C83.5 31.8 83.6 31.3001 83.6 30.9001C83.4 29.9001 82 29.8001 81.7 30.8001C81.7 31.0001 81.7 31.2001 81.7 31.4001C81.7 31.7001 81.3 32.0001 81.2 32.3001C80.7 33.1001 80.2 34 79.5 34.6C79.2 34.9 78.9 35.3001 78.7 34.9001C78.6 34.6001 79.1 33.6001 79.2 33.4001C79.6 32.6001 80 31.4 80.7 30.7C81.2 30.2 82.2 29.6 81.3 28.7C80.9 28.4 80.4 28.3 80 28.7C79.6 29.1 79.8 29.3001 79.6 29.8001C79.5 30.5001 78.8 31.3001 78.4 31.9001C78 32.7001 77.6 33.5 77.4 34.4001H78.1C77.6 33 78 31.7001 78.6 30.4001C78.7 30.2001 78.9 29.9 79 29.7C79.1 29.6 79.4 29.5001 79.5 29.4001C80.1 28.7001 79.4 27.4 78.4 27.7C77.8 27.9 77.9 28.4001 77.8 28.9001C77.7 29.4001 77.2 30 77 30.5C76.3 32.2 76.2 33.9 77.1 35.5V35C76.5 35.4 76.1 36.8 75.6 37.5C74.8 38.6 73.8 39.7 72.8 40.7C70.8 42.6 68.4 44 65.9 45.1C60.5 47.3 54.7 47.5001 49 46.8001L49.3 47.4001C49.6 46.9001 50.5 47 51.1 46.9001C51.9 46.8001 52.8 46.6001 53.6 46.4001C55.1 46 56.6 45.6 58 45C60.9 43.8 63.6 42.2 66 40.2C71.1 36.1 75.1 30.4001 77.6 24.4001L77.1 24.7C79.3 25.5 81.1 23.9 82.3 22.2C82.7 21.7 83 21.2 83.3 20.6C83.5 20.3 83.7 19.6001 83.9 19.4001C84.3 19.0001 85 19 84.9 18.1C84.9 17.4 84.2 16.9 83.5 17.1C82.6 17.3 82.8 18 82.7 18.6C82.7 19.4 81.9 20.4 81.5 21.1C80.7 22.3 79.6 23.8 77.9 23.6L78.1 24.3001C80 23.1001 80.9 20.3 81.6 18.2L81.2 18.5C82.1 18.4 82.9 17.3 82 16.5C81.3 15.8 80.2 16.3 80.1 17.2C80.1 17.8 80.2 18 80 18.6C79.6 19.6 79.2 20.5001 78.7 21.4001C78.5 21.7001 77.5 23.6 77 23C76.6 22.6 77.3 20.9001 77.4 20.4001C77.6 19.5001 77.9 18.1001 78.5 17.3001C78.8 16.9001 79.2 16.8001 79.4 16.4001C79.7 15.5001 78.7 14.5 77.8 15C77.4 15.2 77.2 15.6 77.2 16.1C77.2 16.3 77.3 16.5 77.3 16.7C77.3 17 77.1 17.4 77 17.7C76.4 19.3 75.8 21 75.8 22.7L76.5 22.5C75.6 21.3 75.6 19.8001 75.9 18.4001C76 18.0001 76.1 17.3001 76.3 16.9001C76.5 16.6001 76.7 16.6001 76.9 16.3001C77.9 15.3001 76.3 13.6 75.3 14.6C74.7 15.2 75.2 15.5 75.1 16.1C75.1 16.5 74.8 17.0001 74.7 17.3001C74.6 17.8001 74.5 18.3001 74.4 18.8001C74.1 20.7001 74.6 22.6001 76.1 23.9001V23.4001C75.8 23.7001 75.7 24.3001 75.5 24.8001C75.2 25.5001 74.9 26.2001 74.5 26.9001C73.8 28.3001 73 29.6001 72.1 30.9001C70.5 33.4001 68.6 35.7 66.5 37.7C61.9 42.1 56.1 45.0001 49.7 45.8001L50 46.4001C50 46.3001 50.1 46.2 50.2 46.1C50.2 45.9 50.2 45.7 50.1 45.6C50.1 45.6 50 45.6 49.9 45.6V46.3001C57.1 43.9001 62.6 37.8001 65.5 30.9001H65C66.7 31.9001 68.2 30.9 69.3 29.7C69.9 29 70.3 28.1 70.9 27.5C71.2 27.2 71.7 27.1 71.8 26.6C72 25.4 70.2 24.8 69.9 26.1C69.9 26.3 69.9 26.7 69.9 26.7C69.9 26.8 69.5 27.3 69.3 27.5C68.6 28.6 67.4 30.3 65.9 30.1V30.8001C67.2 30.0001 68 28.6001 68.7 27.3001C68.8 27.1001 68.9 26.6001 69.1 26.4001C69.2 26.3001 69.5 26.3 69.6 26.1C69.9 25.8 69.9 25.4 69.8 25C69.4 24.1 68.1 24.1 67.9 25.2C67.9 25.3 67.9 25.6 67.9 25.7C67.9 25.9 67.5 26.4 67.4 26.6C67 27.4 66.5 28.4 65.9 29C65.7 29.2 65.3 29.7001 65.1 29.4001C65 29.2001 65.3 28.4 65.4 28.1C65.7 27.2 66.1 25.8 66.7 25C67.1 24.5 68.1 23.8001 67.1 22.9001C66.7 22.6001 66.2 22.6001 65.9 22.9001C65.5 23.3001 65.7 23.6 65.7 24.1C65.6 24.8 65 25.6 64.7 26.2C64.3 27 64.1 27.9001 63.9 28.8001H64.6C64 27.4001 64.3 25.7 65 24.5C65.2 24.1 65.7 24 65.9 23.5C66.2 22.5 65 21.6001 64.2 22.4001C63.9 22.8001 64.1 23.2 64 23.6C63.8 24.3 63.4 24.9 63.2 25.7C62.8 27.4 63 28.9001 64.1 30.3001V29.8001C63.7 30.3001 63.5 31.1 63.2 31.7C62.8 32.5 62.3 33.4 61.9 34.2C60.9 35.8 59.8 37.4001 58.6 38.8001C56.1 41.7001 53 44 49.3 45.2L49.7 45.8001C53.8 42.4001 56.5 37.0001 58.9 32.3001C61.5 27.3001 63.8 22.2 65.8 17L65.3 17.3001C67.5 18.1001 69.3 16.5001 70.5 14.8001C70.9 14.3001 71.2 13.8 71.5 13.2C71.7 12.9 71.9 12.2 72.1 12C72.5 11.6 73.2 11.6 73.1 10.7C73.1 9.99998 72.4 9.49998 71.7 9.69998C70.8 9.89998 71 10.6 70.9 11.2C70.9 12 70.1 13 69.7 13.7C68.9 14.9 67.8 16.4 66.1 16.2L66.3 16.9001C68.2 15.7001 69.1 12.9001 69.8 10.8001L69.4 11.1C70.3 11 71.1 9.9 70.2 9.1C69.5 8.4 68.4 8.90008 68.3 9.80008C68.3 10.4001 68.4 10.6 68.2 11.2C67.8 12.2 67.4 13.1 66.9 14C66.7 14.3 65.7 16.2 65.2 15.6C64.8 15.2 65.4 13.5 65.6 13C65.8 12.1 66.1 10.6001 66.7 9.90005C67 9.50005 67.4 9.40003 67.6 9.00003C67.9 8.10003 66.9 7.1 66 7.6C65.6 7.8 65.4 8.19998 65.4 8.69998C65.4 8.89998 65.5 9.10008 65.5 9.30008C65.5 9.60008 65.3 10.0001 65.2 10.3001C64.6 11.9001 64 13.6001 64 15.3001L64.7 15.1C63.8 13.9 63.8 12.4 64.1 11C64.2 10.6 64.3 9.90003 64.5 9.50003C64.7 9.20003 64.9 9.20005 65.1 8.90005C66.1 7.90005 64.5 6.19998 63.5 7.19998C62.9 7.79998 63.4 8.09998 63.3 8.69998C63.3 9.09998 63 9.60005 62.9 9.90005C62.8 10.4001 62.7 10.9001 62.6 11.4001C62.3 13.3001 62.8 15.2 64.3 16.5V16C63.7 16.7 63.4 18.1 63 19C62.4 20.6 61.7 22.1 61 23.6C59.8 26.3 58.5 29 57.2 31.7C55.9 34.4 54.5 36.8 52.9 39.2C52.1 40.5 51.2 41.7001 50.3 42.9001C49.9 43.4001 49.5 43.9001 49 44.3001C48.4 44.9001 48.2 44.9001 47.4 44.8001L47.6 45.4001C48.9 42.8001 50.3 40.1 51.7 37.5C53.1 34.9 54.9 32.5001 56.2 29.9001C58.7 25.0001 58.9 18.7001 58.4 13.3001L58.1 13.7C59.7 13.2 60.7 12 61.2 10.5C61.5 9.80003 61.5 9.10008 61.7 8.30008C61.7 7.80008 62.2 7.50005 62.1 6.90005C62 5.70005 60.2 6 60.1 7.1C60.1 7.4 60.3 7.50008 60.3 7.80008C60.3 8.00008 60.3 8.4 60.3 8.6C60.1 9.9 59.6 11.2 58.5 12L59.1 12.4001C59.4 11.6001 59.6 10.7001 59.7 9.80008C59.7 9.20008 59.7 8.10003 59.9 7.50003C60.1 7.10003 60.5 6.90005 60.3 6.40005C60.2 6.00005 59.7 5.70008 59.2 5.80008C58 6.00008 58.5 7.10008 58.6 7.80008C58.7 8.80008 58.4 10.1 58.2 11.1C58.2 11.3 58 12.4001 57.6 12.3001C57.4 12.3001 57.3 11.4 57.3 11.2C57.2 10.3 57.3 9.4 57.3 8.6C57.3 8.4 57.3 7.89998 57.3 7.69998L57.6 7.30008C58 6.30008 56.9 5.59998 56.1 6.19998C55.8 6.39998 55.6 6.89998 55.7 7.19998C55.7 7.39998 56 7.59998 56 7.69998C56 7.89998 56 8.39998 56 8.69998C56 10.1 55.8 11.8 56.5 13.1L56.9 12.5C55.6 12 55.4 10.3 55.3 9.19998C55.3 8.59998 55.2 7.80003 55.3 7.50003C55.5 7.00003 55.8 6.6 55.3 6.1C54.8 5.7 54.1 5.90005 53.8 6.40005C53.4 7.00005 53.8 7.19998 54 7.69998C54.2 8.39998 54 9.3 54.2 10.1C54.5 11.8 55.1 13.6001 57 13.9001L56.7 13.5C56.9 15.9 56.9 18.2 56.7 20.6H57.4C57 19.5 55.5 19.7001 55.5 20.8001C55.5 21.0001 55.7 21.2001 55.7 21.3001C55.7 21.3001 55.6 21.9 55.5 22C55.2 23.2 54.6 24.2001 53.6 24.8001L54.1 25.3001C54.5 24.6001 54.7 23.9 54.9 23.2C55.1 22.5 55.1 21.6001 55.4 20.9001C55.6 20.5001 55.9 20.4 55.8 20C55.8 19.6 55.4 19.2 54.9 19.2C54.5 19.2 54.2 19.4 54 19.7C53.7 20.2 54 20.3 54 20.7C54 21.5 53.5 22.8 53.3 23.5C53.1 24.1 52.6 25.7 52.5 24.2C52.5 23.3 52.5 22.4 52.7 21.6C52.7 21.3 52.7 20.9 52.9 20.6C52.9 20.5 53.1 20.3 53.2 20.1C53.5 19.3 52.8 18.4001 51.9 18.9001C51 19.4001 51.6 20.2 51.4 21C51.1 22.4 50.9 23.9 51.4 25.2L52 24.8001C50.7 24.0001 50.8 21.6001 51 20.3001C51 20.0001 51 20.3 51 20.1C51 20 51.2 19.9 51.3 19.7C51.4 19.4 51.3 19.0001 51.2 18.8001C50.7 18.1001 49.6 18.6001 49.5 19.4001C49.5 19.7001 49.7 19.9 49.7 20.2C49.7 20.8 49.6 21.5 49.6 22.1C49.6 23.2 49.8 24.4001 50.4 25.3001C50.5 25.5001 50.9 25.7001 51 25.9001C51.2 26.3001 51.1 26.8 51 27.2C50.9 28.4 50.7 29.5 50.4 30.7C49.5 34.8 48 38.7001 46 42.4001L46.7 42.6C47 39.7 47.4 36.8001 47.9 33.9001C48.4 31.0001 49.2 28.4 49.5 25.6C49.8 22.8 49.8 19.8001 49.7 16.8001C49.7 15.4001 49.7 13.9 49.6 12.5C49.6 11.6 49.8 10.3 49.2 9.50003L49 10.1C51 9.6 52.3 8.20008 53 6.30008C53.3 5.40008 53.5 4.5 53.5 3.6C53.5 3.4 53.5 3.20003 53.5 3.00003C53.5 2.90003 53.7 2.90008 53.7 2.80008C53.9 2.40008 54.1 2.19998 54 1.69998C53.6 0.0999795 51.2 1.00003 51.8 2.50003C51.9 2.80003 52.1 2.89998 52.2 3.19998C52.3 3.69998 52.1 4.40005 52 4.90005C51.7 6.30005 51 7.70005 49.7 8.40005L50.2 8.90005C50.8 7.50005 51 6 51.1 4.6C51.1 3.9 51.1 3.00005 51.3 2.40005C51.5 2.00005 51.8 1.79998 51.7 1.19998C51.5 0.29998 50.4 0.0999795 49.8 0.699979C49.5 0.999979 49.4 1.50005 49.5 1.90005C49.5 2.10005 49.7 2.20005 49.8 2.40005C50 2.80005 49.8 3.30008 49.8 3.80008C49.8 4.80008 49.7 5.80008 49.5 6.80008C49.4 7.40008 49.1 9.40008 48.3 8.30008C47.9 7.70008 47.9 6.60005 47.9 5.90005C47.9 5.10005 47.9 4.30005 47.9 3.40005C47.9 2.60005 48.1 2.7 48.4 2.1C48.6 1.7 48.5 1.20008 48.2 0.800077C47.5 0.100077 46.3 0.600028 46.2 1.50003C46.2 2.10003 46.6 2.2 46.7 2.6C46.9 3.2 46.6 4.20005 46.6 4.90005C46.6 6.40005 46.6 8.10005 47.5 9.40005L47.9 8.80008C46.3 8.40008 45.9 6.59998 45.6 5.19998C45.5 4.39998 45.2 3.10008 45.5 2.30008C45.7 1.70008 46.2 1.2 45.5 0.600004C44.9 0.100004 44 0.300028 43.7 1.00003C43.3 1.80003 44 2.09998 44.1 2.69998C44.4 3.59998 44.2 4.90005 44.4 5.90005C44.8 8.00005 45.8 10.0001 48.1 10.3001L47.7 9.90005C48.1 15.7001 48.5 21.9 47.5 27.6C47 30.4 46.2 33.1001 45.8 35.8001C45.4 38.5001 45 41.6 44.7 44.5H45.5C45.5 41.4 45.5 38.3 45.7 35.2C45.9 32.1 46.3 29.1 46.4 26.1C46.5 23.3 46 20.5001 45.2 17.8001C44.8 16.4001 44.3 15 43.8 13.6C43.5 12.7 43.2 11.3 42.4 10.7V11.4001C44 10.2001 44 8.3 43.4 6.6C43.1 5.6 42.5 4.80008 42.2 3.80008C42 3.30008 42.2 2.70005 41.8 2.40005C40.7 1.50005 39.4 3.2 40.5 4.1C40.8 4.3 40.9 4.30005 41 4.40005C41.3 4.70005 41.5 5.3 41.7 5.6C42.3 6.9 43 8.70003 42.1 10L42.8 10.2C42.8 8.59998 41.7 7.09998 40.9 5.69998C40.8 5.49998 40.5 5.20003 40.4 5.00003C40.4 4.80003 40.4 4.60005 40.4 4.40005C40.3 4.00005 40 3.6 39.5 3.6C38.5 3.5 37.9 4.90003 38.8 5.50003C38.9 5.60003 39.2 5.69998 39.3 5.69998C39.5 5.89998 39.7 6.30003 39.9 6.50003C40.5 7.40003 41 8.29998 41.4 9.19998C41.5 9.49998 41.9 10.3001 41.4 10.3001C41.2 10.3001 40.5 9.50005 40.4 9.40005C39.7 8.60005 38.8 7.59998 38.4 6.69998C38.2 6.19998 38.4 5.70008 37.8 5.30008C37.4 5.00008 36.8 5.00008 36.5 5.30008C36.2 5.60008 36.1 6.10003 36.3 6.50003C36.5 7.00003 36.9 6.89998 37.2 7.19998C37.8 7.69998 38.3 8.80005 38.8 9.40005C39.3 10.1001 39.9 10.7 40.6 11.2L40.8 10.5C39.5 10.5 38.5 9.80008 37.6 8.80008C37.3 8.50008 36.9 8.09998 36.8 7.69998C36.8 7.49998 36.8 7.30003 36.8 7.00003C36.3 5.80003 34.5 6.39998 34.8 7.69998C35 8.29998 35.3 8.20003 35.7 8.50003C36.3 8.90003 36.6 9.80008 37.2 10.3001C38.5 11.5001 40 12.1 41.7 11.7L41.3 11.5C43.2 15.8 44.7 20.6001 44.7 25.4001C44.7 27.7001 44.3 30 44.1 32.2C43.9 34.4 43.9 36.8 43.8 39.1H44.5C43 31.4 40.1 24.2 36.8 17.2V17.7C38.2 16.6 38.3 14.7001 37.9 12.9001C37.7 12.0001 37.1 11.1001 37 10.3001C37 9.80008 37.2 9.5 36.8 9.1C35.8 8.3 34.5 9.7 35.4 10.6C35.5 10.7 35.7 10.7001 35.8 10.8001C36.1 11.2001 36.2 11.8 36.3 12.2C36.7 13.4 37.2 15.1 36.3 16.2L36.9 16.5C36.9 15 36.3 13.5 35.6 12.1C35.5 11.8 35.2 11.5 35.2 11.2C35.2 11 35.2 10.8 35.2 10.7C35.2 10.3 34.8 9.90005 34.4 9.90005C33.5 9.70005 32.8 10.9 33.5 11.6C33.6 11.8 33.9 11.8001 34.1 11.9001C34.1 11.9001 34.4 12.7001 34.5 12.9001C34.9 13.7001 35.3 14.6 35.5 15.5C35.5 15.7 35.6 16.0001 35.6 16.3001C35.6 16.8001 35.4 16.8 35.2 16.5C34.9 16.4 34.6 15.8 34.5 15.6C34 14.8 33 13.6 32.8 12.7C32.8 12.3 33 12 32.6 11.6C32.3 11.3 31.9 11.2001 31.5 11.4001C31 11.6001 30.7 12.1 30.9 12.6C31 13.1 31.4 13.0001 31.7 13.3001C32.1 13.7001 32.5 14.9001 32.8 15.4001C33.3 16.2001 33.8 16.9 34.4 17.5L34.7 16.9001C33.4 16.7001 32.5 15.8 31.8 14.7C31.6 14.5 31.4 14.1001 31.3 13.8001C31.3 13.6001 31.4 13.4 31.3 13.2C31 12 29.1 12.4 29.3 13.6C29.4 14.1 29.8 14.2001 30.1 14.4001C30.6 14.9001 30.9 15.7001 31.3 16.3001C32.4 17.6001 33.8 18.4 35.5 18.1L35.1 17.9001C38.8 26.1001 42.5 34.9 43.2 44H43.9C42.9 40.7 41.6 37.5 39.9 34.5C39.1 33 38.2 31.6 37.3 30.2C36.8 29.4 36.2 28.7 35.7 28C35.4 27.6 35.1 27 34.6 26.7V27.4001C36.1 26.3001 36.1 24.5001 35.6 22.8001C35.4 22.0001 34.8 21.2001 34.7 20.4001C34.7 20.0001 34.9 19.6001 34.4 19.3001C33.5 18.6001 32.3 19.9 33.1 20.7C33.2 20.8 33.6 21 33.6 21C33.7 21.2 34 22.0001 34.1 22.3001C34.5 23.4001 34.9 24.9001 34.1 25.9001L34.8 26.1C34.8 24.5 33.9 23.3001 33.3 21.9001C33 21.3001 33.1 20 32 20.2C31.1 20.4 31.1 21.3001 31.6 21.9001C31.7 22.0001 32 22 32 22.1C32 22.1 32.3 22.9 32.4 23C32.8 23.8 33.3 24.6 33.4 25.5C33.4 25.8 33.5 26.0001 33.4 26.3001C33.3 26.3001 33.1 26.1 33 26C32.6 25.8 32.4 25.2001 32.1 24.9001C31.8 24.4001 30.9 23.4001 30.8 22.8001C30.7 22.4001 31 22.2001 30.6 21.8001C30.3 21.5001 29.9 21.5 29.6 21.6C29.2 21.8 28.9 22.2 29 22.7C29 23.2 29.4 23.2 29.7 23.5C30 23.8 30.3 24.6 30.7 25.1C31.2 25.9 31.7 26.6 32.3 27.2L32.6 26.6C31.2 26.4 30 25.0001 29.6 23.8001C29.5 23.4001 29.6 23.0001 29 22.8001C28.7 22.7001 28.3 22.8 28.1 23C27.3 23.7 28 24.2 28.5 24.7C29.2 25.4 29.7 26.6001 30.6 27.3001C31.1 27.7001 31.7 27.9 32.3 28C33.2 28.1 33.3 28 33.9 28.7C35.2 30.4 36.4 32.1 37.4 34C39.5 37.7 41.2 41.6 42.3 45.7L42.5 45.3001C42.2 45.5001 39.9 43.1001 39.7 42.8001C38.8 41.9001 37.9 40.9 37.1 40C35.4 38 34 35.8 32.6 33.6C29.7 29.1 27.2 24.3001 25.3 19.3001L25.1 19.7C26.7 18.5 26.7 16.6001 26.1 14.8001C25.8 13.8001 25.2 13 24.9 12C24.7 11.5 24.9 10.9 24.5 10.6C23.4 9.7 22.1 11.4001 23.2 12.3001C23.5 12.5001 23.6 12.5 23.7 12.6C24 12.9 24.2 13.5001 24.4 13.8001C25 15.1001 25.7 16.9 24.8 18.2L25.5 18.4001C25.5 16.8001 24.4 15.3001 23.6 13.9001C23.5 13.7001 23.2 13.4 23.1 13.2C23.1 13 23.1 12.8 23.1 12.6C23 12.2 22.7 11.8001 22.2 11.8001C21.2 11.7001 20.6 13.1 21.5 13.7C21.6 13.8 21.9 13.9001 22 13.9001C22.2 14.1001 22.4 14.5 22.6 14.7C23.2 15.6 23.7 16.5001 24.1 17.4001C24.2 17.7001 24.6 18.5 24.1 18.5C23.9 18.5 23.2 17.7 23.1 17.6C22.4 16.8 21.5 15.8001 21.1 14.9001C20.9 14.4001 21.1 13.9 20.5 13.5C20.1 13.2 19.5 13.2 19.2 13.5C18.9 13.8 18.8 14.3 19 14.7C19.2 15.2 19.6 15.1001 19.9 15.4001C20.5 15.9001 21 17 21.5 17.6C22 18.3 22.6 18.9001 23.3 19.4001L23.5 18.7C22.3 18.7 21.3 18 20.4 17.1C20.1 16.8 19.6 16.3001 19.5 15.9001C19.5 15.7001 19.5 15.5 19.5 15.2C19.1 14 17.2 14.6001 17.5 15.8001C17.6 16.4001 18 16.3 18.4 16.6C18.9 16.9 19.2 17.7 19.6 18.2C20.9 19.5 22.4 20.3001 24.2 19.9001L23.7 19.6C25.8 24.7 28.3 29.6001 31.3 34.3001C34.3 39.0001 37.5 43.1001 41.8 46.3001V45.7L41.5 45.9001H41.9C36.8 43.7001 32.4 40.4 28.5 36.5C26.6 34.5 24.8 32.4 23.2 30.1C22.4 29 21.7 27.9001 21.1 26.8001C20.5 25.9001 20.1 24.4 19.2 23.7V24.2C20.3 22.7 20.2 21.0001 19.4 19.4001C19 18.7001 18.4 18.1 18 17.5C17.8 17.1 18 16.6001 17.4 16.3001C16.5 15.7001 15.4 16.8 16 17.7C16.2 18 16.4 18 16.7 18.2C17.1 18.4 17.3 18.6 17.5 19C18.3 20.1 18.9 21.4001 18.6 22.8001H19.3C19 22.0001 18.5 21.3 18 20.6C17.5 19.9 16.6 19.3 16.2 18.5C16 18.1 16.2 17.7001 15.7 17.4001C15.4 17.2001 14.9 17.2001 14.6 17.4001C13.1 18.4001 15.2 19.3001 15.7 19.9001C16.4 20.7001 17.1 21.6 17.7 22.5C18.2 23.3 18.6 24.1001 17.3 23.4001C16.2 22.8001 14.5 21.3 14.1 20.2C13.9 19.7 13.8 19.2 13.1 19.2C12.6 19.2 12.1 19.6 12 20.1C12 20.5 12.1 20.9 12.5 21.1C12.7 21.2 13 21.1001 13.1 21.3001C13.4 21.4001 13.6 21.8 13.8 22C14.9 23.2 16.1 24.5 17.6 25V24.3001C16.3 24.7001 15.1 24.0001 14 23.3001C13.4 22.9001 12.4 22.1 12.2 21.7C12 21.2 11.9 20.6 11.1 20.7C10.4 20.7 9.99999 21.3001 10.1 21.9001C10.2 22.6001 10.7 22.5 11.2 22.7C11.9 23.1 12.6 23.9001 13.3 24.4001C14.9 25.5001 16.8 26.3 18.5 25.2H18C22.9 34.6 31.1 42.9 41 47.1V46.5C41 46.4 39.5 46.1 39.4 46.1C39 46.1 38.7 46 38.4 45.9001C37.3 45.7001 36.1 45.7 35 45.6C33.9 45.5 32.5 45.8 31.4 45.6C30.3 45.4 29.2 44.6001 28.2 43.9001C26.3 42.7001 24.6 41.2 22.9 39.7C22.1 38.9 21.3 38.2001 20.5 37.4001C19.9 36.8001 19.2 35.8001 18.4 35.4001V35.9001C19.4 34.4001 19.2 32.7 18.4 31.2C18 30.5 17.3 29.9001 17 29.3001C16.8 28.9001 17 28.5 16.5 28.2C15.5 27.6 14.4 28.9001 15.2 29.8001C15.4 30.0001 15.6 30 15.9 30.1C16.2 30.3 16.4 30.5001 16.7 30.9001C17.5 32.0001 18.1 33.3 17.8 34.7H18.5C18.2 33.9 17.7 33.2 17.2 32.5C16.7 31.8 15.8 31.2001 15.4 30.4001C15.2 30.0001 15.4 29.6001 14.9 29.3001C14.6 29.1001 14.1 29.1001 13.8 29.3001C12.3 30.3001 14.4 31.2001 14.9 31.8001C15.6 32.6001 16.3 33.5 16.9 34.4001C17.4 35.2001 17.8 36.0001 16.5 35.3001C15.4 34.7001 13.7 33.2 13.3 32.1C13.1 31.6 13 31.1 12.3 31.1C11.8 31.1 11.3 31.5 11.2 32C11.2 32.4 11.3 32.8 11.7 33C11.9 33.1 12.2 33 12.3 33.2C12.6 33.3 12.8 33.7001 13 33.9001C14.1 35.1001 15.3 36.4001 16.8 36.9001V36.2C15.5 36.6 14.3 35.9 13.2 35.2C12.6 34.8 11.6 34 11.4 33.5C11.1 32.9 10.8 32.2 9.99999 32.6C9.49999 32.8 9.19999 33.5 9.39999 34C9.59999 34.5 10.3 34.5001 10.7 34.8001C11.5 35.3001 12.2 36.1 13 36.7C14.6 37.7 16.4 38.2 18 37H17.5C20.6 40.2 24 43.4 27.9 45.7C29.7 46.8 31.4 47.3 33.5 47.2C36.1 47 38.6 47.4001 41.1 47.9001L40.9 47.3001C40.8 47.5001 40.1 47.5 39.9 47.5C39.4 47.6 38.8 47.7001 38.3 47.9001C37.4 48.1001 36.5 48.4 35.6 48.7C33.7 49.4 31.8 50.4001 29.7 50.3001C27.6 50.2001 25.7 49.2 24.1 48C23.2 47.4 22.4 46.7001 21.7 45.9001C21.2 45.4001 21 45.0001 20.4 44.8001L20.7 45.3001C21.2 43.7001 20.7 42.3 19.7 41C19.2 40.4 18.5 40 18 39.4001C17.7 39.1001 17.6 38.6001 17.2 38.4001C16.2 38 15.4 39.4 16.2 40.1C16.5 40.4 16.6 40.2001 17 40.4001C17.3 40.5 17.5 40.6001 17.8 40.9001C18.8 41.7001 19.7 42.7 19.7 44.1L20.4 43.9001C19.9 43.2001 19.2 42.6 18.5 42.1C17.9 41.7 17.1 41.3001 16.6 40.8001C16.4 40.5001 16.4 40.1001 15.9 39.9001C15.5 39.7001 15.1 39.9 14.8 40.1C14.5 40.4 14.5 41 14.8 41.4001C15.1 41.8001 15.4 41.7001 15.8 41.8001C16.8 42.1001 17.9 43.2001 18.6 43.9001C19 44.3001 20 45.1001 18.8 44.9001C17.5 44.7001 15.7 43.5 15 42.7C14.7 42.3 14.6 41.9 13.9 42C13.5 42 13.2 42.3 13.1 42.7C12.7 44 14.3 43.9001 14.9 44.4001C16.2 45.3001 17.6 46.2001 19.2 46.3001L19 45.6C17.8 46.4 16.2 45.7 15.1 45.2C14.7 45 14.3 44.8 14 44.6C13.6 44.3 14 44.6 13.7 44.2C13.3 43.8 13 43.5001 12.4 43.8001C11.9 44.0001 11.7 44.6 12 45.1C12.3 45.7 12.7 45.5 13.2 45.6C14 45.8 14.8 46.5001 15.6 46.8001C17.3 47.5001 19.3 47.6 20.5 46H19.9C22.5 48.7 25.6 51 29.4 51.4001C33.5 51.8001 37.1 49.3 41 48.5L40.6 47.9001C40.4 48.2001 40.1 48.6 40.3 49V48.5C36.2 51.1 31.5 53.0001 26.5 53.3001C24 53.4001 21.4 53.1001 19 52.4001C17.7 52 16.4 51.5 15.2 50.9001C14.3 50.4001 13.4 49.6001 12.4 49.3001L12.7 49.8001C13.2 48.2001 12.7 46.8 11.7 45.6C11.2 45 10.5 44.6 9.99999 44.1C9.69999 43.8 9.59999 43.3 9.19999 43.1C8.19999 42.7 7.39999 44.1001 8.19999 44.8001C8.49999 45.1001 8.59999 44.9 8.99999 45.1C9.29999 45.2 9.5 45.3 9.8 45.6C10.8 46.4 11.7 47.4001 11.7 48.8001L12.4 48.6C11.9 47.9 11.2 47.3001 10.5 46.8001C9.89999 46.4001 9.09999 46 8.59999 45.5C8.39999 45.2 8.39999 44.8 7.89999 44.6C7.49999 44.4 7.1 44.6001 6.8 44.8001C6.5 45.1001 6.5 45.7 6.8 46.1C7.1 46.5 7.4 46.4 7.8 46.5C8.8 46.8 9.89999 47.9 10.6 48.6C11 49 12 49.8 10.8 49.6C9.5 49.4 7.69999 48.2001 6.99999 47.4001C6.69999 47 6.59999 46.6 5.89999 46.7C5.49999 46.7 5.19999 47 5.09999 47.4001C4.69999 48.7001 6.29999 48.6 6.89999 49.1C8.19999 50 9.59999 50.9 11.2 51L11 50.3001C9.79999 51.1001 8.19999 50.4001 7.09999 49.9001C6.69999 49.7001 6.29999 49.5001 5.99999 49.3001C5.59999 49.0001 5.99999 49.3001 5.69999 48.9001C5.29999 48.5 4.99999 48.2 4.39999 48.5C3.89999 48.7 3.69999 49.3001 3.99999 49.8001C4.29999 50.4001 4.69999 50.2001 5.19999 50.3001C5.99999 50.5001 6.79999 51.2 7.59999 51.5C9.39999 52.2 11.4 52.3 12.6 50.6H12.1C17.3 54.4 24.4 55.4001 30.6 54.3001C33.8 53.7001 36.8 52.6 39.7 51.1C40.1 50.9 41.1 50.1 41.6 50.1C42 50.1 42.7 50.8001 43.2 50.9001C44.4 51.4001 45.6 51.6 46.8 51.2L46.3 50.8001C46.4 53.1001 46.5 55.3 46.7 57.6L47.4 57.4001C46.2 55.4001 44.4 54.1 42 54.6C41.8 54.6 41.7 54.9 41.7 55.1C41.7 55.3 42.1 55.5 42.3 55.6C43 56 43.7 56.3 44.3 56.7C45.1 57.2 46.4 57.8001 46.8 58.8001C47 59.3001 46.8 60.2001 46.9 60.8001C46.9 61.5001 46.9 62.1001 47 62.8001C47.3 68.3001 47.6 73.9001 47.9 79.4001C48.2 84.9001 49 90.4001 48.8 95.9001C48.6 101.4 48.1 106.8 47.7 112.2H48.4C47.4 108.2 45.8 102.7 41.8 100.7C41.5 100.6 41.2 100.7 41.2 101.1C41.7 103 42.3 104.8 43 106.6C43.9 108.9 45 111.8 47.1 113.4C47.3 113.6 47.5 113.6 47.5 113.8C47.6 114.2 47.4 115.3 47.3 115.7C47.2 117.1 47.1 118.6 46.9 120C46.7 122.7 46.4 125.4 46.2 128.1C45.7 133.7 45.3 139.3 44.8 144.9C44.3 151.2 43.9 157.5 43.6 163.9L44.3 163.7C43.2 161.3 42 158.9 40.6 156.6C39.2 154.3 37.7 151.9 35.5 150.5C35.2 150.3 34.8 150.6 34.9 150.9C36.4 154.5 38.1 158 40.3 161.2C40.9 162.1 41.6 163.1 42.4 163.9C42.7 164.2 43.2 164.5 43.4 164.8C43.7 165.4 43.4 167 43.4 167.7C43.2 172.1 43.1 176.5 43.4 180.9C43.7 185.3 44.4 189.6 44.8 193.9C45.2 198.2 45.5 202.8 45.7 207.2C46.1 216.1 46.4 225 46.6 234C46.8 244 47 254 47 264C47 264.3 47.4 264.5 47.6 264.3C47.9 264 48.4 264.1 48.6 263.7C49 263.1 48.6 261.7 48.6 261C48.6 258.6 48.6 256.3 48.6 253.9C48.6 249.1 48.5 244.3 48.4 239.5C48.2 229.9 48 220.3 47.5 210.7C47.3 205.9 47 201.1 46.7 196.3C46.5 194 46.3 191.6 46 189.3C45.7 187 45.2 184.7 45.1 182.3C44.4 172.9 45.1 163.4 45.8 154.1C45.8 153.2 45.7 151.3 46.2 150.6C46.5 150.2 47 149.8 47.4 149.5C48.6 148.3 49.7 147.2 50.8 145.9C52.7 143.6 54.9 140.8 55.1 137.7C55.1 137.4 54.7 137.2 54.5 137.4C51 140.6 47.5 144.4 45.6 148.7L46.3 148.9C47.5 132 49.4 115.1 50.4 98.1C50.4 97.1 50.5 96.1 50.5 95.1C50.5 94.1 50.4 93 50.5 92.1C50.6 91.2 51.5 90.3 52.1 89.6C53.6 87.5 55.1 85.4001 56.5 83.3001C57.5 81.7001 58.7 80 59.2 78.1C59.4 77.3 59.2 76.3001 58.2 76.8001C57.5 77.2001 56.9 78 56.4 78.6C55.5 79.7 54.8 80.8001 54.1 81.9001C52.3 84.6001 50.8 87.5 49.7 90.6H50.4C50.1 85.5 49.5 80.2 49.2 75C48.9 69.8 48.6 64.4 48.3 59.2L48 59.6C50.7 58.7 52.5 55.7001 53.6 53.3001C53.7 53.0001 53.6 52.6 53.2 52.7C50.7 53.6 49 56.3001 47.6 58.4001L48.3 58.6C48.2 56.4 48.1 54.2 47.9 52C47.9 50.7 48 50.7001 48.9 49.8001C49.7 49.1001 49.6 48.6 50.7 48.7C54.6 49 58.3 49.2 62.2 48.5C69.2 47.3 76.2 43.4001 79.6 36.9001H79.1C80.8 38.1001 82.5 37.2 83.8 36C84.4 35.4 84.9 34.4001 85.5 33.9001C86 33.5 86.4 33.6 86.4 32.7C86.4 32.2 85.7 32.2 85.6 32.7C85.6 32.9 85 33.2001 84.9 33.4001C84.5 33.9001 84.2 34.4001 83.7 34.9001C82.6 36.1001 81.1 37.4001 79.4 36.3001C79.2 36.2001 79 36.3001 78.9 36.4001C73.5 46.9001 60.4 49 49.8 47.6C49.7 47.6 49.6 47.6001 49.5 47.8001C49.2 48.2001 48.8 48.7 48.4 49C48.1 49.3 47.4 49.7001 47.3 49.9001C47 50.4001 47.2 51.1 47.3 51.7C47.4 53.9 47.5 56.1001 47.7 58.3001C47.7 58.7001 48.2 58.8 48.4 58.5C49.7 56.6 51.3 53.9 53.5 53.1L53.1 52.5C52.1 54.8 50.5 57.7 48 58.5C47.9 58.5 47.7 58.7001 47.7 58.9001C48 64.2001 48.3 69.5 48.6 74.7C48.9 79.9 49.5 85.2001 49.8 90.4001C49.8 90.8001 50.4 90.9001 50.5 90.4001C51.4 87.7001 52.8 85.2001 54.2 82.8001C55.3 81.0001 56.5 79 58.1 77.5C58.3 77.3 58.5 77.2 58.7 77C58.8 77 58.6 76.8 58.6 77C58.6 77 58.6 77.2001 58.6 77.3001C58.2 78.0001 58 78.9 57.7 79.6C56.6 81.7 55.3 83.6 54 85.5C52.9 87.2 51.7 88.8001 50.5 90.4001C50.3 90.6001 50 90.9 49.9 91.2C49.7 91.8 49.9 92.7001 49.9 93.3001C49.9 95.3001 49.8 97.4001 49.6 99.4001C49 107.1 48.3 114.8 47.7 122.4C47 131.1 46.2 139.9 45.6 148.6C45.6 149 46.2 149.1 46.3 148.8C48.2 144.5 51.7 140.8 55.1 137.6L54.5 137.3C54.3 140.4 51.9 143.2 50 145.4C49.1 146.4 48.1 147.4 47.1 148.4C46.5 149 45.6 149.5 45.5 150.3C45.1 152.5 45.2 154.9 45.1 157.2C45 159.6 44.8 162 44.7 164.3C44.5 168.9 44.3 173.5 44.4 178.1C44.5 182.7 45.4 187.3 45.8 191.9C46.2 196.5 46.5 201.2 46.8 205.9C47.3 215.3 47.6 224.8 47.8 234.2C47.9 239.4 48 244.7 48.1 250C48.1 252.6 48.1 255.1 48.2 257.7C48.2 259.1 48.2 260.4 48.2 261.8C48.2 262.4 48.3 262.9 47.9 263.3C47.7 263.4 47.5 263.4 47.4 263.6L48 263.9C47.9 246.3 47.6 228.6 46.8 211C46.6 206.6 46.4 202.1 46 197.7C45.6 193.3 45.1 189 44.6 184.6C44.1 180.2 44.1 175.8 44.2 171.4C44.2 170.4 44.2 169.4 44.2 168.3C44.2 167.2 44.5 165.9 44.3 164.7C44.3 163.9 43.2 163.4 42.6 162.7C39.6 159.3 37.5 154.7 35.7 150.5L35.1 150.9C37.4 152.4 38.9 155.1 40.3 157.4C41.5 159.5 42.6 161.7 43.6 163.9C43.8 164.3 44.3 164.1 44.3 163.7C45.2 146.8 46.7 130 48.1 113.2C48.1 113.1 48.1 112.9 47.9 112.9C45.5 111.8 44.3 108.2 43.5 105.9C42.9 104.2 42.3 102.4 41.8 100.7L41.2 101.1C44.9 102.9 46.4 108.3 47.4 112C47.5 112.4 48.1 112.3 48.1 112C48.5 107.7 48.8 103.4 49.1 99.1C49.4 94.8 49.2 90.6001 48.9 86.3001C48.2 77.6001 47.8 68.9 47.3 60.2C47.3 59.4 47.4 58.5 47 57.9001C46.6 57.4001 45.8 56.9 45.2 56.6C44.5 56.2 43.8 55.8001 43.1 55.4001C42.9 55.3001 42.6 55.1 42.3 55C42 54.9 42 54.7 42.1 55L41.8 55.5C43.9 55.1 45.4 56.3 46.4 58C46.6 58.3 47.1 58.2001 47.1 57.8001C47 55.5001 46.9 53.3 46.7 51C46.7 50.8 46.5 50.6 46.2 50.6C44.5 51.1 42.8 50.3001 41.4 49.3001C41.3 49.3001 41.1 49.3001 41 49.3001C32.4 54.5001 20.9 56.2 12.2 50.1C12 50 11.8 50.1 11.7 50.2C10.4 52.2 7.59999 50.9 5.89999 50C5.59999 49.8 5.29999 49.6 4.89999 49.5C4.89999 49.5 4.89999 49.7 4.99999 49.7C6.69999 50.7 9.3 52.3 11.3 51C11.6 50.8 11.5 50.3001 11.1 50.3001C9.59999 50.2001 8.29999 49.2001 7.09999 48.4001C6.79999 48.2001 6.59999 47.9001 6.19999 47.9001C6.09999 47.7001 6.29999 47.9001 6.19999 47.9001C6.19999 48 6.49999 48.1 6.59999 48.2C7.39999 48.9 10.7 51.4 11.9 50.1C13 48.9 9.69999 47 9.09999 46.5C8.79999 46.3 8.09999 45.6 7.69999 45.7C7.69999 45.7 7.69999 45.8001 7.89999 45.9001C9.19999 46.9001 10.6 47.6 11.6 49C11.8 49.3 12.3 49.2001 12.3 48.8001C12.3 47.7001 11.9 46.8 11.2 46C10.9 45.7 9.49999 44.2001 8.99999 44.3001C8.99999 44.4001 8.99999 44.5 9.19999 44.5C9.59999 44.8 10.1 45.1 10.5 45.5C11.7 46.6 12.5 48 12 49.6C12 49.8 12 50 12.3 50.1C13 50.3 13.7 50.9001 14.3 51.3001C14.9 51.6001 15.4 51.9 16 52.1C17.1 52.6 18.2 53.0001 19.4 53.3001C21.9 54.0001 24.5 54.2 27.1 54C32 53.7 36.7 51.8 40.9 49.2C41.1 49.1 41.1 48.9 41 48.7C41.2 48.7 41.3 48.7001 41.3 48.4001C41.5 48.1001 41.2 47.8001 40.9 47.8001C39.3 48.1001 37.6 48.6 36.1 49.2C34.2 49.9 32.5 50.7 30.5 50.6C26.5 50.6 23.2 48.1001 20.6 45.4001C20.4 45.2001 20.2 45.3001 20 45.4001C18.8 47 16.4 46.1001 14.9 45.4001C14.5 45.2001 14.1 45 13.6 44.7C13.3 44.5 13.2 44.7001 13.2 44.4001C13.2 44.5 13.2 44.7 13.4 44.7C15.1 45.7 17.7 47.2001 19.6 45.9001C19.9 45.7001 19.8 45.2 19.4 45.2C17.9 45.1 16.6 44.1001 15.4 43.3001C15.1 43.1001 14.9 42.8001 14.5 42.8001C14.4 42.6001 14.6 42.8001 14.5 42.8001C14.5 42.9001 14.8 43 14.9 43.1C15.7 43.8 19 46.3 20.2 45C21.3 43.8 18 41.9001 17.4 41.4001C17.1 41.2001 16.4 40.5 16 40.6C16 40.6 16 40.7001 16.2 40.8001C17.5 41.8001 18.9 42.5 19.9 43.9001C20.1 44.2001 20.6 44.1 20.6 43.7C20.6 42.6 20.2 41.7001 19.5 40.9001C19.2 40.6001 17.8 39.1 17.3 39.2C17.3 39.3 17.3 39.4001 17.5 39.4001C17.9 39.8001 18.4 40 18.8 40.4001C20 41.5 20.8 43 20.2 44.6C20.2 44.8 20.2 45 20.5 45.1C20.9 45.1 21.3 45.7001 21.5 45.9001C21.9 46.3001 22.4 46.8 22.9 47.2C23.6 47.8 24.4 48.4001 25.2 48.9001C26.9 49.9001 28.8 50.6 30.8 50.5C32.9 50.4 34.9 49.3 36.9 48.6C37.9 48.3 39 47.9 40 47.7C40.7 47.5 41.5 47.7 41.9 47C42 46.8 41.9 46.5 41.7 46.4001C39.6 46 37.5 45.6 35.3 45.6C33.1 45.6 32.8 45.9 31.6 45.6C30.5 45.4 29.5 44.8001 28.6 44.3001C24.8 42.0001 21.5 38.8 18.4 35.7C18.2 35.5 18 35.6 17.9 35.7C16.3 37 14.2 35.7 12.8 34.6C12.3 34.2 11.9 33.7001 11.4 33.4001C11.4 33.4001 11.2 33.2 11.1 33.2C10.9 33 10.9 33.4 11 33C11 33.1 11 33.3001 11 33.4001C12.5 34.9001 14.9 37.1001 17.2 36.3001C17.5 36.2001 17.6 35.7 17.2 35.6C15.8 35.2 14.7 33.9001 13.7 32.8001C13.4 32.5001 13.1 32.1001 12.8 31.8001C12.6 31.6001 12.7 32 12.8 31.6C12.8 31.6 12.8 31.8001 12.8 31.9001C13.6 32.9001 14.5 33.9 15.5 34.7C16.1 35.2 17.1 36 17.9 35.6C19.6 34.9 16.7 31.8 16.1 31.2C15.9 30.9 15.2 29.9001 14.8 29.9001C14.8 30.1001 14.9 30.1 15 30.2C15.3 30.8 16 31.3001 16.4 31.8001C17 32.6001 17.6 33.3 18 34.2C18.1 34.5 18.6 34.6 18.7 34.2C19 33.1 18.8 32 18.3 31C18 30.4 17.2 29 16.6 28.7C16.5 28.7 16.4 28.5001 16.6 28.8001C16.8 29.2001 17.3 29.6 17.6 30C18.6 31.5 19.2 33.2001 18.3 34.8001C18.3 35.0001 18.3 35.2001 18.4 35.3001C18.9 35.5001 19.4 36.3 19.8 36.7C20.3 37.1 20.7 37.6 21.2 38C22.1 38.9 23.1 39.7 24 40.6C25.7 42.1 27.5 43.6 29.6 44.7C30.5 45.2 31.5 45.7001 32.5 45.8001C33.7 45.9001 34.9 45.8001 36 45.8001C37.4 45.8001 38.8 46 40.2 46.2C40.6 46.2 41.6 46.7001 42 46.4001C42.2 46.2001 42.1 45.9001 42 45.8001C32.2 41.7001 24.1 33.5 19.3 24.1C19.3 23.9 19 23.9 18.8 24C17.1 25.2 15.2 24.0001 13.8 22.9001C13.3 22.5001 12.9 22 12.4 21.7C12.4 21.7 12.2 21.5 12.1 21.5C11.9 21.3 11.9 21.7001 12 21.3001C12 21.4001 12 21.6 12 21.7C13.5 23.2 15.9 25.4 18.2 24.6C18.5 24.5 18.6 24.0001 18.2 23.9001C16.8 23.5001 15.7 22.2 14.7 21.1C14.4 20.8 14.1 20.4 13.8 20.1C13.6 19.9 13.7 20.3001 13.8 19.9001C13.8 19.9001 13.8 20.1 13.8 20.2C14.6 21.2 15.5 22.2 16.5 23C17.1 23.5 18.1 24.3001 18.9 23.9001C20.6 23.2001 17.7 20.1 17.2 19.5C17 19.2 16.3 18.2 15.9 18.2C15.9 18.4 16 18.4 16.1 18.5C16.4 19.1 17.1 19.6 17.5 20.1C18.1 20.9 18.7 21.6 19.1 22.5C19.2 22.8 19.7 22.9 19.8 22.5C20.1 21.4 19.9 20.3001 19.4 19.3001C19.1 18.7001 18.3 17.2 17.6 17C17.6 17 17.5 17 17.6 17.2C17.9 17.7 18.4 18.1 18.7 18.6C19.7 20.1 20.1 21.8001 19.1 23.4001C19 23.6001 19.1 23.8001 19.2 23.9001C19.7 24.3001 20.1 25.5 20.4 26C20.7 26.6 21.1 27.2001 21.5 27.8001C22.2 28.9001 22.9 30 23.7 31.1C25.3 33.2 26.9 35.2 28.8 37.1C32.6 40.9 37 44 41.9 46.1C42.1 46.1 42.2 46.1 42.3 46.1L42.5 45.9001C42.7 45.7001 42.6 45.5001 42.5 45.3001C38.2 42.1001 34.9 37.7 32 33.2C29.1 28.7 26.7 24 24.8 19.1C24.8 18.9 24.6 18.8001 24.3 18.8001C22.5 19.2001 21 18.2001 19.9 16.8001C19.6 16.5001 19.4 15.9 19 15.6C18.8 15.4 18.8 15.4 18.9 15.6C19.1 16.4 20.2 17.4001 20.8 17.9001C21.6 18.6001 22.6 19 23.6 19C24.6 19 24.1 18.5001 23.8 18.3001C22.4 17.3001 21.7 15.8 20.7 14.5C20.5 14.3 20.3 14 20.3 14C20.2 14.4 20.9 15.2 21.1 15.5C21.5 16.2 24 20.1001 25.1 18.4001C25.6 17.7001 25.1 16.6001 24.7 15.9001C24.2 14.7001 23.5 13.6 22.6 12.5C22.6 12.5 22.4 12.5001 22.3 12.4001C22.6 12.4001 22.3 12.2001 22.4 12.4001C22.5 12.8001 22.8 13.1001 23 13.4001C23.8 14.6001 24.8 16.1 24.9 17.6C24.9 18 25.4 18.1001 25.6 17.8001C27 15.7001 25.4 12.9 24.3 11C24.3 10.9 24.1 10.8001 24 10.8001C24.2 10.8001 24.1 11.0001 24.3 11.3001C24.5 11.8001 24.9 12.3001 25.1 12.8001C25.8 14.4001 26.7 16.8 24.9 18.1C24.8 18.1 24.7 18.4 24.7 18.5C26.8 23.7 29.4 28.7001 32.4 33.4001C35.2 37.8001 38.4 41.9 42.5 45.1C42.6 45.1 42.8 45.1 42.9 45.1H43.1C43.2 44.9 43.3 44.7 43.3 44.6C41.4 38 38.4 31.6001 33.9 26.4001C33.9 26.3001 33.7 26.3001 33.5 26.4001C31.8 26.7001 30.5 25.6 29.7 24.2C29.5 23.9 29.3 23.6001 29.1 23.3001C29.1 23.3001 29 23.3001 28.9 23.3001C29.3 23.4001 28.9 23.0001 29 23.3001C29.4 24.9001 31.1 26.5 32.8 26.7C33.1 26.7 33.3 26.3 33.1 26.1C32.5 25.5 32 24.8 31.6 24.1C31.3 23.6 31 22.9001 30.7 22.4001C30.5 22.2001 30.3 22.1 30.5 22C30.3 22.3 30.6 22.7001 30.8 22.9001C31.2 23.6001 32.9 27.3 34.2 26.5C35.5 25.6 33.5 22.1001 32.9 21.3001C32.8 21.1001 32.8 21.1001 32.6 20.9001C32.3 20.6001 32.6 21.2001 32.6 20.8001C32.6 21.1001 32.6 21.1001 32.7 21.4001C33.3 22.8001 34.3 24 34.4 25.6C34.4 26 34.9 26.1001 35.1 25.8001C36.3 24.1001 35.1 21.6001 34.3 19.9001C34.3 19.8001 34.1 19.7 34 19.7C34.4 19.7 34 19.7 34.2 20C34.5 20.5 34.7 21 34.9 21.5C35.4 22.9 36 25 34.5 26.1C34.3 26.3 34.3 26.6001 34.5 26.8001C35.1 27.2001 35.7 28.3 36.1 29C36.5 29.7 37 30.2001 37.4 30.9001C38.2 32.2001 39 33.5001 39.7 34.8001C41.2 37.6001 42.4 40.5 43.4 43.6C43.5 44 44.2 43.9 44.1 43.6C43.5 34.3 39.7 25.5 36 17.1C36 16.9 35.7 16.9001 35.6 16.9001C33.8 17.2001 32.4 16 31.5 14.5C31.3 14.1 31.1 13.7001 30.8 13.3001C30.8 13.3001 30.6 13.3 30.6 13.2C31 15 32.9 16.9 34.7 17.1C35 17.1 35.2 16.7 35 16.5C33.8 15.3 33.3 13.9 32.4 12.5C32.3 12.3 32.3 12.2 32.1 12.1C31.9 11.9 31.8 12.3001 32.1 11.9001C31.9 12.2001 32.3 12.7001 32.4 12.9001C32.7 13.5001 34.8 18.1 36.1 16.7C37.3 15.4 35.2 12.0001 34.5 10.9001C34.5 10.9001 34.4 10.8 34.3 10.7C34.3 11.1 34.5 11.4 34.7 11.7C35.4 13 36.1 14.5 36.1 16C36.1 16.3 36.5 16.5001 36.7 16.3001C38.2 14.5001 37.1 11.6 36.3 9.69998C36.3 9.59998 36.1 9.50003 36 9.50003C36.4 9.50003 36 9.50005 36.2 9.90005C36.5 10.5001 36.7 11.1 36.9 11.7C37.4 13.3 37.8 15.4 36.3 16.5C36.1 16.6 36.1 16.8 36.2 17C39.4 23.9 42.3 31.1 43.8 38.6C43.8 39 44.5 38.9 44.5 38.6C44.5 36.1 44.6 33.7 44.8 31.2C45 28.7 45.4 26.3001 45.3 23.9001C45.1 19.3001 43.7 14.8 41.8 10.6C41.8 10.4 41.5 10.4001 41.4 10.4001C39.7 10.9001 38.2 9.99998 37.1 8.69998C36.7 8.29998 36.5 7.70008 36 7.30008C35.8 7.10008 35.8 7.10008 35.8 7.30008C35.9 8.10008 37.1 9.1 37.6 9.6C38.5 10.4 39.4 10.8001 40.6 10.8001C41 10.8001 41.1 10.3 40.8 10.1C39.4 9.1 38.7 7.60008 37.7 6.30008C37.5 6.10008 37.3 5.80008 37.3 5.80008C37.2 6.20008 37.9 7.00008 38.1 7.30008C38.5 8.00008 41 11.9 42.1 10.2C42.6 9.49998 42.1 8.39998 41.7 7.69998C41.2 6.49998 40.5 5.40008 39.6 4.30008C39.6 4.30008 39.4 4.29998 39.3 4.19998C39.6 4.19998 39.3 3.99998 39.4 4.19998C39.5 4.59998 39.8 4.89998 40 5.19998C40.8 6.39998 41.8 7.90005 41.9 9.40005C41.9 9.80005 42.4 9.9 42.6 9.6C44 7.5 42.4 4.70008 41.3 2.80008C41.3 2.70008 41.1 2.6 41 2.6C41.2 2.6 41.1 2.8 41.3 3.1C41.5 3.6 41.9 4.1 42.1 4.6C42.8 6.2 43.7 8.60005 41.9 9.90005C41.7 10.1001 41.7 10.4 41.9 10.6C42.4 11 42.7 12.2001 42.9 12.8001C43.1 13.4001 43.4 14 43.6 14.7C44 16 44.4 17.4 44.8 18.7C45.5 21.5 45.7 24.3 45.4 27.1C44.8 32.7 44.7 38.2001 44.7 43.8001C44.7 44.3001 45.4 44.3001 45.5 43.8001C45.8 40.7001 46.2 37.6 46.6 34.6C47.1 31.8 47.9 29 48.3 26.2C49.1 20.6 48.8 14.8 48.4 9.19998C48.4 8.99998 48.2 8.90008 48 8.80008C44.9 8.40008 44.8 3.9 44.7 1.6C44.7 1.5 44.7 1.30008 44.5 1.30008C44.8 1.50008 44.5 1.10003 44.5 1.50003C44.5 1.80003 44.5 2.20003 44.5 2.50003C44.5 3.40003 44.6 4.3 44.8 5.1C45.1 6.7 45.8 8.40005 47.6 8.90005C47.9 8.90005 48.2 8.60008 48 8.30008C46.8 6.50008 47.2 3.7 47.3 1.6C47.3 1.5 47.3 1.30008 47.1 1.30008C47.2 1.10008 47.4 1.50008 47.1 1.30008C47.1 1.50008 47.1 1.60008 47.1 1.80008C47.1 2.30008 47.1 2.90005 47.1 3.40005C47.1 4.60005 47.1 5.80005 47.3 6.90005C47.6 8.20005 48.9 9.60005 49.7 7.90005C50.2 6.90005 50.3 5.79998 50.4 4.69998C50.4 3.89998 51 1.89998 50.4 1.19998C50.4 1.29998 50.3 1.30003 50.3 1.50003C50.3 2.10003 50.3 2.70008 50.3 3.30008C50.2 4.80008 50.1 6.40008 49.5 7.80008C49.4 8.10008 49.7 8.50008 50 8.30008C51.3 7.50008 52.1 6.20008 52.5 4.80008C52.7 4.10008 52.8 3.39998 52.9 2.69998C52.9 2.49998 52.9 1.6 52.9 1.6C52.9 1.6 52.5 4.40008 52.4 4.80008C51.9 6.70008 50.8 8.2 48.8 8.6C48.5 8.6 48.5 8.99998 48.6 9.19998C48.9 9.59998 48.8 10.7 48.8 11.2C48.8 11.9 48.8 12.5 48.8 13.2C48.8 14.6 48.8 15.9001 48.9 17.3001C48.9 20.2001 48.9 23.1 48.5 26C48.1 28.9 47.3 31.4 46.9 34.1C46.5 36.7 46.1 39.2001 45.9 41.8001C45.9 42.2001 46.4 42.3 46.6 42C48.2 38.9 49.5 35.8001 50.5 32.4001C51 30.6001 51.4 28.8 51.6 27C51.6 26.5 51.9 25.4001 51.7 24.9001C51.5 24.4001 51 24.2 50.7 23.7C50 22.6 50.1 21.0001 50.2 19.8001C50.2 19.5001 50.2 18.3 50.2 19.1C49.9 20.8 49.7 23.6 51.5 24.7C51.8 24.9 52.1 24.6001 52.1 24.3001C51.7 23.0001 52 21.5 52.2 20.1C52.3 19.5 52.4 18.7 52.2 19.7C51.9 20.7 51.1 24.3001 52.4 24.9001C53.9 25.6001 54.5 21.6001 54.6 20.9001C54.6 20.5001 54.9 20 54.7 19.7C54.6 19.9 54.7 19.9 54.6 20.2C54.2 21.6 54.1 23.0001 53.5 24.3001C53.3 24.6001 53.7 25.0001 54 24.8001C55 24.3001 55.6 23.4001 56 22.4001C56.2 21.9001 56.4 21.3 56.4 20.7C56.4 20.7 56.4 20.4001 56.4 20.3001C56.4 20.5001 56.3 19.0001 56.6 19.8001C56.8 20.2001 57.3 20.1001 57.3 19.8001C57.5 17.4001 57.5 15 57.3 12.7C57.3 12.5 57.2 12.4001 57 12.3001C55.1 12.0001 54.7 9.60005 54.6 7.90005C54.6 7.40005 54.6 6.90005 54.6 6.40005C54.6 6.20005 54.3 6.39998 54.6 6.19998C54.6 6.19998 54.4 6.40003 54.4 6.50003C54.4 8.50003 54.3 11.6001 56.6 12.4001C56.9 12.5001 57.2 12.1001 57 11.8001C56.2 10.3001 56.5 8.2 56.7 6.6C56.7 6.5 56.7 6.40008 56.5 6.30008C56.7 6.40008 56.7 6.00008 56.6 6.30008C56.6 6.30008 56.6 6.40003 56.6 6.50003C56.6 7.00003 56.6 7.40005 56.5 7.90005C56.5 8.90005 56.5 9.90008 56.5 10.8001C56.7 11.7001 57.5 13.0001 58.3 11.8001C58.8 11.1001 58.9 10.0001 59 9.30008C59.1 8.40008 59.4 7.09998 59.2 6.19998C59.2 5.99998 59.2 6.09998 59.2 6.19998C59.2 6.59998 59.2 7.00008 59.2 7.30008C59.1 8.60008 59 9.99998 58.5 11.2C58.4 11.5 58.8 11.8 59.1 11.6C60.1 10.9 60.7 9.90008 61 8.80008C61.2 8.20008 61.6 6.69998 61.2 6.19998C61.5 6.49998 61.3 6.00008 61.2 6.30008C61.2 6.40008 61.2 6.49998 61.2 6.69998C61.1 7.19998 61.1 7.80008 61 8.30008C60.6 9.90008 59.8 11.3001 58.1 11.8001C58 11.8001 57.8 12 57.8 12.2C58.4 17.8 58.1 24.3 55.3 29.2C52.5 34.1 49.7 38.8001 47.1 43.8001C47 44.0001 47.1 44.3001 47.3 44.4001C48.5 44.7001 48.6 44.7 49.6 43.7C50.6 42.7 51.3 41.8 52.1 40.7C54 38.1 55.6 35.4 57.1 32.6C58.6 29.8 59.9 27 61.2 24.1C61.9 22.6 62.6 21.1 63.2 19.6C63.5 19 63.7 18.3 64 17.7C64.3 17.1 64.5 15.8001 65 15.3001C65.1 15.2001 65.2 14.9001 65 14.8001C63.5 13.5001 63.2 11.7001 63.6 9.80008C63.6 9.40008 64.2 7.29998 64.4 7.19998C63.7 7.29998 63.4 9.6 63.4 10.1C63.2 11.5 63.4 12.9 64.2 14.1C64.4 14.4 64.9 14.3001 64.9 13.9001C64.9 12.6001 65.3 11.2001 65.8 9.90005C65.9 9.60005 66.6 7.6 66.7 7.6C66.2 7.6 65.5 10.3001 65.4 10.8001C65.1 11.8001 64.7 13 64.8 14.1C65 15.7 66.5 15 67.2 14.1C67.9 13.2 68.4 12.1 68.9 11C69.1 10.6 69.3 10.1 69.4 9.6C69.4 9.4 69.6 9.20005 69.6 8.90005C69.6 8.60005 69.4 8.90008 69.7 8.80008C69.5 8.80008 69.4 8.8 69.3 9.1C68.7 10.9 67.9 13.6 66.1 14.7C65.8 14.9 65.9 15.4001 66.3 15.4001C69.2 15.7001 71.1 12.0001 72 9.80008C72.1 9.40008 71.8 9.79998 72.1 9.69998C72 9.69998 71.8 9.70005 71.8 9.90005C71.5 10.5001 71.2 11.2001 70.9 11.8001C69.9 13.6001 68.1 16 65.8 15.1C65.6 15.1 65.4 15.1001 65.3 15.4001C63.2 20.6001 61 25.6 58.4 30.6C56 35.2 53.4 40.5 49.3 43.9001C49 44.1001 49.3 44.6 49.7 44.5C53.3 43.3 56.3 41.1001 58.8 38.4001C60 37.1001 61.1 35.6 62.1 34.1C62.6 33.3 63.1 32.4 63.6 31.5C64 30.8 64.2 29.5001 64.8 28.9001C64.9 28.7001 64.9 28.5001 64.8 28.4001C63.7 27.0001 63.8 25.4001 64.3 23.8001C64.5 23.3001 64.7 22.8001 64.9 22.4001C64.9 22.3001 64.9 22.2 64.9 22.1C64.9 21.9 65 22.1 64.9 22.1C64.3 22.5 64 23.6001 63.8 24.3001C63.5 25.5001 63.5 26.7001 64 27.8001C64.1 28.1001 64.6 28.0001 64.7 27.8001C64.9 26.5001 65.4 25.4 66 24.2C66.2 23.8 66.4 23.4 66.6 23.1V22.9001C65.9 23.4001 65.6 24.7001 65.3 25.4001C65 26.1001 64.5 27.2 64.5 28.2C64.6 29.4 65.7 29.1 66.4 28.5C67.1 27.8 67.6 26.9 68.1 26C68.4 25.5 68.6 25 68.8 24.5C68.8 24.5 68.8 24.4001 68.8 24.3001C68.5 24.3001 68.8 24.0001 68.8 24.3001C68.7 24.3001 68.5 24.3 68.5 24.5C67.8 26 67 27.9001 65.6 28.8001C65.4 29.0001 65.4 29.4 65.6 29.5C68 29.9 69.5 27.2 70.5 25.5C70.5 25.5 70.5 25.3 70.5 25.2C70.5 25.2 70.5 25.2001 70.5 25.4001C70.2 25.7001 70.1 26.0001 69.8 26.4001C68.9 27.9001 67.2 30.2 65.2 29.2C65 29.2 64.8 29.2001 64.7 29.3001C61.8 36.1001 56.6 42.1001 49.5 44.4001C49.2 44.4001 49.1 44.9 49.5 45.1C49.5 45.1 49.6 45.1 49.7 45.1V44.6C49.5 44.7 49.5 44.8001 49.4 44.9001C49.3 45.1001 49.4 45.5 49.7 45.5C55.9 44.7 61.6 42.1001 66.3 37.9001C68.5 35.9001 70.4 33.7001 72.1 31.3001C73.1 29.9001 74 28.5 74.8 27.1C75.2 26.4 75.5 25.7 75.9 25C76.1 24.5 76.4 23.3001 76.8 22.9001C76.9 22.8001 77 22.5001 76.8 22.4001C75.3 21.1001 75 19.3001 75.4 17.4001C75.4 17.0001 76 14.9001 76.2 14.8001C75.5 14.9001 75.2 17.2 75.2 17.7C75 19.1 75.2 20.5 76 21.7C76.2 22 76.7 21.9 76.7 21.5C76.7 20.2 77.1 18.8 77.6 17.5C77.7 17.2 78.4 15.2 78.5 15.2C78 15.2 77.3 17.9001 77.2 18.4001C76.9 19.4001 76.5 20.6 76.6 21.7C76.8 23.3 78.3 22.6 79 21.7C79.7 20.8 80.2 19.7 80.7 18.6C80.9 18.2 81.1 17.7 81.2 17.2C81.2 17 81.4 16.8 81.4 16.5C81.4 16.2 81.2 16.5001 81.5 16.4001C81.3 16.4001 81.2 16.4 81.1 16.7C80.5 18.5 79.7 21.2001 77.9 22.3001C77.6 22.5001 77.7 23 78.1 23C81 23.3 82.9 19.6001 83.8 17.4001C83.9 17.0001 83.6 17.4001 83.9 17.3001C83.8 17.3001 83.6 17.3 83.6 17.5C83.3 18.1 83 18.8001 82.7 19.4001C81.7 21.2001 80 23.6 77.6 22.7C77.4 22.7 77.2 22.7 77.1 23C74.6 29.1 70.4 34.8001 65.2 38.8001C62.6 40.9001 59.6 42.5 56.5 43.6C55.1 44.1 53.7 44.5001 52.2 44.8001C51 45.0001 49.6 44.8001 49 45.8001C48.8 46.1001 49 46.3001 49.3 46.4001C55.1 47.1001 61.2 46.8 66.6 44.6C68.9 43.7 71 42.4001 72.9 40.8001C73.9 39.9001 74.9 39 75.8 37.9001C76.2 37.4001 76.6 36.9001 76.9 36.4001C77.2 36 77.5 34.8 78 34.5C78.2 34.5 78.2 34.2 78.1 34C77.2 32.5 77.4 30.9001 78.1 29.3001C78.3 28.9001 78.6 28.5 78.8 28C78.9 27.8 78.9 27.7001 78.8 27.8001C78.2 28.2001 77.9 29.1 77.7 29.7C77.2 30.9 77.1 32.1001 77.5 33.3001C77.6 33.6001 78.1 33.7001 78.2 33.3001C78.5 32.1001 79.1 31 79.7 30C79.9 29.6 80.3 29.2001 80.5 28.8001C80.5 28.6001 80.6 28.6 80.5 28.7C79.8 29.1 79.2 30.7001 78.9 31.4001C78.6 32.1001 78 33.0001 78.1 33.8001C78.1 34.9001 79.1 34.8001 79.9 34.3001C80.7 33.7001 81.3 32.8 81.8 32C82.1 31.6 82.4 31.1 82.6 30.7C82.6 30.6 82.7 30.5001 82.8 30.4001C82.7 30.4001 82.5 30.4 82.5 30.6C81.7 32 80.7 33.9 79.2 34.6C78.9 34.8 79 35.2001 79.2 35.3001C80.5 35.7001 81.6 34.9 82.6 34C83.1 33.5 83.6 32.9001 84 32.4001C84 32.4001 84.8 31.1001 84.9 31.4001C85.1 31.8001 85.8 31.4 85.5 31L85.2 32Z" fill="#231F20"/>
<path d="M52.7 26.6C52.7 26.3 52.7 26.0001 52.7 25.8001L52.3 26.2C53.7 26.2 54.8 25.4001 55.5 24.3001C55.9 23.7001 56.1 23.1 56.3 22.4C56.3 22.1 56.4 21.7 56.5 21.4C56.5 21.2 56.7 21.1 56.9 20.9L56.2 20.7C55.9 24.1 55.2 27.4 53.4 30.4C51.6 33.4 50 36 48.5 38.9L49.1 39.3001C50.9 35.3001 52.1 31.1 52.5 26.7C52.5 26.2 51.8 26.2 51.7 26.7C51.3 30.9 50.1 35 48.4 38.9C48.2 39.3 48.8 39.7001 49 39.3001C49.9 37.7001 50.8 36.1 51.7 34.5C52.5 33.1 53.5 31.7 54.3 30.2C55.9 27.3 56.5 24 56.8 20.7C56.8 20.3 56.3 20.2 56.1 20.5C56 20.7 55.8 20.8 55.7 21C55.7 21.2 55.7 21.5 55.6 21.7C55.5 22.3 55.3 22.9 55 23.4C54.4 24.6 53.4 25.5 52.1 25.5C51.9 25.5 51.7 25.7 51.7 25.9C51.7 26.2 51.7 26.5 51.7 26.7C51.7 27.2 52.4 27.2 52.5 26.7L52.7 26.6Z" fill="#231F20"/>
</svg>
