<svg width="86" height="264" viewBox="0 0 86 264" fill="none" xmlns="http://www.w3.org/2000/svg">
<path d="M42.2 82.6999C41.6 82.3999 41 81.8999 41.1 81.1999C41.2 80.5999 41.9 80.2999 42.6 80.1999C44.1 79.9999 45.7 80.2 47.1 80.8C46.3 79.9 46.1 78.4 46.8 77.4C47.5 76.4 49.3 76.1999 50 77.1999C50.7 77.9999 50.5 79.3 51 80.3C51.4 79.8 51.8 79.3 52.3 78.9C52.8 78.5 53.6 78.5 54.1 78.9C54.7 79.4 54.7 80.2999 54.3 80.9999C53.9 81.6999 53.2 82.1 52.6 82.4C54.3 82 56.2 81.5 57.8 82.4C57.9 82.4 58.1 82.5999 58.1 82.6999C58.1 82.8999 58.1 83.1 57.9 83.3C57.5 83.8 56.9 83.9999 56.3 84.1999C51.8 85.6999 46.4 84.9999 42.3 82.6999H42.2Z" fill="#231F20"/>
<path d="M42.4 82.4C42.2 82.3 41.7 82 41.6 81.7C41.5 81.4 41.6 81.0001 41.9 80.8001C42.4 80.5001 43 80.5 43.5 80.5C44.6 80.5 45.7 80.7 46.8 81.2C47.2 81.4 47.5 81 47.3 80.6C46.3 79.3 46.6 76.9 48.6 76.9C50.4 76.9 50.1 79.2 50.6 80.4C50.7 80.7 51.1 80.6 51.2 80.4C51.5 80 51.9 79.5 52.4 79.2C53 78.8 53.9 78.9001 54.1 79.8001C54.3 80.9001 53.1 81.6 52.3 82.1C51.9 82.3 52.2 82.9001 52.6 82.8001C53.4 82.6001 54.3 82.4001 55.2 82.3001C55.7 82.3001 56.2 82.3001 56.6 82.3001C56.8 82.3001 57.1 82.3 57.3 82.5C57.6 82.5 57.6 82.7 57.5 82.9C57.5 83.1 57.5 83.2001 57.3 83.3001C56.7 83.8001 55.6 84 54.9 84.2C54 84.4 53.1 84.5 52.3 84.6C48.9 84.8 45.5 84 42.6 82.4C42.2 82.2 41.8 82.8 42.2 83.1C46 85.2 50.6 86 54.9 85.1C55.7 84.9 59.6 84 58.4 82.4C57.9 81.8 56.8 81.6 56 81.6C54.8 81.6 53.7 81.8 52.5 82.1L52.8 82.8001C54 82.1001 55.8 80.6 54.7 79C54.3 78.4 53.5 78.2 52.8 78.4C51.9 78.6 51.3 79.4 50.7 80.2H51.3C50.8 79.1 51 77.8 50.2 76.9C49.6 76.3 48.6 76.1 47.7 76.4C45.6 77.1 45.6 79.7 46.8 81.2L47.3 80.6C45.7 79.9 43.5 79.4 41.9 80.1C41.3 80.3 40.9 80.8 40.8 81.4C40.8 82.2 41.5 82.7 42.1 83.1C42.5 83.3 42.9 82.7 42.5 82.4H42.4Z" fill="#231F20"/>
<path d="M4.50001 48.9999C3.50001 48.5999 2.50002 48.2999 1.70002 47.5999C0.900021 46.8999 0.300003 46 0.400003 44.9C0.400003 44.4 0.600009 43.9999 1.00001 43.6999C1.50001 43.3999 2.10001 43.6999 2.50001 43.9999C3.40001 44.6999 4 45.8 4.9 46.4C4.9 46.4 5.00001 46.4 5.10001 46.4C5.40001 46.4 5.40002 45.8999 5.20002 45.5999C4.30002 43.9999 3.8 42.1 3.8 40.3C3.8 39.9 3.80002 39.2999 4.20002 39.0999C4.50002 38.8999 4.90001 39.1 5.10001 39.3C5.30001 39.5 5.50001 39.8999 5.60001 40.1999C5.90001 41.1999 6.30001 42.0999 6.60001 43.0999C6.80001 43.5999 7.10001 44.1999 7.60001 44.1999C7.50001 43.2999 7.3 42.2 7.8 41.4C7.8 41.4 7.90001 41.1999 8.00001 41.1999C8.10001 41.1999 8.3 41.1999 8.4 41.1999C9.4 41.7999 9.4 43.1 9.3 44.3C9.3 45.4 9.20002 46.5999 9.10001 47.6999C8.90001 51.1999 6.40002 49.6 4.20002 48.8L4.50001 48.9999Z" fill="#231F20"/>
<path d="M4.60001 48.6C3.10001 48 0.799988 47.1 0.799988 45.1C0.799988 44.7 0.899994 44.2 1.39999 44C1.89999 43.8 2.39999 44.2 2.79999 44.6C3.39999 45.2 3.9 45.9001 4.5 46.4001C4.9 46.7001 5.69999 47.2001 5.89999 46.4001C5.89999 46.1001 5.89999 45.8 5.89999 45.6C5.69999 45.1 5.49999 44.7001 5.29999 44.3001C4.89999 43.4001 4.70001 42.4 4.60001 41.5C4.60001 41.1 4.50001 40.6 4.60001 40.2C4.60001 40 4.59999 39.8 4.79999 39.6C4.99999 39.4 5.29999 39.6001 5.39999 39.9001C5.69999 40.3001 5.8 41 6 41.5C6.2 42.1 6.40001 42.6 6.60001 43.2C6.80001 43.9 7.2 44.7001 8 44.8001C8.3 44.8001 8.39999 44.5001 8.39999 44.3001C8.39999 43.9001 8.29999 43.5 8.29999 43C8.29999 42.5 8.29999 42.6001 8.29999 42.4001C8.29999 42.3001 8.4 41.8001 8.5 41.8001C8.7 41.8001 9.00001 42.2001 9.10001 42.4001C9.20001 42.7001 9.29999 43.0001 9.29999 43.3001C9.29999 44.0001 9.29999 44.7 9.29999 45.5C9.29999 46.4 9.30001 47.3 9.10001 48.2C9.10001 48.7 9.00001 49.3 8.60001 49.6C8.30001 49.8 7.90001 49.8 7.60001 49.7C6.60001 49.5 5.69999 49 4.79999 48.7C4.29999 48.5 4.20001 49.3001 4.60001 49.4001C6.00001 49.9001 8.60001 51.5001 9.60001 49.4001C9.90001 48.8001 9.9 48.1 10 47.5C10 46.6 10.1 45.6 10.2 44.7C10.2 43.5 10.3 41.9 9.20001 41.2C8.50001 40.7 8.00001 41.2001 7.70001 41.9001C7.40001 42.7001 7.50001 43.6 7.70001 44.5L8.10001 44C7.70001 44 7.49999 43.2001 7.39999 42.9001C7.19999 42.3001 6.99999 41.8 6.79999 41.2C6.49999 40.4 6.29999 39.2001 5.39999 38.9001C4.59999 38.6001 4 39.3 4 40C3.9 41 4.09999 42.1 4.39999 43C4.49999 43.5 4.69999 44.1 4.89999 44.6C5.09999 45.1 5.4 45.5 5.5 46C5.5 46 5.5 46.2001 5.5 46.3001H5.60001C5.60001 46.2001 5.5 46.1 5.5 46.1C5.3 45.9 5.09999 45.8 4.89999 45.6C4.59999 45.2 4.29999 44.8 3.89999 44.5C3.29999 43.9 2.50001 43.3001 1.60001 43.4001C0.700006 43.5001 0.399994 44.5001 0.399994 45.3001C0.499994 47.6001 2.89999 48.7001 4.79999 49.4001C5.29999 49.6001 5.4 48.8 5 48.7L4.60001 48.6Z" fill="#231F20"/>
<path d="M9.2 10.9C8.9 10.6 8.49998 10.2 8.39998 9.80005C8.29998 9.40005 8.3 8.8 8.6 8.5C9.1 8.1 9.7 8.29995 10.2 8.69995C10.7 9.09995 10.8 9.59998 11.1 10.1C11.4 10.6 11.8 11.1 12.4 11.1C12.1 8.99998 12 6.90005 12.1 4.80005C12.1 4.10005 12.4 3.30005 13 3.30005C13.6 3.30005 13.6 3.60002 13.8 3.90002C14.9 5.70002 13.8 8.19995 14.5 10.2C14.7 9.29995 15 8.39998 15.5 7.59998C15.7 7.29998 16 6.89995 16.4 6.69995C16.8 6.49995 17.3 6.60002 17.5 6.90002C17.7 7.10002 17.7 7.50005 17.7 7.80005C17.7 10.3 16.7 12.7 15.1 14.6C14.1 15.8 13.5 14.6 12.4 13.8C11.2 12.9 10.1 11.9 9.1 10.8L9.2 10.9Z" fill="#231F20"/>
<path d="M9.5 10.5999C9.1 10.1999 8.39999 9.49999 8.79999 8.89999C9.29999 8.19999 10.1 9.09997 10.4 9.49997C10.9 10.3 11.3 11.3 12.4 11.5C12.6 11.5 12.9 11.4999 12.9 11.0999C12.7 9.69994 12.6 8.29999 12.6 6.89999C12.6 6.49999 12.3 3.29995 13.3 3.59995C13.8 3.79995 14 4.69995 14.1 5.09995C14.1 5.69995 14.1 6.30002 14.1 6.80002C14.1 7.90002 14 8.99995 14.3 10.0999C14.4 10.3999 14.9 10.4999 15 10.0999C15.2 9.29995 15.4 8.50002 15.9 7.80002C16.1 7.50002 16.4 6.99999 16.8 6.89999C17.4 6.69999 17.5 7.19992 17.5 7.69992C17.5 9.29992 17 10.9 16.3 12.3C15.9 13 15.5 13.7 15 14.3C14.4 15 13.9 14.3 13.4 13.9C12.2 12.7 10.8 11.7 9.60001 10.5C9.30001 10.2 8.70001 10.7 9.10001 11C10.4 12.3 11.8 13.3999 13.2 14.5999C13.6 14.9999 14.1 15.4 14.7 15.4C15.4 15.4 15.8 14.6999 16.2 14.1999C17.2 12.8999 17.9 11.2999 18.2 9.69992C18.4 8.69992 18.9 6.39992 17.4 6.19992C15.6 5.89992 14.8 8.69997 14.5 9.99997H15.2C14.7 8.59997 15.1 7.09995 15 5.59995C15 4.59995 14.5 2.79999 13.2 2.89999C11.9 2.99999 12 4.79992 12 5.69992C12 7.49992 12.1 9.39992 12.3 11.1999L12.8 10.8C11.8 10.6 11.6 9.59999 11.1 8.89999C10.7 8.29999 10.1 7.89999 9.39999 7.89999C8.69999 7.89999 8.30001 8.49995 8.20001 9.09995C8.20001 9.89995 8.70001 10.4999 9.20001 11.0999C9.50001 11.3999 10.1 10.8999 9.70001 10.5999H9.5Z" fill="#231F20"/>
<path d="M26 12.0999C26 11.7999 26 11.5 26.4 11.3C26.8 11.1 27.3 11.5999 27.5 12.0999C27.8 12.5999 28.1 13.1 28.5 13.5C28.6 13.6 28.7 13.8 28.9 13.8C29.3 13.8 29.5 13.3 29.5 12.9C29.5 11 29.3 8.99991 29.9 7.19991C29.9 6.89991 30.2 6.59991 30.4 6.69991C30.5 6.69991 30.6 6.89996 30.7 6.99996C31.1 7.89996 31 8.89999 31 9.89999C31 10.9 31.1 11.9999 31.9 12.5999C32.2 11.9999 32.4 11.4 32.7 10.8C32.7 10.7 32.8 10.6 32.9 10.5C33.1 10.4 33.4 10.4999 33.5 10.6999C33.6 10.8999 33.6 11.2 33.6 11.4C33.6 13.1 33.2 19.0999 30.6 18.5999C28.1 18.0999 25.9 14.5999 26 12.1999V12.0999Z" fill="#231F20"/>
<path d="M26.3 12.0999C26.3 11.6999 26.7 11.7 26.9 12C27 12.1 27.1 12.3 27.2 12.5C27.4 12.8 27.6 13.2 27.9 13.5C28.2 13.9 28.7 14.3999 29.2 14.1999C29.7 13.9999 29.8 13.4 29.8 12.9C29.8 12 29.8 11.0999 29.8 10.1999C29.8 9.29991 29.8 8.39995 30.2 7.49995C30.2 7.29995 30.2 7.09991 30.4 7.19991C30.4 7.19991 30.6 7.7 30.6 7.8C30.6 8.2 30.6 8.59993 30.6 9.09993C30.6 10.3999 30.5 11.9 31.6 12.8C31.8 12.9 32.1 13 32.2 12.8C32.4 12.4 32.6 11.9 32.8 11.5C32.8 11.5 32.8 11.2999 32.9 11.1999C33 10.9999 32.9 10.8999 33.1 11.1999C33.3 11.2999 33.2 11.4999 33.2 11.6999C33.2 12.0999 33.2 12.5 33.2 12.9C33.2 14 33 15.0999 32.7 16.0999C32.5 16.8999 32.1 18 31.3 18.3C30.2 18.7 28.8 17.3999 28.2 16.6999C27.2 15.4999 26.3 13.9 26.4 12.3C26.4 11.8 25.7 11.8 25.6 12.3C25.6 14.1 26.4 15.7999 27.5 17.0999C28.4 18.0999 29.9 19.4 31.4 19C32.6 18.7 33.1 17.3 33.4 16.3C33.8 15 33.9 13.6 34 12.3C34 11.6 34.2 10.7 33.5 10.3C33.1 10.1 32.7 10.3 32.5 10.5C32.1 11.1 31.9 11.8999 31.6 12.5999H32.2C30.8 11.2999 31.8 9.09995 31.3 7.49995C31.1 6.99995 30.7 6.29993 30.1 6.59993C29.5 6.89993 29.4 8.2 29.3 8.8C29.2 9.8 29.2 10.9 29.2 11.9C29.2 12.3 29.3 12.9 29.2 13.3C29 13.8 28.5 12.9999 28.3 12.6999C27.9 12.0999 27.6 11.1999 26.9 11.0999C26.2 10.9999 25.8 11.7 25.8 12.3C25.8 12.8 26.5 12.8 26.6 12.3L26.3 12.0999Z" fill="#231F20"/>
<path d="M47.3 16.4001C47.2 16.0001 47 15.6 47.1 15.2C47.2 14.8 47.5 14.4001 47.9 14.3001C48.6 14.3001 49 15.1 49.2 15.7C49.6 16.5 50.1 17.3001 50.7 17.9001C51.3 16.1001 50.7 14.2001 50.7 12.3001C50.7 12.1001 50.7 11.7 51 11.6C51.3 11.4 51.6 11.6001 51.8 11.9001C52.9 13.4001 52.2 15.6001 52.5 17.4001C52.5 17.7001 52.7 18 52.9 18.2C53.1 18.4 53.6 18.4 53.7 18.2C53.8 18 53.8 17.9 53.8 17.7C53.9 16.3 54.4 15.0001 55 13.9001C55 13.9001 55.1 13.7 55.2 13.7C55.5 13.6 55.7 13.9 55.8 14.2C56.4 16.4 55.8 18.9 54.2 20.6C53.9 21 53.5 21.3 53.2 21.7C51.8 23.4 51.1 22.3001 50 20.9001C48.9 19.5001 47.8 17.9 47.1 16.2L47.3 16.4001Z" fill="#231F20"/>
<path d="M47.6 16.3C47.5 15.9 47.1 14.6999 47.9 14.6999C48.3 14.6999 48.6 15.3 48.8 15.6C49.2 16.5 49.7 17.3999 50.4 18.1999C50.6 18.3999 50.9 18.2 51 18C51.5 16.7 51.3 15.3 51.1 13.9C51.1 13.6 51.1 13.3 51.1 13C51.1 12.8 51.1 12.3 51.1 12.1C51.2 11.9 51.2 11.9 51.4 12.1C51.5 12.1 51.6 12.3 51.6 12.4C51.8 12.7 51.9 13 51.9 13.3C52.1 14.4 51.9 15.6 51.9 16.8C51.9 17.6 52.3 18.9999 53.4 18.6999C53.9 18.5999 54 18.0999 54.1 17.6999C54.1 16.9999 54.3 16.3999 54.5 15.6999C54.6 15.2999 54.8 15 54.9 14.6C54.9 14.5 55 14.4 55.1 14.3V14.1C55.2 13.9 55.3 13.9 55.3 14.1C55.4 14.1 55.5 14.8 55.5 14.9C55.5 15.2 55.5 15.6 55.5 16C55.5 17.2 55.1 18.4 54.5 19.5C54.2 20 53.9 20.4 53.5 20.8C53.1 21.2 52.6 21.8999 52.1 22.1999C51.6 22.3999 51.3 22.2 51 21.8C50.5 21.3 50.1 20.7999 49.7 20.1999C48.7 18.9999 47.9 17.6999 47.4 16.1999C47.2 15.7999 46.5 16 46.7 16.4C47.2 17.8 48 19.1 48.9 20.4C49.3 21 49.8 21.5 50.3 22.1C50.6 22.5 51 22.9 51.4 23C52.6 23.4 53.4 22 54.1 21.3C55 20.3 55.7 19.1 56.1 17.8C56.2 17.2 56.3 16.5 56.3 15.8C56.3 15.2 56.3 14.5 56 13.9C55.8 13.5 55.3 13.1 54.9 13.4C54.6 13.6 54.5 13.9999 54.4 14.1999C54.2 14.4999 54.1 14.9 53.9 15.3C53.6 16 53.5 16.7 53.4 17.5C53.4 17.7 53.4 18 53.2 18C53 18 52.9 17.7 52.8 17.6C52.7 17.2 52.7 16.8 52.7 16.5C52.7 15.2 52.9 13.8 52.4 12.5C52.2 12 51.8 11.2999 51.2 11.1999C50.6 11.0999 50.3 11.7 50.2 12.3C50.1 14.1 50.8 16 50.2 17.8L50.8 17.6C50.2 16.9 49.7 16.2 49.4 15.4C49.2 14.9 48.9 14.3 48.4 14C47.9 13.7 47.3 13.9 46.9 14.3C46.4 14.9 46.5 15.7 46.8 16.4C47 16.8 47.7 16.6999 47.5 16.1999L47.6 16.3Z" fill="#231F20"/>
<path d="M47.8 41.8001C47.3 41.0001 46.8 40.2001 47 39.3001C47 39.0001 47.3 38.6 47.6 38.6C47.8 38.6 48 38.6001 48.1 38.8001C49.3 39.6001 50.2 41 51.6 41C51.9 40.2 51.6 39.2001 51.6 38.3001C51.5 37.3001 51.6 36.3001 52 35.4001C52 35.2001 52.2 34.9001 52.5 34.8001C52.9 34.7001 53.2 35.1 53.4 35.5C53.9 36.9 53.9 38.4001 53.6 39.9001C53.6 40.2001 53.6 40.5001 53.6 40.8001C53.6 41.1001 54 41.3 54.3 41.2C54.7 41.1 54.7 40.5 54.7 40.1C54.7 39.4 54.7 38.7001 54.7 37.9001C54.7 37.4001 55 36.8001 55.5 36.9001C56.4 38.6001 56.2 40.6001 55.8 42.4001C55.6 43.3001 55.3 44.2 54.8 45C53.9 46.3 52.6 46.8001 51.4 45.8001C50 44.6001 48.9 43.3001 47.9 41.8001H47.8Z" fill="#231F20"/>
<path d="M48.1 41.5999C47.7 40.9999 47.3 40.3999 47.3 39.5999C47.3 39.5999 47.3 39.1 47.4 39C47.6 38.9 47.9 38.9999 48.1 39.1999C48.3 39.3999 48.6 39.6 48.8 39.8C49.6 40.5 50.4 41.2 51.5 41.3C51.7 41.3 51.8 41.2 51.9 41C52.1 40.2 52 39.4999 51.9 38.6999C51.8 37.7999 51.8 36.9 52 36C52.1 35.6 52.3 34.9 52.7 35.4C52.9 35.7 53 36.2999 53.1 36.6999C53.2 37.4999 53.2 38.3999 53.1 39.1999C53.1 39.7999 52.8 40.5999 53.2 41.1999C53.5 41.5999 54.2 41.8 54.6 41.4C55 41 54.9 40.2999 54.9 39.6999C54.9 39.2999 54.8 37.3 55.5 37.3L55.2 37.0999C55.8 38.3999 55.9 39.9 55.7 41.3C55.5 42.7 55.1 44.0999 54.2 45.1999C53.8 45.5999 53.3 46 52.6 46C51.9 46 51.4 45.4 50.9 44.9C49.9 43.9 48.9 42.7999 48.1 41.5999C47.8 41.1999 47.2 41.6 47.5 42C48.5 43.4 49.6 44.8 51 46C52.1 46.9 53.4 47.1 54.5 46C55.7 44.9 56.2 43.1999 56.4 41.6999C56.7 39.9999 56.6 38.4 55.9 36.9C55.9 36.8 55.7 36.6999 55.6 36.6999C53.9 36.6999 54.4 39.6 54.3 40.5C54.3 40.5 54.3 40.9 54.2 40.9C53.8 41.1 53.9 40.2 53.9 40C53.9 39.6 54 39.1999 54 38.6999C54 37.7999 54 36.8999 53.8 36.0999C53.7 35.4999 53.4 34.7 52.8 34.4C52.2 34.1 51.7 34.5999 51.5 35.1999C51.2 35.9999 51 37 51.1 37.8C51.1 38.8 51.5 39.8 51.2 40.8L51.6 40.5C50.7 40.5 50.1 39.8 49.5 39.3C49 38.9 48.3 38.0999 47.6 38.0999C46.9 38.0999 46.6 38.9 46.6 39.5C46.6 40.4 47 41.2 47.5 41.9C47.8 42.3 48.4 41.9 48.1 41.5V41.5999Z" fill="#231F20"/>
<path d="M62.9 8.40002C62.1 7.30002 61.5 6.09995 61.5 4.69995C61.5 4.09995 61.7 3.29998 62.4 3.09998C62.8 3.09998 63.2 3.29998 63.5 3.59998C63.8 3.89998 63.9 4.29995 64.1 4.69995C64.2 4.89995 64.5 5.19998 64.8 5.09998C65 5.09998 65.2 4.7 65.2 4.5C65.4 3.3 65 2.00002 65.6 0.900024C65.6 0.700024 65.8 0.5 66 0.5C66.4 0.5 66.7 0.900049 66.8 1.30005C67.1 2.30005 67.1 3.30005 66.8 4.30005C66.8 4.60005 66.6 5.00005 66.7 5.30005C66.8 5.60005 66.9 5.99998 67.2 6.09998C67.7 6.29998 68.1 5.9 68.4 5.5C68.7 5.1 68.7 4.59995 69 4.19995C69.3 3.79995 69.9 3.60002 70.2 3.90002C70.5 4.10002 70.5 4.50002 70.4 4.90002C70.2 7.10002 69.1 9.1 67.4 10.5C65.2 12.4 64.2 10.3 62.8 8.40002H62.9Z" fill="#231F20"/>
<path d="M63.2 8.19995C62.5 7.09995 61.8 5.89998 61.8 4.59998C61.8 4.09998 62 3.39998 62.6 3.59998C63.3 3.79998 63.4 4.79995 63.9 5.19995C64.2 5.49995 64.7 5.60002 65 5.40002C65.4 5.10002 65.4 4.40002 65.4 3.90002C65.4 3.30002 65.4 2.69998 65.4 2.09998C65.4 1.79998 65.4 1.29998 65.7 1.09998C66 0.699976 66.2 1.39998 66.2 1.59998C66.4 2.29998 66.4 2.89998 66.3 3.59998C66.3 4.19998 65.9 4.9 66.1 5.5C66.3 6.6 67.5 6.8 68.2 6C68.6 5.6 68.6 5 69 4.5C69.2 4.3 69.6 3.80005 69.8 4.30005C69.9 4.50005 69.8 4.99995 69.8 5.19995C69.6 6.39995 69.1 7.59998 68.4 8.59998C68 9.19998 67.5 9.69995 67 10.2C66.5 10.6 65.9 11 65.3 10.8C64.3 10.5 63.6 8.99995 63 8.19995C62.7 7.79995 62.1 8.19998 62.4 8.59998C63.1 9.49998 63.7 10.8 64.8 11.4C65.9 12 67.1 11.4 67.9 10.5C69 9.5 69.8 8.30002 70.2 6.90002C70.5 6.00002 71.2 4 70 3.5C69.5 3.3 68.8 3.5 68.5 4C68.2 4.5 68 5.80005 67.3 5.80005C66.5 5.80005 67.1 3.99998 67.2 3.59998C67.2 2.79998 67.2 1.99995 67 1.19995C66.9 0.699951 66.5 0.199976 66 0.0999756C65.4 0.0999756 65 0.699951 64.9 1.19995C64.7 1.89995 64.7 2.70002 64.7 3.40002C64.7 4.10002 64.7 4.2 64.7 4.5C64.7 4.8 64.7 4.79998 64.5 4.59998C64.5 4.59998 64.4 4.40002 64.3 4.40002C64.2 4.20002 64.1 4.00005 64 3.80005C63.6 3.20005 63 2.60005 62.3 2.80005C61.7 2.90005 61.3 3.5 61.2 4C60.8 5.6 61.7 7.3 62.6 8.5C62.9 8.9 63.5 8.49998 63.2 8.09998V8.19995Z" fill="#231F20"/>
<path d="M75.8 28.1C75.8 27.6 76.2 27.1 76.6 27.1C76.8 27.1 77.1 27.3 77.2 27.5C77.9 28.5 77.7 29.9 77.7 31.1C77.7 31.5 77.7 31.9 77.9 32.2C78.1 32.5 78.5 32.8 78.8 32.7C79.3 32.6 79.5 31.9 79.5 31.3C79.6 29.9 80.1 28.5 80.8 27.2C81 26.8 81.4 26.3 81.9 26.3C82.6 27.2 82.3 28.5 81.9 29.7C81.4 31.1 81 32.5 80.5 33.9C80.8 34.1 81.2 33.9 81.5 33.7C81.8 33.5 81.9 33.1 82 32.8C82.3 32 82.8 31.3 83.3 30.7C83.4 30.6 83.5 30.4 83.7 30.4C84.1 30.4 84.4 30.8 84.3 31.3C84.3 32.3 83.7 33.1 83.1 33.9C81.8 35.7 79.4 39.5 77.4 36.6C75.7 34.2 75.1 30.9 75.6 28.1H75.8Z" fill="#231F20"/>
<path d="M76.1 28.2C76.1 27.9 76.3 27.3001 76.7 27.5001C77 27.7001 77.1 28.2001 77.2 28.4001C77.4 29.1001 77.3 29.7001 77.3 30.4001C77.3 31.4001 77.3 33.2 78.7 33.1C79.9 33.1 79.8 31.4 80 30.6C80.1 29.9 80.3 29.2001 80.6 28.5001C80.8 28.0001 81.2 26.7 81.9 26.7L81.6 26.5001C82.3 27.5001 81.9 28.7001 81.6 29.8001C81.2 31.1001 80.7 32.5001 80.3 33.8001C80.3 34.0001 80.3 34.1 80.5 34.2C81.2 34.6 81.9 34.2 82.3 33.6C82.8 32.8 83.1 32.0001 83.6 31.3001C83.7 31.1001 83.9 30.7001 84.1 30.9001C84.2 31.0001 84.1 31.3001 84.1 31.5001C84.1 32.0001 83.8 32.5001 83.5 32.9001C83.1 33.5001 82.7 34 82.3 34.6C81.6 35.5 80.7 36.9 79.5 37.2C78.9 37.4 78.3 37.0001 78 36.5001C77.5 35.8001 77.1 35 76.8 34.2C76.1 32.3 75.9 30.2 76.3 28.2C76.3 27.7 75.7 27.5001 75.6 28.0001C75.2 30.1001 75.4 32.2 76.1 34.2C76.4 35.2 76.9 36.1001 77.5 36.9001C77.9 37.5001 78.5 38 79.2 38.1C80.7 38.2 81.8 36.7 82.7 35.7C83.2 35.1 83.7 34.4001 84.1 33.8001C84.6 33.1001 85.2 32 85 31.1C85 30.7 84.7 30.3 84.3 30.2C83.9 30.2 83.5 30.4 83.3 30.7C82.9 31.2 82.5 31.8001 82.3 32.3001C82.1 32.7001 81.7 34 81.1 33.7L81.3 34.1C81.6 33.1 81.9 32.1 82.3 31.1C82.6 30.2 82.9 29.4001 83.1 28.5001C83.2 27.8001 83.1 27.0001 82.8 26.4001C82.4 25.7001 81.6 26.2 81.2 26.7C80.1 28 79.7 29.9 79.5 31.6C79.5 31.9 79.5 32.4001 79.1 32.5001C78.5 32.7001 78.4 31.7001 78.4 31.3001C78.4 30.5001 78.5 29.6001 78.4 28.8001C78.3 28.1001 78 27.1001 77.2 26.8001C76.4 26.5001 75.9 27.4001 75.8 28.0001C75.7 28.5001 76.4 28.7 76.5 28.2H76.1Z" fill="#231F20"/>
<path d="M48.4 82.8C44.4 82.6 40.6 81.1 36.9 79.5C33.6 78.1 30.4 76.6 27.3 74.8C24.3 73 21.5 70.9 19 68.4C16.5 65.8 14.4 62.8 12.7 59.6C10.7 56 9.20001 52.3 7.60001 48.5C7.60001 48.3 6.89999 48.3 6.89999 48.5C9.79999 55.5 12.8 62.6 18.1 68.1C23.1 73.2999 29.5 76.7 36 79.4C39.9 81.1 44 82.6 48.2 82.9C48.6 82.9 48.6 82.7 48.2 82.6L48.4 82.8Z" fill="#231F20"/>
<path d="M48.4 82.4C44 82.1 39.8 80.4 35.8 78.6C32.1 77 28.5 75.2 25.1 72.9C21.7 70.6 18.6 67.7 16.1 64.4C13.6 61.1 11.9 57.6 10.3 54C9.9 53 9.40001 52 9.00001 51C8.70001 50.3 8.40001 48.9 7.90001 48.3C7.50001 47.9 6.70002 47.9 6.60002 48.5C6.50002 49 7.1 50 7.3 50.4C7.6 51.2 8 52 8.3 52.8C9.1 54.5 9.80003 56.3 10.7 58C14.1 64.7 18.7 70.2 25 74.3C28.5 76.6 32.3 78.4 36.1 80C38.2 80.9 40.3 81.7 42.5 82.4C44.2 82.9 46.7 83.7 48.6 83.3C48.8 83.3 48.9 83.1 48.9 82.9C48.9 82.6 48.8 82.5 48.6 82.4H48.3C47.8 82.2 47.6 82.9 48.1 83H48.4L48.1 82.6999C48.1 82.6999 48.3 82.6 48.4 82.5C47.4 82.7 46.1 82.2999 45.2 82.1999C44.3 81.9999 43.4 81.8 42.6 81.5C40.7 80.9 38.9 80.2 37 79.4C33.6 78 30.2 76.4 27.1 74.5C20.7 70.7 15.7 65.5 12.2 58.9C11.4 57.4 10.7 55.9 10 54.4C9.60001 53.6 9.30001 52.9 9.00001 52.1C8.60001 51.1 8.30003 50 7.70003 49.1C7.30003 48.5 7.50002 48.8 7.60002 49.1C7.70002 49.5 7.90002 49.7999 8.10002 50.1999C8.40002 50.9999 8.70002 51.7 9.10002 52.4C9.90002 54.3 10.7 56.1 11.7 57.9C15 64.3 19.4 69.6999 25.4 73.6999C28.9 75.9999 32.6 77.8 36.5 79.5C40.4 81.2 44.3 82.7 48.5 82.9C49 82.9 49 82.2 48.5 82.1L48.4 82.4Z" fill="#231F20"/>
<path d="M15.7 29.4001C15.8 32.3001 16.1 35.1001 17 37.8001C17.8 40.4001 19 42.9001 20.1 45.4001C22.5 50.7001 24.9 56.1001 27.3 61.4001C29.4 66.1001 31.8 70.9 35.3 74.7C37 76.6 38.9 78.2 41.2 79.5C41.7 79.8 45.8 82 46.5 81.2C47 81.6 47.6 82.0001 48.2 82.3001C48.4 82.3001 49 82.3 48.6 82.2C44.8 80.3 42.9 76.2001 41.9 72.3001C40.7 67.7001 40.4 63 38.5 58.5C37.6 56.4 36.5 54.3 36.3 52C36 49.6 36.4 47.2001 36.2 44.8001C35.9 42.5001 34.7 40.5001 33.8 38.4001C32.9 36.3001 32.3 34.1001 31.9 31.9001C31 26.7001 31.2 21.3 31.4 16C31.4 15.8 30.8 15.7001 30.7 15.8001C30.5 20.5001 30.3 25.3 30.9 30C31.2 32.3 31.7 34.7001 32.5 36.9001C33.3 39.1001 34.7 41.2 35.2 43.5C35.7 45.9 35.4 48.4001 35.5 50.9001C35.6 53.3001 36.5 55.5 37.5 57.7C38.5 59.9 39.2 62.1 39.7 64.5C40.2 67 40.6 69.4001 41.2 71.9001C42 75.2001 43.5 78.5 46 80.7C46 80.7 46 80.7001 46 80.9001C46 80.9001 46 80.9001 45.9 80.9001C45.6 80.9001 45.3 80.9001 45 80.9001C44.7 80.9001 44.5 80.7 44.2 80.6C43.6 80.4 43.1 80.2001 42.6 79.9001C41.4 79.3001 40.3 78.6001 39.3 77.8001C37.5 76.4001 35.9 74.8 34.6 73C31.5 69 29.4 64.3 27.3 59.7C25.1 54.8 22.9 49.9 20.7 45.1C19.6 42.7 18.6 40.3001 17.8 37.8001C17 35.3001 16.7 32.8 16.6 30.2C16.5 27.2 16.4 24.2 16.1 21.2C15.8 18.1 15.3 15.0001 14.8 11.9001C14.8 11.7001 14.1 11.6 14.2 11.7C14.7 14.6 15.1 17.6 15.4 20.5C15.7 23.4 15.8 26.4001 15.9 29.3001L15.7 29.4001Z" fill="#231F20"/>
<path d="M15.3 29.4C15.5 34.1 16.6 38.3999 18.4 42.6999C20.5 47.4999 22.7 52.2 24.8 57C28.5 65.2 32.1 74.3 40 79.4C41.1 80.1 42.3 80.6999 43.6 81.1999C44.4 81.4999 45.9 82.3 46.6 81.5H46.1C46.7 82 47.8 83.0999 48.7 82.5999C48.9 82.4999 48.9 82.2 48.7 82C48 81.4 47.2 81.1 46.5 80.4C45.7 79.7 45 78.9 44.5 78C43.4 76.3 42.6 74.4 42.1 72.4C40.9 67.8 40.6 62.9999 38.7 58.5999C37.7 56.1999 36.5 54 36.3 51.4C36.1 49 36.5 46.5999 36.1 44.1999C35.7 41.7999 34.5 39.9 33.6 37.8C32.7 35.5 32.1 33.2 31.8 30.8C31.4 28.1 31.3 25.3999 31.3 22.6999C31.3 19.9999 31.3 20.2999 31.3 19.0999C31.3 18.4999 31.3 17.7999 31.3 17.1999C31.3 16.7999 31.5 16.2 31.3 15.8C31.2 15.5 30.8 15.3 30.5 15.4C30 15.4 30 15.8 30 16.3C29.9 18.9 29.8 21.4999 29.9 24.0999C29.9 28.8999 30.5 33.7999 32.4 38.1999C33.4 40.4999 34.6 42.7 34.8 45.3C35 47.6 34.6 50 35 52.3C35.4 55 36.7 57.3 37.7 59.8C38.7 62.3 39.2 64.9999 39.7 67.6999C40.6 72.4999 41.7 77.4 45.4 80.8V80.4H45.3C45.3 80.5 45.3 80.7 45.3 80.8H45.4C45.4 80.9 45.4 80.3 45.4 80.3C44.9 80.7 42.9 79.6 42.5 79.4C41.8 79.1 41.1 78.6999 40.4 78.1999C39 77.2999 37.7 76.2 36.5 75C34.3 72.7 32.5 70.1 31 67.3C27.8 61.4 25.3 55.0999 22.5 49.0999C21.1 45.9999 19.6 42.8999 18.4 39.5999C17.2 36.2999 16.6 32.9 16.4 29.4C16.3 26.1 16.2 22.8 15.8 19.5C15.6 18 15.4 16.5 15.2 15C15.1 14.2 15 13.3999 14.8 12.6999C14.8 12.1999 14.8 11.5999 14.4 11.1999C14 10.7999 13.4 10.9 13.2 11.4C13 12 13.5 13.2 13.6 13.8C13.7 14.8 13.9 15.7999 14 16.6999C14.6 20.7999 14.8 24.9999 15 29.0999C15 29.5999 15.8 29.5999 15.8 29.0999C15.7 25.5999 15.5 22 15.1 18.5C14.9 16.9 14.7 15.2999 14.4 13.6999C14.4 13.3999 14.3 12.9999 14.3 12.6999C14.3 12.6999 14.1 11 14.1 12C14.1 12.9 14.4 13.9 14.5 14.8C15 18.2 15.4 21.6 15.6 25C15.7 28.1 15.7 31.3 16.3 34.4C16.9 37.5 18 40.3999 19.2 43.1999C20.6 46.3999 22.1 49.6 23.6 52.9C26.2 58.7 28.6 64.9 32.1 70.3C33.9 73.1 36 75.6999 38.7 77.6999C40 78.6999 41.4 79.4999 42.9 80.1999C43.6 80.4999 45.1 81.4 45.9 80.8C46.1 80.7 46.2 80.3999 45.9 80.1999H45.8C45.8 80.0999 45.8 80.5 45.8 80.5C45.8 80.3 45.8 80.1 45.8 80C42.4 76.8 41.2 72.3 40.4 67.9C40 65.6 39.6 63.3999 38.9 61.1999C38.2 58.9999 37.3 57.1 36.5 55C35.6 52.7 35.5 50.5 35.5 48C35.5 45.8 35.5 43.6 34.7 41.4C33.9 39.4 32.9 37.5 32.2 35.5C31.4 33.1 31 30.5999 30.8 28.1999C30.6 25.7999 30.5 23.3 30.6 20.9C30.6 19.7 30.6 18.4999 30.7 17.1999C30.7 16.9999 30.8 15.5999 30.7 16.1999C30.6 16.7999 30.7 17.5999 30.7 18.0999C30.5 22.8999 30.5 27.7 31.4 32.4C31.8 34.5 32.4 36.6 33.3 38.5C34.3 40.7 35.4 42.8 35.6 45.3C35.8 47.6 35.4 50 35.8 52.3C36.1 54.3 37 56.1999 37.8 58.0999C39.9 62.8999 40.2 68.1 41.6 73C42.1 74.9 42.9 76.7 44 78.4C44.5 79.2 45.1 79.9 45.8 80.5C46.6 81.2 47.6 81.6 48.3 82.3V81.6999C48 81.8999 46.8 80.7999 46.5 80.5999C46.4 80.5999 46.2 80.5999 46 80.5999C45.4 81.0999 43.1 79.7999 42.6 79.5999C41.6 79.0999 40.5 78.5 39.6 77.9C36.1 75.4 33.4 72 31.2 68.3C29 64.6 27.3 60.5 25.5 56.5C23.6 52.3 21.7 48.1 19.8 43.9C18.8 41.6 17.7 39.2 17 36.8C16.3 34.4 16 31.6999 15.9 29.0999C15.9 28.5999 15.1 28.5999 15.1 29.0999L15.3 29.4Z" fill="#231F20"/>
<path d="M64.1 54.4001C62.9 59.2001 61.8 64.1 59.7 68.6C57.6 73.2 54.6 77.4001 51 81.0001C50.9 81.1001 51.5 81.4001 51.6 81.3001C54.8 78.2001 57.5 74.6 59.5 70.7C61.8 66.3 63 61.5 64.3 56.6C65.6 51.7 66.7 46.7 67.3 41.7C67.9 36.8 68 31.9001 67.8 27.0001C67.5 21.3001 66.6 15.7 65.1 10.2C65.1 10 64.4 9.90005 64.5 10.0001C67 19.6001 67.9 29.7 66.9 39.6C66.4 44.6 65.4 49.5001 64.1 54.4001Z" fill="#231F20"/>
<path d="M63.7 54.3C62.4 59.6 61.1 65 58.6 69.9C57.5 72 56.2 74.1 54.8 76C54 77 53.2 78.1 52.3 79C51.9 79.5 50.5 80.3 50.6 81C50.6 81.4 51 81.6 51.4 81.6C52.1 81.6 52.9 80.4 53.3 79.9C54.9 78.2 56.3 76.4 57.6 74.4C60.5 70 62.2 65.1999 63.6 60.1999C65.1 54.8999 66.4 49.5 67.3 44C68.2 38.5 68.4 33.1 68.1 27.6C67.8 22.1 67.1 17 65.8 11.8C65.6 11.1 65.6 9.99995 65 9.59995C64.7 9.39995 64.2 9.39995 64 9.59995C63.6 10.2 64.4 11.5999 64.5 12.1999C64.8 13.5999 65.1 15 65.4 16.4C66.5 22.5 66.9 28.7 66.7 35C66.5 41.3 65.2 47.8999 63.7 54.1999C63.6 54.6999 64.3 54.9 64.4 54.4C66.9 44.7 68.1 34.9 67.3 24.8C67.1 22.5 66.8 20.2 66.5 17.9C66.3 16.7 66.1 15.6 65.9 14.4C65.7 13.2 65.5 11.7999 65 10.6999C65 10.5999 64.8 9.79995 64.8 10.6C64.8 10.8 65 11.3 65 11.5C65.1 12 65.3 12.6 65.4 13.1C65.7 14.3 65.9 15.6 66.2 16.8C66.7 19.3 67 21.9 67.2 24.4C68.1 34.7 66.8 44.8 64.2 54.9C63 59.7 61.8 64.5 59.7 69C58.7 71.1 57.5 73.1 56.2 75C54.9 76.9 53.2 78.5 51.7 80.3C51 81.1 52.2 80 52.4 79.8C52.8 79.4 53.2 79 53.5 78.6C54.3 77.7 55 76.8 55.7 75.9C57.2 73.9 58.5 71.8 59.5 69.6C61.8 64.8 63.1 59.5 64.4 54.4C64.5 53.9 63.8 53.6999 63.7 54.1999V54.3Z" fill="#231F20"/>
<path d="M78 35.6C77.6 50.2 71 64.4 60.4 74.5C57.4 77.3 54.1 79.8 50.6 81.9C50.3 82.1 51 82.1 51.1 82C63.8 74.6 73.1 61.9 76.9 47.8C78 43.8 78.6 39.7 78.7 35.6C78.7 35.4 78 35.5 78 35.6Z" fill="#231F20"/>
<path d="M77.6 35.6C77.1 50 70.8 63.9001 60.4 73.9001C58.8 75.5001 57 77.0001 55.1 78.4001C54.3 79.0001 53.4 79.6 52.6 80.2C51.9 80.7 50.8 81.1 50.2 81.7C50 81.9 50.1 82.1001 50.2 82.3001C50.5 82.5001 50.8 82.4001 51.2 82.3001C52.1 82.0001 53.1 81.1 54 80.6C55.7 79.5 57.3 78.3001 58.8 77.0001C61.9 74.4001 64.7 71.4 67.1 68.2C72.2 61.5 75.9 53.8001 77.7 45.5001C78.3 42.8001 78.7 40.1001 78.8 37.4001C78.8 36.8001 79.3 35.4 78.6 35.1C78.2 34.9 77.7 35.1001 77.5 35.4001C77.2 35.8001 77.9 36.2001 78.1 35.8001C77.9 36.0001 78.1 36.7001 78.1 37.0001C78.1 37.6001 78.1 38.1 78 38.7C77.9 39.9 77.7 41.2001 77.5 42.4001C77.2 44.4001 76.7 46.4001 76.2 48.3001C75.3 51.7001 74 55 72.4 58.2C69.4 64.3 65.3 69.9 60.3 74.6C58.8 76 57.3 77.3001 55.7 78.5001C54.9 79.1001 54.2 79.6 53.4 80.2C53 80.4 51 82.1001 50.6 81.8001V82.4001C51.2 81.8001 52.4 81.3001 53.1 80.8001C54 80.2001 54.9 79.6001 55.8 78.9001C57.3 77.8001 58.7 76.6001 60.1 75.3001C62.7 72.9001 65.1 70.1 67.2 67.2C71.5 61.4 74.7 54.7 76.5 47.7C77.5 43.8 78.1 39.8 78.2 35.7C78.2 35.2 77.5 35.2 77.4 35.7L77.6 35.6Z" fill="#231F20"/>
<path d="M47.4 80.3C46.3 74 46.5 67.6 48.1 61.4C48.9 58.2 50.3 55.1999 51.5 52.1999C52.7 49.3999 53.6 46.4 53 43.3C53 43.1 52.3 43.1 52.3 43.3C52.9 46.6 51.8 49.6999 50.5 52.6999C49.3 55.5999 48.1 58.4 47.3 61.4C45.7 67.6 45.5 74 46.6 80.3C46.6 80.5 47.3 80.5 47.3 80.3H47.4Z" fill="#231F20"/>
<path d="M47.8 80.1999C46.7 74.0999 46.9 67.9 48.4 62C49.1 59.1 50.3 56.4 51.4 53.6C52.5 51 53.6 48.4 53.7 45.6C53.7 45 53.9 43.4 53.3 43C53 42.7 52.4 42.8 52.2 43.1C52 43.4 52.2 44.1 52.2 44.3C52.2 44.9 52.2 45.5 52.2 46.1C52.1 47.8 51.6 49.3 51 50.9C50 53.7 48.7 56.3 47.8 59.1C46.9 61.9 46.3 64.6 46 67.4C45.6 70.6 45.6 73.9 46 77.1C46 77.8 46.2 78.5 46.3 79.3C46.3 79.7 46.3 80.3999 46.7 80.6999C47.1 80.9999 47.7 80.9 47.9 80.5C48.2 80.1 47.5 79.7 47.3 80.1C47.4 79.9 47 78.1 47 78C47 77.4 46.9 76.7999 46.8 76.1999C46.7 74.9999 46.6 73.7 46.6 72.5C46.6 69.9 46.8 67.2999 47.3 64.6999C48.2 59.7999 50.3 55.5 52 50.9C52.8 48.8 53.4 46.3 53.1 44.1C53 43.3 53.1 44.5 53.1 44.8C53.1 45.4 53.1 46 53.1 46.6C53 47.9 52.6 49.2 52.1 50.5C50.4 55.2 48.2 59.6 47.3 64.6C46.3 69.9 46.4 75.2 47.3 80.5C47.3 81 48.1 80.8 48 80.3L47.8 80.1999Z" fill="#231F20"/>
<path d="M57.6 35.2C58.4 37.1 58.8 39.1 59.1 41.2C60.1 49.9 56.9 58.1 54 66.1C52.3 70.8 50.7 75.6 49.4 80.4C49.4 80.6 50 80.7 50.1 80.4C51.3 76.1 52.6 71.8 54.2 67.6C55.7 63.4 57.3 59.3 58.5 55C59.6 51 60.3 46.8 60 42.6C59.8 38.7 58.7 35 56.7 31.6C54.7 28 52 24.5 52.1 20.2C52.1 20 51.4 19.9 51.4 20.2C51.4 23.8 53.3 27 55.1 30C56.1 31.7 57.1 33.3 57.8 35.1L57.6 35.2Z" fill="#231F20"/>
<path d="M57.3 35.3001C60.8 44.5001 57.9 54.2 54.7 63C53 67.6 51.4 72.2001 50 76.8001C49.8 77.3001 49.7 77.9 49.5 78.4C49.4 78.9 48.9 79.8001 49 80.3001C49 80.6001 49.1 80.8 49.5 80.9C49.8 80.9 50.1 80.9 50.3 80.7C50.5 80.5 50.6 79.9 50.7 79.6C50.9 79 51.1 78.4001 51.2 77.8001C52.6 73.1001 54.2 68.5 55.9 64C57.6 59.5 59.2 54.8 59.9 50C60.6 45.6 60.6 41.2 59.3 36.9C58.1 32.9 55.5 29.7 53.8 25.9C53.2 24.7 52.8 23.5 52.6 22.2C52.5 21.6 52.7 20.4 52.3 19.9C52.1 19.7 51.5 19.6 51.2 19.9C50.7 20.3 51.1 21.5 51.2 22C51.9 26.9 55.6 30.8001 57.4 35.3001C57.6 35.7001 58.3 35.5 58.1 35.1C56.6 31.5 54.1 28.4 52.6 24.7C52.2 23.8 52 22.9 51.8 21.9C51.8 21.6 51.8 21.4 51.8 21.1C51.8 21.1 51.8 20.5 51.8 20.7C51.7 20.9 51.8 21.7 51.9 22C52.1 23.6 52.7 25.2 53.5 26.7C55.2 30.2 57.5 33.2 58.7 36.9C60 41.1 60 45.5001 59.4 49.8001C58.1 58.3001 54.3 66.2 51.7 74.4C51.4 75.4 51.1 76.4 50.8 77.4C50.6 77.9 50.5 78.5 50.3 79C50.3 79.2 49.9 80.4001 50.2 79.8001C50.6 78.9001 50.8 77.7001 51.1 76.8001C51.4 75.7001 51.8 74.6 52.1 73.6C53.4 69.5 54.9 65.5 56.3 61.5C59.3 53.1 61.6 43.8 58.3 35.1C58.1 34.7 57.4 34.9001 57.6 35.3001H57.3Z" fill="#231F20"/>
<path d="M57.6 169.2C55.2 160.2 51.9 151.5 48.6 142.7C44.9 132.9 41.7 122.9 41.4 112.3C41.2 105.3 42.3 98.3 44.9 91.8C46.2 88.7 47.8 85.6 49.9 82.9C50 82.8 50.1 82.7 50.2 82.5C49.9 82.8 49.3 82.9 49 83.2C47.4 84.9 46.2 87.1 45.1 89.2C42.3 94.7 40.8 100.9 40.3 107C39.4 118.7 42.4 129.8 46.3 140.6C49.4 149.1 52.8 157.5 55.3 166.2C58.7 177.9 60.7 190 61.5 202.2C62.6 219.9 61.2 237.6 58.6 255.1C58.2 257.8 57.8 260.5 57.3 263.2C57.3 262.9 58.4 262.8 58.5 262.5C61.6 244.1 63.5 225.4 62.9 206.7C62.5 194 60.8 181.3 57.5 169L57.6 169.2Z" fill="#231F20"/>
<path d="M58 169.1C54.9 157.5 50.1 146.5 46.4 135.2C42.7 123.9 40.5 112.3 42.8 100.6C44 94.3 46.4 87.7001 50.6 82.8001C50.9 82.4001 50.5 82.0001 50.1 82.3001C49.7 82.6001 49.3 82.7 48.9 83C48.5 83.3 48.2 83.8 47.9 84.2C47 85.4 46.2 86.6 45.5 88C44.2 90.4 43.1 92.9 42.3 95.5C40.5 101.1 39.8 106.9 39.9 112.8C40.2 124.8 44.3 136 48.4 147.1C52.8 158.7 56.7 170.4 58.9 182.7C61.2 195.2 61.9 207.9 61.6 220.6C61.2 234.9 59.5 249.2 57.2 263.4C57.2 263.8 57.6 264.1 57.9 263.7C58.1 263.5 58.6 263.5 58.9 263.3C59.2 263.1 59.2 262.9 59.2 262.5C59.5 260.9 59.7 259.3 60 257.7C60.5 254.6 60.9 251.5 61.3 248.4C62.1 241.9 62.8 235.4 63.2 228.8C64 216 63.8 203.1 62.2 190.3C61.3 183.2 59.9 176.2 58.1 169.4C58 168.9 57.2 169.1 57.4 169.6C63.9 194 64 219.5 61.1 244.5C60.7 248.2 60.2 251.9 59.6 255.6C59.3 257.4 59.1 259.2 58.8 260.9C58.7 261.7 58.7 262.5 58 263C57.7 263.2 57.5 263.2 57.3 263.5L58 263.8C62.1 239.4 64.3 214.4 60.9 189.8C59.2 177.6 56.1 165.8 51.9 154.3C47.8 142.9 42.8 131.6 41.3 119.5C40.4 112.9 40.6 106.2 42.1 99.7C42.9 96.4 44 93.2 45.5 90.2C46.2 88.8 46.9 87.4 47.8 86.1C48.2 85.4 48.7 84.7 49.3 84.2C49.7 83.8 50.3 83.6 50.8 83.2L50.3 82.7C46.7 86.9 44.4 92.4 43 97.7C41.5 103.3 41.1 109.2 41.5 115C42.3 127.1 46.8 138.3 51 149.5C53.5 156.1 55.8 162.8 57.6 169.7C57.7 170.2 58.5 170 58.3 169.5L58 169.1Z" fill="#231F20"/>
<path d="M46.5 122.1C46.9 121.3 47.4 120.5 48.1 120.1C48.8 119.7 49.9 119.6 50.5 120.3C51 120.8 51.1 121.5 51.1 122.2C51.1 123 50.9 123.8 50.5 124.4C50.3 124.8 49.9 125.2 49.6 125.5C48.1 127 46.7 128.6 44.9 129.8C42.8 131.2 44.4 127.9 44.6 127.3C45.2 125.6 45.7 123.7 46.5 122.1Z" fill="#231F20"/>
<path d="M46.8 122.3C47.2 121.5 47.7 120.6 48.6 120.3C49.6 120 50.4 120.4 50.6 121.4C50.8 122.3 50.6 123.5 50.1 124.2C49.6 124.9 48.8 125.7 48.1 126.4C47.4 127.1 46.7 127.8 45.9 128.5C45.5 128.8 45.1 129.1 44.8 129.4C44.6 129.5 44.3 129.6 44.1 129.8C44.1 129.5 44.1 129.3 44.2 129.1C44.3 128.7 44.5 128.2 44.7 127.8C45.5 126 45.9 124 46.7 122.3C46.9 121.9 46.3 121.5 46.1 121.9C45.2 123.8 44.7 125.9 43.9 127.8C43.7 128.4 42.8 130.4 43.9 130.5C44.6 130.5 45.5 129.7 46 129.3C47 128.5 47.9 127.6 48.8 126.7C49.6 125.9 50.5 125.1 50.9 124C51.3 123 51.4 121.7 51.1 120.7C50.7 119.6 49.6 119.1 48.5 119.4C47.3 119.7 46.5 120.8 46 121.8C45.8 122.2 46.4 122.6 46.6 122.2L46.8 122.3Z" fill="#231F20"/>
<path d="M48.5 149.4C47.5 149.2 46.5 148.8 45.6 148.3C44.6 147.7 43.6 147 42.5 146.8C41.4 146.6 40 147.1 39.7 148.2C39.5 149.2 40.2 150.2 41 150.8C42.9 152.2 45.3 152.7 47.6 152.3C48.2 152.2 50.4 151.8 50.7 151.1C51.1 150 49.2 149.6 48.6 149.4H48.5Z" fill="#231F20"/>
<path d="M48.6 149.1C47.3 148.8 46.1 148.2 45 147.5C44.1 146.9 43 146.3 41.9 146.4C41.1 146.4 40.2 146.7 39.6 147.4C39 148.2 39.1 149.2 39.6 150C40.8 151.9 43.3 152.7 45.4 152.8C46.3 152.8 47.3 152.8 48.2 152.6C49 152.4 49.8 152.3 50.4 151.8C51 151.4 51.2 150.6 50.7 150C50.2 149.4 49.3 149.2 48.6 149C48.1 148.9 47.9 149.6 48.4 149.7C49 149.9 51.3 150.5 49.8 151.2C48.6 151.8 47 152 45.7 152C43.9 152 42 151.4 40.7 150.1C40.1 149.5 39.6 148.4 40.3 147.7C40.8 147.1 41.8 147 42.5 147.1C43.5 147.3 44.4 148 45.3 148.5C46.3 149 47.3 149.4 48.4 149.7C48.9 149.8 49.1 149.1 48.6 149V149.1Z" fill="#231F20"/>
</svg>
