<svg width="69" height="265" viewBox="0 0 69 265" fill="none" xmlns="http://www.w3.org/2000/svg">
<path d="M65.3 118C64.7 118 64 118.1 63.4 118.3C64 117.9 64.5 117.5 65 117C65.8 116.3 67.1 115.2 67.1 114.1C67.1 112.2 64.1 113.8 62.9 114.5C63.9 113.4 64.6 112 63.2 111.3C62.2 110.8 61 111.3 60.1 111.8C58.7 112.6 57.5 113.7 56.4 114.9C56.2 115.1 56 115.3 55.8 115.5H55.6C55.4 115.5 55.3 115.5 55.1 115.6C54.8 115.8 54.5 116.1 54.3 116.4C53.6 117.3 50.9 120 51.3 121.1C51.3 121.1 51.3 121.3 51.4 121.3C49 122.7 46.7 124.4 44.6 126.2C38.1 131.8 33.1 138.9 29.8 146.7C28 151 26.6 155.5 25.8 160.1C25.8 155.1 25.8 150.1 26 145.1C26.8 140.3 29 135.9 31.6 131.8C33.7 128.6 36.1 125.6 38.8 122.8L39 122.6C39.5 123 40.2 122.2 40.5 121.9C41.8 120.9 43 119.9 44.2 118.8C45 118.1 45.7 117.2 45.8 116.3C46.6 115.6 47.3 114.9 48 114C49 112.7 50.2 110.8 50.2 109.1C50.2 107.9 48.9 107.9 48.1 108.4C47.4 108.8 46.9 109.4 46.4 110.1C46.4 110 46.4 109.8 46.5 109.7C46.8 108.6 47.3 107.3 47 106.2C46.8 105.5 46.1 105.2 45.5 105.5C44.5 106 43.9 107.4 43.5 108.3C43.5 108.5 43.4 108.6 43.3 108.7C43.3 107.9 43.3 107.1 43 106.4C42.8 106 42.6 105.7 42.1 105.7C41.2 105.7 40.6 106.9 40.3 107.6C39.8 108.9 39.6 110.4 39.5 111.8C39.5 112.2 39.5 112.7 39.5 113.1C39 113.1 38.7 113.7 38.7 114.2C38.4 116.2 38.8 118.2 39 120.2C39 120.5 38.8 121.6 38.9 122.1C37.5 123.4 36.3 124.8 35.1 126.3C32.2 129.8 29.5 133.6 27.6 137.8C27.1 138.8 26.7 139.9 26.3 140.9C26.3 140.7 26.3 140.4 26.3 140.2C26.8 133.6 28.2 127 29.4 120.4C31.6 108.7 33.9 97.1 36.2 85.4C36.5 84.4 37.2 83.3999 37.8 82.5999C38.8 81.2999 39.9 80 41 78.8C43.2 76.4 45.5 74.1 47.9 71.8C47.9 71.8 48 71.6999 48.1 71.5999C48.3 71.6999 48.5 71.8 49 71.8C50 71.8 51.2 71.3999 52.2 71.0999C52.5 71.0999 54.8 69.5 55.6 68.5C55.6 68.5 55.7 68.4 55.7 68.3C56.5 67.6 57.2 66.8999 57.9 66.0999C58.5 65.4999 59 64.7999 59.4 64.0999C59.7 63.6999 60 63.0999 60 62.5999C60 61.4999 58.5 61.8999 57.9 62.1999C57.5 62.3999 57.1 62.7 56.8 62.9C56.9 62.7 57.1 62.5 57.2 62.3C57.9 61.2 58.9 59.8999 59.1 58.5999C59.3 57.6999 58.6 57.2 57.7 57.4C56.5 57.8 55.6 59.1 54.9 60C55.3 59 56.1 56.9999 55.1 56.0999C54.1 55.2999 52.8 56 52.1 56.8C51 58.1 50.4 59.9 50 61.5C49.8 62.1 49.7 62.5999 49.5 63.1999C49.5 63.1999 49.3 63.4 49.3 63.5C48.2 65.5 48 67.7 48 69.9C48 70.5 48 70.7999 48 71.0999C47.8 71.2999 47.5 71.5 47.3 71.8C46.3 72.8 45.3 73.6999 44.3 74.6999C41.8 77.0999 39.4 79.6 37.2 82.4C37 82.6 36.8 82.8999 36.6 83.1999C37.7 77.7999 38.7 72.4 39.7 67C40.1 64.8 40.5 62.6 40.6 60.5L44.8 51.8C45.1 51.9 45.6 51.8 46.3 51.4C47.6 50.5 49 49.5999 50.2 48.5999C50.7 48.1999 51.2 47.6999 51.3 47.0999C51.9 46.6999 52.4 46.3 53 45.8C54.3 44.7 55.8 43.5 56.7 42C56.9 41.6 57.1 41.0999 56.9 40.6999C56.6 40.0999 55.8 40.0999 55.2 40.1999C54.2 40.3999 53.2 40.9999 52.3 41.6999C52.6 41.2999 52.9 40.9 53.1 40.5C53.7 39.4 54.5 38.2 54.7 36.9C54.8 36 54.3 35.3999 53.4 35.5999C52.4 35.7999 51.7 36.7999 51.2 37.6999C51.4 36.6999 51.6 34.9999 50.4 34.6999C49.4 34.3999 48.7 35.4999 48.3 36.1999C47.5 37.5999 47 39.0999 46.6 40.5999C46.4 41.2999 46.2 41.9 46.1 42.5C45.9 42.5 45.6 42.6 45.4 42.8C45.1 43.1 45 43.6 44.9 44C44.6 46 44.4 48 44.4 50C44.4 52 44.4 51.2999 44.7 51.5999C43.5 52.9999 41.7 55.6 40.8 59C40.8 57.8 40.8 56.6 40.5 55.3C39.8 50.7 38.1 46.3999 36 42.1999C35.5 41.0999 34.9 40 34.2 38.9C33 34.8 32.9 30.3999 33 26.0999C33 24.3999 33.2 22.7999 33.4 21.1999C34.4 21.0999 35 19.4999 35.4 18.6999C36 17.3999 36.4 15.9 36.6 14.5C36.6 14.2 36.7 11.8 36.6 10.8C36.6 10.6 36.6 10.5 36.8 10.3C37.3 8.90001 37.9 7.49994 38.3 6.09994C38.5 5.19994 38.8 4.29999 38.8 3.39999C38.8 2.79999 38.8 1.99994 38.3 1.59994C37.2 0.699938 35.8 2.19999 35.3 2.89999C34.6 3.79999 34 4.79999 33.5 5.89999C33.5 5.49999 33.5 5.09991 33.5 4.69991C33.5 3.49991 33.5 2.09999 33.1 0.899986C32.9 0.199986 32.3 -0.300087 31.6 0.199913C30.7 0.799913 30.7 2.30001 30.7 3.30001C30.7 3.80001 30.7 4.29999 30.7 4.89999C30.1 3.59999 29.2 1.99991 28.2 2.69991C27.5 3.19991 27.3 4.29994 27.3 5.09994C27.3 6.49994 27.8 7.89994 28.5 9.09994C28.9 9.89994 29.4 10.7 30 11.4C29.8 11.8 29.8 12.2999 29.8 12.5999C30 14.1999 30.2 15.8 30.7 17.4C31 18.3 31.7 20.2 32.7 20.9C32.4 22.8 32.3 24.6999 32.2 26.6999C32.1 29.7999 32.2 32.9 32.6 35.9C30.2 32 27.6 28.4 24.6 24.9C24.9 24.6 25 24.1 24.9 23.4C24.6 20.6 23.3 17.9999 21.3 16.0999C21.3 16.0999 21.3 16.0999 21.2 16.0999C21 15.7999 20.9 15.3999 20.7 15.0999C19.7 13.1999 18.8 11.2999 17.5 9.69991C17 8.99991 15.4 7.49994 14.9 9.09994C14.6 10.0999 14.9 11.3 15.2 12.3C15.2 12.6 15.4 13 15.5 13.3C15.3 13.1 15.1 12.7999 14.9 12.5999C14.2 11.7999 13.4 10.8 12.4 10.5C11.7 10.3 10.9 10.5 10.9 11.4C10.9 12.5 11.7 13.6 12.3 14.5C12.5 14.8 12.8 15.2 13 15.5C12.7 15.3 12.3 15 11.9 14.8C11.1 14.4 9.60001 13.7 8.90001 14.8C8.30001 15.8 9.20001 16.8999 9.90001 17.5999C11 18.6999 12.4 19.5 13.8 20.3C14.6 20.8 15.5 21.1999 16.3 21.5999V21.8C17.1 23.2 18.5 24.0999 19.9 24.5999C20.9 24.9999 22.3 25.5 23.3 25.4C26.4 29 29.2 32.9999 31.7 37.0999C32.2 37.8999 32.6 38.7 33.1 39.4C37.1 46.4 40.5 54.4999 39.6 62.5999C39.2 66.0999 38.4 69.5999 37.7 73.0999C37.3 75.0999 36.9 77.1999 36.5 79.1999C35.8 75.5999 33.9 72.1 31 69.9C29.8 69.1 29 67.7999 28.2 66.6999C27.1 65.1999 26.1 63.5999 25.1 62.0999C24.8 61.6999 24.6 61.3 24.3 60.9C24.4 60.7 24.5 60.4 24.4 60C24 57.8 23.4 55.5999 22.5 53.5999C22.4 53.2999 22.3 53 22 52.9C21.7 52.2 21.4 51.5 21 50.8C20.5 49.7 19.9 48.4 19 47.5C18.5 47 17.8 46.9999 17.6 47.6999C17.4 48.3999 17.4 49.2999 17.6 50.0999C17.4 49.8999 17.2 49.6 17 49.4C16.4 48.8 15.7 48.1 14.8 47.9C14.2 47.8 13.5 47.8999 13.4 48.5999C13.4 49.3999 14 50.4 14.5 51C14.7 51.3 15 51.6 15.2 51.9C14.9 51.7 14.5 51.6 14.1 51.5C13.3 51.3 11.9 51.0999 11.6 52.0999C11.3 52.8999 12.1 53.8 12.6 54.3C13.4 55.2 14.4 55.9999 15.3 56.6999C15.8 57.0999 16.4 57.5 17 57.9V58.0999C17 58.3999 17.4 58.7 17.7 58.9C18.4 59.5 21.6 61.2 23.4 61.3C24.6 63.2 25.7 65 27 66.8C27.9 68 28.8 69.4 30 70.4C30.5 70.8 31.1 71.2 31.6 71.8C32.3 72.6 33 73.4 33.5 74.3C35.1 76.8 36 79.6999 36.1 82.5999C35.9 83.6999 35.7 84.8 35.4 85.9C34.7 89.3 34 92.6999 33.4 96.0999C33.2 94.8999 31.9 92.5999 31.6 92.0999C30.8 90.5999 29.8 89.0999 28.3 88.1999C28.1 88.0999 27.8 87.9 27.5 87.9C27.2 87.9 26.9 88 26.9 88.3C26.9 88.5 26.9 88.6 26.9 88.8C27.4 90.9 28.4 92.9999 29.8 94.5999C30.2 95.0999 32.3 97.2999 33.3 96.6999C32.2 102.5 31 108.2 29.9 114C28.4 121.6 27 129.2 26 136.9C26 137.5 25.9 138 25.8 138.6C24.8 136.6 23.1 135 21.3 133.6C21.1 133.4 20.9 133.3 20.6 133.3C20.2 133.3 19.9 133.5 19.8 133.9C19.6 134.2 19.6 134.6 19.8 135C20 135.9 20.6 136.7 21.2 137.4C22.1 138.4 23.2 139.3 24.3 140.1C24.7 140.4 25.3 140.7 25.7 140.8C25.6 142.3 25.5 143.9 25.4 145.4C25.4 145.4 25.4 145.4 25.4 145.5C25.2 150 25.2 154.5 25.3 159C25.3 160.6 25.3 162.3 25.3 163.9C21.3 160.2 17.2 156.5 13.2 152.8C12.9 152.5 12.5 152.2 12.1 151.8C12.1 151.8 12.1 151.6 12.1 151.5C11.7 149.4 11.6 147.3 10.7 145.3C10.6 144.9 10.4 144.5 10.3 144.1C9.79997 142.4 9.19996 140.4 8.09996 138.9C7.29996 137.9 6.00001 138.1 5.90001 139.5C5.90001 140.2 6 141 6.2 141.7C5.6 140.9 4.90001 139.8 3.90001 139.6C3.00001 139.4 2.30001 140.1 2.40001 140.9C2.50001 142.2 3.5 143.4 4.2 144.4C4.6 144.9 5.00001 145.4 5.40001 145.9C4.00001 145.2 2.19996 144.7 1.09996 145.7C-1.00004 147.6 3.19999 149.6 4.49999 150.2C5.19999 150.5 5.79999 150.8 6.49999 151C6.49999 151.1 6.7 151.2 6.7 151.3C7 151.6 7.39997 151.8 7.79997 151.9C8.79997 152.3 9.89999 152.7 11 152.9C11.4 152.9 11.6 152.9 11.8 152.9C15.3 156.1 18.9 159.4 22.5 162.6C23.4 163.5 24.4 164.3 25.3 165.2C25.3 165.5 25.3 165.9 25.2 166.3C25.2 166.3 25.2 166.2 25.4 166.1C25.4 169.6 25.6 173 25.9 176.5C23.9 175.1 22.1 173.3 20.7 171.3C20.5 171 20.3 170.7 20 170.5C19.7 170.3 19.3 170.3 19 170.5C18.8 170.7 18.7 171.1 18.7 171.4C18.7 172.3 19.1 173.1 19.5 173.8C20.7 175.9 22.3 177.8 24.2 179.4C24.6 179.7 25.2 180.4 25.7 180.5C25.9 180.5 26 180.5 26.1 180.5C26.3 183.8 26.6 187 27 190.3C26.2 189.2 25.5 188.1 24.7 187.1C23.9 186.1 22.7 185 21.5 185.4C21.5 186.9 22.3 188.3 23.2 189.6C24 190.7 24.9 191.8 25.8 192.8C26.3 193.3 26.8 193.8 27.4 194.1C27.8 197.4 28.3 200.8 29 204.1C29.8 208 30.4 211.9 30.6 215.9C31.1 225.2 30.6 234.5 29.8 243.8C29.3 249.9 28.6 256 27.7 262C27.7 262.3 27.7 262.6 27.6 263C27.6 262.8 28.5 262.7 28.6 262.4C30.6 249.1 31.8 235.6 31.8 222.1C31.8 217.7 31.6 213.3 31 208.9C30.8 207.7 30.6 206.4 30.4 205.2C32.2 205.2 33.9 204.2 34.9 202.7C36 201 36.3 198.9 36.4 196.9C35.8 196.7 35.1 197.1 34.6 197.6C33.4 198.7 32.3 200 31.4 201.3C31.2 201.6 30.5 202.7 30.1 203.6C29.6 201.3 29.2 199 28.8 196.7C28.7 195.9 28.6 195 28.5 194.2C29.1 194.2 29.7 193.8 30.2 193.4C30.9 192.8 31.4 191.9 31.9 191.2C33.2 189.4 34.8 187.5 34.7 185.3C34.7 185 34.6 184.6 34.3 184.5C34.1 184.5 33.9 184.5 33.7 184.7C31.9 186.2 30.8 188.3 29.4 190.1C28.9 190.7 28.5 191.2 28.1 191.2C27.7 187.4 27.3 183.7 27.1 179.9C28.1 178.9 29.1 177.9 30 176.8C30.6 176.1 31.2 175.4 31.6 174.5C32.1 173.5 32.4 172.5 32.7 171.4C32.9 170.8 33 170.2 32.7 169.7C32.3 169.2 31.5 169.2 30.9 169.7C30.3 170.2 30.1 170.7 29.8 171.3C29.2 172.7 28.6 174.1 28 175.5C27.8 176 27.5 176.6 27 176.7C26.8 173.1 26.6 169.4 26.5 165.8C26.5 165.3 26.5 164.8 26.5 164.3C27.7 154 31 144 36.9 135.4C40.5 130.1 45.1 125.3 50.5 121.6C50.9 121.3 51.4 121 51.8 120.8C51.8 120.8 52 120.7 52.1 120.6C53 121.6 56.5 121.7 57.5 121.7C59 121.7 60.5 121.5 61.9 121.2C62.1 121.2 62.3 121.2 62.3 120.9C62.3 120.9 62.3 120.8 62.3 120.7C62.9 120.7 63.4 120.6 64 120.5C65.2 120.3 67.5 119.8 67.9 118.5C68.3 117.3 66.5 117.3 65.8 117.3L65.3 118ZM40.6 109.4C40.8 108.4 41.1 107.1 41.9 106.3C42 106.2 42.2 106.1 42.4 106C42.4 106 42.6 106.2 42.6 106.3C42.8 106.8 42.8 107.3 42.8 107.9C42.8 109 42.7 110 42.5 111.1C42.5 111.3 43 111.3 43.1 111.1C43.4 110.2 43.7 109.2 44.1 108.3C44.3 107.9 45.7 104.9 46.4 105.7C46.7 106.1 46.6 106.8 46.5 107.2C46.5 107.9 46.3 108.5 46.1 109.2C45.9 110.1 45.6 110.9 45.2 111.8C45.2 111.9 45.7 112 45.7 111.8C46.2 110.9 46.9 110 47.6 109.2C47.9 108.9 48.8 107.8 49.3 108.2C49.7 108.4 49.5 109.2 49.4 109.5C49.1 111.2 48.1 112.8 47 114.1C46.6 114.6 46.1 115.1 45.6 115.6C44.7 115.4 44.1 116.6 43.2 116.7C43.1 116.7 43 116.7 42.9 116.7C42.7 116.5 42.8 116.2 42.9 115.9C43.2 115.5 43.6 115.2 43.9 114.8C44.2 114.4 44.1 113.7 43.7 113.5C43.2 113.3 42.7 113.8 42.3 114.2C42.1 114.5 41.8 114.8 41.5 115C41.3 115.1 41.2 115.2 41 115.2C40.5 115.2 40.3 114.6 40.2 114.2C40.2 113.9 40.1 113.6 40 113.4C40 112 40 110.6 40.3 109.3L40.6 109.4ZM50.1 66.5C50.1 65.7 50.2 64.8 50.1 64C50.1 64 50.1 63.7999 50.1 63.6999C50.5 61.8999 51.1 60.1 51.9 58.5C52.3 57.7 53.6 55.5 54.7 56.4C55.7 57.2 54.9 59.1999 54.5 60.0999C54.1 61.1999 53.6 62.3 53 63.3C53 63.5 53.5 63.5 53.5 63.3C54.5 61.5 55.7 59.6 57.3 58.3C57.6 58.1 58.2 57.5 58.5 57.8C58.8 58.1 58.6 58.6 58.5 59C58.2 60.2 57.4 61.4 56.7 62.4C56.2 63.2 55.6 63.8999 55.1 64.5999C55.1 64.6999 55.5 64.7999 55.6 64.5999C56.2 63.9999 56.9 63.4 57.6 62.8C57.9 62.6 58.7 61.9 59.1 62C59.6 62 59.4 62.7 59.3 63C58.8 64.2 57.8 65.2999 56.9 66.1999C56.5 66.6999 56 67.0999 55.5 67.5999C55.3 67.4999 55 67.4999 54.7 67.5999C54.2 67.7999 53.7 68.1 53.3 68.5C53 68.8 52.6 69.0999 52.2 69.0999C51.7 69.0999 51.5 68.4 51.6 67.9C51.7 67.4 52.1 66.9999 52.3 66.5999C52.5 66.1999 52.8 65.6999 52.6 65.1999C51.9 65.1999 51.2 65.8 51 66.5C51 66.8 50.8 67.2 50.5 67.3C50.3 67.3 50 67.2 49.9 66.9C49.8 66.6 49.9 66.3999 49.9 66.0999L50.1 66.5ZM48.1 38C48.3 37.4 48.6 36.7999 48.9 36.1999C49.1 35.8999 49.4 35.1999 49.8 35.1999C50.3 35.1999 50.6 35.9 50.7 36.3C50.8 37 50.7 37.7 50.5 38.4C50.3 39.5 49.8 40.5999 49.4 41.6999C49.4 41.8999 49.9 41.7999 49.9 41.6999C50.2 40.9999 50.5 40.2999 50.8 39.6999C51.3 38.5999 52 37.2999 52.9 36.5999C53.3 36.2999 53.8 36.0999 54 36.5999C54.2 36.9999 54 37.5 54 37.9C53.7 39 53.1 40.0999 52.5 41.0999C52.1 41.7999 51.6 42.4999 51.2 43.1999C51.2 43.2999 51.7 43.1999 51.7 43.1999C52.6 42.3999 53.7 41.5999 54.9 41.0999C55.5 40.8999 56.4 40.7999 56.5 41.5999C56.5 42.0999 56.2 42.6 55.9 43C54.9 44.3 53.6 45.4 52.4 46.4C52.1 46.6 51.8 46.8999 51.5 47.0999V46.9C51.5 46.9 51.5 46.6999 51.4 46.6999C51.2 46.4999 50.9 46.7 50.7 46.8C50.5 47 50.3 47.3 50.1 47.5C49.9 47.7 49.5 47.7999 49.2 47.6999C48.8 47.3999 49 46.9 49.2 46.5C49.5 45.8 49.8 45.2 49.8 44.4C49.8 44.2 49.8 44.1 49.7 44C49.7 44 49.5 43.9 49.3 43.9C48.6 43.9 48.1 44.7 47.9 45.4C47.9 45.7 47.8 45.9999 47.5 46.1999C47.2 46.3999 46.8 46.3999 46.7 46.1999C46.7 46.1999 46.7 46 46.7 45.9C46.7 45.3 46.7 44.6999 46.8 44.0999C46.8 43.7999 46.8 43.3999 46.6 43.0999C47 41.3999 47.5 39.6999 48.2 38.0999L48.1 38ZM20.9 20.1999C20.9 20.1999 20.7 20.1999 20.5 20.1999C20 20.1999 19.5 19.7 19.1 19.3C18.8 19 18.4 18.7 18 18.9C17.7 19 17.6 19.3999 17.7 19.6999C17.8 19.9999 18 20.2 18.2 20.4C18.5 20.7 18.9 20.8999 19.2 21.1999C19.5 21.4999 19.6 22 19.4 22.3C18.7 22.3 17.9 22.1 17.4 21.5C17.1 21.2 16.8 20.7999 16.4 21.0999C16.2 21.0999 16.2 21.3 16.2 21.5C14.6 20.7 13.1 19.9 11.7 18.9C10.8 18.3 9.69997 17.4 9.29997 16.3C9.19997 15.9 9.29996 15.3 9.59996 15C10.1 14.6 10.8 14.9999 11.3 15.1999C12.2 15.6999 13.1 16.3 13.8 17C13.8 17 14.5 17.2 14.3 17C13.7 16.3 13.2 15.6 12.6 14.9C12 14.1 11 12.6999 11.2 11.5999C11.5 10.0999 13.3 12 13.8 12.5C14.4 13.2 15 13.8999 15.5 14.6999C15.5 14.6999 16.1 14.8999 16 14.6999C15.5 13.1999 15 11.5 15.1 9.89999C15.1 9.59999 15.1 9.19996 15.4 8.99996C15.6 8.79996 15.8 8.99991 16.1 9.19991C16.8 9.79991 17.2 10.6 17.7 11.3C18.7 12.9 19.5 14.4999 20.4 16.1999C20.2 16.1999 20.1 16.5 20.1 16.8C20.1 17.1 20.2 17.3999 20.3 17.5999C20.6 18.1999 20.8 18.8999 20.8 19.5999C20.8 19.7999 20.8 19.9999 20.7 20.0999L20.9 20.1999ZM32.5 12.1999C32.5 12.5999 32.7 12.9 32.7 13.3C32.7 13.7 32.3 14.1 31.9 13.9C31.7 13.9 31.6 13.7 31.5 13.5C31.3 13.1 31.3 12.5999 31.1 12.1999C30.9 11.8999 30.6 11.5999 30.3 11.5999C29 9.79994 27.6 7.39991 27.7 5.19991C27.7 4.39991 28 3.79991 28.4 3.19991C29.6 3.99991 30.1 5.69996 30.6 6.99996C30.6 7.19996 31.2 6.99996 31.2 6.99996C31 5.29996 30.9 3.09996 31.5 1.49996C31.6 1.19996 31.8 0.699962 32.2 0.999962C32.5 1.29996 32.6 1.79991 32.7 2.19991C32.9 3.29991 33 4.39996 33 5.49996C33 6.29996 33 7.00001 33 7.80001C33 8.00001 33.5 7.80001 33.5 7.80001C34.1 6.40001 34.8 5.00001 35.7 3.80001C36 3.30001 37 1.90001 37.7 2.30001C38.3 2.70001 38.3 3.79999 38.2 4.39999C38 6.39999 37.3 8.39991 36.6 10.1999C36.5 10.4999 36.4 10.8 36.3 11C35.8 11.2 35.6 11.8 35.4 12.3C35.2 12.9 34.8 13.6 34.2 13.5C34 13 34.2 12.4999 34 12.0999C33.9 11.5999 33.4 11.2 33 11.4C32.7 11.6 32.6 12 32.6 12.4L32.5 12.1999ZM21.3 56.3C20.8 56.4 20.3 56.1 19.8 55.8C19.3 55.5 18.8 55.2999 18.3 55.5999C18.1 55.9999 18.5 56.4999 18.9 56.6999C19.3 56.8999 19.7 57.3 19.6 57.8C19.6 58.1 19.1 58.3 18.8 58.3C18.5 58.3 18.2 58 17.9 57.8C17.7 57.7 17.6 57.5 17.4 57.5C17.2 57.5 17.1 57.4999 17 57.6999C16 56.9999 14.9 56.2 14 55.3C13.3 54.7 12.6 53.9999 12.2 53.1999C12.1 52.8999 12 52.6 12.1 52.3C12.4 51.7 13 51.7 13.6 51.9C14.4 52.1 15.3 52.5999 16 53.0999C16 53.0999 16.6 53.1 16.5 53C16 52.5 15.6 52 15.2 51.5C14.7 50.9 13.7 49.7 14 48.8C14.3 47.7 16 49.2999 16.3 49.6999C16.8 50.1999 17.3 50.7 17.7 51.3C17.7 51.3 18.3 51.3 18.2 51.3C18.1 50.5 18 49.8 18 49C18 48.8 18 48.5 18 48.3C18 48.2 18 48.1 18.1 48V47.9C18.4 48 18.6 48.3999 18.8 48.5999C19.5 49.5999 20.1 50.7 20.6 51.8C20.8 52.3 21.1 52.8 21.3 53.3C21.3 53.3 21.2 53.3 21.1 53.4C21.1 53.5 21 53.7 21 53.8C21 54.7 21.6 55.7 21.2 56.5L21.3 56.3ZM10.3 149.5C10.2 149.7 9.89997 149.5 9.79997 149.2C9.59997 148.9 9.39996 148.5 9.09996 148.2C8.99996 148 8.79996 147.9 8.59996 147.9C8.39996 147.9 8.2 148.1 8.2 148.3C8.2 148.5 8.20001 148.7 8.40001 148.9C8.70001 149.4 9.00001 149.9 9.40001 150.3C9.60001 150.5 9.80001 150.7 9.90001 151C10 151.3 9.9 151.6 9.7 151.8C9.3 152.1 8.79999 151.6 8.49999 151.3C7.79999 150.7 6.89999 150.4 5.99999 150.4C5.99999 150.5 5.99999 150.7 5.99999 150.8C4.79999 150.3 3.50001 149.7 2.40001 149C1.70001 148.5 0.699974 147.8 0.799974 146.9C0.799974 145.3 2.7 145.6 3.7 145.9C4.5 146.2 5.29996 146.6 6.09996 147.1C6.09996 147.1 6.69996 147.1 6.59996 146.9C5.29996 145.5 3.99996 144 3.09996 142.3C2.89996 141.9 2.19997 139.9 3.29997 140C3.79997 140 4.19999 140.6 4.49999 140.9C4.89999 141.3 5.19999 141.8 5.49999 142.3C5.99999 143.1 6.49997 143.8 6.79997 144.6C6.79997 144.8 7.39997 144.6 7.29997 144.6C6.79997 143.4 6.29996 142.1 6.09996 140.8C6.09996 140.4 5.69997 139 6.29997 138.8C6.69997 138.6 7.29999 139.6 7.49999 139.9C8.39999 141.5 8.99999 143.2 9.49999 145C9.49999 145.2 9.6 145.4 9.7 145.6C9.6 146.2 9.7 146.7 9.7 147.3C9.9 148 10.3 148.6 10.2 149.3C10.2 149.3 10.2 149.4 10.2 149.5H10.3ZM66.8 119.3C66.2 120.5 64.1 120.9 62.9 121.1C62.5 121.1 62.1 121.2 61.7 121.3C61.2 120.7 60.6 120.4 59.9 120.2C59.1 120 58.3 120.1 57.5 120.2C57.5 119.8 58 119.5 58.3 119.3C58.6 119.1 58.9 118.6 58.8 118.2C58.6 117.8 58.1 117.7 57.7 117.9C57.3 118.1 57 118.4 56.7 118.7C56.3 119.1 55.7 119.5 55.2 119.1C55.1 118.7 55.2 118.2 55.6 117.8C56 117.4 56.2 117 56.3 116.6C56.3 116.4 56.3 116.2 56.3 116C57.2 115 58.3 114 59.3 113.2C60.1 112.5 61.5 111.4 62.6 111.5C64.3 111.7 63.2 113.6 62.6 114.3C61.9 115.1 61.1 115.8 60.3 116.4C60.3 116.4 60.7 116.6 60.8 116.5C61.5 116 62.1 115.5 62.8 115.1C63.4 114.7 64 114.4 64.6 114.1C65 113.9 65.8 113.4 66.2 113.6C67.3 113.9 65.4 116.1 65 116.4C64 117.4 62.8 118.5 61.5 118.9C61.2 118.9 61.7 119.2 61.9 119.1C62.7 118.9 63.5 118.7 64.3 118.5C65 118.4 67.4 117.9 66.7 119.4L66.8 119.3Z" fill="#231F20"/>
<path d="M65.3 117.6C64.6 117.6 64 117.8 63.3 117.9L63.6 118.6C64.8 117.8 68.5 115.3 67.4 113.4C66.5 111.9 63.8 113.7 62.8 114.2L63.3 114.8C64.3 113.6 65.3 111.5 63.1 110.9C60.9 110.3 58.3 112.8 56.8 114.3C56.4 114.7 56.1 115 55.7 115.1C55.3 115.2 55.1 115.3 54.8 115.5C54.2 116 53.6 116.9 53.1 117.5C52.3 118.5 50.6 120.2 51.4 121.5V121C37.4 129.1 28.8 144.4 25.7 160H26.4C26.4 156.5 26.4 152.8 26.4 149.2C26.4 147.4 26.4 145.6 26.8 143.8C27.1 142.2 27.6 140.7 28.2 139.3C30.7 133.2 34.8 127.5 39.5 122.8H39C39.6 123.1 40.1 122.8 40.6 122.4C41.7 121.5 42.9 120.6 43.9 119.6C44.8 118.8 45.6 118 46.1 117C46.7 115.8 47.9 114.9 48.6 113.8C49.3 112.7 51.6 109.5 50.3 108.1C49 106.7 47 108.9 46.2 109.8L46.8 110.2C47.2 109 48.5 105.4 46.3 105.1C44.5 104.8 43.5 107.4 43 108.7H43.7C43.7 107.4 43.2 104.3 41.1 105.9C39.2 107.5 39.3 111 39.2 113.2L39.5 112.8C37.3 113.4 38.4 117.8 38.6 119.3C38.6 120.3 38.9 121.6 38.2 122.4C37.2 123.6 36 124.7 35 125.9C31.2 130.4 27.9 135.3 25.9 140.8H26.6C27.3 131.2 29.5 121.5 31.3 111.9C32.2 107.2 33.1 102.4 34.1 97.6999C34.6 95.2999 35.1 92.8 35.6 90.4C36.1 88.2 36.2 85.5999 37.5 83.6999C40.4 79.2999 44.6 75.6 48.3 71.9H47.8C49.1 72.8 51.6 71.8999 52.8 71.1999C54.5 70.1999 55.8 68.8 57.2 67.4C58.2 66.4 60.9 64 60.3 62.3C59.7 60.6 57.4 62.0999 56.6 62.6999L57.1 63.1999C57.9 62.0999 60.6 58.8 59 57.4C57.4 56 55.3 58.9 54.6 60L55.3 60.3C55.7 59.2 56.3 57.7 55.8 56.6C55.3 55.5 54 55.4 53.1 55.8C51.8 56.4 51 57.9 50.5 59.1C50.1 60 49.8 61 49.5 62C49.3 62.8 48.9 63.5 48.5 64.3C47.8 66 47.6 67.8 47.5 69.6C47.5 70 47.5 70.4 47.5 70.8C47.5 71.3 47.5 71.1999 47 71.6999C46.3 72.3999 45.5 73.1 44.8 73.8C41.8 76.7 38.8 79.7 36.3 83.1L37 83.4C37.8 79.2 38.7 75 39.5 70.8C39.9 68.7 40.3 66.6 40.6 64.5C40.8 63.3 40.6 61.8 41.1 60.6C41.6 59 42.7 57.4 43.4 55.9L45.2 52.1999L44.8 52.4C45.6 52.6 46.3 52.0999 47 51.6999C48.1 50.9999 49.2 50.2 50.2 49.4C51 48.7 51.5 47.7999 52.3 47.1999C53.2 46.3999 54.2 45.7 55.1 44.9C56 44.1 58.3 42 57.2 40.6C56.1 39.2 53.3 40.8999 52.2 41.6999L52.7 42.1999C53.5 40.8999 56.2 37.5 54.8 35.9C53.4 34.3 51.5 36.6999 50.9 37.6999L51.6 38C51.8 36.8 52 34.8 50.4 34.5C48.5 34.1 47.5 37.1 47 38.4C46.8 39.1 46.5 39.7 46.3 40.4C46.1 41 46 41.9 45.6 42.4C45.3 42.7 45.1 42.7 44.9 43.1C44.7 43.5 44.6 43.9 44.6 44.4C44.4 45.8 44.2 47.3 44.1 48.8C44.1 49.9 43.9 51.1 44.4 52.1V51.6999C42.6 53.8999 41.2 56.4999 40.5 59.1999H41.2C41.2 52.7999 38.6 46.6 35.6 40.9C35.4 40.6 35.3 40.2 35.1 39.9C35.1 39.8 34.7 39.4 34.7 39.4C34.5 39 34.5 38.1999 34.4 37.6999C34 35.8999 33.8 33.9999 33.6 32.1999C33.4 28.6999 33.6 25.1 34 21.6L33.7 22C34.7 21.8 35.2 20.8 35.6 20C36.2 18.7 36.8 17.3 37 15.9C37.2 14.9 37.2 13.9 37.2 12.9C37.2 11.9 37.2 11.6 37.2 10.9C37.4 10 37.9 9.09996 38.2 8.09996C38.7 6.69996 40.4 2.00001 37.9 1.40001C35.7 0.900013 33.9 4.69994 33.2 6.19994L33.9 6.40001C33.9 5.00001 34.4 0.39994 32.2 0.19994C30 -6.0305e-05 30.2 4.10001 30.2 5.40001L30.9 5.19994C30.5 4.29994 29.8 2.59994 28.5 2.69994C27.4 2.69994 27 4.09999 26.8 4.99999C26.6 6.79999 27.3 8.59994 28.2 10.1999C28.4 10.5999 28.7 11 28.9 11.4C29.1 11.7 29.2 11.8999 29.4 12.1999C29.4 12.1999 29.3 12.2 29.3 12.4C29.3 13.1 29.3 13.9 29.5 14.6C29.7 16.3 30.1 18 30.8 19.6C31.1 20.3 31.5 20.8 31.9 21.4C32.3 22.1 32 22.8999 31.9 23.6999C31.5 27.9999 31.4 32.3999 32.1 36.6999L32.8 36.4C30.4 32.5 27.7 28.8 24.8 25.3V25.6999C26.1 23.9999 24.6 20.7 23.6 19.1C22.9 18 21.9 17.2 21.3 16.1C20.5 14.8 19.9 13.3 19.1 12C18.5 11 17 8.09999 15.3 8.49999C13.3 8.89999 14.7 12.8 15 13.9L15.6 13.5C14.8 12.4 12.6 9.60004 10.9 10.8C9.20001 12 11.8 15.0999 12.6 16.1999L13.1 15.6999C12.1 14.9999 10.7 14.1 9.49998 14.4C8.39998 14.7 8.09998 15.9 8.49998 16.8C9.09998 18.2 10.7 19.2 12 20C12.9 20.6 13.9 21.1 14.8 21.6C15.3 21.9 15.8 22 16.1 22.5C16.3 22.8 16.5 23.1 16.7 23.3C17.8 24.5 19.2 25.1 20.7 25.6C21.4 25.8 22.3 25.8 22.9 26.1C23.8 26.5 24.5 27.8 25.1 28.6C26.6 30.5 27.9 32.4 29.3 34.4C29.9 35.3 30.5 36.2999 31.1 37.1999C31.6 37.9999 32.5 39 32.7 39.9C32.7 40.2 33.1 40.3 33.3 40.1C33.1 40.1 32.9 40.1 32.7 40.1C36 45.9 38.8 52.2 39.2 58.9C39.4 62.3 38.8 65.7 38.1 69C37.4 72.5 36.7 76.1 36 79.6H36.7C35.9 76 34.2 72.7 31.3 70.4C29.5 68.9 28.1 66.9 26.8 65C26.1 64 25.5 63.1 24.9 62C24.6 61.4 24.6 61.5 24.6 60.9C24.6 60.6 24.6 60.4 24.6 60.1C24.3 58 23.6 55.7 22.7 53.8C22.5 53.4 22.2 53 22 52.6C21.5 51.7 21.1 50.7 20.7 49.8C20.3 48.9 19.3 46.8999 18 47.1999C16.6 47.4999 17 49.7 17.1 50.6L17.7 50.1999C16.8 49.1999 14.8 46.8999 13.3 48.1999C11.9 49.3999 14 51.6 14.8 52.5L15.3 51.9C14.3 51.4 12.7 50.8 11.7 51.6C10.5 52.5 11.4 53.7999 12.2 54.6999C13 55.5999 13.8 56.3 14.7 57C15.3 57.4 16.2 57.9 16.6 58.4C16.9 58.8 17.1 59.2 17.6 59.6C18.2 60 18.8 60.3999 19.4 60.6999C20 60.9999 20.7 61.3 21.4 61.6C21.8 61.8 22.2 61.8 22.6 62C23.1 62.2 23.1 62.3 23.5 62.8C24.8 64.8 26.1 66.9 27.6 68.8C28.9 70.5 30.7 71.6 32 73.3C33.5 75.2 34.7 77.5 35.2 79.8C35.6 81.3 35.7 82.7 35.4 84.3C35.2 85.4 35 86.5 34.8 87.5C34.2 90.5 33.6 93.5 33 96.5H33.7C33.2 94.5 32 92.2999 30.8 90.6999C30.3 89.9999 27.2 86.6 26.5 88.8C26.2 89.7 27 91.2 27.4 92.1C28 93.4 28.7 94.6 29.6 95.6C30.4 96.5 32.1 98.3 33.4 97.6L32.9 97.1999C31.5 104.3 30.1 111.4 28.7 118.6C27.3 125.8 26.1 132.3 25.4 139.3L26.1 139.1C25.4 137.9 20.9 131.4 19.4 134.3C18.7 135.6 19.9 137.2 20.8 138.1C22.1 139.5 23.7 140.9 25.5 141.7L25.2 141.3C25.1 142.8 25.2 144.5 24.9 146C24.9 146.4 25.4 146.7 25.6 146.3L24.9 146.1C24.6 152.2 24.7 158.4 24.9 164.5L25.5 164.2C22.5 161.4 19.5 158.6 16.4 155.9C15.6 155.2 14.9 154.5 14.1 153.8C13.4 153.2 12.6 152.6 12.3 151.8C11.8 150.1 11.9 148.2 11.2 146.5C10.7 145.1 10.3 143.7 9.79997 142.3C9.39997 141.2 8.90001 139.7 7.90001 139C7.30001 138.5 6.39997 138.4 5.79997 139C4.99997 139.9 5.49997 141.5 5.79997 142.4L6.49998 142.1C5.69998 140.9 3.59997 138.5 2.29997 140.5C0.99997 142.5 4.09999 145.5 5.19999 146.8L5.69999 146.2C4.49999 145.6 2.89996 145 1.59996 145.6C0.699958 146 -2.99811e-05 146.9 0.29997 147.9C0.89997 150.3 4.29996 150.8 6.09996 151.9C6.69996 152.3 7.10001 152.7 7.90001 153C8.90001 153.4 9.99996 153.8 11.1 154H11.8C12.2 154.1 12.6 154.6 12.9 154.9C13.8 155.7 14.7 156.5 15.6 157.3C17.4 158.9 19.1 160.5 20.9 162.2C21.7 162.9 22.5 163.7 23.3 164.4C23.7 164.8 24.2 165.1 24.5 165.5C25 166.1 25 166.2 25 166.9C25 167.2 25.4 167.3 25.6 167.2L25.8 167L25.2 166.7C25.2 170.2 25.4 173.6 25.7 177.1L26.3 176.8C24.1 175.5 22.6 173.4 21 171.5C20.2 170.5 18.7 170.3 18.6 171.9C18.4 173.9 20.2 176 21.4 177.4C22.2 178.3 23 179.2 23.9 180C24.6 180.6 25.3 181.4 26.3 181.6L26 181.2C26.2 184.5 26.5 187.7 26.9 191L27.6 190.8C26.3 188.9 24.5 185.2 21.7 185.7C21.5 185.7 21.4 185.9 21.4 186.1C21.4 188.2 22.7 189.9 24 191.6C24.6 192.4 25.3 193.2 26 194C26.3 194.3 26.7 194.6 27 194.9C27.5 195.3 27.5 195.8 27.6 196.5C28.3 201.8 29.7 207.1 30.3 212.5C31.5 223.3 30.7 234.3 29.8 245.1C29.3 251.3 28.6 257.5 27.7 263.7C27.7 264 28.1 264.4 28.3 264.1C28.6 263.7 29.1 263.8 29.4 263.4C29.7 263 29.6 261.9 29.7 261.4C29.7 260.7 29.9 260.1 30 259.4C30.3 257 30.6 254.6 30.9 252.2C31.5 247 31.9 241.8 32.2 236.6C32.8 226.4 33 216.1 31.2 206L30.8 206.5C35.4 206.5 37 201.7 37.1 197.8C37.1 197.6 37 197.5 36.8 197.4C35.2 197.1 33.9 198.8 33 199.9C31.9 201.2 30.9 202.7 30.1 204.3H30.8C30.2 201.3 29.6 198.2 29.2 195.1L28.9 195.5C30.9 195.1 31.8 193.3 32.9 191.7C34 190.1 35.6 188.2 35.4 186.1C35.2 184.4 33.9 185.1 33.1 185.9C32.3 186.7 31.7 187.6 31 188.5C30.3 189.5 29.4 191.4 28.2 191.7L28.7 192.1C28.5 190.3 28.3 188.5 28.1 186.7C28.1 185.8 27.9 184.8 27.9 183.9C27.9 183.1 27.6 182.1 27.7 181.3C27.8 180.5 28.7 179.9 29.2 179.4C29.8 178.8 30.3 178.1 30.9 177.5C31.8 176.4 32.4 175.2 32.8 173.9C33.1 173 33.6 171.8 33.2 170.9C32.9 170.1 32 169.9 31.3 170.1C30.2 170.4 29.8 171.6 29.4 172.6C29.1 173.4 28.7 174.2 28.4 174.9C28.1 175.6 27.8 177 26.9 177.4L27.5 177.7C27.4 175.4 27.3 173 27.2 170.7C27.1 168.4 26.9 166.1 27.2 163.9C27.8 159.8 28.7 155.8 30 151.9C32.5 144.1 36.6 136.8 42.1 130.7C45.1 127.4 48.6 124.4 52.4 122.1H51.9C53.3 123.5 63.2 123.8 62.7 121.8L62.3 122.3C64.1 122.1 67 121.9 68.1 120.2C69.2 118.5 67.1 118 65.9 118.1C65.4 118.1 65.4 118.9 65.9 118.9C66.3 118.9 67 118.9 67.3 119.1C68.3 119.8 66.8 120.6 66.2 120.8C65 121.3 63.6 121.5 62.4 121.6C62.2 121.6 62 121.8 62 122.1C62 122.3 57.2 122.6 56.5 122.5C55.3 122.5 53.4 122.5 52.5 121.5C52.4 121.4 52.2 121.4 52 121.5C37.7 130.2 29.4 146.1 26.7 162.2C25.9 167.3 26.5 172.7 26.7 177.8C26.7 178.1 27 178.2 27.3 178.1C28.1 177.7 28.4 176.9 28.8 176C29.3 174.8 29.8 173.5 30.4 172.3C30.5 172 30.7 171.7 30.9 171.5C31.1 171.1 31.5 170.8 32 170.8L32.6 172C32.6 172.5 32.3 173.2 32.1 173.7C31.6 175.2 30.8 176.5 29.8 177.7C29 178.6 28 179.5 27.2 180.4C26.6 181.2 27 182.5 27.2 183.4C27.4 186.3 27.7 189.2 28.1 192.1C28.1 192.3 28.3 192.5 28.6 192.5C29.7 192.2 30.3 191 30.9 190.2C31.4 189.5 31.9 188.8 32.4 188.1C32.7 187.7 33 187.3 33.3 187C33.7 186.6 33.8 186.2 34.4 186.4C35.6 187 33.1 190.3 32.6 191.1C31.6 192.6 30.7 194.5 28.8 194.9C28.7 194.9 28.5 195.1 28.5 195.3C28.9 198.5 29.5 201.6 30.1 204.8C30.1 205.1 30.6 205.2 30.8 204.8C31.3 203.7 32 202.7 32.7 201.7C33.4 200.7 35.3 198 36.7 198.2L36.4 197.8C36.4 201.2 35 205.7 30.8 205.7C30.5 205.7 30.4 205.9 30.4 206.2C32.2 215.9 32 226 31.5 235.8C31.2 240.7 30.8 245.7 30.3 250.6C30 253 29.8 255.4 29.4 257.7C29.2 259 29 260.3 28.9 261.6C28.9 261.9 28.9 262.3 28.7 262.6C28.7 262.9 28.5 263.2 28.2 263.2C28.2 263.2 27.9 263.4 27.8 263.5L28.4 263.9C29.9 253.4 31 242.8 31.4 232.2C31.6 226.8 31.7 221.4 31.4 216C31.1 210.9 29.9 205.9 29.1 200.9C28.8 199.4 28.6 197.9 28.4 196.4C28.4 196 28.4 195.1 28.1 194.8C27.8 194.4 27.1 194.2 26.7 193.8C25.7 192.8 24.8 191.6 24 190.5C23.1 189.3 22.2 187.9 22.2 186.3L21.9 186.7C24.2 186.3 25.9 189.9 26.9 191.4C27.1 191.7 27.6 191.6 27.6 191.2C27.3 187.9 27 184.7 26.7 181.4C26.7 181.2 26.6 181.1 26.4 181C25.4 180.9 24.7 180 24 179.3C23.4 178.8 22.9 178.2 22.3 177.6C21.1 176.3 19.8 174.6 19.3 172.9V172.1C19.8 171.5 20.2 171.6 20.4 172.2C20.6 172.4 20.8 172.7 20.9 172.9C21.4 173.5 21.8 174.1 22.3 174.6C23.3 175.7 24.5 176.7 25.7 177.5C25.9 177.6 26.3 177.5 26.3 177.2C26.1 173.7 26 170.3 25.8 166.8C25.8 166.5 25.4 166.3 25.2 166.5L25 166.7L25.6 167C25.6 166.6 25.8 166.1 25.6 165.7C25.4 165.1 24.3 164.5 23.8 164.1C22.4 162.9 21.1 161.6 19.7 160.3C18.3 159 16.9 157.7 15.5 156.5C14.7 155.8 14 155.1 13.2 154.4C12.8 154 12.4 153.4 11.8 153.2C11.6 153.2 11.3 153.2 11 153.2C10.5 153.2 9.99996 153 9.59996 152.9C9.19996 152.8 8.79998 152.6 8.49998 152.5C7.69998 152.2 7.39999 151.8 6.69999 151.4C5.79999 150.9 4.69999 150.6 3.69999 150.1C2.69999 149.6 1.69996 149 1.09996 148.2C0.499958 147.4 1.09996 146.5 2.09996 146.2C3.09996 145.9 4.29999 146.4 5.19999 146.9C5.59999 147.1 5.89999 146.6 5.69999 146.3C4.79999 145.2 3.79999 144.1 3.19999 142.9C2.59999 141.7 2.79997 142.2 2.79997 141.9L3.59996 140.6L4.40001 140.8C5.10001 141.2 5.50001 141.9 5.90001 142.5C6.10001 142.8 6.69996 142.6 6.59996 142.2C6.49996 141.8 6.40001 141.4 6.40001 140.9C6.40001 140.2 6.20001 140.1 6.90001 139.7C7.70001 139.2 7.79997 139.7 8.29997 140.3C8.49997 140.5 8.59999 140.8 8.69999 141C9.29999 142.2 9.69996 143.6 10.1 144.9C10.5 146.1 10.9 147.1 11.2 148.3C11.3 149 11.4 149.6 11.5 150.3C11.5 150.9 11.5 151.8 11.8 152.4C12 152.8 12.5 153.1 12.8 153.4C13.4 153.9 13.9 154.4 14.5 155C15.6 156 16.8 157.1 17.9 158.1C20.3 160.3 22.7 162.5 25.1 164.7C25.3 164.9 25.8 164.7 25.7 164.4C25.6 158.3 25.5 152.1 25.7 146C25.7 145.6 25.2 145.5 25 145.8L25.7 146.1C26 144.5 25.9 142.8 26 141.2C26 141 25.9 140.9 25.7 140.8C24.5 140.3 23.3 139.4 22.3 138.4C21.6 137.7 20 136.4 20.1 135.3C20.2 133.2 22.8 135.8 23.3 136.3C24.2 137.2 24.9 138.2 25.5 139.3C25.7 139.7 26.2 139.5 26.2 139.1C26.9 132.1 28.3 125.1 29.6 118.2C30.9 111.3 32.3 104.3 33.7 97.4C33.7 97.1 33.5 96.8 33.2 97C32.3 97.4 30.7 95.6 30.2 95C29.5 94.1 28.9 93.1 28.4 92.1C28.2 91.6 27.9 91.1 27.8 90.6C27.8 90.3 27.6 90 27.6 89.8C27.4 89.4 27.4 89.2 27.9 89.3C29.3 88.8 31.1 92.1 31.6 93.1C32.2 94.3 32.9 95.5 33.3 96.8C33.3 97.1 34 97.2 34 96.8C34.8 92.6 35.7 88.3 36.5 84.1C37.2 80.6 35.6 76.6 33.6 73.8C32.5 72.3 31.1 71.4 29.9 70.1C28.4 68.6 27.2 66.6 26 64.9C25.4 64 24.8 63.1 24.2 62.1C23.8 61.4 23.7 61.5 22.9 61.3C21.4 61 20 60.2 18.7 59.4C18.5 59.2 18.1 59.1 17.9 58.9C17.7 58.7 17.7 58.3999 17.5 58.1999C16.9 57.3999 15.7 56.9 15 56.3C14.1 55.6 13.2 54.8 12.6 53.8C12.1 52.9 12.8 52.2 13.7 52.3C14.3 52.3 14.9 52.6 15.4 52.8C15.8 53 16.1 52.5999 15.9 52.1999C15.5 51.6999 13.2 49.2 14.9 48.8C15.9 48.6 17.2 50.3 17.7 50.9C18 51.2 18.4 50.9 18.3 50.5C18.3 50.4 18.1 49.2 18.3 49L19.5 48.6C19.7 48.8 19.9 49.1 20.1 49.4C20.5 50.1 20.9 50.8 21.2 51.5C21.9 52.9 22.7 54.1999 23.2 55.6999C23.8 57.2999 24.5 59.1 24.5 60.9C24.5 62.7 24.4 61.5999 24.8 62.1999C25.3 62.9999 25.8 63.8 26.3 64.5C27.2 65.9 28.2 67.2999 29.2 68.6999C30.1 69.8999 31.2 70.7999 32.3 71.6999C34.7 73.8999 36.1 76.9 36.8 80C36.8 80.4 37.5 80.4 37.5 80C38.2 76.3 39 72.6 39.7 68.9C40.4 65.5 40.9 62.1 40.7 58.6C40.2 51.9 37.4 45.6 34.1 39.9C34 39.7 33.7 39.6 33.5 39.9C33.7 39.9 33.9 40 34.1 40.1C34 39.5 33.4 38.9 33.1 38.4C32.7 37.7 32.3 37.1 31.9 36.4C31 34.9 30 33.4 29 32C28.1 30.7 27.1 29.3 26.1 28.1C25.6 27.5 24.9 26.3 24.3 25.9C23.9 25.7 23.3 25.6999 22.8 25.6999C21.2 25.3999 19.6 24.7 18.4 23.6C17.9 23.2 17.6 22.4 17.2 22C16.8 21.6 15.8 21.3 15.2 21C13.6 20.1 12 19.2 10.7 17.9C10.5 17.7 10.1 17.3 9.90001 17C9.10001 15.2 10.4 15.2 11.2 15.4C12 15.6 12.6 16.1 13.3 16.5C13.6 16.7 14 16.3 13.8 16C13.4 15.5 13.1 15 12.7 14.5C12.5 14.2 12.3 13.9 12.1 13.6L11.8 12.9C11.5 12.3 11.6 12 12.2 11.9C12.8 11.6 13 11.7 13.5 12.1C13.8 12.3 14.1 12.5 14.3 12.8C14.8 13.3 15.2 13.8 15.6 14.3C15.8 14.6 16.3 14.3 16.2 13.9C15.9 13 15.6 12 15.5 11C15.5 10.5 15.5 9.49996 16.3 9.59996C16.6 9.59996 17 10.1 17.3 10.4C18.6 11.8 19.5 13.6 20.3 15.3C20.6 15.9 20.9 16.6999 21.3 17.1999C21.9 17.9999 22.6 18.6 23.1 19.4C24 20.8 25.6 24.1 24.5 25.6C24.5 25.7 24.5 25.9 24.5 26C27.4 29.5 30 33.1 32.4 36.9C32.6 37.3 33.2 37 33.1 36.6C32.6 33.1 32.6 29.5 32.8 26C32.8 25.2 32.9 24.4 33 23.6C33 23 33.4 22.1 33.2 21.6C33.1 21.2 32.6 20.9 32.4 20.6C32 20 31.7 19.3999 31.5 18.6999C31 17.3999 30.7 15.9 30.5 14.5C30.5 14 30.3 13.5 30.3 13C30.3 13.2 30.5 12.4 30.5 12.3C30.5 11.9 30.1 11.5999 29.9 11.1999C28.9 9.79994 28 8.00004 27.9 6.30004C27.9 5.90004 27.9 5.39999 27.9 4.99999C28.1 4.39999 28.1 4.19996 28.8 4.09996C29.5 3.99996 29.6 4.20004 30 4.80004C30.2 5.10004 30.4 5.50001 30.5 5.90001C30.6 6.30001 31.2 6.09994 31.2 5.69994C31.2 5.09994 31.2 0.0999641 32.9 1.59996C33.4 2.09996 33.4 3.60004 33.4 4.30004C33.4 5.10004 33.4 6.00004 33.4 6.80004C33.4 7.20004 33.9 7.29999 34.1 6.99999C34.6 5.89999 35.2 4.80001 36 3.90001C36.3 3.50001 36.7 3.10004 37.1 2.80004C38.1 2.20004 38.8 3.40004 38.7 4.30004C38.7 5.50004 38.3 6.70004 37.9 7.80004C37.5 8.90004 36.7 10.3 36.6 11.5C36.5 12.7 36.7 14 36.6 15.3C36.5 16.7 36 18.1 35.4 19.3C35 20.1 34.6 21.4 33.6 21.6C33.4 21.6 33.3 21.8 33.3 22C32.9 25 32.8 28.0999 32.9 31.1999C32.9 32.5999 33 34 33.2 35.4C33.2 36.1 33.4 36.7 33.5 37.4C33.5 37.7 34.1 39.5 34.1 39.5C34.1 39.6 34.1 39.8 34.1 39.9C37.5 46 40.5 52.6999 40.6 59.6999C40.6 60.0999 41.2 60.1999 41.3 59.6999C42 56.9999 43.4 54.6 45.1 52.5C45.2 52.4 45.2 52.2 45.1 52.1C44.5 51 44.9 49.1 45 47.9C45 46.9 45 43.8 46.3 43.5C46.4 43.5 46.5 43.3999 46.6 43.1999C47.1 41.2999 47.6 39.3 48.5 37.6C48.7 37.1 49.4 35.5999 50.1 35.6999L51.2 36.4C51.2 36.7 51.2 36.8999 51.2 37.1999C51.2 37.5999 51.2 37.9 51.1 38.3C51.1 38.7 51.6 39 51.8 38.6C52.2 38 52.6 37.4 53.2 37C53.6 36.8 54.4 36.7 54.7 37.1C54.9 37.5 54.5 38.3999 54.4 38.6999C53.9 39.9999 53.1 41.0999 52.4 42.1999C52.2 42.4999 52.6 42.8999 52.9 42.6999C53.5 42.1999 54.2 41.8 54.9 41.5C55.1 41.5 55.9 41.0999 56.2 41.1999L56.8 42.5C56.7 42.7 56.5 42.9 56.4 43.1C55.5 44.3 54.3 45.2999 53.2 46.1999C52.7 46.5999 52 47 51.5 47.5C51 48 50.9 48.5 50.4 49C49.6 49.7 48.8 50.3 48 50.8C47.4 51.2 46.2 52.3 45.4 52.1C45.2 52.1 45.1 52.1 45 52.3C44.4 53.5 43.8 54.8 43.2 56C42.4 57.6 41.5 59.1 40.9 60.8C40.5 61.9 40.6 63.4 40.4 64.6C40.1 66.7 39.7 68.8 39.3 70.9C38.5 75.2 37.6 79.5 36.8 83.8C36.8 84.2 37.2 84.4 37.5 84.1C39.6 81.3 42 78.8 44.4 76.4C45.5 75.3 46.6 74.2 47.7 73.1C48 72.8 48.7 72.4 48.8 71.9C48.9 71.5 48.8 70.8 48.8 70.4C48.8 68.8 49 67.1999 49.5 65.6999C49.8 64.8999 50.3 64.3 50.5 63.5C50.7 62.8 50.9 62.1 51.1 61.4C51.6 59.9 52.2 58 53.6 57.1C54.3 56.7 55.4 56.4 55.8 57.6C55.9 58 55.8 58.5 55.8 58.9C55.7 59.5 55.5 60 55.3 60.6C55.1 61 55.8 61.2 56 60.9C56.4 60.3 56.8 59.8 57.3 59.3C57.6 59.1 57.9 58.7 58.3 58.6C58.6 58.3 58.9 58.5 59 59C59.4 59.2 59.5 59.6 59.3 59.9C59.1 61.1 57.9 62.4 57.3 63.3C57.1 63.6 57.5 64 57.8 63.8C58.3 63.4 59 62.8 59.6 62.8C61.2 62.8 59.2 65.2999 58.9 65.6999C58 66.7999 56.9 67.8 55.9 68.9C55.1 69.7 54.2 70.4 53.2 71C52.2 71.6 50 72.3999 49 71.6999C48.9 71.6999 48.7 71.6999 48.5 71.6999C45.1 74.9999 41.7 78.2 38.7 81.9C38.1 82.7 37.4 83.5 36.9 84.4C36.4 85.3 36.3 86.4 36.1 87.4C35.6 89.8 35.1 92.2999 34.6 94.6999C32.6 104.7 30.6 114.8 28.8 124.9C27.8 130.3 26.8 135.7 26.5 141.2C26.5 141.6 27.1 141.7 27.2 141.2C29.1 135.9 32.3 131.1 35.9 126.8C36.8 125.8 37.7 124.8 38.6 123.8C39.3 123.1 39.8 122.8 39.9 121.8C39.9 120.6 39.9 119.6 39.9 118.5C39.9 117.6 39.2 114 40.4 113.7C40.6 113.7 40.7 113.5 40.7 113.3C40.7 111.7 40.8 110.1 41.3 108.6C41.5 108 41.7 107.2 42.2 106.8L42.6 106.5L43.6 107.2C43.8 107.5 43.7 108.5 43.7 109C43.7 109.5 44.3 109.5 44.4 109C44.6 108.5 44.9 107.9 45.2 107.4C45.7 106.6 45.8 106.3 46.7 106.4C47.4 106.2 47.7 106.4 47.5 107.2C47.5 107.6 47.5 108 47.3 108.4C47.2 109 47 109.5 46.8 110.1C46.7 110.4 47.2 110.8 47.4 110.5C47.8 109.9 48.7 108.8 49.4 108.7C50.1 108.6 50.6 109.3 50.5 110C50.5 110.5 50.2 111 50 111.5C49.3 113.1 48.1 114.6 46.8 115.8C46.2 116.4 46.3 116.6 45.9 117.4C45.4 118.2 44.7 118.8 44 119.5C43.3 120.2 42.5 120.7 41.8 121.3C41.5 121.5 40.3 122.7 40 122.5C39.8 122.5 39.7 122.5 39.5 122.5C34.9 127.2 30.7 132.8 28.2 138.9C27.6 140.4 27 142 26.7 143.6C26.4 145.2 26.3 146.9 26.2 148.6C26.1 152.5 26.1 156.4 26.2 160.3C26.2 160.7 26.9 160.8 26.9 160.3C29.9 144.9 38.4 129.7 52.4 121.7C52.6 121.7 52.6 121.4 52.5 121.2C52 120.3 53.5 118.8 54 118.2C54.4 117.8 55.8 115.7 56.5 116C56.6 116 56.8 116 56.9 116C58 114.9 59.1 113.8 60.4 112.9C61 112.5 61.6 112.1 62.4 111.9C62.8 111.8 63.2 111.7 63.6 111.9L64.4 113.2C64.4 113.6 63.7 114.4 63.5 114.6C63.2 114.9 63.5 115.4 64 115.2C64.8 114.8 66.7 113.5 67.4 114.2C68.4 115.2 64.7 117.9 64.1 118.3C63.8 118.5 64 119.1 64.4 119C65 118.9 65.6 118.8 66.2 118.7C66.7 118.7 66.7 117.9 66.2 117.9H66.1L65.3 117.6Z" fill="#231F20"/>
<path d="M41 109.5C41.2 108.3 41.5 107 42.6 106.4H42.1C42.5 106.8 42.5 107.6 42.5 108.2C42.5 109 42.5 109.8 42.3 110.5C42.3 110.9 42.1 111.3 42.6 111.5C42.9 111.5 43.3 111.5 43.5 111.3C43.7 111.1 43.7 110.7 43.8 110.4C43.9 110 44.1 109.7 44.2 109.3C44.4 108.9 44.5 108.5 44.7 108.2C45 107.6 45.4 106.9 45.8 106.3C45.8 106.2 46 106.1 46.1 106C46.4 106.3 46.1 107.4 46.1 107.8C46 108.5 45.8 109.2 45.6 109.9C45.6 110.2 45.4 110.6 45.3 110.9C45.3 111.2 45 111.6 45 111.9C45 112.2 45.3 112.4 45.7 112.4C46.3 112.4 46.4 112 46.7 111.6C47.3 110.7 48 109.7 48.9 109C49 109 49.3 108.7 49.4 108.8C49.5 108.9 49.4 109.4 49.4 109.6C49.3 110.4 49 111.1 48.6 111.8C47.9 113.2 46.9 114.5 45.7 115.6L46.3 115.9C46.3 115.7 46.2 115.6 46 115.5C45.5 115.5 45 115.5 44.6 115.9C44.4 116.1 44.1 116.3 43.9 116.4L43.5 116.6L43.8 116.2C44.2 115.8 44.7 115.4 44.8 114.7C44.8 114.2 44.8 113.7 44.2 113.5C43.7 113.3 43.1 113.5 42.7 113.9C42.4 114.2 42.2 114.5 41.9 114.7C41.7 114.9 41.4 115.2 41.1 115.1C41 115.1 40.9 114.8 40.9 114.7C40.9 114.4 40.7 114.1 40.7 113.8C40.6 113.4 40.7 112.9 40.7 112.5C40.7 111.6 40.8 110.6 41 109.7C41 109.2 40.4 109 40.3 109.5C40.1 110.4 40 111.3 40 112.3C40 112.8 40 113.3 40 113.7C40 114 40.2 114.4 40.3 114.7C40.4 115.2 40.7 115.8 41.3 115.9C42.1 115.9 42.7 115.1 43.1 114.6C43.3 114.4 44 113.7 44.1 114.4C44.1 114.8 43.8 115.2 43.5 115.4C43.1 115.8 42.6 116.3 42.8 116.9C43 117.5 43.8 117.3 44.2 117.1C44.6 116.9 45.2 116.1 45.8 116.2L45.5 115.8C45.5 116.1 45.9 116.3 46.1 116.1C47.2 115.1 48.1 113.9 48.8 112.7C49.4 111.7 50 110.4 50 109.1C50 108.1 49.1 107.8 48.4 108.3C47.5 109 46.7 109.9 46.1 110.8C45.9 111.1 45.6 111.4 45.6 111.7C45.7 111.9 45.8 111.9 45.8 111.7C45.8 111.7 45.9 111.3 46 111.2C46.3 110.4 46.5 109.6 46.7 108.8C46.9 108 47.5 106.2 46.7 105.5C45.6 104.5 44.3 107.3 44 108C43.8 108.5 43.5 109 43.3 109.5C43.1 109.9 43 110.3 42.9 110.7C42.9 110.7 42.7 111.2 42.9 111C42.9 111 42.9 110.4 42.9 110.3C43 109.4 43.1 108.5 43.1 107.6C43.1 106.9 43 106.3 42.5 105.8C42.4 105.7 42.2 105.7 42 105.8C40.7 106.6 40.3 108 40.1 109.4C40.1 109.9 40.7 110.1 40.8 109.6L41 109.5Z" fill="#231F20"/>
<path d="M50.5 66.5C50.5 65.6 50.5 64.7 50.5 63.7C50.5 63.3 50.7 62.8 50.8 62.4C50.9 61.9 51.1 61.5 51.2 61C51.7 59.7 52.2 58.2 53.2 57.1C53.6 56.7 54.3 56.3 54.6 57.1C54.8 57.7 54.6 58.5 54.4 59C54.2 59.7 53.9 60.4 53.6 61C53.4 61.4 53.3 61.7 53.1 62.1C52.9 62.4 52.5 62.9 52.5 63.3C52.5 63.7 53 63.9 53.4 63.8C54 63.7 54.3 62.7 54.6 62.3C55.1 61.5 55.6 60.7 56.2 60C56.7 59.4 57.2 58.7 57.9 58.3C58.5 58 58.3 58.5 58.2 58.9C58.1 59.4 57.9 59.8 57.6 60.3C57.2 61.1 56.6 61.9 56.1 62.6C55.8 63 55.6 63.4 55.3 63.7C55.1 63.9 54.8 64.2 54.7 64.5C54.7 65 55.1 65.2 55.5 65.1C55.9 65.1 56.1 64.7 56.3 64.5C56.6 64.2 57 63.9 57.3 63.6C57.6 63.3 58 63.1 58.3 62.8C58.6 62.6 59.1 62.2 59 62.8C58.8 63.7 58.1 64.5 57.5 65.2C56.8 66 56 66.8 55.3 67.5H55.8C55.3 67.2 54.9 67.3 54.5 67.5C54.2 67.7 53.9 67.8 53.6 68C53.3 68.2 53.1 68.6 52.8 68.7C52.2 68.9 52 68.4 52.2 68C52.3 67.6 52.6 67.3 52.8 67C53.2 66.4 53.4 65.9 53.2 65.2C53.2 65 52.9 64.9 52.7 64.9C52.1 64.9 51.6 65.3 51.2 65.7C51 65.9 50.9 66.1 50.8 66.4C50.8 66.4 50.8 66.8 50.7 66.8L50.4 66.6C50.4 66.5 50.4 66.3 50.4 66.2C50.4 65.7 49.7 65.7 49.6 66.2C49.6 66.9 49.8 68 50.8 67.7C51.2 67.5 51.3 67.2 51.4 66.9C51.6 66.2 52.1 65.8 52.8 65.7L52.3 65.4C52.5 66.3 51.5 67 51.3 67.9C51.2 68.4 51.3 69 51.7 69.3C52.1 69.7 52.7 69.6 53.1 69.3C53.6 69 54.6 67.8 55.4 68.1C55.6 68.1 55.7 68.1 55.9 68.1C56.9 67.2 57.9 66.2 58.7 65.1C59.2 64.4 60.1 63.3 59.8 62.4C59.5 61.5 58.5 61.9 58 62.2C57.7 62.4 55.3 64.4 55.3 64.4V64.8C55.4 64.6 55.8 64.3 55.9 64.1C56.1 63.8 56.4 63.5 56.6 63.2C57.1 62.5 57.6 61.8 58 61.1C58.4 60.3 59.4 58.7 58.9 57.8C57.8 55.9 54.4 61.2 53.9 61.9C53.7 62.2 53.5 62.5 53.3 62.8C53.4 62.6 53.1 63.1 53.1 63C53.1 63.6 53.5 62.8 53.5 62.8C53.9 62.1 54.2 61.4 54.5 60.7C54.9 59.7 55.3 58.7 55.4 57.6C55.4 56.8 55 55.8 54.1 55.8C53.2 55.8 52.4 56.6 52 57.3C51.2 58.5 50.7 59.9 50.2 61.2C50.1 61.6 50 62 49.9 62.4C49.8 62.8 49.6 63.2 49.6 63.7C49.6 64.2 49.6 64.6 49.6 65C49.6 65.5 49.6 66 49.6 66.5C49.6 67 50.3 67 50.4 66.5H50.5Z" fill="#231F20"/>
<path d="M48.5 38.1C48.7 37.5 49 37 49.3 36.4C49.5 36.1 49.8 35.3 50.2 35.7C50.5 36 50.5 36.8 50.4 37.2C50.4 37.8 50.1999 38.4 50.0999 38.9C49.8999 39.5 49.7 40.1 49.5 40.7C49.4 41 49 41.5 49.2 41.9C49.5 42.4 50.3 42 50.5 41.6C51 40.6 51.4 39.6 51.9 38.6C52.2 38.1 52.5 37.7001 52.8 37.3001C53 37.1001 53.2 36.8001 53.4 36.8001C53.8 36.6001 53.9 36.9001 53.9 37.3001C53.7 38.4001 53.1 39.5 52.5 40.5C52.2 41 51.8999 41.5 51.5999 42C51.3999 42.3 51 42.7 50.9 43.2C50.9 43.3 50.8999 43.5 51.0999 43.5C51.8999 43.9 52.5999 42.9 53.0999 42.5C53.5999 42.1 54.0999 41.8 54.5999 41.6C54.8999 41.4 55.6 41.1 56 41.4C57.2 42.2 51.9 46.4 51.2 46.9L51.8 47.1C51.7 46.4 51.1 46.1 50.5 46.4C50.2 46.6 50 47 49.7 47.2C48.9 47.9 49.2 46.8 49.4 46.4C49.7 45.7 50.2 44.8 49.9 44C49.7 43.4 49 43.3 48.4 43.6C47.8 43.9 47.5 44.6 47.3 45.2C47.3 45.4 47.1 46.2001 46.9 45.8001C46.9 45.7001 46.9 45.2 46.9 45.1C46.9 44.6 46.9 44.1 46.9 43.6C46.9 43.3 46.7 43.1001 46.7 42.8001C46.7 42.5001 46.9 42.1 46.9 41.9C46.9 41.7 46.9999 41.4 47.0999 41.2C47.3999 40.1 47.8 39.1 48.2 38C48.4 37.6 47.7 37.4001 47.5 37.8001C47.1 38.8001 46.7 39.9 46.4 41C46.2 41.5 46.1 42.1 46 42.6C45.9 43.1 46.1 43.3 46.2 43.7C46.2 44.2 46.2 44.7 46.2 45.2C46.2 45.5 46.2 45.9 46.2 46.2C46.5 46.7 47.2999 46.5 47.5999 46.2C47.7999 45.9 47.9 45.5 48 45.2C48 44.9 48.5 43.9 49 44.1C49.6 44.3 48.4 46.3001 48.3 46.8001C48.3 47.4001 48.5 48 49.2 48C49.9 48 49.8 47.9 50 47.7C50.2 47.6 50.3 47.4 50.4 47.2C50.6 47 50.9 46.6 50.9 47.1C50.9 47.4 51.3 47.4001 51.5 47.3001C52.7 46.4001 53.9 45.4001 55 44.3001C55.7 43.6001 57.0999 42.2 56.5999 41.1C56.2999 40.3 55.2 40.3 54.5 40.6C53.8 40.8 53.2 41.2 52.7 41.6C52.4 41.8 52.2 42 51.9 42.2C51.7 42.3 51.6 42.5 51.4 42.6C51.4 42.6 51.1 42.6 51.2 42.7L51.4 43C51.4 43 51.7 42.6 51.8 42.5C51.9 42.3 52.1 42.1001 52.2 41.8001C52.5 41.3001 52.7999 40.8001 53.0999 40.3001C53.5999 39.4001 54.1 38.5 54.3 37.5C54.4 36.9 54.2999 35.9001 53.5999 35.8001C52.7999 35.7001 52.2 36.5 51.8 37C51.2 37.7 50.8 38.6 50.4 39.4C50.2 39.8 50 40.3 49.8 40.7C49.8 40.8 49.7999 41 49.5999 41.1L49.4 41.4H49.5C49.5 41.7 49.6 41.7 49.7 41.6C49.7 41.6 49.8 41.3 49.9 41.2C50.3 40.1 50.7 39 50.9 37.9C51 37.1 51.0999 36.2 50.5999 35.5C49.3999 33.5 47.8 37.2 47.5 38C47.3 38.4 48 38.6 48.2 38.2L48.5 38.1Z" fill="#231F20"/>
<path d="M20.8 19.8001C19.9 20.2001 18.3 17.2 17.5 19C16.8 20.6 19.6 20.9 19.2 22.2L19.6 21.9001C19.1 21.9001 18.6 21.9 18.1 21.5C17.8 21.3 17.5 20.9 17.1 20.7C16.5 20.5 16.1 20.9 16 21.5L16.6 21.2C15.3 20.6 14.1 19.9 12.9 19.1C11.9 18.4 10.7 17.7 10.1 16.6C9.69996 15.9 9.90001 14.9001 10.9 15.3001C11.5 15.5001 12.1 15.9001 12.6 16.3001C13.1 16.7001 14.1 18.0001 14.9 17.4001C14.9 17.4001 15 17.2 14.9 17C14.8 16.7 14.5 16.4 14.2 16.1C13.8 15.6 13.5 15.1 13.1 14.6C12.6 13.9 12.1 13.2001 11.8 12.3001C11.8 12.1001 11.6 11.4001 11.9 11.4001C12.1 11.4001 12.5 11.7001 12.6 11.8001C13 12.1001 13.4 12.5 13.8 13C14.1 13.4 14.5 13.8 14.8 14.2C15 14.5 15.2 14.9 15.5 15.1C15.8 15.3 16.5 15.3001 16.5 14.8001C16.5 14.4001 16.3 13.9 16.1 13.6C15.9 13.1 15.8 12.5 15.7 12C15.6 11.5 15.5 10.9001 15.5 10.4001C15.5 9.90005 15.5 9.80001 15.5 9.60001C15.6 9.40001 15.6 9.60001 15.8 9.60001C15.9 9.60001 16 9.80005 16.1 9.90005C16.9 10.8001 17.5 11.9 18.1 13C18.8 14.1 19.3 15.3 19.9 16.5V16C19.5 16.4 19.4 16.9 19.6 17.5C19.7 17.9 19.9 18.3 20 18.7C20 18.9 20.4 19.8 20.2 20C19.9 20.4 20.4 20.9 20.7 20.5C21 20.1 20.9 19.6 20.8 19.2C20.8 18.9 20.6 18.5 20.5 18.2C20.4 17.9 19.9 17 20.2 16.7C20.4 16.6 20.4 16.4 20.3 16.2C19.6 14.8 18.9 13.4 18.1 12.1C17.5 11 16.7 9.50005 15.6 8.90005C14.4 8.20005 14.3 10.2001 14.3 10.9001C14.3 11.6001 14.4 12.2001 14.6 12.9001C14.6 13.3001 14.8 13.7 14.9 14.1C14.9 14.4 15.3 14.9 15.2 15.2L15.4 14.9001C15.4 14.9001 14.2 13.3 14 13.2C13.7 12.8 13.3 12.4 13 12.1C12.5 11.6 11.6 10.8 10.9 11.2C9.90001 11.7 10.5 13.3 10.9 14C11.2 14.6 11.6 15.1 11.9 15.6C12.2 16 12.4 16.3 12.7 16.7C12.9 17 13.4 17.3 13.5 17.6V17.2C13.7 17.2 12.1 16.0001 11.9 15.8001C11.3 15.4001 10.7 15.0001 9.99999 14.9001C8.79999 14.6001 8.00001 15.8001 8.40001 16.9001C8.80001 18.1001 9.90001 18.9 10.9 19.6C12.3 20.6 13.8 21.5 15.4 22.2C15.7 22.3 15.9 22.2001 16 21.9001C16 21.7001 16.6 22.3001 16.7 22.3001C16.9 22.5001 17.1 22.6 17.4 22.7C17.9 22.9 18.4 23 18.9 23C19.1 23 19.2 22.9 19.3 22.7C19.7 21.5 18.6 21.0001 17.9 20.3001C17.9 20.3001 17.6 20.0001 17.6 19.9001H18.2C18.2 19.8001 18.4 19.9001 18.4 19.9001C18.6 20.1001 18.8 20.3 19 20.5C19.4 20.8 20 21.1001 20.5 20.9001C20.9 20.7001 20.7 20 20.3 20.2L20.8 19.8001Z" fill="#231F20"/>
<path d="M32.2 12.3C32.2 12.5 32.3 12.8 32.4 13V13.5L31.9 13.3C31.7 13 31.7 12.4999 31.6 12.1999C31.5 11.9999 31.3 11.6999 31.1 11.5999C30.9 11.4999 30.6 11.4 30.6 11.4L30.8 11.8C30.8 11.6 30.8 11.3999 30.6 11.1999C30.4 10.8999 30.1 10.4999 29.9 10.1999C29.4 9.49991 29.1 8.79996 28.7 7.99996C28.1 6.49996 27.8 4.79999 28.9 3.39999H28.2C28.2 3.39999 28.5 3.59991 28.6 3.69991C28.9 3.89991 29.1 4.19996 29.3 4.49996C29.7 5.09996 29.9 5.70001 30.2 6.30001C30.3 6.70001 30.4 7.20001 30.8 7.30001C31.1 7.30001 31.6 7.29996 31.7 6.99996C31.9 6.59996 31.7 5.79999 31.7 5.39999C31.7 4.59999 31.7 3.79996 31.7 2.99996C31.7 2.79996 32 1.09991 32.3 1.19991C32.4 1.19991 32.5 1.89996 32.5 1.99996C32.5 2.39996 32.7 2.90001 32.7 3.30001C32.7 4.10001 32.7 4.89991 32.7 5.69991C32.7 6.09991 32.7 6.50001 32.7 6.80001C32.7 7.10001 32.6 7.39991 32.7 7.69991C32.9 7.99991 33.3 7.90001 33.6 7.80001C34.1 7.60001 34.3 6.69991 34.5 6.19991C35.1 4.99991 35.7 3.80001 36.6 2.80001C36.9 2.40001 37.5 1.79996 37.8 2.49996C38 2.99996 37.8 3.59991 37.8 4.19991C37.6 5.99991 37 7.79999 36.3 9.39999C36.2 9.79999 36.1 10.1 35.8 10.4C35.6 10.6 35.5 10.7 35.3 11C35 11.5 34.9 12.7999 34.1 12.6999L34.5 13C34.3 12.2 34.5 10.8999 33.4 10.5999C32.5 10.2999 32.1 11.2 32.2 12C32.2 12.5 33 12.5 33 12C33 11.8 33 11.1 33.5 11.5C33.7 11.6 33.7 11.9999 33.7 12.1999C33.7 12.4999 33.7 12.8999 33.8 13.1999C33.8 13.3999 34 13.4 34.2 13.5C35.7 13.7 35.5 11.7 36.3 11C36.5 10.8 36.6 10.8 36.7 10.5C36.8 10.1 37 9.79999 37.1 9.39999C37.4 8.59999 37.7 7.69999 38 6.89999C38.4 5.59999 38.8 3.99994 38.6 2.59994C38.4 1.69994 37.6 0.999938 36.7 1.59994C35.7 2.19994 35 3.49996 34.5 4.49996C34.1 5.19996 33.8 5.89991 33.4 6.69991V6.89999C33.1 6.99999 33.2 7.09994 33.4 7.09994C33.4 7.09994 33.4 6.69994 33.4 6.59994C33.4 6.09994 33.4 5.59994 33.4 5.09994C33.4 4.19994 33.4 3.39996 33.2 2.49996C33.2 1.89996 33 1.19991 32.7 0.699913C32.5 0.399913 32.2 0.0999131 31.7 0.199913C31.2 0.399913 31 1.19994 30.9 1.59994C30.7 2.39994 30.6 3.19994 30.6 4.09994C30.6 4.99994 30.6 4.99999 30.6 5.39999C30.6 5.59999 30.6 5.79996 30.6 5.99996C30.6 6.19996 30.6 6.29999 30.7 6.39999C30.8 6.39999 30.7 6.09994 30.7 6.09994C30.7 5.89994 30.5 5.69996 30.5 5.49996C30.4 5.19996 30.2 4.79996 30.1 4.49996C29.9 4.19996 29.7 3.79996 29.5 3.49996C29.5 3.49996 29.3 3.29991 29.3 3.19991C29.3 3.19991 28.8 2.69999 28.8 2.89999C28.8 2.59999 28.3 2.59999 28.1 2.89999C27.1 4.19999 27.2 5.69991 27.6 7.19991C27.8 7.99991 28.1 8.79996 28.5 9.49996C28.7 9.89996 29 10.2999 29.2 10.6999C29.2 10.8999 29.4 10.9999 29.5 11.0999C29.5 11.0999 29.8 11.7 29.9 11.4C29.9 11.6 29.9 11.7 30.1 11.8C30.3 11.9 30.6 11.8999 30.7 12.0999C30.9 12.3999 31 12.8999 31.1 13.1999C31.2 13.5999 31.5 14.0999 32 14.0999C32.4 14.0999 32.7 13.9 32.9 13.5C33.2 13 32.9 12.4 32.9 11.8C32.9 11.3 32.1 11.5 32.2 12V12.3Z" fill="#231F20"/>
<path d="M21.3 56C20.4 56.1 19.7 55.2 18.8 55.2C18.1 55.2 17.6 55.8 18 56.4C18.2 56.7 18.4 56.9 18.7 57.1C18.9 57.2 19.2 57.4 19.2 57.7C19.2 58.1 18.6 58 18.5 57.9C18.2 57.7 18 57.4 17.6 57.3C17.2 57.2 16.9 57.3 16.7 57.6H17.2C16.3 56.9 15.4 56.2 14.5 55.4C13.7 54.7 12.8 54 12.4 53C11.9 51.5 14.4 52.7 14.8 53C15.3 53.3 16.1 54 16.7 53.4C16.7 53.4 16.8 53.2 16.7 53C16.7 52.7 16.3 52.5 16.1 52.3C15.8 52 15.5 51.6 15.3 51.3C14.9 50.8 14.5 50.4 14.3 49.8C14.3 49.6 14 49.1 14.3 48.9C14.3 48.9 14.6 48.9 14.7 48.9C15.1 49.1 15.4 49.4 15.7 49.7C16.1 50.1 16.5 50.5 16.9 50.9C17.3 51.3 17.5 51.8 18.2 51.7C18.8 51.5 18.6 51 18.5 50.5C18.5 50.1 18.5 49.7 18.4 49.3C18.4 49 18.4 48.3 18.6 48H18.1C18.5 48.3 18.7 48.8 18.9 49.1C19.2 49.5 19.4 50 19.7 50.4C20.2 51.3 20.7 52.3 21.1 53.3V52.8C20 53.5 21.5 55.2 21.1 56.2C20.9 56.6 21.5 57 21.8 56.6C22.1 56.2 22 55.7 22 55.2C22 54.9 21.5 53.6 21.8 53.4C22 53.3 22 53.1 21.9 52.9C21.4 51.8 20.9 50.7 20.4 49.7C20 48.9 19.5 47.9 18.7 47.4C18.6 47.4 18.4 47.4 18.2 47.4C17.7 47.9 17.8 48.8 17.8 49.5C17.8 49.9 17.8 50.3 17.9 50.8C17.9 50.9 17.9 51.1 17.9 51.2C18.1 51.1 18.1 51 17.9 51C17.9 50.8 17.7 50.7 17.6 50.6C16.9 49.8 16 48.8 15.1 48.3C14.2 47.8 13.4 48.6 13.6 49.6C13.8 50.3 14.2 50.8 14.6 51.4C14.8 51.7 15 51.9 15.2 52.2C15.4 52.4 15.5 52.6 15.7 52.7C15.7 52.7 16.1 53.1 16.2 53.2V52.8C16.2 52.8 15 52 14.8 52C14.3 51.8 13.8 51.6 13.2 51.5C12.3 51.5 11.5 52.1 11.7 53C11.9 54.1 12.9 54.9 13.7 55.7C14.7 56.6 15.7 57.4 16.8 58.2C16.9 58.2 17.1 58.2 17.3 58.2C17.5 58 18.1 58.6 18.3 58.7C18.6 58.8 18.9 58.9 19.2 58.8C19.8 58.7 20.2 58.1 20 57.5C20 57.2 19.7 57 19.4 56.8C19.2 56.7 19.1 56.6 18.9 56.4C18.7 56.2 18.5 56 18.9 56C19.3 56 19.7 56.4 20.1 56.6C20.5 56.8 20.8 56.9 21.2 56.8C21.7 56.8 21.7 56 21.2 56H21.3Z" fill="#231F20"/>
<path d="M10.2 149.2C10.4 149.2 9.60002 148.1 9.50002 148C9.30002 147.8 9 147.5 8.6 147.6C7.7 147.8 8.00001 148.8 8.30001 149.4C8.50001 149.8 8.8 150.2 9.1 150.5C9.2 150.7 10 151.4 9.40005 151.5C9.20005 151.5 8.80004 151.1 8.70004 151C8.00004 150.4 7.1 150.1 6.1 150.1C5.9 150.1 5.80004 150.3 5.70004 150.5C5.70004 150.6 5.70004 150.8 5.70004 150.9L6.20004 150.5C4.70004 149.9 2.7 149.2 1.6 147.8C1.2 147.3 1.00001 146.4 1.80001 146.1C2.30001 145.9 3.00002 146.1 3.50002 146.2C4.30002 146.4 5.00001 146.9 5.80001 147.3C6.10001 147.5 6.80002 147.6 7.00002 147.2C7.20002 146.7 6.4 146.1 6.1 145.9C5.4 145.1 4.7 144.3 4.1 143.4C3.8 142.9 3.50001 142.4 3.30001 141.8C3.30001 141.5 2.90001 140.6 3.30001 140.5C3.80001 140.3 4.80002 141.8 5.00002 142.1C5.60002 142.9 6.1 143.9 6.6 144.8C6.8 145.2 7.1 145.4 7.6 145.2C8.3 144.9 7.6 144 7.6 143.5C7.3 142.7 7.10005 141.8 6.90005 141C6.90005 140.7 6.50005 139.4 6.90005 139.2C7.30005 138.9 9.10004 143.4 9.20004 143.8C9.30004 144.2 9.5 144.7 9.6 145.1C9.6 145.1 9.80001 145.4 9.80001 145.5C9.80001 145.7 9.80001 146.1 9.80001 146.3C9.80001 146.8 9.9 147.3 10.1 147.8C10.3 148.3 10.6 148.9 10.4 149.4C10.3 149.9 11 150.1 11.1 149.6C11.3 149 11.1 148.4 10.8 147.8C10.7 147.5 10.6 147.1 10.5 146.8C10.5 146.4 10.5 146 10.5 145.6C10.5 145 10.2 144.4 10 143.9C9.80002 143.1 9.50004 142.4 9.20004 141.6C8.80004 140.7 8.4 139.5 7.6 138.8C6.9 138.2 6.3 138.6 6.1 139.4C6 140.4 6.3 141.6 6.6 142.5C6.6 142.8 6.80005 143.2 6.90005 143.5C6.90005 143.5 7.20001 144.6 7.30001 144.6C7.70001 144.6 7.1 143.8 7.1 143.8C6.9 143.4 6.70002 143.1 6.50002 142.7C5.90002 141.8 5.10002 140.3 4.00002 139.9C3.30002 139.6 2.70004 140 2.70004 140.8C2.70004 141.7 3.10002 142.6 3.50002 143.4C3.90002 144.1 4.40005 144.8 4.90005 145.4C5.20005 145.7 5.40004 146.1 5.70004 146.4C5.70004 146.5 5.90002 146.6 6.00002 146.7C6.10002 146.8 6.50002 147.1 6.50002 147.3V146.9C6.50002 146.9 4.90004 146.1 4.70004 146C4.20004 145.8 3.7 145.6 3.1 145.5C2.3 145.4 1.20005 145.5 0.900048 146.4C0.400048 147.6 1.30004 148.6 2.20004 149.2C3.40004 150.1 4.90001 150.8 6.30001 151.3C6.50001 151.3 6.80001 151.2 6.80001 150.9C6.80001 150.8 6.80001 150.6 6.80001 150.5L6.40005 150.9C7.00005 150.9 7.60004 151 8.20004 151.4C8.60004 151.7 9.00002 152.1 9.50002 152.3C10.2 152.6 10.8 152.1 10.8 151.3C10.8 150.8 10.4 150.5 10.1 150.2C9.9 150 9.8 149.8 9.6 149.6C9.5 149.4 9.20004 149.1 9.20004 148.9C9.20004 148.2 9.60004 149 9.70004 149.2C9.80004 149.4 9.90002 149.6 10 149.8C10.2 150.1 10.5 150.1 10.8 150C11.2 149.8 10.8 149.1 10.4 149.3L10.2 149.2Z" fill="#231F20"/>
<path d="M66.5 119.1C65.8 120.3 63.9 120.5 62.7 120.7C62.5 120.7 62.1 120.9 61.9 120.8C61.8 120.8 61.6 120.6 61.5 120.5C61.2 120.3 60.8 120.1 60.5 119.9C59.5 119.6 58.5 119.6 57.5 119.7L57.9 120.2C58.2 119.4 59.4 119.2 59.2 118.1C59.1 117.3 58.2 117.1 57.5 117.4C57.1 117.6 56.8 117.9 56.5 118.3C56.3 118.5 56 118.8 55.8 118.8C55.4 118.8 55.7 118.4 55.8 118.1C56.3 117.3 57 116.7 56.7 115.7V116.1C57.6 115.1 58.6 114.1 59.7 113.2C60.5 112.6 61.8 111.4 62.9 111.7C63.7 112 62.9 113.1 62.7 113.6C62.4 114.1 61.9 114.5 61.5 115C61.2 115.2 61 115.5 60.7 115.7C60.5 115.9 60.2 116 60.2 116.2C60.2 116.3 60.2 116.5 60.2 116.6C60.6 116.9 61 116.9 61.4 116.6C62.1 116.1 62.7 115.7 63.4 115.2C64 114.8 64.6 114.5 65.3 114.1C65.5 114 66.5 113.4 66.4 114.1C66.2 114.8 65.6 115.5 65.1 116C64.6 116.5 64 117 63.4 117.5C63.1 117.7 62.8 117.9 62.5 118.1C62.2 118.3 61.8 118.4 61.5 118.5C61.4 118.5 61.3 118.7 61.3 118.8C61.3 119.3 61.8 119.4 62.2 119.3C62.7 119.3 63.2 119 63.7 118.9C64 118.9 64.4 118.7 64.7 118.7C65.1 118.7 65.5 118.6 65.9 118.6C66.3 118.6 66.7 118.6 66.5 119.1C66.3 119.5 66.9 119.9 67.2 119.5C67.7 118.5 67 117.9 66 117.9C65.5 117.9 65.1 117.9 64.6 118C64.3 118 63.9 118.1 63.6 118.2C63.3 118.2 63 118.3 62.7 118.4C62.6 118.4 62.4 118.4 62.3 118.5C62.1 118.5 62 118.5 62.1 118.8L61.9 119.1C62.2 118.9 62.6 118.8 63 118.6C63.4 118.4 63.7 118.2 64 117.9C64.6 117.5 65.1 117 65.6 116.4C66.2 115.8 66.9 115 67.1 114.1C67.1 113.7 67.1 113.3 66.8 113.1C66.3 112.8 65.7 113.1 65.2 113.3C64.4 113.6 63.7 114.1 63 114.5C62.8 114.7 60.8 116.1 60.7 116V116.4C60.7 116.5 61.1 116.3 61.1 116.2C61.3 116 61.5 115.9 61.7 115.7C62 115.4 62.3 115.1 62.6 114.8C63 114.4 63.3 114 63.6 113.5C64 112.8 64.3 111.6 63.4 111.1C62.2 110.4 60.7 111.5 59.8 112.2C58.5 113.2 57.3 114.4 56.1 115.6C56.1 115.6 56 115.8 56.1 116C56.4 116.9 55.2 117.6 55 118.5C54.8 119.2 55.3 119.7 56 119.6C56.4 119.6 56.7 119.3 57 119.1C57.3 118.8 57.6 118.3 58 118.2C58.5 118.1 58.6 118.6 58.3 118.9C58.2 119 58 119.1 57.9 119.2C57.6 119.5 57.4 119.7 57.2 120.1C57.2 120.3 57.3 120.6 57.6 120.6C58.7 120.6 59.9 120.4 60.9 121.1C61.3 121.4 61.4 121.8 62 121.7C62.5 121.7 63 121.6 63.4 121.5C64.8 121.3 66.5 120.9 67.3 119.6C67.5 119.2 66.9 118.8 66.6 119.2L66.5 119.1Z" fill="#231F20"/>
</svg>
