<svg width="145" height="264" viewBox="0 0 145 264" fill="none" xmlns="http://www.w3.org/2000/svg">
<path d="M126.1 28.9C136.9 25.7 144.1 30 144.1 30C130.1 44.5 124.2 32.3 124.2 32.3C112.7 28 122.3 4.79999 122.3 4.79999C122.3 4.79999 126.5 14.9 126.3 23.3C126.1 31.7 126.1 29 126.1 29V28.9Z" fill="#231F20"/>
<path d="M126.2 29.3C131.7 27.7 138.8 27.3 143.9 30.3V29.7C140.4 33.2 135.1 37.9 129.7 36.4C127.4 35.8 125.9 34.2 124.6 32.3C124.5 32.1 124.5 32 124.3 31.9C123.9 31.6 123.3 31.5 122.9 31.2C122.5 30.9 122.1 30.6 121.7 30.3C120.3 28.9 119.5 27.1 119.2 25.1C118.4 20.9 119.2 16.5 120.2 12.4C120.8 9.80001 121.6 7.20001 122.7 4.70001H122C123.5 8.20001 124.6 12 125.3 15.8C125.9 19 126 22.1 125.9 25.3C125.9 26.3 125.9 27.3 125.8 28.4C125.8 28.6 125.7 29.3 125.8 29.1H126.4C126.5 29.3 126.4 29.1 126.4 28.9C126.4 28.4 125.6 28.4 125.6 28.9C125.6 29.4 125.6 29.4 125.6 29.5C125.8 29.7 126.1 29.7 126.2 29.5C126.3 29.3 126.2 29 126.2 28.8C126.2 28 126.2 27.2 126.2 26.4C126.3 23.2 126.3 20 125.8 16.8C125.1 12.6 123.9 8.50001 122.3 4.60001C122.2 4.30001 121.7 4.20001 121.6 4.60001C120.6 6.90001 119.9 9.30001 119.3 11.8C118.2 16 117.4 20.6 118.1 25C118.4 26.9 119.1 28.8 120.4 30.3C121 31 121.8 31.6 122.6 32.1C123.1 32.4 123.5 32.4 123.7 32.7C124.3 33.3 124.7 34.2 125.3 34.8C126.3 35.8 127.4 36.6 128.7 37.1C134.5 39.2 140.4 34.2 144.1 30.4C144.3 30.2 144.2 29.9 144.1 29.8C138.7 26.7 131.5 27 125.8 28.7C125.3 28.8 125.5 29.6 126 29.4L126.2 29.3Z" fill="#231F20"/>
<path d="M80.3 263.1C80.2 261.1 80.1 259.1 79.9 257C79.6 251.6 79.3 246.2 79 240.8C78.6 233 78.2 225.2 77.9 217.3C77.5 208.1 77.2 198.9 76.9 189.8C76.6 180.2 76.4 170.6 76.3 161.1C76.2 152.1 76.2 143.1 76.4 134.2C76.6 126.8 76.8 119.4 77.5 112C78 107.2 78.4 102.1 80 97.5C81.7 92.6 84 87.7 86.2 83C89.1 76.9 92.2 70.9001 95.5 65.1001C98.8 59.3001 102.3 53.9 106.2 48.7C109.6 44.2 113.3 39.9 117.6 36.3C119.5 34.8 121.5 33.4 123.7 32.4C124.1 32.2 124.4 31.9 124.8 31.8C115.5 35.8 108.6 44.3 102.9 52.3C95.1 63.3 88.8 75.3 83.3 87.5C81.6 91.3 79.6 95.3 78.5 99.3C77.9 101.5 77.5 103.8 77.2 106.1C76.2 112.7 75.9 119.5 75.6 126.2C75.2 134.9 75.2 143.6 75.2 152.3C75.2 162 75.4 171.6 75.6 181.3C75.8 191 76.2 200.5 76.5 210.1C76.8 218.5 77.2 227 77.6 235.4C77.9 241.7 78.2 247.9 78.6 254.2C78.7 256.2 78.8 258.2 79 260.2C79 261.2 79 262.3 79.2 263.3C79.2 263.4 79.2 263.6 79.2 263.7C79.2 263.5 80.3 263.3 80.3 263.1Z" fill="#231F20"/>
<path d="M80.7 263.1C78.6 230.6 77.2 198.1 76.8 165.6C76.6 149.1 76.4 132.4 77.7 115.9C78 111.9 78.3 107.8 79 103.8C79.6 100.1 80.8 96.6 82.2 93.1C85.3 85.6 88.9 78.3 92.7 71.1C96.8 63.4 101.4 55.8 106.7 48.8C109.3 45.4 112 42.1 115.1 39.2C116.6 37.7 118.3 36.3 120.1 35C121.7 33.8 123.5 33 125.2 32.1C125.6 31.9 125.2 31.3 124.8 31.4C118.5 34.1 113.4 38.8 109 43.9C104.3 49.5 100.1 55.6 96.3 61.8C92.2 68.5 88.5 75.5 85.2 82.7C81.9 89.8 78.4 96.8 77.1 104.6C75.8 112.8 75.4 121.1 75.2 129.3C75 137.5 74.9 146.4 74.9 154.9C74.9 172 75.5 189.1 76.1 206.2C76.7 223.3 77.6 240.4 78.6 257.5C78.7 259.5 78.8 261.5 79 263.5C79 263.9 79.5 264 79.7 263.7C79.9 263.4 80.5 263.5 80.8 263.1C81.1 262.7 80.4 262.3 80.2 262.7C80 263 79.4 263 79.1 263.3L79.8 263.5C78.8 246.8 77.9 230.1 77.2 213.4C76.5 196.6 76 179.7 75.8 162.9C75.6 146.2 75.4 129.3 77 112.6C77.4 108.5 77.8 104.2 78.9 100.2C80 96.2 81.6 92.7 83.2 89C86.4 81.9 89.8 74.9 93.6 68.1C97.3 61.5 101.4 55.1 105.9 49C110.1 43.4 114.9 38 120.8 34.2C122.2 33.3 123.7 32.5 125.2 31.9L124.8 31.2C123.3 32 121.7 32.8 120.2 33.8C118.7 34.8 117.4 35.9 116 37.1C113.2 39.6 110.7 42.3 108.4 45.2C103.6 51.2 99.4 57.6 95.5 64.2C91.4 71.2 87.8 78.4 84.4 85.8C82.7 89.4 81.1 93 79.8 96.7C78.5 100.4 78 103.9 77.6 107.6C75.8 124.1 75.8 140.8 75.9 157.4C76 174 76.5 190.9 77.2 207.6C77.8 224.1 78.7 240.6 79.6 257.1C79.7 259 79.8 261 80 262.9C80 263.4 80.8 263.4 80.8 262.9L80.7 263.1Z" fill="#231F20"/>
<path d="M31.9 20C33.4 20.9 34.7 22 36.1 23.1C39.7 25.9 43.1 28.9 46.3 32.1C50.9 36.7 55.2 41.7 59.1 46.9C63.8 53.3 67.9 60.3 71.1 67.5C74.8 75.8 77.4 84.6 78.8 93.6C79 94.8 79.2 96 79.3 97.3C79.3 97.2 80.4 96.9 80.4 96.7C79.3 87.5 76.9 78.4 73.4 69.8C70.3 62.3 66.4 55.2 61.8 48.6C57.9 43.1 53.6 37.9 48.9 33C45.5 29.5 41.9 26.2 38.2 23.2C37.1 22.3 35.9 21.4 34.7 20.5C34.3 20.2 34 20 33.6 19.7C33.5 19.7 33.2 19.4 33.1 19.3C32.9 19.2 32.2 20 32 19.9L31.9 20Z" fill="#231F20"/>
<path d="M31.7 20.3C36.9 23.7 41.6 28 46 32.3C50.4 36.6 54.3 41.1 57.9 46C65 55.4 70.6 65.9 74.4 77.1C76.6 83.7 78.1 90.4 78.9 97.3C78.9 97.7 79.4 97.8 79.6 97.5C79.8 97.3 80.3 97.3 80.6 97C80.9 96.7 80.7 96.5 80.7 96.2C80.5 94.6 80.2 92.9 80 91.3C79.4 87.9 78.7 84.6 77.8 81.3C76 74.8 73.6 68.5 70.6 62.5C64.6 50.6 56.5 39.7 46.9 30.4C44.1 27.7 41.2 25.1 38.1 22.6C36.7 21.5 35.2 20.3 33.7 19.3C33.5 19.1 33.2 19 33 19C32.6 19 32.4 19.6 32 19.6C31.5 19.6 31.5 20.4 32 20.4C32.2 20.4 32.4 20.3 32.6 20.1C33.1 19.7 32.9 19.7 33.5 20.1C35 21.2 36.5 22.3 38 23.4C40.6 25.5 43 27.6 45.4 29.9C50 34.3 54.4 39.1 58.3 44.2C66.1 54.4 72.3 65.8 76.2 78.1C77.3 81.5 78.2 85 78.9 88.4C79.3 90.2 79.6 92 79.9 93.9C79.9 94.2 79.9 94.5 80 94.8C80 95.2 80.1 95.7 80.2 96.1C80.3 96.4 80.2 96.5 79.9 96.6C79.7 96.8 79.4 96.8 79.3 97L80 97.2C77.1 73 65.4 50.7 48.5 33.3C43.6 28.3 38.3 23.4 32.5 19.6C32.1 19.3 31.7 20 32.1 20.3H31.7Z" fill="#231F20"/>
<path d="M77.3 213.7C77.3 213.7 89.2 213.7 94.8 201.7C100.4 189.7 98.4 185.3 98.4 185.3C98.4 185.3 76.8 202.1 77.3 213.6V213.7Z" fill="#231F20"/>
<path d="M77.3 214.1C81.4 214.1 85.7 212.3 88.9 209.8C92.3 207.2 94.5 203.7 96.1 199.8C97.6 196.4 98.8 192.8 99.1 189.1C99.2 187.9 99.3 186.4 98.8 185.2C98.7 185 98.4 185 98.2 185.2C95.6 187.2 93.1 189.5 90.7 191.8C86.4 195.9 82.1 200.5 79.2 205.8C77.9 208.3 76.8 211 76.9 213.8C76.9 214.3 77.7 214.3 77.7 213.8C77.5 208.3 81.5 203.1 84.8 199.1C88.1 195.1 92 191.3 96.1 187.9C97 187.2 97.8 186.4 98.7 185.7H98.1C98.1 185.5 98.2 186.1 98.3 186.2C98.4 186.9 98.4 187.7 98.4 188.4C98.3 191.7 97.3 194.9 96.1 198C94.5 202.1 92.5 205.9 89.1 208.8C86.9 210.7 84.3 212 81.5 212.8C80.1 213.2 78.7 213.5 77.3 213.5C75.9 213.5 76.8 214.3 77.3 214.3V214.1Z" fill="#231F20"/>
<path d="M76.2 183.9C76.2 184.4 86.2 183.1 90.3 177.6C94.4 172.1 95.9 160.3 95.6 158.5C95.6 158.5 77 173 76.2 183.9Z" fill="#231F20"/>
<path d="M75.9 184C76.1 184.9 78.9 184.1 79.4 184C82.1 183.4 84.8 182.4 87.2 180.9C92.4 177.5 94.2 171 95.3 165.2C95.7 163.1 96.3 160.5 96 158.4C96 158.1 95.6 158.1 95.4 158.2C93.1 160 90.9 161.9 88.9 164C85 167.7 81.2 171.8 78.5 176.5C77.2 178.8 76.1 181.3 75.9 183.9C75.9 184.4 76.6 184.4 76.7 183.9C77.1 178.8 80.6 174.2 83.8 170.5C87 166.8 90.2 163.7 93.7 160.7C94.5 160.1 95.2 159.4 96 158.8L95.4 158.6C95.7 160.2 95.2 162.1 95 163.6C94.6 166.3 94 168.9 93.1 171.5C92.2 174.1 91.1 176.7 89.1 178.6C87.1 180.5 84.5 181.8 81.9 182.6C80.8 183 79.7 183.2 78.5 183.4C78.1 183.4 77.7 183.5 77.3 183.5C77.2 183.5 77 183.5 76.9 183.5C76.6 183.5 76.9 183.3 76.9 183.7C76.8 183.2 76.1 183.4 76.2 183.9L75.9 184Z" fill="#231F20"/>
<path d="M77.4 203C76.8 201.1 76.2 199.2 75.5 197.3C73.8 192.6 71.8 187.9 69.7 183.4C66.8 177.4 63.6 171.5 59.9 166C56 160.1 51.5 154.6 46.2 149.8C41.1 145.2 35.1 141.5 28.5 139.6C27.7 139.4 26.9 139.2 26 139C25.7 139 25.2 139.7 24.9 139.6C31.7 141.1 37.8 144.4 43.1 148.7C48.6 153.2 53.3 158.6 57.3 164.4C61.2 169.9 64.6 175.8 67.5 181.9C69.8 186.7 72 191.5 73.8 196.5C74.4 198.1 75 199.6 75.5 201.2C75.7 201.7 75.8 202.2 76 202.6C76.2 203 76.1 203.2 76.2 203.4C76.2 203.4 76.2 203.4 76.2 203.5C76.2 203.5 77.3 203 77.3 202.9L77.4 203Z" fill="#231F20"/>
<path d="M77.8 202.9C74.3 191.4 69 180 62.7 169.8C56.8 160.2 49.5 151 40 144.7C37.5 143.1 34.9 141.7 32.1 140.6C30.6 140 29.1 139.5 27.5 139.1C27 139 26.4 138.7 25.9 138.8C25.5 138.8 25.2 139.3 24.8 139.4C24.4 139.4 24.4 140 24.8 140.1C35.5 142.5 44.3 149.4 51.4 157.5C58.5 165.6 64.5 175.9 69.2 186.2C71.8 191.9 74.2 197.8 76.1 203.8C76.1 204 76.5 204.2 76.7 204C77 203.7 77.6 203.7 77.8 203.3C78 202.9 77.4 202.5 77.2 202.9C77 203.1 76.4 203.2 76.2 203.4L76.8 203.6C73.5 192.7 68.6 182 62.8 172.1C57 162.2 50.3 153.4 41.3 146.9C36.5 143.4 31 140.7 25.1 139.4V140.1C25.4 140.1 25.5 139.8 25.8 139.7C26.4 139.4 27 139.7 27.6 139.9C29 140.3 30.3 140.7 31.6 141.2C34.1 142.2 36.5 143.4 38.8 144.8C43.5 147.7 47.6 151.4 51.3 155.5C59 164 64.9 174.1 69.8 184.5C72.6 190.5 75.2 196.8 77.1 203.1C77.2 203.6 78 203.4 77.8 202.9Z" fill="#231F20"/>
<path d="M74.7 196.9C74.7 196.9 61.2 200.6 53.9 194.3C46.6 188 44.3 183.2 44.3 183.2C44.3 183.2 54.1 181.1 61.8 187.6C69.5 194.1 74.8 196.9 74.8 196.9H74.7Z" fill="#231F20"/>
<path d="M74.6 196.6C71 197.6 67.1 197.9 63.5 197.5C60.5 197.2 57.3 196.4 54.8 194.5C51.9 192.4 49.3 189.6 47.1 186.8C46.2 185.6 45.2 184.3 44.5 183L44.3 183.5C47.8 182.8 51.8 183.2 55.2 184.3C58.9 185.5 61.6 187.9 64.5 190.3C66.7 192 69 193.7 71.3 195.2C72.3 195.9 73.4 196.6 74.4 197.1C74.8 197.3 75.2 196.7 74.8 196.5C71.2 194.5 67.9 192 64.7 189.5C61.9 187.3 59.4 185.1 56.1 183.8C53.6 182.9 51 182.4 48.3 182.4C46.9 182.4 45.5 182.4 44.1 182.7C43.9 182.7 43.8 183.1 43.9 183.2C44.5 184.4 45.3 185.4 46 186.5C48.2 189.4 50.8 192 53.6 194.4C58.2 198.2 64.6 198.6 70.2 198C71.7 197.8 73.3 197.6 74.8 197.2C75.3 197.1 75.1 196.3 74.6 196.5V196.6Z" fill="#231F20"/>
<path d="M66.2 177.9C66 177.5 74 165.8 68.6 157.2C68.6 157.2 63 165.7 66.2 177.9Z" fill="#231F20"/>
<path d="M66.5 177.8C66.5 178 66.5 177.8 66.6 177.7C66.7 177.5 66.8 177.3 66.9 177.2C67.2 176.6 67.5 176 67.8 175.4C68.6 173.7 69.3 172 69.9 170.2C71.2 165.8 71.4 161.1 68.9 157.1C68.8 156.9 68.4 156.9 68.3 157.1C67.1 158.9 66.4 161 65.8 163.1C64.5 168 64.6 173.2 65.8 178.1C65.9 178.6 66.7 178.4 66.5 177.9C65.2 173 65.1 167.9 66.5 163.1C67 161.2 67.7 159.2 68.8 157.5H68.2C70.8 161.7 70.3 166.7 68.7 171.2C68.1 172.8 67.4 174.4 66.6 176C66.4 176.5 65.6 177.5 65.7 178.1C65.8 178.6 66.6 178.4 66.4 177.9L66.5 177.8Z" fill="#231F20"/>
<path d="M63.7 173.5C63.7 173.5 58.3 174.6 53.9 176.2C49.5 177.8 36.8 168.6 36.8 168.6C36.8 168.6 47.4 165.7 55.8 170C64.2 174.3 63.7 173.4 63.7 173.4V173.5Z" fill="#231F20"/>
<path d="M63.6 173.1C60.7 173.7 57.8 174.4 55 175.4C53.7 175.8 52.7 176.1 51.3 175.9C50 175.7 48.8 175.2 47.6 174.7C43.8 173 40.3 170.8 37 168.4V169.1C41.1 168 45.8 167.8 50.1 168.6C53.6 169.3 56.6 171 59.8 172.5C60.9 173 62.3 173.9 63.5 174C63.9 174 64.4 173.9 64.2 173.4C64 173 63.3 173.4 63.6 173.8C63.5 173.6 63.8 173.2 63.8 173.3H63.6C63.1 172.9 62.2 172.8 61.6 172.5C58.3 171.1 55.3 169.1 51.8 168.2C47 167 41.6 167.1 36.9 168.4C36.6 168.4 36.6 168.9 36.9 169.1C39.4 170.9 42 172.6 44.7 174C46.6 175 48.6 176 50.6 176.5C51.4 176.7 52.2 176.9 53 176.8C54.1 176.8 55.2 176.2 56.2 175.9C58.8 175.1 61.4 174.4 64 173.9C64.5 173.9 64.3 173.1 63.8 173.2L63.6 173.1Z" fill="#231F20"/>
<path d="M48.2 152.6C48.2 152.6 43.3 163.1 34 163.3C24.7 163.5 15.1 162.3 15.1 162.3C15.1 162.3 22.6 151.2 30.2 151.1C37.8 151 48.2 152.6 48.2 152.6Z" fill="#231F20"/>
<path d="M47.9 152.5C46.6 155.4 44.4 158 41.9 160C39.6 161.8 36.9 162.9 33.9 163.1C29.8 163.3 25.7 163.1 21.7 162.8C19.5 162.6 17.2 162.4 15 162.2L15.3 162.8C17.4 159.6 20.3 156.6 23.4 154.3C25.9 152.5 28.4 151.7 31.5 151.7C34.9 151.7 38.3 152 41.7 152.4C43.8 152.6 45.8 152.9 47.9 153.2C48.4 153.2 48.6 152.6 48.1 152.5C42.8 151.7 37.4 151.1 32 151C29 151 26.5 151.4 23.9 153C21.5 154.5 19.4 156.5 17.5 158.6C16.4 159.8 15.4 161.1 14.5 162.5C14.3 162.8 14.5 163 14.8 163.1C20.9 163.9 27.1 164.2 33.2 164.1C38.6 164 43 160.9 46.1 156.6C46.9 155.5 47.6 154.4 48.2 153.2C48.4 152.8 47.8 152.4 47.6 152.8L47.9 152.5Z" fill="#231F20"/>
<path d="M25.7 139.4C25.7 139.4 20.5 149.8 0.700012 145.1C0.700012 145.1 4.29999 138.3 11.4 137.6C18.5 136.9 21.4 137 21.4 137C21.4 137 9.80001 128 11.1 110.6C11.1 110.6 27.1 117.5 25.7 139.4Z" fill="#231F20"/>
<path d="M25.4 139.3C24.8 140.5 23.7 141.5 22.7 142.4C19.7 144.8 15.7 145.8 11.9 146C8.10001 146.2 4.5 145.7 0.800001 144.8L1.00001 145.4C2.70001 142.3 5.80002 139.6 9.10002 138.6C12 137.7 15.2 137.7 18.2 137.6C19.3 137.6 20.3 137.5 21.4 137.6C21.7 137.6 21.9 137.2 21.7 137C19.5 135.3 17.7 132.9 16.2 130.5C12.5 124.6 11.1 117.7 11.6 110.9L11 111.2C17.5 114 22.2 120.8 24.1 127.4C25.3 131.4 25.6 135.5 25.3 139.7C25.3 140.2 26 140.2 26.1 139.7C26.7 128.8 22.8 117.8 13.4 111.8C12.7 111.4 12 110.9 11.3 110.6C11 110.5 10.8 110.6 10.7 110.9C10.1 120.1 13 129.5 19.6 136.2C20.1 136.7 20.6 137.2 21.1 137.6L21.4 137C20.2 137 18.9 137 17.6 137.1C14.5 137.3 11.1 137.2 8.20003 138.3C4.90003 139.5 1.9 142.2 0.300001 145.2C0.200001 145.4 0.300013 145.7 0.500013 145.8C8.40001 147.7 19.2 148.3 25 141.3C25.3 140.9 25.7 140.4 25.9 140C26.1 139.6 25.5 139.2 25.3 139.6L25.4 139.3Z" fill="#231F20"/>
<path d="M33.4 142C33.4 142 30.6 133.7 31.1 126.5C31.6 119.2 32.4 113.6 32.4 113.6C32.4 113.6 39.2 120 38.7 127.2C38.2 134.4 37.7 140.4 33.4 142Z" fill="#231F20"/>
<path d="M33.8 141.9C32.4 137.6 31.5 132.9 31.4 128.3C31.4 123.4 32 118.5 32.7 113.7L32.1 113.9C35.1 116.7 37.6 120.8 38.2 124.9C38.4 126.6 38.2 128.3 38.1 130C38 131.7 37.8 133.4 37.5 135C37 137.6 36 140.6 33.3 141.7C32.9 141.9 33.1 142.6 33.5 142.4C36 141.4 37.3 139 37.9 136.5C38.3 134.9 38.5 133.3 38.7 131.7C38.9 129.8 39.2 127.7 39.1 125.8C38.8 121.2 36 116.5 32.7 113.4C32.5 113.2 32.1 113.3 32.1 113.6C31.4 118.5 30.7 123.5 30.7 128.4C30.7 133 31.6 137.8 33.1 142.2C33.2 142.7 34 142.5 33.8 142V141.9Z" fill="#231F20"/>
<path d="M51.1 155.7C51.1 155.7 49 142 51.7 136.5C51.7 136.5 57.5 144.6 55.3 152.8C54.8 154.6 53.1 155.9 51.2 155.7H51.1Z" fill="#231F20"/>
<path d="M51.5 155.6C51.1 153.2 50.9 150.7 50.8 148.3C50.6 144.6 50.4 140.2 52 136.7H51.4C52.9 138.8 54 141.3 54.7 143.8C55.6 147 56.7 155.9 51.2 155.3C50.7 155.3 50.7 156 51.2 156.1C56.8 156.7 56.6 148.8 55.9 145.3C55.3 142.2 54 139 52.1 136.3C52 136.1 51.6 136 51.5 136.3C49.8 139.8 50 144.2 50.1 148.1C50.2 150.7 50.4 153.3 50.8 155.9C50.8 156.4 51.6 156.2 51.5 155.7V155.6Z" fill="#231F20"/>
<path d="M75.7 148.9C75.7 148.9 82.7 130.5 97.4 127.2C97.4 127.2 92.8 153 75.7 148.9Z" fill="#231F20"/>
<path d="M76.1 149C76.9 146.8 78.1 144.8 79.2 142.8C81.7 138.5 85 134.6 89 131.6C91.6 129.7 94.4 128.3 97.5 127.6L97 127.1C96.5 129.9 95.6 132.6 94.6 135.2C92.7 139.9 89.9 144.8 85.3 147.4C82.3 149.1 79 149.3 75.7 148.6C75.2 148.5 75 149.2 75.5 149.3C78.4 150 81.4 149.9 84.2 148.8C86.7 147.8 88.8 146 90.5 143.9C93.6 140.1 95.6 135.4 96.9 130.7C97.2 129.6 97.5 128.5 97.7 127.4C97.7 127.1 97.5 126.9 97.2 126.9C87.4 129.1 80.4 137.8 76.3 146.4C75.9 147.2 75.5 148 75.2 148.8C75 149.2 75.7 149.4 75.9 149H76.1Z" fill="#231F20"/>
<path d="M76.2 124.5C76.2 124.5 88.3 126.2 93.5 117.1C98.6 108 97.5 102.4 97.5 102.4C97.5 102.4 80.3 113.6 76.3 124.5H76.2Z" fill="#231F20"/>
<path d="M76.1 124.9C79.6 125.4 83.6 124.9 86.9 123.5C89.7 122.3 92.1 120.3 93.7 117.6C95.6 114.4 97.1 110.7 97.7 107C97.9 105.5 98.2 103.8 97.8 102.3C97.8 102.1 97.4 101.9 97.3 102.1C90.9 106.3 84.7 111.4 80 117.4C78.3 119.5 76.9 121.8 75.9 124.4C75.7 124.8 76.4 125 76.6 124.6C78.4 119.8 82 115.9 85.6 112.4C88.7 109.4 92 106.7 95.5 104.2C96.2 103.7 96.9 103.2 97.6 102.7L97.1 102.5C97.3 103.6 97.2 104.7 97.1 105.8C96.7 109.2 95.5 112.4 94 115.4C92.5 118.4 90.5 120.8 87.4 122.3C85.2 123.4 82.7 124 80.2 124.1C79 124.1 77.2 124.1 76.3 124.1C75.4 124.1 75.6 124.8 76.1 124.8V124.9Z" fill="#231F20"/>
<path d="M75.7 147.8C75.7 147.8 68.4 135.7 60.7 133.6C60.7 133.6 63.6 154.4 75.7 147.8Z" fill="#231F20"/>
<path d="M76.1 147.6C73.5 143.2 70 138.9 65.9 135.8C64.4 134.7 62.7 133.7 60.9 133.2C60.6 133.2 60.4 133.4 60.4 133.7C60.7 136.1 61.4 138.4 62.2 140.7C63.5 144 65.5 147.9 69 149.1C71.3 149.9 73.8 149.3 75.9 148.2C76.3 148 75.9 147.3 75.5 147.6C73.7 148.6 71.5 149.2 69.5 148.6C67.8 148.1 66.5 146.9 65.4 145.5C63.4 142.7 62.2 139.3 61.5 136C61.3 135.2 61.1 134.4 61 133.6L60.5 134.1C63.8 135 66.5 137.4 68.9 139.8C70.9 141.9 72.7 144.2 74.4 146.7C74.7 147.2 75 147.7 75.4 148.2C75.6 148.6 76.3 148.2 76 147.8L76.1 147.6Z" fill="#231F20"/>
<path d="M76.9 114.4C76.9 114.4 69.1 93.7 56.1 91.8C56.1 91.8 53.2 104 60.7 109.6C68.2 115.2 76.8 114.4 76.8 114.4H76.9Z" fill="#231F20"/>
<path d="M77.2 114.3C76.2 111.8 75 109.4 73.7 107C71.2 102.5 68.1 98.1 63.9 95C61.6 93.2 59 91.9 56.1 91.5C55.9 91.5 55.7 91.5 55.6 91.8C54.8 95.4 54.8 99.4 55.8 102.9C56.6 105.7 58 108.1 60.3 109.9C63.3 112.2 67 113.7 70.7 114.4C72.7 114.8 74.7 115 76.7 114.8C77.2 114.8 77.2 114 76.7 114C71.9 114.5 66.6 113 62.6 110.5C59.7 108.8 57.7 106.4 56.7 103.3C55.9 100.9 55.7 98.5 55.9 96C55.9 94.6 56.1 93.3 56.4 91.9L55.9 92.2C61.1 93 65.2 96.6 68.4 100.6C71.2 104 73.4 108 75.3 112C75.7 112.8 76.1 113.7 76.4 114.5C76.6 114.9 77.3 114.7 77.1 114.3H77.2Z" fill="#231F20"/>
<path d="M82.4 90.8C82.4 90.8 96.6 93.4 101.2 85.6C105.8 77.8 105.4 75.5 105.4 75.5C105.4 75.5 88.5 78.7 82.3 90.8H82.4Z" fill="#231F20"/>
<path d="M82.3 91.1C85.9 91.7 89.7 91.7 93.3 91C95.9 90.4 98.5 89.4 100.3 87.4C101.5 86.2 102.3 84.6 103.1 83.1C103.8 81.7 104.5 80.3 105.1 78.9C105.5 77.9 106.1 76.5 105.9 75.4C105.9 75.2 105.6 75.1 105.4 75.1C99 76.3 92.4 79.4 87.5 83.8C85.3 85.7 83.5 88 82.1 90.6C81.9 91 82.5 91.4 82.7 91C86.8 83.2 95.2 78.7 103.4 76.4C104.1 76.2 104.8 76 105.5 75.9L105 75.6C105 75.5 105 76 105 76.1C105 76.8 104.7 77.4 104.5 78C104.1 79.2 103.5 80.5 102.9 81.6C102.1 83.2 101.2 85 100.1 86.4C96.9 90.3 91 90.9 86.3 90.7C85 90.7 83.7 90.6 82.4 90.3C81.9 90.3 81.7 90.9 82.2 91L82.3 91.1Z" fill="#231F20"/>
<path d="M88.7 77.2C88.7 77.2 85.3 56.1 78.5 52.8C78.5 52.8 72 73.5 88.7 77.2Z" fill="#231F20"/>
<path d="M89.1 77.1C88.7 74.5 88.1 72 87.5 69.5C86.4 65.1 85 60.6 82.7 56.7C81.7 55 80.5 53.3 78.7 52.5C78.5 52.4 78.2 52.5 78.2 52.7C76.2 59.1 76 67.7 80.6 73.1C82.7 75.5 85.6 76.9 88.7 77.6C89.2 77.7 89.4 77 88.9 76.9C83.6 75.7 79.7 72.3 78.4 67C77.4 63.2 77.6 59.2 78.4 55.4C78.6 54.6 78.8 53.7 79 52.9L78.5 53.1C82 54.8 83.6 59.5 84.9 62.9C86.3 66.7 87.3 70.7 88.1 74.7C88.3 75.6 88.4 76.4 88.6 77.3C88.6 77.8 89.4 77.6 89.3 77.1H89.1Z" fill="#231F20"/>
<path d="M96.2 63.4C96.2 63.4 84.1 50.2 88.7 36.4C88.7 36.4 100.4 46 96.2 63.4Z" fill="#231F20"/>
<path d="M96.5 63.1C90.2 56.2 86.1 45.6 89.1 36.4L88.5 36.6C90.6 38.4 92.4 40.8 93.7 43.3C97 49.5 97.5 56.5 95.9 63.3C95.8 63.8 96.5 64 96.6 63.5C98.7 54.4 96.9 44.6 90.5 37.6C90 37.1 89.5 36.6 89 36.1C88.8 35.9 88.5 36 88.4 36.3C85.4 45.7 89.5 56.6 96 63.7C96.3 64.1 96.9 63.5 96.5 63.2V63.1Z" fill="#231F20"/>
<path d="M100.1 57.2C100.1 57.2 116 46.3 126.3 49.9C126.3 49.9 118.8 64 109.4 63.4C100 62.8 100.1 57.2 100.1 57.2Z" fill="#231F20"/>
<path d="M100.2 57.5C103 55.6 106 54 109 52.7C114.2 50.4 120.5 48.4 126.1 50.3L125.9 49.7C124.1 53.1 121.6 56.3 118.8 58.9C116.6 60.9 113.9 62.7 110.8 63C107.7 63.3 104.2 62.6 102 60.5C101.1 59.7 100.3 58.4 100.3 57.2C100.3 56.7 99.5 56.7 99.5 57.2C99.5 61.5 104.7 63.3 108.2 63.7C114.7 64.4 119.8 59.5 123.4 54.6C124.5 53.2 125.5 51.6 126.4 50C126.5 49.8 126.4 49.5 126.2 49.4C120.7 47.6 114.5 49.4 109.4 51.6C106.1 53 102.8 54.7 99.8 56.8C99.4 57.1 99.8 57.7 100.2 57.4V57.5Z" fill="#231F20"/>
<path d="M112.3 41.3C112.3 41.3 114.1 23.1 103.3 16.3C103.3 16.3 100.3 25.8 103.3 32.1C106.3 38.4 112.3 41.3 112.3 41.3Z" fill="#231F20"/>
<path d="M112.6 41.3C113.2 34.8 112.2 27.4 108.9 21.7C107.5 19.4 105.7 17.4 103.5 16C103.3 15.9 103 16 103 16.2C101.5 20.9 100.9 26.6 102.6 31.3C104.2 35.6 108 39.7 112.1 41.7C112.5 41.9 112.9 41.3 112.5 41C108.4 39.1 104.6 35 103.2 30.8C101.8 26.6 102.3 20.9 103.7 16.5L103.2 16.7C108.3 20 110.7 26 111.6 31.8C112.1 34.9 112.3 38.2 112 41.4C112 41.9 112.7 41.9 112.8 41.4L112.6 41.3Z" fill="#231F20"/>
<path d="M33.7 20C33.7 20 26.8 3.99999 11.2 4.69999C11.2 4.69999 12.8 14.7 19.8 18.4C26.8 22.1 33.7 20 33.7 20Z" fill="#231F20"/>
<path d="M34 19.8C31.4 13.9 26.3 8.49999 20.4 5.99999C17.5 4.79999 14.4 4.2 11.2 4.3C10.9 4.3 10.8 4.5 10.8 4.8C11.3 7.7 12.4 10.7 14 13.2C17.1 18.2 22.5 20.7 28.3 20.9C30.1 20.9 32.1 20.9 33.8 20.3C34.3 20.2 34.1 19.4 33.6 19.6C29.2 20.9 23.9 20.2 20 18.1C16.1 16 13.6 11.8 12.3 7.59999C12 6.59999 11.7 5.69999 11.6 4.69999L11.2 5.19999C20.4 4.89999 28 10.7 32.4 18.4C32.8 19 33.1 19.6 33.4 20.3C33.6 20.7 34.2 20.3 34 19.9V19.8Z" fill="#231F20"/>
<path d="M41.6 26.9C41.6 26.9 49.8 9.4 38.7 1C38.7 1 34.2 16.9 41.6 26.9Z" fill="#231F20"/>
<path d="M41.9 27.1C44.6 21.2 46.1 13.6 43.8 7.3C42.8 4.6 41.2 2.4 38.9 0.699998C38.7 0.499998 38.4 0.600002 38.3 0.900002C37.4 4 37.1 7.2 37 10.3C36.8 16.1 37.8 22.2 41.2 27.1C41.5 27.5 42.1 27.1 41.8 26.7C38.4 21.9 37.4 15.8 37.7 10C37.8 7 38.2 3.9 39 1.1L38.4 1.3C46.1 7.3 44.9 18.8 41.2 26.8C41 27.2 41.6 27.6 41.8 27.2L41.9 27.1Z" fill="#231F20"/>
<path d="M54.1 39.7C54.1 39.7 50.2 27.4 53.1 20.6C56 13.8 59.1 9.40002 59.1 9.40002C59.1 9.40002 64.3 20.6 60.7 30.1C57.1 39.6 54.1 39.6 54.1 39.6V39.7Z" fill="#231F20"/>
<path d="M54.5 39.6C53.1 35.2 52.2 30.3 52.5 25.7C52.7 21.8 54.5 18.3 56.3 14.9C57.3 13.1 58.3 11.3 59.5 9.60002H58.9C61.3 14.8 62.4 21.3 61.4 26.9C60.7 30.6 59 34.7 56.5 37.5C56 38.1 54.9 39.2 54.2 39.2C53.7 39.2 53.7 40 54.2 40C54.8 40 55.4 39.6 55.8 39.2C57.5 37.9 58.7 35.8 59.6 33.9C61.2 30.6 62.3 27.2 62.4 23.5C62.5 20.3 62 17.1 61.2 14.1C60.7 12.4 60.2 10.7 59.5 9.20002C59.4 8.90002 59 9.00002 58.9 9.20002C57.6 11.1 56.4 13.1 55.4 15.1C53.7 18.3 52.1 21.6 51.9 25.3C51.6 30.1 52.5 35.2 53.9 39.7C54 40.2 54.8 40 54.6 39.5L54.5 39.6Z" fill="#231F20"/>
<path d="M65.5 55.5C65.5 55.5 63.4 40.6 68.3 33.4C73.2 26.2 74.1 24.5 74.1 24.5C74.1 24.5 78.3 34.4 74.6 44.5C70.9 54.6 65.6 55.5 65.6 55.5H65.5Z" fill="#231F20"/>
<path d="M65.8 55.4C65.3 51.7 65.2 47.8 65.5 44.1C65.7 41.1 66.3 38 67.5 35.3C68.7 32.6 70.9 30 72.6 27.4C73.2 26.5 73.8 25.6 74.2 24.7H73.5C75.2 28.7 75.8 33.4 75.4 37.8C75 43.6 72.4 50.6 67.5 54C66.8 54.5 66 55 65.2 55.1C64.7 55.1 64.9 55.9 65.4 55.8C68.1 55.3 70.3 52.6 71.8 50.5C75.9 44.5 77 37 75.8 29.9C75.5 28 75 26.1 74.3 24.3C74.2 24 73.8 23.9 73.6 24.3C71.7 27.9 68.9 31 67 34.6C64.4 39.6 64.3 45.8 64.6 51.2C64.6 52.7 64.8 54.1 65 55.6C65 56.1 65.8 55.9 65.7 55.4H65.8Z" fill="#231F20"/>
<path d="M75.1 76.4C75.1 76.4 58.5 61.7 43.1 66.3C43.1 66.3 50 78.4 59.1 78.2C68.2 78 75.1 76.4 75.1 76.4Z" fill="#231F20"/>
<path d="M75.4 76.1C73.3 74.3 71 72.7 68.7 71.3C63.9 68.4 58.7 66.1 53.2 65.3C49.8 64.8 46.4 65 43.1 65.9C42.9 65.9 42.7 66.2 42.9 66.5C44.7 69.7 47.3 72.7 50.2 75C52.4 76.7 54.9 78.1 57.7 78.5C59.5 78.7 61.4 78.5 63.2 78.5C65.2 78.4 67.1 78.2 69.1 77.9C71.2 77.6 73.3 77.3 75.4 76.8C75.9 76.7 75.7 76 75.2 76.1C70 77.3 64.5 78 59.1 77.9C53.7 77.8 49.1 73.7 45.9 69.6C45 68.5 44.2 67.4 43.5 66.2L43.3 66.8C53.7 63.8 64.6 68.9 72.8 75.1C73.5 75.7 74.3 76.2 75 76.8C75.4 77.1 75.9 76.6 75.5 76.3L75.4 76.1Z" fill="#231F20"/>
<path d="M64.2 53.4C64.2 53.4 52.8 60.3 44.6 55.6C36.4 50.9 32.5 45.5 32.5 45.5C32.5 45.5 44.9 42.5 53.2 47.6C61.5 52.7 64.3 53.5 64.3 53.5L64.2 53.4Z" fill="#231F20"/>
<path d="M64 53.1C60.8 55 56.9 56.4 53.1 56.8C49.8 57.1 46.8 56.5 43.9 54.8C41 53.1 38.2 51 35.7 48.6C34.6 47.6 33.6 46.5 32.7 45.3L32.5 45.9C36.3 45 40.5 44.8 44.4 45.2C47.9 45.6 50.9 46.7 53.9 48.5C56.4 50 58.9 51.5 61.5 52.7C62.3 53.1 63.1 53.5 64 53.8C64.5 53.9 64.7 53.2 64.2 53.1C63.4 52.9 62.7 52.5 62 52.2C59.3 50.9 56.7 49.4 54.2 47.9C51.3 46.2 48.4 45 45.1 44.6C42.3 44.2 39.5 44.2 36.7 44.5C35.2 44.7 33.7 44.8 32.2 45.2C32 45.2 31.8 45.6 32 45.8C34.6 49.5 38.5 52.5 42.3 54.9C45.1 56.7 48 57.8 51.4 57.8C54.3 57.8 57.2 57.1 59.8 56C61.3 55.4 62.9 54.8 64.3 53.9C64.7 53.7 64.3 53 63.9 53.3L64 53.1Z" fill="#231F20"/>
<path d="M47.1 32.1C47.1 32.1 31.9 37.9 18.5 28.8C18.5 28.8 28.2 24.2 36.4 27C44.6 29.8 47.1 32.2 47.1 32.2V32.1Z" fill="#231F20"/>
<path d="M47 31.8C44.1 32.9 41 33.4 38 33.5C31.2 33.9 24.4 32.3 18.7 28.4V29.1C23.3 26.9 29 25.8 34 26.7C37.4 27.3 40.9 28.9 44 30.5C45 31 46 31.6 46.8 32.3C47.2 32.6 47.7 32.1 47.3 31.8C46.4 30.9 45.2 30.3 44.1 29.7C40.9 28 37.3 26.4 33.7 25.8C28.6 25 22.9 26.1 18.2 28.3C17.9 28.4 18 28.8 18.2 29C23.9 32.8 30.7 34.5 37.5 34.2C40.7 34 44 33.5 47 32.4C47.5 32.2 47.2 31.5 46.8 31.7L47 31.8Z" fill="#231F20"/>
</svg>
