<svg width="160" height="264" viewBox="0 0 160 264" fill="none" xmlns="http://www.w3.org/2000/svg">
<path d="M158.5 134.1C156.3 132.8 153.6 132.8 151.2 132.9C147.8 133.2 144.5 134 141.2 134.9C134.7 136.8 128.3 139.4 122.1 142.2C121.6 142.4 121.1 142.7 120.6 142.9C125 138.9 129.2 134.5 133.3 130C136.4 126.6 139.5 123.1 142.6 119.5C142.8 119.3 142.9 119.1 143.1 119C143.3 118.7 142.4 118.6 142.3 118.7C139.2 120 136.3 121.8 133.4 123.5C126.7 127.6 120.2 132.4 114.4 138.1C111.2 141.2 108.2 144.6 105.4 148.2C107 143.5 108.1 138.6 108.5 133.5C108.5 132.5 108.7 131.4 108.6 130.4C108.6 130.1 107.8 129.9 107.7 130.2C107.2 131.7 106.4 133.2 105.7 134.5C103.5 138.7 100.7 142.5 98.1 146.5C95.8 150 94 154.1 92.5 158.1C91.1 161.9 89.9 165.8 88.8 169.8C88.2001 171.9 87.7001 173.9 87.3 176C87.1001 176.2 86.9 176.5 86.8 176.7C86.8 176.7 86.8 176.7 86.8 176.8C82.3 182.9 78.1 189.4 74.4 196.1C77.4 183 81 170.1 84.9 157.3C89.2 143.4 93.9 129.7 99 116.2C102 116.4 105.1 114.8 107.7 113.3C111.9 111 115.8 108.2 119.7 105.3C127.4 99.5001 134.8 93.1 141.9 86.4C143.5 85 145.1 83.5 146.6 82C146.8 81.8 146.1 81.5 146 81.5C142 81.1 138.1 82.3 134.4 84C130 86.1 125.9 88.9 122 91.9C114.8 97.5 108.2 104.1 102 111.1C101.3 111.9 100.6 112.7 99.9 113.5C99.9 113.5 99.9 113.5 99.9 113.3C103.9 102.8 108.1 92.4 112.6 82.1C114 79 115.3 75.9001 116.7 72.8001C117.1 71.9001 117.5 71 118 70.1C118.2 69.7 118.5 69.2 118.7 68.7C120.1 67.5 121.4 66.3 122.7 65C125 62.7 127.3 60.3 129 57.4C129.7 56.2 130.4 54.8 130.4 53.2C130.4 52.9 129.8 53.1 129.7 53.2C128.3 53.8 127 54.6 125.7 55.4C125.5 55.6 125.2 55.7 125 55.9C126 52.9 126.8 49.8 127 46.6C127 45.5 127.2 44.3 127 43.2C127 42.9 126.5 43 126.3 43C123.9 43.7 122.4 46.3 121.3 48.7C120.8 49.9 120.3 51.1001 119.9 52.3001C119.7 51.9001 119.5 51.4 119.1 51.1C118.9 50.9 118.7 50.7 118.5 50.5C118.3 50.4 117.8 50.3 117.6 50.5C115.6 53.5 115.8 57.9 116.2 61.5C116.5 63.9 116.9 66.3 117.6 68.6C115.9 72.2 114.3 75.8 112.7 79.4C108.4 89.1 104.4 98.8 100.6 108.7C99.8 110.9 98.9 113 98.1 115.2V115.5C93.5 127.3 89.3 139.3 85.5 151.4C80.6 166.9 76.2999 182.6 72.7 198.5C72.7 198.5 72.7 198.5 72.7 198.6C71.7999 196.5 70.9 194.4 69.9 192.4C69.3 191.2 68.7999 190.1 68.2 189C68.6 175.9 69.2 162.8 70.1 149.8C70.3 147.7 70.4 145.5 70.6 143.4C73.4 136.7 76.2 130.1 79.2 123.6C81.3999 118.7 83.5 113.9 85.8 109.1C88 104.5 90.7 100.3 92.5 95.5C94.4 90.7 95.9 85.6 96.8 80.4C96.8 80.2001 96.1 80.1 95.9 80.4C93.1 84.1 90.7001 88.2 88.3 92.2C82.9 101.5 78.3 111.5 74.8 122C73.4 126.2 72.3 130.4 71.3 134.7C72.2001 123.6 73.3 112.5 74.6 101.5C75.7 92.7 76.9 83.8 78.3 75.1C78.7001 72.7 79.1 70.2001 79.6 67.8001C79.7 67.1001 79.9 66.4 80 65.7C80 65.4 80.2 64.9 80.2 64.6C82.7999 63.4 84.9 60.5 86.5 57.9C87.7 56.1 88.7999 54.3 89.7 52.4C89.7999 52.1 89.2999 52 89.2 52C88.3999 52 87.6001 52.0001 86.8 52.3001C87 51.4001 87.2 50.5 87.4 49.6C87.6 48.7 87.7001 47.9 87.8 47C87.8 46.4 88 45.7 87.8 45.1C87.8 44.9 87.5 44.8 87.2 44.9C88.2999 42.6 88.7 39.7 89.1 37.2C89.4 35.3 89.6 33.3001 89.7 31.3001C89.7 31.1001 89.4 31 89.1 31C89.4 28.9 89.6 26.8 89.7 24.7C89.8999 21.1 90 17.1 89 13.6C89.2 11.8 89.2 10.0001 89.2 8.30007C89.2 5.70007 89.1001 2.70002 87.8 0.500022C87.7001 0.300022 87.1 0.500022 87 0.500022C85 2.00002 83.6 4.60007 82.9 7.30007C82.8 6.90007 82.6 6.59997 82.5 6.19997C82.4 5.89997 81.7 6.10007 81.6 6.30007C80.9 7.40007 80.6001 8.89997 80.3 10.2C79.9 11.9 79.6001 13.7 79.3 15.4C79 17.3 78.7 19.2 78.5 21.1C78.3 21 77.9 20.9 77.8 21.1C77.2001 22.1 77.1 23.3 76.9 24.4C76.7 26 76.5 27.6 76.5 29.2C76.5 31 76.3 32.8 76.3 34.6C76.1001 34.4 75.8 34.3 75.6 34.1C75.6 34.1 75 33.9 75 34.1C74.5 35.9 74.5 38 74.4 39.9C74.4 41.1 74.4 42.2 74.3 43.4C74 43.1 73.8 42.8 73.5 42.6C73.2 42.4 72.7 42.2 72.6 42.6C72 44.8 72.1 47.3 72.2 49.5C72.2 50.8 72.4 52.2 72.5 53.5C71.8 53.3 71 53.3 70.4 53.7C70.9 59.3 74.7001 63.6 79.3 64.9C78.7001 67.7001 78.3 70.4 77.8 73.2C76.4 81.4 75.2999 89.5001 74.2 97.8001C73.1 106.5 72.2 115.1 71.4 123.8C71.4 116.8 71.1001 109.8 70.3 102.9C69.8 98.7001 69.1 94.5 68 90.5C67.4 88.3 66.7 86.1 65.7 84.1C65.3999 83.4 65 82.6 64.4 82.1C64.3 82 63.6 81.7 63.5 82.1C62.5 87.1 62.3 92.4 62.3 97.5C62.3 103.5 62.8 109.5 63.4 115.5C64.4 125.8 66 136.1 67.8 146.3C68.2001 148.4 68.6 150.5 69 152.6C68.2 164.4 67.7001 176.2 67.3 188.1C66.8 187.2 66.3 186.3 65.8 185.4C65.5 183.9 65.2 182.4 64.9 180.9C63.1 172.4 61.3 163.8 59.4 155.3C57.9 148.8 56.4 142.3 54.7 135.9C53.5 131.3 51.8 126.9 50.6 122.2C50.6 122 50.5 121.7 50.4 121.5C48.3 112.9 46.9 104.1 45.6 95.3001C44.8 89.8001 44.1 84.3 43.4 78.9C45.3 77.8 46.5 75.6 47.5 73.6C48.9 70.7 50 67.4 50.9 64.2C52.7 58 53.9 51.6 54.9 45.1C55.1 43.7 55.3 42.2001 55.5 40.8001C55.5 40.5001 54.8 40.7001 54.8 40.8001C52.7001 41.8001 51.1 43.9 49.9 46.1C48.3 49 47.2 52.2 46.4 55.5C44.7 61.7 43.7 68.2 43 74.6C43 74.8 43 75.1001 43 75.3001C42.7 72.5001 42.3 69.7001 42 66.9C41.4 61.3 40.7999 55.7 40.2 50.1C40.2 49.8 40.2 49.5001 40.2 49.3001C40.2 47.4001 40.2 45.5 40 43.6C42.3 42.9 43.6 40.3 44.3 37.9C45.1 35.3 45.4 32.6 45.5 29.9C45.5 29.3 45.5 28.7 45.5 28.1C45.5 27.8 44.9 27.7 44.7 27.7C43.2999 28.1 42.3 29.6 41.6 31.1C41.6 29.1 41.3 27.1 40.9 25.2C40.7 24.2 40.4 23.2001 40 22.3001C39.9 22.1001 39.2 21.9 39.1 22.2C38.5 23.2 38.2 24.4 38 25.6C37.7 27.1 37.5 28.5 37.4 30C37.3 31.3 37.2 32.6 37.1 33.9C36 31.9 34.5 30.1 32.7 28.6C32.3 28.3 31.9 28.0001 31.5 27.8001C31.4 27.8001 30.7 27.6001 30.7 27.8001C30.3 32.3001 31.6 36.8 33.5 40.7C34.9 43.5 36.6 46.3 38.6 48.6C38.8 48.8 39 49.1 39.3 49.2C39.7001 53.2 40.1 57.1 40.5 61.1C41.5 70.1 42.5 79 43.7 87.9C44.7999 96.2001 46 104.5 47.6 112.7C45.4 106.5 42.8 100.6 39.9 94.8001C36.2 87.3001 32.2 80.1 27.9 73.1C27.1 71.8 26.2 70.4 25.4 69.2C25.4 69.1 24.4 68.7 24.5 69C26.5 76.6 28.7 84.2 31.3 91.6C32.7 95.5 34.1 99.2 36.4 102.5C39.3 106.7 42 111.1 44.7 115.5C46.6 118.7 48.5 121.9 50.4 125.1C50.5 125.6 50.7001 126 50.8 126.5C51.4 128.4 52.1 130.3 52.7 132.3C54.4 138.1 55.8 144 57.1 149.8C59 157.9 60.7 166 62.5 174.2C63.1 177.1 63.7001 180.1 64.3 183C63 180.9 61.6 178.8 60.1 176.8C58.3 174.4 56.4 172.2 54.3 170.2C53.1 169 51.8 168 50.5 167C50.5 167 50.5 167 50.5 166.9C50.4 166.9 50.2999 166.9 50.2 166.7C49.9 166.5 49.7 166.3 49.4 166.1C48.6 165.4 48 164.5 47.4 163.7C44.2 158.9 42.4 153.1 40.5 147.5C36.7 136.7 31.9 126.3 27 116.1C25.8 113.5 24.5 110.9 23.2 108.4C23.1 108.2 22.3 108.4 22.3 108.6C22.3 115 23.5 121.6 25 127.8C28.1 140.5 33.7 152.7 42.5 161.3C43.9 162.7 45.5 163.9 47 165.1C43.3 163.3 39.6 161.5 35.8 159.8C27.5 156 19 152.3 10.2 150C8.39995 149.5 6.70002 149.2 4.90002 149C3.60002 148.9 2.29998 149 1.09998 149.4C0.899976 149.4 0.900024 149.5 0.900024 149.6C0.900024 149.6 0.900024 149.6 0.900024 149.7C4.90002 152.2 9.09995 154.4 13.2 156.5C21.1 160.5 29.3 164.2 37.8 166.3C41.7001 167.2 45.8 167.9 49.8 167.2C49.9 167.2 50 167.4 50.1 167.5C52.3 169.2 54.4 171.3 56.3 173.4C59.5 177.1 62.3 181.2 64.8 185.6C65.5 189 66.2 192.5 66.9 195.9C66.8 201 66.7 206.1 66.6 211.3C61 223.8 56.9 237 54.5 250.8C54.1 253 53.8 255.2 53.5 257.4C53.5 257.7 54.4 257.9 54.4 257.6C56.5 242.3 60.6 227.5 66.6 213.7C66.6 219.4 66.6 225.1 66.6 230.8C65.3 239.4 64.3 248.1 63.6 256.7C63.4 258.9 63.2999 261.1 63.2 263.4C63.2 263.7 64.1 263.6 64.1 263.3C64.5 254.5 65.4 245.8 66.6 237.1C66.6 242.9 66.8 248.8 66.9 254.6C66.9 257.5 67.1 260.4 67.1 263.3C67.1 263.6 68 263.7 68 263.5C67.7 252.7 67.4 241.8 67.4 230.9C68.3 225.1 69.3 219.4 70.4 213.7C71.3 218.2 72.2 222.6 73.1 227.1C74.4 233.8 75.7 240.4 77 247.1C77.6 250.4 78.3 253.8 78.9 257.1C78.9 257.3 78.9 257.4 78.9 257.5C78.9 257.8 79.9 257.8 79.8 257.5C79.4 255.2 78.9 252.9 78.5 250.6C77.3 244.6 76.2 238.7 75 232.7C73.6 225.5 72.2001 218.4 70.8 211.3C71 210.6 71.1 209.8 71.2 209.1C71.7 206.9 72.1 204.6 72.6 202.4C75.4 209.4 77.8 216.6 79.8 223.9C81.7001 230.6 83.2 237.3 84.6 244.1C84.6 244.1 84.6 244.3 84.6 244.4C84.6 244.7 85.6 244.5 85.5 244.2C84.5 238.5 83.1 232.8 81.7 227.3C79.2999 218.3 76.5 209.3 72.9 200.8C72.9 200.4 73.1 200 73.2 199.6C77.3999 191.8 82.1 184.4 87.2 177.5C91.7999 175.1 96.5 172.8 101.2 170.6C109.5 166.7 117.9 162.9 126.6 160.2C128.5 159.6 130.5 159.1 132.4 158.7C133.8 158.5 135.2 158.3 136.6 158.5C136.9 158.5 137.1 158.4 136.8 158.2C134.2 156.4 130.9 155.8 128 155.5C119.9 154.7 111.8 157.5 104.7 161.7C100.6 164.2 96.7 167.2 93 170.5C94 169.3 94.9 167.9 95.8 166.6C98.8 163.1 101.9 159.8 105.1 156.5C109 156.7 112.8 155.8 116.6 154.8C121.3 153.5 125.8 151.6 130.3 149.7C138.3 146.1 146.1 142 153.7 137.5C155.3 136.6 156.9 135.6 158.4 134.6C158.5 134.6 158.4 134.4 158.4 134.3L158.5 134.1ZM120.1 54.2C120.5 52.6 121.1 51 121.8 49.6C122.7 47.6 124 45.2 125.8 44.2C125.9 45.1 125.8 46.1 125.8 47C125.6 50.6 124.6 54.1 123.4 57.5C122.2 58.5 121.2 59.7 120.2 61C120.4 59.5 120.5 58 120.4 56.5C120.4 55.8 120.2 55.0001 120 54.3001L120.1 54.2ZM119.9 63.1C120.9 61.1 122.2 59.4 123.8 57.9L124.4 57.4C125.7 56.3 127.1 55.3 128.6 54.5C128.8 54.5 129 54.3 129.2 54.2C129.1 55.4 128.6 56.4 128 57.4C127.2 58.8 126.2 60.2 125.2 61.4C123.3 63.7 121.2 65.7 119 67.7C118.9 67.8 118.8 67.9 118.6 68C119.1 66.4 119.6 64.7 119.9 63V63.1ZM117 62.1C116.6 58.7 116.4 54.6 118 51.6C118.3 52 118.6 52.5 118.8 52.9C119.8 55.2 119.7 58.1 119.4 60.6C119.3 61.5 119.1 62.4 119 63.2C118.5 64.3 118.1 65.5001 117.9 66.8001C117.6 65.2001 117.3 63.6 117.1 62L117 62.1ZM109.6 104.3C116.7 97.2001 124.3 90.3 132.8 85.7C136.6 83.7 140.7 82 145 82.1C140.9 86 136.8 89.7001 132.6 93.4C124.9 100.1 117 106.8 108.4 111.9C106.5 113 104.6 114.1 102.6 114.9C101.5 115.3 100.3 115.7 99.1 115.8C102.4 111.8 106 108 109.6 104.3ZM88.4 52.9C87.5 54.6 86.5 56.2001 85.5 57.8001C84 60.0001 82.3 62.7 80 64.1C80.1 63.3 80.2 62.4 80.1 61.6C80.1 61.3 80.1 61.1001 79.9 60.8001C80.3 60.0001 80.8 59.1001 81.3 58.3001L81.4 58.1C82.7 56.2 84.3 54.4 86.1 53.5C86.1 53.5 86.2001 53.5 86.3 53.5C87 53.2 87.6 53 88.4 52.9ZM86.6 47.4C86.5 48.3 86.2999 49.1 86.2 50C86 51.1 85.8 52.1 85.5 53.2C83.9 54 82.5 55.4 81.3 57C81 55.9 80.7001 54.8001 80.3 53.8001C81.7001 50.8001 83.8 48.1001 86.4 46.3001H86.6C86.6 46.3001 86.6 46.3001 86.7 46.3001C86.7 46.7001 86.7 47.2 86.7 47.6L86.6 47.4ZM88 37.1C87.6 40 87.1 43.4 85.6 45.9C85.4 46 85.3 46.1 85.1 46.2C83.8 47.2 82.6 48.4001 81.5 49.8001C81.1 50.3001 80.8 50.9 80.4 51.4C80.6 48.5 80.7 45.2001 80.1 42.3001C80.9 40.8001 81.9 39.2001 82.8 37.8001C83.1001 37.4001 83.3999 36.9 83.7 36.5C85 34.8 86.5 33.1 88.3 32.1C88.2001 33.8 88 35.4 87.8 37.1H88ZM88.5 25.1C88.4 27.3 88.2 29.5 87.9 31.7C86.3 32.5 85 33.9001 83.7 35.3001C83.2999 32.5001 82.6 29.7 81.6 27.1C82.1 24 83.8 21.1 85.4 18.7C86.2 17.4 87.2 16.1001 88.1 14.8001C88.8 18.1001 88.7 21.7 88.5 25V25.1ZM85.7 2.80007C86.1 2.30007 86.5 1.80007 87 1.30007C87.4 2.20007 87.7001 3.30007 87.8 4.30007C88 5.70007 88.1 7.2 88.1 8.6C88.1 10.3 88.1 11.9 87.9 13.6C87 14.7 86.2 15.8 85.5 16.9C85.3 14.6 84.6 12.4001 83.9 10.3001C83.7 9.80007 83.6 9.30005 83.4 8.90005C83.6 6.60005 84.3999 4.49997 85.7 2.69997V2.80007ZM79.1 21.9C79.3 19.7 79.7 17.5 80 15.2C80.3 13.5 80.6 11.8 81 10.1C81.2 9.2 81.5 8.30005 81.8 7.40005C82.2001 8.50005 82.6 9.5 83 10.6C83.8 13 84.5 15.6001 84.7 18.3001C84.7 18.3001 84.6 18.5 84.5 18.6C83.2 20.7 81.8 23.1 81.1 25.6C81 25.4 80.9 25.1 80.8 24.9C80.3 23.9 79.8 22.9 79.1 22C79.1 22 79.1 22 79.1 21.9ZM77.1 29.4C77.1 27.9 77.3 26.3001 77.5 24.8001C77.6 23.9001 77.8 23 78.1 22.2C78.1 22.2 78.2001 22.2 78.3 22.2C78.9 23 79.4 23.9001 79.8 24.8001C80.1001 25.5001 80.3999 26.1001 80.7 26.8001L81.1 27.9C82 30.6 82.7 33.4001 83 36.3001C82.7 36.7001 82.3 37.2 82 37.7C81.2 38.8 80.5 40 79.9 41.1C79.3 38.9 78.4 37 76.9 35.5C76.9 33.5 76.9 31.5 77.1 29.5V29.4ZM75 40.2C75 38.4 75 36.5001 75.5 34.8001C75.7 35.0001 75.9 35.1001 76.1 35.3001C76.1 35.3001 76.1 35.3 76.2 35.4C76.5 35.7 76.7 36.0001 76.9 36.3001C78.1 38.0001 78.7999 40.1 79.2 42.2V42.7C79.3999 43.3 79.5 44 79.5 44.6C79.7 47.1 79.7 49.5 79.5 52C78.7 50.2 77.7 48.6 76.7 47C76.1 46.1 75.5 45.2 74.8 44.4C74.8 43 74.8 41.6 75 40.2ZM73.1 43.4C74.1 44.5 75 45.7 75.8 46.9C77.2001 49 78.5 51.3 79.4 53.7C79.9 55 80.3 56.4 80.6 57.9C80.2 58.6 79.8 59.2 79.4 59.9C77.8 57.3 75.7999 54.7 73.2 53.6C73 52.2 72.9 50.8 72.9 49.4C72.9 47.4 72.7 45.3 73.1 43.4ZM78.9 64.4C78.4 64.2 77.8 64 77.3 63.7C75.7001 62.9 74.2999 61.7 73.2 60.1C72.5 59.1 71.9 58 71.5 56.9C71.3 56.3 71.2 55.7 71 55C71 54.8 70.7001 54 70.8 53.9C71 53.6 71.8 53.7 72.3 53.9C72.3 53.9 72.5 53.9 72.6 53.9C72.6 53.9 72.7001 53.9 72.8 53.9C75.4 55.1 77.3 58 78.9 60.5L79 60.9C79 61.1 79.1 61.3 79.1 61.6C79.1 62.5 79.1 63.4001 79 64.3001C79 64.3001 79 64.3001 78.9 64.3001V64.4ZM81.3 107.6C84.9 99.6 89.1001 92.0001 93.8 84.8001C94.2001 84.1001 94.7 83.5001 95.1 82.8001C94.3 86.5001 93.3 90.2 92 93.7C90.8 97 89.4 100.1 87.8 103C86.9 104.6 86 106.3 85.2 108C80.6 117.2 76.6 126.8 72.5 136.3C71.9 137.6 71.4 138.9 70.9 140.1C72.9 128.7 76.6001 117.8 81.3 107.5V107.6ZM66.5 134.8C64.7 123.1 63.2 111.3 62.9 99.5C62.8 94 62.9 88.4 63.8 83.1C63.8 83.3 64 83.4 64.1 83.6C65 85.4 65.8 87.3001 66.3 89.3001C69.2001 99.0001 69.7 109.7 69.9 119.9C70 127.7 69.8 135.6 69.3 143.4C69.2001 145.3 69 147.1 68.9 149C68 144.3 67.2 139.6 66.5 134.8ZM44.7 67.2C45.7 60.5 47.1 53.5 49.9 47.4C51 45.1 52.4 42.6 54.4 41.2C53.9 44.9 53.3 48.5 52.6 52.1C51.3 58.8 49.8 65.6001 47.1 71.8001C46.2 73.9001 45.1 76.3 43.4 77.7C43.7 74.2 44.1 70.6 44.7 67.1V67.2ZM42.7 30.4C43.1 29.6 43.7 28.8001 44.4 28.3001C44.4 29.6001 44.4 30.9 44.2 32.1C43.9 34.8 43.4 37.8 42 40.1C41.5 41.1 40.8 41.9 39.9 42.4C40 41.1 40.2 39.7 40.4 38.4C40.9 35.7 41.5 32.8 42.7 30.4ZM39 48C38.7 47.6 38.3 47.2001 38 46.8001C36.8 45.3001 35.8 43.6 34.9 42C32.7 37.9 31.1 33.2001 31.4 28.3001C32.2 28.9001 33 29.6 33.6 30.4C35.9 32.9 37.4 36.2 38.3 39.7C38.9 42.4 39.1 45.3 39 48.1V48ZM37.8 35.4C37.8 33.6 38 31.8 38.1 30C38.2 28.5 38.4 27.1 38.7 25.6C38.9 24.8 39 23.9 39.3 23.1C39.5 23.6 39.6 24.2 39.7 24.7C40.4 27.5 40.5 30.5 40.4 33.5C39.8 35.6 39.4 37.7001 39.1 39.8001C38.8 38.3001 38.2999 36.8 37.7 35.4H37.8ZM38 103.7C37.1 102.3 36 101 35.2 99.4C34.2 97.4 33.4 95.3 32.6 93.2C30.8 88.3 29.2 83.3 27.8 78.2C27.1 75.8 26.4 73.4 25.8 71C27.7 74 29.6 77.1 31.4 80.2C36.4 88.8 40.9 97.8001 44.7 107.3C46.2999 111.2 47.7 115.3 48.9 119.4C49.1 120.4 49.4 121.4 49.6 122.3C45.9 116 42.1 109.7 38 103.6V103.7ZM26.7 131.3C24.8 124.6 23.5 117.5 23.1 110.5C26.2 116.7 29.1 123 32 129.4C34.5 135 36.9 140.7 39 146.5C41 152.1 42.7001 158 45.8 163C45.9 163.2 46 163.4 46.1 163.5C36.6 155.7 30.2 143.9 26.6 131.3H26.7ZM39 165.9C34.8 164.9 30.6 163.5 26.5 161.8C19.4 158.9 12.4 155.4 5.69995 151.6C4.39995 150.9 3.10002 150.1 1.90002 149.4C2.70002 149.2 3.7 149.3 4.5 149.4C6.1 149.6 7.69995 149.9 9.19995 150.3C13.3 151.3 17.3 152.8 21.2 154.3C29.1 157.4 36.9 160.9 44.5 164.6C46 165.3 47.5 166 49 166.8C45.7 167.2 42.3 166.8 39.1 166L39 165.9ZM67 189.7C67 190.4 67 191.1 67 191.7C66.8 190.5 66.5 189.3 66.2 188C66.2 188.2 66.4 188.3 66.4 188.4C66.6 188.8 66.8 189.1 67 189.5V189.7ZM67.7 199.9C67.7 200.3 67.9 200.8 68 201.2C68.3 202.8 68.7 204.4 69 206.1C68.5 207.1 68.1 208 67.6 209C67.6 206 67.6001 202.9 67.8 199.9H67.7ZM67.4 224.9C67.4 220.4 67.4 216 67.4 211.5C67.8 210.5 68.2999 209.5 68.7 208.5C68.7999 208.2 69 207.9 69.1 207.7C69.3 208.9 69.6001 210.1 69.8 211.3C68.9 215.8 68.1001 220.4 67.3 225L67.4 224.9ZM71.7 202.9C71.2999 204.9 70.9 206.8 70.5 208.8C70.5 208.5 70.4 208.1 70.3 207.8C70.3 207.3 70.1 206.8 70 206.2C70.6 205 71.2001 203.7 71.8 202.5C71.8 202.6 71.8 202.7 71.8 202.9H71.7ZM70.3 203.2C70 203.7 69.8 204.2 69.5 204.8C68.9 201.8 68.2999 198.9 67.7 195.9C67.7 194.4 67.7001 193 67.8 191.5C69.2001 194.4 70.6001 197.3 71.8 200.3C71.3 201.3 70.7 202.3 70.2 203.3L70.3 203.2ZM117 156.9C122.5 155.3 128.5 155 133.9 156.9C134.5 157.1 135 157.4 135.6 157.6C133.1 157.4 130.5 158.2 128.1 158.8C123.9 160 119.7 161.5 115.7 163.2C107.6 166.5 99.6001 170.2 91.8 174.2C90.9 174.7 89.9 175.1 89 175.6C97.1 167.2 106.4 159.8 117.1 156.8L117 156.9ZM95.2 166.1C94.2 167.2 93.3 168.4 92.3 169.5C91 171.1 89.8 172.7 88.5 174.3C89.6 169.5 91 164.7 92.6 160.1C94.1 155.9 95.8 151.7 98.1 147.9C99.4 145.7 101 143.6 102.4 141.5C103.6 139.7 104.7 137.8 105.8 135.8C106.3 134.9 106.8 133.9 107.3 132.9C107.2 135.1 106.8 137.3 106.4 139.4C105.6 143.3 104.5 147.2 103.1 150.9C101.7 154.6 100 158.1 98.1 161.4C97.2 163 96.2 164.6 95.1 166.1H95.2ZM99 161.7C100.9 158.4 102.7 154.8 104.1 151.1C109.7 143.2 116.4 136.5 123.7 130.9C128.8 127 134.2 123.5 139.8 120.6C140.2 120.4 140.6 120.2 140.9 120C134.8 127.1 128.5 134.2 121.8 140.6C119.9 142.5 117.9 144.3 115.7 145.9C115.2 146.3 114.7 146.6 114.2 147C112.8 148.1 111.4 149.4 110 150.6C106.1 154.1 102.4 157.9 98.8 161.8L99 161.7ZM144.6 141.6C136.1 146.3 127.3 150.6 118.2 153.5C114.2 154.8 110 155.9 105.8 155.8C107 154.6 108.3 153.3 109.6 152.1C111.3 150.5 112.9 149 114.7 147.6C116 146.5 117.4 145.5 118.7 144.5C122.2 142.8 125.7 141.2 129.3 139.8C135.8 137.1 142.5 134.6 149.4 133.6C152 133.2 155.1 132.8 157.6 134.1C153.4 136.8 149.1 139.2 144.8 141.6H144.6Z" fill="#231F20"/>
<path d="M158.7 133.8C156.1 132.4 153.1 132.4 150.2 132.7C146.8 133.1 143.4 133.9 140.1 134.9C133.3 136.9 126.8 139.7 120.3 142.7L120.7 143.3C124.9 139.5 128.9 135.3 132.8 131.1C134.7 129 136.6 126.9 138.5 124.8C139.5 123.7 140.5 122.6 141.5 121.4C142 120.8 143.2 119.9 143.4 119.1C143.4 119 143.4 118.8 143.4 118.7C142.5 117.9 141.2 118.7 140.3 119.2C138.3 120.2 136.3 121.3 134.4 122.5C130.6 124.7 127 127.2 123.5 129.8C116.6 135.1 110.3 141.2 105 148.1L105.7 148.4C106.8 145.2 107.6 141.9 108.2 138.6C108.4 137.1 108.6 135.7 108.8 134.2C108.8 133.4 108.9 132.7 109 131.9C109 131.5 109.2 130.7 109 130.3C107.7 128.2 106.3 132.8 106.1 133.3C104.6 136.4 102.7 139.2 100.8 142.1C98.9001 145 97.1 147.5 95.6 150.4C94.1 153.3 93.0001 156.2 91.9001 159.1C90.7001 162.3 89.7001 165.6 88.8001 168.9C88.4001 170.4 88 171.9 87.6 173.4C87.3 174.6 87.1001 175.8 86.4001 176.9C81.9001 183 77.7 189.5 74 196.1L74.7 196.4C79.6 175.2 85.8 154.3 93 133.8C95 128 97.1 122.3 99.2 116.5L98.8001 116.8C102.4 117 105.7 115 108.8 113.3C112.4 111.2 115.8 108.8 119.2 106.3C125.9 101.2 132.3 95.8 138.5 90.2C140.1 88.7 141.7 87.3001 143.3 85.8001C144 85.1001 144.7 84.5001 145.5 83.8001C145.9 83.4001 146.8 82.9001 146.9 82.3001C147.1 80.3001 140.1 81.9 139.2 82.1C131.7 84.2 125 89.2 119.1 94.1C112 100 105.5 106.7 99.5 113.6L100.1 114C103.9 103.6 108.2 93.4 112.6 83.2C113.7 80.7 114.8 78.2001 115.9 75.8001C116.4 74.6001 117 73.5001 117.5 72.4001C117.9 71.5001 118.3 70.3 118.9 69.5C119.2 69 120 68.6 120.4 68.2C120.9 67.8 121.4 67.3001 121.9 66.8001C122.8 65.9001 123.7 65 124.6 64.1C126.3 62.3 127.9 60.4001 129.2 58.3001C129.7 57.5001 131.8 54.0001 130.5 53.3001C129.9 53.0001 128.9 53.6001 128.5 53.8001C127.2 54.4001 126 55.2 124.9 56.1L125.5 56.5C126.3 53.9 127.1 51.3 127.4 48.5C127.5 47.4 128.3 43.4 126.8 43.1C125.3 42.8 123.6 44.8001 122.8 45.9001C121.3 47.9001 120.4 50.4 119.6 52.7H120.3C119.9 51.7 118.7 49.7001 117.5 50.8001C117 51.2001 116.7 52.3001 116.5 52.9001C116.2 53.9001 116 54.9 115.9 56C115.7 58.3 115.9 60.7 116.2 63.1C116.3 64.2 116.5 65.2001 116.7 66.3001C116.8 66.9001 117 67.6 117.1 68.2C117.1 68.5 117.5 69.1 117.5 69.5C117.5 69.7 117 70.3 116.9 70.6C116.6 71.2 116.3 71.8 116 72.5C115.3 73.9 114.7 75.3 114.1 76.7C113 79.2 111.9 81.7 110.8 84.2C108.6 89.2 106.5 94.3001 104.5 99.4001C96.1 120.1 88.7001 141.2 82.3001 162.6C80.5001 168.6 78.8 174.6 77.2 180.7C76.4 183.7 75.6001 186.8 74.9001 189.8C74.5001 191.3 74.2001 192.8 73.8001 194.3C73.6001 195.1 73.4 196 73.2 196.8C73 197.6 73 198.6 72.6 199.3H73.3001C72.1001 196.5 70.8 193.7 69.5 190.9C68.7 189.4 69 187.8 69 186.1C69 184.4 69.1 182.6 69.2 180.9C69.4 174.4 69.8 167.8 70.1 161.3C70.3 158.1 70.5 154.9 70.7 151.6C70.7 150.1 70.9 148.6 71 147.1C71 146.3 71 145.4 71.2 144.6C71.4 143.6 71.8 142.7 72.2 141.8C74.8 135.7 77.4 129.6 80.1 123.5C82.6 117.8 85.1 112.1 88 106.6C90.9 101.1 93.4 96.1001 95.1 90.3001C95.5 88.9001 95.9001 87.5 96.3001 86C96.5001 85.3 96.6001 84.6001 96.8001 83.8001C97.0001 83.0001 97.4001 81.9 97.3001 81.1C97.3001 80.7 97.1 80.5001 96.7 80.4001C96 80.2001 95.6001 80.8001 95.3001 81.3001C91.7001 86.2001 88.7001 91.4 85.8001 96.7C79.2001 108.8 74.1 121.7 71.1 135.1H71.8001C72.9001 122 74.2001 108.9 75.9001 95.8001C76.7001 89.3001 77.7 82.8001 78.7 76.3001C79.2 73.3001 79.7001 70.3001 80.3001 67.4001C80.4001 66.8001 80.4 65.9001 80.7 65.4001C80.9 65.0001 81.3 64.8 81.7 64.6C82.7 63.9 83.5001 63.1 84.3001 62.2C86.2001 59.9 87.9001 57.3 89.3001 54.7C89.6001 54.1 90.7 52.9001 90.1 52.3001C89.4 51.6001 87.6001 52.1001 86.9001 52.3001L87.4001 52.8001C87.8001 51.0001 88.2001 49.2001 88.4001 47.4001C88.5001 46.4001 88.9 44.9001 87.5 44.8001L87.8001 45.4001C89.0001 42.7001 89.4001 39.9 89.8001 37C90.0001 35.4 90.2001 33.9001 90.3001 32.3001C90.3001 31.4001 90.3001 31.0001 89.4001 30.9001L89.8001 31.3001C90.2001 28.1001 90.5 24.8 90.5 21.5C90.5 19.9 90.5001 18.4001 90.3001 16.8001C90.2001 16.0001 90.2 14.2 89.6 13.6V14C90 13.2 89.9001 11.9 89.9001 11.1C89.9001 9.80002 89.9001 8.5001 89.9001 7.3001C89.9001 5.2001 89.7 2.90005 88.7 1.00005C87.9 -0.599954 86.6001 0.700022 85.8001 1.60002C84.3001 3.20002 83.4001 5.2001 82.9001 7.3001H83.6C83.3 6.6001 83.1 5.50007 82.1 5.90007C81 6.30007 80.7001 8.40007 80.4001 9.40007C79.4001 13.3001 78.8001 17.3001 78.3001 21.3001L78.9001 21C77.0001 20.1 76.8 24 76.7 25.1C76.3 28.3 76.2 31.5001 76.2 34.8001L76.8001 34.5C76.4001 34.2 75.8 33.7001 75.2 33.9001C74.5 34.2001 74.6 35.5 74.5 36C74.2 38.5 74.2 41.1 74.1 43.6L74.7 43.3001C74.3 42.8001 73.6001 41.9 72.9001 42.1C72.2001 42.3 72.1 43.7001 72.1 44.3001C71.7 47.3001 72.1001 50.5 72.4001 53.5L72.9001 53.1C71.9001 52.9 70.2001 52.8 70.3001 54.1C70.3001 55.8 71.1001 57.6 71.9001 59.1C73.5001 62 76.2001 64.3001 79.4001 65.3001L79.1 64.8001C77.2 74.3001 75.8 84 74.5 93.7C73.2 103.4 72.1 113.8 71.1 123.8H71.9001C71.9001 113.7 71.4001 103.4 69.3001 93.5C68.8001 91.1 68.1 88.7001 67.2 86.3001C66.8 85.3001 66.4001 84.4001 65.9001 83.4001C65.6001 82.8001 65.2 81.9 64.6 81.5C63.1 80.6 63.1001 82.7 62.9001 83.7C62.5001 86 62.3 88.4001 62.2 90.8001C61.7 101.1 62.7001 111.5 63.9001 121.7C64.5001 126.7 65.2 131.7 66 136.7C66.4 139.3 66.9001 142 67.3001 144.6C67.7001 147 68.4 149.5 68.7 151.9C68.9 153.4 68.7 155 68.5 156.5C68.5 158.1 68.3 159.6 68.2 161.2C68 164.1 67.9001 166.9 67.8001 169.8C67.5001 175.8 67.3 181.8 67.1 187.8L67.8001 187.6C67.4001 186.9 66.9 186.1 66.6 185.4C66.2 184.5 66.1001 183.5 65.9001 182.5C65.6001 180.8 65.2001 179.1 64.8001 177.4C64.1001 174.1 63.4 170.7 62.7 167.4C61.3 160.7 59.8 154 58.2 147.4C56.7 141 55.1 134.7 53.1 128.4C51.1 122.1 49.7 115.8 48.5 109.3C47.3 102.6 46.3001 95.9 45.4001 89.2C45.2001 87.5 45 85.8 44.7 84.2C44.6 83.3 44.5001 82.5 44.4001 81.6C44.4001 80.9 43.9 79.7 44.1 79C44.3 78.4 44.8 78.2001 45.2 77.8001C45.6 77.4001 46.0001 77 46.3001 76.5C47.1001 75.4 47.8001 74.2001 48.4001 72.9001C51.0001 67.3001 52.5 61.1 53.7 55.1C54.4 51.8 55 48.5001 55.5 45.3001C55.7 43.9001 55.9 42.4 56.2 41C56.2 40.4 56.3 39.9001 55.6 39.9001C54.7 39.9001 53.8 40.7001 53.1 41.3001C52 42.2001 51.2 43.4 50.5 44.6C48.8 47.4 47.7 50.6001 46.7 53.8001C44.7 60.6001 43.5001 67.8001 42.9001 74.9001H43.7C43 69.4001 42.4001 63.9001 41.8001 58.3001C41.5001 55.6001 41.2 52.9 41 50.1C40.8 47.8 41 45.4 40.7 43.1L40.4001 43.5C44.8001 42 45.6 35.8001 46 31.8001C46 31.1001 46.1 30.4 46.2 29.7C46.2 29.1 46.4 28.3 46.2 27.7C46.1 27.3 45.9001 27.0001 45.4001 26.9001C43.6001 26.6001 42.2 29.2 41.6 30.5L42.3001 30.7C42.3001 29.5 41.9001 20.3001 39.4001 21.3001C38.9001 21.5001 38.7 22.4001 38.5 22.9001C38.1 24.0001 37.9 25.1001 37.7 26.3001C37.3 28.7001 37.1 31.1 37 33.6L37.7 33.4001C37 32.2001 36.3001 31.1 35.4001 30.1C34.5001 29.1 33.2001 27.7 31.9001 27.1C29.6001 26.2 30.4 30.2001 30.6 31.3001C31.2 37.2001 34.1001 43.2001 37.9001 47.8001C38.2001 48.2001 38.8 48.6 39 49C39.3 49.6 39.2001 50.7001 39.3001 51.4001C39.5001 53.3001 39.7001 55.2 39.9001 57.1C40.3001 60.7 40.7 64.3001 41.1 67.9001C41.9 74.8001 42.7 81.7 43.7 88.6C44.8 96.6 46 104.5 47.5 112.4L48.2 112.2C45.1 103.7 41.3 95.5 37.1 87.5C35 83.6 32.8 79.7001 30.5 75.8001C29.3 73.9001 28.2001 72 26.9001 70C26.4001 69.2 25.8 67.8 24.6 68C24.5 68 24.4001 68.1001 24.3001 68.3001C24.2001 68.9001 24.5 69.5 24.7 70.1C25 71.1 25.2 72 25.5 73C26 74.9 26.6 76.9001 27.1 78.8001C28.2 82.6001 29.4001 86.5001 30.8001 90.3001C32.0001 93.7001 33.2 97.2001 35.1 100.3C37.1 103.7 39.4 106.8 41.5 110.1C43.6 113.4 45.7001 117 47.8001 120.4C48.8001 122.1 50 123.8 50.6 125.6C51.2 127.4 51.9 129.4 52.5 131.3C54.9 139.2 56.6001 147.3 58.4001 155.4C60.4001 164.4 62.3 173.5 64.2 182.5L64.9001 182.2C62.2001 177.8 59.2 173.6 55.5 170C53.9 168.3 52 166.9 50.2 165.5C48.2 164 46.8 161.3 45.7 159.1C43.4 154.4 42 149.4 40.2 144.5C38.4 139.6 36.3 134.4 34 129.5C31.7 124.6 29.3001 119.3 26.9001 114.3C26.3001 113.2 25.8 112 25.2 110.9C24.9 110.3 24.6001 109.7 24.3001 109.1C24.1001 108.7 23.9 107.9 23.5 107.6C23.2 107.4 22.6001 107.4 22.3001 107.6C21.7001 108.1 22.1 109.2 22.1 109.8C22.5 120 24.9 130.3 28.7 139.8C32.6 149.6 38.5 158.5 47 165L47.4001 164.3C39.7001 160.5 31.9 156.9 24 153.7C20 152.1 15.9001 150.6 11.8001 149.5C9.90009 149 7.90007 148.5 5.90007 148.2C4.60007 148 2.40002 147.8 1.10002 148.6C0.200017 149.2 1.30009 149.8 1.80009 150.1C3.70009 151.2 5.60004 152.3 7.50004 153.4C11.3 155.5 15.1 157.4 19 159.3C26.4 162.8 34.3001 166 42.4001 167.2C44.4001 167.5 46.3001 167.6 48.3001 167.4C48.7001 167.4 49.2 167.2 49.5 167.3C49.8 167.4 50.5001 167.8 50.9001 168.1C51.8001 168.8 52.6001 169.5 53.4001 170.3C56.4001 173.2 59.0001 176.5 61.4001 180C62.6001 181.7 64.2001 183.7 64.8001 185.8C65.4001 187.9 65.7 190.1 66.1 192.2C66.3 193.2 66.6 194.2 66.7 195.2C66.9 196.5 66.7 197.9 66.7 199.2C66.7 201.3 66.7 203.5 66.6 205.6C66.6 207.9 66.8001 210.2 65.9001 212.3C65.1001 214.1 64.4 215.9 63.7 217.7C62.1 221.6 60.8 225.6 59.5 229.6C57 237.7 55.1001 246 53.8001 254.3C53.7001 255.1 52.9001 257.1 53.9001 257.6C55.1001 258.2 55.1 256.9 55.2 256.1C55.8 251.9 56.6 247.7 57.5 243.6C59.3 235.5 61.7 227.5 64.7 219.7C65.5 217.6 66.3 215.6 67.2 213.5L66.5 213.3C66.5 216.1 66.5 218.8 66.5 221.6C66.5 224.5 66.7 227.4 66.5 230.3C66.3 232.9 65.8001 235.6 65.4001 238.2C65.0001 241 64.7001 243.8 64.4001 246.6C64.1001 249.4 63.9 252 63.6 254.8C63.6 256.1 63.4001 257.4 63.3001 258.6C63.3001 259.3 63.3 260 63.2 260.7C63.2 261.3 62.9 262.5 63.1 263C63.4 263.7 64.4 263.7 64.7 263C64.9 262.7 64.7001 262.2 64.8001 261.8C64.8001 261.1 64.8001 260.4 64.9001 259.7C64.9001 258.2 65.1 256.8 65.2 255.3C65.7 249.1 66.4 242.8 67.2 236.6H66.4001C66.4001 242.1 66.6 247.6 66.7 253.1C66.7 255.8 66.8001 258.5 66.9001 261.3C66.9001 261.9 66.7 262.9 67.2 263.3C67.5 263.5 68.1001 263.6 68.4001 263.4C68.9001 263 68.6 262 68.6 261.5C68.6 260 68.6 258.6 68.5 257.1C68.5 254.3 68.4001 251.6 68.3001 248.8C68.2001 243.3 68.1 237.8 68.1 232.3C68.1 229.1 68.8001 225.9 69.3001 222.7C69.8001 219.5 70.4 216.5 71 213.4H70.3001C73.1001 227.5 75.9 241.6 78.6 255.8C78.7 256.5 78.6 257.6 79.5 257.7C80 257.8 80.5 257.7 80.5 257.1C80.5 256.5 80.2 255.7 80.1 255.1C79.9 254.3 79.8 253.4 79.6 252.6C79.2 250.8 78.9 248.9 78.5 247C77.1 239.8 75.7001 232.7 74.3001 225.5C73.5001 221.6 72.7 217.7 72 213.8C71.8 212.8 71.4 211.6 71.5 210.5C71.5 209.6 71.9 208.7 72 207.8C72.4 205.9 72.8 204 73.2 202.1H72.5C76.9 213 80.2001 224.4 82.8001 235.9C83.1001 237.3 83.4 238.7 83.7 240.1C83.9 240.9 84 241.6 84.2 242.3C84.3 242.8 84.2 243.8 84.6 244.2C85.1 244.9 86.2 244.5 86.2 243.8C86.2 243.1 85.9001 242.2 85.8001 241.5C85.7001 240.8 85.5001 240.2 85.4001 239.5C85.1001 237.9 84.7001 236.3 84.3001 234.8C83.6001 232 82.9 229.2 82.2 226.4C80.7 220.8 79 215.2 77.1 209.7C76.1 207 75.1 204.3 74 201.6C73.6 200.6 73.6 200.1 74 199.1C74.3 198.5 74.6001 197.9 74.9001 197.4C75.6001 196.1 76.3 194.8 77.1 193.6C80 188.7 83.0001 184 86.3001 179.4C86.7001 178.9 87.0001 178.3 87.4001 177.8C88.0001 177.2 88.8 176.9 89.6 176.5C90.9 175.8 92.3 175.1 93.7 174.5C96.3 173.2 99 171.9 101.6 170.7C107.6 167.9 113.6 165.1 119.9 162.7C123 161.5 126.1 160.4 129.3 159.6C131 159.1 132.7 158.7 134.5 158.6C135.3 158.6 136.1 158.7 136.8 158.6C137.1 158.6 137.3 158.6 137.5 158.4C137.6 158.2 137.6 158 137.5 157.9C136.6 156.7 134.3 156.1 132.9 155.7C131.1 155.2 129.2 154.9 127.3 154.8C123.1 154.5 118.8 155.2 114.8 156.5C106.6 159.2 99.4 164.3 93 170L93.6 170.4C95.2 168.3 96.7001 166.2 98.4001 164.2C100 162.4 101.7 160.6 103.4 158.8C103.8 158.3 104.3 157.9 104.8 157.4C105.3 156.9 105.7 156.7 106.4 156.7C107.6 156.6 108.8 156.7 110 156.5C112.5 156.2 115 155.6 117.4 154.8C127 152 136.2 147.5 144.9 142.7C147.5 141.3 150 139.9 152.5 138.4C153.7 137.7 154.9 137 156.2 136.2C156.9 135.8 158.6 135.1 159 134.3C159 134.1 159 134 159 133.9H158.9C158.6 133.4 158.1 133.9 158.4 134.3H158.5C158.5 134.4 158.5 134 158.5 134C158.3 134.4 157.2 134.8 156.9 135.1C156.4 135.4 155.9 135.7 155.4 136C154.3 136.6 153.2 137.3 152.2 137.9C150 139.2 147.7 140.5 145.4 141.7C141 144.1 136.5 146.4 131.8 148.5C127.1 150.6 122.3 152.6 117.4 154.1C114.8 154.9 112.1 155.5 109.3 155.8C108.1 155.9 106.9 155.8 105.8 155.9C104.9 155.9 104.4 156.9 103.7 157.6C101.8 159.6 99.9 161.6 98.1 163.7C96.3 165.8 94.8 167.9 93.2 170C92.9 170.3 93.5001 170.7 93.8001 170.4C99.8001 165 106.7 160.1 114.4 157.3C118.1 156 122 155.2 126 155.3C127.9 155.3 129.8 155.5 131.7 155.9C132.5 156.1 133.4 156.3 134.2 156.6C135.1 156.9 136.6 157.4 137.3 158.2V157.7C137.3 157.8 136 157.7 135.8 157.7C135.2 157.7 134.5 157.7 133.9 157.9C132.6 158.1 131.2 158.4 129.9 158.7C127.2 159.4 124.5 160.3 121.8 161.3C116.6 163.2 111.5 165.4 106.5 167.7C101.5 170 96.2 172.5 91.1 175.1C90.5 175.4 89.9001 175.7 89.3001 176C88.8001 176.3 88 176.5 87.5 176.9C86.7 177.6 86.0001 178.9 85.4001 179.8C83.8001 182 82.3001 184.3 80.8001 186.6C79.3001 188.9 77.9 191.3 76.5 193.7C75.8 194.8 75.2 196 74.6 197.1C74 198.1 73.1 199.3 73.1 200.5C73.1 201.4 73.9 202.6 74.2 203.5C74.7 204.9 75.3001 206.3 75.8001 207.7C76.8001 210.4 77.7 213 78.5 215.7C80.2 221 81.7 226.5 83.1 231.9C83.8 234.7 84.5 237.5 85 240.4C85.1 241.1 85.3001 241.7 85.4001 242.4C85.4001 242.8 85.8001 244.6 85.4001 243.3C85.0001 242 84.8 240.5 84.5 239.1C81.8 226.5 78.3 214.1 73.5 202.1C73.4 201.8 72.9001 201.7 72.8001 202.1C72.5001 203.6 72.1001 205.1 71.8001 206.6C71.5001 208 70.9001 209.6 70.9001 211.1C70.9001 212.4 71.5 214 71.7 215.3C72 217 72.4 218.7 72.7 220.4C74 227 75.3 233.7 76.6 240.3C77.2 243.5 77.9 246.8 78.5 250C78.8 251.5 79.1001 253 79.4001 254.5C79.5001 255.1 80.0001 256.4 79.9001 257C79.9001 257.4 79.9 257 79.7 256.8C79.5 256.3 79.5001 255.6 79.4001 255C78.2001 248.5 76.9 242 75.6 235.5C74.2 228.1 72.7 220.7 71.2 213.4C71.2 213 70.5 213 70.5 213.4C69.6 218.3 68.7001 223.2 67.9001 228.1C67.1001 233 67.5 237.6 67.6 242.4C67.6 247.4 67.8001 252.4 67.9001 257.4C67.9001 258.6 67.9001 259.8 67.9001 261C67.9001 261.2 68.0001 262.8 67.9001 262.8C67.7001 262.9 67.7 261.2 67.7 261.1C67.7 258.7 67.6 256.3 67.5 254C67.4 248.3 67.3 242.7 67.2 237C67.2 236.5 66.5001 236.5 66.4001 237C65.8001 241.8 65.2001 246.7 64.8001 251.6C64.6001 254.1 64.4 256.6 64.2 259.1C64.2 259.7 64.2 260.3 64.1 260.9C64.1 261.3 64.1 262.3 64.1 262.7C63.8 263.2 63.9 262 64 261.8C64 261.1 64 260.4 64.1 259.7C64.4 254.8 64.9001 249.8 65.4001 244.9C65.7001 242.5 66.0001 240.1 66.3001 237.8C66.6001 235.5 67.2001 232.9 67.3001 230.5C67.5001 224.9 67.3001 219.3 67.3001 213.7C67.3001 213.4 66.7 213.2 66.6 213.5C63.5 220.7 60.9001 228 58.9001 235.5C57.8001 239.4 56.9 243.4 56.1 247.4C55.8 249.2 55.4 250.9 55.1 252.7C54.9 253.7 54.8 254.6 54.7 255.6C54.7 255.7 54.5 257 54.5 257.1C54.1 257.1 54.5 255.8 54.5 255.5C55.7 247.5 57.4001 239.6 59.8001 231.9C60.9001 228.2 62.2 224.5 63.6 220.9C64.3 219.1 65 217.3 65.7 215.5C66.4 213.8 67.4001 212.2 67.4001 210.4C67.4001 206.1 67.5 201.8 67.6 197.6C67.6 195.8 67.3001 194.2 66.9001 192.5C66.5001 190.4 66.1 188.2 65.6 186.1C65.2 184.4 63.9001 182.8 62.9001 181.4C61.8001 179.7 60.7 178.1 59.5 176.5C57.2 173.5 54.7001 170.7 51.8001 168.3C51.4001 167.9 50.7 167.3 50.2 167.1C49.7 166.9 48.3 167.3 47.7 167.3C45.6 167.3 43.5 167.2 41.5 166.8C37.5 166.1 33.6001 164.9 29.8001 163.6C22.2001 160.9 15.0001 157.2 7.90007 153.4C6.90007 152.8 5.80009 152.3 4.80009 151.7C4.50009 151.5 1.70009 150.1 1.80009 149.9C1.80009 149.4 4.19999 149.6 4.69999 149.6C5.99999 149.6 7.20007 149.9 8.40007 150.2C12.8001 151.1 17 152.6 21.2 154.2C30 157.6 38.6 161.6 47 165.7C47.4 165.9 47.8001 165.3 47.4001 165C32.3001 153.4 25.2001 133.6 23.3001 115.2C23.2001 114 23.1 112.9 23 111.7C23 111.1 22.8 110.3 23 109.7C23 109.4 22.7001 108.9 23.4001 109.1C23.5001 109.1 23.8001 109.9 23.8001 110C25.0001 112.3 26.1 114.7 27.2 117C29.4 121.7 31.6 126.4 33.7 131.1C35.8 135.8 37.8 140.8 39.6 145.7C41.2 150.1 42.5001 154.5 44.4001 158.8C45.4001 161 46.6 163.2 48.1 165.1C49.6 167 51.8 168.2 53.5 169.8C57.8 173.6 61.1 178.4 64.1 183.2C64.3 183.6 64.9001 183.3 64.8001 182.9C62.5001 171.7 60.1 160.6 57.5 149.5C56.2 144 54.9001 138.4 53.3001 133C52.9001 131.7 52.5 130.4 52.1 129.1C51.7 127.8 51.4001 126.3 50.8001 125.1C50.3001 124 49.6 123 49 121.9C48.2 120.6 47.4 119.3 46.7 118C43.9 113.3 41.1 108.6 38 104C36.5 101.8 35.1 99.8001 34.1 97.4001C33 94.9001 32.1 92.3 31.2 89.7C29.4 84.5 27.8001 79.2001 26.4001 73.8001C26.1001 72.5001 25.8001 71.2001 25.4001 69.9001C25.4001 69.9001 25.4 69.2001 25.1 69.3001C25.3 69.3001 25.8001 70 25.9001 70.2C26.4001 70.8 26.7 71.5 27.2 72.2C28.6 74.4 30.0001 76.6001 31.3001 78.9001C37.7001 89.7001 43.4 101.1 47.6 112.9C47.8 113.3 48.4001 113.2 48.3001 112.7C45.9001 100 44.2 87.2001 42.7 74.4001C41.9 68.0001 41.2 61.5 40.6 55C40.4 53.4 40.3 51.9001 40.1 50.3001C40.1 49.9001 40.1001 49.4 39.9001 49.1C39.7001 48.7 39.2001 48.4 38.9001 48.1C36.9001 45.8 35.3 43 34 40.2C32.5 37 31.4001 33.4001 31.4001 29.8001C31.4001 29.1001 31.1 27.7001 32.2 28.4001C32.9 28.9001 33.6 29.5 34.2 30.1C35.4 31.3 36.4 32.7 37.2 34.2C37.4 34.5 37.9001 34.4 37.9001 34C38.1001 30.7 38.2 27.3 39.1 24.2C39.1 23.9 39.4 22.9001 39.6 22.8001C40 22.6001 40.4 23.4 40.5 23.7C40.8 24.4 40.9 25.2001 41.1 25.9001C41.5 27.7001 41.6 29.4 41.7 31.2C41.7 31.5 42.2001 31.8001 42.4001 31.4001C42.7001 30.6001 43.1 29.8 43.7 29.2C44.2 28.6 45.4 27.6001 45.6 28.8001C45.7 29.6001 45.6 30.6001 45.5 31.3001C45.5 32.4001 45.3 33.5 45.1 34.5C44.6 37.6 43.7001 42 40.3001 43.2C40.2001 43.2 40 43.4 40 43.6C40.2 45.9 40.0001 48.1001 40.3001 50.4001C40.6001 53.2001 40.9 56.0001 41.1 58.8001C41.7 64.3001 42.3 69.8001 43 75.4001C43 75.9001 43.7001 75.9001 43.8001 75.4001C44.4001 69.1001 45.4 62.8 47 56.7C47.8 53.7 48.7 50.7001 50 47.9001C50.5 46.8001 51.1001 45.7 51.8001 44.6C52.5001 43.5 53.8 41.8001 55.1 41.4001C55.6 41.2001 55.5 41.3001 55.5 41.8001C55.5 42.2001 55.4001 42.6 55.3001 43C55.2001 43.7 55.1 44.4 55 45.1C54.7 46.8 54.5 48.4 54.2 50C53.6 53 53.0001 56.1 52.3001 59.1C51.0001 64.8 49.5 71.0001 46.2 75.9001C45.8 76.5001 45.4001 77.1 44.9001 77.6C44.4001 78.1 43.7 78.3 43.5 78.7C43.1 79.5 43.6 81.2 43.7 82.1C44.1 85.1 44.5001 88.2 44.9001 91.2C45.8001 97.6 46.7001 103.9 47.9001 110.3C49.0001 116.3 50.3 122.3 52.1 128.2C54 134.3 55.7 140.4 57.2 146.6C58.9 153.6 60.4001 160.6 61.9001 167.6C62.7001 171.2 63.4 174.8 64.2 178.4C64.6 180.2 65.0001 182 65.3001 183.7C65.4001 184.4 65.5 185.1 65.7 185.8C66 186.7 66.7 187.6 67.2 188.5C67.4 188.8 67.9001 188.7 67.9001 188.3C68.2001 178.5 68.7 168.6 69.2 158.8C69.3 156.6 69.8001 154.1 69.4001 152C68.9001 149.7 68.5 147.5 68.1 145.2C67.2 140.4 66.4 135.5 65.7 130.6C64.3 120.9 63.2001 111.2 62.9001 101.4C62.7001 96.7001 62.7 92.0001 63.2 87.3001C63.3 86.0001 63.4001 84.7 63.8001 83.5C64.0001 82.7 64.2001 82.6 64.8001 83.5C65.1001 84 65.3 84.5001 65.6 84.9001C66.7 87.1001 67.4 89.4 68 91.7C70.7 102.2 71.2 113.4 71.2 124.2C71.2 124.7 71.9 124.7 72 124.2C72.9 114.3 74.0001 104.4 75.3001 94.6C76.6001 84.8 78.0001 75.0001 79.9001 65.4001C79.9001 65.2001 79.9 65.0001 79.6 64.9001C77.2 64.2001 75.1 62.7 73.6 60.7C72.8 59.7 72.2 58.5001 71.7 57.3001C71.5 56.7001 71.3 56.1 71.2 55.5C71 54.4 71.6 53.9 72.7 54.1C72.9 54.1 73.2 54.1 73.2 53.7C73 51.7 72.8001 49.7 72.8001 47.6C72.8001 46.6 72.8001 45.6 72.9001 44.6C72.9001 44.2 72.9001 43.4 73.3001 43.2C73.7001 43 74.1001 43.7 74.3001 44C74.5001 44.2 74.9001 44 74.9001 43.7C74.9001 42 75 40.3 75.1 38.6C75.1 37.8 75.1001 37 75.3001 36.2C75.3001 36 75.3 35.1001 75.5 34.9001V34.7C75.9 34.8 76.2001 35 76.4001 35.2C76.6001 35.4 77 35.2001 77 34.9001C77 32.7001 77 30.5001 77.2 28.3001C77.2 27.7001 77.9 21.4001 78.6 21.8001C78.9 21.9001 79.1 21.8 79.2 21.5C79.5 18.8 79.9001 16.0001 80.4001 13.3001C80.6001 12.1001 80.9 11.0001 81.2 9.8001C81.4 9.2001 81.5001 8.60005 81.8001 8.00005C81.8001 7.40005 82.2 7.10005 82.7 7.00005C82.7 7.20005 82.9 7.5 83 7.7C83.1 8 83.6 8.1 83.7 7.7C84.1 6.1 84.7 4.50002 85.7 3.10002C86 2.70002 86.8001 1.5001 87.4001 1.3001C88.4001 0.900095 88.7001 2.70005 88.8001 3.50005C89.1001 5.10005 89.2 6.7001 89.2 8.3001C89.2 9.2001 89.2 10.2 89.2 11.1C89.2 11.8 89.4 13.2001 89.1 13.9001C89.1 14.1001 89.1 14.2001 89.1 14.3001C89.4 14.6001 89.4 15.7 89.5 16.2C89.6 17 89.7001 17.8 89.8001 18.6C89.8001 20 89.8001 21.4001 89.8001 22.8001C89.8001 25.7001 89.5 28.6001 89.1 31.4001C89.1 31.6001 89.3 31.7001 89.5 31.8001C90.1 31.8001 89.1 38.2001 89 38.9001C88.7 41.1001 88.2001 43.2 87.3001 45.2C87.2001 45.5 87.3 45.8001 87.6 45.8001C88.3 45.8001 86.9001 52.1001 86.8001 52.8001C86.8001 53.1001 87.0001 53.4001 87.3001 53.3001C87.7001 53.2001 89.5 52.7 89.6 53.1C89.6 53.4 88.8 54.7001 88.6 54.9001C87.9 56.1001 87.1001 57.4 86.3001 58.6C84.9001 60.7 83.4 63.0001 81.1 64.3001C80.1 64.9001 80.2001 64.7001 79.9001 65.8001C79.6001 67.1001 79.4 68.4 79.1 69.7C78.6 72.7 78.1 75.6 77.6 78.6C75.7 90.5 74.2001 102.5 72.9001 114.5C72.2001 121.4 71.5 128.4 71 135.3C71 135.7 71.6 135.8 71.7 135.3C74.4 123.5 78.7 112.1 84.1 101.3C86.7 96.1001 89.6 91.1 92.7 86.2C93.5 85 94.3 83.8 95.1 82.6C95.3 82.4 95.9 81.2 96.1 81.2C96.6 81.2 96.1 83.0001 96 83.3001C95.4 86.2001 94.6 89.0001 93.7 91.8001C91.8 97.5001 89.0001 102.6 86.3001 107.9C83.6001 113.2 81 119.1 78.5 124.8C76 130.5 73.7001 135.9 71.3001 141.4C71.0001 142.1 70.6001 142.8 70.4001 143.5C70.2001 144.1 70.2 144.7 70.2 145.3C70.2 146.8 70.0001 148.3 69.9001 149.7C69.7001 152.8 69.5001 155.9 69.3001 159.1C68.9001 166.2 68.5001 173.4 68.3001 180.5C68.3001 182.2 68.2 184 68.1 185.7C68.1 187 67.7001 188.8 68.3001 190C69.8001 193 71.3 196.1 72.6 199.2C72.7 199.5 73.1001 199.4 73.3001 199.2C73.7001 198.5 73.7001 197.5 73.9001 196.7C74.2001 195.5 74.4 194.4 74.7 193.2C75.2 191 75.7001 188.9 76.3001 186.8C77.4001 182.4 78.5 178.1 79.7 173.8C82.1 165.1 84.7 156.5 87.5 148C93 131 99.1001 114.3 105.8 97.8001C109.7 88.2001 113.8 78.6 118.3 69.2C118.3 69.1 118.3 68.9001 118.3 68.8001C118 68.3001 117.9 67.5001 117.8 66.9001C117.6 66.0001 117.4 65 117.2 64.1C116.9 62.3 116.7 60.6001 116.6 58.8001C116.6 57.1001 116.6 55.4001 117 53.8001C117.2 53.0001 117.4 51.9001 118 51.3001C118.8 50.5001 119.5 52.2 119.8 52.7C120 53 120.4 52.9 120.5 52.7C121.1 50.8 121.9 48.9 122.9 47.2C123.4 46.4 125.6 43.1001 126.8 43.9001C127.3 44.3001 127 46.3001 127 46.9001C127 48.0001 126.8 49.1 126.6 50.1C126.2 52.1 125.7 54.1 125 56.1C125 56.4 125.3 56.7 125.6 56.5C126.4 55.9 127.3 55.3 128.2 54.7C128.7 54.4 129.1 54.2 129.6 54C130 53.8 130.1 53.6 130.3 54C130.4 54.3 130.2 54.9 130.1 55.2C129.4 57.5 127.7 59.6001 126.2 61.4001C124.7 63.2001 123.1 64.8001 121.4 66.3001C120.6 67.1001 119.5 67.8 118.8 68.6C118.3 69.2 118 70.3 117.6 71C113.5 79.9 109.6 88.9001 106 97.9001C103.9 103.1 101.8 108.3 99.9001 113.5C99.8001 113.8 100.3 114.1 100.5 113.9C105.3 108.3 110.5 102.9 116 98C121.5 93.1 127.5 88.2001 134.2 84.8001C137.7 83.1001 141.5 81.6001 145.5 81.8001C146.8 81.8001 146.5 82 145.7 82.7C145 83.4 144.3 84.1 143.5 84.7C142 86.1 140.6 87.4001 139.1 88.8001C133.3 94.1001 127.3 99.2 121.1 104C117.8 106.6 114.4 109.1 110.8 111.3C107.4 113.4 103.5 116 99.4001 115.8C99.2001 115.8 99.1 115.9 99 116.1C91.4 136.4 84.6 157 79 178C77.4 184 75.9 190 74.5 196C74.5 196.4 75 196.7 75.2 196.3C78.2 190.9 81.5 185.6 85.1 180.6C86.3 178.9 88.1 177.1 88.5 175.1C89.2 172 90.0001 169 90.9001 166C92.7001 160 94.7001 154 97.8001 148.6C100.9 143.2 104.7 138.5 107.5 132.9C107.8 132.3 108 131.6 108.3 131.1C108.6 130.7 108.6 130.4 108.8 130.9C109 131.3 108.8 132.1 108.8 132.5C108.7 134.2 108.5 135.9 108.2 137.6C107.6 141.1 106.7 144.5 105.6 147.9C105.4 148.3 106 148.5 106.3 148.2C112.8 139.8 120.7 132.6 129.5 126.6C131.6 125.2 133.7 123.9 135.9 122.6C138.1 121.3 140.4 119.8 142.7 119C142.7 119 143.3 118.7 143.4 119C143.3 118.8 143.1 119.2 143.1 119.2C142.7 119.7 142.2 120.2 141.8 120.7C140.9 121.7 140 122.7 139.2 123.7C137.4 125.8 135.5 127.8 133.7 129.8C129.7 134.2 125.6 138.5 121.1 142.5C120.8 142.8 121.1 143.3 121.5 143.1C127.6 140.3 133.7 137.7 140.1 135.7C143.1 134.8 146.2 133.9 149.4 133.4C152.6 132.9 156.2 132.6 159.1 134.2C159.5 134.4 159.9 133.8 159.5 133.5L158.7 133.8Z" fill="#231F20"/>
<path d="M120.5 54.3C121.1 52.3 121.8 50.3999 122.7 48.5999C123.5 46.9999 124.5 45.4 126 44.5L125.4 44.1999C125.8 47.1999 125.1 50.5 124.3 53.4C124.1 54.1 123.9 54.8 123.7 55.5C123.5 56.3 123.3 56.9 122.8 57.5C121.8 58.5 120.9 59.4999 120 60.6999L120.7 60.9C120.8 59.7 120.9 58.6 120.9 57.4C120.9 56.9 120.9 56.3 120.8 55.8C120.8 55.6 120.8 55.2999 120.7 55.0999C120.7 55.0999 120.5 54.3 120.5 54.4C120.8 54 120.1 53.6 119.8 54C119.6 54.2 119.8 54.7 119.8 54.9C119.9 55.6 120 56.3 120 57C120 58.3 120 59.6 119.8 60.8C119.8 61.2 120.3 61.3 120.5 61C121 60.3 121.5 59.6 122.1 59C122.5 58.5 123.2 58.0999 123.6 57.5999C124 57.0999 124.1 56.2999 124.3 55.6999C124.5 54.8999 124.8 54.2 125 53.4C125.8 50.5 126.5 47.1999 126.1 44.0999C126.1 43.7999 125.8 43.6 125.5 43.8C123.9 44.7 122.8 46.3 122 47.9C121 49.9 120.2 51.9 119.6 54C119.5 54.5 120.2 54.6999 120.3 54.1999L120.5 54.3Z" fill="#231F20"/>
<path d="M120.3 63.3001C122.2 59.5001 125.6 56.4 129.4 54.6L128.8 54.3001C128.4 57.2001 126.2 59.7001 124.4 61.8001C122.6 63.9001 120.5 66 118.3 67.9L118.9 68.3001C119.4 66.7001 119.9 65.0001 120.2 63.3001C120.2 62.8001 119.6 62.6 119.5 63.1C119.2 64.8 118.7 66.4 118.2 68.1C118.1 68.5 118.6 68.7 118.8 68.5C121.1 66.5 123.4 64.3 125.4 61.9C127.2 59.8 129.1 57.3 129.5 54.4C129.5 54.1 129.2 54 128.9 54.1C125 56 121.5 59.2 119.5 63.1C119.3 63.5 119.9 63.9 120.2 63.5L120.3 63.3001Z" fill="#231F20"/>
<path d="M117.4 62.1C117 58.7 116.7 54.9001 118.4 51.8001H117.7C119.2 53.8001 119.4 56.6 119.2 59.1C119.2 60.5 119 62.0001 118.5 63.3001C118.1 64.4001 117.7 65.5 117.4 66.7H118.1C117.8 65.2 117.5 63.6 117.3 62C117.3 61.5 116.5 61.5 116.5 62C116.7 63.6 117 65.2 117.3 66.9C117.3 67.2 118 67.3 118 66.9C118.1 66.2 118.3 65.5001 118.5 64.8001C118.7 64.1001 119.1 63.5 119.2 62.7C119.4 61.4 119.6 60.1 119.7 58.7C119.9 56.2 119.7 53.4001 118.1 51.3001C117.9 51.1001 117.6 51.0001 117.4 51.3001C115.7 54.6001 115.9 58.4 116.3 62C116.3 62.5 117.1 62.5 117.1 62L117.4 62.1Z" fill="#231F20"/>
<path d="M109.9 104.6C114.9 99.6 120.1 94.7 125.8 90.6C131.5 86.5 138 82.4 145 82.5L144.7 81.9C137.9 88.4 130.8 94.7 123.4 100.7C119.7 103.7 116 106.6 112 109.2C110.1 110.5 108.1 111.7 106.1 112.8C103.9 114 101.5 115.2 99 115.4L99.3 116C102.6 112 106.2 108.2 109.8 104.5C110.1 104.2 109.6 103.6 109.3 104C105.6 107.7 102.1 111.5 98.8 115.5C98.6 115.7 98.7999 116.2 99.0999 116.1C103.7 115.7 108 112.7 111.7 110.3C115.6 107.8 119.3 105 122.9 102.1C130.6 95.9 138.1 89.3 145.2 82.4C145.4 82.2 145.2 81.8 144.9 81.8C137.9 81.8 131.2 85.8 125.7 89.7C119.8 93.9 114.4 98.9 109.3 104C109 104.3 109.5 104.9 109.8 104.5L109.9 104.6Z" fill="#231F20"/>
<path d="M88.1 52.7C87 54.9 85.7 56.9 84.3 58.9C83.1 60.7 81.7 62.5 79.9 63.7L80.5 64.1C80.7 63 80.8 61.7 80.5 60.6V60.9C81.3 59.2 82.4 57.6 83.6 56.1C84.8 54.6 86.5 53.3 88.5 53.1C89 53.1 89 52.3 88.5 52.3C85.9 52.5 83.8 54.5 82.2 56.5C81.4 57.5 80.7 58.6 80.1 59.7C80 59.9 79.7 60.3 79.7 60.6C79.7 60.8 79.8 61.1 79.9 61.4C80 62.2 79.9 63.1 79.9 63.9C79.9 64.2 80.1 64.5 80.5 64.3C82.4 63.1 83.8 61.3 85 59.5C86.5 57.4 87.8 55.2 89 53C89.2 52.6 88.6 52.2 88.3 52.6L88.1 52.7Z" fill="#231F20"/>
<path d="M86.1999 47.4001C86.0999 48.4001 85.8999 49.5001 85.6999 50.5001C85.6999 51.0001 85.5 51.6 85.4 52.1C85.4 52.3 85.3999 52.7001 85.1999 52.9001C85.1999 53.0001 84.9 53.1 84.8 53.2C83.3 54.1 82 55.4001 81 56.9001H81.6999C81.4999 56.4001 81.3999 55.8 81.1999 55.2C81.1999 54.9 81 54.6001 80.9 54.3001C80.8 54.0001 80.8 53.9 80.9 53.6C81.4 52.6 82 51.7001 82.6 50.8001C83.8 49.1001 85.2 47.7 86.9 46.6L86.3 46.3001C86.3 46.7001 86.3 47.2 86.3 47.6C86.3 48.1 87 48.1 87.1 47.6C87.1 47.2 87.1 46.7001 87.1 46.3001C87.1 46.0001 86.8 45.8001 86.5 46.0001C84.8 47.2001 83.1 48.8 81.9 50.6C81.2 51.6 80.6 52.6 80.1 53.7C79.8 54.2 80.1 54.7 80.4 55.2C80.6 55.9 80.8 56.6001 81 57.3001C81 57.6001 81.4999 57.6001 81.6999 57.3001C82.2999 56.5001 82.9999 55.7 83.6999 55.1C84.0999 54.8 84.5 54.5 84.9 54.2C85.2 54 85.7 53.9 85.9 53.6C86.1 53.3 86.0999 52.7001 86.1999 52.3001C86.2999 51.8001 86.4 51.2 86.5 50.7C86.7 49.7 86.9 48.6 87 47.6C87 47.1 86.2999 47.1 86.1999 47.6V47.4001Z" fill="#231F20"/>
<path d="M87.7 37C87.3 39.9 86.9 42.8 85.5 45.4C85.3 45.8 84.9 46 84.5 46.3C83.9 46.8 83.4 47.2 82.9 47.8C81.9 48.9 81 50.1 80.2 51.3L80.9 51.5C81.1 49.6 81.1 47.8 81 45.9C81 45 80.9 44.2 80.8 43.3C80.8 42.8 80.7 42.5 80.9 42C81.1 41.5 81.4 41.0999 81.7 40.5999C83.5 37.5999 85.7 34.3 88.8 32.4L88.2 32.0999C88.1 33.6999 87.9 35.3 87.7 37C87.7 37.5 88.4 37.6999 88.4 37.1999C88.6 35.4999 88.8 33.7999 88.9 32.0999C88.9 31.7999 88.6 31.6 88.3 31.8C85.2 33.6 83 36.9 81.1 39.9C80.7 40.6 79.9 41.5 79.8 42.3C79.8 42.6 79.8 43.1 80 43.4C80 44 80.2 44.5999 80.2 45.1999C80.4 47.2999 80.2 49.4 80.2 51.5C80.2 51.9 80.7 51.9999 80.9 51.6999C81.8 50.2999 82.7 49 83.9 47.9C84.4 47.4 85 46.9 85.6 46.5C86 46.2 86.2 45.8 86.4 45.3C87.6 42.8 88 39.9999 88.4 37.1999C88.4 36.6999 87.7 36.5 87.7 37Z" fill="#231F20"/>
<path d="M88.2 25.1C88.2 26.1 88.1 27.2 88 28.2C88 28.7 88 29.2001 87.8 29.8001C87.6 30.4001 87.8 31.2 87.5 31.6C87.3 31.9 86.7 32.1 86.4 32.4C86.1 32.7 85.8 32.9 85.5 33.1C84.8 33.7 84.2 34.4 83.6 35.2L84.2 35.4C83.9 33.5 83.5 31.6 83 29.7C82.8 28.9 82.2 27.9 82.2 27C82.2 26.1 82.7 25.2 83 24.4C84.3 21.1 86.5 18 88.6 15.1H87.9C88.6 18.3 88.5 21.8 88.3 25.1C88.3 25.6 89 25.6 89.1 25.1C89.3 21.7 89.4 18.2001 88.7 14.8001C88.7 14.5001 88.2 14.5001 88 14.8001C85.8 17.7001 83.5 20.9 82.2 24.4C81.9 25.2 81.4 26.3 81.4 27.2C81.4 28 81.9 28.8 82.2 29.6C82.8 31.6 83.2 33.6 83.6 35.6C83.6 35.9 84.1 36.0001 84.2 35.8001C84.9 35.0001 85.6 34.2 86.4 33.5C86.8 33.1 87.3 32.8 87.8 32.5C88 32.4 88.3 32.3 88.4 32C88.6 31.7 88.5 31.1 88.6 30.7C88.6 30.1 88.7 29.5 88.8 28.9C88.9 27.7 89 26.4 89.1 25.2C89.1 24.7 88.4 24.7 88.3 25.2L88.2 25.1Z" fill="#231F20"/>
<path d="M85.9999 2.99998C86.3999 2.49998 86.7999 1.99995 87.1999 1.59995H86.5999C87.6999 3.99995 87.6999 7.09993 87.6999 9.69993C87.6999 10.2999 87.6999 11 87.6999 11.6C87.6999 12.2 87.6999 13.1 87.4999 13.6C87.2999 14.1 86.7 14.6 86.4 15.1C86 15.7 85.5999 16.2 85.1999 16.8L85.9 17C85.6 14.6 84.9999 12.2 84.1999 9.9C83.8999 9.1 83.8999 8.59993 83.9999 7.69993C84.0999 7.19993 84.2 6.59995 84.4 6.09995C84.8 4.89995 85.2999 3.9 85.9999 2.9C86.2999 2.5 85.6 2.09998 85.3 2.49998C84.6 3.49998 84.0999 4.49995 83.6999 5.59995C83.3999 6.49995 82.8999 7.9 82.9999 8.9C82.9999 9.5 83.3999 10.0999 83.5999 10.6999C83.7999 11.3999 83.9999 11.9999 84.1999 12.6999C84.5999 14.0999 84.8999 15.5 84.9999 16.9C84.9999 17.3 85.4999 17.4 85.6999 17.1C86.0999 16.4 86.5999 15.7999 87.0999 15.1999C87.3999 14.7999 87.9999 14.1999 88.1999 13.6999C88.3999 13.0999 88.3 12.2 88.3 11.5C88.3 10.8 88.3 10 88.3 9.30002C88.3 6.50002 88.2999 3.49998 87.0999 0.999976C87.0999 0.799976 86.6999 0.799976 86.4999 0.999976C85.9999 1.49998 85.5999 1.99995 85.1999 2.59995C84.8999 2.99995 85.6 3.39998 85.9 2.99998H85.9999Z" fill="#231F20"/>
<path d="M79.4 21.9001C79.7 19.4001 80.1 16.8001 80.5 14.3001C80.9 12.0001 81.3 9.70003 82.1 7.50003H81.4C82.7 10.7 83.8 14.0001 84.2 17.4001C84.2 17.8001 84.2 18.0001 84.2 18.4001C84 18.7001 83.8 19.1001 83.6 19.4001C83.2 20.0001 82.9 20.6001 82.5 21.3001C81.8 22.6001 81.2 24 80.8 25.5H81.5C81 24.1 80.3 22.9001 79.5 21.8001V22.2C79.7 21.7 79.1 21.3 78.8 21.7C78.5 22.3 79.2 22.8001 79.5 23.3001C80 24.1001 80.4 24.9001 80.8 25.8001C80.9 26.1001 81.4 26.0001 81.5 25.8001C82 24.1001 82.7 22.5 83.6 21C83.9 20.4 84.3 19.8 84.7 19.2C85.1 18.5 85.1 18.3001 85 17.4001C84.7 14.0001 83.5 10.6 82.2 7.50003C82.1 7.20003 81.6 7.10003 81.5 7.50003C80.6 9.80003 80.2 12.2 79.8 14.6C79.4 17 79 19.5 78.7 22C78.7 22.5 79.4 22.5 79.5 22L79.4 21.9001Z" fill="#231F20"/>
<path d="M77.5 29.4C77.6 27 77.7 24.5 78.5 22.3L78 22.6C78.3 22.6 78.6 23.4 78.7 23.6C78.9 24 79.1001 24.4 79.3001 24.8C79.7001 25.5 80.0001 26.3 80.3001 27.1C80.7001 28.3 81.1 29.4 81.5 30.7C81.7 31.6 81.9 32.4 82.1 33.3C82.3 34.2 82.8001 35.6 82.4001 36.5C82.3001 36.9 81.8 37.3 81.6 37.6C81.3 38 81.1001 38.3 80.9001 38.7C80.4001 39.5 80 40.2 79.5 41H80.2C79.7 39.3 79.0001 37.5 77.8001 36.1C77.5001 35.7 77.2 35.4 77.2 34.9C77.2 34.4 77.2 33.7 77.2 33.1C77.2 31.9 77.2001 30.7 77.4001 29.6C77.4001 29.1 76.7 29.1 76.6 29.6C76.6 30.8 76.5001 32 76.4001 33.1C76.4001 33.9 76.1001 35.1 76.4001 35.8C76.6001 36.2 77.1001 36.6 77.3001 36.9C77.6001 37.3 77.9 37.7 78.1 38.2C78.6 39.2 79.0001 40.2 79.3001 41.3C79.3001 41.6 79.8 41.7 80 41.3C80.5 40.4 81 39.5 81.6 38.7C81.9 38.2 82.2 37.8 82.5 37.3C82.7 37 83.1 36.7 83.2 36.3C83.3 35.9 83.2 35.4 83 35.1C83 34.6 82.8 34 82.7 33.5C82.5 32.4 82.2001 31.3 81.9001 30.2C81.5001 28.8 81.1 27.5 80.5 26.2C80.1 25.3 79.7001 24.5 79.3001 23.7C79.0001 23.1 78.6001 22.1 77.9001 21.9C77.7001 21.9 77.5001 21.9 77.4001 22.2C76.6001 24.5 76.5001 27.1 76.4001 29.5C76.4001 30 77.1 30 77.2 29.5L77.5 29.4Z" fill="#231F20"/>
<path d="M75.4 40.2C75.4 38.4 75.5 36.6001 75.9 34.9001L75.3 35.1C77.5 37 78.5 39.8 79 42.5C79.6 45.6 79.5 48.8 79.2 52L79.9 51.8001C79 49.8001 77.9 47.9 76.6 46.2C76 45.4 75.2 44.7 75.2 43.7C75.2 42.6 75.2 41.4001 75.3 40.3001C75.3 39.8001 74.6 39.8001 74.5 40.3001C74.5 41.5001 74.4 42.7001 74.4 43.9001C74.4 44.2001 74.4 44.5001 74.4 44.8001C74.6 45.4001 75.2 45.9001 75.6 46.4001C76.9 48.3001 78.1 50.2001 79 52.3001C79.2 52.7001 79.7 52.4 79.7 52.1C80 48.8 80 45.5001 79.4 42.3001C78.9 39.5001 77.8 36.6 75.6 34.6C75.4 34.4 75 34.5001 75 34.8001C74.6 36.6001 74.5 38.5001 74.4 40.3001C74.4 40.8001 75.1 40.8001 75.2 40.3001L75.4 40.2Z" fill="#231F20"/>
<path d="M72.8 43.6C74.8 45.9 76.6 48.5 77.9 51.2C78.6 52.6 79.1 54.0001 79.6 55.4001C79.7 55.7001 79.8 56.1001 79.9 56.4001C80 56.7001 80.1999 57.3 80.1999 57.6C80.1999 58.3 79.4 59 79.1 59.6H79.8C78.2 57 76.3 54.4 73.4 53.1L73.6999 53.5C73.2999 50.2 72.9 46.6001 73.6 43.3001C73.6 42.8001 73 42.6 72.9 43.1C72.2 46.5 72.6 50.1 73 53.5C73 53.7 73.1 53.8001 73.3 53.9001C76 55.0001 77.8 57.6 79.3 60C79.5 60.2 79.8 60.3 80 60C80.2 59.6 80.3999 59.2001 80.6999 58.9001C80.8999 58.6001 81.2 58.3 81.3 58C81.5 57.4 81 56.5001 80.9 55.9001C80.5 54.3001 79.8999 52.8001 79.1999 51.3001C77.7999 48.3001 75.8999 45.5 73.6999 43C73.3999 42.6 72.8999 43.2 73.1999 43.5L72.8 43.6Z" fill="#231F20"/>
<path d="M79.1 64C75.4 62.6 72.5999 59.5 71.6999 55.6C71.6999 55.2 71.5 54.8 71.5 54.5C71.5 54.4 71.5 54.2 71.5 54.1H71.8C72.6 54.1 73.3 54.5 73.9 54.9C75.4 55.9 76.5 57.3001 77.5 58.8001C77.8 59.2001 78.1 59.6 78.3 60.1C78.5 60.4 78.7 60.8 78.9 61.1C79.2 62.2 79.1 63.3 78.9 64.4001L79.4 64.1H79.3C78.8 63.9 78.6 64.6001 79.1 64.8001H79.1999C79.3999 64.9001 79.5999 64.8 79.6999 64.6C79.8999 63.5 79.9999 62.3 79.6999 61.1C79.4999 60.3 79 59.6 78.5 58.9C77.4 57.2 76.1 55.5001 74.4 54.3001C73.6 53.8001 70.5 52.3001 70.8 54.3001C71.2 56.5001 71.7999 58.5001 73.1999 60.3001C74.6999 62.3001 76.8 63.8 79.1 64.7C79.5 64.9 79.8 64.1 79.3 64H79.1Z" fill="#231F20"/>
<path d="M81.6 107.8C85.5 99.2001 90.1 90.9 95.5 83L94.8 82.7C94 86.6 92.9 90.5 91.5 94.2C90.1 97.9 88.3 101.4 86.4 104.9C82.6 112.1 79.3 119.7 76.1 127.2C74.3 131.4 72.4 135.7 70.6 140L71.3 140.3C73.3 129.1 76.9 118.2 81.6 107.8C81.8 107.4 81.2 107 80.9 107.4C76.2 117.8 72.5 128.7 70.5 140C70.5 140.4 71 140.7 71.2 140.3C74.5 132.6 77.7 124.9 81.2 117.4C82.9 113.7 84.6 110 86.5 106.3C88.2 102.9 90.2 99.7 91.6 96.1C93.3 91.8 94.6 87.4 95.5 82.9C95.5 82.5 95.1 82.3 94.8 82.6C89.5 90.4 84.9 98.8 80.9 107.4C80.7 107.8 81.3 108.2 81.6 107.8Z" fill="#231F20"/>
<path d="M66.9 134.7C65.6 126 64.4 117.4 63.8 108.6C63.2 99.8 62.8 91.5 64.3 83.2H63.6C65.6 86.8 66.6 91 67.4 94.9C68.3 99.2 68.8 103.5 69.1 107.9C69.7 116.6 69.7 125.4 69.4 134.1C69.2 139.1 68.9 144 68.5 149H69.1999C68.2999 144.2 67.5 139.5 66.8 134.8C66.8 134.3 66 134.5 66.1 135C66.8 139.7 67.6 144.4 68.5 149.2C68.5 149.6 69.1999 149.5 69.1999 149.2C69.7999 140.1 70.3 131 70.3 121.9C70.3 113.3 69.9 104.6 68.3 96.1C67.5 91.7 66.3999 87.1 64.1999 83.2C63.9999 82.9 63.6 83 63.5 83.2C62 91.6 62.4 100.4 63 108.8C63.6 117.2 64.7999 126.4 66.1999 135.1C66.1999 135.6 67 135.4 66.9 134.9V134.7Z" fill="#231F20"/>
<path d="M45.1 67.3001C45.8 62.6001 46.7 58.0001 48 53.5001C49.3 49.4001 50.9 44.2 54.6 41.6L54 41.2C53.1 47.7 51.9 54.2 50.4 60.6C49.7 63.6 48.8 66.6001 47.7 69.5001C46.6 72.4001 45.5 75.5001 43.2 77.5001L43.8 77.8001C44.1 74.3001 44.5 70.8001 45 67.4001C45 66.9001 44.3 66.7 44.3 67.2C43.8 70.7 43.3 74.3001 43 77.9001C43 78.2001 43.4 78.4 43.6 78.2C45.6 76.4 46.7 73.8001 47.7 71.3001C49 68.2001 49.9 65.0001 50.8 61.8001C52.5 55.1001 53.7 48.3001 54.7 41.5001C54.7 41.2001 54.5 40.9 54.1 41.1C50.6 43.6 48.9 48.3 47.6 52.2C46 57.1 45 62.2001 44.3 67.3001C44.3 67.8001 45 68.0001 45 67.5001L45.1 67.3001Z" fill="#231F20"/>
<path d="M43.1 30.6C43.5 29.9 44 29.2 44.6 28.6L44 28.3001C44 30.9001 43.7 33.5001 43.1 36.0001C42.6 38.2001 41.7 40.9 39.6 42.1L40.2 42.4001C40.6 38.4001 41.1 34.2 43 30.6C43.2 30.2 42.6 29.8 42.3 30.2C40.4 33.9 39.8 38.3001 39.4 42.4001C39.4 42.7001 39.7 42.9 40 42.7C42.1 41.4 43.1 38.9 43.7 36.6C44.4 33.9 44.7 31.1001 44.7 28.3001C44.7 28.0001 44.4 27.8001 44.1 28.0001C43.3 28.6001 42.8 29.4 42.3 30.2C42.1 30.6 42.7 31 43 30.6H43.1Z" fill="#231F20"/>
<path d="M39.3001 47.8C34.8001 42.6 31.4001 35.3 31.8001 28.3L31.2 28.5999C37.1 32.9999 38.9 41 38.6 48C38.6 48.5 39.3001 48.5 39.4001 48C39.6001 40.7 37.8 32.5 31.6 27.9C31.4 27.7 31 27.8999 31 28.1999C30.6 35.3999 34.1 42.8999 38.7 48.1999C39 48.5999 39.5 47.9999 39.2 47.6999L39.3001 47.8Z" fill="#231F20"/>
<path d="M38.1 35.6C38.2 35.4 38.1 35.0001 38.1 34.8001C38.1 34.2001 38.1 33.6 38.1 33C38.1 31.9 38.3001 30.8 38.4001 29.7C38.6001 27.5 38.9 25.3001 39.6 23.3001H38.9001C39.8001 26.1001 40.1 29.0001 40.1 31.8001C40.1 32.4001 40.1 33.1 40.1 33.6C40 34.2 39.7 34.9 39.6 35.5C39.3 36.9 39.0001 38.3001 38.8001 39.8001H39.5C39.1 38.2001 38.6 36.7001 38 35.3001C37.8 34.9001 37.2001 35.3 37.3001 35.7C37.9001 37.1 38.4 38.6 38.7 40C38.7 40.3 39.4001 40.4 39.4001 40C39.6001 38.5 39.9 36.9001 40.2 35.4001C40.4 34.8001 40.6 34.2 40.7 33.5C40.8 32.8 40.7 32.2 40.7 31.6C40.7 28.7 40.4 25.8 39.5 23C39.4 22.6 38.9001 22.7 38.8001 23C38.1001 24.9 37.9 26.9001 37.7 28.8001C37.6 29.9001 37.5001 30.9 37.4001 32C37.4001 32.5 37.4001 33.1 37.4001 33.6C37.4001 33.9 37.4001 34.1001 37.4001 34.4001C37.4001 34.6001 37.4001 35.1 37.4001 35.2C37.2001 35.6 37.8 36 38.1 35.6Z" fill="#231F20"/>
<path d="M38.3001 103.6C36.7001 101.3 35.3 99.1 34.2 96.5C33.1 93.8 32.1 91.0001 31.2 88.3001C29.3 82.6001 27.6 76.9 26.1 71.1L25.4001 71.4C30.5001 79.4 35.1 87.6 39.2 96.2C43.3 104.7 46.8 113.4 49.1 122.6L49.8001 122.3C46.1001 116 42.3 109.7 38.2 103.6C37.9 103.2 37.3 103.6 37.5 104C41.6 110.1 45.3 116.3 49.1 122.7C49.3 123.1 49.9001 122.8 49.8001 122.4C47.5001 113.3 44 104.7 40 96.2C35.9 87.5 31.2 79.1 26 71C25.8 70.7 25.2001 70.9001 25.3001 71.3001C26.9001 77.2001 28.6 83.1 30.6 89C31.5 91.7 32.4 94.3 33.5 96.9C34.6 99.5 36 101.7 37.6 104C37.9 104.4 38.5001 104 38.3001 103.6Z" fill="#231F20"/>
<path d="M27.1 131.2C25.2 124.4 23.9 117.5 23.5 110.5L22.8 110.7C27.3 119.7 31.5 128.9 35.4 138.2C37.2 142.7 38.9 147.2 40.5 151.7C41.9 155.9 43.5 160 45.9 163.7L46.5 163.3C36.7 155.1 30.6 143.4 27.1 131.2C27 130.7 26.2 130.9 26.4 131.4C29.9 143.6 36.1 155.5 46 163.8C46.3 164 46.8 163.8 46.6 163.4C44 159.5 42.5 155.1 40.9 150.7C39.3 146.3 37.6 141.6 35.8 137.1C32 128 27.9 119.1 23.5 110.3C23.3 110 22.8 110.1 22.8 110.5C23.2 117.6 24.5 124.6 26.4 131.4C26.5 131.9 27.2 131.7 27.1 131.2Z" fill="#231F20"/>
<path d="M39.1 165.6C32.5 164.1 26.1 161.5 20 158.7C13.9 155.9 7.8 152.7 2.1 149.1V149.8C4.2 149.4 6.5 150 8.6 150.5C10.6 151 12.5 151.6 14.4 152.2C18.3 153.5 22.1 155 25.9 156.6C33.6 159.8 41.2 163.4 48.7 167.1L48.9 166.4C45.6 166.8 42.3 166.4 39 165.6C38.5 165.6 38.3001 166.2 38.8001 166.3C42.1001 167 45.5 167.5 48.9 167.1C49.2 167.1 49.5 166.6 49.1 166.4C41.4 162.6 33.6 158.9 25.7 155.6C21.8 154 17.8 152.4 13.7 151.1C11.6 150.4 9.50007 149.8 7.30007 149.3C5.50007 148.9 3.49998 148.6 1.69998 148.9C1.39998 148.9 1.39998 149.4 1.69998 149.6C7.59998 153.2 13.8 156.5 20.1 159.4C26.2 162.2 32.4 164.7 39 166.2C39.5 166.3 39.7 165.6 39.2 165.5L39.1 165.6Z" fill="#231F20"/>
<path d="M66.6 189.7C66.6 190.4 66.6 191.1 66.6 191.7H67.3001C67.1001 190.4 66.8 189.2 66.5 187.9L65.8001 188.2C66.1001 188.7 66.3 189.2 66.6 189.7V189.5C66.6 190 67.3001 190 67.4001 189.5C67.4001 189.3 67.4 189.2 67.2 189C67.2 188.9 67.1 188.7 67 188.6C66.8 188.3 66.7 188 66.5 187.7C66.3 187.3 65.7001 187.6 65.8001 188C66.0001 189.2 66.3 190.4 66.6 191.7C66.6 192.1 67.3001 192 67.3001 191.7C67.3001 191 67.3001 190.3 67.3001 189.7C67.3001 189.2 66.6 189.2 66.5 189.7H66.6Z" fill="#231F20"/>
<path d="M67.3 200C67.7 202.1 68.1 204.1 68.5 206.2V205.9C68.1 206.9 67.6 207.8 67.2 208.8L67.9 209C67.9 206 67.9 202.9 68.1 199.9C68.1 199.4 67.4 199.4 67.3 199.9C67.3 202.9 67.2 206 67.1 209C67.1 209.3 67.6 209.5 67.8 209.2C68.1 208.4 68.5 207.7 68.9 207C69 206.7 69.3 206.4 69.2 206.1C69.2 205.7 69 205.2 68.9 204.8C68.6 203.2 68.2 201.5 67.9 199.9C67.9 199.4 67.1 199.6 67.2 200.1L67.3 200Z" fill="#231F20"/>
<path d="M67.8 224.9C67.8 222 67.8 219.1 67.8 216.1C67.8 214.7 67.7 213.2 67.8 211.8C67.8 211.1 68.3 210.5 68.5 209.9C68.8 209.2 69.1 208.6 69.4 207.9H68.7C69 209.2 69.5 210.7 69.2 212.2C68.9 213.7 68.7 215 68.4 216.4C67.9 219.2 67.4 222.1 66.9 224.9C66.9 225.4 67.5 225.6 67.6 225.1C68.1 222.1 68.6 219.1 69.2 216.1C69.5 214.7 69.8 213.2 70 211.8C70.1 211.2 70 210.6 69.8 210C69.6 209.2 69.5 208.5 69.4 207.7C69.4 207.4 68.8 207.3 68.7 207.7C68.4 208.4 68.1 209 67.8 209.7C67.5 210.3 67.1 210.9 67 211.6C66.9 212.2 67 212.8 67 213.4C67 214 67 215 67 215.8C67 218.9 67 222 67 225.1C67 228.2 67.8 225.6 67.8 225.1V224.9Z" fill="#231F20"/>
<path d="M71.3 202.8C70.9 204.8 70.5 206.7 70.1 208.7H70.8C70.6 207.9 70.5 207 70.3 206.1V206.4C70.9 205.2 71.5 203.9 72.1 202.7L71.4 202.4C71.4 202.5 71.4 202.6 71.4 202.8C71.4 203.3 72 203.5 72.1 203C72.1 202.9 72.1 202.8 72.1 202.6C72.1 202.2 71.6 201.9 71.4 202.3C70.8 203.4 70.3 204.4 69.8 205.5C69.7 205.7 69.5 206 69.5 206.3C69.5 206.6 69.6 206.9 69.7 207.1C69.8 207.7 69.9 208.3 70 208.8C70 209.2 70.7 209.2 70.7 208.8C71.1 206.8 71.5 204.9 71.9 202.9C71.9 202.4 71.3 202.2 71.2 202.7L71.3 202.8Z" fill="#231F20"/>
<path d="M70 203C69.7 203.5 69.5 204 69.2 204.6H69.9C69.5 202.5 69 200.4 68.6 198.2C68.4 197.1 68.1 196 68.1 194.9C68.1 193.8 68.1 192.7 68.1 191.5L67.4 191.7C68.3 193.5 69.2 195.4 70.1 197.3C70.3 197.8 70.5 198.2 70.7 198.7C70.9 199.1 71.3 199.8 71.3 200.2C71.3 200.6 70.8 201.2 70.6 201.5C70.3 202 70.1 202.5 69.8 203C69.6 203.4 70.2 203.8 70.5 203.4C70.8 202.9 71.1 202.3 71.3 201.8C71.5 201.4 72 200.8 72.1 200.3C72.1 199.9 71.8 199.4 71.7 199.1C71.5 198.6 71.3 198.1 71 197.6C70.1 195.5 69.1 193.4 68 191.3C67.8 191 67.3 191.1 67.3 191.5C67.3 192.6 67.3 193.7 67.3 194.9C67.3 195.5 67.3 196 67.3 196.5C67.3 197 67.5 197.6 67.6 198.2C68.1 200.4 68.5 202.7 69 205C69 205.3 69.6 205.4 69.7 205L70.5 203.4C70.7 203 70.1 202.6 69.8 203H70Z" fill="#231F20"/>
<path d="M117.1 157.3C123.1 155.6 129.7 155.3 135.4 158.1L135.6 157.4C131.7 157.2 127.7 158.6 124 159.9C120 161.2 116.1 162.8 112.2 164.5C104.3 167.9 96.5001 171.6 88.8001 175.5L89.2 176.1C97 168 106.1 160.6 117.1 157.4C117.6 157.3 117.4 156.5 116.9 156.7C105.8 159.9 96.6 167.4 88.7 175.6C88.4 175.9 88.7 176.4 89.1 176.2C96.5 172.4 104 168.8 111.6 165.5C115.5 163.8 119.4 162.2 123.4 160.8C127.2 159.5 131.4 157.9 135.5 158.1C135.9 158.1 136 157.6 135.7 157.4C129.8 154.5 123 154.8 116.8 156.6C116.3 156.7 116.5 157.4 117 157.3H117.1Z" fill="#231F20"/>
<path d="M94.9 165.8C92.6 168.5 90.4 171.2 88.2 174.1L88.9 174.4C90.6 166.9 92.9 159.3 96.2 152.3C97.8 149 99.8 146 101.9 143C104 140 106 136.6 107.7 133.1L107 132.9C106.2 144.7 101.4 156.2 94.9 165.9C94.6 166.3 95.3 166.7 95.6 166.3C102.3 156.4 107 145 107.8 132.9C107.8 132.5 107.3 132.4 107.1 132.7C105.4 136.2 103.4 139.6 101.2 142.8C99 146 97 148.9 95.4 152.4C92.2 159.3 89.9 166.8 88.2 174.2C88.2 174.6 88.6 174.8 88.9 174.5C91 171.7 93.2 169 95.5 166.4C95.8 166 95.3 165.5 95 165.9L94.9 165.8Z" fill="#231F20"/>
<path d="M99.3 161.9C101.2 158.6 102.6 155.1 104.3 151.7C105.2 149.8 106.8 148.1 108.1 146.5C109.3 145 110.6 143.6 111.9 142.2C117.2 136.5 123.3 131.4 129.7 127.1C133.4 124.6 137.2 122.4 141.2 120.4L140.8 119.8C134.3 127.4 127.6 134.9 120.2 141.7C116.7 144.9 112.8 147.6 109.3 150.9C105.8 154.2 102.2 157.8 98.8 161.5C98.5 161.9 99 162.4 99.3 162C102.6 158.3 106.1 154.8 109.8 151.4C113.5 148 117.2 145.5 120.7 142.2C128 135.4 134.7 127.9 141.3 120.3C141.6 120 141.3 119.5 140.9 119.7C127 126.7 114.3 136.8 105.1 149.4C104.5 150.2 103.9 151 103.6 152C103.1 153.2 102.6 154.3 102.1 155.5C101.1 157.6 100 159.7 98.9 161.7C98.7 162.1 99.3 162.5 99.6 162.1L99.3 161.9Z" fill="#231F20"/>
<path d="M144.4 141.3C138.3 144.6 132.1 147.8 125.7 150.4C119.3 153 112.6 155.6 105.7 155.5L106 156.1C109.6 152.5 113.3 149.1 117.3 146C119 144.7 120.8 143.9 122.7 143C125.1 141.9 127.5 140.9 129.9 139.9C134.3 138.1 138.8 136.4 143.4 135.2C145.7 134.6 148 134.1 150.3 133.8C152.6 133.5 155 133.4 157.1 134.4V133.7C152.9 136.3 148.6 138.8 144.3 141.2C143.9 141.4 144.3 142.1 144.7 141.9C149 139.5 153.3 137.1 157.5 134.4C157.7 134.3 157.8 133.9 157.5 133.7C154.6 132.3 151.4 132.8 148.4 133.3C144.4 133.9 140.5 135.1 136.7 136.4C132.9 137.7 129.4 139.2 125.8 140.7C123.9 141.5 122 142.4 120.1 143.3C118.4 144.1 117.1 145.1 115.6 146.3C112 149.1 108.6 152.3 105.4 155.5C105.2 155.7 105.4 156.1 105.7 156.1C112.6 156.1 119.5 153.5 125.9 150.9C132.4 148.3 138.6 145.1 144.8 141.7C145.2 141.5 144.8 140.8 144.4 141V141.3Z" fill="#231F20"/>
</svg>
