<svg width="148" height="265" viewBox="0 0 148 265" fill="none" xmlns="http://www.w3.org/2000/svg">
<path d="M119.1 8.60002C116.4 9.50002 113.9 10.9 111.5 12.3C105.7 15.7 100.6 20.1 96.3 25.2C89.7 33.2 85.3 42.8 83 52.9C81.7 58.4 80.5 63.9 79.4 69.5C76.4 84.4 74.4 99.5 73.4 114.7C72.1 135.1 72.8 155.7 75.3 176C78.4 202.2 84.4 228.1 92.5 253.3C93.6 256.8 94.8 260.3 96 263.8C96 263.8 97.2 263.2 97.1 263.1C88.4 237.9 81.7 211.9 77.8 185.5C74.8 164.9 73.5 144.1 74.1 123.2C74.6 107.4 76.3 91.8 79.1 76.2C80.1 70.3 81.4 64.4 82.6 58.6C84.4 50.3 86.5 42.1 90.6 34.5C94.4 27.3 99.7 21 106.1 15.9C109.5 13.2 113.2 10.8 117.3 9.30003C117.5 9.30003 117.7 9.20002 117.8 9.10002C118.2 9.00002 118.5 8.60002 118.9 8.40002L119.1 8.60002Z" fill="#231F20"/>
<path d="M119 8.20001C115.1 9.50001 111.4 11.8 108 14.1C104.6 16.4 101.7 18.9 99 21.7C93.5 27.4 89.3 34.1 86.3 41.4C83 49.5 81.4 58.2 79.6 66.7C77.8 75.7 76.2 84.7 75.1 93.8C72.7 112.4 72 131.2 72.8 150C73.6 168.8 75.9 186.5 79.4 204.5C82.9 222.5 87.6 240 93.3 257.3C94 259.5 94.8 261.7 95.5 263.9C95.5 264.2 95.9 264.3 96.1 264.1C96.4 263.8 97 263.8 97.2 263.5C97.5 263.1 97.2 262.6 97 262.2C96.3 260 95.5 257.9 94.8 255.7C93.4 251.4 92 247 90.7 242.6C88.1 233.9 85.8 225.2 83.8 216.4C79.6 198.3 76.7 180 75.2 161.5C73.7 142.8 73.7 123.9 75.4 105.2C76.2 95.8 77.5 86.4 79.1 77.1C80.7 67.8 82.4 59.2 84.8 50.4C87 42.1 90.3 34.3 95.4 27.3C100.3 20.7 106.6 14.8 114 11.1C115.6 10.3 117.3 9.60001 119 8.80001C119.4 8.60001 119 7.90001 118.6 8.10001C115.1 9.80001 111.5 11.4 108.3 13.7C105.1 16 102 18.6 99.3 21.6C93.8 27.4 89.6 34.3 86.8 41.8C83.6 50.2 81.9 59.1 80.2 67.8C78.5 76.5 76.9 86 75.8 95.2C73.5 114 72.9 133 73.9 152C74.9 171 77.3 188.9 81.1 207.1C84.8 225 89.7 242.7 95.5 260.1C95.7 260.6 95.9 261.2 96 261.7C96 261.9 96.6 263 96.6 263C96.6 263.2 95.8 263.4 95.6 263.6L96.2 263.8C90.4 246.8 85.4 229.6 81.6 212C77.8 194.3 75.1 176.4 73.9 158.4C72.6 140.1 72.8 121.6 74.6 103.3C75.5 94.1 76.8 84.9 78.4 75.8C80 67.1 81.6 58.2 84 49.6C86.2 41.8 89.6 34.3 94.5 27.8C99.4 21.3 105.7 15.9 112.8 11.8C114.8 10.7 116.8 9.60001 118.9 8.90001C119.4 8.70001 119.2 8.00001 118.7 8.20001H119Z" fill="#231F20"/>
<path d="M128.2 2.79997C126.3 2.19997 124.3 1.89997 122.4 1.59997C117.9 0.89997 113.2 0.699974 108.7 1.29997C103.3 1.89997 98.2 3.59997 93.5 6.39997C87.7 9.79997 83.1 15.1 80.1 21.1C77.6 26.3 76.4 32.3 77.6 38C78.3 41.5 80.1 45.8 83.6 47.2C85.4 48 87.6 47.7 89.5 47.3C92.3 46.8 95.1 45.8 97.8 44.6C103 42.3 108.1 39.3 112.5 35.6C116.9 31.9 120.2 26.8 123 21.9C124.5 19.2 126 16.4 127 13.4C127.9 11 128.7 8.39997 128.7 5.79997C128.7 4.79997 128.7 3.79997 128.3 2.79997C128.3 2.79997 127.1 3.39997 127.2 3.49997C127.9 5.49997 127.6 7.79997 127.2 9.79997C126.6 12.5 125.6 15.1 124.4 17.6C122 22.8 118.8 27.8 115.2 32.3C111.6 36.8 106.6 40.3 101.3 42.9C98.6 44.2 95.9 45.3 93 46.1C90.8 46.7 88.5 47.2 86.3 46.9C82.9 46.5 80.8 43.2 79.7 40.2C77.9 35.5 78.1 30.3 79.4 25.5C81.2 19.1 85.2 13.1 90.3 8.69997C94.6 4.99997 99.9 2.99997 105.6 2.09997C112.6 0.99997 120 1.39997 126.8 3.29997C126.9 3.29997 127 3.29997 127.1 3.29997C127.4 3.29997 128 2.49997 128.2 2.59997V2.79997Z" fill="#231F20"/>
<path d="M128.3 2.39999C118 -0.700005 106 -0.300005 96.2 4.39999C87.4 8.59999 80.4 16.7 77.8 26.2C76.5 30.9 76.4 35.9 77.9 40.5C79.1 44.2 81.7 47.8 85.9 47.9C91 48.1 96.3 45.7 100.7 43.5C105.5 41.2 110.1 38.3 113.9 34.6C118.2 30.4 121.5 25.2 124.3 19.9C125.8 17.1 127.1 14.2 128 11.2C128.8 8.39999 129.4 5.39999 128.6 2.59999C128.6 2.29999 128.2 2.19999 128 2.39999C127.7 2.69999 127 2.69999 126.8 3.09999C126.7 3.29999 126.8 3.39999 126.8 3.69999C126.8 4.49999 127.1 5.29999 127.1 6.09999C127.1 8.79999 126.3 11.5 125.4 14C123.6 18.9 120.9 23.6 117.9 27.9C114.9 32.2 111.6 35.8 107.4 38.7C103.2 41.6 98.5 44 93.6 45.4C91.1 46.1 88 47 85.4 46.2C83.3 45.5 81.8 43.7 80.8 41.8C78.4 37.2 78.3 31.7 79.4 26.8C81.5 17.7 88.1 8.99999 96.7 5.09999C101.9 2.69999 107.6 1.89999 113.3 1.89999C119 1.89999 119.5 2.19999 122.5 2.69999C123.9 2.99999 125.3 3.39999 126.7 3.69999C127 3.69999 127.2 3.89999 127.5 3.69999C127.8 3.49999 128 3.09999 128.3 3.09999C128.8 3.09999 128.8 2.3 128.3 2.3C128 2.3 128 2.39999 127.7 2.49999C127.6 2.49999 127.5 2.7 127.3 2.8C126.9 3 126.7 2.8 126.4 2.8C124.9 2.6 123.5 2.1 122 1.8C119.3 1.3 116.6 1.09999 113.9 1.09999C108.6 1.09999 103.2 1.69999 98.2 3.59999C89.1 7.09999 82.1 15.2 79.2 24.4C77.6 29.4 77.3 34.9 79 39.8C80.3 43.5 82.8 47 87 47.2C89.8 47.3 92.6 46.5 95.2 45.6C97.8 44.7 100.2 43.6 102.6 42.4C107.1 40 111.4 37 114.7 33.1C118.7 28.5 122 23.2 124.5 17.7C125.8 15 126.9 12.1 127.4 9.09999C127.7 7.59999 127.8 6.19999 127.6 4.69999C127.6 4.49999 127.6 4.29999 127.6 4.09999C127.5 3.59999 127.3 3.69999 127.6 3.39999C127.9 3.09999 128.2 3.19999 128.5 2.89999L127.9 2.69999C129.4 7.89999 126.5 13.9 124.3 18.4C122.1 22.9 119.4 27.2 116.3 31C113.2 34.8 109.1 38 104.8 40.5C100.5 43 95.8 45.3 90.9 46.5C88.5 47.1 85.6 47.6 83.3 46.5C81.5 45.6 80.3 43.8 79.5 42C77.5 37.8 77.3 32.8 78.3 28.3C80.1 19.2 86.3 11 94.3 6.39999C104.4 0.599995 117.3 -0.10001 128.3 3.19999C128.8 3.29999 129 2.59999 128.5 2.49999L128.3 2.39999Z" fill="#231F20"/>
<path d="M142.4 56.6C140.9 56 139.3 55.5 137.8 55C134.1 53.9 130.3 52.9 126.4 52.3C121.6 51.5 116.7 51 111.8 51.2C106.9 51.4 102 52.4 97.6 54.6C93.1 56.9 89.3 60 86.8 64.4C85.3 67 84.3 69.9 83.7 72.8C83.6 73.4 83.3 74 83.7 74.5C84 75 84.3 75.4 84.6 75.9C87.1 79.7 90.5 83.2 94.6 85.3C97.3 86.7 100.3 87.4 103.4 87.3C107.2 87.2 110.7 85.7 114 83.9C121.1 80 127.4 74.9 133 68.9C136.3 65.3 139.5 61.4 142.1 57.2C142.2 57 142.4 56.8 142.5 56.6C142.3 56.9 141.5 56.9 141.4 57.3C139.8 60.1 137.7 62.7 135.7 65.3C131 71.1 125.5 76.4 119.4 80.6C115.7 83.2 111.8 85.5 107.3 86.4C104.3 87 101.2 86.8 98.3 85.8C93.7 84.2 89.8 80.9 86.9 77C86.2 76.1 85.3 75 84.8 73.9C84.5 73.3 84.9 72.5 85.1 71.8C85.4 70.3 85.9 68.9 86.4 67.5C88.2 62.7 91.4 58.6 95.7 55.9C95.8 55.9 96 55.7 96.1 55.7C95.8 55.9 95.9 55.8 96.1 55.7C96.4 55.6 96.7 55.4 97 55.3C97.5 55 98.1 54.8 98.7 54.6C99.8 54.2 100.9 53.8 102 53.5C104.3 52.9 106.6 52.5 109 52.3C113.7 51.9 118.5 52.3 123.2 52.9C127.2 53.5 131.1 54.3 134.9 55.5C137 56.1 139 56.8 141 57.5C141 57.5 141.2 57.5 141.3 57.6C141.6 57.7 142.2 56.8 142.4 56.9V56.6Z" fill="#231F20"/>
<path d="M142.5 56.2C137.4 54.2 131.9 52.9 126.5 51.9C121.1 50.9 115.8 50.5 110.5 50.9C101.5 51.6 92.2 55.3 87.1 63.2C85.8 65.3 84.8 67.6 84.1 69.9C83.8 71.1 83.4 72.3 83.2 73.5C83 74.5 83.5 75.1 84 75.9C86.4 79.6 89.5 82.9 93.3 85.1C97.4 87.5 102.2 88.3 106.9 87.2C111.6 86.1 115.8 83.5 119.7 80.8C128.9 74.6 137 66.3 142.7 56.8C142.9 56.4 142.4 56.1 142.1 56.4C141.8 56.7 141.3 56.7 141 57.1C140.5 57.6 140.2 58.4 139.8 59C138.8 60.5 137.7 62 136.6 63.5C134.7 66 132.6 68.3 130.5 70.6C126.1 75.2 121.2 79.3 115.8 82.6C110 86.1 103.3 87.8 96.9 85C94.3 83.9 91.9 82.1 89.9 80.1C88.9 79.1 88 78 87.1 76.9C86 75.5 84.8 74.2 85.2 72.3C86.1 69 87.1 65.8 89 62.9C90.9 60 93.2 57.8 96.1 56L95.7 55.4H95.5C95.5 55.5 95.9 56.2 95.9 56.2C99.3 54 103.9 53.1 107.9 52.7C112.1 52.3 116.4 52.4 120.6 52.9C124.8 53.4 129.1 54.3 133.3 55.4C135.3 55.9 137.1 56.5 139.1 57.2C139.7 57.4 140.7 58 141.4 57.9C141.8 57.9 142.1 57.3 142.4 57.3C142.9 57.3 142.9 56.5 142.4 56.5C142 56.5 141.8 56.9 141.5 57C140.8 57.3 139.2 56.4 138.5 56.2C136.4 55.5 134.3 54.9 132.2 54.3C128.1 53.3 123.9 52.5 119.7 52.1C115.5 51.7 110.9 51.6 106.5 52.1C102.8 52.6 98.7 53.5 95.5 55.5C95.1 55.8 95.5 56.4 95.9 56.1H96.1C96.5 55.7 96.1 55.1 95.7 55.3C90.4 58.5 86.9 63.7 85.1 69.5C84.9 70.2 84.7 71 84.5 71.7C84.3 72.3 84.1 72.9 84.2 73.6C84.4 74.9 85.6 76.2 86.4 77.2C88.2 79.6 90.3 81.7 92.7 83.4C98.1 87.3 104.8 88.1 111 85.7C117.2 83.3 122.8 78.8 127.7 74.3C130.5 71.7 133.1 68.9 135.5 65.9C136.7 64.4 137.9 63 139 61.4C139.6 60.5 140.2 59.6 140.8 58.7C141.2 58.1 141.4 57.8 142 57.3C142.2 57.2 142.4 57.1 142.6 56.9L142 56.5C137.3 64.4 130.7 71.4 123.5 77.1C119.9 80 115.9 82.6 111.7 84.6C107.3 86.7 102.5 87.7 97.7 86.3C93.4 85 89.7 82.1 86.8 78.7C86.1 77.8 85.4 76.9 84.8 76C84.6 75.6 84.2 75.2 84 74.8C83.6 73.9 83.9 73.2 84 72.3C84.5 69.9 85.3 67.6 86.5 65.4C90.8 57.2 99.8 52.8 108.7 51.8C114.4 51.2 120.2 51.6 125.8 52.6C131.4 53.6 136.8 54.9 142 56.9C142.5 57.1 142.7 56.3 142.2 56.2H142.5Z" fill="#231F20"/>
<path d="M144.8 108.2C142 106.6 139.1 105.3 136.1 104.1C129.9 101.5 123.5 99.5 116.8 98.6C113.4 98.2 109.8 98 106.4 98.6C102.7 99.1 99.2 100.5 95.9 102.1C90.2 105 84.9 109 81.6 114.6C79.1 118.7 77.5 124.6 80.4 129C81.7 130.9 83.7 132.3 85.7 133.4C88.2 134.7 91 135.6 93.7 136.3C99 137.6 104.7 138.3 110.2 137.7C111.9 137.5 113.6 137.3 115.1 136.4C116.7 135.5 118.2 134.4 119.7 133.3C124.3 129.7 128.5 125.6 132.7 121.5C136.4 117.8 140.2 114.1 143.5 109.9C143.9 109.4 144.3 108.8 144.7 108.3C144.5 108.6 143.8 108.6 143.6 109C142.7 110.4 141.6 111.6 140.5 112.9C138.8 114.8 137 116.7 135.2 118.5C131.1 122.7 126.8 126.9 122.4 130.8C120.7 132.3 118.9 133.8 117.1 135.2C116.7 135.5 116.4 135.7 116 136C115.8 136.1 115.7 136.2 115.5 136.3C115.1 136.5 116.2 135.9 115.9 136.1C115.9 136.1 115.7 136.1 115.6 136.2C114.9 136.5 114.1 136.7 113.3 136.9C108.4 137.8 103 137.3 98.1 136.4C93.2 135.5 87.5 134.1 83.4 130.7C79.7 127.6 79.2 122.8 80.6 118.5C82.5 112.6 87.1 107.8 92.2 104.4C98.2 100.4 105.4 98.7 112.5 99.2C119.1 99.6 125.6 101.4 131.7 103.7C135.5 105.1 139.3 106.8 143 108.7C143.2 108.8 143.4 108.9 143.5 109C143.7 109.1 144.5 108.2 144.6 108.3L144.8 108.2Z" fill="#231F20"/>
<path d="M145 107.9C140 105.1 134.6 102.9 129.2 101.2C123.8 99.5 117.9 98.1 112.1 98C106.3 97.9 101.1 99.2 96.1 101.7C91.6 103.9 87.4 106.8 84.1 110.6C81.1 114 78.7 118.4 78.4 123C78.1 128.1 81.1 131.6 85.4 133.8C90.3 136.3 95.9 137.5 101.4 138.1C104.3 138.4 107.3 138.5 110.2 138.1C112.8 137.9 115 137.1 117.2 135.7C122.6 132.1 127.4 127.4 132 122.8C134.3 120.5 136.7 118.2 138.9 115.8C141.1 113.4 143.3 111.1 145.1 108.5C145.3 108.1 144.8 107.8 144.5 108.1C144.1 108.4 143.7 108.5 143.3 108.8C142.7 109.4 142.2 110.4 141.6 111.1C140.5 112.4 139.3 113.7 138.2 115C135.7 117.6 133.2 120.2 130.7 122.7C128.2 125.2 125.6 127.6 123 129.9C121.7 131 120.5 132.1 119.2 133.2C118 134.2 116.6 135.1 115.4 136.1C115.2 136.3 115.4 136.8 115.7 136.7C116 136.7 116.3 136.5 116.5 136.3C116.7 136 116.5 135.6 116.1 135.7C115.4 135.9 114.8 136.2 114 136.4C112.9 136.6 111.7 136.8 110.6 136.9C108.4 137.1 106.3 137 104.1 136.9C100.2 136.6 96.3 135.9 92.5 134.8C89 133.8 85 132.2 82.7 129.3C80.4 126.4 80.2 122.5 81.2 119.1C83.3 111.8 89.7 106 96.4 102.8C104.1 99.1 112.6 99.1 120.9 100.9C125.6 101.9 130.2 103.5 134.6 105.3C136.9 106.2 139.2 107.3 141.4 108.4C142 108.7 143.1 109.6 143.8 109.6C144.3 109.6 144.5 109 144.9 108.9C145.4 108.9 145.4 108.1 144.9 108.1C144.4 108.1 144.2 108.6 143.9 108.7C143.6 108.7 142.8 108.2 142.6 108.1C142 107.8 141.5 107.5 140.9 107.2C138.9 106.2 136.8 105.3 134.7 104.5C130.3 102.7 125.8 101.2 121.2 100.2C112.9 98.3 104.2 98.3 96.3 102C89.5 105.1 83.2 110.9 80.6 118C79.5 121.1 79.3 124.7 80.7 127.8C82.2 131 85.5 133 88.7 134.4C92.8 136.1 97.4 137 101.8 137.5C104.4 137.8 107 138 109.7 137.9C110.8 137.9 111.9 137.7 113 137.5C114.1 137.3 115.1 136.9 116.1 136.6L115.7 136C115.7 136 115.3 136.2 115.5 136.2L115.8 136.8C117 135.9 118.3 135 119.5 134.1C120.8 133 122.1 131.9 123.3 130.8C126 128.4 128.6 125.9 131.2 123.4C133.8 120.9 136.2 118.4 138.6 115.8C139.8 114.5 140.9 113.3 142 111.9C142.5 111.3 143 110.7 143.5 110.1C144 109.5 144.6 109.2 145.1 108.8L144.5 108.4C141.6 112.9 137.4 116.8 133.5 120.6C129.6 124.4 125.8 128.1 121.7 131.6C119.6 133.3 117.5 135.1 115.2 136.4C112.9 137.7 109.8 137.9 107 137.9C101.7 137.9 96.3 137.1 91.2 135.6C86.4 134.2 80.5 131.7 79.4 126.2C78.4 121.7 80.6 116.8 83.2 113.2C86.1 109.3 90.1 106.2 94.3 103.8C98.9 101.2 103.9 99.4 109.2 99.1C115.4 98.8 121.7 100 127.6 101.9C133.5 103.8 139.2 106 144.5 109C144.9 109.2 145.3 108.6 144.9 108.4L145 107.9Z" fill="#231F20"/>
<path d="M84.6 183C84.3 180.7 84.3 178.4 84.4 176.1C84.7 171.5 85.8 166.9 88.3 163C89 161.9 89.8 160.9 90.7 160.1C91.2 159.7 91.6 159.2 92.2 158.9C92.5 158.7 92.8 158.5 93.1 158.3C93.1 158.3 93.6 158 93.3 158.1C93 158.2 93.5 158 93.6 157.9C96.6 156.4 100.1 155.8 103.4 155.8C106 155.8 108.7 156 111.3 156.2C114 156.4 116.7 156.5 119.4 156.7C123.7 157 128.1 157.2 132.4 157.5C136.7 157.8 140.8 158 145 158.3C145.6 158.3 145.4 158.4 145.2 159C144.8 160.4 144.3 161.8 143.8 163.2C142 168.2 139.7 173.1 136.8 177.6C135.1 180.2 133.2 182.6 131 184.8C129.9 185.8 128.8 186.8 127.5 187.7C127.2 187.9 126.8 188.2 126.5 188.4L126.2 188.6C126.2 188.6 126.7 188.3 126.4 188.5C126.2 188.6 126 188.7 125.8 188.8C125.1 189.2 124.3 189.5 123.6 189.8C120.3 191 117 191 113.5 190.6C108.5 190.1 103.5 189.3 98.7 188.1C93.9 186.9 89.2 185.6 84.9 183.4C84.7 183.4 84.6 183.2 84.4 183.1C84.2 183 83.4 183.9 83.3 183.8C86.3 185.6 89.8 186.7 93.1 187.6C97.4 188.8 101.7 189.7 106.1 190.4C108.9 190.8 111.8 191.2 114.6 191.4C116.2 191.5 117.9 191.4 119.5 191.2C125.4 190.1 130.7 186.2 134.5 181.7C138.4 177.1 141.3 171.7 143.5 166.2C144.3 164.2 145 162.2 145.7 160.2C145.9 159.6 146.1 159 146.2 158.4C146.2 158.4 146.4 157.8 146.4 157.7C146.4 157.7 146 157.7 145.9 157.7C145.4 157.7 144.8 157.7 144.2 157.6C142 157.5 139.7 157.3 137.5 157.2C128.3 156.6 119 156.1 109.8 155.5C105.6 155.2 101.4 155 97.4 156.2C94.8 157 92.2 158.4 90.2 160.1C86.3 163.4 84.3 168.3 83.5 173.2C83 176.5 82.8 179.9 83.2 183.2C83.2 183.4 83.2 183.6 83.2 183.7C83.2 183.6 84.4 183.2 84.3 183H84.6Z" fill="#231F20"/>
<path d="M85 182.9C83.8 174.1 85.8 163.4 93.7 158.3C94.1 158 93.7 157.4 93.3 157.7C93.3 157.7 93.3 157.7 93.1 157.7C92.7 158 93.1 158.6 93.5 158.3C98.7 155.7 104.3 155.9 110 156.4C115.7 156.9 121.8 157.2 127.8 157.5C130.8 157.7 133.9 157.9 137 158.1C138.4 158.1 139.7 158.3 141.1 158.3C141.8 158.3 142.6 158.3 143.3 158.4C143.6 158.4 143.9 158.4 144.3 158.4C144.3 158.4 145.6 158.6 145.3 158.3C145.3 158.4 144.8 159.8 144.8 159.9C144.6 160.6 144.3 161.3 144.1 162C143.6 163.4 143.1 164.8 142.6 166.1C141.5 168.8 140.2 171.5 138.8 174.1C137.2 176.9 135.4 179.6 133.3 182.1C131.4 184.3 129.1 186.6 126.5 188.1C126.1 188.3 126.5 189 126.9 188.7C127 188.7 127.1 188.6 127.2 188.5C127.6 188.3 127.2 187.7 126.8 187.9C125 188.7 123.3 189.5 121.3 189.9C119.3 190.3 117.1 190.3 115 190.1C110.8 189.7 106.6 189.1 102.4 188.2C98.6 187.4 94.8 186.5 91.2 185.2C89.3 184.5 87.4 183.8 85.6 182.8C85.3 182.6 85 182.4 84.7 182.5C84.4 182.6 84.1 183.1 83.7 183.1C83.3 183.1 83.2 183.6 83.5 183.8C88.3 186.7 94.2 188.1 99.6 189.2C102.6 189.9 105.7 190.4 108.8 190.8C111.6 191.2 114.5 191.7 117.3 191.6C127.9 191.2 135.8 182.4 140.7 173.8C142.2 171.1 143.5 168.4 144.6 165.6C145.2 164 145.8 162.5 146.3 160.9C146.6 159.9 147.3 158.6 147.3 157.5C147.3 157.3 147.2 157.2 147 157.1C146.2 156.9 145.2 157 144.3 156.9C142.7 156.9 141.1 156.7 139.5 156.6C136.5 156.4 133.4 156.2 130.4 156C124.3 155.6 118.2 155.2 112.1 154.9C106.6 154.5 100.9 154.1 95.7 156.3C91.1 158.3 87.5 161.7 85.5 166.3C83.2 171.6 82.6 177.8 83.3 183.5C83.3 183.9 83.8 184 84 183.7C84.2 183.4 84.9 183.4 85.1 183C85.3 182.6 84.7 182.2 84.4 182.6C84.2 182.9 83.5 182.9 83.3 183.3L84 183.5C83.3 178.4 83.8 173.1 85.5 168.2C87.2 163.3 90.5 159.5 95.2 157.3C100.4 154.9 106 155.2 111.5 155.6C117 156 122.9 156.3 128.6 156.7C131.7 156.9 134.9 157.1 138 157.3C139.6 157.4 141.2 157.5 142.8 157.6C144 157.6 145.5 157.6 146.7 157.8L146.4 157.4C146.4 158.4 145.7 159.7 145.4 160.6C145 161.9 144.5 163.2 144 164.5C143 167 141.9 169.5 140.7 171.9C138.3 176.4 135.4 180.7 131.7 184.2C128 187.7 123.2 190.4 118.1 190.8C115.4 191 112.7 190.6 110 190.3C107.1 189.9 104.2 189.5 101.4 188.9C98.3 188.3 95.3 187.5 92.3 186.6C89.3 185.7 86.5 184.7 83.9 183.2L83.7 183.9C84.1 183.9 84.2 183.6 84.5 183.5C85 183.3 84.7 183.4 85.1 183.5C85.6 183.6 86.2 184.1 86.7 184.3C88.3 185.1 90 185.7 91.7 186.3C95.6 187.6 99.7 188.5 103.7 189.3C107.7 190.1 112 190.8 116.2 191C118.1 191 119.9 191 121.8 190.6C123.7 190.2 125.3 189.4 127 188.6L126.6 188C126.6 188 126.4 188.1 126.3 188.2L126.7 188.8C131.6 186.2 135.3 181.2 138.2 176.5C141.4 171.2 143.9 165.4 145.7 159.5C145.8 159.1 146.3 158.3 145.7 158C145.5 157.8 144.9 157.9 144.7 157.9C143.8 157.9 142.9 157.8 142 157.7C138.7 157.5 135.4 157.3 132.1 157.1C125.6 156.7 119 156.3 112.4 155.9C105.8 155.5 99.2 154.7 93.1 157.8L93.5 158.4C93.5 158.4 93.5 158.4 93.7 158.4L93.3 157.8C85.1 163.1 83.1 174.2 84.3 183.3C84.3 183.8 85.1 183.6 85 183.1V182.9Z" fill="#231F20"/>
<path d="M79.4 195.3C79.4 195.1 79.5 194.8 79.6 194.7C79.8 194.2 80 193.7 80.2 193.2C80.9 191.5 81.7 189.9 82.5 188.2C85 183.3 87.9 178.7 91.5 174.6C95.4 170.1 100.1 166.1 106.1 164.8C108 164.4 110 164.3 111.9 164.2C114.2 164.1 116.4 164 118.7 163.9C122.7 163.8 126.7 163.7 130.7 163.4C136.3 163 142.9 162.2 146.7 157.6C146.4 157.9 145.8 157.9 145.6 158.3C145.2 158.7 144.8 159.1 144.4 159.5C144.2 159.7 144 159.9 143.7 160C143.6 160.1 143.4 160.2 143.3 160.3C142.7 160.7 143.7 160.1 143.3 160.3C142.1 160.8 140.9 161.3 139.6 161.7C136.5 162.5 133.3 162.7 130.1 162.9C126.1 163.1 122 163.2 117.9 163.3C115.5 163.4 113 163.5 110.6 163.7C109 163.8 107.4 164 105.8 164.5C100.5 166 95.6 169.5 91.9 173.5C88 177.6 84.9 182.3 82.2 187.2C81.1 189.2 80.1 191.2 79.3 193.3C79 193.9 78.8 194.5 78.6 195.2C78.6 195.4 78.4 195.7 78.4 196C78.4 195.8 79.6 195.5 79.5 195.3H79.4Z" fill="#231F20"/>
<path d="M79.8 195.4C80.1 194 80.8 192.7 81.3 191.5C82 190.1 82.6 188.6 83.4 187.2C84.7 184.7 86.1 182.3 87.7 180C90.8 175.4 94.6 171 99.3 168C101.5 166.6 104 165.6 106.6 165.1C109.7 164.5 112.9 164.5 116 164.4C121.8 164.2 127.7 164.2 133.5 163.6C138.5 163.1 143.6 161.8 147 157.9C147.3 157.5 146.8 157.1 146.5 157.4C146.2 157.6 145.8 157.7 145.5 157.9C145.1 158.2 144.8 158.6 144.4 159C143.9 159.4 143.1 159.8 142.7 160.4C142.5 160.7 142.8 161.1 143.1 161C143.3 161 143.5 160.8 143.6 160.7C143.8 160.4 143.5 160.1 143.2 160.1C142 160.5 141 161 139.8 161.4C138.3 161.8 136.8 162.1 135.2 162.3C132.2 162.7 129.3 162.7 126.3 162.9C120.5 163.1 114.7 163.1 108.9 163.7C98.9 164.9 91 172.8 85.6 180.8C83.9 183.3 82.4 185.8 81.1 188.5C80.4 189.9 79.7 191.3 79.1 192.8C78.6 193.8 78 195 77.8 196.1C77.8 196.5 78.2 196.8 78.5 196.4C78.7 196.1 79.4 196.2 79.6 195.7C79.8 195.2 79.2 194.9 78.9 195.3C78.7 195.6 78 195.6 77.8 196L78.5 196.3C78.7 195.3 79.3 194.1 79.7 193.1C80.2 191.9 80.8 190.6 81.4 189.4C82.6 187.1 83.9 184.8 85.2 182.6C87.9 178.3 91.2 174.2 95.1 170.9C99 167.6 103.8 165 109 164.4C114.6 163.8 120.3 163.8 125.9 163.6C128.9 163.5 132 163.4 135 163C136.5 162.8 137.9 162.6 139.3 162.2C140.6 161.8 141.8 161.2 143.1 160.8C143.4 160.3 144.4 159.9 144.8 159.4C145.2 159 145.5 158.6 146.1 158.3C146.3 158.2 146.5 158.1 146.7 157.9L146.2 157.4C142.8 161.3 137.5 162.5 132.5 162.9C126.5 163.5 120.5 163.4 114.5 163.7C111.6 163.8 108.6 163.9 105.7 164.5C103.2 165 100.8 166.1 98.7 167.4C94.4 170.1 90.9 174.1 87.9 178.2C86 180.8 84.3 183.6 82.8 186.5C82 188 81.2 189.6 80.5 191.1C79.9 192.4 79.2 193.8 78.9 195.2C78.9 195.7 79.5 195.9 79.6 195.4H79.8Z" fill="#231F20"/>
<path d="M135.1 110.6C129.7 109.8 124.1 110 118.7 110.6C107.7 111.7 97.1 115 87.9 121.2C81.6 125.5 76.5 131.1 72.9 137.8C73.1 137.5 73.9 137.5 74 137.1C77.2 131.4 81.4 126.3 86.5 122.3C91.3 118.6 96.7 116 102.4 114.2C110.8 111.5 119.8 110.5 128.6 110.8C130.4 110.8 132.1 110.9 133.9 111.2C134.2 111.2 134.7 110.5 135 110.5L135.1 110.6Z" fill="#231F20"/>
<path d="M135.2 110.3C125.5 109 115.2 110 105.9 112.6C97.1001 115.1 88.5 119.4 81.8 125.7C78.1 129.2 75.1 133.2 72.6 137.6C72.4 138 72.9 138.4 73.2 138C73.7 137.4 74.2 137.6 74.6 136.9C75.2 135.9 75.7 135 76.3 134.1C77.6 132.1 79.1 130.2 80.6 128.4C83.7 124.9 87.4001 121.9 91.4001 119.5C100 114.4 110.1 112 120 111.4C122.8 111.2 125.6 111.2 128.4 111.3C129.8 111.3 131.3 111.4 132.7 111.6C133.2 111.6 133.7 111.8 134.2 111.7C134.6 111.6 134.8 111.1 135.2 111.1C135.7 111 135.5 110.3 135 110.4C134.8 110.4 134.7 110.6 134.5 110.7C133.8 111 133.3 111 132.6 110.9C131.2 110.8 129.7 110.7 128.3 110.7C125.8 110.7 123.3 110.7 120.9 110.7C115.9 111 110.9 111.7 106.1 113C96.9 115.4 88.3 119.7 81.7 126.5C80 128.3 78.4 130.1 77 132.1C76.3 133.1 75.6001 134.2 74.9001 135.2C74.5001 135.8 74.2 136.7 73.5 137.2C73.2 137.4 73 137.4 72.8 137.6L73.4001 138C77.7001 130.2 84.1 123.8 91.8 119.4C99.5 115 108.7 112.1 117.8 111.1C123.5 110.5 129.4 110.2 135.1 111.1C135.6 111.1 135.8 110.4 135.3 110.4L135.2 110.3Z" fill="#231F20"/>
<path d="M72.6 66C73.2 64.1 73.5 61.9 73.6 59.9C73.8 55.5 73 51 70.8 47.1C67.6 41.4 61.8 38.1 55.7 36.3C51.1 35 46.2 34.1 41.4 33.7C37.9 33.4 34.4 33.3 30.9 33.7C26.9 34.2 23.2 35.3 19.8 37.4C19.4 37.6 18.4 38.1 18.2 38.6C18.1 38.9 18.4 39.8 18.5 40.1C19.5 44.1 21 48 23 51.6C25.7 56.6 29.4 61.3 34.5 64.1C37.3 65.6 40.3 66.5 43.5 66.7C48.3 67 53 67.1 57.8 67.1C62.2 67.1 66.6 67.1 71 66.7C71.2 66.7 71.3 66.7 71.5 66.7C71.9 66.7 72.3 66.1 72.6 66C69.9 66.3 67.1 66.3 64.4 66.4C60.7 66.4 57 66.4 53.2 66.4C50.6 66.4 48.1 66.2 45.5 66.1C43.8 66.1 42.1 65.9 40.4 65.4C34.7 64 30.1 60 26.8 55.3C24 51.4 21.9 46.9 20.5 42.3C20.1 41.1 19.7 39.8 19.4 38.5C19.4 38.1 19.2 38 19.5 37.7C19.8 37.5 20.1 37.3 20.3 37.1C20.3 37.1 20.5 37 20.6 36.9C21.1 36.6 19.9 37.3 20.4 37C20.7 36.8 21.1 36.7 21.4 36.5C23.2 35.7 25.2 35.1 27.1 34.7C34.4 33.3 42 34.1 49.2 35.6C56.2 37 63.2 39.4 67.8 45.1C70.7 48.7 72.2 53.3 72.3 57.9C72.4 60.7 72.1 63.5 71.4 66.2C71.4 66.3 71.4 66.5 71.3 66.6C71.3 66.3 72.3 66.3 72.4 65.9L72.6 66Z" fill="#231F20"/>
<path d="M73 66.1C75.8 57.1 73.4 46.7 65.8 40.8C62.2 38 57.9 36.4 53.6 35.3C48.4 34 43 33.2 37.6 33C32.2 32.8 27.3 33.4 22.5 35.5C21.4 36 20.4 36.6 19.4 37.2C18.9 37.5 18.1 37.8 17.9 38.5C17.7 39.2 18.2 40.1 18.3 40.7C18.7 42 19.1 43.3 19.5 44.6C22.5 53.2 28 62.2 36.9 65.7C39.5 66.7 42.2 67 44.9 67.2C48.2 67.4 51.5 67.4 54.8 67.5C58.1 67.6 61.3 67.5 64.6 67.5C66.1 67.5 67.7 67.4 69.2 67.3C69.9 67.3 70.7 67.3 71.4 67.1C71.9 67 72.1 66.6 72.6 66.4C73 66.3 72.9 65.6 72.6 65.7C67.6 66.3 62.6 66.2 57.6 66.1C52.6 66 47.7 66.1 42.8 65.5C33.9 64.3 27.6 57.2 23.8 49.5C22.6 47.2 21.7 44.7 20.9 42.2C20.7 41.6 20.5 41 20.3 40.3C20.1 39.8 19.8 39 19.8 38.4C19.8 37.5 20.8 37.6 21.2 37C21.4 36.7 21 36.3 20.7 36.5C20.5 36.5 20.4 36.7 20.2 36.8C20 36.9 20 37.1 20.1 37.3C20.1 37.5 20.4 37.5 20.6 37.4C29.8 33.1 40.3 34.1 50 36.2C58.5 38 67.1 41.7 70.6 50.3C72.6 55.4 72.7 61.3 71.2 66.5C71.2 66.8 71.6 67.2 71.8 66.9C72.1 66.5 72.6 66.6 72.9 66.2C73.2 65.8 72.7 65.3 72.4 65.7C72.1 66.1 71.6 66 71.3 66.4L71.9 66.8C74.5 57.7 72.3 47.2 64.5 41.4C61 38.7 56.7 37.2 52.5 36.1C47.5 34.8 42.3 34 37.2 33.8C31.3 33.6 25.7 34.4 20.3 36.9H20.8C20.8 37.2 20.8 37.4 20.7 37.5C20.9 37.5 21 37.3 21.2 37.2L20.7 36.7C20.6 37 19.5 37.3 19.2 37.8C18.9 38.4 19.4 39.4 19.5 40C20.1 42.4 21 44.8 21.9 47.1C23.6 51.2 25.9 55.2 28.9 58.6C31.6 61.6 35 64.1 38.9 65.5C43.7 67.1 49.2 66.8 54.2 66.9C60.3 67 66.5 67.2 72.6 66.6V65.9C72.3 65.9 72.1 66.1 71.9 66.2C71.2 66.5 70.5 66.6 69.8 66.7C68.4 66.8 67 66.9 65.7 66.9C63.2 66.9 60.7 66.9 58.1 66.9C53 66.9 47.8 66.9 42.7 66.4C33.2 65.5 26.7 58.2 22.7 50.2C21.6 47.9 20.6 45.5 19.8 43.1C19.5 42.1 19.2 41 18.9 40C18.5 38.7 19.4 38.3 20.4 37.7C24.7 35.2 29.6 34.2 34.5 34C39.4 33.8 44.7 34.4 49.7 35.4C54 36.3 58.4 37.4 62.2 39.6C66.5 42 70.1 45.7 71.8 50.3C73.6 55.2 73.8 61.1 72.2 66.1C72.1 66.6 72.8 66.8 72.9 66.3L73 66.1Z" fill="#231F20"/>
<path d="M78.5 80.5C77.9 78 77 75.5 76.2 73C74.4 67.9 72.1 62.8 69.3 58.1C66.5 53.4 62.8 48.9 57.7 46.6C56.2 45.9 54.6 45.6 53 45.1C51 44.6 49 44.1 47 43.6C43 42.6 38.9 41.7 34.8 40.8C29.7 39.7 24.5 38.7 19.3 37.7C19 37.7 18.5 38.4 18.2 38.4C22.4 39.2 26.7 40 30.9 40.9C34.9 41.7 38.8 42.6 42.8 43.5C46.8 44.4 50.8 45.3 54.8 46.6C60 48.2 64 52.5 67 56.9C70.2 61.5 72.5 66.7 74.5 71.9C75.6 74.9 76.7 77.9 77.4 81C77.4 80.9 78.6 80.5 78.5 80.3V80.5Z" fill="#231F20"/>
<path d="M78.9 80.4C77.5 75.1 75.6 69.8 73.2 64.8C71 60.2 68.5 55.7 65 51.9C63.5 50.2 61.8 48.7 59.8 47.5C57.6 46.1 55.2 45.5 52.7 44.8C47.1 43.3 41.4 42 35.7 40.8C32.3 40.1 29 39.4 25.6 38.7C24 38.4 22.4 38.1 20.8 37.8C20.3 37.8 19.6 37.5 19.1 37.5C18.6 37.5 18.4 38.1 18 38.2C17.6 38.2 17.6 38.9 18 38.9C28.6 40.8 39.1 43 49.5 45.6C52 46.2 54.7 46.8 57 48C59 49 60.8 50.5 62.4 52.1C65.8 55.6 68.4 59.9 70.5 64.2C73.2 69.6 75.3 75.3 76.8 81.1C76.8 81.3 77.3 81.5 77.4 81.3C77.7 80.9 78.3 81 78.6 80.6C78.9 80.2 78.2 79.8 77.9 80.2C77.7 80.5 77.1 80.5 76.8 80.8L77.4 81C76.1 75.8 74.2 70.8 72 65.9C69.9 61.4 67.5 57 64.3 53.2C61.3 49.6 57.7 47.1 53.2 45.8C47.8 44.2 42.4 43.1 36.9 41.9C30.6 40.5 24.3 39.2 18 38.1V38.8C18.3 38.8 18.4 38.6 18.6 38.5C19.3 38.1 19.9 38.4 20.6 38.5C22.1 38.8 23.5 39 24.9 39.3C27.7 39.9 30.5 40.4 33.4 41C38.8 42.1 44.2 43.3 49.5 44.7C52.2 45.4 55 45.9 57.4 47.1C59.5 48.1 61.4 49.5 63 51.2C66.5 54.7 69.1 59.1 71.3 63.5C74 68.9 76.2 74.7 77.7 80.5C77.8 81 78.5 80.8 78.4 80.3L78.9 80.4Z" fill="#231F20"/>
<path d="M5.09995 90.6C5.19995 90.6 5.39998 90.5 5.49998 90.4C5.99998 90.1 6.59995 89.8 7.09995 89.6C8.99995 88.6 10.9 87.7 12.9 86.9C18.4 84.5 24.2 82.5 30.1 81.4C36 80.3 42.5 80 48 82.6C51.4 84.2 54.2 87.1 56.6 90C59 92.9 61 96.4 62.4 100C63.4 102.6 64.1 105.4 64.5 108.2C64.7 109.6 64.6 111 64.7 112.4C64.7 112.4 64.7 112.5 64.7 112.6L65.8 111.9C63.3 112.6 60.8 113 58.2 113.4C52.5 114.3 46.7 114.6 40.9 114.1C34.4 113.6 27.9 112 22.4 108.4C19.1 106.2 15.9 103.7 13 101C11.2 99.3 9.39998 97.4 7.99998 95.3C7.19998 94.1 6.49995 92.8 6.09995 91.4C6.09995 91 5.89998 90.5 5.99998 90C5.99998 90.3 4.9 90.4 4.9 90.7C4.7 92.1 5.59999 93.8 6.19999 94.9C7.29999 96.8 8.79996 98.5 10.3 100.1C12.9 102.8 15.8 105.2 18.8 107.4C21.8 109.6 24.7 111.3 28 112.5C31 113.6 34.2 114.3 37.4 114.7C43.3 115.5 49.4 115.2 55.3 114.5C58.4 114.1 61.6 113.6 64.6 112.7C64.8 112.7 65.7 112.2 65.7 112C65.9 108.5 65.2 104.8 64.1 101.4C63 97.9 61.3 94.5 59.2 91.5C57.9 89.7 56.5 88 54.9 86.4C53.6 85.1 52.1 83.8 50.5 82.8C45.3 79.6 38.7 79.6 32.8 80.5C26.9 81.4 20.7 83.4 15 85.8C11.9 87.1 8.8 88.5 5.9 90.1C5.9 90.1 5.79999 90.1 5.69999 90.2C5.39999 90.3 5.2 90.5 4.9 90.7C4.7 90.8 4.7 90.8 4.9 90.7L5.09995 90.6Z" fill="#231F20"/>
<path d="M4.90001 90.3C4.50001 90.6 4.89997 91.2 5.29997 91C9.69997 88.6 14.4 86.5 19.2 84.8C24 83.1 29.4 81.6 34.7 81.1C40 80.6 45.1 81 49.5 83.7C53.9 86.4 57.4 90.8 59.9 95.1C62.9 100.3 64.9 106.6 64.6 112.6C64.6 112.9 64.9 113.1 65.2 112.9L66.3 112.2C66.7 112 66.4 111.4 66 111.5C57.2 113.9 47.6 114.6 38.7 113.4C34.3 112.8 29.9 111.7 26 109.7C22.1 107.7 18.5 104.9 15.2 102C13.4 100.4 11.7 98.7 10.1 96.9C8.49996 95.1 6.49999 92.4 6.69999 89.9C6.69999 89.5 6.19998 89.4 5.99998 89.7C5.69998 90.1 5.09997 89.9 4.79997 90.5C4.39997 91.3 4.99997 92.6 5.29997 93.3C6.29997 95.5 7.80001 97.5 9.40001 99.2C13 103.1 17.3 106.7 21.8 109.5C31.4 115.4 43.4 116 54.4 114.7C57.2 114.4 60 114 62.7 113.3C63.7 113.1 64.7 112.9 65.6 112.4C66.4 112 66.4 111.9 66.4 111C66.6 105.9 65 100.6 62.7 96C60.4 91.4 57 86.8 52.8 83.5C49 80.4 44.1 79.3 39.2 79.3C34.3 79.3 27.3 80.7 21.6 82.6C15.9 84.5 9.89999 86.9 4.69999 90.1C4.29999 90.4 4.69996 91 5.09996 90.7H5.29997C5.69997 90.4 5.30001 89.7 4.90001 90H4.69999L5.09996 90.7C9.29996 88.1 14.1 86.1 18.8 84.4C23.5 82.7 28.5 81.2 33.6 80.4C38.3 79.7 43.2 79.6 47.7 81.3C52.4 83.1 56.2 87.1 59 91.1C61.8 95.1 63.9 99.8 65 104.7C65.3 105.9 65.5 107.1 65.6 108.4C65.6 109 65.6 109.6 65.6 110.2C65.6 110.8 65.6 111.2 65.1 111.6C64.3 112.2 62.9 112.3 61.9 112.5C60.7 112.8 59.4 113 58.1 113.2C47.7 114.8 36.1 115.2 26.2 110.9C21.1 108.7 16.6 105.1 12.5 101.3C10.5 99.4 8.49998 97.4 6.99998 95.1C6.29998 94.1 5.59997 92.9 5.29997 91.7C5.29997 91.7 5.09999 90.9 5.19999 90.7C5.39999 90.3 5.60001 90.5 5.90001 90.3C6.10001 90.2 6.20001 90.1 6.40001 89.9L5.69999 89.7C5.49999 91.6 6.69997 93.6 7.79997 95.1C8.99997 96.9 10.5 98.6 12.1 100.1C15.4 103.4 19.1 106.4 23.1 108.8C30.9 113.6 40.5 114.6 49.5 114.3C55 114.1 60.7 113.3 66 111.9L65.7 111.2L64.6 111.9L65.2 112.2C65.7 101.7 59.8 90.3 51.6 83.9C43.4 77.5 31 79.8 21.6 82.8C15.9 84.6 10.2 87 4.90001 89.9L5.29997 90.5C5.69997 90.2 5.30001 89.6 4.90001 89.8V90.3Z" fill="#231F20"/>
<path d="M19.7 92.4C22.4 92.4 25 92.7 27.7 93C33.5 93.7 39.2 94.8 44.7 96.5C50.5 98.4 56.4 101.1 60.7 105.7C62.9 108.1 64.2 110.8 65.3 113.8C66.7 117.9 68.1 122.1 69.8 126.1C70.5 127.8 71.2 129.6 72.2 131.2C72.3 131.4 72.7 132.2 73 132.2C73.4 132.2 73.8 131.5 74.1 131.5C73.9 131.5 73.7 131.1 73.6 131C72.8 129.9 72.2 128.5 71.6 127.2C70.1 123.9 68.9 120.5 67.7 117.1C66.4 113.5 65.5 109.8 63.2 106.7C59.5 101.8 53.8 98.7 48.1 96.6C42.5 94.5 36.6 93.3 30.7 92.5C28.6 92.2 26.4 92 24.3 91.9C23.3 91.9 22.1 91.6 21.1 91.7H21C20.6 91.7 20.2 92.4 19.9 92.4H19.7Z" fill="#231F20"/>
<path d="M19.7 92.8C25.1 92.9 30.6001 93.6 35.9001 94.7C40.9001 95.7 45.9 97.1 50.6 99.3C55 101.3 59.3 104.2 62 108.2C63.4 110.3 64.3 112.7 65.1 115.1C66 117.7 66.9001 120.3 67.9001 122.9C68.9001 125.5 69.8 128.1 71.1 130.5C71.4 131.1 71.8001 132.2 72.4001 132.5C73.1001 132.9 73.4 132.1 74 132C74.3 132 74.4 131.5 74 131.3C73.1 130.8 72.5 129 72.1 128.1C71.5 126.7 70.9 125.4 70.3 124C69.3 121.5 68.4 118.9 67.5 116.4C66 112 64.5 107.7 61.2 104.3C54.4 97.4 43.9 94.5 34.7 92.9C31.9 92.4 29.1 92 26.3 91.8C24.9 91.7 23.4 91.5 22 91.4C21.6 91.4 21 91.4 20.6 91.4C20.1 91.5 19.9001 91.9 19.4001 92.1C18.9001 92.3 19.1 93 19.6 92.8C19.9 92.8 20 92.6 20.2 92.5C20.8 92.1 21.2 92.1 22 92.2C23.3 92.2 24.6 92.4 25.8 92.5C28.5 92.7 31.1 93.1 33.8 93.5C38.9 94.4 44 95.6 48.8 97.5C53.1 99.2 57.4 101.5 60.7 104.8C64.3 108.4 65.6 113.1 67.3 117.8C68.3 120.6 69.3 123.4 70.5 126.2C71 127.3 71.4 128.4 72 129.5C72.4 130.3 72.9 131.6 73.8 132V131.3C73.7 131.3 73.5 131.6 73.3 131.6C72.6 131.8 72.6 131.6 72.3 131.1C71.6 130 71.1 128.8 70.6 127.6C69.5 125 68.5 122.4 67.5 119.8C65.9 115.4 64.8 110.6 61.8 106.8C56 99.4 45.9 96.1 37.1 94.2C31.3 93 25.4 92.2 19.5 92.1C19 92.1 19 92.8 19.5 92.9L19.7 92.8Z" fill="#231F20"/>
<path d="M78.5 189.4C77.5 186.7 76.4 184 75.2 181.4C72.6 175.9 69.7 170.5 66.2 165.5C62.7 160.5 58.7 155.8 53.1 153.5C49.8 152.1 45.9 152 42.3 151.8C37.9 151.6 33.4 151.8 29 152.3C23.4 152.9 17.8 153.6 12.3 155C12.3 155 12.1 155 12 155C11.6 155.1 11.3 155.6 10.9 155.7C15.5 154.6 20.2 153.8 24.8 153.3C29.1 152.8 33.5 152.4 37.8 152.4C40 152.4 42.2 152.4 44.5 152.6C46.4 152.8 48.3 152.9 50.1 153.4C55.7 155 60.1 159.7 63.6 164.2C67.4 169.2 70.5 174.7 73.2 180.3C74.2 182.4 75.1 184.5 76 186.6C76.3 187.3 76.6 188 76.9 188.7C77 189 77.1 189.6 77.3 189.8V189.9C77.3 189.9 78.5 189.3 78.4 189.2L78.5 189.4Z" fill="#231F20"/>
<path d="M78.8 189.3C76.7 183.6 74 178 71.1 172.7C68.4 168 65.4 163.3 61.7 159.3C58 155.3 53.6 152.5 48.1 151.8C42.1 151 36 151.3 30 151.8C26.7 152.1 23.4 152.5 20.1 153C18.3 153.3 16.6 153.6 14.8 154C14 154.2 13.1 154.3 12.3 154.6C11.7 154.8 11.3 155.1 10.8 155.4C10.4 155.6 10.7 156.2 11.1 156.1C17 154.7 23 153.8 29 153.2C35 152.6 40.7 152.5 46.5 153.2C49.3 153.5 51.9 154.2 54.3 155.7C56.5 157 58.4 158.7 60.1 160.5C63.8 164.4 66.8 169 69.4 173.6C72.4 178.9 75 184.4 77.1 190.1C77.1 190.4 77.5 190.5 77.7 190.3C78 190 78.5 190 78.8 189.6C79.1 189.2 78.6 188.7 78.3 189.1C78 189.4 77.5 189.5 77.2 189.8L77.8 190C75.9 184.8 73.5 179.8 70.9 174.9C68.2 170 65.2 165.2 61.5 161C58.3 157.4 54.4 154.1 49.6 153C43.8 151.7 37.5 151.9 31.6 152.3C24.6 152.8 17.6 153.8 10.8 155.4L11.1 156.1C11.8 155.8 12.2 155.5 12.9 155.3C13.5 155.1 14.1 155 14.7 154.9C16.2 154.6 17.6 154.3 19.1 154C22.1 153.5 25.1 153.1 28.1 152.8C34 152.2 39.9 151.9 45.8 152.4C48.6 152.6 51.4 153.1 54 154.3C56.3 155.4 58.3 157 60.2 158.8C63.9 162.5 66.9 166.9 69.6 171.4C73 177.1 75.9 183.2 78.2 189.4C78.4 189.9 79.1 189.7 78.9 189.2L78.8 189.3Z" fill="#231F20"/>
<path d="M2.09998 156.3C7.09998 151.9 12.9 148 18.9 145C23.7 142.6 28.9 140.6 34.2 139.9C36.8 139.6 39.4 139.5 42 139.9C45.1 140.4 48.2 141.6 51 142.9C55.6 145 60.1 148.1 62.7 152.6C64.4 155.6 65.1 159.1 64.2 162.4C63.8 164.2 62.9 165.7 61.7 167C61.4 167.4 61 167.7 60.6 168C60.4 168.2 60.1 168.4 59.9 168.5C59.7 168.6 59.6 168.7 59.4 168.8C59 169.1 59.5 168.8 59.2 168.9C58 169.5 56.7 170 55.4 170.5C48.9 172.6 41.7 173 35 172.7C28.4 172.4 21.9 170.6 15.9 168C13.1 166.8 10.4 165.4 8 163.6C6.1 162.2 4.29998 160.6 3.09998 158.6C2.59998 157.8 2.29998 157 2.09998 156.1C2.09998 156.2 0.9 156.6 1 156.8C1.4 158.9 2.79999 160.7 4.29999 162.2C6.39999 164.2 8.9 165.8 11.5 167.2C17.6 170.4 24.4 172.4 31.2 173.2C35 173.6 38.8 173.6 42.6 173.3C46.1 173.1 49.6 172.6 52.9 171.6C55.4 170.9 57.7 169.9 60 168.5C61.8 167.4 63.5 166 64.6 164.1C66.2 161 66.2 157.3 65 154.1C63.3 149.5 59.3 146 55.2 143.6C49.8 140.5 43.6 138.4 37.3 138.9C31.7 139.3 26.2 141.2 21.2 143.7C14.2 147.1 7.40002 151.4 1.40002 156.5C1.30002 156.5 1.19998 156.7 1.09998 156.8C1.39998 156.5 1.90001 156.4 2.20001 156.1L2.09998 156.3Z" fill="#231F20"/>
<path d="M2.40003 156.5C6.70003 152.7 11.5 149.4 16.6 146.6C21.7 143.8 27 141.5 32.6 140.5C35.7 139.9 38.9 139.8 42 140.3C44.8 140.7 47.5 141.7 50.1 142.9C54.8 145 59.5 148 62.3 152.5C64 155.3 64.7 158.6 64.1 161.7C63.5 164.8 61.7 166.9 59.1 168.7C58.8 168.9 59 169.5 59.4 169.4C59.4 169.4 59.6 169.4 59.6 169.3C60 169 59.6 168.6 59.1 168.7C55.3 170.4 51.4 171.5 47.3 172.1C43.2 172.7 39.2 172.7 35.2 172.5C27 172.1 18.7 169.7 11.6 165.6C7.89998 163.5 3.4 160.5 2.5 156.1C2.5 155.8 1.99999 155.8 1.79999 156.1C1.59999 156.4 0.79998 156.3 0.599979 156.8C0.299979 157.5 1.10003 158.8 1.40003 159.4C2.60003 161.5 4.50003 163.2 6.40003 164.7C10.9 168 16.2 170.3 21.6 171.8C27 173.3 32.8 174.1 38.5 174C44.2 173.9 50.4 173.4 55.8 171.2C60.3 169.4 64.7 166.7 65.8 161.7C66.8 157 65 152.3 61.9 148.8C58.6 145.1 54.1 142.6 49.6 140.8C44.5 138.8 39.2 138.2 33.8 139.1C27.5 140.2 21.6 142.9 16 146C10.4 149.1 5.29998 152.6 0.599979 156.7C0.299979 157 0.59998 157.5 1.09998 157.3C1.59998 157.1 1.90002 156.9 2.20002 156.6C2.60002 156.3 2.19999 155.7 1.79999 156C1.39999 156.2 1.00002 156.4 0.700016 156.7L1.20002 157.3C9.00002 150.6 18.2 144.8 27.9 141.5C32.9 139.8 38.2 138.9 43.4 139.9C48.2 140.8 53 142.8 57 145.6C60.8 148.2 64.2 151.9 65.1 156.5C65.6 159.1 65.4 161.9 64.2 164.2C63 166.5 60.9 168 58.6 169.1C53.8 171.7 48.4 172.7 43 173.1C37.6 173.5 32.2 173.4 26.8 172.4C21.2 171.3 15.7 169.4 10.7 166.6C8.20002 165.2 5.79999 163.6 3.79999 161.5C2.79999 160.4 2 159.2 1.5 157.7C1.3 157 1.50003 157.2 1.90003 156.9C2.10003 156.8 2.30003 156.7 2.40003 156.5H1.70002C2.50002 160.1 5.6 162.7 8.5 164.7C12 167.1 16 168.9 20 170.3C28.3 173.2 37.2 174 46 173.1C48.3 172.9 50.6 172.5 52.9 171.9C55.2 171.3 57.4 170.4 59.6 169.5L59.1 168.9H59.2L59.5 169.5C61.5 168.1 63.2 166.6 64.2 164.2C65.2 161.7 65.3 158.8 64.6 156.2C63.2 150.9 59 147 54.5 144.4C49.3 141.3 43.2 139.2 37.1 139.4C31 139.6 25.1 141.7 19.6 144.4C13.2 147.5 7.20003 151.5 1.90003 156.1C1.50003 156.4 2.10003 157 2.40003 156.6V156.5Z" fill="#231F20"/>
<path d="M91.2 159.4C90.9 163.4 90.7 167.3 90.4 171.3L90.2 174.2C90.2 174.4 90 175.2 90.2 175.4C90.2 175.4 90.6 175.5 90.7 175.6L92.1 176.1C100.8 179.2 109.6 182.3 118.3 185.4C121.1 186.4 123.9 187.4 126.7 188.4C127 188.5 127.6 187.6 127.8 187.7C120.8 185.2 113.7 182.7 106.7 180.2C102.5 178.7 98.3 177.2 94.1 175.7L92.4 175.1C92.2 175.1 91.6 174.9 91.4 174.8C91.3 174.7 91.4 174.7 91.4 174.4L91.6 172.2C91.9 167.7 92.2 163.2 92.5 158.7C92.5 158.9 91.4 159.1 91.4 159.4H91.2Z" fill="#231F20"/>
<path d="M90.8 159.4C90.5 163.6 90.2 167.8 89.9 172C89.9 172.9 89.8 173.7 89.7 174.6C89.7 174.9 89.5 175.3 89.7 175.6C89.9 175.8 90.2 175.9 90.4 175.9C91.4 176.3 92.4 176.6 93.4 177C101.3 179.8 109.2 182.6 117 185.4C119.3 186.2 121.5 187 123.8 187.8C124.5 188.1 125.8 188.8 126.5 188.7C126.9 188.7 127.2 188.1 127.6 188.1C128 188.1 128.1 187.5 127.6 187.4C118.9 184.3 110.1 181.2 101.4 178.1L94.9 175.8C93.9 175.5 92.9 175.2 92 174.8C91.5 174.6 91.5 174.7 91.5 174.1C91.5 173.5 91.5 172.9 91.6 172.3C91.9 167.8 92.2 163.3 92.5 158.8C92.5 158.4 92 158.3 91.8 158.6C91.6 158.9 90.9 158.9 90.7 159.3C90.5 159.7 91.1 160.1 91.4 159.7C91.6 159.4 92.3 159.4 92.5 159L91.8 158.8C91.5 163.6 91.1 168.4 90.8 173.2C90.8 173.8 90.5 174.7 90.8 175.2C91.1 175.6 91.9 175.6 92.4 175.8C94.7 176.6 97 177.4 99.3 178.2C108.7 181.5 118 184.8 127.4 188.1V187.4C126.8 187.4 126.7 188 126 187.9C124.9 187.7 123.8 187.1 122.7 186.7C120.4 185.9 118 185 115.7 184.2C111 182.5 106.3 180.9 101.7 179.2L94.7 176.7L91.4 175.5C91.1 175.4 90.4 175.3 90.2 175C90.2 174.8 90.2 174.3 90.3 174.1C90.8 169.2 91 164.2 91.3 159.2C91.3 158.7 90.6 158.7 90.5 159.2L90.8 159.4Z" fill="#231F20"/>
<path d="M103.9 155.7C102.3 159.1 100.7 162.6 99.1 166L98.1 168.1C98 168.3 97.9 168.4 98.1 168.5C98.2 168.6 98.7 168.8 98.9 168.8L100.5 169.5C108.7 173 117 176.4 125.2 179.9C127.7 181 130.3 182 132.8 183.1C133 183.2 133.7 182.3 133.9 182.4C127.5 179.7 121.1 177 114.7 174.3C110.7 172.6 106.7 170.9 102.7 169.2L99.6 167.9C99.6 167.9 99.2 167.8 99.2 167.7C99.2 167.5 99.7 166.7 99.7 166.5C101.5 162.6 103.3 158.8 105.1 154.9C104.9 155.2 104.1 155.2 104 155.6L103.9 155.7Z" fill="#231F20"/>
<path d="M103.6 155.5C102.5 157.9 101.4 160.3 100.2 162.6L98.5 166.1C98.3 166.6 97.5 167.6 97.5 168.2C97.5 168.7 97.8 168.8 98.2 168.9C99.2 169.3 100.2 169.7 101.1 170.1L108.2 173.1C112.9 175.1 117.7 177.1 122.4 179.1C124.7 180.1 127.1 181.1 129.4 182.1L131.2 182.9C131.6 183.1 132.2 183.5 132.7 183.5C133.2 183.5 133.4 182.9 133.8 182.8C134.2 182.8 134.3 182.2 133.8 182.1C125.6 178.7 117.4 175.2 109.2 171.7L103.4 169.3L100.3 168C100.3 168 99.3 167.7 99.3 167.6L99.7 167C101.7 163.2 103.4 159.2 105.2 155.3C105.4 154.9 104.9 154.5 104.6 154.9C104.3 155.3 103.8 155.2 103.5 155.6C103.2 156 103.7 156.5 104 156.1C104.3 155.8 104.8 155.8 105.1 155.4L104.5 155C102.6 159.1 100.7 163.2 98.7 167.2C98.2 168.3 99.1 168.4 100.1 168.8L106.6 171.5C115.6 175.3 124.6 179.1 133.6 182.9V182.2C133.3 182.2 133.1 182.6 132.8 182.7C132 183 130.3 181.8 129.5 181.5C127.4 180.6 125.3 179.7 123.2 178.8L110.1 173.3L103.7 170.6L100.5 169.2C100.2 169.1 98.3 168.5 98.2 168.3C98 167.8 99.2 166.1 99.5 165.5L101 162.4C102 160.2 103 158.1 104 155.9C104.2 155.5 103.6 155.1 103.3 155.5H103.6Z" fill="#231F20"/>
<path d="M120.1 156.7C118.5 158.8 116.9 160.8 115.3 162.9C115.1 163.2 114.3 164 114.4 164.2C114.4 164.3 114.9 164.5 115 164.6L116.1 165.2C121.4 168.4 126.7 171.6 132 174.9C133.6 175.9 135.2 176.9 136.8 177.8C137 177.9 137.8 177 137.9 177.1C133.8 174.6 129.7 172.1 125.6 169.6L117.9 164.9L115.8 163.6C115.3 163.3 115.6 163.3 115.9 162.8C117.7 160.5 119.4 158.2 121.2 155.9C121 156.2 120.3 156.2 120.1 156.6V156.7Z" fill="#231F20"/>
<path d="M119.8 156.5C118.6 158.1 117.4 159.7 116.1 161.2C115.6 161.8 115.1 162.4 114.6 163.1C114.4 163.3 114.1 163.7 114 164C113.9 164.3 114 164.4 114.3 164.6C114.8 165 115.6 165.4 116.2 165.7L121.2 168.7L131.1 174.7C132.7 175.6 134.2 176.6 135.8 177.6C136.1 177.8 136.5 178.2 136.9 178.1C137.2 178.1 137.5 177.5 137.9 177.5C138.3 177.5 138.4 177 138.1 176.8C132.9 173.6 127.7 170.5 122.5 167.3L118.8 165.1L117 164C116.8 163.9 116.3 163.7 116.1 163.5C115.9 163.2 115.9 163.8 116.1 163.2C116.3 162.6 116.9 162.1 117.3 161.7L118.7 159.9C119.6 158.7 120.6 157.5 121.5 156.3C121.8 155.9 121.2 155.6 120.9 155.9C120.6 156.2 120.1 156.3 119.8 156.6C119.4 156.9 120 157.4 120.3 157.1C120.6 156.8 121.1 156.7 121.4 156.4L120.8 156C119.8 157.3 118.8 158.7 117.7 160L116.2 162C115.9 162.4 115.2 162.9 115.1 163.4C115 164.1 115.9 164.4 116.4 164.7L120.5 167.2C126.2 170.7 131.9 174.1 137.6 177.6L137.8 176.9C137.5 176.9 137.4 177 137.2 177.2C137 177.4 136.9 177.5 136.6 177.5C136.4 177.5 136 177.1 135.8 177C134.4 176.2 133.1 175.3 131.7 174.5L123 169.2L118.6 166.5L116.6 165.3C116.3 165.1 114.9 164.5 114.8 164.1C114.8 163.9 115.4 163.4 115.5 163.2C116 162.6 116.5 161.9 117 161.2C118.1 159.8 119.2 158.4 120.2 157C120.5 156.6 119.8 156.2 119.5 156.6L119.8 156.5Z" fill="#231F20"/>
<path d="M129.7 157.3C128.7 158.8 127.8 160.2 126.9 161.7L126.2 162.8C126.2 162.9 125.7 163.4 125.7 163.6C125.7 163.7 126 163.8 126.2 163.9C129.8 165.7 133.4 167.5 137 169.3L140.7 171.1C140.9 171.2 141.6 170.3 141.8 170.4C138.8 168.9 135.8 167.4 132.8 165.9C131.1 165 129.4 164.2 127.7 163.3C127.6 163.3 126.9 163 126.8 162.9C126.8 162.7 127.5 161.8 127.6 161.6C128.7 159.9 129.8 158.2 130.9 156.5C130.7 156.8 130 156.8 129.8 157.2L129.7 157.3Z" fill="#231F20"/>
<path d="M129.4 157.1C128.1 159.1 126.8 161.1 125.5 163.1C125.1 163.7 125.5 164 126 164.3C127.2 164.9 128.4 165.5 129.5 166.1C131.9 167.3 134.3 168.5 136.7 169.7L138.4 170.6C139 170.9 139.7 171.4 140.4 171.6C140.6 171.6 140.7 171.6 140.9 171.6C141.1 171.6 141.5 171 141.7 171C142.1 171 142.2 170.5 141.9 170.3C137.9 168.3 133.9 166.3 130 164.3C129.2 163.9 128.4 163.5 127.6 163.1C127.5 163.1 127.3 163 127.2 162.9C127.1 162.8 127.2 163 127.2 162.9C127.4 162.7 127.5 162.4 127.7 162.2C128.9 160.5 130 158.7 131.1 156.9C131.3 156.5 130.8 156.1 130.5 156.5C130.2 156.8 129.7 156.8 129.4 157.2C129.1 157.6 129.6 158.1 129.9 157.7C130.2 157.4 130.7 157.4 131 157L130.4 156.6C129.2 158.5 128.1 160.4 126.7 162.2C126.5 162.5 126 163 126.3 163.4C126.6 163.8 127.6 164.1 128 164.3C132.5 166.5 136.9 168.8 141.4 171L141.6 170.3C141.4 170.3 141.2 170.4 141 170.5C140.7 170.7 140.6 170.9 140.2 170.8C139.1 170.3 138 169.7 137 169.2C134.9 168.1 132.7 167.1 130.6 166L127.5 164.4C127 164.2 126.6 163.9 126.1 163.7C125.8 163.6 125.9 163.8 126.1 163.7C126.1 163.6 126.3 163.5 126.4 163.3C127.7 161.5 128.8 159.5 130 157.7C130.3 157.3 129.6 156.9 129.3 157.3L129.4 157.1Z" fill="#231F20"/>
<path d="M12 166.3C14.4 163.4 16.8 160.5 19.2 157.7L22.8 153.4C23 153.1 23.1 153.1 23.1 152.8C23.1 152.5 22.9 152.2 22.8 151.9L22.2 150.3C21.5 148.3 20.8 146.3 20.1 144.3C20.1 144.3 18.9 144.9 19 145C19.6 146.7 20.2 148.4 20.8 150.2L21.8 153.1C21.9 153.5 22 153.5 21.8 153.8C21.5 154.3 21 154.7 20.6 155.2L18.5 157.7C16.9 159.6 15.3 161.5 13.7 163.5C12.7 164.7 11.8 165.8 10.8 167C11.1 166.7 11.7 166.7 11.9 166.3H12Z" fill="#231F20"/>
<path d="M12.3 166.6C15.5 162.8 18.7 159 21.8 155.2C22.3 154.6 23.1 154 23.4 153.3C23.7 152.6 23.1 151.8 22.8 151.1C22 148.8 21.2 146.6 20.4 144.3C20.4 144.1 20 143.9 19.8 144.1C19.5 144.4 18.8 144.4 18.6 144.8C18.3 145.4 19.1 146.7 19.3 147.3C19.8 148.6 20.2 149.9 20.6 151.1C20.8 151.7 21 152.4 21.3 153C21.6 153.8 21.3 154 20.7 154.6C17.2 158.5 13.9 162.7 10.5 166.7C10.2 167.1 10.7 167.5 11 167.2C11.3 166.9 11.8 166.8 12.1 166.5C12.5 166.2 11.9 165.7 11.6 166C11.3 166.3 10.8 166.4 10.5 166.7L11 167.2C14.4 163.1 17.7 158.9 21.3 154.9C21.7 154.4 22.3 153.9 22.1 153.2C21.9 151.9 21.2 150.6 20.7 149.4C20.2 148.2 19.9 146.8 19.4 145.6C19.1 145 19.1 145.1 19.6 144.8C19.8 144.7 20 144.6 20.1 144.5L19.5 144.3C20.2 146.3 20.9 148.3 21.6 150.3C21.8 150.8 22 151.4 22.2 151.9C22.4 152.5 22.5 152.7 22.1 153.3C21.6 154.1 20.8 154.9 20.2 155.6C17.3 159 14.5 162.5 11.6 165.9C11.3 166.3 11.8 166.8 12.1 166.4L12.3 166.6Z" fill="#231F20"/>
<path d="M19.4 169.6C22.8 165.7 26.2 161.9 29.6 158.1L34.9 152.1C35.1 151.9 35.5 151.6 35.4 151.3C35.4 151 35 150.5 34.8 150.2L33.8 148.3C32.4 145.7 31 143.1 29.6 140.5C29.6 140.5 28.4 141.1 28.5 141.2C29.7 143.4 30.9 145.6 32.1 147.8L34.1 151.5C34.4 152 34.4 151.9 34.1 152.4L22.5 165.6C21.1 167.2 19.7 168.7 18.4 170.3C18.7 170 19.3 170 19.5 169.6H19.4Z" fill="#231F20"/>
<path d="M19.7 169.9C24.2 164.8 28.7 159.7 33.2 154.6C33.7 154 34.3 153.4 34.9 152.7C35.2 152.4 35.6 152.1 35.8 151.6C36.1 150.8 35.2 149.8 34.8 149.2C33.2 146.2 31.6 143.2 29.9 140.3C29.9 140.1 29.6 140.1 29.4 140.2C29 140.4 28.6 140.6 28.3 140.9C28.1 141 28.1 141.2 28.2 141.4C29.6 144 31 146.5 32.4 149.1L33.5 151.2C33.6 151.4 33.9 151.7 33.9 152C33.9 152.4 33.5 152.6 33.3 152.9L30.2 156.4C26.2 161 22.2 165.5 18.2 170.1C17.9 170.5 18.4 170.9 18.7 170.6C19 170.3 19.5 170.2 19.8 169.9C20.2 169.6 19.6 169.1 19.3 169.4C19 169.7 18.5 169.8 18.2 170.1L18.7 170.6C23.1 165.6 27.6 160.5 32 155.5L33.6 153.7C33.9 153.4 34.5 152.9 34.7 152.4C35 151.6 34 150.5 33.6 149.8C32 146.9 30.4 144 28.9 141.1V141.6C29.1 141.3 29.5 141.2 29.9 140.9H29.4C30.9 143.4 32.3 146.1 33.7 148.8C34 149.4 34.3 149.9 34.6 150.5C35 151.2 35.1 151.5 34.6 152.1C33.5 153.3 32.5 154.5 31.5 155.7C27.5 160.3 23.4 164.9 19.3 169.5C19 169.9 19.5 170.4 19.8 170L19.7 169.9Z" fill="#231F20"/>
<path d="M38.7 139.7C40 142.2 41.3 144.7 42.6 147.2L45 151.7C45.1 151.9 45.6 152.5 45.5 152.7C45.5 152.8 45.5 152.8 45.4 152.9C44.9 153.6 44.2 154.3 43.6 154.9L40.4 158.5L32.6 167.3C31 169.1 29.4 170.9 27.8 172.7C28.1 172.4 28.7 172.3 28.9 172C32.8 167.6 36.7 163.2 40.6 158.8C42.5 156.7 44.4 154.5 46.3 152.4C46.7 152 46.8 152 46.5 151.5L44.5 147.7C43 144.8 41.4 141.8 39.9 138.9C39.9 138.9 38.7 139.5 38.8 139.6L38.7 139.7Z" fill="#231F20"/>
<path d="M38.4 139.9C40.1 143.1 41.7 146.2 43.4 149.4C43.8 150.2 44.2 150.9 44.6 151.6C44.8 151.9 45.2 152.4 45.1 152.7C45.1 153.3 43.9 154.1 43.5 154.5C42.9 155.1 42.3 155.8 41.8 156.5C37.1 161.9 32.3 167.2 27.6 172.6C27.3 173 27.8 173.4 28.1 173.1C28.6 172.7 29.1 172.6 29.6 172.1C30.3 171.4 30.9 170.6 31.6 169.9C32.9 168.4 34.2 167 35.5 165.5L43.4 156.6L45.3 154.5C45.8 153.9 46.6 153.3 47 152.6C47.5 151.6 46.4 150.5 46 149.6C44.1 146 42.2 142.5 40.4 138.9C40.4 138.7 40.1 138.7 39.9 138.8C39.5 139 39.1 139.2 38.8 139.5C38.4 139.8 38.8 140.4 39.2 140.1C39.5 139.8 40 139.7 40.3 139.4H39.8C41.5 142.5 43.2 145.7 44.9 148.9C45.3 149.7 45.9 150.6 46.2 151.5C46.4 152 46.4 152.1 46.2 152.6C46 152.9 45.7 153.2 45.4 153.5L41.8 157.6C39.4 160.3 37.1 163 34.7 165.6C33.5 166.9 32.3 168.3 31.1 169.6C30.5 170.3 29.9 171 29.3 171.6C28.8 172 28.3 172.2 27.8 172.6L28.3 173.1C33.5 167.3 38.6 161.4 43.8 155.6C44.4 154.9 46 153.8 46.1 152.8C46.1 152.4 45.9 152.2 45.8 151.9C45.4 151.2 45 150.6 44.7 149.9C42.9 146.5 41.1 143 39.3 139.6C39.1 139.2 38.4 139.6 38.6 140L38.4 139.9Z" fill="#231F20"/>
<path d="M40.7 172.9C44.6 169 48.4 165 52.3 161.1L55.5 157.8L56.6 156.7C56.8 156.5 57.1 156.3 57.2 156.1C57.4 155.8 57.1 155.3 56.9 154.9L55.2 150.6C54.1 147.8 53 145 51.9 142.2C51.9 142.2 50.7 142.8 50.8 142.9C51.7 145.3 52.6 147.6 53.6 150L55.4 154.7L56 156.2C56 156.3 56.2 156.6 56.2 156.7C56.2 156.8 55.9 157 55.8 157.1L54.9 158L52 160.9C49.5 163.5 46.9 166.1 44.4 168.7C42.8 170.3 41.2 172 39.5 173.6C39.8 173.3 40.3 173.2 40.6 172.9H40.7Z" fill="#231F20"/>
<path d="M40.9 173.2C45.8 168.2 50.8 163.2 55.7 158.1C56.2 157.5 57.6 156.7 57.6 155.8C57.6 154.9 57.2 154.8 57.1 154.4C56.8 153.5 56.4 152.7 56.1 151.8C54.8 148.6 53.6 145.3 52.3 142.1C52.3 141.8 51.9 141.7 51.7 141.9C51.4 142.2 50.9 142.2 50.6 142.6C50.6 142.6 50.4 142.8 50.6 143C51.8 146 52.9 149 54.1 152C54.6 153.4 55.2 154.7 55.7 156.1C55.7 156.2 55.9 156.5 55.9 156.6C55.9 156.7 55.2 157.3 55.1 157.4L53.5 159C48.8 163.8 44.1 168.6 39.4 173.3C39.1 173.6 39.4 174.1 39.9 173.9C40.4 173.7 40.7 173.5 41 173.2C41.4 172.9 41 172.3 40.6 172.6C40.2 172.9 39.8 173 39.5 173.3L40 173.9C45.3 168.5 50.6 163 56 157.7C57 156.7 56.8 156.6 56.2 155.2C55.6 153.6 54.9 152 54.3 150.4C53.6 148.6 52.9 146.8 52.2 145.1C52 144.7 51.9 144.2 51.7 143.8L51.5 143.4C51.3 143.3 51.3 143.2 51.5 143.2C51.7 143 52.1 142.9 52.4 142.7L51.8 142.5C53 145.5 54.1 148.5 55.3 151.6C55.8 152.9 56.5 154.2 56.8 155.5C57 156.4 56.5 156.7 55.9 157.3L54.4 158.8C49.8 163.5 45.2 168.2 40.5 172.9C40.2 173.2 40.7 173.8 41 173.4L40.9 173.2Z" fill="#231F20"/>
<path d="M96.9 101.8C95.5 104.9 94.2 107.9 92.8 111L89.9 117.5L88.9 119.8C88.9 120 88.4 120.7 88.4 120.9C88.4 121.2 89.6 121.6 89.8 121.8L94.4 124.4C98.6 126.8 102.8 129.2 107 131.6C109.8 133.2 112.5 134.7 115.2 136.3C115.4 136.4 116.2 135.5 116.3 135.6C109.8 131.9 103.3 128.2 96.8 124.5L91.7 121.6L90.1 120.7C90 120.7 89.4 120.4 89.4 120.3C89.4 120.2 89.5 119.9 89.6 119.8L90.4 118C91.3 116 92.2 114 93.1 112C94.7 108.4 96.3 104.8 97.9 101.1C97.8 101.4 96.9 101.4 96.8 101.8H96.9Z" fill="#231F20"/>
<path d="M96.5999 101.6C94.8999 105.3 93.2999 109 91.5999 112.7L89.2 118C88.9 118.7 88.6 119.4 88.2 120.1C88.1 120.4 87.9 120.7 88 121C88.3 121.7 89.9999 122.3 90.5999 122.6L96.0999 125.7C99.6999 127.7 103.3 129.8 106.9 131.8C108.9 132.9 110.9 134.1 113 135.3C113.6 135.6 114.7 136.6 115.4 136.6C115.9 136.6 116.1 136 116.5 135.9C116.8 135.9 117 135.4 116.7 135.2C109 130.8 101.3 126.4 93.5999 122.1C92.6999 121.6 91.8 121.1 90.9 120.6L90.0999 120.2C89.9999 119.9 90.3 119.4 90.5 119.1L93 113.5C94.8 109.4 96.6 105.4 98.4 101.4C98.6 101 98.1 100.6 97.8 101C97.5 101.4 97 101.3 96.7 101.7C96.4 102.1 96.9 102.6 97.2 102.2C97.5 101.9 98 101.9 98.3 101.5L97.7 101.1C95.8 105.4 93.8 109.8 91.9 114.1L90.5999 117.1C90.1999 118 89.4 119.1 89.3 120.1C89.2 121.1 90.7 121.5 91.4 121.9C99.7 126.6 108.1 131.4 116.4 136.1L116.6 135.4C116.4 135.4 116.3 135.4 116.1 135.6C116.1 135.6 115.9 135.7 115.8 135.8C115.6 136.1 115.4 136.1 115.1 135.9C114.7 135.9 114.2 135.4 113.8 135.2L112.1 134.2C109.9 133 107.8 131.8 105.6 130.5L93.4 123.6C92.4 123 91.4 122.5 90.5 121.9C90.2 121.7 89.8 121.6 89.5 121.4C89.3 121.4 89.2 121.2 89 121.2C88.7 121.1 88.7 120.9 89 120.6C89.2 119.8 89.7999 119 90.0999 118.3L91.4 115.3C93.4 110.9 95.3 106.6 97.2 102.2C97.4 101.8 96.7 101.4 96.5 101.8L96.5999 101.6Z" fill="#231F20"/>
<path d="M109.4 98.9C108.1 101.5 106.7 104.1 105.4 106.7C104.5 108.5 103.6 110.3 102.6 112.1L101.7 113.9C101.7 114 101.3 114.5 101.3 114.6C101.3 114.6 101.6 114.8 101.7 114.8L102.9 115.5L106.9 117.9C110.5 120 114.2 122.2 117.8 124.4C120.1 125.8 122.5 127.2 124.8 128.5C125 128.6 125.8 127.7 125.9 127.8C120.4 124.5 114.8 121.2 109.2 117.9L104.7 115.2L103.2 114.3C103 114.2 102.5 114 102.4 113.8C102.2 113.5 102.9 112.5 103.1 112.2L105.6 107.3C107.2 104.2 108.8 101.1 110.3 98.1C110.1 98.4 109.3 98.4 109.2 98.8L109.4 98.9Z" fill="#231F20"/>
<path d="M109 98.7C107.5 101.6 106 104.6 104.5 107.5L102.4 111.6C101.9 112.5 101.2 113.5 101 114.4C101 114.6 101 114.7 101.2 114.8C103.2 116.2 105.5 117.4 107.6 118.6L114.9 123L121.9 127.2L123.6 128.2C123.9 128.4 124.4 128.8 124.8 128.9C125.3 128.9 125.6 128.3 125.9 128.2C126.3 128.2 126.4 127.7 126.1 127.5C119.4 123.5 112.7 119.6 106 115.6C105.3 115.2 104.6 114.7 103.9 114.3C103.9 114.3 103.2 114 103.1 113.9C102.9 113.6 103.1 113.5 103.2 113.1C104 111.7 104.7 110.2 105.4 108.8C107.2 105.3 109 101.8 110.7 98.3C110.9 97.9 110.4 97.5 110.1 97.9C109.8 98.3 109.3 98.2 109 98.6C108.7 99 109.2 99.5 109.5 99.1C109.8 98.8 110.3 98.8 110.6 98.4L110 98C108.1 101.8 106.2 105.5 104.2 109.3C103.5 110.6 102.6 111.9 102.1 113.3C101.7 114.4 102.7 114.6 103.5 115.1C110.9 119.5 118.2 123.8 125.6 128.2L125.8 127.5C125.3 127.5 125.1 128.1 124.7 128.1C124.3 128.1 123.4 127.3 123 127.1L121.3 126.1L114.4 122L107.7 118C105.6 116.8 103.2 115.6 101.3 114.2L101.5 114.6C101.6 114.2 102 113.6 102.2 113.2L103.2 111.3L105.2 107.4C106.6 104.6 108.1 101.8 109.5 99C109.7 98.6 109.1 98.2 108.8 98.6L109 98.7Z" fill="#231F20"/>
<path d="M120.4 100.1C119.1 102 117.8 103.9 116.5 105.8L113.7 109.8L112.7 111.2C112.7 111.3 112.2 111.7 112.3 111.8C112.3 112 113.2 112.4 113.3 112.4L116.5 114.3L125.2 119.4C127.1 120.5 129 121.6 130.9 122.7C131.1 122.8 131.9 121.9 132 122C127.5 119.4 123.1 116.8 118.7 114.1L115.2 112L114.1 111.3C114.1 111.3 113.6 111.1 113.6 111C113.6 110.8 114.3 109.9 114.5 109.7C115.3 108.5 116.2 107.2 117.1 106C118.6 103.7 120.2 101.5 121.8 99.2C121.6 99.5 120.9 99.5 120.7 99.9L120.4 100.1Z" fill="#231F20"/>
<path d="M120.1 99.9C117.9 103.1 115.7 106.3 113.6 109.4C113.2 110 112.7 110.6 112.3 111.3C112.1 111.5 112 111.7 112.1 112C112.2 112.3 112.8 112.5 113 112.7C113.8 113.1 114.5 113.6 115.2 114C118.5 115.9 121.8 117.9 125 119.8C126.6 120.8 128.3 121.7 129.9 122.7C130.2 122.9 130.6 123.3 131 123.2C131.3 123.2 131.6 122.6 132 122.6C132.4 122.6 132.5 122.1 132.2 121.9C126.8 118.8 121.5 115.6 116.1 112.4C115.5 112 114.7 111.7 114.2 111.3C114 111.2 113.9 111.3 113.9 111.1C113.9 110.9 114.2 110.6 114.4 110.5C115.1 109.5 115.8 108.5 116.4 107.6C118.2 105 120 102.3 121.8 99.7C122 99.3 121.5 99 121.2 99.3C120.9 99.6 120.4 99.7 120.1 100C119.7 100.3 120.3 100.9 120.6 100.5C120.9 100.2 121.4 100.1 121.7 99.8L121.1 99.4C119.1 102.3 117.1 105.2 115.2 108C114.6 108.9 113.6 109.9 113.2 110.9C112.9 111.6 113.4 111.8 114 112.1C120 115.5 125.9 119.1 131.8 122.6L132 121.9C131.7 121.9 131.6 122 131.3 122.2C131 122.4 131 122.5 130.7 122.5C130.4 122.5 129.9 122 129.6 121.9C128.2 121.1 126.8 120.3 125.4 119.5C122.4 117.8 119.5 116 116.5 114.3L114.3 113C113.9 112.8 113.1 112.5 112.7 112.1C112.4 111.8 112.6 112.1 112.7 111.7C112.8 111.5 113 111.3 113.1 111.1L114.5 109.1C116.5 106.2 118.5 103.3 120.4 100.5C120.7 100.1 120 99.7 119.7 100.1L120.1 99.9Z" fill="#231F20"/>
<path d="M130.9 103.2C130.3 104.3 129.6 105.4 129 106.5L127.6 109C127.3 109.5 126.8 110.1 126.6 110.7C126.6 111 126.6 110.9 126.8 111.1L128.2 112.2L132.7 115.5C133.7 116.3 134.8 117.1 135.9 117.8C136.1 117.9 136.9 117 137 117.1C134.6 115.3 132.2 113.6 129.8 111.8L128.1 110.6C128 110.6 127.6 110.3 127.6 110.2C127.6 110.2 127.8 109.9 127.8 109.8L128.3 108.9L129.6 106.6C130.4 105.3 131.1 103.9 131.9 102.6C131.7 102.9 130.9 102.9 130.8 103.3L130.9 103.2Z" fill="#231F20"/>
<path d="M130.6 103C129.5 105 128.4 107 127.2 108.9C126.9 109.4 126.1 110.2 126.2 110.9C126.2 111.2 126.4 111.2 126.6 111.4C127.1 111.8 127.6 112.1 128 112.5C129.8 113.9 131.7 115.2 133.5 116.6L135 117.7C135.3 117.9 135.6 118.3 136 118.3C136.4 118.3 136.4 118.2 136.5 118C136.6 118 137.1 117.6 137 117.6C137.4 117.6 137.6 117.2 137.3 116.9C134.5 114.8 131.6 112.7 128.8 110.6C128.8 110.6 128.2 110.3 128.2 110.2C128.2 110.2 128.5 109.7 128.6 109.6L129.9 107.4C130.8 105.9 131.6 104.4 132.5 102.9C132.7 102.5 132.2 102.1 131.9 102.5C131.6 102.9 131.1 102.8 130.8 103.2C130.5 103.6 131 104.1 131.3 103.7C131.6 103.4 132.1 103.4 132.4 103L131.8 102.6C130.8 104.3 129.9 106 128.9 107.7C128.5 108.5 128 109.2 127.6 110C127.4 110.4 127.3 110.6 127.6 111C128.2 111.5 128.9 111.9 129.6 112.4L132 114.2C133.6 115.4 135.3 116.6 136.9 117.8L137.2 117.1C136.8 117.1 136.6 117.3 136.3 117.5C135.9 117.8 136 117.6 135.5 117.3L134.3 116.4C132.7 115.2 131 114 129.4 112.8L128.2 111.9C128 111.7 127.1 111.3 127 111C127 110.7 128 109.4 128.2 109C129.2 107.2 130.2 105.4 131.2 103.7C131.4 103.3 130.8 102.9 130.5 103.3L130.6 103Z" fill="#231F20"/>
<path d="M52 114.2C54.2 111.4 56.3 108.5 58.5 105.7L59.8 104C60 103.8 60 103.7 60.1 103.4C60.1 102.7 60.1 102 60.1 101.3V92.7C60.1 92.9 59 93.1 59 93.4V103.8C59 104.1 59 104.2 59 104.4C58.7 104.9 58.2 105.4 57.9 105.9L53.9 111.2C52.9 112.5 52 113.7 51 115C51.2 114.7 51.9 114.7 52.1 114.3L52 114.2Z" fill="#231F20"/>
<path d="M52.4 114.4C53.7 112.7 55 111 56.3 109.3C57.6 107.6 59.2 105.9 60.3 104.1C60.6 103.6 60.6 103 60.6 102.4C60.6 101.4 60.6 100.5 60.6 99.5V92.8C60.6 92.4 60.1 92.3 59.9 92.6C59.7 92.9 59 92.8 58.8 93.2C58.5 93.8 58.8 95.1 58.8 95.8V103.2C58.8 103.9 58.8 104.3 58.4 104.9C58.1 105.3 57.8 105.6 57.5 106C56.7 107 56 108 55.2 109C53.7 111 52.2 112.9 50.7 114.9C50.4 115.3 51 115.6 51.3 115.3C51.6 115 52.1 114.9 52.4 114.6C52.8 114.3 52.2 113.8 51.9 114.1C51.6 114.4 51.1 114.5 50.8 114.8L51.4 115.2C52.9 113.2 54.4 111.3 55.9 109.3C56.7 108.3 57.4 107.2 58.3 106.2C58.8 105.6 59.4 105 59.6 104.3C59.8 103.4 59.6 102.2 59.6 101.3V95.7C59.6 95.2 59.4 94.4 59.6 94C59.6 93.7 59.6 93.8 59.9 93.6C60 93.6 60.2 93.6 60.3 93.4C60.5 93.3 60.6 93.2 60.7 93.1L60 92.9V99C60 99.9 60 100.9 60 101.8C60 102.9 60 103.6 59.3 104.5C56.8 107.7 54.3 111 51.9 114.2C51.6 114.6 52.3 115 52.6 114.6L52.4 114.4Z" fill="#231F20"/>
<path d="M38.5 114.2C42.3 110.4 46 106.7 49.8 102.9L52.6 100.1C52.8 99.9 53.5 99.4 53.6 99.1C53.6 98.9 53.6 98.6 53.6 98.4L53.4 96.8L52.9 92C52.6 89.2 52.4 86.5 52.1 83.7C52.1 83.9 50.9 84.2 51 84.4C51.2 86.7 51.5 89 51.7 91.3C51.9 93 52 94.7 52.2 96.5C52.2 97.5 52.5 98.6 52.5 99.6C52.5 100 52.2 100.1 51.9 100.4L49.5 102.8C47.1 105.2 44.7 107.6 42.2 110C40.6 111.6 39 113.2 37.3 114.9C37.6 114.6 38.1 114.5 38.4 114.2H38.5Z" fill="#231F20"/>
<path d="M38.7 114.4C41.1 112 43.5 109.6 45.9 107.2C48.3 104.8 50.5 102.4 52.9 100.2C53.6 99.6 53.9 99.4 53.8 98.5C53.6 97 53.5 95.4 53.3 93.9C53 90.5 52.6 87.1 52.3 83.7C52.3 83.3 51.8 83.2 51.6 83.5C51.3 83.9 50.6 83.7 50.4 84.4C50.2 85 50.6 86.3 50.6 86.9L50.9 89.6L51.4 94.6C51.4 95.4 51.6 96.2 51.6 97C51.7 97.8 52.1 99.1 51.6 99.9C51.3 100.5 50.4 101 50 101.5L48.1 103.4L44.5 107C42 109.5 39.4 112.1 36.8 114.6C36.5 114.9 36.8 115.4 37.3 115.2C37.8 115 38.1 114.8 38.4 114.5C38.8 114.2 38.4 113.6 38 113.9C37.6 114.2 37.2 114.3 36.9 114.6L37.4 115.2C39.9 112.7 42.5 110.1 45.1 107.6L48.9 103.8L50.8 101.9C51.3 101.4 52.1 100.8 52.5 100.2C53.1 99.2 52.5 97.6 52.4 96.5C52.2 94.8 52.1 93.1 51.9 91.3L51.4 86.1C51.4 85.7 51.2 85.2 51.3 84.9C51.3 84.4 51.3 84.6 51.8 84.3C52 84.2 52.2 84.1 52.4 83.9L51.7 83.7C52 86.8 52.3 89.9 52.6 92.9C52.8 94.5 52.9 96 53.1 97.6C53.1 98.1 53.3 98.6 53.1 99C52.9 99.5 52.2 100 51.8 100.4C47.3 104.9 42.8 109.4 38.2 113.9C37.9 114.2 38.4 114.8 38.7 114.4Z" fill="#231F20"/>
<path d="M36.7 80.6C37.5 82.9 38.4 85.2 39.3 87.5L41.2 92.6L41.9 94.5C42 94.9 42.3 95.3 42.3 95.6C42.3 95.8 42.3 95.7 42.3 95.9C42.3 96.1 41.9 96.3 41.7 96.5L39.2 99L31.5 106.6C29.8 108.3 28.1 110 26.3 111.7C26.6 111.4 27.1 111.3 27.4 111C31.4 107.1 35.4 103.1 39.4 99.2L42.4 96.2C42.6 96 43.4 95.4 43.5 95.1C43.5 95 43.3 94.6 43.3 94.5L42.7 92.9C42.1 91.3 41.5 89.7 40.9 88.2C39.9 85.5 38.9 82.7 37.8 80C37.8 80 36.6 80.6 36.7 80.7V80.6Z" fill="#231F20"/>
<path d="M36.3 80.7C37.4 83.8 38.6 86.8 39.7 89.9C40.2 91.3 40.8 92.8 41.3 94.2C41.3 94.4 41.8 95.3 41.8 95.3C41.8 95.7 41.8 95.6 41.6 96C41.2 96.6 40.5 97.1 40 97.6C35.3 102.2 30.7 106.8 26 111.4C25.7 111.7 26 112.2 26.5 112C27 111.6 27.6 111.4 28.1 110.9C28.8 110.2 29.5 109.5 30.2 108.8L34.2 104.8C36.9 102.1 39.6 99.4 42.3 96.8C42.8 96.3 43.9 95.8 43.8 94.9C43.8 94.3 43.3 93.7 43.1 93.1L42.1 90.5C40.8 86.9 39.4 83.3 38.1 79.7C38.1 79.4 37.7 79.3 37.5 79.5C37.2 79.8 36.7 79.8 36.4 80.2C36.1 80.6 36.6 81.1 36.9 80.7C37.2 80.4 37.7 80.3 38 80L37.4 79.8C38.6 83 39.8 86.3 41 89.5C41.5 91 42.1 92.5 42.7 93.9C42.9 94.5 43.1 94.8 42.6 95.3C42.1 95.8 41.6 96.2 41.1 96.7C38.7 99.1 36.3 101.5 33.8 103.9L29.9 107.7L28.1 109.4C27.7 109.8 27.3 110.3 26.9 110.6C26.6 110.8 26.3 110.9 26 111.1L26.5 111.7C31.5 106.7 36.5 101.7 41.6 96.8C42.3 96.2 42.8 95.9 42.5 94.9C42 93.4 41.3 91.9 40.8 90.4C39.5 87 38.3 83.6 37 80.3C36.8 79.9 36.1 80.1 36.3 80.5V80.7Z" fill="#231F20"/>
<path d="M18.2 105.3C21.8 102.4 25.4 99.5 29 96.6L31.9 94.2L32.9 93.4C33 93.3 33.4 93.1 33.5 93C33.6 92.7 33.3 92.2 33.2 91.9L32 88.2C31.2 85.8 30.5 83.4 29.7 81.1C29.7 81.1 28.5 81.7 28.6 81.8C29.2 83.8 29.9 85.8 30.5 87.8C30.9 89.2 31.4 90.6 31.8 91.9L32.2 93.2C32.2 93.2 32.4 93.6 32.4 93.7C32.4 94 31.5 94.4 31.3 94.6L28.7 96.7L21.7 102.4C20.2 103.6 18.7 104.8 17.2 106.1C17.5 105.8 18 105.7 18.3 105.4L18.2 105.3Z" fill="#231F20"/>
<path d="M18.5 105.6C23.2 101.8 27.8 98 32.5 94.3C33 93.9 33.8 93.5 33.8 92.8C33.8 92.4 33.5 92 33.4 91.6C33.2 90.9 32.9 90.2 32.7 89.5C31.8 86.7 30.9 83.8 30 81C30 80.7 29.6 80.6 29.4 80.8C29.1 81.2 28.3 81.1 28.2 81.6C28.1 82 28.6 83 28.7 83.4L29.4 85.7L30.9 90.3C31.2 91.1 31.4 92 31.7 92.8C31.9 93.5 32 93.5 31.5 93.9C29.1 95.5 27 97.5 24.7 99.3C22.1 101.4 19.5 103.5 16.9 105.7C16.6 106 16.9 106.5 17.4 106.3C17.9 106.1 18.2 105.9 18.5 105.6C18.9 105.3 18.5 104.7 18.1 105C17.7 105.2 17.3 105.4 17 105.7L17.5 106.3C20.1 104.2 22.7 102.1 25.3 99.9L29 96.9C30.1 96 31.4 95.2 32.4 94.2C32.9 93.7 32.8 93.4 32.6 92.8C32.1 91.2 31.6 89.6 31.1 88L29.6 83.4C29.6 83.1 29.1 82.3 29.2 82C29.2 81.7 29 82 29.3 81.7C29.5 81.5 29.8 81.5 30.1 81.3L29.5 81.1L31.9 88.7L32.5 90.6C32.7 91.2 33.1 91.9 33.1 92.4C33.1 93.3 31.7 94 31 94.6C26.7 98.1 22.4 101.6 18.1 105.1C17.7 105.4 18.3 105.9 18.6 105.6H18.5Z" fill="#231F20"/>
<path d="M20.7 83.9C21.1 85.4 21.5 86.9 21.8 88.4L22.5 91.3C22.5 91.5 22.9 92.4 22.8 92.5C22.8 92.7 22 93 21.8 93.1L19.7 94.5L14.3 98.1L10.8 100.5C11.1 100.3 11.6 100.1 11.9 99.9C15.4 97.5 18.9 95.2 22.3 92.8L23.8 91.8C23.1 88.9 22.3 86 21.6 83.1C21.6 83.2 20.4 83.6 20.5 83.8L20.7 83.9Z" fill="#231F20"/>
<path d="M20.3 84C20.8 86 21.3 88 21.8 89.9C22 90.6 22.3 91.4 22.4 92.1C22.4 92.5 22.3 92.5 22 92.7C21.6 92.9 21.3 93.1 20.9 93.4C17.5 95.7 14.1 98 10.7 100.3C10.3 100.6 10.7 101.2 11.1 100.9C15.6 98.2 19.9 95.1 24.2 92.1C24.3 92 24.4 91.9 24.4 91.7C23.7 88.8 22.9 85.9 22.2 83C22.2 82.7 21.7 82.6 21.5 83C21.5 82.9 21.4 83 21.3 83C21.1 83 21 83.1 20.8 83.2C20.6 83.2 20.4 83.4 20.3 83.6C20.1 84 20.7 84.4 21 84C21 84 21.5 83.8 21.7 83.7C21.9 83.6 22.1 83.5 22.2 83.3H21.5C22.2 86.1 23 89 23.7 91.9L23.9 91.5C19.6 94.4 15.3 97.5 10.8 100.3L11.2 100.9C13.1 99.6 15 98.3 16.9 97C18.7 95.8 20.5 94.4 22.3 93.3C22.7 93.1 23.2 92.9 23.3 92.4C23.3 91.8 22.9 91 22.8 90.5C22.2 88.2 21.6 86 21.1 83.7C21 83.2 20.3 83.4 20.4 83.9L20.3 84Z" fill="#231F20"/>
<path d="M100.7 53.6C99.2 55.8 97.7 58 96.2 60.3L93 65.1L91.8 66.9C91.6 67.1 91.2 67.6 91.1 67.9C91.1 68.2 91.5 68.6 91.8 68.9C92.7 70 93.6 71 94.4 72L101.9 80.9C103.6 82.9 105.2 84.9 106.9 86.8L108 86.1C104.1 81.5 100.3 76.8 96.4 72.2L93.4 68.6L92.5 67.5C92.5 67.5 92.2 67.2 92.2 67.1C92.2 67 92.5 66.7 92.5 66.6L93.5 65.2C94.5 63.7 95.5 62.2 96.5 60.7C98.3 58.1 100 55.4 101.8 52.8C101.6 53.1 100.9 53.1 100.7 53.5V53.6Z" fill="#231F20"/>
<path d="M100.4 53.4C98.3001 56.5 96.2 59.7 94 62.9C93 64.3 92 65.7 91.1 67.1C90.4 68.1 91.1 68.6 91.8 69.4C96.8 75.3 101.6 81.2 106.5 87.1C106.5 87.2 106.7 87.2 106.9 87.2C107.3 87.2 107.6 86.7 108 86.5C108.3 86.5 108.3 86.1 108.2 85.9C103.6 80.4 99.0001 74.8 94.4001 69.3C93.9001 68.7 93.1 68 92.8 67.4C92.7 67.1 92.6 67.4 92.7 67.2C92.7 67 93.1 66.6 93.2 66.5C94.2 65 95.2 63.6 96.1 62.1C98.1 59.1 100.1 56.2 102.1 53.2C102.3 52.8 101.8 52.5 101.5 52.8C101.2 53.1 100.7 53.2 100.4 53.5C100 53.8 100.6 54.4 100.9 54C101.2 53.7 101.7 53.6 102 53.3L101.4 52.9C99.3001 56.1 97.1 59.3 95 62.4C94 63.9 92.9 65.3 92 66.8C91.5 67.6 92.2 68 92.8 68.7C97.7 74.6 102.7 80.6 107.6 86.5L107.8 85.9C107.5 85.9 107.2 86.4 106.9 86.4C106.6 86.4 106.7 86.4 106.4 85.9C106.1 85.5 105.8 85.1 105.5 84.8L101.8 80.3C99.4 77.4 96.9 74.5 94.5 71.5L92.9001 69.6C92.6001 69.2 92.3 68.9 92 68.5C91.6 67.9 91.4 67.8 91.8 67.3C92.8 66 93.6 64.6 94.6 63.2C96.7 60.1 98.8 56.9 101 53.7C101.3 53.3 100.6 52.9 100.3 53.3L100.4 53.4Z" fill="#231F20"/>
<path d="M110.8 51.9C109.5 54 108.1 56.2 106.8 58.3L104.6 61.9C104.3 62.3 104.1 62.4 104.5 62.8L117.2 74.6L121.8 78.9L122.9 78.2C119.2 74.7 115.4 71.2 111.7 67.8C109.8 66 107.9 64.2 106 62.5C105.9 62.4 105.5 62.2 105.5 62C105.5 61.9 105.5 62 105.5 61.8C105.6 61.4 106 61 106.2 60.7L107.3 58.9C108.9 56.4 110.4 53.9 112 51.4C111.8 51.7 111.1 51.7 110.9 52.1L110.8 51.9Z" fill="#231F20"/>
<path d="M110.4 51.7C108.4 54.8 106.5 57.9 104.6 61.1C103.9 62.2 103.6 62.4 104.6 63.4C106 64.8 107.5 66.1 108.9 67.5L117.2 75.3L119.3 77.3L120.3 78.3C120.5 78.5 121.1 79.2 121.3 79.3C122 79.6 122.1 78.8 122.7 78.7C123 78.7 123.2 78.3 123 78.1C118.4 73.8 113.8 69.5 109.1 65.2L107.5 63.7C107 63.3 106.3 62.8 105.9 62.2C105.9 62.2 105.6 61.9 105.7 62.1C105.7 61.9 106 61.5 106.1 61.4C106.5 60.8 106.8 60.3 107.2 59.7C108.9 57 110.5 54.4 112.2 51.7C112.4 51.3 111.9 51 111.6 51.3C111.3 51.6 110.8 51.7 110.5 52C110.1 52.3 110.7 52.9 111 52.5C111.3 52.2 111.8 52.1 112.1 51.8L111.5 51.4C109.7 54.3 107.9 57.1 106.2 60C105.9 60.6 104.8 61.6 104.9 62.3C104.9 62.6 105.2 62.7 105.4 62.9C106 63.5 106.6 64.1 107.3 64.6C112.3 69.3 117.4 74 122.4 78.7L122.7 78.1C122.5 78.1 122.3 78.2 122.1 78.3C122.1 78.3 121.6 78.7 121.5 78.7C121.4 78.7 121 78.1 120.9 78L117.2 74.6L109.8 67.7L106.2 64.3C105.8 63.9 104.6 63.1 104.6 62.6C104.6 62.2 105.6 61.1 105.8 60.7C107.5 57.9 109.3 55.1 111 52.3C111.3 51.9 110.6 51.5 110.3 51.9L110.4 51.7Z" fill="#231F20"/>
<path d="M119.3 52.2C118.3 53.9 117.3 55.6 116.4 57.3L114.7 60.3C114.7 60.4 114.3 60.8 114.4 60.9C114.4 60.9 114.4 60.9 114.6 61C115 61.4 115.7 61.8 116.2 62.1L119 64.2C121.2 65.8 123.4 67.4 125.5 69C126.8 70 128.2 71 129.5 72C129.7 72.1 130.5 71.2 130.6 71.3C127.4 68.9 124.1 66.5 120.8 64.1L115.9 60.5C115.6 60.3 115.5 60.3 115.6 60C115.9 59.1 116.6 58.3 117 57.5C118.2 55.5 119.3 53.5 120.5 51.5C120.3 51.8 119.5 51.8 119.4 52.2H119.3Z" fill="#231F20"/>
<path d="M119 52C117.5 54.7 116 57.5 114.4 60.1C114 60.7 113.9 61 114.4 61.5C115.4 62.4 116.5 63 117.6 63.8L125.4 69.5C126.6 70.4 127.8 71.5 129.1 72.2C129.4 72.3 129.5 72.4 129.8 72.2C130 72.2 130.4 71.6 130.6 71.6C131 71.6 131.1 71.1 130.8 70.9C127 68.1 123.1 65.2 119.3 62.4C118.4 61.7 117.5 61 116.5 60.3C115.9 59.9 116 60 116.4 59.3C116.7 58.8 117 58.4 117.3 57.9C118.6 55.8 119.7 53.7 120.9 51.6C121.1 51.2 120.6 50.8 120.3 51.2C120 51.5 119.5 51.5 119.2 51.9C118.9 52.3 119.4 52.8 119.7 52.4C120 52.1 120.5 52.1 120.8 51.7L120.2 51.3C118.9 53.6 117.6 56 116.2 58.2C115.9 58.7 115 59.7 115.3 60.4C115.3 60.6 115.6 60.7 115.8 60.8C116.3 61.2 116.9 61.6 117.4 62C121.7 65.2 126.1 68.4 130.4 71.6L130.6 70.9C130.4 70.9 130.2 71 130 71.2C129.9 71.2 129.7 71.5 129.6 71.5C129.3 71.5 129.3 71.5 129 71.2C128 70.4 126.9 69.7 125.9 68.9L118.9 63.7C117.9 62.9 116.9 62.2 115.8 61.5C115.6 61.4 114.7 60.9 114.7 60.6C114.7 60.9 115 60.4 115 60.4C115.2 60.2 115.3 59.8 115.5 59.6C116.9 57.2 118.3 54.7 119.7 52.3C119.9 51.9 119.3 51.5 119 51.9V52Z" fill="#231F20"/>
<path d="M132.3 54.5C130.7 56.7 129 58.9 127.4 61.2L128.5 60.5C122.9 59.7 117 59.9 111.3 60.6C101.1 62 90.7 66.2 83.6 73.9C82.4 75.2 81.4 76.6 80.3 78C79.5 79.1 78.7 80.3 78 81.5C77.4 82.5 76.9 83.5 76.7 84.6C76.7 84.3 77.8 84.2 77.8 83.9C78.1 81.9 79.5 80 80.6 78.4C81.7 76.8 82.8 75.3 84.1 73.8C87.3 70 91.4 67 96 65C104 61.4 113 60.2 121.7 60.5C123.6 60.5 125.5 60.7 127.3 60.9C127.5 60.9 128.3 60.4 128.4 60.2C130 58 131.7 55.8 133.3 53.5C133.1 53.8 132.4 53.8 132.2 54.2L132.3 54.5Z" fill="#231F20"/>
<path d="M132 54.3C130.4 56.5 128.7 58.7 127.1 61C126.9 61.3 127.3 61.7 127.6 61.5L128.7 60.8C128.9 60.7 128.9 60.2 128.7 60.1C120.4 58.9 111.6 59.6 103.5 61.9C96.2 64 89.3 67.6 84 73.1C82.5 74.7 81.1 76.5 79.8 78.3C78.4 80.2 76.9 82.3 76.4 84.6C76.4 85 76.8 85.2 77.1 84.9C77.4 84.6 78 84.7 78.2 84.2C78.4 83.9 78.4 83.3 78.6 82.9C78.8 82.3 79.1 81.7 79.5 81.1C80.8 78.9 82.3 76.9 83.9 74.9C86.8 71.3 90.4 68.3 94.6 66.2C103.4 61.7 113.7 60.6 123.4 61.1C124.1 61.1 124.8 61.1 125.5 61.2C126.1 61.2 126.8 61.5 127.4 61.4C127.9 61.4 128.4 61 128.7 60.7C129.6 59.9 130.2 58.6 131 57.6C131.9 56.4 132.8 55.1 133.7 53.9C134 53.5 133.4 53.2 133.1 53.5C132.8 53.8 132.3 53.9 132 54.2C131.6 54.5 132.2 55.1 132.5 54.7C132.8 54.4 133.3 54.3 133.6 54L133 53.6C131.5 55.7 130 57.9 128.4 59.9C127.6 60.8 127 60.7 125.9 60.6C124.6 60.5 123.2 60.4 121.9 60.4C117.1 60.2 112.3 60.5 107.6 61.4C98.8 63 89.9 66.6 84 73.7C82.3 75.7 80.7 77.8 79.3 80C78.7 81 78.1 82 77.7 83.1C77.7 83.4 77.6 83.7 77.4 83.9C77.2 84.1 77.1 84.1 76.8 84.3C76.6 84.4 76.5 84.5 76.3 84.7L77 85C77.4 83 78.7 81.1 79.9 79.4C81.1 77.7 82.3 76.1 83.6 74.5C86.1 71.7 89 69.4 92.3 67.5C98.7 63.7 106 61.7 113.4 60.9C118.4 60.3 123.4 60.3 128.3 61V60.3L127.1 61L127.6 61.5C129.2 59.3 130.9 57.1 132.5 54.8C132.8 54.4 132.1 54 131.8 54.4L132 54.3Z" fill="#231F20"/>
<path d="M135.1 66.5C133.2 64.8 131.3 63 129.4 61.3C129.1 61.1 128.9 60.8 128.6 60.6C128.6 60.6 128.1 60.9 128 60.9C128 60.9 127.5 61.3 127.4 61.2C129.3 62.9 131.2 64.7 133.1 66.4C133.4 66.6 133.6 66.9 133.9 67.1C133.9 67.1 134.4 66.8 134.5 66.8C134.5 66.8 135 66.4 135.1 66.5Z" fill="#231F20"/>
<path d="M135.3 66.2C133.7 64.7 132.1 63.2 130.4 61.8L129.3 60.8C129.1 60.6 128.8 60.2 128.4 60.2C128.2 60.2 128 60.4 127.8 60.6L127.6 60.7C127.6 60.7 127.5 60.7 127.4 60.8C127.1 60.8 126.9 61.2 127.1 61.4C128.7 62.9 130.3 64.4 132 65.8L133.1 66.8C133.3 67 133.6 67.4 134 67.4C134.2 67.4 134.4 67.2 134.6 67L134.8 66.9C134.8 66.9 134.9 66.9 135 66.8C135.5 66.8 135.5 66 135 66C134.7 66 134.5 66.2 134.3 66.4C134.3 66.4 134.1 66.4 134.1 66.5C134.1 66.5 134 66.5 133.9 66.6H134.2C132 64.7 129.9 62.7 127.7 60.8L127.4 61.4C127.7 61.4 127.9 61.2 128.1 61C128.1 61 128.3 61 128.3 60.9C128.3 60.9 128.4 60.9 128.5 60.8H128.2C130.4 62.7 132.5 64.7 134.7 66.6C135.1 66.9 135.6 66.4 135.2 66.1L135.3 66.2Z" fill="#231F20"/>
<path d="M112.3 1.49996C112.1 4.89996 112 8.29996 111.8 11.7C111.8 12.1 111.8 12 112 12.2C112.5 12.5 113.2 12.7 113.8 13C115.8 13.9 117.8 14.8 119.9 15.7C121.3 16.3 122.7 17 124.2 17.6C124.4 17.7 125.1 16.8 125.3 16.9C122.1 15.5 118.9 14 115.7 12.6L113.6 11.7C113.4 11.6 113.1 11.6 113.1 11.4C113.1 11.2 113.1 10.9 113.1 10.7V9.49996L113.3 6.19996C113.3 4.39996 113.5 2.59996 113.5 0.899963C113.5 1.09996 112.4 1.29996 112.4 1.59996L112.3 1.49996Z" fill="#231F20"/>
<path d="M112 1.49998C111.9 4.09998 111.8 6.69998 111.6 9.29998V11.3C111.5 11.6 111.4 12 111.6 12.3C111.9 13 113.1 13.2 113.7 13.5C116 14.5 118.4 15.6 120.7 16.6L122.5 17.4C123 17.6 123.6 18 124.1 18.1C124.7 18.1 124.9 17.4 125.3 17.4C125.6 17.4 125.8 16.9 125.5 16.7C121.8 15.1 118.2 13.4 114.5 11.8C114.2 11.7 113.5 11.5 113.4 11.1C113.4 10.8 113.4 10.3 113.4 9.99998V7.09998C113.6 4.99998 113.7 2.99998 113.8 0.999981C113.8 0.599981 113.3 0.499984 113.1 0.799984C112.9 1.09998 112.1 0.999981 112 1.49998C111.9 1.99998 112.5 2.29998 112.7 1.89998C112.9 1.59998 113.6 1.69998 113.8 1.19998L113.1 0.999981C113.1 3.19998 112.9 5.39998 112.8 7.59998C112.8 8.69998 112.8 9.69998 112.6 10.8C112.6 11.4 112.6 11.8 113.1 12.1C115 13.1 117 13.8 118.9 14.7C121 15.6 123 16.5 125.1 17.5L125.3 16.8C124.7 16.8 124.5 17.5 123.9 17.3C122.8 17 121.7 16.3 120.7 15.9L114.5 13.1C114 12.9 112.5 12.5 112.3 12C112.1 11.6 112.3 10.7 112.3 10.3V8.59998L112.7 1.69998C112.7 1.19998 112 1.19998 111.9 1.69998L112 1.49998Z" fill="#231F20"/>
<path d="M104.1 2.3V16.5C104.1 16.8 104 17.3 104.2 17.5C104.4 17.7 104.7 17.7 104.9 17.8L106.2 18.4C108.9 19.6 111.7 20.8 114.4 21.9C116.4 22.7 118.4 23.6 120.3 24.4C120.5 24.5 121.2 23.6 121.4 23.7C117 21.8 112.5 19.9 108.1 18L105.5 16.9C105.1 16.7 105.1 16.8 105.1 16.3V1.5C105.1 1.7 104 1.9 104 2.2L104.1 2.3Z" fill="#231F20"/>
<path d="M103.8 2.30002V15.2C103.8 15.9 103.6 16.7 103.8 17.4C104 18.3 105.3 18.4 106 18.7C109.1 20 112.3 21.4 115.4 22.7C116.9 23.4 118.4 24 119.9 24.6C120.3 24.8 120.4 24.9 120.8 24.8C121.1 24.8 121.4 24.2 121.6 24.2C121.9 24.2 122.1 23.7 121.8 23.5C116.7 21.3 111.6 19.1 106.4 16.9C106 16.7 105.7 16.7 105.6 16.4C105.4 15.9 105.6 14.9 105.6 14.3V1.60002C105.6 1.20002 105.1 1.10002 104.9 1.40002C104.7 1.70002 104 1.60002 103.8 2.10002C103.6 2.60002 104.2 2.90002 104.5 2.50002C104.7 2.20002 105.4 2.20002 105.6 1.80002L104.9 1.60002V15C104.9 15.7 104.6 16.7 105.2 17.2C105.6 17.5 106.3 17.7 106.8 17.9L108.7 18.7L112.9 20.5C115.7 21.7 118.6 22.9 121.4 24.2L121.6 23.5C121.3 23.5 121.2 23.6 121 23.8C120.4 24.2 120.4 24.1 119.7 23.8C118.3 23.2 116.9 22.6 115.6 22C112.7 20.8 109.9 19.5 107 18.3C106.4 18.1 105.8 17.8 105.3 17.6C104.8 17.4 104.6 17.2 104.6 16.6C104.6 15 104.6 13.5 104.6 11.9V2.30002C104.6 1.80002 103.8 1.80002 103.8 2.30002Z" fill="#231F20"/>
<path d="M96.5 4.70004C96.6 10.6 96.8 16.4 96.9 22.3V23.9C96.9 24 96.9 24.5 96.9 24.6C96.9 24.6 97.2 24.6 97.3 24.7L98.5 25.1L108.4 28.2C111 29 113.6 29.8 116.2 30.6C116.5 30.6 117.1 29.8 117.3 29.9C111.7 28.2 106.1 26.4 100.5 24.7L98.8 24.2C98.6 24.2 98.1 24.1 98 24C97.8 23.8 98 22.9 98 22.6C98 19.2 97.8 15.8 97.8 12.4C97.8 9.60004 97.7 6.90004 97.6 4.10004C97.6 4.30004 96.4 4.50004 96.5 4.80004V4.70004Z" fill="#231F20"/>
<path d="M96.1 4.70002C96.1 8.80002 96.3 12.8 96.4 16.9C96.4 18.9 96.4 20.9 96.5 22.9C96.5 23.8 96.2 24.7 97.2 25C101 26.3 105 27.4 108.8 28.6C110.6 29.2 112.5 29.7 114.3 30.3C114.8 30.5 115.8 31 116.4 30.9C116.8 30.9 117.1 30.3 117.4 30.2C117.8 30.2 117.9 29.6 117.4 29.5C114.1 28.5 110.9 27.5 107.6 26.5L102.7 25L100.4 24.3C99.9 24.2 98.9 24.1 98.5 23.8C98.1 23.5 98.3 22.6 98.3 22.1C98.3 21.3 98.3 20.5 98.3 19.7V14.6C98.1 11.1 98 7.60002 97.9 4.10002C97.9 3.70002 97.4 3.60002 97.2 3.90002C97 4.20002 96.3 4.10002 96.1 4.60002C95.9 5.10002 96.5 5.40002 96.8 5.00002C97 4.70002 97.7 4.70002 97.9 4.30002L97.2 4.10002C97.2 7.80002 97.4 11.6 97.5 15.3V21.1C97.7 21.8 97.3 23.6 97.9 24.2C98.1 24.4 98.4 24.5 98.7 24.5C99.5 24.7 100.2 25 101 25.2L106.4 26.9C110.1 28 113.7 29.2 117.4 30.3V29.6C117.2 29.6 117 29.8 116.8 30C116.1 30.4 115.2 30 114.4 29.7C112.7 29.2 111 28.7 109.4 28.1C105.9 27 102.3 25.9 98.8 24.8C98 24.6 97.5 24.6 97.4 23.8C97.4 23 97.4 22.2 97.4 21.4V16C97.2 12.3 97.1 8.50002 97 4.80002C97 4.30002 96.2 4.30002 96.2 4.80002L96.1 4.70002Z" fill="#231F20"/>
<path d="M89.9 8.69998C90.6 14.8 91.3 20.8 92 26.9L92.4 30.2C92.4 30.7 92.7 30.6 93.2 30.8C96.4 31.7 99.6 32.7 102.8 33.6C105.6 34.4 108.4 35.3 111.3 36.1C111.6 36.1 112.2 35.4 112.4 35.4C106.6 33.7 100.8 32 95.1 30.2C94.8 30.2 93.8 30 93.6 29.7C93.5 29.5 93.6 29 93.6 28.8L93.4 27.1C93 23.4 92.5 19.7 92.1 16C91.8 13.3 91.5 10.5 91.1 7.79999C91.1 7.99999 89.9 8.29998 90 8.49998L89.9 8.69998Z" fill="#231F20"/>
<path d="M89.5 8.70001C90 12.9 90.5 17 91 21.2L91.7 27.3C91.8 28.2 91.8 29.3 92 30.2C92 30.6 92.2 30.8 92.5 30.9C93 31.2 93.8 31.3 94.5 31.5L97.5 32.4L103.2 34.1L109.3 35.9C109.9 36.1 110.8 36.6 111.4 36.5C111.8 36.5 112.1 35.9 112.4 35.8C112.8 35.8 112.9 35.2 112.4 35.1C109 34.1 105.5 33 102.1 32L97.2 30.5C96.4 30.3 95.7 30 94.9 29.8C94.1 29.6 93.9 29.4 93.8 28.6C93.2 21.7 92.2 14.8 91.4 7.90001C91.4 7.50001 90.9 7.40001 90.7 7.70001C90.5 8.00001 89.8 7.90001 89.6 8.40001C89.4 8.90001 90 9.20001 90.3 8.80001C90.5 8.50001 91.2 8.50001 91.4 8.10001L90.7 7.90001C91.2 11.7 91.6 15.6 92.1 19.5L92.8 25.3L93.1 28.1C93.1 28.6 93.1 29.3 93.3 29.7C93.6 30.5 94.8 30.6 95.5 30.8C97.4 31.3 99.3 31.9 101.1 32.5C104.9 33.6 108.6 34.7 112.3 35.8V35.1C112.1 35.1 111.9 35.3 111.7 35.5C111 35.9 110 35.5 109.3 35.2L103.9 33.6C100.5 32.6 97 31.5 93.6 30.5C92.6 30.2 92.7 29.2 92.6 28.3L92.3 25.6L91.6 19.9C91.2 16.1 90.7 12.4 90.3 8.60001C90.3 8.10001 89.5 8.10001 89.5 8.60001V8.70001Z" fill="#231F20"/>
<path d="M83.5 15.4C84.5 21.2 85.4 27 86.4 32.7L87.2 37.3L87.4 38.8C87.4 39 87.4 39.4 87.5 39.6C87.7 39.9 88.8 39.8 89.1 39.9L94.2 40.5C97.3 40.9 100.4 41.3 103.5 41.6C103.8 41.6 104.3 40.9 104.6 40.9C102 40.6 99.4 40.3 96.8 40L91.3 39.3L89.5 39.1C89.3 39.1 88.8 39.1 88.7 39.1C88.5 38.9 88.5 37.9 88.4 37.6L87.7 33.5L85.8 22.2C85.4 19.8 85 17.3 84.6 14.9C84.6 15 83.4 15.4 83.5 15.6V15.4Z" fill="#231F20"/>
<path d="M83.1 15.5C83.8 19.6 84.4 23.7 85.1 27.8C85.4 29.8 85.8 31.8 86.1 33.8C86.4 35.6 86.5 37.6 87 39.4C87.2 40.3 88 40.2 88.8 40.2C90.6 40.3 92.4 40.6 94.2 40.8L100.5 41.6C101.4 41.7 102.5 42.1 103.4 41.9C103.9 41.9 104.2 41.3 104.6 41.2C105.1 41.2 104.9 40.5 104.6 40.5C101.1 40.1 97.6 39.7 94 39.2C92.5 39 90.8 39 89.3 38.6C88.6 38.5 88.8 38.2 88.7 37.5C88.6 36.8 88.5 36.3 88.4 35.6C87.2 28.5 86.1 21.5 84.9 14.4C84.9 14.1 84.4 14.1 84.2 14.4C84 14.7 83.3 14.7 83.1 15.1C82.9 15.5 83.5 15.9 83.8 15.5C84 15.2 84.7 15.2 84.9 14.8H84.2C84.9 18.6 85.5 22.5 86.1 26.5C86.7 30.5 87.5 34 87.9 37.7C87.9 38.3 87.9 39.1 88.6 39.4C89.1 39.6 89.8 39.5 90.3 39.6L93.1 39.9C96.9 40.4 100.8 40.8 104.6 41.3V40.6C103.9 40.7 103.8 41.2 103 41.2C102.1 41.2 101.2 41 100.3 40.9L94.7 40.2C92.9 40 91.2 39.7 89.4 39.6C88.8 39.6 88.1 39.6 87.8 39.2C87.6 38.8 87.6 37.9 87.5 37.4C86.3 30.1 85.1 22.8 83.9 15.5C83.9 15 83.1 15.2 83.2 15.7L83.1 15.5Z" fill="#231F20"/>
<path d="M24 50.6C26.4 48.4 28.9 46.3 31.3 44.1C32.4 43.1 33.7 42.2 34.7 41.1C34.9 40.8 34.9 40.9 34.7 40.5L33.7 38.2C33 36.5 32.3 34.9 31.6 33.2C31.6 33.2 30.4 33.8 30.5 33.9C31.1 35.3 31.7 36.7 32.3 38.2L33.4 40.8C33.5 41 33.8 41.4 33.7 41.6C33.6 41.9 32.9 42.3 32.7 42.5L30.8 44.2C29.2 45.6 27.6 47.1 25.9 48.5C24.9 49.4 23.9 50.3 22.9 51.2C23.2 50.9 23.7 50.8 24 50.5V50.6Z" fill="#231F20"/>
<path d="M24.3 50.9C27.5 48.1 30.6 45.4 33.8 42.6C34.2 42.2 35.1 41.7 35.2 41.1C35.3 40.5 34.7 39.7 34.5 39.2C33.7 37.2 32.8 35.2 31.9 33.2C31.9 33 31.5 33 31.3 33.2C31 33.5 30.4 33.5 30.2 33.9C30.1 34.1 30.1 34.2 30.2 34.3C31 36.1 31.7 37.9 32.5 39.7C32.7 40.2 33 40.7 33.1 41.1C33.3 41.6 33.1 41.8 32.8 42.1C32.2 42.5 31.7 43 31.1 43.5C28.3 46 25.4 48.5 22.6 51C22.3 51.3 22.7 51.8 23.1 51.6C23.5 51.4 23.9 51.2 24.2 50.9C24.6 50.6 24.2 50 23.8 50.2C23.4 50.5 23 50.6 22.7 50.9L23.2 51.5C26.4 48.7 29.5 45.8 32.7 43.1C33.1 42.8 33.8 42.4 34 41.9C34.2 41.3 33.7 40.7 33.5 40.2C32.6 38.1 31.7 36 30.8 33.8V34.2C31 33.9 31.6 33.8 31.9 33.5H31.3C32 35.1 32.8 36.9 33.5 38.6C33.7 39.2 34.5 40.4 34.3 40.9C34.1 41.2 33.6 41.6 33.4 41.8C33 42.1 32.7 42.4 32.3 42.7C29.4 45.1 26.6 47.7 23.8 50.2C23.4 50.5 24 51.1 24.3 50.7V50.9Z" fill="#231F20"/>
<path d="M27.5 56.1C30.8 53.4 34.1 50.7 37.4 48L42.8 43.6C43 43.5 43.5 43.2 43.6 43C43.6 42.9 43.4 42.4 43.3 42.3L42.7 40.7C41.8 38.3 41 36 40.1 33.6C40.1 33.6 38.9 34.2 39 34.3L41.2 40.4C41.6 41.4 42 42.4 42.3 43.5C42.3 43.9 42.3 43.8 42 44.1C38.1 47.3 34.2 50.5 30.3 53.7C29 54.8 27.6 55.9 26.3 57C26.6 56.7 27.1 56.6 27.4 56.3L27.5 56.1Z" fill="#231F20"/>
<path d="M27.7 56.3C32.2 52.6 36.8 48.9 41.3 45.1C41.8 44.7 42.3 44.2 42.9 43.8C43.1 43.6 43.6 43.4 43.7 43.1C44 42.6 43.7 42 43.5 41.5C42.5 38.7 41.5 36 40.5 33.2C40.5 33 40.1 32.8 39.9 33C39.6 33.3 38.9 33.3 38.7 33.7C38.5 34.1 38.9 34.7 39.1 35.1L39.9 37.3C40.4 38.7 40.9 40.1 41.4 41.5C41.6 42 42.1 42.9 41.9 43.4C41.6 43.8 40.8 44.3 40.4 44.6C35.7 48.5 30.9 52.4 26.2 56.3C25.9 56.6 26.2 57.1 26.7 56.9C27.2 56.7 27.5 56.5 27.8 56.2C28.2 55.9 27.8 55.3 27.4 55.6C27 55.8 26.6 56 26.3 56.3L26.8 56.9C31.6 53 36.4 49 41.2 45.1C41.7 44.7 42.9 44.2 42.9 43.4C42.9 42.8 42.5 42.1 42.3 41.6C42.1 40.9 41.8 40.3 41.5 39.7C41 38.3 40.5 36.8 39.9 35.4C39.9 35.4 39.4 34.2 39.4 34.4C39.4 34.4 39.7 34.2 39.8 34.2C40 34.1 40.3 34 40.5 33.8L39.9 33.6L42.6 40.9C42.8 41.4 43.1 41.9 43.1 42.4C43.1 42.9 43.1 43 42.7 43.3C41.8 44.1 40.7 44.9 39.8 45.7C35.7 49.1 31.5 52.5 27.4 55.9C27 56.2 27.6 56.7 27.9 56.4L27.7 56.3Z" fill="#231F20"/>
<path d="M35.5 63.3C39 59.8 42.5 56.3 46.1 52.8L52.3 46.6L53.1 45.8C53.1 45.8 53.5 45.5 53.5 45.4C53.6 45 53.1 44 53 43.6C52.2 40.7 51.3 37.8 50.4 35C50.4 35 49.2 35.6 49.3 35.7C50 38.2 50.8 40.7 51.5 43.2L52.1 45.2C52.1 45.4 52.4 45.9 52.4 46.1C52.4 46.4 51.8 46.8 51.6 46.9C47.3 51.2 42.9 55.5 38.6 59.8C37.2 61.2 35.8 62.6 34.4 64C34.7 63.7 35.2 63.6 35.5 63.3Z" fill="#231F20"/>
<path d="M35.8 63.6C40.6 58.8 45.5 54 50.3 49.2C51.4 48.1 52.5 47.1 53.5 46C54.2 45.3 53.9 44.8 53.5 44C52.4 41 51.7 37.9 50.8 34.9C50.8 34.7 50.4 34.5 50.2 34.7C49.9 35.1 49.1 35 49 35.6C49 36.1 49.5 37.3 49.6 37.8L50.4 40.4C50.9 42 51.4 43.6 51.8 45.2C52 45.9 52 46 51.4 46.5C50.8 47.1 50.2 47.7 49.6 48.3C44.4 53.4 39.3 58.5 34.1 63.7C33.8 64 34.1 64.5 34.6 64.3C35.1 64.1 35.4 63.9 35.7 63.6C36.1 63.3 35.7 62.7 35.3 63C34.9 63.3 34.5 63.4 34.2 63.7L34.7 64.3C40 59.1 45.3 53.8 50.6 48.6C51.1 48.1 51.7 47.5 52.3 47C52.5 46.8 52.9 46.6 53 46.2C53.1 45.8 52.9 45.5 52.8 45.2C52.6 44.5 52.4 43.8 52.2 43.1C51.7 41.4 51.2 39.7 50.7 37.9C50.6 37.4 50.4 37 50.3 36.5C50.1 36 50 36 50.3 35.7C50.5 35.5 51 35.5 51.2 35.2L50.6 35C51.4 37.9 52.2 40.8 53.2 43.6C53.3 44 53.7 44.6 53.7 44.9C53.7 45.4 52.9 45.9 52.5 46.2L49.2 49.5C44.7 54 40.2 58.4 35.7 62.9C35.4 63.2 35.9 63.8 36.2 63.4L35.8 63.6Z" fill="#231F20"/>
<path d="M44.8 66C48.5 62.7 52.1 59.3 55.8 56C57.8 54.2 59.7 52.4 61.7 50.7C61.9 50.5 62.4 50.2 62.5 49.9C62.5 49.7 62.5 49.1 62.4 48.9L62.2 47C61.8 44.1 61.5 41.2 61.1 38.4C61.1 38.6 59.9 38.9 60 39.1C60.3 41.6 60.6 44 60.9 46.5L61.4 50.3C61.4 50.8 61.4 50.8 61 51.1C56.7 55 52.5 58.9 48.2 62.7C46.7 64.1 45.2 65.4 43.7 66.8C44 66.5 44.5 66.4 44.8 66.1V66Z" fill="#231F20"/>
<path d="M45 66.2C49.8 61.8 54.7 57.4 59.5 53L61.2 51.5C61.6 51.1 62.3 50.7 62.6 50.3C63.1 49.6 62.6 48.6 62.6 47.9C62.2 44.7 61.8 41.5 61.4 38.3C61.4 37.9 60.9 37.8 60.7 38.1C60.4 38.5 59.7 38.3 59.5 38.9C59.3 39.5 59.7 40.7 59.8 41.4L60.1 43.9L60.7 49C60.7 49.8 61 50.3 60.4 50.9C59.7 51.5 59.1 52.1 58.4 52.7C53.4 57.3 48.3 61.8 43.3 66.4C43 66.7 43.3 67.2 43.8 67C44.3 66.8 44.6 66.6 44.9 66.3C45.3 66 44.9 65.4 44.5 65.7C44.1 65.9 43.7 66.1 43.4 66.4L43.9 67C49.1 62.3 54.2 57.6 59.4 52.9C60.1 52.3 61.5 51.5 61.7 50.5C61.8 49.8 61.5 48.9 61.5 48.3L61.2 45.9C61 44.1 60.7 42.3 60.5 40.5C60.5 40.2 60.3 39.6 60.3 39.3C60.3 39 60.4 39.1 60.7 39C61 38.9 61.2 38.8 61.4 38.5L60.7 38.3C61.1 41.3 61.4 44.2 61.8 47.2C61.8 47.8 61.9 48.4 62 49C62.1 49.7 62 49.9 61.5 50.3C60.4 51.4 59.2 52.4 58.1 53.4C53.6 57.5 49 61.6 44.5 65.8C44.1 66.1 44.7 66.7 45 66.3V66.2Z" fill="#231F20"/>
<path d="M55.5 66.4C58.6 63.4 61.8 60.4 64.9 57.5L66.8 55.7C67.1 55.4 67.1 55.4 67.1 55.1C67.1 52.8 66.8 50.6 66.7 48.3C66.6 46 66.4 44 66.3 41.9C66.3 42.1 65.1 42.4 65.2 42.6C65.5 46.8 65.7 51.1 66 55.4C66 55.7 66.1 56 66 56.3C65.6 56.8 64.9 57.3 64.5 57.8C62.5 59.7 60.6 61.5 58.7 63.4C57.3 64.7 55.9 66.1 54.5 67.4C54.8 67.1 55.3 67 55.6 66.7L55.5 66.4Z" fill="#231F20"/>
<path d="M55.8 66.6C57.7 64.8 59.7 62.9 61.6 61.1C63.5 59.3 65.6 57.7 67.3 55.7C67.8 55.1 67.6 54.4 67.6 53.7C67.6 52.4 67.4 51.1 67.3 49.8C67.1 47.1 66.9 44.4 66.8 41.7C66.8 41.3 66.3 41.2 66.1 41.5C65.9 41.8 65.2 41.7 65 42.2C64.8 42.5 65 43.2 65 43.6V45.8C65.3 48.8 65.5 51.8 65.7 54.9C65.7 56.3 64.6 56.9 63.7 57.7L60.6 60.6C58.4 62.6 56.3 64.7 54.1 66.7C53.8 67 54.1 67.5 54.6 67.3C55.1 67.1 55.4 66.9 55.7 66.6C56.1 66.3 55.7 65.7 55.3 66C54.9 66.3 54.5 66.4 54.2 66.7L54.7 67.3C56.9 65.3 59 63.2 61.2 61.2C62.3 60.2 63.4 59.1 64.5 58.1C65.1 57.5 66.3 56.9 66.5 56C66.8 55 66.5 53.5 66.3 52.5L66 47.8C66 46.3 65.8 44.9 65.7 43.4C65.7 42.6 65.7 42.7 66.2 42.3C66.4 42.2 66.6 42.1 66.7 41.9L66 41.7C66.2 44.2 66.3 46.6 66.5 49.1C66.5 50.4 66.7 51.7 66.8 53C66.8 53.5 66.9 54 66.8 54.5C66.8 55.3 66.5 55.4 65.9 56C62.3 59.4 58.7 62.8 55.2 66.2C54.9 66.5 55.4 67.1 55.7 66.7L55.8 66.6Z" fill="#231F20"/>
</svg>
