<svg width="118" height="265" viewBox="0 0 118 265" fill="none" xmlns="http://www.w3.org/2000/svg">
<path d="M48.9 263.1C52.7 235.8 56.1 208.4 58.1 181C59.4 163.6 60 146 59.2 128.6C58.6 115.6 57 102.7 54.9 89.8C53.7 82.2 52.2 74.6 51 66.9C49.2 54.9 48.2 42.6 49.3 30.4C49.8 24.6 50.8 18.6 52.9 13.1C53.1 12.5 53.4 11.9 53.7 11.3C53.8 11.1 54.1 10.7 54.1 10.5C54.1 10.1 53.8 9.69999 53.6 9.29999L51 3.99998L49.4 0.799988C49.4 0.799988 48.3 1.39998 48.3 1.49998C49.7 4.39998 51.2 7.29998 52.6 10.2C53.1 11.3 53 11.1 52.6 12.1C50.6 16.2 49.7 20.8 49 25.3C45.8 45.6 49.7 66 53.1 86C55.3 98.7 57.1 111.4 57.9 124.2C59 140.8 58.6 157.5 57.6 174.1C56 200.1 52.9 226 49.5 251.8C49 255.8 48.4 259.9 47.8 263.9C47.8 263.7 48.9 263.5 48.9 263.3V263.1Z" fill="#231F20"/>
<path d="M49.2 263.2C51.6 245.8 53.9 228.4 55.7 211C57.5 193.5 59.1 176 59.6 158.4C60.2 140.8 59.6 123.2 57.5 105.7C55.3 88.3 51.2 71.2 49.7 53.7C49 45 48.9 36.3 49.8 27.7C50.3 23.5 51 19.4 52.3 15.4C52.6 14.5 52.9 13.6 53.3 12.7C53.6 12.1 54.3 11.2 54.3 10.5C54.3 9.99997 54.1 9.59997 53.8 9.19997C53.3 8.19997 52.8 7.19997 52.3 6.19997L49.5 0.499974C49.5 0.299974 49.2 0.299976 49 0.399976C48.6 0.699976 48.2 0.799972 47.8 1.09997C47.7 1.19997 47.7 1.39997 47.8 1.49997L50.6 7.19997C51.1 8.09997 51.5 8.99998 51.9 9.89998C52.2 10.5 52.3 10.8 52.1 11.5C51.9 12 51.6 12.5 51.4 13C49.9 16.6 49.1 20.4 48.4 24.3C47.1 32.6 46.9 41 47.4 49.4C48.5 66.5 52.3 83.4 54.7 100.3C57.2 117.6 58.1 135.1 57.8 152.6C57.5 170 56.1 187.4 54.4 204.8C52.6 222.3 50.4 239.8 48.1 257.3C47.8 259.4 47.5 261.5 47.2 263.6C47.2 264 47.6 264.3 47.9 263.9C48.1 263.6 48.7 263.7 49 263.3C49.3 262.9 48.6 262.5 48.3 262.9C48.1 263.2 47.5 263.2 47.2 263.5L47.9 263.8C50.3 246.5 52.6 229.2 54.4 211.8C56.2 194.4 57.8 176.7 58.4 159.1C59 141.5 58.4 123.9 56.3 106.3C54.1 89 50.2 71.9 48.6 54.5C47.8 45.8 47.6 37.1 48.6 28.4C49.1 24.2 49.8 20 51.1 16C51.4 15 51.8 14 52.2 13C52.4 12.4 52.9 11.8 53 11.2C53 10.8 52.9 10.4 52.7 10.1C52.2 8.99997 51.7 7.99998 51.1 6.89998L48.3 1.19997V1.59997C48.5 1.39997 49 1.19997 49.3 0.999974H48.8C49.7 2.79997 50.7 4.59997 51.6 6.49997C52 7.39997 52.5 8.29997 52.9 9.19997C53.1 9.59997 53.3 9.89998 53.3 10.4C53.3 11 52.9 11.4 52.7 11.9C51.1 15.5 50.2 19.4 49.5 23.3C48.1 31.5 47.9 40 48.4 48.3C49.3 65.5 53.3 82.4 55.7 99.4C58.1 116.7 59.2 134.1 58.8 151.6C58.5 169.1 57.1 186.6 55.4 204C53.7 221.4 51.4 239.1 49.1 256.6C48.8 258.7 48.5 260.9 48.2 263C48.2 263.5 48.9 263.7 48.9 263.2H49.2Z" fill="#231F20"/>
<path d="M16.4 161.2C18.1 164.1 19.7 166.9 21.4 169.8C21.7 170.3 21.8 170.6 22.3 170.9C23.1 171.3 24 171.8 24.8 172.3C32.6 176.7 40.2 182.2 46.3 188.9C50.3 193.3 53.6 198.4 55 204.2C55 204.2 56 203.6 56.1 203.6C60.9 200.2 65.7 196.9 70.5 193.5C71.2 193 71.8 192.5 72.5 192.1C72.2 192.3 71.7 192.5 71.4 192.7C66.6 196.1 61.8 199.4 57 202.8C56.3 203.3 55.7 203.8 55 204.2L56.1 203.6C53.6 193.3 45.3 185.3 37.2 179.1C33.9 176.6 30.4 174.3 26.8 172.2C25.8 171.6 24.8 171.1 23.8 170.5C23.4 170.3 23.1 170.2 22.9 169.9C22.5 169.3 22.1 168.6 21.7 167.9L19.9 164.8C19.1 163.4 18.3 162 17.5 160.6L16.4 161.2Z" fill="#231F20"/>
<path d="M16.0999 161.4C17.1999 163.3 18.3 165.1 19.3 167C19.8 167.9 20.4 168.9 20.9 169.8C21.2 170.3 21.4 170.8 21.9 171.1C23.5 172.2 25.3 173 27 174C28.7 175 30.2 176 31.8 177.1C38.2 181.4 44.4 186.6 49 192.9C51.5 196.3 53.5 200.1 54.5 204.3C54.5 204.6 54.8999 204.7 55.0999 204.5C55.3999 204.2 55.7999 204.1 56.0999 203.9C56.8999 203.4 57.7 202.8 58.5 202.2C60 201.1 61.5999 200.1 63.0999 199C66.1999 196.8 69.4 194.6 72.5 192.4C72.9 192.1 72.5 191.5 72.0999 191.8C69.0999 193.6 66.3 195.8 63.4 197.8C60.5 199.8 57.5 201.9 54.5999 204C54.1999 204.3 54.6 204.9 55 204.6L56.0999 204C56.2999 204 56.3 203.7 56.3 203.6C54.6 196.6 50.3 190.7 45.2 185.7C39.7 180.3 33.2999 175.7 26.5999 171.9C25.4999 171.3 23.9999 170.7 23.0999 169.9C22.2999 169.2 21.9 168 21.4 167.1C20.2 165 18.8999 162.8 17.5999 160.6C17.4999 160.4 17.2999 160.4 17.0999 160.5C16.6999 160.7 16.3 160.9 16 161.1C15.6 161.4 16 162 16.4 161.7C16.8 161.5 17.1 161.2 17.5 161.1H17C18.1 162.8 19.1 164.6 20.2 166.5C20.7 167.3 21.0999 168.1 21.5999 168.9C21.9999 169.6 22.3 170.3 22.9 170.7C24.6 171.8 26.6 172.7 28.4 173.8C30.2 174.9 31.8999 176 33.5999 177.2C39.7999 181.5 45.8 186.4 50.2 192.6C52.6 196 54.5 199.7 55.5 203.8L55.7 203.4L54.5999 204L55 204.6C57.9 202.5 60.9 200.5 63.8 198.4C66.7 196.3 69.5 194.2 72.5 192.4L72.0999 191.8C68.7999 194.1 65.6 196.4 62.3 198.7C60.7 199.8 59.1 200.9 57.5 202.1C56.8 202.6 56.2 203.1 55.5 203.5C55.2 203.7 54.8 203.8 54.5 204.1L55.0999 204.3C53.2999 197.2 48.8 191.2 43.7 186.1C38.3 180.7 31.9 176.3 25.3 172.5C24.3 171.9 23.1 171.5 22.2 170.8C21.3 170.2 20.9 168.9 20.3 167.9C19 165.7 17.7 163.5 16.4 161.3C16.2 160.9 15.5 161.3 15.7 161.7L16.0999 161.4Z" fill="#231F20"/>
<path d="M50.8 66C39.2 57.4 29.9 45.9 22.3 33.8C19.5 29.3 16.8 24.7 14.4 19.9C13.2 17.6 12.2 15.2 11.1 12.9C11.1 12.7 11 12.7 10.8 12.5C10.1 11.8 9.39998 11.2 8.59998 10.6C7.09998 9.20002 5.5 7.80002 4 6.40002C4 6.40002 3.00002 7.10002 2.90002 7.10002C4.20002 8.30002 5.50002 9.50002 6.90002 10.7L9.29999 12.9C9.49999 13.1 9.80002 13.3 9.90002 13.5C10.2 14 10.4 14.7 10.7 15.3C11.3 16.7 12 18 12.6 19.4C17.8 30 24.2 40 31.6 49.2C36.9 55.7 42.9 61.8 49.7 66.8C49.8 66.9 50.7 66.1 50.8 66.2V66Z" fill="#231F20"/>
<path d="M51 65.6C42.6 59.3 35.3 51.5 29.1 43.1C22.9 34.7 17.1 25 12.5 15.1C12 13.9 11.5 12.7 10.6 11.8C9.49998 10.8 8.39999 9.8 7.29999 8.8L5.5 7.19999C5.2 6.89999 4.49998 6.09999 4.09998 5.99999C3.49998 5.79999 3.29999 6.59999 2.79999 6.59999C2.49999 6.59999 2.3 6.99999 2.5 7.19999C4.6 9.09999 6.69999 11.1 8.79999 12.9C9.69999 13.7 10 14.8 10.4 15.8C11 17.1 11.6 18.4 12.3 19.7C14.7 24.5 17.3 29.2 20.2 33.8C25.8 42.7 32.2 51.2 39.7 58.6C41.8 60.7 44 62.7 46.3 64.5C46.8 64.9 47.4 65.4 47.9 65.8C48.2 66 49 66.8 49.4 66.9C50 67 50.2 66.3 50.7 66.3C51.2 66.3 51.2 65.5 50.7 65.5C50.2 65.5 49.9 66.1 49.5 66C49 65.9 48.1 64.9 47.7 64.6C47.2 64.2 46.7 63.8 46.2 63.3C44.2 61.6 42.3 59.9 40.4 58.1C36.7 54.5 33.4 50.7 30.2 46.6C23.6 38.3 18 29.2 13.2 19.7C12.6 18.4 11.9 17.1 11.3 15.8C10.8 14.8 10.5 13.5 9.79999 12.7C7.69999 10.5 5.3 8.59999 3 6.59999L2.70002 7.19999C2.90002 7.19999 3.00002 7.19999 3.20002 6.99999C3.30002 6.99999 3.39998 6.79999 3.59998 6.69999C3.99998 6.59999 3.6 6.59999 4 6.69999C4.5 6.89999 5.00003 7.59999 5.40003 7.99999L7.20002 9.59999C8.10002 10.4 9.1 11.2 10 12.1C11 13 11.4 14.5 12 15.7C14.3 20.8 17 25.7 19.9 30.5C25.1 39.2 31.1 47.5 38.1 54.8C41.9 58.9 46.1 62.6 50.6 66C51 66.3 51.4 65.6 51 65.4V65.6Z" fill="#231F20"/>
<path d="M39.1 19.6C40.1 21.3 41.1 22.9 42.2 24.5C43.1 25.7 44 27 45 28.1C45.6 28.8 46.6 30.1 47.6 30.3C48.1 30.3 48.7 29.8 49.1 29.5L51.1 28.2L57.7 23.9C59.2 22.9 60.8 21.9 62.3 20.9C62 21.1 61.5 21.3 61.2 21.5C57.3 24.1 53.3 26.6 49.4 29.2C48.8 29.6 48.3 29.9 47.7 30.3L48.8 29.7C47.7 29.4 46.9 28.4 46.1 27.6C45.1 26.5 44.2 25.3 43.3 24C42.2 22.4 41.1 20.7 40.1 18.9C40.1 18.9 39 19.5 39 19.6H39.1Z" fill="#231F20"/>
<path d="M38.8 19.8C40.2 22.3 41.8 24.7 43.5 27C44.4 28.1 46.2 31 47.9 30.7C48.8 30.5 49.7999 29.5 50.5999 29L54.4 26.6C57.1 24.8 59.8 23.1 62.5 21.3C62.9 21 62.4999 20.4 62.0999 20.6C57.0999 23.5 52.3999 26.8 47.5999 30C47.1999 30.3 47.6 30.9 48 30.7L49.0999 30.1C49.3999 29.9 49.2999 29.5 49.0999 29.4C47.0999 28.6 45.6 26.2 44.4 24.6C43.1 22.8 41.9 20.8 40.7 18.9C40.6 18.7 40.4 18.7 40.2 18.8C39.8 19 39.3999 19.2 39.0999 19.5C38.6999 19.8 39.1 20.4 39.5 20.2C39.8 20 40.1999 19.8 40.5999 19.5H40.0999C41.3999 21.7 42.9 24 44.5 26.1C45.7 27.7 47 29.6 48.9 30.3V29.6L47.7 30.2L48.0999 30.9C52.8999 27.7 57.6999 24.5 62.5999 21.5L62.2 20.8C57.8 23.7 53.4 26.5 49 29.4C48.5 29.8 48 30.1 47.3 30C46.8 29.9 46.3 29.2 46 28.9C45.2 28.1 44.5 27.2 43.8 26.3C42.2 24.2 40.8 22 39.5 19.7C39.3 19.3 38.6 19.7 38.8 20.1V19.8Z" fill="#231F20"/>
<path d="M36.3 23.5C37.3 25.3 38.5 27 39.6 28.7C41.4 31.4 43.5 34.3 46.1 36.3C46.4 36.6 47.2 37.2 47.6 37.1C47.9 37.1 48.5 36.6 48.7 36.4C49.2 36.1 49.7 35.7 50.1 35.3C52.4 33.5 54.7 31.8 57 30.1C58.7 28.8 60.4 27.5 62.1 26.2C61.8 26.5 61.3 26.6 61 26.9C57.1 29.9 53.2 32.9 49.2 35.9L47.5 37.2L48.6 36.5C47.5 36.2 46.6 35.4 45.8 34.6C44.7 33.6 43.8 32.4 42.8 31.3C41.1 29.1 39.5 26.8 38.1 24.4C37.8 23.9 37.5 23.4 37.2 22.8C37.2 22.8 36.1 23.4 36.1 23.5H36.3Z" fill="#231F20"/>
<path d="M36 23.7C37.7 26.6 39.5 29.4 41.5 32C42.4 33.2 43.3 34.3 44.3 35.2C45.1 36 46.1 37 47.2 37.4C48.1 37.7 48.9 36.9 49.5 36.4C50.9 35.3 52.3 34.3 53.6 33.2C56.5 31 59.4 28.8 62.4 26.5C62.8 26.2 62.4 25.6 62 25.8C56.9 29.1 52.2 33 47.4 36.7C47 37 47.4 37.6 47.8 37.4L48.9 36.7C49.2 36.5 49.1 36.1 48.9 36C46.2 34.9 44.1 31.9 42.4 29.7C40.7 27.5 39.2 25 37.7 22.5C37.6 22.3 37.4 22.3 37.2 22.4C36.8 22.6 36.4 22.8 36.1 23.1C35.7 23.4 36.1 24 36.5 23.8C36.9 23.6 37.2 23.4 37.6 23.1H37.1C38.8 25.8 40.5 28.5 42.5 31.1C44.2 33.3 46.1 35.8 48.7 36.8V36.1L47.5 36.8L47.9 37.5C52.7 33.8 57.4 29.9 62.5 26.6L62.1 25.9C59.6 27.8 57 29.8 54.5 31.7L50.9 34.5C50.3 35 49.7 35.4 49.1 35.9C48.8 36.2 48.1 36.8 47.6 36.7C47.1 36.6 46.5 36 46.1 35.7C45.5 35.2 45 34.7 44.4 34.2C43.4 33.2 42.5 32 41.6 30.9C39.8 28.4 38.1 25.9 36.6 23.3C36.4 22.9 35.7 23.3 35.9 23.7H36Z" fill="#231F20"/>
<path d="M39.1 34.6C40.2 36.2 41.4 37.8 42.6 39.4C43.5 40.6 44.5 41.7 45.7 42.7C46.1 43.1 46.6 43.5 47.1 43.7C47.7 44 47.8 44 48.4 43.7C49.5 43 50.6 42.2 51.7 41.5C53.8 40 55.9 38.6 58.1 37.1C59.5 36.1 60.9 35.1 62.4 34.1C62.1 34.3 61.6 34.5 61.3 34.8C57.4 37.5 53.5 40.2 49.6 43C49 43.4 48.5 43.8 47.9 44.2L49 43.5C48 43.2 47.1 42.4 46.3 41.6C45.3 40.6 44.4 39.5 43.5 38.5C42.4 37.1 41.3 35.7 40.3 34.2L39.2 34.9L39.1 34.6Z" fill="#231F20"/>
<path d="M38.8 34.8C40.3 37 41.9 39.2 43.7 41.2C44.6 42.2 46.7 44.8 48.3 44.1C49.5 43.6 50.5 42.7 51.6 41.9C52.8 41.1 53.9 40.3 55.1 39.5C57.6 37.8 60.1 36.1 62.5 34.3C62.9 34 62.5 33.4 62.1 33.6C57.1 36.7 52.4 40.2 47.6 43.6C47.2 43.9 47.6 44.5 48 44.3L49.1 43.6C49.4 43.4 49.3 43 49.1 42.9C47.2 42.2 45.7 40.3 44.5 38.8C43.2 37.2 41.9 35.5 40.7 33.7C40.7 33.6 40.4 33.5 40.3 33.5C39.9 33.7 39.5 34 39.1 34.2C38.7 34.4 39.1 35.1 39.5 34.9C39.8 34.7 40.2 34.4 40.5 34.3L40.1 34.1C41.4 36 42.8 37.9 44.3 39.6C45.6 41.1 47.1 42.8 49 43.6V42.9L47.8 43.6L48.2 44.3C53 41 57.8 37.4 62.7 34.3L62.3 33.6C58.2 36.4 54.1 39.3 50.1 42.1C49.1 42.8 48.1 43.7 46.9 42.9C45.9 42.2 45.1 41.3 44.3 40.4C42.6 38.5 41.1 36.5 39.6 34.3C39.3 33.9 38.7 34.3 38.9 34.7L38.8 34.8Z" fill="#231F20"/>
<path d="M63 3.10002C60.1 5.40002 57.2 7.70002 54.2 9.90002L53 10.9C53.3 10.6 53.8 10.5 54.1 10.2C57 7.90002 59.9 5.60002 62.9 3.40002L64.1 2.40002C63.8 2.70002 63.3 2.80002 63 3.10002Z" fill="#231F20"/>
<path d="M62.8 2.90001C59.5 5.50001 56.1 8.1 52.8 10.7C52.5 11 52.9 11.5 53.3 11.3C53.7 11 54.1 10.9 54.5 10.6C55 10.2 55.5 9.80001 56 9.40001C57 8.60001 57.9 7.9 58.9 7.1C60.8 5.6 62.7 4.2 64.5 2.7C64.8 2.4 64.4 1.9 64 2.1C63.6 2.3 63.2 2.50001 62.9 2.80001C62.5 3.10001 62.9 3.70001 63.3 3.50001C63.7 3.30001 64.1 3.10001 64.4 2.80001L63.9 2.2C62.1 3.6 60.3 5.00001 58.5 6.40001C57.6 7.10001 56.6 7.9 55.7 8.6C55.2 9 54.8 9.3 54.3 9.7C53.9 10 53.4 10.2 52.9 10.6L53.4 11.2C56.7 8.6 60.1 6.00001 63.4 3.40001C63.8 3.10001 63.2 2.60001 62.9 2.90001H62.8Z" fill="#231F20"/>
<path d="M65.1 9.99998C60.5 13.6 55.9 17.2 51.3 20.7C50.6 21.2 50 21.7 49.3 22.2L50.4 21.5C49.2 20.5 48.4 19.3 47.5 18C46.4 16.4 45.5 14.8 44.5 13.2C43.4 11.2 42.3 9.09998 41.3 7.09998C41.3 7.09998 40.2 7.69998 40.2 7.79998C41.2 9.89998 42.3 11.9 43.4 13.9C44.3 15.5 45.3 17.2 46.4 18.7C47.2 19.9 48.1 21.2 49.3 22.2C49.3 22.2 50.3 21.6 50.4 21.5C55 17.9 59.6 14.3 64.2 10.8C64.9 10.3 65.5 9.79998 66.2 9.29998C65.9 9.59998 65.4 9.69998 65.1 9.99998Z" fill="#231F20"/>
<path d="M64.8 9.69996C59.6 13.8 54.3 17.9 49.1 21.9C48.8 22.2 49.1 22.7 49.6 22.5L50.7 21.8C50.9 21.7 51 21.4 50.7 21.2C48.6 19.4 47.1 16.8 45.7 14.4C44.3 12 42.9 9.39997 41.7 6.79997C41.7 6.59997 41.3 6.59996 41.2 6.69996C40.8 6.99996 40.4 7.09997 40 7.39997C39.9 7.49997 39.9 7.69997 40 7.79997C41.5 11 43.2 14.2 45.1 17.2C45.9 18.5 46.8 19.8 47.8 21C48.3 21.6 48.9 22.6 49.8 22.3C50.9 21.9 51.8 20.9 52.7 20.2C54.3 19 55.8 17.8 57.4 16.5C60.4 14.2 63.4 11.8 66.4 9.49996C66.7 9.19996 66.4 8.69997 65.9 8.89997C65.4 9.09997 65.1 9.29996 64.8 9.59996C64.4 9.89996 64.8 10.5 65.2 10.3C65.6 10.1 66 9.89996 66.3 9.59996L65.8 8.99996C63.2 11 60.6 13.1 58 15.1C55.4 17.1 52.8 19.4 50 21.3C49.9 21.3 49.6 21.6 49.5 21.6C49.2 21.6 49.4 21.6 49.1 21.5C48.5 21.1 47.9 20.2 47.6 19.7C46.7 18.5 45.9 17.2 45.1 15.9C43.5 13.2 42 10.4 40.6 7.49996V7.89997C40.8 7.59997 41.3 7.49997 41.6 7.29997H41.1C42.4 9.89997 43.8 12.6 45.4 15.2C46.8 17.5 48.2 20 50.2 21.7V21.1L49.2 21.8L49.7 22.4C54.9 18.3 60.2 14.2 65.4 10.2C65.8 9.89996 65.2 9.39996 64.9 9.69996H64.8Z" fill="#231F20"/>
<path d="M42.7 48.9C44.6 50.5 46.4 52.2 48.3 53.8C48.3 53.8 49.3 53.2 49.4 53.2C53.2 50.3 56.9 47.5 60.7 44.6C61.2 44.2 61.8 43.8 62.3 43.4C62 43.7 61.5 43.8 61.2 44.1C57.4 47 53.7 49.8 49.9 52.7C49.4 53.1 48.8 53.5 48.3 53.9L49.4 53.3C47.5 51.7 45.7 50 43.8 48.4C43.7 48.4 42.8 49.1 42.7 49.1V48.9Z" fill="#231F20"/>
<path d="M42.4 49.1L45.2 51.5L46.5 52.7C46.9 53.1 47.5 53.8 48 54C48.9 54.4 50.5 52.7 51.1 52.2C54.9 49.3 58.7 46.4 62.5 43.5C62.9 43.2 62.5 42.6 62.1 42.8C59.6 44.4 57.4 46.2 55 48C52.6 49.8 50.3 51.5 48 53.3C47.6 53.6 48 54.2 48.4 53.9L49.5 53.3C49.7 53.2 49.8 52.9 49.5 52.7C47.9 51.3 46.3 49.9 44.6 48.5C44.3 48.2 43.9 47.7 43.4 47.8C43.1 47.8 42.6 48.4 42.5 48.4C42 48.4 42 49.2 42.5 49.2C43 49.2 43 49 43.2 48.8C43.2 48.8 43.4 48.7 43.5 48.6C43.6 48.5 43.7 48.6 43.6 48.6C43.9 48.7 44.4 49.3 44.6 49.5L48.9 53.2V52.6L47.9 53.2L48.3 53.8C50.6 52 53 50.3 55.3 48.5C57.6 46.7 59.9 44.9 62.4 43.3L62 42.6C58.6 45.2 55.1 47.8 51.7 50.4C50.8 51 50 51.8 49.1 52.4C48.9 52.5 48.8 52.6 48.6 52.7C48.6 52.7 48.4 52.9 48.3 52.9C48 52.9 48.3 52.9 48 52.7C46.2 51.3 44.5 49.7 42.8 48.2C42.4 47.9 41.9 48.4 42.3 48.7L42.4 49.1Z" fill="#231F20"/>
<path d="M59.4 52.9C56.4 55.5 53.4 58.1 50.4 60.7C50 61.1 49.5 61.4 49.1 61.8C49.4 61.5 49.9 61.4 50.2 61.2C53.2 58.6 56.2 56 59.2 53.4C59.6 53 60.1 52.7 60.5 52.3C60.2 52.6 59.7 52.7 59.4 52.9Z" fill="#231F20"/>
<path d="M59.1 52.6C55.7 55.6 52.3 58.5 48.8 61.5C48.5 61.8 48.9 62.4 49.3 62.1C49.7 61.8 50.1 61.7 50.5 61.4C51 61 51.5 60.5 52 60.1C53 59.2 54 58.4 55 57.5C57 55.8 58.9 54.1 60.9 52.4C61.2 52.1 60.8 51.5 60.4 51.8C60 52.1 59.6 52.2 59.3 52.4C58.9 52.7 59.3 53.3 59.7 53C60 52.7 60.5 52.6 60.8 52.4L60.3 51.8C58.4 53.4 56.5 55.1 54.6 56.7C53.7 57.5 52.7 58.3 51.8 59.1C51.3 59.5 50.8 59.9 50.4 60.3C50 60.7 49.5 60.8 49 61.2L49.5 61.8C52.9 58.8 56.3 55.9 59.8 52.9C60.2 52.6 59.6 52.1 59.3 52.4L59.1 52.6Z" fill="#231F20"/>
<path d="M59.4 60.5C57 64.5 54.5 68.6 52.1 72.6L51.1 74.3L52.2 73.7C49.2 71.8 46.2 69.9 43.1 68.1C42.9 68 42.1 68.9 42 68.7C45 70.6 48 72.5 51.1 74.3L52.2 73.7C54.6 69.7 57.1 65.6 59.5 61.6C59.8 61 60.2 60.4 60.5 59.9C60.3 60.2 59.6 60.2 59.4 60.5Z" fill="#231F20"/>
<path d="M59 60.3C56.2 64.9 53.4 69.5 50.6 74.1C50.4 74.4 50.8 74.8 51.1 74.6L52.2 74C52.4 73.9 52.4 73.5 52.2 73.4C50 72 47.8 70.7 45.6 69.3L44 68.3C43.7 68.1 43.3 67.7 42.9 67.7C42.4 67.7 42.1 68.4 41.8 68.3C41.4 68.3 41.3 68.8 41.6 69C43.9 70.5 46.3 71.9 48.6 73.4C49.2 73.8 49.7 74.1 50.3 74.5C50.6 74.7 50.7 74.8 51 74.7C51.4 74.6 51.9 74.2 52.2 73.9C52.6 73.5 52.9 72.7 53.2 72.2L54.2 70.5L56.3 67.1C57.7 64.8 59.1 62.4 60.5 60.1C60.7 59.7 60.2 59.3 59.9 59.7C59.6 60.1 59.1 60 58.8 60.3C58.5 60.7 59 61.2 59.3 60.8C59.6 60.5 60.1 60.5 60.4 60.2L59.8 59.8C57.3 63.9 54.8 68 52.4 72.1C52.1 72.7 51.6 74 50.7 74C50.5 74 49.9 73.5 49.6 73.3L48.2 72.4C46.1 71.1 43.9 69.7 41.8 68.4L41.6 69.1C42.1 69.1 42.3 68.5 42.7 68.6C43.1 68.7 43.7 69.2 44.1 69.4L45.7 70.4C47.7 71.6 49.7 72.9 51.6 74.1V73.5L50.5 74.1L51 74.6C53.8 70 56.6 65.4 59.4 60.8C59.6 60.4 59 60 58.7 60.4L59 60.3Z" fill="#231F20"/>
<path d="M21.2 8.80002C19 12.5 16.9 16.2 14.7 19.9L13.8 21.5L14.9 20.8C11.6 21.1 8.3 21.3 5 21.6C4.6 21.6 4.30002 22.2 3.90002 22.3C5.60002 22.2 7.3 22 9 21.9L12.5 21.6C12.9 21.6 13.5 21.6 13.9 21.5C15.2 21 15.6 19.7 16.3 18.6C17.5 16.5 18.7 14.5 19.9 12.4C20.7 11 21.6 9.60001 22.4 8.20001C22.2 8.50001 21.5 8.50002 21.3 8.90002L21.2 8.80002Z" fill="#231F20"/>
<path d="M20.9 8.6C18.4 12.8 15.9 17.1 13.4 21.3C13.2 21.6 13.6 22 13.9 21.8L15 21.1C15.3 20.9 15.2 20.4 14.8 20.4C12.7 20.6 10.6999 20.7 8.59995 20.9L5.69998 21.1C5.39998 21.1 4.99995 21.1 4.59995 21.3C4.19995 21.5 4.09998 21.8 3.69998 21.9C3.29998 22 3.39998 22.7 3.69998 22.6C6.19998 22.4 8.69998 22.2 11.2 22C12.1 22 13.1 22 14 21.7C14.6 21.4 15.1 20.9 15.5 20.3C16.7 18.5 17.7 16.5 18.7 14.7C19.9 12.6 21.2 10.4 22.5 8.3C22.7 7.9 22.2 7.5 21.9 7.9C21.6 8.3 21.1 8.2 20.8 8.6C20.5 8.9 21 9.5 21.3 9.1C21.6 8.8 22.1 8.8 22.4 8.4L21.8 8C19.6 11.7 17.3 15.4 15.3 19.2C14.9 19.9 14.5 20.7 13.7 21.1C12.8 21.5 11.5 21.4 10.5 21.4C8.19997 21.6 5.99998 21.8 3.69998 21.9V22.6C3.99998 22.6 4.09996 22.4 4.29996 22.3C4.79996 22 5.3 21.9 5.9 21.9L8.79996 21.7C10.8 21.5 12.6999 21.4 14.5999 21.2L14.4 20.5L13.3 21.2L13.8 21.7C16.3 17.5 18.8 13.2 21.3 9C21.5 8.6 20.8999 8.2 20.5999 8.6H20.9Z" fill="#231F20"/>
<path d="M23.6 13.6C21.6 17.5 19.5 21.3 17.5 25.2L16.6 26.9L17.7 26.2H7.09998C6.69998 26.2 6.3 26.9 6 26.9H16.6C16.8 26.9 17.6 26.4 17.7 26.2C19.7 22.3 21.8 18.5 23.8 14.6L24.7 12.9C24.5 13.2 23.7 13.2 23.6 13.6Z" fill="#231F20"/>
<path d="M23.3 13.4C21 17.8 18.7 22.2 16.3 26.6C16.1 26.9 16.5 27.3 16.8 27.1L17.9 26.4C18.2 26.2 18.1 25.7 17.7 25.7H7.69998C7.39998 25.7 7.09996 25.7 6.79996 25.7C6.49996 25.8 6.3 26.2 5.9 26.3C5.5 26.3 5.6 27 5.9 27H13.5999C14.9999 27 16.9 27.4 18 26.2C18.4 25.8 18.6 25.1 18.8 24.6L19.5999 23L21.4 19.6C22.6 17.4 23.7 15.2 24.9 12.9C25.1 12.5 24.6 12.1 24.3 12.5C24 12.9 23.5 12.8 23.2 13.2C22.9 13.6 23.4 14.1 23.7 13.7C24 13.4 24.5 13.4 24.8 13L24.2 12.6C22.1 16.6 20 20.6 17.9 24.6C17.5 25.3 17.3 26.1 16.4 26.3C15.9 26.4 15.0999 26.3 14.5999 26.3H5.79996V27C6.09996 27 6.29997 26.8 6.49997 26.7C6.99997 26.4 7.3 26.4 7.9 26.4H17.5999L17.4 25.7L16.3 26.4L16.8 26.9C19.1 22.5 21.4 18.1 23.8 13.7C24 13.3 23.3999 12.9 23.0999 13.3L23.3 13.4Z" fill="#231F20"/>
<path d="M26.3 19C24.5 23 22.7 27.1 20.9 31.1L20.1 32.8L21.2 32.1C17.1 31.9 13 31.6 8.90002 31.3H7.09998C6.69998 31.2 6.3 31.9 6 31.8C10.1 32 14.2 32.3 18.3 32.6H20.1C20.3 32.7 21.2 32.2 21.2 32.1C23 28.1 24.8 24 26.6 20L27.4 18.3C27.3 18.6 26.4 18.6 26.3 19Z" fill="#231F20"/>
<path d="M26 18.8C23.9 23.4 21.9 28 19.8 32.6C19.6 32.9 20 33.3 20.3 33.1L21.4 32.4C21.7 32.2 21.6 31.7 21.2 31.7C18.3 31.5 15.4 31.4 12.5 31.2L8.4 31C7.9 31 7.4 30.8 6.9 31C6.5 31.1 6.3 31.5 5.9 31.6C5.5 31.6 5.6 32.3 5.9 32.3C8.8 32.5 11.6999 32.6 14.5999 32.8L18.7 33C19.6 33 20.2 33.1 20.9 32.6C21.6 32.1 21.9 31.1 22.2 30.3L23.9 26.4C25.1 23.7 26.3 21.1 27.4 18.5C27.6 18.2 27.1 17.7 26.8 18.1C26.5 18.5 26 18.4 25.7 18.8C25.4 19.2 25.9 19.7 26.2 19.3C26.5 19 27 19 27.3 18.6L26.7 18.2C25.7 20.5 24.5999 22.8 23.5999 25.2L22 28.7L21.2 30.5C21 31 20.7 31.8 20.3 32.2C19.6 32.8 18.3 32.4 17.5 32.4L13.7 32.2C11 32 8.29998 31.9 5.69998 31.7V32.4C6.09998 32.4 6.19997 32.1 6.49997 32C7.09997 31.7 7.89995 31.9 8.59995 32L12.5999 32.2C15.3999 32.4 18.1 32.5 20.9 32.7L20.7 32L19.5999 32.7L20.0999 33.2C22.1999 28.6 24.2 24 26.3 19.4C26.5 19 25.7999 18.6 25.5999 19L26 18.8Z" fill="#231F20"/>
<path d="M27.2 27.4C26.3 31.3 25.3 35.3 24.4 39.3L25.5 38.6C20.9 38.2 16.3 37.7 11.6 37.3L9.59998 37.1C9.29998 37.1 8.8 37.8 8.5 37.8C13.1 38.2 17.7 38.7 22.4 39.1L24.4 39.3C24.5 39.3 25.5 38.7 25.5 38.6C26.4 34.7 27.4 30.7 28.3 26.7C28.3 27 27.3 27 27.2 27.4Z" fill="#231F20"/>
<path d="M26.8 27.3C25.9 31.2 24.9 35.1999 24 39.1999C24 39.4999 24.3 39.7999 24.5 39.5999L25.5999 38.9C25.8999 38.7 25.8 38.1999 25.4 38.1999C22.2 37.8999 19 37.6 15.8 37.3L11.2 36.9C10.7 36.9 10 36.7 9.4 36.8C8.9 36.8 8.69996 37.4 8.29996 37.5C7.89996 37.6 7.99996 38.1999 8.29996 38.1999C11.1 38.4999 14 38.7 16.8 39L20.8 39.4L22.8 39.5999C23.2 39.5999 23.8 39.7999 24.3 39.5999C24.7 39.5999 25.3 39.2 25.5 38.9C25.8 38.5 25.8 37.8 25.9 37.4L26.4 35.3C27.1 32.5 27.7 29.7 28.4 26.9C28.4 26.5 27.9 26.2999 27.7 26.5999C27.5 26.8999 26.7999 26.8 26.5999 27.3C26.3999 27.8 27 28.0999 27.3 27.6999C27.5 27.3999 28.2 27.4 28.4 27L27.7 26.6999C27.1 29.1999 26.5 31.6999 25.9 34.1999C25.6 35.3999 25.3 36.6 25 37.8C24.9 38.3 24.9 38.4999 24.4 38.6999C23.9 38.8999 23.5999 38.7999 23.0999 38.6999C18.0999 38.1999 13.2 37.8 8.19998 37.3V38C8.69998 38 8.79995 37.7 9.09995 37.5C9.69995 37.2 10.7 37.5 11.3 37.5L15.9 37.9C19 38.2 22.0999 38.5 25.0999 38.8L24.9 38.0999L23.8 38.8L24.3 39.1999C25.2 35.2999 26.1999 31.3 27.0999 27.3C27.1999 26.8 26.5 26.5999 26.4 27.0999L26.8 27.3Z" fill="#231F20"/>
<path d="M33.5 30.3C31.8 34.3 30.1 38.2 28.4 42.2C28.2 42.8 27.9 43.3 27.7 43.9L28.8 43.2C24.4 43.1 20 42.9 15.5 42.8H13.6C13.2 42.8 12.8 43.4 12.5 43.4C16.9 43.5 21.3 43.7 25.8 43.8H27.7C27.9 43.8 28.8 43.3 28.8 43.2C30.5 39.2 32.2 35.3 33.9 31.3C34.1 30.7 34.4 30.2 34.6 29.6C34.5 29.9 33.6 29.9 33.5 30.3Z" fill="#231F20"/>
<path d="M33.2 30.1C31.3 34.6 29.3 39.2 27.4 43.7C27.3 44 27.6 44.4 27.9 44.2L29 43.5C29.3 43.3 29.2 42.8 28.8 42.8C25.7 42.8 22.6999 42.6 19.5999 42.5H15.0999C14.5999 42.3 14 42.2 13.5 42.3C13 42.3 12.8 42.8 12.4 43C12 43.2 12.1 43.7 12.4 43.7C15.4 43.7 18.4 43.9 21.4 44H25.7C26.6 44.2 27.5 44.4 28.3 44C29.1 43.6 29.2999 42.9 29.5999 42.1C30.1999 40.7 30.8 39.3 31.4 37.9C32.5 35.2 33.7 32.5 34.8 29.8C35 29.5 34.5 29 34.2 29.4C33.9 29.7 33.3999 29.7 33.0999 30.1C32.7999 30.5 33.2999 31 33.5999 30.6C33.8999 30.3 34.4 30.3 34.7 29.9L34.0999 29.5C33.0999 31.8 32.0999 34.2 31.0999 36.6C30.5999 37.9 30 39.1 29.5 40.4C29.1 41.3 28.7 43.1 27.8 43.5C26.9 43.9 25.5 43.6 24.5 43.5H20.4C17.7 43.3 15 43.2 12.3 43.1V43.8C12.7 43.8 12.7999 43.5 13.0999 43.4C13.6999 43.1 14.6 43.2 15.3 43.2H19.8C22.7 43.4 25.5999 43.5 28.5999 43.6L28.4 42.9L27.3 43.6L27.8 44.1C29.7 39.6 31.6999 35 33.5999 30.5C33.7999 30.1 33.1 29.7 32.9 30.1H33.2Z" fill="#231F20"/>
<path d="M36.8 37.2C35.3 41.4 33.8 45.6 32.3 49.8L33.4 49.1C29.2 48.7 25 48.2 20.8 47.8L19 47.6C18.7 47.6 18.2 48.3 17.9 48.3C22.1 48.7 26.3 49.2 30.5 49.6L32.3 49.8C32.4 49.8 33.4 49.3 33.4 49.1C34.9 44.9 36.4 40.7 37.9 36.5C37.8 36.8 36.9 36.8 36.8 37.2Z" fill="#231F20"/>
<path d="M36.4 37.1C34.9 41.3 33.4 45.5 31.9 49.7C31.8 50 32.2 50.3 32.4 50.1L33.5 49.4C33.8 49.2 33.7 48.7 33.3 48.7C30.3 48.4 27.4 48.1 24.4 47.8L20.1 47.4C19.6 47.4 19 47.2 18.6 47.4C18.2 47.5 18 48 17.6 48C17.1 48 17.3 48.7 17.6 48.7C20.4 49 23.1 49.3 25.9 49.6L30.2 50C31 50 31.9 50.3 32.6 50C33.3 49.7 33.4 49.3 33.7 48.6C34.2 47.3 34.6 46 35.1 44.7C36.1 42 37 39.4 38 36.7C38.2 36.3 37.5 36.1 37.3 36.4C37.1 36.7 36.5 36.7 36.2 37.1C35.9 37.5 36.6 37.9 36.9 37.5C37.1 37.2 37.7 37.2 38 36.8L37.3 36.5C36.5 38.8 35.6 41.2 34.8 43.5C34.4 44.7 34 45.8 33.5 47C33.2 47.8 33.1 49 32.2 49.3C31.4 49.6 29.9 49.2 29 49.1L25.3 48.7L17.6 47.9V48.6C18 48.6 18.1 48.3 18.4 48.2C19 47.9 19.9 48.2 20.5 48.2L24.6 48.6C27.4 48.9 30.3 49.2 33.1 49.5L32.9 48.8L31.8 49.5L32.3 49.9C33.8 45.7 35.3 41.5 36.8 37.3C37 36.9 36.2 36.6 36.1 37.1H36.4Z" fill="#231F20"/>
<path d="M39.1 44.8C38.2 48 37.2 51.2 36.3 54.3L37.4 53.7H27.4C27 53.7 26.6 54.3 26.3 54.3H36.3C36.4 54.3 37.4 53.8 37.4 53.7C38.3 50.5 39.3 47.3 40.2 44.2C40.2 44.2 39.7 44.5 39.6 44.5C39.6 44.5 39.1 44.7 39 44.8H39.1Z" fill="#231F20"/>
<path d="M38.8 44.7C37.9 47.9 36.9 51.1 36 54.2C36 54.5 36.3 54.8 36.5 54.6L37.5999 54C37.8999 53.8 37.8 53.3 37.4 53.3H28C27.7 53.3 27.3 53.3 27 53.4C26.7 53.5 26.5 53.9 26.2 53.9C25.8 53.9 25.9 54.6 26.2 54.6H35.4C36.1 54.6 36.4999 54.6 37.0999 54.2C37.6999 53.9 37.7 53.6 37.9 53C38.2 52 38.5 51.1 38.8 50.1C39.4 48.1 39.9999 46.1 40.5999 44.1C40.5999 43.8 40.2 43.4 40 43.7C39.7 44 39.2 44 38.9 44.4C38.6 44.8 39.1 45.3 39.4 44.9C39.7 44.6 40.2 44.6 40.5 44.2L39.9 43.8C39.4 45.6 38.9 47.3 38.3 49.1C38.1 49.9 37.7999 50.8 37.5999 51.6C37.4999 52 37.4 52.5 37.2 52.9C37.1 53.2 37 53.3 36.7 53.5C36.1 53.8 35.4 53.7 34.7 53.7H26.4V54.4C26.7 54.4 26.8999 54.2 27.0999 54.1C27.4999 53.8 27.8 53.8 28.3 53.8H37.5L37.3 53.1L36.2 53.7L36.7 54.1C37.6 50.9 38.6 47.7 39.5 44.6C39.6 44.1 38.9 43.9 38.8 44.4V44.7Z" fill="#231F20"/>
<path d="M0.599976 13.6C3.99998 15 7.40001 16.3 10.7 17.7L12.1 18.3C12.1 18.3 13.2 17.7 13.2 17.6C13.6 13.8 14 9.99996 14.4 6.29996C14.4 5.79996 14.5 5.19995 14.6 4.69995C14.6 4.89995 13.5 5.09996 13.5 5.39996C13.1 9.19996 12.7 13 12.3 16.7C12.3 17.2 12.2 17.8 12.1 18.3L13.2 17.6C9.80001 16.2 6.39998 14.9 3.09998 13.5L1.70001 12.9C1.50001 12.9 0.799976 13.6 0.599976 13.6Z" fill="#231F20"/>
<path d="M0.5 14C2.9 15 5.29999 16 7.79999 16.9L11.4 18.3C11.7 18.4 12.1 18.7 12.4 18.6C12.7 18.6 12.9 18.3 13.2 18.2C13.4 18.2 13.6 18 13.7 17.8C13.9 17.4 13.9 16.7 13.9 16.2C14 14.9 14.2 13.6 14.3 12.3C14.6 9.69996 14.8 7.09996 15.1 4.59996C15.1 4.19996 14.6 4.09996 14.4 4.39996C14.4 4.59996 13.7 4.59996 13.5 4.79996C13.2 4.99996 13.2 5.19996 13.2 5.49996C13 6.89996 12.9 8.39996 12.7 9.79996C12.4 12.6 12.1 15.4 11.8 18.2C11.8 18.5 12.1 18.6 12.4 18.5L13.5 17.8C13.8 17.6 13.7 17.2 13.5 17.1C11 16.1 8.5 15.1 6 14L2.40002 12.6C2.10002 12.5 1.8 12.3 1.5 12.5C1.3 12.5 0.900012 13.1 0.700012 13.1C0.200012 13.1 0.200012 13.8 0.700012 13.9C0.900012 13.9 1.09999 13.8 1.29999 13.6C1.39999 13.6 1.59999 13.3 1.79999 13.2C1.99999 13.2 2.3 13.4 2.5 13.5L6.09998 14.9C8.49998 15.9 10.9 16.9 13.4 17.8V17.1L12.2 17.8L12.8 18.1C13.1 15.4 13.3 12.8 13.6 10.1C13.7 8.79996 13.9 7.49995 14 6.19995C14 5.99995 14 5.39995 14.1 5.19995C14.1 5.19995 14.4 5.09996 14.5 4.99996C14.7 4.99996 15 4.79996 15.2 4.59996L14.5 4.39996C14.3 6.69996 14 8.99996 13.8 11.3C13.6 13.6 13.6 13.6 13.4 14.8L13.2 16.6C13.2 17 13.2 17.1 13 17.4C12.7 17.6 12.6 17.7 12.3 17.7C11.9 17.7 11.3 17.3 10.8 17.1L7.40002 15.7C5.20002 14.8 3.10002 13.9 0.900024 13.1C0.400024 12.9 0.300012 13.6 0.700012 13.8L0.5 14Z" fill="#231F20"/>
<path d="M43.5 78.3C46.7 81 49.9 83.7 53.1 86.4C53.1 86.4 54.1 85.8 54.2 85.8C57.7 81.1 61.3 76.4 64.8 71.7C65.3 71 65.8 70.4 66.3 69.7C66.1 70 65.4 70 65.2 70.3C61.7 75 58.1 79.7 54.6 84.4C54.1 85.1 53.6 85.7 53.1 86.4L54.2 85.8C51 83.1 47.8 80.4 44.6 77.7C44.5 77.6 43.6 78.4 43.5 78.3Z" fill="#231F20"/>
<path d="M43.2 78.5C45.7 80.6 48.2 82.8 50.7 84.9C51.3 85.4 51.9 86 52.6 86.5C52.9 86.7 52.9 86.7 53.2 86.7C53.8 86.7 54.4 86 54.8 85.5C58.8 80.3 62.7 75 66.7 69.8C67 69.4 66.4 69.1 66.1 69.4C65.6 69.8 65.2 69.8 64.8 70.3C64.2 71 63.6 71.9 63 72.6C61.9 74.1 60.7 75.6 59.6 77.1C57.3 80.1 55.1 83.1 52.8 86.1C52.6 86.4 53 86.8 53.3 86.6L54.4 86C54.6 85.9 54.7 85.6 54.4 85.4C52.1 83.4 49.7 81.4 47.4 79.4L45.7 78C45.4 77.8 45 77.2 44.6 77.2C44.1 77.2 43.8 77.8 43.4 77.8C42.9 77.8 42.9 78.6 43.4 78.6C43.8 78.6 44.2 77.9 44.5 78C44.5 78 45 78.6 45.1 78.6L46 79.3L47.5 80.6C49.6 82.4 51.7 84.2 53.8 86V85.4L52.8 86L53.3 86.5C55.5 83.6 57.7 80.7 59.8 77.8C60.9 76.4 62 74.9 63.1 73.5C63.6 72.8 64.2 72.1 64.7 71.3C65.2 70.6 65.8 70.3 66.4 69.8L65.8 69.4C62.3 74 58.9 78.5 55.4 83.1C54.9 83.8 54 85.6 53 85.8C52.7 85.8 52.2 85.3 51.9 85L50.2 83.6C48 81.7 45.7 79.8 43.5 77.9C43.1 77.6 42.6 78.1 43 78.4L43.2 78.5Z" fill="#231F20"/>
<path d="M41.9 88C45.7 90.9 49.5 93.8 53.3 96.7C53.8 97.1 54.4 97.5 54.9 98C55 98.1 55.9 97.3 56 97.4C52.2 94.5 48.4 91.6 44.6 88.7C44.1 88.3 43.5 87.9 43 87.4C42.9 87.3 42 88.1 41.9 88Z" fill="#231F20"/>
<path d="M41.7 88.3C44.5 90.4 47.2 92.5 49.9 94.6C51.2 95.6 52.5 96.6 53.8 97.6C54.2 97.9 54.6 98.4 55.1 98.2C55.3 98.2 55.4 98 55.5 97.9C55.6 97.9 56 97.6 55.8 97.6C56.2 97.6 56.4 97.2 56.1 96.9C53.3 94.8 50.6 92.7 47.9 90.6C46.6 89.6 45.3 88.6 44 87.6C43.6 87.3 43.2 86.8 42.7 87C42.5 87 42.4 87.2 42.3 87.3C42.2 87.3 41.8 87.6 42 87.6C41.5 87.6 41.3 88.2 41.8 88.3C42.1 88.3 42.3 88.2 42.6 88C42.8 87.9 42.9 87.7 43 87.7C43.2 87.7 43.6 88.2 43.8 88.4C45.1 89.4 46.4 90.4 47.8 91.4C50.5 93.5 53.1 95.5 55.8 97.5L56.1 96.8C55.8 96.8 55.6 96.9 55.3 97.1C55.1 97.2 55 97.4 54.9 97.4C54.7 97.4 54.3 96.9 54.1 96.7C52.8 95.7 51.5 94.7 50.1 93.7C47.4 91.6 44.8 89.6 42.1 87.6C41.7 87.3 41.3 88 41.7 88.2V88.3Z" fill="#231F20"/>
<path d="M62.7 82.4C60.2 85.6 57.8 88.8 55.3 92L54.3 93.4C54.5 93.1 55.2 93.1 55.4 92.8C57.9 89.6 60.3 86.4 62.8 83.2L63.8 81.8C63.6 82.1 62.9 82.1 62.7 82.4Z" fill="#231F20"/>
<path d="M62.3 82.2L53.9 93.1C53.6 93.4 54.2 93.9 54.5 93.5C54.8 93.2 55.2 93.2 55.5 92.9C55.9 92.5 56.3 91.9 56.6 91.5C57.4 90.4 58.3 89.3 59.1 88.3C60.8 86.2 62.4 84 64.1 81.9C64.4 81.6 63.8 81.1 63.5 81.5C63.2 81.9 62.7 81.8 62.4 82.1C62.1 82.5 62.6 83 62.9 82.6C63.2 82.3 63.7 82.3 64 82L63.4 81.6C61.8 83.7 60.2 85.8 58.6 87.8C57.8 88.8 57 89.8 56.2 90.9L55.6 91.7C55.4 92 55.2 92.3 54.9 92.5C54.6 92.7 54.2 92.7 53.9 93L54.5 93.4L62.9 82.5C63.2 82.1 62.5 81.7 62.2 82.1L62.3 82.2Z" fill="#231F20"/>
<path d="M66.6 86.4C63.4 90.9 60.1 95.4 56.9 99.8L55.5 101.7C55.7 101.4 56.4 101.4 56.6 101.1C59.8 96.6 63.1 92.1 66.3 87.7L67.7 85.8C67.5 86.1 66.8 86.1 66.6 86.4Z" fill="#231F20"/>
<path d="M66.2 86.2C62.5 91.3 58.8 96.4 55.1 101.6C54.9 102 55.4 102.3 55.7 102C56.1 101.6 56.6 101.6 57 101.1C57.5 100.4 58.1 99.6 58.6 98.9C59.7 97.4 60.7 96 61.8 94.5C63.9 91.6 66 88.7 68 85.8C68.2 85.4 67.7001 85.1 67.4001 85.4C67.1001 85.7 66.6 85.7 66.3 86C66 86.3 66.5 86.9 66.8 86.5C67.1 86.2 67.6001 86.2 67.9001 85.9L67.3 85.5C65.3 88.3 63.3 91.1 61.3 93.9C60.3 95.3 59.3 96.7 58.3 98L56.7 100.2C56.4 100.6 56.1 100.8 55.7 101.1C55.5 101.2 55.3 101.3 55.2 101.4L55.8 101.8C59.5 96.7 63.2001 91.6 66.9001 86.4C67.2001 86 66.5 85.6 66.2 86V86.2Z" fill="#231F20"/>
<path d="M44.7 98C48 100.4 51.3 102.7 54.6 105.1C55.1 105.4 55.6 105.8 56 106.1C56.2 106.2 57 105.4 57.1 105.5C53.8 103.1 50.5 100.8 47.2 98.4C46.7 98.1 46.2 97.7 45.8 97.4C45.6 97.3 44.8 98.1 44.7 98Z" fill="#231F20"/>
<path d="M44.5 98.3L52 103.6C53.2 104.4 54.3 105.3 55.5 106.1C55.8 106.3 56 106.5 56.4 106.3C56.6 106.3 56.7 106.1 56.8 106C56.8 106 56.9 106 57 105.9C57.1 105.8 57.2 105.9 57 105.8C57.4 105.8 57.6 105.4 57.3 105.1L49.8 99.8C48.6 99 47.5 98.1 46.3 97.3C46 97.1 45.8 96.9 45.4 97.1C45.2 97.1 45.1 97.3 45 97.4C45 97.4 44.9 97.4 44.8 97.5C44.7 97.6 44.6 97.5 44.8 97.6C44.3 97.5 44.1 98.2 44.6 98.3C44.9 98.3 45.1 98.2 45.3 98.1C45.4 98 45.6 97.8 45.7 97.8C45.7 97.8 46 98 46 98.1C47.2 98.9 48.3 99.8 49.5 100.6C51.9 102.3 54.3 104.1 56.8 105.8L57.1 105.1C56.8 105.1 56.6 105.2 56.4 105.3C56.3 105.4 56.1 105.6 56 105.6C56 105.6 55.7 105.4 55.7 105.3C54.5 104.5 53.4 103.6 52.2 102.8C49.8 101.1 47.4 99.3 44.9 97.6C44.5 97.3 44.1 98 44.5 98.2V98.3Z" fill="#231F20"/>
<path d="M42.7 102C46.9 105.4 51 108.7 55.1 112.1L56.9 113.6C56.9 113.6 57.9 113 58 113C60.4 110.1 62.7 107.3 65.1 104.4C64.9 104.7 64.2 104.7 64 105C61.6 107.9 59.3 110.7 56.9 113.6L58 113C53.8 109.6 49.7 106.3 45.6 102.9L43.8 101.4C43.7 101.3 42.8 102.1 42.7 102Z" fill="#231F20"/>
<path d="M42.4 102.3C47 106 51.6 109.8 56.2 113.5C56.8 114 56.9 114.1 57.6 113.7C58.5 113.2 59 112.4 59.6 111.7C61.5 109.3 63.5 107 65.4 104.6C65.7 104.2 65.2 103.8 64.9 104.1C64.6 104.3 64.3 104.4 64 104.6C63.6 104.9 63.3 105.4 63 105.8C62.3 106.6 61.7 107.4 61 108.2C59.6 109.9 58.2 111.6 56.7 113.4C56.4 113.7 56.7 114.2 57.2 114L58.3 113.4C58.5 113.3 58.6 113 58.3 112.8C55.1 110.2 52 107.7 48.8 105.1C47.3 103.9 45.8 102.7 44.4 101.5C44.1 101.2 44 101.1 43.6 101.2C43.3 101.2 43 101.8 42.7 101.8C42.2 101.8 42.2 102.6 42.7 102.6C43 102.6 43.2 102.4 43.4 102.2C43.4 102.2 43.6 102.1 43.6 102C43.7 101.9 43.8 101.9 43.8 102C44.1 102 44.5 102.6 44.7 102.7L48.9 106.1C51.8 108.5 54.8 110.9 57.7 113.2V112.6L56.7 113.2L57.2 113.8C58.6 112.1 60 110.4 61.5 108.6C62.2 107.8 62.8 107 63.5 106.2C63.9 105.7 64.3 105.2 64.9 104.9C65.1 104.8 65.3 104.7 65.5 104.5L65 104C63.3 106.1 61.6 108.1 59.9 110.2C59.2 111.1 58.5 112.2 57.6 112.8C57.6 112.8 57.3 113 57.2 113C56.9 113 57.2 113 56.9 112.9C56.4 112.6 56 112.2 55.6 111.8C51.4 108.4 47.3 105.1 43.2 101.7C42.8 101.4 42.3 101.9 42.7 102.2L42.4 102.3Z" fill="#231F20"/>
<path d="M41.9 117.5C46.6 119.9 51.2 122.2 55.9 124.6C56.6 124.9 57.2 125.3 57.9 125.6C58.1 125.7 58.8 124.8 59 125C54.3 122.6 49.7 120.3 45 117.9C44.3 117.6 43.7 117.2 43 116.9C42.8 116.8 42.1 117.7 41.9 117.5Z" fill="#231F20"/>
<path d="M41.7 117.8C45 119.5 48.4 121.2 51.7 122.9L56.5 125.3C56.9 125.5 57.5 126 58 125.9C58.3 125.9 58.7 125.3 58.9 125.3C59.3 125.3 59.4 124.8 59.1 124.6C55.8 122.9 52.4 121.2 49.1 119.5L44.3 117.1C43.9 116.9 43.3 116.4 42.8 116.5C42.5 116.5 42.1 117.1 41.9 117.1C41.4 117.1 41.4 117.8 41.9 117.9C42.3 117.9 42.4 117.6 42.7 117.5C43.1 117.3 43.2 117.5 43.7 117.7L44.8 118.3L49.4 120.6C52.5 122.2 55.7 123.8 58.8 125.4L59 124.7C58.6 124.7 58.5 125 58.2 125.1C57.8 125.3 57.7 125.1 57.2 124.9L56.1 124.3L51.5 122C48.4 120.4 45.2 118.8 42.1 117.2C41.7 117 41.3 117.6 41.7 117.8Z" fill="#231F20"/>
<path d="M47.7 125.6C50.7 127.5 53.8 129.3 56.8 131.2C57.2 131.5 57.7 131.7 58.1 132C58.1 132 58.6 131.7 58.7 131.7C58.8 131.7 59.2 131.3 59.3 131.4C56.3 129.5 53.2 127.7 50.2 125.8C49.8 125.5 49.3 125.3 48.9 125C48.9 125 48.4 125.3 48.3 125.3C48.2 125.3 47.8 125.7 47.7 125.6Z" fill="#231F20"/>
<path d="M47.5 126C49.9 127.4 52.2 128.9 54.6 130.4L56.4 131.5L57.2 132C57.4 132.1 57.7 132.4 58 132.5C58.3 132.5 58.5 132.5 58.8 132.3C58.8 132.3 59 132.2 59 132.1C59 132.1 59.5 131.9 59.3 131.9C59.6 131.9 59.8 131.4 59.5 131.2C57.1 129.8 54.8 128.3 52.4 126.8L50.6 125.7L49.8 125.2C49.6 125.1 49.3 124.8 49 124.7C48.7 124.7 48.5 124.7 48.2 124.9C48.2 124.9 48 125 48 125.1C48 125.1 47.5 125.3 47.7 125.3C47.2 125.3 47.2 126.1 47.7 126.1C48 126.1 48.2 125.9 48.4 125.8C48.4 125.8 48.6 125.7 48.7 125.6C48.7 125.6 48.8 125.5 48.9 125.5C48.9 125.5 48.9 125.5 48.9 125.6C49 125.8 49.6 126 49.7 126.1L50.5 126.6L52.3 127.7C54.6 129.1 56.8 130.5 59.1 131.9L59.3 131.2C59 131.2 58.8 131.4 58.6 131.5C58.6 131.5 58.4 131.6 58.3 131.7C58.3 131.7 58.2 131.8 58.1 131.8C58.1 131.8 58.1 131.8 58.1 131.7C58 131.5 57.4 131.3 57.3 131.2L56.5 130.7L54.7 129.6C52.4 128.2 50.2 126.8 47.9 125.4C47.5 125.2 47.1 125.8 47.5 126Z" fill="#231F20"/>
<path d="M47.7 131.3C50.8 134.7 53.9 138 57 141.4L58.3 142.8L59.4 142.2C61.5 132.3 64.9 122.6 69.8 113.6C73.6 106.5 78.3 99.9 83.7 93.9C87.7 89.5 92.1 85.5 96.8 81.9C98.4 80.7 100 79.6 101.7 78.5C102 78.3 102.3 78.1 102.6 77.9C102.7 77.9 102.8 77.8 103 77.7C103.1 77.7 103.2 77.6 103.1 77.7C103.1 77.7 103.2 77.7 103.3 77.6C103.4 77.6 103.6 77.5 103.7 77.4C103.8 77.3 103.9 77.3 104.1 77.2C104.5 77 104.9 76.8 105.2 76.5C105.4 76.3 105.6 75.9 105.8 75.6C107.6 73.2 109.3 70.9 111 68.5L111.4 67.9C111.2 68.2 110.5 68.2 110.3 68.5C108.2 71.4 106.1 74.2 104 77.1L105.1 76.5C103.7 77.2 102.3 78.1 100.9 78.9C97.8 80.8 94.9 83 92.1 85.3C87.8 88.9 83.8 92.8 80.2 97.1C75.6 102.6 71.6 108.5 68.2 114.9C64.2 122.6 61.1 130.8 59 139.2C58.7 140.4 58.4 141.6 58.2 142.8L59.3 142.2C56.2 138.8 53.1 135.5 50 132.1L48.7 130.7C48.7 130.7 47.6 131.4 47.6 131.3H47.7Z" fill="#231F20"/>
<path d="M47.5 131.6C51.1 135.5 54.6 139.3 58.2 143.2C58.3 143.3 58.5 143.3 58.7 143.2C59.1 143 59.6 142.8 59.9 142.5C60.1 142.2 60.1 141.8 60.2 141.4C60.4 140.7 60.5 139.9 60.7 139.2C61.4 136.5 62.1 133.8 63 131.1C64.7 125.8 66.8 120.6 69.4 115.6C74.4 105.8 81 96.8 89 89.3C93.4 85.1 98.3 81.2 103.6 78.1C104 77.9 103.6 77.2 103.2 77.5C102.8 77.7 103.2 78.4 103.6 78.1C104.3 77.7 105 77.5 105.6 77C106.4 76.4 107 75.3 107.6 74.5C109.2 72.4 110.7 70.3 112.3 68.2C112.6 67.8 112 67.5 111.7 67.8C111.1 68.3 110.7 68.3 110.2 68.9C109.5 69.8 108.9 70.7 108.2 71.6C106.9 73.4 105.5 75.2 104.2 77.1C104 77.4 104.4 77.8 104.7 77.6L105.8 77C106.2 76.8 105.8 76.1 105.4 76.4C95.7 81.3 87.2 89 80.2 97.3C73.3 105.5 67.8 114.8 63.8 124.8C61.5 130.7 59.6 136.7 58.3 142.9C58.3 143.2 58.6 143.5 58.8 143.3L59.9 142.7C60.1 142.6 60.1 142.3 59.9 142.1C57.4 139.5 55 136.8 52.6 134.2L50.9 132.4C50.5 131.9 49.7 130.8 49.1 130.5C48.5 130.2 48.2 131 47.7 131.1C47.2 131.2 47.4 131.9 47.9 131.8C48.1 131.8 48.3 131.6 48.5 131.4C48.7 131.3 48.7 131.2 48.9 131.3L49.6 132.1L52.8 135.5C55 137.9 57.1 140.2 59.3 142.5V141.9L58.3 142.5L58.8 142.9C63.4 121.6 74.1 101.9 90.5 87.4C95.1 83.4 100.1 79.6 105.6 76.8L105.2 76.2L104.1 76.8L104.6 77.3L108.4 72.2C109 71.4 109.6 70.6 110.1 69.9C110.6 69.2 111.3 68.8 112 68.2L111.4 67.8C110 69.6 108.7 71.5 107.3 73.3C106.6 74.2 106 75.2 105.3 76C104.7 76.7 103.8 77 103 77.4C84.6 88.3 70.8 106.9 63.5 126.8C62.5 129.7 61.5 132.5 60.7 135.5C60.3 137 59.9 138.4 59.6 139.9C59.5 140.4 59.4 141.7 59 142.1C58.8 142.3 58.4 142.4 58.2 142.6H58.7C55.1 138.8 51.6 135 48 131.1C47.7 130.7 47.1 131.3 47.5 131.6Z" fill="#231F20"/>
<path d="M47.7 142.8C50.8 146.1 53.9 149.4 57 152.7C57.5 153.2 57.9 153.7 58.3 154.1C58.3 154.1 59.3 153.5 59.4 153.5C62.4 150.4 65.3 147.3 68.3 144.2C68.7 143.8 69.2 143.3 69.6 142.9C69.3 143.2 68.8 143.3 68.5 143.5C65.5 146.6 62.6 149.7 59.6 152.8C59.2 153.2 58.7 153.7 58.3 154.1L59.4 153.5C56.3 150.2 53.2 146.9 50.1 143.6C49.6 143.1 49.2 142.6 48.8 142.2C48.8 142.2 47.7 142.9 47.7 142.8Z" fill="#231F20"/>
<path d="M47.5 143.1C51.1 146.9 54.6 150.7 58.2 154.5C58.2 154.6 58.4 154.6 58.6 154.6C59.1 154.5 59.6 154.1 60 153.7C61.2 152.6 62.3 151.3 63.4 150.1C65.6 147.8 67.8 145.5 70 143.2C70.3 142.9 70 142.3 69.5 142.6C69 142.9 68.7 143 68.4 143.2C67.9 143.6 67.6 144.1 67.1 144.5C66.1 145.6 65 146.7 64 147.7C62 149.7 60.1 151.8 58.1 153.8C57.8 154.1 58.1 154.6 58.6 154.4L59.7 153.8C59.9 153.7 59.9 153.4 59.7 153.2C57.2 150.6 54.8 148 52.3 145.3L50.5 143.4C50.1 143 49.5 142 49 141.8C48.4 141.5 48.1 142.3 47.6 142.4C47.1 142.4 47.3 143.2 47.8 143.1C48 143.1 48.3 142.9 48.4 142.7C48.4 142.7 48.7 142.4 48.8 142.4C48.6 142.4 49.4 143.2 49.3 143.2C50.4 144.3 51.5 145.5 52.5 146.7C54.7 149.1 56.9 151.4 59.1 153.8V153.2L58.1 153.8L58.6 154.4C60.5 152.5 62.3 150.5 64.2 148.6C65.1 147.6 66.1 146.6 67 145.7C67.5 145.2 68 144.7 68.5 144.2C68.9 143.8 69.4 143.6 69.8 143.3L69.3 142.7C67.5 144.6 65.7 146.5 63.8 148.4L60.8 151.5C60.1 152.3 59.4 153.1 58.5 153.7C58.1 153.9 58.2 153.9 57.9 153.5C57.5 153 56.9 152.5 56.5 152C55.5 151 54.6 150 53.6 149C51.6 146.9 49.7 144.8 47.7 142.8C47.4 142.4 46.8 143 47.2 143.3L47.5 143.1Z" fill="#231F20"/>
<path d="M46 155.7C49.5 158.5 53 161.2 56.4 164C56.9 164.4 57.4 164.8 57.9 165.2C57.9 165.2 58.9 164.6 59 164.6C61.5 162.4 63.9 160.1 66.3 157.9C66 158.2 65.5 158.3 65.2 158.5C62.7 160.7 60.3 163 57.9 165.2L59 164.6C55.5 161.8 52 159.1 48.6 156.3C48.1 155.9 47.6 155.5 47.1 155.1C47 155 46.1 155.8 46 155.7Z" fill="#231F20"/>
<path d="M45.7 156C47.7 157.6 49.8 159.3 51.9 160.9L54.9 163.3L56.5 164.5C56.8 164.8 57.3 165.4 57.8 165.5C58.8 165.8 60.3 163.9 60.8 163.4C62.8 161.6 64.7 159.8 66.7 158C67 157.7 66.6 157.2 66.2 157.4C65.6 157.8 65 158.1 64.4 158.6C63.7 159.3 62.9 159.9 62.2 160.6C60.7 162 59.2 163.4 57.7 164.8C57.4 165.1 57.7 165.6 58.2 165.4L59.3 164.8C59.5 164.7 59.6 164.4 59.3 164.2C56.6 162.1 53.9 159.9 51.3 157.8L49.3 156.2C48.8 155.8 48.1 155 47.5 154.8C47.3 154.8 47.2 154.7 47 154.8C46.7 154.8 46.3 155.4 46.1 155.4C45.6 155.4 45.6 156.2 46.1 156.2C46.4 156.2 46.6 156 46.8 155.9C46.8 155.9 47.2 155.6 47.3 155.6L47.9 156.2C49.1 157.2 50.3 158.1 51.5 159.1C54 161.1 56.5 163 58.9 165V164.4L57.9 165L58.4 165.6C59.8 164.3 61.2 163 62.7 161.7C63.4 161.1 64.1 160.5 64.8 159.8C65.2 159.5 65.5 159 66 158.8C66.3 158.6 66.6 158.5 66.9 158.3L66.4 157.7C64.7 159.2 63.1 160.7 61.4 162.3C60.6 163 59.9 163.8 59 164.5C58.8 164.6 58.5 164.9 58.3 164.9C58.1 164.9 57.7 164.5 57.4 164.3C53.8 161.4 50.2 158.5 46.5 155.6C46.1 155.3 45.6 155.8 46 156.1L45.7 156Z" fill="#231F20"/>
<path d="M47.7 165.2C50.5 167.9 53.4 170.6 56.2 173.3C56.6 173.7 57 174.1 57.4 174.5C57.4 174.5 58.4 173.8 58.5 173.9C55.7 171.2 52.8 168.5 50 165.8C49.6 165.4 49.2 165 48.8 164.6C48.8 164.6 47.8 165.3 47.7 165.2Z" fill="#231F20"/>
<path d="M47.5 165.5C49.7 167.6 51.8 169.6 54 171.7C55 172.7 56 173.8 57.2 174.7C57.5 174.9 57.7 174.9 58 174.7C58.1 174.7 58.3 174.5 58.4 174.4C58.4 174.4 58.6 174.3 58.6 174.2C58.7 174.1 58.8 174.2 58.6 174.2C58.9 174.2 59.3 173.8 59 173.6C56.8 171.5 54.7 169.5 52.5 167.4C51.5 166.4 50.5 165.3 49.3 164.4C49 164.2 48.8 164.2 48.5 164.4C48.4 164.4 48.2 164.6 48.1 164.7C48.1 164.7 47.9 164.8 47.9 164.9C47.7 164.9 47.8 165 47.9 164.9C47.4 164.8 47.2 165.5 47.7 165.6C48 165.6 48.2 165.5 48.4 165.4C48.5 165.3 48.7 165.2 48.8 165.1C48.8 165.1 48.9 165 49 165C48.8 165 48.8 165 49 165.2C49.2 165.5 49.5 165.7 49.8 165.9L50.6 166.6L52.2 168.2C54.3 170.2 56.4 172.2 58.4 174.2L58.8 173.6C58.5 173.6 58.3 173.7 58.1 173.8C58 173.9 57.8 174 57.7 174.1C57.7 174.1 57.6 174.2 57.5 174.2C57.7 174.2 57.7 174.2 57.5 174C57.3 173.7 57 173.5 56.7 173.3L55.9 172.6L54.3 171C52.2 169 50.1 167 48.1 165C47.8 164.7 47.2 165.2 47.6 165.5H47.5Z" fill="#231F20"/>
<path d="M103.5 68.6C103.6 69.9 103.7 71.0999 103.8 72.3999L104 75.3V76.3C104.1 76.5 104 76.8 104.2 77.1C104.4 77.4 104.3 77.2 104.6 77.3L106.4 77.5L112 78.1C113.2 78.2 114.5 78.3 115.8 78.5C115.9 78.5 116.2 78.3 116.4 78.2C116.6 78.1 116.8 77.8999 117 77.8999C114.1 77.5999 111.1 77.3 108.2 77L106.1 76.8C105.9 76.8 105.5 76.8 105.4 76.8C105.4 76.8 105.4 76.4999 105.4 76.3999V75.3999L105.1 72.7C105 71.2 104.9 69.7 104.7 68.2C104.7 68.4 103.6 68.6 103.6 68.8L103.5 68.6Z" fill="#231F20"/>
<path d="M103.1 68.6C103.3 70.7 103.5 72.8 103.6 74.9C103.6 75.4 103.6 76 103.7 76.5C103.7 76.8 103.7 77.1 103.9 77.4C104 77.6 104.2 77.6 104.4 77.6C104.9 77.6 105.4 77.6 105.9 77.7C108 77.9 110.1 78.1 112.3 78.3C113.3 78.4 114.3 78.5 115.3 78.6C115.7 78.6 115.9 78.6 116.3 78.5C116.5 78.4 116.8 78.1 117 78C117.4 77.9 117.3 77.3 117 77.3C113.5 76.9 110.1 76.6 106.6 76.3C106.4 76.3 105.9 76.3 105.7 76.3C105.7 76.2 105.7 75.9 105.7 75.7L105.5 73.4C105.3 71.6 105.2 69.8 105.1 68.1C105.1 67.7 104.5 67.6 104.4 68C104.4 67.8 104.2 68 104.1 68C104 68 103.8 68.1 103.7 68.2C103.5 68.3 103.3 68.4 103.3 68.6C103.1 69.1 103.9 69.3 104 68.8C104 69 104.2 68.8 104.3 68.8C104.4 68.8 104.6 68.7 104.7 68.6C104.9 68.5 105.1 68.4 105.1 68.2H104.4C104.6 70 104.7 72 104.9 73.9C104.9 74.8 105 75.6 105.1 76.4C105.1 76.9 105.4 77 105.8 77C109.6 77.3 113.3 77.7 117.1 78.1V77.4C116.8 77.4 116.6 77.6 116.4 77.7C116.1 77.9 115.9 78 115.5 77.9C114.6 77.9 113.7 77.7 112.9 77.6C111 77.4 109.1 77.2 107.2 77H105.9C105.6 76.8 105.4 76.8 105.1 76.8H104.8C104.6 76.8 104.6 76.8 104.7 76.7C104.7 76.7 104.7 76.4 104.7 76.2C104.7 76 104.7 75.7 104.7 75.4V74.1C104.4 72.2 104.3 70.3 104.1 68.5C104.1 68 103.3 68 103.3 68.5L103.1 68.6Z" fill="#231F20"/>
<path d="M95.9 72.3C95.9 74.1 95.9 75.9 95.9 77.8V81.3C95.9 81.5 95.9 82.3 96 82.5C96.2 82.7 97.2 82.5 97.5 82.5H100.6C100.6 82.6 108.2 83 108.2 83C109.8 83 111.4 83.1 113 83.2C113.4 83.2 113.8 82.5 114.1 82.6C110.2 82.4 106.4 82.3 102.5 82.1H99.2C98.6 81.9 97.8 82.1 97.3 81.9C97 81.8 97.1 81.7 97.1 81.3V78.2C97.1 76.1 97 73.9 96.9 71.8C96.9 72 95.8 72.2 95.8 72.4L95.9 72.3Z" fill="#231F20"/>
<path d="M95.6 72.3C95.6 75.3 95.8 78.3 95.8 81.3C95.8 81.8 95.6 82.5 96.1 82.8C96.6 83.1 97.9 82.8 98.5 82.9C101.4 83 104.3 83.1 107.2 83.3L111.4 83.5C112 83.5 112.7 83.7 113.2 83.5C113.7 83.5 113.9 82.9 114.3 82.9C114.7 82.9 114.6 82.2 114.3 82.2C109.8 82 105.2 81.8 100.7 81.6C99.8 81.6 98.8 81.7 98 81.6C97.4 81.5 97.7 80.7 97.6 80.2V78.6C97.6 76.3 97.5 74 97.4 71.7C97.4 71.3 96.9 71.2 96.7 71.5C96.6 71.8 95.8 71.7 95.6 72.1C95.4 72.5 96 72.9 96.3 72.5C96.5 72.2 97.2 72.3 97.4 71.9L96.7 71.7C96.7 74.3 96.7 76.9 96.8 79.5C96.8 80.1 96.8 80.7 96.8 81.2C96.8 81.4 96.8 81.7 96.8 81.9C97.2 82.5 98.3 82.3 98.8 82.3C101.2 82.3 103.7 82.5 106.1 82.6C108.8 82.7 111.4 82.8 114.1 82.9V82.2C113.7 82.2 113.5 82.5 113.3 82.6C112.7 82.9 111.9 82.8 111.3 82.7L107.6 82.5C105 82.4 102.4 82.3 99.8 82.2C98.8 82.2 97.8 82.1 96.9 82.2C96.4 82.2 96.3 82.2 96.3 81.6C96.3 81.2 96.3 80.7 96.3 80.2C96.3 77.6 96.3 74.9 96.2 72.3C96.2 71.8 95.4 71.8 95.4 72.3H95.6Z" fill="#231F20"/>
<path d="M87.7 79.8C87.7 81.2 87.9 82.6 87.9 84.1L88.1 87.1V88.2C88.1 88.4 88.1 88.7999 88.1 88.8999C88.1 89.0999 88.4 89 88.6 89H90.7L96.8 89.3999L101 89.6C101.4 89.6 101.8 88.9 102.1 89L92.5 88.6H90.1C90 88.5 89.3 88.6 89.2 88.5C89 88.4 89.2 87.4 89.2 87.2L89 84.3C89 82.6 88.8 80.9 88.7 79.2C88.7 79.4 87.6 79.6 87.6 79.8H87.7Z" fill="#231F20"/>
<path d="M87.3 79.8C87.4 82.1 87.6 84.5 87.7 86.8C87.7 87.3 87.7 87.8 87.7 88.3C87.7 88.6 87.7 88.9 87.7 89.1C87.7 89.3 88.1 89.4 88.4 89.4C88.9 89.4 89.5 89.4 90.1 89.4L96.9 89.7H100.2C100.6 89.9 101 89.9 101.3 89.8C101.6 89.7 101.9 89.3 102.2 89.2C102.6 89.2 102.5 88.5 102.2 88.5C98.3 88.3 94.4 88.1 90.5 88C90.3 88 90 88 89.7 88C89.4 88 89.5 87.9 89.5 87.5C89.5 86.7 89.5 85.9 89.5 85.1C89.4 83.1 89.3 81.1 89.2 79C89.2 78.6 88.6 78.5 88.5 78.9C88.5 78.8 88 79 87.8 79.1C87.6 79.2 87.5 79.3 87.4 79.5C87.2 80 88 80.1 88.1 79.7C88.1 79.9 88.4 79.7 88.5 79.7C88.6 79.7 88.7 79.7 88.8 79.6C89 79.5 89.1 79.4 89.2 79.2H88.5C88.6 81.4 88.8 83.6 88.9 85.9C88.9 86.6 88.9 87.4 88.9 88.1C88.9 88.6 89.2 88.8 89.7 88.8C93.9 88.8 98 89.1 102.2 89.3V88.6C101.9 88.6 101.7 88.8 101.5 88.9C101.1 89.2 100.8 89.2 100.3 89.2H97.3C97.3 89.1 91.2 88.8 91.2 88.8H89.9C89.7 88.8 88.7 88.8 88.6 88.7C88.6 88.6 88.6 87.9 88.6 87.7V86.1C88.4 84 88.3 82 88.1 79.9C88.1 79.4 87.3 79.4 87.3 79.9V79.8Z" fill="#231F20"/>
<path d="M80.1 83.1V97.5C80.1 97.3 81.2 97.1 81.2 96.9V82.5C81.2 82.7 80.1 82.9 80.1 83.1Z" fill="#231F20"/>
<path d="M79.7 83.1V97.5C79.7 97.8 80.2 98.1 80.4 97.7C80.4 97.5 81.1 97.4 81.3 97.3C81.6 97 81.5999 96.7 81.5999 96.3V82.5C81.5999 82.2 81.1 81.9 80.9 82.3C80.9 82.4 80.2999 82.5 80.0999 82.6C79.8999 82.7 79.8 82.8 79.7 83C79.5 83.4 80.2 83.6 80.4 83.2C80.4 83.2 80.8999 83.1 81.0999 83C81.2999 83 81.4 82.8 81.5 82.7L80.8 82.5V95.7C80.8 95.9 80.9 96.6 80.8 96.8C80.8 96.8 80.5 96.9 80.4 97C80.2 97.1 79.9 97.2 79.8 97.4L80.5 97.6V83.2C80.5 82.7 79.7 82.7 79.7 83.2V83.1Z" fill="#231F20"/>
<path d="M82.8 94.5C87.4 94.8 92 95.1 96.6 95.4H98.6C99 95.6 99.4 94.9 99.7 94.9C95.1 94.6 90.5 94.3 85.9 94H83.9C83.5 93.8 83.1 94.5 82.8 94.5Z" fill="#231F20"/>
<path d="M82.8 94.9C85.9 95.1 89.1 95.3 92.2 95.5L96.9 95.8C97.5 95.8 98.2 96 98.8 95.8C99.2 95.7 99.4 95.2 99.8 95.2C100.2 95.2 100.1 94.5 99.8 94.5C96.7 94.3 93.5 94.1 90.4 93.9L85.7 93.6C85.1 93.6 84.4 93.4 83.8 93.6C83.4 93.7 83.2 94.2 82.8 94.2C82.3 94.2 82.5 95 83 94.9C83.4 94.9 83.6 94.5 83.9 94.3C84.2 94.2 84.7 94.3 85 94.3H86.3L90.7 94.7C93.7 94.9 96.7 95.1 99.7 95.3V94.6C99.2 94.6 99 95 98.7 95.2C98.4 95.3 97.9 95.2 97.6 95.2H96.3L91.9 94.8C88.9 94.6 85.9 94.4 82.9 94.2C82.4 94.2 82.4 94.9 82.9 95L82.8 94.9Z" fill="#231F20"/>
<path d="M76 102.8H90.7C91.1 102.8 91.5 102.2 91.8 102.2H77.1C76.7 102.2 76.3 102.8 76 102.8Z" fill="#231F20"/>
<path d="M76 103.2H89.1C89.6 103.2 90.3 103.3 90.9 103.2C91.3 103.1 91.5 102.7 91.9 102.6C92.3 102.6 92.2 101.9 91.9 101.9H78.8C78.3 101.9 77.6 101.8 77 101.9C76.6 102 76.4 102.4 76 102.5C75.5 102.5 75.7 103.3 76.2 103.2C76.6 103.2 76.8 102.8 77.1 102.6C77.7 102.4 78.7 102.6 79.3 102.6H91.8V101.9C91.3 101.9 91.1 102.3 90.8 102.5C90.2 102.7 89.2 102.5 88.6 102.5H76.1C75.6 102.5 75.6 103.3 76.1 103.3L76 103.2Z" fill="#231F20"/>
<path d="M72.2 94.1V108.5C72.2 108.3 73.3 108.1 73.3 107.9V93.5C73.3 93.7 72.2 93.9 72.2 94.1Z" fill="#231F20"/>
<path d="M71.8 94.1V108.5C71.8 108.8 72.3 109.1 72.5 108.7C72.5 108.5 73.2 108.4 73.4 108.3C73.7 108 73.7 107.7 73.7 107.3V93.5C73.7 93.2 73.2 92.9 73 93.3C73 93.4 72.4 93.5 72.2 93.6C72 93.7 71.9 93.8 71.8 94C71.6 94.4 72.3 94.6 72.5 94.2C72.5 94.2 73 94.1 73.2 94C73.4 94 73.4999 93.8 73.5999 93.7L72.9 93.5V106.7C72.9 106.9 73 107.6 72.9 107.7C72.9 107.7 72.6 107.8 72.5 107.9C72.3 108 72 108.1 71.9 108.3L72.5999 108.5V94.1C72.5999 93.6 71.8 93.6 71.8 94.1Z" fill="#231F20"/>
<path d="M82.1 112C78.6 112.3 75 112.6 71.5 112.8C71.3 112.8 70.5 113 70.3 112.8C70.1 112.7 70.1 111.7 70 111.5C69.6 109.4 69.1 107.4 68.7 105.3C68.4 103.7 68 102.1 67.7 100.5C67.7 100.6 66.5 101 66.6 101.1C67.4 104.6 68.1 108.1 68.8 111.5L69 112.6C69 112.8 69 113.1 69.1 113.3C69.2 113.5 69.5 113.3 69.8 113.3L75.8 112.8C77.5 112.7 79.2 112.5 80.9 112.4C81.3 112.4 81.6 111.8 82 111.8L82.1 112Z" fill="#231F20"/>
<path d="M82.1 111.6C79.9 111.8 77.7 112 75.4 112.1L72.2 112.3C71.9 112.3 71.5 112.3 71.1 112.4C71 112.4 70.8 112.4 70.7 112.4C70.7 112.4 70.5 112.4 70.4 112.4C70.3 112.2 70.4 111.8 70.3 111.5C70.3 111.1 70.1 110.6 70 110.2L69.3 107C68.8 104.8 68.4 102.6 67.9 100.4C67.9 100.1 67.4 100 67.2 100.4C67.2 100.3 67 100.4 66.9 100.5C66.8 100.5 66.6 100.6 66.5 100.7C66.3 100.8 66.1 100.9 66 101.1C65.9 101.5 66.2 102.3 66.3 102.8C66.5 103.5 66.6 104.2 66.8 104.9C67.4 107.6 67.9 110.4 68.5 113.1C68.7 114.1 69.6 113.8 70.4 113.7L74.6 113.4L78.8 113.1C79.5 113.1 80.1 113.1 80.8 112.9C81.3 112.9 81.5 112.4 82 112.3C82.5 112.2 82.3 111.4 81.8 111.6C81.4 111.7 81.3 112 80.9 112.2C80.4 112.5 79.4 112.4 78.8 112.4L75.2 112.7L71.5 113C70.9 113 70.3 113 69.7 113.1H69.5C69.3 113.2 69.2 113.1 69.3 112.9C69.3 112.8 69.3 112.5 69.3 112.4C68.8 110 68.3 107.7 67.8 105.3C67.6 104.1 67.4 102.9 67 101.7C66.9 101.3 66.8 101.5 67 101.3C67.1 101.3 67.3 101.2 67.4 101.1C67.6 101.1 67.8 100.9 67.9 100.7H67.2C67.7 103 68.2 105.4 68.7 107.8L69.4 111.2C69.5 111.7 69.4 112.6 69.8 113C70.1 113.4 70.8 113.1 71.2 113C72.3 112.9 73.5 112.8 74.6 112.7C77 112.5 79.4 112.3 81.9 112.1C82.4 112.1 82.4 111.3 81.9 111.3L82.1 111.6Z" fill="#231F20"/>
<path d="M63.5 128.2C66.7 126.1 69.9 124 73.1 121.9L74.5 121C74.2 121.2 73.7 121.4 73.4 121.6C70.2 123.7 67 125.8 63.8 127.9L62.4 128.8C62.7 128.6 63.2 128.4 63.5 128.2Z" fill="#231F20"/>
<path d="M63.7 128.5C67.4 126.1 71 123.7 74.7 121.2C75.1 120.9 74.7 120.3 74.3 120.6C70.2 123.1 66.2 125.8 62.2 128.5C61.8 128.8 62.2 129.4 62.6 129.1C62.9 128.9 63.3 128.7 63.7 128.5C64.1 128.2 63.7 127.6 63.3 127.9C63 128.1 62.6 128.3 62.2 128.5L62.6 129.1C66.6 126.5 70.6 123.7 74.7 121.2L74.3 120.6C70.6 123 67 125.4 63.3 127.9C62.9 128.2 63.3 128.8 63.7 128.5Z" fill="#231F20"/>
<path d="M59.5 142.3C63 140.1 66.6 138 70.1 135.8L71.6 134.9C71.8 134.8 71.4001 135 71.4001 135C71.1001 135.1 70.9 135.3 70.6 135.4C67.1 137.6 63.5 139.7 60 141.9L58.5 142.8C58.3 142.9 58.7 142.7 58.7 142.7C59 142.6 59.2 142.4 59.5 142.3Z" fill="#231F20"/>
<path d="M59.7 142.6C63.8 140.1 67.9 137.7 71.9 135.2C72.2 135 72 134.3 71.6 134.5C70.7 134.9 69.9 135.5 69 136C67.8 136.7 66.6 137.5 65.3 138.2C62.9 139.6 60.5 141.1 58.2 142.5C57.9 142.7 58.1 143.4 58.5 143.2C58.9 143 59.3 142.8 59.6 142.6C60 142.4 59.6 141.7 59.2 142C58.9 142.2 58.5 142.4 58.3 142.6L58.6 143.3C60.9 141.9 63.2 140.5 65.5 139.1L69 136.9C69.9 136.4 70.8 135.6 71.7 135.3L71.4 134.6C67.4 137.1 63.2 139.6 59.2 142C58.8 142.2 59.2 142.9 59.6 142.6H59.7Z" fill="#231F20"/>
<path d="M66.9 157.4C66.9 161.3 66.9 165.2 66.9 169.1C66.9 169.9 66.9 170.7 66.9 171.5C66.9 171.9 66.8 171.9 67.2 172.1L72.9 174.5C74.7 175.2 76.4 175.9 78.1 176.7C78.3 176.8 79 176 79.2 176.1C75.7 174.6 72.1 173.2 68.6 171.7C68.5 171.7 68.1 171.6 68.1 171.5C68.1 171.5 68.1 171.5 68.1 171.3C68 170.7 68.1 169.9 68.1 169.3C68.1 166.9 68.1 164.5 68.1 162.1C68.1 160.4 68.1 158.7 68.1 157C68.1 157.2 67 157.4 67 157.6L66.9 157.4Z" fill="#231F20"/>
<path d="M66.5 157.4C66.5 160.3 66.5 163.1 66.5 166C66.5 167.4 66.5 168.9 66.5 170.3C66.5 170.9 66.2 171.9 66.7 172.3C67.1 172.6 67.6 172.7 68 172.9L70.1 173.8L74 175.4C75.2 175.9 76.4 176.6 77.7 176.9C78 176.9 78.1 177 78.4 176.9C78.6 176.8 78.9 176.4 79.1 176.4C79.6 176.4 79.6 175.8 79.1 175.7C77 174.8 75 174 72.9 173.1L69.7 171.8C69.3 171.7 68.5 171.5 68.3 171.2C68.3 171.2 68.3 171.2 68.2 171.1C68.1 170.9 68.2 170.4 68.2 170.2C68.5 165.8 68.2 161.3 68.2 156.9C68.2 156.5 67.7 156.4 67.5 156.7C67.3 157 66.6 156.9 66.4 157.3C66.2 157.7 66.8 158.1 67.1 157.7C67.3 157.4 68 157.5 68.2 157.1L67.5 156.9C67.5 159.5 67.5 162.1 67.5 164.7C67.5 165.9 67.5 167.1 67.5 168.3C67.5 169.2 67.3 170.3 67.5 171.2C67.5 171.8 67.8 171.8 68.4 172C69.6 172.4 70.8 173 71.9 173.5C74.3 174.5 76.6 175.4 79 176.4V175.7C78.6 175.7 78.3 176.3 77.9 176.3C77.4 176.3 76.6 175.8 76.2 175.6L74.6 175C72.3 174.1 70 173.1 67.7 172.1C67.5 172.1 67.3 172 67.2 171.8C67.1 171.6 67.2 171.2 67.2 170.9C67.2 170.3 67.2 169.6 67.2 168.9V165.2C67.2 162.7 67.2 160.1 67.2 157.6C67.2 157.1 66.4 157.1 66.4 157.6L66.5 157.4Z" fill="#231F20"/>
<path d="M85.8 172.2C82.7 170.2 79.6 168.1 76.5 166.1C76.3 165.9 75.6 165.7 75.4 165.4C75.3 165.2 75.4 164.4 75.4 164.2V152.5C75.4 152.7 74.3 152.9 74.3 153.1V165.4C74.3 165.6 74.3 165.9 74.3 166C74.3 166.2 74.8 166.4 75 166.5L80.3 170C81.8 171 83.2 171.9 84.7 172.9C84.9 173 85.7 172.1 85.8 172.3V172.2Z" fill="#231F20"/>
<path d="M86 171.9C84.2 170.7 82.3 169.5 80.5 168.3L77.7 166.4C77.2 166.1 75.9 165.5 75.8 164.9C75.8 164.1 75.8 163.2 75.8 162.4V152.4C75.8 152 75.3 151.9 75.1 152.2C75.1 152.4 74.4 152.4 74.3 152.6C74.1 152.7 74 152.8 74 153.1C73.8 153.8 74 154.8 74 155.5V164.8C74 165.2 73.9 165.7 74 166.1C74.1 166.4 74.4 166.5 74.7 166.7C75.3 167.1 75.9 167.5 76.5 167.9L80.5 170.5L82.5 171.8L83.5 172.5C83.8 172.7 84.2 173.1 84.5 173.2C84.7 173.2 84.8 173.2 85 173.2C85.2 173.2 85.6 172.6 85.8 172.6C86.3 172.6 86.3 171.9 85.8 171.8C85.6 171.8 85.5 171.8 85.3 172C85.2 172 84.9 172.3 84.8 172.4C84.6 172.4 84.8 172.4 84.5 172.4C83.9 172.2 83.2 171.5 82.6 171.2L80.9 170.1L77.6 167.9L75.8 166.7C75.3 166.4 74.8 166.2 74.6 165.7C74.5 165.2 74.6 164.5 74.6 164V158C74.6 156.6 74.6 155.2 74.6 153.8C74.6 153.2 74.7 153.3 75.2 153.1C75.4 153 75.6 152.9 75.7 152.7L75 152.5V163.3C75 163.9 74.8 165 75 165.6C75.2 166.1 75.8 166.3 76.2 166.5C77.2 167.1 78.2 167.8 79.2 168.5C81.3 169.9 83.4 171.3 85.5 172.6C85.9 172.9 86.3 172.2 85.9 172L86 171.9Z" fill="#231F20"/>
<path d="M82 148.5V161.3C82 161.6 82 161.6 82.2 161.8C83.6 163 85.1 164.2 86.5 165.3C87.8 166.4 89.2 167.5 90.5 168.6C90.6 168.7 91.5 167.9 91.6 168C88.9 165.8 86.2 163.6 83.5 161.4C83.3 161.2 83.1 161.1 83 160.9C82.9 160.4 83 159.7 83 159.2V147.9C83 148.1 81.9 148.3 81.9 148.5H82Z" fill="#231F20"/>
<path d="M81.7 148.5V160.5C81.7 161.6 81.7 161.8 82.5 162.6C84.4 164.2 86.4 165.7 88.3 167.3L89.9 168.6C90.1 168.8 90.4 169.2 90.8 169.2C91.3 169.2 91.6 168.6 91.9 168.6C92.2 168.6 92.4 168.2 92.2 168C90.6 166.7 89.1 165.5 87.5 164.2L85 162.2C84.2 161.6 83.6 161.1 83.7 160C83.9 156.1 83.7 152.1 83.7 148.1C83.7 144.1 83.2 147.6 83 147.9C82.8 148.2 82.1 148.1 81.9 148.5C81.7 148.9 82.3 149.3 82.6 148.9C82.8 148.6 83.5 148.7 83.7 148.3L83 148.1V158C83 158.9 82.8 160 83 160.9C83 161.6 83.5 161.8 84 162.2C84.8 162.9 85.7 163.6 86.5 164.2C88.3 165.6 90 167.1 91.8 168.5L92.1 167.9C91.7 167.9 91.4 168.5 91 168.5C90.6 168.5 90.2 167.8 90 167.6L88.6 166.5C86.9 165.1 85.1 163.8 83.4 162.3C83 161.9 82.8 161.8 82.7 161.2C82.7 160.7 82.7 160.1 82.7 159.6V148.7C82.7 148.2 81.9 148.2 81.9 148.7L81.7 148.5Z" fill="#231F20"/>
<path d="M90.1 146.4V157.5C90.1 157.7 90.1 158.1 90.1 158.3C90.2 158.6 90.9 158.9 91.1 159.2L93.2 161C94.4 162 95.5 163 96.7 163.9C96.8 164 97.7 163.2 97.8 163.3C96.8 162.5 95.8 161.7 94.9 160.8L92.7 159C92.3 158.6 91.6 158.3 91.3 157.8C91.2 157.6 91.3 157.5 91.3 157.3V145.9C91.3 146.1 90.2 146.3 90.2 146.5L90.1 146.4Z" fill="#231F20"/>
<path d="M89.7 146.4V156.9C89.7 157.5 89.5 158.3 90 158.8C90.7 159.5 91.5 160 92.3 160.7L95 163C95.5 163.4 96.2 164.4 96.8 164.4C97 164.4 97.2 164.2 97.3 164.1C97.4 164.1 97.5 163.9 97.6 163.9C97.6 163.9 97.9 163.8 97.8 163.8C98.1 163.8 98.3 163.4 98.1 163.2C96.8 162.1 95.4 160.9 94.1 159.8C93.6 159.4 93.1 158.9 92.5 158.5C92.1 158.2 91.7 158 91.6 157.4C91.6 157 91.6 156.5 91.6 156.1V146C91.6 145.6 91.1 145.5 90.9 145.8C90.8 146.1 90 146 89.8 146.4C89.6 146.8 90.2 147.2 90.5 146.8C90.7 146.5 91.4 146.6 91.6 146.2L90.9 146V157.2C90.9 158.6 92.2 159.1 93.2 159.9C94.7 161.1 96.1 162.4 97.6 163.6L97.9 163C97.5 163 97.3 163.4 97 163.5C96.8 163.5 96.9 163.5 96.8 163.5C96.6 163.5 96.4 163.1 96.3 163.1L95.1 162.1L92.8 160.2C92.4 159.9 92 159.5 91.6 159.2C91.3 159 90.9 158.8 90.7 158.6C90.3 158.1 90.5 156.7 90.5 156.1V146.7C90.5 146.2 89.7 146.2 89.7 146.7V146.4Z" fill="#231F20"/>
<path d="M99 142.8C97.8 146.2 96.7 149.7 95.5 153.2L94.6 155.8C94.6 156 94.2 156.6 94.3 156.8C94.3 157.1 95.1 157.5 95.3 157.7L97.7 159.9C99.1 161.2 100.5 162.5 102 163.8C102 163.8 103 163.1 103.1 163.2C101.9 162.1 100.7 161 99.6 160L97 157.6L96.1 156.7C96 156.6 95.6 156.3 95.5 156.2C95.5 156 95.5 155.7 95.7 155.5L96.5 153.2L98.7 146.6L100.2 142.1C100.2 142.4 99.2 142.4 99.1 142.7L99 142.8Z" fill="#231F20"/>
<path d="M98.6 142.7C97.6 145.5 96.7 148.3 95.8 151.1L94.4001 155.1C94.2001 155.7 93.6 156.5 94 157.1C94.4 157.7 95.4001 158.3 95.9001 158.8C97.0001 159.8 98 160.7 99.1 161.7L100.8 163.2C101.1 163.4 101.5 164.1 101.9 164.1C102.4 164.2 102.8 163.5 103.1 163.5C103.4 163.5 103.6 163.1 103.4 162.9C101.9 161.6 100.5 160.2 99 158.9C98.2 158.2 97.5 157.5 96.7 156.8C96.4 156.5 96 156.4 96 155.9C96 155.6 96.3001 155 96.4001 154.7C97.8001 150.6 99.2 146.5 100.6 142.3C100.7 142 100.2 141.6 100 141.9C99.7 142.3 99.1 142.2 98.8 142.6C98.5 143 99.2 143.4 99.5 143C99.7 142.7 100.3 142.8 100.6 142.4L100 142C98.5 146.5 96.9001 151 95.4001 155.4C95.2001 156 95.2 156.2 95.6 156.6C96.4 157.3 97.2 158 98 158.7C99.7 160.2 101.3 161.7 103 163.3L103.3 162.7C102.9 162.7 102.5 163.4 102.2 163.3C102.2 163.3 101.8 162.8 101.7 162.7L101.1 162.1L99.7 160.9C98.8 160.1 97.9 159.2 97 158.4C96.6 158 96.1 157.6 95.7 157.2C95.4 157 95 156.8 95 156.5C95 156.2 95.3001 155.6 95.4001 155.3C95.6001 154.7 95.8 154.2 96 153.6L97.2 150.1C98 147.6 98.9 145.2 99.7 142.7C99.9 142.2 99.1 142.1 99 142.5L98.6 142.7Z" fill="#231F20"/>
<path d="M107.4 144.5C105.7 147.1 104 149.8 102.3 152.4L101 154.3C101 154.4 100.5 154.8 100.6 155C100.6 155.2 101.5 155.8 101.7 156L103.8 157.9C105 159 106.2 160.1 107.5 161.2C107.5 161.2 108.5 160.5 108.6 160.6C107.6 159.7 106.6 158.7 105.5 157.8L103.3 155.8L102.5 155C102.3 154.9 102 154.7 101.9 154.5C101.8 154.3 101.9 154.3 102 154L103.1 152.3C104.2 150.6 105.3 149 106.3 147.3C107.1 146.1 107.8 145 108.5 143.8C108.3 144.1 107.6 144.1 107.4 144.4V144.5Z" fill="#231F20"/>
<path d="M107.1 144.3C105.7 146.5 104.3 148.6 102.9 150.8C102.2 151.9 101.5 153.1 100.7 154.2C100.4 154.6 100 155 100.4 155.5C100.9 156.1 101.7 156.6 102.3 157.2C103.2 158 104.1 158.9 105.1 159.7L106.4 160.9C106.6 161.1 107 161.6 107.4 161.7C107.6 161.7 107.8 161.6 108 161.5C108.1 161.5 108.2 161.3 108.3 161.3C108.3 161.3 108.7 161.1 108.5 161.1C108.8 161.1 109 160.7 108.8 160.5C107.4 159.2 106 158 104.6 156.7C104 156.1 103.4 155.6 102.7 155C102.7 155 102.1 154.6 102.1 154.5C102.1 154.4 102.6 153.7 102.7 153.5C104.7 150.4 106.7 147.3 108.7 144.2C108.9 143.8 108.4 143.4 108.1 143.8C107.8 144.2 107.3 144.1 107 144.4C106.7 144.8 107.2 145.3 107.5 144.9C107.8 144.6 108.3 144.6 108.6 144.3L108 143.9C106.9 145.7 105.7 147.4 104.6 149.2L103 151.7C102.5 152.5 101.8 153.4 101.3 154.2C101.1 154.6 101.3 154.8 101.5 155.1C102 155.7 102.7 156.2 103.3 156.7C104.9 158.1 106.5 159.6 108.1 161L108.4 160.4C108 160.4 107.6 161 107.3 161C107.1 161 106.5 160.2 106.3 160L105.1 158.9C104.3 158.2 103.5 157.5 102.7 156.7C102.4 156.4 102 156.1 101.7 155.8C101.5 155.7 101.1 155.4 101 155.2C101 155.1 101 155.2 101 155.1C101 155.1 101.2 154.8 101.3 154.7C101.6 154.3 101.9 153.8 102.2 153.3L103.9 150.6C105.1 148.7 106.4 146.7 107.7 144.8C108 144.4 107.3 144 107 144.4L107.1 144.3Z" fill="#231F20"/>
<path d="M112.8 147.2C111.7 149.2 110.5 151.2 109.4 153.2L110.5 152.6C105 153.4 99.6 154.9 94.4 156.6C89.5 158.2 84.8 160.2 80.3 162.7C75.5 165.3 70.9 168.3 67 172C62.2 176.5 58.5 181.9 56.5 188.2C56.5 187.9 57.5 187.9 57.6 187.6C59.5 181.5 63.2 176.1 67.8 171.7C72.4 167.3 78 163.8 83.8 161.1C88.7 158.9 93.8 157.1 98.9 155.6C102 154.7 105.1 154 108.3 153.5C109.1 153.4 109.7 153.3 110.3 152.8C110.8 152.4 111.2 151.4 111.5 150.8L113.4 147.4L113.8 146.7C113.6 147 112.9 147 112.7 147.3L112.8 147.2Z" fill="#231F20"/>
<path d="M112.4 147C111.3 149 110.1 151 109 153C108.8 153.3 109.2 153.7 109.5 153.5L110.6 152.9C111 152.7 110.7 152.2 110.3 152.2C101 153.5 91.7 156.6 83.3 160.6C75.5 164.4 67.9 169.3 62.4 176.2C59.6 179.8 57.4 183.8 56 188.1C55.9 188.4 56.4 188.7 56.6 188.5C57 188 57.6 188.2 57.9 187.5C58.4 186.4 58.7 185.1 59.2 184C60.2 181.8 61.4 179.8 62.7 177.9C65.6 173.8 69.3 170.3 73.4 167.4C81.9 161.3 92 157.6 102.1 155.2C103.7 154.8 105.2 154.5 106.8 154.2C107.9 154 109.1 154 110 153.4C110.9 152.9 111.2 151.9 111.7 151C112.4 149.6 113.3 148.3 114 146.9C114.2 146.5 113.7 146.1 113.4 146.5C113.1 146.9 112.6 146.8 112.3 147.1C112 147.4 112.5 148 112.8 147.6C113.1 147.3 113.6 147.3 113.9 147L113.3 146.6C112.6 147.7 112 148.9 111.3 150C110.7 151.1 110.3 152.6 109 153C107.8 153.4 106.5 153.5 105.3 153.7C104 154 102.6 154.3 101.3 154.6C96.1 155.9 90.9 157.6 86 159.7C77.2 163.4 68.9 168.6 63 176.2C61.5 178.1 60.2 180.2 59 182.5C58.5 183.6 58 184.6 57.6 185.8C57.4 186.4 57.2 187.4 56.6 187.8C56.4 188 56.1 188 55.9 188.2L56.5 188.6C61.9 171.7 79.2 162.2 95 157C100 155.4 105 154 110.2 153.3L109.9 152.6L108.8 153.2L109.3 153.7C110.4 151.7 111.6 149.7 112.7 147.7C112.9 147.3 112.3 146.9 112 147.3L112.4 147Z" fill="#231F20"/>
<path d="M114.4 155.9C113.3 154.9 112.1 153.9 111 152.9L110.5 152.5C110.5 152.5 110 152.8 109.9 152.8C109.8 152.8 109.4 153.2 109.3 153.1C110.4 154.1 111.6 155.1 112.7 156.1L113.2 156.5C113.2 156.5 113.7 156.2 113.8 156.2C113.9 156.2 114.3 155.8 114.4 155.9Z" fill="#231F20"/>
<path d="M114.6 155.6C113.5 154.6 112.3 153.6 111.2 152.6C111 152.4 110.7 152.1 110.4 152.1C110.1 152.1 110 152.2 109.9 152.3C109.9 152.3 109.7 152.4 109.6 152.5L109.4 152.6C109.4 152.6 109.4 152.6 109.3 152.6C109 152.6 108.8 153 109 153.2C110.1 154.2 111.3 155.2 112.4 156.2C112.6 156.4 112.9 156.7 113.2 156.7C113.5 156.7 113.6 156.6 113.7 156.5C113.7 156.5 113.9 156.4 114 156.3L114.2 156.2C114.2 156.2 114.2 156.2 114.3 156.2C114.8 156.2 114.8 155.5 114.3 155.4C114.1 155.4 113.8 155.6 113.6 155.8C113.6 155.8 113.5 155.8 113.4 155.9C113.4 155.9 113.3 155.9 113.2 156H113.4C113.5 156 113.5 156 113.4 156L113.2 155.7L112.8 155.3L111.8 154.4C111.1 153.8 110.5 153.3 109.8 152.7L109.5 153.3C109.7 153.3 110 153.1 110.2 152.9C110.2 152.9 110.3 152.9 110.4 152.8C110.4 152.8 110.5 152.8 110.6 152.7H110.4C110.3 152.7 110.3 152.7 110.4 152.7L110.6 153L111 153.4L112 154.3C112.7 154.9 113.3 155.4 114 156C114.4 156.3 114.9 155.8 114.5 155.5L114.6 155.6Z" fill="#231F20"/>
<path d="M57.1 193.2C60.6 190.2 64 187.2 67.4 184.1C67.9 183.7 68.4 183.2 68.9 182.8C68.6 183.1 68.1 183.2 67.8 183.4C64.3 186.4 60.9 189.4 57.5 192.5C57 192.9 56.5 193.4 56 193.8C56.3 193.5 56.8 193.4 57.1 193.2Z" fill="#231F20"/>
<path d="M57.4 193.5C61.3 190 65.3 186.6 69.2 183.1C69.5 182.8 69.1 182.2 68.7 182.5C68.3 182.8 67.8 183 67.4 183.3C66.8 183.8 66.2 184.3 65.7 184.8C64.6 185.8 63.5 186.8 62.4 187.7C60.2 189.6 58 191.6 55.8 193.5C55.5 193.8 55.9 194.4 56.3 194.1C56.7 193.8 57.1 193.7 57.4 193.5C57.8 193.2 57.4 192.6 57 192.9C56.7 193.2 56.2 193.3 55.9 193.5L56.4 194.1C58.6 192.2 60.7 190.3 62.8 188.4C63.8 187.5 64.9 186.5 66 185.6C66.5 185.1 67.1 184.6 67.6 184.2C67.9 184 68.1 183.7 68.5 183.5C68.7 183.4 69 183.3 69.2 183.1L68.7 182.5C64.8 186 60.8 189.4 56.9 192.9C56.5 193.2 57.1 193.8 57.4 193.4V193.5Z" fill="#231F20"/>
<path d="M13.8 171.2C16.2 171 18.6 170.9 20.9 170.7H21.9C22.1 170.7 22.3 170.4 22.5 170.3C22.7 170.2 22.9 170 23.1 170C20.7 170.2 18.3 170.3 16 170.5H15C14.8 170.5 14.6 170.8 14.4 170.9C14.2 171 14 171.2 13.8 171.2Z" fill="#231F20"/>
<path d="M13.8 171.5C15.6 171.4 17.3 171.3 19.1 171.1C19.9 171.1 20.8 171 21.6 170.9C21.9 170.9 22.1 170.9 22.4 170.7C22.6 170.6 22.9 170.3 23.1 170.2C23.5 170.1 23.4 169.4 23.1 169.5C21.3 169.6 19.6 169.7 17.8 169.9L15.3 170.1C15 170.1 14.8 170.1 14.5 170.3C14.3 170.4 14 170.7 13.8 170.8C13.3 170.9 13.5 171.6 14 171.5C14.2 171.5 14.4 171.3 14.7 171.1C15 170.9 15.2 170.8 15.6 170.8L18.1 170.6C19.8 170.5 21.5 170.4 23.2 170.2V169.5C22.9 169.5 22.7 169.7 22.4 169.9C22.1 170.1 21.9 170.2 21.5 170.2C20.7 170.2 19.8 170.3 19 170.4C17.3 170.5 15.6 170.6 13.9 170.8C13.4 170.8 13.4 171.6 13.9 171.6L13.8 171.5Z" fill="#231F20"/>
<path d="M17 178.9H35.1C35.5 178.9 35.9 178.3 36.2 178.3H18.1C17.7 178.3 17.3 178.9 17 178.9Z" fill="#231F20"/>
<path d="M17 179.2H32.5C33.3 179.2 34.3 179.3 35.1 179.2C35.6 179.2 35.9 178.7 36.3 178.5C36.7 178.4 36.6 177.8 36.3 177.8H20.8C20 177.8 19 177.7 18.2 177.8C17.7 177.8 17.4 178.3 17 178.5C16.6 178.7 16.7 179.3 17.2 179.2C17.4 179.2 17.5 179.1 17.7 179C18.1 178.8 18.5 178.6 19 178.6C19.7 178.6 20.5 178.6 21.2 178.6H36.4V177.9C36.1 177.9 36 178 35.8 178.1C35.4 178.3 35 178.5 34.5 178.5C33.8 178.5 33 178.5 32.3 178.5H17.1C16.6 178.5 16.6 179.2 17.1 179.2H17Z" fill="#231F20"/>
<path d="M26.1 158.6C26.1 162.7 26.1 166.9 26.1 171V172.8C26.1 172.6 27.2 172.4 27.2 172.2C27.2 168.1 27.2 163.9 27.2 159.8V158C27.2 158.2 26.1 158.4 26.1 158.6Z" fill="#231F20"/>
<path d="M25.7 158.6C25.7 163.4 25.7 168.1 25.7 172.8C25.7 173.1 26.2 173.4 26.4 173C26.4 172.8 27.1 172.7 27.3 172.6C27.6 172.3 27.5999 172 27.5999 171.6C27.5999 170.1 27.5999 168.5 27.5999 167C27.5999 164 27.5999 161 27.5999 157.9C27.5999 154.8 27.1 157.3 26.9 157.7C26.9 157.8 26.2999 157.9 26.0999 158C25.8999 158.1 25.8 158.2 25.7 158.4C25.5 158.8 26.2 159 26.4 158.6C26.4 158.6 26.8999 158.5 27.0999 158.4C27.2999 158.4 27.4 158.2 27.5 158.1L26.8 157.9C26.8 160.8 26.8 163.6 26.8 166.5C26.8 169.4 26.8 169.5 26.8 170.9C26.8 171.1 26.8 171.6 26.8 171.8C26.8 172 26.6 172 26.4 172.1C26.2 172.2 25.9 172.3 25.8 172.5L26.5 172.7C26.5 167.9 26.5 163.2 26.5 158.5C26.5 158 25.7 158 25.7 158.5V158.6Z" fill="#231F20"/>
<path d="M31.3 161.2C31.2 165.5 31.1 169.8 30.9 174.1C30.9 174.7 30.9 175.3 30.9 176C30.9 175.8 32 175.6 32 175.4C32.1 171.1 32.2 166.8 32.4 162.5C32.4 161.9 32.4 161.3 32.4 160.6C32.4 160.8 31.3 161 31.3 161.2Z" fill="#231F20"/>
<path d="M30.9 161.2C30.8 166.1 30.6 171 30.5 175.9C30.5 176.3 31 176.4 31.2 176.1C31.2 175.9 31.9 175.8 32.1 175.7C32.4 175.4 32.4 175.1 32.4 174.6C32.4 173 32.4 171.4 32.5 169.9C32.5 166.8 32.7 163.7 32.8 160.5C32.8 160.1 32.3 160 32.1 160.3C32.1 160.4 31.5 160.5 31.3 160.6C31.1 160.7 31 160.8 30.9 161C30.7 161.4 31.4 161.6 31.6 161.2C31.6 161.2 32.1 161.1 32.3 161C32.5 161 32.6 160.8 32.7 160.6L32 160.4C32 163.4 31.8 166.3 31.8 169.3C31.8 170.8 31.8 172.4 31.7 173.9C31.7 174.1 31.7 174.6 31.7 174.8C31.7 175 31.5 175 31.3 175.1C31.1 175.2 30.8 175.3 30.6 175.5L31.3 175.7C31.4 170.8 31.6 165.9 31.7 161C31.7 160.5 31 160.5 30.9 161V161.2Z" fill="#231F20"/>
<path d="M37 167V180.3C37 180.1 38.1 179.9 38.1 179.7V166.4C38.1 166.6 37 166.8 37 167Z" fill="#231F20"/>
<path d="M36.7 167V180.3C36.7 180.8 37.3 180.8 37.4 180.4C37.4 180.6 37.7 180.4 37.8 180.4C37.9 180.4 38.1 180.3 38.2 180.2C38.5 180 38.5 179.8 38.5 179.4C38.5 178 38.5 176.5 38.5 175.1V166.4C38.5 166 37.9 165.9 37.8 166.3C37.8 166.1 37.5 166.3 37.4 166.3C37.3 166.3 37.2 166.3 37.1 166.4C36.9 166.5 36.8 166.6 36.7 166.8C36.5 167.2 37.3 167.4 37.4 167C37.4 167.1 37.7 167 37.8 167C37.9 167 38 167 38.1 166.9C38.3 166.8 38.4 166.7 38.5 166.5H37.8C37.8 166.4 37.8 179 37.8 179C37.8 179.2 37.8 179.5 37.8 179.6C37.7 179.7 37.4 179.7 37.3 179.8C37.1 179.9 36.9 180 36.8 180.3H37.5C37.5 180.4 37.5 167.1 37.5 167.1C37.5 166.6 36.7 166.6 36.7 167.1V167Z" fill="#231F20"/>
<path d="M43.3 172.9C43.2 177 43.1 181.2 43 185.3L44.1 184.7H27.3C26.9 184.7 26.5 185.3 26.2 185.3H43C43.1 185.3 44.1 184.7 44.1 184.7C44.2 180.6 44.3 176.4 44.4 172.3C44.4 172.5 43.3 172.7 43.3 172.9Z" fill="#231F20"/>
<path d="M42.9 172.9C42.8 177 42.6999 181.2 42.5999 185.3C42.5999 185.6 42.9 185.8 43.2 185.6L44.3 185C44.6 184.8 44.4999 184.3 44.0999 184.3H29.4C28.7 184.3 27.8 184.2 27.2 184.3C26.7 184.3 26.4999 184.8 26.0999 184.9C25.6999 185 25.7999 185.6 26.0999 185.6H41.0999C41.6999 185.6 42.4 185.7 43 185.6C43.4 185.6 44.1 185.2 44.3 184.8C44.5 184.4 44.3 183.7 44.4 183.3C44.4 182.6 44.4 181.8 44.4 181.1C44.4 178.1 44.5999 175.1 44.5999 172.2C44.5999 171.8 44.1 171.7 43.9 172C43.8 172.3 43 172.2 42.8 172.6C42.6 173 43.2 173.4 43.5 173C43.7 172.7 44.3999 172.8 44.5999 172.4L43.9 172.2C43.9 174.9 43.7 177.6 43.7 180.2C43.7 181.5 43.6999 182.8 43.5999 184C43.5999 184.3 43.5999 184.2 43.5999 184.4C43.5999 184.4 43.1999 184.6 43.0999 184.7C42.5999 184.9 42.0999 184.8 41.5999 184.8H26V185.5C26.6 185.4 26.9 184.9 27.5 184.9C28.2 184.9 28.8999 184.9 29.5999 184.9H43.9L43.7 184.2L42.5999 184.8L43.2 185.1C43.3 181 43.4 176.8 43.5 172.7C43.5 172.2 42.8 172.2 42.7 172.7L42.9 172.9Z" fill="#231F20"/>
<path d="M33.9 196C38.4 195 42.9 193.9 47.4 192.9L49.4 192.4C49.6 192.4 50.5 191.9 50.5 191.8C51.7 187.7 53 183.6 54.2 179.6C54.2 179.9 53.2 179.9 53.1 180.2C51.9 184.3 50.6 188.4 49.4 192.4L50.5 191.8C46 192.8 41.5 193.9 37 194.9C36.3 195 35.7 195.2 35 195.4C34.6 195.4 34.3 195.9 33.9 196Z" fill="#231F20"/>
<path d="M34 196.4C36.7 195.8 39.4 195.2 42.1 194.5L46.2 193.6C47.3 193.3 48.6 193.2 49.7 192.8C50.2 192.6 50.7 192.4 50.9 192C51.2 191.4 51.3 190.5 51.5 189.9L52.1 188C52.9 185.3 53.8 182.5 54.6 179.8C54.7 179.4 54.1 179.2 53.9 179.5C53.8 179.7 53.3 179.7 53.1 179.8C52.8 180 52.8 180.1 52.7 180.4C52.2 181.7 51.9 183.1 51.5 184.4C50.7 187.1 49.9 189.8 49.1 192.4C49.1 192.7 49.4 193 49.6 192.8L50.7 192.2C51.1 192 50.8 191.4 50.4 191.5C47.5 192.2 44.6 192.8 41.7 193.5C40.3 193.8 38.9 194.1 37.5 194.5C36.8 194.7 36.1 194.8 35.3 195C34.7 195.2 34.4 195.5 33.8 195.7C33.4 195.9 33.6 196.6 34 196.4C34.5 196.2 34.9 195.8 35.5 195.7C36.1 195.5 36.8 195.4 37.5 195.2C39 194.9 40.5 194.5 42 194.2C44.9 193.5 47.8 192.9 50.7 192.2L50.4 191.5L49.3 192.1L49.8 192.5C50.6 190 51.3 187.4 52.1 184.9C52.5 183.7 52.8 182.5 53.2 181.3C53.2 181.1 53.3 180.5 53.5 180.4C53.6 180.3 53.9 180.3 54 180.2C54.2 180.1 54.4 180 54.5 179.8L53.8 179.5C53.1 181.9 52.3 184.3 51.6 186.8C51.2 188.1 50.8 189.3 50.4 190.6C50.2 191.1 50.2 191.5 49.8 191.8C49.5 192.1 49 192.1 48.6 192.2C43.6 193.3 38.7 194.5 33.7 195.6C33.2 195.7 33.4 196.4 33.9 196.3L34 196.4Z" fill="#231F20"/>
<path d="M46 201.8C48.5 203.9 51 205.9 53.5 208C53.9 208.3 54.2 208.6 54.6 208.9C54.7 209 55.6 208.2 55.7 208.3C53.2 206.2 50.7 204.2 48.2 202.1C47.8 201.8 47.5 201.5 47.1 201.2C47 201.1 46.1 201.9 46 201.8Z" fill="#231F20"/>
<path d="M45.7 202C47.7 203.6 49.7 205.3 51.7 206.9L53.2 208.1L53.9001 208.7C54.1001 208.8 54.3 209.1 54.5 209.2C54.7 209.3 55 209.2 55.2 209C55.3 209 55.5 208.8 55.6 208.7C55.6 208.7 55.7 208.7 55.8 208.6C55.9 208.5 56 208.6 55.8 208.6C56.1 208.7 56.5 208.2 56.2 208C54.2 206.4 52.2 204.7 50.2 203.1L48.7 201.9L48 201.3C47.8 201.2 47.6001 200.9 47.4001 200.8C47.2001 200.7 46.9 200.8 46.7 201C46.6 201 46.4 201.2 46.3 201.3C46.3 201.3 46.2 201.3 46.1 201.4C45.9 201.4 46 201.5 46.1 201.4C45.6 201.3 45.4001 202 45.9001 202.1C46.1001 202.1 46.4 202.1 46.6 201.9C46.7 201.9 46.8001 201.7 46.9001 201.6C46.9001 201.6 47 201.6 47.1 201.5C46.9 201.5 47.3 201.7 47.3 201.7L47.6 201.9L48.3 202.5C48.8 202.9 49.3 203.3 49.8 203.7C51.7 205.3 53.6 206.9 55.5 208.4L55.9001 207.8C55.7001 207.8 55.4 207.8 55.2 208C55.1 208 55.0001 208.2 54.9001 208.3C54.9001 208.3 54.8 208.3 54.7 208.4C54.9 208.4 54.5 208.2 54.5 208.2L54.2 208L53.5 207.4C53 207 52.5 206.6 52 206.2C50.1 204.6 48.2 203 46.3 201.5C45.9 201.2 45.4 201.7 45.8 202H45.7Z" fill="#231F20"/>
<path d="M46.9 208.9C49.2 211.4 51.4 213.9 53.7 216.3C53.7 216.3 54.7 215.7 54.8 215.7C57.9 212.8 61.1 209.9 64.2 207.1C64.7 206.7 65.1 206.3 65.5 205.9C65.2 206.2 64.7 206.3 64.4 206.5C61.3 209.4 58.1 212.3 55 215.1C54.5 215.5 54.1 215.9 53.7 216.3L54.8 215.7C52.5 213.2 50.3 210.7 48 208.3C48 208.3 46.9 209 46.9 208.9Z" fill="#231F20"/>
<path d="M46.7 209.1C49 211.6 51.2 214.1 53.5 216.5C53.5 216.6 53.7 216.6 53.9 216.6C54.5 216.5 55 216 55.4 215.6C56.6 214.5 57.7 213.5 58.9 212.4C61.2 210.3 63.6 208.1 65.9 206C66.2 205.7 65.8 205.2 65.4 205.4C65 205.7 64.6 205.8 64.2 206.1C63.7 206.5 63.2 207 62.7 207.5C61.7 208.5 60.6 209.4 59.6 210.3C57.5 212.2 55.5 214.1 53.4 216C53.1 216.3 53.4 216.8 53.9 216.6L55 216C55.2 215.9 55.2 215.6 55 215.4C53.2 213.5 51.5 211.5 49.7 209.6C49.3 209.1 48.9 208.7 48.4 208.2C48.2 208 48.1 207.8 47.8 207.8C47.6 207.8 47.4 208 47.2 208.1C47.1 208.1 47 208.3 46.9 208.3C46.9 208.3 46.6 208.4 46.7 208.4C46.2 208.4 46.2 209.2 46.7 209.2C47.1 209.2 47.4 208.8 47.7 208.6C47.7 208.6 48 209 48.2 209.1L49.5 210.5C51.1 212.2 52.7 214 54.3 215.7V215.1L53.3 215.7L53.8 216.3C55.8 214.5 57.8 212.7 59.7 210.9C60.7 210 61.7 209.1 62.7 208.2C63.2 207.8 63.6 207.4 64 207C64.5 206.5 65 206.3 65.6 205.9L65.1 205.3C62.9 207.3 60.8 209.2 58.6 211.2C57.5 212.2 56.4 213.2 55.4 214.2C54.9 214.7 54.1 215.6 53.4 215.7H53.8C51.5 213.3 49.3 210.8 47 208.4C46.7 208 46.1 208.6 46.5 208.9L46.7 209.1Z" fill="#231F20"/>
<path d="M42.4 214.3C45.4 217.1 48.3 219.9 51.3 222.7C51.7 223.1 52.2 223.5 52.6 223.9C52.6 223.9 53.6 223.2 53.7 223.3C50.7 220.5 47.8 217.7 44.8 214.9C44.4 214.5 43.9 214.1 43.5 213.7C43.5 213.7 42.5 214.4 42.4 214.3Z" fill="#231F20"/>
<path d="M42.2 214.6C44.4 216.7 46.7001 218.8 48.9001 221C50.0001 222 51.1 223.1 52.2 224.1C52.5 224.3 52.7 224.4 53 224.2C53.2 224.2 53.3 224 53.5 223.9C53.5 223.9 53.7 223.9 53.7 223.8C53.8 223.7 53.9 223.8 53.7 223.8C54 223.8 54.4 223.4 54.1 223.2C51.9 221.1 49.6001 219 47.4001 216.8C46.3001 215.8 45.2 214.7 44.1 213.7C43.8 213.5 43.6 213.4 43.3 213.6C43.1 213.6 43 213.8 42.8 213.9C42.8 213.9 42.6 213.9 42.6 214C42.4 214 42.5 214.1 42.6 214C42.1 213.9 41.9001 214.6 42.4001 214.7C42.7001 214.7 42.9 214.6 43.1 214.4C43.3 214.3 43.4 214.2 43.5 214.1C43.6 214 43.6 214.1 43.5 214.1C43.3 214.1 43.4 214.1 43.5 214.3H43.7C44.8 215.5 45.9001 216.5 46.9001 217.5C49.1001 219.5 51.2001 221.6 53.4001 223.6L53.8 223C53.5 223 53.3 223.1 53.1 223.3C52.9 223.4 52.8 223.5 52.7 223.6C52.6 223.6 52.6 223.7 52.7 223.6C52.9 223.6 52.8 223.6 52.7 223.4H52.5C51.4 222.2 50.3 221.2 49.3 220.2C47.1 218.2 45 216.1 42.8 214.1C42.5 213.8 41.9 214.3 42.3 214.6H42.2Z" fill="#231F20"/>
<path d="M53.2 229.4C56.3 226.4 59.5 223.4 62.6 220.4L63.9 219.1C63.6 219.4 63.1 219.5 62.8 219.7C59.7 222.7 56.5 225.7 53.4 228.7L52.1 230C52.4 229.7 52.9 229.6 53.2 229.4Z" fill="#231F20"/>
<path d="M53.5 229.7C57.1 226.3 60.7 222.9 64.3 219.5C64.7 219.2 64.1 218.7 63.8 219C63.4 219.3 62.9 219.4 62.5 219.8C62 220.3 61.5 220.7 61 221.2L57.9 224.1C55.9 226 53.9 228 51.8 229.9C51.4 230.2 52 230.7 52.3 230.4C52.6 230.1 53.1 230 53.4 229.8C53.8 229.5 53.2 229 52.9 229.3C52.6 229.6 52.1 229.7 51.8 229.9L52.3 230.4C54.3 228.5 56.3 226.5 58.4 224.6L61.4 221.7L62.9 220.3C63.3 219.9 63.8 219.8 64.3 219.4L63.8 218.9C60.2 222.3 56.6 225.7 53 229.1C52.7 229.4 53.2 230 53.5 229.6V229.7Z" fill="#231F20"/>
</svg>
