<svg width="155" height="265" viewBox="0 0 155 265" fill="none" xmlns="http://www.w3.org/2000/svg">
<path d="M81 263.1C80.8 261.7 80.8 260.2 80.7 258.8C80.5 255 80.3 251.1 80.3 247.3C80.3 241.8 80.3 236.3 80.6 230.8C80.9 224.3 81.5 217.8 82.4 211.3C83.4 204.5 84.7 197.8 86.6 191.2C88.5 184.6 90.9 178.4 94.1 172.4C95.9 169.1 98 166.1 100.1 163C102.7 159.3 105.3 155.7 107.9 152.1C111.5 147.1 115.3 142.2 119.1 137.3C121.1 134.8 123.1 132.4 125.3 130.1C126 129.3 126.9 128.7 127.6 127.9C127.3 128.1 126.8 128.3 126.5 128.5C126 128.9 125.5 129.4 125 129.9C123.2 131.7 121.5 133.7 119.8 135.7C116.4 139.8 113.1 144 109.9 148.3C107.5 151.5 105.1 154.8 102.8 158.1C100.2 161.7 97.6 165.3 95.2 169C91.6 174.6 88.9 180.7 86.8 187C84.6 193.5 83 200.2 81.8 207C80.7 213.5 79.9 220.1 79.5 226.7C79.1 232.5 78.9 238.3 78.9 244.2C78.9 248.5 79 252.8 79.2 257.1C79.2 258.5 79.4 259.9 79.5 261.2C79.5 261.9 79.5 262.7 79.7 263.4C79.7 263.4 79.7 263.6 79.7 263.7C79.7 263.5 80.8 263.2 80.8 263.1H81Z" fill="#231F20"/>
<path d="M81.4 263.1C80.5 253.5 80.3999 243.6 80.6999 234C81.0999 224.1 82 214.2 83.8 204.4C85.6 195 88.0999 185.7 92.1999 177C96.1999 168.4 102.1 160.8 107.6 153.2C110.9 148.7 114.2 144.2 117.7 139.8C119.4 137.7 121.1 135.6 122.9 133.5C124.5 131.7 126.1 129.7 128 128.2C128.3 127.9 128 127.4 127.6 127.6C125.7 128.8 124.3 130.3 122.8 132C121.2 133.8 119.7 135.6 118.1 137.5C115 141.3 112.1 145.2 109.2 149.1C106.3 153 103.3 157.3 100.3 161.4C97.3 165.5 94.6999 169.3 92.4999 173.5C83.3999 190.6 80.3 210.8 79.3 229.9C78.7 241.1 78.5999 252.5 79.6999 263.7C79.6999 264.1 80.2 264.2 80.4 263.9C80.6 263.6 81.2999 263.7 81.4999 263.3C81.6999 262.9 81.1 262.5 80.8 262.9C80.6 263.2 79.8999 263.2 79.6999 263.5L80.4 263.7C79.5 254 79.3999 244.2 79.6999 234.5C80.0999 224.5 81 214.5 82.9 204.7C84.8 194.9 87.3 185.9 91.4 177.3C95.5 168.7 101.4 161 107 153.4C110.3 148.9 113.7 144.4 117.2 140C118.9 137.9 120.6 135.8 122.3 133.8C124 131.8 125.8 129.7 128 128.4L127.6 127.8C126 129.1 124.5 130.8 123.2 132.4C121.6 134.3 120 136.2 118.5 138.1C115.4 141.9 112.4 145.9 109.5 149.8C106.6 153.7 103.7 157.7 100.9 161.7C98.1 165.7 95.3999 169.6 93.1999 173.8C84.3999 190.9 81.4 210.7 80.4 229.7C79.8 240.8 79.8 252.1 80.8 263.2C80.8 263.7 81.5999 263.7 81.5999 263.2L81.4 263.1Z" fill="#231F20"/>
<path d="M113.7 67.4C112 69.8 110.4 72.3 108.8 74.8C105 80.7 101.3 86.7 97.8 92.7C93.7 99.8 89.9 107.1 86.6 114.6C84 120.7 81.6 127.2 80.9 133.8C80.4 138.9 80.2 144 80 149.1C79.7 156.1 79.6 163.1 79.4 170.1C79.3 177.8 79.2 185.5 79.1 193.2C79.1 200.4 79.1 207.7 79.1 214.9C79.1 222.1 79.1 226.1 79.1 231.6C79.1 234.4 79.1 237.2 79.1 240V240.4C79.1 240.2 80.2 240 80.2 239.8C80.2 237.9 80.2 235.9 80.2 234C80.2 229 80.2 223.9 80.2 218.9C80.2 213.9 80.2 205.1 80.2 198.1C80.2 190.4 80.3 182.7 80.4 175C80.5 167.8 80.6 160.5 80.9 153.3C81.1 147.6 81.3 141.9 81.7 136.3C81.9 133.9 82.1 131.6 82.6 129.3C83.3 125.9 84.4 122.6 85.6 119.3C88.4 111.7 92.1 104.4 96 97.2C99.6 90.6 103.5 84.1 107.5 77.8C109.8 74.2 112.1 70.7 114.4 67.2C114.5 67 114 67.2 114.1 67.1C113.9 67.4 113.9 67.1 113.7 67.4Z" fill="#231F20"/>
<path d="M113.4 67.2C106.7 76.8 100.6 86.8 94.9 97.1C92.1 102.2 89.5 107.3 87.1 112.5C84.9 117.5 82.8 122.6 81.5 127.9C80.2 133.5 80 139.4 79.7 145.2C79.4 151.3 79.2 157.5 79.1 163.6C78.8 175.6 78.7 187.6 78.7 199.6C78.7 213.2 78.7 226.8 78.7 240.4C78.7 240.8 79.2 240.9 79.4 240.6C79.7 240.2 80.3 240.4 80.5 239.9C80.7 239.4 80.5 238.4 80.5 237.9C80.5 237.1 80.5 236.3 80.5 235.5C80.5 232.4 80.5 229.3 80.5 226.3C80.5 220.2 80.5 214.2 80.5 208.1C80.5 195.8 80.6 183.5 80.8 171.2C81 158.9 81.1 146.5 82.2 134.3C82.8 128.2 84.6 122.5 86.9 116.9C89.2 111.3 91.8 106 94.6 100.7C97.8 94.8 101.1 89 104.6 83.3C106.4 80.4 108.2 77.6 110 74.7C110.9 73.3 111.9 71.8 112.8 70.4C113.2 69.7 113.7 69 114.2 68.4C114.4 68.1 114.9 67.7 114.8 67.2C114.8 67 114.6 66.9 114.4 66.9H114.1L114.5 67.2C114.5 66.8 114.1 66.8 113.9 67C113.8 67 113.6 67.2 113.5 67.3C113.1 67.6 113.7 68.2 114 67.8C114 67.8 114.3 67.6 114.4 67.5L113.8 67.3C113.8 67.5 114 67.7 114.2 67.7H114.5L114.1 67.4C114.1 67.4 112.9 69.1 112.8 69.2C112.4 69.7 112.1 70.3 111.7 70.8C110.8 72.2 109.9 73.5 109 74.9C107.4 77.4 105.8 79.9 104.2 82.5C101.1 87.6 98 92.8 95.2 98.1C92.4 103.2 89.8 108.3 87.5 113.7C85.2 119.1 83.2 124.3 82.1 129.9C81 135.5 80.9 141.7 80.7 147.5C80.5 153.6 80.3 159.8 80.2 165.9C80 178 79.8 190.2 79.8 202.3C79.8 209.2 79.8 216.1 79.8 223C79.8 226.4 79.8 229.8 79.8 233.2C79.8 234.8 79.8 236.4 79.8 238.1C79.8 238.4 79.8 238.7 79.8 239.1C79.8 239.7 79.8 239.8 79.4 240.1C79.1 240.3 78.9 240.3 78.7 240.5L79.4 240.7C79.2 216.8 79.3 192.8 79.7 168.9C79.8 162.9 80 156.9 80.2 150.9C80.4 145 80.6 139.1 81.3 133.2C82 127.3 84 122 86.2 116.6C88.4 111.2 91 106 93.7 100.9C99.8 89.5 106.6 78.3 114 67.7C114.3 67.3 113.6 66.9 113.3 67.3L113.4 67.2Z" fill="#231F20"/>
<path d="M74.6 32.5C77.5 39.3 79.7001 46.4 81.5001 53.5C85.0001 66.9 87.2001 81.3 84.8001 95.1C83.8001 100.7 81.8 106.1 80.1 111.5C78.5 116.8 76.9 122.1 75.6 127.6C72.5 140.3 70.8 153.3 70.7 166.3C70.5 183.4 73 200.4 77.1 216.9C77.7 219.3 78.4001 221.8 79.0001 224.2C79.0001 224.2 80.1 223.7 80.1 223.6C75.3 206.5 72.1 188.9 71.7 171.1C71.4 157.6 72.8 144.2 75.7 131C76.9 125.4 78.4001 119.9 80.0001 114.5C81.5001 109.4 83.4001 104.3 84.8001 99.2C88.5001 85.6 86.7 70.9 83.6 57.4C81.7 48.8 79.1001 40.3 75.8001 32.2C75.8001 32.1334 75.7667 32.0334 75.7 31.9C75.7 31.9 74.5001 32.3 74.5001 32.4L74.6 32.5Z" fill="#231F20"/>
<path d="M74.1999 32.7C79.0999 44.3 82.4 56.8 84.3 69.2C85.2 75.5 85.5999 81.9 85.1999 88.2C84.7999 94.5 83.1 100.8 81.1 107C77.1 119.2 73.8 131.7 71.9 144.4C70 157.1 69.7 169.7 70.8 182.3C72 196.5 74.8 210.6 78.6 224.4C78.6 224.6 78.9999 224.8 79.1999 224.6C79.4999 224.2 80.2 224.3 80.4 223.8C80.5 223.5 80.1 222.6 80 222.2C79.7 221.3 79.4999 220.3 79.1999 219.4C78.2999 216.2 77.5 212.9 76.8 209.6C75.4 203.1 74.2 196.5 73.4 189.8C71.7 176.5 71.5 163.1 73 149.8C74.5 136.5 77.4999 123.3 81.6999 110.5C83.6999 104.3 85.8999 98.1 86.6999 91.6C87.4999 85.1 87.3999 79 86.6999 72.8C85.1999 58.9 81.5 44.8 76.1 31.9C76.1 31.7 75.8 31.5 75.5 31.7C75.1 31.9 74.6 32 74.3 32.3C73.9 32.6 74.5 33.1 74.8 32.8C75.1 32.6 75.6 32.6 75.9 32.4L75.3 32.2C80.1 43.7 83.5 56.1 85.3 68.4C86.3 74.7 86.7 81.2 86.3 87.6C85.9 94.2 84.2 100.4 82.1 106.7C78 119.2 74.6 131.9 72.8 145C71 158.1 70.8 171.2 72 184.2C72.7 191.4 73.7999 198.6 75.1999 205.7C75.8999 209.3 76.8 212.9 77.6 216.5C78 218.2 78.5 219.9 78.9 221.6C79 222 79.0999 222.4 79.1999 222.8C79.2999 223.2 79.5 223.5 79.4 223.8C79.3 224.1 78.8 224 78.6 224.3L79.1999 224.5C72.1999 199.5 68.9 173.5 72.1 147.7C73.8 134.6 77 121.8 81 109.3C82.9 103.4 84.8 97.5 85.4 91.3C86.1 85.1 85.9 78.8 85.1 72.6C84.3 65.7 82.8 59 81.1 52.3C79.4 45.6 77.2 38.9 74.5 32.5C74.3 32.1 73.7 32.5 73.8 32.9L74.1999 32.7Z" fill="#231F20"/>
<path d="M36.1 84.2C37.2 84.4 38.4 84.7 39.4 85.1C42.3 86.1 45 87.6 47.5 89.3C51.3 91.9 54.6 95.2 57.4 98.9C61.3 104.1 64.3 110 66.4 116.1C69.4 124.8 71 134 71.6 143.2C71.6 144.6 71.8 146 71.8 147.4C71.8 147.2 72.9 147 72.9 146.8C72.5 137.2 71.2001 127.5 68.3 118.3C66.3 111.8 63.5 105.5 59.6 99.9C56.8 96 53.5 92.4 49.6 89.5C47 87.6 44.2 85.9 41.2 84.8C40.3 84.4 39.4 84.1 38.4 83.9C38 83.8 37.5 83.6 37.1 83.6C36.8 83.6 36.3 84.3 36 84.2H36.1Z" fill="#231F20"/>
<path d="M36 84.5C40.8 85.3 45.5 88 49.3 91C53.1 94 56.3 97.7 59 101.7C64.6 110.1 67.7999 119.9 69.5999 129.7C70.6999 135.5 71.2 141.4 71.5 147.3C71.5 147.7 71.9999 147.8 72.1999 147.5C72.4999 147.1 73.2 147.3 73.3 146.7C73.5 146.2 73.3 145.3 73.3 144.8C73.3 143.9 73.1999 143.1 73.0999 142.2C72.8999 139.3 72.5999 136.3 72.1999 133.4C71.3999 127.5 70.0999 121.7 68.1999 116C64.6999 105.8 59.1 96 50.4 89.4C47.9 87.5 45.2 85.9 42.3 84.7C40.9 84.1 39.4999 83.6 38.0999 83.3C37.7999 83.3 37.4999 83.1 37.1999 83.2C36.7999 83.2 36.4999 83.8 36.0999 83.8C35.5999 83.9 35.8 84.6 36.3 84.5C36.6 84.5 36.7 84.3 36.9 84.2C37.5 83.8 37.4999 83.9 38.1999 84.2C39.3999 84.5 40.5999 84.9 41.6999 85.4C44.1999 86.4 46.5 87.7 48.8 89.3C53.1 92.3 56.8 96.2 59.8 100.6C66 109.6 69.3999 120.3 71.0999 131C71.6999 134.2 72 137.5 72.3 140.8C72.4 142.3 72.4999 143.8 72.5999 145.3C72.5999 145.6 72.7999 146.2 72.5999 146.5C72.3999 146.9 72.6999 146.7 72.1999 147C71.9999 147.2 71.7999 147.2 71.5999 147.4L72.3 147.6C71.4 127.6 66.8 104.7 50.5 91.3C46.4 88 41.3999 84.9 36.1999 84C35.6999 84 35.5 84.6 36 84.7V84.5Z" fill="#231F20"/>
<path d="M83.5 21.4C83.5 23.8 82.7001 26 81.4001 28C80.7001 28.9 79.9 29.8 79 30.4C78.7 30.6 78.4 30.8 78.2 31C77.7 31.3 78.4001 31 78.4001 31C78.4001 31 77.9001 31.2 77.8001 31.3C77.2001 31.6 76.6 31.8 76 32C71.3 33.3 66.1 31.8 63 28.1C59.9 24.4 59.5 19.2 62 15.1C62.6 14.1 63.4 13.2 64.2 12.4C64.7 12 65.2 11.6 65.7 11.3C65.9 11.2 66 11 65.5 11.3C65.6 11.3 66 11.1 66.1 11C66.4 10.9 66.7 10.7 67 10.6C69.3 9.69996 71.9001 9.59996 74.3001 10.1C79.5001 11.3 83.5 15.9 83.5 21.4C83.5 21.2 84.6 21 84.6 20.8C84.6 15.5 80.8 11 75.7 9.59996C71 8.39996 65.7001 10.2 62.4001 13.7C58.8001 17.5 58.3 23.4 61.2 27.8C64.2 32.3 70.1 34.1 75.2 32.5C80.3 30.9 84.5 26.5 84.6 20.9C84.6 21.1 83.5 21.3 83.5 21.5V21.4Z" fill="#231F20"/>
<path d="M83.1999 21.4C83.1999 23.5 82.6 25.5 81.4 27.3C80.9 28.1 80.1999 28.9 79.4999 29.5C78.9999 30 78.3 30.3 77.8 30.8C77.5 31.1 77.7999 31.6 78.1999 31.4L78.4999 31.2L78.0999 30.6C77.0999 31.4 75.1 31.7 73.8 31.9C72.3 32.1 70.8 31.9 69.4 31.6C66.4 30.8 63.8 28.9 62.3 26.3C60.8 23.7 60.4 20.4 61.4 17.4C61.9 15.8 62.7999 14.4 63.9999 13.2C64.5999 12.6 65.2999 12.2 65.9999 11.6C66.1999 11.4 66.3 11.4 66.3 11.1C66.3 10.8 65.9999 10.6 65.6999 10.8C65.5999 10.8 65.4 11 65.3 11.1C65 11.4 65.2999 11.9 65.6999 11.7C69.2999 9.49998 74.3 9.99998 77.8 12.1C81 14.1 82.9999 17.7 83.0999 21.5C83.0999 21.9 83.6 22 83.8 21.7C83.9 21.5 84.4999 21.5 84.6999 21.3C84.9999 21 84.9 20.6 84.9 20.2C84.9 18.9 84.4999 17.6 83.9999 16.4C82.9999 14.1 81.2999 12.1 79.0999 10.8C74.1999 7.79998 67.8999 8.69998 63.4999 12.2C59.0999 15.7 57.4999 21.9 60.1999 27C62.8999 32.1 68.5 34.2 73.8 33.3C79.8 32.2 84.8 27.1 84.9 20.9C84.9 20.5 84.3999 20.4 84.1999 20.7C83.9999 21 83.2999 20.9 83.0999 21.3C82.8999 21.7 83.5 22.1 83.8 21.7C84 21.4 84.7 21.5 84.9 21.1L84.1999 20.9C84.0999 26.1 80.3999 30.2 75.6999 32C70.9999 33.8 65.5 32.5 62.3 28.7C58.8 24.6 58.9 18.4 62.4 14.4C65.9 10.4 71.8 8.69998 76.8 10.6C79.3 11.5 81.4 13.4 82.8 15.7C83.5 16.9 83.8999 18.2 84.0999 19.5C84.0999 19.8 84.0999 20.1 84.0999 20.4C84.0999 21 84.0999 20.9 83.6999 21.1C83.4999 21.2 83.2999 21.3 83.0999 21.5L83.8 21.7C83.8 17.6 81.5999 13.9 78.0999 11.7C74.3999 9.39998 69.1 8.99998 65.3 11.3L65.6999 11.9L65.9 11.7L65.3 11.4C65.3 11 64.6 11.7 64.4 11.9C64.1 12.1 63.7999 12.4 63.4999 12.7C62.8999 13.3 62.4 13.9 61.9 14.5C60.9 15.9 60.2999 17.5 59.9999 19.2C59.4999 22.3 60.2999 25.6 62.1999 28.1C64.0999 30.6 66.8999 32.3 69.9999 32.9C71.4999 33.2 73.0999 33.2 74.5999 32.9C75.7999 32.7 77.3999 32.3 78.4999 31.6C78.7999 31.3 78.4999 30.8 78.0999 31L77.8 31.2L78.1999 31.8C78.7999 31.2 79.5999 30.8 80.1999 30.2C80.9999 29.5 81.5999 28.6 82.1999 27.7C83.2999 25.9 83.8 23.9 83.9 21.8C83.9 21.3 83.1999 21.3 83.0999 21.8L83.1999 21.4Z" fill="#231F20"/>
<path d="M129 56.7C129 59.1 128.2 61.3 126.9 63.3C126.2 64.2 125.4 65.1 124.5 65.7C124.2 65.9 123.9 66.1 123.7 66.3C123.2 66.7 123.9 66.3 123.9 66.3C123.9 66.3 123.4 66.5 123.3 66.6C122.7 66.9 122.1 67.1 121.5 67.3C116.8 68.6 111.6 67.2 108.5 63.4C105.5 59.8 105 54.5 107.5 50.4C108.1 49.4 108.9 48.5 109.7 47.7C110.2 47.3 110.7 46.9 111.2 46.6C111.4 46.5 111.5 46.3 111 46.6C111.1 46.6 111.5 46.4 111.6 46.3C111.9 46.2 112.2 46 112.5 45.9C114.8 45 117.4 44.9 119.8 45.4C125 46.6 129 51.2 129 56.7C129 56.5 130.1 56.3 130.1 56.1C130.1 50.8 126.3 46.3 121.2 44.9C116.5 43.7 111.2 45.5 107.9 49C104.3 52.8 103.8 58.7 106.7 63.1C109.6 67.5 115.6 69.4 120.7 67.8C125.8 66.2 130 61.8 130.1 56.2C130.1 56.4 129 56.6 129 56.8V56.7Z" fill="#231F20"/>
<path d="M128.6 56.7C128.6 58.8 128 60.8 126.8 62.6C126.3 63.4 125.6 64.2 124.9 64.8C124.4 65.3 123.7 65.7 123.2 66.1C122.9 66.4 123.2 66.9 123.6 66.7C123.7 66.7 123.8 66.6 123.9 66.5L123.5 65.9C122.5 66.7 120.5 67 119.2 67.2C117.7 67.3 116.2 67.2 114.8 66.8C111.8 66 109.2 64.1 107.7 61.4C106.2 58.7 105.8 55.5 106.8 52.5C107.3 50.9 108.2 49.5 109.4 48.3C110 47.7 110.7 47.3 111.4 46.7C111.6 46.5 111.7 46.5 111.7 46.2C111.7 45.9 111.4 45.7 111.1 45.9C111 45.9 110.8 46.1 110.7 46.2C110.4 46.5 110.7 47 111.1 46.8C114.7 44.6 119.7 45.1 123.2 47.2C126.4 49.2 128.4 52.8 128.5 56.6C128.5 57 129 57.1 129.2 56.8C129.3 56.6 129.9 56.6 130.1 56.4C130.4 56.1 130.3 55.8 130.3 55.3C130.3 54 129.9 52.7 129.4 51.5C128.4 49.2 126.7 47.2 124.5 45.9C119.6 42.9 113.3 43.8 108.9 47.3C104.5 50.8 102.9 57 105.6 62.1C108.3 67.2 113.9 69.3 119.2 68.4C125.2 67.3 130.2 62.2 130.3 56C130.3 55.6 129.8 55.5 129.6 55.8C129.4 56.1 128.7 56 128.5 56.4C128.3 56.8 128.9 57.2 129.2 56.8C129.4 56.5 130.1 56.6 130.3 56.2L129.6 56C129.5 61.1 125.8 65.3 121.1 67.1C116.4 68.9 110.9 67.6 107.7 63.8C104.2 59.7 104.3 53.5 107.8 49.5C111.3 45.5 117.2 43.8 122.2 45.7C124.7 46.6 126.8 48.5 128.2 50.8C128.9 52 129.3 53.3 129.5 54.6C129.5 54.9 129.5 55.2 129.5 55.5C129.5 56.1 129.5 56 129.1 56.2C128.9 56.3 128.7 56.4 128.5 56.6L129.2 56.8C129.2 52.7 127 49 123.5 46.8C119.8 44.5 114.5 44.1 110.7 46.4L111.1 47L111.3 46.8L110.7 46.5C110.7 46.1 110 46.8 109.8 47C109.5 47.2 109.2 47.5 108.9 47.8C108.3 48.4 107.8 49 107.3 49.6C106.3 51 105.7 52.6 105.4 54.3C104.9 57.4 105.7 60.7 107.6 63.2C109.5 65.7 112.3 67.4 115.4 68C116.9 68.3 118.5 68.3 120 68C121.2 67.8 122.8 67.4 123.9 66.6C124.2 66.3 123.9 65.8 123.5 66C123.4 66 123.3 66.1 123.2 66.2L123.6 66.8C124.2 66.2 125 65.8 125.6 65.2C126.4 64.5 127 63.6 127.6 62.7C128.7 60.9 129.2 58.9 129.3 56.8C129.3 56.3 128.6 56.3 128.5 56.8L128.6 56.7Z" fill="#231F20"/>
<path d="M64.5 1.6C64.7 3.6 64.9 5.5 65.3 7.5C65.6 9 65.9 10.6 66.4 12C66.8 13.1 67.2 14.3 68.1 15.1C68.1 15.1 69.1 14.4 69.2 14.5C68.3 13.7 67.9 12.5 67.5 11.4C67 9.9 66.7 8.4 66.4 6.9C66.1 5 65.8 3 65.6 1C65.6 1.2 64.5 1.4 64.5 1.6Z" fill="#231F20"/>
<path d="M64.1 1.59999C64.4 4.79999 64.8 8.09999 65.7 11.2C66.1 12.4 66.5 13.8 67.3 14.8C67.5 15.1 67.8 15.5 68.2 15.4C68.5 15.4 68.9 14.8 69.1 14.8C69.4 14.8 69.6 14.4 69.4 14.2C67.9 12.7 67.4 10.1 67 8.09999C66.5 5.69999 66.2 3.3 65.9 0.899998C65.9 0.499998 65.3 0.399998 65.2 0.899998C65.2 0.699998 65 0.899998 64.9 0.899998C64.8 0.899998 64.7 0.899996 64.6 0.999996C64.4 0.999996 64.3 1.2 64.2 1.4C64 1.9 64.8 2.09999 64.9 1.59999C64.9 1.79999 65.1 1.59999 65.2 1.59999C65.3 1.59999 65.4 1.6 65.5 1.5C65.7 1.5 65.8 1.29999 65.9 1.09999H65.2C65.4 3.59999 65.8 6.09999 66.3 8.59999C66.7 10.7 67.3 13.2 68.9 14.7L69.2 14.1C69 14.1 68.7 14.3 68.5 14.4C68.5 14.4 68.2 14.7 68.1 14.7C68.3 14.7 68.1 14.6 68.1 14.5C68.1 14.3 67.9 14.2 67.8 14C67.1 12.9 66.7 11.5 66.4 10.2C65.7 7.39999 65.2 4.4 65 1.5C65 0.999996 64.2 0.999996 64.2 1.5L64.1 1.59999Z" fill="#231F20"/>
<path d="M36.1 81.2C36.1 83.5 35.4 85.7 34.1 87.6C33.5 88.5 32.8 89.3 31.9 89.9C31.7 90 31.5001 90.2 31.3001 90.3C31.1001 90.4 31.0001 90.5 30.8001 90.6C31.2001 90.3 30.7 90.6 30.6 90.6C30.1 90.8 29.6 91 29 91.2C24.6 92.5 19.8 91 17 87.4C14.2 83.8 13.8 78.8 16.1 74.9C16.7 74 17.3 73.1 18.1 72.3C18.5 71.9 18.9001 71.6 19.3001 71.3C19.5001 71.2 19.6001 71.1 19.8001 71C19.6001 71 19.3 71.2 20 71C20.2 70.9 20.5001 70.8 20.8001 70.7C23.0001 69.9 25.3 69.8 27.6 70.3C32.5 71.6 36 76.1 36 81.2C36 81 37.1 80.8 37.1 80.6C37.1 75.6 33.7001 71 28.8001 69.7C24.4001 68.5 19.5 70.3 16.5 73.6C13.1 77.4 12.6 83.1 15.4 87.4C18.2 91.6 23.6001 93.5 28.3001 91.8C33.2001 90.1 37 85.9 37 80.5C37 80.7 35.9 80.9 35.9 81.1L36.1 81.2Z" fill="#231F20"/>
<path d="M35.8001 81.2C35.8001 84.9 33.9001 88.3 30.8001 90.3C30.4001 90.6 30.8 91.2 31.2 90.9H31.4C31.7 90.6 31.6 90.1 31.2 90.1C31 90.1 30.8 90.2 30.7 90.3C29.9 90.7 29.1001 90.9 28.3001 91.1C26.9001 91.4 25.5 91.4 24.1 91.1C21.3 90.5 18.9001 89 17.3001 86.7C13.8001 81.7 15.3 74.6 20.4 71.3C20.8 71 20.4 70.4 20 70.7C20 70.7 19.9001 70.7 19.8001 70.8C19.4001 71 19.8 71.7 20.2 71.4C23.8 69.7 28.0001 69.8 31.3001 72.2C34.2001 74.2 35.9 77.6 36 81.1C36 81.5 36.5 81.6 36.7 81.3C36.8 81.1 37.4 81.1 37.6 80.9C37.9 80.6 37.8001 80.3 37.8001 79.9C37.8001 78.6 37.4 77.4 37 76.2C36.1 74 34.5 72 32.4 70.7C27.8 67.7 21.7 68.8 17.6 72.3C13.5 75.8 12.3001 81.8 14.8001 86.6C17.3001 91.4 22.6 93.7 27.7 92.5C33.3 91.2 37.6001 86.3 37.8001 80.6C37.8001 80.2 37.3 80.1 37.1 80.4C36.9 80.7 36.2 80.6 36 81C35.8 81.4 36.4 81.8 36.7 81.4C36.9 81.1 37.6001 81.2 37.8001 80.8L37.1 80.6C37 85.3 33.9 89.2 29.7 91.1C25.5 93 19.9001 91.9 16.8001 88.2C13.7001 84.5 13.5 78.4 16.7 74.5C19.9 70.6 25.5 68.7 30.2 70.6C32.6 71.5 34.5001 73.3 35.8001 75.6C36.4001 76.8 36.9 78.1 37 79.5C37 79.7 37 79.9 37 80.1C37 80.6 37 80.5 36.6 80.8C36.4 80.9 36.2 81 36 81.2L36.7 81.4C36.7 77.6 34.8 74 31.7 71.8C28.2 69.3 23.6001 69.2 19.8001 71L20.2 71.6C20.2 71.6 20.3 71.6 20.4 71.5L20 70.9C14.7 74.3 13.1 81.5 16.4 86.8C17.9 89.2 20.4 91 23.2 91.8C24.6 92.2 26 92.3 27.5 92.2C28.2 92.2 28.9 92 29.5 91.8C29.9 91.7 31.1001 91.1 31.3001 91L31.1 90.3H30.9L31.3001 91C34.7001 88.8 36.6 85.2 36.7 81.2C36.7 80.7 36 80.7 35.9 81.2H35.8001Z" fill="#231F20"/>
<path d="M143.7 125.3C143.7 127.6 143.2 129.9 142.2 131.9C141.8 132.8 141.2 133.7 140.5 134.4C140.2 134.7 139.9 135.1 139.5 135.4C139.3 135.5 139.2 135.7 139 135.8C138.7 136 138.5 135.9 139.1 135.8C138.9 135.8 138.8 136 138.6 136C134.9 137.6 131.3 135.2 129.5 132.1C127.2 128.1 127 122.9 128.8 118.7C129.6 116.8 130.8 115.3 132.4 114C132.8 113.7 132.2 114.1 132.1 114.1C132.2 114.1 132.4 113.9 132.6 113.9C132.8 113.9 133 113.8 133.2 113.7C133.6 113.6 134.1 113.5 134.5 113.4C135.4 113.4 136.3 113.4 137.1 113.7C141.7 115.3 143.6 120.8 143.6 125.2C143.6 125 144.7 124.8 144.7 124.6C144.7 120.2 142.8 114.7 138.3 113.1C134.7 111.8 130.8 114.2 128.8 117.2C126 121.3 125.8 127.2 127.9 131.7C129.7 135.5 133.7 138.5 137.8 136.5C139.6 135.6 141.2 134.5 142.3 132.8C143.9 130.4 144.6 127.5 144.6 124.7C144.6 124.9 143.5 125.1 143.5 125.3H143.7Z" fill="#231F20"/>
<path d="M143.3 125.3C143.3 127.4 142.9 129.5 142.1 131.4C141.7 132.3 141.2 133.2 140.6 133.9C140.2 134.5 139.4 135.4 138.7 135.6L139.2 136V136.2C139.3 136.2 139.2 135.5 139.2 135.5C136.7 136.6 134.3 136.3 132.2 134.5C130.3 132.9 129.1 130.5 128.6 128.1C127.5 123 128.9 117.6 133.1 114.3C133.4 114 133.1 113.5 132.7 113.7C132.6 113.7 132.4 113.9 132.3 113.9C131.9 114.1 132.3 114.7 132.7 114.5C136.1 113.1 139.4 114.4 141.4 117.4C142.9 119.7 143.6 122.6 143.6 125.3C143.6 125.7 144.1 125.8 144.3 125.5C144.6 125.1 145.3 125.3 145.5 124.7C145.7 123.8 145.3 122.2 145.1 121.3C144.7 119.2 143.9 117.2 142.5 115.6C141.1 114 139.3 112.7 137.1 112.5C134.7 112.3 132.4 113.4 130.7 114.9C126.9 118.3 125.8 124 126.9 128.8C127.8 133 131.1 137.8 135.9 137.5C138.5 137.3 141.1 135.6 142.6 133.6C144.6 131.1 145.4 127.8 145.4 124.7C145.4 124.3 144.9 124.2 144.7 124.5C144.5 124.8 143.8 124.7 143.6 125.1C143.4 125.5 144 125.9 144.3 125.5C144.5 125.2 145.2 125.3 145.4 124.9L144.7 124.7C144.7 129.6 142.4 134.7 137.5 136.5C132.9 138.1 129.1 133.7 127.9 129.7C126.6 125.5 127.2 120.3 130.1 116.8C133 113.3 137.9 111.9 141.4 115.4C142.9 116.9 143.8 118.9 144.3 121C144.5 122 144.8 123.2 144.7 124.2C144.7 124.7 144.7 124.6 144.2 124.8C144 124.9 143.8 125 143.7 125.2L144.4 125.4C144.4 122.2 143.5 118.8 141.5 116.3C140.5 115.1 139.3 114.1 137.8 113.6C135.9 112.9 134.2 113.2 132.4 114L132.8 114.6C132.9 114.6 133.1 114.4 133.2 114.4L132.8 113.8C128.3 117.4 126.8 123.6 128.3 129.1C129 131.6 130.4 134.1 132.5 135.6C134.6 137.1 137.2 137.4 139.7 136.3C140.1 136.1 140 135.4 139.5 135.6C139.3 135.6 139.2 135.7 139 135.8C138.9 135.8 138.8 136 138.8 136.1C138.8 136.4 139 136.6 139.3 136.5C140.9 136 142.3 133.7 143 132.3C144 130.2 144.5 127.8 144.5 125.5C144.5 125 143.8 125 143.7 125.5L143.3 125.3Z" fill="#231F20"/>
<path d="M138.3 124.7C142.1 121.4 147.6 118.5 152.8 119.8C153.1 119.8 153.6 119.1 153.9 119.2C150.1 118.2 146.1 119.7 142.8 121.6C140.9 122.7 138.9 123.9 137.2 125.4C137.5 125.1 138 125 138.3 124.8V124.7Z" fill="#231F20"/>
<path d="M138.5 125C140.8 123 143.5 121.3 146.5 120.4C147.9 120 149.4 119.8 150.9 119.9C151.3 119.9 151.7 119.9 152.1 120.1C152.3 120.1 152.6 120.3 152.9 120.2C153.2 120.2 153.5 119.6 153.8 119.6C154.2 119.6 154.3 119 153.8 118.9C150.7 118.2 147.7 118.9 144.9 120.1C142.1 121.3 139.2 123.1 136.8 125.2C136.5 125.5 136.9 126 137.2 125.8C137.5 125.6 138 125.4 138.3 125.2C138.7 124.9 138.3 124.3 137.9 124.6C137.6 124.8 137.1 125 136.8 125.2L137.2 125.8C139.4 123.9 142 122.3 144.6 121.1C147.4 119.8 150.4 119 153.5 119.7V119C153.1 119 152.9 119.5 152.5 119.6C152.2 119.6 151.7 119.5 151.5 119.4C151.1 119.4 150.8 119.4 150.4 119.3C148.8 119.3 147.3 119.5 145.8 119.9C142.8 120.8 140.1 122.5 137.8 124.6C137.4 124.9 138 125.5 138.3 125.1L138.5 125Z" fill="#231F20"/>
<path d="M124.2 37.4C123.2 38.2 122.2 39.1 121.3 40C119.7 41.7 118.1 43.6 117.2 45.8C116.8 47 116.5 48.2 116.8 49.4C116.8 49.3 117.9 48.9 117.9 48.8C117.3 46.5 118.5 44.2 119.8 42.4C121.1 40.6 122.6 39.1 124.2 37.7C124.5 37.4 124.9 37.1 125.3 36.8C125 37 124.5 37.2 124.2 37.4Z" fill="#231F20"/>
<path d="M124 37.1C122 38.7 120.2 40.5 118.7 42.5C117.2 44.5 116 46.9 116.6 49.4C116.6 49.8 117.2 49.7 117.3 49.4C117.3 49.6 117.5 49.4 117.6 49.4C117.7 49.4 117.9 49.3 118.1 49.2C118.5 48.9 118.3 48.6 118.3 48.1C118.1 46.5 118.7 45 119.5 43.7C121 41.1 123.3 38.9 125.7 37C126 36.7 125.7 36.2 125.3 36.4C124.9 36.6 124.5 36.8 124.2 37C123.8 37.3 124.2 37.9 124.6 37.7C124.9 37.5 125.4 37.3 125.7 37.1L125.3 36.5C122.9 38.4 120.5 40.7 119 43.4C118.3 44.6 117.7 46 117.7 47.4C117.7 47.6 117.7 48.2 117.7 48.5C117.7 48.7 117.7 48.7 117.8 48.5C117.8 48.5 117.6 48.7 117.5 48.7C117.2 48.8 116.8 48.9 116.7 49.3H117.4C116.9 46.8 118.3 44.4 119.8 42.5C121.3 40.6 122.9 39.1 124.7 37.7C125.1 37.4 124.5 36.9 124.2 37.2L124 37.1Z" fill="#231F20"/>
<path d="M1.40002 79.1C3.60002 78.6 5.89995 78.2 8.19995 78C9.99995 77.8 11.8 77.7 13.6 77.9C14.9 78 16.4 78.2 17.5 79.1C17.6 79.2 18.5 78.4 18.6 78.5C17.5 77.6 16 77.4 14.7 77.3C12.9 77.2 11.1 77.3 9.30005 77.4C7.00005 77.6 4.8 78 2.5 78.5C2.1 78.5 1.80002 79.1 1.40002 79.1Z" fill="#231F20"/>
<path d="M1.50005 79.4C5.00005 78.6 8.6 78.1 12.2 78.1C13.7 78.1 15.5001 78.1 16.9001 79C17.3001 79.2 17.4001 79.4 17.8001 79.3C18.0001 79.3 18.1001 79.1 18.3001 79C18.3001 79 18.7 78.8 18.6 78.8C19 78.8 19.0001 78.3 18.8001 78.1C16.6001 76.4 13.0001 76.7 10.3001 76.9C8.70009 77 7.20002 77.2 5.60002 77.5C4.70002 77.6 3.90005 77.8 3.00005 78C2.70005 78 2.40002 78.1 2.10002 78.2C1.80002 78.3 1.60009 78.6 1.30009 78.7C0.900094 78.9 1.10005 79.6 1.50005 79.4C2.00005 79.2 2.40007 78.8 2.90007 78.7C3.60007 78.5 4.40002 78.4 5.10002 78.3C6.70002 78 8.30007 77.8 9.90007 77.7C11.5001 77.6 13 77.5 14.6 77.7C15.9 77.8 17.3001 78 18.3001 78.9L18.5 78.2C18.2 78.2 18 78.5 17.7 78.6C17.4 78.8 17.4 78.7 17.1 78.5C16.9 78.4 16.6001 78.2 16.3001 78.1C14.9001 77.6 13.3001 77.5 11.8001 77.5C8.30009 77.5 4.7 78 1.2 78.8C0.699996 78.9 0.90007 79.6 1.40007 79.5L1.50005 79.4Z" fill="#231F20"/>
<path d="M83.4 32.6C82.5 33.4 81.6 34.3 81 35.3C79.2 38.1 79.5 41.6 79.8 44.8C81.4 43.9 82.9 42.9 84.3 41.7C86.9 39.5 89 36.7 90.1 33.6C90.8 31.7 91.9 26.8 89.4 25.7C87.2 27.6 85.5 30.5 83.3 32.5L83.4 32.6Z" fill="#231F20"/>
<path d="M83.1999 32.3C81.4999 33.9 80.1 35.6 79.6 37.9C79.1 40.2 79.3 42.5 79.6 44.8C79.6 45.1 79.8999 45.3 80.1999 45.1C84.5999 42.7 88.7 39 90.5 34.1C91.4 31.8 92.8 26.8 89.8 25.3C89.6 25.3 89.5 25.3 89.4 25.3C87.1 27.3 85.5 30 83.3 32.1C83 32.4 83.5 33 83.8 32.6C86 30.5 87.6 27.8 89.9 25.8H89.5C91 26.6 90.9 28.6 90.8 30C90.6 31.6 90.2 33.1 89.6 34.6C87.7 38.9 84 42.1 80 44.4L80.6 44.7C80.4 42.6 80.1 40.4 80.6 38.3C81.1 36 82.4 34.3 84.1 32.7C84.4 32.4 83.9 31.8 83.6 32.2L83.1999 32.3Z" fill="#231F20"/>
<path d="M82.6 55.6C82.6 55.6 81.7 52 72.5 51.9C63.3 51.9 63.2 46.7 63.2 46.7C63.2 46.7 63.5 58.9 70.6 59.7C77.8 60.5 82.6 55.6 82.6 55.6Z" fill="#231F20"/>
<path d="M83 55.5C82.5 53.6 79.8 52.6 78.1 52.2C75.2 51.5 72.3 51.8 69.4 51.3C67.6 51 65.6 50.3 64.5 48.7C64.1 48.1 63.7 47.3 63.6 46.7C63.6 46.2 62.8 46.2 62.8 46.7C62.8 49.8 63.5 53.1 65 55.8C66 57.7 67.5 59.3 69.5 59.9C72.3 60.7 75.7 60 78.3 58.9C79.9 58.2 81.6 57.2 82.9 55.9C83.2 55.6 82.7 55 82.4 55.4C79.5 58.4 74.5 60.1 70.4 59.4C66.3 58.7 64.6 53.8 64 50.1C63.8 49 63.7 47.9 63.6 46.8H62.8C62.8 48.8 64.7 50.5 66.4 51.2C70.9 53.3 76.5 51.3 80.8 54.2C81.4 54.6 82.1 55.2 82.2 55.8C82.3 56.3 83 56.1 82.9 55.6L83 55.5Z" fill="#231F20"/>
<path d="M85.3001 69.8C85.3001 69.8 84.2 62.3 88.1 59.8C92 57.3 94.2 53.2 94.2 53.2C94.2 53.2 96.3 63.7 91.6 67.9C86.9 72.1 85.3001 69.8 85.3001 69.8Z" fill="#231F20"/>
<path d="M85.7 69.7C85.7 69.9 85.7 69.6 85.7 69.5C85.7 69.3 85.7 69.1 85.7 68.8C85.7 68.1 85.7 67.4 85.7 66.8C85.7 64.9 86.1 62.9 87.1 61.4C87.7 60.5 88.7 60 89.5 59.3C90.5 58.5 91.4 57.6 92.2 56.7C93 55.8 93.9 54.6 94.5 53.5H93.8C94.3 55.7 94.4 58.2 94.2 60.6C94 62.5 93.6 64.4 92.7 66C91.7 67.8 89.7 69.5 87.7 70.1C87.1 70.3 86.5 70.3 86 70.1C85.9 70.1 85.8 70 85.7 69.9C85.4 69.5 84.8 69.9 85 70.3C85.4 70.9 86.2 71.1 86.8 71.2C88.8 71.2 90.9 69.6 92.2 68.3C95 65.4 95.2 60.7 95 56.9C95 55.8 94.8 54.7 94.6 53.6C94.6 53.3 94.1 53.2 93.9 53.6C93.4 54.5 92.8 55.3 92.2 56C90.9 57.7 89.3 58.9 87.6 60.2C85.3 62 84.8 65.2 84.8 68C84.8 68.8 84.8 69.6 85 70.5C85 71 85.8 70.8 85.7 70.3V69.7Z" fill="#231F20"/>
<path d="M86.3 82.1C86.3 82.1 86 76.3 78.8 72.8C71.6 69.3 71.3 67.6 71.3 67.6C71.3 67.6 74.3 77.6 77.6 78.8C80.9 80 83.9 82.6 86.4 82.2L86.3 82.1Z" fill="#231F20"/>
<path d="M86.6999 82.1C86.5999 79.9 85.3 77.7 83.9 76.1C80.8 72.6 76.1 71.7 72.6 68.6C72.3 68.3 71.9999 68 71.6999 67.7C71.5999 67.6 71.6 67.5 71.6 67.5L70.9 67.7C71.5 69.8 72.3 71.9 73.3 73.9C74 75.3 74.6999 76.7 75.6999 77.8C76.8999 79.1 78.5 79.5 80 80.3C81.9 81.3 84.1 82.8 86.3 82.5C86.8 82.5 86.6 81.7 86.1 81.8C84.1 82.1 82.1 80.7 80.4 79.8C79 79 77.2 78.7 76.1 77.4C74.2 75.3 73.1 72.3 72.1 69.7C71.8 69 71.6 68.3 71.4 67.5C71.3 67 70.5999 67.2 70.6999 67.7C70.6999 68.1 71.1 68.4 71.3 68.7C72.3 69.8 73.6 70.6 74.8 71.3C77.1 72.7 79.7 73.6 81.8 75.4C83.2 76.6 84.3 78.1 85 79.8C85.3 80.5 85.6 81.4 85.6 82.2C85.6 82.7 86.4 82.7 86.4 82.2L86.6999 82.1Z" fill="#231F20"/>
<path d="M98.1 62.7C98.1 62.7 91.6 72.1 95.9 78.1C100.2 84.2 102.8 84.7 102.8 84.7C102.8 84.7 105.4 77.8 102.2 74.3C99 70.8 98 62.6 98 62.6L98.1 62.7Z" fill="#231F20"/>
<path d="M97.8001 62.5C96.0001 65.1 94.7 68.2 94.2 71.3C93.9 73.5 94.1 75.7 95.2 77.7C96.5 79.9 98.4001 82.1 100.4 83.7C101.1 84.3 101.9 84.9 102.8 85.1C103 85.1 103.2 85.1 103.3 84.8C104.6 81.3 105 76.9 102.5 73.9C100.9 72 100.1 69.4 99.4001 67C99.1001 65.7 98.7 63.8 98.5 62.7C98.5 62.2 97.7 62.2 97.7 62.7C98.2 66.3 99.1 70.1 101 73.2C101.7 74.3 102.6 75.1 103 76.2C103.4 77.3 103.5 78.7 103.4 80C103.4 81.5 103 83.1 102.4 84.6L102.9 84.3C101.8 84.1 100.8 83.1 100 82.4C97.7 80.3 95.2001 77.5 94.8001 74.3C94.3001 70.4 96.1001 66.1 98.3001 62.9C98.6001 62.5 97.9 62.1 97.6 62.5H97.8001Z" fill="#231F20"/>
<path d="M97.5 93.9C97.5 93.9 109.9 82.1 118.9 91C118.9 91 110.8 89.7 108.2 93.9C105.6 98.1 98.2 98.4 97.5 93.9Z" fill="#231F20"/>
<path d="M97.6999 94.2C99.6999 92.3 102.1 90.8 104.5 89.7C106.6 88.8 108.9 88.1 111.2 88.1C114 88.1 116.5 89.4 118.5 91.3L118.9 90.7C115.7 90.2 111.6 90.3 109 92.4C108.1 93.1 107.6 94.2 106.7 95C105.8 95.8 104.6 96.4 103.3 96.6C101 97.1 98.3 96.4 97.8 93.8C97.8 93.3 97 93.5 97.1 94C97.8 97.7 102.2 98.1 105.1 96.9C106 96.5 106.8 96 107.4 95.4C108.1 94.7 108.6 93.8 109.3 93.1C110.8 91.8 113 91.4 115 91.3C116.2 91.3 117.5 91.3 118.7 91.4C119 91.4 119.4 91.1 119.1 90.8C115.1 86.9 109.8 86.7 104.9 88.7C102.1 89.9 99.3999 91.6 97.1999 93.7C96.8999 94 97.3999 94.6 97.6999 94.2Z" fill="#231F20"/>
<path d="M54.6 94.5C54.6 94.5 48.8 83.4 52.8 77.4C56.8 71.4 60.1 69.2 60.1 69.2C60.1 69.2 58.8 79.4 60.5 82.1C62.2 84.8 60 95 54.6 94.5Z" fill="#231F20"/>
<path d="M54.9001 94.3C53.0001 90.6 51.6001 86.2 51.8001 82C52.0001 78.4 54.4 75.7 56.6 73.1C57.7 71.8 58.9001 70.5 60.3001 69.6L59.7 69.3C59.5 71.1 59.3 72.9 59.2 74.7C59.2 77.1 58.9 80 60 82.1C61.1 84.2 60.7 86.7 60 88.9C59.2 91.3 57.6 94.3 54.6 94.1C54.1 94.1 54.1 94.8 54.6 94.9C58.9 95.2 60.9001 89.8 61.3001 86.3C61.4001 85.4 61.4001 84.4 61.3001 83.5C61.2001 82.7 60.8 82.1 60.5 81.4C59.7 79.3 59.9 76.7 60 74.5C60 72.7 60.2001 71 60.4001 69.2C60.4001 68.9 60.1001 68.7 59.8001 68.9C58.3001 70 57.0001 71.4 55.8001 72.8C53.6001 75.3 51.4 78 51 81.4C50.5 85.8 52.1 90.7 54.2 94.6C54.4 95 55.1001 94.6 54.9001 94.2V94.3Z" fill="#231F20"/>
<path d="M66.5 114.3C66.5 114.3 65.8 104.8 70.3 101.2C74.8 97.6 75.6999 97.9 75.6999 97.9C75.6999 97.9 74.1 105.3 72.5 108.3C70.9 111.4 72.8 115.4 66.5 114.3Z" fill="#231F20"/>
<path d="M66.9 114.3C66.7 112.1 66.9 109.9 67.4 107.7C67.7 106 68.3 104.3 69.3 102.8C70.5 101.2 72.4 99.9 74.1 98.9C74.5 98.6 75 98.4 75.5 98.2C75.7 98.2 75.8 98.2 75.7 98.2L75.4 97.7C74.8 100.2 74.2 102.7 73.4 105.1C72.9 106.5 72.2 107.8 71.8 109.2C71.5 110.3 71.5 111.5 71 112.5C70.3 114.3 68.2 114.1 66.7 113.8C66.2 113.8 66 114.4 66.5 114.5C67.9 114.7 69.8 114.9 70.9 113.9C71.8 113.1 71.9 111.9 72.1 110.8C72.2 110.2 72.3 109.5 72.6 108.9C72.9 108.2 73.3 107.5 73.5 106.8C74.2 105 74.7 103.2 75.2 101.4C75.5 100.2 75.8 99 76.1 97.8C76.1 97.6 76.1 97.4 75.8 97.3C75.4 97.2 74.8 97.5 74.4 97.7C72.7 98.6 70.9 99.8 69.5 101.2C67 103.7 66.3 107.7 66.1 111.1C66.1 112.1 66.1 113.1 66.1 114.1C66.1 114.6 66.9 114.6 66.9 114.1V114.3Z" fill="#231F20"/>
<path d="M63.7 107.8C63.7 107.8 46.1 93.5 39.8 101.8C39.8 101.8 45.1 101.8 48.4 104.9C51.7 108 59.6 118.6 63.7 107.8Z" fill="#231F20"/>
<path d="M64.0001 107.6C61.9001 105.9 59.7001 104.4 57.4001 103.1C53.8001 101 49.4 98.7 45.1 99C42.9 99.1 41 100 39.7 101.7C39.5 101.9 39.7001 102.3 40.0001 102.3C41.6001 102.3 43.3001 102.7 44.8001 103.2C47.1001 104.1 48.7001 105.6 50.3001 107.3C52.6001 109.7 56 113.6 59.7 113C62.1 112.6 63.4001 110.1 64.3001 108C64.5001 107.6 63.7 107.4 63.6 107.8C62.5 110.5 60.7001 113.2 57.4001 112C55.1001 111.1 53.2001 109.2 51.4001 107.4C49.6001 105.6 48.1 103.8 45.6 102.7C43.8 101.9 41.8001 101.5 39.9001 101.5L40.2 102.1C42.9 98.7 47.4001 99.5 51.0001 100.8C54.6001 102.1 58.2001 104.2 61.4001 106.5C62.1001 107 62.9 107.6 63.6 108.1C64 108.4 64.5 107.9 64.1 107.6H64.0001Z" fill="#231F20"/>
<path d="M51.8 125C51.8 125 63 123.5 67 132.4C70.9 141.4 72.3 142.2 72.3 142.2C72.3 142.2 64.3 148.5 59.4 139.9C54.5 131.3 59.8 129 51.8 125Z" fill="#231F20"/>
<path d="M51.8001 125.4C54.9001 125 58.4 125.5 61.1 126.9C63.8 128.3 65.6001 130.3 66.8001 133C68.0001 135.7 69.2 138.3 70.7 140.8C71 141.4 71.5 142.2 72.1 142.6V142C71.4 142.5 70 143.2 69 143.6C66.8 144.4 64.5 144.3 62.5 143C59.9 141.2 58.4 137.8 57.7 134.8C57.3 133 57.4001 131.1 56.9001 129.3C56.2001 127 54.1 125.7 52 124.7C51.6 124.5 51.2 125.1 51.6 125.3C53.7 126.3 55.7001 127.6 56.3001 130C56.7001 132.1 56.7001 134.2 57.4001 136.3C58.3001 139.1 59.9 142.3 62.6 143.9C64.5 145 66.8001 145.1 68.9001 144.5C70.2001 144.1 71.5 143.5 72.6 142.6C72.8 142.4 72.7 142.1 72.6 142C72.7 142 72.4001 141.8 72.4001 141.8C72.1001 141.4 71.8 141 71.5 140.5C69.9 137.9 68.7001 135.1 67.4001 132.4C65.3001 127.7 60.7 125.2 55.7 124.8C54.5 124.7 53.1001 124.6 51.9001 124.8C51.4001 124.8 51.4001 125.6 51.9001 125.6L51.8001 125.4Z" fill="#231F20"/>
<path d="M81.8 131.1C81.8 131.1 84.5 120.9 96 120.8C107.5 120.7 109.7 120.8 109.7 120.8C109.7 120.8 103.1 127.8 95.1 129.1C87.1 130.4 87.2 137.6 81.7 131.2L81.8 131.1Z" fill="#231F20"/>
<path d="M82.1999 131.2C82.9999 128.1 85.3 125.2 88 123.4C91.1 121.3 94.5999 121.1 98.1999 121.1C101.2 121.1 104.3 121.1 107.3 121.1C108.1 121.1 109 121.1 109.8 121.1L109.5 120.5C105.8 124.4 100.6 127.7 95.3 128.6C92.4 129.1 90.3 130.4 88 132.1C87.3 132.7 86.5 133.3 85.5 133.3C84.1 133.3 82.9 131.7 82 130.8C81.7 130.4 81.2 131 81.5 131.3C82.6 132.6 84.1999 134.4 86.1999 134C87.7999 133.7 89.1 132.1 90.5 131.2C93.1 129.5 96.1 129.4 99 128.3C101.7 127.3 104.2 125.8 106.4 124.1C107.7 123.1 108.9 122.1 110 120.9C110.2 120.7 110 120.3 109.7 120.3C105.8 120.1 101.9 120.3 98.1 120.3C94.6 120.3 91.2 120.5 88 122.4C85.9 123.6 84.2 125.4 82.9 127.4C82.2 128.5 81.6 129.7 81.3 130.9C81.2 131.4 81.9 131.6 82 131.1L82.1999 131.2Z" fill="#231F20"/>
<path d="M112.4 145.8C112.4 145.8 132 135.8 137.7 147.9C137.7 147.9 130.6 144.7 126.5 147C122.4 149.3 109.2 155.9 112.4 145.8Z" fill="#231F20"/>
<path d="M112.6 146.1C114.7 145 116.9 144.2 119.2 143.5C123.2 142.3 127.7 141.5 131.8 142.9C134.4 143.8 136.3 145.6 137.4 148L137.9 147.5C134.1 145.8 129.5 144.9 125.8 147C124 148 122.2 148.9 120.4 149.6C118.6 150.3 116.6 151 114.6 150.9C111.9 150.7 112.3 147.9 112.8 145.9C112.9 145.4 112.2 145.2 112.1 145.7C111.6 147.3 111.1 149.6 112.6 150.9C113.8 151.9 115.7 151.7 117.2 151.4C119.4 150.9 121.5 150.1 123.5 149.1C125.5 148.1 127.5 146.7 129.9 146.6C132.5 146.5 135.3 147.2 137.7 148.2C138 148.3 138.4 148 138.2 147.7C133.9 138.8 122.4 141.3 115 144.3C114.1 144.7 113.2 145 112.4 145.5C112 145.7 112.4 146.4 112.8 146.1H112.6Z" fill="#231F20"/>
<path d="M100.9 161.6C100.9 161.6 95 147.4 97.7 141.4C97.7 141.4 90.7 152.8 93.2 158.9C95.7 165 100.9 161.6 100.9 161.6Z" fill="#231F20"/>
<path d="M101.3 161.5C100.3 159.1 99.5 156.5 98.8 154C98.2 151.8 97.7 149.6 97.5 147.4C97.3 145.5 97.3 143.4 98.1 141.6C98.3 141.2 97.7 140.8 97.4 141.2C95.5 144.3 94 147.7 93 151.2C92.4 153.5 91.9 156.1 92.6 158.4C93.2 160.5 94.8 162.6 97.1 162.9C98.4 163.1 99.9 162.7 101.1 161.9C101.5 161.6 101.1 161 100.7 161.3C99.8999 161.9 98.8 162.2 97.8 162.2C95.3 162.2 93.6999 160 93.1999 157.8C92.6999 155.6 93.2 153.2 93.8 151.1C94.4 149 95.3 146.8 96.3 144.8C96.8 143.7 97.4 142.7 98 141.7L97.3 141.3C95.7 145 96.8 149.8 97.8 153.6C98.5 156.4 99.4 159.1 100.5 161.8C100.7 162.2 101.4 162 101.2 161.6L101.3 161.5Z" fill="#231F20"/>
<path d="M90.8001 178.6C90.8001 178.6 95.6 181.9 101 176.6C106.3 171.3 118.6 173.1 118.6 173.1C118.6 173.1 105 178.9 102.2 184.8C99.3 190.6 88.9 193.1 90.9 178.6H90.8001Z" fill="#231F20"/>
<path d="M90.6 178.9C92 179.8 93.9 180.1 95.6 179.9C99.3 179.4 101.2 176.2 104.5 174.8C108.7 173 114 172.8 118.5 173.5V172.8C113.5 174.9 108.3 177.7 104.3 181.4C103.2 182.4 102.4 183.5 101.7 184.8C101.1 185.8 100.4 186.7 99.5 187.4C97.9 188.7 95.6 189.6 93.6 188.6C90.2 186.9 90.7 181.6 91.1 178.6C91.1 178.1 90.4001 178.1 90.3001 178.6C89.9001 181.7 89.6 185.9 91.9 188.4C93.4 190 95.6 190.1 97.6 189.4C99.9 188.5 101.3 186.8 102.5 184.7C104.4 181.4 108.1 179.1 111.3 177.3C113.6 175.9 116.1 174.7 118.6 173.6C118.9 173.5 118.8 173 118.6 172.9C114.4 172.3 109.8 172.4 105.7 173.7C104.3 174.1 103 174.7 101.8 175.6C100.2 176.8 98.9 178.3 97 179C95.1 179.7 92.7 179.6 91 178.5C90.6 178.2 90.2 178.9 90.6 179.1V178.9Z" fill="#231F20"/>
<path d="M88.7 183.5C88.7 183.5 78.5 176.5 83.6 159.3C83.6 159.3 89.9 167 89.1 174.3C88.3 181.6 88.7 183.5 88.7 183.5Z" fill="#231F20"/>
<path d="M88.9 183.2C87.1 181.9 85.6 179.8 84.6 177.8C81.7 172.1 82.2 165.4 84 159.4L83.4 159.6C86.2 163.1 88.6001 167.7 88.8001 172.2C89.0001 175.1 88.3001 178.1 88.3001 181.1C88.3001 181.9 88.3 182.8 88.4 183.7C88.4 184.2 89.2 184 89.1 183.5C88.9 182.5 89 181.4 89.1 180.4C89.1 177.3 89.9 174.2 89.5 171.1C88.9 166.8 86.7 162.5 84 159.1C83.8 158.9 83.4 159.1 83.4 159.3C81.1 167.2 81.2001 176.6 87.3001 182.8C87.7001 183.2 88.1 183.6 88.6 183.9C89 184.2 89.4 183.5 89 183.3L88.9 183.2Z" fill="#231F20"/>
<path d="M71.3 172.8C71.3 172.8 63.5 151.6 54.6 155.9C54.6 155.9 58.2 159.3 59.1 164.1C60 168.9 68 180.5 71.3 172.9V172.8Z" fill="#231F20"/>
<path d="M71.6 172.7C70.7 170.2 69.5 167.8 68.3 165.4C66.4 161.8 63.9 157.7 60.1 155.7C58.3 154.7 56.3 154.6 54.3 155.5C54.1 155.6 54.1 155.9 54.3 156.1C55.5 157.3 56.6 158.7 57.4 160.3C58.5 162.4 58.6999 164.8 59.6999 166.9C60.5999 168.9 61.7999 170.8 63.1999 172.4C64.2999 173.7 65.8 175.2 67.5 175.6C69.5 176.1 70.8999 174.7 71.6999 173C71.8999 172.6 71.3 172.2 71 172.6C70.3 174.1 69.2 175.4 67.4 174.8C65.7 174.2 64.3 172.7 63.3 171.3C62.1 169.7 60.9999 167.9 60.1999 166C59.8999 165.2 59.7 164.5 59.5 163.7C59.2 162.3 58.7 161 58.1 159.8C57.3 158.3 56.2 156.8 55 155.6V156.2C58.7 154.5 62.0999 157.6 64.1999 160.3C66.5999 163.3 68.5 166.9 70 170.4C70.3 171.2 70.7 172 71 172.8C71.2 173.2 71.8999 173.1 71.6999 172.6L71.6 172.7Z" fill="#231F20"/>
<path d="M51.9 186.4C51.9 186.4 60.5 184.6 69 195.9C69 195.9 71.6 201.1 73.9 198.8C73.9 198.8 76.8 213.8 65.9 205.7C55 197.6 68.9 197.8 52 186.4H51.9Z" fill="#231F20"/>
<path d="M52 186.8C54.2 186.4 56.7 187.1 58.7 187.9C61.3 189 63.6 190.7 65.5 192.6C66.6 193.7 67.8 194.9 68.6 196.2C68.9 196.7 69.2 197.3 69.6 197.8C70.7 199.2 72.4 200.6 74 199.1L73.4001 198.9C73.9001 201.7 74.6001 208.9 69.8001 207.5C67.7001 206.9 65.9001 205.4 64.3001 204C63.2001 203.1 62.2 202 61.7 200.6C61.1 198.9 61.7 197.1 61.2 195.4C60.8 193.9 59.9001 192.7 58.9001 191.6C56.9001 189.4 54.5 187.7 52 186C51.6 185.7 51.2 186.4 51.6 186.6C54 188.2 56.4001 190 58.4001 192.1C59.4001 193.2 60.2 194.4 60.5 195.8C60.9 197.7 60.3 199.6 61.2 201.4C61.9 202.9 63.2 204 64.5 205C66.1 206.3 67.9001 207.6 69.9001 208.1C72.5001 208.7 73.9001 206.9 74.3001 204.6C74.6001 202.6 74.5 200.5 74.1 198.5C74.1 198.2 73.7 198.2 73.5 198.3C71.8 199.8 70.1001 197.1 69.4001 195.8C68.1001 193.7 66.2001 191.8 64.4001 190.3C61.5001 187.8 57.8001 186 53.9001 185.7C53.2001 185.7 52.4 185.7 51.7 185.7C51.2 185.7 51.4001 186.5 51.9001 186.4L52 186.8Z" fill="#231F20"/>
<path d="M80.3 225.3C80.3 225.3 87.4 207.2 96.9 208.1C96.9 208.1 90.7 214.1 91 220.7C91.3 227.2 85.4 234.4 80.3 225.3Z" fill="#231F20"/>
<path d="M80.7 225.4C81.5 223.4 82.5 221.4 83.5 219.5C85.4 216.1 87.8 212.6 91 210.3C92.7 209.1 94.7001 208.3 96.8001 208.5L96.5 207.9C94 210.3 92 213.5 91 216.8C90.6 218 90.4 219.3 90.5 220.7C90.5 221.9 90.5 223 90.1 224.1C89.6 226 88.6 228.1 86.7 229C83.9 230.4 81.7 227.2 80.5 225.2C80.3 224.8 79.6001 225.2 79.8001 225.6C80.9001 227.6 82.6 230 85.2 230.1C87.1 230.1 88.6 228.8 89.5 227.3C90.8 225.3 91.2 222.9 91.1 220.6C91.1 217.7 92.2001 215 93.8001 212.6C94.7001 211.2 95.8 209.8 97 208.6C97.2 208.4 97 208 96.7 208C92.6 207.6 89.2001 210.5 86.8001 213.4C84.4001 216.3 82.4001 219.7 80.8001 223.1C80.4001 223.9 80.1001 224.6 79.8001 225.4C79.6001 225.9 80.4 226 80.5 225.6L80.7 225.4Z" fill="#231F20"/>
</svg>
