<svg width="137" height="265" viewBox="0 0 137 265" fill="none" xmlns="http://www.w3.org/2000/svg">
<path d="M58.8 263.5C58.6 264 59.3 264.2 59.5 263.7C59.7 263.2 59 263 58.8 263.5C58.6 264 59.3 264.2 59.5 263.7C59.7 263.2 59 263 58.8 263.5Z" fill="#231F20"/>
<path d="M67.1 244.7C66.9 241 66.6 237.3 66.2 233.7C65.7 229.8 65.1 226 64.1 222.2C63.2 218.5 62 214.9 60.4 211.4C58.9 208.2 57.1 205.1 54.7 202.5C52.5 200 49.7 198 46.7 196.8C43.3 195.4 39.5 195.1 35.8 195.4C30.9 195.9 26.2 197.5 21.7 199.6C20.4 200.2 19.1 200.8 17.8 201.5C17.6 201.5 17.5 201.7 17.3 201.8C17.1 201.9 16.9 202 16.8 202.1C18.4 201.5 20.1 201.2 21.7 201C25.5 200.5 29.5 200.7 33.2 201.7C38.4 203.2 42.9 206.3 46.4 210.4C51.8 216.9 54.7 225.2 56.4 233.3C57.7 239.4 58.4 245.7 58.7 251.9C58.7 253.7 58.9 255.6 58.9 257.4C58.9 258.3 58.9 259.2 58.9 260.2V262.5C58.9 262.7 58.8 263.2 58.9 263.4C58.9 263.4 58.9 263.4 58.9 263.5C58.9 263.5 59.2 263.5 59.3 263.5H63.9C64.5 263.5 66.7 263.5 66.7 263.5C66.7 262.7 66.9 261.4 66.9 260.6C67 258.4 67.1 256.3 67.1 254.1C67.1 251 67.1 247.8 67 244.7H67.1ZM17.3 202.1C17.3 202.1 17.1 202.1 17 202.2C17 202.2 17.2 202.2 17.3 202.1ZM61.7 263.1H60.5C60.1 263.1 60.1 263.2 60 262.8C60 262.3 60 261.7 60 261.2V259.7C60 258.7 60 257.7 60 256.7C59.9 250 59.4 243.4 58.3 236.8C56.8 228.1 54.3 219.1 49 211.8C45.7 207.3 41.3 203.6 36 201.7C32.2 200.4 28.1 199.9 24 200.3C22.1 200.5 20.1 200.8 18.3 201.5C22.6 199.3 27.2 197.5 31.9 196.5C35.7 195.8 39.7 195.7 43.4 196.7C46.6 197.6 49.6 199.3 52 201.5C54.5 203.8 56.5 206.7 58.1 209.7C59.9 213 61.2 216.5 62.2 220.1C63.3 223.9 64.1 227.7 64.6 231.5C65.2 235.2 65.5 239 65.7 242.7C65.9 246 66 249.3 66 252.6C66 255.9 66 257.5 65.8 259.9C65.8 260.9 65.6 262 65.6 263H61.4L61.7 263.1Z" fill="#231F20"/>
<path d="M67.5 244.7C67 232.9 65.5 220.3 60 209.6C57.6 204.9 54.3 200.6 49.7 197.9C45.1 195.2 39.3 194.5 33.9 195.4C27.7 196.4 22.3 199.1 16.7 201.9C16.3 202.1 16.6 202.7 17 202.6C23.5 200.3 31.4 200.8 37.6 203.9C43.3 206.8 47.6 211.8 50.6 217.4C53.6 223 55.4 229.6 56.6 236C57.9 243.1 58.5 250.4 58.6 257.6C58.6 259.4 58.7 261.1 58.6 262.9C58.6 263.6 58.6 264 59.3 264.1C60.9 264.3 62.8 264.1 64.4 264.1C65.2 264.1 66.3 264.3 67 264C67.1 264 67.2 263.8 67.2 263.7C67.7 257.4 67.7 251.1 67.5 244.9C67.5 244.4 66.7 244.4 66.7 244.9C66.9 249.2 66.9 253.5 66.7 257.8C66.7 258.8 66.7 259.8 66.6 260.8C66.6 261.5 66.7 262.6 66.4 263.2C66.3 263.5 66.4 263.3 66 263.4C65.7 263.4 65.4 263.4 65.2 263.4H60.3C60.1 263.4 59.2 263.4 59.3 263.4C59.3 263.4 59.3 262.9 59.3 262.6C59.3 260.7 59.3 258.7 59.3 256.8C59.2 252.6 59 248.3 58.5 244.1C57 230.1 53.3 213.3 40.8 204.9C33.9 200.2 24.6 199 16.7 201.8L17 202.5C21.7 200.2 26.2 197.8 31.3 196.6C36.9 195.3 42.9 195.3 48.1 197.9C57.9 202.9 62.1 214.7 64.2 224.8C65.6 231.3 66.3 238 66.6 244.6C66.6 245.1 67.4 245.1 67.4 244.6L67.5 244.7Z" fill="#231F20"/>
<path d="M17.1 201.7C17.1 201.7 16.9 201.7 16.9 201.8L17.2 202.5C17.2 202.5 17.4 202.5 17.5 202.4C17.5 202.4 17.5 202.4 17.6 202.4C17.7 202.4 17.6 202.4 17.6 202.3C17.6 202.3 17.6 202.3 17.6 202.1C17.6 202.1 17.6 202.1 17.6 202C17.6 202 17.5 201.8 17.4 201.8H17.3C17.3 201.8 17.2 201.8 17.1 201.8C17.1 201.8 16.9 201.8 16.8 201.9C16.8 201.9 16.8 201.9 16.7 201.9C16.6 201.9 16.7 201.9 16.7 202C16.7 202.1 16.7 202.2 16.7 202.2C16.7 202.2 16.7 202.2 16.8 202.2C16.8 202.2 16.9 202.2 17 202.2C17 202.2 17.1 202.2 17.2 202.2C17.2 202.2 17.2 202.2 17.3 202.2C17.3 202.2 17.3 202.2 17.4 202.2C17.5 202.2 17.4 202.2 17.4 202.1C17.4 202.1 17.4 202.1 17.4 201.9C17.4 201.9 17.4 201.9 17.4 201.8C17.4 201.8 17.3 201.6 17.2 201.6H17.1C17.1 201.6 17 201.6 16.9 201.6L17.1 201.7Z" fill="#231F20"/>
<path d="M61.7 262.7C61.5 262.7 60.7 262.8 60.5 262.7C60.1 262.5 60.5 263.1 60.4 262.4C60.3 261.8 60.4 261.1 60.4 260.4C60.4 258.7 60.4 256.9 60.4 255.2C60.4 252 60.1 248.7 59.8 245.4C59.2 239.4 58.3 233.3 56.7 227.4C53.8 217 48.1 206.3 37.7 201.8C31.8 199.3 24.3 198.8 18.3 201L18.6 201.7C24.3 198.8 30.6 196.4 37.1 196.3C43.6 196.2 49.5 198.8 53.7 203.6C57.9 208.4 60.5 214.6 62.2 220.7C64 227.3 65 234.1 65.5 240.8C65.8 244.6 65.9 248.3 65.9 252.1C65.9 255.9 65.6 259.3 65.5 263L65.9 262.6H61.8C61.3 262.6 61.3 263.4 61.8 263.4H65.9C66.1 263.4 66.3 263.2 66.3 263C66.3 259.5 66.7 256.1 66.7 252.6C66.7 249.1 66.6 245.4 66.3 241.8C65.8 234.8 64.9 227.7 63 221C61.3 214.9 58.9 208.7 54.8 203.8C50.9 199.1 45.5 196.2 39.4 195.7C32 195.1 24.7 197.9 18.2 201.2C17.8 201.4 18.1 202 18.5 201.9C24.3 199.8 31.4 200.2 37.1 202.5C42.4 204.7 46.6 208.7 49.8 213.4C56.4 223.4 58.5 236.1 59.4 247.9C59.7 251.5 59.8 255.1 59.8 258.7C59.8 259.5 59.8 260.4 59.8 261.2C59.8 261.7 59.6 262.4 59.8 262.9C60.1 263.8 61 263.4 61.8 263.4C62.6 263.4 62.3 262.6 61.8 262.6L61.7 262.7Z" fill="#231F20"/>
<path d="M66.8 239.6C70.1 225.3 74.5 211 81.3 197.9C85.8 189.1 91.5 180.8 98.8 174.1C103.8 169.4 109.5 165.6 116 163.3C120.2 161.8 124.7 160.9 129.2 160.7C130.6 160.7 132 160.7 133.3 160.8C133.9 160.8 134.6 161.1 135.2 161.1C135.3 161.1 136.2 160.4 136.2 160.5C135.8 160.1 135.4 159.7 135 159.3C134 158.3 132.9 157.4 131.7 156.6C130.1 155.4 128.4 154.4 126.6 153.5C124.5 152.5 122.3 151.7 120 151.2C117.4 150.7 114.8 150.6 112.1 150.9C109.1 151.3 106.1 152.3 103.4 153.7C99.9 155.5 96.8 157.8 93.9 160.5C90.2 164 87.1 168.1 84.3 172.4C80.5 178.2 77.4 184.5 74.7 190.9C71 199.4 68 208.2 65.4 217.1C64.6 219.6 63.9 222.2 63.2 224.7C63.2 224.4 64.2 224.4 64.2 224.1C66.8 214.7 69.7 205.5 73.2 196.4C75.9 189.5 78.9 182.8 82.6 176.4C85.3 171.6 88.4 167.1 92 162.9C94.7 159.8 97.8 157 101.3 154.9C101.3 154.9 101.5 154.8 101.6 154.7C101.8 154.6 102 154.5 102.2 154.4C102.6 154.2 103 154 103.3 153.8C104 153.5 104.8 153.1 105.5 152.9C106.9 152.4 108.3 152 109.7 151.7C112.3 151.2 114.9 151.2 117.5 151.7C119.8 152.1 122.1 152.7 124.2 153.7C126.1 154.5 127.8 155.5 129.5 156.6C130.8 157.5 132 158.4 133.1 159.4C133.6 159.9 134.2 160.5 134.7 161L135.7 160.4C135.2 160.4 134.8 160.2 134.3 160.2C133 160 131.8 160 130.5 160C128.6 160 126.6 160.2 124.7 160.5C122.2 160.9 119.8 161.5 117.4 162.3C114.5 163.3 111.8 164.5 109.1 165.9C105.9 167.7 102.9 169.6 100.1 171.9C96.7 174.6 93.7 177.7 90.9 181C87.5 185 84.6 189.4 82 193.9C78.8 199.4 76.1 205.3 73.7 211.2C70.8 218.5 68.5 226 66.6 233.6C66.1 235.7 65.5 237.9 65.1 240C65.1 239.7 66.1 239.7 66.1 239.4L66.8 239.6Z" fill="#231F20"/>
<path d="M67.2 239.7C70.7 224.5 75.4 209.4 83 195.7C90 183 99.8 170.9 113.3 164.9C117.5 163.1 122 161.8 126.5 161.4C128.8 161.2 131.1 161.1 133.4 161.4C134 161.4 134.9 161.8 135.5 161.7C135.9 161.7 136.2 161.2 136.6 161.1C136.9 161.1 136.9 160.7 136.8 160.5C131.7 155.1 124.3 151.2 116.9 150.8C109.5 150.4 102.6 153.6 96.9 158.2C90.9 163 86.2 169.5 82.3 176.2C78.4 182.9 75 190.4 72.1 197.9C68.7 206.8 65.9 215.8 63.3 225C63.3 225.3 63.7 225.7 63.9 225.4C64.3 224.9 64.8 225.1 65.1 224.4C65.6 223.1 65.9 221.6 66.3 220.2C67.1 217.5 67.9 214.8 68.8 212.1C70.5 206.8 72.3 201.5 74.3 196.3C78.3 186.2 83 176.1 89.6 167.5C93.2 162.8 97.3 158.6 102.3 155.5C102.7 155.2 102.3 154.6 101.9 154.8C101.9 154.8 101.9 154.8 101.8 154.8C101.4 155.1 101.8 155.7 102.2 155.5C107.7 152.5 114.1 151.4 120.2 152.9C125.8 154.3 131.2 157.5 135.1 161.7C135.2 161.8 135.4 161.8 135.6 161.7L136.6 161.1C136.9 160.9 136.8 160.5 136.6 160.4C129.4 159 121.4 160.7 114.7 163.5C108 166.3 101.6 170.7 96.4 175.8C85.5 186.5 78.3 200.4 73 214.6C69.9 223 67.5 231.6 65.5 240.3C65.5 240.6 65.9 241 66.1 240.7C66.3 240.4 66.9 240.4 67.1 240.1C67.4 239.7 66.9 239.2 66.6 239.6C66.4 239.9 65.8 239.9 65.6 240.2L66.2 240.6C69.6 225.8 74.1 211.2 81.3 197.8C88.2 184.8 97.8 173.1 111 166.2C118.5 162.2 127.9 159.6 136.4 161.2V160.5L135.3 161.1H135.8C131.7 156.8 125.9 153.4 120.1 152C113.9 150.6 107.5 151.7 101.9 154.7L102.3 155.4C102.3 155.4 102.3 155.4 102.4 155.4L102 154.7C93.3 160.2 87.1 168.7 82.2 177.6C76.8 187.3 72.7 197.6 69.3 208.1C68.3 211.2 67.3 214.3 66.4 217.4C66 218.9 65.5 220.4 65.1 221.8C64.9 222.5 64.8 223.6 64.3 224.2C64 224.5 63.7 224.5 63.4 224.9L64 225.3C68.2 210.1 73.2 194.8 80.6 180.8C84.1 174.2 88.3 167.7 93.6 162.3C98.9 156.9 105.5 152.6 112.9 151.8C121.5 150.9 130.4 155 136.3 161.2L136.5 160.6C136.1 160.6 135.9 161 135.6 161.1C135.1 161.3 134.1 160.9 133.6 160.9C131.6 160.7 129.6 160.7 127.6 160.9C123.6 161.2 119.7 162.1 115.9 163.5C109.1 166 103 170.2 97.8 175.2C86.8 185.8 79.6 199.7 74.3 213.9C71.1 222.4 68.7 231.1 66.7 240C66.6 240.5 67.3 240.7 67.4 240.2L67.2 239.7Z" fill="#231F20"/>
<path d="M60.1 210.6C59.8 202.4 59 194.2 57.7 186C56.6 179 55 172.1 52.9 165.3C51.1 159.4 48.9 153.7 46.4 148.1C44.2 143.3 41.6 138.6 38.7 134.2C36.2 130.3 33.5 126.6 30.4 123.1C27.9 120.1 25.1 117.3 22.2 114.7C19.8 112.5 17.2 110.5 14.6 108.6C12.6 107.1 10.4 105.8 8.20001 104.6C6.70001 103.8 5.20001 103 3.60001 102.3C2.90001 102 2.2 101.6 1.5 101.4L0.5 102C1 101.9 1.50001 101.8 2.10001 101.8C3.50001 101.7 4.99999 101.6 6.39999 101.8C8.59999 101.8 10.7 102.2 12.9 102.6C15.6 103.2 18.3 104.1 20.9 105.2C24 106.6 27 108.3 29.8 110.4C33.2 112.9 36.3 115.8 39 118.9C42.4 122.8 45.3 127.1 47.9 131.6C51.1 137.3 53.7 143.3 55.9 149.4C58.7 157.1 60.8 165 62.4 173C64.5 183 65.9 193.1 66.8 203.3C67.1 206.1 67.3 208.9 67.5 211.7C67.5 211.5 68.5 211.3 68.5 211.1C67.8 200.4 66.6 189.7 64.7 179.1C63.2 170.6 61.2 162.2 58.6 153.9C56.5 147.3 54 140.9 50.9 134.8C48.4 129.9 45.5 125.3 42.2 121C39.5 117.5 36.4 114.3 33 111.5C30.2 109.2 27.2 107.2 24 105.6C21.4 104.3 18.6 103.2 15.8 102.5C13.5 101.9 11.2 101.5 8.89999 101.3C7.29999 101.2 5.6 101.1 4 101.3C3.3 101.3 2.40001 101.3 1.70001 101.6C1.70001 101.6 1.70001 101.6 1.60001 101.6C1.40001 101.6 0.800006 102.3 0.600006 102.2C1.10001 102.4 1.60001 102.6 2.10001 102.8C3.50001 103.4 4.80001 104 6.10001 104.7C8.20001 105.8 10.1 107 12.1 108.3C14.6 110 17.1 111.9 19.4 113.8C22.3 116.2 25 118.9 27.5 121.6C30.5 124.8 33.2 128.3 35.8 131.9C38.7 136.1 41.4 140.6 43.7 145.1C46.4 150.4 48.6 155.8 50.5 161.4C52.7 167.9 54.5 174.5 55.8 181.3C57.3 189.1 58.3 196.9 58.9 204.8C59 206.9 59.2 209.1 59.3 211.2C59.3 211 60.3 210.8 60.3 210.6H60.1Z" fill="#231F20"/>
<path d="M60.5 210.6C59.7 192.6 57 174.6 50.7 157.7C44.4 140.8 35.5 126.4 22.7 114.7C19.2 111.5 15.4 108.6 11.3 106C9.19999 104.7 6.99999 103.4 4.79999 102.4C3.99999 102 3.09999 101.6 2.29999 101.3C1.39999 101 1.19999 101.3 0.299986 101.7C-0.100014 101.9 0.200005 102.5 0.600005 102.4C5.2 101.6 10.1 102.2 14.6 103.4C19.1 104.6 23.2 106.4 27 108.9C34.5 113.7 40.6 120.6 45.4 128.1C55.2 143.6 60.3 161.9 63.4 179.8C65.3 190.4 66.4 201 67.2 211.8C67.2 212.2 67.7 212.3 67.9 212C68.1 211.7 68.7 211.8 68.9 211.4C69 211.2 68.9 210.7 68.9 210.5C68.9 209.8 68.8 209 68.7 208.3C68.5 205.7 68.3 203.1 68 200.5C67.5 195.4 66.9 190.4 66.1 185.4C64.6 175.2 62.5 165.2 59.4 155.3C53.9 137.4 44.9 118.6 28.8 108C24.3 105 19.3 102.8 14 101.7C11.4 101.1 8.8 100.8 6.1 100.8C4.8 100.8 3.49999 100.8 2.29999 101C1.99999 101 1.59999 101 1.29999 101.2C0.999986 101.3 0.699993 101.7 0.399993 101.7C-7.48038e-06 101.7 -0.100014 102.3 0.299986 102.4C4.09999 103.8 7.70001 105.9 11.1 108.1C14.5 110.3 17.9 113 21.1 115.8C27.3 121.4 32.7 127.9 37.3 134.9C46.5 149.1 52.2 165.3 55.4 181.8C57.3 191.5 58.3 201.3 58.7 211.1C58.7 211.5 59.2 211.6 59.4 211.3C59.6 211 60.2 211.1 60.4 210.7C60.7 210.3 60 209.9 59.8 210.3C59.6 210.6 59 210.6 58.8 210.9L59.5 211.1C58.8 193.5 56.1 175.9 50.1 159.3C44.1 142.7 35.7 128.7 23.6 117C20.2 113.8 16.6 110.8 12.8 108.2C8.99999 105.6 5.00001 103.2 0.700011 101.6V102.3C1.10001 102.3 1.29999 101.9 1.79999 101.7C2.69999 101.3 4.29999 101.4 5.29999 101.4C7.79999 101.4 10.3 101.6 12.8 102C17.6 102.9 22.1 104.6 26.3 107C34.4 111.7 40.9 118.7 46 126.5C56.5 142.6 61.6 161.9 64.8 180.7C65.8 186.3 66.5 191.9 67.1 197.5C67.4 200.3 67.7 203 67.9 205.8C68 207.2 68.1 208.6 68.2 209.9C68.2 210.1 68.3 210.6 68.2 210.7C68.2 210.7 67.9 210.7 67.8 210.9C67.6 211.1 67.4 211.1 67.3 211.3L68 211.5C66.6 192.1 64 172.6 58.1 154C52.7 137 44.1 119.4 29 108.9C24.9 106.1 20.4 103.9 15.6 102.5C10.8 101.1 5.5 100.5 0.600005 101.3L0.899993 102C1.09999 101.9 1.49999 101.5 1.79999 101.5C2.19999 101.5 2.89999 101.9 3.29999 102.1C4.29999 102.5 5.2 103 6.1 103.5C8 104.5 9.8 105.5 11.6 106.7C15.2 109 18.6 111.6 21.7 114.4C28 120 33.5 126.4 38.1 133.5C47.5 147.8 53.4 164.2 56.6 181C58.5 190.7 59.5 200.6 59.9 210.5C59.9 211 60.7 211 60.7 210.5L60.5 210.6Z" fill="#231F20"/>
<path d="M72.5 199.4C71.4 184.8 71.8 170.1 74.5 155.7C76.6 144.5 80.1 133.5 85.1 123.3C89 115.4 93.7 107.9 99.3 101.1C103.2 96.4 107.4 92 112.1 88.2C114.1 86.5 116.5 84.8 118.6 83.5C118.7 83.5 118.5 83.5 118.4 83.6C118.5 83.6 118.6 83.4 118.8 83.4C117.1 84 115.5 84.9 113.9 85.8C109.6 88.2 105.6 90.8 101.8 93.9C96.2 98.4 91.2 103.5 86.8 109.2C81 116.7 76.2 125 72.6 133.8C67.9 145.1 65 157 63.4 169.1C63.2 170.8 63 172.5 62.8 174.3C62.8 174.1 63.8 173.9 63.8 173.7C65 161.4 67.6 149.2 71.9 137.7C75.3 128.7 79.7 120.1 85.2 112.2C89.5 106.2 94.4 100.7 99.9 95.8C103.7 92.5 107.9 89.3 112.2 86.8C113.9 85.8 115.9 84.9 117.7 84L118.1 83.8C116.2 84.9 114.4 86.2 112.7 87.6C108.2 91.1 104.2 95.1 100.4 99.3C94.8 105.7 90 112.7 86 120.2C80.8 130 77 140.6 74.5 151.5C71.4 165.5 70.4 179.9 71.1 194.2C71.2 196.2 71.3 198.2 71.5 200.2C71.5 200 72.6 199.8 72.5 199.6V199.4Z" fill="#231F20"/>
<path d="M72.8 199.4C71.4 181.9 72.4 164.1 76.7 147C80.8 130.8 88.1 115.5 98.6 102.4C101.5 98.9 104.5 95.5 107.8 92.4C111.1 89.3 114.9 86.5 118.7 83.8C119.1 83.5 118.7 82.9 118.3 83.2C118.3 83.2 118.2 83.2 118.1 83.3L118.5 83.9C118.6 83.9 118.7 83.7 118.9 83.7C119.3 83.5 119 82.9 118.6 83C115.2 84.3 112 86.2 108.9 88.2C105.8 90.2 103.1 92.2 100.4 94.4C94.9 99 89.9 104.2 85.6 110C76.8 121.6 70.7 135.1 66.8 149.2C64.6 157.4 63.1 165.8 62.3 174.2C62.3 174.6 62.8 174.7 63 174.4C63.2 174.2 63.7 174.2 63.9 174C64.2 173.7 64.1 173.1 64.2 172.7C64.4 170.6 64.7 168.6 65 166.5C65.5 162.8 66.2 159.1 67 155.4C68.6 148.1 70.8 140.8 73.7 133.9C79.3 120.4 87.4 107.8 98.2 97.8C101.3 94.9 104.7 92.2 108.2 89.8C109.8 88.7 111.5 87.6 113.2 86.7C114.9 85.8 116.8 85.1 118.5 84.1C118.9 83.9 118.5 83.2 118.1 83.5C110.9 87.8 104.6 94 99.2 100.4C93.8 106.8 89.3 113.6 85.4 120.9C77.4 136.1 73 153 71.4 170.1C70.5 180.1 70.5 190.2 71.3 200.2C71.3 200.6 71.8 200.7 72 200.4C72.2 200.1 72.8 200.2 73 199.8C73.3 199.4 72.6 199 72.4 199.4C72.2 199.7 71.6 199.7 71.4 200L72.1 200.2C70.7 182.7 71.6 165 76 148C80.1 131.9 87.3 116.5 97.7 103.5C103.5 96.2 110.5 89 118.6 84.2L118.2 83.6C116.8 84.5 115.2 85 113.7 85.8C112 86.7 110.3 87.7 108.7 88.8C105.7 90.8 102.7 93.1 100 95.5C94.5 100.3 89.6 105.8 85.3 111.7C76.7 123.7 70.8 137.6 67.3 151.9C66.3 156 65.5 160.1 64.8 164.3C64.5 166.3 64.2 168.4 63.9 170.4C63.9 170.9 63.8 171.3 63.7 171.8C63.6 172.3 63.7 173.2 63.4 173.6C63.1 173.8 62.8 173.8 62.5 174.1L63.2 174.3C66.1 145.7 76.6 117 98.4 97.4C101.4 94.7 104.6 92.2 108 90C111.4 87.8 115.2 85.4 119.1 83.9L118.8 83.2C118.7 83.2 118.5 83.3 118.4 83.4C118 83.7 118.4 84.3 118.8 84C118.8 84 118.9 84 119 83.9L118.6 83.3C115.4 85.6 112.2 87.8 109.3 90.5C106.1 93.4 103.2 96.4 100.4 99.7C95.1 105.9 90.5 112.7 86.7 119.9C78.7 135.1 74.2 151.9 72.5 168.9C71.5 179.1 71.5 189.4 72.3 199.6C72.3 200.1 73.1 200.1 73.1 199.6L72.8 199.4Z" fill="#231F20"/>
<path d="M63 170.6C63 168.8 63 167 63 165.3C63 160.9 63 156.4 63.1 152C63.1 146.3 63.2 140.5 63.3 134.8C63.4 129.1 63.4 123.3 63.5 117.6V104.5C63.6 102.5 63.7 100.4 63.6 98.3C63.2 89.6 63.6 80.8 65.1 72.1C66.3 64.7 68.3 57.4 71 50.4C73.4 44.4 76.3 38.6 79.8 33.1C82.8 28.4 86.1 24 89.8 19.9C92.8 16.5 96.1 13.4 99.6 10.5C102.1 8.4 104.8 6.40001 107.5 4.60001C108.4 4.00001 109.3 3.39999 110.2 2.89999C110.2 2.89999 110.3 2.89999 110.4 2.79999C110.4 2.79999 110.4 2.80001 110.6 2.70001C110.8 2.60001 111 2.49999 111.2 2.39999C111.7 2.19999 111.4 2.39999 111.2 2.79999C110.3 4.59999 109.5 6.49999 108.8 8.29999C107.5 11.9 106.4 15.6 105.6 19.3C104.5 24.1 104.1 28.9 103.6 33.8C102.8 42.2 100.6 50.4 97.9 58.3C94.7 67.4 90.6 76.2 85.6 84.3C83.1 88.4 80.2 92.2 77.3 96C74.9 99.2 73 102.7 71.5 106.4C68.7 113.5 67.5 121.1 67.1 128.7C66.8 133.9 67 139.2 67.5 144.5C67.5 145.3 67.8 146.8 67.9 147.5C67.9 147.4 68.8 146.3 68.8 146.2C67.9 140.8 67.8 135.2 68 129.7C68.4 119.1 70.3 108 75.9 98.8C77.5 96.2 79.4 93.9 81.2 91.5C83.2 88.8 85.1 86 86.9 83.1C90.4 77.3 93.5 71.2 96.1 65C98.6 59.1 100.6 53 102.2 46.8C103.6 41.2 104.4 35.6 105 29.9C105.6 23.5 106.9 17.1 108.8 10.9C109.8 7.79999 110.9 4.79999 112.4 1.89999C112.4 1.79999 112.5 1.6 112.6 1.5C111 2.3 109.4 3.29999 107.8 4.29999C104.2 6.59999 100.8 9.2 97.6 12C92.8 16.2 88.4 20.8 84.5 25.8C79.6 32.1 75.4 39 72.1 46.4C68.1 55.3 65.4 64.8 64 74.5C63.2 80.1 62.7 85.9 62.7 91.6C62.7 94.7 62.9 97.8 62.9 100.8V113.8C62.8 113.8 62.6 136 62.6 136C62.6 143.3 62.5 150.6 62.4 158C62.4 162.2 62.4 166.4 62.3 170.6V171.2C62.3 171 63.3 170.8 63.3 170.6H63Z" fill="#231F20"/>
<path d="M63.4 170.6C63.5 158.3 63.6 146 63.8 133.8C63.8 127.8 63.9 121.7 64 115.7C64.1 109.7 64.3 103.7 64 97.7C63.1 73.8 68.7 49.8 82.4 30C86.2 24.6 90.5 19.5 95.3 14.9C100.1 10.3 105 6.30001 110.6 3.10001C111 2.90001 110.6 2.2 110.2 2.5L110.6 3.20001C110.9 3.00001 111.2 2.80001 111.6 2.70001L111.1 2.5C111.1 2.5 109.9 4.80001 109.7 5.20001C109.2 6.30001 108.8 7.4 108.4 8.5C107.5 11 106.7 13.5 106 16C104.7 21.1 104 26.2 103.4 31.4C102.8 36.6 102.1 42 100.8 47.3C99.6 52.2 98 57.1 96.2 61.9C92.6 71.4 88 80.5 82.2 88.8C79.3 92.9 76 96.7 73.6 101.1C71.2 105.5 69.6 110.1 68.6 114.9C66.2 125.5 65.9 137 67.6 147.8C67.6 148.2 68.2 148.1 68.3 147.8C68.5 147.3 69.1 147 69.2 146.6C69.2 146.4 69.2 146.1 69.2 145.8C69.1 144.9 69 144 68.8 143C68.5 140.3 68.4 137.7 68.4 135C68.4 129.9 68.6 124.8 69.4 119.8C70.1 115.1 71.2 110.5 73 106.1C74.9 101.3 77.6 97.3 80.7 93.2C86.9 85.1 92 76.1 96 66.7C100 57.3 103.3 46.9 104.7 36.4C105.5 30.6 105.9 24.8 107.1 19C108.4 13.2 110.2 7.19999 112.9 1.89999C113.1 1.59999 112.7 1.19999 112.4 1.39999C107.3 3.79999 102.6 7.4 98.4 11C93.8 14.9 89.6 19.1 85.8 23.7C78.4 32.6 72.7 42.8 68.8 53.7C64.7 65.2 62.6 77.4 62.3 89.7C62.3 92.8 62.3 95.9 62.4 98.9C62.4 102.2 62.4 105.5 62.4 108.8C62.4 115.2 62.3 121.6 62.2 128.1C62.1 142.5 61.9 156.8 61.8 171.2C61.8 171.6 62.3 171.7 62.5 171.4C62.7 171.1 63.3 171.2 63.5 170.8C63.8 170.4 63.1 170 62.9 170.4C62.7 170.7 62.1 170.7 61.9 171L62.6 171.2C62.7 158.7 62.8 146.1 63 133.5C63 127.3 63.1 121 63.2 114.8C63.3 108.6 63.4 102.1 63.2 95.8C62.4 71.7 69.1 47.3 83.6 27.9C87.5 22.7 91.9 17.8 96.8 13.4C101.7 8.99999 107 4.79999 112.9 1.89999L112.4 1.39999C107.6 10.5 105.6 21 104.6 31.2C103.5 42.1 100.8 52.6 96.8 62.8C92.8 73 88 81.9 81.9 90.3C79 94.4 75.8 98.1 73.7 102.7C71.7 106.9 70.3 111.5 69.4 116C68.4 121.3 67.9 126.7 67.8 132.2C67.8 135.3 67.8 138.4 68.1 141.4C68.2 142.7 68.4 144 68.5 145.4C68.6 146.2 68.5 146.3 68.1 146.9C68 147.1 67.9 147.2 67.8 147.4H68.5C66.9 137.4 67.1 126.9 69 117C70 112 71.5 107.1 73.8 102.5C76.1 97.9 79.3 94.2 82.2 90.2C87.9 82.2 92.5 73.4 96.2 64.3C100 54.9 102.9 45 104.1 34.9C104.8 28.9 105.3 22.9 106.8 17C107.5 14.2 108.3 11.5 109.3 8.79999C109.8 7.29999 110.4 5.79999 111.1 4.39999C111.3 3.89999 112.3 2.70001 112.1 2.20001C112 2.00001 111.8 1.9 111.6 2C111.3 2.1 111 2.3 110.6 2.5C110.2 2.7 110.6 3.40001 111 3.10001L110.6 2.39999C105.8 5.19999 101.3 8.69999 97.2 12.4C92.8 16.4 88.8 20.7 85.2 25.4C78.1 34.6 72.6 45 69 56.1C65.3 67.5 63.6 79.5 63.5 91.5C63.5 94.6 63.7 97.6 63.7 100.7C63.7 103.8 63.7 106.8 63.7 109.8C63.7 116 63.6 122.2 63.5 128.3C63.4 142.4 63.2 156.5 63.1 170.5C63.1 171 63.9 171 63.9 170.5L63.4 170.6Z" fill="#231F20"/>
<path d="M111.9 1.79999C107.9 5.59999 104.4 9.99999 101 14.3C93.8 23.7 87.5 34.1 83.5 45.3C81.5 50.9 80.4 56.8 79 62.6C77.8 67.5 76.5 72.4 75.1 77.3C72.2 87.7 69.4 98.1 67.6 108.7C65.3 122 64.6 135.5 65.1 148.9C65.1 150.9 65.4 154.7 65.5 156.7C65.5 156.6 66.2 154.6 66.1 154.4C65.3 140.4 65.6 126.4 67.7 112.5C69.3 101.7 72 91 74.9 80.5C76.3 75.6 77.7 70.6 78.9 65.7C79.5 63.2 80.2 60.7 80.7 58.2C81.3 55.3 81.9 52.4 82.8 49.6C86.3 37.8 92.4 26.8 99.6 16.9C103.5 11.5 107.8 6.30001 112.5 1.60001L112.7 1.39999C112.5 1.59999 112.1 1.59999 111.9 1.89999V1.79999Z" fill="#231F20"/>
<path d="M111.7 1.6C104.2 8.9 97.7 17.6 92.3 26.5C89.6 31 87.1 35.7 85.1 40.6C83.1 45.5 81.6 50.5 80.3 55.7C75.2 77.7 67.7 99.2 65.5 121.8C64.4 133.5 64.4 145.1 65.1 156.8C65.1 157.2 65.8 157.3 65.8 156.8C65.8 156.3 66.1 155.7 66.3 155.2C66.5 154.4 66.4 153.6 66.3 152.7C66.2 149.9 66.1 147 66 144.2C66 138.5 66 132.8 66.4 127.1C67.2 115.7 69.1 104.4 71.8 93.2C74.5 82.2 77.9 71.4 80.5 60.3C81.7 55 82.8 49.8 84.6 44.7C86.4 39.6 88.6 35 91.1 30.5C96.9 20 104.2 10 112.8 1.6C113.1 1.3 112.8 0.799998 112.3 0.999998C112 1.2 111.8 1.3 111.5 1.5C111.1 1.8 111.5 2.4 111.9 2.1C112.2 1.9 112.4 1.8 112.7 1.6L112.2 0.999998C104.7 8.4 98.1 17.2 92.6 26.2C87.2 35.1 83.1 44.6 80.8 54.8C78.3 66.1 75 77.1 72.1 88.3C69.3 99.2 67 110.2 65.9 121.4C65.3 127.8 65 134.2 65 140.6C65 143.8 65 147.1 65.2 150.4C65.2 151.7 65.6 153.2 65.4 154.5C65.3 155.2 64.9 155.8 64.8 156.5H65.5C64.9 146.5 64.7 136.4 65.5 126.3C66.3 115 68.3 103.9 71 93C73.7 82.1 77.1 71.4 79.6 60.4C80.8 55.1 81.9 49.8 83.8 44.8C85.7 39.8 87.9 35.1 90.4 30.5C93.2 25.4 96.4 20.6 99.9 15.9C103.5 11 107.4 6.3 111.8 2C112.2 1.7 111.6 1.1 111.3 1.5L111.7 1.6Z" fill="#231F20"/>
</svg>
