<svg width="70" height="264" viewBox="0 0 70 264" fill="none" xmlns="http://www.w3.org/2000/svg">
<path d="M35.5 19.3C33.3 15.1 31.1 10.6 31.2 5.9C31.2 4.6 31.4 3.30002 32.1 2.20002C32.8 1.10002 34.1 0.400016 35.4 0.700016C36.1 0.800016 36.6 1.20001 37.2 1.60001C39.2 3.00001 41.3 4.4 42.6 6.5C44.6 9.7 44.5 13.7 44.3 17.4C43.9 25.9 39.3 26.9 35.4 19.3H35.5Z" fill="#231F20"/>
<path d="M35.8 19.1C33.9 15.3 31.8 11.3 31.6 7C31.5 5 31.6 2.49999 33.5 1.39999C35.4 0.299994 37.5 2.19999 39 3.29999C40.7 4.49999 42.1 5.99999 43 7.89999C43.8 9.69999 44 11.7 44.1 13.6C44.2 15.5 44.1 17.6 43.8 19.6C43.6 20.9 43.2 22.4 42.2 23.4C39.7 25.8 36.8 20.9 35.9 19.1C35.7 18.7 35 19.1 35.2 19.5C36.3 21.6 38.7 25.7 41.7 24.6C42.9 24.1 43.5 23 43.9 21.9C44.7 19.9 44.7 17.7 44.8 15.6C44.8 13.3 44.8 11 44.1 8.79999C43.4 6.59999 42.1 4.89999 40.3 3.39999C39.5 2.69999 38.5 2.09999 37.6 1.39999C36.8 0.799994 35.9 0.200012 34.8 0.200012C32.8 0.200012 31.5 1.90001 31 3.70001C30.4 6.20001 30.9 9 31.6 11.5C32.4 14.3 33.8 16.9 35.1 19.5C35.3 19.9 36 19.5 35.8 19.1Z" fill="#231F20"/>
<path d="M56.5 10.7C58.9 7.30002 63 4.7 67.1 5.4C67.7 5.5 68.4 5.70001 68.8 6.10001C69.3 6.60001 69.4 7.50002 69.4 8.20002C69.4 16.5 64.6 26.6 56.6 30.1C46.6 34.5 54.1 14.1 56.6 10.7H56.5Z" fill="#231F20"/>
<path d="M56.8 10.9C58.7 8.3 61.5 6.10002 64.8 5.70002C65.6 5.70002 66.5 5.6 67.3 5.8C68.6 6.2 68.9 7.00002 68.9 8.20002C68.9 9.60002 68.8 11 68.6 12.4C67.7 17.8 65.1 23 61 26.7C59.5 28.1 53.7 32.7 52.2 29C51.1 26.3 52.3 22.5 53.1 19.9C54 16.9 55 13.5 56.8 10.9C57.1 10.5 56.4 10.1 56.1 10.5C54.2 13.3 53.1 16.8 52.2 20C51.7 21.9 51.2 23.8 51.1 25.8C51.1 27.2 51.1 28.8 51.8 30C54.1 33.3 59.6 28.9 61.5 27.2C66 23.1 68.8 17 69.5 10.9C69.7 9.5 70 7.40002 69.2 6.10002C68.4 4.70002 66.3 4.7 64.9 4.8C61.2 5.1 58.1 7.5 56 10.4C55.7 10.8 56.4 11.2 56.7 10.8L56.8 10.9Z" fill="#231F20"/>
<path d="M54.7 44.5C56.4 40.2 60.3 36.4 64.9 36.3C65.5 36.3 66.2 36.3 66.7 36.7C67.5 37.3 67.5 38.5 67.4 39.5C67.2 41.8 67 44.1 66.2 46.2C64.9 49.7 59.6999 56.9 55.5999 57.4C50.5999 58 53.4 47.4 54.7 44.4V44.5Z" fill="#231F20"/>
<path d="M55.0999 44.6C56.6999 40.6 60.4 36.7 65 36.6C66.6 36.6 67.2 37.4 67.2 38.9C67.2 40.3 67 41.6 66.8 43C66.5 44.9 65.9 46.6 64.9 48.3C63.1 51.4 60.7 54.7 57.5 56.4C56.5 56.9 54.9999 57.5 54.0999 56.6C53.2999 55.8 53.3 54.3 53.3 53.3C53.3 50.4 54.1 47.3 55.2 44.6C55.4 44.1 54.7 44 54.5 44.4C53.4 47.3 52.4999 50.6 52.5999 53.7C52.5999 54.9 52.8 56.4 53.8 57.3C54.8 58.2 56.2 57.9 57.3 57.4C59.2 56.6 60.6999 55.1 62.0999 53.6C63.4999 52 64.8 50.3 65.8 48.5C66.9 46.5 67.5 44.4 67.8 42.2C68 40.4 68.9 36.9 66.5 36.1C64.1 35.3 61.2 36.7 59.3 38.1C57.1 39.7 55.5 42 54.5 44.5C54.3 45 55 45.1 55.2 44.7L55.0999 44.6Z" fill="#231F20"/>
<path d="M60.9 70.8C62.4 70.1 64.1 69.7 65.7 69.2C66.4 69 67.2 68.8 67.9 69.2C68.7 69.6 69 70.7 69 71.7C69.2 77.4 65.7 83 60.5 85.3C46.9 91.2 53.6 74.2 60.9 70.8Z" fill="#231F20"/>
<path d="M61.1 71.2C62.4 70.6 63.8 70.2 65.2 69.8C65.8 69.6 66.5 69.4 67.1 69.4C68 69.4 68.4 70.3 68.5 71.1C68.9 73.3 68.3 75.8 67.3 77.9C65.5 82 61.9 84.9 57.6 85.9C55.7 86.4 53.3 86.4 53 84C52.7 81.6 53.8 79.3 54.9 77.4C56.4 74.9 58.4 72.4 61.1 71.2C61.5 71 61.1 70.3 60.7 70.6C58 71.9 55.9 74.3 54.4 76.8C53.1 78.9 51.8 81.8 52.3 84.4C52.8 87 55.5 87.3 57.7 86.7C62.4 85.6 66.3 82.3 68.2 77.8C68.7 76.5 69.1 75.2 69.2 73.8C69.4 72.5 69.5 71 68.9 69.8C68.3 68.5 67 68.4 65.8 68.8C64 69.2 62.3 69.7 60.7 70.5C60.3 70.7 60.7 71.3 61.1 71.1V71.2Z" fill="#231F20"/>
<path d="M53.7 107.3C53.9 106.2 54.2 105.2 54.7 104.2C56.2 101.6 59.5 100.6 62.5 100C64.1 99.7 66 99.5 67.3 100.5C68 101.1 68.5 101.9 68.8 102.8C70 106.4 69.4 110.6 67.2 113.7C65 116.7 58.6 120.7 54.8 118.2C51.9 116.3 53.2 110.2 53.8 107.3H53.7Z" fill="#231F20"/>
<path d="M54.1 107.4C54.5 105.2 55.4 103.4 57.3 102.2C58.9 101.2 60.8 100.8 62.6 100.4C64.8 100 67 99.9 68.1 102.2C68.9 104 69.2 106.2 68.9 108.1C68.4 111.9 66.2 114.8 63 116.7C60.7 118.1 56.2 119.9 54.2 117C53.2 115.6 53.3 113.7 53.4 112.1C53.5 110.5 53.8 108.9 54.1 107.3C54.1 106.8 53.5 106.6 53.4 107.1C52.9 110.2 51.8 114.1 53.4 117.1C55.2 120.4 59.9 119.3 62.6 117.9C66.2 116 68.9 112.9 69.6 108.8C70 106.6 69.8 104.3 68.9 102.2C68 100.1 66.4 99.3001 64.2 99.4001C61.9 99.6001 59.4 100.2 57.3 101.3C55 102.6 53.9 104.6 53.4 107.2C53.4 107.7 54 107.9 54.1 107.4Z" fill="#231F20"/>
<path d="M51 138.3C53 135.1 56.6 132.6 60.3 133C61 133 61.8001 133.3 62.4001 133.7C63.4001 134.4 63.9 135.7 64 137C64.3 139.8 63.1 142.5 61.5 144.8C60 147 58 149 55.5 149.8C46.2 153 47.9001 143.1 50.9001 138.2L51 138.3Z" fill="#231F20"/>
<path d="M51.3 138.5C52.4 136.8 53.8 135.3 55.6 134.4C57.4 133.5 59.8 132.9 61.7 133.7C63.9 134.7 63.9 137.7 63.5 139.7C63 141.8 62 143.7 60.7 145.4C59.5 147 58 148.4 56.2 149.2C54.9 149.8 53.2 150.2 51.7 150C49.5 149.7 48.9 147.6 49 145.7C49 143.2 50 140.6 51.3 138.5C51.5 138.1 50.9 137.7 50.6 138.1C49.2 140.3 48.3 143.1 48.1 145.7C48.1 147.9 48.8 150.3 51.2 150.7C52.8 151 54.5 150.6 55.9 150C58 149.2 59.7 147.6 61 145.8C62.5 143.9 63.7 141.7 64.1 139.3C64.4 137.3 64.3 134.8 62.7 133.3C60.9 131.8 58 132.2 56 133C53.7 134 51.8 135.7 50.5 137.8C50.2 138.2 50.9 138.6 51.2 138.2L51.3 138.5Z" fill="#231F20"/>
<path d="M53.6 170.6C54.3 168.1 55.3 165.6 56.9 163.6C58.5 161.6 60.8 160 63.4 159.6C64.6 159.4 65.9 159.6 66.8 160.4C67.4 160.9 67.7 161.7 68 162.4C70.1 168.5 67.1 175.9 61.4 178.9C60.2 179.5 58.9 180 57.6 180.4C54.4 181.4 53.1 182.6 52.2 179.5C51.5 177.2 52.9 173 53.6 170.7V170.6Z" fill="#231F20"/>
<path d="M54 170.7C55.2 166.5 57.4 161.9 61.8 160.4C62.7 160.1 63.7 159.9 64.6 160C66.1 160.1 67 161 67.5 162.4C68.1 164.1 68.3 165.9 68.2 167.6C67.9 171.2 66.2001 174.7 63.4001 177.1C61.8001 178.5 59.8 179.3 57.8 179.9C57 180.1 56.3 180.4 55.6 180.7C55.1 180.9 54.4 181.2 53.8 181.1C52.1 180.8 52.3 177.7 52.5 176.5C52.8 174.6 53.4001 172.7 53.9001 170.8C54.0001 170.3 53.3 170.1 53.2 170.6C52.6 172.6 52 174.6 51.7 176.7C51.5 178.2 51.5 180.4 52.7 181.4C53.7 182.3 55.2 181.6 56.3 181.2C58.5 180.4 60.8 179.8 62.8 178.4C66.1 176.1 68.3 172.3 68.8 168.3C69.1 166.2 68.8 164 68.1 162C67.4 160 65.6001 159 63.4001 159.2C57.6001 159.8 54.5 165.5 53 170.5C52.9 171 53.6 171.2 53.7 170.7H54Z" fill="#231F20"/>
<path d="M17.8 180.4C16.1 177.3 14.3 174 11.1 172.4C9.29997 171.5 7.29998 171.3 5.29998 171.1C4.19998 171 3.09997 170.9 2.09997 171.3C0.999971 171.8 0.300008 173.1 0.200008 174.4C0.100008 175.7 0.499971 176.9 1.09997 178C3.19997 182.4 7.80001 185.6 12.7 186.1C18.5 186.7 20.7 185.9 17.8 180.3V180.4Z" fill="#231F20"/>
<path d="M18.2 180.2C16.2 176.4 13.9 172.6 9.59997 171.4C8.59997 171.1 7.50002 171 6.40002 170.8C5.20002 170.7 3.9 170.4 2.7 170.8C0.800005 171.3 -0.100007 173.2 -7.41286e-06 175.1C0.199993 179.1 3.69999 182.9 6.99999 184.7C8.69999 185.7 10.6 186.3 12.6 186.5C14.1 186.7 15.8 186.8 17.3 186.5C18.3 186.3 19.3 185.8 19.5 184.7C19.8 183.2 18.9 181.4 18.2 180.1C18 179.7 17.3 180.1 17.5 180.5C18.3 182 19.9 185.1 17.3 185.7C16.1 186 14.7 185.9 13.5 185.7C11.8 185.5 10.1 185.2 8.49999 184.5C5.29999 183 2.5 180.3 1.2 177C0.500005 175.1 0.400005 172.3 2.7 171.5C3.7 171.1 4.79998 171.3 5.79998 171.5C6.89998 171.6 7.99997 171.8 9.09997 172C13.4 173.1 15.6 176.9 17.6 180.5C17.8 180.9 18.5 180.5 18.3 180.1L18.2 180.2Z" fill="#231F20"/>
<path d="M17.7 148.5C16.8 146.4 16.1 144.2 14.7 142.4C13.3 140.6 11.1 139.2 8.90004 139.5C7.50004 139.7 6.2 140.5 5.3 141.6C4.9 142.1 4.5 142.6 4.3 143.2C3.4 145.3 4.5 147.8 5.8 149.7C6.9 151.1 8.10003 152.4 9.70003 153.3C13.3 155.3 17.8 154.9 21.7 154.4C20.1 152.7 18.7 150.9 17.7 148.6V148.5Z" fill="#231F20"/>
<path d="M18 148.3C16.8 145.4 15.7 142.2 13.1 140.3C10.7 138.6 7.80001 138.7 5.50001 140.7C4.50001 141.6 3.70001 142.8 3.50001 144.2C3.30001 145.6 3.80001 147.1 4.50001 148.4C5.90001 151.1 8.30002 153.3 11.2 154.4C14.6 155.6 18.3 155.2 21.8 154.7C22.1 154.7 22.1 154.3 22 154.1C20.4 152.4 19 150.5 18.1 148.4C17.9 148 17.3 148.4 17.4 148.8C18.4 151 19.8 152.9 21.4 154.7L21.6 154.1C18.9 154.5 16.1 154.8 13.4 154.3C10.7 153.8 8.39998 152.4 6.59998 150.2C4.79998 148 3.29999 144.9 5.29999 142.4C7.09999 140 10.1 139.3 12.6 141C15.1 142.7 16.3 146.1 17.5 148.9C17.7 149.3 18.3 148.9 18.2 148.5L18 148.3Z" fill="#231F20"/>
<path d="M21.4 116.3C19.8 114.9 18.2 113.5 16.2 112.6C14.2 111.7 12 111.4 10 112.2C8.00002 113 6.50003 115 6.70003 117.2C7.00003 120 9.90004 121.7 12.4 123C13.3 123.4 14.3 123.9 15.3 124C16.5 124.2 25.5 124.2 26 123.6C27.7 121.5 22.6 117.4 21.4 116.3Z" fill="#231F20"/>
<path d="M21.7 116C18.4 113 13 109.3 8.59997 112.5C7.09997 113.6 6.00002 115.5 6.40002 117.5C6.70002 119.6 8.39997 121 10.1 122.1C11.8 123.2 13.7 124.2 15.6 124.4C16.8 124.5 18.1 124.4 19.4 124.4C21 124.4 22.7 124.4 24.3 124.2C25.1 124.2 26.1 124.2 26.5 123.4C27.2 122.1 26.2 120.5 25.4 119.5C24.3 118.2 23 117 21.7 115.9C21.3 115.6 20.8 116.1 21.2 116.4C22 117.2 22.9 117.9 23.7 118.7C24.6 119.6 25.7 120.7 26 122C26.2 123.2 25.5 123.2 24.6 123.3C23.4 123.4 22.1 123.5 20.9 123.5C18.6 123.5 16.1 123.8 13.9 122.9C10.7 121.6 5.19999 118.6 7.79999 114.4C9.19999 112.1 12.1 111.6 14.6 112.2C17.2 112.9 19.3 114.6 21.3 116.4C21.7 116.7 22.2 116.2 21.8 115.9L21.7 116Z" fill="#231F20"/>
<path d="M19 83.7C18 81.9 17.0001 80.1 15.4001 78.9C13.8001 77.7 11.4 77.3 9.80001 78.5C8.20001 79.7 7.9 82.1 8.1 84.1C8.4 87.7 9.70005 91.6 12.9001 93.4C16.5 95.3 21.7 94.4 25.5 94.7C23 91.3 21.1 87.3 19 83.6V83.7Z" fill="#231F20"/>
<path d="M19.3 83.6C17.8 81 16.1 78.1 12.9 77.6C10.1 77.2 8.10002 79.1 7.70002 81.8C7.30002 84.5 7.90001 87.4 9.00001 89.8C10.2 92.4 12.3 94.2 15.2 94.8C18.6 95.6 22.1 95 25.5 95.2C25.8 95.2 26 94.9 25.8 94.6C23.3 91.1 21.4 87.3 19.3 83.5C19.1 83.1 18.4 83.5 18.6 83.9C20.7 87.6 22.5 91.5 25.1 95L25.4 94.4C20.6 94.1 14.3 95.6 10.8 91.3C9.19999 89.4 8.49999 86.8 8.29999 84.4C8.09999 82 8.50001 78.5 11.5 78.2C15 77.8 17.1 81.2 18.6 83.9C18.8 84.3 19.5 83.9 19.3 83.5V83.6Z" fill="#231F20"/>
<path d="M21.2 54.2C20.6 53.1 20 52 19.2 51.2C17.1 49.2 13.9 49 11 49C9.70001 49 8.30003 49 7.20003 49.6C6.20003 50.1 5.40004 51.1 4.90004 52.1C4.40004 52.9 4.10001 53.8 4.00001 54.7C3.90001 56.3 4.60003 57.8 5.70003 58.9C6.80003 60 8.10004 60.9 9.40004 61.7C10.6 62.4 11.8 63.2 13.2 63.7C17.7 65.3 23 63.5 27.2 65.7C24.7 62.9 23.2 57.6 21.4 54.1L21.2 54.2Z" fill="#231F20"/>
<path d="M21.5 54C20.8 52.6 20 51.2 18.7 50.3C17.5 49.4 16 49 14.5 48.8C11.5 48.4 7.50003 47.9 5.40003 50.5C3.30003 53.1 2.80003 56.2 4.90003 58.8C6.00003 60.2 7.59998 61.2 9.09998 62.1C10.6 63 12.3 64 14.1 64.4C18.3 65.4 22.9 64.1 26.9 66.1C27.3 66.3 27.6 65.8 27.4 65.5C24.6 62.2 23.6 57.8 21.6 54C21.4 53.6 20.7 54 20.9 54.4C22.9 58.2 23.9 62.7 26.8 66.1L27.3 65.5C23.9 63.8 20.1 64.4 16.5 64.1C14.2 63.9 12.2 63.1 10.3 61.9C8.5 60.8 6.5 59.7 5.3 57.9C3.9 55.8 4.29998 53.7 5.59998 51.7C6.99998 49.5 9.00003 49.3 11.4 49.4C13.2 49.4 15.1 49.5 16.9 50.2C18.9 51 20 52.6 21 54.5C21.2 54.9 21.9 54.5 21.7 54.1L21.5 54Z" fill="#231F20"/>
<path d="M18 19C16 18.1 13.5 17.6 11.7 18.9C9.70003 20.3 9.39999 23.2 10.1 25.5C10.8 27.8 12.5 29.7 13.9 31.8C14.8 33.2 15.6 34.6 16.7 35.8C20.2 39.1 29.8 41.3 29.1 34.2C28.6 28.3 23.2 21.5 17.9 19H18Z" fill="#231F20"/>
<path d="M18.2 18.6C16.1 17.6 13.4 17.1 11.3 18.6C9.7 19.8 9.20004 22.1 9.40004 24C9.70004 26.7 11.5 28.9 13 31.1C14.3 33.1 15.4 35.3 17.4 36.7C19.8 38.4 23.3 39.7 26.3 39C30.1 38.1 29.9 34.1 28.9 31.1C27.2 25.9 23.1 21 18.1 18.6C17.7 18.4 17.3 19 17.7 19.2C21.7 21.1 24.9 24.6 26.9 28.5C28.1 30.9 30.3 36.1 27.1 37.9C24.8 39.2 21.5 38.2 19.3 37.1C17.8 36.4 16.6 35.4 15.7 34C15 33 14.4 32 13.7 31C13 29.9 12.2 28.9 11.5 27.8C10.2 25.7 9.3 23.2 10.3 20.8C11.6 17.8 15.1 18.1 17.6 19.2C18 19.4 18.4 18.7 18 18.6H18.2Z" fill="#231F20"/>
<path d="M53.7 28.1C49.5 30.4 45.6 33.9 42.9 37.9C41.8 39.6 40.9 41.5 40.4 43.6C40.3 44.1 41 44.3 41.1 43.8C42.5 37.7 47.6 32.9 52.7 29.6C53.1 29.3 53.6 29 54 28.8C54.4 28.6 54 27.9 53.6 28.2L53.7 28.1Z" fill="#231F20"/>
<path d="M38.5 136C38.8 134.5 39.9 133.1 40.7 131.9C42.2 129.9 43.8 128 45.5 126.2C48.8 122.5 52.4 119 56 115.5C56.8 114.7 57.6 114 58.4 113.3C57.8 113.8 56.9 114 56.3 114.5C54.1 116.5 52 118.6 49.8 120.8C46.1 124.5 42.4 128.3 39.2 132.5C39 132.7 38.8 133 38.6 133.3C38.7 127.6 38.8 121.9 39 116.2C39.1 111.2 39.2 106.1 39.4 101.1C44.4 95.8 49.4 90.4 54.4 85.1C55.1 84.3 55.8 83.6 56.6 82.8C56.1 83.4 55 83.4 54.5 84C49.5 89.3 44.5 94.7 39.5 100C39.5 96 39.7 92 39.8 87.9C40 82.2 40.1 76.5 40.3 70.7C40.4 70.7 40.6 70.5 40.7 70.4C45.3 65.6 50 60.8 54.6 56C55.3 55.3 55.9 54.6 56.6 53.9C56.1 54.5 55 54.5 54.5 55.1C49.9 59.9 45.2 64.7 40.6 69.5C40.6 69.5 40.4 69.7 40.4 69.8C40.4 68.7 40.4 67.7 40.5 66.6C40.6 62.8 40.7 59 41.1 55.3C42.2 44.6 42.5 34 42.6 23.3V20.3C42.6 20.7 40.5 21.1 40.5 21.5C40.5 29.5 40.5 37.5 40.1 45.4C36.4 42.2 32.7 39 29 35.7L27.2 34.2C27.1 34.2 26.2 34.9 26.2 34.8C30.4 38.4 34.5 42.1 38.7 45.7C39.1 46.1 39.6 46.5 40 46.8C39.9 48.7 39.7 50.7 39.5 52.6C39.1 56.5 38.8 60.2 38.6 64.1C38.4 67.5 38.3 71 38.2 74.4C33.5 70.4 28.8 66.5 24.2 62.5C23.4 61.9 22.7 61.2 22 60.6C21.9 60.6 21 61.3 21 61.2C26.2 65.6 31.4 70 36.6 74.4C37.2 74.9 37.8 75.4 38.3 75.9C38.3 78.4 38.1 80.8 38.1 83.2C37.9 89.6 37.8 95.9 37.6 102.3C37.6 104 37.6 105.8 37.5 107.5C33 102.8 28.6 98.1 24.2 93.4C23.5 92.7 22.8 91.9 22.1 91.2C22.1 91.2 21.1 91.9 21.1 91.8C26.1 97 31 102.3 35.9 107.5C36.4 108 36.9 108.6 37.5 109.2C37.5 109.5 37.5 109.8 37.5 110.1C37.3 118.8 37.1 127.5 36.9 136.1C36.7 135.8 36.4 135.4 36.2 135.1C35.1 133.5 33.9 131.9 32.6 130.4C30.3 127.6 27.8 124.9 25.3 122.4C24.8 121.9 24.2 121.3 23.7 120.8C23.7 120.8 22.7 121.5 22.7 121.4C27 125.7 31.3 130.2 34.8 135.2C35.5 136.2 36.3 137.4 36.8 138.5C36.8 139.5 36.8 140.5 36.8 141.4C36.6 149.2 36.5 157 36.3 164.8C36.3 164.8 36.3 164.9 36.2 165C36.2 165 36.2 165 36.3 164.9C36.3 166.1 36.3 167.3 36.3 168.6C31.7 163.9 27.1 159.3 22.5 154.6C21.8 153.9 21.1 153.1 20.3 152.4C19.5 151.7 19.3 153.1 19.3 153C24.4 158.2 29.6 163.4 34.7 168.5C35.2 169.1 35.8 169.6 36.4 170.2C36.4 171.7 36.4 173.2 36.4 174.7C36.2 183.4 36.1 192 35.9 200.6C35.4 200 34.9 199.4 34.4 198.9C32.8 197.1 31.1 195.4 29.4 193.7C26.2 190.5 22.9 187.4 19.5 184.4C19 183.9 18.4 183.4 17.9 183C17.7 182.9 17.4 182.5 17.2 182.5C16.9 182.5 16.4 183.2 16.2 183.1C16.4 183.1 16.6 183.4 16.7 183.5C17.2 183.9 17.6 184.3 18 184.6C19.5 185.9 20.9 187.2 22.3 188.5C25.9 191.8 29.4 195.2 32.7 198.8C33.8 200 34.9 201.2 35.8 202.5C35.8 203.8 35.8 205.1 35.8 206.4C35.6 215.5 35.5 224.7 35.3 233.8C35.2 240.5 35.1 247.2 35 253.9C35 256 35 258.1 34.9 260.1C34.9 261.2 34.7 262.3 34.9 263.4C34.9 263.5 34.9 263.7 34.9 263.8C34.9 263.4 37 263 37 262.6C37 260.4 37 258.2 37.1 256C37.1 250.1 37.3 244.2 37.4 238.2C37.6 229.6 37.7 221 37.9 212.3C37.9 207.2 38.1 202.1 38.2 197C39.1 196.4 40 195.8 40.8 195C42.4 193.5 43.9 192 45.4 190.4C48.5 187.1 51.5 183.7 54.4 180.2C55.1 179.4 55.7 178.7 56.3 177.9C56.1 178.1 55.5 178.3 55.2 178.5C54.9 178.7 54.4 178.8 54.2 179.1C49.8 184.4 45.3 189.7 40.4 194.5C39.7 195.2 38.9 195.9 38.2 196.6C38.2 191.4 38.4 186.3 38.5 181.1C38.6 175.2 38.7 169.3 38.8 163.4C41.9 158.2 45.6 153.2 49.8 148.8C51.3 147.2 53 145.6 54.9 144.4C54.4 144.7 53.5 145.2 52.9 145.6C49.5 147.8 46.7 150.9 44.2 154.1C42.3 156.4 40.6 158.9 38.9 161.4C38.9 157 39.1 152.6 39.2 148.2C39.2 144.1 39.4 140 39.5 135.9L38.5 136Z" fill="#231F20"/>
<path d="M38.8 136.1C39.3 133.8 41.1999 131.7 42.5999 129.9C44.1999 128 45.8999 126.1 47.5999 124.3C51.0999 120.6 54.7 117 58.5 113.5C58.9 113.2 58.3 112.7 58 113C57.2 113.6 56.3 113.9 55.5 114.5C54.6 115.3 53.7 116.2 52.8 117.1C51.1 118.8 49.2999 120.5 47.5999 122.2C44.2999 125.6 41.0999 129.1 38.0999 132.9L38.8 133.1C39 123.7 39.2 114.2 39.5 104.8C39.5 103.8 39.3 102.4 39.5 101.4C39.7 100.4 41.1 99.4 41.8 98.6C43.5 96.8 45.2 95 46.9 93.1C50.1 89.7 53.2999 86.2 56.5999 82.8C56.8999 82.4 56.3999 82 56.0999 82.3C55.4999 82.8 54.8 82.9 54.2 83.3C53.5 83.8 52.9 84.7 52.3 85.3C50.8 86.9 49.3 88.5 47.9 90C44.9 93.2 42 96.3 39 99.5L39.5999 99.8C39.7999 90.9 40 82.1 40.3 73.3C40.3 72.6 40.1 71.4 40.5 70.7C40.9 69.9 42.1 69.1 42.7 68.4C44.2 66.8 45.8 65.2 47.3 63.6C50.4 60.4 53.4999 57.2 56.5999 54C56.8999 53.6 56.3999 53.2 56.0999 53.5C55.5999 54 54.8 54.1 54.3 54.5C53.6 55 53.1 55.7 52.5 56.3C51.1 57.8 49.7 59.2 48.3 60.7C45.5 63.6 42.7 66.5 39.9 69.4L40.5 69.7C40.6 65.6 40.7 61.5 41 57.3C41.3 53.1 41.8 48.9 42 44.8C42.5 36.6 42.6999 28.3 42.5999 20C42.5999 19.5 42 19.5 41.9 19.9C41.8 20.2 40.6 20.4 40.2 20.6C39.7 20.9 39.7 21.1 39.7 21.7C39.7 24.3 39.7 26.9 39.7 29.5C39.7 34.7 39.5 39.9 39.2 45.1L39.8 44.8C37 42.3 34.1 39.9 31.3 37.4C30 36.2 28.6 35.1 27.3 33.9C26.3 33.1 26.5 33.9 25.5 34.1C25.2 34.1 25.1 34.6 25.3 34.7C28.2 37.2 31.1 39.7 33.9 42.2C35.3 43.4 36.6999 44.6 38.0999 45.8C38.9999 46.6 38.9 47.2 38.8 48.3C38.8 49.3 38.5999 50.2 38.5999 51.2C37.8999 58.8 37.5 66.4 37.2 74L37.8 73.7C34.4 70.8 31 67.9 27.5 65C25.9 63.6 24.1999 62.2 22.5999 60.8C22.1999 60.5 21.6999 59.7 21.0999 59.8C20.6999 59.8 20.4 60.3 20 60.4C19.7 60.4 19.6 60.9 19.8 61C23 63.7 26.1 66.4 29.3 69C30.8 70.3 32.3 71.6 33.9 72.9C34.6 73.5 35.3999 74.1 36.0999 74.8C37.0999 75.7 37 76.3 37 77.6C36.9 81.6 36.8 85.6 36.7 89.6C36.7 91.6 36.7 93.5 36.5 95.5C36.5 96.5 36.5 97.5 36.5 98.4C36.5 99 36.5 99.5 36.5 100.1C36.5 100.4 36.6 101.5 36.5 101.6C36.2 101.9 36.5 102.4 37 102.2L36.4 101.8C36.4 103.5 36.4 105.3 36.3 107L36.9 106.7C33.6 103.2 30.3 99.7 27 96.2C25.5 94.6 23.9 93 22.4 91.3C22.1 91 21.7 90.2 21.2 90.3C20.8 90.3 20.4999 90.8 20.0999 90.9C19.7999 90.9 19.8 91.3 19.9 91.5C22.8 94.6 25.7 97.7 28.7 100.8C30.2 102.3 31.5999 103.9 33.0999 105.4C33.7999 106.1 34.3999 106.8 35.0999 107.5C35.3999 107.8 35.8 108.1 36 108.5C36.3 109 36.2 109.7 36.2 110.2C36 118.6 35.7999 127.1 35.5999 135.5L36.3 135.3C34 131.8 31.3 128.5 28.4 125.4C26.9 123.8 25.4 122.2 23.9 120.6C23.6 120.3 23.2 119.7 22.7 119.7C22.3 119.7 22 120.2 21.7 120.3C21.4 120.3 21.4 120.8 21.5 120.9C24.2 123.6 26.9 126.4 29.4 129.3C30.7 130.8 32 132.5 33.2 134.1C33.7 134.9 34.3 135.7 34.8 136.5C35.4 137.5 35.5999 138.2 35.5999 139.3C35.5999 143.4 35.4 147.6 35.3 151.7C35.3 153.7 35.3 155.7 35.2 157.7C35.2 158.7 35.2 159.7 35.2 160.7C35.2 161.3 35.2 161.9 35.2 162.4C35.2 162.9 35.2999 163.7 35.0999 164.2C34.8999 164.6 35.4 164.9 35.7 164.7H35.8C35.8 164.6 35.2 164.3 35.2 164.3C35.2 165.5 35.2 166.7 35.2 168L35.8 167.7C32.4 164.3 28.9999 160.8 25.5999 157.4C23.9999 155.8 22.4 154.1 20.7 152.5C20.4 152.2 20 151.4 19.4 151.5C19 151.5 18.7 152 18.3 152.1C18 152.1 17.9999 152.5 18.0999 152.7C21.2999 155.9 24.4 159.1 27.5 162.2C29.1 163.9 30.8 165.5 32.4 167.2C33.1 167.9 34.3 168.7 34.8 169.6C35.3 170.5 35 171.9 35 172.9C34.8 182 34.7 191 34.5 200.1L35.0999 199.8C31.7999 195.8 28.1 192.2 24.3 188.7C22.4 186.9 20.4999 185.2 18.5999 183.5C17.9999 183 17.3 182 16.5 181.7C15.8 181.4 15.7 182 15 182.2C14.7 182.2 14.6 182.7 15 182.9C16 183.4 17 184.6 17.9 185.4C19 186.4 20.0999 187.4 21.0999 188.3C23.1999 190.2 25.2 192.2 27.3 194.2C29.4 196.2 31.1 198 32.9 200.1C33.4 200.6 34 201.3 34.4 201.9C34.8 202.5 34.5999 203.3 34.5999 204C34.5999 205.6 34.5999 207.1 34.5999 208.7C34.3999 220.4 34.2 232.1 34 243.9C33.9 250.4 33.8 256.9 33.7 263.4C33.7 263.9 34.3 263.9 34.4 263.4C34.6 263 35.9 262.9 36.3 262.5C36.9 261.9 36.5999 260.5 36.5999 259.7C36.5999 256.5 36.7 253.2 36.8 250C36.9 243.4 36.9999 236.8 37.0999 230.2C37.1999 223.6 37.3 217 37.5 210.3C37.5 207 37.6 203.7 37.7 200.5C37.7 199.7 37.7 198.9 37.7 198C37.7 197.1 37.7 196.8 38.4 196.3C39.5 195.5 40.5999 194.5 41.5999 193.6C46.6999 188.7 51.3 183.2 55.8 177.8C56.1 177.4 55.6 177 55.3 177.3C54.7 177.8 53.8 178 53.2 178.5C52.4 179.2 51.7999 180.2 51.0999 181C49.5999 182.8 48.1 184.6 46.5 186.3C43.6 189.6 40.6 193.1 37.2 195.9L37.8 196.2C38 186.4 38.2 176.5 38.4 166.7C38.4 165.5 38.1999 163.9 38.5999 162.8C38.9999 161.8 39.8 160.9 40.4 160C41.7 158.1 43 156.2 44.4 154.4C47.2 150.7 50.4 146.9 54.3 144.4C54.7 144.1 54.3 143.5 53.9 143.7C52.4 144.6 51 145.4 49.7 146.5C48.1 147.8 46.7 149.3 45.3 150.8C42.5 153.9 40.1 157.3 37.7 160.8L38.4 161C38.6 152.5 38.7 144 38.9 135.5C38.9 135 38.1999 135 38.0999 135.5C37.8999 144 37.6999 152.5 37.5999 161C37.5999 161.4 38.1 161.5 38.3 161.2C40.6 157.8 43 154.4 45.7 151.3C46.9 149.9 48.3 148.5 49.7 147.3C51.1 146.1 52.5999 145.3 54.0999 144.4L53.7 143.7C49.8 146.2 46.7 149.9 43.9 153.5C42.5 155.3 41.2 157.1 39.9 159C39.2 160 38.6 161 38 162C37.4 163 37.5 163.7 37.5 164.9C37.3 175.3 37.1 185.7 36.9 196.1C36.9 196.4 37.3 196.6 37.5 196.4C40.9 193.6 43.9 190.1 46.8 186.8C48.4 185 49.9 183.3 51.4 181.5C52.1 180.7 52.7 179.7 53.5 179C54.1 178.5 54.9999 178.3 55.5999 177.8L55.0999 177.3C51.0999 182.1 46.9 186.9 42.5 191.5C41.4 192.6 40.3 193.7 39.2 194.7C38.5 195.3 37 195.9 36.8 196.9C36.6 198.4 36.8 200.1 36.8 201.6C36.8 203.3 36.8 205.1 36.8 206.8C36.6 220.1 36.2999 233.4 36.0999 246.7C36.0999 250.3 36 253.9 35.9 257.5C35.9 258.5 35.9 259.4 35.9 260.3C35.9 260.9 36.0999 261.8 35.5999 262.3C35.0999 262.8 34.1 262.6 33.8 263.3H34.5C34.7 251.4 34.8999 239.4 35.0999 227.4C35.1999 221.3 35.3 215.1 35.4 209C35.4 207.5 35.4 206 35.4 204.6C35.4 203.9 35.5 203.1 35.4 202.4C35.4 201.9 35.2 201.7 34.8 201.2C33.1 199 31.2 197 29.3 195.1C27 192.7 24.6 190.5 22.2 188.2C21 187.1 19.7999 186 18.5999 184.9C17.6999 184.1 16.6999 182.9 15.5999 182.3V183C15.6999 183 15.8999 182.8 16.0999 182.7C16.7999 182.5 17.0999 183 17.5999 183.4C18.3999 184.1 19.2 184.8 20 185.5C21.7 187.1 23.4999 188.7 25.0999 190.3C28.4999 193.5 31.9 196.8 34.8 200.4C35 200.7 35.4 200.4 35.4 200.1C35.6 190.7 35.7 181.3 35.9 171.9C35.9 171.2 36.2 170 35.9 169.4C35.5 168.6 34.3 167.8 33.7 167.2C32.1 165.5 30.4 163.9 28.8 162.2C25.5 158.8 22.2 155.5 18.8 152.1L18.5999 152.7C18.8999 152.7 19.2999 152.1 19.5999 152.1C19.5999 152.1 20.1 152.8 20.3 152.9C20.7 153.3 21.1 153.7 21.5 154.1C23 155.6 24.5 157.1 26 158.6C29.1 161.8 32.2 164.9 35.3 168.1C35.5 168.3 35.9 168.1 35.9 167.8C35.9 166.6 35.9 165.4 35.9 164.1C35.9 163.8 35.5 163.6 35.3 163.8H35.2C35.2 163.9 35.8 164.4 35.8 164.4C36.2 163.8 36 162.7 36 162C36 160.8 36 159.7 36 158.5C36 156.3 35.9999 154.2 36.0999 152C36.0999 147.5 36.3 143.1 36.4 138.6C36.4 137.6 36.4 137.2 35.8 136.3C35.4 135.5 34.9 134.8 34.4 134.1C33.2 132.4 32 130.8 30.7 129.3C28 126.1 25.2 123.1 22.2 120.2L22 120.8C22.3 120.8 22.6 120.3 22.9 120.3C23.1 120.3 24.2 121.6 24.5 121.9C25.9 123.3 27.2 124.7 28.5 126.2C31.1 129.1 33.7 132.1 35.8 135.4C36 135.7 36.5 135.6 36.5 135.2C36.7 126.4 36.8999 117.7 37.0999 108.9C37.0999 107.9 37.1 108 36.4 107.3C35.6 106.5 34.8999 105.7 34.0999 104.9C32.5999 103.4 31.2 101.8 29.7 100.3C26.7 97.1 23.5999 93.9 20.5999 90.7L20.4 91.3C20.7 91.3 21.1 90.7 21.4 90.7L22 91.5C22.3 91.8 22.6 92.1 22.9 92.4C24.4 94 25.9 95.6 27.5 97.2C30.5 100.4 33.4999 103.6 36.5999 106.8C36.7999 107 37.2 106.8 37.2 106.5C37.2 104.8 37.2 103 37.3 101.3C37.3 101 37 100.8 36.7 101L37.2 101.7C37.6 101.3 37.4 100.4 37.4 99.9C37.4 98.8 37.4 97.6 37.4 96.5C37.4 94.4 37.4999 92.3 37.5999 90.1C37.6999 85.8 37.8 81.5 38 77.1C38 76.5 38.3 75.3 38 74.7C37.6 74 36.4 73.3 35.8 72.8C34.1 71.4 32.5 70 30.9 68.6C27.5 65.7 24.1 62.8 20.7 59.9L20.5 60.5C20.8 60.5 21.1 59.9 21.4 60C21.6 60 22.1 60.6 22.3 60.8C22.7 61.1 23.1 61.4 23.4 61.8C25 63.1 26.6 64.5 28.2 65.8C31.3 68.4 34.4 71 37.5 73.7C37.7 73.9 38.0999 73.7 38.0999 73.4C38.1999 69.4 38.2999 65.4 38.5999 61.4C38.7999 57.5 39.2999 53.6 39.5999 49.7C39.5999 48.7 39.8 47.8 39.8 46.8C39.8 46 40 45.8 39.4 45.3C38 44 36.4999 42.8 35.0999 41.6C31.9999 38.9 29 36.2 25.9 33.6L25.7 34.2C26 34.2 26.2 33.8 26.4 33.8C26.8 33.7 26.6999 33.8 27.0999 34.1C27.2999 34.3 27.6 34.5 27.8 34.7C29.1 35.8 30.4 36.9 31.7 38.1C34.2 40.3 36.7 42.5 39.3 44.7C39.5 44.9 39.9 44.7 39.9 44.4C40.2 39.4 40.3 34.3 40.3 29.3C40.3 26.9 40.3 24.4 40.3 22C40.3 21.5 40.1999 20.8 40.5999 20.5C40.9999 20.2 41.3 20.2 41.5 20.1C41.9 19.9 42.2 19.8 42.4 19.4H41.7C41.7 27.6 41.5999 35.8 41.0999 44.1C40.8999 48.2 40.3999 52.3 40.0999 56.4C39.7999 60.5 39.6999 64.8 39.5999 69C39.5999 69.3 40 69.5 40.2 69.3C43 66.4 45.7999 63.5 48.5999 60.6C49.9999 59.2 51.3 57.8 52.7 56.4C53.4 55.7 54 54.8 54.8 54.4C55.4 54.1 56 53.9 56.5 53.5L56 53C52.8 56.3 49.7 59.5 46.5 62.8C44.9 64.4 43.3 66.1 41.7 67.7C41.3 68.1 40.9 68.5 40.5 68.9C40.3 69.1 39.6999 69.5 39.5999 69.7C39.2999 70.3 39.4 71.3 39.4 71.9C39.1 81 38.8999 90.1 38.5999 99.2C38.5999 99.5 39 99.7 39.2 99.5C42.2 96.3 45.0999 93.2 48.0999 90C49.5999 88.4 51.1 86.8 52.5 85.3C53.2 84.6 53.7999 83.7 54.5999 83.2C55.1999 82.8 55.8 82.7 56.3 82.3L55.8 81.8C52.5 85.4 49.1 88.9 45.8 92.5C44.1 94.3 42.4 96.1 40.7 98C40.1 98.6 38.8999 99.5 38.5999 100.3C38.2999 101.1 38.6 102.5 38.5 103.4C38.3 113.2 38 122.9 37.8 132.7C37.8 133.1 38.3 133.2 38.5 132.9C41.5 129 44.7 125.5 48.2 122C49.9 120.3 51.5 118.7 53.2 117C54 116.2 54.9 115.3 55.8 114.5C56.6 113.8 57.5 113.6 58.3 113L57.8 112.5C53.8 116.2 50 120 46.3 124C44.5 125.9 42.8 127.8 41.2 129.8C39.9 131.5 38.4 133.3 37.9 135.4C37.9 135.9 38.4999 136.1 38.5999 135.6L38.8 136.1Z" fill="#231F20"/>
</svg>
