<svg width="121" height="141" viewBox="0 0 121 141" fill="none" xmlns="http://www.w3.org/2000/svg">
<g clip-path="url(#clip0_2252_899)">
<path d="M120.451 29.2829C120.451 28.9456 120.257 28.648 119.951 28.4991C108.853 23.271 97.8473 18.3107 86.7598 12.8642C78.503 8.79677 70.1337 4.77891 61.6419 0.780892C60.947 0.453511 60.1499 0.463432 59.4857 0.780892C49.7573 5.50311 40.0494 10.2452 30.3722 15.0269C20.5008 19.9178 10.8337 25.1857 1.1156 30.394C0.890788 30.523 0.778381 30.7114 0.778381 30.9495C0.747724 57.636 0.737506 84.3126 0.502472 110.989C0.502472 111.307 0.635317 111.555 0.911226 111.723C2.2499 112.567 3.6601 113.35 5.14183 114.065C22.381 122.448 39.6816 130.761 57.0332 138.985C58.6682 139.749 60.0171 140.265 61.1105 140.513C61.3557 140.563 61.5908 140.533 61.8156 140.424C77.0417 132.467 93.1773 124.154 110.202 115.473C113.584 113.747 116.865 111.981 120.043 110.186C120.329 110.017 120.502 109.719 120.502 109.402L120.451 29.273V29.2829ZM108.352 26.4059L108.383 26.4456C108.608 26.8523 105.593 28.9357 101.638 31.0984L101.403 31.2174C97.4385 33.3801 94.0356 34.7987 93.8006 34.392L93.7802 34.3523C93.7393 34.2928 93.7597 34.2134 93.8313 34.1837L108.168 26.3662C108.23 26.3265 108.311 26.3464 108.342 26.4059H108.352ZM103.417 26.9317C101.097 28.5091 98.2765 29.769 95.8853 31.5448C92.6152 33.9753 89.1408 36.1182 85.4825 37.9833C83.6022 38.9456 81.6095 39.7789 79.8314 40.9198C74.957 44.0547 69.8476 46.7432 64.4827 49.015C63.093 49.6003 61.4171 50.6122 59.4755 52.0507C59.2711 52.1995 59.0361 52.269 58.7806 52.2591C57.7996 52.2293 56.9821 51.8523 56.3179 51.148C56.0624 50.8801 56.1237 50.7611 56.5018 50.7809C57.82 50.8702 58.8828 50.6618 59.7003 50.1658C61.3353 49.1539 62.8273 48.2511 64.7075 47.4674C67.4768 46.3166 70.1133 44.9575 72.6578 43.4099C75.4884 41.6638 77.4607 40.513 78.5745 39.9476C82.4883 37.9436 86.4533 36.1976 90.132 33.8067C94.2196 31.1579 98.9509 27.9833 103.161 26.4753C104.449 26.019 104.53 26.1678 103.417 26.9317ZM101.567 23.3404L101.649 23.5785C101.792 23.9853 101.669 24.2829 101.271 24.4614C95.8853 27.0011 90.8065 29.8384 86.0241 32.9634C83.1015 34.8781 80.5468 36.4257 78.3804 37.5864C74.2826 39.7789 70.2972 42.1797 66.0462 44.0845C62.1119 45.8503 58.2492 47.6757 54.6215 49.9872C54.1208 50.3047 53.4668 50.1956 53.1091 49.7392L52.9252 49.4912C52.6595 49.1539 52.7617 48.6678 53.1398 48.4495C59.9864 44.4813 67.1192 40.9595 73.649 37.5964C77.3789 35.6817 81.354 33.4495 85.554 30.8999C90.5408 27.8841 95.732 25.2948 101.117 23.142C101.291 23.0726 101.495 23.1618 101.557 23.3404H101.567ZM93.3305 20.4436C94.424 20.513 94.5159 20.8305 93.5962 21.4158C89.7131 23.9059 85.3701 26.4456 80.5876 29.0547C69.3775 35.1361 58.0448 41.1281 46.5486 47.0309C46.099 47.2591 45.6902 47.2194 45.3121 46.8821L45.0669 46.6539C44.7195 46.3464 44.7399 46.0785 45.1486 45.8503C48.5413 43.9059 51.9851 42.1202 55.4901 40.4535C58.6478 38.9555 61.9484 36.9118 64.6667 35.523C73.6184 30.9297 82.4679 26.1579 91.1948 21.1876C92.1247 20.6618 92.8298 20.4039 93.3203 20.4337L93.3305 20.4436ZM86.7803 17.2888C87.3627 17.3087 87.4036 17.4674 86.9233 17.7749C81.9876 20.7908 77.0826 23.9853 72.0549 26.7928C62.8579 31.9118 53.7018 37.0408 44.6888 42.4575C43.0129 43.4595 41.6742 43.7868 39.8246 43.4595C39.6305 43.4198 39.5691 43.1817 39.7327 43.0626C41.429 41.8523 43.8509 40.7412 45.1589 40.017C51.6172 36.4158 58.0653 32.7948 64.5032 29.1539C68.9484 26.6341 77.4607 21.3067 84.3073 17.9138C85.1963 17.4773 86.0138 17.269 86.7803 17.3087V17.2888ZM80.5978 14.5408C80.9044 14.6103 80.9351 14.7392 80.6898 14.9376C79.1774 16.1083 77.9307 16.9416 76.9497 17.4376C73.6592 19.1241 70.4914 20.9099 67.4462 22.7948C63.8083 25.0368 60.6506 26.8226 57.9529 28.142C49.7471 32.1698 41.9297 36.1182 34.4904 39.9972C33.305 40.6122 32.3649 40.7511 31.0773 40.7114C30.7707 40.7114 30.6379 40.3345 30.8627 40.1361C31.0466 39.9674 31.251 39.8186 31.4656 39.6896C36.9429 36.2571 42.8903 33.2114 49.2975 30.5428C53.9266 28.6182 59.0565 25.9297 64.6769 22.4972C69.0505 19.8384 73.5877 17.5964 78.0227 14.9476C78.8198 14.4714 79.6782 14.3325 80.5876 14.5408H80.5978ZM75.3351 12.4079L75.4067 12.6162C75.4067 12.6162 75.4067 12.6757 75.376 12.6857C73.833 13.2313 72.4739 13.767 71.2783 14.3126C64.8813 17.2491 58.0142 20.642 51.3617 24.0944C47.8873 25.89 44.0552 27.1698 40.7443 28.8761C35.6758 31.4753 30.4028 33.5587 25.3547 36.2174C24.3942 36.7234 23.3825 36.9515 22.3504 37.2095C21.9416 37.3087 21.5737 36.9515 21.6862 36.5547C21.7577 36.3067 21.9825 36.0686 22.381 35.8206C25.8963 33.6678 29.5342 31.7432 33.305 30.0368C40.9283 26.5944 48.2245 23.4495 56.1646 19.64C62.4696 16.6142 68.325 13.7868 75.1614 12.2987C75.2432 12.2789 75.3249 12.3285 75.3454 12.398L75.3351 12.4079ZM70.3892 8.3801C71.4418 8.3801 71.5133 8.63803 70.5834 9.14399C64.9937 12.1499 57.023 14.9079 53.0172 16.6043C42.6655 20.9892 35.0115 24.3226 30.0758 26.6142C28.2569 27.4575 24.1693 29.5607 17.8132 32.9237C17.2205 33.2412 16.3213 33.3007 15.0848 33.1122C14.8089 33.0726 14.768 32.9535 14.9519 32.7452C15.5548 32.0805 16.1169 31.4357 16.9446 31.0091C22.6876 28.0428 28.5123 25.2253 34.3984 22.5567C45.1997 17.6658 56.1441 13.1222 67.2418 8.90589C68.233 8.52891 69.398 8.36026 70.3892 8.37018V8.3801ZM9.85272 30.6519C10.8337 29.7392 12.2848 29.3027 13.4804 28.5884C16.9242 26.5051 20.4599 24.6103 24.0978 22.9138C26.07 22.0011 28.1445 20.9595 30.3415 19.8087C34.3167 17.7253 38.6495 16.0289 42.4611 14.1043C44.4129 13.1222 46.3647 12.2194 48.3369 11.396C52.2099 9.77891 56.2872 7.99319 60.5893 6.01899C61.7747 5.47335 63.0316 5.33446 64.3499 5.60232C64.6156 5.65192 64.6258 5.74121 64.3907 5.86026C60.201 8.01304 56.0011 10.017 51.7807 11.8622C47.1107 13.896 42.8698 15.8007 39.0378 17.5864C33.1108 20.3345 27.4394 23.0825 22.0132 25.8305C18.9577 27.3781 15.4833 29.1936 11.6104 31.2868C11.1914 31.515 10.7009 31.5547 10.1491 31.4158C10.0571 31.396 9.97535 31.3662 9.91404 31.3166C9.679 31.1678 9.64835 30.8503 9.85272 30.6618V30.6519ZM4.39586 100.979C4.39586 101.079 4.30389 101.168 4.19148 101.168H4.13017C4.01776 101.168 3.92579 101.079 3.93601 100.969L3.97688 76.8424C3.97688 76.7432 4.06885 76.6539 4.18126 76.6539H4.24257C4.35498 76.6539 4.44695 76.7432 4.43673 76.8523L4.39586 100.979ZM10.1389 91.0289C9.90382 97.5964 9.93447 103.678 9.96513 110.007C9.96513 110.176 9.88338 110.265 9.70966 110.285L9.50528 110.305C9.50528 110.305 9.43375 110.285 9.43375 110.245C9.16806 108.896 9.04543 107.537 9.05565 106.178C9.1885 85.0666 9.22937 63.3702 9.19872 41.0785C9.19872 40.89 9.34178 40.7412 9.52572 40.7015C9.82207 40.6519 10.0469 40.7412 10.2104 40.9694C10.4965 41.3662 10.6294 41.763 10.6396 42.14C10.8542 59.3523 10.6907 75.642 10.1491 91.0289H10.1389ZM13.8892 98.6678C13.8892 98.8563 13.7257 99.015 13.5315 99.015H13.5009C13.2965 99.015 13.1432 98.8563 13.1432 98.6678L13.368 57.3186C13.368 57.1301 13.5315 56.9714 13.7257 56.9714H13.7563C13.9607 56.9714 14.114 57.1301 14.114 57.3186L13.8892 98.6678ZM17.6701 114.154C17.6701 114.422 17.4351 114.65 17.149 114.65H17.1388C16.8629 114.65 16.6278 114.422 16.6278 114.144L17.3636 46.3166C17.3636 46.0487 17.5986 45.8206 17.8847 45.8206H17.9052C18.1811 45.8206 18.4161 46.0488 18.4161 46.3265L17.6804 114.154H17.6701ZM21.165 89.3523C21.165 89.3523 21.1139 87.9733 21.1139 86.2769C21.1139 84.5805 21.1241 83.1916 21.1548 83.1916C21.1854 83.1916 21.2059 84.5706 21.2059 86.267C21.2059 87.9634 21.1854 89.3523 21.165 89.3523ZM25.6919 103.777C25.4671 108.152 25.3036 112.517 25.2117 116.892C25.2117 117.001 25.1503 117.051 25.0379 117.051H24.7722C24.6087 117.051 24.4759 116.922 24.4759 116.763C24.3635 93.767 24.9971 71.267 25.3854 49.2134C25.3854 49.0349 25.4978 48.8761 25.6613 48.8067C25.9168 48.6976 26.1109 48.6976 26.254 48.8166C26.6014 49.1241 26.7751 49.4714 26.7854 49.8781C26.9897 67.5468 26.6321 85.513 25.7022 103.777H25.6919ZM29.5036 80.9892C29.5036 80.9892 29.4525 79.3225 29.4423 77.269C29.4423 75.2154 29.4423 73.5487 29.4729 73.5487C29.5036 73.5487 29.524 75.2154 29.5342 77.269C29.5342 79.3225 29.5342 80.9892 29.5036 80.9892ZM33.632 97.4972C33.2846 105.483 33.0291 113.321 32.8554 120.989C32.8554 121.098 32.7634 121.178 32.651 121.188L32.4466 121.207C32.2116 121.227 32.0072 121.049 31.997 120.811C31.9152 118.807 31.8948 116.793 31.9357 114.749C32.324 95.513 32.4568 83.4892 32.324 78.6579C32.0889 70.0071 32.0685 61.1678 32.2729 52.14C32.2729 51.8027 32.7225 51.6837 32.9167 51.9614L33.3357 52.5864C33.5196 52.8543 33.6218 53.1718 33.6218 53.4991C33.959 75.0071 33.959 89.6797 33.6218 97.4972H33.632ZM38.1589 104.055C38.1589 104.164 38.0568 104.243 37.9546 104.243H37.8626C37.7502 104.233 37.6684 104.144 37.6684 104.035L38.7516 82.5269C38.7516 82.4178 38.8538 82.3384 38.956 82.3384H39.048C39.1604 82.3483 39.2421 82.4376 39.2421 82.5468L38.1589 104.055ZM42.1136 111.217C42.0626 113.41 41.7355 117.934 41.1633 124.789C41.1633 124.868 41.1224 124.898 41.0815 124.888H40.8874C40.775 124.888 40.7137 124.819 40.7034 124.709C40.5297 118.549 40.6217 112.398 40.9589 106.247C41.102 103.519 41.1837 101.118 41.1837 99.0646C41.1837 95.9595 41.4596 92.5567 40.8874 89.5011C40.7443 88.7372 40.6626 87.9535 40.6319 87.1499C40.5195 83.9853 40.3253 80.9198 40.0494 77.9436C39.5896 73.0031 39.702 66.2372 40.3764 57.6261C40.3969 57.4079 40.5706 57.2293 40.7954 57.2095L41.0611 57.1797C41.2144 57.1698 41.3574 57.2888 41.3574 57.4376C41.3983 66.9118 41.0509 76.5051 41.7458 85.9099C41.9808 89.273 42.1341 92.1896 42.1647 94.6499C42.2669 101.277 42.2567 106.793 42.1443 111.207L42.1136 111.217ZM46.7121 70.8999C46.6713 73.8563 46.5588 76.6638 46.3647 79.3424C45.8435 86.6043 45.7413 93.6777 46.0683 100.553C46.334 106.188 46.4975 110.126 46.5384 112.358C46.5384 112.398 46.518 112.418 46.4669 112.428H46.426C46.426 112.428 46.3953 112.418 46.3953 112.388C46.518 109.69 46.0275 106.981 45.8129 104.332C45.026 94.4416 44.9034 85.6321 45.4143 77.8841C45.772 72.4674 45.9764 67.7253 46.0275 63.6579C46.0275 62.7948 46.3749 62.0111 46.5282 61.138C46.5691 60.8603 46.6713 60.8503 46.7939 61.0984C47.0085 61.5249 47.1004 61.9813 47.0596 62.4773C46.8552 65.2551 46.7326 68.0626 46.7019 70.8999H46.7121ZM49.8289 98.3801C49.5938 101.406 49.88 105.781 49.5734 109.501C49.1033 115.404 48.8785 121.446 48.9194 127.616C48.9194 127.686 48.8887 127.725 48.807 127.725H48.6026C48.3778 127.725 48.2041 127.557 48.2041 127.348C48.153 121.406 48.1836 115.454 48.2961 109.491C48.3574 106.198 49.0216 102.269 48.9909 99.3126C48.9398 91.8424 49.0829 84.3722 49.4099 76.9118C49.6041 72.2095 49.3588 66.1777 49.8187 60.7908C49.8187 60.6519 49.9004 60.5924 50.0435 60.6122L50.3398 60.6519C50.4727 60.6718 50.534 60.7412 50.534 60.8702C50.5749 63.6083 50.3194 66.386 50.4114 68.9853C50.769 78.7968 50.5749 88.5983 49.8187 98.39L49.8289 98.3801ZM59.0156 105.692C58.9441 113.44 58.4127 120.9 58.0959 128.529C58.0653 129.293 57.7996 130.444 57.3091 132.001C57.258 132.16 57.166 132.2 57.023 132.1C56.7675 131.952 56.6346 131.624 56.6346 131.108C56.6755 119.402 56.5733 107.914 56.9514 95.9595C57.2989 84.6995 57.4828 73.4595 57.493 62.2491C57.493 61.7928 57.7178 61.4853 58.1572 61.3464L58.3923 61.267C58.7499 61.138 58.9339 61.267 58.9441 61.6341C59.3631 76.7134 59.1383 91.2372 59.0156 105.692ZM63.3689 88.638C63.3484 89.7095 63.2462 90.5726 63.144 90.5726C63.0419 90.5726 62.9908 89.6995 63.0112 88.6281C63.0316 87.5567 63.1338 86.6936 63.236 86.6936C63.3382 86.6936 63.3893 87.5666 63.3689 88.638ZM67.3542 131.961C67.3542 132.289 67.1498 132.586 66.8331 132.705L66.6082 132.785C66.3834 132.874 66.1484 132.715 66.1382 132.487C65.9134 120.473 65.8214 108.043 65.8725 95.2055C65.8929 92.7948 65.7703 90.2551 65.5353 87.5964C65.4229 86.267 64.5951 85.5329 64.5134 84.2035C64.3499 81.3662 64.2477 78.5388 64.1864 75.6916C64.1148 71.4952 63.2973 65.7114 63.7674 60.7511C63.8696 59.6599 63.9922 59.6499 64.1251 60.7511C64.5645 64.2134 65.1265 67.6162 65.0856 71.2571C65.0243 75.7114 65.1367 80.1658 65.4126 84.6103C65.4126 84.7789 65.4944 84.8979 65.6375 84.9872C65.8418 85.1063 65.9849 85.2749 66.0462 85.4932C66.3425 86.3563 66.5163 87.1202 66.5571 87.8047C66.7922 91.9019 67.4053 95.9396 67.4257 99.9972C67.4768 110.612 67.4462 121.267 67.3338 131.971L67.3542 131.961ZM68.6929 97.1301C68.6929 97.1301 68.6929 97.1499 68.6827 97.1499C68.6724 97.1499 68.6622 97.1499 68.6622 97.1301C68.5498 96.2273 68.4681 95.3047 68.3863 94.3722C68.1615 91.7035 67.9469 89.0349 67.7221 86.3662C67.5177 83.7868 67.4053 81.1976 67.4053 78.5686C67.4053 72.388 67.4257 66.2472 67.4257 60.1658C67.4257 59.7491 67.7425 59.4019 68.1615 59.3424L68.3557 59.3126C68.5805 59.2829 68.7849 59.4515 68.7951 59.6797C69.0199 72.5071 68.9892 84.9972 68.6929 97.1301ZM73.2403 126.227C73.2301 126.307 73.1585 126.356 73.0768 126.356C72.995 126.356 72.9337 126.287 72.9337 126.217C72.7906 124.442 73.5979 122.884 73.649 121.088C73.7921 116.108 73.8125 111.138 73.7206 106.168C73.6695 103.42 72.9031 100.682 72.8826 97.9932C72.8315 91.5745 72.7702 85.6618 72.3819 79.1638C71.9936 72.8047 71.9016 66.4357 72.0958 60.0567C72.1264 59.0249 72.4126 57.3583 72.9541 55.0666C72.995 54.898 73.1074 54.8285 73.2812 54.8682C73.3629 54.8682 73.4242 54.9079 73.4957 54.9575C73.5468 54.9972 73.5775 55.0567 73.5877 55.1261C73.9454 60.8702 74.0373 65.8603 73.8943 70.1063C73.5162 81.148 73.4344 91.1876 73.6388 100.225C73.7001 103.033 74.5687 106.158 74.6607 109.174C74.8242 114.957 74.3541 120.652 73.2403 126.237V126.227ZM77.0212 103.678C77.0212 103.797 77.0212 103.975 76.9906 104.164C76.9906 104.273 76.9906 104.382 76.9804 104.491C76.9599 104.848 76.9497 105.186 76.9293 105.493C76.9293 105.543 76.9293 105.543 76.9088 105.493C76.8577 105.186 76.8577 104.888 76.9293 104.571C76.9599 104.422 76.9804 104.293 77.0008 104.164C77.0008 103.965 77.0212 103.757 77.0315 103.559C76.7045 98.5487 76.6636 93.638 76.8884 88.8166C76.9293 88.142 76.9599 88.142 76.9804 88.8166C77.2052 94.2829 77.2154 99.1936 77.0315 103.559C77.0315 103.598 77.0315 103.638 77.0315 103.668L77.0212 103.678ZM80.1687 66.7233C79.4738 78.3503 79.5044 89.4218 79.7292 100.791C79.7701 102.527 79.6373 104.184 79.3409 105.751C78.9935 107.606 78.7891 109.342 78.7074 110.979C78.4825 115.662 78.5643 120.434 78.9424 125.325C78.9424 125.424 78.8709 125.503 78.7789 125.513L78.5439 125.533C78.4008 125.533 78.319 125.483 78.319 125.334C77.992 120.444 77.992 115.751 78.2986 111.247C78.6869 105.632 78.8709 102.239 78.8402 101.088C78.6052 92.8146 78.084 85.4833 78.6971 76.2372C78.9424 72.5765 79.0241 65.1162 78.9424 53.8563C78.9424 53.39 79.1263 52.9932 79.484 52.6857L79.6884 52.5071C79.9643 52.269 80.4037 52.4575 80.4037 52.8146C80.5263 57.5567 80.4548 62.1896 80.1789 66.7233H80.1687ZM82.4986 67.0408C82.4986 67.0408 82.4066 65.7809 82.4066 64.2333C82.4066 62.6856 82.4372 61.4257 82.4883 61.4257C82.5292 61.4257 82.5803 62.6856 82.5803 64.2333C82.5803 65.7809 82.5496 67.0408 82.4986 67.0408ZM83.2037 94.7987H83.0606C82.9482 94.7987 82.8562 94.7095 82.8562 94.6003L82.8051 67.6856C82.8051 67.5765 82.8971 67.4872 83.0095 67.4872H83.1526C83.265 67.4872 83.3569 67.5765 83.3569 67.6856L83.408 94.6003C83.408 94.7095 83.3161 94.7987 83.2037 94.7987ZM86.4124 81.0686C86.2284 85.5229 85.7788 90.0765 85.8503 94.7095C85.9219 99.5408 85.7584 104.362 85.3496 109.184C85.0226 113.073 85.0431 116.555 85.0635 120.225C85.0635 120.602 84.9511 120.94 84.7263 121.247L84.3073 121.813C84.1438 122.021 83.8066 121.912 83.8066 121.654C83.7657 114.967 84.1438 108.489 84.2766 101.882C84.4197 95.136 85.0328 88.1718 85.0533 81.7134C85.0839 72.1301 85.0737 63.2114 85.0328 54.9674C85.0328 53.1618 85.2576 51.6142 85.7175 50.3047C86.2182 48.8563 86.5043 48.896 86.5657 50.4237C86.9949 61.5448 86.7598 72.4277 86.4226 81.0686H86.4124ZM90.4488 66.019C90.3773 72.8146 90.1218 79.6103 89.6824 86.4158C89.6824 86.4853 89.6415 86.515 89.57 86.515C89.478 86.515 89.4269 86.4753 89.4372 86.3761C89.4576 82.1995 88.7423 78.1222 89.0999 74.0944C89.478 69.9376 89.662 65.5924 89.6926 61.0488C89.6926 58.8364 90.2853 56.7829 90.3262 54.6599C90.3773 52.3285 90.4999 50.0071 90.6532 47.6956C90.6532 47.6162 90.7043 47.5567 90.7963 47.5368L91.1233 47.4277C91.2868 47.3781 91.3481 47.4277 91.3481 47.5864C91.1437 52.0904 91.3992 56.5547 90.8167 61.0289C90.5919 62.765 90.4693 64.4218 90.4488 66.019ZM91.6138 117.388H91.5831C91.3276 117.388 91.1233 117.19 91.1233 116.942L91.0109 86.1579C91.0109 85.9099 91.2152 85.7114 91.4707 85.7114H91.5014C91.7568 85.7114 91.9612 85.9099 91.9612 86.1579L92.0736 116.942C92.0736 117.19 91.8692 117.388 91.6138 117.388ZM95.6298 46.4753C95.3641 50.6519 95.1699 54.4019 95.0677 57.7353C95.0167 59.4813 94.8123 61.8821 94.4751 64.9079C94.1174 68.1023 94.1889 71.5249 93.9437 74.5309C93.4327 80.8603 93.3203 87.2194 93.5962 93.638C93.5962 93.896 93.5962 93.896 93.5554 93.638C93.3408 92.4376 93.1364 91.1876 92.9627 89.8483C92.4824 86.5249 92.7174 82.9237 92.6663 79.6003C92.6459 78.2511 92.8605 75.771 93.3101 72.1797C93.7086 68.9456 93.4123 65.4734 93.7904 62.2293C94.1378 59.2432 94.3013 56.2571 94.3013 53.2611C94.3013 49.7392 94.8123 46.6142 95.221 43.2412C95.221 43.142 95.2619 43.0825 95.3334 43.0428C95.3539 43.0428 95.3743 43.023 95.405 43.023C95.4458 43.023 95.4663 43.023 95.4765 43.0726C95.6093 44.8384 95.6604 45.9694 95.6298 46.4555V46.4753ZM82.3657 46.5944C76.2957 49.9476 70.3381 53.1122 64.5032 56.0884C63.0419 56.8424 61.8156 57.6857 60.8141 58.638C60.6302 58.8067 60.4258 58.8464 60.1908 58.7372C54.039 55.8107 47.8566 52.9535 41.6334 50.1757C41.2553 50.017 39.5998 49.1936 36.6261 47.7253C34.8889 46.8622 33.213 46.0884 31.578 45.394C27.7664 43.7769 18.8862 39.4714 4.92724 32.4674C4.75352 32.3781 4.65133 32.1896 4.6922 32.0011L4.7433 31.7035C4.77395 31.5349 4.87614 31.4753 5.03964 31.5249C8.0542 32.4178 11.2323 33.7174 14.5943 35.4138C17.2716 36.763 21.4102 38.7075 27.0102 41.2571C34.3575 44.6003 42.083 48.2114 50.1661 52.0805C53.0274 53.4595 55.858 54.7987 58.658 56.1281C59.3835 56.4753 60.2419 56.4357 60.9266 56.0289C69.5921 50.9991 78.4314 46.1182 87.4649 41.386C91.1846 39.4416 95.1086 37.8047 98.7465 35.8404C103.549 33.2611 108.465 30.8007 113.492 28.4495C113.615 28.39 113.758 28.4495 113.809 28.5686L113.901 28.7868C114.024 29.0745 113.942 29.3027 113.676 29.4714C107.504 33.3206 101.567 36.6936 95.875 39.6003C88.4664 43.3702 83.9496 45.7114 82.3453 46.5944H82.3657ZM99.2779 112.448H99.1962C99.0735 112.448 98.9714 112.348 98.9714 112.229L98.8487 95.5527C98.8487 95.4337 98.9509 95.3345 99.0735 95.3345H99.1451C99.2677 95.3345 99.3699 95.4337 99.3699 95.5527L99.4925 112.229C99.4925 112.348 99.3903 112.448 99.2677 112.448H99.2779ZM99.0531 69.4118C99.0531 69.6301 98.9714 72.4376 98.8283 77.8543C98.7261 81.6142 98.2765 85.6916 98.2049 89.0944C98.113 93.271 98.348 97.5765 97.7553 101.713C97.4998 103.529 97.2341 105.364 97.275 107.19C97.3159 109.144 97.2239 111.118 97.0093 113.122C97.0093 113.192 96.9685 113.221 96.8969 113.221C96.7845 113.221 96.7232 113.172 96.7232 113.053C96.529 110.483 96.529 107.924 96.7028 105.354C96.9991 101.118 97.1524 98.5686 97.1626 97.6956C97.2852 89.4317 96.8969 80.1559 97.6838 70.9099C97.8268 69.3126 97.9188 67.5269 97.9699 65.5626C98.1436 58.8265 98.5013 52.011 99.0327 45.1063C99.0531 44.7491 99.237 44.4813 99.564 44.3027L99.7582 44.2035C99.9319 44.1043 100.157 44.2333 100.147 44.4317C99.8195 52.8642 99.4619 61.1976 99.0633 69.4118H99.0531ZM103.723 82.14C103.314 87.011 103.723 91.6241 103.222 96.3364C102.711 101.118 102.456 105.959 102.436 110.86C102.436 110.93 102.395 110.969 102.323 110.969H102.119C102.119 110.969 102.068 110.969 102.068 110.93C102.088 110.077 102.078 109.144 102.068 108.142C101.802 96.4059 102.006 86.9614 102.323 76.3662C102.436 72.5071 102.456 68.3404 102.374 63.8563C102.241 56.396 102.487 48.9158 103.11 41.4257C103.11 41.3265 103.182 41.2769 103.284 41.2868H103.478C103.58 41.3067 103.641 41.3563 103.631 41.4555C103.498 45.3642 103.417 49.4416 103.376 53.7273C103.355 55.3841 103.549 59.4813 103.938 66.019C104.265 71.3265 104.203 76.7035 103.744 82.1599L103.723 82.14ZM105.338 61.7035C105.338 61.8126 105.225 61.8821 105.123 61.8722H105.103C104.99 61.8622 104.919 61.773 104.929 61.6539L107.054 41.3265C107.054 41.2174 107.167 41.148 107.269 41.1579H107.279C107.392 41.1678 107.463 41.2571 107.453 41.3761L105.327 61.7035H105.338ZM110.948 83.4892C110.856 87.646 110.386 91.7928 110.355 95.8999C110.335 100.89 110.038 105.89 109.497 110.86C109.466 111.138 109.17 111.317 108.904 111.198C108.669 111.098 108.546 110.92 108.557 110.662C108.7 93.3007 108.976 75.9595 109.395 58.6281C109.548 52.0507 109.517 45.2551 110.1 38.5587C110.141 38.0924 110.294 37.8741 110.56 37.9237C110.815 37.9634 110.989 38.1817 110.999 38.4297C111.326 53.6777 111.316 68.6976 110.958 83.4793L110.948 83.4892ZM114.249 108.182V108.271C114.249 108.35 114.177 108.42 114.085 108.42H113.462C113.38 108.42 113.308 108.35 113.308 108.271V108.182C113.38 94.7491 113.595 83.8662 113.789 83.8662H114.044C114.228 83.8662 114.32 94.7491 114.249 108.182Z" fill="black"/>
</g>
<defs>
<clipPath id="clip0_2252_899">
<rect width="120" height="140" fill="white" transform="translate(0.502472 0.542969)"/>
</clipPath>
</defs>
</svg>
