<svg width="150" height="141" viewBox="0 0 150 141" fill="none" xmlns="http://www.w3.org/2000/svg">
<g clip-path="url(#clip0_2478_4226)">
<path d="M29.9664 42.0165C37.0822 34.4616 45.3017 28.6413 55.1188 25.1304C86.2413 13.9914 123.029 32.9674 125.878 68.819C127.58 90.261 120.717 108.213 103.49 121.504C93.3677 129.31 81.3012 131.682 68.8459 129.561C62.5394 128.485 56.5798 125.339 50.4835 123.082C49.1907 122.602 47.9714 121.891 46.7206 121.285C46.4158 121.64 46.111 122.006 45.8167 122.361C48.0555 124.451 49.958 127.168 52.5857 128.516C75.0578 140.104 97.2567 140.439 118.835 126.123C120.349 125.12 121.631 123.772 122.977 122.528C123.439 122.1 124.185 121.191 124.07 121.034C121.253 117.241 125.321 115.841 126.729 113.667C131.585 106.196 134.129 97.8576 135.81 89.2997C139.216 72.0165 136.946 55.1722 129.567 39.2892C113.275 4.22127 77.1705 -1.67214 51.9235 8.74583C29.8297 17.8681 16.1131 34.587 12.3187 58.5264C11.625 62.8733 11.7511 67.3456 11.3307 71.7552C11.2256 72.842 10.4898 73.8764 10.0378 74.9318C9.44923 73.96 8.40866 73.0092 8.34559 72.006C6.95816 49.3832 15.1566 30.8148 32.2052 15.8409C55.6233 -4.72334 91.0238 -2.66483 110.269 10.8566C125.741 21.7239 134.118 37.0844 138.417 55.0781C143.473 76.2275 140.425 96.1648 130.103 115.172C129.746 115.82 129.577 116.572 129.641 117.461C135.527 112.027 139.815 105.517 142.359 97.9621C149.874 75.611 145.47 54.5557 135.043 34.2108C134.003 32.1732 132.846 30.1983 131.743 28.192L132.773 27.1262C133.75 27.7427 135.106 28.1293 135.642 29.0071C148.213 49.7176 153.921 71.9224 147.057 95.6215C139.216 122.654 112.55 141.055 85.5056 140.543C71.3475 140.282 58.6924 135.977 46.1635 129.707C27.8537 120.554 19.0351 105.371 16.1762 86.2275C13.6851 69.5713 18.7198 54.169 26.4978 39.6549C43.9878 7.01124 77.4963 4.61835 103.847 18.5995C127.286 31.0447 136.147 54.6288 133.887 79.3728C133.267 86.1649 131.764 93.0301 129.556 99.4773C125.541 111.17 117.112 119.55 106.706 125.987C105.812 126.541 104.394 126.259 103.216 126.363C103.794 125.36 104.131 123.981 105.003 123.406C117.826 114.942 126.592 103.636 129.231 88.3488C133.078 66.0813 130.513 45.4334 112.781 29.0071C94.5659 12.1314 63.7376 9.38324 45.123 23.1032C38.4276 28.0353 33.4349 34.4198 29.9769 42.006L29.9664 42.0165ZM44.0193 115.444L43.8827 115.308C51.3874 120.637 59.3231 125.266 68.6672 126.134C73.9121 126.625 79.5144 126.729 84.5596 125.454C104.951 120.292 116.733 106.938 121.242 86.541C127.549 58.0039 111.015 29.4146 80.124 26.1857C59.5438 24.0332 32.5415 34.9318 26.4137 61.9538C22.819 77.8054 25.4047 92.424 34.0235 106.06C36.5146 110 38.9636 114.138 44.0193 115.444ZM20.9481 67.1366C15.3143 89.216 25.5203 111.578 39.7204 121.41C26.4242 105.705 19.4135 87.8785 20.9481 67.1366Z" fill="black"/>
<path d="M5.38157 41.4209C3.83648 50.7103 2.43854 59.0594 0.893452 68.3175C-1.55557 62.8316 1.33491 45.4334 5.38157 41.4209Z" fill="black"/>
<path d="M115.693 74.6387C119.403 86.7808 109.67 105.725 96.605 113.009C79.094 122.758 56.8215 119.341 44.1245 104.952C36.0416 95.7985 30.3237 79.7066 34.0866 74.67C34.4965 76.4255 34.8434 77.669 35.0957 78.9438C38.4486 95.7672 47.099 108.421 64.2106 113.573C86.4726 120.26 110.038 104.66 113.223 81.5457C113.433 79.9992 113.475 78.4109 113.864 76.9166C114.053 76.1852 114.883 75.6209 115.693 74.6491V74.6387Z" fill="black"/>
<path d="M44.0193 115.444C32.4049 103.971 25.1944 86.4365 27.9588 74.4512C28.7892 76.2798 29.5039 77.1993 29.609 78.1816C30.9334 90.8462 35.4635 102.037 44.5449 111.233C45.5119 112.215 46.2476 113.427 47.4248 114.974C45.8272 115.12 44.8497 115.204 43.8827 115.287L44.0193 115.433V115.444Z" fill="black"/>
<path d="M95.3857 39.9791C85.2428 38.5267 76.4242 37.2623 66.3654 35.8203C68.436 35.2665 69.7393 34.5977 71.0427 34.6186C79.1991 34.7649 87.4396 34.7754 95.3857 39.9791Z" fill="black"/>
</g>
<defs>
<clipPath id="clip0_2478_4226">
<rect width="150" height="140" fill="white" transform="translate(0 0.542969)"/>
</clipPath>
</defs>
</svg>
