<svg width="160" height="100" viewBox="0 0 160 100" fill="none" xmlns="http://www.w3.org/2000/svg">
<g clip-path="url(#clip0_2013_47)">
<path d="M159.363 61.553C157.923 55.6808 154.164 51.3199 148.098 48.4612C147.812 48.3246 147.682 48.097 147.719 47.7875C148.079 44.9015 148.754 41.8425 148.43 39.2114C147.276 29.6247 140.028 21.3854 130.046 20.5934C125.937 20.2747 121.404 21.4401 117.516 22.9969C117.212 23.1152 116.87 22.924 116.814 22.6054C115.116 12.4816 104.534 4.42441 95.2355 1.87525C86.639 -0.482729 77.8948 -0.619291 69.0213 1.46556C57.3131 4.21501 46.3897 12.3723 44.1829 24.672C44.1275 24.9543 43.9521 25.0999 43.6566 25.0908C42.3547 25.0817 40.9881 25.0271 39.5661 24.9452C32.7702 24.5446 25.8173 27.0209 20.9419 31.7278C15.688 36.817 13.6104 43.372 14.7092 51.3927C14.7462 51.6932 14.6261 51.9117 14.3491 52.0391C7.3962 55.3803 1.62519 58.8854 0.304787 66.8698C-1.14489 75.6007 2.51162 84.8596 11.4405 87.9641C17.7471 90.1582 24.1183 90.5042 30.5541 89.002C31.3574 88.8199 32.1977 89.0748 32.7609 89.6757C36.9622 94.1822 41.7545 97.8239 48.1349 98.7161C51.9299 99.2441 54.543 99.5264 55.965 99.5719C72.4655 100.127 87.2854 100.145 100.434 99.6265C107.664 99.3443 115.706 96.3854 120.406 90.4768C121.265 89.3935 122.632 88.9382 123.998 88.9382C129.049 88.9382 133.684 88.7471 137.923 88.3556C146.833 87.5453 153.25 83.7307 157.175 76.9208C159.954 72.0865 160.683 66.9699 159.363 61.553ZM14.3953 59.0493C13.989 61.0067 13.3426 62.8093 13.0287 64.8214C12.6871 67.0428 12.3731 69.2278 12.1053 71.3763C11.856 73.3519 11.5052 73.3701 11.0527 71.431C10.2679 68.0897 10.6003 61.3891 13.7951 58.7034C14.3399 58.2573 14.5338 58.3665 14.3953 59.0493ZM19.4461 59.5592C19.1506 61.1524 18.7535 62.7911 18.2549 64.4754C17.5993 66.6695 17.23 69.3188 17.1377 72.4051C17.1377 72.487 17.1007 72.5599 17.0269 72.6054L16.8145 72.7329C16.5375 72.8967 16.1866 72.742 16.122 72.4324C15.4664 69.2187 15.531 66.0959 16.3159 63.0551C16.796 61.1888 17.0546 59.4317 17.0915 57.7656C17.1192 56.8734 17.4793 56.7096 18.1718 57.274L18.7812 57.7656C19.363 58.2299 19.5846 58.8308 19.4461 59.5592ZM24.4784 58.7125L22.7702 65.6134C22.6594 66.0504 22.2069 66.3235 21.7637 66.2143L21.6898 66.1961C21.2466 66.0959 20.9788 65.6498 21.0804 65.2037L22.7886 58.3028C22.8994 57.8658 23.3519 57.5927 23.7951 57.7019L23.869 57.7201C24.3122 57.8203 24.58 58.2664 24.4784 58.7125ZM28.6058 63.7289C28.2549 65.2128 27.6363 66.3417 27.2392 66.2416C26.833 66.1506 26.796 64.8669 27.1469 63.392C27.4978 61.9171 28.1164 60.7882 28.5135 60.8793C28.9197 60.9703 28.9567 62.254 28.6058 63.7289ZM45.2632 33.5941C37.4701 31.8461 27.4516 34.3224 24.4414 42.0974C23.832 43.6724 23.2041 45.211 22.5486 46.7041C21.3759 49.3898 20.5264 49.2897 20.0001 46.4128C19.4184 43.1626 20.2956 39.967 22.6317 36.8352C27.9779 29.6702 35.0786 28.7325 43.5181 30.3621C44.386 30.526 45.134 31.0814 45.5402 31.8552L45.9742 32.6928C46.3897 33.494 46.1589 33.7944 45.2632 33.5941ZM130.73 72.2868C129.778 73.7525 128.726 74.7631 128.375 74.5355C128.024 74.317 128.523 72.9514 129.483 71.4947C130.434 70.0289 131.487 69.0184 131.838 69.246C132.188 69.4645 131.69 70.8301 130.73 72.2868ZM136.981 68.9911L134.423 75.2365C134.266 75.628 133.814 75.8192 133.417 75.6553L133.352 75.628C132.955 75.4732 132.761 75.0271 132.927 74.6356L135.485 68.3902C135.642 67.9987 136.094 67.8075 136.491 67.9714L136.556 67.9987C136.953 68.1535 137.147 68.5996 136.981 68.9911ZM140.628 74.3716C140.037 75.7919 139.261 76.8297 138.911 76.6841C138.56 76.5384 138.754 75.2638 139.354 73.8527C139.945 72.4324 140.72 71.3945 141.071 71.5402C141.422 71.6859 141.228 72.9605 140.628 74.3716ZM142.853 40.7591C142.65 42.3068 142.863 44.9379 141.33 45.8847C140.803 46.2034 140.12 45.9849 139.889 45.4295C138.901 43.0715 139.188 40.3676 138.375 38.3647C137.396 35.9339 135.891 34.0402 133.851 32.6837C131.431 31.0632 129.28 30.2802 127.396 30.3439C122.161 30.5169 117.95 32.0828 113.315 33.8854C112.179 34.3224 111.468 33.9583 111.182 32.7929C109.538 26.0104 108.181 19.7376 102.281 15.1764C91.7729 7.04641 76.9715 6.91895 65.4479 12.5271C58.9382 15.6862 54.2568 20.6207 51.3851 27.3396C51.2466 27.6491 50.8126 27.6855 50.628 27.3942C49.2614 25.2092 49.1875 22.9605 50.3971 20.6571C53.3242 15.1036 57.4793 11.0704 62.8625 8.55769C73.2318 3.70518 83.7028 3.02237 94.2752 6.49105C100.619 8.5668 107.599 13.656 110.462 19.6466C111.708 22.2594 112.549 25.0089 112.983 27.8949C113.158 29.0693 113.804 29.4517 114.931 29.0238C118.513 27.6855 122.041 26.1378 125.716 25.5005C127.969 25.0999 130.037 25.1728 131.911 25.719C134.183 26.3745 136.667 27.9951 139.372 30.5897C141.293 32.4379 142.475 34.632 142.909 37.1811C143.066 38.0642 143.047 39.2569 142.853 40.7591Z" fill="black"/>
</g>
<defs>
<clipPath id="clip0_2013_47">
<rect width="160" height="100" fill="white"/>
</clipPath>
</defs>
</svg>
