<svg width="150" height="120" viewBox="0 0 150 120" fill="none" xmlns="http://www.w3.org/2000/svg">
<g clip-path="url(#clip0_2077_415)">
<path d="M149.168 92.3403C148.254 89.9208 147.868 88.0652 148.01 86.7632C148.782 79.9353 149.117 73.7021 149.005 68.0532C148.477 41.5415 133.352 18.4437 110.097 6.172C96.2306 -1.14795 81.2377 -2.17316 66.8945 4.23436C62.7834 6.05922 58.317 7.78156 55.7995 9.39113C42.8368 17.6338 33.3559 28.8905 27.3567 43.1613C23.0019 53.5364 20.7281 64.5676 20.5454 76.2446C20.5353 77.1365 20.0886 77.5876 19.2055 77.6184C11.8867 77.8439 5.67434 80.8478 2.29408 87.7269C-0.2944 92.9964 -0.690285 98.4813 1.10643 104.171C6.44581 121.066 23.4993 120.072 37.5583 119.939C50.7241 119.816 63.9 119.703 77.0657 119.611C89.4092 119.529 103.712 119.888 116.989 119.888C122.258 119.888 126.135 119.57 128.622 118.944C137.281 116.781 145.351 111.03 148.914 102.613C150.244 99.4757 150.386 95.5492 149.168 92.3403ZM142.894 65.2237L142.874 66.905C142.864 67.0793 142.722 67.2228 142.549 67.2228H142.356C141.027 67.1921 139.951 66.7512 139.961 66.2181V65.8286C139.971 65.2954 141.057 64.8751 142.397 64.8956H142.59C142.762 64.9059 142.905 65.0494 142.894 65.2237ZM141.28 74.43C141.087 74.1532 140.966 73.8661 140.895 73.5483C140.813 73.1895 140.996 72.8204 141.331 72.6769C141.453 72.6256 141.575 72.5846 141.697 72.5539C142.052 72.4719 142.194 72.6154 142.113 72.9742L141.148 77.2903C141.006 77.9362 140.813 77.9464 140.58 77.3416C140.245 76.4907 140.418 75.855 141.077 75.4347C141.483 75.1784 141.554 74.8401 141.28 74.43ZM141.402 70.729C140.539 70.8623 140.103 70.401 140.093 69.345C140.083 69.0477 140.215 68.9554 140.489 69.0682C140.956 69.2527 141.321 69.4168 141.585 69.55C142.732 70.1447 142.671 70.5342 141.402 70.729ZM27.915 62.1583C32.3915 34.8982 50.653 12.0874 78.1112 6.31552C86.3741 4.57268 94.1598 5.64914 102.067 8.48895C104.047 9.19634 106.148 10.2626 108.371 11.7081C111.041 13.4202 114.218 15.204 116.472 17.398C117.152 18.0541 117.862 18.618 118.603 19.0896C120.654 20.3813 122.379 22.0319 123.77 24.0515C123.963 24.3283 124.207 24.5334 124.511 24.6769C125.069 24.9435 125.425 25.3535 125.577 25.9174C125.648 26.1737 125.81 26.3685 126.044 26.4915C126.693 26.8298 127.282 27.2912 127.82 27.8858C132.886 33.4834 136.58 39.8704 138.905 47.0468C139.991 50.389 141.067 53.8029 142.113 57.2784C142.245 57.7397 142.275 58.1703 142.184 58.5599C142.62 59.8209 142.793 61.1844 142.701 62.6402C142.671 63.081 142.468 63.204 142.082 63.0092C141.351 62.6504 140.57 62.5069 139.727 62.5684C138.601 62.6504 137.961 63.9217 138.57 64.8854C139.159 65.8183 139.128 66.6385 138.489 67.3253C137.535 68.3505 137.585 69.386 138.631 70.442C139.007 70.8213 138.936 70.9956 138.408 70.9751C137.829 70.9443 137.281 71.0058 136.784 71.1494C136.357 71.2724 136.266 71.5184 136.52 71.8875C138.255 74.471 139.473 77.3621 140.194 80.5607C140.235 80.7658 140.113 80.9605 139.92 80.9913L139.626 81.0528C139.555 81.0631 139.504 81.0426 139.473 80.981C138.641 79.31 137.991 77.6491 137.525 75.9986C135.494 68.8016 127.272 68.1045 125.211 61.3074C122.207 51.3937 116.766 43.1203 108.889 36.4975C101.357 30.1515 91.1552 26.4505 81.6235 27.4655C71.5233 28.5317 63.098 32.4685 56.3578 39.2758C50.2977 45.4065 46.146 52.3266 43.9128 60.0362C42.8977 63.5321 41.6593 66.5462 40.1874 69.0682C40.0352 69.3347 39.8119 69.5295 39.5378 69.6628C38.3501 70.2062 37.1219 70.5137 35.853 70.5752C34.645 70.6367 34.0055 70.2984 33.9548 69.55C33.904 68.8939 34.2085 67.9815 34.8684 66.8025C35.1932 66.2386 35.0409 66.0233 34.4014 66.1771L31.5287 66.864C30.9501 66.9973 30.5644 67.3561 30.3817 67.92C30.1888 68.5453 29.8538 69.5705 29.3767 71.0161C29.2041 71.5492 28.8286 71.826 28.2703 71.8465C27.915 71.8567 27.7221 71.6825 27.712 71.3236C27.5597 66.9358 27.6308 63.8807 27.915 62.1583ZM119.984 62.3839C120.014 62.5274 119.933 62.6709 119.781 62.7017H119.76C119.618 62.7427 119.476 62.6504 119.446 62.5069L117.131 52.2344C117.101 52.0908 117.182 51.9473 117.334 51.9165H117.355C117.497 51.8755 117.639 51.9678 117.669 52.1113L119.984 62.3839ZM50.8357 68.6786L52.4294 65.6953C52.5817 65.4082 52.6121 65.1109 52.5005 64.8033C52.1757 63.9217 52.1757 62.958 52.5106 61.902C55.3021 53.0545 60.3268 46.2164 67.5644 41.398C78.3447 34.2318 91.683 34.6419 101.58 42.9665C106.909 47.4467 110.98 52.7265 113.782 58.7854C114.929 61.2459 116.309 65.2032 113.345 66.3719C112.563 66.6795 111.934 66.4744 111.477 65.7465C107.559 59.5338 103.966 54.5923 96.86 51.7935C84.892 47.0673 70.6605 50.0609 62.286 59.9644C61.21 61.2254 60.1238 62.6197 59.0377 64.1267C58.1444 65.3672 57.4541 66.7512 56.9669 68.2583C56.4898 69.7448 55.9924 71.2416 55.4544 72.7384C55.3224 73.1075 55.1194 73.1485 54.8555 72.8614L53.2517 71.1083C52.1249 71.3646 51.3027 70.8623 50.785 69.6013C50.653 69.2835 50.6733 68.9759 50.8357 68.6786ZM50.3079 57.3501C49.9729 58.0473 49.8917 58.0165 50.0643 57.2579C50.5414 55.1049 51.3839 52.7982 52.5715 50.3275C54.9976 45.304 58.2967 41.3262 62.489 38.3941C62.5397 38.3531 62.5905 38.3634 62.6412 38.4146L62.8037 38.6197C62.8037 38.6197 62.824 38.6607 62.8037 38.6709C58.0327 42.5975 53.4851 48.1233 51.5971 53.9875C51.1809 55.2895 50.7545 56.4069 50.3079 57.3501ZM82.7401 32.5095C83.3796 31.6175 84.1104 31.5253 84.9225 32.2327C85.1763 32.4582 85.4808 32.5915 85.8158 32.6222C87.6835 32.8375 89.6224 32.3147 91.1958 32.5197C93.0737 32.7555 94.911 33.3911 96.7178 34.4266C96.9107 34.5394 96.9107 34.6316 96.6975 34.7034C96.5859 34.7444 96.4539 34.7239 96.3017 34.6521C96.1596 34.5804 96.0377 34.5291 95.9464 34.5189C91.8251 33.7397 87.5313 33.2989 83.075 33.1963C82.7299 33.1963 82.537 32.7965 82.7401 32.5095ZM142.316 101.813C136.134 113.295 124.805 114.854 112.909 114.249C107.041 113.941 101.854 114.075 95.6723 113.839C82.1208 113.316 70.7924 113.121 61.6668 113.234C54.3987 113.316 45.1309 114.29 37.1422 114.146C30.2903 114.013 20.4033 114.72 14.3432 111.009C6.12098 105.975 3.40053 94.3189 10.3133 86.5582C12.7597 83.8106 15.6324 83.8926 18.972 83.9336C21.9259 83.9746 23.4587 87.245 23.9155 89.6953C23.9764 90.0336 24.1794 90.2386 24.5144 90.2899C26.504 90.6385 27.4988 89.5825 27.9962 87.6756C30.0061 79.9251 34.036 74.6658 42.6237 74.8401C48.6736 74.9631 52.4497 77.3518 56.033 82.037C58.5403 85.3074 59.9716 84.8871 60.337 80.776C60.5096 78.8179 60.7532 77.0853 61.0679 75.568C63.0879 65.9413 68.3258 59.6363 76.8018 56.6632C86.6583 53.1981 99.7631 56.5095 104.554 66.5462C105.823 69.2015 106.371 72.923 107.214 76.1318C107.569 77.4851 109.335 77.8029 110.137 76.6547C110.584 76.0191 110.98 75.3014 111.335 74.512C112.452 72.0208 114.218 70.7803 116.949 70.4625C129.099 69.0374 131.241 77.8029 133.444 87.0092C133.911 88.9571 135.078 89.6543 136.936 89.0904C137.281 88.9879 137.514 89.1007 137.636 89.439C137.809 89.9003 137.525 90.3924 136.804 90.9153C136.652 91.028 136.652 91.2638 136.804 91.3766L137.656 92.0327C137.829 92.166 138.002 92.1558 138.174 92.002L138.722 91.4996C139.21 91.0485 139.981 91.4791 139.869 92.1353C139.717 93.0784 139.26 93.7653 138.519 94.2062C138.235 94.3804 138.032 94.6573 137.961 94.9751C137.788 95.703 137.941 96.3283 138.418 96.8307C138.722 97.1485 138.661 97.333 138.225 97.3843C137.809 97.4253 137.453 97.5688 137.149 97.8251C136.733 98.1634 136.794 98.3787 137.311 98.4915L138.59 98.7581C139.067 98.8606 139.484 98.43 139.372 97.9584C139.342 97.8354 139.291 97.7226 139.23 97.6098C139.088 97.3945 139.088 97.169 139.22 96.9537C139.808 95.9388 140.123 95.0161 140.164 94.1857C140.215 92.8427 140.59 92.7401 141.291 93.8884C141.473 94.1959 141.676 94.7803 141.9 95.6414C141.971 95.9285 142.153 96.0413 142.438 95.99L142.701 95.949C142.823 95.9285 142.884 95.8567 142.874 95.7337C142.732 93.7346 141.879 91.8892 140.326 90.1976C140.164 90.0233 139.971 89.9721 139.748 90.0233L138.875 90.2284C138.712 90.2591 138.621 90.1976 138.611 90.0336L138.58 89.6645C138.57 89.5723 138.621 89.5107 138.712 89.4902C142.783 88.6086 143.534 93.2835 143.646 96.2771C143.727 98.1635 143.28 100.009 142.316 101.813Z" fill="black"/>
<path d="M55.6675 65.8282C55.1092 65.6744 54.4799 65.6949 53.7693 65.8692C53.3937 65.9615 53.2922 66.187 53.4648 66.5356C53.6577 66.9149 53.7693 67.325 53.7998 67.7453C53.8201 68.0837 53.6678 68.2887 53.3328 68.3605C52.3685 68.5552 51.9828 69.1909 52.1959 70.2776C52.2568 70.5852 52.4802 70.8312 52.7745 70.944L53.2516 71.108L55.9213 66.4638C56.1142 66.1358 56.0228 65.9205 55.6675 65.8282Z" fill="black"/>
<path d="M140.529 57.7294C140.671 57.186 140.682 56.6324 140.56 56.0583C140.489 55.6995 140.265 55.5355 139.91 55.5765C139.656 55.6072 139.433 55.6995 139.23 55.8533C138.956 56.0583 138.783 56.3966 138.702 56.8682C138.631 57.3091 138.58 57.7499 138.55 58.201C138.53 58.5291 138.387 58.7751 138.113 58.9391C137.819 59.1237 137.646 59.3902 137.596 59.7285C137.545 60.0874 137.687 60.3437 138.022 60.4769C139.128 60.9383 140.276 61.0203 141.463 60.723C141.818 60.641 142.011 60.4154 142.042 60.0464L142.184 58.5598L140.864 58.283C140.56 58.2215 140.448 58.037 140.529 57.7294Z" fill="black"/>
<path d="M142.184 58.5598L142.042 60.0464C142.011 60.4154 141.818 60.641 141.463 60.723C140.275 61.0203 139.128 60.9383 138.022 60.4769C137.687 60.3437 137.545 60.0874 137.595 59.7285C137.646 59.3902 137.819 59.1237 138.113 58.9391C138.387 58.7751 138.529 58.5291 138.55 58.201C138.58 57.7499 138.631 57.3091 138.702 56.8682C138.783 56.3966 138.956 56.0583 139.23 55.8533C139.433 55.6995 139.656 55.6072 139.91 55.5765C140.265 55.5355 140.488 55.6995 140.56 56.0583C140.681 56.6324 140.671 57.186 140.529 57.7294C140.448 58.037 140.56 58.2215 140.864 58.283L142.184 58.5598Z" fill="black"/>
<path d="M53.2516 71.108L52.7745 70.944C52.4802 70.8312 52.2568 70.5852 52.1959 70.2776C51.9828 69.1909 52.3685 68.5552 53.3328 68.3605C53.6678 68.2887 53.8201 68.0837 53.7998 67.7453C53.7693 67.325 53.6577 66.9149 53.4648 66.5356C53.2922 66.187 53.3937 65.9615 53.7693 65.8692C54.4799 65.6949 55.1092 65.6744 55.6675 65.8282C56.0228 65.9205 56.1142 66.1358 55.9213 66.4638L53.2516 71.108Z" fill="black"/>
<path d="M109.021 16.4956C109.112 16.4136 108.574 15.6037 107.407 14.0556C107.163 13.7378 107.488 13.2867 107.864 13.4303L110.594 14.4452C111.112 14.64 111.437 15.0193 111.559 15.5627C111.68 16.1265 111.437 16.7827 110.828 17.5413C108.787 20.0838 107.001 17.5721 104.839 17.1415C103.113 16.8032 103.052 16.2803 104.656 15.5729C105.427 15.2346 106.625 15.5729 108.239 16.5571C108.493 16.7109 108.818 16.6904 109.021 16.4956Z" fill="black"/>
<path d="M35.7616 49.2813C36.7361 49.5274 37.1827 50.1835 37.0914 51.2497C37.0406 51.7623 36.5432 52.0904 36.0661 51.9263C35.315 51.67 34.7364 51.2395 34.3303 50.6243C34.1375 50.327 34.0563 50.0092 34.0969 49.6606C34.1882 48.8917 34.2694 48.1331 34.3608 47.3744C34.5943 45.3548 36.1271 43.3351 37.1624 41.6436C37.6598 40.8234 38.3196 39.5931 39.1216 37.9528C41.507 33.1241 45.4151 29.2591 49.0796 25.4043C50.2571 24.1638 52.0538 22.7388 54.4697 21.1292C57.5962 19.0378 59.7178 16.2493 63.7071 15.0908C64.0116 14.9985 64.3466 15.1421 64.4988 15.4291C65.0571 16.4543 64.8338 17.295 63.8492 17.9511C62.1134 19.0891 60.3065 19.9298 58.4184 20.4526C57.6673 20.6679 57.0684 21.0882 56.6116 21.7341C54.4393 24.82 50.9677 27.3317 48.9375 29.6384C46.2678 32.673 43.7199 35.8922 41.2837 39.2958C39.7509 41.4488 38.6445 43.5094 37.9441 45.4881C37.8223 45.8264 37.6192 46.1134 37.3452 46.3185C36.5534 46.9233 35.9139 47.6307 35.4165 48.4407C35.1526 48.8815 35.2642 49.1583 35.7616 49.2813Z" fill="black"/>
<path d="M116.137 18.6279C117.213 19.038 117.598 19.8787 117.294 21.1397C117.202 21.4882 116.989 21.6933 116.644 21.765C115.629 21.9598 114.604 21.9188 113.568 21.6523C112.34 21.3345 112.097 20.6476 112.817 19.6019L113.7 18.3306C113.903 18.0333 114.177 17.9205 114.533 17.982C115.071 18.0743 115.609 18.4331 116.137 18.6279Z" fill="black"/>
<path d="M120.461 27.7931C119.689 26.9729 119.537 26.1015 120.004 25.1788C120.177 24.8405 120.481 24.5944 120.847 24.5021C121.435 24.3484 121.973 24.3381 122.471 24.4611C123.76 24.7892 123.801 25.23 122.593 25.7939C121.821 26.1425 121.111 26.8089 120.461 27.7931Z" fill="black"/>
<path d="M120.461 27.7932L121.486 28.3981C121.821 28.5929 122.227 28.5929 122.562 28.3981L125.161 27.0141C125.587 26.7783 125.699 26.8911 125.506 27.3421L124.125 30.4998C123.983 30.8176 123.75 30.9098 123.435 30.7766C121.963 30.1307 120.968 29.1362 120.461 27.783V27.7932Z" fill="black"/>
<path d="M129.383 32.1812C129.607 32.5093 129.505 32.9603 129.17 33.1859L127.059 34.5699C126.724 34.7955 126.277 34.6929 126.064 34.3546L125.516 33.5139C125.293 33.1859 125.394 32.7348 125.729 32.5093L127.84 31.1252C128.175 30.8997 128.622 31.0022 128.835 31.3405L129.383 32.1812Z" fill="black"/>
<path d="M130.916 34.3649C131.048 34.2829 131.211 34.3239 131.282 34.447L131.363 34.5802C131.881 35.4209 131.566 36.5589 130.662 37.1227L129.556 37.8199C128.653 38.3735 127.506 38.1479 126.998 37.3073L126.917 37.174C126.836 37.051 126.876 36.8869 126.998 36.8049L130.916 34.3649Z" fill="black"/>
<path d="M131.617 37.9325L131.312 37.5635C131.099 37.3174 131.16 37.1842 131.485 37.1636C131.617 37.1534 131.739 37.1944 131.83 37.2867C133.18 38.6707 133.617 40.2905 133.139 42.1461C133.089 42.3614 132.957 42.4229 132.744 42.3512L130.998 41.7053C130.825 41.6335 130.744 41.5105 130.734 41.3362C130.673 40.3008 130.967 39.4191 131.617 38.6809C131.8 38.4657 131.8 38.1478 131.617 37.9325Z" fill="black"/>
<path d="M136.631 50.6347L136.327 50.9627C136.083 51.219 135.829 51.2293 135.575 50.9935C134.703 50.2041 134.317 49.2096 134.408 47.9896C134.439 47.6411 134.621 47.436 134.966 47.3745C136.367 47.1182 137.484 47.6206 138.316 48.8816C138.59 49.3019 138.631 49.712 138.418 50.0913C138.276 50.3681 138.052 50.4809 137.758 50.4399L137.352 50.3784C137.068 50.3476 136.824 50.4296 136.631 50.6347Z" fill="black"/>
<path d="M139.027 55.3304C138.692 55.7917 138.347 55.802 137.971 55.3817L136.611 53.7926C136.093 53.2082 136.195 52.7469 136.916 52.4291C137.738 52.0703 138.54 52.06 139.321 52.4188C139.646 52.5726 139.809 52.8187 139.809 53.1775C139.798 53.9054 139.545 54.623 139.027 55.3304Z" fill="black"/>
<path d="M34.229 53.9259C31.7928 56.1916 31.7725 59.4415 32.0465 62.5376C32.077 62.9272 31.8334 63.2757 31.4578 63.3782L30.1788 63.7063C29.8742 63.7883 29.7017 63.6755 29.6509 63.3577C29.5494 62.7324 29.6306 62.1582 29.8844 61.6456C31.0619 59.2569 32.0059 56.7759 32.7266 54.2027C32.8992 53.6183 33.488 53.0237 34.5031 52.4188C35.0004 52.1318 35.1527 52.2548 34.97 52.7981C34.8279 53.2185 34.5843 53.5978 34.229 53.9259Z" fill="black"/>
<path d="M136.479 92.2171C136.51 92.5145 136.469 92.781 136.378 93.0066C136.043 93.7857 135.779 93.7652 135.596 92.945C135.525 92.6272 135.616 92.3197 135.86 92.0224C136.215 91.602 136.428 91.6738 136.479 92.2171Z" fill="black"/>
<path d="M134.774 95.0054C135.129 94.6261 135.433 94.6773 135.667 95.1489C136.032 95.8768 135.85 96.3689 135.119 96.6252C134.875 96.7073 134.621 96.5945 134.52 96.3587C134.317 95.8461 134.398 95.395 134.774 95.0054Z" fill="black"/>
<path d="M133.972 103.853C133.728 104.786 134.023 105.022 134.855 104.561C136.773 103.515 137.646 101.618 139.311 100.265C140.215 99.5269 140.753 98.553 140.925 97.333C141.027 96.6358 141.9 96.3795 142.356 96.9126C142.631 97.2305 142.752 97.661 142.722 98.1839C142.702 98.553 142.529 98.9323 142.194 99.3116C140.529 101.27 139.403 103.587 137.108 104.714C135.708 105.412 134.276 106.211 132.804 107.103C132.327 107.4 131.749 106.929 131.921 106.396L133.403 101.936C133.545 101.516 133.809 101.424 134.185 101.649L134.489 101.834C134.743 101.987 134.804 102.336 134.621 102.572C134.317 102.961 134.104 103.392 133.972 103.853Z" fill="black"/>
<path d="M135.454 98.7166L134.033 98.5423C133.576 98.4808 133.444 98.245 133.627 97.8247C133.728 97.5684 133.901 97.3839 134.144 97.2711C134.358 97.1686 134.591 97.1686 134.845 97.2608C135.383 97.4556 135.718 97.7734 135.87 98.204C136.002 98.6039 135.87 98.7679 135.454 98.7166Z" fill="black"/>
<path d="M136.185 100.767C135.789 100.716 135.474 100.644 135.241 100.562C134.987 100.47 134.845 100.203 134.906 99.9366C134.967 99.6803 135.22 99.506 135.484 99.5367C136.246 99.629 136.581 99.9571 136.499 100.521C136.469 100.705 136.367 100.787 136.185 100.767Z" fill="black"/>
</g>
<defs>
<clipPath id="clip0_2077_415">
<rect width="150" height="120" fill="white"/>
</clipPath>
</defs>
</svg>
