<svg width="151" height="86" viewBox="0 0 151 86" fill="none" xmlns="http://www.w3.org/2000/svg">
<g clip-path="url(#clip0_2014_80)">
<path d="M138.93 37.8214C137.434 36.9153 134.717 35.9476 130.758 34.9077C130.432 34.8151 130.229 34.6091 130.137 34.2797C128.733 28.8128 126.28 23.8812 122.77 19.4953C113.57 7.97458 97.3693 6.51261 84.8524 12.4223C84.252 12.7002 83.8144 12.5458 83.5396 11.9487C81.4738 7.53187 78.4006 4.51528 74.3198 2.88858C59.7778 -2.88722 41.4501 1.77666 35.3239 17.498C34.693 19.1144 34.0417 20.7513 33.3802 22.4192C33.2479 22.7384 33.024 22.9134 32.6882 22.9546C20.5885 24.6534 10.0661 28.9363 3.91954 40.2305C-3.37693 53.6353 1.52809 69.3566 13.7805 77.696C28.8314 87.9401 45.9582 86.2928 60.5817 75.9869C60.9175 75.7501 61.2432 75.7604 61.5586 76.0178C76.7622 88.0533 98.0613 88.6093 114.11 77.8813C114.394 77.696 114.69 77.6754 115.005 77.8092C118.719 79.4256 122.719 80.4758 127.003 80.9597C130.341 81.3303 133.211 81.0215 135.622 80.0434C143.937 76.6458 149.645 70.0773 150.399 60.801C151.213 50.6187 147.386 42.9588 138.93 37.8214ZM53.2649 72.0952C47.5559 75.3177 41.4094 76.7797 34.8354 76.4914C21.9623 75.9252 9.36391 70.6538 6.67735 56.9196C3.85848 42.5264 18.1665 27.8759 32.5356 29.0393C32.7289 29.0496 32.8612 29.1422 32.9528 29.3172L34.6319 32.6633C34.693 32.7868 34.6115 32.9413 34.4691 32.9413C28.0274 33.1678 22.5932 35.3813 18.1563 39.5819C9.05862 48.189 8.28521 64.5486 21.4942 69.892C33.1461 74.6073 49.4691 73.1762 57.7527 62.5307C58.292 61.8409 59.3809 62.1394 59.503 63.0042C60.1645 67.7608 57.2133 69.8714 53.2649 72.0952ZM32.3015 43.9472C31.8741 44.3281 31.2432 44.3281 30.8157 43.9472C29.9915 43.2368 29.4521 42.4543 29.2079 41.5998C29.0959 41.188 29.2282 40.8997 29.6251 40.7453C30.7852 40.2614 31.7723 40.457 32.5966 41.3321C33.3395 42.1146 33.0546 43.2883 32.3015 43.9472ZM26.2465 48.3228C26.2974 48.8376 26.1041 48.9714 25.6563 48.714C24.2418 47.9419 23.3157 46.9638 22.8782 45.8004C22.6746 45.2547 22.8171 44.637 23.2547 44.2561C24.2927 43.3398 25.4223 42.6603 26.6332 42.2073C26.8266 42.1352 26.8877 42.197 26.8368 42.3926C26.2669 44.5546 26.0735 46.5314 26.2465 48.3228ZM51.4026 24.3033C52.3388 23.5414 53.5193 23.4591 54.0383 24.118C54.5573 24.7769 54.2316 25.93 53.3056 26.6919C52.3693 27.4537 51.1889 27.5361 50.6699 26.8772C50.1509 26.2183 50.4765 25.0652 51.4026 24.3033ZM113.306 67.9976C113.153 69.0992 112.675 70.0155 111.881 70.7568C109.194 73.2586 105.755 75.0397 101.562 76.1105C93.7567 78.1078 85.7886 78.0872 77.6577 76.0384C72.946 74.8544 64.7438 72.1982 64.3368 66.6798C64.2961 66.0929 64.9881 65.7532 65.4155 66.1547C66.7893 67.4622 68.3158 68.5227 69.9949 69.3463C82.5932 75.5133 99.5573 75.3795 111.718 66.6901C112.502 66.1341 113.01 66.3194 113.265 67.246C113.326 67.5034 113.336 67.7505 113.306 67.9976ZM99.2723 25.6623C99.2723 24.9313 99.8626 24.3342 100.585 24.3342C101.308 24.3342 101.898 24.9313 101.898 25.6623C101.898 26.3933 101.308 26.9904 100.585 26.9904C99.8626 26.9904 99.2723 26.3933 99.2723 25.6623ZM121.945 44.1943C121.63 44.0399 121.457 43.7825 121.416 43.4427C121.019 39.9834 120.816 35.9682 119.645 32.9104C117.6 27.6082 114.089 23.5106 109.093 20.6175C100.239 15.48 87.946 20.1027 81.2703 26.7022C80.8531 27.114 80.1611 26.9287 79.9983 26.3624C78.7262 21.9353 78.6346 18.1878 75.2357 14.5328C68.2852 7.04798 57.6509 7.70689 50.2425 14.1725C44.4623 19.2276 41.8571 26.0021 42.4168 34.4959C42.4372 34.8151 42.2947 34.9386 41.9996 34.8665C39.6489 34.3723 38.1224 33.8988 37.4202 33.456C37.3897 33.4355 37.3693 33.4046 37.3693 33.3634C37.756 28.4112 38.7024 23.8709 40.2086 19.7321C43.9636 9.37477 55.87 4.04168 65.965 5.67867C74.6964 7.09946 77.9528 11.5574 80.8225 19.4541C81.0261 19.9998 81.6774 20.1954 82.1455 19.8659C95.4969 10.4558 113.845 11.8045 121.498 27.6391C123.92 32.653 124.612 38.0273 123.584 43.7619C123.492 44.2664 123.197 44.4826 122.698 44.4311C122.464 44.4002 122.21 44.3281 121.945 44.1943ZM125.517 74.6073C124.53 74.5147 123.716 74.2264 123.075 73.7528C122.759 73.516 122.831 73.0115 123.197 72.8674C125.242 72.0746 127.685 71.9511 129.313 71.4363C138.482 68.5536 144.303 59.0405 139.408 49.7745C138.075 47.2624 135.195 44.6679 133.312 42.0219C133.078 41.6822 133.16 41.5278 133.567 41.5586C134.696 41.641 135.734 42.0219 136.701 42.7014C151.335 53.0279 144.394 76.4605 125.517 74.6073Z" fill="black"/>
</g>
<defs>
<clipPath id="clip0_2014_80">
<rect width="150" height="85" fill="white" transform="translate(0.5 0.5)"/>
</clipPath>
</defs>
</svg>
