<svg width="65" height="60" viewBox="0 0 65 60" fill="none" xmlns="http://www.w3.org/2000/svg">
<g clip-path="url(#clip0_2096_694)">
<path d="M28.99 21.1839C26.6655 15.4449 25.1807 9.65 24.5276 3.7833C24.3877 2.55408 24.7842 1.42863 25.7171 0.398969C25.9192 0.183457 26.1447 0.0557466 26.3857 0.023819C27.7461 -0.143801 28.5702 0.462824 28.8656 1.82773C30.3038 8.52455 31.5633 15.0538 32.6361 21.4233C32.7916 22.3412 32.7527 23.0835 32.5195 23.6503C32.1308 24.5841 30.8869 24.6879 30.3505 23.8339C29.7985 22.9638 29.3476 22.0778 28.99 21.1839Z" fill="black"/>
<path d="M38.0469 16.8976C40.9 11.7333 43.8931 6.74457 47.0261 1.93148C48.5965 -0.463097 52.3903 0.742171 51.2475 3.7274C50.54 5.57921 49.6538 7.35119 48.6043 9.03537C45.4868 14.064 42.0817 18.893 38.4045 23.5146C38.008 24.0094 37.6737 24.3127 37.3861 24.4325C36.8575 24.648 36.3599 24.5043 35.8935 24.0015C35.4425 23.5066 35.3104 22.7802 35.5592 22.1496C36.2588 20.3856 37.0907 18.6296 38.0469 16.8976Z" fill="black"/>
<path d="M26.9609 30.0676C24.6209 29.1258 21.9466 27.4097 18.9379 24.9273C15.2374 21.8702 11.9723 18.7972 9.15024 15.7242C7.85195 14.3114 7.77421 12.9784 8.91701 11.7252C9.44566 11.1505 10.2697 10.9829 10.9694 11.3102C12.4232 11.9966 13.7759 12.9624 15.0275 14.1996C18.145 17.2726 21.3013 20.2978 24.4965 23.275C26.339 24.9912 28.6635 27.1383 28.6013 28.9582C28.5624 30.1235 28.0182 30.4907 26.9609 30.0676Z" fill="black"/>
<path d="M64.3392 22.1658C63.2508 23.1157 59.5659 23.9458 58.1898 24.289C52.7635 25.638 47.3682 26.8991 41.9962 28.0724C41.3509 28.2081 40.6202 28.256 39.8117 28.2161C39.4229 28.1922 39.1586 27.809 39.2597 27.4259C40.2004 23.8899 43.0846 23.2514 46.4119 22.2137C51.1153 20.7371 56.0675 19.5558 61.2529 18.6538C62.2713 18.4782 63.1575 18.574 63.9194 18.9491C65.1555 19.5478 65.381 21.2559 64.3392 22.1658Z" fill="black"/>
<path d="M53.9995 40.077L40.3014 32.6459C39.7572 32.3425 39.4695 31.704 39.6017 31.0814C40.0448 29.054 43.1156 29.3892 44.515 29.8522C49.1406 31.3847 53.2221 33.6915 56.7671 36.7725C57.4046 37.3312 57.5134 38.313 57.0003 38.9995L56.6505 39.4704C56.0286 40.3085 54.9091 40.5719 53.9995 40.077Z" fill="black"/>
<path d="M19.4899 30.411C21.931 30.435 24.6753 30.5707 26.3001 32.6699C26.6577 33.1329 26.5955 33.8034 26.1524 34.1865C25.1339 35.0485 23.9056 35.5035 22.4518 35.5514C16.3413 35.7589 10.4252 36.158 4.69559 36.7407C2.82978 36.9323 -0.839634 36.8524 0.178785 33.6677C0.256527 33.4122 0.41201 33.2207 0.645236 33.1009C5.81507 30.3871 12.8974 30.3472 19.4899 30.411Z" fill="black"/>
<path d="M35.8857 39.0632C35.4114 38.1453 35.2948 37.1715 35.5514 36.1418C35.7924 35.1521 36.8652 34.6492 37.7515 35.1122C38.56 35.5352 39.2286 36.1339 39.7572 36.9081C43.0612 41.7292 46.4119 46.6141 49.817 51.5629C50.1591 52.0657 50.1824 52.7203 49.8714 53.2391C49.4205 53.9974 48.7442 54.4044 47.8346 54.4444C47.2515 54.4683 46.684 54.2288 46.2875 53.7898C41.9729 49.0007 38.5056 44.0918 35.8857 39.0632Z" fill="black"/>
<path d="M29.5342 37.0281C30.0318 36.7807 30.6149 37.084 30.7159 37.6347C31.1901 40.1091 26.2302 44.6748 24.5277 46.1833C21.4102 48.9531 18.3472 51.5631 15.3386 54.0136C14.3357 54.8357 13.1773 54.8836 11.8713 54.1732C11.2727 53.846 11.1016 53.1116 11.3426 51.9543C11.4204 51.6031 11.5992 51.2838 11.8557 51.0363C16.1704 46.9576 20.9826 42.9427 26.3002 38.9916C27.2564 38.2813 28.3292 37.6267 29.5342 37.0281Z" fill="black"/>
<path d="M33.8644 42.4001C34.0898 42.9189 34.2142 43.4856 34.2297 44.0523C34.3464 48.5781 34.1287 53.3593 33.5689 58.4118C33.4368 59.6091 32.2162 60.3275 31.1434 59.8406C31.0501 59.8007 30.9568 59.7528 30.8635 59.7128C29.7518 59.2659 29.2309 58.4278 29.2854 57.2065C29.5574 51.4995 30.1405 46.4948 31.0345 42.1926C31.1045 41.8493 31.3144 41.6258 31.6487 41.538C32.7604 41.2427 33.499 41.5301 33.8644 42.4001Z" fill="black"/>
</g>
<defs>
<clipPath id="clip0_2096_694">
<rect width="65" height="60" fill="white"/>
</clipPath>
</defs>
</svg>
