<svg width="50" height="120" viewBox="0 0 50 120" fill="none" xmlns="http://www.w3.org/2000/svg">
<g clip-path="url(#clip0_2228_261)">
<path d="M48.5914 64.4338C48.2903 64.2402 48.2514 63.8336 48.4943 63.5819C49.4949 62.5848 50 61.4425 50 60.1259C50 49.9807 48.3486 39.487 43.6857 30.4744C43.2388 29.6129 42.7142 28.8287 42.0828 28.093C41.9371 27.9188 41.6554 27.9478 41.5485 28.1414C40.2371 30.5325 39.0616 32.6138 37.8376 35.3631C35.7199 40.155 33.1553 42.6042 28.3175 45.1695C27.9386 45.3728 27.6084 45.6826 27.3072 46.0988C27.0935 46.3989 27.0255 46.3699 27.0935 46.0117C27.1421 45.76 27.2489 45.547 27.4141 45.3534C29.0655 43.4464 31.4844 42.1201 32.8541 40.6293C34.117 39.2741 35.205 37.6864 36.1084 35.8568C37.1867 33.6981 38.7702 30.9101 40.8685 27.4541C40.8976 27.4057 40.8879 27.3573 40.8588 27.3089L40.7034 27.1443C40.6062 27.0378 40.4314 27.0378 40.3342 27.1443C37.2353 30.6196 34.0199 33.8045 30.6878 36.6894C30.2118 37.0959 30.1341 37.0282 30.445 36.4957C32.5238 32.9333 36.2542 29.9033 39.0908 26.7862C39.2462 26.6022 39.4502 26.4764 39.6736 26.4183C40.9754 26.0214 41.3348 25.0921 40.7616 23.6109C38.061 16.5054 35.2147 10.0001 32.213 4.08528C31.6204 2.91393 30.8821 1.71355 29.9981 0.493799C29.4929 -0.19352 28.4729 -0.183839 27.9775 0.493799C24.1889 5.76969 21.1871 11.4425 18.0008 17.0766C17.6705 17.6671 16.7574 19.5257 15.3002 22.6332C14.4259 24.4822 13.367 26.2634 12.1333 27.9962C11.1133 29.4193 10.375 30.7358 9.92815 31.9556C8.55842 35.6632 6.24639 40.7649 6.91669 44.7242C7.48984 48.064 8.16013 51.5103 8.947 55.063C9.86986 59.2257 12.2499 63.8433 16.0871 68.9159C16.7379 69.7678 17.2042 70.5906 17.5054 71.3747C18.0397 72.7881 17.7288 72.9914 16.5922 72.004C12.755 68.6255 9.94758 64.1337 8.17956 58.5383C7.26641 55.6826 6.4504 52.8074 5.69267 49.913C5.54696 49.3515 5.32353 48.8965 5.00295 48.5577C4.67266 48.1995 4.08008 48.3641 3.99265 48.8384C2.62292 56.3505 -3.07943 66.4764 2.10806 73.882C6.84869 80.6874 11.9585 87.1734 17.4277 93.3496C17.4665 93.398 17.4665 93.4367 17.4277 93.4851L17.2917 93.6109C17.1168 93.7755 16.9517 93.7755 16.7865 93.6109C11.7059 88.5964 7.00412 83.0011 2.66178 76.8152C2.40921 76.4473 2.04977 76.2731 1.5932 76.2731C1.34062 76.2731 1.23377 76.3989 1.28234 76.6506C1.65148 78.4222 2.30235 80.0872 3.2155 81.6651C6.87783 87.9672 11.7836 93.427 16.7088 98.7707C18.0688 100.252 18.6614 101.375 18.6128 103.262C18.4768 108.238 18.4282 113.379 18.4574 118.693C18.4574 119.439 19.0985 120.029 19.8465 119.971L20.1283 119.952C21.3329 119.865 21.9546 119.206 21.9837 117.996C22.11 110.455 22.4014 103.514 22.8677 97.1927C22.9552 96.0214 23.538 95.1501 24.6066 94.5887C30.6198 91.4134 35.8559 88.5867 40.3051 86.0988C43.608 84.2595 45.8034 82.6429 46.9011 81.2682C50.2818 77.0378 49.9709 71.4134 49.7475 66.2344C49.6989 65.3534 49.2909 64.8307 48.6012 64.4047L48.5914 64.4338ZM33.2718 15.5567C33.4564 14.4822 33.7479 13.6497 33.9324 13.6787C34.1073 13.7077 34.1073 14.5983 33.9227 15.6632C33.7381 16.7377 33.4467 17.5703 33.2621 17.5412C33.0873 17.5122 33.0873 16.6216 33.2718 15.5567ZM8.06299 74.6855C6.12011 73.0204 4.60466 71.2779 3.50693 69.487C3.23493 69.032 3.05036 68.4609 2.97264 67.7736C2.93378 67.4638 2.99207 67.4347 3.1475 67.7155C4.17723 69.5741 5.36238 71.2005 6.69326 72.5945C7.34412 73.2721 7.83955 73.9304 8.19899 74.579C8.35442 74.8597 8.29613 74.8888 8.06299 74.6855ZM9.95729 77.5993C9.60758 77.2121 9.38414 76.8539 9.45214 76.7861C9.52015 76.7281 9.86015 76.9798 10.2099 77.367C10.5596 77.7542 10.783 78.1124 10.715 78.1802C10.647 78.2382 10.307 77.9865 9.95729 77.5993ZM11.9002 76.428C10.8802 75.5954 10.3944 74.3757 9.52986 73.5335C8.84014 72.8559 8.1407 72.1879 7.44126 71.5199C5.61496 69.7581 2.45778 65.5761 2.8755 62.943C2.92407 62.5848 3.04064 62.5751 3.18636 62.9043C3.39036 63.3205 3.49722 63.8239 3.72065 64.2982C5.49839 68.0253 6.96526 70.4164 8.12127 71.4425C9.68529 72.8462 10.9676 74.5015 11.9487 76.3893C11.9973 76.4764 11.9779 76.4957 11.9002 76.428ZM16.0774 78.7029C15.9996 78.7707 15.9219 78.761 15.8539 78.6835C13.9791 76.4957 12.6676 73.9594 10.7053 71.9556C7.41212 68.577 4.78923 64.579 3.91494 60.184C3.79837 59.5838 3.94408 58.9546 4.3618 58.3157C4.4978 58.093 4.61438 58.1027 4.69209 58.3544C5.32353 60.4938 6.12011 62.6719 7.07212 64.8597C7.83956 66.6022 9.04414 68.548 10.7053 70.7068C12.6676 73.2528 14.4842 75.8375 16.1356 78.4802C16.1939 78.577 16.1842 78.6448 16.0871 78.7126L16.0774 78.7029ZM44.9388 54.2886C44.1034 55.6148 42.8988 57.0282 41.3348 58.5093C39.5765 60.1647 37.4782 61.1908 35.0204 61.6071C33.369 61.8878 33.3107 61.6845 34.8359 60.9875C36.8176 60.0775 38.3428 59.2934 39.9068 57.6864C41.2571 56.3118 42.6171 54.9275 43.9965 53.5432C46.5806 50.9488 46.8914 51.1908 44.9388 54.2886ZM45.7743 46.4764C45.7743 46.4764 45.7937 46.4377 45.8228 46.4377C45.92 46.4377 45.9686 46.4764 45.9783 46.5732C46.1046 47.8123 46.0074 49.0224 45.6966 50.2227C45.6771 50.2905 45.648 50.3099 45.58 50.2905L45.3857 50.2421C45.2691 50.2131 45.2011 50.0969 45.2303 49.9904C45.5314 48.8771 45.7063 47.7155 45.7743 46.4861V46.4764ZM44.3851 50.4067C44.4337 50.4164 44.4531 50.4454 44.4337 50.4938C43.4622 52.6332 42.1994 54.1724 40.6451 55.1308C39.0325 56.1182 37.7793 57.0378 36.8759 57.8897C35.8947 58.8094 35.0496 59.0417 33.913 59.4193C32.553 59.8742 32.3975 59.6129 33.4564 58.6448L34.3404 57.851C34.4473 57.7445 34.5347 57.6187 34.593 57.4735C34.6221 57.396 34.661 57.3379 34.6999 57.2702C34.729 57.2315 34.7776 57.1927 34.8359 57.154C36.7107 56.1085 38.5759 55.0533 40.4508 53.9788C41.1114 53.6013 42.2382 52.459 43.8411 50.5422C43.9383 50.4357 44.0548 50.3776 44.1908 50.3776C44.2685 50.3776 44.3365 50.3776 44.4045 50.4067H44.3851ZM42.656 43.4754C43.0542 40.3486 43.4525 37.822 43.5594 37.8317L43.812 37.8607C43.9188 37.8801 43.6857 40.426 43.2971 43.5529V43.6303C43.2777 43.6981 43.2194 43.7368 43.1514 43.7368L42.7531 43.6884C42.6851 43.6884 42.6462 43.6206 42.656 43.5625V43.4754ZM41.9954 46.428C42.3257 45.7794 42.4034 45.8084 42.2382 46.5151C41.7331 48.6255 40.6548 50.5519 39.0033 52.2847C38.9062 52.3815 38.9159 52.4686 39.0033 52.5558L39.1588 52.6913C39.2462 52.7687 39.3725 52.7687 39.4599 52.6913L41.1405 51.2198C41.4708 50.9294 41.5388 50.9778 41.3348 51.3747C40.9074 52.2073 40.4508 52.7494 39.9942 52.9817C37.585 54.2111 35.1759 55.4406 32.757 56.67C32.1061 56.9991 31.3775 57.2024 30.6004 57.2992C30.2604 57.3379 30.2021 57.2508 30.4644 57.0088C32.2421 55.3534 33.845 54.3176 35.273 53.9014C36.2347 53.6206 37.0507 53.1656 37.7113 52.5267C38.4788 51.791 38.3622 51.6167 37.381 51.9943C34.9233 52.943 32.3198 53.5238 29.5804 53.7465C29.0558 53.7852 28.5895 54.1434 28.0941 54.2305C27.8318 54.2789 27.8026 54.2305 28.0066 54.0466C28.1912 53.8917 28.3661 53.7465 28.5312 53.6109C28.6964 53.4657 28.9004 53.3592 29.1238 53.2818C30.3964 52.8559 31.6204 52.3234 32.8153 51.6942C33.0387 51.578 33.2816 51.5587 33.5244 51.6361L34.4473 51.9459C34.6999 52.0233 34.9427 52.033 35.1953 51.9459C38.3719 50.9681 40.6451 49.1288 42.0148 46.4183L41.9954 46.428ZM39.5571 43.8723C38.7508 44.9953 37.857 45.9343 36.8953 46.6797C36.769 46.7765 36.6233 46.8249 36.4679 46.8152C36.3902 46.8152 36.3222 46.8152 36.2542 46.8152C36.2153 46.8152 36.1862 46.8346 36.157 46.8539C35.0302 47.8897 33.9033 48.9352 32.7667 49.9517C32.2324 50.4357 31.5815 50.8133 30.853 51.094C30.0564 51.3941 29.3472 51.6845 28.7352 51.9749C27.7735 52.4299 27.6958 52.3137 28.4924 51.6071C29.5998 50.639 31.125 50.2324 32.213 49.216C33.3107 48.1898 34.3793 47.1347 35.409 46.0408C35.9239 45.489 37.2645 44.7048 39.4211 43.6787C39.6833 43.5528 39.7222 43.6109 39.5571 43.8433V43.8723ZM40.8199 43.7658C40.9851 43.398 41.1017 43.4076 41.1502 43.8142C41.2279 44.3467 41.1599 44.85 40.9559 45.3244C39.7999 47.9672 37.6919 49.9517 34.6416 51.2779C34.253 51.4425 33.8936 51.4038 33.5633 51.1618L33.3593 51.0069C33.2136 50.9004 33.2233 50.668 33.3884 50.5906C37.2353 48.5093 39.7125 46.244 40.8199 43.7755V43.7658ZM41.1308 36.7571C41.3639 36.2344 41.4222 36.2537 41.3154 36.8152C40.8199 39.3321 39.3725 42.8268 36.9633 44.1627C36.3222 44.5209 35.7004 44.8984 35.1079 45.305C35.0204 45.3728 34.9427 45.3534 34.8747 45.2663C34.8067 45.1792 34.8164 45.1017 34.8941 45.0243C37.6822 42.6332 39.7708 39.8839 41.1308 36.7571ZM28.4729 46.8539C31.5524 45.3244 34.3404 43.4367 36.8565 41.1908C36.973 41.0843 37.0605 41.1037 37.1187 41.2586L37.2353 41.5393C37.2742 41.6458 37.245 41.7716 37.1673 41.8588C34.7679 44.4338 31.873 46.3118 28.4924 47.5025C28.4632 47.5025 28.4438 47.5025 28.4244 47.4735L28.3272 47.2799C28.2301 47.0863 28.2786 46.9507 28.4632 46.8539H28.4729ZM34.457 45.9923C34.5541 45.9343 34.6707 45.973 34.7193 46.0698L34.8067 46.2344C34.8553 46.3312 34.8261 46.4473 34.729 46.4957L26.9769 50.6584C26.8798 50.7165 26.7632 50.6777 26.7146 50.5809L26.6272 50.4164C26.5786 50.3196 26.6078 50.2034 26.7049 50.155L34.457 45.9923ZM32.4461 38.9352C32.6404 38.7997 32.7667 38.6061 32.825 38.3641C33.1067 37.154 33.777 36.2053 34.8553 35.5277C35.2536 35.276 35.3022 35.3244 34.9816 35.6826C34.2141 36.5635 33.6604 37.4832 33.3204 38.4512C33.1358 38.974 32.8153 39.3902 32.3684 39.7097C31.4747 40.3389 30.581 40.9101 29.6775 41.4328H29.6581L29.5318 41.2489C29.4832 41.1714 29.5027 41.0649 29.5804 41.0165L32.4558 38.9352H32.4461ZM22.3529 12.5558C22.6346 12.5364 23.0814 15.2469 23.3534 18.6351C23.6255 22.0136 23.6157 24.7629 23.3437 24.792C23.062 24.8113 22.6152 22.1008 22.3431 18.7126C22.0711 15.3341 22.0809 12.5848 22.3626 12.5558H22.3529ZM10.3944 50.4841C10.2973 50.5132 10.035 49.8742 9.80186 49.0514C9.57843 48.2285 9.47157 47.5509 9.57843 47.5219C9.67558 47.4928 9.93787 48.1317 10.171 48.9449C10.3944 49.7678 10.5013 50.4454 10.3944 50.4744V50.4841ZM16.1648 55.4599L15.9802 55.5567C15.9025 55.6051 15.8054 55.5761 15.7568 55.489L9.51043 44.0078C9.37443 43.7658 9.29671 43.5044 9.26757 43.2334C9.17043 42.3718 9.33557 41.4812 9.80186 40.5906C9.95729 40.2905 10.0836 40.3002 10.1904 40.6196C11.871 45.7794 14.0471 50.4744 16.2134 55.3631C16.2328 55.4018 16.2134 55.4406 16.1648 55.4599ZM19.1374 51.8394C19.05 52.6138 18.8557 52.6429 18.574 51.9168C16.4271 46.4764 13.4156 41.4425 11.9487 35.6245C11.5699 34.1337 11.6087 32.6526 12.075 31.2102C12.143 30.9875 12.2693 30.8133 12.4539 30.6777L13.571 29.8549C13.7168 29.7484 13.8139 29.7774 13.8528 29.9517C13.8819 30.0679 13.8333 30.2034 13.7168 30.368C13.6973 30.3873 13.6682 30.4164 13.6488 30.4164L13.367 30.5228C13.1242 30.6196 12.9785 30.881 13.027 31.1521C13.367 32.9333 13.7168 34.6661 14.3773 36.3408C16.0094 40.5035 17.5054 44.7145 18.8848 48.9643C19.1957 49.9033 19.2443 50.9294 19.1471 51.8297L19.1374 51.8394ZM21.4009 40.1453C21.4009 40.2518 21.2649 40.3196 21.1677 40.2518C21.0317 40.155 20.9248 40.0098 20.8763 39.8355C19.5163 35.4018 18.5351 31.1424 17.9425 27.0766C17.5442 24.337 17.9037 21.82 19.05 19.5161C19.3025 19.003 19.458 19.032 19.4968 19.6032C19.8271 24.3079 20.41 29.0901 21.2357 33.9498C21.6146 36.1956 21.634 38.0156 21.4009 40.1453ZM23.7809 56.6506C23.3049 61.4812 23.5866 66.2924 23.4894 71.1037C23.3729 76.7861 23.4117 84.579 22.9746 91.307C22.9454 91.8007 22.79 92.2169 22.5277 92.5461C22.3529 92.759 22.2557 92.73 22.246 92.4589C21.7991 85.0049 22.0517 77.9672 22.0711 70.7165C22.0711 67.9478 22.2266 64.4338 22.4986 60.1937C22.654 57.7348 22.7512 55.3922 22.79 53.1559C22.8386 50.5906 23.0134 48.2576 23.3437 46.1666C24.49 38.9256 25.6946 31.9072 26.9478 25.1017C27.5403 21.9362 28.5604 18.6932 29.3569 15.4696C29.8329 13.5625 30.0078 11.094 30.6198 9.09012C30.8918 8.20919 31.0472 8.22855 31.0958 9.13852C31.3484 13.8045 29.9592 18.0349 28.9295 22.517C28.4729 24.5306 28.0455 26.7087 27.6375 29.0611C26.8118 33.9788 25.9375 38.8191 25.0049 43.5819C24.558 45.8665 24.2763 48.4706 24.1597 51.3941C24.0917 53.1172 23.9655 54.8597 23.7906 56.6313L23.7809 56.6506ZM25.8889 82.7784L25.7918 82.6138C25.7918 82.6138 25.7723 82.5558 25.8112 82.5364C28.6186 80.1647 31.4164 78.519 34.2044 77.6284C37.653 76.5151 41.1114 75.092 44.5891 73.3496C44.832 73.2237 44.9777 73.3012 44.9971 73.5722C45.0263 73.8529 44.8514 74.1046 44.4823 74.337C43.1611 75.1501 41.7914 75.9149 40.4022 76.6216C36.7107 78.4996 32.485 79.2837 28.7547 81.2586C27.8318 81.7523 26.8992 82.2557 25.9666 82.7881C25.9375 82.8074 25.918 82.7881 25.8986 82.7687L25.8889 82.7784ZM45.4246 79.3999C45.0554 80.1453 44.4434 80.8133 43.5885 81.4231C38.6633 84.9372 32.5918 86.8249 27.1906 89.2837C27.1712 89.2837 27.1518 89.2837 27.1518 89.2644L27.0741 89.0998C27.0061 88.974 27.0352 88.8771 27.1615 88.8094C31.8341 86.2731 36.5165 83.7368 41.1988 81.2102C42.5977 80.4648 43.8411 79.7097 44.9194 78.9546C45.6674 78.4222 45.8423 78.5674 45.4343 79.3902L45.4246 79.3999ZM46.7166 74.6758C46.1823 76.2053 45.3177 77.3089 44.1034 77.9672C41.6651 79.2837 39.2462 80.6293 36.8467 82.0136C35.4673 82.8074 33.7964 83.5916 31.8438 84.3563C30.1147 85.034 28.4146 85.7891 26.7632 86.6313C26.7243 86.6506 26.6855 86.6313 26.6661 86.6022L26.5689 86.4473C26.4912 86.3118 26.5106 86.186 26.6369 86.0891C28.9684 84.4047 31.4941 83.0979 34.1947 82.1685C34.7096 81.9943 34.729 81.7716 34.253 81.5103C33.7187 81.2295 33.0387 81.4135 32.1935 82.0524C32.0964 82.1201 32.0187 82.1008 31.9507 82.0136C31.873 81.8781 31.8924 81.7813 32.009 81.7039C32.4267 81.4038 32.9027 81.2295 33.4273 81.1424C35.0496 80.8907 36.4679 80.4454 37.653 79.8065C40.1302 78.4609 42.656 77.0572 45.2303 75.5954C45.4343 75.4793 45.6091 75.3244 45.7646 75.1501C45.9589 74.9081 46.1726 74.6855 46.4154 74.4725C46.7651 74.1627 46.872 74.2208 46.7166 74.6661V74.6758ZM46.9886 70.184C46.6389 71.4812 45.92 72.2653 44.8223 72.5364C42.9474 73.0011 40.9656 73.7368 38.8479 74.7532C37.7308 75.2857 36.497 75.731 35.137 76.0698C33.1067 76.5829 30.9501 76.9701 29.0849 78.0253C28.8809 78.1414 28.6866 78.2963 28.5506 78.4802C28.3272 78.7513 28.0455 78.9352 27.7346 79.0224C27.3752 79.1288 27.3363 79.0514 27.5889 78.79C29.1238 77.2411 30.8918 76.2247 32.8638 75.731C35.3313 75.1211 37.7405 74.2498 40.0622 73.1075C41.0239 72.6332 42.0925 72.2266 43.2874 71.8684C44.5308 71.5006 45.6674 70.8617 46.6874 69.9904C46.9886 69.729 47.0954 69.7968 46.9886 70.184ZM40.5382 67.9478C40.6354 68.1705 39.2656 69.032 37.4588 69.8742C35.6519 70.7164 34.0976 71.2198 34.0004 70.9972C33.9033 70.7745 35.273 69.913 37.0799 69.0708C38.8868 68.2285 40.4411 67.7252 40.5382 67.9478ZM39.3531 67.3573C39.2656 67.154 40.6354 66.3602 42.4034 65.5761C44.1811 64.792 45.6868 64.3176 45.784 64.5209C45.8714 64.7242 44.5017 65.518 42.7337 66.3021C40.9559 67.0862 39.4502 67.5606 39.3531 67.3573ZM41.5291 69.2353C41.7428 69.1192 41.9857 68.79 42.248 68.2286C42.3451 68.0156 42.5102 67.8704 42.7434 67.8123C44.0937 67.4251 45.3468 66.7765 46.5223 65.8568C46.6194 65.7794 46.7069 65.7987 46.7749 65.8955L46.9789 66.1666C46.9789 66.1666 46.9886 66.215 46.9789 66.2344C45.8034 67.2895 44.5697 68.0833 43.2874 68.6255C43.0931 68.7126 42.996 68.9352 43.0737 69.1288C43.2097 69.4386 43.0737 69.7097 42.656 69.9614C39.4793 71.9072 36.0696 73.2624 32.4364 74.0369C31.0958 74.3176 29.9009 74.9275 28.7644 75.489C28.0164 75.8568 27.9678 75.7794 28.5992 75.2469C29.6872 74.337 31.0084 73.6206 32.5821 73.0979C35.681 72.062 38.6633 70.7842 41.5291 69.245V69.2353ZM46.0366 68.1317C46.124 68.2673 45.6286 68.7319 44.9291 69.1676C44.2297 69.5935 43.5983 69.8355 43.5108 69.7C43.4234 69.5645 43.9188 69.0998 44.6183 68.6642C45.3177 68.2382 45.9491 67.9962 46.0366 68.1317ZM47.3966 57.4444C46.0074 60.8617 39.1393 63.6497 35.5159 64.9372C32.2421 66.0988 28.8907 67.2605 25.4615 68.4222C25.1798 68.519 24.8786 68.4512 24.6649 68.2479L24.5289 68.1124C24.422 68.0156 24.4512 67.8413 24.5775 67.7736C27.2781 66.5248 29.9495 65.4212 32.5918 64.4531C36.9439 62.8655 42.588 60.3292 47.0371 57.154C47.484 56.8346 47.6103 56.9314 47.4063 57.4347L47.3966 57.4444Z" fill="black"/>
</g>
<defs>
<clipPath id="clip0_2228_261">
<rect width="50" height="120" fill="white"/>
</clipPath>
</defs>
</svg>
