<svg width="140" height="200" viewBox="0 0 140 200" fill="none" xmlns="http://www.w3.org/2000/svg">
<g clip-path="url(#clip0_2063_106)">
<path d="M139.15 56.9206C136.247 56.9206 132.588 57.1132 129.931 58.2544C128.951 58.6753 127.979 59.0105 127.014 59.2602C126.891 59.2887 126.812 59.2388 126.776 59.1175L126.718 58.9035C126.675 58.7395 126.74 58.6396 126.905 58.5968C128.116 58.283 128.965 57.9477 130.363 57.7123C131.472 57.5197 132.423 57.0204 133.222 56.2001C133.388 56.0289 133.582 55.9077 133.806 55.8292C135.851 55.1302 137.277 54.4312 138.091 53.7322C138.776 53.1544 139.143 52.277 139.201 51.1001C139.568 43.1612 139.172 35.7715 138.005 28.931C137.537 26.1777 136.989 23.8095 136.363 21.8337C135.412 18.8022 134.793 16.5054 134.504 14.9291C133.791 11.0202 132.718 1.96853 129.39 0.0640444C129.153 -0.0714811 128.843 0.0212469 128.721 0.263766C124.73 7.8318 122.497 15.7993 122.029 24.1733C121.964 25.2789 121.475 27.2476 120.545 30.0722C120.178 31.1921 119.955 32.4832 119.89 33.9312C119.876 34.2664 119.775 34.3021 119.58 34.0239C118.608 32.6401 117.967 31.078 117.643 29.3447C117.585 29.0237 117.247 28.8311 116.937 28.9452C116.843 28.9809 116.757 29.1093 116.663 29.3162C113.444 36.927 110.39 44.602 107.487 52.3412C106.111 56.0147 106.378 60.0733 106.406 63.8752C106.414 64.1676 106.356 64.1747 106.234 63.9108C104.959 61.0791 104.08 58.176 103.597 55.2158C103.561 54.9733 103.417 54.8663 103.165 54.8948C100.839 55.1873 98.4114 61.236 97.6623 63.3259C96.5171 66.5286 96.1929 69.4674 96.6755 72.1565C97.0429 74.2108 97.331 76.2009 97.5398 78.1196C97.6335 78.9542 98.0296 79.6889 98.2241 80.5305C98.2889 80.8159 98.2673 80.823 98.1449 80.5519C96.3226 76.4362 95.0045 72.4489 94.1834 68.5829C94.1041 68.1906 93.9169 67.8339 93.6359 67.513C93.139 66.9495 92.7212 66.9994 92.3755 67.6627C91.0862 70.1093 89.6816 72.3847 88.1691 74.4747C87.1967 75.8228 86.3972 77.0782 85.7705 78.2266C84.4092 80.7445 83.3288 82.8273 81.2112 84.2825C79.4969 85.4665 79.144 86.0728 78.8631 88.0201C78.3589 91.4867 77.8475 94.6608 78.1716 98.2416C78.8847 105.995 79.0576 111.894 78.6182 118.15C78.5678 118.799 78.2581 119.334 77.6818 119.754C77.4802 119.897 77.3505 119.847 77.2929 119.612C75.3986 112.008 74.88 104.183 75.0961 96.2372C75.1033 95.9662 74.7863 95.8021 74.5703 95.9662C71.2066 98.4912 67.5476 101.879 65.0842 104.747C62.7145 107.522 60.9786 110.689 59.891 114.262C59.783 114.612 59.6461 114.626 59.4733 114.305C58.2416 112.015 58.6666 109.997 58.4433 107.735C58.4217 107.486 58.2848 107.379 58.0327 107.415C57.3124 107.5 56.7578 107.807 56.3761 108.342C52.8755 113.228 49.2742 118.749 46.3354 124.619C44.5348 128.221 42.7197 131.816 40.883 135.411C40.7749 135.632 40.6453 135.647 40.494 135.454C39.5 134.184 39.6657 131.103 39.5649 129.591C39.428 127.451 38.9022 127.351 37.9802 129.291C36.3452 132.722 34.6382 136.096 32.8591 139.413C32.3621 140.34 32.4269 141.274 32.0596 142.28C31.9587 142.551 31.8651 142.544 31.7859 142.266C30.6478 138.393 31.3825 135.889 32.7366 132.444C32.8375 132.18 32.8519 131.909 32.7727 131.645C32.5638 130.946 32.2324 130.889 31.7931 131.481C30.5902 133.086 29.4954 134.855 28.9552 136.774C27.5939 141.603 27.1185 146.161 27.529 150.462C27.7811 153.151 28.5951 155.819 29.9564 158.465C30.1653 158.864 30.2085 159.285 30.086 159.72C30.014 159.984 29.9348 159.991 29.8483 159.72C28.984 157.031 28.1629 155.119 27.3778 153.992C25.1449 150.776 23.0921 147.444 21.2122 143.985C21.0826 143.75 20.8161 143.635 20.5568 143.7C20.1606 143.807 19.9229 144.063 19.8437 144.477C19.7573 144.912 19.7068 145.155 19.6924 145.205C18.9938 147.395 18.7345 149.613 18.9145 151.86C19.0154 153.165 19.5052 154.62 20.3839 156.239C22.8184 160.747 24.4535 164.257 25.0801 169.221C25.0873 169.278 25.0801 169.321 25.0297 169.357C24.9649 169.414 24.8928 169.45 24.8136 169.464C24.6623 169.492 24.5111 169.407 24.4535 169.264C23.0345 165.776 20.7224 162.844 17.5244 160.469C16.8618 159.977 16.6025 159.406 16.0983 158.85C15.7669 158.486 15.4932 158.529 15.2699 158.964C14.4272 160.619 14.312 161.732 15.1979 163.444C16.1775 165.334 17.5316 166.91 19.2603 168.18C19.462 168.33 19.6204 168.515 19.7285 168.743L20.7512 170.905C21.2915 172.032 21.0033 172.296 19.9013 171.689C19.3611 171.39 18.6769 171.126 17.8485 170.89C16.977 170.641 16.4224 170.905 16.1703 171.682C16.0478 172.089 16.2279 172.524 16.6025 172.731L19.7141 174.378C20.0022 174.535 20.0454 174.928 19.8005 175.142C13.815 180.342 7.97356 185.57 2.27618 190.827C1.5631 191.483 0.979679 192.175 0.525905 192.903C-1.10912 195.535 1.36142 198.659 3.74554 199.7C4.6963 200.114 6.12245 200.15 6.86433 199.443C10.5449 195.934 14.4632 191.148 18.2447 187.246C20.0598 185.385 21.8389 183.473 23.5747 181.511C23.6684 181.411 23.834 181.447 23.87 181.576C24.4535 183.658 25.3754 185.705 26.6287 187.717C27.5074 189.129 29.6395 191.455 31.3465 191.248C31.7859 191.198 31.9659 190.656 31.6418 190.356C29.7475 188.609 28.3358 186.519 27.4066 184.093C26.8952 182.745 26.7439 181.604 26.9528 180.67C27.2409 179.379 27.6803 179.322 28.2637 180.513C30.6118 185.277 33.2192 188.994 38.2756 191.169C38.931 191.455 39.6873 191.405 40.3067 191.048L41.027 190.634C41.4304 190.406 41.3727 189.814 40.9334 189.664C35.8914 187.945 32.7943 184.336 31.649 178.836C31.5914 178.558 31.6706 178.515 31.8795 178.708C32.535 179.314 32.8807 180.213 33.4281 180.748C35.4593 182.731 40.033 185.513 43.0654 184.771C44.4411 184.429 44.4915 183.951 43.2094 183.337C40.3067 181.946 37.7209 180.185 35.4593 178.052C35.4089 178.002 35.4089 177.952 35.4521 177.902L35.5817 177.745V177.738C37.8074 179.329 40.1843 180.641 42.7197 181.668C43.8577 182.125 44.9885 182.339 46.1122 182.303C47.1782 182.275 48.3522 182.168 49.6271 181.982C49.98 181.932 50.2177 181.604 50.1529 181.255C50.1169 181.083 50.0377 180.962 49.9152 180.891C47.8336 179.671 45.9249 178.458 44.189 177.26C43.62 176.861 43.6416 176.818 44.2683 177.132C47.812 178.908 51.7087 179.721 55.9583 179.571C59.4445 179.45 62.7721 178.195 65.9341 175.805C66.3807 175.47 66.2006 174.771 65.646 174.692C63.1899 174.336 60.8562 174.849 58.6522 176.24C58.5585 176.297 58.4865 176.283 58.4217 176.197C58.3568 176.112 58.3713 176.033 58.4505 175.962C58.9619 175.534 59.4301 175.127 59.8622 174.735C60.3088 174.336 60.208 173.622 59.6677 173.351C57.687 172.367 55.6342 171.91 53.495 171.975C53.2573 171.982 53.0268 171.932 52.8107 171.839C51.4062 171.219 50.1025 171.375 48.6835 170.862C48.0713 170.641 47.4375 170.47 46.782 170.355C46.6596 170.334 46.6163 170.27 46.638 170.149L46.674 169.956C46.6884 169.906 46.7388 169.87 46.7892 169.885C50.3978 170.691 53.1132 171.054 54.9355 170.962C58.6089 170.776 62.5993 171.083 65.9197 170.084C72.1573 168.216 77.1344 164.25 81.4273 159.535C81.7802 159.142 81.4921 158.522 80.9591 158.536C80.0299 158.565 79.1584 158.615 78.3445 158.686C75.2545 158.964 72.2798 159.135 69.4347 159.2C68.7 159.221 67.9365 159.335 67.1514 159.549C66.4455 159.742 65.6821 159.863 64.8537 159.913C63.4564 159.991 62.3184 160.105 61.4396 160.248C60.0999 160.469 58.753 160.533 57.3917 160.441C57.2836 160.434 57.226 160.369 57.2332 160.262C57.2404 160.148 57.298 160.098 57.4061 160.105C59.3292 160.255 61.2235 160.098 63.0819 159.62C63.6509 159.471 64.3495 159.385 65.1707 159.356C65.8981 159.328 66.6112 159.2 67.3099 158.978C67.3315 158.971 67.3315 158.964 67.3171 158.943L67.1658 158.757C67.1154 158.693 67.0578 158.672 66.9785 158.707C65.7901 159.171 64.7313 158.993 63.8021 158.172C63.5644 157.958 63.6005 157.83 63.9246 157.794C66.4455 157.523 69.2042 157.388 72.2077 157.395C76.018 157.395 79.9579 156.767 84.0275 155.498C86.8726 154.606 89.5952 153.158 92.1882 151.168C92.4115 151.004 92.5411 150.79 92.5771 150.526C92.6348 150.091 92.253 149.734 91.8137 149.805C87.8954 150.469 84.0203 150.576 80.1812 150.112C79.9435 150.084 79.713 150.119 79.4969 150.212C79.2088 150.333 78.9135 150.39 78.6038 150.376C78.2941 150.362 77.9916 150.362 77.6963 150.369C75.0168 150.462 72.8848 150.39 71.293 150.162C70.4647 150.048 69.6003 149.955 68.7072 149.884C67.9509 149.82 67.1082 149.656 66.179 149.392C65.3291 149.149 64.4504 149.035 63.55 149.049C63.4276 149.057 63.3628 148.992 63.3556 148.864V148.686C63.3556 148.686 63.3556 148.664 63.3772 148.657C65.1851 148.593 66.5392 149.363 68.2174 149.32C71.1057 149.242 73.9868 149.206 76.8679 149.213C78.0276 149.213 79.8931 149.634 81.4633 149.128C82.8246 148.693 83.7898 148.464 84.3732 148.443C87.492 148.336 90.2507 148.101 92.9733 146.353C97.6047 143.364 101.48 139.655 104.599 135.226C104.721 135.047 104.591 134.805 104.375 134.812C102.409 134.862 100.486 135.076 98.6059 135.447C96.6467 135.832 93.9313 135.689 90.4595 135.019C90.1354 134.955 89.8329 134.99 89.5376 135.133C89.1414 135.326 88.7309 135.383 88.2915 135.311C87.8161 135.233 87.8017 135.119 88.2555 134.955C88.983 134.705 89.6528 134.655 90.2723 134.805C90.6756 134.905 91.0141 134.948 91.2878 134.926C92.2386 134.869 92.9373 134.948 93.8592 134.677C97.2301 133.692 101.228 132.943 104.022 131.552C110.08 128.542 112.752 123.492 115.828 117.864C116.065 117.429 115.748 116.894 115.251 116.894L104.923 116.866C104.743 116.866 104.663 116.773 104.685 116.595L104.707 116.388C104.714 116.324 104.75 116.288 104.815 116.281C107.177 115.831 109.568 115.225 111.989 114.462C120.783 111.673 126.279 106.009 128.468 97.4641C128.562 97.1003 128.332 96.7151 127.935 96.5653C127.799 96.5154 127.597 96.494 127.33 96.5011C124.874 96.6081 122.562 96.4869 120.394 96.1516C120.38 96.1516 120.365 96.1445 120.358 96.1231C120.329 96.0589 120.315 96.0018 120.322 95.9519C120.322 95.8378 120.38 95.7664 120.495 95.745C125.083 94.7892 129.592 93.9832 131.515 89.0829C133.078 85.0813 134.641 81.1939 136.197 77.4063C136.384 76.9498 136.046 76.4434 135.549 76.4434L127.496 76.4077C127.201 76.4077 127.165 76.3221 127.402 76.1438C128.468 75.3449 129.462 74.7814 130.384 74.4604C132.877 73.5902 135.556 72.8626 136.586 70.359C138.235 66.3432 139.366 62.1704 139.978 57.855C140.072 57.2273 139.791 56.9134 139.15 56.9134V56.9206ZM135.578 49.3311C135.527 49.5594 135.412 49.7448 135.225 49.8804C134.764 50.2156 134.591 50.6793 134.699 51.2856C134.764 51.6279 134.627 51.8491 134.288 51.956L134.101 52.0131C133.856 52.0916 133.69 52.006 133.604 51.7635C133.266 50.8362 133.525 50.2513 134.396 50.0159C134.555 49.9731 134.627 49.7876 134.533 49.645C134.18 49.1171 134.288 48.7106 134.872 48.4324C135.102 48.3254 135.217 48.1399 135.21 47.8832C135.203 47.6906 135.153 47.5336 135.045 47.4124C134.872 47.2269 134.576 47.2341 134.411 47.4266L133.388 48.6178C133.222 48.8104 133.172 48.789 133.237 48.5394C133.503 47.555 134.159 47.0343 135.189 46.9844C135.441 46.9701 135.585 47.0843 135.621 47.3339C135.729 48.0115 135.714 48.6749 135.578 49.3311ZM135.39 45.9287L134.771 45.8503C134.548 45.8289 134.36 45.8931 134.209 46.05C134.072 46.1998 133.907 46.2996 133.727 46.3496C133.467 46.4209 133.431 46.3638 133.626 46.1784L133.95 45.8788C134.072 45.7647 134.159 45.6077 134.195 45.4437C134.209 45.3652 134.238 45.2939 134.274 45.2154C134.454 44.8445 134.973 44.7304 135.426 44.9658C135.664 45.087 135.801 45.244 135.844 45.4366C135.931 45.8146 135.779 45.9787 135.39 45.9287ZM135.326 41.5206C136.125 41.4136 136.211 41.863 135.599 42.8616C135.484 43.047 135.21 43.0328 135.117 42.833C134.965 42.4978 134.908 42.1911 134.937 41.9129C134.965 41.7132 135.124 41.5491 135.326 41.5206ZM131.436 36.606C131.443 36.499 131.501 36.2137 131.609 35.7358C132.61 31.3205 133.503 27.6827 134.274 24.8224C134.411 24.316 134.519 24.316 134.612 24.8367C135.354 29.1236 134.663 33.4319 132.149 36.8628C131.566 37.6688 131.328 37.5832 131.436 36.606ZM130.125 13.5595C130.161 13.8448 130.039 13.9447 129.765 13.8591C129.477 13.7664 129.29 13.5524 129.196 13.21C129.11 12.889 129.225 12.782 129.542 12.9033C129.887 13.0317 130.082 13.2528 130.125 13.5595ZM128.569 7.97445C128.749 6.80466 129.095 5.87738 129.347 5.91304C129.592 5.95584 129.65 6.94018 129.47 8.10998C129.29 9.27978 128.944 10.2071 128.692 10.1714C128.447 10.1286 128.389 9.14425 128.569 7.97445ZM79.9939 151.503C82.0467 151.496 83.5089 151.517 84.3804 151.574H84.3732C83.1415 151.696 81.9171 151.788 80.6854 151.845C80.3252 151.867 80.0732 151.796 79.9363 151.646C79.8859 151.589 79.9219 151.503 79.9939 151.503ZM67.4827 152.58C68.7432 151.211 70.2342 150.818 71.9629 151.403C72.1645 151.467 72.3158 151.596 72.4166 151.788C72.4598 151.881 72.5175 151.952 72.5967 152.017C72.6615 152.074 72.748 152.088 72.8272 152.067L73.922 151.76C74.1597 151.696 74.3037 151.781 74.3614 152.017C74.4334 152.338 74.5919 152.602 74.8368 152.794C75.06 152.972 75.1969 152.923 75.2545 152.644C75.3265 152.309 75.2185 152.038 74.9376 151.817C74.6711 151.61 74.6999 151.475 75.0312 151.41C75.8019 151.261 76.479 151.403 77.0624 151.853C77.2497 152.002 77.4586 152.074 77.6963 152.074C78.1788 152.074 78.6254 151.924 79.036 151.624C79.108 151.574 79.1656 151.582 79.216 151.66C79.2664 151.738 79.252 151.796 79.18 151.845C78.7623 152.109 78.3805 152.423 78.0276 152.787C77.9628 152.858 77.8907 152.901 77.8259 152.923C77.7323 152.944 77.6458 152.951 77.5666 152.93C77.437 152.908 77.3937 152.83 77.4297 152.701L77.5234 152.416C77.5234 152.416 77.5234 152.359 77.5018 152.338C77.3073 152.117 77.0984 152.052 76.8679 152.159C76.7095 152.231 76.5942 152.373 76.5294 152.58C76.4934 152.68 76.4718 152.78 76.4502 152.88C76.4142 153.072 76.2989 153.186 76.1188 153.236C75.8307 153.315 75.5426 153.315 75.2617 153.229C75.0312 153.165 74.8007 153.144 74.563 153.165C72.2942 153.379 69.9749 153.301 67.6052 152.937C67.3459 152.894 67.3027 152.773 67.4827 152.58ZM125.047 22.0406C125.53 20.4785 125.875 18.895 126.077 17.2758C126.077 17.2544 126.084 17.2401 126.106 17.2401H126.315C126.423 17.2401 126.481 17.3043 126.473 17.4113C126.459 18.4884 126.279 19.4371 125.94 20.2431C125.4 21.5199 125.422 22.7325 126.005 23.888C126.358 24.6013 126.257 25.2647 125.962 25.928C125.897 26.0778 125.782 26.1206 125.631 26.0564C125.566 26.0279 125.508 25.978 125.465 25.9138C125.436 25.8638 125.429 25.7996 125.436 25.7212C125.573 24.6869 125.451 23.6883 125.069 22.7111C124.982 22.49 124.975 22.2688 125.047 22.0406ZM124.954 31.3205H124.997C125.134 31.292 125.27 31.3918 125.292 31.5345L126.351 39.0811C126.372 39.2167 126.272 39.345 126.128 39.3736H126.084C125.948 39.4021 125.811 39.3022 125.789 39.1596L124.73 31.613C124.709 31.4774 124.809 31.349 124.954 31.3205ZM123.686 34.8085C123.801 34.7871 124.096 35.8142 124.334 37.1124C124.572 38.4035 124.673 39.4663 124.557 39.4948C124.442 39.5162 124.147 38.4891 123.909 37.1909C123.671 35.8998 123.571 34.837 123.686 34.8085ZM123.254 32.7328C123.319 32.4832 123.391 32.476 123.47 32.7257C123.599 33.118 123.643 33.4818 123.592 33.8028C123.563 33.9954 123.506 34.0025 123.419 33.8242C123.225 33.4247 123.174 33.0609 123.254 32.7328ZM120.877 34.9298C121.078 34.9084 121.431 36.6417 121.647 38.7958C121.871 40.95 121.892 42.7118 121.691 42.7332C121.489 42.7546 121.136 41.0213 120.92 38.8671C120.697 36.713 120.675 34.9512 120.877 34.9298ZM117.736 40.7074C117.844 39.5662 118.053 39.5519 118.356 40.6575L120.848 49.9018C120.87 49.9731 120.841 50.023 120.769 50.0516L120.581 50.1158C120.581 50.1158 120.574 50.1158 120.567 50.1086C119.105 46.9059 118.176 44.174 117.772 41.92C117.708 41.542 117.7 41.1354 117.736 40.7074ZM115.907 42.4835C116.015 42.2767 116.116 42.2767 116.195 42.4978L119.84 51.6921C119.904 51.8491 119.868 52.0274 119.753 52.1558C119.501 52.4268 119.328 52.434 119.22 52.1843C118.154 49.6593 117.124 47.2055 116.123 44.816C115.921 44.3238 115.763 44.3381 115.655 44.8588C115.554 45.3296 115.576 45.7789 115.72 46.2069C116.606 48.839 117.254 51.8419 117.664 55.2015C117.708 55.551 117.607 55.601 117.355 55.3513C116.958 54.9519 116.699 54.474 116.577 53.9176C116.044 51.3711 115.489 48.8247 114.906 46.2854C114.711 45.4294 115.05 44.1598 115.907 42.4835ZM112.45 51.2214L112.738 51.1928C112.738 51.1928 112.788 51.1928 112.795 51.2356C113.076 52.8334 113.422 54.0103 113.832 54.7736C115.187 57.32 116.8 61.3501 115.676 64.0749C115.576 64.3245 115.504 64.3174 115.46 64.0535C115.093 61.9279 114.682 59.8879 114.243 57.9263C114.128 57.4199 113.732 56.3642 113.062 54.7593C112.608 53.6822 112.349 52.5695 112.284 51.4211C112.277 51.2998 112.327 51.2285 112.45 51.2214ZM109.698 53.9247C110.015 51.8348 110.217 51.8419 110.31 53.9533C110.433 56.835 110.534 59.5954 110.613 62.2275C110.634 62.9621 110.735 63.654 110.915 64.3103C111.16 65.2019 111.232 66.1577 111.139 67.1706C111.124 67.3418 111.232 67.5058 111.398 67.5486L111.578 67.5914C111.7 67.6271 111.758 67.5771 111.765 67.4559C111.78 66.657 111.909 65.908 112.154 65.209C112.558 64.0606 112.622 62.1133 112.305 60.9435C111.765 58.9748 111.513 57.0775 111.535 55.2515C111.542 54.5382 111.664 54.5168 111.895 55.1944C112.464 56.8778 113.004 58.6539 113.191 60.4799C113.415 62.5984 113.588 64.7168 113.71 66.8353C113.717 66.9566 113.66 67.0136 113.537 67.0208H113.357C113.357 67.0208 113.335 67.0208 113.335 67.0065C113.472 66.3432 113.357 65.7939 113.004 65.3588C112.839 65.152 112.723 65.1734 112.651 65.4301C112.248 66.8353 112.14 68.2477 112.334 69.66C112.37 69.8954 112.342 70.1236 112.262 70.3447C112.003 71.0224 111.765 71.7071 111.549 72.3847C111.499 71.8498 111.585 71.3362 111.809 70.8298C111.902 70.6158 111.924 70.3947 111.866 70.1664C111.499 68.697 110.649 67.463 110.318 66.0578C109.331 61.828 109.129 57.7836 109.705 53.9247H109.698ZM105.297 67.0921L105.513 67.0065C105.607 66.9637 105.715 67.0136 105.758 67.1064L109.252 75.7586C109.288 75.8513 109.237 75.9583 109.143 76.0011L108.927 76.0867C108.834 76.1295 108.726 76.0796 108.683 75.9869L105.189 67.3346C105.153 67.2419 105.204 67.1349 105.297 67.0921ZM106.615 79.0469C106.514 79.0826 106.198 78.4549 105.917 77.6488C105.636 76.8428 105.492 76.1581 105.6 76.1224C105.701 76.0867 106.017 76.7144 106.298 77.5204C106.579 78.3265 106.723 79.0112 106.615 79.0469ZM100.968 71.65C101.112 70.5587 100.889 68.9467 101.249 68.1193C101.386 67.7983 101.473 67.8125 101.501 68.162C101.545 68.7113 101.689 69.2106 101.941 69.6457C103.388 72.1921 104.246 75.1666 104.512 78.569C104.685 80.8444 104.44 82.9985 103.785 85.0314C103.684 85.3453 103.569 85.3524 103.446 85.0457C101.977 81.5577 101.105 78.0197 100.824 74.439C100.774 73.7186 100.817 72.7842 100.968 71.65ZM92.3683 77.5062L92.5339 77.4206C92.6852 77.3564 92.8004 77.3921 92.8797 77.5347C94.1257 79.8244 95.4366 82.5492 96.8052 85.709C97.3021 86.8717 97.4966 88.0772 97.3886 89.3397C97.3598 89.6464 97.2445 89.6821 97.0357 89.461C96.6827 89.0686 96.4234 88.6193 96.2578 88.12C95.1053 84.5464 93.7944 81.037 92.3323 77.5918C92.3106 77.5561 92.3251 77.5276 92.3683 77.5062ZM90.5892 79.6746C91.0069 79.5676 92.3683 83.3623 93.6215 88.1485C94.8676 92.9418 95.5375 96.9149 95.1197 97.0219C94.702 97.1288 93.3406 93.3341 92.0874 88.5479C90.8413 83.7546 90.1642 79.7816 90.5892 79.6746ZM87.5136 82.9343C87.7657 81.4507 88.0394 81.4436 88.3347 82.9201C88.5796 84.1398 89.5088 84.8388 89.9986 85.9658C90.9277 88.0986 91.6264 90.3026 92.1018 92.578C92.606 94.989 92.1234 97.5639 92.325 100.068C92.3899 100.902 92.2602 100.938 91.9361 100.16C90.0562 95.6809 88.7309 90.9874 87.9746 86.0871C87.8305 85.1455 87.3696 83.7831 87.5136 82.9343ZM84.3012 86.2725C84.7838 86.836 85.1799 87.4138 85.4896 88.0058C85.5329 88.0843 85.6049 88.1342 85.6913 88.1485C85.8282 88.1699 85.9362 88.1342 86.0082 88.0486C86.1307 87.906 86.2315 87.9202 86.3107 88.0843C88.4644 92.628 89.7393 97.7423 90.1426 103.427C90.1858 103.991 90.1282 104.49 89.9625 104.925C89.8617 105.196 89.7753 105.189 89.7104 104.911C89.5016 103.998 89.4584 103.299 88.9614 102.471C87.9314 100.781 87.2831 99.2901 87.0238 97.9991C86.5124 95.474 86.001 92.949 85.4896 90.4168C85.2087 89.0544 84.5245 87.7918 84.0923 86.3795C83.9843 86.0158 84.0491 85.9801 84.3012 86.2725ZM84.1283 90.8661C84.2219 90.6094 84.3012 90.6094 84.366 90.8661C85.3024 94.6252 85.5833 98.4698 85.2159 102.393C85.0719 103.898 85.5977 105.303 85.8714 106.758C85.9218 107.036 85.8642 107.065 85.6985 106.837C85.2591 106.252 85.2447 105.253 84.863 104.483C84.5317 103.827 84.3804 103.327 84.4092 102.985C84.6901 99.5683 84.5245 96.1873 83.8978 92.8277C83.7826 92.2357 83.8618 91.5794 84.1283 90.859V90.8661ZM80.8006 94.24C81.0095 93.0274 81.2688 93.0203 81.5641 94.2115C81.9747 95.8449 82.8246 97.4142 83.0983 99.069C83.3864 100.838 83.5017 102.621 83.4513 104.412C83.4368 104.918 83.264 105.332 82.9327 105.646C82.7166 105.845 82.6085 105.795 82.6013 105.503C82.5653 103.399 82.1404 101.202 81.3264 98.9049C80.7286 97.2002 80.5485 95.6452 80.8006 94.24ZM72.1285 103.677C72.4454 103.648 72.9928 107.193 73.353 111.587C73.7131 115.974 73.7563 119.562 73.4466 119.59C73.1297 119.619 72.5823 116.074 72.2222 111.68C71.862 107.293 71.8188 103.705 72.1285 103.677ZM68.9305 104.811C69.0241 104.141 69.1178 104.141 69.2114 104.811C69.9677 110.382 70.5079 115.981 70.832 121.602C70.8392 121.723 70.796 121.837 70.7168 121.93L70.4359 122.244C70.227 122.479 70.0901 122.451 70.0181 122.144C69.6796 120.653 69.4707 119.255 69.3987 117.936C69.3122 116.324 69.1826 114.925 69.0025 113.741C68.5488 110.667 68.5271 107.693 68.9305 104.811ZM67.137 106.33C67.4035 105.767 67.5043 105.795 67.4323 106.416C67.3747 106.951 67.2306 107.422 67.3027 108.035C67.7997 111.972 68.1742 115.924 68.4263 119.883C68.4335 120.004 68.5343 120.104 68.664 120.111C68.7288 120.118 68.7936 120.133 68.8441 120.168C68.8729 120.19 68.8945 120.211 68.9017 120.247C69.3771 121.695 69.3843 123.264 68.9233 124.94C68.7 125.775 68.7288 127.059 69.0241 128.785C69.0313 128.813 69.0169 128.835 68.9881 128.842L68.7936 128.877C68.6712 128.899 68.5992 128.856 68.5704 128.742C68.2534 127.394 67.8645 126.124 67.3963 124.933C66.9137 123.678 66.5896 122.451 66.4239 121.252C66.0422 118.413 65.7253 115.717 65.4876 113.164C65.3147 111.302 65.8621 109.019 67.137 106.33ZM64.0614 112.935C64.1263 112.6 64.1767 112.6 64.1983 112.943C64.3856 115.817 64.8537 118.742 65.5956 121.709C66.4095 124.954 67.1298 128.228 67.7492 131.517C67.7853 131.688 67.7781 131.845 67.7276 131.987C67.6052 132.358 67.4683 132.365 67.3315 132.002C67.245 131.781 67.1514 131.574 67.0506 131.388C63.7301 125.482 62.7361 119.334 64.0614 112.935ZM59.7542 120.225C59.819 119.633 59.8982 119.113 59.9847 118.677C60.0927 118.1 60.2224 118.092 60.3592 118.67C60.9931 121.331 61.4828 124.07 61.8358 126.873C61.9942 128.129 62.7433 129.042 62.9738 130.333C62.981 130.347 62.9738 130.354 62.9738 130.361C62.9738 130.361 62.969 130.364 62.9594 130.368C62.9594 130.368 62.9522 130.361 62.9522 130.354V130.297C62.9522 130.297 62.945 130.268 62.9378 130.254C62.2463 129.013 61.1443 128.057 60.9138 126.688C60.741 125.668 60.8202 124.569 60.5753 123.635C60.2656 122.479 59.6389 121.431 59.7614 120.225H59.7542ZM58.0111 130.026C58.6378 127.615 58.2992 124.99 58.4361 122.543C58.4721 121.873 58.6377 121.844 58.9259 122.451C59.0699 122.757 59.1563 123.221 59.1852 123.856C59.3148 126.937 59.5885 130.211 58.4577 133.022C58.3208 133.35 58.2056 133.343 58.1047 133.007C57.795 131.987 57.759 130.989 58.0111 130.026ZM56.6498 117.886H56.6786C56.8875 117.879 57.0603 118.05 57.0676 118.249L57.3989 129.94C57.4061 130.147 57.2404 130.325 57.0243 130.325H56.9955C56.7866 130.333 56.6138 130.161 56.6066 129.962L56.2752 118.271C56.268 118.064 56.4337 117.886 56.6426 117.886H56.6498ZM51.9176 126.003C52.4218 122.379 53.567 118.877 55.3533 115.496C55.3749 115.453 55.4109 115.439 55.4541 115.46C55.4829 115.468 55.4901 115.489 55.4829 115.518C54.3665 118.963 54.028 122.436 54.4674 125.946C54.6186 127.194 54.7411 128.421 54.8275 129.634C55.1444 134.127 55.3533 137.587 54.5394 141.253C54.3233 142.245 54.2153 142.23 54.2081 141.225C54.2009 138.364 54.3089 135.554 53.956 132.587C53.7543 130.882 53.5742 128.999 53.4158 126.952C53.3941 126.709 53.3725 126.709 53.3365 126.952C53.2069 127.843 53.1637 128.713 53.2069 129.562C53.3869 133.421 53.459 137.145 53.4302 140.725C53.423 140.975 53.3509 140.996 53.2141 140.789C51.9824 138.935 52.0472 134.619 51.8816 132.387C51.6871 129.698 51.7015 127.565 51.9176 126.003ZM49.8576 126.039C49.9656 125.817 50.0377 125.832 50.0665 126.074C50.6499 131.046 51.1901 136.01 51.6943 140.975C51.7879 141.924 51.8095 142.658 51.7447 143.179C51.7231 143.364 51.7303 143.55 51.7807 143.728C51.8167 143.864 51.8311 143.999 51.8239 144.149C51.8095 144.434 51.7447 144.449 51.6223 144.185C51.1829 143.208 50.5995 142.387 50.6067 141.267C50.6139 138.607 50.3762 136.096 49.8792 133.735C49.7856 133.278 49.7351 133.286 49.7279 133.749C49.7063 137.045 49.7784 140.483 49.9584 144.056C49.9584 144.185 49.8864 144.299 49.7712 144.349L49.5479 144.442C49.4254 144.491 49.3606 144.456 49.339 144.327C48.9716 141.267 49.0437 138.321 48.7268 135.133C48.417 132.059 48.4242 128.835 49.8576 126.039ZM48.4747 146.275C48.6403 145.761 48.806 145.761 48.9716 146.282C49.0941 146.66 49.0581 147.095 48.8708 147.601C48.7628 147.88 48.6763 147.88 48.6043 147.587C48.5539 147.366 48.5107 147.152 48.4747 146.945C48.4242 146.646 48.4242 146.424 48.4747 146.275ZM45.6944 133.999C45.788 132.722 46.4147 131.588 46.6308 130.247C46.8108 129.106 46.8901 129.113 46.8684 130.268C46.8036 134.848 47.207 139.627 48.0785 144.598C48.1577 145.062 48.0497 145.469 47.74 145.818C47.6319 145.947 47.4951 146.039 47.3366 146.103C47.1061 146.196 46.8468 146.075 46.7676 145.847C46.4291 144.884 46.2634 143.878 46.2562 142.837C46.2346 139.841 45.4783 136.866 45.6944 133.999ZM44.4843 136.075C44.8805 135.361 45.0534 135.411 45.0101 136.224C44.8733 138.871 44.9813 141.581 45.3343 144.363C45.3631 144.57 45.4495 144.748 45.6008 144.898C46.0906 145.376 46.213 146.118 45.9033 146.724C45.5648 147.395 45.3199 148.086 45.183 148.807C45.1326 149.064 45.0606 149.071 44.9669 148.821C44.5636 147.794 44.2106 146.924 44.1674 145.761C44.1026 144.149 43.9153 142.551 43.6056 140.968C43.2383 139.12 43.6632 137.573 44.4843 136.075ZM42.2947 139.784C43.2455 143.35 43.548 146.76 43.2094 150.012C43.2094 150.012 43.207 150.012 43.2022 150.012H42.9934C42.9069 150.005 42.8637 149.962 42.8637 149.877C42.8133 148.222 42.8133 146.56 42.8565 144.898C42.8997 143.079 42.6548 141.303 42.1146 139.57C42.2083 139.613 42.2659 139.684 42.2947 139.784ZM40.9694 142.637C40.9838 142.58 40.991 142.58 40.9982 142.644C41.1351 144.798 41.2647 147.002 41.3799 149.256C41.3871 149.335 41.3439 149.385 41.2647 149.392H41.2575C41.1783 149.399 41.1278 149.363 41.1206 149.285C40.7893 147.195 40.5012 144.684 40.9694 142.637ZM37.793 140.033C37.8866 139.142 38.0451 139.127 38.2684 139.998C39.4208 144.527 39.925 148.743 39.7881 152.644C39.7665 153.315 39.6585 153.329 39.464 152.687C38.9454 150.961 38.6141 149.513 38.5277 147.509C38.4772 146.196 38.2756 144.905 37.9298 143.643C37.5697 142.33 37.6633 141.239 37.793 140.033ZM36.835 142.822C37.0151 142.808 37.3608 145.055 37.5985 147.844C37.8362 150.633 37.8722 152.901 37.6921 152.915C37.5121 152.93 37.1663 150.683 36.9286 147.894C36.691 145.105 36.6549 142.837 36.835 142.822ZM34.9551 143.029L35.1712 142.815C35.2936 142.694 35.5025 142.765 35.5169 142.936L36.2948 153.351C36.302 153.4 36.2732 153.429 36.2228 153.436L36.0355 153.472C35.9851 153.479 35.9563 153.458 35.9491 153.415C35.0919 150.226 34.6526 147.045 34.6166 143.864C34.6094 143.536 34.7246 143.257 34.9551 143.029ZM32.2468 147.337C32.8375 146.36 33.0392 145.462 32.8591 144.656C32.8375 144.563 32.8735 144.499 32.9671 144.477L33.176 144.427C33.176 144.427 33.2048 144.427 33.212 144.449C33.5866 145.804 33.2768 147.245 33.4209 148.372C33.8459 151.66 35.3368 155.49 34.2492 159.007C34.17 159.271 34.1052 159.264 34.0403 159C33.1688 155.269 32.5278 151.596 32.11 147.972C32.0812 147.751 32.1316 147.53 32.2468 147.337ZM30.5038 147.031C30.5686 146.696 30.7559 146.446 31.0656 146.289L31.2601 146.182C31.4257 146.096 31.6274 146.225 31.613 146.417C31.4257 148.678 31.3969 150.219 31.5338 151.032C32.182 154.927 32.4701 158.672 32.4053 162.267C32.4053 162.274 32.3981 162.281 32.3837 162.288H32.2036C32.074 162.295 31.9659 162.195 31.9659 162.067C31.9371 160.933 31.6346 159.87 31.577 158.707C31.4545 156.147 31.1016 153.622 30.5182 151.125C30.2301 149.898 30.2229 148.536 30.5038 147.031ZM21.5436 152.266C21.0394 150.54 21.3347 150.398 22.4223 151.831C24.9577 155.169 26.3766 159.87 27.5362 163.793C27.7883 164.649 27.8676 165.469 27.7739 166.247C27.7163 166.725 27.6083 166.739 27.457 166.275C25.8148 161.318 22.9265 157.031 21.5436 152.266ZM53.7615 176.996C53.7399 177.082 53.6462 177.139 53.5598 177.117L44.3331 174.856C44.2394 174.835 44.189 174.742 44.2106 174.657V174.642C44.2322 174.557 44.3259 174.5 44.4123 174.521L53.639 176.782C53.7327 176.804 53.7831 176.896 53.7615 176.982V176.996ZM47.0125 172.338C48.6259 172.709 51.8672 173.772 56.729 175.534C56.9451 175.612 56.9379 175.669 56.7146 175.705C56.5201 175.741 56.3401 175.705 56.1888 175.605C56.0808 175.534 55.9583 175.505 55.8287 175.513C54.3305 175.634 52.1193 174.728 50.7147 174.25C50.0161 174.007 48.8348 173.701 47.1854 173.323C45.1902 172.866 43.3103 172.082 41.56 170.976C41.56 170.976 41.56 170.971 41.56 170.962L41.6609 170.776C41.7113 170.698 41.7761 170.676 41.8625 170.719C43.0222 171.268 44.7436 171.811 47.0125 172.338ZM41.8121 169.635L41.8409 169.421C41.8409 169.421 41.8625 169.378 41.8913 169.378C43.1518 169.428 44.3331 169.742 45.4351 170.32C45.5287 170.37 45.5575 170.448 45.5071 170.548C45.4567 170.655 45.3775 170.676 45.2838 170.619C44.2683 170.02 43.159 169.749 41.9706 169.806C41.8481 169.813 41.7905 169.756 41.8121 169.635ZM50.7291 161.033C50.297 161.354 49.8144 161.375 49.2814 161.09C49.1661 161.026 49.1805 160.861 49.303 160.819C49.7856 160.64 50.2321 160.598 50.6571 160.683C50.938 160.74 50.9668 160.854 50.7291 161.033ZM59.927 167.88C59.4156 167.959 58.9331 167.887 58.4793 167.659C58.2704 167.552 58.0471 167.517 57.8094 167.545C56.549 167.702 55.3317 167.588 54.1432 167.203C53.9199 167.131 53.8767 167.003 54.0064 166.81L54.2081 166.511C54.3305 166.332 54.4818 166.304 54.6546 166.439C55.4037 166.996 56.2248 167.167 57.118 166.946C57.3485 166.889 57.5717 166.903 57.795 166.996C57.8743 167.031 57.9607 167.06 58.0399 167.089C58.22 167.153 58.3929 167.124 58.5513 167.017C58.753 166.875 58.9835 166.81 59.25 166.832C59.7614 166.867 60.0783 167.067 60.2008 167.445C60.28 167.695 60.1935 167.845 59.927 167.88ZM71.2066 164.499C68.3687 166.604 65.1274 167.709 61.4828 167.802C61.1947 167.809 60.9426 167.609 60.8778 167.331C60.6545 166.34 61.1299 165.812 62.3184 165.762C62.3976 165.762 62.448 165.797 62.4552 165.876C62.4624 165.962 62.4264 166.011 62.3472 166.019C61.9942 166.061 61.6917 166.19 61.4396 166.404C61.2307 166.582 61.2452 166.746 61.4828 166.889C61.6773 167.01 61.9078 167.06 62.1671 167.053C62.7649 167.024 62.945 166.561 63.6581 166.732C63.8886 166.782 64.119 166.782 64.3423 166.725C65.8405 166.368 67.3243 165.954 68.7864 165.491C69.5859 165.234 70.1117 164.699 70.8248 164.278C70.8896 164.242 70.9617 164.243 71.0265 164.285L71.2498 164.428C71.2498 164.428 71.257 164.464 71.2066 164.499ZM57.2548 161.996C57.298 161.853 57.3845 161.739 57.5213 161.66C57.5862 161.625 57.6654 161.603 57.759 161.603C59.4733 161.582 61.2307 161.297 62.8802 161.347C66.712 161.468 70.5799 161.339 74.491 160.976C74.988 160.933 75.0312 161.054 74.6351 161.347C72.2798 163.066 69.6148 163.943 66.64 163.979C63.0602 164.029 59.5021 163.829 55.9511 163.394C55.7422 163.365 55.6126 163.251 55.5622 163.051C55.5478 162.973 55.5478 162.902 55.5622 162.83C55.591 162.709 55.663 162.638 55.7855 162.616L56.8659 162.359C57.0675 162.309 57.1972 162.188 57.2548 161.996ZM60.1791 149.392L61.8286 148.536C61.9942 148.443 62.1095 148.493 62.1671 148.671C62.1887 148.728 62.1815 148.8 62.1527 148.878C62.1311 148.942 62.0807 148.992 62.0158 149.035C61.7782 149.178 61.5477 149.192 61.2956 149.342C60.9859 149.52 60.6329 149.627 60.2512 149.649C59.8262 149.677 59.7974 149.591 60.1791 149.392ZM64.4576 156.824C64.4576 156.967 63.6509 157.045 62.6713 157.003C61.6917 156.96 60.8994 156.81 60.9066 156.667C60.9066 156.525 61.7133 156.446 62.6929 156.489C63.6725 156.532 64.4648 156.682 64.4576 156.824ZM70.6159 133.578C68.2534 136.139 65.646 138.864 62.7937 141.745C54.5466 150.069 47.8624 156.432 42.7485 160.826C37.9442 164.956 32.9815 169.228 27.8676 173.637C24.2086 176.796 20.7368 179.971 17.4452 183.159C14.1103 186.39 10.7322 189.686 7.32531 193.031C6.92916 193.423 6.43937 193.487 5.85595 193.231C5.61826 193.124 5.53182 192.86 5.58224 192.439C5.60385 192.239 5.69749 192.054 5.83434 191.918C9.1404 188.623 12.3744 185.384 15.8318 182.332C17.9638 180.441 19.9517 178.373 22.0694 176.611C30.511 169.599 38.5276 161.917 46.782 154.913C57.795 145.569 67.4827 135.768 77.4946 124.983C79.0432 123.314 81.3697 120.625 84.474 116.923C87.528 113.278 90.9493 109.761 93.744 106.138C97.2949 101.537 100.961 97.0432 104.08 92.1786C107.782 86.4009 110.325 82.3494 111.715 80.017C114.589 75.2022 117.139 69.7598 119.371 63.6754C120.113 61.6426 121.381 59.3529 122.101 57.049C122.137 56.9491 122.202 56.9134 122.303 56.9491C122.411 56.9848 122.44 57.049 122.404 57.1559C119.018 66.8924 115.453 76.0725 109.799 84.8246C101.12 98.263 90.6036 111.73 78.2653 125.233C75.7155 128.022 73.1657 130.803 70.6087 133.578H70.6159ZM101.17 120.917C100.961 121.095 100.695 121.167 100.378 121.131C100.226 121.124 100.082 121.131 99.9312 121.153C99.5278 121.231 99.1389 121.224 98.7571 121.131C98.5626 121.081 98.5626 121.067 98.7571 121.074C99.499 121.103 100.277 121.01 101.098 120.796C101.307 120.739 101.328 120.782 101.163 120.917H101.17ZM92.1666 122.158C93.175 121.652 94.1041 121.345 94.9613 121.238C95.2278 121.21 95.451 121.431 95.4222 121.695C95.379 122.13 95.1053 122.415 94.6011 122.543C94.3922 122.593 94.1978 122.572 94.0177 122.472L93.5783 122.237C93.3694 122.123 93.1606 122.108 92.9373 122.194C92.6996 122.287 92.4691 122.344 92.2314 122.372C91.8209 122.415 91.7992 122.344 92.1666 122.158ZM91.8713 118.449C91.5904 118.471 91.5183 118.356 91.648 118.107C91.8281 117.779 92.145 117.572 92.5988 117.493C92.8653 117.443 92.9877 117.55 92.9661 117.814C92.9589 117.921 92.9157 118.028 92.8509 118.128C92.7284 118.306 92.4043 118.413 91.8713 118.449ZM95.3934 113.891C95.307 113.777 95.3358 113.713 95.4727 113.691C96.0489 113.599 96.373 113.841 96.445 114.419C96.5026 114.868 96.3586 114.954 96.0057 114.662C95.9408 114.612 95.7392 114.355 95.3934 113.891ZM84.3516 135.055C85.3888 135.062 86.2243 135.154 86.2243 135.254C86.2243 135.354 85.3816 135.433 84.3516 135.425C83.3144 135.425 82.4789 135.326 82.4789 135.226C82.4789 135.126 83.3216 135.047 84.3516 135.055ZM81.4489 135.326C80.4405 135.632 79.4393 135.661 78.4525 135.397C77.8979 135.247 77.8979 135.097 78.4525 134.94C78.8415 134.826 79.2737 134.812 79.7562 134.891C80.3181 134.976 80.9015 134.962 81.4345 135.069C81.773 135.14 81.773 135.226 81.4489 135.326ZM92.1666 142.052C91.3959 143.343 88.522 143.878 86.9662 144.228C86.9302 144.235 86.3684 144.392 85.2952 144.691C84.0347 145.041 82.7382 145.076 81.4057 144.805C81.168 144.755 81.0887 144.62 81.1824 144.392C81.204 144.327 81.2472 144.277 81.2976 144.228C81.348 144.178 81.4273 144.156 81.5353 144.149C85.2807 144.028 88.7669 143.272 91.9937 141.867C92.2458 141.76 92.3034 141.817 92.1666 142.052ZM86.2099 142.009L86.0082 142.023C81.5425 142.316 77.8619 141.781 77.8043 140.832V140.747C77.7899 140.668 77.8475 140.597 77.9267 140.597L94.0249 139.534C94.1041 139.527 94.1762 139.591 94.1834 139.67V139.755C94.2482 140.704 90.6828 141.717 86.2099 142.009ZM91.8137 137.765C92.0658 137.779 92.3034 137.872 92.4979 138.022C92.9373 138.371 93.4271 138.514 93.9601 138.443C94.1834 138.414 94.2482 138.5 94.1474 138.707C94.0897 138.814 93.9817 138.856 93.8232 138.835C92.3899 138.578 91.3167 138.899 90.2002 138.971C86.3035 139.199 82.4141 139.334 78.539 139.377C78.4165 139.377 78.3517 139.32 78.3517 139.199V138.978C78.3661 138.771 78.5246 138.6 78.7334 138.585C80.6134 138.436 82.5077 138.314 84.4164 138.207C86.2171 138.1 89.2135 137.622 91.8137 137.765ZM93.3478 129.826C92.7572 129.919 92.3106 130.119 91.6624 130.004C91.6048 129.997 91.576 129.962 91.576 129.897V129.855C91.576 129.855 91.5976 129.812 91.6192 129.819C92.3611 129.919 93.0741 129.805 93.7584 129.484C93.7008 129.676 93.5639 129.79 93.3478 129.826ZM101.17 128.614C101.17 128.685 101.134 128.721 101.062 128.728C99.9312 128.806 98.8291 129.049 97.7631 129.455C97.6479 129.498 97.5471 129.505 97.4534 129.469C97.1941 129.37 97.0501 129.32 96.9996 129.305C96.8052 129.341 96.6395 129.355 96.4883 129.341C96.4738 129.341 96.4666 129.327 96.4738 129.32C96.4738 129.305 96.481 129.298 96.4954 129.298H96.978C96.978 129.298 96.9924 129.298 96.9996 129.298C97.1797 129.263 97.3742 129.206 97.5903 129.127C98.7067 128.706 99.8663 128.499 101.055 128.492C101.127 128.492 101.163 128.528 101.17 128.599V128.614ZM107.487 123.606C105.614 125.853 101.962 127.344 99.1172 127.765C95.199 128.335 91.2806 128.556 87.3624 128.421C85.9146 128.371 85.8786 128.143 87.2687 127.729C87.3047 127.715 87.5568 127.715 88.0178 127.736C88.2699 127.743 88.5148 127.722 88.7525 127.658C92.0369 126.773 95.3502 126.003 98.6851 125.34C98.7283 125.332 99.9384 125.161 102.322 124.84C103.972 124.619 105.657 124.148 107.364 123.442C107.631 123.335 107.667 123.385 107.487 123.606ZM110.008 119.876C110.332 119.812 110.375 119.89 110.13 120.111C109.266 120.867 108.106 121.481 106.659 121.959C103.842 122.879 100.889 123.813 97.7991 124.762C95.9985 125.311 93.2182 125.618 89.4511 125.682C88.097 125.703 86.8654 126.21 85.5112 126.352C85.2159 126.388 85.2087 126.352 85.4896 126.253L95.5591 122.8C95.8544 122.7 96.0057 122.494 96.0273 122.187L96.0777 121.431C96.0993 121.195 96.2073 121.01 96.409 120.881C96.7403 120.675 97.0429 120.675 97.3238 120.889C97.4894 121.01 97.5038 121.145 97.3526 121.288L97.1797 121.452C96.978 121.652 97.1149 121.994 97.403 121.994C99.0668 121.98 100.529 121.951 102.214 121.552C104.786 120.946 107.379 120.389 110.008 119.876ZM103.986 104.226C103.223 104.269 102.596 104.14 102.589 103.948C102.582 103.755 103.187 103.57 103.95 103.527C104.714 103.484 105.34 103.613 105.348 103.805C105.355 103.998 104.75 104.183 103.986 104.226ZM106.529 100.232C106.45 100.546 105.96 100.702 105.427 100.574C104.901 100.446 104.534 100.082 104.613 99.768C104.692 99.4542 105.182 99.2972 105.715 99.4256C106.241 99.554 106.608 99.9178 106.529 100.232ZM121.72 101.772C121.093 102.6 120.257 103.113 119.206 103.32C117.542 103.641 115.892 104.019 114.25 104.44C111.945 105.039 109.914 105.068 107.638 105.103C107.501 105.103 107.393 104.982 107.408 104.847L107.436 104.618C107.465 104.383 107.667 104.205 107.912 104.198C111.16 104.148 114.293 103.648 117.311 102.714C118.334 102.393 118.313 102.207 117.239 102.15C116.325 102.1 115.259 102.193 114.049 102.429C112.45 102.742 110.944 102.685 109.352 102.65C109.266 102.65 109.208 102.571 109.223 102.486L109.273 102.265C109.316 102.079 109.475 101.936 109.662 101.908C112.68 101.501 115.72 101.309 118.774 101.344C118.838 101.344 118.846 101.366 118.795 101.409C118.694 101.487 118.644 101.594 118.644 101.73C118.651 102.043 118.795 102.122 119.076 101.972C119.854 101.53 120.653 101.309 121.482 101.302C121.727 101.302 121.864 101.58 121.72 101.772ZM122.814 99.2045C122.908 99.2117 122.951 99.2544 122.951 99.3472L122.966 99.5612C122.973 99.7395 122.879 99.8394 122.699 99.8536C120.437 100.018 118.183 100.246 115.928 100.538C114.704 100.695 112.666 100.581 111.103 101.209C110.735 101.359 110.476 101.245 110.339 100.866L110.26 100.645C110.188 100.439 110.289 100.21 110.498 100.125C111.535 99.6967 112.478 99.447 113.328 99.3686C116.152 99.1118 119.314 99.0547 122.814 99.2045ZM127.071 89.0044C125.472 90.3954 123.578 90.8376 121.388 90.3169C121.078 90.2456 121.057 90.1314 121.338 89.9674C122.497 89.304 123.83 88.7548 125.342 88.3054C126.783 87.8774 127.532 87.1499 127.583 86.1299C127.597 85.8945 127.719 85.7376 127.943 85.6591C128.015 85.6377 128.087 85.6234 128.166 85.6306C128.324 85.6306 128.382 85.7162 128.346 85.866C128.044 87.0072 127.993 88.1913 127.071 89.0044ZM130.341 81.144C129.643 82.0356 128.958 83.1055 128.288 84.3538C127.366 86.0871 125.71 87.1499 123.311 87.5351C120.999 87.8988 118.63 88.2341 116.202 88.5265C116.166 88.5265 116.152 88.5194 116.145 88.4909L116.101 88.2912C116.073 88.1699 116.152 88.0415 116.274 88.013C117.837 87.5921 119.364 87.2569 120.87 87.0072C122.598 86.729 123.491 85.1812 125.134 84.5749C126.286 84.1469 127.619 84.0685 128.101 82.6419C128.195 82.3708 128.116 82.3066 127.863 82.4493C125.832 83.612 124.197 84.5535 121.77 83.562C121.525 83.4622 121.482 83.1412 121.683 82.9771C122.627 82.221 123.664 81.7503 124.802 81.5719C126.495 81.3009 128.209 80.9585 129.945 80.5377C130.658 80.3665 130.795 80.5662 130.341 81.144ZM128.087 79.6104C128.303 79.7174 128.555 79.7388 128.785 79.6746C129.52 79.4677 130.248 79.3964 130.968 79.4677C131.105 79.482 131.134 79.5462 131.069 79.6675L130.932 79.91C130.874 80.0027 130.759 80.0455 130.658 80.0098C129.83 79.7388 128.742 79.6674 127.899 79.9385C127.532 80.0598 127.158 80.1168 126.783 80.1097C125.234 80.0883 123.7 80.2666 122.173 80.6375C122.152 80.6375 122.123 80.6233 122.116 80.6019L122.087 80.4235C122.065 80.3023 122.108 80.2381 122.231 80.2167C123.83 79.967 126.214 78.7116 128.087 79.6104ZM129.074 64.0392C130.204 62.2917 131.328 61.0363 132.444 60.273C132.624 60.1518 132.826 60.0804 133.064 60.059C133.532 60.0091 133.604 60.1589 133.273 60.4942C132.243 61.5284 131.263 62.6554 130.327 63.8752C130.089 64.1819 129.743 64.3531 129.29 64.3887C128.98 64.4173 128.908 64.3031 129.074 64.0392ZM132.632 69.7955L132.488 69.8882C131.537 70.4874 130.586 70.6942 130.37 70.3519L130.334 70.3019C130.305 70.252 130.32 70.1878 130.37 70.1521L133.77 68.0051C133.82 67.9766 133.892 67.9909 133.921 68.0408L133.95 68.0907C134.173 68.4331 133.582 69.1963 132.632 69.7955ZM130.291 67.7483C129.931 68.0551 129.743 67.9695 129.729 67.4987C129.722 67.2704 129.729 67.0422 129.743 66.8068C129.765 66.4074 129.995 66.0436 130.348 65.851C131.616 65.1662 132.502 64.2675 133.013 63.1547C133.438 62.2346 133.799 61.2502 134.108 60.2017C134.18 59.9521 134.346 59.8451 134.598 59.8879L135.232 59.9806C135.398 60.0091 135.455 60.1018 135.405 60.2588C134.332 63.2689 132.632 65.7654 130.291 67.7483Z" fill="black"/>
</g>
<defs>
<clipPath id="clip0_2063_106">
<rect width="140" height="200" fill="white"/>
</clipPath>
</defs>
</svg>
