<svg width="171" height="161" viewBox="0 0 171 161" fill="none" xmlns="http://www.w3.org/2000/svg">
<g clip-path="url(#clip0_2227_227)">
<path d="M131.275 123.611C131.325 123.692 131.385 123.773 131.445 123.823C131.635 123.985 131.825 123.985 132.015 123.833C138.724 118.741 141.433 111.239 138.624 103.049C136.154 95.8304 133.404 89.1486 133.654 81.0392C133.734 78.5386 133.564 76.6656 133.104 74.4485C132.914 73.5272 133.284 73.2943 134.214 73.7297C134.374 73.8107 134.504 73.922 134.614 74.0638C136.964 77.2731 139.694 80.4824 141.103 83.9853C142.553 87.5793 143.333 91.305 143.463 95.1825C143.593 99.0195 142.703 103.626 142.103 107.777C142.023 108.283 142.123 108.323 142.393 107.878C142.883 107.068 143.283 106.056 143.623 104.831C145.273 98.7563 146.213 92.6717 146.443 86.5771C146.543 84.1169 145.953 82.5477 144.193 80.6849C140.324 76.5644 130.895 65.9342 131.425 60.0218C131.505 59.1815 132.364 58.6753 133.114 59.0195C136.344 60.5077 138.504 62.6236 141.223 65.3571C143.493 67.6451 145.233 70.2065 146.473 73.0615C146.663 73.4968 146.743 73.4766 146.723 73.0008C146.513 69.2447 146.643 65.4584 145.233 61.9251C144.723 60.6191 144.913 59.2928 144.383 58.1387C142.783 54.6763 141.383 52.2364 140.174 50.7988C139.714 50.2622 138.544 49.5738 136.644 48.7234C132.774 47.0023 128.885 45.3318 124.975 43.7018C122.606 42.7097 120.516 41.4442 118.696 39.8952C118.316 39.5712 118.466 38.9638 118.946 38.8524C122.356 38.1134 126.075 37.5059 129.345 38.2146C132.145 38.8322 134.554 40.1483 136.564 42.1731C138.584 44.208 140.274 47.7717 142.103 50.4849C142.163 50.576 142.243 50.5862 142.323 50.5254C142.413 50.4546 142.423 50.3837 142.363 50.2926C140.813 48.2171 140.404 45.9392 139.414 43.6006C138.894 42.3958 138.124 41.3126 137.084 40.3407C134.424 37.8502 131.705 35.2584 128.495 33.8613C126.465 32.9805 123.845 32.2516 120.626 31.6644C114.857 30.6216 109.097 28.283 103.368 24.6687C103.058 24.4763 102.838 24.1726 102.758 23.8081C102.608 23.1703 102.878 22.7755 103.568 22.6338C106.588 21.9757 109.627 21.7327 112.697 21.8947C118.696 22.2085 123.775 24.5067 127.945 28.7993C128.385 29.2447 128.835 29.6902 129.305 30.1154C129.515 30.3078 129.585 30.2673 129.525 29.9838C129.175 28.5158 128.735 27.1794 128.185 25.9646C126.875 23.0387 125.645 20.0926 124.485 17.1162C122.456 11.8922 121.526 6.55681 121.716 1.08984C121.736 0.593763 122.286 0.320415 122.676 0.614011C128.475 4.87622 132.434 10.4343 134.524 17.2579C135.784 21.3682 136.554 26.2784 136.834 31.9985C136.834 32.2516 136.734 32.4034 136.484 32.4439C135.794 32.5755 135.294 32.7679 134.964 33.021C134.354 33.4968 134.224 34.3776 134.654 35.0256C136.014 37.02 137.244 38.8828 138.364 40.6039C138.424 40.695 138.504 40.7557 138.604 40.776C138.694 40.7962 138.764 40.776 138.834 40.7153C138.914 40.6444 138.944 40.5431 138.904 40.4419C138.434 39.1258 138.164 37.9514 138.084 36.9086C137.984 35.633 138.294 35.5318 138.994 36.5846C141.393 40.2192 142.923 44.2587 143.573 48.693C143.573 48.7031 143.593 48.7234 143.613 48.7234L143.813 48.693C143.933 48.6727 143.983 48.6019 143.963 48.4702C143.713 46.8504 143.533 45.2306 143.403 43.6107C143.273 42.0213 143.063 40.4115 142.763 38.7917C141.733 33.2437 141.483 27.6553 141.983 22.0061C142.103 20.6596 142.393 19.4447 142.843 18.3817C143.103 17.7843 143.893 17.6932 144.283 18.2096C146.763 21.51 148.583 26.8858 149.572 30.571C150.922 35.5925 150.432 41.4341 147.723 46.1012C146.543 48.1362 145.303 50.0496 145.933 52.6616C146.733 55.9924 147.803 59.1713 148.393 62.6742C148.933 65.8532 149.482 69.0321 150.052 72.201C150.312 73.6791 150.142 75.0863 149.942 76.4632C149.812 77.2933 150.012 77.3845 150.542 76.7365C153.112 73.5677 155.152 70.1357 159.031 68.0197C161.251 66.815 163.731 65.9139 166.48 65.3065C166.74 65.2559 167.01 65.347 167.18 65.5596C167.48 65.9342 167.47 66.3898 167.16 66.9365C165.081 70.652 162.491 73.9727 159.381 76.8681C156.482 79.5814 153.402 80.614 149.992 81.7479C149.672 81.8593 149.442 82.163 149.442 82.4971V90.9101C149.442 91.7707 149.662 91.8416 150.102 91.1025C150.982 89.6649 151.912 88.1665 152.872 86.5973C154.632 83.7322 157.082 81.6973 160.221 80.5027C163.231 79.3586 166.35 78.2754 169.59 77.263C169.91 77.1617 170.23 77.3237 170.37 77.6173C170.6 78.1235 170.51 78.8322 170.19 79.3384C167.51 83.5095 164.141 86.9112 160.051 89.5232C157.002 91.4771 153.442 92.4591 149.832 93.1273C149.252 93.2387 148.803 93.7145 148.733 94.3017C148.393 96.9339 147.973 99.3738 147.483 101.601C147.263 102.614 147.523 102.765 148.283 102.067C149.402 101.024 150.242 99.8395 150.792 98.5133C151.312 97.268 153.142 96.205 154.582 95.6482C158.071 94.2916 161.691 92.9046 165.421 91.5075C166.061 91.2746 166.67 91.9124 166.4 92.5502C164.541 96.9643 161.481 100.153 157.232 102.087C154.412 103.373 150.632 103.99 147.333 104.588C146.763 104.699 146.273 105.074 146.033 105.61C145.513 106.785 144.933 107.999 144.303 109.255C143.563 110.733 142.093 112.616 141.383 114.61C141.293 114.874 141.363 114.934 141.603 114.793C142.093 114.499 142.693 113.983 143.403 113.264C145.503 111.128 148.303 109.933 151.452 109.154C155.772 108.08 160.081 107.088 164.391 106.167C164.981 106.046 165.431 106.693 165.111 107.21C160.931 113.952 154.822 117.779 146.773 118.701C145.043 118.893 143.313 119.095 141.603 119.288C139.594 119.51 137.504 121.485 135.954 123.216C135.794 123.398 135.824 123.469 136.064 123.408C138.954 122.781 141.673 122.791 144.203 123.428C148.363 124.481 152.442 125.646 156.472 126.901C156.882 127.023 156.942 127.579 156.572 127.792C152.902 129.958 149.132 131.558 144.823 131.872C141.973 132.074 139.554 131.993 137.544 131.619C135.424 131.224 133.384 131.011 131.435 130.981C130.695 130.961 129.895 130.93 129.065 130.87C128.185 130.809 127.285 130.981 126.375 131.386C126.065 131.528 126.075 131.619 126.425 131.659C127.155 131.75 127.845 131.669 128.515 131.437C128.745 131.356 128.995 131.325 129.245 131.366C135.284 132.277 140.843 134.322 145.903 137.501C146.263 137.724 146.193 138.27 145.793 138.392C143.203 139.222 140.683 139.829 138.214 140.224C135.984 140.579 132.784 139.394 130.245 138.159C127.225 136.681 124.445 135.81 121.306 135.719C120.426 135.699 120.386 135.881 121.166 136.286C122.146 136.792 123.256 137.116 124.455 137.268C129.155 137.815 132.304 140.346 133.914 144.871C134.054 145.276 133.934 145.549 133.534 145.701C133.214 145.823 132.774 145.833 132.204 145.722C127.175 144.729 123.266 142.401 118.986 139.84C117.426 138.908 115.876 138.615 114.337 138.949C112.817 139.283 112.817 139.597 114.337 139.9C120.916 141.186 124.875 145.266 126.225 152.15C126.305 152.596 125.915 152.991 125.475 152.9C119.096 151.523 114.217 147.473 109.717 142.897C107.957 141.105 106.518 140.265 104.168 140.143C103.008 140.093 102.968 140.285 104.038 140.741C111.257 143.768 114.077 152.252 112.477 159.895C112.357 160.482 111.617 160.675 111.237 160.209C104.328 151.998 99.5383 141.014 87.4698 140.174C86.7398 140.123 86.3999 139.738 86.4599 138.999L86.4999 138.442C86.5399 137.754 87.1098 137.238 87.7797 137.228H97.7186C98.0085 137.228 98.2785 137.025 98.3385 136.731C100.218 129.159 101.378 122.781 108.487 118.366C108.677 118.255 108.917 118.387 108.917 118.599C109.057 121.849 109.017 125.139 108.797 128.46C108.527 132.702 106.398 133.998 103.868 136.742C103.678 136.944 103.728 137.076 104.008 137.116C105.438 137.319 106.797 137.197 108.197 137.197C109.017 137.197 109.497 136.731 109.617 135.8C110.307 130.637 110.187 125.433 110.477 120.331C110.557 119.014 111.397 117.303 112.917 117.405C113.657 117.455 114.137 117.972 114.337 118.964C114.807 121.232 115.186 123.52 115.456 125.808C115.946 129.786 114.417 131.933 112.947 135.344C112.867 135.527 113.037 135.719 113.227 135.668C115.566 134.98 119.076 133.431 118.616 130.374C117.756 124.664 117.076 117.82 118.406 112.16C119.206 108.759 120.026 105.317 120.876 101.834C120.986 101.389 121.516 101.186 121.886 101.459C124.205 103.15 125.815 105.226 126.675 108.091C128.635 114.55 128.365 123.084 123.416 128.237C122.406 129.29 121.386 130.374 120.376 131.487C120.086 131.801 120.146 131.912 120.566 131.831C121.746 131.588 122.886 131.032 123.965 130.171C126.535 128.136 128.985 125.929 131.285 123.54L131.275 123.611Z" fill="black"/>
<path d="M24.0572 71.7857C24.6372 70.4493 25.3671 69.2547 26.247 68.2018C28.1967 65.8935 35.1759 58.4827 38.2056 59.1408C38.7555 59.2522 39.0955 59.7989 38.9855 60.3557C38.6555 61.9553 37.9756 63.7067 36.9357 65.61C34.346 70.3582 32.0263 73.7295 29.9565 75.7138C28.2867 77.3337 26.6969 78.8725 25.1871 80.3506C23.7973 81.7174 23.5573 83.0537 23.6873 84.8862C24.0272 89.6445 24.1172 94.4331 25.2971 99.1509C26.177 102.684 27.6268 106.056 29.1366 109.366C29.1766 109.447 29.2366 109.477 29.3266 109.447C29.4066 109.417 29.4366 109.356 29.4166 109.265C26.9569 100.011 23.9073 89.3711 29.3966 80.4822C30.7464 78.2853 33.2362 76.139 35.0759 73.9421C35.2959 73.6586 35.7259 73.6485 35.9758 73.9016C36.1558 74.094 36.1958 74.3977 36.0858 74.8128C35.6959 76.2808 35.5359 77.5564 35.8059 79.156C36.9557 86.3744 35.4559 92.1755 33.0262 99.89C32.0763 102.887 30.9764 107.088 31.0364 110.591C31.1164 115.329 34.356 119.723 38.0156 122.456C38.8655 123.084 38.9755 122.983 38.3356 122.132C37.7856 121.383 37.0857 120.411 36.2358 119.227C34.866 117.303 34.716 113.922 34.626 111.107C34.406 104.102 36.4158 97.8146 40.6653 92.2463C40.8853 91.9528 41.3552 92.0641 41.4252 92.4286C42.3151 97.1059 42.5451 101.834 42.1351 106.602C41.7952 110.51 40.4253 115.451 39.9154 119.996C39.5554 123.155 43.8749 126.648 46.2946 128.298C47.3245 129.007 47.5145 128.824 46.8646 127.751C44.6148 124.036 42.3351 118.387 43.175 113.75C43.9749 109.326 45.3047 105.256 48.6243 102.036C48.9443 101.722 49.4742 101.884 49.5842 102.32C50.2942 105.094 51.0541 107.979 51.854 110.996C52.4339 113.152 52.7339 115.268 52.7539 117.354C52.7839 120.826 52.7139 124.329 52.5439 127.883C52.4939 128.997 51.924 129.442 50.8341 129.199L50.2642 129.067C50.0242 129.017 49.9242 129.108 49.9442 129.361C49.9942 129.766 50.1142 130.049 50.2941 130.232C52.3139 132.186 54.3137 133.654 56.3034 134.615C57.3733 135.142 57.5733 134.909 56.8834 133.927C55.3036 131.669 54.5736 129.047 54.7036 126.05C54.8236 123.287 54.9336 120.513 55.0136 117.739C55.0336 117.273 55.1636 116.827 55.4135 116.423C55.7235 115.916 56.4334 115.866 56.8034 116.331C58.1232 117.992 59.673 119.237 59.853 121.657C59.893 122.193 59.853 123.003 59.753 124.066C59.4431 127.225 59.6431 130.373 60.353 133.502C61.1129 136.833 63.1326 137.956 66.4223 136.873C66.6822 136.792 66.7322 136.458 66.5122 136.296C59.973 131.578 60.9229 125.18 60.9929 118.083C60.9929 117.85 61.2429 117.698 61.4528 117.809C68.0021 121.363 70.9717 128.612 72.7215 135.658C72.8115 136.012 73.1315 136.266 73.4914 136.276L82.6203 136.569C83.5702 136.6 84.0902 137.096 84.1802 138.047C84.1802 138.189 84.2002 138.321 84.2202 138.452C84.3001 139.04 83.8402 139.556 83.2503 139.546C80.9805 139.495 78.7408 139.667 76.5611 140.072C72.9115 140.74 70.3018 144.8 68.0021 148.384C65.4824 152.292 62.9027 156.281 60.253 160.351C60.113 160.553 59.853 160.624 59.6431 160.502C59.4231 160.381 59.2631 160.128 59.1731 159.753C58.4432 156.939 58.5232 153.902 58.8231 151.077C59.3931 145.711 62.4827 143.585 66.2123 140.518C66.4323 140.325 66.4123 140.254 66.1223 140.285C62.7827 140.69 59.663 143.707 57.3833 145.944C55.0536 148.212 53.6038 149.548 53.0238 149.963C50.9741 151.381 48.7443 152.403 46.3346 153.021C46.0447 153.102 45.9147 152.98 45.9447 152.687C46.1346 150.976 46.5046 149.336 47.0645 147.756C47.6245 146.167 48.5244 144.8 49.7642 143.646C51.9939 141.591 54.5436 140.103 57.4033 139.202C57.8333 139.07 57.8433 138.908 57.4133 138.736C55.3336 137.885 52.3039 139.475 50.7841 140.761C47.3845 143.626 43.5649 145.418 39.3454 146.116C38.7455 146.217 38.2456 145.681 38.3756 145.073C39.0855 141.824 40.3553 140.832 43.435 139.333C45.2147 138.473 46.9545 137.521 48.6443 136.488C49.7642 135.81 50.8141 135.689 52.0439 135.506C52.1139 135.506 52.1339 135.466 52.1239 135.395L52.0939 135.192C52.0939 135.142 52.0539 135.111 51.9939 135.111C49.7842 135.253 47.1945 136.104 44.2449 137.653C42.2451 138.705 39.8454 139.434 37.0157 139.829C35.7359 140.011 34.316 140.022 32.7662 139.86C30.5865 139.637 27.7268 139.809 25.937 138.361C25.767 138.23 25.777 137.956 25.937 137.825C30.2065 134.615 34.936 132.52 40.1353 131.578C40.2353 131.568 40.3053 131.477 40.3053 131.376V131.133C40.3053 131.133 40.3053 131.072 40.2553 131.082C38.4655 131.264 36.7657 131.214 34.966 131.548C27.9468 132.894 21.3776 131.821 15.2483 128.318C14.6983 128.004 14.7883 127.164 15.4083 126.992C17.458 126.405 19.5078 125.797 21.5675 125.17C26.097 123.803 29.7366 123.368 34.136 123.641C34.866 123.692 34.956 123.469 34.396 122.993L30.8564 119.966C30.2665 119.47 29.5366 119.196 28.7667 119.186C20.2977 119.105 13.1185 116.888 7.48919 110.216C6.59929 109.164 5.86938 108.546 5.47942 107.129C5.37944 106.774 5.6794 106.42 6.04936 106.481C10.5888 107.159 15.1283 108.151 19.6878 109.437C23.3373 110.459 26.367 112.272 28.7667 114.843C29.1066 115.208 29.1566 115.167 28.9067 114.742C27.5268 112.262 26.197 109.67 24.9271 106.957C24.3372 105.691 23.2873 104.871 21.7775 104.476C20.0177 104.021 18.2479 103.575 16.4881 103.13C10.9188 101.733 6.77927 98.2904 4.07959 92.8133C3.85962 92.3678 4.13958 91.8211 4.62952 91.7604C5.54942 91.6389 6.5593 91.7604 7.69916 92.135C10.7788 93.1474 13.7884 94.3319 16.7481 95.6683C17.638 96.0732 18.4779 96.5693 19.2578 97.1767C19.4578 97.3286 19.5978 97.521 19.6878 97.7639C20.3177 99.404 21.4275 101.996 23.0674 102.816C23.2273 102.887 23.3873 102.745 23.3273 102.573C21.2176 96.6908 21.6575 90.1709 20.8176 84.2686C20.6976 83.3676 20.1577 82.5982 19.3778 82.1628C16.6581 80.6544 13.6485 79.0345 11.3787 77.1008C8.82903 74.9343 3.55965 69.5989 4.04959 65.9441C4.07959 65.691 4.21957 65.5797 4.46954 65.61C9.36897 66.177 13.4285 68.2322 16.6281 71.7655C18.0379 73.3246 19.1578 75.6126 20.3377 77.4957C20.6476 77.9917 20.8076 77.9411 20.8276 77.364C20.8976 75.4304 20.7876 73.4157 20.9776 71.5225C21.6775 64.7596 23.0574 58.1385 25.1471 51.6592C25.3371 51.0618 25.1671 50.2418 24.6272 49.2091C23.6273 47.3159 22.6574 45.4025 22.1775 43.3372C20.1077 34.4382 22.8674 26.3187 27.2269 18.8472C27.4868 18.4017 28.0468 18.2296 28.4967 18.4625C28.9267 18.665 29.2366 19.1408 29.4366 19.8596C29.7566 21.0239 29.9965 22.2185 30.1265 23.4435C30.8364 29.852 30.6865 36.1188 29.6666 42.2438C29.4366 43.6004 29.6866 43.7017 30.4165 42.5273C31.7463 40.3911 33.6361 38.4271 36.0858 36.625C36.9057 36.0277 37.4057 35.3494 37.7856 34.4888C37.8856 34.2762 37.7156 34.0434 37.4957 34.0535L35.4159 34.1648C35.1359 34.175 34.9959 34.0535 35.0059 33.77C35.2459 21.1555 36.7457 10.1203 47.0145 1.82873C47.3945 1.52501 47.7844 1.33265 48.2144 1.24154C48.8843 1.0998 49.1943 1.38327 49.1343 2.08183C48.7043 7.38682 48.1544 12.793 46.3846 17.7133C44.4548 23.0487 42.745 27.3716 41.2252 30.6721C41.0252 31.1074 40.7553 31.5225 40.4053 31.8971C40.3653 31.9477 40.3653 31.9983 40.4053 32.0388C40.4053 32.0388 40.4953 32.0793 40.5453 32.0388C42.745 29.8621 44.7248 27.402 47.2645 25.8429C52.8638 22.4007 59.1031 21.3883 65.9923 22.8057C66.8622 22.9778 67.6021 23.241 68.212 23.5751C68.512 23.7371 68.532 24.1623 68.252 24.3547C61.4328 28.9915 54.1137 31.8363 46.3046 32.8993C45.2347 33.0411 43.9749 33.4967 42.5151 34.2661C40.2553 35.4506 38.2556 37.6171 36.1358 39.318C33.7661 41.2213 32.3563 42.9727 30.9664 45.4329C30.7964 45.7265 30.6865 46.0504 30.6465 46.3947C30.6165 46.6781 30.6865 46.7085 30.8564 46.4858C35.1759 40.8872 40.8353 38.2448 47.8244 38.5688C49.9942 38.6802 51.284 38.67 52.9338 39.4293C53.2238 39.5711 53.2738 39.9659 53.0138 40.1583C48.7743 43.5194 44.7748 44.9571 38.9655 46.9312C35.2359 48.1866 30.6965 50.0798 28.3167 53.2891C27.1769 54.828 26.387 56.4681 25.927 58.2296C25.757 58.908 25.867 58.9586 26.277 58.4018C30.3365 52.8842 35.6259 49.5736 42.1751 48.4802C43.015 48.3385 43.6449 49.2395 43.245 49.9988C41.5852 53.0765 39.1455 55.3645 35.8858 57.035C32.7262 58.6346 29.5066 59.971 26.217 61.0542C25.6271 61.2567 25.1571 61.7224 24.9771 62.3197C24.0372 65.3063 24.1872 68.5561 23.9073 71.7857C23.8873 72.0692 23.9273 72.0793 24.0472 71.8262L24.0572 71.7857Z" fill="black"/>
<path d="M111.747 8.05452C117.196 10.3122 123.066 15.0097 124.125 21.2664C124.165 21.5093 123.935 21.7017 123.706 21.6511C117.726 20.1021 112.627 18.8366 107.317 14.5845C104.208 12.1041 101.138 9.67437 98.0985 7.31547C97.8286 7.11299 97.6886 6.7789 97.7186 6.43468C97.7586 5.90823 98.0385 5.65513 98.5585 5.65513C103.408 5.62476 107.817 6.42456 111.747 8.06465V8.05452Z" fill="black"/>
<path d="M47.1145 21.1047C48.3544 18.1789 49.6742 15.9819 51.0541 14.5038C56.6834 8.49017 64.1925 6.55648 72.1016 5.91867C72.5415 5.87817 72.9615 6.06041 73.2514 6.38438C73.5414 6.72859 73.4114 7.10318 72.8615 7.51827C69.6119 9.91766 66.4222 12.3778 63.2626 14.8987C58.1032 19.0192 53.5538 20.4163 47.7344 21.8438C47.0345 22.0159 46.8345 21.7729 47.1145 21.1047Z" fill="black"/>
<path d="M14.2884 54.0279C10.7988 48.1053 10.5488 41.7171 12.9885 35.2276C13.5185 33.8203 14.1684 33.7596 14.9283 35.0555C18.4479 40.978 20.5376 47.346 21.1776 54.1494C21.3475 55.9818 21.0976 57.7231 20.4377 59.3835C20.3577 59.586 20.1077 59.6771 19.9177 59.5556C17.468 58.0775 15.5782 56.2349 14.2884 54.0279Z" fill="black"/>
<path d="M153.882 38.0825C154.312 37.0195 154.832 36.0577 155.462 35.1971C156.052 34.3872 157.302 34.5998 157.582 35.5717C160.381 45.2908 158.961 54.0278 150.602 60.3654C150.462 60.4667 150.282 60.3857 150.252 60.2237C149.362 54.9288 149.642 50.0693 151.102 45.6552C151.902 43.2356 152.822 40.7147 153.882 38.0825Z" fill="black"/>
<path d="M143.873 60.5277C140.384 59.2521 126.785 54.0078 127.985 48.8547C128.115 48.2878 128.685 47.9233 129.255 48.0347C136.344 49.452 141.463 52.8233 144.333 60.0417C144.453 60.3353 144.173 60.6289 143.873 60.5176V60.5277Z" fill="black"/>
<path d="M20.3977 70.7836C19.1478 71.6847 15.7982 69.0828 12.9085 64.9623C10.0289 60.852 8.69904 56.7922 9.94889 55.8912C11.1987 54.9902 14.5484 57.592 17.438 61.7125C20.3177 65.8229 21.6475 69.8826 20.3977 70.7836Z" fill="black"/>
<path d="M161.601 56.8629C160.531 62.5425 157.272 67.3818 152.462 70.4291C152.062 70.6822 151.822 71.0669 151.462 71.3808C151.262 71.5529 151.102 71.5225 150.972 71.2897C148.353 66.5921 155.642 59.5661 158.841 56.782C159.271 56.3972 159.891 56.134 160.691 55.9619C161.221 55.8505 161.701 56.3162 161.601 56.8629Z" fill="black"/>
<path d="M3.28965 77.3846L13.3285 81.2925C13.6584 81.4241 13.9484 81.6367 14.1784 81.9101L20.4976 89.6954C21.8875 91.4064 20.0277 93.8159 18.0479 92.8946L9.05897 88.6628C8.839 88.5615 8.63902 88.4198 8.47904 88.2477L1.10991 80.7863C-0.449909 79.2069 1.22989 76.5848 3.28965 77.3846Z" fill="black"/>
<path d="M131.275 123.611C131.405 122.558 131.405 121.789 131.295 121.323C129.645 114.53 128.255 107.19 128.685 100.153C128.845 97.5111 129.075 94.9194 129.375 92.358C129.425 91.9125 129.925 91.6695 130.305 91.9125C130.875 92.2871 131.325 92.7123 131.645 93.2084C135.684 99.3638 137.304 106.086 136.534 113.355C136.064 117.729 133.794 120.29 131.275 123.601V123.611Z" fill="black"/>
</g>
<defs>
<clipPath id="clip0_2227_227">
<rect width="170" height="160" fill="white" transform="translate(0.5 0.542969)"/>
</clipPath>
</defs>
</svg>
