<svg width="126" height="101" viewBox="0 0 126 101" fill="none" xmlns="http://www.w3.org/2000/svg">
<g clip-path="url(#clip0_2227_239)">
<path d="M83.7536 46.3582C82.2446 48.1348 80.7723 49.6092 79.3461 50.7722C79.2265 50.8637 79.0517 50.8729 78.9321 50.7905C78.7481 50.6714 78.6468 50.4791 78.6376 50.2044C78.4352 43.2813 78.1868 36.0103 79.3093 29.426C79.8706 26.1202 80.6343 22.8509 81.5913 19.6275C81.7569 19.0689 81.9593 18.6476 82.217 18.3821C82.5666 18.0066 83.1923 18.144 83.3395 18.6293C84.4253 22.0634 85.3638 25.5707 86.1643 29.1421C87.0016 32.8601 86.9924 36.8711 86.1459 41.1751C85.7503 43.2172 84.9497 44.9388 83.7444 46.3582H83.7536Z" fill="black"/>
<path d="M124.874 21.221C123.844 20.9188 122.666 20.8455 121.359 21.0195C115.756 21.7521 109.858 23.1715 104.871 25.8821C103.702 26.514 102.635 27.0268 101.65 27.4114C101.365 27.5213 101.319 27.4481 101.494 27.21C102.239 26.1843 103.113 25.0763 104.116 23.9133C110.014 17.0543 111.174 9.43525 107.613 1.07444C107.318 0.369317 106.315 0.351002 105.993 1.04697C102.846 7.87847 101.006 15.0946 100.463 22.7136C100.307 24.8382 100.003 26.5964 98.761 28.0616C97.0311 30.1129 95.2369 32.7136 93.3598 35.8547C93.231 36.0744 93.1482 36.0561 93.1206 35.7997C93.0561 35.1495 93.1206 34.5268 93.323 33.9316C95.5221 27.155 96.0466 20.0488 94.8872 12.6312C94.8412 12.329 94.6848 12.0818 94.4455 11.8895C94.1051 11.6239 93.6082 11.7338 93.4058 12.1184C90.5534 17.5671 89.3112 23.3364 89.6701 29.4353C89.8265 32.1276 89.9921 34.8199 90.1669 37.503C90.4246 41.4408 88.2899 44.188 85.7595 47.0451C83.0359 50.1312 81.2324 52.2832 80.3399 53.5195C77.2023 57.8785 74.2946 64.1972 70.4485 69.2979C69.8412 70.1038 69.74 70.0488 70.1449 69.1147C70.9454 67.2741 72.0495 65.3785 72.6476 63.5103C74.6535 57.2375 74.9295 50.8547 73.4757 44.3437C73.3193 43.6477 73.0985 43.0525 72.8132 42.5763C72.5648 42.155 71.9667 42.155 71.7183 42.5763C67.7525 49.188 64.8449 56.1202 62.9954 63.3638C62.1581 66.6514 62.1765 69.9389 63.0782 73.199C63.6395 75.2503 64.6149 76.1294 62.9494 78.2722C62.2869 79.1147 61.6336 79.9847 60.9895 80.873C60.8607 81.0378 60.6215 81.0378 60.5019 80.873C58.772 78.6386 57.0698 76.3766 55.3951 74.0964C54.6958 73.1532 54.4198 72.2924 54.8707 71.0928C58.2843 61.9536 49.8927 48.0067 45.9822 39.4902C45.8534 39.2155 45.5313 39.0781 45.2461 39.1697C45.0436 39.2429 44.924 39.4261 44.8872 39.7374C44.7308 41.1752 44.4272 42.7777 43.9763 44.5543C42.5869 50.0763 42.9365 58.7393 46.7183 63.4371C48.4113 65.5433 50.0124 67.7961 51.5122 70.1587C51.5582 70.2411 51.549 70.3144 51.4754 70.3785L51.3189 70.5067C51.3189 70.5067 51.2545 70.5342 51.2269 70.5067C48.1721 67.5854 45.8626 65.1495 44.2799 63.1898C42.0624 60.4426 39.8449 56.981 37.5998 52.8144C36.5968 50.9554 35.3638 48.9957 33.91 46.9536C31.9962 44.2521 30.6988 42.3657 30.0363 41.2851C27.9292 37.8693 28.8493 33.1715 29.3554 29.3437C29.7878 26.0103 29.9535 23.6385 29.8338 22.2191C29.567 18.9407 28.6561 15.8089 27.1379 12.8144C27.1195 12.7777 27.0458 12.5946 26.9354 12.2741C26.7882 11.8712 26.4846 11.6972 26.0245 11.7613C25.7945 11.7887 25.6196 11.9627 25.592 12.1825C25.2792 14.4353 24.9664 16.5781 24.6719 18.6111C24.129 22.2832 24.5431 26.6972 25.9233 31.8528C26.0429 32.3016 26.0705 32.7594 25.9969 33.2356C25.9325 33.7301 25.7945 33.7484 25.592 33.2906C25.0032 31.9353 24.267 30.5708 23.3929 29.2063C22.6844 28.0983 22.0587 26.9627 21.5251 25.7722C21.0374 24.71 20.7245 23.4554 20.5681 22.0268C20.1449 18.0799 20.016 13.8583 19.0499 10.232C18.2862 7.3565 17.2924 4.56346 16.0503 1.84368C15.7834 1.24844 15.4154 1.17518 14.9553 1.58727C14.8817 1.65137 14.8265 1.71547 14.7805 1.80705C13.6303 4.21547 12.9126 6.73379 12.6182 9.33452C12.1857 13.2539 13.3635 17.2191 15.0841 20.7448C16.1239 22.8785 18.1022 24.71 19.4916 26.6972C19.6572 26.9261 19.6112 26.981 19.3535 26.862C17.6605 26.0103 15.765 24.4353 14.6149 23.7393C10.4559 21.2301 6.04843 19.5085 1.40176 18.5561C0.803673 18.4279 0.306801 19.0415 0.564438 19.6001C1.88023 22.4389 4.94427 24.8382 7.53904 26.3217C8.6432 26.9627 10.2902 27.5396 12.4894 28.0525C14.8449 28.6111 17.2004 29.1422 19.5652 29.6642C20.927 29.9572 21.9207 30.7356 22.574 31.981C22.6844 32.1917 22.62 32.2741 22.39 32.2191C17.9825 31.2484 13.4923 30.8547 8.91004 31.0287C8.53279 31.047 8.21994 31.3309 8.18314 31.7063C8.15553 31.9627 8.33956 32.2283 8.74442 32.5122C14.0812 36.2301 19.8228 39.1697 25.9509 41.3309C26.4938 41.5232 27.3679 42.0085 27.6531 42.3473C29.7142 44.7558 31.6465 47.1092 33.4132 49.3895C33.9928 50.1312 33.91 50.2136 33.1555 49.6459C29.1806 46.6147 24.6259 44.5726 19.4824 43.5287C16.9704 43.0158 14.9277 42.732 13.3543 42.677C11.4404 42.6038 9.37011 42.7961 7.13418 43.2356C6.30606 43.4005 5.79999 43.7942 5.60676 44.4078C5.53315 44.6367 5.58836 44.8199 5.78159 44.9664C11.8637 49.8473 17.9457 53.3272 24.0278 55.3968C25.638 55.9462 29.383 57.0268 35.2626 58.6294C37.7378 59.307 39.6977 60.9096 41.1331 63.4279C41.2435 63.6294 41.1791 63.7393 40.9583 63.7484C39.1364 63.8492 37.3789 63.8034 35.5571 64.0323C32.263 64.4444 28.9689 64.5543 25.6564 64.3712C24.5155 64.307 23.1721 63.7301 22.0403 63.7851C21.1478 63.8309 21.065 64.1147 21.7919 64.6276C23.0985 65.5433 24.4419 66.5415 25.8405 67.6221C31.0392 71.6239 36.7808 73.7759 43.0654 74.069C45.4393 74.1788 47.896 74.188 50.4448 74.0873C51.8802 74.0323 52.7635 74.6825 53.6101 75.7723C55.4503 78.1257 57.2538 80.4701 59.0297 82.7869C59.1769 82.9792 59.1769 83.2356 59.0297 83.4188C56.6465 86.395 53.0764 91.2851 52.9568 94.8016C52.6991 102.421 69.0039 103.226 66.5011 92.8785C65.9122 90.4701 64.7713 87.7228 63.069 84.6367C62.655 83.8858 62.6274 83.1715 62.977 82.4847C64.0444 80.406 65.4246 78.5195 67.0992 76.8254C67.2556 76.6697 67.4581 76.5873 67.6881 76.6056C77.4507 77.1917 86.2748 74.6642 94.1327 68.9957C95.0252 68.3547 96.203 67.8876 97.6568 67.5946C97.8408 67.558 97.9512 67.3931 97.9144 67.21L97.8776 66.9994C97.804 66.6605 97.5924 66.5049 97.2519 66.5323C93.6358 66.7979 90.1485 66.8254 86.79 66.6239C82.6862 66.3675 77.0182 65.7539 73.5769 67.9884C73.5217 68.025 73.4757 68.025 73.4389 67.9884C73.4021 67.9426 73.3653 67.8876 73.3469 67.8144C73.3285 67.7686 73.3377 67.7228 73.3653 67.6862C74.8927 65.8455 76.3373 63.9407 77.7083 61.981C78.7941 60.4334 80.0915 59.3803 81.8581 59.1972C86.0631 58.7668 90.0105 58.1166 93.7002 57.2283C101.696 55.3144 108.974 51.4408 115.691 46.7063C116.151 46.3858 116.105 45.6898 115.599 45.4334C114.615 44.9298 113.382 44.6001 111.91 44.4353C105.469 43.6935 99.037 44.7283 92.9549 47.0635C90.1853 48.1257 88.2439 49.4444 85.9987 51.34C83.91 53.1074 83.7076 52.9151 85.373 50.7448C87.0293 48.5928 88.8787 46.2759 90.9122 43.8034C92.0072 42.4664 93.2862 41.6331 94.7308 41.3034C101.319 39.8016 107.576 37.0635 113.501 33.0708C114.725 32.2558 114.596 31.7887 113.124 31.6972C109.554 31.4591 105.855 31.7246 102.037 32.503C99.7455 32.9701 97.666 33.8766 95.7797 35.232C95.5957 35.3602 95.5681 35.3327 95.6877 35.1404C97.896 31.5873 101.144 29.4994 105.414 28.8583C112.581 27.7961 118.709 26.6147 125.086 22.8602C125.739 22.4664 125.62 21.4957 124.884 21.2851L124.874 21.221ZM64.302 94.3254C64.5596 95.7265 64.2468 96.8254 63.3727 97.6312C61.3116 99.536 56.8581 98.2539 55.6804 95.8455C54.5394 93.5012 58.9744 87.7869 60.373 85.7997C60.5387 85.5616 60.8883 85.5799 61.0263 85.8272C62.5077 88.3913 63.8143 91.688 64.302 94.3254Z" fill="black"/>
</g>
<defs>
<clipPath id="clip0_2227_239">
<rect width="125" height="100" fill="white" transform="translate(0.5 0.542969)"/>
</clipPath>
</defs>
</svg>
