<svg width="141" height="141" viewBox="0 0 141 141" fill="none" xmlns="http://www.w3.org/2000/svg">
<g clip-path="url(#clip0_2244_559)">
<path d="M27.5939 2.29617C27.8673 1.73471 28.2188 1.2225 28.6581 0.749694C29.078 0.316288 29.8103 0.601942 29.8103 1.2028C29.9177 6.98483 20.984 13.8405 16.4049 16.5099C16.0143 16.7365 15.6531 16.6971 15.3113 16.4114L15.1063 16.244C14.9403 16.0962 14.9403 15.8303 15.1063 15.6924C20.1541 11.5257 24.987 7.76299 27.5939 2.29617Z" fill="black"/>
<path d="M35.1119 7.86191C37.2794 3.4392 43.118 1.06532 47.7753 0.888018C48.1463 0.878167 48.488 1.09487 48.6247 1.43963C48.7321 1.71543 48.693 1.95183 48.5173 2.16854C48.4099 2.29659 48.2146 2.39509 47.9315 2.45419C43.7527 3.42935 39.7008 4.50302 36.9963 7.85206C36.6545 8.27562 36.2152 8.46277 35.6782 8.43322C35.6001 8.43322 35.522 8.43322 35.4341 8.42337C35.0533 8.40367 34.9459 8.21652 35.1119 7.87177V7.86191Z" fill="black"/>
<path d="M104.355 8.512C103.701 9.34926 102.442 9.45761 101.534 8.73855C100.616 8.01949 100.411 6.76852 101.065 5.92141C101.719 5.08415 102.979 4.9758 103.887 5.69486C104.795 6.41392 105 7.66489 104.355 8.512Z" fill="black"/>
<path d="M114.851 8.60075C114.832 9.34936 114.197 9.93052 113.455 9.91082L113.035 9.89112C112.293 9.86157 111.707 9.23116 111.737 8.48255L111.776 7.33009C111.795 6.58148 112.43 6.00032 113.172 6.02002L113.592 6.03972C114.334 6.06927 114.919 6.69968 114.89 7.44829L114.851 8.60075Z" fill="black"/>
<path d="M64.6174 8.73799C64.4221 9.86091 63.2212 10.5997 61.9129 10.3633C60.6144 10.1367 59.7161 9.04335 59.9114 7.91058C60.1066 6.78767 61.3076 6.04891 62.6159 6.28531C63.9144 6.51186 64.8127 7.60523 64.6174 8.73799Z" fill="black"/>
<path d="M124.048 12.6193C124.537 13.5846 124.087 14.8158 123.033 15.3576C121.979 15.8994 120.729 15.5546 120.241 14.5794C119.752 13.6141 120.202 12.3829 121.256 11.8411C122.31 11.2993 123.56 11.6441 124.048 12.6193Z" fill="black"/>
<path d="M34.1551 83.5505C32.7003 80.7531 31.6849 78.4679 31.1088 76.7146C27.0667 64.2147 29.7419 50.129 41.3508 42.8301C50.2357 37.2549 61.9129 38.102 68.6108 46.6421C74.0588 53.5963 75.5917 63.5055 70.0948 71.0409C67.3317 74.8233 61.7079 77.2859 57.0116 77.0987C49.5913 76.8032 44.0456 71.0803 44.4264 63.4858C44.6802 58.4918 48.7711 52.5325 54.4243 54.4828C59.0327 56.0687 59.267 61.7916 56.6211 65.249C55.8693 66.234 54.1216 66.7167 53.1452 65.8301C51.7881 64.6087 52.823 61.5355 53.2819 59.9102C53.5358 59.0237 53.2038 58.6592 52.3056 58.8267C51.7198 58.935 51.2804 59.2207 50.9777 59.6837C48.5075 63.5548 48.5075 67.1402 50.9777 70.4203C54.8539 75.5916 63.3579 74.2717 67.2731 69.6126C72.8091 63.0327 69.7726 51.0845 63.2212 46.1299C53.194 38.5551 39.8668 43.7264 34.7116 54.5517C31.558 61.1809 31.2553 68.076 33.8036 75.2469C35.932 81.2653 40.9896 87.7073 46.7696 90.2191C53.6236 93.2037 60.4191 93.1741 67.1462 90.1403C77.5347 85.4516 84.3887 77.4533 87.7278 66.1257C87.8059 65.8794 87.9524 65.7021 88.177 65.574C88.4992 65.4066 88.8409 65.3278 89.1924 65.3672C89.5927 65.4066 89.8954 65.2687 90.1199 64.9338L90.2664 64.7269C90.5202 64.3526 90.4226 64.1261 89.9832 64.0473L88.6066 63.8207C88.3332 63.7715 88.1965 63.6237 88.177 63.3479C88.0793 61.8605 88.2063 59.2404 89.6513 58.413C89.8661 58.2948 89.9832 58.1076 89.993 57.8712C90.0418 57.1817 89.6708 56.5612 89.5829 55.9997C89.2119 53.5667 88.8116 51.1534 88.4113 48.7402C87.3178 42.2194 84.3399 36.7427 79.4874 32.3298C79.0187 31.9063 79.1066 31.138 79.6534 30.8228C83.1975 28.7936 88.4601 38.5256 89.4365 41.0866C97.4328 62.1659 86.3707 87.9733 64.5784 94.9472C60.4777 96.2572 56.4356 96.6512 52.452 96.1193C44.2018 95.026 35.19 91.017 30.0055 84.2696C23.2199 75.4439 19.1582 65.4361 17.8108 54.2267C16.1803 40.6729 22.8879 27.0108 32.9639 18.5889C35.5903 16.3923 38.3241 14.9049 41.1556 14.0972C41.5852 13.9692 41.9952 14.3336 41.9366 14.7867C41.8976 15.1019 41.7023 15.358 41.3704 15.5649C37.8164 17.86 34.3308 20.0172 31.6068 22.7949C22.0775 32.4776 18.6798 46.1693 21.8334 59.4177C22.6048 62.6486 23.2296 65.4854 24.4208 68.2139C24.8406 69.1989 24.9968 69.1496 24.8601 68.0858C24.0498 61.6044 23.8838 56.049 26.93 50.001C27.2425 49.3706 27.7599 49.0849 28.4629 49.1637C28.7265 49.1834 28.9413 49.3312 29.1171 49.5971C29.3123 49.8828 29.3416 50.2275 29.2245 50.5427C26.1294 58.344 25.9732 66.303 28.746 74.4293C29.9567 77.9852 31.7142 81.0486 33.9989 83.6195C34.282 83.9347 34.3308 83.9052 34.1355 83.5308L34.1551 83.5505Z" fill="black"/>
<path d="M54.4243 17.6523C54.0142 18.5585 52.7644 18.854 51.6221 18.332C50.4798 17.8099 49.8744 16.6574 50.2747 15.7611C50.6848 14.8549 51.9345 14.5594 53.0769 15.0814C54.2192 15.6035 54.8246 16.7559 54.4243 17.6523Z" fill="black"/>
<path d="M65.6328 19.5336C65.6231 20.0458 65.1935 20.4497 64.6955 20.43L63.6118 20.4004C63.1041 20.3906 62.7038 19.967 62.7233 19.4548L62.7526 18.1842C62.7623 17.672 63.1919 17.2681 63.6899 17.2878L64.7736 17.3174C65.2813 17.3272 65.6816 17.7508 65.6621 18.263L65.6328 19.5336Z" fill="black"/>
<path d="M77.3979 25.5717C76.4899 26.2809 75.084 25.9854 74.2638 24.9118C73.4535 23.8381 73.5316 22.4 74.4396 21.6908C75.3476 20.9815 76.7535 21.2771 77.5737 22.3507C78.3841 23.4244 78.306 24.8625 77.3979 25.5717Z" fill="black"/>
<path d="M132.26 23.967C131.986 24.9027 130.932 25.4346 129.887 25.1293C128.842 24.8239 128.208 23.8192 128.471 22.8834C128.745 21.9477 129.799 21.4158 130.844 21.7211C131.889 22.0265 132.523 23.0312 132.26 23.967Z" fill="black"/>
<path d="M47.1113 28.3109C45.8616 27.7691 45.3344 26.203 45.9202 24.824C46.506 23.4449 47.9998 22.7653 49.2496 23.2972C50.4993 23.8389 51.0265 25.4051 50.4407 26.7841C49.8549 28.1632 48.3611 28.8428 47.1113 28.3109Z" fill="black"/>
<path d="M107.86 29.4429C105.449 28.4678 106.376 25.8772 108.192 24.9611C110.604 23.72 114.168 25.7787 115.71 27.601C116.111 28.0836 115.837 28.8125 115.232 28.9209C112.81 29.3444 110.35 30.4477 107.86 29.4331V29.4429Z" fill="black"/>
<path d="M60.4093 27.3942C60.3019 28.4481 59.2182 29.1869 57.9977 29.0588C56.7773 28.9209 55.879 27.9655 55.9962 26.9115C56.1036 25.8575 57.1873 25.1188 58.4078 25.2468C59.6282 25.3847 60.5265 26.3402 60.4093 27.3942Z" fill="black"/>
<path d="M39.1443 29.5714C39.4372 30.7535 38.6073 31.9847 37.2794 32.3196C35.9516 32.6644 34.6335 31.9847 34.3308 30.8027C34.0379 29.6207 34.8678 28.3894 36.1957 28.0545C37.5235 27.7098 38.8416 28.3894 39.1443 29.5714Z" fill="black"/>
<path d="M73.805 34.5356C73.3071 35.3728 71.2176 35.0182 69.1282 33.7574C67.0388 32.4966 65.75 30.8024 66.2382 29.9651C66.7362 29.1278 68.8256 29.4824 70.915 30.7433C73.0044 32.0041 74.2932 33.6983 73.805 34.5356Z" fill="black"/>
<path d="M10.6053 31.9948C10.8396 31.3939 11.2887 30.9211 11.8355 30.734C11.9039 30.7143 11.9722 30.6946 12.0405 30.6847C12.558 30.6059 12.7435 30.8226 12.5873 31.325C11.2302 35.7378 10.576 40.0621 10.6151 44.2976C10.6151 44.7409 10.5077 45.0462 10.3026 45.2137C9.99019 45.4698 9.53131 45.2925 9.4532 44.8985C8.62329 40.4364 9.01384 36.1417 10.6053 31.9948Z" fill="black"/>
<path d="M134.476 32.8709C134.495 32.4178 134.876 32.0533 135.345 32.073H135.413C136.927 32.1321 138.127 33.0974 138.079 34.2105V34.3583C138.03 35.4713 136.77 36.3283 135.247 36.2692H135.179C134.72 36.2495 134.368 35.8555 134.378 35.3925L134.476 32.861V32.8709Z" fill="black"/>
<path d="M121.51 44.6913C119.46 46.09 116.56 45.3709 115.027 43.0857C113.504 40.8005 113.924 37.8159 115.974 36.427C118.024 35.0283 120.924 35.7474 122.457 38.0326C123.98 40.3178 123.56 43.3024 121.51 44.6913Z" fill="black"/>
<path d="M81.6646 48.2665C78.3353 49.2614 78.179 44.0506 78.4524 42.0708C78.5794 41.1843 78.0521 40.3371 77.2125 40.0613C76.5973 39.8643 75.9529 39.4605 75.2793 38.8695C75.0742 38.6823 74.9961 38.4656 75.0352 38.1898C75.1426 37.4314 75.7577 37.1063 76.8805 37.2147C77.5639 37.2836 77.9447 37.6579 78.0228 38.3474L78.1595 39.687C78.179 39.9234 78.2962 40.1401 78.4622 40.3076C80.1806 41.9329 83.6369 44.9273 82.2602 47.7543C82.1333 48.0104 81.938 48.1779 81.6646 48.2567V48.2665Z" fill="black"/>
<path d="M31.7142 43.4012C30.6695 42.6034 30.523 41.0274 31.3822 39.8847C32.2414 38.7421 33.7841 38.4663 34.8288 39.274C35.8735 40.0719 36.0199 41.6479 35.1607 42.7905C34.3015 43.9331 32.7589 44.2089 31.7142 43.4012Z" fill="black"/>
<path d="M139.299 45.1445C139.983 46.0901 139.699 47.479 138.655 48.2473C137.61 49.0156 136.214 48.8876 135.53 47.942C134.847 46.9963 135.13 45.6075 136.175 44.8392C137.219 44.0709 138.616 44.1989 139.299 45.1445Z" fill="black"/>
<path d="M81.6744 61.3089C80.3857 61.3089 79.341 60.117 79.3507 58.6592C79.3507 57.2014 80.4149 56.039 81.7135 56.0489C83.0023 56.0489 84.047 57.2408 84.0372 58.6986C84.0372 60.1564 82.973 61.3187 81.6744 61.3089Z" fill="black"/>
<path d="M138.059 60.7273C138.254 62.2442 136.995 63.6528 135.257 63.8793C133.519 64.096 131.957 63.0519 131.771 61.535C131.576 60.0181 132.836 58.6095 134.574 58.3829C136.311 58.1662 137.874 59.2104 138.059 60.7273Z" fill="black"/>
<path d="M116.247 77.2759C116.374 77.6699 116.15 78.0836 115.769 78.2117L115.447 78.3102C115.056 78.4383 114.636 78.2216 114.519 77.8275L113.279 73.8875C113.152 73.4935 113.377 73.0798 113.758 72.9517L114.08 72.8532C114.47 72.7252 114.89 72.9419 115.007 73.3359L116.247 77.2759Z" fill="black"/>
<path d="M128.647 77.6498L128.598 76.7042C128.559 76.1427 129.008 75.6699 129.565 75.6699H130.59C131.098 75.6699 131.518 76.0738 131.547 76.5958L131.654 78.3689C131.693 79.2061 130.756 79.7085 130.102 79.2061L129.028 78.3787C128.803 78.2014 128.667 77.9453 128.657 77.6498H128.647Z" fill="black"/>
<path d="M132.474 86.1311L131.381 86.5842C130.893 86.7911 130.336 86.4956 130.229 85.9735L130.014 84.8703C129.916 84.4271 130.19 83.9838 130.629 83.8656L131.957 83.5208C132.504 83.3829 133.031 83.7966 133.021 84.3581V85.353C133.002 85.6977 132.806 86.0031 132.484 86.1311H132.474Z" fill="black"/>
<path d="M111.737 101.034C112.01 98.0886 113.289 94.9661 115.369 93.0256C115.876 92.5528 116.589 92.4149 117.233 92.6513C123.14 94.907 117.272 103.743 112.488 102.176C112.01 102.009 111.697 101.536 111.737 101.034Z" fill="black"/>
<path d="M132.289 97.2318C131.439 96.9166 131.049 95.8232 131.42 94.7988C131.791 93.7744 132.787 93.2031 133.646 93.5183C134.495 93.8335 134.886 94.9269 134.515 95.9513C134.144 96.9757 133.148 97.547 132.289 97.2318Z" fill="black"/>
<path d="M117.399 106.304L116.364 107.86C116.091 108.274 115.495 108.313 115.173 107.939L113.113 105.585C112.801 105.21 112.898 104.649 113.328 104.413L116.56 102.64C117.077 102.364 117.712 102.758 117.673 103.359L117.526 105.929C117.526 106.058 117.477 106.195 117.39 106.304H117.399Z" fill="black"/>
<path d="M131.156 107.19C130.326 106.481 130.258 105.191 131 104.304C131.742 103.418 133.021 103.27 133.841 103.969C134.671 104.679 134.739 105.969 133.997 106.855C133.255 107.742 131.976 107.89 131.146 107.19H131.156Z" fill="black"/>
<path d="M110.301 117.267C109.696 117.966 108.661 118.026 107.968 117.435L107.294 116.844C105.41 115.179 105.283 112.214 107.021 110.214L107.343 109.84C109.081 107.841 112.01 107.555 113.894 109.22L114.568 109.811C115.251 110.411 115.32 111.465 114.724 112.165L110.301 117.287V117.267Z" fill="black"/>
<path d="M129.311 116.686C130.102 117.602 129.946 119.05 128.95 119.917C127.954 120.784 126.519 120.745 125.728 119.829C124.937 118.913 125.093 117.465 126.089 116.598C127.085 115.731 128.52 115.77 129.311 116.686Z" fill="black"/>
<path d="M93.7617 127.373C93.7617 128.595 92.7854 129.58 91.5844 129.58C90.3835 129.58 89.4072 128.595 89.4072 127.373C89.4072 126.152 90.3835 125.177 91.5844 125.177C92.7854 125.177 93.7617 126.162 93.7617 127.373Z" fill="black"/>
<path d="M118.298 130.329C117.136 130.112 116.394 128.9 116.618 127.61C116.843 126.329 117.975 125.443 119.137 125.66C120.299 125.876 121.041 127.088 120.817 128.378C120.592 129.659 119.459 130.545 118.298 130.329Z" fill="black"/>
<path d="M85.5017 132.141C85.5017 133.263 84.5937 134.18 83.4807 134.18C82.3676 134.18 81.4596 133.263 81.4596 132.141C81.4596 131.018 82.3676 130.102 83.4807 130.102C84.5937 130.102 85.5017 131.018 85.5017 132.141Z" fill="black"/>
<path d="M75.0938 134.327C75.5331 135.431 74.9473 136.721 73.7659 137.194C72.5943 137.667 71.286 137.154 70.8369 136.051C70.3975 134.948 70.9833 133.658 72.1647 133.185C73.3363 132.712 74.6447 133.224 75.0938 134.327Z" fill="black"/>
<path d="M62.8112 140.543C61.8446 140.494 61.1123 139.499 61.1709 138.317C61.2295 137.145 62.0594 136.229 63.026 136.278C63.9926 136.328 64.7248 137.322 64.6662 138.504C64.6077 139.677 63.7778 140.593 62.8112 140.543Z" fill="black"/>
<path d="M132.015 67.4449C125.405 62.9236 118.268 58.9934 110.584 55.6542C109.012 54.9647 106.825 53.6842 104.004 51.793C103.164 51.2315 102.559 50.3549 102.324 49.3699L100.645 42.1891C100.42 41.2041 100.684 41.0366 101.455 41.6769C104.013 43.8144 107.323 46.2277 111.385 48.9168C116.706 52.4333 125.103 54.2752 129.399 48.1583C132.582 43.6075 129.916 35.5107 127.427 31.2555C120.455 19.3368 108.729 11.4764 94.5525 13.604C93.7129 13.7321 93.1368 14.2049 92.8439 15.0027L92.756 15.249C92.4534 16.0567 92.7365 16.4212 93.5859 16.3719C95.4313 16.2537 97.1789 15.8991 99.034 15.9188C103.896 15.968 108.153 17.1304 111.795 19.386C119.811 24.3308 127.758 33.2649 128.081 43.184C128.188 46.4148 126.87 48.5424 124.107 49.5669C119.743 51.202 113.953 48.0598 110.448 45.2229C108.934 43.9917 106.074 41.8936 101.885 38.9386C98.2627 36.3874 97.1594 33.0482 95.1481 29.3445C90.0027 19.8884 81.6841 11.4271 70.8758 8.9843C70.1924 8.8267 69.714 9.05325 69.4113 9.63441C69.1477 10.1466 69.3723 10.777 69.8995 10.9937C75.289 13.2494 79.458 15.18 83.9493 19.8588C89.29 25.4045 93.3028 31.7677 95.978 38.9287C98.2139 44.8979 99.4929 50.5026 99.8249 55.7527C100.596 67.8881 95.5191 79.8166 87.0248 88.7999C83.4123 92.6317 78.9699 95.5276 73.7073 97.4779C59.843 102.659 47.2187 100.807 34.6627 94.1486C33.6571 93.6068 33.0713 93.331 32.9248 93.331C30.6889 93.1931 30.5034 93.7447 32.3683 94.9957C36.1273 97.5272 40.0522 99.6351 44.1236 101.329C45.637 101.96 45.5979 102.107 43.9869 101.773C42.5907 101.477 41.3703 101.142 40.3451 100.758C36.5666 99.379 32.6709 97.9507 28.6679 96.4732C25.895 95.4586 20.9644 94.2471 17.9182 95.2222C17.6838 95.301 17.5276 95.4488 17.4593 95.6852C17.1566 96.621 17.2152 97.6257 17.6155 98.6993C19.0215 102.373 19.9685 105.713 20.4567 108.707C20.4958 108.914 20.5836 109.101 20.7106 109.269C20.8961 109.495 21.0035 109.751 21.0328 110.027C21.0718 110.382 20.9839 110.411 20.7789 110.116C20.0662 109.091 19.5194 108.008 19.1289 106.875C18.0549 103.792 16.8149 100.66 15.4089 97.4976C15.1258 96.8475 14.5204 96.3944 13.8272 96.2959L13.2512 96.2171C12.6166 96.1186 12.431 96.3747 12.7142 96.9657C14.3838 100.482 16.1021 104.343 17.8596 108.53C17.9572 108.756 17.8986 108.815 17.6741 108.697C17.1957 108.451 16.7563 108.185 16.3267 107.909C15.7995 107.564 15.3699 107.092 15.0574 106.481C13.8956 104.275 12.724 102.029 11.5523 99.7336C11.2789 99.2115 10.8786 98.9456 10.3319 98.9357C10.1366 98.9357 10.0097 99.1525 10.1171 99.3199C10.7419 100.295 11.2692 101.339 11.7183 102.472C12.3529 104.097 13.3683 105.476 14.3642 106.865C14.6962 107.318 14.5888 107.466 14.0616 107.299C9.5996 105.949 10.244 100.118 8.30105 96.8574C8.16436 96.6111 7.95932 96.4437 7.68594 96.3649C7.43209 96.2861 7.17824 96.2467 6.93415 96.2664C6.13353 96.3255 5.88944 96.7293 6.18235 97.4779L8.67206 103.812C8.77946 104.087 8.70135 104.275 8.42797 104.393L8.21318 104.491C8.11554 104.531 7.99838 104.491 7.94956 104.403C6.79746 102.265 5.40126 100.344 3.74146 98.6599C1.55441 96.424 -0.700975 99.2115 1.21269 101.142C2.27692 102.206 3.68287 103.28 5.45008 104.353C5.78204 104.56 5.75275 104.659 5.37197 104.639L2.68699 104.521C2.10117 104.491 1.55441 104.816 1.28103 105.338C0.753799 106.353 0.890489 107.308 1.71063 108.205C1.98401 108.5 2.34526 108.697 2.73581 108.766C4.57136 109.081 6.5436 109.15 8.65254 108.953C9.93157 108.845 11.357 108.875 12.5775 109.17C14.9989 109.751 17.4691 110.362 19.9783 111.012C20.0271 111.032 20.0466 111.051 20.0466 111.111L20.0173 111.298C20.0173 111.298 19.9881 111.347 19.9588 111.337C18.9434 111.13 17.8986 111.051 16.8247 111.12C16.5806 111.14 16.3462 111.061 16.151 110.904C14.5009 109.623 9.5215 111.859 7.97885 112.765C6.62171 113.553 6.4362 114.568 7.44185 115.789L7.70547 116.105C8.72088 117.326 9.86322 117.474 11.1423 116.528C13.7394 114.617 16.1607 113.337 18.3966 112.706C18.6309 112.637 18.8652 112.657 19.0898 112.736C20.2321 113.159 21.2768 113.376 22.2337 113.396C23.1612 113.396 23.2198 113.622 22.3899 114.046C20.3591 115.09 18.3673 116.459 16.4341 118.134C14.8329 119.523 14.6181 120.961 15.78 122.448C16.1607 122.941 16.8344 123.108 17.3909 122.832C18.4552 122.31 19.3632 121.719 20.0955 121.03C21.765 119.473 23.3467 117.996 24.8503 116.577C24.8796 116.558 24.8796 116.528 24.8503 116.499L24.6941 116.302C24.5965 116.183 24.4305 116.164 24.3133 116.262L19.3339 120.36C19.0508 120.596 18.6407 120.616 18.3282 120.399C18.2599 120.35 18.1818 120.301 18.1134 120.261C17.7522 120.054 17.7424 119.532 18.0939 119.306C19.9392 118.094 21.6674 116.39 23.874 116.026C25.4947 115.76 27.0667 115.898 28.5995 116.449C28.9217 116.558 28.9217 116.666 28.5995 116.774C25.7388 117.7 23.376 119.454 21.5209 122.064C20.4372 123.581 21.189 125.314 22.3606 126.427C22.5461 126.595 22.7609 126.674 23.005 126.654C23.7763 126.595 24.3719 126.23 24.7917 125.561C24.9187 125.354 25.0944 125.186 25.2994 125.048C26.7835 124.103 28.2383 123.118 29.654 122.074C30.0738 121.759 30.5718 121.66 31.06 121.552C31.304 121.502 31.5384 121.394 31.7239 121.207C32.4366 120.547 33.247 120.045 34.1745 119.66C34.9166 119.365 35.395 118.813 36.0491 118.37C36.0687 118.35 36.0882 118.35 36.1175 118.37L36.2542 118.508C36.3225 118.587 36.3225 118.656 36.2542 118.725C35.0142 119.936 33.8231 121.197 32.6905 122.517C31.9777 123.344 31.1478 125.009 29.8005 125.768C29.4392 125.965 29.1365 125.974 28.8827 125.768C28.6874 125.61 28.6972 125.452 28.9022 125.314C30.0348 124.586 30.8452 123.62 31.3529 122.399C31.5188 121.995 31.4212 121.916 31.0697 122.172C29.5857 123.246 28.5898 124.241 28.0625 125.177C27.4865 126.201 27.9063 127.511 28.9706 127.994C30.1324 128.516 31.2552 127.846 31.8996 126.881C33.4423 124.566 35.3071 122.684 37.5039 121.246C38.2655 120.744 38.9587 120.123 39.5933 119.394C39.7105 119.257 39.9058 119.247 40.0425 119.365L40.1889 119.483C40.2377 119.532 40.2475 119.582 40.2084 119.651C39.5543 120.586 38.7439 121.286 37.7578 121.739C37.5332 121.847 37.3477 122.024 37.2208 122.231C36.3713 123.669 35.5805 128.013 38.0409 128.427C40.4525 128.821 42.62 124.871 43.2351 122.812C43.3914 122.281 43.5671 122.271 43.7429 122.793C45.2367 127.009 48.6832 129.215 52.9792 130.436C53.399 130.555 53.399 130.693 52.9987 130.84C50.2747 131.815 47.3163 133.244 44.1334 135.115C43.1473 135.696 42.9422 136.484 43.5085 137.479L43.6647 137.765C43.9576 138.287 44.5923 138.474 45.1195 138.208C50.343 135.559 53.9556 134.042 55.9571 133.648C64.2268 132.022 70.2607 131.589 76.8804 128.9C88.1086 124.329 98.6337 116.016 104.629 105.397C107.05 101.103 108.749 97.1036 109.715 93.4197C112.478 82.88 111.278 70.0157 104.599 60.8256C103.35 59.0919 102.822 57.0431 103.037 54.6594C103.057 54.3836 103.184 54.3245 103.408 54.4919C111.541 60.274 118.942 68.1147 122.115 77.4526C124.087 83.2642 125.318 90.1888 124.732 96.3058C124.029 103.615 121.1 112.992 115.74 118.242C113.045 120.882 108.827 123.778 104.804 123.177C103.623 123.009 102.725 122.487 102.09 121.64C101.289 120.557 101.533 118.912 101.397 117.533C101.377 117.385 101.221 117.306 101.094 117.375C99.3269 118.37 98.5068 119.917 98.6532 122.034C98.663 122.29 98.7606 122.497 98.9266 122.684C103.018 127.137 108.505 126.093 113.24 123.078C117.38 120.458 120.592 116.843 122.886 112.243C128.793 100.403 128.637 86.8792 123.912 74.7143C122.154 70.1832 119.586 66.1643 116.228 62.6577C114.724 61.0915 113.386 59.7125 112.205 58.5108C111.522 57.8213 111.61 57.7031 112.459 58.1759C118.356 61.3969 124.175 64.805 129.936 68.42C135.228 71.7395 138.44 76.5464 139.572 82.8505C139.611 83.0475 139.709 83.1558 139.875 83.1657C140.139 83.1854 140.295 83.0672 140.354 82.8111C141.506 76.8419 136.721 70.5969 132.045 67.4055L132.015 67.4449ZM10.1659 107.958C10.1659 108.126 10.0194 108.264 9.84369 108.254L2.8725 108.008C2.70652 108.008 2.56983 107.86 2.57959 107.683V107.653C2.57959 107.486 2.73581 107.348 2.90179 107.358L9.87298 107.604C10.039 107.604 10.1757 107.752 10.1659 107.929V107.958ZM15.2625 111.948C14.745 112.352 14.0616 112.726 13.2317 113.041C11.9624 113.534 10.7322 113.997 9.53126 114.44C9.12119 114.588 8.69159 114.292 8.68183 113.859C8.6623 113.228 8.93568 112.884 9.48244 112.805C11.5328 112.539 13.3976 112.135 15.0672 111.583C15.8092 111.337 15.8678 111.455 15.2527 111.948H15.2625ZM33.8133 118.272C31.0014 118.508 27.7403 121.099 25.0163 123.344C24.5672 123.719 24.0497 123.837 23.4737 123.689C23.2589 123.63 23.0831 123.492 22.9659 123.275C22.8097 123 22.8683 122.655 23.0831 122.438C25.0065 120.488 27.7013 118.981 31.1478 117.907C32.1047 117.602 33.0127 117.631 33.8621 117.976C34.2624 118.144 34.2526 118.232 33.8133 118.272ZM40.97 122.98C40.4623 123.748 39.9643 124.359 39.5055 124.792C39.0759 125.196 38.9001 125.108 38.9685 124.507C39.1051 123.315 39.9058 122.409 41.3508 121.768C41.8487 121.542 42.2393 121.128 42.415 120.616C42.5907 120.123 42.8837 119.729 43.2937 119.454C43.6257 119.237 43.7917 119.326 43.8014 119.72C43.8502 121.68 41.8878 121.621 40.97 122.99V122.98ZM44.7094 116.37C39.9643 116.43 35.3657 115.799 30.9037 114.469C27.3205 113.406 24.7136 111.82 23.0733 109.712C21.892 108.205 21.2183 105.939 20.9937 103.861C20.7496 101.684 20.4762 99.5563 20.1443 97.4779C20.0955 97.1529 20.4274 96.9165 20.7106 97.0741C22.2142 97.8916 23.2881 98.9456 23.9228 100.256C25.2116 102.866 26.6273 105.516 28.1699 108.215C28.209 108.264 28.248 108.284 28.3066 108.254L28.6191 108.106C28.7167 108.067 28.7558 107.958 28.7069 107.86L24.0888 97.7439C23.8447 97.2021 23.9814 97.0741 24.4891 97.3499C25.7779 98.0394 27.1741 98.6796 28.6776 99.2805C32.7295 100.896 36.6252 102.442 40.3647 103.93C44.7192 105.663 48.2829 106.727 51.046 107.121C65.8964 109.219 81.3424 101.231 90.6861 89.5584C91.9359 87.9824 93.1954 86.3276 94.4549 84.5742C94.7966 84.0916 94.8845 84.1408 94.7185 84.7121C93.5957 88.4256 91.6918 91.8338 88.9678 94.9464C80.4637 104.728 69.4504 110.273 57.3045 114.075C52.5887 115.553 48.3903 116.311 44.7094 116.361V116.37ZM103.135 65.3074C103.213 64.9134 103.32 64.9134 103.457 65.2877C104.824 69.0504 104.443 73.1185 104.131 77.1275C103.994 78.9203 103.74 80.6243 103.389 82.2496C103.31 82.6535 103.457 82.8111 103.867 82.7323C104.697 82.5648 105.4 82.8111 105.966 83.471C106.249 83.8059 106.425 83.7567 106.484 83.3233C106.698 81.7276 106.728 80.2796 106.591 78.9892C106.308 76.3494 106.103 73.8967 105.995 71.6213C105.869 69.1588 106.152 69.1095 106.855 71.4736C107.626 74.074 108.095 76.3691 108.153 79.0877C108.222 82.2595 108.202 84.328 108.114 85.2736C107.03 95.8625 102.695 105.053 95.0993 112.834C93.2247 114.755 90.7252 116.607 88.5284 118.488C87.6301 119.266 86.6733 119.867 85.6774 120.271C84.7401 120.645 83.8419 121.168 82.9729 121.808C81.4108 122.99 79.7216 123.482 77.9154 123.275C76.5192 123.118 74.8301 122.556 72.8774 121.591C71.2761 120.803 69.6749 120.094 68.0542 119.493C65.8769 118.675 65.6523 119.03 67.4 120.586L70.3486 123.197C70.6025 123.413 70.5634 123.591 70.2705 123.729L70.0166 123.857C69.7335 123.994 69.4797 123.955 69.2453 123.738C67.771 122.399 66.4432 121.128 65.2813 119.917C64.8127 119.434 64.2171 119.227 63.5922 119.296C63.3774 119.316 63.2505 119.552 63.3481 119.749C64.6564 122.399 66.5311 124.457 68.9622 125.915C69.1379 126.024 69.3234 126.043 69.5089 125.974C71.8327 125.255 74.0685 125.019 76.2165 125.275C76.7535 125.344 76.7633 125.462 76.2556 125.63C71.1492 127.324 66.1112 128.24 61.1416 128.378C59.6575 128.417 58.1637 128.319 56.6601 128.092C56.0254 127.994 55.4201 127.688 54.8636 127.176C52.7644 125.265 51.1144 123.315 49.9134 121.335C49.0152 119.867 48.5661 119.995 48.5465 121.709C48.527 123.857 50.9972 125.777 52.5984 126.999C52.6961 127.078 52.7058 127.156 52.6375 127.265L52.5203 127.452C52.5203 127.452 52.4715 127.491 52.4422 127.472C51.3389 127.009 50.3723 126.368 49.5327 125.58C47.3944 123.561 45.4124 120.054 49.8646 119.03C59.5989 116.794 68.4935 113.406 76.568 108.855C83.2756 105.092 89.8758 99.2115 94.0936 92.612C98.0088 86.5049 101.055 80.4963 101.875 73.4534C102.217 70.5082 102.647 67.7896 103.135 65.3074ZM73.5413 123.561C73.4925 123.709 72.9555 123.66 72.3599 123.443C71.7643 123.226 71.325 122.931 71.3738 122.783C71.4226 122.635 71.9596 122.684 72.5552 122.901C73.1508 123.118 73.5901 123.413 73.5413 123.561Z" fill="black"/>
</g>
<defs>
<clipPath id="clip0_2244_559">
<rect width="140" height="140" fill="white" transform="translate(0.5 0.542969)"/>
</clipPath>
</defs>
</svg>
