<svg width="100" height="160" viewBox="0 0 100 160" fill="none" xmlns="http://www.w3.org/2000/svg">
<g clip-path="url(#clip0_2071_122)">
<path d="M98.4652 70.1484C96.3317 70.9359 94.2749 72.5555 92.5942 73.4471C88.1045 75.8319 84.2826 78.0682 81.1207 80.1633C72.6709 85.7725 67.3217 96.0994 63.2695 105.148C62.4867 106.894 61.8344 106.85 61.3125 105.015C61.1974 104.606 61.2358 103.804 61.443 102.6C62.0953 98.7146 63.0623 94.5392 64.3286 90.0741C65.7101 85.2376 68.1276 81.404 71.5735 78.5734C75.7791 75.1187 81.3125 73.3728 85.6487 70.1781C87.3755 68.9151 89.0408 67.5853 90.6602 66.1885C96.1629 61.4337 98.5727 55.4307 97.8973 48.1722C97.7899 47.0132 97.0531 46.6566 95.6794 47.1098C93.5688 47.7933 91.5197 48.3728 89.5167 48.8408C86.8766 49.4649 84.8659 50.1113 83.4844 50.7873C74.8889 54.9998 70.9672 62.355 67.7975 70.5125C65.2419 77.0949 62.9012 82.4664 60.3992 88.4322C60.1613 89.0043 60.0923 89.7547 59.8774 90.2896C59.6241 90.9285 59.4706 90.9062 59.4322 90.2227C59.3785 89.3163 59.3939 88.3059 59.4783 87.1989C59.9004 81.5749 60.5988 76.0177 61.5735 70.5125C63.0777 62.0206 66.7922 55.2079 74.3133 50.7205C77.5827 48.7665 80.806 46.7383 83.9833 44.6507C91.3125 39.8215 95.2803 33.0756 95.8712 24.4203C95.9096 23.8706 95.7561 23.1796 95.4108 22.355C95.3187 22.1246 95.1498 21.9686 94.9119 21.8869C91.489 20.6908 85.9249 22.7561 82.9549 24.4872C79.6932 26.3817 76.3164 28.9746 74.1828 32.0281C70.3685 37.5035 66.654 43.8631 63.9296 50.1336C62.9242 52.4441 61.9111 54.7398 60.8904 57.0058C58.5343 62.2509 56.9764 68.083 56.2166 74.4946C56.017 76.1885 55.8252 76.1885 55.6333 74.4872C55.3724 72.1395 55.0424 69.8067 54.6356 67.4813C53.1698 59.1529 51.9802 51.7309 51.0516 45.2004C51.0132 44.933 51.1897 44.6804 51.4583 44.6135C55.9557 43.4917 57.7131 40.6016 59.3555 36.7383C59.4553 36.508 59.6088 36.3297 59.816 36.196C62.7784 34.3163 66.0477 32.8304 67.9203 29.8364C71.3355 24.3683 71.8037 18.7443 69.3094 12.9642C68.4883 11.0697 67.3064 9.47977 65.7638 8.19448C62.8091 5.7502 59.1636 5.78735 55.5105 6.35942C55.0807 6.42628 54.651 6.27026 54.3824 5.94337C46.8459 -3.09081 36.278 -1.09229 29.5243 7.03549C25.4645 11.9166 24.6279 17.7339 26.9994 24.4872C28.0048 27.3475 30.9825 31.7309 34.2365 32.3921C34.4821 32.4441 34.6279 32.5853 34.6817 32.8304C35.2266 35.4827 35.664 37.2584 35.9863 38.1573C37.2603 41.6863 41.3586 46.2554 45.687 45.1558C46.4698 44.9553 46.9226 45.2376 47.0454 46.0177C48.189 53.1573 49.3478 60.4679 50.5374 67.9419C50.9672 70.661 51.2895 73.3876 51.4967 76.1217C51.7116 78.9226 51.8728 81.6566 51.9802 84.3312C52.0032 84.9924 51.8881 85.0221 51.6348 84.4055C47.7976 75.1187 42.9472 67.1692 36.3471 58.8483C33.5151 55.2747 30.6065 51.768 27.6057 48.3134C23.7454 43.8631 18.9871 41.4337 13.3309 41.0251C8.94107 40.7056 4.98098 41.0251 1.44299 41.9686C0.383891 42.2509 -0.230076 43.3208 0.0769075 44.3386C2.18742 51.3148 6.56194 56.2777 13.1928 59.2346C16.9764 60.9137 22.6863 61.7606 27.2296 62.7933C32.5021 63.9969 35.7177 65.661 38.8413 69.933C43.9449 76.9092 47.4829 85.297 49.4553 95.1113C49.6548 96.1143 49.4553 96.196 48.872 95.3416C47.9817 94.0489 47.1375 92.719 46.3394 91.352C44.674 88.4842 42.3102 85.2301 39.2481 81.5972C35.8789 77.5927 31.9879 74.9181 27.5903 73.5808C23.3002 72.2732 19.9388 71.6789 17.5213 71.7903C15.8712 71.872 14.3056 71.9092 12.8244 71.9018C9.6855 71.8869 6.85358 72.8527 3.73769 73.2688C1.36624 73.5882 -0.951488 74.6061 0.583431 77.4218C5.40308 86.3 12.4714 91.612 21.7807 93.3505C27.3678 94.3906 34.2903 93.9894 40.2534 93.2168C40.8137 93.1499 41.3662 93.3579 41.7269 93.7814C44.5742 97.1172 46.9073 101.033 48.7339 105.527C48.8566 105.825 48.6418 106.159 48.3118 106.174C41.1207 106.612 34.2135 107.86 27.6057 109.933C25.1345 110.713 24.0984 112.362 24.4975 114.888C24.958 117.838 25.5566 120.735 26.301 123.596C26.7231 125.252 27.1222 126.872 27.4906 128.455C28.9411 134.703 30.3225 140.438 31.6502 145.661C32.6172 149.495 33.9065 153.261 35.5105 156.954C36.3931 158.989 38.4959 159.398 40.6372 159.762C41.6118 159.933 42.7477 160.007 44.0447 160C48.4883 159.963 52.8935 160.037 57.3524 159.651C59.3248 159.48 61.2741 159.376 63.2081 159.339C66.0708 159.287 73.4384 158.41 74.9579 155.55C75.971 153.648 76.8075 150.958 77.4675 147.481C79.7546 135.386 82.7016 123.284 86.3164 111.174C87.8436 106.025 74.4437 105.713 71.6655 105.683C71.4046 105.683 71.2972 105.557 71.3432 105.312C71.6118 103.878 72.3409 102.875 73.5151 102.31C77.8052 100.252 83.7991 98.3208 87.5443 95.936C96.0554 90.505 100.253 80.9508 99.9848 71.1365C99.9695 70.3862 99.1866 69.881 98.4652 70.1484ZM90.499 53.1202L93.1467 51.8795C93.5228 51.7012 93.9526 52.0206 93.8758 52.4218L93.4768 54.3758C93.423 54.6729 93.1084 54.8512 92.8167 54.7547L90.5604 54.0414C90.123 53.9003 90.0846 53.3134 90.499 53.1202ZM72.2718 71.9984C72.5942 69.7844 73.1928 67.8899 74.0754 66.3148C74.8198 64.9998 75.2573 65.0816 75.3877 66.5749C75.4415 67.2212 75.2726 68.2242 74.8735 69.5986C74.7507 70.0295 75.1575 70.4307 75.6103 70.3193C75.8175 70.2673 76.1168 70.2747 76.5159 70.3416C77.8436 68.8408 78.5804 67.0875 78.7262 65.0816C78.8413 63.5214 78.9948 62.1469 79.202 60.9657C79.6088 58.5882 80.6372 56.404 82.2795 54.4055C82.6325 53.9746 82.7477 54.0266 82.6325 54.5689C82.0953 57.1172 81.7346 59.7175 81.5428 62.3772C81.5274 62.6298 81.6502 62.7487 81.9111 62.7413C83.4537 62.667 84.9119 62.4144 86.278 61.9761C87.0915 61.716 87.0915 61.4486 86.2857 61.1663C86.1475 61.1142 86.0247 61.0474 85.9173 60.9508C85.7101 60.7799 85.6103 60.557 85.6026 60.297C85.5796 58.5065 86.3701 57.3475 87.9817 56.8126C89.1713 56.4114 90.6678 56.6789 92.0032 56.3371C92.4944 56.2108 92.6479 56.3743 92.4714 56.8423C91.9572 58.1573 91.2895 59.2272 90.4606 60.0667C89.2557 61.2925 88.6418 61.9315 88.6034 61.9686C85.9326 65.0964 82.4791 67.6819 78.235 69.7249C77.4138 70.1187 76.8459 70.3267 76.5159 70.3416L72.5328 72.1915C72.3256 72.2881 72.2335 72.2212 72.2718 71.9984ZM88.6034 25.9285C89.2097 25.5496 89.8236 25.4753 90.4606 25.7131C90.829 25.8542 90.9518 26.3 90.6909 26.5972C89.9695 27.4144 89.1483 28.0236 88.2273 28.4248C87.9894 28.5288 87.7745 28.67 87.5827 28.8557L86.1475 30.2301C85.8329 30.5347 85.6717 30.4679 85.6563 30.0444C85.5642 27.4441 86.8075 27.0578 88.6034 25.9285ZM81.819 30.3787C81.819 30.3787 81.8497 30.3639 81.8728 30.3713C81.9418 30.3787 82.0109 30.3936 82.0723 30.4159C82.149 30.4456 82.149 30.4827 82.08 30.5199C82.0109 30.557 81.9418 30.6016 81.8881 30.6536C81.8344 30.6982 81.8037 30.7502 81.7807 30.8171C81.0823 32.7636 81.0592 34.6655 81.6962 36.5154C81.9956 37.3921 83.1698 37.6224 83.7991 36.9315L88.5957 31.6715C89.7392 30.4159 89.9925 30.5645 89.3401 32.1246C87.621 36.248 84.2212 39.3312 80.5067 42.1544C80.2995 42.3104 80.169 42.2658 80.0999 42.0206C79.3785 39.3906 79.0178 37.5481 79.0178 36.4931C79.0101 33.5734 79.3248 31.9538 81.819 30.3787ZM73.2772 44.9553C73.8068 43.4768 74.5819 41.9761 75.5949 40.4679C75.7254 40.2747 76.017 40.2673 76.1629 40.453C76.8843 41.3817 77.0915 42.1024 78.0201 42.9122C78.189 43.0608 78.1736 43.1871 77.9741 43.2985L73.991 45.5273C73.2158 45.9582 72.9779 45.7651 73.2772 44.9553ZM33.8221 22.9122C33.8989 24.4055 34.0216 25.9582 34.1905 27.5556C34.2442 28.0459 34.1214 28.0905 33.8221 27.6967C32.0953 25.3862 30.8904 22.8453 30.2074 20.0667C28.0355 11.2926 39.2557 -0.282488 48.1352 6.15882C50.4223 7.82301 51.9649 9.6135 52.7707 11.5303C53.377 12.9939 53.0009 13.2836 51.6579 12.3995C49.1636 10.7725 46.0477 9.11573 42.9779 9.40548C35.994 10.0741 33.4998 16.8498 33.8221 22.9122ZM50.4683 25.2599C49.7316 26.0102 47.9587 25.557 46.5159 24.242C45.0807 22.9196 44.5128 21.2331 45.2419 20.4827C45.9787 19.7324 47.7515 20.1856 49.1943 21.5006C50.6295 22.823 51.1974 24.5095 50.4683 25.2599ZM37.7592 22.7041C37.7515 19.1603 38.9718 14.5318 42.6863 13.2539C44.2903 12.7041 45.9633 13.2242 47.7131 14.8141C48.1583 15.2227 48.0815 15.3564 47.4906 15.2004C45.4952 14.6952 44.0063 14.9107 43.0316 15.8394C41.4123 17.3772 40.5834 19.3683 40.5297 21.8275C40.4223 26.9983 46.2319 29.6358 50.7369 29.7324C53.2158 29.7844 54.7891 28.4917 55.4721 25.8691C56.1936 23.0608 55.4645 20.401 53.2772 17.8824C53.0853 17.6521 52.8321 17.5407 52.5251 17.5481C51.8421 17.5481 51.3969 17.2509 51.1744 16.6492C51.0669 16.3594 51.1667 16.2554 51.4814 16.3223C51.9342 16.4263 52.0877 16.6046 52.5942 16.5674C61.3355 15.9136 58.4499 24.9701 56.5082 29.6358C56.3624 29.9924 56.4852 30.1633 56.8843 30.1558C58.258 30.1261 59.2711 29.6878 59.9234 28.8408C62.126 25.9805 63.5458 21.3 61.8728 17.8007C60.7139 15.3639 59.0408 13.7294 56.8689 12.8899C55.6794 12.4367 55.6026 11.8423 56.6464 11.1142C57.1759 10.7428 57.7669 10.4679 58.4192 10.2896C59.816 9.91068 61.3202 10.1781 62.4791 11.0177C68.519 15.3862 67.0992 24.9255 62.7323 29.8587C61.6041 31.1365 59.3401 31.9983 57.5366 32.1692C52.4484 32.6521 47.2066 31.5897 41.8267 28.9746C39.1176 27.6596 37.7669 25.5719 37.7592 22.7041ZM44.8275 40.8096C43.8451 40.7874 42.8628 40.2896 41.8881 39.3089C40.0078 37.4293 39.1176 35.1038 39.202 32.3475C39.202 32.1989 39.3785 32.1172 39.5013 32.2064C43.5075 35.0295 48.7262 36.2554 53.5919 35.9508C53.991 35.9285 54.2596 36.3371 54.0677 36.6789C53.6379 37.4293 53.1007 38.0756 52.4637 38.6254C50.783 40.0816 46.7692 40.8468 44.8275 40.8096ZM9.7469 45.0147C9.86969 44.8141 10.5911 44.9924 11.3662 45.4159C12.1414 45.8468 12.6709 46.352 12.5481 46.5526C12.4253 46.7532 11.7039 46.5749 10.9288 46.1514C10.1537 45.7205 9.62411 45.2153 9.7469 45.0147ZM23.5995 56.5674C23.5842 56.7309 23.4154 56.8423 23.2542 56.7829C21.1974 56.0845 18.9334 54.9553 16.7922 55.2896C16.0861 55.401 15.4645 55.349 14.9273 55.1484C10.1767 53.3579 8.13523 50.1633 5.75611 45.5793C5.64866 45.3787 5.77913 45.141 6.00937 45.1113L6.27031 45.0816C6.50055 45.0518 6.72311 45.1707 6.8152 45.3787C7.46754 46.8052 8.41152 48.0162 9.63178 49.0191C11.3893 50.453 14.014 50.7651 16.0094 51.9761C18.4345 53.4471 20.8137 54.6655 23.1544 55.6388C23.4768 55.7799 23.6302 56.0177 23.6072 56.3594V56.5674H23.5995ZM25.7484 54.19C25.4721 54.4352 23.4307 52.7487 21.1897 50.4159C18.9411 48.083 17.3448 45.9954 17.6134 45.7502C17.8896 45.505 19.9311 47.1915 22.1721 49.5243C24.4207 51.8572 26.017 53.9449 25.7484 54.19ZM31.136 79.9255C31.42 79.6358 32.1567 79.881 32.786 80.4679C33.423 81.0474 33.707 81.7532 33.423 82.0429C33.1391 82.3327 32.4023 82.0875 31.773 81.5006C31.136 80.9211 30.852 80.2153 31.136 79.9255ZM24.651 76.9315C25.0347 76.6417 25.8329 76.9983 26.4238 77.7339C27.0147 78.4694 27.1759 79.3015 26.7922 79.5912C26.4085 79.881 25.6103 79.5244 25.0193 78.7888C24.4284 78.0533 24.2672 77.2212 24.651 76.9315ZM18.5573 75.3342L19.7085 75.7725C19.8006 75.8096 19.8774 75.8914 19.9081 75.9879L20.5374 78.2093C20.6141 78.4917 20.3071 78.722 20.0462 78.5808L18.6341 77.8082C18.5497 77.7636 18.4883 77.6819 18.4652 77.5853L18.1045 75.6982C18.0508 75.4456 18.3117 75.2376 18.5573 75.3342ZM37.0915 89.1826C32.41 89.777 27.7745 89.8215 23.1774 89.3163C22.6018 89.2495 22.126 89.0117 21.7576 88.6031C21.5965 88.4174 21.3893 88.3134 21.136 88.2985C15.1421 87.8379 9.31712 82.6819 6.30868 78.1276C5.88658 77.4961 6.06309 77.1098 6.83055 76.9835C7.62871 76.8498 8.39617 76.9983 9.13293 77.4293C12.4791 79.3609 15.1421 80.6016 17.1222 81.144C19.0946 81.6937 21.0362 82.2955 22.9472 82.9493C24.3056 83.4174 25.4875 83.4991 26.9073 83.5882C27.3524 83.618 27.575 84.1232 27.2834 84.4501C26.1322 85.7279 24.7507 86.7532 23.1467 87.5258C22.2411 87.9642 22.2872 88.2316 23.2926 88.3431C24.8198 88.514 27.0147 87.9567 28.4959 87.3252C30.5834 86.4263 32.8705 86.3891 35.357 87.2064C36.2089 87.4813 36.8689 87.9567 37.3447 88.6254C37.5827 88.9449 37.4982 89.1306 37.0915 89.1826ZM31.9111 127.333L31.8881 126.129C31.8804 125.691 32.2411 125.327 32.6939 125.319L34.7968 125.282C35.2496 125.275 35.6256 125.624 35.6333 126.062L35.6563 127.266C35.664 127.704 35.3033 128.068 34.8505 128.076L32.7477 128.113C32.2949 128.12 31.9188 127.771 31.9111 127.333ZM34.5589 137.117C33.9833 137.132 33.7761 136.872 33.9372 136.345C34.2519 135.275 35.0193 134.294 36.2243 133.403C36.8152 132.964 37.6824 133.232 37.8973 133.923L38.7492 136.612C38.8336 136.872 38.7339 137.006 38.4499 137.013L34.5589 137.117ZM36.585 145.758C36.3164 145.773 36.1168 145.535 36.1782 145.282C36.5389 143.848 37.3831 142.764 38.7262 142.035C39.9081 141.397 41.3893 141.605 42.3332 142.541C42.9088 143.113 43.4998 143.655 44.1061 144.183C45.0193 144.955 44.8659 145.371 43.6533 145.423L36.585 145.758ZM60.8367 128.254C59.8927 128.202 59.1099 127.972 58.1429 128.15C56.4622 128.455 54.697 128.655 52.8551 128.759C52.3716 128.781 52.1107 128.566 52.0723 128.098C51.9802 127.11 52.1567 126.597 53.2235 126.248C55.3801 125.535 60.1997 124.903 61.2665 127.689C61.3739 127.972 61.1513 128.269 60.8367 128.254ZM63.5765 132.065C63.8451 131.85 64.2365 131.842 64.5205 132.043L69.3094 135.416C69.9081 135.839 69.6088 136.768 68.8643 136.783L59.4399 136.976C58.6878 136.991 58.3501 136.077 58.9411 135.624L63.5765 132.065ZM52.5098 135.275C53.0086 135.676 52.7553 136.471 52.103 136.53L44.1675 137.221C43.4537 137.288 43.0777 136.426 43.6149 135.973L47.9434 132.355C48.2197 132.132 48.6187 132.125 48.9027 132.348L52.5098 135.275ZM45.5873 128.885C43.6149 128.789 41.796 128.789 40.1306 128.885C39.4169 128.923 39.3094 128.7 39.8083 128.202L40.499 127.518C40.9211 127.102 41.4353 126.902 42.0339 126.924C42.8781 126.954 44.1137 127.273 45.7484 127.882C45.994 127.979 46.1398 128.209 46.1245 128.455C46.1015 128.759 45.9249 128.908 45.5873 128.885ZM53.0316 152.704L42.9779 153.417C42.7477 153.432 42.6172 153.165 42.7784 153.001L46.1091 149.562C46.1629 149.502 46.2396 149.48 46.3164 149.48L49.4322 149.74C49.4783 149.747 49.5243 149.762 49.555 149.784L53.1621 152.258C53.354 152.392 53.2695 152.682 53.0316 152.704ZM50.8213 145.616C49.8927 145.743 49.7469 145.468 50.3762 144.799C51.8421 143.232 53.5919 141.723 55.618 140.282C55.8329 140.126 56.017 140.156 56.1782 140.364C56.8152 141.174 57.6517 141.761 58.6878 142.125C59.9848 142.578 61.0055 143.44 61.7653 144.725C61.9418 145.015 61.8574 145.148 61.5121 145.134C57.8666 144.985 54.3056 145.148 50.8213 145.616ZM69.7009 150.869C68.895 151.352 68.0201 151.627 67.0915 151.679C65.687 151.761 64.3056 151.984 62.9472 152.362C62.2488 152.556 61.5351 152.57 60.8137 152.414C60.5681 152.362 60.499 152.221 60.5988 151.998C61.2741 150.475 62.4714 150.148 63.5075 149.116C63.8989 148.722 64.4821 148.559 65.0424 148.685C66.4852 149.019 68.0278 149.576 69.6702 150.356C70.0002 150.512 70.0155 150.683 69.7009 150.869ZM74.2596 143.202C74.1751 143.514 73.9679 143.692 73.6379 143.737L67.1222 144.584C66.7999 144.621 66.7231 144.51 66.8996 144.249C68.0355 142.533 69.5243 141.189 71.3586 140.2C71.5965 140.074 71.819 140.044 72.0339 140.119C73.5842 140.646 74.651 141.664 74.2596 143.202ZM75.2573 135.334C74.7738 135.758 74.2212 135.929 74.0216 135.713C73.8298 135.498 74.0677 134.985 74.5512 134.569C75.0347 134.145 75.5873 133.975 75.7868 134.19C75.9787 134.405 75.7408 134.918 75.2573 135.334ZM77.0147 127.697L68.1429 129.056C68.0585 129.064 67.9817 129.012 67.9741 128.93L67.9587 128.841C67.6824 127.147 69.4706 125.468 71.9649 125.082L72.1183 125.059C74.6049 124.68 76.8536 125.743 77.1299 127.437L77.1452 127.526C77.1529 127.608 77.0992 127.682 77.0147 127.697ZM79.3862 116.092C79.816 116.003 80.0078 116.166 79.9695 116.59L79.9388 116.842C79.885 117.37 79.5167 117.823 78.9948 117.986C77.3524 118.521 75.8252 119.049 74.0754 119.279C70.2918 119.792 66.5696 120.631 62.7707 120.609C60.7599 120.594 58.7338 121.293 56.9994 121.285C51.09 121.255 45.0193 121.419 39.2634 120.862C36.5696 120.602 33.9219 120.297 31.3048 119.933C30.8597 119.874 30.476 119.599 30.2918 119.197L29.7392 117.994C29.532 117.556 29.6702 117.414 30.1383 117.563C31.3432 117.949 32.5251 118.217 33.6993 118.373C48.1813 120.252 63.4077 119.487 79.3862 116.092ZM84.6586 82.8304L86.2012 81.2777C86.3854 81.092 86.7078 81.196 86.7385 81.456C86.7845 81.924 86.5236 82.667 85.948 83.6923C85.7254 84.086 85.4261 84.1603 85.0424 83.9151L84.7738 83.7517C84.3517 83.4917 84.3133 83.1796 84.6586 82.8304ZM78.3041 95.2227L73.0086 97.5704C72.387 97.8453 72.2258 97.6893 72.5174 97.0875C73.4154 95.2524 74.5896 93.4025 76.0324 91.5303C76.255 91.248 76.4775 91.248 76.7001 91.5229C77.0454 91.9463 77.1452 92.459 77.0071 93.0682C76.938 93.3505 77.0608 93.5065 77.3601 93.5437C78.1045 93.618 78.519 94.0191 78.588 94.7472C78.6111 94.9701 78.5113 95.1261 78.3041 95.2227ZM89.2557 88.4025C88.7262 90.5496 82.4253 93.4991 80.3532 94.4203C80.0155 94.5689 79.9004 94.4723 80.0078 94.1306C80.4913 92.6076 80.5451 90.9954 80.1844 89.3015C79.6548 86.7978 80.7139 84.8438 83.377 83.4397C83.7684 83.2391 83.8375 83.3134 83.5995 83.6774C82.6402 85.141 82.2718 86.5229 82.4791 87.823C82.6095 88.6105 83.4844 89.0489 84.2212 88.6997C85.2112 88.2316 86.2089 87.667 87.2296 87.0206C88.235 86.3817 89.5397 87.2658 89.2557 88.4025ZM92.9395 83.878L91.5428 86.3594C91.4123 86.5897 91.1207 86.7012 90.8597 86.612L88.3655 85.7948C87.9971 85.6759 87.8589 85.2376 88.0969 84.9404L88.8413 83.9969C88.918 83.8928 89.0332 83.826 89.1636 83.7963L92.3179 83.083C92.7937 82.9716 93.1774 83.4619 92.9395 83.878ZM94.5128 79.8438C94.4514 80.4085 93.8144 80.7205 93.3156 80.4307L92.1183 79.7398C91.9188 79.6209 91.6962 79.5541 91.466 79.5466L91.1283 79.5318C90.5681 79.5021 90.5297 79.346 91.0132 79.0712L94.1982 77.2064C94.6356 76.9538 94.8198 77.0726 94.7661 77.563L94.5128 79.8438Z" fill="black"/>
</g>
<defs>
<clipPath id="clip0_2071_122">
<rect width="100" height="160" fill="white"/>
</clipPath>
</defs>
</svg>
