<svg width="619" height="654" viewBox="0 0 619 654" fill="none" xmlns="http://www.w3.org/2000/svg">
<path fill-rule="evenodd" clip-rule="evenodd" d="M179.883 115.805C179.883 132.536 182.552 148.977 184.685 162.123C186.034 170.438 187.17 177.434 187.281 182.352C136.867 155.676 67.7569 127.001 25.6328 183.331C9.77852 204.521 1.10685 230.4 0 256.049V267.197C1.09889 292.679 9.79445 317.149 26.4848 335.758C39.8785 350.697 64.1417 372.523 88.7233 374.57C85.344 379.613 82.3181 381.865 78.7414 384.527C76.7389 386.018 74.5633 387.637 72.0569 389.946C46.1294 413.835 32.043 428.208 32.043 463.301C32.043 532.396 117.924 598.998 197.927 565.116C208.963 560.442 216.386 554.983 224.154 549.271L224.156 549.269C227.334 546.932 230.57 544.552 234.135 542.166C234.135 613.037 262.396 653.074 332.716 653.074C351.947 653.074 371.353 646.887 384.476 640.764C399.008 633.987 409.87 624.161 420.874 613.069C450.927 582.769 451.006 552.916 451.006 515.068C455.754 516.175 461.836 519.132 468.985 522.607C497.482 536.461 542.925 558.552 588.328 504.517C623.197 463.03 626.16 399.637 593.973 354.814L572.346 332.103C569.122 329.29 565.207 326.802 561.339 324.344C555.749 320.792 550.26 317.304 547.111 312.992C568.723 307.952 603.266 280.073 612.041 259.64C637.523 200.205 586.369 108.448 492.884 108.448C457.91 108.448 424.933 130.61 402.366 145.776L402.362 145.779C401.294 146.496 400.251 147.197 399.231 147.88C399.231 145.24 399.237 142.597 399.243 139.954C399.358 87.8089 399.473 35.7653 354.758 12.4302C341.455 5.45105 326.882 1.22356 311.909 0H293.379C233.41 4.82556 179.883 55.8841 179.883 115.805ZM355.777 35.5705C379.801 52.1415 384.778 112.445 377.277 165.136H377.309C343.742 193.257 308.45 233.255 301.697 271.442C300.465 264.352 299.442 257.032 298.627 249.639C295.139 218.042 295.442 185.211 299.304 163.018C302.378 164.069 305.38 164.3 307.768 163.368C312.785 161.425 315.039 155.628 310.579 144.106C309.881 142.266 309.007 140.498 307.968 138.826C304.528 133.411 300.275 131.285 296.644 130.616C294.018 130.132 291.312 130.343 288.793 131.23C288.479 131.343 288.178 131.487 287.893 131.66C279.659 136.867 280.145 144.353 284.341 151.002C286.463 154.22 289.163 157.017 292.304 159.251C287.917 182.153 287.423 217.023 291.102 250.467C291.992 258.525 293.126 266.506 294.51 274.225C292.847 274.881 291.236 275.669 289.692 276.586L260.843 240.657C249.758 225.615 231.977 210.27 211.273 196.661C202.45 164.26 198.381 131.755 200.061 109.754C205.508 38.7557 293.109 -7.59669 355.777 35.5705ZM297.798 290.056C288.258 295.554 281.965 307.909 280.343 321.095C280.042 323.544 279.902 326.021 279.932 328.488C280.067 339.512 283.599 350.339 291.343 357.529C293.094 359.154 295.061 360.594 297.252 361.808C297.326 361.849 297.401 361.89 297.476 361.931C305.077 366.06 315.35 367.493 328.678 364.605C330.116 364.293 331.589 363.931 333.099 363.517C334.1 363.242 335.053 362.922 335.958 362.56C335.979 362.551 335.999 362.543 336.019 362.535C347.51 357.898 351.308 346.403 349.923 333.802C349.653 331.348 349.187 328.852 348.543 326.357C346.642 318.991 343.19 311.63 338.665 305.365C337.276 303.443 335.787 301.624 334.211 299.94C334.081 299.802 333.951 299.664 333.82 299.527C332.059 297.688 330.194 296.018 328.241 294.558C319.584 288.089 311.703 286.179 304.934 287.413C302.648 287.829 300.489 288.604 298.469 289.683C298.244 289.803 298.02 289.928 297.798 290.056ZM371.593 279.496C373.008 278.526 374.434 277.564 375.868 276.609C402.361 259.003 431.656 244.2 453.156 237.456C453.626 240.673 454.797 243.436 456.724 245.14C460.793 248.691 466.94 248.03 475.126 238.769C476.431 237.317 477.591 235.741 478.59 234.063C481.847 228.497 481.791 223.759 480.732 220.232C479.95 217.67 478.518 215.355 476.575 213.511C476.31 213.264 476.016 213.05 475.699 212.874C467.314 208.009 460.944 211.871 456.963 218.639C455.075 221.991 453.822 225.662 453.268 229.469C430.892 236.086 399.653 251.661 371.679 270.263C362.726 276.214 354.091 282.489 346.164 288.895C345.871 289.063 345.58 289.234 345.29 289.406H345.282C338.872 282.614 329.26 276.307 320.414 273.584C330.765 218.599 417.442 150.022 465.65 132.663C532.499 108.591 610.918 169.173 597.198 244.296C593.057 266.974 557.646 289.82 523.604 304.488C482.159 286.505 418.072 269.538 371.593 279.496ZM378.312 341.56C382.649 342.972 387.01 344.487 391.363 346.086C421.209 357.059 450.457 371.966 468.604 385.32C466.287 387.597 464.75 390.185 464.511 392.757C464.017 398.108 468.206 402.703 480.517 403.85C482.452 404.041 484.402 404.041 486.338 403.85C492.764 403.197 496.562 400.346 498.784 397.4C500.386 395.267 501.412 392.758 501.762 390.113C501.794 389.761 501.794 389.407 501.762 389.054C500.759 379.403 493.855 376.497 486.043 377.293C482.208 377.735 478.488 378.882 475.07 380.677C456.532 366.559 425.525 350.553 393.967 338.951C384.004 335.286 373.969 332.054 364.235 329.452C361.598 318.85 358.96 310.656 356.319 304.87H356.303C404.964 277.422 519.543 315.063 559.358 345.903C618.523 391.73 606.889 488.623 538.487 517.449C517.417 526.328 478.646 509.263 447.821 488.854C439.559 440.993 416.241 372.707 378.312 341.56ZM336.44 393.054C337.085 395.928 337.7 398.826 338.283 401.74C344.518 432.914 347.082 465.65 345.179 488.09C342.025 487.31 339.039 487.349 336.714 488.48C331.888 490.861 330.152 496.833 335.615 507.926C336.472 509.693 337.498 511.374 338.681 512.942C342.583 518.015 346.994 519.751 350.673 520.109C353.338 520.36 356.022 519.912 358.461 518.811C358.768 518.67 359.059 518.496 359.329 518.293C367.077 512.401 365.946 504.987 361.168 498.72C358.781 495.708 355.86 493.16 352.552 491.203C354.917 468.007 352.361 433.185 345.768 400.234C344.18 392.295 342.354 384.452 340.305 376.892C350.732 372.667 359.439 365.255 363.119 353.619C408.46 386.387 436.02 491.156 432.691 542.055C428.033 612.989 341.117 660.536 277.764 617.926C259.226 605.48 251.582 567.258 252.107 526.352H252.123C286.87 493.954 328.683 440.394 336.44 393.054ZM269.946 381.327C268.14 383.147 266.306 384.957 264.45 386.753C241.612 408.858 215.47 428.718 195.563 439.261C194.519 436.179 192.863 433.671 190.665 432.333C186.047 429.522 180.075 431.298 173.704 441.889C172.696 443.546 171.848 445.295 171.172 447.113C168.958 453.188 169.882 457.839 171.57 461.151C172.796 463.539 174.631 465.561 176.889 467.012C177.179 467.19 177.486 467.34 177.805 467.458C186.939 470.755 192.545 465.794 195.228 458.396C196.475 454.762 197.04 450.928 196.892 447.089C217.684 436.522 245.586 415.531 269.745 392.144C275.88 386.207 281.78 380.107 287.272 373.974C295.644 379.322 306.241 382.068 318.821 381.322C316.313 437.215 243.635 517.863 199.289 542.955C137.512 577.864 49.9517 531.385 50.8834 454.94C51.1621 432.134 79.0961 405.02 113.52 383.273H113.6C159.044 394.405 226.019 400.137 269.946 381.327ZM265.638 318.257C256.648 316.256 247.367 313.74 238.108 310.85C207.762 301.374 177.805 287.925 159.02 275.495C161.226 273.098 162.635 270.446 162.747 267.866C162.978 262.499 158.566 258.111 146.208 257.586C144.279 257.487 142.346 257.575 140.435 257.849C134.056 258.804 130.385 261.854 128.299 264.928C126.797 267.141 125.897 269.707 125.687 272.373C125.661 272.707 125.661 273.043 125.687 273.376C127.152 283.012 134.208 285.576 141.995 284.397C145.785 283.742 149.422 282.392 152.722 280.416C171.936 293.618 203.716 308.063 235.815 318.089C245.617 321.15 255.464 323.805 265.012 325.891C264.673 337.527 267.148 349.161 272.747 358.723C225.439 388.569 116.235 371.679 70.6471 348.117C7.3017 315.381 -1.2107 216.688 62.9947 175.774C100.222 152.053 212.85 207.555 245.498 251.884L276.107 289.987C270.588 298.081 267.025 307.99 265.638 318.257Z" fill="#6C2C00"/>
</svg>
