<svg width="101" height="100" viewBox="0 0 101 100" fill="none" xmlns="http://www.w3.org/2000/svg">
<g clip-path="url(#clip0_2039_397)">
<path d="M97.5799 56.2313C93.4431 52.8604 87.3929 53.1475 82.2829 52.6477C79.4182 52.3606 77.3609 51.0633 76.1331 48.7345C75.9119 48.3091 76.1884 47.7881 76.6751 47.7243C82.8138 46.8629 88.7202 45.1828 94.3723 42.6945C96.7503 41.6524 98.3652 40.5997 99.2169 39.5256C102.579 35.304 98.8518 29.0833 93.963 27.9136C91.1204 27.2436 88.0013 27.9986 85.2582 29.0301C81.0109 30.6252 76.5424 32.3266 71.8526 34.1237C71.1779 34.3789 70.47 33.8366 70.5917 33.1454C70.6691 32.72 70.9014 32.3478 71.2885 32.0182C75.0602 28.8812 80.8007 24.1386 82.8691 20.6613C85.3246 16.5035 82.6811 11.2611 78.0577 10.0807C74.8833 9.26192 72.0075 9.91058 69.4303 12.0161C66.4992 14.4193 63.4133 17.0671 60.1504 19.9701C59.4204 20.6188 59.0664 20.4699 59.0775 19.5022C59.1549 15.6209 59.2323 11.8353 59.3098 8.12411C59.5089 -1.0422 43.9685 -3.76445 43.5814 6.90122C43.4929 9.38953 43.5814 11.7183 43.8026 13.8982C44.3335 18.7579 44.8866 23.66 45.4728 28.6048C45.5502 29.264 45.4286 29.9021 45.1078 30.5188C44.8092 31.0931 44.599 31.0612 44.4773 30.4338C42.774 21.9586 38.9691 15.2594 31.2045 10.4316C27.654 8.23045 24.3136 8.02841 21.1945 9.83615C14.9341 13.441 17.2127 19.9595 21.3162 24.0429C23.8601 26.5631 26.2824 29.1152 28.5831 31.6992C30.032 33.3155 29.6891 33.8153 27.5655 33.2092C22.9863 31.88 18.0533 30.3168 12.7552 28.5303C8.2424 27.0097 4.72509 26.4142 2.26961 30.8272C-0.84951 36.4737 3.19872 42.2479 9.08302 43.5027C11.8371 44.0875 17.5113 44.8957 26.0833 45.9059C27.0899 46.0229 27.665 46.5546 27.8199 47.5116L27.8973 47.937C28.0522 48.8834 27.6319 49.3831 26.6253 49.4257C20.7963 49.6915 15.0337 50.3827 9.35954 51.4886C4.09463 52.5095 -0.915874 54.9552 0.875963 61.0697C3.87342 71.3313 17.3454 68.7898 24.7118 65.6103C25.84 65.1211 26.7138 64.8128 27.3222 64.6745C28.5278 64.4087 29.4679 64.3661 30.1537 64.5575C33.4498 65.4614 33.5825 66.6949 30.5629 68.2581C26.6806 70.2572 19.0266 74.3619 16.4605 77.4669C13.6622 80.8591 15.8411 85.74 18.7722 88.1645C22.8536 91.5248 28.9702 90.9612 32.9189 87.686C35.8389 85.2721 38.77 82.8795 41.7232 80.5082C42.8072 79.6362 43.2828 78.3389 44.0681 77.4244C44.9087 76.4355 45.2516 76.5843 45.0967 77.8498C44.411 83.6558 43.6588 90.4508 45.5502 95.8846C48.2822 103.711 58.6572 99.1173 59.3651 92.6413C59.708 89.515 59.8186 86.3993 59.719 83.2836C59.6858 82.1352 61.0463 81.4652 61.9975 82.1458C64.9507 84.2619 67.9039 86.4631 70.8461 88.7494C74.1422 91.3334 80.3694 93.3751 83.6544 89.9191C84.86 88.643 85.7559 87.0373 86.3643 85.1126C87.0832 82.8264 86.4638 80.6677 84.5061 78.6473C82.482 76.5524 79.5398 73.9791 75.7018 70.9059C74.474 69.917 73.4675 68.8111 72.7043 67.5882C72.0738 66.5673 72.826 65.2806 74.0648 65.27C74.7616 65.27 76.1552 65.2487 76.8742 65.4614C82.482 67.1309 87.5035 68.1837 91.9278 68.6409C99.4602 69.4172 103.641 61.1547 97.5799 56.2313ZM61.7542 65.1849C54.7859 69.9808 44.8313 68.088 39.5221 60.9527C34.213 53.8174 35.5513 44.1407 42.5196 39.3449C49.4878 34.549 59.4425 36.4418 64.7516 43.5771C70.0608 50.7124 68.7224 60.3891 61.7542 65.1743V65.1849Z" fill="black"/>
<path d="M59.9183 61.2184C55.1179 65.1955 47.7847 64.5468 43.5152 59.7829C39.2568 55.0189 39.6882 47.9475 44.4886 43.9811C49.2889 40.004 56.6222 40.6527 60.8916 45.4166C65.15 50.1806 64.7186 57.252 59.9183 61.2184Z" fill="black"/>
</g>
<defs>
<clipPath id="clip0_2039_397">
<rect width="100" height="100" fill="white" transform="translate(0.5)"/>
</clipPath>
</defs>
</svg>
