<svg width="667" height="678" viewBox="0 0 667 678" fill="none" xmlns="http://www.w3.org/2000/svg">
<path fill-rule="evenodd" clip-rule="evenodd" d="M256.28 150.29C251.441 147.046 246.546 143.274 241.69 139.531C229.368 130.037 217.297 120.734 207.029 120.734C179.684 120.734 189.066 149.243 195.847 169.846C197.405 174.579 198.825 178.895 199.631 182.352C169.555 179.851 137.281 163.886 111.665 149.552C110.741 149.035 109.587 148.335 108.248 147.522L108.247 147.522C97.2164 140.83 73.5847 126.494 62.0394 143.421C53.172 156.42 60.6375 168.23 69.6752 182.528C71.1232 184.818 72.6115 187.173 74.0794 189.606C77.0064 194.447 79.7089 199.2 82.4599 204.039C85.5241 209.428 88.6489 214.925 92.2111 220.765C96.1065 227.148 100.302 232.247 104.362 237.181C107.514 241.012 110.584 244.743 113.369 248.898C79.98 249.639 87.2183 286.937 110.908 293.26V298.189C105.529 298.637 100.639 299.929 94.9228 301.439C84.7741 304.121 72.0196 307.492 49.2907 308.047C38.7542 308.32 28.2508 309.348 17.8609 311.121C5.54223 313.454 0 318.988 0 332.693C0 348.809 18.3997 356.221 32.5098 361.905C34.9786 362.9 37.3161 363.841 39.4007 364.767C43.3502 366.522 48.0396 369.015 53.0926 371.7C65.4408 378.263 79.9604 385.98 91.16 386.912C89.9022 391.624 85.2102 395.066 80.3295 398.646C72.3248 404.518 63.8126 410.763 69.1106 423.59C72.4391 431.632 77.4637 434.865 87.9191 436.976C93.8798 438.179 99.7609 439.649 105.609 441.112L105.61 441.112C109.012 441.962 112.402 442.81 115.789 443.601C106.842 456.96 92.1355 467.63 78.8205 477.291C63.0568 488.728 49.243 498.751 49.243 510.147C49.243 538.465 78.545 533.56 103.375 529.403C108.568 528.534 113.566 527.697 118.059 527.204C131.732 525.702 142.954 522.938 154.621 520.065C158.045 519.222 161.507 518.37 165.08 517.537C163.981 522.259 162.675 525.07 161.468 527.668C159.434 532.048 157.683 535.819 157.683 547.111C157.683 552.088 164.403 561.898 174.938 561.898C183.807 561.898 189.134 559.504 194.585 557.055C199.413 554.885 204.337 552.672 211.902 552.04C210.538 568.455 205.552 584.742 201.097 599.292C191.673 630.079 184.628 653.09 219.3 653.09C226.589 653.09 246.775 633.327 263.534 616.92C273.101 607.552 281.552 599.279 285.846 596.402C287.662 604.23 290.202 608.346 294.542 614.812C307.474 633.971 322.261 629.05 334.357 607.94C339.74 598.56 344.159 592.062 352.393 586.544L369.115 636.36C369.294 637.009 369.477 637.678 369.665 638.365L369.667 638.372C373.84 653.64 380.435 677.768 396.755 677.768C417.792 677.768 422.007 656.551 425.526 638.838C425.737 637.777 425.945 636.729 426.154 635.699C426.993 631.567 427.951 627.268 428.935 622.853C432.398 607.317 436.179 590.355 436.179 574.257C438.862 576.052 441.723 578.905 444.715 581.89C450.523 587.684 456.829 593.973 463.293 593.973C485.067 593.973 483.698 575.451 482.585 560.397C481.484 545.513 480.634 534.019 502.654 547.175C505.598 548.935 510.382 552.597 516.183 557.037C544.325 578.579 596.385 618.43 578.183 548.131C572.887 527.714 565.442 511.501 556.946 495.392C575.722 495.392 590.979 490.041 594.714 473.892C597.921 460.059 590.191 450.679 582.904 441.835C580.673 439.127 578.484 436.47 576.662 433.751C579.231 433.751 582.388 433.824 585.967 433.907C615.258 434.587 672.753 435.923 666.452 403.061C662.988 385.009 610.051 347.639 598.847 345.027V340.098C623.544 338.042 623.537 324.299 623.532 313.497L623.532 313.024C623.532 302.839 611.395 297.839 599.527 292.949C591.157 289.5 582.921 286.107 579.17 280.989L624.933 255.245C627.681 253.609 630.554 252.092 633.423 250.577C646.984 243.415 660.48 236.288 660.48 216.847C660.48 195.644 595.027 198.045 562.847 199.225C557.236 199.431 552.636 199.6 549.572 199.6C550.086 197.674 551.7 195.017 553.611 191.873C559.071 182.888 566.951 169.92 558.498 158.63C552.349 150.412 542.806 152.329 530.623 154.776C523.764 156.153 516.069 157.699 507.671 157.699C509.68 153.514 511.482 149.382 513.278 145.264L513.279 145.263C515.413 140.371 517.538 135.5 519.989 130.585C523.3 123.959 526.49 118.305 529.76 112.511L529.762 112.509C531.407 109.592 533.073 106.64 534.785 103.511C535.647 101.93 536.715 100.188 537.853 98.3344C541.873 91.7807 546.754 83.8251 546.419 76.6435C546.082 71.1925 543.662 66.0798 539.66 62.3637C535.657 58.6476 530.38 56.6127 524.919 56.6804C504.161 56.6804 451.771 96.6062 428.081 114.66C421.9 119.371 417.672 122.592 416.471 123.227C401.333 58.2201 379.995 88.4601 367.313 106.433C364.218 110.819 361.639 114.475 359.791 115.837C342.21 82.6111 337.415 55.1117 333.952 35.257C330.017 12.6909 327.804 0 310.5 0C293.531 0 286.603 20.0162 278.264 44.1092L278.264 44.1106C276.226 50.0005 274.103 56.134 271.728 62.2783C263.77 82.8738 256.289 122.931 256.28 150.29ZM256.28 150.29V150.341L256.32 150.317L256.28 150.29ZM325.245 280.957C316.521 280.232 308.077 280.981 301.351 284.389H301.327C271.784 223.68 267.659 123.1 291.501 64.2612C297.195 50.213 301.105 39.5205 303.871 31.9532C307.434 22.2089 309.102 17.6465 310.249 17.774C311.258 17.8862 311.864 21.6339 313.002 28.6814C313.603 32.4023 314.353 37.043 315.389 42.5541C319.506 64.4284 324.921 93.1508 337.901 114.651C349.176 133.284 362.968 170.702 368.16 207.817C372.635 239.876 371.799 265.987 355.65 287.973C349.912 285.963 343.266 283.975 336.414 282.588C336.66 252.895 335.52 226.62 332.996 203.764C330.389 180.183 326.307 160.109 320.749 143.54C320.515 142.843 320.147 142.198 319.665 141.643C319.182 141.088 318.595 140.633 317.937 140.305C317.279 139.977 316.563 139.781 315.829 139.73C315.096 139.678 314.359 139.772 313.661 140.005C312.964 140.238 312.319 140.606 311.764 141.089C311.209 141.571 310.754 142.158 310.426 142.816C310.098 143.474 309.902 144.191 309.851 144.924C309.799 145.658 309.893 146.394 310.126 147.092C315.429 162.864 319.339 182.163 321.855 204.991C324.298 227.137 325.428 252.459 325.245 280.957ZM484.471 171.698C481.814 183.728 478.984 196.541 466.423 223.433C441.467 232.502 416.891 244.521 395.627 259.085C399.085 252.936 401.549 247.488 403.802 242.496C409.902 229.007 414.289 219.308 436.036 207.642C437.343 206.94 438.318 205.747 438.746 204.326C439.174 202.905 439.02 201.373 438.317 200.065C437.615 198.758 436.422 197.783 435.002 197.356C433.581 196.928 432.048 197.082 430.741 197.784C405.649 211.249 400.609 222.39 393.593 237.901L393.534 238.033C390.966 243.676 388.105 249.962 383.665 257.279C386.032 241.313 385.441 223.549 382.939 205.771C382.613 203.463 382.321 201.876 382.11 200.729C381.807 199.077 381.672 198.341 381.843 197.685C381.981 197.158 382.318 196.682 382.924 195.825C383.211 195.419 383.559 194.927 383.974 194.304C409.942 155.501 444.883 120.496 479.92 100.508C486.337 96.8453 491.986 93.5874 496.934 90.7338L496.938 90.7316C516.948 79.1922 525.496 74.2632 526.974 75.8638C528.077 77.0573 525.249 81.8816 520.313 90.3018L520.313 90.3032L520.312 90.3041C518.333 93.6803 516.015 97.6346 513.476 102.165C490.953 142.346 487.852 156.388 484.471 171.698ZM417.786 303.681C437.529 297.736 455.305 291.56 471.113 285.154C493.096 276.241 511.307 266.855 525.747 256.997C526.973 256.16 527.816 254.871 528.092 253.413C528.367 251.955 528.052 250.447 527.216 249.221C526.38 247.995 525.091 247.151 523.632 246.876C522.174 246.6 520.666 246.915 519.44 247.752C505.675 257.137 488.156 266.143 466.885 274.77C445.475 283.444 420.291 291.715 391.332 299.583C390.622 299.775 389.957 300.105 389.374 300.555C388.792 301.004 388.304 301.564 387.938 302.202C387.825 302.399 387.725 302.602 387.637 302.81C383.444 300.254 379.111 297.932 374.657 295.856C421.081 247.64 511.692 217.19 576.988 217.684C624.67 218.042 641.233 219.634 641.289 222.023C641.276 224.193 630.361 230.229 616.127 238.1C596.031 249.214 569.32 263.986 557.336 276.697C547.589 287.033 530.405 300.554 510.083 312.857C510.063 312.86 509.907 312.825 509.625 312.756C509.445 312.713 509.214 312.656 508.933 312.587L508.932 312.587C501.648 310.794 460.962 300.78 417.786 303.681ZM408.173 342.662C408.125 342.891 408.075 343.119 408.022 343.347C440.67 357.68 470.181 382.74 495.097 411.351C526.14 412.908 541.075 410.244 554.903 407.778C573.038 404.543 589.269 401.648 637.435 409.057C643.167 409.94 647.665 410.879 650.894 411.553C654.698 412.348 656.742 412.775 656.972 412.309C657.238 411.767 655.056 410.021 650.34 406.246C644.99 401.965 636.38 395.074 624.384 384.372C573.723 339.286 475.229 309.935 405.155 319.912C406.954 323.448 408.116 327.238 408.62 331.113C430.586 337.962 444.515 338.183 456.014 338.354C473.047 338.617 485.27 338.808 507.607 356.462C508.182 356.916 508.662 357.48 509.019 358.119C509.377 358.759 509.605 359.463 509.69 360.191C509.775 360.919 509.717 361.657 509.517 362.362C509.317 363.067 508.981 363.726 508.526 364.302C508.072 364.877 507.509 365.357 506.869 365.714C506.229 366.072 505.525 366.3 504.797 366.385C504.069 366.47 503.331 366.412 502.626 366.212C501.921 366.012 501.262 365.676 500.687 365.221C481.321 349.916 470.69 349.749 455.887 349.526C444.116 349.347 429.967 349.129 408.173 342.662ZM389.517 372.476C419.872 415.846 428.804 473.866 430.405 484.266L430.406 484.271C430.561 485.282 430.647 485.842 430.677 485.892C449.788 499.979 468.899 510.697 482.15 515.761C517.381 529.198 539.106 550.068 551.96 562.416C558.15 568.362 562.284 572.333 564.877 572.545C565.268 572.575 565 572.03 564.504 571.02C563.828 569.643 562.729 567.402 562.297 564.582C554.86 515.395 503.562 439.372 467.267 403.213C448.411 384.444 426.712 367.849 402.425 357.147L397.242 363.302C397.244 363.305 397.246 363.307 397.248 363.31C414.766 387.581 431.388 408.232 447.112 425.262C462.687 442.143 477.286 455.357 490.908 464.902C492.121 465.746 492.949 467.039 493.21 468.494C493.471 469.949 493.142 471.448 492.298 472.661C491.453 473.875 490.161 474.703 488.706 474.963C487.25 475.224 485.751 474.896 484.538 474.051C470.204 464.002 454.995 450.266 438.91 432.843C423.468 416.104 407.113 395.852 389.845 372.086L389.517 372.476ZM334.444 511.119C344.164 538.042 350.707 548.548 357.14 558.877C364.936 571.396 372.571 583.655 385.503 624.567C387.004 629.317 388.326 633.683 389.509 637.592L389.512 637.601L389.514 637.608L389.515 637.61L389.516 637.616C399.537 670.723 399.613 670.975 414.966 593.265C427.603 529.441 415.507 435.662 377.341 381.179L371.121 383.955C371.608 384.796 371.87 385.757 371.87 386.745C371.87 412.521 376.465 426.85 380.206 438.52L380.255 438.672C385.463 454.892 389.198 466.542 379.634 493.337C379.135 494.739 378.099 495.884 376.755 496.522C375.411 497.159 373.869 497.237 372.467 496.738C371.066 496.238 369.921 495.203 369.283 493.858C368.645 492.514 368.568 490.972 369.067 489.571C377.38 466.305 374.132 456.184 369.61 442.091L369.609 442.088L369.585 442.013C367.115 434.303 364.298 425.509 362.512 413.337C359.665 445.448 348.846 480.361 334.404 511.119H334.444ZM240.418 478.574C233.59 506.095 233.136 518.884 232.678 531.75C232.137 546.96 231.593 562.276 220.51 602.167C219.187 606.923 217.923 611.222 216.805 615.027L216.804 615.029L216.804 615.031C213.355 626.765 211.288 633.797 213.104 635.008C215.82 636.821 227.225 625.608 255.689 597.622L255.691 597.621L255.692 597.62L260.325 593.066C307.864 546.379 351.541 457.91 348.276 390.567C345.322 390.819 342.356 390.826 339.408 390.589C339.306 390.79 339.19 390.984 339.063 391.173C322.224 415.937 308.483 438.608 297.839 459.184C287.312 479.554 279.88 497.789 275.543 513.89C275.159 515.325 274.222 516.549 272.936 517.293C271.65 518.036 270.122 518.239 268.686 517.855C267.251 517.472 266.027 516.534 265.284 515.249C264.54 513.963 264.338 512.434 264.721 510.999C269.265 494.15 276.989 475.171 287.893 454.064C291.209 447.651 294.824 441.035 298.738 434.214C281.644 450.801 261.464 465.901 240.418 478.574ZM180.385 399.223C158.45 419.165 150.93 429.842 143.852 439.892C134.871 452.643 126.602 464.384 90.499 492.756C86.4078 495.971 82.7331 498.749 79.5847 501.128C71.5966 507.166 66.9957 510.643 67.5742 512.217C68.3598 514.355 78.7007 512.983 103.087 509.747C108.544 509.022 114.704 508.205 121.618 507.312C190.585 498.402 284.063 445.639 319.673 384.778C317.449 383.549 315.328 382.148 313.329 380.588C290.823 392.449 280.346 403.045 271.792 411.701C259.848 423.821 251.216 432.524 223.019 436.386C221.549 436.59 220.058 436.202 218.875 435.306C217.691 434.411 216.912 433.082 216.708 431.612C216.505 430.143 216.893 428.652 217.788 427.468C218.683 426.285 220.012 425.506 221.482 425.302C245.928 421.918 253.406 414.353 263.821 403.802L263.938 403.685C268.574 399.02 273.767 393.795 280.959 388.109C250.539 397.6 214.836 400.866 180.385 399.223ZM174.58 299.893C145.365 304.262 133.274 308.908 121.855 313.297C107.421 318.844 94.06 323.979 48.5504 327.62C43.6995 328.008 39.4113 328.305 35.693 328.563L35.6893 328.563C24.1005 329.365 18.0439 329.785 17.7126 331.387C17.35 333.142 23.8465 336.313 37.4544 342.957L37.4566 342.958L37.4576 342.959L37.4587 342.959L37.4612 342.96C45.0769 346.679 54.9196 351.484 67.0325 357.736C126.476 388.386 237.512 395.743 299.79 364.656C297.622 360.843 295.794 356.846 294.327 352.712C285.323 351.757 276.064 349.891 266.689 347.243C247.986 344.923 230.782 343.484 215.079 342.925C192.146 342.113 172.48 343.174 156.082 346.11C154.624 346.371 153.121 346.042 151.906 345.195C150.69 344.348 149.861 343.053 149.6 341.595C149.339 340.137 149.668 338.635 150.515 337.419C151.362 336.203 152.657 335.374 154.115 335.113C171.304 332.008 191.756 330.874 215.47 331.713C219.514 331.856 223.655 332.057 227.893 332.315C209.53 323.477 191.426 312.352 174.58 299.893ZM270.51 240.912C238.658 217.341 194.576 199.162 168.752 194.726C143.397 190.356 117.931 175.441 98.7896 164.23L98.7731 164.22C86.6376 157.085 77.4961 151.726 77.1616 151.925C76.8272 152.124 82.8074 163.575 99.6252 195.507C132.528 257.96 219.149 326.553 290.179 337.184C289.27 332.314 288.065 324.321 287.748 316.276C271.063 303.476 258.847 298.517 248.652 294.391C232.877 288.02 221.577 283.426 207.085 258.892C206.33 257.614 206.113 256.089 206.483 254.651C206.853 253.214 207.778 251.982 209.056 251.227C210.333 250.472 211.859 250.256 213.296 250.626C214.733 250.995 215.965 251.921 216.72 253.198C229.252 274.456 239.117 278.448 252.849 284.004L252.906 284.027C262.415 287.88 273.612 292.416 288.326 302.81C288.751 300.112 289.405 297.665 290.354 295.641C281.945 279.516 275.312 260.875 270.51 240.927V240.912ZM302.812 315.176C302.73 312.992 302.688 310.738 302.688 308.414V308.39C302.688 304.95 303.357 302.417 304.552 300.658C306.742 297.441 311.288 295.944 317.093 295.641C324.292 295.275 333.035 296.756 341.954 299.256C362.777 305.117 383.497 315.899 388.354 321.552C395.967 330.415 394.9 341.062 388.991 350.506C383.083 359.95 372.659 368.128 360.961 372.523C349.662 376.768 337.303 377.349 327.095 371.839C314.478 365.035 304.652 348.686 302.95 318.143C303.077 317.58 303.118 316.995 303.065 316.409C303.027 315.986 302.942 315.573 302.812 315.176ZM222.903 488.475L222.939 488.456H222.907L222.903 488.475ZM222.903 488.475C220.133 501.646 218.369 515.008 217.628 528.446C214.293 529.642 210.848 530.83 207.364 532.032L207.363 532.032L207.347 532.038L206.886 532.197L205.151 532.799C195.419 536.181 185.467 539.639 176.388 543.735L176.451 543.544C180.385 532.037 186.31 516.406 192.68 502.726C202.892 498.495 213.009 493.723 222.903 488.475ZM463.906 574.663C461.422 552.216 464.615 537.596 469.345 526.575C458.882 521.797 446.252 514.63 433.153 505.871C433.95 514.073 434.459 522.291 434.682 530.453L437.867 540.184C438.56 541.474 451.906 561.946 462.831 573.628L463.906 574.663ZM507.679 426.608C519.876 442.188 531.012 458.57 541.012 475.644C544.436 475.883 547.796 476.034 551.037 476.074C559.358 476.169 566.637 475.508 571.653 473.685C574.591 472.618 576.431 471.224 576.431 469.448C576.511 466.407 574.384 461.844 569.352 455.378C564.319 448.912 559.239 442.374 556.006 438.122C552.024 432.875 548.975 428.845 548.298 427.667L548.059 427.229L544.332 424.729C532.176 426.144 519.94 426.772 507.703 426.608H507.679ZM564.733 330.957C573.782 329.057 582.728 326.7 591.537 323.894C597.397 321.959 602.239 319.912 605.209 317.818C605.641 317.514 606.211 317.959 606.555 318.227C606.806 318.424 606.936 318.525 606.802 318.168C606.451 317.157 603.744 315.516 597.883 313.096C589.388 309.575 580.885 305.381 572.588 301.288L572.537 301.263L572.019 301.008C567.841 298.953 563.717 296.925 559.749 295.052C550.195 303.447 540.065 311.163 529.434 318.144C541.408 321.785 553.183 326.054 564.71 330.933L564.733 330.957ZM514.535 209.601C523.443 199.641 531.781 189.185 539.507 178.283C541.219 175.806 542.692 173.505 543.926 171.419C535.334 173.505 525.779 175.129 516.271 176.73C510.052 177.781 503.857 178.832 498.099 179.971C494.81 192.634 490.597 205.039 485.494 217.086C495.121 214.172 504.836 211.663 514.535 209.601ZM377.493 177.471C385.002 166.923 393.066 156.783 401.652 147.092C399.343 135.227 395.943 119.166 392.893 107.158L392.097 104.06C384.731 115.208 376.728 127.861 369.864 140.029C369.073 141.425 368.301 142.808 367.547 144.177C371.441 155.093 374.758 166.206 377.485 177.471H377.493ZM261.703 179.222C252.944 171.92 226.363 151.679 208.638 139.861L207.436 139.065C210.772 150.882 215.399 167.541 219.181 181.269C219.768 183.457 220.341 185.58 220.889 187.606C221.828 191.079 222.69 194.269 223.409 197.02C238.239 203.512 252.546 211.139 266.202 219.834C265.109 213.426 264.193 206.947 263.455 200.396C262.664 193.373 262.08 186.307 261.703 179.199V179.222ZM158.773 287.527C152.037 281.953 145.507 276.124 139.248 270.128C130.823 269.538 119.006 268.925 109.172 268.726C114.81 273.591 121.371 279.261 126.969 284.15C130.736 287.447 134.136 290.425 136.572 292.647C143.437 290.783 150.906 289.04 158.773 287.527ZM127.248 392.789C116.952 398.021 106.162 403.937 97.5143 409.456C93.7908 411.753 90.2549 414.341 86.9395 417.196C99.2741 418.963 112.27 422.491 124.764 425.883C127.726 426.679 130.656 427.476 133.523 428.272C141.662 417.428 150.62 407.225 160.318 397.75C149.17 396.611 138.07 394.955 127.248 392.813V392.789ZM325.406 529.067L325.402 529.076L325.398 529.067H325.406ZM295.545 575.483C306.717 560.833 316.701 545.315 325.402 529.076C331.572 544.122 338.315 557.409 344.509 567.289C333.313 575.857 322.285 587.818 312.729 607.2C310.539 604.015 308.015 599.914 305.339 595.136C302.162 589.426 298.802 582.769 295.545 575.483Z" fill="#6C2C00"/>
</svg>
