<svg width="100" height="160" viewBox="0 0 100 160" fill="none" xmlns="http://www.w3.org/2000/svg">
<g clip-path="url(#clip0_2105_883)">
<path d="M98.958 94.7308C94.1308 94.0509 89.4883 93.6509 85.0303 93.5043C84.5028 93.491 84.0279 93.331 83.6059 93.011C83.197 92.7044 83.1838 92.3978 83.5663 92.0645C86.1382 89.7582 88.1693 87.3987 89.6333 84.9724C94.2891 77.2537 97.283 69.6283 98.6019 62.0962C98.8921 60.4298 98.2063 59.5633 96.5312 59.5233C95.2387 59.4833 94.0121 59.7233 92.8647 60.2565C87.2989 62.8027 81.8386 65.6956 76.4706 68.9351C71.2213 72.1079 67.8845 77.507 63.7694 81.7596C62.7275 82.8261 62.4769 82.6661 63.0045 81.2663C64.6004 77.0937 66.3413 73.1877 67.1722 68.6951C70.9048 48.4718 69.5463 28.2085 63.0968 7.90523C61.9493 4.30583 60.1424 0.4798 56.1593 -0.000120327C55.7241 -0.0401137 55.3152 0.0665352 54.9591 0.319826C53.2577 1.53296 51.8597 3.0527 50.7913 4.87907C41.0841 21.4363 34.4104 41.3397 34.3049 60.3365C34.2654 68.6418 35.5843 77.4403 38.2617 86.7588C39.1453 89.8649 38.8156 89.9982 37.2593 87.172C35.848 84.5991 34.4896 82.0529 33.2102 79.52C27.3674 68.0419 19.0715 58.8834 8.29595 52.0579C5.59218 50.3515 -0.211038 48.9651 -1.1696e-05 54.4042C0.567121 68.5351 4.44473 81.413 11.6592 93.0377C12.3714 94.1842 12.068 94.6908 10.7359 94.5708C8.21682 94.3442 6.13294 94.9441 4.48429 96.3705C4.14138 96.6638 3.98311 97.037 3.9963 97.4903C4.19413 103.489 4.94591 109.342 6.25164 115.034C6.4231 115.754 7.01661 116.287 7.74201 116.367L13.5584 116.94C13.9541 116.98 14.2179 117.194 14.363 117.567C15.2334 119.713 16.249 121.993 16.8425 124.233C19.5331 134.484 22.2105 144.256 24.8879 153.548C25.4286 155.414 26.2596 157.12 27.407 158.667C27.6708 159 28.0137 159.267 28.4226 159.413C29.4909 159.8 30.2954 159.987 30.8098 159.987C45.3178 159.853 59.8259 159.467 74.3471 158.827C77.7763 158.68 79.9525 157.12 80.8889 154.134C83.962 144.362 87.0087 132.364 90.029 118.167C90.1213 117.727 90.3719 117.447 90.8072 117.34C92.5086 116.9 94.1572 116.754 95.7663 116.927C96.9797 117.06 98.0744 116.207 98.2854 114.994C99.3537 108.742 99.934 102.383 100 95.9439C100.013 95.3307 99.5648 94.7974 98.958 94.7174V94.7308ZM75.943 84.3325C77.6444 80.9464 79.3722 77.9469 81.1263 75.334C81.9704 74.0942 83.1707 73.081 84.7402 72.3078C85.3601 72.0145 85.5183 72.1745 85.2282 72.8011C83.9224 75.6673 82.287 77.9869 80.3218 79.7599C79.3854 80.5998 78.6995 81.373 78.2775 82.0795C77.7499 82.9594 77.2487 83.8792 76.7871 84.8391C76.708 84.999 76.5893 85.039 76.431 84.9591L76.0881 84.7858C75.8903 84.6791 75.8507 84.5325 75.943 84.3325ZM65.9061 89.7183L70.0739 86.5055C70.4563 86.2122 70.5223 86.2788 70.2981 86.6921C69.4671 88.1985 68.1614 89.425 66.4073 90.3715C66.2358 90.4648 66.0248 90.3981 65.9325 90.2382L65.761 89.9316C65.761 89.9316 65.7874 89.8116 65.9061 89.7183ZM60.6832 51.7779C60.9338 51.8312 60.9074 53.0577 60.6304 54.5375C60.3666 56.0172 59.9446 57.177 59.694 57.1237C59.4434 57.0704 59.4698 55.8439 59.7468 54.3642C60.0105 52.8844 60.4326 51.7246 60.6832 51.7779ZM57.0694 15.6373H57.2276C58.3355 15.5973 59.4302 20.9297 59.6808 27.542V27.8086C59.9182 34.4208 59.2192 39.8199 58.0981 39.8599H57.9398C57.8343 39.8599 57.742 39.7799 57.742 39.6733L56.8715 15.8506C56.8715 15.7439 56.9507 15.6506 57.0694 15.6373ZM58.0058 69.335C58.0849 69.055 58.3751 68.9084 58.6389 68.9884H58.6916C58.9686 69.0817 59.1269 69.3617 59.0345 69.6549L53.7721 87.8519C53.6929 88.1319 53.4028 88.2785 53.139 88.1985H53.0862C52.8093 88.1052 52.651 87.8252 52.7301 87.532L57.9926 69.335H58.0058ZM52.2553 21.6629C52.7565 21.6629 53.1918 27.7153 53.2313 35.194C53.2709 42.6594 52.8884 48.7251 52.3872 48.7251C51.886 48.7251 51.4508 42.6728 51.4112 35.194C51.3717 27.7286 51.7541 21.6629 52.2553 21.6629ZM42.1129 58.6568V58.3102C42.3503 46.1255 44.144 36.2738 46.1224 36.3138H46.1356C46.2279 36.3138 46.307 36.3938 46.307 36.4871L45.4629 80.6264C45.4629 80.7331 45.3838 80.7998 45.2915 80.7998H45.2783C43.2999 80.7598 41.8755 70.8547 42.1129 58.6568ZM15.484 67.1887H15.5104C15.7346 67.0554 16.0116 67.1354 16.1435 67.362L25.2572 83.9859C25.3891 84.2125 25.2967 84.4925 25.0725 84.6258H25.0461C24.8219 84.7591 24.545 84.6791 24.4131 84.4525L15.2994 67.8286C15.1675 67.602 15.2598 67.322 15.484 67.1887ZM21.129 92.8911C20.2717 92.5578 19.6914 91.9979 19.3748 91.2113C19.2957 91.0114 19.3484 90.9714 19.5331 91.0914C20.2849 91.5846 20.8916 92.0645 21.3532 92.5578C21.7357 92.971 21.6697 93.091 21.129 92.8911ZM11.2635 71.9212L11.1316 71.5613C9.52254 67.2287 8.70482 63.5093 9.32471 63.2827L9.52254 63.2027C9.62805 63.1627 9.74676 63.2027 9.78632 63.336L15.6159 79C15.6555 79.12 15.6027 79.24 15.4972 79.28L15.3126 79.3467C14.6927 79.5866 12.8726 76.2538 11.2635 71.9212ZM16.7502 108.542C15.3389 108.995 14.1651 108.848 13.2023 108.102C12.7407 107.742 12.5033 107.275 12.4901 106.675C12.4505 104.769 12.0285 103.076 11.2108 101.596C11.0129 101.236 11.1316 100.783 11.4745 100.556L11.9098 100.276C12.6352 99.7966 13.2419 99.9299 13.7035 100.663C14.7718 102.356 15.0224 103.956 14.4421 105.489C14.3761 105.649 14.3893 105.796 14.4553 105.942C14.9697 106.942 15.7346 107.635 16.7634 108.049C17.225 108.235 17.2118 108.395 16.7502 108.542ZM23.1337 116.234C23.0678 115.674 23.3184 115.421 23.8855 115.487L28.3698 116.034C28.7259 116.074 29.0293 116.327 29.148 116.687L29.3326 117.247C29.4381 117.567 29.3194 117.727 28.9897 117.727C27.9873 117.714 27.0509 117.314 26.1936 116.527C25.8111 116.167 25.4814 116.221 25.2044 116.674L24.756 117.434C24.5318 117.807 24.2548 117.86 23.8987 117.607C23.4371 117.274 23.1865 116.807 23.1337 116.234ZM24.0702 121.78L24.2548 120.5C24.3207 120.1 24.545 119.913 24.9538 119.94L28.4621 120.233C28.6732 120.247 28.8578 120.38 28.9238 120.58C29.0425 120.833 29.0425 121.073 28.9238 121.326C28.8446 121.486 28.6204 121.513 28.5149 121.366C28.2643 121.033 27.9346 120.833 27.5125 120.74C27.1168 120.646 26.7607 120.74 26.4574 121.006C25.9166 121.46 25.3099 121.86 24.6505 122.193C24.1889 122.433 24.0042 122.299 24.0702 121.78ZM33.0124 146.682C32.9333 147.255 32.7618 147.295 32.4848 146.775C32.1815 146.189 32.0891 145.562 32.2342 144.882C32.3925 144.163 32.5903 144.149 32.8277 144.842C33.0388 145.469 33.1047 146.082 33.0124 146.682ZM36.9296 145.456C36.8372 145.762 36.7845 146.069 36.7449 146.375C36.6922 146.842 36.4811 147.215 36.0986 147.469C35.3337 147.975 34.9776 147.775 35.0171 146.855L35.1226 144.336C35.149 143.589 36.0195 143.216 36.5735 143.709C37.0351 144.123 37.1538 144.709 36.9296 145.456ZM43.8407 151.228C42.1525 151.108 40.4774 151.055 38.8024 151.055C38.6046 151.055 38.4991 150.961 38.4991 150.761C38.4991 150.681 38.5254 150.655 38.5782 150.641C40.4379 150.348 42.1788 150.162 43.8011 150.095C44.0253 150.082 44.1572 150.202 44.1704 150.428L44.1968 150.868C44.21 151.121 44.0913 151.241 43.8407 151.228ZM41.6645 145.309C41.7304 145.749 41.981 146.056 42.3899 146.202C42.957 146.402 43.4318 146.735 43.8143 147.189C44.1308 147.562 44.0385 147.775 43.5505 147.842C42.2184 148.002 40.8995 147.922 39.5938 147.589C39.1585 147.482 38.9475 147.202 38.9607 146.762L39.0266 143.883C39.0398 143.389 39.2772 143.109 39.752 143.029C40.306 142.936 40.8467 142.923 41.3875 143.016C41.8227 143.083 41.981 143.336 41.8359 143.749C41.6513 144.283 41.5985 144.802 41.6645 145.309ZM60.393 146.162C59.7072 147.242 59.5753 148.282 59.9974 149.282C60.2216 149.802 60.0633 149.975 59.5357 149.802L58.3751 149.428C57.8607 149.255 57.7156 148.935 57.9662 148.442L58.5597 147.255C58.7971 146.789 58.6521 146.495 58.1377 146.402C57.808 146.349 57.5837 146.176 57.4387 145.882C57.2276 145.442 57.3463 145.162 57.808 145.042C58.6125 144.842 59.3907 144.922 60.1556 145.309C60.5513 145.509 60.6304 145.802 60.393 146.162ZM60.459 142.923L57.5969 141.296C56.4759 140.656 55.1042 141.523 55.1701 142.829L55.5394 149.295C55.6186 150.761 55.1833 150.948 54.2205 149.842C53.2313 148.708 52.3872 146.882 51.6618 144.336C51.4772 143.656 50.8837 143.176 50.1846 143.149C48.5888 143.083 47.9557 143.776 48.2854 145.242C48.3777 145.682 48.6547 145.896 49.1031 145.856L49.4724 145.829C49.934 145.789 50.2242 145.989 50.3561 146.442C50.7518 147.869 50.8441 149.362 50.6463 150.908C50.6331 151.081 50.5276 151.161 50.3561 151.135L50.0264 151.081C49.8417 151.055 49.723 150.895 49.7362 150.708C49.8549 149.722 49.6966 148.815 49.2614 147.975C49.0108 147.482 48.6547 147.362 48.1799 147.629C47.4809 148.015 47.2698 148.695 47.5204 149.642C47.6128 150.002 47.4941 150.228 47.138 150.321L46.8082 150.415C46.4521 150.508 46.2411 150.375 46.1751 150.015C45.5289 146.802 44.2495 143.896 42.3107 141.283C42.0338 140.923 41.6908 140.816 41.2688 140.963L40.3851 141.283C40.0158 141.416 39.6333 141.456 39.2508 141.39C36.5207 141.016 34.0148 141.616 31.7198 143.176C31.3506 143.429 31.034 143.376 30.757 143.029C29.636 141.63 28.8051 139.857 28.2643 137.724C28.172 137.337 28.3171 137.137 28.7127 137.15L36.2965 137.297C37.1142 137.297 37.5363 136.91 37.5626 136.071V135.484C37.5758 134.977 37.167 134.551 36.6658 134.537L29.8206 134.417C28.5413 134.391 27.4334 133.524 27.1037 132.271C26.8662 131.325 26.4838 130.458 25.9694 129.685C25.732 129.312 25.6133 128.912 25.6133 128.472C25.6265 127.179 25.3495 125.952 24.7692 124.819C24.5713 124.406 24.69 124.139 25.1253 124.019C25.2836 123.979 25.4418 123.953 25.6001 123.939C25.9826 123.926 26.1936 124.099 26.2464 124.486C26.3651 125.406 26.8003 126.152 27.5521 126.699C27.895 126.952 28.0533 127.285 28.0137 127.725C27.895 129.125 28.1588 130.511 28.8051 131.898C28.9106 132.111 29.0688 132.165 29.2799 132.045L29.847 131.738C30.0448 131.618 30.1108 131.458 30.0185 131.258C29.4381 129.885 29.4513 128.605 30.058 127.432C30.269 127.045 30.5856 126.872 31.0208 126.939L31.7067 127.032C32.1683 127.099 32.3793 126.885 32.3265 126.419C32.2738 125.979 32.0628 125.646 31.6803 125.432C30.4141 124.712 28.871 125.526 27.1564 124.326C26.7607 124.046 26.7212 123.726 27.0377 123.366C27.2619 123.113 27.5125 122.913 27.8159 122.779C28.2247 122.593 28.5017 122.699 28.6732 123.113C28.9501 123.793 29.4118 124.126 30.058 124.113C30.5196 124.099 30.757 123.859 30.7702 123.393C30.7834 122.779 30.8757 122.193 31.0472 121.646C31.2319 121.046 31.5616 120.62 32.0496 120.393C32.775 120.06 33.4212 120.207 33.962 120.846C34.2126 121.14 34.4236 121.113 34.6215 120.78C34.8457 120.393 35.1886 120.153 35.6502 120.033C36.1646 119.9 36.3756 120.1 36.3097 120.62C36.3097 120.766 36.3097 120.913 36.3624 121.033C36.4416 121.22 36.613 121.353 36.8109 121.366L39.3827 121.5C41.2028 121.593 41.3347 121.153 39.7916 120.167C39.119 119.727 38.5914 119.233 38.2353 118.673C38.0111 118.327 37.8264 118.34 37.655 118.727C37.4967 119.087 37.2461 119.393 36.9164 119.647C36.5339 119.927 36.2965 119.833 36.2173 119.353C36.1118 118.7 35.7293 118.247 35.0831 117.98C33.685 117.394 32.1683 117.127 30.546 117.167C30.2822 117.18 30.1899 117.047 30.2559 116.794L30.3746 116.34C30.4141 116.167 30.5328 116.087 30.7175 116.074C38.7497 116.047 46.7291 116.047 54.6558 116.061C55.1042 116.061 55.4339 116.261 55.6449 116.66C56.0274 117.394 56.2648 118.14 56.3572 118.9C56.4231 119.42 56.2912 119.473 55.9615 119.073L54.5634 117.367C54.1018 116.807 53.35 116.607 52.6906 116.874C51.3848 117.394 50.0396 117.62 48.6547 117.554C48.4173 117.54 48.2326 117.647 48.1008 117.847C48.0348 117.954 48.0084 118.074 48.0084 118.194C48.0084 118.247 48.0348 118.273 48.0876 118.273C48.4964 118.287 48.8789 118.194 49.235 117.98C49.7626 117.66 50.1714 117.767 50.4616 118.313C50.6858 118.727 50.7386 119.14 50.6199 119.58C50.5012 120.02 50.7122 120.473 51.1079 120.686C52.2026 121.233 52.9939 122.046 53.4819 123.099C53.7853 123.753 54.0754 123.753 54.3524 123.073L54.7876 122.02C54.9327 121.646 55.1965 121.526 55.5658 121.673C55.7373 121.74 55.856 121.846 55.9087 122.006C56.2648 123.019 56.3572 124.179 56.2121 125.472C56.1989 125.619 56.2648 125.766 56.3835 125.846L56.8188 126.126C56.9639 126.219 57.0562 126.192 57.0957 126.019C57.465 124.646 57.6233 123.326 57.5574 122.046C57.5442 121.553 57.742 121.433 58.1641 121.686C59.4698 122.459 60.0501 123.619 59.905 125.179C59.8655 125.646 60.0633 125.926 60.4985 126.032C60.8019 126.112 61.0657 126.032 61.3163 125.779C61.4613 125.619 61.6592 125.526 61.8702 125.512C65.1279 125.352 66.6315 126.699 66.3809 129.565C66.3413 130.112 66.5655 130.471 67.0667 130.658C67.4492 130.805 67.8713 130.791 68.3329 130.591C68.7681 130.391 68.8605 130.498 68.6099 130.911L68.412 131.231C68.3197 131.378 68.201 131.431 68.0427 131.418C67.8185 131.391 67.6339 131.405 67.4888 131.458C67.0403 131.605 66.9085 131.898 67.0799 132.338L69.0187 137.137C69.1242 137.404 69.0583 137.604 68.8077 137.737C68.6099 137.83 68.4648 137.804 68.3725 137.63C67.2778 135.577 66.0907 132.658 63.7035 131.938C63.1232 131.765 62.6088 132.351 62.8462 132.911C63.7563 135.057 65.1015 136.804 66.8557 138.137C68.1746 139.15 68.9 140.003 69.0187 140.683C69.3221 142.456 68.8341 142.723 67.5415 141.496C65.1807 139.243 63.321 137.324 61.9625 135.711C61.5932 135.271 60.9206 135.271 60.5381 135.697L60.2875 135.977C59.7072 136.617 59.6544 137.297 60.1424 138.017C60.9338 139.19 61.3295 140.656 61.3295 142.416C61.3295 142.869 60.8546 143.149 60.459 142.923ZM54.4579 120.686C54.2733 120.9 53.627 120.66 53.0203 120.153C52.4136 119.633 52.0839 119.033 52.2685 118.807C52.4532 118.593 53.0994 118.833 53.7061 119.34C54.3128 119.86 54.6426 120.46 54.4579 120.686ZM58.9818 118.46L59.7468 119.233C60.3007 119.807 60.2084 119.94 59.4698 119.66C58.3355 119.233 57.6497 118.34 57.4123 116.98C57.3331 116.514 57.5046 116.167 57.9267 115.954C58.23 115.807 58.5729 115.807 58.9554 115.954C59.6544 116.234 59.7468 116.634 59.2192 117.167L58.9686 117.42C58.6916 117.714 58.7048 118.167 58.9686 118.447L58.9818 118.46ZM62.0812 121.513C63.6507 122.686 65.1147 123.139 66.4468 122.886C67.4228 122.699 68.3197 123.499 68.2537 124.512C68.1878 125.619 68.623 126.392 69.5595 126.819C69.9683 126.992 70.2189 127.299 70.3244 127.712C70.5223 128.472 70.3508 129.072 69.8233 129.485C69.4408 129.792 69.2166 129.698 69.1242 129.218C68.4911 125.526 66.4073 123.633 62.8858 123.539C62.4242 123.539 62.1867 123.739 62.1604 124.206C62.1472 124.499 62.0417 124.739 61.8438 124.939C61.4877 125.299 61.2767 125.232 61.2239 124.712L60.9865 122.126C60.9338 121.526 61.6064 121.153 62.0812 121.513ZM61.1976 116.62C61.2635 116.154 61.5405 115.927 62.0021 115.954L62.5824 115.981C62.9385 116.007 63.0968 116.207 63.0572 116.567L62.7407 119.167C62.7407 119.167 62.6747 119.273 62.622 119.26C61.4218 119.167 60.947 118.287 61.1976 116.62ZM64.9301 119.593L65.1807 116.221C65.1939 116.047 65.2862 115.967 65.4445 115.981L66.2754 116.034C66.5655 116.034 66.7766 116.314 66.7238 116.594L66.1699 119.793C66.1039 120.18 65.8929 120.286 65.55 120.1L65.0752 119.833C64.9697 119.78 64.9169 119.7 64.9301 119.593ZM69.7046 116.874C69.4012 116.527 69.4671 116.261 69.8892 116.087C70.1266 115.994 70.4036 116.034 70.7201 116.181C71.3928 116.514 71.4983 117.447 70.918 117.914C70.4563 118.287 70.1794 118.873 70.1002 119.673C70.0475 120.14 69.8101 120.286 69.388 120.113C69.0583 119.98 68.7945 119.767 68.5967 119.46C68.3065 119.007 68.412 118.673 68.9 118.46C69.0715 118.38 69.2429 118.34 69.4408 118.353C69.7573 118.367 69.942 118.207 69.9947 117.9C70.0738 117.54 69.9815 117.194 69.7046 116.874ZM71.2872 132.245C71.2741 133.111 71.2345 134.071 71.1817 135.111C71.1554 135.564 71.0367 135.591 70.8256 135.191C70.4431 134.457 70.2189 133.698 70.1794 132.911C70.153 132.404 70.2981 132.058 70.6146 131.858C71.0762 131.578 71.3004 131.698 71.2872 132.245ZM62.0549 149.495C61.5669 148.788 61.7647 147.615 62.6616 145.989C62.8594 145.616 63.4001 145.682 63.5188 146.082C63.8881 147.429 64.0596 148.388 64.02 148.935C63.875 150.975 63.2155 151.161 62.0549 149.495ZM72.1445 150.068C72.0522 150.268 71.894 150.441 71.6434 150.575C71.4455 150.695 71.2213 150.735 70.9839 150.721C68.3329 150.548 66.7898 149.162 66.3545 146.589C66.2754 146.109 65.9852 145.696 65.5632 145.469C64.3893 144.842 63.7167 143.776 63.532 142.256C63.4529 141.616 63.6376 141.523 64.0728 141.99C65.484 143.469 66.5787 145.096 67.3701 146.869C68.3197 148.988 69.4012 149.948 71.7093 149.508C72.2105 149.415 72.3556 149.602 72.1445 150.068ZM74.2812 142.629L73.9778 142.803C73.9778 142.803 73.9383 142.776 73.8987 142.709L71.0498 137.817C70.8916 137.55 70.9048 137.284 71.0762 137.03C71.1422 136.937 71.2081 136.857 71.3004 136.777C71.6434 136.444 71.8808 136.497 71.9995 136.964C72.4875 138.79 73.3052 140.376 74.4526 141.75C74.756 142.11 74.7032 142.403 74.2812 142.629ZM72.8963 127.019C73.1997 126.152 73.4371 126.166 73.6349 127.059L74.69 131.725C74.7692 132.058 74.6769 132.111 74.4131 131.911C72.7512 130.591 72.2501 128.965 72.8963 127.019ZM73.0414 121.94C73.6877 121.473 74.4131 121.086 75.1912 120.793C75.6133 120.633 76.009 120.686 76.3914 120.94C76.8531 121.246 76.985 121.74 76.7871 122.419C76.7212 122.646 76.5761 122.793 76.3651 122.833C76.0221 122.886 75.8375 122.739 75.8243 122.379C75.8111 122.153 75.7452 121.953 75.6265 121.78C75.4286 121.473 75.178 121.406 74.8483 121.553C74.3076 121.82 73.7536 122.046 73.1865 122.22C72.593 122.406 72.5402 122.313 73.0414 121.94ZM75.4023 138.124C75.3495 138.044 75.3627 137.79 75.4286 137.377C75.4814 137.017 75.3891 136.697 75.1517 136.417L73.1865 134.151C72.9886 133.924 73.0282 133.738 73.292 133.591L73.6613 133.364C73.7272 133.324 73.7932 133.324 73.8591 133.391C75.1912 134.764 75.9826 136.231 76.22 137.804C76.431 139.177 76.154 139.283 75.4023 138.124ZM78.2643 133.391C77.961 133.698 77.7499 133.644 77.6312 133.231C77.2092 131.698 76.8663 130.645 75.943 129.352C75.8507 129.205 75.8639 129.072 76.009 128.978H76.0221C76.1672 128.885 76.2859 128.898 76.3783 129.045C76.985 130.032 77.6576 130.978 78.383 131.885C78.7919 132.391 78.7523 132.898 78.2643 133.391ZM77.7499 116.794C78.3434 116.714 78.7787 116.98 79.0293 117.594C79.1348 117.86 79.0556 118.047 78.7919 118.154C78.0928 118.46 77.5917 118.313 77.2883 117.714C77.0113 117.18 77.1564 116.874 77.7499 116.794ZM79.9921 122.313C79.57 122.779 79.0688 123.019 78.8578 122.846C78.6468 122.673 78.8314 122.14 79.2667 121.66C79.6887 121.193 80.1899 120.953 80.4009 121.126C80.612 121.3 80.4273 121.833 79.9921 122.313ZM84.8193 108.262C83.5927 109.462 82.1683 109.742 80.5724 109.115C80.1372 108.942 79.9393 108.622 80.0053 108.142C80.058 107.729 80.2031 107.369 80.4405 107.049C80.7175 106.675 81.1 106.529 81.5616 106.595C81.9704 106.662 82.3397 106.822 82.6695 107.075C83.1047 107.409 83.5399 107.422 84.0016 107.142C84.1598 107.049 84.3313 106.995 84.516 106.995C84.8457 106.982 85.1095 107.262 85.0963 107.595C85.0831 107.862 84.9908 108.089 84.8193 108.262ZM91.1237 107.769C91.1237 108.862 90.6489 109.355 89.6993 109.235C88.9871 109.142 88.7365 108.222 89.3036 107.769C90.0158 107.209 90.3587 106.502 90.3455 105.636C90.3192 104.502 90.3456 103.356 90.4115 102.196C90.4247 101.823 90.2532 101.463 89.9499 101.25C89.1321 100.676 88.354 100.756 87.6154 101.476C87.312 101.77 86.9559 101.89 86.5339 101.836C82.1551 101.29 77.6576 101.156 73.0282 101.436C72.2105 101.49 71.8148 101.93 71.8412 102.756V103.223C71.8808 103.796 72.4083 104.209 72.9623 104.089L75.8243 103.476C76.3519 103.356 76.7476 103.543 77.0245 104.023C77.2751 104.476 77.2883 104.916 77.0377 105.342C76.5629 106.196 75.4418 106.409 74.7032 105.796C74.2548 105.436 73.7404 105.262 73.1733 105.289C71.551 105.356 71.4587 105.769 72.9095 106.515C74.0306 107.089 75.3231 106.955 76.8003 106.116C77.1828 105.889 77.5653 105.902 77.9346 106.156C78.594 106.595 78.8974 107.222 78.8314 108.009C78.7919 108.488 78.5281 108.768 78.0665 108.835C77.1564 108.955 76.3651 108.715 75.666 108.115C75.3231 107.809 75.0198 107.849 74.756 108.235C74.6241 108.408 74.545 108.622 74.5054 108.875C74.4263 109.342 74.1493 109.582 73.6745 109.568L23.8723 108.075C23.8723 108.075 23.8196 108.049 23.8196 108.022C23.8196 107.995 23.8327 107.982 23.8591 107.969L25.8903 107.422C26.3387 107.315 26.8003 107.409 27.1696 107.675C27.5521 107.955 27.9741 108.035 28.4094 107.915C29.0161 107.755 29.1216 107.435 28.7391 106.942C28.1588 106.209 27.3015 105.956 26.1804 106.169C25.0725 106.369 23.9778 106.582 22.8963 106.782C21.6961 107.009 20.9839 106.675 20.7597 105.782C20.6542 105.369 20.4036 105.062 20.0211 104.889C19.2429 104.529 18.4648 104.516 17.713 104.862C17.4228 105.009 17.2778 104.916 17.2909 104.582C17.3305 103.623 16.9085 102.849 16.0248 102.263C14.6135 101.316 14.7586 100.81 16.4336 100.716C20.641 100.503 24.8747 100.316 29.148 100.157C49.5911 99.3966 69.9815 99.45 90.3324 100.303C91.0578 100.33 91.5985 100.983 91.5062 101.716C91.2556 103.596 91.1369 105.609 91.1237 107.769Z" fill="black"/>
</g>
<defs>
<clipPath id="clip0_2105_883">
<rect width="100" height="160" fill="white"/>
</clipPath>
</defs>
</svg>
