<svg width="95" height="160" viewBox="0 0 95 160" fill="none" xmlns="http://www.w3.org/2000/svg">
<g clip-path="url(#clip0_2187_2250)">
<path d="M70.0492 81.0355C70.2335 81.0034 70.4287 80.9607 70.613 80.9287C70.9817 80.8646 71.3287 80.7365 71.6432 80.5443C85.4361 72.2272 92.6471 52.5609 94.8917 37.699C95.2495 35.3608 94.6856 33.4604 93.2109 32.0084C89.4374 28.3036 82.0313 30.9087 77.8782 32.9052C74.6577 34.4533 70.613 37.667 65.7443 42.5462C63.337 44.9591 60.5394 49.4326 57.3406 55.9774C56.3755 57.9526 55.7574 60.7071 55.4647 64.2304C55.2369 67.0597 54.8574 69.8036 54.3369 72.4835C53.7405 75.5263 53.0466 78.6546 52.2658 81.8469C52.255 81.9003 52.2333 81.9216 52.1791 81.9109L51.8429 81.8682C51.6369 81.8362 51.5502 81.7188 51.561 81.5159C52.1682 74.7896 52.8514 68.0954 53.6104 61.4438C53.9899 58.1981 55.0201 54.9097 56.7225 51.5679C61.3744 42.4287 67.772 35.0405 75.9372 29.4139C77.5746 28.2822 79.2119 27.1505 80.8493 26.0188C85.6855 22.677 88.6024 18.9829 90.1097 13.399C90.9988 10.1106 90.6844 6.95031 87.3229 5.48761C74.0179 -0.331157 58.0129 7.75105 49.6851 18.3743C49.4574 18.6732 49.273 18.6412 49.132 18.2889C45.4669 8.67992 36.7162 -2.17821 24.8101 0.3735C15.9075 2.27394 13.5111 15.2247 14.2593 22.7624C14.487 25.0792 14.8449 27.2679 15.322 29.3178C15.4413 29.7769 15.2569 29.9584 14.7798 29.8624C11.7219 29.1791 4.57606 29.1577 4.86884 33.7914C5.13993 38.0727 5.5086 42.653 5.96403 47.5322C7.12429 59.9705 11.9713 70.5296 20.5269 79.2098C21.6871 80.3949 22.9667 81.3237 24.3438 82.007C24.8317 82.2526 24.7992 82.338 24.2679 82.2633C23.563 82.1672 22.7281 81.8148 22.0775 81.7615C15.1268 81.2383 8.81588 82.9572 3.12303 86.8969C1.22542 88.2102 0.206128 89.6835 0.0651622 91.3384C-0.0541164 92.7584 -0.0215858 95.9721 0.162754 100.979C0.282032 104.353 0.0760058 106.008 2.10374 108.058C3.69774 109.67 5.48692 111.058 7.48212 112.222C7.79659 112.403 8.0243 112.649 8.16527 112.98C9.17371 115.211 9.88938 117.528 10.334 119.941C11.5376 126.571 12.546 133.244 13.3593 139.96C13.381 140.163 13.2075 140.333 13.0015 140.312C10.5183 140.003 8.00261 142.127 6.23512 143.686C3.05797 146.483 2.80857 150.273 5.90981 153.252C9.67251 156.872 15.7666 157.363 20.8305 158.121C36.7379 160.512 52.6996 160.619 68.6937 158.43C72.5649 157.907 76.3167 156.978 79.9493 155.654C82.9963 154.544 85.1217 152.526 86.3036 149.59C87.7241 146.077 85.2084 142.458 81.8036 141.572C80.5891 141.262 80.0903 140.494 80.3071 139.287C81.7385 131.066 82.3566 122.728 83.7554 114.347C84.2433 111.4 85.8916 108.795 88.7 106.542C88.982 106.318 89.2747 105.795 89.5783 104.983C89.7627 104.503 89.8277 103.926 89.7844 103.275C89.6 100.221 89.9145 97.2105 90.7494 94.2531C92.0507 89.6088 89.3398 86.3951 85.2409 84.516C81.3698 82.7544 76.3167 81.6867 70.0709 81.3237C69.3552 81.281 69.3444 81.1849 70.0492 81.0355ZM62.025 65.4476C62.6539 64.7322 63.272 64.2411 63.4021 64.3479C63.5431 64.4653 63.131 65.1379 62.5021 65.8533C61.8732 66.5686 61.2551 67.0597 61.125 66.953C60.984 66.8355 61.3961 66.1629 62.025 65.4476ZM49.2839 44.468L49.8369 40.9554C49.8911 40.5817 50.1188 40.3895 50.4983 40.3682C50.8019 40.3575 51.1056 40.507 51.3983 40.8379C51.6694 41.1262 51.8538 41.4572 51.9622 41.8309C52.4176 43.3683 53.0357 43.4324 53.8056 42.0337C54.8249 40.1867 55.3996 38.2649 55.5406 36.279C55.5623 35.9587 55.4104 35.7879 55.0851 35.7665L54.5538 35.7452C54.196 35.7238 53.9791 35.884 53.8815 36.215L53.2526 38.3823C53.155 38.6919 52.9598 38.9161 52.6562 39.0336C51.7779 39.4073 50.8887 39.4606 49.9995 39.1937C49.6417 39.087 49.4574 38.8521 49.4682 38.4891C49.5224 35.4142 50.1513 32.4995 51.3767 29.7556C52.2116 27.8872 52.8731 26.1362 53.3393 24.5027C54.2177 21.4171 55.4538 19.175 57.037 17.7657C62.784 12.6516 68.8672 9.56608 75.2974 8.50909C78.3228 8.00729 81.1312 8.2315 83.712 9.18172C84.5578 9.49134 85.0349 10.3668 84.8397 11.2316C83.1807 18.5985 76.5119 22.7517 69.8757 26.7234C69.1925 27.1185 69.0733 27.001 69.507 26.3497C72.3263 22.1004 77.0541 17.6376 78.1384 12.3954C78.2143 12.0324 78.0734 11.8829 77.7047 11.9576C72.4348 12.9399 69.7564 18.1714 66.7853 22.0044C65.1154 24.1504 63.7274 26.3818 62.6214 28.6773C60.6262 32.8305 58.6635 37.005 56.7225 41.1903C56.408 41.8842 55.8008 42.7597 54.9225 43.8167C54.6731 44.105 54.3912 44.1584 54.0767 43.9555L53.8273 43.806C53.6213 43.6672 53.502 43.7206 53.4695 43.9662C53.361 44.7029 53.2092 45.4396 53.0032 46.1763C52.9056 46.5286 52.7213 46.5926 52.4393 46.3471C52.1357 46.0908 51.8755 45.8026 51.6586 45.4716C51.4634 45.1833 51.1923 45.0766 50.8562 45.1406C50.4766 45.2154 50.108 45.2154 49.7501 45.1406C49.3815 45.0659 49.2296 44.8417 49.2839 44.468ZM47.267 49.6248C48.1995 49.1444 49.2839 49.9024 49.1646 50.9274C48.5357 56.1375 47.8742 61.0488 47.1911 65.6611C46.779 68.4264 47.2236 70.7539 47.5923 73.455C47.6682 73.9782 47.6356 74.4373 47.5055 74.8537C47.4079 75.1847 47.3212 75.174 47.2561 74.8537L43.3958 54.2691C43.0922 52.657 43.6778 51.4719 45.1525 50.7138L47.267 49.6355V49.6248ZM32.2812 5.61573C38.5163 7.71902 42.9187 16.0788 44.1657 21.8976C45.8573 29.841 43.6778 39.6315 40.4572 47.4041C40.2837 47.8311 39.6874 47.8525 39.4705 47.4468C38.9066 46.3257 38.3211 45.3221 38.5163 43.9982C39.3729 38.2115 39.5681 34.069 39.1126 31.5599C37.9415 25.154 36.1632 17.0077 32.2053 11.6694C31.6306 10.89 31.121 10.9327 30.6764 11.7975C30.4812 12.1925 30.4595 12.6516 30.6113 13.1961C32.574 20.168 34.3523 26.969 35.9355 33.6099C35.9572 33.7059 35.9247 33.7807 35.8271 33.8234L35.5343 33.9302C35.4258 33.9835 35.3391 33.9515 35.2849 33.8447C32.5957 28.5064 30.8607 22.2499 29.2667 16.6981C28.3884 13.6339 28.3667 10.4736 26.198 7.85782C25.9595 7.56955 25.6884 7.52684 25.3739 7.71902C22.11 9.76894 25.3414 15.7158 26.9245 18.7373C28.9414 22.6129 30.568 26.4138 31.815 30.1399C32.3788 31.8162 33.268 33.6739 34.4933 35.7132C35.9138 38.094 36.7488 40.5176 36.9982 42.9839C37.1283 44.3185 36.8138 44.436 36.0548 43.3149C33.0511 38.8414 29.0824 34.6455 24.1486 30.7272C22.457 29.3926 21.3293 27.3854 20.7763 24.7055C19.1389 16.8155 19.8763 1.43049 32.2812 5.61573ZM14.3027 59.7356C11.3424 52.5182 10.5183 43.7527 10.6051 35.8626C10.6159 34.891 11.1039 34.4747 12.0798 34.6028C18.5208 35.4783 23.8558 38.094 28.0848 42.4608C31.9993 46.5072 35.1548 51.3224 37.5295 56.9276C38.2668 58.6679 39.3404 62.1058 40.7392 67.2199C41.6717 70.6364 42.7344 74.0743 43.9163 77.5335C44.1223 78.1421 44.079 78.1634 43.7645 77.6083C41.6934 73.8928 39.7416 70.0492 37.909 66.0775C35.209 60.2587 33.2571 56.4258 32.0318 54.6001C28.2258 48.8881 21.9148 41.8949 15.3003 39.3539C14.2268 38.9375 13.8147 39.2898 14.075 40.4002C15.2569 45.4929 17.4148 50.3401 20.5269 54.9524C24.8426 61.3264 31.9126 64.7749 35.2632 71.939C35.4692 72.3767 35.3608 72.4621 34.9596 72.1845C34.4282 71.8108 34.0921 71.277 33.9511 70.6044C33.756 69.6969 33.0403 69.0029 32.1186 68.8427C30.2427 68.5118 28.3667 68.3409 26.4908 68.3089C26.3065 68.2982 25.3848 68.4797 23.7365 68.8534C22.6956 69.0776 21.7197 68.8107 20.8088 68.042C20.6028 67.8712 20.5811 67.8925 20.7437 68.0954C22.316 70.1133 23.8992 71.971 25.4715 73.6686C26.0245 74.2558 26.686 75.3448 27.4667 76.9463C28.4101 78.8895 30.1451 79.9144 32.6608 80.0318C33.0077 80.0318 33.2355 80.1279 33.3547 80.2667C33.4523 80.3842 33.4849 80.5336 33.474 80.7045C33.4415 81.0248 33.2788 81.1209 32.9861 81.0034C30.7848 80.0959 29.1041 80.2881 27.4342 78.0994C26.7294 77.1812 25.9269 76.3484 25.0269 75.5904C20.1582 71.5226 16.6557 65.4582 14.3027 59.7356ZM34.9379 88.0286C35.2632 87.8365 35.621 87.7511 36.0006 87.7831C38.3319 87.9646 39.9584 88.2102 40.9018 88.5198C41.5416 88.7226 41.8452 89.107 41.8127 89.6728C41.8127 90.0359 41.6067 90.228 41.238 90.2387C39.6657 90.3134 38.3536 89.8971 37.3018 88.9895C36.9656 88.712 36.6403 88.7226 36.3259 89.0216C35.2415 90.0572 33.962 90.4202 32.4873 90.1213C32.0101 90.0252 31.9776 89.8437 32.3897 89.5874L34.9379 88.0286ZM34.4933 75.5477C33.5065 75.0565 32.78 74.5227 32.8559 74.3732C32.9427 74.2238 33.7993 74.4907 34.7969 74.9818C35.7837 75.4729 36.5102 76.0068 36.4343 76.1562C36.3475 76.3057 35.4909 76.0388 34.4933 75.5477ZM28.3884 57.6963C27.9655 57.9739 25.4498 55.0592 22.7715 51.1943C20.0931 47.3186 18.2714 43.9448 18.6943 43.6566C19.1172 43.379 21.6329 46.2937 24.3113 50.1586C26.9896 54.0343 28.8113 57.4081 28.3884 57.6963ZM32.715 72.9639C32.6282 73.2308 30.9366 72.9212 28.9197 72.2593C26.9137 71.608 25.3631 70.8606 25.439 70.6044C25.5257 70.3375 27.2173 70.6471 29.2342 71.309C31.2403 71.9603 32.7909 72.7077 32.715 72.9639ZM30.8499 87.8258L27.6836 90.0679C27.5535 90.1533 27.4342 90.1533 27.3149 90.0572L26.9679 89.7903C26.7077 89.5874 26.7185 89.3953 27.0004 89.2244L30.4812 87.1532C30.568 87.0998 30.6439 87.1211 30.6981 87.1959L30.9041 87.4735C30.9909 87.5802 30.9583 87.7404 30.8499 87.8258ZM20.9281 87.1959C22.392 86.9076 23.8558 87.0678 25.3197 87.6763C25.9052 87.9219 25.8944 88.1354 25.2763 88.2956L21.6546 89.2885C21.21 89.4166 20.9064 89.2671 20.7546 88.8294L20.4618 87.9753C20.3208 87.5482 20.4726 87.292 20.9281 87.1959ZM7.13513 90.9754C8.98937 89.534 13.6196 86.7688 16.5039 87.4201C16.8509 87.4948 17.1762 87.4521 17.4907 87.292C17.9136 87.0677 18.369 86.929 18.8678 86.8756C19.2473 86.8329 19.5293 86.9717 19.7136 87.3026C20.0064 87.8044 20.0389 88.381 19.822 89.0109C19.6811 89.4273 19.4208 89.502 19.063 89.2351L17.7509 88.2742C17.4365 88.0393 17.0786 87.9219 16.6774 87.9219C14.9316 87.9326 13.4677 88.445 12.2641 89.4486C11.9822 89.6835 11.6352 89.833 11.2774 89.865C9.78095 90.0252 8.46888 90.591 7.352 91.584C7.33031 91.616 7.28694 91.616 7.26525 91.584L7.09176 91.3598C6.97248 91.221 6.99417 91.0928 7.13513 90.9754ZM17.4907 89.6835C17.5015 90.0038 16.8075 90.2921 15.9292 90.3241C15.0509 90.3561 14.3352 90.1213 14.3244 89.7903C14.3135 89.47 15.0075 89.1817 15.8858 89.1497C16.7642 89.1177 17.4798 89.3525 17.4907 89.6835ZM80.4373 147.252C80.8819 147.06 81.0553 147.199 80.9469 147.668C80.5349 149.451 79.0059 150.647 76.3493 151.256C57.0153 155.708 37.7355 155.932 18.5208 151.928C16.2003 151.448 13.6521 150.519 10.887 149.142C10.3231 148.864 10.1605 148.138 10.5617 147.647L10.746 147.423C11.4508 146.547 12.34 146.312 13.3918 146.729C16.5907 147.967 18.7594 148.64 19.8763 148.757C27.2498 149.515 34.6451 149.964 42.0621 150.113C54.5104 150.359 64.4865 150.391 75.8396 148.587C77.4228 148.341 78.9517 147.893 80.4373 147.252ZM17.7618 117.913C18.3473 118.414 18.9979 118.649 19.7028 118.628C20.9498 118.596 22.1534 118.713 23.3137 118.991C24.0727 119.172 24.7558 118.51 24.5932 117.763C24.4305 117.069 23.7582 116.749 22.5654 116.824C22.5221 116.824 22.4895 116.791 22.4895 116.749V116.461C22.4679 116.236 22.5763 116.108 22.804 116.087C25.1679 115.841 27.5318 115.852 29.9065 116.14C40.1211 117.389 49.7068 116.525 59.8346 116.984C64.5949 117.208 69.4419 117.048 74.3757 116.525C75.0914 116.45 75.7637 116.258 76.3926 115.948C76.6854 115.809 76.9131 115.884 77.0649 116.172L77.4661 116.962C77.5854 117.187 77.5204 117.304 77.271 117.336L68.3793 118.318C67.9564 118.372 67.6528 118.585 67.4684 118.98C67.2949 119.375 66.9588 119.557 66.4491 119.546C66.2214 119.535 66.0154 119.461 65.8419 119.311C64.1503 117.859 61.3744 118.115 59.2816 118.574C55.5189 119.397 55.5623 119.93 59.4117 120.165C61.1033 120.272 62.7298 120.39 64.2913 120.507C64.3238 120.507 64.3347 120.528 64.3347 120.56C64.3347 120.646 64.3238 120.731 64.2804 120.817C64.2479 120.881 64.1937 120.913 64.1178 120.923C62.8274 121.084 61.5696 121.425 60.3334 121.927C59.8888 122.108 59.8997 122.215 60.3876 122.258C62.3828 122.407 64.2154 121.948 65.8744 120.891C66.2214 120.678 66.5467 120.699 66.8612 120.955L67.9781 121.852C68.2492 122.066 68.5419 122.14 68.8781 122.076C71.4263 121.596 73.9962 121.34 76.5661 121.308C76.9999 121.308 77.0975 121.479 76.8481 121.831L76.5553 122.247C76.4252 122.439 76.2191 122.557 75.9914 122.578L68.26 123.443C67.9239 123.475 67.6311 123.614 67.3817 123.838C66.8829 124.297 66.1455 124.511 65.1588 124.479C62.7407 124.383 60.4635 124.746 58.3273 125.589C57.2864 125.995 57.2864 126.4 58.3273 126.817C58.7069 126.966 59.3466 126.988 60.2683 126.87C63.6732 126.432 67.2516 126.774 70.4179 126.069C71.795 125.76 73.3131 125.386 74.9938 124.938C75.395 124.831 75.8288 124.991 76.0456 125.343L76.2842 125.739C76.4577 126.005 76.2842 126.358 75.9481 126.39C73.1287 126.657 70.407 127.201 67.7937 128.023C66.4274 128.461 64.9961 128.771 63.4997 128.974C61.9057 129.187 60.4527 129.518 59.1406 129.956C57.655 130.447 57.6334 130.991 59.0755 131.6C60.7129 132.283 62.578 132.177 64.6491 131.28C64.9744 131.141 65.3106 131.098 65.6684 131.152C68.8564 131.653 72.0227 131.184 75.1673 129.721C75.5143 129.561 75.9155 129.796 75.9264 130.18V130.554C75.948 131.023 75.7312 131.301 75.2649 131.397C68.7697 132.646 63.2611 134.002 58.7177 135.465C58.5117 135.529 58.349 135.668 58.2514 135.871C58.0779 136.223 58.1972 136.404 58.5984 136.394C61.3635 136.319 63.9985 136.992 66.6226 136.554C68.0648 136.319 69.5179 136.031 70.9926 135.678C71.2203 135.625 71.4697 135.646 71.6974 135.732C72.3588 135.999 72.9661 135.785 73.5191 135.091C73.8553 134.675 74.3107 134.387 74.8854 134.216C75.2649 134.109 75.4384 134.248 75.4276 134.621C75.3842 135.785 74.8529 136.426 73.8336 136.554C71.8275 136.821 69.8323 137.195 67.8696 137.675C67.154 137.856 65.6684 138.091 63.4238 138.401C62.09 138.583 60.5936 139.01 58.9346 139.682C58.5008 139.864 58.5008 140.045 58.9237 140.248C60.0515 140.782 61.125 140.985 62.1443 140.857C63.9334 140.632 64.8768 140.526 64.9527 140.526C67.8371 140.483 70.6347 139.885 73.3348 138.721C73.4974 138.647 73.6167 138.689 73.6926 138.849L73.8227 139.127C73.8661 139.223 73.8444 139.287 73.7468 139.33C69.3552 141.401 64.7359 142.373 59.878 142.234C59.737 142.223 59.6069 142.319 59.5852 142.458L59.5201 142.789C59.5201 142.789 59.5635 142.81 59.6719 142.821C64.4756 143.398 69.2034 142.885 73.8769 141.284C74.0396 141.23 74.2131 141.284 74.3107 141.423L74.6902 141.967C74.8312 142.17 74.7878 142.309 74.5384 142.373C72.5757 142.917 70.6239 143.302 68.6612 143.504C65.7226 143.814 63.7599 144.06 62.7515 144.23C55.9309 145.394 49.067 145.928 42.1597 145.843C39.5681 145.811 36.6729 145.501 33.474 144.935C30.6005 144.433 27.727 143.921 24.8534 143.408C23.5522 143.173 22.4895 142.565 21.5895 141.732C21.3184 141.487 21.4486 141.027 21.8172 140.953C23.3462 140.643 24.7884 140.611 26.1221 140.835C29.2776 141.38 32.4656 140.536 35.7078 140.462C36.315 140.451 36.6837 139.789 36.3584 139.276C35.3933 137.771 34.1463 137.195 32.5957 137.547C32.4656 137.579 32.3897 137.654 32.3788 137.782L32.3354 138.166C32.3138 138.39 32.5306 138.561 32.7475 138.486C33.1812 138.326 33.615 138.305 34.0379 138.422C34.5909 138.572 34.5801 138.679 34.0162 138.732C30.839 139.031 27.6619 138.967 24.5064 138.55C24.4088 138.54 24.3546 138.476 24.3546 138.369C24.3655 138.262 24.4197 138.209 24.5281 138.209C26.339 138.209 28.1499 138.23 29.9607 138.262C30.4704 138.273 30.6005 138.059 30.3511 137.622C29.7655 136.586 28.9089 136.052 27.7703 136.02C27.3041 136.009 26.892 135.753 26.6751 135.358L26.4583 134.952C26.2522 134.579 26.0245 134.557 25.7643 134.899C25.6775 135.017 25.645 135.166 25.6775 135.326C25.7101 135.529 25.645 135.678 25.4607 135.764C24.8534 136.063 24.3004 135.977 23.8016 135.518C23.6498 135.369 23.6606 135.209 23.8233 135.027C23.9643 134.888 23.9751 134.728 23.8667 134.557C23.7691 134.419 23.639 134.312 23.4763 134.248C23.2052 134.152 22.9124 134.312 22.8691 134.589C22.8365 134.792 22.7173 134.952 22.5329 135.059C22.3811 135.145 22.1859 135.145 22.0341 135.059C21.069 134.557 20.0931 134.493 19.0847 134.867C18.575 135.049 18.3473 134.878 18.4015 134.355C18.4232 134.184 18.4774 134.024 18.575 133.874C18.7377 133.618 18.716 133.383 18.51 133.159C18.1738 132.796 17.9353 132.39 17.816 131.952C17.6967 131.483 17.8594 131.322 18.3256 131.472C19.7461 131.92 21.1558 132.091 22.5438 131.974C23.01 131.942 23.3896 132.112 23.6606 132.497L23.8992 132.817C24.0944 133.084 24.3438 133.148 24.6366 132.988C25.3197 132.636 26.0354 132.486 26.7944 132.54C27.1631 132.561 27.4559 132.433 27.6727 132.144C27.9438 131.771 27.8679 131.429 27.4342 131.12C25.4932 129.753 23.2161 129.347 20.5811 129.913C20.1907 129.998 19.7895 129.881 19.4967 129.614C19.0088 129.155 18.4232 129.038 17.7509 129.262C17.2088 129.443 16.9702 129.251 17.0461 128.696L17.1437 127.917C17.1979 127.575 17.3931 127.425 17.7401 127.457C22.3377 127.906 26.0245 127.927 28.8005 127.522C30.9149 127.212 30.9692 126.689 28.9631 125.952C26.2089 124.948 22.2727 124.34 17.1654 124.137C16.4389 124.105 16.1569 123.742 16.3304 123.048C16.4389 122.632 16.8075 122.279 17.4256 121.991C17.7076 121.863 18.0329 121.81 18.3473 121.842C20.6678 122.108 23.7691 122.834 25.992 121.81C26.339 121.649 26.4583 121.382 26.339 121.03C25.9703 119.866 25.1462 119.471 23.8775 119.834C23.5305 119.93 23.1835 119.941 22.8257 119.888C19.9955 119.375 17.3714 119.514 15.5822 116.866C14.4003 115.105 14.8015 114.592 16.8075 115.329C18.0437 115.777 19.3666 116.065 20.7763 116.194C21.0365 116.215 21.1992 116.493 21.1016 116.738L20.9715 117.037C20.863 117.293 20.5702 117.421 20.31 117.347C19.5293 117.112 18.7594 117.037 18.0112 117.122C17.3172 117.197 17.2304 117.464 17.7618 117.913ZM21.2317 140.376C20.9931 140.643 20.7329 140.675 20.451 140.451L19.3991 139.618C17.5124 138.123 17.7509 137.622 20.1148 138.123L22.316 138.583C22.5871 138.636 22.6305 138.775 22.4462 138.988L21.2317 140.376ZM83.3108 102.517C82.8445 103.221 82.5192 103.99 82.3566 104.823C82.3457 104.887 82.3132 104.908 82.2373 104.898L81.9337 104.802C81.6843 104.738 81.6301 104.599 81.7493 104.375L82.8554 102.271C83.1915 101.652 82.606 100.937 81.9228 101.118L77.618 102.271C77.4011 102.335 77.2601 102.261 77.2059 102.036L77.1192 101.695C77.0758 101.545 77.1734 101.385 77.336 101.364L82.1722 100.723C83.1807 100.595 83.8747 101.684 83.3108 102.517ZM85.4578 92.1712C82.7361 96.602 75.3191 98.2675 70.5588 99.2925C63.7166 100.777 56.7984 101.908 49.7827 102.709C48.9694 102.805 48.6875 103.232 48.9586 103.99L49.2296 104.759C49.4899 105.485 50.3682 105.784 51.0188 105.368C52.9381 104.15 54.9008 103.787 56.9068 104.278C58.5225 104.663 58.5334 105.09 56.9502 105.57C54.89 106.2 52.3417 106.798 49.3055 107.385C48.8284 107.481 48.6983 107.738 48.926 108.165L49.1212 108.528C49.3164 108.891 49.7068 109.104 50.1188 109.072C55.79 108.656 60.0515 108.56 62.9033 108.773C63.7708 108.837 64.6925 108.709 65.6792 108.389C67.154 107.909 68.3467 107.695 69.2576 107.738C69.9624 107.77 70.7106 107.759 71.5022 107.706C72.1637 107.663 72.9227 107.46 73.7794 107.086C75.4167 106.392 77.1083 106.051 78.8541 106.083C79.2336 106.083 79.2553 106.19 78.93 106.382C77.6396 107.14 76.8372 107.877 75.2649 108.09C74.1806 108.25 73.1179 108.496 72.0878 108.837C71.0359 109.179 69.995 109.361 68.9431 109.393C66.1672 109.478 63.5214 110.364 60.9732 110.567C57.6008 110.823 54.3586 111.368 50.9754 111.571C41.2488 112.147 31.6089 111.635 22.0558 110.044C18.4449 109.446 14.6605 108.442 10.6918 107.033C9.07612 106.457 7.8508 105.763 6.99416 104.951C4.96643 103.008 5.2592 102.56 7.89418 103.595C9.20624 104.118 10.4966 104.695 11.7653 105.303C12.0906 105.464 12.4268 105.517 12.7846 105.464C13.5545 105.367 14.0858 105.442 14.3678 105.688C15.6148 106.745 16.1244 106.478 15.9184 104.866C15.8425 104.257 15.8208 103.446 15.8642 102.41C15.875 102.282 15.9401 102.218 16.0702 102.229C16.2111 102.239 16.2762 102.303 16.2654 102.431C16.1678 104.033 16.6015 105.282 17.5557 106.19C18.7594 107.332 19.1931 107.097 18.857 105.506C18.7919 105.197 18.6293 104.93 18.3582 104.684C17.9678 104.343 18.022 104.076 18.51 103.894C18.6184 103.862 18.7268 103.851 18.8461 103.862C19.1064 103.905 19.2473 104.054 19.2799 104.311C19.3883 105.453 19.9413 106.275 20.9498 106.777C21.2859 106.948 21.5353 106.862 21.698 106.531C21.9474 105.965 22.1859 105.367 22.392 104.738C22.5546 104.257 22.7932 104.012 23.1185 104.012C23.563 104.012 23.6281 104.161 23.3245 104.471C22.6197 105.186 22.5112 105.923 22.9992 106.691C23.1944 107.001 23.4763 107.129 23.845 107.086C25.4607 106.873 26.2306 105.997 26.1763 104.471C26.1655 104.001 26.3065 103.948 26.5992 104.311C26.8703 104.641 26.9679 105.239 26.8703 106.083C26.8378 106.392 27.098 106.659 27.4125 106.638C28.7788 106.563 30.1667 106.702 31.5656 107.054C33.0294 107.428 33.962 107.236 35.3391 106.948C35.6969 106.873 35.968 106.681 36.1307 106.35C36.6078 105.421 36.6186 104.503 36.1741 103.606C36.0114 103.275 35.7403 103.093 35.3716 103.051C25.6233 101.834 19.2799 100.702 16.3413 99.6662C13.2292 98.5558 10.2147 97.4881 7.29778 96.4632C6.65802 96.239 6.37609 95.7906 6.45199 95.1286L6.49536 94.819C6.54958 94.3812 6.78814 94.2211 7.21104 94.3599C14.834 96.7301 20.5052 98.1287 24.2137 98.5451C39.5139 100.296 54.4779 100.659 69.0191 97.5842C73.183 96.7087 76.8914 95.4276 80.1553 93.7513C80.4698 93.5805 80.6867 93.2709 80.7192 92.9185L80.7951 92.1285C80.8276 91.7761 81.0337 91.4665 81.3481 91.285C82.4216 90.6765 83.4409 90.3668 84.4277 90.3668C85.3602 90.3668 85.9458 91.3811 85.4578 92.1712ZM75.6986 102.399L75.5685 102.933C75.536 103.072 75.4059 103.157 75.2649 103.136C73.1938 102.848 71.1335 103.136 69.095 104.001C69.0082 104.033 68.9106 104.022 68.8239 103.969L68.4227 103.659C68.3251 103.584 68.3359 103.52 68.4227 103.456C70.5588 102.047 72.9119 101.599 75.5035 102.122C75.6553 102.154 75.7203 102.25 75.6878 102.399H75.6986ZM60.0515 107.332C60.1491 107.684 60.0189 107.823 59.6611 107.748C58.8045 107.578 57.9587 107.417 57.1346 107.247C57.0695 107.268 57.0153 107.3 56.9502 107.321C56.9502 107.321 56.9285 107.311 56.9177 107.3C56.9068 107.289 56.9068 107.279 56.9068 107.268C56.896 107.215 56.9068 107.204 56.9611 107.215C57.0153 107.225 57.0803 107.236 57.1346 107.247C57.9478 106.98 58.7286 106.35 59.4768 105.346C59.0105 104.695 58.8804 103.99 59.0972 103.243C59.1948 102.891 59.4334 102.741 59.8129 102.805C61.9708 103.179 64.1395 103.189 66.2973 102.848C66.6552 102.794 66.9913 102.858 67.2949 103.04C67.4034 103.115 67.5118 103.179 67.6094 103.254C67.8913 103.456 67.8588 103.574 67.5118 103.595L61.8081 103.969C61.4936 103.99 61.2009 104.097 60.9406 104.278L59.4768 105.346L60.0515 107.332ZM28.3125 104.193C28.345 103.83 28.5402 103.702 28.8981 103.798C29.2559 103.894 29.4619 104.193 29.4945 104.695C29.5053 104.962 29.245 105.165 28.9848 105.09C28.4968 104.94 28.2691 104.641 28.3125 104.193ZM31.4354 105.592C32.6065 105.528 33.6367 105.154 34.5367 104.471C34.6343 104.396 34.7861 104.407 34.8728 104.503C34.9596 104.588 34.9487 104.738 34.862 104.823C33.8102 105.859 32.6608 106.222 31.4029 105.933C30.5896 105.752 30.6005 105.634 31.4354 105.592ZM70.1359 86.0001C74.3866 85.9147 77.9324 86.4912 80.7626 87.7404C83.7771 89.075 83.6578 89.438 80.4156 88.8294C79.1035 88.5838 77.336 88.4023 75.1131 88.2849C74.7553 88.2635 74.43 88.1568 74.1155 87.9753C72.9119 87.2279 71.589 86.8115 70.1468 86.7154C69.7673 86.6834 69.5178 86.8542 69.3986 87.2172C69.2359 87.719 69.2359 88.2208 69.3986 88.7226C69.5829 89.2992 68.9215 89.7689 68.4227 89.4166C66.8503 88.3062 65.7118 88.0714 65.0286 88.7226C64.7142 89.0109 64.3455 89.1177 63.9118 89.0536C63.6298 89.0109 63.3479 89.0216 63.0768 89.0963C60.3117 89.8223 57.5032 90.1213 54.6514 89.9825C54.2719 89.9611 54.196 89.801 54.4237 89.502C54.8683 88.9041 55.3779 88.5411 55.9309 88.413C58.6743 87.7724 62.1659 87.2706 66.4166 86.8969C67.2516 86.8222 68.1082 87.3453 68.9757 86.4912C69.2901 86.1709 69.6805 86.0108 70.1359 86.0001ZM63.2286 78.1101C60.3117 79.5834 60.0081 79.1777 62.3286 76.8929C63.3262 75.9107 64.2913 74.9498 65.2347 73.9995C66.9371 72.2806 70.0166 70.3588 71.2962 68.0527C72.6408 65.6291 74.0938 63.2909 75.6553 61.0168C75.7529 60.8566 75.7312 60.7285 75.5685 60.6324L75.2757 60.4616C75.1782 60.4082 75.0589 60.4509 75.0155 60.547C73.595 64.3158 71.1227 64.0703 68.7696 66.291C65.9937 68.9175 63.3154 71.672 60.7238 74.5441C60.4744 74.811 60.3768 74.7683 60.4093 74.4053C60.9298 69.793 64.4648 66.9209 67.1648 63.6325C67.8479 62.7998 67.8046 62.3727 67.6636 61.3904C67.6202 61.0381 67.6853 60.7178 67.8479 60.4082C72.1528 52.5929 78.3553 49.1123 84.7096 43.4964C85.6313 42.685 85.9241 41.3824 85.5988 39.5781C85.5446 39.2898 85.3711 39.087 85.1 38.9482C83.8747 38.361 82.7361 38.457 81.6843 39.2364C74.3866 44.6922 68.401 50.874 63.7274 57.7604C62.9467 58.9135 62.5238 58.796 62.4696 57.4187C62.3828 55.3368 63.1093 53.1481 64.6491 50.8526C69.0516 44.2972 78.0951 36.0868 86.3361 35.0832C88.0386 34.8804 88.906 35.6171 88.9386 37.304C89.1554 46.7635 83.8421 58.4544 78.5722 66.1949C74.3757 72.366 69.6805 74.8644 63.2286 78.1101Z" fill="black"/>
<path d="M55.5946 30.0227C55.9633 26.2112 56.9392 22.848 58.5223 19.912C58.7934 19.3888 59.1838 19.3354 59.6934 19.7411C59.9753 19.9653 60.2898 20.0294 60.6368 19.9547L61.038 19.8479C61.4609 19.7518 61.9055 19.8906 62.1874 20.2216C62.4802 20.5526 62.632 20.9262 62.6429 21.332C62.6645 21.695 62.5019 22.0473 62.1983 22.2715C61.3199 22.9334 60.7886 23.542 60.5826 24.0972C59.4115 27.2788 57.9151 30.2896 56.0825 33.1403C55.9633 33.3111 55.8114 33.3538 55.6271 33.2684L54.4126 32.7346C54.1849 32.6385 54.1415 32.489 54.2825 32.2969L55.2259 30.9943C55.4319 30.706 55.562 30.3751 55.5946 30.0227Z" fill="black"/>
<path d="M68.8562 63.6755C68.7369 63.8143 68.6068 63.825 68.4658 63.7076L68.108 63.43C67.967 63.3125 67.9562 63.1844 68.0538 63.0456C70.6671 59.2981 73.7791 56.4688 77.3792 54.5364C78.2033 54.0986 78.431 54.3015 78.0732 55.1449C77.2382 57.1094 76.1213 58.2732 74.0611 59.4156C72.1201 60.4939 70.3851 61.9139 68.8562 63.6755Z" fill="black"/>
</g>
<defs>
<clipPath id="clip0_2187_2250">
<rect width="95" height="160" fill="white"/>
</clipPath>
</defs>
</svg>
