<svg width="698" height="725" viewBox="0 0 698 725" fill="none" xmlns="http://www.w3.org/2000/svg">
<path fill-rule="evenodd" clip-rule="evenodd" d="M251.383 246.478C210.811 246.478 219.969 263.797 231.666 285.91C168.404 285.91 148.518 303.871 128.818 321.664C116.531 332.762 104.316 343.795 81.692 350.362C69.9169 353.777 55.1317 353.367 41.3873 352.987C19.3566 352.377 0 351.841 0 367.244C0 394.772 51.6717 420.444 74.1989 428.559C121.411 445.647 156.48 448.546 211.958 448.546C218.476 448.546 221.191 447.931 223.922 447.312C226.384 446.755 228.859 446.194 234.143 446.077C233.565 448.595 232.759 450.934 231.965 453.235C230.569 457.28 229.214 461.21 229.214 465.794C229.214 484.443 253.254 480.557 263.717 478.12C262.609 482.879 261.536 487.279 260.531 491.404L260.53 491.409C252.417 524.697 248.655 540.131 265.127 582.682C287.001 639.197 278.284 658.307 269.849 676.799C265.516 686.298 261.257 695.635 261.257 709.795C261.257 716.754 271.529 724.582 278.505 724.582C303.723 724.582 335.559 691.034 351.692 672.074C382.238 636.161 407.919 572.473 418.987 524.942C420.835 526.18 422.585 527.579 424.313 528.96C430.166 533.638 435.765 538.114 444.047 535.446C455.927 531.607 458.42 522.912 458.42 507.695C512.728 544.06 542.262 541.352 568.869 538.913C589.53 537.019 608.426 535.286 635.787 552.136C643.311 556.775 648.375 561.81 653.343 566.749C656.971 570.357 660.548 573.913 664.995 577.227C671.365 581.941 677.513 583.677 683.31 582.188C692.069 579.927 696.234 573.739 697.492 565.657V553.02C694.944 531.52 681.646 505.242 677.815 497.829C669.231 481.215 656.273 465.704 644.178 451.226C643.64 450.583 643.105 449.941 642.571 449.302C631.957 436.625 620.554 426.796 608.518 416.421L608.515 416.418C605.545 413.858 602.536 411.265 599.492 408.588L549.643 374.633C550.256 373.799 551.873 372.571 553.94 371.002C562.627 364.406 579.261 351.774 562.679 336.961C558.267 333.019 556.667 332.912 555.437 332.829C554.106 332.74 553.208 332.68 549.643 327.811C557.336 325.757 566.915 316.846 572.513 311.248C596.683 287.068 603.428 263.043 609.792 240.376C617.715 212.155 625.048 186.039 664.677 164.348C668.737 162.123 672.082 160.46 674.837 159.09C686.877 153.104 687.658 152.715 687.658 135.569C687.658 103.805 593.233 119.421 553.721 137.162C531.679 147.068 516.295 154.386 497.383 167.087C495.255 168.515 493.209 169.874 491.215 171.198L491.214 171.199C484.315 175.78 478.036 179.951 471.105 185.171C467.612 187.794 464.328 190.477 461.086 193.127C456.197 197.121 451.404 201.039 446.133 204.553C446.133 183.992 440.288 177.479 426.417 177.479C416.568 177.479 414.398 180.596 411.596 184.621C409.937 187.004 408.057 189.705 404.232 192.266C401.786 187.168 399.826 182.127 397.856 177.059C392.951 164.441 387.982 151.656 375.279 137.425C359.029 119.182 344.043 110.262 330.675 102.305C307.144 88.2985 288.629 77.2783 277.071 23.642C274.173 10.2722 268.79 2.53222 262.411 0H252.545C234.055 6.60926 213.71 48.4944 219.157 118.489C221.179 144.4 223.863 163.934 230.225 186.286C230.899 188.653 231.541 190.963 232.17 193.229L232.171 193.234C234.426 201.354 236.524 208.913 239.406 216.545C240.197 218.633 241.04 220.945 241.923 223.37C244.765 231.173 248.028 240.131 251.351 246.462L251.383 246.478ZM324.053 121.037C350.219 137.648 377.269 154.832 388.656 212.914C378.58 225.783 371.239 240.575 367.085 256.383C363.199 271.147 362.036 286.635 362.737 303.301C362.45 302.985 362.161 302.67 361.87 302.357C351.521 242.634 343.642 225.909 325.812 188.06L325.026 186.391C319.627 174.925 313.293 161.471 305.698 144.185C300.992 133.499 295.721 123.37 290.521 113.401L290.517 113.394C282.187 97.3969 274.062 81.7945 269.133 65.3765C282.414 94.5943 302.98 107.655 324.029 121.022L324.053 121.037ZM257.726 25.4665C254.615 59.5323 269.095 87.3839 284.21 116.457L284.463 116.944L284.464 116.945C289.572 126.758 294.757 136.721 299.288 147.004C306.87 164.237 313.254 177.817 318.703 189.408L319.466 191.032C336.029 226.171 343.872 242.825 353.262 293.964C334.812 277.64 311 266.009 292.591 263.287C287.878 262.456 283.257 261.17 278.791 259.449C270.304 243.143 263.074 226.212 257.164 208.805C236.882 149.64 230.01 83.9057 245.243 42.0364L246.04 39.9581C248.723 33.0303 252.53 24.4702 256.336 19.1111C256.903 21.2056 257.367 23.3266 257.726 25.4665ZM525.755 321.489C575.107 294.178 583.48 263.994 591.6 234.724L591.608 234.692C599.267 207.099 606.718 180.272 640.749 156.731C620.781 166.71 604.726 182.643 588.141 199.102L588.129 199.114L587.242 199.991C579.486 207.673 571.598 215.484 563.244 222.756C547.955 236.062 536.791 246.286 527.315 254.974L527.31 254.979C496.886 282.855 483.196 295.399 431.175 322.192C431.19 322.231 431.204 322.27 431.218 322.309C445.552 317.173 459.495 313.916 473.565 313.048C490.67 311.997 507.806 314.505 525.755 321.489ZM433.012 313.322C443.289 290.384 447.149 263.399 443.999 244.678C443.479 241.253 443.245 237.79 443.298 234.326C457.169 220.403 472.169 207.653 488.146 196.207C538.75 159.689 599.516 134.041 644.06 136.326L646.139 136.461C653.664 137.011 663.195 138.157 669.47 140.236C669.323 140.327 669.175 140.417 669.027 140.507C631.728 145.983 608.037 169.499 583.2 194.153L583.006 194.345C575.193 202.095 567.266 209.958 558.642 217.461C544.469 229.779 533.072 240.22 523.353 249.125L523.346 249.132L522.601 249.814C493.711 276.329 480.168 288.69 433.012 313.322ZM459.885 482.651C502.089 522.466 533.829 520.945 564.55 519.464C592.312 518.124 619.361 516.821 651.122 539.573C635.819 525.14 616.732 515.401 597.049 505.359L597.039 505.354L596.712 505.187L596.711 505.186C586.839 500.144 576.814 495.023 566.82 489.061C550.097 479.108 536.56 471.487 524.998 465.005C488.201 444.342 472.121 435.311 428.207 391.702C428.035 391.666 427.863 391.631 427.691 391.595C438.25 404.925 446.539 418.39 452.113 432.906C458.191 448.75 460.848 465.7 459.909 482.643L459.885 482.651ZM439.958 393.513C464.994 396.13 491.934 391.381 508.77 382.445C511.87 380.873 515.095 379.563 518.413 378.527C535.977 387.34 552.783 397.589 568.659 409.169C619.28 445.83 662.75 495.583 674.447 538.631L674.893 540.414C676.733 547.732 678.628 557.145 678.628 563.77C678.183 563.399 677.743 563.023 677.309 562.642C660.32 529.789 630.954 514.805 600.177 499.103L599.977 499.001C590.048 493.929 579.974 488.784 570.363 483.057C553.115 472.785 539.738 465.268 528.382 458.898L528.308 458.856C494.126 439.658 478.076 430.643 439.958 393.513ZM285.622 583.06C274.562 554.267 263.137 524.526 288.012 471.654L288.02 471.646C304.199 467.251 319.28 459.521 332.294 448.952C344.135 439.333 354.216 427.516 363.477 413.636C363.511 413.951 363.546 414.265 363.582 414.58C336.355 469.05 332.767 487.173 324.674 528.327L324.632 528.541L324.631 528.543L324.63 528.549C322.075 541.512 319.068 556.774 314.864 575.579C312.331 586.926 310.572 598.202 308.836 609.35C305.65 629.83 302.55 649.729 294.799 667.834C304.662 632.57 295.267 608.135 285.623 583.064L285.622 583.06ZM280.606 702.291C280.164 703.268 279.748 704.257 279.357 705.256C285.663 703.185 294 698.44 300.355 694.41L301.908 693.415C339.126 668.801 372.778 611.922 391.698 552.367C397.453 534.444 401.79 516.097 404.67 497.494C402.269 493.865 399.539 490.463 396.516 487.333C383.175 474.156 370.741 450.551 365.528 426.36C342.642 473.287 339.086 491.357 331.588 529.457L331.387 530.477L331.386 530.481L331.386 530.485L331.385 530.488C328.905 543.046 325.985 557.83 321.688 577.052C319.203 588.2 317.459 599.348 315.747 610.385C310.512 644.013 305.505 676.134 280.606 702.291ZM278.926 420.827C286.093 406.43 302.752 389.692 321.927 378.926L321.943 378.917C322.423 378.649 322.903 378.381 323.387 378.12L323.862 377.859L323.885 377.883C325.702 384.669 328.829 391.034 333.091 396.619C336.591 401.317 340.946 405.312 345.927 408.397C338.41 418.963 330.367 428.009 321.242 435.423C305.077 448.554 285.146 456.748 258.286 459.407H258.079C253.5 459.842 250.825 461.438 249.411 462.282C248.521 462.813 248.13 463.046 248.078 462.505C247.943 461.103 253.851 454.096 260.452 446.268C267.253 438.202 274.642 429.427 278.926 420.827ZM244.861 305.555C186.501 298.325 161.776 318.566 137.839 338.163C117.835 354.561 98.2923 370.561 64.1059 373.181C82.4439 374.178 101.019 371.128 120.097 367.993L120.273 367.964L120.276 367.963L120.277 367.963C131.311 366.149 142.512 364.308 154.083 363.215C173.298 361.336 188.826 359.416 202.02 357.784L202.049 357.781C243.59 352.644 261.883 350.382 322.065 359.228C322.35 359.096 322.636 358.965 322.922 358.835V358.748C306.916 354.248 292.607 348.348 279.819 340.09C265.913 331.108 254.012 319.35 244.861 305.555ZM311.479 364.75C290.139 377.223 271.595 396.322 263.271 413.039C261.127 417.075 258.604 420.898 255.738 424.458C237.392 427.48 218.838 429.078 200.245 429.236C137.735 429.92 73.1557 415.818 38.1187 388.179L36.6853 387.024C30.8564 382.254 23.7296 375.82 19.7959 370.501C21.3818 370.589 22.964 370.731 24.5399 370.925C56.557 385.518 88.0714 380.353 121.042 374.948L121.26 374.912C132.289 373.081 143.493 371.241 154.776 370.135C174.711 368.193 189.765 366.33 202.559 364.747L202.904 364.704L202.914 364.703C241.538 359.935 259.809 357.679 311.479 364.75ZM425.126 372.969C430.386 374.45 435.762 375.481 441.196 376.051C463.086 378.44 486.37 374.514 500.591 366.973C509.152 362.426 520.212 359.607 530.381 357.019L531.014 356.858C540.694 354.392 549.236 352.216 549.906 351.031C550.172 350.562 549.714 350.521 548.675 350.429C547.036 350.284 543.949 350.01 539.976 347.719C516.509 334.182 495.463 329.237 474.592 330.519C461.167 331.315 447.638 334.755 433.464 340.122C433.278 344.091 432.85 348.046 432.182 351.963C431.151 358.034 429.333 363.944 426.775 369.545C426.244 370.681 425.694 371.812 425.126 372.937V372.969ZM382.286 421.026C381.464 416.922 380.898 412.77 380.59 408.596C384.67 407.395 388.653 405.882 392.502 404.073C397.867 401.549 402.904 398.383 407.505 394.645C420.182 409.328 429.881 423.733 435.797 439.158C443.242 458.643 444.835 480.199 438.982 506.675C437.99 511.125 438.664 514.158 439.024 515.776C439.253 516.808 439.354 517.265 438.815 517.147C437.429 516.844 432.596 509.048 427.205 500.353C421.655 491.379 415.619 481.64 408.755 474.871C397.312 463.604 386.578 442.605 382.286 421.026ZM343.164 308.469C347.18 312.121 350.882 316.103 354.233 320.374L354.201 320.35C347.943 323.638 342.175 327.785 337.064 332.669C334.093 335.56 331.466 338.785 329.237 342.28C314.163 338.171 300.857 332.82 289.255 325.327C271.728 314.012 257.729 297.568 246.852 272.771C245.002 268.56 242.648 266.511 241.4 265.425C240.612 264.739 240.266 264.438 240.768 264.219C242.066 263.654 250.571 267.094 260.07 270.94C269.817 274.89 280.44 279.182 289.995 280.599C305.905 282.988 326.967 293.587 343.164 308.469ZM416.423 307.649L416.797 306.853C425.891 286.826 429.442 263.494 426.775 247.648C425.212 238.315 425.95 227.149 426.633 216.822L426.671 216.242L426.676 216.173C427.383 205.96 428.015 196.826 427.085 195.793C426.725 195.392 426.544 195.813 426.134 196.769C425.485 198.281 424.26 201.134 420.834 204.194C400.632 222.23 389.341 240.657 384.022 260.859C380.04 275.893 379.339 292.121 380.677 310.046C381.824 309.727 383.01 309.409 384.229 309.09L384.571 308.963C397.264 305.674 408.022 304.75 416.423 307.649ZM406.103 376.879C397.225 387.613 383.019 396.038 362.02 397.782C351.023 398.698 332.494 377.914 338.283 357.012C341.03 347.074 349.28 337.096 366.44 329.412C372.636 326.699 379.047 324.507 385.607 322.858C409.503 316.679 422.722 320.844 417.594 351.629C416.053 360.91 412.089 369.62 406.103 376.879Z" fill="#6C2C00"/>
</svg>
