<svg width="647" height="656" viewBox="0 0 647 656" fill="none" xmlns="http://www.w3.org/2000/svg">
<path d="M291.391 308.141C276.269 319.365 280.397 330.226 287.006 342.044V342.035C289.965 347.333 304.059 358.814 310.482 358.637C381.637 356.706 327.19 281.564 291.391 308.141Z" fill="#6C2C00"/>
<path fill-rule="evenodd" clip-rule="evenodd" d="M204.46 116.579C211.227 122.003 217.827 127.293 224.745 131.926V131.873C233.524 94.178 237.209 80.3491 261.492 47.9695C308.371 -14.5672 343.329 -0.367963 369.102 10.1004C374.797 12.4136 380.044 14.5447 384.871 15.6253C392.918 17.4257 402.504 18.2995 412.673 19.2265C460.345 23.5722 520.819 29.085 495.556 136.71C494.538 141.064 492.911 145.622 491.24 150.303C488.607 157.68 485.866 165.363 485.226 173.032C508.064 162.082 593.288 182.919 615.825 212.437C629.438 230.271 629.186 239.732 628.836 252.892C628.643 260.141 628.421 268.512 630.469 280.022C633.922 299.422 637.279 309.205 640.056 317.296C644.163 329.261 647 337.528 647 367.726C647 414.723 567.464 430.793 523.612 430.793C525.637 439.482 528.41 446.75 531.219 454.112C536.94 469.106 542.809 484.489 542.809 513.049C542.809 577.749 523.07 586.062 496.181 597.387C491.201 599.485 485.975 601.686 480.584 604.367C466.997 611.108 455.282 620.682 443.795 630.07L443.755 630.103L443.603 630.227C442.534 631.1 441.466 631.972 440.399 632.84C415.931 652.968 408.915 655.626 383.702 655.626C340.145 655.626 313.402 599.139 298.689 568.063C297.743 566.063 296.846 564.169 295.998 562.402L288.911 568.985C261.705 594.1 226.738 622.723 186.359 622.723C157.434 622.723 150.01 622.52 130.698 598.875C118.592 584.066 98.9921 573.104 81.3522 563.239C71.0066 557.453 61.335 552.043 54.2447 546.456C22.4409 521.412 30.8126 484.479 47.4055 453.579C54.4034 440.575 60.0977 433.831 68.71 423.63C69.2452 422.996 69.7916 422.349 70.3503 421.686C82.6904 407.063 95.554 395.902 105.833 386.984C116.569 377.668 124.486 370.8 126.038 364.989C72.9637 360.603 1.97659 285.718 0.31996 230.376C-0.273952 210.643 9.80299 198.975 19.3563 187.912L19.3583 187.91L19.3613 187.907C19.9238 187.255 20.4845 186.606 21.0411 185.957C30.5123 174.92 37.1797 158.8 43.9917 142.331C57.2124 110.368 70.9777 77.089 106.841 77.089C155.192 77.089 180.846 97.6517 204.46 116.579ZM245.235 152.399C274.337 181.457 302.03 217.85 316.852 252.036C326.663 254.064 336.198 257.753 345.104 262.691C351.698 245.85 350.701 233.55 349.603 220.02L349.603 220.015C347.884 198.754 345.955 174.888 366.94 129.986C367.321 129.162 368.712 125.424 369.89 122.075C370.194 121.213 370.74 121.461 371.115 121.63C371.43 121.773 371.624 121.861 371.45 121.189C370.966 119.128 371.308 116.959 372.402 115.146C373.497 113.333 375.258 112.021 377.307 111.49C379.357 110.959 381.534 111.251 383.371 112.303C385.208 113.356 386.561 115.086 387.139 117.123C387.653 119.107 386.643 123.324 385.199 127.417C383.905 131.12 382.222 135.549 381.655 136.861C362.529 177.78 364.283 199.494 365.842 218.753L365.842 218.759C367.172 235.171 368.374 250.013 358.993 271.771C366.794 277.704 373.836 284.583 379.804 292.044C432.072 244.347 492.844 133.308 477.359 74.325C469.812 45.5745 448.033 43.9541 419.571 41.8362C398.42 40.2625 373.578 38.414 348.141 24.9538C311.403 5.51721 254.989 80.9073 248.239 123.085C246.677 132.791 245.674 142.578 245.235 152.399ZM391.028 309.204C422.974 281.076 452.837 237.224 472.416 195.738C525.127 182.272 612.397 210.568 608.127 250.362C605.138 278.199 612.491 301.781 618.808 322.045C627.398 349.599 634.075 371.015 610.235 388.642C563.079 423.511 445.546 410.223 382.275 383.495C394.05 372.972 399.56 359.694 400.042 345.65C404.408 344.075 411.894 342.211 420.864 339.98C445.953 333.743 481.664 324.858 506.469 306.068C512.442 301.936 518.864 298.494 525.613 295.809C526.839 295.361 527.375 294.444 527.733 293.832C528.027 293.329 528.201 293.033 528.536 293.373C529.288 294.129 530.181 294.73 531.165 295.141C532.149 295.552 533.204 295.765 534.27 295.768C535.336 295.772 536.392 295.565 537.378 295.16C538.365 294.755 539.261 294.16 540.018 293.408C540.774 292.657 541.375 291.763 541.786 290.78C542.197 289.796 542.41 288.741 542.413 287.675C542.417 286.609 542.21 285.552 541.805 284.566C541.4 283.58 540.805 282.683 540.053 281.927C535.331 277.187 527.881 277.719 520.103 280.563C510.624 284.018 499.284 291.149 496.706 293.107C474.443 309.921 440.699 318.32 416.975 324.22L416.887 324.241L416.886 324.242C409.818 326.002 403.55 327.563 398.424 329.162C396.917 322.441 394.409 315.719 391.028 309.204ZM269.332 390.458C263.406 434.842 272.53 491.69 287.529 537.146L287.493 537.19C258.48 583.345 175.772 622.812 151.499 591.07C134.049 568.252 112.266 556.197 93.7086 545.927C68.7209 532.099 49.5809 521.507 54.7408 492.23C61.0307 456.715 101.375 413.217 148.646 379.827C152.113 377.365 155.618 374.97 159.162 372.643C187.743 377.065 216.927 375.591 244.917 368.311C247.232 371.033 250.034 373.962 253.158 376.936C239.853 388.029 218.508 408.306 200.737 428.074C184.906 445.676 171.591 463.279 168.34 474.796C168.003 475.992 167.817 476.798 167.711 477.321L167.171 478.561C166.704 479.556 166.444 480.635 166.406 481.733C166.368 482.831 166.554 483.925 166.951 484.949C167.349 485.974 167.95 486.907 168.718 487.692C169.486 488.478 170.406 489.099 171.421 489.519C172.436 489.939 173.526 490.148 174.625 490.135C175.724 490.121 176.808 489.885 177.813 489.44C178.817 488.996 179.721 488.352 180.47 487.548C181.219 486.744 181.797 485.796 182.169 484.762C182.244 484.567 182.32 484.372 182.397 484.178C182.458 484.024 182.519 483.871 182.581 483.717C182.806 483.15 183.032 482.584 183.241 482.007C183.36 481.63 183.452 481.245 183.515 480.855L183.976 479.155C186.457 470.358 198.399 454.925 212.803 438.908C231.31 418.332 253.443 397.422 265.593 387.631C266.828 388.592 268.076 389.537 269.332 390.458ZM361.537 396.288C358.545 397.557 354.723 398.963 350.346 400.318C350.792 401.899 351.365 403.663 352.049 405.616C358.746 424.805 374.595 456.635 384.189 468.586C392.79 479.345 399.87 487.315 406.72 495.026L407.983 496.447C413.271 502.397 418.475 508.253 424.17 515.14C425.515 516.803 426.149 518.929 425.936 521.057C425.723 523.185 424.679 525.143 423.031 526.507C421.383 527.87 419.264 528.529 417.134 528.339C415.004 528.15 413.034 527.128 411.652 525.496C405.912 518.559 400.605 512.588 395.201 506.511L394.901 506.173C387.696 498.05 380.294 489.705 371.53 478.783C361.005 465.662 343.854 431.431 336.723 410.985C335.908 408.788 335.203 406.555 334.609 404.291C319.149 407.322 301.44 408.176 288.459 402.09C281.372 469.419 316.418 596.9 367.57 628.57C392.854 644.222 409.794 630.367 431.899 612.287C448.319 598.857 467.589 583.096 495.246 575.363C533.57 564.653 527.971 473.946 495.618 429.075L461.847 425.575C426.092 420.357 389.85 410.338 361.555 396.288H361.537ZM233.905 350.097C224.592 331.346 220.963 314.402 226.516 298.452C174.364 287.841 150.796 258.464 121.387 221.801C117.223 216.6 112.909 211.232 107.727 204.969C107.007 204.152 106.459 203.2 106.114 202.168C105.77 201.136 105.636 200.045 105.721 198.96C105.806 197.876 106.109 196.819 106.61 195.853C107.111 194.888 107.801 194.032 108.639 193.339C109.478 192.645 110.446 192.126 111.489 191.814C112.531 191.502 113.626 191.402 114.707 191.521C115.789 191.64 116.835 191.975 117.785 192.506C118.735 193.037 119.568 193.753 120.236 194.612C124.241 199.419 128.499 204.732 132.697 209.969L134.079 211.693C162.287 246.835 184.716 274.777 234.735 283.482C239.229 277.597 245.228 271.82 252.926 266.104C264.754 257.112 278.911 251.695 293.721 250.495C261.882 187.694 174.922 100.007 114.521 98.0316C85.0491 97.0698 76.487 118.867 65.7384 146.229C57.974 165.995 49.0688 188.665 30.3167 207.759C1.12629 237.463 57.4075 313.066 95.8113 331.528C140.469 353.002 187.83 360.763 233.905 350.132V350.097ZM256.106 356.015C241.665 330.199 232.665 306.484 265.682 281.953C343.889 223.874 462.795 388.031 307.382 392.266C293.349 392.647 262.573 367.584 256.106 356.015Z" fill="#6C2C00"/>
</svg>
