<svg width="691" height="690" viewBox="0 0 691 690" fill="none" xmlns="http://www.w3.org/2000/svg">
<path fill-rule="evenodd" clip-rule="evenodd" d="M294.145 127.375H288.491C283.321 108.027 198.971 36.941 138.682 36.941C126.578 36.941 116.064 45.6555 116.064 56.7268C116.064 67.7083 121.617 72.9098 129.322 80.1273C136.275 86.6404 144.981 94.7951 152.941 110.32C161.339 126.698 161.024 145.012 160.747 161.12C160.534 173.481 160.343 184.543 164.131 192.432L53.4913 203.394C45.809 204.472 31.2391 206.847 31.2391 223.554C31.2391 237.196 39.1662 242.269 47.8916 247.853C49.3148 248.764 50.7594 249.688 52.1942 250.666C56.6444 253.706 58.2154 255.086 60.31 256.927C61.4572 257.935 62.7615 259.082 64.7818 260.714C67.7271 263.086 71.9496 266.278 76.853 269.984C96.495 284.831 127.061 307.935 130.205 319.697C100.544 326.603 42.3195 368.878 21.0631 397.168C4.62058 419 -15.6311 461.066 22.7621 461.066C30.8115 461.066 36.565 457.793 43.3928 453.908C53.3557 448.24 65.6061 441.271 90.6148 441.271C104.728 441.271 120.575 446.474 135.642 451.42C143.591 454.03 151.322 456.568 158.467 458.234C149.754 476.402 144.991 505.468 140.892 530.479C140.033 535.725 139.203 540.792 138.371 545.544C137.682 549.449 136.82 553.343 135.98 557.138C131.252 578.501 127.209 596.771 158.467 596.771L265.892 528.845C269.61 573.496 286.07 630.003 312.278 663.409C319.704 672.872 333.37 690 347.903 690C371.67 690 370.044 677.449 367.516 657.938C365.11 639.369 361.888 614.496 378.961 588.139L379.28 587.644C384.926 578.872 397.421 559.457 404.474 554.286L478.566 598.945C485.259 603.124 489.293 606.116 492.182 608.26C499.209 613.473 499.462 613.661 514.74 613.661C527.967 613.661 532.379 595.958 529.474 585.07C528.329 580.743 526.997 575.838 525.554 570.519C516.633 537.652 503.431 489.006 503.431 463.815C539.12 472.128 569.429 474.969 608.142 472.402C655.816 469.241 684.965 451.301 690.035 435.014V425.267C687.477 417.877 678.708 411.72 663.014 408.824L661.667 408.577C643.113 405.176 636.012 403.875 622.237 395.88C605.283 386.052 583.414 356.967 574.115 339.401C591.734 327.603 603.949 315.85 616.288 303.977C624.824 295.764 633.42 287.493 643.904 279.111C645.414 277.905 647.037 276.707 648.684 275.49C656.358 269.822 664.586 263.745 664.586 254.548C664.586 230.571 642.87 229.593 607.512 228C593.393 227.364 577.099 226.63 559.143 224.294C558.558 224.218 557.977 224.142 557.399 224.066L556.738 223.979C543.014 222.183 531.231 220.64 517.571 220.64C518.288 217.558 521.826 210.656 526.381 201.767C532.911 189.027 541.532 172.204 546.939 156.697C555.097 133.093 584.693 28.4183 534.452 28.4183C521.471 28.4183 518.314 34.9976 513.017 46.0352C508.623 55.1921 502.757 67.4174 488.587 81.5001C475.921 94.0921 462.595 98.2744 448.457 102.712C439.743 105.446 430.721 108.278 421.355 113.234C418.628 107.549 416.48 101.986 413.958 95.4552C409.781 84.6392 404.578 71.1684 394.024 50.095C387.995 38.0463 385.237 32.063 379.856 19.0369C375.143 7.6094 367.296 -2.4936 352.544 1.80885C339.849 5.51337 334.576 21.5647 328.003 41.5706C325.954 47.8089 323.778 54.4317 321.212 61.1845C316.854 72.6486 312.744 83.1078 308.195 93.4027C307.323 95.3804 306.226 97.7532 305.028 100.346C300.987 109.091 295.79 120.338 294.145 127.375ZM322.609 173.003C317.411 164.991 311.793 157.053 305.828 149.307V149.298C315.52 133.056 330.483 98.445 343.125 65.1307C348.67 50.5334 353.795 36.0183 357.869 23.2297C363.599 39.1224 370.503 52.3606 377.217 65.2333L377.335 65.4595C387.063 84.1035 396.39 101.998 400.628 126.498C387.127 135.55 374.074 148.686 362.061 169.641C362.017 169.57 361.972 169.5 361.927 169.429L361.815 169.251L361.808 169.239C361.639 168.971 361.471 168.703 361.294 168.435C350.296 151.435 341.207 148.421 332.839 153.82C327.505 157.3 324.737 164.379 322.609 173.003ZM383.592 239.43C383.677 232.39 383.111 225.357 381.902 218.42C380.17 208.779 377.265 199.386 373.252 190.45C386.15 164.334 400.446 149.873 415.208 140.647C426.997 133.277 439.086 129.25 451.013 125.278L451.107 125.246L451.114 125.244C473.417 117.818 495.211 110.562 514.121 87.4121C505.853 100.775 495.077 112.79 484.037 125.1C476.848 133.075 469.54 141.223 462.836 149.764C451.401 164.33 442.187 175.472 434.348 184.952L434.061 185.298C410.932 213.283 399.602 227.004 379.763 269.385C382.141 259.298 383.488 249.378 383.592 239.43ZM369.918 296.872C370.293 297.294 370.759 297.634 371.286 297.864C371.57 297.987 371.864 298.076 372.164 298.129C372.338 298.288 372.497 298.456 372.64 298.632L372.886 298.925C375.27 302.368 374.823 309.767 372.749 319.816C372.009 323.36 371.16 326.858 370.182 330.284C369.19 333.743 368.173 336.809 367.131 339.483C364.08 347.357 360.527 353.267 356.718 357.569C353.509 361.392 349.341 364.293 344.642 365.973C341.966 366.845 339.159 367.24 336.347 367.143C330.48 366.837 324.816 364.894 319.996 361.534C315.694 358.62 312.689 355.24 311.775 352.5C311.695 352.295 311.646 352.079 311.629 351.86C311.779 343.453 313.444 335.141 316.543 327.324H316.58C319.32 320.571 323.515 314.505 328.866 309.557L329.305 309.128C332.311 306.459 335.641 304.179 339.216 302.341C343.009 300.383 347.041 298.927 351.21 298.011C360.464 295.983 366.467 295.701 369.918 296.872ZM385.658 275.35C405.802 231.874 416.937 218.413 440.002 190.53L440.239 190.243C448.182 180.642 457.533 169.34 469.038 154.688C475.777 146.091 482.86 138.194 489.836 130.417L489.914 130.33C511.318 106.455 531.776 83.6341 536.278 49.9837C537.846 55.8196 538.973 61.7653 539.65 67.7707L539.897 69.8077C544.108 111.535 522.879 169.906 490.907 219.233C480.981 234.678 469.812 249.287 457.511 262.916C454.499 263.099 451.478 263.038 448.476 262.733C431.026 260.654 406.584 265.244 385.658 275.35ZM301.204 278.954C264.746 244.98 255.286 229.976 235.363 198.342L235.04 197.831L235.04 197.83L235.039 197.829C228.523 187.498 220.86 175.349 210.562 159.912C204.524 150.842 199.071 141.378 193.709 132.061L193.649 131.958C185.992 118.678 178.508 105.699 169.392 94.3057C183.71 118.415 183.765 140.543 183.816 163.174C183.88 191.884 183.953 221.517 222.803 258.988C238.78 257.368 254.92 259.108 270.185 264.094C280.903 267.597 291.117 272.621 301.204 278.954ZM305.843 272.531C302.776 249.471 306.087 224.758 313.547 208.792C313.602 208.67 313.658 208.546 313.714 208.422L313.715 208.421C313.744 208.356 313.773 208.292 313.802 208.227C313.838 208.149 313.873 208.07 313.908 207.992C313.924 207.956 313.939 207.921 313.955 207.886C313.977 207.835 314 207.784 314.022 207.733C315.027 205.305 315.875 202.815 316.562 200.279C309.65 188.1 301.965 176.377 293.551 165.183C290.957 161.712 288.287 158.271 285.54 154.861C248.59 108.923 199.674 70.3649 158.723 61.422L157.042 61.0749C150.876 59.7792 144.618 58.9729 138.325 58.6633L138.694 59.0029C169.218 73.7797 184.521 100.344 200.523 128.142L200.658 128.375C205.848 137.389 211.126 146.553 217.13 155.546C227.452 171.02 235.336 183.517 242.022 194.131L242.029 194.141C261.43 224.935 270.722 239.683 305.843 272.531ZM357.412 277.312C361.623 264.067 364.08 251.516 364.208 239.22C364.267 233.979 363.888 228.742 363.076 223.563C361.917 216.317 359.959 209.222 357.238 202.407C353.935 194.193 349.826 186.326 344.971 178.922C342.947 175.789 343.469 172.742 343.746 171.13C343.917 170.128 343.994 169.68 343.308 170.107C342.678 170.628 341.024 178.831 339.188 187.956L339.153 188.13C337.574 195.945 335.89 204.279 333.278 211.597C332.62 213.469 331.89 215.251 331.095 216.986C330.867 217.461 330.647 217.955 330.428 218.457C324.573 232.104 322.307 253.169 325.468 272.809C326.175 277.281 327.21 281.696 328.565 286.017C329.14 285.698 329.716 285.387 330.291 285.104C332.499 283.96 334.768 282.938 337.087 282.044C340.335 280.78 343.676 279.773 347.081 279.029C348.159 278.792 349.218 278.573 350.26 278.381C352.762 277.906 355.147 277.549 357.412 277.312ZM264.174 282.537C278.561 287.232 292.2 295.344 306.194 306.114C305.408 307.228 304.659 308.37 303.929 309.557C301.886 312.874 300.114 316.351 298.63 319.953C298.466 320.336 298.311 320.72 298.165 321.104C296.957 324.174 295.941 327.316 295.123 330.513C291.591 330.403 288.068 330.092 284.572 329.581C264.202 326.603 244.096 317.587 233.071 307.466C231.09 305.674 229.003 304.002 226.822 302.46C220.686 298.274 214.315 294.443 207.74 290.987C199.519 286.456 192.156 282.391 191.955 281.669V281.523C191.858 280.986 192.246 281.185 193.042 281.594C194.481 282.333 197.252 283.756 200.898 282.756C210.199 280.113 219.763 278.508 229.417 277.97C241.185 277.338 252.969 278.887 264.174 282.537ZM274.808 390.253C281.396 381.459 289.129 373.582 297.8 366.832L297.773 366.905C299.402 369.111 301.237 371.157 303.253 373.016C305.061 374.694 306.991 376.236 309.027 377.629C310.379 378.552 311.803 379.429 313.283 380.242C317.282 382.454 321.554 384.131 325.99 385.229C325.98 385.251 325.97 385.273 325.959 385.296C325.945 385.325 325.931 385.354 325.916 385.383C325.901 385.415 325.884 385.446 325.868 385.477C325.857 385.498 325.846 385.519 325.834 385.54C316.691 403.91 301.883 420.252 288.83 427.56C286.348 428.981 283.959 430.558 281.677 432.282C275.991 436.715 270.545 441.447 265.363 446.459C258.493 452.881 252.327 458.59 251.587 458.59C250.776 458.552 251.093 458.24 251.812 457.533C252.98 456.385 255.207 454.195 255.387 450.442C255.762 440.579 257.257 430.791 259.845 421.266C262.906 410.105 267.976 399.595 274.808 390.253ZM363.049 377.894C367.561 391.441 373.097 403.325 380.496 413.52C387.145 422.759 395.396 430.732 404.858 437.06C413.235 442.609 422.225 447.171 431.651 450.652C435.169 451.985 436.561 454.812 437.29 456.293C437.74 457.207 437.938 457.608 438.228 456.827C438.492 456.124 434.948 448.487 430.975 439.965C427.912 433.645 425.168 427.175 422.753 420.581C421.749 417.72 420.934 414.797 420.314 411.83C417.373 397.114 406.466 377.949 391.805 363.543C388.602 360.369 385.167 357.438 381.528 354.774C379.996 357.879 378.26 360.879 376.331 363.754C374.77 366.077 373.058 368.296 371.206 370.395C370.019 371.746 368.795 372.989 367.552 374.149C366.13 375.482 364.629 376.73 363.058 377.885L363.049 377.894ZM391.278 325.845L391.247 325.845L391.275 325.863L391.278 325.845ZM391.278 325.845C407.471 326.108 422.095 324.609 435.496 320.364C446.154 316.965 456.128 311.708 464.955 304.835C473.025 298.514 480.314 291.256 486.668 283.213C489.035 280.28 492.135 279.832 493.756 279.597C494.751 279.454 495.189 279.39 494.561 278.883C493.985 278.417 485.609 279.422 476.291 280.546C468.326 281.514 459.794 282.537 451.966 282.373C450.002 282.327 448.083 282.199 446.229 281.98C431.431 280.226 410.028 284.574 391.841 293.919C393.239 298.234 393.876 302.759 393.723 307.292C393.632 311.49 393.21 315.675 392.462 319.807C392.243 321.085 391.996 322.383 391.722 323.716C391.577 324.432 391.432 325.139 391.278 325.845ZM219.926 321.707C217.026 319.168 213.901 316.9 210.59 314.929C193.39 318.535 176.495 323.467 160.057 329.681C104.865 350.362 52.9156 384.672 31.5678 420.837L30.3985 422.81C27.3496 428.115 24.717 433.649 22.5244 439.362L24.4497 438.262C47.822 414.954 77.295 408.817 108.116 402.412C118.457 400.256 128.971 398.064 139.357 395.186C157.272 390.215 171.235 386.719 183.087 383.752L183.091 383.751L183.788 383.576C218.822 374.847 235.727 370.592 277.143 347.955C254.668 343.776 232.696 333.371 219.944 321.679L219.926 321.707ZM283.287 353.587C273.981 361.275 265.917 369.523 259.168 378.744C249.804 391.539 243.183 406.131 239.721 421.604C191.705 447.022 163.474 437.791 136.082 428.834L136.042 428.82C115.384 422.051 95.171 415.431 69.3032 420.308C82.1245 415.839 95.7618 413.001 109.686 410.102L109.724 410.094C120.174 407.947 130.807 405.737 141.449 402.786C159.253 397.854 173.548 394.273 185.698 391.231C222.115 382.143 239.296 377.844 283.287 353.587ZM481.471 316.445L481.437 316.474L481.425 316.472L481.471 316.445ZM613.539 416.526C593.086 405.111 581.671 388.999 570.032 372.569C553.28 348.921 535.971 324.496 481.437 316.474C469.712 326.529 456.082 334.121 441.361 338.798C430.082 342.384 418.275 344.286 405.735 344.974C456.434 351.564 472.836 358.3 507.79 372.655L508.184 372.817C519.47 377.453 532.748 382.907 550.301 389.587C560.242 393.379 569.939 397.817 579.519 402.201L580.199 402.512L580.206 402.515C591.391 407.637 602.379 412.669 613.539 416.526ZM661.252 430.947C630.498 434.197 604.285 422.194 576.929 409.656L576.743 409.57C567.276 405.232 557.679 400.834 547.497 396.967C530.232 390.381 516.502 384.745 504.837 379.949L504.82 379.942C471.541 366.278 455.407 359.653 408.904 353.351C424.491 369.971 436 391.194 439.369 408.066C440.32 412.219 441.656 416.274 443.361 420.179C458.989 427.292 475.13 433.219 491.647 437.909C548.365 454.178 610.563 457.54 649.185 441.244L651.011 440.458C656.716 437.989 662.214 435.069 667.454 431.725L663.873 431.259C662.99 431.16 662.116 431.056 661.252 430.947ZM364.775 424.865C373.915 437.585 385.556 448.306 398.984 456.371L398.957 456.389C408.247 510.311 390.534 534.335 373.379 557.592C360.965 574.409 348.806 590.902 344.809 615.379C344.809 602.71 346.263 589.803 347.746 576.644L347.748 576.629L347.79 576.25C348.964 565.794 350.156 555.176 350.671 544.192C351.53 525.785 352.598 511.069 353.512 498.573L353.515 498.525C356.229 460.977 357.507 443.301 348.038 393.401C352.532 404.915 357.954 415.37 364.775 424.865ZM346.954 664.498C333.185 635.665 336.483 606.343 339.925 575.745L339.972 575.331C341.145 564.923 342.337 554.357 342.824 543.808C343.738 524.79 344.77 510.293 345.656 497.97L345.659 497.927C348.264 461.989 349.526 444.576 340.977 398.336C330.013 418.381 313.337 435.99 298.31 444.45C294.833 446.527 291.555 448.922 288.518 451.602C286.592 468.887 285.999 486.294 286.746 503.67C289.075 562.552 305.372 622.613 332.94 654.219L334.365 655.781C338.487 660.411 342.965 664.711 347.757 668.643L347.071 665.062C347.032 664.874 346.993 664.686 346.954 664.498ZM156.275 310.443C166.223 306.79 176.262 303.611 186.264 300.898C179.778 296.714 174.855 292.311 173.348 286.812C170.708 277.23 176.316 269.456 195.846 264.085L196.44 263.929L199.208 263.18L199.391 263.135C183.926 246.272 175.312 230.688 170.516 215.917C146.921 213.247 125.763 216.341 103.831 219.549L103.511 219.596C87.715 221.917 71.5331 224.296 53.5732 224.787C64.1512 232.259 75.9167 241.111 87.6823 250.364C114.895 271.822 142.847 295.91 156.193 310.425L156.275 310.443ZM501.293 238.517C496.936 244.847 492.368 251.059 487.591 257.097C487.316 257.442 487.042 257.787 486.769 258.132L486.75 258.156L486.745 258.162C486.245 258.792 485.746 259.422 485.243 260.047C494.122 259.362 501.686 259.773 506.664 263.765C514.429 270.013 514.438 279.605 501.74 295.353C500.599 296.769 499.457 298.148 498.297 299.482C524.038 304.899 541.495 314.097 554.74 325.114C573.649 314.061 588.191 300.295 603.245 286.036L603.522 285.773L603.523 285.773C615.31 274.62 627.395 263.187 642.114 252.329C628.466 252.082 612.755 251.305 596.732 250.145C560.029 247.505 520.841 242.993 501.293 238.517ZM460.982 448.305C466.764 450.406 472.629 452.415 478.639 454.242V454.169C480.311 474.037 487.939 512.439 496.616 548.138C500.48 564.078 504.628 579.58 508.647 592.898C493.828 582.135 479.283 574.063 465.092 566.188L465.09 566.187L464.992 566.133C446.613 555.939 428.892 546.092 412.449 531.056C419.465 514.595 423.32 494.517 420.305 467.022C421.785 467.631 423.289 468.24 424.818 468.849C443.717 476.019 452.825 473.032 456.369 463.706C458.278 458.682 457.164 452.653 454.716 445.939C456.789 446.743 458.881 447.537 460.982 448.305ZM267.325 502.967C267.015 494.225 267.006 485.51 267.325 476.905C267.404 474.737 267.499 472.576 267.608 470.42C261.799 475.06 256.236 478.184 250.7 477.919C240.752 477.454 235.098 469.698 236.085 449.501C236.149 448.095 236.231 446.697 236.331 445.318V445.254C215.321 454.772 197.737 458.115 182.108 458.042C171.265 481.007 167.693 503.104 163.993 526.068L163.99 526.09C161.433 541.914 158.812 558.139 153.845 575.506C164.505 567.412 176.956 558.542 189.808 549.828C218.582 530.316 249.86 511.06 267.389 502.967H267.325Z" fill="#6C2C00"/>
</svg>
