<svg width="538" height="546" viewBox="0 0 538 546" fill="none" xmlns="http://www.w3.org/2000/svg">
<path fill-rule="evenodd" clip-rule="evenodd" d="M237.767 26.4512C233.879 23.8474 231.668 21.8803 230 20.396C225.506 16.3965 224.951 15.9024 206.121 15.9024C152.764 15.9024 102.286 49.8665 67.0014 85.1256C47.9488 104.17 36.0026 118.502 23.2555 144.235C10.1334 170.743 2.28571 196.51 0.411133 222.004V245.735C2.49874 273.547 12.025 301.188 29.9273 329.239C38.9167 343.324 72.4718 383.772 87.4428 387.76C87.0074 392.985 86.3778 394.543 85.8425 395.867C85.2676 397.289 84.8014 398.442 84.8014 403.583C84.8014 448.88 117.981 483.278 150.71 506.463C181.675 528.396 223.819 542.864 267.744 546H303.25C375.353 540.734 445.471 502.544 472.814 414.481C482.187 384.377 483.039 361.771 483.039 321.826C519.372 318.809 564.047 230.653 518.247 136.302C462.214 20.8445 358.337 -37.3442 237.767 26.4512ZM395.965 241.091L365.034 236.737L360.861 221.483C383.184 215.113 401.02 212.29 416.968 213.841C434.81 215.571 450.77 222.916 468.663 237.094C470.124 238.172 471.947 238.639 473.746 238.397C475.546 238.156 477.181 237.224 478.306 235.799C479.431 234.375 479.958 232.568 479.775 230.762C479.593 228.956 478.716 227.291 477.329 226.12C457.211 210.203 439.011 201.929 418.288 199.91C400.263 198.151 380.687 201.22 356.48 208.157C349.596 193.231 337.154 184.115 322.551 179.366C335.137 169.815 352.92 160.374 372.132 155.209C391.823 149.918 412.836 149.236 430.729 157.859C431.561 158.293 432.471 158.554 433.406 158.629C434.341 158.704 435.282 158.59 436.172 158.295C437.062 157.999 437.883 157.528 438.588 156.909C439.292 156.29 439.865 155.535 440.273 154.691C440.681 153.846 440.914 152.928 440.96 151.991C441.006 151.055 440.864 150.118 440.541 149.238C440.218 148.357 439.722 147.55 439.082 146.865C438.441 146.18 437.67 145.63 436.813 145.249C415.477 134.964 391.09 135.595 368.51 141.67C342.731 148.593 319.022 162.79 305.137 175.763C299.134 175.14 293.005 175.072 286.939 175.477C288.53 162.395 293.433 141.274 304.007 123.086C312.187 109.001 323.767 96.9186 339.795 92.6581C341.554 92.1455 343.042 90.965 343.941 89.3691C344.841 87.7733 345.08 85.8889 344.608 84.1189C344.136 82.3488 342.99 80.8338 341.416 79.8977C339.841 78.9617 337.962 78.679 336.182 79.11C315.945 84.5378 301.698 99.1084 291.874 116.065C279.636 137.224 274.265 162.538 272.797 177.283C269.414 177.922 266.101 178.698 262.895 179.596C255.107 181.784 248.651 184.293 243.054 187.285C233.567 169.621 228.069 152.598 228.36 137.384C228.658 122.387 234.784 108.916 248.639 98.1369C250.108 96.9945 251.063 95.3154 251.294 93.469C251.525 91.6225 251.013 89.76 249.871 88.2911C248.728 86.8222 247.049 85.8672 245.203 85.6363C243.356 85.4054 241.494 85.9174 240.025 87.0598C222.54 100.668 214.786 117.829 214.377 137.051V137.145C214.026 155.279 220.407 175.053 231.385 195.172C224.869 200.663 219.362 207.399 213.474 215.852C183.49 185.91 152.976 125.744 188.764 89.957C404.818 -126.097 602.799 222.498 479.597 302.807C472.439 283.15 455.099 265.418 435.885 255.806L395.965 241.091ZM353.147 320.556C354.071 319.367 354.958 318.143 355.806 316.883C360.055 311.048 363.107 304.198 365.183 296.896C381.863 313.149 394.83 326.578 404.503 351.171C405.18 352.902 406.518 354.293 408.222 355.038C409.925 355.783 411.855 355.82 413.586 355.142C415.317 354.464 416.708 353.126 417.452 351.423C418.197 349.719 418.234 347.79 417.556 346.059C406.235 317.27 391.402 302.836 372.114 284.067L371.31 283.284C370.307 282.307 369.291 281.317 368.266 280.316C369.024 272.729 368.985 265.102 368.366 257.979C407.971 261.183 462.359 281.309 463.134 328.591C467.846 618.24 108.864 540.257 105.541 403.327L110.304 406.454C161.267 439.745 220.99 399.535 251.852 357.783C256.101 357.761 260.497 357.619 264.981 357.333C260.58 375.135 255.785 390.696 248.528 404.427C239.718 421.059 227.073 435.238 206.623 447.832C205.84 448.314 205.159 448.947 204.62 449.693C204.081 450.439 203.695 451.283 203.482 452.178C203.27 453.074 203.236 454.002 203.382 454.911C203.528 455.819 203.852 456.69 204.335 457.473C204.818 458.256 205.45 458.937 206.196 459.476C206.942 460.014 207.787 460.401 208.682 460.614C209.577 460.826 210.506 460.86 211.414 460.714C212.322 460.567 213.193 460.244 213.976 459.761C236.787 445.701 250.974 429.725 260.926 410.979C269.518 394.77 274.798 376.674 279.751 355.873C287.521 354.819 295.363 353.282 302.994 351.146C303.298 353.966 303.629 356.919 303.974 359.973L303.978 360.008C307.454 390.953 312.175 432.978 300.02 451.146C299.036 452.689 298.695 454.556 299.071 456.346C299.447 458.137 300.51 459.709 302.031 460.726C303.553 461.742 305.412 462.122 307.21 461.784C309.009 461.446 310.603 460.417 311.651 458.917C326.667 436.465 321.616 391.536 317.901 358.496L317.897 358.457C317.426 354.27 316.977 350.281 316.597 346.57C325.769 342.906 334.337 338.18 341.736 332.159C342.48 335.006 343.287 338.005 344.128 341.132L344.128 341.133L344.194 341.38C350.181 363.642 358.064 392.954 358.064 413.101V424.774C358.064 426.636 358.804 428.422 360.121 429.739C361.438 431.056 363.223 431.795 365.086 431.795C366.948 431.795 368.734 431.056 370.05 429.739C371.367 428.422 372.107 426.636 372.107 424.774V413.101C372.107 391.142 363.927 360.732 357.715 337.666L357.52 336.939L357.518 336.932L357.517 336.928C355.827 330.64 354.309 324.989 353.147 320.556ZM107.103 378.598L107.094 378.591C105.766 377.676 104.409 376.741 103.018 375.788C-89.9701 231.309 100.036 25.3264 219.259 36.9488L173.86 75.071C127.481 118.962 160.985 195.181 202.175 234.283C198.81 240.587 195.694 247.34 193.014 254.319C192.72 254.245 192.422 254.17 192.12 254.094C170.213 248.589 117.205 235.254 126.254 131.965C126.348 130.146 125.732 128.362 124.536 126.99C123.34 125.617 121.657 124.762 119.843 124.606C118.029 124.45 116.225 125.005 114.813 126.154C113.4 127.303 112.489 128.955 112.271 130.763C102.197 245.667 163.159 261.265 188.538 267.641C186.596 274.397 185.145 281.23 184.338 287.953C162.141 289.232 110.268 287.36 87.6714 221.084C87.4005 220.185 86.9515 219.35 86.3513 218.627C85.7511 217.905 85.0118 217.311 84.1774 216.881C83.343 216.45 82.4305 216.192 81.4942 216.121C80.5579 216.05 79.6169 216.168 78.7272 216.468C77.8374 216.768 77.017 217.244 76.3149 217.867C75.6127 218.49 75.043 219.249 74.6398 220.097C74.2365 220.945 74.0079 221.865 73.9674 222.803C73.927 223.741 74.0756 224.678 74.4044 225.557C99.8904 300.321 157.872 303.36 183.654 302.058C183.975 313.012 186.462 323.274 191.867 331.943C173.725 343.038 129.145 360.459 86.4618 300.83C85.9253 300.081 85.2464 299.445 84.464 298.958C83.6816 298.471 82.811 298.143 81.9019 297.993C80.9928 297.843 80.0629 297.873 79.1655 298.082C78.268 298.291 77.4205 298.675 76.6714 299.211C75.9222 299.748 75.2861 300.427 74.7993 301.209C74.3125 301.992 73.9846 302.862 73.8343 303.771C73.6839 304.68 73.7141 305.61 73.9231 306.508C74.1321 307.405 74.5159 308.253 75.0524 309.002C126.289 380.493 180.923 355.777 201.13 342.704C207.615 348.253 216.13 352.555 227.047 355.168C214.666 369.304 197.753 383.508 180.183 391.057C146.306 405.619 131.793 395.615 107.103 378.598ZM263.704 334.999C194.293 339.932 196.074 284.948 224.508 237.103L224.465 237.137C229.161 229.029 234.795 221.501 241.252 214.71C260.696 194.976 325.454 185.518 338.15 224.935C360.62 294.687 336.727 329.818 263.704 334.999Z" fill="#6C2C00"/>
</svg>
