<svg width="681" height="656" viewBox="0 0 681 656" fill="none" xmlns="http://www.w3.org/2000/svg">
<path d="M312.397 363.682C322.588 380.265 334.144 377.014 346.909 371.282H346.9C352.632 368.755 365.726 355.239 366.129 348.61C370.579 275.171 288.259 324.417 312.397 363.682Z" fill="#6C2C00"/>
<path fill-rule="evenodd" clip-rule="evenodd" d="M309.604 11.6541C303.28 11.6541 297.397 11.2744 291.817 10.9143C265.26 9.20038 245.547 7.92813 217.724 50.1131C198.375 79.4152 190.564 116.464 190.564 153.357C157.197 135.703 89.2706 111.327 53.3481 143.678C39.1 156.498 35.8584 166.699 31.1884 186.716C29.3734 194.49 28.1064 202.088 26.8569 209.581C23.8576 227.567 20.9591 244.948 10.8235 262.718C8.47734 266.832 6.66986 269.679 5.27812 271.871C3.56999 274.561 2.48813 276.265 1.80524 278.116C0.62554 281.314 0.636518 284.951 0.66646 294.871C0.671755 296.625 0.677644 298.576 0.677644 300.756C0.677644 345.899 80.1595 414.118 125.376 414.118C123.571 416.818 119.162 421.619 113.66 427.609C104.458 437.628 92.2005 450.975 83.9596 463.382C73.649 478.949 57.3589 506.85 57.3589 530.319C57.3589 571.525 85.4916 585.808 115.927 601.261C131.719 609.279 148.132 617.612 161.555 630.184C164.836 633.257 167.593 635.964 170.019 638.346C184.027 652.097 187.001 655.018 216.075 655.018C256.879 655.018 314.237 614.508 336.736 580.124C342.23 571.718 355.627 545.236 357.797 535.987L364.051 543.908C365.732 546.271 367.126 548.421 368.675 550.811L368.677 550.815L368.687 550.831L368.71 550.865C369.377 551.895 370.074 552.971 370.836 554.127C397.785 595.132 449.586 654.331 502.384 646.749C528.212 643.041 538.826 627.699 552.958 607.272C564.264 590.931 577.821 571.336 603.22 551.838C642.329 521.785 626.488 466.908 608.119 430.124L584.787 393.936C582.749 391.431 581.386 390.164 580.377 389.227C578.34 387.335 577.748 386.784 575.96 380.091C607.524 377.463 680.825 336.935 680.825 292.231C680.825 271.027 667.892 251.324 654.881 231.503C645.164 216.7 635.404 201.83 630.956 186.221C630.475 184.531 630.019 182.909 629.581 181.352L629.58 181.348C623.188 158.63 620.621 149.508 600.381 137.442C557.809 112.064 510.881 123.722 473.161 133.093L473.16 133.094L473.149 133.096L473.143 133.098C468.543 134.241 464.079 135.349 459.777 136.353C459.777 134.55 459.782 132.69 459.786 130.781C459.873 93.5697 460.005 37.4707 428.754 14.3371C415.531 4.54836 403.526 0.848971 391.641 0.317871H385.322C375.504 0.717973 365.633 2.93271 355.082 5.29992C341.496 8.34825 326.783 11.6494 309.604 11.6541ZM322.524 261.189C296.454 225.715 254.003 191.029 213.072 167.111C203.979 111.611 241.018 24.3272 281.611 32.3303C310.001 37.9253 334.947 32.4919 356.381 27.8234C385.531 21.4742 408.186 16.5398 424.175 42.6868C455.803 94.4049 431.482 214.214 398.224 276.939C388.454 263.861 375.285 256.982 360.871 255.212C359.649 250.595 358.419 242.802 356.946 233.457L356.918 233.279C352.77 206.898 346.863 169.382 329.749 142.076C326.041 135.541 323.083 128.608 320.931 121.409C320.584 120.106 319.689 119.471 319.093 119.049C318.605 118.703 318.317 118.499 318.697 118.186C320.353 116.741 321.376 114.705 321.548 112.514C321.72 110.324 321.026 108.153 319.616 106.468C318.205 104.783 316.19 103.718 314.004 103.502C311.817 103.285 309.632 103.935 307.919 105.311C302.617 109.743 302.489 117.499 304.714 125.74C307.388 135.703 313.715 148.074 315.547 150.94C330.826 175.309 336.413 210.835 340.341 235.814L340.344 235.833L340.357 235.919L340.357 235.92C341.533 243.374 342.573 249.967 343.753 255.382C336.694 256.324 329.543 258.297 322.524 261.189ZM415.316 327.899C417.035 344.092 416.313 362.404 408.874 375.22C477.551 388.616 611.992 364.085 649.234 314.281C667.622 289.671 654.895 270.973 638.289 246.576C625.952 228.452 611.475 207.182 606.022 178.008C598.458 137.571 504.564 135.117 455.419 164.364L448.789 198.84C440.191 235.174 426.583 271.582 409.561 299.446H409.524C410.555 302.638 411.653 306.694 412.65 311.316C414.3 310.996 416.196 310.565 418.286 310.041C438.67 304.876 472.862 291.462 486.048 282.689C498.071 274.659 507.191 267.901 516.082 261.299C522.95 256.198 529.689 251.226 537.61 245.732C538.516 245.107 539.535 244.666 540.611 244.435C541.687 244.204 542.798 244.186 543.88 244.385C544.963 244.583 545.996 244.992 546.92 245.589C547.844 246.187 548.641 246.96 549.267 247.866C549.892 248.771 550.333 249.791 550.564 250.867C550.795 251.943 550.812 253.053 550.614 254.136C550.416 255.218 550.007 256.251 549.409 257.175C548.812 258.099 548.039 258.897 547.133 259.522C539.46 264.815 532.821 269.741 526.072 274.759C517.044 281.462 507.759 288.339 495.378 296.608C480.892 306.277 444.1 320.837 422.398 326.331C420.063 326.97 417.7 327.493 415.316 327.899ZM395.157 393.854C440.319 403.981 499.683 399.742 547.848 388.415L547.821 388.433C592.708 422.488 625.856 511.227 590.968 533.341C565.89 549.227 551.505 570.563 539.249 588.742C522.752 613.211 510.112 631.959 480.444 623.994C444.43 614.334 403.298 568.851 373.199 517.161C371.001 513.364 368.865 509.536 366.789 505.678C373.932 476.652 375.06 446.472 370.104 416.993C373.127 414.861 376.398 412.25 379.742 409.313C389.953 424.012 408.9 447.842 427.655 467.952C444.348 485.844 461.288 501.145 472.835 505.541C474.346 506.099 475.051 506.337 475.454 506.456L476.607 507.061C478.576 508.089 480.872 508.294 482.991 507.629C485.11 506.965 486.878 505.485 487.907 503.517C488.935 501.549 489.14 499.252 488.475 497.133C487.811 495.014 486.332 493.246 484.363 492.217L482.651 491.302C482.321 491.11 481.978 490.942 481.625 490.798L480.481 490.404C480.243 490.34 479.821 490.212 478.75 489.809C469.923 486.449 455.107 472.759 439.934 456.478C420.405 435.541 400.903 410.855 391.91 397.452C393.011 396.267 394.095 395.066 395.157 393.854ZM378.612 388.44C389.549 377.397 399.922 363.451 400.468 354.818C410.192 194.435 230.397 302.001 283.113 387.783C305.382 424.008 330.61 416.884 358.492 404.357V404.329C362.386 402.582 367.835 398.527 373.52 393.335C374.209 391.558 375.487 390.06 377.154 389.102C377.621 388.833 378.109 388.612 378.612 388.44ZM147.866 397.105C180.419 369.771 220.398 344.553 256.943 332.384C259.921 322.461 264.585 312.973 270.479 304.248C253.776 295.92 241.083 295.834 227.155 295.739L226.99 295.738C204.931 295.591 180.079 295.408 135.806 269.769C134.991 269.293 131.227 267.525 127.922 266.005C127.062 265.62 127.378 265.077 127.594 264.707C127.774 264.398 127.884 264.209 127.189 264.33C124.994 264.704 122.74 264.19 120.923 262.902C119.106 261.614 117.875 259.657 117.501 257.462C117.127 255.266 117.641 253.012 118.929 251.196C120.216 249.379 122.173 248.148 124.369 247.774C126.429 247.426 130.715 248.845 134.817 250.704C138.48 252.38 142.921 254.504 144.212 255.283C184.676 278.724 207.129 278.88 227.054 279.017C244.098 279.134 259.512 279.244 281.019 290.847C287.849 283.326 295.593 276.678 303.845 271.197C259.461 213.087 150.631 140.418 88.5019 151.013C58.2188 156.182 54.5769 178.461 49.8178 207.574C46.2808 229.212 42.1266 254.624 25.9602 279.594C2.61928 315.654 75.1328 380.576 117.95 391.308C127.805 393.792 137.793 395.712 147.866 397.059V397.105ZM350.398 426.681L350.357 426.697L350.352 426.663L350.398 426.681ZM350.357 426.697C330.228 434.563 312.487 436.758 296.597 429.627C280.946 482.336 248.565 503.939 208.157 530.898L208.145 530.905C202.147 534.898 195.957 539.028 189.566 543.441C188.66 544.067 187.641 544.507 186.565 544.739C185.489 544.97 184.378 544.987 183.296 544.789C182.213 544.59 181.18 544.181 180.256 543.584C179.332 542.987 178.534 542.213 177.909 541.308C177.284 540.402 176.843 539.382 176.612 538.306C176.381 537.231 176.364 536.12 176.562 535.037C176.76 533.955 177.169 532.922 177.767 531.998C178.364 531.074 179.137 530.276 180.043 529.651C186.453 525.246 192.725 521.043 198.823 516.978C237.596 491.114 268.411 470.557 281.907 419.809C276.245 414.644 270.83 407.935 265.632 399.476C257.439 386.48 253.146 371.407 253.261 356.045C185.711 383.14 87.5213 464.737 80.0309 526.748C76.374 556.997 98.0322 567.787 125.214 581.329C144.86 591.116 167.391 602.341 185.335 623.39C213.282 656.126 296.225 605.03 318.715 567.167C344.861 523.141 357.168 475.089 350.357 426.697Z" fill="#6C2C00"/>
</svg>
