<svg width="115" height="100" viewBox="0 0 115 100" fill="none" xmlns="http://www.w3.org/2000/svg">
<g clip-path="url(#clip0_2118_1102)">
<path d="M110.194 33.6077C108.193 32.9663 106.214 32.7846 104.267 33.0519C95.8186 34.2277 89.0552 38.0759 83.9989 44.5858C83.6945 44.9813 83.6292 44.9492 83.8032 44.4896C84.3034 43.1748 84.8688 41.8814 85.4886 40.6307C86.5977 38.3859 87.0979 35.008 86.9783 30.4971C86.8152 24.2972 81.5741 22.2234 76.3656 25.1203C70.3198 28.4875 67.8733 32.6457 65.0461 38.4607C64.5133 39.5617 64.1436 39.5083 63.9587 38.3004C63.7413 36.8894 63.6108 35.5104 63.5673 34.1743C63.2302 23.8696 62.4364 14.1101 58.4023 4.4789C57.1301 1.46447 54.9118 -0.0320521 51.7367 1.6304e-05C51.3779 1.6304e-05 51.0408 0.106911 50.7364 0.310011C47.3655 2.65101 45.0059 5.64406 43.6576 9.26779C39.4604 20.5879 37.5901 32.0684 38.0468 43.72C38.1011 45.0989 37.8619 45.1523 37.3182 43.8803C36.6332 42.2662 35.8829 40.449 35.0565 38.4073C34.1322 36.1304 32.4686 33.4794 30.0764 30.4543C28.2061 28.1026 25.5312 26.5206 22.704 25.5372C16.5386 23.3886 15.734 38.6959 15.8427 42.031C15.8645 42.7365 16.2124 43.6024 16.1146 44.4041C16.0602 44.821 15.9188 44.853 15.6905 44.5003C13.3744 40.9941 11.1997 37.6056 6.91543 36.6328C3.42498 35.8418 -0.717888 37.7552 0.108511 41.9241C1.46772 48.8295 4.34924 54.9653 8.77483 60.3421C10.5472 62.4907 10.8626 64.1368 10.0797 66.6596C9.05755 69.984 8.79658 73.3619 9.30764 76.8146C9.36201 77.1673 9.51424 77.4666 9.78608 77.7125C10.7538 78.5997 11.9826 79.1662 13.4505 79.4121C14.7227 79.6152 15.3643 80.3421 15.386 81.6034C15.4839 86.884 15.8862 91.9081 16.5821 96.6863C16.7779 98.0545 17.974 99.07 19.3875 99.07C36.0895 99.0487 52.7697 99.1342 69.4391 99.3266C73.7994 99.38 78.0619 99.5938 82.2156 99.9786C84.2164 100.16 85.9997 98.76 86.2715 96.8039L88.5441 79.8611C88.5985 79.4762 88.8051 79.2197 89.1857 79.0914L91.6431 78.2576C92.2303 78.0545 92.6652 77.5842 92.8175 76.9963C93.3394 75.0187 93.5351 73.426 93.4047 72.1967C93.2633 70.775 93.9918 69.3961 95.2749 68.7119C103.115 64.4896 108.9 58.1828 112.608 49.7809C114.88 44.6392 117.533 35.9808 110.194 33.6077ZM65.8181 51.085C66.351 49.2357 66.8403 47.4399 67.2643 45.6975C67.8406 43.3565 68.4387 41.5714 69.0694 40.3421C71.1245 36.3122 74.2344 32.667 78.4207 29.3961C79.1493 28.8295 79.9104 28.5409 80.7042 28.5088C81.7263 28.4768 82.5853 29.2785 82.5962 30.2833C82.6397 32.9984 82.2591 35.4035 81.4654 37.488C79.8234 41.7852 77.877 46.5527 75.6262 51.7798C75.2347 52.7098 74.6584 53.5436 73.9408 54.2598L68.5692 59.69C68.3626 59.8931 68.1995 59.8717 68.069 59.6152C68.0146 59.4976 68.0364 59.3693 68.1125 59.2197C69.8849 56.077 72.7773 53.3512 73.5711 49.7916C74.2235 46.8092 75.985 42.6082 75.3544 39.7114C75.126 38.6531 74.6911 38.5676 74.0604 39.4549C73.1252 40.7697 72.3097 42.3731 71.6247 44.2651C71.4833 44.6392 71.5486 44.9706 71.8095 45.2806C72.3967 45.9541 72.7555 46.6916 72.8751 47.4826C72.9513 47.9637 72.7338 48.1988 72.2336 48.1775C69.4826 48.0599 67.4274 50.6681 67.0795 53.1588C66.8294 54.8691 66.4597 56.6756 65.9704 58.5676C65.8725 58.9204 65.9051 59.2731 66.0574 59.6045L66.4053 60.3635C66.5249 60.6414 66.4379 60.8124 66.1335 60.8766C65.9921 60.9086 65.8399 60.8979 65.6877 60.8552C65.5572 60.8017 65.4919 60.7055 65.4811 60.5666C65.2962 55.6173 65.4158 52.4639 65.8181 51.085ZM48.181 11.9722C48.9639 9.51365 50.2035 7.36506 51.8998 5.51578C52.3783 4.992 53.2373 5.0882 53.5961 5.70819C55.4447 8.95779 56.6299 12.2929 57.1409 15.7242C58.5654 25.2806 59.4027 34.4736 59.631 43.3138C59.7941 49.0326 59.0982 54.9332 58.6306 60.791C58.5545 61.6034 58.4567 62.2127 58.3153 62.6082C58.1739 62.9931 57.9021 63.1748 57.4998 63.1641L56.2493 63.1107C55.9231 63.1 55.6947 62.79 55.7817 62.4907C56.4994 60.1176 55.499 58.1294 55.8035 55.7777C55.8796 55.1791 55.2598 54.7194 54.6944 54.9653C53.1068 55.6387 51.6715 56.3442 50.3993 57.0604C49.3445 57.6483 49.0509 58.5142 49.5185 59.658C49.6816 60.0748 49.2575 60.4917 48.8335 60.31C48.4746 60.1604 48.3115 59.8824 48.3224 59.4869C48.3768 57.317 47.9744 55.4035 47.1263 53.736C46.8871 53.2763 46.9306 52.7205 47.2242 52.2929L48.2789 50.7322C48.5399 50.3581 48.442 50.1229 47.9744 50.0374C47.2459 49.8985 46.5609 49.9198 45.8976 50.0802C45.5714 50.155 45.2451 49.984 45.1255 49.674C44.5057 47.9957 44.1469 46.3816 44.0382 44.8317C43.277 34.0353 44.658 23.0786 48.181 11.9722ZM50.856 59.8931C50.6711 59.6045 50.9864 59.07 51.5627 58.7173C52.1391 58.3645 52.7589 58.3111 52.9546 58.6104C53.1394 58.899 52.8241 59.4335 52.2478 59.7862C51.6715 60.139 51.0517 60.1924 50.856 59.8931ZM51.8563 62.9717C51.5736 63.3138 50.8233 63.1748 50.1927 62.6724C49.5511 62.1593 49.2575 61.4752 49.5402 61.1331C49.823 60.791 50.5732 60.93 51.2039 61.4324C51.8455 61.9455 52.1391 62.6296 51.8563 62.9717ZM22.1929 31.0636C22.3669 30.4436 23.1172 30.1764 23.65 30.5612C31.229 36.0128 35.8829 47.4078 36.8615 55.9594C36.905 56.3442 36.8398 56.7183 36.6658 57.0711C36.5136 57.3811 36.4918 57.7018 36.6006 58.0332L37.079 59.4655C37.3074 60.1497 37.1443 60.2459 36.6114 59.7542C35.9916 59.1876 35.8612 58.5462 36.2091 57.8194C36.3396 57.5308 36.2961 57.1994 36.0895 56.9535C35.3392 56.0877 34.7085 55.1042 34.1866 54.0139C33.0449 51.6515 30.3808 51.0422 28.0974 52.5281C27.7929 52.7205 27.6189 52.9984 27.5645 53.3619C27.2818 55.2753 28.217 56.6328 28.4018 58.3432C28.5758 60.0535 28.3366 61.6783 30.0981 62.6617C30.5439 62.9076 30.5113 63.0679 30.0111 63.1427C28.2278 63.41 26.9882 62.8541 26.2488 61.1545C22.019 51.5553 19.344 41.4538 22.1929 31.0636ZM33.806 62.6617C34.7738 62.1593 35.4588 62.0096 36.394 61.379C36.7202 61.1545 36.9377 61.24 37.0464 61.6141C37.1116 61.8493 37.1225 62.0952 37.079 62.341C37.0246 62.6938 36.8072 62.8755 36.4375 62.8862L33.8821 62.9396C33.4581 62.9396 33.4255 62.8541 33.806 62.6617ZM33.1427 59.6793C32.9253 60.4062 32.7404 60.3955 32.5882 59.658C32.5229 59.348 32.4686 59.0273 32.436 58.6852C32.3816 58.2149 32.1206 57.9476 31.653 57.8728L30.0981 57.6163C29.6958 57.5414 29.6197 57.349 29.8589 57.0283C30.6962 55.9059 31.7292 55.4249 32.947 55.596C33.8713 55.7242 34.1975 56.2266 33.9256 57.1032L33.1427 59.6793ZM5.03429 43.3351C4.93642 42.8969 4.88206 42.4586 4.89293 41.9989C4.92555 40.8017 6.27389 40.0855 7.30688 40.7162C8.55736 41.4752 9.69909 42.512 10.7321 43.8482C13.3526 47.2368 15.5274 51.1064 17.2563 55.457C17.4629 55.9915 17.3215 56.1197 16.8105 55.8418C15.386 55.0829 14.3639 53.9177 13.7332 52.3464C13.5375 51.8653 13.2113 51.4912 12.7655 51.2346L12.1457 50.8926C11.6672 50.6147 11.4824 50.7429 11.5911 51.2881C12.3849 55.0615 15.299 58.5035 17.539 61.7317C17.6369 61.86 17.626 61.9883 17.5064 62.1058L17.3215 62.2983C17.1149 62.5014 16.7779 62.5014 16.5821 62.2876C11.2975 56.5794 6.77408 50.946 5.03429 43.3351ZM25.4442 93.4153L23.7588 93.0412C23.5522 92.9877 23.4217 92.8701 23.3673 92.6884C22.7475 90.8071 22.1277 89.1502 22.1495 87.1406C22.1712 84.8423 22.2147 82.5548 22.2799 80.2673C22.2908 80.1497 22.3126 80.0642 22.3669 80.0321C22.4322 79.9893 22.5192 79.9786 22.6388 80C22.6714 80.0107 22.6931 80.0428 22.704 80.0748C23.1063 81.9883 23.2803 84.03 23.2259 86.1785C23.1716 88.5409 23.9654 90.8605 25.629 93.1481C25.8139 93.3939 25.7486 93.4901 25.4442 93.4153ZM28.8259 93.1694L28.5214 93.2122C28.217 93.2656 27.9342 93.0519 27.9016 92.7525C27.7168 91.224 27.5972 89.7488 27.5319 88.3485C27.3906 85.612 25.7051 83.0038 25.5094 80.0962C25.4877 79.7435 25.7269 79.4335 26.0749 79.3373L26.4228 79.2518C27.0535 79.0914 27.4667 79.3159 27.6624 79.9359C28.9564 83.9979 29.0107 87.8354 29.5544 92.2074C29.6305 92.7526 29.3804 93.0732 28.8259 93.1694ZM40.0475 92.667C39.7866 92.945 39.319 92.8808 39.1341 92.5388C37.9598 90.326 36.9159 87.8675 36.0025 85.1737C35.9264 84.9492 35.7089 84.7889 35.4588 84.7889H35.0456C34.4367 84.8103 34.1975 85.1096 34.3171 85.6975C34.9369 88.6371 35.1979 91.2667 35.0783 93.565C35.0565 93.9284 34.7303 94.2063 34.3606 94.1636L34.067 94.1315C33.6864 94.0887 33.4581 93.8856 33.382 93.5115L30.7288 80.1817C30.4896 78.9631 31.0006 78.3111 32.262 78.2256C33.2515 78.1614 34.1975 78.3004 35.1 78.6318C35.6546 78.8349 35.9482 79.4335 35.7742 79.9893C35.4262 81.0797 35.7633 81.8493 36.7745 82.2982C37.2204 82.5014 37.3509 82.3731 37.166 81.9348C36.7093 80.8766 36.7963 79.8931 37.4378 78.9952C37.7967 78.4928 38.0576 78.5356 38.2099 79.1342C39.2103 82.9824 39.917 87.194 40.3411 91.7798C40.3737 92.1326 40.2759 92.4212 40.0475 92.667ZM75.0281 84.0193C74.8433 84.0193 74.7019 83.5062 74.7237 82.8755C74.7454 82.2555 74.9085 81.7531 75.0934 81.7531C75.2782 81.7531 75.4196 82.2662 75.3978 82.8969C75.3761 83.5169 75.213 84.0193 75.0281 84.0193ZM79.4755 80.62C78.5621 81.9883 77.877 83.581 77.8009 85.2592C77.7031 87.6751 77.2681 90.1336 76.507 92.635C76.4961 92.6884 76.4526 92.7205 76.3874 92.7098L76.0938 92.6563C75.9307 92.635 75.8654 92.5495 75.8872 92.3891C76.3982 88.7761 77.6704 83.1641 76.3982 79.8397C76.0285 78.8776 74.7128 78.7387 74.1365 79.5938L73.5928 80.4169C73.3862 80.7269 73.2775 81.0583 73.2666 81.4324C73.147 85.0134 72.6033 88.4447 71.6138 91.705C71.3746 92.5067 71.2006 92.496 71.0919 91.6622C70.6134 88.0278 71.4181 84.1155 71.1462 80.4276C71.1136 80.0641 70.9505 79.9893 70.6569 80.2138L70.2655 80.5024C69.9393 80.7376 69.7435 81.101 69.7109 81.4965L68.754 92.5495C68.7214 92.8808 68.4496 93.1374 68.1125 93.1588H67.6449C66.9381 93.2015 66.601 92.8701 66.6228 92.1753L66.9164 82.3838C66.9273 82.0203 66.601 81.7424 66.2422 81.7958C65.3179 81.9348 64.7308 82.48 64.4807 83.41C63.6108 86.5206 63.1867 89.845 63.1976 93.3619C63.1976 93.8215 62.7844 94.1743 62.3277 94.1101L61.8601 94.046C61.6426 94.0139 61.4795 93.8429 61.4578 93.6291C61.2295 90.8178 61.9145 85.8578 60.2073 83.6344C59.8267 83.1534 59.6419 83.2175 59.631 83.8268L59.6093 85.3554C59.5984 85.6761 59.4679 85.9861 59.2396 86.2106C57.3693 88.0171 56.8256 90.1871 57.6085 92.7205C57.7173 93.0732 57.7281 93.3405 57.652 93.5222C57.5976 93.6612 57.4998 93.7787 57.3693 93.8536C57.0757 94.0353 56.8256 93.9925 56.5973 93.7253C56.1297 93.1694 55.9557 92.496 56.0536 91.705C56.1079 91.3522 56.0753 91.0102 55.9557 90.6788C55.2924 88.8081 54.6726 86.9375 54.1181 85.0454C53.9441 84.4361 53.6831 83.9872 53.3243 83.6772C53.0633 83.4527 52.6392 83.6237 52.6175 83.9658C52.4653 86.1465 52.3348 88.434 52.2152 90.8391C52.0086 95.0615 50.9103 95.3287 48.9204 91.6515C48.2354 90.3688 48.0071 88.5623 48.2572 86.2427C48.3659 85.2486 47.9309 84.2758 47.1154 83.6879L46.376 83.1534C45.517 82.5334 45.0929 82.7472 45.082 83.7841L44.9624 92.977C44.9516 93.5756 44.6362 93.8856 44.0273 93.907L42.9617 93.9391C42.331 93.9498 41.9939 93.6505 41.9504 93.0412C41.7547 90.1764 41.8852 87.3544 40.95 84.5751C40.3302 82.7151 39.9388 80.8445 39.7648 78.9738C39.7213 78.5035 39.9388 78.2683 40.4172 78.2576C51.5736 77.9797 61.6209 78.0011 70.5482 78.3111C73.4188 78.418 76.2242 78.7707 78.9535 79.3586C79.5298 79.4869 79.8017 80.139 79.4755 80.62ZM86.2933 72.3036C86.2824 72.7846 85.8909 73.1694 85.4016 73.1908C62.1646 73.9605 39.3951 74.1315 17.1041 73.7146C16.1581 73.6932 15.5383 73.2443 15.2229 72.3784L14.8315 71.3309C14.5053 70.4223 14.8315 69.984 15.8101 70.0161C26.7273 70.4116 38.2425 70.4116 50.3666 70.0374C60.4465 69.7167 72.1249 69.9092 85.4016 70.6147C86.0106 70.6467 86.315 70.9567 86.3041 71.5553V72.3036H86.2933ZM81.3675 61.1972C81.585 61.5286 81.498 61.7103 81.0956 61.7424C79.9865 61.86 78.9318 61.8814 77.9205 61.8172C77.3986 61.7852 77.3877 61.6783 77.877 61.4965C79.5298 60.9086 79.9213 60.5452 81.0956 59.4549C81.2044 59.3586 81.237 59.38 81.1935 59.519C80.9978 60.171 81.0522 60.7269 81.3675 61.1972ZM110.15 42.6296C106.768 52.7953 100.168 60.2031 90.3491 64.8423C89.4031 65.2913 88.6746 65.1096 88.1635 64.2865C87.9569 63.9658 88.1744 63.5596 88.555 63.5275C89.4575 63.4527 90.3274 63.2603 91.1755 62.9503C91.828 62.7045 92.0454 62.2662 91.8388 61.6569C91.7192 61.2934 91.4583 61.1331 91.0777 61.1759L88.1418 61.4752C87.9243 61.4965 87.87 61.411 87.9787 61.2293C88.8703 59.7862 89.6641 57.969 91.5561 57.7338C92.7631 57.5949 93.5569 57.9797 93.9375 58.8883C94.0897 59.2518 94.3615 59.4014 94.753 59.348C95.2206 59.2838 95.5794 59.0487 95.8186 58.6531C95.9491 58.4287 95.9926 58.0545 95.9382 57.5414C95.8077 56.2053 96.3079 55.2966 97.4497 54.8156C97.765 54.6873 98.0042 54.4842 98.1891 54.1956L101.995 48.124C102.386 47.4933 102.386 46.8733 101.995 46.2427C100.614 44.0193 98.7436 43.752 96.384 45.441C96.0904 45.6547 96.047 46.0716 96.2971 46.3282C96.5906 46.6275 96.9168 46.8627 97.2757 47.023C97.6128 47.1833 98.026 47.1192 98.2978 46.8627L99.3417 45.9006C99.5809 45.6761 99.9506 45.6227 100.255 45.7616C100.723 45.9861 101.06 46.3282 101.266 46.8092C101.408 47.1406 101.375 47.4506 101.158 47.7392C99.8962 49.4388 99.0807 50.6574 98.7219 51.395C98.1238 52.5815 97.2866 52.945 96.1883 52.4746C96.0252 52.3998 95.9382 52.4533 95.9273 52.635C95.8295 54.1636 95.1227 55.596 93.807 56.9321C93.5351 57.1994 93.285 57.1887 93.0349 56.9001L91.7084 55.3608C91.4583 55.0722 91.1647 55.0294 90.8276 55.2325C89.8925 55.8204 88.9573 56.3763 88.0222 56.9214C86.4238 57.8407 85.5974 59.4549 83.738 60.2245C83.4552 60.3421 83.2378 60.2673 83.0964 60L82.4766 58.8776C82.357 58.6638 82.4222 58.5249 82.6615 58.4607C83.6945 58.2042 84.6622 57.7338 85.5647 57.039C85.9888 56.7077 86.228 56.3442 86.2933 55.9487C86.3803 55.3822 86.1954 54.9439 85.7387 54.6232C85.4451 54.4201 85.1624 54.4308 84.8906 54.6553C84.6296 54.8798 84.336 55.0187 84.0207 55.0508C83.7923 55.0829 83.7162 54.9867 83.7923 54.7729C83.8467 54.6125 83.8793 54.5056 83.8793 54.4522C83.8358 54.0032 83.2921 53.8001 82.9659 54.1101C80.1496 56.7718 77.5726 59.2304 75.2347 61.4859C74.3105 62.3731 74.1148 62.2341 74.6476 61.0797C75.6153 58.9524 77.8879 57.1994 79.2145 55.3287C84.2273 48.2416 90.7624 42.8541 98.798 39.1662C101.897 37.7338 112.803 34.6232 110.15 42.6296Z" fill="black"/>
<path d="M51.5087 26.8201C51.4543 27.2263 51.3238 27.6004 51.1172 27.9318C50.8345 28.4128 50.6714 28.3807 50.6279 27.8249L50.3778 24.3294C50.3452 23.8484 50.5735 23.6025 51.0737 23.6025H52.6504C53.2702 23.6025 53.5964 23.9125 53.629 24.5111L53.8465 28.0173C53.8791 28.6266 53.6725 28.7228 53.2267 28.2952C52.7809 27.8676 52.4438 27.3545 52.2263 26.7559C52.0958 26.3925 51.563 26.4459 51.5087 26.8201Z" fill="black"/>
<path d="M53.8464 29.7595C53.9769 30.1336 54.0312 30.5291 53.9986 30.9567C53.966 31.3949 53.7485 31.5446 53.3244 31.3843C52.5633 31.0956 51.8347 31.2132 51.1388 31.737C50.78 32.0042 50.5517 31.9294 50.4538 31.4911C50.3016 30.7536 50.3451 30.016 50.5843 29.2784C50.7039 28.9257 50.9214 28.8402 51.2476 29.0219C51.9 29.3746 52.5307 29.4922 53.1505 29.3746C53.4984 29.2998 53.7268 29.4281 53.8464 29.7595Z" fill="black"/>
<path d="M49.5514 36.2586L53.9227 37.0496C54.2706 37.1137 54.5207 37.3061 54.6621 37.6161C54.8578 38.033 54.8795 38.4606 54.7164 38.9096C54.5968 39.2409 54.3685 39.4547 54.0205 39.5509L50.1169 40.5237C49.7145 40.6199 49.3231 40.3206 49.334 39.9144L49.3992 36.3761C49.3992 36.3013 49.4753 36.2372 49.5514 36.2586Z" fill="black"/>
<path d="M27.6301 44.6928L27.2169 45.067C26.6406 45.58 25.7055 45.2594 25.575 44.5004C25.3358 43.1215 25.2923 41.7532 25.4445 40.385C25.4771 40.0857 25.7599 39.8719 26.0643 39.9146C27.2278 40.107 28.0868 40.7484 28.6522 41.8387C30.1637 44.7356 31.7621 47.7073 33.4693 50.7324C33.6215 50.9996 33.5671 51.2241 33.3171 51.4058L33.0778 51.5768C33.0235 51.6089 32.98 51.6089 32.9474 51.5662C31.9578 50.3796 30.7835 49.7489 29.4134 49.6527C27.7389 49.5458 27.1517 48.5303 27.0864 46.9269C27.0647 46.4887 27.2713 46.3069 27.7062 46.3818C28.0651 46.4352 28.413 46.5635 28.7284 46.7559C29.0546 46.959 29.4786 46.82 29.6309 46.478L29.7831 46.0825C29.968 45.6442 29.8484 45.3128 29.4352 45.067L28.6305 44.5966C28.2717 44.3828 27.9346 44.4149 27.6301 44.6928Z" fill="black"/>
<path d="M52.4764 47.4185C52.0958 47.8995 51.5957 48.1668 50.9867 48.2202C50.5953 48.2523 50.3669 48.0813 50.3126 47.7071L49.8124 44.5217C49.7363 44.062 49.932 43.7841 50.3995 43.6879L53.6182 43.0572C54.1292 42.961 54.4663 43.1534 54.6185 43.6451C55.0426 45.0348 55.1622 46.5847 54.9774 48.295C54.923 48.7975 54.6946 48.8937 54.3032 48.5623C53.9335 48.263 53.6182 47.8995 53.3572 47.472C53.0853 47.0444 52.7918 47.023 52.4764 47.4185Z" fill="black"/>
<path d="M91.4584 53.8534C90.719 53.6182 90.632 51.8651 91.2627 49.9196C91.8934 47.9848 92.9916 46.5952 93.7201 46.8197C94.4595 47.0549 94.5465 48.8079 93.9159 50.7534C93.2852 52.6882 92.1869 54.0778 91.4584 53.8534Z" fill="black"/>
<path d="M85.5759 54.3879C85.4671 54.5054 85.2823 54.5161 85.1627 54.4092L84.619 53.9175C84.4994 53.8106 84.4994 53.6289 84.5973 53.5113L88.838 48.9576C88.9467 48.84 89.1316 48.8293 89.2512 48.9362L89.7949 49.4279C89.9145 49.5348 89.9145 49.7166 89.8166 49.8341L85.5759 54.3879Z" fill="black"/>
<path d="M54.151 54.5806L50.3778 54.9013C49.2579 54.9975 49.0839 54.6447 49.845 53.8323C50.1821 53.4689 50.6497 53.2016 51.2477 53.0413C52.7374 52.6244 52.7374 52.2182 51.2477 51.8013C50.5518 51.6089 50.2474 51.0851 50.3343 50.2193C50.367 49.8665 50.5627 49.6634 50.9215 49.6207L53.8139 49.2786C54.238 49.2251 54.5533 49.3855 54.7708 49.7489C55.6081 51.1279 55.6625 52.5603 54.9557 54.0354C54.7926 54.3668 54.5316 54.5485 54.151 54.5806Z" fill="black"/>
</g>
<defs>
<clipPath id="clip0_2118_1102">
<rect width="115" height="100" fill="white"/>
</clipPath>
</defs>
</svg>
