<svg width="100" height="101" viewBox="0 0 100 101" fill="none" xmlns="http://www.w3.org/2000/svg">
<g clip-path="url(#clip0_2273_946)">
<path d="M88.2185 18.7849C77.0332 5.66039 62.8906 -0.296658 45.7787 0.925604C42.9287 1.12734 39.9476 1.73253 36.8352 2.72933C22.1918 7.40478 11.555 16.4471 4.90107 29.8564C-1.31167 42.4113 -1.60979 56.4495 3.9471 68.8383C9.25356 80.6574 17.0165 89.4981 28.5118 95.4076C36.406 99.466 44.5743 101.222 53.0051 100.676C57.2144 100.403 61.6862 99.4067 66.4441 97.686C84.2714 91.2187 96.1722 75.9701 99.3323 57.4938C101.741 43.4437 97.4839 29.6547 88.2185 18.7849ZM35.7024 67.5448L46.2676 67.5211C46.8758 67.5211 47.3647 68.0076 47.3647 68.6128V75.1632C47.3647 75.7446 46.9116 76.2193 46.3273 76.2549L38.4212 76.7177C37.9442 76.7414 37.503 76.4566 37.3242 76.0057L34.665 69.0163C34.3907 68.3043 34.9273 67.5448 35.6905 67.5448H35.7024ZM33.8899 63.4034C33.4606 63.4271 33.0909 63.1186 33.0432 62.7032L31.9342 53.4354C31.8746 52.9607 32.2562 52.5335 32.7451 52.5335L46.5657 52.6997C47.007 52.6997 47.3647 53.0675 47.3647 53.5066V61.8488C47.3647 62.276 47.0308 62.6202 46.6015 62.6439L33.8899 63.4034ZM46.8877 47.8225L32.447 47.4665C32.1369 47.4665 31.8984 47.1817 31.9342 46.8732L32.8286 38.7683C32.8524 38.4716 33.1028 38.2699 33.4009 38.2817L46.9116 39.2667C47.1858 39.2785 47.4005 39.5159 47.4005 39.8006L47.4482 47.2885C47.4482 47.597 47.1978 47.8344 46.8877 47.8225ZM46.6254 33.9267L35.5474 33.6181C35.0227 33.6181 34.665 33.0841 34.8319 32.5976L37.3003 25.5726C37.4195 25.2284 37.7534 25.0267 38.0993 25.0623L46.6611 25.7862C47.0666 25.8218 47.3647 26.154 47.3766 26.5575L47.4124 33.1553C47.4124 33.5944 47.0547 33.9504 46.6134 33.9385L46.6254 33.9267ZM40.3411 19.485L46.053 10.4426C46.4226 9.8493 47.3528 10.1104 47.3528 10.8224L47.4005 20.4581C47.4005 20.8734 47.0308 21.2057 46.6134 21.1582L40.8777 20.553C40.353 20.5055 40.0668 19.9241 40.353 19.485H40.3411ZM31.5288 17.1947L31.6242 17.0761C35.4281 12.4481 39.0294 9.11357 39.6852 9.64757L39.721 9.6713C40.3769 10.1934 37.8011 14.3824 34.0091 18.9985L33.9137 19.1171C33.8302 19.2121 33.6752 19.2358 33.5679 19.1409L31.5646 17.5151C31.4572 17.4321 31.4453 17.2778 31.5288 17.1829V17.1947ZM26.7232 13.2194C27.379 12.3769 28.2018 11.8904 28.5357 12.1633C28.8815 12.4244 28.6192 13.3262 27.9514 14.1688C27.2955 15.0113 26.4727 15.4978 26.1388 15.2249C25.793 14.9638 26.0554 14.062 26.7232 13.2194ZM23.1458 29.0139L26.2819 23.2704C26.6158 22.6652 27.3194 22.3686 27.9872 22.5466L31.2903 23.4603C32.1369 23.6976 32.602 24.6232 32.2681 25.442L29.9905 31.0668C29.7282 31.7195 29.0365 32.0992 28.333 31.9687L24.1713 31.1736C23.1815 30.9838 22.6688 29.892 23.1458 29.0139ZM17.6127 52.3911L25.1372 52.4149C25.7453 52.4149 26.2581 52.8539 26.3654 53.4591L27.9395 63.2016C28.0349 63.8306 27.6294 64.4358 27.0093 64.6019L20.9993 66.0733C20.3435 66.2395 19.6757 65.8479 19.4968 65.2071L16.4083 53.9694C16.1937 53.1862 16.7899 52.403 17.6127 52.403V52.3911ZM16.8138 46.2561L18.829 36.2407C18.9602 35.5999 19.5684 35.1845 20.2123 35.3032L26.9378 36.4899C27.5579 36.5967 27.9872 37.1663 27.9156 37.7952L26.9736 46.4104C26.902 46.9918 26.4131 47.4546 25.805 47.4665L18.0182 47.6801C17.2431 47.7038 16.6588 47.0156 16.8138 46.2561ZM13.8207 25.442L19.8546 17.9305C19.9857 17.7643 20.2004 17.7169 20.3912 17.7999L22.4064 18.6425C22.6568 18.7493 22.7642 19.0578 22.6211 19.2951L17.1477 28.3138C17.0046 28.5511 16.6707 28.6104 16.456 28.4087L13.8684 26.0591C13.6895 25.893 13.6657 25.6319 13.8207 25.442ZM10.2195 31.7432C10.5891 30.9126 11.1734 30.6871 11.9962 31.0787L13.3556 31.7195C14.1307 32.0873 14.5242 32.9655 14.2619 33.7843C12.7833 38.4953 11.8651 42.9216 11.4954 47.0512C11.4477 47.597 11.1496 47.8581 10.5891 47.8344L6.89248 47.6563C6.34395 47.6326 6.0816 47.3478 6.09353 46.8138C6.177 42.7792 7.53641 37.7596 10.1956 31.7551L10.2195 31.7432ZM9.64707 68.7433L5.68809 54.0999C5.50922 53.4473 5.93851 52.7827 6.60629 52.6641L9.63515 52.1301C10.2195 52.0351 10.7918 52.3911 10.9588 52.9726L14.8104 67.2244C14.9774 67.8296 14.6196 68.4467 14.0353 68.6247L11.1257 69.5384C10.5056 69.7401 9.82594 69.3723 9.659 68.7315L9.64707 68.7433ZM22.9788 83.4105L22.2514 83.9563C21.5359 84.4903 18.1255 81.1677 14.6196 76.516L13.463 74.997C13.1529 74.5817 13.2364 73.9884 13.6537 73.668L15.4544 72.327C15.8717 72.0185 16.468 72.0897 16.778 72.5169L17.9347 74.0477C21.4405 78.6876 23.7062 82.8884 22.9907 83.4223L22.9788 83.4105ZM28.1541 88.8691L26.9139 88.9166C26.7828 88.9166 26.6755 88.8217 26.6755 88.6911V88.525C26.6158 87.1722 26.9139 86.0567 27.2955 86.0567H27.5459C27.9514 86.033 28.3091 87.1129 28.3568 88.4775V88.6318C28.3568 88.7623 28.2734 88.8691 28.1422 88.8691H28.1541ZM28.4761 79.3402C28.1064 79.4708 27.701 79.3402 27.4863 79.0317L22.4422 71.9711C22.1083 71.4964 22.311 70.8437 22.8596 70.6539L27.9991 68.8383C28.4284 68.684 28.9054 68.8857 29.0842 69.3011L32.4947 76.9669C32.6974 77.4297 32.4708 77.9637 31.9938 78.1298L28.488 79.3402H28.4761ZM39.1844 91.2306C36.8114 89.7117 34.4384 87.4926 32.0892 84.5615C31.6242 83.9919 31.8269 83.1376 32.4947 82.829L33.2698 82.473C33.9018 82.1882 34.3907 82.3425 34.7484 82.924L39.6495 90.7678C40.1741 91.6103 40.0191 91.7764 39.1725 91.2424L39.1844 91.2306ZM46.0768 91.0644L40.5557 82.0933C40.2338 81.5712 40.6154 80.8948 41.2235 80.8948H46.518C46.9473 80.8829 47.2931 81.2152 47.3051 81.6424L47.5316 90.6254C47.5436 91.4204 46.4942 91.7408 46.0768 91.0644ZM88.9101 31.1618C89.7925 30.9363 90.6988 31.4703 90.9254 32.3484L94.3835 45.8526C94.6101 46.7308 94.0735 47.6326 93.1911 47.8581L91.6289 48.2497C90.7465 48.4751 89.8403 47.9411 89.6137 47.063L86.1555 33.5588C85.929 32.6807 86.4656 31.7788 87.348 31.5533L88.9101 31.1618ZM77.9275 17.8237L78.3926 17.4558C79.2512 16.7913 83.1505 20.3275 87.0976 25.3471L87.1811 25.4658C87.4315 25.7743 87.3838 26.2252 87.0618 26.4744L84.6292 28.3731C84.3191 28.6104 83.8541 28.563 83.6156 28.2426L83.5321 28.1239C79.5851 23.1043 77.0928 18.4882 77.9514 17.8118L77.9275 17.8237ZM82.8763 47.8937L74.5648 47.8699C73.9328 47.8699 73.3843 47.3953 73.3008 46.7664L72.2037 38.0444C72.1202 37.4036 72.5376 36.8103 73.1815 36.656L80.074 35.0777C80.7537 34.9116 81.4334 35.3388 81.6003 36.0033L84.1164 46.3273C84.3191 47.1342 83.711 47.8937 82.8882 47.8937H82.8763ZM84.1164 53.649L81.815 64.8986C81.6957 65.48 81.1114 65.8597 80.5152 65.7173L72.943 63.9018C72.4064 63.7712 72.0606 63.2491 72.1441 62.7032L73.5751 53.3879C73.6585 52.8777 74.0997 52.4861 74.6125 52.4861L83.0551 52.3674C83.7348 52.3674 84.2595 52.9726 84.1164 53.6371V53.649ZM76.5801 31.3398L72.0606 32.1348C71.2259 32.2891 70.4031 31.8025 70.1288 31.0075L68.2209 25.5014C67.8751 24.469 68.5548 23.3772 69.6399 23.2348L72.7642 22.8314C73.432 22.7365 74.0759 23.045 74.4336 23.5908L77.7367 28.7054C78.4045 29.7378 77.7964 31.1143 76.5801 31.3279V31.3398ZM52.7189 39.9312C52.7189 39.5989 52.9812 39.326 53.3032 39.3141L66.6349 38.4479C66.9688 38.4241 67.2669 38.6852 67.3027 39.0056L68.1255 47.2766C68.1613 47.6445 67.8751 47.9649 67.5054 47.9649L53.3389 47.9886C52.9931 47.9886 52.7069 47.7157 52.7069 47.3597V39.9312H52.7189ZM52.7189 26.6406C52.7189 26.1896 53.0766 25.8099 53.5297 25.7862L62.4374 25.3471C62.819 25.3234 63.1648 25.5607 63.2841 25.9286L65.4305 32.562C65.6094 33.096 65.2039 33.6537 64.6435 33.6656L53.6132 33.9385C53.1362 33.9385 52.7427 33.5707 52.7427 33.096L52.7189 26.6406ZM52.7427 68.8027C52.7427 68.1025 53.3032 67.5448 54.0067 67.5448H64.1784C65.0251 67.5448 65.6332 68.3517 65.3947 69.1587L63.4868 75.709C63.3318 76.2668 62.8071 76.6346 62.2228 76.6228L53.959 76.3973C53.2674 76.3736 52.7189 75.8158 52.7189 75.1276V68.8027H52.7427ZM53.4463 62.6676C53.0766 62.6439 52.7904 62.3354 52.7904 61.9794L52.7666 53.5897C52.7666 53.2099 53.0766 52.8895 53.4582 52.8895L67.5293 52.8183C67.9466 52.8183 68.2686 53.1862 68.2209 53.6015L67.1357 62.6914C67.088 63.0474 66.7661 63.3203 66.4083 63.2966L53.4343 62.6676H53.4463ZM71.7864 11.6056C72.0845 11.3564 72.955 11.9022 73.7181 12.816C74.4813 13.7297 74.851 14.679 74.5409 14.9282C74.2428 15.1774 73.3723 14.6315 72.6092 13.7178C71.846 12.8041 71.4763 11.8548 71.7864 11.6056ZM61.9724 10.6206C62.3182 10.3714 62.8071 10.4189 63.1052 10.7274L69.4849 17.2778C69.938 17.7287 69.7592 18.4882 69.151 18.7018L66.4322 19.663C66.0148 19.8173 65.5378 19.6274 65.347 19.2239L61.6743 11.7124C61.4835 11.3208 61.6027 10.858 61.9605 10.6206H61.9724ZM55.0203 11.2258L59.659 18.6306C60.1598 19.4375 59.6351 20.4937 58.6812 20.5649L54.2333 20.8971C53.5059 20.9565 52.8858 20.3987 52.862 19.6749L52.6592 11.926C52.6354 10.6325 54.3168 10.1222 55.0084 11.2258H55.0203ZM59.7067 82.3306L54.9726 90.9102C54.5076 91.7527 53.2078 91.4679 53.1481 90.4949L52.5877 81.939C52.5519 81.3813 52.9931 80.9185 53.5655 80.9066L58.8481 80.8829C59.5874 80.8829 60.0644 81.6661 59.7067 82.3188V82.3306ZM69.2106 84.4429L62.5925 91.0526C62.1393 91.4917 61.8531 91.4086 61.71 90.7915C61.6266 90.4593 61.71 90.0321 61.9605 89.5218C63.1887 86.9349 64.4408 84.7514 65.7286 82.9595C66.2414 82.2594 66.8972 82.0695 67.7081 82.3781L68.8648 82.829C69.8069 83.1969 69.9261 83.7309 69.2106 84.431V84.4429ZM72.8357 88.8573C71.8102 89.6167 70.8205 90.0202 70.6416 89.7591C70.4508 89.4981 71.1305 88.6793 72.1441 87.9198C73.1696 87.1603 74.1594 86.7569 74.3382 87.0179C74.529 87.279 73.8493 88.0978 72.8357 88.8573ZM73.3127 78.4977L69.3299 78.0468C68.4832 77.9518 67.9466 77.0974 68.2447 76.3024L70.6893 69.5977C70.9159 68.9807 71.5717 68.6247 72.2156 68.7671L77.534 69.9181C78.4284 70.1199 78.8577 71.1285 78.3688 71.8999L74.5767 77.8925C74.3025 78.3197 73.8135 78.557 73.3127 78.4977ZM87.1095 75.3412L81.6123 82.0221C81.5407 82.117 81.4572 82.1882 81.3499 82.2476L79.0365 83.6953C78.0945 84.2886 76.9855 83.1969 77.5698 82.2476L83.2102 73.134C83.4844 72.6831 84.0687 72.5051 84.5576 72.7305L86.7279 73.7154C87.3599 74.0003 87.5507 74.8072 87.0976 75.3412H87.1095ZM94.5386 54.1355L91.2235 68.3043C91.0208 69.1705 90.0668 69.6333 89.2559 69.2536L87.2049 68.3161C86.5967 68.0432 86.2748 67.3787 86.4298 66.726L89.4944 53.4829C89.6495 52.8421 90.2218 52.3911 90.8896 52.3911L93.1792 52.4149C94.0854 52.4149 94.7413 53.2574 94.5386 54.1474V54.1355Z" fill="black"/>
</g>
<defs>
<clipPath id="clip0_2273_946">
<rect width="100" height="100" fill="white" transform="translate(0 0.771484)"/>
</clipPath>
</defs>
</svg>
