<svg width="116" height="121" viewBox="0 0 116 121" fill="none" xmlns="http://www.w3.org/2000/svg">
<g clip-path="url(#clip0_2209_153)">
<path d="M113.677 18.879C109.733 7.4086 100.623 -0.105788 87.9302 0.584949C78.0854 1.12917 68.7141 8.36447 63.4136 16.1789C61.4418 19.0884 59.5901 22.0327 57.8657 25.0259C57.7809 25.1724 57.5689 25.1724 57.477 25.0329C56.0282 22.8211 54.5935 20.6163 53.173 18.4116C46.9961 8.81101 37.2078 1.37337 25.2993 1.95945C14.4156 2.50367 5.00189 9.22964 1.80745 19.5558C-0.595451 27.3214 0.401046 36.9499 4.09727 44.22C8.8536 53.5694 15.2637 61.8862 21.278 70.6565C29.3136 82.3851 37.4269 94.0299 45.6039 105.598C48.7276 110.015 52.0069 114.292 55.4487 118.415C55.9505 119.015 56.5441 119.622 57.2226 120.236C57.7173 120.683 58.4947 120.627 58.9188 120.117C66.7989 110.677 74.5164 101.195 82.0643 91.6647C89.7678 81.9385 96.7432 72.0868 103.507 61.8932C111.91 49.2366 118.956 34.2637 113.677 18.879ZM34.9039 81.5129L34.6 81.6873C34.5222 81.7362 34.4516 81.7152 34.4021 81.6385C31.0734 76.8103 27.8012 71.9682 24.5785 67.1051C14.776 52.3205 -1.7757 34.2567 9.32712 15.4672C13.8008 7.90398 23.1721 5.11312 31.9992 6.18062C32.0345 6.1876 32.0628 6.20853 32.0699 6.24342L32.1547 6.51553C32.19 6.64809 32.1405 6.71089 32.0063 6.71089C28.9673 6.72484 26.8047 6.88532 25.5114 7.19231C18.3875 8.88078 12.3025 13.4508 9.86423 20.421C5.00896 34.2846 12.7831 48.197 20.7409 59.1372C23.2781 62.6258 24.946 66.212 27.3277 69.5959C29.985 73.3706 32.5292 77.2638 34.9675 81.2617C35.0311 81.3664 35.0099 81.4501 34.9039 81.5129ZM39.4482 79.7547L39.2786 79.8454C39.116 79.9361 38.9888 79.9012 38.8899 79.7407C33.5752 71.1658 28.2959 62.6258 23.0449 54.1276C21.2073 51.1414 19.0447 47.1086 16.557 42.0362C11.094 30.8728 12.2035 13.5973 27.6881 11.4274C30.5433 11.0228 33.2925 11.246 35.9357 12.0972C38.8263 13.0252 41.3069 14.4067 43.3918 16.2417C43.8087 16.6115 43.7522 16.7091 43.2222 16.5347C40.9747 15.8091 38.7839 15.0067 36.5011 14.4485C31.7024 13.2764 27.0732 14.2881 22.6208 17.4836C17.9069 20.8745 16.0552 27.1609 16.7549 32.8543C16.8185 33.3496 16.9669 33.6776 17.2001 33.8241C17.5889 34.0683 18.0977 33.866 18.2178 33.4334C19.3416 29.3308 19.8575 26.3934 22.7127 22.6048C24.0343 20.8536 25.9707 19.4581 28.5291 18.4116C32.3314 16.8557 37.5047 17.4976 41.3917 19.0395C47.6322 21.5234 52.5087 28.1796 55.2225 34.0683C56.1342 36.0358 56.9752 37.9685 57.7526 39.8593C58.0565 40.6059 58.318 40.5919 58.5371 39.8175C59.3569 36.915 60.8269 34.466 62.9401 32.4775C64.0002 31.4798 65.0603 30.489 66.1204 29.5052C71.1594 24.7957 78.1844 20.5536 84.9266 19.7233C94.9128 18.4883 98.3829 29.7983 97.3086 37.4103C97.1743 38.3732 97.033 38.3732 96.8917 37.4173C96.0506 31.6263 94.1071 26.3725 88.3684 23.9584C84.3754 22.2699 77.9017 23.4351 74.4175 25.6329C69.9156 28.4726 66.3607 31.417 63.7528 34.466C61.8305 36.7126 59.9365 38.9663 58.0777 41.2268C57.9576 41.3734 57.8799 41.5478 57.8445 41.7362C57.7738 42.1548 57.6254 42.5804 57.4063 43.02C57.2579 43.313 57.1307 43.306 57.0106 42.999C53.3426 33.5799 48.0209 23.2677 37.1442 20.6652C30.2818 19.0256 24.0131 23.9514 21.7939 30.1471C18.7267 38.743 23.4618 48.5668 27.6457 56.6184C31.6176 64.2654 35.5682 71.9333 39.4906 79.6291C39.5118 79.6849 39.4977 79.7268 39.4482 79.7547ZM56.6996 98.0836C56.4098 98.9558 56.1413 98.9488 55.8869 98.0627C55.2437 95.8091 54.3744 93.5485 53.279 91.2739C47.3919 79.0849 41.837 68.5075 36.6142 59.5419C32.5222 52.5159 29.4691 46.99 27.4478 42.9711C24.2604 36.6359 23.7445 30.1192 29.7376 25.4655C32.3384 23.4491 35.2714 23.1351 38.5436 24.5236C45.4484 27.447 48.9679 32.6031 51.8938 39.2244C53.3779 42.5944 54.8904 45.9504 56.431 49.2924C57.0388 50.6181 57.3145 51.867 57.6537 53.2555C57.8657 54.1416 57.6113 54.5113 56.8834 54.3718C56.6501 54.3299 56.4522 54.1695 56.3674 53.9462C54.9469 50.3111 53.2154 46.4248 51.1588 42.2874C48.2824 36.4894 39.7733 22.9328 31.3773 28.1307C25.5326 31.7519 29.045 40.8082 31.3278 45.3783C34.183 51.0995 39.3916 59.6605 43.2646 66.8818C44.6286 69.4285 45.9572 71.9054 47.2576 74.3195C50.0634 79.5244 52.8762 85.148 55.696 91.1902C55.901 91.6298 56.1837 91.6856 56.5371 91.3437C56.7561 91.1344 56.9399 90.8623 57.0812 90.5344C59.4983 84.9736 61.8093 79.6291 64.0214 74.5009C65.9861 69.9308 68.0074 65.3748 70.0781 60.8187C71.4492 57.7976 72.8697 54.9928 74.3468 52.4112C75.8168 49.8297 77.2444 46.969 78.6296 43.8223C78.8487 43.327 78.4317 42.7897 77.8946 42.8665C77.8098 42.8804 77.725 42.8874 77.6331 42.8874C76.6861 42.9083 75.8027 43.4037 75.2797 44.1991C68.6646 54.302 64.3394 64.6561 59.6255 76.1754C58.6926 78.4639 57.3922 80.6617 56.3109 82.8804C56.1837 83.1386 55.8091 83.1386 55.6819 82.8804C51.604 74.5567 46.7912 65.4864 41.2292 55.6626C39.0029 51.7275 30.296 35.1497 33.7802 31.8705C36.1619 29.6308 39.7662 32.1566 41.4907 33.9427C45.4837 38.0941 48.1198 42.9362 49.399 48.4691C49.7877 50.1716 49.5828 50.2483 48.77 48.6924C46.7276 44.7782 44.1126 40.8152 40.9394 36.8103C39.8652 35.4637 38.6425 34.7311 37.2644 34.6265C36.5223 34.5706 35.9852 35.3242 36.2961 35.994C42.4235 49.3343 48.5863 61.9699 54.7773 73.9078C54.9045 74.159 55.2649 74.1869 55.4275 73.9497C55.901 73.2659 56.2897 72.5612 56.5936 71.8286C59.2439 65.5492 62.2899 59.6116 65.7317 54.016C69.965 47.1365 75.6048 41.3524 82.6368 36.6708C82.9266 36.4754 83.2234 36.4475 83.5343 36.5801C83.81 36.6987 83.9443 37.0057 83.8453 37.2917C82.0855 42.2664 80.1491 46.976 78.0289 51.4344C70.8202 66.6097 64.6645 80.0826 59.5619 91.8531C58.6643 93.9253 57.3922 95.9975 56.6996 98.0836ZM74.6366 82.4688H74.3609C74.2266 82.4688 74.1842 82.406 74.2266 82.2804C75.8733 77.7173 77.1596 74.4172 78.0925 72.3868C82.0007 63.8956 85.5061 55.2579 88.6228 46.4667C89.8667 42.9502 90.6653 39.65 90.312 36.3289C89.9586 32.9171 87.4426 29.9727 83.8453 29.7564C77.2939 29.3587 70.5446 34.6823 65.6469 39.8244C62.4454 43.1804 60.1343 45.8876 58.7279 47.9319C58.424 48.3714 58.1979 48.3366 58.0565 47.8203L57.9081 47.2551C57.7526 46.6969 57.8728 46.2085 58.2756 45.7829C61.3499 42.5246 63.3076 38.5686 66.6787 35.5126C71.1241 31.4867 75.8804 27.754 81.8665 27.2307C89.0398 26.6027 93.0187 33.0985 92.8774 39.336C92.6795 48.3924 88.425 57.2464 84.0149 65.6678C81.082 71.2705 78.0572 76.8173 74.9404 82.2943C74.8768 82.413 74.7708 82.4688 74.6366 82.4688ZM100.461 47.9179C98.4182 52.5019 96.0082 57.0859 93.2237 61.6629C89.5204 67.754 85.704 73.7543 81.7816 79.664C80.7427 81.2338 79.4777 82.9083 78.0006 84.6875C77.5554 85.2248 77.4918 85.1829 77.8027 84.5619C78.9971 82.1827 80.1632 79.6849 81.5343 77.3545C84.6863 71.9961 87.8101 66.6167 90.9056 61.2234C92.1565 59.0395 93.3438 56.8068 94.4605 54.5183C99.3158 44.5829 104.454 35.7916 99.6126 24.7119C95.8598 16.13 88.2483 14.1136 79.7392 17.2045C74.9405 18.9418 70.7354 21.1536 67.1098 23.8258C66.5232 24.2584 66.4455 24.1817 66.8695 23.5886C67.343 22.9258 68.0356 22.2141 68.9332 21.4606C73.004 18.0488 78.4035 14.2532 83.2093 12.9694C89.789 11.2111 95.351 12.9485 99.8882 18.1743C106.842 26.1841 104.567 38.6802 100.461 47.9179ZM110.779 26.9376C110.638 28.1377 110.348 28.1726 109.903 27.0493C109.394 25.7585 108.857 24.3212 108.298 22.7374C106.185 16.7719 102.086 11.7554 95.9658 9.5157C88.9197 6.94113 81.9442 7.50628 75.0323 11.2111C75.0111 11.2251 74.9828 11.2111 74.9758 11.1832L74.9334 11.0088C74.9122 10.9181 74.9334 10.8414 75.0111 10.7855C80.7851 6.39692 86.3825 4.4782 91.8032 5.02242C102.524 6.0969 109.323 14.5113 110.744 24.8305C110.85 25.5631 110.857 26.2609 110.779 26.9376Z" fill="black"/>
</g>
<defs>
<clipPath id="clip0_2209_153">
<rect width="115" height="120" fill="white" transform="translate(0.5 0.542969)"/>
</clipPath>
</defs>
</svg>
