<svg width="115" height="121" viewBox="0 0 115 121" fill="none" xmlns="http://www.w3.org/2000/svg">
<g clip-path="url(#clip0_2209_95)">
<path d="M100.2 5.51663C88.0078 -0.395652 73.568 3.70084 64.6321 13.0342C62.7887 14.9552 60.8751 16.9552 58.9001 19.0342C58.5841 19.3675 58.2944 19.35 58.0311 18.9728C53.0803 11.9201 46.9269 5.21838 39.1497 2.49031C32.0308 -0.00968707 25.1576 -0.106179 18.5478 2.20084C7.77726 5.94645 1.97503 17.2973 0.482776 28.1307C-2.12428 47.1658 6.15334 66.4728 16.7834 83.0166C23.7092 93.7973 31.4777 103.596 40.1065 112.411C42.9242 115.289 45.6366 117.56 48.2261 119.236C54.002 122.955 60.1992 117.938 64.7111 114.166C73.094 107.157 81.0732 99.0254 88.6661 89.7535C94.2138 82.9815 98.8134 77.0868 102.904 70.271C107.714 62.2447 111.217 53.8763 113.42 45.1657C117.045 30.7973 115.114 12.7535 100.2 5.51663ZM6.54834 25.3324C8.84817 15.657 14.2466 7.98154 24.5519 6.10435C35.1908 4.17452 46.2247 10.6219 51.7899 19.9991C52.7731 21.657 53.2032 23.8149 53.212 25.6307C53.212 26.5254 52.9398 26.6131 52.3956 25.9026C48.8581 21.2272 45.0924 17.7973 41.1159 15.6043C28.5371 8.67452 13.5883 12.4552 6.99602 25.4903C6.39034 26.6921 6.24112 26.6394 6.54834 25.3324ZM7.48758 44.8938C5.95144 38.2096 8.7955 29.464 12.6315 24.5868C15.3614 21.1219 18.934 18.7184 23.3318 17.3763C33.7863 14.2008 44.7676 21.9728 49.8412 30.7886C50.4557 31.8587 50.8068 32.9465 50.8946 34.0517C51.0262 35.7096 50.6225 35.85 49.6744 34.4903C46.2949 29.6131 42.1078 25.9026 37.122 23.35C32.6803 21.078 28.1597 20.7798 23.56 22.464C14.5187 25.7622 10.0683 36.3236 8.05815 44.8938C7.86504 45.7096 7.67192 45.7096 7.48758 44.8938ZM16.3182 68.9289C15.6248 67.5166 15.6862 66.1043 16.4938 64.7096C20.3122 58.0956 23.5249 51.157 27.7822 45.3061C29.5203 42.9114 32.575 40.6921 35.0943 43.6657C36.8498 45.7447 34.9538 47.6043 33.7337 49.0254C27.8437 55.9201 22.2258 62.578 16.8976 68.9991C16.6693 69.271 16.4762 69.2447 16.3182 68.9289ZM21.4621 78.578C20.8037 77.7798 20.7862 76.4991 21.2865 75.6043C24.9118 69.1745 30.6789 63.157 35.5858 57.964C38.4474 54.9377 40.5454 52.1131 41.8884 49.4815C45.2504 42.9201 39.8607 36.8236 33.1894 35.885C26.843 34.9991 22.2784 40.1394 19.3729 45.1043C17.3101 48.6394 15.221 52.1833 13.1055 55.7359C12.9036 56.0693 12.7456 56.0517 12.6139 55.6833C12.412 55.078 12.4032 54.4201 12.5876 53.7184C15.5633 42.9377 19.6538 20.0342 36.8147 30.1219C42.6696 33.5693 46.3388 38.4552 47.8223 44.7798C48.9283 49.4815 45.2504 54.8412 42.1781 58.4377C35.9369 65.7272 29.5641 72.4728 23.0772 78.6745C22.612 79.1219 21.8659 79.078 21.4621 78.578ZM37.6925 99.9201C37.4555 100.104 37.2185 100.104 36.9727 99.9377C35.5244 98.9201 33.7161 97.2008 35.0504 95.2359C36.4461 93.1921 37.8593 91.385 39.3077 89.8061C45.0309 83.5429 50.7805 77.3061 56.5651 71.0868C63.2978 63.85 69.7409 56.0868 76.5613 48.8149C77.5883 47.7184 78.8085 46.8324 80.2042 46.157C82.5918 45.0079 84.0577 47.3324 83.5398 49.3412C83.2852 50.3324 82.5391 51.5166 81.319 52.885C67.757 68.0166 54.2214 82.7798 40.7122 97.1745C39.7554 98.2008 38.7459 99.1131 37.6925 99.9201ZM46.1194 109.131C45.7244 109.473 45.3732 109.438 45.0485 109.017L43.2753 106.71C42.9505 106.289 42.9681 105.692 43.3192 105.289C45.9263 102.315 48.4368 99.2535 51.1491 96.4464C61.3579 85.8587 71.3297 75.0517 81.0644 64.0254C84.9882 59.578 92.2212 52.078 90.0618 45.4552C87.7532 38.3938 79.6424 38.35 74.5161 42.1043C71.751 44.1307 68.9947 46.7184 66.256 49.885C62.1918 54.578 58.1013 59.2886 53.9669 64.0254C46.3652 72.7096 37.9998 81.3061 30.0118 89.7973C29.4149 90.4377 28.9058 90.3675 28.4932 89.5956C28.1685 88.9903 27.8876 88.3587 27.6506 87.7008C27.317 86.7535 27.5013 85.7008 28.1509 84.9289C33.5054 78.5517 39.4832 72.9903 44.8378 66.9289C51.8338 59.0079 58.9879 50.7622 66.3087 42.1833C70.408 37.385 77.325 32.2535 83.6627 32.4991C87.0949 32.6307 89.8863 33.6482 92.0369 35.5517C98.3043 41.0868 96.3732 48.7008 93.0463 55.1833C91.0888 58.9991 88.9558 62.464 86.6384 65.5605C74.8584 81.3412 61.3491 95.8587 46.1194 109.131ZM91.9579 76.9289C84.8389 86.5868 76.8334 95.6043 67.9238 103.982C64.1756 107.517 60.1202 110.762 55.7576 113.718C54.9412 114.271 54.0195 114.613 53.0013 114.745C52.6414 114.789 52.4922 114.639 52.5536 114.28C52.7467 113.253 53.0891 112.499 53.5806 112.017C59.7252 106.043 65.861 99.9377 71.9792 93.7184C78.7822 86.7973 85.2778 79.1307 90.7553 71.7008C98.9802 60.5429 110.155 41.2008 95.2145 29.9026C83.9699 21.3938 70.3904 29.0079 62.3235 37.464C61.5422 38.2798 61.2438 38.1307 61.4194 37.0166C61.5686 36.0693 61.9285 35.2184 62.4903 34.464C72.0495 21.6307 89.6229 17.5254 100.964 30.1482C113.718 44.3236 100.859 64.85 91.9579 76.9289ZM108.662 32.5868C105.239 23.2622 94.5649 17.6307 85.2778 17.4026C75.6309 17.157 68.7226 21.2272 61.867 27.4377C61.4984 27.771 61.2262 27.7096 61.0595 27.2447C60.9717 27.0079 61.0068 26.7447 61.156 26.4552C65.861 17.5693 72.5235 11.9026 81.1522 9.45522C94.0031 5.82365 106.292 12.4289 108.496 25.9465C108.829 27.9991 109.075 30.1745 109.242 32.464C109.338 33.8763 109.145 33.9114 108.662 32.5868Z" fill="black"/>
</g>
<defs>
<clipPath id="clip0_2209_95">
<rect width="115" height="120" fill="white" transform="translate(0 0.542969)"/>
</clipPath>
</defs>
</svg>
