<svg width="141" height="101" viewBox="0 0 141 101" fill="none" xmlns="http://www.w3.org/2000/svg">
<g clip-path="url(#clip0_2249_735)">
<path d="M27.9524 6.6839C28.531 7.31879 28.5 8.30755 27.8697 8.90081L27.7871 8.97366C27.1568 9.56692 26.1649 9.52529 25.5863 8.8904L20.41 3.25967C19.8314 2.62479 19.8624 1.63603 20.4926 1.04277L20.5753 0.969916C21.2055 0.376661 22.1974 0.418293 22.776 1.05318L27.9524 6.6839Z" fill="black"/>
<path d="M123.504 1.66698C124.01 2.17697 124.01 2.9992 123.504 3.50919L119.04 8.00545C118.534 8.51544 117.718 8.51544 117.211 8.00545L116.798 7.58913C116.292 7.07913 116.292 6.2569 116.798 5.74691L121.262 1.25066C121.768 0.740666 122.584 0.740666 123.09 1.25066L123.504 1.66698Z" fill="black"/>
<path d="M19.4801 24.929C18.9531 25.6368 17.9406 25.7721 17.2483 25.2413L9.50959 19.3191C8.80701 18.7779 8.67269 17.7788 9.19963 17.071L9.3856 16.8212C9.91254 16.1135 10.9251 15.9782 11.6173 16.509L19.3561 22.4311C20.0587 22.9723 20.193 23.9715 19.666 24.6793L19.4801 24.929Z" fill="black"/>
<path d="M140.376 18.1222C140.727 18.9861 140.324 19.9645 139.467 20.3183L124.682 26.4278C123.824 26.7817 122.853 26.3654 122.501 25.5119L122.481 25.4495C122.13 24.5856 122.532 23.6073 123.39 23.2534L138.175 17.1439C139.033 16.79 140.004 17.2063 140.355 18.0598L140.376 18.1222Z" fill="black"/>
<path d="M19.6351 41.6651C19.5421 42.5914 18.7155 43.2783 17.7959 43.1846L2.01883 41.6234C1.08894 41.5298 0.41735 40.6971 0.510339 39.7708L0.531003 39.6043C0.623992 38.678 1.45056 37.9911 2.37012 38.0847L18.1472 39.6459C19.0771 39.7396 19.7487 40.5722 19.6557 41.4985L19.6351 41.6651Z" fill="black"/>
<path d="M138.041 42.3621C137.979 43.2468 137.225 43.9233 136.346 43.8609L123.369 43.0387C122.491 42.9866 121.82 42.2164 121.882 41.3317V41.2069C121.944 40.3222 122.708 39.6457 123.586 39.7081L136.563 40.5303C137.442 40.5824 138.113 41.3526 138.051 42.2372V42.3621H138.041Z" fill="black"/>
<path d="M21.5258 54.5705C21.7325 55.424 20.534 56.4336 18.8602 56.8395C17.1864 57.2454 15.6675 56.8915 15.4609 56.0485C15.2542 55.195 16.4528 54.1854 18.1266 53.7795C19.8004 53.3736 21.3192 53.7275 21.5258 54.5705Z" fill="black"/>
<path d="M11.2144 59.2437L6.6476 60.2324C6.19299 60.3365 5.74871 60.0243 5.67639 59.5663L5.49041 58.3069C5.42842 57.8906 5.69705 57.4951 6.1 57.4015L10.8631 56.2566C11.3694 56.1421 11.855 56.5272 11.855 57.058V58.4423C11.855 58.8274 11.5863 59.15 11.2144 59.2437Z" fill="black"/>
<path d="M131.718 65.7487C131.335 66.6646 130.282 67.0913 129.372 66.6958L115.269 60.6071C114.36 60.222 113.936 59.1604 114.329 58.2445L114.37 58.1612C114.752 57.2453 115.806 56.8186 116.715 57.2141L130.819 63.3028C131.728 63.6879 132.152 64.7495 131.759 65.6654L131.718 65.7487Z" fill="black"/>
<path d="M30.2461 67.2482C30.8041 67.9871 30.6594 69.0279 29.9258 69.59L20.6683 76.6674C19.9347 77.2295 18.9015 77.0837 18.3435 76.3448L18.2816 76.2615C17.7236 75.5225 17.8683 74.4817 18.6018 73.9197L27.8594 66.8423C28.593 66.2802 29.6262 66.426 30.1841 67.1649L30.2461 67.2482Z" fill="black"/>
<path d="M110.516 85.8993C109.886 86.555 108.842 86.5654 108.181 85.9305L100.845 78.749C100.194 78.1037 100.174 77.0525 100.814 76.3968L100.907 76.2927C101.538 75.637 102.581 75.6266 103.242 76.2615L110.578 83.443C111.229 84.0883 111.25 85.1395 110.609 85.7952L110.516 85.8993Z" fill="black"/>
<path d="M38.0572 90.1139C37.6026 90.8945 36.6107 91.1547 35.8255 90.6968L35.7325 90.6447C34.9576 90.1868 34.6993 89.1772 35.1539 88.3966L40.6299 78.9982C41.0845 78.2176 42.0764 77.9574 42.8616 78.4153L42.9546 78.4674C43.7295 78.9253 43.9878 79.9349 43.5332 80.7155L38.0572 90.1139Z" fill="black"/>
<path d="M55.6631 99.3459C55.3945 100.231 54.4749 100.741 53.607 100.47L53.483 100.439C52.6048 100.179 52.1089 99.2418 52.3672 98.3676L55.4771 87.7826C55.7458 86.898 56.6653 86.388 57.5332 86.6586L57.6572 86.6898C58.5354 86.95 59.0314 87.8867 58.7731 88.761L55.6631 99.3459Z" fill="black"/>
<path d="M93.9849 95.1727C94.3672 95.9845 94.0262 96.9629 93.2203 97.348L93.055 97.4312C92.2491 97.8163 91.2882 97.4729 90.8956 96.661L87.3207 89.0736C86.9384 88.2618 87.2793 87.2834 88.0852 86.8983L88.2506 86.8151C89.0565 86.43 90.0173 86.7734 90.41 87.5853L93.9849 95.1727Z" fill="black"/>
<path d="M112.665 11.6377C109.886 7.67221 106.187 5.21593 101.548 4.25839C91.8565 2.27047 84.1694 5.27838 78.4764 13.2717C75.976 16.7896 73.9923 20.474 72.5354 24.3146C72.4321 24.606 72.0292 24.6268 71.8948 24.3458C69.4048 19.2459 66.8011 14.1772 62.7613 10.0661C56.6963 3.8733 46.8188 1.37538 39.3177 6.54815C33.1185 10.8258 29.7399 16.9353 29.1819 24.8662C28.4173 35.8467 35.8048 47.8367 42.3967 55.8924C50.6624 65.9986 60.1576 76.2817 70.903 86.7313C71.5952 87.3974 72.3081 88.0115 73.0314 88.5735C73.6306 89.0315 74.4882 88.9378 74.9738 88.3446C76.9162 86.0028 78.6624 83.4216 80.5532 81.3088C89.7487 71.0465 99.2542 60.753 107.2 49.4707C111.715 43.049 114.67 36.1068 116.065 28.6443C117.263 22.2434 116.127 16.571 112.665 11.6064V11.6377ZM43.4506 15.7176C41.2705 18.8816 39.886 21.3171 39.39 25.5011C39.2867 26.365 38.8114 27.8429 37.7886 27.9574C36.9103 28.0407 36.5074 27.4474 36.4867 26.6148C36.3111 22.0248 39.1731 17.3621 42.0764 13.9795C42.3657 13.6464 42.841 13.5944 43.1819 13.8546C43.5332 14.1148 43.6882 14.5311 43.6572 15.1139C43.6365 15.3325 43.5745 15.5407 43.4506 15.728V15.7176ZM85.5229 49.6893C81.2557 55.2367 76.8026 60.5864 72.1635 65.7176C71.9982 65.8945 71.7192 65.8841 71.5746 65.6968C67.7207 60.7842 63.8668 55.8508 60.0233 50.8862C56.2314 45.9944 48.255 35.8779 52.0469 29.2064C55.5495 23.0448 61.4491 27.8741 64.2181 31.4337C66.4292 34.2646 68.6609 37.283 70.9236 40.499C71.2749 40.9882 72.0292 40.9153 72.2771 40.3533C74.6742 34.7954 83.0329 21.3067 90.6166 27.3954C97.8181 33.1822 89.3561 44.7143 85.5229 49.6997V49.6893ZM107.231 18.1531C106.828 18.278 106.497 18.1739 106.218 17.8512C103.284 14.2397 100.194 12.3454 95.576 12.4079C94.8114 12.4079 94.3672 12.0436 94.2329 11.2942C94.2329 11.2109 94.2122 11.1277 94.1915 11.0444C94.1089 10.5552 94.4292 10.0765 94.9148 9.9932C100.019 9.13974 103.997 10.6905 106.859 14.6248C107.22 15.1243 107.489 15.6656 107.644 16.2692C107.933 17.3516 107.789 17.9761 107.22 18.1635L107.231 18.1531Z" fill="black"/>
</g>
<defs>
<clipPath id="clip0_2249_735">
<rect width="140" height="100" fill="white" transform="translate(0.5 0.542969)"/>
</clipPath>
</defs>
</svg>
