<svg width="120" height="160" viewBox="0 0 120 160" fill="none" xmlns="http://www.w3.org/2000/svg">
<g clip-path="url(#clip0_2086_164)">
<path d="M118.694 154.255C112.84 149.458 107.454 145.06 102.538 141.041C101.386 140.103 100.59 139.106 100.162 138.049C99.9168 137.44 99.9882 136.872 100.376 136.343C111.391 121.314 115.645 104.609 113.136 86.2182C112.758 83.4755 112.075 81.6006 111.075 80.5933C103.66 73.0535 98.3766 83.0068 96.714 88.7813C93.2053 100.959 90.6248 113.744 88.9826 127.128C88.9316 127.527 88.7888 127.567 88.544 127.238C85.0455 122.501 81.4756 117.773 77.8547 113.076C76.7531 111.65 76.5797 110.134 77.3243 108.548C84.1581 94.1369 86.3307 78.4091 83.8318 61.3749C83.1994 57.0765 80.4352 51.4017 75.4272 51.6311C71.3473 51.8306 69.5011 55.8398 68.8075 59.3404C66.3902 71.6174 66.278 83.6052 66.2984 96.7698C66.2984 97.2385 66.1556 97.2884 65.87 96.9194C61.0659 90.6861 56.7412 84.2534 52.8959 77.6213C50.8152 74.0309 49.6728 70.1613 49.479 66.0125C48.714 49.826 48.1632 33.4599 45.8581 17.433C45.1951 12.8154 43.451 4.12877 39.3507 1.31633C34.8424 -1.77536 30.0485 0.927375 29.0999 5.80427C28.5185 8.75634 28.2635 12.4364 28.3247 16.8446C28.4471 26.0698 29.2529 34.6966 30.7523 42.725C31.1297 44.7995 30.8645 44.8892 29.9363 42.9843C24.6018 32.0537 18.8594 21.5519 12.6885 11.469C11.0464 8.77628 6.48708 5.58486 3.35576 8.19784C1.7544 9.53424 0.775226 11.0402 0.418234 12.7057C-0.326347 16.2462 -0.0305543 20.2554 0.948621 23.9256C5.50791 40.9698 14.3103 55.5107 27.3354 67.5483C31.9762 71.8368 37.4739 75.1878 43.8284 77.6013C44.5933 77.8905 45.2155 78.4091 45.6949 79.1472C48.1122 82.8372 50.2644 86.5772 52.1615 90.377C52.4063 90.8657 52.2839 90.9853 51.7944 90.746C42.38 86.1284 32.2312 80.703 21.3481 74.4797C17.105 72.0562 10.1488 70.8495 8.68003 76.9331C8.32304 78.4391 8.69023 80.5334 9.7816 83.1963C14.2491 94.0471 25.938 102.275 36.8721 105.925C45.5419 108.827 54.6197 110.204 64.1156 110.054C66.125 110.024 67.7468 111.031 68.9605 112.517C72.9996 117.454 76.8347 122.65 80.4658 128.126C80.6596 128.415 80.5882 128.524 80.2414 128.455C73.0404 126.989 65.1662 125.802 56.6086 124.874C49.2444 124.076 41.5232 127.966 45.6643 136.443C47.4085 140.024 50.5398 142.477 55.0481 143.783C66.7982 147.204 79.7009 145.539 91.5428 141.958C92.8789 141.559 94.0111 141.829 94.9291 142.766C100.794 148.76 107.21 154.295 114.196 159.382C115.451 160.299 117.205 160.179 118.327 159.102L118.868 158.584C120.428 157.078 120.377 155.632 118.694 154.255ZM34.6486 65.9726C30.4157 61.7838 26.5704 57.3956 23.1025 52.8079C17.0438 44.7995 12.2397 35.2352 8.82282 25.9402C7.81305 23.1975 7.16027 20.0061 6.84407 16.3659C6.74208 15.199 7.10927 15.0295 7.95585 15.8573C8.89422 16.7648 9.8122 18.1112 10.72 19.8964C15.2181 28.7626 19.5836 37.2298 23.7961 45.2782C26.6622 50.7535 29.9975 56.119 33.802 61.3949C34.6894 62.6216 35.3524 63.9281 35.7808 65.3143C36.3009 67.0198 35.9235 67.2392 34.6486 65.9726ZM43.0634 59.6894C42.992 60.2779 42.839 60.2978 42.6248 59.7493C41.4314 56.6875 40.4318 53.6158 39.6363 50.5141C36.8823 39.7431 35.179 28.4434 34.5262 16.6052C34.3936 14.1917 34.5262 10.4219 35.9338 8.37735C36.2805 7.86872 37.0761 7.96845 37.2801 8.5469C38.4735 11.7782 39.2793 15.1492 39.7179 18.6497C41.1968 30.6176 42.3596 42.8547 43.1858 55.3711C43.2878 56.8172 43.247 58.2533 43.0634 59.6894ZM58.3732 103.033C49.6932 102.564 41.7476 100.679 34.5262 97.3881C27.5598 94.2167 18.9104 87.4748 16.2992 79.8852C16.2176 79.6558 16.4522 79.4464 16.6868 79.5361C17.8802 80.0148 19.0328 80.5933 20.1649 81.2615C28.1513 86.0187 34.975 89.7487 40.6358 92.4514C46.8475 95.4334 52.7429 98.6248 58.3018 102.026C58.5466 102.175 58.6996 102.345 58.7608 102.524C58.8526 102.784 58.6486 103.043 58.3732 103.033ZM72.9996 100.111C72.816 100.051 72.7242 99.8615 72.7242 99.5424C72.8772 90.2573 73.224 81.1617 73.7748 72.2557C74.0094 68.4758 74.4786 64.6362 75.1722 60.7167C75.2436 60.3277 75.6414 60.0784 76.029 60.1781C76.5083 60.3078 76.8449 60.617 77.0183 61.1056C78.0383 63.8682 78.5789 67.3289 78.6299 71.4778C78.7625 81.4011 77.0897 90.8557 73.6116 99.8316C73.5198 100.071 73.2444 100.191 72.9996 100.111ZM80.6596 137.72C74.0502 139.246 67.3898 139.465 60.6681 138.378C57.7 137.899 54.1403 136.573 52.4777 134.109C51.7026 132.953 52.5083 131.417 53.9261 131.357C57.0676 131.237 60.0867 131.486 62.9937 132.095C68.8585 133.332 74.7336 134.528 80.6188 135.675C83.842 136.304 83.8522 136.982 80.6596 137.72ZM97.2444 129.322C96.4998 130.429 96.1938 130.33 96.306 129.003C97.3566 116.946 99.468 104.858 102.62 92.7506C103.211 90.4767 104.19 88.4222 105.567 86.5971C105.924 86.1284 106.679 86.288 106.802 86.8564C107.607 90.5066 107.75 94.2566 107.23 98.1162C106.118 106.474 103.803 114.881 100.294 123.348C99.2742 125.802 98.2542 127.796 97.2444 129.322Z" fill="black"/>
</g>
<defs>
<clipPath id="clip0_2086_164">
<rect width="120" height="160" fill="white"/>
</clipPath>
</defs>
</svg>
