<svg width="100" height="100" viewBox="0 0 100 100" fill="none" xmlns="http://www.w3.org/2000/svg">
<g clip-path="url(#clip0_2250_824)">
<path d="M45.3421 56.7098C46.243 46.2463 46.0992 36.7586 41.1634 27.5056C38.6524 22.8041 34.8667 18.2996 29.7871 13.9921C24.6022 9.60023 20.6344 6.77553 17.8933 5.53679C14.0022 3.76314 10.3507 2.11149 6.95794 0.591216C6.16246 0.225225 5.38615 0.0281532 4.62901 0C4.37983 0 4.16898 0.15015 4.11147 0.38476C2.49177 7.43243 1.24584 14.4801 0.383275 21.5278C-2.12775 42.0608 7.68632 60.0131 27.0269 68.5905C28.5029 69.2474 31.081 70.2234 34.7804 71.5278C37.2244 72.3911 39.237 73.9865 40.8088 76.3044C41.2305 76.9332 41.9014 77.4024 42.5914 77.5432C43.1377 77.6558 43.5882 77.1209 43.3869 76.6141C42.5819 74.6528 41.3072 71.7342 42.0739 69.6415C43.9524 64.527 45.045 60.2196 45.3517 56.7192L45.3421 56.7098ZM33.5441 21.1149C33.5728 21.021 33.6974 21.0023 33.7549 21.0773C35.3267 22.8604 36.7643 24.7935 38.039 26.8863C38.4799 27.6182 38.4703 28.5285 37.9911 29.2417C36.7452 31.1186 35.5088 33.0706 34.2725 35.0976C33.1128 36.9932 32.394 38.964 31.5314 41.0661C31.5027 41.1505 31.3877 41.1599 31.3398 41.0848C30.2951 39.1329 29.49 37.0402 28.9342 34.8161C28.8671 34.5815 28.8862 34.3468 28.9629 34.1122L33.5345 21.1243L33.5441 21.1149ZM26.7298 14.9024C26.8353 14.6866 27.1324 14.6396 27.3049 14.8086L31.7902 19.1348C32.2119 19.5383 32.3557 20.1577 32.1544 20.7113C31.1193 23.4797 29.6434 26.1543 28.3016 28.8758C27.5445 30.4336 27.324 31.8506 27.6595 33.1456C27.717 33.3521 27.6595 33.3896 27.4966 33.2395C27.4007 33.1644 27.3432 33.0518 27.3145 32.9392C27.2857 32.8078 27.2282 32.6952 27.1419 32.592C25.5127 30.5743 24.7747 28.613 24.9472 26.7173C25.2443 23.2357 25.6852 19.8104 26.2602 16.4321C26.3561 15.8408 26.519 15.3341 26.7298 14.9024ZM19.6376 9.45008C19.6376 9.27177 19.8581 9.18731 20.0018 9.29992L25.0622 13.4009C25.1197 13.4478 25.1581 13.5323 25.1389 13.6167L22.6758 25.0751C22.6374 25.2721 22.3691 25.3191 22.2637 25.1408L19.2255 19.8667C19.2255 19.8667 19.1968 19.7917 19.1968 19.7447L19.6376 9.45946V9.45008ZM6.95794 2.79655C8.06969 3.43468 9.17185 4.11036 10.274 4.84234C11.0312 5.33971 11.9608 5.68694 13.0438 5.89339C14.606 6.18431 16.0436 6.86937 17.3566 7.96734C17.5483 8.12688 17.6442 8.34272 17.6346 8.58671L17.2991 17.4737C17.2895 17.8773 17.1554 17.9148 16.9158 17.5957C15.3248 15.503 13.1301 12.9035 12.1717 10.3791C12.0854 10.1633 12.0758 9.93806 12.1333 9.70345C12.4688 8.53979 12.4304 7.37613 12.0183 6.21246C11.9512 6.03416 11.8362 5.96847 11.6541 6.02478L11.472 6.08108C11.472 6.08108 11.3954 6.13739 11.4049 6.18431C11.6062 7.30105 11.6925 8.25826 11.6733 9.05593C11.6445 9.90991 11.3666 10.0038 10.8203 9.32808C9.28686 7.43243 7.95468 5.57432 6.82376 3.73499C6.66083 3.46284 6.59374 3.20946 6.63208 2.95608C6.65125 2.80593 6.82376 2.73086 6.95794 2.80593V2.79655ZM5.68326 7.30105C5.80785 6.95383 6.27747 6.89752 6.48832 7.20721C8.86516 10.6607 11.1653 14.6772 14.0981 17.774C14.146 17.8209 14.146 17.8679 14.0981 17.9242C14.0501 17.9711 14.0022 17.9805 13.9447 17.9429C12.2483 16.601 10.7724 14.8555 9.15268 13.673C8.27095 13.0349 7.37963 12.4062 6.47873 11.7962C6.26788 11.6554 6.04745 11.5991 5.79826 11.6179L5.43407 11.646C5.18489 11.6648 5.06029 11.5616 5.05071 11.3176C5.00279 9.89114 5.21364 8.54917 5.68326 7.31044V7.30105ZM4.63859 13.7106C4.6961 13.4572 4.84944 13.3821 5.07946 13.4947C9.91941 15.7095 14.1556 18.9565 17.8071 23.2357C18.6313 24.2117 18.478 24.4088 17.3183 23.8363C16.1011 23.2264 14.6156 22.7759 12.8521 22.4568C11.9991 22.2973 11.9512 22.4287 12.718 22.8416C15.1235 24.1273 18.7942 25.8071 20.4331 28.003C20.8165 28.5191 20.6823 28.6974 20.0593 28.5379C14.6731 27.2335 9.48812 25.5068 4.50442 23.3671C3.8527 23.0856 3.45017 22.4474 3.47892 21.753C3.60352 19.1441 3.98688 16.4696 4.62901 13.72L4.63859 13.7106ZM3.24891 25.4974C3.25849 25.2252 3.54601 25.0657 3.80478 25.1783C8.62556 27.3086 13.8776 29.2605 19.5801 31.0248C22.4649 31.9257 24.4488 33.9527 25.5127 37.0965C25.8769 38.1851 26.4231 39.161 27.1515 40.0619C27.4007 40.3622 27.3432 40.4561 26.9599 40.3247C24.9089 39.6303 22.9154 39.0203 20.6248 38.6167C15.3056 37.6877 10.1398 36.205 5.14655 34.1779C4.16898 33.7744 3.6131 33.0706 3.46934 32.0571C3.16265 29.8048 3.07639 27.6182 3.23932 25.488L3.24891 25.4974ZM3.91979 36.2894C3.90062 36.158 4.02522 36.0548 4.14981 36.1111C7.47547 37.5938 10.9449 38.795 14.5293 39.7053C17.4141 40.4279 20.2702 41.235 23.1166 42.1077C26.6148 43.1963 29.0013 45.2234 30.2855 48.2076C30.3047 48.2545 30.2855 48.3014 30.2376 48.3202L30.0747 48.3953C29.9117 48.4703 29.7967 48.4234 29.7201 48.2639C28.9821 46.6685 27.8416 45.4955 26.3177 44.7635C25.8193 44.5195 25.781 44.5758 26.2027 44.9418L28.3304 46.7342C28.5125 46.8938 28.6371 47.0908 28.6754 47.3348C28.7808 47.9073 29.0588 48.3484 29.5092 48.6768C29.6626 48.78 29.6626 48.902 29.5284 49.0334C29.4613 49.0991 29.375 49.1085 29.2888 49.0709C25.9152 47.851 22.8291 47.0345 20.0018 46.631C19.906 46.6216 19.8101 46.6967 19.791 46.7905L19.7718 46.997C19.7526 47.2035 19.8389 47.3348 20.0498 47.3818C24.1421 48.2639 26.9023 49.1085 28.3208 49.8968C29.1929 50.3848 29.9309 50.6381 30.5443 50.6663C30.6401 50.6663 30.7168 50.7038 30.7839 50.7601C30.8797 50.854 30.9181 50.9666 30.8989 51.098C30.8797 51.2106 30.7935 51.3044 30.688 51.3326L30.4293 51.3983C30.0363 51.5109 30.0267 51.6423 30.4005 51.8112C30.5826 51.8956 30.736 51.9332 30.8414 51.9144C31.081 51.8863 31.2343 51.9801 31.3014 52.1959C31.4931 52.7965 31.8477 53.3784 32.3461 53.9508C32.4419 54.0541 32.3461 54.2136 32.1927 54.1854C27.487 53.1344 22.7141 52.2898 17.9125 51.6423C16.9829 51.5109 14.7689 50.9197 11.2708 49.8592C6.63208 48.4422 4.61943 40.6156 3.91979 36.327V36.2894ZM36.218 68.8532C26.059 65.3247 17.0404 61.3082 10.7341 52.2616C10.3794 51.7455 10.4849 51.6141 11.0695 51.8487C13.6189 52.8998 16.0244 53.5473 19.0626 54.0353C22.8387 54.6453 26.519 55.6025 30.113 56.9163C31.5027 57.423 32.6528 58.2301 33.5633 59.3375C33.7166 59.5158 33.8029 59.7222 33.8412 59.9475C33.9179 60.5105 34.1671 61.1299 34.5983 61.7962C34.9913 62.4249 35.4609 63.598 35.9976 65.3059C36.103 65.6438 35.9976 65.7188 35.7005 65.5405C34.6846 64.9306 33.6016 64.4613 32.4419 64.161C31.5027 63.917 30.3814 63.4854 29.0779 62.8754C27.5157 62.134 25.9535 61.6554 24.4009 61.4114C23.7492 61.3176 23.7109 61.4114 24.2955 61.7305C27.8224 63.5886 31.4356 65.3153 35.1255 66.8919C35.7868 67.1734 36.4385 67.7271 36.7164 68.3183C36.8602 68.628 36.5535 68.9471 36.2276 68.8438L36.218 68.8532ZM36.6781 54.0728C36.611 54.0728 36.5439 54.0447 36.4768 53.979C36.4289 53.9321 36.4097 53.8758 36.4097 53.8101C36.4672 53.3784 36.4289 52.9561 36.2947 52.5619C36.2276 52.3555 36.0935 52.2147 35.9018 52.1396C35.7484 52.074 35.6526 51.9707 35.5855 51.83C34.4546 49.1179 33.6399 46.4245 33.1416 43.75C33.0745 43.3746 33.1224 42.9993 33.2853 42.652L39.1699 29.9643C39.2466 29.7954 39.5054 29.7954 39.5725 29.9643C41.518 34.7128 42.9844 39.7429 42.4669 44.9137C42.4477 45.1483 42.3327 45.3266 42.1314 45.458C41.6139 45.7864 41.2018 45.9272 40.9046 46.4996C39.63 48.9959 38.3074 51.464 36.956 53.9227C36.8985 54.0259 36.8123 54.0728 36.6877 54.0728H36.6781ZM40.1475 65.7188C40.0229 66.0473 39.9079 66.0473 39.8217 65.7001L37.2148 56.5315C37.1381 56.2406 37.1765 55.9403 37.3394 55.6869C39.0645 52.9279 41.2113 49.6903 41.9781 46.6404C42.3423 45.1952 42.5435 45.214 42.601 46.7061C42.8502 53.4253 42.7352 58.765 40.1475 65.7188Z" fill="black"/>
<path d="M19.4844 32.742C19.4077 32.8734 18.9573 32.7608 18.4685 32.498C17.9797 32.2447 17.6347 31.9256 17.7114 31.8036C17.788 31.6722 18.2385 31.7848 18.7273 32.0476C19.2161 32.301 19.5611 32.62 19.4844 32.742Z" fill="black"/>
<path d="M22.1584 34.497C22.12 34.6847 21.4396 34.6941 20.6441 34.5252C19.8486 34.3563 19.2352 34.0654 19.2831 33.8777C19.3215 33.69 20.0019 33.6806 20.7974 33.8495C21.5929 34.0184 22.2063 34.3093 22.1584 34.497Z" fill="black"/>
<path d="M21.6599 35.7359C21.7365 35.8673 21.7845 36.0081 21.794 36.1582C21.8036 36.3553 21.727 36.421 21.5353 36.3459C21.1711 36.1958 21.0177 35.7922 21.0752 35.1447C21.1136 34.8257 21.2094 34.7975 21.3819 35.0696C21.5065 35.2573 21.5065 35.4919 21.6695 35.7359H21.6599Z" fill="black"/>
<path d="M25.1006 37.3215C24.9952 37.6124 24.2284 37.6124 23.3754 37.3215C22.5321 37.0306 21.9283 36.5613 22.0337 36.2704C22.1391 35.9795 22.9058 35.9795 23.7588 36.2704C24.6022 36.5613 25.206 37.0306 25.1006 37.3215Z" fill="black"/>
<path d="M38.1253 48.8268C38.0966 48.9206 37.9816 48.9769 37.8762 48.9488H37.8474C37.742 48.9019 37.6941 48.7986 37.7228 48.6954L39.6396 43.1962C39.6684 43.1023 39.7834 43.046 39.8888 43.0742H39.9176C40.023 43.1211 40.0709 43.2243 40.0422 43.3275L38.1253 48.8268Z" fill="black"/>
<path d="M37.2148 49.981C37.4832 50.5253 37.3586 51.1634 36.841 51.886C36.611 52.2145 36.4768 52.177 36.4289 51.7828C36.3522 51.0414 36.3522 50.4784 36.4385 50.0749C36.6014 49.3241 36.8602 49.2866 37.2052 49.981H37.2148Z" fill="black"/>
<path d="M33.5634 60.2946C33.5347 60.3885 33.4197 60.4448 33.3238 60.4072L25.1295 57.5168C25.0336 57.4793 24.9761 57.3761 25.0144 57.2822L25.1774 56.8412C25.2061 56.7473 25.3211 56.691 25.417 56.7286L33.6113 59.6189C33.7072 59.6565 33.7647 59.7597 33.7264 59.8536L33.5634 60.2946Z" fill="black"/>
<path d="M31.4454 61.6461C32.3846 62.1716 33.3335 62.5939 34.311 62.9036C34.474 62.9599 34.5315 63.0631 34.4548 63.2226L34.3589 63.4291C34.3206 63.5136 34.2631 63.5323 34.1768 63.4948L31.3687 62.0684C31.2633 62.0121 31.2441 61.937 31.3016 61.8244L31.3975 61.6554C31.3975 61.6554 31.4358 61.6273 31.455 61.6367L31.4454 61.6461Z" fill="black"/>
<path d="M99.0032 19.6977C98.2077 19.7634 97.5847 20.2514 96.9426 20.4766C81.2151 26.1542 65.3823 32.7045 56.6416 47.8415C50.5174 58.4552 46.9426 71.6121 48.9936 83.7837C49.4536 86.4957 49.8657 89.2172 50.2491 91.9481C50.6037 94.5194 49.7507 96.8655 47.7093 98.977C47.5751 99.1084 47.5368 99.3054 47.5847 99.4837C47.6805 99.784 47.8914 99.953 48.2173 99.9905C48.754 100.037 49.2044 99.8591 49.5782 99.4743C51.7921 97.1283 53.2872 94.5288 56.5841 93.5528C60.1877 92.5018 64.2514 91.1504 68.775 89.5081C76.8448 86.5614 83.1895 81.6252 87.8281 74.6902C92.6585 67.4642 95.6391 59.6846 96.7605 51.3606C97.2972 47.3535 97.901 40.5123 98.5431 30.8182C98.639 29.2228 99.0702 27.7307 99.1565 26.004C99.2332 24.3899 99.4919 22.6444 99.9424 20.7581C100.134 19.9792 99.8178 19.6132 99.0032 19.6883V19.6977ZM84.1862 28.9789C84.2054 28.5847 84.4354 28.2375 84.7996 28.0592C86.4289 27.2334 88.1732 26.5952 90.0037 26.126C90.3104 26.0509 90.3775 26.1354 90.205 26.3888C89.975 26.736 89.6108 26.9049 89.1028 26.9049C88.8824 26.9049 88.7578 27.0175 88.729 27.2334L88.4511 29.4011C88.4319 29.5419 88.4511 29.5513 88.5182 29.4199L89.3999 27.6275C89.5054 27.4117 89.6779 27.2521 89.9079 27.1677C90.4158 26.98 90.828 26.6797 91.1251 26.248C91.2592 26.0603 91.4317 25.9195 91.633 25.8163L94.9683 24.1647C95.2941 24.0051 95.4666 24.1084 95.4858 24.4556C95.505 24.6902 95.4858 24.9248 95.4091 25.1594C95.3612 25.3377 95.112 25.3659 95.0258 25.2063C94.9491 25.075 94.8245 25.0186 94.6616 25.0562C94.5466 25.075 94.4603 25.1313 94.3932 25.2251C94.0674 25.6662 93.6744 25.9946 93.224 26.2198C93.0131 26.3231 92.8406 26.4638 92.716 26.6515C91.9589 27.7026 91.2113 28.6973 90.4733 29.6264C88.9207 31.5783 87.8186 33.84 86.3426 35.9421C85.5376 37.0776 85.5951 38.0817 85.3746 39.3298C85.2405 40.0806 85.0967 40.0806 84.9529 39.3298C84.2629 35.9608 84.0137 32.498 84.2054 28.9695L84.1862 28.9789ZM94.8149 27.3178L90.09 32.8921C89.975 33.0235 89.7737 33.0517 89.6299 32.9297L89.6012 32.9015C89.467 32.7889 89.4478 32.5918 89.5629 32.4511L94.2878 26.8768C94.4028 26.7454 94.6041 26.7172 94.7478 26.8392L94.7766 26.8674C94.9108 26.98 94.9299 27.1771 94.8149 27.3178ZM76.0589 33.0611C77.9662 31.6628 80.0459 30.2927 82.3269 28.9695C82.3461 28.9507 82.3844 28.9695 82.3844 28.9976C82.6815 33.7461 82.7103 37.8752 82.4515 41.3662C82.3269 43.0648 81.5314 45.1012 80.0555 47.4661C79.7871 47.8884 79.6434 47.8509 79.5954 47.3629C79.5092 46.415 79.7392 45.3828 80.2951 44.2754C80.4101 44.0502 80.4293 43.8156 80.3622 43.5716L80.0651 42.4642C79.998 42.2296 79.9884 42.0044 80.0076 41.7698C80.113 40.7375 79.9692 39.677 79.5859 38.5697C79.4709 38.2506 79.3463 38.2506 79.2217 38.5697C79.0587 38.9826 79.0587 39.3767 79.2312 39.7615C79.3271 39.9774 79.3271 40.1744 79.2217 40.3809C78.8 41.1879 78.7808 42.0138 79.1546 42.8396C79.2504 43.046 79.2792 43.2713 79.2504 43.5059C78.9725 45.5329 78.5987 47.5224 78.1099 49.4837C78.0907 49.587 78.0716 49.587 78.0524 49.4837C77.5445 46.1523 77.0173 43.046 76.4902 40.1463C76.2219 38.6823 76.0398 36.3925 75.9439 33.2769C75.9439 33.1831 75.9823 33.1174 76.0493 33.0704L76.0589 33.0611ZM66.8391 40.9909C66.9828 38.26 71.4969 35.2007 73.6629 33.8306C74.075 33.5678 74.2571 33.671 74.1996 34.1496C74.1805 34.281 74.1996 34.4781 74.2188 34.7596C74.5063 38.2319 74.8705 41.6947 75.3018 45.1481C75.7139 48.3951 75.8002 51.1354 75.5797 53.3689C75.4743 54.4199 74.9472 55.4334 73.9984 56.4469C73.845 57.3572 73.4233 58.1455 72.7141 58.8024C72.5032 58.9995 72.417 58.9526 72.4362 58.671L73.0591 52.1864C73.0783 51.9612 73.0591 51.7454 72.9824 51.5201L70.7398 45.2326C70.6919 45.12 70.6152 45.0825 70.5098 45.1012L70.3277 45.1481C70.2318 45.1669 70.1935 45.2326 70.2127 45.3264C70.7781 47.7289 71.2573 49.9717 71.6407 52.0644C71.9665 53.8287 71.9761 56.1091 71.679 58.9057C71.5736 59.9004 71.1231 60.7544 70.5864 61.5333C70.1456 62.162 69.8964 62.087 69.8389 61.3362C69.5226 57.0757 68.7655 52.3929 67.5483 47.269C66.9924 44.9229 66.7528 42.8396 66.8487 40.9909H66.8391ZM70.7781 68.6279C72.0815 67.361 73.7013 66.1879 75.6276 65.09C77.3049 64.1515 79.7105 62.406 82.8636 59.8347C82.9115 59.7878 82.9594 59.7972 83.017 59.8535L83.1511 60.0036C83.3141 60.1913 83.3045 60.3602 83.1032 60.5198C81.9531 61.4864 80.0363 62.6406 79.2025 63.8231C78.9341 64.2078 78.6658 64.4706 78.407 64.5926C75.8097 65.8126 73.3371 67.2484 71.0177 68.9C70.9315 68.9657 70.8548 68.9469 70.7781 68.8719C70.7014 68.7874 70.7014 68.7123 70.7781 68.6373V68.6279ZM54.4661 61.0265C54.6961 59.4875 55.0794 58.0611 55.6066 56.7472C57.1496 52.956 58.6926 49.9811 60.2261 47.8039C61.6253 45.8332 62.9575 43.8156 64.2226 41.7416C64.5772 41.1692 64.8072 41.2067 64.8935 41.873C65.3631 45.1106 66.0819 48.9582 67.0499 53.4252C67.8166 56.9162 68.1904 60.1256 68.1904 63.0629C68.1904 65.1557 67.9221 65.1838 67.3949 63.1568C66.5803 60.0693 65.5931 56.4657 64.4622 52.3554C64.3089 51.8017 64.1651 51.4357 63.9926 51.248C63.293 50.4222 63.063 50.5254 63.3313 51.5764C63.3505 51.6421 63.4367 51.8111 63.6092 52.0926C63.7147 52.2709 63.7818 52.4492 63.8201 52.6369C64.213 55.0393 64.6156 57.4698 65.0181 59.9098C65.5452 63.0723 66.3024 65.4747 67.2895 67.117C67.2991 67.1358 67.2895 67.1639 67.2704 67.1827L67.1074 67.2765C67.002 67.3422 66.9157 67.3141 66.8582 67.2108C65.1714 64.5926 63.9351 61.796 63.1684 58.84C62.4975 56.2968 61.6828 54.3448 60.849 52.0363C60.8107 51.9237 60.734 51.8861 60.619 51.9237L60.3602 52.0081C60.3123 52.0269 60.2932 52.0551 60.3027 52.1114C61.6924 57.3291 63.1492 62.4154 64.6827 67.3798C64.8839 68.0273 64.8264 68.8343 64.7593 69.5006C64.7402 69.7352 64.7785 69.9511 64.8935 70.1575C65.1331 70.5704 65.2194 71.0209 65.1906 71.4901C65.1714 71.659 65.0852 71.7341 64.9127 71.7341C64.836 71.7341 64.7593 71.706 64.6922 71.6496C64.6539 71.6121 64.6156 71.5558 64.5964 71.462C64.5006 71.0866 64.328 70.7112 64.0597 70.3358C63.868 70.0731 63.7434 70.1012 63.6955 70.4203C63.5901 71.0303 63.5997 71.6403 63.6955 72.269C63.7338 72.4567 63.6572 72.5975 63.4655 72.6538C63.3984 72.6725 63.3121 72.6819 63.2355 72.6632C63.1013 72.6444 63.0246 72.6819 62.9767 72.8039C62.6317 73.6391 62.4496 74.1177 61.8458 74.9248C61.1557 75.8351 61.3666 76.9987 60.4273 77.8058C60.2165 77.9935 60.1494 77.956 60.2644 77.6932C60.4178 77.3178 60.4273 76.98 60.3027 76.6609C58.683 72.1658 56.91 67.9522 55.0028 64.0108C54.5044 62.9879 54.3223 61.9931 54.4756 61.0265H54.4661ZM53.5172 88.5791C53.5172 88.5791 53.4406 88.6166 53.431 88.5791C51.1787 80.4334 51.1691 72.3535 53.3926 64.3298C53.4981 63.9451 53.6322 63.9451 53.776 64.3017C55.6353 68.7029 57.1783 73.9113 58.3763 79.9173C58.3955 80.0111 58.3764 80.0956 58.3284 80.1707L53.5172 88.5885V88.5791ZM86.5918 70.8426C84.7325 73.8456 83.4387 75.8163 82.739 76.7454C80.1897 80.0862 75.8864 82.6951 71.6503 84.7878C69.5609 85.8295 67.232 86.6834 64.6635 87.3497C62.4879 87.9128 60.0536 88.7386 57.3796 89.8178C57.2742 89.8647 57.1879 89.8366 57.1496 89.724L57.0729 89.5175C57.0729 89.5175 57.0729 89.4612 57.1113 89.4424C58.7885 88.8137 60.0248 88.0254 60.8299 87.0588C61.2899 86.5051 61.8937 86.0359 62.6413 85.6699C65.5069 84.2435 68.4971 82.376 71.6023 80.0768C71.6503 80.0393 71.6598 79.9924 71.6215 79.9454C71.5832 79.8985 71.5448 79.8798 71.4873 79.9079C69.5322 80.9683 67.5866 82.0382 65.6506 83.1174C65.1714 83.3895 64.5485 83.6523 63.8105 83.9244C62.1525 84.5344 60.7628 85.6136 59.3348 86.4957C57.7726 87.4529 57.5809 87.2371 58.7501 85.8388C61.7883 82.1883 65.8711 78.3407 70.3181 76.3137C72.0336 75.5348 73.845 74.8122 75.7427 74.1365C78.3016 73.2356 80.8605 72.2972 83.4099 71.3212C83.9754 71.1054 84.1191 71.2649 83.8508 71.7998C83.8412 71.828 83.8028 71.8936 83.7358 71.9781C83.6591 72.1095 83.6878 72.1376 83.8316 72.0907C84.905 71.6966 85.2213 70.7769 86.4097 70.5892C86.6589 70.5423 86.726 70.6267 86.5918 70.8426ZM92.7831 55.5273C92.2368 59.5156 90.7321 65.6624 87.0039 67.6237C84.1479 69.1252 81.1768 70.242 78.1003 70.9834C75.6756 71.5558 73.4904 72.4286 71.1902 73.2731C70.9506 73.367 70.9027 73.3107 71.0561 73.1042C71.564 72.4098 72.1295 71.9593 72.7524 71.7341C77.209 70.12 81.934 68.5153 85.7867 65.9439C88.1828 64.3486 88.0773 64.1797 85.4992 65.4653C79.4613 68.459 72.3787 70.1294 67.0595 74.4462C66.7911 74.662 66.7241 74.6151 66.8678 74.3054C67.347 73.2168 68.2767 72.7195 68.9859 71.8092C69.5609 71.0678 70.0306 70.5329 70.4139 70.2138C71.7461 69.0971 72.9537 68.2619 74.0367 67.6894C75.8097 66.751 77.3432 65.8407 78.6179 64.9304C78.9437 64.6958 79.2792 64.4518 79.605 64.1984C82.3556 62.0494 85.5759 59.7315 89.2466 57.2446C90.3488 56.4939 91.4317 55.8557 92.486 55.3302C92.7256 55.2082 92.8214 55.2739 92.7831 55.5367V55.5273ZM93.4252 46.3024H93.9332C94.2015 46.3024 94.3453 46.4338 94.3645 46.6966C94.4699 48.0761 94.4124 49.4556 94.1728 50.8445C93.9044 52.4117 92.7735 53.2093 91.4126 53.763C86.9464 55.6024 82.4994 57.4698 78.062 59.3843C76.3464 60.1256 75.1964 61.0453 73.8833 62.2465C73.8354 62.2934 73.7779 62.284 73.73 62.2465C73.6821 62.209 73.6821 62.1526 73.73 62.0963C74.928 60.9796 75.9631 59.7784 76.864 58.5209C77.2378 58.0048 77.6786 57.1132 78.2058 55.8557C79.1067 53.6973 80.9851 52.5806 82.5953 51.1166C85.9401 48.0573 89.8408 45.9552 94.1728 44.3974C94.4316 44.3036 94.6903 44.5382 94.6232 44.8009C94.4507 45.4203 94.0482 45.8332 93.4156 46.0303C92.8789 46.2086 92.8789 46.293 93.4156 46.3024H93.4252ZM94.7382 40.043C94.7382 40.6906 94.4795 41.2255 93.9907 41.6572C92.831 42.6707 91.7864 43.4214 90.8759 43.9188C87.464 45.7581 84.5216 47.635 82.049 49.5307C81.6368 49.8403 81.5698 49.7747 81.8189 49.343C82.509 48.1699 83.4674 47.1376 84.6942 46.2274C85.8634 45.364 86.5822 44.5475 87.5023 43.5716C87.6652 43.3933 87.8665 43.2994 88.0965 43.2994C88.7961 43.2807 89.4383 43.0554 89.9941 42.6425C90.1858 42.5017 90.3967 42.4079 90.6363 42.3704C91.6809 42.1827 92.4668 41.6759 92.9748 40.8689C93.1665 40.5498 93.1377 40.531 92.8885 40.8032C92.0355 41.6853 91.1442 42.1358 90.2242 42.1451C89.3999 42.1451 88.5661 42.3047 87.7227 42.5862C86.611 42.971 85.6046 43.6654 84.6942 44.6602C84.6462 44.7165 84.5983 44.7258 84.5408 44.6695C84.4929 44.632 84.4833 44.5851 84.5216 44.5288C84.9146 43.8437 85.4513 43.2431 86.1318 42.7082C89.0549 40.4372 91.7289 37.6688 94.1536 34.3936C94.5945 33.793 94.8245 33.8681 94.8149 34.6095L94.7574 40.043H94.7382ZM95.62 30.2364C94.5945 31.8036 93.2144 33.0141 91.4893 33.8493C89.812 34.6564 88.4415 36.5802 87.2531 37.9597C87.1956 38.0254 87.1381 38.0254 87.0902 37.9597L86.9177 37.7533C86.8602 37.6782 86.8506 37.5749 86.8985 37.4905C88.0102 35.7638 89.4095 34.3655 91.0867 33.2769C92.6202 32.2822 93.8278 30.912 95.1887 29.6827C95.2654 29.6264 95.3612 29.6264 95.4283 29.6827L95.5816 29.8328C95.6871 29.9361 95.7062 30.0956 95.6296 30.2176L95.62 30.2364Z" fill="black"/>
<path d="M74.4201 49.7185C74.0559 47.4475 73.4712 45.1859 72.647 42.9243C72.647 42.8961 72.6183 42.8867 72.5895 42.8867L72.3691 42.943C72.2732 42.9618 72.2349 43.0275 72.2541 43.1213C72.8099 45.8897 73.4233 48.5737 74.075 51.1544C74.1996 51.6236 74.1421 52.1022 73.9121 52.562C73.3562 53.6788 73.1741 54.8049 73.3562 55.9404C73.3946 56.1187 73.4617 56.2407 73.5671 56.3064C73.6725 56.3721 73.8163 56.419 74.0079 56.4565C74.2763 54.1667 74.7747 51.9708 74.4201 49.7185Z" fill="black"/>
<path d="M74.008 56.4473C73.8163 56.4097 73.6726 56.3628 73.5671 56.2971C73.4617 56.2314 73.385 56.1094 73.3467 55.9311C73.155 54.7956 73.3467 53.6695 73.9026 52.5527C74.123 52.0929 74.1805 51.6143 74.0655 51.1451C73.4138 48.5644 72.81 45.8898 72.2445 43.1121C72.2254 43.0182 72.2637 42.9619 72.3595 42.9337L72.58 42.8774C72.58 42.8774 72.6279 42.8774 72.6375 42.915C73.4617 45.1766 74.0559 47.4383 74.4105 49.7093C74.7747 51.9521 74.2668 54.1481 73.9984 56.4473H74.008Z" fill="black"/>
<path d="M89.9752 41.3384C89.8602 41.254 90.0902 40.7566 90.4927 40.2123C90.8952 39.668 91.3073 39.2926 91.4224 39.3771C91.5374 39.4616 91.3073 39.9589 90.9048 40.5032C90.5023 41.0475 90.0902 41.4229 89.9752 41.3384Z" fill="black"/>
<path d="M91.1253 47.4664L79.4423 55.5088C79.3273 55.5839 79.2602 55.5557 79.2315 55.4243L79.1548 54.9926C79.1069 54.7299 79.2219 54.4765 79.4423 54.3264L91.1636 46.6499C91.4128 46.4904 91.6237 46.5186 91.8058 46.7625C92.0166 47.0535 92.285 47.2787 92.6204 47.4382C92.8696 47.5696 92.8696 47.6916 92.6204 47.823C92.352 47.9637 92.1412 47.8981 91.9783 47.6353C91.7578 47.2881 91.4703 47.2318 91.1253 47.4664Z" fill="black"/>
<path d="M90.4544 51.4919C89.9848 52.4116 88.7484 53.2186 86.7358 53.9037C84.4548 54.6826 82.3559 55.5647 80.4295 56.5501C80.1515 56.6909 80.094 56.6439 80.2953 56.3999L80.5637 56.0527C80.6691 55.912 80.8128 55.8087 80.9758 55.7243C83.228 54.7108 85.4803 53.6879 87.7325 52.6462C89.4481 51.8579 90.2244 50.8162 91.269 49.3898C91.6812 48.8361 92.0837 48.6109 92.4958 48.7048C93.1188 48.8549 93.1379 49.0614 92.5533 49.3147C91.7003 49.6995 91.0007 50.4221 90.464 51.4919H90.4544Z" fill="black"/>
<path d="M78.9534 56.1564C78.9822 56.0156 79.0493 55.903 79.1451 55.8185C79.2889 55.6966 79.3559 55.7341 79.3272 55.9218C79.2793 56.4379 79.0588 56.8227 78.6851 57.0761C78.5605 57.1605 78.4455 57.1887 78.3496 57.1511C78.1196 57.0761 78.0908 56.9541 78.2538 56.7945C78.4742 56.5693 78.7138 56.3628 78.963 56.1658L78.9534 56.1564Z" fill="black"/>
<path d="M64.1557 59.7033C63.9448 59.6846 63.8011 59.45 63.8298 59.1778C63.8586 58.9057 64.0407 58.6992 64.2515 58.718C64.4624 58.7368 64.6061 58.9714 64.5774 59.2435C64.5486 59.5157 64.3665 59.7221 64.1557 59.7033Z" fill="black"/>
<path d="M74.7459 80.2086C75.4647 79.2889 76.0014 78.7446 76.356 78.5757C79.1067 77.2713 81.3493 75.4038 83.084 72.9638C83.1415 72.8888 83.2086 72.87 83.2853 72.9263C83.362 72.9826 83.3716 73.0483 83.3141 73.1234C82.049 74.775 80.8989 76.1639 79.0492 77.337C77.5924 78.266 76.1548 79.2232 74.7363 80.2086H74.7459Z" fill="black"/>
<path d="M74.7461 80.2081C73.203 81.2592 71.7175 82.3853 70.2895 83.5677C68.3727 85.1818 65.507 86.5144 61.6926 87.5936C61.5967 87.6218 61.5392 87.5936 61.5105 87.4998L61.4338 87.2558C61.3955 87.1432 61.4338 87.0681 61.5488 87.0306C65.7658 85.5478 68.6602 84.2528 70.2128 83.136C72.4938 81.5125 74.0081 80.5272 74.7461 80.1987V80.2081Z" fill="black"/>
<path d="M66.0724 80.8369C66.1299 80.912 65.7561 81.3437 65.2098 81.7941C64.6731 82.2539 64.1843 82.5636 64.1076 82.4886C64.0501 82.4135 64.4239 81.9818 64.9702 81.5313C65.5069 81.0715 65.9957 80.7618 66.0724 80.8369Z" fill="black"/>
</g>
<defs>
<clipPath id="clip0_2250_824">
<rect width="100" height="100" fill="white"/>
</clipPath>
</defs>
</svg>
