<svg width="141" height="160" viewBox="0 0 141 160" fill="none" xmlns="http://www.w3.org/2000/svg">
<g clip-path="url(#clip0_2117_1016)">
<path d="M94.9061 133.348C97.3181 134.562 95.1239 137.191 93.4299 137.628C92.8329 137.782 92.2844 137.24 92.4376 136.633C92.7845 135.241 93.3573 134.182 94.172 133.445C94.3898 133.243 94.6399 133.211 94.9061 133.348Z" fill="black"/>
<path d="M90.2758 140.315C90.7356 139.554 91.3245 139.441 92.0344 139.975L92.3732 140.226C92.8249 140.558 92.9459 141.181 92.6555 141.658C91.1631 144.158 89.453 146.262 87.525 147.969C87.1136 148.333 86.5973 148.551 86.0488 148.592L85.6374 148.624C84.9517 148.673 84.8226 148.43 85.2421 147.888C86.5166 146.254 88.1945 143.729 90.2758 140.315Z" fill="black"/>
<path d="M131.118 36.7979C120.317 17.9862 103.949 6.22189 82.0154 1.50482C79.4663 0.954635 76.5138 0.728086 73.7791 0.36399C71.6334 0.0808043 69.5683 -0.0405611 67.5757 0.00798505C63.986 0.105077 60.5334 0.0808043 56.9275 0.485356C39.4789 2.45147 25.3458 10.1784 14.5201 23.6823C11.2208 27.8007 8.42161 32.3883 6.12256 37.429C1.52447 47.5347 -0.250238 58.5384 0.790384 70.4403C2.32308 87.9412 9.38963 102.165 21.982 113.104C34.8808 124.302 49.1592 129.675 65.7607 131.439C66.1237 131.479 66.2689 131.673 66.2044 132.029C64.5184 141.423 58.194 150.59 51.0629 156.691C50.8532 156.877 50.716 157.103 50.6596 157.378C49.8287 161.497 58.6942 159.676 60.8157 159.11C70.2781 156.553 78.0868 151.626 84.2338 144.328C87.767 140.136 90.4775 134.902 92.6394 129.707C92.9056 129.068 93.3654 128.639 94.0027 128.437C113.637 122.174 132.594 108.112 138.153 87.6823C142.993 69.8983 140.201 52.5916 131.118 36.7979ZM104.522 53.7243C104.498 54.0075 104.393 54.0479 104.191 53.8537C103.594 53.2793 103.183 52.6644 102.965 52.009C102.578 50.8601 102.376 50.2694 102.36 50.229C101.916 49.2581 101.521 48.279 101.174 47.2838C101.102 47.0816 100.892 46.9683 100.682 47.0168L100.48 47.0654C100.238 47.122 100.142 47.2757 100.182 47.5266C100.609 50.0591 101.682 52.3084 103.393 54.2745C103.562 54.4606 103.764 54.6062 103.998 54.6952C104.102 54.7357 104.191 54.7923 104.272 54.8651C104.425 54.9946 104.49 55.1564 104.449 55.3587C104.086 57.2439 103.772 59.1129 103.046 60.8929C101.182 65.4806 98.8993 69.6151 96.213 73.2884C90.4291 81.1852 86.4279 86.2745 84.1934 88.5481C80.5956 92.2214 77.2802 95.7814 74.247 99.2282C73.6178 99.9483 72.9805 99.9564 72.3352 99.2606C65.9462 92.4641 59.5331 85.6596 53.1038 78.8388C51.8777 77.5362 50.474 76.5814 49.3286 75.3273C43.0284 68.4338 35.4536 59.1291 35.9537 49.339C36.228 43.9342 39.245 39.5731 44.1819 37.4775C52.1197 34.0955 59.5734 38.319 63.5343 45.2854C64.7443 47.4133 65.9462 49.6141 67.1482 51.8795C67.2531 52.0656 67.3902 52.2275 67.5515 52.3488C68.2614 52.8586 68.7696 52.8586 69.0681 52.3569C70.383 50.1319 71.7463 47.9149 73.158 45.7061C75.1666 42.5425 78.232 39.8158 82.3542 37.5422C89.3481 33.6828 97.3262 37.4209 101.247 43.6914C102.876 46.2967 104.788 50.4312 104.522 53.7243ZM135.402 78.2725C135.184 80.4408 134.571 82.5607 134.176 84.6644C133.345 89.0335 131.626 93.2975 129.021 97.4563C128.109 98.9046 127.133 100.11 126.093 101.065C124.439 102.562 124.181 102.351 125.302 100.418C133.369 86.5415 135.797 70.0196 130.812 54.5334C126.528 41.2075 118.76 29.2409 107.765 20.7048C96.7535 12.1688 84.0644 7.654 69.6973 7.16045C65.2283 7.00672 60.3963 7.24945 55.2012 7.87246C42.9477 9.33694 31.3879 15.8745 23.2081 25.1873C13.6489 36.0859 8.61522 48.7969 8.11507 63.3041C7.44553 82.6659 15.2946 98.6861 30.2101 110.305C41.6731 119.229 54.8543 123.817 69.7619 124.084C71.222 124.108 72.5691 123.833 73.9566 123.695C74.5374 123.639 75.0456 124.1 75.0456 124.691C75.0376 133.016 72.198 144.368 65.4219 149.651C65.2202 149.805 65.0992 149.765 65.0428 149.514C65.0105 149.376 65.0428 149.223 65.1476 149.053C68.9229 142.928 72.1174 134.392 71.9157 127.11C71.9076 126.802 71.7544 126.624 71.4478 126.576C68.9148 126.22 66.5351 126.746 64.0344 126.115C62.179 125.645 60.0736 125.637 58.3957 125.33C44.4481 122.725 32.5092 116.567 22.5628 106.85C16.7063 101.13 12.4792 94.9723 9.87364 88.3782C1.3954 66.9208 4.86414 42.8904 19.4328 25.1953C29.0082 13.5604 43.4559 5.88207 59.1701 5.06488C61.8886 4.91924 64.5507 4.47423 67.2611 4.66032C71.0122 4.91924 75.0618 5.01633 78.5305 5.63125C89.7676 7.61355 100.077 12.096 109.467 19.0866C116.59 24.3943 121.93 30.7053 126.569 38.3999C133.917 50.585 136.862 63.8785 135.402 78.2725Z" fill="black"/>
<path d="M97.9392 54.946C98.3668 55.7147 99.0121 56.3053 99.8591 56.7099C100.02 56.7827 100.158 56.896 100.254 57.0416C100.504 57.3734 100.601 57.7132 100.529 58.0611C100.472 58.3685 100.303 58.4414 100.029 58.2876C98.8589 57.6161 97.9231 56.6856 97.2294 55.4881C97.0922 55.2535 97.0761 55.0189 97.181 54.768L97.6972 53.4573C97.8505 53.0689 98.3507 52.9718 98.6411 53.2631C99.7946 54.4201 100.972 55.4639 102.19 56.4105C102.553 56.6937 102.795 57.0093 102.916 57.341C103.07 57.7536 102.965 58.1096 102.61 58.409C102.432 58.5546 102.303 58.7488 102.223 58.9754C101.666 60.5612 100.819 62.1309 99.6817 63.6924C99.48 63.9756 99.3832 63.9352 99.4074 63.5873C99.4719 62.4464 100.198 61.7344 100.561 60.9091C100.94 60.0596 101.416 59.3071 101.997 58.6679C102.392 58.231 102.376 57.5594 101.973 57.1387C100.827 55.9574 99.6252 55.0674 98.3749 54.4768C98.0844 54.3392 97.7779 54.6548 97.9392 54.946Z" fill="black"/>
<path d="M92.9541 59.3312C93.059 59.2584 93.1638 59.2341 93.2768 59.2665C93.43 59.307 93.5026 59.4041 93.4946 59.5578C93.4542 60.4802 93.1316 61.3297 92.5265 62.1065C92.0183 62.7537 91.6957 62.6728 91.5424 61.8718C91.3327 60.7795 91.5424 59.6872 92.1958 58.6031C92.5749 57.9639 93.0912 57.6483 93.7527 57.6564C93.9705 57.6564 94.0834 57.7616 94.0754 57.98V58.3118C94.0673 58.603 93.9221 58.7568 93.6317 58.7649C93.2526 58.773 92.9864 58.9267 92.817 59.218C92.6637 59.485 92.7121 59.5173 92.9541 59.3312Z" fill="black"/>
<path d="M43.9884 62.471C46.1745 65.1653 47.5781 68.2642 49.7078 70.9585C49.8288 71.1203 49.8933 71.274 49.8852 71.4197C49.8852 71.6381 49.7965 71.8 49.6271 71.9051C49.3367 72.0751 48.9737 72.0103 48.764 71.7514C46.2874 68.7335 44.069 65.7964 42.1249 62.9403C41.0763 61.3949 40.6003 60.0275 40.689 58.8301C40.7536 58.029 41.0279 57.9481 41.5038 58.6035C42.3427 59.7443 43.0042 61.2412 43.9884 62.471Z" fill="black"/>
<path d="M77.9496 85.2471C78.4901 82.7227 80.9666 81.4282 82.5397 79.5591C84.7096 76.97 86.7828 74.3971 88.7673 71.8484C89.7756 70.5619 90.5097 69.2107 90.9856 67.7867C91.0824 67.4954 91.3487 67.3012 91.6552 67.2931H91.9214C92.0827 67.277 92.2118 67.4307 92.1795 67.5925C92.0101 68.4178 92.0343 69.2026 92.2521 69.9389C92.5667 71.015 93.9865 71.2416 94.6157 70.3111C95.1078 69.5829 95.4305 68.7091 95.5837 67.6896C95.6402 67.3498 95.5434 67.0585 95.2933 66.8239C95.0836 66.6297 94.8416 66.4759 94.5754 66.3627C94.2689 66.2413 94.0672 65.9419 94.0672 65.6183C94.0672 64.9225 94.3656 64.3399 94.9545 63.8787C95.3256 63.5874 95.5192 63.6764 95.5353 64.1538L95.5999 66.0957C95.616 66.5811 96.1404 66.8805 96.5598 66.6297L97.1326 66.2898C97.6005 66.0067 97.8425 65.4646 97.7457 64.9306C97.6085 64.1619 97.189 63.5794 96.4792 63.1829C96.221 63.0373 96.1 62.8188 96.1242 62.5194C96.1565 62.123 96.3098 61.7508 96.576 61.411C96.7292 61.2087 96.8825 61.2087 97.0277 61.4191L98.7943 63.9515C98.9395 64.1538 98.9395 64.3642 98.8024 64.5746C97.7053 66.2008 97.2616 67.9485 95.9629 69.3321C95.4627 69.8661 95.0513 70.5215 94.7287 71.3063C93.922 73.2724 92.4619 74.6317 91.3406 76.3875C88.3639 81.0317 84.7177 85.3685 81.2974 89.7457C81.0796 90.0289 80.7892 90.1503 80.4262 90.1098L80.2164 90.0936C80.0551 90.0775 79.9663 89.8914 80.0551 89.7538C82.7413 85.5789 85.5647 81.7275 88.5091 78.1917C89.8966 76.525 90.8485 74.5103 92.1957 72.7708C92.6151 72.2287 92.6635 71.6623 92.3489 71.0555C92.2763 70.926 92.2118 70.7965 92.1392 70.6671C91.8246 70.0603 91.4455 70.0279 91.0179 70.5538C90.2758 71.4519 90.066 72.6818 89.2916 73.6446C87.5572 75.7968 86.2262 78.1594 84.2982 80.0689C82.9833 81.3796 81.3861 82.6984 80.4262 84.2924C80.1115 84.8021 79.7808 85.2876 79.4178 85.7488C79.2484 85.9591 79.1919 86.1938 79.2484 86.4608C79.3936 87.1809 79.4743 87.8039 79.4904 88.3379C79.4904 88.5806 79.4097 88.6211 79.2323 88.4593L76.7477 86.21C76.0539 85.5869 76.1669 85.3766 77.0784 85.5788L77.3446 85.6355C77.6754 85.7083 77.877 85.5789 77.9496 85.2471Z" fill="black"/>
<path d="M72.3595 85.3443C72.2385 86.0968 72.2466 86.922 72.3998 87.8121C72.4805 88.2894 72.303 88.4189 71.8755 88.2166C71.1091 87.8525 70.6251 87.3104 70.4073 86.6065C70.3025 86.2586 70.367 85.9349 70.6009 85.6518L87.7914 65.0682C87.9608 64.8578 88.2996 64.9387 88.3722 65.2057C88.3883 65.2624 88.4044 65.3433 88.4286 65.4485C88.4528 65.5941 88.4286 65.7317 88.3722 65.8692C87.5897 67.4712 86.5975 68.9357 85.3955 70.2545C82.5157 73.4262 79.8213 76.7435 77.2964 80.2065C76.28 81.6062 73.9971 82.1969 74.8522 84.3734C74.9409 84.5918 74.8764 84.6566 74.6586 84.5757C74.1665 84.3976 73.6502 84.3734 73.1259 84.5109C72.7306 84.6161 72.4321 84.9398 72.3595 85.3443Z" fill="black"/>
<path d="M72.182 78.2805C70.8268 79.7045 69.7297 81.0719 69.0198 82.86C68.8343 83.3293 68.6084 83.6205 68.3583 83.7419C67.9792 83.9199 67.5678 83.8795 67.116 83.6205C66.4707 83.2484 66.3739 82.3583 66.9143 81.8486C67.5758 81.2256 68.2857 80.8291 68.8907 80.0686C71.222 77.1558 73.7712 74.1136 76.5542 70.9338C76.7236 70.7396 77.006 70.6749 77.248 70.7801L77.49 70.8853C77.6271 70.95 77.6755 71.1199 77.5948 71.2494C75.9734 73.8385 74.1745 76.1849 72.182 78.2805Z" fill="black"/>
<path d="M61.6143 81.7517C61.4691 81.6222 61.4611 81.4037 61.5901 81.2581L61.6708 81.1691C66.2286 76.1446 70.1732 72.3013 70.4879 72.5845L70.6976 72.7868C71.0122 73.0619 67.5677 77.3663 63.0099 82.3908L62.9292 82.4798C62.8002 82.6255 62.5823 82.6336 62.4371 82.5041L61.6143 81.7517Z" fill="black"/>
<path d="M73.3354 94.3495C73.6016 94.665 73.5612 95.1343 73.2386 95.4013L73.1982 95.4337C72.8836 95.6926 72.4158 95.6521 72.1495 95.3366L65.3815 87.197C65.1153 86.8815 65.1556 86.4122 65.4783 86.1452L65.5186 86.1128C65.8332 85.8539 66.3011 85.8944 66.5673 86.2099L73.3354 94.3495Z" fill="black"/>
<path d="M76.0299 89.414C76.2154 89.6486 76.2316 89.8833 76.0783 90.1098C75.9331 90.3202 75.917 90.5386 76.0299 90.7733C76.1106 90.9432 76.2154 91.0807 76.3526 91.1859C76.53 91.3316 76.7963 91.2587 76.885 91.0484C77.0786 90.5629 76.9173 90.215 76.3929 90.0046C76.3203 89.9723 76.288 89.9156 76.3122 89.8428C76.3364 89.7619 76.3768 89.7376 76.4494 89.7619C77.1754 90.0127 77.6594 90.2636 77.8933 90.5063C78.0869 90.6924 78.1192 90.9108 77.9982 91.1536L76.9495 93.144C76.7559 93.5081 76.2396 93.5081 76.046 93.144C75.6508 92.3591 75.0619 91.8089 74.2955 91.4934C74.0293 91.3801 73.8841 91.1859 73.8438 90.9027C73.6582 89.6891 74.1503 88.8072 75.312 88.2489C75.5459 88.1356 75.7153 88.2003 75.8202 88.4431C75.9412 88.7586 76.0138 89.0823 76.0299 89.414Z" fill="black"/>
</g>
<defs>
<clipPath id="clip0_2117_1016">
<rect width="140" height="160" fill="white" transform="translate(0.5)"/>
</clipPath>
</defs>
</svg>
