<svg width="111" height="140" viewBox="0 0 111 140" fill="none" xmlns="http://www.w3.org/2000/svg">
<g clip-path="url(#clip0_2071_144)">
<path d="M43.5938 37.5902C37.3245 35.4086 32.1106 36.5308 27.9341 40.9569C26.1416 42.8512 24.986 45.0059 24.4673 47.4119C24.4218 47.6094 24.2034 47.7172 24.0123 47.6364C23.794 47.5466 23.6393 47.376 23.5392 47.1157C19.0442 35.1572 2.43819 34.7981 0.691145 48.8394C-0.737427 60.322 6.11426 69.1023 12.1561 78.0173C14.2398 81.0877 15.4045 85.2354 15.6593 90.4605C15.7048 91.475 16.0142 92.3459 16.5783 93.0551C18.3527 95.2906 20.8094 94.4646 22.4928 92.4626C24.6311 89.9308 26.6511 87.031 28.6984 84.7058C35.3863 77.1015 42.1288 69.246 47.3608 60.5734C51.5647 53.6246 53.6029 41.0826 43.5938 37.5902ZM44.7403 50.5811C43.7758 54.253 42.2107 57.6825 40.0451 60.8697C34.9132 68.42 28.844 75.9524 21.8376 83.4489C21.501 83.808 21.2462 83.7631 21.0642 83.3052C20.1907 81.1146 19.5719 78.6278 18.3072 76.7065C15.4409 72.3523 12.6657 67.9891 9.98141 63.6169C7.23346 59.128 4.73118 51.8649 7.62472 46.8643C10.5547 41.8008 14.9951 44.5749 16.9059 48.3366C19.0988 52.655 20.955 56.9643 22.4655 61.2647C23.4118 63.949 25.2498 64.6224 27.9887 63.2757C28.8713 62.8448 29.2808 62.1535 29.2262 61.1929C28.9259 56.0845 29.6902 46.5949 34.0669 43.3899C36.46 41.6302 38.9987 41.5045 41.6739 43.0128C44.6129 44.6737 45.632 47.1965 44.7403 50.5811Z" fill="black"/>
<path d="M69.4172 88.7187C66.5327 87.6144 63.5209 87.6773 60.3817 88.9162C55.55 90.8195 52.6474 97.885 51.2279 102.392C51.1733 102.562 50.9368 102.589 50.8458 102.437C48.9804 99.3843 46.3235 97.3553 42.8658 96.3409C37.3972 94.7428 32.247 97.6426 31.0095 103.182C29.2443 111.109 33.0569 118.785 39.1897 123.966C41.7284 126.111 44.2671 128.257 46.8057 130.403C49.6902 132.836 51.5919 135.601 53.6938 138.599C55.5318 141.239 59.6174 139.749 60.8185 137.307C65.7502 127.287 71.0732 118.013 74.1852 107.213C76.0869 100.632 77.0241 91.6185 69.4172 88.7187ZM68.8712 104.259C66.005 114.261 61.8376 123.238 56.3872 131.193C56.2689 131.363 56.0141 131.372 55.8958 131.202C55.0496 130.008 54.1397 128.984 53.157 128.131C49.854 125.267 46.4964 122.385 43.0933 119.504C38.7439 115.823 33.4754 107.321 38.6529 102.194C39.3626 101.494 40.4545 101.342 41.3371 101.817C46.0869 104.385 48.4527 111.675 50.4727 116.263C50.7002 116.765 51.0732 117.08 51.6101 117.205C55.0496 117.995 58.48 116.667 58.2343 112.6C57.8066 105.669 57.5337 99.2227 62.884 94.267C65.7866 91.5826 69.6356 95.1378 69.7266 98.1095C69.7903 100.013 69.4991 102.06 68.8712 104.259Z" fill="black"/>
<path d="M96.6966 9.83954C93.157 10.5937 89.9541 12.2635 87.0696 14.8402C86.733 15.1454 86.1961 14.9389 86.1597 14.4811C85.9322 11.5094 84.4946 8.33127 81.8467 4.95561C79.7994 2.33409 77.3062 0.77195 74.3763 0.260215C62.9659 -1.76877 56.4145 8.26842 56.2234 18.1889C55.9959 30.5603 59.5901 43.0395 62.5746 55.2942C63.3026 58.2659 64.722 62.4046 68.7621 59.9537C72.429 57.7272 75.6866 54.971 79.3899 52.6996C83.1661 50.3923 86.8058 47.9863 90.2998 45.4725C98.4709 39.61 104.768 32.5714 109.19 24.3746C113.812 15.8098 105.414 7.98113 96.6966 9.83954ZM102.229 24.8504C98.0432 31.099 92.8658 36.4049 86.6784 40.7591C80.8822 44.844 74.8494 48.7763 68.5801 52.5739C68.4345 52.6547 68.2616 52.5829 68.2161 52.4213C65.8048 43.3986 54.349 8.58265 70.9277 5.87135C72.8658 5.55712 74.9677 6.44593 76.3963 7.86442C79.3626 10.8451 80.0451 14.3464 78.4072 18.3685C77.8158 19.8588 76.9149 20.2718 75.7593 21.2952C74.0123 22.8304 73.9031 26.1702 74.2125 28.3428C74.9404 33.3614 81.4554 35.3276 84.349 30.5962C85.3681 28.9443 86.3326 27.2026 87.2516 25.3622C88.0432 23.8 89.6538 21.7082 92.0742 19.1316C94.5765 16.4472 100.081 13.6641 103.303 16.7255C105.677 18.9879 103.676 22.6778 102.229 24.8415V24.8504Z" fill="black"/>
</g>
<defs>
<clipPath id="clip0_2071_144">
<rect width="110" height="140" fill="white" transform="translate(0.5)"/>
</clipPath>
</defs>
</svg>
