<svg width="136" height="130" viewBox="0 0 136 130" fill="none" xmlns="http://www.w3.org/2000/svg">
<g clip-path="url(#clip0_2118_1112)">
<path d="M67.5724 4.49312C67.4233 1.15641 70.1869 -0.831421 73.219 0.334907C75.4756 1.21726 76.2311 4.45255 76.0621 6.69393C75.7539 10.9637 75.7241 15.5885 75.9528 20.5682C76.0422 22.3227 75.2271 23.3268 73.5271 23.5905L71.9465 23.844C70.2764 24.1077 69.3419 23.3775 69.1332 21.6635C68.2782 14.3917 67.7613 8.67162 67.5724 4.49312Z" fill="black"/>
<path d="M39.4094 26.4705L38.6936 26.8559C37.272 27.6368 36.0493 27.3833 35.0452 26.0952L22.4896 9.91877C21.585 8.75244 21.8236 7.04859 23.0165 6.19666L23.603 5.78084C25.4421 4.45224 27.0824 4.6855 28.5139 6.46035C32.9278 11.9269 36.8147 17.6875 40.1748 23.7423C40.7116 24.7058 40.3736 25.9431 39.4094 26.4705Z" fill="black"/>
<path d="M101.342 21.6225C103.778 16.4197 106.651 11.9268 109.981 8.14379C110.995 6.9876 112.128 6.85576 113.371 7.74825L113.968 8.16408C115.369 9.16813 115.588 10.3852 114.624 11.8253C111.78 16.1255 108.858 19.8274 105.856 22.9207C104.523 24.2898 103.261 24.1174 101.79 23.1844C101.273 22.8598 101.074 22.1803 101.342 21.6225Z" fill="black"/>
<path d="M87.4845 17.2718L89.5622 9.08724C89.7014 8.53957 90.2283 8.1846 90.775 8.2556L92.6638 8.52943C93.3001 8.61057 93.7275 9.23937 93.5883 9.87831L91.8884 17.5457C91.789 18.0122 91.4113 18.357 90.944 18.4077L88.6576 18.6613C87.902 18.7424 87.2956 18.0223 87.4845 17.2718Z" fill="black"/>
<path d="M58.377 23.1541C58.9635 24.4928 58.377 26.0648 57.0647 26.6632L56.9057 26.7342C55.5934 27.3326 54.0526 26.7342 53.4661 25.3955L48.2768 13.5598C47.6903 12.221 48.2768 10.649 49.589 10.0506L49.7481 9.97965C51.0603 9.38127 52.6012 9.97965 53.1877 11.3184L58.377 23.1541Z" fill="black"/>
<path d="M117.218 24.7059C118.093 25.6288 117.308 27.8397 115.459 29.6552C113.62 31.4706 111.423 32.1907 110.548 31.2779C109.673 30.355 110.458 28.144 112.308 26.3286C114.147 24.5132 116.344 23.7931 117.218 24.7059Z" fill="black"/>
<path d="M26.7742 31.7443C26.0087 32.6368 23.762 31.8964 21.7539 30.0911C19.7458 28.2859 18.7418 26.1053 19.5172 25.2128C20.2827 24.3204 22.5293 25.0607 24.5374 26.866C26.5455 28.6713 27.5496 30.8518 26.7742 31.7443Z" fill="black"/>
<path d="M66.9263 57.0487C67.145 56.7039 67.2444 56.1765 67.2146 55.4564C66.9263 47.4138 69.1531 37.7282 74.74 32.282C82.4941 24.7161 94.3637 24.4727 101.273 33.5294C109.802 44.7059 105.1 60.9737 97.9922 71.7343C91.1229 82.1501 82.1461 92.2921 71.0817 102.16C70.6642 102.536 70.0677 102.596 69.5905 102.312C52.9392 92.6065 36.6955 83.9757 28.9613 64.9595C25.7205 56.998 25.9392 49.6755 29.6075 43.0122C33.4646 36.0142 41.169 34.1278 48.3067 36.1765C56.8361 38.6207 63.4569 48.7627 65.9322 56.9067C66.0714 57.3631 66.6679 57.4443 66.9263 57.0487Z" fill="black"/>
<path d="M132.627 30.9636C133.393 30.5883 134.317 30.9129 134.685 31.6938L135.162 32.6877C136.186 34.8581 134.824 37.6979 132.11 39.0468L118.59 45.7405C115.866 47.0893 112.834 46.42 111.8 44.2597L111.323 43.2658C110.955 42.4849 111.274 41.5417 112.039 41.1664L132.627 30.9636Z" fill="black"/>
<path d="M22.1715 39.6144C21.585 40.6996 20.243 41.0952 19.1892 40.4867L11.2463 35.9938C10.1925 35.3954 9.80481 34.0363 10.3913 32.9512L10.4907 32.7686C11.0773 31.6834 12.4193 31.2879 13.4731 31.8964L21.416 36.3893C22.4698 36.9877 22.8575 38.3467 22.2709 39.4319L22.1715 39.6043V39.6144Z" fill="black"/>
<path d="M18.8413 54.5133C18.563 56.2375 16.9724 57.3936 15.2824 57.1097L3.08471 55.0508C1.40467 54.7669 0.261444 53.1442 0.539794 51.42L0.609382 51.0245C0.887732 49.3003 2.47831 48.1442 4.16829 48.4281L16.366 50.4869C18.0461 50.7709 19.1893 52.3936 18.9109 54.1178L18.8413 54.5133Z" fill="black"/>
<path d="M121.284 55.9941C121.493 58.915 114.832 59.8987 115.31 55.7101C115.359 55.2638 115.677 54.8886 116.105 54.777C117.526 54.4018 119.038 54.5235 120.648 55.132C121.006 55.2638 121.254 55.6087 121.284 55.9941Z" fill="black"/>
<path d="M17.9964 67.8095C18.1654 69.0063 17.0222 70.1625 15.4316 70.4059C13.851 70.6392 12.4194 69.8582 12.2504 68.6615C12.0815 67.4647 13.2247 66.3085 14.8152 66.0651C16.3959 65.8319 17.8274 66.6128 17.9964 67.8095Z" fill="black"/>
<path d="M110.737 72.8297C110.11 72.6472 109.663 72.0792 109.623 71.4099C109.434 68.1239 111.015 66.6026 114.385 66.846C119.634 67.2212 124.893 67.5052 130.172 67.6979C131.802 67.7588 134.774 68.9352 134.466 71.0853C134.277 72.3734 133.442 73.1036 131.971 73.2659C124.942 74.0265 117.536 74.8379 110.737 72.8297Z" fill="black"/>
<path d="M12.5685 82.718C15.0637 81.5314 17.5788 80.3853 20.1237 79.2697C23.0961 77.9715 25.2136 77.7788 26.9135 80.9736C27.3509 81.7849 27.1024 82.7991 26.3568 83.3164C21.3365 86.7748 16.5549 89.8275 12.0217 92.4746C9.93411 93.6916 8.17454 93.3164 6.74302 91.3488C6.62373 91.1865 6.50443 91.0243 6.38514 90.8519C4.98345 88.9249 5.20215 87.221 7.05119 85.7302C7.83654 85.0912 9.67564 84.0871 12.5685 82.718Z" fill="black"/>
<path d="M106.323 81.6633L118.948 88.2251C120.638 89.0973 120.777 91.501 119.207 92.5761L117.507 93.7525C116.761 94.2698 115.807 94.3306 115.001 93.9249L101.462 87.0182C99.4536 85.9939 99.7021 83.002 101.839 82.3225L104.464 81.501C105.08 81.3083 105.746 81.359 106.323 81.6633Z" fill="black"/>
<path d="M27.4106 94.0871C28.1661 94.9086 27.013 97.2616 24.8359 99.3508C22.6588 101.43 20.2729 102.454 19.5273 101.643C18.7718 100.821 19.925 98.4685 22.1021 96.3792C24.2792 94.3001 26.665 93.2758 27.4106 94.0871Z" fill="black"/>
<path d="M111.979 102.008C111.184 102.982 109.762 103.114 108.798 102.302L103.122 97.4645C102.167 96.6531 102.038 95.1927 102.834 94.2191L102.973 94.0466C103.768 93.073 105.19 92.9412 106.154 93.7525L111.83 98.5902C112.785 99.4016 112.914 100.862 112.119 101.836L111.979 102.008Z" fill="black"/>
<path d="M32.6992 113.448C31.8542 114.645 30.204 114.909 29.0309 114.037L27.9971 113.276C26.824 112.404 26.5655 110.73 27.4205 109.534L34.9558 98.9454C35.8008 97.7487 37.451 97.485 38.6241 98.3572L39.658 99.1178C40.831 99.99 41.0895 101.663 40.2345 102.86L32.6992 113.448Z" fill="black"/>
<path d="M100.249 108.002C101.134 109.047 101.014 109.949 99.8911 110.71L98.2309 111.846C97.1473 112.586 96.1433 112.475 95.2387 111.511C92.6043 108.712 90.7353 105.68 89.6319 102.414C89.2144 101.177 90.0494 99.8682 91.3318 99.7567C93.1809 99.6045 95.4474 101.288 96.4316 102.83C97.5947 104.676 98.8671 106.4 100.249 108.002Z" fill="black"/>
<path d="M85.1187 116.654C85.5958 117.82 85.059 119.159 83.9158 119.656L83.7368 119.737C82.5936 120.234 81.2814 119.686 80.7943 118.509L77.6529 110.883C77.1757 109.716 77.7125 108.378 78.8558 107.881L79.0347 107.8C80.1779 107.303 81.4902 107.85 81.9773 109.027L85.1187 116.654Z" fill="black"/>
<path d="M43.6244 119.99C42.9981 119.797 42.6502 119.138 42.8291 118.499L44.3203 113.387C45.2647 110.111 46.6962 107.657 47.5114 107.9L49.5195 108.509C50.3346 108.752 50.2253 111.612 49.2709 114.888L47.7897 120C47.6008 120.629 46.9547 120.994 46.3284 120.811L43.6244 119.99Z" fill="black"/>
<path d="M61.6179 129.737C60.3256 129.625 59.6794 129.138 59.6794 128.276L59.6396 110.792C59.6396 109.189 60.7829 108.662 63.0793 109.179L63.5664 109.28C65.8031 109.787 66.8867 110.812 66.837 112.374L66.3101 128.915C66.2803 129.747 65.6441 130.102 64.4014 129.99L61.6179 129.737Z" fill="black"/>
</g>
<defs>
<clipPath id="clip0_2118_1112">
<rect width="135" height="130" fill="white" transform="translate(0.5)"/>
</clipPath>
</defs>
</svg>
