<svg width="166" height="120" viewBox="0 0 166 120" fill="none" xmlns="http://www.w3.org/2000/svg">
<g clip-path="url(#clip0_2354_2096)">
<path d="M164.439 37.5397C161.979 32.372 158.823 28.5877 154.464 24.4107C141.092 11.5851 124.199 2.51701 105.674 0.214295C102.144 -0.223042 98.8812 0.00901451 95.877 0.910465C88.3709 3.1864 85.233 10.3623 88.1213 17.9309C88.2551 18.2612 88.157 18.5111 87.8361 18.6806C84.7071 20.2961 81.9524 22.3846 79.5544 24.9372C79.0463 25.4817 78.5738 25.9101 78.137 26.2136C73.9739 29.0786 69.7662 31.4259 65.8705 34.6925C65.505 34.996 65.1485 35.2281 64.8008 35.3887C64.2124 35.6565 63.8024 35.7814 63.5706 35.7636C59.1579 35.4066 54.9947 36.1474 51.0723 37.9949C46.2228 40.2887 44.3864 45.0012 42.7818 49.9904C42.238 51.6951 41.3733 52.7573 40.1965 53.1589C37.5311 54.0693 34.9548 55.176 32.4676 56.4791C29.3831 58.1035 28.144 60.4865 25.8797 62.7268C25.3181 63.2801 24.5693 63.7442 23.6243 64.128C21.0124 65.1901 18.5074 66.4486 16.1004 67.9123C14.6652 68.7959 13.747 69.8937 13.3636 71.2147C11.759 76.6948 8.62109 77.498 4.36883 80.4702C1.20415 82.6747 -0.0260595 85.6736 0.696022 89.4668C1.92623 95.9555 2.13127 101.444 1.30221 105.925C0.294865 111.369 0.927801 116.841 6.83817 119.117C8.49628 119.759 12.0532 120.223 13.64 119.884C19.7108 118.572 24.3821 116.841 27.6448 114.69C29.9893 113.146 32.325 111.575 34.6517 109.995C36.292 108.879 38.7167 107.737 40.4016 107.987C44.4666 108.567 48.3534 108.121 52.0708 106.63C54.5223 105.648 56.9025 103.828 59.0598 102.203C59.9334 101.552 60.9943 101.204 62.0908 101.221C66.762 101.293 71.1747 100.971 75.2219 98.2493C76.9959 97.0622 78.761 95.8841 80.5261 94.697C81.6761 93.9294 82.7815 93.6081 83.8512 93.7331C90.7155 94.5453 96.296 93.1083 101.672 89.0562C103.446 87.7264 107.225 84.3526 109.258 84.6472C115.534 85.5486 121.168 84.1117 126.16 80.3184C127.542 79.2742 128.941 78.2388 130.359 77.2124C132.712 75.5077 133.853 75.7398 136.661 75.4185C142.144 74.7848 147.626 72.7766 153.126 69.3939C156.273 67.4571 158.19 64.6189 158.876 60.8882C159.278 58.6747 158.859 55.7472 159.126 53.1232C159.153 52.8287 159.269 52.5698 159.465 52.3467C162.202 49.33 164.805 47.5271 165.411 43.2251C165.669 41.3419 165.348 39.4408 164.439 37.5397ZM5.24246 87.6639C5.27812 85.62 6.09826 84.1027 7.69397 83.112C10.3594 81.4698 13.0071 79.7918 15.6369 78.0782C16.038 77.8194 16.3322 77.4177 16.457 76.9536C16.8225 75.6059 17.2504 74.1779 17.7407 72.6516C18.7213 69.6081 23.7848 68.3318 26.5483 67.4036C28.1084 66.877 29.8913 65.1723 31.8971 62.2716C32.5478 61.3344 34.1881 60.2366 36.8179 58.9781C39.9291 57.4876 44.2081 57.2734 46.5794 52.909C47.8007 50.6777 48.3266 47.2861 49.9134 45.0458C52.3739 41.5739 55.806 39.8067 60.2187 39.7442C62.5721 39.7175 64.4264 39.298 66.5124 39.1195C69.4096 38.8874 69.8375 37.2095 71.6472 35.6832C74.4018 33.3448 77.3169 31.4527 80.3924 30.0068C81.3997 29.5427 82.3269 28.8554 83.1827 27.945C85.1974 25.8208 86.909 23.9198 89.512 22.4828C89.7794 22.3311 90.0558 22.3221 90.3322 22.4382C90.662 22.5899 90.8759 22.8398 90.9562 23.179C91.0275 23.4735 90.9562 23.7323 90.7422 23.9465C89.6992 24.9997 89.4942 26.1957 90.1449 27.5256C90.2787 27.8022 90.5015 27.9451 90.7957 27.9629C93.1403 28.1146 94.8519 27.1686 95.9305 25.1336C96.0732 24.8658 96.296 24.723 96.5902 24.7052C97.2944 24.6516 97.8382 24.8926 98.2216 25.4281C98.4088 25.678 98.3553 25.8744 98.0789 26.0172C95.7611 27.1864 93.8445 28.8108 92.329 30.9082C91.5089 32.0328 92.0081 33.6304 93.3275 34.0946L95.5026 34.8532C95.8057 34.9514 96.0197 35.1567 96.1355 35.4512C96.5545 36.4954 97.1607 37.0934 97.9452 37.2452C103.08 38.2359 110.818 36.308 112.262 30.4798C112.333 30.1853 112.521 30.0603 112.824 30.105C113.403 30.1853 113.795 30.5602 114.018 31.2117C114.348 32.1845 114.696 33.1574 115.052 34.1303C115.15 34.4069 115.052 34.5587 114.767 34.5854C110.862 35.0049 110.738 40.5207 115.453 40.3779C117.245 40.3244 118.975 40.3154 120.642 40.3512C121.203 40.3601 121.765 40.2262 122.344 39.9317C122.603 39.7978 122.879 39.7799 123.165 39.8692C123.459 39.9674 123.557 40.2708 123.459 40.7796C123.379 41.1812 123.022 41.4668 122.612 41.449C118.591 41.2705 115.061 42.0737 112.021 43.8498C109.293 45.4475 109.614 47.4289 108.776 49.8298C108.678 50.1154 108.687 50.3921 108.803 50.6687C109.561 52.4002 110.693 53.7122 112.2 54.5958C113.421 55.3188 115.034 55.5776 117.022 55.3813C119.937 55.0957 122.746 54.4887 125.438 53.5694C127.149 52.9804 128.246 51.8112 128.736 50.0707C128.79 49.8565 128.781 49.6245 128.701 49.4192L127.479 46.4203C127.346 46.0812 127.114 45.8313 126.784 45.6617C126.588 45.5635 126.436 45.4207 126.338 45.2511C126.178 44.9477 126.267 44.5817 126.543 44.3854C127.212 43.9212 127.809 43.4482 128.317 42.9573C128.522 42.761 128.709 42.7788 128.879 43.0019C130.269 44.8227 131.731 46.5006 133.256 48.0447C134.014 48.8212 134.548 49.7673 134.852 50.8829C134.932 51.1864 134.843 51.5077 134.62 51.7219C133.684 52.6234 132.712 53.3017 131.687 53.7569C126.971 55.8454 121.81 57.8089 116.202 59.6475C112.467 60.8792 110.123 64.4672 106.263 65.4133C102.715 66.279 99.6657 62.3965 97.651 59.6565C97.3925 59.3173 96.8041 59.0763 95.8681 58.9335C89.931 58.0321 84.4129 58.871 79.3137 61.4683C78.8413 61.7093 78.2886 61.745 77.7893 61.5665C73.9917 60.2277 70.3635 60.4776 66.9135 62.3251C64.1768 63.7889 63.0981 66.0112 63.6597 68.9834C63.8024 69.7599 64.257 70.2418 65.0326 70.4203L65.8438 70.6077C66.5302 70.7595 66.8422 70.4828 66.7798 69.7777C66.6818 68.7335 67.1275 67.6267 68.1259 66.4397C70.1941 63.9763 72.8239 62.9767 76.0242 63.4408C76.3719 63.4854 76.5948 63.8424 76.4967 64.1816C75.7925 66.6003 75.3735 69.0905 75.2398 71.6699C75.1952 72.5267 74.901 73.5442 74.3483 74.7134C74.2235 74.9722 74.0185 75.1864 73.7689 75.3203C72.0305 76.2574 70.2476 77.0518 68.4112 77.7122C65.1752 78.8815 62.4384 80.7825 59.5679 82.6658C57.9366 83.7457 55.1017 84.2812 52.9176 84.424C46.303 84.8346 41.4357 85.388 38.3245 86.0841C36.3098 86.5393 34.4199 87.5211 32.6548 89.0295C30.9075 90.5378 29.7486 92.8406 28.4204 94.8487C27.208 96.6784 25.9778 99.7041 24.079 101.81C23.8739 102.034 23.6778 102.025 23.4817 101.802C20.8341 98.7758 19.069 95.2861 18.1953 91.3233C18.1329 91.0377 17.9725 90.8234 17.705 90.6896C16.4927 90.0559 15.2624 89.4936 14.0144 89.0116C11.3579 87.9763 8.53194 88.1637 5.68819 88.128C5.38509 88.1191 5.23354 87.9674 5.24246 87.6639ZM99.7905 28.0075C100.245 28.186 100.477 28.6144 100.477 29.2838C100.486 29.6141 100.218 29.8997 99.8797 29.9175L99.0239 29.9711C98.6049 29.9979 98.4177 29.8015 98.4444 29.382C98.4712 28.9982 98.6049 28.6591 98.8456 28.3645C99.1398 27.9986 99.4518 27.8736 99.7905 28.0075ZM99.7192 26.4099C99.7727 26.2225 100.45 26.2671 101.226 26.5081C102.01 26.7401 102.59 27.0793 102.536 27.2667C102.483 27.4542 101.805 27.4095 101.03 27.1686C100.245 26.9365 99.6657 26.5973 99.7192 26.4099ZM101.939 32.1399C103.035 31.5955 103.508 30.3102 104.221 29.3106C104.39 29.0696 104.399 28.8197 104.239 28.5609C104.096 28.3378 103.945 28.1146 103.775 27.8915C103.606 27.6505 103.651 27.588 103.927 27.6862L106.316 28.552C106.575 28.6412 106.61 28.7929 106.441 29.0072C105.603 30.0246 105.425 30.9707 104.337 31.7561C102.367 33.1753 100.12 33.9874 97.6154 34.1749C97.3836 34.1927 97.1875 33.9874 97.2142 33.7554L97.2499 33.4252C97.2944 33.0414 97.5084 32.8718 97.8917 32.8986C99.3805 32.9967 100.727 32.7468 101.939 32.1399ZM115.48 36.0581C115.578 35.8171 115.712 35.7993 115.881 35.9956C115.997 36.1295 116.06 36.3348 116.06 36.6025C116.06 36.7186 116.086 36.8257 116.149 36.9328L116.309 37.2273C116.416 37.4237 116.363 37.5486 116.14 37.6022C116.042 37.6289 115.935 37.62 115.819 37.5932C115.739 37.5754 115.676 37.5308 115.632 37.4683C115.311 37.031 115.257 36.5579 115.48 36.0581ZM116.942 37.147C117.156 36.7989 117.308 36.4062 117.397 35.9867C117.45 35.7279 117.664 35.5315 117.923 35.4958L118.369 35.4333C118.672 35.3887 118.894 35.7189 118.743 35.9867C118.342 36.6918 118.163 37.4594 118.208 38.2716C118.226 38.7446 118.048 38.8428 117.673 38.5572C117.397 38.3519 117.156 38.1109 116.96 37.8164C116.808 37.5932 116.808 37.3701 116.942 37.147ZM122.639 37.6468L122.79 37.4772C122.79 37.4772 122.844 37.4504 122.87 37.4772C123.708 38.4768 124.698 39.1998 125.848 39.655C126.802 40.0388 126.793 40.369 125.803 40.6457C125.268 40.7974 124.885 40.6457 124.662 40.1637C124.279 39.3426 123.619 38.6018 122.674 37.9503C122.558 37.861 122.541 37.7628 122.639 37.6468ZM116.621 48.0804C116.898 48.2054 117.031 48.4196 117.022 48.723C117.014 49.1782 116.951 49.5263 116.844 49.7673C116.389 50.7669 116.639 50.99 117.593 50.4367C118.458 49.9369 119.456 49.2853 120.588 48.4731C121.061 48.1429 121.123 47.777 120.775 47.3932C120.57 47.1522 120.339 47.1165 120.062 47.2682L119.67 47.4914C119.251 47.7323 119.046 47.6163 119.064 47.1254L119.091 46.4739C119.091 46.1615 119.26 45.9651 119.572 45.8937L121.729 45.3761C122.469 45.1976 122.808 45.4832 122.728 46.2418L122.549 48.009C122.505 48.491 122.122 48.8658 121.64 48.9015C120.223 49.0086 120.018 50.16 118.779 50.6152C117.441 51.1061 116.104 51.3381 114.767 51.3114C113.813 51.2846 113.243 50.8115 113.055 49.8744C112.601 47.5895 115.141 47.4289 116.621 48.0804ZM115.899 46.6702C115.89 46.3578 116.274 46.0901 116.764 46.0722C117.245 46.0544 117.655 46.2864 117.664 46.5988C117.673 46.9112 117.29 47.179 116.8 47.1968C116.318 47.2147 115.908 46.9826 115.899 46.6702ZM125.661 63.7353C125.803 63.7621 125.768 64.6457 125.572 65.6989C125.375 66.761 125.117 67.591 124.974 67.5732C124.832 67.5464 124.867 66.6628 125.063 65.6096C125.259 64.5475 125.518 63.7175 125.661 63.7353ZM125.42 62.102C125.393 61.4326 125.661 61.0667 126.231 61.022C126.302 61.022 126.365 61.0845 126.347 61.1559C126.204 61.8074 126.071 62.2002 125.937 62.3162C125.607 62.6107 125.438 62.5393 125.42 62.102ZM128.807 59.0049C128.834 58.88 128.968 58.7996 129.102 58.8353L129.788 59.0139C129.913 59.0496 129.993 59.1834 129.957 59.3084L126.775 71.4467C126.748 71.5717 126.615 71.652 126.481 71.6163L125.794 71.4378C125.67 71.4021 125.589 71.2682 125.625 71.1433L128.807 59.0049ZM120.258 68.8406C120.241 71.2414 120.66 71.3218 121.506 69.0637C122.175 67.2697 122.585 65.1276 122.719 62.6553C122.728 62.5482 122.781 62.4858 122.888 62.459C122.96 62.4501 123.04 62.4768 123.12 62.5483C123.165 62.584 123.182 62.6286 123.191 62.6821C123.477 64.967 123.298 67.1983 122.665 69.3761C122.282 70.6881 121.498 71.295 120.562 72.2321C120.339 72.4464 120.187 72.4107 120.098 72.1161C119.206 69.3314 119.001 66.7342 119.474 64.3244C119.545 63.9674 119.741 63.7264 120.062 63.6104C120.374 63.4854 120.455 63.5747 120.303 63.8781C119.322 65.7435 120.267 67.4393 120.258 68.8406ZM113.893 68.3229C113.867 68.1622 113.965 68.0194 114.125 67.9748L114.339 67.9212C114.517 67.8766 114.633 67.9391 114.678 68.1176C115.32 70.6435 115.578 72.7944 115.462 74.5706C115.445 74.8919 115.266 75.1953 114.927 75.4809C114.687 75.6951 114.544 75.6416 114.517 75.3114C114.5 75.1239 114.553 74.9365 114.678 74.7491C114.838 74.5081 114.892 74.2493 114.847 73.9726L113.893 68.3229ZM95.877 71.8037C95.7433 71.3039 95.9038 70.9469 96.3673 70.7238L96.7239 70.5542C97.0537 70.4025 97.4371 70.6345 97.4371 71.0005C97.4638 73.9726 97.241 76.4895 96.7685 78.5334C96.3852 80.2024 96.0464 80.2024 95.7433 78.5155C95.7433 78.453 95.8235 78.0157 96.0286 77.2035C96.4476 75.4988 96.403 73.7048 95.877 71.8037ZM93.4523 63.896C93.1402 63.6728 93.0244 63.7442 93.1224 64.1191C93.3364 64.967 93.8356 65.6275 94.6112 66.1005C94.8697 66.2522 94.9945 66.4843 94.9945 66.7877C94.9945 66.9305 94.9677 67.0644 94.9143 67.1894C94.7805 67.4839 94.629 67.5018 94.4418 67.234C94.1387 66.7967 93.7375 66.52 93.2383 66.395C92.9352 66.3147 92.7213 66.4218 92.5875 66.6985C92.3469 67.1894 92.1062 67.6624 91.8655 68.1087C91.7852 68.2693 91.6783 68.3586 91.5624 68.3854C91.286 68.43 91.1701 68.3229 91.2147 68.0462L91.4732 66.5021C91.5178 66.2255 91.6159 65.9666 91.7674 65.7346C92.1775 65.1187 92.3201 64.3958 92.2042 63.5657C92.1864 63.4408 92.0883 63.3515 91.9635 63.3426L91.4821 63.3158C91.2414 63.298 91.1612 63.4051 91.2325 63.6371C91.8744 65.6096 90.5194 65.8149 89.9845 67.3322C89.8864 67.6267 89.7349 67.6535 89.5298 67.4214C89.1554 66.993 89.0663 66.4754 89.2535 65.8684C89.5744 64.842 89.7705 63.9406 89.8508 63.1641C89.8775 62.8696 90.0469 62.7178 90.3411 62.7C93.5592 62.5304 96.0018 63.8067 97.6599 66.5468C97.8204 66.8056 97.7491 66.9038 97.446 66.8324C95.7344 66.4218 94.8429 64.9134 93.4523 63.896ZM94.1476 81.7197C93.3275 82.7104 92.3023 83.7279 91.0721 84.7632C90.8492 84.9596 90.5015 84.8614 90.4035 84.5847C90.2252 84.0581 90.2787 83.594 90.5639 83.1834C90.7422 82.9246 90.9918 82.7639 91.3038 82.7193L91.7852 82.6479C92.1329 82.5944 92.3825 82.4069 92.5341 82.0767C92.8639 81.3359 93.2918 80.9789 93.8356 81.0057C94.415 81.0324 94.522 81.2645 94.1476 81.7197ZM92.4092 73.7673C91.9011 73.7941 91.4376 73.0086 91.3752 72.009C91.3128 71.0005 91.6693 70.1615 92.1686 70.1347C92.6767 70.1079 93.1402 70.8934 93.2026 71.893C93.2651 72.9015 92.9085 73.7405 92.4092 73.7673ZM85.34 64.3958C85.0369 64.4672 84.7784 64.6635 84.6179 64.9313C83.7175 66.4754 82.63 67.7606 81.3552 68.7959C81.1323 68.9744 80.9897 69.2065 80.9184 69.4832L80.116 72.5892C80.0447 72.8569 80.0536 73.1247 80.1517 73.3835C80.3389 73.919 80.2408 74.3207 79.8486 74.5795C79.5723 74.7669 79.4296 74.6866 79.4385 74.3564C79.4831 72.1875 79.7416 69.9473 80.2319 67.6356C80.4459 66.6092 80.9986 65.9577 81.8811 65.6632C82.0772 65.6007 82.2466 65.5025 82.3893 65.3508C83.4412 64.2887 84.7249 63.6728 86.2404 63.5211C86.8287 63.4586 86.8822 63.6014 86.3919 63.9317C86.0799 64.1459 85.7322 64.2976 85.34 64.3958ZM86.1423 65.7524C85.8838 66.5735 85.4737 67.3143 84.9121 67.9748C84.7249 68.2069 84.6179 68.4746 84.6001 68.7691C84.5288 70.2686 84.6803 73.803 83.3431 74.7223C83.1203 74.874 83.0311 74.8205 83.0668 74.5527L83.8067 68.9298C83.8512 68.6174 83.985 68.3229 84.1989 68.0908C85.0458 67.1894 85.5807 66.3772 85.8214 65.6542C85.857 65.5561 85.9284 65.5204 86.0264 65.5471H86.0353C86.1334 65.5828 86.169 65.6542 86.1423 65.7524ZM77.3169 83.7011C77.3169 85.986 77.0227 87.8335 76.6661 87.8335C76.3095 87.8335 76.0153 85.986 76.0153 83.7011C76.0153 81.4162 76.3095 79.5687 76.6661 79.5687C77.0227 79.5687 77.3169 81.4162 77.3169 83.7011ZM61.2528 86.0574C61.2617 86.2091 61.2171 86.3519 61.1191 86.5036C61.0477 86.6107 61.0032 86.7 60.9764 86.7803C60.9229 86.9499 60.8873 87.0481 60.8784 87.0838C60.6912 87.6907 60.504 87.6907 60.3168 87.0838C60.1652 86.5929 60.3257 86.1823 60.7981 85.8432C60.9853 85.7093 61.235 85.8342 61.2528 86.0574ZM57.7494 92.2247C57.6959 92.787 57.4373 93.3047 57.0362 93.7063L56.4835 94.2507C56.118 94.6167 55.9129 94.5453 55.8862 94.0276L55.5296 88.3779C55.5118 88.0298 55.3335 87.8603 54.9858 87.8692L54.2548 87.887C54.1033 87.887 54.0855 87.8335 54.1924 87.7353C54.2548 87.6728 54.3351 87.6371 54.4331 87.6282C55.7168 87.5479 56.7331 87.4051 57.4819 87.2087C58.6141 86.9142 58.7745 87.1909 57.9633 88.0388C57.8207 88.1905 57.6959 88.4672 57.5978 88.8688C57.366 89.7881 57.8563 91.2786 57.7494 92.2247ZM50.3057 88.6278C50.1185 88.5207 50.0917 88.3868 50.2433 88.2262L50.4037 88.0477C50.4037 88.0477 50.4572 88.012 50.484 88.0209C51.1704 88.3333 51.8925 88.5475 52.6502 88.6635C52.9622 88.7082 53.1494 88.8867 53.2029 89.1991L53.711 92.2783C53.7289 92.3854 53.6576 92.4835 53.5595 92.5103L53.3188 92.5728C53.3188 92.5728 53.301 92.5728 53.301 92.5639C52.8642 90.8056 51.8657 89.4936 50.3057 88.6278ZM53.0514 96.4553C53.0246 96.7855 52.7215 97.0176 52.3917 96.964L51.3041 96.7677C50.8851 96.6963 50.6623 96.4464 50.6355 96.0269C50.5285 94.4114 50.2878 92.8227 49.9223 91.2608C49.8065 90.7699 49.7797 90.2255 49.8421 89.6275C49.851 89.4847 49.9045 89.4757 49.9847 89.5918C50.9475 91.0644 51.8122 92.4032 52.5789 93.5903C53.1851 94.5453 53.1494 95.411 53.0514 96.4553ZM45.7682 89.7703L45.0906 89.5204C44.6271 89.3508 44.1368 89.6899 44.1368 90.1808L44.1814 95.2593C44.1814 95.5538 44.1011 95.8127 43.9407 96.0536C43.3256 96.9462 42.7104 97.8833 42.1132 98.874C41.3465 100.141 41.1058 100.052 41.4 98.5973C41.8725 96.1875 42.5411 93.5903 43.388 90.7967C43.6554 89.9042 44.2081 89.5561 44.636 88.6814C44.8321 88.2797 45.3581 88.1816 45.6879 88.4761C45.8751 88.6457 46.1069 88.7796 46.3833 88.8777C46.6596 88.9759 46.9181 88.9313 47.1499 88.7349C47.5689 88.3779 48.0503 88.1459 48.6119 88.0477C49.022 87.9763 49.0844 88.0923 48.808 88.4047C48.3534 88.9045 48.0949 89.4311 48.0235 89.9755C47.7204 92.4032 47.248 94.7952 46.5972 97.1604C46.517 97.4371 46.3565 97.6602 46.1069 97.8208C45.5542 98.1778 45.1174 98.642 44.7875 99.2221C44.636 99.4809 44.4221 99.5523 44.1546 99.4185C43.9139 99.3024 43.7356 99.1239 43.6197 98.9008C43.3969 98.4635 43.5217 98.1957 43.9942 98.0975L44.3329 98.0261C44.6003 97.9726 44.8232 97.7851 44.9391 97.5263C45.8573 95.4646 46.3922 93.2868 46.5615 91.002C46.6061 90.395 46.3387 89.9845 45.7682 89.7703ZM36.0423 92.7424C35.4005 93.9741 34.7497 94.9023 34.5982 94.8309C34.4377 94.7506 34.83 93.6885 35.4718 92.4478C36.1137 91.2162 36.7644 90.2879 36.916 90.3593C37.0764 90.4397 36.6842 91.5018 36.0423 92.7424ZM32.7796 101.07C32.8687 101.364 32.9133 101.641 32.9044 101.918C32.9044 102.301 32.8242 102.319 32.6815 101.953C31.9238 99.9897 31.8792 98.1243 32.5567 96.3482C32.8242 95.6609 33.0738 95.6609 33.3056 96.366C33.6621 97.446 33.5017 98.7401 32.8331 100.249C32.7172 100.516 32.6994 100.793 32.7796 101.07ZM6.62422 96.723C6.69554 95.768 6.82034 94.5899 7.00755 93.1886C7.0432 92.8941 7.21258 92.7513 7.50676 92.7781C9.15596 92.9119 11.4292 92.43 12.4276 94.1258C13.2032 95.4467 12.8555 95.893 11.3846 95.4735L9.55712 94.9558C9.26293 94.8755 9.03116 94.9469 8.84395 95.1879C8.18427 96.0358 7.7742 96.6338 7.60482 96.9819C6.82034 98.6241 6.4905 98.5349 6.62422 96.723ZM7.51568 103.622C7.48893 105.559 7.13235 107.121 6.72228 107.112C6.30329 107.112 5.99128 105.532 6.01803 103.604C6.04477 101.668 6.40135 100.106 6.81143 100.115C7.23041 100.115 7.54242 101.694 7.51568 103.622ZM149.124 66.4129C144.132 69.26 139.024 70.8755 133.791 71.2414C131.348 71.42 128.87 72.9462 126.721 74.5884C124.323 76.4181 122.175 77.7658 120.276 78.6494C117.29 80.0328 115.079 80.6933 113.644 80.6219C109.356 80.4077 105.951 79.649 102.251 82.7639C100.103 84.5758 98.284 85.9592 96.7952 86.9231C92.6678 89.6007 87.8985 89.3151 81.8455 89.1991C81.3641 89.1901 80.4726 89.4936 79.18 90.1005C76.889 91.1894 74.7316 93.4385 72.8952 94.6256C70.6755 96.0626 68.2597 96.5356 65.3268 96.6516C63.2675 96.732 61.2439 96.8837 59.2381 97.0979C58.5071 97.1782 57.8207 97.4638 57.2501 97.9279C54.0765 100.481 50.8316 102.935 46.6953 103.89C45.6879 104.122 44.1546 104.202 42.1043 104.131C40.562 104.069 39.0198 104.095 37.4776 104.193C35.5342 104.31 33.4125 105.345 31.8703 106.505C28.1529 109.299 24.6762 111.468 21.4492 113.021C18.231 114.565 14.7008 115.261 10.8408 115.091C9.53037 115.038 8.47845 114.77 7.69397 114.297C6.53507 113.592 5.89322 112.637 5.77733 111.414C5.61687 109.807 5.92888 109.709 6.71337 111.119C7.20367 112.012 8.16644 112.556 9.60169 112.744C9.94936 112.788 10.1366 112.637 10.1811 112.289C10.5734 109.12 10.7695 107.112 10.7695 106.264C10.7784 104.229 10.93 102.524 11.2152 101.141C11.2776 100.829 11.447 100.552 11.6966 100.356C13.0605 99.2578 13.2745 98.035 12.3474 96.6963C12.2671 96.5802 12.2939 96.4999 12.4098 96.4374L14.1481 95.5628C14.2818 95.5003 14.4066 95.5181 14.5047 95.6252C15.8152 96.9908 16.8136 98.5973 17.5 100.454C17.6159 100.775 17.5446 100.829 17.2861 100.606C16.5105 99.954 15.9756 98.999 15.6814 97.7316C15.5388 97.089 14.7187 96.8926 14.2908 97.3924C13.8094 97.9637 13.7648 98.5973 14.1481 99.2935C15.0307 100.882 14.8702 102.444 13.6667 103.988C13.2567 104.515 13.3636 104.89 13.9966 105.113C14.9861 105.479 16.0469 105.363 17.1613 104.765C17.4198 104.631 17.5357 104.408 17.5 104.113C17.393 103.301 17.4287 102.524 17.607 101.784C17.705 101.364 17.8923 101.32 18.1686 101.65C18.9263 102.551 19.3899 103.569 19.5593 104.702C19.586 104.899 19.3988 105.059 19.2116 104.988L18.8105 104.845C18.3736 104.684 18.2577 104.809 18.4717 105.229C19.2651 106.755 19.7554 108.353 19.9337 110.022C19.9693 110.325 20.1387 110.513 20.4329 110.584C22.7418 111.173 25.22 108.165 26.9138 106.22C27.1188 105.987 27.2615 105.711 27.3417 105.407C27.725 103.89 28.4293 102.551 29.4366 101.4C29.713 101.087 29.8645 101.141 29.9091 101.552C30.1855 104.149 29.2494 106.184 27.1188 107.674C26.9673 107.772 26.9406 107.897 27.0386 108.049L27.1634 108.237C27.1634 108.237 27.1991 108.263 27.2258 108.254C29.2049 107.05 30.9699 105.505 32.5211 103.631C33.3501 102.632 34.3664 102.257 35.5699 102.507C35.9889 102.596 36.1939 102.426 36.185 101.998C36.1404 98.0707 37.4419 94.7773 38.6276 91.1269C38.69 90.9305 38.6632 90.752 38.5384 90.5825C38.4849 90.5021 38.4225 90.4397 38.3512 90.3772C38.2799 90.3058 38.2799 90.2344 38.3512 90.163C39.0376 89.4311 39.8667 89.2437 40.8384 89.6096C41.1326 89.7078 41.2217 89.9041 41.1058 90.1987C39.7062 93.8402 38.6097 97.562 37.8342 101.373C37.7718 101.668 37.8966 101.802 38.1908 101.784C41.0256 101.632 44.2705 102.025 46.722 101.382C49.5301 100.65 53.4169 99.3381 55.0037 96.732C55.173 96.4553 55.4226 96.2321 55.7257 96.0983C56.5905 95.7145 57.2412 95.17 57.6691 94.4471C57.8028 94.224 57.99 94.1436 58.2397 94.2061C59.3718 94.4739 60.6199 94.4739 61.9838 94.2061C62.278 94.1436 62.4117 93.9651 62.3849 93.6706C61.9481 89.3597 63.4101 86.0752 66.7798 83.7993C66.7798 83.7903 67.5376 83.4066 69.0352 82.6479C69.784 82.2641 70.5507 81.7465 71.3441 81.086C71.5759 80.8986 71.8344 80.8272 72.1107 80.8718C72.4495 80.9343 72.5476 81.1217 72.396 81.4341C72.191 81.8714 71.8701 82.1124 71.4154 82.157C70.8805 82.2195 70.6488 82.871 71.0321 83.2548C72.7169 84.9417 73.8758 86.8071 74.4999 88.842C74.589 89.1187 74.5266 89.3508 74.3037 89.5382L72.0394 91.4928C71.7898 91.707 71.7007 91.6535 71.7809 91.3411C72.4138 88.8063 72.1464 86.459 70.9786 84.308C70.3635 83.1745 69.5523 83.0049 68.5449 83.7993C67.0384 84.9774 65.7636 86.2983 64.7384 87.771C63.9985 88.842 63.7043 90.4664 63.8737 92.6442C63.9361 93.3582 64.2303 93.867 64.7651 94.1615C64.9969 94.2954 65.5407 94.4025 66.3876 94.4917C67.1186 94.5721 67.8228 94.5006 68.4914 94.2775C69.7484 93.867 70.3991 93.6528 70.4616 93.6349C72.6902 93.0369 74.3572 91.6803 75.4715 89.5739C75.6053 89.3329 75.7925 89.1634 76.051 89.0652L79.4118 87.8603C79.9467 87.6639 80.2587 87.1016 80.1339 86.5482C79.9467 85.7271 79.7505 84.906 79.5366 84.0849C79.0106 82.0946 79.6614 80.131 79.7595 78.105C79.7684 77.8104 79.7238 77.5159 79.6079 77.2392C79.4742 76.9179 79.394 76.5877 79.3761 76.2485C79.3672 75.9004 79.4474 75.8736 79.6347 76.1682C81.2571 78.7119 81.0966 82.6568 81.1858 87.0391C81.1947 87.298 81.3195 87.4229 81.578 87.4229H86.1245C86.4097 87.4051 86.5524 87.2623 86.5435 86.9856C86.5167 86.0395 86.0532 85.4326 85.1439 85.1738C84.8675 85.0934 84.6625 84.9149 84.5377 84.6561C83.3877 82.1927 82.309 79.2028 83.5749 77.15C83.9493 76.543 84.8497 76.6234 85.1082 77.2838L86.1958 80.0596C86.276 80.2559 86.4097 80.3184 86.6059 80.256L86.8198 80.1845C86.8198 80.1845 86.8733 80.1488 86.8644 80.1131C86.3562 78.3459 86.4186 76.6412 87.0605 75.0079C87.1675 74.7312 87.2031 74.4456 87.1764 74.1511C86.9892 72.3214 87.2388 70.6077 86.9803 68.7959C86.7485 67.1448 86.802 65.5471 87.1318 64.0209C87.2121 63.655 87.426 63.3337 87.738 63.1195L88.264 62.7535C88.4779 62.6107 88.7721 62.7535 88.781 63.0124C88.8078 63.9406 88.6651 64.851 88.3531 65.7346C87.5686 67.9748 87.5062 70.3311 88.1659 72.7944C88.362 73.5442 88.3085 74.3653 88.0144 75.2578C87.9163 75.5613 87.9252 75.8826 88.05 76.1682L88.8078 78.0157C89.0217 78.5334 89.7616 78.5155 89.9488 77.9889L90.6353 76.0611C91.0007 75.0168 92.4093 74.8383 93.0244 75.7576C93.7732 76.8822 93.9247 78.2388 93.4701 79.8365C93.3899 80.131 93.2116 80.3363 92.9352 80.4612C92.0259 80.8896 91.081 81.1663 90.1004 81.2913C89.7438 81.3359 89.5566 81.1752 89.5477 80.8272L89.5031 79.7026C89.4942 79.5152 89.3961 79.417 89.2089 79.3991L88.8702 79.3634C88.7186 79.3545 88.6473 79.417 88.6384 79.5687L88.6206 83.237C88.6206 83.5672 88.7097 83.8617 88.9058 84.1206L90.2698 85.9949C90.4391 86.2269 90.6709 86.3162 90.9473 86.2716C95.2887 85.5397 98.489 83.2638 100.539 79.4527C100.682 79.1938 100.735 78.9082 100.709 78.6048C100.415 75.3828 100.495 72.1608 100.941 68.9566C100.985 68.5996 101.172 68.4925 101.502 68.6442L101.716 68.7335C101.93 68.8316 102.046 68.9923 102.055 69.2243C102.197 71.4021 102.108 73.7584 101.778 76.3021C101.582 77.7926 102.866 79.06 104.355 78.8547L108.848 78.2299C109.142 78.1853 109.329 78.0246 109.409 77.739C110.435 73.9993 108.063 72.6427 105.701 70.5899C105.166 70.1258 104.667 70.1615 104.194 70.6881C103.963 70.9558 103.579 71.3307 103.053 71.8037C103.053 71.8127 103.027 71.8127 103.018 71.8037L102.813 71.6252C102.732 71.5449 102.723 71.4557 102.795 71.3575C104.31 69.4385 106.129 69.0458 108.25 70.1704C109.08 70.6078 109.124 71.1076 109.151 71.9822C109.16 72.4017 109.231 72.6963 109.365 72.8748C109.481 73.0265 109.605 73.1515 109.757 73.2496C110.051 73.4549 110.194 73.3835 110.185 73.0265L110.078 68.5817C110.069 68.2426 110.238 68.0819 110.568 68.0998L111.379 68.1533C111.691 68.1712 111.959 68.0819 112.182 67.8766C112.405 67.6803 112.628 67.4928 112.85 67.3233C113.278 66.993 113.394 67.0823 113.198 67.591C113.153 67.707 113.091 67.8231 113.02 67.9212C112.948 68.0373 112.904 68.1801 112.913 68.3229L113.269 74.035C113.278 74.16 113.225 74.2314 113.091 74.2493L112.868 74.276C112.815 74.285 112.788 74.2582 112.779 74.2136C112.458 72.6516 111.941 71.3396 111.237 70.2864C110.907 69.7866 110.782 69.8313 110.862 70.4293C110.996 71.3664 110.978 72.4196 110.791 73.5709C110.773 73.687 110.648 73.7494 110.55 73.7048C110.47 73.6691 110.399 73.6513 110.319 73.6602C110.23 73.6691 110.185 73.7227 110.176 73.8208C110.149 74.1243 110.229 74.3831 110.399 74.5973C110.577 74.8205 110.72 74.8026 110.827 74.5349L110.916 74.3028C110.969 74.1511 111.076 74.0886 111.237 74.1154C111.46 74.1511 111.593 74.3385 111.638 74.6866C111.763 75.8022 111.781 76.6948 111.683 77.382C111.62 77.8372 111.816 78.0336 112.271 77.9711L115.489 77.5427C115.962 77.4802 116.086 77.2303 115.881 76.8108C115.694 76.4449 115.73 76.0254 115.97 75.5434C116.229 75.0347 116.389 74.4724 116.47 73.8387C116.701 72.009 116.773 70.1704 116.675 68.3229C116.63 67.3857 116.764 66.752 117.076 66.4218C117.816 65.6453 118.11 65.7881 117.958 66.8502C117.486 70.0544 117.334 73.3032 117.495 76.5966C117.513 76.8911 117.664 76.9893 117.941 76.8911C122.87 75.0436 127.497 72.6516 131.812 69.6974C132.061 69.5278 132.222 69.2957 132.284 69.0012L134.29 60.1206C133.657 59.2995 133.461 58.3891 133.719 57.3984C133.835 56.961 134.04 56.6487 134.343 56.4791C134.655 56.3095 134.718 56.372 134.548 56.6844C134.04 57.6037 133.96 58.7461 134.29 60.1206C134.923 61.0399 135.048 62.218 134.655 63.655C134.29 64.9581 134.459 66.2969 135.164 67.6803C135.297 67.948 135.52 68.0908 135.814 68.0998C137.107 68.1622 138.212 68.0641 139.131 67.8052C140.619 67.3768 141.894 67.0823 142.973 66.9127C144.114 66.7253 145.13 66.1451 146.013 65.1634C146.209 64.9491 146.449 64.8063 146.726 64.7439C149.65 64.012 151.433 62.584 152.083 60.4508C152.752 58.2641 153.153 55.5152 153.305 52.195C153.305 52.1503 153.332 52.1236 153.376 52.1325H153.608C153.759 52.1503 153.84 52.2217 153.831 52.3735C153.777 53.9532 153.84 55.4259 154.009 56.7915C154.58 61.2184 153.242 64.0655 149.124 66.4129ZM71.1836 92.2515L70.6042 93.028C70.5239 93.144 70.3457 93.1083 70.31 92.9655C70.2654 92.7602 70.3011 92.546 70.3991 92.3318C70.5507 92.0373 70.7379 91.8766 70.9786 91.8677C71.3173 91.8588 71.3887 91.9837 71.1836 92.2515ZM69.1244 85.8878L68.8926 90.752C68.8748 91.2072 68.4914 91.5553 68.0368 91.5375H67.8763C67.4217 91.5107 67.074 91.1269 67.0918 90.6717L67.3236 85.8075C67.3414 85.3523 67.7248 85.0042 68.1794 85.022H68.3399C68.7945 85.0488 69.1422 85.4326 69.1244 85.8878ZM103.909 74.2314C104.07 73.9547 104.283 73.9101 104.551 74.0886C105.032 74.4188 105.3 75.0079 105.353 75.8469C105.38 76.2485 105.193 76.4716 104.792 76.5341C104.23 76.6144 103.873 76.3824 103.731 75.8469C103.561 75.2489 103.624 74.7134 103.909 74.2314ZM136.635 58.3445C136.911 58.1749 137.053 58.2552 137.045 58.5854C137.018 59.8707 136.857 61.1113 136.572 62.3162C136.492 62.6643 136.403 62.6643 136.314 62.3251C135.948 61.0042 135.137 59.2102 136.635 58.3445ZM138.694 64.0388C138.81 63.887 138.943 63.8781 139.077 64.012C139.603 64.5386 140.218 64.8331 140.94 64.9045C140.967 64.9134 140.994 64.9402 140.985 64.9759L140.913 65.2704C140.869 65.449 140.762 65.4936 140.601 65.4133L138.587 64.4226C138.507 64.3779 138.489 64.3244 138.542 64.244L138.694 64.0388ZM138.712 59.8885C138.943 57.9696 139.398 56.4434 139.737 56.488C140.076 56.5237 140.174 58.1124 139.951 60.0313C139.719 61.9503 139.264 63.4765 138.926 63.4319C138.587 63.3961 138.489 61.8075 138.712 59.8885ZM142.661 62.5215C142.598 62.7089 142.474 62.7892 142.286 62.7446L142.055 62.7C142.055 62.7 142.001 62.6732 142.01 62.6375C142.411 60.2723 142.277 57.925 141.609 55.6133C141.573 55.4884 141.636 55.3456 141.76 55.3099L142.001 55.2295C142.144 55.1849 142.242 55.2295 142.295 55.3634C143.249 57.7108 143.374 60.0938 142.661 62.5215ZM143.249 63.9674C143.285 64.0477 143.303 64.1191 143.312 64.1994C143.338 64.967 143.089 65.5918 142.563 66.0826C142.375 66.2522 142.072 66.0826 142.108 65.8417L142.331 64.1994C142.358 64.0031 142.5 63.8513 142.696 63.8067C142.973 63.7442 143.151 63.7978 143.249 63.9674ZM144.649 64.3065C144.765 63.9495 144.907 63.8424 144.943 63.4229C145.13 60.6204 145.291 57.8089 145.424 54.9975C145.469 53.9354 145.656 53.9086 145.968 54.9261C146.28 55.9525 146.449 57.1574 146.494 58.5497C146.539 60.2366 145.852 61.9503 145.603 63.7264C145.567 63.9941 145.442 64.2084 145.219 64.369L144.97 64.5386C144.622 64.7885 144.515 64.7082 144.649 64.3065ZM148.339 59.7279C147.796 57.8179 147.653 55.8722 147.911 53.8818C147.92 53.8015 147.974 53.7569 148.054 53.7658H148.063C148.143 53.7747 148.188 53.8194 148.197 53.8997C148.232 55.7651 148.535 57.5858 149.115 59.3441C149.454 60.3705 149.552 61.1648 149.418 61.7093C149.159 62.7178 148.589 63.3783 147.697 63.6907C147.421 63.7889 147.332 63.6996 147.421 63.4229L148.33 60.6025C148.42 60.308 148.42 60.0224 148.339 59.7279ZM150.871 55.6312C151.139 55.6312 151.317 56.6754 151.272 57.9339C151.228 59.1924 150.978 60.2098 150.711 60.2009C150.443 60.2009 150.265 59.1567 150.309 57.8982C150.354 56.6397 150.604 55.6223 150.871 55.6312ZM150.702 45.6706C150.702 45.5903 150.72 45.5099 150.764 45.4475C150.827 45.3314 150.862 45.2154 150.853 45.0815C150.827 44.2515 151.058 43.5018 151.531 42.8413C151.718 42.5825 151.861 42.6092 151.968 42.9127C152.422 44.1979 152.119 45.1886 151.049 45.8759C150.809 46.0365 150.693 45.9651 150.702 45.6706ZM156.006 42.5111C155.391 43.1894 155.168 44.0016 155.346 44.9477C155.426 45.4207 155.328 45.4653 155.034 45.0815L154.178 43.957C153.982 43.6981 153.991 43.4482 154.214 43.2072C155.061 42.279 155.212 41.0384 154.651 39.4765C154.58 39.2801 154.651 39.057 154.829 38.932L155.061 38.7803C155.23 38.6643 155.364 38.6911 155.462 38.8606C155.738 39.298 155.819 39.771 155.703 40.2797C155.605 40.7171 155.703 41.1009 155.997 41.44C156.309 41.806 156.318 42.163 156.006 42.5111ZM158.769 44.0551C158.466 44.3497 158.35 44.2872 158.413 43.8677C158.538 43.118 159.081 42.3683 159.171 41.6721C159.402 39.8246 158.716 38.4144 157.12 37.4594C156.862 37.3076 156.612 37.3166 156.354 37.4683C155.765 37.8432 155.114 38.102 154.41 38.2359C154.116 38.2894 153.875 38.4233 153.67 38.6375C153.608 38.7 153.554 38.7625 153.492 38.816C153.358 38.9499 153.207 38.9945 153.028 38.9499C152.699 38.8696 152.395 38.8963 152.119 39.0302C151.905 39.1284 151.718 39.3337 151.558 39.6639C151.352 40.0834 151.139 40.5029 150.933 40.9224C150.8 41.1812 150.586 41.3419 150.301 41.4043C148.723 41.7256 148.455 43.7427 148.455 45.0905C148.446 45.3314 148.232 45.5099 148.001 45.4653C147.849 45.4385 147.751 45.3404 147.715 45.1708C147.368 43.4482 147.929 42.1451 149.382 41.2526C149.632 41.1009 149.81 40.8867 149.908 40.61C150.167 39.9049 150.514 39.2712 150.96 38.7C151.147 38.4679 151.237 38.2716 151.237 38.1109C151.237 37.9949 151.219 37.8789 151.165 37.7718C151.049 37.5308 150.88 37.4772 150.657 37.6289C149.489 38.4054 148.723 39.4765 148.366 40.8331C148.286 41.1455 148.081 41.3062 147.751 41.3151H147.448C147.234 41.3151 147.038 41.4222 146.913 41.5918L145.62 43.3947C145.415 43.6803 145.362 43.9927 145.469 44.3229C145.585 44.6977 145.594 45.0726 145.505 45.4564C145.451 45.6617 145.317 45.8402 145.121 45.9384L144.72 46.1258C144.533 46.215 144.319 46.0722 144.319 45.867V41.7792C144.31 41.3597 144.141 41.2705 143.802 41.5204L143.347 41.8595C143.222 41.9577 143.151 42.1094 143.16 42.2612C143.276 43.9123 142.821 45.1797 141.796 46.0633C141.511 46.3132 141.065 46.1972 140.94 45.8402C140.343 44.1533 139.87 43.0734 139.523 42.5914C139.353 42.3593 139.148 42.3147 138.899 42.4486L138.578 42.6271C138.177 42.8502 138.159 43.0912 138.533 43.35L139.006 43.6892C139.273 43.8766 139.434 44.1355 139.478 44.4657L139.897 47.3932C140.12 48.9015 139.826 48.9997 139.033 47.7056C136.064 42.877 132.142 38.6286 127.265 34.9603C124.359 32.7736 121.399 30.5423 118.386 28.2753C116.372 26.7669 114.295 25.3657 112.164 24.0715C109.873 22.6702 107.573 21.5456 105.273 20.6799C104.257 20.2961 103.267 19.8855 102.313 19.4482C101.422 19.0466 100.468 18.7253 99.4429 18.4932C90.0825 16.3601 90.4213 5.61407 99.9064 4.56982C101.832 4.36454 103.758 4.39131 105.674 4.65907C113.198 5.70332 120.348 7.93464 127.114 11.3619C134.272 14.9945 140.967 19.3233 147.198 24.3482C150.309 26.8651 152.859 30.0336 155.801 32.8093C155.979 32.9789 156.006 33.2556 155.863 33.4519L155.712 33.6572C155.578 33.8268 155.337 33.8536 155.168 33.7197C154.695 33.3359 154.196 33.2556 153.652 33.4966C153.358 33.6215 153.055 33.6483 152.743 33.5769C151.994 33.3984 151.379 33.6126 150.907 34.2284C150.728 34.4605 150.497 34.5854 150.202 34.6122C148.999 34.7282 148.232 35.3352 147.911 36.4419C147.778 36.8882 147.885 36.9506 148.215 36.6204C149.953 34.9157 151.878 34.5854 153.973 35.6118C154.241 35.7457 154.517 35.7725 154.802 35.6922C155.186 35.594 155.596 35.6118 156.015 35.7636C156.354 35.8885 156.576 35.7814 156.683 35.4333L156.799 35.0942C156.915 34.7193 157.076 34.7015 157.281 35.0406C158.359 36.8257 159.215 38.4501 159.83 39.9049C160.561 41.6185 160.017 42.8413 158.769 44.0551Z" fill="#010101"/>
<path d="M97.6869 14.7177L97.8384 13.013C97.8384 12.8881 97.9097 12.8345 98.0434 12.8524L98.3109 12.8881C98.4892 12.9148 98.5694 13.0219 98.5516 13.1915L98.2574 15.9583C98.2307 16.235 98.088 16.3243 97.8295 16.244L95.69 15.5656C95.4315 15.4853 95.2354 15.3157 95.1195 15.0658C93.6486 12.0848 94.5578 9.8981 97.8562 8.50576C98.1237 8.38973 98.4357 8.53253 98.5248 8.81814L98.6229 9.13945C98.6764 9.31796 98.5427 9.49646 98.3465 9.50539C97.3749 9.51431 96.5636 9.95165 95.9129 10.8174C95.0481 11.9688 95.583 13.4236 95.9485 14.691C96.0288 14.9855 96.216 15.1908 96.5101 15.2889C96.7241 15.3693 96.938 15.3782 97.1609 15.3246C97.4818 15.2532 97.6601 15.048 97.6869 14.7177Z" fill="#010101"/>
<path d="M100.53 10.2641C100.941 10.3087 101.297 10.514 101.609 10.8621C101.85 11.1299 101.796 11.3084 101.449 11.3887C101.012 11.4958 100.602 11.2816 100.236 10.755C100.085 10.5319 100.263 10.2284 100.53 10.2641Z" fill="#010101"/>
<path d="M118.288 13.2808C118.288 13.8163 117.86 14.2447 117.326 14.2447C116.791 14.2447 116.363 13.8163 116.363 13.2808C116.363 12.7453 116.791 12.3169 117.326 12.3169C117.86 12.3169 118.288 12.7453 118.288 13.2808Z" fill="#010101"/>
<path d="M103.481 16.3869C103.651 16.3333 103.677 16.1102 103.526 16.021L102.839 15.6193C102.688 15.5301 102.501 15.5211 102.34 15.6015C101.404 16.0477 101.03 16.7439 101.235 17.69C101.27 17.8774 101.119 18.047 100.932 18.0291L100.691 18.0113C100.397 17.9845 100.165 17.7614 100.138 17.4758C100.049 16.7618 100.281 16.1013 100.842 15.4944C101.413 14.8785 102.108 14.6465 102.928 14.7893C103.526 14.8875 104.114 15.2088 104.702 15.7354C104.925 15.9406 105.193 16.0567 105.496 16.1013L106.485 16.2352C106.878 16.2887 107.136 16.5029 107.27 16.8778C107.493 17.5293 107.938 17.806 108.607 17.7257C108.91 17.6811 109.195 17.8685 109.285 18.1541C109.463 18.6807 109.802 19.0198 110.31 19.1894C110.729 19.3233 110.969 19.1805 111.014 18.7432C111.05 18.4486 111.041 18.1719 110.978 17.9042C110.916 17.6007 111.032 17.4758 111.344 17.5204C111.522 17.5472 111.674 17.6275 111.79 17.7614C112.012 17.9934 112.057 18.2612 111.932 18.5557C111.656 19.1716 111.691 19.8142 112.03 20.4925C112.146 20.7156 112.431 20.796 112.636 20.6532L113.029 20.3765C113.296 20.198 113.35 19.8231 113.145 19.5821C113.073 19.4929 113.02 19.3858 112.975 19.2698C112.859 18.9038 112.993 18.7432 113.376 18.7967C114.91 19.0198 115.712 19.8499 115.783 21.2869C115.828 22.3311 115.525 22.4561 114.865 21.6439C114.794 21.5546 114.705 21.3226 114.589 20.9477C114.491 20.6442 114.295 20.5461 113.991 20.6442C113.84 20.6889 113.724 20.8049 113.653 20.9923C113.555 21.2512 113.367 21.394 113.1 21.4386C112.226 21.5814 111.531 21.4654 111.005 21.0816C109.873 20.2426 108.91 19.6803 108.117 19.3947C107.849 19.2965 107.653 19.118 107.519 18.8592C107.377 18.5736 107.19 18.3326 106.967 18.1273C106.753 17.922 106.53 17.922 106.307 18.1273C106.084 18.3326 105.835 18.4843 105.576 18.5825C105.282 18.6896 105.166 18.5914 105.219 18.288C105.335 17.6364 105.3 17.0563 105.104 16.5386C104.925 16.0745 104.283 16.0477 104.07 16.494C103.722 17.2526 103.151 17.8596 102.358 18.3326C102.082 18.5022 101.734 18.2523 101.814 17.9399C102.001 17.1723 102.563 16.6547 103.481 16.3869Z" fill="#010101"/>
<path d="M128.246 17.5738C127.907 17.8504 127.248 17.6095 126.775 17.0382C126.303 16.467 126.196 15.7709 126.534 15.4942C126.873 15.2175 127.533 15.4585 128.005 16.0297C128.478 16.6009 128.585 17.2971 128.246 17.5738Z" fill="#010101"/>
<path d="M118.003 21.251C118.199 20.8226 118.467 20.769 118.805 21.0903L119.126 21.3938C119.34 21.5902 119.322 21.7687 119.082 21.9382C118.467 22.3488 118.092 22.9557 117.959 23.7679C117.869 24.2767 117.629 24.357 117.245 24.0268C117.031 23.8482 116.88 23.6251 116.782 23.3484C116.657 22.9736 116.791 22.5541 117.112 22.322C117.504 22.0453 117.798 21.6883 118.003 21.251Z" fill="#010101"/>
<path d="M123.913 25.2139C123.744 25.5263 123.486 25.6691 123.156 25.6601C122.817 25.6512 122.639 25.4727 122.63 25.1336L122.576 23.5092C122.567 23.1968 122.719 23.054 123.031 23.0629C124.101 23.1075 125.126 23.3307 126.115 23.7234C126.41 23.8394 126.472 24.0268 126.303 24.2946C126.258 24.3571 126.205 24.4195 126.124 24.4731C126.044 24.5177 125.937 24.5445 125.803 24.5445C125.367 24.5445 124.948 24.607 124.546 24.723C124.27 24.8033 124.065 24.964 123.913 25.2139Z" fill="#010101"/>
<path d="M127.916 24.125C128.531 24.3482 129.093 24.6784 129.583 25.1068C129.842 25.3389 129.904 25.6156 129.77 25.9458L129.663 26.1868C129.548 26.4456 129.387 26.4813 129.164 26.3117C128.362 25.687 127.791 25.1961 127.453 24.848C126.552 23.9287 126.713 23.6877 127.916 24.125Z" fill="#010101"/>
<path d="M140.905 26.4902C140.682 26.8562 139.63 26.5973 138.533 25.928C137.446 25.2586 136.751 24.4196 136.973 24.0626C137.196 23.6966 138.248 23.9555 139.345 24.6249C140.432 25.2943 141.128 26.1332 140.905 26.4902Z" fill="#010101"/>
<path d="M123.691 28.204C123.994 29.1947 124.208 29.5517 124.769 30.2568C124.823 30.3192 124.832 30.4085 124.787 30.5067C124.76 30.5691 124.734 30.5781 124.689 30.5245L121.97 27.0169C121.729 26.7134 121.801 26.6153 122.166 26.7134C122.951 26.9187 123.459 27.4185 123.691 28.204Z" fill="#010101"/>
<path d="M84.6982 32.4075C83.8692 32.2469 83.3076 32.0773 82.9955 31.8988C82.2913 31.4971 82.3626 30.9438 83.2273 30.2387C83.6909 29.8549 84.3238 29.7389 84.9033 29.9263L87.4261 30.7474C87.7024 30.8367 87.8451 31.0241 87.854 31.3186L87.961 34.5049C87.9699 34.8262 87.8451 35.0851 87.5866 35.2814C86.2494 36.2721 85.037 36.2632 83.9494 35.2547C83.2095 34.5674 83.1114 33.9069 83.6641 33.2911C83.8513 33.0769 84.092 32.943 84.3773 32.8805C84.5288 32.8448 84.6626 32.7824 84.7695 32.6931C84.9389 32.5414 84.9211 32.4521 84.6982 32.4075Z" fill="#010101"/>
<path d="M148.999 31.8898C148.108 32.3182 147.359 31.9344 146.762 30.7295C146.556 30.2921 146.69 30.0601 147.163 30.0155L147.591 29.9708C148.045 29.9262 148.33 30.1315 148.446 30.5777C148.527 30.8812 148.696 31.14 148.955 31.3453C149.186 31.5327 149.436 31.5506 149.694 31.3989C150.372 31.024 151.388 30.6938 152.075 31.2114C152.404 31.4613 152.592 31.7916 152.636 32.2021C152.699 32.6841 152.556 32.7466 152.226 32.3985L151.977 32.1307C151.789 31.9344 151.513 31.8719 151.254 31.9612C150.737 32.1486 150.247 32.1307 149.775 31.8987C149.516 31.7648 149.258 31.7648 148.999 31.8987V31.8898Z" fill="#010101"/>
<path d="M131.437 30.2565C131.696 30.5331 131.598 31.0508 131.223 31.4167C130.849 31.7916 130.323 31.8719 130.056 31.5952C129.797 31.3186 129.895 30.8009 130.269 30.435C130.644 30.0601 131.17 29.9798 131.437 30.2565Z" fill="#010101"/>
<path d="M134.967 31.8006C135.11 31.6489 135.28 31.5597 135.476 31.515C135.841 31.4347 136.011 31.5864 135.993 31.9613C135.948 32.711 135.627 33.3269 135.03 33.7999C134.771 34.0052 134.557 33.9695 134.388 33.7017C134.183 33.3893 134.058 33.0502 134.023 32.6932C133.987 32.3897 134.112 32.1755 134.397 32.0595L134.878 31.8542C134.878 31.8542 134.941 31.8274 134.967 31.8006Z" fill="#010101"/>
<path d="M146.619 38.8962C146.387 39.3156 145.95 39.4495 145.309 39.2978C144.952 39.2175 144.791 38.9854 144.827 38.6195L144.898 37.9322C144.925 37.6466 145.21 37.4592 145.478 37.5395C146.057 37.718 146.601 37.6734 147.127 37.4146C147.51 37.2271 147.591 37.3164 147.368 37.6823C147.27 37.8341 147.172 37.9858 147.056 38.1375C147.029 38.1643 146.877 38.4231 146.619 38.8962Z" fill="#010101"/>
<path d="M70.4259 40.3424C70.1228 40.1906 69.8286 40.0211 69.5344 39.8158C69.2759 39.6284 69.267 39.432 69.4898 39.2178C70.6131 38.12 72.1018 38.0664 73.9561 39.0393C74.589 39.3695 74.7049 39.8336 74.2948 40.4138C73.8758 41.0118 73.5727 41.6812 73.3677 42.4398C73.2696 42.8147 72.8328 43.0021 72.4941 42.8057C71.7987 42.4041 71.2906 41.7793 70.9697 40.9404C70.8627 40.6726 70.6844 40.4763 70.4259 40.3424Z" fill="#010101"/>
<path d="M139.255 38.3428C139.55 38.1643 139.612 38.2268 139.434 38.5303C138.979 39.2978 138.31 40.0118 137.437 40.6723C137.223 40.8419 137.054 40.8062 136.92 40.5652L136.768 40.2975C136.643 40.0654 136.688 39.8869 136.911 39.753L139.255 38.3428Z" fill="#010101"/>
<path d="M102.037 48.2767C102.732 47.295 103.107 46.7505 103.232 45.3135C103.258 45.0101 103.419 44.903 103.713 45.0012C104.453 45.2511 104.907 45.7598 105.077 46.5363C105.139 46.8308 105.023 47.0004 104.729 47.054C103.811 47.2325 103.035 47.643 102.403 48.2946C102.322 48.3749 102.242 48.4285 102.153 48.4463C101.966 48.4909 101.93 48.4285 102.037 48.2767Z" fill="#010101"/>
<path d="M130.243 47.7501C129.868 47.3574 129.539 46.929 129.244 46.456C129.075 46.1793 129.146 46.0811 129.458 46.1436C131.143 46.4917 131.972 47.4467 131.963 49.0086C131.963 49.2763 131.874 49.5084 131.696 49.7137L129.824 51.8736C129.672 52.0432 129.61 52.0164 129.628 51.7933C129.717 50.9186 130.002 50.0885 130.475 49.2942C130.626 49.0354 130.555 48.8747 130.252 48.8301L129.949 48.7855C129.753 48.7587 129.717 48.6605 129.851 48.5088C129.949 48.3927 130.065 48.2946 130.198 48.2053C130.394 48.0714 130.412 47.9197 130.243 47.7501Z" fill="#010101"/>
<path d="M105.781 48.6245C105.879 48.5531 106.022 48.5889 106.075 48.696C106.307 49.1333 106.316 49.5796 106.102 50.0169C105.906 50.4096 105.603 50.7309 105.229 50.9362C104.132 51.561 102.92 51.8555 101.591 51.8287C101.279 51.8198 101.155 51.6681 101.199 51.3646C101.199 51.2932 101.235 51.2218 101.262 51.1504C101.306 51.0611 101.369 51.0076 101.467 50.9897C102.224 50.8559 103.66 50.0615 105.781 48.6245Z" fill="#010101"/>
<path d="M115.445 50.6686C115.124 50.7043 114.83 50.392 114.785 49.9725C114.74 49.553 114.963 49.1871 115.275 49.1424C115.596 49.1067 115.89 49.4191 115.935 49.8386C115.98 50.2581 115.757 50.624 115.445 50.6686Z" fill="#010101"/>
<path d="M52.2313 59.0226C51.5984 59.1029 51.0279 59.3617 50.5108 59.7991C50.2701 60.0044 50.0383 60.0044 49.7977 59.7991L48.6209 58.7727C48.4159 58.5942 48.3267 58.371 48.3624 58.0944L48.7636 54.9527C48.8795 54.0155 49.869 53.4622 50.7248 53.8549C52.4007 54.6135 53.6666 56.0326 54.5224 58.1122C54.6383 58.3889 54.6115 58.6567 54.46 58.9155C54.0232 59.6295 53.4526 60.1739 52.7662 60.5577C52.4007 60.763 52.2848 60.6648 52.4007 60.2632L52.6236 59.5046C52.7395 59.1386 52.6057 58.978 52.2313 59.0226Z" fill="#010101"/>
<path d="M92.4629 53.7388C92.971 53.7388 93.0067 53.8369 92.552 54.069L91.5892 54.5688C91.3307 54.7027 91.2327 54.6224 91.2951 54.3368C91.3753 53.9619 91.7675 53.7655 92.4629 53.7388Z" fill="#010101"/>
<path d="M82.6478 55.4168L82.5052 56.4075C82.4339 56.8716 82.0951 57.2465 81.6494 57.3625C80.3389 57.7016 79.1979 57.6481 78.2262 57.1929C77.932 57.059 77.8339 56.8448 77.9231 56.5414C78.3331 55.0598 80.9451 55.1312 82.0505 54.8634C82.523 54.7474 82.7191 54.9348 82.6478 55.4168Z" fill="#010101"/>
<path d="M97.3122 55.6223C96.6793 56.4345 96.0553 56.8629 95.4223 56.8986C95.146 56.9164 94.9855 56.7825 94.9588 56.4969C94.9499 56.3898 94.9588 56.2827 94.9944 56.1756C95.039 56.0328 95.1282 55.9436 95.2797 55.9079L97.1785 55.4259C97.4192 55.3634 97.4638 55.4348 97.3122 55.6223Z" fill="#010101"/>
<path d="M58.2041 60.2989L59.9425 60.3971C60.2366 60.4149 60.4595 60.6559 60.4506 60.9504C60.3882 62.441 59.5948 63.3781 58.0704 63.7797C57.5979 63.9047 57.2324 63.7797 56.965 63.387C56.7421 63.0746 56.76 62.7712 57.0096 62.4767C57.4285 61.9679 57.6603 61.3967 57.696 60.763C57.7049 60.4953 57.9367 60.281 58.2041 60.2989Z" fill="#010101"/>
<path d="M71.5492 67.8052C71.46 67.8142 71.255 67.7785 70.943 67.6981C70.6488 67.6178 70.5775 67.4482 70.7469 67.1894C71.1213 66.6271 71.5848 66.2344 72.1375 66.0202C72.5654 65.8595 73.029 66.1719 73.029 66.636C73.029 68.2158 72.7348 69.6528 72.1554 70.9559C72.0306 71.2325 71.8166 71.3664 71.5224 71.3753C70.7112 71.3753 70.0961 71.3486 69.6593 71.2772C68.224 71.0273 68.1795 70.6256 69.5256 70.0633C70.2476 69.7599 71.0232 69.2601 71.8523 68.5639C72.5298 68.0016 72.4317 67.7428 71.5492 67.8052Z" fill="#010101"/>
<path d="M21.7078 76.5787C21.3334 76.3556 21.066 76.0254 20.9055 75.6059C20.7718 75.2578 20.7985 74.874 20.9768 74.4545C21.7167 72.7141 23.0807 71.9287 25.0686 72.0983C25.3985 72.125 25.6124 72.2857 25.7105 72.5981L26.4682 74.8919C26.7802 75.8558 26.2899 76.8911 25.3539 77.2571C24.1772 77.7122 22.635 77.1321 21.7078 76.5787Z" fill="#010101"/>
<path d="M45.5811 78.5869L48.5853 77.5605C49.0667 77.3909 49.6015 77.6408 49.7888 78.1138L50.8585 80.7825C51.117 81.4162 50.6624 82.0945 49.9849 82.1124L44.8322 82.1927C44.0745 82.1927 43.602 81.3716 44.0032 80.72L45.0729 78.9885C45.1888 78.8011 45.3671 78.6583 45.5811 78.5869Z" fill="#010101"/>
<path d="M101.021 79.988C101.208 79.2294 101.413 78.7207 101.636 78.4797C101.778 78.3369 102.028 78.3993 102.073 78.5957C102.304 79.5686 102.091 80.1576 101.44 80.3718C101.065 80.4968 100.923 80.3718 101.021 79.988Z" fill="#010101"/>
<path d="M33.4928 83.7636C33.1808 83.3263 32.8242 83.2906 32.4409 83.6387C30.7382 85.1827 29.1514 85.4148 27.6983 84.317C26.3344 83.2906 25.853 81.9786 26.2453 80.3809C26.3166 80.0864 26.477 79.8454 26.7266 79.6759C27.7875 78.9351 28.6968 79.0243 29.4634 79.9347C29.6506 80.1578 29.8735 80.3452 30.132 80.4791L33.8672 82.5587C34.1079 82.6926 34.3575 82.7729 34.625 82.7997C34.8389 82.8265 35.044 82.8711 35.249 82.9425C35.561 83.0496 35.6056 83.2281 35.3827 83.4691C35.0172 83.8707 34.5715 84.1474 34.0544 84.2902C33.8405 84.3527 33.6979 84.2813 33.6176 84.076C33.5374 83.8796 33.5017 83.7725 33.4928 83.7636Z" fill="#010101"/>
<path d="M87.0339 84.031C86.8289 84.0935 86.4812 83.5401 86.2672 82.7993C86.0533 82.0585 86.0622 81.4159 86.2672 81.3534C86.4723 81.291 86.8199 81.8443 87.0339 82.5851C87.2478 83.3259 87.2389 83.9685 87.0339 84.031Z" fill="#010101"/>
<path d="M18.2222 86.9231L15.842 86.1198C15.4141 85.977 15.1823 85.5129 15.3071 85.0845L15.8598 83.2637C15.9846 82.8353 16.4393 82.5765 16.8761 82.7014L18.4361 83.1209C18.766 83.2102 19.0067 83.4868 19.0512 83.826L19.3276 86.0216C19.3989 86.6375 18.8105 87.1194 18.2222 86.9231Z" fill="#010101"/>
<path d="M25.7014 93.6436C25.1755 93.483 25.015 92.4923 25.3448 91.4391C25.6747 90.3859 26.3611 89.663 26.8782 89.8236C27.4041 89.9843 27.5646 90.975 27.2347 92.0281C26.9049 93.0813 26.2185 93.8043 25.7014 93.6436Z" fill="#010101"/>
<path d="M17.9458 109.611L18.7303 109.664C19.274 109.709 19.5415 110.343 19.2027 110.771C17.919 112.369 16.3946 113.118 14.6385 113.011C13.4172 112.94 12.499 111.869 12.6149 110.646L12.9269 107.451C12.9536 107.156 13.123 107.005 13.4172 107.014C15.1466 107.049 16.4392 107.781 17.295 109.209C17.4466 109.45 17.6605 109.584 17.9458 109.611Z" fill="#010101"/>
<path d="M101.502 43.6801C100.762 43.3499 99.8173 42.7519 98.6762 41.8861C96.5545 40.2707 94.1833 39.1639 91.5535 38.5838C88.7988 37.9769 85.4381 38.1286 81.4711 39.0479C75.7122 40.3778 72.5565 47.3752 76.7642 52.1234C76.9425 52.3287 77.1653 52.4269 77.4328 52.4269L86.0799 52.5429C86.4097 52.5518 86.6504 52.891 86.6148 53.2926C86.6148 53.3819 86.6415 53.4979 86.7128 53.6318C86.8466 53.8995 87.2388 53.8906 87.3547 53.6139C88.1392 51.8646 91.7407 52.4626 93.372 52.5161C93.693 52.525 93.9515 52.6678 94.1476 52.9267L95.0391 54.1137C95.2084 54.3547 95.4491 54.4618 95.7433 54.435L97.6154 54.3101C97.8917 54.2833 98.1235 54.1584 98.2929 53.9263C98.4266 53.7389 98.5336 53.5247 98.6049 53.2837C98.694 52.9802 98.596 52.766 98.3018 52.65C97.9809 52.5161 97.6421 52.4358 97.2766 52.4179C96.822 52.3912 96.51 52.3108 96.3317 52.177C95.9216 51.8467 95.7611 51.3915 95.8503 50.8025C95.9038 50.4812 96.1088 50.2045 96.403 50.0706C97.3212 49.669 98.0878 49.1156 98.7208 48.4105C98.9169 48.1963 98.9971 47.9464 98.9615 47.6519C98.8099 46.3041 99.4607 45.5098 100.932 45.2688C101.511 45.1706 101.832 44.8493 101.877 44.3227C101.903 44.0103 101.778 43.7961 101.502 43.6801ZM87.6221 44.046C86.276 45.483 84.7695 46.6254 83.1024 47.4912C81.9881 48.0713 80.9362 47.9553 79.9645 47.152C79.804 47.0182 79.6347 46.8664 79.4474 46.7147C78.4758 45.9114 78.5025 45.1528 79.5455 44.4388C81.3552 43.216 82.9776 42.5823 84.4307 42.5377C84.7427 42.5288 84.7873 42.6359 84.5644 42.859C83.6284 43.814 82.8172 44.8582 82.1486 45.9918C81.9792 46.2863 82.0594 46.4202 82.3982 46.3755C82.728 46.3398 83.0311 46.1792 83.2985 45.8936C83.8423 45.3313 84.395 44.769 84.9745 44.2246C85.2419 43.9657 85.3935 43.7158 85.4202 43.457C85.447 43.2696 85.438 43.0821 85.4024 42.9036C85.34 42.6269 85.4559 42.4663 85.7411 42.4395C86.2671 42.377 86.7663 42.4217 87.2299 42.5645C87.8717 42.7608 88.0857 43.5641 87.6221 44.046ZM91.6069 42.4752C91.7585 41.7701 91.9635 41.7523 92.222 42.4217C92.6232 43.4302 92.3647 44.0728 91.4554 44.3584C91.2771 44.4209 91.2058 44.3584 91.2414 44.171L91.6069 42.4752ZM92.4895 47.1788C91.286 48.0713 90.1717 48.6158 90.0023 48.3926C89.8329 48.1695 90.6798 47.2591 91.8833 46.3577C93.0868 45.4652 94.2011 44.9207 94.3705 45.1439C94.5398 45.367 93.693 46.2774 92.4895 47.1788Z" fill="#010101"/>
<path d="M72.3515 49.91C72.0841 48.3392 72.0038 46.7327 70.7201 45.6438C68.0368 43.3857 63.9361 43.225 60.5575 43.3857C58.0168 43.5017 56.118 44.1265 54.87 45.2421C53.5417 46.4292 52.8375 48 52.7751 49.9457C52.7305 51.3202 53.1673 52.5608 54.0944 53.6676C57.8296 58.1123 64.8722 57.3537 69.6325 54.7118C71.5135 53.6676 72.7526 52.2663 72.3515 49.91ZM62.7951 52.302C60.4416 53.7033 58.4626 53.2927 56.8669 51.0882C56.3944 50.4277 56.537 49.5173 57.1878 49.0354C57.6959 48.6694 58.1773 48.3481 58.6498 48.0893C59.5056 47.6163 59.5591 47.6966 58.8102 48.3303C58.4893 48.598 58.3021 49.0978 58.2575 49.8208C58.2397 50.1332 58.3556 50.3742 58.6052 50.5527L59.6393 51.3202C59.9691 51.5701 60.1831 51.4898 60.2811 51.0882L60.3525 50.7669C60.406 50.5348 60.5397 50.4813 60.7536 50.5973C61.0121 50.7401 61.0567 50.9989 60.8873 51.3649C60.7269 51.7129 60.6912 51.9985 60.7893 52.2217C60.923 52.5341 61.1191 52.5876 61.3776 52.3645C61.8858 51.9271 62.2869 51.6951 62.5811 51.6594C63.6687 51.5255 63.74 51.7397 62.7951 52.302ZM64.3551 49.08C63.9896 48.8836 63.6687 48.5534 63.3834 48.0982C63.2408 47.8662 63.3032 47.7501 63.5795 47.7501C63.9094 47.7412 64.2303 47.8215 64.5334 47.9733C64.8632 48.1428 65.0237 48.3838 65.0237 48.6873C65.0237 49.0264 64.6582 49.2406 64.3551 49.08ZM67.493 49.6958C67.0206 50.7044 66.3787 51.4095 65.5675 51.8022C65.2733 51.9361 65.1574 51.8557 65.2109 51.5434C65.3268 50.8115 65.5229 50.1153 65.7993 49.4549C66.0578 48.8569 66.5214 48.6873 67.1899 48.9461C67.493 49.0621 67.6268 49.4102 67.493 49.6958Z" fill="#010101"/>
<path d="M60.5754 74.4989C59.7998 73.999 58.9619 73.7402 58.0615 73.7313C57.7584 73.7313 57.6069 73.883 57.5979 74.1776C57.5534 75.8644 56.8669 77.2389 55.5387 78.3099C55.3069 78.4974 55.1108 78.4706 54.9592 78.2118L54.4065 77.2925C54.2282 76.989 54.3085 76.873 54.6561 76.9444C54.8968 76.989 55.1375 76.9979 55.3782 76.9533C55.6902 76.8998 55.8507 76.7123 55.8774 76.3999C55.922 75.6591 55.7615 74.954 55.396 74.2936C55.2534 74.0347 55.0395 73.8919 54.7453 73.883L53.0426 73.7938C52.3205 73.7581 51.9104 72.9548 52.3027 72.3479L53.9251 69.8577C54.0678 69.6346 54.148 69.3668 54.1391 69.108C54.0856 66.716 53.1496 64.6543 51.3399 62.9139C50.181 61.7982 48.5229 61.7536 46.9985 61.2895C45.6702 60.8968 44.4668 60.7183 43.4059 60.754C36.2743 61.0217 27.6984 64.4847 30.6046 73.3743C30.8809 74.2311 31.4247 74.9183 32.227 75.4271C33.0561 75.9537 33.8673 76.2571 34.6696 76.3375C39.4746 76.8462 44.4578 76.2304 49.6372 74.4989C50.2969 74.2757 50.386 73.9366 50.9477 73.6063C51.224 73.4457 51.4647 73.4814 51.6787 73.7224C52.2225 74.3382 52.2046 74.8916 51.9818 75.7573C51.857 76.2482 51.955 76.6498 52.267 76.9622C53.1317 77.8101 53.6934 78.6848 53.9519 79.5684C54.1391 80.2021 54.8879 80.4788 55.4317 80.1039L60.6022 76.5338C61.3242 76.0429 61.3064 74.9719 60.5754 74.4989ZM44.6451 66.6714C44.9749 66.1984 45.4741 66.0199 46.1338 66.1181C46.633 66.1984 46.6419 66.3144 46.1694 66.484L44.8501 66.9392C44.5024 67.0552 44.4311 66.9659 44.6451 66.6714ZM36.1762 71.7142C36.1316 72.0176 35.8464 72.2318 35.5433 72.1694L35.3115 72.1247C34.8212 72.0266 34.5627 71.732 34.5448 71.2233C34.4468 68.6707 35.6592 66.6446 38.1552 65.7789C39.4122 65.3416 40.4998 65.172 41.418 65.2791C42.8176 65.4397 42.8354 65.6718 41.4536 65.9752C38.3424 66.6625 36.5774 68.5725 36.1762 71.7142ZM38.2444 70.304C38.1731 70.3308 38.0928 70.304 38.0572 70.2326L37.9413 69.9738C37.9145 69.9113 37.9324 69.831 38.0037 69.7953L43.085 66.8142C43.1652 66.7607 43.2722 66.8053 43.29 66.9035L43.5307 67.8228C43.5486 67.8852 43.5129 67.9567 43.4505 67.9834L38.2444 70.304ZM47.783 69.3222L43.4862 71.0359C42.9602 71.2411 42.8978 71.143 43.29 70.7413C43.8338 70.1701 44.5024 69.7506 45.2869 69.4918C45.5633 69.4025 45.804 69.2508 46.0001 69.0366C46.4101 68.5993 46.8291 68.1798 47.2659 67.7781C47.4264 67.6264 47.5958 67.5372 47.783 67.5015C48.1307 67.439 48.3446 67.4747 48.4159 67.5996C48.7636 68.2423 48.4694 69.0545 47.783 69.3222Z" fill="#010101"/>
</g>
<defs>
<clipPath id="clip0_2354_2096">
<rect width="165" height="120" fill="white" transform="translate(0.5)"/>
</clipPath>
</defs>
</svg>
