<svg width="126" height="121" viewBox="0 0 126 121" fill="none" xmlns="http://www.w3.org/2000/svg">
<g clip-path="url(#clip0_2209_93)">
<path d="M124.56 115.081C116.192 98.3104 107.635 81.6312 98.9086 65.0518C95.5791 58.7346 92.1959 51.3812 88.6784 44.664C81.4645 30.9025 74.4116 17.0319 67.1708 3.17941C65.882 0.716142 63.2685 -0.838168 61.4963 2.30681C50.2458 22.3038 39.2548 42.4462 28.5413 62.734C21.6675 75.7411 14.7399 88.6937 7.74974 101.592C5.21681 106.264 2.95238 110.699 0.97436 114.89C-0.457689 117.907 1.51138 120.498 4.58133 120.471C48.6974 120.171 87.9266 120.189 122.269 120.543C123.424 120.543 124.408 120.134 125.214 119.28C125.41 119.062 125.518 118.771 125.491 118.48C125.41 117.289 125.106 116.162 124.56 115.081ZM21.4974 113.245C21.1305 113.817 20.6113 114.108 19.9401 114.099L9.75461 113.944C9.4324 113.944 9.325 113.781 9.4324 113.472C10.0768 111.663 10.9361 109.754 12.0011 107.764C23.0727 87.0394 34.6365 65.5518 46.6925 43.2915C52.4565 32.6568 57.603 22.3856 63.7518 12.3053C63.8503 12.1508 63.9219 11.969 63.9666 11.7781C64.0024 11.5963 64.083 11.4509 64.2172 11.3327C64.3962 11.16 64.7005 11.2236 64.808 11.4509L69.4174 21.3585C69.5337 21.613 69.5158 21.8584 69.3637 22.0856C67.493 24.9852 65.8641 27.712 64.4589 30.2844C52.018 53.1173 38.136 79.9769 22.8221 110.872C22.4372 111.663 21.9897 112.454 21.4974 113.245ZM41.8683 114.135L30.5104 113.872C30.045 113.854 29.7496 113.345 29.9734 112.917L73.257 30.7843C73.4987 30.3389 74.1342 30.3298 74.3758 30.7843L79.8445 40.8555C79.9429 41.0373 79.9429 41.2736 79.8445 41.4645L42.4411 113.799C42.3337 114.017 42.11 114.153 41.8683 114.144V114.135ZM62.5793 113.963H52.3581C51.5257 113.972 51.3019 113.599 51.6779 112.854C59.6347 96.9288 67.323 81.4403 74.7517 66.3971C77.6606 60.5162 80.7485 54.9352 84.0243 49.6633C84.2212 49.3451 84.4002 49.3542 84.5613 49.6905L89.5734 60.3435C89.8688 60.9797 89.8509 61.716 89.5287 62.3432C80.8738 78.7134 72.2188 95.7199 63.546 113.363C63.358 113.735 62.9821 113.963 62.5793 113.963ZM83.2993 113.899L71.995 113.99C71.8608 113.99 71.7713 113.854 71.8339 113.726C78.6988 99.9556 85.698 86.6122 92.8135 73.7051C93.2878 72.8507 93.8785 72.069 94.6035 71.36C94.8541 71.1146 95.06 71.1509 95.2211 71.46L99.929 80.5586C100.278 81.2221 100.278 82.022 99.9379 82.6946L84.5434 113.117C84.3017 113.59 83.8184 113.89 83.2993 113.899ZM111.018 103.182L105.496 113.572C105.362 113.817 105.111 113.972 104.834 113.972L93.8696 113.926C93.3057 113.917 92.9477 113.317 93.2073 112.808L104.333 91.1479C104.619 90.5843 105.415 90.6025 105.684 91.1661L111.027 102.483C111.135 102.71 111.126 102.964 111.018 103.182ZM115.914 114.29L114.097 114.226C113.703 114.208 113.426 113.826 113.524 113.435L114.196 110.836C114.312 110.4 114.822 110.227 115.171 110.5L115.977 111.127C116.093 111.227 116.183 111.363 116.201 111.527L116.541 113.563C116.603 113.954 116.299 114.308 115.914 114.29Z" fill="black"/>
</g>
<defs>
<clipPath id="clip0_2209_93">
<rect width="125" height="120" fill="white" transform="translate(0.5 0.542969)"/>
</clipPath>
</defs>
</svg>
