<svg width="130" height="180" viewBox="0 0 130 180" fill="none" xmlns="http://www.w3.org/2000/svg">
<g clip-path="url(#clip0_2096_575)">
<path d="M20.0587 103.079C20.4127 101.594 21.2931 99.1779 22.3822 98.0093C22.8269 97.5348 23.6438 97.772 23.7527 98.4047C23.9796 99.6876 23.9887 100.927 23.7981 102.13C21.9829 113.72 20.2311 125.284 18.5339 136.821C18.3796 137.911 18.071 139.088 17.6171 140.353C17.1996 141.531 15.5477 141.707 14.8761 140.643C14.0592 139.361 14.386 138.157 14.5403 136.716C15.8745 124.3 17.717 113.088 20.0587 103.079Z" fill="black"/>
<path d="M26.775 109.643L26.8023 110.847C26.8113 111.128 26.7387 111.392 26.5935 111.647C26.1488 112.429 26.2395 113.07 26.8749 113.58C27.1199 113.782 27.4013 113.834 27.719 113.747L29.035 113.369C29.4616 113.246 29.5796 113.369 29.389 113.764C28.8989 114.775 27.7734 116.4 26.4029 115.926C26.1125 115.829 25.9309 115.557 25.94 115.258L26.2668 106.102C26.2668 105.856 26.3757 105.663 26.5844 105.531C26.8567 105.346 27.1653 105.294 27.5011 105.355C27.8188 105.417 28.073 105.61 28.2636 105.926C28.7628 106.726 28.9534 107.587 28.8354 108.527C28.7991 108.808 28.6357 108.958 28.3452 108.984L27.3105 109.072C26.9475 109.098 26.766 109.292 26.775 109.643Z" fill="black"/>
<path d="M126.415 122.376C126.823 123.219 126.451 124.23 125.58 124.625L125.498 124.66C124.627 125.064 123.592 124.704 123.175 123.852L117.484 112.192C117.075 111.348 117.448 110.337 118.319 109.942L118.401 109.907C119.272 109.503 120.307 109.863 120.724 110.715L126.415 122.376Z" fill="black"/>
<path d="M32.3389 114.828C32.5022 114.555 32.7201 114.502 33.0014 114.669C33.5642 115.021 33.8637 115.487 33.9 116.058C33.9363 116.646 33.664 116.866 33.074 116.699C32.0303 116.409 31.7852 115.785 32.3389 114.828Z" fill="black"/>
<path d="M79.926 120.258C79.0547 119.625 78.5827 119.256 78.5101 119.142C77.9655 118.298 78.1652 118.07 79.1182 118.456C80.0621 118.834 80.4887 119.37 80.398 120.073C80.3526 120.398 80.1983 120.46 79.926 120.258Z" fill="black"/>
<path d="M31.7761 119.405C32.0938 118.922 32.5476 118.685 33.1285 118.694C33.5823 118.702 33.9272 119.08 33.8909 119.511L31.2951 148.165C31.2134 149.123 30.6688 149.641 29.6795 149.72C29.5706 149.729 29.4707 149.729 29.3709 149.738C28.6993 149.79 28.1093 149.307 28.0548 148.657C27.8461 146.082 27.8279 144.193 27.9913 142.998C28.8808 136.557 29.5797 129.721 30.0879 122.49C30.1333 121.822 30.4782 121.11 31.1226 120.346C31.1771 120.275 31.3949 119.959 31.7761 119.405Z" fill="black"/>
<path d="M77.6026 119.809C78.3377 120.714 78.6645 121.883 78.5737 123.307C78.5465 123.64 78.3831 123.728 78.0655 123.579C76.9672 123.043 76.0233 122.375 75.2246 121.576C74.7526 121.101 74.7798 120.354 75.279 119.915C75.7873 119.475 76.4226 119.106 77.1941 118.799C77.3847 118.72 77.4936 118.781 77.5299 118.966C77.539 119.063 77.5299 119.15 77.5027 119.247C77.4301 119.449 77.4664 119.642 77.6026 119.809Z" fill="black"/>
<path d="M39.3276 120.232C39.1552 120.46 38.774 120.486 38.4835 120.275C38.1931 120.073 38.0842 119.722 38.2476 119.485C38.4109 119.256 38.8012 119.23 39.0917 119.441C39.3821 119.643 39.491 119.994 39.3276 120.232Z" fill="black"/>
<path d="M26.3486 140.512C26.276 141.188 25.6498 141.68 24.9418 141.601L24.1703 141.522C23.4714 141.443 22.9722 140.837 23.0449 140.16L25.2322 120.961C25.3049 120.284 25.9311 119.792 26.6391 119.871L27.4106 119.95C28.1094 120.029 28.6086 120.636 28.536 121.312L26.3486 140.512Z" fill="black"/>
<path d="M113.563 122.305C116.803 130.345 120.406 138.71 123.156 146.399C123.401 147.093 123.156 147.726 122.421 148.314C121.922 148.71 121.16 148.613 120.125 148.033C119.807 147.849 119.562 147.585 119.417 147.269C115.215 138.438 112.111 130.196 110.096 122.56C110.023 122.305 110.041 122.033 110.15 121.787C110.486 121.005 110.885 120.662 111.33 120.759C112.501 121.013 113.245 121.532 113.563 122.305Z" fill="black"/>
<path d="M40.6438 125.31L39.1281 124.563C38.5654 124.282 38.3566 123.614 38.6652 123.087L39.6182 121.426C39.9631 120.82 40.8072 120.688 41.3336 121.154L41.8964 121.664C42.1323 121.866 42.2594 122.147 42.2594 122.454V124.361C42.2594 125.161 41.3881 125.679 40.6438 125.31Z" fill="black"/>
<path d="M74.0173 127.384C73.9356 126.98 74.217 126.584 74.6435 126.505L74.7615 126.488C76.3862 126.206 77.9473 127.296 78.2559 128.93L83.4748 156.75C83.7834 158.384 82.7124 159.939 81.0968 160.221L80.9788 160.238C80.5522 160.317 80.1438 160.045 80.0712 159.632L74.0173 127.384Z" fill="black"/>
<path d="M95.1833 130.53C99.0408 142.726 101.255 151.979 104.668 166.073C104.886 166.969 104.632 167.716 103.915 168.314C103.57 168.604 103.216 168.744 102.862 168.744C101.51 168.727 100.339 167.813 100.012 166.512C96.8624 154.008 93.9217 141.531 91.1807 129.071C90.9447 128.008 91.3713 127.604 92.4695 127.859C92.6964 127.911 92.9052 127.999 93.0958 128.131C94.2212 128.887 94.9201 129.686 95.1833 130.53Z" fill="black"/>
<path d="M112.365 149.36C112.655 150.3 112.102 151.293 111.13 151.565L111.04 151.592C110.068 151.873 109.052 151.337 108.761 150.397L102.88 131.189C102.59 130.248 103.143 129.255 104.114 128.983L104.205 128.957C105.176 128.675 106.193 129.211 106.483 130.152L112.365 149.36Z" fill="black"/>
<path d="M38.066 166.503C37.9843 167.461 37.113 168.173 36.1237 168.094L35.8514 168.076C34.8621 167.997 34.1269 167.153 34.2086 166.196L37.0495 132.726C37.1312 131.769 38.0025 131.057 38.9918 131.136L39.2641 131.153C40.2534 131.233 40.9886 132.076 40.9069 133.034L38.066 166.503Z" fill="black"/>
<path d="M74.4348 169.631C74.5346 170.615 73.7903 171.485 72.7647 171.591L72.2201 171.643C71.2036 171.74 70.296 171.02 70.1961 170.027L66.7744 135.617C66.6745 134.633 67.4188 133.763 68.4444 133.658L68.989 133.605C70.0055 133.508 70.9132 134.229 71.013 135.222L74.4348 169.631Z" fill="black"/>
<path d="M85.7075 134.949L86.0706 134.826C86.6061 134.642 87.1869 134.923 87.3503 135.45C89.3471 141.996 91.0535 149.061 92.4603 156.644C92.6781 157.822 92.0155 158.981 90.8719 159.43L90.5906 159.544C89.574 159.939 88.9659 159.614 88.7662 158.577L84.4913 137.005C84.3188 136.127 84.8362 135.257 85.7075 134.949Z" fill="black"/>
<path d="M61.1925 177.663C61.2106 178.937 60.1487 179.983 58.8326 180H58.7419C57.4258 180.018 56.3457 178.99 56.3276 177.716L55.8738 142.058C55.8556 140.784 56.9175 139.738 58.2336 139.721H58.3244C59.6404 139.703 60.7205 140.731 60.7387 142.006L61.1925 177.663Z" fill="black"/>
<path d="M47.4599 174.341C47.4236 175.15 46.7066 175.774 45.8716 175.738L45.0547 175.703C44.2197 175.668 43.5753 174.983 43.6116 174.166L45.2362 141.935C45.2725 141.127 45.9896 140.503 46.8246 140.538L47.6415 140.573C48.4765 140.608 49.1209 141.294 49.0846 142.111L47.4599 174.341Z" fill="black"/>
<path d="M113.454 36.694C112.782 36.5446 112.301 35.9647 112.301 35.2969C112.301 33.5922 112.092 31.9051 111.675 30.2268C106.746 10.386 84.5458 4.62174 68.3264 16.3171C68.2084 16.3962 68.0451 16.3347 68.0269 16.2029C66.9196 10.1136 63.8518 5.67617 58.8235 2.8995C45.9442 -4.20911 30.5054 2.28442 27.8279 16.5807C27.6555 17.5209 27.4467 18.4523 27.2107 19.375C27.1381 19.6737 26.9475 19.8758 26.648 19.9813C20.7212 22.0462 16.0741 24.735 12.9065 30.0862C10.1745 34.6906 9.87499 39.6552 12.0079 44.9888C12.0987 45.2261 12.0533 45.4809 11.8899 45.6742C11.2546 46.386 10.5648 47.1153 9.81146 47.8446C2.24181 55.1904 -0.943971 64.2585 0.245026 75.0489C0.780528 79.8553 2.55041 84.1433 5.56374 87.9217C10.6556 94.301 17.1905 97.5258 25.1867 97.5873C26.648 97.5961 27.5829 98.2463 27.9822 99.538C28.8626 102.376 30.0426 105.381 31.5401 108.553C32.8834 111.4 34.6352 113.773 36.7862 115.671C40.0083 118.509 43.3212 120.556 46.7067 121.822C47.0697 121.953 47.3329 122.27 47.3965 122.648C47.4418 122.885 47.4328 123.14 47.3874 123.403C47.3238 123.781 47.3148 124.168 47.3602 124.563L47.9047 128.834C47.9592 129.299 48.3132 129.677 48.7851 129.791L49.5112 129.958C50.1194 130.099 50.4098 129.87 50.3826 129.264C50.31 127.507 50.4552 125.635 50.8182 123.658C50.8818 123.333 51.0814 123.175 51.4173 123.201L55.0206 123.456C55.3019 123.474 55.547 123.658 55.6377 123.922C56.3003 125.864 56.6271 127.788 56.618 129.704C56.618 129.914 56.7995 130.09 57.0173 130.09H58.5331C58.7963 130.09 58.9324 129.967 58.9506 129.712L59.35 124.352C59.3772 123.974 59.5859 123.764 59.9762 123.702L65.6398 122.902C66.1209 122.832 66.1844 122.964 65.8304 123.289C64.8865 124.159 64.6777 125.249 65.2132 126.575C65.7124 127.832 65.9303 129.071 65.8486 130.292C65.8395 130.415 65.9575 130.512 66.0846 130.494L69.2159 130.029C69.3793 130.002 69.4428 129.914 69.4065 129.756C69.0344 128.254 68.5352 126.786 67.8998 125.363C67.6003 124.686 67.4823 123.702 67.5549 122.41C67.5731 121.98 67.7092 121.936 67.9543 122.296C68.1086 122.516 68.3083 122.674 68.5533 122.762C68.8438 122.858 69.0888 122.797 69.2885 122.56C70.1508 121.54 71.0856 120.785 72.084 120.293C74.2896 119.186 75.8416 117.525 77.8384 116.189C78.1742 115.961 78.628 115.97 78.9548 116.207C80.1438 117.059 81.124 118.043 81.8955 119.177C82.0861 119.449 82.4764 119.493 82.7124 119.265C82.9484 119.036 83.2207 118.975 83.5383 119.071C83.7471 119.15 83.7471 119.229 83.5383 119.309L83.1934 119.449C82.903 119.563 82.7759 119.774 82.8122 120.082C83.0845 122.182 83.4203 124.343 83.8106 126.549C83.9649 127.436 84.446 127.955 85.2447 128.122C85.5442 128.183 85.8256 127.972 85.8437 127.674C85.9072 126.127 85.8619 125.046 85.4444 123.359C85.2084 122.419 85.0904 121.391 85.0994 120.275C85.0994 119.985 85.3627 119.766 85.6622 119.809C87.2142 120.055 88.4214 120.776 89.2836 121.962C89.7284 122.56 90.6542 122.516 91.0354 121.874C91.9248 120.372 93.4587 119.968 95.6461 120.662C95.9638 120.758 96.109 120.969 96.0999 121.294C96.0818 122.024 96.1635 122.7 96.3541 123.342C96.5628 124.054 96.8533 124.089 97.2254 123.438C97.6429 122.7 97.7155 121.971 97.4523 121.259C97.3343 120.969 97.4432 120.811 97.7609 120.794C99.2222 120.706 100.865 120.126 102.689 119.063C108.072 115.926 111.711 112.367 113.608 108.395C115.705 104.028 116.277 99.7577 115.305 95.5839C114.679 92.9039 113.59 87.5087 111.512 85.6459C111.058 85.2329 111.103 84.8902 111.657 84.6178C119.744 80.5846 125.199 75.0752 128.021 68.0896C133.177 55.3486 128.275 39.9891 113.454 36.694ZM122.122 62.6857C120.216 70.2161 115.56 75.5673 108.162 78.757C105.957 79.6972 103.942 79.7938 101.537 79.0645C99.912 78.5724 98.2783 78.0716 96.6536 77.5531C95.9184 77.3247 95.1197 77.685 94.8383 78.3879C94.3936 79.5038 94.675 80.365 95.7006 80.9625C97.18 81.8148 98.4689 82.922 99.5489 84.2839C100.003 84.8463 100.012 85.6283 99.5762 86.2083C96.6173 90.0657 91.9974 91.5068 88.9024 94.7931C88.5121 95.2061 88.4395 95.663 88.6846 96.1638C88.7663 96.3308 88.8933 96.445 89.084 96.5065C90.164 96.8668 91.0717 96.7438 91.8068 96.1375C93.9489 94.3977 96.2724 93.229 98.3327 91.2959C99.7214 89.9866 101.056 88.6422 102.335 87.2451C103.025 86.4982 103.143 85.7689 103.307 84.8375C103.379 84.4245 103.924 84.3015 104.178 84.6442C109.315 91.4892 112.374 102.411 105.14 108.72C102.68 110.864 99.9664 112.086 97.0076 112.393C92.6328 112.841 88.9569 112.631 85.9799 111.752C82.9484 110.847 79.9441 109.212 77.2938 107.543C76.9308 107.306 76.6312 107.367 76.3953 107.727C74.9521 109.959 73.3819 111.541 71.6847 112.464C63.6703 116.839 55.3019 117.165 46.5614 113.43C37.2582 109.45 33.8637 100.364 34.0543 91.208C34.1269 87.6493 30.1605 89.0376 29.2166 91.0323C29.0895 91.2959 28.8808 91.4628 28.5813 91.5419C23.1899 92.8687 17.127 90.1712 13.2786 86.6652C2.8227 77.1138 5.09178 55.6386 18.1707 48.9693C19.2417 48.4245 19.7409 47.2031 19.3325 46.096C18.6246 44.198 17.7714 42.0276 17.7078 40.0066C17.5263 34.0315 20.2583 29.7435 25.9038 27.1338C28.8263 25.7806 30.687 26.9757 33.2465 27.828C33.5369 27.9246 33.8183 27.8983 34.0906 27.7577C36.1872 26.6857 34.9982 23.4257 34.7622 21.6508C34.5626 20.157 34.5262 18.9268 34.6442 17.9691C35.6063 10.4826 42.7131 4.90292 50.6549 6.83604C55.8919 8.11893 59.3953 10.8956 60.6025 16.115C61.8369 21.4135 59.8582 24.5329 57.8524 29.2778C57.4893 30.1302 57.6981 30.8331 58.4696 31.3691C60.1577 32.5553 61.1834 31.6942 62.2635 30.2707C67.0376 24.0233 75.1881 17.7758 83.4294 16.9849C86.1069 16.7301 88.9387 17.0289 91.9248 17.8812C99.9301 20.157 104.604 25.9212 105.957 35.1826C106.274 37.3442 106.156 39.0137 104.713 40.8063C102.762 43.2402 99.9664 45.0679 97.3343 46.755C96.3541 47.3789 95.8912 48.5036 96.5084 49.5317C96.826 50.0501 97.4342 50.3401 98.0513 50.2522C102.199 49.6459 105.712 46.9483 108.743 44.198C110.413 42.6779 112.328 42.4846 114.498 43.6269C121.432 47.2822 123.892 55.6737 122.122 62.6857Z" fill="black"/>
<path d="M99.0861 32.0373C95.9184 32.0988 92.5874 32.7139 89.1021 33.8914C88.2308 34.1901 87.8405 33.8914 87.9404 33.0039C87.9494 32.8985 87.9676 32.8018 88.013 32.7051C88.4486 31.721 89.084 31.0268 89.919 30.6139C91.353 29.9021 92.4694 29.4013 93.2591 29.0937C93.5404 28.9795 93.6947 28.7774 93.7129 28.4786C93.7764 27.5033 93.6312 26.5807 93.2954 25.6932C93.1865 25.4208 92.9959 25.2011 92.7326 25.0517C90.3819 23.7249 87.8405 23.3471 85.1176 23.9007C84.2826 24.0764 83.5293 24.0852 82.8667 23.927C81.6505 23.637 81.4145 22.0554 82.5036 21.4491C86.5789 19.1821 93.132 22.0554 96.5901 24.5157C97.3253 25.0429 97.3979 26.0798 96.7353 26.6949L93.8763 29.3485C93.3045 29.8758 93.4134 30.1306 94.203 30.1218C95.8367 30.0954 97.6702 29.4628 99.7123 28.2238C100.202 27.9251 100.856 28.1623 101.019 28.7071L101.863 31.5628C102.018 32.0901 101.918 32.5645 101.555 32.9863C98.605 36.4308 94.92 38.7066 90.518 39.805C90.1187 39.9016 89.7102 39.7435 89.4833 39.4096C89.0114 38.6978 88.7572 37.8894 88.73 36.9844C88.7209 36.5626 88.9297 36.3517 89.3653 36.3429C90.3093 36.3166 91.0717 36.1848 91.6616 35.9475C93.722 35.0952 96.227 33.9002 99.1768 32.3625C99.6034 32.1428 99.5671 32.0285 99.0861 32.0373Z" fill="black"/>
<path d="M96.0819 40.7623C98.2693 39.6991 100.239 38.3986 101.972 36.8697C102.354 36.5358 102.789 36.3689 103.289 36.3601C103.597 36.3513 103.824 36.6237 103.76 36.9136C103.225 39.251 101.6 40.7272 99.6035 42.1243C97.4978 43.6005 95.1561 44.5495 92.5694 44.98C92.161 45.0503 91.8705 44.6198 92.0883 44.2771C93.0777 42.7569 94.4028 41.5795 96.0819 40.7623Z" fill="black"/>
<path d="M108.371 48.6881C108.308 48.6442 108.29 48.5651 108.326 48.5036L108.398 48.4069C109.116 47.3262 110.822 47.1416 112.192 48.0027L112.465 48.1697C113.835 49.0308 114.362 50.6037 113.636 51.6933L113.572 51.7899C113.536 51.8514 113.445 51.869 113.381 51.8251L108.371 48.6881Z" fill="black"/>
<path d="M18.9786 52.0712L19.2509 52.2733C19.6866 52.5809 19.7229 53.1959 19.3235 53.5562C16.1377 56.3768 14.2226 59.8652 13.5782 64.0214C12.2985 72.2811 13.5419 79.9873 20.8302 85.3648C22.3459 86.4808 23.9071 87.544 25.5226 88.5633C26.6753 89.2926 26.6481 89.978 25.4591 90.637C25.1868 90.7864 24.5787 90.6809 23.6438 90.3295C17.835 88.1239 12.0171 84.0732 10.2381 78.1156C7.65139 69.3814 9.4485 58.7317 16.6642 52.1942C17.2995 51.6231 18.2707 51.5704 18.9786 52.0712Z" fill="black"/>
<path d="M109.832 72.4132C112.247 71.4554 112.41 69.7244 113.245 67.6331C114.77 63.8284 115.65 59.8918 115.886 55.8059C115.923 55.2347 116.621 54.9624 117.057 55.349C118.119 56.3067 118.655 57.5633 118.682 59.1186C118.8 67.3255 114.706 72.8964 106.402 75.8225C105.521 76.13 105.249 75.8664 105.594 75.0229C106.801 72.0353 107.745 68.7314 108.426 65.12C108.943 62.3346 109.025 59.6634 108.671 57.1239C108.634 56.834 108.861 56.5879 109.161 56.5791C110.15 56.5704 111.021 56.8164 111.784 57.2997C112.047 57.4666 112.174 57.6951 112.183 58.0026C112.238 62.9145 111.357 67.6331 109.551 72.1496C109.478 72.3165 109.66 72.4835 109.832 72.4132Z" fill="black"/>
<path d="M102.944 72.9401C102.571 73.7748 101.972 74.5042 101.128 75.128C100.665 75.4707 100.139 75.6728 99.54 75.7343C98.8683 75.8046 98.6505 75.5322 98.8956 74.9259C100.593 70.594 101.9 65.9545 102.817 60.9987C102.962 60.2166 103.443 59.171 104.296 58.9513C104.695 58.8547 105.031 58.9337 105.294 59.1973C105.485 59.3731 105.585 59.6543 105.594 60.0321C105.739 64.2938 104.859 68.5993 102.944 72.9401Z" fill="black"/>
<path d="M90.0916 67.8173C89.9282 68.4851 89.2384 68.9156 88.5395 68.7575L88.3671 68.7223C87.6682 68.5641 87.2325 67.8876 87.3959 67.2197L89.1022 59.9881C89.2656 59.3203 89.9554 58.8897 90.6543 59.0479L90.8267 59.0831C91.5256 59.2412 91.9613 59.9178 91.7979 60.5856L90.0916 67.8173Z" fill="black"/>
<path d="M96.8079 71.1915C96.6082 71.9472 95.8095 72.4041 95.029 72.2108L94.9382 72.1932C94.1486 72.0087 93.6766 71.2354 93.8853 70.471L96.3904 60.9723C96.5901 60.2166 97.3888 59.7597 98.1694 59.953L98.2601 59.9706C99.0498 60.1551 99.5217 60.9284 99.313 61.6928L96.8079 71.1915Z" fill="black"/>
<path d="M80.28 66.4116C80.0622 67.0003 79.3906 67.3166 78.7734 67.1145L78.6009 67.053C77.9928 66.8422 77.6661 66.1919 77.8748 65.5944L79.5449 60.9637C79.7627 60.375 80.4343 60.0587 81.0515 60.2608L81.224 60.3223C81.8321 60.5332 82.1588 61.1834 81.9501 61.7809L80.28 66.4116Z" fill="black"/>
<path d="M23.317 76.4376C24.0703 77.9138 24.8962 79.267 25.7948 80.4971C26.0308 80.8222 25.9763 81.2616 25.6677 81.5252C25.0687 82.0348 24.4243 82.0348 23.7254 81.534C23.1354 81.1122 22.6272 80.6289 22.2096 80.0841C18.8968 75.7698 17.4264 70.7261 17.7986 64.9619C17.8349 64.4522 18.325 64.1007 18.8333 64.215L19.3234 64.3292C20.1312 64.5137 20.5668 65.0058 20.6122 65.8054C20.8391 69.7859 21.7377 73.327 23.317 76.4376Z" fill="black"/>
<path d="M27.3833 67.8788C28.4725 71.1827 29.6615 74.2054 31.7581 77.1666C32.1847 77.7553 32.0304 78.1244 31.2952 78.2649L30.8141 78.3528C30.1788 78.4758 29.6524 78.2913 29.2349 77.808C26.8206 74.9435 25.5227 71.622 25.3411 67.8437C25.3321 67.5713 25.5227 67.334 25.7949 67.2813C26.1762 67.2022 26.5392 67.2286 26.8841 67.3604C27.1201 67.457 27.3016 67.6416 27.3833 67.8788Z" fill="black"/>
<path d="M89.2927 84.3896L80.7972 90.6547C80.5249 90.8568 80.1256 90.7425 80.0076 90.4262L79.4358 88.8797C79.3632 88.6688 79.4358 88.4403 79.6173 88.3085L89.7646 81.2439C90.1821 80.9451 90.7358 81.3757 90.518 81.8414L89.447 84.1963C89.4107 84.2666 89.3562 84.3369 89.2927 84.3896Z" fill="black"/>
<path d="M91.2896 89.3364C89.1203 90.5842 87.0691 91.8231 85.1449 93.0445C85.0541 93.106 84.9634 93.1499 84.8635 93.1851C83.257 93.809 82.4946 93.6244 82.5672 92.6227C82.5854 92.3943 82.7034 92.1834 82.8849 92.034C86.1887 89.3013 89.5378 86.6213 92.9233 83.994C93.604 83.4668 94.2303 83.4843 94.793 84.0555C95.4556 84.7321 95.4828 85.7865 94.8475 86.4895C93.8582 87.5966 92.6782 88.5456 91.2896 89.3364Z" fill="black"/>
<path d="M46.7612 85.2419C47.1424 89.3806 48.3405 93.9498 51.1723 97.3503C51.5626 97.816 51.2177 98.519 50.6005 98.519C45.4996 98.519 44.0474 88.9412 43.8386 85.5934C43.7932 84.8905 44.3287 84.2842 45.0548 84.2226L45.4633 84.1875C46.262 84.1172 46.6977 84.4687 46.7612 85.2419Z" fill="black"/>
<path d="M55.674 93.9499C55.0296 94.2574 53.6681 92.8427 52.6334 90.7954C51.5897 88.748 51.272 86.8412 51.9255 86.5337C52.5699 86.2262 53.9313 87.6408 54.966 89.6882C56.0098 91.7356 56.3275 93.6423 55.674 93.9499Z" fill="black"/>
<path d="M72.6558 89.9868L67.2917 93.1852C67.1193 93.2906 66.9105 93.3082 66.7199 93.2379L63.5069 91.9726C62.9805 91.7617 62.9805 91.05 63.5069 90.8303L73.5453 86.7444C74.1262 86.5159 74.6707 87.1486 74.3258 87.6494L72.8646 89.8022C72.8101 89.8813 72.7466 89.9428 72.6649 89.9868H72.6558Z" fill="black"/>
<path d="M61.1018 112.192C54.3581 113.325 46.2439 111.19 41.624 105.944C37.8755 101.682 35.4703 94.9604 35.9422 89.3719C35.9967 88.7129 36.4505 88.1418 37.0949 87.9133C37.6667 87.7112 38.1932 87.7903 38.6651 88.1681C38.9828 88.423 39.1825 88.7481 39.2642 89.1611C41.5696 101.682 49.6565 111.199 64.215 107.025C66.5929 106.348 69.57 104.679 71.4125 102.895C72.5833 101.761 73.9811 100.751 75.6057 99.8547C76.5678 99.3187 76.9309 98.6158 77.4119 97.7459C77.539 97.5174 77.8566 97.4735 78.0382 97.658C80.9698 100.584 87.4412 106.102 91.9522 105.25C97.2618 104.239 101.364 101.753 104.251 97.7986C104.859 96.9638 105.258 95.8128 105.939 95.0659C106.166 94.811 106.329 94.8462 106.42 95.1801C107.182 98.1237 106.647 100.584 104.804 102.561C102.499 105.03 99.2586 106.972 95.0835 108.396C87.6681 110.917 83.0846 107.245 77.5571 103.308C76.9127 102.851 75.996 103.053 75.6329 103.747C73.2096 108.387 66.5113 111.278 61.1018 112.192Z" fill="black"/>
<path d="M91.9157 98.5891C91.8341 98.2112 91.9884 98.0443 92.3786 98.0882C95.5009 98.4572 96.9712 96.4714 98.7865 94.5207C100.221 92.9918 102.353 91.6474 103.724 89.6615C103.887 89.4243 104.26 89.4507 104.387 89.7055C104.831 90.5754 105.004 91.5244 104.913 92.5612C104.886 92.8688 104.75 93.1675 104.541 93.4048C102.825 95.3555 100.72 97.2447 98.2329 99.0635C96.3178 100.461 92.7871 102.464 91.9157 98.5891Z" fill="black"/>
<path d="M66.5021 97.5171C69.1978 96.6208 71.6756 95.0568 73.9356 92.8161C74.698 92.0692 75.2063 92.201 75.4514 93.2291L75.7055 94.3011C75.9415 95.2852 75.6057 96.0321 74.7071 96.5505L69.3339 99.626C68.7077 99.9862 68.0905 99.9599 67.5005 99.5469L66.3206 98.7209C65.5763 98.2025 65.6399 97.8071 66.5021 97.5171Z" fill="black"/>
</g>
<defs>
<clipPath id="clip0_2096_575">
<rect width="130" height="180" fill="white"/>
</clipPath>
</defs>
</svg>
