<svg width="150" height="140" viewBox="0 0 150 140" fill="none" xmlns="http://www.w3.org/2000/svg">
<g clip-path="url(#clip0_2205_27)">
<path d="M77.6806 97.6655C78.0362 94.5975 79.0676 92.6566 80.1612 89.9822C81.4593 86.7979 82.6507 86.8337 83.7265 90.0984C84.4822 92.3972 85.8247 96.7353 84.8734 99.2487C83.113 103.909 77.1027 102.71 77.6806 97.6655Z" fill="black"/>
<path d="M111.609 102.961C108.506 100.081 113.005 91.6728 114.356 88.5422C114.685 87.764 115.716 87.6298 116.25 88.2828C116.677 88.8105 117.023 89.4367 117.299 90.1612C119.006 94.6692 120.989 101.029 116.241 104.097C114.765 105.054 112.773 104.034 111.609 102.961Z" fill="black"/>
<path d="M40.8008 101.762C39.5916 98.2739 43.0413 92.0753 44.5706 88.739C44.8462 88.1219 45.7175 88.1129 46.0109 88.7211C47.2023 91.163 48.0914 93.8821 48.6693 96.8786C49.2739 99.9644 48.3759 102.335 45.9753 103.998C43.9215 105.43 41.4943 103.802 40.8008 101.762Z" fill="black"/>
<path d="M92.6798 105.197C91.8707 100.537 94.8581 95.4473 97.1253 91.4849C97.2942 91.1897 97.7299 91.1987 97.8722 91.5117C99.2858 94.4724 100.246 97.764 100.771 101.395C101.171 104.15 100.406 106.234 98.4856 107.657C96.3785 109.222 93.0977 107.558 92.6798 105.197Z" fill="black"/>
<path d="M59.8985 109.678C51.7899 108.766 59.0805 96.0197 60.8943 92.7639C61.0188 92.5403 61.2944 92.4598 61.5167 92.5671C61.7123 92.6655 61.8723 92.8355 61.9879 93.077C64.2462 97.6387 66.4067 104.115 62.7881 108.471C62.0057 109.41 61.0455 109.812 59.8985 109.678Z" fill="black"/>
<path d="M27.4199 114.848C19.8537 112.782 25.8284 102.433 28.1045 98.7654C28.4246 98.2466 29.1625 98.193 29.5537 98.6581C29.8294 98.989 30.0427 99.3737 30.1939 99.8119C31.0741 102.46 31.8387 105.027 32.4789 107.522C33.039 109.74 32.2922 111.896 30.2383 113.98C29.3937 114.839 28.4513 115.125 27.4199 114.848Z" fill="black"/>
<path d="M123.122 112.496C124.003 109.356 125.247 106.306 126.919 103.47C127.337 102.764 128.386 102.835 128.688 103.605C129.737 106.225 130.591 109.025 131.249 111.995C131.916 114.991 130.947 117.37 128.341 119.132C127.692 119.571 127.052 119.696 126.43 119.499C123.211 118.462 122.109 116.127 123.122 112.496Z" fill="black"/>
<path d="M71.1814 110.027C71.6081 109.231 72.1327 107.764 72.8529 106.968C73.3597 106.413 74.2576 106.539 74.5866 107.218C76.9516 112.165 79.9034 120.376 73.9465 123.918C72.186 124.964 70.0166 122.773 69.0742 121.44C67.3582 119.016 69.9277 112.406 71.1814 110.027Z" fill="black"/>
<path d="M104.531 126.19C102.015 122.996 106.159 114.946 108.035 112.093C108.284 111.708 108.853 111.708 109.093 112.102C111.395 115.868 114.543 124.132 109.955 127.245C107.955 128.596 106.15 128.247 104.531 126.19Z" fill="black"/>
<path d="M44.6595 115.751C46.1709 118.953 46.98 122.263 47.0956 125.689C47.1845 128.345 44.4728 134.329 40.7563 132.111C38.4713 130.742 37.6 128.801 38.1424 126.306C38.9248 122.683 40.5163 119.123 42.9257 115.608C43.3614 114.973 44.3305 115.053 44.6595 115.751Z" fill="black"/>
<path d="M84.8824 134.275C81.0415 131.136 85.2291 123.56 86.7851 119.964C87.932 117.325 88.9811 117.361 89.9325 120.089C91.4084 124.338 94.618 132.039 89.479 135.045C88.0565 135.876 86.5272 135.617 84.8824 134.275Z" fill="black"/>
<path d="M53.0526 135.125C53.4882 131.762 54.9641 127.791 57.0802 124.785C57.3469 124.392 57.9337 124.419 58.1738 124.83C60.2009 128.345 61.2678 131.825 61.3745 135.277C61.4101 136.467 60.8944 137.612 59.8275 138.703C56.8223 141.78 52.5635 138.918 53.0526 135.125Z" fill="black"/>
<path d="M138.958 39.8035C134.441 35.9395 128.786 33.9001 121.994 33.6944C121.665 33.6855 121.389 33.8107 121.176 34.0701C121.096 34.1595 121.033 34.2311 120.989 34.2937C120.446 35.0003 120.064 34.9198 119.842 34.0522C117.85 26.1363 113.618 18.9627 107.146 12.5495C96.6186 2.11122 80.7304 -2.02116 66.3803 0.930543C60.4678 2.15595 53.7196 5.07187 48.4561 8.36346C39.2628 14.1148 32.968 22.1917 29.5627 32.5853C28.7359 35.1166 28.0335 38.4529 27.4467 42.6121C27.3933 42.9788 27.1799 43.1577 26.8065 43.1488C19.3736 42.8536 12.8032 45.0003 7.37079 50.2329C-2.55156 59.7946 -3.22728 76.7177 10.1092 83.0772C13.63 84.7499 18.0222 85.1702 21.8809 85.1971C40.4453 85.3044 62.6017 85.3044 88.3411 85.206C100.433 85.1524 114.916 85.4028 128.208 85.1971C134.103 85.1076 138.949 84.249 142.834 80.2955C154.57 68.3545 150.907 50.0271 138.958 39.8035ZM41.8501 53.0951C41.5122 53.6855 40.6498 53.8107 39.9118 53.3903C39.1739 52.961 38.8449 52.1381 39.1828 51.5567C39.5206 50.9663 40.3831 50.8411 41.121 51.2615C41.859 51.6908 42.1879 52.5137 41.8501 53.0951ZM66.5404 12.4958C65.8291 13.6497 64.8689 14.3563 63.6508 14.6067C62.9306 14.7588 62.2282 14.2937 62.0682 13.5781C61.4192 10.6622 64.7355 10.4118 66.3714 11.6372C66.6826 11.8787 66.7449 12.1649 66.5404 12.4958ZM73.0753 19.0701L70.9503 19.249C70.6124 19.2758 70.3368 18.9985 70.3546 18.6497L70.5235 16.4314C70.5502 16.1184 70.8169 15.8948 71.1281 15.9216L72.3284 16.0289C72.5329 16.0468 72.7107 16.181 72.7907 16.3778L73.5465 18.3187C73.6798 18.6586 73.4398 19.0343 73.0753 19.0701ZM81.1661 25.5012L78.97 25.3402C78.4454 25.3044 78.072 24.8304 78.1431 24.3116L78.5165 21.7177C78.5966 21.1363 79.2011 20.7874 79.7435 21.0021L81.2016 21.6014C81.4861 21.7177 81.6995 21.9771 81.7529 22.2812L82.1174 24.4547C82.2152 25.0271 81.7529 25.5459 81.1661 25.5012ZM86.4384 47.1202C86.394 47.5763 85.9761 47.9162 85.5227 47.8715L84.6336 47.7821C84.1801 47.7373 83.8422 47.3259 83.8867 46.8608L84.0912 44.7767C84.1357 44.3205 84.5535 43.9806 85.007 44.0254L85.8872 44.1148C86.3406 44.1595 86.6785 44.571 86.634 45.0361L86.4295 47.1202H86.4384ZM86.3051 35.2955L84.5446 35.3134C83.6822 35.3134 83.0687 34.4636 83.3532 33.6407L84.0467 31.5835C84.2601 30.9305 84.9625 30.5728 85.6116 30.7874L86.4118 31.0379C86.8741 31.1899 87.2119 31.5835 87.2831 32.0665L87.532 33.8554C87.6387 34.6157 87.0608 35.2955 86.3051 35.2955ZM90.146 70.8858C89.4791 71.0826 88.7945 70.7427 88.6256 70.1434C88.4567 69.5441 88.8657 68.9091 89.5414 68.7123C90.2082 68.5155 90.8928 68.8554 91.0617 69.4547C91.2307 70.054 90.8217 70.689 90.146 70.8858ZM102.54 48.8554C102.007 49.2042 101.206 48.918 100.753 48.2203C100.299 47.5227 100.353 46.664 100.877 46.3152C101.411 45.9663 102.211 46.2525 102.664 46.9502C103.118 47.6479 103.065 48.5066 102.54 48.8554ZM106.381 42.5674L106.168 40.9216C106.096 40.3581 106.488 39.8393 107.048 39.7677L109.182 39.4905C109.742 39.4189 110.257 39.8125 110.329 40.376L110.542 42.0218C110.613 42.5853 110.222 43.1041 109.662 43.1756L107.528 43.4529C106.968 43.5245 106.452 43.1309 106.381 42.5674ZM111.235 50.1076C111.227 50.3223 111.049 50.4923 110.835 50.4833L109.573 50.4475C109.359 50.4386 109.19 50.2508 109.19 50.0361L109.262 48.0951C109.279 47.5674 109.706 47.1559 110.222 47.1738H110.4C110.915 47.1917 111.315 47.639 111.298 48.1667L111.235 50.1076ZM106.052 37.7194C105.794 37.8357 105.492 37.7016 105.394 37.4422C101.624 27.1828 95.3116 18.7839 86.4473 12.2454C85.2115 11.333 83.86 10.9932 82.3841 11.2168C82.0018 11.2794 81.8951 11.4851 82.0552 11.8339C82.5175 12.8536 83.1399 13.6586 83.9134 14.24C87.8965 17.2275 91.9597 20.5012 94.8137 24.4457C98.6369 29.723 102.664 37.8536 102.336 44.5531C102.318 44.8483 102.175 45.054 101.918 45.1703C101.446 45.3939 100.957 45.3939 100.46 45.1792C100.211 45.0629 100.024 44.8572 99.9438 44.5978C97.7122 37.3796 94.2358 30.859 89.5147 25.0182C86.5718 21.3688 82.9443 18.3187 78.6321 15.859C77.4585 15.1881 76.605 14.4189 75.6892 13.5334C75.4847 13.3277 75.2269 13.2114 74.9335 13.1935C73.5909 13.113 72.3106 12.8894 71.1103 12.5137C70.8169 12.4153 70.6213 12.2275 70.5235 11.9413C70.0167 10.5191 69.5366 8.60496 67.7762 8.44396C65.429 8.23823 63.1885 8.0504 61.0635 7.88045C59.7832 7.78206 58.7163 8.33663 57.6494 8.91802C57.1781 9.17741 56.947 9.04324 56.947 8.49763V7.78206C56.947 7.26328 57.1604 6.86078 57.596 6.58349C59.6854 5.25076 61.757 4.44575 63.8286 4.16847C71.4927 3.12196 78.4721 3.44396 85.7627 5.78743C99.3837 10.1703 108.675 18.757 113.645 31.5567C113.743 31.8161 113.68 32.0128 113.449 32.1649C113.049 32.4153 112.649 32.5942 112.249 32.7016C111.973 32.7821 111.751 32.9341 111.582 33.1756C110.151 35.2508 108.301 36.7624 106.052 37.7194ZM113.76 68.605C113.716 68.8375 113.494 68.9896 113.263 68.9449L112.827 68.8643C112.044 68.7212 111.511 68.0325 111.644 67.3348L111.742 66.8071C111.867 66.1005 112.614 65.6533 113.396 65.8053L113.832 65.8858C114.063 65.9305 114.214 66.1542 114.169 66.3867L113.76 68.605ZM117.512 43.435C117.459 43.9449 117.175 44.1953 116.65 44.1774H116.401C116.072 44.1506 115.805 43.9001 115.779 43.5692L115.628 41.1273C115.601 40.7427 115.405 40.4744 115.041 40.3223C113.6 39.7409 112.533 38.766 111.831 37.3796C111.44 36.6014 111.787 35.6533 112.578 35.3134C113.92 34.732 115.121 34.6962 115.948 36.1273C117.263 38.3992 117.788 40.8322 117.512 43.435ZM126.75 49.571C126.75 48.5423 127.186 48.3098 128.039 48.8733C129.222 49.6515 129.933 51.1542 130.155 53.3903C130.2 53.8733 129.987 54.1327 129.497 54.1595C127.124 54.2847 126.741 51.333 126.75 49.571ZM129.275 70.6443H128.475C128.137 70.6443 127.862 70.367 127.862 70.0271V67.2543C127.862 66.9144 128.137 66.6372 128.466 66.6372H129.266C129.604 66.6372 129.88 66.9144 129.88 67.2543V70.0271C129.88 70.367 129.604 70.6443 129.275 70.6443ZM128.306 60.206L128.137 59.5799C127.933 58.8017 128.351 58.0146 129.08 57.8178L129.257 57.7731C129.462 57.7194 129.666 57.8357 129.72 58.0325L130.44 60.7516C130.493 60.9484 130.378 61.1542 130.173 61.2078L129.995 61.2615C129.266 61.4493 128.511 60.9842 128.306 60.206ZM130.929 77.469C130.671 77.5406 130.422 77.5137 130.182 77.3885C129.978 77.2812 129.951 76.9949 130.138 76.8429C130.476 76.5745 130.796 76.6103 131.089 76.9592C131.24 77.1381 131.151 77.4064 130.929 77.469ZM133.045 48.7034L134.023 49.4189C134.139 49.4994 134.228 49.6068 134.29 49.723L136.29 53.5781C136.628 54.2311 136.077 54.9914 135.357 54.8661L133.347 54.4994C133.001 54.4368 132.725 54.1685 132.645 53.8286L131.676 49.6246C131.489 48.8196 132.387 48.2203 133.045 48.7034ZM132.432 60.7069L132.947 58.9538C133.001 58.7749 133.134 58.6318 133.303 58.5781L134.725 58.1041C135.028 57.9967 135.348 58.1756 135.437 58.4797L136.477 62.1381C136.61 62.6032 136.139 63.0057 135.703 62.7999L132.734 61.3778C132.485 61.2615 132.352 60.9753 132.432 60.7069ZM136.272 71.2794C135.561 71.4672 134.725 70.6264 134.405 69.401C134.085 68.1756 134.405 67.0307 135.117 66.8429C135.828 66.6551 136.664 67.4958 136.984 68.7212C137.304 69.9466 136.984 71.0915 136.272 71.2794ZM138.504 49.4189C135.543 47.3259 132.458 45.5638 128.92 44.9198C128.528 44.8483 128.297 45.0093 128.226 45.4028C128.111 46.02 127.666 46.4046 126.892 46.5746C126.359 46.6819 125.808 46.4672 125.479 46.0289C123.638 43.5066 122.198 40.8411 121.167 38.0236C121.024 37.6211 120.971 37.2007 121.015 36.7534C121.078 36.0915 121.424 35.8769 122.038 36.1184C128.217 38.5513 133.383 39.3026 137.695 45.206C139.891 48.2203 141.776 51.664 143.341 55.537C143.367 55.5996 143.314 55.6712 143.243 55.6533C141.509 55.2508 139.989 54.893 138.691 54.5978C138.575 54.571 138.477 54.4994 138.415 54.401C137.633 53.1577 137.722 51.7892 138.673 50.3134C138.869 50.0182 138.789 49.6246 138.504 49.4189ZM142.185 71.8876C141.723 72.2007 141.483 72.0754 141.465 71.5119L141.394 68.7481C141.385 68.4618 141.5 68.2382 141.732 68.0683C141.998 67.8804 142.292 67.8357 142.603 67.952C142.896 68.0504 143.074 68.2561 143.145 68.5692C143.376 69.6515 143.172 71.1989 142.185 71.8876ZM143.563 63.2472L139.793 62.6211C139.598 62.5853 139.429 62.4422 139.375 62.2454L138.362 58.3366C138.246 57.9162 138.682 57.5495 139.082 57.7373L143.67 59.9287C143.839 60.0093 143.945 60.1703 143.963 60.3491L144.168 62.6926C144.194 63.0236 143.901 63.3008 143.563 63.2472Z" fill="black"/>
</g>
<defs>
<clipPath id="clip0_2205_27">
<rect width="150" height="140" fill="white"/>
</clipPath>
</defs>
</svg>
