<svg width="95" height="80" viewBox="0 0 95 80" fill="none" xmlns="http://www.w3.org/2000/svg">
<g clip-path="url(#clip0_2039_392)">
<path d="M64.7301 16.6776C51.3947 11.2092 38.2234 10.5229 25.2161 14.6297C19.8775 16.3181 14.5718 20.6754 11.4212 25.8497C10.6226 27.1678 9.80212 28.475 8.9707 29.7713C7.0672 32.7561 3.2055 30.5883 1.28012 29.0088C-0.951569 27.1896 0.164276 23.6384 1.36764 21.6123C8.09553 10.2506 17.7006 3.40965 30.1718 1.07849C37.9499 -0.370309 46.2968 -0.359416 55.2017 1.11117C70.1562 3.60573 85.4827 12.0698 93.8296 25.0545C94.9892 26.8628 95.5144 28.7147 94.3 30.6863C92.495 33.6057 88.3051 35.3051 85.2201 32.7887C84.706 32.3748 84.1043 31.7321 83.3932 30.8606C78.1531 24.3574 71.9284 19.6297 64.7301 16.6776Z" fill="black"/>
<path d="M54.6218 36.4054C43.9665 32.6364 31.2546 33.8455 23.1155 41.9283C21.8028 43.2246 20.2931 43.7475 18.5756 43.4969C12.5041 42.6037 13.7621 36.8194 16.6611 33.3008C20.4134 28.7148 25.205 25.7082 31.0359 24.2921C47.6313 20.2398 65.3864 24.3902 77.1575 37.059C78.6453 38.6603 79.5861 40.0873 79.9799 41.3292C80.9973 44.6298 75.2321 47.5601 72.8472 48.1374C71.9611 48.3444 71.0859 48.0503 70.1998 47.2442C67.9353 45.1527 65.6818 43.0285 63.461 40.8825C61.9623 39.4446 59.0195 37.9523 54.6218 36.4054Z" fill="black"/>
<path d="M48.9549 56.2094C45.3449 54.4991 38.3982 53.5623 34.9194 56.5035C31.5171 59.3793 28.3665 64.1397 23.3343 60.0765C16.1907 54.314 30.5654 46.2856 34.7334 44.7824C47.2155 40.2835 60.179 46.0242 66.4584 57.5601C67.3773 59.2377 67.5524 60.7845 66.9726 62.1898C65.7145 65.3161 61.0433 68.3989 58.1661 64.9675C55.2781 61.5253 53.4949 58.3553 48.9549 56.2094Z" fill="black"/>
<path d="M51.2414 70.0651C52.0946 74.5749 48.9659 78.954 44.24 79.8364C39.514 80.7187 34.996 77.7884 34.1427 73.2786C33.2894 68.7688 36.4181 64.3897 41.144 63.5074C45.87 62.625 50.3881 65.5553 51.2414 70.0651Z" fill="black"/>
</g>
<defs>
<clipPath id="clip0_2039_392">
<rect width="95" height="80" fill="white"/>
</clipPath>
</defs>
</svg>
