<svg width="146" height="140" viewBox="0 0 146 140" fill="none" xmlns="http://www.w3.org/2000/svg">
<g clip-path="url(#clip0_2350_1746)">
<path d="M62.1011 139.485C52.1245 138.733 39.5302 135.375 33.0784 126.908C32.9753 126.774 33.0063 126.588 33.1299 126.496L33.2948 126.362C33.2948 126.362 33.3876 126.331 33.4288 126.372C35.016 128.37 36.531 129.833 37.9533 130.76C46.0129 135.983 56.1646 138.197 65.6052 138.919C67.1615 139.042 68.7384 139.454 70.3049 139.691C70.3977 139.712 70.4389 139.763 70.4389 139.866C70.4389 139.969 70.3874 140.01 70.2843 140C67.5531 139.866 64.8323 139.691 62.1114 139.485H62.1011Z" fill="black"/>
<path d="M60.4307 61.8574C60.3895 61.6205 60.1938 61.4351 59.9569 61.4351C59.5345 61.4351 59.2873 61.6308 59.2049 62.0428C59.0813 62.7021 59.0298 63.3613 59.0401 64.0412C60.1423 63.6807 60.6058 62.939 60.4307 61.8574Z" fill="black"/>
<path d="M123.568 33.6325C123.702 33.3543 123.609 33.2513 123.31 33.3337C122.795 33.4676 122.548 33.8385 122.558 34.4565C122.981 34.4153 123.32 34.1372 123.568 33.6325Z" fill="black"/>
<path d="M141.594 59.3541C143.614 58.5094 144.861 56.8922 145.314 54.5126C145.923 51.34 145.191 47.3329 141.625 46.5191C141.377 46.4676 141.316 46.3234 141.439 46.0968C142.449 44.2632 144.098 42.6666 144.552 40.4107C145.129 37.5161 143.428 34.91 140.646 34.0859C137.255 33.0867 133.555 35.6928 130.618 33.3339C129.391 32.3347 128.35 31.1398 127.526 29.7389C127.33 29.4093 127.299 28.9972 127.443 28.6367C128.556 25.9172 128.082 23.4759 126.042 21.3024C123.28 18.377 120.569 18.4903 117.096 18.0164C116.591 17.9443 116.343 17.6662 116.354 17.1512C116.395 15.0704 116.56 13.0926 116.859 11.2281C117.055 10.0023 116.756 8.93101 115.941 8.01423C113.581 5.31538 110.871 4.97545 107.83 7.00474C107.531 7.21075 107.13 6.95323 107.191 6.5927C107.542 4.14108 106.542 0.412138 103.646 -0.0102008C103.491 -0.0308026 102.45 0.257624 100.513 0.865379C99.3482 1.22591 98.1733 1.20531 97.0087 0.793272C91.6288 -1.0815 87.6711 7.05624 87.063 11.053C86.7642 13.0308 87.6093 16.0078 85.0945 16.8421C84.8369 16.9245 84.5895 16.9142 84.3422 16.8421C81.7244 15.9047 79.0962 14.988 76.4578 14.0712C75.6127 13.7828 74.8088 12.866 74.4584 11.9183C73.0464 8.13784 70.2637 6.30427 66.1309 6.43818C62.7401 6.54119 59.7306 8.59108 58.6484 11.8977C58.2568 13.0617 58.0816 13.7106 57.0303 14.4935C55.5875 15.5442 54.2167 16.6258 52.9078 17.7486C52.7326 17.9031 52.444 17.8104 52.4028 17.5735C51.7844 14.4008 48.5585 6.40728 44.0959 7.58159C39.994 8.66319 30.7595 13.4222 33.3361 19.2834C34.1297 21.0964 34.9335 22.9094 35.7374 24.7017C35.8405 24.9387 35.789 25.1138 35.5622 25.2374C32.5012 26.9061 29.7185 29.1826 26.5854 30.6248C25.2353 31.2428 24.2871 31.7785 23.7615 32.2214C21.5868 34.0447 24.4932 36.1049 25.6784 37.7118C25.833 37.9281 25.833 38.1445 25.6784 38.3505C24.9879 39.2673 24.1119 39.5042 23.04 39.0509C20.4634 37.959 18.5465 34.807 14.8465 36.2491C12.3317 37.2174 11.1465 39.0509 11.2702 41.7498C11.3114 42.6151 11.3011 43.5009 11.2289 44.3971C11.2083 44.6546 11.0847 44.8504 10.8682 44.9946C9.10584 46.1174 7.32284 47.199 5.50893 48.2291C4.18971 48.9913 3.30337 49.8566 2.8705 50.8249C1.67497 53.5135 3.59195 55.1616 5.41617 56.9025C5.99333 57.4587 5.89026 57.6956 5.08637 57.6235C2.93234 57.4278 1.51006 58.1489 0.798926 59.7764C-0.448141 62.6092 2.44794 64.0513 4.44737 64.9372C4.83901 65.1123 5.07606 65.5037 5.06575 65.9364C4.96269 69.2018 4.95238 72.3436 5.58107 75.5369C8.66267 90.9986 17.7735 104.616 30.2029 114.196C31.3985 115.123 33.4185 116.339 36.2425 117.853C36.4692 117.977 36.5929 118.162 36.6135 118.42C36.7578 120.109 36.933 121.85 37.1391 123.653C37.4586 126.444 38.7778 128.618 41.0967 130.194C45.2605 133.016 49.6201 134.911 54.1549 135.869C59.2668 136.961 62.6164 137.579 64.2036 137.765C75.8085 139.042 87.1867 138.064 98.3588 134.819C102.45 133.634 106.078 131.677 109.263 128.958C112.86 125.888 112.334 122.458 113.561 118.626C113.643 118.378 113.787 118.183 114.004 118.039C117.487 115.69 120.229 113.712 122.208 112.105C133.71 102.793 140.872 90.8646 143.696 76.2888C144.789 70.6542 144.676 64.8033 141.45 59.8073C141.305 59.6013 141.357 59.4468 141.594 59.3438V59.3541ZM127.402 36.5581C130.566 36.692 133.72 36.7641 136.874 36.7847C139.007 36.8053 140.666 37.1968 141.542 39.123C141.759 39.5969 141.666 40.1531 141.316 40.524C139.77 42.1721 138.667 43.9542 138.007 45.8805C137.142 48.3939 134.946 50.1244 132.926 51.5769C132.71 51.7314 132.421 51.7005 132.225 51.5151C132.184 51.4636 132.143 51.4018 132.122 51.3297C132.071 51.1648 132.091 51.0309 132.205 50.9073C133.287 49.6609 134.472 48.4763 134.163 47.1475C134.091 46.8487 133.978 46.8281 133.813 47.096C133.308 47.9097 132.638 48.6617 131.793 49.3828C131.659 49.4858 131.566 49.4652 131.504 49.3107L130.783 47.3226C130.7 47.0754 130.515 46.9209 130.267 46.8487C130.133 46.8075 130.01 46.756 129.876 46.7045C129.68 46.6221 129.69 46.5603 129.896 46.5294C130.391 46.4676 130.638 46.1586 130.628 45.592C130.628 45.4272 130.525 45.0873 130.339 44.5928C129.917 43.4391 130.257 42.3987 131.37 41.4614C131.514 41.3377 131.566 41.2038 131.514 41.0493C131.422 40.7815 131.246 40.6888 130.978 40.7815C130.391 40.9772 129.834 41.2347 129.319 41.5644C129.113 41.6983 128.958 41.6468 128.866 41.4202C128.701 41.0184 128.495 40.6064 128.227 40.184C128.062 39.9162 127.99 39.9368 128.01 40.2562C128.124 41.5644 128.062 42.8417 127.835 44.0984C127.794 44.3662 127.701 44.3868 127.546 44.1602C126.701 42.8726 125.98 41.5438 125.372 40.184C124.98 39.3085 124.898 38.5668 125.124 37.9384C125.475 36.9805 126.227 36.5272 127.392 36.5684L127.402 36.5581ZM99.9666 76.1652C99.307 75.918 98.9875 75.7429 99.0184 75.6296C99.0184 75.6296 99.0184 75.6227 99.0184 75.609C99.0596 75.4957 99.1215 75.4647 99.2451 75.4957C100.039 75.7635 100.812 76.0622 101.585 76.3815C101.822 76.4845 101.966 76.6597 102.007 76.9172C102.131 77.7928 102.079 78.658 101.863 79.5336C101.811 79.7705 101.781 79.7602 101.781 79.513C101.781 79.1628 101.698 78.8435 101.543 78.5653C101.368 78.246 101.255 78.2666 101.224 78.6374L100.987 81.6968C100.987 81.8101 100.904 81.9028 100.791 81.944C100.657 81.9955 100.544 81.9646 100.472 81.8719C100.451 81.8307 100.42 81.7998 100.42 81.7483C100.101 80.0693 100.07 78.4005 100.327 76.7524C100.369 76.4845 100.224 76.2373 99.9769 76.1446L99.9666 76.1652ZM98.0908 70.0362C98.0084 69.3666 98.163 68.4189 98.5752 67.1828C99.3276 64.9372 99.9769 62.9285 100.554 61.1464C101.379 58.5609 101.76 58.6227 101.708 61.3319C101.647 64.3809 99.039 71.0559 104.233 71.7049C104.955 71.7976 105.006 72.0345 104.388 72.4157C102.059 73.8578 98.4928 73.1367 98.1011 70.0259L98.0908 70.0362ZM93.5973 64.6694C91.5875 64.3809 89.5881 64.1646 87.6196 64.0101C87.2279 63.9895 86.9497 63.6496 86.9806 63.2684C87.3516 59.2408 91.9173 56.3874 95.102 54.5951C95.3184 54.4714 95.5864 54.4817 95.8028 54.6157C96.9984 55.4088 97.9569 56.4183 98.7092 57.6544C99.6677 59.2614 98.7092 60.6211 98.0496 62.0735C97.1323 64.1028 95.6482 64.9578 93.5973 64.6591V64.6694ZM96.1739 79.204C96.0914 79.8632 95.9059 80.3783 95.7616 80.3577C95.6276 80.3371 95.5761 79.7911 95.6688 79.1422C95.7513 78.4829 95.9368 77.9679 96.0811 77.9885C96.2151 78.0091 96.2666 78.5447 96.1739 79.204ZM89.7324 83.6128C88.7842 84.9313 88.3101 86.6207 88.2998 88.6499C88.2998 88.9075 88.1658 89.0311 87.9082 89.0208C87.7845 89.0208 87.6608 89.0002 87.5371 88.9796C87.3104 88.9384 87.1558 89.0414 87.1043 89.268C86.9291 89.9582 86.8878 90.6792 86.96 91.4312C87.0012 91.8123 86.9085 91.8535 86.6714 91.5445C86.3416 91.1016 86.1252 90.6277 86.0221 90.1127C85.9706 89.8552 85.8572 89.8346 85.7026 90.0406C85.2491 90.5762 85.0121 91.2046 85.0224 91.9256C85.0224 92.142 84.9296 92.2862 84.7235 92.3686C84.6514 92.3892 84.5792 92.4098 84.4968 92.3995C84.3009 92.3789 84.1773 92.2759 84.1051 92.0905C83.3528 89.9067 84.8369 85.9923 85.8057 83.8703C88.2689 78.4829 90.7733 73.1985 93.3499 68.0275C93.4221 67.8936 93.5767 67.8318 93.7106 67.8936C93.8549 67.9451 93.9168 68.0996 93.8858 68.2438C92.9377 71.4783 93.5354 74.1668 93.082 77.2674C92.6182 80.4298 91.8761 84.1175 90.8661 88.3203C90.7012 89.0002 90.3817 89.4225 89.9076 89.5976C89.6809 89.68 89.5675 89.8448 89.5675 90.0818C89.5675 90.8646 89.248 91.4209 88.609 91.7711C88.3616 91.905 88.1967 91.8432 88.104 91.5754C87.7742 90.6792 87.9597 89.9479 88.6708 89.371C88.8667 89.2062 89.0006 89.0002 89.0625 88.753L90.3095 83.86C90.5775 82.7887 90.3817 82.7063 89.7427 83.5922L89.7324 83.6128ZM81.5801 58.7463C81.3533 58.6124 81.1266 58.6124 80.8999 58.7463L80.5391 58.9832C80.3433 59.1069 80.1372 59.1481 79.9104 59.0863C78.9417 58.8596 78.2924 59.2099 77.9522 60.1576C77.7564 60.6932 77.9522 61.1155 78.1274 61.5379C78.4469 62.3517 78.2305 62.5577 77.4472 62.1662C77.138 62.0014 77.0041 61.7645 77.0247 61.4349C77.0247 61.2804 77.1483 61.0537 77.3545 60.7653C77.7461 60.2091 77.8801 59.5498 77.7667 58.7669C77.7358 58.5197 77.4266 58.4167 77.2514 58.6021C76.9319 58.942 76.5403 59.1275 76.0765 59.1584C75.8188 59.1687 75.6024 59.076 75.4581 58.8596C75.1386 58.4167 74.7573 58.0665 74.3038 57.8295C74.0461 57.6956 73.974 57.7574 74.077 58.0253C74.3038 58.5712 74.5202 58.9111 74.747 59.076C75.7158 59.7661 75.6333 59.9309 74.4996 59.591C73.7369 59.3541 73.0258 58.839 72.3662 58.0665C72.0261 57.6544 71.4077 57.6338 71.047 58.0253C69.769 59.3335 71.2119 62.0838 71.6963 63.2684C72.4486 65.1432 72.2631 65.2359 71.181 63.5363C66.6771 56.5419 73.0773 53.6371 78.6015 52.6173C79.8177 52.3907 80.8792 52.5246 81.8171 53.0087C83.4146 53.8431 84.7338 55.0071 85.7747 56.5007C86.3622 57.3248 86.8981 57.6029 87.8257 57.778C88.0834 57.8295 88.1452 57.9738 88.0215 58.2004C87.6814 58.7978 87.1867 59.0657 86.5374 59.0142C86.2798 58.9935 86.1046 58.8699 86.0015 58.6227C85.7541 57.9841 85.3007 57.6544 84.6617 57.6132C84.3937 57.5926 84.2185 57.7059 84.1051 57.9429L83.662 58.8802C83.5486 59.1172 83.3631 59.2305 83.0951 59.2099C82.5489 59.179 82.0439 59.0245 81.5904 58.736L81.5801 58.7463ZM82.1263 62.0117C82.0232 62.1353 81.7038 62.0426 81.4152 61.8057C81.1266 61.5688 80.9617 61.2701 81.0648 61.1464C81.1678 61.0228 81.4873 61.1155 81.7759 61.3525C82.0645 61.5894 82.2294 61.8881 82.1263 62.0117ZM75.5818 84.0248C75.6024 84.3442 75.5303 84.3751 75.3447 84.1175C75.0046 83.6746 74.8191 83.2729 74.7882 82.9123C74.6336 81.0066 74.3656 79.1216 73.974 77.2571C73.7369 76.1446 74.0667 75.7223 74.3862 74.754C74.4584 74.4965 74.3862 74.3214 74.1389 74.2183C73.2422 73.8269 72.2013 73.9917 71.0058 74.7231C70.676 74.9291 70.3462 74.9188 70.037 74.6819C68.8827 73.796 67.5531 73.2294 66.069 72.9925C65.2033 72.8586 65.059 72.4672 65.6258 71.7976C66.0484 71.3135 66.1515 70.8396 65.9144 70.3967C65.7701 70.1083 65.6155 70.1083 65.4506 70.3761L65.3064 70.613C65.2548 70.6954 65.1724 70.716 65.0693 70.6748C64.5231 70.3967 64.1005 70.0052 63.781 69.5211C63.6161 69.2739 63.6883 69.1606 63.9871 69.1709C64.4303 69.1915 64.822 69.3563 65.1414 69.6447C65.3373 69.8198 65.4609 69.7786 65.5125 69.5211C65.564 69.2327 65.5125 68.9752 65.3476 68.7691C65.1827 68.5631 64.9662 68.491 64.7189 68.5631C63.8119 68.7897 63.1832 68.491 62.8122 67.6772C62.7091 67.4403 62.771 67.2755 63.008 67.1725C63.3069 67.0386 63.5234 66.8429 63.647 66.5853C63.781 66.2969 63.6986 66.1836 63.3791 66.2351C63.0596 66.2866 62.7813 66.4205 62.5339 66.6162C62.3278 66.7914 62.1217 66.7914 61.9259 66.6162C61.7197 66.4308 61.6682 66.1424 61.8022 65.751C62.0186 65.102 62.0495 64.4942 61.8949 63.9174C61.8228 63.6393 61.4518 63.5981 61.3075 63.835C60.3387 65.4213 60.5139 66.709 61.8228 67.6875C62.0289 67.8524 62.132 68.0584 62.132 68.3159C62.132 68.9134 61.8331 69.3872 61.2663 69.7271C61.0395 69.861 60.8849 70.0465 60.8231 70.304C60.72 70.6542 60.7612 70.9941 60.9365 71.3135C61.0395 71.4886 61.1735 71.6225 61.359 71.7049C61.5342 71.7873 61.6579 71.8903 61.761 72.0345C61.8949 72.2303 61.8434 72.3539 61.6167 72.4054C61.4312 72.4569 61.2663 72.4054 61.1323 72.2509C60.1016 71.1487 59.9161 69.9125 60.5964 68.5425C60.7097 68.3159 60.6685 68.1099 60.4933 67.9348C59.4523 66.9047 58.9783 65.6068 59.0607 64.0307C58.7412 64.1955 58.3805 64.0719 57.9579 63.6599C57.3498 63.0933 57.1953 62.4547 57.4941 61.7645C57.6178 61.4658 57.659 61.2598 57.6281 61.1361C57.5457 60.8889 57.3292 60.7447 56.9479 60.7138C56.2574 61.816 56.0513 63.0315 56.3501 64.35C56.4635 64.8857 56.3295 65.2359 55.9276 65.3904C55.6699 65.4934 55.4844 65.4213 55.3298 65.1947C54.2579 63.4745 54.361 61.816 55.6493 60.2297C55.7936 60.0442 55.9791 60.0236 56.1646 60.1576L56.9479 60.7035C56.2574 59.4571 55.8554 58.4785 55.7627 57.7883C55.7111 57.4896 55.8348 57.2527 56.1234 57.0776C56.3604 56.9334 56.6593 57.0055 56.8139 57.2218C56.8964 57.3454 56.9685 57.4896 57.02 57.6338C57.3395 58.5197 57.6384 58.5094 57.8961 57.6029C58.0507 57.057 57.8961 56.5625 57.4426 56.1299C56.5356 55.2337 55.7214 55.7178 54.8969 56.3771C53.1036 57.778 52.3925 59.5292 52.7738 61.6512C52.8563 62.1559 52.6605 63.2169 52.1761 64.8548C52.0936 65.1226 51.9287 65.205 51.6607 65.1123C51.4031 65.0093 51.2176 64.7724 51.1248 64.3809C51.0836 64.2264 50.9908 64.1852 50.8465 64.2676L50.6713 64.3603C50.5992 64.4015 50.5786 64.453 50.5889 64.5355C50.8259 66.4308 51.4443 68.1923 52.4543 69.8301C52.5059 69.9022 52.4956 70.0155 52.4131 70.0671L52.2585 70.1804C52.2585 70.1804 52.2173 70.201 52.1864 70.1804C50.1766 68.0069 49.0739 65.648 48.8574 63.1139C48.6616 60.5696 49.1563 58.53 50.3621 57.0158C52.2997 54.5641 53.6911 53.122 54.5362 52.6997C57.2674 51.3091 60.2047 52.3082 62.6164 53.9358C64.9147 55.4809 65.2445 58.8287 65.8629 61.5791C66.6152 64.896 67.7593 68.1305 69.2949 71.3032C69.6247 71.983 70.1091 72.1273 70.7584 71.7152C72.1601 70.8293 78.5191 68.8927 79.5188 71.468C80.838 74.8879 80.0857 79.1834 78.2511 81.9646C78.1171 82.1604 77.8183 82.0882 77.7976 81.8513C77.6843 80.3474 77.6018 78.8641 77.54 77.4219C77.54 77.3086 77.4781 77.2571 77.3648 77.2468C77.2514 77.2468 77.1896 77.288 77.1793 77.4116C77.1071 78.0709 76.9525 78.7095 76.7258 79.3379C76.6433 79.5954 76.5506 79.5954 76.4681 79.3379C76.1383 78.2666 75.9116 77.1747 75.8085 76.0828C75.8085 76.0519 75.7982 76.0416 75.7673 76.0416C75.7364 76.0416 75.7261 76.0416 75.7364 76.0416C75.7364 77.8546 75.6951 79.4821 75.5921 80.9448C75.5199 82.0264 75.5199 83.0565 75.623 84.0145L75.5818 84.0248ZM73.4999 80.4195C73.706 81.2024 73.5823 81.2539 73.1495 80.5843C72.0776 78.9465 72.2941 77.1026 71.7993 75.3411C71.7066 75.0115 71.923 74.6819 72.2528 74.6201C72.8609 74.5171 73.2938 74.6407 73.5205 75.0218C73.6648 75.2587 73.6751 75.6296 73.5514 76.1343C73.1701 77.7001 73.1598 79.1319 73.5102 80.4195H73.4999ZM64.5746 83.5613C63.142 84.9725 62.2351 86.3837 61.8331 87.7744C61.7404 88.0937 61.6579 88.0834 61.5755 87.7744C61.225 86.394 61.3075 85.3227 62.503 84.3545C63.9974 83.1286 65.2033 81.6144 67.3161 81.5526C67.5737 81.5526 67.7593 81.6556 67.8623 81.8925C69.2125 84.9107 70.3152 87.8259 71.1604 90.6174C71.6551 92.2347 71.418 92.348 70.4389 90.9677C69.3567 89.4328 68.7281 87.2902 67.4088 85.6421C66.8832 84.9725 66.4297 84.3442 66.0381 83.7364C65.7083 83.2214 64.9972 83.1286 64.5643 83.5716L64.5746 83.5613ZM65.3373 87.1254L64.4818 87.0224C64.3376 87.0018 64.2551 86.9194 64.2654 86.7649C64.2654 86.4455 64.3788 86.1674 64.5849 85.9511C64.7807 85.7451 64.9765 85.7451 65.1518 85.9717C65.3579 86.1983 65.5022 86.4661 65.6258 86.7649C65.7495 87.0636 65.6465 87.1872 65.3373 87.146V87.1254ZM58.5763 86.734C58.7 87.0945 58.6278 87.146 58.3496 86.8885C57.2262 85.8481 56.7418 84.5811 56.917 83.0874C56.9479 82.8299 57.0613 82.6239 57.2571 82.4488C60.2356 79.9044 63.7295 77.0202 67.7593 76.536C68.2437 76.4742 68.5941 76.9996 68.3467 77.4322C68.0272 77.9782 67.481 78.4417 66.708 78.8126C63.9665 80.1311 61.4724 81.8307 59.2565 83.9115C58.3393 84.7768 58.1744 85.5803 58.5763 86.7237V86.734ZM34.4904 77.7413C36.7165 81.2745 39.3756 84.2926 42.4675 86.7855C43.0653 87.2696 42.9828 87.4344 42.2304 87.2696C39.7775 86.7443 37.2422 85.9511 34.5934 84.9107C32.9238 84.2411 28.2241 80.9345 29.3269 78.5344C30.6873 75.5781 33.5422 74.5995 36.5723 73.9093C38.819 73.3943 40.4062 75.6296 41.0246 77.4425C41.5296 78.9465 42.2098 80.3783 43.0343 81.7277C43.1065 81.8307 43.0756 81.9234 42.9828 81.9955C42.8797 82.0676 42.787 82.0676 42.7148 81.9646C40.7566 79.5748 39.2313 76.2579 35.8611 75.6811C34.7068 75.4854 33.872 76.7421 34.4904 77.7309V77.7413ZM43.0653 75.9283C42.4881 73.8166 41.509 72.4363 40.1486 71.777C39.489 71.468 38.8809 71.4268 38.2625 70.9632C37.4998 70.3967 36.7681 70.0155 36.0569 69.8095C35.7374 69.7168 35.4901 69.4593 35.4386 69.1194L34.9645 66.472C34.9129 66.1733 35.1809 65.9364 35.4695 66.0085C40.9628 67.3888 42.4469 70.7366 43.6115 75.7841C43.6424 75.9077 43.5909 75.9901 43.4672 76.021L43.2817 76.0622C43.1889 76.0828 43.0962 76.0313 43.0756 75.9386L43.0653 75.9283ZM39.2725 55.141C36.0775 49.1047 32.2333 46.8384 27.3893 43.0889C27.3378 43.0477 27.3172 42.9653 27.3584 42.9138C27.5233 42.6666 27.7706 42.5636 28.0695 42.6048C28.4921 42.6563 28.8219 42.7799 29.0486 42.955C31.2954 44.6856 33.4804 46.3543 35.5828 47.9715C37.0257 49.0737 38.0873 50.279 38.7469 51.5769C39.221 52.504 39.4786 53.668 39.5199 55.0792C39.5199 55.45 39.4477 55.4706 39.2725 55.141ZM43.024 53.1529C43.024 52.1537 42.4263 50.9176 41.2513 49.4343C38.819 46.3852 35.6756 43.7482 31.8519 41.5026C31.5015 41.3068 31.2954 40.9978 31.213 40.5858C31.1614 40.318 31.2748 40.1943 31.5428 40.2562C37.1185 41.2347 41.1895 44.119 43.7661 48.8986C44.4875 50.2172 44.7143 51.8344 44.436 53.7401C43.6115 59.5498 44.9101 64.3706 47.0641 69.7374C47.6928 71.3238 48.5379 72.7762 49.5892 74.105C49.6201 74.1462 49.6201 74.1771 49.5892 74.208L49.4449 74.3316C49.3727 74.4038 49.2594 74.4038 49.1872 74.3316C47.1775 72.5187 45.7861 70.2628 45.0028 67.5742C43.6836 62.9697 43.024 58.1592 43.0343 53.1529H43.024ZM46.9714 78.6683C47.0229 78.555 47.1156 78.4623 47.229 78.4005C47.497 78.2666 47.8165 78.3387 47.9917 78.5859C50.29 81.9337 51.7741 85.57 54.3816 88.8251C54.4022 88.8663 54.4022 88.8972 54.3816 88.9178L54.2064 89.0826C54.093 89.1856 53.9797 89.1856 53.8663 89.0826C51.0527 86.528 48.7544 83.5613 46.9611 80.1929C46.724 79.7396 46.7343 79.2246 46.9817 78.6683H46.9714ZM50.8053 77.6795C50.929 77.597 51.3 77.9061 51.6607 78.3696C52.0112 78.8332 52.207 79.2967 52.0936 79.3791C51.9699 79.4615 51.5989 79.1525 51.2382 78.6889C50.8878 78.2254 50.692 77.7619 50.8053 77.6795ZM53.6293 63.5672C53.7426 63.5878 53.7735 63.6496 53.7529 63.7732C53.6293 64.2161 53.6499 64.6179 53.8251 65.0196C53.9178 65.2462 54.0827 65.4007 54.3095 65.4728L54.9691 65.6892C55.3298 65.8128 55.3195 65.9158 54.9485 65.9879C54.8351 66.0085 54.7114 66.0188 54.5774 66.0085C54.4022 65.9879 54.227 66.0497 54.0827 66.1527C53.8354 66.3484 53.6602 66.5956 53.5674 66.8738C53.5056 67.0798 53.4025 67.1107 53.2376 66.9768L52.9903 66.7708C52.846 66.6471 52.7944 66.4926 52.846 66.3175C53.0727 65.4728 53.2582 64.6076 53.4128 63.7114C53.4334 63.5981 53.4953 63.5466 53.619 63.5672H53.6293ZM53.5468 60.2915C53.5468 60.0648 53.6808 59.9206 53.8972 59.8794L54.1652 59.8176C54.2992 59.7867 54.3919 59.6734 54.3816 59.5395C54.361 59.1584 54.4641 58.8493 54.7114 58.6124C55.0206 58.3137 55.2061 58.3755 55.2783 58.8081C55.3607 59.385 55.2164 59.7146 54.8454 59.797C54.5465 59.8691 54.3919 60.0545 54.3507 60.3533L54.2476 61.2907C54.1961 61.8057 54.0415 61.8366 53.8045 61.3731C53.619 61.0125 53.5365 60.652 53.5571 60.2915H53.5468ZM53.3304 71.4268C53.8148 71.8182 54.1446 72.189 54.0827 72.2612C54.0209 72.3333 53.588 72.0757 53.1139 71.6946C52.6295 71.3032 52.2997 70.9323 52.3616 70.8602C52.4234 70.7881 52.8563 71.0456 53.3304 71.4268ZM54.124 68.3262C54.0106 68.2438 53.9281 68.1305 53.8766 67.9966C53.7942 67.7597 53.8766 67.5845 54.093 67.4918C54.1652 67.4506 54.2373 67.4197 54.3198 67.3991C54.4022 67.3785 54.4744 67.327 54.5362 67.2549L54.9691 66.8326C55.1546 66.6471 55.4741 66.7708 55.4844 67.0283C55.5153 67.6463 55.2886 68.0996 54.8145 68.3674C54.5774 68.5116 54.3404 68.491 54.124 68.3262ZM55.0515 69.0885H55.2886C55.5565 69.0885 55.7111 69.2224 55.7421 69.4902C55.9688 71.2826 56.8655 72.6629 58.432 73.6518C58.5248 73.7033 58.5351 73.7857 58.4732 73.8784C58.4011 73.9814 58.329 73.9917 58.2259 73.9402C56.5047 72.9719 55.3195 71.5401 54.6702 69.6241C54.5877 69.3666 54.7836 69.0988 55.0515 69.0988V69.0885ZM56.7006 66.9768C56.649 66.7193 56.6593 66.472 56.7109 66.2248C56.783 65.9364 56.9273 65.8849 57.1437 66.0909C57.3911 66.3278 57.5354 66.5956 57.556 66.9356C57.5766 67.1828 57.4838 67.3785 57.2777 67.5021C57.1746 67.5742 57.0819 67.6463 57.0097 67.7493C56.8758 67.9039 56.8655 68.0687 56.9891 68.2335C57.8652 69.5211 58.5557 70.9323 59.0401 72.4672C59.0813 72.5908 59.0401 72.6629 58.9061 72.7041L58.7103 72.7659C58.5866 72.8071 58.5042 72.7659 58.4732 72.6217C58.1228 71.2826 57.5354 70.098 56.6902 69.0782C56.4944 68.8412 56.3811 68.6146 56.3707 68.4189C56.3501 68.1408 56.4223 67.8833 56.5666 67.636C56.7006 67.43 56.7315 67.1931 56.6902 66.9562L56.7006 66.9768ZM63.3378 72.0963C63.2348 72.0448 63.2245 71.983 63.2966 71.8903C63.3791 71.8182 63.4615 71.8079 63.5543 71.8594C64.3066 72.323 64.6261 72.9307 64.5024 73.6724C64.4509 73.9711 64.2757 74.1462 63.9768 74.1771L63.2451 74.2698C62.9977 74.3007 62.7813 74.4038 62.6061 74.5789C62.4309 74.754 62.2248 74.8776 62.0083 74.9703C61.7507 75.0733 61.6991 75.0115 61.8434 74.7746C62.132 74.3316 62.2969 73.8681 62.3381 73.384C62.369 73.0852 62.4927 73.0337 62.7195 73.25C62.8947 73.4252 63.1111 73.5385 63.3585 73.5694C63.6367 73.6106 63.8119 73.4973 63.8944 73.2191C64.0387 72.7453 63.8428 72.3745 63.3172 72.0963H63.3378ZM70.3668 80.0899C70.3668 80.0899 70.3977 80.0178 70.4389 80.0178H70.645C70.8306 80.0178 70.913 80.1105 70.913 80.2856C70.8512 81.8719 72.191 83.0462 72.3353 84.7562C72.3559 84.9828 72.2837 85.0137 72.1292 84.8489C72.0261 84.7459 71.9539 84.612 71.9127 84.4575C71.8715 84.3235 71.8303 84.2308 71.789 84.169C70.9851 82.9123 70.5111 81.5526 70.3874 80.0796L70.3668 80.0899ZM56.9376 34.4979C56.9376 34.4979 56.9376 34.4155 56.9376 34.3743C56.5872 33.5708 56.4429 32.7262 56.5047 31.8609C56.5047 31.7888 56.5356 31.7579 56.6078 31.7579C56.6799 31.7579 56.7109 31.7888 56.7109 31.8609C56.8036 32.7056 56.8758 33.5399 56.9273 34.3743C56.9273 34.3743 56.9273 34.3949 56.9273 34.4052C56.9273 34.4052 56.9273 34.4258 56.9273 34.4464V34.4979C56.9273 34.673 56.9273 34.673 56.9273 34.4979H56.9376ZM56.7933 41.5541C57.8033 40.0192 60.9468 40.5652 62.4 41.2862C62.637 41.3996 62.8225 41.5953 62.9256 41.8322C63.5027 43.1507 63.4718 44.531 62.8328 45.9526C62.6782 46.2925 62.4206 46.4573 62.0392 46.4573C61.7404 46.4573 61.4518 46.5397 61.1941 46.7251C60.988 46.8591 60.854 47.0548 60.8025 47.2917L60.5757 48.157C60.2562 49.4034 59.8131 49.4446 59.2256 48.3115C58.4939 46.89 57.9167 45.3036 57.4735 43.5421C57.2468 42.6563 56.9788 42.6357 56.6593 43.4906C56.3295 44.4074 55.9585 45.4066 55.5669 46.4985C55.2061 47.4977 54.6393 48.3733 53.8766 49.1459C52.712 50.3202 51.568 51.5151 50.4549 52.7409C50.3003 52.916 50.0117 52.8336 49.9808 52.607C49.3727 48.7132 50.3725 45.2933 52.9903 42.3575C54.0003 41.2244 55.1031 40.9875 56.2883 41.6674C56.4944 41.791 56.6799 41.7498 56.8036 41.5438L56.7933 41.5541ZM62.9565 48.1879L62.905 48.4866C62.7916 49.1562 62.1732 49.6094 61.5239 49.4961H61.4518C61.2869 49.4549 61.1735 49.2901 61.2044 49.1253L61.5651 47.0033C61.5961 46.8281 61.761 46.7148 61.9156 46.7457L61.9877 46.7663C62.637 46.8694 63.0699 47.508 62.9565 48.1776V48.1879ZM79.3951 26.4632C81.4873 26.8134 83.394 28.4719 85.3522 29.5535C85.5789 29.6771 85.7438 29.8522 85.8572 30.0788C86.2488 30.8411 86.4344 31.5313 86.4034 32.139C86.3725 32.8086 86.0427 33.0249 85.4037 32.788L84.0845 32.2832C83.4558 32.0463 83.1466 31.5828 83.1466 30.9132C83.1569 29.0178 80.4052 28.0186 78.6943 28.2968C76.5506 28.6367 74.479 29.2651 72.4693 30.1921C71.82 30.4909 71.1088 29.9037 71.2737 29.2136C71.3871 28.7294 71.7581 28.2968 72.3868 27.9053C74.6027 26.5353 76.9319 26.0615 79.3848 26.4632H79.3951ZM74.9222 23.0021C75.7982 22.3222 76.6021 21.8999 76.7155 22.0544C76.8288 22.2089 76.2208 22.8785 75.3447 23.5583C74.4687 24.2382 73.6648 24.6605 73.5514 24.506C73.4381 24.3515 74.0461 23.6819 74.9222 23.0124V23.0021ZM90.8867 29.8419C90.7218 29.3063 90.7424 28.8427 90.9176 28.4513C92.0204 26.0821 92.9789 23.7129 93.7828 21.3436C93.9271 20.9213 94.1229 20.8904 94.3599 21.2818C95.4936 23.1566 93.7519 26.2778 93.1232 28.2453C92.7006 29.5638 92.4326 30.8102 92.3193 31.9948C92.2059 33.2206 91.9173 34.4464 91.4432 35.6413C91.3711 35.837 91.0928 35.837 91.0001 35.6413C90.4229 34.3434 90.0313 32.9219 89.8045 31.387C89.7839 31.284 89.8355 31.2222 89.9488 31.2119L90.1343 31.181C90.2065 31.181 90.2374 31.2016 90.2477 31.2634C90.3508 32.1802 90.66 33.0455 91.1444 33.8593C91.3505 34.1992 91.4432 34.1683 91.4226 33.7769C91.3299 32.036 91.1547 30.7381 90.8867 29.8419ZM92.3708 19.2525C92.7315 19.4174 92.9789 19.7058 93.1026 20.1384C93.1747 20.4062 93.1541 20.5917 93.0098 20.7256C92.7831 20.9316 92.6182 20.8904 92.5254 20.5814C92.443 20.3135 92.3811 20.056 92.3399 19.7882C92.2368 19.6852 92.175 19.5719 92.1338 19.438C92.0616 19.2113 92.1338 19.1392 92.3708 19.2422V19.2525ZM102.646 48.775C102.543 48.775 102.45 48.775 102.347 48.7441C102.172 48.7132 102.038 48.6102 101.956 48.4454C101.162 46.9106 101.451 45.6538 102.832 44.6856C103.038 44.5413 103.203 44.5722 103.337 44.7886C103.646 45.3242 104.058 45.6847 104.594 45.8702C104.852 45.9629 104.975 45.8702 104.955 45.592C104.831 43.8718 104.347 42.3163 103.502 40.936C102.698 39.6278 101.492 38.711 99.8738 38.1754C98.4 37.6912 96.8335 37.4337 95.1844 37.4234C94.7825 37.4234 94.4836 37.0423 94.5661 36.6508C94.8959 35.1263 96.1223 35.2911 97.2457 35.0439C101.647 34.055 104.8 39.5969 105.584 43.0889C105.821 44.1808 105.779 45.4066 105.47 46.756C105.347 47.2711 105.089 47.6316 104.708 47.817C104.481 47.92 104.357 48.0952 104.295 48.3321C104.089 49.3107 103.605 50.1966 102.873 50.9794C102.78 51.0824 102.687 51.0824 102.584 50.9794L102.316 50.7013C102.213 50.5983 102.213 50.4953 102.316 50.3923C102.698 50.0008 102.904 49.5785 102.955 49.1459C102.986 48.8883 102.873 48.7647 102.626 48.7647L102.646 48.775ZM92.443 40.0089C94.7722 39.5763 97.0705 39.6381 99.3173 40.1943C100.719 40.5446 101.976 41.3687 103.11 42.6769C103.347 42.9447 103.223 43.367 102.883 43.47C101.966 43.7688 101.317 44.3559 100.946 45.2521C100.822 45.5508 100.626 45.7672 100.348 45.9217L96.8438 47.7449C96.617 47.8582 96.5449 47.7964 96.617 47.5595C97.0293 46.1174 98.905 45.0152 99.8326 43.7173C99.9975 43.4803 100.049 43.264 99.9769 43.0786C99.9047 42.9035 99.7089 42.8314 99.544 42.9138C98.029 43.6658 96.6583 44.6134 95.4215 45.7672C95.236 45.9423 95.0195 46.0556 94.7722 46.0968C94.1435 46.2101 93.5767 46.4882 93.0923 46.9312C92.9274 47.0857 92.8552 47.0445 92.8552 46.8178C92.8552 46.6839 92.9377 46.5706 93.082 46.4676C94.3393 45.5714 95.2154 44.5825 95.6998 43.5112C95.8337 43.2228 95.8131 42.9962 95.6585 42.8005C95.4421 42.543 95.236 42.5533 95.0402 42.8211L94.6794 43.3155C94.5248 43.5215 94.3187 43.6452 94.0507 43.6658L92.0616 43.8203C91.7937 43.8409 91.5566 43.9748 91.4123 44.1911C91.1031 44.634 90.7527 45.0255 90.3611 45.3551C90.0107 45.6538 89.9385 45.6023 90.1343 45.1903C90.4229 44.5825 90.8042 44.0366 91.2886 43.5834C91.4639 43.4082 91.6906 43.3155 91.9483 43.3052C92.8861 43.2537 93.4633 42.8108 93.7003 41.9867C93.7725 41.7189 93.6797 41.6365 93.4221 41.7086L90.4126 42.6254C90.1653 42.6975 89.9488 42.8314 89.7633 43.0065C89.4129 43.3361 89.0109 43.5524 88.5472 43.6452C88.3101 43.6967 88.104 43.8203 87.9494 44.0366L87.465 44.665C87.2898 44.8916 86.9806 44.9328 86.7436 44.7783C86.3931 44.5413 86.2385 44.2426 86.3004 43.8718C86.3519 43.5937 86.4962 43.3773 86.7436 43.2331C87.0424 43.0374 87.3722 42.9447 87.7123 42.9241C88.0009 42.9035 88.2586 42.7799 88.4544 42.5739C89.7942 41.1317 91.1237 40.2767 92.4636 40.0398L92.443 40.0089ZM100.77 51.8344L99.9666 54.3375C99.8635 54.6569 99.4616 54.7805 99.1936 54.5744L97.7507 53.4413C97.4828 53.2353 97.5034 52.813 97.792 52.6276L100.039 51.2575C100.43 51.0206 100.915 51.4018 100.77 51.8344ZM72.2734 42.6151C71.82 42.1927 71.6963 42.2854 71.8818 42.8623C71.9333 43.0065 71.9539 43.1919 71.9333 43.4082C71.9333 43.6658 71.8097 43.8718 71.5932 44.016C70.6553 44.6443 69.7587 45.3242 68.893 46.035C66.9863 47.6316 66.9244 49.3725 66.7492 51.546C66.7286 51.8447 66.3576 51.9683 66.1515 51.752L65.9763 51.5769C65.6877 51.2781 65.5434 50.8661 65.5846 50.4541L66.2751 42.4708C66.2958 42.2339 66.4194 42.0691 66.6359 41.9867C67.8314 41.482 69.0063 40.9875 70.1503 40.524C71.3871 40.0089 73.0258 38.8243 75.0562 36.9495C75.6127 36.4345 76.2414 36.3521 76.9319 36.6817C78.416 37.4028 79.6219 41.2347 79.9826 42.6872C80.065 43.0374 79.962 43.3979 79.7146 43.6555C78.4779 44.9019 77.1277 45.9011 75.6642 46.6839C74.2213 47.4565 73.3453 48.5072 72.2219 49.3931C70.511 50.7322 70.2843 50.5159 71.5314 48.7338C72.191 47.7964 73.3144 46.6839 74.9222 45.386C75.1283 45.2212 75.2107 45.0049 75.1798 44.7474C75.118 44.2735 74.8603 43.8306 74.4172 43.4185C74.1492 43.1816 74.0358 43.2331 74.0977 43.5937C74.2317 44.3147 74.0461 44.8813 73.5617 45.2933C71.4386 47.1063 69.903 48.672 68.9754 50.0008C68.5941 50.5365 68.4807 50.485 68.6147 49.8463L69.1609 47.2608C69.2846 46.6839 69.5835 46.2204 70.0782 45.8805C70.4698 45.592 71.0676 45.3448 71.8612 45.1285C72.562 44.9328 72.9537 44.6546 73.0773 44.3044C73.2319 43.7997 72.9743 43.2331 72.2837 42.5945L72.2734 42.6151ZM79.7249 34.673C77.7564 33.8799 76.7052 33.1794 74.6954 34.4155C74.5821 34.4876 74.4893 34.467 74.4069 34.364L72.964 32.4274C72.8815 32.3038 72.8918 32.2008 73.0258 32.1287C75.8497 30.5012 78.7046 30.769 81.8583 31.4798C82.3221 31.5828 82.5592 32.1081 82.3221 32.5201L81.4873 34.0447C81.0751 34.7761 80.4876 34.9924 79.7146 34.673H79.7249ZM81.3636 38.917C81.1266 39.0509 80.5907 38.5668 80.1887 37.8354C79.7765 37.1041 79.6425 36.4036 79.8795 36.2697C80.1166 36.1358 80.6525 36.6199 81.0545 37.3513C81.4667 38.0826 81.6007 38.7831 81.3636 38.917ZM70.4286 54.4302C71.7787 52.9057 73.2422 51.5151 74.8191 50.2481C76.8288 48.6308 78.6634 46.1586 81.982 45.3139C82.2397 45.2418 82.4767 45.2727 82.7138 45.3757C85.9603 46.859 88.846 50.0832 91.0413 52.8336C91.2165 53.0602 91.2062 53.2559 90.9898 53.4413L89.5984 54.6569C89.3923 54.8423 89.1758 54.8526 88.9491 54.6775C86.7848 53.019 84.7029 51.5151 82.7138 50.1863C81.3636 49.2798 78.7046 50.1038 77.169 50.6189C74.6954 51.443 72.5414 52.7924 70.6966 54.6878C70.6141 54.7702 70.5317 54.7702 70.4492 54.6878C70.3668 54.6054 70.3565 54.5126 70.4286 54.4302ZM88.0628 28.4616L87.8463 29.2754C87.7639 29.5638 87.3929 29.6462 87.197 29.4196C87.1558 29.3681 87.1146 29.296 87.0837 29.2136C87.0321 29.0693 87.0321 28.9354 87.0837 28.7912C87.197 28.4719 87.4135 28.2556 87.7123 28.1423C88.0422 28.0083 88.1555 28.1217 88.0731 28.4616H88.0628ZM87.6196 38.0517C87.6917 38.299 87.6505 38.5256 87.4856 38.7213C86.3004 40.1531 85.0739 41.1832 83.8165 41.8219C83.394 42.0382 83.1466 41.9043 83.0642 41.4305L82.9714 40.833C82.8993 40.3592 83.0745 40.0295 83.5074 39.8235C84.3422 39.4321 84.9502 38.8346 85.3419 38.0517C85.4862 37.753 85.2079 37.4234 84.8987 37.5058C83.8269 37.8251 83.1054 38.6595 82.7241 40.0398C82.6828 40.2046 82.4767 40.2768 82.3324 40.1737L82.0335 39.9574C81.9408 39.8956 81.8996 39.7823 81.9408 39.669C82.6932 37.4234 84.0536 35.6928 86.0427 34.4773C86.2798 34.3331 86.5786 34.4464 86.6508 34.7039L87.6299 38.0311L87.6196 38.0517ZM73.7163 35.1057C73.7988 35.1778 73.7988 35.2499 73.7163 35.322C71.7993 37.1556 69.4804 38.608 66.7595 39.6896C66.0484 39.9677 65.296 39.3703 65.4197 38.6183C65.7804 36.2285 68.5528 33.7769 70.2328 32.2111C70.3152 32.1287 70.408 32.1287 70.4904 32.2111L73.7163 35.1057ZM72.2116 60.8683C71.5108 59.591 71.1707 58.4373 71.4592 58.2828C71.7478 58.1283 72.5311 59.0451 73.2319 60.3121C73.9328 61.5894 74.2729 62.7431 73.9843 62.8976C73.6957 63.0521 72.9124 62.1353 72.2116 60.8683ZM90.7424 66.1012C91.0413 66.1012 91.2165 66.3999 91.0825 66.6574L85.1564 77.391C84.9502 77.7515 84.4143 77.5867 84.4452 77.1747L85.2594 66.5544C85.28 66.3587 85.4346 66.2145 85.6202 66.2042L90.7424 66.1012ZM94.3702 71.8285C94.4115 71.4886 94.5351 71.4577 94.731 71.7358C96.5346 74.208 94.9886 78.1533 94.6897 80.7903C94.5764 81.841 94.463 82.8917 94.3702 83.9527C94.2672 85.127 93.5251 85.9099 93.5251 87.1151C93.5251 88.4542 93.0923 89.5049 92.2368 90.3084C92.1235 90.4114 92.0616 90.3908 92.0925 90.2363L94.3805 71.8388L94.3702 71.8285ZM103.574 76.2888C103.625 76.1137 103.718 75.9592 103.862 75.8356C104.141 75.5884 104.46 75.4751 104.811 75.4957C105.048 75.4957 105.223 75.7326 105.161 75.9695C104.718 77.5661 104.182 79.0083 103.564 80.3062C103.409 80.6255 103.306 80.6049 103.265 80.265C103.1 78.8847 103.203 77.5661 103.574 76.2991V76.2888ZM104.285 83.9424C105.109 81.7277 105.759 79.5336 106.233 77.391C106.305 77.0305 106.192 76.5979 105.882 76.0931C105.573 75.5781 105.439 75.1866 105.46 74.9188C105.501 74.5068 105.728 74.1977 106.14 73.9917C106.429 73.8578 106.686 73.8887 106.944 74.0638C107.954 74.8158 108.779 75.6708 109.418 76.6494C109.562 76.8863 109.613 77.1644 109.531 77.4219C108.717 80.2032 106.913 82.3149 105.213 84.4678C103.801 86.2498 103.491 86.085 104.285 83.9424ZM108.851 85.0446C110.077 83.3656 111.407 80.8212 112.798 77.391C113.21 76.3918 113.963 75.5575 115.086 74.8982C115.313 74.7643 115.509 74.7952 115.673 75.0012C117.322 76.9584 118.25 78.4211 118.456 79.3997C118.57 79.9766 118.528 80.3783 118.322 80.6358C117.992 81.0273 117.374 80.9861 117.127 80.5431C116.539 79.5542 115.777 78.9362 114.828 78.6992C114.323 78.5653 113.798 78.8744 113.674 79.3894C113.251 81.0685 112.582 82.8196 111.654 84.6532C111.365 85.23 110.902 85.5288 110.252 85.57L109.15 85.6318C108.624 85.673 108.521 85.4669 108.83 85.0446H108.851ZM112.355 84.7253C113.035 83.6643 113.86 82.902 114.818 82.4488C115.045 82.3458 115.292 82.3252 115.529 82.4076C116.642 82.7578 117.56 82.4797 118.291 81.5732C118.394 81.4393 118.518 81.429 118.642 81.532L118.817 81.6659C118.868 81.7071 118.879 81.7483 118.838 81.8101C118.209 82.5312 117.477 83.0668 116.632 83.4274C115.034 84.0969 113.901 84.6738 112.571 85.0343C112.241 85.127 112.159 85.0343 112.355 84.7356V84.7253ZM116.075 73.7239C116.075 73.7239 116.034 73.7754 115.993 73.7651L115.797 73.7033C115.57 73.6312 115.478 73.4767 115.55 73.2294C117.116 67.6566 119.064 62.2177 121.393 56.9128C121.898 55.7591 122.228 54.7599 122.373 53.9461C122.836 51.3091 123.372 48.6411 123.98 45.9217C124.083 45.489 124.001 44.7268 123.939 44.3559C123.815 43.604 123.578 43.5628 123.218 44.2426C122.393 45.829 121.486 47.508 121.198 49.3004C120.878 51.2678 120.517 53.2559 120.105 55.2749C120.105 55.3264 120.054 55.3573 120.002 55.347C119.889 55.3264 119.827 55.2543 119.858 55.141C120.208 53.019 120.342 50.9485 120.239 48.8986C120.219 48.4557 120.064 48.4042 119.796 48.7647C118.941 49.8566 118.24 51.0618 117.694 52.3907C117.312 53.3074 116.972 54.6466 116.683 56.4286C116.261 59.0451 115.746 61.6409 115.158 64.2058C114.416 67.4712 113.2 70.5512 111.51 73.4664C111.396 73.6621 111.097 73.6621 110.994 73.4458C110.129 71.7873 110.17 70.2525 110.778 68.3365C111.365 66.4823 111.86 64.5664 112.262 62.5783C112.314 62.362 112.262 62.1765 112.097 62.022L111.86 61.7954C111.716 61.6512 111.479 61.7233 111.427 61.9087C110.829 64.0925 110.19 66.0394 109.521 67.7391C109.191 68.5734 109.057 68.5425 109.119 67.6463C109.253 65.6789 109.706 63.7114 110.489 61.7748C110.592 61.5173 110.778 61.3834 111.056 61.3731L111.798 61.3422C112.107 61.3422 112.355 61.1979 112.54 60.9507C112.901 60.4872 113.076 59.9721 113.035 59.385C113.014 59.0142 112.942 59.0039 112.839 59.3644L112.551 60.3121C112.468 60.5902 112.272 60.7344 111.984 60.7447C111.633 60.7447 111.355 60.6005 111.149 60.2915C111.046 60.1267 110.974 59.8588 110.953 59.488C110.922 59.0966 110.85 58.6948 110.757 58.2931C110.685 58.015 110.582 58.0047 110.469 58.2622C109.83 59.6322 109.448 61.2495 109.335 63.1139C109.273 64.1543 108.758 65.1432 107.779 66.0497C107.583 66.2248 107.511 66.4411 107.573 66.6987C107.727 67.4918 108.14 68.2541 108.809 69.0061C109.129 69.3563 109.242 69.8198 109.17 70.407C109.129 70.7572 109.036 70.7675 108.902 70.4482C108.665 69.9022 108.366 69.3872 108.006 68.9134C106.717 67.2034 106.655 65.2153 107.861 63.4642C108.315 62.7946 108.583 62.2795 108.634 61.919C108.737 61.2289 108.634 60.6314 108.335 60.106C108.17 59.8485 107.985 59.7146 107.769 59.7455C107.501 59.7661 107.356 59.9103 107.336 60.1679C107.284 60.6829 107.14 61.167 106.892 61.5894C106.748 61.8263 106.635 61.816 106.542 61.5482C106.305 60.8374 106.223 60.1061 106.305 59.3438C106.367 58.7669 106.223 58.3652 105.872 58.1695C105.604 58.0253 105.45 58.0974 105.408 58.3961L105.295 59.1996C105.243 59.5498 105.151 59.5601 105.027 59.2202C103.986 56.305 106.274 52.3288 108.387 50.5674C108.706 50.2996 109.18 50.4026 109.366 50.7734L110.458 52.9469C110.747 53.5135 111.53 53.5856 111.912 53.0911C113.056 51.6078 113.808 50.4335 114.426 48.569C115.519 45.3036 117.374 39.566 119.899 37.3719C120.136 37.1762 120.456 37.0835 120.765 37.1453C121.517 37.2895 122.218 37.2483 122.857 37.0114C123.207 36.8774 123.455 36.9805 123.599 37.3204C124.558 39.5763 125.248 41.894 125.691 44.2838C126.042 46.1895 126.794 47.4771 127.907 48.878C128.185 49.2283 128.196 49.7227 127.907 50.0832C124.784 54.1315 122.3 58.3549 120.445 62.7431C119.466 65.0711 118.013 68.7279 116.086 73.7239H116.075ZM125.918 28.8221C125.681 29.914 125.124 30.9956 124.269 32.0669C124.114 32.2626 124.053 32.4274 124.073 32.582C124.114 32.8292 124.187 32.8395 124.31 32.6232C124.506 32.2832 124.753 32.0978 125.063 32.0566C125.361 32.0154 125.444 32.139 125.331 32.4068C124.949 33.2927 124.444 34.0653 123.795 34.7245C123.599 34.9203 123.383 34.9718 123.125 34.8997C122.857 34.8173 122.661 34.673 122.548 34.4361C122.321 34.3537 122.156 34.2404 122.074 34.0859C121.971 33.9211 121.971 33.746 122.074 33.5502C122.239 33.2206 122.465 32.9734 122.764 32.7983C122.97 32.685 123.115 32.4686 123.156 32.242C123.424 30.769 124.176 29.5226 125.392 28.4925C125.887 28.0804 126.062 28.1835 125.939 28.8221H125.918ZM119.229 23.2081C119.549 21.5909 120.394 21.2406 121.775 22.1471C122.249 22.4458 122.816 22.8167 123.496 23.2596C124.867 24.1661 125.207 25.3507 124.516 26.8443C123.867 28.2453 123.166 29.8522 122.434 31.6961C122.084 32.5717 121.486 33.0558 120.899 33.746C120.765 33.8902 120.631 33.9829 120.497 34.0241C120.322 34.0653 120.146 34.0653 119.971 34.0241C119.786 33.9829 119.61 34.0241 119.456 34.1168C119.394 34.158 119.322 34.1786 119.25 34.1992C119.167 34.2198 119.136 34.1992 119.157 34.1065C119.188 33.9829 119.25 33.8799 119.353 33.7872C119.497 33.6636 119.538 33.5193 119.497 33.3339C118.652 29.9758 118.58 26.5868 119.25 23.1978L119.229 23.2081ZM116.519 20.7977C116.766 20.5917 117.199 20.7153 117.467 21.0449C117.745 21.3848 117.745 21.8278 117.498 22.0235C117.25 22.2295 116.817 22.1059 116.549 21.7763C116.271 21.4363 116.271 20.9934 116.519 20.7977ZM116.323 32.3038C116.364 32.7674 116.292 33.1279 116.117 33.3854C115.972 33.5811 115.807 33.612 115.601 33.4884C115.498 33.4163 115.395 33.3854 115.292 33.3957C115.117 33.4163 115.065 33.509 115.117 33.6739C115.168 33.8387 115.261 33.9726 115.385 34.0859C115.591 34.261 115.622 34.4773 115.488 34.7039L114.571 36.2491C114.251 36.7847 114.086 36.7332 114.066 36.1255C114.024 34.9924 113.994 33.8078 113.973 32.5614C113.952 31.83 113.468 31.1089 112.499 30.4188C112.169 30.1818 112.097 30.2436 112.283 30.6042L113.519 33.097C113.633 33.3339 113.674 33.5811 113.623 33.8593C113.324 35.5898 113.221 36.9908 113.334 38.0517C113.499 39.6381 113.313 39.6896 112.746 38.196C112.19 36.692 111.654 35.0645 111.128 33.2927C110.634 31.6034 109.871 31.0265 108.356 30.357C107.614 30.0376 107.47 29.0487 108.067 28.5131C109.335 27.4109 112.561 26.0306 114.21 27.1843C115.663 28.2144 116.148 30.4394 116.323 32.3038ZM110.098 33.6223C109.995 33.7151 109.479 33.303 108.933 32.7056C108.387 32.1081 108.016 31.5519 108.119 31.4695C108.222 31.3767 108.737 31.7888 109.284 32.3862C109.83 32.9837 110.201 33.5399 110.098 33.6223ZM104.893 11.6299C105.006 10.7646 105.47 10.404 106.253 10.5586C106.511 10.5998 106.697 10.744 106.82 10.9706C107.253 11.7432 107.975 12.5363 108.954 12.3406C109.49 12.2376 109.84 11.8874 110.005 11.3002C110.077 11.0427 110.057 10.7955 109.953 10.5586C109.737 10.0538 109.603 9.67268 109.562 9.40485C109.397 8.43657 109.809 8.02453 110.778 8.15844C112.953 8.44687 113.88 9.65208 113.561 11.7741C112.963 15.7914 113.138 19.5925 114.107 23.1875C114.21 23.548 114.086 23.651 113.756 23.4862L111.706 22.5179C111.468 22.4046 111.355 22.2192 111.355 21.9514C111.407 20.5299 111.056 19.3762 110.304 18.5109C109.974 18.1194 109.613 18.037 109.253 18.2431C109.016 18.377 108.943 18.5727 109.036 18.8199C110.448 22.7961 108.222 24.7223 105.202 26.6486C105.058 26.7413 104.872 26.6177 104.893 26.4529C105.233 23.8468 105.305 21.6733 104.955 18.8302C104.625 16.0593 104.594 13.6694 104.883 11.6505L104.893 11.6299ZM105.243 31.4489C107.573 34.6112 109.15 38.1136 109.964 41.9661C109.995 42.1206 109.933 42.2236 109.789 42.2648L109.603 42.3163C109.603 42.3163 109.551 42.3163 109.541 42.2854C108.016 37.7942 105.274 34.2507 101.296 31.6549C99.9254 30.7484 98.4722 30.6145 96.9674 31.2222C96.6376 31.3664 96.2666 31.1089 96.2666 30.7484C96.2666 30.0994 96.5037 29.4814 96.9571 28.8839C99.5234 25.5052 103.553 29.1517 105.243 31.4283V31.4489ZM94.8031 3.15219C95.2154 2.80195 95.8337 2.81226 96.2151 3.19339C97.1014 4.04837 98.2042 4.81064 99.5131 5.4596C99.9151 5.65531 100.41 5.4802 100.595 5.06816L101.265 3.59513C101.368 3.36851 101.533 3.22429 101.77 3.17279C104.11 2.59594 104.233 5.43899 103.976 6.93263C103.924 7.21075 103.801 7.44768 103.605 7.65369L101.739 9.54907C101.616 9.68298 101.554 9.65207 101.543 9.46666C101.543 9.36365 101.513 9.28124 101.461 9.19883C101.368 9.06492 101.265 9.05462 101.142 9.16793C100.214 10.0847 99.5337 11.156 99.1009 12.3715C99.0184 12.6084 98.8741 12.7939 98.668 12.9381C97.7301 13.587 97.2766 14.4729 97.2972 15.5957C97.2972 15.915 97.39 15.9459 97.5549 15.6575L98.4309 14.133C98.5752 13.8858 98.6577 13.9064 98.668 14.1845C98.6886 14.6274 98.668 14.9674 98.8947 15.3794C99.6883 16.8318 100.286 18.3667 100.709 19.9633C100.781 20.2311 100.678 20.3444 100.41 20.3032L100.09 20.262C99.8532 20.2311 99.7295 20.3341 99.7295 20.5711C99.7295 20.7153 99.7708 20.8286 99.8635 20.9213C99.946 21.014 100.059 21.0552 100.183 21.0449L100.915 21.0037C101.234 20.9831 101.543 21.1994 101.616 21.5084C101.75 22.0441 101.616 22.487 101.234 22.8579C100.977 23.0845 101.008 23.2699 101.327 23.4244L101.636 23.5583C101.894 23.6716 102.069 23.8777 102.152 24.1455C102.42 24.9696 102.687 25.7936 102.955 26.6074C103.017 26.8031 103.11 26.9473 103.234 27.0607C103.378 27.2049 103.553 27.3182 103.739 27.4006C104.069 27.5448 104.048 27.6272 103.697 27.6581C103.399 27.6684 103.162 27.6066 102.997 27.4418C102.203 26.6383 101.358 25.8966 100.461 25.2168C100.265 25.0726 100.142 24.8872 100.08 24.6605L99.9563 24.2279C99.8841 23.9601 99.7192 23.888 99.4616 24.0013C98.771 24.3309 98.0599 24.4957 97.3179 24.506C97.0499 24.506 96.8747 24.3824 96.7716 24.1455C95.4009 20.8904 93.9374 17.6868 92.3811 14.5244C92.2162 14.1948 91.6906 13.5149 90.8249 12.4951C88.4647 9.75508 92.5976 5.01666 94.7825 3.14189L94.8031 3.15219ZM89.6396 18.7272C89.6396 18.4594 89.7633 18.274 90.021 18.1812C90.3508 18.0576 90.6394 18.0782 90.8764 18.2534C91.0928 18.4182 91.165 18.6242 91.1031 18.8817C90.897 19.6749 90.9795 20.4372 91.3505 21.1479C91.4432 21.323 91.5772 21.4466 91.7627 21.5084C91.8658 21.5497 91.938 21.6115 91.9792 21.7145C92.2368 22.3222 92.0204 23.0639 91.4639 23.5583C90.392 24.506 89.619 25.3301 89.1655 26.0512C88.5987 26.9473 88.4544 26.8855 88.743 25.8554C89.3408 23.6716 89.6499 21.2921 89.6396 18.7272ZM84.1464 18.3049L84.1876 18.2843C85.1976 17.4911 86.8157 17.9031 87.8257 19.201L87.9906 19.4071C88.9903 20.6947 88.9903 22.3737 87.9906 23.1566L87.9494 23.1875C87.8979 23.2287 87.8154 23.2184 87.7742 23.1669L84.1257 18.4903C84.0845 18.4388 84.0845 18.3564 84.1464 18.3152V18.3049ZM81.0029 23.3523L83.7032 19.7264C83.8062 19.5822 84.0433 19.5822 84.136 19.7367L87.1764 24.6399C87.2279 24.712 87.228 24.7944 87.197 24.8666L86.3313 27.2873C86.2695 27.4521 86.0633 27.5139 85.919 27.4006L81.0545 23.7232C80.9411 23.6407 80.9102 23.4759 81.0029 23.3626V23.3523ZM78.5912 17.8001C78.684 17.6147 79.1375 17.6456 79.5909 17.8722C80.0547 18.0988 80.3433 18.4388 80.2505 18.6345C80.1578 18.8199 79.7043 18.789 79.2508 18.5624C78.7871 18.3358 78.4985 17.9958 78.5912 17.8001ZM79.5188 22.7961C80.3124 23.2081 80.8174 23.8056 80.6525 24.1249C80.4876 24.4442 79.7043 24.3824 78.9107 23.9601C78.1171 23.548 77.6121 22.9506 77.777 22.6313C77.9419 22.3119 78.7252 22.3737 79.5188 22.7961ZM62.2557 12.1964C65.2136 6.5721 68.8414 9.17823 71.2531 13.0411C71.686 13.7415 72.1704 14.4008 72.7166 15.0292C72.8815 15.2249 72.9124 15.4412 72.8197 15.6678C72.4693 16.4816 72.1704 17.2027 71.9127 17.831C71.4077 19.0671 71.6551 19.2422 72.6548 18.3564C73.9946 17.1718 75.5715 16.9142 77.406 17.6044C78.1687 17.8928 78.3439 18.892 77.7255 19.4174C76.53 20.4269 75.2211 21.0552 73.8091 21.3127C73.5514 21.3642 73.3453 21.2818 73.1804 21.0758C73.0567 20.911 72.9537 20.7359 72.8815 20.5505C72.7888 20.3135 72.6239 20.1487 72.3868 20.0663L69.9236 19.1598C69.6659 19.0568 69.4907 18.8714 69.4186 18.6036C68.9548 16.9245 68.0375 15.606 66.6771 14.6274C66.4607 14.4729 66.4813 14.339 66.7286 14.236C67.1409 14.0609 67.615 13.9682 68.1818 13.9991C68.5013 14.0094 68.5013 13.9785 68.1818 13.9167C66.0896 13.4119 64.3582 13.2162 62.9668 13.3089C62.3793 13.3501 61.9774 12.7321 62.2454 12.2067L62.2557 12.1964ZM60.4727 14.1948L61.3281 15.4515C61.4002 15.5648 61.3075 15.7193 61.1838 15.6987C60.4314 15.5957 60.0398 15.1528 60.0089 14.3493C59.9883 13.7724 60.1429 13.7209 60.4727 14.1948ZM51.1351 27.3182C52.4956 23.2596 55.6802 17.8413 60.1326 16.9451C62.1423 16.5434 64.152 16.8627 66.1721 17.8928C66.3988 18.0164 66.5637 18.2019 66.6359 18.4594L68.0066 23.0742C68.0788 23.3214 68.0788 23.5686 68.0066 23.8159C67.6562 24.9799 67.347 26.113 67.079 27.1946C66.9554 27.6993 67.0584 27.7405 67.3779 27.3491C67.8314 26.7825 68.2127 26.113 68.5219 25.3301C68.6147 25.0829 68.7796 24.8666 68.9857 24.7017C69.6453 24.197 70.3565 23.8262 71.1294 23.6098C71.5211 23.4965 71.8509 23.5377 72.0982 23.7129C72.325 23.8777 72.325 24.0425 72.1188 24.2279C70.7687 25.3198 69.8721 26.3396 69.4392 27.2976C68.3055 29.7904 66.8008 32.2626 64.9353 34.7142C64.5849 35.1778 64.3891 35.1263 64.3685 34.5391C64.3685 34.4567 64.4715 34.3743 64.688 34.2713C64.8941 34.1683 65.0178 34.0035 65.059 33.7872L66.2958 27.1534C66.3164 27.0813 66.2855 27.0504 66.2133 27.0401L65.9247 26.9885C65.8011 26.9679 65.7289 27.0195 65.7186 27.1534C65.6258 28.101 65.3373 28.9251 64.8632 29.6462C64.688 29.914 64.6055 29.8831 64.6055 29.5741L64.554 25.9482C64.5334 24.7326 64.2551 24.6708 63.7295 25.7627C63.41 26.422 63.2142 27.2358 63.1214 28.2041C63.0802 28.5646 63.008 28.5852 62.8741 28.235C62.266 26.5868 61.8846 24.9181 61.7404 23.2081C61.7404 23.0742 61.5858 22.9918 61.4621 23.0536L61.256 23.1669C60.988 23.3111 60.8437 23.5377 60.8334 23.8365L60.5757 32.3038C60.5757 32.3038 60.5757 32.3347 60.5448 32.3347H60.2975C60.1635 32.345 60.0604 32.2523 60.0501 32.1287C59.7306 28.2556 59.7512 24.4442 60.1119 20.6741C60.1944 19.7882 59.8852 19.6028 59.1432 20.1075L58.8752 20.2826C58.3393 20.6535 57.9785 21.22 57.8652 21.8587C57.3498 24.6914 56.9788 27.5551 56.7521 30.46C56.7212 30.8514 56.5872 30.8926 56.3604 30.5733C55.9173 29.9758 55.7111 29.2857 55.7318 28.4719C55.7318 28.3586 55.6802 28.2968 55.5565 28.2865C55.4432 28.2865 55.3813 28.338 55.3813 28.4513C55.3607 29.6668 55.3607 30.8823 55.3504 32.1184C55.3504 32.3759 55.237 32.448 55 32.3244C53.1655 31.3458 51.8875 29.9243 51.1557 28.0392C51.063 27.8023 51.0527 27.5551 51.1351 27.3079V27.3182ZM46.7652 28.3483C47.0023 28.3998 47.2393 28.4822 47.4558 28.5749C47.6825 28.6779 47.9195 28.75 48.1772 28.7809C48.9708 28.853 49.4964 29.2239 49.7438 29.914C49.8468 30.1818 49.7438 30.2745 49.4758 30.2127C48.3627 29.9346 47.4248 29.3887 46.6416 28.5749C46.4354 28.3689 46.4767 28.2865 46.7652 28.3483ZM46.59 20.1487C46.5694 20.7153 46.3221 21.3127 45.848 21.9411C45.7037 22.1265 45.5594 22.1265 45.4151 21.9411C45.0235 21.4466 44.4257 21.117 43.6321 20.9728C43.4054 20.9316 43.2508 20.705 43.3126 20.4887L43.3744 20.262C43.426 20.0663 43.6115 19.9221 43.8279 19.9221C44.1577 19.9221 44.436 20.056 44.6627 20.2929C45.0544 20.7462 45.2914 20.6741 45.3533 20.0663L45.3945 19.6234C45.4254 19.335 45.58 19.2113 45.8686 19.2113C46.3736 19.2319 46.6209 19.5307 46.6003 20.1281L46.59 20.1487ZM45.3842 27.2049C44.9307 26.6589 44.7246 26.0306 44.7967 25.3095C44.8276 24.9799 44.941 24.9387 45.1471 25.2065C45.3017 25.4125 45.3636 25.6597 45.3326 25.9585C45.312 26.2057 45.3326 26.4426 45.4357 26.6692C45.4872 26.8134 45.5388 26.9576 45.58 27.1019C45.6625 27.4109 45.6006 27.4418 45.3842 27.2049ZM42.0346 23.9395C42.4881 23.8365 42.89 24.0116 43.2405 24.4854C43.5187 24.846 43.5703 25.4434 43.4157 26.2572C43.3435 26.5868 43.2714 26.5868 43.1992 26.2572C43.0137 25.5052 42.6221 24.7532 42.0243 23.991C42.014 23.9704 42.0243 23.9395 42.0449 23.9395H42.0346ZM41.9316 22.6725C41.7254 22.7652 41.3441 22.3943 41.0864 21.8484C40.8288 21.2921 40.7876 20.7668 41.004 20.6741C41.2101 20.5814 41.5914 20.9522 41.8491 21.4982C42.1068 22.0544 42.148 22.5797 41.9316 22.6725ZM36.6341 15.9872C38.4892 14.2978 40.7051 12.866 43.292 11.6814C43.8691 11.4135 44.57 11.6402 44.8689 12.2067C45.4151 13.2368 46.9095 17.4705 45.1162 18.0885C44.8586 18.1812 44.6833 18.1091 44.5803 17.8516C44.2814 17.0687 44.1783 16.2756 44.2917 15.4618C44.3329 15.2043 44.2711 14.9674 44.1165 14.7613C43.8588 14.3905 43.6218 14.0094 43.426 13.5973C43.1992 13.1235 43.1786 13.1235 43.3848 13.6282C43.4569 13.8034 43.4981 13.9785 43.5393 14.1742C43.5806 14.4317 43.5393 14.6686 43.4157 14.8953C43.0653 15.4927 43.0756 16.1417 43.4363 16.8627C43.7352 17.4602 43.7146 17.934 43.3641 18.3049C43.0446 18.6345 42.4675 18.4697 42.385 18.0061C42.0552 16.2859 41.8903 14.7819 41.88 13.484C41.88 13.381 41.8285 13.3295 41.7357 13.3192C41.6327 13.3192 41.5811 13.3604 41.5708 13.4634C41.3647 15.297 41.2719 17.2645 41.3029 19.3556C41.3235 20.6741 41.0143 20.7668 40.3341 19.6234C39.963 18.995 39.7054 18.6036 39.5817 18.4594C37.7987 16.5228 37.3246 16.8009 38.1697 19.2937C38.3449 19.8088 38.6748 20.4269 39.1695 21.1479C40.3341 22.8888 40.2001 24.609 41.8285 26.1954C42.148 26.5044 42.0861 26.6383 41.643 26.5971C41.5296 26.5971 41.375 26.525 41.2101 26.422C41.0967 26.3396 40.9937 26.2263 40.9112 26.0821C39.458 23.4244 37.9224 20.808 36.3146 18.2225C35.8611 17.5014 35.9951 16.5537 36.6341 15.9872ZM27.008 33.1073C30.0896 32.5098 32.9135 31.2325 35.4695 29.2651C35.7065 29.0899 36.0466 29.2032 36.1394 29.4917C36.7165 31.5519 37.6956 33.5914 39.0458 35.5795C39.3447 36.0122 39.9218 36.1255 40.365 35.8473C42.0243 34.7555 43.8588 33.849 45.8583 33.1485C48.3421 32.2729 52.3719 34.8791 54.0312 36.7435C54.3816 37.135 54.361 37.7221 53.99 38.093C50.9702 41.0802 48.5276 43.0889 47.3115 47.6419C47.2084 48.0128 47.0744 48.0334 46.9095 47.6831L46.4663 46.7869C46.3221 46.4779 46.3014 46.1277 46.4148 45.798C47.2187 43.5834 44.9204 42.306 47.6 40.4725C48.2906 39.9986 48.5173 39.3188 48.2906 38.4329C48.2081 38.1136 48.0123 37.9899 47.6928 38.0415L47.2599 38.1033C47.0126 38.1445 46.8477 38.0518 46.7652 37.8148L46.3427 36.5993C46.2499 36.3315 46.0644 36.1873 45.7758 36.1667C43.9207 36.0431 42.9519 36.8568 42.89 38.608C42.89 38.8655 42.7561 38.9376 42.5396 38.814C42.0965 38.5874 41.5914 38.5153 41.0349 38.5874C40.499 38.6595 40.2001 38.9067 40.1279 39.3394C40.0867 39.566 40.1795 39.6278 40.3959 39.566C40.5711 39.5042 40.7257 39.3909 40.87 39.2261C41.0452 39.0406 41.241 38.9994 41.4781 39.0921L42.9828 39.7617C43.2095 39.8647 43.3538 40.0398 43.4054 40.2974C43.7352 41.9764 44.4051 43.4906 45.4254 44.871C45.4872 44.9534 45.4769 45.0255 45.3945 45.0976C45.312 45.18 45.2296 45.1697 45.1677 45.0976C44.1886 44.0572 43.1992 43.0065 42.2201 41.9764C41.1998 40.8948 40.097 40.081 38.9015 39.5351C36.6135 38.4741 34.243 37.6603 31.7695 37.0629C29.4093 36.4963 27.8634 35.7958 26.6885 33.8902C26.503 33.5914 26.6679 33.2 27.008 33.1382V33.1073ZM26.235 46.4779L26.2556 46.4573C26.4617 46.2719 26.7812 46.2822 26.9667 46.4882L37.4586 57.8913C37.6544 58.0974 37.6338 58.4064 37.4277 58.6021L37.4071 58.6227C37.2009 58.8081 36.8814 58.7978 36.6959 58.5918L26.2041 47.1887C26.0083 46.9827 26.0289 46.6736 26.235 46.4779ZM24.5344 46.5809C24.6375 46.3131 24.7406 46.3131 24.823 46.5809C25.7403 49.2489 26.8534 51.4224 28.1417 53.0808C30.4503 56.0578 32.3879 58.7978 34.4904 60.0648C35.253 60.5284 36.5413 60.7241 37.304 61.7439C37.4792 61.9808 37.4277 62.0529 37.1494 61.9705C36.7269 61.8366 36.3146 61.6718 35.9333 61.4555C35.7065 61.3216 35.4695 61.2598 35.2118 61.2701C34.4801 61.2907 33.8308 61.0537 33.2433 60.549C29.3887 57.16 26.4926 53.0911 24.5654 48.3424C24.3077 47.7243 24.2974 47.1372 24.5241 46.5809H24.5344ZM24.5654 65.9673C24.6684 66.369 24.823 66.3793 25.0188 66.0188C25.5342 65.0402 26.4102 64.5252 27.6263 64.4736C29.7701 64.3912 32.1302 64.4221 32.6146 67.1004C32.6661 67.3579 32.7692 67.5845 32.9341 67.7803C33.5113 68.491 33.9029 69.2739 34.1193 70.1495C34.1915 70.4688 34.0884 70.5512 33.7999 70.3761L33.501 70.2113C33.2948 70.0877 33.0784 70.098 32.8723 70.2422C32.7177 70.3452 32.5528 70.3864 32.3982 70.3452C32.1096 70.2937 32.0684 70.1495 32.2436 69.9331C32.5528 69.552 32.7074 69.14 32.6971 68.7176C32.6971 68.4086 32.594 68.3674 32.3776 68.594C32.1508 68.8412 31.8932 69.1915 31.5943 69.6344C31.4397 69.861 31.2439 69.9641 31.0274 69.9331C30.7595 69.8919 30.6152 69.7374 30.6049 69.4593C30.5843 68.4292 30.4091 67.43 30.0896 66.4617C29.9968 66.1939 29.8216 66.1012 29.5433 66.1939C29.4403 66.2248 29.3475 66.2763 29.2754 66.3587C29.2135 66.4308 29.1826 66.5338 29.1826 66.6677C29.1826 67.8008 29.1002 68.7794 28.9559 69.6138C28.5539 71.8182 28.0489 71.8491 27.4408 69.6962C27.1419 68.6146 27.2965 67.4815 27.9046 66.2969C28.0798 65.9467 27.9768 65.7819 27.5851 65.7922C26.9977 65.8231 26.7297 66.1939 26.7606 66.8944C26.9049 69.3151 26.4617 71.4371 25.4311 73.2706C25.2971 73.5076 25.2044 73.4973 25.1528 73.2191C24.9467 72.1479 24.8952 70.9426 25.0085 69.6035C25.0498 69.1709 24.9055 68.8927 24.6066 68.7794C24.2871 68.6455 24.1531 68.7485 24.2149 69.0988C24.5654 70.8087 24.4829 72.4157 23.9779 73.9299C23.9058 74.1565 23.9264 74.4038 24.0294 74.6201C24.2871 75.1248 24.3283 75.609 24.1428 76.0622C23.9985 76.4227 23.7615 76.5051 23.4317 76.2991C20.9788 74.7952 20.886 71.7049 20.4119 69.2018C20.2882 68.5425 19.9893 68.0275 19.4946 67.6669C19.2679 67.4918 19.1751 67.5536 19.2164 67.8421C19.4946 69.6241 19.9069 71.365 20.4634 73.044C20.5356 73.2913 20.5459 73.5385 20.4737 73.7754C20.1439 74.9291 20.5253 75.9592 21.5971 76.8657C22.5968 77.7001 22.4629 77.9473 21.2055 77.6073C20.2573 77.3395 19.1442 76.7215 17.8765 75.7326C15.3721 73.7754 14.5682 71.2414 15.4649 68.0996C16.0935 65.9055 17.6395 64.5355 20.113 63.9895C22.5453 63.4539 24.0294 64.1131 24.5447 65.9776L24.5654 65.9673ZM14.7949 39.9368C15.3309 38.9685 16.5367 38.608 17.5261 39.1127C18.835 39.7823 19.979 40.6167 20.9581 41.6159C21.4941 42.1515 21.6281 42.9859 21.2879 43.6658C20.9066 44.428 20.381 45.0358 19.7111 45.4787C19.4843 45.6229 19.3194 45.8393 19.2473 46.0968C18.9072 47.2299 18.835 48.2394 19.0412 49.1356C19.4946 51.1648 20.01 53.2456 20.5871 55.3985C20.6077 55.5015 20.5665 55.5736 20.4737 55.6045C20.3707 55.6354 20.3088 55.6045 20.2779 55.5015C19.237 52.1434 17.8662 49.084 16.1451 46.3131C15.9802 46.0453 16.042 45.9835 16.3203 46.0968C16.8047 46.3028 17.2272 46.6427 17.557 47.096C17.9178 47.6007 18.1239 47.5389 18.1445 46.9209C18.1651 46.2719 17.9899 45.7259 17.5983 45.2727C16.7635 44.2838 15.9699 43.2846 15.2175 42.2854C14.5579 41.3996 14.4136 40.6167 14.7949 39.9471V39.9368ZM5.27188 52.6276C5.01422 52.3082 5.10698 51.8447 5.4574 51.649L6.58079 51C6.91059 50.8146 7.18886 50.8558 7.44652 51.1339C9.41503 53.2868 10.7446 53.5856 11.4557 52.0095C11.7752 51.2885 11.9092 50.7013 11.8576 50.2069C11.8267 49.9493 11.6824 49.7948 11.4351 49.733C11.2393 49.6918 11.0744 49.6197 10.9198 49.5373C10.6724 49.3828 10.6621 49.2077 10.8888 49.0222C11.4351 48.5793 12.0535 48.2909 12.7646 48.157C13.0016 48.1158 13.0944 47.9715 13.0326 47.7346C12.8677 47.1372 12.8367 46.55 12.9398 45.9938C12.981 45.7259 13.115 45.6744 13.3005 45.8702C16.1245 48.5999 16.6089 51.2575 17.557 54.5951C18.33 57.2939 19.2988 59.1069 20.8757 61.1979C20.9478 61.301 20.9272 61.3834 20.8448 61.4555C20.752 61.5379 20.6696 61.5276 20.5871 61.4452C18.5671 59.2099 16.7428 56.7376 15.1144 54.0182C14.9186 53.6783 14.4033 53.7298 14.2796 54.1006C14.0632 54.729 14.1353 55.347 14.5167 55.9445C14.6507 56.1505 14.7228 56.3874 14.764 56.6243L15.2381 60.0957C15.2793 60.3636 15.2072 60.4048 15.0114 60.2091C14.3415 59.488 13.8571 58.6536 13.5685 57.7162C13.486 57.4278 13.5891 57.2527 13.8674 57.1703C13.9704 57.1497 14.0323 57.057 14.0426 56.9025C14.0426 56.8304 14.022 56.7582 13.991 56.7067C13.2387 55.7178 12.3317 55.2337 11.2496 55.244C10.9198 55.244 10.7755 55.4191 10.8064 55.7488C11.0434 57.4587 11.3939 58.5712 11.8576 59.1069C12.1565 59.4365 12.2493 59.7867 12.1668 60.1473C12.105 60.4151 11.7649 60.5078 11.5691 60.3121C10.7652 59.4983 10.4972 58.7669 10.7755 58.1283C10.9301 57.778 10.7961 57.366 10.4766 57.16C8.3947 55.8621 6.66324 54.3478 5.28219 52.6276H5.27188ZM12.0947 63.5672C12.0019 64.3191 11.7649 64.9166 11.5588 64.8857C11.3526 64.8651 11.2599 64.2264 11.3423 63.4745C11.4351 62.7225 11.6721 62.125 11.8782 62.1559C12.0844 62.1765 12.1771 62.8152 12.0947 63.5672ZM3.54041 62.0117C3.47858 62.0117 3.42704 61.9499 3.42704 61.8881L3.44766 61.7542C3.5198 60.6623 4.8184 59.8794 6.33343 59.9927L6.63232 60.0133C8.14735 60.1267 9.30166 61.1052 9.21921 62.1868V62.3208C9.1986 62.3929 9.14707 62.4341 9.08523 62.4238L3.53011 62.0014L3.54041 62.0117ZM105.728 128.072C103.79 129.473 101.688 130.544 99.4307 131.296C85.6717 135.89 71.6757 136.745 57.4323 133.871C55.6596 133.521 53.1346 132.717 49.8468 131.45C44.7864 129.524 40.0764 126.939 39.8806 121.211C39.8188 119.46 40.2207 119.336 41.0864 120.871C41.9934 122.468 42.4881 124.374 43.6115 125.661C44.7658 126.969 46.1365 127.989 47.7546 128.731C53.5159 131.347 58.0507 132.892 61.3487 133.356C64.6571 133.809 67.9551 134.232 71.2531 134.602C74.2626 134.942 79.055 134.53 85.6511 133.366C89.3098 132.717 94.1744 131.255 100.245 128.968C101.111 128.638 102.399 128 104.11 127.042C106.635 125.641 107.913 123.395 107.944 120.325C107.944 119.862 108.15 119.409 108.511 119.11C108.562 119.058 108.624 119.007 108.686 118.966C109.057 118.646 109.284 118.718 109.356 119.203C109.923 122.962 108.717 125.908 105.738 128.061L105.728 128.072ZM55.9379 129.287L56.0822 129.462C56.144 129.534 56.1234 129.576 56.0409 129.596C55.6184 129.689 55.2164 129.648 54.8248 129.493C54.6393 129.421 54.6084 129.297 54.7217 129.133L56.144 127.114C56.2677 126.939 56.3295 126.949 56.3398 127.165C56.3501 127.763 56.2058 128.309 55.8863 128.824C55.7833 128.999 55.8039 129.153 55.9276 129.297L55.9379 129.287ZM55.2474 123.982C54.0518 123.982 52.8254 123.776 51.5989 123.354C50.3931 122.942 49.2181 122.633 48.0844 122.406C46.3014 122.046 44.5803 121.489 42.921 120.748C42.8488 120.717 42.787 120.696 42.7148 120.686C42.6736 120.686 42.6427 120.645 42.6427 120.603V120.562C42.6427 120.562 42.6427 120.521 42.6633 120.531C45.3842 121.139 48.0638 121.901 50.7126 122.787C52.2791 123.313 53.7323 123.364 55.268 123.859C55.2989 123.859 55.3195 123.9 55.3195 123.931C55.3195 123.972 55.2886 123.992 55.2474 123.992V123.982ZM53.856 129.009C53.8766 129.153 53.8251 129.215 53.6808 129.215L53.351 129.194C53.217 129.194 53.1449 129.122 53.1449 128.988C53.0521 128.041 53.1655 127.155 53.4747 126.341C53.5262 126.197 53.619 126.156 53.7632 126.197L54.124 126.31C54.2682 126.351 54.2992 126.444 54.227 126.578C53.8148 127.299 53.6911 128.103 53.8663 129.009H53.856ZM52.207 128.556L52.1864 128.587C52.0833 128.741 51.8772 128.793 51.7123 128.69L43.5909 123.477C43.4363 123.374 43.3848 123.168 43.4878 123.004L43.5084 122.973C43.6115 122.818 43.8176 122.767 43.9825 122.87L52.1039 128.082C52.2585 128.185 52.31 128.391 52.207 128.556ZM56.8861 129.555C57.3292 129.411 57.5869 128.999 57.6693 128.329C57.6797 128.195 57.7518 128.144 57.8755 128.154L58.1125 128.185C58.1641 128.185 58.195 128.226 58.1847 128.288L58.0404 130.039C58.0198 130.328 57.8755 130.41 57.6178 130.266L56.8551 129.843C56.6387 129.73 56.649 129.627 56.8861 129.545V129.555ZM62.1217 130.74C62.4412 130.523 62.771 130.451 62.8637 130.585C62.9565 130.719 62.771 131.007 62.4515 131.224C62.132 131.44 61.8022 131.512 61.7094 131.378C61.6167 131.244 61.8022 130.956 62.1217 130.74ZM78.4572 131.358C78.5088 131.543 77.8698 131.862 77.0453 132.058C76.2208 132.254 75.5199 132.254 75.4787 132.058C75.4272 131.873 76.0662 131.553 76.8907 131.358C77.7152 131.162 78.416 131.162 78.4572 131.358ZM77.0556 128.803C77.406 128.597 77.6534 128.525 77.8183 128.576C78.6015 128.844 78.5912 129.081 77.7976 129.277C77.7255 129.297 77.4781 129.225 77.0659 129.05C76.9628 128.999 76.9525 128.854 77.0556 128.803ZM80.2505 128.576C80.0135 128.7 79.7249 128.638 79.6219 128.432C79.5085 128.226 79.6219 127.969 79.8692 127.835C80.1063 127.711 80.3948 127.773 80.4979 127.979C80.6113 128.185 80.4979 128.442 80.2505 128.576ZM80.4361 132.923C80.3021 132.954 80.0238 132.316 79.8177 131.481C79.6116 130.647 79.56 129.946 79.694 129.915C79.828 129.885 80.1063 130.523 80.3124 131.358C80.5185 132.192 80.57 132.892 80.4361 132.923ZM99.9872 125.919C100.513 125.939 100.997 125.795 101.44 125.476C101.636 125.332 101.863 125.218 102.1 125.126L104.924 124.116C105.192 124.013 105.357 123.828 105.429 123.55C105.563 122.952 105.697 122.53 105.841 122.262C106.377 121.263 106.563 121.325 106.387 122.447C106.346 122.746 106.223 123.127 106.037 123.611C105.934 123.848 105.779 124.044 105.573 124.188C104.089 125.167 102.873 126.454 101.317 127.155C100.09 127.701 98.8226 128.164 97.5446 128.545C97.3179 128.618 97.153 128.545 97.019 128.36L96.617 127.773C96.4109 127.464 96.4934 127.33 96.8541 127.381C97.3591 127.443 97.8435 127.464 98.3176 127.454C98.5752 127.454 98.7401 127.33 98.8226 127.093C98.936 126.753 99.1215 126.454 99.3482 126.176C99.5234 125.981 99.7295 125.888 99.9769 125.898L99.9872 125.919ZM99.3791 124.631C99.3585 124.116 99.4513 123.694 99.575 123.683C99.6986 123.683 99.8223 124.095 99.8429 124.611C99.8635 125.126 99.7708 125.548 99.6471 125.558C99.5234 125.558 99.3997 125.146 99.3791 124.631ZM103.883 121.458C101.853 122.334 99.7605 122.87 97.6064 123.096C97.4828 123.107 97.3797 123.148 97.3076 123.22C97.2045 123.323 97.122 123.447 97.0808 123.58C96.9984 123.838 96.8438 123.869 96.6479 123.683L96.483 123.539C96.4006 123.457 96.2975 123.436 96.1945 123.477C93.3808 124.415 90.5157 125.167 87.6196 125.713C87.5371 125.733 87.4856 125.702 87.465 125.62C87.4444 125.538 87.465 125.476 87.5474 125.455C88.3101 125.187 89.0831 124.971 89.887 124.817C90.6187 124.672 91.3814 124.425 92.1544 124.075C93.1335 123.632 94.1435 123.323 95.2051 123.137C95.8337 123.024 96.4006 122.839 96.9159 122.581C98.8947 121.572 101.482 121.448 103.687 120.892C103.852 120.851 103.935 120.912 103.945 121.077L103.976 121.304C103.976 121.376 103.955 121.417 103.893 121.448L103.883 121.458ZM91.773 129.915C91.9689 129.915 92.1235 129.73 92.0513 129.534L91.1237 126.939C91.0516 126.732 91.1237 126.619 91.3402 126.599L91.6391 126.568C91.7421 126.547 91.8246 126.599 91.8658 126.712C92.1029 127.34 92.3605 127.907 92.6491 128.442C92.948 129.009 93.3499 129.267 93.8755 129.225C94.1332 129.205 94.226 129.071 94.1641 128.824C94.1126 128.566 94.1538 128.35 94.2672 128.164C94.4115 127.938 94.6176 127.876 94.8649 127.989L96.3594 128.618C96.5243 128.69 96.5243 128.927 96.3594 128.988C93.8962 129.936 91.3711 130.585 88.8151 130.946C88.5369 130.987 88.5162 130.925 88.743 130.76C89.6602 130.132 90.6806 129.843 91.7834 129.915H91.773ZM89.1449 128.484C89.1243 128.35 89.1449 128.236 89.2171 128.133C89.3201 127.989 89.4541 127.845 89.6396 127.711C89.8973 127.515 90.0313 127.577 90.0416 127.897C90.0519 128.216 89.9901 128.504 89.8458 128.772C89.7427 128.978 89.4541 129.009 89.2995 128.844C89.2171 128.741 89.1552 128.628 89.1346 128.484H89.1449ZM87.4959 130.75C87.6814 130.719 87.8463 130.843 87.8772 131.018V131.059C87.9185 131.234 87.7948 131.419 87.6093 131.44L83.4146 132.151C83.2291 132.182 83.0642 132.058 83.0333 131.883V131.842C82.992 131.667 83.1157 131.481 83.3012 131.461L87.4959 130.75ZM133.132 94.8099C126.423 105.945 115.158 114.176 102.852 118.059C97.4828 119.748 91.5051 120.985 84.9193 121.757C80.1063 122.324 75.623 122.489 71.4799 122.282C66.6359 122.046 62.2351 121.603 58.2877 120.974C52.8254 120.099 47.0229 118.461 40.8803 116.04C27.1213 110.622 16.8974 96.8907 11.8886 83.242C11.5794 82.387 11.6824 82.3355 12.1874 83.0874C13.2799 84.6738 14.2796 86.4558 15.1763 88.4542C15.8874 90.0097 17.3509 92.4716 19.5771 95.84C27.7191 108.16 40.9318 116.226 55.3092 119.439C56.4429 119.697 58.1022 120.016 60.2975 120.428C61.8537 120.727 63.544 120.882 65.3476 120.912C67.6047 120.933 69.8618 121.015 72.1188 121.139C74.7985 121.294 79.4363 121.005 86.0324 120.253C99.1112 118.76 110.644 114.083 120.641 106.223C124.681 103.051 128.144 99.4762 131.03 95.5001C133.978 91.4415 136.43 87.0636 138.368 82.3561C138.409 82.2737 138.461 82.2531 138.543 82.284C138.626 82.3046 138.657 82.3664 138.636 82.4488C137.574 86.8782 135.575 90.7204 133.112 94.7996L133.132 94.8099ZM37.5101 96.0357C37.7472 95.8606 37.8296 95.9224 37.7369 96.2005L37.3968 97.2409C37.2628 97.653 37.1391 97.653 37.0463 97.2409C36.9124 96.7362 37.067 96.3447 37.5101 96.046V96.0357ZM45.6934 100.681C45.7346 100.321 45.8995 100.074 46.1469 99.9295C46.4148 99.775 46.5591 99.8471 46.5591 100.166C46.5591 100.331 46.5385 100.517 46.4973 100.733C46.4664 100.898 46.3633 101.063 46.219 101.145C46.1675 101.186 46.0541 101.145 45.8789 101.063C45.7346 100.98 45.6625 100.857 45.6831 100.681H45.6934ZM48.7441 102.021C48.7441 102.021 48.7647 102.082 48.7234 102.103L48.5482 102.206C48.4039 102.278 48.2803 102.247 48.2184 102.093C47.7959 101.155 47.8474 100.249 48.3524 99.3629C48.4246 99.2393 48.4555 99.2496 48.4349 99.3938C48.3215 100.548 48.4349 101.413 48.7544 102.021H48.7441ZM49.2078 111.755C49.2078 111.508 49.4037 111.302 49.651 111.302C49.8984 111.302 50.1045 111.497 50.1045 111.755C50.1045 112.012 49.8984 112.198 49.651 112.198C49.4037 112.198 49.2078 112.002 49.2078 111.755ZM50.6713 100.074C50.3415 100.774 50.1663 100.743 50.1148 99.9707C50.0942 99.7337 50.1251 99.3423 50.2076 98.7758C50.2282 98.6006 50.3312 98.5079 50.5064 98.5079H50.8259C51.063 98.5079 51.1557 98.6212 51.1042 98.8582C51.0218 99.2187 50.8775 99.6204 50.6713 100.063V100.074ZM50.7744 103.195C50.7641 104.07 50.5889 104.771 50.4137 104.771C50.2282 104.771 50.0942 104.05 50.1148 103.185C50.1251 102.309 50.3003 101.609 50.4755 101.609C50.661 101.609 50.795 102.33 50.7744 103.195ZM53.0521 101.804C53.3819 101.804 53.619 102.546 53.5983 103.432C53.5777 104.328 53.2892 105.039 52.9697 105.028C52.6399 105.028 52.4028 104.287 52.4234 103.401C52.444 102.505 52.7326 101.794 53.0521 101.804ZM52.6089 99.5483C52.6502 99.0951 52.9284 98.7552 53.217 98.7861C53.5159 98.817 53.7117 99.1981 53.6705 99.6513C53.6293 100.105 53.351 100.445 53.0624 100.414C52.7635 100.383 52.5677 100.002 52.6089 99.5483ZM53.4953 106.872C53.4953 107.284 53.2788 107.614 53.0006 107.624C52.7223 107.624 52.4956 107.305 52.4853 106.893C52.4853 106.481 52.7017 106.151 52.98 106.141C53.2582 106.141 53.485 106.46 53.4953 106.872ZM52.6295 108.891C52.7841 108.809 52.9697 108.819 53.1036 108.912C53.4437 109.139 53.5262 109.386 53.351 109.633C53.0315 110.096 52.31 109.973 52.1554 109.427C52.1142 109.262 52.2688 109.077 52.6295 108.881V108.891ZM52.3822 111.724C52.7223 111.848 52.9387 112.095 52.8666 112.28C52.8048 112.466 52.4749 112.528 52.1451 112.414C51.805 112.291 51.5886 112.043 51.6607 111.858C51.7226 111.673 52.0524 111.611 52.3822 111.724ZM52.1967 114.969C51.9081 114.928 51.7432 114.68 51.7123 114.237C51.6917 114.124 51.7535 114.073 51.8669 114.083C52.341 114.134 52.5883 114.186 52.6192 114.248C53.1036 114.856 52.9697 115.092 52.1967 114.969ZM56.3295 102.886C56.9067 103.803 56.8242 104.647 56.0616 105.41C55.8554 105.605 55.7008 105.585 55.5669 105.327C54.9691 104.184 55.0825 103.112 55.9276 102.124C56.2471 101.732 56.3811 101.794 56.3192 102.299L56.2677 102.618C56.2677 102.711 56.2883 102.803 56.3295 102.876V102.886ZM56.144 110.179C55.7111 110.292 55.3401 110.179 55.0412 109.808C54.9794 109.726 55.0206 109.612 55.1134 109.581C55.7833 109.396 56.1543 109.314 56.2058 109.345C56.9582 109.674 56.9273 109.952 56.144 110.179ZM56.9582 112.188C56.9582 112.332 56.515 112.435 55.9791 112.414C55.4432 112.404 55.0103 112.26 55.0103 112.115C55.0103 111.971 55.4535 111.868 55.9894 111.889C56.5253 111.899 56.9582 112.043 56.9582 112.188ZM55.402 107.707C55.3401 107.202 55.4329 106.749 55.6699 106.337C55.8142 106.1 55.9688 106.089 56.1131 106.337L56.6902 107.243C56.7212 107.295 56.7315 107.356 56.7109 107.418C56.546 107.82 56.278 108.047 55.8863 108.098C55.5978 108.139 55.4432 108.016 55.4123 107.727L55.402 107.707ZM56.2265 100.414C56.0203 100.64 55.5772 100.578 55.237 100.269C54.8969 99.9604 54.7733 99.5277 54.9794 99.3011C55.1855 99.0745 55.6287 99.1363 55.9688 99.4453C56.3089 99.7543 56.4326 100.187 56.2265 100.414ZM55.8348 114.629C56.3501 114.722 56.7418 114.959 56.7109 115.144C56.6696 115.329 56.2265 115.401 55.7008 115.298C55.1855 115.206 54.7939 114.969 54.8248 114.783C54.866 114.598 55.3092 114.526 55.8348 114.629ZM58.5351 102.072C58.7412 101.66 58.8855 101.681 58.9679 102.134C59.0916 102.793 59.1432 103.473 59.1019 104.173C58.9576 107.078 58.9576 109.87 59.1019 112.528C59.1225 112.806 58.9886 112.94 58.7103 112.919C58.4114 112.919 58.1641 112.785 57.9373 112.548C57.7415 112.342 57.7312 112.126 57.9167 111.909C58.298 111.467 58.3496 110.982 58.0919 110.467C57.9167 110.117 57.9064 109.695 58.0713 109.334C58.329 108.757 58.2877 108.201 57.9373 107.665C57.8033 107.459 57.793 107.243 57.9167 107.037C58.4217 106.089 58.3702 105.173 57.7724 104.287C57.6281 104.07 57.6281 103.844 57.7415 103.628C58.0198 103.092 58.2877 102.577 58.5351 102.072ZM58.329 100.166C58.3083 99.8574 58.4526 99.5998 58.6278 99.5998C58.803 99.5998 58.9576 99.8265 58.9783 100.146C58.9989 100.455 58.8546 100.712 58.6794 100.712C58.5042 100.712 58.3496 100.486 58.329 100.166ZM59.0813 117.688C59.0813 117.688 59.0607 117.76 59.0092 117.771L58.8134 117.812C58.7103 117.832 58.6485 117.812 58.6278 117.709C58.3702 116.679 58.2877 115.597 58.4011 114.485C58.4217 114.32 58.5145 114.248 58.6691 114.268L58.8855 114.289C58.9989 114.31 59.0607 114.371 59.0607 114.495L59.0813 117.688ZM61.9362 104.225C61.8743 103.967 61.8846 103.72 61.9877 103.483C62.4412 102.391 62.6473 101.258 62.6164 100.084C62.6164 99.8265 62.7298 99.6616 62.9874 99.6101C63.6161 99.4659 64.2139 99.4968 64.7807 99.7337C65.0487 99.8471 65.059 99.9707 64.7807 100.084C64.3582 100.259 63.9253 100.362 63.4718 100.383C63.2142 100.383 63.0596 100.517 63.008 100.774C62.7401 101.959 63.0493 102.906 63.9253 103.628C64.1314 103.792 64.2448 104.009 64.2757 104.266C64.3582 104.967 64.1727 105.595 63.6883 106.141C63.5234 106.337 63.5234 106.532 63.7089 106.718C64.0387 107.058 64.4406 107.14 64.9044 106.944C65.1414 106.841 65.2651 106.666 65.2754 106.398C65.3167 104.678 65.6465 103.03 66.2855 101.433C66.471 100.96 66.6256 100.97 66.7389 101.464L67.1306 103.195C67.2955 103.895 68.2127 104.07 68.625 103.494C68.8517 103.164 69.0476 102.752 69.1815 102.278C69.2331 102.113 69.3464 102.01 69.5216 101.99C69.5938 101.99 69.6659 101.99 69.7381 102.01C69.8102 102.031 69.8411 102.082 69.8514 102.154L70.14 107.15C70.14 107.346 70.2431 107.47 70.4389 107.542C70.542 107.573 70.6347 107.552 70.7275 107.49C70.8202 107.429 70.8615 107.346 70.8409 107.233C70.8202 107.058 70.8306 106.903 70.8718 106.749C70.9336 106.522 71.0573 106.481 71.2428 106.635C71.3459 106.718 71.4489 106.78 71.5623 106.8C71.8509 106.852 72.0364 106.749 72.1292 106.471C72.5723 105.214 72.696 103.998 72.5105 102.834C72.459 102.577 72.6135 102.34 72.8609 102.268L73.1392 102.175C73.3865 102.093 73.5308 102.196 73.5514 102.443L73.9534 106.687C73.974 106.8 74.0564 106.903 74.1801 106.924C74.2935 106.944 74.3862 106.924 74.479 106.862C74.5202 106.841 74.5305 106.8 74.5408 106.759C74.6851 105.564 74.5202 104.534 74.0358 103.658C73.8194 103.246 74.0667 102.742 74.5202 102.67C75.2932 102.546 76.1074 102.587 76.9422 102.814C77.1793 102.886 77.4163 102.865 77.643 102.742C78.0244 102.546 78.4366 102.525 78.8695 102.67C79.1065 102.752 79.3642 102.773 79.6219 102.742L89.8251 101.31C89.8251 101.31 89.8973 101.279 89.887 101.227L89.8664 101.032C89.8458 100.898 89.7839 100.846 89.6499 100.857C84.1463 101.238 78.6634 101.186 73.1907 100.692C73.0876 100.692 73.0361 100.62 73.0464 100.527C73.0464 100.424 73.0876 100.383 73.1907 100.372C76.7258 100.208 80.2299 100.125 83.7238 100.125C88.5678 100.125 93.1026 98.9097 97.8126 98.4049C100.008 98.168 101.677 97.9105 102.821 97.6324C107.501 96.4993 112.087 95.0674 116.591 93.3472C118.436 92.6364 120.291 91.4415 122.259 90.6071C122.455 90.5247 122.682 90.6792 122.651 90.8955C122.61 91.2458 122.414 91.5239 122.084 91.699C121.857 91.8226 121.795 91.9977 121.898 92.2347C122.094 92.6776 122.404 92.9042 122.836 92.9248C123.135 92.9454 123.434 92.8424 123.712 92.6261C126.32 90.6174 128.897 88.6602 131.432 86.734C131.504 86.6825 131.597 86.6825 131.659 86.7443C131.72 86.8061 131.72 86.9091 131.659 86.9709C130.659 88.1658 129.566 89.3607 128.361 90.5659C127.258 91.6578 126.155 92.8424 125.073 94.1197C122.537 97.0761 119.61 99.6101 116.282 101.722C116.178 101.794 116.158 101.876 116.23 101.979C116.302 102.082 116.395 102.103 116.498 102.041C119.744 100.074 122.733 97.756 125.444 95.1086C126.413 94.1712 127.34 93.203 128.268 92.2347C128.299 92.1935 128.33 92.1935 128.371 92.2347L128.525 92.3789C128.629 92.4613 128.639 92.6158 128.556 92.7188C127.619 93.9137 126.65 95.1086 125.66 96.3138C123.475 99.0024 120.249 101.217 117.415 103.329C116.817 103.782 116.302 103.998 115.89 103.967C115.684 103.947 115.539 104.04 115.447 104.215C115.375 104.349 115.447 104.482 115.673 104.637C115.818 104.73 115.993 104.74 116.148 104.658C121.208 102.051 125.351 98.4564 128.608 93.8622C129.36 92.8012 130.195 91.7299 131.112 90.6277C132.555 88.9075 133.473 86.8782 135.039 85.1476C135.534 84.6017 135.606 84.6532 135.276 85.3124C134.142 87.5786 132.854 89.8861 131.422 92.2553C130.752 93.3678 129.824 94.6451 128.639 96.1078C127.278 97.7766 126.145 99.5277 124.599 100.98C120.909 104.452 118.312 106.656 116.838 107.593C111.664 110.879 107.243 113.279 103.533 114.783C101.801 115.484 98.9669 116.287 95.0299 117.163C94.7413 117.235 94.5042 117.142 94.3187 116.905L93.7931 116.236C93.556 115.937 93.4427 115.978 93.4324 116.349C93.4324 116.741 93.4118 116.998 93.3808 117.142C93.2778 117.874 92.9067 118.059 92.2781 117.668C91.299 117.081 90.6806 117.266 90.4229 118.224C90.3817 118.358 90.2992 118.44 90.1653 118.461C90.0931 118.481 90.0107 118.461 89.9385 118.43C89.8354 118.378 89.7736 118.286 89.7633 118.162C89.7221 117.41 89.5057 116.73 89.1346 116.123C88.8357 115.638 88.6915 115.68 88.7018 116.246L88.7224 118.234C88.7224 118.348 88.6399 118.451 88.5266 118.471L88.1658 118.533C87.9391 118.574 87.836 118.481 87.836 118.245C87.836 117.925 87.7948 117.637 87.702 117.4C87.5784 117.101 87.4135 117.081 87.228 117.328C87.063 117.534 86.9703 117.771 86.96 118.049C86.96 118.317 86.826 118.492 86.5993 118.615C86.2282 118.811 85.8366 118.76 85.414 118.461C85.28 118.358 85.1461 118.368 85.0018 118.461C84.909 118.533 84.8472 118.626 84.8266 118.749C84.775 118.986 84.6308 119.069 84.404 118.996C84.3113 118.966 84.2288 118.914 84.1464 118.842C84.0639 118.77 84.0124 118.677 84.0021 118.564C83.9196 118.028 83.8578 117.493 83.8269 116.967C83.8062 116.72 83.6207 116.524 83.3734 116.483C83.2909 116.473 83.2085 116.483 83.126 116.504C82.8993 116.565 82.8374 116.699 82.9302 116.916C83.1363 117.348 83.2188 117.802 83.1672 118.296C83.1363 118.564 82.992 118.729 82.7138 118.78C82.3943 118.852 82.0748 118.842 81.7553 118.76C81.5182 118.698 81.3018 118.739 81.1163 118.904C81.0441 118.955 80.972 119.017 80.8999 119.069C80.735 119.182 80.57 119.223 80.3742 119.172C79.56 118.945 78.4057 118.996 76.9319 119.347C76.5918 119.429 76.3857 119.295 76.3032 118.955C76.1589 118.296 76.2105 117.554 76.4784 116.71C76.5197 116.576 76.4784 116.504 76.3341 116.504L76.0146 116.483C75.7776 116.483 75.5818 116.658 75.5612 116.885L75.4375 119.058C75.4375 119.203 75.3344 119.326 75.2004 119.378C75.118 119.409 75.0252 119.419 74.9428 119.398C74.747 119.367 74.6233 119.254 74.6027 119.058L74.3553 116.936C74.3553 116.864 74.3038 116.823 74.211 116.833L74.0049 116.854C73.8812 116.854 73.8194 116.926 73.8297 117.05L73.9225 118.821C73.9431 119.213 73.7576 119.419 73.3659 119.419H71.3665C71.0264 119.419 70.7893 119.079 70.9027 118.76C71.2634 117.719 71.1707 116.586 70.6038 115.35C70.3668 114.835 70.7378 114.248 71.3046 114.227L76.8391 114.083C76.9319 114.083 77.0041 114.001 77.0041 113.908V113.692C77.0041 113.692 77.0041 113.661 76.9834 113.661L70.4389 113.31C70.1091 113.29 69.8411 113.609 69.9236 113.928C70.3049 115.566 69.2228 117.534 70.0988 118.883C70.2431 119.089 70.1813 119.192 69.9236 119.182C69.2949 119.161 68.7178 118.996 68.1921 118.698C67.8623 118.502 67.8417 118.296 68.1406 118.059C68.3158 117.925 68.5116 117.863 68.7281 117.884C68.996 117.894 69.1506 117.606 68.996 117.4C67.9757 115.999 67.8932 114.876 68.7384 114.011C68.9342 113.815 68.9445 113.609 68.7693 113.393C68.4601 113.001 68.0684 112.723 67.584 112.548C67.3264 112.455 67.1615 112.548 67.0893 112.816C66.976 113.3 67.0481 113.764 67.3058 114.227C67.4398 114.454 67.4501 114.68 67.3264 114.907C67.1821 115.195 66.9348 115.35 66.5843 115.36C66.4194 115.36 66.1412 115.288 65.7701 115.103C65.0178 114.753 64.2654 114.794 63.4924 115.247C63.2657 115.381 63.0493 115.36 62.8637 115.185C62.7091 115.041 62.6061 114.876 62.5649 114.68C62.5133 114.413 62.6164 114.248 62.8947 114.207L63.142 114.165C63.3584 114.134 63.41 114.021 63.276 113.846C62.6782 113.032 61.7713 112.754 60.5757 112.97C60.349 113.012 60.1326 112.867 60.1016 112.641C59.978 111.827 60.0501 110.993 60.3284 110.138C60.4314 109.808 60.5757 109.798 60.7406 110.096C61.1426 110.828 61.359 111.652 61.4002 112.548C61.4002 112.651 61.4827 112.734 61.5961 112.734H61.8537C62.1011 112.713 62.3072 112.538 62.3381 112.291C62.4927 111.054 62.4721 109.777 62.266 108.469C62.1217 107.521 61.8228 107.47 61.3487 108.314C61.2044 108.582 60.988 108.757 60.72 108.809C60.4521 108.86 60.2665 108.768 60.1429 108.52C59.9264 108.036 59.8749 107.532 59.978 107.027C60.0501 106.728 60.2253 106.615 60.5242 106.707L61.73 107.047C62.132 107.161 62.5133 106.8 62.4103 106.388L61.8949 104.246L61.9362 104.225ZM70.8615 104.081C70.8924 103.267 71.0573 102.597 71.2428 102.608C71.418 102.608 71.552 103.288 71.5211 104.101C71.4902 104.915 71.3253 105.585 71.1397 105.574C70.9645 105.574 70.8306 104.895 70.8615 104.081ZM123.527 90.4938C124.187 89.7521 124.887 89.2886 125.073 89.4637C125.258 89.6285 124.867 90.3702 124.207 91.1016C123.548 91.8432 122.847 92.3068 122.661 92.1317C122.476 91.9668 122.867 91.2252 123.527 90.4938ZM66.9657 118.801C67.0172 119.244 66.5225 119.553 66.1412 119.316C65.3579 118.832 65.296 117.997 65.966 116.802C66.3988 116.03 66.6565 116.081 66.7595 116.967L66.9657 118.801ZM64.3066 118.574C63.8841 118.852 63.4409 118.955 62.9977 118.873C62.7298 118.821 62.5546 118.667 62.4721 118.409C62.3278 117.915 62.4309 117.462 62.8122 117.06C63.008 116.854 63.2245 116.844 63.4409 117.039L64.3685 117.894C64.6364 118.142 64.6055 118.368 64.3066 118.564V118.574ZM60.6067 115.515C60.4418 115.453 60.4005 115.175 60.5036 114.886C60.6067 114.598 60.8231 114.413 60.988 114.474C61.1529 114.536 61.1941 114.814 61.0911 115.103C60.988 115.391 60.7716 115.577 60.6067 115.515ZM61.0704 118.008C61.1117 118.172 61.0498 118.224 60.8849 118.183C60.4624 118.08 60.2769 117.75 60.3696 117.214C60.4108 116.988 60.5036 116.957 60.6685 117.132C60.8334 117.307 60.9674 117.596 61.0807 118.008H61.0704ZM61.0498 104.596C61.0189 104.884 60.9158 105.08 60.7509 105.204C60.6376 105.286 60.5139 105.327 60.3799 105.317C60.1016 105.296 59.9471 105.152 59.9161 104.874C59.844 104.204 59.9161 103.473 60.1016 102.69C60.1532 102.484 60.2459 102.464 60.3902 102.618C60.8952 103.154 61.122 103.823 61.0395 104.606L61.0498 104.596ZM132.112 82.7887C127.804 85.8584 124.413 88.4439 118.868 90.3702C112.437 92.5952 105.955 94.9129 99.1833 95.8709C92.5872 96.8186 85.8675 97.7972 79.3848 97.8075C73.9328 97.8075 68.491 97.519 63.0699 96.9319C60.8849 96.695 58.6897 96.458 56.4944 96.2314C42.8282 94.7996 29.2754 89.5976 17.6704 82.3046C16.0832 81.3054 14.1456 79.6057 11.8473 77.1747C9.10584 74.2801 7.78663 71.0456 7.87939 67.4609C7.94122 65.0093 8.31225 64.9681 8.98216 67.3167C9.05431 67.5536 9.22952 68.3159 9.5181 69.5932C11.1053 76.7421 23.2152 83.4274 29.2651 86.3322C31.9241 87.6095 35.4695 88.9178 39.9218 90.2878C53.7942 94.5627 68.0066 96.2829 82.5592 95.4589C85.2697 95.3043 89.1037 94.8408 94.0507 94.0579C98.3382 93.3884 102.1 92.5746 105.357 91.6269C109.613 90.3805 113.798 88.8869 117.9 87.146C125.011 84.1278 132.73 79.5542 137.41 73.2294C139.533 70.3452 139.584 67.9657 139.935 64.9578C139.986 64.4839 140.203 64.4118 140.543 64.7518C140.862 65.0505 141.068 65.6995 141.171 66.6987C141.903 73.7548 137.389 79.0289 132.102 82.7887H132.112ZM133.679 61.6924L125.629 73.147C125.568 73.2397 125.444 73.2603 125.351 73.1985L125.145 73.0543C125.052 72.9925 125.032 72.8689 125.093 72.7762L133.143 61.3216C133.205 61.2289 133.328 61.2082 133.421 61.2701L133.627 61.4143C133.72 61.4761 133.74 61.5997 133.679 61.6924ZM137.636 62.0529C137.698 61.9499 137.842 61.919 137.956 61.9808L138.213 62.1456C138.646 62.4135 137.657 64.7827 136.008 67.4197L135.843 67.6875C134.194 70.3349 132.493 72.2612 132.061 71.9933L131.803 71.8182C131.7 71.7564 131.659 71.6122 131.72 71.4989L137.636 62.0529ZM137.008 56.2123C135.554 56.3565 134.029 56.8922 132.442 57.8295C127.794 60.5799 123.867 66.2454 121.672 71.0765C121.084 72.3642 120.94 73.9711 120.754 75.2896C120.662 75.9901 120.548 75.9901 120.414 75.2896C120.239 74.3419 120.332 73.1573 120.703 71.7461C121.795 67.6257 123.991 63.9174 127.32 60.6417C130.216 57.778 133.256 55.6354 136.43 54.1933C136.657 54.08 136.647 54.0491 136.389 54.0697C135.173 54.1727 133.978 54.4199 132.803 54.7908C132.555 54.8732 132.349 55.0071 132.174 55.2028C131.391 56.0887 130.432 56.7273 129.309 57.0982C129.103 57.1703 129.082 57.1291 129.237 56.9746L137.286 49.6403C138.45 48.5793 139.533 48.672 140.522 49.8978C140.934 50.4129 141.347 50.9279 141.769 51.443C142.738 52.6482 142.604 53.7195 141.388 54.6775C140.295 55.5324 138.832 56.0578 136.997 56.2226L137.008 56.2123Z" fill="black"/>
<path d="M122.558 34.4568C122.558 33.8388 122.795 33.4577 123.32 33.3237C123.619 33.2516 123.712 33.3443 123.578 33.6225C123.331 34.1272 122.991 34.4053 122.568 34.4465L122.558 34.4568Z" fill="black"/>
<path d="M59.04 64.0513C59.0194 63.3715 59.0812 62.7122 59.2049 62.0529C59.2873 61.6409 59.5345 61.4349 59.9568 61.4452C60.1937 61.4452 60.3998 61.6306 60.4307 61.8675C60.6058 62.9594 60.1422 63.6908 59.04 64.0513Z" fill="black"/>
<path d="M38.8394 15.9562C38.6643 15.8944 38.551 15.7811 38.5304 15.6162C38.5098 15.4102 38.5819 15.3484 38.7673 15.4205C39.1793 15.5853 39.4987 15.8738 39.6841 16.2652C39.7974 16.5021 39.7253 16.5948 39.4678 16.533C39.1793 16.4609 38.963 16.2652 38.8394 15.9459V15.9562Z" fill="black"/>
<path d="M108.263 22.1778C108.057 22.1778 107.892 21.7245 107.882 21.158C107.882 20.6017 108.036 20.1382 108.242 20.1382C108.448 20.1382 108.613 20.5914 108.624 21.158C108.624 21.7142 108.469 22.1778 108.263 22.1778Z" fill="black"/>
<path d="M54.3914 28.4716C54.3811 28.6467 54.1544 28.7085 54.0617 28.5643C53.5055 27.7608 53.3613 26.7925 53.6291 25.6594C53.7321 25.2268 53.9587 24.8662 54.3296 24.5881C54.5871 24.3924 54.6901 24.4542 54.6695 24.7735L54.3914 28.4613V28.4716Z" fill="black"/>
<path d="M134.266 46.0658V46.107C134.266 46.107 134.266 46.1276 134.287 46.1276C134.05 45.3653 134.091 44.6339 134.369 43.9541C134.482 43.6862 134.606 43.6759 134.74 43.9335C135.121 44.6854 134.956 45.3756 134.266 46.0039C134.256 46.0142 134.245 46.0451 134.245 46.0658H134.266Z" fill="black"/>
<path d="M132.843 46.4467C132.73 46.9515 132.514 47.3944 132.194 47.7859C132.009 48.0125 131.896 47.9919 131.844 47.7035C131.741 47.0751 131.885 46.4467 132.287 45.7978C132.431 45.5609 132.648 45.4682 132.926 45.5197C133.132 45.5609 133.224 45.8081 133.091 45.9729L132.957 46.1583C132.895 46.2407 132.854 46.3437 132.833 46.4467H132.843Z" fill="black"/>
<path d="M85.785 48.9601C87.2691 50.0005 88.5058 51.3912 89.4953 53.1217C89.6292 53.3586 89.5983 53.3895 89.3922 53.2144C87.8875 51.968 86.4549 50.5877 85.1047 49.0837C84.7853 48.7335 84.8677 48.5996 85.3315 48.6717C85.383 48.6717 85.5376 48.7747 85.7953 48.9601H85.785Z" fill="black"/>
<path d="M75.674 57.4483C75.3444 57.3968 75.0972 57.1804 74.9221 56.7684C74.8191 56.5109 74.8809 56.3255 75.1281 56.2122C75.5092 56.037 75.9213 55.9443 76.3642 55.9443C76.6629 55.9443 76.7453 56.0782 76.6217 56.3461L76.2612 57.1186C76.1479 57.3762 75.9522 57.4895 75.6637 57.4483H75.674Z" fill="black"/>
<path d="M78.9416 58.3032C78.787 58.4062 78.5808 58.3547 78.4881 58.2105L78.4056 58.0766C78.0449 57.51 78.1686 56.7889 78.6736 56.4696L78.9106 56.3254C79.4156 55.9958 80.1268 56.1812 80.4875 56.7374L80.57 56.8714C80.6627 57.0156 80.6215 57.2216 80.4669 57.3143L78.9312 58.2929L78.9416 58.3032Z" fill="black"/>
<path d="M40.7875 70.6437C40.6947 70.8394 39.7672 70.5922 38.6953 70.0977C37.6337 69.6033 36.8402 69.047 36.9329 68.8513C37.0257 68.6556 37.9532 68.9028 39.0251 69.3973C40.0867 69.8917 40.8802 70.448 40.7875 70.6437Z" fill="black"/>
<path d="M20.0606 73.9815C20.4418 74.4862 20.3593 74.5789 19.8031 74.2699C19.1129 73.8682 18.7009 73.2913 18.5567 72.5394C18.4743 72.1273 18.5567 72.0758 18.8348 72.4055C19.2777 72.9514 19.6898 73.4767 20.0503 73.9815H20.0606Z" fill="black"/>
<path d="M70.6647 73.8885C70.4793 74.0945 69.9952 73.9606 69.5831 73.5898C69.1711 73.2189 68.9857 72.7554 69.1711 72.5494C69.3565 72.3433 69.8407 72.4773 70.2527 72.8481C70.6647 73.2189 70.8501 73.6825 70.6647 73.8885Z" fill="black"/>
<path d="M38.2934 84.4058C36.1806 83.7363 33.7896 82.562 32.7383 80.5327C32.4497 79.9661 32.5528 79.8837 33.0578 80.2649C33.7174 80.7799 34.3358 81.3465 34.9026 81.9748C35.0469 82.1396 35.2324 82.2632 35.4386 82.356C36.5723 82.8092 37.5823 83.3758 38.4789 84.035C39.1592 84.5398 39.0973 84.6634 38.2934 84.4058Z" fill="black"/>
<path d="M94.8649 100.413C94.8649 100.537 94.1435 100.681 93.2365 100.733C92.3399 100.784 91.5978 100.722 91.5875 100.588C91.5875 100.465 92.309 100.321 93.2159 100.269C94.1126 100.218 94.8546 100.279 94.8649 100.413Z" fill="black"/>
<path d="M110.984 105.832C110.984 105.986 111.005 106.13 111.056 106.275C111.17 106.594 111.097 106.635 110.85 106.409C110.489 106.058 110.376 105.708 110.541 105.337C110.644 105.111 110.86 104.936 111.231 104.791C112.097 104.441 112.901 103.978 113.643 103.421C113.746 103.349 113.829 103.36 113.901 103.452C113.983 103.555 113.973 103.648 113.88 103.73C113.148 104.4 112.303 104.915 111.365 105.296C111.128 105.399 110.994 105.574 110.974 105.832H110.984Z" fill="black"/>
<path d="M67.9344 106.46L67.718 106.718C67.4912 106.985 67.3572 106.944 67.2954 106.604C67.1305 105.708 67.9962 104.853 68.8104 104.946C69.2227 104.987 69.4288 105.471 69.1712 105.791C69.0269 105.986 68.7898 106.11 68.4806 106.151C68.2539 106.192 68.0787 106.295 67.9344 106.46Z" fill="black"/>
<path d="M111.427 108.963C111.396 108.912 111.417 108.829 111.468 108.798L111.541 108.757C114.395 107.068 116.756 105.78 116.797 105.863L116.91 106.058C116.962 106.141 114.684 107.583 111.829 109.262L111.757 109.313C111.706 109.344 111.623 109.313 111.592 109.262L111.417 108.963H111.427Z" fill="black"/>
<path d="M105.985 107.81C105.8 107.81 105.645 107.521 105.645 107.161C105.645 106.8 105.769 106.502 105.954 106.491C106.14 106.491 106.294 106.78 106.294 107.14C106.294 107.501 106.171 107.799 105.985 107.81Z" fill="black"/>
<path d="M65.2851 113.99C65.2851 114.103 65.1924 114.196 65.0791 114.196H64.3477C64.2344 114.196 64.1314 114.103 64.1417 113.99L64.1211 108.036C64.1211 107.923 64.2138 107.83 64.3271 107.83H65.0585C65.1718 107.83 65.2748 107.923 65.2645 108.036L65.2851 113.98V113.99Z" fill="black"/>
<path d="M68.7589 109.623C68.8311 109.757 68.7898 109.911 68.6662 109.994L67.7901 110.519C67.6562 110.601 67.5016 110.55 67.4191 110.426L66.6874 109.19C66.6152 109.056 66.6564 108.902 66.7801 108.819L67.6562 108.294C67.7901 108.212 67.9447 108.263 68.0272 108.387L68.7589 109.623Z" fill="black"/>
<path d="M70.0988 109.468C70.0988 109.303 70.1503 109.19 70.2534 109.107C70.4595 108.943 70.6554 108.963 70.8409 109.149L71.5005 109.828C71.7581 110.096 71.6138 110.529 71.2634 110.611C70.6141 110.756 70.1091 110.642 69.7278 110.282C69.5423 110.096 69.5526 109.921 69.769 109.756C69.8824 109.674 70.0061 109.581 70.0988 109.478V109.468Z" fill="black"/>
<path d="M73.8811 109.746C74.0357 109.602 74.2212 109.561 74.4274 109.643C74.6541 109.725 74.6541 109.808 74.4274 109.89C73.7781 110.127 73.1185 110.199 72.4485 110.096C72.1703 110.045 72.16 109.983 72.4382 109.89C72.7268 109.808 73.0154 109.798 73.2937 109.89C73.5204 109.962 73.7059 109.911 73.8811 109.756V109.746Z" fill="black"/>
<path d="M105.213 111.642C105.779 111.229 106.346 110.745 106.913 110.168C107.057 110.024 107.202 109.962 107.336 109.973C107.593 109.983 107.665 110.117 107.542 110.344C107.026 111.291 106.253 111.724 105.213 111.642Z" fill="black"/>
<path d="M105.213 111.642C104.646 112.27 103.904 112.558 102.966 112.528C102.821 112.528 102.677 112.579 102.595 112.692C102.419 112.898 102.399 113.094 102.533 113.259C102.708 113.486 102.574 113.825 102.286 113.856C101.976 113.898 101.781 113.743 101.677 113.424C101.616 113.207 101.482 113.156 101.286 113.259L101.049 113.383C100.832 113.496 100.74 113.753 100.822 113.99L100.894 114.186C100.997 114.454 100.894 114.577 100.616 114.547C100.193 114.505 99.8635 114.32 99.6368 113.99C99.4719 113.764 99.5234 113.578 99.7605 113.444C101.471 112.507 103.285 111.909 105.213 111.631V111.642Z" fill="black"/>
<path d="M97.637 115.432C97.4619 115.432 97.3074 115.381 97.1838 115.268C97.0396 115.134 96.9778 114.959 96.9984 114.722C97.0293 114.423 97.1941 114.279 97.4722 114.289C97.8018 114.289 98.1006 114.444 98.3478 114.732C98.5538 114.969 98.5229 115.144 98.2448 115.299C98.1006 115.381 97.8946 115.422 97.637 115.443V115.432Z" fill="black"/>
<path d="M96.4719 115.896C96.3277 116.123 95.8539 116.061 95.4315 115.783C94.9989 115.494 94.762 115.092 94.9062 114.866C95.0504 114.639 95.5242 114.701 95.9466 114.979C96.3792 115.268 96.6161 115.669 96.4719 115.896Z" fill="black"/>
<path d="M72.7575 117.451C72.9223 117.729 73.015 118.049 73.0459 118.42C73.0459 118.523 72.9944 118.615 72.9017 118.636L72.5515 118.749C72.4176 118.79 72.3455 118.749 72.3146 118.605C72.191 117.853 72.2837 117.183 72.5927 116.607C72.6854 116.431 72.7678 116.442 72.8296 116.627C72.8811 116.802 72.8708 116.947 72.7781 117.08C72.6957 117.194 72.6854 117.338 72.7575 117.472V117.451Z" fill="black"/>
<path d="M81.2605 118.45C81.1574 118.45 81.0441 118.069 81.0132 117.575C80.9823 117.08 81.0441 116.679 81.1471 116.679C81.2502 116.679 81.3635 117.06 81.3944 117.554C81.4253 118.049 81.3635 118.45 81.2605 118.45Z" fill="black"/>
</g>
<defs>
<clipPath id="clip0_2350_1746">
<rect width="145" height="140" fill="white" transform="translate(0.5)"/>
</clipPath>
</defs>
</svg>
