<svg width="181" height="151" viewBox="0 0 181 151" fill="none" xmlns="http://www.w3.org/2000/svg">
<g clip-path="url(#clip0_2265_918)">
<path d="M162.777 100.764C158.298 102.826 153.981 104.838 149.836 106.789C149.462 106.96 149.037 106.689 149.048 106.276C149.048 106.196 149.058 106.115 149.088 106.035C149.31 105.482 149.674 105.059 150.17 104.758C156.266 101.016 163.93 97.5155 169.076 94.669C172.463 92.8082 176.062 90.8267 179.883 88.7446C180.055 88.6541 180.268 88.7346 180.348 88.9056L180.429 89.1268C180.571 89.4789 180.49 89.7706 180.187 89.9919C173.807 94.7796 168.014 98.3604 162.777 100.764Z" fill="black"/>
<path d="M152.93 111.164C149.583 112.583 146.914 113.578 144.933 114.162C144.67 114.232 144.518 114.142 144.478 113.87C144.427 113.468 144.559 113.156 144.882 112.945C147.218 111.335 149.695 109.967 152.323 108.841C156.974 106.829 161.705 104.626 166.487 102.222C168.236 101.337 169.945 100.633 171.603 100.08C171.876 99.9895 171.957 100.08 171.846 100.342C171.583 100.965 171.148 101.478 170.531 101.891C165.507 105.23 159.643 108.328 152.93 111.174V111.164Z" fill="black"/>
<path d="M152.475 45.3027C157.237 41.5509 161.392 38.111 164.941 34.9627C165.153 34.7716 165.173 34.4598 165.001 34.2385C164.92 34.1379 164.819 34.0575 164.708 33.9971C164.314 33.7859 163.94 33.806 163.566 34.0675C157.105 38.5536 151.201 43.4419 145.843 48.7426C145.287 49.2959 144.791 49.9597 144.377 50.7342C138.26 62.0197 132.346 73.2045 128.726 85.6266C127.281 90.5652 126.755 95.7151 127.149 101.076C127.2 101.67 127.857 102.002 128.372 101.7C129.485 101.046 130.637 100.201 131.83 99.1752C132.022 99.0142 132.143 99.0444 132.194 99.2959C132.74 102.022 132.811 104.828 132.427 107.715C132.346 108.358 131.982 108.731 131.335 108.851C127.806 109.505 124.237 110.219 120.638 110.974C117.16 111.698 116.746 113.106 115.573 116.093C115.118 117.26 114.218 117.803 113.035 117.672C112.773 117.632 112.631 117.491 112.601 117.24C112.125 113.468 111.923 109.736 111.974 106.065C111.974 105.814 112.115 105.703 112.358 105.733C116.068 106.176 119.759 106.759 123.429 107.463C125.026 107.775 126.694 107.725 128.312 107.835C128.585 107.856 128.736 107.544 128.564 107.343C123.085 101.086 121.386 91.8125 122.337 83.6753C123.054 77.4994 125.44 69.8048 130.01 65.1679C132.174 62.9752 131.85 62.5125 129.05 63.8C125.087 65.6105 120.598 66.9281 115.583 67.773C115.502 67.7931 115.442 67.773 115.381 67.6926L115.199 67.4713C115.138 67.3908 115.179 67.2802 115.27 67.2701C119.354 66.5057 123.317 65.178 127.179 63.287C128.251 62.764 129.565 62.4723 131.143 62.4019C131.294 62.4019 131.416 62.3315 131.496 62.2108L132.457 60.9434C132.507 60.873 132.487 60.8428 132.406 60.8629C129.929 61.3558 127.483 61.9593 125.077 62.6734C123.206 63.2267 121.487 63.2065 119.607 63.9106C112.843 66.4051 106.464 67.8837 100.479 68.3363C92.2086 68.9599 84.6159 66.7873 77.6804 61.8185C77.1446 61.4363 76.4065 61.8185 76.4166 62.4723C76.4369 63.9509 76.3661 65.3289 76.2347 66.6163C76.0628 68.2257 76.6087 69.6137 77.8523 70.8006C78.196 71.1325 78.1758 71.1526 77.7916 70.871C76.1133 69.664 75.0821 68.0848 74.6878 66.1335C74.516 65.2987 74.2228 65.2584 73.8285 66.0028C73.0298 67.4914 72.1805 68.97 71.2807 70.4787C65.9224 79.4005 63.87 89.3482 65.1237 100.322C65.2652 101.609 65.4775 102.585 65.7505 103.249C65.9224 103.651 66.2156 103.852 66.6503 103.862C69.4912 103.953 72.7265 103.802 76.3358 103.41C79.753 103.038 84.6463 103.209 91.0055 103.933C91.3088 103.973 91.4504 104.134 91.4402 104.436C91.2178 108.69 90.7629 112.844 90.0349 116.878C89.9642 117.26 89.6103 117.542 89.216 117.501C85.7988 117.2 80.5112 116.345 77.9534 114.031C76.5178 112.744 75.1327 111.899 73.788 111.507C69.4104 110.249 65.0731 109.314 60.7561 108.721C59.3913 108.529 58.5016 108.268 58.077 107.926C53.6285 104.255 49.3621 100.282 45.2776 96.0168C45.0754 95.7956 45.227 95.4335 45.5303 95.4335C50.5247 95.3731 55.236 96.6203 59.6743 99.1852C60.1495 99.4669 60.2911 99.3462 60.1192 98.8231C59.8462 98.0285 59.735 97.6061 59.6238 96.7008C58.9666 91.4403 59.6238 85.8881 61.575 80.0643C63.7588 73.5566 67.3075 68.1854 72.221 63.9408C72.3827 63.8 72.403 63.5385 72.2614 63.3775L72.0895 63.1764C72.0188 63.0959 71.8974 63.0858 71.8166 63.1361C60.1596 70.7 48.0174 78.636 41.9109 91.6012C41.7188 92.0237 41.1527 92.1243 40.8291 91.7823L36.6638 87.4773C36.3706 87.1655 36.3706 86.6726 36.6638 86.3709C48.7555 73.9388 60.9988 61.4564 73.3634 48.9136C75.5371 46.7209 77.6804 44.317 79.8136 41.732C80.6022 40.7764 81.2796 39.2677 82.2401 38.2417C82.5029 37.9601 82.6243 38.0104 82.5838 38.3926C82.5029 39.4387 82.3108 40.4747 81.9974 41.4805C80.5214 46.3186 78.7015 50.5632 76.5279 54.2043C75.2843 56.2864 72.9489 56.6586 71.2504 57.9561C70.8763 58.2478 70.7651 58.5395 70.8965 58.8513C71.0078 59.1027 71.1897 59.2033 71.4526 59.153C72.3221 59.0022 73.141 58.7507 74.0206 58.7105C79.0149 58.4791 83.9588 57.936 88.9633 57.8454C91.046 57.8052 93.1286 57.5839 95.1911 57.1715C95.8381 57.0307 96.4751 57.5035 96.5256 58.1673L96.7278 60.6316C96.7885 61.3457 96.4549 61.7078 95.7269 61.7078L84.4542 61.6274C84.2318 61.6274 84.1913 61.7179 84.3227 61.8889C84.9192 62.6232 85.6472 63.0154 86.5267 63.0557C91.4402 63.2769 96.374 63.8905 101.176 63.7095C105.867 63.5385 110.569 63.3474 115.27 63.1562C117.373 63.0657 119.87 62.5025 121.518 61.9694C124.601 60.9635 128.655 59.3844 133.67 57.2118C135.197 56.558 136.673 55.8036 138.088 54.9587C138.23 54.8782 138.412 54.9788 138.412 55.1498C138.412 55.361 138.331 55.5823 138.199 55.8036C136.582 58.4791 134.934 61.1446 133.245 63.8C131.931 65.8619 130.182 69.7243 127.988 75.4274C126.088 80.3359 125.016 85.2645 124.763 90.1931C124.713 91.0782 124.965 91.1687 125.501 90.4747C125.542 90.4244 125.612 90.1931 125.734 89.7907C128.868 78.8774 133.195 68.457 138.725 58.5294C140.474 55.4113 142.365 53.2186 141.97 50.3922C140.575 40.4546 142.658 32.3274 148.229 26.0309C149.927 24.1098 149.624 23.6873 147.309 24.7636C147.208 24.8038 146.722 25.2263 145.843 26.041C136.39 34.6911 128.564 45.0211 124.247 56.9402C123.924 57.8555 123.418 58.7406 122.741 59.6157C122.205 60.3097 121.134 60.2494 120.679 59.495C120.112 58.5495 119.678 57.3124 119.385 55.7835C117.797 47.5356 118.414 39.499 126.168 34.5604C126.846 34.1279 127.028 33.5445 127.756 33.1321C128.888 32.5085 128.807 32.1866 127.513 32.1766C125.42 32.1564 123.429 32.1967 121.558 32.2671C120.79 32.2973 118.808 32.4783 115.583 32.8002C111.66 33.2025 107.788 33.2226 103.957 32.8605C103.694 32.8404 103.562 32.6996 103.572 32.4381L103.593 30.5471C103.593 30.2051 103.764 30.0442 104.108 30.0341C108.041 29.9838 112.034 30.2554 116.099 30.8388C116.624 30.9193 117.09 31.05 117.484 31.2512C117.797 31.4021 118.141 31.1506 118.101 30.8187C117.777 28.4751 117.939 26.393 118.586 24.5523C119.981 20.5391 122.276 17.4512 125.451 15.2786C126.977 14.2325 126.826 13.8402 124.986 14.0816C119.415 14.8159 113.268 15.3691 106.555 15.7614C106.191 15.7815 105.877 15.5099 105.847 15.1478C105.453 10.6316 105.372 6.03494 105.615 1.36787C105.635 1.01583 105.402 0.693964 105.059 0.593381C104.583 0.462622 104.199 0.633614 103.926 1.0963C101.237 5.66278 96.6975 2.22283 92.7242 2.98727C92.3603 3.05767 92.2592 3.53042 92.5625 3.74164C94.5542 5.11963 96.6065 6.36687 98.7296 7.47328C99.9024 8.08684 101.035 8.11702 102.127 7.55375C102.45 7.39282 102.824 7.62416 102.824 7.9762V15.1076C102.834 15.4898 102.571 15.8217 102.197 15.9022C99.6294 16.4554 96.6571 16.5459 93.3005 16.1737C93.0781 16.1436 92.8658 16.2643 92.7849 16.4654C91.6526 19.0806 90.4495 21.7058 89.1554 24.3311C87.9017 26.8859 85.9909 28.6561 83.4331 29.6519C83.0084 29.8129 82.9579 30.3862 83.332 30.6276C83.5746 30.7885 83.8476 30.8589 84.1408 30.8489C89.2767 30.7382 94.352 30.4868 99.3666 30.1146C99.589 30.1045 99.771 30.2655 99.7811 30.4868L99.8114 33.0114C99.8114 33.2126 99.7204 33.3031 99.5182 33.3031C95.8584 33.3031 92.1682 33.0919 88.4477 32.6493C85.8797 32.3375 83.6049 32.3073 81.128 32.2269C79.8541 32.1866 79.6721 32.6091 80.582 33.4841C81.3807 34.2486 81.957 35.0633 82.3209 35.9484C82.4221 36.1798 82.3715 36.391 82.1895 36.5721C66.1954 52.3838 50.3225 68.467 34.571 84.8119C34.2374 85.1639 33.6712 85.1639 33.3477 84.8119C30.3045 81.5529 27.1098 78.465 23.7431 75.5582C23.4196 75.2766 22.9343 75.3369 22.6714 75.6688C22.3681 76.0812 22.4288 76.7048 22.8433 77.5196C22.904 77.6403 22.9848 77.7509 23.0657 77.8515C25.5124 80.6678 28.3432 83.454 31.538 86.1898C32.0334 86.6123 32.0637 87.0649 31.629 87.5578L29.3845 90.0824C29.0812 90.4244 29.243 90.9575 29.6777 91.0782C31.0325 91.4403 32.4277 89.8913 33.2466 89.1168C33.5903 88.7849 34.1464 88.8151 34.4396 89.1872C36.0167 91.0883 37.604 92.7881 39.2014 94.2969C42.9523 97.8475 46.7233 101.448 50.5045 105.12C51.0909 105.683 51.0403 106.186 50.3427 106.608C49.8878 106.89 49.261 107.021 48.442 107.001C47.6433 106.98 47.1682 107.896 47.6636 108.529C49.726 111.165 51.8694 113.78 54.1138 116.365C57.3591 120.137 59.5935 123.386 61.8379 127.389C61.9289 127.55 61.8076 127.761 61.6155 127.761C53.3758 127.61 44.9642 127.801 36.3706 128.344C35.9763 128.364 35.6224 128.576 35.4101 128.918L35.2787 129.119C35.1776 129.28 35.2787 129.481 35.4708 129.491C41.9413 129.833 48.442 130.185 54.9529 130.557C55.3573 130.577 55.509 130.839 55.418 131.322C55.3573 131.613 55.1046 131.835 54.8013 131.825C47.4513 131.804 40.9505 131.975 35.309 132.358C32.7815 132.529 29.9102 132.529 26.6952 132.358C26.4526 132.358 26.3111 132.458 26.2807 132.7L26.2403 132.981C26.1998 133.243 26.3111 133.363 26.5739 133.363C28.2522 133.384 29.9709 133.504 31.72 133.746C32.5288 133.856 33.287 133.524 34.1969 133.987C34.3991 134.088 34.6114 134.138 34.844 134.138L41.0111 134.168C41.2639 134.168 41.3953 134.299 41.3751 134.55V134.772C41.3549 134.882 41.3043 134.933 41.1931 134.923C39.3531 134.741 37.5939 134.852 35.9055 135.254C34.6519 135.546 33.4083 135.687 32.1749 135.667C30.7999 135.647 29.2935 135.808 27.6355 136.14C24.8552 136.723 21.8929 136.28 19.0419 136.653C13.0668 137.447 7.17266 137.9 1.35936 138.01C1.0965 138.01 0.894293 138.232 0.914514 138.493L0.944844 138.815C0.975174 139.197 1.17738 139.378 1.56156 139.388C6.20209 139.449 10.8932 139.308 15.3821 139.67C21.3976 140.143 26.5739 140.183 30.8909 139.771C34.3081 139.449 36.5324 139.348 37.5434 139.489C39.8282 139.801 41.9615 139.952 43.9532 139.921C47.0671 139.881 50.2416 139.972 53.4668 140.173C53.6184 140.173 53.6993 140.263 53.7195 140.414L53.7397 140.605C53.7397 140.686 53.7094 140.736 53.6285 140.746L29.7889 142.517C29.5463 142.537 29.3138 142.587 29.0913 142.677C28.1511 143.06 27.1704 143.261 26.1493 143.261C25.8965 143.261 25.7853 143.382 25.7954 143.633V143.834C25.8157 143.935 25.8864 144.005 25.9774 143.995C27.7871 143.804 29.5362 143.874 31.2144 144.196C32.5894 144.458 33.924 144.548 35.2484 144.468C41.183 144.076 47.3097 143.884 53.6184 143.905C54.0835 143.905 54.5991 144.066 55.1855 144.387C55.2866 144.438 55.3675 144.518 55.4281 144.609C55.6101 144.89 55.4382 145.273 55.1046 145.333C51.7885 145.886 48.533 146.349 45.3281 146.711C42.0828 147.093 38.2612 146.811 34.844 147.214C31.8413 147.586 29.2733 147.757 27.1603 147.747C22.6108 147.717 17.1918 148.039 10.9134 148.712C7.43552 149.085 4.08908 149.276 0.884183 149.306C0.671872 149.306 0.5 149.477 0.5 149.688V149.98C0.5 150.282 0.661761 150.443 0.965064 150.443C8.16345 150.644 15.4528 150.583 22.8534 150.251C26.7357 150.08 30.0215 149.99 32.7006 149.98C38.5443 149.97 44.2261 150.181 49.9181 149.185C52.4153 148.753 54.8619 148.491 57.2479 148.411C60.8168 148.3 64.4564 148.018 68.1668 147.576C69.6328 147.405 69.6429 147.163 68.1972 146.872C66.6099 146.54 64.6283 146.228 62.2726 145.936C62.0098 145.906 61.8986 145.604 62.0704 145.413L62.2726 145.192C62.4951 144.941 62.768 144.82 63.0916 144.82C71.4021 144.749 79.2778 144.639 86.6986 144.468C88.7307 144.418 91.3897 144.136 94.6654 143.613C97.2333 143.201 99.8923 142.959 102.662 142.859C102.915 142.859 103.128 142.768 103.32 142.597C103.775 142.195 104.179 141.994 104.523 141.973C113.126 141.531 121.73 141.42 130.344 141.672C130.9 141.682 131.446 141.621 131.982 141.47C132.234 141.4 132.396 141.239 132.457 140.988C132.568 140.525 132.376 140.253 131.86 140.153C130.607 139.921 129.818 139.72 129.495 139.539C127.756 138.564 127.877 137.99 129.869 137.809C136.066 137.256 142.415 136.995 148.946 137.045C149.452 137.045 149.745 136.944 149.826 136.703C149.927 136.411 149.786 135.969 149.391 135.395C149.209 135.124 149.29 134.993 149.614 134.983C151.797 134.943 154.062 134.983 156.276 134.691C158.5 134.389 160.684 134.178 162.797 134.057C163.212 134.037 163.535 133.705 163.535 133.293V133.001C163.535 132.79 163.374 132.619 163.151 132.619C159.825 132.599 156.529 132.589 153.284 132.599C149.381 132.619 144.781 133.374 140.393 133.323C139.807 133.323 139.402 133.152 139.19 132.82C139.028 132.579 139.17 132.247 139.453 132.197L152.303 129.722C152.536 129.682 152.717 129.551 152.819 129.34C153.051 128.877 152.98 128.405 152.596 127.912C152.374 127.62 152.03 127.459 151.666 127.459L138.462 127.328C137.916 127.328 137.522 126.795 137.664 126.282C138.857 121.917 140.12 117.612 141.445 113.378C142.072 111.396 143.012 109.153 144.286 106.628C144.923 105.371 144.569 104.959 143.214 105.381C140.929 106.115 138.705 106.649 136.562 106.98C136.268 107.021 136.127 106.9 136.137 106.608L136.278 98.7527C136.278 98.4711 136.42 98.28 136.663 98.1593C138.958 97.1132 141.334 96.2683 143.78 95.6145C148.198 94.4276 152.687 93.2609 157.216 92.1041C157.732 91.9734 157.914 91.3297 157.54 90.9575C156.681 90.0824 155.943 88.9659 155.296 87.6081C152.374 81.4021 151.161 75.005 151.656 68.3866C151.979 63.9509 152.586 60.2293 153.466 57.2419C154.79 52.7056 156.62 48.0989 158.955 43.4218C159.127 43.0899 158.864 42.7076 158.49 42.7278C158.167 42.7479 157.803 42.9088 157.398 43.2005C153.991 45.6648 150.706 48.0889 147.561 50.4827C147.127 50.8046 147.086 50.7543 147.41 50.3319C148.785 48.5616 150.473 46.8919 152.455 45.3329L152.475 45.3027ZM113.986 67.2902C114.481 67.3103 114.886 67.421 114.875 67.5316C114.875 67.6423 114.471 67.7227 113.966 67.7026C113.47 67.6825 113.066 67.5719 113.076 67.4612C113.076 67.3506 113.48 67.2701 113.986 67.3003V67.2902ZM78.6308 66.3649C77.9129 65.9927 77.3973 65.6004 77.1143 65.178C76.7098 64.5644 76.8211 64.4638 77.4277 64.8561C77.8725 65.1478 78.3275 65.5703 78.8026 66.1436C79.116 66.5157 79.0554 66.5861 78.6207 66.3649H78.6308ZM122.043 33.5747C124.702 33.1824 126.886 33.0718 126.927 33.3333C126.967 33.5847 124.844 34.1178 122.175 34.5C119.516 34.8923 117.332 35.003 117.292 34.7414C117.251 34.49 119.374 33.9569 122.043 33.5747ZM119.728 60.0281V60.2494C119.658 61.3558 112.975 61.899 104.796 61.4463L101.095 61.2452C100.56 61.215 100.165 60.7724 100.185 60.2393L100.317 57.9058C100.347 57.3828 100.792 56.9804 101.328 57.0106L105.028 57.2118C113.207 57.6543 119.799 58.9116 119.738 60.018L119.728 60.0281ZM85.6876 34.0876L85.7786 33.8764C85.7786 33.8764 85.819 33.8362 85.8494 33.8462C87.376 34.5202 88.8318 34.9225 90.2068 35.0432C93.7656 35.355 97.2232 35.5461 100.59 35.6165C102.026 35.6567 103.805 35.5562 105.928 35.3349C107.616 35.1639 109.315 35.184 111.013 35.3852C111.145 35.3952 111.205 35.4656 111.185 35.5863C111.175 35.7473 111.084 35.8277 110.933 35.8479C107.485 36.2401 104.27 36.5419 101.267 36.743C97.85 36.9744 94.0082 36.1597 90.2776 35.9183C89.398 35.868 87.8916 35.3047 85.7483 34.2184C85.6977 34.1983 85.6674 34.1279 85.6977 34.0776L85.6876 34.0876ZM70.7752 126.534C69.9765 126.554 69.3194 126.051 69.3093 125.417C69.289 124.784 69.926 124.251 70.7146 124.23C71.5133 124.21 72.1704 124.713 72.1805 125.347C72.2008 125.981 71.5638 126.514 70.7752 126.534ZM83.5443 126.604C82.6647 126.805 81.8357 126.443 81.6739 125.8C81.5121 125.146 82.1086 124.462 82.9781 124.251C83.8577 124.049 84.6867 124.412 84.8485 125.055C85.0102 125.709 84.4137 126.393 83.5443 126.604ZM95.5247 126.423C94.8271 126.755 94.0588 126.564 93.7858 126.011C93.5128 125.448 93.8566 124.723 94.5542 124.401C95.2517 124.07 96.0201 124.261 96.2931 124.814C96.5661 125.377 96.2223 126.101 95.5247 126.423ZM106.252 126.644C105.574 126.644 105.028 126.101 105.028 125.427C105.028 124.754 105.574 124.21 106.252 124.21C106.929 124.21 107.475 124.754 107.475 125.427C107.475 126.101 106.929 126.644 106.252 126.644ZM108.729 117.753L94.5542 117.481C94.4025 117.481 94.2913 117.341 94.3014 117.2L95.4539 104.144C95.4742 104.003 95.5955 103.882 95.7471 103.903L108.577 105.1C108.718 105.12 108.809 105.23 108.809 105.361L109.001 117.491C109.001 117.642 108.89 117.763 108.739 117.753H108.729ZM115.229 126.061C114.734 126.544 114.006 126.604 113.612 126.202C113.217 125.8 113.308 125.085 113.804 124.603C114.299 124.12 115.027 124.059 115.421 124.462C115.816 124.864 115.725 125.578 115.229 126.061ZM124.015 125.699C123.985 126.202 123.55 126.574 123.054 126.554L122.589 126.524C122.084 126.494 121.71 126.061 121.74 125.568L121.811 124.412C121.841 123.909 122.276 123.536 122.771 123.567L123.236 123.597C123.742 123.627 124.116 124.059 124.086 124.552L124.015 125.709V125.699ZM132.457 126.584C132.002 126.584 131.638 125.88 131.638 125.025C131.638 124.17 132.012 123.466 132.457 123.466C132.902 123.466 133.276 124.17 133.276 125.025C133.276 125.88 132.902 126.584 132.457 126.584Z" fill="black"/>
</g>
<defs>
<clipPath id="clip0_2265_918">
<rect width="180" height="150" fill="white" transform="translate(0.5 0.542969)"/>
</clipPath>
</defs>
</svg>
