<svg width="120" height="121" viewBox="0 0 120 121" fill="none" xmlns="http://www.w3.org/2000/svg">
<g clip-path="url(#clip0_2248_687)">
<path d="M74.4755 23.059C74.3451 23.7397 73.7219 24.1728 73.0841 24.0258H73.0407C72.4029 23.8711 71.9971 23.2137 72.1348 22.533L76.2437 1.53262C76.3742 0.851941 76.9974 0.418784 77.6351 0.565748H77.6786C78.3163 0.720447 78.7222 1.37792 78.5845 2.05859L74.4755 23.059Z" fill="black"/>
<path d="M77.6424 29.688C77.4177 30.2295 76.8235 30.477 76.3162 30.2372L76.0481 30.1134C75.5408 29.8737 75.3161 29.2394 75.5335 28.698L86.5487 2.15934C86.7733 1.6179 87.3676 1.37038 87.8749 1.61016L88.143 1.73392C88.6503 1.9737 88.8749 2.60797 88.6575 3.14942L77.6424 29.6803V29.688Z" fill="black"/>
<path d="M51.7713 24.436C51.9452 25.0548 51.6191 25.7046 51.0393 25.8902L50.9958 25.9057C50.4161 26.0913 49.8074 25.7432 49.6334 25.1245L43.4519 3.25002C43.278 2.63122 43.6041 1.98149 44.1838 1.79585L44.2273 1.78038C44.8071 1.59474 45.4158 1.94281 45.5897 2.56161L51.7785 24.4283L51.7713 24.436Z" fill="black"/>
<path d="M47.6333 26.7571C47.9232 27.3682 47.6913 28.1108 47.126 28.4202L47.0971 28.4356C46.5246 28.745 45.8289 28.5052 45.539 27.8942L34.0383 3.79982C33.7484 3.18876 33.9803 2.4462 34.5456 2.13681L34.5746 2.12134C35.1471 1.81194 35.8428 2.05172 36.1326 2.66278L47.6333 26.7571Z" fill="black"/>
<path d="M61.5907 25.5419C61.6269 26.2536 61.1124 26.8724 60.4457 26.911H60.4022C59.7282 26.9574 59.1557 26.4083 59.1195 25.6889L57.9455 3.93823C57.9093 3.22661 58.4238 2.60782 59.0905 2.56914H59.134C59.808 2.52273 60.3805 3.07192 60.4167 3.79127L61.5907 25.5419Z" fill="black"/>
<path d="M68.236 19.501C68.236 20.0812 67.7794 20.553 67.2359 20.5453H66.8374C66.2866 20.5298 65.8518 20.058 65.859 19.4701L66.033 4.1781C66.033 3.59798 66.4895 3.12615 67.033 3.13388H67.4316C67.9824 3.14935 68.4172 3.62118 68.4099 4.20904L68.236 19.501Z" fill="black"/>
<path d="M27.4002 11.9983C27.2553 11.7817 27.2987 11.4801 27.5016 11.3254L27.8785 11.0314C28.4365 10.606 29.7264 11.5033 30.7627 13.0425L33.4803 17.0879C34.5166 18.6271 34.8934 20.2205 34.3354 20.646L33.9586 20.9399C33.7557 21.0946 33.473 21.0482 33.3353 20.8316L27.4074 11.9906L27.4002 11.9983Z" fill="black"/>
<path d="M87.3024 35.8687C86.9111 36.3792 86.2081 36.4643 85.7226 36.0466L85.6863 36.0157C85.2081 35.598 85.1283 34.84 85.5197 34.3295L100.267 14.8219C100.658 14.3114 101.361 14.2263 101.847 14.644L101.883 14.6749C102.361 15.0926 102.441 15.8507 102.05 16.3612L87.3024 35.8687Z" fill="black"/>
<path d="M22.9507 16.6389C22.8999 16.5616 22.9072 16.4533 22.9797 16.3914L23.7768 15.703C24.3638 15.2003 26.3422 16.7936 28.1974 19.2611L31.0454 23.0358C32.9078 25.5032 33.9368 27.901 33.3499 28.4115L32.5527 29.1C32.4802 29.1618 32.386 29.1464 32.3208 29.069L22.9579 16.6389H22.9507Z" fill="black"/>
<path d="M88.643 23.4073C88.3387 23.8714 87.7372 23.9797 87.3096 23.6548L87.2371 23.6007C86.8023 23.2758 86.7009 22.6415 87.0053 22.1774L90.7591 16.5C91.0635 16.0359 91.665 15.9276 92.0925 16.2525L92.165 16.3066C92.5998 16.6315 92.7012 17.2657 92.3969 17.7298L88.643 23.4073Z" fill="black"/>
<path d="M25.6682 26.9656C26.0813 27.4296 26.0668 28.1645 25.632 28.6054L25.5958 28.644C25.1609 29.0849 24.4725 29.0695 24.0594 28.6054L17.2909 21.0174C16.8778 20.5533 16.8923 19.8185 17.3271 19.3776L17.3634 19.3389C17.7982 18.898 18.4866 18.9135 18.8997 19.3776L25.6682 26.9656Z" fill="black"/>
<path d="M105.535 25.8436C103.832 27.2049 101.854 28.8448 99.7741 29.8271C99.2451 30.0746 98.6581 29.6337 98.6944 29.0227C98.7234 28.6436 98.9263 28.2646 99.3248 27.9011C100.789 26.5629 102.209 25.2325 103.586 23.9021C104.137 23.3607 104.832 23.2911 105.659 23.6701C105.731 23.701 105.789 23.7552 105.84 23.8325C106.34 24.606 106.238 25.2789 105.535 25.8359V25.8436Z" fill="black"/>
<path d="M28.6394 35.2189C28.9365 35.3582 29.067 35.7217 29.0018 36.2941C28.9655 36.6808 28.5814 36.967 27.8568 37.1449C27.6684 37.1913 27.4727 37.1759 27.2915 37.114C21.5013 35.0333 16.1024 32.4344 11.0804 29.3326C10.5296 29 10.3412 28.505 10.5079 27.8553C10.5369 27.747 10.5876 27.6387 10.6673 27.5381C11.1384 26.9348 11.6964 26.811 12.3558 27.1823C16.3923 29.41 21.8129 32.0863 28.6322 35.2189H28.6394Z" fill="black"/>
<path d="M72.2797 28.6364C71.9681 28.5746 71.7942 28.1259 71.8812 27.6464C71.9681 27.1668 72.2942 26.8342 72.6059 26.8961C72.9175 26.958 73.0914 27.4066 73.0044 27.8861C72.9175 28.3657 72.5914 28.6983 72.2797 28.6364Z" fill="black"/>
<path d="M116.435 27.5766C116.703 28.2031 116.435 28.9457 115.855 29.2241L91.9258 40.8111C91.3388 41.0973 90.6431 40.8111 90.3823 40.1923L90.3678 40.1613C90.0996 39.5348 90.3678 38.7922 90.9475 38.5138L114.876 26.9268C115.463 26.6406 116.159 26.9268 116.42 27.5456L116.435 27.5766Z" fill="black"/>
<path d="M83.6934 30.4C83.2441 30.1293 83.2007 29.3094 83.592 28.5591C83.9833 27.8088 84.6645 27.4143 85.1138 27.6851C85.5631 27.9558 85.6066 28.7757 85.2153 29.526C84.8239 30.2763 84.1427 30.6707 83.6934 30.4Z" fill="black"/>
<path d="M26.2552 43.0077C26.0451 43.6961 25.3494 44.0751 24.7044 43.8508L0.84788 35.5744C0.202913 35.3501 -0.144934 34.6152 0.0579769 33.9191V33.8882C0.282628 33.1997 0.971076 32.8207 1.61604 33.045L25.4798 41.3214C26.1248 41.5458 26.4726 42.2806 26.2697 42.9767V43.0077H26.2625H26.2552Z" fill="black"/>
<path d="M112.76 37.4157C112.971 38.0035 112.688 38.661 112.137 38.8776L100.289 43.6578C99.7379 43.8821 99.1219 43.5804 98.919 42.9926L98.8973 42.9384C98.6871 42.3506 98.9697 41.6931 99.5205 41.4765L111.369 36.6963C111.92 36.472 112.536 36.7737 112.739 37.3615L112.76 37.4157Z" fill="black"/>
<path d="M20.2766 48.4688C20.1244 49.0721 19.5447 49.428 18.9794 49.2655L7.95701 46.1097C7.39176 45.9472 7.05116 45.3284 7.21059 44.7251L7.22508 44.671C7.37726 44.0676 7.95701 43.7118 8.52226 43.8743L19.5447 47.0301C20.1099 47.1925 20.4505 47.8113 20.2911 48.4147L20.2766 48.4688Z" fill="black"/>
<path d="M116.594 45.8617C116.695 46.5115 116.282 47.1303 115.674 47.2386L95.5058 50.843C94.897 50.9513 94.3173 50.5182 94.2158 49.8607V49.8143C94.1071 49.1646 94.5202 48.5458 95.1289 48.4375L115.297 44.833C115.906 44.7247 116.485 45.1578 116.587 45.8153V45.8617H116.594Z" fill="black"/>
<path d="M22.1173 55.4692C22.052 56.1653 21.4651 56.6758 20.8128 56.6062L1.68125 54.5333C1.02904 54.4636 0.550747 53.8371 0.615968 53.141V53.0946C0.688436 52.3984 1.26818 51.8879 1.92764 51.9575L21.0592 54.0305C21.7114 54.1001 22.1897 54.7266 22.1245 55.4228V55.4692H22.1173Z" fill="black"/>
<path d="M118.456 53.9996C118.493 54.6803 118 55.2604 117.362 55.2991L92.9186 56.761C92.2809 56.7996 91.7374 56.2737 91.7012 55.593V55.5466C91.6649 54.8659 92.1505 54.2858 92.7882 54.2471L117.232 52.7852C117.869 52.7465 118.413 53.2725 118.449 53.9532V53.9996H118.456Z" fill="black"/>
<path d="M20.407 61.8582C20.4867 62.5466 20.0229 63.1809 19.3707 63.266L1.92764 65.4859C1.27543 65.571 0.688435 65.076 0.60872 64.3798V64.3257C0.521758 63.6373 0.985554 63.003 1.63777 62.9179L19.0809 60.698C19.7331 60.6129 20.3201 61.1079 20.3998 61.8041V61.8582H20.407Z" fill="black"/>
<path d="M116.543 65.6018C116.478 66.2206 115.949 66.6692 115.369 66.5996L94.7811 64.0935C94.2014 64.0239 93.7811 63.4592 93.8463 62.8404V62.794C93.9187 62.1752 94.4405 61.7266 95.0275 61.7962L115.616 64.3023C116.195 64.3719 116.616 64.9366 116.551 65.5554V65.6018H116.543Z" fill="black"/>
<path d="M19.791 68.5798C19.8925 69.1445 19.5447 69.7014 19.0156 69.8174L6.89896 72.3777C6.36995 72.4937 5.84818 72.1225 5.73947 71.5501V71.5037C5.62352 70.939 5.97137 70.3821 6.50764 70.2661L18.6243 67.7058C19.1533 67.5898 19.6751 67.9611 19.7838 68.5334V68.5798H19.791Z" fill="black"/>
<path d="M117.203 74.5437C110.992 73.6851 105.499 71.9911 99.6365 70.4983C99.2524 70.3977 99.064 70.1347 99.0785 69.7171L99.1002 69.1524C99.1147 68.7889 99.2886 68.6264 99.6365 68.6496C100.716 68.7425 101.847 68.7966 102.934 69.0518C107.949 70.2276 113.007 71.3105 118.101 72.3005C118.319 72.3392 118.514 72.463 118.652 72.6409C119.058 73.1591 119.152 73.5381 118.935 73.7934C118.42 74.3812 117.84 74.6365 117.203 74.5437Z" fill="black"/>
<path d="M119.841 82.9046C119.638 83.4693 119.051 83.7477 118.522 83.5389L95.1217 74.0481C94.5927 73.8392 94.3318 73.205 94.5274 72.6403L94.6216 72.3773C94.8246 71.8127 95.4115 71.5342 95.9406 71.7431L119.341 81.2339C119.87 81.4427 120.13 82.077 119.935 82.6416L119.841 82.9046Z" fill="black"/>
<path d="M27.3422 74.7594C19.5882 76.7241 11.8413 78.828 4.08722 81.0557C3.41326 81.249 3.0002 80.9783 2.84077 80.2512L2.80453 80.0888C2.70308 79.586 2.96396 79.0755 3.42051 78.9131C10.9934 76.0898 18.7983 73.9627 26.835 72.5395C27.0161 72.5085 27.1901 72.5395 27.3567 72.6014C28.0234 72.903 28.3423 73.2356 28.2988 73.5992C28.2409 74.1638 27.8495 74.6279 27.335 74.7594H27.3422Z" fill="black"/>
<path d="M108.941 86.7643C108.688 87.3754 108.021 87.6384 107.449 87.3677L87.3241 77.7145C86.7516 77.4437 86.498 76.7244 86.7589 76.1211L86.7879 76.0592C87.0415 75.4481 87.7082 75.1851 88.2807 75.4559L108.405 85.1091C108.97 85.3798 109.231 86.0991 108.97 86.7025L108.941 86.7643Z" fill="black"/>
<path d="M26.748 80.2749C27.0089 80.9014 26.748 81.644 26.1538 81.9224L12.1239 88.59C11.5369 88.8684 10.8485 88.59 10.5804 87.9557L10.5659 87.917C10.305 87.2905 10.5659 86.5479 11.1601 86.2695L25.1899 79.6019C25.7769 79.3235 26.4654 79.6019 26.7335 80.2362L26.748 80.2749Z" fill="black"/>
<path d="M106.006 95.8836C105.832 96.1388 105.492 96.193 105.253 96.0151L91.4185 85.3718C89.7735 84.1033 88.701 82.6878 89.0271 82.2005L89.259 81.8524C89.5851 81.3728 91.1867 82.0071 92.8317 83.2756L106.673 93.9189C106.912 94.1123 106.97 94.4681 106.796 94.7311L106.014 95.8913L106.006 95.8836Z" fill="black"/>
<path d="M28.3351 85.4651C28.6539 86.0143 28.4945 86.7337 27.98 87.0817L15.6024 95.2731C15.0879 95.6134 14.4067 95.4432 14.0878 94.894L14.0661 94.8554C13.7472 94.3062 13.9066 93.5868 14.4212 93.2388L26.7987 85.0475C27.3133 84.7071 27.9945 84.8773 28.3133 85.4265L28.3351 85.4651Z" fill="black"/>
<path d="M36.466 86.6405C36.6182 86.5554 36.7993 86.5399 36.9587 86.5941C37.5385 86.7797 37.9008 87.414 37.6617 88.056C37.524 88.4195 37.2994 88.7444 37.0167 89.0306C30.8279 95.0407 23.4797 100.734 17.4648 107.834C17.059 108.314 16.6459 108.314 16.2401 107.834L16.0444 107.602C15.6459 107.138 15.6169 106.643 15.943 106.117C16.559 105.135 17.059 104.415 17.4648 103.982C23.0376 97.8716 29.3641 92.8594 35.4224 87.3444C35.6543 87.1355 36.0022 86.9035 36.4732 86.6482L36.466 86.6405Z" fill="black"/>
<path d="M90.1504 90.5705C89.7518 91.1351 88.8314 91.1119 88.0923 90.5086C87.3531 89.913 87.085 88.9694 87.4835 88.4047C87.8821 87.8401 88.8025 87.8633 89.5416 88.4666C90.2808 89.0622 90.5489 90.0058 90.1504 90.5705Z" fill="black"/>
<path d="M23.6754 112.445C24.2189 111.331 24.6972 110.503 25.1175 109.969C30.3497 103.24 36.5964 96.9128 42.4591 90.6629C42.7852 90.3149 43.162 90.2375 43.5824 90.4231C44.1549 90.6784 44.2418 91.3513 43.8432 92.442C43.7853 92.5812 43.7128 92.7127 43.6113 92.8287C39.1401 97.8487 34.4441 103.116 29.5018 108.616C27.9727 110.325 26.5668 112.135 25.2842 114.038C24.9218 114.579 24.5087 114.618 24.0594 114.169L23.9217 114.038C23.458 113.582 23.371 113.048 23.6754 112.452V112.445Z" fill="black"/>
<path d="M92.6578 111.292C93.0491 111.872 92.9332 112.669 92.3897 113.094L92.3534 113.125C91.8172 113.543 91.0562 113.412 90.6649 112.839L76.9902 92.7516C76.5989 92.1715 76.7148 91.3748 77.2583 90.9493L77.2945 90.9184C77.8308 90.5007 78.5917 90.6322 78.9831 91.2046L92.6578 111.292Z" fill="black"/>
<path d="M32.9658 119.986C32.5889 120.535 31.8642 120.651 31.3497 120.249L31.3352 120.234C30.8207 119.824 30.712 119.058 31.0888 118.509L48.6116 93.1381C48.9885 92.5889 49.7132 92.4729 50.2277 92.8751L50.2422 92.8906C50.7567 93.3005 50.8654 94.0663 50.4886 94.6155L32.9658 119.986Z" fill="black"/>
<path d="M101.064 100.541C100.68 101.02 100.013 101.067 99.5712 100.657L93.4404 95.0101C92.9984 94.6001 92.9476 93.8885 93.3317 93.4167L93.368 93.3703C93.752 92.8984 94.4187 92.8443 94.8608 93.2542L100.992 98.9008C101.434 99.3107 101.484 100.022 101.1 100.494L101.064 100.541Z" fill="black"/>
<path d="M94.3028 102.675C94.7231 103.217 94.6506 104.021 94.1434 104.47L94.0999 104.508C93.5926 104.957 92.8389 104.887 92.4186 104.338L85.5631 95.5281C85.1428 94.9866 85.2153 94.1822 85.7226 93.7336L85.766 93.6949C86.2733 93.2463 87.027 93.3159 87.4473 93.865L94.3028 102.675Z" fill="black"/>
<path d="M54.0902 96.4413C53.5105 96.5031 52.9815 95.9462 52.909 95.1959C52.8293 94.4457 53.2423 93.7804 53.8221 93.7186C54.4018 93.6567 54.9309 94.2136 55.0033 94.9639C55.083 95.7142 54.67 96.3794 54.0902 96.4413Z" fill="black"/>
<path d="M73.1204 95.8687C73.1421 96.2323 72.8812 96.5494 72.5406 96.5726L72.0841 96.6036C71.7435 96.6268 71.4463 96.356 71.4246 95.9848L71.3594 94.9637C71.3376 94.6002 71.5985 94.2831 71.9391 94.2599L72.3957 94.2289C72.7363 94.2057 73.0334 94.4764 73.0551 94.8477L73.1204 95.8687Z" fill="black"/>
<path d="M60.5979 95.1108L61.2573 95.6213C61.5327 95.8379 61.5617 96.2634 61.3153 96.5109L60.9312 96.9208C60.7356 97.1219 60.4312 97.1451 60.2138 96.975L59.8949 96.7197C59.7427 96.6037 59.663 96.4103 59.6775 96.2015L59.7283 95.5363C59.7645 95.0799 60.25 94.8401 60.5979 95.1031V95.1108Z" fill="black"/>
<path d="M73.9248 114.51C74.0987 115.167 73.7364 115.848 73.1204 116.034L73.0769 116.049C72.4609 116.235 71.8232 115.848 71.6493 115.191L68.0114 101.384C67.8374 100.726 68.1998 100.045 68.8158 99.8598L68.8592 99.8444C69.4752 99.6587 70.1129 100.045 70.2869 100.703L73.9248 114.51Z" fill="black"/>
<path d="M44.6549 119.862C44.3722 120.473 43.6693 120.721 43.0968 120.419L43.0678 120.403C42.4881 120.102 42.2634 119.351 42.5461 118.74L51.0756 100.563C51.3582 99.9522 52.0611 99.7047 52.6336 100.006L52.6626 100.022C53.2423 100.323 53.467 101.074 53.1844 101.685L44.6549 119.862Z" fill="black"/>
<path d="M54.9743 119.228C54.9526 119.321 54.8584 119.375 54.7714 119.352L53.6409 119.027C53.0104 118.849 53.2641 115.608 54.2134 111.787L55.3657 107.169C56.315 103.356 57.6049 100.409 58.2354 100.587L59.3659 100.904C59.4529 100.935 59.5108 101.028 59.4819 101.12L54.9743 119.228Z" fill="black"/>
<path d="M81.4107 108.972C81.7151 109.544 81.5267 110.279 80.9904 110.604L80.9252 110.643C80.3889 110.968 79.7077 110.766 79.3961 110.194L75.3451 102.575C75.0408 102.003 75.2292 101.268 75.7655 100.943L75.8307 100.904C76.3669 100.58 77.0481 100.781 77.3598 101.353L81.4107 108.972Z" fill="black"/>
<path d="M65.3735 116.722C65.3735 117.341 64.9097 117.843 64.33 117.851H64.2358C63.656 117.851 63.185 117.356 63.1777 116.737L63.0908 102.969C63.0908 102.35 63.5546 101.848 64.1343 101.84H64.2358C64.8155 101.84 65.2865 102.335 65.2938 102.954L65.3808 116.722H65.3735Z" fill="black"/>
</g>
<defs>
<clipPath id="clip0_2248_687">
<rect width="120" height="120" fill="white" transform="translate(0 0.542969)"/>
</clipPath>
</defs>
</svg>
