<svg width="71" height="86" viewBox="0 0 71 86" fill="none" xmlns="http://www.w3.org/2000/svg">
<g clip-path="url(#clip0_2346_1655)">
<path d="M70.41 31.918C69.0306 26.8372 65.9109 23.3377 61.0895 21.4324C60.4965 21.1991 60.2258 20.5121 60.4965 19.9289C61.4118 18.0236 62.1208 15.7942 62.6494 13.2538C62.8299 12.4502 62.3916 11.6466 61.6439 11.3356C61.2056 11.1541 60.561 11.18 59.723 11.4392C58.0601 11.9577 56.6162 12.8391 55.3916 14.0833C54.8372 14.6536 53.8833 14.4851 53.5481 13.7593C50.8925 8.05635 49.1006 2.47005 42.3068 0.642508C40.6954 0.201825 40.27 0.733237 41.0177 2.23674L42.165 4.51793C42.3455 4.88084 42.2424 4.99749 41.8685 4.86788C38.1043 3.64952 34.3142 3.8569 30.4984 5.51594C25.4836 7.69344 28.1264 10.7653 29.7636 14.0315C29.9054 14.3296 29.8151 14.4851 29.48 14.4981C23.0472 14.7314 17.8391 16.9348 13.8299 21.1084C7.92563 27.2909 5.64386 35.3398 3.56835 44.5812C1.37682 54.2633 0.358406 64.0879 0.513102 74.0551C0.719364 87.0942 11.3934 87.1719 20.7912 83.2317C30.8207 79.0193 39.677 73.8477 47.3345 67.7041C52.2719 63.7509 55.933 59.0071 58.305 53.4856C59.4652 50.7767 59.9809 47.7697 60.9606 44.9441C61.0895 44.5942 61.3087 44.5164 61.6181 44.7238L65.4081 47.2383C65.782 47.4975 66.2976 47.3031 66.4266 46.8754C66.5168 46.5513 66.491 46.1625 66.3234 45.7218C65.2277 42.6889 64.0159 39.617 62.701 36.4934C62.34 35.6379 62.6107 35.1195 63.5131 34.938L69.2498 33.7845C70.2811 33.5771 70.6678 32.9549 70.3971 31.931L70.41 31.918ZM33.2958 7.52494C37.5628 7.01945 40.7599 8.36742 42.9127 11.5429C44.4468 13.8241 43.5057 17.0385 42.526 19.3586C42.5002 19.4104 42.4615 19.4234 42.4229 19.4104L42.165 19.3197C41.9201 19.229 41.8299 19.0734 41.9072 18.8272C42.1521 17.9847 42.1264 17.1811 41.8299 16.3904C41.7654 16.1831 41.6236 16.0535 41.4173 16.0016C41.3271 15.9757 41.2498 15.9498 41.1724 15.9368C41.1337 15.9368 41.0951 15.8979 41.0693 15.872C39.1871 13.7204 36.9698 11.8022 34.4302 10.1172C33.6825 9.62467 33.1798 8.96364 32.9219 8.14708C32.8188 7.84897 33.0251 7.55086 33.3216 7.51198L33.2958 7.52494ZM5.95325 66.2524C5.61808 66.6154 5.19266 66.7579 5.01218 66.5765C4.81881 66.395 4.93483 65.9673 5.25712 65.6044C5.59229 65.2415 6.01771 65.0989 6.19819 65.2803C6.39156 65.4489 6.27553 65.8895 5.95325 66.2524ZM7.75804 50.8674C7.42286 51.4248 6.97167 51.7747 6.76541 51.6451C6.55914 51.5155 6.66227 50.9582 6.99745 50.4008C7.33262 49.8435 7.78382 49.4935 7.99008 49.6231C8.19634 49.7528 8.09321 50.3101 7.75804 50.8674ZM11.3805 59.7459C10.9551 59.7459 10.607 59.3959 10.607 58.9682C10.607 58.5405 10.9551 58.1905 11.3805 58.1905C11.8059 58.1905 12.154 58.5405 12.154 58.9682C12.154 59.3959 11.8059 59.7459 11.3805 59.7459ZM12.8372 78.9675C12.7341 79.123 12.5536 79.1878 12.2829 79.1489C12.0637 79.123 11.9219 78.9156 11.9735 78.7082C12.038 78.436 12.1798 78.2027 12.3989 77.9954C12.6439 77.775 12.863 77.8009 13.0306 78.099C13.1466 78.3194 13.0822 78.6045 12.8372 78.9675ZM16.7175 51.9302C16.1245 51.5933 15.9956 50.686 16.4339 49.9083C16.8722 49.1306 17.7102 48.7807 18.3032 49.1176C18.8962 49.4546 19.0251 50.3619 18.5868 51.1396C18.1485 51.9173 17.3105 52.2672 16.7175 51.9302ZM18.5739 67.406C18.3934 67.9115 18.0195 68.2355 17.723 68.1318C17.4265 68.0281 17.3363 67.5356 17.5168 67.0301C17.6973 66.5246 18.0711 66.2006 18.3676 66.3043C18.6641 66.408 18.7544 66.9005 18.5739 67.406ZM18.2387 59.7848C17.8004 59.7848 17.4394 59.4219 17.4394 58.9812C17.4394 58.5405 17.8004 58.1776 18.2387 58.1776C18.677 58.1776 19.038 58.5405 19.038 58.9812C19.038 59.4219 18.677 59.7848 18.2387 59.7848ZM27.4173 59.9533C26.9919 60.2384 26.4634 60.1607 26.2313 59.8107C25.9993 59.4478 26.154 58.9423 26.5794 58.6571C27.0048 58.372 27.5334 58.4498 27.7654 58.7997C27.9974 59.1626 27.8428 59.6681 27.4173 59.9533ZM26.1282 49.7528C26.4376 49.2473 26.7728 49.2343 27.1595 49.7009C27.3658 49.9601 27.456 50.2582 27.4431 50.5823C27.4431 50.7508 27.4431 50.9452 27.5076 51.1526C27.5591 51.4118 27.572 51.6192 27.5463 51.7747C27.4173 52.3191 26.747 52.5005 26.3602 52.0987C25.6899 51.3729 25.6125 50.5952 26.1411 49.7528H26.1282ZM36.5444 52.358C36.2995 52.7079 35.9385 52.9023 35.7451 52.7598C35.5389 52.6172 35.5905 52.2154 35.8354 51.8654C36.0803 51.5155 36.4413 51.3211 36.6347 51.4636C36.8409 51.6062 36.7893 52.008 36.5444 52.358ZM37.0214 46.2014C36.1963 46.9402 35.1521 47.1216 34.6752 46.5902C34.1982 46.0588 34.4947 45.0349 35.3197 44.2831C36.1448 43.5443 37.189 43.3628 37.666 43.8943C38.1429 44.4257 37.8464 45.4496 37.0214 46.2014ZM42.4615 43.9331C42.7709 43.5702 43.0159 43.0129 43.1963 42.2871C43.2479 42.0408 43.3253 41.8853 43.4413 41.7686C43.5702 41.652 43.6991 41.5872 43.8151 41.6001C44.1116 41.6001 44.189 41.7427 43.9956 41.989L43.6604 42.4556C43.48 42.7018 43.4284 42.9611 43.4928 43.2592C43.7378 44.2572 43.4929 44.7238 42.7967 44.6979C42.1521 44.6719 42.0361 44.4127 42.4615 43.9202V43.9331ZM44.3179 64.0231C43.9956 64.3083 43.6089 64.399 43.4413 64.2175C43.2866 64.0361 43.4155 63.6602 43.7378 63.3621C44.0601 63.0769 44.4468 62.9862 44.6144 63.1677C44.7691 63.3491 44.6402 63.725 44.3179 64.0231ZM46.9219 31.6329C46.561 31.6329 46.3676 31.594 46.3289 31.5422C45.5684 30.3757 45.2332 30.4923 45.3105 31.8792C45.4137 33.5512 45.014 35.0158 44.1245 36.273C43.828 36.6878 43.7893 37.1414 44.0214 37.608C44.666 38.9171 44.8207 39.8892 44.4855 40.5243C44.2792 40.8872 44.1116 40.8743 43.944 40.4984C43.7378 40.0577 43.6991 39.6041 43.828 39.1634C43.9183 38.8394 43.6733 38.5283 43.3382 38.5283C41.456 38.6061 39.8833 38.282 38.5941 37.5562C37.9882 37.2192 37.2534 37.6599 37.2663 38.3468C37.2921 40.7188 36.0545 42.0538 33.5794 41.4446C33.2829 41.3798 33.0122 41.4446 32.7801 41.652C32.4063 42.0149 31.968 42.2482 31.491 42.3519C31.1558 42.4296 30.9238 42.3 30.8078 41.976C30.6015 41.4057 30.5886 40.8224 30.7691 40.2781C30.8722 39.9411 31.0914 39.8244 31.4394 39.9411C32.9735 40.4595 34.0951 39.8503 34.7912 38.1395C35.1264 37.3488 34.4431 36.4934 33.6052 36.6359C31.491 37.0118 29.6862 36.3897 28.2037 34.7695C28.1135 34.6658 27.933 34.7436 27.9459 34.8732C27.9974 35.8583 27.6236 36.5193 26.8372 36.8822C26.4634 37.0507 26.4763 37.2062 26.863 37.3359L27.1208 37.4136C27.3787 37.5044 27.4947 37.6729 27.456 37.958C27.1982 39.7207 27.224 41.2242 27.5205 42.4815C27.7267 43.2851 27.4173 43.7776 26.5923 43.9331L24.1558 44.3997C23.305 44.5682 22.8667 44.2183 22.8667 43.3369C22.8409 41.0169 23.537 38.9431 24.9809 37.1285C25.2 36.8433 25.1614 36.61 24.852 36.4286C22.8538 35.1843 21.0361 36.1823 19.0251 35.2361C18.7286 35.1065 18.4965 35.1713 18.3289 35.4565L16.6144 38.308C16.421 38.632 16.4339 38.9301 16.6531 39.2282C17.3621 40.2133 17.8906 41.2631 18.2129 42.3908C18.3032 42.7148 18.2129 42.9481 17.9164 43.1166C16.9238 43.6739 15.8925 44.0239 14.7967 44.1405C14.049 44.2313 13.5334 43.4277 13.8943 42.7796L15.6475 39.6559C15.8151 39.3708 15.8409 39.0597 15.712 38.7486L14.2037 34.8214C14.0232 34.3548 14.4229 33.8622 14.9127 33.953L17.9293 34.4844C18.2516 34.5492 18.4965 34.4325 18.6641 34.1474L20.7138 30.6608C21.41 29.4813 21.165 28.5481 19.9919 27.8612L18.9993 27.2779C17.8906 26.6299 16.4597 26.9798 15.7893 28.0945C14.7838 29.7406 14.2166 31.4126 14.1135 33.1234C14.0877 33.6289 13.8428 34.0048 13.3916 34.2381L13.0693 34.4196C12.6567 34.6399 12.4247 34.5103 12.3474 34.0567C11.7544 30.0905 14.3068 28.25 16.3695 25.5281C18.3934 22.8711 20.5591 21.3546 23.421 19.9807C26.3474 18.5679 29.3768 19.1901 32.4707 19.54C33.8372 19.7085 34.9201 20.0714 35.6936 20.6158C36.5702 21.2509 37.305 22.0416 37.9238 23.0007C38.607 24.0765 39.2903 24.8801 39.9477 25.3985C42.3455 27.3168 44.7046 29.261 47.038 31.2829C47.2958 31.5033 47.2571 31.6199 46.9219 31.6199V31.6329ZM47.5021 14.0056C46.9348 15.2758 46.3805 16.5589 45.8649 17.8551C45.8262 17.9458 45.7617 17.9588 45.6715 17.9328C45.5812 17.894 45.5555 17.8291 45.5812 17.7384C46.8575 14.4592 47.0766 9.65059 44.3308 6.91576C44.2405 6.82503 44.2405 6.7343 44.3308 6.64358C44.421 6.55285 44.5113 6.53989 44.6015 6.63061C46.445 8.22485 48.6107 11.5559 47.5021 14.0056ZM51.8207 21.7175C53.1098 20.4992 54.3216 19.0345 55.4689 17.3366C55.8041 16.8441 56.3455 16.5071 57.119 16.3256C57.4284 16.2608 57.5573 16.3775 57.5186 16.6886C57.1835 19.5789 55.3529 21.3935 52.0398 22.1453C51.4468 22.2749 51.3824 22.1453 51.8207 21.7305V21.7175ZM50.0159 36.9859L48.8814 38.0358C48.5591 38.3339 48.3529 38.282 48.2498 37.8413C48.108 37.2451 48.2111 36.5841 48.572 35.8324C48.7138 35.5342 48.9072 35.4954 49.1135 35.7675C49.3326 36.0268 49.6033 36.2601 49.9256 36.4156C50.2221 36.5582 50.2608 36.7526 50.0159 36.9859ZM51.7175 36.7396C51.5113 37.0248 51.2405 37.1155 50.9183 37.0507C50.5057 36.96 50.4284 36.7656 50.712 36.4286L50.9312 36.1823C51.1245 35.962 51.1632 35.7027 51.0343 35.4435L50.6862 34.7047C50.48 34.29 50.5702 34.2122 50.944 34.4714C51.4597 34.8343 51.7562 35.3528 51.8464 36.0138C51.898 36.299 51.8464 36.5452 51.7046 36.7396H51.7175ZM64.0545 29.6887C59.8906 30.2201 55.8299 29.6109 51.9238 27.8741C51.0214 27.4723 51.0472 27.1224 51.9625 26.7854C55.4302 25.5411 62.3916 24.6727 64.351 29.1703C64.48 29.4684 64.3768 29.6498 64.0545 29.6887Z" fill="black"/>
<path d="M28.7191 24.3487C28.5515 25.3856 27.0561 26.0077 25.3802 25.7226C23.7044 25.4504 22.5055 24.3746 22.6602 23.3377C22.8277 22.3008 24.3231 21.6786 25.999 21.9638C27.6749 22.236 28.8738 23.3118 28.7191 24.3487Z" fill="black"/>
<path d="M37.1502 24.7766C37.5369 24.6858 37.64 24.8284 37.4853 25.1913C37.1502 25.9042 36.57 26.4874 35.7192 26.9541C35.4098 27.1225 35.2551 27.0318 35.2551 26.6819C35.2551 25.7098 35.8739 25.0747 37.163 24.7895L37.1502 24.7766Z" fill="black"/>
<path d="M26.9531 33.681L25.9218 29.7667C25.8187 29.4168 26.0765 29.0668 26.4375 29.0409L30.4596 28.7817C30.9495 28.7557 31.246 29.3001 30.9624 29.6889L27.9716 33.8625C27.688 34.2643 27.0821 34.1476 26.9531 33.681Z" fill="black"/>
<path d="M40.3602 35.3916L39.4191 35.8712C38.5554 36.2989 37.5112 35.8582 37.2404 34.9121L36.7248 33.1493C36.467 32.255 37.0342 31.3348 37.9366 31.1792L39.8703 30.8422C41.0047 30.6478 41.9458 31.6977 41.6235 32.7994L41.1465 34.4325C41.0305 34.8473 40.734 35.1972 40.3473 35.3916H40.3602Z" fill="black"/>
</g>
<defs>
<clipPath id="clip0_2346_1655">
<rect width="70" height="85" fill="white" transform="translate(0.5 0.5)"/>
</clipPath>
</defs>
</svg>
