<svg width="181" height="181" viewBox="0 0 181 181" fill="none" xmlns="http://www.w3.org/2000/svg">
<g clip-path="url(#clip0_2478_4189)">
<path d="M109.505 162.011C105.956 166.158 102.233 170.175 98.9035 174.482C95.7056 178.615 91.9237 180.442 86.2873 178.861C86.5939 176.759 86.9006 174.685 87.3824 171.451C85.601 173.96 84.6519 175.859 83.1624 177.165C82.1695 178.035 80.3296 178.441 79.03 178.209C78.446 178.107 77.672 175.787 77.9349 174.714C78.811 171.263 80.1252 167.913 81.2788 164.549C82.1841 163.128 83.0894 161.692 84.0094 160.256C92.7268 149.352 100.948 137.983 110.293 127.629C123.26 113.244 137.088 99.6281 150.536 85.6782C150.931 86.0408 151.325 86.3888 151.734 86.7513C141.118 99.7006 130.502 112.65 119.901 125.599C120.339 125.962 120.792 126.324 121.23 126.687C125.012 122.119 128.823 117.566 132.561 112.969C139.892 103.949 146.886 94.6543 154.567 85.9392C160.875 78.7758 168.599 73.2799 177.609 69.8867C177.959 70.3072 178.31 70.7133 178.66 71.1338C169.242 79.7619 159.4 87.9839 150.536 97.1485C141.498 106.487 133.437 116.768 125.289 127.02C144.55 112.418 156.684 89.9125 178.573 78.2248C179.215 78.8773 179.857 79.5153 180.5 80.1679C176.265 83.7206 171.797 87.0123 167.855 90.8551C157.779 100.672 147.952 110.736 138.008 120.712C136.781 121.322 135.219 121.655 134.387 122.598C127.392 130.602 120.427 138.636 113.652 146.829C111.009 150.019 108.891 153.63 106.526 157.052C110.264 153.963 112.717 149.99 115.681 146.452C122.968 137.737 130.473 129.21 137.906 120.596C143.192 116.551 148.697 112.751 153.734 108.416C160.743 102.383 167.387 95.9304 174.221 89.7095C175.214 88.7959 176.441 88.1434 177.565 87.3748C178.003 87.7374 178.456 88.0854 178.894 88.4479C177.886 90.043 177.127 91.8846 175.813 93.1752C169.227 99.6426 161.926 105.472 155.925 112.418C144.433 125.701 133.481 139.448 122.661 153.267C116.747 160.808 111.622 168.943 105.971 176.686C104.963 178.078 103.094 178.847 100.743 180.558C100.539 171.901 107.139 167.927 109.388 161.924C110.819 160.619 112.469 159.488 113.652 157.98C119.025 151.164 124.077 144.073 129.612 137.403C134.883 131.066 140.607 125.106 146.141 118.972C145.791 118.668 145.455 118.349 145.105 118.044C141.016 122.351 136.577 126.382 132.926 131.023C124.91 141.188 117.288 151.672 109.505 162.026V162.011ZM101.43 145.654C101.853 145.959 102.262 146.249 102.685 146.553C107.636 139.665 112.6 132.777 117.55 125.875C117.127 125.585 116.703 125.295 116.28 125.005C111.33 131.893 106.38 138.766 101.43 145.654ZM120.982 131.472C120.471 131.095 119.96 130.733 119.434 130.356C114.44 137.258 109.432 144.146 104.438 151.048C104.715 151.251 104.978 151.44 105.255 151.643C110.498 144.929 115.74 138.201 120.982 131.487V131.472Z" fill="black"/>
<path d="M43.7368 149.902C42.0283 152.193 40.3783 154.543 38.5676 156.761C37.6769 157.849 36.5671 158.98 35.3114 159.502C34.6689 159.763 32.6538 158.675 32.683 158.313C33.0772 153.847 22.9726 155.036 27.4262 148.467C34.0264 138.722 40.0278 128.542 47.1391 119.175C57.9884 104.877 69.0422 90.666 81.0159 77.3107C91.8507 65.2169 103.766 54.0077 115.711 42.958C124.457 34.8665 134.036 27.645 143.294 20.1045C143.863 19.6405 144.9 19.771 146.258 20.4816C136.139 28.6601 125.684 36.4616 115.988 45.1186C105.869 54.1527 95.9101 63.4768 86.959 73.6129C78.0955 83.6476 70.444 94.7553 62.4567 105.529C54.5131 116.26 46.8178 127.179 39.0057 138.012C39.3854 138.287 39.7504 138.563 40.1301 138.838C56.0171 118.479 71.9042 98.105 87.7767 77.7457L89.0325 78.7173C85.1775 83.8361 81.2788 88.9259 77.4822 94.0882C65.0266 111.054 54.5131 129.18 44.4377 147.597C44.0142 148.365 43.8244 149.264 43.5323 150.105L43.7222 149.902H43.7368Z" fill="black"/>
<path d="M134.985 11.2154C128.385 16.9867 122.165 23.2801 115.112 28.428C97.6477 41.1743 82.8266 56.6178 68.721 72.7283C63.4058 78.8042 59.8137 86.3592 55.2287 93.0876C48.2781 103.253 41.0938 113.244 34.114 123.395C32.5078 125.729 31.325 128.368 30.2153 131.008C46.2484 110.474 61.7558 89.4914 78.4752 69.5236C95.399 49.2948 114.82 31.4732 136.402 17.8858C123.114 29.8781 108.19 41.8848 95.0632 55.6027C81.6877 69.5816 69.5679 84.8366 57.8424 100.237C46.1316 115.593 35.5743 131.82 24.6957 147.408C22.958 145.987 20.4903 144.928 19.8332 143.203C19.0885 141.231 19.1031 138.098 20.2275 136.416C27.1781 126.034 34.5083 115.927 41.7363 105.732C48.7453 95.8573 55.7543 86.0112 62.8072 76.165C63.7563 74.8454 64.793 73.5694 65.9174 72.3948C82.7828 54.6021 99.7796 36.9835 119.536 22.2216C124.545 18.4803 128.911 13.8545 133.554 9.63477C134.036 10.1713 134.518 10.6933 135 11.2299L134.985 11.2154Z" fill="black"/>
<path d="M56.4844 171.088C57.6234 166.68 57.9008 161.822 60.0181 157.95C71.5538 136.88 86.74 118.377 102.569 100.324C89.6458 119.349 76.7083 138.374 63.7855 157.399C64.355 157.805 64.9244 158.197 65.4939 158.603C67.4652 155.949 69.3343 153.237 71.4078 150.656C86.9444 131.327 103.124 112.461 117.872 92.5511C126.735 80.5878 137.03 70.4661 148.799 61.6931C155.195 56.9223 162.291 53.0795 169.067 48.8018L170.206 50.4984C169.023 51.3829 167.811 52.224 166.657 53.1375C153.851 63.2592 140.154 72.4673 128.531 83.778C116.776 95.2192 106.818 108.546 96.5818 121.451C89.0617 130.935 82.4178 141.115 75.2627 150.903C70.5609 157.327 65.6838 163.606 60.7774 169.87C60.1058 170.726 58.7916 171.103 57.7694 171.697C57.346 171.494 56.9225 171.291 56.499 171.074L56.4844 171.088Z" fill="black"/>
<path d="M101.722 80.3271C98.407 86.0405 95.8224 92.3629 91.6316 97.3367C75.0875 116.985 61.6681 138.548 50.0303 161.315C48.9935 163.345 47.6793 165.23 46.4528 167.246C41.4783 163.234 40.2371 158.632 42.7292 153.441C43.2549 152.339 43.4155 151.077 43.7514 149.903L43.5616 150.106C49.782 140.883 55.9295 131.588 62.2522 122.423C69.3197 112.186 76.5331 102.05 83.6735 91.8699C84.17 92.1599 84.6665 92.4644 85.1629 92.7544C74.226 109.909 63.2744 127.064 52.3374 144.218C52.7463 144.479 53.1405 144.726 53.5494 144.987C59.8283 135.808 65.8298 126.411 72.4737 117.493C77.7597 110.402 83.9655 103.978 89.4997 97.0612C93.8074 91.6814 97.7353 85.9825 101.839 80.4287L101.736 80.3271H101.722Z" fill="black"/>
<path d="M174.499 56.6617C173.637 57.4157 172.819 58.2278 171.914 58.9238C161.152 67.2038 150.361 75.4549 139.614 83.7494C135.365 87.0266 130.97 90.1733 126.983 93.755C111.71 107.487 101.211 125.005 89.2077 141.318C81.6 151.672 74.4742 162.373 66.9541 172.785C66.0196 174.076 64.0045 174.598 62.4859 175.482C61.8872 174.844 61.2885 174.221 60.6898 173.583C63.5518 169.348 66.1364 164.911 69.3197 160.938C100.349 122.191 127.786 79.8921 173.009 55.0811C173.506 55.6031 173.987 56.1251 174.484 56.6472L174.499 56.6617Z" fill="black"/>
<path d="M71.6998 6.37243C50.9941 32.3001 21.6585 50.4987 5.02667 80.0951C19.0593 55.3131 39.4 35.8818 59.5363 16.2621C59.2296 15.914 58.923 15.566 58.6164 15.218C52.8631 20.1048 46.9931 24.8901 41.3713 29.9219C35.545 35.1278 29.6896 40.3191 24.3306 45.9745C19.0593 51.5573 14.4012 57.7347 9.46571 63.6366L8.25373 62.723C13.8755 55.5741 19.0155 47.9466 25.2506 41.3632C34.5959 31.488 44.6129 22.2074 54.5862 12.9413C57.8716 9.88165 61.7704 7.38749 65.6692 5.12535C67.1878 4.24079 69.4949 4.66132 71.437 4.4873C71.51 5.11084 71.5976 5.74889 71.6706 6.37243H71.6998Z" fill="black"/>
<path d="M109.519 175.729C128.736 147.002 148.565 118.798 176.981 97.9023C177.58 98.3374 178.164 98.7579 178.762 99.1929C177.565 100.861 176.543 102.702 175.126 104.167C159.692 120.19 142.564 134.677 130.021 153.339C124.997 160.822 119.843 168.217 114.586 175.54C113.841 176.57 112.162 176.932 110.921 177.599C110.454 176.976 109.986 176.367 109.519 175.743V175.729Z" fill="black"/>
<path d="M116.178 176.135C132.839 150.106 152.873 127.02 176.806 107.299L178.207 108.401C174.878 112.36 171.637 116.391 168.205 120.263C156.918 132.994 145.47 145.581 134.314 158.415C131.13 162.083 129.013 166.651 125.917 170.392C123.625 173.177 120.544 175.308 117.813 177.715C117.273 177.179 116.718 176.642 116.178 176.106V176.135Z" fill="black"/>
<path d="M60.1203 59.7362C52.1768 68.8718 43.5908 77.5433 36.4503 87.2589C28.2586 98.4246 21.3372 110.518 14.6932 122.772C25.1483 109.721 35.6034 96.67 46.0585 83.6047C46.4382 83.8802 46.8324 84.1557 47.2121 84.4313C35.7932 100.107 24.3744 115.768 11.8166 133.009C11.4224 127.557 11.1157 123.511 10.8237 119.48C11.7436 118.465 12.7657 117.522 13.5543 116.406C21.9213 104.631 29.7334 92.4358 38.7575 81.1831C45.0364 73.3525 52.9507 66.8271 60.1203 59.7217V59.7362Z" fill="black"/>
<path d="M177.215 118.262C161.371 136.924 145.513 155.602 128.911 175.163C129.232 163.809 164.233 122.597 177.215 118.262Z" fill="black"/>
<path d="M100.977 94.3207C97.5455 99.019 93.9972 103.616 90.7263 108.43C80.5925 123.366 70.371 138.273 60.6168 153.455C58.1491 157.298 57.4628 162.214 55.5645 166.463C54.8928 167.956 53.0529 168.942 51.7534 170.16C51.4467 168.275 50.337 166.042 50.9648 164.549C53.3742 158.922 55.6959 153.078 59.2442 148.148C72.1087 130.254 85.455 112.708 98.6261 95.0457C99.0203 94.5237 99.5898 94.1321 100.086 93.6826C100.378 93.9001 100.67 94.1176 100.962 94.3207H100.977Z" fill="black"/>
<path d="M84.024 160.271C83.1187 161.706 82.1987 163.142 81.2934 164.563C79.5996 167.71 77.8181 170.842 76.2119 174.047C74.6932 177.106 72.6928 178.513 69.0422 176.425C71.7144 166.927 78.2562 159.749 83.9218 152.107C93.7344 138.882 103.751 125.802 113.71 112.679C113.973 112.331 114.572 112.215 115.024 111.997L114.907 111.91C113.301 115.463 112.177 119.335 110.001 122.51C102.072 134.111 93.7782 145.465 85.6594 156.936C84.9439 157.936 84.5497 159.154 84.0094 160.271H84.024Z" fill="black"/>
<path d="M51.4321 56.4729C46.8908 61.2582 42.7439 66.5075 37.7207 70.7273C27.6453 79.2104 21.4978 90.5211 14.1822 101.02C11.3786 105.051 8.41433 108.995 4.53017 112.562C4.82222 106.82 0.207954 101.223 5.87357 95.9444C9.81613 92.2757 12.941 87.7369 16.4309 83.5751C17.7743 82.5166 19.1177 81.458 20.4611 80.3994C16.5623 86.5913 12.6489 92.7687 8.79398 98.9896C7.509 101.049 6.37004 103.195 5.15806 105.298C5.52312 105.559 5.90277 105.82 6.26782 106.081C9.26125 102.107 12.5321 98.3081 15.1897 94.1318C24.3306 79.7324 37.7353 69.3062 49.49 57.3429C49.9573 56.8789 50.7312 56.7049 51.3591 56.4004L51.4175 56.4584L51.4321 56.4729Z" fill="black"/>
<path d="M173.579 65.3475C154.129 82.0381 134.693 98.7141 115.243 115.405C132.926 96.713 147.835 74.8891 172.629 64.0859C172.951 64.5065 173.257 64.927 173.579 65.3475Z" fill="black"/>
<path d="M54.922 76.5275C76.168 50.9189 99.254 27.1519 126.399 7.61914C102.569 30.5886 78.7526 53.5581 54.922 76.5275Z" fill="black"/>
<path d="M101.824 80.429C108.205 72.6275 114.834 65 120.938 56.981C130.809 43.9881 143.527 35.3166 159.166 30.7488C159.809 30.5603 160.539 30.6328 161.751 31.6188C160.086 32.6049 158.392 33.533 156.772 34.5915C149.573 39.3333 141.819 43.4661 135.321 49.049C123.712 59.0111 112.878 69.8578 101.722 80.3419L101.824 80.4435V80.429Z" fill="black"/>
<path d="M15.1605 139.071C12.7512 133.125 16.7814 128.5 20.5195 123.859C33.2379 108.039 45.9855 92.2473 59.4779 77.0068C44.6276 97.8157 29.7772 118.61 15.1605 139.071Z" fill="black"/>
<path d="M32.6392 54.2685C40.1885 46.206 47.7378 38.158 55.2579 30.0665C62.1501 22.6565 68.9838 15.1885 75.8614 7.76403C77.2048 6.31393 78.446 4.58832 80.1106 3.63126C81.3518 2.92072 83.1917 3.23974 84.7687 3.09473C84.3014 4.50132 84.2576 6.31393 83.3231 7.22749C75.6862 14.6955 67.8011 21.8879 60.1642 29.3559C52.4105 36.9399 44.8758 44.7414 37.2097 52.4269C36.1437 53.5 34.9317 54.4425 33.7928 55.4286C33.4131 55.037 33.0189 54.6455 32.6392 54.254V54.2685Z" fill="black"/>
<path d="M105.504 86.0696C119.332 63.7816 154.07 35.8964 165.431 38.695C140.607 49.2952 123.946 68.7845 105.504 86.0696Z" fill="black"/>
<path d="M39.3708 58.6192C37.7791 59.2862 36.1875 59.9678 34.5959 60.6348C54.5569 38.6949 76.6937 19.2637 99.4438 0.542969C99.8964 1.0215 100.364 1.51453 100.816 1.99306C98.8889 3.79118 97.0052 5.61829 95.0485 7.3584C83.8195 17.3495 72.5467 27.2827 61.3469 37.3028C60.1934 38.3324 59.3756 39.768 58.4119 41.0006C56.9517 41.4936 55.1702 41.6241 54.1043 42.5667C51.0962 45.1623 48.278 47.99 45.5913 50.9192C43.3717 53.3408 41.4297 56.038 39.3708 58.6192Z" fill="black"/>
<path d="M166.102 43.7988C150.069 56.0811 133.627 68.6534 118.777 80.0366C122.822 70.031 156.231 43.8713 166.102 43.7988Z" fill="black"/>
<path d="M170.468 131.355C163.868 145.015 154.041 156.268 142.724 166.39C148.843 152.367 160.174 142.304 170.468 131.355Z" fill="black"/>
<path d="M63.0262 56.5309C63.216 55.7913 63.4204 55.0518 63.6103 54.3122C78.3 35.3015 97.1221 20.8586 116.966 7.53223C111.476 12.361 105.883 17.0883 100.51 22.0622C88.8281 32.8798 77.2632 43.828 65.6254 54.7037C64.8514 55.4143 63.9023 55.9363 63.0262 56.5454V56.5309Z" fill="black"/>
<path d="M51.3737 56.4146C58.8208 48.5696 65.9174 40.3621 73.8025 32.9956C83.9948 23.4685 94.8003 14.6085 105.387 5.50187C106.774 4.2983 108.395 3.37024 109.914 2.32617C110.22 2.7032 110.527 3.08022 110.833 3.45724C109.957 4.3853 109.169 5.41487 108.22 6.22692C96.2606 16.4791 84.1408 26.5717 72.3569 37.0269C66.8081 41.9572 61.931 47.6271 56.6305 52.8329C55.1411 54.2975 53.1844 55.2836 51.4321 56.5016L51.3737 56.4436V56.4146Z" fill="black"/>
<path d="M45.2846 69.4365C30.5219 82.6179 21.6146 99.932 11.6414 116.492C11.1303 117.348 11.1449 118.537 10.9259 119.566C9.7869 120.32 8.64794 121.089 6.10718 122.771C7.71341 119.697 8.58953 118 10.0351 115.245C8.07846 116.231 7.07091 116.739 5.26025 117.638C5.82974 115.868 5.90275 114.607 6.55984 113.766C14.6348 103.195 22.5199 92.464 31.0768 82.2843C35.1361 77.441 40.5243 73.6998 45.2992 69.451L45.2846 69.4365Z" fill="black"/>
<path d="M152.887 24.9189C143.834 31.7054 134.241 38.2018 125.465 45.6553C116.747 53.0507 108.848 61.3888 100.583 69.3063L99.5022 68.2042C111.578 56.473 123.42 44.4952 135.847 33.1265C140.622 28.7472 146.638 25.615 152.887 24.9189Z" fill="black"/>
<path d="M10.9113 52.311C13.7879 39.9997 35.9101 17.4653 53.5056 9.15625C37.8668 23.6427 19.7164 33.4453 10.9113 52.311Z" fill="black"/>
<path d="M0.5 92.3479C9.61171 80.8632 18.7234 69.3784 27.8205 57.9082C28.2586 58.2417 28.682 58.5752 29.1201 58.9088C20.242 70.5675 11.364 82.2263 2.48588 93.885C1.82879 93.3775 1.1717 92.8554 0.514602 92.3479H0.5Z" fill="black"/>
<path d="M115.01 111.997C117.463 108.371 119.639 104.514 122.457 101.193C125.552 97.5682 129.247 94.436 133.481 91.7969C127.29 98.4963 121.084 105.196 114.893 111.91L115.01 111.997Z" fill="black"/>
<path d="M20.6801 23.2518C17.2194 28.3707 13.4813 33.881 9.93296 39.1158C8.61878 32.4599 15.8468 22.5848 20.6801 23.2518Z" fill="black"/>
<path d="M20.4756 80.4138C19.1322 81.4724 17.7889 82.531 16.4455 83.5895C16.1826 83.3865 15.6862 83.0095 15.7008 82.995C20.8553 75.8025 26.039 68.6246 31.9675 62.0557C28.1417 68.1751 24.316 74.2945 20.4756 80.4138Z" fill="black"/>
</g>
<defs>
<clipPath id="clip0_2478_4189">
<rect width="180" height="180" fill="white" transform="translate(0.5 0.542969)"/>
</clipPath>
</defs>
</svg>
