<svg width="91" height="100" viewBox="0 0 91 100" fill="none" xmlns="http://www.w3.org/2000/svg">
<g clip-path="url(#clip0_2041_522)">
<path d="M71.8654 81.5321C73.5537 82.1153 74.7723 83.178 75.4959 84.7202C76.3083 86.4569 75.8767 86.8975 74.1884 86.0292C72.9063 85.3682 71.6496 84.6425 70.4183 83.826C70.0502 83.5797 69.6693 83.5279 69.2631 83.6445L53.383 88.4527C52.9641 88.5823 52.6975 88.997 52.7483 89.4507L53.8908 98.9374C53.9542 99.4299 53.7511 99.741 53.2815 99.8835C52.3167 100.182 51.682 99.8835 51.3647 98.9763C50.438 96.2417 49.7145 93.546 49.1686 90.8633C49.0036 90.0468 48.2801 89.4507 47.455 89.4636C40.8668 89.5414 34.8372 88.375 29.3788 85.9644C29.0361 85.8089 28.7695 85.8996 28.5918 86.2495L23.4126 96.0214C23.0191 96.7861 22.4098 97.3045 21.6101 97.5896C20.9881 97.8099 20.4169 97.7062 19.9218 97.2785C19.5791 96.9805 19.5156 96.6305 19.7568 96.2288C21.9274 92.5352 23.7427 88.6342 25.2025 84.5388C25.3802 84.0333 25.1898 83.4631 24.7455 83.1521C16.2025 77.3848 9.01772 67.8851 8.02759 57.3226C7.3802 50.4408 8.0022 43.7534 9.86821 37.2604C12.077 29.588 18.2843 23.2765 24.0093 18.1702C24.3139 17.898 24.3901 17.5611 24.2377 17.1852L21.5339 10.5108C21.1658 9.59063 21.4578 9.13703 22.4225 9.12407C22.8668 9.12407 23.273 9.21479 23.6411 9.43511C24.6439 10.0313 25.2786 10.757 25.5452 11.6124C25.926 12.8177 26.3449 14.023 26.8146 15.2542C26.9923 15.7078 27.2843 15.8244 27.7032 15.5782C33.1997 12.4159 39.737 10.2127 47.3153 8.95559C47.7088 8.89079 48.0262 8.57975 48.0896 8.17798C48.4578 6.09141 48.3816 3.84932 47.8612 1.4517C47.7088 0.712975 48.2547 0.013131 48.9909 0.000170914H49.5748C50.4507 -0.0127892 51.1743 0.712975 51.1616 1.60722V7.4263C51.1489 8.03542 51.5678 8.55383 52.1517 8.65751C58.7652 9.83687 64.7568 11.9623 70.1136 15.0339C70.5325 15.2801 70.888 15.2023 71.1926 14.8265L74.3407 10.8607C74.8612 10.1998 75.4958 10.0572 76.2321 10.433L76.7653 10.7052C77.273 10.9644 77.438 11.6254 77.108 12.0919L73.6933 16.8612C73.4014 17.263 73.4394 17.6518 73.7822 18.0147C75.0008 19.2977 76.6383 20.2568 77.6919 21.488C83.5438 28.3957 86.0191 36.2495 85.1052 45.0494C83.6707 59.0074 68.8061 71.3065 56.5946 74.4688C42.517 78.1106 31.816 74.08 24.4916 62.3511C21.864 58.1391 21.0135 52.9551 21.9274 46.7731C24.7074 28.0328 49.1305 15.6171 63.7793 30.8711C70.9895 38.362 70.1136 49.7021 61.2659 55.586C53.3703 60.8478 42.5043 58.3983 39.1658 48.9763C38.4169 46.8379 38.6454 44.4662 39.8005 42.5352C40.5241 41.3428 41.3999 40.3319 42.4282 39.4895C44.1291 38.1158 45.3731 38.4657 46.1602 40.5263C47.4676 44.0256 48.1023 51.5424 53.4084 50.1557C63.17 47.6155 61.1771 37.2734 53.218 33.9037C45.5255 30.6508 39.115 32.193 33.9867 38.5435C30.2039 43.222 29.163 48.4968 30.864 54.3677C34.4817 66.8224 47.7977 70.6326 58.7399 65.9929C72.0685 60.3423 83.0487 48.4579 77.0445 32.7503C73.6045 23.769 63.8682 17.5222 54.5636 15.98C43.1517 14.0878 31.3971 18.9219 23.438 27.4237C10.7441 40.9929 10.7568 64.2692 25.8626 75.9333C35.1799 83.1261 45.8809 84.5647 57.0135 81.1173C62.5861 79.3807 67.3844 76.7239 71.4084 73.1339C78.1616 67.1334 83.4296 59.8239 87.1997 51.2184C87.3647 50.8426 87.682 50.5445 88.0629 50.389C88.7356 50.1298 89.3323 50.2464 89.8781 50.7259C90.2462 51.0499 90.4493 51.5813 90.4874 52.3071C90.5762 54.0956 90.2081 55.9488 89.3576 57.8669C85.4352 66.7576 79.5579 74.391 71.7258 80.7544C71.2942 81.1044 71.3449 81.3636 71.8654 81.5321Z" fill="black"/>
<path d="M8.0149 32.8279C7.73563 33.6703 5.84423 33.761 3.78782 33.0353C1.7314 32.3225 0.296985 31.0653 0.576251 30.2229C0.855518 29.3805 2.74691 29.2898 4.80333 30.0156C6.85975 30.7284 8.29416 31.9855 8.0149 32.8279Z" fill="black"/>
<path d="M8.37024 62.6877C8.70028 63.569 7.21509 64.9686 5.04443 65.7851C2.88646 66.6016 0.880818 66.5627 0.550776 65.6815C0.220733 64.8002 1.70592 63.4005 3.87659 62.584C6.03456 61.7675 8.0402 61.8064 8.37024 62.6877Z" fill="black"/>
</g>
<defs>
<clipPath id="clip0_2041_522">
<rect width="90" height="100" fill="white" transform="translate(0.5)"/>
</clipPath>
</defs>
</svg>
