<svg width="128" height="265" viewBox="0 0 128 265" fill="none" xmlns="http://www.w3.org/2000/svg">
<g clip-path="url(#clip0_208_585)">
<path d="M40.6002 52.7996C36.3002 52.2996 31.9002 51.5996 27.7002 50.7996C24.0002 50.0996 20.3002 49.1996 16.7002 48.1996C13.6002 47.2996 10.4002 46.1996 7.60027 44.4996C5.70027 43.2996 3.30025 41.4996 3.70025 38.8996L2.70025 39.4996C3.80025 38.9996 5.20032 38.9996 6.40032 38.9996C10.7003 38.9996 15.1002 40.0996 19.2002 41.4996C23.4002 42.8996 27.5003 44.6996 31.4003 46.5996C31.5003 46.5996 32.3003 45.9996 32.4003 45.9996C30.4003 44.0996 28.5002 41.9996 26.7002 39.9996C23.6002 36.3996 20.4003 32.4996 18.9003 27.9996C18.2003 26.0996 17.9003 23.9996 18.9003 22.0996L17.9003 22.6996C19.0003 22.9996 20.1002 23.5996 21.1002 24.1996C23.9002 25.8996 26.3003 28.1996 28.3003 30.7996C30.1003 33.0996 31.7003 35.5996 33.0003 38.1996C33.0003 38.1996 34.0003 37.6996 34.0003 37.5996C33.6003 33.3996 33.4002 29.1996 33.7002 24.9996C33.8002 22.5996 34.0002 19.7996 35.2002 17.5996C35.4002 17.1996 35.6003 16.8996 35.9003 16.5996C35.9003 16.5996 36.1002 16.4996 36.1002 16.3996C36.1002 16.3996 35.3003 16.7996 35.3003 16.8996H35.5003C35.8003 16.8996 36.1002 17.2996 36.2002 17.4996C36.9002 18.6996 37.2003 20.2996 37.4003 21.5996C37.8003 23.7996 38.1003 26.0996 38.3003 28.3996C38.8003 33.5996 39.1003 38.8996 39.3003 44.1996C39.3003 46.2996 39.5003 48.2996 39.5003 50.3996C39.5003 51.0996 39.5003 51.7996 39.5003 52.3996C39.5003 52.6996 39.5003 53.1996 39.5003 53.4996V53.5996C39.5003 53.3996 40.5003 53.1996 40.5003 52.9996C40.5003 50.2996 40.4003 47.5996 40.3003 44.8996C40.1003 39.4996 39.8003 34.1996 39.4003 28.7996C39.2003 26.3996 38.9003 23.9996 38.5003 21.5996C38.2003 20.0996 38.0003 18.3996 37.3003 16.9996C37.1003 16.6996 36.9002 16.2996 36.6002 16.1996C36.1002 16.0996 35.5002 16.5996 35.1002 16.7996C34.4002 17.2996 34.0002 18.1996 33.7002 18.9996C33.3002 20.1996 33.1003 21.4996 32.9003 22.6996C32.3003 27.5996 32.5003 32.6996 32.9003 37.6996C32.9003 37.7996 32.9003 37.8996 32.9003 37.9996L33.9003 37.3996C31.8003 33.2996 29.1002 29.3996 25.7002 26.1996C24.0002 24.5996 22.0003 23.1996 19.8003 22.2996C19.4003 22.1996 19.1002 21.9996 18.7002 21.8996C18.6002 21.8996 17.8002 22.3996 17.7002 22.4996C16.8002 24.0996 17.0003 25.9996 17.5003 27.5996C18.1003 29.7996 19.3003 31.7996 20.5003 33.6996C23.0003 37.4996 26.0002 40.9996 29.2002 44.2996C29.9002 44.9996 30.6003 45.6996 31.3003 46.3996L32.3003 45.7996C27.7003 43.5996 23.0002 41.5996 18.1002 40.0996C15.2002 39.1996 12.1002 38.4996 9.10027 38.2996C7.60027 38.1996 6.0003 38.1996 4.5003 38.4996C3.9003 38.5996 2.7003 38.8996 2.5003 39.4996C2.3003 40.1996 2.60032 41.0996 2.90032 41.6996C3.30032 42.4996 4.00027 43.1996 4.60027 43.6996C6.40027 45.1996 8.70032 46.1996 10.9003 47.0996C16.5003 49.2996 22.4002 50.5996 28.2002 51.5996C30.6002 52.0996 33.0003 52.3996 35.4003 52.7996C36.2003 52.8996 37.0003 52.9996 37.8003 53.0996C38.2003 53.0996 38.7002 53.2996 39.1002 53.2996C39.5002 53.2996 39.2003 53.2996 39.3003 53.2996C39.6003 53.2996 40.0003 52.6996 40.3003 52.6996L40.6002 52.7996Z" fill="#231F20"/>
<path d="M40.5998 52.4C33.3998 51.6 26.2999 50.3 19.2999 48.4C15.9999 47.5 12.5998 46.5 9.49982 45C7.09982 43.8 3.59982 41.9 3.99982 38.8C3.99982 38.5 3.69985 38.3 3.39985 38.5L2.39985 39.1C1.99985 39.3 2.29977 40 2.69977 39.8C5.09977 38.8 8.39985 39.2 10.8999 39.6C13.6999 40.1 16.4999 40.9 19.2999 41.8C22.0999 42.7 24.8998 43.9 27.5998 45.1C28.2998 45.4 28.8998 45.7 29.4998 46C29.9998 46.2 30.6999 46.8 31.2999 46.8C31.7999 46.8 31.9999 46.3 32.3999 46.3C32.6999 46.3 32.8998 45.9 32.6998 45.7C29.2998 42.5 26.0999 38.9 23.2999 35.1C21.9999 33.4 20.8998 31.6 19.9998 29.6C18.8998 27.3 17.9998 24.6 19.1998 22.2C19.3998 21.9 18.9998 21.5 18.6998 21.7L17.6998 22.3C17.3998 22.5 17.4998 22.9 17.6998 23C21.1998 23.9 24.2998 26.7 26.5998 29.3C28.8998 31.9 30.9998 35.1 32.5998 38.3C32.6998 38.5 32.9998 38.5 33.1998 38.3C33.4998 38.1 33.9998 38.1 34.1998 37.7C34.4998 37.2 34.1998 36.1 34.1998 35.5C33.9998 33.2 33.8999 30.8 33.8999 28.5C33.8999 26.4 33.8998 24.4 34.1998 22.3C34.4998 20.2 34.7999 18 36.2999 16.6C36.5999 16.3 36.2999 15.8 35.8999 16C35.5999 16.2 35.2998 16.3 35.0998 16.5C34.8998 16.8 35.0998 17.3 35.4998 17.1C36.7998 16.6 37.6999 24.6 37.7999 25.3C38.1999 28.6 38.4998 32 38.6998 35.4C39.0998 41.4 39.2999 47.5 39.3999 53.5C39.3999 53.8 39.7998 54 39.9998 53.8C40.2998 53.5 40.7998 53.6 40.9998 53.2C41.1998 52.9 40.9998 52.3 40.9998 52.1C40.9998 51.5 40.9998 50.8 40.9998 50.2C40.9998 47.8 40.7999 45.4 40.7999 43C40.5999 38.1 40.2999 33.3 39.8999 28.4C39.6999 26.1 39.3998 23.9 39.0998 21.6C38.7998 20 38.6998 17.6 37.4998 16.4C36.6998 15.5 35.4998 16.3 34.6998 17C33.2998 18.3 32.9998 20.6 32.6998 22.4C31.9998 27.6 32.1998 33 32.6998 38.3C32.6998 38.6 32.9999 38.8 33.2999 38.6L34.2999 38C34.4999 37.9 34.4999 37.7 34.3999 37.5C31.1999 31.4 26.4999 24.6 19.7999 22.1C16.9999 21.1 16.7998 25.2 17.1998 27C17.8998 30.7 20.1999 34 22.3999 37C25.0999 40.6 28.0999 43.9 31.2999 47C31.3999 47.1 31.5998 47.1 31.6998 47L32.6998 46.4C32.8998 46.3 32.9998 45.9 32.6998 45.8C27.7998 43.4 22.7998 41.3 17.5998 39.8C14.9998 39.1 12.3999 38.5 9.79987 38.3C7.79987 38.1 5.19987 37.9 3.29987 38.9C1.69987 39.7 2.49987 41.7 3.29987 42.9C4.59987 44.7 6.59982 45.8 8.49982 46.7C13.3998 49 18.7998 50.4 23.9998 51.5C27.0998 52.2 30.2998 52.7 33.4998 53.2C34.9998 53.4 36.5998 53.7 38.0998 53.9C38.4998 53.9 39.2998 54.2 39.6998 54.1C40.0998 54.1 40.2998 53.6 40.6998 53.5C41.1998 53.4 40.9998 52.6 40.4998 52.8C40.2998 52.8 40.1998 53 39.9998 53.1C39.2998 53.4 38.8998 53.3 38.1998 53.2C36.8998 53 35.5999 52.8 34.2999 52.7C31.8999 52.3 29.4998 51.9 27.0998 51.5C22.4998 50.6 17.7999 49.6 13.3999 48C11.1999 47.2 9.0998 46.4 7.0998 45.3C5.9998 44.6 0.999771 41 3.69977 39.6C5.49977 38.7 8.1998 39 10.0998 39.2C12.4998 39.4 14.8998 40 17.1998 40.7C22.3998 42.2 27.2998 44.3 32.0998 46.6V46L31.0998 46.6H31.4998C28.3998 43.7 25.3999 40.5 22.7999 37C20.3999 33.8 17.2999 29.7 17.3999 25.5C17.3999 24.7 17.5998 22.9 18.6998 22.9C19.5998 22.9 20.7998 23.7 21.5998 24.2C23.3998 25.2 24.9999 26.6 26.3999 28.1C29.2999 31 31.5998 34.5 33.4998 38.2V37.7C33.5998 37.7 32.6998 38.3 32.6998 38.3L33.2999 38.6C32.7999 33.5 32.4998 28.4 33.1998 23.3C33.3998 21.9 33.5998 20.4 34.1998 19.1C34.5998 18.2 35.8999 16.5 36.8999 17.8C37.5999 18.7 37.6999 20.4 37.8999 21.5C38.0999 22.8 38.2998 24.1 38.4998 25.4C39.0998 30.5 39.3998 35.6 39.6998 40.7C39.7998 43.3 39.8998 45.9 39.9998 48.4C39.9998 49.7 39.9998 50.9 39.9998 52.2C39.9998 52.9 39.9998 53.2 39.5998 53.7C39.4998 53.8 39.2998 53.8 39.1998 54L39.7999 54.3C39.6999 47.3 39.3999 40.2 38.8999 33.2C38.7999 31.5 37.9998 16.1 34.9998 17.2L35.3999 17.8C35.5999 17.6 35.8998 17.6 36.0998 17.4L35.6998 16.8C33.0998 19.2 33.1998 23.6 33.0998 26.8C33.0998 29.2 33.0998 31.5 33.0998 33.8C33.0998 34.9 33.1999 36.1 33.2999 37.2C33.2999 37.9 33.4998 37.8 32.9998 38.2C32.8998 38.3 32.6998 38.3 32.5998 38.5H33.1998C31.3998 35.2 29.3999 31.9 26.7999 29.1C24.3999 26.5 21.2999 23.9 17.8999 22.9V23.6L18.9998 23L18.4998 22.5C16.3998 26.6 19.5999 31.8 21.8999 35.1C24.7999 39.4 28.3998 43.3 32.1998 46.9L32.4998 46.3C32.1998 46.3 32.1999 46.5 31.8999 46.6C31.7999 46.6 31.6998 46.8 31.5998 46.9C31.3998 46.9 30.8998 46.6 30.6998 46.5C29.3998 45.9 27.9998 45.2 26.5998 44.6C23.9998 43.5 21.2998 42.4 18.5998 41.6C15.8998 40.8 13.1999 40 10.3999 39.6C7.99985 39.3 5.09987 39 2.79987 39.9L3.0998 40.6L4.0998 40L3.49982 39.7C3.19982 42.3 5.29987 44.2 7.29987 45.5C10.3999 47.5 13.9998 48.6 17.4998 49.6C25.0998 51.8 32.9999 53.2 40.7999 54.1C41.2999 54.1 41.2999 53.4 40.7999 53.3L40.5998 52.4Z" fill="#231F20"/>
<path d="M71.4999 32.5995C70.7999 27.5995 70.5999 22.3995 70.7999 17.2995C70.9999 13.6995 71.3999 9.89952 72.7999 6.49952C73.3999 5.09952 74.0998 3.69953 75.1998 2.69953C75.3998 2.49953 75.6999 2.19952 75.9999 1.99952C76.8999 1.59952 76.2999 1.79952 75.9999 1.99952C75.9999 1.99952 76.1999 1.89951 76.2999 1.89951C76.4999 1.89951 76.6999 2.49953 76.7999 2.69953C79.2999 7.19953 79.0998 12.7995 77.5998 17.5995C77.5998 17.3995 78.3998 17.1995 78.5998 16.9995C80.2998 14.7995 82.2999 12.6995 84.2999 10.7995C85.0999 10.0995 85.8999 9.39953 86.7999 8.69953C87.1999 8.39953 87.6998 7.99953 88.1998 7.69953C88.2998 7.69953 88.3999 7.59952 88.4999 7.49952H88.6998C88.5998 7.49952 88.5998 7.49951 88.6998 7.39951C88.9998 7.29951 89.1999 7.09952 89.4999 6.99952C90.2999 6.59952 91.1998 6.39951 92.0998 6.29951C92.3998 6.29951 92.8998 6.19951 93.0998 6.29951C93.3998 6.59951 93.4998 7.29953 93.5998 7.69953C93.7998 8.69953 93.6998 9.79951 93.5998 10.8995C92.5998 15.7995 88.9998 19.8995 85.6998 23.3995C85.3998 23.6995 85.6999 23.5995 85.9999 23.4995C86.3999 23.4995 86.8999 23.4995 87.2999 23.3995C88.7999 23.2995 90.2999 23.1995 91.7999 23.1995C93.2999 23.1995 95.1999 23.1995 96.8999 23.5995C98.1999 23.7995 99.6998 24.1995 100.7 25.0995C101.5 25.7995 101.8 26.9995 101.4 27.9995C101.2 28.3995 100.9 28.7995 100.6 28.9995C100.6 28.9995 99.9999 29.4995 99.8999 29.4995C99.8999 29.4995 100.6 29.0995 100.3 29.2995C100.3 29.2995 100.1 29.2995 100.1 29.3995C99.8998 29.3995 99.7998 29.5995 99.5998 29.5995C96.4998 30.8995 93.0999 31.3995 89.7999 31.6995C83.8999 32.3995 77.7999 32.5995 71.8999 32.4995H71.5998C71.2998 32.4995 70.8998 33.0995 70.5998 33.0995C76.0998 33.1995 81.6998 33.0995 87.1998 32.4995C90.7998 32.1995 94.4999 31.6995 97.8999 30.4995C99.0999 30.0995 100.3 29.4995 101.3 28.6995C102.1 28.0995 102.7 27.1995 102.6 26.1995C102.5 24.8995 101.4 24.1995 100.3 23.6995C98.6999 23.0995 96.9999 22.8995 95.2999 22.6995C92.4999 22.4995 89.5998 22.6995 86.6998 22.8995H86.4999C86.4999 22.8995 87.6999 21.6995 87.7999 21.4995C88.8999 20.2995 89.9999 18.9995 90.9999 17.5995C92.2999 15.7995 93.4998 13.7995 94.1998 11.5995C94.7998 9.79953 95.1998 7.49953 94.1998 5.69953C94.1998 5.69953 94.1999 5.49952 93.9999 5.49952C93.7999 5.29952 92.8998 5.49952 92.6998 5.49952C92.1998 5.49952 91.7999 5.69951 91.2999 5.79951C89.4999 6.39951 87.7999 7.49953 86.2999 8.59953C83.1999 10.7995 80.3999 13.6995 77.9999 16.6995C77.7999 16.8995 77.6998 17.0995 77.5998 17.1995L78.5998 16.5995C80.0998 11.8995 80.2999 6.59953 77.9999 2.09953C77.7999 1.79953 77.6999 1.19952 77.3999 0.999522C77.1999 0.899523 77.3998 0.999522 77.1998 0.999522C76.9998 0.999522 76.4999 1.39952 76.2999 1.49952C74.9999 2.29952 73.9998 3.19952 73.0998 4.49952C71.1998 7.59952 70.4998 11.4995 70.1998 14.9995C69.7998 18.7995 69.8998 22.6995 70.0998 26.4995C70.1998 28.5995 70.3998 30.6995 70.6998 32.6995C70.6998 32.5995 71.6998 32.2995 71.6998 32.0995L71.4999 32.5995Z" fill="#231F20"/>
<path d="M71.8997 32.5004C71.0997 27.0004 70.8997 21.4004 71.2997 15.8004C71.4997 13.2004 71.8996 10.6004 72.6996 8.10041C73.0996 6.90041 73.5997 5.6004 74.2997 4.5004C74.7997 3.7004 75.5996 2.50041 76.5996 2.20041L76.2997 1.5004C76.1997 1.5004 75.9997 1.60041 75.8997 1.70041L76.1996 2.40039C76.1996 2.40039 77.3996 5.2004 77.4996 5.5004C77.8996 6.9004 78.1996 8.30041 78.1996 9.70041C78.2996 12.4004 77.8996 15.0004 77.0996 17.6004C76.9996 18.0004 77.4996 18.2004 77.6996 18.0004C77.8996 17.8004 78.3996 17.7004 78.5996 17.5004C78.9996 17.1004 79.3997 16.5004 79.7997 16.1004C80.6997 15.1004 81.5996 14.1004 82.4996 13.1004C84.3996 11.2004 86.3997 9.30039 88.7997 7.90039L88.3997 7.30039H88.2997C87.8997 7.60039 88.2996 8.2004 88.6996 8.0004C89.7996 7.5004 90.7996 7.00039 91.9996 6.90039C93.1996 6.80039 93.1997 8.0004 93.2997 9.0004C93.3997 11.0004 92.6997 13.1004 91.7997 14.9004C90.9997 16.6004 89.8996 18.1004 88.6996 19.6004C87.4996 21.1004 86.1996 22.3004 85.0996 23.7004C84.9996 23.9004 84.8996 24.1004 85.0996 24.2004C85.2996 24.4004 85.3996 24.3004 85.6996 24.3004C86.5996 24.3004 87.5996 24.1004 88.4996 24.1004C90.3996 24.0004 92.2996 24.0004 94.1996 24.1004C95.9996 24.2004 98.0996 24.4004 99.5996 25.3004C101.5 26.4004 101.4 28.6004 99.5996 29.6004L99.9996 30.2004C100.2 30.1004 100.3 30.0004 100.5 29.9004C100.9 29.7004 100.6 29.1004 100.2 29.2004C99.2996 29.5004 98.4996 30.0004 97.4996 30.2004C96.1996 30.6004 94.8996 30.9004 93.6996 31.1004C90.8996 31.6004 88.0997 31.8004 85.2997 32.0004C82.4997 32.2004 79.7996 32.3004 77.0996 32.4004C75.5996 32.4004 74.1996 32.4004 72.6996 32.4004C72.2996 32.4004 71.6997 32.3004 71.2997 32.4004C70.8997 32.5004 70.6997 32.8004 70.2997 33.0004C69.8997 33.2004 69.9997 33.7004 70.2997 33.7004C74.4997 33.7004 78.5997 33.7004 82.7997 33.4004C86.5997 33.2004 90.4996 32.9004 94.1996 32.1004C95.8996 31.7004 97.5996 31.2004 99.0996 30.5004C100.3 29.9004 101.8 29.2004 102.3 27.9004C103.6 25.2004 100.5 23.6004 98.2997 23.1004C94.1997 22.2004 90.0996 22.7004 85.9996 22.9004L86.2997 23.5004C86.9997 22.4004 88.1996 21.5004 88.9996 20.5004C90.1996 19.0004 91.3997 17.4004 92.3997 15.7004C93.3997 14.0004 94.1996 12.2004 94.4996 10.3004C94.6996 9.00039 94.7996 7.10039 93.9996 5.90039C93.3996 5.00039 92.0996 5.50041 91.1996 5.70041C89.1996 6.20041 87.2996 7.40041 85.5996 8.60041C82.2996 11.0004 79.3997 14.1004 76.7997 17.3004C76.5997 17.6004 76.7996 18.1004 77.1996 17.9004C77.7996 17.6004 78.0997 17.5004 78.3997 16.9004C78.6997 16.2004 78.8996 15.2004 78.9996 14.4004C79.2996 12.8004 79.4997 11.1004 79.3997 9.40039C79.2997 7.70039 79.0996 6.20041 78.5996 4.70041C78.3996 4.00041 78.0997 3.30041 77.7997 2.60041C77.5997 2.20041 77.4997 1.8004 77.2997 1.5004C77.1997 1.3004 76.9996 0.800385 76.9996 1.30039C76.9996 1.10039 76.7996 0.900391 76.5996 0.900391C75.7996 0.900391 74.8997 1.70041 74.2997 2.20041C73.1997 3.00041 72.3997 4.00041 71.7997 5.20041C70.3997 7.70041 69.6997 10.5004 69.3997 13.3004C68.4997 19.9004 68.6996 26.7004 69.5996 33.3004C69.5996 33.7004 70.0997 33.6004 70.2997 33.3004C70.4997 33.0004 70.9997 33.1004 71.2997 32.7004C71.5997 32.3004 70.8996 31.9004 70.5996 32.3004C70.3996 32.6004 69.8996 32.6004 69.5996 32.9004H70.2997C69.4997 27.2004 69.2997 21.2004 69.7997 15.3004C69.9997 12.7004 70.3997 10.1004 71.2997 7.70041C71.7997 6.30041 72.4997 5.00039 73.3997 3.90039C73.7997 3.40039 74.3996 2.9004 74.9996 2.5004C75.3996 2.2004 76.0996 1.60041 76.4996 1.60041L76.0996 1.20041C76.0996 1.40041 76.1997 1.4004 76.2997 1.5004C76.6997 2.2004 77.0997 3.00039 77.3997 3.80039C77.9997 5.30039 78.2997 6.80039 78.3997 8.40039C78.4997 10.0004 78.3996 11.4004 78.1996 12.9004C77.9996 14.4004 77.8996 16.2004 76.4996 16.9004L76.8997 17.5004C79.0997 14.7004 81.4996 12.1004 84.1996 10.0004C85.6996 8.8004 87.1997 7.70039 88.8997 6.90039C89.7997 6.40039 90.7997 6.10039 91.7997 5.90039C91.9997 5.90039 92.5997 5.70039 92.7997 5.80039C92.9997 5.80039 93.1996 6.70039 93.1996 6.90039C94.0996 10.2004 91.8996 14.1004 90.0996 16.7004C88.9996 18.2004 87.8996 19.7004 86.5996 21.1004C86.0996 21.6004 85.4996 22.1004 85.0996 22.7004C84.8996 22.9004 85.0997 23.3004 85.3997 23.3004C89.3997 23.1004 93.4996 22.5004 97.4996 23.5004C99.1996 23.9004 102.3 25.2004 100.8 27.5004C99.6997 29.2004 96.9996 30.0004 95.1996 30.5004C91.1996 31.7004 86.8996 32.0004 82.6996 32.3004C78.2996 32.6004 73.8996 32.7004 69.4996 32.6004V33.3004C69.8996 33.2004 70.1996 32.9004 70.4996 32.8004C71.0996 32.6004 71.7996 32.8004 72.4996 32.8004C73.9996 32.8004 75.3997 32.8004 76.8997 32.8004C79.6997 32.8004 82.5997 32.6004 85.3997 32.4004C87.8997 32.2004 90.2997 31.9004 92.7997 31.5004C94.0997 31.3004 95.3996 31.0004 96.5996 30.6004C97.5996 30.3004 98.4996 29.8004 99.4996 29.5004L99.1996 28.8004C98.9996 28.8004 98.8996 29.0004 98.6996 29.1004C98.2996 29.4004 98.6996 30.0004 99.0996 29.7004C100.2 29.1004 101.1 28.0004 101 26.7004C100.9 25.0004 99.2997 24.1004 97.8997 23.6004C95.7997 22.9004 93.4997 22.8004 91.2997 22.8004C89.9997 22.8004 88.6997 22.8004 87.3997 22.9004C86.7997 22.9004 86.1996 22.9004 85.5996 23.0004C85.3996 23.0004 85.0997 23.0004 84.8997 23.0004C84.6997 23.0004 84.5997 23.0004 84.8997 23.1004V23.6004C86.2997 21.8004 87.9997 20.2004 89.3997 18.3004C90.7997 16.4004 91.9996 14.3004 92.6996 12.0004C92.9996 10.9004 93.2996 9.6004 93.1996 8.5004C93.1996 7.7004 93.0996 6.5004 92.4996 6.0004C91.9996 5.5004 91.2996 5.70039 90.6996 5.80039C89.5996 6.00039 88.4996 6.40039 87.4996 6.90039L87.8997 7.5004H87.9996C88.3996 7.2004 87.9996 6.50039 87.5996 6.80039C85.3996 8.20039 83.3996 9.90039 81.4996 11.8004C80.5996 12.7004 79.6997 13.7004 78.7997 14.7004C78.3997 15.2004 77.8997 16.1004 77.2997 16.5004C76.9997 16.7004 76.6997 16.7004 76.3997 17.0004L76.9996 17.4004C77.9996 14.2004 78.3997 10.8004 77.8997 7.40039C77.6997 6.50039 76.4997 0.500397 74.8997 1.5004C74.4997 1.7004 74.7996 2.40041 75.1996 2.20041C75.3996 2.20041 75.5997 2.00039 75.7997 1.90039C76.1997 1.70039 75.8996 1.10041 75.4996 1.20041C73.6996 1.80041 72.4997 4.20041 71.7997 5.70041C70.6997 8.30041 70.0997 11.0004 69.7997 13.8004C69.0997 20.0004 69.3996 26.3004 70.1996 32.5004C70.1996 33.0004 70.9997 32.8004 70.8997 32.3004L71.8997 32.5004Z" fill="#231F20"/>
<path d="M91.3998 93.3998C90.6998 90.5998 90.2998 87.5998 89.9998 84.7998C89.4998 79.5998 89.3998 73.9998 91.0998 68.8998C91.4998 67.5998 92.0998 66.2998 92.8998 65.1998C93.2998 64.6998 93.6998 64.1998 94.0998 63.6998C94.2998 63.4998 94.5998 63.1998 94.7998 63.0998C94.8998 62.9998 95.0998 62.8998 95.1998 62.7998C95.3998 62.6998 95.9998 62.2998 95.3998 62.6998H95.1998C95.9998 63.0998 96.5998 63.7998 96.9998 64.4998C98.4998 66.7998 98.5998 69.8998 98.3998 72.5998C98.1998 75.6998 97.4998 78.7998 96.6998 81.7998C96.6998 81.5998 97.4998 81.4998 97.6998 81.1998C98.9998 78.9998 100.6 76.8998 102.3 74.8998C103.7 73.2998 105.2 71.6998 106.9 70.2998C107.3 69.8998 107.8 69.5998 108.3 69.2998C108.3 69.2998 108.5 69.1998 108.5 69.0998C108.8 68.9998 109 68.7998 109.3 68.6998C110.1 68.3998 111 68.0998 111.9 68.0998C117.5 67.9998 109.9 79.0998 108.9 80.6998C107.4 82.8998 105.9 85.0998 104.3 87.1998C104.3 87.1998 103.9 87.5998 103.9 87.6998C103.9 87.6998 103.9 87.6998 104.1 87.6998C105.1 87.6998 106.1 87.4998 107.1 87.3998C109.6 87.1998 124.3 85.9998 122 91.4998C121.4 92.7998 120.3 93.8998 119.1 94.6998C118.9 94.7998 118.7 94.9998 118.4 95.1998C118.4 95.1998 117.9 95.4998 118.2 95.3998C118.5 95.2998 118 95.4998 118 95.4998C117.5 95.7998 116.9 95.9998 116.4 96.2998C115.3 96.7998 114.2 97.0998 113 97.3998C107.3 98.7998 101.3 98.0998 95.8998 95.8998C94.2998 95.1998 92.6998 94.3998 91.1998 93.3998C90.9998 93.2998 90.3998 93.9998 90.1998 93.9998C95.7998 97.4998 102.4 99.2998 109 98.4998C113.2 97.9998 117.6 96.3998 120.8 93.5998C121.8 92.7998 122.9 91.5998 123 90.2998C123.1 89.0998 122.3 88.2998 121.3 87.7998C119.8 87.0998 118.1 86.8998 116.6 86.7998C114.7 86.5998 112.8 86.6998 110.8 86.7998C109.3 86.7998 107.7 86.9998 106.2 87.0998C105.8 87.0998 105.4 87.0998 104.9 87.1998C104.8 87.1998 104.7 87.1998 104.7 87.1998C104.7 87.0998 105.1 86.6998 105.1 86.6998C105.4 86.2998 105.7 85.9998 105.9 85.5998C106.8 84.3998 107.6 83.1998 108.5 81.9998C109.6 80.3998 118.1 68.5998 113.4 67.6998C111.8 67.3998 110 68.1998 108.6 68.9998C106.8 69.9998 105.2 71.1998 103.7 72.5998C101 75.0998 98.7998 78.0998 96.7998 81.1998C96.6998 81.3998 96.5998 81.5998 96.4998 81.7998L97.4998 81.1998C98.3998 77.8998 99.1998 74.3998 99.2998 70.9998C99.2998 69.0998 99.2998 67.0998 98.4998 65.2998C98.0998 64.3998 97.5998 63.4998 96.7998 62.7998C96.5998 62.5998 96.1998 62.2998 95.8998 62.2998C95.5998 62.2998 95.0998 62.7998 94.7998 62.8998C94.3998 63.0998 93.9998 63.3998 93.5998 63.6998C92.7998 64.2998 92.0998 65.0998 91.5998 65.9998C90.3998 67.7998 89.6998 69.8998 89.2998 71.9998C88.3998 76.4998 88.4998 81.1998 88.9998 85.7998C89.2998 88.4998 89.6998 91.2998 90.2998 93.9998C90.2998 93.8998 91.2998 93.4998 91.2998 93.3998H91.3998Z" fill="#231F20"/>
<path d="M91.8002 93.3C90.5002 87.8 89.9002 81.9 90.2002 76.3C90.5002 71.5 91.6002 65.7 95.9002 62.8C96.3002 62.6 96.0002 62 95.6002 62.1C95.4002 62.1 95.2002 62.3 95.0002 62.4C94.7002 62.6 94.8002 63 95.0002 63.1C98.0002 64.3 98.2002 69.1 98.1002 71.7C98.0002 75.1 97.2002 78.3 96.4002 81.6C96.4002 82 96.8002 82.3 97.0002 82C97.2002 81.7 97.7002 81.7 98.0002 81.4C98.4002 81 98.7002 80.3 99.1002 79.8C100.1 78.4 101.1 77 102.2 75.6C104.1 73.3 106.2 71.1 108.8 69.4L108.4 68.8H108.2C107.8 69.2 108.2 69.8 108.6 69.6C110 68.9 113.9 67.4 113.8 70.2C113.8 72.1 112.6 74.1 111.7 75.7C110.9 77.2 110 78.6 109.1 80C108.4 81.1 107.7 82.1 106.9 83.2C106.4 84 105.8 84.7 105.2 85.5C104.7 86.1 104.1 86.8 103.7 87.5C103.7 87.6 103.7 87.9 103.7 88C104.1 88.3 104.6 88.1 105 88C105.8 88 106.6 87.8 107.3 87.8C108 87.8 108.6 87.7 109.3 87.7C111.4 87.6 113.5 87.5 115.7 87.7C117.5 87.8 119.9 88 121.3 89.2C123.5 91.2 119.5 94.2 118 95.1C117.6 95.3 118 96 118.4 95.7C118.8 95.4 118.4 94.8 118 95.1C113.2 97.6 107.7 98.2 102.4 97.4C99.8002 97 97.2002 96.2 94.9002 95C94.3002 94.7 93.7002 94.4 93.1002 94.1C92.6002 93.8 91.9002 93.2 91.4002 93.1C90.8002 93 90.7002 93.5 90.2002 93.6C89.9002 93.6 89.9002 94.1 90.2002 94.3C97.1002 98.5 105.5 100.3 113.4 98C116.7 97 120.4 95.3 122.6 92.5C123.4 91.5 124 90.1 123.3 88.8C122.5 87.4 120.5 86.9 119.1 86.7C116.8 86.3 114.3 86.3 112 86.3C110.7 86.3 109.4 86.4 108.1 86.5C107.5 86.5 106.9 86.6 106.3 86.7C106.1 86.7 105.1 86.8 105.2 86.9V87.4C105.7 86.7 106.4 86 106.9 85.3C107.7 84.2 108.5 83.2 109.2 82.1C109.6 81.5 110.1 80.9 110.5 80.2C112 78 113.4 75.8 114.4 73.4C115 72 116.2 69.5 115.1 68C114.5 67.2 113.4 67.1 112.5 67.2C110.3 67.4 108.3 68.7 106.5 70C102.3 73 99.1002 77.2 96.4002 81.6C96.2002 81.9 96.6002 82.3 96.9002 82.1C97.6002 81.7 98.0002 81.6 98.2002 80.9C98.5002 79.8 98.8002 78.8 99.0002 77.7C99.4002 75.7 99.8002 73.6 99.8002 71.5C99.9002 68.6 99.8002 63.7 96.6002 62.1C95.7002 61.6 94.6002 62.7 93.8002 63.2C92.3002 64.3 91.2002 65.8 90.4002 67.5C88.6002 71.2 88.2002 75.5 88.2002 79.6C88.2002 84.4 88.8002 89.4 89.9002 94.1C89.9002 94.4 90.3002 94.5 90.5002 94.3C90.8002 94 91.3002 94 91.5002 93.7C91.8002 93.3 91.1002 92.9 90.8002 93.3C90.6002 93.5 90.1002 93.5 89.9002 93.8L90.5002 94C89.4002 89.5 88.9002 84.8 88.8002 80.2C88.7002 75.6 89.1002 70.9 91.4002 67.1C92.0002 66.1 92.7002 65.2 93.5002 64.5C94.0002 64.1 94.9002 63.2 95.6002 63C96.5002 62.7 97.4002 64.3 97.8002 65C98.4002 66.1 98.6002 67.3 98.8002 68.5C99.0002 70.8 98.8002 73.1 98.5002 75.3C98.3002 76.4 98.1002 77.5 97.8002 78.5C97.5002 79.7 97.5002 80.9 96.3002 81.6L96.8002 82.1C99.0002 78.6 101.6 75.2 104.7 72.4C106.4 70.9 108.3 69.5 110.4 68.7C111.5 68.3 113.8 67.5 114.4 68.9C115.1 70.5 113.6 73.1 113 74.4C112 76.4 110.8 78.3 109.5 80.2C109.1 80.8 108.7 81.3 108.3 81.9C107.6 82.9 106.9 83.9 106.1 84.9C105.6 85.6 104.8 86.4 104.4 87.2C104.4 87.4 104.4 87.6 104.5 87.7C105.1 88 106.1 87.7 106.7 87.6C107.9 87.5 109.1 87.4 110.4 87.4C112.8 87.3 115.2 87.3 117.5 87.5C119.8 87.7 124.3 88.8 122 92C120.8 93.7 118.7 95 116.9 95.9C108.4 100.2 98.3002 98.7 90.4002 93.8V94.5C90.6002 94.5 90.7002 94.2 90.9002 94.1C91.4002 93.9 92.0002 94.5 92.5002 94.7C93.6002 95.3 94.8002 95.9 96.0002 96.4C98.4002 97.4 101 98.1 103.6 98.4C108.6 99 113.8 98.2 118.3 95.9C120.1 94.8 122.4 93.1 122.6 90.8C122.6 89.5 121.8 88.7 120.8 88.1C117.7 86.5 113.5 86.8 110.1 87C109.3 87 108.5 87 107.7 87.1C107.3 87.1 106.9 87.1 106.5 87.2C106 87.2 105.5 87.3 105 87.4C104.7 87.4 103.9 87.3 104.2 87.5V88C104.7 87.2 105.5 86.4 106.1 85.6C106.8 84.6 107.6 83.6 108.3 82.6C108.9 81.7 109.5 80.8 110.1 79.9C111.3 78 112.5 76 113.4 74C114 72.6 115 70.4 114.2 68.9C113.1 66.8 109.6 68.3 108.2 69L108.6 69.6H108.8C109.2 69.2 108.8 68.6 108.4 68.8C105.9 70.4 103.8 72.5 102 74.7C101 75.8 100.1 77 99.3002 78.2C98.9002 78.8 98.5002 79.5 98.0002 80.1C97.6002 80.6 97.0002 80.9 96.6002 81.4L97.2002 81.8C98.2002 78 99.1002 74.1 99.0002 70.2C99.0002 67.5 98.2002 63.6 95.4002 62.4V63.1C95.6002 63.1 95.8002 63 95.9002 62.9L95.6002 62.2C91.4002 65 90.0002 70.2 89.6002 75C89.0002 81.1 89.8002 87.6 91.2002 93.5C91.3002 94 92.0002 93.8 91.9002 93.3H91.8002Z" fill="#231F20"/>
<path d="M36 150.4C36.7 148.2 37.3001 146 37.8001 143.8C39.0001 139.1 39.9 134.3 40.2 129.4C40.5 124.5 40.5001 119.6 38.4001 115.3C38.0001 114.4 37.4 113.5 36.7 112.8C36.1 112.1 35.3001 111.3 34.4001 111C34.2001 111 34.1001 111 33.9001 111C33.4001 111.3 32.9001 111.5 32.4001 111.9C28.9001 114.4 28.8 120 29.1 123.8C29.1 124.9 29.3 125.9 29.5 127L30.5 126.4C29.1 125 27.7 123.7 26.1 122.5C24.8 121.5 23.5 120.6 22.1 119.8C20.9 119.2 19.5 118.6 18.1 118.6C17 118.6 15.9 119.2 15 119.9C14.1 120.7 13.7001 121.9 13.8001 123.1C13.8001 126.2 15.6 129.2 17.2 131.8C18.4 133.8 19.7 135.7 21.2 137.4L22.2 136.8C20 136.1 17.6001 135.5 15.3001 135C13.4001 134.6 11.4001 134.2 9.40009 134C7.80009 133.8 6.00009 133.8 4.40009 134.1C3.70009 134.3 3.10007 134.5 2.50007 134.9C2.00007 135.2 1.50002 135.5 1.20002 136C0.400018 137.1 0.900067 138.7 1.50007 139.8C2.40007 141.6 4.00004 143 5.60004 144.1C7.70004 145.7 10.1 146.9 12.5 147.9C19.6 150.8 27.5 151.7 35.1 150.8C35.4 150.8 35.7 150.3 36.1 150.2C29.5 151 22.7001 150.4 16.3001 148.3C11.7001 146.8 6.80004 144.6 3.60004 140.8C2.60004 139.7 1.80011 138.2 1.80011 136.7C1.80011 136.2 1.90011 135.7 2.30011 135.2C2.50011 135 2.80009 134.8 2.90009 134.6C2.90009 134.6 1.90009 135.1 2.40009 134.9H2.60004C2.80004 134.9 2.90004 134.8 3.10004 134.7C4.60004 134.3 6.30011 134.3 7.80011 134.4C9.70012 134.5 11.6001 134.9 13.4001 135.2C16.0001 135.7 18.6 136.4 21.2 137.2C21.3 137.2 22.1 136.6 22.2 136.6C21.1 135.3 20 133.8 19.1 132.4C17.4 129.9 15.8 127.1 15.1 124.1C14.8 122.9 14.7 121.6 15.1 120.5C15.3 120 15.7 119.5 16.1 119.2C16.1 119.2 16.2001 119.2 16.3001 119C16.7001 118.7 15.3001 119.5 15.8001 119.3C15.9001 119.3 16.1 119.2 16.2 119.1C16.5 119.1 16.8 119 17 118.9C19.8 118.7 22.6 120.7 24.7 122.3C26.4 123.6 28.1 125.1 29.6 126.6C29.6 126.6 30.6 126.1 30.6 126C30.1 122.8 29.8 119.3 30.6 116.1C31 114.5 31.6001 112.8 32.8001 111.6C33.0001 111.4 33.2001 111.2 33.4001 111.1C33.4001 111.1 33.6 111 33.7 110.9C34.2 110.5 33.1 111.2 33.2 111.2C33.5 111.2 33.4001 111 33.8001 111.2C35.5001 112.2 36.8 113.7 37.6 115.4C39.7 119.4 39.8 124.4 39.5 128.8C39.2 133.6 38.4001 138.3 37.3001 143C36.9001 144.7 36.5 146.4 36 148C35.8 148.5 35.7 149.1 35.5 149.6C35.5 149.8 35.2 150.2 35.2 150.5C35.2 150.5 35.2 150.5 35.2 150.6C35.2 150.3 36.1 150.3 36.2 150L36 150.4Z" fill="#231F20"/>
<path d="M36.4 150.5C38 145.7 39.1 140.7 39.9 135.8C40.6 131.3 41.1 126.6 40.6 122C40.2 118.1 38.9 113.9 35.8 111.4C35.4 111.1 34.7999 110.6 34.2 110.6C33.5 110.6 32.5 111.4 32 111.8C30.9 112.7 30.1 113.9 29.6 115.2C28.2 118.9 28.5999 123.2 29.1999 127.1C29.1999 127.3 29.6 127.4 29.8 127.3L30.8 126.7C31 126.6 31 126.3 30.8 126.1C28.3 123.5 25.4 121 22.1 119.4C19.5 118.1 16.3 117.6 14.3 120.2C12.5 122.5 13.7 125.9 14.8 128.2C16.4 131.6 18.6 134.8 20.9 137.6C20.9 137.7 21.2 137.7 21.3 137.6L22.3 137C22.6 136.8 22.5 136.4 22.3 136.3C17.8 134.9 13.1 133.7 8.30005 133.4C5.40005 133.2 -0.300002 133.9 0.499998 138C1.2 141.8 5.39997 144.5 8.59997 146.3C12.6 148.5 17.1 149.9 21.6 150.7C24.2 151.1 26.7 151.4 29.3 151.4C30.6 151.4 31.9 151.4 33.1 151.3C33.7 151.3 34.5 151.3 35.1 151.1C35.5 151 35.7999 150.7 36.2 150.5C36.5 150.4 36.6 149.7 36.2 149.8C29.2 150.6 22.1 149.8 15.4 147.5C12.6 146.5 9.80002 145.3 7.40002 143.6C6.20002 142.7 5 141.7 4 140.5C3.3 139.7 2.70002 138.8 2.40002 137.8C2.10002 136.6 2.39995 135.8 3.19995 134.9C3.49995 134.6 3.20005 134.1 2.80005 134.3C2.60005 134.4 2.19997 134.5 2.09997 134.7C1.89997 135 2.1 135.4 2.5 135.3C6.2 134.2 9.99995 134.8 13.6999 135.6C15.5999 136 17.5 136.5 19.4 137C20 137.2 20.8 137.6 21.4 137.5C21.8 137.5 22 137 22.4 136.9C22.7 136.9 22.7 136.5 22.6 136.3C20.5 133.8 18.6999 131 17.1999 128.2C16.3999 126.7 15.8 125.2 15.5 123.6C15.1 121.8 15.5 120.5 16.8 119.2C17 119 16.9 118.7 16.8 118.6C16.4 118.4 15.6 118.9 15.6 119.3C15.6 119.5 15.8 119.7 16.1 119.7C18.9 118.9 21.3 120.2 23.6 121.8C25.9 123.4 27.7999 125.1 29.6999 127C29.7999 127.1 30 127.1 30.1 127C30.6 126.8 31.0999 126.6 31.1999 126C31.2999 125.5 31 124.7 31 124.2C31 123.7 30.9 123.2 30.9 122.8C30.9 121.8 30.8 120.7 30.9 119.7C30.9 117.8 31.2 115.8 32 114.1C32.4 113.3 32.9 112.4 33.5 111.8C33.7 111.6 34.3 111.3 34.4 110.9C34.4 110.6 34.1 110.3 33.8 110.5C33.6 110.6 33.3 110.8 33.1 110.9C32.9 111.1 33.1 111.7 33.5 111.5C34.1 111.3 34.9 112.2 35.3 112.5C35.9 113.1 36.5 113.7 37 114.5C37.9 115.9 38.5 117.4 38.8 119C39.6 122.4 39.6 126 39.4 129.4C38.9 136.5 37.4 143.6 35.2 150.4C35.1 150.7 35.6 151.1 35.8 150.8C36 150.5 36.5 150.6 36.8 150.2C37.1 149.8 36.6 149.3 36.3 149.7C36.1 150 35.6 150 35.3 150.3L35.9 150.7C38.3 143.2 40 135.2 40.2 127.3C40.2999 123.6 40.2 119.9 38.7 116.4C38.1 115 37.4 113.7 36.3 112.6C35.6 111.9 34.2999 110.4 33.2 110.9L33.6 111.5C33.7 111.4 34 111.3 34.1 111.2L33.5 110.8L32.9 111.2C32.6 111.4 32.3 111.8 32.1 112.1C31.7 112.6 31.3 113.2 31.1 113.9C30.5 115.2 30.2 116.6 30 118C29.8 119.8 29.8 121.6 30 123.5C30 124.1 30.5 125.4 30.3 126C30.3 126.2 30.3 126.1 30.1 126.3C30 126.4 29.8 126.5 29.6 126.6H30C27.9 124.5 25.6 122.5 23 120.9C20.7 119.4 18.4 118.4 15.6999 119.2L16.1999 119.6C16.1999 119.9 16.6 119.6 16.3 119.6V119C15.2 120 14.6 120.9 14.5 122.4C14.5 124.1 15.0999 125.8 15.6999 127.3C17.1999 130.9 19.6 134.2 22 137.2L22.1999 136.6C21.6999 136.7 21.6 137.1 21 137C20.1 137 19.2 136.5 18.3 136.2C16.3 135.7 14.3 135.2 12.3 134.9C8.90005 134.3 5.60005 133.9 2.30005 134.9L2.69995 135.5C2.69995 135.4 3.10005 135.3 3.30005 135.2L2.90002 134.6C1.80002 135.7 1.40002 136.7 1.90002 138.2C2.40002 139.7 3.40002 141 4.40002 142.1C6.70002 144.5 9.70005 146.2 12.8 147.5C20.2 150.6 28.4 151.7 36.3 150.8V150.1C35.4 150.4 34.7001 150.7 33.8 150.8C32.9 150.9 31.9 150.9 30.9 151C28.9 151 27 151 25 150.8C21 150.4 17 149.4 13.3 148C9.60005 146.6 6.00002 144.7 3.40002 141.8C2.10002 140.3 0.199998 137.3 2.5 135.8C4.3 134.6 6.4 134.5 8.5 134.6C13.2 134.9 17.8 136.1 22.3 137.5V136.8L21.1999 137.4H21.6C19.7 135.1 18 132.6 16.5 129.9C15.2 127.6 13.3 123.8 14.8 121.3C16.7 118.1 20.6999 119.7 23.1999 121.2C25.7999 122.8 28.2 124.9 30.4 127.1V126.5L29.5 127.1L30.1 127.3C29.6 124.1 29.3 120.7 30 117.5C30.3 116 30.9 114.5 31.9 113.4C32.5 112.8 33.3 112.1 34.1 111.8C35 111.5 35.9 112.5 36.4 113.1C39.2 116 40 120.3 40.2 124.2C40.4 128.3 39.9 132.5 39.3 136.6C38.5 141.3 37.4 146 35.9 150.6C35.7 151.1 36.5 151.3 36.6 150.8L36.4 150.5Z" fill="#231F20"/>
<path d="M93.5996 191.8C92.9996 186.4 92.9996 180.8 93.5996 175.5C93.9996 171.9 94.6996 168.1 96.6996 165C97.0996 164.4 97.5996 163.8 98.0996 163.2C98.3996 163 98.6996 162.7 98.9996 162.5C99.2996 162.3 99.3996 162.5 98.5996 162.7C98.6996 162.7 98.7996 162.6 98.8996 162.5C99.0996 162.5 99.1996 162.3 99.3996 162.3C99.6996 162.2 100.1 162.1 100.4 162C100.6 162 101.2 161.8 101.4 162C101.6 162 101.7 162.3 101.8 162.5C102.7 163.8 103.2 165.4 103.3 167C103.6 170.5 102.6 174 101.4 177.2C101.4 177 102.2 176.9 102.4 176.6C104.3 174.3 106.4 172.1 108.6 170.1C110.3 168.6 112.2 167.2 114.4 166.5C115.7 166.1 117.7 165.8 118.8 166.8C119.6 167.6 119.5 168.8 119.3 169.7C119 171.3 118.2 172.8 117.4 174.2C115.5 177.7 113.2 180.9 110.8 184C109.9 185.2 109 186.3 108.1 187.4L107 188.6C107 188.6 107.6 188.6 107.7 188.6C108.3 188.6 108.8 188.6 109.4 188.6C111.2 188.6 112.9 188.6 114.6 188.6C118.2 188.9 122.8 189.6 125.2 192.7C126.1 193.9 126.7 195.5 126.3 197C126.1 197.6 125.8 198.2 125.4 198.7C125.2 198.9 125 199.2 124.7 199.4C124.6 199.4 124.5 199.6 124.3 199.7C124.3 199.7 124.1 199.8 124.1 199.9C124.1 199.9 123.9 199.9 123.9 200.1C123.7 200.2 123.8 200.1 124.1 200C124 200 123.7 200.2 123.5 200.3C123.3 200.3 123.1 200.5 122.9 200.6C122.5 200.8 122 200.9 121.6 201C120.7 201.3 119.7 201.5 118.7 201.6C116.4 201.9 114.1 201.8 111.8 201.4C106.4 200.6 101.1 198.3 96.7997 194.9C95.5997 194 94.4996 192.9 93.3996 191.8C93.3996 191.8 92.4996 192.4 92.3996 192.4C96.5996 196.8 102 199.9 107.8 201.3C112.2 202.4 117.2 202.7 121.6 201.1C124.1 200.2 127.5 198.3 127.3 195.2C127 191 122.5 189.2 119 188.6C115.5 188 112.1 187.9 108.6 188.2H107.9C107.9 188.2 108.2 187.9 108.2 187.8C109 186.9 109.7 186 110.4 185C112.9 181.9 115.3 178.6 117.4 175.2C118.3 173.6 119.2 172 119.8 170.3C120.2 169.2 120.6 167.8 120 166.8C119.3 165.5 117.4 165.5 116.2 165.8C114.2 166.2 112.4 167.3 110.7 168.4C107.3 170.6 104.4 173.6 101.8 176.6C101.6 176.8 101.5 177 101.3 177.2L102.3 176.6C104 172.4 105.6 166.5 103 162.3C102.9 162.1 102.7 161.6 102.4 161.5C102.1 161.3 101.2 161.5 100.8 161.6C99.3997 161.9 97.9996 162.8 96.8996 163.8C94.2996 166.3 93.2996 170.2 92.6996 173.6C91.9996 177.5 91.8996 181.5 91.9996 185.4C91.9996 187.7 92.1996 190 92.3996 192.2C92.3996 192.1 93.3996 191.8 93.3996 191.6L93.5996 191.8Z" fill="#231F20"/>
<path d="M93.9999 191.8C93.3999 186.5 93.3999 181.2 93.9999 175.9C94.2999 173.5 94.6 171.1 95.4 168.9C95.8 167.7 96.2999 166.5 96.9999 165.4C97.4999 164.6 98.5 163.1 99.4 162.9L98.9999 162.7C98.9999 162.6 98.9999 162.4 98.9999 162.3L98.5999 162.5L98.9 163.2C99.4 162.9 100.1 162.6 100.7 162.6C101.6 162.6 101.9 163.1 102.3 163.8C103 165.2 103.2 166.7 103.2 168.2C103.2 171.3 102.4 174.3 101.2 177.1C101.1 177.4 101.6 177.7 101.8 177.5C102 177.3 102.4 177.2 102.7 177C103 176.8 103.1 176.5 103.3 176.2C104 175.4 104.7 174.6 105.4 173.9C106.8 172.4 108.4 171 110 169.7C111.6 168.4 113.2 167.3 115.2 166.8C116.1 166.6 117.3 166.4 118.2 166.8C119.5 167.5 119.2 169 118.9 170.1C117.9 174 115.1 177.7 112.7 180.9C111.3 182.8 109.9 184.6 108.5 186.4C108 187 107 187.8 106.7 188.6C106.7 188.8 106.8 189.1 107.1 189.1C107.9 189.1 108.9 188.9 109.7 188.9C111 188.9 112.2 188.9 113.5 188.9C115.6 188.9 117.8 189.2 119.8 189.8C121.8 190.4 123.9 191.4 125.1 193.2C126.7 195.6 125.9 198.2 123.6 199.7C123.2 200 123.6 200.6 124 200.4C124.1 200.4 124.2 200.3 124.3 200.2C124.7 200 124.4 199.4 124 199.5C122.7 199.9 121.6 200.5 120.3 200.8C118.6 201.1 117 201.2 115.3 201.2C112.1 201.2 108.9 200.5 105.8 199.4C102.7 198.3 100.2 196.9 97.6999 195.1C96.8999 194.5 96.1999 193.9 95.4999 193.3C94.9999 192.8 94.2999 191.8 93.6999 191.6C93.0999 191.4 92.9 191.9 92.4 192.1C92.1 192.1 91.9999 192.5 92.1999 192.7C98.6999 199.4 108.5 203.7 118 202.5C121.3 202.1 126.2 200.6 127.5 197.1C128.8 193.6 125.7 190.7 122.8 189.4C120.7 188.5 118.5 188.1 116.3 187.9C114.8 187.7 113.3 187.7 111.8 187.7C110.6 187.7 109.3 188 108.1 187.9L108.4 188.5C109.6 186.8 111.1 185.2 112.4 183.6C113.9 181.6 115.4 179.6 116.7 177.6C118 175.6 119.2 173.6 120.1 171.5C120.7 170.1 121.4 168 120.4 166.6C119.6 165.5 117.9 165.4 116.7 165.6C114.6 165.9 112.8 166.9 111.1 168.1C107.3 170.5 104.1 173.8 101.3 177.2C101 177.5 101.3 178 101.7 177.8C102.3 177.4 102.7 177.3 103 176.7C103.3 175.9 103.6 175.1 103.9 174.2C104.4 172.5 104.8 170.7 104.9 169C105 167.3 104.9 165.6 104.3 164C103.9 163 103.4 161.3 102.1 161.3C100.7 161.3 99 162.2 97.9 163C96.6 163.9 95.6 165.2 94.8 166.6C93.1 169.8 92.4999 173.5 92.1999 177C91.6999 182.2 91.7999 187.4 92.1999 192.6C92.1999 193 92.7 193.1 92.9 192.8C93.1 192.5 93.6 192.6 93.9 192.2C94.2 191.8 93.4999 191.4 93.1999 191.8C92.9999 192.1 92.4999 192 92.1999 192.4L92.9 192.6C92.4 188 92.2999 183.3 92.6999 178.7C92.9999 174.7 93.4999 170.1 95.6999 166.5C96.7999 164.6 98.5999 163.1 100.7 162.4C101 162.4 101.8 162 102.1 162.1C102.5 162.1 102.8 162.8 103 163.1C103.5 164 103.8 165 104 166C104.3 168 104 170.1 103.6 172.1C103.4 173 103.1 173.8 102.8 174.7C102.4 175.8 102.3 176.5 101.2 177.1L101.6 177.7C104.1 174.6 106.9 171.7 110.2 169.4C111.8 168.3 113.6 167.1 115.5 166.6C117.2 166.1 120 166 120 168.5C120 170.5 118.8 172.5 117.8 174.2C116.8 176 115.7 177.6 114.6 179.3C113.4 181.1 112.1 182.8 110.8 184.4C109.8 185.7 108.6 186.9 107.6 188.3C107.4 188.5 107.6 188.8 107.9 188.9C108.6 188.9 109.3 188.8 110 188.7C111.3 188.7 112.5 188.7 113.8 188.7C115.9 188.7 118.1 189 120.2 189.6C123.2 190.4 127.3 192.4 126.9 196.2C126.5 200 120.6 201.7 117.4 202C113.1 202.5 108.7 201.7 104.6 200.2C100.1 198.5 95.9999 195.8 92.6999 192.4L92.4999 193C92.6999 193 93.1 192.5 93.3 192.5C93.5 192.5 94.4999 193.7 94.6999 193.9C95.7999 194.9 96.9999 195.8 98.1999 196.7C100.7 198.4 103.5 199.8 106.4 200.7C109.3 201.6 112.5 202.2 115.6 202.2C117.1 202.2 118.7 202.2 120.2 201.8C121.6 201.5 122.8 200.9 124.1 200.5L123.8 199.8C123.7 199.8 123.6 199.9 123.5 200L123.9 200.7C125.7 199.5 127 197.6 126.6 195.4C126.2 193.2 124.3 191.4 122.3 190.4C120.3 189.4 117.9 189 115.5 188.7C113.9 188.5 112.3 188.5 110.7 188.5C109.5 188.5 108.1 188.8 106.9 188.7L107.3 189.2C107.4 188.9 107.9 188.5 108.1 188.3C108.6 187.7 109.1 187.1 109.6 186.5C110.8 185 111.9 183.5 113.1 182C115.3 179 117.4 175.9 118.9 172.5C119.8 170.3 120.6 166.8 117.4 166.3C114.6 165.8 111.7 167.6 109.6 169.3C107.9 170.6 106.3 172.1 104.8 173.6C104.1 174.4 103.4 175.1 102.7 175.9C102.3 176.4 102 176.7 101.5 177C101.3 177.1 101.2 177.2 101 177.3L101.6 177.7C103 174.1 104.1 170.1 103.4 166.1C103.2 165 102.6 162.7 101.5 162.1C100.7 161.7 98.9999 162.5 98.1999 162.8C97.7999 163 98.0999 163.6 98.4999 163.5C98.7999 163.5 99 163.3 99.3 163.1C99.4 163.1 99.4 162.8 99.3 162.6C99.2 162.4 99 162.4 98.9 162.4C97.2 162.9 95.7999 165.5 95.0999 166.9C93.9999 169.2 93.4999 171.8 93.0999 174.4C92.2999 180.3 92.3 186.2 92.9 192.1C92.9 192.6 93.6999 192.6 93.6999 192.1L93.9999 191.8Z" fill="#231F20"/>
<path d="M31.4004 46.2998C34.1004 48.5998 36.8004 50.7998 39.5004 53.0998L40.5004 52.4998C38.6004 47.9998 36.7004 43.5998 34.8004 39.1998C34.5004 38.5998 34.3004 37.8998 34.0004 37.2998C34.0004 37.2998 33.0004 37.7998 33.0004 37.8998C34.9004 42.3998 36.8004 46.7998 38.7004 51.1998C39.0004 51.7998 39.2004 52.4998 39.5004 53.0998L40.5004 52.4998C37.8004 50.1998 35.1004 47.9998 32.4004 45.6998C32.4004 45.6998 31.5004 46.2998 31.4004 46.2998Z" fill="#231F20"/>
<path d="M31.0995 46.5998C33.0995 48.2998 35.0995 49.8998 37.0995 51.5998L38.4996 52.7998C38.6996 52.9998 39.0996 53.4998 39.4996 53.4998C39.8996 53.4998 40.2995 53.0998 40.6995 52.8998C40.8995 52.7998 40.8996 52.5998 40.7996 52.3998C38.5996 47.2998 36.4996 42.1998 34.2996 37.1998C34.2996 36.9998 33.8995 36.9998 33.6995 37.1998C33.4995 37.3998 32.9995 37.4998 32.6995 37.7998C32.5995 37.8998 32.5995 38.0998 32.6995 38.2998C34.8995 43.3998 36.9995 48.4998 39.1995 53.4998C39.1995 53.6998 39.5995 53.6998 39.6995 53.5998L40.6995 52.9998C40.8995 52.8998 40.9995 52.5998 40.6995 52.3998C38.7995 50.7998 36.7996 49.0998 34.8996 47.4998L33.4996 46.2998C33.1996 46.0998 32.7996 45.5998 32.3996 45.4998C32.1996 45.4998 32.0996 45.4998 31.8996 45.6998C31.7996 45.6998 31.6995 45.8998 31.5995 45.8998C31.5995 45.8998 31.2996 45.9998 31.3996 45.9998C30.8996 45.9998 30.8996 46.6998 31.3996 46.7998C31.7996 46.7998 32.1996 46.2998 32.2996 46.2998C32.3996 46.2998 32.8996 46.7998 32.9996 46.8998L33.5995 47.3998L34.8996 48.4998C36.6996 49.9998 38.3995 51.3998 40.0995 52.8998V52.2998L39.1995 52.8998H39.6995C37.4995 47.9998 35.3995 42.8998 33.1995 37.7998V38.2998C33.2995 37.9998 33.7995 37.9998 34.0995 37.6998H33.4996C35.6996 42.6998 37.7996 47.7998 39.9996 52.8998V52.3998C39.8996 52.4998 39.5995 52.8998 39.1995 52.8998H39.5995C36.8995 50.6998 34.1996 48.4998 31.4996 46.1998C31.0996 45.8998 30.5996 46.3998 30.9996 46.6998L31.0995 46.5998Z" fill="#231F20"/>
<path d="M77.4996 17.5C76.3996 19.4 75.3996 21.3 74.4996 23.2C72.8996 26.4 71.2996 29.7 70.5996 33.1C70.5996 33 71.3996 32.6 71.4996 32.6C75.7996 29.8 80.1996 27.1 84.4996 24.3C85.0996 23.9 85.6996 23.5 86.3996 23.1C86.1996 23.2 85.6996 23.5 85.4996 23.6C81.1996 26.4 76.7996 29.1 72.4996 31.9C71.8996 32.3 71.2996 32.7 70.5996 33.1L71.4996 32.6C72.2996 29.1 73.8996 25.8 75.3996 22.7C76.2996 20.8 77.2996 18.8 78.3996 17C78.1996 17.3 77.5996 17.3 77.3996 17.6L77.4996 17.5Z" fill="#231F20"/>
<path d="M77.1998 17.2999C75.7998 19.8999 74.3998 22.4999 73.1998 25.1999C71.9998 27.8999 70.8998 30.2999 70.2998 33.0999C70.2998 33.4999 70.6998 33.6999 70.9998 33.3999C71.1998 33.1999 71.7998 32.9999 72.0998 32.7999C72.7998 32.2999 73.4998 31.8999 74.2998 31.3999C75.5998 30.4999 76.9998 29.6999 78.3998 28.7999C81.1998 26.9999 83.9998 25.2999 86.6998 23.4999C87.0998 23.1999 86.6998 22.5999 86.2998 22.8999C80.9998 26.0999 75.7998 29.5999 70.4998 32.8999C70.0998 33.1999 70.4998 33.7999 70.8998 33.4999C71.4998 33.1999 71.8998 33.0999 72.0998 32.3999C72.2998 31.5999 72.4998 30.8999 72.7998 30.0999C73.2998 28.5999 73.9998 27.0999 74.5998 25.5999C75.8998 22.6999 77.3998 19.7999 78.8998 17.0999C79.0998 16.6999 78.5998 16.2999 78.2998 16.5999C77.9998 16.8999 77.5998 16.8999 77.2998 17.1999C76.9998 17.5999 77.4998 18.0999 77.7998 17.6999C77.9998 17.3999 78.4998 17.3999 78.7998 17.0999L78.1998 16.5999C76.6998 19.2999 75.2998 22.0999 73.9998 24.8999C73.3998 26.1999 72.7998 27.4999 72.2998 28.7999C71.9998 29.4999 71.7998 30.1999 71.5998 30.8999C71.5998 31.1999 71.4998 31.7999 71.2998 31.9999C71.0998 32.2999 70.7998 32.3999 70.4998 32.5999L70.8998 33.1999C76.0998 29.7999 81.2998 26.3999 86.6998 23.1999L86.2998 22.5999C83.3998 24.4999 80.4998 26.2999 77.4998 28.1999C76.0998 29.0999 74.5998 29.9999 73.1998 30.9999C72.5998 31.3999 71.9998 31.8999 71.2998 32.1999C70.9998 32.3999 70.5998 32.4999 70.3998 32.7999L71.0998 33.0999C71.7998 30.2999 72.8998 27.6999 74.0998 25.0999C75.2998 22.4999 76.5998 19.9999 77.9998 17.4999C78.1998 17.0999 77.5998 16.6999 77.2998 17.0999L77.1998 17.2999Z" fill="#231F20"/>
<path d="M96.7996 81.7998C94.9996 85.1998 93.2996 88.5998 91.4996 91.9998C91.1996 92.5998 90.7996 93.1998 90.5996 93.7998V93.9998L91.0996 93.8998C93.3996 93.3998 95.5996 92.6998 97.7996 91.8998C99.1996 91.2998 100.6 90.6998 101.9 89.8998C103.1 89.1998 104.3 88.3998 105.1 87.2998C104.9 87.5998 104.3 87.5998 104.1 87.8998C102.5 89.9998 99.8996 90.9998 97.3996 91.8998C95.5996 92.4998 93.6996 93.0998 91.6996 93.4998C91.3996 93.4998 91.3996 93.4998 91.5996 93.2998L92.5996 91.3998L95.6996 85.3998C96.3996 83.9998 97.0996 82.6998 97.7996 81.2998C97.6996 81.5998 96.9996 81.5998 96.7996 81.8998V81.7998Z" fill="#231F20"/>
<path d="M96.4 81.6002C95.3 83.8002 94.2 85.9002 93 88.1002L91.3 91.3003C90.9 92.1003 90.2 93.0003 90 93.9003C90 94.1003 90.1 94.4003 90.4 94.4003C90.8 94.4003 91.3 94.2002 91.7 94.1002C92.4 93.9002 93.2 93.7003 93.9 93.5003C95.4 93.1003 96.8 92.6003 98.2 92.0003C100.7 91.0003 103.5 89.6003 105.2 87.5003C105.5 87.1003 105 86.6003 104.7 87.0003C104.5 87.2003 104.3 87.2003 104.1 87.3003C103.9 87.4003 103.8 87.5002 103.6 87.7002C103.2 88.2002 102.7 88.6003 102.2 89.0003C101.3 89.7003 100.2 90.2002 99.1 90.7002C98 91.2002 96.8 91.6003 95.6 91.9003C94.9 92.1003 94.2 92.3003 93.4 92.5003C92.8 92.7003 92 93.0003 91.4 93.0003L91.8 93.3003C91.8 93.6003 91.8 93.3002 92 93.1002C92.1 92.8002 92.3 92.6003 92.4 92.3003L93.1 90.9003L94.7 87.8003C95.8 85.7003 96.9 83.6003 98 81.5003C98.2 81.1003 97.7 80.7003 97.4 81.0003C97.2 81.3003 96.7 81.2002 96.4 81.6002C96.1 82.0002 96.6 82.5002 96.9 82.1002C97.1 81.8002 97.6 81.9003 97.9 81.5003L97.3 81.0003C96.1 83.3003 94.9 85.6003 93.8 87.8003L92.1 91.0003C91.8 91.5003 91.5 92.1002 91.3 92.6002C91.2 92.8002 91 93.1003 91 93.4003C91 93.6003 91.2 93.7002 91.4 93.7002C92 93.7002 92.6 93.5003 93.2 93.3003C94 93.1003 94.7 92.9002 95.5 92.7002C96.8 92.3002 98.2 91.8003 99.5 91.3003C100.6 90.8003 101.7 90.3002 102.7 89.6002C103.2 89.2002 103.6 88.8003 104 88.4003C104.4 88.0003 104.4 88.0003 104.8 87.8003C105 87.8003 105.1 87.6003 105.3 87.5003L104.8 87.0003C103.1 89.1003 100.4 90.4003 97.9 91.4003C96.7 91.9003 95.4 92.3002 94.1 92.7002C93.4 92.9002 92.7 93.1002 92 93.2002C91.6 93.3002 91 93.6003 90.5 93.5003L90.9 94.0003C91.1 93.1003 91.8 92.2003 92.3 91.3003L94 88.1002C95.1 86.0002 96.2 83.9003 97.2 81.8003C97.4 81.4003 96.8 81.0003 96.5 81.4003L96.4 81.6002Z" fill="#231F20"/>
<path d="M29.5002 127.1C31.9002 132.2 33.6002 137.8 34.5002 143.3C34.9002 145.8 35.1002 148.4 35.1002 151L36.1002 150.4C32.0002 146.5 27.9002 142.5 23.9002 138.6C23.3002 138 22.7002 137.5 22.2002 136.9C22.2002 136.9 21.3002 137.5 21.2002 137.5C25.3002 141.4 29.4002 145.4 33.4002 149.3C34.0002 149.9 34.6002 150.4 35.1002 151C35.1002 151 36.1002 150.5 36.1002 150.4C36.3002 142.8 34.2002 135.1 31.3002 128.2C31.1002 127.6 30.8002 127.1 30.5002 126.5C30.5002 126.5 29.5002 127 29.5002 127.1Z" fill="#231F20"/>
<path d="M29.1997 127.3C32.6997 134.6 34.8997 142.9 34.6997 151C34.6997 151.3 34.9998 151.5 35.2998 151.3L36.2998 150.7C36.4998 150.6 36.4998 150.3 36.2998 150.1C33.2998 147.2 30.3998 144.4 27.3998 141.5C25.9998 140.1 24.4997 138.7 22.9997 137.3C22.6997 137 22.3998 136.5 21.8998 136.5C21.4998 136.5 21.2998 137 20.8998 137.1C20.5998 137.1 20.4997 137.5 20.6997 137.7C25.3997 142.2 29.9997 146.7 34.5997 151.2C34.6997 151.3 34.8997 151.3 34.9997 151.2C35.2997 151.1 35.8997 150.9 36.0997 150.5C36.4997 149.9 36.0997 148.3 36.0997 147.6C36.0997 145.2 35.6997 142.8 35.1997 140.4C34.1997 135.5 32.5997 130.7 30.4997 126.2C30.4997 126 30.0997 126 29.9997 126.1C29.6997 126.3 29.2997 126.5 28.9997 126.7C28.5997 127 29.1997 127.5 29.4997 127.2C29.7997 127 30.0998 126.9 30.3998 126.7H29.8998C31.7998 130.6 33.2997 134.9 34.1997 139.3C34.6997 141.5 34.9997 143.6 35.1997 145.9C35.1997 146.9 35.2998 148 35.2998 149C35.2998 149.5 35.3997 149.9 35.0997 150.3C34.9997 150.4 34.6997 150.5 34.4997 150.6H34.8998C30.1998 146.2 25.5997 141.7 20.9997 137.2L20.7998 137.8C21.0998 137.8 21.3997 137.3 21.5997 137.3C21.5997 137.3 22.2998 138.1 22.3998 138.2L23.2998 139C24.5998 140.3 25.9998 141.6 27.2998 142.9C29.9998 145.5 32.5998 148.1 35.2998 150.7V150.1L34.3998 150.7L34.9997 151C35.1997 142.8 32.8998 134.3 29.3998 126.9C29.1998 126.5 28.5997 126.9 28.6997 127.3H29.1997Z" fill="#231F20"/>
<path d="M102 177.2C99.3002 181.5 96.6002 185.8 94.0002 190.2C93.7002 190.8 93.3002 191.3 93.0002 191.9C93.0002 191.9 92.7002 192.3 92.7002 192.4H92.8002C93.0002 192.4 93.3002 192.3 93.6002 192.2L94.9002 191.9C97.4002 191.3 99.9002 190.7 102.5 190.1C104.3 189.7 106.1 189.3 107.9 188.8C108.2 188.8 108.5 188.3 108.9 188.2C104.8 189.2 100.8 190.1 96.7002 191.1L94.2002 191.7C94.2002 191.7 93.8002 191.8 93.7002 191.8C93.7002 191.8 94.3002 190.7 94.4002 190.6C96.0002 187.8 97.7002 185.1 99.4002 182.4C100.6 180.5 101.8 178.6 103 176.7C102.8 177 102.2 177 102 177.3V177.2Z" fill="#231F20"/>
<path d="M101.6 177C99.8998 179.7 98.1998 182.5 96.4998 185.2C95.6998 186.6 94.7998 187.9 93.9998 189.3C93.5998 189.9 93.1998 190.6 92.8998 191.2C92.6998 191.5 92.3998 191.9 92.2998 192.2C92.2998 192.5 92.4998 192.7 92.7998 192.7C95.3998 192.2 97.9998 191.5 100.6 190.9C102.1 190.6 103.5 190.2 105 189.9L107.1 189.4C107.5 189.4 107.9 189.3 108.2 189.1C108.5 189 108.7 188.7 109 188.6C109.4 188.4 109.3 187.8 108.8 187.9C106.1 188.5 103.5 189.1 100.9 189.8L96.9998 190.7L95.2998 191.1C94.7998 191.2 94.2998 191.4 93.7998 191.5L94.1998 191.9C94.1998 191.7 94.5998 191.2 94.7998 191C95.0998 190.4 95.4998 189.8 95.7998 189.3C96.5998 188 97.3998 186.6 98.1998 185.3C99.8998 182.5 101.7 179.7 103.4 176.9C103.6 176.5 103.1 176.1 102.8 176.4C102.5 176.7 102.1 176.7 101.8 177C101.5 177.3 102 177.9 102.3 177.5C102.6 177.2 103 177.2 103.3 176.9L102.7 176.4C100.8 179.4 98.9998 182.3 97.1998 185.3C96.2998 186.7 95.4998 188.1 94.5998 189.5C94.2998 190 93.9998 190.4 93.7998 190.9C93.5998 191.1 93.3998 191.4 93.3998 191.7C93.3998 192 93.5998 192.1 93.7998 192.1C94.6998 192.1 95.6998 191.7 96.5998 191.4L100.8 190.4C103.6 189.7 106.3 189.1 109.1 188.5L108.9 187.8C108.6 187.8 108.5 188 108.2 188.2C107.8 188.4 107.4 188.5 107 188.6L104.9 189.1C103.4 189.4 102 189.8 100.5 190.1C97.8998 190.7 95.2998 191.4 92.6998 191.9L93.1998 192.4C93.2998 191.9 93.7998 191.4 93.9998 191.1C94.3998 190.5 94.6998 189.9 95.0998 189.3C95.8998 188 96.6998 186.7 97.4998 185.4C99.0998 182.7 100.8 180.1 102.5 177.4C102.8 177 102.1 176.6 101.8 177H101.6Z" fill="#231F20"/>
<path d="M70.5995 33.1002C67.2995 42.9002 65.0996 53.2002 63.2996 63.4002C59.4996 85.2002 58.1995 107.8 61.5995 129.8C62.4995 135.4 63.2995 141 63.6995 146.7C63.8995 149.3 64.0996 152 64.2996 154.6C64.7996 161.4 65.2996 168.2 65.7996 175C66.9996 191.2 67.9996 207.5 68.8996 223.8C69.2996 231.1 69.5996 238.4 69.7996 245.7C69.8996 250.9 70.0996 256.1 69.7996 261.2C69.7996 262 69.7995 262.9 69.5995 263.7C69.5995 263.5 70.4995 263.4 70.5995 263.1C70.9995 258.6 70.8996 253.9 70.7996 249.4C70.6996 242.6 70.3995 235.8 70.0995 229C69.2995 212.7 68.2995 196.5 67.1995 180.2C66.6995 172.9 66.1995 165.7 65.5995 158.4C65.0995 151.8 64.7996 145.2 63.8996 138.7C63.0996 132.5 61.9996 126.4 61.2996 120.2C60.6996 114.3 60.4995 108.3 60.4995 102.3C60.4995 91.5002 61.3995 80.7002 62.9995 70.0002C64.7995 57.6002 67.3996 45.1002 71.2996 33.2002C71.2996 33.0002 71.3995 32.8002 71.4995 32.7002C71.4995 33.0002 70.5995 33.0002 70.4995 33.3002L70.5995 33.1002Z" fill="#231F20"/>
<path d="M70.2 32.9996C65.5 46.7996 62.8001 61.3996 61.0001 75.8996C59.1001 90.7996 58.6001 105.9 60.1001 120.8C60.9001 128.4 62.3001 135.8 63.1001 143.4C63.9001 151 64.3001 158.5 64.9001 166.1C66.0001 181.5 67.1001 196.9 68.0001 212.4C68.5001 221 68.9001 229.6 69.3001 238.3C69.7001 247 70.1001 255.4 69.4001 263.8C69.4001 264.1 69.8001 264.3 70.0001 264.1C70.2001 263.8 70.7001 263.9 70.9001 263.6C71.2001 263.2 71.1001 262.4 71.1001 261.8C71.2001 259.8 71.3001 257.9 71.3001 255.9C71.3001 252.1 71.3001 248.3 71.1001 244.5C70.9001 236.7 70.5001 228.9 70.1001 221.1C69.3001 205.5 68.3 189.9 67.2 174.3C66.7 166.7 66.1001 159.1 65.6001 151.5C65.1001 143.9 64.1001 136.4 63.0001 128.8C60.7001 113.3 60.6001 97.6996 62.1001 82.0996C63.7001 65.3996 66.7001 48.5996 72.0001 32.5996C72.1001 32.1996 71.6001 31.9996 71.4001 32.1996C71.2001 32.3996 70.7001 32.4996 70.4001 32.7996C70.1001 33.1996 70.6001 33.6996 70.9001 33.2996C71.1001 32.9996 71.6001 32.9996 71.9001 32.6996L71.3001 32.2996C66.6001 46.2996 63.8001 60.9996 62.0001 75.5996C60.2001 90.1996 59.6001 106.2 61.3001 121.4C62.1001 128.9 63.6001 136.4 64.3001 143.9C65.0001 151.4 65.5001 159.4 66.0001 167.1C67.1001 182.5 68.2001 197.9 69.0001 213.3C69.5001 221.9 69.9 230.6 70.2 239.2C70.4 243.5 70.5001 247.8 70.5001 252.1C70.5001 254.2 70.5001 256.3 70.5001 258.5C70.5001 259.6 70.5001 260.8 70.3001 261.9C70.2001 262.5 70.3001 262.5 69.8001 262.9C69.7001 263 69.5001 263 69.4001 263.2L70.0001 263.5C70.6001 256 70.2001 248.4 70.0001 241C69.7001 233.4 69.4001 225.7 68.9001 218.1C68.1001 202.7 67.0001 187.2 65.9001 171.8C65.4001 164.2 64.8 156.6 64.2 149C63.6 141.4 62.5001 134.5 61.5001 127.2C59.4001 112.2 59.4001 96.9996 60.9001 81.8996C61.7001 73.4996 63.1 65.0996 64.7 56.7996C66.3 48.4996 68.2001 40.7996 70.8001 32.9996C71.0001 32.4996 70.2001 32.2996 70.1001 32.7996L70.2 32.9996Z" fill="#231F20"/>
<path d="M39.5 53.1C41.9 56.8 44.2 60.5 46.6 64.1L57.8 81.6C58.7 82.9 59.5 84.3 60.4 85.6L61.4 85C59 81.3 56.7 77.6 54.3 74L43.1 56.5C42.2 55.2 41.4 53.8 40.5 52.5L39.5 53.1Z" fill="#231F20"/>
<path d="M39.2004 53.3005C46.1004 64.2004 53.1004 75.0005 60.1004 85.9005C60.2004 86.1005 60.4004 86.1005 60.6004 86.0005C60.9004 85.9005 61.2004 85.6005 61.6004 85.4005C61.8004 85.4005 61.8004 85.0005 61.7004 84.9005C54.8004 74.0005 47.8005 63.2004 40.8005 52.3005C40.7005 52.1005 40.5005 52.1005 40.3005 52.2005C40.0005 52.3005 39.7005 52.6005 39.3005 52.8005C38.9005 53.0005 39.3004 53.7005 39.7004 53.4005C40.0004 53.2005 40.3004 53.0005 40.7004 52.8005H40.2004C47.1004 63.5004 54.1004 74.4004 61.1004 85.2004V84.7004C60.9004 84.9004 60.6005 85.1005 60.3005 85.3005H60.8005C53.9005 74.6005 46.9005 63.7005 39.9005 52.9005C39.6005 52.5005 39.0004 52.9005 39.2004 53.3005Z" fill="#231F20"/>
<path d="M90.5004 94.0002C87.6004 96.5002 84.9004 99.4002 82.4004 102.3C76.8004 108.8 71.8004 115.8 68.1004 123.5C65.7004 128.4 63.9004 133.6 62.9004 138.9C62.9004 138.7 63.8004 138.6 63.9004 138.3C65.6004 128.9 69.8004 120.2 75.1004 112.3C79.0004 106.5 83.5004 101 88.5004 96.0002C89.4004 95.1002 90.4004 94.1002 91.4004 93.2002C91.1004 93.4002 90.7004 93.5002 90.4004 93.8002L90.5004 94.0002Z" fill="#231F20"/>
<path d="M90.1996 93.6996C83.4996 99.5996 77.6996 106.8 72.8996 114.3C68.0996 121.8 64.1996 130.1 62.5996 138.9C62.5996 139.2 62.9996 139.6 63.1996 139.3C63.4996 138.9 63.9996 139 64.2996 138.6C64.4996 138.2 64.4996 137.3 64.5996 136.9C64.6996 136.3 64.8996 135.8 64.9996 135.2C65.5996 132.9 66.2996 130.7 67.0996 128.5C68.7996 124.1 70.8996 119.9 73.3996 115.8C78.3996 107.7 84.5996 99.9996 91.6996 93.6996C91.9996 93.3996 91.6996 92.8996 91.2996 93.0996C90.9996 93.2996 90.5996 93.4996 90.2996 93.6996C89.8996 93.9996 90.2996 94.5996 90.6996 94.2996C90.9996 94.0996 91.3996 93.8996 91.6996 93.6996L91.2996 93.0996C84.2996 99.2996 78.1996 106.9 73.2996 114.8C70.8996 118.7 68.6996 122.7 66.9996 127C66.0996 129.2 65.3996 131.4 64.7996 133.6C64.4996 134.7 64.1996 135.9 63.9996 137C63.8996 137.7 63.7996 138 63.2996 138.4C63.0996 138.5 62.9996 138.5 62.8996 138.7L63.4996 139.1C65.0996 130.3 68.8996 122.1 73.6996 114.7C78.4996 107.3 84.2996 100.1 90.8996 94.2996C91.2996 93.9996 90.6996 93.3996 90.3996 93.7996L90.1996 93.6996Z" fill="#231F20"/>
<path d="M35.0004 151C38.4004 153.4 41.7004 156.2 44.8004 159C51.2004 164.8 57.1004 171.3 61.6004 178.7C64.1004 182.9 66.1004 187.5 66.9004 192.4C66.9004 192.3 67.9004 192 67.9004 191.8C66.4004 183 61.2004 175.1 55.5004 168.4C50.7004 162.7 45.3004 157.6 39.4004 153C38.2004 152.1 37.1004 151.2 35.9004 150.3C35.8004 150.3 35.1004 150.9 34.9004 150.9L35.0004 151Z" fill="#231F20"/>
<path d="M34.8 151.3C42 156.4 48.7 162.6 54.4 169.3C60 176 65.1 183.7 66.6 192.4C66.6 192.7 67.1 192.8 67.2 192.6C67.4 192.3 68 192.4 68.2 192C68.5 191.6 68.2 190.8 68 190.4C67.6 188.4 67 186.4 66.2 184.5C64.7 180.8 62.8 177.4 60.5 174.2C55.8 167.4 50 161.4 43.7 156.1C41.9 154.6 40.1 153.1 38.3 151.6C37.8 151.2 36.7 150 36 149.9C35.5 149.9 35.3 150.4 35 150.4C34.5 150.4 34.5 151.2 35 151.2C35.3 151.2 35.5 150.9 35.8 150.8C36.3 150.6 37.7 152 38.2 152.4C39.7 153.6 41.1 154.7 42.6 155.9C45.6 158.4 48.5 161.1 51.2 164C56.3 169.4 61.1 175.3 64.4 182C65.3 183.9 66.1 186 66.7 188C67 188.9 67.4 190.1 67.4 191.1C67.4 192.1 67.5 191.4 67.1 191.6C66.9 191.6 66.7999 191.7 66.7 191.9L67.3 192.1C65.8 183.4 60.8 175.6 55.2 169C49.4 162.1 42.6 155.7 35.2 150.5C34.8 150.2 34.4 150.9 34.8 151.2V151.3Z" fill="#231F20"/>
<path d="M92.7 192.3C90 194 87.5 196.3 85.3 198.7C79.8 204.5 75.6 211.5 73 219C70.9 224.9 69.8 231.1 69.5 237.3C69.5 237.1 70.4 237 70.5 236.7C71 226.6 73.7 216.6 79 207.8C82.2 202.5 86.2 197.6 91 193.7C91.9 193 92.8 192.3 93.7 191.7C93.5 191.8 93 192.1 92.8 192.2L92.7 192.3Z" fill="#231F20"/>
<path d="M92.4996 192C88.7996 194.4 85.5996 197.6 82.7996 201C80.0996 204.2 77.7996 207.7 75.8996 211.4C71.6996 219.4 69.5996 228.3 69.0996 237.3C69.0996 237.6 69.4996 237.8 69.6996 237.6C69.9996 237.2 70.4996 237.4 70.7996 236.9C70.9996 236.5 70.7996 235.9 70.7996 235.5C70.7996 234.9 70.7996 234.3 70.9996 233.7C71.1996 231.4 71.5996 229.1 71.9996 226.8C72.8996 222.2 74.3996 217.6 76.3996 213.3C78.3996 209 80.7996 205.1 83.6996 201.6C86.5996 198.1 89.8996 194.6 93.7996 192.1C94.1996 191.8 93.7996 191.2 93.3996 191.4C93.0996 191.6 92.7996 191.7 92.4996 191.9C92.0996 192.1 92.4996 192.8 92.8996 192.6C93.1996 192.4 93.4996 192.3 93.7996 192.1L93.3996 191.4C87.5996 195.1 82.8996 200.8 79.1996 206.5C75.2996 212.7 72.5996 219.6 71.1996 226.7C70.7996 228.6 70.4996 230.5 70.2996 232.5C70.1996 233.5 70.0996 234.5 69.9996 235.6C69.9996 236.2 69.9996 236.4 69.4996 236.7C69.3996 236.8 69.1996 236.8 69.0996 237L69.6996 237.3C70.1996 228.4 72.2996 219.7 76.3996 211.8C78.2996 208.2 80.5996 204.7 83.1996 201.6C85.9996 198.3 89.0996 195.1 92.7996 192.7C93.1996 192.4 92.7996 191.8 92.3996 192H92.4996Z" fill="#231F20"/>
<path d="M68.8998 206.4C67.0998 205.8 65.3998 205 63.7998 204.1C60.6998 202.4 57.6998 200.3 55.6998 197.3C54.4998 195.5 53.7998 193.5 53.7998 191.4L52.7998 192C54.1998 192.3 55.5998 192.9 56.8998 193.5C59.8998 195 62.5998 197.3 64.5998 200C66.0998 202.1 67.2998 204.5 67.9998 207C67.9998 207 68.9998 206.5 68.9998 206.4C66.9998 199.7 61.9998 194.1 55.2998 191.8C54.7998 191.6 54.3998 191.5 53.8998 191.4C53.8998 191.4 52.8998 191.9 52.8998 192C52.9998 199.1 60.2998 203.7 66.0998 206.2C66.6998 206.5 67.2998 206.7 67.9998 207C68.1998 207 68.6998 206.4 68.9998 206.4H68.8998Z" fill="#231F20"/>
<path d="M68.9999 206C65.4999 204.8 62.0999 203 59.2999 200.6C56.4999 198.2 54.2998 195.1 54.0998 191.4C54.0998 191.1 53.7999 190.9 53.4999 191.1L52.4999 191.7C52.1999 191.9 52.2999 192.3 52.4999 192.4C55.9999 193.2 59.3999 195.3 61.8999 197.8C64.3999 200.3 66.2999 203.6 67.3999 207.1C67.3999 207.4 67.8998 207.5 68.0998 207.1C68.0998 207.2 68.4998 206.9 68.6998 206.9C68.8998 206.9 68.9998 206.7 69.0998 206.6C69.2998 206.3 69.0999 205.9 68.8999 205.6C68.6999 205.1 68.4999 204.6 68.2999 204.1C67.5999 202.4 66.6998 200.8 65.5998 199.3C63.4998 196.4 60.6999 193.9 57.3999 192.4C56.5999 192 55.6999 191.7 54.7999 191.4C53.9999 191.1 53.5999 190.9 52.7999 191.4C52.1999 191.8 52.0998 191.9 52.1998 192.7C52.1998 193.5 52.3998 194.3 52.6998 195.1C53.6998 198.3 56.1999 200.8 58.7999 202.8C60.3999 204 62.0999 205 63.8999 205.8C64.7999 206.3 65.7998 206.7 66.6998 207C67.0998 207.2 67.4999 207.4 67.8999 207.3C68.0999 207.3 68.3998 206.8 68.5998 206.8C69.0998 206.8 69.0998 206 68.5998 206C68.3998 206 68.2998 206 68.0998 206.2C67.9998 206.2 67.8999 206.4 67.7999 206.5C67.4999 206.7 67.7999 206.5 67.4999 206.5C66.9999 206.5 66.3999 206.1 65.9999 205.9C65.5999 205.7 65.1999 205.6 64.8999 205.4C63.4999 204.8 62.1999 204.1 60.8999 203.2C58.2999 201.6 55.8999 199.5 54.2999 196.9C53.8999 196.2 53.5999 195.6 53.3999 194.9C53.2999 194.6 53.1998 194.2 53.0998 193.9C53.0998 193.4 53.0999 192.9 52.8999 192.5C52.8999 192.2 52.7998 192.3 53.0998 192.1C53.3998 191.9 53.4999 191.9 53.8999 192.1C54.7999 192.4 55.7998 192.7 56.6998 193.1C59.5998 194.4 62.1998 196.5 64.1998 199C65.3998 200.4 66.2998 202 67.0998 203.7C67.4998 204.5 67.9998 205.5 68.1998 206.5C68.0998 206.6 67.7998 206.7 67.6998 206.7C67.4998 206.7 67.3999 206.9 67.2999 207H67.9999C66.8999 203.5 64.9999 200.1 62.2999 197.4C59.5999 194.7 56.1998 192.6 52.5998 191.8V192.5L53.6998 191.9L53.0998 191.6C53.1998 195.5 55.3999 198.7 58.2999 201.2C61.1999 203.7 64.8999 205.7 68.4999 207C68.9999 207.2 69.1998 206.4 68.6998 206.3L68.9999 206Z" fill="#231F20"/>
<path d="M80.7997 204.9C79.8997 203.5 78.9997 202 78.2997 200.5C76.8997 197.6 75.6996 194.5 75.3996 191.2C75.2996 189.4 75.3996 187.6 76.1996 186L75.1996 186.6C76.0996 187.3 76.8996 188.2 77.5996 189.2C79.2996 191.4 80.3996 194.1 80.8996 196.9C81.1996 198.8 81.2996 200.8 81.0996 202.7C81.0996 202.8 80.8996 203.7 80.9996 203.7C80.9996 203.7 80.9996 203.7 81.0996 203.7C81.2996 203.7 81.5996 203.7 81.6996 203.7C83.6996 203.5 85.7996 203.5 87.6996 204C90.9996 204.8 93.5996 207 94.8996 210.2L95.8996 209.6C94.2996 210 92.5996 210 90.8996 209.8C86.9996 209.4 83.3996 207.6 80.5996 204.8C80.5996 204.8 79.6996 205.4 79.5996 205.4C82.3996 208.1 85.9996 209.9 89.8996 210.4C91.4996 210.6 93.2996 210.6 94.8996 210.2C94.8996 210.2 95.8996 209.7 95.8996 209.6C94.6996 206.7 92.4996 204.6 89.5996 203.6C87.4996 202.9 85.2996 202.7 83.1996 202.9C82.9996 202.9 82.0996 203.2 81.8996 203.1C81.8996 203.1 81.8996 202.3 81.9996 202.2C81.9996 201.6 82.0996 201 82.0996 200.4C82.0996 199.5 82.0996 198.5 82.0996 197.6C81.7996 194.6 80.7996 191.7 79.0996 189.2C78.2996 188 77.2996 186.8 76.1996 186C76.1996 186 75.2996 186.5 75.1996 186.6C73.7996 189.6 74.2996 193 75.1996 196C75.9996 198.8 77.2997 201.4 78.7997 203.9C79.0997 204.4 79.3997 204.9 79.7997 205.4C79.7997 205.4 80.6997 204.8 80.7997 204.8V204.9Z" fill="#231F20"/>
<path d="M81.1001 204.8C79.3001 202.1 77.8003 199.1 76.8003 196C75.8003 192.9 75.2001 189.4 76.6001 186.3C76.8001 186 76.4001 185.6 76.1001 185.8L75.1001 186.4C74.9001 186.5 74.8001 186.8 75.1001 187C77.6001 189 79.4003 192.1 80.3003 195.1C80.8003 196.7 81.0002 198.4 81.0002 200.1C81.0002 201 81.0003 201.9 80.9003 202.8C80.9003 203.1 80.7003 203.5 80.8003 203.8C80.8003 204.1 81.0003 204.2 81.3003 204.2C86.8003 203.2 92.6003 205.1 94.9003 210.5C94.9003 210.7 95.2003 210.7 95.4003 210.6L96.4003 210C96.8003 209.8 96.5001 209.2 96.1001 209.3C92.7001 210.1 88.8001 209.4 85.7001 207.8C84.2001 207.1 82.9001 206.1 81.6001 205C81.3001 204.8 81.2003 204.5 80.8003 204.5C80.4003 204.5 80.2003 205 79.9003 205C79.6003 205 79.5001 205.4 79.7001 205.6C82.1001 207.9 85.0001 209.6 88.2001 210.4C90.6001 211 94.2003 211.5 96.3003 209.9C96.5003 209.8 96.5003 209.6 96.4003 209.4C95.3003 206.8 93.3003 204.7 90.8003 203.6C89.4003 203 87.9003 202.7 86.4003 202.6C85.5003 202.6 84.7003 202.6 83.8003 202.6C83.4003 202.6 82.6001 202.9 82.2001 202.8L82.5002 203.2C82.5002 202.5 82.7001 201.7 82.7001 201C82.7001 199.9 82.7001 198.8 82.7001 197.7C82.5001 195.9 82.1003 194.1 81.4003 192.4C80.7003 190.7 79.8001 189.1 78.6001 187.7C78.0001 187 76.9003 185.3 75.9003 185.8C74.7003 186.4 74.4003 187.9 74.3003 189.1C74.1003 190.8 74.3001 192.6 74.6001 194.3C75.5001 198.3 77.4001 202.1 79.6001 205.5C79.6001 205.6 79.9002 205.7 80.0002 205.7C80.4002 205.6 80.7001 205.3 81.1001 205.1C81.5001 204.9 81.1001 204.2 80.7001 204.4C80.4001 204.6 80.1003 204.8 79.8003 204.9L80.2001 205.1C78.3001 202.2 76.7001 199.1 75.7001 195.8C75.2001 194.2 74.9003 192.6 74.8003 191C74.8003 190.2 74.8001 186.6 76.1001 186.5C77.0001 186.5 78.4003 188.7 78.9003 189.4C79.9003 190.9 80.6001 192.4 81.2001 194.1C81.8001 195.8 82.0002 197.4 82.0002 199C82.0002 199.9 82.0002 200.8 82.0002 201.7C82.0002 202.1 81.8003 202.6 81.8003 203C81.8003 203.2 81.8001 203.3 82.1001 203.4C82.9001 203.6 84.0003 203.2 84.8003 203.2C86.6003 203.2 88.3002 203.4 90.0002 204C92.8002 205 94.8003 207.1 95.9003 209.7V209.2C94.0003 210.7 90.4001 210.1 88.1001 209.5C85.1001 208.7 82.5003 207.1 80.3003 205L80.1001 205.6C80.3001 205.6 80.3002 205.5 80.5002 205.4C80.8002 205.3 80.8002 205.2 81.0002 205.2C81.5002 205.2 82.2001 206.2 82.6001 206.5C83.9001 207.5 85.2001 208.2 86.7001 208.8C89.7001 210 93.2003 210.5 96.4003 209.7L96.1001 209L95.1001 209.6H95.6001C93.2001 204.1 86.9001 202 81.2001 203.1L81.7001 203.5C81.7001 203.1 81.8003 202.5 81.9003 202C81.9003 201.1 82.0003 200.2 81.9003 199.3C81.9003 197.6 81.6002 195.8 81.0002 194.2C80.0002 191.2 78.3001 188.1 75.7001 186.1V186.7L76.6001 186.1L76.1001 185.6C74.8001 188.6 75.1002 191.9 76.0002 195C77.0002 198.5 78.7001 201.8 80.7001 204.8C81.0001 205.2 81.6003 204.8 81.4003 204.4L81.1001 204.8Z" fill="#231F20"/>
<path d="M65.4996 157.2C67.2996 156.1 68.8996 154.8 70.3996 153.3C73.2996 150.5 75.8996 147.1 76.7996 143.1C76.8996 142.6 76.9996 142.1 77.0996 141.6C77.0996 141.4 77.2996 139.9 77.0996 139.8C77.0996 139.8 76.8996 139.8 76.7996 139.8C76.1996 139.8 75.4996 140.2 74.9996 140.5C72.7996 141.5 70.6996 142.9 69.0996 144.7C65.9996 148.2 64.6996 153 64.5996 157.6C64.5996 157.4 65.5996 157.3 65.5996 157C65.7996 152.9 66.6996 148.8 68.9996 145.5C69.7996 144.3 70.7996 143.3 71.8996 142.4C72.3996 142 72.8996 141.7 73.3996 141.3C73.4996 141.3 72.7996 141.6 73.2996 141.3C73.3996 141.3 73.4996 141.2 73.5996 141.1C73.7996 141 73.9996 140.9 74.2996 140.8C74.7996 140.6 75.3996 140.3 75.8996 140.2H76.0996C76.1996 140.2 76.0996 141.4 76.0996 141.6C76.0996 142.1 75.9996 142.6 75.8996 143.1C75.0996 146.9 72.7996 150.3 70.0996 153C68.3996 154.7 66.5996 156.2 64.5996 157.5C64.7996 157.4 65.1996 157.1 65.4996 157V157.2Z" fill="#231F20"/>
<path d="M65.6998 157.5C69.1998 155.3 72.3998 152.3 74.6998 148.9C75.7998 147.3 76.5998 145.5 77.0998 143.6C77.2998 142.8 77.3998 142 77.4998 141.2C77.4998 140.8 77.6998 140.1 77.4998 139.7C77.3998 139.5 77.2998 139.5 77.0998 139.5C75.2998 139.8 73.3998 140.9 71.8998 142C70.2998 143.1 68.7998 144.5 67.6998 146.1C65.3998 149.5 64.4998 153.6 64.2998 157.7C64.2998 158.1 64.7998 158.2 64.9998 157.9C64.9998 157.7 65.6998 157.7 65.8998 157.4C66.1998 157 66.0998 155.9 66.0998 155.4C66.2998 153.6 66.5998 151.7 67.1998 150C67.7998 148.3 68.6998 146.5 69.8998 145.1C70.4998 144.4 71.0998 143.7 71.7998 143.1C72.3998 142.6 73.1998 142.2 73.7998 141.6C74.0998 141.3 73.7998 140.8 73.3998 141C73.3998 141 73.1998 141 73.0998 141.2C72.7998 141.4 72.9998 142.1 73.3998 141.9C74.3998 141.5 75.2998 140.9 76.3998 140.7L75.9998 140.5C76.1998 140.8 75.9998 141.7 75.8998 142C75.8998 142.9 75.5998 143.8 75.2998 144.7C74.6998 146.4 73.8998 148 72.7998 149.5C70.5998 152.6 67.6998 155.3 64.4998 157.3C64.0998 157.5 64.4998 158.2 64.8998 158C65.1998 157.8 65.4998 157.7 65.7998 157.5C66.1998 157.3 65.7998 156.6 65.3998 156.8C65.0998 157 64.7998 157.1 64.4998 157.3L64.8998 158C68.2998 155.8 71.4998 152.9 73.7998 149.5C74.8998 147.9 75.6998 146.2 76.1998 144.3C76.3998 143.5 76.4998 142.6 76.5998 141.7C76.5998 141.2 76.7998 140.6 76.5998 140.2C76.5998 140 76.3998 140 76.1998 140C75.0998 140.2 74.1998 140.8 73.1998 141.2L73.4998 141.9C73.4998 141.9 73.6998 141.8 73.7998 141.7L73.3998 141.1C72.7998 141.6 71.9998 142 71.3998 142.6C70.6998 143.2 70.0998 143.9 69.4998 144.6C68.3998 146 67.5998 147.5 66.8998 149.1C66.1998 150.7 65.7998 152.5 65.5998 154.3C65.5998 154.7 65.5998 155.1 65.4998 155.6C65.4998 155.9 65.4998 156.6 65.4998 156.9C65.4998 157.2 64.6998 157.2 64.5998 157.5L65.2998 157.7C65.4998 153.9 66.2998 150 68.4998 146.7C69.5998 145 70.9998 143.6 72.6998 142.5C74.0998 141.5 75.8998 140.4 77.5998 140.2L77.1998 140C77.3998 140.2 77.1998 141.1 77.1998 141.4C77.0998 142.3 76.8998 143.1 76.6998 144C76.1998 145.8 75.2998 147.4 74.1998 148.9C71.9998 152 68.9998 154.8 65.7998 156.8C65.3998 157 65.7998 157.7 66.1998 157.5H65.6998Z" fill="#231F20"/>
<path d="M52.5998 165.1C53.1998 163.7 53.4999 162.3 53.7999 160.8C54.3999 157.5 54.4999 154.1 53.8999 150.8C53.4999 148.5 52.6998 146.4 51.4998 144.4C51.4998 144.4 50.5998 144.9 50.4998 145C49.7998 145.8 49.3998 146.7 48.9998 147.6C47.8998 150.1 47.4998 152.9 47.5998 155.6C47.5998 158 48.0998 160.3 48.6998 162.6L49.6998 162C48.1998 161.4 46.4999 161.1 44.8999 161C43.3999 160.9 41.8999 161 40.3999 161.3C38.8999 161.6 37.6998 162.3 36.4998 163C35.7998 163.4 35.1998 163.9 34.5998 164.4C34.3998 164.6 33.9998 164.8 34.0998 165.1C34.0998 165.4 34.6999 165.7 34.8999 165.9C36.2999 167.1 38.0999 167.7 39.7999 168C43.8999 168.6 47.9998 167.3 51.6998 165.6C51.9998 165.4 52.2998 165.2 52.6998 165C47.8998 167.2 41.4998 169 36.6998 165.9C36.3998 165.7 34.8998 164.8 35.0998 164.3C35.0998 164 35.7998 163.6 35.9998 163.4C36.1998 163.3 36.2998 163.2 36.4998 163C36.4998 163 36.6999 162.9 36.7999 162.8C36.7999 162.8 37.1998 162.5 36.9998 162.6C36.7998 162.7 37.2998 162.5 37.1998 162.5C37.2998 162.5 37.3998 162.5 37.4998 162.3C37.6998 162.3 37.7998 162.2 37.9998 162.1C38.3998 162 38.7998 161.8 39.1998 161.7C40.5998 161.3 41.9998 161.2 43.4998 161.3C45.2998 161.3 47.0999 161.7 48.7999 162.4C48.7999 162.4 49.7999 161.9 49.7999 161.8C48.3999 156.4 47.9998 149.9 51.0998 145C51.2998 144.7 51.4998 144.4 51.6998 144.2L50.6998 144.8C53.9998 150.6 54.1999 157.7 52.2999 164C52.0999 164.5 51.9999 165 51.7999 165.5C51.8999 165.2 52.5999 165.2 52.7999 164.9L52.5998 165.1Z" fill="#231F20"/>
<path d="M52.9997 165.2C55.5997 158.5 55.3997 150.5 51.8997 144.2C51.8997 144 51.5997 144 51.3997 144.1C50.3997 144.7 49.7998 145.3 49.2998 146.4C48.4998 148 47.9997 149.7 47.6997 151.4C47.0997 155.2 47.4997 159 48.4997 162.7C48.4997 162.9 48.7997 163 49.0997 162.9L50.0997 162.3C50.3997 162.1 50.2997 161.7 50.0997 161.6C46.7997 160.4 42.7997 160 39.3997 161.2C37.8997 161.7 36.3997 162.6 35.1997 163.6C34.4997 164.2 33.4998 164.8 34.2998 165.7C36.4998 168 39.9997 168.7 42.9997 168.5C46.4997 168.3 49.9997 167.1 53.0997 165.4C53.4997 165.2 53.0997 164.6 52.6997 164.7C49.3997 166.2 45.7997 167.4 42.0997 167.2C40.2997 167.2 38.4997 166.6 36.8997 165.6C36.3997 165.3 35.3998 164.9 35.7998 164.2C36.0998 163.7 36.8998 163.4 37.2998 163.1C37.6998 162.8 37.2997 162.2 36.8997 162.4C36.8997 162.4 36.8998 162.4 36.7998 162.4C36.3998 162.7 36.7997 163.3 37.1997 163.1C39.4997 162 41.9997 161.7 44.5997 161.9C45.2997 161.9 46.0998 162.1 46.7998 162.3C47.3998 162.4 48.1998 162.9 48.7998 162.9C49.2998 162.9 49.6997 162.6 49.9997 162.3C50.0997 162.3 50.1997 162.1 50.1997 161.9C48.7997 156.4 48.1997 149.3 51.9997 144.6C52.1997 144.3 51.9997 143.8 51.5997 144L50.5997 144.6C50.3997 144.6 50.3997 144.9 50.4997 145.1C53.8997 151.2 53.9997 159 51.5997 165.5C51.4997 165.8 51.9997 166.1 52.1997 165.9C52.3997 165.7 52.8997 165.6 53.1997 165.3C53.4997 164.9 52.9997 164.4 52.6997 164.8C52.4997 165.1 51.9997 165.1 51.6997 165.4L52.2998 165.8C54.8998 159.1 54.6997 151.1 51.1997 144.8V145.3C51.0997 145.3 51.9997 144.7 51.9997 144.7L51.5997 144.1C47.5997 149.1 48.0997 156.4 49.5997 162.1L49.7998 161.7C49.5998 161.8 49.2997 162.1 49.0997 162.2C48.5997 162.2 47.6997 161.8 47.1997 161.7C45.9997 161.4 44.5997 161.2 43.3997 161.2C41.1997 161.2 39.0997 161.6 37.0997 162.5L37.4997 163.2C37.4997 163.2 37.4997 163.2 37.5997 163.2L37.1997 162.5C36.3997 163 34.4998 164 35.2998 165.1C36.1998 166.4 38.4997 167.3 39.9997 167.7C44.4997 168.9 49.2998 167.3 53.2998 165.5L52.8997 164.8C47.9997 167.5 40.7998 169.6 35.7998 165.9C35.3998 165.6 34.7997 165.4 35.0997 164.9C35.3997 164.3 36.2997 163.9 36.8997 163.5C38.0997 162.8 39.3997 162.1 40.6997 161.7C43.6997 160.9 47.0997 161.3 49.9997 162.4V161.7L48.8997 162.3L49.4997 162.5C48.5997 159.1 48.1997 155.7 48.5997 152.2C48.7997 150.5 49.2997 148.8 49.9997 147.3C50.2997 146.6 50.6997 145.8 51.1997 145.3C51.3997 145.1 51.7997 145 52.0997 144.8H51.5997C54.9997 150.8 55.1997 158.6 52.6997 165.1C52.4997 165.6 53.2997 165.8 53.3997 165.3L52.9997 165.2Z" fill="#231F20"/>
<path d="M60.6 106.6C55.8 106 51 103.2 48.5 99.0996C47.2 96.9996 46.7 94.5996 46.5 92.0996L45.5 92.6996C47 93.0996 48.4 93.6996 49.8 94.4996C52.7 95.9996 55.4 98.1996 57.2 100.9C58.4 102.8 59.2 105 59.6 107.2C59.6 107.1 60.6 106.8 60.6 106.6C59.6 99.7996 54.3 94.9996 48.1 92.5996C47.6 92.3996 47.1 92.1996 46.5 92.0996C46.5 92.0996 45.5 92.5996 45.5 92.6996C45.7 96.7996 47.3 100.6 50.5 103.3C52.6 105.1 55.2 106.3 57.9 106.9C58.5 107 59 107.2 59.6 107.2C59.9 107.2 60.3 106.6 60.6 106.6Z" fill="#231F20"/>
<path d="M60.6005 106.2C57.2005 105.8 53.9005 104.3 51.4005 101.9C48.6005 99.2997 47.2005 95.7996 47.0005 91.9996C47.0005 91.6996 46.7005 91.4996 46.4005 91.6996L45.4005 92.2997C45.1005 92.4997 45.2005 92.8996 45.4005 92.9996C48.7005 93.8996 52.0005 95.7996 54.5005 98.1996C57.0005 100.6 58.7005 103.8 59.2005 107.3C59.2005 107.6 59.8005 107.7 59.9005 107.3C59.9005 107.4 59.9005 107.3 60.1005 107.3C60.2005 107.3 60.4005 107.2 60.5005 107.1C60.7005 107.1 60.8005 106.9 60.9005 106.8C61.0005 106.6 60.9005 106.3 60.9005 106.1C60.9005 105.6 60.7005 105.1 60.6005 104.6C60.2005 103.1 59.5005 101.6 58.6005 100.3C56.8005 97.5997 54.3005 95.3997 51.4005 93.7997C50.7005 93.3997 50.0006 93.0997 49.3006 92.7997C48.9006 92.5997 48.6005 92.4997 48.2005 92.3997C47.7005 92.1997 47.1005 91.8997 46.6005 91.8997C46.2005 91.8997 45.8005 92.0997 45.5005 92.3997C44.9005 92.7997 45.2006 93.4996 45.3006 94.0996C45.7006 97.4996 47.2006 100.8 49.8006 103.2C51.4006 104.6 53.2005 105.7 55.2005 106.5C56.3005 106.9 57.4005 107.3 58.5005 107.5C58.9005 107.5 59.5005 107.8 59.9005 107.7C60.2005 107.7 60.4005 107.2 60.7005 107.2C61.2005 107.2 61.0005 106.4 60.5005 106.5C60.3005 106.5 60.2005 106.6 60.0005 106.8C59.6005 107.1 59.4005 107.1 58.9005 107C58.0005 106.8 57.2006 106.6 56.3006 106.3C54.6006 105.7 53.0005 104.9 51.6005 103.9C49.0005 102 47.2005 99.2996 46.4005 96.0996C46.2005 95.2996 46.1005 94.4996 46.0005 93.6996C46.0005 93.5996 46.0005 93.3996 46.0005 93.1996C46.0005 93.0996 46.5005 92.7997 46.6005 92.7997C46.8005 92.7997 47.5005 93.0996 47.7005 93.1996C48.0005 93.2996 48.4005 93.4996 48.7005 93.5996C49.4005 93.8996 50.1006 94.1996 50.8006 94.5996C53.3006 95.9996 55.6006 97.7996 57.3006 100.1C58.2006 101.4 59.0005 102.8 59.5005 104.3C59.7005 105 60.1005 106 60.1005 106.7C60.1005 106.9 60.3005 106.7 60.1005 106.8C60.0005 106.8 59.8005 106.9 59.7005 107C59.6005 107.1 59.4006 107.2 59.3006 107.3H60.0005C58.9005 99.9997 52.7005 94.4996 45.7005 92.5996V93.2997L46.8006 92.6996L46.2005 92.3997C46.4005 96.3997 47.9005 100.1 50.9005 102.8C53.6005 105.3 57.1005 106.8 60.7005 107.3C61.2005 107.3 61.2005 106.6 60.7005 106.5L60.6005 106.2Z" fill="#231F20"/>
<path d="M73.7003 88.4004C73.2003 91.2004 73.2004 94.1004 73.4004 96.9004C73.6004 99.2004 74.0004 101.6 74.9004 103.8C75.6004 105.5 76.6004 106.9 77.9004 108.3C80.3004 110.9 83.9004 112 87.3004 111.1C88.6004 110.8 89.7004 110.2 90.9004 109.5C91.4004 109.2 91.9004 108.9 92.4004 108.6C92.6004 108.5 93.2003 108.1 93.2003 107.9C93.2003 107.7 92.8003 107.2 92.7003 107.1C92.4003 106.6 92.0004 106.1 91.6004 105.7C90.3004 104.3 88.5004 103.4 86.6004 103.4C83.9004 103.4 81.5004 104.8 79.3004 106.2L80.3004 105.6C81.1004 101.3 80.7004 96.3004 78.6004 92.4004C77.7004 90.6004 76.4003 89.1004 74.7003 87.9004C74.6003 87.9004 73.9003 88.5004 73.7003 88.5004C78.8003 92.1004 80.0004 98.7004 79.5004 104.6C79.5004 105.1 79.4004 105.6 79.3004 106.2C79.3004 106.1 80.1004 105.7 80.3004 105.6C82.2004 104.3 84.7004 103.5 87.0004 104C88.5004 104.3 89.8004 105.2 90.8004 106.2C91.2004 106.6 91.5004 107 91.8004 107.5C91.9004 107.7 92.3004 108.1 92.3004 108.3C92.3004 108.5 92.3004 108.3 92.3004 108.5C92.1004 108.8 91.5004 109.1 91.1004 109.3C90.6004 109.6 90.2003 109.8 89.7003 110C88.6003 110.4 87.4003 110.7 86.2003 110.8C83.4003 110.8 80.8004 109.6 78.8004 107.6C77.5004 106.3 76.6004 104.8 75.9004 103.1C75.1004 101.1 74.7004 98.9004 74.5004 96.7004C74.2004 93.8004 74.3004 90.8004 74.8004 87.9004C74.8004 88.1004 73.9004 88.2004 73.8004 88.5004L73.7003 88.4004Z" fill="#231F20"/>
<path d="M73.3 88.2999C72.1 95.6999 72.5999 106.3 79.9999 110.4C83.1999 112.2 86.8999 111.9 90.0999 110.2C90.9999 109.7 91.7999 109.2 92.5999 108.7C92.9999 108.5 93.3999 108.2 93.4999 107.7C93.5999 107.2 92.7999 106.5 92.4999 106.1C91.9999 105.4 91.3999 104.8 90.6999 104.3C86.8999 101.4 82.5 103.3 78.9 105.6C78.5 105.9 78.9 106.5 79.3 106.3C80.4 105.7 80.4999 105.6 80.5999 104.4C80.7999 103.4 80.8 102.3 80.8 101.3C80.8 99.0999 80.5 96.7999 79.8 94.5999C79.2 92.5999 78.2 90.7999 76.8 89.2999C76.3 88.6999 75.3999 87.4999 74.5999 87.3999C74.0999 87.2999 73.8999 87.8999 73.4999 87.8999C73.0999 87.8999 73 88.3999 73.3 88.5999C78.5 92.4999 79.6999 99.7999 78.6999 105.8C78.6999 106.1 79.1 106.5 79.3 106.2C79.5 106 79.8999 105.9 80.1999 105.7C80.6999 105.4 81.0999 105.1 81.5999 104.9C82.7999 104.3 84.1999 104 85.4999 104.1C86.7999 104.2 88.2 104.7 89.3 105.6C90.2 106.3 91.1999 107.3 91.5999 108.4C91.7999 108.9 92.5 108.7 92.3 108.2C92.3 107.9 91.7999 107.8 91.5999 108.2C90.8999 109.2 89.0999 109.7 87.9999 110C86.5999 110.4 85.0999 110.5 83.6999 110.2C80.8999 109.6 78.6999 107.7 77.1999 105.4C73.8999 100.6 73.9 93.4999 74.8 87.8999C74.8 87.5999 74.3999 87.1999 74.1999 87.4999C73.9999 87.7999 73.3999 87.7999 73.1999 88.0999C72.8999 88.4999 73.6 88.8999 73.9 88.4999C74.1 88.2999 74.6 88.2999 74.8 87.9999L74.1999 87.5999C73.1999 93.8999 73.3999 101.8 77.6999 106.9C79.4999 109.1 82 110.7 84.9 110.9C86.5 111 88.0999 110.7 89.5999 110.1C90.5999 109.7 91.8999 109.2 92.4999 108.3H91.8C92 108.1 92.2999 108.1 92.4999 108C91.6999 105.6 88.8 103.6 86.4 103.2C84.9 103 83.3999 103.2 81.9999 103.8C81.2999 104.1 80.6999 104.5 79.9999 104.9C79.6999 105.1 79.1999 105.2 78.9999 105.5L79.5999 105.9C80.6999 99.4999 79.4 91.8999 73.9 87.7999L73.6999 88.4999C73.9999 88.4999 74.3999 87.9999 74.5999 87.9999C74.8999 87.9999 75.6 88.7999 75.8 88.9999C76.1 89.2999 76.2999 89.4999 76.5999 89.7999C77.8999 91.2999 78.7 92.9999 79.3 94.7999C79.9 96.5999 80.0999 98.3999 80.1999 100.3C80.1999 101.2 80.1999 102.1 80.1999 103C80.1999 103.5 80.1999 103.9 79.9999 104.4C79.7999 105 79.5999 105.1 79.0999 105.5L79.4999 106.2C81.3999 104.9 83.5 103.7 85.8 103.4C87.9 103.2 89.9 104.1 91.4 105.6C91.8 106 92.0999 106.5 92.4999 106.9C92.7999 107.3 92.7999 107.4 92.4999 107.8C91.7999 108.5 90.7 109 89.8 109.4C87.8 110.4 85.6999 110.9 83.4999 110.5C79.1999 109.7 76.1999 106 74.9999 102C73.5999 97.5999 73.6 92.6999 74.3 88.1999C74.3 87.6999 73.5999 87.4999 73.5999 87.9999L73.3 88.2999Z" fill="#231F20"/>
<path d="M47.5998 63.7996C48.5998 62.2996 49.2998 60.3996 49.6998 58.6996C50.6998 54.6996 50.4999 50.4996 48.7999 46.6996C48.7999 46.6996 47.8999 47.1996 47.7999 47.2996C47.1999 47.7996 46.6999 48.5996 46.3999 49.2996C45.2999 51.2996 44.7998 53.6996 44.6998 55.9996C44.6998 58.0996 44.7998 60.1996 45.1998 62.1996L46.1998 61.5996C43.5998 60.1996 40.0999 59.4996 37.3999 60.6996C36.6999 60.9996 35.8999 61.4996 35.2999 61.8996C34.8999 62.1996 34.4998 62.5996 34.0998 62.9996C33.8998 63.1996 33.4998 63.5996 33.5998 63.7996C33.5998 63.8996 33.9998 63.8996 34.1998 63.9996C34.5998 64.0996 34.8999 64.1996 35.2999 64.2996C36.2999 64.5996 37.3999 64.7996 38.3999 64.8996C41.0999 65.2996 44.0998 65.4996 46.6998 64.2996C46.9998 64.1996 47.2998 63.8996 47.6998 63.6996C45.5998 64.6996 43.1999 64.6996 40.8999 64.4996C38.9999 64.2996 37.1999 63.9996 35.2999 63.3996C35.0999 63.3996 34.8998 63.3996 34.6998 63.1996C34.4998 63.0996 34.4998 63.1996 34.6998 62.9996C34.7998 62.5996 35.3999 61.9996 35.7999 61.6996C35.9999 61.4996 36.1998 61.2996 36.4998 61.1996C37.0998 60.7996 36.4999 61.1996 36.3999 61.1996C36.5999 61.1996 36.7998 60.9996 36.9998 60.9996C38.6998 60.2996 40.6999 60.3996 42.3999 60.8996C43.4999 61.1996 44.4998 61.4996 45.4998 62.0996C45.4998 62.0996 46.4998 61.5996 46.4998 61.4996C45.6998 56.8996 45.4998 51.0996 48.5998 47.1996C48.7998 46.9996 48.8998 46.7996 49.1998 46.5996L48.1998 47.1996C49.7998 50.9996 50.0998 55.1996 49.0998 59.1996C48.5998 60.9996 47.9998 62.7996 46.9998 64.2996C47.1998 63.9996 47.7998 63.9996 47.9998 63.6996L47.5998 63.7996Z" fill="#231F20"/>
<path d="M47.8999 63.8996C51.1999 58.7996 51.4998 51.9996 49.1998 46.4996C49.1998 46.2996 48.8999 46.0996 48.5999 46.2996C48.2999 46.4996 47.9998 46.5996 47.6998 46.7996C47.1998 47.0996 46.8999 47.6996 46.4999 48.0996C45.6999 49.2996 45.0999 50.7996 44.7999 52.1996C43.9999 55.3996 44.1999 58.7996 44.7999 62.0996C44.7999 62.2996 45.1999 62.3996 45.3999 62.2996L46.3999 61.6996C46.5999 61.5996 46.5999 61.1996 46.3999 61.0996C44.0999 59.8996 41.4999 59.1996 38.8999 59.6996C37.5999 59.8996 36.3999 60.4996 35.2999 61.2996C34.7999 61.5996 34.3999 61.9996 33.9999 62.4996C33.7999 62.7996 33.2998 63.0996 33.1998 63.4996C32.9998 64.3996 34.5999 64.4996 35.0999 64.5996C36.5999 64.9996 37.9999 65.1996 39.4999 65.3996C40.9999 65.5996 42.3999 65.5996 43.8999 65.3996C45.3999 65.1996 46.4998 64.6996 47.6998 63.9996C48.0998 63.7996 47.6999 63.1996 47.2999 63.3996C45.0999 64.2996 42.6999 64.2996 40.2999 64.0996C39.0999 63.9996 37.9999 63.7996 36.7999 63.4996C35.9999 63.2996 35.0999 62.8996 34.2999 62.7996L34.5999 63.3996C34.9999 62.4996 35.7999 61.8996 36.4999 61.3996L36.0999 60.7996L35.8999 60.8996C35.4999 61.0996 35.5999 61.7996 36.0999 61.5996C37.0999 61.2996 37.9999 60.8996 39.0999 60.8996C40.2999 60.8996 41.4998 61.0996 42.6998 61.3996C43.2998 61.5996 43.8999 61.7996 44.4999 62.0996C44.6999 62.1996 44.9999 62.3996 45.2999 62.3996C45.6999 62.3996 46.0999 61.9996 46.3999 61.7996C46.4999 61.7996 46.4999 61.5996 46.3999 61.3996C45.5999 56.7996 45.1999 50.3996 48.9999 46.8996C49.2999 46.5996 48.9999 46.0996 48.5999 46.2996L47.5999 46.8996C47.4999 46.8996 47.3999 47.1996 47.3999 47.2996C49.5999 52.5996 49.2998 59.1996 46.1998 64.0996C45.9998 64.4996 46.4999 64.7996 46.7999 64.5996C47.0999 64.2996 47.4999 64.2996 47.7999 63.9996C48.0999 63.6996 47.5999 63.0996 47.2999 63.4996C46.9999 63.7996 46.5999 63.7996 46.2999 64.0996L46.8999 64.5996C50.1999 59.4996 50.4998 52.6996 48.1998 47.1996L47.9999 47.5996L48.9999 46.9996L48.5999 46.3996C44.5999 50.0996 44.9999 56.7996 45.7999 61.5996V61.1996C45.7999 61.2996 45.4999 61.4996 45.2999 61.5996C45.0999 61.5996 44.6999 61.3996 44.3999 61.2996C43.3999 60.8996 42.3999 60.5996 41.3999 60.3996C40.4999 60.1996 39.4999 60.1996 38.5999 60.2996C37.6999 60.3996 36.8999 60.6996 36.0999 60.9996L36.2999 61.6996C36.4999 61.6996 36.6999 61.4996 36.8999 61.3996C37.1999 61.0996 36.8999 60.5996 36.4999 60.7996C35.5999 61.3996 34.6999 62.0996 34.2999 63.0996C34.1999 63.3996 34.2999 63.5996 34.5999 63.6996C34.9999 63.6996 35.4999 63.9996 35.8999 64.0996C36.4999 64.1996 37.0998 64.3996 37.6998 64.4996C38.8998 64.6996 39.9998 64.8996 41.1998 64.9996C43.4998 65.1996 45.7999 64.9996 47.8999 64.1996L47.4999 63.5996C46.3999 64.1996 45.3998 64.5996 44.1998 64.7996C42.9998 64.9996 41.8998 64.9996 40.6998 64.8996C39.4998 64.7996 38.2999 64.5996 37.0999 64.3996C36.6999 64.3996 34.1999 63.8996 34.0999 63.5996C34.0999 63.3996 34.7999 62.7996 34.8999 62.6996C35.2999 62.2996 35.7999 61.8996 36.3999 61.5996C37.3999 60.9996 38.4999 60.5996 39.5999 60.3996C41.7999 60.1996 44.0999 60.7996 45.9999 61.7996V61.1996L44.9999 61.7996L45.5999 61.9996C45.0999 58.9996 44.7999 55.7996 45.5999 52.7996C45.8999 51.3996 46.3998 49.9996 47.1998 48.7996C47.4998 48.2996 47.8999 47.7996 48.3999 47.3996C48.6999 47.1996 48.9998 47.0996 49.1998 46.8996L48.5999 46.6996C50.7999 51.9996 50.4999 58.5996 47.3999 63.4996C47.0999 63.8996 47.7999 64.2996 48.0999 63.8996H47.8999Z" fill="#231F20"/>
<path d="M55.7002 39.9004C55.8002 43.0004 56.5002 46.2004 57.7002 49.1004C58.6002 51.4004 59.9002 53.6004 61.8002 55.3004C62.2002 55.7004 62.7002 56.1004 63.3002 56.4004C63.6002 56.6004 64.2002 57.0004 64.6002 57.0004C64.9002 57.0004 65.3002 56.7004 65.6002 56.6004C69.4002 55.1004 73.3002 53.0004 76.3002 50.2004C78.1002 48.5004 79.7002 46.5004 80.4002 44.0004C80.6002 43.3004 80.5002 43.4004 80.0002 43.5004C79.4002 43.5004 78.7002 43.6004 78.1002 43.8004C72.8002 44.8004 67.8002 48.2004 65.5002 53.2004L66.5002 52.6004C65.9002 48.8004 64.1002 44.8004 61.3002 42.1004C60.0002 40.9004 58.5002 39.9004 56.9002 39.4004C56.7002 39.4004 56.2002 40.0004 55.9002 40.0004C61.0002 41.8004 63.9002 46.9004 65.2002 51.9004C65.3002 52.3004 65.4002 52.8004 65.5002 53.2004C65.5002 53.1004 66.4002 52.8004 66.5002 52.6004C67.7002 50.1004 69.5002 47.9004 71.8002 46.4004C71.9002 46.4004 72.1002 46.2004 72.2002 46.2004C72.9002 45.8004 71.8002 46.4004 72.2002 46.2004C72.4002 46.1004 72.7002 45.9004 73.0002 45.8004C73.5002 45.6004 74.0002 45.4004 74.5002 45.2004C75.3002 44.9004 76.2002 44.7004 77.1002 44.5004C77.7002 44.4004 78.3002 44.3004 78.9002 44.2004C78.9002 44.2004 79.6002 44.1004 79.6002 44.2004C79.7002 44.4004 79.3002 45.4004 79.2002 45.6004C79.0002 46.2004 78.8002 46.7004 78.5002 47.2004C77.9002 48.2004 77.2002 49.1004 76.4002 50.0004C73.6002 52.9004 70.0002 54.9004 66.3002 56.4004C66.1002 56.4004 65.8002 56.7004 65.6002 56.7004C65.2002 56.7004 64.6002 56.2004 64.2002 56.0004C63.7002 55.7004 63.2002 55.3004 62.8002 54.9004C61.1002 53.4004 59.9002 51.3004 59.0002 49.2004C57.8002 46.2004 57.0002 42.8004 56.9002 39.6004C56.9002 39.8004 55.9002 40.0004 55.9002 40.2004L55.7002 39.9004Z" fill="#231F20"/>
<path d="M55.2996 39.9C55.4996 44.6 56.7996 49.6 59.5996 53.4C60.6996 54.8 62.2996 56.7 64.0996 57.3C64.6996 57.5 65.1996 57.2 65.7996 56.9C66.8996 56.4 67.9996 55.9 69.0996 55.4C73.0996 53.4 77.2996 50.7 79.5996 46.7C79.9996 46.1 81.4996 43.5 80.3996 43C79.7996 42.7 78.4996 43.2 77.7996 43.3C76.6996 43.5 75.6996 43.8 74.6996 44.2C70.4996 45.8 66.8996 48.8 64.9996 52.9C64.7996 53.2 65.1996 53.6 65.4996 53.4L66.4996 52.8C66.6996 52.8 66.6996 52.5 66.6996 52.4C66.0996 49 64.7996 45.7 62.5996 43C61.4996 41.7 60.2996 40.5 58.7996 39.7C58.2996 39.4 57.3996 38.8 56.7996 38.8C56.1996 38.8 56.0996 39.3 55.6996 39.4C55.2996 39.5 55.3996 40 55.6996 40.1C61.0996 42.1 64.0996 47.7 64.9996 53.1C64.9996 53.4 65.3996 53.5 65.5996 53.3C65.7996 53 66.3996 53 66.5996 52.7C66.8996 52.3 67.0996 51.7 67.2996 51.3C67.4996 50.9 67.7996 50.5 68.0996 50.1C69.2996 48.4 70.7996 47.4 72.3996 46.1C72.6996 45.9 72.5996 45.2 72.0996 45.4C71.9996 45.4 71.8996 45.5 71.7996 45.6C71.4996 45.8 71.5996 46.2 71.7996 46.3C72.0996 46.4 72.6996 46 72.9996 45.8C73.9996 45.3 74.9996 45 76.0996 44.7C76.4996 44.6 78.7996 44 78.8996 44.2C78.8996 44.3 78.7996 44.8 78.6996 45.1C77.1996 49.1 73.5996 51.9 69.8996 53.8C69.0996 54.2 68.2996 54.6 67.4996 55C66.5996 55.4 65.6996 56 64.7996 55.5C62.9996 54.6 61.5996 52.9 60.5996 51.2C58.3996 47.6 57.2996 43.2 57.0996 39.1C57.0996 38.7 56.5996 38.6 56.3996 38.9C56.1996 39.2 55.6996 39.1 55.3996 39.5C55.0996 39.9 55.7996 40.3 56.0996 39.9C56.2996 39.6 56.7996 39.7 57.0996 39.3L56.3996 39.1C56.5996 43 57.4996 46.9 59.2996 50.4C60.0996 52 61.0996 53.5 62.4996 54.7C63.2996 55.4 64.7996 56.8 65.8996 56.6C67.4996 56.2 69.2996 55.1 70.6996 54.3C72.2996 53.4 73.7996 52.4 75.1996 51.2C76.5996 50 77.8996 48.5 78.7996 46.9C79.1996 46.2 80.0996 44.6 79.7996 43.8C79.7996 43.7 79.6996 43.6 79.4996 43.5C78.3996 43.3 76.8996 43.7 75.8996 44C75.0996 44.2 74.1996 44.5 73.4996 44.8C73.2996 44.8 73.0996 45 72.7996 45.1C72.5996 45.2 71.6996 45.5 71.9996 45.6V46.3C71.9996 46.3 72.1996 46.3 72.1996 46.2L71.8996 45.5C70.3996 46.6 69.0996 47.6 67.8996 49C67.2996 49.7 66.7996 50.4 66.3996 51.2C66.0996 51.7 65.9996 52.1 65.4996 52.4C65.2996 52.5 65.0996 52.5 64.9996 52.7L65.5996 52.9C64.5996 47.2 61.3996 41.5 55.7996 39.4V40.1C56.0996 40.1 56.3996 39.8 56.6996 39.7C57.3996 39.6 58.4996 40.4 58.9996 40.7C60.3996 41.6 61.5996 42.8 62.4996 44.2C64.2996 46.7 65.3996 49.6 65.7996 52.5L65.9996 52.1L64.9996 52.7L65.4996 53.2C66.9996 50.1 69.4996 47.6 72.5996 45.9C74.0996 45.1 75.6996 44.5 77.3996 44.1C77.9996 44 78.5996 43.9 79.1996 43.8C79.4996 43.8 79.9996 43.8 79.7996 43.6C79.7996 43.8 79.4996 44.6 79.3996 44.8C79.1996 45.3 78.9996 45.8 78.6996 46.3C76.6996 49.7 73.1996 52.2 69.7996 54C68.1996 54.9 66.3996 55.9 64.6996 56.4C63.8996 56.6 62.7996 55.7 62.1996 55.2C61.3996 54.6 60.6996 53.8 60.0996 52.9C57.3996 49.2 56.1996 44.3 55.8996 39.7C55.8996 39.2 55.0996 39.2 55.0996 39.7L55.2996 39.9Z" fill="#231F20"/>
</g>
<defs>
<clipPath id="clip0_208_585">
<rect width="128" height="265" fill="white"/>
</clipPath>
</defs>
</svg>
