<svg width="123" height="265" viewBox="0 0 123 265" fill="none" xmlns="http://www.w3.org/2000/svg">
<g clip-path="url(#clip0_208_563)">
<path d="M57.8002 168.8V168.2C59.9002 167.9 61.8002 166.7 63.5002 165.6C66.2002 163.8 68.6002 161.4 70.7002 158.9C75.2002 153.8 79.1002 148.1 82.7002 142.3C83.3002 141.3 83.9002 140.4 84.5002 139.4C86.3002 140.6 88.4002 141.2 90.5002 141.2C92.6002 141.2 91.4003 141.2 91.9003 141.2C98.7003 140.4 105.3 137 110.3 131.9C115.4 126.7 118.9 119.9 120.4 112.2C122.1 103.8 121.4 94.7001 118.2 86.7001C117.8 85.7001 117.3 84.6001 116.4 83.8001C113.7 81.7001 110.1 84.1001 108.7 85.2001C97.6002 93.8001 90.4002 106.6 84.1002 118C82.1002 121.6 79.6002 126 79.7002 130.8C79.7002 133.9 81.0002 136.7 83.3002 138.7C83.5002 138.9 83.7003 139 83.9003 139.1V139.3C82.1003 142.5 80.1002 145.6 78.0002 148.7C74.2002 154.2 70.1002 159.9 65.0002 164.3C64.4002 164.8 63.8002 165.3 63.1002 165.8C62.8002 166 62.4002 166.3 62.0002 166.5C62.0002 166.5 61.9002 166.5 61.8002 166.6C61.6002 166.6 61.5002 166.8 61.3002 166.8C60.2002 167.3 59.0002 167.7 57.7002 167.6C57.8002 158.5 58.0002 149.4 58.1002 140.4C58.2002 131.7 58.3002 123.1 58.5002 114.4C61.9002 114.1 65.1002 112.6 68.0002 110.7C71.6002 108.3 74.6002 105 77.3002 101.5C82.3002 94.9001 86.3002 87.4001 89.5002 79.7001C90.1002 78.3001 90.7002 76.9001 91.2002 75.5001C91.2002 75.5001 91.4002 75.5001 91.5002 75.5001C91.6002 75.5001 91.8003 75.5001 91.9003 75.5001L92.8002 76.1001C93.0002 75.8001 93.2003 75.6001 93.4003 75.3001C96.0003 74.8001 99.6002 73.2001 103.1 70.3001C107.2 66.9001 112.2 60.6001 112.6 50.2001C113.3 35.9001 113.4 26.9001 110.1 22.3001C109.2 21.1001 107.9 20.3001 106.5 20.1001C105 19.9001 103.3 20.3001 102.1 21.2001C95.7002 25.9001 84.6002 37.3001 83.5002 50.2001C82.3002 64.6001 86.1002 74.2001 90.5002 75.5001C88.9002 79.8001 87.0003 84.1001 84.9003 88.2001C81.1003 95.7001 76.5002 103.4 70.1002 109C69.2002 109.8 68.3003 110.5 67.4003 111.1C67.2003 111.3 66.9002 111.4 66.7002 111.6C66.6002 111.6 66.5002 111.8 66.3002 111.8C65.8002 112 65.3002 112.3 64.8002 112.5C62.9002 113.3 60.9002 113.8 58.8002 113.8C58.9002 106.2 59.0002 98.8001 59.1002 91.3001C59.1002 85.9001 59.3002 80.5001 59.3002 75.1001C59.3002 73.4001 59.3002 71.8001 59.3002 70.1001C59.3002 69.5001 59.3002 68.8001 59.3002 68.2001C59.5002 68.2001 59.7003 68.2001 59.9003 68.2001C62.1003 68.2001 64.1002 66.3001 66.3002 64.2001C67.2002 63.3001 68.3003 62.3001 69.4003 61.3001C74.6003 56.9001 76.7002 46.6002 76.6002 25.9001C76.6002 14.9001 70.7002 7.20007 65.7002 2.80007C64.1002 1.30007 61.9002 0.600073 59.7002 0.800073C57.5002 1.00007 55.4002 2.20008 54.1002 4.00008C48.8002 11.1001 44.8003 22.9001 43.9003 34.0001C42.7003 47.4001 51.1002 61.6001 55.6002 65.9001C56.6002 66.8001 57.5002 67.4001 58.3002 67.7001C58.3002 69.4001 58.3002 71.1001 58.3002 72.8001C58.3002 77.6001 58.2002 82.3001 58.1002 87.0001C58.1002 94.1001 57.9002 101.1 57.8002 108.2C57.8002 110.2 57.8002 112.2 57.8002 114.1C57.8002 116.7 57.8002 119.3 57.7002 121.8C55.3002 121.4 53.2002 119.8 51.5002 118.2C48.9002 115.8 46.8002 113 44.8002 110.2C40.9002 104.6 37.5002 98.6001 34.4003 92.5001C33.9003 91.4001 33.4002 90.4001 32.8002 89.3001C33.9002 88.9001 35.0002 88.0001 35.7002 86.8001C36.5002 85.4001 36.9002 83.8001 37.2002 82.0001C37.5002 80.0001 37.9003 78.0001 37.9003 75.8001C38.0002 69.9001 35.9002 64.3001 34.0002 59.3001C32.8002 56.2001 31.5002 52.7001 29.8002 49.4001C28.6002 47.2001 27.2003 45.0001 25.9003 42.9001C24.9003 41.4001 24.0002 39.9001 22.6002 38.7001C22.3002 38.4001 19.4002 35.8001 17.1002 35.9001C15.4002 36.0001 13.8002 37.9001 12.8002 39.2001V39.4001C10.3002 42.2001 8.60024 45.8001 7.60024 50.2001C7.00024 52.7001 6.80029 54.7001 6.90029 56.6001C6.90029 58.9001 7.60028 61.4001 8.70028 64.3001C11.6002 72.1001 16.5002 79.1001 22.8002 84.5001C25.1002 86.5001 27.1002 87.8001 29.1002 88.7001C29.8002 89.0001 30.7002 89.3001 31.6002 89.3001H31.8002C33.5002 92.9001 35.3002 96.4001 37.3002 99.9001C40.8002 106.2 44.7002 112.7 49.8002 117.8C51.8002 119.8 54.3002 122 57.3002 122.3C57.5002 122.3 57.7003 122.1 57.9003 121.9C57.9003 125.8 57.8002 129.7 57.7002 133.6C57.6002 143.1 57.4002 152.5 57.3002 161.9C57.2002 171.4 57.0002 180.8 56.9003 190.3C56.9003 195.7 56.7002 201.1 56.7002 206.5C56.4002 206.3 56.2002 206.1 56.0002 205.9C55.2002 205.1 54.4002 204.1 53.7002 203.1C51.7002 200.3 50.0002 197.2 48.4003 194.2C44.9003 187.7 41.8002 181 38.8002 174.3C38.2002 173 37.7002 171.8 37.1002 170.5C37.8002 170 38.3002 169.3 38.7002 168.6C43.2002 160.7 41.1002 151.5 39.5002 146.6C37.9002 141.9 35.6003 137.5 33.4003 133.3C32.2003 131.1 31.1002 128.9 30.0002 126.6C29.6002 125.7 29.1002 124.7 28.7002 123.8C27.2002 120.4 25.6002 116.9 23.3002 113.8C21.1002 110.8 16.0002 106.2 11.2002 108.3C8.90028 109.3 7.50029 111.4 6.40029 113.2C-0.199704 124.6 -0.0997281 138.8 6.50027 148.7C8.50027 151.7 11.1002 154.2 13.3002 156.4C18.4002 161.4 24.6003 166.9 31.9003 170.2C32.8003 170.6 34.0002 171.1 35.1002 171.1C36.2002 171.1 35.6002 171.1 35.8002 171.1C37.5002 175.1 39.3002 179.1 41.2002 183C44.4002 189.8 47.7002 196.7 51.8002 203C52.6002 204.2 53.4003 205.3 54.4003 206.4C54.9003 207 55.6002 207.7 56.5002 207.8C56.5002 210.9 56.5002 214 56.4003 217.1C56.3003 224.6 56.2002 232 56.1002 239.5C56.1002 244.9 55.9003 250.3 55.9003 255.7C55.9003 257.4 55.9003 259 55.9003 260.7C55.9003 261.6 55.8003 262.5 55.9003 263.3V263.6C55.9003 263.4 57.0002 263.2 57.0002 263V257.7C57.2002 252.9 57.2002 248.2 57.3002 243.5C57.3002 236.4 57.5002 229.4 57.6002 222.3C57.6002 221.8 57.6002 221.4 57.6002 220.9C60.0002 219.4 62.4002 217.8 64.6002 216.1C69.9002 212.1 74.8002 207.7 79.2002 202.8C81.8002 199.8 84.2002 196.6 86.2002 193.1C86.2002 193.1 86.3003 193.1 86.4003 193.1C86.6003 193.1 86.7002 193.1 86.8002 193.2C87.6002 193.4 88.4002 193.5 89.2002 193.5C96.0002 193.5 103.8 187.6 107.2 184.1C112.3 178.9 115.6 172.3 116.4 165.5C116.8 162.6 116.7 159.6 116.6 156.7C116.6 153.6 116.4 150.3 115.9 147.2C115.7 146.3 115.5 145.2 114.8 144.5C114.8 144.5 114.8 144.5 114.7 144.5C113.8 143.7 112.4 143.4 110.5 143.8C103.2 145.1 97.5002 149.8 94.1002 153.6C89.7002 158.4 86.4002 164 83.3002 169.4C81.8002 172.1 80.1002 174.8 79.5002 177.9C78.9002 180.5 79.1003 183.3 79.9003 185.8C80.6003 188.1 81.7002 189.8 83.0002 191.1C83.8002 191.9 84.7002 192.5 85.7002 192.9C85.7002 192.9 85.6002 192.9 85.6002 193C82.1002 199.3 77.2003 204.9 71.9003 209.8C67.9003 213.5 63.7002 216.8 59.2002 219.8C58.7002 220.2 58.1002 220.5 57.6002 220.9C57.6002 216.3 57.7002 211.8 57.8002 207.2L58.0002 196.7C58.1002 187.2 58.3003 177.8 58.4003 168.4L57.8002 168.8ZM118.1 89.6001C120.4 96.7001 120.8 104.5 119.3 111.8C117.8 119.3 114.4 125.9 109.5 130.8C104.6 135.8 98.3002 139 91.8002 139.8C89.7002 140.1 87.5002 139.6 85.7002 138.6C93.2002 135.4 102.6 126 109.7 114.4C115.5 104.9 117.5 94.5001 118.1 89.6001ZM82.7002 136C81.6002 134.5 81.0003 132.6 80.9003 130.6C80.9003 126.2 83.1002 122.1 85.1002 118.4C91.4002 107.2 98.5003 94.4001 109.4 86.0001C110.6 85.1001 113.6 83.1001 115.6 84.6001C116.2 85.1001 116.6 85.8001 116.9 86.6001C115.6 87.8001 110.2 93.1001 101.8 102.7C93.2002 112.6 84.6002 131.5 82.6002 135.9L82.7002 136ZM83.6002 137C84.9002 134.1 93.9002 113.8 102.8 103.5C109.9 95.3001 114.8 90.4001 116.9 88.3001C116.5 92.4001 114.7 103.6 108.5 113.7C101.4 125.3 91.6002 135 84.3002 137.7C84.3002 137.7 84.1002 137.5 84.0002 137.5C83.8002 137.3 83.6002 137.2 83.5002 137H83.6002ZM106.8 21.4001C107.7 21.7001 108.5 22.2001 109 23.0001C112.1 27.3001 111.9 36.1001 111.3 50.2001C110.8 60.2001 106.1 66.2002 102.2 69.4001C99.5002 71.7002 96.6003 73.1001 94.4003 73.8001C107.4 53.9001 107 26.6001 106.8 21.4001ZM84.6002 50.2001C85.5002 38.9001 94.9002 28.5001 101 23.4001C98.1002 31.3001 88.3002 59.4001 88.5002 72.4001C85.9002 69.1001 83.7002 61.3001 84.6002 50.1001V50.2001ZM102.9 22.0001C103.7 21.5001 104.6 21.2001 105.5 21.2001C105.7 25.5001 106.4 54.1001 92.6002 74.2001C92.0002 74.2001 91.4002 74.3001 91.1002 74.2001C90.7002 74.2001 90.3002 74.0001 89.8002 73.7001C88.8002 60.5001 101.8 24.8001 102.9 22.0001ZM75.3002 25.9001C75.3002 46.2002 73.4002 56.2001 68.5002 60.4001C67.7002 61.1001 66.9002 61.8001 66.2002 62.5001C73.8002 28.8001 68.0002 10.4001 65.3002 4.30007C70.0002 8.60007 75.3002 15.8001 75.3002 26.0001V25.9001ZM62.0002 2.30007C62.4002 2.30007 62.8002 2.5001 63.2002 2.7001C64.3002 4.6001 74.2002 23.7001 64.6002 64.0001C63.1002 65.4001 61.9002 66.5001 60.7002 66.8001L61.9003 2.2001L62.0002 2.30007ZM45.0002 34.2001C45.9002 23.3001 49.9002 11.7001 55.0002 4.80007C55.2002 4.60007 55.4002 4.30006 55.6002 4.10006C54.0002 7.80006 51.3003 16.1001 51.4003 29.8001C51.5002 45.1001 54.9002 59.9001 56.2002 65.0001C51.8002 60.8001 43.9002 47.1001 45.0002 34.2001ZM52.7002 29.8001C52.5002 12.6001 57.1002 3.9001 57.7002 2.7001C58.4002 2.4001 59.1002 2.20006 59.8002 2.10006C60.0002 2.10006 60.3002 2.10006 60.5002 2.10006C60.7002 2.10006 60.7002 2.10006 60.8002 2.10006L59.6002 67.0001C59.1002 67.0001 58.5002 66.7002 57.9003 66.4001C57.3003 64.2001 52.9002 47.4001 52.8002 29.9001L52.7002 29.8001ZM29.0002 88.1001C27.1002 87.3001 25.2002 86.0001 23.0002 84.1001C16.8002 78.8001 12.1002 72.0001 9.20028 64.4001C8.10028 61.6001 7.60027 59.2001 7.50027 57.1001C7.50027 55.3001 7.70028 53.4001 8.20028 51.0001C9.20028 46.8001 10.8002 43.3001 13.0002 40.7001V40.5001C13.8002 39.7001 14.9003 38.4001 15.9003 37.9001C15.4003 42.3001 13.7002 60.9001 17.6002 68.0001C21.3002 74.6001 28.4003 85.6001 30.4003 88.7001C29.9003 88.7001 29.3003 88.4001 28.9003 88.2001L29.0002 88.1001ZM18.8002 67.3001C15.5002 61.4001 16.5002 46.1001 17.0002 39.8001C18.3002 43.7001 21.1002 51.2001 24.5002 59.1001C28.3002 67.8001 30.1002 81.0001 30.7002 86.5001C28.0002 82.3001 22.1002 73.1001 18.8002 67.2001V67.3001ZM25.6002 58.7001C21.6002 49.4001 18.5002 40.6001 17.6002 37.8001C18.8002 38.1001 20.3003 39.1001 21.4003 40.1001C22.6003 41.2001 23.6002 42.7001 24.5002 44.1001C25.8002 46.1001 27.2003 48.3001 28.4003 50.5001C30.1003 53.7001 31.4002 57.2001 32.6002 60.2001C34.4002 65.0001 36.5002 70.5001 36.4003 76.2001C36.4003 78.2001 36.0002 80.3001 35.7002 82.2001C35.4002 83.9001 35.1003 85.3001 34.4003 86.5001C33.9003 87.4001 33.1002 88.1001 32.2002 88.4001C31.9002 85.0001 30.1002 68.9001 25.7002 58.7001H25.6002ZM11.2002 110C11.9002 109.7 12.5002 109.6 13.2002 109.6C16.7002 109.6 20.1002 112.9 21.8002 115.1C24.0002 118.1 25.6002 121.5 27.1002 124.9C27.5002 125.9 28.0003 126.8 28.4003 127.8C29.5003 130.1 30.7002 132.3 31.8002 134.5C34.0002 138.7 36.3002 143.1 37.8002 147.7C39.4002 152.3 41.3002 161.2 37.1002 168.7C36.8002 169.2 36.5002 169.6 36.1002 170C35.6002 167.7 33.9003 159.5 29.9003 144.6C25.6003 128.4 12.6003 113.6 9.90029 110.7C10.2003 110.5 10.6002 110.2 11.0002 110H11.2002ZM32.0002 169.6C24.8002 166.3 18.8002 160.9 13.7002 156C11.5002 153.9 9.00027 151.3 7.00027 148.5C0.600272 139 0.600272 125.3 7.00027 114.3C7.00027 114.3 7.10028 114.1 7.20028 114C6.90028 144.2 29.5003 165.9 34.4003 170.3C33.7003 170.3 32.9002 170 32.0002 169.6ZM8.50027 112.2C8.70027 111.9 8.90028 111.7 9.20028 111.4C11.7002 114.1 24.7003 128.8 28.9003 144.8C32.3003 157.8 34.1002 165.7 34.8002 169C29.0002 163.8 7.30027 142 8.50027 112.2ZM114.3 147.8C114.3 147.8 114.3 147.9 114.3 148C114.8 151.1 114.9 154.3 115 157.4C115 160.2 115.2 163.1 114.8 166C114 172.5 110.8 178.8 105.9 183.8C101.7 188 93.4002 193.8 87.2002 192.7C89.7002 190.7 95.4002 185.7 102.8 176.4C110.7 166.5 113.4 153.1 114.2 147.8H114.3ZM80.5002 185.9C79.7002 183.6 79.6002 181 80.1002 178.6C80.7002 175.7 82.3002 173 83.8002 170.4C86.9002 165 90.2002 159.4 94.5002 154.8C97.8002 151.2 103.3 146.6 110.3 145.4C111.5 145.2 112.3 145.2 113 145.5C110.9 147.3 103.4 153.8 95.4003 162.2C87.9003 170.1 83.3002 184.6 82.6002 189.7C81.8002 188.7 81.2002 187.4 80.7002 185.9H80.5002ZM96.2002 163.1C103.5 155.4 110.4 149.3 113.2 147C112.5 151.6 110 165.5 101.9 175.6C93.7003 185.9 87.5002 191 85.7002 192.3C84.9002 192 84.1002 191.5 83.5002 190.9C83.7002 188.8 87.3002 172.4 96.2002 163.1Z" fill="#231F20"/>
<path d="M58.1996 168.8V168.2C58.1996 168.3 57.9996 168.4 57.8996 168.6C60.8996 168.1 63.6996 166.1 65.9996 164.2C68.5996 162 70.8996 159.4 72.9996 156.8C77.3996 151.4 81.2996 145.6 84.7996 139.6H84.2996C89.7996 143.2 96.7996 141.1 102.1 138.3C107.4 135.5 112.4 130.9 115.6 125.5C122.6 114 123.5 98.9999 118.6 86.4999C113.7 73.9999 97.5996 95.4999 94.3996 100.1C90.6996 105.4 87.4996 111 84.2996 116.6C81.3996 121.8 77.7996 127.8 79.7996 134C80.2996 135.5 81.0996 136.8 82.0996 137.9C82.3996 138.3 83.3996 138.9 83.3996 139.3C83.3996 139.5 82.8996 140.1 82.7996 140.3C82.4996 140.9 82.0996 141.5 81.7996 142C79.6996 145.5 77.3996 148.8 74.9996 152.1C72.5996 155.4 69.9996 158.7 67.0996 161.6C65.5996 163.1 63.9996 164.6 62.1996 165.8C61.5996 166.2 60.9996 166.5 60.3996 166.7C59.4996 167 58.4996 166.9 57.6996 167.2L58.1996 167.6C58.3996 149.8 58.6996 132.1 58.9996 114.3L58.5996 114.7C67.1996 113.9 73.7996 106.9 78.5996 100.3C84.0996 92.7999 88.2996 84.2999 91.4996 75.5999L91.0996 75.8999C91.7996 75.8999 91.9996 76.0999 92.4996 76.4999C92.6996 76.5999 92.8996 76.4999 92.9996 76.3999C93.6996 75.3999 94.7996 75.3999 95.8996 74.9999C96.9996 74.5999 97.8996 74.1999 98.8996 73.5999C100.9 72.4999 102.7 71.1999 104.3 69.5999C107 67.0999 109.1 63.8999 110.6 60.4999C112.6 55.6999 112.8 50.7999 113 45.6999C113.2 40.9999 113.4 36.1999 113 31.4999C112.7 28.1999 112.2 24.6999 110.3 21.9999L110 22.5999C110.4 22.5999 110.4 22.1999 110.3 21.9999C108.7 19.8999 105.9 19.0999 103.4 19.9999C101.6 20.6999 99.8996 22.2999 98.4996 23.4999C94.6996 26.7999 91.2996 30.6999 88.5996 34.9999C85.6996 39.5999 83.4996 44.6999 82.9996 50.1999C82.4996 55.8999 82.6996 61.9999 84.2996 67.4999C85.1996 70.5999 86.7996 74.6999 90.1996 75.7999L89.8996 75.2999C86.8996 83.3999 82.9996 91.4999 78.1996 98.5999C73.6996 105.3 67.1996 113.2 58.4996 113.4L58.8996 113.8C59.0996 98.5999 59.3996 83.3999 59.5996 68.1999L59.1996 68.5999C62.7996 68.9999 65.5996 65.2999 67.8996 63.0999C69.3996 61.6999 70.9996 60.3999 72.0996 58.5999C74.4996 54.7999 75.2996 50.1999 75.8996 45.7999C76.3996 42.3999 76.5996 38.8999 76.6996 35.4999C76.8996 31.3999 77.0996 27.0999 76.6996 22.9999C75.9996 16.3999 73.1996 10.3999 68.7996 5.49989C66.8996 3.29989 64.6996 0.999888 61.6996 0.499884C58.3996 -0.000115149 55.3996 1.49986 53.3996 4.09986C48.9996 10.0999 46.3996 17.5999 44.6996 24.8999C43.7996 28.7999 43.0996 32.8999 43.1996 36.8999C43.2996 40.8999 43.8996 44.4999 44.9996 48.1999C46.7996 54.1999 49.6996 60.0999 53.6996 64.8999C54.4996 65.8999 55.3996 66.7999 56.4996 67.4999C56.6996 67.6999 57.2996 67.7999 57.4996 68.0999C57.7996 68.4999 57.5996 69.2999 57.4996 69.6999C57.4996 70.8999 57.4996 72.0999 57.4996 73.2999C57.4996 77.9999 57.3996 82.5999 57.2996 87.2999C57.1996 96.5999 56.9996 105.9 56.8996 115.2C56.8996 117.5 56.8996 119.8 56.8996 122.2L57.3996 121.8C54.0996 121.2 51.4996 118.6 49.2996 116.2C46.8996 113.6 44.7996 110.6 42.7996 107.7C38.9996 101.9 35.5996 95.6999 32.5996 89.3999L32.3996 89.8999C34.7996 88.8999 36.0996 86.6999 36.5996 84.2999C37.2996 81.1999 37.7996 77.8999 37.6996 74.6999C37.3996 68.2999 34.7996 62.1999 32.4996 56.2999C31.2996 53.2999 29.8996 50.2999 28.2996 47.4999C26.6996 44.6999 24.9996 41.6999 22.7996 39.3999C21.4996 38.0999 19.8996 36.8999 18.1996 36.2999C16.2996 35.6999 14.7996 36.2999 13.3996 37.7999C9.49964 41.5999 7.29961 46.7999 6.29961 52.0999C5.19961 57.8999 6.69963 63.2999 9.19963 68.5999C11.6996 73.8999 15.1996 78.7999 19.2996 82.9999C21.3996 85.0999 23.6996 87.0999 26.1996 88.5999C27.2996 89.1999 28.4996 89.8999 29.6996 90.1999C30.2996 90.2999 30.6996 90.1999 31.0996 90.5999C31.5996 91.0999 31.9996 92.3999 32.2996 93.0999C35.5996 99.7999 39.2996 106.4 43.5996 112.4C45.5996 115.2 47.8996 117.9 50.4996 120.2C51.9996 121.5 55.5996 124.5 57.5996 122.9L56.9996 122.6C56.6996 144.6 56.3996 166.5 56.0996 188.4C56.0996 194.7 55.8996 201 55.7996 207.3L56.3996 207C53.8996 205 52.1996 201.8 50.5996 199.1C48.8996 196.2 47.2996 193.1 45.7996 190.1C42.5996 183.9 39.6996 177.5 36.8996 171.1V171.6C38.7996 170.5 39.6996 167.4 40.3996 165.4C41.0996 163 41.3996 160.4 41.3996 157.9C41.3996 153.1 40.0996 148.5 38.2996 144.1C35.9996 138.4 32.7996 133.2 30.1996 127.6C27.6996 122.4 25.7996 116.7 21.6996 112.5C18.6996 109.4 14.0996 106.6 9.89964 109C7.89964 110.1 6.59962 112.1 5.49962 114C4.19962 116.3 3.09961 118.8 2.29961 121.4C-0.70039 131.3 0.499646 142.6 6.89964 150.9C10.5996 155.7 15.2996 159.9 19.8996 163.7C22.3996 165.7 24.8996 167.6 27.6996 169.2C29.9996 170.5 32.7996 172.3 35.5996 171.9L35.1996 171.7C38.1996 178.7 41.3996 185.6 44.7996 192.3C46.4996 195.6 48.1996 198.9 50.1996 202C51.0996 203.4 51.8996 204.7 52.9996 206C53.7996 207 54.7996 208.3 56.1996 208.6L55.8996 208.2C55.5996 226.8 55.3996 245.5 55.0996 264.1C55.0996 264.5 55.5996 264.6 55.7996 264.3C55.9996 264 56.6996 264.1 56.8996 263.6C57.0996 263.2 56.8996 262.4 56.8996 262V259.8C56.8996 256.9 56.9996 253.9 57.0996 251C57.0996 245.1 57.2996 239.2 57.2996 233.3C57.2996 230.3 57.2996 227.3 57.3996 224.3C57.3996 223.6 57.3996 222.9 57.3996 222.3C57.3996 221.5 57.8996 221.3 58.4996 220.9C59.7996 220.1 60.9996 219.2 62.1996 218.4C66.5996 215.2 70.7996 211.8 74.6996 208C78.9996 203.7 82.8996 199 85.9996 193.8L85.5996 194C85.6996 194.1 85.8996 194.2 86.0996 194L87.2996 194.3C87.8996 194.3 88.4996 194.4 89.0996 194.3C90.0996 194.3 90.9996 194.1 91.9996 193.9C93.9996 193.4 95.9996 192.6 97.7996 191.6C101.2 189.8 104.3 187.4 107 184.7C110.2 181.5 112.8 177.6 114.5 173.3C116.3 168.7 116.7 163.9 116.6 159C116.6 156.3 116.5 153.5 116.2 150.8C116 149 116 146.4 114.8 144.8C112.5 142 107.5 143.9 104.9 145C96.6996 148.4 90.7996 155.5 86.1996 162.9C84.6996 165.2 83.2996 167.7 81.8996 170.1C80.4996 172.5 79.2996 174.7 78.5996 177.3C77.8996 179.9 77.8996 182.6 78.5996 185.2C78.8996 186.4 79.3996 187.6 79.8996 188.7C80.1996 189.3 80.5996 189.9 80.9996 190.4C81.2996 190.8 81.7996 191.2 81.9996 191.6C82.1996 192 82.3996 191.8 82.5996 191.6H82.0996C82.8996 192.4 83.8996 193 84.8996 193.4V192.8C84.3996 193.2 84.0996 193.9 83.7996 194.4C83.3996 195.1 82.8996 195.8 82.4996 196.5C81.5996 197.9 80.5996 199.2 79.5996 200.5C77.5996 203.1 75.3996 205.5 73.0996 207.7C68.0996 212.6 62.5996 217 56.6996 220.7L57.2996 221C57.4996 203.5 57.7996 185.9 58.0996 168.4C58.0996 167.9 57.3996 167.9 57.2996 168.4C57.0996 185.9 56.7996 203.5 56.4996 221C56.4996 221.3 56.7996 221.5 57.0996 221.3C62.8996 217.6 68.2996 213.3 73.2996 208.5C75.5996 206.2 77.7996 203.8 79.8996 201.3C80.8996 200.1 81.7996 198.9 82.6996 197.6C83.0996 197 83.4996 196.4 83.8996 195.7C84.2996 195 84.7996 193.8 85.3996 193.3C85.5996 193.2 85.4996 192.8 85.3996 192.7C84.3996 192.3 83.4996 191.7 82.6996 191C82.4996 190.9 82.2996 190.8 82.1996 191C82.3996 191 82.5996 191 82.7996 191C82.4996 190.4 81.7996 189.8 81.2996 189.2C80.5996 188.2 80.0996 187.1 79.7996 186C78.9996 183.5 78.7996 180.8 79.2996 178.3C80.1996 173.9 82.8996 170 85.0996 166.2C89.3996 159 94.2996 151.9 101.6 147.5C103.4 146.4 105.4 145.5 107.4 144.9C109.4 144.3 112.1 143.4 114 144.9C114.5 145.4 114.8 146 114.9 146.6C115.2 147.8 115.3 149.1 115.5 150.4C115.7 152.8 115.8 155.2 115.9 157.6C116 162.3 115.9 166.8 114.4 171.3C113 175.5 110.7 179.4 107.8 182.7C105.1 185.8 101.8 188.4 98.1996 190.4C96.2996 191.5 94.1996 192.4 92.0996 192.9C90.9996 193.2 89.7996 193.3 88.5996 193.3C87.7996 193.3 87.0996 193.1 86.2996 193C86.0996 193 85.9996 192.9 85.7996 193H86.2996C86.1996 193 86.0996 193 85.7996 192.8C85.5996 192.8 85.4996 192.8 85.3996 193C79.6996 202.7 71.2996 210.5 62.2996 217.1C61.1996 217.9 60.0996 218.7 58.9996 219.4C58.2996 219.9 56.9996 220.3 56.6996 221.1C56.4996 221.5 56.6996 222.5 56.6996 223C56.6996 223.7 56.6996 224.4 56.6996 225.1C56.6996 226.6 56.6996 228.2 56.6996 229.8C56.6996 235.6 56.4996 241.5 56.4996 247.3C56.4996 250.5 56.4996 253.8 56.3996 257C56.3996 258.6 56.3996 260.2 56.3996 261.9C56.3996 262.2 56.3996 262.6 56.3996 262.9C56.2996 263.3 56.1996 263.2 55.7996 263.5C55.5996 263.6 55.4996 263.7 55.3996 263.8L56.0996 264C56.3996 245.4 56.5996 226.7 56.8996 208.1C56.8996 207.9 56.7996 207.8 56.5996 207.7C54.8996 207.3 53.5996 205.2 52.6996 203.9C51.6996 202.5 50.8996 201.1 49.9996 199.7C48.1996 196.7 46.5996 193.7 45.0996 190.5C41.8996 184.1 38.9996 177.7 36.0996 171.2C36.0996 171 35.7996 171 35.6996 171C33.0996 171.4 30.1996 169.4 27.9996 168.1C25.5996 166.7 23.3996 165.1 21.2996 163.4C17.4996 160.4 13.9996 157.1 10.5996 153.5C7.0996 149.8 4.39962 145.5 2.99962 140.6C1.69962 135.9 1.49963 130.9 2.19963 126.1C2.89963 121.3 4.69964 116.5 7.39964 112.5C8.89964 110.3 10.9996 108.4 13.8996 108.5C16.2996 108.5 18.5996 110 20.2996 111.6C24.0996 115 26.1996 119.8 28.2996 124.4C30.5996 129.6 33.3996 134.5 35.8996 139.6C38.1996 144.3 40.0996 149.2 40.7996 154.4C41.0996 157.1 41.0996 159.9 40.5996 162.6C40.3996 163.9 39.9996 165.3 39.4996 166.6C38.9996 167.9 38.1996 170 36.7996 170.7C36.5996 170.7 36.5996 171 36.6996 171.2C39.4996 177.8 42.4996 184.3 45.7996 190.7C47.3996 193.8 48.9996 196.9 50.7996 199.9C52.2996 202.5 53.9996 205.5 56.3996 207.4C56.5996 207.6 56.9996 207.4 56.9996 207.1C57.2996 185 57.5996 163 57.9996 140.9C57.9996 134.7 58.1996 128.5 58.2996 122.4C58.2996 122.1 57.8996 121.9 57.6996 122.1C56.8996 122.8 54.9996 121.7 54.3996 121.4C53.6996 121 52.9996 120.5 52.3996 120C51.1996 119 49.9996 117.9 48.9996 116.7C46.5996 114.1 44.4996 111.2 42.4996 108.2C38.6996 102.3 35.1996 95.9999 32.1996 89.5999C32.1996 89.4999 31.9996 89.3999 31.8996 89.3999C30.0996 89.4999 28.0996 88.2999 26.5996 87.3999C24.6996 86.1999 23.0996 84.7999 21.3996 83.2999C18.3996 80.4999 15.7996 77.2999 13.5996 73.7999C11.3996 70.2999 9.49961 66.3999 8.29961 62.3999C7.09961 58.3999 7.09961 54.1999 8.29961 50.0999C9.29961 46.2999 10.8996 42.7999 13.3996 39.7999C14.3996 38.5999 15.8996 36.7999 17.4996 36.6999C19.0996 36.5999 20.6996 37.6999 21.7996 38.5999C24.7996 40.8999 26.7996 44.6999 28.6996 47.9999C30.9996 51.8999 32.6996 56.0999 34.2996 60.3999C36.0996 65.0999 37.7996 69.9999 37.9996 75.1999C37.9996 77.8999 37.6996 80.4999 37.1996 83.0999C36.6996 85.6999 35.7996 88.1999 33.2996 89.1999C33.0996 89.1999 32.9996 89.4999 33.0996 89.6999C36.2996 96.3999 39.8996 103 44.0996 109.2C45.9996 112.1 48.0996 114.9 50.4996 117.4C52.5996 119.6 55.0996 121.9 58.2996 122.5C58.4996 122.5 58.7996 122.5 58.7996 122.1C59.0996 104 59.2996 85.8999 59.5996 67.8999C59.5996 67.7999 59.5996 67.5999 59.3996 67.5999C55.5996 65.8999 52.9996 61.2999 51.0996 57.8999C48.3996 53.0999 46.4996 47.6999 45.5996 42.2999C44.5996 36.0999 45.5996 29.8999 46.9996 23.8999C48.3996 17.8999 50.3996 12.5999 53.3996 7.49989C54.8996 4.99989 56.3996 2.5999 59.2996 1.6999C62.2996 0.699897 65.0996 1.89989 67.2996 3.99989C70.6996 7.19989 73.4996 11.1999 75.2996 15.4999C77.5996 21.1999 77.3996 27.1999 77.1996 33.1999C77.0996 38.1999 76.7996 43.2999 75.8996 48.2999C75.2996 51.7999 74.3996 55.4999 72.3996 58.5999C71.4996 59.9999 70.2996 60.9999 68.9996 62.1999C66.6996 64.2999 63.7996 68.2999 60.2996 67.9999C60.0996 67.9999 59.8996 68.1999 59.8996 68.3999C59.6996 83.5999 59.3996 98.7999 59.1996 114C59.1996 114.2 59.3996 114.4 59.5996 114.4C68.2996 114.2 74.5996 106.9 79.1996 100.4C84.3996 92.8999 88.6996 84.3999 91.7996 75.7999C91.7996 75.5999 91.7996 75.3999 91.4996 75.2999C88.6996 74.3999 87.1996 70.8999 86.2996 68.2999C84.7996 63.5999 84.3996 58.4999 84.5996 53.5999C84.7996 48.0999 86.0996 42.9999 88.6996 38.1999C90.9996 33.9999 93.9996 30.1999 97.3996 26.7999C98.8996 25.2999 100.5 23.7999 102.2 22.4999C103.4 21.5999 104.6 20.7999 106.1 20.6999C108 20.5999 109.6 21.3999 110.7 22.8999L111 22.2999C110.7 22.2999 110.5 22.5999 110.7 22.8999C112.4 25.2999 112.9 28.2999 113.2 31.0999C113.6 35.2999 113.5 39.5999 113.4 43.8999C113.2 49.0999 113.2 54.2999 111.5 59.2999C110.2 62.9999 108.1 66.2999 105.3 69.0999C103.5 70.7999 101.5 72.2999 99.2996 73.4999C98.0996 74.0999 96.8996 74.6999 95.6996 74.9999C95.1996 75.0999 94.5996 75.1999 94.1996 75.3999C93.7996 75.5999 93.5996 76.0999 93.3996 76.3999H93.8996C93.0996 75.6999 93.0996 75.6999 92.0996 75.5999C91.8996 75.5999 91.7996 75.6999 91.6996 75.8999C88.5996 84.0999 84.6996 92.0999 79.6996 99.2999C74.9996 106.1 68.2996 113.6 59.4996 114.5C59.2996 114.5 59.0996 114.7 59.0996 114.9C58.8996 132.7 58.5996 150.4 58.2996 168.2C58.2996 168.4 58.4996 168.6 58.7996 168.6C59.2996 168.4 60.0996 168.6 60.6996 168.4C61.3996 168.2 61.9996 168 62.6996 167.7C63.7996 167.2 64.7996 166.3 65.6996 165.6C68.1996 163.5 70.4996 161 72.6996 158.5C76.8996 153.4 80.5996 147.9 83.9996 142.3C84.3996 141.7 85.5996 140.4 85.2996 139.6C85.0996 139.2 84.5996 139 84.2996 138.7C83.5996 138.1 83.0996 137.4 82.5996 136.6C80.7996 133.7 80.7996 130.2 81.6996 127C82.5996 123.8 84.0996 121.2 85.6996 118.4C87.0996 115.8 88.5996 113.2 90.0996 110.7C93.1996 105.4 96.5996 100.2 100.5 95.3999C102.4 93.0999 104.5 90.8999 106.7 88.7999C108.7 86.9999 110.8 84.9999 113.4 84.1999C115 83.6999 116.6 83.8999 117.8 85.1999C119 86.4999 119.4 88.3999 119.9 89.9999C121 93.2999 121.6 96.7999 121.9 100.3C122.4 106.9 121.5 113.6 119 119.8C116.4 126.3 112.2 132.1 106.5 136.1C103.6 138.1 100.4 139.7 96.9996 140.6C93.0996 141.7 89.2996 141.9 85.7996 139.7C85.5996 139.6 85.3996 139.7 85.2996 139.8C81.8996 145.6 78.1996 151.2 73.8996 156.4C71.8996 158.9 69.7996 161.3 67.3996 163.4C64.9996 165.5 61.9996 167.9 58.6996 168.4C58.4996 168.4 58.3996 168.6 58.3996 168.8V169.4C58.3996 169.9 59.0996 169.9 59.0996 169.4L58.1996 168.8Z" fill="#231F20"/>
<path d="M117.7 89.6996C123 106.8 117.7 128.4 100.7 136.8C96.2997 139 90.4997 140.8 85.8997 138.3V139C92.8997 136 98.5998 130 103.3 124.1C109.1 116.9 113.6 109.1 116.2 100.2C117.2 96.6996 118 93.1996 118.4 89.5996C118.4 89.0996 117.7 89.0996 117.6 89.5996C116.6 96.8996 114.5 104.2 111.1 110.8C107.1 118.6 101.4 125.9 94.8997 131.8C91.9997 134.4 88.8997 136.8 85.2997 138.3C84.9997 138.4 85.0997 138.8 85.2997 139C89.2997 141.2 93.8997 140.2 97.9997 138.7C102.1 137.2 106 134.7 109.2 131.5C115.7 125 119.4 116 120.1 106.9C120.6 101.1 119.9 95.0996 118.2 89.5996C118.1 89.0996 117.3 89.2996 117.5 89.7996L117.7 89.6996Z" fill="#231F20"/>
<path d="M83.0005 135.8C80.0005 131.4 81.6005 126.2 83.8005 121.9C85.7005 118.1 87.9005 114.5 90.0005 110.9C94.3005 103.5 99.1005 96.3001 105.3 90.3001C106.9 88.7001 108.6 87.1001 110.5 85.9001C111.4 85.3001 112.3 84.8001 113.4 84.6001C115.1 84.3001 116.1 85.4001 116.7 86.9001V86.4001C111.2 91.6001 105.9 97.4001 101 103.2C95.2005 110.2 90.8005 118.5 86.7005 126.6C85.2005 129.6 83.7005 132.7 82.4005 135.8C82.2005 136.2 82.9004 136.6 83.1004 136.2C86.1004 129.5 89.4005 122.9 93.0005 116.6C95.3005 112.5 97.9005 108.5 100.8 104.8C104 100.7 107.6 96.9001 111.2 93.2001C113.2 91.1001 115.3 89.0001 117.4 87.0001C117.5 86.9001 117.5 86.7001 117.4 86.5001C116.7 84.8001 115.5 83.6001 113.6 83.8001C111.9 84.0001 110.3 85.0001 109 86.1001C105.1 89.1001 101.8 92.7001 98.7005 96.6001C92.8005 104.1 87.9005 112.5 83.5005 121C81.0005 125.7 79.1005 131.5 82.4005 136.3C82.7005 136.7 83.3004 136.3 83.1004 135.9L83.0005 135.8Z" fill="#231F20"/>
<path d="M83.8998 137.2C86.3998 131.4 89.2998 125.7 92.2998 120.2C94.4998 116.2 96.8998 112.2 99.5998 108.4C102.5 104.3 105.9 100.6 109.3 96.8998C111.9 94.0998 114.5 91.2998 117.3 88.5998L116.7 88.2998C115.9 95.5998 113.8 102.9 110.5 109.5C106.5 117.6 100.5 125.2 93.6998 131.2C92.0998 132.6 90.3998 133.9 88.6998 135.1C87.8998 135.6 87.1998 136 86.3998 136.4C85.9998 136.6 85.6998 136.8 85.2998 136.9C84.5998 137.2 84.4998 137.2 83.8998 136.6C83.5998 136.3 82.9998 136.8 83.3998 137.1C83.9998 137.7 84.2998 138.1 85.0998 137.8C85.7998 137.5 86.4998 137.2 87.1998 136.8C88.7998 136 90.2998 134.9 91.6998 133.8C95.1998 131.1 98.3998 127.9 101.2 124.6C107.6 117 112.7 108.5 115.4 98.8998C116.4 95.3998 117.1 91.7998 117.5 88.1998C117.5 87.8998 117.1 87.6998 116.9 87.8998C114.6 90.0998 112.4 92.4998 110.2 94.7998C106.8 98.4998 103.3 102.1 100.3 106.1C94.9998 113.2 90.7998 121.1 86.9998 129.1C85.7998 131.6 84.5998 134.1 83.4998 136.6C83.2998 137 83.9998 137.4 84.1998 137L83.8998 137.2Z" fill="#231F20"/>
<path d="M106.7 21.8001C107.5 22.1001 108.5 22.7001 109 23.4001C108.8 23.1001 109 23.7001 109.1 23.8001C109.3 24.0001 109.4 24.3001 109.5 24.6001C110.1 25.8001 110.4 27.1001 110.7 28.4001C111.4 32.0001 111.4 35.8001 111.3 39.5001C111.3 42.0001 111.2 44.4001 111.1 46.8001C111 49.4001 110.9 52.0001 110.4 54.6001C109.6 58.6001 107.9 62.4001 105.3 65.6001C102.5 69.1001 98.6003 71.9001 94.3003 73.4001L94.7003 73.9001C103.5 60.4001 106.7 43.7001 107.1 27.7001C107.1 25.6001 107.1 23.4001 107.1 21.3001C107.1 20.8001 106.3 20.8001 106.3 21.3001C106.8 34.1001 105.1 47.3001 100.8 59.3001C99.1003 64.3001 96.8003 69.0001 94.0003 73.5001C93.8003 73.8001 94.1003 74.2001 94.4003 74.0001C102.4 71.4001 108.4 64.6001 110.6 56.6001C112 51.5001 111.8 46.0001 112 40.7001C112 36.6001 112.2 32.5001 111.5 28.4001C111 25.4001 110 21.9001 106.9 20.9001C106.4 20.7001 106.2 21.5001 106.7 21.6001V21.8001Z" fill="#231F20"/>
<path d="M85.0002 50.2003C86.0002 39.7003 93.4002 30.3003 101.3 23.7003L100.7 23.3003C96.1002 35.9003 91.8002 48.8003 89.3002 62.0003C88.7002 65.4003 88.1002 68.9004 88.1002 72.4004L88.8002 72.2003C87.0002 69.9003 86.1002 66.9003 85.6002 64.1003C84.7002 59.5003 84.6002 54.8003 85.0002 50.1003C85.0002 49.6003 84.3002 49.6003 84.2002 50.1003C83.8002 54.8003 83.9002 59.6003 84.8002 64.3003C85.4002 67.2003 86.3002 70.2003 88.1002 72.6003C88.3002 72.9003 88.8002 72.8004 88.8002 72.4004C88.8002 65.6004 90.5002 58.8003 92.2002 52.2003C94.1002 45.1003 96.3002 38.1003 98.6002 31.1003C99.5002 28.5003 100.4 26.0004 101.3 23.4004C101.4 23.0004 100.9 22.8003 100.7 23.0003C92.7002 29.7003 85.2002 39.3003 84.2002 50.0003C84.2002 50.5003 84.9002 50.5003 85.0002 50.0003V50.2003Z" fill="#231F20"/>
<path d="M103.1 22.3C103.8 21.8 104.7 21.5 105.6 21.5L105.2 21.1C105.4 26.6 105.2 32.1 104.5 37.5C103.4 47.2 101.2 56.8 96.9998 65.7C95.8998 68 94.6998 70.2 93.2998 72.4C92.8998 73.1 92.5998 73.8 91.6998 73.9C91.1998 73.9 90.2998 73.9 90.0998 73.4C89.8998 72.9 90.0998 71.9 90.0998 71.4C90.0998 68.1 90.7998 64.7 91.3998 61.4C92.9998 53.5 95.2998 45.7 97.7998 38C99.4998 32.7 101.3 27.4 103.2 22.2C103.4 21.7 102.6 21.5 102.5 22C97.7998 34.6 93.4998 47.6 90.7998 60.8C90.0998 64.2 89.4998 67.7 89.2998 71.2C89.2998 71.9 89.2998 72.5 89.2998 73.2C89.2998 74 89.2998 74.3 90.2998 74.6C90.9998 74.9 92.2998 75 92.8998 74.6C93.2998 74.3 93.6998 73.4 93.9998 73C94.3998 72.4 94.7998 71.7 95.1998 71C100.3 62.2 103.2 52.1 104.7 42.1C105.7 35.3 106.2 28.3 105.9 21.4C105.9 21.2 105.7 21 105.5 21C104.5 21 103.5 21.4 102.6 21.9C102.2 22.1 102.6 22.8 103 22.6L103.1 22.3Z" fill="#231F20"/>
<path d="M74.9996 25.8996C74.9996 32.4996 74.9996 39.1996 73.9996 45.6996C73.4996 49.5996 72.6996 53.7996 70.5996 57.1996C69.3996 59.1996 67.5996 60.4996 65.9996 62.0996L66.5996 62.4996C70.3996 45.5996 72.5996 26.8996 67.7996 9.89961C67.1996 7.89961 66.5996 5.89958 65.6996 3.99958L65.0996 4.49958C71.0996 10.1996 74.8996 17.5996 74.9996 25.9996C74.9996 26.4996 75.7996 26.4996 75.7996 25.9996C75.7996 17.4996 71.8996 9.79958 65.6996 3.99958C65.3996 3.69958 64.8996 3.99958 65.0996 4.49958C66.8996 8.59958 67.9996 12.9996 68.6996 17.2996C69.9996 25.5996 69.9996 33.9996 69.1996 42.2996C68.5996 49.0996 67.3997 55.6996 65.8997 62.2996C65.8997 62.6996 66.1996 62.8996 66.4996 62.6996C67.9996 61.2996 69.5996 60.0996 70.7996 58.3996C71.7996 56.9996 72.3996 55.3996 72.9996 53.8996C74.5996 49.0996 75.0997 43.8996 75.3997 38.7996C75.6997 34.4996 75.6996 30.2996 75.6996 25.9996C75.6996 25.4996 74.8997 25.4996 74.8997 25.9996L74.9996 25.8996Z" fill="#231F20"/>
<path d="M61.8998 2.60032C62.9998 2.90032 62.9998 3.00037 63.3998 3.90037C63.6998 4.60037 63.9998 5.30034 64.2998 6.00034C65.2998 8.50034 65.9998 11.0004 66.4998 13.6004C68.5998 23.3004 68.6998 33.4004 67.6998 43.2004C67.2998 47.2004 66.6998 51.2004 65.9998 55.2004C65.5998 57.4004 65.1998 59.5004 64.6998 61.7004C64.3998 63.0004 64.1998 63.9004 63.1998 64.8004C62.3998 65.5004 61.5998 66.1004 60.5998 66.5004L61.0998 66.9004C61.1998 59.6004 61.3998 52.3004 61.4998 45.1004C61.6998 33.5004 61.8998 21.9004 62.1998 10.3004C62.1998 7.60033 62.1998 5.00037 62.3998 2.40037C62.3998 1.90037 61.6998 1.90037 61.5998 2.40037C61.4998 9.70037 61.2998 17.0004 61.1998 24.2004C60.9998 35.8004 60.7998 47.4004 60.4998 59.0004C60.4998 61.7004 60.4998 64.3004 60.2998 66.9004C60.2998 67.1004 60.4998 67.3004 60.7998 67.3004C62.1998 66.8004 63.2998 65.8004 64.2998 64.8004C64.9998 64.1004 64.9998 63.7004 65.1998 62.7004C65.3998 61.6004 65.6998 60.5004 65.8998 59.4004C66.6998 55.7004 67.2998 51.9004 67.7998 48.1004C68.5998 41.7004 69.0998 35.2004 68.8998 28.8004C68.6998 21.2004 67.6998 13.4004 64.9998 6.30033C64.6998 5.40033 64.2998 4.50032 63.8998 3.60032C63.3998 2.60032 63.1998 2.30037 61.8998 1.90037C61.3998 1.80037 61.1998 2.50032 61.6998 2.60032H61.8998Z" fill="#231F20"/>
<path d="M45.4004 34.2001C45.9004 28.7001 47.1004 23.2001 48.9004 17.9001C49.8004 15.4001 50.8004 13.0001 51.9004 10.6001C53.0004 8.40005 54.2004 6.1001 55.9004 4.4001L55.3004 3.9001C52.8004 9.8001 51.7004 16.3001 51.3004 22.7001C50.6004 33.1001 51.7004 43.7001 53.5004 54.0001C54.2004 57.7001 54.9004 61.4001 55.8004 65.1001L56.4004 64.7001C53.1004 61.4001 50.7004 57.0001 48.9004 52.8001C46.4004 47.0001 44.8004 40.6001 45.3004 34.2001C45.3004 33.7001 44.6004 33.7001 44.5004 34.2001C44.0004 40.6001 45.5004 47.0001 48.0004 52.9001C49.9004 57.3001 52.3004 61.9001 55.8004 65.3001C56.1004 65.6001 56.5004 65.3001 56.4004 64.9001C54.5004 57.3001 53.2004 49.5001 52.4004 41.7001C51.4004 32.0001 51.2004 22.1001 53.3004 12.5001C53.9004 9.70008 54.7004 6.90006 55.8004 4.30006C56.0004 3.90006 55.5004 3.50006 55.2004 3.80006C53.6004 5.50006 52.4004 7.80006 51.3004 9.80006C50.1004 12.2001 49.0004 14.7001 48.1004 17.2001C46.2004 22.7001 45.0004 28.4001 44.4004 34.1001C44.4004 34.6001 45.1004 34.6001 45.2004 34.1001L45.4004 34.2001Z" fill="#231F20"/>
<path d="M53.0998 29.7996C53.0998 22.9996 53.5998 16.0996 55.4998 9.59961C55.9998 7.89961 56.4998 6.19961 57.2998 4.59961C57.4998 4.19961 57.5998 3.69962 57.8998 3.29962C58.3998 2.49962 59.8998 2.49963 60.7998 2.49963L60.3998 2.09961C60.2998 9.39961 60.0998 16.6996 59.9998 23.9996L59.2998 58.8996C59.2998 61.5996 59.2998 64.2996 59.0998 66.9996L59.5998 66.5996C58.9998 66.5996 58.2998 66.3996 58.0998 65.8996C57.9998 65.6996 57.9998 65.3996 57.8998 65.0996C57.6998 64.2996 57.4998 63.3996 57.2998 62.5996C56.6998 59.8996 56.0998 57.1996 55.5998 54.3996C54.0998 46.2996 53.1998 37.9996 53.0998 29.6996C53.0998 29.1996 52.2998 29.1996 52.2998 29.6996C52.2998 38.2996 53.3998 46.7996 54.9998 55.2996C55.4998 58.0996 56.0998 60.7996 56.7998 63.5996C56.9998 64.3996 57.1998 65.0996 57.3998 65.8996C57.5998 66.8996 58.4998 67.0996 59.4998 67.2996C59.6998 67.2996 59.9998 67.2996 59.9998 66.8996C60.0998 59.5996 60.2998 52.2996 60.3998 44.9996L61.0998 10.0996C61.0998 7.39961 61.0998 4.69963 61.2998 1.99963C61.2998 1.79963 61.0998 1.59961 60.8998 1.59961C59.8998 1.59961 58.0998 1.59963 57.4998 2.49963C57.2998 2.79963 57.0998 3.29964 56.8998 3.69964C56.1998 5.29964 55.5998 6.89961 55.0998 8.59961C53.0998 15.3996 52.3998 22.5996 52.4998 29.6996C52.4998 30.1996 53.2998 30.1996 53.2998 29.6996L53.0998 29.7996Z" fill="#231F20"/>
<path d="M29.1997 87.8002C25.5997 86.2002 22.5997 83.5002 19.9997 80.7002C17.3997 77.9002 14.7997 74.6002 12.7997 71.1002C10.7997 67.6002 9.0997 63.9002 8.2997 60.0002C7.4997 56.1002 8.19974 52.0002 9.39974 48.2002C10.0997 46.2002 10.9997 44.2002 12.1997 42.5002C13.1997 41.0002 14.5997 39.2002 16.1997 38.3002L15.5997 38.0002C14.8997 44.7002 14.4997 51.4002 14.9997 58.1002C15.2997 61.4002 15.6997 64.9002 17.1997 67.9002C19.0997 71.7002 21.4997 75.3002 23.7997 78.9002C25.8997 82.3002 28.0997 85.6002 30.1997 89.0002L30.5997 88.5002C30.0997 88.4002 29.5997 88.2002 29.0997 88.0002C28.6997 87.8002 28.4997 88.5002 28.8997 88.7002C29.3997 88.9002 29.8997 89.1002 30.3997 89.2002C30.6997 89.2002 30.9997 88.9002 30.7997 88.7002C26.5997 82.3002 22.4997 75.8002 18.5997 69.2002C14.6997 62.6002 15.2997 54.7002 15.5997 47.5002C15.6997 44.4002 15.9997 41.3002 16.2997 38.1002C16.2997 37.8002 15.9997 37.6002 15.6997 37.8002C12.8997 39.5002 10.6997 43.1002 9.49972 46.0002C7.89972 49.7002 6.79973 53.9002 7.19973 58.0002C7.59973 62.1002 9.09974 65.8002 10.8997 69.4002C12.7997 73.2002 15.0997 76.7002 17.8997 79.9002C20.8997 83.4002 24.5997 86.8002 28.7997 88.7002C29.1997 88.9002 29.5997 88.2002 29.1997 88.0002V87.8002Z" fill="#231F20"/>
<path d="M19.0998 67.0999C16.8998 63.0999 16.8999 57.8 16.7999 53.3C16.6999 48.8 16.9999 44.3 17.3999 39.8H16.6999C18.8999 46.3 21.3999 52.6 23.9999 58.8C26.5999 65 27.9998 71.5 29.0998 78C29.5998 80.8 29.9999 83.7 30.2999 86.5L30.9999 86.3C26.8999 80 22.7998 73.6 19.0998 67C18.8998 66.6 18.1999 67 18.3999 67.4C22.0999 74 26.1999 80.4 30.2999 86.7C30.4999 87 30.9999 86.9 30.9999 86.5C30.3999 81 29.4999 75.4 28.1999 70C27.3999 66.8 26.5999 63.5 25.3999 60.5C23.9999 56.8 22.2999 53.2 20.8999 49.5C19.6999 46.3 18.4999 43 17.2999 39.8C17.1999 39.4 16.5998 39.5 16.5998 39.8C16.1998 44.5 15.8999 49.3 15.9999 54C15.9999 58.4 16.1999 63.5 18.3999 67.5C18.5999 67.9 19.2998 67.4999 19.0998 67.0999Z" fill="#231F20"/>
<path d="M26.0004 58.5004C23.1004 51.7004 20.4004 44.7004 18.0004 37.7004L17.5004 38.2004C19.9004 39.0004 21.8004 40.9004 23.2004 42.9004C24.5004 44.8004 25.7004 46.7004 26.9004 48.7004C29.3004 52.7004 30.9004 57.0004 32.6004 61.4004C34.3004 65.8004 35.8004 70.2004 36.0004 74.9004C36.0004 77.3004 35.8004 79.7004 35.3004 82.1004C34.8004 84.5004 34.4004 87.1004 32.0004 88.2004L32.6004 88.5004C32.2004 84.3004 31.6004 80.2004 30.9004 76.1004C29.8004 70.2004 28.5004 64.2004 26.1004 58.6004C25.9004 58.2004 25.3004 58.6004 25.4004 59.0004C27.7004 64.5004 29.1004 70.5004 30.1004 76.3004C30.8004 80.3004 31.4004 84.4004 31.8004 88.5004C31.8004 88.8004 32.1004 89.0004 32.4004 88.8004C35.7004 87.3004 36.0004 83.0004 36.5004 79.8004C37.0004 75.8004 36.7004 71.9004 35.7004 68.0004C34.7004 64.1004 33.2004 60.4004 31.7004 56.7004C30.2004 53.0004 28.4004 49.3004 26.2004 45.9004C24.0004 42.5004 21.9004 38.7004 17.9004 37.4004C17.6004 37.4004 17.4004 37.6004 17.4004 37.9004C19.8004 45.0004 22.5004 52.0004 25.5004 58.9004C25.7004 59.3004 26.3004 58.9004 26.2004 58.5004H26.0004Z" fill="#231F20"/>
<path d="M11.3004 110.4C15.8004 108.7 20.1004 113.2 22.4004 116.6C25.1004 120.7 26.8004 125.3 28.9004 129.7C32.9004 137.8 38.1004 145.7 39.1004 154.9C39.4004 157.2 39.4004 159.6 39.1004 162C38.7004 164.5 37.9004 167.8 35.9004 169.7L36.5004 169.9C35.0004 162.5 33.1004 155.1 31.2004 147.8C29.7004 142.1 27.8004 136.7 25.1004 131.4C22.7004 126.9 19.9004 122.5 16.8004 118.4C14.8004 115.7 12.6004 113 10.3004 110.5V111.1C10.6004 110.9 10.9004 110.6 11.3004 110.4C11.7004 110.2 11.3004 109.5 10.9004 109.7C10.5004 109.9 10.1004 110.1 9.80039 110.4C9.60039 110.5 9.60039 110.8 9.80039 111C15.1004 116.8 19.7004 123.2 23.5004 130C26.3004 135.1 28.5004 140.4 30.0004 146.1C31.4004 151.3 32.7004 156.6 34.0004 161.8C34.7004 164.5 35.3004 167.3 35.9004 170C35.9004 170.3 36.3004 170.3 36.5004 170.2C38.1004 168.7 39.0004 166.1 39.5004 164C40.0004 161.9 40.2004 159.6 40.2004 157.3C40.0004 153.2 39.0004 149.2 37.5004 145.4C35.5004 140.2 32.7004 135.4 30.2004 130.4C27.7004 125.4 25.9004 120.2 22.8004 115.7C20.4004 112.2 15.9004 107.9 11.2004 109.7C10.7004 109.9 11.0004 110.6 11.4004 110.4H11.3004Z" fill="#231F20"/>
<path d="M32.1998 169.3C23.9998 165.5 16.9998 159.2 10.8998 152.6C7.79976 149.3 5.39971 145.6 4.09971 141.3C2.79971 137.2 2.49976 132.9 2.89976 128.7C3.39976 123.7 4.99971 118.7 7.59971 114.3L6.89977 114.1C6.79977 133.3 15.8998 151.3 28.6998 165.2C30.4998 167.1 32.2998 169 34.1998 170.7L34.4998 170.1C33.6998 170.1 32.9998 169.7 32.2998 169.4C31.8998 169.2 31.4998 169.9 31.8998 170.1C32.6998 170.5 33.5998 170.8 34.4998 170.9C34.7998 170.9 34.9998 170.5 34.7998 170.3C23.5998 160.4 14.6998 147.1 10.3998 132.8C8.59976 126.8 7.69975 120.6 7.69975 114.3C7.69975 113.9 7.19974 113.8 6.99974 114.1C2.49974 121.6 0.899765 130.9 2.89976 139.5C3.89976 143.7 5.69972 147.5 8.29972 150.8C11.2998 154.6 14.8998 157.9 18.4998 161C22.5998 164.6 26.9998 167.8 31.8998 170.1C32.2998 170.3 32.6998 169.7 32.2998 169.4L32.1998 169.3Z" fill="#231F20"/>
<path d="M8.69997 112.5C8.89997 112.2 9.09998 112 9.39998 111.7H8.89998C13.6999 117 17.9999 122.8 21.5999 129C24.2999 133.7 26.6999 138.6 28.1999 143.8C29.6999 148.9 30.8999 154.1 32.1999 159.3C32.9999 162.6 33.7999 165.8 34.4999 169.1L35.0999 168.7C23.8999 158.6 14.9999 145.1 10.9999 130.5C9.39996 124.5 8.69998 118.3 8.89998 112.1C8.89998 111.6 8.19993 111.6 8.09993 112.1C7.39993 131.3 16.0999 149.3 28.6999 163.3C30.4999 165.3 32.4999 167.3 34.4999 169.2C34.7999 169.5 35.1999 169.2 35.0999 168.8C33.2999 160.7 31.2999 152.6 29.1999 144.6C26.5999 135 21.3999 126.2 15.3999 118.3C13.4999 115.8 11.4999 113.3 9.39998 111C9.29998 110.8 8.99998 110.9 8.89998 111C8.69998 111.2 8.39997 111.5 8.19997 111.8C7.89997 112.2 8.39997 112.7 8.69997 112.3V112.5Z" fill="#231F20"/>
<path d="M113.9 147.9C114.7 152.1 114.7 156.6 114.7 160.9C114.7 165.2 114.2 169.1 112.6 172.9C109.9 179.7 104.7 185.3 98.4004 189.1C95.1004 191.1 91.2004 192.9 87.3004 192.3L87.5004 192.9C92.6004 188.8 97.0004 184 101.1 179C103.9 175.6 106.4 172.1 108.4 168.1C110.1 164.6 111.5 160.9 112.6 157.1C113.5 154.1 114.2 150.9 114.7 147.8C114.7 147.3 114 147.1 114 147.6C113 154 111.2 160.4 108.5 166.3C104.9 174.2 99.1004 180.9 93.0004 187C91.1004 188.9 89.2004 190.7 87.1004 192.4C86.9004 192.6 87.1004 193 87.3004 193C90.6004 193.5 93.9004 192.4 96.8004 190.9C100 189.3 103 187.2 105.5 184.7C111.4 179.2 115.1 171.5 115.5 163.5C115.6 160.8 115.5 158.1 115.5 155.4C115.5 152.7 115.3 150.2 114.8 147.6C114.8 147.1 114 147.3 114.1 147.8L113.9 147.9Z" fill="#231F20"/>
<path d="M80.9002 185.8C79.6002 181.5 80.5002 177.5 82.5002 173.6C84.2002 170.4 86.2002 167.2 88.1002 164.1C91.7002 158.4 95.9002 153 101.7 149.3C103.4 148.2 105.2 147.3 107 146.7C108.7 146.1 111 145.3 112.8 145.9L112.6 145.3C106.9 150.1 101.5 155.2 96.3002 160.5C90.8002 166.2 87.1002 173.1 84.5002 180.5C83.5002 183.5 82.5002 186.5 82.0002 189.6H82.7002C81.9002 188.4 81.3002 187.1 80.8002 185.7C80.6002 185.2 79.9002 185.4 80.1002 185.9C80.6002 187.3 81.2002 188.6 82.1002 189.8C82.3002 190 82.7002 190.1 82.8002 189.8C83.8002 183.5 86.3002 177.2 89.2002 171.6C91.0002 168.1 93.2002 164.9 95.9002 162C99.2002 158.5 102.6 155.2 106.2 151.9C108.5 149.8 110.8 147.7 113.2 145.7C113.4 145.5 113.2 145.2 113 145.1C111.6 144.6 109.9 145 108.5 145.3C106.7 145.8 105 146.4 103.4 147.3C100.5 148.8 97.8002 150.9 95.5002 153.2C89.9002 158.7 85.8002 165.9 82.1002 172.7C79.9002 176.9 78.8002 181.2 80.2002 185.9C80.3002 186.4 81.1002 186.2 80.9002 185.7V185.8Z" fill="#231F20"/>
<path d="M96.4996 163.3C101.9 157.7 107.5 152.3 113.5 147.2L112.9 146.8C112.2 151.8 110.9 156.8 109.2 161.6C108 165 106.4 168.2 104.6 171.3C102.4 174.8 99.6996 178 96.9996 181C93.6996 184.7 90.1996 188.4 86.2996 191.5C85.8996 191.8 85.8996 191.9 85.4996 191.5C84.9996 191.2 84.1996 191 84.1996 190.5C84.1996 189.9 84.3996 189.2 84.5996 188.7C85.0996 186.5 85.6996 184.4 86.3996 182.3C88.5996 175.5 91.7996 168.6 96.7996 163.3C97.0996 163 96.5996 162.4 96.2996 162.8C91.4996 168 88.2996 174.6 86.0996 181.2C85.2996 183.6 84.4996 186.1 83.9996 188.6C83.7996 189.3 83.6996 189.9 83.5996 190.6C83.5996 191.7 85.1996 192.3 86.0996 192.7C86.0996 192.7 86.2996 192.7 86.3996 192.7C91.1996 189 95.3996 184.5 99.3996 179.9C102.5 176.2 105.4 172.5 107.6 168.2C109.5 164.5 110.9 160.6 112 156.7C112.9 153.6 113.6 150.4 114 147.2C114 146.8 113.7 146.6 113.4 146.8C107.5 151.9 101.8 157.3 96.3996 162.9C96.0996 163.2 96.5996 163.8 96.8996 163.4L96.4996 163.3Z" fill="#231F20"/>
</g>
<defs>
<clipPath id="clip0_208_563">
<rect width="123" height="265" fill="white"/>
</clipPath>
</defs>
</svg>
