<svg width="109" height="265" viewBox="0 0 109 265" fill="none" xmlns="http://www.w3.org/2000/svg">
<g clip-path="url(#clip0_208_841)">
<path d="M72.6996 6.9002C74.4116 6.9002 75.7996 5.51225 75.7996 3.80017C75.7996 2.08809 74.4116 0.700195 72.6996 0.700195C70.9875 0.700195 69.5996 2.08809 69.5996 3.80017C69.5996 5.51225 70.9875 6.9002 72.6996 6.9002Z" fill="#231F20"/>
<path d="M75.5005 3.79948C75.5005 4.89948 74.8003 5.99952 73.7003 6.39952C72.6003 6.79952 71.4004 6.39947 70.6004 5.59947C69.8004 4.79947 69.8005 3.3995 70.4005 2.4995C71.0005 1.5995 72.1003 0.99951 73.2003 1.19951C74.5003 1.39951 75.4005 2.59952 75.4005 3.89952C75.4005 4.39952 76.2003 4.39952 76.2003 3.89952C76.2003 2.39952 75.3005 1.09947 73.9005 0.599473C72.5005 0.0994728 70.9005 0.599473 70.0005 1.59947C69.1005 2.59947 68.9003 4.39947 69.7003 5.59947C70.5003 6.79947 71.9005 7.49951 73.4005 7.19951C75.0005 6.89951 76.2003 5.39948 76.2003 3.79948C76.2003 3.29948 75.5005 3.29948 75.4005 3.79948H75.5005Z" fill="#231F20"/>
<path d="M76.6 17.6004C78.3121 17.6004 79.7 16.2125 79.7 14.5004C79.7 12.7883 78.3121 11.4004 76.6 11.4004C74.8879 11.4004 73.5 12.7883 73.5 14.5004C73.5 16.2125 74.8879 17.6004 76.6 17.6004Z" fill="#231F20"/>
<path d="M79.3002 14.4997C79.3002 15.5997 78.6002 16.6997 77.5002 17.0997C76.4002 17.4997 75.2002 17.0997 74.4002 16.2997C73.6002 15.4997 73.6001 14.0997 74.2001 13.1997C74.8001 12.2997 75.9002 11.6997 77.0002 11.8997C78.3002 12.0997 79.2001 13.2997 79.2001 14.5997C79.2001 15.0997 80.0002 15.0997 80.0002 14.5997C80.0002 13.0997 79.1001 11.7997 77.7001 11.2997C76.3001 10.7997 74.7002 11.2997 73.8002 12.2997C72.9002 13.2997 72.7002 15.0997 73.5002 16.2997C74.3002 17.4997 75.7001 18.1997 77.2001 17.8997C78.8001 17.5997 80.0002 16.0997 80.0002 14.4997C80.0002 13.9997 79.3001 13.9997 79.2001 14.4997H79.3002Z" fill="#231F20"/>
<path d="M59.1 9.99981C60.8121 9.99981 62.2 8.61192 62.2 6.89983C62.2 5.18775 60.8121 3.7998 59.1 3.7998C57.3879 3.7998 56 5.18775 56 6.89983C56 8.61192 57.3879 9.99981 59.1 9.99981Z" fill="#231F20"/>
<path d="M61.8002 6.90007C61.8002 8.00007 61.1002 9.10005 60.0002 9.50005C58.9002 9.90005 57.7002 9.50006 56.9002 8.70006C56.1002 7.90006 56.1001 6.50002 56.7001 5.60002C57.3001 4.70002 58.4002 4.10003 59.5002 4.30003C60.8002 4.50003 61.7001 5.70005 61.7001 7.00005C61.7001 7.50005 62.5002 7.50005 62.5002 7.00005C62.5002 5.50005 61.6001 4.20006 60.2001 3.70006C58.8001 3.20006 57.2002 3.70006 56.3002 4.70006C55.4002 5.70006 55.2002 7.50006 56.0002 8.70006C56.8002 9.90006 58.2001 10.6001 59.7001 10.3001C61.3001 10 62.5002 8.50007 62.5002 6.90007C62.5002 6.40007 61.8001 6.40007 61.7001 6.90007H61.8002Z" fill="#231F20"/>
<path d="M54.1996 21.4002C55.9116 21.4002 57.2996 20.0123 57.2996 18.3002C57.2996 16.5881 55.9116 15.2002 54.1996 15.2002C52.4875 15.2002 51.0996 16.5881 51.0996 18.3002C51.0996 20.0123 52.4875 21.4002 54.1996 21.4002Z" fill="#231F20"/>
<path d="M56.8999 18.3004C56.8999 19.4004 56.1998 20.5004 55.0998 20.9004C53.9998 21.3004 52.7999 20.9004 51.9999 20.1004C51.1999 19.3004 51.1999 17.9004 51.7999 17.0004C52.3999 16.1004 53.4998 15.5004 54.5998 15.7004C55.8998 15.9004 56.7999 17.1004 56.7999 18.4004C56.7999 18.9004 57.5998 18.9004 57.5998 18.4004C57.5998 16.9004 56.6999 15.6004 55.2999 15.1004C53.8999 14.6004 52.2999 15.1004 51.3999 16.1004C50.4999 17.1004 50.2998 18.9004 51.0998 20.1004C51.8998 21.3004 53.2999 22.0004 54.7999 21.7004C56.3999 21.4004 57.5998 19.9004 57.5998 18.3004C57.5998 17.8004 56.8999 17.8004 56.7999 18.3004H56.8999Z" fill="#231F20"/>
<path d="M73.5004 28.4002C75.2125 28.4002 76.6004 27.0123 76.6004 25.3002C76.6004 23.5881 75.2125 22.2002 73.5004 22.2002C71.7883 22.2002 70.4004 23.5881 70.4004 25.3002C70.4004 27.0123 71.7883 28.4002 73.5004 28.4002Z" fill="#231F20"/>
<path d="M76.1995 25.3004C76.1995 26.4004 75.4996 27.5004 74.3996 27.9004C73.2996 28.3004 72.0996 27.9004 71.2996 27.1004C70.4996 26.3004 70.4996 24.9004 71.0996 24.0004C71.6996 23.1004 72.7996 22.5004 73.8996 22.7004C75.1996 22.9004 76.0996 24.1004 76.0996 25.4004C76.0996 25.9004 76.8996 25.9004 76.8996 25.4004C76.8996 23.9004 75.9996 22.6004 74.5996 22.1004C73.1996 21.6004 71.5995 22.1004 70.6995 23.1004C69.7995 24.1004 69.5996 25.9004 70.3996 27.1004C71.1996 28.3004 72.5996 29.0004 74.0996 28.7004C75.6996 28.4004 76.8996 26.9004 76.8996 25.3004C76.8996 24.8004 76.1996 24.8004 76.0996 25.3004H76.1995Z" fill="#231F20"/>
<path d="M67.1996 39.9998C68.9116 39.9998 70.2996 38.6119 70.2996 36.8998C70.2996 35.1877 68.9116 33.7998 67.1996 33.7998C65.4875 33.7998 64.0996 35.1877 64.0996 36.8998C64.0996 38.6119 65.4875 39.9998 67.1996 39.9998Z" fill="#231F20"/>
<path d="M70.0005 36.9001C70.0005 38.0001 69.3003 39.1001 68.2003 39.5001C67.1003 39.9001 65.9004 39.5001 65.1004 38.7001C64.3004 37.9001 64.3005 36.5001 64.9005 35.6001C65.5005 34.7001 66.6003 34.1001 67.7003 34.3001C69.0003 34.5001 69.9005 35.7001 69.9005 37.0001C69.9005 37.5001 70.7003 37.5001 70.7003 37.0001C70.7003 35.5001 69.8005 34.2001 68.4005 33.7001C67.0005 33.2001 65.4005 33.7001 64.5005 34.7001C63.6005 35.7001 63.4003 37.5001 64.2003 38.7001C65.0003 39.9001 66.4005 40.6001 67.9005 40.3001C69.5005 40.0001 70.7003 38.5001 70.7003 36.9001C70.7003 36.4001 70.0005 36.4001 69.9005 36.9001H70.0005Z" fill="#231F20"/>
<path d="M49.1 33.7C50.8121 33.7 52.2 32.3121 52.2 30.6C52.2 28.8879 50.8121 27.5 49.1 27.5C47.3879 27.5 46 28.8879 46 30.6C46 32.3121 47.3879 33.7 49.1 33.7Z" fill="#231F20"/>
<path d="M51.8999 30.6003C51.8999 31.7003 51.1998 32.8003 50.0998 33.2003C48.9998 33.6003 47.7999 33.2003 46.9999 32.4003C46.1999 31.6003 46.1999 30.2003 46.7999 29.3003C47.3999 28.4003 48.4998 27.8003 49.5998 28.0003C50.8998 28.2003 51.7999 29.4003 51.7999 30.7003C51.7999 31.2003 52.5998 31.2003 52.5998 30.7003C52.5998 29.2003 51.6999 27.9003 50.2999 27.4003C48.8999 26.9003 47.2999 27.4003 46.3999 28.4003C45.4999 29.4003 45.2998 31.2003 46.0998 32.4003C46.8998 33.6003 48.2999 34.3003 49.7999 34.0003C51.3999 33.7003 52.5998 32.2003 52.5998 30.6003C52.5998 30.1003 51.8999 30.1003 51.7999 30.6003H51.8999Z" fill="#231F20"/>
<path d="M44.8998 46.7C46.6119 46.7 47.9998 45.3121 47.9998 43.6C47.9998 41.8879 46.6119 40.5 44.8998 40.5C43.1877 40.5 41.7998 41.8879 41.7998 43.6C41.7998 45.3121 43.1877 46.7 44.8998 46.7Z" fill="#231F20"/>
<path d="M47.6995 43.6003C47.6995 44.7003 46.9996 45.8003 45.8996 46.2003C44.7996 46.6003 43.5996 46.2003 42.7996 45.4003C41.9996 44.6003 41.9996 43.2003 42.5996 42.3003C43.1996 41.4003 44.2996 40.8003 45.3996 41.0003C46.6996 41.2003 47.5996 42.4003 47.5996 43.7003C47.5996 44.2003 48.3996 44.2003 48.3996 43.7003C48.3996 42.2003 47.4996 40.9003 46.0996 40.4003C44.6996 39.9003 43.0995 40.4003 42.1995 41.4003C41.2995 42.4003 41.0996 44.2003 41.8996 45.4003C42.6996 46.6003 44.0996 47.3003 45.5996 47.0003C47.1996 46.7003 48.3996 45.2003 48.3996 43.6003C48.3996 43.1003 47.6996 43.1003 47.5996 43.6003H47.6995Z" fill="#231F20"/>
<path d="M65.3002 53.6004C67.0123 53.6004 68.4002 52.2125 68.4002 50.5004C68.4002 48.7883 67.0123 47.4004 65.3002 47.4004C63.5882 47.4004 62.2002 48.7883 62.2002 50.5004C62.2002 52.2125 63.5882 53.6004 65.3002 53.6004Z" fill="#231F20"/>
<path d="M68.0004 50.4997C68.0004 51.5997 67.3003 52.6997 66.2003 53.0997C65.1003 53.4997 63.9003 53.0997 63.1003 52.2997C62.3003 51.4997 62.3004 50.0997 62.9004 49.1997C63.5004 48.2997 64.6003 47.6997 65.7003 47.8997C67.0003 48.0997 67.9004 49.2997 67.9004 50.5997C67.9004 51.0997 68.7003 51.0997 68.7003 50.5997C68.7003 49.0997 67.8004 47.7997 66.4004 47.2997C65.0004 46.7997 63.4004 47.2997 62.5004 48.2997C61.6004 49.2997 61.4003 51.0997 62.2003 52.2997C63.0003 53.4997 64.4004 54.1997 65.9004 53.8997C67.5004 53.5997 68.7003 52.0997 68.7003 50.4997C68.7003 49.9997 68.0004 49.9997 67.9004 50.4997H68.0004Z" fill="#231F20"/>
<path d="M63.3998 65.9002C65.1119 65.9002 66.4998 64.5123 66.4998 62.8002C66.4998 61.0881 65.1119 59.7002 63.3998 59.7002C61.6877 59.7002 60.2998 61.0881 60.2998 62.8002C60.2998 64.5123 61.6877 65.9002 63.3998 65.9002Z" fill="#231F20"/>
<path d="M66.1995 62.8005C66.1995 63.9005 65.4996 65.0005 64.3996 65.4005C63.2996 65.8005 62.0996 65.4004 61.2996 64.6004C60.4996 63.8004 60.4996 62.4005 61.0996 61.5005C61.6996 60.6005 62.7996 60.0005 63.8996 60.2005C65.1996 60.4005 66.0996 61.6005 66.0996 62.9005C66.0996 63.4005 66.8996 63.4005 66.8996 62.9005C66.8996 61.4005 65.9996 60.1004 64.5996 59.6004C63.1996 59.1004 61.5995 59.6004 60.6995 60.6004C59.7995 61.6004 59.5996 63.4004 60.3996 64.6004C61.1996 65.8004 62.5996 66.5004 64.0996 66.2004C65.6996 65.9004 66.8996 64.4005 66.8996 62.8005C66.8996 62.3005 66.1996 62.3005 66.0996 62.8005H66.1995Z" fill="#231F20"/>
<path d="M42.1996 60.4998C43.9116 60.4998 45.2996 59.1119 45.2996 57.3998C45.2996 55.6877 43.9116 54.2998 42.1996 54.2998C40.4875 54.2998 39.0996 55.6877 39.0996 57.3998C39.0996 59.1119 40.4875 60.4998 42.1996 60.4998Z" fill="#231F20"/>
<path d="M44.8999 57.4001C44.8999 58.5001 44.1998 59.6001 43.0998 60.0001C41.9998 60.4001 40.7999 60.0001 39.9999 59.2001C39.1999 58.4001 39.1999 57.0001 39.7999 56.1001C40.3999 55.2001 41.4998 54.6001 42.5998 54.8001C43.8998 55.0001 44.7999 56.2001 44.7999 57.5001C44.7999 58.0001 45.5998 58.0001 45.5998 57.5001C45.5998 56.0001 44.6999 54.7001 43.2999 54.2001C41.8999 53.7001 40.2999 54.2001 39.3999 55.2001C38.4999 56.2001 38.2998 58.0001 39.0998 59.2001C39.8998 60.4001 41.2999 61.1001 42.7999 60.8001C44.3999 60.5001 45.5998 59.0001 45.5998 57.4001C45.5998 56.9001 44.8999 56.9001 44.7999 57.4001H44.8999Z" fill="#231F20"/>
<path d="M42.8998 71.1004C44.6119 71.1004 45.9998 69.7125 45.9998 68.0004C45.9998 66.2883 44.6119 64.9004 42.8998 64.9004C41.1877 64.9004 39.7998 66.2883 39.7998 68.0004C39.7998 69.7125 41.1877 71.1004 42.8998 71.1004Z" fill="#231F20"/>
<path d="M45.6 67.9997C45.6 69.0997 44.9 70.1997 43.8 70.5997C42.7 70.9997 41.4999 70.5997 40.6999 69.7997C39.8999 68.9997 39.9 67.5997 40.5 66.6997C41.1 65.7997 42.2 65.1997 43.3 65.3997C44.6 65.5997 45.5 66.7997 45.5 68.0997C45.5 68.5997 46.3 68.5997 46.3 68.0997C46.3 66.5997 45.4 65.2997 44 64.7997C42.6 64.2997 41 64.7997 40.1 65.7997C39.2 66.7997 39 68.5997 39.8 69.7997C40.6 70.9997 42 71.6997 43.5 71.3997C45.1 71.0997 46.3 69.5997 46.3 67.9997C46.3 67.4997 45.6 67.4997 45.5 67.9997H45.6Z" fill="#231F20"/>
<path d="M42.1996 82.9998C43.9116 82.9998 45.2996 81.6119 45.2996 79.8998C45.2996 78.1877 43.9116 76.7998 42.1996 76.7998C40.4875 76.7998 39.0996 78.1877 39.0996 79.8998C39.0996 81.6119 40.4875 82.9998 42.1996 82.9998Z" fill="#231F20"/>
<path d="M44.8999 79.9001C44.8999 81.0001 44.1998 82.1001 43.0998 82.5001C41.9998 82.9001 40.7999 82.5001 39.9999 81.7001C39.1999 80.9001 39.1999 79.5001 39.7999 78.6001C40.3999 77.7001 41.4998 77.1001 42.5998 77.3001C43.8998 77.5001 44.7999 78.7001 44.7999 80.0001C44.7999 80.5001 45.5998 80.5001 45.5998 80.0001C45.5998 78.5001 44.6999 77.2001 43.2999 76.7001C41.8999 76.2001 40.2999 76.7001 39.3999 77.7001C38.4999 78.7001 38.2998 80.5001 39.0998 81.7001C39.8998 82.9001 41.2999 83.6001 42.7999 83.3001C44.3999 83.0001 45.5998 81.5001 45.5998 79.9001C45.5998 79.4001 44.8999 79.4001 44.7999 79.9001H44.8999Z" fill="#231F20"/>
<path d="M57.1996 88.1004C58.9116 88.1004 60.2996 86.7125 60.2996 85.0004C60.2996 83.2883 58.9116 81.9004 57.1996 81.9004C55.4875 81.9004 54.0996 83.2883 54.0996 85.0004C54.0996 86.7125 55.4875 88.1004 57.1996 88.1004Z" fill="#231F20"/>
<path d="M59.8999 84.9997C59.8999 86.0997 59.1998 87.1997 58.0998 87.5997C56.9998 87.9997 55.7999 87.5997 54.9999 86.7997C54.1999 85.9997 54.1999 84.5997 54.7999 83.6997C55.3999 82.7997 56.4998 82.1997 57.5998 82.3997C58.8998 82.5997 59.7999 83.7997 59.7999 85.0997C59.7999 85.5997 60.5998 85.5997 60.5998 85.0997C60.5998 83.5997 59.6999 82.2997 58.2999 81.7997C56.8999 81.2997 55.2999 81.7997 54.3999 82.7997C53.4999 83.7997 53.2998 85.5997 54.0998 86.7997C54.8998 87.9997 56.2999 88.6997 57.7999 88.3997C59.3999 88.0997 60.5998 86.5997 60.5998 84.9997C60.5998 84.4997 59.8999 84.4997 59.7999 84.9997H59.8999Z" fill="#231F20"/>
<path d="M59.1 74.7C60.8121 74.7 62.2 73.3121 62.2 71.6C62.2 69.8879 60.8121 68.5 59.1 68.5C57.3879 68.5 56 69.8879 56 71.6C56 73.3121 57.3879 74.7 59.1 74.7Z" fill="#231F20"/>
<path d="M61.8002 71.6003C61.8002 72.7003 61.1002 73.8002 60.0002 74.2002C58.9002 74.6002 57.7002 74.2003 56.9002 73.4003C56.1002 72.6003 56.1001 71.2003 56.7001 70.3003C57.3001 69.4003 58.4002 68.8003 59.5002 69.0003C60.8002 69.2003 61.7001 70.4002 61.7001 71.7002C61.7001 72.2002 62.5002 72.2002 62.5002 71.7002C62.5002 70.2002 61.6001 68.9003 60.2001 68.4003C58.8001 67.9003 57.2002 68.4003 56.3002 69.4003C55.4002 70.4003 55.2002 72.2003 56.0002 73.4003C56.8002 74.6003 58.2001 75.3003 59.7001 75.0003C61.3001 74.7003 62.5002 73.2003 62.5002 71.6003C62.5002 71.1003 61.8001 71.1003 61.7001 71.6003H61.8002Z" fill="#231F20"/>
<path d="M108.2 117.1C108.2 117.1 107 117 106.8 117C102.8 116.8 98.8004 117.5 95.1004 119C87.5004 122.2 81.2004 127.9 76.0004 134.3C70.2004 141.5 65.7004 149.6 62.0004 158.1C59.0004 164.9 56.5004 172 55.1004 179.3C54.0004 185 52.7004 190.7 50.7004 196.1C49.9004 198.2 49.1004 200.3 48.0004 202.2C47.6004 196.9 47.2004 191.6 46.9004 186.3C46.2004 176 45.7005 165.8 45.3004 155.5C44.9004 145.6 44.7005 135.7 44.8004 125.9C44.8004 117.4 45.1004 108.8 45.9004 100.3C46.3004 95.7002 47.0004 91.2002 47.9004 86.7002C48.1004 86.7002 48.2004 86.7002 48.4004 86.5002C49.7004 86.1002 51.1004 85.8002 52.5004 85.5002C53.8004 85.2002 55.4004 84.9002 56.7004 85.2002C57.0004 85.2002 57.5004 84.5002 57.7004 84.6002C56.5004 84.3002 55.3004 84.6002 54.1004 84.8002C52.7004 85.0002 51.2005 85.4002 49.8004 85.8002C49.3004 85.9002 48.9004 86.1002 48.4004 86.2002C48.4004 86.2002 48.0004 86.4002 47.9004 86.4002C48.8004 81.9002 49.8004 77.3002 50.9004 72.8002C52.2004 72.8002 53.6004 72.6002 54.9004 72.5002C56.1004 72.5002 57.3004 72.3002 58.5004 72.2002C58.9004 72.2002 59.2004 71.6002 59.5004 71.6002C57.0004 71.8002 54.4004 72.0002 51.9004 72.1002C51.6004 72.1002 51.2004 72.2002 51.0004 72.1002C51.0004 72.0002 51.0004 71.8002 51.0004 71.7002C51.5004 69.5002 52.0004 67.3002 52.5004 65.1002C52.8004 63.9002 53.0004 62.8002 53.3004 61.6002C55.2005 61.2002 57.2004 61.3002 59.1004 61.6002C60.3004 61.8002 61.5004 62.1002 62.7004 62.4002C62.7004 62.4002 63.1004 62.2002 63.2004 62.1002C63.2004 62.1002 63.6004 61.8002 63.7004 61.8002C62.5004 61.4002 61.3004 61.2002 60.1004 61.0002C57.9004 60.7002 55.5004 60.5002 53.3004 61.2002C54.1004 57.7002 55.0004 54.2002 55.9004 50.7002C56.2004 50.7002 56.6004 50.7002 56.9004 50.7002H64.6004C64.9004 50.7002 65.3004 50.1002 65.6004 50.1002H56.4004C56.3004 50.1002 56.2004 50.1002 56.1004 50.1002C57.1004 46.0002 58.2005 42.0002 59.3004 37.9002C61.4004 37.7002 63.4004 37.4002 65.5004 37.2002C65.8004 37.2002 66.2004 37.2002 66.5004 37.1002C66.7004 37.1002 66.9004 36.9002 67.0004 36.8002C67.1004 36.8002 67.4004 36.5002 67.5004 36.5002C65.1004 36.8002 62.7004 37.0002 60.4004 37.3002C60.1004 37.3002 59.8004 37.3002 59.5004 37.3002C60.1004 35.2002 60.7005 33.1002 61.3004 31.1002C61.9004 29.1002 62.5004 27.1002 63.2004 25.1002C65.6004 25.2002 68.1004 25.3002 70.5004 25.4002C70.9004 25.4002 71.3003 25.4002 71.7004 25.4002C71.8003 25.4002 72.1004 25.2002 72.2004 25.1002C72.3003 25.0002 72.6004 24.8002 72.7004 24.8002C70.0004 24.7002 67.3004 24.6002 64.5004 24.4002H63.3004C64.1004 21.8002 65.0004 19.3002 66.0004 16.8002C66.6004 15.2002 67.3004 13.6002 68.0004 12.0002C70.3004 12.7002 72.5004 13.5002 74.8004 14.2002C75.1005 14.3002 75.5004 14.4002 75.9004 14.5002C75.9004 14.5002 76.3004 14.3002 76.4004 14.2002C76.4004 14.2002 76.8004 13.9002 76.9004 13.9002L69.5004 11.5002C69.2004 11.4002 68.8004 11.3002 68.4004 11.2002C69.0004 10.0002 69.6004 8.8002 70.4004 7.7002C71.0004 6.8002 71.6004 5.9002 72.4004 5.2002C72.1004 5.5002 71.6004 5.50018 71.4004 5.80018C69.6004 7.40018 68.5004 9.70021 67.4004 11.9002C67.4004 12.1002 67.2004 12.2002 67.2004 12.4002C66.7004 13.4002 66.3004 14.5002 65.8004 15.5002C64.1004 12.9002 62.4004 10.2002 60.6004 7.60017C60.3004 7.20017 60.1004 6.80021 59.8004 6.40021L58.8004 7.00019C60.7005 9.90019 62.6004 12.8002 64.5004 15.6002C64.8004 16.0002 65.0004 16.4002 65.3004 16.8002C64.4004 19.2002 63.5004 21.6002 62.7004 24.1002C62.7004 24.4002 62.5004 24.7002 62.4004 25.0002L62.0004 26.3002C60.0004 23.9002 58.1004 21.4002 56.1004 19.0002C55.8004 18.6002 55.5004 18.2002 55.2004 17.9002L54.2004 18.5002C56.4004 21.2002 58.5004 23.9002 60.7004 26.5002C61.0004 26.9002 61.3004 27.3002 61.6004 27.6002C60.5004 31.0002 59.5004 34.4002 58.5004 37.9002C58.4004 38.4002 58.2004 38.9002 58.1004 39.4002L51.2004 31.4002C50.8003 31.0002 50.5004 30.6002 50.1004 30.2002L49.1004 30.8002C51.6004 33.7002 54.0004 36.5002 56.5004 39.4002C56.9004 39.8002 57.2004 40.2002 57.6004 40.6002C57.6004 40.6002 57.7004 40.6002 57.9004 40.5002C57.1004 43.5002 56.3004 46.5002 55.5004 49.6002C55.2004 49.4002 54.9004 49.1002 54.7004 48.9002C53.1004 47.8002 51.5004 46.7002 49.9004 45.5002L46.5004 43.1002C46.4004 43.1002 45.6004 43.8002 45.5004 43.7002C48.1004 45.5002 50.6004 47.3002 53.2004 49.1002C53.8003 49.5002 54.3004 49.9002 54.9004 50.3002C55.0004 50.3002 55.2005 50.5002 55.3004 50.5002C54.4004 53.9002 53.6004 57.4002 52.8004 60.8002C52.8004 61.1002 52.7004 61.4002 52.6004 61.7002C52.4004 62.6002 52.2004 63.5002 52.0004 64.3002C49.3004 62.1002 46.7004 59.9002 44.0004 57.8002C43.6004 57.5002 43.2005 57.1002 42.8004 56.8002C42.7005 56.8002 41.9004 57.5002 41.8004 57.4002C44.7005 59.8002 47.6004 62.2002 50.5004 64.6002C50.9004 64.9002 51.3003 65.3002 51.7004 65.6002C51.2004 67.6002 50.8004 69.6002 50.3004 71.6002C49.0004 70.8002 47.8004 70.1002 46.5004 69.3002C45.5004 68.7002 44.5004 68.1002 43.4004 67.5002C43.2004 67.5002 42.5004 68.2002 42.4004 68.1002C44.6004 69.4002 46.8004 70.7002 49.0004 72.1002C49.3004 72.3002 49.7004 72.6002 50.0004 72.7002C49.1004 76.7002 48.2005 80.7002 47.3004 84.8002C47.1004 84.5002 47.0004 84.2002 46.8004 83.9002C46.4004 83.2002 45.8003 82.5002 45.2004 81.9002C44.4004 81.1002 43.6004 80.2002 42.7004 79.6002C42.6004 79.6002 41.8003 80.3002 41.7004 80.2002C43.7004 81.7002 45.8003 83.9002 46.7004 86.3002C46.8003 86.6002 46.7004 86.8002 46.9004 86.9002C46.3004 89.8002 45.8004 92.7002 45.4004 95.7002C44.4004 103.7 44.0004 111.7 43.9004 119.8C43.7004 129.4 43.9004 139.1 44.1004 148.7C44.1004 151.4 44.3004 154 44.4004 156.7C43.0004 153.4 41.6004 150.1 40.2004 146.8C38.6004 143 37.1004 139.3 35.6004 135.5C34.4004 132.4 33.4004 129.2 31.9004 126.3C29.3004 121 25.6004 116.3 22.0004 111.7C18.1004 106.9 14.0004 102.2 9.80042 97.7002C8.30042 96.1002 6.80032 94.5002 5.20032 92.9002C4.70032 92.4002 4.20032 91.9002 3.70032 91.4002C3.50032 91.2002 3.20039 90.7002 2.90039 90.6002C2.90039 90.6002 2.10039 91.0002 1.90039 91.1002C2.30039 95.2002 3.20042 99.3002 4.30042 103.2C5.30042 106.7 6.50035 110.2 8.10035 113.5C8.90035 115.2 9.80039 116.8 10.9004 118.3C12.0004 119.9 13.3004 121.3 14.5004 122.8C20.1004 129.6 25.0004 137.1 28.6004 145.1C30.1004 148.5 31.4004 152.2 31.9004 155.9C32.1004 157.6 32.0004 159.3 32.4004 160.9C32.8004 162.7 33.5004 164.3 34.3004 165.9C37.0004 170.9 41.0004 175.3 45.3004 178.8C45.3004 178.8 45.5004 178.9 45.5004 179C45.5004 179.1 45.5004 179.3 45.5004 179.4C46.0004 187.5 46.6004 195.6 47.2004 203.8C47.3003 205.6 47.5004 207.5 47.6004 209.3C47.8004 212.5 48.1004 215.6 48.4004 218.8C48.9004 224.3 49.3004 229.7 49.8004 235.2C49.8004 235.4 49.8004 235.6 49.8004 235.9C50.4004 242 51.0004 248.1 51.6004 254.2C51.8004 256.2 52.0004 258.2 52.2004 260.2C52.4004 262.2 52.2004 262.4 52.5004 263.3C52.5004 263.4 52.5004 263.6 52.5004 263.7C52.5004 263.5 53.6004 263.3 53.5004 263.1C53.3004 261 53.0004 258.9 52.8004 256.9C52.2005 251.3 51.6004 245.7 51.1004 240.1C50.9004 238.5 50.8003 236.9 50.7004 235.3C53.7004 233 56.1004 230.1 58.1004 226.9C60.5004 223.2 62.4004 219.1 64.1004 215C67.9004 205.8 70.4004 196.2 72.6004 186.5C74.5004 178.1 76.0004 169.5 77.4004 161C77.7004 159.3 77.9003 157.7 78.2004 156C78.7004 153.8 79.4004 151.8 80.3004 149.8C82.3004 145.4 85.1004 141.3 88.0004 137.5C93.1004 131 99.0004 125 105.2 119.6C105.9 119 106.6 118.3 107.4 117.7C107.4 117.7 107.9 117.4 107.9 117.3L108.2 117.1ZM7.30042 96.8002C11.4004 101.2 15.5004 105.7 19.3004 110.3C23.2004 115 27.0004 119.8 29.9004 125.1C31.3004 127.7 32.3004 130.4 33.3004 133.1C34.8004 136.9 36.3004 140.7 37.9004 144.5C39.3004 147.8 40.7004 151.1 42.1004 154.3C42.6004 155.4 43.1004 156.5 43.6004 157.7C43.9004 158.3 44.1004 159 44.4004 159.5C44.4004 159.5 44.4004 159.7 44.5004 159.7C44.5004 161.8 44.7005 163.8 44.8004 165.9C43.2005 162.8 41.6004 159.7 40.1004 156.7C38.5004 153.5 37.0004 150.4 35.5004 147.2C34.3004 144.6 33.3004 142 32.2004 139.4C29.3004 133.1 25.6004 127.2 21.8004 121.4C20.0004 118.5 18.1004 115.7 16.1004 112.9C14.6004 110.8 13.0004 108.8 11.5004 106.7C8.70037 102.5 6.30032 98.0002 4.20032 93.4002C5.30032 94.5002 6.30039 95.6002 7.40039 96.7002L7.30042 96.8002ZM36.6004 167.6C34.7004 164.6 33.1004 161.2 32.9004 157.6C32.8004 154 31.9004 150.6 30.6004 147.2C27.5004 139 22.6004 131.4 17.3004 124.5C14.9004 121.4 12.2004 118.6 10.3004 115.2C8.40042 111.9 7.00039 108.4 5.90039 104.8C5.00039 101.8 4.20035 98.7002 3.60035 95.6002C3.60035 95.2002 3.50039 94.9002 3.40039 94.5002C5.10039 98.1002 7.00035 101.7 9.10035 105.1C10.6004 107.5 12.3004 109.6 13.9004 111.9C15.8004 114.5 17.5004 117.1 19.3004 119.8C23.2004 125.8 27.0004 131.8 30.2004 138.2C31.4004 140.7 32.4004 143.2 33.5004 145.7C34.9004 148.8 36.3004 151.9 37.8004 155C39.2005 157.9 40.7004 160.8 42.1004 163.7C42.9004 165.3 43.7004 167 44.6004 168.6C44.6004 168.6 44.6004 168.8 44.7004 168.8C44.9004 171.7 45.0004 174.6 45.2004 177.6C41.8003 174.8 38.8004 171.4 36.4004 167.7L36.6004 167.6ZM49.9004 200C51.6004 196.4 52.9004 192.5 53.9004 188.6C55.2004 183.9 55.9004 179.1 57.1004 174.3C58.0004 170.8 59.2004 167.3 60.4004 163.8C63.5004 155.5 67.5004 147.4 72.3004 140C77.1005 132.8 83.0004 125.7 90.5004 121.2C93.8004 119.2 97.7004 117.9 101.6 117.6C102.6 117.6 103.6 117.5 104.6 117.5C104.8 117.5 105.9 117.5 106.5 117.5C99.6004 119.9 93.5004 124.4 88.5004 129.5C82.3004 135.7 77.4004 143.1 73.1004 150.8C69.2004 157.9 65.9004 165.3 63.2004 172.8C62.2004 175.6 61.3004 178.5 60.5004 181.5C59.2004 186.4 57.9004 191.2 56.4004 196C54.2004 202.9 51.7004 209.7 49.1004 216.4C49.1004 216 49.1004 215.7 49.1004 215.3C48.8004 211.2 48.4004 207.1 48.1004 203.1C48.8004 202.1 49.4004 201 49.9004 199.9V200ZM106.1 118.6C100.6 123.3 95.4003 128.4 90.7004 133.8C87.5004 137.5 84.6004 141.3 82.1004 145.5C79.8004 149.3 77.9003 153.4 77.2004 157.8C75.9003 165.6 74.7004 173.3 73.1004 181C71.2004 190.6 68.8004 200.2 65.6004 209.5C62.8004 217.5 59.3004 225.9 53.6004 232.4C52.8004 233.3 51.8004 234.2 50.9004 235C50.4004 229.4 49.9004 223.8 49.4004 218.3C51.8004 212.4 54.0004 206.4 56.0004 200.4C57.7004 195.3 59.4004 190.1 60.7004 184.9C61.5004 181.9 62.2004 178.9 63.2004 175.9C65.5004 168.8 68.4003 161.9 71.7004 155.3C75.5004 147.7 80.0004 140.3 85.5004 133.8C90.7004 127.6 96.9004 121.7 104.5 118.8C105.4 118.5 106.2 118.2 107.1 117.9C107.1 118 106.1 118.7 106 118.8L106.1 118.6Z" fill="#231F20"/>
<path d="M108.1 116.8C108.4 116.8 108.3 116.8 108.1 116.8C107.9 116.8 107.7 116.8 107.6 116.8C107 116.8 106.5 116.8 105.9 116.8C104 116.8 102 117 100.1 117.3C96.5002 118 93.2002 119.5 90.1002 121.4C84.2002 124.9 79.3002 129.9 75.1002 135.4C70.6002 141.3 66.8002 147.7 63.6002 154.4C60.4002 161.1 57.4002 168.6 55.7002 176.2C53.6002 185.1 52.3003 194.3 47.9003 202.4L48.6002 202.6C47.3002 185.9 46.3002 169.1 45.7002 152.3C45.1002 135.6 44.8002 118.8 46.2002 102.1C46.6002 97.4998 47.2002 92.9998 48.1002 88.4998C48.1002 88.1998 48.1003 87.4998 48.4003 87.1998C48.7003 86.8998 49.6003 86.8998 50.0003 86.7998C51.0003 86.4998 52.1002 86.2998 53.1002 86.0998C53.6002 86.0998 54.2002 85.8998 54.7002 85.7998C55.4002 85.7998 56.1002 85.8998 56.7002 85.7998C57.3002 85.7998 57.4003 85.2998 57.9003 85.1998C58.2003 85.1998 58.3003 84.4998 57.9003 84.4998C54.7003 83.8998 51.0003 85.2998 47.9003 86.1998L48.4003 86.6998C49.3003 82.0998 50.3003 77.5998 51.4003 73.0998L51.0003 73.3998C52.8003 73.2998 54.6003 73.0998 56.4003 72.9998C57.1003 72.9998 58.0002 72.9998 58.7002 72.7998C59.2002 72.6998 59.4003 72.3998 59.8003 72.1998C60.2003 72.0998 60.2003 71.3998 59.8003 71.4998C58.3003 71.5998 56.8002 71.6998 55.2002 71.7998C54.5002 71.7998 53.9002 71.7998 53.2002 71.9998C52.8002 71.9998 51.8003 72.2998 51.3003 72.1998L51.6002 72.6998C52.1002 70.3998 52.7002 67.9998 53.2002 65.6998L52.8003 65.9998C53.1003 65.9998 53.3002 65.5998 53.1002 65.3998C53.3002 65.5998 53.6002 63.8998 53.7002 63.7998C53.9002 62.7998 53.9002 62.4998 55.1002 62.3998C56.5002 62.2998 58.0003 62.3998 59.4003 62.5998C60.0003 62.5998 60.6002 62.7998 61.2002 62.8998C61.7002 62.9998 62.5003 63.3998 63.0003 63.3998C63.5003 63.3998 63.8002 62.9998 64.2002 62.7998C64.5002 62.6998 64.6002 62.1998 64.2002 62.0998C62.3002 61.4998 60.4003 61.1998 58.4003 60.9998C56.9003 60.8998 54.9003 60.7998 53.5003 61.4998L54.1002 61.8998C54.9002 58.3998 55.8002 54.8998 56.7002 51.3998L56.3003 51.6998C58.2003 51.6998 60.2002 51.6998 62.1002 51.6998C64.0002 51.6998 64.1003 51.8998 64.9003 51.6998C65.3003 51.5998 65.6003 51.1998 66.0003 51.0998C66.4003 50.9998 66.3003 50.3998 66.0003 50.3998H61.4003C59.8003 50.3998 58.1002 50.5998 56.6002 50.3998L56.9003 50.8998C57.9003 46.7998 59.0002 42.7998 60.1002 38.6998L59.7002 38.9998C61.5002 38.7998 63.3002 38.5998 65.1002 38.3998C65.7002 38.3998 66.4003 38.3998 66.9003 38.1998C67.3003 38.0998 67.7002 37.7998 68.1002 37.5998C68.5002 37.3998 68.3003 36.8998 67.9003 36.8998C65.2003 37.1998 62.5003 37.4998 59.8003 37.7998L60.2002 38.2998C61.4002 34.1998 62.6003 30.0998 63.9003 26.0998L63.5003 26.3998C65.5003 26.3998 67.6002 26.5998 69.6002 26.6998C70.3002 26.6998 71.4003 26.9998 72.0003 26.6998C72.4003 26.6998 72.7002 26.1998 73.1002 26.0998C73.5002 25.9998 73.4002 25.3998 73.1002 25.3998C71.3002 25.3998 69.5003 25.1998 67.8003 25.1998C67.0003 25.1998 66.1002 25.1998 65.2002 25.0998C64.8002 25.0998 64.1002 24.8998 63.7002 25.0998L64.2002 25.5998C65.6002 21.4998 67.0003 17.3998 68.8003 13.3998L68.4003 13.5998C70.4003 14.2998 72.4003 14.8998 74.5003 15.5998C75.0003 15.7998 75.9003 16.1998 76.4003 16.1998C76.8003 16.1998 77.1003 15.6998 77.5003 15.5998C77.8003 15.4998 77.9003 14.9998 77.5003 14.8998L72.4003 13.2998C71.6003 13.0998 70.8002 12.7998 70.1002 12.5998C69.8002 12.4998 69.2003 12.1998 68.8003 12.2998L69.2002 12.7998C70.3002 10.6998 71.4002 8.4998 73.1002 6.7998C73.4002 6.4998 73.1002 5.99982 72.7002 6.19982C72.2002 6.49982 71.7003 6.69982 71.3003 7.19982C70.8003 7.69982 70.4003 8.19982 70.0003 8.69982C69.5003 9.29982 69.1002 9.99981 68.7002 10.6998C68.5002 11.0998 68.3002 11.4998 68.1002 11.7998C68.1002 11.8998 67.7003 12.7998 67.8003 12.7998C67.4003 12.7998 67.5003 13.3998 67.8003 13.4998C67.8003 13.2998 67.6002 13.0998 67.6002 12.9998C67.0002 14.1998 66.5003 15.4998 65.9003 16.6998H66.6002C64.6002 13.5998 62.6002 10.4998 60.6002 7.49981C60.6002 7.39981 60.3002 7.2998 60.2002 7.2998C59.8002 7.4998 59.5002 7.69983 59.1002 7.89983C58.9002 7.89983 58.9003 8.19983 59.0003 8.39983C61.2003 11.6998 63.3003 14.9998 65.5003 18.2998C65.5003 18.3998 65.8003 18.4998 65.9003 18.4998C65.7003 18.2998 65.6003 18.1998 65.4003 17.9998C64.9003 19.2998 64.4003 20.6998 63.9003 22.0998C63.7003 22.6998 63.5003 23.2998 63.3003 23.8998C63.3003 23.9998 62.7003 25.8998 62.8003 25.8998C62.4003 25.9998 62.5003 26.5998 62.8003 26.5998C62.7003 26.3998 62.6003 26.2998 62.4003 26.0998L62.0003 27.3998L62.6002 27.1998C60.3002 24.3998 58.0003 21.5998 55.8003 18.6998C55.8003 18.6998 55.6003 18.5998 55.4003 18.6998C55.0003 18.6998 54.7003 19.1998 54.4003 19.2998C54.1003 19.2998 54.1002 19.6998 54.2002 19.8998C56.7002 22.9998 59.1002 25.9998 61.6002 29.0998C61.6002 29.1998 61.8003 29.1998 62.0003 29.0998C61.8003 28.8998 61.7003 28.7998 61.5003 28.5998C61.0003 30.2998 60.4003 31.9998 59.9003 33.6998C59.7003 34.4998 59.4002 35.2998 59.2002 36.1998C59.2002 36.3998 58.6002 38.6998 58.6002 38.6998C58.2002 38.7998 58.3002 39.4998 58.6002 39.3998C58.5002 39.1998 58.4002 39.0998 58.2002 38.8998C58.1002 39.3998 57.9003 39.8998 57.8003 40.3998L58.4003 40.1998C55.7003 37.0998 53.1003 33.9998 50.4003 30.8998C50.4003 30.8998 50.2003 30.7998 50.0003 30.8998C49.6003 30.8998 49.3003 31.3998 49.0003 31.4998C48.7003 31.4998 48.7003 31.8998 48.8003 32.0998C51.6003 35.3998 54.4003 38.6998 57.3003 41.9998C57.3003 41.9998 57.5002 42.0998 57.7002 41.9998C57.8002 41.9998 57.9003 41.9998 58.0003 41.7998L57.4003 41.3998C56.6003 44.3998 55.8003 47.3998 55.0003 50.4998L55.6002 50.2998C53.6002 48.6998 51.4003 47.2998 49.3003 45.7998L47.8003 44.6998C47.4003 44.3998 46.9003 43.7998 46.4003 43.6998C45.9003 43.6998 45.7003 44.1998 45.3003 44.2998C44.9003 44.2998 44.8002 44.7998 45.1002 44.9998C46.8002 46.1998 48.5002 47.3998 50.2002 48.5998C51.7002 49.6998 53.3003 50.9998 54.9003 51.8998L54.7002 51.4998C54.2002 53.3998 53.8003 55.2998 53.3003 57.1998C53.1003 58.0998 52.9002 58.9998 52.6002 59.8998C52.5002 60.3998 52.4002 60.8998 52.2002 61.3998C52.2002 61.4998 52.0003 62.5998 52.0003 62.5998C51.6003 62.7998 51.9003 63.3998 52.3003 63.2998C52.1003 63.0998 52.0003 62.9998 51.8003 62.7998C51.6003 63.6998 51.4002 64.5998 51.2002 65.3998L51.8003 65.1998C49.5003 63.2998 47.2003 61.3998 44.8003 59.4998C44.3003 59.0998 43.8003 58.6998 43.3003 58.2998C43.0003 58.0998 42.7003 57.5998 42.4003 57.5998C41.9003 57.5998 41.6002 58.0998 41.2002 58.1998C40.9002 58.1998 40.8003 58.6998 41.0003 58.7998C43.0003 60.3998 44.9003 61.9998 46.9003 63.6998C47.8003 64.4998 48.7002 65.1998 49.7002 65.9998C50.0002 66.2998 50.7002 67.0998 51.2002 67.0998L50.8003 66.5998C50.3003 68.5998 49.9003 70.5998 49.4003 72.5998L50.0003 72.3998C48.2003 71.2998 46.3003 70.1998 44.5003 69.0998C44.1003 68.8998 43.4003 68.1998 42.9003 68.2998C42.5003 68.2998 42.3003 68.8998 42.0003 68.8998C41.6003 68.8998 41.5003 69.3998 41.8003 69.5998C43.3003 70.4998 44.9003 71.3998 46.4003 72.3998C47.1003 72.7998 47.8003 73.1998 48.5003 73.6998C48.8003 73.8998 49.2002 74.1998 49.6002 74.1998L49.2002 73.6998C48.3002 77.6998 47.4003 81.6998 46.5003 85.7998H47.2002C46.4002 83.9998 45.1002 82.5998 43.7002 81.2998C43.4002 80.9998 42.7002 80.1998 42.2002 80.1998C41.7002 80.1998 41.6002 80.6998 41.2002 80.7998C40.8002 80.7998 40.7003 81.2998 41.0003 81.4998C42.9003 82.9998 44.8002 84.7998 45.7002 87.0998C46.1002 87.9998 45.9002 88.2998 45.7002 89.2998C45.5002 90.5998 45.2003 91.8998 45.0003 93.1998C44.2003 98.2998 43.8003 103.4 43.4003 108.5C42.8003 118.9 42.7003 129.4 42.9003 139.8C42.9003 145.8 43.2003 151.7 43.4003 157.6L44.1002 157.4C41.8002 152.2 39.6003 147 37.5003 141.7C35.6003 137 34.0003 132 31.8003 127.4C29.7003 123 26.9003 119.1 23.9003 115.2C20.7003 111.1 17.3003 107.1 13.8003 103.2C10.1003 98.9998 6.30032 94.9998 2.40032 90.9998C2.30032 90.8998 2.1003 90.8998 2.0003 90.9998C1.5003 91.1998 1.00035 91.3998 0.800353 91.8998C0.600353 92.3998 1.00028 93.8998 1.10028 94.3998C1.20028 95.3998 1.40028 96.3998 1.60028 97.2998C2.30028 101 3.3003 104.6 4.5003 108.1C5.6003 111.4 7.00035 114.7 8.80035 117.7C10.6003 120.7 12.9003 123 14.9003 125.7C19.4003 131.4 23.4003 137.5 26.5003 144C28.0003 147.2 29.4002 150.5 30.2002 154C31.0002 157.5 30.7003 161 32.0003 164.4C33.3003 167.8 35.4002 170.8 37.7002 173.5C38.9002 175 40.3002 176.3 41.7002 177.6C42.3002 178.2 43.0002 178.8 43.7002 179.3C44.0002 179.5 44.5003 180.2 44.9003 180.2L44.5003 179.8C44.7003 183.9 45.0003 188 45.3003 192.1C45.4003 194.1 45.6002 196.2 45.7002 198.2C45.7002 199.2 45.9003 200.2 45.9003 201.2C45.9003 201.7 45.9003 202.2 46.0003 202.7C46.0003 203 46.3002 204.1 46.2002 204.3C45.9002 204.7 46.5003 205 46.8003 204.8C46.6003 204.8 46.4002 204.6 46.2002 204.5C46.4002 207 46.6003 209.5 46.8003 212C46.8003 213.2 47.0002 214.3 47.1002 215.5C47.1002 216.2 47.2003 216.8 47.3003 217.5C47.3003 217.9 47.6003 219 47.5003 219.4C47.3003 219.8 47.9002 220 48.1002 219.8C47.9002 219.8 47.7003 219.6 47.5003 219.5C47.7003 222.4 48.0003 225.3 48.3003 228.2C48.4003 229.6 48.5002 230.9 48.7002 232.3C48.7002 233.1 48.8003 233.8 48.9003 234.6C48.9003 234.8 49.1002 236.4 49.2002 236.3C48.9002 236.6 49.2002 237.1 49.6002 236.9C49.4002 236.8 49.2003 236.7 49.0003 236.6C49.9003 245.9 50.8003 255.1 51.8003 264.4C51.8003 264.8 52.3003 264.9 52.5003 264.6C52.7003 264.3 53.3002 264.4 53.6002 264C53.8002 263.7 53.6002 263 53.6002 262.7C53.6002 262 53.4003 261.3 53.4003 260.5C53.1003 257.7 52.8003 254.8 52.5003 252C52.2003 249 51.9002 246.1 51.6002 243.1C51.5002 241.8 51.3002 240.5 51.2002 239.1C51.2002 238.5 51.1003 237.8 51.0003 237.2C51.0003 236.2 51.2003 236 51.9003 235.3C55.6003 232.1 58.4002 227.8 60.7002 223.5C63.2002 218.8 65.2003 213.8 66.9003 208.8C70.6003 198.1 73.0002 187 75.1002 175.9C76.2002 170.2 77.0003 164.6 78.0003 158.9C79.0003 153.2 81.2002 148.6 84.2002 144C90.5002 134.2 99.0003 125.5 108 118.2C108.2 118 108 117.7 107.8 117.6C107.8 117.8 107.8 118.1 107.8 118.3C108.2 118.1 107.8 117.4 107.4 117.6C107.1 117.8 107.2 118.2 107.4 118.3C107.4 118.1 107.3 117.9 107.2 117.7C99.3002 124.1 92.0003 131.5 86.0003 139.7C82.9003 143.8 80.2003 148.3 78.4003 153.1C77.4003 155.7 77.0002 158.4 76.6002 161.2C76.2002 164 75.7002 166.9 75.2002 169.7C73.3002 180.9 71.0002 192.1 67.7002 203C66.1002 208.5 64.2003 213.9 61.8003 219.1C59.6003 223.9 57.0003 228.7 53.4003 232.6C52.5003 233.6 51.5003 234.6 50.4003 235.4C50.1003 235.6 49.9003 235.7 49.8003 236.1C49.6003 236.7 50.0003 237.9 50.0003 238.5C50.3003 241.7 50.6003 244.8 50.9003 248C51.2003 251.2 51.6003 254.6 51.9003 257.9C52.1003 259.4 52.2003 260.9 52.4003 262.5C52.4003 262.8 52.6003 263.2 52.5003 263.5C52.4003 264 52.5002 263.7 52.1002 264C51.9002 264.2 51.7002 264.2 51.6002 264.4L52.3003 264.6C51.2003 255.4 50.3003 246.1 49.5003 236.8C49.5003 236.5 49.2003 236.3 48.9003 236.5C49.1003 236.7 49.2003 236.9 49.3003 237.1C49.7003 236.8 49.3002 234.8 49.2002 234.4C49.0002 232.8 48.9003 231.2 48.8003 229.6C48.5003 226.4 48.2003 223.1 48.0003 219.9C48.0003 219.6 47.6003 219.4 47.4003 219.6C47.6003 219.7 47.8003 219.8 48.0003 220C48.1003 219.7 48.0003 219.2 48.0003 218.9C48.0003 218.2 47.9003 217.6 47.8003 216.9C47.7003 215.6 47.6003 214.2 47.5003 212.9C47.3003 210.2 47.1003 207.6 46.9003 204.9C46.9003 204.6 46.5003 204.4 46.3003 204.6C46.5003 204.8 46.7003 204.9 46.9003 205.1C47.2003 204.6 46.9003 203.4 46.9003 202.9C46.9003 201.9 46.7002 200.9 46.7002 199.9C46.5002 197.7 46.4002 195.5 46.2002 193.3C45.9002 188.9 45.6003 184.6 45.4003 180.2C45.4003 180 45.2003 179.8 45.0003 179.8C44.8003 179.8 43.8003 178.6 43.5003 178.4C42.9003 177.9 42.3002 177.3 41.7002 176.8C40.5002 175.7 39.4003 174.5 38.4003 173.3C36.3003 170.9 34.5002 168.2 33.2002 165.3C32.5002 163.7 32.0003 162 31.8003 160.3C31.6003 158.7 31.6003 157.1 31.3003 155.6C30.7003 152.4 29.6003 149.3 28.3003 146.3C25.6003 140.3 22.2003 134.6 18.4003 129.3C16.5003 126.7 14.5003 124.3 12.5003 121.8C10.3003 119.1 8.50028 116.2 7.10028 113.1C5.50028 109.5 4.30035 105.6 3.30035 101.8C2.80035 99.9998 2.40028 98.0998 2.10028 96.1998C1.90028 95.0998 1.80028 93.9998 1.60028 92.8998C1.60028 92.1998 1.80032 92.0998 2.40032 91.8998H2.0003C9.1003 98.8998 15.8003 106.4 22.0003 114.2C25.2003 118.2 28.2002 122.3 30.6002 126.8C33.0002 131.5 34.6003 136.6 36.5003 141.5C38.8003 147 41.1003 152.6 43.5003 158C43.7003 158.3 44.2002 158.2 44.2002 157.8C43.8002 146.9 43.5002 135.9 43.7002 125C43.9002 114.1 44.1003 103.1 46.0003 92.2998C46.1003 91.5998 46.3003 90.7998 46.4003 90.0998C46.5003 89.4998 46.8003 88.6998 46.8003 88.0998C46.8003 87.5998 46.4002 86.7998 46.1002 86.2998C45.1002 84.0998 43.3003 82.3998 41.4003 80.9998L41.2002 81.6998C41.5002 81.6998 41.6003 81.3998 41.9003 81.3998C42.3003 81.1998 42.2002 81.1998 42.6002 81.5998C42.9002 81.8998 43.3002 82.1998 43.6002 82.4998C44.8002 83.5998 45.8003 84.7998 46.5003 86.2998C46.6003 86.5998 47.1002 86.4998 47.2002 86.2998C48.1002 82.2998 49.0003 78.2998 49.9003 74.1998C49.9003 73.9998 49.8003 73.6998 49.5003 73.6998C49.1003 73.6998 48.4003 72.9998 48.0003 72.6998L46.0003 71.4998L42.1002 69.0998L41.9003 69.7998C42.2003 69.7998 42.3002 69.5998 42.6002 69.4998C43.0002 69.2998 42.9003 69.2998 43.4003 69.4998C43.9003 69.6998 44.3002 69.9998 44.7002 70.2998C46.3002 71.2998 48.0002 72.2998 49.6002 73.1998C49.8002 73.2998 50.1002 73.1998 50.2002 72.9998C50.7002 70.9998 51.1002 68.9998 51.6002 66.9998C51.6002 66.7998 51.5002 66.4998 51.2002 66.4998C51.0002 66.4998 49.4002 64.9998 49.2002 64.7998C48.3002 64.0998 47.5002 63.3998 46.6002 62.6998C44.9002 61.2998 43.2003 59.8998 41.5003 58.4998L41.3003 59.0998C42.0003 59.0998 41.9002 58.2998 42.6002 58.8998C43.4002 59.5998 44.3002 60.2998 45.2002 61.0998C47.2002 62.6998 49.2002 64.3998 51.2002 65.9998C51.4002 66.1998 51.8003 66.0998 51.8003 65.7998C52.0003 64.8998 52.2003 63.9998 52.4003 63.1998C52.4003 62.8998 52.2003 62.6998 51.9003 62.6998C51.9003 62.8998 52.1002 63.1998 52.2002 63.3998C52.6002 63.1998 52.6002 62.0998 52.7002 61.7998C53.0002 60.6998 53.2003 59.6998 53.5003 58.5998C54.0003 56.3998 54.6002 54.1998 55.1002 51.8998C55.1002 51.6998 55.1003 51.5998 54.9003 51.4998C53.2003 50.5998 51.7002 49.2998 50.2002 48.1998C48.5002 46.9998 46.8002 45.7998 45.1002 44.5998L44.9003 45.2998C45.1003 45.2998 45.2003 45.2998 45.3003 45.0998C45.8003 44.8998 45.6002 44.6998 46.1002 44.8998C47.0002 45.1998 48.0002 46.1998 48.7002 46.7998C50.7002 48.1998 52.7002 49.4998 54.6002 50.9998C54.8002 51.1998 55.2002 51.0998 55.2002 50.7998C56.0002 47.7998 56.8002 44.6998 57.6002 41.6998C57.6002 41.3998 57.3003 41.0998 57.0003 41.2998C57.0003 41.2998 53.4002 37.0998 53.1002 36.6998C51.6002 34.9998 50.2002 33.2998 48.7002 31.5998L48.5003 32.1998C48.7003 32.1998 48.8003 31.9998 49.0003 31.8998C49.5003 31.6998 49.3002 31.5998 49.7002 32.0998C50.4002 33.0998 51.3003 33.8998 52.0003 34.7998C53.7003 36.7998 55.4002 38.7998 57.1002 40.6998C57.3002 40.8998 57.7002 40.6998 57.7002 40.4998C57.8002 39.9998 58.0002 39.4998 58.1002 38.9998C58.1002 38.7998 58.0002 38.4998 57.7002 38.4998C57.7002 38.6998 57.7002 38.9998 57.7002 39.2998C58.1002 39.0998 58.1003 38.6998 58.3003 38.2998C58.6003 37.1998 58.9002 36.1998 59.2002 35.0998C59.8002 32.9998 60.5002 30.8998 61.1002 28.7998C61.1002 28.4998 60.9002 28.2998 60.6002 28.2998C60.8002 28.2998 59.3002 26.2998 59.1002 26.0998C58.5002 25.2998 57.9002 24.5998 57.2002 23.7998C56.0002 22.2998 54.7003 20.6998 53.5003 19.1998L53.3003 19.7998C53.5003 19.7998 53.6003 19.5998 53.8003 19.4998C53.8003 19.4998 54.0002 19.3998 54.1002 19.2998C54.2002 19.1998 54.3003 19.2998 54.3003 19.4998C54.7003 19.6998 55.1003 20.4998 55.4003 20.7998C55.8003 21.2998 56.1003 21.6998 56.5003 22.0998C57.9003 23.8998 59.4003 25.6998 60.9003 27.4998C61.1003 27.6998 61.5003 27.4998 61.5003 27.2998L61.9003 25.9998C61.9003 25.7998 61.8003 25.4998 61.5003 25.4998C61.5003 25.6998 61.5003 25.9998 61.5003 26.1998C61.8003 26.1998 61.8003 25.6998 61.9003 25.4998C62.2003 24.6998 62.5002 23.7998 62.7002 22.9998C63.3002 21.1998 63.9002 19.4998 64.6002 17.7998C64.6002 17.4998 64.4002 17.1998 64.1002 17.2998C64.2002 17.2998 64.4003 17.3998 64.5003 17.4998C62.3003 14.1998 60.2003 10.8998 58.0003 7.59979V8.09979C58.2003 7.89979 58.5003 7.69981 58.8003 7.49981L58.4003 7.2998C60.4003 10.2998 62.4003 13.3998 64.4003 16.3998C64.6003 16.6998 65.0002 16.5998 65.1002 16.3998C65.6002 15.1998 66.1002 13.9998 66.7002 12.8998C66.8002 12.6998 66.7003 12.3998 66.5003 12.3998V13.0998C66.8003 13.0998 67.0002 12.3998 67.1002 12.1998C67.4002 11.4998 67.8002 10.7998 68.2002 10.0998C68.7002 9.29979 69.2002 8.59983 69.7002 7.89983C70.2002 7.19983 70.9003 6.89983 71.5003 6.39983L71.1002 5.7998C69.3002 7.4998 68.2002 9.69983 67.1002 11.8998C67.0002 12.1998 67.1003 12.5998 67.5003 12.3998C67.7003 12.3998 68.8002 12.8998 69.1002 12.9998L71.4003 13.6998L75.8003 15.0998V14.3998C75.5003 14.4998 75.2003 14.7998 74.8003 14.8998C74.1003 14.8998 73.1003 14.3998 72.4003 14.1998C70.6003 13.5998 68.8002 13.0998 67.1002 12.4998C67.0002 12.4998 66.7002 12.4998 66.7002 12.6998C64.9002 16.6998 63.4003 20.8998 62.0003 25.0998C62.0003 25.3998 62.2003 25.5998 62.5003 25.5998C63.0003 25.4998 63.8003 25.5998 64.3003 25.5998C65.1003 25.5998 66.0003 25.5998 66.9003 25.6998C68.5003 25.6998 70.1002 25.7998 71.7002 25.8998V25.1998C71.1002 25.3998 70.9003 25.6998 70.3003 25.7998C69.5003 25.7998 68.6003 25.7998 67.8003 25.6998C65.9003 25.6998 64.0002 25.4998 62.2002 25.4998C62.0002 25.4998 61.9003 25.5998 61.8003 25.7998C60.5003 29.7998 59.3002 33.8998 58.1002 37.9998C58.1002 38.1998 58.2003 38.4998 58.5003 38.4998C61.2003 38.1998 63.9002 37.8998 66.6002 37.5998L66.4003 36.8998C65.9003 37.0998 65.6002 37.3998 65.1002 37.4998C64.4002 37.5998 63.7003 37.6998 63.0003 37.6998C61.5003 37.8998 59.9003 37.9998 58.4003 38.1998C58.2003 38.1998 58.1003 38.1998 58.0003 38.4998C56.9003 42.4998 55.8003 46.5998 54.8003 50.6998C54.8003 50.8998 54.8002 51.0998 55.1002 51.1998C56.6002 51.3998 58.1002 51.1998 59.6002 51.1998H64.7002V50.4998C64.0002 50.6998 63.6003 50.9998 63.0003 51.0998C62.2003 51.0998 61.2003 51.0998 60.4003 51.0998C58.6003 51.0998 56.8002 51.0998 55.1002 51.0998C54.9002 51.0998 54.8002 51.1998 54.7002 51.3998C53.8002 54.8998 53.0002 58.3998 52.1002 61.8998C52.1002 62.1998 52.4002 62.4998 52.7002 62.2998C54.1002 61.5998 56.2002 61.7998 57.7002 61.8998C59.4002 62.0998 61.1003 62.3998 62.8003 62.8998V62.1998C62.0003 62.4998 62.0002 62.6998 61.1002 62.4998C60.1002 62.2998 59.1002 61.9998 58.1002 61.8998C56.2002 61.5998 54.2003 61.4998 52.3003 61.8998C52.2003 61.8998 52.1003 61.9998 52.0003 62.1998C51.7003 63.3998 51.5002 64.4998 51.2002 65.6998C51.2002 65.7998 51.2002 65.9998 51.2002 66.0998C51.2002 65.8998 51.4003 65.6998 51.5003 65.4998C51.3003 65.4998 51.2002 65.5998 51.1002 65.7998C50.5002 68.0998 50.0003 70.4998 49.5003 72.7998C49.5003 72.9998 49.5003 73.1998 49.8003 73.2998C50.1003 73.3998 50.5003 73.2998 50.9003 73.2998C51.7003 73.2998 52.6003 73.1998 53.4003 73.0998C55.1003 72.9998 56.8003 72.8998 58.5003 72.6998V71.9998C57.9003 72.1998 57.6003 72.4998 57.0003 72.5998C56.3003 72.6998 55.5002 72.6998 54.7002 72.7998C53.1002 72.8998 51.4003 72.9998 49.8003 73.1998C49.6003 73.1998 49.5003 73.2998 49.4003 73.4998C48.4003 77.9998 47.3003 82.5998 46.4003 87.0998C46.4003 87.3998 46.6003 87.5998 46.9003 87.5998C48.3003 87.1998 49.7002 86.7998 51.2002 86.3998C52.9002 85.9998 54.8003 85.4998 56.5003 85.7998V85.0998C55.8003 85.2998 55.5002 85.5998 54.7002 85.5998C53.9002 85.5998 53.0002 85.5998 52.2002 85.7998C50.3002 86.0998 48.4002 86.5998 46.6002 87.0998C46.5002 87.0998 46.4003 87.1998 46.3003 87.3998C43.5003 102.1 43.1002 117 43.2002 131.9C43.2002 147.1 43.9003 162.3 44.8003 177.5C45.3003 186 45.9003 194.6 46.5003 203.1C46.5003 203.4 47.0002 203.6 47.2002 203.3C50.8002 196.7 52.6002 189 54.1002 181.7C55.7002 173.9 58.0003 166.4 61.3003 159.2C67.0003 146.3 74.7003 133 86.4003 124.6C89.7003 122.3 93.3002 120.3 97.2002 119.2C99.3002 118.6 101.5 118.3 103.7 118.2C104.5 118.2 105.3 118.2 106.1 118.2C106.3 118.2 106.9 118.4 107.1 118.2C107.5 118 107.3 117.3 106.9 117.5H106.8L108.1 116.8Z" fill="#231F20"/>
<path d="M7.10001 97.0998C13.7 104.1 20.2001 111.3 25.8001 119.2C28.6001 123.2 30.8 127.4 32.6 132C34.4 136.6 36.2 141.1 38 145.6C40 150.4 42.1 155.3 44.2 160.1C44.3 160.3 44.6001 160.3 44.8001 160.1C44.6001 160.1 44.4 159.9 44.2 159.8C44.2 161.9 44.4 163.9 44.5 166L45.2 165.8C42.6 160.8 40.1 155.8 37.7 150.7C35.3 145.6 33.5 140.7 31 135.9C26.1 126.4 20 117.3 13.6 108.7C10 103.9 7.19998 98.5998 4.69998 93.1998L4.10001 93.6998C5.20001 94.7998 6.20008 95.8998 7.30008 96.9998C7.60008 97.2998 8.20008 96.7998 7.80008 96.4998C6.70008 95.3998 5.70001 94.2998 4.60001 93.1998C4.30001 92.8998 3.80003 93.1998 4.00003 93.6998C6.20003 98.4998 8.69998 103.2 11.7 107.5C14.7 111.8 18.1 116.3 21.1 120.9C24.1 125.5 26.9001 129.9 29.4001 134.7C31.9001 139.5 33.8 144.4 36.1 149.2C38.8 154.9 41.6 160.6 44.5 166.2C44.7 166.5 45.2 166.4 45.2 166C45.2 164 45.0001 161.9 44.9001 159.8C44.9001 159.5 44.5001 159.3 44.3001 159.5C44.5001 159.5 44.7001 159.5 44.9001 159.5C40.9001 150.4 37 141.3 33.5 132C31.8 127.6 29.9001 123.6 27.3001 119.7C24.7001 115.8 21.8001 112.3 18.8001 108.7C15.2001 104.4 11.5 100.3 7.69998 96.2998C7.39998 95.9998 6.79998 96.4998 7.19998 96.7998L7.10001 97.0998Z" fill="#231F20"/>
<path d="M36.8998 167.5C35.3998 165.2 34.1998 162.8 33.5998 160.2C32.9998 157.6 33.1998 155.1 32.5998 152.6C31.4998 147.6 29.2998 142.9 26.8998 138.5C24.3998 133.8 21.3998 129.4 18.1998 125.2C14.9998 121 11.4998 117.2 9.19971 112.4C6.49971 106.8 4.7998 100.7 3.7998 94.6001L3.09973 94.9002C5.49973 99.8002 7.99981 104.7 11.2998 109.1C14.5998 113.5 17.6998 118.1 20.6998 122.7C23.6998 127.3 26.6998 132.2 29.2998 137.2C31.8998 142.2 33.6998 147.3 36.0998 152.2C38.7998 157.9 41.5998 163.5 44.4998 169C44.4998 169.2 44.7998 169.2 44.9998 169.1L44.3998 168.7C44.5998 171.6 44.6998 174.6 44.8998 177.5L45.4998 177.2C42.1998 174.3 39.1999 171.1 36.7998 167.4C36.4998 167 35.8998 167.4 36.0998 167.8C38.5998 171.5 41.4998 174.9 44.8998 177.8C45.0998 178 45.5998 177.8 45.4998 177.5C45.2998 174.6 45.1998 171.7 44.9998 168.7C44.9998 168.4 44.6998 168.2 44.3998 168.4L44.8998 168.6C42.2998 163.7 39.7998 158.7 37.3998 153.7C34.9998 148.7 32.9998 143.6 30.5998 138.6C28.1998 133.6 25.1998 128.7 22.1998 124C19.1998 119.3 16.1998 114.7 12.8998 110.2C9.19977 105.2 6.09975 99.9001 3.49975 94.3001C3.29975 93.9001 2.7998 94.3001 2.7998 94.6001C3.5998 100 5.1998 105.4 7.2998 110.4C8.2998 112.7 9.39981 115 10.7998 117.1C12.1998 119.2 13.8998 121.2 15.4998 123.2C18.8998 127.4 21.9998 131.9 24.6998 136.5C27.3998 141.1 29.8998 146.1 31.1998 151.3C31.5998 152.8 31.8998 154.4 32.0998 156C32.1998 157.3 32.1998 158.7 32.4998 160C33.0998 162.8 34.3998 165.3 35.8998 167.7C36.1998 168.1 36.7998 167.7 36.5998 167.3L36.8998 167.5Z" fill="#231F20"/>
<path d="M50.2998 200.2C53.3998 193.7 54.8998 186.7 56.3998 179.7C57.8998 172.4 60.1997 165.3 63.0997 158.5C65.8997 152 69.1997 145.8 73.0997 139.9C76.6997 134.5 80.7998 129.3 85.8998 125.1C91.7998 120.2 98.9998 117.3 106.8 117.9V117.2C92.9998 122 83.0998 134 75.7998 146C71.7998 152.6 68.3997 159.5 65.4997 166.7C63.9997 170.5 62.5998 174.3 61.3998 178.2C60.1998 182.1 59.2997 186.2 58.0997 190.1C55.5997 199 52.3997 207.8 48.9997 216.4H49.6997C49.4997 213.7 49.1997 210.9 48.9997 208.1C48.8997 206.7 48.5997 205.3 48.6997 203.9C48.6997 202.7 49.8998 201.3 50.3998 200.1C50.5998 199.7 49.9997 199.3 49.6997 199.7C49.3997 200.3 49.0998 200.9 48.7998 201.5C48.5998 202 47.9998 202.5 47.8998 203C47.7998 203.5 47.8997 204.3 47.9997 204.8C47.9997 205.6 48.0997 206.4 48.1997 207.3C48.3997 210.4 48.6998 213.4 48.8998 216.5C48.8998 216.9 49.4997 217 49.5997 216.5C52.4997 209 55.2997 201.4 57.6997 193.7C60.0997 186 61.6997 178.5 64.4997 171.1C69.6997 157 76.9997 142.8 87.1997 131.6C92.6997 125.6 99.1998 120.5 106.9 117.8C107.3 117.7 107.2 117.1 106.9 117.1C100.3 116.6 93.9997 118.5 88.5997 122.2C83.1997 125.9 78.7997 130.8 74.9997 136C66.5997 147.5 60.1998 161.2 56.7998 175C54.7998 183.3 53.4998 191.8 49.7998 199.7C49.5998 200.1 50.1997 200.5 50.4997 200.1L50.2998 200.2Z" fill="#231F20"/>
<path d="M105.8 118.4C99.2005 123.9 93.1004 130.1 87.7004 136.7C82.3003 143.3 77.9004 150.3 76.6004 158.5C73.6004 176.3 70.6004 194.2 64.5004 211.2C61.4004 219.7 57.5004 228.7 50.5004 234.7L51.1004 235C50.7004 230.3 50.2004 225.7 49.8004 221C49.7004 219.8 49.5004 218.7 49.9004 217.5C50.3004 216.3 50.8004 215.2 51.2004 214.1C52.0004 212 52.8004 209.8 53.6004 207.7C56.7004 199.1 59.4004 190.5 61.7004 181.7C64.0004 172.9 67.4004 164.3 71.5004 156.2C75.3004 148.5 79.8004 141.1 85.3004 134.4C88.1004 131 91.2004 127.7 94.6004 124.9C96.4004 123.5 98.2004 122.2 100.2 121.1C101.2 120.6 102.1 120.1 103.2 119.6C103.8 119.3 104.5 119.1 105.1 118.8C105.3 118.8 105.5 118.6 105.8 118.6C105.8 118.6 106.9 118.2 106.8 118.1V117.6C106.5 117.9 106 118.1 105.7 118.4C105.3 118.7 105.7 119.3 106.1 119.1C106.5 118.9 107.1 118.5 107.3 118.1C107.3 117.9 107.3 117.7 107.2 117.6C106.8 117.4 106 117.8 105.6 118C104.6 118.3 103.6 118.7 102.7 119.2C100.8 120 99.0004 121.1 97.3004 122.2C94.0004 124.4 91.0004 127.1 88.3004 130C82.4004 136.3 77.6004 143.5 73.5004 151C69.1004 159.1 65.4004 167.6 62.6004 176.4C61.2004 180.9 60.1004 185.6 58.8004 190.2C57.5004 194.8 56.0004 199.2 54.4004 203.7C53.5004 206.3 52.5004 208.9 51.6004 211.5C51.1004 212.7 50.7004 213.9 50.2004 215.2C49.8004 216.3 49.0004 217.6 48.9004 218.7C48.9004 220 49.1004 221.4 49.2004 222.6C49.3004 224 49.4004 225.4 49.6004 226.8C49.8004 229.6 50.1004 232.4 50.4004 235.2C50.4004 235.5 50.8004 235.7 51.0004 235.5C56.9004 230.4 60.6004 223.3 63.4004 216.2C66.7004 208.1 69.1004 199.6 71.2004 191.1C73.3004 182.6 74.9004 173.3 76.4004 164.3C77.1004 159.9 77.7004 155.5 79.5004 151.3C81.2004 147.5 83.4004 143.9 85.9004 140.5C91.7004 132.6 98.8003 125.5 106.2 119.2C106.6 118.9 106 118.4 105.7 118.7L105.8 118.4Z" fill="#231F20"/>
</g>
<defs>
<clipPath id="clip0_208_841">
<rect width="109" height="265" fill="white"/>
</clipPath>
</defs>
</svg>
