<svg width="145" height="264" viewBox="0 0 145 264" fill="none" xmlns="http://www.w3.org/2000/svg">
<g clip-path="url(#clip0_208_144)">
<path d="M126.1 28.8998C136.9 25.6998 144.1 29.9998 144.1 29.9998C130.1 44.4998 124.2 32.2998 124.2 32.2998C112.7 27.9998 122.3 4.7998 122.3 4.7998C122.3 4.7998 126.5 14.8998 126.3 23.2998C126.1 31.6998 126.1 28.9998 126.1 28.9998V28.8998Z" fill="#231F20"/>
<path d="M126.2 29.2998C131.7 27.6998 138.8 27.2998 143.9 30.2998V29.6998C140.4 33.1998 135.1 37.8998 129.7 36.3998C127.4 35.7998 125.9 34.1998 124.6 32.2998C124.5 32.0998 124.5 31.9998 124.3 31.8998C123.9 31.5998 123.3 31.4998 122.9 31.1998C122.5 30.8998 122.1 30.5998 121.7 30.2998C120.3 28.8998 119.5 27.0998 119.2 25.0998C118.4 20.8998 119.2 16.4998 120.2 12.3998C120.8 9.79976 121.6 7.19976 122.7 4.69976H122C123.5 8.19976 124.6 11.9998 125.3 15.7998C125.9 18.9998 126 22.0998 125.9 25.2998C125.9 26.2998 125.9 27.2998 125.8 28.3998C125.8 28.5998 125.7 29.2998 125.8 29.0998H126.4C126.5 29.2998 126.4 29.0998 126.4 28.8998C126.4 28.3998 125.6 28.3998 125.6 28.8998C125.6 29.3998 125.6 29.3998 125.6 29.4998C125.8 29.6998 126.1 29.6998 126.2 29.4998C126.3 29.2998 126.2 28.9998 126.2 28.7998C126.2 27.9998 126.2 27.1998 126.2 26.3998C126.3 23.1998 126.3 19.9998 125.8 16.7998C125.1 12.5998 123.9 8.49976 122.3 4.59976C122.2 4.29976 121.7 4.19976 121.6 4.59976C120.6 6.89976 119.9 9.29976 119.3 11.7998C118.2 15.9998 117.4 20.5998 118.1 24.9998C118.4 26.8998 119.1 28.7998 120.4 30.2998C121 30.9998 121.8 31.5998 122.6 32.0998C123.1 32.3998 123.5 32.3998 123.7 32.6998C124.3 33.2998 124.7 34.1998 125.3 34.7998C126.3 35.7998 127.4 36.5998 128.7 37.0998C134.5 39.1998 140.4 34.1998 144.1 30.3998C144.3 30.1998 144.2 29.8998 144.1 29.7998C138.7 26.6998 131.5 26.9998 125.8 28.6998C125.3 28.7998 125.5 29.5998 126 29.3998L126.2 29.2998Z" fill="#231F20"/>
<path d="M80.3002 263.1C80.2002 261.1 80.1002 259.1 79.9002 257C79.6002 251.6 79.3002 246.2 79.0002 240.8C78.6002 233 78.2002 225.2 77.9002 217.3C77.5002 208.1 77.2002 198.9 76.9002 189.8C76.6002 180.2 76.4002 170.6 76.3002 161.1C76.2002 152.1 76.2002 143.1 76.4002 134.2C76.6002 126.8 76.8002 119.4 77.5002 112C78.0002 107.2 78.4002 102.1 80.0002 97.4998C81.7002 92.5998 84.0002 87.6998 86.2002 82.9998C89.1002 76.8998 92.2002 70.8999 95.5002 65.0999C98.8002 59.2999 102.3 53.8998 106.2 48.6998C109.6 44.1998 113.3 39.8998 117.6 36.2998C119.5 34.7998 121.5 33.3998 123.7 32.3998C124.1 32.1998 124.4 31.8998 124.8 31.7998C115.5 35.7998 108.6 44.2998 102.9 52.2998C95.1002 63.2998 88.8002 75.2998 83.3002 87.4998C81.6002 91.2998 79.6002 95.2998 78.5002 99.2998C77.9002 101.5 77.5002 103.8 77.2002 106.1C76.2002 112.7 75.9002 119.5 75.6002 126.2C75.2002 134.9 75.2002 143.6 75.2002 152.3C75.2002 162 75.4002 171.6 75.6002 181.3C75.8002 191 76.2002 200.5 76.5002 210.1C76.8002 218.5 77.2002 227 77.6002 235.4C77.9002 241.7 78.2002 247.9 78.6002 254.2C78.7002 256.2 78.8002 258.2 79.0002 260.2C79.0002 261.2 79.0002 262.3 79.2002 263.3C79.2002 263.4 79.2002 263.6 79.2002 263.7C79.2002 263.5 80.3002 263.3 80.3002 263.1Z" fill="#231F20"/>
<path d="M80.7004 263.1C78.6004 230.6 77.2004 198.1 76.8004 165.6C76.6004 149.1 76.4004 132.4 77.7004 115.9C78.0004 111.9 78.3004 107.8 79.0004 103.8C79.6004 100.1 80.8004 96.6002 82.2004 93.1002C85.3004 85.6002 88.9004 78.3002 92.7004 71.1002C96.8004 63.4002 101.4 55.8002 106.7 48.8002C109.3 45.4002 112 42.1002 115.1 39.2002C116.6 37.7002 118.3 36.3002 120.1 35.0002C121.7 33.8002 123.5 33.0002 125.2 32.1002C125.6 31.9002 125.2 31.3002 124.8 31.4002C118.5 34.1002 113.4 38.8002 109 43.9002C104.3 49.5002 100.1 55.6002 96.3004 61.8002C92.2004 68.5002 88.5004 75.5002 85.2004 82.7002C81.9004 89.8002 78.4004 96.8002 77.1004 104.6C75.8004 112.8 75.4004 121.1 75.2004 129.3C75.0004 137.5 74.9004 146.4 74.9004 154.9C74.9004 172 75.5004 189.1 76.1004 206.2C76.7004 223.3 77.6004 240.4 78.6004 257.5C78.7004 259.5 78.8004 261.5 79.0004 263.5C79.0004 263.9 79.5004 264 79.7004 263.7C79.9004 263.4 80.5004 263.5 80.8004 263.1C81.1004 262.7 80.4004 262.3 80.2004 262.7C80.0004 263 79.4004 263 79.1004 263.3L79.8004 263.5C78.8004 246.8 77.9004 230.1 77.2004 213.4C76.5004 196.6 76.0004 179.7 75.8004 162.9C75.6004 146.2 75.4004 129.3 77.0004 112.6C77.4004 108.5 77.8004 104.2 78.9004 100.2C80.0004 96.2002 81.6004 92.7002 83.2004 89.0002C86.4004 81.9002 89.8004 74.9002 93.6004 68.1002C97.3004 61.5002 101.4 55.1002 105.9 49.0002C110.1 43.4002 114.9 38.0002 120.8 34.2002C122.2 33.3002 123.7 32.5002 125.2 31.9002L124.8 31.2002C123.3 32.0002 121.7 32.8002 120.2 33.8002C118.7 34.8002 117.4 35.9002 116 37.1002C113.2 39.6002 110.7 42.3002 108.4 45.2002C103.6 51.2002 99.4004 57.6002 95.5004 64.2002C91.4004 71.2002 87.8004 78.4002 84.4004 85.8002C82.7004 89.4002 81.1004 93.0002 79.8004 96.7002C78.5004 100.4 78.0004 103.9 77.6004 107.6C75.8004 124.1 75.8004 140.8 75.9004 157.4C76.0004 174 76.5004 190.9 77.2004 207.6C77.8004 224.1 78.7004 240.6 79.6004 257.1C79.7004 259 79.8004 261 80.0004 262.9C80.0004 263.4 80.8004 263.4 80.8004 262.9L80.7004 263.1Z" fill="#231F20"/>
<path d="M31.9004 19.9997C33.4004 20.8997 34.7004 21.9997 36.1004 23.0997C39.7004 25.8997 43.1004 28.8997 46.3004 32.0997C50.9004 36.6997 55.2004 41.6997 59.1004 46.8997C63.8004 53.2997 67.9004 60.2997 71.1004 67.4997C74.8004 75.7997 77.4004 84.5997 78.8004 93.5997C79.0004 94.7997 79.2004 95.9997 79.3004 97.2997C79.3004 97.1997 80.4004 96.8997 80.4004 96.6997C79.3004 87.4997 76.9004 78.3997 73.4004 69.7997C70.3004 62.2997 66.4004 55.1997 61.8004 48.5997C57.9004 43.0997 53.6004 37.8997 48.9004 32.9997C45.5004 29.4997 41.9004 26.1997 38.2004 23.1997C37.1004 22.2997 35.9004 21.3997 34.7004 20.4997C34.3004 20.1997 34.0004 19.9997 33.6004 19.6997C33.5004 19.6997 33.2004 19.3997 33.1004 19.2997C32.9004 19.1997 32.2004 19.9997 32.0004 19.8997L31.9004 19.9997Z" fill="#231F20"/>
<path d="M31.7 20.3C36.9 23.7 41.6 28 46 32.3C50.4 36.6 54.3 41.1 57.9 46C65 55.4 70.6 65.9 74.4 77.1C76.6 83.7 78.1 90.4 78.9 97.3C78.9 97.7 79.4 97.8 79.6 97.5C79.8 97.3 80.3 97.3 80.6 97C80.9 96.7 80.7 96.5 80.7 96.2C80.5 94.6 80.2 92.9 80 91.3C79.4 87.9 78.7 84.6 77.8 81.3C76 74.8 73.6 68.5 70.6 62.5C64.6 50.6 56.5 39.7 46.9 30.4C44.1 27.7 41.2 25.1 38.1 22.6C36.7 21.5 35.2 20.3 33.7 19.3C33.5 19.1 33.2 19 33 19C32.6 19 32.4 19.6 32 19.6C31.5 19.6 31.5 20.4 32 20.4C32.2 20.4 32.4 20.3 32.6 20.1C33.1 19.7 32.9 19.7 33.5 20.1C35 21.2 36.5 22.3 38 23.4C40.6 25.5 43 27.6 45.4 29.9C50 34.3 54.4 39.1 58.3 44.2C66.1 54.4 72.3 65.8 76.2 78.1C77.3 81.5 78.2 85 78.9 88.4C79.3 90.2 79.6 92 79.9 93.9C79.9 94.2 79.9 94.5 80 94.8C80 95.2 80.1 95.7 80.2 96.1C80.3 96.4 80.2 96.5 79.9 96.6C79.7 96.8 79.4 96.8 79.3 97L80 97.2C77.1 73 65.4 50.7 48.5 33.3C43.6 28.3 38.3 23.4 32.5 19.6C32.1 19.3 31.7 20 32.1 20.3H31.7Z" fill="#231F20"/>
<path d="M77.2996 213.7C77.2996 213.7 89.1996 213.7 94.7996 201.7C100.4 189.7 98.3996 185.3 98.3996 185.3C98.3996 185.3 76.7996 202.1 77.2996 213.6V213.7Z" fill="#231F20"/>
<path d="M77.2996 214.1C81.3996 214.1 85.6996 212.3 88.8996 209.8C92.2996 207.2 94.4996 203.7 96.0996 199.8C97.5996 196.4 98.7996 192.8 99.0996 189.1C99.1996 187.9 99.2996 186.4 98.7996 185.2C98.6996 185 98.3996 185 98.1996 185.2C95.5996 187.2 93.0996 189.5 90.6996 191.8C86.3996 195.9 82.0996 200.5 79.1996 205.8C77.8996 208.3 76.7996 211 76.8996 213.8C76.8996 214.3 77.6996 214.3 77.6996 213.8C77.4996 208.3 81.4996 203.1 84.7996 199.1C88.0996 195.1 91.9996 191.3 96.0996 187.9C96.9996 187.2 97.7996 186.4 98.6996 185.7H98.0996C98.0996 185.5 98.1996 186.1 98.2996 186.2C98.3996 186.9 98.3996 187.7 98.3996 188.4C98.2996 191.7 97.2996 194.9 96.0996 198C94.4996 202.1 92.4996 205.9 89.0996 208.8C86.8996 210.7 84.2996 212 81.4996 212.8C80.0996 213.2 78.6996 213.5 77.2996 213.5C75.8996 213.5 76.7996 214.3 77.2996 214.3V214.1Z" fill="#231F20"/>
<path d="M76.2002 183.9C76.2002 184.4 86.2002 183.1 90.3002 177.6C94.4002 172.1 95.9002 160.3 95.6002 158.5C95.6002 158.5 77.0002 173 76.2002 183.9Z" fill="#231F20"/>
<path d="M75.9004 184C76.1004 184.9 78.9004 184.1 79.4004 184C82.1004 183.4 84.8004 182.4 87.2004 180.9C92.4004 177.5 94.2004 171 95.3004 165.2C95.7004 163.1 96.3004 160.5 96.0004 158.4C96.0004 158.1 95.6004 158.1 95.4004 158.2C93.1004 160 90.9004 161.9 88.9004 164C85.0004 167.7 81.2004 171.8 78.5004 176.5C77.2004 178.8 76.1004 181.3 75.9004 183.9C75.9004 184.4 76.6004 184.4 76.7004 183.9C77.1004 178.8 80.6004 174.2 83.8004 170.5C87.0004 166.8 90.2004 163.7 93.7004 160.7C94.5004 160.1 95.2004 159.4 96.0004 158.8L95.4004 158.6C95.7004 160.2 95.2004 162.1 95.0004 163.6C94.6004 166.3 94.0004 168.9 93.1004 171.5C92.2004 174.1 91.1004 176.7 89.1004 178.6C87.1004 180.5 84.5004 181.8 81.9004 182.6C80.8004 183 79.7004 183.2 78.5004 183.4C78.1004 183.4 77.7004 183.5 77.3004 183.5C77.2004 183.5 77.0004 183.5 76.9004 183.5C76.6004 183.5 76.9004 183.3 76.9004 183.7C76.8004 183.2 76.1004 183.4 76.2004 183.9L75.9004 184Z" fill="#231F20"/>
<path d="M77.4004 203C76.8004 201.1 76.2004 199.2 75.5004 197.3C73.8004 192.6 71.8004 187.9 69.7004 183.4C66.8004 177.4 63.6004 171.5 59.9004 166C56.0004 160.1 51.5004 154.6 46.2004 149.8C41.1004 145.2 35.1004 141.5 28.5004 139.6C27.7004 139.4 26.9004 139.2 26.0004 139C25.7004 139 25.2004 139.7 24.9004 139.6C31.7004 141.1 37.8004 144.4 43.1004 148.7C48.6004 153.2 53.3004 158.6 57.3004 164.4C61.2004 169.9 64.6004 175.8 67.5004 181.9C69.8004 186.7 72.0004 191.5 73.8004 196.5C74.4004 198.1 75.0004 199.6 75.5004 201.2C75.7004 201.7 75.8004 202.2 76.0004 202.6C76.2004 203 76.1004 203.2 76.2004 203.4C76.2004 203.4 76.2004 203.4 76.2004 203.5C76.2004 203.5 77.3004 203 77.3004 202.9L77.4004 203Z" fill="#231F20"/>
<path d="M77.8 202.9C74.3 191.4 69 180 62.7 169.8C56.8 160.2 49.5 151 40 144.7C37.5 143.1 34.9 141.7 32.1 140.6C30.6 140 29.1 139.5 27.5 139.1C27 139 26.4 138.7 25.9 138.8C25.5 138.8 25.2 139.3 24.8 139.4C24.4 139.4 24.4 140 24.8 140.1C35.5 142.5 44.3 149.4 51.4 157.5C58.5 165.6 64.5 175.9 69.2 186.2C71.8 191.9 74.2 197.8 76.1 203.8C76.1 204 76.5 204.2 76.7 204C77 203.7 77.6 203.7 77.8 203.3C78 202.9 77.4 202.5 77.2 202.9C77 203.1 76.4 203.2 76.2 203.4L76.8 203.6C73.5 192.7 68.6 182 62.8 172.1C57 162.2 50.3 153.4 41.3 146.9C36.5 143.4 31 140.7 25.1 139.4V140.1C25.4 140.1 25.5 139.8 25.8 139.7C26.4 139.4 27 139.7 27.6 139.9C29 140.3 30.3 140.7 31.6 141.2C34.1 142.2 36.5 143.4 38.8 144.8C43.5 147.7 47.6 151.4 51.3 155.5C59 164 64.9 174.1 69.8 184.5C72.6 190.5 75.2 196.8 77.1 203.1C77.2 203.6 78 203.4 77.8 202.9Z" fill="#231F20"/>
<path d="M74.6998 196.9C74.6998 196.9 61.1998 200.6 53.8998 194.3C46.5998 188 44.2998 183.2 44.2998 183.2C44.2998 183.2 54.0998 181.1 61.7998 187.6C69.4998 194.1 74.7998 196.9 74.7998 196.9H74.6998Z" fill="#231F20"/>
<path d="M74.5996 196.6C70.9996 197.6 67.0996 197.9 63.4996 197.5C60.4996 197.2 57.2996 196.4 54.7996 194.5C51.8996 192.4 49.2996 189.6 47.0996 186.8C46.1996 185.6 45.1996 184.3 44.4996 183L44.2996 183.5C47.7996 182.8 51.7996 183.2 55.1996 184.3C58.8996 185.5 61.5996 187.9 64.4996 190.3C66.6996 192 68.9996 193.7 71.2996 195.2C72.2996 195.9 73.3996 196.6 74.3996 197.1C74.7996 197.3 75.1996 196.7 74.7996 196.5C71.1996 194.5 67.8996 192 64.6996 189.5C61.8996 187.3 59.3996 185.1 56.0996 183.8C53.5996 182.9 50.9996 182.4 48.2996 182.4C46.8996 182.4 45.4996 182.4 44.0996 182.7C43.8996 182.7 43.7996 183.1 43.8996 183.2C44.4996 184.4 45.2996 185.4 45.9996 186.5C48.1996 189.4 50.7996 192 53.5996 194.4C58.1996 198.2 64.5996 198.6 70.1996 198C71.6996 197.8 73.2996 197.6 74.7996 197.2C75.2996 197.1 75.0996 196.3 74.5996 196.5V196.6Z" fill="#231F20"/>
<path d="M66.1996 177.9C65.9996 177.5 73.9996 165.8 68.5996 157.2C68.5996 157.2 62.9996 165.7 66.1996 177.9Z" fill="#231F20"/>
<path d="M66.5002 177.8C66.5002 178 66.5002 177.8 66.6002 177.7C66.7002 177.5 66.8002 177.3 66.9002 177.2C67.2002 176.6 67.5002 176 67.8002 175.4C68.6002 173.7 69.3002 172 69.9002 170.2C71.2002 165.8 71.4002 161.1 68.9002 157.1C68.8002 156.9 68.4002 156.9 68.3002 157.1C67.1002 158.9 66.4002 161 65.8002 163.1C64.5002 168 64.6002 173.2 65.8002 178.1C65.9002 178.6 66.7002 178.4 66.5002 177.9C65.2002 173 65.1002 167.9 66.5002 163.1C67.0002 161.2 67.7002 159.2 68.8002 157.5H68.2002C70.8002 161.7 70.3002 166.7 68.7002 171.2C68.1002 172.8 67.4002 174.4 66.6002 176C66.4002 176.5 65.6002 177.5 65.7002 178.1C65.8002 178.6 66.6002 178.4 66.4002 177.9L66.5002 177.8Z" fill="#231F20"/>
<path d="M63.6998 173.5C63.6998 173.5 58.2998 174.6 53.8998 176.2C49.4998 177.8 36.7998 168.6 36.7998 168.6C36.7998 168.6 47.3998 165.7 55.7998 170C64.1998 174.3 63.6998 173.4 63.6998 173.4V173.5Z" fill="#231F20"/>
<path d="M63.5998 173.1C60.6998 173.7 57.7998 174.4 54.9998 175.4C53.6998 175.8 52.6998 176.1 51.2998 175.9C49.9998 175.7 48.7998 175.2 47.5998 174.7C43.7998 173 40.2998 170.8 36.9998 168.4V169.1C41.0998 168 45.7998 167.8 50.0998 168.6C53.5998 169.3 56.5998 171 59.7998 172.5C60.8998 173 62.2998 173.9 63.4998 174C63.8998 174 64.3998 173.9 64.1998 173.4C63.9998 173 63.2998 173.4 63.5998 173.8C63.4998 173.6 63.7998 173.2 63.7998 173.3H63.5998C63.0998 172.9 62.1998 172.8 61.5998 172.5C58.2998 171.1 55.2998 169.1 51.7998 168.2C46.9998 167 41.5998 167.1 36.8998 168.4C36.5998 168.4 36.5998 168.9 36.8998 169.1C39.3998 170.9 41.9998 172.6 44.6998 174C46.5998 175 48.5998 176 50.5998 176.5C51.3998 176.7 52.1998 176.9 52.9998 176.8C54.0998 176.8 55.1998 176.2 56.1998 175.9C58.7998 175.1 61.3998 174.4 63.9998 173.9C64.4998 173.9 64.2998 173.1 63.7998 173.2L63.5998 173.1Z" fill="#231F20"/>
<path d="M48.1996 152.6C48.1996 152.6 43.2996 163.1 33.9996 163.3C24.6996 163.5 15.0996 162.3 15.0996 162.3C15.0996 162.3 22.5996 151.2 30.1996 151.1C37.7996 151 48.1996 152.6 48.1996 152.6Z" fill="#231F20"/>
<path d="M47.9004 152.5C46.6004 155.4 44.4004 158 41.9004 160C39.6004 161.8 36.9004 162.9 33.9004 163.1C29.8004 163.3 25.7004 163.1 21.7004 162.8C19.5004 162.6 17.2004 162.4 15.0004 162.2L15.3004 162.8C17.4004 159.6 20.3004 156.6 23.4004 154.3C25.9004 152.5 28.4004 151.7 31.5004 151.7C34.9004 151.7 38.3004 152 41.7004 152.4C43.8004 152.6 45.8004 152.9 47.9004 153.2C48.4004 153.2 48.6004 152.6 48.1004 152.5C42.8004 151.7 37.4004 151.1 32.0004 151C29.0004 151 26.5004 151.4 23.9004 153C21.5004 154.5 19.4004 156.5 17.5004 158.6C16.4004 159.8 15.4004 161.1 14.5004 162.5C14.3004 162.8 14.5004 163 14.8004 163.1C20.9004 163.9 27.1004 164.2 33.2004 164.1C38.6004 164 43.0004 160.9 46.1004 156.6C46.9004 155.5 47.6004 154.4 48.2004 153.2C48.4004 152.8 47.8004 152.4 47.6004 152.8L47.9004 152.5Z" fill="#231F20"/>
<path d="M25.7002 139.4C25.7002 139.4 20.5002 149.8 0.700195 145.1C0.700195 145.1 4.30017 138.3 11.4002 137.6C18.5002 136.9 21.4002 137 21.4002 137C21.4002 137 9.80019 128 11.1002 110.6C11.1002 110.6 27.1002 117.5 25.7002 139.4Z" fill="#231F20"/>
<path d="M25.4 139.3C24.8 140.5 23.7 141.5 22.7 142.4C19.7 144.8 15.7 145.8 11.9 146C8.09998 146.2 4.49997 145.7 0.799971 144.8L0.99998 145.4C2.69998 142.3 5.79999 139.6 9.09999 138.6C12 137.7 15.2 137.7 18.2 137.6C19.3 137.6 20.3 137.5 21.4 137.6C21.7 137.6 21.9 137.2 21.7 137C19.5 135.3 17.7 132.9 16.2 130.5C12.5 124.6 11.1 117.7 11.6 110.9L11 111.2C17.5 114 22.2 120.8 24.1 127.4C25.3 131.4 25.6 135.5 25.3 139.7C25.3 140.2 26 140.2 26.1 139.7C26.7 128.8 22.8 117.8 13.4 111.8C12.7 111.4 12 110.9 11.3 110.6C11 110.5 10.8 110.6 10.7 110.9C10.1 120.1 13 129.5 19.6 136.2C20.1 136.7 20.6 137.2 21.1 137.6L21.4 137C20.2 137 18.9 137 17.6 137.1C14.5 137.3 11.1 137.2 8.2 138.3C4.9 139.5 1.89997 142.2 0.299971 145.2C0.199971 145.4 0.299983 145.7 0.499983 145.8C8.39998 147.7 19.2 148.3 25 141.3C25.3 140.9 25.7 140.4 25.9 140C26.1 139.6 25.5 139.2 25.3 139.6L25.4 139.3Z" fill="#231F20"/>
<path d="M33.3998 142C33.3998 142 30.5998 133.7 31.0998 126.5C31.5998 119.2 32.3998 113.6 32.3998 113.6C32.3998 113.6 39.1998 120 38.6998 127.2C38.1998 134.4 37.6998 140.4 33.3998 142Z" fill="#231F20"/>
<path d="M33.8002 141.9C32.4002 137.6 31.5002 132.9 31.4002 128.3C31.4002 123.4 32.0002 118.5 32.7002 113.7L32.1002 113.9C35.1002 116.7 37.6002 120.8 38.2002 124.9C38.4002 126.6 38.2002 128.3 38.1002 130C38.0002 131.7 37.8002 133.4 37.5002 135C37.0002 137.6 36.0002 140.6 33.3002 141.7C32.9002 141.9 33.1002 142.6 33.5002 142.4C36.0002 141.4 37.3002 139 37.9002 136.5C38.3002 134.9 38.5002 133.3 38.7002 131.7C38.9002 129.8 39.2002 127.7 39.1002 125.8C38.8002 121.2 36.0002 116.5 32.7002 113.4C32.5002 113.2 32.1002 113.3 32.1002 113.6C31.4002 118.5 30.7002 123.5 30.7002 128.4C30.7002 133 31.6002 137.8 33.1002 142.2C33.2002 142.7 34.0002 142.5 33.8002 142V141.9Z" fill="#231F20"/>
<path d="M51.1003 155.7C51.1003 155.7 49.0003 142 51.7003 136.5C51.7003 136.5 57.5003 144.6 55.3003 152.8C54.8003 154.6 53.1003 155.9 51.2003 155.7H51.1003Z" fill="#231F20"/>
<path d="M51.4998 155.6C51.0998 153.2 50.8998 150.7 50.7998 148.3C50.5998 144.6 50.3998 140.2 51.9998 136.7H51.3998C52.8998 138.8 53.9998 141.3 54.6998 143.8C55.5998 147 56.6998 155.9 51.1998 155.3C50.6998 155.3 50.6998 156 51.1998 156.1C56.7998 156.7 56.5998 148.8 55.8998 145.3C55.2998 142.2 53.9997 139 52.0997 136.3C51.9997 136.1 51.5998 136 51.4998 136.3C49.7998 139.8 49.9997 144.2 50.0997 148.1C50.1997 150.7 50.3998 153.3 50.7998 155.9C50.7998 156.4 51.5998 156.2 51.4998 155.7V155.6Z" fill="#231F20"/>
<path d="M75.7002 148.9C75.7002 148.9 82.7002 130.5 97.4002 127.2C97.4002 127.2 92.8002 153 75.7002 148.9Z" fill="#231F20"/>
<path d="M76.0996 149C76.8996 146.8 78.0996 144.8 79.1996 142.8C81.6996 138.5 84.9996 134.6 88.9996 131.6C91.5996 129.7 94.3996 128.3 97.4996 127.6L96.9996 127.1C96.4996 129.9 95.5996 132.6 94.5996 135.2C92.6996 139.9 89.8996 144.8 85.2996 147.4C82.2996 149.1 78.9996 149.3 75.6996 148.6C75.1996 148.5 74.9996 149.2 75.4996 149.3C78.3996 150 81.3996 149.9 84.1996 148.8C86.6996 147.8 88.7996 146 90.4996 143.9C93.5996 140.1 95.5996 135.4 96.8996 130.7C97.1996 129.6 97.4996 128.5 97.6996 127.4C97.6996 127.1 97.4996 126.9 97.1996 126.9C87.3996 129.1 80.3996 137.8 76.2996 146.4C75.8996 147.2 75.4996 148 75.1996 148.8C74.9996 149.2 75.6996 149.4 75.8996 149H76.0996Z" fill="#231F20"/>
<path d="M76.2002 124.5C76.2002 124.5 88.3002 126.2 93.5002 117.1C98.6002 108 97.5002 102.4 97.5002 102.4C97.5002 102.4 80.3002 113.6 76.3002 124.5H76.2002Z" fill="#231F20"/>
<path d="M76.0998 124.9C79.5998 125.4 83.5998 124.9 86.8998 123.5C89.6998 122.3 92.0998 120.3 93.6998 117.6C95.5998 114.4 97.0998 110.7 97.6998 107C97.8998 105.5 98.1998 103.8 97.7998 102.3C97.7998 102.1 97.3998 101.9 97.2998 102.1C90.8998 106.3 84.6998 111.4 79.9998 117.4C78.2998 119.5 76.8998 121.8 75.8998 124.4C75.6998 124.8 76.3998 125 76.5998 124.6C78.3998 119.8 81.9998 115.9 85.5998 112.4C88.6998 109.4 91.9998 106.7 95.4998 104.2C96.1998 103.7 96.8998 103.2 97.5998 102.7L97.0998 102.5C97.2998 103.6 97.1998 104.7 97.0998 105.8C96.6998 109.2 95.4998 112.4 93.9998 115.4C92.4998 118.4 90.4998 120.8 87.3998 122.3C85.1998 123.4 82.6998 124 80.1998 124.1C78.9998 124.1 77.1998 124.1 76.2998 124.1C75.3998 124.1 75.5998 124.8 76.0998 124.8V124.9Z" fill="#231F20"/>
<path d="M75.7002 147.8C75.7002 147.8 68.4002 135.7 60.7002 133.6C60.7002 133.6 63.6002 154.4 75.7002 147.8Z" fill="#231F20"/>
<path d="M76.1004 147.6C73.5004 143.2 70.0004 138.9 65.9004 135.8C64.4004 134.7 62.7004 133.7 60.9004 133.2C60.6004 133.2 60.4004 133.4 60.4004 133.7C60.7004 136.1 61.4004 138.4 62.2004 140.7C63.5004 144 65.5004 147.9 69.0004 149.1C71.3004 149.9 73.8004 149.3 75.9004 148.2C76.3004 148 75.9004 147.3 75.5004 147.6C73.7004 148.6 71.5004 149.2 69.5004 148.6C67.8004 148.1 66.5004 146.9 65.4004 145.5C63.4004 142.7 62.2004 139.3 61.5004 136C61.3004 135.2 61.1004 134.4 61.0004 133.6L60.5004 134.1C63.8004 135 66.5004 137.4 68.9004 139.8C70.9004 141.9 72.7004 144.2 74.4004 146.7C74.7004 147.2 75.0004 147.7 75.4004 148.2C75.6004 148.6 76.3004 148.2 76.0004 147.8L76.1004 147.6Z" fill="#231F20"/>
<path d="M76.9003 114.4C76.9003 114.4 69.1003 93.6998 56.1003 91.7998C56.1003 91.7998 53.2003 104 60.7003 109.6C68.2003 115.2 76.8003 114.4 76.8003 114.4H76.9003Z" fill="#231F20"/>
<path d="M77.1995 114.3C76.1995 111.8 74.9995 109.4 73.6995 107C71.1995 102.5 68.0996 98.1 63.8996 95C61.5996 93.2 58.9995 91.9 56.0995 91.5C55.8995 91.5 55.6995 91.5 55.5995 91.8C54.7995 95.4 54.7995 99.4 55.7995 102.9C56.5995 105.7 57.9995 108.1 60.2995 109.9C63.2995 112.2 66.9995 113.7 70.6995 114.4C72.6995 114.8 74.6995 115 76.6995 114.8C77.1995 114.8 77.1995 114 76.6995 114C71.8995 114.5 66.5995 113 62.5995 110.5C59.6995 108.8 57.6996 106.4 56.6996 103.3C55.8996 100.9 55.6996 98.5 55.8996 96C55.8996 94.6 56.0996 93.3 56.3996 91.9L55.8996 92.2C61.0996 93 65.1996 96.6 68.3996 100.6C71.1996 104 73.3996 108 75.2996 112C75.6996 112.8 76.0996 113.7 76.3996 114.5C76.5996 114.9 77.2995 114.7 77.0995 114.3H77.1995Z" fill="#231F20"/>
<path d="M82.3998 90.8C82.3998 90.8 96.5998 93.4 101.2 85.6C105.8 77.8 105.4 75.5 105.4 75.5C105.4 75.5 88.4998 78.7 82.2998 90.8H82.3998Z" fill="#231F20"/>
<path d="M82.2998 91.0996C85.8998 91.6996 89.6998 91.6996 93.2998 90.9996C95.8998 90.3996 98.4998 89.3996 100.3 87.3996C101.5 86.1996 102.3 84.5996 103.1 83.0996C103.8 81.6996 104.5 80.2996 105.1 78.8996C105.5 77.8996 106.1 76.4996 105.9 75.3996C105.9 75.1996 105.6 75.0996 105.4 75.0996C98.9998 76.2996 92.3998 79.3996 87.4998 83.7996C85.2998 85.6996 83.4998 87.9996 82.0998 90.5996C81.8998 90.9996 82.4998 91.3996 82.6998 90.9996C86.7998 83.1996 95.1998 78.6996 103.4 76.3996C104.1 76.1996 104.8 75.9996 105.5 75.8996L105 75.5996C105 75.4996 105 75.9996 105 76.0996C105 76.7996 104.7 77.3996 104.5 77.9996C104.1 79.1996 103.5 80.4996 102.9 81.5996C102.1 83.1996 101.2 84.9996 100.1 86.3996C96.8998 90.2996 90.9998 90.8996 86.2998 90.6996C84.9998 90.6996 83.6998 90.5996 82.3998 90.2996C81.8998 90.2996 81.6998 90.8996 82.1998 90.9996L82.2998 91.0996Z" fill="#231F20"/>
<path d="M88.7002 77.1998C88.7002 77.1998 85.3002 56.0998 78.5002 52.7998C78.5002 52.7998 72.0002 73.4998 88.7002 77.1998Z" fill="#231F20"/>
<path d="M89.1001 77.1002C88.7001 74.5002 88.1001 72.0002 87.5001 69.5002C86.4001 65.1002 85.0001 60.6002 82.7001 56.7002C81.7001 55.0002 80.5001 53.3002 78.7001 52.5002C78.5001 52.4002 78.2001 52.5002 78.2001 52.7002C76.2001 59.1002 76.0001 67.7002 80.6001 73.1002C82.7001 75.5002 85.6001 76.9002 88.7001 77.6002C89.2001 77.7002 89.4001 77.0002 88.9001 76.9002C83.6001 75.7002 79.7001 72.3002 78.4001 67.0002C77.4001 63.2002 77.6001 59.2002 78.4001 55.4002C78.6001 54.6002 78.8001 53.7002 79.0001 52.9002L78.5001 53.1002C82.0001 54.8002 83.6001 59.5002 84.9001 62.9002C86.3001 66.7002 87.3001 70.7002 88.1001 74.7002C88.3001 75.6002 88.4001 76.4002 88.6001 77.3002C88.6001 77.8002 89.4001 77.6002 89.3001 77.1002H89.1001Z" fill="#231F20"/>
<path d="M96.1997 63.4004C96.1997 63.4004 84.0997 50.2004 88.6997 36.4004C88.6997 36.4004 100.4 46.0004 96.1997 63.4004Z" fill="#231F20"/>
<path d="M96.4999 63.1001C90.1999 56.2001 86.0999 45.6001 89.0999 36.4001L88.4999 36.6001C90.5999 38.4001 92.3999 40.8001 93.6999 43.3001C96.9999 49.5001 97.4999 56.5001 95.8999 63.3001C95.7999 63.8001 96.4999 64.0001 96.5999 63.5001C98.6999 54.4001 96.8999 44.6001 90.4999 37.6001C89.9999 37.1001 89.4999 36.6001 88.9999 36.1001C88.7999 35.9001 88.4999 36.0001 88.3999 36.3001C85.3999 45.7001 89.4999 56.6001 95.9999 63.7001C96.2999 64.1001 96.8999 63.5001 96.4999 63.2001V63.1001Z" fill="#231F20"/>
<path d="M100.1 57.2001C100.1 57.2001 116 46.3001 126.3 49.9001C126.3 49.9001 118.8 64.0001 109.4 63.4001C99.9997 62.8001 100.1 57.2001 100.1 57.2001Z" fill="#231F20"/>
<path d="M100.2 57.4999C103 55.5999 106 53.9999 109 52.6999C114.2 50.3999 120.5 48.3999 126.1 50.2999L125.9 49.6999C124.1 53.0999 121.6 56.2999 118.8 58.8999C116.6 60.8999 113.9 62.6999 110.8 62.9999C107.7 63.2999 104.2 62.5999 102 60.4999C101.1 59.6999 100.3 58.3999 100.3 57.1999C100.3 56.6999 99.5 56.6999 99.5 57.1999C99.5 61.4999 104.7 63.2999 108.2 63.6999C114.7 64.3999 119.8 59.4999 123.4 54.5999C124.5 53.1999 125.5 51.5999 126.4 49.9999C126.5 49.7999 126.4 49.4999 126.2 49.3999C120.7 47.5999 114.5 49.3999 109.4 51.5999C106.1 52.9999 102.8 54.6999 99.8 56.7999C99.4 57.0999 99.8 57.6999 100.2 57.3999V57.4999Z" fill="#231F20"/>
<path d="M112.3 41.2998C112.3 41.2998 114.1 23.0998 103.3 16.2998C103.3 16.2998 100.3 25.7998 103.3 32.0998C106.3 38.3998 112.3 41.2998 112.3 41.2998Z" fill="#231F20"/>
<path d="M112.6 41.3002C113.2 34.8002 112.2 27.4002 108.9 21.7002C107.5 19.4002 105.7 17.4002 103.5 16.0002C103.3 15.9002 103 16.0002 103 16.2002C101.5 20.9002 100.9 26.6002 102.6 31.3002C104.2 35.6002 108 39.7002 112.1 41.7002C112.5 41.9002 112.9 41.3002 112.5 41.0002C108.4 39.1002 104.6 35.0002 103.2 30.8002C101.8 26.6002 102.3 20.9002 103.7 16.5002L103.2 16.7002C108.3 20.0002 110.7 26.0002 111.6 31.8002C112.1 34.9002 112.3 38.2002 112 41.4002C112 41.9002 112.7 41.9002 112.8 41.4002L112.6 41.3002Z" fill="#231F20"/>
<path d="M33.7002 20.0001C33.7002 20.0001 26.8002 4.00005 11.2002 4.70005C11.2002 4.70005 12.8002 14.7001 19.8002 18.4001C26.8002 22.1001 33.7002 20.0001 33.7002 20.0001Z" fill="#231F20"/>
<path d="M33.9998 19.7998C31.3998 13.8998 26.2998 8.4998 20.3998 5.9998C17.4998 4.7998 14.3998 4.19981 11.1998 4.29981C10.8998 4.29981 10.7998 4.49981 10.7998 4.79981C11.2998 7.69981 12.3998 10.6998 13.9998 13.1998C17.0998 18.1998 22.4998 20.6998 28.2998 20.8998C30.0998 20.8998 32.0998 20.8998 33.7998 20.2998C34.2998 20.1998 34.0998 19.3998 33.5998 19.5998C29.1998 20.8998 23.8998 20.1998 19.9998 18.0998C16.0998 15.9998 13.5998 11.7998 12.2998 7.5998C11.9998 6.5998 11.6998 5.6998 11.5998 4.6998L11.1998 5.1998C20.3998 4.8998 27.9998 10.6998 32.3998 18.3998C32.7998 18.9998 33.0998 19.5998 33.3998 20.2998C33.5998 20.6998 34.1998 20.2998 33.9998 19.8998V19.7998Z" fill="#231F20"/>
<path d="M41.5999 26.9C41.5999 26.9 49.7999 9.4 38.6999 1C38.6999 1 34.1999 16.9 41.5999 26.9Z" fill="#231F20"/>
<path d="M41.8999 27.0998C44.5999 21.1998 46.0999 13.5998 43.7999 7.29976C42.7999 4.59976 41.1999 2.39976 38.8999 0.699754C38.6999 0.499754 38.3999 0.599758 38.2999 0.899758C37.3999 3.99976 37.0999 7.19976 36.9999 10.2998C36.7999 16.0998 37.7999 22.1998 41.1999 27.0998C41.4999 27.4998 42.0999 27.0998 41.7999 26.6998C38.3999 21.8998 37.3999 15.7998 37.6999 9.99976C37.7999 6.99976 38.1999 3.89976 38.9999 1.09976L38.3999 1.29976C46.0999 7.29976 44.8999 18.7998 41.1999 26.7998C40.9999 27.1998 41.5999 27.5998 41.7999 27.1998L41.8999 27.0998Z" fill="#231F20"/>
<path d="M54.0998 39.7004C54.0998 39.7004 50.1998 27.4004 53.0998 20.6004C55.9998 13.8004 59.0998 9.40039 59.0998 9.40039C59.0998 9.40039 64.2998 20.6004 60.6998 30.1004C57.0998 39.6004 54.0998 39.6004 54.0998 39.6004V39.7004Z" fill="#231F20"/>
<path d="M54.5005 39.6001C53.1005 35.2001 52.2005 30.3001 52.5005 25.7001C52.7005 21.8001 54.5005 18.3001 56.3005 14.9001C57.3005 13.1001 58.3005 11.3001 59.5005 9.60008H58.9005C61.3005 14.8001 62.4005 21.3001 61.4005 26.9001C60.7005 30.6001 59.0005 34.7001 56.5005 37.5001C56.0005 38.1001 54.9005 39.2001 54.2005 39.2001C53.7005 39.2001 53.7005 40.0001 54.2005 40.0001C54.8005 40.0001 55.4005 39.6001 55.8005 39.2001C57.5005 37.9001 58.7005 35.8001 59.6005 33.9001C61.2005 30.6001 62.3005 27.2001 62.4005 23.5001C62.5005 20.3001 62.0005 17.1001 61.2005 14.1001C60.7005 12.4001 60.2005 10.7001 59.5005 9.20008C59.4005 8.90008 59.0005 9.00008 58.9005 9.20008C57.6005 11.1001 56.4005 13.1001 55.4005 15.1001C53.7005 18.3001 52.1005 21.6001 51.9005 25.3001C51.6005 30.1001 52.5005 35.2001 53.9005 39.7001C54.0005 40.2001 54.8005 40.0001 54.6005 39.5001L54.5005 39.6001Z" fill="#231F20"/>
<path d="M65.5001 55.5C65.5001 55.5 63.4001 40.6 68.3001 33.4C73.2001 26.2 74.1001 24.5 74.1001 24.5C74.1001 24.5 78.3001 34.4 74.6001 44.5C70.9001 54.6 65.6001 55.5 65.6001 55.5H65.5001Z" fill="#231F20"/>
<path d="M65.8004 55.4C65.3004 51.7 65.2004 47.8 65.5004 44.1C65.7004 41.1 66.3004 38 67.5004 35.3C68.7004 32.6 70.9004 30 72.6004 27.4C73.2004 26.5 73.8004 25.6 74.2004 24.7H73.5004C75.2004 28.7 75.8004 33.4 75.4004 37.8C75.0004 43.6 72.4004 50.6 67.5004 54C66.8004 54.5 66.0004 55 65.2004 55.1C64.7004 55.1 64.9004 55.9 65.4004 55.8C68.1004 55.3 70.3004 52.6 71.8004 50.5C75.9004 44.5 77.0004 37 75.8004 29.9C75.5004 28 75.0004 26.1 74.3004 24.3C74.2004 24 73.8004 23.9 73.6004 24.3C71.7004 27.9 68.9004 31 67.0004 34.6C64.4004 39.6 64.3004 45.8 64.6004 51.2C64.6004 52.7 64.8004 54.1 65.0004 55.6C65.0004 56.1 65.8004 55.9 65.7004 55.4H65.8004Z" fill="#231F20"/>
<path d="M75.0996 76.3996C75.0996 76.3996 58.4996 61.6996 43.0996 66.2996C43.0996 66.2996 49.9996 78.3996 59.0996 78.1996C68.1996 77.9996 75.0996 76.3996 75.0996 76.3996Z" fill="#231F20"/>
<path d="M75.4002 76.1001C73.3002 74.3001 71.0002 72.7001 68.7002 71.3001C63.9002 68.4001 58.7002 66.1001 53.2002 65.3001C49.8002 64.8001 46.4002 65.0001 43.1002 65.9001C42.9002 65.9001 42.7002 66.2001 42.9002 66.5001C44.7002 69.7001 47.3002 72.7001 50.2002 75.0001C52.4002 76.7001 54.9002 78.1001 57.7002 78.5001C59.5002 78.7001 61.4002 78.5001 63.2002 78.5001C65.2002 78.4001 67.1002 78.2001 69.1002 77.9001C71.2002 77.6001 73.3002 77.3001 75.4002 76.8001C75.9002 76.7001 75.7002 76.0001 75.2002 76.1001C70.0002 77.3001 64.5002 78.0001 59.1002 77.9001C53.7002 77.8001 49.1002 73.7001 45.9002 69.6001C45.0002 68.5001 44.2002 67.4001 43.5002 66.2001L43.3002 66.8001C53.7002 63.8001 64.6002 68.9001 72.8002 75.1001C73.5002 75.7001 74.3002 76.2001 75.0002 76.8001C75.4002 77.1001 75.9002 76.6001 75.5002 76.3001L75.4002 76.1001Z" fill="#231F20"/>
<path d="M64.2 53.3996C64.2 53.3996 52.8 60.2996 44.6 55.5996C36.4 50.8996 32.5 45.4996 32.5 45.4996C32.5 45.4996 44.9 42.4996 53.2 47.5996C61.5 52.6996 64.3 53.4996 64.3 53.4996L64.2 53.3996Z" fill="#231F20"/>
<path d="M63.9998 53.1C60.7998 55 56.8998 56.4 53.0998 56.8C49.7998 57.1 46.7998 56.5 43.8998 54.8C40.9998 53.1 38.1998 51 35.6998 48.6C34.5998 47.6 33.5998 46.5 32.6998 45.3L32.4998 45.9C36.2998 45 40.4998 44.8 44.3998 45.2C47.8998 45.6 50.8998 46.7 53.8998 48.5C56.3998 50 58.8998 51.5 61.4998 52.7C62.2998 53.1 63.0998 53.5 63.9998 53.8C64.4998 53.9 64.6998 53.2 64.1998 53.1C63.3998 52.9 62.6998 52.5 61.9998 52.2C59.2998 50.9 56.6998 49.4 54.1998 47.9C51.2998 46.2 48.3998 45 45.0998 44.6C42.2998 44.2 39.4998 44.2 36.6998 44.5C35.1998 44.7 33.6998 44.8 32.1998 45.2C31.9998 45.2 31.7998 45.6 31.9998 45.8C34.5998 49.5 38.4998 52.5 42.2998 54.9C45.0998 56.7 47.9998 57.8 51.3998 57.8C54.2998 57.8 57.1998 57.1 59.7998 56C61.2998 55.4 62.8998 54.8 64.2998 53.9C64.6998 53.7 64.2998 53 63.8998 53.3L63.9998 53.1Z" fill="#231F20"/>
<path d="M47.1 32.1005C47.1 32.1005 31.9 37.9005 18.5 28.8005C18.5 28.8005 28.2 24.2005 36.4 27.0005C44.6 29.8005 47.1 32.2005 47.1 32.2005V32.1005Z" fill="#231F20"/>
<path d="M47.0001 31.7997C44.1001 32.8997 41.0001 33.3997 38.0001 33.4997C31.2001 33.8997 24.4001 32.2997 18.7001 28.3997V29.0997C23.3001 26.8997 29.0001 25.7997 34.0001 26.6997C37.4001 27.2997 40.9001 28.8997 44.0001 30.4997C45.0001 30.9997 46.0001 31.5997 46.8001 32.2997C47.2001 32.5997 47.7001 32.0997 47.3001 31.7997C46.4001 30.8997 45.2001 30.2997 44.1001 29.6997C40.9001 27.9997 37.3001 26.3997 33.7001 25.7997C28.6001 24.9997 22.9001 26.0997 18.2001 28.2997C17.9001 28.3997 18.0001 28.7997 18.2001 28.9997C23.9001 32.7997 30.7001 34.4997 37.5001 34.1997C40.7001 33.9997 44.0001 33.4997 47.0001 32.3997C47.5001 32.1997 47.2001 31.4997 46.8001 31.6997L47.0001 31.7997Z" fill="#231F20"/>
</g>
<defs>
<clipPath id="clip0_208_144">
<rect width="145" height="264" fill="white"/>
</clipPath>
</defs>
</svg>
