<svg width="155" height="265" viewBox="0 0 155 265" fill="none" xmlns="http://www.w3.org/2000/svg">
<g clip-path="url(#clip0_208_780)">
<path d="M81.0004 263.1C80.8004 261.7 80.8004 260.2 80.7004 258.8C80.5004 255 80.3004 251.1 80.3004 247.3C80.3004 241.8 80.3004 236.3 80.6004 230.8C80.9004 224.3 81.5004 217.8 82.4004 211.3C83.4004 204.5 84.7004 197.8 86.6004 191.2C88.5004 184.6 90.9004 178.4 94.1004 172.4C95.9004 169.1 98.0004 166.1 100.1 163C102.7 159.3 105.3 155.7 107.9 152.1C111.5 147.1 115.3 142.2 119.1 137.3C121.1 134.8 123.1 132.4 125.3 130.1C126 129.3 126.9 128.7 127.6 127.9C127.3 128.1 126.8 128.3 126.5 128.5C126 128.9 125.5 129.4 125 129.9C123.2 131.7 121.5 133.7 119.8 135.7C116.4 139.8 113.1 144 109.9 148.3C107.5 151.5 105.1 154.8 102.8 158.1C100.2 161.7 97.6004 165.3 95.2004 169C91.6004 174.6 88.9004 180.7 86.8004 187C84.6004 193.5 83.0004 200.2 81.8004 207C80.7004 213.5 79.9004 220.1 79.5004 226.7C79.1004 232.5 78.9004 238.3 78.9004 244.2C78.9004 248.5 79.0004 252.8 79.2004 257.1C79.2004 258.5 79.4004 259.9 79.5004 261.2C79.5004 261.9 79.5004 262.7 79.7004 263.4C79.7004 263.4 79.7004 263.6 79.7004 263.7C79.7004 263.5 80.8004 263.2 80.8004 263.1H81.0004Z" fill="#231F20"/>
<path d="M81.4 263.1C80.5 253.5 80.3999 243.6 80.6999 234C81.0999 224.1 82 214.2 83.8 204.4C85.6 195 88.0999 185.7 92.1999 177C96.1999 168.4 102.1 160.8 107.6 153.2C110.9 148.7 114.2 144.2 117.7 139.8C119.4 137.7 121.1 135.6 122.9 133.5C124.5 131.7 126.1 129.7 128 128.2C128.3 127.9 128 127.4 127.6 127.6C125.7 128.8 124.3 130.3 122.8 132C121.2 133.8 119.7 135.6 118.1 137.5C115 141.3 112.1 145.2 109.2 149.1C106.3 153 103.3 157.3 100.3 161.4C97.3 165.5 94.6999 169.3 92.4999 173.5C83.3999 190.6 80.3 210.8 79.3 229.9C78.7 241.1 78.5999 252.5 79.6999 263.7C79.6999 264.1 80.2 264.2 80.4 263.9C80.6 263.6 81.2999 263.7 81.4999 263.3C81.6999 262.9 81.1 262.5 80.8 262.9C80.6 263.2 79.8999 263.2 79.6999 263.5L80.4 263.7C79.5 254 79.3999 244.2 79.6999 234.5C80.0999 224.5 81 214.5 82.9 204.7C84.8 194.9 87.3 185.9 91.4 177.3C95.5 168.7 101.4 161 107 153.4C110.3 148.9 113.7 144.4 117.2 140C118.9 137.9 120.6 135.8 122.3 133.8C124 131.8 125.8 129.7 128 128.4L127.6 127.8C126 129.1 124.5 130.8 123.2 132.4C121.6 134.3 120 136.2 118.5 138.1C115.4 141.9 112.4 145.9 109.5 149.8C106.6 153.7 103.7 157.7 100.9 161.7C98.1 165.7 95.3999 169.6 93.1999 173.8C84.3999 190.9 81.4 210.7 80.4 229.7C79.8 240.8 79.8 252.1 80.8 263.2C80.8 263.7 81.5999 263.7 81.5999 263.2L81.4 263.1Z" fill="#231F20"/>
<path d="M113.7 67.3996C112 69.7996 110.4 72.2996 108.8 74.7996C105 80.6996 101.3 86.6996 97.7996 92.6996C93.6996 99.7996 89.8996 107.1 86.5996 114.6C83.9996 120.7 81.5996 127.2 80.8996 133.8C80.3996 138.9 80.1996 144 79.9996 149.1C79.6996 156.1 79.5996 163.1 79.3996 170.1C79.2996 177.8 79.1996 185.5 79.0996 193.2C79.0996 200.4 79.0996 207.7 79.0996 214.9C79.0996 222.1 79.0996 226.1 79.0996 231.6C79.0996 234.4 79.0996 237.2 79.0996 240V240.4C79.0996 240.2 80.1996 240 80.1996 239.8C80.1996 237.9 80.1996 235.9 80.1996 234C80.1996 229 80.1996 223.9 80.1996 218.9C80.1996 213.9 80.1996 205.1 80.1996 198.1C80.1996 190.4 80.2996 182.7 80.3996 175C80.4996 167.8 80.5996 160.5 80.8996 153.3C81.0996 147.6 81.2996 141.9 81.6996 136.3C81.8996 133.9 82.0996 131.6 82.5996 129.3C83.2996 125.9 84.3996 122.6 85.5996 119.3C88.3996 111.7 92.0996 104.4 95.9996 97.1996C99.5996 90.5996 103.5 84.0996 107.5 77.7996C109.8 74.1996 112.1 70.6996 114.4 67.1996C114.5 66.9996 114 67.1996 114.1 67.0996C113.9 67.3996 113.9 67.0996 113.7 67.3996Z" fill="#231F20"/>
<path d="M113.4 67.1995C106.7 76.7995 100.6 86.7995 94.9002 97.0995C92.1002 102.2 89.5002 107.3 87.1002 112.5C84.9002 117.5 82.8002 122.6 81.5002 127.9C80.2002 133.5 80.0002 139.4 79.7002 145.2C79.4002 151.3 79.2002 157.5 79.1002 163.6C78.8002 175.6 78.7002 187.6 78.7002 199.6C78.7002 213.2 78.7002 226.8 78.7002 240.4C78.7002 240.8 79.2002 240.9 79.4002 240.6C79.7002 240.2 80.3002 240.4 80.5002 239.9C80.7002 239.4 80.5002 238.4 80.5002 237.9C80.5002 237.1 80.5002 236.3 80.5002 235.5C80.5002 232.4 80.5002 229.3 80.5002 226.3C80.5002 220.2 80.5002 214.2 80.5002 208.1C80.5002 195.8 80.6002 183.5 80.8002 171.2C81.0002 158.9 81.1002 146.5 82.2002 134.3C82.8002 128.2 84.6002 122.5 86.9002 116.9C89.2002 111.3 91.8002 106 94.6002 100.7C97.8002 94.7995 101.1 88.9995 104.6 83.2995C106.4 80.3995 108.2 77.5995 110 74.6995C110.9 73.2995 111.9 71.7995 112.8 70.3995C113.2 69.6995 113.7 68.9995 114.2 68.3995C114.4 68.0995 114.9 67.6995 114.8 67.1995C114.8 66.9995 114.6 66.8995 114.4 66.8995H114.1L114.5 67.1995C114.5 66.7995 114.1 66.7995 113.9 66.9995C113.8 66.9995 113.6 67.1995 113.5 67.2995C113.1 67.5995 113.7 68.1995 114 67.7995C114 67.7995 114.3 67.5995 114.4 67.4995L113.8 67.2995C113.8 67.4995 114 67.6995 114.2 67.6995H114.5L114.1 67.3995C114.1 67.3995 112.9 69.0995 112.8 69.1995C112.4 69.6995 112.1 70.2995 111.7 70.7995C110.8 72.1995 109.9 73.4995 109 74.8995C107.4 77.3995 105.8 79.8995 104.2 82.4995C101.1 87.5995 98.0002 92.7995 95.2002 98.0995C92.4002 103.2 89.8002 108.3 87.5002 113.7C85.2002 119.1 83.2002 124.3 82.1002 129.9C81.0002 135.5 80.9002 141.7 80.7002 147.5C80.5002 153.6 80.3002 159.8 80.2002 165.9C80.0002 178 79.8002 190.2 79.8002 202.3C79.8002 209.2 79.8002 216.1 79.8002 223C79.8002 226.4 79.8002 229.8 79.8002 233.2C79.8002 234.8 79.8002 236.4 79.8002 238.1C79.8002 238.4 79.8002 238.7 79.8002 239.1C79.8002 239.7 79.8002 239.8 79.4002 240.1C79.1002 240.3 78.9002 240.3 78.7002 240.5L79.4002 240.7C79.2002 216.8 79.3002 192.8 79.7002 168.9C79.8002 162.9 80.0002 156.9 80.2002 150.9C80.4002 145 80.6002 139.1 81.3002 133.2C82.0002 127.3 84.0002 122 86.2002 116.6C88.4002 111.2 91.0002 106 93.7002 100.9C99.8002 89.4995 106.6 78.2995 114 67.6995C114.3 67.2995 113.6 66.8995 113.3 67.2995L113.4 67.1995Z" fill="#231F20"/>
<path d="M74.5996 32.5004C77.4996 39.3004 79.6997 46.4004 81.4997 53.5004C84.9997 66.9004 87.1997 81.3004 84.7997 95.1004C83.7997 100.7 81.7996 106.1 80.0996 111.5C78.4996 116.8 76.8996 122.1 75.5996 127.6C72.4996 140.3 70.7996 153.3 70.6996 166.3C70.4996 183.4 72.9996 200.4 77.0996 216.9C77.6996 219.3 78.3997 221.8 78.9997 224.2C78.9997 224.2 80.0996 223.7 80.0996 223.6C75.2996 206.5 72.0996 188.9 71.6996 171.1C71.3996 157.6 72.7996 144.2 75.6996 131C76.8996 125.4 78.3997 119.9 79.9997 114.5C81.4997 109.4 83.3997 104.3 84.7997 99.2004C88.4997 85.6004 86.6996 70.9004 83.5996 57.4004C81.6996 48.8004 79.0997 40.3004 75.7997 32.2004C75.7997 32.1338 75.7663 32.0338 75.6996 31.9004C75.6996 31.9004 74.4997 32.3004 74.4997 32.4004L74.5996 32.5004Z" fill="#231F20"/>
<path d="M74.1996 32.7C79.0996 44.3 82.3997 56.8 84.2997 69.2C85.1997 75.5 85.5996 81.9 85.1996 88.2C84.7996 94.5 83.0997 100.8 81.0997 107C77.0997 119.2 73.7997 131.7 71.8997 144.4C69.9997 157.1 69.6997 169.7 70.7997 182.3C71.9997 196.5 74.7997 210.6 78.5997 224.4C78.5997 224.6 78.9996 224.8 79.1996 224.6C79.4996 224.2 80.1997 224.3 80.3997 223.8C80.4997 223.5 80.0997 222.6 79.9997 222.2C79.6997 221.3 79.4996 220.3 79.1996 219.4C78.2996 216.2 77.4997 212.9 76.7997 209.6C75.3997 203.1 74.1997 196.5 73.3997 189.8C71.6997 176.5 71.4997 163.1 72.9997 149.8C74.4997 136.5 77.4996 123.3 81.6996 110.5C83.6996 104.3 85.8996 98.1 86.6996 91.6C87.4996 85.1 87.3996 79 86.6996 72.8C85.1996 58.9 81.4997 44.8 76.0997 31.9C76.0997 31.7 75.7997 31.5 75.4997 31.7C75.0997 31.9 74.5997 32 74.2997 32.3C73.8997 32.6 74.4997 33.1 74.7997 32.8C75.0997 32.6 75.5997 32.6 75.8997 32.4L75.2997 32.2C80.0997 43.7 83.4997 56.1 85.2997 68.4C86.2997 74.7 86.6997 81.2 86.2997 87.6C85.8997 94.2 84.1997 100.4 82.0997 106.7C77.9997 119.2 74.5997 131.9 72.7997 145C70.9997 158.1 70.7997 171.2 71.9997 184.2C72.6997 191.4 73.7996 198.6 75.1996 205.7C75.8996 209.3 76.7997 212.9 77.5997 216.5C77.9997 218.2 78.4997 219.9 78.8997 221.6C78.9997 222 79.0996 222.4 79.1996 222.8C79.2996 223.2 79.4997 223.5 79.3997 223.8C79.2997 224.1 78.7997 224 78.5997 224.3L79.1996 224.5C72.1996 199.5 68.8997 173.5 72.0997 147.7C73.7997 134.6 76.9997 121.8 80.9997 109.3C82.8997 103.4 84.7997 97.5 85.3997 91.3C86.0997 85.1 85.8997 78.8 85.0997 72.6C84.2997 65.7 82.7997 59 81.0997 52.3C79.3997 45.6 77.1997 38.9 74.4997 32.5C74.2997 32.1 73.6997 32.5 73.7997 32.9L74.1996 32.7Z" fill="#231F20"/>
<path d="M36.1 84.1996C37.2 84.3996 38.4 84.6996 39.4 85.0996C42.3 86.0996 45 87.5996 47.5 89.2996C51.3 91.8996 54.6 95.1996 57.4 98.8996C61.3 104.1 64.3 110 66.4 116.1C69.4 124.8 71 134 71.6 143.2C71.6 144.6 71.8 146 71.8 147.4C71.8 147.2 72.9 147 72.9 146.8C72.5 137.2 71.2001 127.5 68.3 118.3C66.3 111.8 63.5 105.5 59.6 99.8996C56.8 95.9996 53.5 92.3996 49.6 89.4996C47 87.5996 44.2 85.8996 41.2 84.7996C40.3 84.3996 39.4 84.0996 38.4 83.8996C38 83.7996 37.5 83.5996 37.1 83.5996C36.8 83.5996 36.3 84.2996 36 84.1996H36.1Z" fill="#231F20"/>
<path d="M35.9996 84.4999C40.7996 85.2999 45.4996 87.9999 49.2996 90.9999C53.0996 93.9999 56.2996 97.6999 58.9996 101.7C64.5996 110.1 67.7995 119.9 69.5995 129.7C70.6995 135.5 71.1996 141.4 71.4996 147.3C71.4996 147.7 71.9995 147.8 72.1995 147.5C72.4995 147.1 73.1996 147.3 73.2996 146.7C73.4996 146.2 73.2996 145.3 73.2996 144.8C73.2996 143.9 73.1995 143.1 73.0995 142.2C72.8995 139.3 72.5995 136.3 72.1995 133.4C71.3995 127.5 70.0995 121.7 68.1995 116C64.6995 105.8 59.0996 95.9999 50.3996 89.3999C47.8996 87.4999 45.1996 85.8999 42.2996 84.6999C40.8996 84.0999 39.4995 83.5999 38.0995 83.2999C37.7995 83.2999 37.4995 83.0999 37.1995 83.1999C36.7995 83.1999 36.4995 83.7999 36.0995 83.7999C35.5995 83.8999 35.7996 84.5999 36.2996 84.4999C36.5996 84.4999 36.6996 84.2999 36.8996 84.1999C37.4996 83.7999 37.4995 83.8999 38.1995 84.1999C39.3995 84.4999 40.5995 84.8999 41.6995 85.3999C44.1995 86.3999 46.4996 87.6999 48.7996 89.2999C53.0996 92.2999 56.7996 96.1999 59.7996 100.6C65.9996 109.6 69.3995 120.3 71.0995 131C71.6995 134.2 71.9996 137.5 72.2996 140.8C72.3996 142.3 72.4995 143.8 72.5995 145.3C72.5995 145.6 72.7995 146.2 72.5995 146.5C72.3995 146.9 72.6995 146.7 72.1995 147C71.9995 147.2 71.7995 147.2 71.5995 147.4L72.2996 147.6C71.3996 127.6 66.7996 104.7 50.4996 91.2999C46.3996 87.9999 41.3995 84.8999 36.1995 83.9999C35.6995 83.9999 35.4996 84.5999 35.9996 84.6999V84.4999Z" fill="#231F20"/>
<path d="M83.5003 21.3997C83.5003 23.7997 82.7004 25.9997 81.4004 27.9997C80.7004 28.8997 79.9003 29.7997 79.0003 30.3997C78.7003 30.5997 78.4003 30.7997 78.2003 30.9997C77.7003 31.2997 78.4004 30.9997 78.4004 30.9997C78.4004 30.9997 77.9004 31.1997 77.8004 31.2997C77.2004 31.5997 76.6003 31.7997 76.0003 31.9997C71.3003 33.2997 66.1003 31.7997 63.0003 28.0997C59.9003 24.3997 59.5003 19.1997 62.0003 15.0997C62.6003 14.0997 63.4003 13.1997 64.2003 12.3997C64.7003 11.9997 65.2003 11.5997 65.7003 11.2997C65.9003 11.1997 66.0003 10.9997 65.5003 11.2997C65.6003 11.2997 66.0003 11.0997 66.1003 10.9997C66.4003 10.8997 66.7003 10.6997 67.0003 10.5997C69.3003 9.69965 71.9004 9.59965 74.3004 10.0997C79.5004 11.2997 83.5003 15.8997 83.5003 21.3997C83.5003 21.1997 84.6003 20.9997 84.6003 20.7997C84.6003 15.4997 80.8003 10.9997 75.7003 9.59965C71.0003 8.39965 65.7004 10.1997 62.4004 13.6997C58.8004 17.4997 58.3003 23.3997 61.2003 27.7997C64.2003 32.2997 70.1003 34.0997 75.2003 32.4997C80.3003 30.8997 84.5003 26.4997 84.6003 20.8997C84.6003 21.0997 83.5003 21.2997 83.5003 21.4997V21.3997Z" fill="#231F20"/>
<path d="M83.2001 21.4002C83.2001 23.5002 82.6003 25.5002 81.4003 27.3002C80.9003 28.1002 80.2002 28.9002 79.5002 29.5002C79.0002 30.0002 78.3003 30.3002 77.8003 30.8002C77.5003 31.1002 77.8001 31.6002 78.2001 31.4002L78.5002 31.2002L78.1001 30.6002C77.1001 31.4002 75.1003 31.7002 73.8003 31.9002C72.3003 32.1002 70.8003 31.9002 69.4003 31.6002C66.4003 30.8002 63.8002 28.9002 62.3002 26.3002C60.8002 23.7002 60.4003 20.4002 61.4003 17.4002C61.9003 15.8002 62.8002 14.4002 64.0002 13.2002C64.6002 12.6002 65.3002 12.2002 66.0002 11.6002C66.2002 11.4002 66.3003 11.4002 66.3003 11.1002C66.3003 10.8002 66.0001 10.6002 65.7001 10.8002C65.6001 10.8002 65.4003 11.0002 65.3003 11.1002C65.0003 11.4002 65.3001 11.9002 65.7001 11.7002C69.3001 9.50022 74.3003 10.0002 77.8003 12.1002C81.0003 14.1002 83.0001 17.7002 83.1001 21.5002C83.1001 21.9002 83.6003 22.0002 83.8003 21.7002C83.9003 21.5002 84.5001 21.5002 84.7001 21.3002C85.0001 21.0002 84.9003 20.6002 84.9003 20.2002C84.9003 18.9002 84.5002 17.6002 84.0002 16.4002C83.0002 14.1002 81.3001 12.1002 79.1001 10.8002C74.2001 7.80022 67.9002 8.70022 63.5002 12.2002C59.1002 15.7002 57.5002 21.9002 60.2002 27.0002C62.9002 32.1002 68.5003 34.2002 73.8003 33.3002C79.8003 32.2002 84.8003 27.1002 84.9003 20.9002C84.9003 20.5002 84.4001 20.4002 84.2001 20.7002C84.0001 21.0002 83.3001 20.9002 83.1001 21.3002C82.9001 21.7002 83.5003 22.1002 83.8003 21.7002C84.0003 21.4002 84.7003 21.5002 84.9003 21.1002L84.2001 20.9002C84.1001 26.1002 80.4001 30.2002 75.7001 32.0002C71.0001 33.8002 65.5002 32.5002 62.3002 28.7002C58.8002 24.6002 58.9003 18.4002 62.4003 14.4002C65.9003 10.4002 71.8003 8.70022 76.8003 10.6002C79.3003 11.5002 81.4003 13.4002 82.8003 15.7002C83.5003 16.9002 83.9001 18.2002 84.1001 19.5002C84.1001 19.8002 84.1001 20.1002 84.1001 20.4002C84.1001 21.0002 84.1001 20.9002 83.7001 21.1002C83.5001 21.2002 83.3001 21.3002 83.1001 21.5002L83.8003 21.7002C83.8003 17.6002 81.6001 13.9002 78.1001 11.7002C74.4001 9.40022 69.1003 9.00022 65.3003 11.3002L65.7001 11.9002L65.9003 11.7002L65.3003 11.4002C65.3003 11.0002 64.6003 11.7002 64.4003 11.9002C64.1003 12.1002 63.8002 12.4002 63.5002 12.7002C62.9002 13.3002 62.4003 13.9002 61.9003 14.5002C60.9003 15.9002 60.3002 17.5002 60.0002 19.2002C59.5002 22.3002 60.3002 25.6002 62.2002 28.1002C64.1002 30.6002 66.9002 32.3002 70.0002 32.9002C71.5002 33.2002 73.1002 33.2002 74.6002 32.9002C75.8002 32.7002 77.4002 32.3002 78.5002 31.6002C78.8002 31.3002 78.5001 30.8002 78.1001 31.0002L77.8003 31.2002L78.2001 31.8002C78.8001 31.2002 79.6001 30.8002 80.2001 30.2002C81.0001 29.5002 81.6001 28.6002 82.2001 27.7002C83.3001 25.9002 83.8003 23.9002 83.9003 21.8002C83.9003 21.3002 83.2001 21.3002 83.1001 21.8002L83.2001 21.4002Z" fill="#231F20"/>
<path d="M129 56.7004C129 59.1004 128.2 61.3004 126.9 63.3004C126.2 64.2004 125.4 65.1004 124.5 65.7004C124.2 65.9004 123.9 66.1004 123.7 66.3004C123.2 66.7004 123.9 66.3004 123.9 66.3004C123.9 66.3004 123.4 66.5004 123.3 66.6004C122.7 66.9004 122.1 67.1004 121.5 67.3004C116.8 68.6004 111.6 67.2004 108.5 63.4004C105.5 59.8004 105 54.5004 107.5 50.4004C108.1 49.4004 108.9 48.5004 109.7 47.7004C110.2 47.3004 110.7 46.9004 111.2 46.6004C111.4 46.5004 111.5 46.3004 111 46.6004C111.1 46.6004 111.5 46.4004 111.6 46.3004C111.9 46.2004 112.2 46.0004 112.5 45.9004C114.8 45.0004 117.4 44.9004 119.8 45.4004C125 46.6004 129 51.2004 129 56.7004C129 56.5004 130.1 56.3004 130.1 56.1004C130.1 50.8004 126.3 46.3004 121.2 44.9004C116.5 43.7004 111.2 45.5004 107.9 49.0004C104.3 52.8004 103.8 58.7004 106.7 63.1004C109.6 67.5004 115.6 69.4004 120.7 67.8004C125.8 66.2004 130 61.8004 130.1 56.2004C130.1 56.4004 129 56.6004 129 56.8004V56.7004Z" fill="#231F20"/>
<path d="M128.6 56.6998C128.6 58.7998 128 60.7998 126.8 62.5998C126.3 63.3998 125.6 64.1998 124.9 64.7998C124.4 65.2998 123.7 65.6998 123.2 66.0998C122.9 66.3998 123.2 66.8998 123.6 66.6998C123.7 66.6998 123.8 66.5998 123.9 66.4998L123.5 65.8998C122.5 66.6998 120.5 66.9998 119.2 67.1998C117.7 67.2998 116.2 67.1998 114.8 66.7998C111.8 65.9998 109.2 64.0998 107.7 61.3998C106.2 58.6998 105.8 55.4998 106.8 52.4998C107.3 50.8998 108.2 49.4998 109.4 48.2998C110 47.6998 110.7 47.2998 111.4 46.6998C111.6 46.4998 111.7 46.4998 111.7 46.1998C111.7 45.8998 111.4 45.6998 111.1 45.8998C111 45.8998 110.8 46.0998 110.7 46.1998C110.4 46.4998 110.7 46.9998 111.1 46.7998C114.7 44.5998 119.7 45.0998 123.2 47.1998C126.4 49.1998 128.4 52.7998 128.5 56.5998C128.5 56.9998 129 57.0998 129.2 56.7998C129.3 56.5998 129.9 56.5998 130.1 56.3998C130.4 56.0998 130.3 55.7998 130.3 55.2998C130.3 53.9998 129.9 52.6998 129.4 51.4998C128.4 49.1998 126.7 47.1998 124.5 45.8998C119.6 42.8998 113.3 43.7998 108.9 47.2998C104.5 50.7998 102.9 56.9998 105.6 62.0998C108.3 67.1998 113.9 69.2998 119.2 68.3998C125.2 67.2998 130.2 62.1998 130.3 55.9998C130.3 55.5998 129.8 55.4998 129.6 55.7998C129.4 56.0998 128.7 55.9998 128.5 56.3998C128.3 56.7998 128.9 57.1998 129.2 56.7998C129.4 56.4998 130.1 56.5998 130.3 56.1998L129.6 55.9998C129.5 61.0998 125.8 65.2998 121.1 67.0998C116.4 68.8998 110.9 67.5998 107.7 63.7998C104.2 59.6998 104.3 53.4998 107.8 49.4998C111.3 45.4998 117.2 43.7998 122.2 45.6998C124.7 46.5998 126.8 48.4998 128.2 50.7998C128.9 51.9998 129.3 53.2998 129.5 54.5998C129.5 54.8998 129.5 55.1998 129.5 55.4998C129.5 56.0998 129.5 55.9998 129.1 56.1998C128.9 56.2998 128.7 56.3998 128.5 56.5998L129.2 56.7998C129.2 52.6998 127 48.9998 123.5 46.7998C119.8 44.4998 114.5 44.0998 110.7 46.3998L111.1 46.9998L111.3 46.7998L110.7 46.4998C110.7 46.0998 110 46.7998 109.8 46.9998C109.5 47.1998 109.2 47.4998 108.9 47.7998C108.3 48.3998 107.8 48.9998 107.3 49.5998C106.3 50.9998 105.7 52.5998 105.4 54.2998C104.9 57.3998 105.7 60.6998 107.6 63.1998C109.5 65.6998 112.3 67.3998 115.4 67.9998C116.9 68.2998 118.5 68.2998 120 67.9998C121.2 67.7998 122.8 67.3998 123.9 66.5998C124.2 66.2998 123.9 65.7998 123.5 65.9998C123.4 65.9998 123.3 66.0998 123.2 66.1998L123.6 66.7998C124.2 66.1998 125 65.7998 125.6 65.1998C126.4 64.4998 127 63.5998 127.6 62.6998C128.7 60.8998 129.2 58.8998 129.3 56.7998C129.3 56.2998 128.6 56.2998 128.5 56.7998L128.6 56.6998Z" fill="#231F20"/>
<path d="M64.5 1.6C64.7 3.6 64.9 5.5 65.3 7.5C65.6 9 65.9 10.6 66.4 12C66.8 13.1 67.2 14.3 68.1 15.1C68.1 15.1 69.1 14.4 69.2 14.5C68.3 13.7 67.9 12.5 67.5 11.4C67 9.9 66.7 8.4 66.4 6.9C66.1 5 65.8 3 65.6 1C65.6 1.2 64.5 1.4 64.5 1.6Z" fill="#231F20"/>
<path d="M64.0996 1.60005C64.3996 4.80005 64.7996 8.10005 65.6996 11.2001C66.0996 12.4001 66.4996 13.8001 67.2996 14.8001C67.4996 15.1001 67.7996 15.5001 68.1996 15.4001C68.4996 15.4001 68.8996 14.8001 69.0996 14.8001C69.3996 14.8001 69.5996 14.4001 69.3996 14.2001C67.8996 12.7001 67.3996 10.1001 66.9996 8.10005C66.4996 5.70005 66.1996 3.30006 65.8996 0.900059C65.8996 0.500059 65.2996 0.400059 65.1996 0.900059C65.1996 0.700059 64.9996 0.900059 64.8996 0.900059C64.7996 0.900059 64.6996 0.900057 64.5996 1.00006C64.3996 1.00006 64.2996 1.20006 64.1996 1.40006C63.9996 1.90006 64.7996 2.10005 64.8996 1.60005C64.8996 1.80005 65.0996 1.60005 65.1996 1.60005C65.2996 1.60005 65.3996 1.60006 65.4996 1.50006C65.6996 1.50006 65.7996 1.30005 65.8996 1.10005H65.1996C65.3996 3.60005 65.7996 6.10005 66.2996 8.60005C66.6996 10.7001 67.2996 13.2001 68.8996 14.7001L69.1996 14.1001C68.9996 14.1001 68.6996 14.3001 68.4996 14.4001C68.4996 14.4001 68.1996 14.7001 68.0996 14.7001C68.2996 14.7001 68.0996 14.6001 68.0996 14.5001C68.0996 14.3001 67.8996 14.2001 67.7996 14.0001C67.0996 12.9001 66.6996 11.5001 66.3996 10.2001C65.6996 7.40005 65.1996 4.40006 64.9996 1.50006C64.9996 1.00006 64.1996 1.00006 64.1996 1.50006L64.0996 1.60005Z" fill="#231F20"/>
<path d="M36.0995 81.2002C36.0995 83.5002 35.3995 85.7002 34.0995 87.6002C33.4995 88.5002 32.7995 89.3002 31.8995 89.9002C31.6995 90.0002 31.4996 90.2002 31.2996 90.3002C31.0996 90.4002 30.9996 90.5002 30.7996 90.6002C31.1996 90.3002 30.6995 90.6002 30.5995 90.6002C30.0995 90.8002 29.5995 91.0001 28.9995 91.2001C24.5995 92.5001 19.7995 91.0002 16.9995 87.4002C14.1995 83.8002 13.7995 78.8002 16.0995 74.9002C16.6995 74.0002 17.2995 73.1002 18.0995 72.3002C18.4995 71.9002 18.8996 71.6002 19.2996 71.3002C19.4996 71.2002 19.5996 71.1002 19.7996 71.0002C19.5996 71.0002 19.2995 71.2002 19.9995 71.0002C20.1995 70.9002 20.4996 70.8002 20.7996 70.7002C22.9996 69.9002 25.2995 69.8002 27.5995 70.3002C32.4995 71.6002 35.9995 76.1002 35.9995 81.2002C35.9995 81.0002 37.0995 80.8002 37.0995 80.6002C37.0995 75.6002 33.6996 71.0002 28.7996 69.7002C24.3996 68.5002 19.4995 70.3002 16.4995 73.6002C13.0995 77.4002 12.5995 83.1002 15.3995 87.4002C18.1995 91.6002 23.5996 93.5002 28.2996 91.8002C33.1996 90.1002 36.9995 85.9002 36.9995 80.5002C36.9995 80.7002 35.8995 80.9002 35.8995 81.1002L36.0995 81.2002Z" fill="#231F20"/>
<path d="M35.8006 81.1998C35.8006 84.8998 33.9006 88.2998 30.8006 90.2998C30.4006 90.5998 30.8005 91.1998 31.2005 90.8998H31.4005C31.7005 90.5998 31.6005 90.0998 31.2005 90.0998C31.0005 90.0998 30.8005 90.1998 30.7005 90.2998C29.9005 90.6998 29.1006 90.8998 28.3006 91.0998C26.9006 91.3998 25.5005 91.3998 24.1005 91.0998C21.3005 90.4998 18.9006 88.9998 17.3006 86.6998C13.8006 81.6998 15.3005 74.5998 20.4005 71.2998C20.8005 70.9998 20.4005 70.3998 20.0005 70.6998C20.0005 70.6998 19.9006 70.6998 19.8006 70.7998C19.4006 70.9998 19.8005 71.6998 20.2005 71.3998C23.8005 69.6998 28.0006 69.7998 31.3006 72.1998C34.2006 74.1998 35.9005 77.5998 36.0005 81.0998C36.0005 81.4998 36.5005 81.5998 36.7005 81.2998C36.8005 81.0998 37.4005 81.0998 37.6005 80.8998C37.9005 80.5998 37.8006 80.2998 37.8006 79.8998C37.8006 78.5998 37.4005 77.3998 37.0005 76.1998C36.1005 73.9998 34.5005 71.9998 32.4005 70.6998C27.8005 67.6998 21.7005 68.7998 17.6005 72.2998C13.5005 75.7998 12.3006 81.7998 14.8006 86.5998C17.3006 91.3998 22.6005 93.6998 27.7005 92.4998C33.3005 91.1998 37.6006 86.2998 37.8006 80.5998C37.8006 80.1998 37.3005 80.0998 37.1005 80.3998C36.9005 80.6998 36.2005 80.5998 36.0005 80.9998C35.8005 81.3998 36.4005 81.7998 36.7005 81.3998C36.9005 81.0998 37.6006 81.1998 37.8006 80.7998L37.1005 80.5998C37.0005 85.2998 33.9005 89.1998 29.7005 91.0998C25.5005 92.9998 19.9006 91.8998 16.8006 88.1998C13.7006 84.4998 13.5005 78.3998 16.7005 74.4998C19.9005 70.5998 25.5005 68.6998 30.2005 70.5998C32.6005 71.4998 34.5006 73.2998 35.8006 75.5998C36.4006 76.7998 36.9005 78.0998 37.0005 79.4998C37.0005 79.6998 37.0005 79.8998 37.0005 80.0998C37.0005 80.5998 37.0005 80.4998 36.6005 80.7998C36.4005 80.8998 36.2005 80.9998 36.0005 81.1998L36.7005 81.3998C36.7005 77.5998 34.8005 73.9998 31.7005 71.7998C28.2005 69.2998 23.6006 69.1998 19.8006 70.9998L20.2005 71.5998C20.2005 71.5998 20.3005 71.5998 20.4005 71.4998L20.0005 70.8998C14.7005 74.2998 13.1005 81.4998 16.4005 86.7998C17.9005 89.1998 20.4005 90.9998 23.2005 91.7998C24.6005 92.1998 26.0005 92.2998 27.5005 92.1998C28.2005 92.1998 28.9005 91.9998 29.5005 91.7998C29.9005 91.6998 31.1006 91.0998 31.3006 90.9998L31.1005 90.2998H30.9005L31.3006 90.9998C34.7006 88.7998 36.6005 85.1998 36.7005 81.1998C36.7005 80.6998 36.0005 80.6998 35.9005 81.1998H35.8006Z" fill="#231F20"/>
<path d="M143.7 125.3C143.7 127.6 143.2 129.9 142.2 131.9C141.8 132.8 141.2 133.7 140.5 134.4C140.2 134.7 139.9 135.1 139.5 135.4C139.3 135.5 139.2 135.7 139 135.8C138.7 136 138.5 135.9 139.1 135.8C138.9 135.8 138.8 136 138.6 136C134.9 137.6 131.3 135.2 129.5 132.1C127.2 128.1 127 122.9 128.8 118.7C129.6 116.8 130.8 115.3 132.4 114C132.8 113.7 132.2 114.1 132.1 114.1C132.2 114.1 132.4 113.9 132.6 113.9C132.8 113.9 133 113.8 133.2 113.7C133.6 113.6 134.1 113.5 134.5 113.4C135.4 113.4 136.3 113.4 137.1 113.7C141.7 115.3 143.6 120.8 143.6 125.2C143.6 125 144.7 124.8 144.7 124.6C144.7 120.2 142.8 114.7 138.3 113.1C134.7 111.8 130.8 114.2 128.8 117.2C126 121.3 125.8 127.2 127.9 131.7C129.7 135.5 133.7 138.5 137.8 136.5C139.6 135.6 141.2 134.5 142.3 132.8C143.9 130.4 144.6 127.5 144.6 124.7C144.6 124.9 143.5 125.1 143.5 125.3H143.7Z" fill="#231F20"/>
<path d="M143.3 125.3C143.3 127.4 142.9 129.5 142.1 131.4C141.7 132.3 141.2 133.2 140.6 133.9C140.2 134.5 139.4 135.4 138.7 135.6L139.2 136V136.2C139.3 136.2 139.2 135.5 139.2 135.5C136.7 136.6 134.3 136.3 132.2 134.5C130.3 132.9 129.1 130.5 128.6 128.1C127.5 123 128.9 117.6 133.1 114.3C133.4 114 133.1 113.5 132.7 113.7C132.6 113.7 132.4 113.9 132.3 113.9C131.9 114.1 132.3 114.7 132.7 114.5C136.1 113.1 139.4 114.4 141.4 117.4C142.9 119.7 143.6 122.6 143.6 125.3C143.6 125.7 144.1 125.8 144.3 125.5C144.6 125.1 145.3 125.3 145.5 124.7C145.7 123.8 145.3 122.2 145.1 121.3C144.7 119.2 143.9 117.2 142.5 115.6C141.1 114 139.3 112.7 137.1 112.5C134.7 112.3 132.4 113.4 130.7 114.9C126.9 118.3 125.8 124 126.9 128.8C127.8 133 131.1 137.8 135.9 137.5C138.5 137.3 141.1 135.6 142.6 133.6C144.6 131.1 145.4 127.8 145.4 124.7C145.4 124.3 144.9 124.2 144.7 124.5C144.5 124.8 143.8 124.7 143.6 125.1C143.4 125.5 144 125.9 144.3 125.5C144.5 125.2 145.2 125.3 145.4 124.9L144.7 124.7C144.7 129.6 142.4 134.7 137.5 136.5C132.9 138.1 129.1 133.7 127.9 129.7C126.6 125.5 127.2 120.3 130.1 116.8C133 113.3 137.9 111.9 141.4 115.4C142.9 116.9 143.8 118.9 144.3 121C144.5 122 144.8 123.2 144.7 124.2C144.7 124.7 144.7 124.6 144.2 124.8C144 124.9 143.8 125 143.7 125.2L144.4 125.4C144.4 122.2 143.5 118.8 141.5 116.3C140.5 115.1 139.3 114.1 137.8 113.6C135.9 112.9 134.2 113.2 132.4 114L132.8 114.6C132.9 114.6 133.1 114.4 133.2 114.4L132.8 113.8C128.3 117.4 126.8 123.6 128.3 129.1C129 131.6 130.4 134.1 132.5 135.6C134.6 137.1 137.2 137.4 139.7 136.3C140.1 136.1 140 135.4 139.5 135.6C139.3 135.6 139.2 135.7 139 135.8C138.9 135.8 138.8 136 138.8 136.1C138.8 136.4 139 136.6 139.3 136.5C140.9 136 142.3 133.7 143 132.3C144 130.2 144.5 127.8 144.5 125.5C144.5 125 143.8 125 143.7 125.5L143.3 125.3Z" fill="#231F20"/>
<path d="M138.3 124.7C142.1 121.4 147.6 118.5 152.8 119.8C153.1 119.8 153.6 119.1 153.9 119.2C150.1 118.2 146.1 119.7 142.8 121.6C140.9 122.7 138.9 123.9 137.2 125.4C137.5 125.1 138 125 138.3 124.8V124.7Z" fill="#231F20"/>
<path d="M138.5 125C140.8 123 143.5 121.3 146.5 120.4C147.9 120 149.4 119.8 150.9 119.9C151.3 119.9 151.7 119.9 152.1 120.1C152.3 120.1 152.6 120.3 152.9 120.2C153.2 120.2 153.5 119.6 153.8 119.6C154.2 119.6 154.3 119 153.8 118.9C150.7 118.2 147.7 118.9 144.9 120.1C142.1 121.3 139.2 123.1 136.8 125.2C136.5 125.5 136.9 126 137.2 125.8C137.5 125.6 138 125.4 138.3 125.2C138.7 124.9 138.3 124.3 137.9 124.6C137.6 124.8 137.1 125 136.8 125.2L137.2 125.8C139.4 123.9 142 122.3 144.6 121.1C147.4 119.8 150.4 119 153.5 119.7V119C153.1 119 152.9 119.5 152.5 119.6C152.2 119.6 151.7 119.5 151.5 119.4C151.1 119.4 150.8 119.4 150.4 119.3C148.8 119.3 147.3 119.5 145.8 119.9C142.8 120.8 140.1 122.5 137.8 124.6C137.4 124.9 138 125.5 138.3 125.1L138.5 125Z" fill="#231F20"/>
<path d="M124.2 37.3998C123.2 38.1998 122.2 39.0998 121.3 39.9998C119.7 41.6998 118.1 43.5998 117.2 45.7998C116.8 46.9998 116.5 48.1998 116.8 49.3998C116.8 49.2998 117.9 48.8998 117.9 48.7998C117.3 46.4998 118.5 44.1998 119.8 42.3998C121.1 40.5998 122.6 39.0998 124.2 37.6998C124.5 37.3998 124.9 37.0998 125.3 36.7998C125 36.9998 124.5 37.1998 124.2 37.3998Z" fill="#231F20"/>
<path d="M124 37.1004C122 38.7004 120.2 40.5004 118.7 42.5004C117.2 44.5004 116 46.9004 116.6 49.4004C116.6 49.8004 117.2 49.7004 117.3 49.4004C117.3 49.6004 117.5 49.4004 117.6 49.4004C117.7 49.4004 117.9 49.3004 118.1 49.2004C118.5 48.9004 118.3 48.6004 118.3 48.1004C118.1 46.5004 118.7 45.0004 119.5 43.7004C121 41.1004 123.3 38.9004 125.7 37.0004C126 36.7004 125.7 36.2004 125.3 36.4004C124.9 36.6004 124.5 36.8004 124.2 37.0004C123.8 37.3004 124.2 37.9004 124.6 37.7004C124.9 37.5004 125.4 37.3004 125.7 37.1004L125.3 36.5004C122.9 38.4004 120.5 40.7004 119 43.4004C118.3 44.6004 117.7 46.0004 117.7 47.4004C117.7 47.6004 117.7 48.2004 117.7 48.5004C117.7 48.7004 117.7 48.7004 117.8 48.5004C117.8 48.5004 117.6 48.7004 117.5 48.7004C117.2 48.8004 116.8 48.9004 116.7 49.3004H117.4C116.9 46.8004 118.3 44.4004 119.8 42.5004C121.3 40.6004 122.9 39.1004 124.7 37.7004C125.1 37.4004 124.5 36.9004 124.2 37.2004L124 37.1004Z" fill="#231F20"/>
<path d="M1.40039 79.1002C3.60039 78.6002 5.90032 78.2002 8.20032 78.0002C10.0003 77.8002 11.8004 77.7002 13.6004 77.9002C14.9004 78.0002 16.4004 78.2002 17.5004 79.1002C17.6004 79.2002 18.5004 78.4002 18.6004 78.5002C17.5004 77.6002 16.0004 77.4002 14.7004 77.3002C12.9004 77.2002 11.1004 77.3002 9.30042 77.4002C7.00042 77.6002 4.80037 78.0002 2.50037 78.5002C2.10037 78.5002 1.80039 79.1002 1.40039 79.1002Z" fill="#231F20"/>
<path d="M1.49981 79.4001C4.99981 78.6001 8.59975 78.1001 12.1998 78.1001C13.6998 78.1001 15.4999 78.1001 16.8999 79.0001C17.2999 79.2001 17.3999 79.4001 17.7999 79.3001C17.9999 79.3001 18.0999 79.1001 18.2999 79.0001C18.2999 79.0001 18.6998 78.8001 18.5998 78.8001C18.9998 78.8001 18.9999 78.3001 18.7999 78.1001C16.5999 76.4001 12.9999 76.7001 10.2999 76.9001C8.69985 77.0001 7.19978 77.2001 5.59978 77.5001C4.69978 77.6001 3.89981 77.8001 2.99981 78.0001C2.69981 78.0001 2.39978 78.1001 2.09978 78.2001C1.79978 78.3001 1.59985 78.6001 1.29985 78.7001C0.899849 78.9001 1.09981 79.6001 1.49981 79.4001C1.99981 79.2001 2.39983 78.8001 2.89983 78.7001C3.59983 78.5001 4.39978 78.4001 5.09978 78.3001C6.69978 78.0001 8.29983 77.8001 9.89983 77.7001C11.4999 77.6001 12.9998 77.5001 14.5998 77.7001C15.8998 77.8001 17.2999 78.0001 18.2999 78.9001L18.4998 78.2001C18.1998 78.2001 17.9998 78.5001 17.6998 78.6001C17.3998 78.8001 17.3998 78.7001 17.0998 78.5001C16.8998 78.4001 16.5999 78.2001 16.2999 78.1001C14.8999 77.6001 13.2999 77.5001 11.7999 77.5001C8.29985 77.5001 4.69976 78.0001 1.19976 78.8001C0.699751 78.9001 0.899825 79.6001 1.39983 79.5001L1.49981 79.4001Z" fill="#231F20"/>
<path d="M83.4 32.6002C82.5 33.4002 81.6 34.3002 81 35.3002C79.2 38.1002 79.5 41.6002 79.8 44.8002C81.4 43.9002 82.9 42.9002 84.3 41.7002C86.9 39.5002 89 36.7002 90.1 33.6002C90.8 31.7002 91.9 26.8002 89.4 25.7002C87.2 27.6002 85.5 30.5002 83.3 32.5002L83.4 32.6002Z" fill="#231F20"/>
<path d="M83.2003 32.2998C81.5003 33.8998 80.1004 35.5998 79.6004 37.8998C79.1004 40.1998 79.3004 42.4998 79.6004 44.7998C79.6004 45.0998 79.9003 45.2998 80.2003 45.0998C84.6003 42.6998 88.7005 38.9998 90.5005 34.0998C91.4005 31.7998 92.8005 26.7998 89.8005 25.2998C89.6005 25.2998 89.5005 25.2998 89.4005 25.2998C87.1005 27.2998 85.5005 29.9998 83.3005 32.0998C83.0005 32.3998 83.5005 32.9998 83.8005 32.5998C86.0005 30.4998 87.6005 27.7998 89.9005 25.7998H89.5005C91.0005 26.5998 90.9005 28.5998 90.8005 29.9998C90.6005 31.5998 90.2004 33.0998 89.6004 34.5998C87.7004 38.8998 84.0005 42.0998 80.0005 44.3998L80.6004 44.6998C80.4004 42.5998 80.1004 40.3998 80.6004 38.2998C81.1004 35.9998 82.4004 34.2998 84.1004 32.6998C84.4004 32.3998 83.9004 31.7998 83.6004 32.1998L83.2003 32.2998Z" fill="#231F20"/>
<path d="M82.6002 55.6002C82.6002 55.6002 81.7002 52.0002 72.5002 51.9002C63.3002 51.9002 63.2002 46.7002 63.2002 46.7002C63.2002 46.7002 63.5002 58.9002 70.6002 59.7002C77.8002 60.5002 82.6002 55.6002 82.6002 55.6002Z" fill="#231F20"/>
<path d="M82.9998 55.5002C82.4998 53.6002 79.7998 52.6002 78.0998 52.2002C75.1998 51.5002 72.2998 51.8002 69.3998 51.3002C67.5998 51.0002 65.5998 50.3002 64.4998 48.7002C64.0998 48.1002 63.6998 47.3002 63.5998 46.7002C63.5998 46.2002 62.7998 46.2002 62.7998 46.7002C62.7998 49.8002 63.4998 53.1002 64.9998 55.8002C65.9998 57.7002 67.4998 59.3002 69.4998 59.9002C72.2998 60.7002 75.6998 60.0002 78.2998 58.9002C79.8998 58.2002 81.5998 57.2002 82.8998 55.9002C83.1998 55.6002 82.6998 55.0002 82.3998 55.4002C79.4998 58.4002 74.4998 60.1002 70.3998 59.4002C66.2998 58.7002 64.5998 53.8002 63.9998 50.1002C63.7998 49.0002 63.6998 47.9002 63.5998 46.8002H62.7998C62.7998 48.8002 64.6998 50.5002 66.3998 51.2002C70.8998 53.3002 76.4998 51.3002 80.7998 54.2002C81.3998 54.6002 82.0998 55.2002 82.1998 55.8002C82.2998 56.3002 82.9998 56.1002 82.8998 55.6002L82.9998 55.5002Z" fill="#231F20"/>
<path d="M85.3003 69.8002C85.3003 69.8002 84.2002 62.3002 88.1002 59.8002C92.0002 57.3002 94.2002 53.2002 94.2002 53.2002C94.2002 53.2002 96.3002 63.7002 91.6002 67.9002C86.9002 72.1002 85.3003 69.8002 85.3003 69.8002Z" fill="#231F20"/>
<path d="M85.6998 69.6998C85.6998 69.8998 85.6998 69.5998 85.6998 69.4998C85.6998 69.2998 85.6998 69.0998 85.6998 68.7998C85.6998 68.0998 85.6998 67.3998 85.6998 66.7998C85.6998 64.8998 86.0998 62.8998 87.0998 61.3998C87.6998 60.4998 88.6998 59.9998 89.4998 59.2998C90.4998 58.4998 91.3998 57.5998 92.1998 56.6998C92.9998 55.7998 93.8998 54.5998 94.4998 53.4998H93.7998C94.2998 55.6998 94.3998 58.1998 94.1998 60.5998C93.9998 62.4998 93.5998 64.3998 92.6998 65.9998C91.6998 67.7998 89.6998 69.4998 87.6998 70.0998C87.0998 70.2998 86.4998 70.2998 85.9998 70.0998C85.8998 70.0998 85.7998 69.9998 85.6998 69.8998C85.3998 69.4998 84.7998 69.8998 84.9998 70.2998C85.3998 70.8998 86.1998 71.0998 86.7998 71.1998C88.7998 71.1998 90.8998 69.5998 92.1998 68.2998C94.9998 65.3998 95.1998 60.6998 94.9998 56.8998C94.9998 55.7998 94.7998 54.6998 94.5998 53.5998C94.5998 53.2998 94.0998 53.1998 93.8998 53.5998C93.3998 54.4998 92.7998 55.2998 92.1998 55.9998C90.8998 57.6998 89.2998 58.8998 87.5998 60.1998C85.2998 61.9998 84.7998 65.1998 84.7998 67.9998C84.7998 68.7998 84.7998 69.5998 84.9998 70.4998C84.9998 70.9998 85.7998 70.7998 85.6998 70.2998V69.6998Z" fill="#231F20"/>
<path d="M86.2998 82.0996C86.2998 82.0996 85.9998 76.2996 78.7998 72.7996C71.5998 69.2996 71.2998 67.5996 71.2998 67.5996C71.2998 67.5996 74.2998 77.5996 77.5998 78.7996C80.8998 79.9996 83.8998 82.5996 86.3998 82.1996L86.2998 82.0996Z" fill="#231F20"/>
<path d="M86.7002 82.0996C86.6002 79.8996 85.3003 77.6996 83.9003 76.0996C80.8003 72.5996 76.1003 71.6996 72.6003 68.5996C72.3003 68.2996 72.0002 67.9996 71.7002 67.6996C71.6002 67.5996 71.6003 67.4996 71.6003 67.4996L70.9003 67.6996C71.5003 69.7996 72.3003 71.8996 73.3003 73.8996C74.0003 75.2996 74.7002 76.6996 75.7002 77.7996C76.9002 79.0996 78.5003 79.4996 80.0003 80.2996C81.9003 81.2996 84.1003 82.7996 86.3003 82.4996C86.8003 82.4996 86.6003 81.6996 86.1003 81.7996C84.1003 82.0996 82.1003 80.6996 80.4003 79.7996C79.0003 78.9996 77.2003 78.6996 76.1003 77.3996C74.2003 75.2996 73.1003 72.2996 72.1003 69.6996C71.8003 68.9996 71.6003 68.2996 71.4003 67.4996C71.3003 66.9996 70.6002 67.1996 70.7002 67.6996C70.7002 68.0996 71.1003 68.3996 71.3003 68.6996C72.3003 69.7996 73.6003 70.5996 74.8003 71.2996C77.1003 72.6996 79.7003 73.5996 81.8003 75.3996C83.2003 76.5996 84.3003 78.0996 85.0003 79.7996C85.3003 80.4996 85.6003 81.3996 85.6003 82.1996C85.6003 82.6996 86.4003 82.6996 86.4003 82.1996L86.7002 82.0996Z" fill="#231F20"/>
<path d="M98.1 62.6996C98.1 62.6996 91.6 72.0996 95.9 78.0996C100.2 84.1996 102.8 84.6996 102.8 84.6996C102.8 84.6996 105.4 77.7996 102.2 74.2996C99 70.7996 98 62.5996 98 62.5996L98.1 62.6996Z" fill="#231F20"/>
<path d="M97.8001 62.5002C96.0001 65.1002 94.7 68.2002 94.2 71.3002C93.9 73.5002 94.1 75.7002 95.2 77.7002C96.5 79.9002 98.4001 82.1002 100.4 83.7002C101.1 84.3002 101.9 84.9002 102.8 85.1002C103 85.1002 103.2 85.1002 103.3 84.8002C104.6 81.3002 105 76.9002 102.5 73.9002C100.9 72.0002 100.1 69.4002 99.4001 67.0002C99.1001 65.7002 98.7 63.8002 98.5 62.7002C98.5 62.2002 97.7 62.2002 97.7 62.7002C98.2 66.3002 99.1 70.1002 101 73.2002C101.7 74.3002 102.6 75.1002 103 76.2002C103.4 77.3002 103.5 78.7002 103.4 80.0002C103.4 81.5002 103 83.1002 102.4 84.6002L102.9 84.3002C101.8 84.1002 100.8 83.1002 100 82.4002C97.7 80.3002 95.2001 77.5002 94.8001 74.3002C94.3001 70.4002 96.1001 66.1002 98.3001 62.9002C98.6001 62.5002 97.9 62.1002 97.6 62.5002H97.8001Z" fill="#231F20"/>
<path d="M97.5 93.8999C97.5 93.8999 109.9 82.0999 118.9 90.9999C118.9 90.9999 110.8 89.6999 108.2 93.8999C105.6 98.0999 98.2 98.3999 97.5 93.8999Z" fill="#231F20"/>
<path d="M97.7003 94.2001C99.7003 92.3001 102.1 90.8001 104.5 89.7001C106.6 88.8001 108.9 88.1001 111.2 88.1001C114 88.1001 116.5 89.4002 118.5 91.3002L118.9 90.7001C115.7 90.2001 111.6 90.3002 109 92.4002C108.1 93.1002 107.6 94.2001 106.7 95.0001C105.8 95.8001 104.6 96.4001 103.3 96.6001C101 97.1001 98.3005 96.4002 97.8005 93.8002C97.8005 93.3002 97.0004 93.5001 97.1004 94.0001C97.8004 97.7001 102.2 98.1002 105.1 96.9002C106 96.5002 106.8 96.0002 107.4 95.4002C108.1 94.7002 108.6 93.8001 109.3 93.1001C110.8 91.8001 113 91.4002 115 91.3002C116.2 91.3002 117.5 91.3002 118.7 91.4002C119 91.4002 119.4 91.1002 119.1 90.8002C115.1 86.9002 109.8 86.7001 104.9 88.7001C102.1 89.9001 99.4003 91.6001 97.2003 93.7001C96.9003 94.0001 97.4003 94.6001 97.7003 94.2001Z" fill="#231F20"/>
<path d="M54.5995 94.5002C54.5995 94.5002 48.7995 83.4002 52.7995 77.4002C56.7995 71.4002 60.0995 69.2002 60.0995 69.2002C60.0995 69.2002 58.7995 79.4002 60.4995 82.1002C62.1995 84.8002 59.9995 95.0002 54.5995 94.5002Z" fill="#231F20"/>
<path d="M54.9005 94.2998C53.0005 90.5998 51.6005 86.1998 51.8005 81.9998C52.0005 78.3998 54.4004 75.6998 56.6004 73.0998C57.7004 71.7998 58.9005 70.4998 60.3005 69.5998L59.7004 69.2998C59.5004 71.0998 59.3004 72.8998 59.2004 74.6998C59.2004 77.0998 58.9004 79.9998 60.0004 82.0998C61.1004 84.1998 60.7004 86.6998 60.0004 88.8998C59.2004 91.2998 57.6004 94.2998 54.6004 94.0998C54.1004 94.0998 54.1004 94.7998 54.6004 94.8998C58.9004 95.1998 60.9005 89.7998 61.3005 86.2998C61.4005 85.3998 61.4005 84.3998 61.3005 83.4998C61.2005 82.6998 60.8004 82.0998 60.5004 81.3998C59.7004 79.2998 59.9004 76.6998 60.0004 74.4998C60.0004 72.6998 60.2005 70.9998 60.4005 69.1998C60.4005 68.8998 60.1005 68.6998 59.8005 68.8998C58.3005 69.9998 57.0005 71.3998 55.8005 72.7998C53.6005 75.2998 51.4004 77.9998 51.0004 81.3998C50.5004 85.7998 52.1004 90.6998 54.2004 94.5998C54.4004 94.9998 55.1005 94.5998 54.9005 94.1998V94.2998Z" fill="#231F20"/>
<path d="M66.5004 114.3C66.5004 114.3 65.8004 104.8 70.3004 101.2C74.8004 97.5997 75.7002 97.8997 75.7002 97.8997C75.7002 97.8997 74.1004 105.3 72.5004 108.3C70.9004 111.4 72.8004 115.4 66.5004 114.3Z" fill="#231F20"/>
<path d="M66.8996 114.3C66.6996 112.1 66.8996 109.9 67.3996 107.7C67.6996 106 68.2996 104.3 69.2996 102.8C70.4996 101.2 72.3996 99.9001 74.0996 98.9001C74.4996 98.6001 74.9996 98.4001 75.4996 98.2001C75.6996 98.2001 75.7996 98.2001 75.6996 98.2001L75.3996 97.7001C74.7996 100.2 74.1996 102.7 73.3996 105.1C72.8996 106.5 72.1996 107.8 71.7996 109.2C71.4996 110.3 71.4996 111.5 70.9996 112.5C70.2996 114.3 68.1996 114.1 66.6996 113.8C66.1996 113.8 65.9996 114.4 66.4996 114.5C67.8996 114.7 69.7996 114.9 70.8996 113.9C71.7996 113.1 71.8996 111.9 72.0996 110.8C72.1996 110.2 72.2996 109.5 72.5996 108.9C72.8996 108.2 73.2996 107.5 73.4996 106.8C74.1996 105 74.6996 103.2 75.1996 101.4C75.4996 100.2 75.7996 99.0001 76.0996 97.8001C76.0996 97.6001 76.0996 97.4001 75.7996 97.3001C75.3996 97.2001 74.7996 97.5001 74.3996 97.7001C72.6996 98.6001 70.8996 99.8001 69.4996 101.2C66.9996 103.7 66.2996 107.7 66.0996 111.1C66.0996 112.1 66.0996 113.1 66.0996 114.1C66.0996 114.6 66.8996 114.6 66.8996 114.1V114.3Z" fill="#231F20"/>
<path d="M63.6998 107.8C63.6998 107.8 46.0998 93.5004 39.7998 101.8C39.7998 101.8 45.0998 101.8 48.3998 104.9C51.6998 108 59.5998 118.6 63.6998 107.8Z" fill="#231F20"/>
<path d="M63.9997 107.6C61.8997 105.9 59.6997 104.4 57.3997 103.1C53.7997 101 49.3996 98.7002 45.0996 99.0002C42.8996 99.1002 40.9996 100 39.6996 101.7C39.4996 101.9 39.6997 102.3 39.9997 102.3C41.5997 102.3 43.2997 102.7 44.7997 103.2C47.0997 104.1 48.6997 105.6 50.2997 107.3C52.5997 109.7 55.9996 113.6 59.6996 113C62.0996 112.6 63.3997 110.1 64.2997 108C64.4997 107.6 63.6996 107.4 63.5996 107.8C62.4996 110.5 60.6997 113.2 57.3997 112C55.0997 111.1 53.1997 109.2 51.3997 107.4C49.5997 105.6 48.0996 103.8 45.5996 102.7C43.7996 101.9 41.7997 101.5 39.8997 101.5L40.1996 102.1C42.8996 98.7002 47.3997 99.5002 50.9997 100.8C54.5997 102.1 58.1997 104.2 61.3997 106.5C62.0997 107 62.8996 107.6 63.5996 108.1C63.9996 108.4 64.4996 107.9 64.0996 107.6H63.9997Z" fill="#231F20"/>
<path d="M51.7998 125C51.7998 125 62.9998 123.5 66.9998 132.4C70.8998 141.4 72.2998 142.2 72.2998 142.2C72.2998 142.2 64.2998 148.5 59.3998 139.9C54.4998 131.3 59.7998 129 51.7998 125Z" fill="#231F20"/>
<path d="M51.8004 125.4C54.9004 125 58.4003 125.5 61.1003 126.9C63.8003 128.3 65.6004 130.3 66.8004 133C68.0004 135.7 69.2003 138.3 70.7003 140.8C71.0003 141.4 71.5003 142.2 72.1003 142.6V142C71.4003 142.5 70.0003 143.2 69.0003 143.6C66.8003 144.4 64.5003 144.3 62.5003 143C59.9003 141.2 58.4003 137.8 57.7003 134.8C57.3003 133 57.4004 131.1 56.9004 129.3C56.2004 127 54.1003 125.7 52.0003 124.7C51.6003 124.5 51.2003 125.1 51.6003 125.3C53.7003 126.3 55.7004 127.6 56.3004 130C56.7004 132.1 56.7004 134.2 57.4004 136.3C58.3004 139.1 59.9003 142.3 62.6003 143.9C64.5003 145 66.8004 145.1 68.9004 144.5C70.2004 144.1 71.5003 143.5 72.6003 142.6C72.8003 142.4 72.7003 142.1 72.6003 142C72.7003 142 72.4004 141.8 72.4004 141.8C72.1004 141.4 71.8003 141 71.5003 140.5C69.9003 137.9 68.7004 135.1 67.4004 132.4C65.3004 127.7 60.7003 125.2 55.7003 124.8C54.5003 124.7 53.1004 124.6 51.9004 124.8C51.4004 124.8 51.4004 125.6 51.9004 125.6L51.8004 125.4Z" fill="#231F20"/>
<path d="M81.8002 131.1C81.8002 131.1 84.5002 120.9 96.0002 120.8C107.5 120.7 109.7 120.8 109.7 120.8C109.7 120.8 103.1 127.8 95.1002 129.1C87.1002 130.4 87.2002 137.6 81.7002 131.2L81.8002 131.1Z" fill="#231F20"/>
<path d="M82.1997 131.2C82.9997 128.1 85.2998 125.2 87.9998 123.4C91.0998 121.3 94.5997 121.1 98.1997 121.1C101.2 121.1 104.3 121.1 107.3 121.1C108.1 121.1 109 121.1 109.8 121.1L109.5 120.5C105.8 124.4 100.6 127.7 95.2998 128.6C92.3998 129.1 90.2998 130.4 87.9998 132.1C87.2998 132.7 86.4998 133.3 85.4998 133.3C84.0998 133.3 82.8998 131.7 81.9998 130.8C81.6998 130.4 81.1998 131 81.4998 131.3C82.5998 132.6 84.1997 134.4 86.1997 134C87.7997 133.7 89.0998 132.1 90.4998 131.2C93.0998 129.5 96.0998 129.4 98.9998 128.3C101.7 127.3 104.2 125.8 106.4 124.1C107.7 123.1 108.9 122.1 110 120.9C110.2 120.7 110 120.3 109.7 120.3C105.8 120.1 101.9 120.3 98.0998 120.3C94.5998 120.3 91.1998 120.5 87.9998 122.4C85.8998 123.6 84.1998 125.4 82.8998 127.4C82.1998 128.5 81.5998 129.7 81.2998 130.9C81.1998 131.4 81.8998 131.6 81.9998 131.1L82.1997 131.2Z" fill="#231F20"/>
<path d="M112.4 145.8C112.4 145.8 132 135.8 137.7 147.9C137.7 147.9 130.6 144.7 126.5 147C122.4 149.3 109.2 155.9 112.4 145.8Z" fill="#231F20"/>
<path d="M112.6 146.1C114.7 145 116.9 144.2 119.2 143.5C123.2 142.3 127.7 141.5 131.8 142.9C134.4 143.8 136.3 145.6 137.4 148L137.9 147.5C134.1 145.8 129.5 144.9 125.8 147C124 148 122.2 148.9 120.4 149.6C118.6 150.3 116.6 151 114.6 150.9C111.9 150.7 112.3 147.9 112.8 145.9C112.9 145.4 112.2 145.2 112.1 145.7C111.6 147.3 111.1 149.6 112.6 150.9C113.8 151.9 115.7 151.7 117.2 151.4C119.4 150.9 121.5 150.1 123.5 149.1C125.5 148.1 127.5 146.7 129.9 146.6C132.5 146.5 135.3 147.2 137.7 148.2C138 148.3 138.4 148 138.2 147.7C133.9 138.8 122.4 141.3 115 144.3C114.1 144.7 113.2 145 112.4 145.5C112 145.7 112.4 146.4 112.8 146.1H112.6Z" fill="#231F20"/>
<path d="M100.9 161.6C100.9 161.6 94.9996 147.4 97.6996 141.4C97.6996 141.4 90.6996 152.8 93.1996 158.9C95.6996 165 100.9 161.6 100.9 161.6Z" fill="#231F20"/>
<path d="M101.3 161.501C100.3 159.101 99.5 156.501 98.8 154.001C98.2 151.801 97.7 149.601 97.5 147.401C97.3 145.501 97.3 143.401 98.1 141.601C98.3 141.201 97.7 140.801 97.4 141.201C95.5 144.301 94 147.701 93 151.201C92.4 153.501 91.9 156.101 92.6 158.401C93.2 160.501 94.8 162.601 97.1 162.901C98.4 163.101 99.9 162.701 101.1 161.901C101.5 161.601 101.1 161.001 100.7 161.301C99.8999 161.901 98.8 162.201 97.8 162.201C95.3 162.201 93.6999 160.001 93.1999 157.801C92.6999 155.601 93.2 153.201 93.8 151.101C94.4 149.001 95.3 146.801 96.3 144.801C96.8 143.701 97.4 142.701 98 141.701L97.3 141.301C95.7 145.001 96.8 149.801 97.8 153.601C98.5 156.401 99.4 159.101 100.5 161.801C100.7 162.201 101.4 162.001 101.2 161.601L101.3 161.501Z" fill="#231F20"/>
<path d="M90.8001 178.599C90.8001 178.599 95.6 181.899 101 176.599C106.3 171.299 118.6 173.099 118.6 173.099C118.6 173.099 105 178.899 102.2 184.799C99.3 190.599 88.9 193.099 90.9 178.599H90.8001Z" fill="#231F20"/>
<path d="M90.5999 178.9C91.9999 179.8 93.8999 180.1 95.5999 179.9C99.2999 179.4 101.2 176.2 104.5 174.8C108.7 173 114 172.8 118.5 173.5V172.8C113.5 174.9 108.3 177.7 104.3 181.4C103.2 182.4 102.4 183.5 101.7 184.8C101.1 185.8 100.4 186.7 99.4999 187.4C97.8999 188.7 95.5999 189.6 93.5999 188.6C90.1999 186.9 90.6999 181.6 91.0999 178.6C91.0999 178.1 90.4 178.1 90.3 178.6C89.9 181.7 89.5999 185.9 91.8999 188.4C93.3999 190 95.5999 190.1 97.5999 189.4C99.8999 188.5 101.3 186.8 102.5 184.7C104.4 181.4 108.1 179.1 111.3 177.3C113.6 175.9 116.1 174.7 118.6 173.6C118.9 173.5 118.8 173 118.6 172.9C114.4 172.3 109.8 172.4 105.7 173.7C104.3 174.1 103 174.7 101.8 175.6C100.2 176.8 98.8999 178.3 96.9999 179C95.0999 179.7 92.6999 179.6 90.9999 178.5C90.5999 178.2 90.1999 178.9 90.5999 179.1V178.9Z" fill="#231F20"/>
<path d="M88.6999 183.501C88.6999 183.501 78.4999 176.501 83.5999 159.301C83.5999 159.301 89.8999 167.001 89.0999 174.301C88.2999 181.601 88.6999 183.501 88.6999 183.501Z" fill="#231F20"/>
<path d="M88.8998 183.2C87.0998 181.9 85.5998 179.8 84.5998 177.8C81.6998 172.1 82.1998 165.4 83.9998 159.4L83.3998 159.6C86.1998 163.1 88.5999 167.7 88.7999 172.2C88.9999 175.1 88.2999 178.1 88.2999 181.1C88.2999 181.9 88.2998 182.8 88.3998 183.7C88.3998 184.2 89.1998 184 89.0998 183.5C88.8998 182.5 88.9998 181.4 89.0998 180.4C89.0998 177.3 89.8998 174.2 89.4998 171.1C88.8998 166.8 86.6998 162.5 83.9998 159.1C83.7998 158.9 83.3998 159.1 83.3998 159.3C81.0998 167.2 81.1999 176.6 87.2999 182.8C87.6999 183.2 88.0998 183.6 88.5998 183.9C88.9998 184.2 89.3998 183.5 88.9998 183.3L88.8998 183.2Z" fill="#231F20"/>
<path d="M71.2996 172.8C71.2996 172.8 63.4996 151.6 54.5996 155.9C54.5996 155.9 58.1996 159.3 59.0996 164.1C59.9996 168.9 67.9996 180.5 71.2996 172.9V172.8Z" fill="#231F20"/>
<path d="M71.6004 172.7C70.7004 170.2 69.5004 167.8 68.3004 165.4C66.4004 161.8 63.9004 157.7 60.1004 155.7C58.3004 154.7 56.3004 154.6 54.3004 155.5C54.1004 155.6 54.1004 155.9 54.3004 156.1C55.5004 157.3 56.6004 158.7 57.4004 160.3C58.5004 162.4 58.7003 164.8 59.7003 166.9C60.6003 168.9 61.8003 170.8 63.2003 172.4C64.3003 173.7 65.8004 175.2 67.5004 175.6C69.5004 176.1 70.9003 174.7 71.7003 173C71.9003 172.6 71.3004 172.2 71.0004 172.6C70.3004 174.1 69.2004 175.4 67.4004 174.8C65.7004 174.2 64.3004 172.7 63.3004 171.3C62.1004 169.7 61.0003 167.9 60.2003 166C59.9003 165.2 59.7004 164.5 59.5004 163.7C59.2004 162.3 58.7004 161 58.1004 159.8C57.3004 158.3 56.2004 156.8 55.0004 155.6V156.2C58.7004 154.5 62.1003 157.6 64.2003 160.3C66.6003 163.3 68.5004 166.9 70.0004 170.4C70.3004 171.2 70.7004 172 71.0004 172.8C71.2004 173.2 71.9003 173.1 71.7003 172.6L71.6004 172.7Z" fill="#231F20"/>
<path d="M51.9004 186.4C51.9004 186.4 60.5004 184.6 69.0004 195.9C69.0004 195.9 71.6004 201.1 73.9004 198.8C73.9004 198.8 76.8004 213.8 65.9004 205.7C55.0004 197.6 68.9004 197.8 52.0004 186.4H51.9004Z" fill="#231F20"/>
<path d="M51.9997 186.799C54.1997 186.399 56.6997 187.099 58.6997 187.899C61.2997 188.999 63.5997 190.699 65.4997 192.599C66.5997 193.699 67.7997 194.899 68.5997 196.199C68.8997 196.699 69.1997 197.299 69.5997 197.799C70.6997 199.199 72.3997 200.599 73.9997 199.099L73.3998 198.899C73.8998 201.699 74.5998 208.899 69.7998 207.499C67.6998 206.899 65.8998 205.399 64.2998 203.999C63.1998 203.099 62.1997 201.999 61.6997 200.599C61.0997 198.899 61.6997 197.099 61.1997 195.399C60.7997 193.899 59.8998 192.699 58.8998 191.599C56.8998 189.399 54.4997 187.699 51.9997 185.999C51.5997 185.699 51.1997 186.399 51.5997 186.599C53.9997 188.199 56.3998 189.999 58.3998 192.099C59.3998 193.199 60.1997 194.399 60.4997 195.799C60.8997 197.699 60.2997 199.599 61.1997 201.399C61.8997 202.899 63.1997 203.999 64.4997 204.999C66.0997 206.299 67.8998 207.599 69.8998 208.099C72.4998 208.699 73.8998 206.899 74.2998 204.599C74.5998 202.599 74.4997 200.499 74.0997 198.499C74.0997 198.199 73.6997 198.199 73.4997 198.299C71.7997 199.799 70.0998 197.099 69.3998 195.799C68.0998 193.699 66.1998 191.799 64.3998 190.299C61.4998 187.799 57.7998 185.999 53.8998 185.699C53.1998 185.699 52.3997 185.699 51.6997 185.699C51.1997 185.699 51.3998 186.499 51.8998 186.399L51.9997 186.799Z" fill="#231F20"/>
<path d="M80.2998 225.301C80.2998 225.301 87.3998 207.201 96.8998 208.101C96.8998 208.101 90.6998 214.101 90.9998 220.701C91.2998 227.201 85.3998 234.401 80.2998 225.301Z" fill="#231F20"/>
<path d="M80.7001 225.4C81.5001 223.4 82.5001 221.4 83.5001 219.5C85.4001 216.1 87.8001 212.6 91.0001 210.3C92.7001 209.1 94.7002 208.3 96.8002 208.5L96.5001 207.9C94.0001 210.3 92.0001 213.5 91.0001 216.8C90.6001 218 90.4001 219.3 90.5001 220.7C90.5001 221.9 90.5001 223 90.1001 224.1C89.6001 226 88.6001 228.1 86.7001 229C83.9001 230.4 81.7001 227.2 80.5001 225.2C80.3001 224.8 79.6002 225.2 79.8002 225.6C80.9002 227.6 82.6001 230 85.2001 230.1C87.1001 230.1 88.6001 228.8 89.5001 227.3C90.8001 225.3 91.2001 222.9 91.1001 220.6C91.1001 217.7 92.2002 215 93.8002 212.6C94.7002 211.2 95.8001 209.8 97.0001 208.6C97.2001 208.4 97.0001 208 96.7001 208C92.6001 207.6 89.2002 210.5 86.8002 213.4C84.4002 216.3 82.4002 219.7 80.8002 223.1C80.4002 223.9 80.1002 224.6 79.8002 225.4C79.6002 225.9 80.4001 226 80.5001 225.6L80.7001 225.4Z" fill="#231F20"/>
</g>
<defs>
<clipPath id="clip0_208_780">
<rect width="155" height="265" fill="white"/>
</clipPath>
</defs>
</svg>
