<svg width="137" height="265" viewBox="0 0 137 265" fill="none" xmlns="http://www.w3.org/2000/svg">
<g clip-path="url(#clip0_208_903)">
<path d="M58.8002 263.501C58.6002 264.001 59.3002 264.201 59.5002 263.701C59.7002 263.201 59.0002 263.001 58.8002 263.501C58.6002 264.001 59.3002 264.201 59.5002 263.701C59.7002 263.201 59.0002 263.001 58.8002 263.501Z" fill="#231F20"/>
<path d="M67.0998 244.701C66.8998 241.001 66.5998 237.301 66.1998 233.701C65.6998 229.801 65.0998 226.001 64.0998 222.201C63.1998 218.501 61.9998 214.901 60.3998 211.401C58.8998 208.201 57.0998 205.101 54.6998 202.501C52.4998 200.001 49.6998 198.001 46.6998 196.801C43.2998 195.401 39.4998 195.101 35.7998 195.401C30.8998 195.901 26.1998 197.501 21.6998 199.601C20.3998 200.201 19.0998 200.801 17.7998 201.501C17.5998 201.501 17.4998 201.701 17.2998 201.801C17.0998 201.901 16.8998 202.001 16.7998 202.101C18.3998 201.501 20.0998 201.201 21.6998 201.001C25.4998 200.501 29.4998 200.701 33.1998 201.701C38.3998 203.201 42.8998 206.301 46.3998 210.401C51.7998 216.901 54.6998 225.201 56.3998 233.301C57.6998 239.401 58.3998 245.701 58.6998 251.901C58.6998 253.701 58.8998 255.601 58.8998 257.401C58.8998 258.301 58.8998 259.201 58.8998 260.201V262.501C58.8998 262.701 58.7998 263.201 58.8998 263.401C58.8998 263.401 58.8998 263.401 58.8998 263.501C58.8998 263.501 59.1998 263.501 59.2998 263.501H63.8998C64.4998 263.501 66.6998 263.501 66.6998 263.501C66.6998 262.701 66.8998 261.401 66.8998 260.601C66.9998 258.401 67.0998 256.301 67.0998 254.101C67.0998 251.001 67.0998 247.801 66.9998 244.701H67.0998ZM17.2998 202.101C17.2998 202.101 17.0998 202.101 16.9998 202.201C16.9998 202.201 17.1998 202.201 17.2998 202.101ZM61.6998 263.101H60.4998C60.0998 263.101 60.0998 263.201 59.9998 262.801C59.9998 262.301 59.9998 261.701 59.9998 261.201V259.701C59.9998 258.701 59.9998 257.701 59.9998 256.701C59.8998 250.001 59.3998 243.401 58.2998 236.801C56.7998 228.101 54.2998 219.101 48.9998 211.801C45.6998 207.301 41.2998 203.601 35.9998 201.701C32.1998 200.401 28.0998 199.901 23.9998 200.301C22.0998 200.501 20.0998 200.801 18.2998 201.501C22.5998 199.301 27.1998 197.501 31.8998 196.501C35.6998 195.801 39.6998 195.701 43.3998 196.701C46.5998 197.601 49.5998 199.301 51.9998 201.501C54.4998 203.801 56.4998 206.701 58.0998 209.701C59.8998 213.001 61.1998 216.501 62.1998 220.101C63.2998 223.901 64.0998 227.701 64.5998 231.501C65.1998 235.201 65.4998 239.001 65.6998 242.701C65.8998 246.001 65.9998 249.301 65.9998 252.601C65.9998 255.901 65.9998 257.501 65.7998 259.901C65.7998 260.901 65.5998 262.001 65.5998 263.001H61.3998L61.6998 263.101Z" fill="#231F20"/>
<path d="M67.4996 244.701C66.9996 232.901 65.4996 220.301 59.9996 209.601C57.5996 204.901 54.2996 200.601 49.6996 197.901C45.0996 195.201 39.2996 194.501 33.8996 195.401C27.6996 196.401 22.2996 199.101 16.6996 201.901C16.2996 202.101 16.5996 202.701 16.9996 202.601C23.4996 200.301 31.3996 200.801 37.5996 203.901C43.2996 206.801 47.5996 211.801 50.5996 217.401C53.5996 223.001 55.3996 229.601 56.5996 236.001C57.8996 243.101 58.4996 250.401 58.5996 257.601C58.5996 259.401 58.6996 261.101 58.5996 262.901C58.5996 263.601 58.5996 264.001 59.2996 264.101C60.8996 264.301 62.7996 264.101 64.3996 264.101C65.1996 264.101 66.2996 264.301 66.9996 264.001C67.0996 264.001 67.1996 263.801 67.1996 263.701C67.6996 257.401 67.6996 251.101 67.4996 244.901C67.4996 244.401 66.6996 244.401 66.6996 244.901C66.8996 249.201 66.8996 253.501 66.6996 257.801C66.6996 258.801 66.6996 259.801 66.5996 260.801C66.5996 261.501 66.6996 262.601 66.3996 263.201C66.2996 263.501 66.3996 263.301 65.9996 263.401C65.6996 263.401 65.3996 263.401 65.1996 263.401H60.2996C60.0996 263.401 59.1996 263.401 59.2996 263.401C59.2996 263.401 59.2996 262.901 59.2996 262.601C59.2996 260.701 59.2996 258.701 59.2996 256.801C59.1996 252.601 58.9996 248.301 58.4996 244.101C56.9996 230.101 53.2996 213.301 40.7996 204.901C33.8996 200.201 24.5996 199.001 16.6996 201.801L16.9996 202.501C21.6996 200.201 26.1996 197.801 31.2996 196.601C36.8996 195.301 42.8996 195.301 48.0996 197.901C57.8996 202.901 62.0996 214.701 64.1996 224.801C65.5996 231.301 66.2996 238.001 66.5996 244.601C66.5996 245.101 67.3996 245.101 67.3996 244.601L67.4996 244.701Z" fill="#231F20"/>
<path d="M17.0997 201.7C17.0997 201.7 16.8997 201.7 16.8997 201.8L17.1997 202.5C17.1997 202.5 17.3997 202.5 17.4997 202.4C17.4997 202.4 17.4997 202.4 17.5997 202.4C17.6997 202.4 17.5997 202.4 17.5997 202.3C17.5997 202.3 17.5997 202.3 17.5997 202.1C17.5997 202.1 17.5997 202.1 17.5997 202C17.5997 202 17.4997 201.8 17.3997 201.8H17.2997C17.2997 201.8 17.1997 201.8 17.0997 201.8C17.0997 201.8 16.8997 201.8 16.7997 201.9C16.7997 201.9 16.7997 201.9 16.6997 201.9C16.5997 201.9 16.6997 201.9 16.6997 202C16.6997 202.1 16.6997 202.2 16.6997 202.2C16.6997 202.2 16.6997 202.2 16.7997 202.2C16.7997 202.2 16.8997 202.2 16.9997 202.2C16.9997 202.2 17.0997 202.2 17.1997 202.2C17.1997 202.2 17.1997 202.2 17.2997 202.2C17.2997 202.2 17.2997 202.2 17.3997 202.2C17.4997 202.2 17.3997 202.2 17.3997 202.1C17.3997 202.1 17.3997 202.1 17.3997 201.9C17.3997 201.9 17.3997 201.9 17.3997 201.8C17.3997 201.8 17.2997 201.6 17.1997 201.6H17.0997C17.0997 201.6 16.9997 201.6 16.8997 201.6L17.0997 201.7Z" fill="#231F20"/>
<path d="M61.6996 262.701C61.4996 262.701 60.6996 262.801 60.4996 262.701C60.0996 262.501 60.4996 263.101 60.3996 262.401C60.2996 261.801 60.3996 261.101 60.3996 260.401C60.3996 258.701 60.3996 256.901 60.3996 255.201C60.3996 252.001 60.0996 248.701 59.7996 245.401C59.1996 239.401 58.2996 233.301 56.6996 227.401C53.7996 217.001 48.0996 206.301 37.6996 201.801C31.7996 199.301 24.2996 198.801 18.2996 201.001L18.5996 201.701C24.2996 198.801 30.5996 196.401 37.0996 196.301C43.5996 196.201 49.4996 198.801 53.6996 203.601C57.8996 208.401 60.4996 214.601 62.1996 220.701C63.9996 227.301 64.9996 234.101 65.4996 240.801C65.7996 244.601 65.8996 248.301 65.8996 252.101C65.8996 255.901 65.5996 259.301 65.4996 263.001L65.8996 262.601H61.7996C61.2996 262.601 61.2996 263.401 61.7996 263.401H65.8996C66.0996 263.401 66.2996 263.201 66.2996 263.001C66.2996 259.501 66.6996 256.101 66.6996 252.601C66.6996 249.101 66.5996 245.401 66.2996 241.801C65.7996 234.801 64.8996 227.701 62.9996 221.001C61.2996 214.901 58.8996 208.701 54.7996 203.801C50.8996 199.101 45.4996 196.201 39.3996 195.701C31.9996 195.101 24.6996 197.901 18.1996 201.201C17.7996 201.401 18.0996 202.001 18.4996 201.901C24.2996 199.801 31.3996 200.201 37.0996 202.501C42.3996 204.701 46.5996 208.701 49.7996 213.401C56.3996 223.401 58.4996 236.101 59.3996 247.901C59.6996 251.501 59.7996 255.101 59.7996 258.701C59.7996 259.501 59.7996 260.401 59.7996 261.201C59.7996 261.701 59.5996 262.401 59.7996 262.901C60.0996 263.801 60.9996 263.401 61.7996 263.401C62.5996 263.401 62.2996 262.601 61.7996 262.601L61.6996 262.701Z" fill="#231F20"/>
<path d="M66.8002 239.599C70.1002 225.299 74.5002 210.999 81.3002 197.899C85.8002 189.099 91.5002 180.799 98.8002 174.099C103.8 169.399 109.5 165.599 116 163.299C120.2 161.799 124.7 160.899 129.2 160.699C130.6 160.699 132 160.699 133.3 160.799C133.9 160.799 134.6 161.099 135.2 161.099C135.3 161.099 136.2 160.399 136.2 160.499C135.8 160.099 135.4 159.699 135 159.299C134 158.299 132.9 157.399 131.7 156.599C130.1 155.399 128.4 154.399 126.6 153.499C124.5 152.499 122.3 151.699 120 151.199C117.4 150.699 114.8 150.599 112.1 150.899C109.1 151.299 106.1 152.299 103.4 153.699C99.9002 155.499 96.8002 157.799 93.9002 160.499C90.2002 163.999 87.1002 168.099 84.3002 172.399C80.5002 178.199 77.4002 184.499 74.7002 190.899C71.0002 199.399 68.0002 208.199 65.4002 217.099C64.6002 219.599 63.9002 222.199 63.2002 224.699C63.2002 224.399 64.2002 224.399 64.2002 224.099C66.8002 214.699 69.7002 205.499 73.2002 196.399C75.9002 189.499 78.9002 182.799 82.6002 176.399C85.3002 171.599 88.4002 167.099 92.0002 162.899C94.7002 159.799 97.8002 156.999 101.3 154.899C101.3 154.899 101.5 154.799 101.6 154.699C101.8 154.599 102 154.499 102.2 154.399C102.6 154.199 103 153.999 103.3 153.799C104 153.499 104.8 153.099 105.5 152.899C106.9 152.399 108.3 151.999 109.7 151.699C112.3 151.199 114.9 151.199 117.5 151.699C119.8 152.099 122.1 152.699 124.2 153.699C126.1 154.499 127.8 155.499 129.5 156.599C130.8 157.499 132 158.399 133.1 159.399C133.6 159.899 134.2 160.499 134.7 160.999L135.7 160.399C135.2 160.399 134.8 160.199 134.3 160.199C133 159.999 131.8 159.999 130.5 159.999C128.6 159.999 126.6 160.199 124.7 160.499C122.2 160.899 119.8 161.499 117.4 162.299C114.5 163.299 111.8 164.499 109.1 165.899C105.9 167.699 102.9 169.599 100.1 171.899C96.7002 174.599 93.7002 177.699 90.9002 180.999C87.5002 184.999 84.6002 189.399 82.0002 193.899C78.8002 199.399 76.1002 205.299 73.7002 211.199C70.8002 218.499 68.5002 225.999 66.6002 233.599C66.1002 235.699 65.5002 237.899 65.1002 239.999C65.1002 239.699 66.1002 239.699 66.1002 239.399L66.8002 239.599Z" fill="#231F20"/>
<path d="M67.1998 239.699C70.6998 224.499 75.3998 209.399 82.9998 195.699C89.9998 182.999 99.7998 170.899 113.3 164.899C117.5 163.099 122 161.799 126.5 161.399C128.8 161.199 131.1 161.099 133.4 161.399C134 161.399 134.9 161.799 135.5 161.699C135.9 161.699 136.2 161.199 136.6 161.099C136.9 161.099 136.9 160.699 136.8 160.499C131.7 155.099 124.3 151.199 116.9 150.799C109.5 150.399 102.6 153.599 96.8998 158.199C90.8998 162.999 86.1998 169.499 82.2998 176.199C78.3998 182.899 74.9998 190.399 72.0998 197.899C68.6998 206.799 65.8998 215.799 63.2998 224.999C63.2998 225.299 63.6998 225.699 63.8998 225.399C64.2998 224.899 64.7998 225.099 65.0998 224.399C65.5998 223.099 65.8998 221.599 66.2998 220.199C67.0998 217.499 67.8998 214.799 68.7998 212.099C70.4998 206.799 72.2998 201.499 74.2998 196.299C78.2998 186.199 82.9998 176.099 89.5998 167.499C93.1998 162.799 97.2998 158.599 102.3 155.499C102.7 155.199 102.3 154.599 101.9 154.799C101.9 154.799 101.9 154.799 101.8 154.799C101.4 155.099 101.8 155.699 102.2 155.499C107.7 152.499 114.1 151.399 120.2 152.899C125.8 154.299 131.2 157.499 135.1 161.699C135.2 161.799 135.4 161.799 135.6 161.699L136.6 161.099C136.9 160.899 136.8 160.499 136.6 160.399C129.4 158.999 121.4 160.699 114.7 163.499C108 166.299 101.6 170.699 96.3998 175.799C85.4998 186.499 78.2998 200.399 72.9998 214.599C69.8998 222.999 67.4998 231.599 65.4998 240.299C65.4998 240.599 65.8998 240.999 66.0998 240.699C66.2998 240.399 66.8998 240.399 67.0998 240.099C67.3998 239.699 66.8998 239.199 66.5998 239.599C66.3998 239.899 65.7998 239.899 65.5998 240.199L66.1998 240.599C69.5998 225.799 74.0998 211.199 81.2998 197.799C88.1998 184.799 97.7998 173.099 111 166.199C118.5 162.199 127.9 159.599 136.4 161.199V160.499L135.3 161.099H135.8C131.7 156.799 125.9 153.399 120.1 151.999C113.9 150.599 107.5 151.699 101.9 154.699L102.3 155.399C102.3 155.399 102.3 155.399 102.4 155.399L102 154.699C93.2998 160.199 87.0998 168.699 82.1998 177.599C76.7998 187.299 72.6998 197.599 69.2998 208.099C68.2998 211.199 67.2998 214.299 66.3998 217.399C65.9998 218.899 65.4998 220.399 65.0998 221.799C64.8998 222.499 64.7998 223.599 64.2998 224.199C63.9998 224.499 63.6998 224.499 63.3998 224.899L63.9998 225.299C68.1998 210.099 73.1998 194.799 80.5998 180.799C84.0998 174.199 88.2998 167.699 93.5998 162.299C98.8998 156.899 105.5 152.599 112.9 151.799C121.5 150.899 130.4 154.999 136.3 161.199L136.5 160.599C136.1 160.599 135.9 160.999 135.6 161.099C135.1 161.299 134.1 160.899 133.6 160.899C131.6 160.699 129.6 160.699 127.6 160.899C123.6 161.199 119.7 162.099 115.9 163.499C109.1 165.999 103 170.199 97.7998 175.199C86.7998 185.799 79.5998 199.699 74.2998 213.899C71.0998 222.399 68.6998 231.099 66.6998 239.999C66.5998 240.499 67.2998 240.699 67.3998 240.199L67.1998 239.699Z" fill="#231F20"/>
<path d="M60.1 210.599C59.8 202.399 59 194.199 57.7 185.999C56.6 178.999 55 172.099 52.9 165.299C51.1 159.399 48.9 153.699 46.4 148.099C44.2 143.299 41.6 138.599 38.7 134.199C36.2 130.299 33.5 126.599 30.4 123.099C27.9 120.099 25.1 117.299 22.2 114.699C19.8 112.499 17.2 110.499 14.6 108.599C12.6 107.099 10.4 105.799 8.20001 104.599C6.70001 103.799 5.20001 102.999 3.60001 102.299C2.90001 101.999 2.2 101.599 1.5 101.399L0.5 101.999C1 101.899 1.50001 101.799 2.10001 101.799C3.50001 101.699 4.99999 101.599 6.39999 101.799C8.59999 101.799 10.7 102.199 12.9 102.599C15.6 103.199 18.3 104.099 20.9 105.199C24 106.599 27 108.299 29.8 110.399C33.2 112.899 36.3 115.799 39 118.899C42.4 122.799 45.3 127.099 47.9 131.599C51.1 137.299 53.7 143.299 55.9 149.399C58.7 157.099 60.8 164.999 62.4 172.999C64.5 182.999 65.9 193.099 66.8 203.299C67.1 206.099 67.3 208.899 67.5 211.699C67.5 211.499 68.5 211.299 68.5 211.099C67.8 200.399 66.6 189.699 64.7 179.099C63.2 170.599 61.2 162.199 58.6 153.899C56.5 147.299 54 140.899 50.9 134.799C48.4 129.899 45.5 125.299 42.2 120.999C39.5 117.499 36.4 114.299 33 111.499C30.2 109.199 27.2 107.199 24 105.599C21.4 104.299 18.6 103.199 15.8 102.499C13.5 101.899 11.2 101.499 8.89999 101.299C7.29999 101.199 5.6 101.099 4 101.299C3.3 101.299 2.40001 101.299 1.70001 101.599C1.70001 101.599 1.70001 101.599 1.60001 101.599C1.40001 101.599 0.800006 102.299 0.600006 102.199C1.10001 102.399 1.60001 102.599 2.10001 102.799C3.50001 103.399 4.80001 103.999 6.10001 104.699C8.20001 105.799 10.1 106.999 12.1 108.299C14.6 109.999 17.1 111.899 19.4 113.799C22.3 116.199 25 118.899 27.5 121.599C30.5 124.799 33.2 128.299 35.8 131.899C38.7 136.099 41.4 140.599 43.7 145.099C46.4 150.399 48.6 155.799 50.5 161.399C52.7 167.899 54.5 174.499 55.8 181.299C57.3 189.099 58.3 196.899 58.9 204.799C59 206.899 59.2 209.099 59.3 211.199C59.3 210.999 60.3 210.799 60.3 210.599H60.1Z" fill="#231F20"/>
<path d="M60.4996 210.601C59.6996 192.601 56.9996 174.601 50.6996 157.701C44.3996 140.801 35.4996 126.401 22.6996 114.701C19.1996 111.501 15.3996 108.601 11.2996 106.001C9.19956 104.701 6.99956 103.401 4.79956 102.401C3.99956 102.001 3.09956 101.601 2.29956 101.301C1.39956 101.001 1.19956 101.301 0.299559 101.701C-0.100441 101.901 0.199578 102.501 0.599578 102.401C5.19957 101.601 10.0996 102.201 14.5996 103.401C19.0996 104.601 23.1996 106.401 26.9996 108.901C34.4996 113.701 40.5996 120.601 45.3996 128.101C55.1996 143.601 60.2996 161.901 63.3996 179.801C65.2996 190.401 66.3996 201.001 67.1996 211.801C67.1996 212.201 67.6996 212.301 67.8996 212.001C68.0996 211.701 68.6996 211.801 68.8996 211.401C68.9996 211.201 68.8996 210.701 68.8996 210.501C68.8996 209.801 68.7996 209.001 68.6996 208.301C68.4996 205.701 68.2996 203.101 67.9996 200.501C67.4996 195.401 66.8996 190.401 66.0996 185.401C64.5996 175.201 62.4996 165.201 59.3996 155.301C53.8996 137.401 44.8996 118.601 28.7996 108.001C24.2996 105.001 19.2996 102.801 13.9996 101.701C11.3996 101.101 8.79957 100.801 6.09957 100.801C4.79957 100.801 3.49956 100.801 2.29956 101.001C1.99956 101.001 1.59956 101.001 1.29956 101.201C0.999559 101.301 0.699566 101.701 0.399566 101.701C-0.000434518 101.701 -0.100441 102.301 0.299559 102.401C4.09956 103.801 7.69958 105.901 11.0996 108.101C14.4996 110.301 17.8996 113.001 21.0996 115.801C27.2996 121.401 32.6996 127.901 37.2996 134.901C46.4996 149.101 52.1996 165.301 55.3996 181.801C57.2996 191.501 58.2996 201.301 58.6996 211.101C58.6996 211.501 59.1996 211.601 59.3996 211.301C59.5996 211.001 60.1996 211.101 60.3996 210.701C60.6996 210.301 59.9996 209.901 59.7996 210.301C59.5996 210.601 58.9996 210.601 58.7996 210.901L59.4996 211.101C58.7996 193.501 56.0996 175.901 50.0996 159.301C44.0996 142.701 35.6996 128.701 23.5996 117.001C20.1996 113.801 16.5996 110.801 12.7996 108.201C8.99956 105.601 4.99958 103.201 0.699584 101.601V102.301C1.09958 102.301 1.29956 101.901 1.79956 101.701C2.69956 101.301 4.29956 101.401 5.29956 101.401C7.79956 101.401 10.2996 101.601 12.7996 102.001C17.5996 102.901 22.0996 104.601 26.2996 107.001C34.3996 111.701 40.8996 118.701 45.9996 126.501C56.4996 142.601 61.5996 161.901 64.7996 180.701C65.7996 186.301 66.4996 191.901 67.0996 197.501C67.3996 200.301 67.6996 203.001 67.8996 205.801C67.9996 207.201 68.0996 208.601 68.1996 209.901C68.1996 210.101 68.2996 210.601 68.1996 210.701C68.1996 210.701 67.8996 210.701 67.7996 210.901C67.5996 211.101 67.3996 211.101 67.2996 211.301L67.9996 211.501C66.5996 192.101 63.9996 172.601 58.0996 154.001C52.6996 137.001 44.0996 119.401 28.9996 108.901C24.8996 106.101 20.3996 103.901 15.5996 102.501C10.7996 101.101 5.49957 100.501 0.599578 101.301L0.899566 102.001C1.09956 101.901 1.49956 101.501 1.79956 101.501C2.19956 101.501 2.89956 101.901 3.29956 102.101C4.29956 102.501 5.19957 103.001 6.09957 103.501C7.99957 104.501 9.79957 105.501 11.5996 106.701C15.1996 109.001 18.5996 111.601 21.6996 114.401C27.9996 120.001 33.4996 126.401 38.0996 133.501C47.4996 147.801 53.3996 164.201 56.5996 181.001C58.4996 190.701 59.4996 200.601 59.8996 210.501C59.8996 211.001 60.6996 211.001 60.6996 210.501L60.4996 210.601Z" fill="#231F20"/>
<path d="M72.4998 199.4C71.3998 184.8 71.7998 170.1 74.4998 155.7C76.5998 144.5 80.0998 133.5 85.0998 123.3C88.9998 115.4 93.6998 107.9 99.2998 101.1C103.2 96.4004 107.4 92.0004 112.1 88.2004C114.1 86.5004 116.5 84.8004 118.6 83.5004C118.7 83.5004 118.5 83.5004 118.4 83.6004C118.5 83.6004 118.6 83.4004 118.8 83.4004C117.1 84.0004 115.5 84.9004 113.9 85.8004C109.6 88.2004 105.6 90.8004 101.8 93.9004C96.1998 98.4004 91.1998 103.5 86.7998 109.2C80.9998 116.7 76.1998 125 72.5998 133.8C67.8998 145.1 64.9998 157 63.3998 169.1C63.1998 170.8 62.9998 172.5 62.7998 174.3C62.7998 174.1 63.7998 173.9 63.7998 173.7C64.9998 161.4 67.5998 149.2 71.8998 137.7C75.2998 128.7 79.6998 120.1 85.1998 112.2C89.4998 106.2 94.3998 100.7 99.8998 95.8004C103.7 92.5004 107.9 89.3004 112.2 86.8004C113.9 85.8004 115.9 84.9004 117.7 84.0004L118.1 83.8004C116.2 84.9004 114.4 86.2004 112.7 87.6004C108.2 91.1004 104.2 95.1004 100.4 99.3004C94.7998 105.7 89.9998 112.7 85.9998 120.2C80.7998 130 76.9998 140.6 74.4998 151.5C71.3998 165.5 70.3998 179.9 71.0998 194.2C71.1998 196.2 71.2998 198.2 71.4998 200.2C71.4998 200 72.5998 199.8 72.4998 199.6V199.4Z" fill="#231F20"/>
<path d="M72.7998 199.399C71.3998 181.899 72.3998 164.099 76.6998 146.999C80.7998 130.799 88.0998 115.499 98.5998 102.399C101.5 98.8994 104.5 95.4994 107.8 92.3994C111.1 89.2994 114.9 86.4994 118.7 83.7994C119.1 83.4994 118.7 82.8994 118.3 83.1994C118.3 83.1994 118.2 83.1994 118.1 83.2994L118.5 83.8994C118.6 83.8994 118.7 83.6994 118.9 83.6994C119.3 83.4994 119 82.8994 118.6 82.9994C115.2 84.2994 112 86.1994 108.9 88.1994C105.8 90.1994 103.1 92.1994 100.4 94.3994C94.8998 98.9994 89.8998 104.199 85.5998 109.999C76.7998 121.599 70.6998 135.099 66.7998 149.199C64.5998 157.399 63.0998 165.799 62.2998 174.199C62.2998 174.599 62.7998 174.699 62.9998 174.399C63.1998 174.199 63.6998 174.199 63.8998 173.999C64.1998 173.699 64.0998 173.099 64.1998 172.699C64.3998 170.599 64.6998 168.599 64.9998 166.499C65.4998 162.799 66.1998 159.099 66.9998 155.399C68.5998 148.099 70.7998 140.799 73.6998 133.899C79.2998 120.399 87.3998 107.799 98.1998 97.7994C101.3 94.8994 104.7 92.1994 108.2 89.7994C109.8 88.6994 111.5 87.5994 113.2 86.6994C114.9 85.7994 116.8 85.0994 118.5 84.0994C118.9 83.8994 118.5 83.1994 118.1 83.4994C110.9 87.7994 104.6 93.9994 99.1998 100.399C93.7998 106.799 89.2998 113.599 85.3998 120.899C77.3998 136.099 72.9998 152.999 71.3998 170.099C70.4998 180.099 70.4998 190.199 71.2998 200.199C71.2998 200.599 71.7998 200.699 71.9998 200.399C72.1998 200.099 72.7998 200.199 72.9998 199.799C73.2998 199.399 72.5998 198.999 72.3998 199.399C72.1998 199.699 71.5998 199.699 71.3998 199.999L72.0998 200.199C70.6998 182.699 71.5998 164.999 75.9998 147.999C80.0998 131.899 87.2998 116.499 97.6998 103.499C103.5 96.1994 110.5 88.9994 118.6 84.1994L118.2 83.5994C116.8 84.4994 115.2 84.9994 113.7 85.7994C112 86.6994 110.3 87.6994 108.7 88.7994C105.7 90.7994 102.7 93.0994 99.9998 95.4994C94.4998 100.299 89.5998 105.799 85.2998 111.699C76.6998 123.699 70.7998 137.599 67.2998 151.899C66.2998 155.999 65.4998 160.099 64.7998 164.299C64.4998 166.299 64.1998 168.399 63.8998 170.399C63.8998 170.899 63.7998 171.299 63.6998 171.799C63.5998 172.299 63.6998 173.199 63.3998 173.599C63.0998 173.799 62.7998 173.799 62.4998 174.099L63.1998 174.299C66.0998 145.699 76.5998 116.999 98.3998 97.3994C101.4 94.6994 104.6 92.1994 108 89.9994C111.4 87.7994 115.2 85.3994 119.1 83.8994L118.8 83.1994C118.7 83.1994 118.5 83.2994 118.4 83.3994C118 83.6994 118.4 84.2994 118.8 83.9994C118.8 83.9994 118.9 83.9994 119 83.8994L118.6 83.2994C115.4 85.5994 112.2 87.7994 109.3 90.4994C106.1 93.3994 103.2 96.3994 100.4 99.6994C95.0998 105.899 90.4998 112.699 86.6998 119.899C78.6998 135.099 74.1998 151.899 72.4998 168.899C71.4998 179.099 71.4998 189.399 72.2998 199.599C72.2998 200.099 73.0998 200.099 73.0998 199.599L72.7998 199.399Z" fill="#231F20"/>
<path d="M62.9998 170.6C62.9998 168.8 62.9998 167 62.9998 165.3C62.9998 160.9 62.9998 156.4 63.0998 152C63.0998 146.3 63.1998 140.5 63.2998 134.8C63.3998 129.1 63.3998 123.3 63.4998 117.6V104.5C63.5998 102.5 63.6998 100.4 63.5998 98.3C63.1998 89.6 63.5998 80.8 65.0998 72.1C66.2998 64.7 68.2998 57.4 70.9998 50.4C73.3998 44.4 76.2998 38.6 79.7998 33.1C82.7998 28.4 86.0998 24 89.7998 19.9C92.7998 16.5 96.0998 13.4 99.5998 10.5C102.1 8.4 104.8 6.40001 107.5 4.60001C108.4 4.00001 109.3 3.39999 110.2 2.89999C110.2 2.89999 110.3 2.89999 110.4 2.79999C110.4 2.79999 110.4 2.80001 110.6 2.70001C110.8 2.60001 111 2.49999 111.2 2.39999C111.7 2.19999 111.4 2.39999 111.2 2.79999C110.3 4.59999 109.5 6.49999 108.8 8.29999C107.5 11.9 106.4 15.6 105.6 19.3C104.5 24.1 104.1 28.9 103.6 33.8C102.8 42.2 100.6 50.4 97.8998 58.3C94.6998 67.4 90.5998 76.2 85.5998 84.3C83.0998 88.4 80.1998 92.2 77.2998 96C74.8998 99.2 72.9998 102.7 71.4998 106.4C68.6998 113.5 67.4998 121.1 67.0998 128.7C66.7998 133.9 66.9998 139.2 67.4998 144.5C67.4998 145.3 67.7998 146.8 67.8998 147.5C67.8998 147.4 68.7998 146.3 68.7998 146.2C67.8998 140.8 67.7998 135.2 67.9998 129.7C68.3998 119.1 70.2998 108 75.8998 98.8C77.4998 96.2 79.3998 93.9 81.1998 91.5C83.1998 88.8 85.0998 86 86.8998 83.1C90.3998 77.3 93.4998 71.2 96.0998 65C98.5998 59.1 100.6 53 102.2 46.8C103.6 41.2 104.4 35.6 105 29.9C105.6 23.5 106.9 17.1 108.8 10.9C109.8 7.79999 110.9 4.79999 112.4 1.89999C112.4 1.79999 112.5 1.6 112.6 1.5C111 2.3 109.4 3.29999 107.8 4.29999C104.2 6.59999 100.8 9.2 97.5998 12C92.7998 16.2 88.3998 20.8 84.4998 25.8C79.5998 32.1 75.3998 39 72.0998 46.4C68.0998 55.3 65.3998 64.8 63.9998 74.5C63.1998 80.1 62.6998 85.9 62.6998 91.6C62.6998 94.7 62.8998 97.8 62.8998 100.8V113.8C62.7998 113.8 62.5998 136 62.5998 136C62.5998 143.3 62.4998 150.6 62.3998 158C62.3998 162.2 62.3998 166.4 62.2998 170.6V171.2C62.2998 171 63.2998 170.8 63.2998 170.6H62.9998Z" fill="#231F20"/>
<path d="M63.3998 170.6C63.4998 158.3 63.5998 146 63.7998 133.8C63.7998 127.8 63.8998 121.7 63.9998 115.7C64.0998 109.7 64.2998 103.7 63.9998 97.6995C63.0998 73.7995 68.6998 49.7995 82.3998 29.9995C86.1998 24.5995 90.4998 19.4995 95.2998 14.8995C100.1 10.2995 105 6.29956 110.6 3.09956C111 2.89956 110.6 2.19955 110.2 2.49955L110.6 3.19956C110.9 2.99956 111.2 2.79956 111.6 2.69956L111.1 2.49955C111.1 2.49955 109.9 4.79956 109.7 5.19956C109.2 6.29956 108.8 7.39955 108.4 8.49955C107.5 10.9995 106.7 13.4995 106 15.9995C104.7 21.0995 104 26.1995 103.4 31.3995C102.8 36.5995 102.1 41.9995 100.8 47.2995C99.5998 52.1995 97.9998 57.0995 96.1998 61.8995C92.5998 71.3995 87.9998 80.4996 82.1998 88.7996C79.2998 92.8996 75.9998 96.6995 73.5998 101.1C71.1998 105.5 69.5998 110.1 68.5998 114.9C66.1998 125.5 65.8998 137 67.5998 147.8C67.5998 148.2 68.1998 148.1 68.2998 147.8C68.4998 147.3 69.0998 147 69.1998 146.6C69.1998 146.4 69.1998 146.1 69.1998 145.8C69.0998 144.9 68.9998 144 68.7998 143C68.4998 140.3 68.3998 137.7 68.3998 135C68.3998 129.9 68.5998 124.8 69.3998 119.8C70.0998 115.1 71.1998 110.5 72.9998 106.1C74.8998 101.3 77.5998 97.2995 80.6998 93.1995C86.8998 85.0995 91.9998 76.0995 95.9998 66.6995C99.9998 57.2995 103.3 46.8995 104.7 36.3995C105.5 30.5995 105.9 24.7995 107.1 18.9995C108.4 13.1995 110.2 7.19954 112.9 1.89954C113.1 1.59954 112.7 1.19954 112.4 1.39954C107.3 3.79954 102.6 7.39955 98.3998 10.9995C93.7998 14.8995 89.5998 19.0995 85.7998 23.6995C78.3998 32.5995 72.6998 42.7995 68.7998 53.6995C64.6998 65.1995 62.5998 77.3995 62.2998 89.6995C62.2998 92.7995 62.2998 95.8996 62.3998 98.8996C62.3998 102.2 62.3998 105.5 62.3998 108.8C62.3998 115.2 62.2998 121.6 62.1998 128.1C62.0998 142.5 61.8998 156.8 61.7998 171.2C61.7998 171.6 62.2998 171.7 62.4998 171.4C62.6998 171.1 63.2998 171.2 63.4998 170.8C63.7998 170.4 63.0998 170 62.8998 170.4C62.6998 170.7 62.0998 170.7 61.8998 171L62.5998 171.2C62.6998 158.7 62.7998 146.1 62.9998 133.5C62.9998 127.3 63.0998 121 63.1998 114.8C63.2998 108.6 63.3998 102.1 63.1998 95.7996C62.3998 71.6996 69.0998 47.2995 83.5998 27.8995C87.4998 22.6995 91.8998 17.7995 96.7998 13.3995C101.7 8.99954 107 4.79954 112.9 1.89954L112.4 1.39954C107.6 10.4995 105.6 20.9995 104.6 31.1995C103.5 42.0995 100.8 52.5995 96.7998 62.7995C92.7998 72.9995 87.9998 81.8996 81.8998 90.2996C78.9998 94.3996 75.7998 98.0995 73.6998 102.7C71.6998 106.9 70.2998 111.5 69.3998 116C68.3998 121.3 67.8998 126.7 67.7998 132.2C67.7998 135.3 67.7998 138.4 68.0998 141.4C68.1998 142.7 68.3998 144 68.4998 145.4C68.5998 146.2 68.4998 146.3 68.0998 146.9C67.9998 147.1 67.8998 147.2 67.7998 147.4H68.4998C66.8998 137.4 67.0998 126.9 68.9998 117C69.9998 112 71.4998 107.1 73.7998 102.5C76.0998 97.8995 79.2998 94.1995 82.1998 90.1995C87.8998 82.1995 92.4998 73.3995 96.1998 64.2995C99.9998 54.8995 102.9 44.9995 104.1 34.8995C104.8 28.8995 105.3 22.8995 106.8 16.9995C107.5 14.1995 108.3 11.4995 109.3 8.79954C109.8 7.29954 110.4 5.79954 111.1 4.39954C111.3 3.89954 112.3 2.69956 112.1 2.19956C112 1.99956 111.8 1.89955 111.6 1.99955C111.3 2.09955 111 2.29955 110.6 2.49955C110.2 2.69955 110.6 3.39956 111 3.09956L110.6 2.39954C105.8 5.19954 101.3 8.69954 97.1998 12.3995C92.7998 16.3995 88.7998 20.6995 85.1998 25.3995C78.0998 34.5995 72.5998 44.9995 68.9998 56.0995C65.2998 67.4995 63.5998 79.4995 63.4998 91.4995C63.4998 94.5995 63.6998 97.5995 63.6998 100.7C63.6998 103.8 63.6998 106.8 63.6998 109.8C63.6998 116 63.5998 122.2 63.4998 128.3C63.3998 142.4 63.1998 156.5 63.0998 170.5C63.0998 171 63.8998 171 63.8998 170.5L63.3998 170.6Z" fill="#231F20"/>
<path d="M111.9 1.80039C107.9 5.60039 104.4 10.0004 101 14.3004C93.8001 23.7004 87.5001 34.1004 83.5001 45.3004C81.5001 50.9004 80.4001 56.8004 79.0001 62.6004C77.8001 67.5004 76.5001 72.4004 75.1001 77.3004C72.2001 87.7004 69.4001 98.1004 67.6001 108.7C65.3001 122 64.6001 135.5 65.1001 148.9C65.1001 150.9 65.4001 154.7 65.5001 156.7C65.5001 156.6 66.2001 154.6 66.1001 154.4C65.3001 140.4 65.6001 126.4 67.7001 112.5C69.3001 101.7 72.0001 91.0004 74.9001 80.5004C76.3001 75.6004 77.7001 70.6004 78.9001 65.7004C79.5001 63.2004 80.2001 60.7004 80.7001 58.2004C81.3001 55.3004 81.9001 52.4004 82.8001 49.6004C86.3001 37.8004 92.4001 26.8004 99.6001 16.9004C103.5 11.5004 107.8 6.30041 112.5 1.60041L112.7 1.40039C112.5 1.60039 112.1 1.60039 111.9 1.90039V1.80039Z" fill="#231F20"/>
<path d="M111.7 1.59905C104.2 8.89905 97.6996 17.5991 92.2996 26.4991C89.5996 30.9991 87.0996 35.6991 85.0996 40.5991C83.0996 45.4991 81.5996 50.4991 80.2996 55.6991C75.1996 77.6991 67.6996 99.1991 65.4996 121.799C64.3996 133.499 64.3996 145.099 65.0996 156.799C65.0996 157.199 65.7996 157.299 65.7996 156.799C65.7996 156.299 66.0996 155.699 66.2996 155.199C66.4996 154.399 66.3996 153.599 66.2996 152.699C66.1996 149.899 66.0996 146.999 65.9996 144.199C65.9996 138.499 65.9996 132.799 66.3996 127.099C67.1996 115.699 69.0996 104.399 71.7996 93.1991C74.4996 82.1991 77.8996 71.3991 80.4996 60.2991C81.6996 54.9991 82.7996 49.7991 84.5996 44.6991C86.3996 39.5991 88.5996 34.9991 91.0996 30.4991C96.8996 19.9991 104.2 9.99905 112.8 1.59905C113.1 1.29905 112.8 0.799053 112.3 0.999053C112 1.19905 111.8 1.29905 111.5 1.49905C111.1 1.79905 111.5 2.39905 111.9 2.09905C112.2 1.89905 112.4 1.79905 112.7 1.59905L112.2 0.999053C104.7 8.39905 98.0996 17.1991 92.5996 26.1991C87.1996 35.0991 83.0996 44.5991 80.7996 54.7991C78.2996 66.0991 74.9996 77.0991 72.0996 88.2991C69.2996 99.1991 66.9996 110.199 65.8996 121.399C65.2996 127.799 64.9996 134.199 64.9996 140.599C64.9996 143.799 64.9996 147.099 65.1996 150.399C65.1996 151.699 65.5996 153.199 65.3996 154.499C65.2996 155.199 64.8996 155.799 64.7996 156.499H65.4996C64.8996 146.499 64.6996 136.399 65.4996 126.299C66.2996 114.999 68.2996 103.899 70.9996 92.9991C73.6996 82.0991 77.0996 71.3991 79.5996 60.3991C80.7996 55.0991 81.8996 49.7991 83.7996 44.7991C85.6996 39.7991 87.8996 35.0991 90.3996 30.4991C93.1996 25.3991 96.3996 20.5991 99.8996 15.8991C103.5 10.9991 107.4 6.29905 111.8 1.99905C112.2 1.69905 111.6 1.09905 111.3 1.49905L111.7 1.59905Z" fill="#231F20"/>
</g>
<defs>
<clipPath id="clip0_208_903">
<rect width="137" height="265" fill="white"/>
</clipPath>
</defs>
</svg>
