<svg width="115" height="160" viewBox="0 0 115 160" fill="none" xmlns="http://www.w3.org/2000/svg">
<g clip-path="url(#clip0_2015_86)">
<path d="M111.669 37.0034C108.165 26.7918 101.494 16.6168 92.666 10.4313C76.7575 -0.731964 54.9425 -2.6169 36.8952 3.26666C28.0582 6.14897 20.3405 11.2914 13.7423 18.703C5.54232 27.9081 1.01913 38.7968 0.172743 51.36C-1.03769 69.4133 4.07706 84.4745 15.5261 96.5253C20.832 102.107 26.2289 107.771 31.7258 113.288C39.3434 120.947 45.5684 129.53 50.4011 139.037C51.1018 140.428 51.5023 141.938 51.5842 143.566C51.7207 146.357 51.8663 149.029 52.0028 151.564C52.2759 156.55 54.9879 159.323 60.1482 159.872C63.734 160.256 67.9842 159.808 72.9078 158.527C75.9111 157.74 78.0407 155.709 78.2683 152.46C78.5868 147.83 78.514 143.338 78.2683 138.488C78.1773 136.612 78.696 133.547 79.2512 132.074C81.4263 126.337 84.011 121.212 87.0234 116.72C91.0915 110.644 95.6875 103.873 100.83 96.3972C105.207 90.0378 108.511 83.9712 110.759 78.2066C116.083 64.4814 116.392 50.7469 111.669 37.0034ZM76.7211 9.86394C77.7677 10.2025 78.7688 10.7058 79.7244 11.3737C93.5852 21.1095 102.322 37.4609 103.969 54.4436C103.988 54.6266 103.951 54.8005 103.86 54.9652C103.414 55.7887 102.859 55.8893 102.195 55.2763C102.049 55.1482 101.949 54.9652 101.913 54.773C100.739 48.2306 98.6545 41.3863 95.6693 34.2217C91.6376 24.55 84.6025 16.5253 76.439 10.4221C75.4379 9.67179 75.5289 9.48878 76.7211 9.86394ZM65.4723 9.62604C66.9193 10.3947 68.2208 11.3646 69.3766 12.5449C79.5424 22.9578 86.805 37.7994 87.6605 52.7874C87.7151 53.7299 87.2964 54.041 86.4136 53.739C86.177 53.6567 85.9677 53.5377 85.7857 53.373C84.9666 52.6319 84.5115 51.8541 84.4205 51.0397C82.664 35.0818 75.2467 23.0493 65.6543 11.1541C65.2903 10.7058 65.0718 10.3306 64.9899 10.0103C64.8534 9.50708 65.0172 9.37898 65.4723 9.62604ZM61.7682 13.3685C61.7955 13.0482 61.9047 13.0116 62.0958 13.277C63.1333 14.7318 64.3165 16.1501 65.6452 17.5501C66.8556 18.8311 68.6667 21.6677 71.0785 26.0598C75.6381 34.3773 78.423 43.317 79.4332 52.8789C79.4605 53.1077 79.2785 53.2998 79.0509 53.2907L64.6896 52.7691C63.4792 52.7234 62.4872 51.7718 62.3961 50.5548C61.4678 38.0556 60.576 25.7761 61.7682 13.3685ZM59.1744 116.473C59.2199 117.031 59.229 117.607 59.2017 118.193C59.1562 119.3 58.9924 119.328 58.7012 118.257C58.2188 116.5 57.9003 114.89 56.9811 113.261C54.2326 108.43 51.5205 103.461 48.8539 98.3645C43.6026 88.345 39.8075 78.2981 37.4777 68.2421C36.8861 65.6526 36.6677 62.7794 36.8406 59.6226C36.8588 59.2566 37.0499 59.0736 37.414 59.0736L53.186 59.1194C53.9959 59.1194 54.6694 59.7507 54.7058 60.5651C55.0335 66.9885 55.5158 72.8995 56.162 78.2981C57.7547 91.6848 58.2188 103.717 59.1744 116.473ZM45.259 108.119C40.7995 103.095 36.4584 97.7606 32.2446 92.1149C26.2016 84.017 20.477 71.71 20.1585 60.9585C20.1403 60.437 20.5316 59.9978 21.0413 59.9612L27.3028 59.4213C27.8033 59.3756 28.2493 59.7599 28.2766 60.2631C28.8863 70.0813 31.0888 78.902 34.893 86.7071C37.7962 92.6639 40.7995 98.5566 43.9212 104.394C44.5855 105.648 45.1407 106.828 45.5866 107.917C45.8688 108.613 45.7596 108.677 45.259 108.119ZM55.6159 10.3489C55.807 10.1933 56.0983 10.3398 56.0892 10.5868L54.4328 50.7195C54.4237 51.0489 54.1507 51.3143 53.823 51.3143L37.3321 51.1861C37.0863 51.1861 36.8861 50.994 36.877 50.7469C36.4948 43.134 39.3252 35.1001 42.4286 28.0636C45.6139 20.8625 50.0097 14.9606 55.6159 10.3489ZM49.6366 8.24436C49.6639 8.39991 49.6184 8.53717 49.5001 8.63782C42.5378 14.6312 37.1682 21.8598 33.3913 30.342C30.4335 36.9851 29.0775 43.6006 28.1674 50.7927C28.0673 51.5522 27.6395 51.9365 26.875 51.9639L20.7501 52.1286C20.022 52.1469 19.6761 51.7901 19.7217 51.0672C20.3678 39.5654 24.7272 29.4728 32.8089 20.7893C37.8144 15.4089 43.2568 11.1541 49.1451 8.01561C49.3453 7.9058 49.582 8.02476 49.6366 8.24436ZM4.74144 55.6514C4.82334 40.2517 10.4113 27.4231 21.5054 17.1658C27.1845 11.9227 35.1023 7.6862 42.6197 5.66401C44.3125 5.21565 44.449 5.50846 43.0384 6.55158C37.4595 10.6692 31.5256 14.6129 26.693 19.7827C18.1563 28.9146 13.6513 40.0961 13.2873 52.6776C13.2782 52.9796 13.0688 53.2358 12.7776 53.2907C10.1565 53.8671 7.57184 54.7181 5.01446 55.8436C4.87795 55.8985 4.74144 55.7978 4.74144 55.6514ZM53.732 136.054C53.5227 135.853 53.2042 135.359 52.7673 134.581C47.0974 124.397 40.3627 116.015 32.3083 107.679C27.4939 102.692 22.907 97.8063 18.5658 93.0116C11.731 85.4627 7.226 76.3857 5.05997 65.7807C4.68683 63.9415 5.3785 62.7337 7.14409 62.1481L10.7845 60.9402C12.4955 60.3638 13.4693 60.9768 13.715 62.7794C15.4897 76.038 21.4781 88.1163 29.4506 97.8246C36.7405 106.719 43.5662 114.771 49.9915 125.019C52.112 128.395 53.641 131.909 54.5966 135.56C54.9242 136.795 54.633 136.96 53.732 136.054ZM63.7977 153.503C63.552 153.998 62.7693 154.345 61.4587 154.537C58.8832 154.913 57.2268 153.915 56.4714 151.527C56.3167 151.024 56.4714 150.905 56.9083 151.17C58.7376 152.241 60.9309 152.534 63.1515 152.479C63.9433 152.451 64.1526 152.799 63.7977 153.503ZM62.7602 149.523C61.568 149.788 59.948 149.807 57.8821 149.587C57.0266 149.496 56.5533 149.02 56.4623 148.16C56.4259 147.839 56.5078 147.519 56.7171 147.199C56.9083 146.897 57.2268 146.714 57.5817 146.696C59.4019 146.623 61.1584 146.851 62.8512 147.391C65.4632 148.224 65.4268 148.928 62.7602 149.523ZM56.4259 144.527H56.3258C55.9982 144.564 55.716 144.326 55.6887 143.996L55.5704 142.514C55.5431 142.194 55.7797 141.901 56.1074 141.874H56.2075C62.8239 141.325 68.2299 141.425 68.2845 142.093L68.3027 142.331C68.3573 142.999 63.0423 143.987 56.4259 144.527ZM64.9171 121.615C64.5804 121.331 64.4985 120.984 64.6623 120.572C64.7351 120.38 64.9444 120.151 65.2812 119.877C67.0104 118.467 65.9091 117.131 66.8829 115.905C67.156 115.549 67.2652 115.594 67.2015 116.043C66.9193 117.955 66.5007 119.666 65.9273 121.158C65.4268 122.466 65.09 123.848 64.8989 125.303C64.8534 125.641 64.6805 125.714 64.3984 125.54C64.3165 125.495 64.2528 125.431 64.1981 125.357C64.0525 125.156 64.0161 124.937 64.0889 124.69C64.2436 124.205 64.2436 123.71 64.0889 123.207C63.9888 122.896 64.0798 122.667 64.3711 122.512L64.8625 122.256C65.1992 122.082 65.2175 121.862 64.9262 121.615H64.9171ZM67.884 108.183C67.7202 109.692 67.3471 111.065 66.7737 112.3C66.4734 112.932 66.255 113.6 66.1185 114.286C66.0547 114.588 65.9273 114.853 65.7362 115.091C65.3176 115.631 64.8989 116.198 64.4803 116.811C63.7158 117.918 63.4155 117.809 63.5702 116.464C63.8705 113.92 64.5349 111.596 65.5633 109.5C65.7089 109.207 65.9182 108.97 66.1913 108.796C66.3642 108.686 66.4916 108.539 66.5553 108.356C66.6736 108.027 66.5735 107.807 66.2368 107.707C65.627 107.515 65.0445 107.624 64.4803 108.036C64.2072 108.228 64.0707 108.164 64.0616 107.826C64.0161 106.316 64.0616 104.733 64.189 103.077C64.3529 101.027 64.4166 99.4442 64.3893 98.337C63.9524 82.553 63.552 72.5884 63.1879 68.4525C62.9786 66.0643 62.924 63.6304 63.0241 61.1507C63.0514 60.3455 63.4701 59.952 64.2801 59.9612C69.2219 60.0344 74.1637 60.2997 79.1147 60.7481C79.5333 60.7938 79.8518 61.1415 79.8518 61.5533C79.8427 69.4499 78.4958 75.9099 75.6745 83.8706C74.3821 87.5124 73.0625 91.145 71.7065 94.7684C71.488 95.3541 71.8248 96.3331 71.5608 97.1749C70.7326 99.801 69.8499 102.162 68.9307 104.248C68.3755 105.502 68.0297 106.819 67.884 108.183ZM70.2503 122.887C70.1047 123.811 69.8135 124.69 69.3766 125.54C69.3129 125.659 69.2128 125.696 69.0854 125.641H69.0763C68.9398 125.586 68.9034 125.495 68.9671 125.367C69.4494 124.25 69.7589 123.079 69.8954 121.862C70.678 114.945 72.1069 108.97 74.6097 101.896C79.1966 88.9581 83.9928 76.4406 84.9666 62.6971C85.0212 61.9285 85.4307 61.5533 86.1952 61.5716L86.9324 61.5899C87.7424 61.6082 88.1064 62.02 88.0427 62.8252C87.5877 68.3061 86.7777 72.9636 85.6037 76.8066C83.7015 83.0562 81.3535 89.4247 78.5504 95.9122C74.1546 106.078 71.7338 113.389 70.2503 122.887ZM109.676 66.6957C107.91 77.9138 101.949 87.915 95.2871 97.0011C88.6252 106.087 83.8017 113.234 80.8074 118.44C78.4139 122.612 76.0203 127.855 73.6268 134.16C73.5722 134.297 73.472 134.343 73.3355 134.288L73.0625 134.178C72.926 134.123 72.8805 134.023 72.9351 133.885C75.7109 127.059 78.4594 120.316 81.9451 113.966C84.5115 109.281 87.8061 104.102 91.8196 98.4194C96.0789 92.3894 100.22 85.1974 104.233 76.8524C105.953 73.2747 107.228 69.276 108.038 64.8565C108.129 64.3899 108.666 64.1794 109.039 64.4631C109.148 64.5454 109.239 64.6461 109.303 64.7559C109.648 65.3323 109.785 66.0186 109.676 66.6957ZM110.085 57.7377C109.967 57.9115 109.785 57.9939 109.548 57.9847C109.284 57.9664 109.066 57.7651 109.03 57.4998C107.828 49.2738 106.809 43.8477 105.981 41.2216C102.513 30.2871 96.5794 20.9448 88.1883 13.1946C88.1155 13.1214 88.0791 13.0482 88.0882 12.9659C88.1064 12.792 88.1883 12.7462 88.343 12.8377C96.7706 18.1083 102.395 26.2245 106.254 35.2648C108.884 41.4321 110.349 48.3679 110.668 56.0723C110.686 56.5756 110.495 57.1338 110.085 57.7377Z" fill="black"/>
</g>
<defs>
<clipPath id="clip0_2015_86">
<rect width="115" height="160" fill="white"/>
</clipPath>
</defs>
</svg>
