<svg width="81" height="60" viewBox="0 0 81 60" fill="none" xmlns="http://www.w3.org/2000/svg">
<g clip-path="url(#clip0_2105_818)">
<path d="M80.1987 21.9896C78.9216 13.2717 72.9799 6.65805 64.635 3.79333C55.5805 0.689883 46.2778 -0.503751 36.709 0.194746C26.6082 0.92861 17.8818 4.32384 10.5301 10.3627C8.384 12.1222 6.76112 14.0409 5.66147 16.101C-0.386642 27.4538 1.28945 37.5157 10.6897 46.2867C10.9114 46.4989 10.9114 46.7111 10.6897 46.9233C7.22227 50.1594 3.95877 53.5458 0.88151 57.0825C0.402627 57.6395 0.376023 58.2142 0.801696 58.8154C1.46681 59.7438 2.35363 60.1329 3.45329 59.9649C6.66357 59.4697 9.58121 58.6209 12.2062 57.4184C16.055 55.6501 20.0102 54.0939 24.063 52.75C28.2576 51.3619 33.6938 52.0161 38.3496 52.1311C38.4295 52.1311 40.8682 52.2902 45.6659 52.5997C63.6151 53.758 83.1695 42.2283 80.1987 21.9896ZM73.5919 32.5378C73.4411 32.8384 73.2194 32.9003 72.9445 32.7146C72.6518 32.5201 72.3503 32.4936 72.0488 32.6439C71.7384 32.8031 71.6763 33.0241 71.8714 33.307C72.0044 33.5104 72.1995 33.6253 72.4567 33.6519C72.7494 33.6784 72.8381 33.8287 72.7228 34.1028C69.8495 40.8048 62.9678 44.7306 56.0683 46.0568C51.6608 46.9145 48.2288 46.9852 43.2715 46.4812C38.66 46.0126 34.0308 45.8623 29.3928 46.0391C23.8147 46.2513 20.294 48.002 15.7446 49.7261C14.645 50.1417 14.5119 49.9383 15.3367 49.1072C16.3388 48.1081 17.6779 46.8968 19.3717 45.4644C20.2674 44.704 20.6221 43.475 20.2763 42.3521L20.1166 41.8216C19.8506 40.9817 18.8485 40.628 18.1213 41.132L16.0727 42.5466C15.6648 42.8207 15.1327 42.7942 14.7514 42.4848C10.9735 39.3371 7.61247 33.7845 7.74549 28.6474C7.75436 28.338 7.89625 28.1258 8.18004 27.9932C8.33966 27.9224 8.50816 27.8782 8.67665 27.8694C9.1112 27.8428 9.34177 27.6041 9.37724 27.1709L9.60782 24.4918C9.64329 24.0586 9.08459 23.8552 8.82741 24.2001L7.76323 25.597C7.577 25.8535 7.50605 25.8269 7.56813 25.5175C8.83628 18.9569 12.5077 14.0851 18.5824 10.9109C30.8915 4.47414 44.4598 4.09395 58.4272 7.45381C64.3423 8.87733 68.8385 11.689 71.9335 15.88C73.3436 17.7986 74.1772 19.7792 74.4255 21.8216C74.8511 25.2257 75.1527 29.4078 73.5919 32.5378Z" fill="black"/>
<path d="M54.259 32.4227C54.259 32.8913 54.0905 33.8197 53.7269 35.2079C53.2392 37.0735 51.5631 37.436 49.9225 36.8878C49.6298 36.7906 49.4613 36.596 49.417 36.2954C49.1243 34.6155 48.8139 33.2627 49.1598 31.5297C49.5411 29.6464 50.091 27.9311 49.7894 26.0213C49.4081 23.6429 48.7873 21.4059 47.9182 19.3281C47.5813 18.5147 48.1045 17.6128 48.9824 17.4979C51.0487 17.2238 52.574 20.0355 52.9465 21.5739C53.3988 23.4219 54.0107 23.4661 54.7645 21.7242C55.4296 20.1858 56.3962 17.5067 58.1521 16.9762C58.9237 16.7463 59.7041 17.2857 59.7662 18.0814C59.9524 20.4687 58.7197 23.6871 58.0901 25.8445C57.895 26.543 57.9748 27.2945 58.3295 27.9311L61.5664 33.7578C61.7438 34.0761 61.7704 34.4475 61.6462 34.7923C61.3979 35.482 61.0166 35.8975 60.5111 36.0478C59.3671 36.375 58.4625 36.0478 57.7797 35.0753C56.5559 33.3334 55.8996 32.352 55.8109 32.131C54.7202 29.3812 54.2058 29.4784 54.259 32.4227Z" fill="black"/>
<path d="M40.0521 18.5676C35.9106 17.931 31.9554 21.3969 31.2016 26.2952C30.4478 31.1936 33.1881 35.6763 37.3296 36.3129C41.471 36.9495 45.4262 33.4836 46.18 28.5853C46.9338 23.6869 44.1935 19.2042 40.0521 18.5676ZM41.1517 27.8425C40.797 30.3182 39.2806 32.1485 37.773 31.9363C36.2565 31.7241 35.3165 29.5402 35.6712 27.0645C36.0259 24.5888 37.5424 22.7586 39.05 22.9708C40.5665 23.183 41.5065 25.3669 41.1517 27.8425Z" fill="black"/>
<path d="M27.6278 23.8638C27.1135 21.9186 26.4661 20.557 25.6857 19.7789C23.4953 17.595 19.6465 17.4712 16.8973 18.4527C16.1081 18.7356 15.7001 19.2926 15.6646 20.1237C15.5316 23.2626 16.2588 26.2776 16.3298 29.4341C16.3741 30.9902 16.2322 33.4217 17.1368 34.6772C19.0966 37.3916 24.1959 36.587 26.7588 35.1812C30.9268 32.8912 28.5235 27.2679 27.6278 23.8638ZM20.3914 24.7126C20.1165 24.0672 20.1342 23.2714 20.4269 22.3253C20.5156 22.0424 20.7107 21.8832 21.0122 21.8567C22.0143 21.7771 22.7415 22.1043 23.2026 22.8293C24.054 24.1644 23.5485 25.0132 21.6862 25.3934C21.0654 25.526 20.6308 25.2962 20.3914 24.7126ZM23.7081 32.4756L22.3247 32.5817C21.562 32.6436 20.888 31.954 20.8171 31.0433L20.684 29.4783C20.6486 28.9566 21.0388 28.5057 21.5531 28.4615L23.8057 28.2847C24.3289 28.2404 24.7812 28.6295 24.8255 29.1511L24.9497 30.7073C25.0206 31.6268 24.4708 32.4137 23.7081 32.4756Z" fill="black"/>
</g>
<defs>
<clipPath id="clip0_2105_818">
<rect width="80" height="60" fill="white" transform="translate(0.5)"/>
</clipPath>
</defs>
</svg>
