<svg width="181" height="160" viewBox="0 0 181 160" fill="none" xmlns="http://www.w3.org/2000/svg">
<g clip-path="url(#clip0_2478_4318)">
<path d="M36.7573 17.536C10.2637 41.3163 5.22649 69.5785 17.8838 101.55C18.2589 101.615 18.6341 101.681 19.0199 101.746C18.0446 90.6174 16.9407 79.4996 16.1154 68.371C14.9472 52.5755 20.2738 38.9883 30.7019 27.5116C37.111 20.4623 43.9809 13.8047 50.9151 7.27769C52.2226 6.04842 54.8055 6.2116 56.799 5.74383C55.5879 7.27769 54.6126 9.1379 53.1229 10.3019C43.027 18.1996 35.5355 27.9576 31.838 40.5439C34.0351 37.1934 36.0392 33.7014 38.4614 30.5249C40.905 27.3158 43.5951 24.2698 46.4566 21.4414C57.7957 10.2475 71.2033 3.17652 86.9258 0.772384C105.371 -2.04513 121.608 2.81753 135.551 15.2951C144.254 23.0841 153.921 30.1768 161.037 39.282C182.847 67.1743 181.261 107.218 158.272 134.207C156.997 135.698 153.524 137.547 153.085 137.112C150.47 134.544 153.781 133.196 155.014 131.738C163.781 121.349 169.011 109.307 171.133 95.9478C173.362 81.9581 171.701 68.3818 165.485 55.5453C165.196 54.947 164.853 54.3704 164.07 52.9127C165.849 59.4071 167.768 64.8572 168.797 70.4923C171.39 84.6777 168.914 98.2867 163.106 111.286C157.425 123.971 149.259 134.784 138.348 143.345C137.084 144.335 135.733 145.314 134.276 145.88C133.408 146.217 132.229 145.738 131.178 145.63C131.553 144.618 131.65 143.312 132.346 142.649C136.73 138.493 141.671 134.86 145.658 130.345C158.497 115.779 165.871 98.8306 165.367 78.9883C165.228 73.5382 163.942 68.1099 162.602 62.7142C163.609 74.7784 162.473 86.5815 159.59 98.2105C155.432 114.985 145.561 127.898 132.432 138.461C124.373 144.944 116.495 151.624 106.785 155.703C82.2101 166.016 51.7618 157.182 36.2107 135.284C31.2271 128.268 25.0217 122.154 20.0916 115.105C0.928783 87.7237 2.27918 50.7262 23.1783 25.597C25.654 22.6163 28.6763 20.0598 31.6451 17.5578C32.6525 16.7093 34.2708 16.6114 35.6105 16.1762L36.768 17.5469L36.7573 17.536ZM116.12 25.956C114.041 25.0422 112.38 24.2372 110.665 23.5736C101.962 20.2339 92.8847 20.1577 83.7749 20.6255C57.4527 21.9853 35.289 43.764 31.6343 65.2597C27.208 91.2592 36.2429 112.701 56.6918 128.659C81.4492 147.979 114.234 144.596 135.315 121.218C145.443 109.992 150.416 96.5244 152.195 81.5883C154.307 63.7911 150.781 47.2777 139.827 33.2554C125.369 14.7294 105.392 11.8901 83.8177 15.2842C87.5796 15.8934 91.4807 15.7302 95.2211 16.4264C101.716 17.6448 108.146 19.2548 114.523 20.9954C116.892 21.6372 118.071 23.3995 116.12 25.956ZM51.0544 142.268C70.5709 160.174 99.8404 156.421 115.006 144.476C93.1527 151.341 71.9106 153.778 51.0544 142.268ZM25.2682 85.1999C22.8353 111.363 37.5182 130.998 58.7388 137.525C37.9255 124.602 28.2476 105.912 25.2682 85.1999ZM60.7859 17.2315C80.4739 7.04924 100.912 6.5162 122.829 12.7169C105.949 0.902925 77.4087 3.54638 60.7859 17.2315ZM26.0934 40.2937C21.8707 46.8208 19.1806 59.9402 20.7668 68.1316C22.6424 58.3193 24.3786 49.2467 26.0934 40.2937Z" fill="black"/>
<path d="M159.001 9.56213C160.158 10.0734 161.551 10.3236 162.441 11.1395C170.951 18.9285 177.928 27.7944 180.243 39.554C180.5 40.8485 179.385 42.4368 178.903 43.8836C178.046 42.8175 176.663 41.8602 176.395 40.6527C173.909 29.6002 168.721 20.4079 159.504 13.6959C158.658 13.0759 158.518 11.4441 158.047 10.2801C158.368 10.0408 158.679 9.80146 159.001 9.56213Z" fill="black"/>
<path d="M171.069 40.1414C170.393 39.3799 169.515 38.7272 169.064 37.8461C165.228 30.2529 160.073 23.7803 153.642 18.2758C152.924 17.6666 152.828 16.3068 152.452 15.2951C153.653 15.2407 155.185 14.675 155.978 15.2189C157.94 16.5679 159.837 18.2214 161.262 20.136C165.11 25.3141 168.775 30.6446 172.301 36.062C172.891 36.9649 172.387 38.6076 172.387 39.913L171.058 40.1305L171.069 40.1414Z" fill="black"/>
<path d="M8.8811 123.601C9.84567 124.428 11.1318 125.069 11.7212 126.114C15.2794 132.391 19.1484 138.287 25.7826 141.757C26.5542 142.159 26.6507 143.9 27.0579 145.02C26.0076 145.02 24.7966 145.379 23.9177 144.977C16.244 141.528 12.525 134.338 8.35595 127.626C7.80935 126.756 8.04514 125.385 7.92725 124.243C8.24877 124.025 8.55958 123.807 8.8811 123.601Z" fill="black"/>
<path d="M168.079 8.46341C169.236 9.20314 170.501 9.63828 171.197 10.5194C174.338 14.5445 177.392 18.6456 180.286 22.8556C180.768 23.5627 180.286 24.966 180.243 26.0538C179.214 25.5534 177.864 25.325 177.199 24.5091C173.78 20.4079 170.511 16.1762 167.264 11.9228C166.782 11.2918 166.557 10.3345 166.557 9.5295C166.557 9.19226 167.478 8.86591 168.089 8.46341H168.079Z" fill="black"/>
<path d="M14.6685 150.22C13.7468 150.481 12.7608 151.08 11.9034 150.927C8.656 150.362 0.617893 140.832 0.500001 137.547C0.478566 136.949 0.692915 136.089 1.10018 135.806C1.48601 135.545 2.5256 135.643 2.84713 135.991C6.70542 140.201 10.478 144.476 14.2612 148.752C14.422 148.926 14.4113 149.252 14.6685 150.22Z" fill="black"/>
<path d="M6.0194 130.389C7.59487 131.705 8.27007 132.108 8.73092 132.684C11.1531 135.719 13.5859 138.744 15.8795 141.877C16.3725 142.551 16.2867 143.661 16.4689 144.574C15.5472 144.574 14.2183 144.966 13.7681 144.498C10.9923 141.605 8.25935 138.635 5.88007 135.415C5.24774 134.566 5.91222 132.728 6.0194 130.389Z" fill="black"/>
<path d="M48.7715 45.2217C49.4359 44.0577 49.8754 42.6435 50.7971 41.7514C66.0159 26.9459 83.7855 20.7343 104.727 25.5099C106.26 25.858 107.835 26.5216 109.1 27.4463C109.915 28.0337 110.204 29.3718 110.718 30.3726C109.657 30.5031 108.554 30.9056 107.546 30.7207C102.455 29.8069 97.4074 28.0011 92.3059 27.8706C77.5908 27.5007 65.1156 33.4186 54.3231 43.3614C53.0049 44.5798 51.3222 45.3848 49.8111 46.3856C49.4574 46.0049 49.1037 45.6242 48.7607 45.2434L48.7715 45.2217Z" fill="black"/>
<path d="M55.9951 52.6407C55.6414 51.3027 54.8376 49.8776 55.2127 49.3772C59.0924 44.2752 63.7117 40.0109 69.7885 37.7699C70.4958 37.5088 71.6105 38.3574 72.5322 38.6946C72.2428 39.369 72.1463 40.2828 71.6426 40.6962C67.1841 44.2861 62.6506 47.789 58.1279 51.3027C57.7099 51.629 57.2383 51.8684 55.9951 52.6407Z" fill="black"/>
<path d="M124.512 31.5801C125.498 32.124 126.484 32.4068 127.063 33.0595C129.388 35.6595 131.66 38.3138 133.782 41.0987C134.158 41.5991 133.697 42.7522 133.622 43.6116C132.679 43.5137 131.392 43.7748 130.857 43.2526C128.188 40.6201 125.691 37.8243 123.226 34.9959C122.808 34.5173 122.529 33.4947 122.743 32.9508C122.979 32.3633 123.858 32.0587 124.523 31.5801H124.512Z" fill="black"/>
</g>
<defs>
<clipPath id="clip0_2478_4318">
<rect width="180" height="160" fill="white" transform="translate(0.5)"/>
</clipPath>
</defs>
</svg>
