<svg width="146" height="120" viewBox="0 0 146 120" fill="none" xmlns="http://www.w3.org/2000/svg">
<g clip-path="url(#clip0_2096_645)">
<path d="M143.866 26.1934C142.098 14.7639 136.699 6.36041 124.869 3.41149C120.063 2.20686 114.96 1.40699 109.57 1.01187C83.3682 -0.925163 55.857 -0.0771067 27.0462 3.55604C23.243 4.0379 19.8125 4.85704 16.7451 6.02312C7.82948 9.40571 4.02626 18.8596 2.33488 27.822C-0.0158489 40.2441 -0.101851 52.2036 2.07688 63.691C4.19827 74.9084 8.49839 82.4735 19.8316 84.9791C23.6826 85.8272 26.3869 86.309 27.954 86.4343C43.7594 87.6582 59.3927 88.1111 74.854 87.7931C76.2396 87.7642 77.2143 88.1979 77.7876 89.1038C83.7218 98.4709 89.8566 107.366 97.53 115.259C99.3933 117.176 101.477 118.699 103.779 119.807C105.251 120.52 106.876 119.171 106.455 117.581C105.891 115.394 105.308 113.264 104.439 111.153C101.333 103.685 98.734 96.1099 96.6604 88.4292C96.5839 88.1593 96.775 87.8895 97.0617 87.8702C104.037 87.5907 111.09 87.4462 117.951 86.3187C122.595 85.5477 126.236 84.5069 128.863 83.2059C141.611 76.884 145.147 66.4953 145.462 52.5602C145.672 43.1738 145.147 34.3848 143.876 26.1934H143.866ZM8.56528 46.3636C7.75303 43.964 9.06218 40.0032 9.85531 37.565C12.4927 29.4121 16.1908 22.1073 20.9592 15.6409C21.695 14.6482 22.6506 14.0797 23.8355 13.9255C24.4088 13.858 24.6286 14.5615 24.4948 16.0456C24.4662 16.3733 24.361 16.6816 24.1986 16.9515C20.9974 22.4349 17.8058 28.0437 15.2352 33.9608C13.9261 36.9772 12.1678 42.4125 9.95087 46.4793C9.63553 47.0671 8.78506 46.99 8.56528 46.3636ZM17.242 64.0283C16.7833 66.8326 16.2864 69.7912 15.7608 72.9039C15.6939 73.3183 15.455 73.4918 15.0441 73.4436C13.7732 73.2894 13.0852 72.4799 12.9801 71.0247C12.6456 66.6206 12.875 61.9756 13.6681 57.0896C16.3437 40.5814 23.5106 26.6945 32.3019 12.7594C33.1428 11.4198 34.3373 10.6489 35.8854 10.4369L37.443 10.2152C38.8381 10.0225 39.1535 10.5236 38.389 11.709C33.3531 19.6017 29.4925 26.5403 26.8073 32.5442C22.1728 42.9039 18.9907 53.3986 17.242 64.0283ZM25.6989 69.5984C25.3644 71.9981 24.9535 74.2917 24.447 76.4793C24.275 77.1828 23.5392 77.5779 22.8703 77.3177C21.8956 76.9515 21.3701 76.2865 21.2936 75.3325C21.093 72.6148 21.179 69.9839 21.5612 67.4398C23.4628 54.6129 27.2565 42.1619 32.9422 30.0867C35.7803 24.0732 38.3699 19.3993 40.7302 16.0745C42.2018 14.0026 44.1225 12.0077 46.4923 10.0899C47.037 9.65627 47.6199 9.45389 48.2219 9.49244C50.0184 9.61772 50.3815 10.4176 49.3208 11.8921C46.3108 16.036 43.2147 20.0931 40.7302 24.7767C38.0068 29.9133 35.1591 35.0305 33.1237 40.3791C29.5785 49.7173 27.1036 59.4507 25.6989 69.5984ZM33.8978 77.6261C33.7831 77.9441 33.5633 78.1176 33.2288 78.1657C30.257 78.532 30.3621 73.0292 30.5341 71.3042C31.7572 58.7086 34.7673 47.2117 39.5548 36.8134C43.8836 27.4269 49.3304 18.6572 55.9144 10.5043C56.7744 9.43462 57.8255 8.68293 59.0678 8.22999C59.2111 8.18181 59.3545 8.1529 59.4978 8.16253C60.5967 8.21072 60.8834 8.72148 60.3769 9.69482C58.6473 12.9907 56.6119 16.3829 54.2803 19.8715C49.8942 26.4536 46.7886 33.5657 43.788 40.7067C39.1439 51.7218 36.1051 63.1802 34.6718 75.0626C34.624 75.5156 34.366 76.3636 33.8978 77.6261ZM51.9009 77.7899C51.8722 78.4838 51.1078 78.8885 50.5344 78.503C49.3208 77.7032 48.6137 76.6142 48.413 75.2361C47.5435 69.1937 47.3046 62.4767 47.6964 55.1044C47.725 54.5551 47.2759 54.1021 46.7217 54.1311C46.5974 54.1407 46.4732 54.1696 46.349 54.2178C45.4412 54.6418 44.9061 55.2586 44.7436 56.0681C44.1989 58.6797 43.7307 61.0986 43.7307 63.8162C43.7211 67.5072 43.6734 71.6704 43.5874 76.3154C43.5682 77.443 43.0236 77.8574 41.9438 77.5779L40.6728 77.2406C40.0804 77.0864 39.6599 76.566 39.6217 75.9492C39.421 72.5666 39.6504 69.0395 40.3288 65.3774C41.638 58.3135 43.444 52.1747 45.7661 46.9708C49.0819 39.5117 52.3596 31.7539 56.3539 24.6418C60.0043 18.1368 63.3488 13.1931 68.8338 9.00095C69.4645 8.5191 70.0952 8.34564 70.7354 8.47092C72.1784 8.7793 72.4364 9.51171 71.5095 10.6682C67.1042 16.1516 63.3775 21.9724 60.31 28.14C55.6086 37.594 53.0572 47.4237 52.6558 57.6197C52.3978 64.2499 52.1494 70.9765 51.9009 77.7899ZM61.5523 77.1731C61.5618 77.7803 61.0745 78.2718 60.4725 78.2814C60.3291 78.291 60.1858 78.2814 60.0616 78.2525C58.9436 78.0694 58.3033 77.4141 58.16 76.2769C56.8126 65.7629 57.042 55.7115 58.8671 46.1131C60.4629 37.7192 64.4477 29.8169 68.8912 22.4639C72.0541 17.2406 75.9242 12.6341 80.5206 8.65402C81.4666 7.83487 82.0686 7.4494 82.3266 7.49758C84.2187 7.8156 84.5436 8.72148 83.3109 10.2056C74.854 20.3726 67.754 32.1587 64.4286 44.8313C61.6192 55.5284 61.4758 66.0906 61.5523 77.1731ZM72.5988 52.2133C71.1177 60.5782 70.4296 68.8564 70.5539 77.0382C70.573 78.185 70.0761 78.503 69.0536 77.9923C69.0441 77.9826 68.9676 77.9537 68.8243 77.8863C67.8114 77.3755 67.2285 76.5467 67.066 75.4192C65.432 63.479 66.3206 52.406 69.7321 42.1812C71.1559 37.912 73.5162 32.7658 76.8129 26.7427C80.5015 19.9968 88.1748 10.2345 95.485 9.60808C95.8195 9.57917 95.9628 9.73337 95.915 10.0707C95.7908 11.0055 95.4563 11.7475 94.9117 12.2968C88.127 19.1102 82.9573 24.6707 78.8674 32.9971C75.8765 39.0973 73.7837 45.5059 72.5988 52.2133ZM80.7499 74.8603C80.683 75.7276 80.3773 76.6238 79.8421 77.549C79.6606 77.8766 79.3739 78.0308 79.0012 78.0019C77.3672 77.8959 76.4211 76.884 76.1823 74.9663C74.5864 62.2358 76.6314 49.5824 82.3171 36.9868C86.9517 26.7427 93.5452 18.3874 102.098 11.9306C104.429 10.167 106.111 8.82749 108.701 9.92611C109.484 10.2634 109.656 11.3138 109.026 11.8921C107.038 13.7134 104.84 15.6023 102.442 17.5779C88.6717 28.8917 82.0017 45.7083 81.3997 63.2958C81.266 67.2856 81.0462 71.1404 80.7499 74.8603ZM91.7869 59.9325C91.4811 64.8185 91.2996 69.7141 91.2518 74.6193C91.2518 75.4481 91.118 76.0842 90.8982 76.5371C90.2771 77.7995 88.5475 77.9248 87.7543 76.778C86.4165 74.841 85.6903 72.5956 85.5852 70.0417C85.2316 61.6286 86.3305 53.4757 88.8628 45.5927C93.9179 29.8843 103.961 18.6765 118.973 11.9788C120.684 11.2175 123.531 10.7549 124.936 12.2583C125.672 13.0485 125.567 13.6942 124.621 14.2049C120.254 16.5467 116.001 19.1487 111.864 22.0109C107.793 24.8153 104.764 27.504 102.786 30.0578C96.0488 38.7697 92.4749 48.7247 91.7869 59.9325ZM99.5845 76.6816C99.1544 77.1153 98.7435 77.2406 98.3613 77.0382C98.0842 76.8937 97.8931 76.6624 97.7975 76.3636C97.6733 75.9203 97.5873 75.4577 97.5491 74.9855C96.6221 64.1824 96.6221 52.5506 100.97 42.6245C106.312 30.4337 115.686 22.2518 129.112 18.079C130.822 17.549 132.112 18.0597 133.001 19.6306C133.097 19.7944 133.297 20.151 133.613 20.7099C134.501 22.2711 134.062 23.1481 132.284 23.3312C123.292 24.2852 116.011 28.275 110.449 35.3003C101.238 46.9322 101.247 62.0141 99.9093 75.9878C99.8807 76.248 99.766 76.4985 99.5845 76.6816ZM136.049 54.4973C134.788 60.742 131.262 71.2271 125.462 73.6171C124.095 74.176 123.808 73.8291 124.582 72.5667C127.497 67.8349 129.657 62.6213 131.071 56.9451C131.358 55.7983 130.937 55.3742 129.8 55.6826L129.188 55.8464C128.013 56.1645 127.057 57.0029 126.57 58.1208C125.165 61.3588 123.493 64.6643 121.544 68.0469C121.133 68.76 120.932 68.7022 120.961 67.8831C121.047 64.4908 121.601 60.9637 122.624 57.292C124.334 51.1147 129.943 49.939 135.61 50.5365C135.935 50.575 136.116 50.7581 136.164 51.0761C136.317 52.2037 136.279 53.3505 136.049 54.4973ZM135.438 43.6267C132.562 44.2531 129.838 45.0819 127.277 46.1131C122.041 48.2236 119.432 53.2059 118.018 58.4773C117.416 60.7228 116.699 64.9245 115.887 71.0826C115.858 71.3235 115.734 71.5451 115.552 71.6897C115.18 71.9788 114.845 72.0655 114.53 71.9402C113.851 71.6608 113.507 71.1596 113.498 70.4369C113.287 59.9518 116.25 45.9589 125.605 40.0321C127.879 38.5962 132.437 37.2181 135.142 38.6155C135.467 38.7793 135.667 39.0395 135.744 39.3961L136.355 42.1908C136.499 42.8461 136.088 43.4918 135.438 43.6267ZM135.361 32.6791C129.37 33.1995 124.544 34.433 120.139 38.6926C110.593 47.8959 108.223 63.1031 108.519 76.036C108.538 76.6335 108.099 77.1346 107.506 77.202C106.77 77.2888 106.082 76.8455 105.461 75.8818C105.27 75.5927 105.155 75.2554 105.127 74.9084C104.066 61.7636 106.608 48.85 114.148 38.2685C118.581 32.0238 126.503 27.186 134.215 27.4173C135.017 27.4462 135.514 27.8509 135.705 28.6315L136.355 31.2817C136.565 32.1394 136.231 32.602 135.361 32.6791Z" fill="black"/>
</g>
<defs>
<clipPath id="clip0_2096_645">
<rect width="145" height="120" fill="white" transform="translate(0.5)"/>
</clipPath>
</defs>
</svg>
