<svg width="161" height="140" viewBox="0 0 161 140" fill="none" xmlns="http://www.w3.org/2000/svg">
<g clip-path="url(#clip0_2478_4290)">
<path d="M37.6462 26.8248C27.9589 31.39 20.7215 38.4878 15.844 47.7737C4.93719 68.5227 10.7632 96.9248 28.9976 111.887C43.19 123.539 59.7985 129.259 78.0329 131.214C95.7706 133.124 112.774 130.403 129.405 124.294C131.325 126.893 129.993 127.982 127.746 128.481C117.618 130.747 107.569 133.98 97.3061 134.968C76.52 136.968 56.7952 132.947 38.2446 122.872C6.54046 105.633 0.0596204 71.1996 12.4455 46.5519C21.4554 28.6131 37.2172 18.4164 56.6258 14.0067C66.8439 11.6852 77.5023 9.48587 87.8558 9.88574C107.163 10.63 126.244 14.3954 140.877 28.2355C158.389 44.7969 168.178 76.1314 153.014 99.013C144.241 112.253 131.528 120.017 116.162 123.627C92.1011 129.281 68.5488 127.948 46.1255 117.03C22.4603 105.511 10.1761 79.5636 16.0924 54.1828C18.4295 44.1415 24.5491 36.4995 32.7461 30.3459C34.3494 29.1352 36.0091 27.9911 37.6462 26.8137V26.8248ZM89.1542 113.075C97.7239 111.609 106.474 110.798 114.818 108.521C125.725 105.544 135.604 100.557 140.696 89.5271C144.264 81.7851 144.558 73.5988 143.62 65.457C141.882 50.4617 136.361 37.3215 122.767 28.6909C103.426 16.417 69.6891 15.2729 49.1853 31.5011C23.0926 52.1501 28.2411 85.5728 48.6885 100.868C60.6002 109.776 74.499 112.053 89.1542 113.075ZM122.608 109.499C122.112 109.643 121.604 109.765 121.118 109.943C101.879 117.141 82.3008 117.718 62.7115 111.942C43.4609 106.277 32.2154 93.0927 28.7831 73.7877C25.5201 55.4379 32.1816 40.5871 46.8481 29.1352C50.6757 26.1472 54.8758 23.6147 58.9179 20.8823C54.6274 22.4484 50.5063 24.3922 46.7014 26.8137C15.3472 46.7851 17.2779 81.5519 39.5769 102.756C54.6387 117.085 73.4038 121.239 93.8737 118.951C104.126 117.807 113.892 115.23 122.608 109.476V109.499ZM141.43 95.8251C158.614 78.6084 152.269 52.5389 139.353 40.9648C148.622 58.3259 150.485 76.4979 141.43 95.8251ZM150.44 95.8585C150.203 95.6585 149.966 95.4586 149.717 95.2586C145.89 99.5684 142.062 103.878 138.235 108.188C138.517 108.432 138.811 108.665 139.093 108.91C142.875 104.567 146.658 100.213 150.44 95.8696V95.8585ZM141.712 34.8223C141.927 34.5113 142.153 34.2114 142.367 33.9003C138.336 30.6569 134.294 27.4135 130.264 24.1701C130.049 24.4367 129.835 24.7033 129.62 24.9587C133.651 28.2466 137.682 31.5344 141.724 34.8223H141.712Z" fill="black"/>
<path d="M3.26621 80.2523C1.01937 80.7077 0.895175 78.1974 0.748396 76.3424C-0.53874 59.57 3.09685 43.9972 13.8117 30.6681C29.2912 11.3964 49.8515 1.51064 74.7361 0.211057C92.7786 -0.733088 110.189 1.37735 126.278 10.1857C139.341 17.339 150.53 26.3694 156.842 40.1539C157.418 41.4202 157.068 43.0974 157.147 44.5859C155.837 43.6639 153.929 43.0308 153.308 41.7867C140.707 16.517 117.889 7.38656 91.5818 4.26533C74.6458 2.25485 58.1501 4.40972 42.6706 12.0851C24.8653 20.9267 11.6552 33.9226 6.59696 53.2498C4.39528 61.6804 4.3727 70.6665 3.26621 80.2412V80.2523Z" fill="black"/>
<path d="M40.706 2.32149C39.9044 2.81022 39.1592 3.41003 38.3011 3.77658C25.4523 9.24151 14.7713 17.0724 8.39212 29.7683C7.97437 30.6014 6.37109 30.8458 5.32106 31.3678C5.16299 30.2126 4.48555 28.7798 4.93718 27.9467C12.0051 15.0063 22.9458 6.27579 36.4381 0.466519C37.5333 5.66244e-07 39.0914 0.566487 40.435 0.655348C40.5253 1.21073 40.6044 1.76611 40.6947 2.32149H40.706Z" fill="black"/>
<path d="M25.5088 123.25C30.0138 125.76 34.4623 128.404 39.0576 130.747C45.3352 133.957 51.9064 136.246 59.1437 136.323C60.0469 136.323 60.9389 137.712 61.8422 138.467C60.8938 139 59.9115 140.044 58.9969 140C46.374 139.256 35.4559 134.046 25.3169 127.026C24.5152 126.471 24.5491 124.771 24.1991 123.594C24.6394 123.483 25.0685 123.372 25.5088 123.261V123.25Z" fill="black"/>
<path d="M131.438 9.87463C132.962 9.04157 133.719 8.27514 134.385 8.34179C135.593 8.47508 136.857 8.91938 137.907 9.55251C146.093 14.4399 152.461 21.2155 157.971 28.7909C158.603 29.6572 158.152 31.3012 158.208 32.5785C156.989 31.9787 155.227 31.7121 154.629 30.7458C149.717 22.9149 143.033 16.9724 135.051 12.3183C134.057 11.7407 133.143 11.0298 131.438 9.88574V9.87463Z" fill="black"/>
<path d="M79.083 30.7125C71.9473 32.6674 65.5342 34.4224 58.7937 36.2774C61.3228 31.6233 73.3812 28.2022 79.083 30.7125Z" fill="black"/>
<path d="M57.0437 37.2548C52.8436 41.8978 49.366 45.741 45.7643 49.7064C44.7369 47.0517 49.1402 39.7207 53.2387 37.0771C53.9613 36.6106 55.3388 37.1438 57.0324 37.2548H57.0437Z" fill="black"/>
</g>
<defs>
<clipPath id="clip0_2478_4290">
<rect width="160" height="140" fill="white" transform="translate(0.5)"/>
</clipPath>
</defs>
</svg>
