<svg width="91" height="120" viewBox="0 0 91 120" fill="none" xmlns="http://www.w3.org/2000/svg">
<g clip-path="url(#clip0_2341_1183)">
<path d="M42.3855 63.2471C40.4523 57.1518 34.5561 53.2749 28.1659 54.4056C27.8545 54.4595 27.7256 54.341 27.7578 54.0287C28.1874 50.7226 29.1862 47.0611 30.765 43.0335C31.8282 40.3197 33.5466 39.1028 35.9416 39.372C36.2101 39.4043 36.4786 39.3504 36.7041 39.2212C40.3449 37.1105 36.0919 29.0444 31.1409 34.9136C26.7053 40.1797 25.5132 46.738 23.827 53.2103C23.6659 53.8133 23.4404 53.8456 23.1504 53.2857C22.549 52.1334 21.5179 51.2934 20.0358 50.7549C16.3521 49.4196 12.7972 49.6565 9.39264 51.4657C2.63727 55.0626 -0.230271 63.2471 0.661137 70.6454C1.57402 78.2699 6.44992 87.9514 14.5478 89.8575C21.3676 91.4729 27.6504 91.7959 33.7292 87.5098C41.3759 82.1253 45.2638 72.3254 42.3747 63.2686L42.3855 63.2471ZM18.8759 63.1286C18.6611 63.9578 18.3926 63.9794 18.049 63.1932C17.3509 61.5563 16.2661 60.124 14.784 58.8964C14.5693 58.724 14.3867 58.7456 14.2363 58.9717L14.1289 59.1548C13.9893 59.3594 14 59.6179 14.1504 59.8117L16.0084 62.1271C16.1695 62.3317 16.3735 62.4825 16.5991 62.6009C16.932 62.7517 17.1361 63.0101 17.2113 63.3548C17.2864 63.6886 17.1898 63.9471 16.8998 64.1409C16.6743 64.2917 16.4809 64.4855 16.3198 64.7009C16.1588 64.927 16.0943 65.207 16.1588 65.4763C16.395 66.4563 16.0191 67.0486 15.0525 67.2532C14.7411 67.3178 14.4833 67.4901 14.3008 67.7485C12.9583 69.6762 15.611 70.7101 14.1182 72.5946C13.9249 72.8316 13.7101 72.8423 13.4953 72.6377L10.5633 69.7839C10.3592 69.6008 10.1767 69.6116 9.99407 69.8162C9.62892 70.2577 9.46782 70.7424 9.53226 71.2808C9.84371 73.6823 10.7029 76.2346 12.1206 78.9484C13.1194 80.8653 14.2148 82.7176 15.3962 84.516C15.4714 84.6237 15.4499 84.7099 15.3533 84.7853C15.2459 84.8714 15.1599 84.8499 15.0848 84.7529C13.012 81.9637 11.2829 78.9915 9.90815 75.8146C9.05971 73.8654 8.54419 71.8839 8.37235 69.8808C8.15756 67.4793 8.26496 65.4224 8.66233 63.6886C9.19932 61.3732 10.7029 59.4671 13.1409 57.981C13.3879 57.8302 13.4093 57.6579 13.1945 57.4748C13.0872 57.3887 12.969 57.3241 12.8187 57.2918C12.4857 57.2056 12.4642 57.0656 12.7435 56.861C12.9475 56.721 13.1516 56.6025 13.3556 56.5164C13.549 56.441 13.7638 56.4302 13.9786 56.4948C16.191 57.1302 17.3294 59.2517 18.4463 61.0825C18.9082 61.8363 19.0478 62.5363 18.8867 63.1609L18.8759 63.1286ZM22.2697 61.5025C21.3354 61.1686 20.605 60.5979 20.0895 59.7902C19.0263 58.1317 18.8008 56.6133 17.1039 55.1164C15.3962 53.6087 13.6456 53.5549 11.8306 54.9333C10.6814 55.8164 9.45708 57.2056 8.13608 59.1225C6.98691 60.7809 6.24586 62.4502 5.90219 64.1301C4.36639 71.6039 8.68381 79.7561 13.5167 84.9791C14.1397 85.6468 14.0323 85.8083 13.1945 85.4206C9.96185 83.9668 6.83656 77.7423 5.69813 74.5115C3.2924 67.6732 4.42009 61.5779 9.09192 56.2364C10.37 54.7718 12.9368 53.0918 14.9129 53.1133C20.9165 53.1672 19.037 61.2009 23.7089 61.3732C25.2017 61.4271 26.7805 61.5455 28.4666 61.7502C28.6492 61.7717 28.7673 61.9225 28.7459 62.0948L28.7244 62.3209C28.7244 62.3963 28.6707 62.4286 28.5848 62.4394C26.4046 62.5471 24.3103 62.2348 22.2912 61.4917L22.2697 61.5025ZM29.1755 81.9422C29.8521 81.5868 30.4428 81.3822 30.4857 81.4684C30.5287 81.5545 30.0132 81.9099 29.3366 82.2545C28.6599 82.6099 28.0693 82.8145 28.0263 82.7284C27.9833 82.6422 28.4988 82.2868 29.1755 81.9422ZM39.4213 71.6577C38.7017 77.053 36.0382 81.3714 31.4093 84.6345C29.5728 85.916 27.6182 86.616 25.5454 86.7129C25.438 86.7129 25.3843 86.6591 25.3843 86.5621V86.3145C25.3843 86.1314 25.4702 86.0129 25.6635 85.9699C32.3222 84.7853 37.284 77.613 38.1755 71.507C38.7447 67.5332 37.7459 64.0332 35.1683 61.0179C33.8688 59.4994 31.5275 59.5425 29.7661 59.844C29.4332 59.8979 29.1432 59.8225 28.8855 59.6286C28.6062 59.4133 28.6277 59.2302 28.9714 59.1117C31.9571 58.0564 34.2554 58.4225 35.8556 60.2425C38.7984 63.5809 39.9905 67.3932 39.4213 71.6577Z" fill="black"/>
<path d="M82.9606 33.8043C79.2124 27.6659 74.025 25.6844 67.3986 27.8813C66.4857 28.1828 66.0239 27.849 66.0346 26.8905C66.0668 19.6429 65.6694 12.5999 64.8639 5.78309C64.5632 3.37081 64.0799 1.8416 63.3711 1.20623C61.6635 -0.36606 60.0095 -0.387599 58.42 1.12007C58.216 1.30315 58.0978 1.5293 58.0549 1.78776C57.4105 5.24464 55.8854 8.22767 53.4797 10.7584C51.9332 12.3953 49.3986 11.7492 48.2494 13.6876C47.5943 14.7861 47.6372 15.9814 48.3675 17.2845C48.5071 17.5214 48.7005 17.6722 48.969 17.726C50.6981 18.0706 52.4594 18.0706 54.2208 17.726C54.4892 17.6722 54.6718 17.5106 54.7577 17.2629C55.284 15.766 55.6921 14.3661 56.5513 12.9984C57.883 10.8553 59.1396 8.71228 60.3102 6.56923C60.4821 6.23539 60.611 6.25693 60.6754 6.63385C61.8246 13.3968 62.3938 20.4398 62.3616 27.7736C62.3616 28.4628 62.0286 28.7428 61.352 28.6243C57.6253 27.989 54.21 28.4951 51.0955 30.1535C48.6038 31.4889 46.531 33.5027 44.8663 36.2058C38.5943 46.4364 42.074 61.3085 53.7804 65.7562C60.6861 68.3731 68.4833 69.2884 75.0024 65.7346C81.4248 62.2562 86.5585 54.4702 86.7518 47.4379C86.8914 42.6995 85.6348 38.155 82.9713 33.7935L82.9606 33.8043ZM53.5764 56.3547C53.469 56.4517 53.1468 56.2686 52.8461 55.9563C52.5561 55.6332 52.395 55.2994 52.4916 55.2025C52.599 55.1055 52.9212 55.2886 53.2219 55.6009C53.5119 55.924 53.673 56.2578 53.5764 56.3547ZM58.1408 41.8811C57.9045 42.0319 57.7005 41.9888 57.5394 41.7519C57.2816 41.3642 56.9809 41.0303 56.6372 40.7719C56.3902 40.5888 56.2721 40.6426 56.2613 40.9442C56.2613 41.698 56.6694 42.6672 57.4964 43.8303C57.7434 44.1964 57.6897 44.4872 57.3138 44.7241C57.2279 44.7672 57.099 44.8318 56.9165 44.9072C56.6802 45.0149 56.6265 45.1764 56.7768 45.3918C57.2816 46.1349 57.5394 46.9318 57.5394 47.7933C57.5394 48.1379 57.3568 48.3318 57.0131 48.3641C55.4773 48.4718 54.6396 49.3764 54.5215 51.0779C54.5215 51.1964 54.457 51.3148 54.3711 51.401C54.0919 51.681 53.8771 51.7133 53.7589 51.5087C53.6086 51.2717 53.5119 51.2933 53.4475 51.5517C53.3723 51.8317 53.426 52.1548 53.5978 52.5317C53.8019 53.0163 53.7912 53.4471 53.5441 53.8132C53.383 54.0502 53.2112 54.0717 53.0071 53.8563C50.1503 50.8087 49.1945 47.1903 50.1396 43.0334C50.4403 41.7196 51.5573 39.8457 53.5119 37.4227C54.4248 36.2919 55.2733 36.0227 56.562 36.6796C57.9582 37.3796 58.2267 39.3827 58.463 40.8365C58.5489 41.3426 58.4415 41.6872 58.1408 41.8703V41.8811ZM61.5346 37.1858C59.7088 35.7212 58.0549 34.7412 56.5943 34.2458C52.7064 32.8997 50.7196 35.4842 48.8079 38.6504C45.704 43.7657 45.6289 49.2148 48.5931 54.9871C48.9904 55.7624 50.1826 57.4532 52.1587 60.0701C52.2446 60.1778 52.2446 60.2962 52.1802 60.4039C52.062 60.587 51.9117 60.5978 51.7506 60.4578C46.9284 56.2794 44.9415 51.0133 45.7685 44.6811C46.2947 40.6319 48.0776 37.2935 51.0847 34.655C54.4678 31.7043 57.883 30.8966 60.6754 35.1827C61.0835 35.8073 61.4272 36.4212 61.7279 37.035C61.8783 37.3581 61.8246 37.4119 61.5453 37.1858H61.5346ZM65.1002 36.9381C64.7995 37.0135 64.7566 36.9381 64.9821 36.7119C65.3258 36.3673 65.6802 36.2704 65.9702 35.8181C67.2804 33.815 68.3437 30.7566 71.179 30.6705C71.4582 30.6705 71.5012 30.7566 71.3079 30.9612C69.5787 32.7489 67.9033 34.5581 66.2816 36.3673C66.0668 36.615 65.6694 36.7981 65.1002 36.9381ZM72.3281 58.7993C73.5095 58.1532 74.5083 57.7117 74.5728 57.8193C74.6265 57.927 73.7136 58.5301 72.5429 59.1763C71.3616 59.8224 70.3628 60.2639 70.2983 60.1562C70.2446 60.0485 71.1575 59.4455 72.3281 58.7993ZM82.6814 49.581C81.79 55.1809 77.6444 60.0378 72.7363 62.8054C71.7052 63.3977 70.6313 63.7423 69.5036 63.8608C69.3425 63.8823 69.2458 63.807 69.2136 63.6454L69.1599 63.4085C69.1277 63.2254 69.2351 63.0424 69.4069 62.9777C71.7697 62.0947 73.5847 60.9531 74.8305 59.5532C77.3544 56.7209 80.3723 52.8548 81.3174 49.2795C81.6074 48.1918 81.6933 47.0718 81.5644 45.9303C81.21 42.6565 79.8031 38.5534 78.1814 35.9365C76.6885 33.535 75.0561 32.7812 72.8759 31.3058C71.7589 30.5412 71.8556 30.3151 73.1766 30.5951C79.9857 32.0597 83.6157 43.6795 82.6706 49.6025L82.6814 49.581Z" fill="black"/>
<path d="M88.9857 92.7217C87.4714 89.0063 83.4654 87.111 79.8246 86.5941C79.2339 86.5187 79.148 86.2602 79.5776 85.8402C82.4988 82.9433 84.4105 80.2511 85.7315 76.0834C86.5048 73.6712 87.2995 71.2481 88.0943 68.8466C89.383 64.9374 85.8067 63.979 82.9606 64.9051C82.2947 65.1205 82.0262 65.5728 82.1659 66.262C83.5298 72.7989 81.5859 78.6788 76.3126 83.9018C75.7327 84.4941 74.7446 84.3541 74.3258 83.6433C71.6086 79.0019 66.636 77.2357 61.6205 78.8619C51.0955 82.2541 46.4236 92.1078 48.1635 102.791C49.42 110.491 57.6253 116.015 64.1766 118.998C70.1265 121.691 78.4499 118.514 83.068 114.723C89.92 109.091 92.3365 101.035 88.9642 92.7324L88.9857 92.7217ZM59.8484 96.3293C59.5262 96.3078 59.247 96.1032 59.1289 95.8016C57.5394 91.5694 60.1277 87.8217 63.8652 86.0771C64.6277 85.7218 65.5191 86.0772 65.8198 86.8633L67.216 90.4925C67.3234 90.7725 67.2804 91.074 67.0978 91.3217C65.358 93.6801 63.0704 96.5232 59.8377 96.3293H59.8484ZM72.2422 91.7525C69.7506 90.6432 68.4296 88.0694 67.3126 85.7325C67.1838 85.4633 67.2482 85.4202 67.4845 85.5818C67.9893 85.9264 68.3974 86.0771 68.7196 86.0125C69.5895 85.8402 69.6325 85.5387 68.8592 85.1187C67.8389 84.5587 66.7327 83.9449 65.562 83.2879C63.8329 82.3295 60.074 84.3002 58.7959 85.3018C56.2721 87.3048 54.4141 89.7494 53.2542 92.6463C52.3413 94.9078 52.3305 97.3524 51.7721 99.6677C51.7613 99.7108 51.7076 99.7431 51.6647 99.7431C51.6217 99.7431 51.5788 99.7 51.5788 99.6462C51.4177 92.5278 54.1134 87.1971 59.7088 83.6649C62.9952 81.5757 66.6682 81.1449 69.568 84.0849C70.0728 84.6018 70.148 85.1618 69.7935 85.7756C69.6539 86.0018 69.6217 86.2387 69.6754 86.4971C70.2231 89.0386 72.0919 91.9786 75.0776 91.4509C78.6969 90.8048 82.7136 89.4694 84.9582 93.594C85.2589 94.1432 85.173 94.197 84.7112 93.7878C82.1873 91.5155 79.5668 92.3125 76.6026 92.5925C75.2387 92.7109 73.778 92.4417 72.2422 91.7525ZM82.7566 110.049C79.0728 114.217 74.2828 116.36 68.3759 116.478C68.1611 116.478 68.0537 116.381 68.0644 116.144L68.0859 115.832C68.0859 115.703 68.1718 115.628 68.3007 115.628C71.5656 115.488 74.4546 114.82 76.9463 113.635C78.7291 112.795 80.7589 110.868 83.0358 107.841C85.0764 105.149 85.8496 101.843 85.3663 97.9231C85.2697 97.1478 84.6468 96.5447 83.8735 96.4909C82.7566 96.4047 81.8651 96.297 81.2315 96.157C79.4272 95.7693 79.4379 95.457 81.2637 95.1878C82.1229 95.0693 83.1969 95.274 84.4857 95.8232C84.7434 95.9416 84.9797 95.8986 85.1838 95.7047C85.2697 95.6293 85.3341 95.5432 85.3771 95.4355C85.506 95.1555 85.6026 95.1663 85.6778 95.457C87.2351 101.197 86.2578 106.065 82.7458 110.049H82.7566Z" fill="black"/>
</g>
<defs>
<clipPath id="clip0_2341_1183">
<rect width="90" height="120" fill="white" transform="translate(0.5)"/>
</clipPath>
</defs>
</svg>
