<svg width="145" height="141" viewBox="0 0 145 141" fill="none" xmlns="http://www.w3.org/2000/svg">
<g clip-path="url(#clip0_2478_4232)">
<path d="M16.1088 32.7031C10.8477 45.7534 9.35655 59.1379 11.3518 73.8704C12.2444 64.8115 12.4124 56.693 13.9351 48.8252C20.3513 15.7347 52.8208 -5.34 85.8575 2.00532C95.9806 4.25176 104.182 10.2806 111.837 16.9154C117.665 21.962 123.462 27.1236 128.723 32.7449C144.948 50.0686 148.381 70.4224 141.934 92.7196C134.719 117.66 110.913 136.98 84.9019 139.968C60.3397 142.789 40.1669 135.318 24.9508 115.811C16.9804 105.592 14.2081 93.0643 10.6167 80.944C5.80716 64.7488 7.03579 49.0029 13.9246 33.6435C14.1451 33.142 14.5966 32.7345 14.9432 32.2956L16.1193 32.7136L16.1088 32.7031ZM24.3942 61.3217L23.4386 61.1859C23.2496 68.061 21.7899 75.1765 23.1026 81.7486C27.4185 103.293 40.608 117.357 62.3349 122.164C80.5124 126.186 96.9572 122.101 110.199 108.413C119.283 99.02 124.575 87.7043 126.087 74.7272C127.894 59.1379 124.691 44.5413 114.578 32.4628C101.494 16.8318 83.6732 14.9093 65.0232 18.8484C48.1058 22.4218 37.3421 34.3122 28.7312 48.3446C27.7126 50.0059 27.5026 52.2733 27.303 54.3003C26.9565 57.8528 27.051 61.4575 26.7045 65.01C25.3603 78.6663 28.3636 91.2568 37.9722 101.193C60.2977 124.305 99.404 119.802 116.384 92.5733C117.655 90.5358 118.894 88.4774 120.375 86.0638C121.372 91.7792 113.602 103.44 104.077 109.866C87.0231 121.38 68.5936 122.467 50.3111 113.815C28.1431 103.314 22.7455 83.8069 24.3942 61.3112V61.3217ZM18.7446 86.8893C13.8615 64.613 18.5031 44.2383 32.9317 27.0191C47.6018 9.51782 67.2389 3.11287 90.0895 7.12511C70.7673 -0.272461 44.1574 6.74896 30.8314 21.6277C12.6854 41.9083 11.6353 72.0732 18.7551 86.8893H18.7446ZM123.431 109.521C110.22 125.256 93.2188 133.72 72.857 133.218C52.4638 132.717 36.4075 122.477 23.8376 106.627C32.7006 126.176 54.501 138.244 78.5172 136.98C98.3644 135.924 114.295 128.213 123.42 109.521H123.431ZM36.2815 112.687C51.8967 130.178 75.8814 135.088 100.864 123.407C118.317 115.247 131.926 93.4718 129.542 84.0159C121.099 102.207 111.134 118.527 90.7405 124.358C70.6413 130.104 52.5058 125.768 36.271 112.687H36.2815ZM127.379 113.69C143.572 96.9617 148.581 59.4723 130.477 39.4111C136.022 51.2702 137.555 63.8084 136.977 76.6915C136.4 89.679 132.882 101.935 127.369 113.69H127.379ZM100.801 16.8631C76.3854 0.605216 41.8576 14.5645 31.577 35.1272C52.2118 14.2197 75.4403 9.90442 100.801 16.8631ZM119.388 28.2625C118.978 28.4715 118.569 28.6804 118.159 28.879C121.551 34.7824 124.932 40.6754 128.324 46.5788C128.65 46.3907 128.975 46.2131 129.311 46.025C126.003 40.1007 122.696 34.1868 119.388 28.2625Z" fill="black"/>
<path d="M11.8138 107.098C5.80715 103.065 -1.60667 78.3746 0.304542 69.4307C1.6907 82.7317 5.49211 95.3013 11.8138 107.098Z" fill="black"/>
<path d="M115.985 57.0176C118.905 62.7434 119.829 68.814 119.262 75.198C116.846 102.866 87.7582 114.882 68.7826 112.489C67.9425 112.384 67.1969 111.569 66.4093 111.089C67.3019 110.671 68.205 109.866 69.0871 109.877C83.5052 110.18 96.3166 106.126 106.471 95.6563C114.641 87.2243 118.001 76.9534 116.668 65.2301C116.353 62.5031 116.206 59.7551 115.985 57.0176Z" fill="black"/>
<path d="M115.576 37.2277C114.484 36.5694 113.339 35.9948 112.31 35.2529C100.202 26.5388 86.6451 22.4326 71.7754 23.1222C54.438 23.9163 41.9102 32.2229 34.3598 47.8434C33.4042 49.8286 32.4066 51.793 31.4195 53.7677C31.1255 54.3529 30.7999 54.9171 30.2644 55.2619C30.0963 43.2565 44.8085 27.7195 60.4447 22.746C79.3888 16.7277 106.503 23.561 115.586 37.2277H115.576Z" fill="black"/>
<path d="M71.2504 27.9493C52.0753 33.487 36.6281 42.0444 33.8137 64.1953C33.6562 63.2863 33.2992 62.3564 33.3727 61.4578C34.1813 51.3332 39.5369 43.5176 46.0266 36.1305C51.7392 29.6315 58.985 26.6015 67.2599 25.3581C69.3707 25.0446 71.4919 24.8043 71.2504 27.9493ZM70.4418 26.9149C62.8915 26.7164 56.4542 29.7778 50.3531 33.8005C57.0528 31.5018 63.7421 29.2136 70.4418 26.9149Z" fill="black"/>
</g>
<defs>
<clipPath id="clip0_2478_4232">
<rect width="145" height="140" fill="white" transform="translate(0 0.542969)"/>
</clipPath>
</defs>
</svg>
