<svg width="200" height="120" viewBox="0 0 200 120" fill="none" xmlns="http://www.w3.org/2000/svg">
<g clip-path="url(#clip0_2080_495)">
<path d="M199.124 116.244C197.993 115.287 196.81 114.365 195.579 113.485C192.215 111.066 189.399 108.058 187.132 104.447C183.099 98.0363 179.922 90.5995 177.835 83.0519C177.708 82.6014 177.808 82.1162 178.102 81.7558C186.603 71.1586 185.078 55.9871 174.778 47.3305C173.227 46.0275 171.367 45.1612 169.528 44.3988C169.22 44.274 169.08 43.9067 169.22 43.6017C170.317 41.169 170.926 38.6531 171.046 36.061C171.862 18.9558 160.505 6.87538 144.467 4.74762C136.006 3.6179 128.81 5.16347 122.877 9.37047C122.623 9.55067 122.362 9.5576 122.101 9.39819C115.473 5.41298 107.929 4.04068 99.4681 5.29515C94.9268 5.96744 90.6931 7.72093 86.7537 10.5418C86.6734 10.5972 86.5664 10.5764 86.5129 10.4863C85.5163 8.76749 84.2656 7.28429 82.7607 6.02982C77.9586 2.0446 72.4608 0.0346681 66.2741 1.41044e-05C57.2382 -0.0485016 49.6336 3.4169 43.4604 10.3824C41.9421 12.1012 40.8586 14.1943 40.163 16.4122C39.9958 16.9528 39.6413 17.1815 39.0996 17.0914C24.1312 14.6309 10.4336 22.3727 3.60482 36.3729C-1.31777 46.4711 -1.33783 58.9119 4.38735 68.6843C7.29675 73.6468 11.1158 77.6805 15.8444 80.7924C16.0384 80.9172 16.132 81.0974 16.1253 81.333C16.1186 82.3034 16.0852 83.2252 16.0317 84.1054C15.5167 92.6788 22.0311 100.379 29.9834 102.659C34.5582 103.969 39.7818 103.927 44.1359 101.876C44.6709 101.62 45.2261 101.405 45.8079 101.224C46.022 101.162 46.2159 101.204 46.3831 101.349C49.7607 104.336 52.8842 105.806 57.78 106.679C60.2346 107.116 62.9902 107.102 66.0467 106.651C71.6181 105.833 76.7012 103.692 81.3094 100.22C81.5903 100.005 81.9648 99.9908 82.2591 100.178C87.3757 103.47 93.7028 105.445 99.6888 104.69C102.331 104.357 104.919 103.609 107.454 102.451C107.882 102.257 108.39 102.389 108.685 102.77C114.53 110.491 122.242 114.795 131.826 115.675C134.321 115.911 137.304 115.654 139.832 115.315C147.142 114.31 153.329 111.122 158.385 105.743C158.646 105.466 159.074 105.48 159.322 105.771C169.187 117.415 183.854 121.109 198.488 119.723C200.348 119.543 200.408 117.318 199.124 116.244ZM134.167 57.2831C133.558 55.0376 132.568 52.9652 131.197 51.0593C130.983 50.7612 131.003 50.3523 131.237 50.0751C135.592 45.0295 139.638 41.9799 146.634 42.8324C147.002 42.8809 147.33 42.6106 147.37 42.2294C147.55 40.5244 143.952 40.5314 142.982 40.6076C137.712 41.0373 132.869 43.8512 129.612 48.2176C129.378 48.5295 128.923 48.5434 128.676 48.2384L125.9 44.8562C125.519 44.3849 125.539 43.9344 125.974 43.5047C132.796 36.7679 142.929 35.4372 151.108 39.9838C155.837 42.6175 160.365 46.4641 161.843 52.0781C161.93 52.4039 161.836 52.4732 161.562 52.293C156.339 48.8622 148.139 47.4067 142.367 50.6573C139.959 52.0157 137.257 54.4277 136.481 57.2901C136.401 57.5742 136.568 57.8723 136.842 57.9416C137.17 58.0317 137.491 57.9069 137.812 57.5742C141.685 53.5474 146.781 50.8375 152.379 51.9534C159.796 53.4296 165.756 58.6554 165.04 67.0556C164.385 74.728 157.951 79.3786 150.727 79.3647C142.394 79.3439 137.009 75.2824 134.575 67.1803C133.919 64.9971 133.712 63.2506 133.96 61.9406C134.254 60.3466 134.595 58.8772 134.167 57.2831ZM84.0449 46.1037C85.5966 46.2493 85.824 43.4978 85.6233 42.4789C85.202 40.3581 83.9446 38.8957 81.8645 38.0987C78.4134 36.768 74.4004 38.9858 73.2233 42.4235C72.3872 44.8701 72.2534 47.2473 72.8286 49.5414C72.9423 49.9919 72.7751 50.2137 72.327 50.2068L67.0834 50.0612C66.6821 50.0474 66.3343 49.784 66.2005 49.3959C63.9733 42.6869 67.0165 36.158 72.5745 32.6025C76.6744 29.9827 80.995 30.5995 85.0749 32.7827C88.312 34.5154 90.6128 38.6393 91.81 42.0839C91.9839 42.6037 91.8368 43.1789 91.4355 43.5324C88.4726 46.1384 85.931 49.2226 83.8041 52.792C83.6837 52.986 83.5232 53.0415 83.3159 52.9583C81.2893 52.1197 79.3363 51.2118 77.4436 50.2206C73.1631 47.9889 75.6712 38.8957 80.6874 40.1017C83.4296 40.767 83.7105 43.0403 83.6169 45.6047C83.6035 45.8612 83.7974 46.083 84.0449 46.1037ZM85.2154 61.9476C85.5297 56.701 88.5929 50.7959 92.7062 47.5315C98.7591 42.7423 106.123 42.5344 113.413 43.8027C116.784 44.3918 120.63 46.0968 123.265 48.4533C125.098 50.089 127.325 53.8663 128.047 56.3891C130.341 64.3664 126.268 72.8775 119.76 77.1815C113.192 81.534 106.31 82.4073 98.7725 80.2518C90.887 77.9993 84.6937 70.7081 85.2154 61.9476ZM126.977 13.522C134.582 9.23878 145.156 9.57146 152.627 13.7993C161.729 18.9488 167.368 31.0847 163.201 41.668C163.114 41.8829 162.993 41.9106 162.826 41.7512C159.656 38.7571 157.255 36.1788 153.095 34.1273C146.968 31.1055 141.002 30.655 135.197 32.7827C134.909 32.8867 134.735 32.7827 134.689 32.4708L133.659 25.8866C133.612 25.5955 133.732 25.4361 134.013 25.4084C137.745 24.9717 140.594 26.143 144.005 27.3143C144.393 27.446 144.801 27.2034 144.888 26.7945C144.989 26.3024 144.841 25.8797 144.433 25.5331C141.718 23.2459 138.327 22.3796 134.267 22.9341C133.833 22.9895 133.431 23.1489 133.05 23.4123C132.849 23.5509 132.696 23.5093 132.595 23.2875C131.077 20.0231 129.171 16.9181 126.89 13.9725C126.75 13.7854 126.776 13.6398 126.977 13.522ZM127.84 24.6182C129.258 26.9886 131.946 33.8016 129.271 36.1165C126.903 38.161 124.603 40.268 122.376 42.4304C122.188 42.6037 121.981 42.6383 121.753 42.5275C119.62 41.4532 117.486 40.3858 115.353 39.3323C114.062 38.6878 113.186 37.669 112.738 36.2759C110.644 29.8094 120.596 26.9123 121.178 32.0273C121.372 33.7253 120.764 34.3491 120.349 35.6937C120.175 36.2481 120.73 36.7402 121.232 36.4838C125.546 34.2382 124.021 28.1945 119.774 27.148C117.018 26.4688 113.881 27.2935 111.868 29.4559C109.561 31.9372 109.173 34.8273 110.704 38.1195C111.079 38.9304 110.832 39.3116 109.962 39.263L105.441 38.9858C104.638 38.9373 103.943 38.369 103.708 37.5719C102.779 34.46 103.153 31.556 104.845 28.8738C109.166 22.0053 116.597 20.5776 124.074 21.1043C125.733 21.2152 127.037 23.2806 127.84 24.6182ZM83.2089 23.0242C83.8443 23.2252 84.4997 22.7885 84.5933 22.1093C84.8007 20.5637 85.3759 19.3092 86.3256 18.3528C95.9233 8.67739 110.664 8.28926 121.158 16.3359C122.289 17.2023 123.158 18.1241 123.78 19.1083C124.161 19.7112 124.034 19.8637 123.399 19.5795C122.569 19.1984 121.667 19.0597 120.69 19.1498C112.022 19.9815 105.227 22.837 101.535 31.1679C100.471 33.5728 100.304 36.3036 101.047 39.3601C101.08 39.4918 101.033 39.5819 100.899 39.6165L96.0571 40.9542C95.9166 40.9957 95.8096 40.9472 95.7494 40.8086L92.4454 33.358C92.2581 32.9352 92.218 32.4501 92.3317 31.9996C94.4251 23.5925 100.618 17.7775 109.32 18.0063C109.494 18.0132 109.674 17.9785 109.835 17.9023C111.079 17.3409 111.039 16.6825 109.708 15.9201C109.567 15.8369 109.407 15.7884 109.246 15.7815C98.9531 15.0884 93.4152 21.4717 89.3287 30.5579C89.2016 30.856 89.0076 30.9114 88.7468 30.7243C76.9352 22.2271 63.8596 30.0035 62.5487 44.0869C62.3548 46.1523 62.7561 48.2731 62.9233 50.3385C62.9367 50.5117 62.823 50.6642 62.6557 50.6919C60.9034 50.99 59.5591 51.3781 58.6227 51.8563C58.402 51.9672 58.2883 51.8979 58.2749 51.6484C58.1077 48.7929 57.5258 45.9235 56.5226 43.0473C54.4827 37.2115 60.355 28.846 64.4482 25.7133C70.1734 21.333 76.6209 20.9449 83.2089 23.0242ZM6.96903 44.3849C9.22967 33.753 15.8511 27.2658 25.4086 23.7935C33.5082 20.8548 42.3969 22.4697 49.0986 28.0698C50.162 28.9639 51.2255 29.7886 52.2822 30.5579C52.7437 30.8906 53.0781 30.7867 53.2988 30.253C53.9342 28.6658 51.5532 26.0252 50.6101 24.9163C50.3025 24.5628 50.2757 24.0361 50.5366 23.6479C54.088 18.3597 58.8969 14.9151 64.9632 13.3072C66.963 12.7735 69.6517 12.926 73.0159 13.7785C73.5309 13.9101 73.7516 13.7022 73.6914 13.1547C73.658 12.8428 73.5643 12.5656 73.4172 12.323C73.056 11.72 72.5477 11.318 71.8923 11.1309C69.4778 10.4239 67.2707 10.2715 65.2642 10.6804C58.0408 12.1497 52.5297 15.8924 48.7374 21.9014C48.2492 22.6707 47.6272 22.8232 46.8647 22.3449L45.4267 21.4439C44.4703 20.8479 44.2964 20.0647 44.8916 19.0875C50.5433 9.86948 58.4421 5.57931 68.5749 6.21695C72.8621 6.48725 78.1391 9.72394 80.9817 13.8478C81.8311 15.0815 81.6973 16.6547 80.5871 18.5676C80.4667 18.7825 80.2861 18.8934 80.0453 18.9073C78.8949 18.9835 77.7044 18.935 76.4804 18.7756C67.8726 17.6528 60.0473 23.4331 56.0343 31.0708C54.8037 33.4134 53.7336 35.8323 52.8173 38.3343C52.737 38.5492 52.6233 38.57 52.4829 38.3967C48.2224 33.3441 42.7848 31.0431 36.1634 31.4797C30.9532 31.8194 26.0842 35.8323 23.5426 40.3789C19.7169 47.2196 19.3892 56.1396 23.6898 62.7931C27.1944 68.22 33.662 71.0754 39.8687 71.72C40.0961 71.7408 40.1898 71.8725 40.1496 72.1081L38.5378 81.0212C38.4909 81.2637 38.3505 81.4024 38.1164 81.4301C34.6184 81.8251 31.388 81.4647 28.4184 80.3489C15.0819 75.3379 3.72521 59.6535 6.96903 44.3849ZM52.0214 55.6197C50.0617 57.4841 47.9816 59.3139 46.3898 61.4C44.8381 63.4238 43.4537 65.5516 42.2297 67.7833C41.9956 68.213 41.5609 68.4833 41.086 68.4903C35.7086 68.5596 29.7159 66.1546 26.6928 61.3931C21.4358 53.1177 24.1312 41.2245 32.7591 36.7472C40.2968 32.8382 49.132 37.7105 52.0548 45.2998C52.7705 47.1503 53.0447 49.6107 53.3657 51.7108C53.6132 53.3256 53.2386 54.4623 52.0214 55.6197ZM41.5475 96.4561C35.7019 98.0571 28.2044 95.7769 24.9204 90.5788C23.7767 88.7767 23.235 86.4618 23.2951 83.6271C23.3085 83.0727 23.5761 82.8648 24.0911 82.9964L24.5793 83.1212C25.0475 83.239 25.3083 83.5509 25.3685 84.0499C25.5892 86.0391 25.8902 87.6193 26.2714 88.7975C26.4119 89.2203 26.7329 89.5322 27.2412 89.7263C27.482 89.8164 27.6225 89.7263 27.6559 89.4698C27.8766 87.7579 27.8632 86.0391 27.6091 84.3202C27.5623 84.0014 27.8164 83.7172 28.1241 83.7519C28.1977 83.7588 28.2779 83.7658 28.3649 83.7727C28.9066 83.8351 29.2544 84.1331 29.4082 84.6737C29.8564 86.2955 30.1172 87.945 30.1908 89.6223C30.2042 90.0589 30.4382 90.454 30.8061 90.6619L31.7224 91.2025C32.117 91.4312 32.3043 91.3134 32.2775 90.8421L31.9498 84.9509C31.9431 84.7777 32.0167 84.6806 32.1839 84.6598L38.4776 83.9806C38.6515 83.9598 38.7518 84.043 38.7852 84.2163C39.3738 87.4668 40.5242 91.05 42.2297 94.959C42.4972 95.5689 42.1762 96.2828 41.5475 96.4561ZM183.607 113.589C178.183 111.461 173.36 108.488 169.147 104.683C166.411 102.209 164.278 99.1868 162.753 95.6036C162.438 94.8689 161.87 94.0234 161.281 93.6006C160.606 93.1154 159.676 93.3719 159.315 94.1412C156.218 100.795 151.222 105.196 144.326 107.344C139.691 108.786 135.244 109.417 130.401 108.384C123.105 106.818 117.573 102.486 113.814 95.3818C113.748 95.264 113.761 95.1184 113.848 95.0145C114.577 94.1065 115.306 93.2055 116.048 92.3184C116.403 91.8887 116.543 91.4035 116.456 90.856C116.336 90.0589 115.42 89.6985 114.818 90.2114C111.694 92.859 107.828 95.7561 104.083 96.8581C93.656 99.9353 83.7707 94.8758 78.1793 85.6717C77.8181 85.0826 77.2764 84.8192 76.5473 84.8816C75.932 84.9301 75.4571 85.4707 75.4638 86.1153L75.4973 88.6589C75.504 88.8876 75.3969 89.0193 75.1829 89.0678C69.4577 90.3223 62.6156 88.9569 59.4387 83.5578C56.7299 78.9558 58.081 73.4596 61.4987 69.5091C61.599 69.3982 61.6391 69.2457 61.6191 69.1002C61.5856 68.8437 61.4786 68.6912 61.3114 68.6358C60.8967 68.4972 60.4352 68.615 60.1008 68.9338C54.0078 74.7765 54.175 84.1539 61.2378 89.0956C65.4314 92.0273 70.1801 92.9491 75.4705 91.8471C76.0524 91.7293 76.5741 91.7015 77.0222 91.7778C77.2496 91.8124 77.4302 91.9233 77.5639 92.1174C79.2093 94.46 74.7816 96.463 73.1965 97.2046C66.0668 100.524 59.4454 101.432 52.3825 96.8927C46.5637 93.1432 42.6377 84.9509 43.5741 77.7082C44.7445 68.5804 50.7974 60.201 58.3685 56.0564C63.7928 53.0831 71.2234 51.8147 77.1426 54.095C79.0755 54.8366 80.9014 55.5366 82.6203 56.1881C82.7139 56.2227 82.7541 56.299 82.7407 56.4029L81.7508 62.6892C81.7374 62.7793 81.6906 62.8001 81.6171 62.7515C74.0727 57.9832 66.5283 57.7891 58.9772 62.1763C55.3856 64.2625 52.5163 67.3467 50.376 71.4289C47.3262 77.2439 46.9918 82.9133 49.3795 88.4371C51.5599 93.4966 55.2317 96.6155 60.3617 98.0155C60.5891 98.0779 60.8232 97.9323 60.8834 97.6967C61.0439 97.0175 60.7897 96.5184 60.1142 96.1927C47.4399 90.0589 47.179 74.4369 57.5392 65.8981C61.6592 62.4951 66.4748 61.0674 71.9926 61.608C74.8552 61.8852 77.584 63.1258 80.2861 64.1238C80.5135 64.207 80.761 64.1862 80.975 64.0753L81.51 63.7981C81.8177 63.6387 81.9916 63.7357 82.0384 64.0892C82.5334 67.8873 83.6302 71.0269 85.3291 73.5012C88.4257 78.0271 93.8165 82.144 99.5484 83.4747C105.08 84.7569 110.604 84.5489 116.135 82.8578C123.258 80.6746 128.067 76.6132 130.562 70.6596C130.722 70.2784 130.876 70.2784 131.03 70.6596C132.227 73.626 133.692 75.8646 135.431 77.3755C136.515 78.3112 137.411 79.3231 138.126 80.4112C138.26 80.6122 138.28 80.8271 138.187 81.0558C137.05 83.7727 133.946 86.344 130.809 86.3925C128.636 86.4272 126.388 84.1331 124.85 82.6707C124.476 82.3172 123.874 82.5113 123.76 83.0172C123.486 84.2093 124.402 85.4499 125.211 86.2608C127.639 88.7074 130.508 89.5807 133.812 88.8738C137.123 88.1599 139.738 86.0391 141.671 82.5043C141.785 82.3034 141.945 82.241 142.159 82.3172C144.433 83.1697 146.661 83.7034 148.848 83.9321C149.095 83.9529 149.209 84.0915 149.189 84.3479C148.687 91.9857 142.046 95.7075 135.545 96.567C130.977 97.163 126.409 95.0699 123.352 91.4798C122.208 90.1352 120.998 88.8391 119.727 87.5846C119.265 87.1272 118.49 87.3975 118.403 88.0559C118.276 88.95 118.456 89.8302 118.944 90.7104C123.205 98.4106 131.833 102.216 140.14 99.8383C146.995 97.8769 152.533 92.7689 153.362 85.346C153.423 84.7984 153.837 84.3687 154.359 84.2925C157.736 83.8212 160.813 82.5113 163.575 80.3627C168.906 76.2112 170.852 68.3447 169.24 61.5733C168.692 59.2515 167.381 56.9158 166.284 54.6286C165.97 53.9771 165.689 52.1197 165.435 49.0632C165.415 48.8068 165.528 48.7167 165.769 48.7929C170.933 50.4632 174.404 55.0584 176.049 60.2287C178.35 67.4437 175.808 75.8438 170.23 80.4182C170.096 80.5221 170.043 80.7023 170.076 80.8687C171.354 86.7737 173.086 92.4778 175.28 97.9878C176.878 102.008 178.992 105.542 181.62 108.599C182.015 109.063 181.935 109.195 181.366 108.994C178.51 107.996 175.748 106.457 173.079 104.385C172.852 104.205 172.524 104.323 172.444 104.607L172.384 104.856C172.257 105.321 172.377 105.716 172.732 106.028C176.082 108.966 179.674 111.198 183.5 112.716C183.694 112.799 183.821 112.993 183.828 113.208V113.423C183.834 113.547 183.721 113.631 183.607 113.589Z" fill="black"/>
<path d="M149.089 24.0706C146.841 20.9241 143.865 18.1933 140.207 17.7012C138.515 17.4725 136.849 17.2299 135.217 16.9596C134.963 16.918 134.756 16.7378 134.675 16.4883C134.548 16.0933 134.595 15.7814 134.816 15.5527C134.956 15.4071 135.211 15.317 135.565 15.2824C141.491 14.7626 146.581 16.8557 149.677 22.4696C149.898 22.8716 149.945 23.3152 149.818 23.8073C149.791 23.9112 149.744 24.0013 149.684 24.0845C149.53 24.2786 149.236 24.2716 149.089 24.0706Z" fill="black"/>
<path d="M159.395 34.6055C159.79 28.8738 157.69 24.2786 153.831 19.9053C153.677 19.732 153.61 19.4894 153.663 19.2538C153.764 18.7964 153.964 18.5884 154.259 18.6231C154.901 18.7063 155.423 18.9488 155.83 19.3439C159.235 22.6776 162.398 28.8876 161.087 33.9332C160.974 34.3768 160.72 34.7026 160.325 34.9174L160.064 35.056C159.583 35.3194 159.362 35.1669 159.395 34.6055Z" fill="black"/>
<path d="M26.3384 30.8698C25.8769 31.0847 25.5559 30.953 25.3753 30.4678C25.3285 30.3431 25.3285 30.2183 25.3753 30.1005C25.6228 29.4698 25.9973 29.0124 26.5123 28.7143C28.579 27.5153 30.8196 26.8084 33.2274 26.5796C33.8293 26.5242 34.3443 27.0093 34.3443 27.6331V28.0074C34.3443 28.2708 34.1303 28.4856 33.8761 28.4718C32.3445 28.4024 29.8364 29.1995 26.3384 30.8698Z" fill="black"/>
<path d="M17.764 35.1184C12.6341 41.2453 11.049 48.5503 13.5972 56.3336C15.2091 61.2476 17.8644 65.4546 21.5764 68.9546C23.9574 71.2002 27.5156 73.224 30.4651 75.3102C30.8397 75.5805 30.9667 75.8854 30.8397 76.232C30.726 76.5369 30.4049 76.6964 30.1106 76.5924C20.8473 73.2864 14.5604 66.9586 11.2496 57.6158C8.46063 49.7424 9.69797 40.6839 15.8579 34.7234C16.2324 34.356 16.7207 34.1689 17.3293 34.162C17.443 34.162 17.55 34.1897 17.6437 34.2521C17.9313 34.4392 17.9914 34.8481 17.764 35.1184Z" fill="black"/>
<path d="M93.3886 88.2223C97.6758 90.1144 102.244 90.2461 107.08 88.6243C107.407 88.5134 107.742 88.7698 107.742 89.1233V89.4005C107.742 90.1005 107.441 90.5926 106.832 90.8837C104.933 91.8055 103.234 92.256 101.729 92.2352C91.7031 92.1174 84.7741 87.2658 80.9484 77.6666C80.7143 77.0706 80.8547 76.5924 81.3697 76.232C81.4767 76.1557 81.6105 76.1072 81.7643 76.0726C82.0787 75.9963 82.3997 76.1488 82.5469 76.4468C85.1285 81.6657 87.9577 85.8311 93.3886 88.2223Z" fill="black"/>
<path d="M42.7917 46.4711C40.2635 44.2671 36.2572 44.8978 33.8361 47.8711C31.4149 50.8514 31.5019 55.0514 34.03 57.2554C36.5582 59.4594 40.5645 58.8287 42.9857 55.8554C45.4068 52.8752 45.3199 48.6751 42.7917 46.4711ZM41.2868 53.9564C39.8957 55.9039 37.5213 56.5277 35.9897 55.3495C34.4581 54.1712 34.3377 51.6415 35.7289 49.6939C37.12 47.7464 39.4944 47.1226 41.026 48.3008C42.5576 49.4791 42.678 52.0088 41.2868 53.9564Z" fill="black"/>
<path d="M158.191 64.11C156.459 59.4248 150.747 56.7356 146.601 60.2495C142.922 63.3753 141.805 71.117 147.31 73.4527C149.918 74.5686 152.373 74.2359 154.667 72.4616C157.202 70.5071 159.375 67.3328 158.191 64.11ZM155.456 67.2219C154.8 68.7744 152.995 70.5695 151.389 71.1656C149.416 71.8933 147.203 71.0061 146.748 68.7883C146.179 66.0506 146.828 63.8258 148.687 62.1139C151.637 59.397 156.887 63.8189 155.456 67.2219Z" fill="black"/>
<path d="M74.6146 70.0635C72.5011 67.5199 68.6888 67.3397 66.0938 69.6616C63.4987 71.9765 63.0974 75.9131 65.2042 78.4568C67.3177 81.0004 71.13 81.1806 73.7251 78.8587C76.3202 76.5439 76.7215 72.6072 74.6146 70.0635ZM72.5747 76.433C71.2504 78.131 68.9764 78.4914 67.4916 77.2439C66.0068 76.0032 65.873 73.6191 67.1973 71.921C68.5216 70.223 70.7956 69.8626 72.2804 71.1101C73.7652 72.3507 73.899 74.7349 72.5747 76.433Z" fill="black"/>
<path d="M121.994 59.8267C121.091 52.5078 113.661 47.4622 105.401 48.5642C97.1407 49.6592 91.1814 56.4791 92.0843 63.7981C92.9873 71.117 100.418 76.1626 108.678 75.0606C116.938 73.9656 122.897 67.1456 121.994 59.8267ZM110.002 71.4428C103.575 73.522 96.9735 70.5764 95.2546 64.8654C93.5424 59.1544 97.3614 52.8474 103.789 50.7751C110.216 48.6958 116.818 51.6414 118.537 57.3524C120.249 63.0634 116.43 69.3704 110.002 71.4428Z" fill="black"/>
<path d="M111.962 56.8326C111.4 56.6039 110.765 56.9019 110.557 57.491C109.955 59.2168 108.196 60.6584 106.598 59.2168C106.27 58.9257 105.949 58.6277 105.628 58.3296C105.053 57.796 104.15 58.2534 104.197 59.0504C104.418 62.6406 108.457 62.2594 110.785 61.2752C112.243 60.6584 112.932 59.6049 112.845 58.1148C112.805 57.4841 112.51 57.0544 111.962 56.8326Z" fill="black"/>
</g>
<defs>
<clipPath id="clip0_2080_495">
<rect width="200" height="120" fill="white"/>
</clipPath>
</defs>
</svg>
