<svg width="221" height="120" viewBox="0 0 221 120" fill="none" xmlns="http://www.w3.org/2000/svg">
<g clip-path="url(#clip0_2086_143)">
<path d="M211.166 67.2682C210.273 66.9819 209.632 65.9863 209.565 64.8039C208.652 46.2974 190.828 43.3105 183.463 56.8637C183.191 57.3615 182.861 57.4362 182.483 57.0877C179.446 54.3123 176.719 53.5283 174.284 49.2594C159.933 24.0199 140.701 5.61289 116.201 0.796463C113.319 0.236413 110.029 -0.0373889 106.313 -5.2274e-05C101.733 0.0372844 98.4923 0.174185 96.5905 0.38576C88.4883 1.31918 81.2401 4.51768 74.8554 10.0062C70.8868 13.4163 66.1031 18.9794 60.4947 26.6832C52.6545 37.4611 46.396 48.5127 42.8543 62.0659C42.3595 63.9452 41.6123 65.588 40.6129 66.9944C39.3806 68.7118 38.1677 70.4169 36.9839 72.1095C36.7316 72.4704 36.4793 72.4704 36.2174 72.1219C35.3247 70.9396 34.2185 70.0062 32.8989 69.3092C26.9896 66.2103 21.4491 66.733 16.2773 70.9023C15.0256 71.9103 14.3949 73.1922 13.4634 74.5986C11.9691 76.8637 10.1352 77.1997 8.08786 78.158C-0.557665 82.1904 -2.34305 95.8431 5.48741 102.539C7.92291 104.617 10.9309 105.7 14.5308 105.812C14.8801 105.824 15.1324 106.036 15.2779 106.434C19.0718 116.54 26.388 120.187 34.6648 119.988C40.739 119.851 46.493 118.643 51.9268 116.366C56.9724 114.263 59.078 111.089 61.9599 106.173C62.2024 105.762 62.5032 105.675 62.8623 105.899C72.352 111.997 79.8719 108.04 86.2275 98.8301C86.4701 98.4691 86.7806 98.2949 87.1493 98.3074C89.4684 98.3571 91.1761 99.527 93.534 99.2159C98.4147 98.5687 102.383 96.677 105.449 93.5283C107.836 91.064 111.824 90.5164 114.105 93.6776C118.626 99.9875 124.409 102.078 131.444 99.9502C131.706 99.863 131.968 99.9004 132.211 100.062C133.346 100.796 134.501 101.493 135.665 102.153C140.303 104.767 145.756 103.771 150.249 101.058C150.521 100.896 150.831 101.033 150.977 101.369C152.617 105.19 155.042 107.965 158.264 109.67C167.705 114.648 180.096 112.719 187.626 102.676C187.878 102.34 188.159 102.302 188.46 102.539C192.448 105.712 197.465 106.584 203.529 105.152C209.225 103.808 213.688 100.61 216.9 95.5444C223.052 85.8369 221.422 70.6284 211.166 67.2682ZM47.3275 63.2607C49.0935 57.4486 50.3937 53.6776 51.2185 51.9228C57.4479 38.7927 65.3754 27.3179 75.0106 17.4859C79.2606 13.1425 82.3559 10.5538 84.2966 9.71992C88.3428 7.9651 92.1561 6.33473 96.6002 5.91158C98.5893 5.7249 100.705 5.47599 102.936 5.13996C105.964 4.67947 109.554 4.90349 113.707 5.79957C119.81 7.1188 125.991 9.42123 132.24 12.6944C147.387 20.6347 159.913 33.9141 169.82 52.5451C169.917 52.7193 169.888 52.8562 169.733 52.9433L162.756 56.9881C162.601 57.0752 162.475 57.0379 162.368 56.8512C156.246 46.1605 148.968 37.2121 140.536 29.9813C127.709 18.9794 114.056 14.387 99.5694 16.2041C80.8907 18.5438 67.054 34.5861 58.9325 55.7062C57.7293 58.8425 56.8851 62.0908 56.4097 65.4387C56.3805 65.6253 56.235 65.7622 56.0797 65.7249L47.5313 63.7212C47.3178 63.6714 47.2499 63.522 47.3275 63.2607ZM137.159 46.6832C128.068 38.606 118.578 34.6857 108.69 34.9346C98.2109 35.196 88.9444 39.4897 80.9005 47.8033C76.2332 52.6322 73.1961 58.1829 71.7892 64.443C71.1003 67.542 66.3457 70.5911 64.2498 72.4579C63.9878 72.6944 63.7453 72.6571 63.5415 72.3335C62.4644 70.6533 61.0284 68.3758 61.368 66.0609C61.7076 63.771 62.3577 61.2196 63.328 58.4069C68.6162 43.0242 76.9513 32.4455 88.3428 26.6583C99.4432 21.0329 112.843 21.4312 124.235 27.5295C133.22 32.3459 141.642 38.2202 148.493 46.5463C151.607 50.3173 154.363 54.051 156.76 57.7473C158.186 59.9377 158.516 62.5015 157.75 65.4387C157.585 66.0983 157.226 66.3721 156.692 66.2476C153.092 65.3889 150.492 63.6341 147.891 59.9377C144.553 55.2209 141.555 50.5787 137.159 46.6832ZM143.942 65.6004L138.877 68.2887C138.625 68.4256 138.343 68.2762 138.227 67.9651C136.218 62.5015 132.24 58.382 126.302 55.6067C121.237 53.2545 115.415 52.682 108.836 53.8892C99.1036 55.6813 91.8359 62.0784 87.0232 73.0678C86.7612 73.6652 86.4216 73.7398 86.014 73.2918C83.4039 70.4667 80.5511 68.2762 77.4752 66.7081C77.1744 66.5463 77.0386 66.2601 77.0677 65.8369C77.4364 61.705 81.1721 56.9757 83.53 54.6235C103.693 34.5488 128.718 39.8382 144.029 65.1524C144.155 65.364 144.126 65.5133 143.942 65.6004ZM93.2235 91.9352C90.7492 91.8232 87.9158 91.2383 84.7332 90.1804C84.3742 90.0684 84.0831 90.1804 83.8502 90.5413C82.5791 92.4704 81.7737 94.8226 80.5414 96.4654C77.9604 99.9128 74.8457 101.817 71.1876 102.19C69.8582 102.327 68.4319 101.917 66.9182 100.946C65.1716 99.8257 62.4353 97.3864 60.4656 98.2078C58.3794 99.0665 57.7002 102.203 56.1768 104.02C50.7527 110.454 44.2031 110.541 37.178 110.74C36.6637 110.753 36.5764 110.516 36.9063 110.019C37.2071 109.571 37.4205 109.06 37.5564 108.475C37.6825 107.928 37.5273 107.604 37.0906 107.492C35.9942 107.231 35.1694 106.447 34.5969 105.128C34.3738 104.617 34.0438 104.393 33.5975 104.431C33.1803 104.468 32.7824 104.692 32.404 105.103C32.0353 105.488 31.8703 105.999 31.9188 106.621C31.9771 107.38 32.1905 107.953 32.5496 108.326C32.928 108.724 33.0638 108.612 32.9571 108.002L32.6563 106.31C32.5204 105.551 32.7048 105.389 33.1997 105.824C34.5969 107.032 35.3829 108.438 35.5575 110.056C35.6449 110.852 35.0142 111.45 34.4514 111.126C33.4228 110.541 32.4913 110.404 31.6569 110.74C31.4143 110.84 31.2008 110.765 31.0165 110.529C30.3857 109.683 29.9588 108.737 29.755 107.679C29.6774 107.268 29.4834 106.994 29.1632 106.87C27.5427 106.26 26.7956 105.003 26.9217 103.086C27.009 101.879 27.3098 101.78 27.8338 102.788L29.2214 105.464C29.3863 105.775 29.7647 105.688 29.8133 105.314L29.9588 104.331C29.9879 104.144 29.9588 103.945 29.8618 103.796L27.8338 100.336C27.6203 99.9751 27.1837 100.087 27.0964 100.523C26.9314 101.332 26.6112 102.053 26.1164 102.688C25.8932 102.987 25.767 103.348 25.7476 103.759C25.67 105.414 26.1164 106.758 27.0964 107.803C27.3001 108.027 27.5136 108.139 27.7174 108.152C27.8435 108.152 27.9794 108.139 28.1055 108.102C28.3869 108.015 28.5713 108.152 28.678 108.488C28.8818 109.135 29.1923 109.72 29.6095 110.243C30.0461 110.778 29.9588 111.039 29.3572 111.002C26.6888 110.877 24.5833 108.45 23.9428 105.19C23.4771 102.825 22.3515 99.8008 24.8841 98.5438C26.2328 97.8593 26.1843 97.4237 24.7482 97.2121C22.565 96.901 20.5273 97.0379 18.6158 97.6477C13.9874 99.1163 7.54448 98.0087 7.41834 90.4169C7.35042 85.9614 10.1255 83.3976 13.3567 83.3603C14.1038 83.3478 14.327 83.2233 14.8025 82.5886C15.0256 82.3024 15.2973 82.1281 15.6078 82.041C17.6455 81.5307 19.0233 82.6011 19.7511 85.252C19.9257 85.8991 20.605 86.036 20.9252 85.4884C21.2842 84.8911 21.3812 84.1816 21.2163 83.3727C20.9252 81.9041 19.6637 81.3192 18.6643 80.7965C18.3441 80.6347 18.1403 80.336 18.0336 79.9253C17.5776 78.0709 18.0724 76.7019 19.5085 75.8182C23.4189 73.4411 27.2128 73.4785 30.8709 75.9303C33.0638 77.3988 34.3058 80.1991 36.0815 82.4517C37.2653 83.9576 39.2739 83.1736 39.5941 81.0703C39.7687 79.9377 39.8852 78.7803 39.9337 77.5855C40.0307 75.3578 42.2139 73.8145 43.65 72.8313C46.8811 70.6036 50.3743 70.2053 54.1197 71.6365C58.1174 73.1798 59.5438 77.1997 61.9502 80.9334C62.6876 82.0659 64.0169 82.1406 64.832 81.0952C68.034 76.9259 72.4296 71.873 77.0483 74.0261C80.0272 75.42 82.2492 78.2327 84.316 81.3067C85.0146 82.3522 86.2663 82.4144 87.0232 81.4436C89.0608 78.8425 90.8365 76.565 94.0677 77.2122C97.9004 77.9713 100.307 80.336 101.287 84.3061C102.539 89.359 95.9598 92.0721 93.2235 91.9352ZM114.852 78.5812C113.901 80.3235 113.464 82.3646 112.785 84.2812C112.64 84.7044 112.348 85.0155 112.009 85.1275C110.815 85.5507 109.632 85.7 108.467 85.5631C107.691 85.476 107.021 84.8288 106.74 83.9078C106.265 82.377 105.731 80.8214 105.139 79.2408C103.092 73.7398 99.5694 72.1966 95.3291 70.5413C94.9118 70.3795 94.873 70.1182 95.2029 69.7448C101.733 62.4517 108.137 60.3982 116.336 60.1742C121.625 60.0248 126.379 62.2526 130.6 66.8699C131.832 68.2265 132.696 69.8195 133.191 71.649C133.385 72.3708 132.793 73.0429 132.259 72.6944C125.894 68.6123 118.83 71.3627 114.852 78.5812ZM214.523 85.252C214.416 86.9446 213.873 88.4754 212.893 89.8444C212.572 90.2924 212.485 90.2177 212.611 89.6328C213.232 86.6956 213.688 82.3895 211.068 80.9583C210.137 80.448 209.186 81.6179 209.535 82.8375C210.088 84.7915 210.515 87.0192 210.807 89.5457C211.039 91.5245 210.166 93.4909 208.876 94.5115C204.092 98.2825 197.542 100.062 192.497 96.1792C190.352 94.5363 186.617 90.9396 184.482 94.2999C182.531 97.3615 180.436 99.5643 178.184 100.921C174.604 103.062 170.82 103.895 166.832 103.422C164.93 103.198 163.251 102.763 161.786 102.128C160.505 101.568 159.438 100.236 158.574 98.1331C157.885 96.453 157.895 94.5488 157.565 92.6073C157.497 92.1717 157.303 91.8606 157.002 91.649C155.848 90.8649 154.761 90.7902 153.762 91.4125C149.987 93.7398 146.009 96.4779 141.836 96.5276C138.819 96.5525 135.452 93.3291 132.948 91.1138C132.395 90.616 131.648 90.7031 131.153 91.3005C128.31 94.7728 125.186 95.0715 121.77 92.1966C119.403 90.2053 117.705 87.181 118.782 83.3851C120.975 75.6689 130.066 78.0833 134.675 79.4275C136.548 79.9751 137.334 79.2657 138.363 77.237C140.206 73.6029 145.145 71.9103 148.27 71.1014C151.772 70.1929 153.461 71.6739 155.935 73.8519C157.769 75.4573 159.351 75.7809 160.573 73.0678C163.212 67.1935 164.697 62.0286 170.597 59.9875C176.215 58.046 180.581 61.8543 183.968 67.1561C184.53 68.0398 185.636 67.8158 185.957 66.7454C187.703 60.9334 191.643 55.3578 196.921 56.1045C203.18 56.9881 203.578 63.7461 203.927 70.3546C203.985 71.5868 204.655 72.4455 205.926 72.906C211.922 75.1088 215.134 75.7685 214.523 85.252Z" fill="black"/>
</g>
<defs>
<clipPath id="clip0_2086_143">
<rect width="220" height="120" fill="white" transform="translate(0.5)"/>
</clipPath>
</defs>
</svg>
