<svg width="160" height="140" viewBox="0 0 160 140" fill="none" xmlns="http://www.w3.org/2000/svg">
<g clip-path="url(#clip0_2205_41)">
<path d="M60.1904 25.6789L60.6645 24.4542C61.0398 23.5061 62.057 22.9925 63.0348 23.2592L64.4669 23.6443C65.5533 23.9308 66.1756 25.0666 65.8496 26.1431L65.2077 28.2271C64.7731 29.6592 62.9756 30.1036 61.9188 29.0666L60.6447 27.8122C60.0817 27.2592 59.904 26.4098 60.1904 25.6789Z" fill="black"/>
<path d="M82.8077 30.6272C82.2744 31.7828 80.9114 32.2964 79.7559 31.763L79.2127 31.5161C78.0571 30.9828 77.5534 29.6198 78.0769 28.4643L79.0645 26.3112C79.5979 25.1556 80.9608 24.642 82.1164 25.1754L82.6596 25.4223C83.8151 25.9556 84.3189 27.3186 83.7954 28.4741L82.8077 30.6272Z" fill="black"/>
<path d="M48.7137 36.395C47.6865 37.2642 45.8199 36.7308 44.5557 35.2197C43.2816 33.7086 43.0841 31.7827 44.1211 30.9234C45.1483 30.0543 47.0149 30.5876 48.2791 32.0988C49.5532 33.6099 49.7507 35.5358 48.7137 36.395Z" fill="black"/>
<path d="M94.8766 41.3729C93.7211 40.2569 93.8989 38.1927 95.2816 36.7606C96.6544 35.3285 98.7186 35.0816 99.8742 36.1976C101.03 37.3137 100.852 39.3779 99.4692 40.81C98.0964 42.2421 96.0322 42.489 94.8766 41.3729Z" fill="black"/>
<path d="M34.5804 46.0051C33.7014 47.1903 31.7557 47.2496 30.2446 46.1237C28.7236 44.9977 28.21 43.1311 29.089 41.936C29.968 40.7508 31.9137 40.6916 33.4248 41.8175C34.9458 42.9434 35.4594 44.8101 34.5804 46.0051Z" fill="black"/>
<path d="M128.348 126.785C127.292 127.872 125.563 127.901 124.477 126.844L102.363 105.412C101.277 104.365 101.247 102.637 102.304 101.541L102.768 101.057C103.825 99.9704 105.553 99.9408 106.64 100.998L128.753 122.43C129.84 123.477 129.869 125.205 128.813 126.301L128.348 126.785Z" fill="black"/>
<path d="M44.2793 102.005C45.2768 103.032 45.2472 104.672 44.2299 105.659L20.6645 128.573C19.6373 129.57 17.9978 129.541 17.0102 128.523L16.3188 127.812C15.3213 126.785 15.3509 125.146 16.3682 124.158L39.9336 101.244C40.9608 100.247 42.6003 100.276 43.5879 101.294L44.2793 102.005Z" fill="black"/>
<path d="M55.2124 138.183C54.7087 139.605 53.1384 140.346 51.7162 139.832L51.0248 139.585C49.6026 139.081 48.8618 137.511 49.3754 136.089L60.9606 103.733C61.4643 102.311 63.0347 101.57 64.4569 102.084L65.1482 102.331C66.5705 102.835 67.3112 104.405 66.7976 105.827L55.2124 138.183Z" fill="black"/>
<path d="M98.3533 135.783C98.8668 137.244 98.1162 138.844 96.6644 139.358L96.0323 139.585C94.5705 140.109 92.9705 139.348 92.457 137.896L81.0002 105.886C80.4866 104.425 81.2372 102.825 82.6891 102.311L83.3212 102.084C84.7829 101.56 86.3829 102.321 86.8965 103.773L98.3533 135.783Z" fill="black"/>
<path d="M159.612 86.2319C159.217 85.2047 158.23 84.5331 157.123 84.543L149.543 84.7504C149.247 84.7504 149.04 84.464 149.119 84.1776C152.358 73.1455 150.669 63.3973 144.062 54.9529C140.595 50.5282 135.993 47.6146 130.689 46.1331C130.086 45.9652 129.602 45.501 129.415 44.8986C119.291 13.3134 89.326 -4.5533 56.7038 1.00719C38.7877 4.05904 24.1408 13.0862 12.763 28.0689C6.57042 36.2171 2.65931 45.501 1.00993 55.9405C0.684004 58.0146 1.76055 59.6936 3.98277 59.8714C13.1581 60.6121 21.3161 61.106 28.4371 61.3529C29.8791 61.4023 31.1828 60.5331 31.6766 59.18L31.7951 58.8344C32.1507 57.8763 31.5186 56.8294 30.5013 56.6911C22.0371 55.5751 14.5902 54.8245 8.16055 54.4393C7.85437 54.4195 7.62721 54.143 7.66672 53.8368C8.99018 43.664 15.5087 32.8985 22.3038 25.8072C34.9754 12.5825 50.2346 5.96522 68.0914 5.95534C92.1507 5.93559 114.975 20.385 122.649 43.6541C122.956 44.5825 122.62 45.0763 121.642 45.1455C115.825 45.5405 110.551 48.5924 105.227 51.506C103.578 52.4047 103.38 53.5603 104.625 54.9529L104.99 55.3677C106.067 56.5726 107.272 56.7109 108.595 55.7825C117.227 49.6986 128.012 48.6121 136.417 55.6541C144.398 62.3405 146.62 73.5603 143.183 83.585C143.015 84.0985 142.531 84.4442 141.988 84.4344L95.7852 84.306C95.5778 84.306 95.4988 84.2072 95.5482 83.9998C97.3457 77.2442 97.5827 70.6467 96.2593 64.1973C92.0124 43.506 68.7433 34.8936 51.5284 46.6072C39.5581 54.7455 35.6173 70.4294 39.8544 83.9702C39.9531 84.2862 39.8346 84.4442 39.5087 84.4541C29.9186 84.6516 20.0322 84.6813 9.86919 84.5331C7.86425 84.5035 5.43462 84.6911 2.60005 85.0763C1.06919 85.2837 0.249436 86.1628 0.121041 87.6936C0.0716584 88.3158 0.150671 88.9084 0.377831 89.4714C0.75314 90.4195 1.67166 91.0418 2.68894 91.0319C19.7655 90.9035 36.7334 90.7751 53.5926 90.6665C59.805 90.6171 66.3729 90.6269 73.2963 90.6763C105.849 90.9035 124.284 90.9726 156.61 90.8739C158.684 90.8739 159.77 89.8368 159.879 87.7627C159.899 87.259 159.81 86.7455 159.612 86.2319ZM79.2223 62.1331C78.6198 61.8566 78.3136 61.4121 78.3037 60.7899C78.2939 60.3948 78.4025 60.3652 78.6099 60.701L79.3803 61.9553C79.4494 62.064 79.3309 62.1825 79.2223 62.1331ZM89.8099 66.6665C89.7507 67.4269 89.5235 67.9702 89.1383 68.2862C88.7235 68.6319 88.0914 68.4739 87.8939 67.9702C86.5902 64.6121 85.484 61.106 83.2519 58.4195C78.4519 52.6516 72.4667 49.8665 64.842 48.5627C64.2297 48.4541 64.1704 48.2171 64.6544 47.8319C67.5186 45.5702 75.9037 48.0492 78.8272 49.4714C85.1581 52.543 90.3828 59.3183 89.8099 66.6665Z" fill="black"/>
</g>
<defs>
<clipPath id="clip0_2205_41">
<rect width="160" height="140" fill="white"/>
</clipPath>
</defs>
</svg>
