<svg width="220" height="160" viewBox="0 0 220 160" fill="none" xmlns="http://www.w3.org/2000/svg">
<g clip-path="url(#clip0_2023_114)">
<path d="M85.2898 27.2778C85.452 28.0491 84.9452 28.8105 84.1648 28.9707H84.104C83.3235 29.141 82.5532 28.6402 82.3911 27.8688L76.9179 1.73307C76.7558 0.961725 77.2625 0.200392 78.043 0.0401119H78.1038C78.8842 -0.130186 79.6545 0.37069 79.8167 1.14204L85.2898 27.2778Z" fill="black"/>
<path d="M138.886 24.5229C138.653 25.2441 137.872 25.6448 137.143 25.4144L137.062 25.3944C136.332 25.164 135.937 24.3926 136.16 23.6714L140.984 8.72523C141.217 8.00397 141.998 7.60327 142.727 7.83367L142.808 7.85371C143.538 8.08411 143.933 8.85546 143.71 9.57672L138.886 24.5229Z" fill="black"/>
<path d="M110.76 28.4199C110.72 29.061 110.172 29.5519 109.534 29.5118L108.845 29.4718C108.206 29.4317 107.709 28.8907 107.74 28.2596L108.753 9.15621C108.794 8.51509 109.341 8.02423 109.98 8.0643L110.669 8.10437C111.308 8.14444 111.804 8.68539 111.774 9.31649L110.76 28.4199Z" fill="black"/>
<path d="M46.0251 14.1951C52.3598 23.1307 58.9275 31.7959 65.7284 40.1805C65.9514 40.4711 65.9109 40.8818 65.6372 41.1122L65.3635 41.3326C65.0088 41.6331 64.4716 41.603 64.1473 41.2725C61.1067 38.0969 59.0289 35.7829 57.9241 34.3203C52.6537 27.3381 47.4238 20.6163 42.2446 14.165C41.8696 13.6942 41.9101 13.2634 42.3764 12.8728L43.3291 12.0714C43.7244 11.7408 44.3122 11.7608 44.6771 12.1114C45.2751 12.6624 45.6197 13.6241 46.0251 14.1951Z" fill="black"/>
<path d="M125.244 25.835C125.142 26.426 124.565 26.8267 123.967 26.7265L123.865 26.7065C123.267 26.6063 122.862 26.0353 122.963 25.4443L124.514 16.5788C124.615 15.9878 125.193 15.5871 125.791 15.6872L125.892 15.7073C126.49 15.8074 126.896 16.3784 126.794 16.9695L125.244 25.835Z" fill="black"/>
<path d="M151.829 28.1691C151.484 28.7601 150.714 28.9705 150.116 28.6299L149.873 28.4896C149.275 28.149 149.062 27.3877 149.407 26.7967L155.549 16.1881C155.893 15.5971 156.664 15.3867 157.262 15.7273L157.505 15.8676C158.103 16.2081 158.316 16.9695 157.971 17.5605L151.829 28.1691Z" fill="black"/>
<path d="M73.3097 32.9078C73.6138 33.4788 73.3908 34.18 72.8131 34.4805L72.7624 34.5106C72.1847 34.8111 71.4752 34.5907 71.1712 34.0197L62.6675 17.9316C62.3635 17.3606 62.5864 16.6594 63.1642 16.3588L63.2148 16.3288C63.7926 16.0283 64.502 16.2486 64.8061 16.8196L73.3097 32.9078Z" fill="black"/>
<path d="M96.165 27.7284C96.165 28.099 95.8711 28.4096 95.486 28.4196L94.2697 28.4396C93.8947 28.4496 93.5805 28.1491 93.5704 27.7685L93.4082 18.5323C93.4082 18.1616 93.7021 17.8511 94.0873 17.8411L95.3035 17.821C95.6785 17.811 95.9927 18.1116 96.0029 18.4922L96.165 27.7284Z" fill="black"/>
<path d="M51.5793 38.1666C51.9543 38.5573 51.934 39.1583 51.559 39.529L51.5185 39.5691C51.1333 39.9397 50.5151 39.9297 50.14 39.549L40.0147 29.1909C39.6397 28.8002 39.66 28.1992 40.035 27.8285L40.0756 27.7884C40.4607 27.4178 41.079 27.4278 41.454 27.8085L51.5793 38.1666Z" fill="black"/>
<path d="M159.056 41.5929C158.61 42.0538 157.88 42.0538 157.424 41.613L157.383 41.5729C156.927 41.1321 156.917 40.4109 157.363 39.9601L169.029 28.1494C169.475 27.6886 170.205 27.6886 170.661 28.1294L170.701 28.1695C171.157 28.6102 171.167 29.3315 170.721 29.7823L159.056 41.5929Z" fill="black"/>
<path d="M169.11 49.6367C168.441 50.1275 167.681 50.398 166.829 50.4281C166.586 50.4381 166.404 50.2477 166.282 49.8771C166.201 49.6367 166.272 49.3862 166.465 49.226C173.529 43.3657 180.695 37.7258 187.941 32.3164C188.681 31.7654 189.431 31.7153 190.171 32.1661C190.273 32.2362 190.333 32.3264 190.344 32.4366C190.465 33.1178 190.161 33.819 189.573 34.2798C182.793 39.4889 175.972 44.6079 169.11 49.6367Z" fill="black"/>
<path d="M50.2515 54.8661C49.9373 55.3169 49.2988 55.4271 48.8427 55.1165L23.6764 37.7662C23.2101 37.4556 23.0986 36.8245 23.423 36.3737L23.5142 36.2435C23.8284 35.7927 24.4669 35.6825 24.923 35.9931L50.0893 53.3434C50.5454 53.654 50.6569 54.2851 50.3427 54.7359L50.2515 54.8661Z" fill="black"/>
<path d="M201.989 44.9185C202.303 45.4795 202.101 46.1807 201.543 46.4813L186.664 54.7057C186.107 55.0162 185.398 54.8159 185.083 54.2649L185.053 54.2148C184.739 53.6538 184.941 52.9526 185.499 52.6521L200.378 44.4277C200.935 44.1171 201.645 44.3175 201.959 44.8685L201.989 44.9185Z" fill="black"/>
<path d="M41.6162 63.3106C41.3222 63.8715 40.6229 64.0919 40.0553 63.8014L11.0476 48.9354C10.4801 48.6449 10.2571 47.9537 10.551 47.3927L10.5916 47.3226C10.8855 46.7616 11.5848 46.5412 12.1524 46.8317L41.1601 61.6977C41.7276 61.9883 41.9506 62.6795 41.6567 63.2404L41.6162 63.3106Z" fill="black"/>
<path d="M205.223 62.9503C205.476 63.5413 205.192 64.2225 204.584 64.4629L190.942 70.0226C190.344 70.2731 189.655 69.9926 189.411 69.3915L189.391 69.3314C189.138 68.7404 189.421 68.0592 190.03 67.8188L203.672 62.2591C204.27 62.0086 204.959 62.2891 205.202 62.8902L205.223 62.9503Z" fill="black"/>
<path d="M32.1901 74.0197C25.6527 71.9762 19.6424 70.6138 14.1693 69.9226C13.5105 69.8324 13.1861 69.4618 13.2166 68.8106C13.2166 68.6103 13.2571 68.4099 13.328 68.2196C13.5003 67.7788 13.9564 67.5184 14.4328 67.5885C20.6458 68.5101 26.6663 70.0027 32.4739 72.0563C33.2037 72.3168 33.3962 72.7876 33.0415 73.4688L32.9199 73.7192C32.7881 73.9797 32.4739 74.1099 32.1901 74.0197Z" fill="black"/>
<path d="M212.51 78.6078C212.662 79.1588 212.338 79.7398 211.78 79.9001L197.803 83.837C197.246 83.9972 196.658 83.6767 196.496 83.1157L196.476 83.0355C196.324 82.4846 196.648 81.9036 197.205 81.7433L211.182 77.8064C211.74 77.6461 212.328 77.9667 212.49 78.5277L212.51 78.6078Z" fill="black"/>
<path d="M27.0615 86.251C22.156 85.0989 18.193 84.568 12.8719 85.1691C12.1726 85.2492 11.8685 84.9487 11.98 84.2675L12.0814 83.6163C12.1726 83.0253 12.5172 82.7248 13.1253 82.7248C18.0714 82.7148 22.9668 83.1255 27.8014 83.9469C28.4602 84.0571 28.7136 84.4378 28.5515 85.0789C28.5211 85.1891 28.5008 85.2893 28.4805 85.3894C28.3183 86.0105 27.6899 86.3912 27.0615 86.251Z" fill="black"/>
<path d="M219.99 94.9862C220.01 95.437 219.655 95.8076 219.199 95.8276L200.064 96.589C199.608 96.609 199.233 96.2584 199.212 95.8076L199.192 95.3268C199.172 94.876 199.526 94.5053 199.983 94.4853L219.118 93.724C219.574 93.7039 219.949 94.0545 219.97 94.5053L219.99 94.9862Z" fill="black"/>
<path d="M25.9468 96.0781C26.0076 96.3586 25.8353 96.6291 25.5515 96.6892L25.3691 96.7393C17.5749 98.4723 11.1896 99.5342 11.0984 99.1234L10.8247 97.9314C10.7335 97.5106 16.9668 95.7676 24.7508 94.0345L24.9434 93.9945C25.2171 93.9344 25.4907 94.1047 25.5617 94.3851L25.9468 96.0781Z" fill="black"/>
<path d="M209.611 113.158C209.469 113.629 208.973 113.889 208.506 113.759L195.695 110.083C195.219 109.943 194.945 109.452 195.087 108.991L195.259 108.39C195.401 107.919 195.898 107.659 196.364 107.789L209.175 111.465C209.652 111.605 209.925 112.096 209.783 112.557L209.611 113.158Z" fill="black"/>
<path d="M25.6022 111.305C16.9161 115.162 9.23347 118.337 2.54407 120.842C2.28055 120.942 1.99676 120.972 1.71297 120.932C0.739965 120.801 0.182516 120.381 0.0406193 119.67C-0.131683 118.858 0.202786 118.347 1.02376 118.147C4.1252 117.396 6.99354 116.444 9.63889 115.292C14.7573 113.058 20.0581 110.994 25.5515 109.111C25.8657 109.001 26.2002 109.191 26.261 109.512L26.3421 109.872C26.4637 110.463 26.1597 111.054 25.6022 111.305Z" fill="black"/>
<path d="M187.83 119.239C192.837 122.154 197.743 124.328 203.378 126.441C203.611 126.532 203.773 126.732 203.793 126.972C203.824 127.283 203.743 127.523 203.56 127.674C202.983 128.144 202.374 128.275 201.756 128.084C196.84 126.552 192.249 124.558 187.972 122.124C187.364 121.773 186.948 121.222 186.715 120.461C186.654 120.271 186.634 120.06 186.654 119.85C186.695 119.279 187.333 118.948 187.83 119.239Z" fill="black"/>
<path d="M26.0075 125.399L16.3484 131.49C16.1254 131.63 15.8416 131.65 15.5984 131.53L14.6963 131.099C14.149 130.839 14.1186 130.088 14.6355 129.767L24.0311 124.047C24.1628 123.957 24.3149 123.917 24.477 123.927L25.6325 123.997C26.3825 124.037 26.6359 124.999 26.0075 125.399Z" fill="black"/>
<path d="M198.847 143.822C198.553 144.303 197.925 144.463 197.449 144.172L176.519 131.841C176.032 131.56 175.87 130.939 176.164 130.458L176.397 130.078C176.691 129.597 177.32 129.437 177.796 129.727L198.726 142.059C199.212 142.339 199.374 142.96 199.08 143.441L198.847 143.822Z" fill="black"/>
<path d="M37.5823 135.938C36.9032 136.789 35.9505 137.2 34.866 137.48C34.5112 137.571 34.3187 137.44 34.2882 137.08C34.1666 135.847 34.6227 134.906 35.6565 134.265C36.0518 134.014 36.437 133.954 36.812 134.074C37.2782 134.215 37.5924 134.535 37.7546 135.026C37.8661 135.357 37.8052 135.667 37.5823 135.938Z" fill="black"/>
<path d="M53.1402 146.807C52.4915 146.366 53.576 143.731 55.5524 140.917C57.5288 138.102 59.6573 136.188 60.2958 136.629C60.9445 137.07 59.86 139.704 57.8835 142.519C55.9071 145.334 53.7787 147.248 53.1402 146.807Z" fill="black"/>
<path d="M190.536 155.562C189.432 154.961 188.388 154.3 187.404 153.579C181.151 149.001 175.211 144.252 169.586 139.354C169.15 138.973 168.907 138.422 168.867 137.691C168.867 137.501 168.928 137.34 169.069 137.2C169.424 136.86 169.799 136.839 170.184 137.14L191.692 154.04C192.107 154.37 192.158 154.971 191.813 155.362C191.459 155.773 191.033 155.833 190.536 155.562Z" fill="black"/>
<path d="M152.599 152.908C152.944 153.649 152.63 154.52 151.88 154.861L151.829 154.891C151.089 155.232 150.197 154.911 149.852 154.18L143.346 140.316C143.001 139.574 143.315 138.703 144.065 138.362L144.116 138.332C144.856 137.991 145.748 138.312 146.092 139.043L152.609 152.908H152.599Z" fill="black"/>
<path d="M108.946 155.823C108.966 156.283 108.591 156.674 108.125 156.684L107.111 156.714C106.645 156.714 106.25 156.363 106.24 155.903L105.763 140.025C105.743 139.564 106.118 139.173 106.584 139.163L107.598 139.133C108.064 139.133 108.46 139.484 108.47 139.945L108.946 155.823Z" fill="black"/>
<path d="M126.004 155.292C126.146 155.963 125.7 156.624 125.011 156.754L124.595 156.834C123.916 156.964 123.247 156.534 123.115 155.853L120.277 141.658C120.135 140.987 120.581 140.325 121.271 140.195L121.686 140.115C122.365 139.985 123.034 140.416 123.166 141.097L126.004 155.292Z" fill="black"/>
<path d="M78.2559 156.434C78.043 156.885 77.4957 157.085 77.0295 156.885L75.6612 156.264C75.195 156.053 74.9923 155.512 75.2051 155.051L81.631 141.187C81.8438 140.736 82.3912 140.536 82.8574 140.736L84.2257 141.357C84.6919 141.568 84.8946 142.109 84.6818 142.57L78.2559 156.434Z" fill="black"/>
<path d="M94.8476 157.255C94.726 157.796 94.1787 158.147 93.6313 158.027L93.0334 157.896C92.486 157.776 92.1313 157.235 92.2529 156.694L94.9692 144.483C95.0908 143.942 95.6382 143.591 96.1855 143.712L96.7835 143.842C97.3308 143.962 97.6855 144.503 97.5639 145.044L94.8476 157.255Z" fill="black"/>
<path d="M177.472 159.69C177.086 160.09 176.448 160.11 176.043 159.74L165.269 149.772C164.863 149.392 164.843 148.761 165.218 148.36L165.258 148.32C165.644 147.919 166.282 147.899 166.688 148.27L177.461 158.237C177.867 158.618 177.887 159.249 177.512 159.65L177.472 159.69Z" fill="black"/>
<path d="M181.627 74.8009C176.083 68.3196 168.785 65.2742 159.755 65.6449C159.36 65.6649 159.147 65.4746 159.116 65.0839C157.9 49.3764 150.309 37.7661 134.011 34.5905C123.45 32.5269 113.416 36.8445 105.571 43.8568C104.861 44.4879 103.787 44.5279 103.037 43.9369C96.388 38.7278 86.7492 38.5675 79.2793 42.5345C72.3163 46.2309 68.3533 53.0729 67.6438 60.7764C67.6033 61.2071 67.2587 61.5678 66.8127 61.6279C59.8091 62.5996 53.586 65.3243 48.1432 69.8022C37.9166 78.2069 34.0955 89.3263 36.6801 103.181C38.545 113.128 45.4574 122.104 54.559 126.822C59.7686 129.517 66.7215 130.619 72.6812 130.729C89.5161 131.009 108.054 130.428 125.639 130.478C134.528 130.508 143.143 130.589 151.464 130.719C163.667 130.919 173.346 126.792 180.502 118.347C182.833 115.592 184.81 112.637 186.441 109.462C192.188 98.252 189.735 84.2675 181.627 74.8009ZM73.0866 55.4571C73.2893 54.7458 73.5528 54.0646 73.8873 53.4135C77.7185 45.8102 88.4722 40.9417 96.4387 45.6098C98.0806 46.5615 99.7732 47.5733 101.506 48.6451C103.341 49.7771 105.115 49.6669 106.807 48.3346C109.878 45.9003 112.807 43.8267 115.595 42.1037C122.923 37.5658 130.707 36.7744 138.926 39.7195C150.116 43.7265 154.707 56.2985 154.038 67.2577C154.028 67.428 153.957 67.5783 153.826 67.6885L151.363 69.7421C151.221 69.8623 151.16 69.8322 151.18 69.6519C151.677 64.5029 151.525 60.4157 150.724 57.3905C148.089 47.4731 140.345 40.1302 129.744 40.7513C121.929 41.2021 116.324 45.72 109.98 49.6569C108.287 50.7088 106.483 51.4 104.567 51.7305C103.341 51.9409 102.074 51.7105 100.777 51.0494C95.6886 48.4448 91.5432 45.2893 85.4113 47.2427C80.6476 48.7654 77.6273 51.8107 75.9245 56.5089C75.3975 57.9614 74.8806 59.4741 74.3637 61.0468C74.2218 61.4676 73.9278 61.6579 73.4819 61.6078C72.0528 61.4475 71.921 59.394 73.0866 55.4571ZM142.362 90.8089C139.332 89.6168 135.561 89.5768 132.288 88.9056C131.872 88.8154 131.578 88.4448 131.599 88.0241C131.943 80.1002 129.5 73.2282 122.132 69.692C112.503 65.0539 101.364 69.6619 98.8205 80.1503C98.3441 82.1438 98.0401 84.5179 97.9184 87.2928C97.9184 87.6234 97.7258 87.8137 97.3914 87.8638C93.1953 88.4147 90.0128 89.0358 87.8438 89.717C80.0192 92.1713 76.8975 97.6209 78.4685 106.066C78.9043 108.4 78.3367 108.68 76.7455 106.887C76.0056 106.046 75.4887 104.924 75.215 103.511C73.117 92.7023 82.2794 85.2692 92.4047 84.9988C93.55 84.9687 94.1683 84.3977 94.2697 83.2757C95.415 70.824 106.159 62.3091 118.858 64.5029C123.754 65.3444 127.818 67.6083 131.061 71.2948C134.72 75.442 136.261 80.1503 135.683 85.4195C135.643 85.8402 135.835 86.0506 136.261 86.0406C140.579 85.9705 144.187 86.9121 147.075 88.8655C152.417 92.4618 155.366 99.8848 151.302 105.525C151.038 105.895 150.765 106.106 150.481 106.156C150.258 106.186 150.045 106.156 149.842 106.066C149.528 105.905 149.396 105.655 149.467 105.304C150.856 98.0516 148.484 93.2232 142.362 90.8089ZM177.897 114.25C173.245 120.511 167.62 124.358 161.012 125.79C159.005 126.221 156.562 126.511 153.694 126.642C151.575 126.732 149.082 126.752 146.224 126.682C125.294 126.181 104.354 126.121 83.4146 126.501C68.7385 126.772 55.6536 126.241 46.9675 112.767C43.0046 106.617 39.3051 95.6274 42.4978 88.6752C43.3492 86.832 42.883 85.3394 43.5215 83.6564C46.7952 75.0213 52.7346 69.4015 61.3295 66.8069C63.9444 66.0155 66.6506 65.675 69.448 65.7751C72.2453 65.8753 75.0225 66.0456 77.7793 66.296C77.8502 66.296 77.8807 66.3361 77.8705 66.3962V66.6767C77.8604 66.9772 77.6982 67.1275 77.3941 67.1375C72.3366 67.2377 68.5662 67.5683 66.1033 68.1393C60.0321 69.5217 54.9543 72.5069 50.8697 77.1049C48.7108 79.5392 47.5757 81.5327 47.4743 83.0954C47.3527 85.0088 47.15 86.2009 46.8662 86.6717C44.2208 91.1595 44.5148 96.8395 45.5993 101.908C48.275 114.46 56.88 122.004 69.7115 122.845C81.2253 123.596 92.9115 123.085 104.456 122.985C110.78 122.925 117.135 122.975 123.51 123.136C131.73 123.336 140.001 123.416 148.211 123.767C154.099 124.017 159.126 123.436 163.272 122.024C173.316 118.598 180.066 108.069 181.921 98.1518C182.904 92.9126 182.033 88.0441 179.326 83.5462C173.336 73.6389 164.498 69.9825 152.812 72.567C150.633 73.0479 150.542 72.7774 152.518 71.7656C163.616 66.0857 175.465 71.2247 181.009 81.5427C186.806 92.3516 185.063 104.583 177.897 114.25Z" fill="black"/>
</g>
<defs>
<clipPath id="clip0_2023_114">
<rect width="220" height="160" fill="white"/>
</clipPath>
</defs>
</svg>
