<svg width="125" height="120" viewBox="0 0 125 120" fill="none" xmlns="http://www.w3.org/2000/svg">
<g clip-path="url(#clip0_2085_2)">
<path d="M123.746 46.7991C125.285 42.1533 125.413 37.7126 124.129 33.4691C121.41 24.5192 114.538 21.8624 106.194 20.4352C105.947 20.3973 105.774 20.253 105.691 20.0177C105.361 19.0916 105.03 18.1655 104.7 17.2318C101.027 6.77885 93.6749 1.09312 82.6424 0.159419C73.1645 -0.645236 65.5417 1.58654 59.7663 6.86235C59.556 7.05213 59.3457 7.05213 59.1354 6.84717C57.7611 5.51114 56.1088 4.42561 54.1937 3.59059C45.4368 -0.212544 36.9803 -0.0683131 28.8167 4.02329C21.712 7.58351 17.9494 14.8254 16.1695 22.5683C16.0719 22.9858 15.9442 23.335 15.7865 23.6159C15.5387 24.0638 15.3058 24.3522 15.0956 24.4965C12.85 25.9919 10.3791 27.5177 8.58419 29.3244C1.53961 36.4297 1.28427 45.6301 5.79039 54.6179C5.90305 54.8456 5.88052 55.1189 5.73031 55.3239C5.16705 56.1134 4.37847 56.7207 3.80019 57.5101C-2.35068 65.7616 -0.563246 76.4879 5.82795 84.0334C11.5507 90.7895 18.7756 93.2566 27.4949 91.4271C27.923 91.336 28.261 91.4727 28.5088 91.8295C30.6117 94.8128 32.5343 97.8036 34.2691 100.802C34.9676 102.009 35.3431 103.307 35.3957 104.696C35.5834 109.175 35.253 113.608 34.3968 117.988C34.2616 118.687 34.3142 119.211 34.562 119.56C34.9526 120.106 35.7411 120.152 36.1993 119.658C41.5691 113.836 48.531 109.418 55.1175 104.879C55.4705 104.636 55.8084 104.651 56.1314 104.932C61.1332 109.243 66.8484 111.498 73.525 110.853C83.9041 109.836 89.7546 103.322 93.4271 93.955C93.6749 93.3173 94.3508 92.9605 95.0042 93.1124C101.553 94.6382 107.982 93.4464 114.283 89.5369C122.274 84.58 124.685 75.038 123.355 65.997C122.822 62.3532 121.455 59.1422 119.24 56.3715C119.097 56.1969 119.097 56.0147 119.24 55.8401C121.02 53.5096 122.522 50.496 123.746 46.7991ZM114.313 56.9256C116.371 58.5653 117.903 60.3036 118.669 62.915C120.719 69.9216 119.81 79.4863 114.073 84.4509C109.274 88.6108 103.13 90.2353 96.7391 89.2864C95.0493 89.0359 93.2694 88.8765 91.3993 88.793C90.8135 88.7702 90.2728 89.127 90.055 89.6812C87.7494 95.6933 85.5789 101.311 79.5182 104.233C73.863 106.966 68.2904 106.989 62.8154 104.294C60.5999 103.201 58.4295 101.326 56.4543 99.6407C56.1314 99.375 55.6732 99.3598 55.3353 99.6103C50.8141 102.988 45.8949 105.994 40.5852 108.621C40.2473 108.788 40.0745 108.682 40.052 108.302C39.9393 106.321 39.7441 104.18 39.4662 101.895C39.3836 101.22 38.978 100.339 38.2646 99.2384C35.3356 94.7672 32.7896 90.6225 30.6192 86.8117C30.3413 86.3107 29.763 86.0678 29.2072 86.2121C27.6827 86.6144 26.1356 86.9636 24.5809 87.2748C16.3873 88.9069 8.87709 83.5172 5.76035 75.9565C2.8539 68.8968 4.13064 59.9696 11.5282 56.5461C12.0539 56.3031 12.2191 55.6275 11.8662 55.1645C8.57668 50.83 6.39121 46.1918 7.29244 40.6807C8.37391 34.0688 13.6235 29.5901 19.7444 27.8593C20.2926 27.7075 20.6681 27.2065 20.6681 26.6372C20.7207 17.7328 23.8149 10.9236 32.2188 7.10527C38.242 4.37248 44.4304 4.37248 50.7766 7.11286C53.9158 8.47167 56.2665 10.711 58.6247 13.2237C58.9176 13.5273 59.3983 13.5273 59.6837 13.2237C63.6115 9.09414 67.3141 6.13361 72.9617 4.78999C83.4986 2.30011 94.6362 5.53391 99.593 15.7515C100.772 18.1807 101.358 21.0729 101.658 23.7449C101.696 24.1169 101.899 24.3219 102.267 24.3674C104.91 24.6938 107.081 25.0582 108.77 25.4681C124.354 29.2409 122.732 45.5314 114.163 55.1265C113.69 55.6579 113.757 56.4777 114.313 56.9256Z" fill="black"/>
<path d="M116.191 48.8942C120.081 40.749 118.451 34.3801 111.294 29.7874C108.267 27.8441 104.527 26.9863 100.074 27.2217C99.8408 27.2292 99.6981 27.123 99.6455 26.8876C98.5866 21.7105 97.062 17.08 93.1943 13.5121C87.9446 8.68421 79.8486 7.53036 73.0894 9.375C67.9074 10.7945 62.9807 14.4534 59.0153 18.2869C58.8125 18.4843 58.6248 18.4691 58.452 18.2414C52.917 11.1058 43.2739 7.56073 34.7273 11.0374C27.6752 13.9069 24.273 19.3725 24.5059 27.4418C24.5359 28.5425 24.8513 29.3699 25.0466 30.4175C25.1067 30.7591 24.9715 30.9261 24.6335 30.9337C23.3268 30.9489 21.8172 30.9261 20.6005 31.4195C11.5282 35.0936 7.98339 44.4686 13.1279 52.9099C13.9841 54.3143 14.9754 55.6655 16.1019 56.9636C16.4699 57.3887 16.2221 58.0643 15.6663 58.1402C12.7674 58.5425 10.6495 60.2353 9.30519 63.2262C6.57898 69.3143 8.63678 77.4975 14.0066 81.3613C18.8356 84.8456 24.1679 84.0562 29.6729 82.7201C30.6117 82.4848 31.588 82.8795 32.1137 83.6994C34.9 88.0491 37.7313 92.4216 40.6228 96.8092C42.3126 99.3826 42.1924 100.688 41.6967 103.413C41.5916 104.013 42.1774 104.507 42.7407 104.286C43.9874 103.808 45.1965 103.178 46.3681 102.396C49.5825 100.248 52.7518 98.001 55.8835 95.6478C56.2065 95.4049 56.5069 95.4352 56.7772 95.7465C63.6641 103.611 74.8844 105.228 82.1167 96.5891C84.52 93.7196 86.5177 90.2049 88.1099 86.045C88.4478 85.1569 89.0712 84.8608 89.9649 85.1645C97.9182 87.8517 105.008 86.5992 111.219 81.3993C113.247 79.7065 114.643 77.4975 115.319 74.9772C117.197 68.0162 115.68 62.0875 110.776 57.2065C110.565 57.0015 110.573 56.6523 110.783 56.4474C113.014 54.2991 114.816 51.7788 116.191 48.8942ZM43.4316 15.1974C37.138 16.0476 31.8584 20.2834 29.2974 26.0906C28.689 27.4494 28.4187 27.3887 28.4863 25.9008C28.7642 19.5091 35.1478 14.795 40.818 13.8993C41.892 13.7247 42.8158 13.8917 43.6043 14.4003C44.2577 14.8254 44.2052 15.0911 43.4316 15.1974Z" fill="black"/>
</g>
<defs>
<clipPath id="clip0_2085_2">
<rect width="125" height="120" fill="white"/>
</clipPath>
</defs>
</svg>
