<svg width="176" height="80" viewBox="0 0 176 80" fill="none" xmlns="http://www.w3.org/2000/svg">
<g clip-path="url(#clip0_2212_2)">
<path d="M172.555 19.6155C170.65 18.8525 168.979 18.9817 167.556 20.0264C164.651 22.1746 163.945 24.8863 165.463 28.1849C165.686 28.6779 165.522 29.2531 165.075 29.5583C159.394 33.3969 153.489 36.9538 147.35 40.2172C142.563 42.7645 137.082 44.8423 131.919 47.0961C131.354 47.3426 130.707 47.0844 130.472 46.5209C125.967 35.6977 122.498 24.628 120.063 13.3001C119.981 12.9127 120.087 12.5957 120.357 12.3257C122.321 10.4123 124.615 8.63976 124.486 5.71679C124.333 2.32428 121.404 0.0821657 118.134 0.63389C114.3 1.29126 111.701 6.62068 114.476 9.75495C114.77 10.0954 114.994 10.4945 115.147 10.9523C115.264 11.3279 115.206 11.6801 114.982 12.0088C106.808 23.6654 98.4219 35.0873 89.8007 46.2861C89.6361 46.4974 89.3185 46.4974 89.1538 46.2861C85.8018 42.0249 82.6615 37.5642 79.7446 32.9039C75.2399 25.7197 70.6765 18.5591 66.0659 11.4219C65.8542 11.0932 65.8189 10.741 65.9483 10.3771C66.607 8.54585 67.2774 6.96111 67.0421 5.04768C66.4541 0.387375 61.4554 -1.57301 57.9858 1.45561C55.9981 3.19295 55.5041 7.36023 57.8093 9.34409C58.4209 9.87233 59.009 10.4241 59.5736 10.9875C59.8558 11.2693 59.9852 11.6684 59.9264 12.0558C59.6912 13.5231 59.2678 15.1196 58.6444 16.8335C54.7513 27.6332 50.8347 37.5994 46.8829 46.7439C46.7064 47.1548 46.3889 47.3074 45.9537 47.2018C32.8631 44.1027 22.3248 36.9186 10.9984 30.2392C10.4574 29.9222 10.2574 29.2296 10.5514 28.6779C13.6565 22.8555 6.57605 16 2.15371 21.2003C0.107198 23.6185 -0.0809863 25.9897 1.57739 28.3023C2.08314 28.9949 2.95349 29.7696 4.20022 30.6266C5.41165 31.46 6.17615 32.4226 6.48195 33.5143C10.6573 48.2817 14.7503 63.0844 18.7728 77.9222C19.1491 79.3191 20.0548 80.0117 21.5014 80L154.042 79.9296C155.16 79.9296 156.148 79.19 156.465 78.1218C160.993 62.4974 165.345 47.4952 169.532 33.1387C170.344 30.3448 172.896 30.4622 174.272 28.4314C176.119 25.6963 176.025 21.0125 172.555 19.6155ZM162.863 36.719C160.57 46.0279 157.724 55.4307 154.325 64.9274C154.125 65.4673 153.878 65.9839 153.584 66.4769C153.384 66.8173 153.313 67.1695 153.348 67.5569C153.454 68.719 153.207 69.7755 152.631 70.7498C152.431 71.0668 152.313 71.4189 152.278 71.7828L151.984 74.5532C151.937 74.9875 151.702 75.1988 151.267 75.1988C145.621 75.2575 139.999 75.4336 134.389 75.7153C129.672 75.9501 124.968 75.9501 120.263 75.7271C119.934 75.7153 119.851 75.5627 120.016 75.281C120.063 75.1988 120.134 75.1166 120.24 75.058C120.404 74.964 120.475 74.8232 120.44 74.6354C120.051 72.3815 119.969 69.8577 120.204 67.0638C120.204 67.0169 120.181 66.9934 120.146 66.9817L119.746 66.8877C119.487 66.829 119.322 66.923 119.263 67.193C118.687 69.5642 118.852 71.6537 118.711 74.0132C118.675 74.5062 118.852 74.8819 119.228 75.1284C119.616 75.3749 119.581 75.5745 119.146 75.7036C118.546 75.8797 118.028 75.8679 117.581 75.6449C117.311 75.5158 117.276 75.3279 117.464 75.1049C117.581 74.9523 117.64 74.788 117.64 74.6001C117.558 71.7007 117.546 68.7425 117.593 65.7256C117.605 65.526 117.452 65.35 117.252 65.3147L116.911 65.2678C116.77 65.2443 116.688 65.303 116.676 65.4556L116.452 67.6038C116.358 68.4725 115.9 68.766 115.065 68.4725C114.559 68.2964 114.159 68.2729 113.853 68.3903C113.394 68.5664 113.336 68.8364 113.688 69.1768C114.265 69.7403 114.865 69.8224 115.511 69.4351C116.123 69.0712 116.876 69.5994 116.723 70.292C116.264 72.3463 116.135 74.0719 116.323 75.4571C116.358 75.6566 116.276 75.7505 116.076 75.7505C114.806 75.7858 113.536 75.8092 112.265 75.8445C112.124 75.8445 112.054 75.774 112.054 75.6332L112.007 64.7395C112.007 64.3756 111.818 64.1878 111.454 64.1996H111.054C110.877 64.2113 110.795 64.2935 110.795 64.4695L110.642 75.4923C110.642 75.7153 110.525 75.821 110.301 75.821L34.4744 75.551C34.0628 75.551 33.8746 75.3397 33.9099 74.9288C34.251 71.5246 34.2745 68.1203 33.9569 64.7161C33.8981 64.1643 33.6629 64.0704 33.2512 64.4343L32.8631 64.7748C32.5455 65.0565 32.3926 65.4673 32.4632 65.8899C32.9454 68.719 33.0395 71.6889 32.7572 74.8232C32.722 75.234 32.5103 75.4219 32.0986 75.4101L24.7829 75.1519C24.4183 75.1401 24.1713 74.9758 24.0184 74.6471C23.4068 73.3441 23.1363 72.0293 23.1951 70.7029C23.2069 70.5737 23.1833 70.4446 23.1363 70.3155L22.2895 67.8151C22.0425 67.0756 22.1719 66.9934 22.7011 67.5686C23.1598 68.0968 23.5832 68.6486 23.9596 69.2355C24.1713 69.5759 24.2536 69.9281 24.2184 70.3155C24.089 71.5246 24.2536 72.6985 24.7359 73.8371C24.9005 74.2245 25.1946 74.4358 25.6062 74.471L27.6292 74.6588C28.135 74.7058 28.4172 74.4828 28.4878 73.978C28.7466 72.1585 28.0291 71.1372 26.3472 70.8907C25.9826 70.8437 25.8415 70.6442 25.912 70.2803C26.2413 68.719 25.6297 67.6742 24.0655 67.146C21.525 66.2656 20.1489 61.077 19.3961 58.8232C19.0903 57.8723 19.2315 56.3111 18.2435 55.2781C17.973 55.0081 17.8201 54.6794 17.7848 54.292L17.3849 50.8995C17.3496 50.5591 17.2085 50.2538 16.985 49.9839C16.5616 49.5026 16.3264 48.9626 16.2676 48.3404C16.2323 47.9296 16.4205 47.683 16.8086 47.5774L17.2908 47.4483C17.7495 47.3191 17.8789 47.0374 17.7025 46.6031C17.5849 46.3096 17.4084 46.0748 17.185 45.8987C16.8204 45.617 16.5851 45.6992 16.4557 46.1335L16.244 46.8965C16.1382 47.237 15.95 47.3074 15.656 47.1078C15.5148 47.0139 15.4443 46.8378 15.4443 46.5913C15.4795 44.6427 15.1267 42.9406 14.3622 41.4967C13.5506 39.9237 13.0449 38.2803 12.8567 36.5547C12.8214 36.1555 12.9626 36.0616 13.3037 36.2847C18.1612 39.4776 22.9364 42.9875 28.0409 45.4057C34.498 48.4695 41.0609 51.1108 47.7415 53.3529C48.4119 53.5759 49.1411 53.2355 49.3998 52.5781C52.9753 43.4923 56.7626 34.5004 60.7497 25.6141C61.9259 22.9963 62.7609 20.0734 63.7607 17.3852C64.0312 16.6456 64.3135 16.6456 64.6075 17.3734C67.1833 23.6185 72.1937 29.3822 75.0165 33.6199C78.8625 39.372 82.6497 45.1592 86.3781 50.9699C86.8839 51.7447 87.319 52.3316 87.6954 52.7425C88.507 53.6111 89.9066 53.5407 90.6123 52.5899L115.888 18.7704C115.994 18.6412 116.111 18.6177 116.252 18.7117L116.699 18.9934C116.782 19.0403 116.793 19.1108 116.746 19.193C114.723 22.7968 112.912 26.2715 111.324 29.6288C111.03 30.2392 111.124 30.2979 111.595 29.8166C113.512 27.8327 115.088 25.5436 116.323 22.9376C116.499 22.5737 116.676 22.5737 116.852 22.9376C117.393 23.9706 117.581 25.1445 117.405 26.4593C116.652 26.6941 116.064 27.0932 115.641 27.6684C115.347 28.0792 115.241 28.5018 115.335 28.9244C115.453 29.4527 115.817 29.8048 116.417 29.9574C116.452 29.9692 116.488 29.9574 116.488 29.9105C116.688 28.1379 116.97 27.0814 117.358 26.741C117.84 26.6119 118.193 26.7762 118.393 27.2223C121.886 35.0638 123.992 45.7344 127.767 52.3786C127.92 52.6603 128.155 52.7542 128.473 52.6486C137.694 49.7373 146.491 45.8987 154.866 41.1445C157.571 39.6067 159.888 37.9281 161.817 36.1086C162.863 35.1225 163.205 35.3221 162.863 36.719Z" fill="black"/>
<path d="M117.405 26.4595C117.405 26.5534 117.37 26.6473 117.358 26.7412C116.97 27.0816 116.688 28.1381 116.488 29.9107C116.488 29.9459 116.452 29.9694 116.417 29.9576C115.817 29.805 115.453 29.4529 115.335 28.9246C115.241 28.502 115.335 28.0794 115.641 27.6686C116.064 27.0934 116.652 26.6942 117.405 26.4595Z" fill="black"/>
<path d="M64.4781 32.3052C64.2899 32.2113 64.4075 31.5891 64.7486 30.9083C65.0897 30.2274 65.5131 29.7579 65.713 29.8518C65.9012 29.9457 65.7836 30.5679 65.4425 31.2487C65.1014 31.9296 64.678 32.3991 64.4781 32.3052Z" fill="black"/>
<path d="M110.43 31.1198V31.0376C110.43 31.0376 110.43 31.0611 110.43 31.0728C110.619 31.5776 110.736 32.0824 110.795 32.5989C110.842 32.9862 110.677 33.1506 110.289 33.0802C110.172 33.0567 110.054 33.0097 109.948 32.9275C109.748 32.7749 109.701 32.5871 109.795 32.3641C109.948 31.965 110.16 31.5893 110.407 31.2489C110.43 31.2137 110.442 31.1667 110.442 31.1198H110.43Z" fill="black"/>
<path d="M62.5374 34.242L63.9488 32.986C64.4075 32.5751 64.5487 32.669 64.3722 33.256C64.1605 33.972 63.643 34.4651 62.8315 34.7351C62.5257 34.8407 62.3022 34.4533 62.5374 34.242Z" fill="black"/>
<path d="M62.761 47.4368C63.1844 47.2372 63.5607 47.2372 63.9018 47.4368C64.2664 47.6481 64.2782 47.8829 63.9489 48.1528C63.6078 48.4228 63.2079 48.4346 62.7492 48.1881C62.4434 48.0355 62.4552 47.5894 62.761 47.4368Z" fill="black"/>
<path d="M20.2076 50.9815C20.8428 51.0402 21.3015 51.2515 21.572 51.6271C21.8425 52.0028 21.7484 52.2141 21.2779 52.2728C20.537 52.3549 20.0194 52.2728 19.7372 52.0263C18.8315 51.2163 18.9962 50.8641 20.2076 50.9815Z" fill="black"/>
<path d="M23.5361 51.3573C24.5124 51.0052 24.6182 51.1695 23.8302 51.8504C23.8067 51.8738 23.7243 51.9912 23.5714 52.1908C23.395 52.4138 23.3009 52.6721 23.2892 52.9655L23.2656 53.3999C23.2303 54.0455 23.0539 54.0807 22.7364 53.529C22.607 53.306 22.5129 53.0595 22.4776 52.8129C22.4188 52.496 22.5011 52.2025 22.7246 51.9325C22.9716 51.6508 23.2421 51.463 23.5361 51.3573Z" fill="black"/>
<path d="M108.196 53.7756C108.196 53.9165 107.22 54.0339 106.02 54.0456C104.82 54.0574 103.844 53.94 103.844 53.7991C103.844 53.6583 104.82 53.5409 106.02 53.5291C107.22 53.5174 108.196 53.6348 108.196 53.7756Z" fill="black"/>
<path d="M62.3257 53.7988C62.8903 53.4467 63.3843 53.4819 63.8194 53.8928C64.137 54.2097 64.1135 54.4914 63.7489 54.7497C63.2667 55.0901 62.7727 55.0549 62.2669 54.644C61.9964 54.4093 62.0199 53.9867 62.3257 53.7988Z" fill="black"/>
<path d="M32.6161 59.6684L33.4511 63.4483C33.557 63.9296 33.4747 63.9648 33.2159 63.5539C32.3103 62.1218 31.9339 60.8423 32.075 59.7036C32.2044 58.6471 32.3926 58.6354 32.6161 59.6684Z" fill="black"/>
<path d="M42.3429 74.201C42.3429 74.4945 42.1076 74.741 41.8018 74.741H41.7313C41.4372 74.741 41.1902 74.4945 41.1902 74.201V65.9604C41.2138 65.6669 41.449 65.4204 41.743 65.4204H41.8136C42.1076 65.4204 42.3546 65.6669 42.3546 65.9604V74.201H42.3429Z" fill="black"/>
<path d="M100.057 69.5288C99.8098 70.0805 99.551 70.0805 99.3041 69.5288C99.0335 68.9536 99.01 68.2962 99.2452 67.5567C99.3746 67.1341 99.5863 67.0989 99.8686 67.451C100.351 68.0615 100.41 68.7541 100.057 69.5288Z" fill="black"/>
<path d="M49.5527 74.5884C49.588 72.5576 49.6939 70.5385 49.8703 68.5429C49.8821 68.3786 49.9761 68.2964 50.1408 68.2964H50.1526C50.3172 68.3081 50.3996 68.3903 50.4113 68.5546C50.5054 70.5033 50.5525 72.4754 50.5407 74.4593C50.5407 74.7293 50.4113 74.8584 50.1408 74.8466H49.8115C49.6351 74.8466 49.5527 74.7645 49.5527 74.5884Z" fill="black"/>
<path d="M65.3602 25.0391C64.9486 24.7808 64.4193 25.0626 64.4075 25.5438C64.3723 26.9173 63.9841 27.9151 63.2196 28.5607C62.8785 28.8425 62.7727 28.772 62.9021 28.3494L64.6663 22.3626C64.7251 22.1396 64.8662 22.0574 65.0897 22.1396L65.419 22.257C65.7836 22.3861 65.9483 22.6444 65.8895 23.0317C65.7366 24.0061 66.0542 24.8043 66.8304 25.4265C67.1362 25.673 67.3832 25.9547 67.5714 26.2951C68.6182 28.1616 69.7002 29.9811 70.8293 31.7537C70.9117 31.8945 70.947 32.0941 70.9352 32.3406C70.9117 32.7163 70.7588 32.775 70.4883 32.5284L69.8531 31.9532C69.5591 31.6832 69.3944 31.3546 69.3474 30.9554C69.2415 29.8403 68.724 28.9598 67.8066 28.3142C67.4891 28.0912 67.2774 27.7977 67.1833 27.4221C66.9363 26.4595 66.3364 25.6612 65.3602 25.0391Z" fill="black"/>
<path d="M117.652 34.5004C118.334 33.843 118.134 32.6926 117.252 32.3169C116.935 32.1761 116.711 31.8943 116.605 31.4717C116.488 31.0139 116.664 30.8379 117.123 30.967C117.617 31.0961 117.946 31.4365 118.099 31.9883C118.534 33.526 119.122 36.1555 119.863 39.865C119.91 40.0998 119.863 40.135 119.675 39.9824C119.557 39.8767 119.499 39.7359 119.499 39.5715C119.487 38.2216 118.311 36.2025 117.44 35.2047C117.299 35.0521 117.299 34.8877 117.44 34.7234C117.523 34.6412 117.593 34.5591 117.652 34.5004Z" fill="black"/>
<path d="M157.512 48.1411C157.641 49.7845 157.347 51.381 156.606 52.9423C156.43 53.3062 156.159 53.4118 155.783 53.2827C155.171 53.0596 154.607 52.7192 154.078 52.2379C153.784 51.9679 153.831 51.8036 154.219 51.7332C156.242 51.3927 157.159 50.0193 156.959 47.6363C156.959 47.4133 156.994 47.1902 157.124 46.9907C157.477 46.4272 157.653 46.4742 157.653 47.1315C157.653 47.2607 157.618 47.3781 157.582 47.5072C157.524 47.7185 157.5 47.9298 157.512 48.1411Z" fill="black"/>
<path d="M150.761 50.9816C149.879 50.8055 149.067 51.052 148.303 50.8642C147.703 50.7234 147.691 50.5473 148.267 50.3242C149.726 49.796 150.855 49.6082 151.666 49.7725C153.325 50.1129 153.337 50.5238 151.725 51.0168C151.525 51.0755 151.196 51.0638 150.761 50.9816Z" fill="black"/>
<path d="M26.0296 55.3252C25.7709 54.2217 25.665 53.6113 25.7238 53.5057C26.3001 52.2848 26.7941 52.3201 27.2058 53.6113C27.4293 54.3391 27.1705 54.9613 26.406 55.4661C26.2061 55.5952 26.0884 55.5482 26.0296 55.3252Z" fill="black"/>
<path d="M154.089 58.0838C154.172 57.4616 154.042 56.9099 153.701 56.4051C153.478 56.0882 153.548 55.8534 153.913 55.7125C154.313 55.5482 154.724 55.513 155.148 55.6069C155.559 55.6891 155.736 55.9473 155.654 56.3699L154.866 60.6781C154.819 60.9363 154.713 61.1828 154.548 61.3941C153.419 62.8263 152.96 64.4227 153.16 66.1718C153.219 66.7001 152.972 67.0053 152.443 67.064C150.702 67.2635 149.055 67.7331 147.503 68.4726C147.303 68.5665 147.079 68.3905 147.126 68.1674L147.997 64.458C148.079 64.141 148.279 63.9532 148.597 63.8945C148.773 63.8593 148.95 63.9062 149.149 64.0236C149.491 64.2232 149.514 64.458 149.208 64.7162C148.773 65.0684 148.526 65.491 148.467 65.9957C148.432 66.4066 148.597 66.7001 148.985 66.8644C150.09 67.3457 150.925 67.0992 151.49 66.1249C151.96 65.3266 151.937 64.4814 151.431 63.5893C151.278 63.3193 151.349 63.1784 151.666 63.1667C152.396 63.1549 152.784 62.8263 152.819 62.2041C152.878 61.488 152.901 60.8189 152.89 60.185C152.878 59.2107 152.431 58.8468 151.572 59.1051C151.349 59.1755 151.137 59.1285 150.961 58.9759C150.855 58.8703 150.796 58.7881 150.784 58.7059C150.69 58.0955 151.372 57.6729 151.878 58.0251C152.384 58.3772 152.878 58.5768 153.372 58.6355C153.795 58.6942 154.03 58.5064 154.089 58.0838Z" fill="black"/>
<path d="M22.4658 59.6099C21.4308 59.8564 20.631 59.3986 20.0783 58.2365C19.8195 57.7082 19.9842 57.4852 20.5722 57.5674C22.6893 57.8961 24.7593 58.5182 26.7706 59.4456C27.0293 59.5747 27.1352 59.786 27.0999 60.0795C27.0411 60.4199 26.653 60.6077 26.3589 60.4199C25.0299 59.5864 23.7243 59.3165 22.4658 59.6099Z" fill="black"/>
<path d="M148.714 60.2085C148.35 60.1732 148.079 59.7037 148.126 59.152C148.173 58.6002 148.514 58.1777 148.879 58.2011C149.244 58.2363 149.514 58.7059 149.467 59.2576C149.42 59.8093 149.079 60.2319 148.714 60.2085Z" fill="black"/>
<path d="M151.114 71.1958C151.337 71.9823 151.325 72.8157 151.055 73.6844C150.961 74.0131 150.737 74.1774 150.396 74.1892L139.011 74.377C138.705 74.377 138.576 74.2244 138.611 73.9192C139.07 70.4914 138.258 67.2515 139.987 64.7864C140.211 64.4694 140.328 64.1173 140.317 63.7299C140.317 62.1686 140.317 60.6191 140.328 59.0578C140.328 58.9287 140.399 58.8583 140.54 58.8465C140.681 58.8465 140.752 58.917 140.763 59.0461C140.869 60.8891 140.822 62.7673 140.634 64.6807C140.222 68.848 140.763 68.9654 142.234 65.0564C142.775 63.6125 142.845 61.9104 142.434 59.95C142.316 59.3513 142.398 58.9522 142.681 58.7291C143.022 58.4592 143.527 58.7291 143.492 59.1635C143.245 61.7578 143.328 64.352 143.739 66.9463C143.892 67.8854 143.033 68.6719 142.116 68.4489C141.646 68.3315 141.14 68.308 140.599 68.3784C140.199 68.4254 139.94 68.6484 139.834 69.0358C139.517 70.2684 139.564 71.4423 139.999 72.5809C140.152 72.9918 140.399 73.0505 140.74 72.7805L141.046 72.534C141.269 72.3579 141.516 72.2992 141.787 72.3696C142.763 72.5927 143.727 72.5809 144.657 72.3109C145.021 72.2053 145.386 72.217 145.75 72.3696L146.209 72.5457C146.527 72.6749 146.809 72.6162 147.056 72.3696C147.256 72.1701 147.362 71.9118 147.362 71.6184C147.35 71.1605 147.103 70.9258 146.644 70.9258H141.552C141.352 70.914 141.234 70.8201 141.21 70.6206L141.163 70.198C141.128 69.9045 141.269 69.7284 141.563 69.6932C142.257 69.5993 142.916 69.6228 143.539 69.7754C143.892 69.8575 144.221 69.7988 144.539 69.611C144.892 69.388 145.268 69.3645 145.656 69.5406C145.88 69.6462 146.127 69.6932 146.374 69.6932L149.643 69.6462C149.985 69.6345 150.255 69.4936 150.431 69.2002C150.737 68.7071 151.184 68.4489 151.784 68.4371C152.396 68.4137 152.678 69.1767 152.207 69.5641L151.419 70.2097C151.102 70.4797 150.996 70.8084 151.114 71.1958Z" fill="black"/>
<path d="M145.08 60.7012C144.633 60.4546 144.562 59.7621 144.904 59.1399C145.245 58.5295 145.88 58.2243 146.327 58.459C146.774 58.7056 146.844 59.3981 146.503 60.0203C146.162 60.6307 145.527 60.9359 145.08 60.7012Z" fill="black"/>
<path d="M30.4755 59.0345C30.7695 61.2296 30.3108 63.3309 30.8048 65.4438C30.8519 65.6669 30.8401 65.9017 30.7813 66.1482C30.0638 68.7542 30.3579 71.1959 31.6634 73.4732C31.8634 73.8254 31.8163 74.1306 31.5105 74.4006C31.1224 74.741 30.6166 74.8466 30.0168 74.7175C29.6522 74.6353 29.464 74.4123 29.464 74.0249L29.3111 59.6684C29.3111 59.4336 29.4287 59.2105 29.6169 59.0579L29.9345 58.8114C30.1462 58.6471 30.4402 58.7762 30.4755 59.0345Z" fill="black"/>
<path d="M137.47 64.7162C137.435 68.0148 137.588 71.196 137.905 74.2598C137.941 74.6589 137.764 74.8702 137.353 74.8937L136.859 74.9172C136.353 74.9524 135.941 74.4828 136.047 73.9898C136.623 71.2312 135.977 68.7191 136.553 65.8783C136.917 64.1057 137.259 62.3214 137.564 60.5489C137.6 60.3493 137.717 60.2671 137.905 60.3024L138.199 60.3611C138.199 60.3611 138.223 60.3728 138.223 60.3845C137.941 61.8519 137.482 63.2488 137.47 64.7162Z" fill="black"/>
<path d="M22.5482 63.0375C22.2777 62.7206 22.066 62.3801 21.9366 61.9928C21.7484 61.4293 21.9366 61.1945 22.5364 61.2767C23.3245 61.4058 23.6303 62.0984 23.4538 63.3545C23.4068 63.7066 23.0069 63.8944 22.7011 63.6949C22.5953 63.6127 22.56 63.5188 22.607 63.3897C22.6541 63.2723 22.6305 63.1314 22.5482 63.0375Z" fill="black"/>
<path d="M36.8267 70.48C36.8032 70.7852 36.8502 71.0787 36.9796 71.3721C37.7676 73.1799 37.4618 74.3068 36.0622 74.7529C35.6153 74.8938 35.1683 74.5299 35.2154 74.0603L36.4739 61.6759C36.4974 61.4763 36.6033 61.4176 36.7914 61.4881L37.1208 61.6289C37.1913 61.6524 37.2266 61.6994 37.2266 61.7815L37.6618 68.6487C37.6736 68.9892 37.5677 69.2826 37.3207 69.5291C37.0149 69.8343 36.8502 70.1513 36.8267 70.48Z" fill="black"/>
<path d="M109.372 74.3421C109.372 74.6356 109.125 74.8821 108.831 74.8821H108.76C108.466 74.8821 108.219 74.6356 108.219 74.3421L108.196 62.4155C108.196 62.122 108.443 61.8755 108.737 61.8755H108.807C109.101 61.8755 109.348 62.122 109.348 62.4155L109.372 74.3421Z" fill="black"/>
<path d="M146.068 66.7469C146.197 67.7212 145.821 68.226 144.915 68.2612C144.386 68.2847 143.998 67.7682 144.174 67.2752L145.586 63.2253C145.715 62.8496 145.856 62.8379 146.033 63.2018C146.386 63.9883 146.433 64.7983 146.162 65.6317C146.044 65.9956 146.009 66.3713 146.068 66.7469Z" fill="black"/>
<path d="M133.365 72.1232C132.895 69.0828 133.166 66.1011 134.165 63.2017H134.177L134.471 71.3484C134.483 71.724 134.624 72.0762 134.847 72.3697C135.365 73.0036 135.577 73.7314 135.494 74.5414C135.447 74.9757 135.212 75.2339 134.777 75.3044C134.553 75.3396 134.33 75.2926 134.118 75.14C133.942 75.0109 133.836 74.7996 133.777 74.5179C133.624 73.7431 133.483 72.9449 133.354 72.1232H133.365Z" fill="black"/>
<path d="M107.031 73.4029C107.184 73.6611 107.114 73.9781 106.878 74.1542C106.42 74.4946 105.914 74.612 105.338 74.4946C104.938 74.4124 104.761 74.1659 104.808 73.7668C105.255 70.3508 103.832 67.557 105.526 64.1058C105.702 63.7301 105.82 63.7536 105.867 64.1644C106.102 66.2187 106.208 68.3435 106.185 70.5151C106.173 71.419 106.455 72.3816 107.031 73.4029Z" fill="black"/>
<path d="M130.366 70.2684C130.084 68.5075 130.26 66.688 130.907 64.8215C131.107 64.2229 131.272 64.2346 131.39 64.8568C131.907 67.4628 131.284 70.8905 132.625 73.1444C133.754 75.0108 133.271 75.6212 131.19 74.9756C130.284 74.6939 129.272 74.7526 128.179 75.14C127.638 75.3278 127.073 74.8934 127.132 74.3182L128.073 64.622C128.155 63.7885 128.332 63.7768 128.602 64.5633C129.378 66.7702 129.378 68.6836 128.59 70.3153C128.437 70.644 128.602 71.0314 128.943 71.1605C129.143 71.2309 129.355 71.2544 129.566 71.2427C130.072 71.2192 130.449 70.7614 130.366 70.2684Z" fill="black"/>
<path d="M24.8652 64.493C26.0179 64.6691 26.9941 64.9391 27.7821 65.303C28.8759 65.8312 28.8171 66.1599 27.6057 66.2891C26.5471 66.4064 25.4768 66.4417 24.3948 66.3947C23.889 66.3712 23.6891 66.113 23.7949 65.6317L23.889 65.1739C23.9831 64.7278 24.4065 64.4226 24.8652 64.493Z" fill="black"/>
<path d="M83.9552 67.7332L84.014 74.4947C84.014 74.8469 83.7317 75.1404 83.3789 75.1521H83.0025C82.8496 75.1638 82.732 75.0582 82.7085 74.9173C82.3674 71.9709 82.3909 68.7897 82.7791 65.3854C82.8143 65.0919 83.0025 64.8337 83.2848 64.7163C84.4257 64.235 84.8609 64.5989 84.6021 65.808C84.5433 66.125 84.4139 66.4302 84.2375 66.7236C84.0493 67.0288 83.9552 67.3693 83.9552 67.7332Z" fill="black"/>
<path d="M124.497 69.0949C124.462 67.5806 124.497 66.078 124.627 64.5872C124.638 64.4228 124.78 64.2937 124.944 64.3054H125.238C125.45 64.3289 125.568 64.4346 125.591 64.6341C125.956 68.0032 126.003 71.3252 125.72 74.6004C125.673 75.1169 125.391 75.3164 124.885 75.2108L124.227 75.0582C123.65 74.9291 123.439 74.5886 123.592 74.0134C123.792 73.2974 124.003 72.4874 124.227 71.607C124.427 70.8205 124.521 69.987 124.497 69.0949Z" fill="black"/>
<path d="M50.9994 66.1484C50.3643 64.6106 50.7524 64.2819 52.152 65.1858C52.9871 65.714 53.3752 66.6297 53.3282 67.9092C53.2458 70.2922 53.2576 72.7691 52.7871 75.1168C52.7401 75.3164 52.5637 75.4573 52.3637 75.4573C52.1638 75.4455 51.9874 75.2929 51.9638 75.0934C51.5992 72.3113 52.0697 68.7544 50.9994 66.1484Z" fill="black"/>
<path d="M102.974 68.5549C103.115 68.9423 103.162 69.2827 103.127 69.5762C103.056 70.0575 102.797 70.3627 102.362 70.4683C101.962 70.5622 101.692 70.4096 101.539 70.0222C100.939 68.4375 100.927 66.8645 101.539 65.3032C101.692 64.9041 101.856 64.9041 102.033 65.3032C102.503 66.3715 102.562 67.4632 102.985 68.5666L102.974 68.5549Z" fill="black"/>
<path d="M63.1843 72.8161C64.4193 73.8843 64.9368 73.6143 64.7486 71.9944C64.4663 69.5644 64.5251 67.5101 64.925 65.808C64.9603 65.6671 65.0544 65.5967 65.2191 65.585C65.466 65.585 65.6072 65.7141 65.6189 65.9606C65.7719 68.5079 65.8659 71.0553 65.913 73.6143C65.9248 73.9547 65.7483 74.1426 65.3955 74.1778L61.7376 74.4713C61.373 74.4947 61.2084 74.3304 61.2201 73.9665C61.2437 73.2035 61.4318 72.5109 61.7847 71.877C61.9729 71.5366 62.0317 71.1844 61.9611 70.797C61.5847 68.9071 61.4906 67.6393 61.6671 66.9702C62.4786 63.965 63.0079 64.012 63.2549 67.111C63.3372 68.0853 63.3254 69.0714 63.2196 70.0457C63.1961 70.3509 63.0902 70.6561 62.9138 70.9261C62.4551 71.6305 62.5492 72.2644 63.1843 72.8161Z" fill="black"/>
<path d="M81.1089 74.1658C81.1089 74.4241 80.8972 74.6236 80.6384 74.6119H80.3797C80.1209 74.6001 79.921 74.3888 79.9327 74.1423L80.1092 65.5965C80.1092 65.3382 80.3209 65.1387 80.5796 65.1504H80.8384C81.0971 65.1621 81.2971 65.3734 81.2853 65.6199L81.1089 74.1658Z" fill="black"/>
<path d="M57.0213 72.1939C57.2918 72.7691 57.4682 73.3678 57.5506 73.99C57.6094 74.4125 57.4212 74.6238 56.9978 74.6356L54.9983 74.6591C54.5866 74.6591 54.3985 74.4478 54.4337 74.0369L55.2571 66.3362C55.4335 64.6576 55.8922 64.5754 56.6214 66.1015C57.2565 67.4162 57.3506 69.0831 56.9037 71.1022C56.8213 71.4778 56.8684 71.8417 57.0213 72.1939Z" fill="black"/>
<path d="M59.9617 74.33C59.9617 74.6939 59.6559 74.9757 59.2913 74.9757H59.2442C58.8796 74.9757 58.5856 74.6705 58.5973 74.3066L58.7032 65.8546C58.7032 65.4907 59.009 65.209 59.3736 65.209H59.4206C59.7852 65.209 60.0793 65.5142 60.0675 65.8781L59.9617 74.33Z" fill="black"/>
<path d="M73.9226 72.6517C74.5695 72.2995 75.1929 72.3582 75.7927 72.8395C76.2396 73.1917 76.8983 72.8512 76.863 72.276L76.4513 66.7353C76.4278 66.3832 76.5925 66.1953 76.9453 66.1836L77.2982 66.1601C77.404 66.1484 77.4628 66.1953 77.4746 66.301C77.6275 68.0618 77.8039 69.5879 77.7569 71.4778C77.7333 72.2408 77.9686 72.863 78.4508 73.3208C79.3564 74.166 79.2035 74.4829 77.9803 74.2599C76.1926 73.9312 74.2519 73.9077 72.1466 74.2012C71.8055 74.2482 71.6409 74.0956 71.6526 73.7551L71.8643 66.0662C71.8761 65.8314 72.0643 65.6319 72.2995 65.6201H72.6406C72.817 65.5967 72.8994 65.6788 72.8994 65.8549V72.0413C72.8876 72.5695 73.4521 72.9099 73.9226 72.6517Z" fill="black"/>
<path d="M70.5 70.5736C70.3 71.7709 70.6176 72.7218 70.7352 73.8604C70.7705 74.1656 70.6294 74.33 70.3236 74.3535L69.465 74.4004C69.1709 74.4239 69.0533 74.283 69.1121 73.9895C69.3826 72.8039 69.7708 71.8531 69.5826 70.5618C69.3709 69.1649 69.4179 67.7328 69.7355 66.2654C69.8531 65.7137 69.9942 65.7019 70.1589 66.2537C70.6176 67.7445 70.7234 69.1766 70.5 70.5736Z" fill="black"/>
<path d="M92.9175 74.3419C92.894 74.694 92.6 74.964 92.2471 74.9405H92.0119C91.6591 74.9053 91.3885 74.6118 91.4121 74.2597L91.812 66.5942C91.8355 66.2421 92.1295 65.9721 92.4824 65.9956H92.7176C93.0704 66.0308 93.341 66.3242 93.3174 66.6764L92.9175 74.3419Z" fill="black"/>
<path d="M96.0579 65.9487C96.1284 65.5848 96.3166 65.5026 96.6342 65.7022L96.8929 65.8666C97.3987 66.1952 97.6574 66.6531 97.6457 67.2517L97.5633 73.7316C97.5633 74.0602 97.3987 74.2246 97.0694 74.2128L94.5877 74.1424C94.2231 74.1307 94.0584 73.9546 94.1055 73.5907C94.1407 73.3207 94.2819 73.0977 94.5053 72.9216C94.7759 72.722 95.1169 72.6751 95.5286 72.7807C95.905 72.8864 96.152 72.7455 96.2578 72.3699C96.3401 72.0764 96.2578 71.7712 95.9873 71.466C95.4345 70.7969 95.458 68.9656 96.0579 65.9487Z" fill="black"/>
<path d="M68.1007 74.0718C68.1007 74.2361 67.9595 74.3653 67.7949 74.377H67.395C67.2185 74.3653 67.0892 74.2361 67.0892 74.0601L67.2185 66.3594C67.2185 66.1951 67.3597 66.0659 67.5243 66.0542H67.9242C68.1007 66.0659 68.23 66.1951 68.23 66.3711L68.1007 74.0718Z" fill="black"/>
<path d="M89.6831 74.4591C89.6831 74.7761 89.4243 75.0461 89.095 75.0461H88.8127C88.4952 75.0461 88.2246 74.7878 88.2246 74.4591L88.2011 66.9698C88.2011 66.6528 88.4599 66.3828 88.7892 66.3828H89.0715C89.389 66.3828 89.6595 66.6411 89.6595 66.9698L89.6831 74.4591Z" fill="black"/>
<path d="M44.4482 67.3103C44.6952 68.2846 44.8364 69.2589 44.8834 70.245C44.8952 70.5971 44.7305 70.7967 44.3777 70.8437L43.919 70.9141C43.7425 70.9258 43.6602 70.8554 43.6484 70.6911C43.5543 69.5759 43.6132 68.4489 43.8366 67.3338C44.013 66.4299 44.213 66.4181 44.4482 67.3103Z" fill="black"/>
<path d="M122.168 74.6825C122.168 74.8469 122.027 74.9877 121.851 74.976H121.404C121.239 74.9643 121.11 74.8234 121.11 74.6591L121.251 67.7097C121.251 67.5453 121.392 67.4045 121.569 67.4162H122.016C122.18 67.428 122.31 67.5688 122.31 67.7332L122.168 74.6825Z" fill="black"/>
<path d="M38.8497 67.7798C39.0143 67.4393 39.4966 67.4276 39.6847 67.7798L40.214 68.7189C40.461 69.1767 40.3552 69.5054 39.8847 69.7284C39.4966 69.9162 39.0967 69.8693 38.6968 69.5993C38.3322 69.3528 38.2498 69.0241 38.4498 68.625L38.8497 67.7915V67.7798Z" fill="black"/>
<path d="M46.1772 68.7072C46.1419 68.5076 46.1419 68.308 46.1772 68.1085C46.236 67.6624 46.4477 67.5568 46.8241 67.8033C47.024 67.9324 47.1769 68.1437 47.271 68.4137C47.3298 68.6015 47.3298 68.848 47.271 69.1532C46.977 70.3858 47.2122 71.501 48.0002 72.5105C48.2472 72.8275 48.3531 73.1796 48.3178 73.567C48.2354 74.4474 47.6591 74.9053 46.5888 74.917C46.0243 74.9287 45.6009 74.3887 45.7538 73.8488C46.2125 72.2053 46.5183 70.421 46.2007 68.7072H46.1772Z" fill="black"/>
<path d="M86.1546 68.1905C86.6133 69.3057 86.4957 70.0805 85.8253 70.4914C85.4489 70.7261 85.1902 70.6322 85.0373 70.2214C84.7432 69.3996 84.7432 68.6953 85.0608 68.1201C85.4724 67.3806 85.837 67.404 86.1546 68.1905Z" fill="black"/>
<path d="M26.5353 68.6838C26.453 68.5782 26.453 68.4373 26.5236 68.3199C26.6647 68.0851 26.9352 68.0147 27.3469 68.1086C28.0408 68.273 28.3466 68.6603 28.2643 69.2707C28.2055 69.7403 27.9585 69.8694 27.5351 69.6464C27.194 69.4703 26.8529 69.1534 26.5353 68.6838Z" fill="black"/>
<path d="M38.0146 71.9941C37.8147 71.6654 37.9088 71.4776 38.2969 71.4189L38.8379 71.3367C39.2614 71.278 39.6612 71.5246 39.8024 71.9237C40.0259 72.5576 40.1082 73.2267 40.0259 73.931C39.9906 74.248 39.6965 74.4827 39.379 74.4358L38.5321 74.3066C38.097 74.248 38.0029 74.0249 38.2381 73.661C38.5086 73.2502 38.438 72.6867 38.0146 71.9941Z" fill="black"/>
<path d="M44.1424 71.7241C45.001 72.0293 45.3421 72.5693 45.1422 73.3558C44.9893 73.9544 44.6835 74.3301 44.213 74.4827C43.8013 74.6118 43.5308 74.4827 43.4014 74.0836C43.2015 73.4966 43.225 72.8158 43.4838 72.041C43.5896 71.7123 43.8131 71.6067 44.1424 71.7241Z" fill="black"/>
<path d="M101.045 72.851C101.151 72.8744 101.268 72.8744 101.398 72.8392C101.456 72.8275 101.492 72.804 101.515 72.7453C101.833 72.1701 102.268 71.9119 102.833 71.9588C103.479 72.0175 103.821 72.3697 103.856 73.0036L103.903 73.6727C103.95 74.2948 103.679 74.4944 103.103 74.2831C102.221 73.9661 101.28 74.0835 100.269 74.6118C99.9274 74.7879 99.6687 74.7057 99.4922 74.3535C99.0335 73.4262 99.1041 72.5692 99.704 71.771C99.9862 71.3953 100.28 71.3953 100.586 71.771C100.715 71.9471 100.774 72.1818 100.762 72.4988C100.762 72.7101 100.845 72.8275 101.045 72.8627V72.851Z" fill="black"/>
<path d="M85.3078 72.4404C85.3901 72.2291 85.5901 72.0882 85.8253 72.0647C86.1899 72.0178 86.578 72.2408 86.9779 72.7338C87.4719 73.3325 87.2367 74.2247 86.531 74.5064C86.2134 74.6355 85.8606 74.5651 85.4842 74.2951C85.1784 74.0721 85.0373 73.8021 85.049 73.4616C85.049 73.1564 85.1549 72.816 85.3078 72.4404Z" fill="black"/>
<path d="M113.347 72.91C113.3 72.6869 113.312 72.4991 113.394 72.3347C113.547 71.9708 113.806 71.8652 114.171 72.0413C114.676 72.2761 115.064 72.64 115.335 73.1213C115.535 73.4734 115.382 73.9195 115.006 74.0838C114.418 74.3303 113.9 74.2951 113.453 73.9664C113.277 73.8373 113.194 73.6612 113.218 73.4382C113.23 73.3091 113.265 73.2034 113.324 73.0978C113.359 73.0391 113.359 72.9686 113.347 72.91Z" fill="black"/>
</g>
<defs>
<clipPath id="clip0_2212_2">
<rect width="175" height="80" fill="white" transform="translate(0.460022)"/>
</clipPath>
</defs>
</svg>
