<svg width="137" height="128" viewBox="0 0 137 128" fill="none" xmlns="http://www.w3.org/2000/svg">
<g clip-path="url(#clip0_2202_2898)">
<path d="M34.5 5.17989C30.66 7.04989 26.8 8.96989 23.29 11.5199C19.69 14.1299 16.48 17.5999 13.38 20.8299C12.95 21.2799 12.45 21.3699 11.89 21.0899L11.65 20.9699C11.29 20.7899 11.19 20.3199 11.45 20.0099C14.01 16.9899 16.12 13.8299 19.32 11.3199C22.65 8.71989 26.2 6.43989 29.99 4.46989C30.55 4.17989 31.13 3.91989 31.73 3.70989C34.38 2.75989 35.48 3.02989 35.04 4.53989C34.96 4.81989 34.76 5.04989 34.5 5.17989Z" fill="black"/>
<path d="M133.33 48.26C128.68 35.36 120.38 24.94 108.58 17.77C97.02 10.75 83.46 6.95001 69.75 8.66001C69.35 8.71001 69.07 9.07001 69.11 9.47001L69.15 9.90001C69.17 10.09 69.34 10.23 69.53 10.21C72.13 9.99001 74.17 9.73001 76.84 10.52C79.14 11.21 81.47 11.74 83.84 12.13C85.48 12.4 86.92 12.74 88.15 13.17C91.72 14.42 95.4 15.61 98.51 17.26C108.69 22.68 114.16 30.41 119.74 40.24C128.74 56.11 128.49 74.78 120.8 90.98C118.39 96.08 114.83 100.06 110.12 102.93C91.42 114.33 67.24 111.07 48.24 101.08C43.47 98.57 40.08 96.21 38.07 94C27.84 82.77 24.2 69.45 27.13 54.02C28.68 45.86 32.37 39.01 38.2 33.48C47.71 24.43 58.98 20.42 72 21.44C88.62 22.74 101.94 33.51 106.43 49.43C108.67 57.39 108.64 66.1 106.35 75.57C102.26 92.42 84.75 96.2 70.06 92.43C65.62 91.29 61.57 89.29 57.91 86.42C53.55 83 51.05 77.94 48.93 72.84C45.92 65.57 46.62 58.74 51.03 52.35C51.27 52 51.59 51.77 51.99 51.64C53.58 51.11 55.19 50.19 56.83 48.86C59.49 46.72 62.57 44.92 65.62 43.32C67.3 42.43 69.19 42.18 71.29 42.55C79.79 44.06 86.8 48.39 88.42 57.5C89.68 64.58 89.9 72.21 82.73 76.11C76.95 79.27 69.73 78.2 66.5 72.03C64.56 68.32 61.72 61.09 68.67 60.16C69.83 60.01 70.98 60.3 72.13 61.04C73.12 61.67 74.38 61.91 75.93 61.75C76.86 61.65 77.36 60.61 76.86 59.82C73.29 54.22 64.21 56.05 59.78 59.45C55.16 63 54.67 67.64 55.81 73.12C56.12 74.57 55.87 74.67 55.08 73.42C53.07 70.24 52.69 66.38 53.94 61.84C55.04 57.82 60.6 54.55 63.78 53.19C70.03 50.51 74.98 51.5 78.64 56.17C79.85 57.71 80.51 59.28 80.64 60.87C81.05 66.11 75.52 68.2 71.32 67.12C70.34 66.87 69.63 66.02 69.1 65.33C68.28 64.27 68.02 64.39 68.31 65.7C69.14 69.45 71.13 71.32 74.27 71.32C77.98 71.32 82.77 68.34 83.68 64.71C84.78 60.3 83.73 56.37 80.53 52.9C75.12 47.04 68.37 46.38 61.69 50.18C55.07 53.94 49.06 57.95 50.16 66.43C50.42 68.42 51.36 70.82 52.98 73.65C54.57 76.44 56 78.63 57.27 80.24C62.39 86.74 70.09 88.2 78.05 88.94C84.95 89.58 91.1 87.98 96.51 84.15C104.28 78.64 105.46 67.29 104.05 58.48C101.47 42.34 91.57 29.43 75.05 26C61.38 23.16 46.85 30.62 38.95 41.24C34.86 46.75 32.34 52.83 31.39 59.5C29.91 69.85 32.63 79.49 39.56 88.43C41.07 90.38 43.41 92.43 46.6 94.6C53.69 99.42 60.17 102.48 66.02 103.79C81.44 107.24 98.16 106.87 110.56 96.93C116.5 92.17 118.93 85.91 121.21 78.91C123.98 70.38 123.74 61.24 120.65 52.89C119.7 50.33 117.74 47.99 116.57 45.63C111.5 35.4 104.41 26.91 95.29 20.15C91.36 17.24 86.32 14.78 81.81 14.08C78 13.49 75.09 12.85 73.1 12.16C72.59 11.99 71.95 12.08 71.16 12.43C70.92 12.54 70.77 12.74 70.7 13.03C70.58 13.56 70.78 13.89 71.3 14.03C74.77 14.96 78.27 15.87 81.8 16.76C89.15 18.61 96.79 24.48 102.04 31.18C104.21 33.93 106.29 36.71 108.29 39.52C112.03 44.75 114.3 50.66 115.1 57.25C116.94 72.37 112.11 84.5 100.62 93.64C99.52 94.52 99.66 94.84 101.05 94.59C105.77 93.73 112.13 86.88 114.06 82.72C116.59 77.25 118.02 71.98 118.34 66.9C118.72 61.1 118.91 54.85 117.15 49.24C117.04 48.88 117.13 48.82 117.42 49.06C117.95 49.51 118.3 50.02 118.46 50.61C122.52 65.91 120.06 89.01 103.28 96.43C95.17 100.02 86.68 101.62 77.8 101.25C69.34 100.9 62.55 98.33 54.64 94.36C49.11 91.59 44.59 87.76 41.1 82.88C31.36 69.29 33.29 49.91 46.63 39.31C51.42 35.5 55.05 33.05 57.53 31.97C61.44 30.26 64.11 29.36 65.55 29.26C71.16 28.87 76.57 29.78 81.8 32.01C93.8 37.12 100.54 51.15 101.35 63.72C101.72 69.54 100.22 74.47 96.85 78.52C89.66 87.17 75.65 86.63 66.48 82.33C62.86 80.63 60.49 77.89 59.36 74.12C58.41 70.95 57.61 61.56 62.73 61.09C62.8 61.08 62.85 61.13 62.86 61.2V61.45C62.88 61.64 62.79 61.75 62.61 61.78C61.96 61.9 61.62 62.3 61.57 62.97C61.1 69.76 62.74 78 69.87 80.34C75.49 82.19 81.71 83.12 87.13 80.25C87.42 80.1 87.59 79.86 87.62 79.53C87.69 78.95 87.79 78.58 87.92 78.43C92.29 73.23 92.48 68.01 92.06 61.13C91.8 57.01 90.76 50.8 88.17 47.61C82.52 40.68 71.26 34.97 62.6 40.28C58.4 42.85 53.77 46.07 48.71 49.93C47.36 50.96 46.43 52.14 45.9 53.47C43.83 58.69 42.19 65.65 44.16 70.89C46.25 76.48 48.8 81.5 51.79 85.96C52.47 86.97 52.32 87.11 51.35 86.37C47.13 83.15 42.86 74.53 41.3 68.78C39.74 63.01 41.48 56.84 43.88 51.5C44.73 49.62 45.96 48.03 47.57 46.73C52.32 42.9 57.44 39.62 62.91 36.89C69.89 33.41 77.81 36.89 83.77 41.48C89.18 45.64 93.61 50.19 94.85 56.72C95.8 61.71 95.61 66.87 94.28 72.2C93.56 75.09 91.56 77.59 88.28 79.69C87.98 79.88 87.98 80.07 88.28 80.26C88.71 80.53 89.13 80.53 89.54 80.26C92.82 78.17 95.77 76.89 96.9 73.4C99.73 64.67 99.23 56.63 95.41 49.28C89.54 38.01 77.55 30.09 64.54 32.52C62.27 32.95 59.55 34.08 56.39 35.91C45.35 42.31 37.98 49.51 37.43 63.23C37.1 71.59 41.87 80.23 47.4 86.18C49.3 88.23 51.91 89.15 54.36 90.56C58 92.66 62.36 94.82 66.26 95.89C73.53 97.87 81.53 98.31 90.28 97.22C93.1 96.87 95.71 96.07 98.11 94.83C98.37 94.7 98.6 94.5 98.77 94.25C99.48 93.17 100.45 91.92 101.66 90.49C112.1 78.19 114.2 61.86 109.17 46.55C107.55 41.6 105.44 37.2 102.85 33.35C97.68 25.66 90.14 20.72 80.23 18.51C73.9 17.1 66.84 16.95 59.04 18.06C56.56 18.41 53.99 19.15 51.33 20.26C38.77 25.55 30.2 34.24 25.63 46.35C19.74 61.96 21.09 76.5 29.68 89.96C37.83 102.72 52.65 109.86 67.3 112.45C69.12 112.77 73.53 113.36 80.54 114.22C83.89 114.63 88.61 114.29 94.7 113.21C94.99 113.16 95.07 113.27 94.92 113.52C94.8 113.74 94.57 113.88 94.23 113.93C91.42 114.36 88.69 115.19 85.95 115.4C83.75 115.57 81.55 115.75 79.35 115.94C66.59 117.06 52.93 113.32 42.14 106.9C28.81 98.96 19.18 85.04 17.19 69.22C16.1 60.56 17.25 51.87 20.66 43.15C23.53 35.8 27.57 29.94 32.76 25.57C38.93 20.37 46.33 16.33 54.98 13.46C56.82 12.85 58.67 12.45 60.54 12.24C61.34 12.16 61.96 11.53 62.03 10.73C62.04 10.62 62.05 10.5 62.05 10.38C62.07 9.84001 61.6 9.40001 61.06 9.46001C38.9 11.82 23.06 24.07 12.94 43.41C8.89001 51.14 7.12001 59.49 7.61001 68.45C8.32001 81.32 12.49 92.69 20.14 102.58C26.19 110.41 33.42 116.69 41.83 121.42C42.2 121.63 42.19 121.66 41.79 121.51C31.44 117.46 23.1 111.48 16.78 103.55C10.47 95.64 6.55001 86.81 5.04001 77.05C0.750014 49.38 14.47 19.57 42.58 10.61C55.81 6.40001 69.11 4.84001 82.48 5.93001C95.31 6.98001 106.86 11.43 117.13 19.26C119.76 21.27 121.51 23.48 123.79 25.67C124.19 26.05 124.83 25.98 125.14 25.52C125.2 25.43 125.25 25.33 125.29 25.22C125.6 24.33 125.48 23.53 124.94 22.82C112.42 6.26001 94.65 -0.069994 74.32 0.100006C69.65 0.150006 65.35 0.450006 61.41 1.01001C54.49 1.99001 47.52 3.82001 40.5 6.49001C33.69 9.08001 27.91 12.32 23.16 16.23C14.81 23.1 8.71001 31.77 4.86001 42.22C-1.68999 59.97 -0.789987 77.39 7.56001 94.49C13.13 105.89 21.46 114.63 32.57 120.71C41.14 125.4 50.01 126.73 59.61 127.56C63.98 127.93 67.88 128 71.33 127.75C87.39 126.58 101.12 120.67 112.51 110.02C121.44 101.68 126.78 89.04 129.11 77.27C131.87 63.31 129.64 50.4 122.41 38.53C120.45 35.32 118.33 32.21 116.05 29.2C115.96 29.08 115.97 28.97 116.09 28.88H116.1C116.17 28.82 116.24 28.82 116.3 28.89C121.16 34.6 126.29 40.9 129.16 47.5C131.46 52.79 132.73 58.13 132.97 63.5C133.4 73.29 131.67 82.58 127.78 91.37C124.62 98.5 120.17 105.42 114.43 112.12C113.78 112.88 113.67 113.71 114.12 114.62C114.32 115.03 114.75 115.22 115.42 115.18C115.73 115.17 116.02 115.03 116.22 114.79C120.46 109.87 124.22 104.64 127.49 99.11C136.34 84.15 139.32 64.88 133.33 48.26ZM106.78 110.45C96.94 118.2 85.8 122.57 73.36 123.54C67.21 124.02 60.74 123.3 53.94 121.38C38.06 116.9 23.93 106.18 16.77 90.95C11.5 79.72 8.49001 65.74 11.57 53.48C11.94 51.97 12.42 50.72 13 49.72C13.61 48.66 13.86 48.74 13.74 49.96C13.28 54.6 12.44 59.39 12.89 63.99C13.66 71.77 15.42 79.07 18.17 85.89C22.67 97.04 32.97 106.43 43.61 111.91C51.36 115.9 59.59 118.26 68.29 119.01C82.08 120.19 94.83 117.23 106.55 110.12C106.66 110.05 106.75 110.07 106.82 110.18C106.89 110.28 106.88 110.37 106.78 110.45Z" fill="black"/>
</g>
<defs>
<clipPath id="clip0_2202_2898">
<rect width="135.92" height="127.8" fill="white" transform="translate(0.540009 0.100098)"/>
</clipPath>
</defs>
</svg>
