<svg width="55" height="140" viewBox="0 0 55 140" fill="none" xmlns="http://www.w3.org/2000/svg">
<g clip-path="url(#clip0_2063_108)">
<path d="M54.4805 76.6895C54.2746 79.0274 53.5197 82.3869 52.3138 83.9783C48.6962 88.7425 42.6373 94.1551 38.2844 99.1551C36.4609 101.257 34.6668 103.379 32.8923 105.511C29.1962 109.97 27.9315 112.466 27.6472 117.858C27.2844 124.646 26.2354 131.483 25.4511 138.025C25.3726 138.693 24.9805 139.273 24.3923 139.597C23.0981 140.304 21.9707 140.088 21.0099 138.949C20.6766 138.556 20.5001 138.065 20.5099 137.554L20.9315 109.293C20.9413 109.008 20.8628 108.733 20.7256 108.477C19.5981 106.444 18.2648 104.519 16.7256 102.682C12.0785 97.1315 6.99029 91.1885 1.47068 84.8722C0.745192 84.0471 0.343231 83.1728 0.2648 82.2592C-0.499906 73.3889 0.637349 62.9665 0.833427 56.0903C1.0099 49.6463 1.32362 42.829 1.7648 35.6286C1.91186 33.2514 2.07853 31.0412 3.52951 28.9881C10.1766 19.6266 17.5295 10.8643 25.5981 2.69146C26.7354 1.54215 27.9903 0.658061 29.3628 0.0588466C29.6374 -0.0590316 29.9511 0.0195538 30.1374 0.245487C35.9021 7.39676 41.9315 14.8526 48.2354 22.6227C50.3236 25.1964 51.5589 27.7308 51.9413 30.216C54.2452 45.3142 55.8923 61.0706 54.4805 76.6895ZM5.91186 77.2789L6.46088 80.0687C6.47068 80.1374 6.50009 80.1964 6.53931 80.2455L20.2158 98.8997C20.4707 99.2533 21.0295 99.0667 21.0295 98.6247L20.9903 92.1708C20.9903 92.0628 20.9511 91.9449 20.8628 91.8663L6.67657 76.8761C6.37264 76.552 5.82362 76.8368 5.91186 77.2789ZM20.206 83.3398C18.5883 81.3359 17.2256 79.882 16.1177 78.9685C12.4903 75.9724 9.40205 72.4557 6.85304 68.4085C6.7746 68.2808 6.61774 68.2416 6.48049 68.3103L6.2648 68.4282C6.2648 68.4282 6.24519 68.4478 6.255 68.4577C7.53931 71.4439 9.56872 74.1158 12.3432 76.4734C13.0785 77.1021 13.7746 77.7799 14.4119 78.497C16.1472 80.4616 18.3236 81.5814 19.9315 83.8408C19.9609 83.8899 19.9903 83.9095 20.0001 83.8997L20.1962 83.7032C20.2942 83.605 20.2942 83.4478 20.206 83.3398ZM5.81382 56.5716L6.28441 60.8054C6.29421 60.8643 6.31382 60.9233 6.35304 60.9626L21.157 80.2258C21.353 80.4812 21.7648 80.3241 21.7354 79.9999L21.0589 72.9665C21.0491 72.8977 21.0197 72.829 20.9805 72.7799L6.38245 56.3162C6.16676 56.0805 5.78441 56.2573 5.81382 56.5716ZM15.7844 21.2082C15.7158 21.1492 15.657 21.1492 15.5981 21.218C12.9609 24.3025 10.7942 27.6718 9.08833 31.326C7.95108 33.772 7.88245 36.8074 7.31382 39.5284C7.11774 40.4616 7.19617 41.493 7.55892 42.6129C7.80402 43.3496 8.28441 44.2337 9.0001 45.275C12.9805 51.051 17.3432 56.4439 22.0883 61.4439C22.2648 61.6306 22.5883 61.5127 22.5981 61.2573C22.7354 58.0353 22.5883 55.7956 20.7158 52.9665C18.0491 48.9586 15.8824 44.6757 12.5785 41.2475C10.157 38.7229 9.13735 35.1669 10.4021 31.9351C10.804 30.9036 11.6668 30.1571 12.9903 29.715C13.304 29.607 13.5687 29.6757 13.7942 29.9213C15.7648 32.1217 18.4413 33.8899 18.255 37.3378C18.157 39.0765 17.9903 40.8152 17.7648 42.5343C17.7256 42.8585 17.7942 43.1531 17.9707 43.4282C18.755 44.607 19.5295 45.7759 20.304 46.9449C20.8628 47.7799 21.5197 48.1139 22.3726 48.5657C22.6668 48.7327 22.8432 48.6443 22.9021 48.3103C23.3334 46.1492 21.8432 44.4989 21.1373 42.7111C20.5197 41.1689 20.7844 40.9921 21.9413 42.1905C22.5099 42.7799 22.9119 43.5854 23.1472 44.5972C23.1668 44.6757 23.206 44.6954 23.2746 44.6561L23.5687 44.5088C23.7158 44.4203 23.7844 44.2926 23.7648 44.1158C23.304 40.6089 22.5687 38.0942 21.5589 36.5913C19.0295 32.829 16.9805 29.0176 15.4119 25.1571C14.8628 23.7917 15.0001 22.5441 15.8138 21.3948C15.8628 21.326 15.853 21.2573 15.7844 21.2082ZM24.5393 9.71503C23.255 10.9135 22.6668 12.2592 22.7746 13.7622C23.0393 17.5245 23.3334 21.2867 23.6374 25.049C23.7256 26.2376 23.4119 27.6325 22.6864 29.2239C22.5099 29.6168 22.3824 29.607 22.2942 29.1846C21.4805 25.275 20.804 21.159 20.2452 16.8368C20.0981 15.6777 19.706 15.5893 19.0589 16.5618L17.2746 19.2828C16.6766 20.1964 16.5981 21.159 17.0589 22.161C18.1472 24.5284 19.2844 27.2101 20.4707 30.2258C20.804 31.0805 21.5099 32.0235 22.5981 33.0353C22.8432 33.2612 23.0295 33.2219 23.1374 32.8977C23.7942 30.9822 24.0295 29.0176 23.8432 27.0235C23.7746 26.2769 24.5197 24.9311 24.5491 23.8801C24.6962 19.2141 24.8138 14.5382 24.9021 9.87221C24.9119 9.53822 24.7844 9.4891 24.5393 9.71503ZM39.157 90.4714L39.2256 90.5304C39.2942 90.5991 39.4119 90.5893 39.4707 90.5205L49.2256 79.7052C49.2942 79.6364 49.2844 79.5186 49.2158 79.4498L49.1472 79.3909C48.3138 78.6345 45.4511 80.4616 42.7452 83.4675L42.5589 83.6738C39.853 86.6797 38.3236 89.715 39.157 90.4714ZM35.8138 95.4714C35.9217 95.5795 36.3138 95.383 36.6962 95.0195C37.0785 94.6561 37.2942 94.273 37.1864 94.1551C37.0785 94.0471 36.6864 94.2435 36.304 94.607C35.9217 94.9704 35.706 95.3535 35.8138 95.4714ZM30.3923 8.29067C30.0295 8.28085 29.706 9.16494 29.6766 10.2651C29.6472 11.3653 29.9119 12.2691 30.2746 12.2789C30.6374 12.2887 30.9609 11.4046 30.9903 10.3044C31.0197 9.20423 30.755 8.3005 30.3923 8.29067ZM32.1962 18.4478C31.5295 18.3987 31.1177 18.7131 30.9609 19.3909C30.8923 19.7052 30.8923 20.0981 30.9707 20.5598C31.0981 21.2769 31.2354 21.2867 31.3824 20.5697L31.5687 19.7249C31.5981 19.5972 31.6472 19.4695 31.7158 19.3614C31.8726 19.1256 32.0589 18.9095 32.2844 18.7229C32.4707 18.5559 32.4413 18.4675 32.1962 18.4478ZM32.9707 23.7524C32.7158 23.6836 32.5687 23.772 32.5197 24.0372C32.4315 24.5087 32.2256 24.9017 32.1373 25.383C32.0883 25.6286 32.1864 25.7268 32.4315 25.6679C32.8138 25.5795 33.1374 25.3634 33.3923 25.0392C33.5687 24.8133 33.6275 24.5873 33.5589 24.3418C33.4707 24.0372 33.2746 23.8408 32.9707 23.7524ZM34.4119 16.0412C33.7942 16.7091 33.3824 17.3378 33.5001 17.4459C33.6177 17.5638 34.2158 17.1119 34.8432 16.4439C35.4609 15.7759 35.8726 15.1473 35.755 15.0392C35.6374 14.9213 35.0393 15.3732 34.4119 16.0412ZM38.4119 20.8938C38.0687 21.4243 37.8923 21.9056 37.8726 22.328C37.8628 22.7504 37.9707 22.7799 38.206 22.4361C38.5785 21.9154 38.804 21.4636 38.8923 21.1001C39.1275 20.0981 38.9707 20.0294 38.4119 20.8938ZM46.5981 29.1256C46.5099 28.8211 46.353 28.3201 46.1472 27.6227C45.9021 26.7877 45.5099 26.719 44.9903 27.4262C43.4609 29.4989 41.755 31.493 39.8825 33.3987C39.8138 33.4773 39.7354 33.4773 39.6472 33.4086L39.4413 33.2317C39.3824 33.1826 39.3726 33.1237 39.4217 33.0647L43.755 26.6306C43.8432 26.5127 43.8628 26.385 43.8138 26.2376L43.0099 23.6541C42.9707 23.5363 42.8138 23.5068 42.7354 23.605C40.0099 27.0922 36.8628 30.0294 33.2942 32.4066C32.0687 33.2219 31.4413 34.4203 30.1962 35.1374C29.9021 35.3044 29.7158 35.5991 29.6766 35.9233L28.7452 44.1846C28.6962 44.6757 28.8726 44.7838 29.2746 44.4989C30.9413 43.3496 30.9511 41.2671 31.0099 39.0569C31.0393 37.7406 31.3432 36.6698 31.9217 35.8447C32.7844 34.6168 33.8236 33.6541 35.0393 32.9567C35.8138 32.5048 35.9609 32.6522 35.4707 33.4086C34.4217 35.0196 31.5491 39.1748 31.8138 41.2376C31.8432 41.4439 32.0785 41.5323 32.2354 41.3948C36.1177 37.8585 40.6668 34.4203 45.8825 31.0706C46.6079 30.6089 46.8432 29.9606 46.5981 29.1256ZM47.4609 40.4321V40.4125C47.3628 40.3044 47.1962 40.2848 47.0883 40.3732L28.8824 54.8329C28.7648 54.9213 28.7452 55.0785 28.8432 55.1964V55.216C28.9413 55.3241 29.1079 55.3437 29.2158 55.2553L47.4217 40.7956C47.5393 40.7072 47.5589 40.55 47.4609 40.4321ZM47.6766 45.5304C42.6275 48.939 37.8432 52.6325 33.3138 56.6207C30.7844 58.8506 28.7452 60.5205 28.6864 63.4184C28.657 64.4891 29.0295 64.6463 29.804 63.8997C34.8334 59.0176 40.657 54.4695 47.2648 50.2357C48.0687 49.715 48.5197 48.9881 48.6275 48.0353L48.8236 46.218C48.9413 45.1669 48.5589 44.9311 47.6766 45.5304ZM48.6275 55.2848C48.5589 54.941 48.3628 54.8329 48.0393 54.9803C47.7452 55.108 47.5099 55.3142 47.3236 55.5991C47.157 55.8545 46.9315 55.9626 46.6374 55.9331C46.5491 55.9233 46.4707 55.9233 46.3825 55.9135C46.2746 55.9135 46.1668 55.9429 46.0785 56.0117C41.6374 59.5087 37.5099 62.8584 33.6864 66.051C32.4609 67.0726 31.157 68.2808 29.7746 69.6856C28.8432 70.6384 28.3236 71.9154 28.3432 73.2514C28.3726 74.774 28.3432 76.4046 28.255 78.163C28.1864 79.5873 28.6275 79.7641 29.5785 78.7131C35.1472 72.5638 40.8923 68.4282 48.7158 63.3398C49.0393 63.1335 49.255 62.8486 49.3628 62.4852C50.2452 59.4793 49.157 57.9174 48.6275 55.2848ZM48.9903 70.6679C42.7256 75.5107 36.7354 80.6973 31.0295 86.2278C29.0687 88.1335 28.1668 91.5421 27.8726 94.5873C27.5981 97.4066 27.3138 100.314 27.0099 103.291C26.9511 103.88 27.206 104.116 27.7844 104.008C27.8824 103.998 27.9511 103.949 28.0001 103.86C29.5001 101.257 31.755 97.6816 31.8236 95.6581C31.8334 95.3339 31.9413 95.0392 32.1373 94.774C34.0785 92.1119 31.5981 88.6738 33.7158 85.7563C34.2452 85.0294 34.8628 84.381 35.5687 83.8015C39.2942 80.7465 43.1275 77.7995 47.0687 74.941C48.4903 73.9095 49.3726 72.6423 49.7256 71.1394C49.9217 70.2946 49.6766 70.1374 48.9903 70.6679Z" fill="black"/>
</g>
<defs>
<clipPath id="clip0_2063_108">
<rect width="55" height="140" fill="white"/>
</clipPath>
</defs>
</svg>
