<svg width="55" height="140" viewBox="0 0 55 140" fill="none" xmlns="http://www.w3.org/2000/svg">
<g clip-path="url(#clip0_2086_199)">
<path d="M47.3272 79.8196C51.7143 73.4658 54.2212 67.0434 54.8574 60.5329C55.4841 54.1888 53.9648 51.7609 51.097 47.2672C50.9166 47.0028 50.8976 46.7189 51.0306 46.4154C55.5316 36.3804 56.785 25.2294 49.3878 16.2714C49.1884 16.0266 49.0934 15.7525 49.0934 15.4392C49.2169 7.83219 44.355 -1.2825 35.8847 0.146874C29.7978 1.16506 25.876 5.44338 21.9447 10.642C19.3049 14.1371 17.2823 18.0238 15.8864 22.3021C15.3736 23.8979 12.0406 26.5902 10.9201 28.5776C6.10566 37.1147 5.76381 45.4755 7.09323 55.1287C7.33062 56.8616 6.39053 57.5664 5.40296 58.663C-1.05422 65.8294 2.86757 77.0196 6.30507 84.4993C6.43801 84.7734 6.31457 85.1063 6.03919 85.2336C1.6521 87.2112 -0.0856426 91.1077 -0.000179832 96.0224C0.16125 105.705 6.56146 112.842 14.6899 116.787C15.2692 117.071 15.6015 117.531 15.706 118.187C16.6081 123.915 17.6146 129.564 18.7446 135.154C19.039 136.613 19.3999 137.934 19.8272 139.109C20.0076 139.599 20.4824 139.922 20.9952 139.883L24.917 139.579C25.2303 139.55 25.5247 139.608 25.8191 139.736C28.1171 140.754 29.7503 138.58 29.494 136.348C28.9622 131.806 28.7248 127.762 28.7723 124.228C28.7723 123.846 28.9432 123.592 29.2945 123.455C32.2193 122.319 35.7137 121.418 38.1732 120.194C46.4061 116.092 51.6193 109.269 53.7939 99.7231C54.1832 98.0098 54.2876 96.1497 54.1167 94.1329C53.5944 88.0532 50.4703 84.2154 44.7443 82.6196C44.6019 82.5804 44.5734 82.3944 44.6968 82.3161C45.7699 81.6406 46.6435 80.8084 47.3272 79.8196ZM15.1932 108.838C15.1552 109.2 14.7659 109.386 14.481 109.19C9.26778 105.538 3.34236 97.256 7.80542 90.7063C8.27071 90.021 9.18231 89.8448 9.85652 90.3049C12.7907 92.2825 15.6585 94.828 15.6395 98.7539C15.6205 102.269 15.4686 105.636 15.1932 108.838ZM16.3612 89.2965C16.3422 89.3748 16.2472 89.4042 16.1998 89.3455C11.2334 83.442 8.59357 76.6476 8.28021 68.972C8.20424 66.9651 8.68853 65.0658 9.74257 63.2644C9.97047 62.863 10.5497 62.9119 10.7206 63.3427C12.9332 68.9329 14.7089 73.7986 18.023 78.8993C18.1369 79.0658 18.1844 79.2811 18.1464 79.4769L16.3612 89.2965ZM20.0456 73.0742C12.5154 58.2322 10.5497 45.7301 14.1486 35.5679C15.3166 32.2686 17.1683 29.7916 19.7227 28.1371C20.5868 27.579 20.9952 26.5021 20.7103 25.4839C20.4064 24.3776 20.4064 23.2126 20.7103 21.979C20.7578 21.7539 20.9002 21.6462 21.1186 21.6462C21.2326 21.6462 21.3275 21.6853 21.4035 21.7637C21.47 21.8224 21.5079 21.9105 21.5174 22.028C21.8118 26.7762 22.2961 31.9748 26.4553 34.2168C26.6547 34.3245 26.8826 34.1483 26.8446 33.9231C26.3413 30.6923 26.0185 27.3637 25.8665 23.9469C25.7241 20.6084 26.2749 17.6909 27.5093 15.1944C29.4085 11.3567 33.3303 5.56086 37.9263 6.67694C41.2498 7.48953 42.6077 11.0042 43.149 14.2644C43.4054 15.821 43.0445 17.3776 42.0665 18.9539C40.4617 21.5287 38.6954 23.8588 36.7868 25.9539C36.5494 26.2084 36.4734 26.1595 36.5589 25.8168C37.423 22.263 38.0877 18.7483 38.553 15.2825C38.7334 14 38.648 12.9133 38.3156 12.0322C37.9263 11.0238 36.5589 10.9651 36.1031 11.9441C35.3149 13.6378 34.6027 15.2532 34.1659 17.1133C31.6115 28.235 29.0287 39.572 26.4173 51.1245C26.2084 52.035 25.8855 52.0741 25.4487 51.2616C23.4926 47.6 21.8973 43.5371 20.6723 39.063C20.4634 38.2993 20.112 37.8 19.6183 37.5553C18.6687 37.1049 17.5861 37.8294 17.5861 38.9063C17.5861 42.049 18.1464 45.1818 19.2479 48.2853C20.3684 51.428 21.8118 54.5902 23.5875 57.772C23.616 57.8308 23.6255 57.8895 23.616 57.9581L20.15 73.0546C20.131 73.1525 20.1026 73.1623 20.0551 73.0742H20.0456ZM36.3785 27.1679C35.9321 28.372 35.5903 29.6056 35.3339 30.8686C35.3149 30.9665 35.2579 31.0056 35.163 30.986H35.1535C35.0585 30.986 35.0205 30.9175 35.03 30.8098C35.1725 29.4881 35.5428 28.2448 36.1411 27.0602C36.1695 26.9818 36.2265 26.9623 36.3025 27.0014H36.312C36.3785 27.0308 36.4069 27.0895 36.3785 27.1679ZM24.6511 94.0937C23.3121 105.715 23.1602 118.207 24.2048 131.571C24.2048 131.61 24.1858 131.629 24.1478 131.639L23.9009 131.678C23.7205 131.708 23.616 131.629 23.5685 131.453C20.1026 117.512 19.5138 103.022 21.8023 87.9748C23.0083 80.0839 24.765 71.9972 27.0725 63.7245C30.1207 52.7888 32.9315 42.4504 35.5238 32.6895C35.5903 32.435 35.7232 32.2196 35.9132 32.0434C38.8664 29.3413 41.5822 26.2867 44.0416 22.8797C44.7063 21.9595 46.0927 22.1063 46.558 23.1539C48.97 28.5385 49.6726 37.6336 45.4755 42.4014C45.2571 42.6462 45.1526 42.9399 45.1716 43.2727C45.2001 43.8308 45.3805 44.3497 45.6939 44.8294C45.8743 45.0937 45.8648 45.3581 45.6844 45.6126C43.1965 49.2644 40.2243 52.4364 36.7678 55.1483C36.5874 55.2951 36.3215 55.1483 36.3405 54.9133C36.7298 50.5958 37.9643 43.6448 41.2593 40.6196C41.4777 40.4238 41.6012 40.1301 41.6107 39.8168C41.6202 39.1315 41.3638 38.5343 40.8415 38.035C40.1958 37.428 39.1607 37.9469 39.2367 38.8476L39.3222 40.0126C39.3412 40.1986 39.2652 40.2867 39.0848 40.2965H38.8189C38.648 40.3161 38.5055 40.1692 38.5055 39.993L38.4865 38.6811C38.477 38.2602 38.2871 37.9665 37.9073 37.8196L36.8153 37.3888C36.312 37.1832 35.9986 37.3595 35.8942 37.9077C34.4128 45.2308 32.9789 52.4168 31.5925 59.456C31.0323 62.3049 29.7503 68.0518 27.7562 76.6867C26.2938 83.0112 25.2588 88.8168 24.6511 94.0937ZM47.0518 99.7427C45.0102 106.821 40.6706 111.794 34.052 114.653C32.5231 115.309 30.9848 115.965 29.4465 116.611C29.1426 116.738 28.9717 116.631 28.9337 116.298L28.4399 111.295C28.3355 110.267 28.7438 109.259 29.5319 108.622L41.6676 98.7147C42.7977 97.7846 42.9496 96.7175 42.1139 95.4937C42.0095 95.3371 41.8766 95.1413 41.7246 94.9161C40.9175 93.7217 40.0344 93.6728 39.0943 94.7595C36.3879 97.863 32.922 100.829 28.6963 103.678C28.5918 103.747 28.4494 103.678 28.4684 103.541C29.0476 98.8616 29.6364 94.1623 30.2156 89.4434C30.4056 87.9259 30.9373 86.5748 31.8109 85.3902C32.5801 84.3427 33.3113 83.2853 33.9855 82.228C34.5647 81.3175 35.3814 80.4853 36.4259 79.7119C39.0943 77.7637 41.4682 75.7958 43.5383 73.8182C43.8327 73.5343 43.9087 73.593 43.7852 73.9846C43.111 76.021 42.3893 77.3623 41.6202 78.0084C39.0563 80.1721 36.3879 82.3357 33.6247 84.4797C33.1404 84.8616 33.0929 85.2923 33.4727 85.7818L35.2959 88.1119C35.6568 88.5623 36.2835 88.67 36.7583 88.3567C38.8474 87.0056 41.6771 85.5273 44.0226 87.27C48.1058 90.2853 48.3907 95.0923 47.0518 99.7427ZM39.607 73.2406C37.0432 74.7874 34.6787 76.8825 32.5136 79.5161C32.0483 80.0839 31.8869 80.0056 32.0293 79.2714C33.0359 74.1804 34.0425 69.7161 35.0585 65.8783C35.4289 64.449 36.0366 62.8532 37.1666 61.8056C39.74 59.4266 42.2659 56.7832 44.7538 53.8658C45.2856 53.249 45.9408 52.7692 46.7194 52.4462C47.2227 52.2308 47.5646 52.3874 47.745 52.9259C50.5178 61.2574 47.0613 68.7469 39.607 73.2406Z" fill="black"/>
</g>
<defs>
<clipPath id="clip0_2086_199">
<rect width="55" height="140" fill="white"/>
</clipPath>
</defs>
</svg>
