<svg width="185" height="180" viewBox="0 0 185 180" fill="none" xmlns="http://www.w3.org/2000/svg">
<g clip-path="url(#clip0_2119_1184)">
<path d="M184.447 93.1894C179.678 86.1342 174.229 79.9166 168.1 74.5151C162.788 69.833 156.181 66.1282 148.969 67.492C148.544 67.5672 148.491 67.4598 148.799 67.1484C150.201 65.7631 151.922 64.5604 153.972 63.551C163.649 58.7401 171.945 49.5908 174.059 38.412C176.438 25.8478 175.641 13.5092 171.669 1.3961C171.265 0.171899 169.852 -0.375768 168.748 0.279285C166.304 1.70752 163.67 2.63103 160.844 3.0391C149.425 4.67136 138.962 8.62316 129.455 14.8837C125.78 17.3107 123.071 19.7913 121.34 22.3363C119.077 25.6545 117.845 29.2305 117.654 33.0534C117.601 34.1273 117.08 34.4816 116.082 34.1273L114.01 33.3863C113.065 33.0534 107.01 30.2936 106.829 29.9929C104.684 26.2881 102.251 22.5189 98.2678 20.4785C93.2222 17.912 87.9003 16.9992 82.2917 17.7295C77.5647 18.3523 73.4645 20.2638 69.9909 23.4746C69.7147 23.7216 69.5023 23.6786 69.3642 23.335C63.1076 8.19361 50.3501 0.494057 34.2571 2.08337C30.5605 2.44848 27.7881 2.95319 25.9398 3.58677C21.9032 4.98278 17.8136 5.95999 13.7452 7.22714C12.205 7.71038 10.8347 7.4097 9.63436 6.30363C8.39154 5.1546 6.43701 5.36937 5.44913 6.74391C4.49311 8.08623 3.86639 9.68628 3.57958 11.5655C0.0529416 34.7823 7.20183 59.9321 28.0536 72.1096C30.7836 73.6989 33.5454 73.8815 36.5941 74.4828C37.7731 74.7191 38.2299 75.3312 37.9643 76.3191C37.7625 77.0708 36.9765 77.4896 36.2435 77.2319C33.3117 76.2117 30.4862 75.4923 27.7774 75.052C25.7061 74.7191 23.6984 75.0305 21.7545 75.997C13.161 80.2817 6.01212 86.4671 0.30788 94.5747C-0.180751 95.2727 -0.0957721 95.8848 0.552195 96.4218C6.23519 101.061 12.7892 104.272 20.193 106.044C25.1537 107.235 31.729 107.289 36.0311 104.1C37.1145 103.305 37.4863 102.124 37.9325 100.932C38.1131 100.459 38.7823 100.459 38.9522 100.932L39.6958 103.047C39.8126 103.37 39.9932 103.649 40.2375 103.885C42.3939 105.979 44.4334 108.191 46.356 110.521C47.9707 112.476 49.8402 113.41 51.8903 114.72C52.2302 114.935 52.1559 115.461 51.7629 115.569C46.9828 116.922 42.4045 119.134 38.0281 122.205C26.7683 130.076 22.7743 145.851 23.7409 159.232C23.8259 160.327 24.9837 160.971 25.9398 160.467C30.9323 157.825 36.0204 156.59 41.5229 155.011C47.089 153.411 64.0636 146.302 65.7951 137.959C65.9013 137.454 66.5493 137.314 66.8467 137.733C73.7725 147.312 92.946 150.995 101.083 140.89C104.599 136.52 106.596 130.968 107.053 124.256C107.148 122.785 107.796 122.484 108.975 123.354L109.613 123.827C110.622 124.578 111.28 125.727 111.397 126.994C111.631 129.464 111.864 132.074 112.088 134.823C112.916 145.282 118.982 156.472 126.311 163.742C129.158 166.566 131.633 169.573 135.276 171.742C136.689 172.58 138.006 173.493 139.228 174.491C141.533 176.381 143.965 178.078 146.547 179.581C147.365 180.054 148.087 180.118 148.724 179.775C149.139 179.549 149.415 179.152 149.5 178.69C152.092 164.3 154.375 148.912 147.821 135.521C147.768 135.403 147.28 134.329 146.355 132.278C145.431 130.227 144.263 128.799 142.85 127.993C140.885 126.855 141.023 126.393 143.275 126.619C150.063 127.274 156.68 125.802 163.128 122.216C172.561 116.965 179.381 107.955 183.799 98.1829C184.745 96.0889 185.595 94.8647 184.447 93.1787V93.1894ZM9.20946 89.7746C11.1003 88.0671 13.2778 87.498 15.243 86.0053C15.4554 85.8443 15.6891 85.7583 15.9547 85.7583C19.3432 85.7583 22.6999 85.9624 26.046 86.3275C26.0672 86.3275 26.0779 86.3382 26.0779 86.3597V86.6711C26.0672 86.7678 26.0247 86.8107 25.9291 86.8215C20.2249 87.2617 14.9031 88.6363 9.97428 90.9451C7.11685 92.2874 6.86191 91.9008 9.20946 89.7746ZM11.6845 98.4406L11.0365 98.258C10.3779 98.0755 10.293 97.7533 10.7922 97.2916C12.3643 95.8097 16.6452 92.5881 19.4495 92.8565C19.8744 92.8888 19.9169 93.0391 19.5769 93.3076L13.3841 98.1077C12.8742 98.505 12.3112 98.6124 11.6845 98.4406ZM16.5071 99.944C16.0078 100.148 15.8379 99.987 15.9972 99.4715L16.2415 98.6661C16.284 98.4943 16.4008 98.3547 16.5602 98.2688C18.9396 96.9372 21.7014 95.1976 22.5087 92.427C22.6043 92.0941 22.8168 91.8471 23.1461 91.7075C23.9109 91.3961 24.6545 91.1491 25.3768 90.9666C26.8427 90.6014 26.9914 90.8914 25.8123 91.8471C23.8684 93.4149 22.052 95.2512 20.3524 97.3667C19.5557 98.3654 18.2704 99.2245 16.5071 99.944ZM22.7318 102.553C22.2325 102.908 21.6908 102.994 21.1066 102.8L20.4161 102.564C19.7469 102.339 19.6938 102.017 20.2674 101.598C23.0611 99.5467 25.8335 97.2486 28.5847 94.7036C29.1477 94.1881 29.6151 93.619 29.9975 92.9961C30.4012 92.3411 30.7836 91.6968 31.1554 91.0417C31.474 90.4726 31.8033 90.2041 32.1433 90.2363C32.4832 90.2685 32.5788 90.4404 32.4194 90.7518C29.732 95.917 26.5028 99.8474 22.7318 102.553ZM28.3829 103.638C27.8837 103.649 27.7987 103.466 28.1386 103.09C30.0613 100.996 32.1645 99.4393 33.3117 96.5613C33.9491 94.9506 34.2996 93.9519 34.374 93.576C34.852 90.8484 35.2981 90.8592 35.6911 93.5975C36.201 97.0983 32.993 103.584 28.3829 103.638ZM35.7443 81.7314C34.204 84.3409 32.5469 85.2536 30.7517 84.4805C30.1887 84.2335 29.6045 84.0724 29.0096 83.9972C25.5574 83.5784 22.1688 82.9663 18.8334 82.1609C17.8455 81.9354 17.7924 81.5596 18.674 81.0549C21.4359 79.4763 27.2782 79.0897 30.3056 80.3783C31.6759 80.9582 33.248 81.0548 35.0113 80.679C36.0417 80.4535 36.286 80.8079 35.7443 81.7314ZM173.358 88.69C173.538 88.894 173.751 89.0658 174.006 89.184C174.197 89.2699 174.367 89.388 174.526 89.5383C174.792 89.796 174.749 89.8712 174.388 89.7746C173.74 89.6028 173.358 89.4095 172.635 89.5168C169.395 90.0108 166.177 90.6122 162.99 91.3209C161.121 91.729 158.327 91.6968 154.598 91.2243C154.184 91.1706 154.142 91.0095 154.482 90.7625C155.395 90.0967 156.277 89.6994 157.127 89.5813C161.227 88.9907 165.295 88.2819 169.342 87.455C171.01 87.1114 172.349 87.5195 173.358 88.69ZM170.203 83.5569C170.128 83.7073 170.022 83.7932 169.884 83.8147C165.072 84.4805 160.303 85.3288 155.554 86.3597C154.312 86.6282 152.453 86.8 149.978 86.8752C149.606 86.8752 149.532 86.7463 149.733 86.4349C150.392 85.4469 151.242 84.8671 152.293 84.6952C155.852 84.1153 159.41 83.5355 162.969 82.9448C164.063 82.7623 166.4 82.8267 169.958 83.1381C170.235 83.1703 170.32 83.3099 170.203 83.5569ZM167.696 78.6279C168.301 79.0467 168.238 79.2615 167.505 79.2722C165.189 79.3045 163.245 79.4978 161.662 79.8521C160.218 80.185 158.731 80.3461 157.212 80.3139C154.8 80.2602 151.73 80.8938 147.991 82.2146C147.471 82.3972 147.29 82.2253 147.45 81.6777L147.588 81.2267C147.758 80.6683 148.119 80.2924 148.671 80.1099C151.996 79.0038 154.28 78.4239 155.544 78.3809C158.295 78.3058 161.036 78.1232 163.776 77.8548C165.401 77.6937 166.708 77.9514 167.696 78.6279ZM157.923 72.0774C158.465 72.1311 158.847 72.3351 159.071 72.711C159.272 73.0546 159.177 73.2479 158.784 73.2909C154.715 73.7526 150.424 74.6332 147.163 77.1138C147.035 77.2104 146.855 77.1675 146.78 77.0171C146.748 76.942 146.717 76.8561 146.706 76.7594C146.695 76.7272 146.706 76.7057 146.727 76.6842C149.638 73.2157 153.366 71.6801 157.923 72.0774ZM165.2 46.7236C163.489 50.3855 160.908 53.0379 157.467 54.6809C153.037 56.7964 145.633 58.6649 142.032 53.9399C141.777 53.6071 141.862 53.446 142.276 53.4567C148.788 53.5748 159.697 51.7171 164.605 46.3156C165.699 45.1128 165.89 45.2524 165.2 46.7236ZM170.224 37.5529C170.224 37.5529 170.309 37.4992 170.352 37.5207C170.394 37.5421 170.415 37.5958 170.405 37.6495L168.248 44.6081C168.195 44.7692 167.983 44.7799 167.919 44.6296C167.845 44.447 167.855 44.3074 167.951 44.1893C168.046 44.0712 168.089 43.9423 168.089 43.8027C168.1 41.5584 168.811 39.4751 170.224 37.5529ZM168.238 13.9065C169.406 17.5362 166.113 21.1873 163.288 22.9162C158.391 25.9015 153.101 28.4466 147.428 30.5621C147.035 30.7017 146.993 30.6265 147.28 30.3258C148.076 29.4882 149 29.1768 149.755 28.2103C150.169 27.6734 150.573 27.115 151.178 26.7714C156.989 23.4639 164.116 19.7591 167.675 13.8421C167.813 13.6059 168.153 13.6488 168.238 13.9065ZM167.483 27.4049C160.781 32.8279 153.101 35.4052 144.433 35.1474C143.934 35.1367 143.381 35.1689 142.786 35.2548C141.979 35.3622 141.416 35.3515 141.108 35.2333C139.419 34.5353 139.483 34.0736 141.289 33.8373C149.68 32.742 160.016 29.8533 166.889 24.5055C167.6 23.9578 168.036 24.1189 168.195 25.0102L168.248 25.3324C168.397 26.1807 168.142 26.868 167.483 27.4049ZM165.571 8.51577C165.763 8.29026 165.975 8.26879 166.209 8.45134L166.421 8.62316C166.729 8.87014 166.804 9.31043 166.591 9.64332C162.884 15.3026 158.433 18.2449 153.122 21.896C147.811 25.5579 147.45 25.1069 152.028 20.543C153.526 19.0611 155.586 17.4717 158.221 15.775C159.803 14.7549 162.247 12.328 165.571 8.51577ZM147.736 14.8623C149.925 11.6085 152.453 9.50372 153.388 10.148L153.451 10.191C153.536 10.2447 153.557 10.3628 153.504 10.4487L145.665 22.1001C145.612 22.186 145.506 22.2075 145.421 22.143L145.346 22.1001C144.412 21.4558 145.421 18.2986 147.609 15.0556L147.736 14.8623ZM137.613 18.2234C137.677 16.4731 138.527 13.1763 140.641 12.8434C141.023 12.7897 141.14 12.9401 140.991 13.2944C139.621 16.5804 138.952 20.0168 139.005 23.5927C139.026 24.978 139.281 25.0317 139.78 23.7323C141.363 19.5228 142.818 15.4422 144.167 11.4796C144.263 11.1789 144.55 10.9856 144.868 11.0071L145.293 11.0393C145.495 11.0501 145.548 11.1575 145.474 11.34C144.911 12.736 144.337 14.1428 143.774 15.5603C142.531 18.7067 141.82 22.2934 140.386 25.5901C139.77 27.0076 139.515 28.3929 139.249 29.7137C138.633 32.6668 138.166 32.6346 137.858 29.6385C137.539 26.5566 137.454 22.7551 137.613 18.2234ZM138.612 40.5919C144.019 39.5395 149.489 38.5194 155.013 37.5421C159.729 36.7045 164.52 34.3635 168.121 31.0346C168.599 30.5943 168.854 30.6909 168.907 31.346C168.96 31.9688 168.716 32.6668 168.185 33.4507C164.35 39.1422 159.665 39.9046 152.559 41.0537C147.726 41.8376 143.084 41.9235 138.633 41.3114C137.167 41.1073 137.156 40.8711 138.612 40.5919ZM137.316 44.3397C145.569 45.8968 153.589 45.2417 161.365 42.3852C161.949 42.1705 162.48 42.0309 162.937 41.9664C163.649 41.8698 163.787 42.106 163.351 42.6967C161.599 45.0269 159.272 46.5625 156.351 47.3142C151.221 48.6351 146.377 48.9895 141.83 48.3774C140.078 48.1411 138.463 46.9813 136.965 44.8873C136.636 44.4148 136.753 44.2323 137.316 44.3397ZM134.129 101.78C127.32 104.658 121.095 101.855 115.019 97.1627C111.641 94.5532 108.317 91.5142 105.034 88.0457C104.631 87.6161 104.716 87.4443 105.289 87.5195C106.553 87.6805 107.679 87.9598 108.657 88.3356C116.783 91.525 123.241 93.9948 131.665 93.7264C132.291 93.7049 132.748 93.5223 133.014 93.1894C133.237 92.921 133.375 92.5988 133.428 92.2444C133.47 91.933 133.343 91.7183 133.046 91.6001L128.786 89.9893C128.361 89.8283 128.319 89.6028 128.669 89.3021C129.657 88.4323 130.857 87.9383 132.281 87.8416C135.298 87.6376 137.231 86.1127 138.081 83.2885C138.197 82.9019 138.038 82.4831 137.698 82.2791C137.135 81.9354 136.647 81.9891 136.232 82.4509C134.905 83.8898 133.322 86.0483 131.293 86.3275C130.56 86.4349 130.411 86.1879 130.857 85.5865C132.95 82.8052 135.319 80.2172 137.964 77.8333C138.155 77.6615 138.452 77.6722 138.622 77.8762C140.205 79.691 141.172 81.828 141.522 84.2657C142.563 91.4283 141.459 98.6876 134.129 101.78ZM141.246 122.227C141.363 122.334 141.363 122.452 141.257 122.57C141.15 122.688 141.034 122.699 140.917 122.602C138.739 120.852 136.7 119.037 134.777 117.158C134.458 116.847 134.257 116.428 134.203 115.977C134.033 114.42 134.543 112.744 135.733 110.951C136.03 110.5 136.254 110.532 136.392 111.058C136.71 112.229 136.88 113.399 136.902 114.548C136.933 117.362 139.334 120.422 141.246 122.227ZM114.584 112.83C114.924 112.863 115.264 112.948 115.572 113.109C116.974 113.84 118.95 115.15 120.554 114.57C121.977 114.054 122.147 113.26 121.064 112.197C118.865 110.038 116.485 107.923 113.946 105.85C112.587 104.744 111.461 103.638 110.579 102.543C109.836 101.608 109.91 101.544 110.792 102.328C112.364 103.713 114.18 105.077 116.23 106.43C118.079 107.644 119.428 109.34 121.233 110.726C122.211 111.466 122.784 112.089 122.954 112.583C123.199 113.26 123.103 113.947 122.678 114.634C122.391 115.096 121.903 115.515 121.212 115.891C119.013 117.115 116.931 117.534 114.966 117.136C113.341 116.804 112.459 115.74 112.321 113.947C112.311 113.775 112.258 113.614 112.162 113.464C110.239 110.446 108.625 107.482 107.318 104.551C106.585 102.908 106.787 102.768 107.934 104.154C109.485 106.011 111.015 108.417 112.534 111.348C113.001 112.25 113.681 112.744 114.584 112.83ZM113.012 108.105C113.182 107.901 114.658 108.878 116.315 110.285C117.972 111.692 119.173 113.002 119.003 113.206C118.833 113.41 117.356 112.433 115.699 111.026C114.042 109.619 112.842 108.309 113.012 108.105ZM98.629 70.7136C98.5865 70.7995 98.4909 70.8639 98.3953 70.8854C98.2359 70.9176 98.0978 70.8854 97.981 70.7673C97.9597 70.7351 97.9491 70.7029 97.9597 70.6706C99.1919 65.6557 100.488 62.2301 101.848 60.4046C102.549 59.4596 103.621 58.4287 105.066 57.3226C107.934 55.1212 110.473 54.1547 113.872 55.0568C118.95 56.4098 120.787 64.249 121.308 68.974C121.669 72.2492 120.851 74.5687 118.854 75.9433C117.919 76.5876 116.464 77.0708 114.499 77.4037C112.905 77.6615 111.376 77.9299 109.899 78.2199C109.453 78.3058 109.4 78.1984 109.729 77.887C109.91 77.7151 110.133 77.597 110.388 77.5219C114.318 76.4587 119.428 76.9098 118.525 70.8102C117.834 66.1497 117.303 62.1657 114.297 59.7066C111.068 57.0649 107.541 57.7092 105.013 60.9952C102.241 64.5819 100.116 67.8249 98.629 70.7136ZM101.486 75.6104C101.146 75.7393 100.647 75.2453 100.35 74.4936C100.063 73.7419 100.105 73.0224 100.435 72.8935C100.775 72.7647 101.274 73.2586 101.571 74.0103C101.858 74.762 101.816 75.4815 101.486 75.6104ZM92.6804 91.686C89.4406 91.8901 86.6469 89.345 86.445 85.9946C86.2326 82.6334 88.6758 79.7447 91.905 79.5407C95.1448 79.3367 97.9385 81.8817 98.1403 85.2322C98.3528 88.5933 95.9096 91.482 92.6804 91.686ZM86.9549 131.709C86.8275 131.795 86.6894 131.805 86.5513 131.73C86.3494 131.623 86.2857 131.365 86.4344 131.193C90.6303 126.286 90.8427 121.249 92.5529 115.633C92.9247 114.42 93.1478 113.185 93.2222 111.928C93.2328 111.832 93.2859 111.778 93.3815 111.778H93.3921C93.4877 111.767 93.5408 111.821 93.5514 111.918C94.0826 118.747 93.2434 127.617 86.9549 131.709ZM76.9274 126.404L77.2248 126.619C77.4797 126.801 77.8409 126.747 78.0321 126.501L83.577 119.177C83.6301 119.091 83.7151 119.069 83.8107 119.112L84.055 119.23C84.1612 119.284 84.1931 119.37 84.1506 119.488C82.5254 123.655 80.4646 125.996 78.4995 129.4C78.3189 129.711 78.0533 129.926 77.7134 130.033C74.9728 130.86 73.0821 130.001 72.0411 127.456C71.8605 127.037 71.9879 126.747 72.4128 126.597L74.1549 126.007C74.5267 125.878 74.8241 125.641 75.0366 125.298C79.0412 118.919 82.5148 112.562 85.4465 106.237C85.6271 105.85 85.7652 105.861 85.8714 106.28C85.9883 106.731 85.9777 107.171 85.829 107.601C84.926 110.199 83.9913 112.787 83.0246 115.365C81.5481 119.263 79.0094 122.431 76.8636 126.039C76.768 126.178 76.7893 126.307 76.9274 126.404ZM68.5038 116.932L74.0912 112.175C74.1549 112.122 74.2611 112.122 74.3249 112.186L74.5692 112.411C74.6435 112.465 74.6542 112.573 74.5904 112.658L69.4492 119.456C69.3642 119.574 69.173 119.542 69.1305 119.392L68.4401 117.126C68.4188 117.051 68.4401 116.975 68.5038 116.932ZM67.8877 115.3C67.8771 113.936 68.302 112.691 69.173 111.563C71.7542 108.202 74.8029 105.346 78.3189 102.972C78.3933 102.919 78.457 102.929 78.5101 103.004H78.5207C78.5738 103.069 78.5738 103.133 78.5101 103.198C77.5116 104.1 76.8318 105.174 76.4812 106.43C76.375 106.795 76.1519 107.117 75.8439 107.321C72.7209 109.426 71.0744 112.755 68.8756 115.633C68.2276 116.471 67.8983 116.363 67.8877 115.3ZM70.9682 121.153C72.7846 119.402 73.5388 117.566 74.9728 115.687C76.1094 114.216 76.9911 112.701 77.5966 111.144C78.3189 109.308 79.583 108.041 81.2401 107.182C81.6543 106.967 81.7712 107.074 81.5694 107.504C79.7317 111.445 77.8621 115.107 75.982 118.468C74.7285 120.712 75.0578 123.58 71.5312 124.868C71.1806 124.997 70.8832 124.933 70.6177 124.664C69.5129 123.526 69.8635 122.227 70.9682 121.153ZM83.2158 77.3715C83.2052 77.5326 83.1946 77.5326 83.1627 77.3715C83.1627 77.3608 83.1627 77.35 83.1627 77.3393C83.1521 77.2963 83.1415 77.2641 83.1096 77.2319C76.0245 70.4129 67.4947 67.2665 57.5415 67.7927C56.766 67.8357 56.2137 67.5887 55.8844 67.041C55.6825 66.7081 55.7675 66.4719 56.1287 66.343C57.2122 65.9457 58.3063 65.7309 59.4004 65.7202C68.1851 65.5806 75.727 68.5122 82.0261 74.5258C82.8759 75.3312 83.2796 76.2762 83.2265 77.3715H83.2158ZM82.3129 63.7657C82.3448 63.3469 82.4404 63.3255 82.5997 63.7121L83.5664 65.9564C83.7682 66.4289 83.6726 66.4933 83.3008 66.1604C82.5891 65.5376 82.2598 64.743 82.3129 63.7657ZM80.2416 102.006C80.454 101.254 80.8789 100.814 81.5269 100.696C81.8137 100.642 81.9093 100.749 81.8031 101.039L81.1976 102.661C81.0595 103.037 80.847 103.09 80.5602 102.811C80.4646 102.715 80.3796 102.596 80.3053 102.478C80.2097 102.339 80.1884 102.178 80.2416 102.006ZM80.454 49.7841C79.5723 48.4847 78.4782 47.4216 77.1611 46.5948C76.3219 46.0686 75.3234 46.1008 74.3674 45.5316C73.9212 45.2632 73.5494 45.1021 73.2626 45.0269C71.7861 44.6726 70.7451 44.5759 70.1184 44.737C67.7708 45.3383 67.7496 46.0364 70.0334 46.8203C71.4143 47.3035 72.8165 48.3344 74.2505 49.913C77.0761 53.0486 81.1126 56.6568 82.3979 60.7697C83.0034 62.7134 82.6847 62.8959 81.4313 61.2959C77.6497 56.4743 73.4326 51.9963 68.7693 47.8404C67.9302 47.0995 67.0379 47.0028 66.0713 47.572L65.8163 47.7223C64.8178 48.3129 64.7753 48.9787 65.6889 49.6982C69.1836 52.4795 71.9242 55.7118 75.3021 58.6434C76.8105 59.9535 78.0852 61.2637 79.1368 62.5738C79.9972 63.6476 79.8167 63.8731 78.5951 63.2503C72.6359 60.2328 67.8877 55.744 64.3398 49.7841C63.7343 48.764 63.32 48.8391 63.097 50.0096C62.8527 51.3197 62.7146 52.0285 62.6933 52.1466C62.4915 53.2849 62.7677 54.2836 63.5431 55.1319L68.7587 60.8985C69.003 61.167 68.9499 61.2959 68.5781 61.2851C67.739 61.2422 66.9635 61.0811 66.2306 60.7912C65.9013 60.6623 65.5614 60.6408 65.2215 60.7267C62.8208 61.3281 60.3883 61.618 57.9132 61.5858C57.5733 61.5858 57.2653 61.6825 56.9891 61.8758L55.895 62.6382C55.0664 63.2181 53.9298 62.7134 53.7917 61.7039C52.3365 51.513 55.3214 44.286 62.7252 40.012C64.3292 39.0885 66.3049 38.2938 68.6525 37.6388C72.6147 36.5327 75.9607 34.9112 80.3478 36.3287C83.1096 37.22 85.6059 38.5945 87.8472 40.4523C90.0779 42.2993 88.8032 44.6296 88.3358 46.8847C88.0384 48.3344 87.6348 48.3666 87.1143 46.9813C85.4678 42.5785 82.2386 40.1087 77.4372 39.5825C70.1821 38.7771 59.7084 41.8268 58.7524 50.6325C58.4762 53.1453 58.3488 55.6581 58.3594 58.1602C58.3594 58.9549 58.8055 59.6743 59.5172 60.0072C60.9088 60.6623 62.3747 60.6516 63.9255 59.975C64.2654 59.8247 64.3398 59.5884 64.138 59.277C61.7904 55.5185 59.5066 53.5641 62.2897 48.9143C62.7889 48.0874 63.2669 47.2498 63.7343 46.4122C63.9149 46.1008 64.1592 45.886 64.4885 45.7572C66.9954 44.7692 69.5342 42.9973 71.9986 42.9007C74.5586 42.7933 76.7787 43.4161 78.6482 44.7692C82.929 47.8727 85.3616 51.513 85.9458 55.7118C86.2645 57.9777 86.7 59.9535 87.2417 61.6395C87.2523 61.6717 87.2311 61.7147 87.1886 61.7254L86.9443 61.8113C86.7425 61.8865 86.615 61.8221 86.5407 61.6288C84.9792 57.4407 82.9503 53.4889 80.454 49.7841ZM80.8683 53.4889C80.6771 53.6393 79.3174 52.254 77.809 50.3962C76.3113 48.5384 75.2384 46.8954 75.4296 46.7451C75.6208 46.5948 76.9805 47.98 78.4889 49.8378C79.9866 51.6956 81.0595 53.3386 80.8683 53.4889ZM124.218 67.5135C123.485 62.8637 121.775 58.9012 119.066 55.6259C115.657 51.513 107.796 52.0929 103.813 54.2728C101.38 55.5937 99.4681 57.7414 98.0554 60.7052C96.9506 63.0463 96.77 65.7846 96.1964 68.3189C95.8778 69.7042 95.6865 69.6934 95.6228 68.2652C95.2085 59.1374 96.1964 52.6621 105.395 48.6673C112.342 45.639 120.724 47.5934 125.121 54.101C130.167 61.5858 130.326 71.6908 122.104 77.1675C121.839 77.3393 121.51 77.393 121.212 77.2963L120.883 77.189C120.702 77.1353 120.649 76.9098 120.787 76.7809C123.613 74.064 124.76 70.9713 124.218 67.5135ZM112.321 71.3794C110.622 72.5928 108.593 73.4412 106.245 73.9244C105.852 73.9996 105.703 73.8385 105.799 73.4412C105.927 72.9258 106.266 72.5714 106.819 72.3673C108.826 71.6479 110.749 70.9176 112.587 70.1767C112.959 70.0263 113.267 69.7471 113.447 69.3928C113.84 68.6518 114.085 67.8894 114.191 67.1269C114.265 66.6115 114.509 66.5041 114.934 66.794C115.88 67.4491 116.124 68.4478 115.646 69.7686C115.157 71.1324 114.393 72.3566 113.362 73.4305C112.597 74.2251 112.449 74.1177 112.927 73.119C113.129 72.6895 113.203 72.2385 113.171 71.7767C113.118 71.1539 112.831 71.025 112.321 71.3794ZM103.823 68.2867C105.735 66.386 108.115 64.9685 108.603 62.1335C108.667 61.7791 108.858 61.5214 109.188 61.3603C112.109 59.9858 112.767 63.8517 113.086 65.6665C113.139 65.9886 112.852 66.2571 112.544 66.1927L110.494 65.7309C109.91 65.602 109.602 65.8383 109.559 66.4289L109.517 66.9551C109.485 67.3309 109.347 67.6424 109.081 67.9108L105.725 71.3364C105.024 72.0344 104.238 72.1633 103.356 71.7123C103.09 71.5727 102.952 71.3901 102.952 71.1539C102.952 69.8223 103.239 68.8666 103.823 68.2867ZM116.698 85.6939C117.218 85.6187 117.717 85.6617 118.195 85.8335C118.461 85.9194 118.716 85.9302 118.982 85.8657C119.311 85.7798 119.629 85.812 119.916 85.9624C120.086 86.0483 120.076 86.0805 119.884 86.0698L116.698 85.8013C116.411 85.7691 116.411 85.7369 116.698 85.6939ZM133.959 16.0435C134.288 15.818 134.405 15.8932 134.299 16.2905C133.056 20.8329 132.302 25.2357 132.036 29.4989C131.983 30.4439 131.697 31.2601 131.197 31.9473C130.953 32.2802 130.826 32.248 130.794 31.8292C130.549 27.5338 130.305 18.6422 133.959 16.0435ZM127.193 20.4141C127.607 20.0275 127.766 20.1134 127.671 20.6826C127.097 23.9471 126.555 28.8332 127.989 31.9473C128.552 33.1715 129.02 34.5246 129.37 36.0065C129.402 36.1354 129.36 36.2428 129.253 36.3179L128.956 36.5649C128.722 36.7475 128.542 36.7045 128.404 36.4468C126.63 33.0212 125.61 29.1768 125.366 24.9351C125.259 23.1417 125.865 21.6383 127.193 20.4141ZM123.294 27.4371C123.602 25.88 124.102 24.6559 124.42 24.7203C124.739 24.7847 124.749 26.1056 124.441 27.6734C124.133 29.2305 123.634 30.4547 123.315 30.3902C122.997 30.3258 122.986 29.005 123.294 27.4371ZM107.785 39.5717C114.255 37.8213 119.874 39.4536 125.705 42.7289C135.032 47.9693 143.785 60.2542 137.199 71.315C135.085 74.8587 132.366 77.3393 129.03 78.7461C122.083 81.6884 116.931 81.0441 110.059 81.2374C109.995 81.2374 109.931 81.1945 109.921 81.1193C109.921 81.0548 109.952 80.9904 110.016 80.9689C111.28 80.5501 112.417 80.0776 113.777 79.9703C117.919 79.6266 121.308 79.0789 123.942 78.3165C127.979 77.146 131.229 71.1646 131.941 67.2343C133.141 60.6301 130.358 54.7024 125.812 49.9022C122.168 46.0578 117.919 44.1678 113.054 44.243C106.309 44.3397 100.86 46.8847 96.6851 51.8674C95.3891 53.4138 94.688 55.3467 94.5818 57.677C94.4012 61.3173 94.2313 65.2584 94.0613 69.5001C93.8276 75.2023 93.3178 75.2238 92.5423 69.5753C91.9793 65.5161 92.468 60.018 92.7229 54.8635C93.0947 47.2391 101.21 41.3436 107.785 39.5717ZM67.6327 33.1715C69.8103 28.0063 74.8029 25.1606 79.6679 23.0558C88.8032 19.1147 98.4802 24.2693 103.271 33.0427C103.866 34.1488 103.717 35.1367 102.825 36.0065L102.219 36.6079C101.316 37.4884 100.488 37.424 99.7337 36.4039C94.5818 29.456 86.1582 25.0854 77.8409 28.758C76.7043 29.2627 76.7468 29.5849 77.9896 29.7352C79.2855 29.8963 80.847 29.4775 82.2492 29.66C88.527 30.4439 93.3178 33.5796 96.6426 39.067C96.9612 39.5932 96.8019 40.2912 96.2708 40.6134C93.647 42.2134 91.8094 44.5759 90.7684 47.7223C90.7259 47.8512 90.6409 47.8941 90.5241 47.8619H90.5134C90.386 47.819 90.3435 47.7331 90.3753 47.6149C91.0233 45.1987 92.1599 43.3088 93.7851 41.945C94.3481 41.4725 94.3906 40.957 93.9126 40.3986C91.3314 37.3166 88.1977 35.0508 84.5118 33.5903C82.1748 32.6668 79.0837 32.3769 76.3856 31.6681C76.0351 31.5715 75.7058 31.6037 75.3765 31.7433C72.4978 32.946 70.129 34.1595 67.9514 33.7729C67.6009 33.7085 67.4947 33.5044 67.6327 33.1715ZM45.2301 8.20435C45.3469 7.84998 45.6019 7.67816 45.9736 7.69964C52.3046 8.12918 57.8176 13.2193 61.886 18.7174C65.2321 23.2169 65.4976 26.7606 62.7677 31.1527C61.5249 33.1501 60.3989 35.7488 58.3488 36.9515C57.2759 37.5744 56.6173 37.2737 56.373 36.0602C54.8327 28.511 53.0269 21.6383 50.9556 15.4636C50.0845 12.8434 48.4699 10.9105 46.1117 9.6648C45.6762 9.42855 45.4 9.18156 45.2832 8.92384C45.177 8.67685 45.1557 8.42986 45.2301 8.20435ZM40.6412 6.33584L43.2756 6.94794C44.0722 7.1305 44.5184 7.63521 44.6246 8.46208C45.1238 12.1991 47.2696 16.3227 48.1619 19.2543C49.6809 24.2156 50.9662 29.2305 52.039 34.3098C52.124 34.7072 52.1559 35.0723 52.124 35.4266C52.0497 36.5327 51.6566 36.6616 50.9556 35.8132C49.1285 33.6011 47.6732 30.7017 46.5791 27.1257C45.7187 24.3015 43.403 17.7509 39.6533 7.47413C39.2921 6.47544 39.6214 6.09959 40.6412 6.33584ZM47.3652 50.7184C40.6412 52.7802 30.6455 51.5667 24.7925 49.8271C22.1794 49.0539 19.9062 47.2176 17.9623 44.3074C17.6543 43.8564 17.7605 43.7061 18.281 43.8672C21.319 44.7907 24.3252 45.8216 27.5331 46.1008C34.7882 46.7344 42.0646 46.7988 49.3834 46.2726C50.0102 46.2296 50.4882 46.8203 50.3395 47.4324C49.9464 49.0217 49.0117 50.2137 47.3652 50.7184ZM47.9919 57.3226L47.8432 57.881C47.4926 59.1482 46.6641 59.8247 45.3575 59.9213C39.1222 60.3616 34.2146 59.8354 30.6136 58.3642C27.8943 57.2582 25.4405 55.5078 23.2417 53.1238C22.7318 52.5654 22.8486 52.3614 23.5816 52.501C28.6804 53.4567 33.8428 54.8957 38.846 55.2715C41.6185 55.4756 44.2741 55.6152 46.7916 55.6689C47.8963 55.6903 48.3 56.238 47.9919 57.3226ZM16.8151 35.5985C17.7393 35.9099 19.0352 36.5327 20.6923 37.467C24.4951 39.5932 30.1569 39.7006 34.4589 40.3771C37.6032 40.8711 41.0767 40.6456 44.051 41.1181C46.3136 41.4725 46.3136 41.8805 44.0722 42.3315C37.7094 43.6094 30.5924 43.3517 22.7424 41.5369C19.715 40.8389 17.6012 39.0133 16.3796 36.0602C16.1884 35.5877 16.3371 35.4374 16.8151 35.5985ZM16.2946 31.4104C15.8379 31.1634 15.6042 30.7876 15.5935 30.2721V29.5312C15.5723 29.0694 15.7635 28.9298 16.1778 29.1124C17.9942 29.8963 19.8 30.9057 21.6589 31.5285C27.3101 33.4185 33.0674 35.2226 38.9204 36.9515C39.0584 36.9945 39.1116 37.0911 39.0797 37.2307C39.0478 37.4133 38.9416 37.4884 38.7716 37.467C33.6516 36.7475 28.5847 35.6951 23.5816 34.3206C20.9579 33.6011 18.5253 32.6346 16.2946 31.4104ZM33.6091 6.85129L34.8095 6.92646C35.3619 6.96942 35.8399 7.33453 36.0311 7.87146C38.6123 15.4422 41.236 23.0021 43.9023 30.5299C44.1253 31.142 44.2316 31.5071 44.2209 31.6037C44.1678 32.5594 43.8492 32.6561 43.2862 31.8937C37.9006 24.6451 34.9688 16.1831 32.9399 7.64595C32.8018 7.0768 33.0249 6.81908 33.6091 6.85129ZM25.7379 7.50635C26.8852 7.02311 27.6818 7.39896 28.1174 8.61242C30.2737 14.6368 32.3557 20.7685 34.3421 27.0183C34.4696 27.4157 34.3421 27.5231 33.9703 27.3512C33.4604 27.115 33.0887 26.7391 32.8656 26.2344C30.2206 20.3819 27.0339 14.4542 25.3662 8.25805C25.2918 7.94663 25.4405 7.62447 25.7379 7.50635ZM17.2081 10.7494L18.7059 10.4272C19.4282 10.2662 20.1718 10.5668 20.5861 11.1789L29.169 23.829C29.4452 24.2478 29.3496 24.3659 28.8928 24.1941C27.5969 23.7216 26.5559 23.0343 25.7804 22.143C22.7106 18.5886 19.7257 15.1844 16.8257 11.9414C16.284 11.3293 16.4115 10.932 17.2081 10.7494ZM10.3354 15.1415C14.3932 19.7483 19.2795 23.4961 25.005 26.3955C25.7486 26.7714 26.4496 27.319 27.0976 28.017C27.4269 28.3714 27.3525 28.5003 26.8745 28.4036C25.0794 28.0063 23.5072 27.4157 22.1688 26.621C18.5359 24.4733 15.1049 22.0356 11.8863 19.2973C10.7603 18.3416 10.0805 17.0315 9.84681 15.3777C9.76183 14.7549 9.92117 14.6797 10.3354 15.1415ZM14.6269 28.2533C14.4357 28.4466 13.7877 28.1351 13.1822 27.5553C12.5661 26.9754 12.2369 26.3311 12.4281 26.127C12.6193 25.9337 13.2672 26.2452 13.8727 26.825C14.4888 27.4049 14.8181 28.0492 14.6269 28.2533ZM23.6878 62.5523C17.8242 57.43 13.6815 50.9976 11.249 43.2765C9.35818 37.2737 7.45677 29.2734 8.4234 23.0451C8.47652 22.68 8.67834 22.5726 9.00764 22.7229C10.3673 23.335 11.1215 24.4518 11.2702 26.0948C11.8013 31.9259 13.5647 38.3905 16.5602 45.4672C18.7165 50.5788 21.1809 54.6057 23.9534 57.5588C28.2555 62.1442 34.1084 63.8839 40.5243 63.7335C42.447 63.6906 44.4228 63.9805 46.441 64.6034C47.174 64.8289 47.2058 65.1188 46.5154 65.4732C38.3043 69.6612 30.688 68.684 23.6878 62.5523ZM39.5471 127.617L43.9554 127.134C45.9524 126.919 47.652 127.542 47.7582 128.541V128.627C47.7688 128.713 47.7051 128.799 47.6201 128.809L36.3179 130.044C36.2329 130.055 36.1585 129.991 36.1479 129.905V129.819C36.0311 128.82 37.5607 127.832 39.5471 127.617ZM47.0253 125.641C48.2893 125.298 49.7021 125.169 51.2424 125.244C51.9116 125.276 51.9647 125.48 51.4017 125.845C50.3288 126.543 48.8736 126.597 47.0146 126.007C46.6004 125.878 46.6004 125.76 47.0253 125.641ZM29.6682 141.406C30.5499 138.334 34.5333 137.314 37.1995 137.959C37.9325 138.141 37.9325 138.291 37.1783 138.41C34.597 138.807 31.6546 139.312 29.9975 141.577C29.5833 142.136 29.477 142.082 29.6682 141.406ZM30.9642 151.779C30.8048 151.994 30.6243 152.176 30.4012 152.316C30.2843 152.391 30.0719 152.585 29.7532 152.874C29.5833 153.036 29.3921 153.164 29.1902 153.261C28.8184 153.433 28.6485 153.315 28.7016 152.907C28.8184 151.822 29.3177 151.113 30.2206 150.77C31.6121 150.233 31.8671 150.566 30.9642 151.779ZM40.195 140.794C37.8263 144.52 34.1615 146.625 29.1796 147.097C28.7122 147.14 28.3723 146.668 28.5635 146.227L29.0309 145.132C29.2115 144.702 29.6045 144.391 30.0719 144.316C33.1418 143.8 36.3497 142.469 39.717 140.321C40.5881 139.773 40.7474 139.924 40.195 140.794ZM48.0769 138.023C46.0692 141.384 45.0495 145.164 43.9341 149.073C43.8917 149.234 43.7004 149.32 43.5517 149.245L43.2649 149.105C42.9569 148.955 42.7763 148.622 42.8294 148.289C43.3499 145.025 45.0814 139.881 47.7901 137.776C48.3318 137.346 48.4274 137.432 48.0769 138.023ZM48.8098 129.636C48.2681 130.57 47.737 131.569 46.7172 132.192C44.529 133.524 42.7232 135.102 40.1313 135.446C38.3255 135.682 36.5197 135.768 34.7033 135.714C33.6835 135.682 33.0568 135.972 32.1008 136.176C31.7077 136.251 31.6546 136.154 31.9308 135.865C32.7169 135.027 33.641 134.511 34.7033 134.307C37.7094 133.749 40.6731 133.277 43.6155 132.901C44.4228 132.793 45.1451 132.364 45.6337 131.709C46.3985 130.71 47.259 129.84 48.2256 129.11C49.2666 128.326 49.4578 128.509 48.8098 129.636ZM50.9024 145.97C50.7431 146.324 50.3395 146.506 49.9677 146.378L49.6065 146.259C49.4047 146.184 49.2878 145.97 49.341 145.755L51.9647 135.865C52.0072 135.736 52.124 135.65 52.2515 135.661H52.5489C52.6658 135.671 52.7295 135.736 52.7401 135.854C52.9844 139.344 52.3683 142.716 50.9024 145.97ZM51.3167 123.397C47.6414 123.204 43.3712 123.794 38.5061 125.18C37.8794 125.362 37.8369 125.266 38.3786 124.9C42.4045 122.184 46.7491 121.475 51.4123 122.753C53.3987 123.3 53.3668 123.515 51.3167 123.397ZM56.4686 105.958L55.417 108.288C55.0133 109.19 53.9936 109.641 53.0694 109.308C50.9343 108.556 48.9267 107.085 47.0571 104.894C42.7126 99.8044 40.6731 93.9519 40.9599 87.3369C41.2254 80.883 45.0176 74.5365 50.8706 71.4546C51.901 70.9176 53.4306 70.5525 55.4595 70.37C57.0741 70.2304 58.6143 70.2626 60.0908 70.4666C65.1684 71.1861 69.4917 72.3459 73.0502 73.9459C75.1959 74.9016 77.2248 76.7165 79.1368 79.3689C79.2324 79.5085 79.2112 79.6159 79.0625 79.691C78.9881 79.734 78.8925 79.7662 78.7863 79.7877C78.7757 79.7877 78.7544 79.7877 78.7438 79.777C72.0198 74.3647 65.3064 73.2801 56.4686 72.5177C54.7796 72.3673 53.3562 72.7217 52.1771 73.5808C50.0527 75.1594 48.4699 76.899 47.4289 78.7997C47.3439 78.9501 47.3758 79.1434 47.5033 79.2615C47.5989 79.3582 47.7157 79.4226 47.8432 79.4441C47.96 79.4655 48.0556 79.4333 48.13 79.3582C50.2014 77.2856 51.9647 75.3312 55.162 75.4278C58.2956 75.5245 60.8663 75.8789 62.8633 76.5017C65.1896 77.2427 67.2504 77.6937 69.0243 77.8655C70.3521 77.9944 71.1806 78.4346 72.2747 79.036C72.3172 79.0682 72.3172 79.0789 72.2641 79.0682C70.0865 78.6709 68.5463 77.9407 66.2306 78.8964C65.7632 79.0897 65.7738 79.2508 66.2518 79.3904C69.8635 80.4105 73.1883 81.6992 76.2263 83.267C77.0655 83.7073 77.023 83.965 76.0776 84.0402C75.3553 84.1046 74.6754 84.0402 74.0381 83.8361C71.2975 82.9663 68.3976 82.0428 65.3277 81.0656C60.5157 79.5514 55.3532 79.2508 49.8508 80.1743C48.5655 80.3891 47.5564 80.9367 46.8234 81.828C41.5441 88.2175 45.9524 105.818 54.9071 107.397C55.3639 107.472 55.6294 107.278 55.6825 106.817C55.725 106.419 55.9268 106.076 56.2774 105.807C56.5429 105.603 56.6067 105.657 56.4686 105.958ZM63.2351 87.1114C59.6341 86.5637 55.9906 86.349 52.2834 86.4456C50.8281 86.4886 49.4578 87.1221 48.1512 88.3571C47.9175 88.5719 47.5564 88.3463 47.6414 88.0457L47.9494 86.8644C48.0875 86.3275 48.3956 85.9302 48.8842 85.6832C53.6218 83.224 57.2759 84.1046 62.534 85.4684C64.6903 86.0268 66.3262 87.0362 67.4522 88.4967C67.9833 88.7866 68.2913 89.1625 68.3869 89.6028C68.4401 89.8497 68.3445 90.0216 68.1001 90.1182C67.9833 90.1612 67.8664 90.1719 67.739 90.1397C67.5371 90.0967 67.4415 89.9786 67.4415 89.7746V88.4967C66.0394 87.9812 64.7116 87.3369 63.2351 87.1114ZM64.8391 90.4404C64.7222 90.537 64.5947 90.6122 64.4566 90.6659C64.2654 90.741 64.0955 90.8484 63.9574 90.988C62.842 92.1049 61.493 92.4914 59.9209 92.1371C54.5884 90.9343 50.9449 92.0082 49.001 95.3586C48.7355 95.7989 48.4805 95.7989 48.215 95.3586C48.0556 95.0902 48.0769 94.7895 48.2893 94.4566C50.7644 90.6229 54.1529 89.2376 58.4337 90.2793C60.8132 90.8484 62.5127 90.6122 64.7116 90.1719C65.0727 90.0967 65.1152 90.1934 64.8391 90.4404ZM56.3942 103.584L52.3152 101.995C52.0815 101.909 51.8903 101.727 51.7629 101.501L49.8402 97.7641C49.6702 97.4312 49.7765 97.0124 50.0951 96.8083C51.5079 95.8741 52.9951 95.262 54.5566 94.9506C55.0983 94.8432 55.1833 94.9828 54.8009 95.3801C53.1969 97.0446 52.7826 98.9668 53.5687 101.125C53.7068 101.49 53.9405 101.759 54.2804 101.92L56.681 103.069C56.7979 103.123 56.851 103.166 56.851 103.176L56.7554 103.423C56.681 103.595 56.5642 103.649 56.3942 103.584ZM57.1697 143.811C56.8298 144.08 56.7129 143.994 56.8085 143.575C56.9997 142.737 57.7751 142.071 58.0195 141.341C59.3154 137.508 57.1059 133.975 58.6568 129.765C58.8055 129.368 58.9755 129.357 59.1773 129.733C61.8117 134.705 61.8329 140.181 57.1697 143.811ZM100.244 131.816C98.6396 137.712 95.251 141.169 90.0779 142.2C80.1991 144.165 71.9667 137.379 66.2518 130.184C59.7615 122.012 58.6462 109.77 65.965 101.608C70.3733 96.6902 74.378 95.1868 79.5511 92.4807C80.3265 92.0726 81.0489 92.0726 81.7075 92.4914C81.888 92.6096 81.9093 92.8673 81.7393 93.0176C78.3933 95.8741 74.7073 99.2675 70.692 103.209C60.9088 112.777 65.8907 124.17 74.5798 131.472C75.4615 132.213 76.2688 132.976 77.0017 133.771C78.0321 134.877 78.8925 135.661 79.583 136.101C82.9928 138.27 84.3949 139.44 89.4087 138.989C95.8034 138.42 97.1949 129.121 97.3861 123.966C97.3861 123.902 97.3543 123.859 97.2905 123.848L97.025 123.794C96.8869 123.762 96.7913 123.827 96.7594 123.966C95.4847 128.917 93.5408 135.682 88.3677 137.336C85.5315 138.238 82.8972 137.518 80.4434 135.167C79.6786 134.436 79.02 134.361 78.0533 134.189C77.5328 134.103 77.2779 133.502 77.5753 133.062C78.287 131.966 78.8182 131.097 79.891 130.238C83.9807 126.962 85.5528 123.053 86.5194 117.534C87.0187 114.71 88.0915 111.713 89.7486 108.556C89.9611 108.148 90.0461 108.17 89.9929 108.632C89.4724 113.217 88.7607 117.888 87.8791 122.645C87.571 124.31 86.9974 126.296 86.137 128.595C86.0201 128.927 85.8183 129.207 85.5315 129.411C84.448 130.227 82.3023 130.903 81.8562 132.31C81.7181 132.75 82.058 133.191 82.5148 133.158L87.9641 132.74C88.2509 132.718 88.5377 132.611 88.7607 132.417C91.2995 130.323 93.0628 128.068 94.0507 125.652C95.9309 121.045 96.5363 116.234 95.8671 111.241C95.8459 111.069 95.9202 110.962 96.0796 110.93H96.0902C96.2602 110.897 96.3664 110.962 96.4089 111.123C97.5667 115.257 98.6396 119.349 100.084 123.408C101.008 125.996 101.062 128.799 100.244 131.816ZM119.311 127.113C119.066 136.616 118.27 144.305 117.526 144.284H117.229C116.496 144.262 116.092 136.541 116.337 127.037V126.866C116.347 126.554 116.602 126.318 116.9 126.329L118.79 126.382C119.088 126.382 119.321 126.64 119.311 126.941V127.113ZM124.282 154.023C124.282 154.142 124.176 154.238 124.059 154.227H123.942C122.508 154.163 121.542 149.707 121.786 144.273L121.892 141.91C122.136 136.477 123.496 132.128 124.93 132.192H125.047C125.174 132.203 125.259 132.299 125.259 132.417L124.282 154.023ZM121.01 120.487C114.796 122.538 110.006 122.27 105.927 116.9C102.326 112.165 99.978 106.827 98.8733 100.878C98.7671 100.309 98.8202 100.298 99.0326 100.825C101.731 107.515 103.791 113.743 110.112 118.049C110.505 118.318 110.802 118.414 111.004 118.35C111.44 118.21 111.503 117.963 111.195 117.609C106.787 112.744 103.834 106.989 102.357 100.352C102.198 99.6433 102.272 99.6111 102.602 100.266C105.523 106.119 108.816 112.014 112.47 117.953C112.682 118.307 112.99 118.5 113.394 118.532C117.834 118.994 121.68 117.77 124.919 114.849C126.375 113.539 126.343 112.272 124.813 111.037L119.481 106.763C119.385 106.688 119.343 106.634 119.353 106.623L119.502 106.387C119.608 106.215 119.736 106.194 119.895 106.323C122.253 108.342 127.097 108.599 130.252 108.9C130.592 108.932 130.794 109.297 130.656 109.609C128.627 114.205 126.088 118.801 121.01 120.487ZM130.857 150.856C130.624 154.066 130.263 157.299 129.763 160.563C129.71 160.939 129.551 160.982 129.296 160.714C127.947 159.285 127.267 157.868 127.256 156.461C127.203 151.876 127.458 147.29 128.021 142.716C128.074 142.211 128.234 141.91 128.489 141.814C128.733 141.717 128.903 141.781 129.02 142.028C130.454 145.025 131.059 147.967 130.857 150.856ZM136.179 167.865C135.351 167.951 134.342 164.773 133.927 160.757C133.502 156.74 133.842 153.411 134.671 153.325C135.499 153.24 136.508 156.418 136.923 160.434C137.348 164.451 137.008 167.78 136.179 167.865ZM144.582 173.331C144.412 173.407 144.21 173.331 144.125 173.17L141.682 168.896C141.682 168.896 141.65 168.821 141.639 168.778L140.513 162.55C140.449 162.206 140.821 161.959 141.108 162.153L142.967 163.463C143.052 163.516 143.105 163.602 143.126 163.71L144.826 172.902C144.858 173.084 144.762 173.267 144.582 173.331ZM146.876 160.284C143.657 157.395 140.683 154.174 137.964 150.619C137.868 150.49 137.879 150.372 138.006 150.265L138.208 150.082C138.208 150.082 138.272 150.061 138.304 150.093C140.609 152.96 143.392 155.162 146.653 156.708C147.088 156.912 147.322 157.267 147.354 157.75L147.471 159.994C147.503 160.574 147.311 160.671 146.876 160.284ZM147.779 154.034C147.439 154.41 144.157 151.972 140.428 148.579C136.71 145.196 133.959 142.136 134.288 141.76C134.628 141.384 137.911 143.822 141.639 147.215C145.357 150.598 148.108 153.658 147.779 154.034ZM147.014 147.752C147.142 148.021 147.078 148.225 146.823 148.364L146.579 148.493C146.579 148.493 146.504 148.504 146.472 148.472C145.803 147.494 145.187 146.496 144.613 145.465C142.85 142.308 137.666 139.58 134.501 138.055C133.555 137.604 133.152 136.627 133.301 135.124C133.332 134.769 133.226 134.479 132.961 134.254C132.281 133.652 131.697 132.901 131.197 132.009C130.964 131.591 131.07 131.472 131.505 131.676C132.228 132.02 132.769 132.46 133.12 132.987C133.895 134.136 134.681 135.124 135.499 135.95C137.22 137.69 139.993 138.71 142.16 140.246C144.698 142.061 145.644 145.014 147.014 147.752ZM143.912 137.991C144.167 138.281 144.114 138.345 143.764 138.184L135.446 134.383C135.266 134.307 135.213 134.168 135.276 133.985L135.404 133.663C135.436 133.577 135.489 133.545 135.574 133.577C137.826 134.297 139.897 135.403 141.777 136.874C142.032 137.078 142.34 137.218 142.669 137.282C143.19 137.379 143.604 137.615 143.912 137.991ZM143.105 134.458C143.19 134.554 143.19 134.651 143.094 134.748C142.999 134.844 142.903 134.844 142.808 134.748C141.607 133.599 140.418 132.45 139.228 131.279C137.741 129.819 133.481 127.349 131.42 128.337C131.102 128.487 130.719 128.423 130.475 128.176L130.209 127.907C129.859 127.553 129.933 127.349 130.432 127.317C132.589 127.156 134.628 127.488 136.572 128.294C139.111 129.346 141.214 132.289 143.105 134.458ZM148.289 122.506C146.695 122.635 145.516 122.216 144.762 121.239C141.798 117.437 140.258 113.528 140.131 109.501C140.067 107.472 140.354 107.418 141.002 109.34C142.425 113.603 144.741 118.983 148.448 121.958C148.852 122.28 148.799 122.463 148.289 122.506ZM152.442 119.606L152.145 119.767C151.709 119.993 151.359 119.907 151.072 119.51C148.374 115.676 146.09 110.393 144.932 105.979C144.879 105.797 144.953 105.7 145.134 105.678C145.251 105.668 145.325 105.711 145.378 105.807C146.387 107.944 147.386 110.103 148.352 112.261C149.478 114.763 150.987 116.857 152.57 119.026C152.718 119.22 152.655 119.499 152.442 119.606ZM159.74 117.587C159.134 117.641 158.561 117.781 158.019 118.006C157.286 118.307 156.457 118.039 156.043 117.362C153.207 112.68 150.997 108.363 149.415 104.401C147.386 99.2889 147.896 99.0205 150.934 103.584C153.855 107.976 156.946 112.283 160.196 116.503C160.696 117.158 160.536 117.512 159.74 117.587ZM166.963 112.669L165.943 113.872C165.348 114.57 164.732 114.602 164.106 113.947C160.505 110.264 157.488 105.947 155.076 101.018C154.811 100.47 154.683 99.9118 154.694 99.3534C154.726 98.0325 155.172 97.8607 156.054 98.8379L166.942 111.005C167.43 111.552 167.441 112.1 166.963 112.669ZM176.587 100.996C176.321 102.006 175.981 102.725 175.567 103.144C173.878 104.894 172.497 106.688 171.446 108.524C171.01 109.287 169.98 109.437 169.353 108.825C165.858 105.378 162.778 101.705 160.09 97.807C159.878 97.4956 159.963 97.3345 160.335 97.3345C161.068 97.3238 161.684 97.5063 162.204 97.8607C164.828 99.6648 167.282 101.673 169.555 103.874C170.5 104.776 172.062 104.304 172.338 103.026C172.465 102.457 172.497 101.705 172.423 100.749C172.402 100.384 172.572 100.18 172.922 100.137C174.016 99.9977 175.11 100.062 176.204 100.331C176.555 100.427 176.682 100.642 176.587 100.996ZM178.106 95.1439C175.291 94.4888 172.051 94.4781 168.408 95.1331C167.632 95.2727 166.963 95.0257 166.273 94.8324C164.116 94.2418 164.148 93.8982 166.379 93.7801C169.99 93.5975 173.496 93.2431 176.895 92.7277C177.182 92.6847 177.469 92.8136 177.628 93.0713L178.531 94.5532C178.86 95.0902 178.711 95.2835 178.106 95.1439Z" fill="black"/>
<path d="M137.55 89.2373C137.592 89.1837 137.667 89.1729 137.72 89.2051L137.9 89.3447C138.272 89.6347 137.529 91.2562 136.243 92.9851L136.105 93.1677C134.82 94.8966 133.471 96.0671 133.099 95.7771L132.918 95.6375C132.918 95.6375 132.865 95.5302 132.897 95.4765L137.55 89.2373Z" fill="black"/>
<path d="M115.519 94.2096C119.885 97.2164 124.622 98.4298 129.731 97.8392C130.071 97.7962 130.39 97.6781 130.666 97.5063L131.367 97.066C131.994 96.6687 132.09 96.7761 131.654 97.3774C127.203 103.574 119.47 97.9358 115.338 94.5961C115.211 94.4995 115.189 94.3814 115.285 94.2525H115.296C115.359 94.1559 115.434 94.1451 115.519 94.2096Z" fill="black"/>
<path d="M116.793 115.193C116.942 115.397 116.889 115.483 116.645 115.461C115.466 115.365 114.265 114.86 113.033 113.958C112.598 113.636 112.651 113.453 113.192 113.41C114.595 113.292 115.795 113.883 116.793 115.193Z" fill="black"/>
</g>
<defs>
<clipPath id="clip0_2119_1184">
<rect width="185" height="180" fill="white"/>
</clipPath>
</defs>
</svg>
