<svg width="120" height="120" viewBox="0 0 120 120" fill="none" xmlns="http://www.w3.org/2000/svg">
<g clip-path="url(#clip0_2209_66)">
<path d="M103.343 57.7932C107.67 57.527 111.738 56.9602 115.53 56.0843C118.276 55.4488 121.632 53.0358 119.096 49.6695C117.84 48.0036 115.497 47.8919 113.596 48.141C109.687 48.6648 105.82 49.3346 101.978 50.1676C101.401 50.2964 101.066 50.0645 100.957 49.472L100.773 48.4158C100.681 47.9091 100.965 47.411 101.442 47.2479C105.569 45.8395 110.759 44.5085 114.048 41.6145C116.233 39.7082 116.417 37.2178 114.367 35.1483C112.274 33.0358 109.194 33.6197 106.348 34.7017C101.861 36.402 97.6004 38.025 93.5741 39.5793C92.8459 39.8627 92.034 39.4334 91.8414 38.6519C91.5401 37.4153 91.9754 36.402 93.1389 35.6206C96.102 33.6197 99.0401 31.5158 101.961 29.3088C104.247 27.5914 107.452 24.0276 105.226 21.0564C103.51 18.7721 101.325 18.317 98.6718 19.6824C93.4988 22.3445 88.5016 26.8357 83.6216 30.6742C82.659 31.4299 81.6043 31.7305 80.4743 31.5673C80.0139 31.4986 79.7293 31.0263 79.8632 30.5712C80.1059 29.764 80.5496 28.9653 81.1941 28.1753C84.7516 23.8043 89.0875 19.2273 91.7494 14.1264C92.5111 12.6579 92.486 11.138 91.3392 10.0044C89.3721 8.07226 87.2627 7.9091 85.0111 9.51494C83.2449 10.7773 81.9056 12.0912 80.9848 13.4565C78.8922 16.5566 76.6573 19.2616 74.2884 21.5888C73.5267 22.3359 73.3677 22.2157 73.7946 21.2281C75.3599 17.6386 76.808 14.1264 78.1221 10.6914C78.8504 8.77642 79.0596 7.13623 78.7332 5.77084C78.0886 3.03147 74.5312 1.82065 72.2962 3.46084C71.409 4.11348 70.7142 4.9121 70.212 5.84813C68.0105 9.90996 65.7086 14.925 63.323 20.876C63.1556 21.3054 62.9129 21.5115 62.5864 21.4943C62.0925 21.4686 61.8247 21.2024 61.7996 20.6871C61.582 15.9726 61.4397 11.6704 61.3727 7.78029C61.3476 6.54371 61.1885 5.17831 60.8788 3.67552C60.1422 0.0344753 57.8236 -0.317608 54.7432 0.171873C52.6673 0.498193 51.8721 4.22511 51.6796 6.03705C51.1523 11.0006 50.7672 16.0929 50.5245 21.314C50.4994 21.8035 50.3822 22.1727 50.1645 22.4389C49.9469 22.7051 49.5368 22.6107 49.4447 22.2844C48.1975 17.5441 46.8749 12.8383 45.4854 8.16672C44.4391 4.65448 41.2164 0.360795 37.2739 3.47801C35.7337 4.68883 35.1813 6.47501 35.6166 8.81936C36.4536 13.3277 37.6087 17.7846 39.0903 22.2071C39.3163 22.8769 39.3498 23.4866 39.1991 24.0448C38.9564 24.8778 38.5881 24.9465 38.0859 24.2509C35.6333 20.9018 33.0719 17.381 30.4184 13.697C28.3677 10.8632 24.5674 9.02546 22.14 12.6665C20.3905 15.2857 22.8599 19.5278 24.4 21.709C26.6852 24.9465 28.9536 27.995 31.2136 30.8717C31.8917 31.7391 32.2432 32.2715 32.26 32.4862C32.4023 34.7103 31.6657 35.0796 30.0334 33.6111C27.7148 31.5072 25.4296 29.3947 23.1779 27.2908C19.8297 24.165 13.4179 18.2569 10.4966 23.7442C8.91454 26.724 11.6684 29.4806 13.6439 31.2753C15.9458 33.3793 19.1099 36.0585 23.1193 39.3303C23.6551 39.7683 23.9815 40.3179 24.0987 40.9963C24.241 41.8206 23.4123 42.4733 22.6757 42.1126C17.7455 39.7082 13.4179 37.7416 9.70137 36.2131C6.7382 35.0023 3.7834 34.9679 2.52782 38.2311C1.1132 41.8893 5.95137 44.4226 8.64668 45.5132C12.5725 47.1019 16.3141 48.639 19.8632 50.1418C20.4073 50.3737 20.5914 51.0607 20.2399 51.5416C19.9385 51.9452 19.3861 52.0997 18.5909 51.9881C15.4854 51.5673 12.0702 51.2238 8.34534 50.9576C4.90505 50.7086 0.1757 50.9748 0.108735 55.5433C0.0585121 58.8151 5.49099 60.086 7.9017 60.3951C11.3253 60.8417 14.5228 61.2281 17.4943 61.563C17.712 61.5888 17.8626 61.7004 17.9463 61.9065C18.0468 62.147 18.0635 62.396 17.9966 62.645C17.9212 62.9198 17.7538 63.0744 17.4776 63.1002C13.5518 63.4866 9.7767 63.9503 6.15226 64.4913C3.76666 64.852 2.0507 65.7193 1.00438 67.0933C-0.60276 69.1972 -0.28468 70.9748 1.96699 72.426C3.71644 73.551 5.98485 73.9117 8.77224 73.5081C12.8236 72.9155 16.5568 72.2801 19.972 71.5931C20.5831 71.4729 20.9597 71.7219 21.0937 72.3488C21.3029 73.259 21.0016 73.9117 20.198 74.3067C17.2181 75.7837 13.7276 77.3896 9.72648 79.1242C6.67124 80.4552 1.84981 84.2337 5.78396 87.6171C7.23206 88.8709 8.73039 89.2745 10.2706 88.8279C14.9078 87.4969 19.9385 85.6936 25.3543 83.4007C25.9821 83.1345 26.4843 82.9885 26.8777 82.9628C28.4932 82.8511 28.7862 83.4522 27.7399 84.7661C27.2795 85.3501 26.501 86.0542 25.4129 86.8786C22.6757 88.9653 19.8213 91.1981 16.8582 93.5596C15.0501 95.0108 12.9324 97.0718 14.188 99.5879C15.9374 103.1 19.3024 102.774 22.0479 100.687C25.7895 97.8447 29.414 95.0194 32.9129 92.2285C33.3984 91.8421 33.8169 91.9022 34.1601 92.4003C34.3191 92.6321 34.3191 92.8726 34.1601 93.113C32.26 95.9125 30.3766 98.6175 28.4932 101.237C26.8191 103.564 24.1154 107.875 27.3967 110.271C30.1087 112.246 33.9843 110.502 35.7505 108.055C38.0524 104.861 40.438 101.348 42.9073 97.5098C43.1082 97.2006 43.5602 97.2264 43.7276 97.5613C43.9536 98.025 43.9536 98.5746 43.7109 99.2187C42.5055 102.456 41.3253 105.625 40.1701 108.742C39.4 110.82 38.5295 114.375 40.7477 115.827C44.7321 118.446 47.6115 115.483 48.8253 111.584C50.1059 107.488 51.3448 103.186 52.5585 98.6862C52.6841 98.2139 53.27 98.068 53.5965 98.42C53.9396 98.7893 54.3582 98.8923 54.852 98.7292C55.3794 98.5574 55.8984 98.9868 55.8649 99.545C55.6221 103.229 55.4212 106.87 55.2706 110.468C55.1785 112.641 55.3794 114.693 55.8732 116.617C56.6433 119.597 59.4809 120.713 62.1009 119.545C64.6121 118.42 64.9469 115.105 65.2064 112.675C65.717 107.866 65.2399 103.006 65.2231 98.3256C65.2231 97.9391 65.7421 97.8361 65.876 98.1968C67.4581 102.473 69.1405 106.879 70.9318 111.404C72.1372 114.444 74.054 118.437 77.7455 118.042C81.0769 117.673 80.5747 112.778 79.8046 110.494C78.4402 106.449 76.7828 102.018 74.8241 97.2092C74.5563 96.548 75.3515 95.9812 75.8621 96.4621C75.9876 96.5738 76.1132 96.7369 76.2471 96.943C78.7667 100.782 81.3615 104.577 84.015 108.313C85.212 110.004 86.6684 111.009 88.376 111.318C90.3599 111.679 91.7745 111.052 92.6366 109.446C93.7834 107.299 92.5111 104.423 91.2555 102.568C89.4391 99.8799 87.6394 97.0976 85.8398 94.2294C85.4129 93.5596 85.7895 92.6579 86.5513 92.5033C87.3632 92.3402 88.1082 92.5806 88.7695 93.2247C91.448 95.8181 94.068 98.2054 96.621 100.395C97.7176 101.34 98.9648 101.864 100.346 101.975C104.154 102.267 105.527 97.922 103.46 95.0967C101.509 92.4346 99.2494 89.867 96.6796 87.3938C95.784 86.5351 95.0725 85.5476 94.5535 84.4398C94.227 83.7356 94.7209 82.9112 95.4826 82.9026C96.5959 82.8855 97.6757 83.1345 98.7388 83.6412C102.045 85.2298 105.351 86.4836 108.658 87.4024C111.295 88.1324 113.111 87.2307 114.124 84.6802C115.137 82.1384 112.793 80.2749 110.851 79.3045C107.461 77.6042 103.895 76.1959 100.17 75.071C99.626 74.9078 99.2828 74.3668 99.3582 73.7914L99.5172 72.4948C99.6344 71.5415 100.162 71.1208 101.091 71.2324C103.97 71.5673 106.808 71.8421 109.604 72.0396C111.738 72.2028 113.571 71.928 115.103 71.2324C118.853 69.5235 118.803 64.8692 114.819 63.5811C111.462 62.499 107.62 61.8121 103.309 61.5287C102.773 61.4943 102.506 61.2024 102.506 60.6528V58.6948C102.514 58.2139 102.874 57.8189 103.343 57.7932ZM78.0635 69.618C73.7527 79.648 62.2181 84.1392 52.3074 79.6566C42.3967 75.174 37.8515 63.4093 42.1623 53.3793C46.4731 43.3492 58.0077 38.858 67.9184 43.3406C77.8292 47.8232 82.3744 59.5879 78.0635 69.618Z" fill="black"/>
<path d="M71.409 59.7679C70.5468 53.3875 64.6707 48.9478 58.3007 49.8581C51.9224 50.7684 47.4525 56.6765 48.3147 63.0569C49.1769 69.4373 55.053 73.877 61.4229 72.9667C67.8013 72.0565 72.2712 66.1483 71.409 59.7679ZM65.4827 63.409C64.4112 66.509 61.0379 68.1149 57.9408 66.9899C54.8521 65.865 53.2115 62.4386 54.2745 59.3386C55.3459 56.2385 58.7193 54.6327 61.8164 55.7576C64.9051 56.8826 66.5457 60.3089 65.4827 63.409Z" fill="black"/>
</g>
<defs>
<clipPath id="clip0_2209_66">
<rect width="120" height="120" fill="white"/>
</clipPath>
</defs>
</svg>
