<svg width="130" height="141" viewBox="0 0 130 141" fill="none" xmlns="http://www.w3.org/2000/svg">
<g clip-path="url(#clip0_2252_901)">
<path d="M129.861 68.6322C126.037 62.8881 119.298 59.403 112.608 58.3533C112.28 58.3029 112.256 58.1853 112.542 58.009C117.717 54.7758 122.63 49.4264 124.645 43.3968C124.833 42.8257 124.661 42.1791 124.211 41.7928C123.76 41.4149 123.228 41.1714 122.598 41.0538C122.393 41.0202 122.221 41.0706 122.074 41.2217C117.488 45.7985 112.722 49.7203 107.768 53.0207C106.335 53.9696 104.534 54.9942 102.364 56.0859C102.249 56.1447 102.11 56.0691 102.086 55.9431L102.053 55.7836C102.004 55.5484 102.11 55.3133 102.307 55.1873C108.194 51.3915 113.721 47.243 118.888 42.7585C120.338 41.4989 122.082 40.6339 123.548 39.349C123.842 39.0887 123.728 38.5932 123.343 38.5008C122.254 38.2489 121.263 38.3413 120.354 38.7864C114.86 41.4737 109.865 44.5977 105.287 48.4103C103.912 49.5524 102.348 50.6609 100.587 51.7274C100.481 51.7946 100.341 51.7526 100.276 51.6434L100.194 51.4839C100.055 51.2151 100.096 50.9716 100.325 50.7701C105.001 46.6551 109.717 43.4052 114.458 40.9866C115.859 40.2812 116.874 39.2818 117.963 38.2657C118.331 37.9214 118.274 37.3 117.84 37.048C112.771 33.9912 106.958 34.5287 101.357 34.6295C101.177 34.6295 101.029 34.4615 101.07 34.2767C102.38 27.8104 102.855 21.3777 100.391 15.1381C100.309 14.9366 100.161 14.777 99.9729 14.6762C99.6781 14.5335 99.4407 14.4915 99.2523 14.5503C98.6873 14.7434 98.4662 15.1465 98.5809 15.7512C99.7928 21.7136 99.5553 27.147 97.8685 32.0597C96.8122 35.1417 94.9616 37.9634 92.3249 40.5331C92.1611 40.7011 91.8827 40.6255 91.8172 40.3988C91.7926 40.3148 91.7763 40.2392 91.7763 40.1636C91.7763 39.8025 91.8909 39.4582 92.1038 39.1811C93.9053 36.8045 95.1172 34.8478 95.7395 33.3026C97.4345 29.0617 98.3762 24.4681 98.5563 19.4966C98.5891 18.6988 98.4007 17.6407 97.9995 16.3138C97.934 16.1123 97.8112 16.0451 97.6065 16.0955C95.3055 16.7589 93.5122 17.5399 92.2185 18.4385C89.9011 20.0424 87.6493 22.3434 85.4466 25.3331C83.9072 27.4325 82.8181 29.8763 81.6226 32.2445C81.4424 32.5972 81.1722 32.7651 80.7874 32.7567H80.5827C80.3288 32.7483 80.2469 32.6224 80.337 32.3704C81.77 28.3983 83.4159 25.3331 85.2583 23.1832C86.896 21.2769 88.2061 19.8661 90.0894 17.4811C91.9892 15.0709 94.3229 13.2234 97.0988 11.9469C97.5328 11.7538 97.9258 11.3507 98.2943 10.7545C98.4499 10.5109 98.5236 10.2506 98.5399 9.98186C98.5563 9.57037 98.3762 9.436 97.9913 9.57877C91.0147 12.2997 83.4814 15.8015 77.9623 21.067C77.8149 21.2097 77.5611 21.1258 77.5202 20.9242C76.9961 18.3125 76.0135 16.4482 74.5641 13.7441C71.9438 8.83976 68.6439 4.48129 64.6643 0.651888C64.5005 0.49233 64.2303 0.517523 64.0993 0.719071C62.7154 2.80173 61.0695 5.01035 59.1616 7.34495C56.8689 10.1414 54.5515 14.038 52.1933 19.0347C52.0786 19.2866 52.0295 19.547 52.0377 19.8325C52.0541 20.202 52.0049 20.5715 51.8739 20.9326C51.792 21.1929 51.6528 21.2181 51.4727 21.0166C50.4491 19.8745 48.533 18.6064 45.7326 17.1872C40.7622 14.6678 35.7099 11.8042 30.2891 11.2331C30.109 11.2163 29.9288 11.3255 29.8551 11.5019C29.7405 11.8126 29.8715 12.0981 30.24 12.3752C30.3219 12.434 30.4038 12.476 30.502 12.5096C33.7529 13.5929 36.3158 14.9702 38.7969 17.5147C42.5718 21.3777 45.6261 25.7866 47.968 30.7581C48.3037 31.4803 48.5085 32.2445 48.574 33.0423C48.5822 33.2018 48.5166 33.3026 48.3774 33.3614C48.3365 33.3782 48.2792 33.395 48.2219 33.3866C48.0499 33.3866 47.9189 33.2942 47.837 33.143C46.2976 30.2542 44.6107 27.2478 42.7847 24.1406C41.2125 21.4617 39.7796 19.6142 38.4858 18.5896C37.2411 17.6071 35.759 16.8681 34.0394 16.3642C32.9504 16.0451 32.1152 15.4656 31.0998 14.987C30.9115 14.8946 30.6822 15.0038 30.6249 15.2137C29.1346 20.9746 28.0537 27.063 27.374 33.4706C27.1857 35.2929 27.0219 35.2929 26.8991 33.4706C26.7763 31.7238 26.7599 29.616 26.9892 27.7013C27.2594 25.4926 27.5542 23.284 27.8817 21.0838C28.1356 19.3538 28.0619 17.6995 28.0291 15.9695C28.0291 15.7512 27.9227 15.6 27.718 15.5244C27.6606 15.5076 27.5869 15.4908 27.5214 15.4908C27.3085 15.4908 27.153 15.6084 27.0629 15.8015C26.7517 16.4398 26.5306 17.1032 26.3832 17.8086C25.2532 23.2336 24.6555 28.751 24.5982 34.3439C24.5982 34.6295 24.4508 34.7638 24.1724 34.747C19.6278 34.4279 15.0258 34.8394 10.4731 35.9227C10.2356 35.9815 10.1373 36.1243 10.1619 36.3678L10.2602 37.2664C10.2929 37.5015 10.4239 37.6275 10.645 37.6275C12.7167 37.6947 14.7802 37.6527 16.8437 37.4931C18.3176 37.3755 19.6441 37.3755 20.8315 37.5099C23.9349 37.8542 29.0854 37.9214 31.1489 40.8186C31.3782 41.1378 31.3045 41.2217 30.9524 41.0706C27.939 39.7773 25.72 39.1139 24.2788 39.0635C22.4692 39.0047 20.6513 38.5428 18.9809 38.5596C16.4834 38.5764 13.9859 38.5848 11.4802 38.6016C10.948 38.6016 10.6614 38.8116 10.2602 38.8871C9.24479 39.0719 9.21204 39.3826 10.1455 39.8193C11.5621 40.4911 13.1179 41.1965 14.4527 42.1035C19.3493 45.4206 24.4016 48.4019 29.6259 51.0388C29.7405 51.0976 29.8224 51.2151 29.8388 51.3495L29.8961 51.8198C29.9125 52.0129 29.8388 52.0717 29.6668 51.9877C27.6606 51.064 25.6627 50.0898 23.681 49.0737C19.5786 46.9658 15.5172 43.9594 11.3984 41.4317C10.342 40.785 9.76066 40.0125 8.86812 39.2399C8.70435 39.0971 8.49964 39.0131 8.28674 38.9963C7.82819 38.9627 7.40239 38.8032 7.00934 38.5344C6.37064 38.0978 5.51904 38.6016 5.56817 39.3826C6.0431 46.9826 10.1046 53.7597 15.206 58.9747C15.3534 59.1259 15.3288 59.2435 15.1405 59.3358C13.7648 59.9657 12.3482 60.4359 11.0053 61.1078C7.54159 62.8377 4.42998 65.1807 1.67047 68.1199C1.5722 68.2207 1.58039 68.3887 1.67047 68.481L1.81786 68.6322C2.00619 68.817 2.20272 68.8338 2.41562 68.6742C6.14955 65.8021 10.2438 63.476 14.6819 61.704C15.3288 61.4437 15.7792 61.2925 16.033 61.2421C17.5233 60.9734 17.5725 61.1582 16.1886 61.788C14.1824 62.7118 12.0043 63.8119 9.67059 65.0799C7.40239 66.3228 5.68281 67.6833 3.78309 69.3712C3.57838 69.5476 3.68483 69.8835 3.94686 69.9087C4.92947 70.0011 5.84658 69.7827 6.69818 69.2536C11.4229 66.306 16.4097 64.2989 21.6749 63.2324C22.8131 62.9973 23.9595 62.9133 25.114 62.9721C26.9401 63.0645 26.9564 63.308 25.1713 63.7027C21.0034 64.6181 17.0566 65.5166 13.1507 67.1878C10.4812 68.3299 7.59891 69.4384 5.46991 71.0676C5.29795 71.2019 5.10962 71.2439 4.89672 71.2019L3.49649 70.9248C3.37366 70.908 3.24265 70.908 3.11982 70.95C2.10445 71.2859 1.10546 71.8486 0.114658 72.6296C-0.0982419 72.7975 -0.122807 72.9907 0.0491504 73.1922C3.69301 77.6767 8.01652 81.0106 13.036 83.1856C14.3953 83.7819 15.8365 83.8239 17.3104 84.017C17.5479 84.0506 17.6625 84.3361 17.5151 84.5209C13.4537 89.7779 10.2028 94.6067 8.44232 101.585C8.32768 102.03 8.27855 102.45 8.27855 102.828C8.27855 103.122 8.54058 103.34 8.81899 103.307C10.6696 103.063 11.7832 104.088 13.2571 105.431C15.4353 107.422 18.1129 108.648 20.9789 108.942C22.9523 109.152 25.4006 109.227 28.3239 109.168C28.5286 109.168 28.6351 109.261 28.6433 109.471C28.8971 116.668 29.9452 123.907 31.7712 131.171C31.9023 131.7 32.4673 131.977 32.9504 131.75C35.2513 130.675 37.5359 129.626 39.8287 128.567C44.1686 126.586 48.0335 124.175 51.4235 121.354C51.5873 121.219 51.702 121.253 51.792 121.438C53.7982 125.687 56.1483 129.743 58.8341 133.589C60.9385 136.621 63.0512 138.872 65.1556 140.358C65.6797 140.719 66.0645 140.585 66.3184 139.938C66.3921 139.745 66.5067 139.577 66.6623 139.443C71.8046 135.093 75.2847 128.248 78.1916 122.21C78.2735 122.034 78.5028 121.992 78.642 122.126C82.8672 126.367 87.7557 129.449 93.2993 131.381C93.7497 131.54 93.8643 131.154 93.6351 130.222C93.5532 129.894 93.3403 129.617 93.0537 129.449C87.9605 126.476 83.4486 123.235 79.9521 118.288C79.8948 118.221 79.903 118.154 79.9685 118.095C80.034 118.028 80.0995 118.028 80.1569 118.095C83.858 121.807 87.9359 125.04 92.3822 127.778C93.0045 128.156 93.283 127.98 93.2174 127.241L93.1192 126.098C93.1028 125.847 93.2093 125.704 93.4549 125.653L94.5522 125.452C94.7487 125.418 94.9125 125.326 95.0598 125.183C96.763 123.403 97.9586 119.271 98.4744 117.155C99.236 114.064 98.4417 111.873 97.0005 109.126C95.5512 106.347 93.5941 103.903 91.8172 101.308C91.719 101.165 91.7599 100.964 91.9155 100.863L92.0711 100.779C92.1529 100.737 92.2266 100.745 92.284 100.821C93.676 102.61 94.9943 104.357 96.2554 106.061C98.0486 108.497 100.268 113.258 99.5389 116.34C98.8593 119.229 97.9012 122.017 96.6648 124.704C96.2144 125.679 96.0507 126.51 96.1735 127.215C96.2963 127.938 96.5747 128.013 97.0169 127.434C98.4499 125.536 99.7436 123.26 100.89 120.606C102.642 116.567 102.765 112.78 101.267 109.261C101.152 108.992 101.234 108.875 101.521 108.908C102.438 109.017 103.363 109.143 104.288 109.32C107.162 109.849 111.691 109.933 117.873 109.588C118.176 109.572 118.389 109.294 118.348 108.992C118.307 108.723 118.184 108.522 117.988 108.387C117.398 107.976 116.882 107.766 116.448 107.758C113.811 107.69 111.306 107.741 108.694 107.346C106.253 106.977 103.813 106.624 101.381 106.271C100.358 106.128 99.4571 105.658 98.6791 105.087C97.803 104.449 97.8849 104.273 98.9166 104.55C103.65 105.801 108.685 106.473 114.033 106.557C114.884 106.574 114.917 106.397 114.139 106.053C113.951 105.969 113.77 105.868 113.59 105.751C108.325 102.265 103.052 98.8056 97.7702 95.3877C97.4181 95.1609 97.1807 94.8418 97.0496 94.4219C96.8941 93.9516 97.0251 93.8592 97.4263 94.1364C102.937 97.9658 108.53 101.787 114.196 105.608C114.892 106.07 115.384 106.338 116.211 106.431C117.365 106.565 118.299 105.482 118.02 104.323C117.644 102.761 117.668 101.039 116.956 99.5194C116.694 98.9567 116.252 98.4277 115.629 97.9238C113.353 96.0763 111.322 93.876 109.111 92.1209C107.572 90.8948 105.656 89.3328 103.363 87.4265C103.06 87.1746 102.88 86.8891 102.806 86.5531C102.749 86.3012 102.823 86.2508 103.027 86.402C103.879 87.0402 104.788 87.7456 105.738 88.5434C106.548 89.2153 107.449 89.9123 108.44 90.6177C111.117 92.5408 113.541 94.7494 115.719 97.2436C115.949 97.5039 116.202 97.7054 116.505 97.8566C116.759 97.991 117.038 97.7306 116.939 97.4619C115.515 93.4226 112.043 89.6267 108.325 87.0318C106.499 85.7554 104.73 84.3193 103.027 82.7405C103.011 82.7237 103.003 82.6985 103.027 82.6818L103.117 82.5474C103.117 82.5474 103.158 82.5138 103.191 82.5306C105.607 84.2018 108.006 85.8981 110.397 87.5945C113.623 89.8955 116.006 92.8851 117.562 96.5717C118.528 98.8727 119.478 101.165 120.411 103.483C120.542 103.802 120.6 104.205 120.591 104.701C120.591 105.012 120.739 105.163 121.042 105.171H121.967C122.221 105.188 122.426 104.944 122.385 104.676C121.214 96.7313 118.004 89.2992 111.158 84.8148C110.708 84.5209 110.749 84.3613 111.281 84.3193C114.974 84.0338 118.626 83.0765 122.254 81.4725C124.473 80.4899 126.708 79.4318 128.952 78.3065C129.402 78.0798 129.509 77.4751 129.165 77.1056C125.906 73.5953 122.319 70.7401 118.028 68.4559C113.934 66.2724 109.652 64.2737 105.189 62.4766C105.025 62.4094 104.927 62.2331 104.96 62.0483L105.001 61.8804C105.017 61.7796 105.115 61.7124 105.214 61.746C107.146 62.3422 109.095 63.0645 111.06 63.9042C115.899 65.9785 120.428 68.4307 124.637 71.2691C125.374 71.7646 126.471 72.0837 127.085 71.4371C127.38 71.1264 127.38 70.8156 127.085 70.4965C125.03 68.2375 122.794 66.3312 120.362 64.8028C119.494 64.2569 117.988 63.5011 115.867 62.5438C114.327 61.8468 112.812 61.1162 111.314 60.352C111.216 60.3016 111.183 60.2176 111.232 60.1168L111.289 59.9741C111.289 59.9741 111.306 59.9573 111.314 59.9573C114.696 61.2085 117.521 62.3674 119.789 63.434C122.491 64.6936 125.169 66.8015 127.822 69.7407C128.207 70.169 128.829 70.2446 129.304 69.9255L129.541 69.7659C129.902 69.5308 130 69.0269 129.754 68.6658L129.861 68.6322ZM98.761 39.1475C98.8921 38.3497 99.3178 37.8962 100.047 37.7702C103.797 37.1068 107.555 37.174 111.298 37.955C112.518 38.2153 113.705 38.3917 114.868 38.484C115.105 38.5008 115.113 38.568 114.909 38.6856C114.532 38.9039 114.131 39.0131 113.705 39.0215C113.541 39.0215 113.377 39.0467 113.23 39.1055C112.166 39.475 111.904 38.5008 110.872 38.4673C108.685 38.4169 106.917 38.3245 104.542 38.7192C103.502 38.8871 102.454 38.9963 101.406 39.0383C100.603 39.0719 99.8992 39.475 99.064 39.5002C98.8265 39.5002 98.7201 39.391 98.761 39.1475ZM97.1561 46.3108L97.2462 46.2688C104.992 42.1791 111.355 39.0299 111.453 39.2147L111.584 39.4666C111.674 39.6513 105.476 43.1196 97.7211 47.2094L97.631 47.2598C97.5491 47.3018 97.4509 47.2598 97.4181 47.1926L97.0906 46.5376C97.0496 46.462 97.0742 46.3612 97.1561 46.3192V46.3108ZM94.7896 21.2349C94.8715 20.8066 95.1008 20.5211 95.4775 20.3616C95.6822 20.2776 95.7886 20.3448 95.7886 20.5799C95.7886 21.6464 95.7149 22.5534 95.5512 23.3008C94.2901 28.9357 92.7179 33.1934 90.0976 37.7702C89.9912 37.9466 89.9093 38.0474 89.8274 38.081C89.4426 38.2405 89.3361 38.1229 89.5163 37.7366C91.9564 32.5384 93.7251 27.0462 94.7978 21.2433L94.7896 21.2349ZM86.5439 30.3886C87.5838 27.6257 89.115 25.2239 91.1376 23.1916C91.4406 22.8893 91.4897 22.9229 91.2932 23.3092C90.2532 25.3247 88.8776 27.3485 88.0178 29.4816C87.2399 31.4383 86.593 33.3782 85.8724 35.3433C85.8069 35.5364 85.6923 35.6624 85.5203 35.738C85.3565 35.8135 85.1682 35.6792 85.1682 35.4944C85.2091 33.6973 85.7332 32.5468 86.5439 30.3886ZM81.77 20.7479L81.8764 20.6555C84.2756 18.5392 86.552 17.2124 86.9615 17.6995L86.9942 17.733C87.027 17.775 87.027 17.8422 86.9778 17.8758L78.3308 25.5094C78.2899 25.543 78.2244 25.543 78.1916 25.501L78.1589 25.4674C77.7576 24.9804 79.3708 22.8641 81.77 20.7479ZM56.4513 16.1291C57.2701 14.5587 58.1954 12.8959 59.2353 11.124C60.4308 9.10849 62.5762 6.11887 63.9519 3.35598C64.1157 3.02847 64.5824 3.04527 64.7216 3.38958C65.2866 4.76682 66.1628 6.09367 67.3419 7.35334C68.3737 8.45346 69.258 9.60396 69.9868 10.8048C73.5406 16.6161 75.0964 23.0153 74.646 30.0023C74.6296 30.2878 74.4904 30.3802 74.2284 30.2794L74.0728 30.2122C73.7371 30.0778 73.5733 29.8343 73.5733 29.4648C73.516 21.6464 71.649 14.7602 67.9642 8.81457C66.5804 6.57235 64.7953 9.0665 63.9355 10.2338C63.7963 10.4269 63.698 10.4018 63.6325 10.175L62.9611 7.69766C62.9038 7.48771 62.7973 7.44572 62.6254 7.58009C61.8065 8.22672 61.7492 9.48639 61.2906 10.2674C59.7512 12.9043 58.4738 15.3145 57.483 17.5315C55.6324 21.6548 54.617 26.2148 54.4369 31.2283C54.4369 31.3123 54.3632 31.3879 54.2731 31.4047L54.093 31.4215C54.093 31.4215 54.0848 31.3879 54.0766 31.3291C53.3233 25.669 54.1175 20.6051 56.4513 16.1291ZM69.823 29.7587C69.7575 30.145 69.5446 30.2878 69.1761 30.187L68.9632 30.1282C68.7995 30.0862 68.693 29.9351 68.6848 29.7671C68.6357 27.0126 68.7258 24.6025 68.1853 21.7976C67.7104 19.3118 67.2518 16.8177 66.8178 14.3235C66.7523 13.912 66.7442 13.5005 66.8178 13.0891C66.9243 12.4424 67.0963 12.4256 67.3255 13.0387C68.3491 15.768 69.1024 18.9003 69.6019 22.4358C70.0441 25.5682 70.1178 28.0204 69.8312 29.7671L69.823 29.7587ZM65.5732 18.6652L64.5496 29.5404C64.5415 29.6327 64.4596 29.6999 64.3695 29.6915L63.9273 29.6495C63.8372 29.6411 63.7717 29.5572 63.7799 29.4648L64.8035 18.5896C64.8117 18.4972 64.8936 18.4301 64.9836 18.4385L65.4258 18.4805C65.5159 18.4888 65.5814 18.5728 65.5732 18.6652ZM63.477 12.686C61.4298 18.0354 59.7676 23.5107 58.482 29.1121C58.3919 29.5236 58.2282 29.8931 57.9989 30.2122C57.5158 30.9008 57.3356 30.8252 57.4503 29.9855C58.3019 23.9222 60.1361 18.0858 62.9529 12.4844C63.0266 12.3333 63.2313 12.3081 63.3378 12.4424L63.4606 12.602C63.4606 12.602 63.4851 12.6524 63.477 12.686ZM43.3989 18.9003C43.2597 18.7156 43.3088 18.6568 43.5217 18.7072C44.0294 18.8416 44.4634 19.0599 44.7991 19.379C45.9045 20.4287 47.7879 21.68 50.4655 23.1412C50.6456 23.242 50.7603 23.3932 50.8012 23.6031L51.0796 24.8376C51.1206 25.014 51.0633 25.0559 50.8995 24.972C47.6405 23.2504 45.143 21.2181 43.3989 18.8919V18.9003ZM41.6056 28.4319L41.6957 28.3647L45.1921 34.3943L45.0939 34.4615C44.9792 34.5371 44.1194 33.269 43.1696 31.6398L43.0877 31.5055C42.1378 29.8763 41.4746 28.499 41.5974 28.4235L41.6056 28.4319ZM32.7129 17.7079C33.0896 17.8926 33.3926 18.1529 33.63 18.4805C33.7529 18.6484 33.9084 18.766 34.0886 18.8416C36.9627 20.0089 37.6587 21.6296 38.9771 24.5689C39.2391 25.1651 39.3374 25.6942 39.2637 26.1477C39.2146 26.4164 39.2227 26.6851 39.3046 26.9538C40.1235 29.9519 41.4582 32.9415 43.3006 35.9227C43.3415 35.9899 43.3334 36.0571 43.2597 36.0991L43.0058 36.267C42.8912 36.3426 42.7929 36.3258 42.7274 36.1998C40.9014 33.2858 39.5748 30.1786 38.7478 26.8867C38.6987 26.6935 38.6823 26.3828 38.6905 25.9713C38.6905 25.753 38.6496 25.5598 38.5431 25.3751C37.2084 23.0489 36.3977 20.9662 33.8839 19.6226C33.6546 19.505 33.5481 19.5722 33.5727 19.8409C33.6136 20.4623 33.9658 20.9494 34.0886 21.5876C35.3005 27.8188 37.454 33.6637 40.5657 39.1475C40.5984 39.2063 40.582 39.2482 40.5247 39.2818L40.3773 39.3742C40.2381 39.4582 40.0662 39.4162 39.9925 39.2818C37.1511 34.8814 34.9156 29.7251 33.3107 23.8299C32.7621 21.8144 32.4509 19.8577 32.369 17.943C32.3608 17.6743 32.4673 17.5987 32.7047 17.7079H32.7129ZM30.5757 26.4416C30.6249 25.2491 30.7804 25.2407 31.0588 26.3912C31.4355 27.9868 31.9104 29.7083 32.4673 31.5642C33.3189 34.4195 34.7437 37.6275 35.6444 40.5919C36.4714 43.2792 36.1766 43.422 34.7518 41.0118C33.8102 39.4162 32.9586 37.6191 32.1807 35.6036C30.9852 32.4796 30.4447 29.4228 30.5757 26.4416ZM26.1458 43.8754C22.2726 42.5318 19.202 41.2385 19.2838 40.9866C19.3657 40.7347 22.5756 41.6164 26.4487 42.9601C30.3219 44.3037 33.3926 45.597 33.3107 45.8489C33.2288 46.1009 30.0189 45.2191 26.1458 43.8754ZM15.5908 56.3378C15.5499 56.3714 15.509 56.3714 15.468 56.321C11.9961 51.929 9.04827 47.0414 7.69717 41.5073C7.69717 41.4821 7.69717 41.4653 7.72993 41.4569L7.8937 41.3897C7.95101 41.3729 8.00014 41.3897 8.02471 41.4569C10.2028 46.6131 12.5529 51.4839 15.6236 56.2118C15.6564 56.2622 15.64 56.3042 15.599 56.3378H15.5908ZM26.0966 59.9993L26.0639 60.0328C25.8182 60.3268 23.9185 59.0923 21.8223 57.2532L21.6421 57.0936C19.5459 55.2713 18.0474 53.5413 18.293 53.2474L18.3176 53.2138C18.3504 53.1634 18.4241 53.1634 18.465 53.197L26.0803 59.8397C26.1212 59.8733 26.1294 59.9489 26.0966 59.9909V59.9993ZM11.8651 44.3877C11.7996 44.3205 11.8078 44.2449 11.8651 44.1694C11.9306 44.0938 12.0043 44.0938 12.0698 44.1694C15.6482 47.7468 19.5131 50.7365 23.6729 53.1466C25.6381 54.2887 27.2267 55.3385 28.4467 56.3126C28.5696 56.4134 28.5941 56.5897 28.5041 56.7157L28.3894 56.8585C28.3321 56.9424 28.2502 56.9508 28.1683 56.9005C22.3791 53.4406 16.467 49.4516 11.8487 44.3877H11.8651ZM29.8715 88.0648C29.9452 88.0144 30.0517 88.048 30.1008 88.1319L30.3546 88.5938C30.3956 88.6778 30.371 88.7786 30.2891 88.829L18.8007 95.522C18.727 95.5724 18.6206 95.5388 18.5714 95.4548L18.3176 94.993C18.2767 94.909 18.3012 94.8082 18.3831 94.7578L29.8715 88.0648ZM22.8458 72.6464C20.9625 72.6464 19.4394 72.4784 19.4394 72.2853C19.4394 72.0921 20.9707 71.9409 22.8458 71.9493C24.7292 71.9493 26.2522 72.1173 26.2522 72.3105C26.2522 72.5036 24.721 72.6548 22.8458 72.6464ZM26.1867 76.5597V76.7529C26.1785 76.8117 26.1458 76.8453 26.0803 76.8537C22.3218 77.1644 18.6533 76.7613 15.0586 75.636C14.0596 75.3169 12.1271 74.8466 10.8989 74.1664C10.0063 73.6709 10.0473 73.5449 11.0381 73.7969C15.7301 74.9894 20.7168 75.8291 25.9902 76.333C26.1294 76.3414 26.1867 76.417 26.1785 76.5597H26.1867ZM6.3297 71.8822C6.94383 71.8402 7.54978 71.7898 8.15573 71.7394C8.7453 71.6974 9.32668 71.5462 9.89987 71.2943C12.5939 70.0934 15.3698 69.1361 18.2193 68.4307C19.2183 68.1871 20.4957 68.0444 22.027 68.0192C23.3208 68.0024 24.5982 67.91 25.8837 67.7504C26.0639 67.7336 26.1621 67.8092 26.1867 67.9856L26.2031 68.1619C26.2031 68.2207 26.1785 68.2795 26.1212 68.2879C24.3034 68.7078 21.6667 68.0947 19.2593 68.6238C18.6615 68.7582 18.0474 68.9597 17.4087 69.2201C14.8129 70.2866 12.2254 71.3447 9.62965 72.386C8.95001 72.6632 8.33587 72.7471 7.81181 72.638C7.28775 72.5288 6.78006 72.344 6.29695 72.0753C6.10861 71.9661 6.1168 71.9074 6.33789 71.8822H6.3297ZM3.51287 73.4777C3.45555 73.4274 3.44736 73.335 3.49649 73.2762L3.6357 73.0915C3.68483 73.0243 3.74215 73.0243 3.80765 73.0663C5.22426 74.0656 6.64086 75.0313 8.04928 75.9467C11.4475 78.1637 15.1077 79.7593 19.0382 80.7419C19.464 80.851 19.8816 81.0358 20.2828 81.3129C20.5367 81.4809 20.3893 81.884 20.0863 81.842C13.7812 80.8762 8.21305 77.8026 3.52106 73.4694L3.51287 73.4777ZM12.0862 98.73C14.1251 93.6997 17.0238 89.316 20.7905 85.5706C22.1007 84.2689 23.7302 83.0597 25.6872 81.9427C25.9411 81.8 26.2195 81.7496 26.5061 81.8252L26.7353 81.884C26.8991 81.9176 26.9319 82.1359 26.7927 82.2283C23.2143 84.6133 20.2992 87.4097 18.0556 90.6345C16.467 92.9187 14.6 95.7236 12.4629 99.0407C12.4383 99.0743 12.4055 99.0827 12.3728 99.0659L12.1517 98.9483C12.0616 98.8979 12.0371 98.8224 12.078 98.73H12.0862ZM12.25 101.073C12.0371 101.073 11.8897 100.989 11.7914 100.787C11.5539 100.267 11.6768 99.8889 12.1681 99.6789C13.4946 99.1079 15.4353 98.688 17.9983 98.4277C20.9215 98.1253 23.8366 97.3527 26.5306 96.3282C28.5122 95.5808 30.6904 94.6738 33.0568 93.6325C33.1305 93.5989 33.2206 93.6325 33.2615 93.7081L33.3434 93.8425C33.4744 94.086 33.4253 94.2791 33.196 94.4303C30.9196 95.9419 28.4877 97.168 25.9083 98.1169C24.7128 98.5536 23.1734 98.9315 21.2736 99.259C19.7096 99.5278 18.1456 99.8049 16.5816 100.099C15.3452 100.334 13.814 101.048 12.25 101.073ZM28.3485 106.96C23.7629 107.262 19.6605 107.388 15.9348 104.214C15.8938 104.18 15.8856 104.138 15.9184 104.088L16.0003 103.953C16.0003 103.953 16.033 103.928 16.0576 103.953C17.9409 105.431 20.2173 106.238 22.8704 106.372C24.8438 106.464 26.7026 106.49 28.4631 106.422C28.5286 106.422 28.5696 106.464 28.5696 106.54L28.5859 106.708C28.5859 106.876 28.5122 106.96 28.3485 106.977V106.96ZM19.6359 103.105C18.3667 102.971 17.0975 102.845 15.8201 102.711C15.5335 102.685 15.2469 102.711 14.9603 102.761C14.5345 102.853 14.0678 102.635 13.5519 102.098C13.3226 101.862 13.3718 101.753 13.6911 101.778C17.8754 102.139 21.5357 102.139 24.6718 101.787C27.5296 101.468 30.7723 100.594 34.3997 99.1667C35.0548 98.9063 35.6444 98.3857 36.3077 98.3101C36.5369 98.2765 36.5861 98.3689 36.4796 98.5788C36.2421 99.0323 35.9474 99.3598 35.6116 99.5614C30.6576 102.526 25.3269 103.701 19.6278 103.097L19.6359 103.105ZM40.2463 102.467C39.6322 104.894 38.928 107.329 38.1337 109.756C37.6587 111.209 37.3394 112.528 37.1593 113.703C36.8808 115.652 36.2749 118.414 37.0364 120.27C37.1183 120.472 37.2657 120.556 37.4704 120.531C38.5677 120.363 39.5339 119.817 40.3609 118.91C41.7448 117.382 42.7765 116.088 43.448 115.013C45.1102 112.376 46.6906 109.706 48.1809 107.027C48.2628 106.884 48.3611 106.867 48.4757 106.985L48.7377 107.237C48.8196 107.321 48.8524 107.455 48.8114 107.573C47.3703 111.461 45.4787 114.921 43.1368 117.953C41.7448 119.758 39.7714 120.808 37.7488 121.639C36.9873 121.958 36.3732 122.42 35.9146 123.042C35.628 123.428 35.4806 123.378 35.4561 122.899C35.3742 120.203 35.3005 117.482 35.8409 114.879C36.6106 111.209 37.6915 107.455 39.0672 103.643C39.2801 103.055 39.5667 102.601 39.9188 102.282C40.2299 101.997 40.3282 102.064 40.2299 102.484L40.2463 102.467ZM41.4173 109.849C42.7847 106.565 44.0539 103.979 44.2586 104.063C44.4552 104.155 43.5053 106.876 42.1296 110.159C40.7622 113.443 39.493 116.029 39.2882 115.945C39.0917 115.853 40.0416 113.132 41.4173 109.849ZM33.1715 125.368C32.8931 124.352 32.5983 123.394 32.5164 122.311C32.3772 120.455 31.8777 118.608 31.7876 116.886C31.5338 111.931 31.2062 107.833 34.0722 103.475C34.4243 102.946 34.8665 102.677 35.4233 102.66C35.7345 102.66 35.8 102.778 35.6444 103.046C35.1203 103.911 34.7273 104.835 34.4325 105.826C32.8521 111.226 32.4018 116.777 33.0896 122.479C33.1797 123.252 33.6464 124.385 33.368 125.359C33.3025 125.578 33.2452 125.578 33.1797 125.359L33.1715 125.368ZM50.7767 116.768C50.7767 116.928 50.7112 117.079 50.6047 117.188C48.574 119.321 47.1 120.682 46.1911 121.27C41.9495 124.007 37.7243 126.753 33.5072 129.533C33.3189 129.659 33.237 129.609 33.2779 129.382C33.3434 128.987 33.5645 128.643 33.9412 128.341C35.9555 126.711 38.1255 125.317 40.4674 124.175C41.4254 123.705 43.2678 122.504 45.9864 120.564C47.8206 119.254 49.3601 117.633 50.5801 115.694C50.6375 115.601 50.7767 115.652 50.7767 115.761V116.777V116.768ZM66.3429 139.224L66.1628 139.275C65.9826 139.333 65.8352 139.275 65.7206 139.132C61.2825 133.279 57.7614 127.493 55.1739 121.765C54.1339 119.481 53.5607 117.029 53.4625 114.417C53.4625 114.375 53.4789 114.35 53.5198 114.342C53.6017 114.333 53.6508 114.358 53.6672 114.442C54.052 116.281 54.4533 117.911 55.3376 119.649C56.1729 121.295 56.9262 123.042 57.8351 124.578C60.6683 129.382 63.5425 134.152 66.4657 138.897C66.5394 139.023 66.4821 139.182 66.3429 139.224ZM64.2221 127.585C64.9754 129.231 65.4995 130.843 65.7861 132.405C65.9253 133.127 65.8434 133.153 65.5568 132.472C64.5906 130.222 63.7881 128.055 62.3224 125.897C59.2599 121.37 57.2537 116.374 56.3284 110.924C56.181 110.059 56.3694 109.975 56.8771 110.688C57.0572 110.949 57.2537 111.436 57.483 112.141C59.1862 117.617 61.8638 122.42 64.2221 127.576V127.585ZM63.6325 119.834L63.8127 111.738C63.8127 111.528 63.9846 111.36 64.1894 111.369H64.2139C64.4186 111.369 64.5742 111.545 64.5742 111.755L64.3941 119.85C64.3941 120.06 64.2221 120.228 64.0174 120.22H63.9928C63.7881 120.22 63.6325 120.044 63.6325 119.834ZM77.4465 115.937C77.3646 116.281 77.3073 116.659 77.2827 117.062C77.1435 119.086 76.6194 120.581 75.5222 122.454C72.5825 127.484 69.9377 132.607 67.5794 137.83C67.2109 138.645 66.9489 138.62 66.7851 137.729C66.5804 136.587 67.0062 135.21 68.0707 133.589C71.7637 127.954 74.8671 122.059 77.3646 115.912C77.5202 115.551 77.5447 115.559 77.4547 115.945L77.4465 115.937ZM67.4647 126.09C68.2345 122.949 70.7893 120.48 72.1322 117.482C73.254 114.955 74.1629 112.343 74.8425 109.639C74.8835 109.454 74.9572 109.311 75.0636 109.227C75.1701 109.135 75.3257 109.21 75.342 109.345C75.6041 112.36 74.0728 116.097 72.7299 118.734C70.9203 122.286 69.1679 125.872 67.4811 129.491C67.3501 129.777 67.2682 129.945 67.2437 129.978C66.9571 130.549 66.8342 130.507 66.8752 129.869C66.9652 128.567 67.1618 127.299 67.4566 126.082L67.4647 126.09ZM67.301 121.723L69.4709 110.697C69.5118 110.495 69.7084 110.361 69.9049 110.403H69.9295C70.126 110.453 70.257 110.646 70.2161 110.856L68.0461 121.883C68.0052 122.084 67.8087 122.219 67.6121 122.177H67.5876C67.3829 122.126 67.26 121.933 67.301 121.723ZM92.5542 125.863C89.2952 123.386 86.2736 121.152 83.5714 117.701C82.6052 116.466 81.0085 115.794 80.0176 114.526C79.731 114.157 79.772 114.115 80.1487 114.392C81.9911 115.744 83.768 117.289 85.4712 119.019C87.4528 121.035 89.1969 122.639 91.6698 123.823C92.4477 124.201 92.8326 124.839 92.8244 125.729C92.8244 125.872 92.6606 125.947 92.5624 125.863H92.5542ZM81.4015 107.993C81.9337 108.312 82.3759 108.707 82.728 109.168C85.4384 112.729 88.2962 116.097 91.3095 119.279C91.7353 119.725 91.6535 119.876 91.0721 119.699C90.6217 119.565 90.2532 119.338 89.9339 119.011C86.9287 115.862 84.0382 112.234 81.2623 108.127C81.0903 107.867 81.1313 107.825 81.3933 107.984L81.4015 107.993ZM94.7814 117.877C94.2901 119.464 93.5122 120.942 92.7835 122.412C92.6688 122.63 92.3822 122.647 92.2512 122.445C92.1202 122.252 92.1202 122.059 92.2512 121.858C93.0782 120.539 93.5859 119.557 93.7906 118.885C94.1427 117.675 93.3894 117.029 92.7507 116.147C90.3024 112.763 87.5019 109.236 84.3575 105.557C84.1774 105.339 84.1283 105.096 84.202 104.81L84.2838 104.541C84.333 104.373 84.5459 104.331 84.6441 104.466L94.675 117.247C94.8224 117.432 94.8551 117.642 94.7896 117.869L94.7814 117.877ZM96.5583 114.644C96.6075 114.728 96.5911 114.829 96.5174 114.879L96.2881 115.039C96.2144 115.089 96.108 115.072 96.0588 114.997L88.4763 103.592C88.4272 103.508 88.4436 103.408 88.5173 103.357L88.7547 103.198C88.8284 103.147 88.9349 103.164 88.984 103.24L96.5665 114.644H96.5583ZM98.6955 100.586C100.358 100.905 101.963 101.417 103.502 102.131C103.559 102.165 103.584 102.207 103.559 102.274C103.543 102.333 103.502 102.358 103.437 102.341C101.602 101.854 99.76 101.35 97.9422 100.804C97.0087 100.527 96.3127 99.9981 95.633 99.3514C95.4447 99.1667 95.1745 99.0827 94.9206 99.1331L94.7405 99.1751C94.4539 99.2338 94.3966 99.1331 94.5767 98.8979C94.7405 98.688 94.937 98.5956 95.1909 98.6124C95.3464 98.6292 95.5266 98.7132 95.7231 98.8811C96.8941 99.8721 97.8767 100.443 98.6873 100.594L98.6955 100.586ZM89.852 98.0246C81.8437 105.675 70.8302 109.546 59.9969 108.018C44.3487 105.801 31.3454 91.5415 28.9872 75.552C27.9227 68.3383 28.676 60.797 31.7958 54.1964C33.1387 51.3579 34.801 48.6706 36.7662 46.1177C40.7049 41.0286 46.3713 37.3251 52.2015 34.8226C54.2076 33.9576 56.3694 33.3866 58.6785 33.0926C68.7585 31.8078 78.5519 33.6805 86.6994 39.4162C101.037 49.5104 105.918 67.5909 99.7027 83.8994C97.5573 89.526 94.1919 93.8844 89.8438 98.033L89.852 98.0246ZM116.841 103.256C116.907 103.315 116.915 103.416 116.866 103.483L116.595 103.827C116.538 103.895 116.44 103.903 116.374 103.853L99.67 89.7779C99.6044 89.7191 99.5963 89.6183 99.6454 89.5512L99.9156 89.2069C99.9729 89.1397 100.071 89.1313 100.137 89.1817L116.841 103.256ZM125.292 76.1818L126.11 76.3078C126.364 76.3498 126.43 76.7025 126.201 76.8285C121.058 79.8517 115.629 81.6068 109.914 82.0939C109.488 82.1275 109.087 82.0603 108.702 81.9092C108.497 81.8252 108.505 81.7664 108.718 81.7328C114.802 80.7923 119.543 79.499 124.506 76.3414C124.735 76.1986 125.013 76.1399 125.283 76.1818H125.292ZM121.918 74.3343C122.016 74.3343 122.065 74.3847 122.074 74.4855L122.09 74.6534C122.09 74.6534 122.074 74.7038 122.041 74.7122C120.215 74.8802 118.716 75.1741 117.554 75.5772C113.377 77.0552 109.021 78.1301 104.845 77.198C104.493 77.114 104.296 76.9041 104.264 76.543C104.247 76.3246 104.337 76.2238 104.55 76.2238C108.816 76.4338 112.984 75.9215 117.062 74.6954C118.733 74.1916 120.239 74.3091 121.918 74.3343ZM104.739 71.6218L104.968 70.8408C104.992 70.7485 105.083 70.6981 105.173 70.7233L105.271 70.7485C108.382 71.7058 110.847 72.6968 110.773 72.9487L110.724 73.125C110.642 73.3854 108.055 72.8143 104.943 71.857L104.853 71.8234C104.763 71.7982 104.714 71.7058 104.739 71.605V71.6218ZM105.353 65.7854L117.48 72.0921C117.668 72.1929 117.742 72.4196 117.644 72.6044V72.6296C117.537 72.8143 117.316 72.8899 117.128 72.7975L105.001 66.4908C104.812 66.39 104.739 66.1633 104.837 65.9785V65.9533C104.943 65.7686 105.164 65.693 105.353 65.7854ZM109.07 56.2202C109.013 56.2454 108.964 56.237 108.931 56.1782L108.857 56.0355C108.857 56.0355 108.857 56.0103 108.857 56.0019C111.478 54.3139 114.475 52.8023 116.538 50.6861C118.315 48.8637 119.715 47.0162 120.755 45.1603C121.304 44.1694 121.902 43.3296 122.549 42.6242C123.13 41.9859 123.277 42.0783 122.999 42.9013C122.442 44.5641 121.459 46.2268 120.043 47.8812C116.939 51.5343 113.271 54.3139 109.054 56.237L109.07 56.2202Z" fill="black"/>
<path d="M75.6614 41.4996C76.513 41.5416 76.5375 41.4156 75.7433 41.0881C71.1905 39.249 66.9652 38.426 62.003 40.2483C57.1473 42.0286 52.8647 44.6823 49.1635 48.201C44.144 52.9878 42.1951 59.8488 42.1624 66.7518C42.0969 80.3479 52.0213 90.8283 63.4196 95.8922C65.0819 96.6312 66.9407 97.1183 69.0041 97.3198C69.7329 97.387 69.7902 97.6306 69.1761 98.0337C68.1935 98.6803 67.0962 98.949 65.9007 98.8231C58.0644 98.0169 50.662 92.6759 45.7162 86.4195C40.0825 79.3065 37.5932 71.337 38.2319 62.5025C38.4939 58.9334 39.28 55.7003 40.6066 52.8114C43.1777 47.2017 47.4931 42.6165 52.7582 39.5513C64.6151 32.6651 80.6563 36.8976 89.7373 46.5718C97.6883 55.0452 100.554 65.089 98.3352 76.72C96.4846 86.4111 89.3361 94.8257 80.9102 100.024C76.8078 102.56 72.2222 104.005 67.1454 104.357C61.8474 104.727 57.0326 103.837 52.7091 101.704C47.7387 99.243 43.7018 96.0266 40.582 92.0376C36.6679 87.0409 34.1049 81.7083 32.893 76.0398C32.2543 73.0502 32.0578 69.4139 32.3117 65.1478C32.6883 58.7571 35.1203 52.6687 39.6158 46.8742C39.6485 46.8406 39.6813 46.8406 39.714 46.8658L39.886 46.9833C39.886 46.9833 39.9269 47.0337 39.9024 47.0757C37.1265 51.9968 35.7836 57.3798 35.8654 63.2331C36.152 81.9015 46.9526 97.5802 65.5486 100.729C67.0635 100.99 69.9295 100.377 71.6572 99.7888C79.4772 97.1267 87.6984 91.9872 91.5716 84.3284C93.7415 80.0287 94.8715 75.1916 94.9452 69.8338C95.0353 63.1407 92.9226 57.5394 88.591 53.0214C84.2019 48.4446 77.5611 44.7159 71.2396 44.6655C62.8792 44.5984 56.4758 47.7475 52.0213 54.1131C50.2198 56.6828 49.1963 59.9244 48.9424 63.8378C48.4921 70.8079 50.2689 76.8292 54.2649 81.9015C56.5577 84.8071 59.5956 86.747 63.3623 87.7295C67.0307 88.6785 70.3962 88.0319 73.7289 86.0836C79.9357 82.4557 82.7608 76.5269 82.2121 68.297C81.9992 65.0554 80.9511 62.3681 79.0923 60.2267C75.8661 56.5233 69.7657 54.281 65.1392 56.7416C61.872 58.4716 59.0224 60.9405 58.8423 64.9379C58.6376 69.3299 61.176 75.855 66.6704 74.8977C69.2826 74.4442 70.691 71.7065 70.4699 69.0948C70.2979 66.9785 68.1853 65.9204 66.5967 67.432C66.4412 67.5748 66.392 67.7511 66.4575 67.9611C66.7851 69.0864 68.2262 70.9759 66.9898 72.0844C66.4821 72.5463 65.8516 72.6807 65.1064 72.4959C61.6345 71.6561 60.7666 68.0283 61.2251 64.7699C61.8802 60.1847 66.0645 57.3294 70.4535 57.7325C79.1415 58.5387 81.9337 68.213 79.4772 75.5695C77.905 80.2723 73.7944 83.7406 69.217 85.101C65.4913 86.2179 61.5035 84.9919 58.2773 82.8672C52.2178 78.895 49.8759 70.4049 50.2771 63.4515C50.793 54.7261 57.5157 47.8651 65.8107 46.723C69.9458 46.1604 73.8108 46.639 77.4137 48.1758C84.726 51.283 90.941 57.7493 92.1857 65.9204C92.5951 68.6245 92.5705 71.3034 92.1038 73.9487C90.5889 82.5061 86.1426 88.9388 78.7976 93.2385C73.7125 96.2197 67.3665 95.4807 62.3633 92.6843C60.9713 91.9117 61.0368 91.7269 62.5762 92.1468C68.8977 93.86 76.775 90.736 81.3605 86.6966C87.4691 81.3136 89.549 71.3622 87.1743 63.7874C84.7833 56.137 77.905 50.9723 70.1587 50.5356C68.9386 50.4684 67.1781 50.8127 64.9017 51.5769C56.8852 54.2558 53.3396 61.3856 54.7071 69.7666C55.2639 73.1425 56.8361 75.7375 59.44 77.5598C64.2876 80.9525 70.6255 79.0966 73.7698 74.3602C75.08 72.4035 75.4976 69.1452 74.8507 66.861C73.9336 63.569 69.9213 59.7648 66.3183 61.8307C63.5752 63.4095 62.7973 66.08 64.0092 69.8506C64.173 70.3377 64.4923 70.514 64.9836 70.3797C65.2702 70.2957 65.5568 70.2201 65.8516 70.1361C66.3757 69.985 66.523 69.6574 66.2856 69.1536C65.4094 67.2725 64.9345 65.6433 66.9816 64.2157C69.9704 62.1414 73.0902 66.3991 73.4914 68.9016C73.8681 71.1858 73.1803 73.1425 71.4443 74.7801C67.4156 78.5759 61.3397 78.5507 58.0971 73.722C56.9344 71.992 56.3448 69.7498 56.3284 67.0205C56.2875 60.3359 59.1371 55.885 64.8854 53.6764C74.3348 50.0401 84.2019 57.531 85.6922 67.1381C86.5438 72.6471 84.8161 79.7432 80.9266 83.9589C74.212 91.2062 65.0246 92.3399 56.222 88.0822C53.3724 86.705 50.8667 84.3788 48.6968 81.1205C46.4613 77.7529 45.0611 73.6296 44.5043 68.7589C43.538 60.3359 46.0846 53.3825 52.1523 47.9155C55.4113 44.9763 59.1207 42.8768 63.2804 41.6087C65.9171 40.8109 68.5456 40.6094 71.1495 41.0041C72.6153 41.2224 74.1138 41.382 75.6614 41.466V41.4996Z" fill="black"/>
</g>
<defs>
<clipPath id="clip0_2252_901">
<rect width="130" height="140" fill="white" transform="translate(0 0.542969)"/>
</clipPath>
</defs>
</svg>
