<svg width="75" height="80" viewBox="0 0 75 80" fill="none" xmlns="http://www.w3.org/2000/svg">
<g clip-path="url(#clip0_2227_242)">
<path d="M70.0524 38.3736C69.8928 38.1323 69.8928 37.9024 70.0752 37.6726C72.7542 34.2018 74.1564 30.2828 74.2704 25.9386C74.3502 22.5483 74.1222 19.859 71.2608 18.0317C67.5901 15.6872 64.5349 12.883 62.0839 9.61914C61.4227 8.7457 60.8983 8.1366 60.5107 7.80331C58.0255 5.70016 53.42 7.0448 50.9348 8.42391C50.7068 8.53884 50.4332 8.45839 50.3306 8.22854C48.0164 3.73493 44.5052 1.83865 39.9225 0.310134C36.9357 -0.689722 34.1997 0.792824 31.6347 2.93045C29.4574 4.73479 27.3826 6.63106 25.4218 8.58481C25.0342 8.97556 24.4642 9.11347 23.9398 8.97556C19.1518 7.60794 14.0219 8.19406 11.4797 13.0669C9.88372 16.1354 7.62654 18.6293 4.68536 20.5716C0.706795 23.2034 0.592795 28.3406 2.15458 32.5469C2.89558 34.5581 5.77975 37.2589 4.05837 39.7527C2.22298 42.3845 0 44.9129 0 48.3492C0 53.4404 1.16279 59.3246 5.58596 62.2553C8.04834 63.8872 10.3967 64.7951 12.4031 67.2316C14.5121 69.8174 15.8915 73.0008 19.5394 73.1043C21.01 73.1502 23.005 72.3343 24.8632 72.3113C25.1482 72.3113 25.4218 72.3917 25.6498 72.5526C29.7766 75.5637 35.3169 78.954 40.3557 79.9194C41.3703 80.1148 42.4419 79.9424 43.5705 79.3907C48.3812 77.0347 52.6106 74.2995 56.2358 71.208C56.4638 71.0241 56.7146 70.9092 56.9995 70.8747C59.6329 70.5069 62.1295 70.7828 63.9991 69.2313C65.9599 67.6108 66.1423 64.0251 68.0575 62.2782C69.471 60.9911 70.953 59.6924 72.492 58.3708C74.3844 56.7388 74.8632 53.1186 75 50.6247C75.3306 45.0508 72.9252 42.5914 70.0752 38.3851L70.0524 38.3736ZM57.5695 13.1129C61.3201 14.7793 64.7743 17.0549 67.9321 19.9855C71.0214 22.8356 69.8358 28.3291 67.9321 31.2942C66.4159 33.6617 63.3949 35.489 60.8983 37.1209C59.7013 37.9139 57.2503 38.6265 53.534 39.2586C53.42 39.2815 53.3174 39.2011 53.2946 39.0977L53.1464 38.5C53.1464 38.5 53.1464 38.4196 53.192 38.3966C53.819 38.0748 54.389 37.7415 54.9248 37.3738C55.3124 37.1094 55.2668 36.9715 54.8108 36.96C54.3776 36.96 53.9558 36.9945 53.5682 37.0865C53.2832 37.1554 53.0438 37.0865 52.8728 36.8451C52.7246 36.6612 52.679 36.3969 52.7246 36.0751C52.7702 35.7878 52.7018 35.5465 52.5422 35.3051L50.9462 33.087C50.7638 32.8342 50.741 32.5814 50.8778 32.3055C51.1742 31.6964 51.6416 31.1908 52.2686 30.7885C52.8044 30.4552 52.7588 30.3403 52.1432 30.4667C51.4478 30.6161 50.7296 30.8 49.9886 31.0528C49.0196 31.3746 48.8372 31.1218 49.4642 30.3058C50.9462 28.3636 52.166 25.9156 53.1122 22.9391C53.192 22.6977 52.9184 22.4909 52.7132 22.6403C51.9494 23.2149 51.3566 23.9159 50.9462 24.7319C50.1026 26.4328 49.0766 28.0992 47.891 29.7657C47.7086 30.0185 47.4692 30.1105 47.1728 30.053C46.922 30.007 46.6826 29.9151 46.4774 29.7887C46.1012 29.5588 46.1354 29.4324 46.5686 29.4324C47.6972 29.4094 48.3698 28.9382 48.5978 28.0303C48.9854 26.4903 49.4072 24.9733 49.8746 23.4677V23.4447L49.6694 23.3988C49.5326 23.3643 49.4528 23.4103 49.4186 23.5597C49.031 25.2261 48.1532 26.4788 46.7738 27.3292C46.5116 27.5016 46.409 27.4327 46.4888 27.1224C47.4578 23.2838 52.0064 10.6305 57.5809 13.0899L57.5695 13.1129ZM38.4405 31.6045C43.8441 31.6045 48.233 36.0291 48.233 41.4766C48.233 46.9241 43.8441 51.3488 38.4405 51.3488C33.0369 51.3488 28.648 46.9241 28.648 41.4766C28.648 36.0291 33.0369 31.6045 38.4405 31.6045ZM35.6133 26.3868C35.7273 25.8467 36.1035 25.5134 36.7077 25.3755C36.9585 25.318 37.1979 25.5364 37.1637 25.7892C37.1409 25.9501 37.0839 26.0995 37.0041 26.2604C36.8901 26.4903 36.8217 26.7546 36.8103 27.0189V27.2948C36.8103 27.5131 36.6963 27.6051 36.4683 27.5591C36.2061 27.5016 35.9781 27.3522 35.7957 27.1224C35.6133 26.904 35.5449 26.6512 35.6133 26.3754V26.3868ZM39.7743 26.5707C39.8997 26.2719 40.1733 26.111 40.3785 26.203C40.5951 26.2949 40.6635 26.6052 40.5495 26.904C40.4241 27.2028 40.1505 27.3637 39.9453 27.2718C39.7287 27.1798 39.6603 26.8695 39.7743 26.5707ZM28.8646 10.4696C30.6658 8.42391 33.0369 6.32077 36.0009 4.17165C36.7419 3.6315 37.4715 3.49359 38.1669 3.73493C41.0967 4.80374 43.5249 6.25181 45.44 8.07913C49.259 11.7223 46.124 19.5143 43.7529 23.5827C43.3197 24.3067 42.8751 24.3182 42.4191 23.6171C42.3621 23.5252 42.2595 23.3873 42.1227 23.2264C41.8605 22.9046 41.6895 22.9506 41.6097 23.3643L41.3931 24.4791C41.3361 24.7664 41.0853 24.9848 40.7889 24.9962H40.4013C39.9681 25.0077 39.7401 24.8009 39.7059 24.3756L39.3639 20.79C39.3525 20.5831 39.3183 20.5831 39.2613 20.79C38.8395 22.3989 38.8053 24.1458 39.1359 26.0765C39.1701 26.2949 39.1587 26.4903 39.1131 26.6857C39.0105 27.0879 38.9535 27.2948 38.9421 27.3177C38.3721 28.444 38.0301 28.3751 37.9389 27.0994C37.8933 26.4328 37.8933 25.6628 37.9389 24.7894C37.9617 24.4906 37.8249 24.2837 37.5513 24.1688C37.2207 24.0309 36.9129 24.1113 36.6279 24.3986C36.2859 24.7319 35.7045 24.5365 35.6361 24.0539C35.5335 23.3183 35.1573 22.7207 34.5189 22.284C34.2909 22.1231 34.1199 21.9162 34.0059 21.6519C33.2535 19.8361 32.2845 18.1352 31.1104 16.5607C31.0306 16.4572 30.9394 16.4457 30.8254 16.5032C30.7114 16.5951 30.7 16.6871 30.757 16.802C31.9311 18.9167 32.7177 21.1807 33.1053 23.5827C33.1509 23.87 33.2877 24.0883 33.5043 24.2722C33.5841 24.3297 33.6525 24.4101 33.6981 24.4906C33.7665 24.6055 33.7209 24.7549 33.5841 24.7894C33.3789 24.8468 33.1737 24.8468 32.9685 24.7664C32.7747 24.6859 32.6151 24.5825 32.4897 24.4101C30.7228 22.0426 29.218 19.3304 27.9412 16.2619C27.0634 14.1127 27.3712 12.1935 28.8646 10.4926V10.4696ZM6.14455 24.6974C6.44095 23.9159 7.45554 22.7437 9.23393 21.1807C11.0807 19.5487 12.6767 17.7444 14.0333 15.7447C15.0137 14.2966 16.4387 13.6875 18.3311 13.9059C21.7738 14.3311 24.373 16.0205 26.0944 18.9856C27.5878 21.56 28.7164 23.9159 29.4688 26.0536C29.56 26.3409 29.4688 26.4443 29.1724 26.3868C28.4086 26.203 27.8044 25.8927 27.3484 25.4559C25.3078 23.4792 23.2558 21.2611 21.181 18.7673C20.9986 18.5604 20.9872 18.5834 21.1126 18.8247C22.3438 21.1117 23.3812 23.4447 24.2476 25.8122C24.7378 27.1569 25.5358 28.0992 26.254 29.1451C27.508 30.9954 27.2116 31.3057 25.342 30.076C25.0114 29.8576 24.3958 29.5473 23.4952 29.1681C22.0018 28.5245 21.1126 27.2603 19.9156 26.203C19.813 26.111 19.7104 26.1225 19.6192 26.226C19.528 26.3294 19.528 26.4328 19.6192 26.5363C21.0556 28.1222 22.6402 29.5473 24.3616 30.8345C24.601 31.0184 24.5782 31.1218 24.2818 31.1563L20.9074 31.662C20.6224 31.7079 20.5882 31.8228 20.7934 32.0182L23.1532 34.3857C23.3926 34.6156 23.4382 34.8799 23.2672 35.1787C23.1418 35.4315 22.948 35.5924 22.6858 35.6729C22.2982 35.7993 22.3096 35.9257 22.6858 36.0521C22.9138 36.1326 23.0734 36.282 23.1646 36.5003C23.2786 36.7877 23.1874 36.9715 22.891 37.0635C21.1354 37.6036 19.8928 37.822 19.1518 37.7071C17.4305 37.4427 15.0821 36.4888 12.1181 34.8684C11.9927 34.7994 11.9015 34.8224 11.8331 34.9603L11.7191 35.1442C11.6507 35.2706 11.6735 35.3741 11.8103 35.443C15.5837 37.6611 17.6699 39.1436 22.8112 38.6609C23.1418 38.638 23.2558 38.7759 23.176 39.0977C23.119 39.293 22.9936 39.4195 22.7884 39.4884C20.7478 40.1895 18.6731 40.3619 16.5869 40.0171C13.2353 39.4769 12.7109 39.0172 11.5481 35.8797C11.3429 35.3281 11.0351 34.8339 10.6247 34.4087C8.39033 32.0872 4.91336 28.0763 6.14455 24.7089V24.6974ZM21.2836 66.3007C19.8358 66.7374 18.6731 66.519 17.8067 65.6571C15.9029 63.7723 13.0073 62.0369 9.10853 60.4739C6.03055 59.2327 4.95896 56.0033 4.58276 52.7968C3.98997 47.8435 7.19334 42.5454 12.7565 42.6834C16.5755 42.7868 20.0866 43.1775 23.2672 43.8441C24.5782 44.1199 24.5896 44.4417 23.3128 44.8325C22.5148 45.0738 21.7852 45.637 21.1012 46.5219C20.9188 46.7402 20.9758 46.9126 21.2494 47.0046C21.808 47.1885 22.378 47.3034 22.9822 47.3723C24.3388 47.4988 24.3844 47.8091 23.0962 48.2573C22.2184 48.5676 21.3748 48.6595 20.5654 48.5101C19.0492 48.2458 18.9352 48.5101 20.2462 49.3606C20.8732 49.7628 21.7054 50.0041 22.7428 50.0846C23.0278 50.1076 23.2444 50.234 23.4154 50.4524C23.7118 50.8316 24.0538 51.1189 24.4528 51.3373C24.6466 51.4407 24.8746 51.2339 24.7834 51.027C24.4642 50.2455 24.6922 49.9007 25.4788 49.9697C25.7524 49.9927 25.9348 50.257 25.855 50.5213L24.5098 55.2218C24.43 55.4861 24.5326 55.5666 24.772 55.4401C25.7638 54.946 26.3794 53.5209 26.8012 52.8543C27.8272 51.2109 28.078 51.3258 27.5764 53.1991C26.539 56.9342 25.285 59.7384 23.7916 61.5887C21.2494 64.7721 21.5914 65.1169 24.8176 62.6575C26.7442 61.1864 28.591 59.0258 30.3238 56.1987C30.4834 55.9458 30.8254 55.8769 31.0648 56.0722C31.1788 56.1642 31.213 56.394 31.1674 56.7503C30.3808 62.4966 26.3224 64.7836 21.2836 66.2892V66.3007ZM48.29 72.9664C45.8732 73.8513 43.3539 74.9546 40.7319 76.2532C40.3101 76.4486 39.8199 76.4601 39.3981 76.2532C35.7615 74.5753 32.5809 72.1389 29.8792 68.9669C29.4916 68.5072 29.4346 67.8636 29.731 67.3465L36.4569 55.5666C36.5937 55.3367 36.7875 55.1758 37.0383 55.0724C38.3265 54.5897 39.5805 54.6357 40.8003 55.2333C41.0853 55.3827 41.3019 55.5895 41.4387 55.8769L42.5673 58.3018C42.7953 58.796 43.5135 58.796 43.7415 58.3018C43.8668 58.0375 44.0835 57.7961 44.3798 57.6237C44.642 57.4628 44.8358 57.5203 44.984 57.7846C45.4628 58.6466 45.9074 59.5085 46.3292 60.382C46.466 60.6693 46.6598 60.8876 46.9106 61.0485C47.207 61.2439 47.321 61.1635 47.2412 60.8187C46.7738 58.6466 46.3406 57.1411 45.9416 56.3021C44.6306 53.5324 44.927 53.3485 46.8194 55.739C49.8632 59.5775 56.1902 70.0472 48.3014 72.9434L48.29 72.9664ZM68.1943 57.8191C66.0283 59.2327 63.9193 60.7957 61.8559 62.5196C60.9895 63.2321 60.0661 63.6688 59.0857 63.8068C57.0451 64.1056 55.9964 63.485 54.8222 61.7611C52.793 58.773 50.9006 55.6815 49.1564 52.4865C49.0424 52.2682 49.088 52.0958 49.3046 51.9694L51.5048 50.6477C51.767 50.4868 52.0406 50.4294 52.337 50.4753C52.8956 50.5328 53.477 50.5213 54.0812 50.4064C54.4802 50.3259 54.4916 50.2225 54.104 50.0846C53.6366 49.9122 53.1692 49.8662 52.7246 49.9697C51.824 50.1421 51.6416 49.8547 52.166 49.0962C53.306 47.4298 54.7766 45.9013 56.6119 44.4992C56.8513 44.3153 56.8172 44.2349 56.5208 44.2463C55.7228 44.2923 55.1072 44.5107 54.674 44.9129C52.8386 46.6138 51.0032 48.3147 49.1792 50.0156C49.088 50.1076 48.9854 50.1076 48.8942 50.0156C48.803 49.9122 48.803 49.8088 48.8942 49.7168C50.9348 47.6597 52.6106 45.3267 53.9102 42.7178C54.0356 42.4535 54.2408 42.2811 54.503 42.1777C58.5271 40.7181 62.4259 40.9825 66.1993 42.9592C69.0492 44.4532 69.7788 47.5677 70.6566 50.4638C71.6256 53.6588 70.8162 56.1067 68.2171 57.8076L68.1943 57.8191Z" fill="black"/>
<path d="M36.8102 12.6763L36.6848 12.1591C36.5822 11.7109 36.7418 11.596 37.1408 11.8143C37.403 11.9637 37.5398 12.2166 37.5512 12.5843C37.5512 12.9176 37.46 13.4922 37.2662 14.2852C37.1978 14.5496 37.2206 14.8139 37.3346 15.0782C37.5284 15.492 37.631 15.9287 37.6424 16.3654C37.6538 16.9056 37.5512 16.9285 37.346 16.4344C36.947 15.5035 36.7874 14.5036 36.8672 13.4463C36.89 13.1819 36.8672 12.9291 36.8216 12.6763H36.8102Z" fill="black"/>
<path d="M13.6572 24.5712C13.5318 24.801 13.1556 24.847 12.825 24.6631C12.4944 24.4793 12.3348 24.1345 12.4602 23.9046C12.5856 23.6748 12.9618 23.6288 13.2924 23.8127C13.623 23.9966 13.7826 24.3413 13.6572 24.5712Z" fill="black"/>
<path d="M59.7582 28.6625C59.61 28.605 59.8722 27.5132 60.3396 26.2261C60.807 24.9389 61.32 23.9275 61.4682 23.9965C61.6164 24.054 61.3542 25.1458 60.8868 26.4329C60.4194 27.7201 59.9064 28.7314 59.7582 28.6625Z" fill="black"/>
<path d="M66.7806 29.145C66.9972 28.4095 67.2138 27.7544 67.4646 27.1798C67.6014 26.858 67.6584 26.881 67.6242 27.2258C67.3392 30.2943 66.279 30.8919 64.8312 32.9146C64.3068 33.6501 63.7938 34.1788 63.2808 34.4891C60.8754 35.9831 58.2192 36.5118 55.2895 36.0521C55.1527 36.0291 55.1071 35.9601 55.1755 35.8337L55.3123 35.5349C55.3579 35.443 55.4491 35.3855 55.5517 35.374C58.3332 35.374 60.8184 34.696 62.9958 33.3743C65.0706 32.1216 66.3246 30.708 66.7806 29.145Z" fill="black"/>
<path d="M16.9974 30.8807C17.1684 31.0761 17.328 31.283 17.4534 31.5128C17.6358 31.8346 17.5674 31.8921 17.2482 31.7082C16.815 31.4554 16.4844 31.0301 16.245 30.421C16.1538 30.1682 16.2336 30.0763 16.4844 30.1222C16.6668 30.1682 16.7808 30.2831 16.8036 30.467C16.8264 30.6164 16.8948 30.7543 16.9974 30.8692V30.8807Z" fill="black"/>
<path d="M67.9663 55.3252C68.1373 53.7277 69.5965 53.0612 68.2969 51.2224C68.2057 51.0959 68.2171 50.9695 68.3539 50.8776L68.5249 50.7627C68.5249 50.7627 68.5591 50.7397 68.5705 50.7627C69.7447 52.4751 69.6535 54.061 68.3311 55.4976C68.0461 55.7964 67.9321 55.7504 67.9663 55.3252Z" fill="black"/>
<path d="M7.54662 54.222C8.35602 56.1988 9.97481 57.5434 12.4144 58.233C12.46 58.2444 12.4942 58.3019 12.4714 58.3479L12.3802 58.5777C12.3232 58.7386 12.2092 58.7731 12.061 58.7156C10.6702 58.1525 9.53021 57.4859 8.64102 56.6929C7.37563 55.5782 6.63463 54.0496 6.39523 52.1074C6.37243 51.958 6.42943 51.8775 6.57763 51.8546L6.79423 51.8086C6.79423 51.8086 6.87403 51.8316 6.88543 51.8661C7.02223 52.682 7.25023 53.452 7.54662 54.1991V54.222Z" fill="black"/>
<path d="M60.0889 53.6243C60.1686 53.8426 59.8837 54.1644 59.4391 54.3368C58.9945 54.4977 58.5727 54.4632 58.4929 54.2449C58.4131 54.0265 58.6981 53.7047 59.1427 53.5323C59.5873 53.3714 60.0091 53.4059 60.0889 53.6243Z" fill="black"/>
<path d="M66.2335 57.0262C66.1423 57.1756 66.0511 57.2561 65.9713 57.302C65.5837 57.4629 65.1961 57.0837 65.3443 56.6929C65.5381 56.1298 65.9143 55.8195 66.4729 55.739C66.8035 55.6931 66.9403 55.831 66.8491 56.1758C66.7921 56.4056 66.6553 56.6125 66.4615 56.7734C66.3703 56.8538 66.3019 56.9343 66.2335 57.0377V57.0262Z" fill="black"/>
<path d="M62.9275 57.8193C63.0871 57.8193 63.2467 57.8767 63.3835 57.9572C63.6799 58.1296 63.7711 58.5088 63.5887 58.7961C63.4519 59.026 63.2581 59.1754 62.9959 59.2673C62.7109 59.3593 62.4715 59.3133 62.2435 59.1064C61.4455 58.3939 60.9553 57.509 60.7387 56.4401C60.6817 56.1184 60.7615 56.0724 61.0123 56.2907C61.4569 56.7045 61.8673 57.0952 62.2435 57.486C62.4373 57.6813 62.6653 57.7848 62.9275 57.8193Z" fill="black"/>
<path d="M57.0224 61.5543C56.8742 61.3245 56.84 61.1406 56.9312 61.0027C57.1364 60.6809 57.3872 60.6234 57.7064 60.8533C58.4588 61.3819 58.6868 62.0025 58.4018 62.7381C58.2878 63.0369 58.1054 63.0714 57.8774 62.8645C57.4898 62.4967 57.3188 62.014 57.0452 61.5658L57.0224 61.5543Z" fill="black"/>
<path d="M49.715 65.6919C49.4984 65.3356 49.3502 64.9564 49.2704 64.5656C49.202 64.1979 49.2704 64.1634 49.4984 64.4737C50.3648 65.6919 50.7524 67.0365 50.6498 68.5076C50.6498 68.5651 50.6042 68.5995 50.5472 68.5995H50.285C50.1026 68.5995 50.0228 68.5076 50.0114 68.3237L49.9544 66.4504C49.9544 66.1746 49.8632 65.9218 49.7264 65.6919H49.715Z" fill="black"/>
<path d="M37.631 66.5879C37.9958 66.9442 38.2352 67.3924 38.3606 67.9555C38.4632 68.3693 38.3606 68.4152 38.0756 68.1164C37.688 67.7142 37.4714 67.243 37.403 66.7028C37.3688 66.45 37.4486 66.404 37.631 66.5879Z" fill="black"/>
<path d="M38.5544 33.0527C33.8805 33.0527 30.0957 36.8683 30.0957 41.5802C30.0957 46.2922 33.8805 50.1192 38.5544 50.1192C43.2284 50.1192 47.0246 46.3037 47.0246 41.5802C47.0246 36.8568 43.2398 33.0527 38.5544 33.0527ZM33.8349 44.5453H33.7893C33.2991 44.5568 32.8659 43.3156 32.8203 41.7641L32.7975 41.4768C32.7519 39.9138 33.1053 38.6496 33.5955 38.6266H33.6525C33.7209 38.6266 33.7779 38.6841 33.7893 38.7416L33.9603 44.4189C33.9603 44.4879 33.9033 44.5453 33.8349 44.5453Z" fill="black"/>
</g>
<defs>
<clipPath id="clip0_2227_242">
<rect width="75" height="80" fill="white"/>
</clipPath>
</defs>
</svg>
