<svg width="110" height="110" viewBox="0 0 110 110" fill="none" xmlns="http://www.w3.org/2000/svg">
<g clip-path="url(#clip0_2028_327)">
<path d="M95.5999 16.81C86.4099 6.95004 75.6999 0.930039 62.9599 0.190039C42.8299 -0.989961 23.9199 3.01004 10.6599 21.55C4.28988 30.46 0.749884 41.27 0.0898842 52.7C-1.09012 73.32 9.69988 91.53 24.8599 102.26C36.9499 110.8 51.2199 110.85 65.2399 109.1C75.1999 107.85 84.5599 104.3 92.3399 97.17C100.32 89.86 105.7 80.37 108.49 68.69C112.81 50.58 107.69 29.78 95.5999 16.82V16.81ZM82.0699 24.36L86.1899 20.75C86.7599 20.25 87.5699 20.33 88.0599 20.92C92.5399 26.29 95.7499 32.7 97.6799 40.14C97.8299 40.71 97.5299 41.32 97.0199 41.46C93.7699 42.37 90.3799 42.86 86.8599 42.91C86.5099 42.92 86.1899 42.66 86.0799 42.27L81.5099 26.4C81.2799 25.57 81.4599 24.88 82.0699 24.35V24.36ZM69.8199 67.41C69.8799 62.01 70.2199 56.53 70.8499 51C70.8999 50.53 71.1399 50.29 71.5699 50.31L81.0899 50.63C81.4199 50.64 81.6099 50.84 81.6199 51.22C81.9399 59.52 81.1099 67.8 79.1399 76.1C78.9999 76.71 78.4099 77.04 77.8999 76.79C75.6299 75.7 70.3499 73.95 69.8499 70.84C69.8199 70.64 69.8099 69.5 69.8299 67.4L69.8199 67.41ZM69.7499 45.16L68.5199 29.28C68.4799 28.86 68.7299 28.49 69.0899 28.4L76.9699 26.56C77.3499 26.47 77.7299 26.75 77.8199 27.17L81.1099 43.27C81.2099 43.73 80.9399 44.2 80.5099 44.27L70.5799 45.9C70.1799 45.97 69.7999 45.63 69.7599 45.16H69.7499ZM77.4999 12.64C80.6999 13.46 81.8199 15.02 80.8599 17.33C80.4599 18.3 79.3499 18.53 78.6699 17.8C77.7899 16.86 77.0999 15.53 76.5999 13.8C76.3099 12.79 76.6099 12.41 77.5099 12.64H77.4999ZM65.8299 7.95004L72.2899 11.65C72.5899 11.81 72.8199 12.14 72.8999 12.51L74.4999 19.47C74.6699 20.21 74.2699 20.96 73.6099 21.13L69.7399 22.06C69.1899 22.2 68.6399 21.86 68.4099 21.26L64.2199 9.68004C63.8099 8.53004 64.8599 7.41004 65.8299 7.97004V7.95004ZM65.1799 53.43L64.3099 70.87C64.2699 71.7 63.6699 72.35 62.9399 72.34L46.8099 72.21C46.0999 72.2 45.5199 71.57 45.4499 70.77L44.2599 53.46C44.1899 52.55 44.8199 51.77 45.6199 51.77H63.8199C64.6099 51.77 65.2299 52.52 65.1899 53.42L65.1799 53.43ZM63.5899 31.13C64.4099 35.45 64.6799 39.82 64.3899 44.27C64.3599 44.71 64.0699 45.06 63.6799 45.09C57.3999 45.75 51.1699 45.85 44.9999 45.39C44.4199 45.34 43.9999 44.75 44.0799 44.11L45.5499 31.7C45.6199 31.13 45.8999 30.83 46.3999 30.81L62.2699 29.97C62.8999 29.94 63.4599 30.43 63.5899 31.14V31.13ZM46.9699 24.82C47.4699 23.15 48.1299 21.31 48.9699 19.3C50.7799 14.98 52.1399 12.29 53.0399 11.21C55.4399 8.34004 58.0899 10.45 59.4299 13.24C60.9999 16.5 62.0299 19.79 62.4999 23.11C62.5599 23.55 62.3999 23.82 62.0099 23.91C57.2899 25.06 52.3899 25.55 47.3199 25.41C46.9699 25.4 46.8399 25.2 46.9599 24.82H46.9699ZM31.4599 20.56C32.9099 15.13 41.1199 8.95004 45.8299 8.96004C46.8699 8.96004 47.1799 9.50004 46.7199 10.59L41.2499 23.67C41.0699 24.09 40.6899 24.33 40.2999 24.29C37.3799 24.02 34.5399 23.1 31.8199 21.54C31.4599 21.33 31.3299 21.01 31.4599 20.56ZM29.0599 27.96L38.2699 30.04C39.4199 30.29 40.2199 31.5 40.1299 32.84L39.4499 43.02C39.3599 44.4 38.3599 45.46 37.1499 45.47L26.6699 45.52C25.2199 45.52 24.1199 44.03 24.3799 42.4L26.3199 30.09C26.5399 28.63 27.7799 27.67 29.0399 27.96H29.0599ZM17.7699 23.44C18.1799 22.92 18.6799 22.76 19.2599 22.98C20.3299 23.39 21.2799 24 22.1199 24.82C22.4699 25.18 22.5999 25.75 22.4199 26.24C20.3099 32.22 19.0299 38.25 18.6099 44.32C18.5699 44.95 18.2799 45.22 17.7299 45.16C14.6099 44.78 9.40988 44.36 8.53988 48.96C8.49988 49.18 8.40989 49.35 8.26989 49.48C8.17988 49.58 8.07988 49.63 7.97988 49.63C7.74988 49.64 7.64988 49.53 7.65988 49.26C8.30988 40.08 12.5499 30.27 17.7799 23.44H17.7699ZM22.5199 78.77L16.4399 84.04C16.2099 84.24 15.8799 84.2 15.6899 83.96C9.73988 76.18 5.88988 65.48 6.58988 54.97C6.67988 53.59 6.98988 52.39 7.50988 51.37C7.67988 51.03 7.93988 50.85 8.28988 50.84C11.7399 50.67 15.1199 51.05 18.4299 51.96C18.7699 52.05 18.9699 52.3 19.0099 52.7C19.8999 60.73 21.2999 68.66 23.1999 76.48C23.4099 77.34 23.1399 78.24 22.5199 78.77ZM23.6799 16.63C24.6199 15.02 25.9099 14.11 27.5499 13.9C28.2399 13.82 28.3999 14.11 28.0299 14.77L25.6399 19.03C25.3399 19.57 24.6799 19.7 24.2299 19.28L23.9999 19.06C23.3599 18.46 23.2199 17.42 23.6799 16.63ZM27.6199 94.41C26.1499 93.78 22.9599 90.2 24.1499 88.03C24.4799 87.44 25.2399 87.44 25.5599 88.04C26.2199 89.28 27.0399 91.23 28.0199 93.93C28.1999 94.44 28.0699 94.6 27.6299 94.4L27.6199 94.41ZM29.3599 76C26.4999 68.94 25.0499 60.3 24.7199 52.5C24.6999 52.14 24.9499 51.84 25.2699 51.83L38.1799 51.7C38.5599 51.69 38.8899 52.01 38.9399 52.44C39.7599 58.81 40.1799 65.16 40.2099 71.51C40.2199 71.98 39.9599 72.4 39.5699 72.56L30.1799 76.39C29.8599 76.52 29.4999 76.36 29.3599 76ZM48.1799 99.96C45.9399 100.23 43.4599 100.11 40.7199 99.64C35.0799 98.67 31.6799 93.09 30.1399 87.28C29.5399 85.05 30.2199 83.54 32.1699 82.78C35.1899 81.59 37.9799 80.78 40.5099 80.34C40.9799 80.26 41.4199 80.57 41.5599 81.07C43.4599 87.44 46.1599 93.21 48.4899 99.36C48.5899 99.64 48.4299 99.95 48.1799 99.97V99.96ZM56.8399 96.13C56.1799 96.86 55.1299 96.86 54.4699 96.13C50.4199 91.62 48.3099 84.34 47.1099 78.23C47.0499 77.94 47.2599 77.66 47.5199 77.67L62.6199 78.56C63.1999 78.59 63.5999 79.23 63.4599 79.87C62.1199 85.86 60.7199 91.8 56.8299 96.13H56.8399ZM82.0899 92C78.2999 97.5 70.9599 99.93 65.1299 100.53C64.0199 100.65 63.1799 99.4 63.5599 98.19L68.7999 81.96C68.8599 81.76 69.0299 81.64 69.2099 81.65C74.2199 82.02 80.4299 84.43 82.3399 90.09C82.5599 90.74 82.4599 91.47 82.0899 92ZM92.0299 63.76C94.8699 63.2 97.6499 63.1 100.38 63.46C100.82 63.52 101.16 63.97 101.13 64.48L101.1 65.15C101.07 65.64 100.85 65.87 100.43 65.86C97.7099 65.8 94.9199 66.17 92.0699 66.98C91.8799 67.03 91.7899 67.28 91.8999 67.48C92.0199 67.69 92.2299 67.8 92.5399 67.83C94.9599 68 97.2599 68.05 99.4799 67.99C100.04 67.98 100.29 68.28 100.26 68.9L100.22 69.51C100.2 69.91 99.9099 70.24 99.5499 70.26L91.7099 70.6C91.3599 70.61 91.0299 70.81 90.8199 71.12C90.3999 71.77 90.4799 72.22 91.0499 72.46C93.0999 73.33 95.5699 73.76 98.4499 73.77C98.7699 73.77 98.8899 73.94 98.7899 74.3L98.6499 74.81C98.5699 75.11 98.3399 75.31 98.0599 75.31C97.1799 75.3 96.2099 75.34 95.1599 75.47C94.5799 75.54 94.5799 75.62 95.1599 75.72C95.8799 75.85 96.6499 75.92 97.4699 75.91C97.7399 75.91 97.8499 76.06 97.8199 76.37L97.7399 77.11C97.7199 77.32 97.5699 77.47 97.3899 77.49L88.4499 78.39C87.3299 78.51 87.2899 78.82 88.3099 79.34C90.7899 80.58 93.3499 80.58 95.9799 79.34C96.4399 79.12 96.5199 79.25 96.2199 79.7C95.3999 81 94.4099 82.05 93.2499 82.86C92.9599 83.06 92.6399 83.15 92.2999 83.13C89.3899 82.91 86.8899 81.67 84.7999 79.41C84.5499 79.14 84.4299 78.81 84.4199 78.41C84.4199 77.68 84.4799 76.99 84.5899 76.3C86.0499 67.42 86.9699 58.41 87.3399 49.23C87.3499 48.79 87.5499 48.54 87.9399 48.48C91.8099 47.84 95.6799 47.61 99.5499 47.76C100.19 47.79 100.59 48.15 100.74 48.86L100.87 49.44C101.02 50.13 100.8 50.39 100.19 50.19C96.7499 49.09 94.0599 50.6 90.8299 50.64C90.3699 50.65 90.2299 50.89 90.3799 51.38L90.6499 52.21C90.8099 52.7 91.1199 52.95 91.5699 52.97C93.0599 53.03 94.4799 52.85 95.8699 52.47C97.5899 52 99.1199 52.28 100.46 53.34C101.03 53.79 100.97 54.07 100.29 54.2C97.8899 54.63 95.2199 54.81 92.2999 54.76C92.0299 54.75 91.7599 54.85 91.5499 55.04C90.8699 55.61 90.6799 56.14 90.9899 56.64C91.2799 57.11 91.6799 57.37 92.1799 57.4C94.4799 57.57 96.6999 57.63 98.8599 57.57C100.54 57.52 101.32 58.66 101.21 60.98C101.18 61.56 101.03 61.6 100.75 61.12C100.44 60.58 100.05 60.33 99.5899 60.39C98.4699 60.53 96.9299 60.58 94.9799 60.54C94.2399 60.53 93.5299 60.85 93.0099 61.44C92.5599 61.94 92.1199 62.45 91.6599 62.96C91.3899 63.27 91.6299 63.8 92.0099 63.74L92.0299 63.76Z" fill="black"/>
</g>
<defs>
<clipPath id="clip0_2028_327">
<rect width="110" height="110" fill="white"/>
</clipPath>
</defs>
</svg>
