<svg width="141" height="160" viewBox="0 0 141 160" fill="none" xmlns="http://www.w3.org/2000/svg">
<g clip-path="url(#clip0_2116_947)">
<path d="M123.787 20.2556C114.728 9.38846 99.8251 3.14584 85.9015 1.03485C63.7582 -2.32466 44.1057 2.50515 26.944 15.5243C22.718 18.736 18.8572 22.539 15.3784 26.9335C4.9087 40.1334 -0.0314001 55.5346 0.549788 73.1289C1.09777 89.6718 9.65784 103.011 23.4984 112.096C30.124 116.449 36.9986 119.448 44.0725 121.271C49.6602 122.717 54.9241 121.805 54.9241 123.53C54.9241 126.282 54.4011 129 53.5791 131.695C53.0975 133.272 52.4001 134.931 51.4868 136.664C50.615 138.331 49.7349 139.933 48.8549 141.477C45.7164 146.989 41.6813 151.835 36.7412 156.016C36.1102 156.55 35.6536 157.191 35.3713 157.922C35.0724 158.702 35.5539 159.556 36.3759 159.729C37.9119 160.057 39.3068 160.09 40.5522 159.827C52.1593 157.371 61.4749 151.227 68.225 141.732C70.4751 138.553 72.2518 135.654 73.5388 133.025C74.6264 130.807 75.7556 128.524 76.9429 126.183C77.441 125.189 78.1717 124.499 79.1348 124.097C80.6044 123.481 99.8168 119.357 109.049 114.609C116.206 110.93 122.383 105.993 127.606 99.89C133.028 93.5488 136.739 86.3698 138.732 78.3448C138.732 78.3448 148.097 49.4152 123.787 20.2556ZM52.5911 116.737L52.5413 117.024C52.4748 117.468 52.0514 117.772 51.603 117.706C44.3631 116.622 37.4719 114.297 30.9376 110.724C18.7244 104.055 9.65784 94.3538 6.85983 80.85C6.05447 76.9977 5.57292 73.9257 6.1375 70.3362C6.17901 70.0487 6.53603 69.9337 6.7436 70.139C6.92626 70.3115 7.03419 70.5333 7.0674 70.7961C8.03882 79.3633 10.6044 86.8462 14.7474 93.2531C20.3102 101.845 28.7789 107.472 38.078 111.513C42.0466 113.246 46.5965 114.585 51.7359 115.546C52.4084 115.669 52.699 116.072 52.5911 116.737ZM55.4887 117.969C55.2645 118.224 55.0404 118.224 54.8162 117.977C54.7083 117.854 54.6501 117.706 54.6501 117.534C54.6501 117.213 54.8079 117.057 55.1317 117.065H55.414C55.6049 117.065 55.6963 117.156 55.7046 117.345C55.7129 117.583 55.6382 117.796 55.4887 117.969ZM74.7759 117.665C73.2482 123.628 69.8524 129.608 66.5811 134.808C64.2646 138.496 61.6161 141.699 58.6354 144.434C55.2894 147.498 55.0404 147.276 57.9048 143.753C64.6549 135.448 69.952 126.306 73.7961 116.326C73.8958 116.08 74.2279 116.03 74.3856 116.244L74.5351 116.458C74.8091 116.827 74.8838 117.23 74.7759 117.665ZM73.6384 87.1502C72.9327 87.6019 72.2352 87.643 71.5378 87.2898C67.1789 85.0638 62.355 81.2115 57.0579 75.7163C52.2839 70.7633 48.9296 65.9581 46.9951 61.3008C45.0937 56.7256 44.7201 48.947 49.627 45.8996C54.7498 42.729 59.7065 42.729 64.4805 45.9078C67.0959 47.6492 69.7361 50.9019 72.0941 53.44C72.2684 53.6289 72.4262 53.7357 72.5756 53.7603C72.8745 53.8178 73.1817 53.7029 73.3561 53.4564C77.4244 47.7888 82.1071 42.4826 89.8868 44.1746C92.4108 44.725 94.337 45.8257 95.6654 47.4684C97.4007 49.6041 98.1646 51.8876 97.9404 54.3189C97.1765 62.5904 90.8997 70.7961 85.204 76.8498C81.6837 80.5872 78.1218 84.2835 73.6384 87.1502ZM121.96 98.8386C113.915 107.053 102.905 113.681 91.2899 116.54C87.8858 117.378 84.1579 118.15 80.1062 118.848C79.2925 118.988 79.0102 118.667 79.251 117.887C79.3257 117.632 79.4752 117.427 79.6911 117.271C79.8737 117.131 80.0896 117.041 80.3387 117C82.323 116.663 84.2077 115.727 85.9928 115.324C98.8122 112.441 110.818 106.535 120.391 97.5737C125.696 92.6042 129.441 88.2344 131.5 81.7043C131.533 81.6057 131.599 81.5729 131.707 81.5975H131.716C131.815 81.6304 131.849 81.6961 131.824 81.7946C130.072 88.3823 126.884 93.8117 121.96 98.8386Z" fill="black"/>
</g>
<defs>
<clipPath id="clip0_2116_947">
<rect width="140" height="160" fill="white" transform="translate(0.5)"/>
</clipPath>
</defs>
</svg>
