<svg width="135" height="150" viewBox="0 0 135 150" fill="none" xmlns="http://www.w3.org/2000/svg">
<g clip-path="url(#clip0_2023_150)">
<path d="M134.152 25.9856C133.413 14.0585 128.643 3.89236 116.409 1.29079C112.107 0.370242 106 -0.0500101 100.891 1.99657e-05C80.5329 0.25017 61.0334 0.940584 42.382 2.07126C35.9254 2.4615 29.3491 3.23196 22.633 4.39266C14.2304 5.84353 7.56425 8.7953 3.85195 16.8301C1.62657 21.653 0.409094 27.3164 0.17957 33.8103C-0.129788 42.9058 -0.0399742 51.9912 0.449012 61.0767C1.07771 72.6636 4.20123 82.1193 15.2184 87.7226C15.5178 87.8727 15.7473 88.1029 15.897 88.4031C21.5552 99.6498 27.922 108.755 35.5163 118.911C42.2124 127.867 47.9705 136.882 54.0878 145.988C55.5647 148.189 57.7302 150.76 60.235 149.8C61.0733 149.49 61.5423 148.599 61.3427 147.729C57.5905 131.129 53.7784 114.299 51.7027 97.3484C51.5231 95.9176 51.6229 94.4867 52.0121 93.0659C52.1019 92.7357 52.3114 92.5455 52.6408 92.4755C54.7963 92.0452 56.9718 91.9252 59.1772 92.1053C68.4979 92.8757 77.8186 93.6362 87.1292 94.4067C93.9251 94.967 99.1543 95.1771 102.837 95.037C107.537 94.8569 111.449 94.3066 114.572 93.396C125.939 90.064 132.395 82.4695 133.932 70.6024C134.621 65.2291 134.98 59.7959 135 54.3026C135.03 44.997 134.75 35.5614 134.152 25.9856ZM18.8608 79.7379C17.5236 80.3582 14.929 79.938 13.6017 78.9174C5.37879 72.5435 6.18711 60.1061 5.90769 50.8805C5.71808 44.927 5.76798 39.5838 6.03742 34.8609C6.07734 34.1505 6.20707 33.4701 6.41663 32.7997C6.94554 31.1287 7.50438 30.8185 8.11312 31.8691C8.39254 32.3594 8.55221 32.9098 8.56219 33.4701C8.75179 42.2454 9.09109 51.3808 9.58007 60.8866C9.92935 67.6606 11.6059 76.2057 18.7012 78.0268C20.3677 78.4471 20.4176 79.0174 18.8608 79.7379ZM31.3649 104.273C30.826 104.573 28.6605 101.671 26.505 97.7887L26.3154 97.4585C24.1698 93.5862 22.8525 90.1941 23.3814 89.904H23.3914C23.3914 89.904 23.5112 89.8839 23.5411 89.944L31.4148 104.122C31.4447 104.173 31.4248 104.243 31.3649 104.273ZM109.822 5.59338C114.253 5.39326 118.315 6.50392 121.997 8.91537C125.021 10.8966 129.531 16.3098 127.725 20.2922C126.997 21.8832 126.378 21.8431 125.869 20.1721C123.284 11.707 117.007 9.3056 109.223 7.95479C108.704 7.86474 108.335 7.41447 108.355 6.89416C108.385 6.06366 108.874 5.6334 109.822 5.59338ZM51.1738 25.3853C57.2712 25.3352 61.8417 30.9586 64.2267 36.0517C64.4163 36.4519 64.9852 36.4519 65.1748 36.0517C68.7074 28.7973 79.994 23.0038 86.5604 30.4383C88.4465 32.5696 89.2648 35.2312 89.0353 38.4431C88.4066 47.0082 80.483 55.7535 74.0763 61.7671C72.0505 63.6682 69.9549 65.2592 67.7794 66.5299C67.2804 66.8201 66.6717 66.8301 66.1727 66.56C64.4962 65.6494 62.8496 64.5588 61.2429 63.268C55.8741 58.9654 51.1339 54.5427 47.0124 50.01C44.5376 47.2984 41.7334 43.6962 40.945 40.0941C39.3583 32.8297 43.2403 25.4553 51.1738 25.3853ZM128.503 71.8531C125.779 85.8615 113.495 88.8433 101.07 88.5632C88.3268 88.273 75.6131 87.5125 62.9294 86.2818C56.6824 85.6714 50.9343 85.6114 44.8669 85.5714C44.5476 85.5714 44.2681 85.8015 44.2083 86.1217C43.9787 87.3824 43.9787 88.7733 44.1883 90.3042C45.9846 103.542 49.637 117.16 52.042 129.808C52.3214 131.279 51.9921 131.429 51.0441 130.268C50.6549 129.788 50.2457 128.917 49.8266 127.657C45.0864 113.428 39.8872 99.2496 39.0589 84.3606C38.9691 82.6496 39.8573 81.8691 41.7234 82.0092C49.2478 82.5495 56.7822 82.8197 64.1669 83.4001C75.7928 84.3106 87.0195 84.8409 97.847 85.011C109.523 85.1911 121.398 84.8009 125.42 71.573C125.929 69.922 126.348 68.271 126.677 66.64C126.767 66.1897 127.306 65.9796 127.675 66.2598C129.132 67.3304 128.803 70.3022 128.503 71.8531ZM129.98 57.7347C129.98 58.3951 129.451 58.9254 128.793 58.9254H128.733C128.074 58.9254 127.545 58.3951 127.545 57.7347L127.575 38.5031C127.575 37.8427 128.104 37.3124 128.763 37.3124H128.823C129.481 37.3124 130.01 37.8427 130.01 38.5031L129.98 57.7347Z" fill="black"/>
</g>
<defs>
<clipPath id="clip0_2023_150">
<rect width="135" height="150" fill="white"/>
</clipPath>
</defs>
</svg>
