<svg width="116" height="140" viewBox="0 0 116 140" fill="none" xmlns="http://www.w3.org/2000/svg">
<g clip-path="url(#clip0_2209_75)">
<path d="M114.143 14.9051C111.775 6.53755 105.51 1.4478 96.9888 0.200401C93.4697 -0.309485 89.6557 0.16398 85.5377 1.61169C73.156 5.98214 65.1964 15.1237 58.5357 26.1135C58.1212 26.7964 57.6145 26.8692 57.0157 26.332C56.6748 26.0316 56.38 25.6947 56.1313 25.3214C49.0192 14.7868 36.1677 2.6952 23.132 2.85909C13.1917 2.98656 6.33755 7.50269 2.56963 16.4166C-1.03247 24.9298 0.377044 35.1731 3.79489 43.5134C7.94053 53.6109 12.7863 63.6903 18.323 73.7605C31.1377 97.0422 43.2245 117.729 54.602 135.821C57.1446 139.873 61.0139 142.304 64.2291 136.777C78.7941 111.711 91.5995 87.4637 102.664 64.0363C106.367 56.1786 109.619 48.0932 112.411 39.7985C115.303 31.2033 116.639 23.7189 114.143 14.9051ZM96.2334 22.8175C96.823 22.4351 97.514 22.4351 98.3154 22.8084C98.7853 23.0269 99.0064 23.5732 98.8129 24.0558C98.3707 25.1666 97.514 25.9496 96.2518 26.414C95.8557 26.5597 95.4503 26.2592 95.4688 25.8495C95.5148 24.7933 95.2108 23.4912 96.2334 22.8175ZM90.9638 7.24775C92.1983 6.38276 93.5894 6.21887 94.0593 6.87444C94.5199 7.53001 93.9026 8.7683 92.6682 9.63328C91.4337 10.4983 90.0426 10.6622 89.5728 10.0066C89.1121 9.35102 89.7294 8.11273 90.9638 7.24775ZM94.2067 33.5342L94.1514 35.4189C94.1329 36.1564 93.3223 36.5935 92.6774 36.2202L91.2494 35.3916C90.798 35.1185 90.6322 34.5448 90.8994 34.0896L91.7838 32.5144C92.0878 31.9863 92.8156 31.8588 93.2762 32.2686L93.875 32.7784C94.0869 32.9697 94.2159 33.2428 94.2067 33.5342ZM88.9647 41.1916C89.6465 41.6013 89.5083 43.0763 88.6515 44.4876C87.7947 45.908 86.551 46.7366 85.8693 46.3359C85.1876 45.9262 85.3258 44.4512 86.1825 43.0399C87.0393 41.6195 88.283 40.7909 88.9647 41.1916ZM85.6021 17.4819L86.0536 17.409C86.6432 17.318 87.2696 18.1557 87.4447 19.2665L87.5276 19.7946C87.5644 20.0586 87.3894 20.3045 87.1222 20.3409L85.4824 20.5958C85.2152 20.6322 84.9665 20.4501 84.9204 20.1952L84.8375 19.6671C84.6625 18.5472 85.0033 17.5729 85.6021 17.4819ZM81.8158 27.0969C82.7923 27.0969 83.5846 27.8799 83.5846 28.845C83.5846 29.8102 82.7923 30.5932 81.8158 30.5932C80.8393 30.5932 80.047 29.8102 80.047 28.845C80.047 27.8799 80.8393 27.0969 81.8158 27.0969ZM83.5846 56.9616C83.5846 57.5807 83.0687 58.0906 82.4423 58.0906C81.8158 58.0906 81.2999 57.5807 81.2999 56.9616C81.2999 56.3424 81.8158 55.8326 82.4423 55.8326C83.0687 55.8326 83.5846 56.3424 83.5846 56.9616ZM76.2975 37.5859C76.3251 37.2035 76.5186 36.9577 76.8963 36.8575C77.3661 36.7301 77.8268 36.8029 78.269 37.0852C78.5914 37.2946 78.7572 37.5859 78.7572 37.9683C78.748 39.4707 77.965 40.281 76.3988 40.3812C76.2238 40.3812 76.1317 40.2993 76.1409 40.1263L76.2975 37.5859ZM63.1881 37.7407C63.9435 35.5646 65.1043 33.9803 65.7676 34.2079C66.4309 34.4356 66.348 36.3841 65.5925 38.5602C64.8371 40.7363 63.6763 42.3206 63.013 42.093C62.3497 41.8653 62.4326 39.9168 63.1881 37.7407ZM57.0802 73.2142L57.2644 66.7314C57.2736 66.4036 57.55 66.1486 57.8817 66.1577L59.4294 66.2033C59.761 66.2124 60.019 66.4855 60.0097 66.8042L59.8255 73.287C59.7334 76.5193 59.1069 79.1234 58.416 79.1052H58.158C57.4763 79.0779 56.988 76.4465 57.0802 73.2142ZM53.257 83.6395L53.7636 85.9522C53.8281 86.2072 53.6623 86.4621 53.4044 86.5167L52.7871 86.6442C51.9764 86.8172 51.1657 86.28 50.9815 85.4423L50.9354 85.2511C50.7512 84.4044 51.2578 83.5849 52.0778 83.4028L52.6858 83.2753C52.9437 83.2207 53.2017 83.3846 53.257 83.6395ZM49.922 36.0381C50.6775 35.8195 51.7 37.0487 52.2067 38.7787C52.7134 40.5087 52.5107 42.0839 51.7461 42.3024C50.9907 42.5209 49.9681 41.2917 49.4614 39.5617C48.9547 37.8318 49.1574 36.2566 49.922 36.0381ZM42.3217 25.1848C43.0218 24.8479 44.1826 25.7675 44.9104 27.2334C45.6474 28.7085 45.675 30.1744 44.9749 30.5113C44.2747 30.8482 43.114 29.9285 42.3862 28.4626C41.6492 26.9876 41.6215 25.5217 42.3217 25.1848ZM43.3443 73.1322C42.7547 73.2051 42.2019 72.6133 42.0914 71.8211C41.99 71.029 42.3862 70.3279 42.985 70.255C43.5746 70.1822 44.1273 70.774 44.2379 71.5662C44.3392 72.3583 43.9431 73.0594 43.3443 73.1322ZM36.2598 37.3401L36.3428 37.3037C36.8863 37.0396 37.5496 37.2582 37.826 37.7954L40.166 42.439C40.4423 42.9853 40.212 43.6408 39.6685 43.9049L39.5856 43.9413C39.042 44.2053 38.3787 43.9868 38.1024 43.4496L35.7624 38.806C35.486 38.2597 35.7163 37.6041 36.2598 37.3401ZM108.652 28.8541C108.56 30.3747 108.348 31.9135 108.025 33.4795C106.561 40.536 103.189 48.6395 100.011 55.6778C89.1305 79.7425 76.2606 104.117 61.3824 128.81C60.8573 129.693 60.4243 130.631 60.0835 131.623C59.9361 132.07 59.7334 132.088 59.4846 131.696C43.3535 106.703 28.5029 81.1903 14.9328 55.1406C11.9203 49.3497 9.70934 43.4223 7.98659 37.2673C7.22195 34.5175 6.84424 32.0045 6.85345 29.7373C6.86267 28.4717 7.20353 28.3807 7.85762 29.4642C9.98571 32.9514 12.252 36.4023 14.6565 39.8167C24.4033 53.6655 33.0078 67.2959 40.4792 80.7077C45.1868 89.1572 50.2168 97.3882 55.4127 105.592C56.509 107.331 57.6421 108.842 58.7937 110.126C59.0424 110.399 59.3004 110.418 59.5768 110.172C60.1387 109.671 60.5717 109.161 60.8757 108.624C74.0036 85.415 82.4238 70.8195 86.1457 64.8375C93.7829 52.5638 101.125 40.5178 108.173 28.7085C108.532 28.1075 108.689 28.1531 108.652 28.8541Z" fill="black"/>
<path d="M42.4783 93.7189C41.815 94.1013 36.1493 85.7519 29.8295 75.0625C23.5098 64.3732 18.9219 55.3955 19.5944 55.0131C20.2577 54.6307 25.9234 62.9801 32.2432 73.6695C38.563 84.3589 43.1509 93.3365 42.4783 93.7189Z" fill="black"/>
<path d="M66.6705 111.583C66.3573 112.129 65.6479 112.321 65.0859 112.011L65.0583 111.993C64.5055 111.683 64.3121 110.982 64.6253 110.427L77.7716 87.7367C78.0848 87.1904 78.7942 86.9992 79.3561 87.3088L79.3838 87.327C79.9365 87.6366 80.13 88.3377 79.8168 88.8931L66.6705 111.583Z" fill="black"/>
</g>
<defs>
<clipPath id="clip0_2209_75">
<rect width="115" height="140" fill="white" transform="translate(0.460022)"/>
</clipPath>
</defs>
</svg>
