<svg width="136" height="121" viewBox="0 0 136 121" fill="none" xmlns="http://www.w3.org/2000/svg">
<g clip-path="url(#clip0_2243_493)">
<path d="M100.296 1.73069C100.296 2.29449 99.8395 2.74755 99.2737 2.74755L95.4328 2.70728C94.867 2.70728 94.4204 2.23408 94.4303 1.67028V1.5696C94.4303 1.00579 94.8968 0.552734 95.4526 0.552734L99.2936 0.593006C99.8593 0.593006 100.306 1.0662 100.296 1.63001V1.73069Z" fill="black"/>
<path d="M78.2426 6.9163C78.7885 5.78869 79.5725 4.77183 80.6047 3.86571C80.7933 3.70462 80.9918 3.54354 81.1903 3.39252C83.5525 1.66083 84.7236 1.66083 84.7137 3.39252C84.7137 3.86571 84.4755 4.28857 84.0785 4.5302C82.0935 5.72828 80.4062 7.28882 79.0068 9.19166C78.6098 9.72526 78.2724 9.69506 78.0044 9.07085C77.9647 8.9903 77.9349 8.88962 77.9349 8.78894C77.8654 8.08419 77.9647 7.45997 78.2327 6.89617L78.2426 6.9163Z" fill="black"/>
<path d="M55.157 10.903C54.5714 11.4164 52.6559 10.1177 50.8893 8.02352C49.1226 5.91931 48.1599 3.80504 48.7554 3.30164C49.341 2.78818 51.2565 4.08694 53.0231 6.18108C54.7898 8.28528 55.7525 10.3996 55.157 10.903Z" fill="black"/>
<path d="M38.9892 8.62763C38.2845 9.33239 37.0538 9.23171 36.24 8.39607C35.4261 7.56043 35.3368 6.312 36.0415 5.60725C36.7461 4.90249 37.9768 5.00317 38.7907 5.83881C39.6045 6.67445 39.6939 7.92288 38.9892 8.62763Z" fill="black"/>
<path d="M66.6998 5.2041C66.8983 5.2041 67.1067 5.24437 67.3152 5.34505C67.7916 5.54641 68.129 5.9894 68.1886 6.51294C68.7047 11.0032 68.7146 15.5942 68.2481 20.2658C68.2183 20.5879 67.9206 20.8195 67.603 20.7591L67.3449 20.7188C67.1266 20.6786 66.9479 20.4973 66.9182 20.2658L65.5386 6.50287C65.4592 5.63702 65.8463 5.2041 66.6998 5.2041Z" fill="black"/>
<path d="M102.221 72.8609C103.7 72.0957 105.397 71.2097 107.333 70.2231C118.548 64.4642 124.186 52.6243 120.801 40.3615C118.101 30.5855 110.588 21.5143 100.127 20.9505C97.5368 20.8095 94.7082 21.3129 91.6414 22.4506C82.9967 25.6623 78.2823 32.4179 77.4784 42.7375C77.3692 44.2175 77.0219 44.2779 76.4264 42.9087C75.7614 41.3481 75.7316 39.848 76.0194 38.1365C77.528 29.2062 82.4608 23.0144 90.8176 19.5812C106.201 13.2585 120.206 24.6454 124.275 39.1735C127.352 50.1677 123.947 61.776 115.184 69.1156C113.814 70.2633 112.127 71.4413 110.122 72.6394C105.169 75.6195 99.3928 76.8679 94.341 79.7574C87.056 83.9457 82.1035 90.0972 79.4833 98.2523C78.3419 101.776 77.399 104.766 77.1211 108.169C77.0814 108.632 76.9921 109.055 76.8333 109.438C76.1683 111.079 75.5133 111.069 74.8681 109.418C71.3944 100.497 66.4815 93.5102 57.6681 89.0099C55.8022 88.0635 51.2069 86.06 43.9021 83.0094C39.416 81.1267 34.5924 78.2069 29.4414 74.2301C24.2803 70.2331 20.3897 65.2193 17.7894 59.1684C13.0552 48.1944 14.1965 34.361 22.2159 25.2696C28.5183 18.1214 38.7212 14.8392 47.9714 17.628C57.3604 20.4672 63.6132 29.7297 66.7792 38.5996C67.0373 39.3346 67.2358 39.3144 67.3648 38.5493C69.3895 26.3872 78.1335 15.5138 89.0807 11.104C96.7825 8.01314 105.745 8.16416 113.079 11.4564C115.283 12.443 122.439 16.4199 120.126 19.6215C119.779 20.0947 119.074 20.1048 118.717 19.6416C116.682 17.0038 114.082 15.0909 110.916 13.913C103.274 11.0537 95.9886 11.2248 89.0609 14.4466C74.9376 21.0109 70.2034 35.1362 68.0794 49.6139C67.9603 50.4093 67.5335 50.7113 66.7892 50.51C66.3425 50.3892 65.9952 50.0368 65.8661 49.5938C64.3079 44.1068 63.1368 38.7506 60.6456 33.6864C57.1421 26.5986 51.2168 21.3129 43.3264 20.2256C37.1729 19.3899 30.8011 21.9975 26.0867 26.2462C23.8734 28.2397 22.0968 31.0889 20.747 34.7738C13.8591 53.7015 26.0867 69.7599 42.4034 77.4921C46.7903 79.5661 51.8024 81.8314 57.4497 84.2779C62.6504 86.5231 67.0671 89.7247 70.7195 93.8727C70.8882 94.064 70.9874 94.0338 71.0271 93.7821C72.5358 85.9291 78.0441 77.8948 83.8205 72.9817C86.53 70.6761 89.4877 68.5518 92.6934 66.5986C95.6312 64.8065 99.4623 62.5513 104.167 59.8329C104.316 59.7423 104.514 59.8531 104.514 60.0242V60.2658C104.554 60.6484 104.375 61.0008 104.077 61.2122C95.9489 66.7798 90.8573 70.3137 88.7929 71.8239C82.3516 76.5659 77.5677 82.6469 74.4513 90.067C73.9253 91.3255 73.4985 92.6142 73.1908 93.923C72.7442 95.7957 73.3992 97.326 74.4513 98.7456C74.6498 99.0174 74.8185 98.9973 74.9376 98.665C75.5331 97.1045 76.1584 95.5339 76.8234 93.9532C81.4583 82.9288 89.8946 77.5324 99.9486 70.2835C101.388 69.2465 103.591 67.253 106.529 64.3132C110.737 60.1048 113.457 55.1312 114.707 49.4025C115.501 45.7277 115.293 41.5294 114.995 37.6431C114.975 37.2606 115.372 36.9988 115.7 37.18C115.987 37.3411 116.186 37.5827 116.275 37.915C119.233 48.6273 115.61 59.0778 107.859 66.5784C105.735 68.6424 103.75 70.5754 101.914 72.3877C101.05 73.2434 101.15 73.3945 102.231 72.8307L102.221 72.8609Z" fill="black"/>
<path d="M23.804 13.2188C23.01 13.6517 21.948 13.1987 21.422 12.212C20.9059 11.2253 21.1242 10.0776 21.9182 9.64468C22.7122 9.21176 23.7742 9.66482 24.3002 10.6515C24.8163 11.6381 24.598 12.7859 23.804 13.2188Z" fill="black"/>
<path d="M12.1818 22.5512C11.5664 23.1552 10.3953 22.9237 9.54171 22.0478C8.69808 21.1719 8.49958 19.9637 9.11493 19.3596C9.73028 18.7555 10.9014 18.9871 11.755 19.863C12.5986 20.7389 12.7971 21.9471 12.1818 22.5512Z" fill="black"/>
<path d="M129.307 29.3171C128.691 30.0823 127.431 30.0823 126.478 29.3071C125.525 28.5318 125.257 27.2733 125.863 26.5082C126.478 25.743 127.739 25.743 128.691 26.5182C129.644 27.2935 129.912 28.552 129.307 29.3171Z" fill="black"/>
<path d="M30.4438 35.1566C30.2949 35.4989 30.0666 35.7305 29.7689 35.8613C29.2131 36.0828 28.6374 35.5794 28.7764 34.9955C29.9574 29.881 35.7537 26.5485 40.4383 26.3975C40.6169 26.3975 40.7956 26.4377 40.9544 26.5283C41.5598 26.8807 41.8079 27.2432 41.6789 27.5855C41.5499 27.9278 41.3017 28.1191 40.9444 28.1594C36.7362 28.552 32.2303 31.0388 30.4438 35.1667V35.1566Z" fill="black"/>
<path d="M100.435 32.6091C100.117 32.4782 99.8394 32.3272 99.5814 32.1661C98.4102 31.4211 98.4995 30.9278 99.8692 30.6962C103.551 30.0821 106.449 32.8608 108.186 35.8913C112.047 42.6267 110.38 50.077 104.385 54.7385C100.058 58.1012 93.0705 59.5711 89.7457 54.1747C89.3685 53.5605 89.3586 52.8055 89.706 52.1812L89.9243 51.7987C90.1526 51.4161 90.6786 51.3657 90.9565 51.698C93.7057 54.9298 96.8917 55.554 100.494 53.5706C106.291 50.3891 108.355 43.4624 105.308 37.5324C104.097 35.1664 102.46 33.5253 100.425 32.6192L100.435 32.6091Z" fill="black"/>
<path d="M3.1897 35.3178L2.80263 34.4318C2.60413 33.9888 2.753 33.4552 3.15 33.1834L4.02341 32.5693C4.35093 32.3377 4.78763 32.3276 5.12508 32.5391L7.53686 34.0694C8.39041 34.6131 8.00333 35.9622 6.99098 35.9521L4.10281 35.932C3.7058 35.932 3.3485 35.6903 3.19963 35.3178H3.1897Z" fill="black"/>
<path d="M135.172 40.03C135.222 41.0871 134.259 42.0033 133.029 42.0536C131.788 42.114 130.746 41.3086 130.696 40.2515C130.647 39.1943 131.609 38.2781 132.84 38.2278C134.081 38.1674 135.123 38.9728 135.172 40.03Z" fill="black"/>
<path d="M7.91396 48.1547C7.88419 48.638 7.47726 49.0004 7.01079 48.9702L1.30391 48.6279C0.837432 48.5977 0.470207 48.195 0.499982 47.7117L0.529757 47.2587C0.559532 46.7754 0.966457 46.413 1.43293 46.4432L7.13981 46.7855C7.60629 46.8157 7.97352 47.2184 7.94374 47.7017L7.91396 48.1547Z" fill="black"/>
<path d="M135.053 51.6978C135.748 52.5133 135.609 53.802 134.736 54.5772C133.852 55.3525 132.582 55.3223 131.877 54.5067C131.183 53.6912 131.322 52.4025 132.195 51.6273C133.078 50.8521 134.349 50.8823 135.053 51.6978Z" fill="black"/>
<path d="M10.2265 58.4434C10.4746 59.1884 9.10499 60.306 7.19939 60.9503C5.28386 61.5947 3.52714 61.5141 3.28894 60.7691C3.04081 60.0241 4.41046 58.9065 6.31607 58.2622C8.23159 57.6178 9.98832 57.6984 10.2265 58.4434Z" fill="black"/>
<path d="M132.453 65.5415C132.453 66.6691 131.55 67.5753 130.438 67.5753C129.327 67.5753 128.433 66.6591 128.433 65.5415C128.433 64.424 129.337 63.5078 130.438 63.5078C131.54 63.5078 132.453 64.424 132.453 65.5415Z" fill="black"/>
<path d="M15.1791 70.4249C15.6356 71.0994 15.0798 72.2875 13.9385 73.0728C12.807 73.8581 11.5068 73.9487 11.0602 73.2741C10.6037 72.5996 11.1595 71.4115 12.3008 70.6262C13.4323 69.8409 14.7325 69.7503 15.1791 70.4249Z" fill="black"/>
<path d="M124.573 76.6467C124.592 77.6737 123.659 78.5294 122.478 78.5596C121.297 78.5898 120.315 77.7844 120.295 76.7575C120.275 75.7305 121.208 74.8748 122.389 74.8446C123.57 74.8144 124.553 75.6198 124.573 76.6467Z" fill="black"/>
<path d="M23.2878 82.5972C19.8836 82.3959 15.5364 83.151 14.1271 86.7553C14.0278 86.9869 14.0278 87.2285 14.1171 87.4701C15.3875 91.0241 21.2929 90.2791 24.0521 89.7253C24.4888 89.6448 24.9354 89.8965 25.0843 90.3194C25.3225 90.9939 25.114 91.4772 24.459 91.7691C21.7098 92.9874 18.9208 93.3397 16.1021 92.8363C13.6308 92.3833 11.1198 90.3898 11.0106 87.6513C10.8717 84.2081 14.3653 81.6005 17.3527 80.7145C19.1293 80.1809 20.8959 79.9292 22.6626 79.9494C23.5062 79.9494 24.0223 80.3823 24.2307 81.2079C24.2506 81.2783 24.2605 81.3488 24.2704 81.4193C24.4689 82.2549 24.1414 82.6476 23.3077 82.5872L23.2878 82.5972Z" fill="black"/>
<path d="M100.762 87.9732C107.194 87.5604 109.834 95.2825 104.723 99.2997C100.693 102.461 94.9166 103.236 90.5596 99.8534C89.835 99.2896 89.5571 98.5345 89.7358 97.6183L89.7854 97.3364C89.974 96.39 90.4206 96.239 91.1352 96.8733C94.2715 99.6822 97.7651 100.075 101.626 98.0512C103.512 97.0545 104.375 95.5242 104.206 93.4703C104.058 91.648 102.728 89.7351 100.812 90.319C99.6707 90.6714 98.9958 91.9802 98.3209 92.9367C97.8941 93.5408 96.981 93.4703 96.6634 92.7958C95.2342 89.8257 98.4698 86.5536 100.842 85.3153C104.762 83.2513 108.941 82.9493 113.367 84.4092C119.273 86.3523 125.059 89.715 127.977 95.3933C128.701 96.8028 128.761 98.1418 128.165 99.4003C128.106 99.5312 128.036 99.642 127.957 99.7527C127.292 100.669 125.903 100.528 125.436 99.501C122.081 92.242 116.583 87.7618 108.951 86.0804C105.953 85.426 103.144 85.7683 100.544 87.1275C99.3134 87.7718 99.3829 88.0538 100.772 87.9631L100.762 87.9732Z" fill="black"/>
<path d="M38.4334 85.6067C38.7609 85.5866 39.0487 85.8383 39.0686 86.1605V86.382C39.1579 87.4995 37.8478 88.5063 36.1506 88.6171L35.7536 88.6372C34.0664 88.7479 32.6372 87.9425 32.5578 86.8149L32.5379 86.5934C32.5181 86.2612 32.7662 85.9793 33.0838 85.9491L38.4234 85.5967L38.4334 85.6067Z" fill="black"/>
<path d="M49.1524 92.2723C53.1224 94.4571 55.7227 97.3768 56.9733 101.052C57.1519 101.575 57.0825 102.149 56.7748 102.592C56.7152 102.673 56.6358 102.753 56.5564 102.824C56.2885 103.045 55.8915 102.954 55.7426 102.642C53.5988 98.2527 50.5717 96.1082 46.8597 93.3093C45.9665 92.6348 46.0657 92.1817 47.1475 91.9401C47.8125 91.7991 48.4775 91.8998 49.1425 92.2623L49.1524 92.2723Z" fill="black"/>
<path d="M63.2162 106.77C62.7795 105.642 62.3924 104.494 62.0649 103.337C61.9755 103.014 62.1641 102.672 62.4817 102.602C62.8489 102.511 63.2062 102.672 63.5536 103.075C67.2854 107.475 67.6824 114.623 66.2036 119.969C66.1043 120.341 65.757 120.583 65.3798 120.533L65.1317 120.513C64.4667 120.432 64.1888 120.06 64.298 119.385C65.0523 114.784 64.695 110.575 63.2261 106.77H63.2162Z" fill="black"/>
</g>
<defs>
<clipPath id="clip0_2243_493">
<rect width="135" height="120" fill="white" transform="translate(0.5 0.542969)"/>
</clipPath>
</defs>
</svg>
