<svg width="105" height="120" viewBox="0 0 105 120" fill="none" xmlns="http://www.w3.org/2000/svg">
<g clip-path="url(#clip0_2013_33)">
<path d="M104.27 23.6183C104.131 21.0396 103.864 18.4608 103.466 15.9007C102.126 7.08459 97.1001 2.05744 88.387 0.819266C84.2569 0.232765 80.9583 -0.0372119 78.4728 2.62849e-05C67.6716 0.232765 52.8881 0.772718 34.1222 1.63851C25.8804 2.0202 20.0224 2.58808 16.5575 3.34215C6.58791 5.51128 0.850051 14.1785 0.351107 23.7021C-0.147838 33.0955 -0.120118 44.6207 0.425024 58.2591C0.692976 64.8782 1.26584 70.7898 2.14361 75.9752C3.31705 82.855 6.61563 89.1296 13.6193 91.429C21.7872 94.1102 29.9921 93.6075 39.3611 93.4585C41.7635 93.4213 43.057 94.4453 44.175 96.391C48.4715 103.82 52.537 111.556 56.3622 119.6C56.5562 120.019 57.0921 120.13 57.4432 119.832C58.0346 119.339 58.552 118.669 58.9863 117.84C61.4533 113.158 64.0404 108.531 66.7476 103.978C69.4918 99.3608 72.5779 93.8681 76.1536 93.2072C79.6185 92.5648 85.2732 92.2669 88.8675 91.2335C96.7305 88.9899 101.572 83.5811 103.411 74.9977C103.734 73.4709 104.03 71.9349 104.289 70.3895C104.52 68.9558 104.667 67.4011 104.723 65.7254C105.194 51.6866 105.046 37.6478 104.27 23.6183ZM100.399 38.495C100.463 38.7836 100.214 39.0443 99.9274 38.9884L93.5797 37.8433C93.1177 37.7595 92.8036 37.5082 92.628 37.0706L92.3601 36.4003C92.1383 35.8511 92.3139 35.6649 92.8775 35.8418C94.4667 36.3352 96.3054 36.5958 98.3844 36.6424C99.0127 36.661 99.5209 36.9217 99.8997 37.4244C100.149 37.7502 100.315 38.104 100.399 38.495ZM99.872 44.8813L98.3104 43.2429C98.1811 43.1125 98.0055 43.038 97.83 43.0287C96.1114 42.9636 95.0211 42.7681 94.5591 42.4609C91.9997 40.7386 92.2862 40.0404 95.4369 40.3755C96.1761 40.4593 97.4696 40.8689 99.3268 41.623C99.6317 41.744 99.8165 41.9674 99.8627 42.2933L100.242 44.6951C100.306 45.1513 100.186 45.2072 99.872 44.8813ZM99.8627 33.0861L99.8073 33.3934C99.7149 33.8681 99.2621 34.1847 98.7817 34.0916L93.0069 32.9744C92.5264 32.8813 92.2122 32.4159 92.3139 31.9411L92.3693 31.6339C92.4617 31.1591 92.9145 30.8425 93.3949 30.9356L99.1697 32.0528C99.6502 32.1459 99.9644 32.6114 99.8627 33.0861ZM95.5663 27.4259C96.3978 27.8635 97.3957 28.0124 98.5507 27.8914C98.8741 27.8635 99.1605 28.0869 99.1975 28.4034L99.2714 28.9527C99.2991 29.1854 99.2067 29.2785 98.9757 29.2413C97.137 28.9341 95.1967 28.841 93.1639 28.9527C92.8405 28.9713 92.6096 28.841 92.471 28.5524C92.2954 28.1893 92.2954 27.8356 92.4894 27.4911C92.628 27.2397 92.8867 27.0536 93.2748 26.9232C95.0581 26.3367 96.943 26.104 98.911 26.225C99.1513 26.2343 99.2806 26.5136 99.1328 26.7091C98.6708 27.3235 97.5251 27.4352 95.6956 27.0536C94.7809 26.8581 94.7347 26.9884 95.5663 27.4259ZM98.8925 23.3297C99.0311 23.3297 99.1328 23.4508 99.1235 23.5811L99.0958 24.4934C99.0958 24.6331 98.9849 24.7355 98.8464 24.7262L91.9351 24.4934C91.7965 24.4934 91.6948 24.3724 91.7041 24.2421L91.7318 23.3297C91.7318 23.1901 91.8427 23.0877 91.9813 23.097L98.8925 23.3297ZM97.9778 18.9449L97.9963 19.3173C97.9963 19.4942 97.8577 19.6432 97.6822 19.6525L91.7041 19.8945C91.5285 19.9038 91.3807 19.7642 91.3714 19.578L91.353 19.2056C91.353 19.0287 91.4915 18.8798 91.6671 18.8705L97.6452 18.6284C97.8207 18.6191 97.9686 18.7588 97.9778 18.9449ZM95.1782 12.5772L95.3353 12.8844C95.4923 13.1823 95.4184 13.3965 95.1043 13.5175L92.8313 14.4298C92.3601 14.6253 92.3231 14.8674 92.7389 15.1653L93.1824 15.4911C93.284 15.5749 93.4226 15.5935 93.552 15.5563L95.3075 15.0442C95.6125 14.9605 95.8804 15.0163 96.1206 15.2304C96.7212 15.7704 97.0354 16.4221 97.0538 17.1947C97.0631 17.5206 96.906 17.6509 96.5826 17.5858C95.7141 17.4089 94.9287 17.0644 94.2357 16.571C93.9678 16.3755 93.6906 16.3569 93.4042 16.5058L92.3878 17.0179C92.0829 17.1668 91.8519 17.0923 91.6948 16.7944C91.5839 16.5989 91.6024 16.3383 91.7503 16.0311C92.1014 15.2956 92.3324 14.6812 92.434 14.1692C92.4987 13.8806 92.628 13.6385 92.8405 13.443C93.3303 12.9682 93.9031 12.5958 94.5499 12.3445C94.7901 12.2514 95.0581 12.3445 95.1782 12.5772ZM91.6486 6.99149C93.0715 7.94107 93.4504 9.03959 92.7759 10.2964C92.4063 10.9946 92.1938 10.948 92.1383 10.1567L92.0182 8.4624C91.9905 8.14588 91.8611 7.88521 91.6301 7.6804C91.4546 7.53145 91.3622 7.36387 91.3345 7.18699C91.2883 6.87978 91.3899 6.81461 91.6486 6.99149ZM80.524 5.29716C80.9583 5.06442 81.4018 5.13889 81.8545 5.52059C82.1964 5.80918 82.4182 6.18156 82.5198 6.61911C82.9725 8.59273 83.49 10.6688 84.0905 12.8379C85.033 16.2638 84.6542 16.4221 82.9541 13.3034C82.4921 12.4562 82.0855 11.2739 81.7437 9.74712C81.6882 9.51438 81.7067 9.29095 81.7899 9.06752C81.8176 8.98374 81.8453 8.90926 81.8638 8.82547C81.8915 8.71376 81.8823 8.61135 81.8361 8.50895C81.4388 7.56869 80.9768 6.56325 80.4593 5.49266C80.4316 5.41818 80.4593 5.33439 80.524 5.29716ZM80.0343 6.58187C80.4501 7.2894 80.8197 8.09002 81.1246 8.99304C81.2078 9.20716 81.1431 9.38405 80.949 9.50507L80.5702 9.75643C80.4963 9.80297 80.4778 9.86814 80.5148 9.95193C81.18 11.6463 81.6513 13.3778 81.9285 15.156C81.9469 15.2677 81.9007 15.3422 81.7991 15.3701L81.5496 15.4446C81.2817 15.519 81.1061 15.4259 81.023 15.1653C80.4039 13.3778 80.062 11.5346 79.9789 9.6354C79.9696 9.31888 79.868 9.03028 79.6924 8.77893C79.2951 8.20173 79.0457 7.61523 78.9255 7.01011C78.4913 4.7572 78.8609 4.61756 80.0343 6.58187ZM75.1927 4.44999C75.8302 4.59894 76.283 4.97132 76.5602 5.57644C77.6967 8.04347 78.713 11.1342 79.6001 14.8301C79.6832 15.1746 79.5538 15.3049 79.212 15.2397L78.8516 15.1746C78.5282 15.1094 78.2603 14.8767 78.1494 14.5508L74.8508 4.83168C74.7307 4.50585 74.8508 4.37551 75.1927 4.44999ZM73.0768 5.39025C74.8508 8.23897 75.9411 11.4135 76.3384 14.9232C76.3569 15.1094 76.2738 15.2118 76.0797 15.2211C75.7009 15.2397 75.3683 15.1373 75.0633 14.9232C74.8231 14.7557 74.6476 14.4764 74.5275 14.0761C74.0655 12.5307 74.1671 11.1715 73.5296 9.69126C72.9197 8.24828 72.6148 6.86116 72.6241 5.51128C72.6333 4.9527 72.7811 4.91546 73.0768 5.39025ZM69.7228 5.28785L70.85 4.97132C70.9886 4.93408 71.1272 5.01787 71.1642 5.15751L71.2104 5.30647C72.661 10.5012 73.5942 14.7743 73.2986 14.8581L72.7442 15.0163C72.4485 15.1001 71.0348 10.9574 69.5934 5.76263L69.5472 5.61368C69.5103 5.47404 69.5842 5.33439 69.7228 5.28785ZM66.7846 5.08304L68.0689 5.91159C68.1613 5.96744 68.2352 6.06054 68.2629 6.17225L70.5544 14.6439C70.6375 14.9512 70.3881 15.2491 70.0739 15.2025L69.1777 15.1001C69.0021 15.0722 68.8543 14.9512 68.8081 14.7836L66.1193 5.58575C66.0084 5.18544 66.4427 4.85961 66.7846 5.08304ZM62.8669 5.29716C63.3844 5.27854 63.8371 5.46473 64.2344 5.86504C64.3822 6.01399 64.5024 6.20018 64.5763 6.40499C65.5465 9.09545 66.221 11.9349 66.6183 14.9418C66.6922 15.5377 66.4704 15.6959 65.9438 15.4073L65.4448 15.128C65.1122 14.9512 64.8904 14.6067 64.8535 14.225C64.6225 11.758 63.8279 8.99304 62.4696 5.9302C62.3403 5.6323 62.5528 5.30647 62.8669 5.29716ZM60.5663 5.52989L60.6217 5.51128C60.9358 5.42749 61.2685 5.61368 61.3609 5.9302L63.6061 14.0388C63.6985 14.3647 63.5045 14.6905 63.1903 14.7836L63.1349 14.8022C62.8207 14.886 62.4881 14.6998 62.3957 14.3833L60.1505 6.27466C60.0581 5.94882 60.2521 5.62299 60.5663 5.52989ZM57.0367 5.46473L57.434 5.25992C57.7204 5.12027 58.0623 5.25992 58.1732 5.54851L61.5641 14.5974C61.7951 15.2304 61.6103 15.4166 60.9913 15.1467C60.363 14.8767 60.0304 14.3181 59.9842 13.4802C59.9749 13.173 59.8918 12.8937 59.7439 12.6238L56.6117 6.81461C56.353 6.32121 56.5377 5.71609 57.0367 5.46473ZM53.5164 5.8278L53.9691 5.90228C54.542 6.00468 54.9116 6.33052 55.0871 6.88909C55.9556 9.69126 58.9955 11.3577 59.4205 14.7557C59.4667 15.0815 59.3189 15.2584 58.9955 15.2863C58.6906 15.3142 58.4781 15.1839 58.358 14.8953C57.4894 12.8472 56.4823 11.0505 55.3366 9.49576C55.2165 9.32819 54.9855 9.27233 54.7914 9.35612L54.5512 9.47714C54.4034 9.54231 54.3572 9.65402 54.4126 9.81228L56.2883 15.2211C56.3899 15.5097 56.1497 15.7983 55.854 15.7518C53.3685 15.398 53.4979 12.1397 53.3038 10.1847C53.2854 9.99848 53.3408 9.82159 53.4609 9.68195C53.5626 9.57024 53.6827 9.48645 53.8028 9.43059C53.886 9.38405 53.9137 9.31888 53.886 9.23509L52.8603 6.64704C52.6016 5.98606 52.8234 5.71609 53.5164 5.8278ZM49.1645 5.95813C49.4139 5.90228 49.6542 5.9302 49.8944 6.04192C50.0884 6.12571 50.2547 6.30259 50.4118 6.56325C51.1233 7.77349 51.8255 9.06752 52.0842 10.4546C52.3891 12.0838 52.7864 13.6757 53.2946 15.2118C53.3778 15.4725 53.1745 15.7332 52.8973 15.7238L52.0934 15.6866C51.8809 15.6866 51.7423 15.5749 51.6777 15.3701L48.7856 6.63773C48.6655 6.27466 48.7856 6.04192 49.1645 5.95813ZM46.1985 5.97675L46.5496 5.87435C46.7437 5.81849 46.8638 5.88366 46.91 6.07916C47.7415 9.25371 48.9704 12.2979 50.5874 15.2118C50.6983 15.4166 50.5504 15.6773 50.3194 15.6773H49.996C49.4879 15.6959 49.0813 15.5004 48.7764 15.0815C46.4757 11.9814 46.5958 9.6354 45.986 6.3119C45.9583 6.16294 46.0507 6.0233 46.1985 5.97675ZM44.2027 6.91702C45.1082 7.9783 45.8012 9.41197 45.949 10.8736C46.1246 12.5586 46.7714 14.1133 47.8801 15.5283C48.1204 15.8356 47.9079 16.2824 47.5198 16.2824H47.0393C46.448 16.2917 45.9121 15.9287 45.6996 15.3701C45.2561 14.2343 44.9327 13.0799 44.7294 11.9069C44.443 10.2591 43.2141 8.87202 42.9739 7.50352C42.6874 5.81849 43.1032 5.62299 44.2027 6.91702ZM39.3149 7.30802L40.627 6.7029C40.7471 6.64704 40.8949 6.7029 40.9411 6.82392L45.0436 15.8076C45.099 15.9287 45.0436 16.0683 44.9234 16.1242L43.6114 16.7293C43.4913 16.7851 43.3434 16.7293 43.2973 16.6082L39.1948 7.62454C39.1394 7.50352 39.1948 7.36387 39.3149 7.30802ZM34.7413 7.60592C35.1386 7.36387 35.6468 7.43835 35.9517 7.79211L40.2019 12.6517C40.2759 12.7448 40.3405 12.8565 40.3867 12.9682L41.2183 15.4166C41.4216 15.9938 41.0428 16.6082 40.4329 16.6827L38.3632 16.9341C37.929 16.9899 37.5224 16.7479 37.3654 16.3476L34.3532 8.77893C34.1869 8.34138 34.344 7.84797 34.7413 7.60592ZM27.4974 8.34138C29.1513 8.35069 30.2323 8.52757 30.7313 8.88133C33.0135 10.4546 34.7782 12.9961 36.0071 16.5058C36.2566 17.2227 35.9979 17.5764 35.2495 17.5671H34.0021C33.3646 17.5671 32.8009 17.1668 32.5884 16.571C31.609 13.955 30.916 12.0838 28.6985 10.4733C28.0979 10.0357 27.6082 9.46783 27.2386 8.76962C27.0908 8.48102 27.174 8.34138 27.4974 8.34138ZM23.1824 9.03959C23.515 8.60204 23.9124 8.57411 24.3651 8.9465C25.3722 9.76574 26.3886 10.4546 27.4234 11.0132C29.7611 12.2793 30.8052 15.3794 31.0546 17.8837C31.0916 18.2281 30.8976 18.5539 30.5834 18.6936C30.3986 18.7774 30.2046 18.7588 29.9921 18.6377C29.8535 18.5539 29.7334 18.4143 29.6225 18.2188C29.2344 17.502 28.8186 16.8038 28.3844 16.1242C28.2273 15.8728 28.0055 15.7704 27.7191 15.8169C27.1647 15.91 26.6658 15.6401 26.2223 14.9977C25.1228 13.3778 24.0879 11.7114 23.1177 9.98917C22.9514 9.69126 22.9791 9.31888 23.1824 9.03959ZM18.655 10.073L19.736 9.91469C20.1703 9.84952 20.5491 9.95193 20.8725 10.2405C22.4987 11.6649 23.8292 13.4058 24.8733 15.4446C25.3537 16.3941 26.6843 17.1668 26.8691 18.0419C26.9153 18.2747 26.9153 18.5074 26.8506 18.7308C26.7582 19.0567 26.5549 19.1684 26.2408 19.0473C25.1043 18.6098 24.1341 17.9488 23.3487 17.0458C22.4617 16.0311 22.24 14.2995 21.0942 13.3499C20.7709 13.0799 20.6415 13.1544 20.7154 13.5733C20.7431 13.713 20.7524 13.8526 20.7431 13.9923C20.7339 14.1412 20.6969 14.1505 20.6138 14.0295L18.4332 10.5664C18.2577 10.2871 18.3316 10.1195 18.655 10.073ZM15.4026 11.097C15.7907 10.7712 17.8141 12.6051 19.93 15.1932C22.0367 17.7813 23.4226 20.1366 23.0438 20.4624C22.6558 20.7882 20.6323 18.9543 18.5164 16.3662C16.4005 13.7781 15.0145 11.4228 15.4026 11.097ZM7.11457 22.9108L7.22545 22.585C7.43796 21.9799 7.76135 21.9147 8.18638 22.3895C8.60216 22.8456 9.09187 23.1994 9.67397 23.4508C10.1082 23.637 10.1637 23.5532 9.84028 23.2087L8.10322 21.3561C7.86299 21.0954 7.81679 20.7044 7.99234 20.3972L8.17714 20.09C8.33421 19.8107 8.71304 19.7642 8.93479 19.9969C10.9213 22.0916 12.5198 24.4003 13.7302 26.9046C14.4786 28.4407 14.1183 28.7665 12.6584 27.9007C10.949 26.886 9.20274 25.6292 7.43796 24.1304C7.04065 23.8045 6.93902 23.3949 7.11457 22.9108ZM7.03141 26.0947C9.31362 26.9418 10.8659 28.1335 11.7067 29.6509C12.2056 30.5539 12.7231 31.3639 13.259 32.0621C13.8596 32.8534 13.7117 33.0489 12.8062 32.6393C11.6882 32.1273 10.4316 31.5687 9.04567 30.9543C8.94403 30.9077 8.91631 30.8425 8.96251 30.7494L9.11959 30.405C9.11959 30.405 9.17502 30.3678 9.1935 30.3957C9.64625 30.8239 10.1082 30.9543 10.561 30.7774C11.0045 30.6098 11.0045 30.4236 10.5702 30.2281C8.38965 29.232 7.04065 28.0311 6.51399 26.616C6.31072 26.0667 6.48627 25.8992 7.03141 26.0947ZM6.04276 29.7347L6.283 29.5113C6.33843 29.4647 6.39387 29.4554 6.45855 29.474C7.33632 29.7626 7.84451 30.2467 7.9831 30.917C8.13094 31.6525 8.52824 32.2204 9.16578 32.602C10.4501 33.3654 11.5773 34.0916 12.5475 34.7805C13.5177 35.4787 13.416 35.7766 12.2241 35.6649C9.47069 35.4135 7.33632 33.8495 5.83025 30.9822C5.58078 30.5074 5.64546 30.0978 6.04276 29.7347ZM6.06124 35.1715L12.0578 37.7968C12.3165 37.9085 12.4736 38.1878 12.4274 38.4764L12.372 38.7836C12.3442 38.9791 12.2334 39.0443 12.0486 38.9791L9.65549 38.0854C9.04567 37.8619 8.98099 37.9737 9.45222 38.4112L12.0301 40.8131C12.335 41.1017 12.3535 41.3996 12.0671 41.7068C11.9285 41.8557 11.7252 41.9674 11.4572 42.0512C11.5589 42.5074 11.3833 42.7867 10.9306 42.8705C10.8751 42.8798 10.8197 42.8798 10.7735 42.8612L7.53036 41.6602C7.03141 41.4833 6.90206 41.6323 7.14229 42.1071C7.77983 43.3825 10.6257 44.0528 11.448 44.602C11.7252 44.7882 11.873 45.0396 11.9007 45.3468C11.9192 45.6913 11.7621 45.8588 11.4203 45.8309C9.56309 45.7192 7.97386 45.021 6.65258 43.7456C6.40311 43.5128 6.25528 43.2242 6.20908 42.8798L5.85797 40.4221C5.81177 40.1148 5.94113 39.9938 6.24604 40.0497C8.08474 40.3755 9.8218 41.0458 11.4572 42.0512C11.5034 41.4275 11.1523 40.9155 10.4039 40.5058C9.2859 39.9007 8.17714 39.2304 7.07761 38.5136C6.01504 37.8247 5.52534 36.81 5.59002 35.4601C5.6085 35.1342 5.76557 35.0411 6.06124 35.1715ZM6.93902 48.9124C6.52323 48.2328 6.2368 47.5718 6.08896 46.9387C6.01505 46.6222 6.12592 46.5198 6.43083 46.6315C8.80544 47.4973 10.6349 48.661 11.9007 50.1319C12.7693 51.1467 12.566 51.4539 11.3002 51.0536C10.1082 50.6905 9.00871 50.225 7.9831 49.6571C7.72439 49.5175 7.50264 49.564 7.32708 49.8061C7.09609 50.1133 6.82814 50.3274 6.52323 50.4577C6.21832 50.5974 6.03352 50.495 5.98733 50.1505C5.96885 50.0109 5.98733 49.8806 6.052 49.7409C6.13516 49.5547 6.27376 49.4244 6.48627 49.3406C6.57867 49.2941 6.6803 49.2661 6.80042 49.2475C7.01293 49.201 7.05913 49.0892 6.93902 48.9124ZM5.6085 52.5803L6.06124 51.4632C6.1444 51.2677 6.36615 51.1746 6.56019 51.2491L10.1637 52.7479C11.7714 53.4182 12.9541 54.256 12.8062 54.6098L12.5937 55.1311C12.4459 55.4942 11.023 55.2429 9.41526 54.5726L5.81177 53.0737C5.61774 52.9993 5.52534 52.7758 5.6085 52.5803ZM6.8651 55.5687L12.8155 58.0078C12.9818 58.073 13.1019 58.2126 13.1481 58.3802L13.3514 59.0598C13.4807 59.5159 13.0557 59.9255 12.6122 59.7673L6.83738 57.7471C6.67106 57.6913 6.53247 57.5516 6.47703 57.384L6.10744 56.2855C5.95037 55.82 6.41235 55.3825 6.8651 55.5687ZM6.1444 60.9124C5.98733 60.419 6.51399 59.9907 6.95749 60.2421C8.62988 61.1916 10.3023 62.1971 11.9747 63.2491C13.4068 64.1521 13.2775 64.5617 11.5866 64.4779C10.3762 64.4128 9.15654 64.1148 7.91842 63.5749C7.19773 63.2584 6.71726 62.7184 6.47703 61.955L6.1444 60.9124ZM6.89282 67.3546L6.6803 65.9861C6.64334 65.7161 6.89282 65.4927 7.16077 65.5671C9.27666 66.1629 11.0876 66.9636 12.6122 67.9783C13.8688 68.8069 13.7487 69.1606 12.2518 69.0396C10.6903 68.9186 9.05491 68.5369 7.33632 67.8945C7.10533 67.8107 6.92978 67.6059 6.89282 67.3546ZM7.06837 70.045C7.16077 69.6913 8.7038 69.8309 10.5055 70.3429C12.3073 70.8456 13.6932 71.5439 13.5916 71.8976C13.4992 72.2514 11.9562 72.1117 10.1544 71.5997C8.35269 71.097 6.96673 70.3988 7.06837 70.045ZM12.8801 75.5377C12.797 75.547 12.566 75.4073 12.1964 75.128C11.9931 74.9698 11.7621 74.8674 11.5034 74.8115C10.4224 74.5602 9.45222 74.0947 8.59292 73.4058C8.28801 73.1544 8.32497 73.0613 8.71304 73.1172C10.6072 73.3872 12.0763 73.7781 13.1111 74.2995C14.5063 74.9977 14.4324 75.4166 12.8801 75.5377ZM15.0053 85.4523C14.4786 85.2196 14.0536 84.8286 13.7394 84.2793C13.6563 84.1304 13.6748 83.9349 13.8041 83.8045L14.109 83.4787C14.3123 83.2646 14.4786 83.2925 14.6172 83.5532L15.3841 85.0427C15.5135 85.2941 15.2547 85.564 15.0053 85.4523ZM16.5298 82.7712C16.2619 82.6688 15.9847 82.557 15.6798 82.4174C15.4303 82.2964 15.1993 82.3336 14.9868 82.5105L14.7466 82.706C14.5063 82.9015 14.3677 82.8456 14.3308 82.5291L14.1645 81.1606C14.1275 80.8162 14.2661 80.7231 14.5803 80.8627C15.3102 81.2072 16.0124 81.7657 16.6869 82.5477C16.9179 82.827 16.8717 82.9015 16.5298 82.7712ZM18.0174 24.3072L17.7125 24.7355C17.6478 24.8193 17.5647 24.8379 17.4815 24.7727L15.0053 23.0784C14.146 22.4919 14.0351 22.5943 14.6634 23.3856C14.7096 23.4508 14.7004 23.5904 14.6264 23.8138C14.5248 24.0931 14.3862 24.1211 14.1922 23.8976C12.6954 22.1567 11.1338 20.6858 9.49841 19.4849C8.99947 19.1125 8.89783 18.6563 9.1935 18.1071L9.4245 17.6882C9.59081 17.3903 9.97888 17.3158 10.2376 17.5392C12.76 19.6711 15.3564 21.9054 18.0174 24.2328C18.0451 24.2514 18.0451 24.2793 18.0174 24.3072ZM19.2093 22.3057C19.1631 22.6036 19.0153 22.6688 18.7658 22.5105C15.3656 20.3414 12.797 18.2653 11.0599 16.2638C10.8659 16.0404 10.8012 15.7332 10.8844 15.4539C11.0045 15.0815 11.1893 14.8487 11.4572 14.7463C12.0763 14.5229 12.5752 14.6812 12.9725 15.2118C15.0422 18.0512 17.0842 20.1924 19.0985 21.6447C19.2093 21.7285 19.274 21.8775 19.2555 22.0171L19.2093 22.3057ZM19.311 20.3321H19.3017C19.2001 20.4252 19.0985 20.4252 19.0061 20.3228C17.1212 18.3212 15.1531 16.3848 13.1111 14.5229C12.6399 14.0947 12.603 13.6199 12.9818 13.1079C13.0465 13.0241 13.1019 12.9403 13.1573 12.8565C13.5362 12.3445 13.9058 12.3538 14.2661 12.8751C15.9292 15.2863 17.6201 17.6788 19.3387 20.0435C19.4219 20.1459 19.4126 20.2483 19.311 20.3321ZM21.2698 86.765C21.1127 86.8487 20.9279 86.9046 20.7339 86.9139C20.4105 86.9325 20.2072 86.7836 20.1241 86.4671C19.8931 85.564 19.8192 84.661 19.9208 83.7487C19.967 83.246 20.1148 83.218 20.3458 83.6649C20.5953 84.149 20.7247 84.661 20.7339 85.201C20.7431 85.4802 20.854 85.7409 21.048 85.9364L21.3437 86.2436C21.5377 86.4484 21.5193 86.6253 21.2698 86.765ZM24.8456 87.547C24.5868 87.6401 24.245 87.277 24.0602 86.737C23.8846 86.1971 23.9493 85.7037 24.208 85.6199C24.4667 85.5268 24.8086 85.8899 24.9934 86.4298C25.169 86.9698 25.1043 87.4632 24.8456 87.547ZM31.0546 87.547C30.9345 87.6308 30.8144 87.6494 30.6943 87.6121C29.6964 87.2863 29.6964 86.9884 30.7035 86.7184C30.9438 86.6533 31.1101 86.7277 31.2117 86.9418C31.3411 87.1932 31.2856 87.3887 31.0546 87.547ZM37.2175 88.4593C36.6262 88.6734 36.2381 88.5245 36.0533 88.0031C35.9794 87.7797 36.081 87.5283 36.3028 87.4352C36.8479 87.2211 37.236 87.3608 37.467 87.8635C37.5686 88.0962 37.4578 88.3755 37.2175 88.4593ZM60.7973 105.03C60.7326 105.319 60.5478 105.421 60.2613 105.347C60.132 105.319 60.0119 105.235 59.8918 105.105C59.8178 105.021 59.7809 104.909 59.7901 104.798L60.0119 101.558C60.0303 101.251 60.1874 101.139 60.4831 101.241L60.8804 101.381C60.8804 101.381 60.9358 101.418 60.9451 101.455C61.1206 102.749 61.0744 103.941 60.7973 105.03ZM63.3012 100.832L62.2294 100.106C61.943 99.91 61.6473 99.9007 61.3424 100.068C61.2315 100.133 61.1206 100.189 61.0005 100.236C60.8434 100.31 60.788 100.264 60.8527 100.096C61.0929 99.4352 61.5549 99.2584 62.2294 99.5842C62.7376 99.8356 63.1534 100.199 63.4675 100.673C63.68 100.999 63.6246 101.046 63.3012 100.832ZM65.2415 98.7836C65.103 99.2956 64.872 99.3328 64.5486 98.9139C63.7262 97.8433 62.793 96.7448 61.7397 95.6183C61.1022 94.9294 61.1761 94.8456 61.9522 95.367C62.5343 95.758 63.292 96.2514 64.2159 96.8472C65.103 97.4244 65.4448 98.0667 65.2415 98.7836ZM66.3688 95.7952C65.953 95.5252 65.6111 95.2273 65.3432 94.8922C65.0937 94.5757 65.4448 94.1474 65.7959 94.3243C66.3596 94.6129 66.6367 95.0598 66.6183 95.6649C66.6183 95.7952 66.4704 95.8604 66.3688 95.7952ZM66.1193 91.2987L66.7846 92.6021C66.9971 93.021 66.877 93.1699 66.4242 93.0396C65.8052 92.8627 65.491 92.4345 65.4633 91.7642C65.4448 91.4197 65.6019 90.9915 65.9438 90.4795C67.2188 88.4965 67.0895 86.495 65.5465 84.4655C65.5003 84.4003 65.5003 84.3352 65.5649 84.27H65.5742C65.6758 84.1769 65.7682 84.1862 65.8606 84.2886C67.9765 86.7184 68.1151 88.7851 66.2579 90.4888C66.0084 90.7215 65.9622 90.9915 66.1193 91.2987ZM70.7854 88.4686C70.7761 88.6362 70.6837 88.7107 70.5267 88.692L70.0739 88.6455C70.0277 88.6455 70 88.6269 70 88.5803C69.8984 87.277 69.7043 86.1319 69.4271 85.1544C69.3347 84.8472 69.1777 84.6796 69.113 84.4376C69.0575 84.2328 69.1315 84.149 69.3347 84.1955C69.806 84.2979 70.1293 84.5958 70.3141 85.0892C70.7114 86.1226 70.8685 87.2491 70.7854 88.4686ZM74.8601 85.7595C74.8601 86.1319 74.4258 86.3367 74.1394 86.104C73.3448 85.4616 73.1969 84.7541 73.6959 83.9814C73.9454 83.5904 74.241 82.9667 74.5182 82.6129C74.7677 82.2964 74.8878 82.3336 74.8878 82.7339L74.8601 85.7595ZM71.155 63.007C64.6964 67.7921 59.7716 71.637 53.2577 74.6253C52.9805 74.7557 52.7033 74.7557 52.4261 74.6253C44.7664 71.1156 37.9197 67.2801 31.877 63.1187C25.5385 58.7526 20.7616 52.7572 22.0829 44.7324C23.7091 34.8177 32.2928 30.2374 41.976 33.5889C43.2233 34.0171 44.8218 35.0132 46.7714 36.5865C47.6676 37.3034 48.3606 38.1692 48.8596 39.1932C49.4047 40.3197 50.1254 41.2692 51.0216 42.0419C51.3358 42.3212 51.8347 42.1071 51.8532 41.6882L52.0195 38.5043C52.038 38.1878 52.1489 37.9085 52.3614 37.6757C55.7616 33.8681 57.8683 30.405 62.9963 28.7386C65.3986 27.9659 67.8564 27.7704 70.3788 28.1707C78.1402 29.4089 82.7231 33.8216 84.1183 41.4089C85.9477 51.3142 78.0847 57.8681 71.155 63.007ZM81.5404 82.9946C81.2909 83.0691 80.8197 82.2964 80.4871 81.263C80.1544 80.2204 80.0805 79.3173 80.33 79.2429C80.5795 79.1684 81.0507 79.9411 81.3833 80.9744C81.7159 82.0171 81.7899 82.9201 81.5404 82.9946ZM84.534 80.8255C84.1183 80.1831 83.8688 79.5221 83.7856 78.8612C83.7394 78.405 83.8503 78.3584 84.1367 78.7215C84.7004 79.4383 84.9591 80.1086 84.9036 80.7324C84.8759 81.1141 84.7466 81.1513 84.534 80.8255ZM86.7054 15.7332C86.6222 15.6773 86.5668 15.5842 86.5206 15.4632C86.0678 14.2529 85.6982 13.0148 85.3933 11.7394C85.3749 11.6649 85.1069 10.7991 84.5987 9.13269C84.2384 7.95969 84.1367 6.73083 84.2938 5.4368C84.34 5.09235 84.5156 4.99925 84.8205 5.16682C85.2547 5.40887 85.4118 5.87435 85.2917 6.57256C85.2363 6.87047 85.2732 7.15906 85.4026 7.43835C86.5668 9.97986 87.2413 12.6424 87.4261 15.4259C87.4446 15.7611 87.2875 15.9007 86.9641 15.8449C86.8809 15.8449 86.7885 15.7983 86.7054 15.7332ZM89.0153 77.0644C88.7104 78.0698 88.1006 78.9543 87.1674 79.7269C87.0288 79.8387 86.9826 79.8107 87.0195 79.6339L87.6478 76.8503C87.7217 76.5059 88.0729 76.2917 88.4147 76.3755L88.6734 76.45C88.9414 76.5152 89.0985 76.7944 89.0153 77.0644ZM90.2257 15.2677L89.5882 15.1746C89.311 15.128 89.1631 14.9698 89.1539 14.6905C88.9968 11.6835 88.2946 8.91857 87.0657 6.40499C86.5945 5.44611 86.7885 5.28785 87.6386 5.91159C90.3366 7.89452 90.2904 11.7859 90.6045 14.9046C90.6322 15.1932 90.5121 15.3142 90.2257 15.2677ZM92.0644 76.1614L91.2513 75.4073C91.1127 75.2677 91.1312 75.1839 91.3252 75.156C91.5193 75.1187 91.7225 75.1746 91.9166 75.3328C92.2215 75.5749 92.3601 75.8169 92.3416 76.0497C92.3231 76.2731 92.2307 76.3103 92.0644 76.1614ZM93.2194 73.5547C92.1014 72.931 91.2883 72.1769 90.7893 71.2739C90.5583 70.8456 90.5676 70.4826 90.8263 70.1847C91.048 69.924 91.2975 69.8961 91.5747 70.1009C91.8334 70.2964 92.009 70.557 92.1014 70.8829C92.1845 71.1715 92.3139 71.4228 92.5079 71.6556C92.9237 72.1583 93.2471 72.7169 93.4781 73.3313C93.5982 73.6478 93.515 73.7223 93.2194 73.5547ZM97.9871 65.1947L97.7468 65.4182C97.599 65.5485 97.3865 65.5671 97.2294 65.4647C96.4348 64.9341 95.8527 64.6455 95.4739 64.5989C93.746 64.3755 93.552 64.8317 94.8918 65.9581C95.0858 66.1257 95.7141 66.3212 96.7582 66.5353C97.0169 66.5912 97.174 66.8519 97.1093 67.1032L97.0538 67.3453C96.9984 67.5408 96.8783 67.6152 96.6843 67.5501C94.9564 67.0008 93.5797 65.8464 92.5634 64.0683C92.1938 63.4166 92.8313 62.6626 93.5243 62.9232L97.8762 64.5803C98.2458 64.72 98.2827 64.9248 97.9871 65.1947ZM99.0034 61.2196L98.9849 61.2754C98.911 61.5547 98.6338 61.7223 98.3474 61.6478L93.0623 60.2328C92.7851 60.1583 92.6188 59.8697 92.6927 59.5997L92.7112 59.5439C92.7851 59.2646 93.0623 59.097 93.3487 59.1715L98.6338 60.5865C98.911 60.661 99.0773 60.9496 99.0034 61.2289V61.2196ZM99.2621 57.6726C99.2252 57.9706 99.0681 58.0543 98.8002 57.9333C96.8506 57.0861 95.0303 56.6579 93.3395 56.63C93.0069 56.63 92.7389 56.3414 92.7666 56.0062L92.7943 55.6152C92.8221 55.0939 93.0993 54.8891 93.6167 54.9915C95.5663 55.3918 97.3403 55.9597 98.948 56.7045C99.2159 56.8348 99.3361 57.0489 99.2991 57.3468L99.2621 57.6726ZM98.9572 53.3623L93.3949 51.7704C93.1732 51.7052 93.0069 51.5377 92.9422 51.3142L92.665 50.2995C92.5356 49.8247 92.9607 49.3778 93.4411 49.4896L98.2458 50.6719C98.3936 50.7091 98.523 50.7929 98.6154 50.9232L99.6594 52.3569C100.02 52.8503 99.5486 53.5299 98.9572 53.3623ZM99.8904 48.7727L94.2173 46.6595C93.9124 46.5477 93.7091 46.3429 93.589 46.0357C93.2656 45.1979 93.0993 44.3879 93.09 43.6059C93.0808 43.2615 93.2471 43.1404 93.5705 43.2615L94.014 43.429C94.2635 43.5128 94.3374 43.6804 94.245 43.9318L93.8939 44.8255C93.783 45.1234 94.0047 45.4492 94.3189 45.4492C96.2592 45.4399 98.024 45.8868 99.6225 46.7712C100.094 47.0318 100.352 47.4321 100.399 47.9628L100.436 48.3445C100.482 48.782 100.297 48.9217 99.8904 48.7727Z" fill="black"/>
<path d="M39.6107 15.5562C39.4536 15.64 38.9362 14.9511 38.465 14.0109C37.9937 13.0706 37.7535 12.2421 37.9198 12.1583C38.0769 12.0745 38.5943 12.7634 39.0655 13.7037C39.5368 14.6439 39.777 15.4725 39.6107 15.5562Z" fill="black"/>
<path d="M28.2087 15.4911C28.0516 15.5655 27.6728 15.0349 27.3587 14.3087C27.0445 13.5826 26.9244 12.9402 27.0815 12.8751C27.2386 12.8006 27.6174 13.3312 27.9315 14.0574C28.2457 14.7835 28.3658 15.4259 28.2087 15.4911Z" fill="black"/>
<path d="M36.155 41.7161C39.8971 43.0101 42.6412 44.7882 44.3691 47.0504C47.4829 51.1001 50.3749 55.2987 53.0636 59.6276C53.4425 60.2328 53.7566 60.2048 54.0061 59.5345C54.3387 58.6687 54.5605 57.6447 54.6806 56.4624C54.7083 56.1552 54.8284 55.8945 55.0409 55.6804C55.4013 55.3173 55.6507 55.0194 55.7893 54.768C59.707 47.7487 62.7006 42.5353 64.7611 39.128C65.0845 38.5974 65.5927 37.9736 66.3041 37.2568C66.5166 37.0427 66.6275 36.782 66.6368 36.4748C66.646 35.6835 67.0525 35.3856 67.8564 35.5904C69.2424 35.9535 70.3326 36.121 71.1273 36.1024C71.4322 36.1024 71.7001 36.1769 71.9403 36.3538C72.2268 36.5679 72.504 36.7727 72.7904 36.9682C73.1323 37.2102 73.4464 37.3033 73.7236 37.2382C74.0008 37.173 74.1948 37.0147 74.315 36.782C74.4628 36.4934 74.3796 36.3258 74.0562 36.2793C73.4741 36.1955 72.9752 35.9628 72.5502 35.5904C72.3192 35.3856 72.0605 35.2739 71.7648 35.2459C70.2033 35.097 68.919 34.5012 67.4314 34.6129C64.1236 34.8642 61.1853 36.1583 58.6167 38.495C57.7759 39.2583 57.2954 40.0497 57.1938 40.8689C57.1476 41.2413 56.8796 41.5485 56.5193 41.6602L56.2236 41.744C55.9649 41.8185 55.7154 41.5764 55.7893 41.3158C57.8498 33.6819 66.9509 31.3918 73.6127 32.9465C77.1146 33.7564 79.5077 35.9535 80.8105 39.519C82.6122 44.4624 81.7899 48.8099 78.3435 52.5803C71.5892 59.9814 62.9409 65.6881 54.4311 70.8363C53.1745 71.5904 52.2136 71.6183 50.8276 70.976C44.443 67.9876 38.6405 64.5617 33.4108 60.6796C28.024 56.6858 22.8868 48.5772 28.255 42.2002C31.3318 38.5415 36.8664 38.1133 41.2461 39.2677C43.3435 39.8169 45.2653 40.9527 47.0209 42.6843C49.4786 45.1047 54.1909 50.9884 54.2001 54.6098C54.2094 55.6804 53.9599 55.7456 53.4517 54.796C50.301 48.9217 44.8126 42.6936 38.0584 41.2971C37.4947 41.1761 36.8572 41.2227 36.155 41.4275C35.8593 41.5113 35.8593 41.6137 36.155 41.7161Z" fill="black"/>
<path d="M42.096 36.0373C41.1998 35.4321 41.246 35.339 42.2438 35.7673C43.2695 36.2141 44.5168 36.782 45.9859 37.4802C46.1245 37.5454 46.1615 37.6385 46.106 37.7781C46.0414 37.9271 45.949 37.9643 45.8104 37.9178C44.3597 37.3685 43.1216 36.7355 42.096 36.0373Z" fill="black"/>
<path d="M56.7318 44.7789C57.3878 45.0117 57.6188 45.4306 57.434 46.0357C57.3139 46.4453 56.7872 46.5477 56.5193 46.2126C55.9002 45.4399 55.1888 44.7882 54.3757 44.2576C54.1077 44.09 54.0153 43.848 54.0892 43.5408C54.2278 42.9822 54.5789 42.6377 55.1333 42.4981C55.4382 42.4236 55.6045 42.5446 55.623 42.8612C55.6507 43.3732 55.7893 43.8293 56.0573 44.2297C56.2236 44.4903 56.4454 44.6765 56.7318 44.7789Z" fill="black"/>
</g>
<defs>
<clipPath id="clip0_2013_33">
<rect width="105" height="120" fill="white"/>
</clipPath>
</defs>
</svg>
