<svg width="160" height="160" viewBox="0 0 160 160" fill="none" xmlns="http://www.w3.org/2000/svg">
<g clip-path="url(#clip0_2023_167)">
<path d="M78.459 32.1615C78.5468 33.295 77.7177 34.2807 76.6058 34.3694H76.5083C75.3963 34.4679 74.4112 33.6301 74.3234 32.5065L71.8557 2.22745C71.768 1.09395 72.597 0.108306 73.7089 0.0195977H73.8065C74.9184 -0.0789669 75.9035 0.758833 75.9913 1.88247L78.459 32.1615Z" fill="black"/>
<path d="M123.355 12.9612C123.862 11.8474 125.091 11.2856 126.252 11.6207C126.535 11.6996 126.788 11.8474 127.013 12.0642C127.852 12.8528 127.998 13.7596 127.442 14.7748C123.57 21.8419 119.795 28.8104 116.108 35.6803C115.65 36.528 114.84 36.9912 113.679 37.0799C113.192 37.1095 112.792 36.8138 112.47 36.1929C112.285 35.8282 112.294 35.3945 112.49 35.0298C115.786 29.0075 119.405 21.6447 123.355 12.9612Z" fill="black"/>
<path d="M92.4944 35.8184C92.7968 32.3095 94.3574 29.5004 95.4596 26.3364C95.6059 25.9225 95.6156 25.4691 95.4986 25.0452C94.7476 22.3741 94.8841 19.6439 95.9082 16.8742C96.3667 15.6225 97.0982 15.1691 98.1126 15.5042C98.7856 15.7309 99.2245 16.3716 99.205 17.0911C99.0587 21.1815 99.2733 25.4198 98.2589 29.2145C97.6054 31.6589 96.8251 33.9555 95.9375 36.1141C95.5571 37.0307 94.8939 37.4742 93.9477 37.4545C93.0894 37.4348 92.4164 36.6857 92.4944 35.8184Z" fill="black"/>
<path d="M38.0591 41.5941C32.6945 34.044 27.7981 26.6813 21.9264 19.4959C21.2339 18.6384 21.2729 17.8302 22.063 17.0614C23.3212 15.8293 24.8915 16.401 26.774 18.7764C27.5055 19.7029 28.198 20.6491 28.8418 21.6052C33.0066 27.7852 36.7716 33.6005 40.1171 39.0511C40.5755 39.7904 40.478 40.7464 39.883 41.3773L39.5806 41.7025C39.1515 42.1559 38.4199 42.1066 38.0591 41.5941Z" fill="black"/>
<path d="M54.2502 19.496L60.873 38.1346C61.2241 39.1301 60.8827 39.6328 59.8391 39.6624C59.5562 39.6722 59.2831 39.6229 59.0197 39.5145C58.1809 39.1794 57.4982 38.4796 57.1178 37.5629C55.0012 32.4474 53.07 26.9869 51.3241 21.1913C50.9827 20.0874 51.3436 19.3088 52.397 18.8554C52.7774 18.6977 53.187 18.6977 53.6259 18.8652C53.9186 18.9736 54.1429 19.2003 54.2502 19.496Z" fill="black"/>
<path d="M24.3258 52.9882C17.5957 46.9856 13.2748 43.3781 6.33019 40.9929C5.83275 40.8155 5.59866 40.2536 5.82299 39.7707C6.69107 37.9176 8.15413 37.6417 10.2122 38.9427C13.6845 41.1407 17.1763 43.3091 20.6779 45.448C22.2483 46.4041 23.9356 48.0402 25.7206 50.3664C26.179 50.9676 26.3546 51.5097 26.2473 52.0025C26.1302 52.5841 25.7693 52.9685 25.1646 53.1656C24.8525 53.2642 24.5696 53.205 24.3258 52.9882Z" fill="black"/>
<path d="M148.374 47.1633C144.697 49.5979 140.727 51.7565 136.474 53.6193C136.299 53.6883 136.113 53.7179 135.928 53.708C135.079 53.6489 134.611 53.3532 134.543 52.821C134.377 51.6382 134.767 50.7215 135.723 50.071C138.854 47.942 141.985 45.9017 145.116 43.96C146.013 43.3982 147.203 43.408 148.208 43.9896C148.403 44.098 148.579 44.2458 148.735 44.4233C149.661 45.4779 149.544 46.3847 148.374 47.1633Z" fill="black"/>
<path d="M10.7193 68.4137C7.36402 68.0589 4.13554 68.187 1.01435 66.8564C0.175529 66.5016 -0.224373 65.5258 0.117007 64.6683C0.165776 64.55 0.214544 64.4317 0.263313 64.3233C0.78026 63.0518 1.69711 62.559 3.02362 62.8448C10.056 64.3528 16.7569 65.5751 23.126 66.4917C24.0721 66.6297 24.7256 67.1718 25.0768 68.118C25.1841 68.4137 25.0963 68.7094 24.7939 69.0051C24.3745 69.4191 23.8771 69.6063 23.3016 69.5571C19.0197 69.2318 14.8256 68.8573 10.7193 68.4137Z" fill="black"/>
<path d="M21.858 89.7922C22.0921 90.9947 21.3215 92.1578 20.1316 92.3943L4.85726 95.4498C3.66731 95.6962 2.51637 94.9077 2.28228 93.7052L2.214 93.38C1.97991 92.1775 2.75046 91.0144 3.94041 90.7779L19.2147 87.7224C20.4047 87.4759 21.5556 88.2645 21.7897 89.4669L21.858 89.7922Z" fill="black"/>
<path d="M24.4819 119.904C23.526 120.545 22.2385 120.318 21.546 119.391C21.468 119.283 21.3899 119.184 21.3119 119.076C20.795 118.376 20.9218 117.39 21.6045 116.858C26.1985 113.28 29.9537 109.978 32.8896 106.972C33.7284 106.115 34.694 105.996 35.7962 106.627C35.9425 106.716 36.0595 106.854 36.1278 107.021C36.5667 108.056 36.4204 108.983 35.6889 109.801C31.9142 114.039 28.1785 117.41 24.4819 119.904Z" fill="black"/>
<path d="M115.357 114.749C114.918 114.542 114.733 114.01 114.948 113.566L115.357 112.689C115.933 111.486 118.322 111.437 120.693 112.59L134.377 119.214C136.757 120.367 138.22 122.279 137.654 123.482L137.235 124.359C137.02 124.802 136.503 124.99 136.064 124.773L115.357 114.749Z" fill="black"/>
<path d="M47.052 140.346C46.6619 141.243 45.628 141.657 44.7306 141.273L44.6428 141.233C43.7455 140.849 43.3358 139.794 43.726 138.887L50.8169 122.417C51.2071 121.52 52.241 121.106 53.1383 121.491L53.2261 121.53C54.1235 121.915 54.5331 122.969 54.143 123.876L47.052 140.346Z" fill="black"/>
<path d="M128.749 150.892C128.183 151.504 127.237 151.543 126.623 150.971L101.088 126.902C100.483 126.33 100.454 125.374 101.009 124.753L101.741 123.965C102.307 123.353 103.253 123.314 103.867 123.886L129.403 147.955C130.007 148.527 130.037 149.483 129.481 150.104L128.749 150.892Z" fill="black"/>
<path d="M71.5729 146.723C71.4949 147.581 70.7438 148.212 69.8953 148.133L68.9004 148.044C68.0518 147.965 67.4276 147.206 67.5056 146.349L68.7931 132.353C68.8711 131.495 69.6222 130.864 70.4707 130.943L71.4656 131.032C72.3142 131.111 72.9384 131.87 72.8604 132.727L71.5729 146.723Z" fill="black"/>
<path d="M97.8592 151.77C98.6297 154.057 99.3807 156.274 100.103 158.413C100.424 159.359 99.5271 160.256 98.5907 159.931C95.8206 158.955 93.9284 153.268 93.1286 150.676C91.3827 144.989 89.6953 139.114 88.0664 133.043C87.8226 132.146 88.4566 131.249 89.3734 131.19L89.7831 131.16C91.0413 131.071 91.8314 131.633 92.1532 132.865C93.9382 139.538 95.8402 145.836 97.8592 151.77Z" fill="black"/>
<path d="M120.107 59.1783C112.207 47.114 97.2642 45.9608 85.7353 53.2841C83.3456 54.802 80.9852 56.3791 78.6346 58.0152C78.3225 58.2222 78.0396 58.1927 77.786 57.9167C71.6217 51.2734 61.7021 45.9214 52.5044 49.0163C38.4785 53.7277 31.6022 66.3834 34.3625 80.8231C35.5329 86.9834 38.6931 92.7593 43.8333 98.1606C47.647 102.162 50.9438 105.031 53.7236 106.755C61.4388 111.536 68.442 116.573 74.7526 121.875C75.7182 122.684 76.8009 123.137 78.0006 123.226C78.2542 123.235 78.4883 123.176 78.7126 123.048C84.8185 119.253 91.4705 115.124 98.6687 110.659C104.687 106.923 108.978 103.789 111.553 101.256C115.572 97.3031 118.352 94.0308 119.903 91.4484C126.691 80.0937 126.759 69.3403 120.107 59.1783ZM119.668 79.2066C118.605 84.6573 116.284 89.4574 112.714 93.5872C107.418 99.7081 100.444 104.952 91.7924 109.318C91.7436 109.348 91.6948 109.338 91.6656 109.289L91.5193 109.062C91.412 108.914 91.4412 108.786 91.607 108.697C92.8945 107.948 94.182 107.11 95.4793 106.174C99.9367 102.931 103.916 99.5898 107.408 96.1401C112.909 90.719 117.103 83.4646 118.098 76.0033C118.576 72.4353 118.02 68.7292 116.45 64.8852C112.841 56.0735 102.541 53.8164 94.3771 56.9409C88.3103 59.267 83.0433 62.8055 78.5858 67.5464C78.3615 67.783 78.1372 67.783 77.9128 67.5464C76.4498 65.9793 74.9867 64.4614 73.5334 62.9928C67.7982 57.1972 58.8638 53.0082 51.1486 56.9803C43.5895 60.8736 40.8584 70.6611 41.6387 78.9307C42.7117 90.3247 52.8263 97.5791 59.8977 105.238C59.9075 105.238 59.9075 105.267 59.8977 105.277L59.7319 105.464C59.6051 105.592 59.4783 105.592 59.3417 105.484C56.3083 102.961 53.3139 100.368 50.3683 97.7171C45.9304 93.7154 42.6044 88.7871 40.3805 82.9422C35.6695 70.5034 42.0679 52.9194 57.1081 52.5153C64.5892 52.3083 70.9974 57.2267 75.8645 62.6576C76.2449 63.0815 76.7034 63.387 77.2398 63.5546C77.6982 63.7024 78.1957 63.5841 78.5468 63.249C84.5161 57.4534 93.6066 52.2492 101.663 52.7617C114.811 53.5995 122.097 66.7974 119.668 79.2066ZM109.222 85.6133C109.486 85.2191 110.071 85.2684 110.276 85.702C110.354 85.8795 110.402 86.0766 110.412 86.2934C110.461 87.1805 110.354 87.8902 110.081 88.4224C108.842 90.8274 107.418 92.7396 105.818 94.1688C103.233 96.485 100.493 98.8407 97.5861 101.236C97.3617 101.423 97.0301 101.325 96.9423 101.049L96.8448 100.743C96.679 100.24 96.8058 99.8165 97.2057 99.4913C101.429 96.0021 105.438 91.3794 109.222 85.6133ZM102.375 62.8449L102.648 60.1541C102.678 59.9077 102.892 59.7303 103.146 59.7598H103.331C104.648 59.9175 105.643 60.7751 105.555 61.6917L105.526 61.948C105.428 62.8745 104.277 63.5053 102.951 63.3574L102.765 63.3377C102.521 63.318 102.346 63.0913 102.375 62.8449ZM110.559 64.284C111.271 65.1218 111.866 66.2257 112.353 67.5957C114.197 72.7507 114.304 77.2846 112.685 81.1878C112.265 82.1833 111.836 82.1932 111.378 81.2174C111.349 81.1681 111.339 80.8132 111.329 80.1627C111.29 74.8107 110.871 69.5966 110.061 64.5205C109.954 63.8404 110.12 63.7616 110.559 64.284ZM97.7519 60.1245L97.4203 62.0071C97.352 62.3915 97.0594 62.6872 96.679 62.7562L94.7673 63.1012C94.1625 63.2195 93.6261 62.7069 93.6943 62.0958L93.8406 60.7258C93.8797 60.3808 94.0942 60.095 94.4064 59.9668L96.5132 59.0995C97.1764 58.8235 97.8884 59.405 97.7519 60.1245Z" fill="black"/>
<path d="M148.764 76.575C152.07 77.2551 155.113 78.359 158.478 78.0337C159.386 77.9549 160.059 77.1368 159.99 76.2201C159.98 76.092 159.971 75.9639 159.951 75.8456C159.834 74.4755 159.112 73.7264 157.757 73.5983C150.597 72.8985 143.848 72.0311 137.498 70.9666C136.552 70.8089 135.772 71.1243 135.157 71.9227C134.962 72.1691 134.962 72.4845 135.157 72.8591C135.43 73.3815 135.85 73.7067 136.416 73.8349C140.6 74.8304 144.706 75.747 148.754 76.5651L148.764 76.575Z" fill="black"/>
<path d="M131.782 93.5773C131.197 94.6516 131.587 95.9921 132.65 96.5835L146.306 104.134C147.369 104.725 148.705 104.321 149.281 103.256L149.437 102.961C150.022 101.886 149.632 100.546 148.569 99.9544L134.913 92.4044C133.85 91.813 132.514 92.2171 131.938 93.2816L131.782 93.5773Z" fill="black"/>
</g>
<defs>
<clipPath id="clip0_2023_167">
<rect width="160" height="160" fill="white"/>
</clipPath>
</defs>
</svg>
