<svg width="120" height="110" viewBox="0 0 120 110" fill="none" xmlns="http://www.w3.org/2000/svg">
<g clip-path="url(#clip0_2085_121)">
<path d="M101.713 4.45547C94.8193 2.28635 87.8968 2.57947 80.955 5.33485C73.5421 8.27587 67.3888 12.5164 62.4853 18.0369C62.1296 18.4375 61.8316 18.887 61.572 19.4048C61.4566 19.6491 61.1201 19.6589 60.9855 19.4244C56.9089 12.1256 50.9478 5.95041 43.4196 2.59901C28.8727 -3.88882 9.97032 2.03231 3.41316 17.2943C-2.23062 30.4166 -0.874963 42.6399 7.47052 53.974C11.1529 58.9865 13.8931 62.3574 15.6718 64.0868C25.7287 73.8674 36.2374 83.9998 47.1981 94.4643C48.8037 95.9984 50.2267 97.0145 51.4574 97.5129C55.0532 98.9687 59.1395 97.6496 62.5623 96.1938C64.4467 95.3828 65.9851 95.6955 67.1869 97.1122C73.1287 104.147 79.1282 108.759 88.3487 109.941C90.3389 110.205 91.8388 109.57 92.8483 108.056C93.031 107.782 93.0887 107.489 93.0214 107.166C92.6656 105.32 91.8484 103.698 90.5696 102.301C88.4063 99.9458 86.493 97.4054 84.8105 94.6793C83.6567 92.8326 82.2722 88.1231 83.724 86.0126C84.1759 85.3482 84.6759 84.7815 85.2239 84.3125C94.5501 76.2906 103.569 68.7768 110.828 59.006C116.568 51.2773 119.635 43.6658 119.981 34.3444C120.442 21.8085 114.106 8.35403 101.713 4.45547ZM83.8202 101.656C84.5413 102.418 84.397 102.701 83.3779 102.496C77.4938 101.333 70.0136 93.1355 76.0708 87.273C76.3881 86.9604 76.9265 87.146 76.9842 87.5955C77.7149 93.4091 79.9455 97.6008 83.8202 101.656ZM114.779 35.3997C113.741 48.0822 107.636 56.2702 98.4055 65.5818C86.1085 77.9907 71.8596 89.0806 55.6205 92.7545C54.111 93.0964 52.7746 92.7251 51.6112 91.6308C37.795 78.7235 26.6228 67.7411 18.0851 58.664C15.3833 55.7816 12.624 52.2153 9.80687 47.965C4.34577 39.6989 3.51892 30.7292 7.33592 21.0463C10.2395 13.6694 15.3833 8.70578 22.7674 6.1556C34.0934 2.24726 46.2655 7.35741 53.563 16.9719C55.7167 19.7957 57.7069 22.4924 59.5433 25.0426C59.8029 25.4041 60.149 25.6875 60.572 25.8731C60.9662 26.049 61.4374 25.9708 61.7546 25.6777C65.437 22.2482 69.0425 17.861 72.523 15.2034C86.1854 4.72906 104.694 3.7422 112.674 21.7889C114.395 25.6777 115.145 31.0517 114.779 35.3997Z" fill="black"/>
<path d="M60.5529 30.5045C60.7452 30.7683 61.1298 30.7585 61.3124 30.4849C64.8987 25.0133 69.283 20.3819 74.4556 16.5908C79.5802 12.8388 87.1181 9.88802 93.3387 10.7576C98.944 11.5393 104.357 15.5258 107.578 20.0692C110.059 23.5672 110.789 28.7946 110.895 33.1035C111.068 40.5293 107.713 48.4926 103.492 54.4528C94.6752 66.9399 83.753 76.9843 70.7252 84.5762C66.6774 86.9408 62.4758 88.7484 57.9377 89.7059C55.8321 90.1554 53.9284 89.5007 52.2074 87.7518C42.9293 78.3229 33.7281 68.8745 24.6135 59.4066C14.0278 48.4144 4.17279 37.5004 11.2299 21.144C13.4509 15.9948 17.1044 12.3503 22.1713 10.2202C35.3434 4.68017 49.073 13.4348 56.4763 24.6224C57.832 26.6645 59.1876 28.6187 60.5529 30.5045Z" fill="black"/>
</g>
<defs>
<clipPath id="clip0_2085_121">
<rect width="120" height="110" fill="white"/>
</clipPath>
</defs>
</svg>
