<svg width="145" height="120" viewBox="0 0 145 120" fill="none" xmlns="http://www.w3.org/2000/svg">
<g clip-path="url(#clip0_2028_315)">
<path d="M141.045 42.6944C136.561 34.1894 129.377 29.0545 119.502 27.2896C118.048 27.0361 117.171 26.5949 116.406 25.2338C111.582 16.5691 104.927 9.97912 96.4401 5.44497C90.6533 2.35649 84.6588 0.591649 78.4472 0.150438C63.3902 -0.938508 46.7473 3.9993 36.7314 15.3769C32.7382 19.9111 29.8307 25.1962 28.0182 31.2136C27.3574 33.4102 26.6588 34.7245 24.582 35.4661C20.1168 37.0807 15.6233 38.9958 11.97 41.8965C3.92704 48.2988 -0.0661284 56.6254 -4.76875e-05 66.8672C0.0471528 74.7433 2.60542 81.8777 7.70308 87.9514C14.4811 96.0246 25.1389 98.0429 35.6835 96.4752C36.4954 96.3532 37.2695 96.8414 37.5244 97.6299C39.8089 104.905 44.7649 108.801 52.3831 109.327C58.2454 109.74 63.041 109.693 66.7698 109.195C71.5559 108.557 77.5504 107.252 84.7438 105.271C86.6412 104.746 88.6708 105.281 90.1718 106.144C98.4697 110.866 106.928 115.288 115.547 119.399C116.708 119.953 117.709 120.132 118.539 119.916C119.37 119.7 119.833 118.827 119.54 118.019C118.511 115.203 117.482 112.321 116.444 109.364C114.858 104.868 113.97 100.39 113.772 95.9402C113.744 95.2361 114.206 94.6165 114.886 94.4382C130.056 90.5987 142.036 80.357 144.575 64.6423C145.755 57.3389 144.462 49.1718 141.045 42.6944ZM48.3994 19.207L43.5944 24.8207C43.4905 24.9427 43.3111 24.9615 43.1884 24.8583L43.0185 24.7081C42.1783 23.9946 42.2727 22.5114 43.2356 21.3849L44.9254 19.4135C45.8883 18.287 47.3515 17.9491 48.1917 18.6625L48.371 18.8127C48.4843 18.9066 48.5032 19.085 48.3994 19.207ZM94.8447 66.0692C90.0302 70.5283 84.8476 74.3114 79.7688 78.639C77.8525 80.2725 75.8889 81.8026 73.8782 83.2389C73.6044 83.4267 73.359 83.3891 73.1608 83.1357C69.9794 79.1647 66.817 75.7383 63.6735 72.8658C58.6608 68.3035 50.7216 61.6947 49.9947 55.2173C49.0507 46.9563 54.762 40.8545 63.2298 41.3708C66.6376 41.5867 69.9794 43.9148 72.4339 46.3556C73.3024 47.2192 74.218 47.9702 75.1904 48.6085C75.4075 48.7494 75.7001 48.7212 75.8701 48.5241C77.22 47.0314 78.6738 45.6327 80.2503 44.3091C85.6783 39.728 94.3632 39.1178 99.4703 44.5344C106.314 51.7815 100.594 60.7465 94.8447 66.0692ZM103.001 27.421C102.907 27.4961 102.803 27.5525 102.68 27.5806C100.99 28.0124 99.8763 27.3835 99.3287 25.6937C98.1298 21.9669 95.2884 18.9441 90.8138 16.6067C85.3007 13.7435 80.3164 12.7484 75.8512 13.6402C74.6523 13.8749 74.2841 13.4337 74.7561 12.3166C74.8033 12.1946 74.8694 12.035 74.9544 11.8378C75.3981 10.7864 76.1627 10.1105 77.2672 9.81953C87.7835 7.00329 99.7818 14.4945 103.907 23.9289C104.502 25.2807 104.2 26.4447 103.001 27.421ZM129.546 68.0594C129.386 70.4532 128.291 72.3776 126.261 73.8139C125.752 74.1706 125.072 73.72 125.204 73.1192C127.328 63.4971 126.073 55.1516 118.747 48.2706C118.398 47.942 118.199 47.482 118.209 47.0127C118.218 46.2523 118.473 45.7735 118.992 45.567C120.286 45.0507 121.324 45.1727 122.127 45.9519C128.489 52.1288 130.16 59.1037 129.546 68.0594Z" fill="black"/>
</g>
<defs>
<clipPath id="clip0_2028_315">
<rect width="145" height="120" fill="white"/>
</clipPath>
</defs>
</svg>
