<svg width="65" height="60" viewBox="0 0 65 60" fill="none" xmlns="http://www.w3.org/2000/svg">
<g clip-path="url(#clip0_2024_195)">
<path d="M57.5829 0.884792C47.3732 -3.31969 39.0849 8.3173 34.963 16.6229C34.5497 17.473 34.0359 17.5304 33.4104 16.8182C28.4061 11.0514 20.1847 4.28514 12.2873 5.29605C3.03831 6.47928 -1.64205 15.0376 0.524989 24.1013C1.42978 27.8808 2.96011 31.7521 5.13832 35.7268C8.95857 42.6998 13.0357 49.0525 17.3698 54.7734C20.7879 59.2765 24.8763 62.114 30.1821 58.0244C39.3195 50.9939 47.2057 43.6763 53.8185 36.0715C59.8281 29.1789 63.4697 22.3437 64.7654 15.589C65.8601 9.86813 63.2239 3.2053 57.5941 0.896279L57.5829 0.884792ZM53.5616 28.0186C52.1206 30.2587 50.5903 32.2461 48.9706 33.9922C42.6929 40.8159 35.8455 46.8354 28.4619 52.0738C27.6241 52.6596 26.5741 53.1421 25.3231 53.5327C24.9544 53.6476 24.5635 53.6016 24.2284 53.4293C22.3741 52.4529 20.6427 50.9135 19.0565 48.8228C13.449 41.4132 0.737224 23.435 7.24951 13.7739C10.165 9.42012 15.5714 9.58094 19.6597 12.0508C25.3454 15.4856 29.2774 20.9422 32.5614 26.4908C33.4327 27.9727 33.846 29.7533 33.8013 31.8555C33.8013 32.0967 33.5779 32.2805 33.3545 32.2346L33.0529 32.1772C32.9636 32.1542 32.8965 32.0967 32.8854 31.9819C32.8072 31.3615 32.5726 30.8446 32.137 30.4195C31.7907 30.0979 31.6566 30.1668 31.7125 30.6493C31.813 31.6487 32.3045 32.7056 32.0141 33.682C31.9471 33.9233 31.8018 34.1071 31.5896 34.2679C31.355 34.4287 31.221 34.7044 31.2098 34.9916C31.1875 37.3121 30.7853 39.6786 30.0258 42.0795C29.9364 42.3437 30.1933 42.5965 30.4391 42.4931C31.0199 42.2633 31.5449 41.8842 31.9917 41.3443C32.3268 40.9422 32.5391 40.4712 32.6396 39.9543C33.2316 36.7377 34.0918 33.5212 35.22 30.2817C36.013 27.9612 35.8232 24.7561 37.0631 22.8492C40.1796 18.0588 43.2849 13.4178 46.3679 8.94912C50.0206 3.65332 57.9292 3.05596 59.5042 10.2013C61.0345 17.0479 57.3148 22.2059 53.5728 27.9842L53.5616 28.0186Z" fill="black"/>
<path d="M14.298 21.9761C14.0411 23.1937 13.7953 23.1823 13.5831 21.9761C13.248 20.0346 13.5384 17.7601 14.4432 15.1409C14.5549 14.8078 14.756 14.7503 15.0129 15.003L15.3815 15.3592C15.5602 15.52 15.6384 15.7612 15.5826 15.991L14.2868 21.9875L14.298 21.9761Z" fill="black"/>
<path d="M20.4527 16.8638L15.9958 14.5088C15.8729 14.4399 15.8059 14.2791 15.8506 14.1297C15.9064 13.9919 16.0516 13.9 16.1968 13.923C19.5703 14.5203 23.0554 16.3928 22.4746 20.5858C22.3852 21.2865 23.0219 22.2285 22.9884 23.2165C22.9102 26.3871 22.6868 29.5576 22.3182 32.7053C22.2623 33.1648 22.1506 33.1877 21.9607 32.7627C21.6815 32.1309 21.5586 31.4416 21.5586 30.6719C21.6256 26.6857 21.6256 22.6536 21.5027 18.564C21.4804 17.8402 21.0783 17.174 20.4416 16.8408L20.4527 16.8638Z" fill="black"/>
<path d="M26.6747 24.6757C25.7923 27.7429 25.8146 31.3041 26.7417 35.3592C26.7864 35.5201 26.7417 35.6234 26.5742 35.6924L26.0268 35.9106C25.7699 36.014 25.6135 35.9336 25.5465 35.6464C24.9992 32.6252 24.9992 29.3397 25.5242 25.79C25.9151 23.1019 25.1891 20.701 23.3348 18.5528C23.1784 18.369 23.2343 18.0818 23.4465 17.9669L23.7481 17.8061C23.7481 17.8061 23.804 17.7946 23.8263 17.8176C25.4013 19.5522 26.2949 21.3788 27.9816 23.3891C30.1152 25.9394 30.171 29.2593 29.6572 32.5907C29.5455 33.3029 29.4003 33.3029 29.2216 32.6022C28.8641 31.1892 28.7859 29.8452 28.9758 28.57C29.0763 27.9612 28.9646 27.3408 28.6742 26.8009L27.5013 24.5608C27.155 23.906 26.8758 23.9405 26.6747 24.6527V24.6757Z" fill="black"/>
<path d="M16.7553 27.1798C16.733 27.5014 16.4761 27.7427 16.1633 27.7197H16.0963C15.7835 27.7082 15.549 27.4325 15.5713 27.1109L15.8282 22.0907C15.8506 21.7691 16.1075 21.5279 16.4202 21.5508H16.4873C16.8 21.5623 17.0346 21.838 17.0123 22.1597L16.7553 27.1798Z" fill="black"/>
<path d="M39.3975 29.2476C38.9507 33.0386 39.3864 33.142 40.6821 29.5693C42.7375 23.9289 44.5917 19.0236 46.2561 14.8421C47.0939 12.7169 48.2556 11.0512 49.5625 9.32806C50.1657 8.53541 51.2046 8.25971 52.0982 8.65029C55.9966 10.3619 55.3934 12.8663 53.9525 16.0598C51.3721 21.7807 48.6354 27.8462 44.6811 32.7169C43.9774 33.5785 43.8768 33.5096 44.3683 32.4987C47.295 26.5595 50.1769 20.4366 53.0141 14.1069C53.6285 12.7514 53.4945 11.3614 52.6008 9.95988C52.1987 9.31657 51.2716 9.33955 50.903 10.0058C50.054 11.5682 49.6742 13.2683 49.7636 15.0834C49.7971 15.6578 49.5625 16.1402 49.0599 16.5193C48.7918 16.7261 48.546 16.7146 48.3115 16.4504C48.1997 16.3355 48.088 16.2321 47.9428 16.1632C47.6859 16.0368 47.5966 16.1173 47.6524 16.4045L47.9428 17.6911C48.0322 18.1161 47.9875 18.5182 47.7864 18.8973C45.3625 23.5957 43.0167 28.3401 40.7603 33.119C40.3694 33.9576 39.9672 34.7962 39.5651 35.6233C39.1741 36.4045 38.8837 36.7491 38.6827 36.6572C37.722 36.1632 37.1747 35.0949 37.3422 34.0035C38.1241 28.8341 38.5709 23.837 41.2071 19.2764C41.4082 18.9202 41.5311 18.9432 41.5758 19.3683C41.6316 20.046 41.5422 20.7123 41.3077 21.3786C40.2577 24.308 39.6098 26.9386 39.3417 29.2591L39.3975 29.2476Z" fill="black"/>
</g>
<defs>
<clipPath id="clip0_2024_195">
<rect width="65" height="60" fill="white"/>
</clipPath>
</defs>
</svg>
