<svg width="50" height="100" viewBox="0 0 50 100" fill="none" xmlns="http://www.w3.org/2000/svg">
<g clip-path="url(#clip0_2045_651)">
<path d="M18.3354 78.4364C18.1511 77.8507 17.7898 77.3274 17.2516 76.8666C15.062 74.9922 12.9092 73.0631 10.8081 71.0716C7.63794 68.0803 3.87061 65.2374 0.597244 62.2852C0.0737994 61.8166 -0.10314 61.2309 0.0590544 60.528C0.132779 60.2 0.294973 59.9735 0.545637 59.8563C1.5999 59.3643 2.60255 59.4814 3.56834 60.2234C10.0635 65.214 15.8951 70.3999 21.0558 75.7888C21.7857 76.562 22.4418 77.4289 23.0095 78.3896C23.1496 78.6239 23.4887 78.5614 23.5403 78.2881C23.8426 76.6479 23.7468 75.125 22.7367 73.7114C21.8668 72.4852 20.9231 71.3762 19.9131 70.3687C14.2437 64.7688 8.05817 58.716 1.34186 52.2181C1.13543 52.0228 0.980612 51.7729 0.892142 51.4917C0.265483 49.5783 0.744693 48.6879 2.34452 48.8051C2.6173 48.8285 2.88271 48.9457 3.09651 49.1253C9.94552 55.0375 16.6545 61.473 23.2307 68.4396C23.3192 68.5333 23.474 68.4864 23.4961 68.3537C24.1891 64.6048 23.673 63.0819 21.1369 60.0438C16.1679 54.1003 10.6901 47.6726 4.7037 40.7685C4.03281 39.9953 4.00332 39.0816 4.62998 38.0272C4.72582 37.8632 4.8659 37.7538 5.03546 37.707C6.02337 37.4493 6.85646 37.707 7.52735 38.4489C13.182 44.736 18.5492 50.9841 23.6288 57.1931C23.8279 57.4352 23.9679 57.4039 24.0417 57.0837C24.6904 54.2877 24.2849 51.8432 22.8326 49.7423C18.5934 43.627 13.6981 36.965 8.16138 29.7642C7.94021 29.4752 7.82225 29.1159 7.81488 28.7488C7.80013 27.6632 8.0508 27.0541 8.57424 26.9291C9.68011 26.6558 10.5795 26.9291 11.2652 27.7414C16.0647 33.4739 20.3259 39.3549 24.0343 45.3765C24.4914 46.1262 24.7494 46.0559 24.801 45.1656C24.978 41.9478 22.6778 36.5355 21.2401 33.802C18.1068 27.8429 15.0767 22.1103 12.1646 16.6042C11.6412 15.6123 11.796 14.3783 12.5554 13.5973C12.6438 13.5114 12.7471 13.4567 12.8576 13.4411C13.8677 13.3084 14.6049 13.6442 15.0841 14.433C19.0652 21.0481 22.6114 28.2178 25.7299 35.9341C25.8921 36.3324 26.0101 36.3168 26.0838 35.8872C26.4819 33.513 26.8727 31.334 27.256 29.3424C27.5288 27.9132 27.2339 26.0778 26.3566 23.8519C24.3734 18.7988 22.2133 13.5973 19.8762 8.23182C19.456 7.27899 19.6256 6.38084 20.3849 5.53735C20.4955 5.4202 20.6356 5.34991 20.8051 5.33429C21.7267 5.24838 22.287 5.39677 22.4861 5.77946C25.2065 11.0825 27.5657 16.5495 29.5784 22.1806C29.6742 22.4461 29.7701 22.4461 29.8733 22.1884C30.2493 21.2512 30.264 20.1422 30.5442 19.1347C32.2472 12.9725 34.1198 6.84163 36.1546 0.757592C36.3315 0.226508 36.8402 -0.0858941 37.3637 0.0156366L37.865 0.109357C38.5212 0.234318 38.7866 0.648252 38.6686 1.34335C37.9609 5.4983 37.113 9.12217 36.1325 12.215C34.164 18.4239 32.3652 24.2503 30.7358 29.6939C30.3304 31.0606 30.5737 31.209 31.4731 30.1468L42.694 16.9088C43.3944 16.0809 44.2201 15.9169 45.1564 16.4168C45.2301 16.4558 45.3038 16.5027 45.3702 16.5417C45.8494 16.8541 45.9673 17.5414 45.6282 18.0178C41.072 24.3674 36.0956 30.0766 30.7064 35.1453C30.1755 35.6451 29.7627 36.4339 29.4604 37.5039C28.4651 41.0263 27.9196 44.2206 27.8311 47.0791C27.8237 47.4383 27.9269 47.4852 28.1555 47.2118C33.3236 41.0341 38.9193 35.2312 44.9352 29.7954C45.6135 29.1862 46.336 29.0066 47.1101 29.2643C47.7662 29.483 48.0464 30.3031 47.6704 30.9122C46.7783 32.3649 45.724 33.716 44.5223 34.9578C39.8703 39.7845 35.1888 44.5798 30.4778 49.3518C29.0623 50.7888 28.126 52.2337 27.6689 53.6864C27.256 55.0063 27.0349 57.1697 27.0054 60.1843C27.0054 60.5045 27.116 60.5592 27.3371 60.3327C31.8712 55.7795 36.4716 51.3277 41.1384 46.9619C43.0478 45.1812 45.0605 43.5567 47.1764 42.0806C47.4123 41.9166 47.6335 41.7838 47.8473 41.6979C49.0638 41.1903 50.0664 42.8148 49.1449 43.7988C43.9989 49.3049 38.2926 54.8501 32.0187 60.4499C30.1977 62.0666 28.4872 63.816 26.8727 65.6904C26.7768 65.7998 26.7326 65.9247 26.7252 66.0731C26.6294 68.955 26.563 70.7826 26.5335 71.5558C26.5262 71.7432 26.5925 71.7745 26.7179 71.6495C33.2572 65.4093 39.6049 60.0125 45.7535 55.4514C46.159 55.1468 46.6014 54.8969 47.0732 54.7095C48.5846 54.1081 49.3513 54.4361 49.3808 55.7092C49.3882 56.045 49.2555 56.3574 49.0195 56.5761C43.4681 61.7463 36.8255 67.682 29.0992 74.383C27.2782 75.9607 26.4746 78.2021 26.6884 81.1075C26.7105 81.3808 26.8211 81.4355 27.0275 81.2715C32.2546 77.2025 37.9314 73.6333 44.0579 70.5639C45.5471 69.8219 47.1543 69.2987 48.8721 69.0019C49.4398 68.9004 49.9632 69.3455 50.0001 69.9547C50.0222 70.3687 49.8305 70.7826 49.425 71.1965C49.0638 71.5714 48.0759 72.2118 46.4687 73.1256C39.5533 77.0697 34.2525 80.2406 30.5589 82.6383C29.5268 83.3099 28.4283 84.333 27.256 85.7154C26.7916 86.2699 26.74 86.7463 26.7621 87.4493C26.8432 90.7295 26.9022 94.1815 26.9243 97.7976C26.9317 98.6801 26.4008 99.4689 25.612 99.7657L25.1328 99.9454C24.6462 100.125 24.1154 99.797 24.0417 99.2503C23.5624 95.7982 23.2897 92.4086 23.2381 89.0894C23.2012 86.3637 21.9626 84.3487 19.5371 83.0522C14.4353 80.3265 8.33832 77.593 1.24602 74.8516C0.678341 74.6251 0.324463 74.2034 0.184386 73.5786C0.0664269 73.0553 0.324463 72.5711 0.965867 72.1181C1.25339 71.915 1.60727 71.8369 1.9464 71.8994C7.92547 73.0006 13.3 75.2578 18.07 78.6551C18.3575 78.866 18.446 78.7879 18.3354 78.4364Z" fill="black"/>
</g>
<defs>
<clipPath id="clip0_2045_651">
<rect width="50" height="100" fill="white"/>
</clipPath>
</defs>
</svg>
