<svg width="126" height="160" viewBox="0 0 126 160" fill="none" xmlns="http://www.w3.org/2000/svg">
<g clip-path="url(#clip0_2059_43)">
<path d="M64.2985 13.6658C64.2985 13.8588 64.145 14.0132 63.966 14.0261L60.0781 14.1161C59.8863 14.1161 59.7328 13.9746 59.72 13.7816L59.4131 0.450378C59.4131 0.257359 59.5666 0.102944 59.7456 0.0900756L63.6463 0C63.8381 0 63.9916 0.141547 64.0043 0.334567L64.3113 13.6658H64.2985Z" fill="black"/>
<path d="M86.6665 14.2963C86.1678 15.4287 84.8633 15.9305 83.7506 15.4416L83.5588 15.3643C82.4462 14.8625 81.9346 13.55 82.4206 12.4305L84.9272 6.67848C85.426 5.5461 86.7305 5.04425 87.8431 5.53324L88.035 5.61044C89.1476 6.11229 89.6592 7.42482 89.1732 8.54433L86.6665 14.2963Z" fill="black"/>
<path d="M43.5291 15.4029C43.9767 16.5997 43.3756 17.9379 42.1734 18.3883L41.6747 18.5813C40.4853 19.0317 39.1552 18.4269 38.7076 17.2173L35.7661 9.3164C35.3185 8.11968 35.9196 6.78142 37.1218 6.33104L37.6205 6.13802C38.8099 5.68764 40.14 6.29243 40.5876 7.50202L43.5291 15.4029Z" fill="black"/>
<path d="M27.095 23.9343C27.7089 25.0667 27.2869 26.4822 26.1614 27.1127L25.8929 27.2543C24.7546 27.8719 23.3478 27.4473 22.734 26.3149L18.1171 17.7706C17.5033 16.6382 17.9253 15.2227 19.0507 14.5922L19.3193 14.4507C20.4575 13.833 21.8643 14.2576 22.4782 15.39L27.095 23.9343Z" fill="black"/>
<path d="M98.816 20.7303L102.781 15.3644C103.241 14.7467 104.06 14.5151 104.763 14.7982L106.592 15.5317C107.666 15.9692 107.999 17.346 107.231 18.2211L104.725 21.1163C104.584 21.2708 104.43 21.3994 104.251 21.4895L100.965 23.2396C99.3788 24.0888 97.7418 22.1844 98.816 20.7303Z" fill="black"/>
<path d="M15.0737 41.3318C15.1632 42.3355 14.997 43.0947 14.6005 43.6094C14.3319 43.9568 13.9866 44.0984 13.5518 44.0598C9.2419 43.6094 5.30287 42.2068 1.73473 39.8262C1.09528 39.4016 0.801135 38.6167 1.00576 37.8703C1.50453 36.0302 3.09037 35.5026 5.77607 36.2747C5.87838 36.3133 5.98069 36.339 6.07022 36.3776C8.66639 37.4714 11.4544 38.8097 14.4342 40.3667C14.8307 40.5726 15.0353 40.8943 15.0737 41.3318Z" fill="black"/>
<path d="M110.39 41.3319C113.037 38.977 117.424 37.1884 120.634 36.2748C121.491 36.0303 122.386 36.5321 122.642 37.3943L122.872 38.1792C123.141 39.0929 122.732 40.0708 121.887 40.5083C118.55 42.2198 115.135 43.2878 111.643 43.7382C110.096 43.9312 109.584 43.2878 110.083 41.7951C110.147 41.615 110.249 41.4606 110.39 41.3319Z" fill="black"/>
<path d="M11.288 67.5953C11.6205 68.9979 9.44641 70.7351 6.4282 71.4557C3.40999 72.1892 0.685923 71.6487 0.353408 70.2332C0.020893 68.8306 2.19503 67.0935 5.21324 66.3729C8.23145 65.6394 10.9555 66.1798 11.288 67.5953Z" fill="black"/>
<path d="M125.315 69.1008C125.315 70.3619 122.77 71.3913 119.637 71.3785C116.516 71.3656 113.984 70.3233 113.984 69.0494C113.984 67.7754 116.529 66.7589 119.662 66.7717C122.783 66.7846 125.315 67.8269 125.315 69.1008Z" fill="black"/>
<path d="M122.041 98.6199C121.478 99.5078 120.302 99.7652 119.406 99.199L109.661 92.9065C108.779 92.3275 108.523 91.1436 109.086 90.2558L109.712 89.2778C110.275 88.3899 111.452 88.1325 112.347 88.6987L122.092 94.9912C122.974 95.5702 123.23 96.7541 122.668 97.642L122.041 98.6199Z" fill="black"/>
<path d="M18.1045 90.7705C18.9486 91.9158 16.9791 94.8368 13.7179 97.3074C10.4439 99.7652 7.10597 100.846 6.24911 99.7009C5.40503 98.5556 7.37454 95.6346 10.6357 93.1639C13.9097 90.7062 17.2477 89.6253 18.1045 90.7705Z" fill="black"/>
<path d="M100.671 35.1938C96.5653 30.0338 91.974 26.2377 86.8712 23.8185C69.5932 15.6088 48.9006 20.2284 34.4106 32.1184C27.0441 38.1534 22.0564 45.8999 19.4474 55.3321C15.8281 68.4188 21.4297 81.5055 30.0879 91.0021C38.2089 99.9196 42.1352 110.999 41.8666 124.24C41.8282 125.913 42.4933 127.496 42.9025 129.117C43.2862 130.622 43.4524 132.128 43.4013 133.634C43.2222 138.755 44.1942 150.542 49.2203 152.794C51.7525 153.926 54.0801 155.368 56.2159 157.105C57.9552 158.52 59.3492 159.369 60.3979 159.64C66.089 161.107 68.5829 157.825 72.2022 154.338C72.5091 154.042 72.8672 153.836 73.2893 153.746C86.0911 150.722 81.8068 136.992 83.6612 127.637C83.9553 126.17 84.0448 124.703 83.9425 123.236C83.6484 118.977 83.4949 116.841 83.4949 116.828C83.8018 112.311 84.4797 108.207 85.5156 104.488C88.5722 93.6014 98.5732 89.9855 104.098 80.7721C111.848 67.8655 109.994 46.9165 100.671 35.1938ZM51.4584 130.043C51.1642 129.67 51.241 129.4 51.6886 129.233C53.3384 128.628 55.1672 128.602 57.1495 129.181C57.6738 129.336 57.6738 129.503 57.1495 129.67C55.9345 130.056 53.4151 130.211 52.0467 130.339C51.8293 130.365 51.6246 130.262 51.4584 130.043ZM72.5603 88.4285C71.2814 91.5425 70.4757 95.7503 70.1559 101.052C69.8106 106.945 69.5293 113.585 69.3119 120.984C69.2863 121.744 68.6852 122.361 67.9307 122.387L59.4899 122.657C58.8888 122.67 58.3772 122.194 58.3517 121.589C57.8529 111.128 57.0472 100.769 53.0442 91.1565C50.6527 85.3788 45.8184 78.8033 42.3654 72.3564C42.0073 71.7002 41.9817 71.0182 42.2886 70.3362L42.4933 69.9115C42.6212 69.6156 43.0176 69.577 43.2095 69.8343C46.2405 74.0936 50.3074 75.5863 55.4358 74.3381C55.845 74.2351 56.1264 73.9907 56.2798 73.5917C56.6251 72.7039 57.1111 71.8803 57.7378 71.134C58.0319 70.7865 58.3261 70.7865 58.6202 71.1211C59.2213 71.816 59.541 72.6267 59.5794 73.5531C59.5922 74.1451 59.8991 74.4668 60.4746 74.5311C63.2499 74.8271 64.8613 73.5918 65.3089 70.8251C65.5007 69.6156 65.9867 69.4869 66.7413 70.452L68.8643 73.1028C69.1584 73.4759 69.5421 73.6947 70.0025 73.7848C75.0669 74.6598 78.1619 72.691 79.3001 67.8655C79.3896 67.4409 79.6582 67.2479 80.093 67.2865C80.9755 67.3765 81.4231 67.917 81.4359 68.895C81.4742 71.8031 80.7197 74.3896 79.1594 76.6672C76.2435 80.9393 74.0438 84.8641 72.5603 88.4285ZM74.939 129.078C75.5529 129.297 75.5401 129.503 74.9135 129.67C73.7497 130.005 72.4708 130.185 71.0768 130.198C70.4501 130.211 70.4117 130.069 70.9617 129.773C71.5244 129.477 72.2661 129.284 72.9184 129.04C73.545 128.808 74.2229 128.821 74.939 129.078ZM52.6222 143.49H52.6094C52.4943 143.336 52.5199 143.22 52.6733 143.13C54.5405 141.921 56.4973 142.41 58.1215 142.178C61.6768 141.676 65.1938 140.608 68.5701 140.479C70.4373 140.402 72.3045 140.376 74.1589 140.415C74.2356 140.415 74.274 140.454 74.274 140.531C74.274 140.582 74.274 140.608 74.274 140.659C74.274 141.251 74.274 141.264 74.274 140.659C74.274 140.647 74.274 140.634 74.2484 140.634C69.3374 141.084 64.516 141.432 59.6562 142.319C57.3669 142.731 55.0137 141.792 52.9803 143.529C52.8524 143.645 52.7373 143.632 52.6222 143.49ZM74.76 145.794C70.4117 146.746 57.8785 148.921 54.2975 146.321C54.0034 146.115 54.0418 145.987 54.3871 145.922C54.6173 145.884 54.8475 145.922 55.0777 146.077C55.3207 146.218 55.5764 146.296 55.845 146.308C62.0605 146.733 68.2376 146.347 74.3763 145.138C74.581 145.099 74.7088 145.176 74.7472 145.382L74.8239 145.717C74.8239 145.717 74.8112 145.781 74.76 145.794ZM75.1437 135.191L52.9931 137.378C52.814 137.391 52.6478 137.262 52.635 137.082L52.5966 136.696C52.571 136.503 52.7117 136.336 52.8908 136.336L75.0414 134.148C75.2204 134.135 75.3867 134.264 75.3994 134.444L75.4378 134.83C75.4634 135.023 75.3227 135.191 75.1437 135.191ZM100.197 75.6635C99.1103 78.0698 97.192 80.579 94.4551 83.217C87.3316 90.0884 81.6533 94.3992 79.4919 104.899C78.4944 109.751 77.8422 114.615 77.5352 119.479C77.4713 120.585 76.9341 121.37 75.9366 121.834C75.5913 122.001 75.2204 122.014 74.7984 121.885C74.338 121.744 74.031 121.319 74.0438 120.843C74.2996 111.23 74.7344 103.342 75.3483 97.153C76.3714 86.9101 84.4924 78.2757 86.8073 69.3839C87.5234 66.6302 86.3596 64.5585 83.3031 63.1687C82.4078 62.7698 80.8092 62.5382 78.52 62.4867C78.0979 62.4738 77.7015 62.5897 77.3434 62.8213C75.489 64.0051 73.9799 65.5364 72.7905 67.4151C72.5347 67.814 72.2533 67.8398 71.9336 67.4923C71.6267 67.1706 71.4988 66.7717 71.5627 66.2956C71.7034 65.2019 71.6395 64.1338 71.3453 63.1044C71.2302 62.6797 70.9617 62.4095 70.5524 62.2808C67.1505 61.1613 64.938 63.9151 62.8918 66.1541C62.3802 66.7203 61.4466 66.5659 61.1525 65.8581L60.2572 63.7992C60.091 63.4003 59.7201 63.1172 59.2981 63.0658C54.4382 62.3838 53.8499 65.5235 52.2257 69.0236C51.7653 70.0145 50.3969 70.0917 49.8214 69.1652C48.6192 67.2092 47.4682 65.2533 45.1406 64.6743C41.7515 63.825 39.1681 64.9574 37.3649 68.0585C37.1475 68.4317 37.0707 68.8435 37.1219 69.281C37.4672 72.1634 38.0938 74.351 39.0019 75.8565C43.9001 83.9376 48.3379 90.6546 50.8701 100.705C52.1362 105.71 52.9419 112.71 53.3128 121.705C53.3384 122.336 53.0442 122.644 52.4303 122.631L49.604 122.593C49.0157 122.58 48.6704 122.284 48.5681 121.705C46.752 111.205 45.3196 102.004 39.6925 93.9746C31.8784 82.8438 23.6167 73.4502 25.6629 58.8193C28.2335 40.4053 44.7569 28.5668 62.4442 25.2598C65.5775 24.6678 69.12 24.7708 73.0718 25.5814C76.9469 26.3664 80.1825 27.4216 82.7531 28.7341C95.8875 35.4254 102.678 46.1316 103.113 60.8396C103.267 66.0769 102.295 71.0182 100.197 75.6635Z" fill="black"/>
<path d="M63.6209 28.6698C63.8383 29.2102 63.5313 29.8536 62.9175 30.0981C62.3164 30.3426 61.6514 30.0981 61.4339 29.5448C61.2165 29.0043 61.5235 28.3609 62.1373 28.1164C62.7384 27.872 63.4035 28.1164 63.6209 28.6698Z" fill="black"/>
<path d="M73.7494 32.4401C73.5448 32.4787 73.3274 32.3757 73.2251 32.1827C72.9821 31.7581 72.8414 31.3077 72.8031 30.8058C72.7647 30.2268 73.0205 29.9437 73.596 29.9437C74.325 29.9308 74.7342 30.304 74.8237 31.0503C74.9388 31.861 74.5807 32.3242 73.7494 32.4401Z" fill="black"/>
<path d="M87.5617 38.6681C84.211 37.8703 81.4485 36.0045 79.2872 33.0577C78.9163 32.543 79.2872 31.8224 79.9266 31.8353C82.9321 31.8867 88.2011 37.4843 89.2498 38.5781C89.5184 38.874 89.5951 39.1829 89.4673 39.4917C89.2498 40.0579 88.9429 40.0965 88.572 39.6204L88.0988 39.0156C87.9709 38.8354 87.7791 38.7196 87.5617 38.6681Z" fill="black"/>
<path d="M92.0508 41.1774C92.038 41.4991 91.9356 41.7436 91.7438 41.9366C91.4624 42.2068 91.002 42.1682 90.7846 41.8337C90.337 41.1903 90.4137 40.5469 91.0148 39.9035C91.3601 39.5303 91.9612 39.6075 92.1914 40.0579C92.2554 40.1737 92.2298 40.3667 92.1403 40.6369C92.0891 40.7785 92.0635 40.9586 92.0508 41.1774Z" fill="black"/>
<path d="M99.3278 53.788C99.4557 54.0839 99.2127 54.4185 98.893 54.3542C97.563 54.0968 97.077 53.106 96.9363 51.742C96.7189 49.6188 95.862 47.6886 94.3913 45.9514C93.9181 45.3981 94.289 44.5488 95.0052 44.5231C95.4016 44.5102 95.8748 44.626 96.3992 44.8834C96.7956 45.0635 97.013 45.3723 97.0514 45.8099C97.2944 48.2676 98.0489 50.9184 99.3278 53.788Z" fill="black"/>
<path d="M98.2151 60.5179C98.7395 59.6043 99.2127 59.63 99.6475 60.5822C100.018 61.3672 99.9672 62.3452 99.494 63.5161C99.1871 64.2882 98.164 64.4169 97.678 63.7478C97.192 63.0658 97.371 61.9849 98.2151 60.5179Z" fill="black"/>
</g>
<defs>
<clipPath id="clip0_2059_43">
<rect width="125" height="160" fill="white" transform="translate(0.314941)"/>
</clipPath>
</defs>
</svg>
