<svg width="150" height="140" viewBox="0 0 150 140" fill="none" xmlns="http://www.w3.org/2000/svg">
<g clip-path="url(#clip0_2086_136)">
<path d="M78.0421 76.8941C76.2033 79.5076 74.0444 81.9463 71.5549 84.21C70.8628 84.8479 70.0881 84.9508 69.2513 84.5187C67.4643 83.6029 66.7618 82.1006 67.1544 80.0015C67.6605 77.3468 68.208 74.3731 68.7865 71.0702C68.9518 70.1235 68.3836 69.1975 67.4643 68.9197C65.233 68.2303 60.44 65.9665 60.3573 63.1986C60.3057 61.4597 61.2044 60.3279 63.0534 59.8237C65.5223 59.1548 68.2494 58.6712 71.214 58.3831C71.6479 58.342 71.9991 58.023 72.0817 57.6011L73.5176 50.5939C73.6622 49.9045 74.2097 49.3592 74.9018 49.2151C77.1227 48.7727 78.6619 49.6987 79.4986 52.0139C80.325 54.2879 81.3476 56.2738 82.5769 57.9715C82.7731 58.2494 83.0934 58.414 83.4342 58.4037C85.8411 58.3625 92.8138 57.6217 91.5742 62.4166C91.1507 64.0527 89.3533 65.8328 88.2583 67.4071C87.7315 68.1582 87.7625 69.146 88.3203 69.8663C89.5599 71.4818 90.9131 73.8895 90.128 75.9577C88.279 80.8247 82.6905 77.6555 79.6948 76.4105C79.106 76.1635 78.4139 76.3693 78.0421 76.8941Z" fill="black"/>
<path d="M79.7982 22.9563C80.5936 20.4045 80.6349 16.9677 82.4427 14.9304C82.6699 14.6629 82.9592 14.5085 83.3104 14.4777C86.368 14.1587 87.7935 18.3465 89.1158 21.0939C90.3347 23.5839 94.0328 22.0405 95.1794 24.4483C96.1607 26.5165 93.1444 27.9982 91.7809 28.9963C88.1551 31.6715 88.4856 34.5835 87.0704 38.1437C86.9362 38.473 86.6986 38.6479 86.337 38.6685C83.2174 38.864 82.8042 35.2523 81.358 33.1841C81.1618 32.9063 80.8932 32.7211 80.5523 32.649C78.7136 32.2786 76.472 32.1757 75.0981 31.1262C73.1148 29.6033 73.0425 26.4547 75.7282 25.4772C76.9678 25.0348 78.1248 24.4483 79.2094 23.7383C79.4987 23.5428 79.6949 23.2855 79.7982 22.9563Z" fill="black"/>
<path d="M119.733 43.1135C120.26 40.0266 120.87 36.6825 121.541 33.0915C121.944 30.9615 123.008 29.3769 124.733 28.3171C125.074 28.1113 125.425 28.0599 125.797 28.173C128.287 28.883 130.105 30.7146 131.231 33.6471C132.45 36.8472 133.792 39.9237 135.249 42.8666C135.662 43.7103 136.53 44.2454 137.47 44.2248C140.91 44.1733 147.541 43.9058 149.68 47.3322C150.248 48.248 150.052 49.4416 149.205 50.1207L139.784 57.7247C139.04 58.3215 138.833 59.371 139.298 60.2045C141.333 63.919 143.048 67.5204 144.432 70.988C145.486 73.653 142.49 75.3816 140.156 74.116C136.819 72.305 133.338 70.2163 129.733 67.8599C128.979 67.366 127.987 67.4484 127.326 68.0452C124.63 70.5044 121.717 72.8195 118.577 74.9906C116.676 76.318 114.011 78.1289 111.883 76.4723C110.654 75.5154 110.282 74.1263 110.767 72.3153C111.831 68.395 113.091 64.4438 114.548 60.4617C114.909 59.4945 114.62 58.4038 113.835 57.7247L106.635 51.5613C101.997 47.5895 102.731 45.3772 108.835 44.9348L118.504 44.2248C119.124 44.1836 119.63 43.7206 119.733 43.1135Z" fill="black"/>
<path d="M115.065 95.9297C110.055 101.877 106.625 105.489 104.776 106.775C92.2872 115.459 78.6725 118.207 64.3036 111.961C52.0214 106.631 42.8795 94.2114 39.0264 81.6992C34.2437 66.1414 35.1734 51.1392 41.8052 36.6926C45.3793 28.9034 50.0587 22.0197 55.8538 16.0312C60.2956 11.4317 65.6258 8.14934 71.1007 4.76406C72.1853 4.09524 72.6708 3.18976 72.5468 2.04762C72.5159 1.69777 72.3506 1.41995 72.0717 1.20387C70.9044 0.349836 69.9231 -0.0514577 69.1277 -9.76771e-06C40.1937 1.90356 12.3134 19.3341 3.59498 47.8671C0.361735 58.4654 -0.691912 69.2077 0.434044 80.0941C2.20045 97.1851 9.36938 111.621 21.9512 123.393C36.7022 137.181 57.3206 143.591 77.03 137.963C94.5288 132.972 108.577 120.254 118.639 104.161C119.682 102.494 120.498 100.848 121.087 99.2121C122.44 95.5079 117.347 93.2236 115.065 95.9297ZM9.40037 52.662C9.05948 53.0222 8.93552 52.9502 9.01816 52.4665C9.05948 52.2299 9.13179 52.0138 9.22476 51.808C9.514 51.1803 9.59664 50.4601 9.93752 49.8941C10.1751 49.4929 10.3197 49.5237 10.3714 49.9868C10.485 50.9643 10.1648 51.8595 9.40037 52.662ZM19.534 78.7461C19.472 78.8799 19.3067 78.9416 19.1724 78.8696L19.1311 78.849C18.9968 78.7873 18.9452 78.6227 19.0071 78.4889L23.1081 69.8868C23.1701 69.753 23.3354 69.6913 23.4696 69.7633L23.511 69.7839C23.6453 69.8456 23.6969 70.0103 23.6349 70.144L19.534 78.7461ZM20.381 47.9494C20.7426 47.116 21.1661 46.4883 21.3107 46.5603C21.4657 46.6221 21.3107 47.3526 20.9492 48.1964C20.5876 49.0298 20.1641 49.6575 20.0195 49.5855C19.8645 49.5237 20.0195 48.7932 20.381 47.9494ZM24.5749 93.8924C23.2114 96.0635 21.8479 97.6584 21.538 97.4629C21.2177 97.2571 22.0545 95.3432 23.418 93.1721C24.7815 91.001 26.1451 89.4061 26.455 89.6016C26.7752 89.8074 25.9385 91.7213 24.5749 93.8924ZM23.7899 59.2988C23.9758 57.8171 24.6989 55.718 25.5769 54.473C25.8972 54.0203 26.0418 54.0717 25.9901 54.6274C25.8455 56.2634 24.9158 57.8994 24.0688 59.3914C23.8105 59.8339 23.7176 59.803 23.7899 59.2988ZM27.271 80.66C26.4137 82.8517 25.515 84.5392 25.267 84.4466C25.0191 84.3437 25.5046 82.4915 26.362 80.3102C27.2194 78.1185 28.1181 76.431 28.366 76.5236C28.6139 76.6265 28.1284 78.4786 27.271 80.66ZM27.3124 30.1073C26.6616 31.198 25.9695 32.1446 25.2361 32.9369C22.4676 35.9003 19.5546 39.3988 16.4867 43.4323C15.6499 44.5333 14.7409 45.3667 13.7389 45.9327C13.5117 46.0664 13.2327 45.8915 13.2534 45.6343C13.5633 41.6419 15.0508 39.7486 17.6952 36.0752C21.5173 30.7658 25.4013 26.0738 31.2377 22.4518C33.6756 20.9393 36.1754 19.2724 38.7269 17.4511C39.0058 17.2453 39.326 17.1836 39.6669 17.2556C41.1234 17.5643 42.2907 18.2846 43.1894 19.4061C43.4063 19.684 43.4579 19.9823 43.3443 20.3013C41.9808 24.2114 36.4749 27.5452 32.8905 29.8501C31.7232 30.6115 30.6179 30.5703 29.5953 29.7163C28.8722 29.1195 27.7875 29.3047 27.3124 30.1073ZM33.3037 94.839C32.4876 96.722 31.6509 98.1729 31.434 98.0802C31.217 97.9876 31.6819 96.3825 32.4876 94.4892C33.3037 92.6062 34.1404 91.1554 34.3573 91.248C34.5743 91.3406 34.1094 92.9457 33.3037 94.839ZM31.4546 119.421C31.2274 119.616 30.8348 119.534 30.5869 119.236C30.3287 118.948 30.3183 118.546 30.5559 118.351C30.7832 118.155 31.1757 118.238 31.4236 118.536C31.6819 118.824 31.6922 119.225 31.4546 119.421ZM37.4563 105.18L32.1364 113C32.0124 113.175 31.7852 113.216 31.6199 113.103L31.434 112.98C31.2687 112.866 31.2274 112.63 31.3307 112.465L36.6506 104.645C36.7745 104.47 37.0018 104.429 37.167 104.542L37.353 104.666C37.5183 104.779 37.5596 105.015 37.4563 105.18ZM41.3506 115.109C41.1854 115.511 40.8961 115.768 40.7102 115.696C40.5243 115.614 40.5139 115.223 40.6895 114.821C40.8548 114.42 41.144 114.163 41.33 114.235C41.5159 114.317 41.5263 114.708 41.3506 115.109ZM43.6852 126.212C43.365 126.809 43.0138 127.344 42.6315 127.827C42.1254 128.455 41.9704 128.383 42.177 127.601C42.332 127.056 42.7555 126.521 43.4476 126.006C43.8298 125.728 43.9021 125.8 43.6852 126.212ZM54.201 121.89C53.8085 122.178 53.354 122.24 53.1783 122.024C53.0131 121.798 53.2093 121.386 53.6122 121.098C54.0047 120.81 54.4592 120.748 54.6349 120.964C54.8001 121.191 54.6039 121.602 54.201 121.89ZM60.8431 123.372C60.2646 124.35 59.6862 125.08 59.5415 124.998C59.3969 124.915 59.7481 124.061 60.3266 123.074C60.9051 122.096 61.4836 121.366 61.6282 121.448C61.7728 121.53 61.4216 122.384 60.8431 123.372ZM67.1237 127.21C66.8344 127.467 66.6898 127.395 66.7001 127.015C66.7105 126.757 66.7724 126.521 66.9067 126.294C67.2166 125.769 67.3819 125.481 67.4026 125.409C67.4955 125.152 67.5988 124.895 67.6918 124.648C67.8467 124.257 67.9501 124.267 68.0224 124.689C68.198 125.708 67.8984 126.541 67.1237 127.21ZM78.8791 124.103C77.9494 124.247 77.1643 124.103 77.1126 123.773C77.061 123.444 77.7738 123.074 78.6931 122.93C79.6228 122.786 80.4079 122.93 80.4595 123.259C80.5112 123.588 79.7984 123.959 78.8791 124.103Z" fill="black"/>
</g>
<defs>
<clipPath id="clip0_2086_136">
<rect width="150" height="140" fill="white"/>
</clipPath>
</defs>
</svg>
