<svg width="105" height="140" viewBox="0 0 105 140" fill="none" xmlns="http://www.w3.org/2000/svg">
<g clip-path="url(#clip0_2413_162)">
<path d="M29.3198 15.4016C31.7697 13.4528 33.37 11.5239 36.7189 10.9502C40.0579 10.3765 43.3969 10.2973 46.7358 10.7029C48.5337 10.9304 49.7883 11.6426 50.7466 13.0868C50.9639 13.4034 50.875 13.8386 50.5589 14.0464C50.2526 14.2541 49.9167 14.1552 49.5611 13.7595C48.8103 12.9187 47.8817 12.5725 46.7753 12.711C46.5086 12.7505 46.479 12.8494 46.6766 13.0275C47.2989 13.5814 48.0892 13.621 48.6424 14.175C49.2252 14.7586 49.3537 15.4213 49.0178 16.1434C48.9091 16.3907 48.9091 16.6281 49.0178 16.8557L49.5018 17.8152C49.7192 18.2306 49.3438 18.7153 48.8894 18.6164C48.2967 18.4977 47.6941 18.2999 47.0717 18.0328C46.963 17.9833 46.8544 17.9636 46.7655 17.9833C46.6469 18.0031 46.558 18.0526 46.4987 18.1218C46.3308 18.3098 46.3604 18.4483 46.5778 18.5571L46.805 18.6659C46.9334 18.7252 46.9433 18.7945 46.8247 18.8835C46.5679 19.0813 46.2814 19.1901 45.9455 19.2099C45.7085 19.2297 45.4911 19.3089 45.2837 19.4473C43.219 20.8322 41.1544 21.5147 39.0898 21.4851C38.2402 21.4653 36.6003 21.0795 34.1801 20.3079C34.1307 20.2881 34.1011 20.3079 34.0912 20.3475L34.022 20.5354C33.9726 20.664 34.0319 20.8124 34.1603 20.8619C38.9317 22.9491 42.7053 25.7188 45.4812 29.1909C47.9114 32.2376 47.3187 37.411 46.3802 40.9721C46.2814 41.3381 45.9554 41.5854 45.58 41.5953C44.6218 41.6151 43.8513 41.1699 43.2487 40.25C42.3793 38.9047 41.4804 37.5891 40.5222 36.3031C39.4158 34.8193 38.7835 33.3751 38.0426 31.7529C37.9932 31.644 37.9142 31.6144 37.7957 31.6638L37.6277 31.743C37.6277 31.743 37.5882 31.7726 37.608 31.8023C38.6255 33.7708 39.1984 35.7789 39.3269 37.8265C39.3466 38.2024 39.2478 38.2419 39.0107 37.9551C37.2721 35.858 35.8199 33.5532 34.6444 31.0209C34.3678 30.4372 33.7059 30.1504 33.0836 30.3383C32.234 30.6153 31.5721 30.9813 31.1177 31.4462C30.4756 32.0892 30.2286 31.9606 30.3669 31.0703C30.4657 30.457 30.2879 29.9031 29.8236 29.4382C29.5371 29.1513 29.3889 29.2106 29.3889 29.6162C29.3889 30.5362 29.4087 31.4462 29.4877 32.3365C29.5075 32.5838 29.4581 32.8113 29.3297 33.0289C28.1541 35.0271 27.5614 37.1934 27.5515 39.5576C27.5515 43.0197 27.5812 46.4819 27.6602 49.9441C27.6997 51.5564 27.265 53.7327 27.3243 55.6319C27.5713 64.2576 27.7787 72.8834 27.9368 81.5091C28.0751 89.3039 28.5295 97.2174 28.8357 105.072C28.9345 107.535 29.3494 109.958 29.7051 112.392C29.7051 112.411 29.7051 112.431 29.7347 112.431C29.794 112.471 29.8532 112.5 29.9026 112.52C29.952 112.54 29.9718 112.52 29.9817 112.471C32.3723 86.4451 42.0632 63.9807 59.0742 45.0674C61.4846 42.3867 63.1146 40.4577 63.9543 39.3004C64.1124 39.0926 64.063 38.9443 63.8259 38.8651C61.8798 38.1628 59.9238 38.0144 57.9481 38.42C57.6221 38.4892 57.4937 38.3606 57.5727 38.0342L58.0172 36.036C58.0666 35.8085 57.8888 35.581 57.6517 35.5909L53.5817 35.6404C53.3249 35.6404 53.1668 35.5217 53.0878 35.2843L52.505 33.5136C52.4062 33.2268 52.2382 33.1773 51.9913 33.3455C51.8925 33.4147 51.8431 33.5037 51.8332 33.6224C51.8134 33.7312 51.7344 33.8302 51.6258 33.8598C51.2504 33.9686 50.8849 33.9291 50.5391 33.7312C50.2625 33.573 50.1934 33.6323 50.3317 33.9192C50.4897 34.2555 50.7268 34.5028 51.033 34.6611C51.2405 34.76 51.3788 34.9084 51.4282 35.0765C51.5072 35.3139 51.4282 35.403 51.1812 35.3436C50.2724 35.1161 49.6204 34.5819 49.2154 33.7807C49.0869 33.5433 49.166 33.3949 49.4228 33.3257C49.5216 33.3059 49.6204 33.2762 49.7291 33.2762C49.9167 33.2564 49.9563 33.1575 49.8674 32.9992C49.166 31.8221 47.6941 28.2412 50.0649 27.7269C52.8705 27.1136 56.1502 26.6387 59.8843 26.3222C61.0006 26.2233 61.8205 25.6792 62.3539 24.6703C62.4725 24.4427 62.4033 24.2845 62.1564 24.2152C61.6723 24.0866 61.1981 24.0471 60.7141 24.1064C60.3091 24.146 59.993 23.9976 59.7657 23.6613L59.667 23.503C59.4398 23.1667 59.5188 22.959 59.9238 22.8996C60.3387 22.8304 60.7437 22.7018 61.129 22.494C61.4056 22.3556 61.3858 22.2467 61.0796 22.1676C60.6252 22.0588 60.1905 21.9896 59.7657 21.9401C58.363 21.7719 58.2938 21.396 59.5781 20.7926C59.6571 20.763 59.9732 20.4464 60.556 19.8331C60.8623 19.5166 60.724 18.9824 60.3091 18.8439L59.0545 18.4186C58.3827 18.201 58.2543 17.2909 58.8372 16.8853C60.0424 16.0445 61.3167 15.451 62.6701 15.1048C64.3099 14.6794 65.8609 14.8575 67.3525 15.6489C69.8913 16.9941 72.1536 18.8637 74.1392 21.2674C74.2972 21.4653 74.4256 21.4455 74.5343 21.218C75.7593 18.5966 75.6407 16.005 77.7745 13.7001C77.9424 13.5221 78.061 13.3144 78.1301 13.0868C78.3277 12.4142 78.7722 11.979 79.4736 11.7811C79.7008 11.7119 79.7601 11.5833 79.6514 11.3756C78.9303 10.0006 78.2092 8.2695 79.6514 7.49793C79.8786 7.37922 80.0071 7.44847 80.0466 7.69577C80.1157 8.08155 80.2639 8.40798 80.4714 8.68496C80.6294 8.89268 80.9554 8.76409 80.9258 8.49701C80.827 7.70566 81.1629 7.35944 81.9235 7.46825C83.1485 7.62652 84.0079 8.19036 84.5018 9.13009C84.6105 9.33782 84.7883 9.44663 85.0155 9.45652C85.0847 9.45652 85.144 9.45652 85.2131 9.45652C85.3218 9.43674 85.4107 9.4862 85.4798 9.58512C86.8628 11.6327 86.5862 13.9376 86.7937 16.272C86.9221 17.7855 86.7245 19.0813 86.2108 20.1793C85.5391 21.6137 84.7389 22.8699 83.8103 23.958C83.3757 24.4724 83.4745 24.6307 84.1265 24.4329C86.3689 23.7503 88.6904 23.2162 91.1008 22.8403C92.9481 22.5534 94.4398 22.5831 95.6054 22.9293C98.0257 23.6613 100.535 24.512 103.123 25.4913C103.963 25.8078 104.101 26.3024 103.538 27.0047C103.301 27.2916 102.866 27.3609 102.234 27.1927C101.888 27.0938 101.789 27.2125 101.948 27.5389C102.402 28.4984 102.234 29.3491 101.434 30.1009C101.256 30.2691 101.029 30.368 100.782 30.3779L95.7931 30.4471C94.9831 30.4669 94.9139 30.7043 95.5857 31.1495C99.5766 33.8499 103.251 36.1251 104.793 41.0512C105.207 42.3669 104.96 43.7517 104.239 44.8398C103.894 45.3542 103.202 45.5125 102.669 45.1861C99.626 43.3462 97.0675 41.0611 94.9732 38.3409C94.9534 38.3112 94.8942 38.3013 94.8645 38.3409L94.6867 38.4892C94.5879 38.5684 94.578 38.6673 94.6768 38.7662L98.7864 43.5341C99.1617 43.9595 98.8654 44.6321 98.3023 44.6519C96.4748 44.7112 94.2718 42.3075 92.7801 41.1897C91.9503 40.5566 90.7748 41.2293 90.8736 42.2679C91.1106 44.4837 91.5453 46.7885 92.1874 49.1527C92.385 49.8847 92.385 50.498 92.1874 50.9926C91.7626 52.0411 91.4465 52.0115 91.2292 50.9036C91.1502 50.5277 90.8538 50.0727 90.35 49.5484C90.1722 49.3604 90.1129 49.4 90.1722 49.6473C90.6365 51.5663 90.6859 53.337 90.3204 54.9494C90.0932 55.9583 89.8067 55.9781 89.4412 55.0087C89.3621 54.8109 89.214 54.5636 88.967 54.247C88.799 54.0195 88.7003 54.0591 88.6608 54.3262C88.6311 54.5339 88.641 54.7416 88.6805 54.9494C88.7003 55.0878 88.6608 55.1769 88.5323 55.2362C88.4533 55.2758 88.3743 55.2758 88.2755 55.256C88.1965 55.2362 88.1471 55.1769 88.1372 55.0977C88.0582 54.1976 87.6235 53.8118 86.853 53.9305C86.6159 53.9701 86.4479 53.881 86.3393 53.6634C86.0528 53.1095 85.7564 52.6149 85.4502 52.1796C85.2823 51.9521 85.1736 51.9719 85.1341 52.2588L84.9464 53.6041C84.9266 53.7821 84.818 53.8514 84.65 53.8019C84.5611 53.7821 84.4821 53.7327 84.4228 53.6832C84.3932 53.6634 84.3833 53.6238 84.3734 53.5843C84.2648 52.239 83.8795 50.8244 83.2077 49.3209C83.0596 48.9845 82.9608 49.0043 82.9114 49.3703C82.783 50.4485 82.9904 51.4575 83.514 52.417C83.5337 52.4368 83.514 52.4665 83.5041 52.4665L83.3263 52.5357C83.2176 52.5852 83.1386 52.5555 83.0793 52.4467C82.2594 50.6167 82.1409 48.4998 81.479 46.9864C81.0838 46.106 80.5998 45.285 80.017 44.5233C79.8391 44.2859 79.4736 44.3551 79.3946 44.6519L77.3695 52.6544C77.2904 52.9611 77.162 52.9809 76.9941 52.7237C76.8854 52.5654 76.8064 52.3082 76.757 51.9422C76.7076 51.5465 76.5891 51.5268 76.4014 51.8829C76.2137 52.2687 76.2038 52.7435 75.8877 53.1292C74.7121 54.6031 73.912 56.2353 73.4872 58.006C73.4081 58.3423 73.1908 58.4709 72.8549 58.4016L72.6574 58.3621C72.5586 58.3423 72.4894 58.2533 72.4894 58.1543L72.4499 54.8504C72.4499 54.3954 72.3116 54.3558 72.0449 54.7218C71.5608 55.3846 71.1657 56.0968 70.8595 56.8387C70.8002 56.9772 70.7212 57.0761 70.6322 57.1157C70.5631 57.1454 70.5038 57.1552 70.4347 57.1454C70.2964 57.1256 70.2371 57.0464 70.247 56.8981C70.2865 56.1463 70.2272 55.4044 70.0494 54.6823C69.9803 54.4152 69.8913 54.4053 69.7827 54.6526C69.4172 55.444 69.3184 56.3045 69.4666 57.2443C69.4863 57.3729 69.4369 57.4421 69.3085 57.4421L69.1109 57.4718C69.1109 57.4718 69.0319 57.4421 69.0319 57.3927C68.943 56.0968 68.8442 54.7812 69.0122 53.4557C69.2888 51.2696 69.5258 49.0835 69.7432 46.8875C69.7629 46.6303 69.674 46.5709 69.4666 46.7292C69.0122 47.0754 68.3898 47.659 67.6094 48.4702C66.8981 49.2022 65.2681 50.4288 62.7096 52.1302C61.6723 52.8325 60.8524 53.6832 60.0226 54.524C59.3014 55.2461 58.9656 55.0977 59.0347 54.0888C59.0841 53.3271 59.2619 52.5159 59.5781 51.6455C60.2103 49.9342 59.9436 49.7759 58.768 51.1707C57.3257 52.8819 55.5476 54.4251 54.2535 56.2056C45.6689 68.1353 40.8383 82.1817 38.0723 96.5151C35.573 109.444 34.4271 122.412 34.6444 135.41C34.6641 136.676 35 136.765 35.652 135.687C35.6915 135.608 35.8496 135.519 36.1262 135.39C36.6497 135.143 36.8276 135.301 36.6399 135.855C36.4522 136.429 36.4522 136.844 36.6596 137.082C36.8572 137.309 37.0449 137.309 37.2425 137.082C37.4104 136.894 37.4993 136.676 37.5191 136.409C37.5388 136.152 37.6672 136.043 37.9142 136.083C38.1711 136.122 38.3587 136.29 38.4872 136.597C38.6847 137.062 38.4477 137.606 37.9735 137.774C36.8967 138.17 35.8199 138.595 34.7234 139.08C32.9551 139.852 30.9103 139.871 28.569 139.139C28.3319 139.06 28.1146 139.11 27.9269 139.268L27.3342 139.792C27.1366 139.96 26.9094 140.03 26.6526 139.99L22.1479 139.357C21.9207 139.327 21.733 139.218 21.5947 139.03C21.2588 138.595 21.2094 138.14 21.4268 137.656C21.5552 137.379 21.7231 137.349 21.9503 137.557C22.1084 137.695 22.1578 137.923 22.1084 138.219C22.059 138.467 22.1677 138.615 22.4146 138.655C22.5628 138.674 22.7011 138.615 22.8394 138.457C23.1555 138.061 23.5309 137.804 23.9359 137.665C24.1632 137.586 24.2817 137.428 24.2916 137.191C24.5188 131.661 24.4793 126.636 24.1632 122.105C22.8295 102.698 22.4245 84.1403 22.9481 66.4338C22.9678 65.7414 23.1358 64.0499 23.442 61.3692C23.689 59.1138 23.4618 56.7497 23.7482 54.5735C24.6571 47.5898 24.9436 40.6556 22.6221 34.5127C22.3949 33.9291 22.2566 33.939 22.1973 34.5622L21.9108 37.3022C21.8713 37.6188 21.7824 37.6484 21.6342 37.3517C21.3379 36.768 21.1403 36.1745 21.0316 35.581C20.9921 35.3832 20.7451 35.3139 20.6167 35.4623C18.7694 37.4407 17.7124 39.7158 17.4358 42.3075C17.4358 42.4361 17.3568 42.4955 17.2382 42.4856H17.0407C17.0407 42.4856 16.9814 42.4658 16.9814 42.4262L16.853 40.6753C16.7641 39.4685 16.5665 39.4488 16.28 40.6259C15.9935 41.7635 15.549 43.089 14.9563 44.6222C14.7291 45.2256 14.3043 45.3938 13.7017 45.1465C13.4646 45.0476 13.3263 44.8794 13.2868 44.6321C13.2077 44.0584 13.1584 43.4945 13.1682 42.9208C13.1682 42.5251 13.0398 42.2976 12.7731 42.2185C12.615 42.169 12.5162 42.2185 12.4866 42.3866C12.4669 42.4757 12.4076 42.5548 12.2989 42.6142C11.8346 42.8911 11.6469 42.7526 11.7457 42.2284C11.8544 41.5656 11.7753 40.9622 11.4889 40.3984C11.479 40.3687 11.4395 40.3489 11.4 40.3588C11.3604 40.3588 11.3407 40.3984 11.3506 40.4379C11.5086 41.3876 11.4 42.1789 11.0246 42.812C10.5998 43.5143 10.3627 43.4649 10.3034 42.6438C10.0466 39.0036 9.3452 35.4524 11.1135 31.743C12.1211 29.636 13.1485 27.5488 14.1857 25.4616C14.2944 25.2341 14.4722 25.0659 14.6797 24.9571C15.954 24.2944 17.0505 23.3942 17.9594 22.2566C18.0285 22.1775 18.0384 22.0984 17.9989 22.0291C17.9989 22.0093 17.9791 21.9896 17.9692 21.9599C17.9495 21.9203 17.91 21.9203 17.8705 21.9599C16.7245 22.8699 15.549 23.7305 14.3339 24.5318C14.2351 24.601 14.1265 24.6703 14.0178 24.7197C13.8005 24.8186 13.6226 24.967 13.4843 25.1451C13.0003 25.7485 12.1409 26.5003 10.906 27.4301C9.87865 28.1918 8.58455 29.8042 7.02372 32.2573C6.77676 32.653 6.30258 32.9498 5.6012 33.1575C5.35423 33.2268 5.26533 33.1377 5.33448 32.9003C5.52217 32.2079 5.65059 31.5253 5.72962 30.8428C5.75926 30.5856 5.66047 30.5263 5.44314 30.6647C4.09965 31.5155 3.05251 32.5541 2.28198 33.8005C1.13606 35.6503 0.444552 35.492 0.227222 33.3158C-0.0888938 30.1504 -0.493918 28.2511 1.84732 25.244C5.26533 20.852 9.45387 17.9734 14.3833 16.6183C16.201 16.1237 16.1812 15.6983 14.324 15.362C12.8422 15.085 10.9752 14.7883 8.73273 14.4618C8.49564 14.4223 8.33758 14.2937 8.25855 14.0563C8.14001 13.71 7.97207 13.4133 7.74486 13.1858C7.55717 12.9879 7.37935 12.9978 7.21142 13.2154C6.92494 13.5913 6.757 14.0068 6.68785 14.4816C6.66809 14.6399 6.57918 14.7586 6.44088 14.8377C6.33222 14.8971 6.21367 14.907 6.09513 14.8575C5.8778 14.7586 5.84817 14.6201 6.00622 14.442L6.40137 13.987C6.57918 13.7892 6.66809 13.5518 6.65821 13.2847C6.65821 12.9978 6.55943 12.7604 6.37173 12.5725C6.2038 12.4142 6.00622 12.3845 5.79877 12.4736C5.66047 12.5329 5.54193 12.5428 5.42338 12.5032C5.22581 12.434 5.17642 12.3153 5.26533 12.1273C5.4629 11.7119 5.58144 11.2865 5.59132 10.8414C5.59132 10.5842 5.48266 10.4655 5.23569 10.4952C4.51455 10.5644 3.88232 10.4556 3.33899 10.1786C2.85494 9.93133 2.76603 9.27847 3.17106 8.92236C4.10953 8.07166 5.10727 7.49793 6.17416 7.18139C10.0268 6.02403 13.7412 4.25339 17.9594 6.11306C19.8561 6.95387 22.0392 8.49701 24.5188 10.7524C24.5978 10.8315 24.6274 10.8216 24.5978 10.7128C24.4002 10.0401 24.3904 9.3576 24.825 8.73442C26.534 6.29112 27.8775 3.65987 28.8555 0.820898C28.9444 0.563708 29.1025 0.514249 29.3297 0.672519C29.4976 0.801114 29.5964 0.979168 29.6063 1.21657C29.626 1.9189 29.9224 2.06728 30.5052 1.68149C31.9376 0.712087 33.4985 0.15814 35.1976 0.0295458C35.6224 -0.00012986 36.0274 0.217492 36.2348 0.593384C36.5213 1.10776 36.8078 1.38474 37.0844 1.4243C37.3017 1.44409 37.4302 1.35506 37.4795 1.14733L37.5388 0.929708C37.5783 0.791222 37.6672 0.741762 37.7957 0.801114L40.4629 2.04749C40.7197 2.1662 40.8877 2.36403 40.9568 2.63111C41.0853 3.14549 41.0161 3.64009 40.7395 4.10501C40.6901 4.18414 40.6703 4.26328 40.6901 4.3622C40.7099 4.50068 40.7988 4.57982 40.9173 4.5996C41.105 4.63917 41.3026 4.61939 41.4705 4.53036C41.8953 4.33252 42.2806 4.3622 42.6066 4.61939C42.893 4.8469 42.8832 5.07441 42.5769 5.27225C41.0754 6.24166 39.5738 7.19128 38.0821 8.11123C37.9142 8.21014 37.0251 8.65528 35.405 9.42685C34.4666 9.88188 33.6368 10.4853 32.9354 11.247C32.3328 11.8899 31.6808 12.5131 30.9597 13.1264C30.1002 13.8584 29.4976 14.5805 29.142 15.2927C29.0037 15.5796 29.0531 15.6192 29.3 15.4213M33.8146 4.58971C34.4271 4.81722 34.9605 4.82712 35.4149 4.61939C35.8101 4.44133 35.8792 4.17425 35.6224 3.81814L35.3063 3.3829C35.0692 3.06636 34.6444 2.96744 34.2887 3.14549C33.4688 3.56095 32.8662 3.27409 32.1056 3.85771C31.5227 4.31274 31.1671 4.77766 31.0387 5.26236C30.4756 7.49793 29.9224 9.62469 29.3692 11.6525C29.2605 12.0581 29.3297 12.0878 29.5668 11.7514C31.177 9.4862 31.7499 7.05279 33.2614 4.77766C33.3997 4.57982 33.5775 4.52047 33.8047 4.5996M29.9619 4.98539C29.9915 4.88647 29.9422 4.77766 29.8434 4.73809L29.3791 4.57982C29.2803 4.55014 29.1716 4.5996 29.1321 4.69852L25.7931 14.6992C25.7635 14.7981 25.8129 14.907 25.9117 14.9465L26.376 15.1048C26.4748 15.1345 26.5834 15.085 26.6229 14.9861L29.9619 4.98539ZM33.8146 5.20301C33.6565 5.2129 33.538 5.28214 33.4491 5.41074C32.807 6.28122 32.3723 7.25063 32.1451 8.33874C31.9673 9.21912 32.2538 9.40706 32.9947 8.91247C34.4172 7.97274 35.652 6.64722 36.6991 4.9656C36.7485 4.88647 36.7288 4.85679 36.6399 4.86668L33.8146 5.20301ZM16.7147 10.2182C18.6311 10.8513 20.2808 12.1076 22.0985 12.9484C23.1753 13.443 23.3432 13.2253 22.6023 12.3054C19.8067 8.80366 16.0133 5.88555 11.5086 7.68587C10.1849 8.21014 8.74261 8.98171 7.19166 9.98079C6.96445 10.1292 6.97433 10.2083 7.25093 10.1984C9.27605 10.1786 11.0443 8.95204 12.941 9.27847C14.2252 9.49609 15.4798 9.81263 16.7048 10.2182M35.978 16.5094C34.9803 16.8458 34.0121 17.281 33.0934 17.8251C32.8563 17.9636 32.8662 18.0427 33.1428 18.0625C34.6938 18.1515 35.5631 17.0139 37.0251 17.3997C37.1832 17.4393 37.2227 17.3799 37.1536 17.2414C37.114 17.1623 37.035 17.0832 36.9066 17.0238C36.6991 16.9249 36.6695 16.7963 36.8177 16.6183C36.9461 16.4798 37.1536 16.4006 37.4499 16.4105C37.8253 16.4105 38.1612 16.4897 38.4378 16.638C38.6452 16.7468 38.8527 16.7468 39.0503 16.6183C40.5814 15.7181 41.6878 16.005 42.3892 17.469C42.5275 17.7558 42.6461 17.7459 42.735 17.4294C43.0215 16.3413 42.6263 15.6093 41.5495 15.2334C40.374 14.8278 39.2676 14.4124 38.2303 14.0068C37.2919 13.6309 37.3215 13.4528 38.339 13.4726C39.3269 13.4924 40.1567 13.8386 40.8383 14.5014C41.0655 14.719 41.3322 14.8377 41.6385 14.8773C42.6362 14.9762 43.3672 15.5104 43.8513 16.4501C43.9007 16.5589 44.0093 16.6084 44.118 16.5886L45.0268 16.46C45.1355 16.4402 45.1651 16.3907 45.096 16.3017C43.9007 14.6201 42.5177 12.9385 40.3542 12.5923C39.0404 12.3845 38.092 12.4538 37.5289 12.7901C34.3085 14.6893 30.2879 16.2819 27.8973 19.2396C27.7293 19.4374 27.7787 19.5067 28.0257 19.4276C30.3571 18.7054 32.6489 17.5976 34.8913 16.1138C35.3952 15.7774 35.8002 15.7676 36.1163 16.094C36.304 16.2918 36.2645 16.4303 36.0076 16.5193M77.2213 23.4733C76.8261 24.9769 76.1346 26.5695 75.8877 27.9544C75.7889 28.5182 75.8877 28.5578 76.1939 28.0731C77.0435 26.7179 77.8437 25.333 78.5648 23.9284C79.0587 22.9689 79.7601 21.9994 80.6887 21.0399C82.457 19.2099 85.2625 14.9762 82.1804 13.0868C81.9334 12.9286 81.7161 12.9681 81.5185 13.1858C79.7897 15.1246 78.5944 16.9744 77.9128 18.745C77.3892 20.1002 77.6461 21.9302 77.2312 23.4733M15.954 17.5679C11.558 19.2495 7.5868 21.6038 4.0305 24.6406C2.62773 25.8474 2.00538 27.351 2.15356 29.1711C2.17331 29.4283 2.26222 29.4579 2.43016 29.27C4.22807 27.3312 6.22355 25.6792 8.42649 24.3043C13.3757 21.2378 17.7717 19.6847 23.442 20.941C23.8273 21.0201 24.1434 20.6146 23.9557 20.2684C23.7581 19.9024 23.3729 19.6056 22.8197 19.3781C21.0909 18.6758 19.3127 18.0823 17.505 17.5877C17.258 17.5184 17.1493 17.3601 17.1691 17.1129C17.1888 16.9546 17.2086 16.8062 17.2284 16.6578C17.2777 16.2918 17.2481 16.0346 17.1197 15.8764C16.9814 15.7082 16.7937 15.6192 16.5467 15.6489C16.2899 15.6686 16.201 15.7972 16.2602 16.0445C16.3492 16.3907 16.3689 16.737 16.3294 17.0634C16.3096 17.3107 16.1713 17.4789 15.9441 17.5679M65.6633 18.4779C65.7127 18.2504 65.4163 17.9932 65.0113 17.9042C64.5964 17.8152 64.221 17.924 64.1716 18.1515C64.1222 18.379 64.4186 18.6362 64.8236 18.7252C65.2385 18.8143 65.6139 18.7054 65.6633 18.4779ZM76.1939 30.2097C76.2137 30.4372 76.2433 30.6153 76.2532 30.7538C76.2729 30.9516 76.5199 31.0406 76.6483 30.8923C78.5154 28.9436 80.3528 27.163 82.1705 25.5902C82.9608 24.9077 83.0892 24.2251 83.0497 23.2458C83.0497 22.9985 83.1287 22.7809 83.2769 22.593C83.8795 21.8709 84.245 21.3268 84.3734 20.9608C84.8575 19.6056 84.65 19.4869 83.7412 20.6047C82.5656 22.0489 82.3483 23.8393 80.9653 25.1846C79.6712 26.4409 78.1894 27.8357 76.51 29.3491C76.2729 29.5766 76.1544 29.8833 76.184 30.1998M32.7674 20.8619C31.3943 21.0399 28.9444 21.03 27.7195 20.1694C27.4923 20.0112 27.2058 20.0112 26.9687 20.1497C26.5143 20.4365 26.1488 20.7827 25.882 21.1685C25.7635 21.3466 25.8228 21.584 26.0105 21.6928C26.7118 22.0687 27.4725 22.3654 28.2727 22.5732C29.6557 22.9293 31.1869 22.1973 32.6687 22.1973C33.0638 22.1973 33.3602 21.8412 33.291 21.4455L33.2416 21.2081C33.2021 20.9905 32.9947 20.8322 32.7773 20.8619M71.7782 29.6261C71.9955 30.0317 72.0844 30.0119 72.0449 29.547C71.788 26.2925 71.3731 22.593 68.8146 20.2684C68.4688 19.9518 68.1527 19.9716 67.8662 20.3475L66.8191 21.7225C66.5425 22.0885 66.5919 22.405 66.9574 22.682C69.8024 24.7593 70.3063 26.8168 71.7782 29.6162M63.5789 22.682L64.468 23.4733C64.8434 23.7998 64.9224 23.7404 64.715 23.2854C64.3593 22.5138 63.7468 22.1379 62.8775 22.1775C62.5021 22.1973 62.4922 22.2566 62.8479 22.3753L63.3319 22.5336C63.4208 22.5633 63.4999 22.6127 63.5789 22.6721M15.4601 30.4076C15.381 30.3284 15.3909 30.2592 15.4798 30.1899C16.8233 29.2601 17.5148 28.1225 17.5543 26.7772C17.5543 26.5893 17.6235 26.4013 17.742 26.2629C18.9176 24.8582 20.3006 23.6712 21.8713 22.7117C22.0096 22.6226 21.9602 22.405 21.7923 22.3951L20.9822 22.3358C20.6958 22.316 20.4191 22.4149 20.2018 22.593C18.7595 23.7503 17.6037 24.9077 16.7245 26.0749C16.5566 26.2826 16.4677 26.5299 16.4381 26.8168C16.4084 27.0641 16.3096 27.2718 16.1516 27.4598C15.3415 28.3402 14.5512 29.2502 13.8005 30.18C13.2077 30.9219 13.0793 31.6144 13.4053 32.2771C13.7807 33.0289 13.5831 33.2465 12.8027 32.9399C12.6249 32.8706 12.4076 33.0586 12.1606 33.5136C11.8741 34.028 11.963 34.7303 12.457 35.6107C12.5854 35.8382 12.7435 35.8679 12.941 35.7195C13.8005 35.1062 14.6698 34.4929 15.5292 33.8895C16.3887 33.296 17.1394 32.5739 17.7717 31.7331C19.5202 29.4085 20.7748 27.7071 22.79 26.3618C23.2444 26.0551 23.4716 25.4913 23.5112 25.0066C23.5507 24.6604 23.2049 24.3933 22.8789 24.512C20.8538 25.2737 19.6585 26.0947 18.1471 27.8752C17.3864 28.7754 16.5665 29.6261 15.6873 30.4174C15.6181 30.4867 15.5391 30.4867 15.4601 30.4174M44.1871 31.8221C44.2069 31.7331 44.1871 31.644 44.1476 31.5649C41.4903 27.4894 38.1908 24.4724 34.2394 22.5039C34.0517 22.4149 33.8442 22.4248 33.6664 22.5435C33.4787 22.6622 33.4688 22.8007 33.6269 22.9491C36.1657 25.422 39.4454 29.2502 43.4759 34.4533C43.5944 34.6116 43.6735 34.5819 43.713 34.4039L44.197 31.8221M94.3904 27.4301C93.9952 27.9544 93.8767 28.5677 94.0347 29.2898C94.1039 29.5766 94.2027 29.5964 94.3508 29.3293L95.2498 27.7367C95.3683 27.529 95.5363 27.4499 95.7734 27.4796C96.5044 27.5983 97.1663 27.5488 97.759 27.3213C98.0553 27.2125 98.1047 26.8069 97.8479 26.619C93.9261 23.8492 89.9845 23.7206 86.033 26.2134C84.5414 27.1531 82.8225 28.9139 80.8961 31.4957C80.6097 31.8913 80.6689 31.9507 81.074 31.6836C82.0124 31.0802 82.7533 30.3383 83.3263 29.4579C83.6918 28.904 84.2154 28.5479 84.9069 28.3995C87.3469 27.8851 89.3819 27.351 91.0217 26.8267C92.1973 26.4508 93.284 26.4904 94.3015 26.9751C94.5287 27.0839 94.5583 27.2323 94.4101 27.4202M55.2512 29.3986C55.3006 30.1009 55.7353 30.457 56.5749 30.4966C58.0666 30.5658 59.5188 30.6054 60.9215 30.6054C62.0872 30.6054 63.0257 30.9912 64.1321 31.3077C64.3692 31.377 64.5273 31.5253 64.6063 31.7628L65.0014 33.0289C65.0805 33.296 65.2682 33.4147 65.5546 33.3949C67.4711 33.2267 69.2097 33.6521 70.7804 34.6908C70.9978 34.8292 71.0867 34.7699 71.0373 34.5226C70.7409 33.0487 68.8343 31.9012 67.7181 31.011C67.0167 30.4372 66.177 30.002 65.2089 29.6953C64.3 29.4085 63.3221 29.0227 62.265 28.538C60.8228 27.8752 60.882 27.4103 62.4429 27.1333C63.0455 27.0245 63.5295 26.7179 63.9247 26.1936C64.0926 25.9661 64.0432 25.8672 63.7567 25.887C63.4801 25.9067 63.2825 26.0551 63.1541 26.3321C63.0553 26.5497 62.8973 26.708 62.6701 26.7772C62.2058 26.9355 61.7118 27.0047 61.1883 26.9652C60.9413 26.9454 60.724 27.0146 60.5264 27.163C58.9261 28.3896 57.1084 28.8941 55.0833 28.6864C54.8264 28.6666 54.5992 28.7062 54.372 28.8347L52.2481 30.0416C52.09 30.1306 52.0407 30.3284 52.1296 30.4867C52.2086 30.6252 52.2975 30.7241 52.3963 30.7736C52.5939 30.8725 52.6729 30.8131 52.6235 30.5955C52.5939 30.4867 52.6037 30.368 52.6433 30.2493C52.7124 30.0218 52.8606 29.9031 53.0977 29.8932C53.7398 29.8437 54.3819 29.636 55.0042 29.2502C55.1129 29.181 55.2611 29.2502 55.2611 29.3887M8.3771 26.3123C7.29045 26.9157 6.65821 27.7961 6.49028 28.9732C6.45076 29.2502 6.51003 29.2601 6.65821 29.0326C7.28057 28.0731 7.56705 27.2323 8.52528 26.4805C8.57467 26.4409 8.58455 26.3914 8.53515 26.342C8.49564 26.2925 8.43637 26.2727 8.3771 26.3123ZM92.5233 27.717C90.9328 27.2422 89.698 27.5191 88.3249 28.2313C88.1076 28.3402 88.1076 28.4589 88.315 28.5875C88.4039 28.6369 88.5126 28.6567 88.641 28.627C90.0734 28.3698 91.3873 28.3599 92.6023 28.627C92.79 28.6765 92.869 28.5973 92.8493 28.3995L92.8098 28.0632C92.7999 27.895 92.6814 27.7664 92.5233 27.717ZM28.0652 30.8527C28.2233 30.0811 28.7864 29.2601 28.6876 28.627C28.5394 27.717 28.3122 27.6972 28.0158 28.5677C27.7392 29.359 27.5812 30.3284 27.5318 31.4462C27.5318 31.5748 27.5812 31.644 27.6997 31.6638L27.8874 31.7034C27.9368 31.4264 27.9961 31.1495 28.0553 30.8626M36.1262 30.0811C36.2447 29.9921 36.0965 29.5667 35.7705 29.1315C35.4544 28.6963 35.1087 28.3995 34.9901 28.4885C34.8716 28.5776 35.0198 29.0029 35.3458 29.4382C35.6619 29.8734 36.0076 30.1702 36.1262 30.0811ZM18.3545 34.9578C18.4533 35.0172 19.0164 34.1863 19.619 33.0982C20.2117 32.0199 20.6167 31.0901 20.5179 31.0406C20.4191 30.9813 19.8561 31.8122 19.2535 32.9003C18.6608 33.9785 18.2557 34.9084 18.3545 34.9578ZM62.2058 31.6737C62.2749 31.6737 62.3441 31.6935 62.4132 31.6935C62.5515 31.6935 62.5713 31.6539 62.4429 31.5847C61.8007 31.2187 61.2278 31.0505 60.7339 31.0703C60.398 31.0901 60.1214 31.2286 59.904 31.4858C59.5484 31.921 59.3113 32.3563 59.2027 32.7816C59.1829 32.8706 59.2718 32.9498 59.3607 32.9003C60.3091 32.3859 61.208 31.9903 62.0576 31.7034C62.107 31.6836 62.1663 31.6737 62.2156 31.6836M96.1685 36.867C98.3517 38.0045 100.594 40.0522 102.916 42.9901C103.163 43.2967 103.261 43.2472 103.202 42.8615C102.155 34.6611 93.9458 31.3176 86.2405 31.0307C85.3119 30.9912 84.4623 31.189 83.6918 31.6045C82.8225 32.0892 82.8818 32.2969 83.8795 32.2672C83.919 32.2672 84.0672 32.2475 84.3339 32.2079C84.4821 32.1881 84.6303 32.2079 84.7686 32.2475C90.8538 34.5325 94.6571 36.0657 96.1685 36.867ZM79.8688 32.2376C79.8194 32.1683 79.2958 32.4255 78.7031 32.8212C78.1005 33.2169 77.6658 33.6026 77.7152 33.6818C77.7646 33.751 78.2882 33.4938 78.8809 33.0982C79.4835 32.7025 79.9182 32.3167 79.8688 32.2376ZM28.4801 33.2366C28.5196 32.9498 28.411 32.8904 28.1739 33.0586C27.8281 33.3059 27.7096 33.662 27.8182 34.1467C27.8874 34.4237 27.9862 34.4435 28.1344 34.1962C28.3319 33.8796 28.4406 33.5631 28.4801 33.2366ZM67.6094 33.9588L63.7864 35.8679C63.7271 35.8976 63.7073 35.9668 63.737 36.0262L63.7567 36.0756C64.0827 36.7285 65.2188 36.8373 66.2856 36.3031L66.4536 36.224C67.5205 35.6898 68.1329 34.7303 67.7971 34.0775L67.7773 34.028C67.7477 33.9686 67.6785 33.9489 67.6094 33.9686M45.8468 35.6997C45.3429 36.7779 45.2935 37.6484 45.7085 38.3013C45.8863 38.5882 45.9851 38.5684 45.9949 38.2321L46.0443 35.7492C46.0443 35.4326 45.9851 35.4129 45.8566 35.6997M84.9563 40.1709C84.8772 40.2698 84.7883 40.2698 84.7093 40.1906C84.0178 39.5477 83.346 39.1025 82.6842 38.8651C82.0223 38.6277 81.9433 38.7563 82.4372 39.2509L83.6523 40.4478C83.84 40.6358 83.9091 40.8435 83.84 41.1106C83.7906 41.2886 83.8005 41.437 83.8696 41.5458C84.0376 41.8327 84.2549 41.8921 84.5315 41.6843L85.1934 41.1897C85.4601 40.9919 85.5984 41.0611 85.6181 41.3876C85.707 43.2472 86.4973 44.9289 87.9791 46.4324C88.1174 46.5808 88.3743 46.4918 88.394 46.2939C88.5817 44.7409 88.4731 43.2176 88.0779 41.6942C87.7618 40.4874 87.1098 39.4092 86.1022 38.4695C85.0748 37.5 84.0277 36.7285 82.9707 36.1745C81.8643 35.581 80.6097 35.4722 79.2168 35.8481C78.8118 35.9569 78.8118 36.0855 79.197 36.224C81.3407 36.9857 83.2967 38.1133 85.0551 39.5971C85.1934 39.7257 85.2131 39.8543 85.0946 40.0027L84.9464 40.1709M88.7398 36.9263C88.7991 36.8571 88.4731 36.5208 88.0088 36.1844C87.5543 35.8481 87.1296 35.6404 87.0802 35.7195C87.0209 35.7888 87.3469 36.1251 87.8112 36.4614C88.2656 36.7977 88.6904 37.0055 88.7398 36.9263ZM73.5168 46.1159C74.2182 46.9963 74.6331 47.9558 74.7714 48.9746C74.8801 49.8847 75.1962 49.9539 75.6901 49.1824C77.8338 45.8389 77.814 42.2877 75.6407 38.5585C75.4036 38.1628 74.8504 38.1035 74.5343 38.4398C73.0426 40.0621 72.2029 41.9217 71.9955 44.0386C71.7683 46.4522 71.6399 47.6689 71.63 47.7283C71.2546 49.5879 70.8397 51.4278 70.3556 53.2578C70.326 53.3765 70.3754 53.4557 70.4841 53.4854C70.6026 53.515 70.6816 53.4755 70.7113 53.3568C71.3534 51.0519 72.0251 48.6779 72.7463 46.2544C72.8451 45.9082 73.2896 45.829 73.5069 46.106M83.1386 42.9703C83.5041 43.4352 83.6819 43.3659 83.6819 42.7724C83.6819 42.1789 83.4152 41.8228 82.862 41.6942C82.5459 41.625 82.2989 41.4469 82.131 41.1601C81.5284 40.1709 80.8665 38.9146 79.7502 38.4101C79.5625 38.331 79.5329 38.3705 79.6613 38.5288L83.1386 42.9604M87.9594 52.5852C87.989 52.8622 88.0779 53.1292 88.2162 53.4161C88.3842 53.7524 88.5225 53.7327 88.6114 53.3765C88.7595 52.8523 88.7595 52.4863 88.6114 52.2983C88.0779 51.6652 87.8606 51.7543 87.9594 52.5852ZM27.7195 137.032C27.917 137.032 28.0652 136.251 28.0455 135.301C28.0257 134.352 27.8479 133.58 27.6503 133.59C27.4527 133.59 27.3046 134.371 27.3243 135.321C27.3441 136.271 27.5219 137.042 27.7195 137.032Z" fill="black"/>
<path d="M80.5602 17.281C80.2934 18.567 79.8588 19.8233 79.2463 21.0696C79.1475 21.2675 78.9302 21.3565 78.7227 21.2873C78.535 21.218 78.4362 21.0795 78.4659 20.852C78.5252 20.209 78.7326 19.6254 79.0882 19.1011C79.2265 18.9033 79.3352 18.6758 79.3945 18.4384C79.5328 17.9735 79.7995 17.5184 80.2144 17.0931C80.5305 16.7469 80.6491 16.8161 80.5602 17.2711V17.281Z" fill="black"/>
<path d="M41.184 39.4094C41.0457 39.4589 40.7098 38.9247 40.4431 38.2026C40.1764 37.4805 40.0776 36.8573 40.2159 36.8079C40.3542 36.7584 40.6901 37.2926 40.9568 38.0147C41.2235 38.7368 41.3223 39.36 41.184 39.4094Z" fill="black"/>
<path d="M74.7812 42.7827C74.7812 42.6739 74.8998 42.6145 74.9788 42.6739C75.858 43.3069 76.0358 43.9598 75.4728 44.6325C75.0183 45.1963 74.7911 45.1172 74.7812 44.3852V42.7728V42.7827Z" fill="black"/>
</g>
<defs>
<clipPath id="clip0_2413_162">
<rect width="105" height="140" fill="white"/>
</clipPath>
</defs>
</svg>
