<svg width="56" height="130" viewBox="0 0 56 130" fill="none" xmlns="http://www.w3.org/2000/svg">
<g clip-path="url(#clip0_2296_685)">
<path d="M55.219 48.8964C54.3624 43.5923 51.0874 40.9504 47.3186 37.5925C45.6156 36.0698 45.4141 30.07 45.0916 27.781C44.7692 25.4718 44.3157 23.8483 43.7413 22.9004C42.8646 21.4282 41.3934 20.4299 39.3075 19.8854C38.6827 19.7139 38.3804 19.3106 38.4106 18.6652C38.5618 14.7729 38.5819 10.8906 38.4811 7.02856C38.3401 2.24886 30.4599 0.171599 26.7012 0.000174576C23.5471 -0.140998 21.8139 1.43207 21.5116 4.71938C21.1992 7.96635 20.9876 11.4049 20.8566 15.025C20.8364 15.7107 20.6046 16.4266 20.1713 17.1426C20.0101 17.3947 19.7682 17.5762 19.4861 17.6669C17.6622 18.2216 16.1305 18.9678 14.8809 19.8955C12.664 21.5492 11.4749 23.8382 11.3238 26.7625C11.1827 29.4045 11.0416 32.0565 10.9207 34.7085C10.8703 35.8883 10.568 36.6648 10.0138 37.058C5.49928 40.1941 1.68012 44.0965 0.692579 49.6527C0.470886 50.9031 0.460809 53.9181 0.642194 58.7079C0.924349 65.7161 1.37781 72.7142 2.01266 79.7023C3.21182 92.9423 4.20943 105.376 6.43644 118.152C7.10152 121.963 9.13706 124.736 12.5431 126.481C19.0226 129.788 26.8322 130.666 33.9364 129.486C37.2719 128.931 40.4058 127.711 43.3483 125.856C46.2404 124.031 47.8729 121.308 48.2659 117.698C49.5255 105.94 51.561 88.6466 54.3826 65.827C54.5841 64.2741 54.7453 62.5397 54.8864 60.6641C55.1988 56.6407 55.9042 53.061 55.219 48.8863V48.8964ZM45.2327 45.7402L45.3536 45.6393C45.5854 45.4175 46.4016 45.8813 47.1675 46.678L47.2884 46.8191C48.0542 47.6258 48.4775 48.4628 48.2457 48.6846L48.1248 48.7955C48.1248 48.7955 48.0542 48.8258 48.024 48.7955L45.2428 45.8511C45.2428 45.8511 45.2125 45.7704 45.2428 45.7402H45.2327ZM43.6506 46.7586C43.7312 46.7385 43.8219 46.799 43.8219 46.8897L43.8421 47.1116C43.8421 47.2426 43.7917 47.3132 43.6708 47.3233C43.4491 47.3637 43.2778 47.4342 43.1468 47.5653C42.9553 47.767 42.9352 47.9788 43.1065 48.1905C43.4188 48.5838 43.7615 48.8762 44.1645 49.0779C44.5172 49.2594 44.5979 49.7333 44.3157 50.0157C43.8622 50.4795 43.2778 50.7014 42.5422 50.661C42.2197 50.6409 42.0988 50.4695 42.1895 50.1669L42.3708 49.5216C42.4212 49.3602 42.3708 49.2291 42.26 49.1182C42.1492 49.0174 42.0081 48.9771 41.8569 48.9972C41.7864 49.0174 41.7259 49.0577 41.6957 49.1182L40.95 50.6409C40.819 50.9131 40.8996 51.0341 41.212 50.9938C41.736 50.9434 42.1592 51.1955 42.5018 51.7501C42.6328 51.9619 42.7941 52.0123 43.0158 51.8913C43.5498 51.619 43.9328 51.4778 44.3358 50.9938C44.7389 50.4997 45.2125 50.2073 45.7567 50.0964C46.1497 50.0157 46.321 49.5417 46.0489 49.2392C45.8272 48.9771 45.5249 48.846 45.1722 48.8359C44.9203 48.8359 44.749 48.725 44.6482 48.493C44.5475 48.2712 44.5273 48.0594 44.5676 47.8376C44.618 47.5552 44.7591 47.5048 44.9808 47.6762C45.8373 48.3619 46.5225 49.2292 47.0466 50.298C47.1776 50.5501 47.0969 50.6207 46.8349 50.53C46.1799 50.2879 45.6962 50.4997 45.3738 51.1652C45.0916 51.7299 45.1622 52.224 45.5753 52.6274C45.7365 52.7887 45.8474 53.0005 45.8877 53.2223L46.0086 53.9383C46.0489 54.1399 45.9683 54.2307 45.7567 54.2105C45.6156 54.2004 45.5249 54.1299 45.4947 53.9988C45.3335 53.5047 45.2025 53.0106 45.1017 52.4963C45.0513 52.2139 44.7087 52.0929 44.487 52.2744L44.0739 52.6173C43.8119 52.8391 43.7312 53.2122 43.8824 53.5248C44.0134 53.7971 44.1142 54.0694 44.1847 54.3517C44.3157 54.8256 44.1847 54.9164 43.7816 54.624C43.1568 54.15 42.915 53.5148 43.0662 52.7282C43.1165 52.4761 42.8142 52.3148 42.6328 52.4862C42.3809 52.708 42.2197 53.0005 42.1391 53.3534C42.0786 53.6458 42.1794 53.8778 42.4313 54.0391L42.6127 54.1399C42.784 54.2509 42.9049 54.4324 42.9352 54.6441C43.0158 55.3802 43.4491 55.8239 44.225 55.9651C44.3258 55.9853 44.3862 56.0458 44.3862 56.1567L44.4366 56.4995C44.4669 56.792 44.356 56.8827 44.0839 56.7516C43.0158 56.2273 42.1693 55.4609 41.5546 54.4727C41.3833 54.1904 41.1415 54.0895 40.819 54.1601C40.1942 54.2912 39.6904 54.6643 39.3276 55.2794C39.1865 55.5113 38.9447 55.6626 38.6827 55.6928C37.806 55.7937 36.9998 56.0962 36.2642 56.5802C36.1937 56.6206 36.1735 56.6911 36.2239 56.7617L36.365 56.9332C36.4456 57.0542 36.5564 57.0743 36.6774 56.9836C37.3324 56.5298 38.0277 56.318 38.7734 56.3483C39.0253 56.3483 39.2067 56.2676 39.3478 56.0659C39.64 55.6424 39.9927 55.3197 40.426 55.0777C40.6578 54.9567 40.8996 54.9668 41.1112 55.108C41.4337 55.3097 41.5748 55.6122 41.5345 55.9954C41.4942 56.2575 41.3531 56.3886 41.0911 56.3785C40.3454 56.3483 39.8617 56.3584 39.6198 56.4088C39.2168 56.4895 39.0958 56.7617 39.2671 57.2256L40.0935 57.2962C40.3252 57.3163 40.5066 57.4172 40.6175 57.6188C40.7585 57.8508 40.9802 57.9718 41.2725 57.9819C41.474 57.9819 41.5647 58.0928 41.5042 58.2945C41.4841 58.3953 41.4337 58.476 41.3732 58.5566C41.2725 58.6978 41.1515 58.718 41.0004 58.6272C40.8391 58.5264 40.6981 58.3852 40.5671 58.1835C40.426 57.9617 40.2748 57.9516 40.0935 58.1432L39.6803 58.5768C39.4586 58.8087 39.3377 58.7684 39.3175 58.4356L39.2671 57.2458C38.7331 57.1348 38.33 57.2054 38.0478 57.4777C37.8463 57.6693 37.8161 57.8911 37.9471 58.1331C38.1385 58.4861 38.4408 58.6978 38.8439 58.7987C39.2268 58.8995 39.3175 59.1112 39.116 59.444C39.0455 59.5549 38.9648 59.5953 38.854 59.5751C38.5215 59.5045 38.2393 59.807 38.3199 60.1297C38.4308 60.5331 38.5315 60.9364 38.6121 61.3599C38.6625 61.5818 38.5718 61.7028 38.3602 61.733L38.0881 61.7734C37.8765 61.8036 37.7455 61.7129 37.675 61.5112C37.4634 60.7751 37.4634 60.039 37.675 59.2726C37.7153 59.1415 37.6851 59.0205 37.6044 58.9197C37.544 58.8491 37.4634 58.8087 37.3828 58.7987C37.2719 58.7886 37.2014 58.8289 37.151 58.9297C36.6572 59.9179 36.5464 60.8557 36.8084 61.7229C36.9091 62.0456 36.7882 62.1565 36.4658 62.0759C35.8511 61.9045 35.448 62.1162 35.2767 62.7313C35.186 63.0439 35.0751 63.054 34.9341 62.7616C34.8031 62.4792 34.793 62.2271 34.9139 61.975C35.2061 61.3801 35.3472 60.886 35.317 60.5129C35.2666 59.7566 35.4581 59.1012 35.8914 58.5566C36.0627 58.3348 36.0123 58.2138 35.7301 58.2138C35.4581 58.2138 35.2767 58.3348 35.1759 58.597C34.6217 60.1297 34.1682 61.8137 33.8256 63.6288C33.7853 63.8204 33.6744 63.891 33.483 63.8305C33.4124 63.8103 33.3419 63.7699 33.2915 63.7195C33.2411 63.6691 33.221 63.5985 33.2311 63.5179C33.3016 63.0742 33.2814 62.6406 33.1504 62.2271C33.0799 61.9851 32.9086 61.8843 32.6567 61.9448C31.9916 62.086 31.2257 62.096 30.3591 61.9851C30.0467 61.9448 29.7344 62.0154 29.4119 62.1868C29.029 62.4086 29.0491 62.5599 29.4824 62.6406C30.1878 62.7817 30.8932 62.7414 31.6187 62.4994C31.8102 62.4389 32.0117 62.5296 32.0924 62.7112L32.3745 63.3263C32.4753 63.5582 32.4047 63.6893 32.1528 63.7397C29.563 64.2338 26.6508 64.5666 23.4262 64.7178C22.5293 64.7582 21.5015 64.617 20.3225 64.254C18.8916 63.8305 17.5513 63.9817 16.1909 63.4271C14.5685 62.7717 12.8857 62.1162 11.1726 61.4608C10.9308 61.37 10.8804 61.2188 11.0315 61.007C11.1726 60.8053 11.354 60.6642 11.5757 60.5835C11.8075 60.5028 12.0392 60.5431 12.2408 60.6843C12.6136 60.9364 12.9764 61.007 13.3291 60.8759C13.5911 60.7751 13.6213 60.6541 13.3895 60.4726C13.1981 60.3314 13.0368 60.2104 12.9058 60.1196C12.1904 59.6255 12.271 59.4339 13.1275 59.5448L23.6076 60.9767C23.8494 61.007 24.0308 61.128 24.1416 61.3498C24.2525 61.5717 24.313 61.8137 24.323 62.0759C24.323 62.2776 24.4238 62.3683 24.6253 62.3582C24.706 62.3582 24.7866 62.3179 24.8672 62.2775C24.968 62.207 24.9982 62.1263 24.9579 62.0255C24.9075 61.8641 24.9075 61.7229 24.9579 61.612C25.0586 61.3902 25.2199 61.3398 25.4315 61.4507L27.2756 62.4288C27.6887 62.6507 27.7895 62.5599 27.5678 62.1364C26.6105 60.3616 24.6556 60.644 23.2851 60.2104C18.6396 58.7785 14.0546 57.2659 9.5603 55.6928C9.13706 55.5517 8.33091 55.0777 7.13175 54.261C7.05113 54.2105 7.0209 54.0996 7.08137 54.0189L7.21237 53.8173C7.21237 53.8173 7.23252 53.7971 7.25267 53.8173C8.00844 54.2811 8.8146 54.6542 9.66107 54.9467C10.0944 55.0979 10.2455 54.9467 10.0944 54.513C9.93314 54.0391 9.49983 53.787 8.79445 53.7366C8.56268 53.7164 8.41152 53.4744 8.50222 53.2627C8.70375 52.7786 8.92545 52.7887 9.16729 53.303C9.28822 53.5551 9.44945 53.5853 9.63083 53.3837C9.78199 53.2122 9.83237 53.0005 9.79207 52.7282C9.74168 52.4761 9.61068 52.3047 9.37891 52.1938L8.41152 51.7501C8.32083 51.7098 8.30068 51.6493 8.34098 51.5585L8.47198 51.3064C8.54252 51.1854 8.63322 51.1552 8.76422 51.2257C9.98353 51.861 11.2129 51.7198 12.3113 52.0324C19.1939 53.9887 26.2074 55.35 33.3318 56.0962C33.5737 56.1164 33.7954 56.0559 33.9868 55.9147C34.2791 55.6928 34.6217 55.592 35.0046 55.6122C35.2565 55.6122 35.4681 55.5517 35.6596 55.4004C36.2844 54.8962 36.9998 54.5735 37.7858 54.4122C38.0277 54.3719 38.2292 54.2509 38.3904 54.0694C38.723 53.6862 39.0757 53.5954 39.4586 53.8072C39.6601 53.9181 39.771 53.8576 39.7811 53.6358C39.8214 52.9601 40.2043 52.698 40.9198 52.8291C41.1112 52.8694 41.2926 52.7686 41.3632 52.6072L41.474 52.3753C41.5445 52.2139 41.4942 52.1131 41.3329 52.0526C40.5771 51.7703 39.9221 51.8509 39.3679 52.2946C38.33 53.1316 37.3122 53.7265 36.2944 54.0694C36.0627 54.1399 35.8511 54.0996 35.6697 53.9383C35.4379 53.7366 35.1759 53.6559 34.9139 53.6963C34.6015 53.7366 34.531 53.8879 34.6922 54.1601C34.793 54.3215 34.924 54.4425 35.0852 54.5231C35.317 54.6341 35.317 54.7551 35.0852 54.8761C34.9844 54.9265 34.8837 54.9567 34.7728 54.9567C34.5108 54.9567 34.3093 54.8559 34.1783 54.624C33.9767 54.2509 33.9062 53.8677 33.9566 53.4845C34.0171 53.1013 33.8558 52.9702 33.4931 53.0812C32.7574 53.3131 32.0319 53.0812 31.3265 52.4257C31.135 52.2543 31.0343 52.0324 31.0141 51.7703C30.9537 51.1148 30.7521 50.54 30.4095 50.0863C30.1878 49.7938 30.3591 49.3703 30.7118 49.2997L43.6405 46.7788L43.6506 46.7586ZM45.6358 59.2625C45.3435 59.7969 44.9707 60.16 44.7893 60.0591C44.6079 59.9684 44.6986 59.4541 44.9909 58.9197C45.2831 58.3852 45.6559 58.0222 45.8373 58.123C46.0187 58.2138 45.928 58.7281 45.6358 59.2625ZM41.1515 61.733C41.8065 61.5818 42.3608 61.612 42.4112 61.7935C42.4615 61.975 41.9577 62.2574 41.3128 62.4086C40.6578 62.5599 40.1035 62.5296 40.0531 62.3481C40.0028 62.1666 40.5066 61.8843 41.1515 61.733ZM39.4082 60.8154C39.3377 60.4625 39.5493 60.0894 40.0128 59.686C40.3252 59.4238 40.5268 59.4843 40.6074 59.8877C40.688 60.2709 40.5872 60.6541 40.295 61.0372C40.033 61.3801 39.4888 61.249 39.3981 60.8255L39.4082 60.8154ZM41.6352 57.6289C41.5848 56.6911 41.9577 56.308 42.7336 56.4995C42.8042 56.5197 42.8545 56.6105 42.8344 56.6811C42.6933 57.0844 42.391 57.4474 41.9275 57.7701C41.8065 57.8508 41.6352 57.7701 41.6352 57.6289ZM42.1088 60.1499C41.6453 60.2406 41.5546 60.0995 41.8267 59.7163C42.2499 59.1213 42.7336 58.597 43.2677 58.1432C43.5398 57.9214 43.6405 57.9819 43.57 58.3247C43.3483 59.4037 42.8646 60.0087 42.0988 60.16L42.1088 60.1499ZM38.6827 67.0169C38.7935 67.0068 38.8943 67.0774 38.9145 67.1984V67.2589C38.9346 67.3699 38.854 67.4707 38.7431 67.4808L30.5506 68.4589C30.4397 68.469 30.339 68.3984 30.3289 68.2774V68.2169C30.3087 68.106 30.3894 68.0051 30.5002 67.995L38.6928 67.0169H38.6827ZM35.6596 63.2859C35.7301 63.2859 35.8007 63.2859 35.8611 63.2859C35.9518 63.2859 36.0425 63.2859 36.1332 63.2557C36.3045 63.2053 36.4557 63.2153 36.6068 63.2859C36.8487 63.3968 36.8588 63.5279 36.627 63.6691C36.2441 63.901 35.8914 63.8809 35.5588 63.5985C35.3271 63.4069 35.3573 63.3061 35.6596 63.2758V63.2859ZM38.6625 63.3565C38.3904 63.5481 38.0881 63.5683 37.9874 63.417C37.8765 63.2658 38.0075 62.9935 38.2796 62.8019C38.5517 62.6103 38.854 62.5901 38.9548 62.7414C39.0656 62.8927 38.9346 63.1649 38.6625 63.3565ZM10.0541 62.812C15.8181 64.9397 21.6325 66.4724 27.4872 67.4203C27.598 67.4404 27.6585 67.5009 27.6383 67.6219C27.6182 67.753 27.5577 67.8035 27.4368 67.7833C25.6834 67.4909 23.6378 67.1984 21.2999 66.9362C16.1708 66.3413 11.4245 64.5867 7.06121 61.6624C6.99067 61.6221 6.9806 61.5616 7.0209 61.5011C7.09144 61.3902 7.17206 61.37 7.2829 61.4406C7.95806 61.9246 8.88514 62.3885 10.0541 62.8221V62.812ZM8.27045 58.9398C8.33091 58.7281 9.08668 58.7684 9.97345 59.0205C10.8602 59.2726 11.5152 59.6457 11.4548 59.8574C11.3943 60.0692 10.6385 60.0289 9.75176 59.7768C8.86499 59.5247 8.20998 59.1516 8.27045 58.9398ZM8.54252 49.8039C8.6836 50.0661 8.62314 50.1468 8.34098 50.0258C8.0286 49.8947 7.71621 49.6829 7.3736 49.4107C7.06121 49.1586 7.1116 49.0376 7.51467 49.0678C7.94798 49.088 8.2906 49.3401 8.5526 49.814L8.54252 49.8039ZM7.83714 47.8981C8.2906 47.4342 8.56268 47.1821 8.64329 47.1418C8.99599 46.9704 9.0766 47.0611 8.90529 47.404C8.57275 48.0796 8.23014 48.3317 7.87744 48.1804C7.73637 48.1099 7.71621 48.009 7.82706 47.8981H7.83714ZM30.8126 53.0408C30.6614 53.1618 30.2684 52.8996 29.9157 52.4761C29.5731 52.0425 29.4018 51.5988 29.553 51.4778C29.7041 51.3568 30.0971 51.619 30.4498 52.0425C30.7924 52.4761 30.9637 52.9198 30.8126 53.0408ZM32.0218 54.261C32.1931 54.3315 32.304 54.4324 32.3644 54.5836C32.4854 54.866 32.3947 54.9971 32.0823 54.987C30.9134 54.9164 29.825 54.6441 28.7871 54.15C28.5453 54.0391 28.4344 53.8576 28.4647 53.5954C28.4747 53.3937 28.5453 53.2324 28.6662 53.1013C28.8677 52.8996 29.0592 52.8996 29.2507 53.1013L29.4724 53.3332C29.5933 53.4744 29.7444 53.5551 29.9258 53.5954C30.6413 53.7568 31.3467 53.9786 32.0218 54.271V54.261ZM28.8274 51.4072C28.646 51.5686 28.505 51.7703 28.4042 51.9921C28.1321 52.5971 27.719 52.7786 27.1547 52.5366C26.5601 52.2744 26.5803 52.1232 27.2252 52.0526C27.9104 51.982 28.4747 51.3165 28.9181 50.0359C28.9685 49.8947 29.0592 49.8342 29.2104 49.8745L29.4018 49.9148C29.5026 49.935 29.5429 49.9955 29.5227 50.0863C29.432 50.6207 29.2003 51.0543 28.8073 51.4072H28.8274ZM41.7561 28.265C41.736 31.2094 41.4337 34.3052 40.8291 37.5421C40.6678 38.4093 40.4361 39.0345 40.1438 39.4277C40.033 39.5689 39.9221 39.6496 39.8113 39.6597C39.5594 39.7 39.4586 39.5991 39.4989 39.3471L40.9903 29.6465C41.0105 29.5456 40.9701 29.465 40.8895 29.4045C40.819 29.3641 40.7485 29.344 40.6678 29.354C40.6477 29.354 40.6477 29.354 40.6678 29.3339L41.4942 28.1742C41.6856 27.902 41.7864 27.9322 41.7763 28.265H41.7561ZM38.6928 35.5455C38.6928 35.5959 38.6928 35.6261 38.6323 35.6463C38.5416 35.6665 38.4711 35.6665 38.4308 35.6463C38.3804 35.6261 38.3602 35.6261 38.3602 35.6665C38.3401 36.8261 38.2695 38.0362 38.1587 39.2865C38.1184 39.6596 37.9571 39.9521 37.6448 40.1739L37.4734 40.2949C37.1711 40.4966 37.02 40.426 37.0301 40.0529L37.0804 32.1674C37.0804 32.0666 37.0301 31.996 36.9394 31.9758L36.234 31.8246C36.0929 31.7943 36.0224 31.8548 36.0324 31.996C36.1332 34.6077 36.4758 37.6126 35.8108 40.184C35.71 40.5773 35.5185 40.8092 35.2263 40.9C34.9643 40.9806 34.8131 40.8697 34.793 40.5874C34.6519 38.3689 34.6317 36.1606 34.7426 33.9522C34.7627 33.438 34.5814 32.7825 34.1984 31.9859C34.0977 31.7641 34.1581 31.6229 34.4101 31.5825C34.9139 31.4817 35.4178 31.4111 35.9014 31.3607C37.2518 31.1994 38.3703 30.2817 39.7508 29.949C40.0431 29.8784 40.0935 29.9691 39.9121 30.2112C38.723 31.7641 38.3199 33.5388 38.7028 35.5455H38.6928ZM25.1493 2.65221C27.1043 1.17998 34.5411 4.0841 35.4178 6.41345C35.5387 6.74622 35.2263 7.0689 34.8937 6.96806L29.0592 5.11265C28.9685 5.0824 28.908 5.11265 28.8778 5.2034L28.7972 5.41516C28.7972 5.41516 28.7972 5.48575 28.8375 5.50591L32.2133 7.04873C32.4753 7.16974 32.4652 7.25041 32.1831 7.30083C30.4196 7.59325 29.0995 7.03865 28.2127 5.61684C28.0717 5.39499 27.8903 5.23365 27.6787 5.10256L25.2199 3.70092C24.8269 3.47908 24.7866 2.92447 25.1493 2.65221ZM22.9828 19.5929C23.3153 15.6199 23.4463 11.4755 23.3959 7.14957C23.3959 6.46387 23.7184 6.14119 24.4137 6.18153C25.9454 6.27228 27.1849 6.85714 28.1422 7.94619C28.3639 8.19828 28.4042 8.48063 28.2631 8.78314C27.457 10.5075 27.2151 12.3326 27.5376 14.2586C27.5477 14.3393 27.598 14.3595 27.6686 14.3595C27.7391 14.3595 27.7794 14.309 27.7693 14.2385C27.729 12.8368 27.9205 11.4654 28.3538 10.1344C28.4344 9.87219 28.5755 9.84194 28.777 10.0335C29.0995 10.3562 29.2406 10.7696 29.1902 11.2839C29.0894 12.5141 28.9483 13.7343 28.767 14.9645C28.7267 15.2267 28.8274 15.4183 29.0491 15.5494C29.2809 15.6804 29.5227 15.7107 29.7747 15.6199C30.1576 15.4888 30.1878 15.3073 29.8553 15.0754C29.7847 15.025 29.7243 14.9544 29.684 14.8737C29.5731 14.6519 29.5429 14.3897 29.6235 14.1578C30.1173 12.4133 30.208 10.81 29.8754 9.35791C29.7747 8.92431 29.9359 8.80331 30.339 8.9949L30.7824 9.19657C31.2257 9.40833 31.4474 9.75118 31.4474 10.2453L31.4877 15.267C31.4877 15.3678 31.5381 15.4283 31.649 15.4384L31.8807 15.4586C31.9311 15.4586 31.9815 15.4183 32.0017 15.3578C32.2435 14.2687 32.304 13.2301 32.1931 12.2318C32.1629 11.9898 32.2737 11.8688 32.5156 11.8789H32.7675C32.9892 11.899 33.1001 12.0099 33.1101 12.2318L33.221 16.3964C33.221 16.7493 33.4527 17.072 33.7853 17.2031L34.0171 17.2938C34.3597 17.435 34.5007 17.3241 34.4604 16.9611C34.1581 14.6922 34.269 12.5847 34.8031 10.6285C34.8736 10.3663 34.9945 10.3461 35.1356 10.5881C35.2364 10.7495 35.2364 10.9411 35.1356 11.1831C35.0348 11.4049 34.9945 11.6469 35.0147 11.8889C35.3069 15.5292 35.4581 19.1694 35.4782 22.7996C35.4782 23.8382 35.0247 24.4432 34.0977 24.6046C31.256 25.1088 27.1143 26.2583 24.6153 24.7659C22.9022 23.7475 22.8417 21.3879 22.9929 19.5929H22.9828ZM15.2638 22.6584C16.1305 21.3979 17.3699 20.5307 18.9621 20.087C19.214 20.0165 19.4256 20.2786 19.3047 20.5005L17.9141 23.3441C17.8032 23.566 17.8234 23.8281 17.9645 24.0298C19.2543 25.9155 20.8263 27.1054 22.6906 27.6196C28.0515 29.1019 36.0728 29.1725 40.4663 25.2701C41.2624 24.5642 41.3934 24.6752 40.8795 25.613C39.4586 28.1742 35.2364 29.6162 31.9714 30.3019C30.087 30.6952 28.3639 30.7557 26.7617 30.4733C22.8417 29.7977 17.7125 27.539 15.284 24.2113C14.9414 23.7374 14.9414 23.1122 15.2638 22.6483V22.6584ZM33.3923 36.2715C33.5132 35.7169 33.5938 35.7169 33.6543 36.2816C33.7853 37.7538 33.7853 39.2361 33.6543 40.7285C33.6341 41.0008 33.483 41.142 33.2109 41.1621C33.0194 41.1823 32.7977 41.1319 32.566 41.021C32.2536 40.8798 32.2637 40.8193 32.6063 40.8294C32.7171 40.8294 32.828 40.7991 32.9287 40.7285C33.0396 40.6277 33.1001 40.4966 33.09 40.3453C33.0396 38.8429 33.1404 37.4816 33.4024 36.2614L33.3923 36.2715ZM22.0053 37.6429C22.1263 38.7219 21.4309 40.4764 22.4689 41.5857C22.7208 41.8478 22.6603 41.9386 22.3177 41.8377C19.7582 41.1117 17.4707 39.8512 17.2692 37.0177C17.0979 34.6379 16.7754 32.3086 16.3018 30.0397C16.1809 29.4549 16.0095 28.8498 15.7778 28.2045C15.5762 27.6095 15.7072 27.5289 16.1708 27.9423C18.5086 29.9893 21.2999 31.2498 24.5649 31.7036C24.8168 31.7439 24.9579 31.8851 24.9881 32.1372C25.4013 35.4144 25.6129 38.5807 25.6431 41.6462C25.6431 42.0193 25.8346 42.2108 26.1973 42.231L26.9128 42.2613C27.2655 42.2814 27.4267 42.1201 27.3864 41.7672L26.5299 32.6615C26.5198 32.5103 26.6206 32.3792 26.7617 32.3489C27.2655 32.2682 27.7794 32.2582 28.2732 32.3388C28.5352 32.3792 28.6763 32.5304 28.6964 32.7926L29.4623 41.9789C29.5026 42.4125 29.7243 42.5537 30.1274 42.4125L30.5808 42.2512C30.9839 42.11 31.1552 41.8277 31.1149 41.4041C30.863 38.4395 30.8227 35.4245 31.004 32.3489C31.004 32.1573 31.1048 32.0666 31.2963 32.0666H31.6187C31.8606 32.0464 31.9714 32.1674 31.9614 32.4094C31.8606 33.8514 32.2737 35.243 32.2234 36.5438C32.1528 38.2177 32.0017 39.7907 31.78 41.2327C31.6389 42.0999 30.8025 42.6747 29.946 42.4932C29.6235 42.4226 29.301 42.3722 28.9786 42.3318C28.6561 42.2915 28.3135 42.3319 27.9306 42.4327C24.5246 43.3705 23.2649 40.7689 23.3053 37.8748C23.3254 36.1908 23.0735 34.4867 22.5293 32.7422C22.489 32.6413 22.4286 32.5909 22.3177 32.5909H22.1162C21.8945 32.6111 21.7836 32.722 21.7836 32.9439C21.7635 34.4867 21.834 36.0597 22.0154 37.6731L22.0053 37.6429ZM13.8833 26.3289C13.9236 25.9155 14.0748 25.855 14.3771 26.1575L14.5988 26.3894C14.8305 26.6213 14.9515 26.9339 14.9515 27.2667L15.1228 39.5487C15.1228 39.8412 15.2437 40.0832 15.4755 40.2748C20.0302 43.8545 24.5951 44.4696 30.1072 44.5906C31.6691 44.631 33.2008 44.5301 34.7124 44.2982C36.4154 44.0461 37.9168 43.7133 39.2268 43.2898C39.5997 43.1789 39.902 43.1486 40.1438 43.1991C40.3655 43.2495 40.5671 43.1991 40.7283 43.0377C41.2624 42.5436 41.8166 42.2713 42.3809 42.2108C42.7638 42.1705 42.8042 42.2613 42.4817 42.4831C35.6495 47.1519 25.7842 47.1317 18.3373 44.036C15.3243 42.7856 13.7422 40.9705 13.581 38.5908C13.3795 35.364 13.4802 31.28 13.8833 26.339V26.3289ZM21.5116 48.9972C21.3705 49.7233 21.0682 50.3686 20.6147 50.9232C20.4434 51.1249 20.2519 51.1652 20.0202 51.0341C19.6876 50.8526 19.4055 50.6308 19.1939 50.3585C18.9822 50.1064 19.0326 50.0359 19.345 50.1165C19.5163 50.1669 19.6876 50.2476 19.8287 50.3384C20.0403 50.4795 20.2419 50.4695 20.4233 50.2779C20.8263 49.8947 21.048 49.3804 21.1186 48.735C21.1186 48.7048 21.1488 48.6846 21.179 48.6947L21.3705 48.7451C21.4914 48.7754 21.5317 48.846 21.5116 48.9771V48.9972ZM15.2739 48.7048C15.3042 48.614 15.3646 48.5939 15.4452 48.6241C16.2816 48.9468 17.0676 49.3502 17.8133 49.8443C17.8839 49.8947 17.8939 49.9552 17.8738 50.0157L17.773 50.2779C17.773 50.2779 17.7529 50.3182 17.7226 50.298C17.0374 49.6527 16.2413 49.1686 15.3445 48.8661C15.2638 48.846 15.2336 48.7855 15.2739 48.7048ZM14.3972 45.4982C14.4577 45.4276 15.0018 45.7502 15.6165 46.2242C16.2312 46.6981 16.6847 47.1418 16.6343 47.2124C16.5739 47.283 16.0297 46.9603 15.415 46.4864C14.8003 46.0124 14.3468 45.5687 14.3972 45.4982ZM16.3421 50.9636C16.7552 51.0442 17.0979 51.2862 17.3599 51.6493C17.4909 51.8207 17.6219 51.8308 17.7831 51.6896L18.0048 51.4879C18.1962 51.3165 18.3877 51.3064 18.5892 51.4476C19.2039 51.8913 19.869 52.2039 20.6046 52.3854C20.8666 52.456 21.0682 52.3652 21.1891 52.1232L21.8643 50.8325C21.965 50.661 22.0859 50.6308 22.2472 50.7417C22.3278 50.7921 22.3983 50.8728 22.4386 50.9535C22.5193 51.135 22.4789 51.2762 22.2976 51.3568C22.1263 51.4375 21.9852 51.5283 21.8844 51.6493C21.6023 51.9619 21.6728 52.4358 22.0255 52.6576C22.4084 52.8896 22.8619 52.6778 23.3758 52.0022C23.4463 51.9215 23.4463 51.9215 23.3959 52.0022C22.9626 52.7181 23.0533 53.1719 23.668 53.3232C23.9502 53.3937 24.2424 53.2627 24.3734 53.0005L26.026 49.693C26.1066 49.5518 26.2074 49.5115 26.3485 49.5821L26.6004 49.7233C26.7213 49.7938 26.7516 49.8846 26.681 49.9955L25.0889 52.7686C24.7765 53.3232 24.9276 53.5954 25.5625 53.5753C26.3888 53.5551 27.0237 53.7568 27.4973 54.1601C27.729 54.3618 27.6988 54.4425 27.3965 54.4122C24.2323 53.9887 21.0682 53.3534 17.904 52.4963C17.7529 52.456 17.6219 52.3955 17.5211 52.3047C17.4707 52.2644 17.4102 52.2039 17.3599 52.1534C17.2591 52.0526 17.1382 51.9921 16.9971 51.9518C16.07 51.6896 15.1631 51.3467 14.2864 50.9031C14.0647 50.7921 13.8329 50.7518 13.581 50.7921C12.8655 50.893 12.4121 50.6106 12.2005 49.9552C11.8881 48.9871 12.1501 48.7855 13.0066 49.3401C13.9035 49.9148 15.1429 50.7014 16.3723 50.9535L16.3421 50.9636ZM11.2935 47.7468C11.6462 47.1821 12.0896 46.8998 12.6237 46.9099C12.9159 46.9099 12.9462 47.0107 12.7245 47.1922C12.2911 47.5452 11.8679 47.8073 11.4749 47.9586C11.2129 48.0594 11.1625 47.9788 11.3036 47.7468H11.2935ZM10.9106 49.6628C10.699 49.7535 10.4773 49.7031 10.2556 49.5115C10.0843 49.3602 10.0037 49.1888 10.0238 48.9771C10.044 48.735 10.1649 48.6645 10.3765 48.7754C10.4269 48.8056 10.4773 48.846 10.5378 48.8964C10.5881 48.9468 10.6385 48.9771 10.699 48.9972C10.83 49.0376 10.9308 49.0981 11.0114 49.1989C11.1726 49.4006 11.1424 49.5518 10.9106 49.6527V49.6628ZM3.14128 59.3331C3.12112 55.9046 2.48628 51.7198 3.5242 48.604C4.69313 45.0847 6.91006 42.2713 10.1649 40.1941C10.3463 40.0832 10.5075 40.1033 10.6486 40.2647L10.7998 40.426C11.0215 40.6882 11.0215 41.0714 10.7796 41.3235C9.41922 42.7251 7.8976 44.2679 6.19459 45.9418C3.64513 48.4628 3.46374 54.5635 3.75597 58.3449C3.7862 58.7281 3.70559 59.081 3.50405 59.444C3.2622 59.8877 3.14128 59.8574 3.14128 59.3533V59.3331ZM45.5652 115.359C45.5552 115.469 45.4544 115.55 45.3435 115.54L45.1521 115.52C45.0412 115.52 44.9606 115.409 44.9707 115.298L47.3791 89.3626C47.3892 89.2516 47.4899 89.171 47.6008 89.1811L47.7922 89.2012C47.9031 89.2012 47.9837 89.3121 47.9736 89.4231L45.5652 115.359ZM47.5302 72.6739C47.4295 74.8016 46.845 77.1007 46.7543 79.3998C46.7039 80.63 46.5729 81.83 46.3613 83.04C46.0792 84.6534 46.0187 86.3072 45.797 87.9307C44.9707 93.9003 44.1645 100.122 43.3886 106.586C43.0057 109.792 42.5522 112.807 42.0282 115.641C41.9577 116.024 41.736 116.357 41.4135 116.558C39.4888 117.769 37.4029 118.666 35.1558 119.231C33.1807 119.735 30.9637 119.785 28.505 119.362C25.1695 118.807 22.0255 117.99 19.083 116.932C17.8839 116.498 16.7452 116.397 15.6569 116.619C13.9438 116.982 12.5028 117.466 11.354 118.081C10.5579 118.515 10.4471 119.614 11.1625 120.189C15.5662 123.698 20.3628 125.704 25.5625 126.199C26.8725 126.32 28.384 126.199 30.1374 125.856C35.1054 124.837 42.2802 123.96 44.8699 118.757C45.1924 118.101 45.3839 118.142 45.4342 118.858C45.4846 119.543 44.9304 120.673 44.3963 121.227C36.365 129.758 19.7078 129.587 11.2129 121.933C10.0843 120.915 9.68122 120.037 9.42929 118.454C8.75414 114.239 8.09914 110.014 7.47437 105.789C6.8899 101.816 6.38606 97.4195 5.98298 92.5894C5.39851 85.6013 4.5319 78.5931 4.30013 71.5748C4.20943 68.8118 3.6552 65.3329 3.68543 62.217C3.68543 61.9549 3.79628 61.8944 4.0079 62.0557C8.43168 65.3733 12.9764 67.4808 17.6722 68.3681C22.5293 69.2959 27.8197 69.6085 33.5434 69.3261C35.8309 69.2152 39.4888 68.4286 42.6328 68.6707C43.7816 68.7513 44.5273 68.3177 45.5149 67.8841C45.7063 67.8035 45.8071 67.864 45.8272 68.0656L45.8776 68.5396C45.8978 68.7312 45.8172 68.832 45.6257 68.8623C44.6785 68.9732 43.7917 69.2454 42.9855 69.6589C42.7638 69.7597 42.5522 69.7597 42.3507 69.6387C42.0081 69.4471 41.6151 69.4169 41.1717 69.5278C38.9145 70.1429 36.6471 70.6773 34.3496 71.1412C31.4575 71.726 28.2127 71.5042 25.2803 71.8571C24.716 71.9277 24.716 71.9983 25.2803 72.079C31.1552 72.8958 36.8789 71.8672 42.6228 70.4757C42.9855 70.3849 43.3584 70.5967 43.4793 70.9597L43.5499 71.2118C43.6607 71.5647 43.5297 71.7462 43.1669 71.7765C40.9701 71.9277 39.0455 72.9159 36.9696 73.5411C36.8991 73.5613 35.4883 74.0352 32.7272 74.973C30.5506 75.7091 28.3135 76.1932 26.0059 76.415C25.9353 76.415 25.895 76.4553 25.9051 76.5259C25.9051 76.6066 25.9555 76.6368 26.016 76.6268C27.981 76.5562 29.8956 76.2537 31.7598 75.7091C34.3395 74.9529 35.6495 74.5697 35.71 74.5495C37.8664 74.0151 40.0028 73.4504 42.1391 72.8453C43.0359 72.5932 43.8522 72.6537 44.7792 72.4924C45.0312 72.4521 45.1622 72.563 45.1521 72.8252C45.1521 73.0773 45.0815 73.3193 44.9606 73.5512C44.8498 73.773 44.8195 74.005 44.88 74.247C45.0715 75.1142 44.9707 76.0016 44.5676 76.8889C44.5172 77.0099 44.4265 77.0503 44.3056 77.0099L44.0134 76.9192C43.8421 76.8688 43.7816 76.657 43.8925 76.5158C44.4265 75.8402 44.5979 75.0436 44.3963 74.1461C44.356 73.9949 44.3963 73.8537 44.4669 73.7327C44.5676 73.5815 44.5475 73.4705 44.4064 73.3899C44.2351 73.289 44.0839 73.3092 43.9429 73.4302C43.2979 74.0251 42.5119 74.4285 41.605 74.6403C39.5695 75.1142 37.7254 75.7495 36.0526 76.5663C35.9417 76.6167 35.9014 76.7679 35.972 76.8688C36.0224 76.9394 36.0929 76.9696 36.1735 76.9494C38.0781 76.4957 39.9221 76.1226 41.6957 75.8402C42.4212 75.7293 42.6631 75.4873 43.2274 75.1041C43.4491 74.9529 43.5398 75.0134 43.4995 75.2755C43.3584 76.2234 42.7941 76.8284 41.8166 77.1108C39.6803 77.7259 36.889 78.3309 34.2287 78.5225C31.4777 78.7242 28.7367 79.0469 26.026 79.4905C25.9152 79.5107 25.8648 79.5712 25.8749 79.6821C25.885 79.8031 25.9555 79.8536 26.0663 79.8334C29.2204 79.299 32.4047 79.0469 35.5991 79.0569C36.4859 79.0569 37.4634 78.9662 38.5618 78.7948C40.2144 78.5326 41.5445 78.7242 43.1165 77.8469C43.308 77.746 43.4793 77.7561 43.6405 77.8973L43.9328 78.1595C44.2149 78.4116 44.3963 78.3612 44.5172 78.0082L44.6281 77.6755C44.6885 77.4839 44.7893 77.4637 44.9304 77.6049C45.1219 77.8166 45.1622 78.0587 45.0513 78.341C44.9808 78.5124 44.8195 78.6637 44.5777 78.7746C44.0739 79.0368 43.5498 79.2687 43.0158 79.5006C41.7965 80.025 40.4462 79.9746 39.1261 80.3678C38.1889 80.6502 37.4432 80.8216 36.8991 80.9023C33.6845 81.3359 30.47 81.7594 27.2554 82.1829C26.9128 82.2333 26.6105 82.3241 26.3183 82.4854C26.026 82.6468 26.0361 82.7073 26.3787 82.677C26.8826 82.6266 27.3058 82.3543 27.8097 82.3241C31.0141 82.1224 34.2085 81.83 37.3928 81.4468C38.6021 81.3056 40.0229 80.7914 41.4639 80.7813C42.6732 80.7611 43.2072 80.4888 44.225 80.0351C44.4669 79.9241 44.5676 79.9947 44.5374 80.2569C44.4467 81.0233 44.0638 81.5678 43.3886 81.8905C43.1669 81.9913 43.046 82.1628 43.0258 82.4148L42.9553 83.5442C42.9352 83.7459 42.8142 83.9375 42.6328 84.0282C41.3128 84.6736 40.0028 85.0467 38.7129 85.1576C34.6015 85.5106 30.5304 86.0853 26.4896 86.9021C26.3888 86.9223 26.3485 86.9828 26.3687 87.0836C26.3888 87.1845 26.4493 87.2248 26.54 87.2046C30.349 86.529 34.1884 86.1357 38.068 86.0248C39.6501 85.9845 41.0508 85.6013 42.5321 85.2887C42.7538 85.2383 42.9553 85.4198 42.9452 85.6416C42.915 86.6299 42.7336 87.0332 42.4112 86.8618C41.9678 86.6299 41.6252 86.7509 41.3833 87.2248C41.3329 87.3357 41.2422 87.3559 41.1415 87.3055C41.0709 87.2651 41.0004 87.2349 40.95 87.2147C40.9097 87.1945 40.8492 87.1945 40.7888 87.1945C35.9619 87.6887 31.2257 88.7172 26.6004 90.2903C26.4795 90.3407 26.4392 90.4214 26.4795 90.5323L26.54 90.7138C26.5803 90.8146 26.6407 90.8449 26.7415 90.8045C27.6787 90.4718 28.5957 90.1289 29.5127 89.776C30.4599 89.4029 31.4071 89.1609 32.3644 89.0298C35.5185 88.5861 38.7028 88.1424 41.9073 87.6987C42.2499 87.6584 42.522 87.9508 42.4615 88.2937C42.4112 88.5559 42.1995 88.7676 41.8368 88.929C40.8593 89.3626 39.8516 89.7155 38.8137 89.9676C38.3904 90.0684 37.7758 90.1088 36.9595 90.1088C36.2743 90.1088 35.6495 90.2096 35.1054 90.4314C35.0348 90.4617 35.0348 90.4718 35.1255 90.4718C36.7076 90.3911 38.3098 90.3609 39.9121 90.4012C40.7988 90.4214 41.4942 90.1491 41.998 89.5945C42.2902 89.2718 42.4313 89.3323 42.4112 89.7558L42.3809 90.4113C42.3809 90.5928 42.2701 90.7642 42.1088 90.865C41.0407 91.5306 40.295 91.8734 39.8617 91.8835C37.0401 92.0146 34.3798 92.2969 31.8707 92.7406C30.6514 92.9625 29.039 92.8314 27.7693 93.2851C27.1547 93.507 27.1748 93.5877 27.8298 93.5272L41.9174 92.186C42.1693 92.1658 42.2701 92.2768 42.2197 92.5289L42.0786 93.1742C42.0081 93.4969 41.8166 93.6582 41.4841 93.6683C39.4384 93.749 37.413 94.0717 35.4077 94.6263C33.6946 95.1002 32.0017 95.1002 30.3692 95.6447C30.339 95.6447 30.3188 95.6952 30.3289 95.7254C30.3289 95.7658 30.3591 95.7859 30.3994 95.7859C34.1581 95.7052 37.8261 95.191 41.4135 94.233C41.6151 94.1826 41.8065 94.3238 41.8065 94.5254V95.0599C41.8267 95.2918 41.7158 95.4431 41.4942 95.5036C38.33 96.522 35.1054 97.2279 31.8001 97.601C31.6994 97.601 31.649 97.6716 31.659 97.7623C31.659 97.8632 31.7195 97.9136 31.8203 97.9237C35.1356 97.9943 38.3703 97.4901 41.5042 96.4111C41.6655 96.3607 41.736 96.4111 41.7259 96.5825L41.6856 97.7523C41.6856 97.9438 41.5848 98.0447 41.4035 98.085L32.2334 99.9203C32.1528 99.9404 32.1226 99.9808 32.1327 100.061L32.1629 100.253C32.1629 100.303 32.2032 100.324 32.2536 100.314C34.7023 99.8598 37.1611 99.5976 39.6299 99.5371C39.9826 99.5371 40.5671 99.3354 41.3732 98.9522C41.6856 98.801 41.8166 98.8917 41.7864 99.2346L41.7561 99.6077C41.7259 99.8396 41.5748 100.041 41.3531 100.132C37.9571 101.403 34.7224 101.352 31.9513 101.907C31.9311 101.907 31.911 101.927 31.911 101.947L31.9412 102.149C31.9614 102.25 32.0117 102.29 32.1024 102.29L41.0709 101.655C41.343 101.635 41.5244 101.927 41.3934 102.159C41.2322 102.441 41.0205 102.663 40.7485 102.834C40.3555 103.097 39.9221 103.248 39.4586 103.278C36.9696 103.5 34.9744 103.46 32.2838 103.843C31.2056 104.004 30.1173 104.004 29.0189 103.843C28.9383 103.843 28.8879 103.873 28.8778 103.954C28.8778 104.045 28.908 104.095 28.9887 104.095C30.8428 104.166 32.566 104.347 34.4705 104.216C36.6572 104.065 38.8641 104.055 41.0608 104.166C41.2019 104.166 41.2624 104.246 41.2321 104.387L41.1818 104.66C41.1818 104.66 41.1616 104.71 41.1314 104.73C40.0834 105.164 39.1261 105.527 37.9672 105.608C35.5891 105.769 33.2109 106.041 30.8529 106.424C30.087 106.545 29.2607 106.283 28.4445 106.424C28.2228 106.465 28.1926 106.545 28.374 106.686C28.515 106.797 28.7166 106.858 28.9584 106.848C32.9892 106.747 36.6572 106.576 39.9725 106.323C41.6755 106.192 41.7461 106.485 40.1942 107.181C39.9826 107.281 39.4989 107.402 38.7532 107.584C34.6821 108.502 30.5607 108.925 26.3888 108.834C26.288 108.834 26.2276 108.885 26.2175 108.996C26.2074 109.107 26.2578 109.167 26.3687 109.177C30.9738 109.56 35.5891 109.349 40.2345 108.532C40.4965 108.481 40.6981 108.774 40.5671 109.006C39.8818 110.196 38.8943 110.942 37.6145 111.254C34.1581 112.071 30.6211 112.525 27.0136 112.606C26.9833 112.606 26.9632 112.626 26.9632 112.656V112.908C26.9632 113.07 27.0438 113.15 27.205 113.16C31.1854 113.322 35.1054 112.878 38.9548 111.839C39.2067 111.769 39.3377 111.859 39.3377 112.132C39.3377 112.253 39.2671 112.364 39.116 112.464C38.2897 113.019 37.7455 113.564 36.8487 113.806C34.1077 114.582 31.2761 114.935 28.3538 114.905C28.3236 114.905 28.3034 114.925 28.3034 114.955V115.157C28.2833 115.288 28.3437 115.348 28.4647 115.369C31.4474 115.691 34.3697 115.449 37.2215 114.653C38.1688 114.38 38.5618 113.947 39.3478 113.422C39.5795 113.271 39.6601 113.332 39.6299 113.594C39.4989 114.451 39.0757 115.056 38.3703 115.419C34.2186 117.547 29.9762 117.738 25.633 115.984C25.3408 115.863 25.109 115.843 24.9276 115.913C24.3533 116.165 24.3633 116.387 24.9579 116.569C25.1493 116.629 25.4214 116.639 25.7741 116.599C26.026 116.569 26.2578 116.599 26.4896 116.69C30.3188 118.142 34.2891 118.111 38.3904 116.609C39.7105 116.125 40.426 115.822 40.6981 114.31C41.3833 110.478 41.9879 106.576 42.5321 102.613C43.177 97.8934 43.8522 93.1944 44.5777 88.4954C44.9405 86.1257 45.1118 83.6955 45.6156 81.346C46.0892 79.0973 46.0288 76.8789 46.3311 74.6302C46.714 71.6857 46.7745 69.3463 46.8551 66.6236C46.8551 66.3716 46.7543 66.301 46.5326 66.422C44.4467 67.4909 42.3809 67.9547 40.3353 67.8135C39.6803 67.7732 39.6702 67.6522 40.295 67.4808L46.8954 65.6153C47.0365 65.5749 47.1574 65.4943 47.2582 65.3833C47.3589 65.2825 47.4799 65.1918 47.6109 65.1212C47.9736 64.9598 48.1349 65.0707 48.0845 65.464C47.8023 67.874 47.6109 70.2841 47.5 72.6941L47.5302 72.6739ZM41.7259 119.281C40.4562 120.098 39.1966 120.471 38.1587 121.661C37.6951 122.185 37.0905 122.518 36.3348 122.639C36.2038 122.659 36.0828 122.568 36.0728 122.437L36.0526 122.236C37.2014 122.044 38.0982 121.489 38.7532 120.582C38.9044 120.38 39.0958 120.219 39.3175 120.108C40.0632 119.725 40.8089 119.352 41.5546 118.989C41.6453 118.948 41.7158 118.969 41.7662 119.049C41.8166 119.14 41.7965 119.211 41.7158 119.271L41.7259 119.281ZM32.5559 123.859C32.1931 124.071 31.8404 124.152 31.7598 124.01C31.6792 123.879 31.911 123.597 32.2737 123.375C32.6365 123.163 32.9892 123.083 33.0698 123.224C33.1504 123.355 32.9187 123.637 32.5559 123.859ZM30.3994 124.131C30.2785 124.333 30.0568 124.454 29.7444 124.484C28.8476 124.585 27.719 124.918 26.3687 125.493C26.0462 125.634 25.764 125.614 25.5222 125.442C25.2904 125.271 25.3106 125.13 25.5826 125.029C26.7516 124.595 27.9608 124.293 29.1902 124.131C29.3111 124.111 29.5127 124.051 29.8049 123.93C29.9359 123.879 30.077 123.849 30.218 123.839C30.47 123.819 30.5204 123.91 30.3894 124.131H30.3994ZM22.9223 119.967C22.096 120.128 21.3705 120.078 20.7558 119.846C20.1915 119.624 19.6272 119.513 19.0528 119.493C16.7855 119.412 15.2135 118.404 13.0066 119.765C12.8958 119.836 12.8152 119.805 12.7446 119.695L12.6438 119.533C12.6438 119.533 12.6237 119.453 12.6741 119.422C13.2988 119.069 13.9942 118.989 14.6189 118.727C17.0777 117.658 20.8062 119.039 22.9223 119.634C23.3859 119.765 23.3758 119.876 22.9022 119.967H22.9223ZM23.0332 124.152C22.9425 124.343 20.9473 123.668 18.5691 122.629C16.1909 121.59 14.3368 120.582 14.4174 120.38C14.5081 120.189 16.5033 120.864 18.8815 121.903C21.2596 122.942 23.1138 123.95 23.0332 124.152ZM45.5249 71.2723C45.3839 71.5042 45.0916 71.5949 44.8498 71.4739C44.5374 71.3025 44.4769 71.0303 44.6684 70.6572C44.7389 70.516 44.9909 70.4051 45.4141 70.3143C45.4947 70.2942 45.5854 70.3446 45.6156 70.4152C45.7265 70.6672 45.6962 70.9496 45.5149 71.2723H45.5249ZM47.8729 54.4324C46.8249 54.9366 46.5427 55.713 47.0264 56.7516C47.1776 57.0743 47.0969 57.155 46.7745 56.9836C46.3714 56.7718 46.1699 56.3483 46.1699 55.713C46.1699 55.4408 46.2605 55.2088 46.452 54.9971C46.6838 54.745 46.9156 54.4929 47.1574 54.2206C47.5 53.8374 47.5907 53.5248 47.4496 53.2929C47.2783 53.0408 46.9055 52.8492 46.3109 52.7181C45.9885 52.6475 45.8675 52.456 45.928 52.1232C45.9986 51.8207 46.3109 51.7803 46.8853 52.0224C47.3589 52.2139 47.8326 52.456 48.2759 52.7181C48.5077 52.8492 48.5883 53.0509 48.5379 53.303C48.5379 53.3736 48.5077 53.4341 48.4876 53.4946C48.4674 53.5349 48.417 53.6963 48.3162 53.9685C48.2457 54.1702 48.0946 54.3114 47.8729 54.4324ZM48.941 57.0743C48.5279 57.4878 48.3364 57.4071 48.3566 56.8121L48.4271 55.3702C48.4271 55.1887 48.5178 55.1382 48.679 55.229L49.4146 55.6424C49.5255 55.713 49.5859 55.8441 49.5557 55.9752C49.4449 56.3987 49.2433 56.7617 48.941 57.0642V57.0743ZM49.5658 50.7518C49.7572 50.6711 50.0596 51.0241 50.2611 51.5282C50.4626 52.0224 50.4727 52.4963 50.2813 52.5669C50.0898 52.6475 49.7875 52.2946 49.5859 51.7904C49.3844 51.2963 49.3743 50.8224 49.5658 50.7518ZM49.7673 54.1702C49.8479 53.7971 50.0293 53.5248 50.1704 53.5551C50.3115 53.5853 50.3719 53.908 50.2813 54.2811C50.2006 54.6542 50.0193 54.9265 49.8782 54.8962C49.7371 54.866 49.6766 54.5433 49.7673 54.1702ZM50.513 68.5799C50.2611 70.1227 49.9689 71.363 49.858 71.3429C49.7472 71.3227 49.858 70.0521 50.1099 68.5093C50.3619 66.9665 50.6541 65.7262 50.7649 65.7464C50.8758 65.7665 50.7649 67.0371 50.513 68.5799ZM52.6393 55.4307C52.5889 56.0458 52.4276 56.5298 52.2966 56.5197C52.1656 56.5096 52.0951 56.0054 52.1455 55.3903C52.1959 54.7752 52.3571 54.2912 52.4881 54.3013C52.6191 54.3114 52.6896 54.8156 52.6393 55.4307ZM52.7501 52.9803L52.5183 53.0005C52.4075 53.0005 52.3168 52.9198 52.3067 52.8089C51.9641 47.8678 49.6061 44.1671 45.8877 40.7991C45.7869 40.7184 45.7567 40.5773 45.8071 40.4563L45.9079 40.1941C45.9885 39.9722 46.1295 39.9319 46.3109 40.0832C50.4626 43.3906 52.6393 47.6662 52.8106 52.9198C52.8106 52.9601 52.7904 52.9904 52.7501 52.9904V52.9803Z" fill="black"/>
</g>
<defs>
<clipPath id="clip0_2296_685">
<rect width="55" height="130" fill="white" transform="translate(0.501221)"/>
</clipPath>
</defs>
</svg>
