<svg width="100" height="100" viewBox="0 0 100 100" fill="none" xmlns="http://www.w3.org/2000/svg">
<g clip-path="url(#clip0_2119_1202)">
<path d="M99.6072 43.5984C98.6714 35.879 96.0721 28.7714 91.8207 22.2875C78.2116 1.48265 52.0795 -5.0483 29.1127 3.93029C14.4755 9.64928 2.37984 23.7585 0.473644 40.5742C-1.45565 57.6135 2.32207 73.7114 14.6834 86.1261C23.4981 94.9635 34.762 99.035 47.1003 99.8823C57.0702 100.577 66.4394 98.329 75.2079 93.1513C92.6871 82.843 102.056 63.8267 99.6072 43.5984ZM83.2717 43.9868C83.5028 43.1866 83.988 42.6217 84.3692 42.7394C84.7504 42.8453 84.8891 43.5867 84.6696 44.3869C84.4385 45.1871 83.9533 45.7519 83.5721 45.6342C83.1908 45.5283 83.0522 44.787 83.2717 43.9868ZM77.6686 21.1226L78.1423 21.1814C78.408 21.2167 78.616 21.4403 78.6275 21.7109C78.6391 21.9345 78.5813 22.1346 78.4311 22.2993C78.2347 22.5229 77.9921 22.5935 77.7033 22.5111C77.3567 22.417 77.1834 22.0993 77.195 21.558C77.195 21.2285 77.3567 21.0873 77.6686 21.1226ZM66.0351 24.3116C67.2019 24.2527 67.7911 24.8529 67.8142 26.1237C67.8142 26.5474 67.6525 26.6533 67.2943 26.4415C66.8784 26.1943 66.3586 25.8531 65.7347 25.4177C64.7874 24.7469 64.8914 24.3822 66.0351 24.3116ZM65.0069 53.7773C64.9607 53.4596 64.9954 53.1419 65.0993 52.8477L66.4856 49.1409C66.6127 48.7761 66.8553 48.682 67.2019 48.835C67.329 48.8938 67.433 48.9762 67.5138 49.0821C67.7449 49.388 67.7564 49.694 67.5485 50.0117C67.0171 50.8001 66.7745 51.6592 66.8207 52.6006C66.8438 52.9889 66.682 53.2478 66.3239 53.389C65.8734 53.5773 65.469 53.8126 65.0993 54.0833C65.0647 54.1068 65.0531 54.1421 65.0531 54.1892V54.2598C65.0531 54.2598 65.0531 54.2715 65.0416 54.2715C65.0531 54.095 65.0416 53.9303 65.0069 53.7773ZM64.9492 44.3751C64.8452 43.5749 65.1802 42.8689 65.677 42.7983C66.1737 42.7394 66.6589 43.3396 66.7514 44.1515C66.8553 44.9517 66.5203 45.6578 66.0235 45.7284C65.5268 45.7872 65.0416 45.1871 64.9492 44.3751ZM63.6437 38.1383C64.0018 37.8795 64.6257 38.1383 65.0531 38.7385C65.4806 39.3269 65.5383 40.0211 65.1918 40.28C64.8336 40.5389 64.2098 40.28 63.7823 39.6799C63.3549 39.0915 63.2971 38.3972 63.6437 38.1383ZM63.2278 78.6537C64.0365 78.7832 64.487 79.2892 64.5679 80.1717C64.6026 80.6189 64.4062 80.8425 63.9787 80.8307H63.0661C62.7772 80.819 62.5115 80.6425 62.4076 80.3718C62.1996 79.854 62.165 79.4422 62.3151 79.1244C62.5115 78.7361 62.8119 78.5831 63.2278 78.6537ZM60.0624 16.8745C60.305 16.345 60.5014 16.3567 60.6747 16.9098C60.8595 17.5335 60.9866 18.0277 61.0443 18.3925C61.1252 18.8632 60.9519 18.9809 60.5476 18.7338C59.8429 18.3219 59.6811 17.71 60.0624 16.8745ZM57.8905 23.5114C58.4103 23.6055 58.7454 23.9115 58.884 24.441C59.219 25.6648 59.5194 26.8533 59.8082 27.9948C60.4205 30.513 62.0494 32.3958 62.396 35.2435C62.4307 35.5848 62.3151 35.6554 62.0494 35.4318C61.8068 35.2318 61.622 34.9729 61.5065 34.6787C60.3396 31.5721 58.8031 27.983 56.9085 23.9232C56.7814 23.6526 57.0125 23.3349 57.3013 23.3937L57.8905 23.5114ZM56.9894 22.4288C56.7121 22.6053 55.9265 21.8875 55.2333 20.8166C54.5517 19.7458 54.2052 18.722 54.4824 18.5337C54.7597 18.3572 55.5453 19.075 56.2384 20.1459C56.92 21.2167 57.2666 22.2405 56.9894 22.4288ZM54.3091 8.47253C54.4824 8.15481 54.9676 8.09597 55.4066 8.34309C55.8456 8.57844 56.0651 9.03737 55.8918 9.35509C55.7186 9.67281 55.2333 9.73165 54.7943 9.48453C54.3553 9.24919 54.1358 8.79025 54.3091 8.47253ZM50.3812 12.9559C51.0975 13.4619 51.5827 14.015 51.4556 14.1915C51.3285 14.3798 50.6585 14.1209 49.9422 13.6149C49.2259 13.1089 48.7407 12.5558 48.8678 12.3793C48.9949 12.1911 49.665 12.4499 50.3812 12.9559ZM53.9741 91.8804C52.6802 93.269 51.2015 94.1044 49.5494 94.3986C47.3544 94.7752 44.963 93.316 42.5138 93.4572C38.0661 93.7161 33.8724 92.3746 29.9099 89.421C29.5979 89.1856 29.2283 89.0562 28.8355 89.0444C26.2823 88.9738 23.9718 87.9383 21.927 85.926C17.5947 81.6662 13.0661 78.1007 10.2703 72.417C4.66727 61.0143 3.39647 48.9997 6.43483 36.3497C7.63631 31.372 9.63492 26.9239 12.9043 22.9112C16.2662 18.7808 20.1941 15.2977 24.665 12.4617C26.5943 11.2497 28.2232 10.673 29.5633 10.7554C32.3475 10.9319 34.6234 11.5085 36.414 12.4735C37.8812 13.2737 39.4062 14.674 40.9889 16.6862C48.4635 26.1826 53.2694 36.9851 55.4182 49.0939C55.7186 50.7884 55.8803 52.4947 55.9034 54.2009C55.9034 54.5657 55.7879 54.8952 55.5453 55.1659L55.164 55.6013C54.8752 55.919 54.8406 56.2603 55.0485 56.6368C55.3951 57.2723 55.7301 57.7312 56.042 58.0254C57.024 58.9197 57.1395 60.4495 56.3193 61.4968C55.4066 62.6735 54.9214 63.9915 54.8868 65.4624C54.8174 67.9218 53.8586 69.8988 53.408 72.2758C53.3503 72.5817 53.4427 72.8288 53.6853 73.0171L53.9972 73.2525C54.3091 73.4878 54.3322 73.7585 54.0896 74.0527C52.0679 76.5356 51.0628 78.842 53.2001 81.1485C53.4658 81.4309 53.512 81.7486 53.3272 82.0899C53.0383 82.6312 52.6109 83.0548 52.0448 83.3607C51.7098 83.5372 51.4672 83.8197 51.3401 84.1845C51.0051 85.1023 50.9589 86.0202 51.1784 86.9263C51.3747 87.7265 50.878 88.5384 50.0924 88.7032L43.6807 90.0329C43.2879 90.1153 43.0106 89.9623 42.8604 89.574L42.7218 89.2327C42.5485 88.8208 42.2481 88.5973 41.8207 88.5737C40.0185 88.4678 38.2971 88.0677 36.6682 87.3499C36.3101 87.1969 35.9519 87.1852 35.5938 87.3381C35.0277 87.5853 34.6465 88.0089 34.4385 88.609C34.2652 89.115 34.4039 89.4681 34.8775 89.6916L40.2495 92.2923C40.6423 92.4805 41.116 92.4099 41.4394 92.104C41.786 91.7745 42.1788 91.5509 42.6178 91.4215C42.9991 91.3156 43.311 91.4097 43.5767 91.7039C44.5356 92.7747 45.7024 93.3396 47.054 93.3866C47.4237 93.3984 47.7472 93.5161 48.036 93.7514C48.2902 93.9397 48.5674 94.0574 48.8563 94.1044C49.2375 94.1633 49.561 94.0338 49.8151 93.7161C50.7509 92.5982 52.0679 91.8569 53.7662 91.5038C54.2167 91.4097 54.286 91.5391 53.9741 91.8804ZM55.4528 89.0327C54.6326 89.3975 53.7546 89.5504 52.8419 89.5034C52.7149 89.6563 52.5647 89.7269 52.3798 89.7269C52.091 89.7387 52.0332 89.621 52.2065 89.3857L55.0832 85.5024C55.2911 85.2318 55.4297 85.2553 55.4991 85.5966L55.9958 87.9501C56.0882 88.3972 55.8687 88.8444 55.4528 89.0327ZM57.4977 79.654L54.8868 81.019C54.3438 81.3014 54.1358 81.1367 54.2745 80.5248C54.6326 78.9597 55.4991 77.783 56.8738 77.0063C57.2551 76.7945 57.3359 76.4885 57.128 76.1002L56.7814 75.4883C56.5619 75.0882 56.5735 74.6881 56.7814 74.2998L58.5028 71.3108C58.6991 70.9696 58.7685 70.593 58.6992 70.1929C58.5028 68.9574 58.5259 67.7571 58.7569 66.5686C59.1613 64.4857 59.3808 63.2854 59.3923 62.9795C59.8544 55.7425 59.2768 49.035 57.671 42.8689C55.5915 34.8787 52.2643 27.2887 47.701 20.0988C46.7537 18.6043 45.8872 17.0863 45.1132 15.5683C44.3392 14.0621 43.3918 12.7559 42.2712 11.6615C40.9658 10.4024 39.4062 9.4257 37.5808 8.73142C37.061 8.53137 37.0725 8.40193 37.6271 8.34309C39.5333 8.14304 40.9889 8.84909 42.0171 10.4612C42.225 10.7907 42.4907 11.0496 42.8258 11.2497C43.8424 11.8733 44.2121 12.0028 44.9284 13.0383C50.4043 20.8872 53.7084 26.2414 54.8406 29.0774C56.1229 32.2899 57.3706 35.5495 58.6067 38.8326C60.0046 42.5394 60.8942 45.9166 61.2523 48.9409C62.0956 55.9661 61.9339 62.8618 60.7786 69.6399C60.64 70.4518 60.7093 71.4874 60.9866 72.7465C61.0906 73.1936 60.9404 73.5114 60.536 73.7114C60.3743 73.7938 60.201 73.8291 60.0162 73.7938C59.5772 73.7232 59.1497 74.0056 59.0226 74.441C58.78 75.2883 58.3526 75.9825 57.7172 76.5121C57.3475 76.8298 57.3013 77.1828 57.567 77.5829C57.9482 78.1595 58.4912 78.5714 59.1959 78.8303C59.9699 79.1127 60.3743 79.9835 60.0855 80.7719C59.9353 81.172 59.6465 81.4073 59.219 81.4662C58.7569 81.525 58.4912 81.3132 58.4219 80.8543L58.3064 80.0776C58.2255 79.5481 57.9598 79.4069 57.4861 79.654H57.4977ZM58.3179 87.0087C57.8905 86.938 57.7865 86.7145 58.0175 86.3379C58.4681 85.573 59.323 85.0435 60.5822 84.7258C60.9404 84.6316 61.0906 84.7728 61.0443 85.1376C60.8479 86.6556 59.9468 87.2793 58.3179 87.0087ZM65.03 91.4215L61.0212 93.4925C60.64 93.6926 60.4089 93.5749 60.3165 93.163C60.2819 92.9865 60.2934 92.8218 60.3627 92.6688C60.5014 92.3276 60.744 92.1393 61.0906 92.0922L62.4884 91.9157C62.9505 91.8569 63.2625 91.598 63.4242 91.1508L63.5282 90.8566C63.6321 90.586 63.8285 90.4448 64.1174 90.4448C64.5564 90.4565 64.8914 90.5742 65.1109 90.7742C65.3997 91.0331 65.365 91.2449 65.03 91.4215ZM64.9838 87.0087C64.6141 87.2558 64.0711 87.2558 63.3433 87.0322C62.4422 86.7498 62.2112 85.5613 62.939 84.9493C63.7361 84.2786 64.5101 84.514 65.2495 85.6672C65.6077 86.2085 65.5152 86.6556 64.9838 87.0087ZM66.0813 72.4876C65.365 73.6173 65.2033 75.0176 63.9556 75.9943C63.6206 76.2532 63.3664 76.1826 63.2047 75.7943C62.9505 75.1941 62.9159 74.6057 63.0892 74.0409C63.2047 73.6408 63.5513 73.2289 64.1405 72.8053C64.9954 72.1934 65.7694 71.4874 66.4625 70.6754C66.5665 70.5577 66.6705 70.546 66.7976 70.6283L67.0748 70.8401C67.0748 70.8401 67.0979 70.8637 67.0864 70.8755C66.7629 71.4168 66.4279 71.9581 66.0813 72.4876ZM67.664 65.027C67.1788 66.1802 66.3817 66.9216 65.8618 66.698C65.3535 66.4862 65.3304 65.3683 65.8156 64.2151C66.3008 63.0618 67.0979 62.3205 67.6178 62.5441C68.1261 62.7559 68.1492 63.8738 67.664 65.027ZM67.6409 59.9552C67.0402 60.3906 66.3239 60.4259 66.0351 60.0258C65.7463 59.614 66.012 58.9315 66.6127 58.5078C67.2135 58.0724 67.9297 58.0371 68.2186 58.4372C68.5074 58.8491 68.2417 59.5316 67.6409 59.9552ZM68.6576 16.2273C68.542 16.545 68.0222 16.6274 67.4907 16.4273C66.9593 16.2273 66.6243 15.8037 66.7283 15.4977C66.8438 15.18 67.3637 15.0976 67.8951 15.2977C68.4265 15.4977 68.7615 15.9213 68.6576 16.2273ZM69.0735 32.5723C69.2814 32.4664 69.8359 33.2195 70.298 34.2433C70.7601 35.2553 70.9565 36.1732 70.7486 36.2791C70.5406 36.385 69.9861 35.6319 69.524 34.6081C69.0619 33.5961 68.8655 32.6782 69.0735 32.5723ZM71.4649 81.6662C71.4302 81.9369 71.2685 82.0781 71.0027 82.0781L69.6049 82.0546C69.2467 82.0428 69.1543 81.8898 69.3276 81.5721C69.8706 80.5483 70.61 79.8776 71.5457 79.5834C71.6613 79.5481 71.7652 79.6422 71.7537 79.7599L71.4649 81.6662ZM73.3133 44.7752C73.1169 44.175 73.3364 43.5631 73.8101 43.3984C74.2837 43.2337 74.8267 43.5867 75.0231 44.1868C75.2195 44.787 75 45.3989 74.5263 45.5636C74.0527 45.7284 73.5097 45.3753 73.3133 44.7752ZM75.3812 78.5949C74.792 78.2654 74.2722 77.8536 73.8216 77.3593C73.4404 76.9357 73.5328 76.7474 74.0989 76.7945C74.8036 76.8416 75.3697 77.3005 75.8202 78.1595C76.1437 78.795 75.9935 78.9362 75.3812 78.5949ZM77.738 63.3207C77.4376 63.4855 77.2181 63.4031 77.091 63.0854C77.0564 62.9912 77.0332 62.8971 77.0217 62.7912C77.0217 62.6853 76.9986 62.5794 76.9639 62.497C76.8369 62.1793 76.8369 61.9086 76.9639 61.6851C77.2874 61.1555 78.0614 61.2379 78.2694 61.8145C78.512 62.5088 78.3387 63.003 77.738 63.3207ZM78.7546 53.0948C78.0037 53.1301 77.53 52.883 77.3567 52.3652C77.1834 51.8357 77.6918 51.3532 78.2001 51.5533C78.5813 51.7062 78.8932 52.0004 79.1243 52.4594C79.3322 52.8712 79.2052 53.083 78.7546 53.0948ZM83.3641 74.6293C83.2601 74.6881 83.1562 74.7352 83.0406 74.7587C82.902 74.7705 82.7634 74.7234 82.6132 74.6175C82.0587 74.2292 81.5041 73.3702 80.9034 72.8524C80.5684 72.5464 80.6261 72.3817 81.0767 72.3582C82.2897 72.2758 83.1331 72.7112 83.6067 73.6643C83.7916 74.0527 83.7107 74.3822 83.3641 74.6293ZM84.7158 58.0371C84.3577 58.5078 83.9186 58.755 83.7223 58.602C83.5259 58.449 83.6529 57.943 84.0111 57.4723C84.3692 57.0016 84.8082 56.7545 85.0046 56.9075C85.201 57.0604 85.0739 57.5664 84.7158 58.0371ZM85.9404 26.6886C85.7209 27.0534 85.4436 27.3476 85.097 27.5947C84.6234 27.9124 84.3345 27.7947 84.2306 27.2181L84.115 26.6297C84.0342 26.1943 84.2075 25.9355 84.6349 25.8531C85.0855 25.759 85.4551 25.806 85.7671 25.9825C86.0097 26.1237 86.0906 26.4415 85.9404 26.6886ZM90.3997 38.8562C90.0531 38.8797 89.7296 38.3619 89.6719 37.7029C89.6257 37.044 89.8683 36.4791 90.2149 36.4438C90.5614 36.4203 90.8849 36.9381 90.9427 37.597C90.9889 38.256 90.7463 38.8209 90.3997 38.8562ZM91.1275 52.9654C90.9773 52.7182 90.8387 52.4358 90.7232 52.1181C90.5152 51.5297 90.6885 51.365 91.243 51.6356C91.8207 51.9063 92.0979 52.2711 92.0864 52.7182C92.0517 53.8244 91.7283 53.9067 91.1275 52.9654Z" fill="black"/>
<path d="M49.2259 49.0584C49.4223 47.8581 49.3645 46.7637 49.0526 45.7752C45.8063 35.361 42.1556 27.2179 38.1006 21.3342C37.2573 20.1222 36.2638 18.863 35.1085 17.5686C33.1561 15.3681 30.8918 14.7797 28.2809 13.7795C25.9934 12.9205 26.0512 12.2497 28.4426 11.779C30.7878 11.3201 32.9944 12.0026 35.0507 13.8266C37.1649 15.6976 38.8169 17.5098 39.9953 19.2631C46.072 28.2888 49.9421 39.056 51.6057 51.5884C51.7212 52.4239 51.3978 52.671 50.6469 52.318C49.8035 51.9296 48.9255 51.7178 47.9897 51.6825C47.4468 51.659 47.3428 51.4354 47.6894 51.0118C47.9897 50.647 48.3248 50.3175 48.6829 50.0115C48.9717 49.7644 49.1566 49.4467 49.2259 49.0584Z" fill="black"/>
<path d="M26.7791 17.2628L23.8794 15.2976C23.2556 14.874 23.4635 13.8973 24.1913 13.7678L25.4968 13.5325C25.9358 13.4501 26.3748 13.6502 26.6058 14.0385C27.2874 15.1446 28.177 16.0507 29.2629 16.745C29.8752 17.1451 30.1641 17.7217 30.1178 18.4631L30.0832 18.9926C30.037 19.8045 29.6326 20.0752 28.8817 19.781C28.0153 19.4398 27.5069 18.8985 27.3568 18.1453C27.2874 17.7805 27.0795 17.4628 26.7791 17.2628Z" fill="black"/>
<path d="M22.3661 21.6756C21.904 21.4755 21.4419 21.3814 20.9913 21.3696C19.5704 21.3343 19.1545 20.593 19.7668 19.122C20.1133 18.2983 20.5639 18.2277 21.1184 18.922L24.3301 22.9229C24.5958 23.2407 24.5842 23.5584 24.307 23.8643C24.1799 24.0173 24.0066 24.1115 23.7755 24.1703C23.4174 24.2527 23.1401 24.4645 22.9668 24.8057C22.7242 25.2647 22.6318 25.7824 22.678 26.3708C22.7011 26.7827 22.5163 27.0062 22.1235 27.0415C21.8693 27.0651 21.6152 26.9827 21.3726 26.7944C20.7834 26.3473 20.9105 25.4176 21.5921 25.1588C22.7242 24.7234 23.2672 23.982 23.221 22.9229C23.1979 22.3699 22.8629 21.8874 22.3661 21.6756Z" fill="black"/>
<path d="M34.5078 25.0296L31.7582 24.5472C31.3077 24.4766 30.9842 24.0765 30.9727 23.6175V21.9583C30.9727 21.3229 31.5618 20.8522 32.1741 21.0405L34.115 21.6406C34.346 21.723 34.5424 21.8759 34.658 22.0995L35.4898 23.6293C35.871 24.3236 35.2818 25.1591 34.5078 25.0296Z" fill="black"/>
<path d="M16.763 25.5941C16.867 27.018 16.4511 27.7005 15.5384 27.6299C14.8799 27.5711 14.4872 27.3004 14.3601 26.7944C14.2561 26.3943 14.3601 26.0884 14.7182 25.8648L15.8966 25.1352C16.4396 24.794 16.7284 24.9469 16.763 25.5941Z" fill="black"/>
<path d="M12.1418 30.7014C11.9685 30.7602 11.8068 30.7484 11.6566 30.6778C11.5526 30.6425 11.4948 30.5602 11.4717 30.4543C11.414 30.1248 11.5064 29.8777 11.749 29.7011C11.9223 29.5835 12.1302 29.5599 12.3844 29.6305C13.0891 29.8306 13.6321 30.2307 14.0018 30.8308C14.2444 31.2191 14.1635 31.3251 13.7361 31.1368L12.835 30.7367C12.6039 30.6425 12.3728 30.6308 12.1418 30.7014Z" fill="black"/>
<path d="M34.0458 31.5485C35.6516 30.4188 36.8416 30.6542 37.6156 32.2663C38.2048 33.4784 37.8351 34.0903 36.5065 34.1256C35.4552 34.1491 34.5657 33.7372 33.861 32.89C33.4335 32.384 33.5028 31.9368 34.0458 31.5485Z" fill="black"/>
<path d="M24.3531 33.4433C24.0181 33.1962 23.8217 33.0197 23.7408 32.9255C23.013 31.9724 23.221 31.6193 24.3878 31.8547C25.4506 32.0665 26.0167 32.8196 26.0976 34.1258C26.1553 35.126 25.855 35.2555 25.1965 34.5141C24.9077 34.1729 24.8383 33.7963 24.3531 33.4433Z" fill="black"/>
<path d="M16.6127 33.1841L16.1737 32.6192C15.7232 32.0309 15.8387 31.8661 16.5203 32.125C18.0568 32.7134 18.6114 33.5842 18.1839 34.7256C17.872 35.5376 17.5832 35.5376 17.2943 34.7138L17.0633 34.0196C16.9593 33.7136 16.8091 33.4312 16.6127 33.1841Z" fill="black"/>
<path d="M9.80823 37.5973C9.77358 36.6323 10.1317 34.5377 10.5129 33.6081C10.7093 33.1021 10.8826 33.1139 11.0213 33.6316C11.4834 35.2908 11.2523 36.6794 10.3166 37.7738C10.0046 38.1386 9.83134 38.0797 9.80823 37.5973Z" fill="black"/>
<path d="M39.7759 42.8924C39.7182 41.6921 39.9608 40.7978 40.4806 40.1977C40.7695 39.8682 40.989 39.9153 41.116 40.3389C41.3818 41.1861 41.4973 42.0216 41.4395 42.8571C41.4049 43.269 41.1969 43.4926 40.8041 43.5514C40.6077 43.5749 40.4229 43.5632 40.2611 43.5161C39.9492 43.4337 39.7875 43.2219 39.7759 42.8924Z" fill="black"/>
<path d="M25.8895 43.6104C25.67 43.834 25.0808 43.6104 24.5725 43.1044C24.0641 42.5984 23.8446 41.9982 24.0757 41.7629C24.2952 41.5393 24.8844 41.7629 25.3927 42.2689C25.901 42.7749 26.1205 43.375 25.8895 43.6104Z" fill="black"/>
<path d="M33.2486 43.7868C32.8905 43.6809 32.6248 43.5162 32.4515 43.2926C32.232 43.0102 32.232 42.5983 32.4515 42.3041C32.8905 41.6805 33.445 41.551 34.1151 41.9276C34.7043 42.2688 35.0277 42.7395 35.0739 43.3632C35.1086 43.7868 34.9122 43.9869 34.4848 43.9751C34.0689 43.9634 33.6645 43.8927 33.2602 43.7868H33.2486Z" fill="black"/>
<path d="M10.3166 48.1878C10.3281 48.9527 10.0971 49.6117 9.63498 50.1883C9.38082 50.506 9.13821 50.506 8.91871 50.1647C8.75697 49.9176 8.76852 49.5764 8.96492 49.141C9.21908 48.5644 9.62342 47.2699 10.1895 45.2695C10.3512 44.6693 10.6863 44.3516 11.2061 44.3163C11.8069 44.281 11.9686 44.5281 11.6798 45.0694L10.5938 47.0699C10.409 47.4111 10.3166 47.7877 10.3166 48.1878Z" fill="black"/>
<path d="M16.4856 44.7636C16.4047 44.3988 16.5202 44.3046 16.8437 44.4694L17.7448 44.9401C18.23 45.1872 18.5766 45.6461 18.6806 46.1757C18.7961 46.7523 18.8077 47.3053 18.7037 47.8349C18.6344 48.235 18.4033 48.4585 17.999 48.5056C17.8719 48.5174 17.7448 48.5174 17.6062 48.4821C17.4329 48.435 17.3174 48.3173 17.2827 48.1408L16.4856 44.7636Z" fill="black"/>
<path d="M44.2466 49.9763C44.3968 50.6 44.1542 50.8471 43.5304 50.7059L43.1376 50.6235C42.5253 50.4823 42.2134 50.094 42.2134 49.4585V46.2813C42.2249 45.9636 42.3867 45.7988 42.6986 45.7988C42.895 45.7988 43.0683 45.8577 43.23 45.9636C43.3109 46.0106 43.3686 46.1048 43.3918 46.1989L44.2466 49.9763Z" fill="black"/>
<path d="M34.5079 50.9062C34.0689 51.0474 33.4913 50.4355 33.214 49.5412C32.9483 48.6469 33.0754 47.8114 33.5144 47.6702C33.9534 47.529 34.531 48.1409 34.8083 49.0352C35.074 49.9295 34.9469 50.765 34.5079 50.9062Z" fill="black"/>
<path d="M24.1104 49.7881C23.8331 49.5528 23.8216 49.0821 24.0873 48.7408C24.353 48.3995 24.8036 48.3054 25.0924 48.5408C25.3696 48.7761 25.3812 49.2468 25.1155 49.5881C24.8498 49.9293 24.3992 50.0235 24.1104 49.7881Z" fill="black"/>
<path d="M50.9242 63.2383C50.9242 63.2383 50.9011 63.3207 50.9011 63.356C50.9011 63.4854 50.8664 63.4854 50.8317 63.356C50.3581 61.4379 50.2657 59.1668 50.5545 56.5662C50.6122 55.9778 50.9242 55.5895 51.4787 55.4012L51.9408 55.2482C52.5878 55.0246 52.8419 55.2482 52.6917 55.9307C52.1488 58.4137 51.5596 60.8495 50.9242 63.2383Z" fill="black"/>
<path d="M45.2865 59.5082C44.6742 59.9906 43.5767 59.6023 42.8257 58.6256C42.0748 57.6489 41.9477 56.4722 42.5485 55.9779C43.1608 55.4955 44.2583 55.8838 45.0092 56.8605C45.7601 57.8372 45.8872 59.0139 45.2865 59.5082Z" fill="black"/>
<path d="M13.6436 58.1311C13.1469 59.5079 12.2227 60.1316 10.8941 60.0022C10.4782 59.9669 10.2703 59.7315 10.2703 59.3079L10.2934 57.3898C10.2934 57.0014 10.4782 56.7896 10.8594 56.7779L12.5808 56.672C13.3548 56.6249 13.9094 57.4015 13.6436 58.1311Z" fill="black"/>
<path d="M27.8419 62.6146C27.4607 63.6501 26.8369 64.0267 25.982 63.756C25.0115 63.4501 24.7343 62.1792 25.4852 61.4849C25.9242 61.073 26.3863 60.8965 26.86 60.9554C27.8882 61.073 28.2232 61.6261 27.8419 62.6146Z" fill="black"/>
<path d="M36.2291 63.8973C35.6168 63.6149 35.2471 63.2148 35.1316 62.7088C34.9814 62.0028 35.663 61.4144 36.3215 61.6968C37.2111 62.0616 37.6848 62.7677 37.7425 63.815C37.7656 64.2739 37.2689 64.5445 36.8992 64.2857C36.6912 64.1327 36.4717 64.0032 36.2291 63.8973Z" fill="black"/>
<path d="M14.0481 68.3574C13.8748 68.4162 13.6899 68.3103 13.6322 68.1338L13.5398 67.8043C13.2856 66.957 13.7362 66.0745 14.5333 65.8274L16.0582 65.3567C16.8554 65.1096 17.7103 65.6038 17.9644 66.4511L18.0569 66.7688C18.1146 66.9571 18.0106 67.1453 17.8374 67.1924L14.0481 68.3574Z" fill="black"/>
<path d="M46.6959 72.0052L45.1363 68.9339C44.9283 68.522 45.0208 68.2043 45.402 67.9572C45.8179 67.6983 46.28 67.5924 46.7768 67.6512C47.1465 67.6865 47.4815 67.5924 47.7703 67.3688L49.0064 66.3568C49.3415 66.0861 49.5263 66.1685 49.5494 66.6039C49.6996 68.8986 49.2028 70.7461 48.0822 72.1464C47.701 72.6171 46.9732 72.5465 46.6959 72.0052Z" fill="black"/>
<path d="M29.6211 73.0642C29.6096 73.2525 29.4594 73.4054 29.2746 73.3937H29.0551C28.1077 73.3584 27.3684 72.5817 27.403 71.6639V71.2638C27.4377 70.3459 28.2233 69.6163 29.1706 69.6516H29.3901C29.5749 69.6634 29.7251 69.8164 29.7136 70.0046L29.6211 73.0642Z" fill="black"/>
<path d="M19.1774 72.8993L19.4085 72.158C19.5355 71.7343 19.8243 71.5107 20.2634 71.4872C20.7832 71.4519 21.0258 71.7461 20.9912 72.3698C20.9334 73.5583 20.3789 74.4761 19.3507 75.0998C18.7846 75.4411 18.2763 75.4529 17.8257 75.0998C17.4214 74.7939 17.4445 74.4997 17.8719 74.229L18.4265 73.876C18.7962 73.6407 19.0503 73.3112 19.1774 72.8875V72.8993Z" fill="black"/>
<path d="M45.9334 73.3703C46.384 73.1232 46.5919 73.2526 46.5804 73.7822C46.5572 74.3117 46.5804 74.8413 46.6497 75.359C46.9616 77.6301 46.384 77.889 44.9399 76.1239C44.1081 75.1119 44.4431 74.194 45.9334 73.3703Z" fill="black"/>
<path d="M36.7491 77.5831L38.2394 77.0535C38.921 76.8064 39.6489 77.3007 39.6951 78.042L39.7875 79.6895C39.8106 80.0072 39.6951 80.3249 39.464 80.5485L37.0611 82.9608C36.2755 83.7492 34.97 82.9961 35.2242 81.9017L36.0444 78.3833C36.1253 78.0067 36.4026 77.7125 36.7491 77.5831Z" fill="black"/>
<path d="M46.2684 79.9955C45.506 82.1607 47.3659 83.714 49.2259 83.9964C49.7574 84.0788 50.0115 84.7025 49.688 85.1379L48.4981 86.7971C48.1284 87.3031 47.6663 87.4325 47.1002 87.1854L44.0965 85.891C43.7615 85.738 43.542 85.4791 43.4611 85.1143C42.9182 82.7491 43.7269 80.9251 45.8641 79.6425C46.3147 79.3718 46.4417 79.4895 46.2684 79.9955Z" fill="black"/>
<path d="M24.0757 82.6075C23.7522 82.5134 23.5674 82.1603 23.6598 81.8309L23.7175 81.6308C24.0988 80.2893 25.2656 79.4538 26.3284 79.7716L26.5711 79.8422C27.6223 80.1481 28.1653 81.4896 27.7725 82.8311L27.7148 83.0429C27.6223 83.3724 27.2873 83.5607 26.9638 83.4665L24.0757 82.6075Z" fill="black"/>
</g>
<defs>
<clipPath id="clip0_2119_1202">
<rect width="100" height="100" fill="white"/>
</clipPath>
</defs>
</svg>
