<svg width="131" height="121" viewBox="0 0 131 121" fill="none" xmlns="http://www.w3.org/2000/svg">
<g clip-path="url(#clip0_2209_85)">
<path d="M130.311 117.088C129.98 116.146 128.989 114.124 127.345 111.021C106.149 70.9501 86.8802 35.2752 69.5475 3.98694C69.0752 3.12808 68.5651 2.3431 68.0078 1.632C66.6477 -0.113416 63.9084 0.39451 62.9355 2.09376C60.4891 6.40652 57.8255 10.5992 55.4074 14.8935C36.9979 47.5671 18.8906 80.5731 1.36902 114.022C-0.0761567 116.774 -0.0950481 120.367 4.24049 120.33C21.2426 120.21 38.2447 120.274 55.2468 120.505C61.0936 120.588 67.3939 120.542 74.1475 120.367C91.2818 119.914 108.671 119.924 126.325 120.367C127.6 120.395 128.526 120.265 129.093 119.979C130.368 119.323 130.774 118.363 130.311 117.079V117.088ZM64.4941 102.996C51.4686 102.82 41.05 92.6248 41.2201 80.2406C41.3995 67.8564 52.1014 57.9565 65.1364 58.1319C78.1619 58.3074 88.5804 68.5029 88.4104 80.887C88.2309 93.2712 77.529 103.171 64.4941 102.996Z" fill="black"/>
<path d="M75.6776 80.4995C75.6776 86.5669 70.6431 91.4891 64.4374 91.4891C58.2316 91.4891 53.1971 86.5669 53.1971 80.4995C53.1971 74.432 58.2316 69.5098 64.4374 69.5098C70.6431 69.5098 75.6776 74.432 75.6776 80.4995Z" fill="black"/>
</g>
<defs>
<clipPath id="clip0_2209_85">
<rect width="130" height="120" fill="white" transform="translate(0.5 0.54248)"/>
</clipPath>
</defs>
</svg>
