<svg width="86" height="101" viewBox="0 0 86 101" fill="none" xmlns="http://www.w3.org/2000/svg">
<g clip-path="url(#clip0_2273_941)">
<path d="M85.001 24.9363C84.8082 21.8225 84.3092 18.7649 83.4927 15.7748C83.3225 15.1341 82.7215 14.6957 82.041 14.7407C70.2238 15.3926 58.1458 11.8517 48.7101 4.53382C47.1224 3.30855 45.478 2.12824 43.7882 1.00414C42.7902 0.352166 41.8716 0.39713 41.021 1.15028C33.1391 8.13094 24.1231 12.4812 13.9616 14.2123C10.7975 14.7519 7.62208 14.6282 4.41261 14.7407C3.34656 14.7744 2.45063 15.505 2.20113 16.5392C1.56604 19.2258 1.13509 22.0136 0.942291 24.9025C0.499996 31.3998 0.386587 37.8297 0.613405 44.1809C0.942291 53.6458 2.65477 61.1548 7.16844 68.8998C15.1411 82.5689 26.3346 92.9331 40.7602 99.97C41.8602 100.51 43.2892 100.779 44.3212 100.307C57.7488 94.1134 68.4887 85.0419 76.5294 73.0702C81.043 66.3481 84.3886 58.8166 85.069 51.0379C85.6701 44.2708 85.6474 35.5702 85.0123 24.9475L85.001 24.9363ZM80.1017 43.7762C80.011 48.7784 79.546 52.8589 78.6614 56.0176C74.556 70.822 62.3873 83.412 49.1298 91.6404C46.4306 93.3153 42.9716 95.3499 39.989 93.4839C39.3199 93.0568 38.9683 92.8432 38.9456 92.8319C29.3399 87.2901 21.2538 79.8486 14.7101 70.4848C10.5821 64.572 7.61074 58.3783 6.80553 51.3301C6.51067 48.7335 6.09106 46.2267 6.06838 43.6301C5.98899 34.345 5.58072 27.4655 6.93028 20.3612C6.98699 20.0464 7.17978 19.8778 7.52001 19.889C19.961 20.0127 31.472 15.3139 41.2705 7.49021C41.8489 7.02932 42.6654 6.98436 43.3005 7.3778C46.3512 9.33373 49.572 11.7955 52.498 13.358C60.3686 17.5397 69.1237 19.7204 78.7408 19.889C79.2852 19.889 79.5801 20.1813 79.6141 20.7096C80.0677 28.5109 80.2378 36.1997 80.1017 43.7874V43.7762Z" fill="black"/>
<path d="M76.6541 23.9808C76.6541 23.6773 76.4046 23.43 76.0984 23.43C63.1244 23.3401 53.2578 18.3378 42.9149 11.1436C42.5861 10.9188 42.1438 10.93 41.8489 11.1998C32.8102 18.8774 22.2178 22.9466 10.0831 23.3963C9.58405 23.4188 9.17578 23.8234 9.18712 24.3293L9.44796 52.6566C9.44796 53.8819 10.0831 54.4664 11.3192 54.4215L40.0911 53.3311C40.4993 53.3198 40.8169 52.9826 40.8282 52.5779C40.9643 42.6859 41.0097 33.3895 40.987 24.689C40.987 22.5869 41.1344 20.1926 41.4406 17.5172C41.5994 16.1908 42.2005 15.9435 43.2438 16.7866L43.6294 17.1013C44.6388 17.9219 45.1378 18.9786 45.1491 20.2713L45.3079 52.6454C45.3079 53.1512 45.7388 53.5672 46.2378 53.5559C52.8042 53.4323 59.4273 53.6458 66.1071 54.1966C69.2712 54.4439 72.1631 54.4215 75.1911 54.3428C75.4973 54.3428 75.7468 54.118 75.8149 53.8369C76.2912 51.6337 76.552 49.3743 76.5747 47.0249C76.6655 39.2911 76.6881 31.6135 76.6541 23.9808ZM31.506 34.5136C30.8369 35.2331 30.1224 35.975 29.3512 36.7506C29.1584 36.9529 29.0677 37.2002 29.0904 37.4813C29.2038 38.8639 29.6574 40.1004 30.4513 41.2133C30.6554 41.4943 30.5874 41.6629 30.2358 41.6966C28.3419 41.9439 26.8336 41.573 25.7108 40.5838C24.5087 39.5159 22.9436 40.1566 22.3879 41.528C22.2859 41.7753 22.1157 41.9889 21.9003 42.1463L19.462 43.8212C19.1784 44.0235 19.1217 43.9673 19.2805 43.6638C19.9043 42.5285 20.5847 41.4718 21.3559 40.4826C23.3406 37.9534 19.9383 35.8288 18.1691 34.6036C17.7495 34.3113 17.8742 33.6706 18.3619 33.5469C18.6227 33.4907 18.9857 33.5244 19.4279 33.6706C20.6641 34.0752 21.9343 34.2326 23.2158 34.1427C23.5447 34.1202 23.7829 33.9741 23.953 33.7043C24.8035 32.3216 24.8829 30.7254 24.1911 28.9044C24.1684 28.8369 24.1798 28.7807 24.2365 28.7245L24.4746 28.5222C24.6334 28.3761 24.7468 28.4098 24.8262 28.6009C25.552 30.6018 26.55 32.4116 27.8316 34.0303C28.0811 34.3563 28.4099 34.4462 28.7955 34.3001L30.9957 33.4682C31.2905 33.3558 31.6194 33.5357 31.6761 33.8504C31.7328 34.0977 31.6761 34.3113 31.4833 34.5136H31.506ZM36.3712 47.4408C36.1104 47.6769 35.6454 47.5982 35.3506 47.2834C35.0557 46.9574 35.033 46.4966 35.2939 46.2605C35.5547 46.0244 36.0197 46.1031 36.3145 46.4179C36.6094 46.7439 36.6321 47.2047 36.3712 47.4408ZM63.1358 28.2412C63.3966 27.6229 63.7935 27.1957 64.0203 27.2857C64.2472 27.3756 64.2245 27.9601 63.9523 28.5784C63.6915 29.1966 63.2945 29.6238 63.0677 29.5339C62.8409 29.4439 62.8636 28.8594 63.1358 28.2412ZM51.2165 47.9242C51.0464 47.8792 50.8876 47.823 50.7288 47.7668C50.5927 47.7106 50.4453 47.6769 50.2979 47.6881C50.1164 47.6881 49.9576 47.6656 49.7989 47.5869C49.6401 47.5082 49.5607 47.3958 49.5494 47.2609C49.5494 47.1823 49.572 47.1036 49.6061 47.0136C49.7081 46.7888 49.8669 46.7326 50.071 46.8787L51.3072 47.7331C51.6928 47.9916 51.6701 48.0591 51.2165 47.9242ZM52.6227 37.3239C52.43 37.4588 52.067 37.2564 51.8062 36.8855C51.5567 36.5145 51.5 36.0986 51.6928 35.975C51.8856 35.8401 52.2485 36.0424 52.5093 36.4134C52.7588 36.7843 52.8155 37.2002 52.6227 37.3239ZM54.6301 28.6908C54.2105 28.3198 54.029 27.8365 54.2105 27.6341C54.4033 27.4318 54.8909 27.5667 55.3105 27.9601C55.7302 28.3311 55.9116 28.8145 55.7302 29.0168C55.5374 29.2191 55.0497 29.0842 54.6301 28.6908ZM62.3419 47.7106L60.947 47.4296C60.5954 47.3509 60.4707 47.1485 60.5954 46.8113C60.6521 46.6539 60.7315 46.519 60.8449 46.3954C61.0604 46.1481 61.3099 46.0694 61.6161 46.1706C62.1378 46.3279 62.5234 46.6539 62.7729 47.1485C62.9997 47.6319 62.8522 47.8118 62.3419 47.6993V47.7106ZM68.1144 34.5698L65.5173 37.9534C64.9957 38.6391 64.9049 39.5609 65.3019 40.3252L66.2999 42.3037C66.5267 42.7533 66.436 42.832 66.0163 42.551C64.474 41.4831 62.7729 40.8086 60.9129 40.5051C60.6634 40.4714 60.4139 40.5388 60.2211 40.685C59.0417 41.618 57.6468 42.2137 56.025 42.461C55.7188 42.506 55.492 42.18 55.6508 41.9102C55.7188 41.7978 55.8209 41.7191 55.957 41.6629C56.0477 41.618 56.1725 41.618 56.3085 41.6404C58.4293 42.0002 58.9737 40.1117 59.3479 38.5379C59.4159 38.2569 59.3479 38.0096 59.1778 37.7848C58.8489 37.3801 58.452 37.144 57.9757 37.0766C57.5107 37.0204 57.2272 36.5483 57.3746 36.1211C58.1117 33.8841 59.7562 32.5689 62.2965 32.1755C62.6254 32.1193 62.8296 32.2654 62.8636 32.5914C62.977 33.3446 63.2492 33.9853 63.7141 34.5474C63.9296 34.8059 64.2018 34.8734 64.508 34.7272C65.472 34.2776 66.5494 33.9966 67.7175 33.8841C68.0804 33.8392 68.3186 34.2663 68.1031 34.5474L68.1144 34.5698Z" fill="black"/>
<path d="M73.8983 57.7714C67.1731 58.1648 59.8355 58.3222 51.9083 58.2547C49.8556 58.2323 47.8029 58.3559 45.7275 58.6145C45.4326 58.6594 45.1945 58.9067 45.1945 59.2102L45.1604 88.7066C45.1604 89.8082 45.6367 90.078 46.578 89.5047C57.6127 82.8276 66.9123 73.9022 72.8889 62.4589C73.6261 61.065 74.1251 59.6936 74.3859 58.3334C74.4653 57.9288 74.3065 57.7377 73.8869 57.7714H73.8983ZM51.7268 62.5376C51.2732 63.2457 51.2051 64.0326 51.5 64.8869C51.6361 65.2804 51.5 65.4265 51.0917 65.3029C50.6494 65.168 50.3319 64.9207 50.1277 64.5609C49.9803 64.3249 49.969 64.0776 50.0824 63.8303C50.2752 63.4031 50.2412 63.0546 49.9803 62.7624C49.6514 62.4027 49.7195 62.1441 50.1958 61.998C50.6494 61.8743 51.0917 61.8743 51.5454 61.998C51.8402 62.0879 51.9083 62.2678 51.7381 62.5263L51.7268 62.5376ZM59.3139 71.8564C58.2478 73.1603 57.0343 74.0933 55.6621 74.6666C55.3446 74.7903 55.027 74.5092 55.1291 74.1832L55.7301 72.1374C55.7982 71.8901 55.7075 71.8114 55.458 71.8676L53.496 72.3847C53.1558 72.4746 52.8609 72.1486 52.9743 71.8226C53.6661 69.9341 53.9156 67.7646 56.5127 67.7197C57.9643 67.6972 58.9623 69.0573 59.5293 70.2264C59.7902 70.7547 59.7108 71.3955 59.3365 71.8451L59.3139 71.8564ZM60.2778 65.2916C59.9603 65.4939 59.6881 65.4377 59.4726 65.1342C59.2231 64.7858 59.4726 64.2912 59.9036 64.2687C60.1418 64.2687 60.3232 64.4485 60.448 64.842C60.5047 65.0331 60.448 65.1904 60.2778 65.3029V65.2916Z" fill="black"/>
<path d="M40.3859 58.6698C39.6601 58.5125 38.8549 58.4338 37.9703 58.4113C29.2832 58.2202 20.8796 58.1528 12.7822 58.2314C11.7955 58.2314 11.512 58.6923 11.9316 59.5691C18.3732 73.1145 27.8996 83.2877 40.522 90.0885C40.7261 90.2009 40.9643 90.0547 40.9643 89.8412L41.021 59.4342C41.021 59.0633 40.7602 58.7373 40.3973 58.6586L40.3859 58.6698ZM24.6901 64.0431C24.3612 63.8295 24.3953 63.6833 24.7808 63.5822C25.0077 63.526 25.2572 63.5147 25.5067 63.5484C25.5634 63.5484 25.6201 63.5484 25.6881 63.5147C25.7675 63.4698 25.8356 63.4585 25.9036 63.4922C26.6294 63.807 26.6067 64.0768 25.8696 64.3241C25.5407 64.4365 25.1438 64.3241 24.7015 64.0318L24.6901 64.0431ZM31.3472 72.6649C31.1431 72.7548 31.075 72.9122 31.1431 73.1258L31.5514 74.4297C31.9483 75.6887 31.6081 75.936 30.5307 75.1604C29.0564 74.115 27.7862 72.8785 26.7201 71.4734C25.9263 70.4167 26.2552 68.9554 27.3439 68.6181C27.8656 68.4608 28.3759 68.5057 28.8636 68.7305C29.0904 68.843 29.3172 68.843 29.544 68.6968L30.474 68.0898C30.7235 67.9324 30.973 67.8987 31.2565 67.9774C31.8462 68.1348 32.436 68.1573 33.0143 68.0561C33.2752 67.9999 33.3999 68.1123 33.3999 68.3821C33.3999 70.5741 32.7081 72.0017 31.3472 72.6537V72.6649ZM35.2145 66.2126C34.9877 66.3025 34.7268 66.2126 34.4546 65.9653C34.2618 65.7854 34.1711 65.5831 34.1484 65.3582C34.1257 65.0997 34.1938 64.8524 34.3412 64.6388C34.534 64.3578 34.7382 64.3466 34.9536 64.6276L35.464 65.302C35.7815 65.718 35.6908 66.0215 35.2031 66.2126H35.2145ZM36.6207 63.3686C36.1784 63.6833 35.6568 63.7171 35.4526 63.4473C35.2485 63.1775 35.4526 62.6941 35.8836 62.3794C36.3259 62.0646 36.8476 62.0309 37.0517 62.3007C37.2558 62.5705 37.0517 63.0538 36.6207 63.3686Z" fill="black"/>
</g>
<defs>
<clipPath id="clip0_2273_941">
<rect width="85" height="100" fill="white" transform="translate(0.5 0.542969)"/>
</clipPath>
</defs>
</svg>
