<svg width="76" height="60" viewBox="0 0 76 60" fill="none" xmlns="http://www.w3.org/2000/svg">
<g clip-path="url(#clip0_2011_218)">
<path d="M63.8977 34.2178C59.3406 30.1911 53.4753 27.3708 47.3194 26.7802C37.8632 25.8733 26.0814 28.0281 18.9593 34.6587C17.4972 36.0231 16.3515 37.4956 14.2226 37.3292C11.8201 37.1379 8.93019 34.8667 10.2212 32.1712C13.5215 25.2411 21.3789 20.5988 28.6976 18.7685C38.9575 16.1978 48.8669 16.9133 58.4172 20.9149C63.171 22.9116 67.5656 26.2311 69.6518 31.1063C69.763 31.3642 69.7715 31.6304 69.6604 31.8966C69.3098 32.7619 68.5831 33.6104 67.4801 34.4424C65.9753 35.5822 65.317 35.4657 63.8977 34.2178Z" fill="black"/>
<path d="M45.8146 41.9965C38.8977 39.1845 33.2548 41.9299 27.2185 45.7985C25.158 47.1296 22.5674 44.068 22.3964 42.1795C22.0544 38.3442 28.1505 35.0497 31.2969 34.2011C38.4189 32.296 46.131 32.0298 52.8085 35.5156C54.4672 36.3808 57.1347 38.286 56.2028 40.3575C55.2538 42.4624 53.2103 45.0996 50.5513 43.9765C48.9867 43.3026 47.4049 42.6454 45.8146 41.9965Z" fill="black"/>
<path d="M47.2168 52.1216C47.7298 55.907 44.8143 59.4095 40.6932 59.9336C36.5807 60.4577 32.8273 57.8204 32.3143 54.0351C31.8013 50.2497 34.7168 46.7472 38.8379 46.2231C42.9504 45.699 46.7038 48.3362 47.2168 52.1216Z" fill="black"/>
<path d="M68.1812 18.9103C62.4699 14.4177 55.1169 11.273 47.4049 10.6157C35.5547 9.60077 20.7889 12.0051 11.8543 19.4011C10.0246 20.9236 8.58818 22.5625 5.92061 22.3795C2.91103 22.1632 -0.714142 19.634 0.901796 16.6307C5.03996 8.90193 14.8809 3.71891 24.055 1.68064C36.9141 -1.18958 49.3372 -0.39091 61.3071 4.07664C67.2664 6.30626 72.7725 10.0001 75.3888 15.441C75.5256 15.7322 75.5427 16.0234 75.3974 16.3229C74.9613 17.288 74.0465 18.2364 72.6614 19.1598C70.7718 20.4327 69.951 20.2996 68.1727 18.9103H68.1812Z" fill="black"/>
</g>
<defs>
<clipPath id="clip0_2011_218">
<rect width="75" height="60" fill="white" transform="translate(0.5)"/>
</clipPath>
</defs>
</svg>
