<svg width="141" height="141" viewBox="0 0 141 141" fill="none" xmlns="http://www.w3.org/2000/svg">
<g clip-path="url(#clip0_2209_69)">
<path d="M139.962 62.2449C137.829 45.4635 130.703 31.3938 118.455 19.2837C111.198 12.1049 102.294 6.88569 91.7586 3.6167C85.7692 1.76861 79.8823 0.756335 74.0979 0.589171C68.4066 0.422007 63.1438 0.728475 58.3002 1.50857C29.9928 6.07773 8.04733 30.0472 2.12318 57.0164C-1.70516 74.4572 1.29417 91.1643 10.5996 106.683C18.1724 119.331 28.726 128.59 42.2509 134.469C66.6834 145.084 93.9568 141.657 114.831 125.164C133.703 110.249 142.896 85.4436 139.962 62.2449ZM108.739 18.2436C108.916 18.0485 110.081 18.8008 111.357 19.9152C112.624 21.0389 113.518 22.1069 113.341 22.3019C113.164 22.497 111.999 21.7447 110.723 20.6303C109.457 19.5066 108.562 18.4386 108.739 18.2436ZM99.9555 14.4174C100.132 14.083 100.533 13.9344 100.878 14.0737C101.688 14.3895 102.144 15.0117 102.247 15.9311C103.113 23.955 108.916 26.8897 116.061 29.1464C117.802 29.6943 118.911 30.623 120.057 31.8767C120.271 32.0996 120.187 32.4711 119.908 32.5918C115.129 34.7185 110.127 33.892 104.883 30.1122C101.688 27.7998 99.8531 24.4565 99.3873 20.0917C99.1731 18.1321 98.9961 16.2283 99.9555 14.4174ZM89.1318 10.2104C89.1784 9.94108 89.4392 9.76463 89.7093 9.82035L93.0813 10.5076C93.3514 10.5633 93.4725 10.7212 93.4538 10.9905C93.1744 15.6061 93.1837 19.1351 93.4911 21.5776C94.4878 29.4807 99.0334 34.9507 107.128 37.9875C113.21 40.2628 118.585 40.4671 123.252 38.5912C124.174 38.229 124.891 38.4611 125.403 39.297L128.151 43.7732C128.663 44.5998 128.44 45.1106 127.48 45.3056C115.949 47.6366 105.582 44.8877 96.388 37.0774C94.8697 35.7865 93.5749 34.1427 92.5131 32.146C88.8524 25.283 87.7253 17.965 89.1318 10.2104ZM73.0919 32.2575C75.6628 23.825 75.8863 15.9404 74.8151 7.43362C74.7499 6.92284 74.9828 6.69995 75.4951 6.77425L81.8012 7.63793C82.4159 7.72151 82.7233 8.07441 82.714 8.68735C82.6581 14.0645 82.7326 18.03 82.9282 20.5839C83.3288 25.6917 84.875 30.4837 87.567 34.96C87.7812 35.3129 87.688 35.415 87.3061 35.2757C86.7473 35.0621 86.2722 34.7278 85.6761 34.5142C81.6242 33.084 77.563 32.5082 73.5111 32.7776C73.1105 32.8054 72.9708 32.6383 73.0919 32.2575ZM23.7426 27.3819C26.9375 24.2893 29.9648 21.1318 33.6255 18.7358C36.7273 16.7019 39.9968 14.7053 43.4432 12.7364C44.6541 12.0399 44.9615 12.3278 44.3654 13.5908C43.6481 15.086 42.6049 16.3676 41.2356 17.417C36.1032 21.3454 30.8404 24.7165 25.4658 27.5305C25.0653 27.7441 24.6368 27.9298 24.1897 28.097C22.9229 28.5613 22.7739 28.3198 23.7426 27.3819ZM9.19304 86.0194C9.19304 86.0194 9.17441 86.0844 9.13715 86.0844C9.05332 86.0937 8.9788 86.0936 8.89497 86.0751C8.8484 86.0565 8.81114 86.0193 8.80182 85.9729C4.93622 69.4422 7.3301 53.831 15.9835 39.1484C16.859 37.6625 17.6135 36.2973 19.4951 35.9351C21.3674 35.5729 23.221 34.9321 25.056 34.0127C31.7719 30.6509 37.6774 27.0661 42.7725 23.2678C46.9548 20.1567 50.4385 15.9497 53.233 10.6469C53.9595 9.26313 55.0773 8.37159 56.5863 7.95368C57.0427 7.83295 57.2755 8.00012 57.2662 8.47375C57.1451 18.485 53.2795 23.1563 45.3807 27.8462C40.8258 30.5487 36.5969 33.3719 32.6754 36.3252C26.8817 40.6993 22.1964 46.0578 18.6195 52.4101C12.4625 63.3407 9.32345 74.55 9.19304 86.0194ZM26.36 116.648C21.5537 111.363 17.3155 106.144 15.8624 98.9189C12.6395 82.8154 16.9708 65.356 25.9129 51.3514C27.0959 49.4847 28.4 47.8781 29.8251 46.5129C34.6222 41.888 39.8105 37.9225 45.39 34.6164C56.1019 28.2827 63.1904 21.7076 63.7213 8.0094C63.7399 7.4429 64.038 7.14572 64.6062 7.11786L68.4532 6.93212C68.8351 6.92284 69.0493 7.09929 69.1145 7.47076C70.3348 14.826 70.698 23.76 67.2143 30.3723C66.6089 31.5331 65.6588 32.3689 64.364 32.8704C60.8896 34.2263 57.0147 35.285 54.034 36.5759C44.3374 40.7643 32.0513 49.0296 28.3348 59.4124C28.1578 59.9046 28.4372 60.4525 28.9402 60.6011C29.7413 60.8426 30.4771 60.6011 31.1385 59.8767C39.8105 50.3669 51.6681 41.823 64.2709 38.5076C72.4026 36.3809 80.3201 37.1331 88.0234 40.7736C91.9076 42.6031 96.0433 44.6276 100.431 46.8286C106.01 49.624 111.878 51.2771 118.054 51.7786C121.901 52.0943 125.934 51.1192 129.828 50.8591C130.172 50.8313 130.424 50.9799 130.582 51.2863C131.169 52.4844 131.43 53.7474 131.365 55.094C131.346 55.419 131.132 55.6976 130.815 55.7998C123.885 58.0194 117.374 60.0346 110.528 56.682C107.184 55.0568 104.026 53.4688 101.055 51.9364C92.4572 47.4973 82.7978 45.4356 72.859 45.7699C56.1764 46.3271 42.6328 53.0137 32.2283 65.8389C23.8078 76.2124 20.4079 88.1925 22.0287 101.761C22.6248 106.776 24.4412 111.846 26.6302 116.471C26.9469 117.13 26.8537 117.195 26.36 116.648ZM70.1764 129.073C60.4425 127.086 53.028 122.693 47.9329 115.886C42.8377 109.079 39.3913 100.005 41.0121 91.1922C43.7692 76.1938 55.4219 66.684 70.1391 64.0465C76.4638 62.9135 82.4252 63.4708 88.0047 65.7182C99.5457 70.3709 105.796 78.8963 106.755 91.3129C107.305 98.3431 106.215 104.537 103.495 109.877C97.6734 121.319 83.9063 131.869 70.1764 129.073ZM111.375 118.254C107.957 123.483 100.85 126.742 94.9349 129.222C93.9755 129.621 93.8823 129.473 94.6554 128.776C97.9063 125.842 101.278 122.87 104.119 119.508C111.822 110.37 114.431 99.1325 111.934 85.7872C110.751 79.4628 107.845 73.9185 103.216 69.1543C93.1185 58.7437 78.6994 55.8276 64.8857 59.5053C51.9289 62.9414 40.7419 72.1726 36.5596 84.9328C33.6721 93.7368 34.4359 102.931 38.8417 112.515C42.9775 121.514 50.6062 127.848 59.8743 132.305C60.0141 132.37 60.0793 132.528 60.0234 132.677C59.9861 132.779 59.9489 132.872 59.9023 132.955C59.8837 132.983 59.865 133.002 59.8371 132.992C46.5171 129.826 35.7027 123.251 30.5051 110.24C25.1864 96.885 27.2729 82.221 35.5909 70.6588C48.9016 52.1779 74.2283 46.485 95.1677 55.3447C104.641 59.3474 112.763 65.3746 116.238 75.3208C121.631 90.7464 120.01 105.057 111.375 118.254ZM118.781 67.9006C118.65 67.9285 118.52 67.8728 118.464 67.752L117.067 65.1703C116.973 64.9938 117.076 64.7709 117.272 64.7338L132.892 61.8827C133.051 61.8548 133.209 61.957 133.237 62.1149L133.703 64.6038C133.731 64.7616 133.628 64.9195 133.47 64.9474L118.781 67.9006ZM123.373 108.373C122.991 109.069 122.879 109.032 123.019 108.252C123.438 106.023 124.23 103.776 124.584 101.491C125.562 95.2505 125.571 89.6691 124.612 84.747C123.922 81.1902 122.963 77.364 121.724 73.2592C121.556 72.6927 121.864 72.089 122.432 71.9033C125.767 70.7981 129.446 70.2409 133.479 70.2223C133.824 70.2223 134.103 70.5009 134.094 70.8446C133.982 84.0691 129.744 96.4393 123.373 108.373Z" fill="black"/>
<path d="M24.8418 67.7155C24.0873 67.2883 24.0966 65.8581 24.8604 64.5301C25.6242 63.1928 26.8538 62.4591 27.599 62.8956C28.3534 63.3228 28.3441 64.753 27.5803 66.081C26.8165 67.4183 25.587 68.152 24.8418 67.7155Z" fill="black"/>
<path d="M94.1246 77.1135C85.7506 67.5944 71.4153 67.8916 61.1132 73.733C49.6468 80.2432 44.7287 93.2541 49.2556 105.81C51.8079 112.896 56.2417 118.189 63.3115 121.412C68.2949 123.687 73.39 124.133 78.5783 122.759C84.6888 121.133 89.5697 118.292 93.221 114.224C103.048 103.293 103.933 88.2578 94.1246 77.1135ZM74.5264 117.558C64.5131 118.812 56.6049 111.41 54.1924 101.937C51.4073 91.0067 56.549 80.9768 67.1305 77.002C75.7094 73.7702 84.3255 74.3367 90.4825 81.7384C101.874 95.4365 90.8644 115.515 74.5264 117.558Z" fill="black"/>
<path d="M81.8198 83.7818C75.0294 79.8442 66.1246 82.4538 61.9516 89.614C57.7693 96.7835 59.893 105.782 66.6834 109.72C73.4739 113.658 82.3787 111.048 86.5517 103.888C90.734 96.7185 88.6103 87.7195 81.8198 83.7818ZM81.9689 98.8916C80.581 103.758 75.9236 106.702 71.5644 105.467C67.2051 104.232 64.8019 99.2816 66.1991 94.4153C67.587 89.549 72.2443 86.605 76.6036 87.8402C80.9629 89.0753 83.3661 94.0253 81.9689 98.8916Z" fill="black"/>
<path d="M77.591 94.2109C78.2523 96.1704 77.1066 98.3157 75.0481 99.0029C72.9895 99.6901 70.7912 98.65 70.1299 96.6905C69.4685 94.7309 70.6143 92.5857 72.6728 91.8984C74.7314 91.2112 76.9296 92.2513 77.591 94.2109Z" fill="black"/>
</g>
<defs>
<clipPath id="clip0_2209_69">
<rect width="140" height="140" fill="white" transform="translate(0.502472 0.542969)"/>
</clipPath>
</defs>
</svg>
