<svg width="185" height="160" viewBox="0 0 185 160" fill="none" xmlns="http://www.w3.org/2000/svg">
<g clip-path="url(#clip0_2085_24)">
<path d="M184.48 69.4307C183.219 68.1608 181.448 67.7286 179.526 67.8433C175.419 68.0902 170.818 67.7904 165.723 66.9438C158.584 65.7621 151.127 62.7284 150.043 54.5269C149.876 53.2129 150.501 50.6819 151.277 49.6324C154.926 44.6498 160.99 41.5985 166.005 38.1415C169.928 35.4429 168.218 30.6278 163.264 32.4357C159.624 33.7673 156.195 34.658 152.987 35.1254C146.888 36.0073 141.317 35.1166 136.267 32.4622C130.996 29.6842 128.492 25.5394 128.748 20.0364C128.986 15.0097 129.242 9.26864 129.515 2.80443C129.533 2.51341 129.444 2.24885 129.259 2.01956C128.457 1.04067 127.452 0.573271 126.254 0.608546C124.059 0.679097 122.878 2.7868 122.146 4.61229C118.894 12.6992 114.91 24.146 104.712 25.2836C101.195 25.6805 97.9427 21.9501 96.4707 19.181C93.659 13.8985 91.1646 8.42203 88.9699 2.76034C87.2247 -1.74608 82.941 -0.24688 81.9715 3.80978C81.8392 4.34773 81.8304 5.32662 81.9274 6.75527C82.3064 12.4434 81.4338 21.2799 76.8681 25.1337C70.9361 30.1516 64.2462 25.4071 59.7863 20.9359C56.1901 17.329 52.7702 13.5634 49.5266 9.63903C48.6011 8.51904 47.799 7.83999 47.1292 7.61951C44.3615 6.69354 41.9729 10.3181 43.0218 12.7873C44.0354 15.1596 45.0226 17.5319 45.9833 19.9218C47.2966 23.1936 48.7333 29.4902 46.8559 32.6209C45.2958 35.2225 42.5722 36.9421 38.6764 37.7623C30.1443 39.5613 21.198 37.9651 12.7187 35.9897C9.4487 35.2313 5.49996 37.6388 7.99437 41.3163C8.97274 42.7537 10.1362 44.0501 11.5024 45.2142C14.6755 47.9216 17.8398 50.6289 21.004 53.3363C24.3622 56.2113 27.2004 59.7476 27.5706 64.3775C28.4784 75.4363 14.2436 75.7097 7.06888 76.1065C5.64981 76.1859 4.20429 76.4505 2.73233 76.9002C0.0263839 77.7204 -1.21641 80.904 1.60412 82.703C2.86454 83.5055 3.86054 84.0435 4.57448 84.3169C10.2508 86.4687 15.8478 88.8233 21.3566 91.3719C26.6627 93.8324 32.2685 98.9385 28.5666 105.147C27.1299 107.554 24.706 109.257 22.1675 110.509C19.1266 111.999 16.1034 113.534 13.1066 115.103C11.4848 115.95 8.97274 117.925 9.83652 120.095C10.8501 122.652 12.9303 123.067 15.645 123.005C27.2268 122.758 43.1716 121.726 52.2325 131.136C56.2165 135.272 56.481 139.487 56.287 145.14C56.2518 146.225 56.4457 147.01 56.86 147.495C57.9794 148.809 60.5002 148.412 61.4081 146.869C63.0916 144.003 65.1981 141.481 67.7454 139.311C77.1413 131.295 87.4803 144.558 90.1862 152.813C90.7063 154.409 91.2704 156.111 91.8609 157.901C92.9362 161.138 96.5853 160.397 97.5548 157.328C99.4234 151.455 101.036 144.673 104.782 139.778C107.074 136.789 110.071 135.722 113.773 136.586C121.82 138.464 128.854 144.214 133.569 150.828C135.209 153.121 139.14 153.924 139.255 150.158C139.307 148.386 139.078 146.26 138.576 143.773C135.182 126.982 142.833 119.231 159.377 118.552C164.851 118.322 170.289 117.767 175.692 116.894C177.746 116.567 179.024 115.439 179.535 113.525C179.615 113.234 179.579 112.969 179.429 112.713C177.737 109.839 173.039 108.084 170.104 106.743C164.472 104.177 160.849 100.279 158.707 94.776C157.271 91.0897 157.888 87.8797 160.55 85.1458C165.785 79.7928 174.344 77.2265 180.901 74.2546C182.021 73.7519 183.158 73.0288 184.321 72.1028C185.159 71.4414 185.238 70.1891 184.48 69.4307ZM58.5787 132.618C57.5827 130.748 56.2694 128.852 54.5683 127.441C44.4585 119.054 32.3831 119.045 19.8935 119.001C19.5497 119.001 19.4792 118.86 19.6819 118.587C20.0345 118.111 20.5721 117.811 21.2861 117.696C23.8598 117.282 26.2485 116.964 28.4608 116.744C38.8174 115.73 47.8607 118.675 55.5907 125.571C57.6444 127.414 58.8167 129.707 59.1076 132.459C59.2045 133.402 59.0282 133.455 58.5787 132.618ZM52.9906 87.6768C49.2269 87.6768 46.1684 84.6167 46.1684 80.8511C46.1684 77.0854 49.2269 74.0253 52.9906 74.0253C56.7542 74.0253 59.8127 77.0854 59.8127 80.8511C59.8127 84.6167 56.7542 87.6768 52.9906 87.6768ZM126.765 139.011C120.216 132.847 107.48 128.852 101.125 137.935C98.4627 141.736 96.5148 145.952 95.272 150.573C95.1133 151.181 94.8842 151.208 94.5933 150.652C93.562 148.668 92.3633 146.631 90.9971 144.523C87.0219 138.367 80.8168 133.94 73.6068 133.147C70.9714 132.856 68.2038 133.341 65.3127 134.611C65.1893 134.672 65.0924 134.637 65.0307 134.514L64.9161 134.276C64.8368 134.117 64.8985 133.932 65.0571 133.852C76.7711 128.288 86.7487 135.351 94.3112 143.959C94.655 144.355 94.9018 144.303 95.0516 143.8C95.4835 142.354 96.1005 140.943 96.9026 139.567C100.975 132.591 106.792 129.531 114.346 130.369C119.74 130.968 124.632 133.879 127.162 138.711C127.629 139.602 127.496 139.699 126.765 139.011ZM72.6108 79.2196C73.4394 75.5598 76.9827 73.2492 80.5347 74.0518C84.0868 74.8543 86.2992 78.4612 85.4795 82.121C84.6509 85.7808 81.1077 88.0913 77.5556 87.2888C74.0035 86.4863 71.7911 82.8794 72.6108 79.2196ZM105.593 73.9018C109.242 73.6549 112.407 76.5475 112.653 80.3572C112.909 84.1669 110.159 87.4475 106.51 87.6857C102.861 87.9326 99.6967 85.04 99.4499 81.2303C99.1943 77.4205 101.944 74.1399 105.593 73.9018ZM125.046 81.0627C124.958 77.3324 127.831 74.2281 131.463 74.1399C135.103 74.0518 138.118 77.0061 138.214 80.7452C138.303 84.4756 135.429 87.5798 131.798 87.668C128.158 87.7562 125.143 84.8019 125.046 81.0627ZM167.248 111.893C168.086 111.92 168.183 112.202 167.557 112.758C166.975 113.269 166.085 113.516 165.318 113.463C163.758 113.366 162.409 113.463 161.29 113.763C160.514 113.966 159.73 114.116 158.937 114.213C153.727 114.848 149.038 115.959 144.86 117.537C135.87 120.95 133.472 130.245 133.781 138.976C133.799 139.47 133.666 139.514 133.393 139.099C132.565 137.838 132.124 136.516 132.08 135.149C131.736 125.227 137.412 118.922 146.174 115.58C153.128 112.925 160.153 111.691 167.248 111.893ZM172.687 73.2581C169.425 74.6426 166.05 76.2829 162.559 78.179C155.86 81.8211 152.15 87.1213 154.124 95.0053C154.344 95.8783 154.503 96.5309 154.609 96.9631C154.873 98.0213 154.697 98.1007 154.089 97.2012C149.514 90.4283 154.353 81.7241 159.703 76.9884C160.276 76.4857 160.726 75.7097 161.078 75.0659C161.731 73.8754 161.431 73.0023 160.179 72.4291C155.411 70.2508 149.479 66.5117 147.126 62.0846C145.821 59.6418 145.081 56.952 144.913 54.0242C144.763 51.4491 145.327 49.4384 146.914 47.2513C148.289 45.3641 149.743 43.5739 151.268 41.8807C151.727 41.378 151.621 41.1575 150.942 41.2369C147.584 41.5896 143.856 41.766 140.453 40.452C131.525 37.0038 122.517 32.6385 120.507 22.4351C120.172 20.7243 119.529 20.6008 118.577 22.0648C114.619 28.1762 107.568 32.9913 100.375 30.1163C96.1887 28.4408 93.1213 26.0156 90.4947 22.541C89.675 21.4563 88.8377 20.4509 87.9651 19.5249C87.7359 19.2868 87.3304 19.375 87.2335 19.6925C84.5804 28.1497 78.816 32.6826 69.9313 33.2823C69.0764 33.344 67.7807 33.1059 66.0619 32.5856C63.0299 31.6596 60.1741 29.843 57.4593 28.1409C56.9745 27.8323 56.3223 28.1233 56.243 28.6965C54.4449 41.087 38.5706 45.6551 28.214 45.8844C27.2268 45.902 26.6892 47.0397 27.2885 47.8246C29.3246 50.4614 31.0522 53.3363 32.4889 56.4317C34.569 60.9117 34.6043 65.8326 34.1635 70.78C33.6259 76.8473 30.347 80.3396 24.3182 81.2479C23.2869 81.4066 22.335 81.8476 21.4712 82.5796C21.2508 82.7647 21.2596 83.1175 21.4976 83.2851C24.944 85.8337 28.2316 88.5764 31.343 91.513C33.6259 93.6648 35.0626 96.187 35.6708 99.0884C35.6972 99.203 35.6708 99.2824 35.6003 99.3353C35.4592 99.4323 35.3535 99.4059 35.2829 99.2471C34.4985 97.4834 33.9079 95.6314 32.5946 94.2116C30.1355 91.5571 27.1651 89.423 23.6659 87.8091C19.3205 85.8072 14.9487 83.8142 10.5417 81.8211C9.88059 81.5301 9.90704 81.3273 10.621 81.2126C14.1466 80.6659 17.7252 79.8898 21.3566 78.8756C26.7685 77.3764 31.1491 75.1717 32.3214 69.0074C33.8639 60.8941 29.5978 55.2676 23.9656 49.9499C21.1539 47.2866 18.4127 44.6762 15.7332 42.11C15.0986 41.5015 15.222 41.2369 16.1034 41.3163C18.4479 41.5367 20.7484 41.8366 23.0137 42.2158C27.5089 42.9566 32.4095 42.8596 37.7245 41.9336C42.6604 41.0693 49.9849 38.2561 51.4657 33.0266C52.8936 28.0086 51.545 23.3435 50.029 18.6871C49.6764 17.6024 49.932 17.4349 50.7958 18.1757C54.3039 21.1829 57.2037 25.1249 61.505 28.0086C66.2735 31.2099 71.4914 32.1711 76.8504 29.8077C84.3248 26.5094 84.6686 18.6431 85.7792 11.588C86.0348 9.97414 86.5724 9.86832 87.3921 11.2881C88.8641 13.8368 90.3008 16.4383 91.7023 19.0928C93.5444 22.5939 95.2544 24.9926 96.8145 26.289C102.896 31.3069 109.842 29.2962 115.148 24.2783C118.762 20.8478 120.648 17.7523 123.257 13.9867C124.482 12.2141 125.011 12.3993 124.843 14.5511C124.279 21.5268 123.874 29.3667 130.282 33.7056C133.27 35.7339 136.813 37.339 140.912 38.5207C141.626 38.7235 142.639 38.9175 143.97 39.0851C146.244 39.3673 148.404 40.1345 150.819 39.3232C151.057 39.2438 151.268 39.2703 151.471 39.4202L151.665 39.5701C151.832 39.6936 152.044 39.7289 152.238 39.6671C154.15 39.0586 156.037 38.6794 157.914 38.5295C158.637 38.4678 158.699 38.6353 158.09 39.0322C156.759 39.8876 155.349 40.7607 153.86 41.6426C151.295 43.1506 146.65 46.9515 146.094 50.1704C144.402 59.8534 150.519 67.1907 159.492 69.757C162.383 70.5771 165.433 71.3532 168.641 72.0852C170.025 72.4026 171.25 72.2703 172.528 72.3409C173.894 72.4114 173.947 72.7201 172.687 73.2581Z" fill="black"/>
</g>
<defs>
<clipPath id="clip0_2085_24">
<rect width="185" height="160" fill="white"/>
</clipPath>
</defs>
</svg>
