<svg width="190" height="160" viewBox="0 0 190 160" fill="none" xmlns="http://www.w3.org/2000/svg">
<g clip-path="url(#clip0_2079_469)">
<path d="M84.5881 10.3947C84.6395 11.1851 84.0399 11.8651 83.2433 11.9161L82.0612 11.9926C81.2645 12.0436 80.5793 11.4486 80.5279 10.6582L79.9197 1.59787C79.8683 0.807433 80.4679 0.127486 81.2645 0.0764901L82.4466 -3.96208e-06C83.2433 -0.051 83.9285 0.543954 83.9799 1.33439L84.5881 10.3947Z" fill="black"/>
<path d="M123.76 49.9166C127.709 45.7095 131.384 41.5363 134.801 37.3971C138.562 32.8415 142.331 28.4388 146.125 24.1976C146.845 23.3902 147.522 23.0927 148.164 23.3052C148.755 23.5007 149.038 23.9002 149.004 24.5206C148.335 37.5076 147.23 50.6306 147.299 63.6941C147.299 63.932 147.479 64.136 147.719 64.153C159.891 65.2069 172.114 66.1249 184.372 66.9153C186.102 67.0258 187.799 67.4508 189.435 67.8842C189.717 67.9607 189.889 68.1392 189.949 68.4197C190.146 69.3121 189.786 69.9411 188.878 70.315C179.121 74.3267 170.752 77.8964 163.754 81.0157C161.553 81.9931 159.308 83.132 157.004 84.4154C156.713 84.5769 156.756 85.0104 157.073 85.1209C165.767 88.0532 174.427 90.535 183.053 92.5493C183.721 92.7023 184.424 92.9488 185.152 93.2802C185.417 93.3992 185.597 93.5947 185.674 93.8752C185.94 94.7421 185.631 95.2436 184.758 95.3711C170.513 97.5299 158.469 99.6547 148.627 101.754C148.335 101.814 148.241 101.984 148.344 102.256C152.164 112.693 157.484 121.235 162.906 130.83C163.317 131.553 162.786 132.445 161.955 132.445C161.073 132.445 160.191 132.233 159.291 131.816C146.074 125.637 133.422 119.756 121.336 114.18C121.07 114.061 120.916 114.146 120.882 114.435C120.762 115.421 120.882 116.568 121.25 117.869C124.154 128.399 127.246 138.998 130.518 149.665C130.63 150.022 130.364 150.387 129.979 150.404C129.105 150.43 128.386 150.251 127.82 149.86C115.511 141.386 103.142 133.074 90.7127 124.923C87.2521 122.654 83.8258 120.47 80.4422 118.37C80.1596 118.192 79.894 118.226 79.6542 118.455L55.2671 142.5C54.6846 143.078 53.691 142.746 53.571 141.939C53.2627 139.857 53.3141 137.689 53.7338 135.454C55.0444 128.442 56.3721 121.498 57.6998 114.639C57.7769 114.223 57.3914 113.866 56.9803 113.985C43.5061 117.733 30.2119 121.762 17.0975 126.071C16.1981 126.368 15.2044 126.598 14.1166 126.759C13.4142 126.861 12.746 126.411 12.5918 125.714C12.155 123.708 14.9389 122.739 16.2152 121.762C24.6526 115.277 32.7902 108.511 40.6366 101.457C42.1356 100.105 43.7288 98.6093 45.4163 96.969C46.2815 96.1275 46.1187 95.7791 44.9109 95.932C44.3199 96.0085 43.4804 95.9915 42.384 95.898C37.4672 95.4646 32.5418 95.1586 27.6078 94.9716C19.6073 94.6656 11.898 94.3597 4.47993 94.0452C3.15222 93.9857 2.32133 93.6712 1.97013 93.1018C1.42191 92.2093 1.62749 91.5634 2.59544 91.1469C12.4205 86.9652 21.9972 82.4181 31.3083 77.497C36.4136 74.8027 39.9598 72.8563 41.9557 71.6409C42.2041 71.4964 42.2641 71.2925 42.1441 71.029C41.4846 69.6096 40.5423 68.1562 39.3174 66.6688C33.03 59.0619 26.9054 52.2115 20.9521 46.1259C20.4639 45.633 20.2155 45.1655 20.2069 44.732C20.2069 44.2816 20.3354 43.8566 20.6352 43.4741C20.8151 43.2447 21.0464 43.1512 21.329 43.2107C22.9309 43.5336 24.2414 43.8736 25.2522 44.2391C35.6598 47.9703 46.1359 51.829 56.6719 55.8067C57.2972 56.0447 57.5627 55.8322 57.4685 55.1692C56.9888 51.8035 56.0723 48.2678 54.7103 44.562C54.3163 43.4911 55.2585 42.4032 56.3892 42.6327C57.1173 42.7772 57.8369 43.0237 58.565 43.3721C64.1499 46.0239 69.5636 49.0157 74.8145 52.3474C75.0886 52.5174 75.4312 52.2794 75.3627 51.965C74.5832 48.4462 73.6581 44.902 72.5873 41.3408C70.1632 33.3259 67.8076 25.1071 65.5205 16.6927C65.2892 15.8258 65.8631 14.9504 66.754 14.8059C67.8589 14.6274 68.5014 15.1713 69.0496 16.0553C73.915 23.7727 79.7912 30.7166 85.2563 38.0091C88.0659 41.7488 91.7235 45.514 94.6873 49.4577C95.1927 50.1291 95.4839 50.0441 95.561 49.2112C96.1435 43.4231 96.272 37.4821 96.983 31.6431C97.3085 29.0508 97.3684 26.178 97.6169 23.8747C98.3449 17.0327 99.1159 10.1992 99.9211 3.37427C100.058 2.20986 100.743 1.19844 102.08 1.58091C102.482 1.6999 102.791 2.01437 102.893 2.41384L113.841 45.4375C113.926 45.786 114.389 45.8624 114.594 45.5735C118.158 40.4994 121.644 35.2553 125.053 29.8327C125.182 29.6372 125.327 29.5012 125.499 29.4417C126.09 29.2207 126.484 29.5947 126.681 30.5636C126.715 30.7251 126.707 30.8951 126.664 31.0566C125.019 37.1081 123.923 43.3381 123.374 49.7466C123.34 50.1716 123.469 50.2311 123.76 49.9166Z" fill="black"/>
<path d="M119.674 26.0335C119.434 26.7559 118.98 26.9429 118.303 26.5775L117.807 26.3055C117.421 26.093 117.224 25.651 117.327 25.2261C118.749 19.404 119.914 13.429 120.83 7.30096C121.002 6.13655 121.687 5.57559 122.878 5.61809L123.237 5.63509C124.145 5.66909 124.831 6.45952 124.736 7.35195C124.411 10.5052 122.723 16.7267 119.674 26.0335Z" fill="black"/>
<path d="M44.0972 15.0693C42.8637 12.6385 45.9988 10.0207 47.9176 13.4459C51.164 19.268 54.5047 25.226 57.9311 31.32C58.2138 31.83 58.2651 32.4589 58.0853 33.2154C58.0253 33.4619 57.854 33.6318 57.5713 33.7168C57.1601 33.8358 56.7319 33.6743 56.5006 33.3259C52.526 27.3508 47.3265 21.4523 44.0972 15.0693Z" fill="black"/>
<path d="M86.9095 25.821C86.0615 25.991 85.0678 24.5716 84.6909 22.6592C84.314 20.7554 84.6909 19.064 85.5304 18.9025C86.3784 18.7326 87.3721 20.1519 87.749 22.0643C88.1259 23.9681 87.749 25.6595 86.9095 25.821Z" fill="black"/>
<path d="M39.8913 27.6823C40.2254 27.3849 40.7308 27.4104 41.0306 27.7418L45.2621 32.4335C48.8512 36.4197 51.2326 40.1254 50.5816 40.7033L50.0847 41.1453C49.4337 41.7232 45.9902 38.961 42.4011 34.9748L38.1696 30.2831C37.8698 29.9517 37.904 29.4417 38.2295 29.1527L39.8913 27.6823Z" fill="black"/>
<path d="M153.963 43.5336L159.942 30.7336C160.131 30.3256 160.559 30.0876 161.004 30.1471L162.632 30.3426C163.352 30.4276 163.763 31.201 163.42 31.8385L156.901 44.1285C156.773 44.3835 156.542 44.562 156.276 44.6385L155.188 44.953C154.34 45.1994 153.586 44.3325 153.963 43.5336Z" fill="black"/>
<path d="M161.981 56.7586C161.005 57.2855 159.797 57.1325 159 56.3676L158.726 56.0956C158.049 55.4582 158.101 54.8802 158.872 54.3617C166.932 48.9562 174.744 44.426 182.308 40.7713C183.55 40.1679 184.509 40.4653 185.186 41.6552L185.452 42.1227C185.914 42.9216 185.623 43.9416 184.809 44.3835L161.981 56.7586Z" fill="black"/>
<path d="M16.5407 65.6319C18.2282 65.8614 19.8557 66.2778 21.4404 66.8983C21.6974 66.9918 21.8944 67.2128 21.9715 67.4762C22.1428 68.0457 22.1085 68.5812 21.8772 69.0656C21.7745 69.2866 21.5603 69.4311 21.3119 69.4396C14.7076 69.7031 7.99194 69.4396 1.15636 68.6662C0.539615 68.5982 0.0599256 68.1052 0.00853024 67.4933C-0.0171674 67.2128 0.00853024 66.9068 0.0941891 66.5668C0.359732 65.4449 1.0707 64.8755 2.23566 64.8585C7.46942 64.782 12.2406 65.0454 16.5407 65.6319Z" fill="black"/>
<path d="M186.634 81.1347C187.387 81.1942 187.713 81.6021 187.619 82.3416L187.524 83.047C187.43 83.7864 187.002 84.1434 186.24 84.1009C184.209 83.9989 182.402 83.7355 180.817 83.302C178.856 82.7665 178.847 82.2141 180.792 81.6276C182.496 81.1092 184.449 80.9477 186.634 81.1347Z" fill="black"/>
<path d="M24.1301 106.497L15.6584 110.695C15.0074 111.018 14.2193 110.61 14.1251 109.888L14.0652 109.403C13.9195 108.307 14.3564 107.542 15.3672 107.092C18.4937 105.706 21.0549 104.754 23.0508 104.227C23.7446 104.049 24.2414 104.278 24.5327 104.924C24.5584 104.992 24.5926 105.06 24.6183 105.12C24.901 105.74 24.7383 106.199 24.1301 106.497Z" fill="black"/>
<path d="M170.436 112.82C170.016 113.577 169.056 113.849 168.294 113.424L161.93 109.913C161.176 109.497 160.902 108.545 161.321 107.789L161.459 107.551C161.878 106.794 162.838 106.522 163.6 106.947L169.964 110.457C170.718 110.874 170.992 111.826 170.573 112.582L170.436 112.82Z" fill="black"/>
<path d="M142.228 142.236C142.673 143.197 142.245 144.336 141.286 144.769L141.174 144.82C140.215 145.262 139.067 144.837 138.622 143.885L133.328 132.471C132.883 131.51 133.311 130.371 134.27 129.938L134.382 129.887C135.341 129.445 136.489 129.87 136.934 130.822L142.228 142.236Z" fill="black"/>
<path d="M40.6023 138.497C40.0369 139.236 38.9833 139.381 38.2381 138.82L38.0068 138.641C37.2616 138.08 37.116 137.026 37.6813 136.295L41.5959 131.179C42.1613 130.439 43.2149 130.295 43.9601 130.856L44.1914 131.034C44.9366 131.595 45.0822 132.649 44.5169 133.38L40.6023 138.497Z" fill="black"/>
<path d="M79.1489 150.124C78.6435 150.09 78.258 149.648 78.3009 149.146L78.3266 148.721C79.0461 138.973 80.1682 131.111 80.8192 131.162L82.7551 131.298C83.4061 131.349 83.3547 139.287 82.6352 149.036L82.6009 149.461C82.5667 149.962 82.1212 150.345 81.6159 150.311L79.1489 150.124Z" fill="black"/>
<path d="M103.476 157.986C103.562 158.963 102.825 159.83 101.84 159.915L100.966 159.992C99.981 160.077 99.1073 159.346 99.0216 158.368L97.8395 144.667C97.7539 143.69 98.4905 142.823 99.4756 142.738L100.349 142.661C101.334 142.576 102.208 143.307 102.294 144.285L103.476 157.986Z" fill="black"/>
</g>
<defs>
<clipPath id="clip0_2079_469">
<rect width="190" height="160" fill="white"/>
</clipPath>
</defs>
</svg>
