<svg width="165" height="160" viewBox="0 0 165 160" fill="none" xmlns="http://www.w3.org/2000/svg">
<g clip-path="url(#clip0_2079_462)">
<path d="M52.673 98.1872C52.4739 98.1184 52.2213 98.1337 51.9075 98.233C47.7279 99.5465 43.5561 100.944 39.3459 102.067C27.6952 105.167 16.0599 108.321 4.43984 111.536C1.95967 112.224 0.67366 109.047 3.00073 107.817C13.9701 102.006 24.0056 96.2856 33.0995 90.6725C37.4092 88.0072 42.0634 85.4489 46.419 82.6538C46.6256 82.5163 46.618 82.2185 46.4037 82.0886C39.0244 77.7815 31.3466 73.6194 24.1817 69.3885C16.6263 64.921 9.00212 60.5603 1.32432 56.299C0.666005 55.9324 0.260299 55.5353 0.114857 55.1076C-0.0612045 54.6188 -0.03824 54.1148 0.18375 53.5879C0.283263 53.3511 0.466979 53.206 0.719589 53.1602C1.99029 52.9235 3.06962 52.9235 3.94993 53.1526C19.4663 57.0855 33.7502 60.5756 48.7078 63.6151C49.0752 63.6914 49.3661 63.3172 49.213 62.9736C43.3417 50.22 37.6771 37.9552 32.2192 26.1715C30.8184 23.1549 28.2005 18.2674 26.5623 14.1205C26.1413 13.0514 26.6618 11.9822 27.9402 12.0815C28.4378 12.1197 28.8894 12.3717 29.1879 12.7688C38.7871 25.7362 47.9193 37.8483 58.5059 50.5408C58.8657 50.9684 59.1336 50.915 59.2944 50.3804C59.3403 50.22 59.3556 50.0367 59.3327 49.8458C58.2686 39.4978 57.0286 28.5008 55.5971 16.8469C55.5282 16.3047 55.4976 15.6937 55.4899 15.0217C55.4899 14.6398 55.666 14.3955 56.0411 14.2809C57.1817 13.9525 57.9701 14.2504 58.4064 15.1821C63.4433 26.0188 68.2429 36.97 74.1218 47.6311C74.5964 48.4864 74.895 48.433 75.0251 47.4631C75.4691 44.1181 75.5456 40.3608 75.913 37.2068C77.2909 25.3926 78.5387 13.4561 79.6639 1.41279C79.7098 0.946938 79.9242 0.519273 80.2763 0.221436C80.5595 -0.0153073 81.0035 -0.0611285 81.6082 0.0916089C82.2283 0.244346 82.6799 0.77129 82.7335 1.40515C83.3918 8.59144 84.0807 16.2054 84.8003 24.2623C85.4357 31.3722 86.2318 38.3676 87.1886 45.2484C87.2422 45.6608 87.7704 45.8059 88.0306 45.4851C96.2749 35.3892 102.927 24.8809 107.971 13.9602C108.477 12.8757 109.235 12.6161 110.253 13.1812C110.612 13.3798 110.804 13.7921 110.712 14.1969C107.811 27.508 104.887 40.5288 101.939 53.2442C101.855 53.6031 101.84 53.9621 101.878 54.3363C101.894 54.489 102.062 54.573 102.192 54.4966C107.053 51.7092 111.952 48.9905 116.882 46.3405C123.251 42.9192 129.214 39.3451 135.368 35.8169C136.539 35.1448 137.512 35.2747 138.285 36.2064C138.729 36.7409 138.675 37.5352 138.17 38.0087C129.772 45.8441 121.743 53.9544 114.095 62.3473C113.582 62.9201 113.69 63.0729 114.417 62.8208C129.826 57.4827 145.22 52.282 160.598 47.2264C161.999 46.7681 163.293 46.646 164.487 46.8521C164.747 46.898 164.901 47.0507 164.946 47.3027C165.168 48.5017 164.656 49.4105 163.408 50.0138C148.167 57.4368 132.903 64.8064 117.617 72.1149C116.828 72.4891 116.262 73.0313 115.933 73.7416C115.848 73.9172 115.963 74.131 116.162 74.1539C125.233 75.1315 134.327 75.5591 143.429 75.4446C148.496 75.3835 153.311 75.6508 158.493 75.5209C159.221 75.498 159.787 75.6966 160.208 76.109C160.843 76.7352 160.576 77.812 159.726 78.0717C156.97 78.927 154.191 79.6907 151.397 80.3627C139.64 83.196 127.606 85.93 116.185 89.947C115.986 90.0157 115.848 90.1303 115.779 90.2983C115.672 90.535 115.726 90.8176 115.91 91.0009C118.535 93.605 120.901 95.835 122.998 97.6908C130.844 104.64 140.328 112.789 151.436 122.144C152.507 123.038 153.64 123.855 152.714 125.275C152.37 125.81 151.696 126.024 151.099 125.794L102.613 106.908C102.414 106.832 102.215 107.015 102.269 107.222C102.567 108.268 102.904 109.169 103.287 109.925C112.228 127.436 119.699 143.451 125.692 157.976C125.976 158.671 125.807 159.221 125.187 159.641C124.383 160.183 123.687 160.122 123.09 159.458C122.156 158.411 121.291 157.312 120.487 156.151C110.207 141.282 99.6124 126.65 88.7043 112.239C88.5588 112.048 88.4593 111.941 88.3904 111.918C88.1072 111.819 87.9541 111.918 87.9235 112.216C87.5331 116.057 87.2805 119.685 87.1503 123.099C86.6834 135.341 86.0787 146.315 85.3208 156.006C85.206 157.48 84.4635 158.305 83.1009 158.495C82.8483 158.534 82.6493 158.442 82.5115 158.221C82.0216 157.465 81.6848 156.67 81.5087 155.83C78.2325 140.419 75.4461 126.321 70.1643 112.186C70.0112 111.781 69.5213 111.62 69.1615 111.865C62.6013 116.279 57.0056 121.625 52.3821 127.902C47.6284 134.371 43.1044 141.939 38.8177 150.614C38.3814 151.492 37.8532 152.34 37.2332 153.157C36.9193 153.562 36.5136 153.73 36.016 153.646C34.9367 153.47 34.5004 152.905 34.7071 151.943C34.9291 150.866 35.373 149.553 35.8706 148.575C40.9687 138.472 45.8984 128.307 50.6597 118.089C50.92 117.524 50.7669 117.363 50.1928 117.6C46.9165 118.975 43.5943 120.388 40.2262 121.831C33.9875 124.511 27.1364 128.047 20.5073 131.026C18.9764 131.721 17.9583 131.346 17.4454 129.903C17.3382 129.605 17.3918 129.346 17.5985 129.109C18.4252 128.2 19.3515 127.436 20.3849 126.833C22.3904 125.649 24.2046 124.359 25.8275 122.954C28.5066 120.64 29.8539 119.471 29.8692 119.463C38.0216 112.965 45.6535 105.984 52.7648 98.5232C52.872 98.4163 52.8184 98.233 52.673 98.1872Z" fill="black"/>
<path d="M110.689 41.3383C110.635 39.8491 112.901 37.1992 113.843 36.0994C122.592 25.9042 131.395 16.572 140.237 8.11033C140.78 7.59866 141.607 7.52229 142.227 7.93468L142.418 8.05687C143.276 8.61436 143.452 9.79808 142.793 10.5847C136.547 18.0612 129.566 24.9802 122.761 32.1817C120.12 34.9768 117.395 37.497 114.876 40.3455C114.302 41.0023 113.498 41.6514 112.48 42.2853C111.715 42.7588 110.727 42.2318 110.689 41.3383Z" fill="black"/>
<path d="M15.5318 39.9943C11.092 38.6884 6.88946 37.2832 2.33483 35.5573C1.73776 35.3358 1.43922 34.6638 1.66121 34.0681L1.78369 33.755C2.15877 32.7698 2.85536 32.388 3.88111 32.6094C8.4587 33.587 12.4469 34.8394 15.8533 36.3744C16.703 36.7563 17.5067 37.3443 18.2645 38.1462C18.4406 38.3371 18.4865 38.5509 18.4023 38.7953C17.9737 40.0325 17.0168 40.4296 15.5318 39.9943Z" fill="black"/>
<path d="M38.458 81.9207C38.3355 82.9516 37.4092 83.6848 36.3758 83.5626L10.3417 80.5155C9.30834 80.3933 8.57347 79.4616 8.69595 78.4383V78.3619C8.82608 77.3309 9.75232 76.5978 10.7857 76.72L36.8198 79.7671C37.8532 79.8893 38.5881 80.821 38.4656 81.8443V81.9207H38.458Z" fill="black"/>
<path d="M137.267 99.5466C136.761 100.264 134.855 99.791 133.003 98.4927C131.158 97.1944 130.071 95.5525 130.576 94.8423C131.081 94.1244 132.987 94.5979 134.84 95.8962C136.685 97.1944 137.772 98.8364 137.267 99.5466Z" fill="black"/>
<path d="M61.1468 145.895C61.009 146.284 60.5804 146.483 60.19 146.338L59.7077 146.17C58.4141 145.704 58.1232 143.237 59.0571 140.663L63.4892 128.437C64.4231 125.863 66.2296 124.16 67.5233 124.626L68.0056 124.802C68.396 124.939 68.595 125.367 68.4572 125.756L61.1468 145.895Z" fill="black"/>
</g>
<defs>
<clipPath id="clip0_2079_462">
<rect width="165" height="160" fill="white"/>
</clipPath>
</defs>
</svg>
