<svg width="101" height="100" viewBox="0 0 101 100" fill="none" xmlns="http://www.w3.org/2000/svg">
<g clip-path="url(#clip0_2077_446)">
<path d="M96.4752 39.4423C91.4413 38.8725 85.8227 38.5121 79.5964 38.3609C76.7526 38.3028 73.9433 37.9074 71.1684 37.1981C70.79 37.1051 70.5263 36.8842 70.3543 36.5353C69.586 34.9423 69.0242 33.4423 68.6687 32.0353C66.5245 23.6284 63.9445 14.8493 60.9288 5.69813C60.2752 3.74464 59.2432 2.08185 57.8213 0.698131C56.6517 -0.418148 54.7712 -0.173962 53.9227 1.20976C49.1182 9.07022 43.5798 16.5353 37.2847 23.6051C36.4591 24.5353 35.5303 25.3144 34.2002 24.7795C27.4922 22.0935 20.8416 19.4888 14.2483 16.9656C10.6478 15.5935 2.50656 11.8842 0.729245 17.2679C0.0527175 19.3377 1.02738 20.4888 2.0823 22.1865C7.91879 31.6749 13.7897 39.9539 19.695 47.0121C21.4035 49.0702 21.5869 51.2446 20.2339 53.547C14.4089 63.4656 9.09985 74.1516 4.30682 85.6167C3.83669 86.733 4.36415 88.0121 5.46494 88.4656C6.34787 88.826 7.54039 88.7679 9.05398 88.2679C21.243 84.3028 33.581 80.8609 46.0681 77.9423C46.8822 77.7563 47.6963 77.6632 48.5219 77.6516C48.9118 77.6516 49.2329 77.8028 49.4851 78.0935C55.4363 85.0935 61.4104 92.5702 68.4738 98.4307C69.3108 99.1167 70.2626 99.6284 71.3404 99.9423C71.7188 100.047 72.0743 100 72.4068 99.8028C74.3676 98.6051 75.4454 96.7214 75.6289 94.1749C76.3857 83.3377 76.5004 73.1749 75.9844 63.6981C75.8812 61.9772 76.5921 60.7098 78.0942 59.9074C85.1003 56.14 92.909 51.9191 99.0093 46.6284C102.117 43.9191 99.9266 39.8377 96.4752 39.4423ZM51.8816 17.4423C52.5123 15.6516 53.4182 14.0702 54.6107 12.6865C55.0464 12.1865 55.2643 12.2679 55.2528 12.9307C55.2299 15.1865 55.6541 17.2912 56.5256 19.3958C58.5323 24.2214 60.6765 29.6051 62.9584 35.5353C63.245 36.2679 63.0845 36.3842 62.4882 35.8842C61.8576 35.3493 61.2957 34.7446 60.8026 34.0586C57.42 29.3725 54.4616 24.1981 51.939 18.5586C51.767 18.1981 51.7555 17.826 51.8816 17.4423ZM20.4518 37.4772L20.383 37.5237C20.2912 37.5819 20.1766 37.547 20.1307 37.4656L10.7854 22.6516C10.7281 22.5702 10.751 22.4539 10.8428 22.3958L10.9116 22.3493C11.4734 21.9772 14.019 24.9888 16.599 29.0586L16.8283 29.4307C19.3968 33.5005 21.0136 37.1051 20.4518 37.4772ZM14.8446 79.0237C14.7414 78.0586 14.9019 77.1632 15.3262 76.3493C17.5163 72.0586 19.5115 68.1516 22.3323 63.9191C25.3939 59.2795 28.1802 54.3609 30.6685 49.14C31.0583 48.326 30.9551 47.5818 30.3589 46.9191C26.896 42.9772 23.6624 38.6516 20.6467 33.9423C19.3854 31.9656 18.8923 29.4772 17.9979 27.3493C16.8398 24.6284 17.2411 24.3609 19.2248 26.5353C24.2013 32.0121 28.616 37.9888 32.4802 44.4656C32.6751 44.8028 32.9962 45.047 33.3631 45.1632L35.1404 45.7098C35.6794 45.8726 35.9546 46.4772 35.7367 47.0005C32.8127 54.0121 29.3384 60.2563 25.3021 65.733C22.0685 70.1051 19.179 74.8609 15.4065 79.1981C15.0854 79.5702 14.9019 79.5121 14.8446 79.0237ZM33.9708 76.047C33.4893 76.2563 32.9733 75.7912 33.1338 75.2795C34.8423 69.6981 37.6631 65.6051 40.0825 60.5005C40.782 59.0353 41.7452 57.7563 42.9721 56.6632C44.6921 55.14 50.0011 48.6516 46.9281 46.4423L47.0771 46.9191C47.1689 47.2214 47.1803 47.547 47.0886 47.8493C46.0681 51.3144 44.3825 54.2912 42.0548 56.7912C41.4012 57.5005 41.1948 57.3842 41.4471 56.4423C42.1809 53.6865 43.706 51.4539 44.0156 48.326C44.0614 47.826 43.855 47.6749 43.4078 47.8725C42.6166 48.2098 42.0892 48.7098 41.8369 49.3842C37.8351 59.9307 32.1821 69.233 24.8779 77.3028C24.3389 77.8958 23.5707 78.3377 22.5616 78.6051C22.1373 78.7214 21.9997 78.5702 22.1603 78.1516C22.6419 76.9307 23.2037 75.7446 23.8344 74.6167C28.5128 66.3028 34.7276 58.5702 37.6631 49.0353C38.4543 46.4307 37.17 46.3028 36.1151 44.547C33.1453 39.5586 29.453 34.1865 25.0384 28.4191C24.7059 28.0005 24.7976 27.8842 25.2907 28.0586C28.5701 29.2563 31.2189 30.6284 33.237 32.1632C37.2159 35.1981 38.7524 40.0237 42.7542 42.9656C43.7518 43.6981 44.543 44.6632 45.1393 45.8493C45.3113 46.2098 45.598 46.4191 45.9878 46.4772C46.2974 46.5237 46.607 46.5121 46.9281 46.4423C45.2081 41.1632 42.6052 36.4888 39.1079 32.4307C38.8671 32.14 38.89 31.8958 39.1996 31.6865L42.9606 29.1051C43.2817 28.8842 43.534 28.9423 43.7174 29.2795C46.6185 34.5586 50.0585 40.0005 54.0603 45.5935C54.324 45.9539 54.3355 46.326 54.0947 46.7098C48.327 56.0702 42.4561 65.1284 36.505 73.9074C35.8514 74.8842 35.0028 75.5935 33.9708 76.047ZM48.3499 69.9307C47.1001 69.4656 46.1369 68.8028 45.4374 67.9423C45.1278 67.5586 45.0132 67.6051 45.1164 68.0935C45.2884 69.0353 45.1508 69.8377 44.6806 70.5121C44.4054 70.9074 43.8206 70.9191 43.5454 70.5237C42.9033 69.6516 43.4193 68.5237 43.9124 67.733C44.0729 67.4772 44.2908 67.326 44.5545 67.2912C44.8985 67.2563 45.1622 67.0818 45.3342 66.7679C48.0747 61.7795 50.7235 56.8842 53.2806 52.0819C55.1037 48.64 56.0899 46.1632 56.216 44.6632C56.388 42.6284 54.496 41.326 53.7278 40.0237C50.9643 35.4307 48.327 31.0935 45.8158 27.0237C45.2196 26.0586 45.2769 25.14 45.9878 24.2679L47.6161 22.233C48.3614 21.3144 49.0265 21.3725 49.6342 22.3842C53.0627 28.1051 56.388 33.6167 59.633 38.9307C60.2981 40.0121 61.2957 40.6865 62.1786 41.5586C62.9354 42.3028 63.1303 43.4772 62.6373 44.4307C60.4128 48.733 58.6813 53.1749 56.1472 57.3377C53.7736 61.2563 51.6179 65.2679 49.703 69.3726C49.4622 69.8958 48.8774 70.1284 48.3499 69.9307ZM54.6336 72.8842C52.8104 70.9307 54.4272 66.1865 55.5853 64.1981C59.3349 57.7563 62.6258 51.1981 65.481 44.5237C66.0199 43.2563 66.9602 42.733 68.3018 42.9307L70.102 43.1981C71.7188 43.4423 72.0857 44.2563 71.2143 45.64C68.382 50.1632 65.5842 54.6051 62.8208 58.9656C60.0344 63.3609 58.0048 68.0237 55.7573 72.7098C55.4707 73.326 55.0923 73.3842 54.6336 72.8842ZM69.9988 83.3609C69.781 86.1865 69.4026 88.4539 69.1388 88.4423C68.8866 88.4191 68.8407 86.1167 69.0586 83.2912C69.2764 80.4656 69.6548 78.1981 69.9186 78.2098C70.1708 78.233 70.2167 80.5353 69.9988 83.3609ZM64.3458 84.3958C64.3229 84.5005 64.2197 84.547 64.1165 84.5237H64.0935C62.9125 84.1167 62.6717 81.6051 63.5546 78.8958L66.7767 68.9539C67.6482 66.2446 69.3223 64.3726 70.5034 64.7679H70.5263C70.618 64.8028 70.6754 64.9074 70.641 65.0005L64.3458 84.3958ZM79.9977 44.9539C77.1884 50.3028 74.3905 53.3725 70.3772 57.4656C69.1962 58.6632 67.545 61.64 65.4237 66.3842C63.761 70.0818 63.9101 74.64 63.096 78.8493C62.9928 79.3842 62.7634 79.8028 62.408 80.1167C62.0296 80.4423 61.869 80.3609 61.9264 79.8609L62.9125 70.8144C62.9354 70.6051 62.8552 70.3958 62.7061 70.2446C62.2589 69.826 61.892 69.9423 61.6168 70.5935C60.5045 73.2679 59.7706 75.9656 59.4266 78.6981C59.3464 79.3609 59.1285 79.4074 58.7731 78.8377L58.2456 77.9888C57.9245 77.4539 57.7869 76.826 57.8672 76.2098C58.2456 73.0818 59.484 70.6981 61.5824 69.0818C61.892 68.8493 62.1213 68.5586 62.2704 68.1981C63.3138 65.7214 63.8413 62.9888 65.0797 60.7446C68.2215 55.0819 71.501 49.6865 74.918 44.5586C75.3423 43.9307 75.927 43.64 76.6724 43.6981L79.4244 43.9074C79.9404 43.9423 80.2385 44.5005 79.9977 44.9539ZM85.9488 46.7679C85.1806 48.3609 83.8849 49.5353 82.0502 50.2912C81.3507 50.5819 81.2246 50.4074 81.6603 49.7912C82.6809 48.326 83.323 46.7912 83.6097 45.1981C83.7473 44.4656 84.16 44.2446 84.8366 44.5353L85.1691 44.6749C85.9718 45.0121 86.3272 45.9656 85.9488 46.7679Z" fill="black"/>
</g>
<defs>
<clipPath id="clip0_2077_446">
<rect width="100" height="100" fill="white" transform="translate(0.5)"/>
</clipPath>
</defs>
</svg>
