<svg width="146" height="141" viewBox="0 0 146 141" fill="none" xmlns="http://www.w3.org/2000/svg">
<g clip-path="url(#clip0_2478_4222)">
<path d="M57.4628 59.4008C62.3364 57.0984 67.3662 55.0812 72.0524 52.4515C82.6222 46.516 93.0151 40.2532 103.512 34.1699C104.512 33.5891 105.709 33.3673 106.824 32.9871C107.053 33.325 107.282 33.6524 107.501 33.9904C105.782 35.997 104.054 37.9931 102.304 40.0314C102.335 40.0737 102.471 40.3799 102.616 40.3799C104.168 40.4433 105.73 40.4539 107.282 40.4856C106.428 41.9641 105.876 43.7807 104.668 44.8579C99.3154 49.6738 93.7857 54.2786 88.3185 58.9678C87.4854 59.6754 86.6732 60.3935 86.2254 61.6292C94.2439 56.6126 102.304 51.6805 110.26 46.5583C114.311 43.9391 118.102 40.908 122.132 38.236C122.975 37.6763 124.329 37.898 125.443 37.7502C125.391 38.9859 125.704 40.4222 125.183 41.3938C124.537 42.5978 123.288 43.5483 122.153 44.3932C104.949 57.1723 87.5791 69.7191 70.5632 82.7517C59.8163 90.9789 49.6109 99.9349 39.1556 108.553C39.3847 108.88 39.6242 109.218 39.8533 109.546C45.6329 105.448 51.5582 101.551 57.1712 97.2312C78.5088 80.8084 99.9818 64.6075 123.59 51.5749C124.162 51.258 124.693 50.7089 125.287 50.6349C126.433 50.4871 127.62 50.6032 128.786 50.6032C128.349 51.6805 128.213 53.1274 127.432 53.7611C123.069 57.2991 118.372 60.4463 114.103 64.09C94.6188 80.6817 72.5314 93.5031 51.9644 108.5C44.8414 113.696 38.3225 119.748 31.5223 125.409C31.8452 125.852 32.1576 126.296 32.4804 126.739C37.958 123.138 43.4876 119.642 48.8923 115.925C77.6028 96.1856 106.261 76.3621 135.024 56.6971C136.763 55.5037 138.606 52.6838 141.439 55.0812C139.877 56.5915 138.492 58.3658 136.732 59.5803C118.945 71.9475 101.096 84.2303 83.2783 96.5553C82.164 97.3262 81.1643 98.2767 80.6332 99.9243C84.4238 97.5375 88.1727 95.0978 92.005 92.7849C97.0243 89.7644 102.044 86.7227 107.209 83.9451C109.937 82.4771 112.624 80.2064 116.217 81.8434C116.758 82.0969 117.841 81.2098 118.643 80.7979C124.1 78.0097 129.505 75.1054 135.034 72.4756C136.294 71.8736 137.971 72.1904 139.46 72.0743C138.596 73.5 138.044 75.3799 136.805 76.2671C129.89 81.1886 122.694 85.7088 115.821 90.6726C101.856 100.759 88.0478 111.066 74.1351 121.237C68.9178 125.05 63.5965 128.714 58.3271 132.442C58.5979 132.865 58.8686 133.277 59.129 133.699C64.1588 130.584 69.2302 127.553 74.1976 124.342C94.046 111.542 113.832 98.6464 133.722 85.9201C135.305 84.9062 137.159 82.2765 139.273 84.9379C139.47 85.1808 137.159 87.9901 135.628 89.0357C117.508 101.392 99.4299 113.833 81.0706 125.821C73.4478 130.795 65.2106 134.84 57.1712 139.128C53.7451 140.955 48.5279 139.867 46.9346 136.868C45.3309 133.837 46.7784 130.911 48.7882 128.524C51.3187 125.525 53.995 122.631 56.7963 119.896C58.4729 118.259 60.514 117.023 62.3989 115.608C61.9719 115.08 61.545 114.552 61.118 114.013C59.9829 114.636 58.8166 115.196 57.7231 115.893C49.1319 121.353 40.551 126.845 31.9597 132.305C31.085 132.865 30.1581 133.646 29.2105 133.72C27.5443 133.847 25.8469 133.52 24.1599 133.372C24.4515 131.714 24.2015 129.591 25.1283 128.471C28.8877 123.972 33.0115 119.79 37.479 114.974C34.7714 115.47 32.8136 116.072 30.835 116.104C29.5854 116.125 27.5756 115.629 27.2319 114.805C26.732 113.601 26.9403 111.531 27.7109 110.464C30.4497 106.631 33.553 103.061 36.5105 99.3962C37.3123 98.4035 38.1038 97.4107 38.4683 95.5942C37.4373 96.0589 36.3439 96.4074 35.3962 96.9988C28.971 101.002 22.577 105.057 16.1726 109.091C15.2874 109.651 14.4127 110.412 13.4442 110.57C12.1529 110.792 10.3617 111.014 9.5599 110.317C8.78928 109.641 8.5706 107.687 8.88301 106.504C9.38286 104.645 10.2993 102.786 11.4344 101.223C17.5993 92.7321 23.8891 84.3359 30.1373 75.908C30.9183 74.8624 31.7619 73.8697 32.2721 72.4967C24.9097 77.7034 17.568 82.9207 10.1847 88.1063C8.91425 89.004 7.61254 90.0495 6.16504 90.4509C4.96747 90.7783 3.08259 90.7149 2.33281 89.965C1.67675 89.3102 1.63509 87.0713 2.23908 86.2158C5.49856 81.6322 9.03921 77.2493 12.5174 72.8241C13.2151 71.937 14.0274 71.1449 14.9542 70.1204C9.95562 70.2366 6.592 75.7285 0.5 73.6162C6.48786 66.8042 11.9863 60.5625 18.2241 53.4653C15.2874 55.3981 13.1526 56.8027 11.0074 58.1968C9.2579 59.3268 7.61254 60.7526 5.69642 61.4391C4.37389 61.9143 2.68687 61.3652 1.16648 61.2807C1.37475 59.8549 1.11441 58.0489 1.87461 57.0562C5.35277 52.462 9.06004 48.0474 12.7985 43.6751C14.0586 42.1965 15.6623 41.0242 16.9848 39.8413C14.9021 38.9647 12.2362 38.6373 11.778 37.4439C11.2782 36.1343 12.4341 33.7052 13.5379 32.3111C20.6609 23.313 28.9502 15.5293 38.3849 9.05526C39.2597 8.45327 40.3115 8.12587 41.2799 7.67173C41.5611 7.98857 41.8527 8.29485 42.1339 8.61168C41.332 9.72062 40.676 10.9668 39.7179 11.9068C33.376 18.1485 26.9716 24.3163 20.5984 30.5263C20.1714 30.9382 19.8486 31.4768 19.9527 32.6702C25.1388 29.5441 30.3352 26.4496 35.5004 23.2918C45.7266 17.0184 55.9216 10.6711 66.1895 4.47167C67.1788 3.88024 68.6471 4.12315 69.8967 3.97529C69.1053 5.15815 68.5638 6.74234 67.4808 7.46051C58.5666 13.3959 49.4963 19.0885 40.5926 25.0344C29.3771 32.5224 18.7031 40.6651 10.8095 52.198C14.1107 50.1491 17.5368 48.2798 20.6921 46.0302C30.481 39.0598 40.1344 31.8887 49.9025 24.8866C62.8883 15.561 76.7906 7.8724 91.6092 1.91585C91.8487 1.8208 92.0779 1.66238 92.3278 1.59901C94.473 1.0287 97.191 -0.798396 98.4198 2.29605C99.5965 5.28489 96.4203 5.93969 94.5563 6.67897C78.0819 13.322 63.5131 23.144 49.5796 34.0643C49.0798 34.4551 48.6424 34.9198 48.1842 35.3528C48.3717 35.6485 48.5487 35.9442 48.7361 36.2505C66.0541 25.9744 83.3824 15.6983 100.7 5.42218C100.992 5.79183 101.294 6.15091 101.586 6.52056C99.4507 8.41102 97.3159 10.3015 94.8375 12.4877C99.0029 10.8718 102.804 9.40378 106.605 7.93576C106.907 8.56944 107.199 9.20311 107.501 9.82623C98.3365 15.4343 88.9225 20.6726 80.0709 26.7559C71.1776 32.8709 62.8467 39.8308 53.4431 47.0652C55.026 47.2342 55.4113 47.3926 55.63 47.2764C69.8551 39.0809 84.0697 30.8537 98.2948 22.6476C102.7 20.1023 107.094 17.5465 111.593 15.1808C112.541 14.6844 113.915 15.0541 115.092 15.0224C114.457 16.0151 114.04 17.3458 113.145 17.9478C107.376 21.771 101.461 25.3513 95.7122 29.2061C94.3064 30.1566 93.4108 31.8676 92.1924 33.1349C89.6098 35.8386 87.2876 38.9542 84.2884 41.077C76.0096 46.9279 67.4287 52.3564 58.9624 57.9433C62.503 55.1235 66.0124 52.2719 69.5843 49.5049C74.3538 45.8296 79.1857 42.2282 83.9864 38.5951C83.7365 38.2571 83.4762 37.9297 83.2262 37.5918C66.4706 47.5405 51.2354 59.5064 37.5831 73.5951C38.8848 73.2571 39.8949 72.5073 40.9051 71.7574C46.4347 67.6385 51.954 63.5197 57.4836 59.3902L57.4628 59.4008ZM14.3189 102.575C14.8605 103.145 15.3916 103.726 15.9331 104.297C37.5519 87.9901 59.1811 71.6835 80.7998 55.3875C60.8785 64.9137 43.019 77.6189 25.6907 91.0951C21.4836 94.3691 18.0887 98.7203 14.3189 102.575ZM117.768 84.959C97.0035 94.5064 78.3735 107.592 60.7015 122.209C79.7272 109.789 98.7426 97.3685 117.768 84.959ZM29.6375 57.4152C41.811 50.1702 54.6095 43.9074 64.8253 32.195C51.0792 38.8908 39.9262 47.5616 29.6375 57.4152ZM42.2172 58.1334C41.8319 57.6898 41.4466 57.2357 41.0613 56.7921C30.3456 65.22 17.0369 70.2789 8.92466 82.1075C9.15376 82.4137 9.38286 82.72 9.61197 83.0263C20.4838 74.7357 31.3453 66.4346 42.2172 58.144V58.1334ZM50.0691 84.0191C50.444 84.4837 50.8189 84.959 51.1938 85.4237C65.5542 73.6162 79.9043 61.8087 94.2647 50.0013C93.8794 49.5154 93.4941 49.0402 93.0984 48.5544C78.7588 60.3724 64.4087 72.1904 50.0691 84.0191ZM42.717 41.8902C42.4775 41.5839 42.2276 41.2671 41.9881 40.9608C30.8142 46.3154 22.1084 54.8911 13.2151 63.2134C13.5275 63.6147 13.8295 64.0266 14.1419 64.4279C23.6704 56.9189 33.1885 49.3993 42.717 41.8902ZM49.5796 93.9466C49.7879 94.1895 49.9858 94.443 50.1941 94.6859C55.4113 90.2291 60.639 85.7722 65.8562 81.3154C65.6479 81.0619 65.4293 80.7979 65.221 80.5444C60.0037 85.0118 54.7969 89.4792 49.5796 93.9466ZM92.2445 63.2979C92.0466 63.0127 91.8383 62.7276 91.6405 62.4318L77.103 72.8875C77.3321 73.2149 77.5716 73.5528 77.8007 73.8802C82.6118 70.3528 87.4229 66.8253 92.2445 63.2873V63.2979ZM40.4781 35.4478C40.7384 35.8175 40.9988 36.1977 41.2591 36.5673C45.4558 33.3145 49.6525 30.0616 53.8493 26.8087C53.6514 26.5447 53.4535 26.2807 53.2557 26.0166C48.9965 29.1639 44.7373 32.3006 40.4677 35.4478H40.4781Z" fill="black"/>
<path d="M79.1337 140.543C76.2282 140.406 75.0098 137.797 76.6031 135.79C78.2068 133.773 80.123 131.851 82.2682 130.446C96.5141 121.068 110.812 111.774 125.204 102.628C126.964 101.509 129.39 101.466 131.504 100.928C132.212 104.413 129.046 104.92 127.276 106.219C112.895 116.77 98.4094 127.194 83.9239 137.618C82.2578 138.822 80.4145 139.772 79.1337 140.543Z" fill="black"/>
<path d="M145.5 99.7134C138.846 106.071 132.264 112.514 125.506 118.766C123.027 121.058 120.247 123.043 117.414 124.87C116.581 125.409 115.113 124.923 113.947 124.902C114.269 123.772 114.249 122.23 114.988 121.565C121.59 115.64 128.317 109.852 135.034 104.054C137.304 102.09 139.606 100.157 142.011 98.3721C142.636 97.9074 143.698 98.0553 144.552 97.918C144.875 98.52 145.188 99.1114 145.51 99.7134H145.5Z" fill="black"/>
</g>
<defs>
<clipPath id="clip0_2478_4222">
<rect width="145" height="140" fill="white" transform="translate(0.5 0.542969)"/>
</clipPath>
</defs>
</svg>
