<svg width="165" height="166" viewBox="0 0 165 166" fill="none" xmlns="http://www.w3.org/2000/svg">
<g clip-path="url(#clip0_2202_2901)">
<path d="M158.418 48.6128C150.018 29.6218 136.082 15.876 116.608 7.38536C86.3132 -5.82791 49.909 -1.36654 25.4418 21.2919C4.10967 41.0365 -3.57713 70.9095 1.51726 99.5466C2.79337 106.691 4.68241 112.981 7.19444 118.407C13.5448 132.082 23.0705 143.125 35.7612 151.546C40.936 154.982 45.538 157.464 49.5874 159.001C60.2886 163.071 71.633 165.251 83.6204 165.522C107.042 166.045 130.193 155.997 145.416 137.95C153.857 127.943 160.428 116.076 162.99 103.285C166.557 85.5094 165.573 64.7601 158.418 48.6128ZM73.3009 148.571C73.2306 148.903 73.0296 149.044 72.6981 149.003C68.8496 148.501 65.1519 147.707 61.6049 146.622C61.3638 146.542 61.2734 146.25 61.4341 146.049C63.5945 143.467 64.9208 140.452 65.4132 137.016C65.5237 136.242 65.3529 135.7 64.9007 135.388C64.2275 134.926 63.3232 135.057 62.7906 135.67C60.4494 138.413 59.5049 141.638 59.9571 145.346C59.9972 145.677 59.8566 145.818 59.525 145.758C54.9531 144.944 52.0994 143.065 48.4419 141.086C37.4694 135.157 28.4562 124.928 22.8192 113.996C21.1814 110.811 19.835 106.962 18.8 102.44C17.7249 97.738 16.921 93.7187 16.4086 90.3727C16.1975 88.9861 16.2176 87.2276 16.4688 85.0874C16.509 84.7759 16.6899 84.6151 17.0014 84.6252L33.4401 84.8864C33.7516 84.8864 33.9224 85.0472 33.9325 85.3587C34.8368 106.008 46.7337 123.662 66.418 130.384C68.92 131.238 71.4923 131.731 74.1349 131.881C74.4665 131.902 74.6373 132.072 74.6474 132.404C74.8182 137.87 74.366 143.256 73.3009 148.571ZM40.112 78.958C40.4738 74.989 41.1771 71.422 42.2322 68.2367C43.5887 64.117 45.4174 59.9872 48.1807 56.4704C55.7871 46.8242 65.795 41.6193 78.2245 40.8556C95.0249 39.8307 108.309 45.5179 118.075 57.9273C126.124 68.1463 127.671 79.6614 125.4 92.3622C123.341 103.907 117.221 112.921 107.053 119.382C100.33 123.652 93.3469 125.712 86.1022 125.561C68.4075 125.189 52.1396 117.814 44.1715 101.958C40.6848 95.025 39.3383 87.3583 40.112 78.958ZM147.265 101.094C147.054 102.028 146.582 102.199 145.828 101.606C142.733 99.1849 139.076 97.8384 134.856 97.547C134.414 97.5169 134.142 97.7179 134.032 98.1499C133.539 100.109 134.192 101.426 135.991 102.109C138.754 103.154 141.749 103.646 144.974 103.586C145.366 103.576 145.667 103.928 145.597 104.309C144.783 108.61 143.125 112.79 140.613 116.849C140.382 117.231 139.86 117.292 139.548 116.98C136.946 114.398 133.77 112.368 130.043 110.911C129.611 110.74 129.108 110.891 128.837 111.273C128.525 111.705 128.395 112.247 128.445 112.88C128.475 113.232 128.616 113.524 128.867 113.765C131.399 116.206 134.102 118.377 136.986 120.296C137.327 120.537 137.498 120.959 137.408 121.361C136.745 124.456 132.876 127.35 130.877 129.601C130.676 129.822 130.324 129.812 130.143 129.58C127.631 126.335 124.797 123.501 121.642 121.06C121.331 120.829 121.05 120.849 120.778 121.13C120.125 121.833 119.743 122.517 119.633 123.17C119.542 123.742 119.814 124.375 120.447 125.079C122.738 127.591 124.988 129.912 127.189 132.052C127.671 132.514 127.671 132.967 127.179 133.419C125.019 135.398 122.818 137.127 120.577 138.584C120.346 138.734 120.035 138.654 119.904 138.403C118.608 135.901 116.93 133.499 114.89 131.198C114.126 130.344 113.413 130.374 112.75 131.309L112.328 131.902C111.604 132.916 111.655 133.881 112.489 134.805C113.875 136.343 115.041 138.262 115.975 140.573C116.106 140.885 116.036 141.156 115.764 141.367C112.117 144.381 107.103 145.999 102.581 147.114C95.0852 148.953 87.509 149.928 79.8423 150.028C79.2293 150.038 78.747 149.526 78.7772 148.913L79.6614 133.359C79.6714 133.137 79.8624 132.967 80.0834 132.977C89.0664 133.499 99.1648 132.856 107.173 127.792C122.296 118.216 130.615 104.209 132.133 85.7707C132.163 85.4391 132.344 85.2682 132.675 85.2582C138.011 85.1276 143.186 85.218 148.2 85.5295C148.752 85.5596 149.174 86.0319 149.154 86.5845C148.943 91.5383 148.32 96.3815 147.265 101.094ZM148.421 78.6365L133.188 78.9379C132.856 78.9379 132.665 78.7772 132.615 78.4456C131.359 70.7387 128.787 63.6347 124.888 57.1335C121.17 50.9439 116.578 46.0806 111.122 42.5437C92.6536 30.5663 66.639 31.0487 49.7281 45.8194C47.7084 47.5778 45.8596 49.6276 44.1614 51.9688C42.5437 54.1995 40.9963 56.601 39.5393 59.1834C36.5651 64.4586 34.8267 70.9296 34.3344 78.5963C34.3042 78.9882 34.0932 79.1791 33.7014 79.1691L17.2727 78.5561C16.8105 78.536 16.4588 78.1341 16.4889 77.6719C17.1019 69.2616 18.9407 61.0925 22.0054 53.1746C22.6384 51.5367 23.6131 51.3056 24.9193 52.4712C27.562 54.8124 30.697 56.9627 34.3344 58.9322C35.1382 59.3642 36.143 59.1633 36.7057 58.4398C37.0876 57.9474 37.2282 57.3948 37.1278 56.7618C37.0775 56.4402 36.9167 56.1488 36.6655 55.9378C33.7114 53.476 30.6869 51.386 27.6021 49.6678C27.3007 49.497 26.9792 49.3965 26.6275 49.3664C26.2457 49.3262 25.9442 49.1855 25.7131 48.9343C25.472 48.6831 25.4117 48.3917 25.5423 48.0601C26.8083 44.8045 28.7476 41.8303 31.3702 39.1474C31.5912 38.9163 31.9831 38.9867 32.1238 39.2781C32.5961 40.2829 33.1788 41.2374 34.053 42.0111C36.4746 44.1112 38.9666 46.3117 41.5188 48.6027C42.3628 49.3563 43.3174 49.5271 44.3724 49.1152C45.0859 48.8439 45.3371 48.1706 45.1361 47.1156C45.0758 46.8242 44.9351 46.5629 44.7241 46.362C39.7604 41.559 35.9421 38.7455 33.2592 37.9216C32.9377 37.8211 32.8473 37.6201 32.9879 37.3187C34.5454 33.9325 37.7809 31.5611 40.8556 29.5113C41.147 29.3204 41.3882 29.3606 41.5992 29.6419C44.3322 33.3999 47.2864 37.0273 50.4515 40.514C51.4463 41.6092 52.2803 41.4183 52.9435 39.9211C53.1444 39.479 53.1344 38.9766 52.9234 38.5345C50.7128 34.0631 48.4218 30.1041 46.0404 26.6576C45.4275 25.7834 45.5782 25.07 46.5127 24.5274C58.7915 17.4234 72.1153 14.4592 86.474 15.655C86.9463 15.6951 87.2879 16.0971 87.2578 16.5693L86.2128 31.5611C86.1424 32.4654 86.8458 33.2492 87.7501 33.2894L88.3128 33.3195C89.7798 33.3899 90.6239 32.7066 90.8349 31.2597L92.8546 17.4737C92.9048 17.1521 93.0857 17.0114 93.4072 17.0416C102.742 17.966 111.042 21.1613 118.306 26.6174C118.789 26.9792 118.859 27.6825 118.457 28.1347C115.865 31.0688 113.755 34.3947 112.137 38.1225C111.835 38.8158 112.298 39.6096 113.061 39.68C113.855 39.7503 114.548 39.469 115.141 38.8259C117.744 35.9722 119.884 33.0281 121.572 29.9936C121.914 29.3807 122.738 29.24 123.26 29.7123L128.847 34.7062C129.51 35.299 129.52 35.8918 128.867 36.5048C125.541 39.6197 122.446 43.1566 119.593 47.1256C119.261 47.5878 119.372 47.819 119.944 47.8089C124.325 47.7386 130.244 41.6595 133.067 38.5847C133.308 38.3235 133.72 38.3436 133.941 38.6149C136.182 41.4083 138.262 44.0208 139.91 47.2864C142.151 51.7478 144.733 56.3799 146.19 60.8714C147.968 66.3477 149.003 71.9445 149.315 77.6719C149.345 78.3049 149.054 78.6265 148.421 78.6365Z" fill="black"/>
<path d="M75.3407 30.8178C73.6727 31.0187 72.0952 29.3206 71.8138 27.0196C71.5325 24.7186 72.6478 22.6788 74.3058 22.4678C75.9738 22.2668 77.5513 23.965 77.8327 26.266C78.114 28.567 76.9987 30.6068 75.3407 30.8178Z" fill="black"/>
<path d="M61.414 33.7015C59.9872 34.1135 58.3494 32.757 57.7666 30.677C57.1737 28.6071 57.857 26.5875 59.2738 26.1855C60.7006 25.7736 62.3385 27.1301 62.9213 29.21C63.5141 31.2799 62.8308 33.2996 61.414 33.7015Z" fill="black"/>
<path d="M101.466 33.4905C100.22 32.9479 99.8179 31.089 100.572 29.3406C101.335 27.5923 102.963 26.6075 104.209 27.1501C105.455 27.6927 105.857 29.5516 105.103 31.3C104.34 33.0484 102.712 34.0331 101.466 33.4905Z" fill="black"/>
<path d="M139.679 51.9892C140.302 53.1648 138.835 55.1543 136.403 56.4204C133.981 57.6864 131.51 57.7769 130.897 56.6012C130.274 55.4256 131.741 53.4361 134.172 52.17C136.594 50.904 139.066 50.8135 139.679 51.9892Z" fill="black"/>
<path d="M141.729 61.9266C142.221 62.9515 140.754 64.6797 138.463 65.7951C136.162 66.9004 133.901 66.9607 133.399 65.9358C132.906 64.9108 134.363 63.1826 136.664 62.0672C138.965 60.9619 141.226 60.9016 141.729 61.9266Z" fill="black"/>
<path d="M28.8582 71.0201C27.2002 70.6584 25.6126 70.0053 24.4671 69.1512C23.9044 68.7292 23.7537 68.0961 24.015 67.242C24.7083 64.9812 28.3457 65.3329 30.0539 65.8855C31.32 66.2975 31.8123 67.1516 31.531 68.4579L31.33 69.4225C31.0386 70.779 30.2147 71.3115 28.8582 71.0201Z" fill="black"/>
<path d="M30.6166 95.2559C30.697 95.909 30.2448 96.5018 29.5917 96.5922L27.9036 96.8133C24.9495 97.2052 22.4173 96.4616 22.2465 95.1453L22.1762 94.6731C22.0054 93.3568 24.2561 91.9701 27.2002 91.5782L28.8984 91.3471C29.5414 91.2668 30.1443 91.7189 30.2247 92.372L30.6166 95.2559Z" fill="black"/>
<path d="M36.0225 110.831C36.6555 111.956 35.078 114.036 32.4956 115.473C29.9233 116.9 27.3309 117.151 26.6978 116.026C26.0648 114.9 27.6424 112.82 30.2247 111.384C32.797 109.957 35.3894 109.705 36.0225 110.831Z" fill="black"/>
<path d="M45.1763 120.527C46.1208 121.492 45.2165 123.903 43.1566 125.913C41.0968 127.933 38.6752 128.787 37.7306 127.832C36.7861 126.868 37.6905 124.456 39.7503 122.446C41.8102 120.427 44.2318 119.573 45.1763 120.527Z" fill="black"/>
<path d="M49.3965 139.116C48.8037 136.403 50.2104 134.132 51.8784 132.153C52.2803 131.67 52.8732 131.399 53.4961 131.389C54.4809 131.379 55.1038 131.64 55.3651 132.173C55.9981 133.509 55.8976 134.645 55.0536 135.599C53.466 137.398 51.9588 138.724 50.5219 139.598C50.0798 139.87 49.507 139.618 49.3965 139.116Z" fill="black"/>
<path d="M99.6371 138.915C99.5667 138.302 100.009 137.76 100.622 137.689L101.868 137.549C103.285 137.398 104.571 138.584 104.752 140.211L104.822 140.814C105.003 142.442 103.998 143.889 102.591 144.04L101.335 144.18C100.732 144.251 100.18 143.809 100.109 143.196L99.6371 138.915Z" fill="black"/>
<path d="M92.8445 143.698C92.8847 145.024 91.8397 146.119 90.5134 146.15L89.6894 146.17C88.3731 146.2 87.2779 145.155 87.2377 143.839L87.1674 140.925C87.1272 139.598 88.1722 138.503 89.4985 138.473L90.3225 138.453C91.6388 138.423 92.734 139.468 92.7742 140.784L92.8445 143.698Z" fill="black"/>
<path d="M115.624 59.8064C98.3207 36.5451 60.0274 37.992 46.794 64.1171C39.8709 77.7725 40.6848 96.1303 50.3611 108.037C60.6604 120.708 78.3752 124.888 94.1608 122.014C97.537 121.401 100.541 120.306 103.174 118.739C112.75 113.031 118.799 106.42 121.703 95.1356C124.978 82.4549 123.431 70.2967 115.624 59.8064ZM97.2958 115.051C91.6387 117.251 86.1022 118.106 80.6662 117.603C74.6876 117.051 69.5128 115.654 65.1218 113.393C58.8216 110.147 54.2296 104.932 51.3458 97.728C47.0553 86.9966 47.829 76.6069 53.677 66.5487C66.1065 45.1362 96.1504 45.0458 110.901 63.5544C114.518 68.1062 116.488 74.0245 116.819 81.3194C117.472 96.1404 111.594 109.484 97.2958 115.051Z" fill="black"/>
<path d="M104.46 60.3589C98.3911 55.3047 91.6588 52.6721 84.2534 52.4511C72.467 52.0893 60.9518 58.068 55.556 68.3371C49.2257 80.415 49.9592 92.1511 57.7565 103.556C60.3992 107.424 63.8658 110.218 68.1764 111.956C76.7776 115.433 87.2276 116.216 95.8188 112.679C104.892 108.942 111.263 102.209 113.604 92.3722C116.427 80.4853 114.056 68.3472 104.46 60.3589ZM74.4866 107.143C56.8421 101.988 53.9784 82.1935 63.8457 68.5883C69.7439 60.4594 82.8366 56.7919 92.0608 60.4896C99.7275 63.5643 106.369 69.2013 108.098 77.5512C112.408 98.3408 93.6383 112.74 74.4866 107.143Z" fill="black"/>
<path d="M98.1901 67.1315C92.0909 62.228 85.0271 60.2586 77.3704 62.5093C68.6688 65.0716 61.9365 72.4972 60.9016 81.5806C59.7862 91.2771 64.1773 100.521 73.6225 104.058C82.505 107.394 92.7038 105.927 99.627 99.4462C109.293 90.3928 108.479 75.381 98.1901 67.1315ZM89.5086 98.1098C81.46 101.365 72.3665 97.6375 69.2013 89.7899C66.0261 81.9424 69.9851 72.9493 78.0336 69.6937C86.0821 66.4381 95.1757 70.166 98.3408 78.0136C101.516 85.8611 97.5571 94.8542 89.5086 98.1098Z" fill="black"/>
<path d="M83.9921 70.6382C76.6872 70.6382 70.7688 76.5565 70.7688 83.8615C70.7688 91.1665 76.6872 97.0848 83.9921 97.0848C91.2971 97.0848 97.2155 91.1665 97.2155 83.8615C97.2155 76.5565 91.2971 70.6382 83.9921 70.6382ZM91.056 84.585C90.5837 88.9056 88.1521 91.5282 83.761 92.4526C80.8873 93.0555 78.4456 90.2521 77.0991 87.4185C75.2503 83.54 75.9637 80.3346 79.2494 77.8025C82.4347 75.3407 86.2932 78.4858 86.464 81.872C86.4841 82.2438 86.2329 82.5854 85.8711 82.6859C84.3941 83.0677 83.2184 83.1581 82.3543 82.9672C81.5203 82.7763 81.0179 83.0878 80.8471 83.9218L80.0332 87.7803C79.8523 88.6343 80.1638 89.2372 80.9777 89.5789C83.9419 90.8248 86.7554 89.9105 87.8305 86.7252C88.7951 83.8414 88.4937 80.9274 86.9362 77.9733C86.7252 77.5714 86.8157 77.4809 87.2176 77.702C90.1014 79.2997 91.3775 81.6007 91.056 84.585Z" fill="black"/>
</g>
<defs>
<clipPath id="clip0_2202_2901">
<rect width="165" height="165.543" fill="white"/>
</clipPath>
</defs>
</svg>
