<svg width="126" height="141" viewBox="0 0 126 141" fill="none" xmlns="http://www.w3.org/2000/svg">
<g clip-path="url(#clip0_2209_99)">
<path d="M67.238 9.48446C67.2991 9.88601 67.0316 10.2567 66.6265 10.3184L65.205 10.5347C64.8075 10.5964 64.4407 10.3184 64.3795 9.91689L63.1184 1.60029C63.0573 1.19875 63.3248 0.82809 63.7299 0.766314L65.1514 0.550098C65.5489 0.488322 65.9157 0.766314 65.9769 1.16786L67.238 9.48446Z" fill="black"/>
<path d="M49.5599 8.38032C49.8809 9.13708 49.5293 10.0097 48.7803 10.334L48.5128 10.4498C47.7638 10.7741 46.9002 10.4189 46.5792 9.66217L44.2557 4.14866C43.9347 3.3919 44.2863 2.51932 45.0353 2.19499L45.3028 2.07916C46.0518 1.75484 46.9155 2.11005 47.2365 2.86681L49.5599 8.38032Z" fill="black"/>
<path d="M80.4832 8.68899L81.5991 4.21023C81.7137 3.77008 82.1494 3.48436 82.6003 3.57703L83.8767 3.83957C84.3964 3.93996 84.6945 4.49594 84.5034 4.99787L82.9672 9.0056C82.8678 9.27587 82.6385 9.47664 82.3634 9.53842L81.4997 9.73919C80.8806 9.88591 80.3227 9.31448 80.4832 8.68899Z" fill="black"/>
<path d="M33.2193 16.4886C32.4627 16.9828 31.0029 16.0639 29.9711 14.4422C28.9317 12.8129 28.7024 11.0986 29.4514 10.6044C30.208 10.1102 31.6678 11.0291 32.6996 12.6507C33.7391 14.2801 33.9683 15.9944 33.2193 16.4886Z" fill="black"/>
<path d="M95.6009 20.0405C95.1729 20.6197 94.3551 20.7432 93.7819 20.3108L93.6749 20.2259C93.094 19.7934 92.9717 18.9672 93.4074 18.388L98.039 12.0869C98.467 11.5077 99.2848 11.3842 99.858 11.8166L99.965 11.9015C100.546 12.334 100.668 13.1602 100.232 13.7394L95.6009 20.0405Z" fill="black"/>
<path d="M21.0442 29.3071L16.1603 25.2376C15.7476 24.8978 15.633 24.311 15.8852 23.8399L16.382 22.8747C16.7183 22.2337 17.559 22.0793 18.1016 22.5503L21.7014 25.7009C21.8314 25.809 21.9384 25.9558 21.9995 26.1179L22.7867 28.0021C23.2377 29.0832 21.946 30.0561 21.0442 29.3071Z" fill="black"/>
<path d="M113.814 24.5504C114.234 25.0755 114.15 25.8555 113.631 26.2802L110.986 28.4269C110.459 28.8516 109.694 28.7667 109.274 28.2416L108.785 27.6315C108.365 27.1064 108.449 26.3265 108.968 25.9018L111.613 23.7551C112.14 23.3304 112.904 23.4153 113.325 23.9404L113.814 24.5504Z" fill="black"/>
<path d="M17.6889 43.6468C17.3297 44.3109 16.4966 44.558 15.8317 44.195L10.0078 40.9595C9.34285 40.5966 9.09828 39.7549 9.46514 39.0831L9.52629 38.975C9.8855 38.3109 10.7186 38.0638 11.3835 38.4267L17.2074 41.6622C17.8724 42.0252 18.1169 42.8669 17.7501 43.5387L17.6889 43.6468Z" fill="black"/>
<path d="M121.656 42.0019C121.915 42.7278 121.549 43.5232 120.83 43.7934L114.196 46.249C113.485 46.5193 112.69 46.1409 112.423 45.4151L112.392 45.3301C112.133 44.6042 112.499 43.8089 113.218 43.5386L119.852 41.083C120.563 40.8127 121.358 41.1911 121.625 41.917L121.656 42.0019Z" fill="black"/>
<path d="M12.9121 57.438C12.7822 58.2102 12.0485 58.7276 11.2842 58.5963L2.28081 57.0056C1.51652 56.8743 1.00444 56.1407 1.13437 55.3608L1.1573 55.2372C1.28723 54.465 2.02095 53.9477 2.78524 54.0789L11.7886 55.6697C12.5529 55.801 13.065 56.5345 12.935 57.3145L12.9121 57.438Z" fill="black"/>
<path d="M125.492 59.8476C125.576 60.5889 125.049 61.2685 124.308 61.3534L118.767 62.0021C118.033 62.087 117.36 61.5542 117.276 60.8052L117.253 60.5735C117.169 59.8322 117.697 59.1526 118.438 59.0677L123.979 58.4191C124.713 58.3341 125.385 58.8669 125.469 59.616L125.492 59.8476Z" fill="black"/>
<path d="M9.4804 73.6006C9.51098 74.0408 9.18997 74.4346 8.75433 74.4655L1.46298 75.0987C1.02733 75.1373 0.645185 74.813 0.599327 74.3651L0.499969 73.1682C0.469397 72.728 0.7904 72.3342 1.22605 72.3033L8.52504 71.6701C8.96068 71.6315 9.34283 71.9558 9.38869 72.4037L9.48805 73.6006H9.4804Z" fill="black"/>
<path d="M124.193 76.7045C124.086 77.4845 123.368 78.025 122.596 77.9092L117.895 77.2142C117.131 77.0984 116.596 76.3802 116.703 75.6003L116.726 75.4458C116.833 74.6659 117.551 74.1254 118.323 74.2412L123.024 74.9362C123.788 75.052 124.323 75.7702 124.216 76.5501L124.193 76.7045Z" fill="black"/>
<path d="M5.83477 88.6197C5.39913 88.7123 4.97112 88.4189 4.90234 87.9788L4.72655 86.8668C4.61955 86.1795 4.90998 85.7934 5.5902 85.693C6.81307 85.5231 8.02065 85.4459 9.2053 85.4537C11.1695 85.4768 11.33 86.0328 9.70209 87.137C8.76966 87.7625 7.478 88.2567 5.83477 88.6197Z" fill="black"/>
<path d="M119.821 95.3768C119.5 96.095 118.667 96.4193 117.956 96.095L112.989 93.8479C112.278 93.5236 111.957 92.6819 112.278 91.9637L112.331 91.8402C112.652 91.122 113.485 90.7977 114.196 91.122L119.164 93.3691C119.875 93.6934 120.196 94.5351 119.875 95.2533L119.821 95.3768Z" fill="black"/>
<path d="M17.4826 96.8438C17.8571 97.5079 17.6201 98.3496 16.9629 98.7279L10.8332 102.234C10.1759 102.604 9.34286 102.373 8.96835 101.709L8.90721 101.601C8.53271 100.936 8.76964 100.095 9.42693 99.7163L15.5566 96.2106C16.2138 95.8399 17.0469 96.0716 17.4214 96.7357L17.4826 96.8438Z" fill="black"/>
<path d="M112.163 111.678C111.659 112.311 110.749 112.412 110.122 111.902L104.688 107.493C104.062 106.983 103.962 106.056 104.467 105.431L104.535 105.346C105.04 104.713 105.949 104.612 106.576 105.122L112.01 109.531C112.637 110.041 112.736 110.968 112.232 111.593L112.163 111.678Z" fill="black"/>
<path d="M24.9573 108.65C25.4923 109.26 25.4388 110.195 24.8274 110.735L19.8136 115.199C19.2098 115.739 18.2851 115.677 17.7501 115.067L17.666 114.975C17.131 114.365 17.1845 113.43 17.7959 112.89L22.8097 108.426C23.4135 107.886 24.3382 107.948 24.8733 108.558L24.9573 108.65Z" fill="black"/>
<path d="M97.9931 122.218C98.4441 122.843 98.3065 123.716 97.6874 124.171L97.6263 124.218C97.0072 124.666 96.1436 124.527 95.6926 123.909L91.3132 117.793C90.8623 117.167 90.9999 116.295 91.6189 115.839L91.6801 115.793C92.2992 115.345 93.1628 115.484 93.6137 116.102L97.9931 122.218Z" fill="black"/>
<path d="M31.3927 127.631C30.5902 127.307 30.3379 126.025 30.8347 124.774C31.3315 123.523 32.3862 122.774 33.1964 123.106C33.9989 123.43 34.2511 124.712 33.7543 125.963C33.2575 127.214 32.2028 127.963 31.3927 127.631Z" fill="black"/>
<path d="M83.5098 132.781C83.7544 133.53 83.3569 134.341 82.6156 134.588L82.4551 134.642C81.7137 134.889 80.9112 134.488 80.6666 133.739L78.8706 128.272C78.626 127.523 79.0234 126.712 79.7648 126.465L79.9253 126.411C80.6666 126.164 81.4691 126.565 81.7137 127.314L83.5098 132.781Z" fill="black"/>
<path d="M48.2453 136.628C48.1001 137.23 47.5116 137.593 46.9155 137.446L46.1894 137.269C45.6009 137.122 45.234 136.527 45.3792 135.925L46.6174 130.728C46.7626 130.126 47.3511 129.763 47.9473 129.909L48.6733 130.087C49.2618 130.234 49.6287 130.828 49.4835 131.431L48.2453 136.628Z" fill="black"/>
<path d="M62.7287 139.554L62.5988 131.493C62.5988 130.937 63.0268 130.481 63.577 130.473L64.7235 130.45C65.2891 130.45 65.7476 130.914 65.7324 131.485L65.526 139.454C65.5107 139.948 65.1438 140.358 64.6623 140.427L63.8522 140.535C63.2637 140.612 62.7363 140.157 62.7287 139.554Z" fill="black"/>
<path d="M110.589 67.168C110.069 55.5 106.316 45.446 99.3383 37.0058C91.5349 27.5695 81.1252 22.3726 68.1246 21.4228C50.8592 20.1564 35.0078 28.6815 25.844 42.9517C20.4633 51.3224 17.7119 60.2027 17.5972 69.585C17.475 79.1139 20.0048 87.6467 25.1943 95.1757C30.7736 103.276 37.6217 108.983 45.7308 112.28C58.5022 117.485 71.2506 117.292 83.9684 111.701C90.1133 108.998 95.4098 104.998 99.8504 99.6931C107.562 90.4884 111.139 79.6467 110.589 67.168ZM84.7327 88.5734C80.2157 93.3456 74.4606 95.6544 67.9947 96.7819C65.2509 97.2606 63.2561 96.9672 60.3518 96.5348C57.1188 96.0483 54.3368 95.307 51.9904 94.3108C34.5034 86.8436 33.869 64.5656 44.1793 50.89C47.1066 47.0058 52.0286 43.917 56.6832 42.4807C65.4496 39.778 73.7116 41.0367 81.4692 46.249C95.0124 55.3456 95.5398 77.1294 84.7327 88.5734Z" fill="black"/>
<path d="M70.6544 89.8091C79.5355 85.9945 85.0613 77.6624 84.5798 67.9945C84.1365 58.9674 78.4425 52.3033 69.8977 49.7937C62.3542 47.5775 55.6819 48.4578 49.8886 52.4346C49.5141 52.6894 49.002 52.5504 48.8033 52.1334C48.6657 51.8477 48.6275 51.5543 48.6886 51.2686C48.9103 50.2416 49.3306 49.5157 49.9573 49.0987C52.6171 47.3381 55.1622 46.2879 57.5926 45.9558C75.9662 43.4153 93.308 57.5543 86.4676 77.5234C82.5544 88.9365 70.1729 96.3342 58.1123 93.7087C57.6003 93.6006 57.0805 93.2917 56.5608 92.7821C56.3698 92.6045 56.2857 92.3883 56.301 92.1334C56.3239 91.6933 56.5608 91.4925 56.9965 91.5389C62.0867 92.1103 66.6418 91.5311 70.6544 89.8091Z" fill="black"/>
<path d="M72.0607 64.9444C66.8482 55.6162 53.0986 56.373 51.3178 67.7398C50.4312 73.4 52.319 77.678 56.9812 80.5738C59.9848 82.4502 62.9044 82.8054 66.4584 81.9251C67.8418 81.5776 69.3321 81.3537 70.9295 81.2378C78.6641 80.705 81.2016 72.3189 79.5584 65.8247C76.6464 54.3035 64.6699 50.2572 54.3749 54.1259C41.6953 58.8904 38.8827 79.3073 51.4477 86.2031C54.8029 88.0487 57.5773 89.0448 59.7785 89.207C65.0979 89.5931 69.5232 88.6432 73.0542 86.3575C74.4987 85.4232 74.3612 84.929 72.6492 84.8672C69.3321 84.7591 65.289 86.7127 61.7733 86.3421C58.7773 86.0255 55.9264 84.9985 53.2132 83.2456C46.5944 78.9753 45.3028 70.844 48.5969 63.7089C52.4566 55.3537 63.149 53.6626 70.3334 58.3498C74.1472 60.8363 76.2031 64.4348 76.4935 69.1529C76.7763 73.7861 74.5599 78.0409 70.1881 79.7938C69.5538 80.0487 69.485 79.9406 69.9665 79.4541C73.788 75.6548 74.7586 69.7707 72.0607 64.9444ZM67.2533 75.6008L66.3667 76.4502C63.9133 78.8054 60.0383 78.6973 57.7149 76.2185L56.6449 75.0757C54.3138 72.6046 54.4131 68.6896 56.8742 66.3344L57.7607 65.485C60.2141 63.1297 64.0891 63.2379 66.4125 65.7166L67.4825 66.8595C69.8136 69.3305 69.7143 73.2456 67.2533 75.6008Z" fill="black"/>
<path d="M62.4918 68.4187C62.6981 67.8086 62.9962 67.3916 63.386 67.1677C64.028 66.797 64.8458 67.0055 65.2356 67.6387C66.0992 69.0364 65.8012 70.187 64.3337 71.075C63.4242 71.631 62.2625 70.9824 62.2396 69.909C62.2319 69.438 62.316 68.936 62.4918 68.4187Z" fill="black"/>
</g>
<defs>
<clipPath id="clip0_2209_99">
<rect width="125" height="140" fill="white" transform="translate(0.5 0.54248)"/>
</clipPath>
</defs>
</svg>
