<svg width="136" height="141" viewBox="0 0 136 141" fill="none" xmlns="http://www.w3.org/2000/svg">
<g clip-path="url(#clip0_2209_127)">
<path d="M65.6629 11.3087L63.0461 23.5375C62.9428 24.0225 62.5554 24.3863 62.0734 24.4729L59.9644 24.8366C59.5168 24.9146 59.138 24.5075 59.2327 24.0572C61.2212 15.154 62.6329 9.37732 63.4679 6.73581C64.1307 4.63993 65.0173 2.85582 66.1192 1.39217C67.7375 -0.764342 70.69 1.62601 71.129 3.54868C72.4977 9.49857 74.3054 15.5437 76.5435 21.6842C77.0255 23.0179 76.6124 23.9359 75.2953 24.4383C75.0801 24.5162 74.8477 24.5768 74.6067 24.6201C73.4016 24.8366 72.6527 24.343 72.3514 23.1478C71.1032 18.0986 69.5279 12.6424 67.6428 6.76179C67.4878 6.2768 67.3415 6.2768 67.2124 6.77045C67.0574 7.3334 66.8767 7.905 66.6787 8.47661C66.4979 8.99625 66.4721 9.51589 66.584 10.0355C67.5136 14.2273 68.34 18.575 69.0545 23.0872C69.1664 23.7627 68.8909 24.0139 68.2281 23.8493C67.6858 23.7108 67.1521 23.6675 66.627 23.7108C66.0417 23.7627 65.5682 23.2517 65.6543 22.6715C66.1794 18.8694 66.4463 15.3012 66.4549 11.9495C66.4549 11.5771 66.3516 11.3 66.145 11.1354C65.8953 10.9276 65.7318 10.9882 65.6629 11.3087Z" fill="black"/>
<path d="M17.6989 35.9654C20.4363 41.0492 22.3731 45.8732 23.5179 50.4374C23.957 52.2128 24.043 55.2873 23.759 59.6523C23.7331 60.1373 23.4749 60.3279 23.0015 60.2153L21.5553 59.8775C21.3057 59.8169 21.0647 59.8515 20.8322 59.9814C19.4291 60.7436 18.3531 62.008 16.8467 62.4064C13.9716 63.1599 10.1669 62.8395 7.04214 62.8481C6.62896 62.8481 6.3535 63.2725 6.50844 63.6622C6.94745 64.7361 7.89434 65.2991 8.72071 66.0526C12.5427 69.5342 16.8123 73.1543 21.5811 75.2329C21.8738 75.3628 22.046 75.588 22.1062 75.9084C22.3214 77.1556 22.2956 78.4114 22.0201 79.6845C21.9599 79.953 21.7791 80.1782 21.5381 80.2907C20.7462 80.6632 19.937 80.4813 19.1192 79.7624C15.9256 76.9477 12.6976 74.3408 9.44379 71.9245C5.3894 68.9193 2.65204 66.5549 1.21449 64.8314C0.00936806 63.3764 0.362298 61.2199 2.08391 60.2932C2.8242 59.8862 3.56449 59.6697 4.30478 59.6263C9.74507 59.3405 21.7361 60.1546 19.6615 50.7318C18.6888 46.3235 16.8984 42.2097 14.2987 38.3903C13.3777 37.0306 11.9057 35.7921 10.8383 34.3198C10.6747 34.086 10.6059 33.8262 10.6317 33.5404C11.0535 29.6171 15.6846 30.154 18.3962 31.3232C23.8795 33.6789 29.0271 36.4937 35.1732 37.7495C36.2579 37.966 37.2047 36.9787 36.9379 35.9047C35.3454 29.3832 33.7271 22.8704 32.1002 16.3662C31.1275 12.4776 35.4745 10.2691 38.4013 12.287C41.9047 14.7207 45.4426 17.648 49.015 21.069C50.5042 22.498 52.2258 23.5113 54.0507 24.4033C54.5069 24.6198 54.6188 25.2174 54.2745 25.5898C52.5615 27.4346 50.8141 27.5991 49.0322 26.0662C46.4584 23.8577 43.9707 21.5973 41.5604 19.2935C40.2778 18.0637 38.8317 17.0851 37.222 16.3662C36.9551 16.245 36.7399 16.2276 36.585 16.3142C36.4128 16.4095 36.3181 16.6087 36.3525 16.8079C37.3511 22.5759 38.5046 27.9456 39.8216 32.9254C40.1573 34.2332 39.9163 35.2898 39.0813 36.1039C37.8676 37.2731 36.4989 38.5549 34.9666 39.9319C34.5104 40.339 33.8992 40.5122 33.3053 40.391C27.9683 39.3257 23.0015 37.6022 18.4134 35.2292C17.3718 34.6836 17.1394 34.9347 17.6989 35.9654Z" fill="black"/>
<path d="M88.6894 28.1016C88.5431 28.0064 88.5087 27.8851 88.5861 27.7292C90.566 23.3902 92.8729 19.5968 95.5156 16.3491C96.4453 15.2059 96.5916 15.3011 95.9546 16.6349C93.9489 20.8093 92.1499 24.8539 90.7726 29.1582C90.7295 29.2881 90.6434 29.3228 90.5315 29.2448L88.6894 28.1016Z" fill="black"/>
<path d="M42.2748 29.5476C40.7684 26.6289 39.7957 23.1387 38.8488 19.8823C38.7627 19.5965 38.8144 19.5705 39.0038 19.8043C40.3724 21.5798 41.8014 23.3812 43.282 25.2259C43.8243 25.9014 44.4096 26.118 45.081 26.6289C45.3135 26.8022 45.3565 27.0187 45.2188 27.2698C44.7195 28.1965 43.9706 29.0193 42.9807 29.7208C42.6794 29.9373 42.4384 29.8854 42.2748 29.5476Z" fill="black"/>
<path d="M111.234 54.802C110.373 55.0445 109.495 54.3863 108.677 53.8753C108.419 53.7108 108.281 53.4076 108.324 53.1045C108.72 50.515 109.297 48.4537 110.649 46.0287C112.878 42.0448 115.142 38.0089 115.504 33.2975C115.615 31.8858 115.099 31.5914 113.954 32.4228C110.253 35.1249 106.646 37.3854 103.125 39.2041C102.325 39.6198 101.412 39.7757 100.396 39.6631C100.069 39.6285 99.9402 39.4466 100.018 39.1262C100.25 38.1648 100.741 37.3767 101.507 36.7618C105.269 33.7306 109.306 30.9938 113.627 28.5428C117.096 26.5768 120.927 28.3956 119.98 32.8212C118.904 37.8704 116.519 42.7203 113.937 47.3019C113.171 48.6616 111.957 54.6028 111.234 54.802Z" fill="black"/>
<path d="M105.914 45.934L107.472 43.5869C107.627 43.3618 107.679 43.1106 107.627 42.8421C107.429 41.7595 107.834 40.625 108.841 39.4471C110.192 37.8622 111.415 36.4765 112.517 35.2813C113.403 34.3113 113.636 34.4499 113.205 35.7057C112.646 37.3079 111.88 38.8236 110.898 40.2526C108.893 43.1712 107.18 46.1852 105.742 49.2943C105.647 49.4935 105.38 49.5282 105.234 49.355L102.523 46.1245C102.023 45.5356 102.152 44.6349 102.789 44.1932L106.138 41.8808C106.302 41.7682 106.508 41.7509 106.689 41.8375C107.007 42.002 107.076 42.2099 106.895 42.4784C106.198 43.509 105.742 44.6176 105.535 45.7868C105.423 46.4363 105.535 46.4796 105.914 45.934Z" fill="black"/>
<path d="M30.9294 43.4829L31.136 43.3444C31.2824 43.2491 31.4373 43.2491 31.5836 43.3444C31.9194 43.5609 31.9882 43.89 31.7816 44.349C31.4373 45.1198 30.7917 45.9339 29.8534 46.8C29.6468 46.9905 29.5005 47.2243 29.4058 47.4928C29.0357 48.5581 28.5106 49.5194 27.8219 50.3855C27.6325 50.6193 27.426 50.628 27.2108 50.4288C24.5853 48.0817 23.5007 45.1198 23.9483 41.5256C23.9913 41.2225 23.9225 40.9367 23.7417 40.6769C23.165 39.8195 22.4505 39.04 21.5897 38.3385C21.5639 38.3212 21.5639 38.2865 21.5811 38.2605L21.7188 38.096C21.8221 37.9747 22.0029 37.9661 22.1148 38.07C23.6987 39.6116 25.7043 40.8761 28.1232 41.8634C28.984 42.2185 29.7243 42.7294 30.3527 43.4136C30.5249 43.6042 30.7142 43.6302 30.9294 43.4829Z" fill="black"/>
<path d="M116.382 108.923C116.364 108.135 116.192 107.408 115.874 106.749C113.834 102.601 111.716 99.1107 109.521 96.296C107.997 94.3473 106.784 92.5979 105.888 91.0476C105.458 90.2941 105.518 89.4367 106.06 88.484C106.207 88.2329 106.422 88.1203 106.715 88.1636C107.808 88.3108 108.617 88.6746 109.745 88.7352C113.007 88.9084 116.08 88.7439 118.947 88.2329C119.472 88.1376 119.515 87.9298 119.076 87.618C117.311 86.3708 115.443 85.6953 113.481 85.5827C111.294 85.4528 109.151 84.7773 107.455 83.5215C106.878 83.0971 107.128 82.1704 107.842 82.1011L110.95 81.7893C111.243 81.7634 111.363 81.5988 111.32 81.3043L110.115 73.2672C110.055 72.8428 110.227 72.6177 110.649 72.5917C112.198 72.4791 113.67 72.0807 115.065 71.3879C119.059 69.4046 123.113 67.2654 127.219 64.9876C128.243 64.4247 129.01 63.8531 129.517 63.2728C129.793 62.9697 129.724 62.8051 129.319 62.7791C123.492 62.424 117.724 61.558 112.017 60.1809C110.907 59.9124 110.123 59.2629 109.659 58.2149C109.409 57.652 109.202 57.0544 109.022 56.4222C108.738 55.3916 109.082 55.1058 110.037 55.5734C112.56 56.8119 115.047 57.5654 117.501 57.8425C122.312 58.3795 127.116 58.9424 131.928 59.54C132.504 59.6093 133.296 59.9644 134.312 60.5966C137.239 62.424 134.106 65.3254 132.065 66.4253C127.469 68.8936 122.967 71.3446 118.551 73.7869C116.416 74.9647 114.574 76.5323 113.033 78.481C112.353 79.3297 112.654 80.6028 113.644 81.0532C118.344 83.1924 123.363 85.245 128.7 87.2109C129.328 87.4448 129.87 87.7912 130.327 88.2589C130.525 88.4667 130.628 88.7179 130.628 89.0037C130.619 90.5193 129.827 91.2122 128.252 91.0736C124.723 90.7618 121.391 90.0083 117.862 91.0736C115.478 91.7838 113.197 91.879 111.019 91.3681C110.528 91.2468 110.399 91.4114 110.64 91.8617C111.63 93.6718 113.257 94.9536 114.402 96.6511C116.691 100.02 118.757 103.519 120.599 107.148C121.434 108.793 122.467 110.976 121.658 112.725C120.651 114.916 118.439 114.605 116.433 113.851C109.796 111.34 104.201 107.416 98.6576 102.766C98.0722 102.281 97.9259 101.449 98.3046 100.791L98.4768 100.479C99.1224 99.3619 99.9832 99.1367 101.076 99.8209C104.967 102.263 108.505 104.74 111.682 107.252C112.775 108.109 114.204 108.776 115.968 109.252C116.252 109.33 116.39 109.218 116.382 108.923Z" fill="black"/>
<path d="M22.6743 67.8023C22.9584 67.8889 23.2511 67.6724 23.2511 67.3693V65.7151C23.2338 65.1955 22.9842 64.875 22.4763 64.7538C21.65 64.5632 20.0403 64.3121 17.6472 64.0003C17.191 63.9397 16.8467 63.6972 16.6142 63.2641C16.4249 62.909 16.5282 62.7099 16.9241 62.6665C19.0073 62.4587 21.013 62.5799 22.9498 63.039C23.2683 63.1082 23.5437 63.3248 23.6987 63.6192C24.3443 64.8577 25.0501 67.2394 23.6987 68.2267C22.7776 68.8936 21.9426 68.1055 21.1076 68.0275C19.739 67.8976 18.1895 67.8716 16.4679 67.9409C15.6846 67.9755 15.2025 67.0922 15.6501 66.4426C16.3474 65.4293 17.5267 65.1955 18.5338 65.845C19.8853 66.7197 21.2712 67.378 22.6743 67.8023Z" fill="black"/>
<path d="M109.409 63.2372C109.426 63.1073 109.538 63.0121 109.667 63.0294L109.762 63.0467C113.326 63.523 116.132 64.4844 116.046 65.1946L116.02 65.3245C115.934 66.0346 112.964 66.2165 109.4 65.7402H109.306C109.185 65.7142 109.091 65.5929 109.108 65.463L109.409 63.2372Z" fill="black"/>
<path d="M110.037 66.9788C112.473 67.282 114.72 67.0741 116.769 66.3553C117.001 66.2773 117.191 66.26 117.32 66.3206C117.414 66.3639 117.492 66.4246 117.552 66.5112C117.681 66.7104 117.638 66.8749 117.44 66.9962C115.142 68.4079 112.68 69.1007 110.055 69.0747C109.667 69.0747 109.486 68.8755 109.504 68.4858L109.538 67.4119C109.547 67.0914 109.719 66.9442 110.037 66.9788Z" fill="black"/>
<path d="M20.4621 70.3136C20.0833 70.2184 20.0747 70.0885 20.4362 69.9412C20.9355 69.742 21.4434 69.8373 21.9685 70.2444C22.3214 70.5215 22.2784 70.6341 21.8307 70.5735C21.3573 70.5128 20.9011 70.4262 20.4621 70.3136Z" fill="black"/>
<path d="M15.2026 110.43C15.3919 110.473 15.5813 110.473 15.7707 110.43C21.5639 108.914 27.4776 106.601 33.5205 103.492C34.872 102.799 35.7069 103.198 36.0426 104.679C36.0857 104.861 36.0857 105.051 36.0599 105.259C35.9221 106.272 35.4143 107.035 34.5362 107.546C27.5895 111.607 20.3846 113.911 12.9128 114.465C11.1998 114.595 9.71924 113.998 8.48829 112.69C8.2903 112.473 8.22144 112.231 8.2817 111.945C8.55715 110.785 9.11668 109.823 9.95166 109.052C12.8181 106.411 15.8223 103.25 18.9643 99.5517C20.7289 97.4645 22.132 95.4552 23.1736 93.5239C23.3974 93.0995 23.2769 92.9089 22.8035 92.9349C16.6573 93.316 10.6489 92.5798 4.77822 90.7351C2.55735 90.0336 2.5057 87.8165 3.96046 86.2922C4.73518 85.4694 6.35349 84.7766 8.824 84.2136C12.4652 83.3735 15.9687 82.5508 19.3344 81.7453C19.782 81.6414 20.2469 81.8492 20.4621 82.2476C20.6601 82.62 20.9355 82.8192 21.2885 82.8626C21.9341 82.9318 22.5022 82.5854 23.122 82.5075C23.4663 82.4555 23.5782 82.5941 23.4663 82.9318C22.924 84.5167 21.9685 85.4867 20.617 85.8332C17.5784 86.604 14.1352 87.1236 10.2874 87.3748C9.96887 87.3921 9.68481 87.5826 9.53847 87.8684L9.41796 88.1023C9.31466 88.3015 9.44378 88.5353 9.65898 88.5613C15.4178 89.2455 21.0646 89.2195 26.5996 88.4747C27.0989 88.4054 27.5551 88.7518 27.6326 89.2541C28.0027 91.8783 27.4604 94.1734 25.9884 96.148C23.9742 98.8588 22.1406 101.552 20.4879 104.228C19.0676 106.524 17.0877 108.23 15.0907 109.945C14.9185 110.092 14.9874 110.378 15.2026 110.43Z" fill="black"/>
<path d="M102.428 96.6851C101.963 96.304 101.662 95.7671 101.593 95.1695C101.515 94.3987 101.731 93.7491 102.256 93.2381C102.488 93.0129 102.858 93.013 103.082 93.2468C106.637 96.9016 109.943 100.626 112.99 104.428C113.842 105.476 113.73 105.588 112.663 104.766C110.494 103.094 107.085 100.401 102.428 96.6851Z" fill="black"/>
<path d="M23.5265 103.613C24.8952 102.635 25.2567 100.981 26.5307 99.8894C28.347 98.3391 30.0084 98.443 31.532 100.192C32.0485 100.79 31.6783 101.734 30.895 101.812C27.865 102.115 25.3084 103.094 23.2338 104.739C22.571 105.268 21.736 105.675 20.7289 105.978C20.5998 106.021 20.4965 105.978 20.4276 105.848C20.3846 105.77 20.3846 105.692 20.419 105.614C20.4448 105.562 20.4965 105.519 20.5567 105.484C21.5036 104.973 22.4935 104.35 23.5265 103.613Z" fill="black"/>
<path d="M97.6935 124.166C97.3578 120.165 96.4453 116.345 94.9561 112.708C93.8371 109.98 93.0882 107.156 92.3823 104.316C92.1154 103.276 92.7611 102.22 93.8026 101.969C94.4999 101.804 95.0938 102.176 95.5931 103.077C96.5658 104.853 97.3491 106.697 97.9603 108.611C99.6475 113.929 101.206 119.229 102.17 124.746C102.385 125.993 102.35 127.136 102.049 128.176C101.679 129.458 100.336 130.185 99.0708 129.795C97.7279 129.38 96.3076 128.669 94.8184 127.673C89.7138 124.27 84.9105 120.364 80.4257 115.964C79.8834 115.436 79.9781 114.535 80.6151 114.128L82.1646 113.132C82.9135 112.656 83.5677 112.768 84.11 113.479C85.8488 115.739 88.1041 117.783 90.8673 119.61C93.0882 121.074 94.7839 123.066 97.1598 124.504C97.5557 124.737 97.7365 124.625 97.6935 124.166Z" fill="black"/>
<path d="M33.8992 124.642C34.0283 124.936 34.2436 125.023 34.5448 124.893C40.8029 122.269 46.3034 118.822 51.0378 114.544C51.6318 114.007 52.5012 113.981 53.6461 114.474C54.1281 114.682 54.2573 115.176 54.0248 115.955C53.8269 116.605 53.4825 117.168 52.9833 117.627C46.7683 123.369 39.8388 127.526 32.1948 130.116C31.3685 130.401 30.3097 130.202 29.0185 129.518C27.5981 128.765 27.3915 127.361 28.4159 125.309C31.3857 119.316 33.7357 114.405 35.4487 110.586C36.275 108.758 36.869 106.732 37.2305 104.515C37.4457 103.181 38.0483 102.964 39.0468 103.874C39.0641 103.891 39.3223 104.134 39.8302 104.593C40.8287 105.502 41.1128 106.593 40.691 107.875C39.6494 111.062 38.6078 113.747 36.8174 117.151C35.6897 119.307 34.7428 121.542 33.9853 123.871C33.8562 124.244 33.8304 124.503 33.8992 124.642Z" fill="black"/>
<path d="M88.9907 108.152L92.1671 115.401C92.3823 115.894 92.0724 116.457 91.5387 116.535C91.2202 116.579 90.9275 116.501 90.6607 116.284C88.6378 114.647 87.0711 112.577 85.9607 110.074C85.6766 109.425 85.9262 108.671 86.5374 108.325L87.6651 107.701C88.2676 107.364 88.7067 107.519 88.9907 108.152Z" fill="black"/>
<path d="M43.6521 112.872C43.919 113.219 44.1772 113.193 44.4269 112.794C44.6076 112.509 44.8659 112.37 45.2016 112.361C45.4943 112.353 45.7783 112.396 46.0538 112.491C46.3379 112.595 46.4498 112.933 46.2862 113.184C44.3666 116.198 41.8875 118.433 38.8661 119.896C38.1688 120.234 37.9967 120.061 38.3668 119.368C39.2018 117.792 40.1487 116.172 41.2075 114.501C42.1543 113.011 42.3093 111.66 42.2404 110.006C42.1802 108.577 42.6278 108.395 43.5919 109.443C43.9793 109.859 44.2719 110.517 44.4699 111.409C44.5818 111.937 44.3838 112.24 43.876 112.318C43.4886 112.379 43.4111 112.561 43.6521 112.872Z" fill="black"/>
<path d="M67.1005 132.064C67.9527 128.478 68.7532 124.347 69.4935 119.662C69.7518 118.06 69.7432 115.591 70.4835 113.539C70.5867 113.253 70.7847 113.114 71.086 113.106L74.8133 113.045C75.4417 113.036 75.7257 113.833 75.2265 114.214C74.2624 114.959 73.6942 115.972 73.5307 117.263C72.5408 124.858 71.482 131.224 70.3371 136.342C70.0014 137.841 69.3386 139.053 68.34 139.971C67.5825 140.673 66.4291 140.725 65.6027 140.11C64.6816 139.434 63.993 138.499 63.5281 137.304C61.0404 131.007 59.0089 124.538 57.4423 117.895C57.2098 116.934 57.4164 115.938 58.062 114.898C58.2084 114.665 58.4322 114.543 58.7162 114.552C59.6976 114.569 60.3173 115.054 60.5756 116.016C62.0562 121.524 63.9585 126.902 66.2827 132.142C66.627 132.93 66.9025 132.904 67.1005 132.064Z" fill="black"/>
<path d="M66.3688 115.063C66.7045 115.063 66.9886 115.323 66.9972 115.661V115.748C67.1521 120.632 66.6873 124.608 65.9556 124.625H65.7662C65.0431 124.66 64.3287 120.719 64.1737 115.834V115.748C64.1651 115.41 64.432 115.124 64.7677 115.115L66.3688 115.063Z" fill="black"/>
<path d="M102.17 49.623C99.9057 46.0808 97.5299 43.4306 95.0422 41.6552C91.16 38.8924 86.9679 36.2422 82.6466 34.181C80.8992 33.3496 79.0829 32.7606 77.1891 32.4056C66.4721 30.4309 54.1023 31.2537 46.071 39.6199C43.6005 42.2008 41.5088 44.6258 39.7958 46.8949C35.3454 52.7842 33.4774 60.4489 33.1159 68.2262C32.5133 81.1219 36.9207 91.6706 46.3379 99.855C48.6276 101.847 51.4855 103.241 54.2659 103.908C66.6012 106.844 79.849 103.882 88.4657 94.5806C97.1856 85.1665 100.973 72.9549 98.7437 60.3796C96.7638 49.2419 86.8129 41.4646 76.2853 38.4161C70.1649 36.6406 64.0016 36.8225 57.7952 38.953C52.5787 40.7371 48.2144 44.825 44.3666 49.0947C36.7141 57.5995 36.0771 72.5825 41.4829 82.3864C45.8042 90.2416 50.6849 97.5599 60.4292 98.2961C64.2254 98.5819 66.9541 98.4606 68.6241 97.941C74.6842 96.0356 81.8202 92.0344 85.7369 86.8033C93.5702 76.3585 95.3004 64.4761 88.2849 53.0353C87.4585 51.6842 85.6078 49.9175 82.7413 47.7436C80.7701 46.254 78.7902 45.8383 76.4832 45.1454C71.1893 43.5432 65.1895 44.2187 59.9214 45.6391C55.5743 46.7996 52.4496 49.3026 49.3249 52.4031C45.3738 56.3437 43.7641 60.3623 43.6522 66.2342C43.523 73.0588 45.2533 78.9394 48.8428 83.876C52.8197 89.3409 57.3131 92.5714 62.323 93.5587C62.7104 93.6366 62.7104 93.7146 62.323 93.7925C59.138 94.468 55.273 92.3722 52.9316 90.3802C44.6765 83.3824 41.1558 74.3319 42.3782 63.2289C43.1529 56.1445 46.8285 51.0347 52.3032 46.9209C58.0276 42.6252 65.7748 41.6465 72.842 42.4953C75.8118 42.8503 78.5836 43.6991 81.166 45.0588C83.9206 46.5052 86.0554 48.0987 87.5704 49.8222C94.2847 57.4263 96.1785 66.9444 93.071 76.5144C88.8272 89.5401 78.4287 99.2314 64.4578 100.253C57.2012 100.782 51.1326 98.2528 46.2432 92.6493C41.328 87.0285 36.5075 78.3851 36.5247 70.7204C36.5333 64.7272 37.2478 59.7647 38.6595 55.8414C39.4428 53.6589 40.8201 51.4331 42.7741 49.164C46.0366 45.3879 49.2646 42.4087 52.4754 40.2175C55.3075 38.2862 58.8798 36.9351 63.2096 36.1643C70.0875 34.9518 76.6812 36.0344 82.9823 39.4207C87.6565 41.9323 91.0739 44.2447 93.2173 46.3666C96.6347 49.7356 99.7594 54.4124 100.465 59.2797C102.772 75.1114 98.4596 90.2676 85.6078 99.7424C77.1289 106.004 65.6629 107.598 55.2558 105.779C46.4928 104.255 39.0641 96.7631 35.4057 88.9339C29.182 75.6397 30.8434 60.1717 37.9106 47.6657C38.8575 45.9942 40.097 44.3573 41.6207 42.7378C43.8243 40.3994 45.9935 37.8185 48.5243 35.6273C49.454 34.8219 50.4009 34.1983 51.3564 33.7653C53.8097 32.6567 57.0205 31.704 60.9888 30.9073C66.9714 29.7034 73.195 29.9026 79.6596 31.5048C81.8547 32.0505 83.7829 32.9165 85.4614 34.1204C88.0008 35.9478 90.807 37.5847 93.8715 39.031C94.1297 39.1609 94.3966 39.1696 94.6634 39.057C95.9374 38.5633 96.6777 37.602 96.8843 36.1903C98.0206 28.6035 100.534 22.1686 102.652 15.1621C103.521 12.2868 104.313 7.69662 100.698 7.00376C99.5872 6.78725 98.4424 7.07305 97.2717 7.84385C92.6836 10.8664 88.655 15.0928 84.6351 19.5877C83.5677 20.7829 82.1818 21.5451 81.0627 22.8875C80.4085 23.6669 80.7873 24.8708 81.7772 25.1219L84.308 25.7455C84.592 25.8234 84.7986 25.7282 84.9363 25.4683C85.4442 24.533 85.9779 23.5976 86.744 22.8355C89.4384 20.168 92.038 17.5178 94.5257 14.8936C95.3435 14.0362 96.3076 13.3174 97.4266 12.7371C98.0722 12.408 98.8211 12.9277 98.7437 13.6465C98.5801 15.2747 98.2444 16.8336 97.7537 18.3146C95.903 23.9094 93.4411 30.1018 92.8213 35.9391C92.7094 36.9524 92.3651 37.0477 91.7711 36.2163C89.645 33.2197 86.8473 30.8033 83.3869 28.9759C81.2349 27.8414 78.4287 27.1052 74.9768 26.7675C71.6455 26.447 68.5208 26.447 65.6113 26.7848C61.1007 27.3044 56.1338 28.4476 50.7194 30.2231C48.6879 30.8899 46.6822 32.0072 45.1327 33.4275C39.5978 38.5287 34.0628 44.4699 30.895 52.074C27.5982 59.9985 26.3156 68.1049 27.0472 76.4105C28.1405 88.7347 34.76 97.9237 44.4613 105.64C46.5531 107.312 48.5932 108.507 50.5816 109.226C56.151 111.252 62.9944 111.53 68.4347 111.036C73.8061 110.551 79.1517 108.784 84.4629 105.744C89.929 102.618 94.0437 99.3613 96.7896 95.9923C101.946 89.67 104.976 82.0919 105.888 73.258C106.741 65.0304 106.689 56.6815 102.17 49.623ZM61.445 89.0724C51.3047 83.5469 45.9763 72.9809 49.2388 61.6527C50.4353 57.4869 52.9833 54.3864 56.8655 52.3338C62.8137 49.19 68.7446 48.2113 74.6756 49.3892C76.5779 49.7702 78.4545 50.6363 80.3138 51.9787C81.9838 53.1912 83.4041 54.6462 84.5834 56.335C91.0739 65.6886 86.744 78.3072 79.0657 85.6688C74.4776 90.0771 67.2124 92.2163 61.445 89.0724Z" fill="black"/>
<path d="M83.2405 57.6772C77.542 49.1637 64.1995 49.3629 56.2801 54.2648C50.7451 57.6772 48.8944 65.5151 49.9274 71.3957C51.4424 80.0217 60.5067 90.1201 69.9669 88.5438C78.2392 87.1668 83.9636 77.8046 85.6249 69.9926C86.5632 65.567 85.7713 61.4619 83.2405 57.6772ZM79.1 75.2237C77.301 79.7013 73.9524 82.3168 69.0372 83.0616C64.8968 83.6939 61.4708 82.2995 58.7764 78.8785C56.7105 76.2543 54.9373 73.8813 54.4208 70.4517C53.603 64.8915 55.755 60.7257 60.8768 57.9456C64.5697 55.9364 68.34 55.3907 72.1792 56.3088C81.6997 58.5779 82.1559 67.5677 79.1 75.2237Z" fill="black"/>
<path d="M71.2668 57.4436C65.6888 56.4389 56.8827 60.0418 55.9531 66.0956C55.0664 71.8376 57.7866 76.2199 62.0131 79.6929C63.1149 80.6022 64.3975 81.1739 65.8609 81.3904C75.3556 82.8107 77.2494 76.7309 78.8332 69.0316C79.9781 63.4541 76.862 58.4569 71.2668 57.4436ZM72.7732 74.2799C69.7431 78.6449 66.3344 78.9481 62.5468 75.1807C59.0175 71.6731 59.0692 65.3941 63.4248 62.6746C66.5754 60.7086 72.2997 60.5354 73.8922 64.7185C75.192 68.1482 74.8219 71.3353 72.7732 74.2799Z" fill="black"/>
<path d="M65.99 73.4664C64.0618 72.5483 63.4507 69.7682 64.6214 67.274C65.7921 64.7797 68.3228 63.4979 70.251 64.4246C72.1792 65.3426 72.7904 68.1227 71.6197 70.617C70.4404 73.1113 67.9269 74.393 65.99 73.4664Z" fill="black"/>
</g>
<defs>
<clipPath id="clip0_2209_127">
<rect width="135" height="140" fill="white" transform="translate(0.5 0.542969)"/>
</clipPath>
</defs>
</svg>
