<svg width="155" height="140" viewBox="0 0 155 140" fill="none" xmlns="http://www.w3.org/2000/svg">
<g clip-path="url(#clip0_2205_6)">
<path d="M85.0013 15.6171C84.9709 17.014 83.806 18.1295 82.3979 18.0993H81.8103C80.4023 18.0692 79.2778 16.9135 79.3082 15.5065L79.5615 2.48234C79.5919 1.08546 80.7568 -0.0300398 82.1649 0.00010874H82.7524C84.1605 0.0302573 85.285 1.18595 85.2546 2.59289L85.0013 15.6171Z" fill="black"/>
<path d="M63.2116 21.7773C61.2565 16.7827 59.5952 11.3459 58.2175 5.48699C57.8427 3.89916 58.339 2.64297 59.6965 1.72846C60.0308 1.49732 60.3752 1.35663 60.7297 1.30638C62.7456 1.03505 63.9511 1.88926 64.336 3.86901C65.2579 8.57219 66.4127 13.6573 67.8005 19.1343C67.9221 19.6267 67.9119 20.1392 67.76 20.6216C67.1927 22.3903 66.1493 23.1541 64.6298 22.9129C63.9916 22.8124 63.4547 22.3802 63.2116 21.7773Z" fill="black"/>
<path d="M100.743 16.6823C100.287 18.039 98.7984 18.7625 97.4308 18.3103L96.8534 18.1194C95.4859 17.6571 94.7464 16.1898 95.2123 14.8332L98.1197 6.32121C98.5755 4.96452 100.065 4.24096 101.432 4.69319L102.01 4.88413C103.377 5.34641 104.117 6.81364 103.651 8.17032L100.743 16.6823Z" fill="black"/>
<path d="M110.833 32.7312C110.114 33.7663 108.685 34.0276 107.652 33.314L106.822 32.7412C105.778 32.0277 105.515 30.6208 106.234 29.5857L117.185 13.8381C117.904 12.803 119.332 12.5417 120.365 13.2552L121.196 13.828C122.239 14.5415 122.503 15.9485 121.784 16.9836L110.833 32.7312Z" fill="black"/>
<path d="M22.5395 17.034C22.7522 16.6722 23.0055 16.3707 23.2992 16.1195C25.0112 14.6925 26.6219 14.793 28.1313 16.421C32.5885 21.2046 37.4509 26.8122 42.7186 33.2338C43.5188 34.2187 43.3973 35.6457 42.4451 36.4798L42.0804 36.7914C41.3307 37.4446 40.2063 37.4546 39.4364 36.8115C37.0153 34.7714 34.9387 32.8118 33.2064 30.9425C30.0763 27.5559 26.1357 24.2596 22.9143 20.7724C21.8506 19.6167 21.719 18.3706 22.5395 17.034Z" fill="black"/>
<path d="M132.623 28.3097C133.605 29.3951 133.504 31.0733 132.41 32.0582L122.452 40.8515C121.348 41.8263 119.656 41.7258 118.674 40.6405L118.562 40.5199C117.579 39.4346 117.681 37.7563 118.775 36.7714L128.733 27.9781C129.837 27.0033 131.529 27.1038 132.511 28.1891L132.623 28.3097Z" fill="black"/>
<path d="M32.9632 50.9511C32.0413 52.1269 30.3496 52.3379 29.1644 51.4234L12.5916 38.6706C11.4165 37.7561 11.2038 36.0778 12.1155 34.902L12.4599 34.4598C13.3818 33.284 15.0735 33.073 16.2587 33.9875L32.8315 46.7404C34.0066 47.6549 34.2193 49.3331 33.3076 50.5089L32.9632 50.9511Z" fill="black"/>
<path d="M147.291 41.8362C147.99 43.1326 147.484 44.7506 146.177 45.4339L125.886 56.0864C124.579 56.7698 122.949 56.2774 122.26 54.981L122.199 54.8704C121.5 53.574 122.006 51.9561 123.313 51.2727L143.604 40.6202C144.911 39.9368 146.541 40.4293 147.23 41.7256L147.291 41.8362Z" fill="black"/>
<path d="M0.11156 78.6273C0.780144 75.4014 7.04052 74.8989 9.67433 74.5572C15.0331 73.8638 20.4426 73.4819 25.8824 73.3915C27.483 73.3613 28.4453 74.1351 28.7594 75.6928C28.81 75.9039 28.81 76.1249 28.7594 76.346C28.4858 77.6223 27.9084 78.3258 27.017 78.4564C19.4498 79.5116 11.984 80.6472 4.6397 81.8632C2.09705 82.2753 -0.587414 82.0039 0.11156 78.6273Z" fill="black"/>
<path d="M120.993 79.321C120.801 78.8888 120.791 78.4768 120.953 78.0748C121.52 76.6578 122.28 75.9343 123.222 75.9041C133.241 75.6127 142.763 75.9443 151.779 76.889C153.339 77.0498 154.382 77.7432 154.909 78.9592C155.051 79.2707 155.03 79.6325 154.858 79.934C153.795 81.753 152.285 82.5871 150.33 82.4363C144.343 81.9841 135.743 81.7128 124.519 81.6223C122.847 81.6123 121.672 80.8384 120.993 79.321Z" fill="black"/>
<path d="M32.4668 88.7976C33.1354 90.2347 32.4972 91.933 31.0486 92.5963L13.1792 100.746C11.7306 101.41 10.0186 100.777 9.34999 99.3395L9.28921 99.2089C8.62063 97.7718 9.25882 96.0734 10.7074 95.4102L28.5768 87.26C30.0254 86.5967 31.7374 87.2299 32.406 88.6669L32.4668 88.7976Z" fill="black"/>
<path d="M134.243 96.5862C131.326 95.541 128.652 94.8074 129.391 91.3001C129.462 90.9283 129.695 90.7173 130.07 90.657C131.052 90.5062 132.035 90.5364 133.018 90.7374C136.543 91.4509 141.142 93.0889 146.825 95.6717C148.334 96.355 148.79 97.4705 148.192 99.0081C148.162 99.0986 148.122 99.1991 148.091 99.2895C147.605 100.536 146.217 101.179 144.941 100.757C141.405 99.5809 137.9 97.8826 134.243 96.5862Z" fill="black"/>
<path d="M138.154 116.876C137.272 118.092 135.55 118.374 134.325 117.489L115.189 103.751C113.963 102.877 113.69 101.169 114.571 99.9528L114.784 99.6613C115.665 98.4453 117.387 98.1639 118.613 99.0483L137.749 112.786C138.974 113.66 139.248 115.369 138.366 116.585L138.154 116.876Z" fill="black"/>
<path d="M42.9108 100.988C44.1062 102.294 44.015 104.304 42.7082 105.49L25.4567 121.177C24.1499 122.363 22.1138 122.273 20.9185 120.976L20.807 120.856C19.6117 119.549 19.7028 117.539 21.0096 116.353L38.2611 100.666C39.5679 99.4802 41.604 99.5707 42.7994 100.867L42.9108 100.988Z" fill="black"/>
<path d="M51.947 126.644C51.3493 127.971 49.7893 128.574 48.4521 127.991L48.0976 127.84C46.7503 127.247 46.1425 125.7 46.7402 124.373L52.646 111.098C53.2437 109.771 54.8037 109.168 56.1409 109.751L56.4954 109.902C57.8427 110.495 58.4505 112.042 57.8528 113.369L51.947 126.644Z" fill="black"/>
<path d="M104.876 129.117C105.434 130.554 104.714 132.172 103.256 132.724L103.104 132.785C101.655 133.337 100.024 132.614 99.467 131.177L92.7407 113.781C92.1835 112.344 92.9027 110.726 94.3615 110.173L94.5134 110.113C95.962 109.56 97.5929 110.284 98.1501 111.721L104.876 129.117Z" fill="black"/>
<path d="M67.6687 137.598C67.2939 139.256 65.6326 140.301 63.9611 139.92L63.7585 139.879C62.087 139.507 61.0335 137.859 61.4185 136.201L65.9972 116.022C66.3721 114.364 68.0334 113.318 69.7048 113.7L69.9074 113.74C71.5789 114.112 72.6324 115.76 72.2475 117.419L67.6687 137.598Z" fill="black"/>
<path d="M125.309 126.795C126.231 127.83 126.129 129.418 125.076 130.343L124.954 130.453C123.901 131.368 122.3 131.267 121.378 130.222L112.342 120.012C111.421 118.976 111.522 117.389 112.575 116.464L112.697 116.354C113.751 115.439 115.351 115.54 116.273 116.585L125.309 126.795Z" fill="black"/>
<path d="M76.6542 35.1934C58.0251 35.1934 42.9211 49.9059 42.9211 68.0654C42.9211 86.2249 58.0251 100.937 76.6542 100.937C95.2834 100.937 110.387 86.2249 110.387 68.0654C110.387 49.9059 95.2834 35.1934 76.6542 35.1934ZM87.3414 91.2597C84.1505 92.5058 80.3416 93.2595 75.935 93.5309C68.4084 93.9831 62.0467 91.6717 56.8398 86.5967C49.9109 79.8334 47.3075 71.9344 49.0397 62.8999C52.3421 45.5645 71.883 36.138 87.9391 43.0923C97.4107 47.1925 102.699 54.8904 103.823 66.1861C104.958 77.532 97.5829 87.2499 87.3414 91.2597Z" fill="black"/>
<path d="M95.4151 80.537C92.4065 84.3859 87.0072 89.0992 81.7801 89.6117C81.4255 89.6419 81.1419 89.5313 80.9089 89.27C80.4935 88.8077 80.4024 88.2751 80.6354 87.6822C80.7873 87.2903 81.1419 86.9586 81.699 86.6772C83.1172 85.9738 84.4341 85.2301 85.6396 84.4362C92.5382 79.9039 96.0229 73.6932 96.0938 65.8144C96.0938 63.7543 96.0938 61.5836 96.0432 59.3124C96.0128 57.3929 96.6409 57.1517 97.9476 58.5687C99.0315 59.7445 99.7103 61.4429 99.9939 63.6839C100.794 69.995 99.2645 75.6127 95.4151 80.537Z" fill="black"/>
</g>
<defs>
<clipPath id="clip0_2205_6">
<rect width="155" height="140" fill="white"/>
</clipPath>
</defs>
</svg>
