<svg width="180" height="180" viewBox="0 0 180 180" fill="none" xmlns="http://www.w3.org/2000/svg">
<g clip-path="url(#clip0_2225_125)">
<path d="M111.097 1.59254L101.177 38.4149C101.128 38.6079 100.991 38.7624 100.805 38.8396C99.8369 39.2739 99.338 38.5597 99.2891 36.6968C99.2695 36.0405 99.3282 35.3938 99.4554 34.7568C100.659 28.7822 101.862 23.242 103.623 17.0647C105.149 11.7078 106.607 6.41853 107.986 1.1968C108.241 0.221953 108.867 -0.154475 109.865 0.0578691L110.197 0.125433C110.863 0.270213 111.273 0.9362 111.097 1.59254Z" fill="black"/>
<path d="M68.1199 2.59641C68.521 2.49989 68.9319 2.74119 69.0297 3.14658L69.0591 3.2624C73.8333 22.2768 77.1302 37.8262 76.4454 37.9903L75.4573 38.2316C74.7627 38.4053 70.3309 23.1262 65.5665 4.12143L65.5372 3.99595C65.4393 3.60022 65.6839 3.19484 66.085 3.09832L68.1199 2.59641Z" fill="black"/>
<path d="M54.2085 7.05553L69.7148 38.1253C69.9789 38.6561 69.7148 39.3028 69.1669 39.5248L68.4038 39.8337C67.9049 40.0267 67.3375 39.8144 67.0929 39.3511L50.9409 8.19446C50.6181 7.57673 50.9996 6.83353 51.6942 6.71771L53.103 6.49571C53.5628 6.41849 54.003 6.65014 54.2085 7.05553Z" fill="black"/>
<path d="M121.379 44.9687C120.91 45.2004 120.538 45.2776 120.274 45.1907C119.814 45.0459 119.599 44.5247 119.844 44.1097C121.213 41.7836 122.71 39.5829 124.344 37.5077C130.223 30.0468 137.111 21.4275 144.996 11.6501C145.691 10.7814 146.591 10.4725 147.696 10.7331L148.244 10.8586C149.173 11.0806 149.535 12.2002 148.909 12.9145C145.964 16.2444 142.873 19.4489 140.026 22.9525C134.567 29.6607 129.118 36.3881 123.678 43.1155C123.043 43.907 122.28 44.5247 121.379 44.9687Z" fill="black"/>
<path d="M117.476 20.5973C114.678 26.6491 112.036 32.7009 109.552 38.7624C109.395 39.1581 109.004 39.3994 108.573 39.3801L107.663 39.3222C107.076 39.2836 106.871 38.994 107.057 38.4439C110.227 28.8112 113.68 20.0761 118.611 11.7561C119.071 10.9839 119.716 10.762 120.567 11.0805L121.105 11.2832C122.113 11.6596 122.309 12.2966 121.712 13.1846C120.078 15.5686 118.66 18.0396 117.476 20.5973Z" fill="black"/>
<path d="M90.4452 36.3299L90.9148 13.8987C90.9148 13.3872 91.3648 12.9818 91.8833 13.0107L93.4779 13.088C93.9867 13.1169 94.378 13.5416 94.3486 14.0435L93.1355 36.8125C93.0964 37.4592 92.4018 37.8646 91.805 37.5751L90.9637 37.16C90.6408 37.0056 90.4354 36.6871 90.4452 36.3299Z" fill="black"/>
<path d="M84.1153 35.5869C84.1642 36.0405 83.8316 36.4459 83.3718 36.4845L82.1489 36.61C81.6989 36.6583 81.288 36.3301 81.2391 35.8765L79.0966 15.0571C79.0477 14.6035 79.3803 14.1981 79.8401 14.1595L81.063 14.034C81.513 13.9857 81.9239 14.3139 81.9728 14.7676L84.1153 35.5869Z" fill="black"/>
<path d="M52.4573 48.1922C52.3692 48.3081 52.2518 48.3563 52.0855 48.3467C51.0876 48.2791 50.2365 47.8737 49.5223 47.1498C39.5924 36.9477 29.4864 26.8517 19.1946 16.8426C18.9304 16.582 18.7837 16.2248 18.8033 15.8581C18.8326 15.2983 19.038 14.8832 19.4 14.613C19.7913 14.3138 20.3294 14.2944 20.7501 14.5454C22.5111 15.6264 24.1644 16.9584 25.7199 18.5413C32.1768 25.1336 38.4576 31.4846 44.5525 37.575C47.7516 40.7699 50.393 43.8875 52.4866 46.9085C52.7899 47.3429 52.7801 47.7676 52.4573 48.1922Z" fill="black"/>
<path d="M60.5088 41.793C60.9491 42.43 60.7925 43.2891 60.1566 43.7234L59.8534 43.9357C59.2175 44.3701 58.337 44.2157 57.8967 43.5883L42.9285 22.2574C42.4883 21.6203 42.6448 20.7613 43.2807 20.327L43.584 20.1146C44.2199 19.6803 45.1004 19.8347 45.5406 20.4621L60.5088 41.793Z" fill="black"/>
<path d="M113.347 39.824C116.009 35.249 119.433 29.9597 123.63 23.9561C123.776 23.7438 123.972 23.5797 124.197 23.4735C125.097 23.0392 125.723 23.0102 126.066 23.3867C126.741 24.1106 126.78 24.8731 126.193 25.6742C122.015 31.3785 118.083 36.9477 114.394 42.3914C113.915 43.096 113.347 43.6172 112.672 43.9551C112.359 44.1095 111.997 43.8489 112.056 43.5111C112.281 42.1501 112.712 40.9243 113.347 39.824Z" fill="black"/>
<path d="M156.237 25.9736C156.775 26.5528 156.726 27.4601 156.139 27.9909L149.076 34.3033C148.479 34.8342 147.569 34.7859 147.031 34.2068L146.845 34.0041C146.307 33.425 146.356 32.5177 146.943 31.9868L154.006 25.6744C154.603 25.1436 155.513 25.1918 156.051 25.771L156.237 25.9736Z" fill="black"/>
<path d="M29.4179 42.8646C28.9386 43.5595 27.9798 43.7429 27.2754 43.2699L20.8577 38.9845C20.1533 38.5115 19.9674 37.5656 20.4468 36.8707L20.5153 36.7742C20.9947 36.0792 21.9534 35.8958 22.6578 36.3688L29.0755 40.6543C29.7799 41.1272 29.9658 42.0731 29.4864 42.768L29.4179 42.8646Z" fill="black"/>
<path d="M141.631 37.6329C142.178 38.2313 142.139 39.1386 141.543 39.6791L127.562 52.3136C126.966 52.8541 126.036 52.8155 125.488 52.2267L125.459 52.1978C124.911 51.5994 124.95 50.6921 125.547 50.1516L139.527 37.5171C140.124 36.9766 141.053 37.0152 141.601 37.604L141.631 37.6329Z" fill="black"/>
<path d="M130.986 61.2515C130.556 61.4156 130.086 61.5314 129.587 61.5989C128.854 61.6858 128.433 61.3866 128.316 60.7206C128.286 60.5469 128.365 60.3731 128.521 60.2766C139.459 53.6554 151.159 47.8545 163.623 42.8741C164.083 42.6907 164.592 42.7293 165.012 42.9802C165.629 43.3567 165.932 43.7621 165.902 44.1771C165.873 44.8431 165.541 45.3064 164.914 45.567C156.52 49.0514 148.694 52.7095 141.425 56.5413C138.285 58.2014 134.812 59.7747 130.986 61.2515Z" fill="black"/>
<path d="M48.407 54.5046C48.0059 55.0258 47.2526 55.132 46.7243 54.7363L36.726 47.2753C36.1977 46.8795 36.0901 46.1363 36.4912 45.6151L36.5401 45.5572C36.9412 45.036 37.6945 44.9298 38.2228 45.3256L48.2309 52.7866C48.7592 53.1823 48.8668 53.9255 48.4657 54.4467L48.4168 54.5046H48.407Z" fill="black"/>
<path d="M43.3099 62.7089C43.0066 63.3073 42.2827 63.5486 41.6761 63.2591L14.3029 49.9683C13.6963 49.6787 13.4517 48.9548 13.7452 48.3564L14.0387 47.7676C14.342 47.1692 15.066 46.9279 15.6725 47.2175L43.0457 60.5082C43.6523 60.7978 43.8969 61.5217 43.6034 62.1201L43.3099 62.7089Z" fill="black"/>
<path d="M168.534 59.2441C168.769 59.9969 168.338 60.7788 167.585 61.0008L134.675 70.8651C133.921 71.0871 133.119 70.672 132.894 69.9288V69.8902C132.65 69.1374 133.08 68.3556 133.833 68.1336L166.744 58.2692C167.497 58.0472 168.299 58.4623 168.524 59.2055V59.2441H168.534Z" fill="black"/>
<path d="M39.1228 71.2414C38.9272 72.0618 38.0956 72.5637 37.2543 72.361L1.18383 63.7514C0.35226 63.5584 -0.156463 62.7283 0.0489829 61.9079L0.0881155 61.7535C0.293561 60.933 1.11535 60.4311 1.9567 60.6338L38.0369 69.2434C38.8685 69.4364 39.3772 70.2665 39.1718 71.0869L39.1326 71.2414H39.1228Z" fill="black"/>
<path d="M178.337 73.7219C164.719 75.2469 151.375 77.8529 137.551 79.3779C137.081 79.4262 136.671 79.0884 136.631 78.6251C136.602 78.2873 136.719 77.9301 136.964 77.5634C137.16 77.2642 137.483 77.0518 137.835 76.9746C151.345 74.2624 164.885 72.1486 178.445 70.6236C178.689 70.5946 178.943 70.6525 179.159 70.7684C179.795 71.1255 180.069 71.5791 179.99 72.1293C179.863 73.0849 179.305 73.6157 178.337 73.7219Z" fill="black"/>
<path d="M10.8887 76.6852C11.192 76.4535 11.5735 76.3377 11.9551 76.3667C17.8543 76.8396 24.0764 77.3801 30.6213 77.9786C32.6171 78.1619 34.5639 78.8086 36.6086 78.9534C36.951 78.9824 37.1467 79.1561 37.2054 79.4843C37.313 80.0537 37.1858 80.546 36.8434 80.961C36.638 81.2216 36.364 81.3278 36.0314 81.2892C28.6843 80.4495 20.5545 79.8703 11.6616 79.5518C10.5659 79.5036 10.0474 78.9438 10.1159 77.8724C10.1354 77.467 10.3898 77.0713 10.8887 76.6852Z" fill="black"/>
<path d="M160.404 87.6401C160.395 87.9876 160.101 88.2578 159.749 88.2482L155.112 88.142C144.262 87.8814 135.477 87.2444 135.487 86.7232L135.516 85.7387C135.526 85.2174 144.331 85.0051 155.18 85.2657L159.817 85.3815C160.17 85.3815 160.453 85.6711 160.444 86.0186L160.404 87.6401Z" fill="black"/>
<path d="M36.3346 89.4642C36.3737 89.9082 36.0607 90.2847 35.6204 90.3426L14.8704 92.6011C14.4301 92.6494 14.029 92.3405 13.9801 91.8965L13.8334 90.5935C13.7942 90.1495 14.1073 89.7731 14.5475 89.7152L35.2976 87.4566C35.7378 87.4084 36.1389 87.7172 36.1781 88.1612L36.3248 89.4642H36.3346Z" fill="black"/>
<path d="M135.134 95.1493C134.567 95.0046 134.264 94.6474 134.215 94.078C134.215 93.9911 134.215 93.8946 134.225 93.8077C134.283 93.3637 134.694 93.0645 135.144 93.1321C144.967 94.5702 154.711 96.3848 164.386 98.5662C165.12 98.7302 165.629 99.3769 165.599 100.12V100.477C165.56 101.076 165.012 101.51 164.415 101.413C156.031 99.985 146.277 97.9002 135.134 95.1493Z" fill="black"/>
<path d="M39.7783 98.1222C40.0229 98.8654 39.612 99.6472 38.8685 99.8885L6.71129 110.197C5.96777 110.438 5.16555 110.033 4.92097 109.299L4.82314 109.01C4.57856 108.266 4.98946 107.485 5.73298 107.243L37.8902 96.935C38.6337 96.6937 39.4359 97.0991 39.6805 97.8326L39.7783 98.1222Z" fill="black"/>
<path d="M151.296 107.021C156.53 109.251 159.993 110.95 161.696 112.137C162.077 112.397 162.224 112.88 162.077 113.314C161.774 114.222 160.942 114.588 159.602 114.405C159.406 114.376 159.221 114.318 159.054 114.231C151.864 110.612 145.955 107.929 141.327 106.201C138.842 105.274 136.406 104.155 134.029 102.852C133.315 102.456 132.904 101.983 132.796 101.423C132.679 100.825 133.256 100.323 133.843 100.506C139.41 102.272 145.221 104.444 151.296 107.021Z" fill="black"/>
<path d="M41.5881 105.911C42.224 105.651 42.7914 105.738 43.3099 106.172C43.398 106.249 43.4762 106.336 43.5251 106.442C43.7404 106.847 43.6034 107.359 43.2121 107.6C39.5825 109.878 35.7965 112.079 31.8636 114.202C31.2375 114.54 30.5918 114.666 29.9364 114.569C29.4668 114.502 29.232 113.971 29.4961 113.585C31.7658 110.245 37.4302 107.687 41.5881 105.911Z" fill="black"/>
<path d="M151.149 123.709C151.061 123.825 150.895 123.854 150.778 123.777L142.638 118.092C135.252 112.928 129.578 108.295 129.979 107.745L130.399 107.156C130.791 106.606 137.101 110.341 144.497 115.505L152.627 121.19C152.754 121.277 152.783 121.432 152.695 121.557L151.149 123.709Z" fill="black"/>
<path d="M48.0353 113.266C48.3875 113.652 48.3581 114.241 47.9766 114.588L23.2448 136.875C22.8535 137.222 22.2567 137.203 21.9045 136.817L21.2099 136.064C20.8577 135.678 20.8871 135.089 21.2686 134.742L46.0004 112.455C46.3917 112.108 46.9885 112.127 47.3407 112.513L48.0353 113.266Z" fill="black"/>
<path d="M141.347 127.426C140.74 128.14 136.455 125.582 131.769 121.702C127.083 117.831 123.776 114.106 124.393 113.392C124.999 112.677 129.284 115.235 133.97 119.115C138.656 122.986 141.963 126.711 141.347 127.426Z" fill="black"/>
<path d="M41.3828 135.833C40.8447 136.431 39.9055 136.489 39.2989 135.958L39.2598 135.919C38.6533 135.389 38.5946 134.462 39.1326 133.864L52.2616 119.221C52.7997 118.623 53.7389 118.565 54.3454 119.096L54.3845 119.135C54.9911 119.665 55.0498 120.592 54.5117 121.19L41.3828 135.833Z" fill="black"/>
<path d="M134.87 135.05C135.369 135.591 135.32 136.44 134.763 136.933L134.724 136.971C134.166 137.463 133.315 137.415 132.816 136.865L119.736 122.377C119.237 121.837 119.286 120.988 119.844 120.495L119.883 120.457C120.44 119.964 121.291 120.013 121.79 120.563L134.87 135.05Z" fill="black"/>
<path d="M138.167 161.102C138.03 161.198 137.844 161.169 137.747 161.034L122.172 140.195C116.273 132.3 111.792 125.698 112.164 125.428L113.543 124.424C113.915 124.154 118.982 130.331 124.882 138.217L140.456 159.065C140.554 159.2 140.525 159.384 140.388 159.48L138.167 161.102Z" fill="black"/>
<path d="M57.8674 125.109C57.9163 125.032 58.0239 125.022 58.0924 125.071L58.1315 125.099C59.1 125.765 59.1098 127.397 58.1511 128.748L56.3999 131.219C55.4411 132.56 53.8856 133.12 52.9171 132.454L52.878 132.425C52.7997 132.367 52.7801 132.271 52.8388 132.194L57.8674 125.109Z" fill="black"/>
<path d="M68.2863 128.69C67.5232 130.649 66.5547 132.589 65.3905 134.51C60.9489 141.836 56.4683 149.249 51.9485 156.758C51.5278 157.443 50.9408 157.646 50.1875 157.385C50.0799 157.347 49.982 157.308 49.8744 157.279C49.3364 157.096 49.0722 156.497 49.307 155.986C50.9799 152.289 52.4963 149.384 53.8757 147.26C58.1021 140.764 62.3284 134.163 66.5645 127.435C66.6916 127.232 66.9264 127.136 67.1612 127.184L67.5232 127.271C68.1591 127.416 68.5211 128.082 68.2863 128.69Z" fill="black"/>
<path d="M151.061 136.431C150.533 137.058 149.594 137.145 148.958 136.633L142.501 131.402C141.856 130.881 141.768 129.954 142.296 129.327L142.491 129.086C143.02 128.458 143.959 128.371 144.595 128.883L151.052 134.114C151.697 134.636 151.785 135.562 151.257 136.189L151.061 136.431Z" fill="black"/>
<path d="M105.951 129.983C105.736 129.568 106 129.066 106.47 129.009C106.773 128.97 107.057 129.018 107.331 129.144C108.123 129.501 108.7 129.993 109.082 130.64C113.044 137.348 116.889 144.046 120.616 150.726C120.871 151.189 120.753 151.71 120.274 152.289C120.196 152.386 120.098 152.444 119.971 152.473C119.08 152.704 118.151 152.318 117.691 151.546C114.394 146.035 110.481 138.844 105.951 129.983Z" fill="black"/>
<path d="M66.5547 162.974C66.3297 163.756 65.4981 164.209 64.6959 163.978L64.6372 163.958C63.8448 163.727 63.385 162.906 63.6197 162.124L72.8355 131.219C73.0605 130.437 73.892 129.983 74.6943 130.215L74.753 130.234C75.5454 130.466 76.0052 131.286 75.7704 132.068L66.5547 162.974Z" fill="black"/>
<path d="M111.811 161.623C112.007 162.192 111.616 162.79 111.009 162.848L109.483 162.984C108.749 163.051 108.29 162.733 108.094 162.038C106 154.557 103.701 146.903 101.989 139.211C101.451 136.769 100.737 134.346 99.8565 131.943C99.8271 131.875 99.8467 131.827 99.9152 131.798L100.17 131.692C100.434 131.576 100.629 131.644 100.757 131.904C102.879 136.016 105.169 140.195 106.392 144.519C107.888 149.818 109.698 155.523 111.811 161.623Z" fill="black"/>
<path d="M79.664 151.479C79.5467 152.183 78.8716 152.656 78.1574 152.54H78.0792C77.365 152.415 76.8856 151.749 77.003 151.035L79.9771 133.516C80.0945 132.812 80.7695 132.339 81.4837 132.454H81.562C82.2761 132.58 82.7555 133.246 82.6381 133.96L79.664 151.479Z" fill="black"/>
<path d="M97.6456 150.793C97.7239 151.478 97.2151 152.096 96.5107 152.173H96.3738C95.6694 152.26 95.0433 151.758 94.9748 151.073L93.1747 134.143C93.0964 133.458 93.6052 132.84 94.3095 132.763H94.4465C95.1509 132.676 95.777 133.178 95.8455 133.864L97.6456 150.793Z" fill="black"/>
<path d="M86.3557 175.068C85.7687 163.302 85.8372 151.546 86.5611 139.8C86.6394 138.468 86.7764 137.512 86.9818 136.933C87.5199 135.389 87.9503 135.418 88.2927 137.01C88.4982 138.004 88.8504 139.221 88.8797 140.321C89.2123 152.946 89.2613 165.667 90.1613 178.272C90.2298 179.209 89.7993 179.74 88.8602 179.875L88.1362 179.991C87.3144 180.106 86.5709 179.508 86.5318 178.688C86.4829 177.52 86.4242 176.313 86.3557 175.068Z" fill="black"/>
<path d="M44.1904 145.089C43.5643 144.51 44.5622 142.483 46.4112 140.562C48.2602 138.651 50.256 137.57 50.8821 138.149C51.5082 138.728 50.5103 140.755 48.6613 142.676C46.8123 144.587 44.8165 145.668 44.1904 145.089Z" fill="black"/>
<path d="M33.8496 158.042C33.3604 158.717 32.4017 158.872 31.7168 158.389L31.6386 158.331C30.9537 157.839 30.7972 156.903 31.2864 156.227L37.1367 148.197C37.6258 147.521 38.5846 147.367 39.2694 147.849L39.3477 147.907C40.0325 148.399 40.189 149.336 39.6999 150.011L33.8496 158.042Z" fill="black"/>
<path d="M92.0201 41.1754C67.1416 38.3763 44.7284 55.5182 41.9696 79.4552C39.201 103.402 57.1237 125.07 82.012 127.87C106.891 130.669 129.304 113.527 132.063 89.5898C134.831 65.6432 116.908 43.9744 92.0201 41.1754ZM50.0211 73.0752C49.9233 71.8301 50.1092 70.6236 50.569 69.446C52.7017 64.0409 54.9812 57.9698 58.7575 55.026C59.0803 54.775 59.1684 54.8426 59.0314 55.219C58.914 55.5568 58.6107 56.0298 58.2683 56.2325C56.0769 57.5548 55.6269 60.2284 55.1377 62.4773C54.9029 63.5101 54.4137 64.6007 53.68 65.73C52.3984 67.6797 51.7625 69.9866 51.7625 72.6505C51.7625 73.2103 51.4788 73.5095 50.9114 73.5481L50.5983 73.5674C50.3048 73.5868 50.0407 73.3648 50.0211 73.0752ZM57.7302 64.9289C57.6422 65.6625 57.4367 66.2512 57.2704 66.2416C57.1041 66.2223 57.0356 65.6046 57.1237 64.8613C57.2117 64.1278 57.4172 63.539 57.5835 63.5583C57.7498 63.5776 57.8183 64.1954 57.7302 64.9386V64.9289ZM57.1041 82.9009C56.8889 82.5824 56.6639 82.5728 56.4291 82.872L54.3257 85.4394C54.0713 85.7579 53.9344 85.7096 53.9246 85.3043C53.8659 83.4414 54.6485 82.0322 56.2725 81.0767C56.4486 80.9705 56.6247 80.9319 56.8106 80.9609C56.9965 80.9898 57.065 81.1057 57.0063 81.289C56.9182 81.569 57.2313 81.8102 57.4954 81.6655C58.2096 81.2601 58.6009 80.6327 58.6792 79.7737C58.7183 79.3393 58.8553 79.3104 59.0803 79.6868C59.9901 81.1732 60.2152 82.8816 59.7651 84.8024C59.5303 85.8158 59.1194 85.893 58.5325 85.0244L57.1041 82.9009ZM58.2096 91.1727C58.2683 91.3657 58.1998 91.4622 57.9944 91.4719C55.4605 91.5781 54.0811 90.5067 53.8561 88.2578C53.817 87.8814 53.9539 87.8041 54.267 88.0261L55.1866 88.6632C55.4605 88.8562 55.7345 88.8562 56.0182 88.6728C56.4291 88.3929 56.7421 88.2481 56.9574 88.2288C57.2215 88.2095 57.3878 88.3253 57.4563 88.5666L58.2096 91.1727ZM51.8603 97.8808C51.7234 98.3345 51.5864 98.3345 51.4495 97.8808L50.9114 96.0566C50.7451 95.4678 50.9114 95.3423 51.4299 95.6802C52.0364 96.0759 52.1832 96.8094 51.8603 97.8808ZM55.5388 103.952C55.4312 104.174 55.2649 104.251 55.0301 104.174C54.3551 103.952 53.9148 103.508 53.7094 102.842C53.6311 102.581 53.7094 102.523 53.9442 102.659L55.3138 103.45C55.3138 103.45 55.3627 103.479 55.3921 103.498C55.5584 103.662 55.6073 103.807 55.5388 103.952ZM56.8889 95.545C57.1628 95.0238 57.5835 94.8308 58.1509 94.9756C58.4835 95.0528 58.6694 95.2555 58.7183 95.5933C58.7868 96.0469 58.777 96.5006 58.689 96.9542C58.6205 97.292 58.4053 97.4658 58.0531 97.4561C57.5248 97.4561 57.1237 97.1183 56.8498 96.4716C56.7226 96.1724 56.7421 95.8346 56.8889 95.545ZM59.4619 108.672C59.276 108.971 59.0118 109.077 58.6694 108.971C58.0922 108.797 57.6128 108.363 57.2215 107.668C57.0552 107.378 57.2215 107.012 57.5444 106.934C57.8476 106.867 58.1998 106.848 58.5912 106.896C58.9923 106.944 59.276 107.098 59.4619 107.359C59.7456 107.764 59.7456 108.199 59.4619 108.672ZM60.8706 101.404C60.4891 101.674 59.7456 101.307 59.2173 100.583C58.6792 99.8595 58.5618 99.0487 58.9433 98.7784C59.3249 98.5082 60.0684 98.875 60.5967 99.5989C61.1348 100.323 61.2522 101.134 60.8706 101.404ZM67.6601 106.568C67.5036 106.693 67.2884 106.732 67.0927 106.674C66.1927 106.394 65.772 105.931 65.8307 105.294C65.8698 104.85 66.2807 104.541 66.7209 104.637C67.3275 104.753 67.6895 105.023 67.8167 105.458C67.846 105.564 67.8949 105.651 67.9438 105.718C68.1297 105.979 68.0319 106.268 67.6601 106.568ZM73.7746 114.463C73.4224 114.743 72.8843 114.772 72.1506 114.569C71.9647 114.656 71.769 114.656 71.5636 114.579C71.1918 114.434 71.1527 114.241 71.456 113.98C72.0919 113.43 72.8452 113.382 73.7159 113.836C74.0583 114.019 74.0779 114.222 73.7746 114.463ZM76.3573 115.225L76.3769 114.994C76.416 114.646 76.7291 114.386 77.0813 114.424L79.6738 114.685C80.026 114.724 80.2902 115.032 80.251 115.38L80.2315 115.612C80.1923 115.959 79.8793 116.22 79.5271 116.181L76.9345 115.92C76.5823 115.882 76.3182 115.573 76.3573 115.225ZM85.3578 122.928C85.3383 123.169 83.4403 123.169 81.1315 122.908L80.7989 122.87C78.4901 122.609 76.6411 122.194 76.6704 121.943L76.6997 121.741C76.6997 121.741 76.6997 121.731 76.7095 121.731L85.3774 122.706C85.3774 122.706 85.3774 122.706 85.3774 122.715L85.348 122.928H85.3578ZM85.7883 119.106C85.1719 118.845 84.8393 118.208 84.7904 117.204C84.7513 116.538 85.4654 116.084 86.0622 116.393L89.0167 117.899C89.2809 118.044 89.2809 118.169 88.9972 118.285L86.972 119.115C86.5709 119.279 86.1796 119.27 85.7883 119.115V119.106ZM88.0775 122.744C87.3634 122.908 86.747 122.851 86.6981 122.629C86.6394 122.397 87.1677 122.078 87.8819 121.914C88.596 121.75 89.2124 121.808 89.2613 122.03C89.32 122.262 88.7917 122.58 88.0775 122.744ZM125.694 90.333C125.302 92.4467 125.322 94.4157 124.647 96.4427C123.346 100.371 122.045 103.122 120.734 104.714C118.601 107.311 116.811 110.206 114.394 112.204C110.354 115.525 105.628 118.073 100.209 119.858C97.4889 120.756 94.9942 121.19 92.7147 121.161C92.3919 121.152 92.0984 121.239 91.8343 121.403C91.4332 121.644 91.0027 121.789 90.5429 121.818C90.1711 121.847 90.0733 121.692 90.2494 121.374L90.6212 120.708C90.7777 120.418 91.0223 120.225 91.3451 120.129C92.6756 119.723 93.8496 119.714 94.8573 120.09C95.2584 120.235 95.6497 120.216 96.0117 120.032C96.3736 119.839 96.5497 119.53 96.5204 119.115C96.491 118.691 96.6574 118.584 97.0389 118.787C97.4987 119.038 98.0074 119.173 98.5651 119.192C98.9075 119.202 99.0542 119.048 99.0151 118.71C98.8683 117.387 98.2324 116.403 97.0878 115.756C96.2171 115.264 95.5323 115.409 95.0236 116.21C94.8768 116.442 94.6909 116.49 94.4464 116.355L93.7713 115.978C93.5463 115.853 93.4778 115.554 93.6344 115.341C93.9572 114.907 94.4366 114.656 95.0529 114.608C95.3953 114.579 95.591 114.193 95.3953 113.913L93.9768 111.857C93.7811 111.567 93.5267 111.5 93.2137 111.654C92.9104 111.799 92.6365 112.021 92.3821 112.339C91.756 113.102 91.1886 113.063 90.6701 112.224C90.0537 111.21 90.0244 110.255 90.582 109.357C90.7483 109.077 90.6896 108.845 90.4059 108.672C90.1711 108.527 89.8972 108.488 89.5744 108.566C89.2222 108.652 89.0754 108.865 89.1341 109.222C89.1928 109.56 89.3493 109.878 89.6037 110.177C89.8092 110.419 89.8972 110.689 89.8679 111.008C89.6233 113.372 90.582 114.955 92.7637 115.756C93.0669 115.872 93.2626 116.084 93.3507 116.393C93.4387 116.693 93.4191 116.895 93.292 117.001C92.568 117.619 91.5114 117.667 90.7288 117.117C90.0537 116.635 89.8092 116.181 89.995 115.756C90.4255 114.724 89.5646 113.575 88.3026 113.488C87.5297 113.44 86.8057 113.353 86.1209 113.227C85.5926 113.141 85.1915 112.726 85.1132 112.204L85.0546 111.77C84.9861 111.297 85.4263 110.901 85.9057 111.017C87.109 111.316 87.8232 110.834 88.0482 109.589C88.0971 109.27 88.058 108.961 87.9112 108.672C87.6275 108.083 87.4221 107.456 87.2753 106.79C87.2068 106.481 87.0405 106.249 86.7666 106.095C86.3459 105.853 86.0231 105.506 85.7981 105.052C85.6611 104.763 85.4361 104.657 85.123 104.743C84.7708 104.83 84.4578 104.985 84.1936 105.207C83.9393 105.409 83.6556 105.467 83.3523 105.371C81.9533 104.936 82.4816 103.228 81.337 102.369C80.975 102.099 80.8869 102.166 81.0728 102.572L82.3544 105.371C82.4718 105.641 82.7457 105.815 83.0392 105.824C83.5284 105.834 83.861 106.046 84.0469 106.461C84.2132 106.838 84.5067 106.992 84.9176 106.944L85.9057 106.819C86.3068 106.77 86.5807 106.934 86.7079 107.311L87.334 109.116C87.4123 109.328 87.2655 109.56 87.0307 109.579L85.6122 109.695C84.2621 109.801 83.7827 110.496 84.1741 111.77C84.4676 112.726 84.2132 113.44 83.4208 113.922C83.049 114.144 83.049 114.366 83.4305 114.579L83.9099 114.839C84.223 115.003 84.2915 115.245 84.1251 115.554C83.7143 116.306 83.3229 117.05 82.961 117.783C82.8142 118.102 82.8142 118.391 82.961 118.662C83.1077 118.932 83.0392 119.125 82.7555 119.241C82.5696 119.318 82.3837 119.337 82.1979 119.299C81.7478 119.212 81.65 118.97 81.9142 118.594L82.8827 117.175C83.0881 116.876 83.1762 116.557 83.1664 116.2C83.1175 115.119 82.6577 114.193 81.787 113.43C81.288 112.996 81.3076 112.224 81.8163 111.809C82.3348 111.384 82.5696 110.776 82.5012 109.975C82.4131 108.903 81.6109 108.44 81.3174 107.475C81.0043 106.452 79.6543 106.191 78.9792 107.021C78.7346 107.32 78.5977 107.726 78.5683 108.237C78.5488 108.566 78.6662 108.836 78.9205 109.058C79.6934 109.724 80.5152 110.177 81.4054 110.409C81.9435 110.554 81.9729 110.757 81.4935 111.036C80.6815 111.529 79.8303 111.538 78.9499 111.075C78.6662 110.93 78.3824 110.911 78.089 110.998L75.0073 111.963C74.6257 112.089 74.3224 111.973 74.1072 111.635L73.5104 110.65C73.3246 110.361 73.0898 110.129 72.7963 109.955C71.3582 109.087 70.2135 108.102 69.382 107.002C68.5797 105.95 68.7461 105.766 69.8809 106.461C70.6146 106.915 71.6223 107.378 72.9039 107.871C73.2072 107.986 73.442 108.179 73.6083 108.459C74.1072 109.261 74.7823 109.84 75.653 110.216C75.966 110.351 76.1715 110.255 76.2595 109.926C76.4845 109.106 76.416 108.324 76.0541 107.581C75.8682 107.185 75.966 107.089 76.3476 107.292C76.6117 107.427 76.8856 107.475 77.1693 107.436C77.7661 107.349 78.0596 106.674 77.6976 106.201C77.3356 105.718 76.8661 105.467 76.2986 105.438C76.0149 105.429 75.741 105.583 75.604 105.834C75.4084 106.182 75.154 106.461 74.841 106.664C74.5572 106.857 74.2735 106.867 73.9703 106.703C73.1387 106.249 72.6495 105.554 72.4832 104.618C72.4343 104.299 72.2484 104.077 71.9451 103.971C71.2505 103.711 70.5462 103.701 69.8222 103.971C69.5189 104.077 69.2254 104.048 68.9417 103.875C68.5308 103.624 68.2471 103.267 68.0906 102.813C67.983 102.494 68.0514 102.224 68.296 102.002C69.0689 101.307 69.0689 100.632 68.296 99.9656C67.4742 99.2514 66.672 98.5372 65.8796 97.8326C65.6448 97.6106 65.6057 97.3596 65.7524 97.0797C66.134 96.3751 66.3687 95.6222 66.4568 94.8404C66.4861 94.5219 66.3492 94.3964 66.0263 94.4447C65.0578 94.5991 64.4513 94.2903 64.2067 93.5278C64.1088 93.2189 64.1871 92.9583 64.4317 92.7556C65.0676 92.2151 65.2241 91.5395 64.8817 90.7287C64.7741 90.4584 64.4415 90.3426 64.1871 90.4874C63.5512 90.8445 63.062 91.3561 62.7196 92.0221C62.5631 92.3116 62.5631 92.6012 62.7196 92.9004C62.8664 93.1803 63.0718 93.4119 63.3164 93.5953C63.5708 93.798 63.7273 94.049 63.7762 94.3675C63.9817 95.574 64.3339 96.5874 64.8524 97.4272C65.1067 97.8326 64.9893 98.0159 64.51 97.9677L63.6882 97.8808C63.2968 97.8422 63.2284 97.9677 63.4925 98.2669C64.6469 99.5892 65.322 101.365 65.5176 103.614C65.5274 103.769 65.4589 103.817 65.3122 103.769L63.0327 102.9C62.8664 102.832 62.7979 102.716 62.8468 102.543C63.062 101.626 62.9544 100.651 62.524 99.6278C62.3968 99.3383 62.3577 99.0294 62.387 98.7109L62.6707 95.7284C62.7001 95.3906 62.5631 95.159 62.2403 95.0335L60.1271 94.1648C59.726 94.0007 59.7358 93.4409 60.1369 93.2865C60.3326 93.2093 60.5086 93.0838 60.675 92.9004C60.9 92.6494 60.9489 92.3695 60.8217 92.0607C60.0195 90.1689 59.6966 88.2674 59.863 86.366C59.9021 85.9606 60.3619 85.729 60.7141 85.951L63.4436 87.6497C63.6882 87.8041 63.9523 87.8234 64.2262 87.7173C64.5687 87.5725 64.6958 87.2926 64.6273 86.8775C64.5002 86.1536 64.0501 85.449 63.2577 84.7541C62.9936 84.5225 62.7099 84.4838 62.387 84.6286L61.7805 84.9182C61.0076 85.285 60.176 84.5514 60.4499 83.7503C60.7434 82.9106 60.8511 82.1481 60.7728 81.4628C60.6163 80.0536 60.0097 78.7313 58.9531 77.4958C58.7085 77.2062 58.6792 76.8974 58.8749 76.5692C59.1488 76.0963 59.5108 75.7295 59.9608 75.4496C60.2641 75.2662 60.3717 75.0152 60.2836 74.6774L59.7847 72.7374C59.6869 72.3706 59.4423 72.1776 59.0607 72.1583C58.689 72.1486 58.3368 72.2065 57.9944 72.3416C57.6813 72.4575 57.5052 72.776 57.5541 73.1041L58.2194 77.0711C58.2977 77.5441 57.9846 77.9977 57.515 78.1039L55.7247 78.4996C55.2062 78.6154 54.9127 78.4127 54.8344 77.9012C54.5409 75.826 55.1768 73.9632 56.7421 72.2934C56.9574 72.0714 57.0259 71.8011 56.9574 71.5019L56.6932 70.4692C56.6247 70.1989 56.8693 69.9576 57.1432 70.0155C59.1488 70.4306 60.2836 70.3726 60.538 69.8418C60.9 69.0793 60.6945 68.8862 59.9217 69.253C59.501 69.4557 58.9825 69.4074 58.3759 69.1082C58.0726 68.9634 57.965 68.7222 58.0335 68.4036L58.9336 64.2629C58.9923 64.0023 59.1586 63.8575 59.4423 63.8479C59.5303 63.8479 59.6379 63.8575 59.7456 63.8961C59.9119 63.9444 60.0488 63.9155 60.176 63.7996C61.3793 62.6607 62.2794 61.4059 62.8566 60.0354C63.3751 58.8289 64.1578 57.6417 65.2143 56.4641C69.3526 51.8698 73.6572 48.8873 78.1281 47.5167C93.0082 42.9706 105.521 45.9048 115.646 56.3193C124.676 65.6142 128.091 77.5634 125.694 90.3426V90.333Z" fill="black"/>
<path d="M64.784 63.0374C64.4122 63.0856 64.06 62.7671 64.0111 62.3231C63.9524 61.8888 64.2165 61.493 64.5981 61.4448C64.9698 61.3965 65.322 61.715 65.371 62.159C65.4297 62.5934 65.1655 62.9891 64.784 63.0374Z" fill="black"/>
<path d="M60.6066 67.7183C61.0371 66.3477 61.3306 65.2185 62.622 64.4463C62.9937 64.2243 63.1405 64.3208 63.072 64.7552L62.7981 66.4346C62.7394 66.7724 62.5437 67.0137 62.2111 67.1392C61.7317 67.3226 61.2817 67.5735 60.8708 67.8921C60.5871 68.1141 60.499 68.0561 60.6066 67.7183Z" fill="black"/>
<path d="M122.309 75.4303L119.423 67.0716C119.393 66.9944 119.423 66.8979 119.491 66.8497L119.863 66.5794C119.99 66.4925 120.088 66.5118 120.156 66.6566C122.113 70.6043 123.17 73.6253 123.316 75.7198C123.629 79.9571 123.669 85.2753 123.444 91.6553C123.434 91.8194 123.346 91.8966 123.179 91.8966H122.544C122.142 91.8966 121.976 91.7035 122.025 91.3078C122.544 87.2154 122.661 83.1326 122.377 79.0498C122.358 78.7602 122.289 78.4803 122.172 78.2197C121.908 77.6309 121.937 77.0325 122.24 76.4341C122.407 76.1059 122.426 75.7681 122.309 75.4303Z" fill="black"/>
<path d="M65.273 71.0867C65.0284 70.8454 65.3024 70.1698 65.8894 69.5714C66.4763 68.9633 67.1612 68.6737 67.4057 68.915C67.6503 69.1563 67.3764 69.832 66.7894 70.4304C66.2024 71.0385 65.5176 71.328 65.273 71.0867Z" fill="black"/>
<path d="M62.5828 70.3728C62.8567 69.977 63.4437 69.9867 63.7079 70.3728C63.9916 70.7975 63.9133 71.1546 63.4731 71.4441C63.2285 71.6082 62.9056 71.531 62.7393 71.2897C62.4752 70.9036 62.4263 70.5948 62.5828 70.3631V70.3728Z" fill="black"/>
<path d="M70.1744 74.4746C69.9103 74.7738 69.8124 75.1213 69.5679 75.4398C69.4505 75.5845 69.2548 75.6328 69.0787 75.5556C68.8928 75.4687 68.7852 75.3432 68.7363 75.1888C68.7069 75.0826 68.7167 74.9668 68.7363 74.8606C68.9613 74.0692 69.4309 73.5383 70.1646 73.2777C70.5266 73.1426 70.6636 73.2584 70.5853 73.6252C70.5168 73.9437 70.3701 74.2236 70.1646 74.4746H70.1744Z" fill="black"/>
<path d="M66.5939 75.2178C66.3689 75.3143 66.0559 75.0827 65.8993 74.7063C65.7526 74.3298 65.8113 73.9534 66.0363 73.8569C66.2613 73.7604 66.5744 73.992 66.7309 74.3684C66.8777 74.7449 66.819 75.1213 66.5939 75.2178Z" fill="black"/>
<path d="M117.926 76.434C117.505 76.6173 117.28 76.4919 117.231 76.0382C117.202 75.7776 117.368 75.4688 117.73 75.1309C117.994 74.88 118.425 74.9379 118.611 75.2564C118.875 75.7197 118.65 76.1154 117.926 76.434Z" fill="black"/>
<path d="M62.6317 78.2776C62.5828 78.3644 62.5241 78.432 62.4459 78.4899C62.2502 78.6154 62.1426 78.5671 62.123 78.3355C61.9958 77.0614 62.4752 76.1831 63.5709 75.7101C63.9133 75.5654 64.0307 75.6619 63.9427 76.019C63.7959 76.5885 63.5024 77.0807 63.0818 77.4958C63.0329 77.544 62.8763 77.8046 62.6317 78.2776Z" fill="black"/>
<path d="M76.6803 78.0943C76.7097 78.1715 76.7194 78.2583 76.7292 78.3452C76.739 78.5286 76.651 78.6541 76.4651 78.7023C75.9661 78.8375 75.6433 78.6251 75.4868 78.0749C75.4183 77.8143 75.4672 77.573 75.6531 77.3607C75.8292 77.158 76.1422 77.1387 76.3379 77.3221C76.4651 77.4283 76.5433 77.5827 76.5923 77.7661C76.6118 77.8433 76.6412 77.9495 76.6803 78.0943Z" fill="black"/>
<path d="M68.9516 80.237C68.6484 80.1695 68.4723 79.822 68.5505 79.4456C68.6288 79.0691 68.9321 78.8085 69.2256 78.8665C69.5289 78.934 69.7049 79.2815 69.6267 79.6579C69.5484 80.0343 69.2451 80.2949 68.9516 80.237Z" fill="black"/>
<path d="M63.8644 81.1345L63.7176 79.8701C63.6687 79.4744 63.8546 79.2331 64.2557 79.1559C64.5785 79.0883 64.8623 79.2041 65.1068 79.5033C65.3123 79.7543 65.3221 80.0053 65.1068 80.2659C64.5101 81.0091 64.5003 81.8488 65.0775 82.785C65.2242 83.0263 65.1655 83.2001 64.9112 83.3255L64.5785 83.48C64.5003 83.5186 64.4318 83.5089 64.3633 83.4414C63.8839 82.9684 63.7078 82.4279 63.835 81.8295C63.8839 81.5978 63.8839 81.3662 63.8546 81.1345H63.8644Z" fill="black"/>
<path d="M117.222 81.0575L119.325 80.8355C119.491 80.8162 119.579 80.8838 119.589 81.0479L119.638 81.5305C119.658 81.7139 119.57 81.8007 119.384 81.7814L116.096 81.4919C115.94 81.4822 115.842 81.3953 115.813 81.2409C115.783 81.1058 115.813 80.9707 115.871 80.8452C115.95 80.6907 116.145 80.6328 116.302 80.7197L116.693 80.9417C116.86 81.0382 117.036 81.0768 117.222 81.0575Z" fill="black"/>
<path d="M74.3909 82.3216C74.6257 82.3988 74.7725 82.5726 74.8312 82.8428C74.9094 83.1613 74.8312 83.4219 74.6355 83.6053C74.5181 83.7211 74.3714 83.7791 74.1855 83.7887C73.8235 83.8177 73.6278 83.6536 73.5985 83.2965C73.5789 83.0745 73.5985 82.8718 73.667 82.6787C73.7942 82.3216 74.029 82.2058 74.3909 82.3216Z" fill="black"/>
<path d="M91.8735 85.4395C91.7072 85.6808 91.2963 85.7001 90.9637 85.4684C90.6311 85.2464 90.4941 84.87 90.6604 84.6191C90.8267 84.3778 91.2376 84.3584 91.5702 84.5901C91.9029 84.8121 92.0398 85.1885 91.8735 85.4395Z" fill="black"/>
<path d="M117.016 84.8605C117.329 84.7543 117.613 84.735 117.867 84.8026C118.112 84.8702 118.18 85.1694 118.004 85.3431C117.711 85.623 117.359 85.7292 116.948 85.6423C116.693 85.5941 116.586 85.4396 116.635 85.1887C116.664 85.0439 116.791 84.9377 117.016 84.8605Z" fill="black"/>
<path d="M82.0024 84.8701L82.8241 84.8315C83.2742 84.8122 83.4209 85.4106 83.0198 85.6037C82.4035 85.9029 81.9828 85.7967 81.7382 85.3045C81.6404 85.1114 81.7871 84.8798 82.0024 84.8701Z" fill="black"/>
<path d="M78.6272 86.7424C78.6761 86.8969 78.6761 87.0223 78.637 87.1189C78.5489 87.3602 78.3924 87.4181 78.1674 87.2926C77.913 87.1478 77.7271 86.9451 77.6097 86.6652C77.4728 86.337 77.6391 85.9703 77.9815 85.8641C78.1478 85.8158 78.3141 85.8062 78.4804 85.8351C78.8326 85.9027 78.95 86.0957 78.8326 86.4239C78.8033 86.5301 78.7348 86.6363 78.6272 86.7424Z" fill="black"/>
<path d="M69.2352 89.7829L69.3233 90.1208C69.4211 90.4972 69.2744 90.7192 68.8928 90.7867C68.5113 90.8543 68.2178 90.7674 67.9928 90.5358C67.758 90.3041 67.6797 90.0339 67.7482 89.7154C67.9537 88.7116 67.9634 87.8332 67.7776 87.0707C67.6993 86.7715 67.8069 86.6653 68.1102 86.7426L69.3624 87.09C69.7244 87.1865 69.832 87.4085 69.7048 87.7464L69.2744 88.9336C69.1668 89.2135 69.157 89.4934 69.2352 89.7829Z" fill="black"/>
<path d="M116.596 88.1711C116.449 88.7502 116.331 89.31 116.243 89.8506C116.175 90.227 116.077 90.227 115.95 89.8699C115.539 88.7213 115.784 87.6596 116.674 86.6654C117.271 85.9994 117.456 86.067 117.212 86.8681C117.163 87.0515 117.075 87.2252 116.967 87.3796C116.791 87.6209 116.664 87.8815 116.596 88.1711Z" fill="black"/>
<path d="M73.393 88.3158C73.3539 88.3834 73.305 88.4509 73.2365 88.5088C73.1485 88.5957 73.0604 88.5957 72.9724 88.5088C72.6887 88.2675 72.5713 87.949 72.63 87.5726C72.6691 87.283 72.8061 87.0707 73.0506 86.9259C73.2952 86.7811 73.5691 86.7425 73.8724 86.8101C74.205 86.8776 74.2735 87.0514 74.0681 87.3216C73.98 87.4471 73.8724 87.5726 73.7648 87.6884C73.7648 87.6884 73.6376 87.9008 73.393 88.3158Z" fill="black"/>
<path d="M83.0981 91.964L83.1568 92.408C83.2155 92.8327 83.059 92.9388 82.6774 92.7169L81.885 92.2439C81.5719 92.0605 81.4741 91.7903 81.5915 91.4524C81.7871 90.8637 82.11 90.3714 82.5698 89.9757C82.8339 89.7344 83.01 89.7923 83.0981 90.1398C83.2057 90.5741 83.2155 91.0181 83.1079 91.4717C83.0785 91.6358 83.0687 91.7999 83.0981 91.964Z" fill="black"/>
<path d="M113.054 91.2014C112.809 91.2883 112.584 91.2883 112.379 91.2111C112.056 91.0953 112.027 90.9312 112.301 90.7188C112.721 90.381 113.211 90.2459 113.768 90.2941C113.886 90.2941 113.983 90.3424 114.052 90.41C114.16 90.5161 114.199 90.6513 114.169 90.7961C114.12 91.018 113.983 91.1339 113.749 91.1339H113.455C113.318 91.1242 113.181 91.1532 113.054 91.2014Z" fill="black"/>
<path d="M117.31 91.3656C117.554 91.0857 117.848 90.825 118.18 90.6031C118.503 90.3811 118.591 90.4583 118.464 90.8154C118.219 91.491 117.818 91.964 117.241 92.2342C116.889 92.3983 116.742 92.2922 116.791 91.9157C116.83 91.6165 117.006 91.4331 117.31 91.3656Z" fill="black"/>
<path d="M76.4749 92.3116C75.6237 92.7556 75.0368 92.7749 74.7139 92.3695C74.2737 91.8097 74.6846 90.9893 75.3987 90.9893C76.0738 90.9893 76.514 91.2113 76.7097 91.6552C76.8173 91.8965 76.7097 92.1861 76.4749 92.3116Z" fill="black"/>
<path d="M112.174 92.8907C112.359 93.1996 112.213 93.6146 111.851 93.827C111.489 94.0393 111.049 93.9621 110.863 93.6532C110.677 93.3444 110.824 92.9293 111.186 92.717C111.547 92.5046 111.988 92.5819 112.174 92.8907Z" fill="black"/>
<path d="M116.185 94.0586C116.507 93.7015 116.635 93.7594 116.547 94.2323C116.38 95.2265 115.842 95.8056 114.952 95.989C114.551 96.0662 114.482 95.9504 114.756 95.6512L116.185 94.0586Z" fill="black"/>
<path d="M120.734 94.2998C119.834 96.7224 118.435 98.5563 116.527 99.8014C116.263 99.9751 116.058 100.207 115.921 100.496C115.559 101.278 115.02 102.031 114.306 102.765C114.072 103.006 113.915 102.967 113.847 102.629L113.67 101.877C113.651 101.77 113.68 101.655 113.758 101.587C116.283 99.3767 118.239 96.8672 119.619 94.0778C119.746 93.8268 120.059 93.711 120.323 93.8268L120.577 93.9426C120.744 94.0199 120.802 94.1357 120.734 94.2998Z" fill="black"/>
<path d="M114.101 109.377C114.022 110.39 113.67 111.239 113.054 111.925C112.819 112.185 112.398 112.127 112.242 111.828C112.203 111.761 112.173 111.683 112.164 111.597C112.134 111.432 112.027 111.346 111.86 111.346C110.833 111.336 110.139 110.96 109.796 110.216C109.512 109.599 109.747 108.875 110.334 108.527C111.087 108.083 111.763 107.987 112.34 108.228C112.604 108.334 112.858 108.325 113.103 108.199C115.314 107.07 115.128 104.56 116.977 103.933C117.28 103.827 117.515 103.643 117.681 103.373C118.757 101.616 121.066 100.014 121.418 98.1899C121.575 97.3695 121.624 96.3947 121.575 95.2654C121.555 94.7538 121.771 94.3678 122.221 94.1168L122.534 93.9527C122.778 93.8176 123.082 93.9624 123.121 94.2326C123.326 95.6418 123.189 97.7749 122.094 98.8752C121.536 99.4351 121.233 100.169 121.184 101.066C121.154 101.404 120.978 101.713 120.685 101.896C119.873 102.408 119.521 103.151 119.648 104.145C119.677 104.367 119.628 104.57 119.501 104.753C119.442 104.821 119.374 104.879 119.296 104.927C119.08 105.053 118.797 104.966 118.689 104.744L118.425 104.193C118.259 103.846 118.063 103.827 117.818 104.126C117.691 104.29 117.672 104.502 117.779 104.763C118.356 106.24 117.975 107.253 116.654 107.794C115.637 108.209 115.392 108.633 115.147 109.618C115.05 109.975 114.864 110.023 114.59 109.763C114.492 109.666 114.424 109.531 114.375 109.348C114.238 108.769 114.15 108.778 114.101 109.377Z" fill="black"/>
<path d="M70.83 95.2846C70.9279 95.2943 71.0257 95.2943 71.1137 95.2943C71.329 95.2943 71.4953 95.3812 71.6225 95.5452C72.2192 96.3657 72.1801 97.1185 71.5051 97.8231C71.28 98.0644 71.0159 98.103 70.7224 97.9582C69.48 97.3116 68.668 96.3367 68.2864 95.024C68.1886 94.6959 68.306 94.4835 68.6484 94.387C69.2354 94.2133 69.705 94.3773 70.0669 94.8696C70.2528 95.1302 70.5072 95.275 70.83 95.2846Z" fill="black"/>
<path d="M86.1698 96.9831C85.847 97.0507 85.485 96.6935 85.3676 96.1916C85.26 95.6801 85.4263 95.2071 85.7492 95.1396C86.072 95.072 86.434 95.4291 86.5514 95.931C86.659 96.4426 86.4927 96.9155 86.1698 96.9831Z" fill="black"/>
<path d="M105.756 96.356L105.55 96.0375C105.364 95.7672 105.433 95.5935 105.756 95.5163C106.382 95.3619 106.754 95.6128 106.881 96.2691C106.988 96.8965 106.852 97.3888 106.47 97.7459C106.245 97.9582 106.079 97.9196 105.951 97.6397C105.844 97.3984 105.815 97.1378 105.863 96.8772C105.893 96.6938 105.863 96.5201 105.756 96.356Z" fill="black"/>
<path d="M77.3749 98.1318C76.9445 98.3924 76.2597 98.0932 75.8586 97.4465C75.4574 96.7998 75.4868 96.0663 75.9173 95.796C76.3477 95.5354 77.0325 95.8346 77.4336 96.4813C77.8348 97.128 77.8054 97.8615 77.3749 98.1318Z" fill="black"/>
<path d="M79.7129 96.4621C80.0162 96.1628 80.4173 96.1435 80.9162 96.4041C81.2293 96.5682 81.288 96.9929 81.0141 97.2342C80.6521 97.5527 80.2608 97.6106 79.8401 97.3886C79.3607 97.1377 79.3216 96.8288 79.7129 96.4621Z" fill="black"/>
<path d="M113.709 98.0161C113.7 98.1802 113.592 98.3347 113.426 98.3829C113.103 98.4891 112.78 98.4794 112.438 98.354C111.899 98.1609 111.674 97.8617 111.772 97.4467C111.909 96.8869 112.496 96.549 113.054 96.7035C113.514 96.8289 113.729 97.2729 113.709 98.0161Z" fill="black"/>
<path d="M94.9454 97.6975L95.3759 97.157C95.6498 96.8095 95.8455 96.8481 95.9727 97.2825C96.0216 97.4659 96.0118 97.6396 95.9335 97.8037C95.8846 97.9099 95.7966 97.9967 95.6694 98.0739C95.1117 98.4021 94.5541 98.7496 94.0062 99.1164C93.478 99.4735 93.3606 99.3673 93.6541 98.8075C93.8399 98.4697 94.1041 98.2187 94.4661 98.0643C94.6519 97.9774 94.8183 97.852 94.9454 97.6975Z" fill="black"/>
<path d="M89.5842 98.8751C89.3788 98.6821 89.5255 98.1898 89.9168 97.7844C90.3179 97.3694 90.7973 97.1957 91.0028 97.3887C91.2082 97.5818 91.0615 98.074 90.6701 98.4794C90.269 98.8944 89.7896 99.0682 89.5842 98.8751Z" fill="black"/>
<path d="M101.93 99.213C101.793 99.1937 101.666 99.1551 101.549 99.0876C101.334 98.9814 101.226 98.8269 101.226 98.6436C101.226 98.547 101.246 98.4505 101.295 98.354C101.412 98.1513 101.578 98.0837 101.803 98.1513C102.723 98.4602 103.486 98.991 104.102 99.7342C104.22 99.879 104.21 100.004 104.073 100.13L103.858 100.333C103.858 100.333 103.789 100.371 103.75 100.342C103.32 100.101 102.909 99.8211 102.517 99.4929C102.351 99.3482 102.155 99.2613 101.93 99.213Z" fill="black"/>
<path d="M109.816 98.2863C110.06 98.4504 110.246 98.6434 110.383 98.8654C110.51 99.0681 110.52 99.2998 110.413 99.5411C110.266 99.8596 110.011 100.101 109.64 100.265C109.327 100.4 108.965 100.226 108.886 99.8886C108.779 99.4253 108.798 98.9813 108.955 98.5662C109.082 98.2188 109.503 98.0836 109.816 98.2863Z" fill="black"/>
<path d="M84.3503 100.053C84.4481 100.555 84.0568 101.047 83.4698 101.153C82.8828 101.269 82.335 100.95 82.2372 100.458C82.1393 99.9562 82.5306 99.464 83.1176 99.3578C83.7046 99.242 84.2525 99.5605 84.3503 100.053Z" fill="black"/>
<path d="M72.3463 102.861C71.8278 103.276 71.0451 102.958 70.9669 102.301L70.9179 101.886C70.8495 101.298 71.2701 100.767 71.8571 100.67L73.8627 100.352C74.1073 100.303 74.254 100.41 74.2931 100.661L74.4301 101.558C74.4692 101.819 74.2931 102.06 74.029 102.099C73.4029 102.205 72.8452 102.465 72.3463 102.861Z" fill="black"/>
<path d="M99.3086 101.761C99.5336 102.06 99.5825 102.34 99.4455 102.601C99.2988 102.9 99.1423 102.91 98.9857 102.601C98.6824 102.051 98.5064 101.452 98.4672 100.805C98.4574 100.526 98.5553 100.477 98.7607 100.661C98.9466 100.825 99.0542 101.027 99.1031 101.288C99.1325 101.462 99.201 101.616 99.3086 101.751V101.761Z" fill="black"/>
<path d="M87.1777 102.273C87.2657 101.626 87.4222 101.269 87.6668 101.182C87.9212 101.095 88.2049 101.24 88.2831 101.491C88.5473 102.34 88.4103 102.813 87.8723 102.919C87.4809 102.997 87.1287 102.668 87.1777 102.273Z" fill="black"/>
<path d="M77.9129 103.73C77.5509 104.107 77.1303 104.174 76.6705 103.923C76.1519 103.643 75.7508 103.305 75.4671 102.91C75.1443 102.437 75.2617 102.157 75.8291 102.051L77.864 101.674C78.1966 101.616 78.4021 101.751 78.4901 102.07C78.6369 102.62 78.451 103.18 77.9129 103.73Z" fill="black"/>
<path d="M107.536 102.292C107.859 102.678 107.683 103.363 107.125 103.827C106.568 104.28 105.854 104.338 105.521 103.952C105.198 103.566 105.374 102.881 105.932 102.418C106.49 101.964 107.204 101.906 107.536 102.292Z" fill="black"/>
<path d="M110.726 104.048C110.794 103.228 111.244 102.726 112.076 102.543C112.457 102.456 112.712 102.61 112.829 102.987C112.937 103.353 112.946 103.73 112.849 104.116C112.761 104.463 112.496 104.734 112.154 104.84C111.107 105.158 110.285 105.853 109.708 106.905C109.542 107.214 109.278 107.349 108.935 107.301L108.661 107.272C108.309 107.224 108.202 107.04 108.339 106.722L108.896 105.38C109.023 105.071 109.258 104.898 109.601 104.869C109.826 104.849 110.041 104.801 110.246 104.714C110.54 104.589 110.696 104.367 110.726 104.048Z" fill="black"/>
<path d="M90.8268 103.383C91.1888 103.238 91.4138 103.354 91.5116 103.73C91.5801 103.971 91.5703 104.28 91.492 104.647C91.4138 104.975 91.2083 105.168 90.8757 105.216C90.4746 105.284 90.0833 105.236 89.7213 105.072C89.3789 104.908 89.2908 104.657 89.4767 104.328C89.6724 103.971 90.1224 103.662 90.8268 103.383Z" fill="black"/>
<path d="M96.8238 104.078C96.5596 104.705 96.1977 105.052 95.7378 105.13C95.3563 105.197 95.1606 105.043 95.1509 104.657L95.1313 103.856C95.1215 103.518 95.278 103.315 95.6107 103.228C96.0998 103.103 96.4814 103.209 96.7455 103.527C96.8825 103.691 96.9118 103.875 96.8238 104.078Z" fill="black"/>
<path d="M101.158 103.923C101.246 103.788 101.422 103.739 101.559 103.826L101.657 103.875C102.86 104.579 103.672 105.419 103.476 105.747L103.202 106.201C103.007 106.529 101.872 106.23 100.669 105.515L100.571 105.467C100.434 105.38 100.385 105.207 100.473 105.071L101.158 103.923Z" fill="black"/>
<path d="M98.9075 107.842C98.5357 107.659 98.1346 107.62 97.7139 107.716C97.352 107.794 97.0193 107.514 97.0389 107.157C97.0487 107.031 97.0683 106.925 97.0976 106.819C97.2248 106.394 97.4694 106.317 97.8313 106.577C98.3792 106.993 98.9858 107.186 99.651 107.166C99.9934 107.157 100.179 107.321 100.209 107.659C100.228 107.861 100.199 108.054 100.111 108.247C99.9836 108.546 99.7782 108.614 99.4945 108.44C99.4064 108.373 99.3282 108.286 99.2597 108.18C99.1814 108.035 99.064 107.919 98.9075 107.842Z" fill="black"/>
<path d="M107.38 106.934C107.683 106.867 107.8 106.992 107.751 107.291C107.663 107.88 107.36 108.527 106.842 109.251C106.392 109.888 105.433 109.888 104.993 109.241C104.709 108.836 104.709 108.411 104.993 107.977C105.443 107.282 106.558 107.118 107.38 106.934Z" fill="black"/>
<path d="M93.928 107.938C93.9671 107.677 94.0845 107.446 94.2704 107.253C94.515 107.002 94.9357 107.098 95.0629 107.427C95.19 107.764 95.2194 108.121 95.1607 108.498C95.1118 108.836 94.9259 109.058 94.603 109.164C93.6932 109.473 92.891 109.338 92.1866 108.758C91.8931 108.508 91.8149 108.093 92.0007 107.764C92.1964 107.417 92.4312 107.262 92.6953 107.291C92.9203 107.32 93.0671 107.446 93.1356 107.668C93.1845 107.842 93.2725 107.986 93.3997 108.112C93.6834 108.392 93.8595 108.334 93.928 107.938Z" fill="black"/>
<path d="M106.763 113.276C107.262 114.009 107.36 114.733 107.047 115.457C106.137 117.542 105.335 117.494 104.64 115.322C104.533 114.974 104.415 114.627 104.298 114.28C104.132 113.768 103.78 113.459 103.261 113.334L102.527 113.15C101.96 113.015 101.813 113.198 102.097 113.7C102.87 115.081 103.202 116.229 103.095 117.127C103.065 117.445 102.889 117.648 102.566 117.716L100.649 118.131C100.336 118.198 100.14 118.082 100.052 117.774C99.8858 117.165 99.4945 116.673 98.8782 116.297C98.5847 116.123 98.5944 115.969 98.9173 115.833C99.3967 115.631 99.7978 115.447 100.14 115.283C100.561 115.061 100.6 114.801 100.248 114.482C99.6119 113.913 98.8684 113.633 98.0172 113.633C97.665 113.642 97.3226 113.498 97.0781 113.237C96.5204 112.639 96.2954 111.982 96.4128 111.268C96.4715 110.901 96.6867 110.699 97.0683 110.67C98.9564 110.506 99.9347 111.258 100.003 112.928C100.013 113.247 100.189 113.411 100.512 113.411C101.148 113.411 101.637 113.179 101.999 112.726C102.85 111.673 102.606 110.892 101.285 110.399C101.128 110.342 101.099 110.139 101.236 110.042L102.156 109.396C102.341 109.27 102.586 109.251 102.782 109.357C103.085 109.521 103.349 109.743 103.574 110.023C103.828 110.332 103.789 110.602 103.466 110.843L103.144 111.085C102.87 111.287 102.831 111.529 103.036 111.799C103.398 112.272 103.74 112.6 104.073 112.803C104.905 113.305 105.981 112.755 106.039 111.799C106.059 111.5 106.382 111.191 107.018 110.882C107.8 110.506 108.74 110.699 109.287 111.365C109.953 112.166 110.207 113.141 110.06 114.299C110.011 114.608 109.835 114.801 109.532 114.868C109.415 114.897 109.287 114.907 109.16 114.878C108.798 114.81 108.642 114.608 108.671 114.251L108.72 113.758C108.749 113.459 108.661 113.208 108.456 112.986C108.123 112.648 107.654 112.533 107.037 112.629C106.597 112.697 106.509 112.919 106.763 113.276Z" fill="black"/>
</g>
<defs>
<clipPath id="clip0_2225_125">
<rect width="180" height="180" fill="white"/>
</clipPath>
</defs>
</svg>
