<svg width="120" height="120" viewBox="0 0 120 120" fill="none" xmlns="http://www.w3.org/2000/svg">
<g clip-path="url(#clip0_2014_61)">
<path d="M80.5491 24.9543L87.6918 15.8675C88.245 15.1733 89.2777 15.1609 89.8432 15.8303L90.5808 16.6981C90.9988 17.2064 91.0111 17.9378 90.6177 18.4584L84.2372 26.727C83.9667 27.0741 83.5488 27.2725 83.1062 27.2601L81.594 27.2229C80.4507 27.1981 79.836 25.8593 80.5491 24.9543Z" fill="black"/>
<path d="M105.014 36.7687C105.665 37.8225 104.202 39.9299 101.756 41.4795C99.2972 43.0415 96.7892 43.463 96.1377 42.4092C95.4861 41.3555 96.9491 39.2481 99.3955 37.6985C101.854 36.1365 104.362 35.715 105.014 36.7687Z" fill="black"/>
<path d="M12.9946 38.3801L20.543 43.2148C21.4651 43.8098 21.4528 45.1735 20.5185 45.7313L19.3874 46.4007C18.9325 46.6735 18.367 46.6735 17.8999 46.4131L8.59344 40.9214C7.31489 40.1776 7.83123 38.1941 9.31878 38.1817L12.1955 38.1445C12.4783 38.1445 12.7488 38.2313 12.9946 38.3801Z" fill="black"/>
<path d="M15.5886 60.5082C11.3964 61.128 7.16737 61.3884 2.91371 61.3016C2.48343 61.2892 2.17608 61.0784 2.01626 60.6694C1.75809 59.9875 1.7458 59.2561 1.99167 58.4999C2.12691 58.1032 2.38508 57.8553 2.77848 57.7437C6.42974 56.7396 10.081 56.7644 13.7323 57.8181C14.138 57.9421 14.7404 57.9297 15.5641 57.7933C15.982 57.7313 16.3263 57.8677 16.5844 58.2024C16.8672 58.5743 16.9164 59.0206 16.732 59.5537C16.5599 60.0619 16.1173 60.4214 15.5886 60.5082Z" fill="black"/>
<path d="M119.951 66.8678C119.828 67.9959 118.82 68.8017 117.713 68.6778L102.248 66.9546C101.141 66.8306 100.33 65.8265 100.453 64.6984L100.49 64.3513C100.613 63.2232 101.621 62.4174 102.727 62.5414L118.193 64.2645C119.299 64.3885 120.111 65.3926 119.988 66.5207L119.951 66.8678Z" fill="black"/>
<path d="M17.568 76.6365C18.0351 77.6283 17.6294 78.8183 16.6582 79.2894L2.87686 86.0332C1.89335 86.5043 0.713145 86.0952 0.245979 85.1159L0.196804 85.0043C-0.270361 84.0126 0.135335 82.8225 1.10655 82.3514L14.8879 75.6076C15.8714 75.1365 17.0516 75.5456 17.5188 76.525L17.568 76.6365Z" fill="black"/>
<path d="M105.223 95.6899C104.374 96.5577 102.985 96.5577 102.125 95.7147L92.8429 86.4916C91.9823 85.6362 91.97 84.2354 92.8183 83.3676L93.0273 83.1569C93.8756 82.2891 95.2648 82.2891 96.1253 83.1321L105.407 92.3552C106.268 93.2106 106.28 94.6114 105.432 95.4792L105.223 95.6899Z" fill="black"/>
<path d="M10.8679 105.967C10.1548 106.76 8.95002 106.81 8.17551 106.091L8.12634 106.041C7.35183 105.335 7.30265 104.12 8.0034 103.326L19.3629 90.7809C20.0759 89.9875 21.2807 89.9379 22.0552 90.6569L22.1044 90.7065C22.8789 91.4131 22.9281 92.628 22.2274 93.4214L10.8679 105.967Z" fill="black"/>
<path d="M32.591 115.562C32.0132 116.579 30.7346 116.95 29.7142 116.38L29.6282 116.331C28.6078 115.76 28.239 114.459 28.8168 113.43L37.238 98.2935C37.8159 97.2769 39.0944 96.905 40.1148 97.4753L40.2009 97.5249C41.2212 98.0951 41.5901 99.3968 41.0123 100.426L32.591 115.562Z" fill="black"/>
<path d="M77.1807 102.918C76.7381 102 76.8734 101.207 77.5741 100.537C78.3486 99.7936 79.6026 99.8927 80.2419 100.761L88.3189 111.707C89.1549 112.835 89.0197 113.814 87.9009 114.67C87.7411 114.781 87.569 114.868 87.3846 114.905C85.7864 115.24 84.5447 114.818 83.6596 113.665C81.3115 110.579 79.16 106.996 77.1807 102.918Z" fill="black"/>
<path d="M51.4496 118.265C51.2406 119.418 50.1342 120.174 48.9909 119.951L48.7942 119.913C47.6508 119.703 46.9009 118.587 47.1222 117.434L49.3597 105.521C49.5687 104.368 50.6751 103.612 51.8185 103.835L52.0152 103.872C53.1585 104.083 53.9084 105.199 53.6871 106.351L51.4496 118.265Z" fill="black"/>
<path d="M69.3741 116.132C69.5462 117.198 68.8209 118.203 67.7636 118.376L66.7432 118.537C65.6859 118.711 64.6901 117.979 64.518 116.913L63.0551 107.727C62.883 106.661 63.6083 105.657 64.6656 105.484L65.6859 105.322C66.7432 105.149 67.739 105.88 67.9111 106.946L69.3741 116.132Z" fill="black"/>
<path d="M91.7118 56.058C88.5155 38.8142 71.7713 27.5084 54.3017 30.806C36.8445 34.0911 25.276 50.7399 28.4847 67.9837C31.6811 85.2275 48.4253 96.5332 65.8948 93.2357C83.352 89.9506 94.9205 73.3018 91.7118 56.058ZM70.8615 83.7399C58.4571 89.839 43.5815 84.8184 37.6436 72.5208C31.6934 60.2233 36.9183 45.3101 49.3227 39.2109C61.7272 33.1118 76.6027 38.1324 82.5407 50.4299C88.4909 62.7275 83.266 77.6407 70.8615 83.7399Z" fill="black"/>
<path d="M76.8978 48.7191C83.7455 57.7439 81.7908 70.8472 72.5335 77.9877C63.2763 85.1158 50.2325 83.591 43.3849 74.5662C36.5372 65.5414 38.4919 52.4381 47.7492 45.2976C57.0064 38.1695 70.0502 39.6943 76.8978 48.7191Z" fill="black"/>
<path d="M67.3086 1.83482C67.4807 0.669533 68.538 -0.136252 69.7059 0.0249053H69.8043C70.9599 0.210856 71.7713 1.28937 71.5992 2.45466L69.1527 19.6365C68.9806 20.8018 67.9233 21.6075 66.7554 21.4464H66.6571C65.5014 21.2604 64.69 20.1819 64.8621 19.0166L67.3086 1.83482Z" fill="black"/>
<path d="M30.2428 29.8264C30.9805 30.5206 31.1403 31.314 30.7223 32.1942C30.2674 33.1735 29.0626 33.533 28.1529 32.9504L16.7073 25.6735C15.5271 24.9297 15.3058 23.9628 16.0435 22.7603C16.1541 22.5991 16.2771 22.4504 16.4369 22.3512C17.8138 21.4586 19.1169 21.3967 20.3586 22.1528C23.6533 24.1735 26.9358 26.7396 30.2428 29.8264Z" fill="black"/>
<path d="M48.7572 6.16101C48.536 5.00812 49.2982 3.90481 50.4415 3.69407L50.6382 3.65688C51.7815 3.44614 52.8757 4.21473 53.0847 5.35523L55.2607 17.2808C55.482 18.4337 54.7197 19.537 53.5764 19.7478L53.3797 19.785C52.2364 19.9957 51.1422 19.2271 50.9332 18.0866L48.7572 6.16101Z" fill="black"/>
<path d="M32.7876 14.6654C32.2467 13.7356 32.554 12.5331 33.4884 11.9877L34.3858 11.467C35.3078 10.9216 36.5003 11.2439 37.0413 12.1736L41.676 20.2067C42.217 21.1364 41.9096 22.3389 40.9753 22.8844L40.0778 23.405C39.1558 23.9505 37.9633 23.6282 37.4224 22.6984L32.7876 14.6654Z" fill="black"/>
</g>
<defs>
<clipPath id="clip0_2014_61">
<rect width="120" height="120" fill="white"/>
</clipPath>
</defs>
</svg>
