<svg width="681" height="657" viewBox="0 0 681 657" fill="none" xmlns="http://www.w3.org/2000/svg">
<g clip-path="url(#clip0_208_130)">
<path d="M312.397 364.182C322.588 380.765 334.144 377.514 346.909 371.782H346.9C352.632 369.255 365.726 355.739 366.129 349.11C370.579 275.671 288.259 324.917 312.397 364.182Z" fill="#6C2C00"/>
<path fill-rule="evenodd" clip-rule="evenodd" d="M309.604 12.1536C303.28 12.1536 297.397 11.7739 291.817 11.4138C265.26 9.69989 245.547 8.42764 217.724 50.6126C198.375 79.9147 190.564 116.964 190.564 153.857C157.197 136.203 89.2706 111.827 53.3481 144.178C39.1 156.998 35.8584 167.199 31.1884 187.216C29.3734 194.99 28.1064 202.588 26.8569 210.081C23.8576 228.067 20.9591 245.447 10.8235 263.217C8.47734 267.331 6.66986 270.179 5.27812 272.371C3.56999 275.061 2.48813 276.765 1.80524 278.616C0.62554 281.814 0.636518 285.451 0.66646 295.371C0.671755 297.125 0.677644 299.076 0.677644 301.256C0.677644 346.399 80.1595 414.618 125.376 414.618C123.571 417.318 119.162 422.119 113.66 428.109C104.458 438.128 92.2005 451.475 83.9596 463.882C73.649 479.449 57.3589 507.349 57.3589 530.818C57.3589 572.024 85.4916 586.307 115.927 601.76C131.719 609.778 148.132 618.112 161.555 630.684C164.836 633.757 167.593 636.464 170.019 638.846C184.027 652.597 187.001 655.518 216.075 655.518C256.879 655.518 314.237 615.008 336.736 580.624C342.23 572.218 355.627 545.736 357.797 536.487L364.051 544.408C365.732 546.771 367.126 548.92 368.675 551.31L368.677 551.315L368.687 551.331L368.71 551.365C369.377 552.395 370.074 553.471 370.836 554.627C397.785 595.632 449.586 654.831 502.384 647.249C528.212 643.541 538.826 628.198 552.958 607.771C564.264 591.43 577.821 571.836 603.22 552.338C642.329 522.285 626.488 467.408 608.119 430.624L584.787 394.436C582.749 391.931 581.386 390.664 580.377 389.727C578.34 387.835 577.748 387.284 575.96 380.591C607.524 377.963 680.825 337.434 680.825 292.73C680.825 271.526 667.892 251.824 654.881 232.003C645.164 217.2 635.404 202.33 630.956 186.721C630.475 185.031 630.019 183.409 629.581 181.852L629.58 181.848C623.188 159.13 620.621 150.008 600.381 137.942C557.809 112.564 510.881 124.222 473.161 133.593L473.16 133.594L473.149 133.596L473.143 133.598C468.543 134.741 464.079 135.849 459.777 136.853C459.777 135.05 459.782 133.19 459.786 131.281C459.873 94.0692 460.005 37.9702 428.754 14.8366C415.531 5.04787 403.526 1.34848 391.641 0.817383H385.322C375.504 1.21748 365.633 3.43222 355.082 5.79943C341.496 8.84776 326.783 12.1489 309.604 12.1536ZM322.524 261.689C296.454 226.215 254.003 191.529 213.072 167.611C203.979 112.111 241.018 24.8267 281.611 32.8298C310.001 38.4248 334.947 32.9914 356.381 28.3229C385.531 21.9737 408.186 17.0393 424.175 43.1863C455.803 94.9044 431.482 214.714 398.224 277.439C388.454 264.361 375.285 257.482 360.871 255.712C359.649 251.095 358.419 243.302 356.946 233.957L356.918 233.779C352.77 207.398 346.863 169.882 329.749 142.576C326.041 136.041 323.083 129.108 320.931 121.909C320.584 120.606 319.689 119.971 319.093 119.549C318.605 119.203 318.317 118.999 318.697 118.686C320.353 117.241 321.376 115.205 321.548 113.014C321.72 110.824 321.026 108.653 319.616 106.968C318.205 105.283 316.19 104.218 314.004 104.002C311.817 103.785 309.632 104.435 307.919 105.811C302.617 110.243 302.489 117.999 304.714 126.24C307.388 136.203 313.715 148.574 315.547 151.44C330.826 175.809 336.413 211.335 340.341 236.314L340.344 236.333L340.357 236.419C341.533 243.873 342.573 250.467 343.753 255.882C336.694 256.824 329.543 258.797 322.524 261.689ZM415.316 328.398C417.035 344.591 416.313 362.904 408.874 375.72C477.551 389.116 611.992 364.585 649.234 314.781C667.622 290.171 654.895 271.473 638.289 247.076C625.952 228.952 611.475 207.682 606.022 178.508C598.458 138.071 504.564 135.617 455.419 164.864L448.789 199.34C440.191 235.674 426.583 272.082 409.561 299.946H409.524C410.555 303.138 411.653 307.194 412.65 311.816C414.3 311.496 416.196 311.064 418.286 310.54C438.67 305.375 472.862 291.962 486.048 283.189C498.071 275.159 507.191 268.401 516.082 261.799C522.95 256.698 529.689 251.726 537.61 246.232C538.516 245.607 539.535 245.166 540.611 244.935C541.687 244.704 542.798 244.686 543.88 244.885C544.963 245.083 545.996 245.492 546.92 246.089C547.844 246.687 548.641 247.46 549.267 248.366C549.892 249.271 550.333 250.291 550.564 251.367C550.795 252.443 550.812 253.553 550.614 254.636C550.416 255.718 550.007 256.75 549.409 257.674C548.812 258.598 548.039 259.397 547.133 260.022C539.46 265.315 532.821 270.241 526.072 275.259C517.044 281.962 507.759 288.839 495.378 297.108C480.892 306.777 444.1 321.337 422.398 326.831C420.063 327.47 417.7 327.992 415.316 328.398ZM395.157 394.354C440.319 404.481 499.683 400.242 547.848 388.915L547.821 388.933C592.708 422.988 625.856 511.727 590.968 533.841C565.89 549.727 551.505 571.063 539.249 589.242C522.752 613.711 510.112 632.459 480.444 624.494C444.43 614.834 403.298 569.351 373.199 517.661C371.001 513.864 368.865 510.036 366.789 506.178C373.932 477.152 375.06 446.972 370.104 417.493C373.127 415.361 376.398 412.75 379.742 409.812C389.953 424.512 408.9 448.342 427.655 468.452C444.348 486.344 461.288 501.644 472.835 506.04C474.346 506.598 475.051 506.837 475.454 506.956L476.607 507.561C478.576 508.589 480.872 508.794 482.991 508.129C485.11 507.465 486.878 505.985 487.907 504.017C488.935 502.049 489.14 499.752 488.475 497.633C487.811 495.514 486.332 493.746 484.363 492.717L482.651 491.802C482.321 491.61 481.978 491.442 481.625 491.298L480.481 490.904C480.243 490.84 479.821 490.712 478.75 490.309C469.923 486.949 455.107 473.259 439.934 456.978C420.405 436.041 400.903 411.355 391.91 397.952C393.011 396.767 394.095 395.566 395.157 394.354ZM378.612 388.94C389.549 377.897 399.922 363.951 400.468 355.318C410.192 194.935 230.397 302.501 283.113 388.283C305.382 424.507 330.61 417.384 358.492 404.857V404.829C362.386 403.082 367.835 399.027 373.52 393.835C374.209 392.058 375.487 390.56 377.154 389.602C377.621 389.333 378.109 389.112 378.612 388.94ZM147.866 397.605C180.419 370.271 220.398 345.053 256.943 332.884C259.921 322.961 264.585 313.472 270.479 304.747C253.776 296.419 241.083 296.334 227.155 296.239L226.99 296.238C204.931 296.091 180.079 295.908 135.806 270.269C134.991 269.793 131.227 268.025 127.922 266.505C127.062 266.12 127.378 265.577 127.594 265.207C127.774 264.898 127.884 264.708 127.189 264.829C124.994 265.203 122.74 264.69 120.923 263.402C119.106 262.114 117.875 260.157 117.501 257.962C117.127 255.766 117.641 253.512 118.929 251.696C120.216 249.879 122.173 248.648 124.369 248.274C126.429 247.926 130.715 249.345 134.817 251.204C138.48 252.88 142.921 255.004 144.212 255.783C184.676 279.224 207.129 279.38 227.054 279.517C244.098 279.634 259.512 279.743 281.019 291.346C287.849 283.825 295.593 277.178 303.845 271.697C259.461 213.587 150.631 140.918 88.5019 151.513C58.2188 156.682 54.5769 178.961 49.8178 208.074C46.2808 229.712 42.1266 255.124 25.9602 280.094C2.61928 316.154 75.1328 381.076 117.95 391.808C127.805 394.292 137.793 396.212 147.866 397.559V397.605ZM350.398 427.181L350.357 427.197L350.352 427.163L350.398 427.181ZM350.357 427.197C330.228 435.063 312.487 437.258 296.597 430.127C280.946 482.836 248.565 504.439 208.157 531.398L208.145 531.405C202.147 535.398 195.957 539.527 189.566 543.94C188.66 544.566 187.641 545.007 186.565 545.239C185.489 545.47 184.378 545.487 183.296 545.289C182.213 545.09 181.18 544.68 180.256 544.083C179.332 543.486 178.534 542.712 177.909 541.807C177.284 540.901 176.843 539.882 176.612 538.806C176.381 537.731 176.364 536.619 176.562 535.536C176.76 534.454 177.169 533.421 177.767 532.497C178.364 531.573 179.137 530.776 180.043 530.151C186.453 525.746 192.725 521.543 198.823 517.478C237.596 491.614 268.411 471.057 281.907 420.309C276.245 415.144 270.83 408.435 265.632 399.976C257.439 386.98 253.146 371.907 253.261 356.545C185.711 383.64 87.5213 465.236 80.0309 527.247C76.374 557.496 98.0322 568.286 125.214 581.828C144.86 591.615 167.391 602.841 185.335 623.89C213.282 656.626 296.225 605.53 318.715 567.667C344.861 523.641 357.168 475.589 350.357 427.197Z" fill="#6C2C00"/>
</g>
<defs>
<clipPath id="clip0_208_130">
<rect width="681" height="656" fill="white" transform="translate(0 0.5)"/>
</clipPath>
</defs>
</svg>
