<svg width="90" height="121" viewBox="0 0 90 121" fill="none" xmlns="http://www.w3.org/2000/svg">
<g clip-path="url(#clip0_2209_155)">
<path d="M76.1609 46.5192C67.0569 35.3282 57.7198 23.9116 51.9112 10.6813C51.5534 9.86227 50.9043 9.53632 49.9806 9.70348C49.4729 9.79541 49.0901 10.23 49.0485 10.7482C48.8405 13.6316 49.19 16.3562 50.0971 18.9387C52.5354 25.8506 55.7642 32.637 59.792 39.2898C64.3024 46.7532 68.5381 53.7904 72.5076 60.4097C77.1928 68.2158 82.1276 78.9471 81.9778 88.1991C81.9778 88.4498 81.7531 88.642 81.5035 88.6086C81.3287 88.5835 81.2122 88.4164 81.1539 88.1071C79.0402 77.1585 74.1304 67.0959 68.38 57.8439C64.81 52.0938 61.0818 46.0177 57.2039 39.6074C53.5423 33.5647 50.6546 27.0457 48.5409 20.0503C46.8599 14.4841 47.509 7.94 46.9681 2.12303C46.8183 0.459849 44.9293 0.459849 43.7725 0.593572C43.0901 0.677149 42.6408 1.05325 42.4161 1.7135C40.1609 8.50832 39.4452 15.4201 40.2607 22.449C41.4757 33.0048 44.7878 43.2262 50.1886 53.1134C53.2594 58.7382 56.2053 64.1623 59.0263 69.3692C63.9029 78.3955 67.1068 87.0959 67.5978 96.9412C67.9473 104.02 66.1248 109.578 62.122 113.598C61.8807 113.841 61.5895 113.974 61.2483 113.999C60.8072 114.033 60.699 113.857 60.932 113.473C68.9293 100.477 64.061 85.65 57.7032 73.1886C53.7171 65.3742 49.7309 57.5597 45.7281 49.7453C43.398 45.182 41.2926 38.9387 39.4202 31.0073C37.5312 23.0006 38.4965 14.7682 37.4147 6.61112C37.3398 6.05951 36.9487 5.6082 36.4244 5.44104C34.3689 4.78914 33.595 6.97886 33.0125 8.41639C29.8752 16.164 26.2802 23.1427 22.2275 29.3692C18.3911 35.2697 14.5881 41.2288 10.8183 47.2547C5.02634 56.515 0.0166325 66.8201 -1.10558e-05 77.9525C-0.0416199 98.6797 16.0527 116.273 36.1747 119.666C40.7268 120.435 45.0291 120.694 49.0818 120.451C63.595 119.591 74.7212 113.523 82.4688 102.265C85.8141 97.3926 88.061 92.2526 89.2094 86.8284C92.38 71.8514 85.6061 58.128 76.1609 46.5192ZM8.84604 81.2204C8.61303 81.2371 8.38002 80.8025 8.33841 80.2509C8.2968 79.6993 8.45491 79.2396 8.69624 79.2145C8.92925 79.1978 9.16226 79.6324 9.20387 80.184C9.24548 80.7356 9.08737 81.1953 8.84604 81.2204ZM20.3717 104.279C19.9306 104.814 19.3648 105.09 18.6741 105.115C18.5825 105.123 18.491 105.123 18.4078 105.123C17.7503 105.149 17.6089 104.889 17.9833 104.346C24.1581 95.5706 23.068 88.1071 19.9556 78.8301C17.0097 70.0545 13.9556 61.0282 17.3759 52.5451C17.4424 52.3779 17.6255 52.286 17.8003 52.3278C17.975 52.3696 18.0915 52.5367 18.0749 52.7206C17.0263 62.7331 19.939 71.2831 23.2094 81.0616C25.8557 88.9429 25.939 97.5347 20.3717 104.279ZM32.8377 113.581C32.5631 113.707 32.2802 113.64 31.9972 113.381C31.8474 113.239 31.889 112.988 32.0804 112.913C32.4882 112.754 32.7795 112.796 32.9709 113.038C33.1456 113.272 33.104 113.456 32.8377 113.581ZM46.9431 116.607C46.1026 117.752 45.0874 118.454 43.8807 118.696C43.2649 118.822 43.1484 118.63 43.5229 118.128C47.0014 113.448 48.957 108.96 48.8238 102.967C48.6408 94.5844 46.5187 88.6504 42.4827 79.925C37.3232 68.7507 32.5132 57.6517 29.8752 45.5664C29.3259 43.0507 28.9598 38.4289 29.9501 36.0804C30.3828 35.0524 30.6408 35.0942 30.7157 36.2058C31.8807 52.9212 39.5201 67.2797 46.4272 82.1063C49.2399 88.1489 50.8793 94.5008 51.337 101.162C51.7281 106.879 50.2635 112.027 46.9431 116.607Z" fill="black"/>
</g>
<defs>
<clipPath id="clip0_2209_155">
<rect width="90" height="120" fill="white" transform="translate(0 0.542969)"/>
</clipPath>
</defs>
</svg>
