<svg width="115" height="120" viewBox="0 0 115 120" fill="none" xmlns="http://www.w3.org/2000/svg">
<g clip-path="url(#clip0_2205_52)">
<path d="M114.968 108.282C114.873 89.0831 114.822 57.2462 114.822 12.7589C114.822 6.62539 113.616 1.59718 106.313 0.715483C103.868 0.421584 101.798 0.261857 100.089 0.229911C77.234 -0.134267 54.3788 -0.0639871 31.5236 0.434362C22.8807 0.626035 14.3013 0.472697 6.06475 1.65468C2.50215 2.16581 0.584323 4.28699 0.298553 8.01822C0.088989 10.7655 -0.0126179 13.8451 8.29345e-05 17.2569C0.114391 48.2184 8.29397e-05 77.6338 0.412861 108.621C0.476365 113.33 0.343006 118.454 5.96314 119.54C7.04906 119.751 8.15404 119.859 9.27807 119.859C41.3986 119.917 73.519 119.962 105.646 120C107.849 120.006 109.57 119.815 110.815 119.425C115.578 117.943 114.987 112.384 114.968 108.282ZM110.726 94.2455C110.714 96.4816 110.701 98.705 110.688 100.922C110.669 104.072 110.485 106.276 110.136 107.548C108.961 111.752 105.132 115.515 100.464 115.764C99.5431 115.809 98.6731 115.834 97.8666 115.841C70.4264 115.968 40.2872 116 7.44279 115.936C5.41065 115.93 4.30568 113.719 4.23582 111.969C4.11516 108.928 4.03896 106.001 4.01356 103.197C3.77859 76.6754 3.74684 48.3973 3.9056 18.3558C3.9183 15.9407 4.01991 13.1231 5.32175 11.1744C8.02703 7.13652 11.4118 4.95784 16.1048 4.72145C24.1762 4.31893 32.781 4.30615 41.2906 4.01865C59.8593 3.40529 78.2946 3.39251 96.6029 3.98031C99.8479 4.08893 102.864 4.35088 105.652 4.77895C109.062 5.30285 110.802 7.34097 110.86 10.8933C110.936 15.4232 110.974 19.9403 110.968 24.4446C110.949 47.7073 110.866 70.9764 110.726 94.2455Z" fill="black"/>
<path d="M19.6927 15.832C19.7626 15.4934 19.7372 15.1548 19.6165 14.8098C19.4768 14.4009 19.8579 14.0048 20.2643 14.1389C22.4298 14.8353 23.503 16.2857 23.484 18.4963C23.4522 22.6109 18.0607 25.0259 15.7364 21.0775C14.714 19.346 14.9553 17.6338 16.4667 15.9406C16.8795 15.4806 17.5717 15.404 18.0734 15.7618C18.3782 15.9854 18.7148 16.1451 19.0831 16.2282C19.4197 16.3048 19.6229 16.1707 19.6927 15.832Z" fill="black"/>
<path d="M100.458 90.8403C100.489 92.0286 99.5559 93.0253 98.3747 93.0637L83.7623 93.4981C82.5748 93.5365 81.5841 92.5973 81.5524 91.4025V91.2747C81.5143 90.0864 82.4478 89.0897 83.629 89.0513L98.2413 88.6169C99.4289 88.5785 100.42 89.5177 100.451 90.7125V90.8403H100.458Z" fill="black"/>
<path d="M72.503 91.7923C72.5157 92.9679 71.5822 93.9262 70.4201 93.939L50.2003 94.1882C49.0382 94.2074 48.0792 93.2682 48.0665 92.0926V92.0031C48.0538 90.8275 48.9873 89.8692 50.1495 89.8564L70.3693 89.6072C71.5314 89.5881 72.4903 90.5273 72.503 91.7028V91.7923Z" fill="black"/>
<path d="M39.2012 92.3861C39.2266 93.5298 38.3312 94.4817 37.2008 94.5073L15.7808 95.0695C14.6441 95.1015 13.7042 94.2006 13.6724 93.057V92.9548C13.6407 91.8111 14.5361 90.8591 15.6728 90.8336L37.0928 90.2713C38.2296 90.2394 39.1694 91.1403 39.2012 92.2839V92.3861Z" fill="black"/>
<path d="M100.47 110.423C105.271 109.068 105.595 104.634 105.747 100.309C105.767 99.7336 106.052 99.3758 106.605 99.2289C106.795 99.1778 106.992 99.1267 107.202 99.0755C107.754 98.9286 108.072 99.1394 108.142 99.7081C108.993 106.397 106.757 112.889 99.1303 113.694C97.7777 113.841 94.8057 113.937 90.2016 113.981C89.7317 113.988 89.4713 113.751 89.4205 113.278L89.3126 112.32C89.2554 111.752 89.5094 111.451 90.081 111.426C93.5292 111.291 97.0918 111.368 100.47 110.423Z" fill="black"/>
<path d="M100.877 101.472C100.889 102.647 99.9557 103.606 98.7936 103.612L84.1749 103.765C83.0064 103.778 82.0538 102.839 82.0475 101.67V101.542C82.0348 100.366 82.9683 99.4079 84.1304 99.4015L98.7491 99.2482C99.9176 99.2354 100.87 100.175 100.877 101.344V101.472Z" fill="black"/>
<path d="M73.0934 101.912C73.1188 103.088 72.198 104.072 71.0295 104.104L50.4478 104.647C49.273 104.679 48.3013 103.753 48.2696 102.571V102.456C48.2378 101.28 49.1587 100.296 50.3335 100.264L70.9152 99.721C72.0901 99.6891 73.0617 100.615 73.0934 101.797V101.912Z" fill="black"/>
<path d="M39.2774 102.768C39.3028 103.906 38.4074 104.851 37.277 104.883L15.7808 105.413C14.6441 105.445 13.7042 104.545 13.6788 103.401V103.311C13.647 102.174 14.5425 101.229 15.6792 101.197L37.1754 100.666C38.3121 100.634 39.252 101.535 39.2774 102.679V102.768Z" fill="black"/>
<path d="M101.499 40.2641C101.099 39.7913 100.75 39.2802 100.451 38.7307C100.349 38.5455 100.305 38.341 100.324 38.1238C100.965 29.0129 98.2665 21.7549 92.2209 16.3561C84.829 9.74342 74.4968 8.13337 65.276 10.8998C64.3425 11.181 63.9741 11.7432 64.1647 12.593C64.2155 12.8102 64.3425 12.9507 64.552 13.0083C65.5046 13.2958 66.5016 13.366 67.5367 13.2127C74.2618 12.2096 80.1678 13.136 85.2544 16.0047C89.0965 18.1706 92.0494 21.0905 94.107 24.7642C95.5358 27.3134 96.3042 30.706 96.4122 34.942C96.4122 35.2487 96.2724 35.3893 95.9676 35.3701L93.999 35.2359C93.6688 35.2167 93.4211 35.0634 93.2496 34.7759C92.4812 33.5045 91.7001 32.2394 90.8936 30.9808C88.0804 26.5851 82.9365 22.6813 77.545 22.6111C76.8528 22.6047 76.2686 22.8027 75.7796 23.2052C75.5827 23.365 75.4049 23.3458 75.2398 23.1541C72.4266 19.7999 69.1116 17.3209 65.3077 15.7172C58.9383 13.0402 52.3973 12.8805 45.6976 15.238C40.9856 16.8928 37.0293 19.474 33.8286 22.9944C28.5514 28.8021 26.3923 35.0059 26.0176 42.6409C26.0049 42.9092 25.8652 43.0562 25.5985 43.0753C18.2891 43.7717 13.3675 47.2857 10.8337 53.6301C7.66486 61.5718 11.8942 69.8904 19.6354 72.6185C21.6485 73.3277 24.8745 73.6727 29.3135 73.6663C45.8945 73.6344 61.8468 73.6152 77.1703 73.6152C81.0632 73.6152 85.0703 72.6888 89.179 70.8232C96.1835 67.6414 100.997 62.6387 103.62 55.8088C105.557 50.7678 105.131 44.5065 101.499 40.2641ZM96.2661 41.9572C96.7614 41.8614 97.225 42.2128 97.2758 42.7175C97.3457 43.4523 97.2441 44.1679 96.9837 44.8643C96.7043 45.6054 95.7962 45.8801 95.1484 45.4137C93.275 44.0593 94.2403 42.3598 96.2661 41.9572ZM91.0143 48.4613L91.1159 48.3272C91.789 47.4646 93.0337 47.3113 93.8974 47.9886L93.9545 48.0333C94.1514 48.1866 94.1832 48.4677 94.0308 48.6594L92.0367 51.2278C91.8843 51.4259 91.6049 51.4578 91.4144 51.3045L91.3572 51.2598C90.4936 50.5825 90.3411 49.3303 91.0143 48.4613ZM89.0266 52.6718C89.2362 52.5951 89.4076 52.6526 89.5346 52.8379C89.6934 53.087 89.6617 53.2915 89.4267 53.464C88.3154 54.2882 87.4199 55.3424 86.7404 56.633C86.3658 57.3358 85.3815 57.3805 84.956 56.7097C83.4446 54.3201 87.5089 53.2148 89.0266 52.6718ZM88.0931 45.7204C88.2773 45.8546 88.2455 46.206 88.0232 46.5127C87.8073 46.813 87.4771 46.9471 87.2929 46.813C87.1088 46.6788 87.1405 46.3274 87.3628 46.0207C87.5787 45.7204 87.9089 45.5863 88.0931 45.7204ZM49.7555 38.4816C49.5714 38.603 49.3809 38.7052 49.1776 38.7755C48.9617 38.8521 48.7331 38.9033 48.4981 38.9288C47.8313 38.9991 47.5773 38.7116 47.7361 38.0599C48.0028 36.9546 48.5807 36.5201 49.4698 36.7565C50.2572 36.9737 50.4287 38.0216 49.7555 38.4816ZM55.871 31.7922C55.2741 32.1053 54.6327 32.0669 54.4422 31.7027C54.2516 31.3386 54.5819 30.7827 55.1788 30.4696C55.7757 30.1566 56.4171 30.1949 56.6076 30.5591C56.7982 30.9233 56.4679 31.4791 55.871 31.7922ZM61.4848 45.1837L60.7735 46.4616C60.6656 46.6596 60.5132 46.7874 60.3036 46.8449C59.605 47.0494 58.9637 47.0941 58.3731 46.9855C58.1508 46.9407 58.0301 46.698 58.1254 46.4871C58.608 45.4457 59.8464 43.7015 61.2054 44.334C61.5292 44.4809 61.6562 44.8707 61.4848 45.1837ZM60.9894 23.7355C59.4907 23.0519 58.7795 22.3938 56.8553 22.5024C56.633 22.5152 56.4552 22.3108 56.506 22.0872L56.6902 21.2119C56.7601 20.8604 57.0903 20.6177 57.4523 20.6496C59.4463 20.8413 61.3641 20.3493 61.8341 23.0711C61.9166 23.5566 61.434 23.94 60.9894 23.7355ZM61.0847 18.177L58.4683 17.9726C58.0619 17.947 57.7444 17.6148 57.7253 17.2059L57.6936 16.4967C57.6745 15.9983 58.1 15.6022 58.589 15.6597L59.5606 15.7747C59.6495 15.7811 59.7321 15.8067 59.8146 15.845L61.4848 16.6436C62.2849 17.027 61.9674 18.2409 61.0847 18.177ZM63.9869 18.0876C64.298 17.3848 64.8061 17.1867 65.511 17.4934C67.4478 18.3368 68.9275 19.6912 69.9563 21.5505C70.1214 21.8571 69.9753 22.2341 69.6451 22.3427C68.6608 22.6558 67.759 22.5152 66.9398 21.9083C66.0888 21.2821 65.1045 20.7454 64.3171 20.0299C63.7519 19.5124 63.6376 18.8671 63.9869 18.0876ZM66.3111 29.1216C66.3111 29.0768 66.3873 28.981 66.5461 28.8213C66.635 28.7318 66.6985 28.6296 66.7429 28.5082C66.8001 28.3612 66.8699 28.2207 66.9589 28.0929C67.3716 27.4668 68.3242 27.6329 68.5084 28.3549C68.6544 28.9107 68.4322 29.3835 67.8543 29.7668C67.2065 30.1885 66.3556 29.8371 66.3111 29.1216ZM69.3593 47.043C68.6798 47.6435 67.9114 47.8799 67.6383 47.5669C67.3716 47.2602 67.7019 46.5191 68.3813 45.9185C69.0608 45.3179 69.8292 45.0815 70.1023 45.3946C70.369 45.7013 70.0388 46.4424 69.3593 47.043ZM73.6967 28.291C72.2932 28.3357 69.7276 26.7895 71.0485 25.0198C71.4232 24.5086 72.1599 24.4447 72.6234 24.8728C73.3093 25.5117 73.83 26.419 74.192 27.5946C74.3254 28.0418 74.1602 28.2718 73.6967 28.291ZM76.4146 64.7024L75.4748 64.728C75.2144 64.7344 74.9985 64.5235 74.9921 64.268L74.9794 63.6291C74.9794 63.3671 75.1763 63.1499 75.4367 63.1435L76.3765 63.1179C76.6369 63.1115 76.8528 63.3224 76.8592 63.5779L76.8719 64.2169C76.8719 64.4788 76.675 64.696 76.4146 64.7024ZM81.8189 67.2389C81.5458 67.3922 81.1775 67.2581 80.9997 66.9322C80.8218 66.6064 80.9044 66.2294 81.1838 66.0697C81.4569 65.9164 81.8252 66.0505 82.003 66.3764C82.1808 66.7022 82.0983 67.0792 81.8189 67.2389ZM83.1652 59.2781C82.5873 60.2812 81.8633 61.0542 80.9806 61.6101C80.7456 61.757 80.5297 61.7315 80.3392 61.5207C79.9836 61.1181 79.7105 60.6517 79.5137 60.1087C79.4375 59.8978 79.5327 59.655 79.7423 59.5592C80.7647 59.08 81.8443 58.8692 82.9746 58.9203C83.2287 58.9331 83.2922 59.0545 83.1652 59.2781ZM78.0404 27.0451C77.2529 26.6554 76.5035 25.7481 75.7923 24.3297C75.6462 24.0422 75.697 24.0039 75.9447 24.2147C76.1797 24.4192 76.4591 24.5342 76.7766 24.5597C80.9298 24.8984 87.6676 27.7862 87.8264 32.6547C87.8391 32.987 87.4453 33.1722 87.1977 32.9486C85.9911 31.8433 84.8734 30.7508 83.4509 29.933C81.7744 28.9682 79.9709 28.0035 78.0404 27.0451ZM86.8992 62.6707L84.6702 64.0252C84.1876 64.3191 83.6414 63.7632 83.9336 63.2777C84.3971 62.511 85.0004 61.9359 85.7561 61.5462C85.9212 61.4568 86.1054 61.4312 86.2896 61.4632C86.6261 61.5206 86.8865 61.674 87.0643 61.9359C87.2294 62.1851 87.1532 62.5173 86.8992 62.6707ZM90.2205 65.3286C89.7696 65.8588 89.3124 66.2422 88.8488 66.485C88.4297 66.7022 88.2455 66.5744 88.3027 66.108C88.4741 64.696 88.9441 64.0252 89.7125 64.0891C90.3221 64.1402 90.6206 64.8621 90.2205 65.3286ZM93.8466 61.9871C93.5481 62.6835 92.9131 63.0732 92.4241 62.8624C91.9415 62.6515 91.789 61.9168 92.0875 61.2204C92.386 60.524 93.021 60.1342 93.51 60.3451C93.9926 60.5559 94.1451 61.2906 93.8466 61.9871ZM92.9893 56.0963C92.3161 56.5372 91.8081 57.0099 91.4652 57.5147C90.8809 58.3708 89.922 60.4217 88.6773 59.5656C88.4932 59.4442 88.4106 59.2717 88.4233 59.0545C88.5567 56.518 91.2937 57.2336 92.2653 55.6491C93.0274 54.3968 93.1671 53.1446 94.6721 52.4865C95.3135 52.199 95.5485 52.4034 95.3643 53.087C95.0532 54.269 94.2594 55.2721 92.9893 56.0963ZM96.3931 59.6998C95.6311 59.6678 95.0468 58.9075 95.0849 58.0003C95.1167 57.093 95.7581 56.3774 96.5138 56.403C97.2758 56.4349 97.8601 57.1952 97.822 58.1025C97.7902 59.0097 97.1488 59.7253 96.3931 59.6998ZM99.0285 53.2212C98.8507 53.4576 98.692 53.4512 98.5459 53.1893L97.7521 51.7581C97.6632 51.6048 97.5298 51.5281 97.352 51.5217L96.1772 51.4962C95.8978 51.4962 95.7708 51.1448 95.9803 50.9595C96.5392 50.4611 97.0599 49.8989 97.5425 49.2791C98.5459 47.9822 99.0285 48.1547 98.9968 49.7967C98.9841 50.6336 99.0666 51.4642 99.2445 52.2948C99.3143 52.6206 99.2445 52.9273 99.0285 53.2212Z" fill="black"/>
</g>
<defs>
<clipPath id="clip0_2205_52">
<rect width="115" height="120" fill="white"/>
</clipPath>
</defs>
</svg>
