<svg width="103" height="265" viewBox="0 0 103 265" fill="none" xmlns="http://www.w3.org/2000/svg">
<g clip-path="url(#clip0_208_494)">
<path d="M25.7002 16.0004C28.3002 21.8004 30.1002 28.0004 31.8002 34.0004C36.5002 50.4004 39.4002 67.3004 40.9002 84.3004C42.0002 96.0004 42.4002 107.8 42.2002 119.5C42.0002 132.8 41.2002 146.1 40.7002 159.4C39.7002 182.8 38.8002 206.1 37.8002 229.5C37.5002 237.2 37.1002 244.9 36.8002 252.5C36.6002 256.2 36.3002 259.9 36.3002 263.6C36.3002 263.8 36.3002 263.9 36.3002 264.1C36.3002 263.9 37.3002 263.7 37.3002 263.5C37.7002 254.2 38.1002 244.8 38.5002 235.5C39.5002 213.1 40.4002 190.7 41.3002 168.4C41.8002 155.1 42.4002 141.8 42.9002 128.5C43.4002 116.3 43.3002 104 42.5002 91.7004C41.3002 73.6004 38.6002 55.5004 34.0002 37.9004C32.6002 32.7004 31.1002 27.6004 29.4002 22.6004C28.9002 21.1004 28.3002 19.5004 27.7002 18.0004C27.4002 17.3004 27.2002 16.2004 26.8002 15.7004C26.8002 15.7004 26.8002 15.5004 26.7002 15.4004C26.7002 15.4004 25.7002 15.9004 25.7002 16.0004Z" fill="#231F20"/>
<path d="M25.4004 16.2004C28.6004 23.4004 30.8004 31.2004 32.8004 38.8004C34.8004 46.4004 36.5004 54.5004 37.8004 62.4004C40.5004 78.5004 41.8004 94.8004 42.0004 111.1C42.1004 127.6 41.1004 144 40.4004 160.5C39.7004 176.9 39.0004 193.3 38.4004 209.7C37.6004 227.9 36.9004 246 36.0004 264.2C36.0004 264.6 36.5004 264.7 36.7004 264.4C36.9004 264.2 37.4004 264.2 37.6004 264C38.0004 263.5 37.8004 262.7 37.8004 262.2C37.8004 260.2 38.0004 258.1 38.1004 256C38.3004 251.8 38.5004 247.6 38.6004 243.5C39.0004 235.1 39.3004 226.7 39.7004 218.2C40.4004 201.3 41.1004 184.4 41.8004 167.5C42.5004 150.6 43.5004 133.6 43.7004 116.6C43.9004 99.6004 42.8004 83.6004 40.4004 67.2004C38.0004 50.8004 34.4004 34.7004 28.7004 19.3004C28.2004 17.9004 27.7004 16.6004 27.1004 15.3004C27.0004 15.1004 26.7004 15.1004 26.5004 15.3004C26.2004 15.5004 25.8004 15.6004 25.5004 15.9004C25.1004 16.2004 25.7004 16.8004 26.0004 16.4004C26.3004 16.1004 26.7004 16.0004 27.0004 15.8004H26.4004C29.5004 22.8004 31.7004 30.4004 33.7004 37.9004C35.7004 45.4004 37.4004 53.6004 38.8004 61.5004C41.6004 77.8004 42.9004 94.4004 43.0004 110.9C43.1004 127.6 42.1004 144.3 41.4004 161C40.7004 177.7 40.0004 194.3 39.3004 211C38.6004 227.7 37.9004 244.3 37.2004 260.9C37.2004 261.6 37.4004 263.1 36.8004 263.6C36.6004 263.8 36.3004 263.8 36.1004 264.1L36.8004 264.3C38.3004 231.4 39.6004 198.5 41.0004 165.6C41.7004 149 42.7004 132.4 42.8004 115.7C42.8004 99.4004 41.8004 83.2004 39.4004 67.1004C38.1004 58.2004 36.3004 49.3003 34.1004 40.6004C31.9004 31.9004 29.6004 23.8004 26.2004 16.0004C26.0004 15.6004 25.4004 16.0004 25.6004 16.4004L25.4004 16.2004Z" fill="#231F20"/>
<path d="M85.8002 58.9004C84.5002 60.2004 83.3002 61.6004 82.0002 62.9004C78.9002 66.3004 75.8002 69.8004 72.8002 73.4004C68.8002 78.2004 64.9002 83.0004 61.1002 88.0004C57.2002 93.2004 53.5002 98.6004 50.1002 104.2C47.2002 109.1 44.5002 114.3 42.7002 119.7C42.5002 120.3 42.3002 120.9 42.2002 121.4C42.2002 121.1 43.2002 121.1 43.2002 120.8C44.6002 115.4 47.2002 110.3 49.9002 105.5C53.1002 99.9004 56.8002 94.5004 60.6002 89.3004C64.4002 84.2004 68.3002 79.2004 72.4002 74.4004C75.5002 70.6004 78.8002 66.9004 82.1002 63.3004C83.1002 62.2004 84.2002 61.0004 85.2002 59.9004C85.5002 59.6004 85.8002 59.2004 86.2002 58.9004C86.3002 58.7004 86.6002 58.6004 86.7002 58.4004C86.4002 58.7004 85.9002 58.7004 85.7002 59.0004L85.8002 58.9004Z" fill="#231F20"/>
<path d="M85.5 58.6996C78.4 66.0996 71.6 73.9996 65.3 82.0996C59.2 89.8996 53.3 97.8996 48.4 106.6C45.7 111.3 43.4 116.2 42 121.4C42 121.7 42.4 122.1 42.6 121.8C42.9 121.4 43.5 121.5 43.7 121C43.9 120.5 44 119.8 44.2 119.3C44.4 118.6 44.7 117.9 44.9 117.2C45.8 114.8 46.8 112.5 48 110.2C50.3 105.6 53 101.2 55.9 96.9996C61.9 88.0996 68.5 79.6996 75.5 71.5996C79.3 67.1996 83.1 62.7996 87.1 58.6996C87.4 58.3996 87 57.8996 86.6 58.0996C86.3 58.2996 85.9 58.4996 85.6 58.6996C85.2 58.9996 85.6 59.5997 86 59.3997C86.3 59.1997 86.7 58.9996 87 58.7996L86.5 58.1996C79.2 65.7996 72.4 73.7996 65.9 81.9996C59.5 90.0996 53.5 98.3997 48.6 107.4C47.3 109.8 46.1 112.3 45 114.8C44.5 116 44 117.3 43.6 118.6C43.4 119.3 43.3 120.4 42.7 120.8C42.5 121 42.2 121 42 121.2L42.6 121.6C45.1 112.2 50.5 103.7 56 95.7996C61.7 87.4996 68 79.5997 74.6 71.8997C78.3 67.5997 82.1 63.2996 86 59.1996C86.3 58.8996 85.8 58.2996 85.5 58.6996Z" fill="#231F20"/>
<path d="M6.90039 123.7C8.30039 125.7 10.6004 127.3 12.8004 128.4C13.9004 129 15.2004 129.5 16.4004 129.9C17.6004 130.3 18.9004 130.5 20.1004 130.9C21.5004 131.4 22.8004 132.2 24.0004 133.1C27.0004 135.5 29.5004 138.7 31.7004 141.8C33.9004 144.9 36.0004 148.2 37.9004 151.6C38.9004 153.4 40.0004 155.2 40.9004 157.1L41.9004 156.5C39.4004 151.7 36.6004 147 33.5004 142.5C31.3004 139.3 28.8004 136 25.9004 133.4C24.7004 132.4 23.4004 131.4 22.0004 130.7C21.2004 130.3 20.3004 130.2 19.5004 129.9C18.1004 129.6 16.8004 129.1 15.5004 128.6C12.7004 127.4 9.60039 125.6 7.90039 123.1L6.90039 123.7Z" fill="#231F20"/>
<path d="M6.60032 123.9C8.60032 126.7 11.9003 128.6 15.1003 129.9C17.2003 130.7 19.5003 130.9 21.4003 132C23.2003 133 24.8003 134.4 26.2003 135.9C29.2003 138.9 31.6003 142.5 33.9003 146C36.2003 149.5 38.5003 153.5 40.5003 157.4C40.5003 157.6 40.9003 157.6 41.0003 157.5C41.4003 157.3 41.8003 157.1 42.1003 156.8C42.2003 156.7 42.2003 156.5 42.1003 156.3C40.1003 152.4 37.9003 148.6 35.6003 145C33.3003 141.5 31.0003 138.1 28.1003 135.1C26.8003 133.7 25.4003 132.4 23.8003 131.3C22.1003 130.2 20.3003 129.8 18.4003 129.2C14.6003 128.1 10.5003 126.1 8.20033 122.8C8.20033 122.7 7.9003 122.6 7.8003 122.6C7.4003 122.7 7.10033 123.1 6.70033 123.2C6.30033 123.4 6.70032 124.1 7.10032 123.9C7.40032 123.7 7.70032 123.5 8.00032 123.3L7.60032 123.1C9.50032 125.8 12.4003 127.6 15.4003 128.8C17.4003 129.6 19.5003 130 21.5003 130.7C23.6003 131.5 25.5003 133.2 27.1003 134.9C30.1003 137.9 32.6003 141.5 34.9003 145.1C37.2003 148.7 39.6003 152.6 41.6003 156.6V156.1C41.4003 156.3 41.0003 156.4 40.7003 156.6H41.2003C37.4003 149.4 33.0003 141.8 27.3003 135.7C26.0003 134.3 24.7003 133 23.1003 131.9C21.5003 130.7 19.7003 130.2 17.8003 129.7C13.9003 128.7 9.60033 126.6 7.20033 123.2C6.90033 122.8 6.30032 123.2 6.60032 123.6V123.9Z" fill="#231F20"/>
<path d="M43.3001 119.2C41.9001 117.5 40.4001 115.9 38.7001 114.4C36.3001 112.3 32.9001 109.8 29.5001 110.2C28.8001 110.2 28.2001 110.5 27.5001 110.9C27.2001 111.1 27.0001 111.1 26.9001 111.4C26.7001 112.2 26.7001 113.2 26.8001 114C26.9001 115.3 27.3001 116.6 28.2001 117.6C29.4001 119.1 31.3001 119.6 33.2001 119.8C35.6001 120 38.0001 120.2 40.3001 120C40.9001 120 41.6001 120 42.2001 119.7C42.6001 119.6 42.9001 119.2 43.2001 119.1C42.7001 119.3 42.0001 119.3 41.4001 119.4C39.2001 119.6 37.0001 119.4 34.8001 119.2C32.6001 119 30.5001 118.7 29.1001 116.9C28.2001 115.8 27.8001 114.4 27.8001 113C27.8001 112.2 27.8001 111.3 28.0001 110.5L27.0001 111.1C29.7001 110 32.6001 111.3 34.9001 112.8C37.2001 114.3 39.2001 116.2 41.0001 118.3C41.4001 118.8 41.8001 119.2 42.2001 119.7L43.2001 119.1L43.3001 119.2Z" fill="#231F20"/>
<path d="M43.6 118.9C41.6 116.4 39.4 114.2 36.8 112.4C34.6 110.8 31.8 109.4 29 110C27.9 110.3 26.8 110.7 26.6 111.9C26.4 113.2 26.5 114.6 26.9 115.9C27.8 118.6 30.1 119.9 32.8 120.2C34.8 120.5 36.8 120.6 38.8 120.6C39.7 120.6 40.6 120.6 41.5 120.4C42.3 120.3 42.8 119.9 43.5 119.6C43.9 119.4 43.6 118.8 43.2 118.9C41.6 119.4 39.6 119.3 37.9 119.2C36.2 119.1 34.4 119 32.7 118.7C31.1 118.3 29.7 117.5 28.9 116.1C28.1 114.5 28 112.6 28.4 110.9C28.4 110.6 28.1 110.3 27.9 110.5L26.9 111.1C26.5 111.3 26.8 111.9 27.2 111.8C30.9 110.4 34.7 113.1 37.4 115.4C38.8 116.6 40 117.9 41.2 119.3C41.5 119.6 41.8 120.4 42.4 120.3C42.8 120.3 43 119.8 43.4 119.7C43.9 119.6 43.7 118.9 43.2 119C42.9 119 42.4 119.7 42.2 119.6C42.5 119.6 42.2 119.3 42.2 119.2C42.1 119 41.9 118.8 41.7 118.6C41.4 118.2 41 117.9 40.7 117.5C39.4 116.2 38.1 114.9 36.6 113.8C33.9 111.8 30.4 109.8 27 111L27.3 111.7L28.3 111.1L27.8 110.7C27 114.1 28.1 118 31.7 119.2C33.4 119.8 35.4 119.9 37.2 120C39.2 120.1 41.6 120.3 43.5 119.7L43.2 119C42.6 119.3 42.2 119.6 41.5 119.8C40.8 119.9 40 119.9 39.3 120C37.8 120 36.4 120 34.9 119.8C32.4 119.6 29.4 119.3 28 116.8C27.4 115.7 27.2 114.4 27.2 113.2C27.2 112.6 27.2 111.9 27.7 111.5C28.2 111.1 28.9 110.9 29.6 110.8C32.2 110.5 34.6 111.9 36.6 113.3C39 115.1 41.2 117.2 43 119.6C43.3 120 43.8 119.4 43.5 119.1L43.6 118.9Z" fill="#231F20"/>
<path d="M43.3 101.7C41.9 100 40.4 98.5 38.9 96.9C37.6 95.7 36.3 94.5 34.9 93.4C33.7 92.5 32.4 91.6 31 91.3C30.5 91.2 29.9 91.1 29.4 91.3C28.9 91.4 28.2 91.8 27.9 92.1C27.5 92.5 27.5 93.7 27.5 94.2C27.5 95.7 27.6 97.4 28.3 98.7C29.3 100.7 31.2 101.8 33.3 102.5C36.6 103.5 40.4 103.7 43.4 101.6C43.1 101.8 42.7 102 42.4 102.2C42 102.5 43.1 101.8 43.1 101.8C42.9 101.8 42.6 102 42.4 102.1C41.8 102.3 41.1 102.5 40.5 102.6C38.2 102.9 35.8 102.4 33.6 101.6C31.8 101 30.3 99.8 29.4 98.1C28.8 96.8 28.5 95.4 28.5 94C28.5 93.5 28.5 92.9 28.6 92.4C28.6 92.2 28.8 91.8 28.8 91.6C28.8 91.3 27.8 92 28.2 91.9C28.4 91.9 28.7 91.8 28.9 91.7C29.4 91.7 29.9 91.7 30.4 91.9C33.2 92.8 35.6 95.2 37.6 97.2C39.2 98.8 40.7 100.4 42.2 102.1L43.2 101.5L43.3 101.7Z" fill="#231F20"/>
<path d="M43.5996 101.4C41.2996 98.6 38.6996 95.9 35.8996 93.7C33.7996 92 30.8996 89.9 28.1996 91.5C27.1996 92.1 27.1996 93.1 27.0996 94.2C27.0996 95.7 27.0996 97.2 27.6996 98.6C28.7996 101.2 31.2996 102.6 33.8996 103.3C37.0996 104.1 40.5996 104.1 43.3996 102.1C43.7996 101.8 43.3996 101.2 42.9996 101.4C42.5996 101.6 42.0996 101.8 41.7996 102.1C41.5996 102.4 41.7996 102.9 42.1996 102.7C42.4996 102.6 42.8996 102.4 43.0996 102.2C43.3996 102 43.0996 101.4 42.6996 101.6C41.5996 102 40.5996 102.4 39.2996 102.4C37.9996 102.4 36.7996 102.4 35.5996 102.1C33.5996 101.6 31.4996 100.9 30.0996 99.2C28.5996 97.4 28.2996 94.7 28.7996 92.5C28.7996 92.1 29.0996 91.4 28.4996 91.3C28.1996 91.3 27.6996 91.5 27.4996 91.8C27.4996 92 27.4996 92.1 27.4996 92.3C27.4996 92.5 27.6996 92.4 27.8996 92.4C28.0996 92.4 28.2996 92.4 28.3996 92.3C28.7996 92.3 29.0996 92.3 29.4996 92.3C30.3996 92.5 31.1996 92.9 31.9996 93.4C33.6996 94.4 35.0996 95.7 36.4996 97C37.8996 98.3 39.2996 99.8 40.6996 101.3C40.9996 101.7 41.5996 102.7 42.0996 102.6C42.2996 102.6 42.3996 102.4 42.5996 102.4C42.6996 102.4 42.7996 102.2 42.9996 102.2C43.4996 102.2 43.4996 101.4 42.9996 101.4C42.5996 101.4 42.2996 101.8 41.9996 101.9C41.9996 101.7 41.5996 101.5 41.4996 101.3C41.0996 100.9 40.7996 100.5 40.3996 100.1C39.0996 98.7 37.7996 97.3 36.3996 96C35.0996 94.8 33.7996 93.7 32.2996 92.8C31.5996 92.4 30.8996 92 30.0996 91.8C29.6996 91.7 29.2996 91.6 28.8996 91.5C28.7996 91.5 27.7996 91.5 27.9996 91.7V92.2C28.0996 92.2 28.1996 92.2 28.2996 92C28.0996 92 27.9996 92 27.9996 92.1C27.9996 92.1 27.9996 92.3 27.9996 92.4C27.9996 92.9 27.8996 93.4 27.8996 93.8C27.8996 94.8 27.8996 95.8 28.1996 96.7C28.5996 98.5 29.6996 100 31.1996 101C32.7996 102.1 34.8996 102.7 36.7996 102.9C37.7996 103.1 38.8996 103.1 39.8996 102.9C40.8996 102.7 41.8996 102.4 42.8996 102.1L42.4996 101.5C42.4996 101.5 42.0996 101.8 41.8996 101.8L42.2996 102.4C42.4996 102.1 43.0996 102 43.2996 101.8L42.8996 101.1C40.6996 102.7 37.8996 103 35.2996 102.5C32.8996 102.1 30.2996 101.2 28.8996 99.2C28.0996 98 27.6996 96.6 27.5996 95.1C27.5996 94.2 27.3996 92.4 28.1996 91.9C30.6996 90.2 33.8996 93 35.6996 94.5C38.2996 96.6 40.5996 99.1 42.6996 101.7C42.9996 102.1 43.4996 101.5 43.1996 101.2L43.5996 101.4Z" fill="#231F20"/>
<path d="M49.4002 105.7C51.7002 104.6 54.1002 103.7 56.5002 103.1C59.9002 102.2 64.6002 101.4 67.5002 103.9C67.8002 104.2 67.9002 104.2 67.9002 104.6C67.9002 104.9 67.8002 105.2 67.7002 105.5C67.3002 106.5 66.8002 107.4 65.9002 108.1C65.8002 108.1 65.7002 108.3 65.5002 108.4C64.8002 108.9 66.2002 108.1 65.7002 108.3C65.3002 108.5 64.9002 108.7 64.4002 108.8C63.4002 109 62.4002 109.1 61.4002 109C58.6002 108.8 55.9002 107.9 53.3002 107C52.5002 106.7 51.7002 106.4 50.9002 106.1C50.7002 106 50.1002 105.8 50.0002 105.5C50.0002 105.4 50.0002 105.2 50.0002 105.2C50.3002 106 48.6002 105.8 49.2002 105.7C49.6002 105.7 49.9002 105.2 50.2002 105.1C50.2002 105.1 50.1002 105.1 50.0002 105.1C49.8002 105.2 49.0002 105.5 48.9002 105.8C48.7002 106.2 49.7002 106.6 50.0002 106.7C52.3002 107.7 54.9002 108.4 57.3002 109C59.5002 109.5 62.0002 109.8 64.2002 109C66.4002 108.1 68.3003 106.5 68.8003 104.1C68.8003 103.7 68.8002 103.7 68.6002 103.4C67.9002 102.7 67.0002 102.3 66.1002 102C64.1002 101.4 61.9002 101.5 59.8002 101.9C56.5002 102.5 53.2002 103.6 50.2002 105C49.9002 105.2 49.5002 105.5 49.2002 105.6L49.4002 105.7Z" fill="#231F20"/>
<path d="M49.5004 106C53.2004 104.2 57.4004 102.8 61.5004 102.6C63.3004 102.6 65.3004 102.8 66.8004 103.9C67.3004 104.3 67.5004 104.6 67.3004 105.3C67.1004 105.8 66.9004 106.3 66.6004 106.8C66.2004 107.3 65.8004 107.7 65.3004 108.1C65.2004 108.1 65.0004 108.3 65.0004 108.4C64.8004 108.7 65.1004 109 65.4004 108.9C65.6004 108.9 65.9004 108.7 66.1004 108.5C66.3004 108.3 66.1004 107.9 65.8004 107.9C65.5004 107.9 65.0004 108.2 64.6004 108.3C63.9004 108.5 63.2004 108.6 62.5004 108.6C61.0004 108.6 59.4004 108.4 57.9004 108C56.5004 107.7 55.2004 107.2 53.9004 106.8C53.4004 106.6 50.3004 105.8 50.3004 105.3H49.6004C49.6004 105.3 49.4004 105.3 49.3004 105.4C49.1004 105.6 49.0004 104.8 49.3004 105.6L49.1004 106C49.4004 105.8 49.9004 105.5 50.2004 105.4C50.6004 105.2 50.5004 104.5 50.0004 104.7C49.4004 104.9 48.0004 105.4 48.5004 106.3C48.7004 106.7 49.2004 106.9 49.6004 107C50.4004 107.4 51.2004 107.7 52.0004 108C53.9004 108.7 55.8004 109.2 57.8004 109.6C59.6004 110 61.4004 110.2 63.2004 109.7C64.6004 109.4 66.0004 108.6 67.1004 107.6C68.0004 106.7 69.1004 105.3 69.1004 104C69.1004 102.9 67.4004 102.2 66.5004 101.9C64.8004 101.2 62.9004 101.2 61.1004 101.4C56.9004 101.9 52.7004 103.3 49.0004 105.4C48.6004 105.6 49.0004 106.3 49.4004 106.1C52.6004 104.3 56.2004 103 59.9004 102.4C61.9004 102.1 64.0004 101.9 66.0004 102.5C66.6004 102.7 68.0004 103.2 68.3004 103.8C68.6004 104.5 68.0004 105.5 67.6004 106.1C65.4004 109.4 61.2004 109.7 57.7004 108.9C55.9004 108.5 54.2004 108 52.4004 107.4C51.5004 107.1 50.7004 106.8 49.9004 106.4C49.6004 106.2 49.2004 106.2 49.5004 105.9C49.6004 105.7 50.1004 105.6 50.3004 105.5L50.1004 104.8C49.7004 105 49.3004 105.3 48.8004 105.5C48.7004 105.5 48.6004 105.8 48.6004 105.9C48.9004 106.7 50.5004 106.1 50.2004 105.2C50.2004 104.9 49.5004 104.8 49.5004 105.2C49.3004 106.2 50.5004 106.5 51.2004 106.8C52.8004 107.5 54.4004 108 56.1004 108.5C57.8004 109 59.4004 109.4 61.0004 109.5C61.8004 109.5 62.5004 109.5 63.3004 109.5C63.7004 109.5 64.1004 109.4 64.5004 109.2C64.7004 109.2 65.3004 108.8 65.5004 108.8L65.2004 108.2C65.2004 108.2 64.9004 108.4 64.8004 108.4L65.2004 108.9C65.4004 108.6 66.0004 108.3 66.2004 108.1C66.6004 107.7 66.9004 107.2 67.2004 106.7C67.5004 106.1 68.1004 105 67.8004 104.2C67.5004 103.4 66.3004 103 65.7004 102.7C64.8004 102.3 63.8004 102.1 62.8004 102C60.7004 101.8 58.6004 102.2 56.5004 102.7C53.8004 103.4 51.2004 104.3 48.8004 105.5C48.4004 105.7 48.8004 106.4 49.2004 106.2L49.5004 106Z" fill="#231F20"/>
<path d="M57.9997 93.4C58.1997 91.7 58.1997 90.1 57.9997 88.4C57.7997 85.6 57.2997 82.4 55.5997 80.1C54.7997 78.9 53.6997 78 52.2997 77.6C51.8997 77.5 51.8997 77.5 51.5997 77.6C51.3997 77.7 51.0997 77.9 50.8997 78C50.6997 78.1 50.4997 78.3 50.3997 78.5C49.4997 79.4 48.8997 80.5 48.5997 81.7C48.0997 83.9 48.9997 86 50.0997 87.9C51.3997 89.9 52.8997 91.8 54.8997 93.1C55.4997 93.5 56.1997 93.9 56.8997 94C57.1997 94 57.5997 93.4 57.8997 93.4C57.3997 93.4 56.8997 93.1 56.4997 92.9C55.0997 92.2 53.9997 91.1 52.9997 89.9C50.4997 87 48.0997 83 50.2997 79.3C50.6997 78.6 51.1997 78 51.8997 77.5L50.8997 78.1C56.5997 79.5 57.1997 87.4 56.9997 92.3C56.9997 92.9 56.9997 93.5 56.8997 94.1C56.8997 93.9 57.8997 93.7 57.8997 93.5L57.9997 93.4Z" fill="#231F20"/>
<path d="M58.3999 93.4002C58.6999 90.2002 58.5999 86.8002 57.7999 83.7002C57.0999 81.1002 55.6999 78.5002 53.0999 77.4002C52.6999 77.2002 52.2999 77.1002 51.7999 77.2002C51.1999 77.4002 50.6999 77.8002 50.1999 78.3002C49.1999 79.3002 48.4999 80.6002 48.1999 82.0002C47.6999 85.0002 49.3999 87.8002 51.1999 90.0002C52.1999 91.3002 53.2999 92.5002 54.6999 93.4002C55.2999 93.8002 56.1999 94.4002 56.8999 94.4002C57.4999 94.4002 57.5999 93.9002 58.0999 93.8002C58.4999 93.8002 58.4999 93.1001 58.0999 93.1001C56.4999 92.8001 55.0999 91.5002 53.9999 90.4002C52.8999 89.3002 51.9999 88.0001 51.1999 86.6001C49.5999 83.7001 49.3999 80.0002 52.2999 77.8002C52.5999 77.5002 52.1999 77.0002 51.7999 77.2002L50.7999 77.8002C50.4999 78.0002 50.5999 78.4002 50.7999 78.5002C53.7999 79.3002 55.2999 82.0002 55.9999 84.9002C56.6999 87.8002 56.7999 91.1001 56.4999 94.1001C56.4999 94.5001 56.9999 94.6002 57.1999 94.3002C57.2999 94.1002 57.9999 94.1002 58.1999 93.7002C58.3999 93.3002 57.7999 92.9002 57.5999 93.3002C57.4999 93.6002 56.7999 93.5002 56.5999 93.9002L57.2999 94.1001C57.7999 88.7001 57.5999 79.5002 50.9999 77.8002V78.5002L52.0999 77.9002L51.5999 77.3002C48.5999 79.6002 48.5999 83.4001 50.0999 86.6001C50.8999 88.2001 51.9999 89.6002 53.1999 90.9002C54.3999 92.2002 55.9999 93.6002 57.6999 93.9002V93.2002C57.3999 93.2002 57.1999 93.5002 56.8999 93.7002C56.3999 94.0002 55.5999 93.4001 55.0999 93.1001C53.9999 92.4001 53.0999 91.6001 52.1999 90.6001C50.4999 88.7001 48.7999 86.3002 48.5999 83.7002C48.5999 82.4002 48.8999 81.1002 49.5999 80.0002C49.9999 79.5002 50.3999 79.0001 50.8999 78.6001C51.5999 78.1001 52.1999 78.2001 52.8999 78.6001C55.0999 79.8001 56.1999 82.4002 56.7999 84.7002C57.4999 87.6002 57.5999 90.7002 57.2999 93.7002C57.2999 94.2002 57.9999 94.2002 58.0999 93.7002L58.3999 93.4002Z" fill="#231F20"/>
<path d="M64.2002 84.1996C65.7002 87.4996 69.1002 90.1996 72.7002 90.8996C74.7002 91.2996 76.7002 91.1996 78.6002 90.6996C78.7002 90.6996 79.6002 90.1996 79.6002 90.0996C79.8002 89.1996 79.6002 88.1996 79.2002 87.3996C78.2002 85.1996 75.7002 84.1996 73.5002 83.6996C70.8002 83.1996 67.9002 83.2996 65.2002 83.5996C64.8002 83.5996 64.5002 84.1996 64.2002 84.1996C68.0002 83.7996 72.7002 83.4996 76.1002 85.5996C77.5002 86.4996 78.5002 87.8996 78.6002 89.5996C78.6002 89.8996 78.6002 90.2996 78.6002 90.5996L79.6002 89.9996C76.4002 90.7996 73.1002 90.5996 70.3002 88.8996C68.5002 87.8996 67.0002 86.3996 65.9002 84.5996C65.7002 84.2996 65.4002 83.8996 65.3002 83.4996L64.3002 84.0996L64.2002 84.1996Z" fill="#231F20"/>
<path d="M63.9002 84.3999C65.0002 86.6999 66.9002 88.6999 69.2002 89.8999C71.7002 91.2999 74.5002 91.6999 77.3002 91.2999C78.0002 91.1999 79.4002 90.9999 79.9002 90.2999C80.4002 89.4999 79.9002 87.7999 79.5002 86.9999C78.4002 84.8999 76.1002 83.7999 73.9002 83.3999C72.2002 82.9999 70.4002 82.8999 68.7002 82.9999C67.7002 82.9999 66.8002 82.9999 65.8002 83.1999C65.5002 83.1999 65.2002 83.1999 64.9002 83.3999C64.6002 83.5999 64.4002 83.7999 64.1002 83.8999C63.7002 83.9999 63.8002 84.6999 64.2002 84.5999C67.0002 84.2999 70.0002 84.0999 72.7002 84.5999C75.4002 85.0999 78.7002 87.1999 78.2002 90.4999C78.2002 90.7999 78.4002 91.0999 78.7002 90.8999L79.7002 90.2999C80.1002 90.0999 79.8002 89.4999 79.4002 89.5999C76.6002 90.2999 73.6002 90.1999 71.0002 88.8999C68.6002 87.6999 66.6002 85.6999 65.5002 83.2999C65.4002 83.0999 65.1002 83.0999 64.9002 83.2999C64.6002 83.4999 64.1002 83.5999 63.9002 83.8999C63.6002 84.2999 64.1002 84.7999 64.4002 84.3999C64.6002 84.0999 65.2002 84.0999 65.4002 83.7999H64.8002C66.1002 86.2999 68.3002 88.4999 70.9002 89.6999C73.7002 90.9999 76.7002 91.0999 79.7002 90.3999L79.4002 89.6999L78.4002 90.2999L78.9002 90.6999C79.4002 87.4999 76.9002 85.1999 74.0002 84.1999C70.8002 83.0999 67.4002 83.3999 64.1002 83.6999V84.3999C64.6002 84.2999 64.8002 83.9999 65.2002 83.7999C65.8002 83.5999 66.7002 83.5999 67.4002 83.5999C68.7002 83.5999 70.0002 83.5999 71.3002 83.5999C73.5002 83.7999 76.0002 84.2999 77.7002 85.7999C78.6002 86.5999 79.1002 87.6999 79.2002 88.8999C79.2002 89.4999 79.2002 89.7999 78.6002 90.0999C78.1002 90.2999 77.5002 90.3999 77.0002 90.4999C74.5002 90.8999 71.9002 90.4999 69.6002 89.2999C67.3002 88.0999 65.5002 86.1999 64.4002 83.8999C64.2002 83.4999 63.5002 83.8999 63.8002 84.2999L63.9002 84.3999Z" fill="#231F20"/>
<path d="M66.8005 81.6998C67.2005 80.2998 67.4004 78.7998 67.5004 77.3998C67.7004 74.6998 67.6004 71.8998 66.6004 69.2998C66.0004 67.7998 65.0004 66.5998 63.6004 65.7998C63.6004 65.7998 62.7004 66.2998 62.6004 66.3998C60.7004 67.7998 59.0004 69.9998 58.6004 72.2998C58.2004 74.5998 59.4004 76.4998 60.8004 78.2998C61.8004 79.5998 63.1004 81.1998 64.6004 81.9998C64.9004 82.1998 65.5005 82.4998 65.9005 82.2998C66.2005 82.0998 66.6005 81.7998 66.9005 81.6998C66.6005 81.7998 66.1005 81.6998 65.8005 81.4998C64.4005 80.7998 63.3004 79.4998 62.3004 78.2998C60.9004 76.5998 59.5004 74.6998 59.6004 72.2998C59.7004 70.5998 60.5004 69.0998 61.6004 67.7998C62.2004 66.9998 62.9004 66.2998 63.7004 65.7998L62.7004 66.3998C67.4004 69.1998 67.0004 75.9998 66.2004 80.5998C66.2004 81.0998 66.0005 81.6998 65.9005 82.1998C65.9005 81.8998 66.9005 81.8998 66.9005 81.5998L66.8005 81.6998Z" fill="#231F20"/>
<path d="M67.0999 81.7996C67.8999 78.5996 68.1999 75.0996 67.5999 71.8996C67.2999 70.3996 66.8999 68.9996 65.9999 67.7996C65.5999 67.2996 65.1999 66.7996 64.6999 66.3996C64.3999 66.0996 63.7999 65.5996 63.3999 65.5996C62.6999 65.5996 61.5999 66.6996 61.0999 67.0996C59.9999 68.0996 59.0999 69.2996 58.4999 70.5996C57.2999 73.3996 58.0999 75.8996 59.7999 78.2996C60.7999 79.5996 61.7999 80.8996 63.0999 81.8996C63.5999 82.2996 64.2999 82.7996 64.9999 82.8996C65.6999 82.8996 66.1999 82.4996 66.6999 82.1996C67.0999 81.9996 66.7999 81.3996 66.3999 81.4996C65.6999 81.6996 64.6999 80.7996 64.2999 80.4996C63.7999 79.9996 63.2999 79.4996 62.7999 78.9996C61.7999 77.7996 60.7999 76.5996 60.0999 75.1996C58.5999 71.8996 60.7999 68.3996 63.4999 66.3996C63.8999 66.0996 63.4999 65.4996 63.0999 65.6996L62.0999 66.2996C61.8999 66.3996 61.8999 66.7996 62.0999 66.9996C67.0999 69.9996 66.2999 77.5996 65.0999 82.3996C64.9999 82.7996 65.5999 83.0996 65.7999 82.6996C65.9999 82.3996 66.5999 82.4996 66.7999 82.0996C66.9999 81.6996 66.3999 81.2996 66.1999 81.6996C65.9999 81.9996 65.3999 81.8996 65.1999 82.2996L65.8999 82.5996C67.1999 77.3996 67.7999 69.5996 62.4999 66.2996V66.9996L63.4999 66.3996L63.0999 65.6996C60.0999 67.8996 57.7999 71.6996 59.3999 75.3996C60.0999 77.0996 61.3999 78.4996 62.5999 79.7996C63.4999 80.7996 65.0999 82.5996 66.5999 82.1996L66.2999 81.4996C65.6999 81.7996 65.1999 82.1996 64.4999 81.8996C63.8999 81.5996 63.3999 81.1996 62.9999 80.7996C62.0999 79.9996 61.2999 78.9996 60.5999 77.9996C59.0999 75.9996 58.0999 73.6996 58.9999 71.1996C59.4999 69.9996 60.1999 68.9996 61.0999 68.0996C61.4999 67.6996 61.9999 67.2996 62.4999 66.8996C62.6999 66.7996 63.0999 66.3996 63.2999 66.3996C63.5999 66.3996 64.1999 67.0996 64.3999 67.2996C64.7999 67.6996 65.1999 68.1996 65.4999 68.7996C66.0999 69.8996 66.4999 71.0996 66.6999 72.3996C67.1999 75.3996 66.8999 78.7996 66.0999 81.7996C65.9999 82.2996 66.6999 82.4996 66.7999 81.9996L67.0999 81.7996Z" fill="#231F20"/>
<path d="M75.9003 70.6C74.5003 68.9 73.4003 67 72.5003 65C70.9003 61.4 70.1003 57.2 71.8003 53.5L70.8003 54.1C72.6003 54.9 74.2003 56.5 75.2003 58.2C76.2003 60 76.4003 62 76.3003 64.1C76.2003 66 76.0003 67.9 75.6003 69.8C75.5003 70.3 75.4003 70.9 75.1003 71.3C75.3003 71 75.9003 71 76.1003 70.7C76.3003 70.4 76.4003 70 76.5003 69.6C77.0003 68 77.1003 66.3 77.3003 64.6C77.5003 62.4 77.5003 60.3 76.6003 58.3C76.0003 57 75.0003 55.8 73.9003 54.8C73.3003 54.3 72.7003 53.8 71.9003 53.5C71.9003 53.5 70.9003 54 70.9003 54.1C69.2003 57.8 70.0003 62 71.6003 65.6C72.5003 67.6 73.6003 69.6 75.0003 71.2L76.0003 70.6H75.9003Z" fill="#231F20"/>
<path d="M76.1997 70.2997C72.5997 65.8997 69.6997 59.1997 72.0997 53.5997C72.1997 53.2997 71.8997 52.8997 71.5997 53.0997L70.5997 53.6997C70.3997 53.7997 70.2997 54.1997 70.5997 54.3997C73.4997 55.6997 75.4997 58.4997 75.7997 61.5997C75.9997 63.1997 75.7997 64.7997 75.5997 66.3997C75.5997 67.2997 75.3997 68.0997 75.1997 68.9997C75.0997 69.6997 74.9997 70.4997 74.4997 71.0997C74.1997 71.4997 74.7997 71.7997 75.0997 71.5997C75.4997 71.1997 75.9997 71.2997 76.2997 70.6997C76.6997 70.0997 76.7997 69.1997 76.8997 68.4997C77.1997 66.8997 77.3997 65.1997 77.4997 63.4997C77.6997 60.1997 76.7997 57.1997 74.3997 54.8997C73.7997 54.2997 72.3997 52.8997 71.3997 53.1997C70.2997 53.5997 69.9997 54.4997 69.7997 55.5997C68.9997 58.7997 69.5997 62.1997 70.8997 65.1997C71.6997 66.9997 72.5997 68.7997 73.7997 70.3997C73.9997 70.6997 74.4997 71.5997 74.8997 71.5997C75.2997 71.5997 75.5997 71.0997 75.9997 70.9997C76.4997 70.9997 76.2997 70.1997 75.7997 70.2997C75.5997 70.2997 75.3997 70.4997 75.1997 70.5997C75.1997 70.5997 74.9997 70.7997 74.8997 70.7997C74.9997 70.7997 74.6997 70.2997 74.5997 70.2997C74.4997 70.0997 74.3997 69.9997 74.1997 69.7997C73.3997 68.6997 72.6997 67.4997 72.0997 66.2997C70.8997 63.7997 69.9997 60.8997 70.0997 58.0997C70.0997 57.3997 70.1997 56.6997 70.3997 56.0997C70.4997 55.4997 70.6997 54.6997 71.0997 54.2997C71.4997 53.9997 71.5997 53.8997 71.9997 54.1997C72.5997 54.5997 73.1997 54.9997 73.6997 55.3997C75.8997 57.3997 76.7997 59.9997 76.7997 62.8997C76.7997 64.4997 76.5997 66.0997 76.3997 67.6997C76.2997 68.3997 76.0997 69.0997 75.8997 69.7997C75.6997 70.2997 75.4997 70.4997 75.0997 70.7997C74.8997 70.7997 74.7997 70.9997 74.5997 71.0997L75.1997 71.5997C75.5997 70.9997 75.6997 70.3997 75.8997 69.6997C76.0997 68.7997 76.1997 67.8997 76.3997 66.8997C76.5997 65.0997 76.7997 63.1997 76.4997 61.3997C75.9997 58.1997 73.8997 55.2997 70.9997 53.8997V54.5997L71.9997 53.9997L71.4997 53.4997C68.8997 59.4997 71.8997 66.3997 75.6997 71.0997C75.9997 71.4997 76.4997 70.8997 76.1997 70.5997V70.2997Z" fill="#231F20"/>
<path d="M78.5004 66.9996C77.8004 69.7996 78.0004 73.5996 80.4004 75.5996C81.4004 76.3996 82.6004 76.7996 83.9004 76.9996C84.6004 76.9996 85.6004 77.2996 86.2004 76.9996C86.5004 76.7996 86.8004 76.6996 87.0004 76.4996C87.6004 75.7996 87.4004 74.4996 87.2004 73.7996C86.8004 72.5996 86.0004 71.5996 85.2004 70.6996C83.6004 68.9996 81.6004 67.6996 79.6004 66.5996L79.1004 66.8996L78.6004 67.1996C81.2004 68.6996 84.2004 70.5996 85.7004 73.2996C86.3004 74.2996 86.7004 75.5996 86.3004 76.6996C86.3004 76.8996 86.2004 77.0996 86.0004 77.1996L87.0004 76.5996C84.3004 76.5996 81.4004 75.9996 80.1004 73.3996C79.2004 71.6996 79.1004 69.6996 79.3004 67.8996C79.3004 67.4996 79.4004 66.9996 79.5004 66.5996C79.5004 66.5996 79.1004 66.7996 79.0004 66.8996C79.0004 66.8996 78.5004 67.0996 78.5004 67.1996V66.9996Z" fill="#231F20"/>
<path d="M78.2003 66.8998C77.7003 68.8998 77.7003 71.0998 78.3003 72.9998C79.1003 75.1998 80.8003 76.5998 83.0003 77.0998C84.0003 77.2998 85.3003 77.5998 86.2003 77.1998C87.1003 76.7998 87.7003 76.1998 87.8003 75.0998C87.9003 72.6998 86.0003 70.5998 84.3003 69.1998C83.2003 68.1998 81.9003 67.3998 80.7003 66.5998C80.3003 66.3998 79.7003 65.7998 79.2003 66.0998C79.0003 66.0998 78.9003 66.2998 78.8003 66.3998C78.8003 66.3998 78.7003 66.3998 78.6003 66.4998C78.6003 66.4998 78.2003 66.6998 78.5003 66.5998C78.1003 66.5998 78.0003 67.0998 78.3003 67.2998C80.1003 68.2998 81.9003 69.4998 83.5003 70.8998C84.9003 72.1998 87.0003 74.7998 85.7003 76.7998C85.5003 77.0998 85.9003 77.4998 86.2003 77.2998L87.2003 76.6998C87.5003 76.4998 87.4003 75.9998 87.0003 75.9998C84.9003 75.9998 82.6003 75.6998 81.1003 73.9998C79.3003 71.9998 79.3003 68.7998 79.9003 66.3998C79.9003 66.0998 79.5003 65.6998 79.3003 65.9998C79.0003 66.2998 78.5003 66.2998 78.2003 66.6998C77.9003 67.0998 78.6003 67.4998 78.8003 67.0998H79.0003C79.0003 67.0998 79.1003 67.0998 79.2003 67.0998C79.4003 67.0998 79.6003 66.8998 79.7003 66.7998L79.1003 66.3998C78.5003 69.0998 78.6003 72.3998 80.4003 74.5998C82.0003 76.4998 84.6003 76.9998 86.9003 76.8998L86.7003 76.1998L85.7003 76.7998L86.2003 77.2998C87.6003 75.1998 85.8003 72.4998 84.4003 70.9998C82.8003 69.2998 80.7003 67.9998 78.6003 66.7998L78.4003 67.4998C78.7003 67.4998 78.9003 67.2998 79.1003 67.1998C79.1003 67.1998 79.2003 67.1998 79.3003 67.0998C79.3003 67.0998 79.4003 67.0998 79.5003 66.9998C79.6003 66.9998 79.6003 66.9998 79.5003 66.9998H79.7003C79.9003 67.2998 80.2003 67.3998 80.4003 67.4998C80.6003 67.6998 80.9003 67.7998 81.1003 67.9998C81.6003 68.2998 82.1003 68.5998 82.5003 68.9998C84.2003 70.2998 86.2003 71.9998 86.9003 74.0998C87.1003 74.8998 87.3003 76.0998 86.4003 76.5998C85.5003 77.0998 84.5003 76.8998 83.5003 76.6998C81.5003 76.2998 79.8003 75.1998 79.1003 73.1998C78.4003 71.1998 78.4003 69.1998 78.9003 67.2998C79.0003 66.7998 78.3003 66.5998 78.2003 67.0998V66.8998Z" fill="#231F20"/>
<path d="M86.8002 58.3004C83.7002 56.7004 81.2002 53.6004 80.2002 50.3004C79.7002 48.6004 79.5002 46.7004 79.7002 44.9004L78.7002 45.5004C79.9002 45.5004 81.1002 45.7004 82.2002 46.2004C84.6002 47.2004 86.1002 49.2004 86.5002 51.7004C86.9002 54.2004 86.5002 56.6004 85.7002 58.9004C85.7002 58.6004 86.7002 58.6004 86.7002 58.3004C87.7002 55.0004 88.4002 50.7004 86.1002 47.8004C84.9002 46.2004 83.0002 45.3004 81.0002 45.0004C80.6002 45.0004 80.1002 44.9004 79.7002 45.0004C79.6002 45.0004 78.7002 45.5004 78.7002 45.6004C78.2002 50.7004 80.6002 55.4004 84.7002 58.3004C85.0002 58.5004 85.4002 58.8004 85.7002 58.9004C85.9002 58.9004 86.6002 58.2004 86.7002 58.3004H86.8002Z" fill="#231F20"/>
<path d="M87 58C84.8 56.8 83 55 81.8 52.9C80.4 50.5 79.8999 47.8 80.1999 45C80.1999 44.7 79.8999 44.5 79.5999 44.7L78.5999 45.3C78.2999 45.5 78.4 46 78.8 46C81.6 46 84.2999 47.2 85.5999 49.8C86.9999 52.6 86.2999 56 85.5999 58.9C85.4999 59.3 86.1 59.6 86.3 59.2C86.5 58.9 87.1 59 87.3 58.6C87.6 58.1 87.7 57.2 87.8 56.7C88.1 55.3 88.3 53.8 88.3 52.4C88.2 49.5 86.7999 46.9 84.0999 45.6C83.4999 45.3 82.7999 45.1 82.0999 44.9C81.3999 44.7 80.5 44.5 79.8 44.7C79.5 44.7 79.1 45 78.8 45.2C78.4 45.5 78.5 46 78.4 46.5C78.3 49.4 79.0999 52.2 80.6999 54.6C81.5999 55.9 82.7 57.1 83.9 58.1C84.2 58.3 84.5 58.6 84.9 58.8C85.2 59 85.5 59.3 85.9 59.3C86.1 59.3 86.3 59.3 86.4 59.1C86.5 59.1 86.8 58.7 86.9 58.7C87.4 58.7 87.4 58 86.9 57.9C86.6 57.9 86.3999 58.1 86.1999 58.3C85.9999 58.5 86 58.5 85.8 58.3C85.5 58.2 85.1 57.8 84.8 57.6C83.8 56.9 82.8999 56 82.0999 55.1C80.4999 53.2 79.4999 50.8 79.1999 48.4C79.1999 47.8 79.0999 47.3 79.1999 46.7C79.1999 46.4 79.1999 46 79.1999 45.7C79.1999 45.5 79.3 45.5 79.5 45.4C80.5 44.8 82.0999 45.4 83.0999 45.8C85.6999 46.8 87.2 49 87.5 51.8C87.6 53.2 87.4999 54.6 87.1999 55.9C87.1999 56.2 87.1 56.6 87 56.9C87 57.2 86.8999 57.6 86.6999 57.9C86.4999 58.3 85.8999 58.2 85.6999 58.6L86.4 58.9C87.3 55.7 88 52.1 86.4 49C85 46.4 81.9999 45 79.0999 45L79.3 45.7L80.3 45.1L79.6999 44.8C79.1999 50.3 82 55.8 86.9 58.5C87.3 58.7 87.7 58.1 87.3 57.8L87 58Z" fill="#231F20"/>
<path d="M39.8002 74.3998C43.6002 74.7998 47.5002 73.6998 50.6002 71.4998C51.8002 70.6998 52.8002 69.4998 53.4002 68.2998C53.8002 67.4998 54.1002 66.7998 54.3002 65.8998C54.4002 65.3998 54.5002 64.9998 54.5002 64.5998C54.5002 64.3998 54.7002 63.3998 54.6002 63.1998C54.4002 62.9998 53.7002 62.9998 53.4002 62.9998C52.5002 62.8998 51.6002 62.8998 50.8002 62.9998C48.8002 63.1998 47.0002 64.0998 45.4002 65.2998C42.6002 67.3998 40.7002 71.0998 39.8002 74.4998C39.8002 74.1998 40.8002 74.1998 40.8002 73.8998C41.5002 71.3998 42.7002 68.8998 44.3002 66.7998C44.9002 65.9998 45.6002 65.2998 46.4002 64.6998C46.4002 64.6998 46.9002 64.3998 46.9002 64.2998C47.1002 64.2998 47.4002 64.0998 47.6002 63.9998C48.1002 63.7998 48.7002 63.6998 49.2002 63.5998C50.0002 63.3998 50.9002 63.3998 51.7002 63.4998C52.2002 63.4998 52.8002 63.4998 53.3002 63.6998H53.5002C53.6002 63.8998 53.5002 64.8998 53.4002 65.0998C53.3002 65.8998 53.1002 66.7998 52.8002 67.4998C52.3002 68.7998 51.6002 69.9998 50.6002 70.9998C50.1002 71.4998 49.6002 71.8998 49.1002 72.1998C48.6002 72.4998 49.7002 71.8998 49.2002 72.1998C49.0002 72.1998 48.9002 72.3998 48.7002 72.3998C48.4002 72.4998 48.2002 72.5998 47.9002 72.6998C46.9002 73.0998 45.8002 73.3998 44.7002 73.4998C43.4002 73.6998 42.0002 73.7998 40.7002 73.5998C40.4002 73.5998 40.0002 74.1998 39.7002 74.1998L39.8002 74.3998Z" fill="#231F20"/>
<path d="M39.8 74.6998C45.6 75.2998 52.8 72.4998 54.5 66.3998C54.7 65.6998 54.8 64.9998 54.9 64.2998C54.9 63.8998 55.1 63.3998 54.9 62.9998C54.8 62.6998 54.4 62.5998 54 62.4998C53.3 62.4998 52.7 62.3998 52 62.2998C49 62.2998 46.1 63.5998 44 65.5998C41.6 67.8998 40.2 70.9998 39.3 74.0998C39.2 74.4998 39.8 74.7998 40 74.3998C40.1 74.1998 40.6 74.1998 40.8 74.0998C41.1 73.7998 41.2 73.3998 41.3 72.9998C41.7 71.7998 42.2 70.5998 42.8 69.3998C43.4 68.1998 44.1 67.1998 44.9 66.1998C45.3 65.7998 45.7 65.2998 46.1 64.9998C46.4 64.7998 46.8 64.5998 47 64.2998C47.3 63.8998 46.8 63.3998 46.5 63.7998L46.2 63.9998L46.5 64.6998C47.7 63.8998 49.3 63.6998 50.7 63.6998C51.4 63.6998 52.2 63.6998 52.9 63.8998C53.2 63.8998 53 63.8998 52.9 63.8998C52.9 63.9998 52.9 64.1998 52.9 64.2998C52.9 64.4998 52.9 64.6998 52.8 64.8998C52.6 66.3998 52.2 67.7998 51.4 69.0998C51 69.6998 50.5 70.2998 50 70.7998C49.5 71.1998 49 71.5998 48.5 71.9998C48.3 72.1998 48.4 72.4998 48.5 72.5998C48.8 72.7998 49.5 72.3998 49.5 72.0998C49.5 71.8998 49.3 71.5998 49 71.6998C48.2 71.9998 47.5 72.3998 46.8 72.5998C45.8 72.8998 44.8 73.0998 43.8 73.1998C42.9 73.2998 41.9 73.3998 41 73.1998C40.7 73.1998 40.4 73.1998 40.2 73.1998C39.9 73.2998 39.7 73.6998 39.4 73.6998C38.9 73.6998 39.1 74.4998 39.6 74.3998C39.8 74.3998 40 74.1998 40.2 74.0998C40.6 73.7998 41.1 73.8998 41.6 73.8998C42.5 73.8998 43.4 73.8998 44.3 73.6998C45.2 73.4998 46.2 73.3998 47.1 73.0998C47.9 72.8998 48.6 72.4998 49.3 72.1998L48.8 71.7998C48.8 71.7998 48.9 71.5998 49 71.4998H48.9C48.6 71.4998 49 71.5998 49 71.5998V72.1998C49.7 71.6998 50.3 71.2998 50.9 70.6998C51.5 70.0998 52 69.3998 52.4 68.6998C53.2 67.1998 53.5 65.5998 53.7 63.9998C53.7 63.5998 53.7 63.1998 53.3 62.9998C52.7 62.6998 51.7 62.6998 51 62.6998C49.4 62.6998 47.4 62.8998 46 63.7998C45.6 63.9998 45.9 64.5998 46.3 64.4998C46.5 64.4998 46.8 64.2998 46.9 64.0998L46.4 63.5998C46.2 63.8998 45.7 64.0998 45.5 64.2998C45 64.6998 44.6 65.0998 44.3 65.4998C43.5 66.3998 42.8 67.3998 42.2 68.4998C41.6 69.5998 41.1 70.6998 40.7 71.7998C40.5 72.2998 40.4 73.0998 40 73.2998C39.7 73.4998 39.5 73.4998 39.3 73.7998L40 74.0998C41.4 69.1998 44.5 64.1998 49.9 62.9998C51.2 62.6998 52.4 62.7998 53.7 62.9998C53.9 62.9998 54.1 62.9998 54.1 62.9998C54.1 63.1998 54.1 63.4998 54.1 63.6998C54 64.2998 53.9 64.8998 53.8 65.4998C53.1 68.2998 51.3 70.3998 48.7 71.6998C45.9 73.1998 42.8 73.8998 39.7 73.4998C39.2 73.4998 39.2 74.1998 39.7 74.2998L39.8 74.6998Z" fill="#231F20"/>
<path d="M87.5002 50.0996C88.4002 47.5996 89.9002 45.3996 91.9002 43.6996L90.9002 44.2996C92.8002 46.4996 93.1002 49.8996 92.0002 52.4996C91.2002 54.3996 89.8002 56.3996 88.2002 57.6996C88.0002 57.8996 87.7002 58.0996 87.4002 58.2996C87.0002 58.5996 88.5002 57.7996 87.8002 58.0996C87.8002 58.0996 87.6002 58.0996 87.6002 58.1996C87.5002 58.1996 87.3002 58.2996 87.2002 58.2996C86.8002 58.2996 86.5002 58.7996 86.2002 58.8996C86.6002 58.8996 87.0002 58.5996 87.4002 58.3996C88.4002 57.8996 89.3002 57.2996 90.1002 56.3996C92.8002 53.5996 94.7002 49.7996 93.3002 45.9996C93.0002 45.1996 92.6002 44.2996 92.0002 43.5996C92.0002 43.5996 91.0002 44.0996 91.0002 44.1996C89.0002 45.8996 87.5002 48.0996 86.6002 50.5996C86.6002 50.2996 87.5002 50.2996 87.6002 49.9996L87.5002 50.0996Z" fill="#231F20"/>
<path d="M87.8 50.1998C88.7 47.7998 90.1 45.6998 92.1 43.9998C92.4 43.6998 92.1 43.1998 91.6 43.3998L90.6 43.9998C90.4 44.0998 90.4 44.3998 90.6 44.5998C92.2 46.5998 92.6 49.4998 91.8 51.8998C91.3 53.1998 90.6 54.4998 89.7 55.5998C89.3 56.0998 88.8 56.6998 88.3 57.0998C87.9 57.4998 87.4 57.6998 87.1 58.0998C86.9 58.2998 87 58.5998 87.1 58.6998C87.4 58.8998 88.1 58.4998 88.2 58.1998C88.3 57.9998 88.2 57.5998 87.9 57.5998C87.6 57.5998 87.2 57.7998 86.9 57.8998C86.5 57.9998 86.2 58.3998 85.9 58.4998C85.4 58.5998 85.6 59.2998 86.1 59.1998C87.6 58.8998 89.2 57.5998 90.3 56.4998C91.4 55.2998 92.4 53.8998 93.1 52.3998C94.4 49.3998 94.2 45.9998 92.1 43.3998C92.1 43.3998 91.9 43.2998 91.7 43.3998C90.5 43.6998 89.4 45.0998 88.7 45.8998C87.5 47.2998 86.7 48.8998 86 50.5998C85.9 50.9998 86.5 51.1998 86.7 50.8998C86.7 50.7998 87.2 50.6998 87.3 50.6998C87.5 50.6998 87.6 50.4998 87.7 50.2998C88 49.8998 87.3 49.4998 87.1 49.8998C86.9 50.1998 86.3 50.0998 86.1 50.4998L86.8 50.7998C87.4 49.1998 88.2 47.6998 89.3 46.3998C89.9 45.5998 90.9 44.2998 92 44.0998H91.6C93.6 46.4998 93.6 49.7998 92.3 52.5998C91.7 53.8998 90.8 55.0998 89.8 56.0998C88.8 57.0998 87.4 58.2998 85.9 58.5998L86.1 59.2998C86.7 59.0998 87.3 58.4998 87.9 58.3998L87.6 57.7998C87.6 57.6998 87.5 57.7998 87.4 57.7998C87.1 57.9998 87.2 57.7998 87.4 57.9998V58.5998C87.9 58.0998 88.5 57.7998 89 57.2998C89.5 56.7998 90 56.1998 90.4 55.5998C91.3 54.3998 92.1 52.9998 92.5 51.4998C93.2 48.8998 92.6 45.9998 91 43.8998V44.4998L92 43.8998L91.5 43.2998C89.5 45.0998 87.9 47.2998 87 49.8998C86.8 50.3998 87.6 50.5998 87.7 50.0998L87.8 50.1998Z" fill="#231F20"/>
<path d="M85.5996 59.0002C87.0996 62.1002 90.0996 64.8002 93.2996 66.0002C94.9996 66.6002 96.7996 66.8002 98.5996 66.7002C98.6996 66.7002 99.5996 66.2002 99.5996 66.1002C99.6996 64.9002 99.4996 63.6002 99.0996 62.5002C98.1996 60.1002 96.2996 58.5002 93.7996 57.9002C91.2996 57.3002 88.8996 57.8002 86.5996 58.3002C86.1996 58.3002 85.8996 58.8002 85.5996 58.9002C88.9996 58.1002 93.1996 57.6002 96.0996 60.0002C97.5996 61.3002 98.3996 63.3002 98.5996 65.2002C98.5996 65.6002 98.5996 66.1002 98.5996 66.5002L99.5996 65.9002C94.4996 66.2002 89.8996 63.5002 87.1996 59.2002C86.9996 58.9002 86.7996 58.5002 86.5996 58.2002L85.5996 58.8002V59.0002Z" fill="#231F20"/>
<path d="M85.2998 59.2001C87.6998 64.1001 92.7998 67.3001 98.2998 67.1001C98.7998 67.1001 99.7998 66.8001 100.1 66.2001C100.3 65.7001 100.1 64.9001 100.1 64.4001C99.9998 63.7001 99.7998 63.0001 99.5998 62.3001C98.7998 60.2001 97.0998 58.6001 95.0998 57.9001C93.5998 57.4001 91.9998 57.3001 90.3998 57.4001C89.4998 57.4001 88.6998 57.6001 87.8998 57.8001C87.4998 57.8001 87.0998 57.9001 86.6998 58.1001C86.2998 58.2001 86.0998 58.5001 85.7998 58.7001C85.3998 58.9001 85.4998 59.5001 85.9998 59.4001C88.5998 58.8001 91.5998 58.3001 94.1998 59.3001C97.2998 60.4001 98.7998 63.6001 98.5998 66.7001C98.5998 67.0001 98.8998 67.2001 99.1998 67.0001L100.2 66.4001C100.5 66.2001 100.4 65.7001 99.9998 65.7001C94.6998 66.0001 89.5998 62.9001 87.2998 58.2001C87.1998 58.0001 86.8998 58.0001 86.6998 58.2001C86.4998 58.4001 85.8998 58.5001 85.6998 58.8001C85.3998 59.2001 85.8998 59.7001 86.1998 59.3001C86.3998 59.1001 86.9998 59.0001 87.1998 58.7001H86.5998C89.0998 63.6001 94.3998 66.8001 99.8998 66.5001L99.6998 65.8001L98.6998 66.4001L99.2998 66.7001C99.4998 63.4001 97.8998 60.1001 94.7998 58.7001C91.9998 57.5001 88.6998 57.9001 85.7998 58.7001L85.9998 59.4001C86.4998 59.2001 86.7998 58.9001 87.2998 58.7001C87.9998 58.5001 88.6998 58.4001 89.2998 58.3001C90.6998 58.1001 92.0998 58.0001 93.4998 58.3001C95.4998 58.6001 97.3998 59.6001 98.4998 61.4001C99.0998 62.4001 99.4998 63.6001 99.5998 64.8001C99.5998 65.1001 99.5998 65.4001 99.5998 65.6001C99.5998 65.9001 99.5998 65.8001 99.4998 66.0001C99.1998 66.3001 98.6998 66.3001 98.2998 66.3001C95.7998 66.3001 93.3998 65.7001 91.2998 64.4001C89.1998 63.1001 87.2998 61.1001 86.1998 58.8001C85.9998 58.4001 85.2998 58.8001 85.5998 59.2001H85.2998Z" fill="#231F20"/>
<path d="M94.9996 59.0995C96.3996 58.6995 97.5996 57.9995 98.8996 57.2995C99.4996 56.8995 100.2 56.4995 100.7 55.9995C100.8 55.9995 101.7 55.1995 101.7 55.0995C101.7 54.8995 101.3 54.7995 101.2 54.6995C100.9 54.4995 100.6 54.2995 100.3 54.0995C99.3996 53.5995 98.3996 53.1995 97.3996 52.9995C95.7996 52.6995 94.0996 52.9995 92.5996 53.5995C92.1996 53.7995 91.8996 53.9995 91.5996 54.1995C93.7996 53.1995 96.1996 53.1995 98.3996 54.1995C98.9996 54.4995 99.6996 54.8995 100.2 55.2995C100.3 55.2995 100.6 55.4995 100.7 55.6995C100.7 55.6995 100.2 56.1995 100.1 56.1995C99.7996 56.4995 99.3996 56.7995 99.0996 56.9995C98.8996 57.1995 98.6996 57.2995 98.4996 57.3995C97.7996 57.7995 96.9996 58.0995 96.1996 58.2995C95.7996 58.3995 95.4996 58.7995 95.1996 58.8995L94.9996 59.0995Z" fill="#231F20"/>
<path d="M95.0996 59.3998C96.4996 58.8998 97.8996 58.2998 99.0996 57.4998C99.9996 56.9998 101 56.2998 101.8 55.4998C102.1 55.1998 102.1 54.9998 101.8 54.6998C101.4 54.1998 100.7 53.8998 100.2 53.4998C98.9996 52.7998 97.4996 52.3998 96.0996 52.2998C95.1996 52.2998 94.2996 52.3998 93.4996 52.5998C93.0996 52.6998 92.6996 52.8998 92.2996 52.9998C91.8996 53.0998 91.5996 53.3998 91.1996 53.5998C90.7996 53.7998 91.0996 54.3998 91.4996 54.2998C92.9996 53.6998 94.6996 53.3998 96.2996 53.6998C97.6996 53.9998 99.2996 54.6998 100.3 55.6998V55.2998C100.2 55.2998 99.9996 55.4998 99.8996 55.4998C99.6996 55.5998 99.4996 55.7998 99.3996 55.8998C98.8996 56.2998 98.4996 56.5998 97.9996 56.8998C97.7996 57.0998 97.7996 57.4998 97.9996 57.5998C98.1996 57.5998 98.2996 57.5998 98.4996 57.3998C98.5996 57.3998 98.6996 57.0998 98.6996 56.9998C98.6996 56.7998 98.3996 56.6998 98.1996 56.7998C97.6996 57.0998 97.0996 57.3998 96.4996 57.5998C96.1996 57.5998 95.8996 57.7998 95.5996 57.8998C95.2996 57.9998 95.0996 58.2998 94.7996 58.3998C94.3996 58.5998 94.5996 59.2998 94.9996 59.0998C95.2996 58.9998 95.4996 58.7998 95.6996 58.6998C95.9996 58.4998 96.3996 58.3998 96.7996 58.2998C97.3996 58.0998 97.9996 57.7998 98.4996 57.4998L97.9996 57.2998C97.9996 57.1998 98.0996 56.9998 98.1996 56.8998C98.1996 56.8998 98.0996 56.8998 97.9996 56.9998H98.2996C98.2996 57.1998 98.2996 57.3998 98.2996 57.6998C98.7996 57.3998 99.2996 56.9998 99.6996 56.6998C99.9996 56.3998 100.5 56.1998 100.7 55.7998C100.9 55.3998 100.7 55.1998 100.5 54.9998C99.9996 54.5998 99.4996 54.1998 98.8996 53.8998C96.4996 52.5998 93.6996 52.4998 91.1996 53.5998L91.4996 54.2998C91.9996 54.0998 92.2996 53.7998 92.7996 53.5998C93.1996 53.3998 93.5996 53.2998 94.0996 53.1998C94.9996 52.9998 95.9996 52.8998 96.9996 53.0998C98.4996 53.2998 100.3 54.0998 101.3 55.1998V54.7998C101.3 54.6998 101.2 54.7998 101.1 54.7998C101.1 54.7998 101 54.8998 100.9 54.9998C100.8 55.0998 100.6 55.1998 100.4 55.2998C99.8996 55.6998 99.2996 56.0998 98.6996 56.4998C97.3996 57.2998 96.0996 57.9998 94.6996 58.3998C94.1996 58.5998 94.3996 59.2998 94.8996 59.0998L95.0996 59.3998Z" fill="#231F20"/>
<path d="M40.8004 73.7999C40.3004 72.5999 39.5004 71.4999 38.7004 70.5999C36.6004 68.2999 33.7004 66.7999 30.6004 66.0999C27.9004 65.4999 25.2004 65.4999 22.5004 65.8999C22.4004 65.8999 21.5004 66.4999 21.5004 66.4999C23.3004 70.9999 27.3004 75.3999 32.3004 75.9999C34.9004 76.2999 37.5004 75.5999 39.8004 74.4999C40.2004 74.2999 40.5004 74.0999 40.8004 73.8999C37.0004 75.6999 32.7004 76.1999 28.9004 73.8999C26.5004 72.3999 24.6004 70.0999 23.2004 67.6999C22.9004 67.1999 22.6004 66.5999 22.4004 65.9999L21.4004 66.5999C25.6004 66.0999 30.1004 66.2999 33.9004 68.3999C36.0004 69.5999 37.9004 71.1999 39.1004 73.2999C39.3004 73.6999 39.6004 74.0999 39.7004 74.4999C39.7004 74.4999 40.8004 73.9999 40.7004 73.8999L40.8004 73.7999Z" fill="#231F20"/>
<path d="M41.1996 73.7001C39.6996 70.1001 36.1996 67.4001 32.4996 66.2001C30.3996 65.5001 28.1996 65.2001 25.9996 65.2001C24.3996 65.2001 22.5996 65.1 21.2996 66.1C21.1996 66.1 21.0996 66.4001 21.0996 66.5001C22.4996 70.1001 25.0996 73.4 28.5996 75.1C32.6996 77.1 37.0996 76.1001 40.9996 74.0001C41.3996 73.8001 40.9996 73.2001 40.5996 73.3001C37.1996 74.9001 33.1996 75.4 29.6996 73.6C26.5996 72 24.0996 68.8001 22.7996 65.5001C22.7996 65.3001 22.4996 65.1001 22.2996 65.3001L21.2996 65.9001C20.9996 66.1001 21.0996 66.7 21.4996 66.6C28.2996 65.8 36.4996 67.4001 39.4996 74.4001C39.5996 74.6001 39.8996 74.6001 40.0996 74.4001C40.3996 74.1001 40.8996 74.1001 41.1996 73.7001C41.4996 73.3001 40.7996 72.9001 40.5996 73.3001C40.5996 73.3001 40.1996 73.5001 40.0996 73.5001C39.9996 73.5001 39.7996 73.7001 39.6996 73.8001H40.2996C37.1996 66.7001 28.5996 64.9001 21.5996 65.8001L21.7996 66.5001L22.7996 65.9001L22.2996 65.7001C23.6996 69.2001 26.3996 72.7001 29.8996 74.4001C33.5996 76.2001 37.6996 75.6001 41.1996 73.9001L40.7996 73.2001C37.0996 75.2001 32.7996 76.2 28.8996 74.1C25.6996 72.4 23.2996 69.4 21.9996 66.1L21.7996 66.5001C22.9996 65.6001 24.6996 65.7001 26.1996 65.7001C28.1996 65.7001 30.2996 65.9001 32.1996 66.5001C35.6996 67.6001 39.1996 70.1 40.6996 73.6C40.8996 74 41.5996 73.8001 41.3996 73.4001L41.1996 73.7001Z" fill="#231F20"/>
<path d="M40.2998 196.6C41.0998 195 42.0998 193.4 43.1998 191.9C44.0998 190.6 45.1998 189.2 46.2998 188C46.8998 187.4 47.4998 186.8 48.0998 186.3C48.3998 186 48.6998 185.8 49.0998 185.6C49.1998 185.6 49.3998 185.4 49.4998 185.3C49.6998 185.2 49.6998 185.3 49.2998 185.3C49.4998 185.3 49.6998 185.1 49.8998 185C50.1998 184.8 50.5998 184.7 50.8998 184.6C51.0998 184.6 51.6998 184.3 51.8998 184.4C51.8998 184.4 51.9998 184.8 52.0998 184.9C52.3998 185.9 52.5998 186.9 52.5998 188C52.5998 189.5 52.3998 191 51.7998 192.3C50.8998 194.2 49.2998 195.6 47.2998 196.4C45.6998 197.1 43.7998 197.6 41.9998 197.2C41.3998 197.1 40.6998 196.9 40.2998 196.4C40.2998 196.4 39.2998 197.1 39.2998 197C39.6998 197.4 40.3998 197.6 40.9998 197.8C42.6998 198.2 44.5998 197.8 46.1998 197.1C47.1998 196.7 48.1998 196.1 49.1998 195.6C50.0998 195.1 50.8998 194.5 51.5998 193.8C52.8998 192.5 53.5998 190.7 53.6998 188.9C53.7998 187.6 53.6998 186.2 53.3998 184.9C53.3998 184.6 53.2998 184.2 53.0998 183.9C52.8998 183.6 51.9998 184 51.6998 184.1C48.3998 185.2 45.6998 187.8 43.5998 190.5C41.9998 192.5 40.4998 194.8 39.3998 197.1C39.4998 196.8 40.2998 196.8 40.3998 196.5L40.2998 196.6Z" fill="#231F20"/>
<path d="M40.6004 196.8C41.7004 194.6 43.1004 192.4 44.6004 190.5C45.3004 189.5 46.1004 188.6 47.0004 187.8C47.4004 187.4 47.8004 187 48.3004 186.6C48.5004 186.4 48.8004 186.2 49.0004 186.1C49.1004 186.1 49.6004 185.7 49.5004 185.7L49.2004 185.1L49.4004 185.8C49.8004 185.6 50.2004 185.4 50.7004 185.3C50.9004 185.3 51.6004 184.9 51.8004 185C51.8004 185 52.0004 186 52.1004 186.2C52.2004 186.9 52.3004 187.5 52.3004 188.2C52.4004 190.6 51.7004 192.9 49.9004 194.6C48.3004 196.1 45.9004 197.1 43.7004 197.2C43.1004 197.2 42.5004 197.2 41.9004 197C41.6004 197 41.4004 196.8 41.1004 196.7C40.9004 196.7 40.7004 196.4 40.5004 196.3C40.3004 196.3 40.1004 196.3 39.9004 196.4C39.8004 196.4 39.6004 196.6 39.5004 196.7C39.4004 196.7 39.1004 196.9 39.3004 196.9C39.0004 196.9 38.8004 197.3 39.0004 197.5C41.4004 199.5 45.1004 198.3 47.5004 197.1C50.3004 195.7 52.8004 193.9 53.7004 190.8C54.1004 189.3 54.1004 187.6 53.9004 186.1C53.8004 185.2 53.7004 183.6 52.5004 183.8C51.3004 184 50.0004 184.7 48.9004 185.3C47.6004 186.1 46.4004 187.1 45.4004 188.1C42.8004 190.7 40.6004 193.9 39.0004 197.2C38.8004 197.6 39.3004 198 39.6004 197.7C39.8004 197.4 40.4004 197.4 40.6004 197.1C40.9004 196.7 40.4004 196.2 40.1004 196.6C39.9004 196.9 39.3004 196.9 39.1004 197.2L39.7004 197.7C41.0004 195.1 42.6004 192.7 44.5004 190.5C46.1004 188.5 48.0004 186.7 50.3004 185.6C50.8004 185.3 51.4004 185.1 52.0004 184.9C52.2004 184.9 52.3004 184.8 52.5004 184.7C52.9004 184.7 52.9004 184.7 53.0004 185.1C53.3004 186.5 53.5004 187.9 53.4004 189.3C53.3004 190.6 52.8004 191.9 52.1004 193C51.3004 194.2 50.1004 195 48.9004 195.8C47.5004 196.6 46.1004 197.4 44.6004 197.8C43.1004 198.2 41.1004 198.3 39.8004 197.3L39.5004 197.9C39.7004 197.9 39.9004 197.8 40.0004 197.7C40.1004 197.7 40.2004 197.5 40.4004 197.5C40.6004 197.3 40.4004 197.4 40.6004 197.5C41.2004 198.1 42.4004 198.2 43.2004 198.3C45.2004 198.4 47.4004 197.7 49.1004 196.6C52.7004 194.4 53.8004 190.2 52.9004 186.2C52.8004 185.6 52.7004 184.5 51.9004 184.5C51.0004 184.5 50.2004 185.1 49.4004 185.4C48.9004 185.6 49.1004 186.3 49.6004 186.1C49.8004 186.1 50.0004 186 50.1004 185.8C50.3004 185.6 50.1004 185.2 49.8004 185.2C49.4004 185.2 49.0004 185.6 48.7004 185.9C48.2004 186.3 47.7004 186.7 47.3004 187.1C46.3004 188 45.4004 189 44.6004 190C42.9004 192.1 41.4004 194.4 40.2004 196.8C40.0004 197.2 40.6004 197.6 40.8004 197.2L40.6004 196.8Z" fill="#231F20"/>
<path d="M40.2996 199.4C38.5996 199.1 36.9996 198.6 35.3996 197.9C32.3996 196.7 29.4996 195 27.5996 192.4C26.3996 190.8 25.6996 188.9 25.5996 186.8L24.5996 187.4C26.6996 187.2 28.8996 187.4 30.8996 188.1C32.4996 188.6 34.0996 189.3 35.2996 190.5C36.8996 192.1 37.9996 194.3 38.6996 196.4C39.0996 197.5 39.2996 198.7 39.2996 199.9C39.2996 199.7 40.2996 199.5 40.2996 199.3C40.2996 196.2 38.7996 192.8 36.7996 190.4C34.6996 187.9 31.1996 187 28.0996 186.8C27.2996 186.8 26.4996 186.8 25.5996 186.8C25.4996 186.8 24.5996 187.3 24.5996 187.4C24.8996 194.2 31.6996 197.9 37.4996 199.5C38.0996 199.7 38.6996 199.8 39.2996 199.9C39.5996 199.9 39.9996 199.2 40.2996 199.3V199.4Z" fill="#231F20"/>
<path d="M40.3997 199.1C34.1997 197.9 26.3997 194.2 25.9997 187C25.9997 186.7 25.6997 186.5 25.3997 186.7L24.3997 187.3C24.0997 187.5 24.1997 188 24.5997 188C27.9997 187.8 32.0997 188.3 34.7997 190.7C37.2997 192.9 38.8997 196.8 38.8997 200.1C38.8997 200.4 39.3997 200.6 39.5997 200.3C39.5997 200.2 40.1997 200.1 40.2997 200C40.4997 200 40.5997 199.8 40.5997 199.7C40.6997 199.4 40.5997 198.9 40.5997 198.6C40.5997 198.1 40.4997 197.6 40.3997 197.1C39.9997 195.2 39.1997 193.4 38.0997 191.8C37.0997 190.3 35.8997 189.1 34.2997 188.3C32.7997 187.5 31.0997 187.1 29.3997 186.9C27.8997 186.7 25.9997 186.3 24.5997 187.2C24.0997 187.5 24.0997 187.8 24.1997 188.4C24.1997 189.2 24.3997 190 24.6997 190.7C25.6997 193.6 27.9997 195.8 30.5997 197.3C32.0997 198.2 33.6997 198.9 35.3997 199.5C36.2997 199.8 37.2997 200.1 38.1997 200.3C38.5997 200.3 38.9997 200.6 39.3997 200.5C39.6997 200.5 39.8997 200 40.1997 199.9C40.6997 199.9 40.6997 199.1 40.1997 199.1C39.9997 199.1 39.7997 199.1 39.5997 199.3C39.2997 199.5 39.1997 199.7 38.7997 199.6C37.9997 199.5 37.0997 199.2 36.2997 198.9C34.9997 198.5 33.7997 198 32.4997 197.4C30.0997 196.2 27.6997 194.5 26.2997 192.2C25.5997 191.1 25.0997 189.8 24.8997 188.5C24.8997 188.2 24.7997 187.8 24.8997 187.6C24.8997 187.5 25.2997 187.4 25.3997 187.3C26.1997 187 27.3997 187.3 28.2997 187.3C31.3997 187.5 34.5997 188.5 36.5997 190.9C37.7997 192.4 38.7997 194.3 39.3997 196.2C39.4997 196.6 39.5997 197 39.6997 197.4C39.6997 197.7 39.9997 198.7 39.8997 199.1C39.7997 199.5 39.0997 199.3 38.8997 199.8L39.5997 200C39.5997 196.5 37.7997 192.4 35.1997 190.1C32.3997 187.6 28.0997 186.9 24.4997 187.2L24.6997 187.9L25.6997 187.3L25.0997 187C25.4997 194.5 33.4997 198.6 40.0997 199.8C40.5997 199.8 40.7997 199.2 40.2997 199.1H40.3997Z" fill="#231F20"/>
<path d="M40.5 168C42.1 167.9 43.7 167.5 45.2 167.1C47.8 166.3 50.6 165.1 52.7 163.2C53.8 162.2 54.7 160.9 55.2 159.4C55.3 159 55.4 158.6 55.5 158.2C55.6 157.8 55.7 157.2 55.6 156.8C55.6 156.6 55.6 156.8 55.4 156.6C55.2 156.6 54.9 156.6 54.8 156.6C51.5 156.4 48.2 156.8 45.4 158.6C43.6 159.8 42.6 162.1 41.8 164C41.3 165.3 40.9 166.6 40.6 168C40.6 167.8 41.6 167.7 41.6 167.4C42.2 164.7 43.2 161.9 44.8 159.6C45.1 159.2 45.3 158.9 45.7 158.6C46.1 158.3 45.9 158.4 46.1 158.3C46.1 158.3 46.3 158.2 46.4 158.1C46.8 157.8 45.6 158.5 46.3 158.1C47.1 157.8 47.9 157.5 48.7 157.4C50.2 157.1 51.8 157 53.3 157.1C53.6 157.1 54.2 157.1 54.5 157.1C54.7 157.1 54.5 157.1 54.6 157.1C54.7 157.3 54.6 158.1 54.6 158.4C54.4 159.8 53.9 161.2 53 162.3C52.6 162.8 52.1 163.3 51.6 163.8C51.4 164 51.1 164.2 50.8 164.4C50.6 164.5 50.5 164.6 50.3 164.7C50.3 164.7 50.2 164.7 50.1 164.8C50.5 164.6 49.9 165 50.1 164.8C48.9 165.4 47.7 165.9 46.4 166.3C44.9 166.8 43.3 167.1 41.6 167.2C41.2 167.2 40.9 167.8 40.6 167.8L40.5 168Z" fill="#231F20"/>
<path d="M40.5 168.3C44.3 168 48.3 166.8 51.4 164.6C52.8 163.6 54.1 162.4 54.9 160.8C55.6 159.5 56.1 157.9 55.8 156.4C55.8 156.2 55.6 156.1 55.4 156.1C55.1 156.1 54.7 156.1 54.4 156.1C53.9 156.1 53.4 156.1 52.8 156.1C51.9 156.1 51 156.1 50.1 156.3C48.2 156.6 46.3 157.2 44.7 158.4C43.4 159.4 42.5 160.8 41.9 162.2C41.1 164 40.4 165.9 40 167.8C40 168.2 40.5 168.5 40.7 168.1C40.7 167.9 41.3 167.9 41.5 167.8C41.8 167.6 41.8 167.3 41.9 167C42.1 165.9 42.5 164.8 42.9 163.8C43.3 162.8 43.8 161.6 44.4 160.6C44.7 160 45.1 159.5 45.6 159C45.9 158.7 46.3 158.5 46.5 158.2C46.6 158 46.7 157.7 46.5 157.6C46.2 157.4 45.5 157.8 45.5 158.2C45.5 158.5 45.7 158.6 46 158.6C46.6 158.6 47.2 158.1 47.8 158C48.7 157.8 49.7 157.6 50.7 157.5C51.6 157.5 52.4 157.5 53.2 157.5C53.5 157.5 53.8 157.5 54.1 157.5C54.3 157.5 54.4 157.5 54.6 157.5L54.2 157.3C54.4 157.7 54.1 158.8 54 159.2C53.8 160 53.5 160.8 53 161.5C52.5 162.2 52 162.8 51.4 163.4C50.9 163.9 50.2 164.2 49.7 164.7C49.5 164.9 49.7 165.4 50 165.3C50.2 165.3 50.3 165.2 50.5 165.1C50.8 164.9 50.5 164.4 50.1 164.5C49.4 164.7 48.7 165.2 48 165.4C47.1 165.7 46.2 166 45.3 166.3C44.3 166.5 43.3 166.8 42.3 166.9C42 166.9 41.6 166.9 41.3 167C41 167.1 40.8 167.5 40.5 167.5C40 167.6 40.2 168.3 40.7 168.2C40.9 168.2 41.1 168 41.3 167.9C41.8 167.6 42.2 167.6 42.8 167.5C43.7 167.4 44.7 167.2 45.6 167C46.5 166.8 47.4 166.5 48.2 166.2C48.6 166.1 48.9 165.9 49.3 165.8C49.7 165.7 50.1 165.4 50.4 165.3L50 164.7L50.3 165.3C50.9 164.7 51.7 164.3 52.4 163.7C53.1 163.1 53.7 162.2 54.1 161.4C54.5 160.6 54.8 159.6 55 158.7C55 158.2 55.3 157.5 55 157C55 156.8 54.7 156.8 54.6 156.8C54.8 156.8 54.2 156.7 54.1 156.7C53.8 156.7 53.5 156.7 53.2 156.7C52.3 156.7 51.4 156.7 50.4 156.7C49.6 156.7 48.8 156.9 48 157.1C47.3 157.3 46.6 157.7 45.9 157.8L46.4 158.2C46.4 158.4 46.2 158.5 46.4 158.4C46.6 158.3 46.5 158.4 46.3 158.4V157.8C46 158.1 45.6 158.3 45.3 158.6C44.9 159 44.6 159.5 44.3 159.9C43.7 160.8 43.2 161.8 42.8 162.8C42.3 163.9 42 165 41.7 166.1C41.6 166.6 41.6 167.2 41 167.4C40.8 167.4 40.5 167.6 40.4 167.8L41.1 168.1C41.5 166.3 42.1 164.5 42.9 162.8C43.5 161.4 44.4 159.9 45.7 159C47.2 158 49 157.4 50.7 157.1C51.6 157 52.5 156.9 53.4 156.9C53.9 156.9 54.4 156.9 54.8 156.9C55.1 156.9 55.4 156.9 55.7 156.9L55.3 156.6C55.5 158 54.9 159.7 54.2 160.8C53.3 162.3 52 163.4 50.6 164.3C47.7 166.1 44.1 167.2 40.7 167.5C40.2 167.5 40.2 168.3 40.7 168.3H40.5Z" fill="#231F20"/>
<path d="M41.8996 164.2C40.3996 163.4 38.8996 162.8 37.3996 162.2C34.5996 161.1 31.5996 160.2 28.5996 160.1C27.1996 160.1 25.7996 160.3 24.4996 161L23.5996 161.5C24.0996 163.6 25.3996 165.6 27.1996 166.8C30.6996 169.1 35.6996 167.6 39.0996 165.8C39.9996 165.3 40.9996 164.8 41.8996 164.1C41.5996 164.3 41.1996 164.5 40.8996 164.7C40.6996 164.9 40.4996 165 40.2996 165.1C40.2996 165.1 39.6996 165.4 40.0996 165.2C40.4996 165 39.8996 165.2 39.7996 165.3C39.3996 165.5 38.8996 165.7 38.3996 165.9C36.4996 166.7 34.4996 167.2 32.4996 167.2C29.2996 167.2 26.7996 165.5 25.3996 162.7C25.0996 162.1 24.7996 161.4 24.6996 160.8L23.7996 161.3C26.1996 160 29.3996 160.6 31.8996 161.2C34.4996 161.8 36.8996 162.8 39.3996 163.9C39.8996 164.1 40.3996 164.4 40.8996 164.6C41.0996 164.6 41.7996 163.9 41.8996 164V164.2Z" fill="#231F20"/>
<path d="M42.1001 163.8C39.1001 162.2 35.7001 160.9 32.4001 160.2C29.6001 159.6 26.7001 159.4 24.1001 160.8C23.9001 160.9 23.5001 161.1 23.3001 161.3C23.1001 161.7 23.5001 162.5 23.7001 162.9C24.2001 164.2 25.0001 165.3 25.9001 166.2C27.8001 168 30.4001 168.5 33.0001 168.2C36.2001 167.8 39.4001 166.3 42.0001 164.4C42.4001 164.1 42.0001 163.5 41.6001 163.7C41.0001 164.1 40.1001 164.4 39.5001 165C39.2001 165.3 39.5001 165.8 40.0001 165.6C40.1001 165.6 40.2001 165.6 40.3001 165.4C40.6001 165.1 40.3001 164.6 39.8001 164.8C37.1001 166.2 33.8001 167.4 30.6001 166.7C27.4001 166 25.6001 163.6 24.8001 160.7C24.8001 160.5 24.4001 160.4 24.3001 160.5L23.4001 161C23.0001 161.2 23.4001 161.9 23.8001 161.7C26.8001 160.1 30.7001 161.3 33.8001 162.2C35.6001 162.8 37.4001 163.5 39.2001 164.3C39.7001 164.5 40.3001 165.1 40.9001 165C41.2001 165 41.5001 164.4 41.8001 164.4C42.3001 164.4 42.3001 163.7 41.8001 163.6C41.4001 163.6 41.2001 164 40.9001 164.1C40.7001 164.1 40.1001 163.8 39.8001 163.6C39.3001 163.4 38.9001 163.2 38.4001 163C36.6001 162.2 34.8001 161.5 33.0001 161C30.0001 160.2 26.5001 159.4 23.6001 160.9L24.0001 161.6L24.9001 161.1L24.4001 160.9C25.2001 163.9 27.3001 166.6 30.4001 167.4C33.8001 168.2 37.4001 167 40.4001 165.4L39.9001 164.8C39.9001 164.8 39.8001 164.8 39.7001 164.8L40.2001 165.4C40.7001 164.9 41.5001 164.6 42.1001 164.2L41.7001 163.5C38.9001 165.5 35.3001 167.2 31.8001 167.3C27.9001 167.4 24.9001 164.8 24.0001 161.1V161.5C24.0001 161.3 24.6001 161.1 24.8001 161C25.6001 160.6 26.4001 160.3 27.3001 160.3C28.9001 160.1 30.5001 160.3 32.1001 160.7C35.4001 161.4 38.6001 162.7 41.6001 164.2C42.0001 164.4 42.4001 163.8 42.0001 163.5L42.1001 163.8Z" fill="#231F20"/>
<path d="M36.5 149.3C35.9 150.2 35.1 151 34.2 151.7C34 151.9 33.8 152 33.6 152.1C33.5 152.1 33.3 152.3 33.2 152.4C33.6 152.2 32.8 152.7 33.2 152.4C32.6 152.6 32.1 152.9 31.5 153.1C30.2 153.5 28.9 153.6 27.6 153.4C26.8 153.4 26.1 153.1 25.3 152.9C25.1 152.9 24 152.5 23.9 152.3C23.9 152.1 24.1 151.8 24.2 151.7C24.5 151.3 24.8 150.9 25.2 150.6C25.5 150.4 25.8 150.1 26.1 149.9C26.5 149.6 25.6 150.1 25.7 150.1C25.8 150.1 25.9 150 26.1 149.9C26.3 149.9 26.5 149.7 26.8 149.6C29.9 148.5 33.4 148.8 36.5 149.4C36.8 149.4 37.2 148.7 37.5 148.8C34.3 148.2 30.8 147.8 27.7 149C26.2 149.6 24.6 150.5 23.6 151.8C23.4 152 23 152.5 23 152.8C23 153 23 152.9 23.4 153.1C24.3 153.5 25.1 153.8 26 153.9C28.9 154.4 31.5 153.6 33.9 152.1C35.3 151.3 36.6 150.2 37.5 148.8C37.3 149.1 36.7 149.1 36.5 149.4V149.3Z" fill="#231F20"/>
<path d="M36.1002 149.1C35.6002 149.8 35.0002 150.4 34.4002 151C33.9002 151.4 33.3002 151.8 32.8002 152.2C32.6002 152.4 32.8002 152.9 33.1002 152.8C33.3002 152.8 33.5002 152.7 33.6002 152.5C33.8002 152.3 33.6002 151.9 33.3002 151.9C32.9002 151.9 32.4002 152.2 32.1002 152.4C31.5002 152.6 30.9002 152.8 30.3002 152.9C29.0002 153.1 27.7002 153.1 26.4002 152.7C26.0002 152.6 25.5002 152.5 25.1002 152.3C24.9002 152.3 24.7002 152.2 24.5002 152.1C24.4002 152.1 24.2002 151.9 24.2002 152.1C24.2002 152.1 24.4002 151.8 24.4002 151.7C24.6002 151.4 24.8002 151.1 25.1002 150.8C25.4002 150.5 25.9002 150.3 26.2002 149.9C26.4002 149.6 26.2002 149.2 25.8002 149.3C25.6002 149.3 25.3002 149.5 25.2002 149.7C25.0002 149.9 25.2002 150.4 25.5002 150.3C25.9002 150.3 26.3002 150 26.6002 149.8C27.2002 149.6 27.7002 149.4 28.3002 149.3C29.4002 149.1 30.6002 149 31.8002 149.1C33.0002 149.2 34.2002 149.3 35.3002 149.5C35.7002 149.5 36.1002 149.7 36.4002 149.5C36.6002 149.5 36.9002 149 37.1002 149C37.5002 149 37.6002 148.3 37.2002 148.3C32.6002 147.4 27.3002 147.2 23.6002 150.6C23.1002 151.1 22.2002 151.9 22.2002 152.6C22.2002 152.9 22.3002 153 22.5002 153.1C23.0002 153.4 23.6002 153.5 24.1002 153.7C26.4002 154.4 28.9002 154.3 31.1002 153.4C33.5002 152.4 35.8002 150.9 37.3002 148.7C37.5002 148.4 37.0002 147.9 36.7002 148.2C36.4002 148.5 36.0002 148.5 35.7002 148.8C35.4002 149.1 35.9002 149.7 36.2002 149.3C36.5002 149 36.9002 149 37.2002 148.7L36.6002 148.2C35.1002 150.4 32.6002 152 30.1002 152.8C28.9002 153.2 27.6002 153.4 26.4002 153.3C25.7002 153.3 25.0002 153.1 24.3002 152.9C24.0002 152.9 23.7002 152.7 23.3002 152.6C23.1002 152.6 23.0002 152.5 22.8002 152.4C22.6002 152.4 22.6002 152.4 22.7002 152.4L23.1002 151.9C23.3002 151.7 23.4002 151.5 23.6002 151.3C24.1002 150.8 24.6002 150.4 25.1002 150.1C26.1002 149.5 27.3002 149 28.5002 148.7C31.2002 148.1 34.0002 148.4 36.7002 148.9V148.2C36.5002 148.2 36.3002 148.4 36.1002 148.5C35.9002 148.7 35.8002 148.7 35.5002 148.7C35.2002 148.7 34.9002 148.6 34.6002 148.5C33.5002 148.3 32.4002 148.2 31.3002 148.2C30.2002 148.2 29.1002 148.2 28.0002 148.4C27.4002 148.5 26.8002 148.6 26.2002 148.9C26.0002 148.9 25.7002 149.1 25.5002 149.2C25.4002 149.2 25.1002 149.4 25.0002 149.5L25.3002 150.1L25.6002 149.9L25.2002 149.3C24.8002 149.8 24.2002 150.1 23.7002 150.6C23.4002 150.9 23.0002 151.4 22.9002 151.8C22.7002 152.6 23.8002 152.8 24.4002 153C25.7002 153.4 27.1002 153.7 28.5002 153.7C29.2002 153.7 29.9002 153.6 30.6002 153.4C31.0002 153.4 31.4002 153.2 31.7002 153C31.9002 153 32.4002 152.6 32.7002 152.6C33.2002 152.1 33.9002 151.8 34.5002 151.3C35.1002 150.7 35.7002 150.1 36.2002 149.4C36.5002 149 35.8002 148.6 35.6002 149L36.1002 149.1Z" fill="#231F20"/>
<path d="M41.5996 139.3C43.1996 138.8 44.7996 137.9 46.2996 137.1C48.9996 135.5 51.5996 133.4 52.8996 130.5C53.2996 129.7 53.4996 128.9 53.6996 128C53.6996 127.5 53.7996 127.1 53.7996 126.6C53.7996 126.4 53.8996 125.4 53.7996 125.3C53.6996 125.2 52.9996 125.3 52.7996 125.3C50.8996 125.5 48.9996 126.6 47.4996 127.7C43.9996 130.4 42.3996 135 41.5996 139.2C41.5996 139 42.5996 138.9 42.5996 138.6C43.2996 135 44.4996 131.2 47.0996 128.4C47.4996 127.9 47.9996 127.5 48.4996 127.1C48.6996 126.9 48.9996 126.8 49.1996 126.6C49.5996 126.3 48.8996 126.8 48.9996 126.7C49.0996 126.7 49.2996 126.6 49.3996 126.5C50.0996 126.2 50.7996 126 51.4996 125.8C51.7996 125.8 52.3996 125.6 52.6996 125.8C52.8996 125.8 52.7996 126.4 52.7996 126.6C52.7996 127.4 52.6996 128.3 52.4996 129.1C51.7996 132 49.6996 134.4 47.2996 136.2C46.9996 136.4 46.5996 136.7 46.2996 136.9C46.2996 136.9 45.6996 137.3 45.9996 137.1C46.2996 136.9 45.7996 137.2 45.6996 137.3C45.1996 137.6 44.6996 137.8 44.0996 138.1C43.5996 138.3 43.0996 138.5 42.6996 138.7C42.2996 138.8 41.9996 139.2 41.6996 139.3H41.5996Z" fill="#231F20"/>
<path d="M41.7002 139.7C44.5002 138.8 47.3002 137.1 49.6002 135.2C51.9002 133.3 53.6002 130.8 54.1002 127.9C54.1002 127.3 54.2002 126.8 54.3002 126.2C54.3002 125.9 54.4002 125.3 54.1002 125.1C53.8002 124.9 53.3002 124.9 53.0002 125.1C52.3002 125.2 51.6002 125.3 50.9002 125.6C48.3002 126.5 46.0002 128.4 44.5002 130.6C42.7002 133.2 41.8002 136.3 41.2002 139.3C41.2002 139.7 41.7002 140 41.9002 139.6C42.0002 139.4 42.6002 139.4 42.8002 139.1C43.1002 138.7 43.1002 138 43.2002 137.5C43.5002 136.1 43.9002 134.7 44.5002 133.4C45.1002 132.1 45.7002 130.8 46.6002 129.6C47.0002 129 47.5002 128.5 48.1002 128C48.6002 127.6 49.1002 127.3 49.6002 126.9C49.9002 126.7 49.6002 126.1 49.2002 126.3C49.0002 126.3 48.7002 126.5 48.6002 126.7C48.5002 127 48.6002 127.4 49.0002 127.2C49.7002 126.9 50.3002 126.6 51.1002 126.4C51.4002 126.4 51.7002 126.3 52.0002 126.2C52.4002 126.2 52.5002 126.2 52.4002 126.5C52.4002 128.2 52.1002 129.7 51.3002 131.2C50.6002 132.5 49.7002 133.6 48.6002 134.6C48.0002 135.1 47.4002 135.6 46.8002 136.1C46.4002 136.3 45.9002 136.6 45.6002 136.9C45.3002 137.2 45.6002 137.7 46.1002 137.5H46.2002C46.3002 137.5 46.4002 137.2 46.4002 137.1C46.4002 136.9 46.1002 136.8 45.9002 136.9C45.3002 137.2 44.6002 137.6 44.0002 137.9C43.5002 138.1 43.0002 138.3 42.6002 138.5C42.2002 138.7 41.9002 138.9 41.6002 139.1C41.2002 139.3 41.6002 139.9 42.0002 139.8C42.4002 139.7 42.8002 139.3 43.2002 139.2C43.6002 139.1 44.1002 138.9 44.5002 138.7C45.2002 138.4 45.8002 138.1 46.4002 137.7L45.9002 137.5C45.9002 137.4 46.0002 137.2 46.1002 137.1H46.0002L46.5002 137.7C46.5002 137.7 46.9002 137.5 47.0002 137.4C47.4002 137.1 47.8002 136.8 48.2002 136.5C48.9002 136 49.5002 135.4 50.1002 134.8C51.3002 133.6 52.2002 132.1 52.8002 130.5C53.1002 129.7 53.3002 128.7 53.4002 127.8C53.4002 127.3 53.7002 126.2 53.3002 125.8C52.9002 125.4 52.2002 125.6 51.8002 125.8C50.8002 126 50.0002 126.4 49.1002 126.7L49.5002 127.2C49.5002 127.4 49.5002 127.2 49.6002 127.2L49.2002 126.6C48.7002 127 48.2002 127.3 47.7002 127.7C47.2002 128.2 46.7002 128.7 46.3002 129.2C45.4002 130.3 44.7002 131.5 44.2002 132.8C43.7002 134.1 43.2002 135.4 42.9002 136.7C42.9002 137 42.7002 137.4 42.7002 137.7C42.7002 137.9 42.7002 138.5 42.5002 138.7C42.2002 139 41.7002 138.8 41.5002 139.2L42.2002 139.5C43.2002 134.7 45.0002 129.8 49.4002 127.2C50.6002 126.5 51.8002 126 53.2002 125.8C53.4002 125.8 53.6002 125.8 53.8002 125.8C54.0002 125.8 53.8002 125.6 53.8002 125.8V126.1C53.8002 126.6 53.8002 127 53.7002 127.5C53.4002 130.3 51.8002 132.7 49.7002 134.6C48.7002 135.5 47.5002 136.3 46.3002 137C44.9002 137.8 43.4002 138.6 41.8002 139.2C41.3002 139.4 41.5002 140.1 42.0002 139.9L41.7002 139.7Z" fill="#231F20"/>
<path d="M31.5997 139.9C33.4997 135.7 33.6997 130.3 31.5997 126.2C31.5997 126.2 30.5997 126.7 30.5997 126.8C29.6997 127.8 29.1997 129.2 28.7997 130.5C27.8997 134 28.8997 137.5 30.5997 140.6L31.5997 140C29.9997 136.9 28.9997 133.4 29.7997 129.9C30.0997 128.6 30.6997 127.2 31.5997 126.2L30.5997 126.8C32.6997 130.9 32.4997 136.3 30.5997 140.5C30.6997 140.2 31.4997 140.2 31.5997 139.9Z" fill="#231F20"/>
<path d="M32.0002 140.1C34.0002 135.7 34.2002 130.4 32.0002 126C31.9002 125.8 31.6002 125.8 31.4002 126C31.2002 126.2 30.8002 126.3 30.5002 126.5C30.1002 126.8 29.8002 127.3 29.5002 127.8C28.8002 129 28.4002 130.4 28.2002 131.8C27.8002 134.9 28.8002 138 30.2002 140.8C30.2002 141 30.5002 141 30.7002 140.9C31.1002 140.7 31.5002 140.5 31.8002 140.2C31.9002 140.1 31.9002 139.9 31.8002 139.7C30.7002 137.6 29.9002 135.3 29.8002 132.9C29.8002 130.7 30.3002 128.2 31.8002 126.5C32.1002 126.2 31.8002 125.7 31.3002 125.9L30.3002 126.5C30.1002 126.6 30.1002 126.8 30.2002 127C32.3002 131.1 32.1002 136.2 30.2002 140.3C30.0002 140.7 30.6002 141.1 30.8002 140.7C30.8002 140.6 31.3002 140.5 31.4002 140.5C31.6002 140.5 31.7002 140.3 31.8002 140.1C32.1002 139.7 31.4002 139.3 31.2002 139.7C31.1002 139.8 30.7002 139.9 30.6002 139.9C30.4002 139.9 30.3002 140.1 30.2002 140.2L30.8002 140.6C32.8002 136.2 33.0002 130.9 30.8002 126.5V127C30.7002 127 31.7002 126.4 31.7002 126.4L31.2002 125.8C27.8002 129.8 28.9002 135.7 31.2002 140V139.5C31.1002 139.7 30.6002 139.9 30.3002 140H30.8002C29.4002 137.6 28.5002 134.7 28.8002 131.8C28.9002 130.5 29.3002 129.1 30.0002 127.9C30.3002 127.4 30.5002 127 31.0002 126.7C31.2002 126.6 31.5002 126.4 31.8002 126.3H31.2002C33.3002 130.3 33.1002 135.4 31.2002 139.6C31.0002 140 31.7002 140.4 31.8002 140L32.0002 140.1Z" fill="#231F20"/>
<path d="M28.4996 136C26.8996 135.9 25.1996 136 23.5996 136C20.8996 136.2 18.4996 136.9 16.0996 138.3C15.5996 138.6 15.1996 138.9 14.7996 139.3C14.6996 139.5 13.9996 140.1 14.0996 140.3C14.0996 140.3 14.3996 140.5 14.4996 140.5C14.7996 140.7 15.0996 140.8 15.2996 140.9C17.1996 141.8 19.2996 142.3 21.3996 141.9C24.6996 141.3 27.1996 138.7 28.3996 135.8C28.2996 136.1 27.4996 136.1 27.3996 136.4C26.7996 137.8 25.8996 139.2 24.7996 140.3C24.5996 140.5 24.2996 140.7 23.9996 140.9C23.6996 141.1 24.2996 140.7 24.2996 140.7C24.2996 140.7 24.0996 140.7 24.0996 140.8C23.9996 140.8 23.7996 140.9 23.5996 141C23.0996 141.2 22.5996 141.3 21.9996 141.4C20.1996 141.6 18.2996 141.2 16.5996 140.5C16.1996 140.3 15.5996 140.1 15.1996 139.8C14.9996 139.6 14.9996 139.8 15.1996 139.6C15.2996 139.2 15.8996 138.7 16.1996 138.4C16.3996 138.2 16.6996 138.1 16.8996 137.9C17.0996 137.7 16.4996 138.1 16.4996 138.1C16.4996 138.1 16.6996 138.1 16.6996 138C16.8996 138 16.9996 137.8 17.1996 137.8C17.7996 137.6 18.2996 137.4 18.8996 137.2C20.0996 136.9 21.2996 136.7 22.4996 136.6C24.0996 136.4 25.6996 136.4 27.3996 136.6C27.6996 136.6 28.0996 136 28.3996 136H28.4996Z" fill="#231F20"/>
<path d="M28.4998 135.6C25.7998 135.4 22.9998 135.6 20.2998 136.2C18.1998 136.7 15.6998 137.7 14.2998 139.4C13.8998 139.9 13.4998 140.5 14.2998 140.9C15.2998 141.4 16.3998 141.9 17.4998 142.2C19.7998 142.8 22.1998 142.6 24.2998 141.5C26.3998 140.4 27.9998 138.3 28.8998 136.2C29.0998 135.8 28.4998 135.4 28.2998 135.8C28.0998 136 27.5998 136 27.2998 136.3C26.8998 136.8 26.6998 137.5 26.3998 138.1C25.9998 138.7 25.5998 139.3 25.0998 139.8C24.7998 140.1 24.4998 140.3 24.1998 140.6C24.0998 140.7 23.8998 140.8 23.7998 141C23.5998 141.3 23.9998 141.7 24.2998 141.5C24.3998 141.5 24.5998 141.3 24.6998 141.3C25.0998 141.1 24.6998 140.5 24.2998 140.6C21.2998 141.9 18.1998 141.2 15.4998 139.6L15.6998 140C15.8998 139.2 16.7998 138.8 17.3998 138.2C17.6998 137.9 17.3998 137.5 16.9998 137.6C16.7998 137.6 16.5998 137.8 16.3998 138C15.9998 138.3 16.4998 138.8 16.8998 138.6C18.8998 137.7 21.0998 137.3 23.2998 137.1C24.3998 137.1 25.4998 137 26.4998 137.1C26.8998 137.1 27.3998 137.2 27.7998 137.1C28.1998 137 28.3998 136.6 28.6998 136.5C29.1998 136.5 28.9998 135.7 28.4998 135.8C28.0998 135.8 27.9998 136.2 27.5998 136.3C27.0998 136.5 26.3998 136.3 25.8998 136.3C24.6998 136.3 23.5998 136.3 22.3998 136.5C20.2998 136.7 18.2998 137.2 16.3998 138L16.8998 138.6C16.8998 138.6 17.0998 138.4 17.1998 138.4L16.7998 137.8C16.0998 138.4 15.0998 138.9 14.8998 139.9C14.8998 140.1 14.8998 140.2 15.0998 140.3C16.4998 141.1 17.9998 141.8 19.5998 142C21.3998 142.3 22.9998 142 24.6998 141.3L24.2998 140.6C24.1998 140.6 23.9998 140.8 23.8998 140.8L24.3998 141.3C24.4998 141.1 24.8998 140.9 25.0998 140.8C25.3998 140.6 25.5998 140.3 25.8998 140C26.2998 139.5 26.6998 139 27.0998 138.4C27.2998 138.1 27.3998 137.9 27.5998 137.6C27.7998 137.3 27.7998 136.9 27.9998 136.7C28.2998 136.4 28.6998 136.5 28.9998 136.1L28.3998 135.7C26.7998 139.3 23.4998 142.1 19.3998 141.7C18.2998 141.7 17.1998 141.3 16.1998 140.9C15.6998 140.7 15.2998 140.5 14.7998 140.2C14.5998 140.2 14.5998 140.2 14.7998 140.2C14.8998 140 14.9998 139.9 15.1998 139.8C16.5998 138.3 18.8998 137.4 20.7998 136.9C23.2998 136.3 26.0998 136.1 28.6998 136.3C29.1998 136.3 29.1998 135.6 28.6998 135.5L28.4998 135.6Z" fill="#231F20"/>
<path d="M18.8996 129.8C19.6996 128.4 20.1996 126.8 20.6996 125.3C21.3996 122.6 21.7996 119.5 20.3996 116.9C20.0996 116.4 20.0996 116.4 19.6996 116.6C19.0996 116.9 18.5996 117.2 18.0996 117.6C16.8996 118.4 16.0996 119.7 15.6996 121.1C14.8996 124.3 16.3996 127.7 17.9996 130.4L18.9996 129.8C16.8996 126.3 14.8996 120.9 18.3996 117.6C18.5996 117.4 18.7996 117.3 18.9996 117.1C19.0996 117.1 19.1996 116.9 19.2996 116.9C19.7996 116.6 18.3996 117.4 18.7996 117.2C18.7996 117.2 18.9996 117.1 19.0996 117.1C19.2996 117.1 19.4996 117.6 19.5996 117.8C20.7996 120.2 20.4996 123.1 19.8996 125.6C19.4996 127.3 18.8996 129 17.9996 130.5C18.1996 130.2 18.8996 130.2 18.9996 129.9L18.8996 129.8Z" fill="#231F20"/>
<path d="M19.2 130C20.3 127.9 21.1 125.6 21.4 123.3C21.7 121.2 21.7 119 20.8 117.1C20.5 116.5 20.3 115.9 19.6 116.1C18.7 116.5 17.7 117.1 17 117.8C15.5 119.2 14.8 121.3 14.9 123.3C15 125.9 16.2 128.3 17.5 130.6C17.6 130.8 17.8 130.8 18 130.7C18.4 130.5 18.7 130.3 19 130.1C19.2 130 19.2 129.8 19.1 129.6C17.9 127.6 16.9 125.3 16.7 122.9C16.7 121.7 16.7 120.6 17.2 119.5C17.5 118.9 17.9 118.4 18.3 117.9C18.6 117.6 19.2 117.3 19.4 116.9C19.6 116.7 19.4 116.3 19.1 116.3C18.8 116.3 18.4 116.6 18.2 116.8C18.1 116.9 18.1 117.2 18.2 117.3C18.3 117.3 18.4 117.4 18.6 117.3C18.9 117.3 18.9 117.5 19.1 117.8C19.4 118.4 19.6 119 19.7 119.6C19.9 120.7 19.9 121.9 19.7 123C19.4 125.4 18.6 127.8 17.5 130C17.3 130.4 17.8 130.8 18.1 130.5C18.3 130.2 18.9 130.2 19.1 129.9C19.4 129.5 18.9 129 18.6 129.4C18.4 129.7 17.8 129.7 17.6 130L18.2 130.5C19.5 128 20.5 125.1 20.6 122.2C20.6 120.9 20.6 119.5 20.1 118.2C19.9 117.7 19.7 117.1 19.4 116.8C19.1 116.5 18.9 116.7 18.5 116.8H18.9V117.4L19.1 117.3C19.1 117.3 19.5 117.1 19.3 117.2L19 116.6C19 116.6 18.6 116.9 18.4 117C18.1 117.2 17.8 117.5 17.6 117.8C17.2 118.3 16.8 118.8 16.6 119.4C16.1 120.5 16 121.7 16.1 122.9C16.3 125.4 17.4 127.9 18.6 130V129.5C18.4 129.7 18.1 129.9 17.7 130.1H18.2C17 128.1 15.8 125.7 15.7 123.2C15.6 120.7 16.8 118.6 19.1 117.3C19.3 117.2 19.7 117.1 19.8 116.9C20 116.9 20 116.9 19.8 116.8C19.8 116.8 19.9 117 20 117.1C20.3 117.6 20.5 118.2 20.6 118.8C20.9 120 20.9 121.1 20.8 122.3C20.6 124.8 19.7 127.4 18.5 129.6C18.3 130 18.9 130.4 19.1 130H19.2Z" fill="#231F20"/>
<path d="M14.1004 128.9C13.6004 129.7 12.9004 130.4 12.2004 130.9C11.8004 131.2 11.5004 131.4 11.1004 131.7C10.8004 131.9 11.7004 131.4 11.3004 131.6C11.2004 131.6 11.0004 131.7 10.9004 131.8C10.7004 131.9 10.4004 132 10.2004 132.1C9.10041 132.5 7.90041 132.7 6.70041 132.6C6.00041 132.6 5.30041 132.5 4.70041 132.3C4.50041 132.3 3.40039 132.1 3.40039 131.9C3.40039 131.8 3.70041 131.4 3.70041 131.2C4.00041 130.8 4.30041 130.4 4.60041 130C4.80041 129.8 5.10039 129.5 5.40039 129.3C5.60039 129.2 5.70039 129.1 5.90039 129C6.30039 128.7 5.40041 129.3 5.60041 129.2C5.70041 129.2 5.9004 129.1 6.0004 129C8.6004 127.8 11.5004 128.1 14.2004 128.7C14.2004 128.7 14.6004 128.5 14.7004 128.4C14.8004 128.3 15.1004 128.1 15.2004 128.1C12.5004 127.5 9.50039 127.2 6.90039 128.4C5.40039 129.1 4.0004 130 3.0004 131.3C2.8004 131.5 2.40039 132 2.40039 132.3C2.40039 132.5 2.40039 132.5 2.80039 132.6C3.60039 132.8 4.40039 133 5.30039 133.1C7.80039 133.3 10.1004 132.4 12.2004 131.1C13.4004 130.4 14.5004 129.4 15.3004 128.2C15.1004 128.5 14.5004 128.5 14.3004 128.8L14.1004 128.9Z" fill="#231F20"/>
<path d="M13.8 128.7C13.4 129.3 12.9 129.9 12.3 130.4C11.8 130.8 11.2 131.1 10.8 131.6C10.6 131.8 10.8 132.3 11.1 132.2C11.3 132.2 11.7 132 11.8 131.8C11.9 131.5 11.8 131.2 11.4 131.3C11 131.3 10.6 131.7 10.2 131.8C9.70001 132 9.10001 132.1 8.60001 132.2C7.40001 132.4 6.09999 132.3 4.89999 132.1C4.59999 132.1 4.40001 132.1 4.10001 131.9H3.89999C3.79999 131.9 3.69999 131.9 3.89999 131.9C3.99999 131.9 4.10001 131.5 4.20001 131.4C4.80001 130.5 5.49999 130 6.29999 129.4C6.49999 129.2 6.39999 128.9 6.29999 128.8C5.99999 128.6 5.49999 129 5.29999 129.2C5.09999 129.5 5.40001 129.8 5.70001 129.7C6.10001 129.6 6.49999 129.3 6.89999 129.2C7.29999 129.1 7.70001 129 8.20001 128.9C9.20001 128.7 10.3 128.7 11.3 128.8C11.8 128.8 12.3 128.9 12.8 129C13.2 129 13.7 129.3 14.1 129.3C14.6 129.3 14.8 128.8 15.3 128.7C15.7 128.7 15.7 128.1 15.3 128C13.2 127.5 11 127.3 8.79999 127.7C6.79999 128.1 4.79999 129.1 3.39999 130.6C2.89999 131.1 2.1 131.9 2 132.6C2 132.8 1.99999 133 2.29999 133.1C2.69999 133.3 3.29999 133.4 3.79999 133.5C5.89999 133.9 8 133.7 10 132.8C12.1 131.9 14.2 130.5 15.5 128.5C15.7 128.2 15.2 127.7 14.9 128C14.6 128.3 14.1 128.3 13.9 128.6C13.6 129 14.1 129.5 14.4 129.1C14.7 128.8 15.2 128.8 15.4 128.5L14.8 128C13.5 129.9 11.4 131.3 9.29999 132.1C8.19999 132.5 6.99999 132.8 5.89999 132.8C4.79999 132.8 4.6 132.8 4 132.6C3.7 132.6 3.40001 132.5 3.10001 132.4C3.00001 132.4 2.80001 132.4 2.70001 132.3C2.56668 132.3 2.56668 132.3 2.70001 132.3C2.80001 132.3 2.89999 132.3 2.89999 132.2C2.89999 132.2 3.00001 132 3.10001 131.9C3.30001 131.7 3.40001 131.5 3.60001 131.2C4.00001 130.8 4.39999 130.4 4.89999 130C5.79999 129.4 6.79999 128.8 7.89999 128.5C10.2 127.7 12.7 128 15.1 128.5V127.8C14.9 127.8 14.7 128 14.5 128.1C14.5 128.1 14.3 128.2 14.2 128.3C14 128.3 13.8 128.3 13.6 128.3C12.7 128.1 11.8 128 10.9 127.9C9.99999 127.8 9.10001 127.9 8.20001 128C7.70001 128 7.20001 128.2 6.70001 128.4C6.30001 128.5 5.9 128.8 5.5 128.9L5.89999 129.4C5.69999 129.6 5.9 129.4 6 129.4C6 129.4 6.10001 129.4 6.20001 129.3H5.79999C5.79999 129.1 5.79999 128.9 5.79999 128.7C5.39999 129.1 4.9 129.4 4.5 129.8C4.1 130.2 3.69999 130.7 3.39999 131.2C3.19999 131.5 3.00001 131.8 3.20001 132.1C3.40001 132.4 3.90001 132.5 4.20001 132.5C5.40001 132.8 6.59999 132.9 7.79999 132.9C8.49999 132.9 9.3 132.7 10 132.5C10.6 132.3 11.1 132 11.7 131.8L11.3 131.3C11.4 131.3 11.3 131.1 11.3 131.3C11.2 131.3 11.1 131.3 11.3 131.3L11.6 131.9C11.8 131.7 12.2 131.5 12.4 131.3C12.7 131.1 13 130.8 13.2 130.6C13.7 130.1 14.2 129.5 14.7 128.9C15 128.5 14.3 128.1 14.1 128.5L13.8 128.7Z" fill="#231F20"/>
<path d="M8.00039 123.1C8.80039 119.6 8.60038 115.4 6.80038 112.3C6.00038 110.9 4.80038 109.8 3.30038 109.1C3.30038 109.1 2.30038 109.6 2.30038 109.7C0.900378 113.1 0.500402 117.6 2.70041 120.7C3.70041 122.2 5.30039 123.1 7.00039 123.7C7.20039 123.7 7.80039 123 8.00039 123.1C5.10039 122.1 3.00039 120 2.40039 117C2.00039 114.8 2.20038 112.6 2.80038 110.5C2.90038 110 3.10038 109.5 3.30038 109.1L2.30038 109.7C6.90038 112.1 7.80041 117.7 7.20041 122.4C7.20041 122.9 7.10039 123.3 7.00039 123.7C7.00039 123.4 8.00039 123.4 8.00039 123.1Z" fill="#231F20"/>
<path d="M8.29991 123.2C9.39991 118.2 8.69991 111.7 3.79991 108.9C3.39991 108.7 3.29992 108.6 2.89992 108.9C2.59992 109 2.19992 109.2 1.99992 109.5C1.69992 109.9 1.59992 110.5 1.39992 111C1.19992 111.7 0.999919 112.4 0.899917 113C0.499917 115.5 0.599917 118.2 1.89992 120.4C2.59992 121.6 3.59992 122.6 4.89992 123.3C5.39992 123.6 6.29992 124.1 6.89992 124.2C7.09992 124.2 7.19992 124.2 7.39992 124.1C7.59992 124 7.79992 123.6 7.99992 123.6C8.39992 123.6 8.49993 123 8.09993 122.9C5.79993 122.1 3.89993 120.4 3.09993 118.1C2.09993 115.3 2.69994 112 3.69994 109.3C3.79994 109 3.39994 108.7 3.19994 108.9L2.19994 109.5C1.99994 109.6 1.99994 110 2.19994 110.2C6.99994 112.8 7.69994 119 6.69994 123.8C6.69994 124.2 7.19992 124.5 7.39992 124.1C7.49992 123.8 8.19992 123.9 8.39992 123.5C8.59992 123.1 7.99991 122.7 7.79991 123.1C7.59991 123.4 6.99991 123.3 6.79991 123.7L7.49992 124C8.59992 118.8 7.69994 112.3 2.69994 109.5V110.2L3.69994 109.6L3.19994 109.2C2.09994 112.1 1.49994 115.8 2.69994 118.8C3.69994 121.2 5.69993 122.9 8.09993 123.8V123.1C7.89993 123.1 7.69992 123.3 7.49992 123.4C6.99992 123.8 6.49992 123.4 5.99992 123.2C4.99992 122.7 4.09992 122 3.39992 121.2C1.89992 119.4 1.59991 116.9 1.79991 114.7C1.79991 113.6 2.09992 112.5 2.39992 111.4C2.49992 111.1 2.59991 110.5 2.79991 110.3C2.89991 110.3 3.09994 110.1 3.19994 110.1C3.49994 109.9 3.39993 110 3.59993 110.1C4.09993 110.3 4.59992 110.8 4.99992 111.1C5.49992 111.5 5.89994 112 6.19994 112.5C6.89994 113.5 7.39994 114.6 7.69994 115.7C8.39994 118.3 8.29994 121 7.69994 123.6C7.59994 124.1 8.29992 124.3 8.39992 123.8L8.29991 123.2Z" fill="#231F20"/>
<path d="M36.9998 50.9996C36.9998 49.4996 37.2998 47.9996 37.5998 46.4996C38.1998 43.8996 39.0998 41.1996 40.9998 39.2996C41.1998 39.0996 41.4998 38.7996 41.6998 38.5996C41.7998 38.5996 41.9998 38.3996 42.0998 38.2996C31.4998 46.7996 41.4998 38.2996 41.5998 38.5996C41.5998 38.7996 41.8998 38.8996 41.9998 39.0996C42.5998 39.8996 43.0998 40.8996 43.3998 41.8996C43.8998 43.4996 43.8998 45.1996 43.4998 46.7996C43.0998 48.4996 42.4998 50.3996 41.0998 51.5996C41.0998 51.5996 40.9998 51.5996 40.8998 51.7996C40.6998 51.9996 41.0998 51.5996 41.1998 51.5996C41.0998 51.5996 40.8998 51.6996 40.6998 51.7996C40.3998 51.7996 40.0998 51.8996 39.7998 51.9996C39.2998 51.9996 38.7998 51.9996 38.2998 51.7996C37.7998 51.5996 37.1998 51.3996 36.7998 51.0996C36.6998 51.0996 35.8998 51.7996 35.7998 51.6996C36.2998 52.0996 36.9998 52.3996 37.6998 52.4996C39.0998 52.7996 40.1998 52.2996 41.3998 51.5996C43.1998 50.5996 43.9998 48.4996 44.4998 46.5996C44.9998 44.6996 44.8998 42.3996 44.0998 40.4996C43.6998 39.5996 43.1998 38.6996 42.4998 38.0996C41.4998 38.5996 40.4998 39.1996 39.6998 40.0996C38.7998 41.0996 38.0998 42.1996 37.5998 43.3996C36.6998 45.4996 36.1998 47.8996 35.8998 50.1996C35.8998 50.6996 35.7998 51.1996 35.7998 51.6996C35.7998 51.4996 36.7998 51.2996 36.7998 51.0996L36.9998 50.9996Z" fill="#231F20"/>
<path d="M37.4004 51C37.5004 48.7 38.0004 46.3 38.7004 44.2C39.4004 42.1 40.5004 40 42.4004 38.7L41.9004 38.1C40.7004 39.1 39.5004 40 38.2004 41C37.9004 41.2 37.7004 41.4 37.4004 41.6C37.4004 41.6 37.2004 41.6 37.2004 41.8C37.2004 41.9 36.9004 41.8 37.4004 41.8L37.7004 42.2C37.7004 42.4 37.5004 42.4 37.7004 42.4L37.9004 42.2C38.1004 42 38.4004 41.8 38.6004 41.6C39.2004 41.1 39.9004 40.6 40.5004 40.1C40.8004 39.9 41.0004 39.7 41.3004 39.5L41.8004 39.2C41.8004 39.4 41.3004 38.9 41.5004 39.2C41.5004 39.4 41.9004 39.6 42.0004 39.7C42.3004 40.1 42.6004 40.6 42.9004 41.1C43.5004 42.3 43.7004 43.7 43.7004 45C43.7004 46.3 43.4004 47.6 42.9004 48.8C42.7004 49.4 42.4004 50 42.0004 50.5C41.7004 51 41.2004 51.3 40.9004 51.7C40.8004 51.9 40.8004 52.1 40.9004 52.2C41.0004 52.3 41.2004 52.4 41.4004 52.2C41.6004 52 41.6004 52 41.7004 52C42.1004 51.8 42.0004 51.2 41.5004 51.3C40.9004 51.5 40.4004 51.6 39.8004 51.6C39.1004 51.6 38.4004 51.3 37.8004 50.9C37.5004 50.7 37.3004 50.6 37.0004 50.7C36.8004 50.7 36.4004 51.2 36.3004 51.2C35.9004 51.2 35.8004 51.7 36.1004 51.9C37.6004 52.9 39.4004 53.1 41.1004 52.3C42.8004 51.5 43.9004 50.3 44.6004 48.6C46.1004 45.1 46.1004 40.5 43.2004 37.7C43.1004 37.6 42.9004 37.6 42.7004 37.7C40.3004 38.9 38.7004 40.7 37.7004 43.2C36.6004 45.8 36.0004 48.7 35.9004 51.6C35.9004 52 36.4004 52.1 36.6004 51.8C36.6004 51.7 37.1004 51.6 37.2004 51.5C37.4004 51.5 37.5004 51.3 37.6004 51.2C37.8004 50.8 37.1004 50.4 37.0004 50.8C36.9004 51.1 36.1004 51 36.0004 51.4L36.7004 51.6C36.8004 49 37.3004 46.3 38.3004 43.9C39.3004 41.5 40.8004 39.5 43.2004 38.4H42.7004C45.2004 40.8 45.3004 44.9 44.1004 48C42.9004 51.1 39.6004 53.3 36.5004 51.3L36.3004 52C36.6004 52 36.8004 51.8 37.1004 51.6C37.3004 51.4 37.3004 51.4 37.5004 51.6C37.8004 51.7 38.1004 51.9 38.4004 52C39.0004 52.2 39.6004 52.4 40.2004 52.4C40.8004 52.4 41.3004 52.2 41.9004 52.1L41.7004 51.4C41.5004 51.4 41.4004 51.6 41.2004 51.7H41.7004V52.3C42.0004 52 42.4004 51.7 42.7004 51.3C43.1004 50.8 43.4004 50.3 43.7004 49.7C44.2004 48.6 44.5004 47.4 44.7004 46.2C45.1004 43.6 44.4004 40.8 42.7004 38.8C42.4004 38.5 42.3004 38.3 41.9004 38.5C41.6004 38.6 41.4004 38.8 41.2004 39C40.4004 39.6 39.7004 40.2 39.0004 40.8C38.7004 41.1 38.3004 41.4 38.0004 41.7C37.8004 41.8 37.5004 42 37.6004 42.3C37.6004 42.5 37.7004 42.6 37.9004 42.7C38.3004 42.7 38.9004 42.2 39.2004 41.9C40.5004 40.9 41.8004 39.8 43.2004 38.8C43.5004 38.5 43.1004 38 42.7004 38.2C40.8004 39.6 39.6004 41.5 38.8004 43.7C37.9004 46.1 37.5004 48.7 37.3004 51.2C37.3004 51.7 38.0004 51.7 38.1004 51.2L37.4004 51Z" fill="#231F20"/>
<path d="M37.5996 54.3001C35.8996 54.3001 34.1996 54.1001 32.5996 53.8001C29.0996 53.1001 25.6996 51.6001 22.9996 49.2001C21.0996 47.5001 19.6996 45.4001 18.7996 43.0001L17.7996 43.6001C17.6996 43.6001 17.8996 43.6001 17.8996 43.6001C18.0996 43.6001 18.1996 43.4001 18.3996 43.4001C18.8996 43.2001 19.4996 43.0001 19.9996 42.9001C21.4996 42.5001 23.0996 42.4001 24.6996 42.9001C26.9996 43.6001 28.0996 45.4001 29.3996 47.2001C30.7996 49.2001 32.3996 51.1001 34.0996 52.8001C34.8996 53.6001 35.6996 54.4001 36.5996 55.1001C36.6996 55.1001 37.4996 54.4001 37.5996 54.5001C34.9996 52.4001 32.7996 49.8001 30.7996 47.1001C29.3996 45.2001 28.3996 43.1001 25.9996 42.3001C24.4996 41.7001 22.6996 41.8001 21.0996 42.3001C20.1996 42.5001 19.3996 42.8001 18.5996 43.3001C18.5996 43.3001 17.5996 43.8001 17.5996 43.9001C19.1996 47.9001 22.1996 51.0001 25.9996 52.9001C28.6996 54.2001 31.5996 55.0001 34.5996 55.2001C35.1996 55.2001 35.7996 55.2001 36.3996 55.2001C36.7996 55.2001 37.0996 54.6001 37.3996 54.6001L37.5996 54.3001Z" fill="#231F20"/>
<path d="M37.6004 53.9003C29.9004 54.1003 22.1004 50.1003 19.1004 42.9003C19.1004 42.7003 18.8004 42.5003 18.6004 42.7003C18.3004 42.9003 17.9004 43.1003 17.6004 43.3003C17.2004 43.5003 17.6004 44.2003 18.0004 44.0003C20.2004 42.9003 23.1004 42.3003 25.4004 43.4003C27.3004 44.3003 28.4004 46.4003 29.6004 48.0003C31.0004 49.9003 32.6004 51.7003 34.3004 53.4003C34.7004 53.8003 35.1004 54.2002 35.5004 54.6002C35.7004 54.8002 36.1004 55.3003 36.5004 55.4003C37.0004 55.4003 37.3004 54.8003 37.6004 54.8003C37.9004 54.8003 38.1004 54.4003 37.9004 54.2003C35.9004 52.6003 34.2004 50.7003 32.6004 48.8003C31.2004 47.0003 30.1004 44.9003 28.5004 43.4003C26.9004 41.9003 24.7004 41.4003 22.5004 41.7003C20.9004 41.9003 18.7004 42.4002 17.5004 43.6002C17.5004 43.6002 17.4004 43.8003 17.4004 44.0003C18.9004 47.7003 21.6004 50.8003 25.2004 52.8003C27.2004 53.9003 29.4004 54.7002 31.7004 55.1002C32.8004 55.3002 34.0004 55.5002 35.2004 55.6002C35.7004 55.6002 36.3004 55.7002 36.7004 55.6002C37.1004 55.6002 37.3004 55.1003 37.7004 55.0003C38.2004 54.9003 38.0004 54.2003 37.5004 54.3003C37.3004 54.3003 37.2004 54.4003 37.0004 54.5003C36.6004 54.7003 36.3004 54.8003 35.8004 54.9003C34.8004 54.9003 33.8004 54.8002 32.9004 54.6002C31.2004 54.3002 29.5004 53.9003 27.9004 53.3003C25.0004 52.2003 22.4004 50.4003 20.5004 48.0003C20.0004 47.4003 19.6004 46.8002 19.2004 46.1002C19.0004 45.8002 18.8004 45.5003 18.7004 45.2003C18.7004 45.0003 18.5004 44.8003 18.4004 44.7003C18.4004 44.7003 18.0004 44.2003 18.0004 44.3003C18.0004 44.2003 19.0004 43.8003 19.1004 43.7003C19.9004 43.3003 20.9004 43.0003 21.8004 42.8003C23.6004 42.4003 25.6004 42.6002 27.2004 43.6002C28.4004 44.4002 29.2004 45.7003 30.0004 46.9003C32.1004 49.9003 34.5004 52.7002 37.3004 55.1002L37.6004 54.5003C37.4004 54.5003 37.2004 54.7003 37.0004 54.8003C36.6004 55.1003 36.7004 55.1003 36.3004 54.8003C35.5004 53.9003 34.4004 53.1002 33.6004 52.1002C31.8004 50.1002 30.3004 48.0003 28.7004 45.8003C27.5004 44.2003 26.0004 42.9002 24.0004 42.6002C21.9004 42.2002 19.6004 42.8003 17.6004 43.8003L18.0004 44.5003C18.3004 44.3003 18.6004 44.1003 19.0004 43.9003L18.5004 43.7003C20.0004 47.3003 22.5004 50.3003 25.9004 52.3003C29.3004 54.3003 33.6004 55.4003 37.7004 55.3003C38.2004 55.3003 38.2004 54.5003 37.7004 54.5003L37.6004 53.9003Z" fill="#231F20"/>
<path d="M31.3002 32.5998C32.9002 31.8998 34.5002 30.9998 35.9002 29.9998C38.6002 28.0998 41.1002 25.5998 42.0002 22.2998C42.2002 21.3998 42.4002 20.4998 42.3002 19.4998C42.3002 18.9998 42.3002 18.4998 42.2002 17.9998C42.2002 17.7998 42.1002 16.8998 41.9002 16.7998C41.8002 16.7998 41.3002 16.7998 41.2002 16.8998C40.7002 16.9998 40.1002 17.0998 39.6002 17.2998C36.6002 18.2998 33.6002 20.2998 32.5002 23.2998C32.0002 24.6998 31.9002 26.1998 31.7002 27.5998C31.6002 28.6998 31.4002 29.6998 31.3002 30.7998C31.3002 31.2998 31.1002 31.9998 31.3002 32.4998C31.3002 32.4998 32.4002 31.9998 32.3002 31.8998C32.3002 31.5998 32.3002 31.2998 32.3002 30.9998C32.3002 29.4998 32.6002 27.8998 32.8002 26.3998C33.1002 24.2998 33.3002 22.2998 34.6002 20.5998C35.1002 19.9998 35.6002 19.3998 36.2002 18.9998C36.4002 18.8998 36.5002 18.7998 36.7002 18.5998C37.2002 18.2998 36.3002 18.7998 36.7002 18.5998C37.0002 18.3998 37.4002 18.2998 37.7002 18.0998C38.6002 17.7998 39.5002 17.4998 40.4002 17.3998C40.8002 17.3998 40.7002 17.3998 40.9002 17.8998C41.1002 18.7998 41.2002 19.6998 41.2002 20.5998C41.1002 23.7998 39.3002 26.5998 37.0002 28.6998C36.4002 29.1998 35.9002 29.6998 35.2002 30.0998C34.9002 30.2998 34.6002 30.5998 34.2002 30.7998C34.1002 30.7998 33.9002 30.9998 33.8002 31.0998C33.7002 31.0998 33.2002 31.3998 33.6002 31.1998C34.0002 30.9998 33.6002 31.1998 33.4002 31.1998C33.3002 31.1998 33.2002 31.2998 33.1002 31.3998C32.9002 31.3998 32.8002 31.5998 32.6002 31.5998C32.5002 31.5998 32.3002 31.6998 32.2002 31.7998C31.8002 31.9998 31.5002 32.1998 31.2002 32.3998L31.3002 32.5998Z" fill="#231F20"/>
<path d="M31.5004 32.9C36.8004 30.6 42.8004 25.9 42.7004 19.6C42.7004 18.9 42.6004 18.3 42.5004 17.6C42.5004 17.3 42.5004 16.7 42.1004 16.5C41.8004 16.3 41.4004 16.5 41.1004 16.5C40.3004 16.7 39.5004 16.9 38.8004 17.2C36.3004 18.2 33.9004 19.8 32.6004 22.2C31.8004 23.7 31.6004 25.4 31.4004 27.1C31.3004 28.1 31.2004 29 31.1004 29.9C31.1004 30.8 30.8004 31.7 31.0004 32.6C31.0004 32.9 31.5004 32.9 31.7004 32.6C31.7004 32.7 31.9004 32.6 32.0004 32.5C32.2004 32.5 32.4004 32.3 32.5004 32.2C32.8004 31.9 32.7004 31.5 32.7004 31.1C32.7004 29.3 33.0004 27.6 33.3004 25.9C33.5004 24.5 33.7004 23 34.4004 21.7C34.8004 21 35.3004 20.4 35.8004 19.8C36.2004 19.4 36.8004 19.1 37.2004 18.7C37.4004 18.5 37.3004 18.1 37.0004 18.1C36.8004 18.1 36.5004 18.1 36.4004 18.4C36.3004 18.7 36.5004 19.1 36.8004 18.9C37.6004 18.7 38.3004 18.2 39.0004 18C39.4004 17.9 39.9004 17.8 40.4004 17.7H40.7004L40.6004 17.6C40.6004 17.7 40.7004 18.1 40.7004 18.2C41.1004 20.1 40.9004 22 40.2004 23.7C38.9004 26.8 36.2004 29.2 33.4004 30.9C33.0004 31.2 33.4004 31.7 33.8004 31.6C33.8004 31.6 34.0004 31.6 34.1004 31.4C34.5004 31.2 34.2004 30.6 33.8004 30.7C32.9004 31.1 32.0004 31.7 31.1004 32.1C30.7004 32.3 31.1004 33 31.5004 32.8C32.3004 32.4 33.1004 31.8 34.0004 31.5L33.7004 30.8C33.7004 30.8 33.5004 30.9 33.4004 31L33.8004 31.7C37.1004 29.7 40.2004 26.9 41.3004 23.1C41.6004 22.1 41.7004 21.1 41.7004 20.1C41.7004 19.6 41.7004 19 41.5004 18.5C41.5004 18.2 41.5004 17.7 41.3004 17.4C41.0004 16.9 40.2004 17.2 39.7004 17.4C38.6004 17.6 37.7004 18.2 36.7004 18.5L37.1004 19C37.0004 19.1 37.0004 19 37.1004 19C37.2004 19 37.1004 19 36.9004 19L36.7004 18.4C36.2004 18.8 35.7004 19.1 35.3004 19.5C34.8004 20 34.3004 20.6 33.9004 21.2C33.1004 22.5 32.8004 24 32.6004 25.4C32.4004 27 32.1004 28.7 32.0004 30.4C32.0004 30.8 32.0004 31.2 32.0004 31.6C32.0004 32 32.0004 32.1 32.0004 31.9C32.0004 31.8 32.0004 31.9 31.9004 31.9C31.6004 31.9 31.1004 32.2 31.0004 32.5H31.7004C31.6004 31.9 31.7004 31.2 31.8004 30.5C31.8004 29.8 31.9004 29 32.0004 28.3C32.2004 26.9 32.3004 25.4 32.7004 24C33.4004 21.5 35.4004 19.7 37.7004 18.5C38.9004 17.9 40.1004 17.5 41.3004 17.3C41.8004 17.2 41.7004 17.4 41.8004 17.9C41.8004 18.6 42.0004 19.2 42.0004 19.9C42.0004 22.7 40.6004 25.2 38.7004 27.2C36.6004 29.4 33.9004 31.1 31.2004 32.3C30.8004 32.5 31.2004 33.1 31.6004 33L31.5004 32.9Z" fill="#231F20"/>
<path d="M31.2998 28.6003C29.4998 27.8003 27.6998 27.1003 25.7998 26.5003C22.7998 25.6003 19.3998 24.7003 16.2998 25.6003C16.1998 25.6003 15.2998 26.1003 15.2998 26.2003C15.4998 28.6003 16.6998 31.2003 18.6998 32.6003C21.8998 34.9003 27.1998 33.9003 29.8998 31.1003C30.4998 30.4003 31.0998 29.5003 31.2998 28.6003C31.2998 28.8003 30.2998 28.9003 30.2998 29.2003C30.1998 29.8003 29.8998 30.4003 29.4998 31.0003C29.2998 31.2003 29.0998 31.5003 28.8998 31.7003C28.7998 31.8003 27.8998 32.4003 27.8998 32.5003C27.8998 32.5003 28.6998 32.1003 27.9998 32.5003C27.8998 32.5003 27.7998 32.5003 27.6998 32.6003C27.4998 32.6003 27.2998 32.8003 27.0998 32.8003C26.5998 33.0003 25.9998 33.1003 25.3998 33.1003C23.2998 33.3003 21.1998 33.1003 19.4998 31.8003C18.2998 30.9003 17.4998 29.5003 16.8998 28.1003C16.5998 27.3003 16.3998 26.4003 16.2998 25.6003L15.2998 26.2003C18.3998 25.4003 21.7998 26.2003 24.7998 27.1003C26.6998 27.7003 28.4998 28.3003 30.2998 29.2003C30.4998 29.2003 31.0998 28.5003 31.2998 28.6003Z" fill="#231F20"/>
<path d="M31.5004 28.2C28.5004 26.8 25.2004 25.7 21.9004 25.1C20.4004 24.8 18.8004 24.7 17.3004 24.9C16.7004 24.9 15.2004 25.2 14.9004 25.9C14.7004 26.3 15.0004 27.2 15.1004 27.6C15.3004 28.3 15.5004 28.9 15.8004 29.5C16.4004 30.7 17.2004 31.8 18.3004 32.7C20.3004 34.2 22.9004 34.4 25.2004 33.9C27.9004 33.3 31.0004 31.5 31.6004 28.6C31.6004 28.2 31.1004 27.8999 30.9004 28.2999C30.9004 28.4999 30.2004 28.5 30.0004 28.7C29.6004 29 29.6004 29.8 29.3004 30.2C29.0004 30.7 28.6004 31.2 28.2004 31.5C28.0004 31.7 27.6004 31.9 27.5004 32.2C27.3004 32.6 27.8004 33 28.1004 32.7C28.1004 32.7 28.3004 32.6999 28.3004 32.5999L28.0004 31.9C26.0004 33.1 22.9004 33.1 20.9004 32.2C18.3004 31.1 16.9004 28.2 16.6004 25.5C16.6004 25.2 16.3004 25 16.0004 25.2L15.0004 25.7999C14.6004 25.9999 14.9004 26.6 15.3004 26.5C18.4004 25.7 21.6004 26.5 24.6004 27.4C26.2004 27.9 27.7004 28.4 29.2004 29.1C29.6004 29.3 30.0004 29.6 30.5004 29.5C30.7004 29.5 31.1004 28.9 31.3004 29C31.8004 29 31.8004 28.3 31.3004 28.2C31.0004 28.2 30.8004 28.5 30.5004 28.6C30.1004 28.8 29.9004 28.6 29.5004 28.4C29.2004 28.3 28.9004 28.1 28.6004 28C27.1004 27.4 25.6004 26.9 24.1004 26.5C21.2004 25.7 18.2004 24.9999 15.2004 25.7999L15.5004 26.5L16.5004 25.9L15.9004 25.6C16.2004 28.5 17.7004 31.6 20.5004 32.9C21.8004 33.5 23.3004 33.6999 24.7004 33.5999C25.9004 33.5999 27.4004 33.3 28.5004 32.7C28.9004 32.5 28.6004 31.9 28.2004 32C28.0004 32 27.8004 32.1999 27.6004 32.2999L28.2004 32.7999C28.4004 32.4999 28.8004 32.2999 29.1004 32.0999C29.5004 31.7999 29.8004 31.3 30.0004 30.9C30.3004 30.4 30.4004 29.6 30.9004 29.4C31.2004 29.2 31.5004 29.2 31.6004 28.9L30.9004 28.6C30.4004 30.9 28.0004 32.4999 25.9004 33.0999C23.8004 33.6999 21.4004 33.8 19.5004 32.7C17.4004 31.6 16.1004 29.2 15.7004 27C15.7004 26.9 15.6004 26.4 15.6004 26.5C15.7004 26.4 15.9004 26.3 16.1004 26.2C16.7004 25.9 17.3004 25.8999 17.9004 25.7999C19.3004 25.6999 20.7004 25.8 22.1004 26.1C25.2004 26.7 28.2004 27.8 31.1004 29.1C31.5004 29.3 31.9004 28.6 31.5004 28.4V28.2Z" fill="#231F20"/>
<path d="M27.4002 16.8002C28.7002 15.6002 29.7002 14.0002 30.4002 12.3002C32.0002 8.50017 31.6002 4.40019 29.8002 0.700195C29.8002 0.700195 28.8002 1.20017 28.8002 1.30017C27.7002 2.40017 26.9002 4.0002 26.3002 5.4002C24.8002 9.2002 25.2002 13.4002 26.4002 17.3002C26.4002 17.3002 27.5002 16.8002 27.4002 16.7002C26.1002 12.8002 25.8002 8.60017 27.3002 4.80017C27.8002 3.30017 28.7002 1.80019 29.8002 0.700195L28.8002 1.30017C30.7002 4.90017 31.1002 9.1002 29.4002 12.9002C28.7002 14.5002 27.7002 16.2002 26.4002 17.4002C26.7002 17.1002 27.1002 17.1002 27.4002 16.8002Z" fill="#231F20"/>
<path d="M27.6996 17.1003C29.7996 15.1003 31.2996 12.2004 31.6996 9.30039C32.0996 6.40039 31.4996 3.30038 30.0996 0.600372C30.0996 0.400372 29.6996 0.400397 29.5996 0.500397C29.2996 0.700397 28.8996 0.800372 28.5996 1.10038C28.0996 1.50038 27.6996 2.10038 27.2996 2.60038C26.3996 4.00038 25.6996 5.60041 25.2996 7.20041C24.4996 10.7004 24.8996 14.2003 25.8996 17.6003C25.9996 17.9003 26.3996 17.9003 26.5996 17.6003C26.4996 17.7003 26.8996 17.5004 26.9996 17.4004C27.0996 17.4004 27.2996 17.3004 27.4996 17.2004C27.8996 16.9004 27.5996 16.5004 27.4996 16.0004C26.9996 14.3004 26.6996 12.5004 26.5996 10.7004C26.5996 7.30041 27.4996 3.5004 29.8996 1.0004C30.1996 0.700397 29.8996 0.200421 29.3996 0.400421L28.3996 1.0004C28.1996 1.1004 28.1996 1.3004 28.2996 1.5004C30.8996 6.6004 30.2996 13.0003 25.9996 17.1003C25.6996 17.4003 26.0996 17.9004 26.4996 17.7004C26.7996 17.5004 27.1996 17.3003 27.4996 17.1003C27.8996 16.8003 27.4996 16.2004 27.0996 16.4004C26.7996 16.6004 26.3996 16.8004 26.0996 17.0004L26.5996 17.6003C28.6996 15.6003 30.1996 12.7004 30.5996 9.80039C30.9996 6.90039 30.3996 3.80038 28.9996 1.10038V1.60038C28.8996 1.60038 29.8996 1.0004 29.8996 1.0004L29.3996 0.400421C27.0996 2.70042 25.9996 6.20042 25.8996 9.40042C25.8996 11.1004 25.8996 12.8004 26.3996 14.5004C26.4996 15.0004 26.5996 15.5004 26.7996 15.9004C26.7996 16.1004 26.8996 16.3004 26.9996 16.5004C26.6996 16.7004 26.2996 16.8003 26.0996 17.1003H26.7996C25.7996 14.1003 25.3996 10.7004 26.0996 7.5004C26.3996 6.0004 26.9996 4.50041 27.7996 3.20041C28.1996 2.60041 28.5996 2.0004 29.0996 1.5004C29.3996 1.3004 29.6996 1.2004 29.9996 1.0004H29.4996C32.0996 6.0004 31.4996 12.4004 27.1996 16.5004C26.7996 16.8004 27.3996 17.4004 27.6996 17.0004V17.1003Z" fill="#231F20"/>
<path d="M12.9004 4.50014C12.7004 4.50014 11.9004 4.90011 11.9004 5.10011C11.9004 5.30011 12.1004 5.60015 12.2004 5.70015C12.8004 6.70015 13.5004 7.60014 14.2004 8.50014C16.2004 11.0001 18.5004 13.6001 21.4004 15.2001C22.7004 15.9001 24.3004 16.4001 25.8004 16.0001C25.9004 16.0001 26.8004 15.5001 26.8004 15.4001C27.2004 11.1001 24.9004 6.50014 20.7004 5.00014C18.2004 4.10014 15.5004 4.10014 13.0004 4.50014C12.6004 4.50014 12.3004 5.00011 12.0004 5.10011C15.9004 4.60011 20.4004 4.90016 23.2004 7.90016C24.8004 9.70016 25.7004 12.1001 25.8004 14.5001C25.8004 15.0001 25.8004 15.6001 25.8004 16.1001L26.8004 15.5001C24.1004 16.3001 21.4004 14.3001 19.5004 12.6001C17.4004 10.7001 15.5004 8.50011 13.9004 6.10011C13.9004 6.00011 12.8004 4.60016 13.0004 4.40016L12.0004 5.00014C12.4004 4.90014 12.7004 4.50016 13.0004 4.40016L12.9004 4.50014Z" fill="#231F20"/>
<path d="M12.7998 4.09979C12.3998 4.19979 11.7999 4.3998 11.5999 4.7998C11.2999 5.1998 11.5998 5.69981 11.8998 5.99981C12.7998 7.49981 13.8999 8.89981 15.0999 10.2998C16.2999 11.6998 17.5998 12.9998 18.9998 14.0998C20.2998 15.0998 21.7998 16.0998 23.3998 16.3998C24.4998 16.5998 26.0998 16.5998 26.9998 15.6998C27.3998 15.3998 27.1999 14.6998 27.1999 14.2998C27.1999 13.5998 27.1998 12.7998 26.9998 12.0998C26.4998 9.3998 24.8998 6.89983 22.5998 5.39983C20.9998 4.39983 19.0998 3.8998 17.2998 3.7998C16.1998 3.7998 15.0999 3.7998 14.0999 3.7998C13.6999 3.7998 13.1998 3.79981 12.7998 3.99981C12.4998 4.09981 12.2998 4.49981 11.8998 4.49981C11.4998 4.59981 11.5998 5.29982 11.9998 5.19982C15.0998 4.79982 18.4999 4.79981 21.1999 6.49981C24.2998 8.39981 25.6998 12.2998 25.3998 15.7998C25.3998 16.0998 25.6998 16.2998 25.9998 16.0998L26.9998 15.4998C27.3998 15.2998 27.0999 14.6998 26.6999 14.7998C23.4999 15.6998 20.2999 12.6998 18.1999 10.5998C16.9999 9.3998 15.8998 8.09982 14.8998 6.69982C14.5998 6.19982 14.1998 5.7998 13.8998 5.2998C13.7998 5.0998 13.6998 4.9998 13.4998 4.7998C13.4998 4.7998 13.3998 4.59981 13.2998 4.49981C13.2998 4.39981 13.2998 4.19981 13.1998 4.49981C13.3998 4.19981 12.9998 3.79981 12.6998 3.99981L11.6998 4.59979C11.2998 4.79979 11.5998 5.3998 11.9998 5.2998C12.3998 5.1998 12.6999 4.79982 13.0999 4.69982C13.4999 4.49982 13.0998 3.89981 12.6998 3.99981C12.3998 4.09981 12.0998 4.49979 11.6998 4.59979L11.9998 5.2998L12.9998 4.69982L12.4998 4.19982C12.0998 4.89982 13.2998 6.09982 13.6998 6.69982C14.7998 8.29982 16.0998 9.89981 17.4998 11.2998C19.7998 13.5998 23.1998 16.7998 26.7998 15.7998L26.4998 15.0998L25.4998 15.6998L26.0998 15.9998C26.2998 12.3998 24.8998 8.3998 21.7998 6.2998C18.8998 4.2998 15.1999 4.19982 11.7998 4.69982V5.39983C12.0998 5.39983 12.2998 5.19979 12.3998 5.09979C12.6998 4.89979 12.9998 4.79982 13.2998 4.69982C14.0998 4.59982 14.8998 4.49981 15.6998 4.49981C17.1998 4.49981 18.7999 4.69982 20.1999 5.19982C22.4999 5.99982 24.2998 7.7998 25.2998 10.0998C25.7998 11.1998 26.0999 12.3998 26.1999 13.5998C26.1999 13.9998 26.3999 14.7998 26.1999 15.1998C25.9999 15.5998 25.2998 15.6998 24.8998 15.7998C23.3998 15.9998 21.7998 15.2998 20.4998 14.4998C19.1998 13.6998 18.1999 12.7998 17.0999 11.7998C15.9999 10.7998 14.8998 9.39983 13.9998 8.19983C13.4998 7.49983 12.9998 6.79979 12.4998 6.09979C12.4998 6.09979 11.9998 5.3998 11.9998 5.2998C11.9998 5.1998 12.5998 4.99983 12.6998 4.89983C13.1998 4.69983 12.8998 3.99982 12.4998 4.19982L12.7998 4.09979Z" fill="#231F20"/>
</g>
<defs>
<clipPath id="clip0_208_494">
<rect width="103" height="265" fill="white"/>
</clipPath>
</defs>
</svg>
