<svg width="160" height="264" viewBox="0 0 160 264" fill="none" xmlns="http://www.w3.org/2000/svg">
<g clip-path="url(#clip0_208_632)">
<path d="M158.5 134.1C156.3 132.8 153.6 132.8 151.2 132.9C147.8 133.2 144.5 134 141.2 134.9C134.7 136.8 128.3 139.4 122.1 142.2C121.6 142.4 121.1 142.7 120.6 142.9C125 138.9 129.2 134.5 133.3 130C136.4 126.6 139.5 123.1 142.6 119.5C142.8 119.3 142.9 119.1 143.1 119C143.3 118.7 142.4 118.6 142.3 118.7C139.2 120 136.3 121.8 133.4 123.5C126.7 127.6 120.2 132.4 114.4 138.1C111.2 141.2 108.2 144.6 105.4 148.2C107 143.5 108.1 138.6 108.5 133.5C108.5 132.5 108.7 131.4 108.6 130.4C108.6 130.1 107.8 129.9 107.7 130.2C107.2 131.7 106.4 133.2 105.7 134.5C103.5 138.7 100.7 142.5 98.1004 146.5C95.8004 150 94.0004 154.1 92.5004 158.1C91.1004 161.9 89.9004 165.8 88.8004 169.8C88.2005 171.9 87.7005 173.9 87.3004 176C87.1005 176.2 86.9004 176.5 86.8004 176.7C86.8004 176.7 86.8004 176.7 86.8004 176.8C82.3004 182.9 78.1004 189.4 74.4004 196.1C77.4004 183 81.0004 170.1 84.9004 157.3C89.2004 143.4 93.9004 129.7 99.0004 116.2C102 116.4 105.1 114.8 107.7 113.3C111.9 111 115.8 108.2 119.7 105.3C127.4 99.5001 134.8 93.1 141.9 86.4C143.5 85 145.1 83.5 146.6 82C146.8 81.8 146.1 81.5 146 81.5C142 81.1 138.1 82.3 134.4 84C130 86.1 125.9 88.9 122 91.9C114.8 97.5 108.2 104.1 102 111.1C101.3 111.9 100.6 112.7 99.9004 113.5C99.9004 113.5 99.9004 113.5 99.9004 113.3C103.9 102.8 108.1 92.4 112.6 82.1C114 79 115.3 75.9001 116.7 72.8001C117.1 71.9001 117.5 71 118 70.1C118.2 69.7 118.5 69.2 118.7 68.7C120.1 67.5 121.4 66.3 122.7 65C125 62.7 127.3 60.3 129 57.4C129.7 56.2 130.4 54.8 130.4 53.2C130.4 52.9 129.8 53.1 129.7 53.2C128.3 53.8 127 54.6 125.7 55.4C125.5 55.6 125.2 55.7 125 55.9C126 52.9 126.8 49.8 127 46.6C127 45.5 127.2 44.3 127 43.2C127 42.9 126.5 43 126.3 43C123.9 43.7 122.4 46.3 121.3 48.7C120.8 49.9 120.3 51.1001 119.9 52.3001C119.7 51.9001 119.5 51.4 119.1 51.1C118.9 50.9 118.7 50.7 118.5 50.5C118.3 50.4 117.8 50.3 117.6 50.5C115.6 53.5 115.8 57.9 116.2 61.5C116.5 63.9 116.9 66.3 117.6 68.6C115.9 72.2 114.3 75.8 112.7 79.4C108.4 89.1 104.4 98.8 100.6 108.7C99.8004 110.9 98.9004 113 98.1004 115.2V115.5C93.5004 127.3 89.3004 139.3 85.5004 151.4C80.6004 166.9 76.3003 182.6 72.7004 198.5C72.7004 198.5 72.7004 198.5 72.7004 198.6C71.8003 196.5 70.9004 194.4 69.9004 192.4C69.3004 191.2 68.8003 190.1 68.2004 189C68.6004 175.9 69.2004 162.8 70.1004 149.8C70.3004 147.7 70.4004 145.5 70.6004 143.4C73.4004 136.7 76.2004 130.1 79.2004 123.6C81.4003 118.7 83.5004 113.9 85.8004 109.1C88.0004 104.5 90.7004 100.3 92.5004 95.5C94.4004 90.7 95.9004 85.6 96.8004 80.4C96.8004 80.2001 96.1004 80.1 95.9004 80.4C93.1004 84.1 90.7005 88.2 88.3004 92.2C82.9004 101.5 78.3004 111.5 74.8004 122C73.4004 126.2 72.3004 130.4 71.3004 134.7C72.2005 123.6 73.3004 112.5 74.6004 101.5C75.7004 92.7 76.9004 83.8 78.3004 75.1C78.7005 72.7 79.1004 70.2001 79.6004 67.8001C79.7004 67.1001 79.9004 66.4 80.0004 65.7C80.0004 65.4 80.2004 64.9 80.2004 64.6C82.8003 63.4 84.9004 60.5 86.5004 57.9C87.7004 56.1 88.8003 54.3 89.7004 52.4C89.8003 52.1 89.3003 52 89.2004 52C88.4003 52 87.6005 52.0001 86.8004 52.3001C87.0004 51.4001 87.2004 50.5 87.4004 49.6C87.6004 48.7 87.7005 47.9 87.8004 47C87.8004 46.4 88.0004 45.7 87.8004 45.1C87.8004 44.9 87.5004 44.8 87.2004 44.9C88.3003 42.6 88.7004 39.7 89.1004 37.2C89.4004 35.3 89.6004 33.3001 89.7004 31.3001C89.7004 31.1001 89.4004 31 89.1004 31C89.4004 28.9 89.6004 26.8 89.7004 24.7C89.9003 21.1 90.0004 17.1 89.0004 13.6C89.2004 11.8 89.2004 10.0001 89.2004 8.30007C89.2004 5.70007 89.1005 2.70002 87.8004 0.500022C87.7005 0.300022 87.1004 0.500022 87.0004 0.500022C85.0004 2.00002 83.6004 4.60007 82.9004 7.30007C82.8004 6.90007 82.6004 6.59997 82.5004 6.19997C82.4004 5.89997 81.7004 6.10007 81.6004 6.30007C80.9004 7.40007 80.6005 8.89997 80.3004 10.2C79.9004 11.9 79.6005 13.7 79.3004 15.4C79.0004 17.3 78.7004 19.2 78.5004 21.1C78.3004 21 77.9004 20.9 77.8004 21.1C77.2005 22.1 77.1004 23.3 76.9004 24.4C76.7004 26 76.5004 27.6 76.5004 29.2C76.5004 31 76.3004 32.8 76.3004 34.6C76.1005 34.4 75.8004 34.3 75.6004 34.1C75.6004 34.1 75.0004 33.9 75.0004 34.1C74.5004 35.9 74.5004 38 74.4004 39.9C74.4004 41.1 74.4004 42.2 74.3004 43.4C74.0004 43.1 73.8004 42.8 73.5004 42.6C73.2004 42.4 72.7004 42.2 72.6004 42.6C72.0004 44.8 72.1004 47.3 72.2004 49.5C72.2004 50.8 72.4004 52.2 72.5004 53.5C71.8004 53.3 71.0004 53.3 70.4004 53.7C70.9004 59.3 74.7005 63.6 79.3004 64.9C78.7005 67.7001 78.3004 70.4 77.8004 73.2C76.4004 81.4 75.3003 89.5001 74.2004 97.8001C73.1004 106.5 72.2004 115.1 71.4004 123.8C71.4004 116.8 71.1005 109.8 70.3004 102.9C69.8004 98.7001 69.1004 94.5 68.0004 90.5C67.4004 88.3 66.7004 86.1 65.7004 84.1C65.4003 83.4 65.0004 82.6 64.4004 82.1C64.3004 82 63.6004 81.7 63.5004 82.1C62.5004 87.1 62.3004 92.4 62.3004 97.5C62.3004 103.5 62.8004 109.5 63.4004 115.5C64.4004 125.8 66.0004 136.1 67.8004 146.3C68.2005 148.4 68.6004 150.5 69.0004 152.6C68.2004 164.4 67.7005 176.2 67.3004 188.1C66.8004 187.2 66.3004 186.3 65.8004 185.4C65.5004 183.9 65.2004 182.4 64.9004 180.9C63.1004 172.4 61.3004 163.8 59.4004 155.3C57.9004 148.8 56.4004 142.3 54.7004 135.9C53.5004 131.3 51.8004 126.9 50.6004 122.2C50.6004 122 50.5004 121.7 50.4004 121.5C48.3004 112.9 46.9004 104.1 45.6004 95.3001C44.8004 89.8001 44.1004 84.3 43.4004 78.9C45.3004 77.8 46.5004 75.6 47.5004 73.6C48.9004 70.7 50.0004 67.4 50.9004 64.2C52.7004 58 53.9004 51.6 54.9004 45.1C55.1004 43.7 55.3004 42.2001 55.5004 40.8001C55.5004 40.5001 54.8004 40.7001 54.8004 40.8001C52.7005 41.8001 51.1004 43.9 49.9004 46.1C48.3004 49 47.2004 52.2 46.4004 55.5C44.7004 61.7 43.7004 68.2 43.0004 74.6C43.0004 74.8 43.0004 75.1001 43.0004 75.3001C42.7004 72.5001 42.3004 69.7001 42.0004 66.9C41.4004 61.3 40.8003 55.7 40.2004 50.1C40.2004 49.8 40.2004 49.5001 40.2004 49.3001C40.2004 47.4001 40.2004 45.5 40.0004 43.6C42.3004 42.9 43.6004 40.3 44.3004 37.9C45.1004 35.3 45.4004 32.6 45.5004 29.9C45.5004 29.3 45.5004 28.7 45.5004 28.1C45.5004 27.8 44.9004 27.7 44.7004 27.7C43.3003 28.1 42.3004 29.6 41.6004 31.1C41.6004 29.1 41.3004 27.1 40.9004 25.2C40.7004 24.2 40.4004 23.2001 40.0004 22.3001C39.9004 22.1001 39.2004 21.9 39.1004 22.2C38.5004 23.2 38.2004 24.4 38.0004 25.6C37.7004 27.1 37.5004 28.5 37.4004 30C37.3004 31.3 37.2004 32.6 37.1004 33.9C36.0004 31.9 34.5004 30.1 32.7004 28.6C32.3004 28.3 31.9004 28.0001 31.5004 27.8001C31.4004 27.8001 30.7004 27.6001 30.7004 27.8001C30.3004 32.3001 31.6004 36.8 33.5004 40.7C34.9004 43.5 36.6004 46.3 38.6004 48.6C38.8004 48.8 39.0004 49.1 39.3004 49.2C39.7005 53.2 40.1004 57.1 40.5004 61.1C41.5004 70.1 42.5004 79 43.7004 87.9C44.8003 96.2001 46.0004 104.5 47.6004 112.7C45.4004 106.5 42.8004 100.6 39.9004 94.8001C36.2004 87.3001 32.2004 80.1 27.9004 73.1C27.1004 71.8 26.2004 70.4 25.4004 69.2C25.4004 69.1 24.4004 68.7 24.5004 69C26.5004 76.6 28.7004 84.2 31.3004 91.6C32.7004 95.5 34.1004 99.2 36.4004 102.5C39.3004 106.7 42.0004 111.1 44.7004 115.5C46.6004 118.7 48.5004 121.9 50.4004 125.1C50.5004 125.6 50.7005 126 50.8004 126.5C51.4004 128.4 52.1004 130.3 52.7004 132.3C54.4004 138.1 55.8004 144 57.1004 149.8C59.0004 157.9 60.7004 166 62.5004 174.2C63.1004 177.1 63.7005 180.1 64.3004 183C63.0004 180.9 61.6004 178.8 60.1004 176.8C58.3004 174.4 56.4004 172.2 54.3004 170.2C53.1004 169 51.8004 168 50.5004 167C50.5004 167 50.5004 167 50.5004 166.9C50.4004 166.9 50.3003 166.9 50.2004 166.7C49.9004 166.5 49.7004 166.3 49.4004 166.1C48.6004 165.4 48.0004 164.5 47.4004 163.7C44.2004 158.9 42.4004 153.1 40.5004 147.5C36.7004 136.7 31.9004 126.3 27.0004 116.1C25.8004 113.5 24.5004 110.9 23.2004 108.4C23.1004 108.2 22.3004 108.4 22.3004 108.6C22.3004 115 23.5004 121.6 25.0004 127.8C28.1004 140.5 33.7004 152.7 42.5004 161.3C43.9004 162.7 45.5004 163.9 47.0004 165.1C43.3004 163.3 39.6004 161.5 35.8004 159.8C27.5004 156 19.0004 152.3 10.2004 150C8.40032 149.5 6.70039 149.2 4.90039 149C3.60039 148.9 2.30035 149 1.10035 149.4C0.900343 149.4 0.900391 149.5 0.900391 149.6C0.900391 149.6 0.900391 149.6 0.900391 149.7C4.90039 152.2 9.10032 154.4 13.2004 156.5C21.1004 160.5 29.3004 164.2 37.8004 166.3C41.7005 167.2 45.8004 167.9 49.8004 167.2C49.9004 167.2 50.0004 167.4 50.1004 167.5C52.3004 169.2 54.4004 171.3 56.3004 173.4C59.5004 177.1 62.3004 181.2 64.8004 185.6C65.5004 189 66.2004 192.5 66.9004 195.9C66.8004 201 66.7004 206.1 66.6004 211.3C61.0004 223.8 56.9004 237 54.5004 250.8C54.1004 253 53.8004 255.2 53.5004 257.4C53.5004 257.7 54.4004 257.9 54.4004 257.6C56.5004 242.3 60.6004 227.5 66.6004 213.7C66.6004 219.4 66.6004 225.1 66.6004 230.8C65.3004 239.4 64.3004 248.1 63.6004 256.7C63.4004 258.9 63.3003 261.1 63.2004 263.4C63.2004 263.7 64.1004 263.6 64.1004 263.3C64.5004 254.5 65.4004 245.8 66.6004 237.1C66.6004 242.9 66.8004 248.8 66.9004 254.6C66.9004 257.5 67.1004 260.4 67.1004 263.3C67.1004 263.6 68.0004 263.7 68.0004 263.5C67.7004 252.7 67.4004 241.8 67.4004 230.9C68.3004 225.1 69.3004 219.4 70.4004 213.7C71.3004 218.2 72.2004 222.6 73.1004 227.1C74.4004 233.8 75.7004 240.4 77.0004 247.1C77.6004 250.4 78.3004 253.8 78.9004 257.1C78.9004 257.3 78.9004 257.4 78.9004 257.5C78.9004 257.8 79.9004 257.8 79.8004 257.5C79.4004 255.2 78.9004 252.9 78.5004 250.6C77.3004 244.6 76.2004 238.7 75.0004 232.7C73.6004 225.5 72.2005 218.4 70.8004 211.3C71.0004 210.6 71.1004 209.8 71.2004 209.1C71.7004 206.9 72.1004 204.6 72.6004 202.4C75.4004 209.4 77.8004 216.6 79.8004 223.9C81.7005 230.6 83.2004 237.3 84.6004 244.1C84.6004 244.1 84.6004 244.3 84.6004 244.4C84.6004 244.7 85.6004 244.5 85.5004 244.2C84.5004 238.5 83.1004 232.8 81.7004 227.3C79.3003 218.3 76.5004 209.3 72.9004 200.8C72.9004 200.4 73.1004 200 73.2004 199.6C77.4003 191.8 82.1004 184.4 87.2004 177.5C91.8003 175.1 96.5004 172.8 101.2 170.6C109.5 166.7 117.9 162.9 126.6 160.2C128.5 159.6 130.5 159.1 132.4 158.7C133.8 158.5 135.2 158.3 136.6 158.5C136.9 158.5 137.1 158.4 136.8 158.2C134.2 156.4 130.9 155.8 128 155.5C119.9 154.7 111.8 157.5 104.7 161.7C100.6 164.2 96.7004 167.2 93.0004 170.5C94.0004 169.3 94.9004 167.9 95.8004 166.6C98.8004 163.1 101.9 159.8 105.1 156.5C109 156.7 112.8 155.8 116.6 154.8C121.3 153.5 125.8 151.6 130.3 149.7C138.3 146.1 146.1 142 153.7 137.5C155.3 136.6 156.9 135.6 158.4 134.6C158.5 134.6 158.4 134.4 158.4 134.3L158.5 134.1ZM120.1 54.2C120.5 52.6 121.1 51 121.8 49.6C122.7 47.6 124 45.2 125.8 44.2C125.9 45.1 125.8 46.1 125.8 47C125.6 50.6 124.6 54.1 123.4 57.5C122.2 58.5 121.2 59.7 120.2 61C120.4 59.5 120.5 58 120.4 56.5C120.4 55.8 120.2 55.0001 120 54.3001L120.1 54.2ZM119.9 63.1C120.9 61.1 122.2 59.4 123.8 57.9L124.4 57.4C125.7 56.3 127.1 55.3 128.6 54.5C128.8 54.5 129 54.3 129.2 54.2C129.1 55.4 128.6 56.4 128 57.4C127.2 58.8 126.2 60.2 125.2 61.4C123.3 63.7 121.2 65.7 119 67.7C118.9 67.8 118.8 67.9 118.6 68C119.1 66.4 119.6 64.7 119.9 63V63.1ZM117 62.1C116.6 58.7 116.4 54.6 118 51.6C118.3 52 118.6 52.5 118.8 52.9C119.8 55.2 119.7 58.1 119.4 60.6C119.3 61.5 119.1 62.4 119 63.2C118.5 64.3 118.1 65.5001 117.9 66.8001C117.6 65.2001 117.3 63.6 117.1 62L117 62.1ZM109.6 104.3C116.7 97.2001 124.3 90.3 132.8 85.7C136.6 83.7 140.7 82 145 82.1C140.9 86 136.8 89.7001 132.6 93.4C124.9 100.1 117 106.8 108.4 111.9C106.5 113 104.6 114.1 102.6 114.9C101.5 115.3 100.3 115.7 99.1004 115.8C102.4 111.8 106 108 109.6 104.3ZM88.4004 52.9C87.5004 54.6 86.5004 56.2001 85.5004 57.8001C84.0004 60.0001 82.3004 62.7 80.0004 64.1C80.1004 63.3 80.2004 62.4 80.1004 61.6C80.1004 61.3 80.1004 61.1001 79.9004 60.8001C80.3004 60.0001 80.8004 59.1001 81.3004 58.3001L81.4004 58.1C82.7004 56.2 84.3004 54.4 86.1004 53.5C86.1004 53.5 86.2005 53.5 86.3004 53.5C87.0004 53.2 87.6004 53 88.4004 52.9ZM86.6004 47.4C86.5004 48.3 86.3003 49.1 86.2004 50C86.0004 51.1 85.8004 52.1 85.5004 53.2C83.9004 54 82.5004 55.4 81.3004 57C81.0004 55.9 80.7005 54.8001 80.3004 53.8001C81.7005 50.8001 83.8004 48.1001 86.4004 46.3001H86.6004C86.6004 46.3001 86.6004 46.3001 86.7004 46.3001C86.7004 46.7001 86.7004 47.2 86.7004 47.6L86.6004 47.4ZM88.0004 37.1C87.6004 40 87.1004 43.4 85.6004 45.9C85.4004 46 85.3004 46.1 85.1004 46.2C83.8004 47.2 82.6004 48.4001 81.5004 49.8001C81.1004 50.3001 80.8004 50.9 80.4004 51.4C80.6004 48.5 80.7004 45.2001 80.1004 42.3001C80.9004 40.8001 81.9004 39.2001 82.8004 37.8001C83.1005 37.4001 83.4003 36.9 83.7004 36.5C85.0004 34.8 86.5004 33.1 88.3004 32.1C88.2005 33.8 88.0004 35.4 87.8004 37.1H88.0004ZM88.5004 25.1C88.4004 27.3 88.2004 29.5 87.9004 31.7C86.3004 32.5 85.0004 33.9001 83.7004 35.3001C83.3003 32.5001 82.6004 29.7 81.6004 27.1C82.1004 24 83.8004 21.1 85.4004 18.7C86.2004 17.4 87.2004 16.1001 88.1004 14.8001C88.8004 18.1001 88.7004 21.7 88.5004 25V25.1ZM85.7004 2.80007C86.1004 2.30007 86.5004 1.80007 87.0004 1.30007C87.4004 2.20007 87.7005 3.30007 87.8004 4.30007C88.0004 5.70007 88.1004 7.2 88.1004 8.6C88.1004 10.3 88.1004 11.9 87.9004 13.6C87.0004 14.7 86.2004 15.8 85.5004 16.9C85.3004 14.6 84.6004 12.4001 83.9004 10.3001C83.7004 9.80007 83.6004 9.30005 83.4004 8.90005C83.6004 6.60005 84.4003 4.49997 85.7004 2.69997V2.80007ZM79.1004 21.9C79.3004 19.7 79.7004 17.5 80.0004 15.2C80.3004 13.5 80.6004 11.8 81.0004 10.1C81.2004 9.2 81.5004 8.30005 81.8004 7.40005C82.2005 8.50005 82.6004 9.5 83.0004 10.6C83.8004 13 84.5004 15.6001 84.7004 18.3001C84.7004 18.3001 84.6004 18.5 84.5004 18.6C83.2004 20.7 81.8004 23.1 81.1004 25.6C81.0004 25.4 80.9004 25.1 80.8004 24.9C80.3004 23.9 79.8004 22.9 79.1004 22C79.1004 22 79.1004 22 79.1004 21.9ZM77.1004 29.4C77.1004 27.9 77.3004 26.3001 77.5004 24.8001C77.6004 23.9001 77.8004 23 78.1004 22.2C78.1004 22.2 78.2005 22.2 78.3004 22.2C78.9004 23 79.4004 23.9001 79.8004 24.8001C80.1005 25.5001 80.4003 26.1001 80.7004 26.8001L81.1004 27.9C82.0004 30.6 82.7004 33.4001 83.0004 36.3001C82.7004 36.7001 82.3004 37.2 82.0004 37.7C81.2004 38.8 80.5004 40 79.9004 41.1C79.3004 38.9 78.4004 37 76.9004 35.5C76.9004 33.5 76.9004 31.5 77.1004 29.5V29.4ZM75.0004 40.2C75.0004 38.4 75.0004 36.5001 75.5004 34.8001C75.7004 35.0001 75.9004 35.1001 76.1004 35.3001C76.1004 35.3001 76.1004 35.3 76.2004 35.4C76.5004 35.7 76.7004 36.0001 76.9004 36.3001C78.1004 38.0001 78.8003 40.1 79.2004 42.2V42.7C79.4003 43.3 79.5004 44 79.5004 44.6C79.7004 47.1 79.7004 49.5 79.5004 52C78.7004 50.2 77.7004 48.6 76.7004 47C76.1004 46.1 75.5004 45.2 74.8004 44.4C74.8004 43 74.8004 41.6 75.0004 40.2ZM73.1004 43.4C74.1004 44.5 75.0004 45.7 75.8004 46.9C77.2005 49 78.5004 51.3 79.4004 53.7C79.9004 55 80.3004 56.4 80.6004 57.9C80.2004 58.6 79.8004 59.2 79.4004 59.9C77.8004 57.3 75.8003 54.7 73.2004 53.6C73.0004 52.2 72.9004 50.8 72.9004 49.4C72.9004 47.4 72.7004 45.3 73.1004 43.4ZM78.9004 64.4C78.4004 64.2 77.8004 64 77.3004 63.7C75.7005 62.9 74.3003 61.7 73.2004 60.1C72.5004 59.1 71.9004 58 71.5004 56.9C71.3004 56.3 71.2004 55.7 71.0004 55C71.0004 54.8 70.7005 54 70.8004 53.9C71.0004 53.6 71.8004 53.7 72.3004 53.9C72.3004 53.9 72.5004 53.9 72.6004 53.9C72.6004 53.9 72.7005 53.9 72.8004 53.9C75.4004 55.1 77.3004 58 78.9004 60.5L79.0004 60.9C79.0004 61.1 79.1004 61.3 79.1004 61.6C79.1004 62.5 79.1004 63.4001 79.0004 64.3001C79.0004 64.3001 79.0004 64.3001 78.9004 64.3001V64.4ZM81.3004 107.6C84.9004 99.6 89.1005 92.0001 93.8004 84.8001C94.2005 84.1001 94.7004 83.5001 95.1004 82.8001C94.3004 86.5001 93.3004 90.2 92.0004 93.7C90.8004 97 89.4004 100.1 87.8004 103C86.9004 104.6 86.0004 106.3 85.2004 108C80.6004 117.2 76.6004 126.8 72.5004 136.3C71.9004 137.6 71.4004 138.9 70.9004 140.1C72.9004 128.7 76.6005 117.8 81.3004 107.5V107.6ZM66.5004 134.8C64.7004 123.1 63.2004 111.3 62.9004 99.5C62.8004 94 62.9004 88.4 63.8004 83.1C63.8004 83.3 64.0004 83.4 64.1004 83.6C65.0004 85.4 65.8004 87.3001 66.3004 89.3001C69.2005 99.0001 69.7004 109.7 69.9004 119.9C70.0004 127.7 69.8004 135.6 69.3004 143.4C69.2005 145.3 69.0004 147.1 68.9004 149C68.0004 144.3 67.2004 139.6 66.5004 134.8ZM44.7004 67.2C45.7004 60.5 47.1004 53.5 49.9004 47.4C51.0004 45.1 52.4004 42.6 54.4004 41.2C53.9004 44.9 53.3004 48.5 52.6004 52.1C51.3004 58.8 49.8004 65.6001 47.1004 71.8001C46.2004 73.9001 45.1004 76.3 43.4004 77.7C43.7004 74.2 44.1004 70.6 44.7004 67.1V67.2ZM42.7004 30.4C43.1004 29.6 43.7004 28.8001 44.4004 28.3001C44.4004 29.6001 44.4004 30.9 44.2004 32.1C43.9004 34.8 43.4004 37.8 42.0004 40.1C41.5004 41.1 40.8004 41.9 39.9004 42.4C40.0004 41.1 40.2004 39.7 40.4004 38.4C40.9004 35.7 41.5004 32.8 42.7004 30.4ZM39.0004 48C38.7004 47.6 38.3004 47.2001 38.0004 46.8001C36.8004 45.3001 35.8004 43.6 34.9004 42C32.7004 37.9 31.1004 33.2001 31.4004 28.3001C32.2004 28.9001 33.0004 29.6 33.6004 30.4C35.9004 32.9 37.4004 36.2 38.3004 39.7C38.9004 42.4 39.1004 45.3 39.0004 48.1V48ZM37.8004 35.4C37.8004 33.6 38.0004 31.8 38.1004 30C38.2004 28.5 38.4004 27.1 38.7004 25.6C38.9004 24.8 39.0004 23.9 39.3004 23.1C39.5004 23.6 39.6004 24.2 39.7004 24.7C40.4004 27.5 40.5004 30.5 40.4004 33.5C39.8004 35.6 39.4004 37.7001 39.1004 39.8001C38.8004 38.3001 38.3003 36.8 37.7004 35.4H37.8004ZM38.0004 103.7C37.1004 102.3 36.0004 101 35.2004 99.4C34.2004 97.4 33.4004 95.3 32.6004 93.2C30.8004 88.3 29.2004 83.3 27.8004 78.2C27.1004 75.8 26.4004 73.4 25.8004 71C27.7004 74 29.6004 77.1 31.4004 80.2C36.4004 88.8 40.9004 97.8001 44.7004 107.3C46.3003 111.2 47.7004 115.3 48.9004 119.4C49.1004 120.4 49.4004 121.4 49.6004 122.3C45.9004 116 42.1004 109.7 38.0004 103.6V103.7ZM26.7004 131.3C24.8004 124.6 23.5004 117.5 23.1004 110.5C26.2004 116.7 29.1004 123 32.0004 129.4C34.5004 135 36.9004 140.7 39.0004 146.5C41.0004 152.1 42.7005 158 45.8004 163C45.9004 163.2 46.0004 163.4 46.1004 163.5C36.6004 155.7 30.2004 143.9 26.6004 131.3H26.7004ZM39.0004 165.9C34.8004 164.9 30.6004 163.5 26.5004 161.8C19.4004 158.9 12.4004 155.4 5.70032 151.6C4.40032 150.9 3.10039 150.1 1.90039 149.4C2.70039 149.2 3.70037 149.3 4.50037 149.4C6.10037 149.6 7.70032 149.9 9.20032 150.3C13.3004 151.3 17.3004 152.8 21.2004 154.3C29.1004 157.4 36.9004 160.9 44.5004 164.6C46.0004 165.3 47.5004 166 49.0004 166.8C45.7004 167.2 42.3004 166.8 39.1004 166L39.0004 165.9ZM67.0004 189.7C67.0004 190.4 67.0004 191.1 67.0004 191.7C66.8004 190.5 66.5004 189.3 66.2004 188C66.2004 188.2 66.4004 188.3 66.4004 188.4C66.6004 188.8 66.8004 189.1 67.0004 189.5V189.7ZM67.7004 199.9C67.7004 200.3 67.9004 200.8 68.0004 201.2C68.3004 202.8 68.7004 204.4 69.0004 206.1C68.5004 207.1 68.1004 208 67.6004 209C67.6004 206 67.6005 202.9 67.8004 199.9H67.7004ZM67.4004 224.9C67.4004 220.4 67.4004 216 67.4004 211.5C67.8004 210.5 68.3003 209.5 68.7004 208.5C68.8003 208.2 69.0004 207.9 69.1004 207.7C69.3004 208.9 69.6005 210.1 69.8004 211.3C68.9004 215.8 68.1005 220.4 67.3004 225L67.4004 224.9ZM71.7004 202.9C71.3003 204.9 70.9004 206.8 70.5004 208.8C70.5004 208.5 70.4004 208.1 70.3004 207.8C70.3004 207.3 70.1004 206.8 70.0004 206.2C70.6004 205 71.2005 203.7 71.8004 202.5C71.8004 202.6 71.8004 202.7 71.8004 202.9H71.7004ZM70.3004 203.2C70.0004 203.7 69.8004 204.2 69.5004 204.8C68.9004 201.8 68.3003 198.9 67.7004 195.9C67.7004 194.4 67.7005 193 67.8004 191.5C69.2005 194.4 70.6005 197.3 71.8004 200.3C71.3004 201.3 70.7004 202.3 70.2004 203.3L70.3004 203.2ZM117 156.9C122.5 155.3 128.5 155 133.9 156.9C134.5 157.1 135 157.4 135.6 157.6C133.1 157.4 130.5 158.2 128.1 158.8C123.9 160 119.7 161.5 115.7 163.2C107.6 166.5 99.6005 170.2 91.8004 174.2C90.9004 174.7 89.9004 175.1 89.0004 175.6C97.1004 167.2 106.4 159.8 117.1 156.8L117 156.9ZM95.2004 166.1C94.2004 167.2 93.3004 168.4 92.3004 169.5C91.0004 171.1 89.8004 172.7 88.5004 174.3C89.6004 169.5 91.0004 164.7 92.6004 160.1C94.1004 155.9 95.8004 151.7 98.1004 147.9C99.4004 145.7 101 143.6 102.4 141.5C103.6 139.7 104.7 137.8 105.8 135.8C106.3 134.9 106.8 133.9 107.3 132.9C107.2 135.1 106.8 137.3 106.4 139.4C105.6 143.3 104.5 147.2 103.1 150.9C101.7 154.6 100 158.1 98.1004 161.4C97.2004 163 96.2004 164.6 95.1004 166.1H95.2004ZM99.0004 161.7C100.9 158.4 102.7 154.8 104.1 151.1C109.7 143.2 116.4 136.5 123.7 130.9C128.8 127 134.2 123.5 139.8 120.6C140.2 120.4 140.6 120.2 140.9 120C134.8 127.1 128.5 134.2 121.8 140.6C119.9 142.5 117.9 144.3 115.7 145.9C115.2 146.3 114.7 146.6 114.2 147C112.8 148.1 111.4 149.4 110 150.6C106.1 154.1 102.4 157.9 98.8004 161.8L99.0004 161.7ZM144.6 141.6C136.1 146.3 127.3 150.6 118.2 153.5C114.2 154.8 110 155.9 105.8 155.8C107 154.6 108.3 153.3 109.6 152.1C111.3 150.5 112.9 149 114.7 147.6C116 146.5 117.4 145.5 118.7 144.5C122.2 142.8 125.7 141.2 129.3 139.8C135.8 137.1 142.5 134.6 149.4 133.6C152 133.2 155.1 132.8 157.6 134.1C153.4 136.8 149.1 139.2 144.8 141.6H144.6Z" fill="#231F20"/>
<path d="M158.7 133.8C156.1 132.4 153.1 132.4 150.2 132.7C146.8 133.1 143.4 133.9 140.1 134.9C133.3 136.9 126.8 139.7 120.3 142.7L120.7 143.3C124.9 139.5 128.9 135.3 132.8 131.1C134.7 129 136.6 126.9 138.5 124.8C139.5 123.7 140.5 122.6 141.5 121.4C142 120.8 143.2 119.9 143.4 119.1C143.4 119 143.4 118.8 143.4 118.7C142.5 117.9 141.2 118.7 140.3 119.2C138.3 120.2 136.3 121.3 134.4 122.5C130.6 124.7 127 127.2 123.5 129.8C116.6 135.1 110.3 141.2 105 148.1L105.7 148.4C106.8 145.2 107.6 141.9 108.2 138.6C108.4 137.1 108.6 135.7 108.8 134.2C108.8 133.4 108.9 132.7 109 131.9C109 131.5 109.2 130.7 109 130.3C107.7 128.2 106.3 132.8 106.1 133.3C104.6 136.4 102.7 139.2 100.8 142.1C98.8997 145 97.0996 147.5 95.5996 150.4C94.0996 153.3 92.9997 156.2 91.8997 159.1C90.6997 162.3 89.6997 165.6 88.7997 168.9C88.3997 170.4 87.9996 171.9 87.5996 173.4C87.2996 174.6 87.0997 175.8 86.3997 176.9C81.8997 183 77.6996 189.5 73.9996 196.1L74.6996 196.4C79.5996 175.2 85.7996 154.3 92.9996 133.8C94.9996 128 97.0996 122.3 99.1996 116.5L98.7997 116.8C102.4 117 105.7 115 108.8 113.3C112.4 111.2 115.8 108.8 119.2 106.3C125.9 101.2 132.3 95.8001 138.5 90.2001C140.1 88.7001 141.7 87.3002 143.3 85.8002C144 85.1002 144.7 84.5002 145.5 83.8002C145.9 83.4002 146.8 82.9002 146.9 82.3002C147.1 80.3002 140.1 81.9001 139.2 82.1001C131.7 84.2001 125 89.2001 119.1 94.1001C112 100 105.5 106.7 99.4996 113.6L100.1 114C103.9 103.6 108.2 93.4001 112.6 83.2001C113.7 80.7001 114.8 78.2002 115.9 75.8002C116.4 74.6002 117 73.5002 117.5 72.4002C117.9 71.5002 118.3 70.3001 118.9 69.5001C119.2 69.0001 120 68.6001 120.4 68.2001C120.9 67.8001 121.4 67.3002 121.9 66.8002C122.8 65.9002 123.7 65.0001 124.6 64.1001C126.3 62.3001 127.9 60.4002 129.2 58.3002C129.7 57.5002 131.8 54.0002 130.5 53.3002C129.9 53.0002 128.9 53.6002 128.5 53.8002C127.2 54.4002 126 55.2001 124.9 56.1001L125.5 56.5001C126.3 53.9001 127.1 51.3001 127.4 48.5001C127.5 47.4001 128.3 43.4001 126.8 43.1001C125.3 42.8001 123.6 44.8002 122.8 45.9002C121.3 47.9002 120.4 50.4001 119.6 52.7001H120.3C119.9 51.7001 118.7 49.7002 117.5 50.8002C117 51.2002 116.7 52.3002 116.5 52.9002C116.2 53.9002 116 54.9001 115.9 56.0001C115.7 58.3001 115.9 60.7001 116.2 63.1001C116.3 64.2001 116.5 65.2002 116.7 66.3002C116.8 66.9002 117 67.6001 117.1 68.2001C117.1 68.5001 117.5 69.1001 117.5 69.5001C117.5 69.7001 117 70.3001 116.9 70.6001C116.6 71.2001 116.3 71.8001 116 72.5001C115.3 73.9001 114.7 75.3001 114.1 76.7001C113 79.2001 111.9 81.7001 110.8 84.2001C108.6 89.2001 106.5 94.3002 104.5 99.4002C96.0996 120.1 88.6997 141.2 82.2997 162.6C80.4997 168.6 78.7996 174.6 77.1996 180.7C76.3996 183.7 75.5997 186.8 74.8997 189.8C74.4997 191.3 74.1997 192.8 73.7997 194.3C73.5997 195.1 73.3996 196 73.1996 196.8C72.9996 197.6 72.9996 198.6 72.5996 199.3H73.2997C72.0997 196.5 70.7996 193.7 69.4996 190.9C68.6996 189.4 68.9996 187.8 68.9996 186.1C68.9996 184.4 69.0996 182.6 69.1996 180.9C69.3996 174.4 69.7996 167.8 70.0996 161.3C70.2996 158.1 70.4996 154.9 70.6996 151.6C70.6996 150.1 70.8996 148.6 70.9996 147.1C70.9996 146.3 70.9996 145.4 71.1996 144.6C71.3996 143.6 71.7996 142.7 72.1996 141.8C74.7996 135.7 77.3996 129.6 80.0996 123.5C82.5996 117.8 85.0996 112.1 87.9996 106.6C90.8996 101.1 93.3996 96.1002 95.0996 90.3002C95.4996 88.9002 95.8997 87.5001 96.2997 86.0001C96.4997 85.3001 96.5997 84.6002 96.7997 83.8002C96.9997 83.0002 97.3997 81.9001 97.2997 81.1001C97.2997 80.7001 97.0996 80.5002 96.6996 80.4002C95.9996 80.2002 95.5997 80.8002 95.2997 81.3002C91.6997 86.2002 88.6997 91.4001 85.7997 96.7001C79.1997 108.8 74.0996 121.7 71.0996 135.1H71.7997C72.8997 122 74.1997 108.9 75.8997 95.8002C76.6997 89.3002 77.6996 82.8002 78.6996 76.3002C79.1996 73.3002 79.6997 70.3002 80.2997 67.4002C80.3997 66.8002 80.3996 65.9002 80.6996 65.4002C80.8996 65.0002 81.2996 64.8001 81.6996 64.6001C82.6996 63.9001 83.4997 63.1001 84.2997 62.2001C86.1997 59.9001 87.8997 57.3001 89.2997 54.7001C89.5997 54.1001 90.6996 52.9002 90.0996 52.3002C89.3996 51.6002 87.5997 52.1002 86.8997 52.3002L87.3997 52.8002C87.7997 51.0002 88.1997 49.2002 88.3997 47.4002C88.4997 46.4002 88.8996 44.9002 87.4996 44.8002L87.7997 45.4002C88.9997 42.7002 89.3997 39.9001 89.7997 37.0001C89.9997 35.4001 90.1997 33.9002 90.2997 32.3002C90.2997 31.4002 90.2997 31.0002 89.3997 30.9002L89.7997 31.3002C90.1997 28.1002 90.4996 24.8001 90.4996 21.5001C90.4996 19.9001 90.4997 18.4002 90.2997 16.8002C90.1997 16.0002 90.1996 14.2001 89.5996 13.6001V14.0001C89.9996 13.2001 89.8997 11.9001 89.8997 11.1001C89.8997 9.80014 89.8997 8.50022 89.8997 7.30022C89.8997 5.20022 89.6996 2.90017 88.6996 1.00017C87.8996 -0.599833 86.5997 0.700143 85.7997 1.60014C84.2997 3.20014 83.3997 5.20022 82.8997 7.30022H83.5996C83.2996 6.60022 83.0996 5.50019 82.0996 5.90019C80.9996 6.30019 80.6997 8.40019 80.3997 9.40019C79.3997 13.3002 78.7997 17.3002 78.2997 21.3002L78.8997 21.0001C76.9997 20.1001 76.7996 24.0001 76.6996 25.1001C76.2996 28.3001 76.1996 31.5002 76.1996 34.8002L76.7997 34.5001C76.3997 34.2001 75.7996 33.7002 75.1996 33.9002C74.4996 34.2002 74.5996 35.5001 74.4996 36.0001C74.1996 38.5001 74.1996 41.1001 74.0996 43.6001L74.6996 43.3002C74.2996 42.8002 73.5997 41.9001 72.8997 42.1001C72.1997 42.3001 72.0996 43.7002 72.0996 44.3002C71.6996 47.3002 72.0997 50.5001 72.3997 53.5001L72.8997 53.1001C71.8997 52.9001 70.1997 52.8001 70.2997 54.1001C70.2997 55.8001 71.0997 57.6001 71.8997 59.1001C73.4997 62.0001 76.1997 64.3002 79.3997 65.3002L79.0996 64.8002C77.1996 74.3002 75.7996 84.0001 74.4996 93.7001C73.1996 103.4 72.0996 113.8 71.0996 123.8H71.8997C71.8997 113.7 71.3997 103.4 69.2997 93.5001C68.7997 91.1001 68.0996 88.7002 67.1996 86.3002C66.7996 85.3002 66.3997 84.4002 65.8997 83.4002C65.5997 82.8002 65.1996 81.9001 64.5996 81.5001C63.0996 80.6001 63.0997 82.7001 62.8997 83.7001C62.4997 86.0001 62.2996 88.4002 62.1996 90.8002C61.6996 101.1 62.6997 111.5 63.8997 121.7C64.4997 126.7 65.1996 131.7 65.9996 136.7C66.3996 139.3 66.8997 142 67.2997 144.6C67.6997 147 68.3996 149.5 68.6996 151.9C68.8996 153.4 68.6996 155 68.4996 156.5C68.4996 158.1 68.2996 159.6 68.1996 161.2C67.9996 164.1 67.8997 166.9 67.7997 169.8C67.4997 175.8 67.2996 181.8 67.0996 187.8L67.7997 187.6C67.3997 186.9 66.8996 186.1 66.5996 185.4C66.1996 184.5 66.0997 183.5 65.8997 182.5C65.5997 180.8 65.1997 179.1 64.7997 177.4C64.0997 174.1 63.3996 170.7 62.6996 167.4C61.2996 160.7 59.7996 154 58.1996 147.4C56.6996 141 55.0996 134.7 53.0996 128.4C51.0996 122.1 49.6996 115.8 48.4996 109.3C47.2996 102.6 46.2997 95.9001 45.3997 89.2001C45.1997 87.5001 44.9996 85.8001 44.6996 84.2001C44.5996 83.3001 44.4997 82.5001 44.3997 81.6001C44.3997 80.9001 43.8996 79.7001 44.0996 79.0001C44.2996 78.4001 44.7996 78.2002 45.1996 77.8002C45.5996 77.4002 45.9997 77.0001 46.2997 76.5001C47.0997 75.4001 47.7997 74.2002 48.3997 72.9002C50.9997 67.3002 52.4996 61.1001 53.6996 55.1001C54.3996 51.8001 54.9996 48.5002 55.4996 45.3002C55.6996 43.9002 55.8996 42.4001 56.1996 41.0001C56.1996 40.4001 56.2996 39.9002 55.5996 39.9002C54.6996 39.9002 53.7996 40.7002 53.0996 41.3002C51.9996 42.2002 51.1996 43.4001 50.4996 44.6001C48.7996 47.4001 47.6996 50.6002 46.6996 53.8002C44.6996 60.6002 43.4997 67.8002 42.8997 74.9002H43.6996C42.9996 69.4002 42.3997 63.9002 41.7997 58.3002C41.4997 55.6002 41.1996 52.9001 40.9996 50.1001C40.7996 47.8001 40.9996 45.4001 40.6996 43.1001L40.3997 43.5001C44.7997 42.0001 45.5996 35.8002 45.9996 31.8002C45.9996 31.1002 46.0996 30.4001 46.1996 29.7001C46.1996 29.1001 46.3996 28.3001 46.1996 27.7001C46.0996 27.3001 45.8997 27.0002 45.3997 26.9002C43.5997 26.6002 42.1996 29.2001 41.5996 30.5001L42.2997 30.7001C42.2997 29.5001 41.8997 20.3002 39.3997 21.3002C38.8997 21.5002 38.6996 22.4002 38.4996 22.9002C38.0996 24.0002 37.8996 25.1002 37.6996 26.3002C37.2996 28.7002 37.0996 31.1001 36.9996 33.6001L37.6996 33.4002C36.9996 32.2002 36.2997 31.1001 35.3997 30.1001C34.4997 29.1001 33.1997 27.7001 31.8997 27.1001C29.5997 26.2001 30.3996 30.2002 30.5996 31.3002C31.1996 37.2002 34.0997 43.2002 37.8997 47.8002C38.1997 48.2002 38.7996 48.6001 38.9996 49.0001C39.2996 49.6001 39.1997 50.7002 39.2997 51.4002C39.4997 53.3002 39.6997 55.2001 39.8997 57.1001C40.2997 60.7001 40.6996 64.3002 41.0996 67.9002C41.8996 74.8002 42.6996 81.7001 43.6996 88.6001C44.7996 96.6001 45.9996 104.5 47.4996 112.4L48.1996 112.2C45.0996 103.7 41.2996 95.5001 37.0996 87.5001C34.9996 83.6001 32.7996 79.7002 30.4996 75.8002C29.2996 73.9002 28.1997 72.0001 26.8997 70.0001C26.3997 69.2001 25.7996 67.8001 24.5996 68.0001C24.4996 68.0001 24.3997 68.1002 24.2997 68.3002C24.1997 68.9002 24.4996 69.5001 24.6996 70.1001C24.9996 71.1001 25.1996 72.0001 25.4996 73.0001C25.9996 74.9001 26.5996 76.9002 27.0996 78.8002C28.1996 82.6002 29.3997 86.5002 30.7997 90.3002C31.9997 93.7002 33.1996 97.2002 35.0996 100.3C37.0996 103.7 39.3996 106.8 41.4996 110.1C43.5996 113.4 45.6997 117 47.7997 120.4C48.7997 122.1 49.9996 123.8 50.5996 125.6C51.1996 127.4 51.8996 129.4 52.4996 131.3C54.8996 139.2 56.5997 147.3 58.3997 155.4C60.3997 164.4 62.2996 173.5 64.1996 182.5L64.8997 182.2C62.1997 177.8 59.1996 173.6 55.4996 170C53.8996 168.3 51.9996 166.9 50.1996 165.5C48.1996 164 46.7996 161.3 45.6996 159.1C43.3996 154.4 41.9996 149.4 40.1996 144.5C38.3996 139.6 36.2996 134.4 33.9996 129.5C31.6996 124.6 29.2997 119.3 26.8997 114.3C26.2997 113.2 25.7996 112 25.1996 110.9C24.8996 110.3 24.5997 109.7 24.2997 109.1C24.0997 108.7 23.8996 107.9 23.4996 107.6C23.1996 107.4 22.5997 107.4 22.2997 107.6C21.6997 108.1 22.0996 109.2 22.0996 109.8C22.4996 120 24.8996 130.3 28.6996 139.8C32.5996 149.6 38.4996 158.5 46.9996 165L47.3997 164.3C39.6997 160.5 31.8996 156.9 23.9996 153.7C19.9996 152.1 15.8997 150.6 11.7997 149.5C9.89972 149 7.8997 148.5 5.8997 148.2C4.5997 148 2.39965 147.8 1.09965 148.6C0.19965 149.2 1.29972 149.8 1.79972 150.1C3.69972 151.2 5.59967 152.3 7.49967 153.4C11.2996 155.5 15.0996 157.4 18.9996 159.3C26.3996 162.8 34.2997 166 42.3997 167.2C44.3997 167.5 46.2997 167.6 48.2997 167.4C48.6997 167.4 49.1996 167.2 49.4996 167.3C49.7996 167.4 50.4997 167.8 50.8997 168.1C51.7997 168.8 52.5997 169.5 53.3997 170.3C56.3997 173.2 58.9997 176.5 61.3997 180C62.5997 181.7 64.1997 183.7 64.7997 185.8C65.3997 187.9 65.6996 190.1 66.0996 192.2C66.2996 193.2 66.5996 194.2 66.6996 195.2C66.8996 196.5 66.6996 197.9 66.6996 199.2C66.6996 201.3 66.6996 203.5 66.5996 205.6C66.5996 207.9 66.7997 210.2 65.8997 212.3C65.0997 214.1 64.3996 215.9 63.6996 217.7C62.0996 221.6 60.7996 225.6 59.4996 229.6C56.9996 237.7 55.0997 246 53.7997 254.3C53.6997 255.1 52.8997 257.1 53.8997 257.6C55.0997 258.2 55.0996 256.9 55.1996 256.1C55.7996 251.9 56.5996 247.7 57.4996 243.6C59.2996 235.5 61.6996 227.5 64.6996 219.7C65.4996 217.6 66.2996 215.6 67.1996 213.5L66.4996 213.3C66.4996 216.1 66.4996 218.8 66.4996 221.6C66.4996 224.5 66.6996 227.4 66.4996 230.3C66.2996 232.9 65.7997 235.6 65.3997 238.2C64.9997 241 64.6997 243.8 64.3997 246.6C64.0997 249.4 63.8996 252 63.5996 254.8C63.5996 256.1 63.3997 257.4 63.2997 258.6C63.2997 259.3 63.2996 260 63.1996 260.7C63.1996 261.3 62.8996 262.5 63.0996 263C63.3996 263.7 64.3996 263.7 64.6996 263C64.8996 262.7 64.6997 262.2 64.7997 261.8C64.7997 261.1 64.7997 260.4 64.8997 259.7C64.8997 258.2 65.0996 256.8 65.1996 255.3C65.6996 249.1 66.3996 242.8 67.1996 236.6H66.3997C66.3997 242.1 66.5996 247.6 66.6996 253.1C66.6996 255.8 66.7997 258.5 66.8997 261.3C66.8997 261.9 66.6996 262.9 67.1996 263.3C67.4996 263.5 68.0997 263.6 68.3997 263.4C68.8997 263 68.5996 262 68.5996 261.5C68.5996 260 68.5996 258.6 68.4996 257.1C68.4996 254.3 68.3997 251.6 68.2997 248.8C68.1997 243.3 68.0996 237.8 68.0996 232.3C68.0996 229.1 68.7997 225.9 69.2997 222.7C69.7997 219.5 70.3996 216.5 70.9996 213.4H70.2997C73.0997 227.5 75.8996 241.6 78.5996 255.8C78.6996 256.5 78.5996 257.6 79.4996 257.7C79.9996 257.8 80.4996 257.7 80.4996 257.1C80.4996 256.5 80.1996 255.7 80.0996 255.1C79.8996 254.3 79.7996 253.4 79.5996 252.6C79.1996 250.8 78.8996 248.9 78.4996 247C77.0996 239.8 75.6997 232.7 74.2997 225.5C73.4997 221.6 72.6996 217.7 71.9996 213.8C71.7996 212.8 71.3996 211.6 71.4996 210.5C71.4996 209.6 71.8996 208.7 71.9996 207.8C72.3996 205.9 72.7996 204 73.1996 202.1H72.4996C76.8996 213 80.1997 224.4 82.7997 235.9C83.0997 237.3 83.3996 238.7 83.6996 240.1C83.8996 240.9 83.9996 241.6 84.1996 242.3C84.2996 242.8 84.1996 243.8 84.5996 244.2C85.0996 244.9 86.1996 244.5 86.1996 243.8C86.1996 243.1 85.8997 242.2 85.7997 241.5C85.6997 240.8 85.4997 240.2 85.3997 239.5C85.0997 237.9 84.6997 236.3 84.2997 234.8C83.5997 232 82.8996 229.2 82.1996 226.4C80.6996 220.8 78.9996 215.2 77.0996 209.7C76.0996 207 75.0996 204.3 73.9996 201.6C73.5996 200.6 73.5996 200.1 73.9996 199.1C74.2996 198.5 74.5997 197.9 74.8997 197.4C75.5997 196.1 76.2996 194.8 77.0996 193.6C79.9996 188.7 82.9997 184 86.2997 179.4C86.6997 178.9 86.9997 178.3 87.3997 177.8C87.9997 177.2 88.7996 176.9 89.5996 176.5C90.8996 175.8 92.2996 175.1 93.6996 174.5C96.2996 173.2 98.9996 171.9 101.6 170.7C107.6 167.9 113.6 165.1 119.9 162.7C123 161.5 126.1 160.4 129.3 159.6C131 159.1 132.7 158.7 134.5 158.6C135.3 158.6 136.1 158.7 136.8 158.6C137.1 158.6 137.3 158.6 137.5 158.4C137.6 158.2 137.6 158 137.5 157.9C136.6 156.7 134.3 156.1 132.9 155.7C131.1 155.2 129.2 154.9 127.3 154.8C123.1 154.5 118.8 155.2 114.8 156.5C106.6 159.2 99.3996 164.3 92.9996 170L93.5996 170.4C95.1996 168.3 96.6997 166.2 98.3997 164.2C99.9996 162.4 101.7 160.6 103.4 158.8C103.8 158.3 104.3 157.9 104.8 157.4C105.3 156.9 105.7 156.7 106.4 156.7C107.6 156.6 108.8 156.7 110 156.5C112.5 156.2 115 155.6 117.4 154.8C127 152 136.2 147.5 144.9 142.7C147.5 141.3 150 139.9 152.5 138.4C153.7 137.7 154.9 137 156.2 136.2C156.9 135.8 158.6 135.1 159 134.3C159 134.1 159 134 159 133.9H158.9C158.6 133.4 158.1 133.9 158.4 134.3H158.5C158.5 134.4 158.5 134 158.5 134C158.3 134.4 157.2 134.8 156.9 135.1C156.4 135.4 155.9 135.7 155.4 136C154.3 136.6 153.2 137.3 152.2 137.9C150 139.2 147.7 140.5 145.4 141.7C141 144.1 136.5 146.4 131.8 148.5C127.1 150.6 122.3 152.6 117.4 154.1C114.8 154.9 112.1 155.5 109.3 155.8C108.1 155.9 106.9 155.8 105.8 155.9C104.9 155.9 104.4 156.9 103.7 157.6C101.8 159.6 99.8996 161.6 98.0996 163.7C96.2996 165.8 94.7996 167.9 93.1996 170C92.8996 170.3 93.4997 170.7 93.7997 170.4C99.7997 165 106.7 160.1 114.4 157.3C118.1 156 122 155.2 126 155.3C127.9 155.3 129.8 155.5 131.7 155.9C132.5 156.1 133.4 156.3 134.2 156.6C135.1 156.9 136.6 157.4 137.3 158.2V157.7C137.3 157.8 136 157.7 135.8 157.7C135.2 157.7 134.5 157.7 133.9 157.9C132.6 158.1 131.2 158.4 129.9 158.7C127.2 159.4 124.5 160.3 121.8 161.3C116.6 163.2 111.5 165.4 106.5 167.7C101.5 170 96.1996 172.5 91.0996 175.1C90.4996 175.4 89.8997 175.7 89.2997 176C88.7997 176.3 87.9996 176.5 87.4996 176.9C86.6996 177.6 85.9997 178.9 85.3997 179.8C83.7997 182 82.2997 184.3 80.7997 186.6C79.2997 188.9 77.8996 191.3 76.4996 193.7C75.7996 194.8 75.1996 196 74.5996 197.1C73.9996 198.1 73.0996 199.3 73.0996 200.5C73.0996 201.4 73.8996 202.6 74.1996 203.5C74.6996 204.9 75.2997 206.3 75.7997 207.7C76.7997 210.4 77.6996 213 78.4996 215.7C80.1996 221 81.6996 226.5 83.0996 231.9C83.7996 234.7 84.4996 237.5 84.9996 240.4C85.0996 241.1 85.2997 241.7 85.3997 242.4C85.3997 242.8 85.7997 244.6 85.3997 243.3C84.9997 242 84.7996 240.5 84.4996 239.1C81.7996 226.5 78.2996 214.1 73.4996 202.1C73.3996 201.8 72.8997 201.7 72.7997 202.1C72.4997 203.6 72.0997 205.1 71.7997 206.6C71.4997 208 70.8997 209.6 70.8997 211.1C70.8997 212.4 71.4996 214 71.6996 215.3C71.9996 217 72.3996 218.7 72.6996 220.4C73.9996 227 75.2996 233.7 76.5996 240.3C77.1996 243.5 77.8996 246.8 78.4996 250C78.7996 251.5 79.0997 253 79.3997 254.5C79.4997 255.1 79.9997 256.4 79.8997 257C79.8997 257.4 79.8996 257 79.6996 256.8C79.4996 256.3 79.4997 255.6 79.3997 255C78.1997 248.5 76.8996 242 75.5996 235.5C74.1996 228.1 72.6996 220.7 71.1996 213.4C71.1996 213 70.4996 213 70.4996 213.4C69.5996 218.3 68.6997 223.2 67.8997 228.1C67.0997 233 67.4996 237.6 67.5996 242.4C67.5996 247.4 67.7997 252.4 67.8997 257.4C67.8997 258.6 67.8997 259.8 67.8997 261C67.8997 261.2 67.9997 262.8 67.8997 262.8C67.6997 262.9 67.6996 261.2 67.6996 261.1C67.6996 258.7 67.5996 256.3 67.4996 254C67.3996 248.3 67.2996 242.7 67.1996 237C67.1996 236.5 66.4997 236.5 66.3997 237C65.7997 241.8 65.1997 246.7 64.7997 251.6C64.5997 254.1 64.3996 256.6 64.1996 259.1C64.1996 259.7 64.1996 260.3 64.0996 260.9C64.0996 261.3 64.0996 262.3 64.0996 262.7C63.7996 263.2 63.8996 262 63.9996 261.8C63.9996 261.1 63.9996 260.4 64.0996 259.7C64.3996 254.8 64.8997 249.8 65.3997 244.9C65.6997 242.5 65.9997 240.1 66.2997 237.8C66.5997 235.5 67.1997 232.9 67.2997 230.5C67.4997 224.9 67.2997 219.3 67.2997 213.7C67.2997 213.4 66.6996 213.2 66.5996 213.5C63.4996 220.7 60.8997 228 58.8997 235.5C57.7997 239.4 56.8996 243.4 56.0996 247.4C55.7996 249.2 55.3996 250.9 55.0996 252.7C54.8996 253.7 54.7996 254.6 54.6996 255.6C54.6996 255.7 54.4996 257 54.4996 257.1C54.0996 257.1 54.4996 255.8 54.4996 255.5C55.6996 247.5 57.3997 239.6 59.7997 231.9C60.8997 228.2 62.1996 224.5 63.5996 220.9C64.2996 219.1 64.9996 217.3 65.6996 215.5C66.3996 213.8 67.3997 212.2 67.3997 210.4C67.3997 206.1 67.4996 201.8 67.5996 197.6C67.5996 195.8 67.2997 194.2 66.8997 192.5C66.4997 190.4 66.0996 188.2 65.5996 186.1C65.1996 184.4 63.8997 182.8 62.8997 181.4C61.7997 179.7 60.6996 178.1 59.4996 176.5C57.1996 173.5 54.6997 170.7 51.7997 168.3C51.3997 167.9 50.6996 167.3 50.1996 167.1C49.6996 166.9 48.2996 167.3 47.6996 167.3C45.5996 167.3 43.4996 167.2 41.4996 166.8C37.4996 166.1 33.5997 164.9 29.7997 163.6C22.1997 160.9 14.9997 157.2 7.8997 153.4C6.8997 152.8 5.79972 152.3 4.79972 151.7C4.49972 151.5 1.69972 150.1 1.79972 149.9C1.79972 149.4 4.19962 149.6 4.69962 149.6C5.99962 149.6 7.1997 149.9 8.3997 150.2C12.7997 151.1 16.9996 152.6 21.1996 154.2C29.9996 157.6 38.5996 161.6 46.9996 165.7C47.3996 165.9 47.7997 165.3 47.3997 165C32.2997 153.4 25.1997 133.6 23.2997 115.2C23.1997 114 23.0996 112.9 22.9996 111.7C22.9996 111.1 22.7996 110.3 22.9996 109.7C22.9996 109.4 22.6997 108.9 23.3997 109.1C23.4997 109.1 23.7997 109.9 23.7997 110C24.9997 112.3 26.0996 114.7 27.1996 117C29.3996 121.7 31.5996 126.4 33.6996 131.1C35.7996 135.8 37.7996 140.8 39.5996 145.7C41.1996 150.1 42.4997 154.5 44.3997 158.8C45.3997 161 46.5996 163.2 48.0996 165.1C49.5996 167 51.7996 168.2 53.4996 169.8C57.7996 173.6 61.0996 178.4 64.0996 183.2C64.2996 183.6 64.8997 183.3 64.7997 182.9C62.4997 171.7 60.0996 160.6 57.4996 149.5C56.1996 144 54.8997 138.4 53.2997 133C52.8997 131.7 52.4996 130.4 52.0996 129.1C51.6996 127.8 51.3997 126.3 50.7997 125.1C50.2997 124 49.5996 123 48.9996 121.9C48.1996 120.6 47.3996 119.3 46.6996 118C43.8996 113.3 41.0996 108.6 37.9996 104C36.4996 101.8 35.0996 99.8002 34.0996 97.4002C32.9996 94.9002 32.0996 92.3001 31.1996 89.7001C29.3996 84.5001 27.7997 79.2002 26.3997 73.8002C26.0997 72.5002 25.7997 71.2002 25.3997 69.9002C25.3997 69.9002 25.3996 69.2002 25.0996 69.3002C25.2996 69.3002 25.7997 70.0001 25.8997 70.2001C26.3997 70.8001 26.6996 71.5001 27.1996 72.2001C28.5996 74.4001 29.9997 76.6002 31.2997 78.9002C37.6997 89.7002 43.3996 101.1 47.5996 112.9C47.7996 113.3 48.3997 113.2 48.2997 112.7C45.8997 100 44.1996 87.2002 42.6996 74.4002C41.8996 68.0002 41.1996 61.5001 40.5996 55.0001C40.3996 53.4001 40.2996 51.9002 40.0996 50.3002C40.0996 49.9002 40.0997 49.4001 39.8997 49.1001C39.6997 48.7001 39.1997 48.4001 38.8997 48.1001C36.8997 45.8001 35.2996 43.0001 33.9996 40.2001C32.4996 37.0001 31.3997 33.4002 31.3997 29.8002C31.3997 29.1002 31.0996 27.7002 32.1996 28.4002C32.8996 28.9002 33.5996 29.5001 34.1996 30.1001C35.3996 31.3001 36.3996 32.7001 37.1996 34.2001C37.3996 34.5001 37.8997 34.4001 37.8997 34.0001C38.0997 30.7001 38.1996 27.3001 39.0996 24.2001C39.0996 23.9001 39.3996 22.9002 39.5996 22.8002C39.9996 22.6002 40.3996 23.4001 40.4996 23.7001C40.7996 24.4001 40.8996 25.2002 41.0996 25.9002C41.4996 27.7002 41.5996 29.4001 41.6996 31.2001C41.6996 31.5001 42.1997 31.8002 42.3997 31.4002C42.6997 30.6002 43.0996 29.8001 43.6996 29.2001C44.1996 28.6001 45.3996 27.6002 45.5996 28.8002C45.6996 29.6002 45.5996 30.6002 45.4996 31.3002C45.4996 32.4002 45.2996 33.5001 45.0996 34.5001C44.5996 37.6001 43.6997 42.0001 40.2997 43.2001C40.1997 43.2001 39.9996 43.4001 39.9996 43.6001C40.1996 45.9001 39.9997 48.1002 40.2997 50.4002C40.5997 53.2002 40.8996 56.0002 41.0996 58.8002C41.6996 64.3002 42.2996 69.8002 42.9996 75.4002C42.9996 75.9002 43.6997 75.9002 43.7997 75.4002C44.3997 69.1002 45.3996 62.8001 46.9996 56.7001C47.7996 53.7001 48.6996 50.7002 49.9996 47.9002C50.4996 46.8002 51.0997 45.7001 51.7997 44.6001C52.4997 43.5001 53.7996 41.8002 55.0996 41.4002C55.5996 41.2002 55.4996 41.3002 55.4996 41.8002C55.4996 42.2002 55.3997 42.6001 55.2997 43.0001C55.1997 43.7001 55.0996 44.4001 54.9996 45.1001C54.6996 46.8001 54.4996 48.4001 54.1996 50.0001C53.5996 53.0001 52.9997 56.1001 52.2997 59.1001C50.9997 64.8001 49.4996 71.0002 46.1996 75.9002C45.7996 76.5002 45.3997 77.1001 44.8997 77.6001C44.3997 78.1001 43.6996 78.3001 43.4996 78.7001C43.0996 79.5001 43.5996 81.2001 43.6996 82.1001C44.0996 85.1001 44.4997 88.2001 44.8997 91.2001C45.7997 97.6001 46.6997 103.9 47.8997 110.3C48.9997 116.3 50.2996 122.3 52.0996 128.2C53.9996 134.3 55.6996 140.4 57.1996 146.6C58.8996 153.6 60.3997 160.6 61.8997 167.6C62.6997 171.2 63.3996 174.8 64.1996 178.4C64.5996 180.2 64.9997 182 65.2997 183.7C65.3997 184.4 65.4996 185.1 65.6996 185.8C65.9996 186.7 66.6996 187.6 67.1996 188.5C67.3996 188.8 67.8997 188.7 67.8997 188.3C68.1997 178.5 68.6996 168.6 69.1996 158.8C69.2996 156.6 69.7997 154.1 69.3997 152C68.8997 149.7 68.4996 147.5 68.0996 145.2C67.1996 140.4 66.3996 135.5 65.6996 130.6C64.2996 120.9 63.1997 111.2 62.8997 101.4C62.6997 96.7002 62.6996 92.0002 63.1996 87.3002C63.2996 86.0002 63.3997 84.7001 63.7997 83.5001C63.9997 82.7001 64.1997 82.6001 64.7997 83.5001C65.0997 84.0001 65.2996 84.5002 65.5996 84.9002C66.6996 87.1002 67.3996 89.4001 67.9996 91.7001C70.6996 102.2 71.1996 113.4 71.1996 124.2C71.1996 124.7 71.8996 124.7 71.9996 124.2C72.8996 114.3 73.9997 104.4 75.2997 94.6001C76.5997 84.8001 77.9997 75.0002 79.8997 65.4002C79.8997 65.2002 79.8996 65.0002 79.5996 64.9002C77.1996 64.2002 75.0996 62.7001 73.5996 60.7001C72.7996 59.7001 72.1996 58.5002 71.6996 57.3002C71.4996 56.7002 71.2996 56.1001 71.1996 55.5001C70.9996 54.4001 71.5996 53.9001 72.6996 54.1001C72.8996 54.1001 73.1996 54.1001 73.1996 53.7001C72.9996 51.7001 72.7997 49.7001 72.7997 47.6001C72.7997 46.6001 72.7997 45.6001 72.8997 44.6001C72.8997 44.2001 72.8997 43.4001 73.2997 43.2001C73.6997 43.0001 74.0997 43.7001 74.2997 44.0001C74.4997 44.2001 74.8997 44.0001 74.8997 43.7001C74.8997 42.0001 74.9996 40.3001 75.0996 38.6001C75.0996 37.8001 75.0997 37.0001 75.2997 36.2001C75.2997 36.0001 75.2996 35.1002 75.4996 34.9002V34.7001C75.8996 34.8001 76.1997 35.0001 76.3997 35.2001C76.5997 35.4001 76.9996 35.2002 76.9996 34.9002C76.9996 32.7002 76.9996 30.5002 77.1996 28.3002C77.1996 27.7002 77.8996 21.4002 78.5996 21.8002C78.8996 21.9002 79.0996 21.8001 79.1996 21.5001C79.4996 18.8001 79.8997 16.0002 80.3997 13.3002C80.5997 12.1002 80.8996 11.0002 81.1996 9.80022C81.3996 9.20022 81.4997 8.60017 81.7997 8.00017C81.7997 7.40017 82.1996 7.10017 82.6996 7.00017C82.6996 7.20017 82.8996 7.50012 82.9996 7.70012C83.0996 8.00012 83.5996 8.10012 83.6996 7.70012C84.0996 6.10012 84.6996 4.50014 85.6996 3.10014C85.9996 2.70014 86.7997 1.50022 87.3997 1.30022C88.3997 0.900216 88.6997 2.70017 88.7997 3.50017C89.0997 5.10017 89.1996 6.70022 89.1996 8.30022C89.1996 9.20022 89.1996 10.2001 89.1996 11.1001C89.1996 11.8001 89.3996 13.2002 89.0996 13.9002C89.0996 14.1002 89.0996 14.2002 89.0996 14.3002C89.3996 14.6002 89.3996 15.7001 89.4996 16.2001C89.5996 17.0001 89.6997 17.8001 89.7997 18.6001C89.7997 20.0001 89.7997 21.4002 89.7997 22.8002C89.7997 25.7002 89.4996 28.6002 89.0996 31.4002C89.0996 31.6002 89.2996 31.7002 89.4996 31.8002C90.0996 31.8002 89.0996 38.2002 88.9996 38.9002C88.6996 41.1002 88.1997 43.2001 87.2997 45.2001C87.1997 45.5001 87.2996 45.8002 87.5996 45.8002C88.2996 45.8002 86.8997 52.1002 86.7997 52.8002C86.7997 53.1002 86.9997 53.4002 87.2997 53.3002C87.6997 53.2002 89.4996 52.7001 89.5996 53.1001C89.5996 53.4001 88.7996 54.7002 88.5996 54.9002C87.8996 56.1002 87.0997 57.4001 86.2997 58.6001C84.8997 60.7001 83.3996 63.0002 81.0996 64.3002C80.0996 64.9002 80.1997 64.7002 79.8997 65.8002C79.5997 67.1002 79.3996 68.4001 79.0996 69.7001C78.5996 72.7001 78.0996 75.6001 77.5996 78.6001C75.6996 90.5001 74.1997 102.5 72.8997 114.5C72.1997 121.4 71.4996 128.4 70.9996 135.3C70.9996 135.7 71.5996 135.8 71.6996 135.3C74.3996 123.5 78.6996 112.1 84.0996 101.3C86.6996 96.1002 89.5996 91.1001 92.6996 86.2001C93.4996 85.0001 94.2996 83.8001 95.0996 82.6001C95.2996 82.4001 95.8996 81.2001 96.0996 81.2001C96.5996 81.2001 96.0996 83.0002 95.9996 83.3002C95.3996 86.2002 94.5996 89.0002 93.6996 91.8002C91.7996 97.5002 88.9997 102.6 86.2997 107.9C83.5997 113.2 80.9996 119.1 78.4996 124.8C75.9996 130.5 73.6997 135.9 71.2997 141.4C70.9997 142.1 70.5997 142.8 70.3997 143.5C70.1997 144.1 70.1996 144.7 70.1996 145.3C70.1996 146.8 69.9997 148.3 69.8997 149.7C69.6997 152.8 69.4997 155.9 69.2997 159.1C68.8997 166.2 68.4997 173.4 68.2997 180.5C68.2997 182.2 68.1996 184 68.0996 185.7C68.0996 187 67.6997 188.8 68.2997 190C69.7997 193 71.2996 196.1 72.5996 199.2C72.6996 199.5 73.0997 199.4 73.2997 199.2C73.6997 198.5 73.6997 197.5 73.8997 196.7C74.1997 195.5 74.3996 194.4 74.6996 193.2C75.1996 191 75.6997 188.9 76.2997 186.8C77.3997 182.4 78.4996 178.1 79.6996 173.8C82.0996 165.1 84.6996 156.5 87.4996 148C92.9996 131 99.0997 114.3 105.8 97.8002C109.7 88.2002 113.8 78.6001 118.3 69.2001C118.3 69.1001 118.3 68.9002 118.3 68.8002C118 68.3002 117.9 67.5002 117.8 66.9002C117.6 66.0002 117.4 65.0001 117.2 64.1001C116.9 62.3001 116.7 60.6002 116.6 58.8002C116.6 57.1002 116.6 55.4002 117 53.8002C117.2 53.0002 117.4 51.9002 118 51.3002C118.8 50.5002 119.5 52.2001 119.8 52.7001C120 53.0001 120.4 52.9001 120.5 52.7001C121.1 50.8001 121.9 48.9001 122.9 47.2001C123.4 46.4001 125.6 43.1002 126.8 43.9002C127.3 44.3002 127 46.3002 127 46.9002C127 48.0002 126.8 49.1001 126.6 50.1001C126.2 52.1001 125.7 54.1001 125 56.1001C125 56.4001 125.3 56.7001 125.6 56.5001C126.4 55.9001 127.3 55.3001 128.2 54.7001C128.7 54.4001 129.1 54.2001 129.6 54.0001C130 53.8001 130.1 53.6001 130.3 54.0001C130.4 54.3001 130.2 54.9001 130.1 55.2001C129.4 57.5001 127.7 59.6002 126.2 61.4002C124.7 63.2002 123.1 64.8002 121.4 66.3002C120.6 67.1002 119.5 67.8001 118.8 68.6001C118.3 69.2001 118 70.3001 117.6 71.0001C113.5 79.9001 109.6 88.9002 106 97.9002C103.9 103.1 101.8 108.3 99.8997 113.5C99.7997 113.8 100.3 114.1 100.5 113.9C105.3 108.3 110.5 102.9 116 98.0001C121.5 93.1001 127.5 88.2002 134.2 84.8002C137.7 83.1002 141.5 81.6002 145.5 81.8002C146.8 81.8002 146.5 82.0001 145.7 82.7001C145 83.4001 144.3 84.1001 143.5 84.7001C142 86.1001 140.6 87.4002 139.1 88.8002C133.3 94.1002 127.3 99.2001 121.1 104C117.8 106.6 114.4 109.1 110.8 111.3C107.4 113.4 103.5 116 99.3997 115.8C99.1997 115.8 99.0996 115.9 98.9996 116.1C91.3996 136.4 84.5996 157 78.9996 178C77.3996 184 75.8996 190 74.4996 196C74.4996 196.4 74.9996 196.7 75.1996 196.3C78.1996 190.9 81.4996 185.6 85.0996 180.6C86.2996 178.9 88.0996 177.1 88.4996 175.1C89.1996 172 89.9997 169 90.8997 166C92.6997 160 94.6997 154 97.7997 148.6C100.9 143.2 104.7 138.5 107.5 132.9C107.8 132.3 108 131.6 108.3 131.1C108.6 130.7 108.6 130.4 108.8 130.9C109 131.3 108.8 132.1 108.8 132.5C108.7 134.2 108.5 135.9 108.2 137.6C107.6 141.1 106.7 144.5 105.6 147.9C105.4 148.3 106 148.5 106.3 148.2C112.8 139.8 120.7 132.6 129.5 126.6C131.6 125.2 133.7 123.9 135.9 122.6C138.1 121.3 140.4 119.8 142.7 119C142.7 119 143.3 118.7 143.4 119C143.3 118.8 143.1 119.2 143.1 119.2C142.7 119.7 142.2 120.2 141.8 120.7C140.9 121.7 140 122.7 139.2 123.7C137.4 125.8 135.5 127.8 133.7 129.8C129.7 134.2 125.6 138.5 121.1 142.5C120.8 142.8 121.1 143.3 121.5 143.1C127.6 140.3 133.7 137.7 140.1 135.7C143.1 134.8 146.2 133.9 149.4 133.4C152.6 132.9 156.2 132.6 159.1 134.2C159.5 134.4 159.9 133.8 159.5 133.5L158.7 133.8Z" fill="#231F20"/>
<path d="M120.5 54.3003C121.1 52.3003 121.8 50.4002 122.7 48.6002C123.5 47.0002 124.5 45.4003 126 44.5003L125.4 44.2002C125.8 47.2002 125.1 50.5003 124.3 53.4003C124.1 54.1003 123.9 54.8003 123.7 55.5003C123.5 56.3003 123.3 56.9003 122.8 57.5003C121.8 58.5003 120.9 59.5002 120 60.7002L120.7 60.9003C120.8 59.7003 120.9 58.6003 120.9 57.4003C120.9 56.9003 120.9 56.3003 120.8 55.8003C120.8 55.6003 120.8 55.3002 120.7 55.1002C120.7 55.1002 120.5 54.3003 120.5 54.4003C120.8 54.0003 120.1 53.6003 119.8 54.0003C119.6 54.2003 119.8 54.7003 119.8 54.9003C119.9 55.6003 120 56.3003 120 57.0003C120 58.3003 120 59.6003 119.8 60.8003C119.8 61.2003 120.3 61.3003 120.5 61.0003C121 60.3003 121.5 59.6003 122.1 59.0003C122.5 58.5003 123.2 58.1002 123.6 57.6002C124 57.1002 124.1 56.3002 124.3 55.7002C124.5 54.9002 124.8 54.2003 125 53.4003C125.8 50.5003 126.5 47.2002 126.1 44.1002C126.1 43.8002 125.8 43.6003 125.5 43.8003C123.9 44.7003 122.8 46.3003 122 47.9003C121 49.9003 120.2 51.9003 119.6 54.0003C119.5 54.5003 120.2 54.7002 120.3 54.2002L120.5 54.3003Z" fill="#231F20"/>
<path d="M120.3 63.3001C122.2 59.5001 125.6 56.4 129.4 54.6L128.8 54.3001C128.4 57.2001 126.2 59.7001 124.4 61.8001C122.6 63.9001 120.5 66 118.3 67.9L118.9 68.3001C119.4 66.7001 119.9 65.0001 120.2 63.3001C120.2 62.8001 119.6 62.6 119.5 63.1C119.2 64.8 118.7 66.4 118.2 68.1C118.1 68.5 118.6 68.7 118.8 68.5C121.1 66.5 123.4 64.3 125.4 61.9C127.2 59.8 129.1 57.3 129.5 54.4C129.5 54.1 129.2 54 128.9 54.1C125 56 121.5 59.2 119.5 63.1C119.3 63.5 119.9 63.9 120.2 63.5L120.3 63.3001Z" fill="#231F20"/>
<path d="M117.4 62.0996C117 58.6996 116.7 54.8997 118.4 51.7997H117.7C119.2 53.7997 119.4 56.5996 119.2 59.0996C119.2 60.4996 119 61.9997 118.5 63.2997C118.1 64.3997 117.7 65.4996 117.4 66.6996H118.1C117.8 65.1996 117.5 63.5996 117.3 61.9996C117.3 61.4996 116.5 61.4996 116.5 61.9996C116.7 63.5996 117 65.1996 117.3 66.8996C117.3 67.1996 118 67.2996 118 66.8996C118.1 66.1996 118.3 65.4997 118.5 64.7997C118.7 64.0997 119.1 63.4996 119.2 62.6996C119.4 61.3996 119.6 60.0996 119.7 58.6996C119.9 56.1996 119.7 53.3997 118.1 51.2997C117.9 51.0997 117.6 50.9997 117.4 51.2997C115.7 54.5997 115.9 58.3996 116.3 61.9996C116.3 62.4996 117.1 62.4996 117.1 61.9996L117.4 62.0996Z" fill="#231F20"/>
<path d="M109.9 104.6C114.9 99.5998 120.1 94.6998 125.8 90.5998C131.5 86.4998 138 82.3998 145 82.4998L144.7 81.8998C137.9 88.3998 130.8 94.6998 123.4 100.7C119.7 103.7 116 106.6 112 109.2C110.1 110.5 108.1 111.7 106.1 112.8C103.9 114 101.5 115.2 99.0002 115.4L99.3003 116C102.6 112 106.2 108.2 109.8 104.5C110.1 104.2 109.6 103.6 109.3 104C105.6 107.7 102.1 111.5 98.8003 115.5C98.6003 115.7 98.8001 116.2 99.1001 116.1C103.7 115.7 108 112.7 111.7 110.3C115.6 107.8 119.3 105 122.9 102.1C130.6 95.8998 138.1 89.2998 145.2 82.3998C145.4 82.1998 145.2 81.7998 144.9 81.7998C137.9 81.7998 131.2 85.7998 125.7 89.6998C119.8 93.8998 114.4 98.8998 109.3 104C109 104.3 109.5 104.9 109.8 104.5L109.9 104.6Z" fill="#231F20"/>
<path d="M88.1002 52.6998C87.0002 54.8998 85.7002 56.8998 84.3002 58.8998C83.1002 60.6998 81.7002 62.4998 79.9002 63.6998L80.5002 64.0998C80.7002 62.9998 80.8002 61.6998 80.5002 60.5998V60.8998C81.3002 59.1998 82.4002 57.5998 83.6002 56.0998C84.8002 54.5998 86.5002 53.2998 88.5002 53.0998C89.0002 53.0998 89.0002 52.2998 88.5002 52.2998C85.9002 52.4998 83.8002 54.4998 82.2002 56.4998C81.4002 57.4998 80.7002 58.5998 80.1002 59.6998C80.0002 59.8998 79.7002 60.2998 79.7002 60.5998C79.7002 60.7998 79.8002 61.0998 79.9002 61.3998C80.0002 62.1998 79.9002 63.0998 79.9002 63.8998C79.9002 64.1998 80.1002 64.4998 80.5002 64.2998C82.4002 63.0998 83.8002 61.2998 85.0002 59.4998C86.5002 57.3998 87.8002 55.1998 89.0002 52.9998C89.2002 52.5998 88.6002 52.1998 88.3002 52.5998L88.1002 52.6998Z" fill="#231F20"/>
<path d="M86.1997 47.4004C86.0997 48.4004 85.8997 49.5004 85.6997 50.5004C85.6997 51.0004 85.4999 51.6003 85.3999 52.1003C85.3999 52.3003 85.3997 52.7004 85.1997 52.9004C85.1997 53.0004 84.8999 53.1003 84.7999 53.2003C83.2999 54.1003 81.9999 55.4004 80.9999 56.9004H81.6997C81.4997 56.4004 81.3997 55.8003 81.1997 55.2003C81.1997 54.9003 80.9999 54.6004 80.8999 54.3004C80.7999 54.0004 80.7999 53.9003 80.8999 53.6003C81.3999 52.6003 81.9998 51.7004 82.5998 50.8004C83.7998 49.1004 85.1999 47.7003 86.8999 46.6003L86.2999 46.3004C86.2999 46.7004 86.2999 47.2003 86.2999 47.6003C86.2999 48.1003 86.9998 48.1003 87.0998 47.6003C87.0998 47.2003 87.0998 46.7004 87.0998 46.3004C87.0998 46.0004 86.7999 45.8004 86.4999 46.0004C84.7999 47.2004 83.0999 48.8003 81.8999 50.6003C81.1999 51.6003 80.5998 52.6003 80.0998 53.7003C79.7998 54.2003 80.0999 54.7003 80.3999 55.2003C80.5999 55.9003 80.7999 56.6004 80.9999 57.3004C80.9999 57.6004 81.4997 57.6004 81.6997 57.3004C82.2997 56.5004 82.9997 55.7003 83.6997 55.1003C84.0997 54.8003 84.4999 54.5003 84.8999 54.2003C85.1999 54.0003 85.6999 53.9003 85.8999 53.6003C86.0999 53.3003 86.0997 52.7004 86.1997 52.3004C86.2997 51.8004 86.3999 51.2003 86.4999 50.7003C86.6999 49.7003 86.8999 48.6003 86.9999 47.6003C86.9999 47.1003 86.2997 47.1003 86.1997 47.6003V47.4004Z" fill="#231F20"/>
<path d="M87.6998 37.0003C87.2998 39.9003 86.8998 42.8003 85.4998 45.4003C85.2998 45.8003 84.8998 46.0003 84.4998 46.3003C83.8998 46.8003 83.3998 47.2003 82.8998 47.8003C81.8998 48.9003 80.9998 50.1003 80.1998 51.3003L80.8998 51.5003C81.0998 49.6003 81.0998 47.8003 80.9998 45.9003C80.9998 45.0003 80.8998 44.2003 80.7998 43.3003C80.7998 42.8003 80.6998 42.5003 80.8998 42.0003C81.0998 41.5003 81.3998 41.1002 81.6998 40.6002C83.4998 37.6002 85.6998 34.3003 88.7998 32.4003L88.1998 32.1002C88.0998 33.7002 87.8998 35.3003 87.6998 37.0003C87.6998 37.5003 88.3998 37.7002 88.3998 37.2002C88.5998 35.5002 88.7998 33.8002 88.8998 32.1002C88.8998 31.8002 88.5998 31.6003 88.2998 31.8003C85.1998 33.6003 82.9998 36.9003 81.0998 39.9003C80.6998 40.6003 79.8998 41.5003 79.7998 42.3003C79.7998 42.6003 79.7998 43.1003 79.9998 43.4003C79.9998 44.0003 80.1998 44.6002 80.1998 45.2002C80.3998 47.3002 80.1998 49.4003 80.1998 51.5003C80.1998 51.9003 80.6998 52.0002 80.8998 51.7002C81.7998 50.3002 82.6998 49.0003 83.8998 47.9003C84.3998 47.4003 84.9998 46.9003 85.5998 46.5003C85.9998 46.2003 86.1998 45.8003 86.3998 45.3003C87.5998 42.8003 87.9998 40.0002 88.3998 37.2002C88.3998 36.7002 87.6998 36.5003 87.6998 37.0003Z" fill="#231F20"/>
<path d="M88.2004 25.1001C88.2004 26.1001 88.1004 27.2001 88.0004 28.2001C88.0004 28.7001 88.0004 29.2002 87.8004 29.8002C87.6004 30.4002 87.8004 31.2001 87.5004 31.6001C87.3004 31.9001 86.7004 32.1001 86.4004 32.4001C86.1004 32.7001 85.8004 32.9001 85.5004 33.1001C84.8004 33.7001 84.2004 34.4001 83.6004 35.2001L84.2004 35.4001C83.9004 33.5001 83.5004 31.6001 83.0004 29.7001C82.8004 28.9001 82.2004 27.9001 82.2004 27.0001C82.2004 26.1001 82.7004 25.2001 83.0004 24.4001C84.3004 21.1001 86.5004 18.0001 88.6004 15.1001H87.9004C88.6004 18.3001 88.5004 21.8001 88.3004 25.1001C88.3004 25.6001 89.0004 25.6001 89.1004 25.1001C89.3004 21.7001 89.4004 18.2002 88.7004 14.8002C88.7004 14.5002 88.2004 14.5002 88.0004 14.8002C85.8004 17.7002 83.5004 20.9001 82.2004 24.4001C81.9004 25.2001 81.4004 26.3001 81.4004 27.2001C81.4004 28.0001 81.9004 28.8001 82.2004 29.6001C82.8004 31.6001 83.2004 33.6001 83.6004 35.6001C83.6004 35.9001 84.1004 36.0002 84.2004 35.8002C84.9004 35.0002 85.6004 34.2001 86.4004 33.5001C86.8004 33.1001 87.3004 32.8001 87.8004 32.5001C88.0004 32.4001 88.3004 32.3001 88.4004 32.0001C88.6004 31.7001 88.5004 31.1001 88.6004 30.7001C88.6004 30.1001 88.7004 29.5001 88.8004 28.9001C88.9004 27.7001 89.0004 26.4001 89.1004 25.2001C89.1004 24.7001 88.4004 24.7001 88.3004 25.2001L88.2004 25.1001Z" fill="#231F20"/>
<path d="M86.0003 2.99961C86.4003 2.49961 86.8003 1.99958 87.2003 1.59958H86.6003C87.7003 3.99958 87.7003 7.09956 87.7003 9.69956C87.7003 10.2995 87.7003 10.9996 87.7003 11.5996C87.7003 12.1996 87.7003 13.0996 87.5003 13.5996C87.3003 14.0996 86.7004 14.5996 86.4004 15.0996C86.0004 15.6996 85.6003 16.1996 85.2003 16.7996L85.9004 16.9996C85.6004 14.5996 85.0003 12.1996 84.2003 9.89963C83.9003 9.09963 83.9003 8.59956 84.0003 7.69956C84.1003 7.19956 84.2004 6.59958 84.4004 6.09958C84.8004 4.89958 85.3003 3.89963 86.0003 2.89963C86.3003 2.49963 85.6004 2.09961 85.3004 2.49961C84.6004 3.49961 84.1003 4.49958 83.7003 5.59958C83.4003 6.49958 82.9003 7.89963 83.0003 8.89963C83.0003 9.49963 83.4003 10.0995 83.6003 10.6995C83.8003 11.3995 84.0003 11.9995 84.2003 12.6995C84.6003 14.0995 84.9003 15.4996 85.0003 16.8996C85.0003 17.2996 85.5003 17.3996 85.7003 17.0996C86.1003 16.3996 86.6003 15.7995 87.1003 15.1995C87.4003 14.7995 88.0003 14.1995 88.2003 13.6995C88.4003 13.0995 88.3004 12.1996 88.3004 11.4996C88.3004 10.7996 88.3004 9.99963 88.3004 9.29965C88.3004 6.49965 88.3003 3.49961 87.1003 0.999609C87.1003 0.799609 86.7003 0.799609 86.5003 0.999609C86.0003 1.49961 85.6003 1.99958 85.2003 2.59958C84.9003 2.99958 85.6004 3.39961 85.9004 2.99961H86.0003Z" fill="#231F20"/>
<path d="M79.4002 21.9002C79.7002 19.4002 80.1002 16.8002 80.5002 14.3002C80.9002 12.0002 81.3002 9.70015 82.1002 7.50015H81.4002C82.7002 10.7001 83.8002 14.0002 84.2002 17.4002C84.2002 17.8002 84.2002 18.0002 84.2002 18.4002C84.0002 18.7002 83.8002 19.1002 83.6002 19.4002C83.2002 20.0002 82.9002 20.6002 82.5002 21.3002C81.8002 22.6002 81.2002 24.0001 80.8002 25.5001H81.5002C81.0002 24.1001 80.3002 22.9002 79.5002 21.8002V22.2001C79.7002 21.7001 79.1002 21.3001 78.8002 21.7001C78.5002 22.3001 79.2002 22.8002 79.5002 23.3002C80.0002 24.1002 80.4002 24.9002 80.8002 25.8002C80.9002 26.1002 81.4002 26.0002 81.5002 25.8002C82.0002 24.1002 82.7002 22.5001 83.6002 21.0001C83.9002 20.4001 84.3002 19.8001 84.7002 19.2001C85.1002 18.5001 85.1002 18.3002 85.0002 17.4002C84.7002 14.0002 83.5002 10.6001 82.2002 7.50015C82.1002 7.20015 81.6002 7.10015 81.5002 7.50015C80.6002 9.80015 80.2002 12.2001 79.8002 14.6001C79.4002 17.0001 79.0002 19.5001 78.7002 22.0001C78.7002 22.5001 79.4002 22.5001 79.5002 22.0001L79.4002 21.9002Z" fill="#231F20"/>
<path d="M77.4998 29.4004C77.5998 27.0004 77.6998 24.5004 78.4998 22.3004L77.9998 22.6004C78.2998 22.6004 78.5998 23.4004 78.6998 23.6004C78.8998 24.0004 79.0999 24.4004 79.2999 24.8004C79.6999 25.5004 79.9999 26.3004 80.2999 27.1004C80.6999 28.3004 81.0998 29.4004 81.4998 30.7004C81.6998 31.6004 81.8998 32.4004 82.0998 33.3004C82.2998 34.2004 82.7999 35.6004 82.3999 36.5004C82.2999 36.9004 81.7998 37.3004 81.5998 37.6004C81.2998 38.0004 81.0999 38.3004 80.8999 38.7004C80.3999 39.5004 79.9998 40.2004 79.4998 41.0004H80.1998C79.6998 39.3004 78.9999 37.5004 77.7999 36.1004C77.4999 35.7004 77.1998 35.4004 77.1998 34.9004C77.1998 34.4004 77.1998 33.7004 77.1998 33.1004C77.1998 31.9004 77.1999 30.7004 77.3999 29.6004C77.3999 29.1004 76.6998 29.1004 76.5998 29.6004C76.5998 30.8004 76.4999 32.0004 76.3999 33.1004C76.3999 33.9004 76.0999 35.1004 76.3999 35.8004C76.5999 36.2004 77.0999 36.6004 77.2999 36.9004C77.5999 37.3004 77.8998 37.7004 78.0998 38.2004C78.5998 39.2004 78.9999 40.2004 79.2999 41.3004C79.2999 41.6004 79.7998 41.7004 79.9998 41.3004C80.4998 40.4004 80.9998 39.5004 81.5998 38.7004C81.8998 38.2004 82.1998 37.8004 82.4998 37.3004C82.6998 37.0004 83.0998 36.7004 83.1998 36.3004C83.2998 35.9004 83.1998 35.4004 82.9998 35.1004C82.9998 34.6004 82.7998 34.0004 82.6998 33.5004C82.4998 32.4004 82.1999 31.3004 81.8999 30.2004C81.4999 28.8004 81.0998 27.5004 80.4998 26.2004C80.0998 25.3004 79.6999 24.5004 79.2999 23.7004C78.9999 23.1004 78.5999 22.1004 77.8999 21.9004C77.6999 21.9004 77.4999 21.9004 77.3999 22.2004C76.5999 24.5004 76.4999 27.1004 76.3999 29.5004C76.3999 30.0004 77.0998 30.0004 77.1998 29.5004L77.4998 29.4004Z" fill="#231F20"/>
<path d="M75.4004 40.2001C75.4004 38.4001 75.5004 36.6002 75.9004 34.9002L75.3004 35.1001C77.5004 37.0001 78.5004 39.8001 79.0004 42.5001C79.6004 45.6001 79.5004 48.8001 79.2004 52.0001L79.9004 51.8002C79.0004 49.8002 77.9004 47.9001 76.6004 46.2001C76.0004 45.4001 75.2004 44.7001 75.2004 43.7001C75.2004 42.6001 75.2004 41.4002 75.3004 40.3002C75.3004 39.8002 74.6004 39.8002 74.5004 40.3002C74.5004 41.5002 74.4004 42.7002 74.4004 43.9002C74.4004 44.2002 74.4004 44.5002 74.4004 44.8002C74.6004 45.4002 75.2004 45.9002 75.6004 46.4002C76.9004 48.3002 78.1004 50.2002 79.0004 52.3002C79.2004 52.7002 79.7004 52.4001 79.7004 52.1001C80.0004 48.8001 80.0004 45.5002 79.4004 42.3002C78.9004 39.5002 77.8004 36.6001 75.6004 34.6001C75.4004 34.4001 75.0004 34.5002 75.0004 34.8002C74.6004 36.6002 74.5004 38.5002 74.4004 40.3002C74.4004 40.8002 75.1004 40.8002 75.2004 40.3002L75.4004 40.2001Z" fill="#231F20"/>
<path d="M72.8 43.6001C74.8 45.9001 76.6 48.5001 77.9 51.2001C78.6 52.6001 79.1 54.0002 79.6 55.4002C79.7 55.7002 79.8 56.1002 79.9 56.4002C80 56.7002 80.1999 57.3001 80.1999 57.6001C80.1999 58.3001 79.4 59.0001 79.1 59.6001H79.8C78.2 57.0001 76.3 54.4001 73.4 53.1001L73.6999 53.5001C73.2999 50.2001 72.9 46.6002 73.6 43.3002C73.6 42.8002 73 42.6001 72.9 43.1001C72.2 46.5001 72.6 50.1001 73 53.5001C73 53.7001 73.1 53.8002 73.3 53.9002C76 55.0002 77.8 57.6001 79.3 60.0001C79.5 60.2001 79.8 60.3001 80 60.0001C80.2 59.6001 80.3999 59.2002 80.6999 58.9002C80.8999 58.6002 81.2 58.3001 81.3 58.0001C81.5 57.4001 81 56.5002 80.9 55.9002C80.5 54.3002 79.8999 52.8002 79.1999 51.3002C77.7999 48.3002 75.8999 45.5001 73.6999 43.0001C73.3999 42.6001 72.8999 43.2001 73.1999 43.5001L72.8 43.6001Z" fill="#231F20"/>
<path d="M79.0997 63.9997C75.3997 62.5997 72.5996 59.4997 71.6996 55.5997C71.6996 55.1997 71.4997 54.7997 71.4997 54.4997C71.4997 54.3997 71.4997 54.1997 71.4997 54.0997H71.7997C72.5997 54.0997 73.2997 54.4997 73.8997 54.8997C75.3997 55.8997 76.4997 57.2998 77.4997 58.7998C77.7997 59.1998 78.0997 59.5997 78.2997 60.0997C78.4997 60.3997 78.6997 60.7997 78.8997 61.0997C79.1997 62.1997 79.0997 63.2997 78.8997 64.3998L79.3997 64.0997H79.2997C78.7997 63.8997 78.5997 64.5998 79.0997 64.7998H79.1996C79.3996 64.8998 79.5996 64.7997 79.6996 64.5997C79.8996 63.4997 79.9996 62.2997 79.6996 61.0997C79.4996 60.2997 78.9997 59.5997 78.4997 58.8997C77.3997 57.1997 76.0997 55.4998 74.3997 54.2998C73.5997 53.7998 70.4997 52.2998 70.7997 54.2998C71.1997 56.4998 71.7996 58.4998 73.1996 60.2998C74.6996 62.2998 76.7997 63.7997 79.0997 64.6997C79.4997 64.8997 79.7997 64.0997 79.2997 63.9997H79.0997Z" fill="#231F20"/>
<path d="M81.6 107.8C85.5 99.1996 90.1 90.8995 95.5 82.9995L94.8 82.6995C94 86.5995 92.9 90.4995 91.5 94.1995C90.1 97.8995 88.3 101.4 86.4 104.9C82.6 112.1 79.3 119.7 76.1 127.2C74.3 131.4 72.4 135.7 70.6 140L71.3 140.3C73.3 129.1 76.9 118.2 81.6 107.8C81.8 107.4 81.2 107 80.9 107.4C76.2 117.8 72.5 128.7 70.5 140C70.5 140.4 71 140.7 71.2 140.3C74.5 132.6 77.7 124.9 81.2 117.4C82.9 113.7 84.6 110 86.5 106.3C88.2 102.9 90.2 99.6995 91.6 96.0995C93.3 91.7995 94.6 87.3995 95.5 82.8995C95.5 82.4995 95.1 82.2995 94.8 82.5995C89.5 90.3995 84.9 98.7995 80.9 107.4C80.7 107.8 81.3 108.2 81.6 107.8Z" fill="#231F20"/>
<path d="M66.8999 134.7C65.5999 126 64.3999 117.4 63.7999 108.6C63.1999 99.8001 62.7999 91.5001 64.2999 83.2001H63.5999C65.5999 86.8001 66.5999 91.0001 67.3999 94.9001C68.2999 99.2001 68.7999 103.5 69.0999 107.9C69.6999 116.6 69.6999 125.4 69.3999 134.1C69.1999 139.1 68.8999 144 68.4999 149H69.1998C68.2998 144.2 67.4999 139.5 66.7999 134.8C66.7999 134.3 65.9999 134.5 66.0999 135C66.7999 139.7 67.5999 144.4 68.4999 149.2C68.4999 149.6 69.1998 149.5 69.1998 149.2C69.7998 140.1 70.2999 131 70.2999 121.9C70.2999 113.3 69.8999 104.6 68.2999 96.1001C67.4999 91.7001 66.3998 87.1001 64.1998 83.2001C63.9998 82.9001 63.5999 83.0001 63.4999 83.2001C61.9999 91.6001 62.3999 100.4 62.9999 108.8C63.5999 117.2 64.7998 126.4 66.1998 135.1C66.1998 135.6 66.9999 135.4 66.8999 134.9V134.7Z" fill="#231F20"/>
<path d="M45.1 67.3C45.8 62.6 46.7 58 48 53.5C49.3 49.4 50.9 44.1999 54.6 41.5999L54 41.1999C53.1 47.6999 51.9 54.1999 50.4 60.5999C49.7 63.5999 48.8 66.6 47.7 69.5C46.6 72.4 45.5 75.5 43.2 77.5L43.8 77.8C44.1 74.3 44.5 70.8 45 67.4C45 66.9 44.3 66.6999 44.3 67.1999C43.8 70.6999 43.3 74.3 43 77.9C43 78.2 43.4 78.3999 43.6 78.1999C45.6 76.3999 46.7 73.8 47.7 71.3C49 68.2 49.9 65 50.8 61.8C52.5 55.1 53.7 48.3 54.7 41.5C54.7 41.2 54.5 40.8999 54.1 41.0999C50.6 43.5999 48.9 48.2999 47.6 52.1999C46 57.0999 45 62.2 44.3 67.3C44.3 67.8 45 68 45 67.5L45.1 67.3Z" fill="#231F20"/>
<path d="M43.1004 30.6003C43.5004 29.9003 44.0004 29.2003 44.6004 28.6003L44.0004 28.3004C44.0004 30.9004 43.7004 33.5004 43.1004 36.0004C42.6004 38.2004 41.7004 40.9003 39.6004 42.1003L40.2004 42.4004C40.6004 38.4004 41.1004 34.2003 43.0004 30.6003C43.2004 30.2003 42.6004 29.8003 42.3004 30.2003C40.4004 33.9003 39.8004 38.3004 39.4004 42.4004C39.4004 42.7004 39.7004 42.9003 40.0004 42.7003C42.1004 41.4003 43.1004 38.9003 43.7004 36.6003C44.4004 33.9003 44.7004 31.1004 44.7004 28.3004C44.7004 28.0004 44.4004 27.8004 44.1004 28.0004C43.3004 28.6004 42.8004 29.4003 42.3004 30.2003C42.1004 30.6003 42.7004 31.0003 43.0004 30.6003H43.1004Z" fill="#231F20"/>
<path d="M39.3 47.7999C34.8 42.5999 31.4 35.2999 31.8 28.2999L31.1999 28.5998C37.0999 32.9998 38.8999 40.9999 38.5999 47.9999C38.5999 48.4999 39.3 48.4999 39.4 47.9999C39.6 40.6999 37.7999 32.4999 31.5999 27.8999C31.3999 27.6999 30.9999 27.8998 30.9999 28.1998C30.5999 35.3998 34.0999 42.8998 38.6999 48.1998C38.9999 48.5998 39.4999 47.9998 39.1999 47.6998L39.3 47.7999Z" fill="#231F20"/>
<path d="M38.1001 35.6002C38.2001 35.4002 38.1001 35.0003 38.1001 34.8003C38.1001 34.2003 38.1001 33.6002 38.1001 33.0002C38.1001 31.9002 38.3002 30.8002 38.4002 29.7002C38.6002 27.5002 38.9001 25.3003 39.6001 23.3003H38.9002C39.8002 26.1003 40.1001 29.0003 40.1001 31.8003C40.1001 32.4003 40.1001 33.1002 40.1001 33.6002C40.0001 34.2002 39.7001 34.9002 39.6001 35.5002C39.3001 36.9002 39.0002 38.3003 38.8002 39.8003H39.5001C39.1001 38.2003 38.6001 36.7003 38.0001 35.3003C37.8001 34.9003 37.2002 35.3002 37.3002 35.7002C37.9002 37.1002 38.4001 38.6002 38.7001 40.0002C38.7001 40.3002 39.4002 40.4002 39.4002 40.0002C39.6002 38.5002 39.9001 36.9003 40.2001 35.4003C40.4001 34.8003 40.6001 34.2002 40.7001 33.5002C40.8001 32.8002 40.7001 32.2002 40.7001 31.6002C40.7001 28.7002 40.4001 25.8002 39.5001 23.0002C39.4001 22.6002 38.9002 22.7002 38.8002 23.0002C38.1002 24.9002 37.9001 26.9003 37.7001 28.8003C37.6001 29.9003 37.5002 30.9002 37.4002 32.0002C37.4002 32.5002 37.4002 33.1002 37.4002 33.6002C37.4002 33.9002 37.4002 34.1003 37.4002 34.4003C37.4002 34.6003 37.4002 35.1002 37.4002 35.2002C37.2002 35.6002 37.8001 36.0002 38.1001 35.6002Z" fill="#231F20"/>
<path d="M38.3002 103.6C36.7002 101.3 35.3001 99.0999 34.2001 96.4999C33.1001 93.7999 32.1001 91 31.2001 88.3C29.3001 82.6 27.6001 76.8999 26.1001 71.0999L25.4002 71.3999C30.5002 79.3999 35.1001 87.5999 39.2001 96.1999C43.3001 104.7 46.8001 113.4 49.1001 122.6L49.8002 122.3C46.1002 116 42.3001 109.7 38.2001 103.6C37.9001 103.2 37.3001 103.6 37.5001 104C41.6001 110.1 45.3001 116.3 49.1001 122.7C49.3001 123.1 49.9002 122.8 49.8002 122.4C47.5002 113.3 44.0001 104.7 40.0001 96.1999C35.9001 87.4999 31.2001 79.0999 26.0001 70.9999C25.8001 70.6999 25.2002 70.9 25.3002 71.3C26.9002 77.2 28.6001 83.0999 30.6001 88.9999C31.5001 91.6999 32.4001 94.2999 33.5001 96.8999C34.6001 99.4999 36.0001 101.7 37.6001 104C37.9001 104.4 38.5002 104 38.3002 103.6Z" fill="#231F20"/>
<path d="M27.0998 131.2C25.1998 124.4 23.8998 117.5 23.4998 110.5L22.7998 110.7C27.2998 119.7 31.4998 128.9 35.3998 138.2C37.1998 142.7 38.8998 147.2 40.4998 151.7C41.8998 155.9 43.4998 160 45.8998 163.7L46.4998 163.3C36.6998 155.1 30.5998 143.4 27.0998 131.2C26.9998 130.7 26.1998 130.9 26.3998 131.4C29.8998 143.6 36.0998 155.5 45.9998 163.8C46.2998 164 46.7998 163.8 46.5998 163.4C43.9998 159.5 42.4998 155.1 40.8998 150.7C39.2998 146.3 37.5998 141.6 35.7998 137.1C31.9998 128 27.8998 119.1 23.4998 110.3C23.2998 110 22.7998 110.1 22.7998 110.5C23.1998 117.6 24.4998 124.6 26.3998 131.4C26.4998 131.9 27.1998 131.7 27.0998 131.2Z" fill="#231F20"/>
<path d="M39.0996 165.6C32.4996 164.1 26.0996 161.5 19.9996 158.7C13.8996 155.9 7.79963 152.7 2.09963 149.1V149.8C4.19963 149.4 6.49963 150 8.59963 150.5C10.5996 151 12.4996 151.6 14.3996 152.2C18.2996 153.5 22.0996 155 25.8996 156.6C33.5996 159.8 41.1996 163.4 48.6996 167.1L48.8996 166.4C45.5996 166.8 42.2996 166.4 38.9996 165.6C38.4996 165.6 38.2997 166.2 38.7997 166.3C42.0997 167 45.4996 167.5 48.8996 167.1C49.1996 167.1 49.4996 166.6 49.0996 166.4C41.3996 162.6 33.5996 158.9 25.6996 155.6C21.7996 154 17.7996 152.4 13.6996 151.1C11.5996 150.4 9.4997 149.8 7.2997 149.3C5.4997 148.9 3.49961 148.6 1.69961 148.9C1.39961 148.9 1.39961 149.4 1.69961 149.6C7.59961 153.2 13.7996 156.5 20.0996 159.4C26.1996 162.2 32.3996 164.7 38.9996 166.2C39.4996 166.3 39.6996 165.6 39.1996 165.5L39.0996 165.6Z" fill="#231F20"/>
<path d="M66.6001 189.7C66.6001 190.4 66.6001 191.1 66.6001 191.7H67.3002C67.1002 190.4 66.8001 189.2 66.5001 187.9L65.8002 188.2C66.1002 188.7 66.3001 189.2 66.6001 189.7V189.5C66.6001 190 67.3002 190 67.4002 189.5C67.4002 189.3 67.4001 189.2 67.2001 189C67.2001 188.9 67.1001 188.7 67.0001 188.6C66.8001 188.3 66.7001 188 66.5001 187.7C66.3001 187.3 65.7002 187.6 65.8002 188C66.0002 189.2 66.3001 190.4 66.6001 191.7C66.6001 192.1 67.3002 192 67.3002 191.7C67.3002 191 67.3002 190.3 67.3002 189.7C67.3002 189.2 66.6001 189.2 66.5001 189.7H66.6001Z" fill="#231F20"/>
<path d="M67.2996 200C67.6996 202.1 68.0996 204.1 68.4996 206.2V205.9C68.0996 206.9 67.5996 207.8 67.1996 208.8L67.8996 209C67.8996 206 67.8996 202.9 68.0996 199.9C68.0996 199.4 67.3996 199.4 67.2996 199.9C67.2996 202.9 67.1996 206 67.0996 209C67.0996 209.3 67.5996 209.5 67.7996 209.2C68.0996 208.4 68.4996 207.7 68.8996 207C68.9996 206.7 69.2996 206.4 69.1996 206.1C69.1996 205.7 68.9996 205.2 68.8996 204.8C68.5996 203.2 68.1996 201.5 67.8996 199.9C67.8996 199.4 67.0996 199.6 67.1996 200.1L67.2996 200Z" fill="#231F20"/>
<path d="M67.8004 224.9C67.8004 222 67.8004 219.1 67.8004 216.1C67.8004 214.7 67.7004 213.2 67.8004 211.8C67.8004 211.1 68.3004 210.5 68.5004 209.9C68.8004 209.2 69.1004 208.6 69.4004 207.9H68.7004C69.0004 209.2 69.5004 210.7 69.2004 212.2C68.9004 213.7 68.7004 215 68.4004 216.4C67.9004 219.2 67.4004 222.1 66.9004 224.9C66.9004 225.4 67.5004 225.6 67.6004 225.1C68.1004 222.1 68.6004 219.1 69.2004 216.1C69.5004 214.7 69.8004 213.2 70.0004 211.8C70.1004 211.2 70.0004 210.6 69.8004 210C69.6004 209.2 69.5004 208.5 69.4004 207.7C69.4004 207.4 68.8004 207.3 68.7004 207.7C68.4004 208.4 68.1004 209 67.8004 209.7C67.5004 210.3 67.1004 210.9 67.0004 211.6C66.9004 212.2 67.0004 212.8 67.0004 213.4C67.0004 214 67.0004 215 67.0004 215.8C67.0004 218.9 67.0004 222 67.0004 225.1C67.0004 228.2 67.8004 225.6 67.8004 225.1V224.9Z" fill="#231F20"/>
<path d="M71.3 202.8C70.9 204.8 70.5 206.7 70.1 208.7H70.8C70.6 207.9 70.5 207 70.3 206.1V206.4C70.9 205.2 71.5 203.9 72.1 202.7L71.4 202.4C71.4 202.5 71.4 202.6 71.4 202.8C71.4 203.3 72 203.5 72.1 203C72.1 202.9 72.1 202.8 72.1 202.6C72.1 202.2 71.6 201.9 71.4 202.3C70.8 203.4 70.3 204.4 69.8 205.5C69.7 205.7 69.5 206 69.5 206.3C69.5 206.6 69.6 206.9 69.7 207.1C69.8 207.7 69.9 208.3 70 208.8C70 209.2 70.7 209.2 70.7 208.8C71.1 206.8 71.5 204.9 71.9 202.9C71.9 202.4 71.3 202.2 71.2 202.7L71.3 202.8Z" fill="#231F20"/>
<path d="M69.9998 203C69.6998 203.5 69.4998 204 69.1998 204.6H69.8998C69.4998 202.5 68.9998 200.4 68.5998 198.2C68.3998 197.1 68.0998 196 68.0998 194.9C68.0998 193.8 68.0998 192.7 68.0998 191.5L67.3998 191.7C68.2998 193.5 69.1998 195.4 70.0998 197.3C70.2998 197.8 70.4998 198.2 70.6998 198.7C70.8998 199.1 71.2998 199.8 71.2998 200.2C71.2998 200.6 70.7998 201.2 70.5998 201.5C70.2998 202 70.0998 202.5 69.7998 203C69.5998 203.4 70.1998 203.8 70.4998 203.4C70.7998 202.9 71.0998 202.3 71.2998 201.8C71.4998 201.4 71.9998 200.8 72.0998 200.3C72.0998 199.9 71.7998 199.4 71.6998 199.1C71.4998 198.6 71.2998 198.1 70.9998 197.6C70.0998 195.5 69.0998 193.4 67.9998 191.3C67.7998 191 67.2998 191.1 67.2998 191.5C67.2998 192.6 67.2998 193.7 67.2998 194.9C67.2998 195.5 67.2998 196 67.2998 196.5C67.2998 197 67.4998 197.6 67.5998 198.2C68.0998 200.4 68.4998 202.7 68.9998 205C68.9998 205.3 69.5998 205.4 69.6998 205L70.4998 203.4C70.6998 203 70.0998 202.6 69.7998 203H69.9998Z" fill="#231F20"/>
<path d="M117.1 157.3C123.1 155.6 129.7 155.3 135.4 158.1L135.6 157.4C131.7 157.2 127.7 158.6 124 159.9C120 161.2 116.1 162.8 112.2 164.5C104.3 167.9 96.5001 171.6 88.8001 175.5L89.2 176.1C97 168 106.1 160.6 117.1 157.4C117.6 157.3 117.4 156.5 116.9 156.7C105.8 159.9 96.6 167.4 88.7 175.6C88.4 175.9 88.7 176.4 89.1 176.2C96.5 172.4 104 168.8 111.6 165.5C115.5 163.8 119.4 162.2 123.4 160.8C127.2 159.5 131.4 157.9 135.5 158.1C135.9 158.1 136 157.6 135.7 157.4C129.8 154.5 123 154.8 116.8 156.6C116.3 156.7 116.5 157.4 117 157.3H117.1Z" fill="#231F20"/>
<path d="M94.9002 165.8C92.6002 168.5 90.4002 171.2 88.2002 174.1L88.9002 174.4C90.6002 166.9 92.9002 159.3 96.2002 152.3C97.8002 149 99.8002 146 101.9 143C104 140 106 136.6 107.7 133.1L107 132.9C106.2 144.7 101.4 156.2 94.9002 165.9C94.6002 166.3 95.3002 166.7 95.6002 166.3C102.3 156.4 107 145 107.8 132.9C107.8 132.5 107.3 132.4 107.1 132.7C105.4 136.2 103.4 139.6 101.2 142.8C99.0002 146 97.0002 148.9 95.4002 152.4C92.2002 159.3 89.9002 166.8 88.2002 174.2C88.2002 174.6 88.6002 174.8 88.9002 174.5C91.0002 171.7 93.2002 169 95.5002 166.4C95.8002 166 95.3002 165.5 95.0002 165.9L94.9002 165.8Z" fill="#231F20"/>
<path d="M99.2995 161.9C101.2 158.6 102.6 155.1 104.3 151.7C105.2 149.8 106.8 148.1 108.1 146.5C109.3 145 110.6 143.6 111.9 142.2C117.2 136.5 123.3 131.4 129.7 127.1C133.4 124.6 137.2 122.4 141.2 120.4L140.8 119.8C134.3 127.4 127.6 134.9 120.2 141.7C116.7 144.9 112.8 147.6 109.3 150.9C105.8 154.2 102.2 157.8 98.7995 161.5C98.4995 161.9 98.9995 162.4 99.2995 162C102.6 158.3 106.1 154.8 109.8 151.4C113.5 148 117.2 145.5 120.7 142.2C128 135.4 134.7 127.9 141.3 120.3C141.6 120 141.3 119.5 140.9 119.7C127 126.7 114.3 136.8 105.1 149.4C104.5 150.2 103.9 151 103.6 152C103.1 153.2 102.6 154.3 102.1 155.5C101.1 157.6 99.9995 159.7 98.8995 161.7C98.6995 162.1 99.2995 162.5 99.5995 162.1L99.2995 161.9Z" fill="#231F20"/>
<path d="M144.4 141.3C138.3 144.6 132.1 147.8 125.7 150.4C119.3 153 112.6 155.6 105.7 155.5L106 156.1C109.6 152.5 113.3 149.1 117.3 146C119 144.7 120.8 143.9 122.7 143C125.1 141.9 127.5 140.9 129.9 139.9C134.3 138.1 138.8 136.4 143.4 135.2C145.7 134.6 148 134.1 150.3 133.8C152.6 133.5 155 133.4 157.1 134.4V133.7C152.9 136.3 148.6 138.8 144.3 141.2C143.9 141.4 144.3 142.1 144.7 141.9C149 139.5 153.3 137.1 157.5 134.4C157.7 134.3 157.8 133.9 157.5 133.7C154.6 132.3 151.4 132.8 148.4 133.3C144.4 133.9 140.5 135.1 136.7 136.4C132.9 137.7 129.4 139.2 125.8 140.7C123.9 141.5 122 142.4 120.1 143.3C118.4 144.1 117.1 145.1 115.6 146.3C112 149.1 108.6 152.3 105.4 155.5C105.2 155.7 105.4 156.1 105.7 156.1C112.6 156.1 119.5 153.5 125.9 150.9C132.4 148.3 138.6 145.1 144.8 141.7C145.2 141.5 144.8 140.8 144.4 141V141.3Z" fill="#231F20"/>
</g>
<defs>
<clipPath id="clip0_208_632">
<rect width="160" height="264" fill="white"/>
</clipPath>
</defs>
</svg>
