<svg width="118" height="265" viewBox="0 0 118 265" fill="none" xmlns="http://www.w3.org/2000/svg">
<g clip-path="url(#clip0_208_294)">
<path d="M48.8998 263.1C52.6998 235.8 56.0998 208.4 58.0998 181C59.3998 163.6 59.9998 146 59.1998 128.6C58.5998 115.6 56.9998 102.7 54.8998 89.7998C53.6998 82.1998 52.1998 74.5998 50.9998 66.8998C49.1998 54.8998 48.1998 42.5998 49.2998 30.3998C49.7998 24.5998 50.7998 18.5998 52.8998 13.0998C53.0998 12.4998 53.3998 11.8998 53.6998 11.2998C53.7998 11.0998 54.0998 10.6998 54.0998 10.4998C54.0998 10.0998 53.7998 9.69981 53.5998 9.29981L50.9998 3.9998L49.3998 0.799805C49.3998 0.799805 48.2998 1.3998 48.2998 1.4998C49.6998 4.3998 51.1998 7.2998 52.5998 10.1998C53.0998 11.2998 52.9998 11.0998 52.5998 12.0998C50.5998 16.1998 49.6998 20.7998 48.9998 25.2998C45.7998 45.5998 49.6998 65.9998 53.0998 85.9998C55.2998 98.6998 57.0998 111.4 57.8998 124.2C58.9998 140.8 58.5998 157.5 57.5998 174.1C55.9998 200.1 52.8998 226 49.4998 251.8C48.9998 255.8 48.3998 259.9 47.7998 263.9C47.7998 263.7 48.8998 263.5 48.8998 263.3V263.1Z" fill="#231F20"/>
<path d="M49.2004 263.2C51.6004 245.8 53.9004 228.4 55.7004 211C57.5004 193.5 59.1004 176 59.6004 158.4C60.2004 140.8 59.6004 123.2 57.5004 105.7C55.3004 88.2997 51.2004 71.1997 49.7004 53.6997C49.0004 44.9997 48.9004 36.2997 49.8004 27.6997C50.3004 23.4997 51.0004 19.3997 52.3004 15.3997C52.6004 14.4997 52.9004 13.5997 53.3004 12.6997C53.6004 12.0997 54.3004 11.1997 54.3004 10.4997C54.3004 9.99966 54.1004 9.59967 53.8004 9.19967C53.3004 8.19967 52.8004 7.19966 52.3004 6.19966L49.5004 0.499669C49.5004 0.299669 49.2004 0.299671 49.0004 0.399671C48.6004 0.699671 48.2004 0.799667 47.8004 1.09966C47.7004 1.19966 47.7004 1.39966 47.8004 1.49966L50.6004 7.19966C51.1004 8.09966 51.5004 8.99967 51.9004 9.89967C52.2004 10.4997 52.3004 10.7997 52.1004 11.4997C51.9004 11.9997 51.6004 12.4997 51.4004 12.9997C49.9004 16.5997 49.1004 20.3997 48.4004 24.2997C47.1004 32.5997 46.9004 40.9997 47.4004 49.3997C48.5004 66.4997 52.3004 83.3997 54.7004 100.3C57.2004 117.6 58.1004 135.1 57.8004 152.6C57.5004 170 56.1004 187.4 54.4004 204.8C52.6004 222.3 50.4004 239.8 48.1004 257.3C47.8004 259.4 47.5004 261.5 47.2004 263.6C47.2004 264 47.6004 264.3 47.9004 263.9C48.1004 263.6 48.7004 263.7 49.0004 263.3C49.3004 262.9 48.6004 262.5 48.3004 262.9C48.1004 263.2 47.5004 263.2 47.2004 263.5L47.9004 263.8C50.3004 246.5 52.6004 229.2 54.4004 211.8C56.2004 194.4 57.8004 176.7 58.4004 159.1C59.0004 141.5 58.4004 123.9 56.3004 106.3C54.1004 88.9997 50.2004 71.8997 48.6004 54.4997C47.8004 45.7997 47.6004 37.0997 48.6004 28.3997C49.1004 24.1997 49.8004 19.9997 51.1004 15.9997C51.4004 14.9997 51.8004 13.9997 52.2004 12.9997C52.4004 12.3997 52.9004 11.7997 53.0004 11.1997C53.0004 10.7997 52.9004 10.3997 52.7004 10.0997C52.2004 8.99967 51.7004 7.99967 51.1004 6.89967L48.3004 1.19966V1.59966C48.5004 1.39966 49.0004 1.19966 49.3004 0.999669H48.8004C49.7004 2.79966 50.7004 4.59966 51.6004 6.49966C52.0004 7.39966 52.5004 8.29967 52.9004 9.19967C53.1004 9.59967 53.3004 9.89967 53.3004 10.3997C53.3004 10.9997 52.9004 11.3997 52.7004 11.8997C51.1004 15.4997 50.2004 19.3997 49.5004 23.2997C48.1004 31.4997 47.9004 39.9997 48.4004 48.2997C49.3004 65.4997 53.3004 82.3997 55.7004 99.3997C58.1004 116.7 59.2004 134.1 58.8004 151.6C58.5004 169.1 57.1004 186.6 55.4004 204C53.7004 221.4 51.4004 239.1 49.1004 256.6C48.8004 258.7 48.5004 260.9 48.2004 263C48.2004 263.5 48.9004 263.7 48.9004 263.2H49.2004Z" fill="#231F20"/>
<path d="M16.4004 161.2C18.1004 164.1 19.7004 166.9 21.4004 169.8C21.7004 170.3 21.8004 170.6 22.3004 170.9C23.1004 171.3 24.0004 171.8 24.8004 172.3C32.6004 176.7 40.2004 182.2 46.3004 188.9C50.3004 193.3 53.6004 198.4 55.0004 204.2C55.0004 204.2 56.0004 203.6 56.1004 203.6C60.9004 200.2 65.7004 196.9 70.5004 193.5C71.2004 193 71.8004 192.5 72.5004 192.1C72.2004 192.3 71.7004 192.5 71.4004 192.7C66.6004 196.1 61.8004 199.4 57.0004 202.8C56.3004 203.3 55.7004 203.8 55.0004 204.2L56.1004 203.6C53.6004 193.3 45.3004 185.3 37.2004 179.1C33.9004 176.6 30.4004 174.3 26.8004 172.2C25.8004 171.6 24.8004 171.1 23.8004 170.5C23.4004 170.3 23.1004 170.2 22.9004 169.9C22.5004 169.3 22.1004 168.6 21.7004 167.9L19.9004 164.8C19.1004 163.4 18.3004 162 17.5004 160.6L16.4004 161.2Z" fill="#231F20"/>
<path d="M16.0995 161.4C17.1995 163.3 18.2996 165.1 19.2996 167C19.7996 167.9 20.3996 168.9 20.8996 169.8C21.1996 170.3 21.3996 170.8 21.8996 171.1C23.4996 172.2 25.2996 173 26.9996 174C28.6996 175 30.1996 176 31.7996 177.1C38.1996 181.4 44.3996 186.6 48.9996 192.9C51.4996 196.3 53.4996 200.1 54.4996 204.3C54.4996 204.6 54.8995 204.7 55.0995 204.5C55.3995 204.2 55.7995 204.1 56.0995 203.9C56.8995 203.4 57.6996 202.8 58.4996 202.2C59.9996 201.1 61.5995 200.1 63.0995 199C66.1995 196.8 69.3996 194.6 72.4996 192.4C72.8996 192.1 72.4996 191.5 72.0995 191.8C69.0995 193.6 66.2996 195.8 63.3996 197.8C60.4996 199.8 57.4996 201.9 54.5995 204C54.1995 204.3 54.5996 204.9 54.9996 204.6L56.0995 204C56.2995 204 56.2996 203.7 56.2996 203.6C54.5996 196.6 50.2996 190.7 45.1996 185.7C39.6996 180.3 33.2995 175.7 26.5995 171.9C25.4995 171.3 23.9995 170.7 23.0995 169.9C22.2995 169.2 21.8996 168 21.3996 167.1C20.1996 165 18.8995 162.8 17.5995 160.6C17.4995 160.4 17.2995 160.4 17.0995 160.5C16.6995 160.7 16.2996 160.9 15.9996 161.1C15.5996 161.4 15.9996 162 16.3996 161.7C16.7996 161.5 17.0996 161.2 17.4996 161.1H16.9996C18.0996 162.8 19.0996 164.6 20.1996 166.5C20.6996 167.3 21.0995 168.1 21.5995 168.9C21.9995 169.6 22.2996 170.3 22.8996 170.7C24.5996 171.8 26.5996 172.7 28.3996 173.8C30.1996 174.9 31.8995 176 33.5995 177.2C39.7995 181.5 45.7996 186.4 50.1996 192.6C52.5996 196 54.4996 199.7 55.4996 203.8L55.6996 203.4L54.5995 204L54.9996 204.6C57.8996 202.5 60.8996 200.5 63.7996 198.4C66.6996 196.3 69.4996 194.2 72.4996 192.4L72.0995 191.8C68.7995 194.1 65.5996 196.4 62.2996 198.7C60.6996 199.8 59.0996 200.9 57.4996 202.1C56.7996 202.6 56.1996 203.1 55.4996 203.5C55.1996 203.7 54.7996 203.8 54.4996 204.1L55.0995 204.3C53.2995 197.2 48.7996 191.2 43.6996 186.1C38.2996 180.7 31.8996 176.3 25.2996 172.5C24.2996 171.9 23.0996 171.5 22.1996 170.8C21.2996 170.2 20.8996 168.9 20.2996 167.9C18.9996 165.7 17.6996 163.5 16.3996 161.3C16.1996 160.9 15.4996 161.3 15.6996 161.7L16.0995 161.4Z" fill="#231F20"/>
<path d="M50.8004 66.0004C39.2004 57.4004 29.9004 45.9004 22.3004 33.8004C19.5004 29.3004 16.8004 24.7004 14.4004 19.9004C13.2004 17.6004 12.2004 15.2004 11.1004 12.9004C11.1004 12.7004 11.0004 12.7004 10.8004 12.5004C10.1004 11.8004 9.40035 11.2004 8.60035 10.6004C7.10035 9.20039 5.50037 7.80039 4.00037 6.40039C4.00037 6.40039 3.00039 7.10039 2.90039 7.10039C4.20039 8.30039 5.50039 9.50039 6.90039 10.7004L9.30036 12.9004C9.50036 13.1004 9.80039 13.3004 9.90039 13.5004C10.2004 14.0004 10.4004 14.7004 10.7004 15.3004C11.3004 16.7004 12.0004 18.0004 12.6004 19.4004C17.8004 30.0004 24.2004 40.0004 31.6004 49.2004C36.9004 55.7004 42.9004 61.8004 49.7004 66.8004C49.8004 66.9004 50.7004 66.1004 50.8004 66.2004V66.0004Z" fill="#231F20"/>
<path d="M51.0004 65.5999C42.6004 59.2999 35.3004 51.4999 29.1004 43.0999C22.9004 34.6999 17.1004 24.9999 12.5004 15.0999C12.0004 13.8999 11.5004 12.6999 10.6004 11.7999C9.50041 10.7999 8.40042 9.79988 7.30042 8.79988L5.50043 7.19987C5.20043 6.89987 4.50041 6.09987 4.10041 5.99987C3.50041 5.79987 3.30042 6.59987 2.80042 6.59987C2.50042 6.59987 2.30043 6.99987 2.50043 7.19987C4.60043 9.09987 6.70042 11.0999 8.80042 12.8999C9.70042 13.6999 10.0004 14.7999 10.4004 15.7999C11.0004 17.0999 11.6004 18.3999 12.3004 19.6999C14.7004 24.4999 17.3004 29.1999 20.2004 33.7999C25.8004 42.6999 32.2004 51.1999 39.7004 58.5999C41.8004 60.6999 44.0004 62.6999 46.3004 64.4999C46.8004 64.8999 47.4004 65.3999 47.9004 65.7999C48.2004 65.9999 49.0004 66.7999 49.4004 66.8999C50.0004 66.9999 50.2004 66.2999 50.7004 66.2999C51.2004 66.2999 51.2004 65.4999 50.7004 65.4999C50.2004 65.4999 49.9004 66.0999 49.5004 65.9999C49.0004 65.8999 48.1004 64.8999 47.7004 64.5999C47.2004 64.1999 46.7004 63.7999 46.2004 63.2999C44.2004 61.5999 42.3004 59.8999 40.4004 58.0999C36.7004 54.4999 33.4004 50.6999 30.2004 46.5999C23.6004 38.2999 18.0004 29.1999 13.2004 19.6999C12.6004 18.3999 11.9004 17.0999 11.3004 15.7999C10.8004 14.7999 10.5004 13.4999 9.80042 12.6999C7.70042 10.4999 5.30043 8.59987 3.00043 6.59987L2.70045 7.19987C2.90045 7.19987 3.00045 7.19987 3.20045 6.99987C3.30045 6.99987 3.40041 6.79987 3.60041 6.69987C4.00041 6.59987 3.60043 6.59987 4.00043 6.69987C4.50043 6.89987 5.00046 7.59987 5.40046 7.99987L7.20045 9.59987C8.10045 10.3999 9.10043 11.1999 10.0004 12.0999C11.0004 12.9999 11.4004 14.4999 12.0004 15.6999C14.3004 20.7999 17.0004 25.6999 19.9004 30.4999C25.1004 39.1999 31.1004 47.4999 38.1004 54.7999C41.9004 58.8999 46.1004 62.5999 50.6004 65.9999C51.0004 66.2999 51.4004 65.5999 51.0004 65.3999V65.5999Z" fill="#231F20"/>
<path d="M39.1 19.6004C40.1 21.3004 41.1 22.9004 42.2 24.5004C43.1 25.7004 44 27.0004 45 28.1004C45.6 28.8004 46.6 30.1004 47.6 30.3004C48.1 30.3004 48.7 29.8004 49.1 29.5004L51.1 28.2004L57.7 23.9004C59.2 22.9004 60.8 21.9004 62.3 20.9004C62 21.1004 61.5 21.3004 61.2 21.5004C57.3 24.1004 53.3 26.6004 49.4 29.2004C48.8 29.6004 48.3 29.9004 47.7 30.3004L48.8 29.7004C47.7 29.4004 46.9 28.4004 46.1 27.6004C45.1 26.5004 44.2 25.3004 43.3 24.0004C42.2 22.4004 41.1 20.7004 40.1 18.9004C40.1 18.9004 39 19.5004 39 19.6004H39.1Z" fill="#231F20"/>
<path d="M38.8002 19.8001C40.2002 22.3001 41.8002 24.7001 43.5002 27.0001C44.4002 28.1001 46.2002 31.0001 47.9002 30.7001C48.8002 30.5001 49.8001 29.5001 50.6001 29.0001L54.4002 26.6001C57.1002 24.8001 59.8002 23.1001 62.5002 21.3001C62.9002 21.0001 62.5001 20.4001 62.1001 20.6001C57.1001 23.5001 52.4001 26.8001 47.6001 30.0001C47.2001 30.3001 47.6002 30.9001 48.0002 30.7001L49.1001 30.1001C49.4001 29.9001 49.3001 29.5001 49.1001 29.4001C47.1001 28.6001 45.6002 26.2001 44.4002 24.6001C43.1002 22.8001 41.9002 20.8001 40.7002 18.9001C40.6002 18.7001 40.4002 18.7001 40.2002 18.8001C39.8002 19.0001 39.4001 19.2001 39.1001 19.5001C38.7001 19.8001 39.1002 20.4001 39.5002 20.2001C39.8002 20.0001 40.2001 19.8001 40.6001 19.5001H40.1001C41.4001 21.7001 42.9002 24.0001 44.5002 26.1001C45.7002 27.7001 47.0002 29.6001 48.9002 30.3001V29.6001L47.7002 30.2001L48.1001 30.9001C52.9001 27.7001 57.7001 24.5001 62.6001 21.5001L62.2002 20.8001C57.8002 23.7001 53.4002 26.5001 49.0002 29.4001C48.5002 29.8001 48.0002 30.1001 47.3002 30.0001C46.8002 29.9001 46.3002 29.2001 46.0002 28.9001C45.2002 28.1001 44.5002 27.2001 43.8002 26.3001C42.2002 24.2001 40.8002 22.0001 39.5002 19.7001C39.3002 19.3001 38.6002 19.7001 38.8002 20.1001V19.8001Z" fill="#231F20"/>
<path d="M36.2996 23.4998C37.2996 25.2998 38.4996 26.9998 39.5996 28.6998C41.3996 31.3998 43.4996 34.2998 46.0996 36.2998C46.3996 36.5998 47.1996 37.1998 47.5996 37.0998C47.8996 37.0998 48.4996 36.5998 48.6996 36.3998C49.1996 36.0998 49.6996 35.6998 50.0996 35.2998C52.3996 33.4998 54.6996 31.7998 56.9996 30.0998C58.6996 28.7998 60.3996 27.4998 62.0996 26.1998C61.7996 26.4998 61.2996 26.5998 60.9996 26.8998C57.0996 29.8998 53.1996 32.8998 49.1996 35.8998L47.4996 37.1998L48.5996 36.4998C47.4996 36.1998 46.5996 35.3998 45.7996 34.5998C44.6996 33.5998 43.7996 32.3998 42.7996 31.2998C41.0996 29.0998 39.4996 26.7998 38.0996 24.3998C37.7996 23.8998 37.4996 23.3998 37.1996 22.7998C37.1996 22.7998 36.0996 23.3998 36.0996 23.4998H36.2996Z" fill="#231F20"/>
<path d="M35.9998 23.6997C37.6998 26.5997 39.4998 29.3997 41.4998 31.9997C42.3998 33.1997 43.2998 34.2997 44.2998 35.1997C45.0998 35.9997 46.0998 36.9997 47.1998 37.3997C48.0998 37.6997 48.8998 36.8997 49.4998 36.3997C50.8998 35.2997 52.2998 34.2997 53.5998 33.1997C56.4998 30.9997 59.3998 28.7997 62.3998 26.4997C62.7998 26.1997 62.3998 25.5997 61.9998 25.7997C56.8998 29.0997 52.1998 32.9997 47.3998 36.6997C46.9998 36.9997 47.3998 37.5997 47.7998 37.3997L48.8998 36.6997C49.1998 36.4997 49.0998 36.0997 48.8998 35.9997C46.1998 34.8997 44.0998 31.8997 42.3998 29.6997C40.6998 27.4997 39.1998 24.9997 37.6998 22.4997C37.5998 22.2997 37.3998 22.2997 37.1998 22.3997C36.7998 22.5997 36.3998 22.7997 36.0998 23.0997C35.6998 23.3997 36.0998 23.9997 36.4998 23.7997C36.8998 23.5997 37.1998 23.3997 37.5998 23.0997H37.0998C38.7998 25.7997 40.4998 28.4997 42.4998 31.0997C44.1998 33.2997 46.0998 35.7997 48.6998 36.7997V36.0997L47.4998 36.7997L47.8998 37.4997C52.6998 33.7997 57.3998 29.8997 62.4998 26.5997L62.0998 25.8997C59.5998 27.7997 56.9998 29.7997 54.4998 31.6997L50.8998 34.4997C50.2998 34.9997 49.6998 35.3997 49.0998 35.8997C48.7998 36.1997 48.0998 36.7997 47.5998 36.6997C47.0998 36.5997 46.4998 35.9997 46.0998 35.6997C45.4998 35.1997 44.9998 34.6997 44.3998 34.1997C43.3998 33.1997 42.4998 31.9997 41.5998 30.8997C39.7998 28.3997 38.0998 25.8997 36.5998 23.2997C36.3998 22.8997 35.6998 23.2997 35.8998 23.6997H35.9998Z" fill="#231F20"/>
<path d="M39.0996 34.5996C40.1996 36.1996 41.3996 37.7996 42.5996 39.3996C43.4996 40.5996 44.4996 41.6996 45.6996 42.6996C46.0996 43.0996 46.5996 43.4996 47.0996 43.6996C47.6996 43.9996 47.7996 43.9996 48.3996 43.6996C49.4996 42.9996 50.5996 42.1996 51.6996 41.4996C53.7996 39.9996 55.8996 38.5996 58.0996 37.0996C59.4996 36.0996 60.8996 35.0996 62.3996 34.0996C62.0996 34.2996 61.5996 34.4996 61.2996 34.7996C57.3996 37.4996 53.4996 40.1996 49.5996 42.9996C48.9996 43.3996 48.4996 43.7996 47.8996 44.1996L48.9996 43.4996C47.9996 43.1996 47.0996 42.3996 46.2996 41.5996C45.2996 40.5996 44.3996 39.4996 43.4996 38.4996C42.3996 37.0996 41.2996 35.6996 40.2996 34.1996L39.1996 34.8996L39.0996 34.5996Z" fill="#231F20"/>
<path d="M38.7998 34.8C40.2998 37 41.8998 39.2 43.6998 41.2C44.5998 42.2 46.6998 44.8 48.2998 44.1C49.4998 43.6 50.4998 42.7 51.5998 41.9C52.7998 41.1 53.8998 40.3 55.0998 39.5C57.5998 37.8 60.0998 36.1 62.4998 34.3C62.8998 34 62.4998 33.4 62.0998 33.6C57.0998 36.7 52.3998 40.2 47.5998 43.6C47.1998 43.9 47.5998 44.5 47.9998 44.3L49.0998 43.6C49.3998 43.4 49.2998 43 49.0998 42.9C47.1998 42.2 45.6998 40.3 44.4998 38.8C43.1998 37.2 41.8998 35.5 40.6998 33.7C40.6998 33.6 40.3998 33.5 40.2998 33.5C39.8998 33.7 39.4998 34 39.0998 34.2C38.6998 34.4 39.0998 35.1 39.4998 34.9C39.7998 34.7 40.1998 34.4 40.4998 34.3L40.0998 34.1C41.3998 36 42.7998 37.9 44.2998 39.6C45.5998 41.1 47.0998 42.8 48.9998 43.6V42.9L47.7998 43.6L48.1998 44.3C52.9998 41 57.7998 37.4 62.6998 34.3L62.2998 33.6C58.1998 36.4 54.0998 39.3 50.0998 42.1C49.0998 42.8 48.0998 43.7 46.8998 42.9C45.8998 42.2 45.0998 41.3 44.2998 40.4C42.5998 38.5 41.0998 36.5 39.5998 34.3C39.2998 33.9 38.6998 34.3 38.8998 34.7L38.7998 34.8Z" fill="#231F20"/>
<path d="M63 3.10039C60.1 5.40039 57.2 7.70039 54.2 9.90039L53 10.9004C53.3 10.6004 53.8 10.5004 54.1 10.2004C57 7.90039 59.9 5.60039 62.9 3.40039L64.1 2.40039C63.8 2.70039 63.3 2.80039 63 3.10039Z" fill="#231F20"/>
<path d="M62.8001 2.89965C59.5001 5.49965 56.1001 8.09964 52.8001 10.6996C52.5001 10.9996 52.9001 11.4996 53.3001 11.2996C53.7001 10.9996 54.1001 10.8996 54.5001 10.5996C55.0001 10.1996 55.5001 9.79965 56.0001 9.39965C57.0001 8.59965 57.9001 7.89964 58.9001 7.09964C60.8001 5.59964 62.7001 4.19964 64.5001 2.69964C64.8001 2.39964 64.4001 1.89964 64.0001 2.09964C63.6001 2.29964 63.2001 2.49965 62.9001 2.79965C62.5001 3.09965 62.9001 3.69965 63.3001 3.49965C63.7001 3.29965 64.1001 3.09965 64.4001 2.79965L63.9001 2.19964C62.1001 3.59964 60.3001 4.99965 58.5001 6.39965C57.6001 7.09965 56.6001 7.89964 55.7001 8.59964C55.2001 8.99964 54.8001 9.29964 54.3001 9.69964C53.9001 9.99964 53.4001 10.1996 52.9001 10.5996L53.4001 11.1996C56.7001 8.59964 60.1001 5.99965 63.4001 3.39965C63.8001 3.09965 63.2001 2.59965 62.9001 2.89965H62.8001Z" fill="#231F20"/>
<path d="M65.1002 9.99961C60.5002 13.5996 55.9002 17.1996 51.3002 20.6996C50.6002 21.1996 50.0002 21.6996 49.3002 22.1996L50.4002 21.4996C49.2002 20.4996 48.4002 19.2996 47.5002 17.9996C46.4002 16.3996 45.5002 14.7996 44.5002 13.1996C43.4002 11.1996 42.3002 9.09961 41.3002 7.09961C41.3002 7.09961 40.2002 7.69961 40.2002 7.79961C41.2002 9.89961 42.3002 11.8996 43.4002 13.8996C44.3002 15.4996 45.3002 17.1996 46.4002 18.6996C47.2002 19.8996 48.1002 21.1996 49.3002 22.1996C49.3002 22.1996 50.3002 21.5996 50.4002 21.4996C55.0002 17.8996 59.6002 14.2996 64.2002 10.7996C64.9002 10.2996 65.5002 9.79961 66.2002 9.29961C65.9002 9.59961 65.4002 9.69961 65.1002 9.99961Z" fill="#231F20"/>
<path d="M64.7998 9.70045C59.5998 13.8005 54.2998 17.9005 49.0998 21.9005C48.7998 22.2005 49.0998 22.7005 49.5998 22.5005L50.6998 21.8005C50.8998 21.7005 50.9998 21.4005 50.6998 21.2005C48.5998 19.4005 47.0998 16.8005 45.6998 14.4005C44.2998 12.0005 42.8998 9.40046 41.6998 6.80046C41.6998 6.60046 41.2998 6.60045 41.1998 6.70045C40.7998 7.00045 40.3998 7.10046 39.9998 7.40046C39.8998 7.50046 39.8998 7.70046 39.9998 7.80046C41.4998 11.0005 43.1998 14.2005 45.0998 17.2005C45.8998 18.5005 46.7998 19.8005 47.7998 21.0005C48.2998 21.6005 48.8998 22.6005 49.7998 22.3005C50.8998 21.9005 51.7998 20.9005 52.6998 20.2005C54.2998 19.0005 55.7998 17.8005 57.3998 16.5005C60.3998 14.2005 63.3998 11.8005 66.3998 9.50045C66.6998 9.20045 66.3998 8.70046 65.8998 8.90046C65.3998 9.10046 65.0998 9.30045 64.7998 9.60045C64.3998 9.90045 64.7998 10.5005 65.1998 10.3005C65.5998 10.1005 65.9998 9.90045 66.2998 9.60045L65.7998 9.00045C63.1998 11.0005 60.5998 13.1005 57.9998 15.1005C55.3998 17.1005 52.7998 19.4005 49.9998 21.3005C49.8998 21.3005 49.5998 21.6005 49.4998 21.6005C49.1998 21.6005 49.3998 21.6005 49.0998 21.5005C48.4998 21.1005 47.8998 20.2005 47.5998 19.7005C46.6998 18.5005 45.8998 17.2005 45.0998 15.9005C43.4998 13.2005 41.9998 10.4005 40.5998 7.50045V7.90046C40.7998 7.60046 41.2998 7.50046 41.5998 7.30046H41.0998C42.3998 9.90046 43.7998 12.6005 45.3998 15.2005C46.7998 17.5005 48.1998 20.0005 50.1998 21.7005V21.1005L49.1998 21.8005L49.6998 22.4005C54.8998 18.3005 60.1998 14.2005 65.3998 10.2005C65.7998 9.90045 65.1998 9.40045 64.8998 9.70045H64.7998Z" fill="#231F20"/>
<path d="M42.7002 48.9004C44.6002 50.5004 46.4002 52.2004 48.3002 53.8004C48.3002 53.8004 49.3002 53.2004 49.4002 53.2004C53.2002 50.3004 56.9002 47.5004 60.7002 44.6004C61.2002 44.2004 61.8002 43.8004 62.3002 43.4004C62.0002 43.7004 61.5002 43.8004 61.2002 44.1004C57.4002 47.0004 53.7002 49.8004 49.9002 52.7004C49.4002 53.1004 48.8002 53.5004 48.3002 53.9004L49.4002 53.3004C47.5002 51.7004 45.7002 50.0004 43.8002 48.4004C43.7002 48.4004 42.8002 49.1004 42.7002 49.1004V48.9004Z" fill="#231F20"/>
<path d="M42.4 49.0996L45.2 51.4996L46.5 52.6996C46.9 53.0996 47.5 53.7996 48 53.9996C48.9 54.3996 50.5 52.6996 51.1 52.1996C54.9 49.2996 58.7 46.3996 62.5 43.4996C62.9 43.1996 62.5 42.5996 62.1 42.7996C59.6 44.3996 57.4 46.1996 55 47.9996C52.6 49.7996 50.3 51.4996 48 53.2996C47.6 53.5996 48 54.1996 48.4 53.8996L49.5 53.2996C49.7 53.1996 49.8 52.8996 49.5 52.6996C47.9 51.2996 46.3 49.8996 44.6 48.4996C44.3 48.1996 43.9 47.6996 43.4 47.7996C43.1 47.7996 42.6 48.3996 42.5 48.3996C42 48.3996 42 49.1996 42.5 49.1996C43 49.1996 43 48.9996 43.2 48.7996C43.2 48.7996 43.4 48.6996 43.5 48.5996C43.6 48.4996 43.7 48.5996 43.6 48.5996C43.9 48.6996 44.4 49.2996 44.6 49.4996L48.9 53.1996V52.5996L47.9 53.1996L48.3 53.7996C50.6 51.9996 53 50.2996 55.3 48.4996C57.6 46.6996 59.9 44.8996 62.4 43.2996L62 42.5996C58.6 45.1996 55.1 47.7996 51.7 50.3996C50.8 50.9996 50 51.7996 49.1 52.3996C48.9 52.4996 48.8 52.5996 48.6 52.6996C48.6 52.6996 48.4 52.8996 48.3 52.8996C48 52.8996 48.3 52.8996 48 52.6996C46.2 51.2996 44.5 49.6996 42.8 48.1996C42.4 47.8996 41.9 48.3996 42.3 48.6996L42.4 49.0996Z" fill="#231F20"/>
<path d="M59.3996 52.8998C56.3996 55.4998 53.3996 58.0998 50.3996 60.6998C49.9996 61.0998 49.4996 61.3998 49.0996 61.7998C49.3996 61.4998 49.8996 61.3998 50.1996 61.1998C53.1996 58.5998 56.1996 55.9998 59.1996 53.3998C59.5996 52.9998 60.0996 52.6998 60.4996 52.2998C60.1996 52.5998 59.6996 52.6998 59.3996 52.8998Z" fill="#231F20"/>
<path d="M59.1001 52.5995C55.7001 55.5995 52.3001 58.4995 48.8001 61.4995C48.5001 61.7995 48.9001 62.3995 49.3001 62.0995C49.7001 61.7995 50.1001 61.6995 50.5001 61.3995C51.0001 60.9995 51.5001 60.4995 52.0001 60.0995C53.0001 59.1995 54.0001 58.3995 55.0001 57.4995C57.0001 55.7995 58.9001 54.0995 60.9001 52.3995C61.2001 52.0995 60.8001 51.4995 60.4001 51.7995C60.0001 52.0995 59.6001 52.1995 59.3001 52.3995C58.9001 52.6995 59.3001 53.2995 59.7001 52.9995C60.0001 52.6995 60.5001 52.5995 60.8001 52.3995L60.3001 51.7995C58.4001 53.3995 56.5001 55.0995 54.6001 56.6995C53.7001 57.4995 52.7001 58.2995 51.8001 59.0995C51.3001 59.4995 50.8001 59.8995 50.4001 60.2995C50.0001 60.6995 49.5001 60.7995 49.0001 61.1995L49.5001 61.7995C52.9001 58.7995 56.3001 55.8995 59.8001 52.8995C60.2001 52.5995 59.6001 52.0995 59.3001 52.3995L59.1001 52.5995Z" fill="#231F20"/>
<path d="M59.4 60.5004C57 64.5004 54.5 68.6004 52.1 72.6004L51.1 74.3004L52.2 73.7004C49.2 71.8004 46.2 69.9004 43.1 68.1004C42.9 68.0004 42.1 68.9004 42 68.7004C45 70.6004 48 72.5004 51.1 74.3004L52.2 73.7004C54.6 69.7004 57.1 65.6004 59.5 61.6004C59.8 61.0004 60.2 60.4004 60.5 59.9004C60.3 60.2004 59.6 60.2004 59.4 60.5004Z" fill="#231F20"/>
<path d="M59.0002 60.2999C56.2002 64.8999 53.4002 69.4999 50.6002 74.0999C50.4002 74.3999 50.8002 74.7999 51.1002 74.5999L52.2002 73.9999C52.4002 73.8999 52.4002 73.4999 52.2002 73.3999C50.0002 71.9999 47.8002 70.6999 45.6002 69.2999L44.0002 68.2999C43.7002 68.0999 43.3002 67.6999 42.9002 67.6999C42.4002 67.6999 42.1002 68.3999 41.8002 68.2999C41.4002 68.2999 41.3002 68.7999 41.6002 68.9999C43.9002 70.4999 46.3002 71.8999 48.6002 73.3999C49.2002 73.7999 49.7002 74.0999 50.3002 74.4999C50.6002 74.6999 50.7002 74.7999 51.0002 74.6999C51.4002 74.5999 51.9002 74.1999 52.2002 73.8999C52.6002 73.4999 52.9002 72.6999 53.2002 72.1999L54.2002 70.4999L56.3002 67.0999C57.7002 64.7999 59.1002 62.3999 60.5002 60.0999C60.7002 59.6999 60.2002 59.2999 59.9002 59.6999C59.6002 60.0999 59.1002 59.9999 58.8002 60.2999C58.5002 60.6999 59.0002 61.1999 59.3002 60.7999C59.6002 60.4999 60.1002 60.4999 60.4002 60.1999L59.8002 59.7999C57.3002 63.8999 54.8002 67.9999 52.4002 72.0999C52.1002 72.6999 51.6002 73.9999 50.7002 73.9999C50.5002 73.9999 49.9002 73.4999 49.6002 73.2999L48.2002 72.3999C46.1002 71.0999 43.9002 69.6999 41.8002 68.3999L41.6002 69.0999C42.1002 69.0999 42.3002 68.4999 42.7002 68.5999C43.1002 68.6999 43.7002 69.1999 44.1002 69.3999L45.7002 70.3999C47.7002 71.5999 49.7002 72.8999 51.6002 74.0999V73.4999L50.5002 74.0999L51.0002 74.5999C53.8002 69.9999 56.6002 65.3999 59.4002 60.7999C59.6002 60.3999 59.0002 59.9999 58.7002 60.3999L59.0002 60.2999Z" fill="#231F20"/>
<path d="M21.2004 8.80021C19.0004 12.5002 16.9004 16.2002 14.7004 19.9002L13.8004 21.5002L14.9004 20.8002C11.6004 21.1002 8.30037 21.3002 5.00037 21.6002C4.60037 21.6002 4.30039 22.2002 3.90039 22.3002C5.60039 22.2002 7.30037 22.0002 9.00037 21.9002L12.5004 21.6002C12.9004 21.6002 13.5004 21.6002 13.9004 21.5002C15.2004 21.0002 15.6004 19.7002 16.3004 18.6002C17.5004 16.5002 18.7004 14.5002 19.9004 12.4002C20.7004 11.0002 21.6004 9.6002 22.4004 8.2002C22.2004 8.5002 21.5004 8.5002 21.3004 8.9002L21.2004 8.80021Z" fill="#231F20"/>
<path d="M20.9004 8.60006C18.4004 12.8001 15.9004 17.1001 13.4004 21.3001C13.2004 21.6001 13.6004 22.0001 13.9004 21.8001L15.0004 21.1001C15.3004 20.9001 15.2004 20.4001 14.8004 20.4001C12.7004 20.6001 10.7003 20.7001 8.60032 20.9001L5.70035 21.1001C5.40035 21.1001 5.00032 21.1001 4.60032 21.3001C4.20032 21.5001 4.10035 21.8001 3.70035 21.9001C3.30035 22.0001 3.40035 22.7001 3.70035 22.6001C6.20035 22.4001 8.70035 22.2001 11.2004 22.0001C12.1004 22.0001 13.1004 22.0001 14.0004 21.7001C14.6004 21.4001 15.1004 20.9001 15.5004 20.3001C16.7004 18.5001 17.7004 16.5001 18.7004 14.7001C19.9004 12.6001 21.2004 10.4001 22.5004 8.30006C22.7004 7.90006 22.2004 7.50006 21.9004 7.90006C21.6004 8.30006 21.1004 8.20006 20.8004 8.60006C20.5004 8.90006 21.0004 9.50006 21.3004 9.10006C21.6004 8.80006 22.1004 8.80006 22.4004 8.40006L21.8004 8.00006C19.6004 11.7001 17.3004 15.4001 15.3004 19.2001C14.9004 19.9001 14.5004 20.7001 13.7004 21.1001C12.8004 21.5001 11.5004 21.4001 10.5004 21.4001C8.20034 21.6001 6.00035 21.8001 3.70035 21.9001V22.6001C4.00035 22.6001 4.10033 22.4001 4.30033 22.3001C4.80033 22.0001 5.30037 21.9001 5.90037 21.9001L8.80033 21.7001C10.8004 21.5001 12.7003 21.4001 14.6003 21.2001L14.4004 20.5001L13.3004 21.2001L13.8004 21.7001C16.3004 17.5001 18.8004 13.2001 21.3004 9.00006C21.5004 8.60006 20.9003 8.20006 20.6003 8.60006H20.9004Z" fill="#231F20"/>
<path d="M23.6 13.6004C21.6 17.5004 19.5 21.3004 17.5 25.2004L16.6 26.9004L17.7 26.2004H7.09998C6.69998 26.2004 6.3 26.9004 6 26.9004H16.6C16.8 26.9004 17.6 26.4004 17.7 26.2004C19.7 22.3004 21.8 18.5004 23.8 14.6004L24.7 12.9004C24.5 13.2004 23.7 13.2004 23.6 13.6004Z" fill="#231F20"/>
<path d="M23.2996 13.3997C20.9996 17.7997 18.6996 22.1997 16.2996 26.5997C16.0996 26.8997 16.4996 27.2997 16.7996 27.0997L17.8996 26.3997C18.1996 26.1997 18.0996 25.6997 17.6996 25.6997H7.69955C7.39955 25.6997 7.09953 25.6997 6.79953 25.6997C6.49953 25.7997 6.29957 26.1997 5.89957 26.2997C5.49957 26.2997 5.59957 26.9997 5.89957 26.9997H13.5995C14.9995 26.9997 16.8996 27.3997 17.9996 26.1997C18.3996 25.7997 18.5996 25.0997 18.7996 24.5997L19.5995 22.9997L21.3996 19.5997C22.5996 17.3997 23.6996 15.1997 24.8996 12.8997C25.0996 12.4997 24.5996 12.0997 24.2996 12.4997C23.9996 12.8997 23.4996 12.7997 23.1996 13.1997C22.8996 13.5997 23.3996 14.0997 23.6996 13.6997C23.9996 13.3997 24.4996 13.3997 24.7996 12.9997L24.1996 12.5997C22.0996 16.5997 19.9996 20.5997 17.8996 24.5997C17.4996 25.2997 17.2996 26.0997 16.3996 26.2997C15.8996 26.3997 15.0995 26.2997 14.5995 26.2997H5.79953V26.9997C6.09953 26.9997 6.29954 26.7997 6.49954 26.6997C6.99954 26.3997 7.29957 26.3997 7.89957 26.3997H17.5995L17.3996 25.6997L16.2996 26.3997L16.7996 26.8997C19.0996 22.4997 21.3996 18.0997 23.7996 13.6997C23.9996 13.2997 23.3995 12.8997 23.0995 13.2997L23.2996 13.3997Z" fill="#231F20"/>
<path d="M26.3 18.9998C24.5 22.9998 22.7 27.0998 20.9 31.0998L20.1 32.7998L21.2 32.0998C17.1 31.8998 13 31.5998 8.90002 31.2998H7.09998C6.69998 31.1998 6.3 31.8998 6 31.7998C10.1 31.9998 14.2 32.2998 18.3 32.5998H20.1C20.3 32.6998 21.2 32.1998 21.2 32.0998C23 28.0998 24.8 23.9998 26.6 19.9998L27.4 18.2998C27.3 18.5998 26.4 18.5998 26.3 18.9998Z" fill="#231F20"/>
<path d="M25.9996 18.8C23.8996 23.4 21.8996 28 19.7996 32.6C19.5996 32.9 19.9996 33.3 20.2996 33.1L21.3996 32.4C21.6996 32.2 21.5996 31.7 21.1996 31.7C18.2996 31.5 15.3996 31.4 12.4996 31.2L8.39957 31C7.89957 31 7.39957 30.8 6.89957 31C6.49957 31.1 6.29957 31.5 5.89957 31.6C5.49957 31.6 5.59957 32.3 5.89957 32.3C8.79957 32.5 11.6995 32.6 14.5995 32.8L18.6996 33C19.5996 33 20.1996 33.1 20.8996 32.6C21.5996 32.1 21.8996 31.1 22.1996 30.3L23.8996 26.4C25.0996 23.7 26.2996 21.1 27.3996 18.5C27.5996 18.2 27.0996 17.7 26.7996 18.1C26.4996 18.5 25.9996 18.4 25.6996 18.8C25.3996 19.2 25.8996 19.7 26.1996 19.3C26.4996 19 26.9996 19 27.2996 18.6L26.6996 18.2C25.6996 20.5 24.5995 22.8 23.5995 25.2L21.9996 28.7L21.1996 30.5C20.9996 31 20.6996 31.8 20.2996 32.2C19.5996 32.8 18.2996 32.4 17.4996 32.4L13.6996 32.2C10.9996 32 8.29955 31.9 5.69955 31.7V32.4C6.09955 32.4 6.19954 32.1 6.49954 32C7.09954 31.7 7.89952 31.9 8.59952 32L12.5995 32.2C15.3995 32.4 18.0996 32.5 20.8996 32.7L20.6996 32L19.5995 32.7L20.0995 33.2C22.1995 28.6 24.1996 24 26.2996 19.4C26.4996 19 25.7995 18.6 25.5995 19L25.9996 18.8Z" fill="#231F20"/>
<path d="M27.2 27.4002C26.3 31.3002 25.3 35.3002 24.4 39.3002L25.5 38.6002C20.9 38.2002 16.3 37.7002 11.6 37.3002L9.59998 37.1002C9.29998 37.1002 8.8 37.8002 8.5 37.8002C13.1 38.2002 17.7 38.7002 22.4 39.1002L24.4 39.3002C24.5 39.3002 25.5 38.7002 25.5 38.6002C26.4 34.7002 27.4 30.7002 28.3 26.7002C28.3 27.0002 27.3 27.0002 27.2 27.4002Z" fill="#231F20"/>
<path d="M26.8 27.2996C25.9 31.1996 24.9 35.1995 24 39.1995C24 39.4995 24.3 39.7995 24.5 39.5995L25.5999 38.8996C25.8999 38.6996 25.8 38.1995 25.4 38.1995C22.2 37.8995 19 37.5996 15.8 37.2996L11.2 36.8996C10.7 36.8996 10 36.6996 9.4 36.7996C8.9 36.7996 8.69996 37.3996 8.29996 37.4996C7.89996 37.5996 7.99996 38.1995 8.29996 38.1995C11.1 38.4995 14 38.6996 16.8 38.9996L20.8 39.3996L22.8 39.5995C23.2 39.5995 23.8 39.7995 24.3 39.5995C24.7 39.5995 25.3 39.1996 25.5 38.8996C25.8 38.4996 25.8 37.7996 25.9 37.3996L26.4 35.2996C27.1 32.4996 27.7 29.6996 28.4 26.8996C28.4 26.4996 27.9 26.2995 27.7 26.5995C27.5 26.8995 26.7999 26.7996 26.5999 27.2996C26.3999 27.7996 27 28.0995 27.3 27.6995C27.5 27.3995 28.2 27.3996 28.4 26.9996L27.7 26.6995C27.1 29.1995 26.5 31.6995 25.9 34.1995C25.6 35.3995 25.3 36.5996 25 37.7996C24.9 38.2996 24.9 38.4995 24.4 38.6995C23.9 38.8995 23.5999 38.7995 23.0999 38.6995C18.0999 38.1995 13.2 37.7996 8.19998 37.2996V37.9996C8.69998 37.9996 8.79995 37.6996 9.09995 37.4996C9.69995 37.1996 10.7 37.4996 11.3 37.4996L15.9 37.8996C19 38.1996 22.0999 38.4996 25.0999 38.7996L24.9 38.0995L23.8 38.7996L24.3 39.1995C25.2 35.2995 26.1999 31.2996 27.0999 27.2996C27.1999 26.7996 26.5 26.5995 26.4 27.0995L26.8 27.2996Z" fill="#231F20"/>
<path d="M33.5 30.2996C31.8 34.2996 30.1 38.1996 28.4 42.1996C28.2 42.7996 27.9 43.2996 27.7 43.8996L28.8 43.1996C24.4 43.0996 20 42.8996 15.5 42.7996H13.6C13.2 42.7996 12.8 43.3996 12.5 43.3996C16.9 43.4996 21.3 43.6996 25.8 43.7996H27.7C27.9 43.7996 28.8 43.2996 28.8 43.1996C30.5 39.1996 32.2 35.2996 33.9 31.2996C34.1 30.6996 34.4 30.1996 34.6 29.5996C34.5 29.8996 33.6 29.8996 33.5 30.2996Z" fill="#231F20"/>
<path d="M33.1996 30.0998C31.2996 34.5998 29.2996 39.1998 27.3996 43.6998C27.2996 43.9998 27.5996 44.3998 27.8996 44.1998L28.9996 43.4998C29.2996 43.2998 29.1996 42.7998 28.7996 42.7998C25.6996 42.7998 22.6995 42.5998 19.5995 42.4998H15.0995C14.5995 42.2998 13.9996 42.1998 13.4996 42.2998C12.9996 42.2998 12.7996 42.7998 12.3996 42.9998C11.9996 43.1998 12.0996 43.6998 12.3996 43.6998C15.3996 43.6998 18.3996 43.8998 21.3996 43.9998H25.6996C26.5996 44.1998 27.4996 44.3998 28.2996 43.9998C29.0996 43.5998 29.2995 42.8998 29.5995 42.0998C30.1995 40.6998 30.7996 39.2998 31.3996 37.8998C32.4996 35.1998 33.6996 32.4998 34.7996 29.7998C34.9996 29.4998 34.4996 28.9998 34.1996 29.3998C33.8996 29.6998 33.3995 29.6998 33.0995 30.0998C32.7995 30.4998 33.2995 30.9998 33.5995 30.5998C33.8995 30.2998 34.3996 30.2998 34.6996 29.8998L34.0995 29.4998C33.0995 31.7998 32.0995 34.1998 31.0995 36.5998C30.5995 37.8998 29.9996 39.0998 29.4996 40.3998C29.0996 41.2998 28.6996 43.0998 27.7996 43.4998C26.8996 43.8998 25.4996 43.5998 24.4996 43.4998H20.3996C17.6996 43.2998 14.9996 43.1998 12.2996 43.0998V43.7998C12.6996 43.7998 12.7995 43.4998 13.0995 43.3998C13.6995 43.0998 14.5996 43.1998 15.2996 43.1998H19.7996C22.6996 43.3998 25.5995 43.4998 28.5995 43.5998L28.3996 42.8998L27.2996 43.5998L27.7996 44.0998C29.6996 39.5998 31.6995 34.9998 33.5995 30.4998C33.7995 30.0998 33.0996 29.6998 32.8996 30.0998H33.1996Z" fill="#231F20"/>
<path d="M36.8004 37.2C35.3004 41.4 33.8004 45.6 32.3004 49.8L33.4004 49.1C29.2004 48.7 25.0004 48.2 20.8004 47.8L19.0004 47.6C18.7004 47.6 18.2004 48.3 17.9004 48.3C22.1004 48.7 26.3004 49.2 30.5004 49.6L32.3004 49.8C32.4004 49.8 33.4004 49.3 33.4004 49.1C34.9004 44.9 36.4004 40.7 37.9004 36.5C37.8004 36.8 36.9004 36.8 36.8004 37.2Z" fill="#231F20"/>
<path d="M36.4004 37.1003C34.9004 41.3003 33.4004 45.5003 31.9004 49.7003C31.8004 50.0003 32.2004 50.3003 32.4004 50.1003L33.5004 49.4003C33.8004 49.2003 33.7004 48.7003 33.3004 48.7003C30.3004 48.4003 27.4004 48.1003 24.4004 47.8003L20.1004 47.4003C19.6004 47.4003 19.0004 47.2003 18.6004 47.4003C18.2004 47.5003 18.0004 48.0003 17.6004 48.0003C17.1004 48.0003 17.3004 48.7003 17.6004 48.7003C20.4004 49.0003 23.1004 49.3003 25.9004 49.6003L30.2004 50.0003C31.0004 50.0003 31.9004 50.3003 32.6004 50.0003C33.3004 49.7003 33.4004 49.3003 33.7004 48.6003C34.2004 47.3003 34.6004 46.0003 35.1004 44.7003C36.1004 42.0003 37.0004 39.4003 38.0004 36.7003C38.2004 36.3003 37.5004 36.1003 37.3004 36.4003C37.1004 36.7003 36.5004 36.7003 36.2004 37.1003C35.9004 37.5003 36.6004 37.9003 36.9004 37.5003C37.1004 37.2003 37.7004 37.2003 38.0004 36.8003L37.3004 36.5003C36.5004 38.8003 35.6004 41.2003 34.8004 43.5003C34.4004 44.7003 34.0004 45.8003 33.5004 47.0003C33.2004 47.8003 33.1004 49.0003 32.2004 49.3003C31.4004 49.6003 29.9004 49.2003 29.0004 49.1003L25.3004 48.7003L17.6004 47.9003V48.6003C18.0004 48.6003 18.1004 48.3003 18.4004 48.2003C19.0004 47.9003 19.9004 48.2003 20.5004 48.2003L24.6004 48.6003C27.4004 48.9003 30.3004 49.2003 33.1004 49.5003L32.9004 48.8003L31.8004 49.5003L32.3004 49.9003C33.8004 45.7003 35.3004 41.5003 36.8004 37.3003C37.0004 36.9003 36.2004 36.6003 36.1004 37.1003H36.4004Z" fill="#231F20"/>
<path d="M39.0998 44.8002C38.1998 48.0002 37.1998 51.2002 36.2998 54.3002L37.3998 53.7002H27.3998C26.9998 53.7002 26.5998 54.3002 26.2998 54.3002H36.2998C36.3998 54.3002 37.3998 53.8002 37.3998 53.7002C38.2998 50.5002 39.2998 47.3002 40.1998 44.2002C40.1998 44.2002 39.6998 44.5002 39.5998 44.5002C39.5998 44.5002 39.0998 44.7002 38.9998 44.8002H39.0998Z" fill="#231F20"/>
<path d="M38.8003 44.7C37.9003 47.9 36.9003 51.1 36.0003 54.2C36.0003 54.5 36.3003 54.8 36.5003 54.6L37.6002 54C37.9002 53.8 37.8004 53.3 37.4004 53.3H28.0003C27.7003 53.3 27.3003 53.3 27.0003 53.4C26.7003 53.5 26.5003 53.9 26.2003 53.9C25.8003 53.9 25.9003 54.6 26.2003 54.6H35.4004C36.1004 54.6 36.5002 54.6 37.1002 54.2C37.7002 53.9 37.7004 53.6 37.9004 53C38.2004 52 38.5003 51.1 38.8003 50.1C39.4003 48.1 40.0002 46.1 40.6002 44.1C40.6002 43.8 40.2003 43.4 40.0003 43.7C39.7003 44 39.2004 44 38.9004 44.4C38.6004 44.8 39.1004 45.3 39.4004 44.9C39.7004 44.6 40.2003 44.6 40.5003 44.2L39.9004 43.8C39.4004 45.6 38.9003 47.3 38.3003 49.1C38.1003 49.9 37.8002 50.8 37.6002 51.6C37.5002 52 37.4003 52.5 37.2003 52.9C37.1003 53.2 37.0003 53.3 36.7003 53.5C36.1003 53.8 35.4003 53.7 34.7003 53.7H26.4003V54.4C26.7003 54.4 26.9002 54.2 27.1002 54.1C27.5002 53.8 27.8003 53.8 28.3003 53.8H37.5003L37.3003 53.1L36.2003 53.7L36.7003 54.1C37.6003 50.9 38.6003 47.7 39.5003 44.6C39.6003 44.1 38.9003 43.9 38.8003 44.4V44.7Z" fill="#231F20"/>
<path d="M0.599609 13.6002C3.99961 15.0002 7.39964 16.3002 10.6996 17.7002L12.0996 18.3002C12.0996 18.3002 13.1996 17.7002 13.1996 17.6002C13.5996 13.8002 13.9996 10.0002 14.3996 6.30021C14.3996 5.80021 14.4996 5.2002 14.5996 4.7002C14.5996 4.9002 13.4996 5.10021 13.4996 5.40021C13.0996 9.20021 12.6996 13.0002 12.2996 16.7002C12.2996 17.2002 12.1996 17.8002 12.0996 18.3002L13.1996 17.6002C9.79964 16.2002 6.39961 14.9002 3.09961 13.5002L1.69964 12.9002C1.49964 12.9002 0.799609 13.6002 0.599609 13.6002Z" fill="#231F20"/>
<path d="M0.500183 14.0001C2.90018 15.0001 5.30017 16.0001 7.80017 16.9001L11.4002 18.3001C11.7002 18.4001 12.1002 18.7001 12.4002 18.6001C12.7002 18.6001 12.9002 18.3001 13.2002 18.2001C13.4002 18.2001 13.6002 18.0001 13.7002 17.8001C13.9002 17.4001 13.9002 16.7001 13.9002 16.2001C14.0002 14.9001 14.2002 13.6001 14.3002 12.3001C14.6002 9.70002 14.8002 7.10002 15.1002 4.60002C15.1002 4.20002 14.6002 4.10002 14.4002 4.40002C14.4002 4.60002 13.7002 4.60002 13.5002 4.80002C13.2002 5.00002 13.2002 5.20002 13.2002 5.50002C13.0002 6.90002 12.9002 8.40002 12.7002 9.80002C12.4002 12.6001 12.1002 15.4001 11.8002 18.2001C11.8002 18.5001 12.1002 18.6001 12.4002 18.5001L13.5002 17.8001C13.8002 17.6001 13.7002 17.2001 13.5002 17.1001C11.0002 16.1001 8.50018 15.1001 6.00018 14.0001L2.4002 12.6001C2.1002 12.5001 1.80018 12.3001 1.50018 12.5001C1.30018 12.5001 0.900195 13.1001 0.700195 13.1001C0.200195 13.1001 0.200195 13.8001 0.700195 13.9001C0.900195 13.9001 1.10017 13.8001 1.30017 13.6001C1.40017 13.6001 1.60017 13.3001 1.80017 13.2001C2.00017 13.2001 2.30018 13.4001 2.50018 13.5001L6.10016 14.9001C8.50016 15.9001 10.9002 16.9001 13.4002 17.8001V17.1001L12.2002 17.8001L12.8002 18.1001C13.1002 15.4001 13.3002 12.8001 13.6002 10.1001C13.7002 8.80002 13.9002 7.50001 14.0002 6.20001C14.0002 6.00001 14.0002 5.40001 14.1002 5.20001C14.1002 5.20001 14.4002 5.10002 14.5002 5.00002C14.7002 5.00002 15.0002 4.80002 15.2002 4.60002L14.5002 4.40002C14.3002 6.70002 14.0002 9.00002 13.8002 11.3001C13.6002 13.6001 13.6002 13.6001 13.4002 14.8001L13.2002 16.6001C13.2002 17.0001 13.2002 17.1001 13.0002 17.4001C12.7002 17.6001 12.6002 17.7001 12.3002 17.7001C11.9002 17.7001 11.3002 17.3001 10.8002 17.1001L7.4002 15.7001C5.2002 14.8001 3.1002 13.9001 0.900207 13.1001C0.400207 12.9001 0.300195 13.6001 0.700195 13.8001L0.500183 14.0001Z" fill="#231F20"/>
<path d="M43.5 78.3002C46.7 81.0002 49.9 83.7002 53.1 86.4002C53.1 86.4002 54.1 85.8002 54.2 85.8002C57.7 81.1002 61.3 76.4002 64.8 71.7002C65.3 71.0002 65.8 70.4002 66.3 69.7002C66.1 70.0002 65.4 70.0002 65.2 70.3002C61.7 75.0002 58.1 79.7002 54.6 84.4002C54.1 85.1002 53.6 85.7002 53.1 86.4002L54.2 85.8002C51 83.1002 47.8 80.4002 44.6 77.7002C44.5 77.6002 43.6 78.4002 43.5 78.3002Z" fill="#231F20"/>
<path d="M43.1996 78.5002C45.6996 80.6002 48.1996 82.8002 50.6996 84.9002C51.2996 85.4002 51.8996 86.0002 52.5996 86.5002C52.8996 86.7002 52.8996 86.7002 53.1996 86.7002C53.7996 86.7002 54.3996 86.0002 54.7996 85.5002C58.7996 80.3002 62.6996 75.0002 66.6996 69.8002C66.9996 69.4002 66.3996 69.1002 66.0996 69.4002C65.5996 69.8002 65.1996 69.8002 64.7996 70.3002C64.1996 71.0002 63.5996 71.9002 62.9996 72.6002C61.8996 74.1002 60.6996 75.6002 59.5996 77.1002C57.2996 80.1002 55.0996 83.1002 52.7996 86.1002C52.5996 86.4002 52.9996 86.8002 53.2996 86.6002L54.3996 86.0002C54.5996 85.9002 54.6996 85.6002 54.3996 85.4002C52.0996 83.4002 49.6996 81.4002 47.3996 79.4002L45.6996 78.0002C45.3996 77.8002 44.9996 77.2002 44.5996 77.2002C44.0996 77.2002 43.7996 77.8002 43.3996 77.8002C42.8996 77.8002 42.8996 78.6002 43.3996 78.6002C43.7996 78.6002 44.1996 77.9002 44.4996 78.0002C44.4996 78.0002 44.9996 78.6002 45.0996 78.6002L45.9996 79.3002L47.4996 80.6002C49.5996 82.4002 51.6996 84.2002 53.7996 86.0002V85.4002L52.7996 86.0002L53.2996 86.5002C55.4996 83.6002 57.6996 80.7002 59.7996 77.8002C60.8996 76.4002 61.9996 74.9002 63.0996 73.5002C63.5996 72.8002 64.1996 72.1002 64.6996 71.3002C65.1996 70.6002 65.7996 70.3002 66.3996 69.8002L65.7996 69.4002C62.2996 74.0002 58.8996 78.5002 55.3996 83.1002C54.8996 83.8002 53.9996 85.6002 52.9996 85.8002C52.6996 85.8002 52.1996 85.3002 51.8996 85.0002L50.1996 83.6002C47.9996 81.7002 45.6996 79.8002 43.4996 77.9002C43.0996 77.6002 42.5996 78.1002 42.9996 78.4002L43.1996 78.5002Z" fill="#231F20"/>
<path d="M41.9004 88.0003C45.7004 90.9003 49.5004 93.8003 53.3004 96.7003C53.8004 97.1003 54.4004 97.5003 54.9004 98.0003C55.0004 98.1003 55.9004 97.3003 56.0004 97.4003C52.2004 94.5003 48.4004 91.6003 44.6004 88.7003C44.1004 88.3003 43.5004 87.9003 43.0004 87.4003C42.9004 87.3003 42.0004 88.1003 41.9004 88.0003Z" fill="#231F20"/>
<path d="M41.7004 88.3C44.5004 90.4 47.2004 92.5 49.9004 94.6C51.2004 95.6 52.5004 96.6 53.8004 97.6C54.2004 97.9 54.6004 98.4 55.1004 98.2C55.3004 98.2 55.4004 98 55.5004 97.9C55.6004 97.9 56.0004 97.6 55.8004 97.6C56.2004 97.6 56.4004 97.2 56.1004 96.9C53.3004 94.8 50.6004 92.7 47.9004 90.6C46.6004 89.6 45.3004 88.6 44.0004 87.6C43.6004 87.3 43.2004 86.8 42.7004 87C42.5004 87 42.4004 87.2 42.3004 87.3C42.2004 87.3 41.8004 87.6 42.0004 87.6C41.5004 87.6 41.3004 88.2 41.8004 88.3C42.1004 88.3 42.3004 88.2 42.6004 88C42.8004 87.9 42.9004 87.7 43.0004 87.7C43.2004 87.7 43.6004 88.2 43.8004 88.4C45.1004 89.4 46.4004 90.4 47.8004 91.4C50.5004 93.5 53.1004 95.5 55.8004 97.5L56.1004 96.8C55.8004 96.8 55.6004 96.9 55.3004 97.1C55.1004 97.2 55.0004 97.4 54.9004 97.4C54.7004 97.4 54.3004 96.9 54.1004 96.7C52.8004 95.7 51.5004 94.7 50.1004 93.7C47.4004 91.6 44.8004 89.6 42.1004 87.6C41.7004 87.3 41.3004 88 41.7004 88.2V88.3Z" fill="#231F20"/>
<path d="M62.6998 82.3998C60.1998 85.5998 57.7998 88.7998 55.2998 91.9998L54.2998 93.3998C54.4998 93.0998 55.1998 93.0998 55.3998 92.7998C57.8998 89.5998 60.2998 86.3998 62.7998 83.1998L63.7998 81.7998C63.5998 82.0998 62.8998 82.0998 62.6998 82.3998Z" fill="#231F20"/>
<path d="M62.3001 82.2004L53.9001 93.1004C53.6001 93.4004 54.2001 93.9004 54.5001 93.5004C54.8001 93.2004 55.2001 93.2004 55.5001 92.9004C55.9001 92.5004 56.3001 91.9004 56.6001 91.5004C57.4001 90.4004 58.3001 89.3004 59.1001 88.3004C60.8001 86.2004 62.4001 84.0004 64.1001 81.9004C64.4001 81.6004 63.8001 81.1004 63.5001 81.5004C63.2001 81.9004 62.7001 81.8004 62.4001 82.1004C62.1001 82.5004 62.6001 83.0004 62.9001 82.6004C63.2001 82.3004 63.7001 82.3004 64.0001 82.0004L63.4001 81.6004C61.8001 83.7004 60.2001 85.8004 58.6001 87.8004C57.8001 88.8004 57.0001 89.8004 56.2001 90.9004L55.6001 91.7004C55.4001 92.0004 55.2001 92.3004 54.9001 92.5004C54.6001 92.7004 54.2001 92.7004 53.9001 93.0004L54.5001 93.4004L62.9001 82.5004C63.2001 82.1004 62.5001 81.7004 62.2001 82.1004L62.3001 82.2004Z" fill="#231F20"/>
<path d="M66.6 86.3998C63.4 90.8998 60.1 95.3998 56.9 99.7998L55.5 101.7C55.7 101.4 56.4 101.4 56.6 101.1C59.8 96.5998 63.1 92.0998 66.3 87.6998L67.7 85.7998C67.5 86.0998 66.8 86.0998 66.6 86.3998Z" fill="#231F20"/>
<path d="M66.1996 86.2002C62.4996 91.3002 58.7996 96.4002 55.0996 101.6C54.8996 102 55.3996 102.3 55.6996 102C56.0996 101.6 56.5996 101.6 56.9996 101.1C57.4996 100.4 58.0996 99.6002 58.5996 98.9002C59.6996 97.4002 60.6996 96.0002 61.7996 94.5002C63.8996 91.6002 65.9996 88.7002 67.9996 85.8002C68.1996 85.4002 67.6997 85.1002 67.3997 85.4002C67.0997 85.7002 66.5996 85.7002 66.2996 86.0002C65.9996 86.3002 66.4996 86.9002 66.7996 86.5002C67.0996 86.2002 67.5997 86.2002 67.8997 85.9002L67.2996 85.5002C65.2996 88.3002 63.2996 91.1002 61.2996 93.9002C60.2996 95.3002 59.2996 96.7002 58.2996 98.0002L56.6996 100.2C56.3996 100.6 56.0996 100.8 55.6996 101.1C55.4996 101.2 55.2996 101.3 55.1996 101.4L55.7996 101.8C59.4996 96.7002 63.1997 91.6002 66.8997 86.4002C67.1997 86.0002 66.4996 85.6002 66.1996 86.0002V86.2002Z" fill="#231F20"/>
<path d="M44.7002 98.0003C48.0002 100.4 51.3002 102.7 54.6002 105.1C55.1002 105.4 55.6002 105.8 56.0002 106.1C56.2002 106.2 57.0002 105.4 57.1002 105.5C53.8002 103.1 50.5002 100.8 47.2002 98.4003C46.7002 98.1003 46.2002 97.7003 45.8002 97.4003C45.6002 97.3003 44.8002 98.1003 44.7002 98.0003Z" fill="#231F20"/>
<path d="M44.5002 98.3004L52.0002 103.6C53.2002 104.4 54.3002 105.3 55.5002 106.1C55.8002 106.3 56.0002 106.5 56.4002 106.3C56.6002 106.3 56.7002 106.1 56.8002 106C56.8002 106 56.9002 106 57.0002 105.9C57.1002 105.8 57.2002 105.9 57.0002 105.8C57.4002 105.8 57.6002 105.4 57.3002 105.1L49.8002 99.8004C48.6002 99.0004 47.5002 98.1004 46.3002 97.3004C46.0002 97.1004 45.8002 96.9004 45.4002 97.1004C45.2002 97.1004 45.1002 97.3004 45.0002 97.4004C45.0002 97.4004 44.9002 97.4004 44.8002 97.5004C44.7002 97.6004 44.6002 97.5004 44.8002 97.6004C44.3002 97.5004 44.1002 98.2004 44.6002 98.3004C44.9002 98.3004 45.1002 98.2004 45.3002 98.1004C45.4002 98.0004 45.6002 97.8004 45.7002 97.8004C45.7002 97.8004 46.0002 98.0004 46.0002 98.1004C47.2002 98.9004 48.3002 99.8004 49.5002 100.6C51.9002 102.3 54.3002 104.1 56.8002 105.8L57.1002 105.1C56.8002 105.1 56.6002 105.2 56.4002 105.3C56.3002 105.4 56.1002 105.6 56.0002 105.6C56.0002 105.6 55.7002 105.4 55.7002 105.3C54.5002 104.5 53.4002 103.6 52.2002 102.8C49.8002 101.1 47.4002 99.3004 44.9002 97.6004C44.5002 97.3004 44.1002 98.0004 44.5002 98.2004V98.3004Z" fill="#231F20"/>
<path d="M42.7002 102C46.9002 105.4 51.0002 108.7 55.1002 112.1L56.9002 113.6C56.9002 113.6 57.9002 113 58.0002 113C60.4002 110.1 62.7002 107.3 65.1002 104.4C64.9002 104.7 64.2002 104.7 64.0002 105C61.6002 107.9 59.3002 110.7 56.9002 113.6L58.0002 113C53.8002 109.6 49.7002 106.3 45.6002 102.9L43.8002 101.4C43.7002 101.3 42.8002 102.1 42.7002 102Z" fill="#231F20"/>
<path d="M42.4002 102.3C47.0002 106 51.6002 109.8 56.2002 113.5C56.8002 114 56.9002 114.1 57.6002 113.7C58.5002 113.2 59.0002 112.4 59.6002 111.7C61.5002 109.3 63.5002 107 65.4002 104.6C65.7002 104.2 65.2002 103.8 64.9002 104.1C64.6002 104.3 64.3002 104.4 64.0002 104.6C63.6002 104.9 63.3002 105.4 63.0002 105.8C62.3002 106.6 61.7002 107.4 61.0002 108.2C59.6002 109.9 58.2002 111.6 56.7002 113.4C56.4002 113.7 56.7002 114.2 57.2002 114L58.3002 113.4C58.5002 113.3 58.6002 113 58.3002 112.8C55.1002 110.2 52.0002 107.7 48.8002 105.1C47.3002 103.9 45.8002 102.7 44.4002 101.5C44.1002 101.2 44.0002 101.1 43.6002 101.2C43.3002 101.2 43.0002 101.8 42.7002 101.8C42.2002 101.8 42.2002 102.6 42.7002 102.6C43.0002 102.6 43.2002 102.4 43.4002 102.2C43.4002 102.2 43.6002 102.1 43.6002 102C43.7002 101.9 43.8002 101.9 43.8002 102C44.1002 102 44.5002 102.6 44.7002 102.7L48.9002 106.1C51.8002 108.5 54.8002 110.9 57.7002 113.2V112.6L56.7002 113.2L57.2002 113.8C58.6002 112.1 60.0002 110.4 61.5002 108.6C62.2002 107.8 62.8002 107 63.5002 106.2C63.9002 105.7 64.3002 105.2 64.9002 104.9C65.1002 104.8 65.3002 104.7 65.5002 104.5L65.0002 104C63.3002 106.1 61.6002 108.1 59.9002 110.2C59.2002 111.1 58.5002 112.2 57.6002 112.8C57.6002 112.8 57.3002 113 57.2002 113C56.9002 113 57.2002 113 56.9002 112.9C56.4002 112.6 56.0002 112.2 55.6002 111.8C51.4002 108.4 47.3002 105.1 43.2002 101.7C42.8002 101.4 42.3002 101.9 42.7002 102.2L42.4002 102.3Z" fill="#231F20"/>
<path d="M41.9004 117.5C46.6004 119.9 51.2004 122.2 55.9004 124.6C56.6004 124.9 57.2004 125.3 57.9004 125.6C58.1004 125.7 58.8004 124.8 59.0004 125C54.3004 122.6 49.7004 120.3 45.0004 117.9C44.3004 117.6 43.7004 117.2 43.0004 116.9C42.8004 116.8 42.1004 117.7 41.9004 117.5Z" fill="#231F20"/>
<path d="M41.7004 117.8C45.0004 119.5 48.4004 121.2 51.7004 122.9L56.5004 125.3C56.9004 125.5 57.5004 126 58.0004 125.9C58.3004 125.9 58.7004 125.3 58.9004 125.3C59.3004 125.3 59.4004 124.8 59.1004 124.6C55.8004 122.9 52.4004 121.2 49.1004 119.5L44.3004 117.1C43.9004 116.9 43.3004 116.4 42.8004 116.5C42.5004 116.5 42.1004 117.1 41.9004 117.1C41.4004 117.1 41.4004 117.8 41.9004 117.9C42.3004 117.9 42.4004 117.6 42.7004 117.5C43.1004 117.3 43.2004 117.5 43.7004 117.7L44.8004 118.3L49.4004 120.6C52.5004 122.2 55.7004 123.8 58.8004 125.4L59.0004 124.7C58.6004 124.7 58.5004 125 58.2004 125.1C57.8004 125.3 57.7004 125.1 57.2004 124.9L56.1004 124.3L51.5004 122C48.4004 120.4 45.2004 118.8 42.1004 117.2C41.7004 117 41.3004 117.6 41.7004 117.8Z" fill="#231F20"/>
<path d="M47.7002 125.6C50.7002 127.5 53.8002 129.3 56.8002 131.2C57.2002 131.5 57.7002 131.7 58.1002 132C58.1002 132 58.6002 131.7 58.7002 131.7C58.8002 131.7 59.2002 131.3 59.3002 131.4C56.3002 129.5 53.2002 127.7 50.2002 125.8C49.8002 125.5 49.3002 125.3 48.9002 125C48.9002 125 48.4002 125.3 48.3002 125.3C48.2002 125.3 47.8002 125.7 47.7002 125.6Z" fill="#231F20"/>
<path d="M47.5002 126C49.9002 127.4 52.2002 128.9 54.6002 130.4L56.4002 131.5L57.2002 132C57.4002 132.1 57.7002 132.4 58.0002 132.5C58.3002 132.5 58.5002 132.5 58.8002 132.3C58.8002 132.3 59.0002 132.2 59.0002 132.1C59.0002 132.1 59.5002 131.9 59.3002 131.9C59.6002 131.9 59.8002 131.4 59.5002 131.2C57.1002 129.8 54.8002 128.3 52.4002 126.8L50.6002 125.7L49.8002 125.2C49.6002 125.1 49.3002 124.8 49.0002 124.7C48.7002 124.7 48.5002 124.7 48.2002 124.9C48.2002 124.9 48.0002 125 48.0002 125.1C48.0002 125.1 47.5002 125.3 47.7002 125.3C47.2002 125.3 47.2002 126.1 47.7002 126.1C48.0002 126.1 48.2002 125.9 48.4002 125.8C48.4002 125.8 48.6002 125.7 48.7002 125.6C48.7002 125.6 48.8002 125.5 48.9002 125.5C48.9002 125.5 48.9002 125.5 48.9002 125.6C49.0002 125.8 49.6002 126 49.7002 126.1L50.5002 126.6L52.3002 127.7C54.6002 129.1 56.8002 130.5 59.1002 131.9L59.3002 131.2C59.0002 131.2 58.8002 131.4 58.6002 131.5C58.6002 131.5 58.4002 131.6 58.3002 131.7C58.3002 131.7 58.2002 131.8 58.1002 131.8C58.1002 131.8 58.1002 131.8 58.1002 131.7C58.0002 131.5 57.4002 131.3 57.3002 131.2L56.5002 130.7L54.7002 129.6C52.4002 128.2 50.2002 126.8 47.9002 125.4C47.5002 125.2 47.1002 125.8 47.5002 126Z" fill="#231F20"/>
<path d="M47.6996 131.3C50.7996 134.7 53.8996 138 56.9996 141.4L58.2996 142.8L59.3996 142.2C61.4996 132.3 64.8996 122.6 69.7996 113.6C73.5996 106.5 78.2996 99.9004 83.6996 93.9004C87.6996 89.5004 92.0996 85.5004 96.7996 81.9004C98.3996 80.7004 99.9996 79.6004 101.7 78.5004C102 78.3004 102.3 78.1004 102.6 77.9004C102.7 77.9004 102.8 77.8004 103 77.7004C103.1 77.7004 103.2 77.6004 103.1 77.7004C103.1 77.7004 103.2 77.7004 103.3 77.6004C103.4 77.6004 103.6 77.5004 103.7 77.4004C103.8 77.3004 103.9 77.3004 104.1 77.2004C104.5 77.0004 104.9 76.8004 105.2 76.5004C105.4 76.3004 105.6 75.9004 105.8 75.6004C107.6 73.2004 109.3 70.9004 111 68.5004L111.4 67.9004C111.2 68.2004 110.5 68.2004 110.3 68.5004C108.2 71.4004 106.1 74.2004 104 77.1004L105.1 76.5004C103.7 77.2004 102.3 78.1004 100.9 78.9004C97.7996 80.8004 94.8996 83.0004 92.0996 85.3004C87.7996 88.9004 83.7996 92.8004 80.1996 97.1004C75.5996 102.6 71.5996 108.5 68.1996 114.9C64.1996 122.6 61.0996 130.8 58.9996 139.2C58.6996 140.4 58.3996 141.6 58.1996 142.8L59.2996 142.2C56.1996 138.8 53.0996 135.5 49.9996 132.1L48.6996 130.7C48.6996 130.7 47.5996 131.4 47.5996 131.3H47.6996Z" fill="#231F20"/>
<path d="M47.5004 131.6C51.1004 135.5 54.6004 139.3 58.2004 143.2C58.3004 143.3 58.5004 143.3 58.7004 143.2C59.1004 143 59.6004 142.8 59.9004 142.5C60.1004 142.2 60.1004 141.8 60.2004 141.4C60.4004 140.7 60.5004 139.9 60.7004 139.2C61.4004 136.5 62.1004 133.8 63.0004 131.1C64.7004 125.8 66.8004 120.6 69.4004 115.6C74.4004 105.8 81.0004 96.7996 89.0004 89.2996C93.4004 85.0996 98.3004 81.1996 103.6 78.0996C104 77.8996 103.6 77.1996 103.2 77.4996C102.8 77.6996 103.2 78.3996 103.6 78.0996C104.3 77.6996 105 77.4996 105.6 76.9996C106.4 76.3996 107 75.2996 107.6 74.4996C109.2 72.3996 110.7 70.2996 112.3 68.1996C112.6 67.7996 112 67.4996 111.7 67.7996C111.1 68.2996 110.7 68.2996 110.2 68.8996C109.5 69.7996 108.9 70.6996 108.2 71.5996C106.9 73.3996 105.5 75.1996 104.2 77.0996C104 77.3996 104.4 77.7996 104.7 77.5996L105.8 76.9996C106.2 76.7996 105.8 76.0996 105.4 76.3996C95.7004 81.2996 87.2004 88.9996 80.2004 97.2996C73.3004 105.5 67.8004 114.8 63.8004 124.8C61.5004 130.7 59.6004 136.7 58.3004 142.9C58.3004 143.2 58.6004 143.5 58.8004 143.3L59.9004 142.7C60.1004 142.6 60.1004 142.3 59.9004 142.1C57.4004 139.5 55.0004 136.8 52.6004 134.2L50.9004 132.4C50.5004 131.9 49.7004 130.8 49.1004 130.5C48.5004 130.2 48.2004 131 47.7004 131.1C47.2004 131.2 47.4004 131.9 47.9004 131.8C48.1004 131.8 48.3004 131.6 48.5004 131.4C48.7004 131.3 48.7004 131.2 48.9004 131.3L49.6004 132.1L52.8004 135.5C55.0004 137.9 57.1004 140.2 59.3004 142.5V141.9L58.3004 142.5L58.8004 142.9C63.4004 121.6 74.1004 101.9 90.5004 87.3996C95.1004 83.3996 100.1 79.5996 105.6 76.7996L105.2 76.1996L104.1 76.7996L104.6 77.2996L108.4 72.1996C109 71.3996 109.6 70.5996 110.1 69.8996C110.6 69.1996 111.3 68.7996 112 68.1996L111.4 67.7996C110 69.5996 108.7 71.4996 107.3 73.2996C106.6 74.1996 106 75.1996 105.3 75.9996C104.7 76.6996 103.8 76.9996 103 77.3996C84.6004 88.2996 70.8004 106.9 63.5004 126.8C62.5004 129.7 61.5004 132.5 60.7004 135.5C60.3004 137 59.9004 138.4 59.6004 139.9C59.5004 140.4 59.4004 141.7 59.0004 142.1C58.8004 142.3 58.4004 142.4 58.2004 142.6H58.7004C55.1004 138.8 51.6004 135 48.0004 131.1C47.7004 130.7 47.1004 131.3 47.5004 131.6Z" fill="#231F20"/>
<path d="M47.7002 142.8C50.8002 146.1 53.9002 149.4 57.0002 152.7C57.5002 153.2 57.9002 153.7 58.3002 154.1C58.3002 154.1 59.3002 153.5 59.4002 153.5C62.4002 150.4 65.3002 147.3 68.3002 144.2C68.7002 143.8 69.2002 143.3 69.6002 142.9C69.3002 143.2 68.8002 143.3 68.5002 143.5C65.5002 146.6 62.6002 149.7 59.6002 152.8C59.2002 153.2 58.7002 153.7 58.3002 154.1L59.4002 153.5C56.3002 150.2 53.2002 146.9 50.1002 143.6C49.6002 143.1 49.2002 142.6 48.8002 142.2C48.8002 142.2 47.7002 142.9 47.7002 142.8Z" fill="#231F20"/>
<path d="M47.4996 143.1C51.0996 146.9 54.5996 150.7 58.1996 154.5C58.1996 154.6 58.3996 154.6 58.5996 154.6C59.0996 154.5 59.5996 154.1 59.9996 153.7C61.1996 152.6 62.2996 151.3 63.3996 150.1C65.5996 147.8 67.7996 145.5 69.9996 143.2C70.2996 142.9 69.9996 142.3 69.4996 142.6C68.9996 142.9 68.6996 143 68.3996 143.2C67.8996 143.6 67.5996 144.1 67.0996 144.5C66.0996 145.6 64.9996 146.7 63.9996 147.7C61.9996 149.7 60.0996 151.8 58.0996 153.8C57.7996 154.1 58.0996 154.6 58.5996 154.4L59.6996 153.8C59.8996 153.7 59.8996 153.4 59.6996 153.2C57.1996 150.6 54.7996 148 52.2996 145.3L50.4996 143.4C50.0996 143 49.4996 142 48.9996 141.8C48.3996 141.5 48.0996 142.3 47.5996 142.4C47.0996 142.4 47.2996 143.2 47.7996 143.1C47.9996 143.1 48.2996 142.9 48.3996 142.7C48.3996 142.7 48.6996 142.4 48.7996 142.4C48.5996 142.4 49.3996 143.2 49.2996 143.2C50.3996 144.3 51.4996 145.5 52.4996 146.7C54.6996 149.1 56.8996 151.4 59.0996 153.8V153.2L58.0996 153.8L58.5996 154.4C60.4996 152.5 62.2996 150.5 64.1996 148.6C65.0996 147.6 66.0996 146.6 66.9996 145.7C67.4996 145.2 67.9996 144.7 68.4996 144.2C68.8996 143.8 69.3996 143.6 69.7996 143.3L69.2996 142.7C67.4996 144.6 65.6996 146.5 63.7996 148.4L60.7996 151.5C60.0996 152.3 59.3996 153.1 58.4996 153.7C58.0996 153.9 58.1996 153.9 57.8996 153.5C57.4996 153 56.8996 152.5 56.4996 152C55.4996 151 54.5996 150 53.5996 149C51.5996 146.9 49.6996 144.8 47.6996 142.8C47.3996 142.4 46.7996 143 47.1996 143.3L47.4996 143.1Z" fill="#231F20"/>
<path d="M46 155.7C49.5 158.5 53 161.2 56.4 164C56.9 164.4 57.4 164.8 57.9 165.2C57.9 165.2 58.9 164.6 59 164.6C61.5 162.4 63.9 160.1 66.3 157.9C66 158.2 65.5 158.3 65.2 158.5C62.7 160.7 60.3 163 57.9 165.2L59 164.6C55.5 161.8 52 159.1 48.6 156.3C48.1 155.9 47.6 155.5 47.1 155.1C47 155 46.1 155.8 46 155.7Z" fill="#231F20"/>
<path d="M45.7002 156C47.7002 157.6 49.8002 159.3 51.9002 160.9L54.9002 163.3L56.5002 164.5C56.8002 164.8 57.3002 165.4 57.8002 165.5C58.8002 165.8 60.3002 163.9 60.8002 163.4C62.8002 161.6 64.7002 159.8 66.7002 158C67.0002 157.7 66.6002 157.2 66.2002 157.4C65.6002 157.8 65.0002 158.1 64.4002 158.6C63.7002 159.3 62.9002 159.9 62.2002 160.6C60.7002 162 59.2002 163.4 57.7002 164.8C57.4002 165.1 57.7002 165.6 58.2002 165.4L59.3002 164.8C59.5002 164.7 59.6002 164.4 59.3002 164.2C56.6002 162.1 53.9002 159.9 51.3002 157.8L49.3002 156.2C48.8002 155.8 48.1002 155 47.5002 154.8C47.3002 154.8 47.2002 154.7 47.0002 154.8C46.7002 154.8 46.3002 155.4 46.1002 155.4C45.6002 155.4 45.6002 156.2 46.1002 156.2C46.4002 156.2 46.6002 156 46.8002 155.9C46.8002 155.9 47.2002 155.6 47.3002 155.6L47.9002 156.2C49.1002 157.2 50.3002 158.1 51.5002 159.1C54.0002 161.1 56.5002 163 58.9002 165V164.4L57.9002 165L58.4002 165.6C59.8002 164.3 61.2002 163 62.7002 161.7C63.4002 161.1 64.1002 160.5 64.8002 159.8C65.2002 159.5 65.5002 159 66.0002 158.8C66.3002 158.6 66.6002 158.5 66.9002 158.3L66.4002 157.7C64.7002 159.2 63.1002 160.7 61.4002 162.3C60.6002 163 59.9002 163.8 59.0002 164.5C58.8002 164.6 58.5002 164.9 58.3002 164.9C58.1002 164.9 57.7002 164.5 57.4002 164.3C53.8002 161.4 50.2002 158.5 46.5002 155.6C46.1002 155.3 45.6002 155.8 46.0002 156.1L45.7002 156Z" fill="#231F20"/>
<path d="M47.7002 165.2C50.5002 167.9 53.4002 170.6 56.2002 173.3C56.6002 173.7 57.0002 174.1 57.4002 174.5C57.4002 174.5 58.4002 173.8 58.5002 173.9C55.7002 171.2 52.8002 168.5 50.0002 165.8C49.6002 165.4 49.2002 165 48.8002 164.6C48.8002 164.6 47.8002 165.3 47.7002 165.2Z" fill="#231F20"/>
<path d="M47.4998 165.5C49.6998 167.6 51.7998 169.6 53.9998 171.7C54.9998 172.7 55.9998 173.8 57.1998 174.7C57.4998 174.9 57.6998 174.9 57.9998 174.7C58.0998 174.7 58.2998 174.5 58.3998 174.4C58.3998 174.4 58.5998 174.3 58.5998 174.2C58.7998 174.2 58.6998 174.1 58.5998 174.2C58.8998 174.2 59.2998 173.8 58.9998 173.6C56.7998 171.5 54.6998 169.5 52.4998 167.4C51.4998 166.4 50.4998 165.3 49.2998 164.4C48.9998 164.2 48.7998 164.2 48.4998 164.4C48.3998 164.4 48.1998 164.6 48.0998 164.7C48.0998 164.7 47.8998 164.8 47.8998 164.9C47.7998 165 47.6998 164.9 47.8998 164.9C47.3998 164.8 47.1998 165.5 47.6998 165.6C47.9998 165.6 48.1998 165.5 48.3998 165.4C48.4998 165.3 48.6998 165.2 48.7998 165.1C48.7998 165.1 48.8998 165 48.9998 165C48.7998 165 48.7998 165 48.9998 165.2C49.1998 165.5 49.4998 165.7 49.7998 165.9L50.5998 166.6L52.1998 168.2C54.2998 170.2 56.3998 172.2 58.3998 174.2L58.7998 173.6C58.4998 173.6 58.2998 173.7 58.0998 173.8C57.9998 173.9 57.7998 174 57.6998 174.1C57.6998 174.1 57.5998 174.2 57.4998 174.2C57.6998 174.2 57.6998 174.2 57.4998 174C57.2998 173.7 56.9998 173.5 56.6998 173.3L55.8998 172.6L54.2998 171C52.1998 169 50.0998 167 48.0998 165C47.7998 164.7 47.1998 165.2 47.5998 165.5H47.4998Z" fill="#231F20"/>
<path d="M103.5 68.6002C103.6 69.9002 103.7 71.1001 103.8 72.4001L104 75.3002V76.3002C104.1 76.5002 104 76.8002 104.2 77.1002C104.4 77.4002 104.3 77.2002 104.6 77.3002L106.4 77.5002L112 78.1002C113.2 78.2002 114.5 78.3002 115.8 78.5002C115.9 78.5002 116.2 78.3002 116.4 78.2002C116.6 78.1002 116.8 77.9001 117 77.9001C114.1 77.6001 111.1 77.3002 108.2 77.0002L106.1 76.8002C105.9 76.8002 105.5 76.8002 105.4 76.8002C105.4 76.8002 105.4 76.5001 105.4 76.4001V75.4001L105.1 72.7002C105 71.2002 104.9 69.7002 104.7 68.2002C104.7 68.4002 103.6 68.6002 103.6 68.8002L103.5 68.6002Z" fill="#231F20"/>
<path d="M103.1 68.5998C103.3 70.6998 103.5 72.7998 103.6 74.8998C103.6 75.3998 103.6 75.9998 103.7 76.4998C103.7 76.7998 103.7 77.0998 103.9 77.3998C104 77.5998 104.2 77.5998 104.4 77.5998C104.9 77.5998 105.4 77.5998 105.9 77.6998C108 77.8998 110.1 78.0998 112.3 78.2998C113.3 78.3998 114.3 78.4998 115.3 78.5998C115.7 78.5998 115.9 78.5998 116.3 78.4998C116.5 78.3998 116.8 78.0998 117 77.9998C117.4 77.8998 117.3 77.2998 117 77.2998C113.5 76.8998 110.1 76.5998 106.6 76.2998C106.4 76.2998 105.9 76.2998 105.7 76.2998C105.7 76.1998 105.7 75.8998 105.7 75.6998L105.5 73.3998C105.3 71.5998 105.2 69.7998 105.1 68.0998C105.1 67.6998 104.5 67.5998 104.4 67.9998C104.4 67.7998 104.2 67.9998 104.1 67.9998C104 67.9998 103.8 68.0998 103.7 68.1998C103.5 68.2998 103.3 68.3998 103.3 68.5998C103.1 69.0998 103.9 69.2998 104 68.7998C104 68.9998 104.2 68.7998 104.3 68.7998C104.4 68.7998 104.6 68.6998 104.7 68.5998C104.9 68.4998 105.1 68.3998 105.1 68.1998H104.4C104.6 69.9998 104.7 71.9998 104.9 73.8998C104.9 74.7998 105 75.5998 105.1 76.3998C105.1 76.8998 105.4 76.9998 105.8 76.9998C109.6 77.2998 113.3 77.6998 117.1 78.0998V77.3998C116.8 77.3998 116.6 77.5998 116.4 77.6998C116.1 77.8998 115.9 77.9998 115.5 77.8998C114.6 77.8998 113.7 77.6998 112.9 77.5998C111 77.3998 109.1 77.1998 107.2 76.9998H105.9C105.6 76.7998 105.4 76.7998 105.1 76.7998H104.8C104.6 76.7998 104.6 76.7998 104.7 76.6998C104.7 76.6998 104.7 76.3998 104.7 76.1998C104.7 75.9998 104.7 75.6998 104.7 75.3998V74.0998C104.4 72.1998 104.3 70.2998 104.1 68.4998C104.1 67.9998 103.3 67.9998 103.3 68.4998L103.1 68.5998Z" fill="#231F20"/>
<path d="M95.8998 72.2998C95.8998 74.0998 95.8998 75.8998 95.8998 77.7998V81.2998C95.8998 81.4998 95.8998 82.2998 95.9998 82.4998C96.1998 82.6998 97.1998 82.4998 97.4998 82.4998H100.6C100.6 82.5998 108.2 82.9998 108.2 82.9998C109.8 82.9998 111.4 83.0998 113 83.1998C113.4 83.1998 113.8 82.4998 114.1 82.5998C110.2 82.3998 106.4 82.2998 102.5 82.0998H99.1998C98.5998 81.8998 97.7998 82.0998 97.2998 81.8998C96.9998 81.7998 97.0998 81.6998 97.0998 81.2998V78.1998C97.0998 76.0998 96.9998 73.8998 96.8998 71.7998C96.8998 71.9998 95.7998 72.1998 95.7998 72.3998L95.8998 72.2998Z" fill="#231F20"/>
<path d="M95.6004 72.2996C95.6004 75.2996 95.8004 78.2996 95.8004 81.2996C95.8004 81.7996 95.6004 82.4996 96.1004 82.7996C96.6004 83.0996 97.9004 82.7996 98.5004 82.8996C101.4 82.9996 104.3 83.0996 107.2 83.2996L111.4 83.4996C112 83.4996 112.7 83.6996 113.2 83.4996C113.7 83.4996 113.9 82.8996 114.3 82.8996C114.7 82.8996 114.6 82.1996 114.3 82.1996C109.8 81.9996 105.2 81.7996 100.7 81.5996C99.8004 81.5996 98.8004 81.6996 98.0004 81.5996C97.4004 81.4996 97.7004 80.6996 97.6004 80.1996V78.5996C97.6004 76.2996 97.5004 73.9996 97.4004 71.6996C97.4004 71.2996 96.9004 71.1996 96.7004 71.4996C96.6004 71.7996 95.8004 71.6996 95.6004 72.0996C95.4004 72.4996 96.0004 72.8996 96.3004 72.4996C96.5004 72.1996 97.2004 72.2996 97.4004 71.8996L96.7004 71.6996C96.7004 74.2996 96.7004 76.8996 96.8004 79.4996C96.8004 80.0996 96.8004 80.6996 96.8004 81.1996C96.8004 81.3996 96.8004 81.6996 96.8004 81.8996C97.2004 82.4996 98.3004 82.2996 98.8004 82.2996C101.2 82.2996 103.7 82.4996 106.1 82.5996C108.8 82.6996 111.4 82.7996 114.1 82.8996V82.1996C113.7 82.1996 113.5 82.4996 113.3 82.5996C112.7 82.8996 111.9 82.7996 111.3 82.6996L107.6 82.4996C105 82.3996 102.4 82.2996 99.8004 82.1996C98.8004 82.1996 97.8004 82.0996 96.9004 82.1996C96.4004 82.1996 96.3004 82.1996 96.3004 81.5996C96.3004 81.1996 96.3004 80.6996 96.3004 80.1996C96.3004 77.5996 96.3004 74.8996 96.2004 72.2996C96.2004 71.7996 95.4004 71.7996 95.4004 72.2996H95.6004Z" fill="#231F20"/>
<path d="M87.6996 79.8002C87.6996 81.2002 87.8996 82.6002 87.8996 84.1002L88.0996 87.1002V88.2002C88.0996 88.4002 88.0996 88.8001 88.0996 88.9001C88.0996 89.1001 88.3996 89.0002 88.5996 89.0002H90.6996L96.7996 89.4001L101 89.6002C101.4 89.6002 101.8 88.9002 102.1 89.0002L92.4996 88.6002H90.0996C89.9996 88.5002 89.2996 88.6002 89.1996 88.5002C88.9996 88.4002 89.1996 87.4002 89.1996 87.2002L88.9996 84.3002C88.9996 82.6002 88.7996 80.9002 88.6996 79.2002C88.6996 79.4002 87.5996 79.6002 87.5996 79.8002H87.6996Z" fill="#231F20"/>
<path d="M87.2998 79.8001C87.3998 82.1001 87.5998 84.5001 87.6998 86.8001C87.6998 87.3001 87.6998 87.8001 87.6998 88.3001C87.6998 88.6001 87.6998 88.9001 87.6998 89.1001C87.6998 89.3001 88.0998 89.4001 88.3998 89.4001C88.8998 89.4001 89.4998 89.4001 90.0998 89.4001L96.8998 89.7001H100.2C100.6 89.9001 101 89.9001 101.3 89.8001C101.6 89.7001 101.9 89.3001 102.2 89.2001C102.6 89.2001 102.5 88.5001 102.2 88.5001C98.2998 88.3001 94.3998 88.1001 90.4998 88.0001C90.2998 88.0001 89.9998 88.0001 89.6998 88.0001C89.3998 88.0001 89.4998 87.9001 89.4998 87.5001C89.4998 86.7001 89.4998 85.9001 89.4998 85.1001C89.3998 83.1001 89.2998 81.1001 89.1998 79.0001C89.1998 78.6001 88.5998 78.5001 88.4998 78.9001C88.4998 78.8001 87.9998 79.0001 87.7998 79.1001C87.5998 79.2001 87.4998 79.3001 87.3998 79.5001C87.1998 80.0001 87.9998 80.1001 88.0998 79.7001C88.0998 79.9001 88.3998 79.7001 88.4998 79.7001C88.5998 79.7001 88.6998 79.7001 88.7998 79.6001C88.9998 79.5001 89.0998 79.4001 89.1998 79.2001H88.4998C88.5998 81.4001 88.7998 83.6001 88.8998 85.9001C88.8998 86.6001 88.8998 87.4001 88.8998 88.1001C88.8998 88.6001 89.1998 88.8001 89.6998 88.8001C93.8998 88.8001 97.9998 89.1001 102.2 89.3001V88.6001C101.9 88.6001 101.7 88.8001 101.5 88.9001C101.1 89.2001 100.8 89.2001 100.3 89.2001H97.2998C97.2998 89.1001 91.1998 88.8001 91.1998 88.8001H89.8998C89.6998 88.8001 88.6998 88.8001 88.5998 88.7001C88.5998 88.6001 88.5998 87.9001 88.5998 87.7001V86.1001C88.3998 84.0001 88.2998 82.0001 88.0998 79.9001C88.0998 79.4001 87.2998 79.4001 87.2998 79.9001V79.8001Z" fill="#231F20"/>
<path d="M80.0996 83.1V97.5C80.0996 97.3 81.1996 97.1 81.1996 96.9V82.5C81.1996 82.7 80.0996 82.9 80.0996 83.1Z" fill="#231F20"/>
<path d="M79.6996 83.1002V97.5002C79.6996 97.8002 80.1996 98.1002 80.3996 97.7002C80.3996 97.5002 81.0996 97.4002 81.2996 97.3002C81.5996 97.0002 81.5995 96.7002 81.5995 96.3002V82.5002C81.5995 82.2002 81.0996 81.9002 80.8996 82.3002C80.8996 82.4002 80.2995 82.5002 80.0995 82.6002C79.8995 82.7002 79.7996 82.8002 79.6996 83.0002C79.4996 83.4002 80.1996 83.6002 80.3996 83.2002C80.3996 83.2002 80.8995 83.1002 81.0995 83.0002C81.2995 83.0002 81.3996 82.8002 81.4996 82.7002L80.7996 82.5002V95.7002C80.7996 95.9002 80.8996 96.6002 80.7996 96.8002C80.7996 96.8002 80.4996 96.9002 80.3996 97.0002C80.1996 97.1002 79.8996 97.2002 79.7996 97.4002L80.4996 97.6002V83.2002C80.4996 82.7002 79.6996 82.7002 79.6996 83.2002V83.1002Z" fill="#231F20"/>
<path d="M82.7998 94.4998C87.3998 94.7998 91.9998 95.0998 96.5998 95.3998H98.5998C98.9998 95.5998 99.3998 94.8998 99.6998 94.8998C95.0998 94.5998 90.4998 94.2998 85.8998 93.9998H83.8998C83.4998 93.7998 83.0998 94.4998 82.7998 94.4998Z" fill="#231F20"/>
<path d="M82.8004 94.8996C85.9004 95.0996 89.1004 95.2996 92.2004 95.4996L96.9004 95.7996C97.5004 95.7996 98.2004 95.9996 98.8004 95.7996C99.2004 95.6996 99.4004 95.1996 99.8004 95.1996C100.2 95.1996 100.1 94.4996 99.8004 94.4996C96.7004 94.2996 93.5004 94.0996 90.4004 93.8996L85.7004 93.5996C85.1004 93.5996 84.4004 93.3996 83.8004 93.5996C83.4004 93.6996 83.2004 94.1996 82.8004 94.1996C82.3004 94.1996 82.5004 94.9996 83.0004 94.8996C83.4004 94.8996 83.6004 94.4996 83.9004 94.2996C84.2004 94.1996 84.7004 94.2996 85.0004 94.2996H86.3004L90.7004 94.6996C93.7004 94.8996 96.7004 95.0996 99.7004 95.2996V94.5996C99.2004 94.5996 99.0004 94.9996 98.7004 95.1996C98.4004 95.2996 97.9004 95.1996 97.6004 95.1996H96.3004L91.9004 94.7996C88.9004 94.5996 85.9004 94.3996 82.9004 94.1996C82.4004 94.1996 82.4004 94.8996 82.9004 94.9996L82.8004 94.8996Z" fill="#231F20"/>
<path d="M76 102.8H90.7C91.1 102.8 91.5 102.2 91.8 102.2H77.1C76.7 102.2 76.3 102.8 76 102.8Z" fill="#231F20"/>
<path d="M75.9996 103.2H89.0996C89.5996 103.2 90.2996 103.3 90.8996 103.2C91.2996 103.1 91.4996 102.7 91.8996 102.6C92.2996 102.6 92.1996 101.9 91.8996 101.9H78.7996C78.2996 101.9 77.5996 101.8 76.9996 101.9C76.5996 102 76.3996 102.4 75.9996 102.5C75.4996 102.5 75.6996 103.3 76.1996 103.2C76.5996 103.2 76.7996 102.8 77.0996 102.6C77.6996 102.4 78.6996 102.6 79.2996 102.6H91.7996V101.9C91.2996 101.9 91.0996 102.3 90.7996 102.5C90.1996 102.7 89.1996 102.5 88.5996 102.5H76.0996C75.5996 102.5 75.5996 103.3 76.0996 103.3L75.9996 103.2Z" fill="#231F20"/>
<path d="M72.2002 94.1V108.5C72.2002 108.3 73.3002 108.1 73.3002 107.9V93.5C73.3002 93.7 72.2002 93.9 72.2002 94.1Z" fill="#231F20"/>
<path d="M71.8002 94.1002V108.5C71.8002 108.8 72.3002 109.1 72.5002 108.7C72.5002 108.5 73.2002 108.4 73.4002 108.3C73.7002 108 73.7002 107.7 73.7002 107.3V93.5002C73.7002 93.2002 73.2002 92.9002 73.0002 93.3002C73.0002 93.4002 72.4002 93.5002 72.2002 93.6002C72.0002 93.7002 71.9002 93.8002 71.8002 94.0002C71.6002 94.4002 72.3002 94.6002 72.5002 94.2002C72.5002 94.2002 73.0002 94.1002 73.2002 94.0002C73.4002 94.0002 73.5001 93.8002 73.6001 93.7002L72.9002 93.5002V106.7C72.9002 106.9 73.0002 107.6 72.9002 107.7C72.9002 107.7 72.6002 107.8 72.5002 107.9C72.3002 108 72.0002 108.1 71.9002 108.3L72.6001 108.5V94.1002C72.6001 93.6002 71.8002 93.6002 71.8002 94.1002Z" fill="#231F20"/>
<path d="M82.0997 112C78.5997 112.3 74.9997 112.6 71.4997 112.8C71.2997 112.8 70.4997 113 70.2997 112.8C70.0997 112.7 70.0997 111.7 69.9997 111.5C69.5997 109.4 69.0997 107.4 68.6997 105.3C68.3997 103.7 67.9997 102.1 67.6997 100.5C67.6997 100.6 66.4997 101 66.5997 101.1C67.3997 104.6 68.0997 108.1 68.7997 111.5L68.9997 112.6C68.9997 112.8 68.9997 113.1 69.0997 113.3C69.1997 113.5 69.4997 113.3 69.7997 113.3L75.7997 112.8C77.4997 112.7 79.1997 112.5 80.8997 112.4C81.2997 112.4 81.5997 111.8 81.9997 111.8L82.0997 112Z" fill="#231F20"/>
<path d="M82.0996 111.6C79.8996 111.8 77.6996 112 75.3996 112.1L72.1996 112.3C71.8996 112.3 71.4996 112.3 71.0996 112.4C70.9996 112.4 70.7996 112.4 70.6996 112.4C70.6996 112.4 70.4996 112.4 70.3996 112.4C70.2996 112.2 70.3996 111.8 70.2996 111.5C70.2996 111.1 70.0996 110.6 69.9996 110.2L69.2996 107C68.7996 104.8 68.3996 102.6 67.8996 100.4C67.8996 100.1 67.3996 99.9996 67.1996 100.4C67.1996 100.3 66.9996 100.4 66.8996 100.5C66.7996 100.5 66.5996 100.6 66.4996 100.7C66.2996 100.8 66.0996 100.9 65.9996 101.1C65.8996 101.5 66.1996 102.3 66.2996 102.8C66.4996 103.5 66.5996 104.2 66.7996 104.9C67.3996 107.6 67.8996 110.4 68.4996 113.1C68.6996 114.1 69.5996 113.8 70.3996 113.7L74.5996 113.4L78.7996 113.1C79.4996 113.1 80.0996 113.1 80.7996 112.9C81.2996 112.9 81.4996 112.4 81.9996 112.3C82.4996 112.2 82.2996 111.4 81.7996 111.6C81.3996 111.7 81.2996 112 80.8996 112.2C80.3996 112.5 79.3996 112.4 78.7996 112.4L75.1996 112.7L71.4996 113C70.8996 113 70.2996 113 69.6996 113.1H69.4996C69.2996 113.2 69.1996 113.1 69.2996 112.9C69.2996 112.8 69.2996 112.5 69.2996 112.4C68.7996 110 68.2996 107.7 67.7996 105.3C67.5996 104.1 67.3996 102.9 66.9996 101.7C66.8996 101.3 66.7996 101.5 66.9996 101.3C67.0996 101.3 67.2996 101.2 67.3996 101.1C67.5996 101.1 67.7996 100.9 67.8996 100.7H67.1996C67.6996 103 68.1996 105.4 68.6996 107.8L69.3996 111.2C69.4996 111.7 69.3996 112.6 69.7996 113C70.0996 113.4 70.7996 113.1 71.1996 113C72.2996 112.9 73.4996 112.8 74.5996 112.7C76.9996 112.5 79.3996 112.3 81.8996 112.1C82.3996 112.1 82.3996 111.3 81.8996 111.3L82.0996 111.6Z" fill="#231F20"/>
<path d="M63.5004 128.2C66.7004 126.1 69.9004 124 73.1004 121.9L74.5004 121C74.2004 121.2 73.7004 121.4 73.4004 121.6C70.2004 123.7 67.0004 125.8 63.8004 127.9L62.4004 128.8C62.7004 128.6 63.2004 128.4 63.5004 128.2Z" fill="#231F20"/>
<path d="M63.6999 128.5C67.3999 126.1 70.9999 123.7 74.6999 121.2C75.0999 120.9 74.6999 120.3 74.2999 120.6C70.1999 123.1 66.1999 125.8 62.1999 128.5C61.7999 128.8 62.1999 129.4 62.5999 129.1C62.8999 128.9 63.2999 128.7 63.6999 128.5C64.0999 128.2 63.6999 127.6 63.2999 127.9C62.9999 128.1 62.5999 128.3 62.1999 128.5L62.5999 129.1C66.5999 126.5 70.5999 123.7 74.6999 121.2L74.2999 120.6C70.5999 123 66.9999 125.4 63.2999 127.9C62.8999 128.2 63.2999 128.8 63.6999 128.5Z" fill="#231F20"/>
<path d="M59.5003 142.3C63.0003 140.1 66.6003 138 70.1003 135.8L71.6003 134.9C71.8003 134.8 71.4004 135 71.4004 135C71.1004 135.1 70.9003 135.3 70.6003 135.4C67.1003 137.6 63.5003 139.7 60.0003 141.9L58.5003 142.8C58.3003 142.9 58.7003 142.7 58.7003 142.7C59.0003 142.6 59.2003 142.4 59.5003 142.3Z" fill="#231F20"/>
<path d="M59.7001 142.6C63.8001 140.1 67.9001 137.7 71.9001 135.2C72.2001 135 72.0001 134.3 71.6001 134.5C70.7001 134.9 69.9001 135.5 69.0001 136C67.8001 136.7 66.6001 137.5 65.3001 138.2C62.9001 139.6 60.5001 141.1 58.2001 142.5C57.9001 142.7 58.1001 143.4 58.5001 143.2C58.9001 143 59.3001 142.8 59.6001 142.6C60.0001 142.4 59.6001 141.7 59.2001 142C58.9001 142.2 58.5001 142.4 58.3001 142.6L58.6001 143.3C60.9001 141.9 63.2001 140.5 65.5001 139.1L69.0001 136.9C69.9001 136.4 70.8001 135.6 71.7001 135.3L71.4001 134.6C67.4001 137.1 63.2001 139.6 59.2001 142C58.8001 142.2 59.2001 142.9 59.6001 142.6H59.7001Z" fill="#231F20"/>
<path d="M66.8998 157.4C66.8998 161.3 66.8998 165.2 66.8998 169.1C66.8998 169.9 66.8998 170.7 66.8998 171.5C66.8998 171.9 66.7998 171.9 67.1998 172.1L72.8998 174.5C74.6998 175.2 76.3998 175.9 78.0998 176.7C78.2998 176.8 78.9998 176 79.1998 176.1C75.6998 174.6 72.0998 173.2 68.5998 171.7C68.4998 171.7 68.0998 171.6 68.0998 171.5C68.0998 171.5 68.0998 171.5 68.0998 171.3C67.9998 170.7 68.0998 169.9 68.0998 169.3C68.0998 166.9 68.0998 164.5 68.0998 162.1C68.0998 160.4 68.0998 158.7 68.0998 157C68.0998 157.2 66.9998 157.4 66.9998 157.6L66.8998 157.4Z" fill="#231F20"/>
<path d="M66.5003 157.4C66.5003 160.3 66.5003 163.1 66.5003 166C66.5003 167.4 66.5003 168.9 66.5003 170.3C66.5003 170.9 66.2003 171.9 66.7003 172.3C67.1003 172.6 67.6003 172.7 68.0003 172.9L70.1003 173.8L74.0003 175.4C75.2003 175.9 76.4003 176.6 77.7003 176.9C78.0003 176.9 78.1003 177 78.4003 176.9C78.6003 176.8 78.9003 176.4 79.1003 176.4C79.6003 176.4 79.6003 175.8 79.1003 175.7C77.0003 174.8 75.0003 174 72.9003 173.1L69.7003 171.8C69.3003 171.7 68.5003 171.5 68.3003 171.2C68.3003 171.2 68.3003 171.2 68.2003 171.1C68.1003 170.9 68.2003 170.4 68.2003 170.2C68.5003 165.8 68.2003 161.3 68.2003 156.9C68.2003 156.5 67.7003 156.4 67.5003 156.7C67.3003 157 66.6003 156.9 66.4003 157.3C66.2003 157.7 66.8003 158.1 67.1003 157.7C67.3003 157.4 68.0003 157.5 68.2003 157.1L67.5003 156.9C67.5003 159.5 67.5003 162.1 67.5003 164.7C67.5003 165.9 67.5003 167.1 67.5003 168.3C67.5003 169.2 67.3003 170.3 67.5003 171.2C67.5003 171.8 67.8003 171.8 68.4003 172C69.6003 172.4 70.8003 173 71.9003 173.5C74.3003 174.5 76.6003 175.4 79.0003 176.4V175.7C78.6003 175.7 78.3003 176.3 77.9003 176.3C77.4003 176.3 76.6003 175.8 76.2003 175.6L74.6003 175C72.3003 174.1 70.0003 173.1 67.7003 172.1C67.5003 172.1 67.3003 172 67.2003 171.8C67.1003 171.6 67.2003 171.2 67.2003 170.9C67.2003 170.3 67.2003 169.6 67.2003 168.9V165.2C67.2003 162.7 67.2003 160.1 67.2003 157.6C67.2003 157.1 66.4003 157.1 66.4003 157.6L66.5003 157.4Z" fill="#231F20"/>
<path d="M85.7998 172.2C82.6998 170.2 79.5998 168.1 76.4998 166.1C76.2998 165.9 75.5998 165.7 75.3998 165.4C75.2998 165.2 75.3998 164.4 75.3998 164.2V152.5C75.3998 152.7 74.2998 152.9 74.2998 153.1V165.4C74.2998 165.6 74.2998 165.9 74.2998 166C74.2998 166.2 74.7998 166.4 74.9998 166.5L80.2998 170C81.7998 171 83.1998 171.9 84.6998 172.9C84.8998 173 85.6998 172.1 85.7998 172.3V172.2Z" fill="#231F20"/>
<path d="M86 171.9C84.2 170.7 82.3 169.5 80.5 168.3L77.7 166.4C77.2 166.1 75.9 165.5 75.8 164.9C75.8 164.1 75.8 163.2 75.8 162.4V152.4C75.8 152 75.3 151.9 75.1 152.2C75.1 152.4 74.4 152.4 74.3 152.6C74.1 152.7 74 152.8 74 153.1C73.8 153.8 74 154.8 74 155.5V164.8C74 165.2 73.9 165.7 74 166.1C74.1 166.4 74.4 166.5 74.7 166.7C75.3 167.1 75.9 167.5 76.5 167.9L80.5 170.5L82.5 171.8L83.5 172.5C83.8 172.7 84.2 173.1 84.5 173.2C84.7 173.2 84.8 173.2 85 173.2C85.2 173.2 85.6 172.6 85.8 172.6C86.3 172.6 86.3 171.9 85.8 171.8C85.6 171.8 85.5 171.8 85.3 172C85.2 172 84.9 172.3 84.8 172.4C84.6 172.4 84.8 172.4 84.5 172.4C83.9 172.2 83.2 171.5 82.6 171.2L80.9 170.1L77.6 167.9L75.8 166.7C75.3 166.4 74.8 166.2 74.6 165.7C74.5 165.2 74.6 164.5 74.6 164V158C74.6 156.6 74.6 155.2 74.6 153.8C74.6 153.2 74.7 153.3 75.2 153.1C75.4 153 75.6 152.9 75.7 152.7L75 152.5V163.3C75 163.9 74.8 165 75 165.6C75.2 166.1 75.8 166.3 76.2 166.5C77.2 167.1 78.2 167.8 79.2 168.5C81.3 169.9 83.4 171.3 85.5 172.6C85.9 172.9 86.3 172.2 85.9 172L86 171.9Z" fill="#231F20"/>
<path d="M82.0004 148.5V161.3C82.0004 161.6 82.0004 161.6 82.2004 161.8C83.6004 163 85.1004 164.2 86.5004 165.3C87.8004 166.4 89.2004 167.5 90.5004 168.6C90.6004 168.7 91.5004 167.9 91.6004 168C88.9004 165.8 86.2004 163.6 83.5004 161.4C83.3004 161.2 83.1004 161.1 83.0004 160.9C82.9004 160.4 83.0004 159.7 83.0004 159.2V147.9C83.0004 148.1 81.9004 148.3 81.9004 148.5H82.0004Z" fill="#231F20"/>
<path d="M81.7002 148.5V160.5C81.7002 161.6 81.7002 161.8 82.5002 162.6C84.4002 164.2 86.4002 165.7 88.3002 167.3L89.9002 168.6C90.1002 168.8 90.4002 169.2 90.8002 169.2C91.3002 169.2 91.6002 168.6 91.9002 168.6C92.2002 168.6 92.4002 168.2 92.2002 168C90.6002 166.7 89.1002 165.5 87.5002 164.2L85.0002 162.2C84.2002 161.6 83.6002 161.1 83.7002 160C83.9002 156.1 83.7002 152.1 83.7002 148.1C83.7002 144.1 83.2002 147.6 83.0002 147.9C82.8002 148.2 82.1002 148.1 81.9002 148.5C81.7002 148.9 82.3002 149.3 82.6002 148.9C82.8002 148.6 83.5002 148.7 83.7002 148.3L83.0002 148.1V158C83.0002 158.9 82.8002 160 83.0002 160.9C83.0002 161.6 83.5002 161.8 84.0002 162.2C84.8002 162.9 85.7002 163.6 86.5002 164.2C88.3002 165.6 90.0002 167.1 91.8002 168.5L92.1002 167.9C91.7002 167.9 91.4002 168.5 91.0002 168.5C90.6002 168.5 90.2002 167.8 90.0002 167.6L88.6002 166.5C86.9002 165.1 85.1002 163.8 83.4002 162.3C83.0002 161.9 82.8002 161.8 82.7002 161.2C82.7002 160.7 82.7002 160.1 82.7002 159.6V148.7C82.7002 148.2 81.9002 148.2 81.9002 148.7L81.7002 148.5Z" fill="#231F20"/>
<path d="M90.0996 146.4V157.5C90.0996 157.7 90.0996 158.1 90.0996 158.3C90.1996 158.6 90.8996 158.9 91.0996 159.2L93.1996 161C94.3996 162 95.4996 163 96.6996 163.9C96.7996 164 97.6996 163.2 97.7996 163.3C96.7996 162.5 95.7996 161.7 94.8996 160.8L92.6996 159C92.2996 158.6 91.5996 158.3 91.2996 157.8C91.1996 157.6 91.2996 157.5 91.2996 157.3V145.9C91.2996 146.1 90.1996 146.3 90.1996 146.5L90.0996 146.4Z" fill="#231F20"/>
<path d="M89.6997 146.4V156.9C89.6997 157.5 89.4997 158.3 89.9997 158.8C90.6997 159.5 91.4997 160 92.2997 160.7L94.9997 163C95.4997 163.4 96.1997 164.4 96.7997 164.4C96.9997 164.4 97.1997 164.2 97.2997 164.1C97.3997 164.1 97.4997 163.9 97.5997 163.9C97.5997 163.9 97.8997 163.8 97.7997 163.8C98.0997 163.8 98.2997 163.4 98.0997 163.2C96.7997 162.1 95.3997 160.9 94.0997 159.8C93.5997 159.4 93.0997 158.9 92.4997 158.5C92.0997 158.2 91.6997 158 91.5997 157.4C91.5997 157 91.5997 156.5 91.5997 156.1V146C91.5997 145.6 91.0997 145.5 90.8997 145.8C90.7997 146.1 89.9997 146 89.7997 146.4C89.5997 146.8 90.1997 147.2 90.4997 146.8C90.6997 146.5 91.3997 146.6 91.5997 146.2L90.8997 146V157.2C90.8997 158.6 92.1997 159.1 93.1997 159.9C94.6997 161.1 96.0997 162.4 97.5997 163.6L97.8997 163C97.4997 163 97.2997 163.4 96.9997 163.5C96.7997 163.5 96.8997 163.5 96.7997 163.5C96.5997 163.5 96.3997 163.1 96.2997 163.1L95.0997 162.1L92.7997 160.2C92.3997 159.9 91.9997 159.5 91.5997 159.2C91.2997 159 90.8997 158.8 90.6997 158.6C90.2997 158.1 90.4997 156.7 90.4997 156.1V146.7C90.4997 146.2 89.6997 146.2 89.6997 146.7V146.4Z" fill="#231F20"/>
<path d="M99.0002 142.8C97.8002 146.2 96.7002 149.7 95.5002 153.2L94.6002 155.8C94.6002 156 94.2002 156.6 94.3002 156.8C94.3002 157.1 95.1002 157.5 95.3002 157.7L97.7002 159.9C99.1002 161.2 100.5 162.5 102 163.8C102 163.8 103 163.1 103.1 163.2C101.9 162.1 100.7 161 99.6002 160L97.0002 157.6L96.1002 156.7C96.0002 156.6 95.6002 156.3 95.5002 156.2C95.5002 156 95.5002 155.7 95.7002 155.5L96.5002 153.2L98.7002 146.6L100.2 142.1C100.2 142.4 99.2002 142.4 99.1002 142.7L99.0002 142.8Z" fill="#231F20"/>
<path d="M98.5998 142.7C97.5998 145.5 96.6998 148.3 95.7998 151.1L94.3999 155.1C94.1999 155.7 93.5998 156.5 93.9998 157.1C94.3998 157.7 95.3999 158.3 95.8999 158.8C96.9999 159.8 97.9998 160.7 99.0998 161.7L100.8 163.2C101.1 163.4 101.5 164.1 101.9 164.1C102.4 164.2 102.8 163.5 103.1 163.5C103.4 163.5 103.6 163.1 103.4 162.9C101.9 161.6 100.5 160.2 98.9998 158.9C98.1998 158.2 97.4998 157.5 96.6998 156.8C96.3998 156.5 95.9998 156.4 95.9998 155.9C95.9998 155.6 96.2999 155 96.3999 154.7C97.7999 150.6 99.1998 146.5 100.6 142.3C100.7 142 100.2 141.6 99.9998 141.9C99.6998 142.3 99.0998 142.2 98.7998 142.6C98.4998 143 99.1998 143.4 99.4998 143C99.6998 142.7 100.3 142.8 100.6 142.4L99.9998 142C98.4998 146.5 96.8999 151 95.3999 155.4C95.1999 156 95.1998 156.2 95.5998 156.6C96.3998 157.3 97.1998 158 97.9998 158.7C99.6998 160.2 101.3 161.7 103 163.3L103.3 162.7C102.9 162.7 102.5 163.4 102.2 163.3C102.2 163.3 101.8 162.8 101.7 162.7L101.1 162.1L99.6998 160.9C98.7998 160.1 97.8998 159.2 96.9998 158.4C96.5998 158 96.0998 157.6 95.6998 157.2C95.3998 157 94.9998 156.8 94.9998 156.5C94.9998 156.2 95.2999 155.6 95.3999 155.3C95.5999 154.7 95.7998 154.2 95.9998 153.6L97.1998 150.1C97.9998 147.6 98.8998 145.2 99.6998 142.7C99.8998 142.2 99.0998 142.1 98.9998 142.5L98.5998 142.7Z" fill="#231F20"/>
<path d="M107.4 144.5C105.7 147.1 104 149.8 102.3 152.4L101 154.3C101 154.4 100.5 154.8 100.6 155C100.6 155.2 101.5 155.8 101.7 156L103.8 157.9C105 159 106.2 160.1 107.5 161.2C107.5 161.2 108.5 160.5 108.6 160.6C107.6 159.7 106.6 158.7 105.5 157.8L103.3 155.8L102.5 155C102.3 154.9 102 154.7 101.9 154.5C101.8 154.3 101.9 154.3 102 154L103.1 152.3C104.2 150.6 105.3 149 106.3 147.3C107.1 146.1 107.8 145 108.5 143.8C108.3 144.1 107.6 144.1 107.4 144.4V144.5Z" fill="#231F20"/>
<path d="M107.1 144.3C105.7 146.5 104.3 148.6 102.9 150.8C102.2 151.9 101.5 153.1 100.7 154.2C100.4 154.6 99.9997 155 100.4 155.5C100.9 156.1 101.7 156.6 102.3 157.2C103.2 158 104.1 158.9 105.1 159.7L106.4 160.9C106.6 161.1 107 161.6 107.4 161.7C107.6 161.7 107.8 161.6 108 161.5C108.1 161.5 108.2 161.3 108.3 161.3C108.3 161.3 108.7 161.1 108.5 161.1C108.8 161.1 109 160.7 108.8 160.5C107.4 159.2 106 158 104.6 156.7C104 156.1 103.4 155.6 102.7 155C102.7 155 102.1 154.6 102.1 154.5C102.1 154.4 102.6 153.7 102.7 153.5C104.7 150.4 106.7 147.3 108.7 144.2C108.9 143.8 108.4 143.4 108.1 143.8C107.8 144.2 107.3 144.1 107 144.4C106.7 144.8 107.2 145.3 107.5 144.9C107.8 144.6 108.3 144.6 108.6 144.3L108 143.9C106.9 145.7 105.7 147.4 104.6 149.2L103 151.7C102.5 152.5 101.8 153.4 101.3 154.2C101.1 154.6 101.3 154.8 101.5 155.1C102 155.7 102.7 156.2 103.3 156.7C104.9 158.1 106.5 159.6 108.1 161L108.4 160.4C108 160.4 107.6 161 107.3 161C107.1 161 106.5 160.2 106.3 160L105.1 158.9C104.3 158.2 103.5 157.5 102.7 156.7C102.4 156.4 102 156.1 101.7 155.8C101.5 155.7 101.1 155.4 101 155.2C101 155.1 101 155.2 101 155.1C101 155.1 101.2 154.8 101.3 154.7C101.6 154.3 101.9 153.8 102.2 153.3L103.9 150.6C105.1 148.7 106.4 146.7 107.7 144.8C108 144.4 107.3 144 107 144.4L107.1 144.3Z" fill="#231F20"/>
<path d="M112.8 147.2C111.7 149.2 110.5 151.2 109.4 153.2L110.5 152.6C105 153.4 99.6 154.9 94.4 156.6C89.5 158.2 84.8 160.2 80.3 162.7C75.5 165.3 70.9 168.3 67 172C62.2 176.5 58.5 181.9 56.5 188.2C56.5 187.9 57.5 187.9 57.6 187.6C59.5 181.5 63.2 176.1 67.8 171.7C72.4 167.3 78 163.8 83.8 161.1C88.7 158.9 93.8 157.1 98.9 155.6C102 154.7 105.1 154 108.3 153.5C109.1 153.4 109.7 153.3 110.3 152.8C110.8 152.4 111.2 151.4 111.5 150.8L113.4 147.4L113.8 146.7C113.6 147 112.9 147 112.7 147.3L112.8 147.2Z" fill="#231F20"/>
<path d="M112.4 147C111.3 149 110.1 151 109 153C108.8 153.3 109.2 153.7 109.5 153.5L110.6 152.9C111 152.7 110.7 152.2 110.3 152.2C101 153.5 91.7004 156.6 83.3004 160.6C75.5004 164.4 67.9004 169.3 62.4004 176.2C59.6004 179.8 57.4004 183.8 56.0004 188.1C55.9004 188.4 56.4004 188.7 56.6004 188.5C57.0004 188 57.6004 188.2 57.9004 187.5C58.4004 186.4 58.7004 185.1 59.2004 184C60.2004 181.8 61.4004 179.8 62.7004 177.9C65.6004 173.8 69.3004 170.3 73.4004 167.4C81.9004 161.3 92.0004 157.6 102.1 155.2C103.7 154.8 105.2 154.5 106.8 154.2C107.9 154 109.1 154 110 153.4C110.9 152.9 111.2 151.9 111.7 151C112.4 149.6 113.3 148.3 114 146.9C114.2 146.5 113.7 146.1 113.4 146.5C113.1 146.9 112.6 146.8 112.3 147.1C112 147.4 112.5 148 112.8 147.6C113.1 147.3 113.6 147.3 113.9 147L113.3 146.6C112.6 147.7 112 148.9 111.3 150C110.7 151.1 110.3 152.6 109 153C107.8 153.4 106.5 153.5 105.3 153.7C104 154 102.6 154.3 101.3 154.6C96.1004 155.9 90.9004 157.6 86.0004 159.7C77.2004 163.4 68.9004 168.6 63.0004 176.2C61.5004 178.1 60.2004 180.2 59.0004 182.5C58.5004 183.6 58.0004 184.6 57.6004 185.8C57.4004 186.4 57.2004 187.4 56.6004 187.8C56.4004 188 56.1004 188 55.9004 188.2L56.5004 188.6C61.9004 171.7 79.2004 162.2 95.0004 157C100 155.4 105 154 110.2 153.3L109.9 152.6L108.8 153.2L109.3 153.7C110.4 151.7 111.6 149.7 112.7 147.7C112.9 147.3 112.3 146.9 112 147.3L112.4 147Z" fill="#231F20"/>
<path d="M114.4 155.9C113.3 154.9 112.1 153.9 111 152.9L110.5 152.5C110.5 152.5 110 152.8 109.9 152.8C109.8 152.8 109.4 153.2 109.3 153.1C110.4 154.1 111.6 155.1 112.7 156.1L113.2 156.5C113.2 156.5 113.7 156.2 113.8 156.2C113.9 156.2 114.3 155.8 114.4 155.9Z" fill="#231F20"/>
<path d="M114.6 155.6C113.5 154.6 112.3 153.6 111.2 152.6C111 152.4 110.7 152.1 110.4 152.1C110.1 152.1 110 152.2 109.9 152.3C109.9 152.3 109.7 152.4 109.6 152.5L109.4 152.6C109.4 152.6 109.4 152.6 109.3 152.6C109 152.6 108.8 153 109 153.2C110.1 154.2 111.3 155.2 112.4 156.2C112.6 156.4 112.9 156.7 113.2 156.7C113.5 156.7 113.6 156.6 113.7 156.5C113.7 156.5 113.9 156.4 114 156.3L114.2 156.2C114.2 156.2 114.2 156.2 114.3 156.2C114.8 156.2 114.8 155.5 114.3 155.4C114.1 155.4 113.8 155.6 113.6 155.8C113.6 155.8 113.5 155.8 113.4 155.9C113.4 155.9 113.3 155.9 113.2 156H113.4C113.5 156 113.5 156 113.4 156L113.2 155.7L112.8 155.3L111.8 154.4C111.1 153.8 110.5 153.3 109.8 152.7L109.5 153.3C109.7 153.3 110 153.1 110.2 152.9C110.2 152.9 110.3 152.9 110.4 152.8C110.4 152.8 110.5 152.8 110.6 152.7H110.4C110.3 152.7 110.3 152.7 110.4 152.7L110.6 153L111 153.4L112 154.3C112.7 154.9 113.3 155.4 114 156C114.4 156.3 114.9 155.8 114.5 155.5L114.6 155.6Z" fill="#231F20"/>
<path d="M57.1 193.2C60.6 190.2 64 187.2 67.4 184.1C67.9 183.7 68.4 183.2 68.9 182.8C68.6 183.1 68.1 183.2 67.8 183.4C64.3 186.4 60.9 189.4 57.5 192.5C57 192.9 56.5 193.4 56 193.8C56.3 193.5 56.8 193.4 57.1 193.2Z" fill="#231F20"/>
<path d="M57.4001 193.5C61.3001 190 65.3001 186.6 69.2001 183.1C69.5001 182.8 69.1001 182.2 68.7001 182.5C68.3001 182.8 67.8001 183 67.4001 183.3C66.8001 183.8 66.2001 184.3 65.7001 184.8C64.6001 185.8 63.5001 186.8 62.4001 187.7C60.2001 189.6 58.0001 191.6 55.8001 193.5C55.5001 193.8 55.9001 194.4 56.3001 194.1C56.7001 193.8 57.1001 193.7 57.4001 193.5C57.8001 193.2 57.4001 192.6 57.0001 192.9C56.7001 193.2 56.2001 193.3 55.9001 193.5L56.4001 194.1C58.6001 192.2 60.7001 190.3 62.8001 188.4C63.8001 187.5 64.9001 186.5 66.0001 185.6C66.5001 185.1 67.1001 184.6 67.6001 184.2C67.9001 184 68.1001 183.7 68.5001 183.5C68.7001 183.4 69.0001 183.3 69.2001 183.1L68.7001 182.5C64.8001 186 60.8001 189.4 56.9001 192.9C56.5001 193.2 57.1001 193.8 57.4001 193.4V193.5Z" fill="#231F20"/>
<path d="M13.7998 171.2C16.1998 171 18.5998 170.9 20.8998 170.7H21.8998C22.0998 170.7 22.2998 170.4 22.4998 170.3C22.6998 170.2 22.8998 170 23.0998 170C20.6998 170.2 18.2998 170.3 15.9998 170.5H14.9998C14.7998 170.5 14.5998 170.8 14.3998 170.9C14.1998 171 13.9998 171.2 13.7998 171.2Z" fill="#231F20"/>
<path d="M13.8004 171.5C15.6004 171.4 17.3004 171.3 19.1004 171.1C19.9004 171.1 20.8004 171 21.6004 170.9C21.9004 170.9 22.1004 170.9 22.4004 170.7C22.6004 170.6 22.9004 170.3 23.1004 170.2C23.5004 170.1 23.4004 169.4 23.1004 169.5C21.3004 169.6 19.6004 169.7 17.8004 169.9L15.3004 170.1C15.0004 170.1 14.8004 170.1 14.5004 170.3C14.3004 170.4 14.0004 170.7 13.8004 170.8C13.3004 170.9 13.5004 171.6 14.0004 171.5C14.2004 171.5 14.4004 171.3 14.7004 171.1C15.0004 170.9 15.2004 170.8 15.6004 170.8L18.1004 170.6C19.8004 170.5 21.5004 170.4 23.2004 170.2V169.5C22.9004 169.5 22.7004 169.7 22.4004 169.9C22.1004 170.1 21.9004 170.2 21.5004 170.2C20.7004 170.2 19.8004 170.3 19.0004 170.4C17.3004 170.5 15.6004 170.6 13.9004 170.8C13.4004 170.8 13.4004 171.6 13.9004 171.6L13.8004 171.5Z" fill="#231F20"/>
<path d="M17 178.9H35.1C35.5 178.9 35.9 178.3 36.2 178.3H18.1C17.7 178.3 17.3 178.9 17 178.9Z" fill="#231F20"/>
<path d="M16.9996 179.2H32.4996C33.2996 179.2 34.2996 179.3 35.0996 179.2C35.5996 179.2 35.8996 178.7 36.2996 178.5C36.6996 178.4 36.5996 177.8 36.2996 177.8H20.7996C19.9996 177.8 18.9996 177.7 18.1996 177.8C17.6996 177.8 17.3996 178.3 16.9996 178.5C16.5996 178.7 16.6996 179.3 17.1996 179.2C17.3996 179.2 17.4996 179.1 17.6996 179C18.0996 178.8 18.4996 178.6 18.9996 178.6C19.6996 178.6 20.4996 178.6 21.1996 178.6H36.3996V177.9C36.0996 177.9 35.9996 178 35.7996 178.1C35.3996 178.3 34.9996 178.5 34.4996 178.5C33.7996 178.5 32.9996 178.5 32.2996 178.5H17.0996C16.5996 178.5 16.5996 179.2 17.0996 179.2H16.9996Z" fill="#231F20"/>
<path d="M26.0996 158.6C26.0996 162.7 26.0996 166.9 26.0996 171V172.8C26.0996 172.6 27.1996 172.4 27.1996 172.2C27.1996 168.1 27.1996 163.9 27.1996 159.8V158C27.1996 158.2 26.0996 158.4 26.0996 158.6Z" fill="#231F20"/>
<path d="M25.6996 158.6C25.6996 163.4 25.6996 168.1 25.6996 172.8C25.6996 173.1 26.1996 173.4 26.3996 173C26.3996 172.8 27.0996 172.7 27.2996 172.6C27.5996 172.3 27.5995 172 27.5995 171.6C27.5995 170.1 27.5995 168.5 27.5995 167C27.5995 164 27.5995 161 27.5995 157.9C27.5995 154.8 27.0996 157.3 26.8996 157.7C26.8996 157.8 26.2995 157.9 26.0995 158C25.8995 158.1 25.7996 158.2 25.6996 158.4C25.4996 158.8 26.1996 159 26.3996 158.6C26.3996 158.6 26.8995 158.5 27.0995 158.4C27.2995 158.4 27.3996 158.2 27.4996 158.1L26.7996 157.9C26.7996 160.8 26.7996 163.6 26.7996 166.5C26.7996 169.4 26.7996 169.5 26.7996 170.9C26.7996 171.1 26.7996 171.6 26.7996 171.8C26.7996 172 26.5996 172 26.3996 172.1C26.1996 172.2 25.8996 172.3 25.7996 172.5L26.4996 172.7C26.4996 167.9 26.4996 163.2 26.4996 158.5C26.4996 158 25.6996 158 25.6996 158.5V158.6Z" fill="#231F20"/>
<path d="M31.3004 161.2C31.2004 165.5 31.1004 169.8 30.9004 174.1C30.9004 174.7 30.9004 175.3 30.9004 176C30.9004 175.8 32.0004 175.6 32.0004 175.4C32.1004 171.1 32.2004 166.8 32.4004 162.5C32.4004 161.9 32.4004 161.3 32.4004 160.6C32.4004 160.8 31.3004 161 31.3004 161.2Z" fill="#231F20"/>
<path d="M30.9 161.2C30.8 166.1 30.6 171 30.5 175.9C30.5 176.3 31 176.4 31.2 176.1C31.2 175.9 31.9 175.8 32.1 175.7C32.4 175.4 32.4 175.1 32.4 174.6C32.4 173 32.4 171.4 32.5 169.9C32.5 166.8 32.7 163.7 32.8 160.5C32.8 160.1 32.3 160 32.1 160.3C32.1 160.4 31.5 160.5 31.3 160.6C31.1 160.7 31 160.8 30.9 161C30.7 161.4 31.4 161.6 31.6 161.2C31.6 161.2 32.1 161.1 32.3 161C32.5 161 32.6 160.8 32.7 160.6L32 160.4C32 163.4 31.8 166.3 31.8 169.3C31.8 170.8 31.8 172.4 31.7 173.9C31.7 174.1 31.7 174.6 31.7 174.8C31.7 175 31.5 175 31.3 175.1C31.1 175.2 30.8 175.3 30.6 175.5L31.3 175.7C31.4 170.8 31.6 165.9 31.7 161C31.7 160.5 31 160.5 30.9 161V161.2Z" fill="#231F20"/>
<path d="M37 167V180.3C37 180.1 38.1 179.9 38.1 179.7V166.4C38.1 166.6 37 166.8 37 167Z" fill="#231F20"/>
<path d="M36.6999 167V180.3C36.6999 180.8 37.2999 180.8 37.3999 180.4C37.3999 180.6 37.6999 180.4 37.7999 180.4C37.8999 180.4 38.0999 180.3 38.1999 180.2C38.4999 180 38.4999 179.8 38.4999 179.4C38.4999 178 38.4999 176.5 38.4999 175.1V166.4C38.4999 166 37.8999 165.9 37.7999 166.3C37.7999 166.1 37.4999 166.3 37.3999 166.3C37.2999 166.3 37.1999 166.3 37.0999 166.4C36.8999 166.5 36.7999 166.6 36.6999 166.8C36.4999 167.2 37.2999 167.4 37.3999 167C37.3999 167.1 37.6999 167 37.7999 167C37.8999 167 37.9999 167 38.0999 166.9C38.2999 166.8 38.3999 166.7 38.4999 166.5H37.7999C37.7999 166.4 37.7999 179 37.7999 179C37.7999 179.2 37.7999 179.5 37.7999 179.6C37.6999 179.7 37.3999 179.7 37.2999 179.8C37.0999 179.9 36.8999 180 36.7999 180.3H37.4999C37.4999 180.4 37.4999 167.1 37.4999 167.1C37.4999 166.6 36.6999 166.6 36.6999 167.1V167Z" fill="#231F20"/>
<path d="M43.3002 172.9C43.2002 177 43.1002 181.2 43.0002 185.3L44.1002 184.7H27.3002C26.9002 184.7 26.5002 185.3 26.2002 185.3H43.0002C43.1002 185.3 44.1002 184.7 44.1002 184.7C44.2002 180.6 44.3002 176.4 44.4002 172.3C44.4002 172.5 43.3002 172.7 43.3002 172.9Z" fill="#231F20"/>
<path d="M42.8999 172.9C42.7999 177 42.6998 181.2 42.5998 185.3C42.5998 185.6 42.8999 185.8 43.1999 185.6L44.2999 185C44.5999 184.8 44.4998 184.3 44.0998 184.3H29.3999C28.6999 184.3 27.7999 184.2 27.1999 184.3C26.6999 184.3 26.4998 184.8 26.0998 184.9C25.6998 185 25.7998 185.6 26.0998 185.6H41.0998C41.6998 185.6 42.3999 185.7 42.9999 185.6C43.3999 185.6 44.0999 185.2 44.2999 184.8C44.4999 184.4 44.2999 183.7 44.3999 183.3C44.3999 182.6 44.3999 181.8 44.3999 181.1C44.3999 178.1 44.5998 175.1 44.5998 172.2C44.5998 171.8 44.0999 171.7 43.8999 172C43.7999 172.3 42.9999 172.2 42.7999 172.6C42.5999 173 43.1999 173.4 43.4999 173C43.6999 172.7 44.3998 172.8 44.5998 172.4L43.8999 172.2C43.8999 174.9 43.6999 177.6 43.6999 180.2C43.6999 181.5 43.6998 182.8 43.5998 184C43.5998 184.3 43.5998 184.2 43.5998 184.4C43.5998 184.4 43.1998 184.6 43.0998 184.7C42.5998 184.9 42.0998 184.8 41.5998 184.8H25.9999V185.5C26.5999 185.4 26.8999 184.9 27.4999 184.9C28.1999 184.9 28.8998 184.9 29.5998 184.9H43.8999L43.6999 184.2L42.5998 184.8L43.1999 185.1C43.2999 181 43.3999 176.8 43.4999 172.7C43.4999 172.2 42.7999 172.2 42.6999 172.7L42.8999 172.9Z" fill="#231F20"/>
<path d="M33.9004 196C38.4004 195 42.9004 193.9 47.4004 192.9L49.4004 192.4C49.6004 192.4 50.5004 191.9 50.5004 191.8C51.7004 187.7 53.0004 183.6 54.2004 179.6C54.2004 179.9 53.2004 179.9 53.1004 180.2C51.9004 184.3 50.6004 188.4 49.4004 192.4L50.5004 191.8C46.0004 192.8 41.5004 193.9 37.0004 194.9C36.3004 195 35.7004 195.2 35.0004 195.4C34.6004 195.4 34.3004 195.9 33.9004 196Z" fill="#231F20"/>
<path d="M33.9998 196.4C36.6998 195.8 39.3998 195.2 42.0998 194.5L46.1998 193.6C47.2998 193.3 48.5998 193.2 49.6998 192.8C50.1998 192.6 50.6998 192.4 50.8998 192C51.1998 191.4 51.2998 190.5 51.4998 189.9L52.0998 188C52.8998 185.3 53.7998 182.5 54.5998 179.8C54.6998 179.4 54.0998 179.2 53.8998 179.5C53.7998 179.7 53.2998 179.7 53.0998 179.8C52.7998 180 52.7998 180.1 52.6998 180.4C52.1998 181.7 51.8998 183.1 51.4998 184.4C50.6998 187.1 49.8998 189.8 49.0998 192.4C49.0998 192.7 49.3998 193 49.5998 192.8L50.6998 192.2C51.0998 192 50.7998 191.4 50.3998 191.5C47.4998 192.2 44.5998 192.8 41.6998 193.5C40.2998 193.8 38.8998 194.1 37.4998 194.5C36.7998 194.7 36.0998 194.8 35.2998 195C34.6998 195.2 34.3998 195.5 33.7998 195.7C33.3998 195.9 33.5998 196.6 33.9998 196.4C34.4998 196.2 34.8998 195.8 35.4998 195.7C36.0998 195.5 36.7998 195.4 37.4998 195.2C38.9998 194.9 40.4998 194.5 41.9998 194.2C44.8998 193.5 47.7998 192.9 50.6998 192.2L50.3998 191.5L49.2998 192.1L49.7998 192.5C50.5998 190 51.2998 187.4 52.0998 184.9C52.4998 183.7 52.7998 182.5 53.1998 181.3C53.1998 181.1 53.2998 180.5 53.4998 180.4C53.5998 180.3 53.8998 180.3 53.9998 180.2C54.1998 180.1 54.3998 180 54.4998 179.8L53.7998 179.5C53.0998 181.9 52.2998 184.3 51.5998 186.8C51.1998 188.1 50.7998 189.3 50.3998 190.6C50.1998 191.1 50.1998 191.5 49.7998 191.8C49.4998 192.1 48.9998 192.1 48.5998 192.2C43.5998 193.3 38.6998 194.5 33.6998 195.6C33.1998 195.7 33.3998 196.4 33.8998 196.3L33.9998 196.4Z" fill="#231F20"/>
<path d="M46 201.8C48.5 203.9 51 205.9 53.5 208C53.9 208.3 54.2 208.6 54.6 208.9C54.7 209 55.6 208.2 55.7 208.3C53.2 206.2 50.7 204.2 48.2 202.1C47.8 201.8 47.5 201.5 47.1 201.2C47 201.1 46.1 201.9 46 201.8Z" fill="#231F20"/>
<path d="M45.6999 202C47.6999 203.6 49.6999 205.3 51.6999 206.9L53.1999 208.1L53.9 208.7C54.1 208.8 54.2999 209.1 54.4999 209.2C54.6999 209.3 54.9999 209.2 55.1999 209C55.2999 209 55.4999 208.8 55.5999 208.7C55.5999 208.7 55.6999 208.7 55.7999 208.6C55.9999 208.6 55.8999 208.5 55.7999 208.6C56.0999 208.7 56.4999 208.2 56.1999 208C54.1999 206.4 52.1999 204.7 50.1999 203.1L48.6999 201.9L47.9999 201.3C47.7999 201.2 47.6 200.9 47.4 200.8C47.2 200.7 46.8999 200.8 46.6999 201C46.5999 201 46.3999 201.2 46.2999 201.3C46.2999 201.3 46.1999 201.3 46.0999 201.4C45.9999 201.5 45.8999 201.4 46.0999 201.4C45.5999 201.3 45.4 202 45.9 202.1C46.1 202.1 46.3999 202.1 46.5999 201.9C46.6999 201.9 46.8 201.7 46.9 201.6C46.9 201.6 46.9999 201.6 47.0999 201.5C46.8999 201.5 47.2999 201.7 47.2999 201.7L47.5999 201.9L48.2999 202.5C48.7999 202.9 49.2999 203.3 49.7999 203.7C51.6999 205.3 53.5999 206.9 55.4999 208.4L55.9 207.8C55.7 207.8 55.3999 207.8 55.1999 208C55.0999 208 55 208.2 54.9 208.3C54.9 208.3 54.7999 208.3 54.6999 208.4C54.8999 208.4 54.4999 208.2 54.4999 208.2L54.1999 208L53.4999 207.4C52.9999 207 52.4999 206.6 51.9999 206.2C50.0999 204.6 48.1999 203 46.2999 201.5C45.8999 201.2 45.3999 201.7 45.7999 202H45.6999Z" fill="#231F20"/>
<path d="M46.9004 208.9C49.2004 211.4 51.4004 213.9 53.7004 216.3C53.7004 216.3 54.7004 215.7 54.8004 215.7C57.9004 212.8 61.1004 209.9 64.2004 207.1C64.7004 206.7 65.1004 206.3 65.5004 205.9C65.2004 206.2 64.7004 206.3 64.4004 206.5C61.3004 209.4 58.1004 212.3 55.0004 215.1C54.5004 215.5 54.1004 215.9 53.7004 216.3L54.8004 215.7C52.5004 213.2 50.3004 210.7 48.0004 208.3C48.0004 208.3 46.9004 209 46.9004 208.9Z" fill="#231F20"/>
<path d="M46.7002 209.1C49.0002 211.6 51.2002 214.1 53.5002 216.5C53.5002 216.6 53.7002 216.6 53.9002 216.6C54.5002 216.5 55.0002 216 55.4002 215.6C56.6002 214.5 57.7002 213.5 58.9002 212.4C61.2002 210.3 63.6002 208.1 65.9002 206C66.2002 205.7 65.8002 205.2 65.4002 205.4C65.0002 205.7 64.6002 205.8 64.2002 206.1C63.7002 206.5 63.2002 207 62.7002 207.5C61.7002 208.5 60.6002 209.4 59.6002 210.3C57.5002 212.2 55.5002 214.1 53.4002 216C53.1002 216.3 53.4002 216.8 53.9002 216.6L55.0002 216C55.2002 215.9 55.2002 215.6 55.0002 215.4C53.2002 213.5 51.5002 211.5 49.7002 209.6C49.3002 209.1 48.9002 208.7 48.4002 208.2C48.2002 208 48.1002 207.8 47.8002 207.8C47.6002 207.8 47.4002 208 47.2002 208.1C47.1002 208.1 47.0002 208.3 46.9002 208.3C46.9002 208.3 46.6002 208.4 46.7002 208.4C46.2002 208.4 46.2002 209.2 46.7002 209.2C47.1002 209.2 47.4002 208.8 47.7002 208.6C47.7002 208.6 48.0002 209 48.2002 209.1L49.5002 210.5C51.1002 212.2 52.7002 214 54.3002 215.7V215.1L53.3002 215.7L53.8002 216.3C55.8002 214.5 57.8002 212.7 59.7002 210.9C60.7002 210 61.7002 209.1 62.7002 208.2C63.2002 207.8 63.6002 207.4 64.0002 207C64.5002 206.5 65.0002 206.3 65.6002 205.9L65.1002 205.3C62.9002 207.3 60.8002 209.2 58.6002 211.2C57.5002 212.2 56.4002 213.2 55.4002 214.2C54.9002 214.7 54.1002 215.6 53.4002 215.7H53.8002C51.5002 213.3 49.3002 210.8 47.0002 208.4C46.7002 208 46.1002 208.6 46.5002 208.9L46.7002 209.1Z" fill="#231F20"/>
<path d="M42.4004 214.3C45.4004 217.1 48.3004 219.9 51.3004 222.7C51.7004 223.1 52.2004 223.5 52.6004 223.9C52.6004 223.9 53.6004 223.2 53.7004 223.3C50.7004 220.5 47.8004 217.7 44.8004 214.9C44.4004 214.5 43.9004 214.1 43.5004 213.7C43.5004 213.7 42.5004 214.4 42.4004 214.3Z" fill="#231F20"/>
<path d="M42.1999 214.6C44.3999 216.7 46.7 218.8 48.9 221C50 222 51.0999 223.1 52.1999 224.1C52.4999 224.3 52.6999 224.4 52.9999 224.2C53.1999 224.2 53.2999 224 53.4999 223.9C53.4999 223.9 53.6999 223.9 53.6999 223.8C53.8999 223.8 53.7999 223.7 53.6999 223.8C53.9999 223.8 54.3999 223.4 54.0999 223.2C51.8999 221.1 49.6 219 47.4 216.8C46.3 215.8 45.1999 214.7 44.0999 213.7C43.7999 213.5 43.5999 213.4 43.2999 213.6C43.0999 213.6 42.9999 213.8 42.7999 213.9C42.7999 213.9 42.5999 213.9 42.5999 214C42.4999 214.1 42.3999 214 42.5999 214C42.0999 213.9 41.9 214.6 42.4 214.7C42.7 214.7 42.8999 214.6 43.0999 214.4C43.2999 214.3 43.3999 214.2 43.4999 214.1C43.5999 214.1 43.5999 214 43.4999 214.1C43.2999 214.1 43.3999 214.1 43.4999 214.3H43.6999C44.7999 215.5 45.9 216.5 46.9 217.5C49.1 219.5 51.2 221.6 53.4 223.6L53.7999 223C53.4999 223 53.2999 223.1 53.0999 223.3C52.8999 223.4 52.7999 223.5 52.6999 223.6C52.5999 223.7 52.5999 223.6 52.6999 223.6C52.8999 223.6 52.7999 223.6 52.6999 223.4H52.4999C51.3999 222.2 50.2999 221.2 49.2999 220.2C47.0999 218.2 44.9999 216.1 42.7999 214.1C42.4999 213.8 41.8999 214.3 42.2999 214.6H42.1999Z" fill="#231F20"/>
<path d="M53.1996 229.4C56.2996 226.4 59.4996 223.4 62.5996 220.4L63.8996 219.1C63.5996 219.4 63.0996 219.5 62.7996 219.7C59.6996 222.7 56.4996 225.7 53.3996 228.7L52.0996 230C52.3996 229.7 52.8996 229.6 53.1996 229.4Z" fill="#231F20"/>
<path d="M53.5002 229.7C57.1002 226.3 60.7002 222.9 64.3002 219.5C64.7002 219.2 64.1002 218.7 63.8002 219C63.4002 219.3 62.9002 219.4 62.5002 219.8C62.0002 220.3 61.5002 220.7 61.0002 221.2L57.9002 224.1C55.9002 226 53.9002 228 51.8002 229.9C51.4002 230.2 52.0002 230.7 52.3002 230.4C52.6002 230.1 53.1002 230 53.4002 229.8C53.8002 229.5 53.2002 229 52.9002 229.3C52.6002 229.6 52.1002 229.7 51.8002 229.9L52.3002 230.4C54.3002 228.5 56.3002 226.5 58.4002 224.6L61.4002 221.7L62.9002 220.3C63.3002 219.9 63.8002 219.8 64.3002 219.4L63.8002 218.9C60.2002 222.3 56.6002 225.7 53.0002 229.1C52.7002 229.4 53.2002 230 53.5002 229.6V229.7Z" fill="#231F20"/>
</g>
<defs>
<clipPath id="clip0_208_294">
<rect width="118" height="265" fill="white"/>
</clipPath>
</defs>
</svg>
