<svg width="70" height="264" viewBox="0 0 70 264" fill="none" xmlns="http://www.w3.org/2000/svg">
<g clip-path="url(#clip0_208_667)">
<path d="M35.4996 19.2995C33.2996 15.0995 31.0996 10.5995 31.1996 5.89954C31.1996 4.59954 31.3996 3.29956 32.0996 2.19956C32.7996 1.09956 34.0996 0.399558 35.3996 0.699558C36.0996 0.799558 36.5996 1.19955 37.1996 1.59955C39.1996 2.99955 41.2996 4.39954 42.5996 6.49954C44.5996 9.69954 44.4996 13.6995 44.2996 17.3995C43.8996 25.8995 39.2996 26.8995 35.3996 19.2995H35.4996Z" fill="#231F20"/>
<path d="M35.8001 19.1002C33.9001 15.3002 31.8001 11.3002 31.6001 7.00018C31.5001 5.00018 31.6001 2.50017 33.5001 1.40017C35.4001 0.300177 37.5001 2.20017 39.0001 3.30017C40.7001 4.50017 42.1001 6.00017 43.0001 7.90017C43.8001 9.70017 44.0001 11.7002 44.1001 13.6002C44.2001 15.5002 44.1001 17.6002 43.8001 19.6002C43.6001 20.9002 43.2001 22.4002 42.2001 23.4002C39.7001 25.8002 36.8001 20.9002 35.9001 19.1002C35.7001 18.7002 35.0001 19.1002 35.2001 19.5002C36.3001 21.6002 38.7001 25.7002 41.7001 24.6002C42.9001 24.1002 43.5001 23.0002 43.9001 21.9002C44.7001 19.9002 44.7001 17.7002 44.8001 15.6002C44.8001 13.3002 44.8001 11.0002 44.1001 8.80017C43.4001 6.60017 42.1001 4.90017 40.3001 3.40017C39.5001 2.70017 38.5001 2.10017 37.6001 1.40017C36.8001 0.800177 35.9001 0.200195 34.8001 0.200195C32.8001 0.200195 31.5001 1.90019 31.0001 3.70019C30.4001 6.20019 30.9001 9.00018 31.6001 11.5002C32.4001 14.3002 33.8001 16.9002 35.1001 19.5002C35.3001 19.9002 36.0001 19.5002 35.8001 19.1002Z" fill="#231F20"/>
<path d="M56.4997 10.6997C58.8997 7.29972 62.9997 4.6997 67.0997 5.3997C67.6997 5.4997 68.3997 5.69971 68.7997 6.09971C69.2997 6.59971 69.3997 7.49972 69.3997 8.19972C69.3997 16.4997 64.5997 26.5997 56.5997 30.0997C46.5997 34.4997 54.0997 14.0997 56.5997 10.6997H56.4997Z" fill="#231F20"/>
<path d="M56.7996 10.9004C58.6996 8.30042 61.4996 6.10044 64.7996 5.70044C65.5996 5.70044 66.4996 5.60042 67.2996 5.80042C68.5996 6.20042 68.8996 7.00044 68.8996 8.20044C68.8996 9.60044 68.7996 11.0004 68.5996 12.4004C67.6996 17.8004 65.0996 23.0004 60.9996 26.7004C59.4996 28.1004 53.6996 32.7004 52.1996 29.0004C51.0996 26.3004 52.2996 22.5004 53.0996 19.9004C53.9996 16.9004 54.9996 13.5004 56.7996 10.9004C57.0996 10.5004 56.3996 10.1004 56.0996 10.5004C54.1996 13.3004 53.0996 16.8004 52.1996 20.0004C51.6996 21.9004 51.1996 23.8004 51.0996 25.8004C51.0996 27.2004 51.0996 28.8004 51.7996 30.0004C54.0996 33.3004 59.5996 28.9004 61.4996 27.2004C65.9996 23.1004 68.7996 17.0004 69.4996 10.9004C69.6996 9.50042 69.9996 7.40044 69.1996 6.10044C68.3996 4.70044 66.2996 4.70042 64.8996 4.80042C61.1996 5.10042 58.0996 7.50042 55.9996 10.4004C55.6996 10.8004 56.3996 11.2004 56.6996 10.8004L56.7996 10.9004Z" fill="#231F20"/>
<path d="M54.7001 44.4998C56.4001 40.1998 60.3001 36.3998 64.9001 36.2998C65.5001 36.2998 66.2001 36.2998 66.7001 36.6998C67.5001 37.2998 67.5001 38.4998 67.4001 39.4998C67.2001 41.7998 67.0001 44.0998 66.2001 46.1998C64.9001 49.6998 59.7 56.8998 55.6 57.3998C50.6 57.9998 53.4001 47.3998 54.7001 44.3998V44.4998Z" fill="#231F20"/>
<path d="M55.1004 44.5998C56.7004 40.5998 60.4005 36.6998 65.0005 36.5998C66.6005 36.5998 67.2005 37.3998 67.2005 38.8998C67.2005 40.2998 67.0005 41.5998 66.8005 42.9998C66.5005 44.8998 65.9005 46.5998 64.9005 48.2998C63.1005 51.3998 60.7005 54.6998 57.5005 56.3998C56.5005 56.8998 55.0004 57.4998 54.1004 56.5998C53.3004 55.7998 53.3005 54.2998 53.3005 53.2998C53.3005 50.3998 54.1005 47.2998 55.2005 44.5998C55.4005 44.0998 54.7005 43.9998 54.5005 44.3998C53.4005 47.2998 52.5004 50.5998 52.6004 53.6998C52.6004 54.8998 52.8005 56.3998 53.8005 57.2998C54.8005 58.1998 56.2005 57.8998 57.3005 57.3998C59.2005 56.5998 60.7004 55.0998 62.1004 53.5998C63.5004 51.9998 64.8005 50.2998 65.8005 48.4998C66.9005 46.4998 67.5005 44.3998 67.8005 42.1998C68.0005 40.3998 68.9005 36.8998 66.5005 36.0998C64.1005 35.2998 61.2005 36.6998 59.3005 38.0998C57.1005 39.6998 55.5005 41.9998 54.5005 44.4998C54.3005 44.9998 55.0005 45.0998 55.2005 44.6998L55.1004 44.5998Z" fill="#231F20"/>
<path d="M60.9003 70.7997C62.4003 70.0997 64.1003 69.6997 65.7003 69.1997C66.4003 68.9997 67.2003 68.7997 67.9003 69.1997C68.7003 69.5997 69.0003 70.6997 69.0003 71.6997C69.2003 77.3997 65.7003 82.9997 60.5003 85.2997C46.9003 91.1997 53.6003 74.1997 60.9003 70.7997Z" fill="#231F20"/>
<path d="M61.1 71.2003C62.4 70.6003 63.8 70.2003 65.2 69.8003C65.8 69.6003 66.5 69.4003 67.1 69.4003C68 69.4003 68.4 70.3003 68.5 71.1003C68.9 73.3003 68.3 75.8003 67.3 77.9003C65.5 82.0003 61.9 84.9003 57.6 85.9003C55.7 86.4003 53.3 86.4003 53 84.0003C52.7 81.6003 53.8 79.3003 54.9 77.4003C56.4 74.9003 58.4 72.4003 61.1 71.2003C61.5 71.0003 61.1 70.3003 60.7 70.6003C58 71.9003 55.9 74.3003 54.4 76.8003C53.1 78.9003 51.8 81.8003 52.3 84.4003C52.8 87.0003 55.5 87.3003 57.7 86.7003C62.4 85.6003 66.3 82.3003 68.2 77.8003C68.7 76.5003 69.1 75.2003 69.2 73.8003C69.4 72.5003 69.5 71.0003 68.9 69.8003C68.3 68.5003 67 68.4003 65.8 68.8003C64 69.2003 62.3 69.7003 60.7 70.5003C60.3 70.7003 60.7 71.3003 61.1 71.1003V71.2003Z" fill="#231F20"/>
<path d="M53.7002 107.3C53.9002 106.2 54.2002 105.2 54.7002 104.2C56.2002 101.6 59.5002 100.6 62.5002 100C64.1002 99.7001 66.0002 99.5001 67.3002 100.5C68.0002 101.1 68.5002 101.9 68.8002 102.8C70.0002 106.4 69.4002 110.6 67.2002 113.7C65.0002 116.7 58.6002 120.7 54.8002 118.2C51.9002 116.3 53.2002 110.2 53.8002 107.3H53.7002Z" fill="#231F20"/>
<path d="M54.1002 107.4C54.5002 105.2 55.4002 103.4 57.3002 102.2C58.9002 101.2 60.8002 100.8 62.6002 100.4C64.8002 99.9998 67.0002 99.8998 68.1002 102.2C68.9002 104 69.2002 106.2 68.9002 108.1C68.4002 111.9 66.2002 114.8 63.0002 116.7C60.7002 118.1 56.2002 119.9 54.2002 117C53.2002 115.6 53.3002 113.7 53.4002 112.1C53.5002 110.5 53.8002 108.9 54.1002 107.3C54.1002 106.8 53.5002 106.6 53.4002 107.1C52.9002 110.2 51.8002 114.1 53.4002 117.1C55.2002 120.4 59.9002 119.3 62.6002 117.9C66.2002 116 68.9002 112.9 69.6002 108.8C70.0002 106.6 69.8002 104.3 68.9002 102.2C68.0002 100.1 66.4002 99.2999 64.2002 99.3999C61.9002 99.5999 59.4002 100.2 57.3002 101.3C55.0002 102.6 53.9002 104.6 53.4002 107.2C53.4002 107.7 54.0002 107.9 54.1002 107.4Z" fill="#231F20"/>
<path d="M51.0002 138.3C53.0002 135.1 56.6002 132.6 60.3002 133C61.0002 133 61.8003 133.3 62.4003 133.7C63.4003 134.4 63.9002 135.7 64.0002 137C64.3002 139.8 63.1002 142.5 61.5002 144.8C60.0002 147 58.0002 149 55.5002 149.8C46.2002 153 47.9003 143.1 50.9003 138.2L51.0002 138.3Z" fill="#231F20"/>
<path d="M51.2996 138.5C52.3996 136.8 53.7996 135.3 55.5996 134.4C57.3996 133.5 59.7996 132.9 61.6996 133.7C63.8996 134.7 63.8996 137.7 63.4996 139.7C62.9996 141.8 61.9996 143.7 60.6996 145.4C59.4996 147 57.9996 148.4 56.1996 149.2C54.8996 149.8 53.1996 150.2 51.6996 150C49.4996 149.7 48.8996 147.6 48.9996 145.7C48.9996 143.2 49.9996 140.6 51.2996 138.5C51.4996 138.1 50.8996 137.7 50.5996 138.1C49.1996 140.3 48.2996 143.1 48.0996 145.7C48.0996 147.9 48.7996 150.3 51.1996 150.7C52.7996 151 54.4996 150.6 55.8996 150C57.9996 149.2 59.6996 147.6 60.9996 145.8C62.4996 143.9 63.6996 141.7 64.0996 139.3C64.3996 137.3 64.2996 134.8 62.6996 133.3C60.8996 131.8 57.9996 132.2 55.9996 133C53.6996 134 51.7996 135.7 50.4996 137.8C50.1996 138.2 50.8996 138.6 51.1996 138.2L51.2996 138.5Z" fill="#231F20"/>
<path d="M53.5996 170.599C54.2996 168.099 55.2996 165.599 56.8996 163.599C58.4996 161.599 60.7996 159.999 63.3996 159.599C64.5996 159.399 65.8996 159.599 66.7996 160.399C67.3996 160.899 67.6996 161.699 67.9996 162.399C70.0996 168.499 67.0996 175.899 61.3996 178.899C60.1996 179.499 58.8996 179.999 57.5996 180.399C54.3996 181.399 53.0996 182.599 52.1996 179.499C51.4996 177.199 52.8996 172.999 53.5996 170.699V170.599Z" fill="#231F20"/>
<path d="M53.9997 170.701C55.1997 166.501 57.3997 161.901 61.7997 160.401C62.6997 160.101 63.6997 159.901 64.5997 160.001C66.0997 160.101 66.9997 161.001 67.4997 162.401C68.0997 164.101 68.2997 165.901 68.1997 167.601C67.8997 171.201 66.1998 174.701 63.3998 177.101C61.7998 178.501 59.7997 179.301 57.7997 179.901C56.9997 180.101 56.2997 180.401 55.5997 180.701C55.0997 180.901 54.3997 181.201 53.7997 181.101C52.0997 180.801 52.2997 177.701 52.4997 176.501C52.7997 174.601 53.3998 172.701 53.8998 170.801C53.9998 170.301 53.2997 170.101 53.1997 170.601C52.5997 172.601 51.9997 174.601 51.6997 176.701C51.4997 178.201 51.4997 180.401 52.6997 181.401C53.6997 182.301 55.1997 181.601 56.2997 181.201C58.4997 180.401 60.7997 179.801 62.7997 178.401C66.0997 176.101 68.2997 172.301 68.7997 168.301C69.0997 166.201 68.7997 164.001 68.0997 162.001C67.3997 160.001 65.5998 159.001 63.3998 159.201C57.5998 159.801 54.4997 165.501 52.9997 170.501C52.8997 171.001 53.5997 171.201 53.6997 170.701H53.9997Z" fill="#231F20"/>
<path d="M17.7999 180.399C16.0999 177.299 14.2999 173.999 11.0999 172.399C9.29985 171.499 7.29986 171.299 5.29986 171.099C4.19986 170.999 3.09985 170.899 2.09985 171.299C0.999849 171.799 0.299886 173.099 0.199886 174.399C0.0998858 175.699 0.499849 176.899 1.09985 177.999C3.19985 182.399 7.79989 185.599 12.6999 186.099C18.4999 186.699 20.6999 185.899 17.7999 180.299V180.399Z" fill="#231F20"/>
<path d="M18.1997 180.2C16.1997 176.4 13.8997 172.6 9.59966 171.4C8.59966 171.1 7.49971 171 6.39971 170.8C5.19971 170.7 3.89969 170.4 2.69969 170.8C0.7997 171.3 -0.100312 173.2 -0.000312646 175.1C0.199688 179.1 3.69968 182.9 6.99968 184.7C8.69968 185.7 10.5997 186.3 12.5997 186.5C14.0997 186.7 15.7997 186.8 17.2997 186.5C18.2997 186.3 19.2997 185.8 19.4997 184.7C19.7997 183.2 18.8997 181.4 18.1997 180.1C17.9997 179.7 17.2997 180.1 17.4997 180.5C18.2997 182 19.8997 185.1 17.2997 185.7C16.0997 186 14.6997 185.9 13.4997 185.7C11.7997 185.5 10.0997 185.2 8.49969 184.5C5.29969 183 2.49969 180.3 1.19969 177C0.4997 175.1 0.3997 172.3 2.69969 171.5C3.69969 171.1 4.79967 171.3 5.79967 171.5C6.89968 171.6 7.99966 171.8 9.09966 172C13.3997 173.1 15.5997 176.9 17.5997 180.5C17.7997 180.9 18.4997 180.5 18.2997 180.1L18.1997 180.2Z" fill="#231F20"/>
<path d="M17.6999 148.5C16.7999 146.4 16.0999 144.2 14.6999 142.4C13.2999 140.6 11.0999 139.2 8.89992 139.5C7.49992 139.7 6.19988 140.5 5.29988 141.6C4.89988 142.1 4.49988 142.6 4.29988 143.2C3.39988 145.3 4.49988 147.8 5.79988 149.7C6.89988 151.1 8.09991 152.4 9.69991 153.3C13.2999 155.3 17.7999 154.9 21.6999 154.4C20.0999 152.7 18.6999 150.9 17.6999 148.6V148.5Z" fill="#231F20"/>
<path d="M18.0005 148.299C16.8005 145.399 15.7005 142.199 13.1005 140.299C10.7005 138.599 7.80049 138.699 5.50049 140.699C4.50049 141.599 3.70049 142.799 3.50049 144.199C3.30049 145.599 3.80049 147.099 4.50049 148.399C5.90049 151.099 8.3005 153.299 11.2005 154.399C14.6005 155.599 18.3005 155.199 21.8005 154.699C22.1005 154.699 22.1005 154.299 22.0005 154.099C20.4005 152.399 19.0005 150.499 18.1005 148.399C17.9005 147.999 17.3005 148.399 17.4005 148.799C18.4005 150.999 19.8005 152.899 21.4005 154.699L21.6005 154.099C18.9005 154.499 16.1005 154.799 13.4005 154.299C10.7005 153.799 8.40046 152.399 6.60046 150.199C4.80046 147.999 3.30047 144.899 5.30047 142.399C7.10047 139.999 10.1005 139.299 12.6005 140.999C15.1005 142.699 16.3005 146.099 17.5005 148.899C17.7005 149.299 18.3005 148.899 18.2005 148.499L18.0005 148.299Z" fill="#231F20"/>
<path d="M21.4005 116.3C19.8005 114.9 18.2005 113.5 16.2005 112.6C14.2005 111.7 12.0005 111.4 10.0005 112.2C8.00051 113 6.50052 115 6.70052 117.2C7.00052 120 9.90053 121.7 12.4005 123C13.3005 123.4 14.3005 123.9 15.3005 124C16.5005 124.2 25.5005 124.2 26.0005 123.6C27.7005 121.5 22.6005 117.4 21.4005 116.3Z" fill="#231F20"/>
<path d="M21.7002 116C18.4002 113 13.0002 109.3 8.60016 112.5C7.10016 113.6 6.00021 115.5 6.40021 117.5C6.70021 119.6 8.40016 121 10.1002 122.1C11.8002 123.2 13.7002 124.2 15.6002 124.4C16.8002 124.5 18.1002 124.4 19.4002 124.4C21.0002 124.4 22.7002 124.4 24.3002 124.2C25.1002 124.2 26.1002 124.2 26.5002 123.4C27.2002 122.1 26.2002 120.5 25.4002 119.5C24.3002 118.2 23.0002 117 21.7002 115.9C21.3002 115.6 20.8002 116.1 21.2002 116.4C22.0002 117.2 22.9002 117.9 23.7002 118.7C24.6002 119.6 25.7002 120.7 26.0002 122C26.2002 123.2 25.5002 123.2 24.6002 123.3C23.4002 123.4 22.1002 123.5 20.9002 123.5C18.6002 123.5 16.1002 123.8 13.9002 122.9C10.7002 121.6 5.20018 118.6 7.80018 114.4C9.20018 112.1 12.1002 111.6 14.6002 112.2C17.2002 112.9 19.3002 114.6 21.3002 116.4C21.7002 116.7 22.2002 116.2 21.8002 115.9L21.7002 116Z" fill="#231F20"/>
<path d="M18.9997 83.6999C17.9997 81.8999 16.9998 80.0999 15.3998 78.8999C13.7998 77.6999 11.3997 77.2999 9.79971 78.4999C8.19971 79.6999 7.8997 82.0999 8.0997 84.0999C8.3997 87.6999 9.69975 91.5999 12.8998 93.3999C16.4997 95.2999 21.6997 94.3999 25.4997 94.6999C22.9997 91.2999 21.0997 87.2999 18.9997 83.5999V83.6999Z" fill="#231F20"/>
<path d="M19.3005 83.6001C17.8005 81.0001 16.1005 78.1001 12.9005 77.6001C10.1005 77.2001 8.10051 79.1001 7.70051 81.8001C7.30051 84.5001 7.9005 87.4001 9.0005 89.8001C10.2005 92.4001 12.3005 94.2001 15.2005 94.8001C18.6005 95.6001 22.1005 95.0001 25.5005 95.2001C25.8005 95.2001 26.0005 94.9001 25.8005 94.6001C23.3005 91.1001 21.4005 87.3001 19.3005 83.5001C19.1005 83.1001 18.4005 83.5001 18.6005 83.9001C20.7005 87.6001 22.5005 91.5001 25.1005 95.0001L25.4005 94.4001C20.6005 94.1001 14.3005 95.6001 10.8005 91.3001C9.20048 89.4001 8.50048 86.8001 8.30048 84.4001C8.10048 82.0001 8.5005 78.5001 11.5005 78.2001C15.0005 77.8001 17.1005 81.2001 18.6005 83.9001C18.8005 84.3001 19.5005 83.9001 19.3005 83.5001V83.6001Z" fill="#231F20"/>
<path d="M21.1997 54.2C20.5997 53.1 19.9997 52 19.1997 51.2C17.0997 49.2 13.8997 49 10.9997 49C9.69971 49 8.29973 49 7.19973 49.6C6.19973 50.1 5.39974 51.1 4.89974 52.1C4.39974 52.9 4.09971 53.8 3.99971 54.7C3.89971 56.3 4.59973 57.8 5.69973 58.9C6.79973 60 8.09974 60.9 9.39974 61.7C10.5997 62.4 11.7997 63.2 13.1997 63.7C17.6997 65.3 22.9997 63.5 27.1997 65.7C24.6997 62.9 23.1997 57.6 21.3997 54.1L21.1997 54.2Z" fill="#231F20"/>
<path d="M21.4998 54.0004C20.7998 52.6004 19.9998 51.2004 18.6998 50.3004C17.4998 49.4004 15.9998 49.0004 14.4998 48.8004C11.4998 48.4004 7.49985 47.9004 5.39985 50.5004C3.29985 53.1004 2.79985 56.2004 4.89985 58.8004C5.99985 60.2004 7.5998 61.2004 9.0998 62.1004C10.5998 63.0004 12.2998 64.0004 14.0998 64.4004C18.2998 65.4004 22.8998 64.1004 26.8998 66.1004C27.2998 66.3004 27.5998 65.8004 27.3998 65.5004C24.5998 62.2004 23.5998 57.8004 21.5998 54.0004C21.3998 53.6004 20.6998 54.0004 20.8998 54.4004C22.8998 58.2004 23.8998 62.7004 26.7998 66.1004L27.2998 65.5004C23.8998 63.8004 20.0998 64.4004 16.4998 64.1004C14.1998 63.9004 12.1998 63.1004 10.2998 61.9004C8.49982 60.8004 6.49982 59.7004 5.29982 57.9004C3.89982 55.8004 4.2998 53.7004 5.5998 51.7004C6.9998 49.5004 8.99985 49.3004 11.3998 49.4004C13.1998 49.4004 15.0998 49.5004 16.8998 50.2004C18.8998 51.0004 19.9998 52.6004 20.9998 54.5004C21.1998 54.9004 21.8998 54.5004 21.6998 54.1004L21.4998 54.0004Z" fill="#231F20"/>
<path d="M17.9998 19.0003C15.9998 18.1003 13.4998 17.6003 11.6998 18.9003C9.69979 20.3003 9.39975 23.2003 10.0998 25.5003C10.7998 27.8003 12.4998 29.7003 13.8998 31.8003C14.7998 33.2003 15.5998 34.6003 16.6998 35.8003C20.1998 39.1003 29.7998 41.3003 29.0998 34.2003C28.5998 28.3003 23.1998 21.5003 17.8998 19.0003H17.9998Z" fill="#231F20"/>
<path d="M18.2001 18.6C16.1001 17.6 13.4001 17.1 11.3001 18.6C9.70012 19.8 9.20016 22.1 9.40016 24C9.70016 26.7 11.5001 28.9 13.0001 31.1C14.3001 33.1 15.4001 35.3 17.4001 36.7C19.8001 38.4 23.3001 39.7 26.3001 39C30.1001 38.1 29.9001 34.1 28.9001 31.1C27.2001 25.9 23.1001 21 18.1001 18.6C17.7001 18.4 17.3001 19 17.7001 19.2C21.7001 21.1 24.9001 24.6 26.9001 28.5C28.1001 30.9 30.3001 36.1 27.1001 37.9C24.8001 39.2 21.5001 38.2 19.3001 37.1C17.8001 36.4 16.6001 35.4 15.7001 34C15.0001 33 14.4001 32 13.7001 31C13.0001 29.9 12.2001 28.9 11.5001 27.8C10.2001 25.7 9.30012 23.2 10.3001 20.8C11.6001 17.8 15.1001 18.1 17.6001 19.2C18.0001 19.4 18.4001 18.7 18.0001 18.6H18.2001Z" fill="#231F20"/>
<path d="M53.7004 28.0996C49.5004 30.3996 45.6004 33.8996 42.9004 37.8996C41.8004 39.5996 40.9004 41.4996 40.4004 43.5996C40.3004 44.0996 41.0004 44.2996 41.1004 43.7996C42.5004 37.6996 47.6004 32.8996 52.7004 29.5996C53.1004 29.2996 53.6004 28.9996 54.0004 28.7996C54.4004 28.5996 54.0004 27.8996 53.6004 28.1996L53.7004 28.0996Z" fill="#231F20"/>
<path d="M38.5002 136C38.8002 134.5 39.9002 133.1 40.7002 131.9C42.2002 129.9 43.8002 128 45.5002 126.2C48.8002 122.5 52.4002 119 56.0002 115.5C56.8002 114.7 57.6002 114 58.4002 113.3C57.8002 113.8 56.9002 114 56.3002 114.5C54.1002 116.5 52.0002 118.6 49.8002 120.8C46.1002 124.5 42.4002 128.3 39.2002 132.5C39.0002 132.7 38.8002 133 38.6002 133.3C38.7002 127.6 38.8002 121.9 39.0002 116.2C39.1002 111.2 39.2002 106.1 39.4002 101.1C44.4002 95.7998 49.4002 90.3998 54.4002 85.0998C55.1002 84.2998 55.8002 83.5998 56.6002 82.7998C56.1002 83.3998 55.0002 83.3998 54.5002 83.9998C49.5002 89.2998 44.5002 94.6998 39.5002 99.9998C39.5002 95.9998 39.7002 91.9998 39.8002 87.8998C40.0002 82.1998 40.1002 76.4998 40.3002 70.6998C40.4002 70.6998 40.6002 70.4998 40.7002 70.3998C45.3002 65.5998 50.0002 60.7998 54.6002 55.9998C55.3002 55.2998 55.9002 54.5998 56.6002 53.8998C56.1002 54.4998 55.0002 54.4998 54.5002 55.0998C49.9002 59.8998 45.2002 64.6998 40.6002 69.4998C40.6002 69.4998 40.4002 69.6998 40.4002 69.7998C40.4002 68.6998 40.4002 67.6998 40.5002 66.5998C40.6002 62.7998 40.7002 58.9998 41.1002 55.2998C42.2002 44.5998 42.5002 33.9998 42.6002 23.2998V20.2998C42.6002 20.6998 40.5002 21.0998 40.5002 21.4998C40.5002 29.4998 40.5002 37.4998 40.1002 45.3998C36.4002 42.1998 32.7002 38.9998 29.0002 35.6998L27.2002 34.1998C27.1002 34.1998 26.2002 34.8998 26.2002 34.7998C30.4002 38.3998 34.5002 42.0998 38.7002 45.6998C39.1002 46.0998 39.6002 46.4998 40.0002 46.7998C39.9002 48.6998 39.7002 50.6998 39.5002 52.5998C39.1002 56.4998 38.8002 60.1998 38.6002 64.0998C38.4002 67.4998 38.3002 70.9998 38.2002 74.3998C33.5002 70.3998 28.8002 66.4998 24.2002 62.4998C23.4002 61.8998 22.7002 61.1998 22.0002 60.5998C21.9002 60.5998 21.0002 61.2998 21.0002 61.1998C26.2002 65.5998 31.4002 69.9998 36.6002 74.3998C37.2002 74.8998 37.8002 75.3998 38.3002 75.8998C38.3002 78.3998 38.1002 80.7998 38.1002 83.1998C37.9002 89.5998 37.8002 95.8998 37.6002 102.3C37.6002 104 37.6002 105.8 37.5002 107.5C33.0002 102.8 28.6002 98.0998 24.2002 93.3998C23.5002 92.6998 22.8002 91.8998 22.1002 91.1998C22.1002 91.1998 21.1002 91.8998 21.1002 91.7998C26.1002 96.9998 31.0002 102.3 35.9002 107.5C36.4002 108 36.9002 108.6 37.5002 109.2C37.5002 109.5 37.5002 109.8 37.5002 110.1C37.3002 118.8 37.1002 127.5 36.9002 136.1C36.7002 135.8 36.4002 135.4 36.2002 135.1C35.1002 133.5 33.9002 131.9 32.6002 130.4C30.3002 127.6 27.8002 124.9 25.3002 122.4C24.8002 121.9 24.2002 121.3 23.7002 120.8C23.7002 120.8 22.7002 121.5 22.7002 121.4C27.0002 125.7 31.3002 130.2 34.8002 135.2C35.5002 136.2 36.3002 137.4 36.8002 138.5C36.8002 139.5 36.8002 140.5 36.8002 141.4C36.6002 149.2 36.5002 157 36.3002 164.8C36.3002 164.8 36.3002 164.9 36.2002 165C36.2002 165 36.2002 165 36.3002 164.9C36.3002 166.1 36.3002 167.3 36.3002 168.6C31.7002 163.9 27.1002 159.3 22.5002 154.6C21.8002 153.9 21.1002 153.1 20.3002 152.4C19.5002 151.7 19.3002 153.1 19.3002 153C24.4002 158.2 29.6002 163.4 34.7002 168.5C35.2002 169.1 35.8002 169.6 36.4002 170.2C36.4002 171.7 36.4002 173.2 36.4002 174.7C36.2002 183.4 36.1002 192 35.9002 200.6C35.4002 200 34.9002 199.4 34.4002 198.9C32.8002 197.1 31.1002 195.4 29.4002 193.7C26.2002 190.5 22.9002 187.4 19.5002 184.4C19.0002 183.9 18.4002 183.4 17.9002 183C17.7002 182.9 17.4002 182.5 17.2002 182.5C16.9002 182.5 16.4002 183.2 16.2002 183.1C16.4002 183.1 16.6002 183.4 16.7002 183.5C17.2002 183.9 17.6002 184.3 18.0002 184.6C19.5002 185.9 20.9002 187.2 22.3002 188.5C25.9002 191.8 29.4002 195.2 32.7002 198.8C33.8002 200 34.9002 201.2 35.8002 202.5C35.8002 203.8 35.8002 205.1 35.8002 206.4C35.6002 215.5 35.5002 224.7 35.3002 233.8C35.2002 240.5 35.1002 247.2 35.0002 253.9C35.0002 256 35.0002 258.1 34.9002 260.1C34.9002 261.2 34.7002 262.3 34.9002 263.4C34.9002 263.5 34.9002 263.7 34.9002 263.8C34.9002 263.4 37.0002 263 37.0002 262.6C37.0002 260.4 37.0002 258.2 37.1002 256C37.1002 250.1 37.3002 244.2 37.4002 238.2C37.6002 229.6 37.7002 221 37.9002 212.3C37.9002 207.2 38.1002 202.1 38.2002 197C39.1002 196.4 40.0002 195.8 40.8002 195C42.4002 193.5 43.9002 192 45.4002 190.4C48.5002 187.1 51.5002 183.7 54.4002 180.2C55.1002 179.4 55.7002 178.7 56.3002 177.9C56.1002 178.1 55.5002 178.3 55.2002 178.5C54.9002 178.7 54.4002 178.8 54.2002 179.1C49.8002 184.4 45.3002 189.7 40.4002 194.5C39.7002 195.2 38.9002 195.9 38.2002 196.6C38.2002 191.4 38.4002 186.3 38.5002 181.1C38.6002 175.2 38.7002 169.3 38.8002 163.4C41.9002 158.2 45.6002 153.2 49.8002 148.8C51.3002 147.2 53.0002 145.6 54.9002 144.4C54.4002 144.7 53.5002 145.2 52.9002 145.6C49.5002 147.8 46.7002 150.9 44.2002 154.1C42.3002 156.4 40.6002 158.9 38.9002 161.4C38.9002 157 39.1002 152.6 39.2002 148.2C39.2002 144.1 39.4002 140 39.5002 135.9L38.5002 136Z" fill="#231F20"/>
<path d="M38.8002 136.1C39.3002 133.8 41.2001 131.7 42.6001 129.9C44.2001 128 45.9001 126.1 47.6001 124.3C51.1001 120.6 54.7002 117 58.5002 113.5C58.9002 113.2 58.3002 112.7 58.0002 113C57.2002 113.6 56.3002 113.9 55.5002 114.5C54.6002 115.3 53.7002 116.2 52.8002 117.1C51.1002 118.8 49.3001 120.5 47.6001 122.2C44.3001 125.6 41.1001 129.1 38.1001 132.9L38.8002 133.1C39.0002 123.7 39.2002 114.2 39.5002 104.8C39.5002 103.8 39.3002 102.4 39.5002 101.4C39.7002 100.4 41.1002 99.4004 41.8002 98.6004C43.5002 96.8004 45.2002 95.0004 46.9002 93.1004C50.1002 89.7004 53.3001 86.2004 56.6001 82.8004C56.9001 82.4004 56.4001 82.0004 56.1001 82.3004C55.5001 82.8004 54.8002 82.9004 54.2002 83.3004C53.5002 83.8004 52.9002 84.7004 52.3002 85.3004C50.8002 86.9004 49.3002 88.5004 47.9002 90.0004C44.9002 93.2004 42.0002 96.3004 39.0002 99.5004L39.6001 99.8004C39.8001 90.9004 40.0002 82.1004 40.3002 73.3004C40.3002 72.6004 40.1002 71.4004 40.5002 70.7004C40.9002 69.9004 42.1002 69.1004 42.7002 68.4004C44.2002 66.8004 45.8002 65.2004 47.3002 63.6004C50.4002 60.4004 53.5001 57.2004 56.6001 54.0004C56.9001 53.6004 56.4001 53.2004 56.1001 53.5004C55.6001 54.0004 54.8002 54.1004 54.3002 54.5004C53.6002 55.0004 53.1002 55.7004 52.5002 56.3004C51.1002 57.8004 49.7002 59.2004 48.3002 60.7004C45.5002 63.6004 42.7002 66.5004 39.9002 69.4004L40.5002 69.7004C40.6002 65.6004 40.7002 61.5004 41.0002 57.3004C41.3002 53.1004 41.8002 48.9004 42.0002 44.8004C42.5002 36.6004 42.7001 28.3004 42.6001 20.0004C42.6001 19.5004 42.0002 19.5004 41.9002 19.9004C41.8002 20.2004 40.6002 20.4004 40.2002 20.6004C39.7002 20.9004 39.7002 21.1004 39.7002 21.7004C39.7002 24.3004 39.7002 26.9004 39.7002 29.5004C39.7002 34.7004 39.5002 39.9004 39.2002 45.1004L39.8002 44.8004C37.0002 42.3004 34.1002 39.9004 31.3002 37.4004C30.0002 36.2004 28.6002 35.1004 27.3002 33.9004C26.3002 33.1004 26.5002 33.9004 25.5002 34.1004C25.2002 34.1004 25.1002 34.6004 25.3002 34.7004C28.2002 37.2004 31.1002 39.7004 33.9002 42.2004C35.3002 43.4004 36.7001 44.6004 38.1001 45.8004C39.0001 46.6004 38.9002 47.2004 38.8002 48.3004C38.8002 49.3004 38.6001 50.2004 38.6001 51.2004C37.9001 58.8004 37.5002 66.4004 37.2002 74.0004L37.8002 73.7004C34.4002 70.8004 31.0002 67.9004 27.5002 65.0004C25.9002 63.6004 24.2001 62.2004 22.6001 60.8004C22.2001 60.5004 21.7001 59.7004 21.1001 59.8004C20.7001 59.8004 20.4002 60.3004 20.0002 60.4004C19.7002 60.4004 19.6002 60.9004 19.8002 61.0004C23.0002 63.7004 26.1002 66.4004 29.3002 69.0004C30.8002 70.3004 32.3002 71.6004 33.9002 72.9004C34.6002 73.5004 35.4001 74.1004 36.1001 74.8004C37.1001 75.7004 37.0002 76.3004 37.0002 77.6004C36.9002 81.6004 36.8002 85.6004 36.7002 89.6004C36.7002 91.6004 36.7002 93.5004 36.5002 95.5004C36.5002 96.5004 36.5002 97.5004 36.5002 98.4004C36.5002 99.0004 36.5002 99.5004 36.5002 100.1C36.5002 100.4 36.6002 101.5 36.5002 101.6C36.2002 101.9 36.5002 102.4 37.0002 102.2L36.4002 101.8C36.4002 103.5 36.4002 105.3 36.3002 107L36.9002 106.7C33.6002 103.2 30.3002 99.7004 27.0002 96.2004C25.5002 94.6004 23.9002 93.0004 22.4002 91.3004C22.1002 91.0004 21.7002 90.2004 21.2002 90.3004C20.8002 90.3004 20.5001 90.8004 20.1001 90.9004C19.8001 90.9004 19.8002 91.3004 19.9002 91.5004C22.8002 94.6004 25.7002 97.7004 28.7002 100.8C30.2002 102.3 31.6001 103.9 33.1001 105.4C33.8001 106.1 34.4001 106.8 35.1001 107.5C35.4001 107.8 35.8002 108.1 36.0002 108.5C36.3002 109 36.2002 109.7 36.2002 110.2C36.0002 118.6 35.8001 127.1 35.6001 135.5L36.3002 135.3C34.0002 131.8 31.3002 128.5 28.4002 125.4C26.9002 123.8 25.4002 122.2 23.9002 120.6C23.6002 120.3 23.2002 119.7 22.7002 119.7C22.3002 119.7 22.0002 120.2 21.7002 120.3C21.4002 120.3 21.4002 120.8 21.5002 120.9C24.2002 123.6 26.9002 126.4 29.4002 129.3C30.7002 130.8 32.0002 132.5 33.2002 134.1C33.7002 134.9 34.3002 135.7 34.8002 136.5C35.4002 137.5 35.6001 138.2 35.6001 139.3C35.6001 143.4 35.4002 147.6 35.3002 151.7C35.3002 153.7 35.3002 155.7 35.2002 157.7C35.2002 158.7 35.2002 159.7 35.2002 160.7C35.2002 161.3 35.2002 161.9 35.2002 162.4C35.2002 162.9 35.3001 163.7 35.1001 164.2C34.9001 164.6 35.4002 164.9 35.7002 164.7H35.8002C35.8002 164.6 35.2002 164.3 35.2002 164.3C35.2002 165.5 35.2002 166.7 35.2002 168L35.8002 167.7C32.4002 164.3 29.0001 160.8 25.6001 157.4C24.0001 155.8 22.4002 154.1 20.7002 152.5C20.4002 152.2 20.0002 151.4 19.4002 151.5C19.0002 151.5 18.7002 152 18.3002 152.1C18.0002 152.1 18.0001 152.5 18.1001 152.7C21.3001 155.9 24.4002 159.1 27.5002 162.2C29.1002 163.9 30.8002 165.5 32.4002 167.2C33.1002 167.9 34.3002 168.7 34.8002 169.6C35.3002 170.5 35.0002 171.9 35.0002 172.9C34.8002 182 34.7002 191 34.5002 200.1L35.1001 199.8C31.8001 195.8 28.1002 192.2 24.3002 188.7C22.4002 186.9 20.5001 185.2 18.6001 183.5C18.0001 183 17.3002 182 16.5002 181.7C15.8002 181.4 15.7002 182 15.0002 182.2C14.7002 182.2 14.6002 182.7 15.0002 182.9C16.0002 183.4 17.0002 184.6 17.9002 185.4C19.0002 186.4 20.1001 187.4 21.1001 188.3C23.2001 190.2 25.2002 192.2 27.3002 194.2C29.4002 196.2 31.1002 198 32.9002 200.1C33.4002 200.6 34.0002 201.3 34.4002 201.9C34.8002 202.5 34.6001 203.3 34.6001 204C34.6001 205.6 34.6001 207.1 34.6001 208.7C34.4001 220.4 34.2002 232.1 34.0002 243.9C33.9002 250.4 33.8002 256.9 33.7002 263.4C33.7002 263.9 34.3002 263.9 34.4002 263.4C34.6002 263 35.9002 262.9 36.3002 262.5C36.9002 261.9 36.6001 260.5 36.6001 259.7C36.6001 256.5 36.7002 253.2 36.8002 250C36.9002 243.4 37.0001 236.8 37.1001 230.2C37.2001 223.6 37.3002 217 37.5002 210.3C37.5002 207 37.6002 203.7 37.7002 200.5C37.7002 199.7 37.7002 198.9 37.7002 198C37.7002 197.1 37.7002 196.8 38.4002 196.3C39.5002 195.5 40.6001 194.5 41.6001 193.6C46.7001 188.7 51.3002 183.2 55.8002 177.8C56.1002 177.4 55.6002 177 55.3002 177.3C54.7002 177.8 53.8002 178 53.2002 178.5C52.4002 179.2 51.8001 180.2 51.1001 181C49.6001 182.8 48.1002 184.6 46.5002 186.3C43.6002 189.6 40.6002 193.1 37.2002 195.9L37.8002 196.2C38.0002 186.4 38.2002 176.5 38.4002 166.7C38.4002 165.5 38.2001 163.9 38.6001 162.8C39.0001 161.8 39.8002 160.9 40.4002 160C41.7002 158.1 43.0002 156.2 44.4002 154.4C47.2002 150.7 50.4002 146.9 54.3002 144.4C54.7002 144.1 54.3002 143.5 53.9002 143.7C52.4002 144.6 51.0002 145.4 49.7002 146.5C48.1002 147.8 46.7002 149.3 45.3002 150.8C42.5002 153.9 40.1002 157.3 37.7002 160.8L38.4002 161C38.6002 152.5 38.7002 144 38.9002 135.5C38.9002 135 38.2001 135 38.1001 135.5C37.9001 144 37.7001 152.5 37.6001 161C37.6001 161.4 38.1002 161.5 38.3002 161.2C40.6002 157.8 43.0002 154.4 45.7002 151.3C46.9002 149.9 48.3002 148.5 49.7002 147.3C51.1002 146.1 52.6001 145.3 54.1001 144.4L53.7002 143.7C49.8002 146.2 46.7002 149.9 43.9002 153.5C42.5002 155.3 41.2002 157.1 39.9002 159C39.2002 160 38.6002 161 38.0002 162C37.4002 163 37.5002 163.7 37.5002 164.9C37.3002 175.3 37.1002 185.7 36.9002 196.1C36.9002 196.4 37.3002 196.6 37.5002 196.4C40.9002 193.6 43.9002 190.1 46.8002 186.8C48.4002 185 49.9002 183.3 51.4002 181.5C52.1002 180.7 52.7002 179.7 53.5002 179C54.1002 178.5 55.0001 178.3 55.6001 177.8L55.1001 177.3C51.1001 182.1 46.9002 186.9 42.5002 191.5C41.4002 192.6 40.3002 193.7 39.2002 194.7C38.5002 195.3 37.0002 195.9 36.8002 196.9C36.6002 198.4 36.8002 200.1 36.8002 201.6C36.8002 203.3 36.8002 205.1 36.8002 206.8C36.6002 220.1 36.3001 233.4 36.1001 246.7C36.1001 250.3 36.0002 253.9 35.9002 257.5C35.9002 258.5 35.9002 259.4 35.9002 260.3C35.9002 260.9 36.1001 261.8 35.6001 262.3C35.1001 262.8 34.1002 262.6 33.8002 263.3H34.5002C34.7002 251.4 34.9001 239.4 35.1001 227.4C35.2001 221.3 35.3002 215.1 35.4002 209C35.4002 207.5 35.4002 206 35.4002 204.6C35.4002 203.9 35.5002 203.1 35.4002 202.4C35.4002 201.9 35.2002 201.7 34.8002 201.2C33.1002 199 31.2002 197 29.3002 195.1C27.0002 192.7 24.6002 190.5 22.2002 188.2C21.0002 187.1 19.8001 186 18.6001 184.9C17.7001 184.1 16.7001 182.9 15.6001 182.3V183C15.7001 183 15.9001 182.8 16.1001 182.7C16.8001 182.5 17.1001 183 17.6001 183.4C18.4001 184.1 19.2002 184.8 20.0002 185.5C21.7002 187.1 23.5001 188.7 25.1001 190.3C28.5001 193.5 31.9002 196.8 34.8002 200.4C35.0002 200.7 35.4002 200.4 35.4002 200.1C35.6002 190.7 35.7002 181.3 35.9002 171.9C35.9002 171.2 36.2002 170 35.9002 169.4C35.5002 168.6 34.3002 167.8 33.7002 167.2C32.1002 165.5 30.4002 163.9 28.8002 162.2C25.5002 158.8 22.2002 155.5 18.8002 152.1L18.6001 152.7C18.9001 152.7 19.3001 152.1 19.6001 152.1C19.6001 152.1 20.1002 152.8 20.3002 152.9C20.7002 153.3 21.1002 153.7 21.5002 154.1C23.0002 155.6 24.5002 157.1 26.0002 158.6C29.1002 161.8 32.2002 164.9 35.3002 168.1C35.5002 168.3 35.9002 168.1 35.9002 167.8C35.9002 166.6 35.9002 165.4 35.9002 164.1C35.9002 163.8 35.5002 163.6 35.3002 163.8H35.2002C35.2002 163.9 35.8002 164.4 35.8002 164.4C36.2002 163.8 36.0002 162.7 36.0002 162C36.0002 160.8 36.0002 159.7 36.0002 158.5C36.0002 156.3 36.0001 154.2 36.1001 152C36.1001 147.5 36.3002 143.1 36.4002 138.6C36.4002 137.6 36.4002 137.2 35.8002 136.3C35.4002 135.5 34.9002 134.8 34.4002 134.1C33.2002 132.4 32.0002 130.8 30.7002 129.3C28.0002 126.1 25.2002 123.1 22.2002 120.2L22.0002 120.8C22.3002 120.8 22.6002 120.3 22.9002 120.3C23.1002 120.3 24.2002 121.6 24.5002 121.9C25.9002 123.3 27.2002 124.7 28.5002 126.2C31.1002 129.1 33.7002 132.1 35.8002 135.4C36.0002 135.7 36.5002 135.6 36.5002 135.2C36.7002 126.4 36.9001 117.7 37.1001 108.9C37.1001 107.9 37.1002 108 36.4002 107.3C35.6002 106.5 34.9001 105.7 34.1001 104.9C32.6001 103.4 31.2002 101.8 29.7002 100.3C26.7002 97.1004 23.6001 93.9004 20.6001 90.7004L20.4002 91.3004C20.7002 91.3004 21.1002 90.7004 21.4002 90.7004L22.0002 91.5004C22.3002 91.8004 22.6002 92.1004 22.9002 92.4004C24.4002 94.0004 25.9002 95.6004 27.5002 97.2004C30.5002 100.4 33.5001 103.6 36.6001 106.8C36.8001 107 37.2002 106.8 37.2002 106.5C37.2002 104.8 37.2002 103 37.3002 101.3C37.3002 101 37.0002 100.8 36.7002 101L37.2002 101.7C37.6002 101.3 37.4002 100.4 37.4002 99.9004C37.4002 98.8004 37.4002 97.6004 37.4002 96.5004C37.4002 94.4004 37.5001 92.3004 37.6001 90.1004C37.7001 85.8004 37.8002 81.5004 38.0002 77.1004C38.0002 76.5004 38.3002 75.3004 38.0002 74.7004C37.6002 74.0004 36.4002 73.3004 35.8002 72.8004C34.1002 71.4004 32.5002 70.0004 30.9002 68.6004C27.5002 65.7004 24.1002 62.8004 20.7002 59.9004L20.5002 60.5004C20.8002 60.5004 21.1002 59.9004 21.4002 60.0004C21.6002 60.0004 22.1002 60.6004 22.3002 60.8004C22.7002 61.1004 23.1002 61.4004 23.4002 61.8004C25.0002 63.1004 26.6002 64.5004 28.2002 65.8004C31.3002 68.4004 34.4002 71.0004 37.5002 73.7004C37.7002 73.9004 38.1001 73.7004 38.1001 73.4004C38.2001 69.4004 38.3001 65.4004 38.6001 61.4004C38.8001 57.5004 39.3001 53.6004 39.6001 49.7004C39.6001 48.7004 39.8002 47.8004 39.8002 46.8004C39.8002 46.0004 40.0002 45.8004 39.4002 45.3004C38.0002 44.0004 36.5001 42.8004 35.1001 41.6004C32.0001 38.9004 29.0002 36.2004 25.9002 33.6004L25.7002 34.2004C26.0002 34.2004 26.2002 33.8004 26.4002 33.8004C26.8002 33.7004 26.7001 33.8004 27.1001 34.1004C27.3001 34.3004 27.6002 34.5004 27.8002 34.7004C29.1002 35.8004 30.4002 36.9004 31.7002 38.1004C34.2002 40.3004 36.7002 42.5004 39.3002 44.7004C39.5002 44.9004 39.9002 44.7004 39.9002 44.4004C40.2002 39.4004 40.3002 34.3004 40.3002 29.3004C40.3002 26.9004 40.3002 24.4004 40.3002 22.0004C40.3002 21.5004 40.2001 20.8004 40.6001 20.5004C41.0001 20.2004 41.3002 20.2004 41.5002 20.1004C41.9002 19.9004 42.2002 19.8004 42.4002 19.4004H41.7002C41.7002 27.6004 41.6001 35.8004 41.1001 44.1004C40.9001 48.2004 40.4001 52.3004 40.1001 56.4004C39.8001 60.5004 39.7001 64.8004 39.6001 69.0004C39.6001 69.3004 40.0002 69.5004 40.2002 69.3004C43.0002 66.4004 45.8001 63.5004 48.6001 60.6004C50.0001 59.2004 51.3002 57.8004 52.7002 56.4004C53.4002 55.7004 54.0002 54.8004 54.8002 54.4004C55.4002 54.1004 56.0002 53.9004 56.5002 53.5004L56.0002 53.0004C52.8002 56.3004 49.7002 59.5004 46.5002 62.8004C44.9002 64.4004 43.3002 66.1004 41.7002 67.7004C41.3002 68.1004 40.9002 68.5004 40.5002 68.9004C40.3002 69.1004 39.7001 69.5004 39.6001 69.7004C39.3001 70.3004 39.4002 71.3004 39.4002 71.9004C39.1002 81.0004 38.9001 90.1004 38.6001 99.2004C38.6001 99.5004 39.0002 99.7004 39.2002 99.5004C42.2002 96.3004 45.1001 93.2004 48.1001 90.0004C49.6001 88.4004 51.1002 86.8004 52.5002 85.3004C53.2002 84.6004 53.8001 83.7004 54.6001 83.2004C55.2001 82.8004 55.8002 82.7004 56.3002 82.3004L55.8002 81.8004C52.5002 85.4004 49.1002 88.9004 45.8002 92.5004C44.1002 94.3004 42.4002 96.1004 40.7002 98.0004C40.1002 98.6004 38.9001 99.5004 38.6001 100.3C38.3001 101.1 38.6002 102.5 38.5002 103.4C38.3002 113.2 38.0002 122.9 37.8002 132.7C37.8002 133.1 38.3002 133.2 38.5002 132.9C41.5002 129 44.7002 125.5 48.2002 122C49.9002 120.3 51.5002 118.7 53.2002 117C54.0002 116.2 54.9002 115.3 55.8002 114.5C56.6002 113.8 57.5002 113.6 58.3002 113L57.8002 112.5C53.8002 116.2 50.0002 120 46.3002 124C44.5002 125.9 42.8002 127.8 41.2002 129.8C39.9002 131.5 38.4002 133.3 37.9002 135.4C37.9002 135.9 38.5001 136.1 38.6001 135.6L38.8002 136.1Z" fill="#231F20"/>
</g>
<defs>
<clipPath id="clip0_208_667">
<rect width="70" height="264" fill="white"/>
</clipPath>
</defs>
</svg>
