<svg width="110" height="120" viewBox="0 0 110 120" fill="none" xmlns="http://www.w3.org/2000/svg">
<g clip-path="url(#clip0_2165_1599)">
<path d="M109.465 58.729C108.15 49.5904 104.262 41.4098 97.7915 34.1781C94.1195 30.0786 89.9592 27.2596 84.9348 25.2421C84.747 25.1592 84.6813 24.9289 84.8034 24.7723C88.5693 20.074 91.1706 14.2979 92.6075 7.44389C92.8517 6.27392 92.8986 5.16844 92.739 4.10902C92.6075 3.21542 91.8374 2.53371 90.9077 2.50607C86.5971 2.36788 82.155 2.48764 77.5627 2.85614C68.8194 3.54706 62.0295 7.0846 57.1742 13.4503C56.0942 14.8782 55.9252 16.2877 55.2114 17.817C55.0706 18.1302 54.9579 18.121 54.8921 17.7801C54.601 16.3706 54.5822 15.2744 54.0188 13.957C52.6758 10.8156 51.3986 7.63734 50.1965 4.43145C49.849 3.501 49.2198 2.53371 48.3183 1.53877C44.3833 -2.79103 38.4292 3.07723 35.4334 6.31077C34.3253 7.49916 34.3253 8.62306 35.4334 9.77461C36.7764 11.1841 38.0724 12.6212 39.3308 14.0676C42.0824 17.2182 43.8574 21.1795 45.9892 24.7631C46.4588 25.5461 46.2428 25.8133 45.3506 25.5646C33.4519 22.1836 20.013 26.1726 11.7768 34.8875C2.37614 44.846 -0.826289 58.8488 0.178578 72.308C0.366403 74.8414 0.789011 77.4393 1.4464 80.1016C2.12257 82.8285 2.88326 85.3711 3.71909 87.7295C6.15143 94.5558 9.79524 100.912 14.6411 106.79C17.0077 109.664 20.3698 112.465 24.7368 115.201C25.3848 115.606 26.1361 115.975 26.9907 116.306C27.7607 116.61 28.5402 116.96 29.3291 117.356C30.6157 117.992 31.846 118.397 33.0105 118.554C34.7573 118.794 36.6355 119.088 38.6546 119.438C40.5235 119.761 42.4769 119.936 44.496 119.963C47.4918 120.01 68.1808 120.083 71.9843 119.65C72.3223 119.604 72.651 119.65 72.961 119.77C73.3178 119.908 73.6653 119.908 74.0034 119.788C74.5575 119.577 74.8486 119.475 74.8956 119.466C81.5164 118.13 87.1981 115.284 91.9501 110.926C98.2892 105.113 103.032 98.0841 106.197 89.8575C106.262 89.7009 106.422 89.3969 106.685 88.9639C107.126 88.2269 107.004 87.2504 107.164 86.6516C107.615 84.9566 108.056 83.2615 108.488 81.5572C108.573 81.244 108.62 80.7557 108.629 80.0832C108.648 78.858 109.408 77.5775 109.512 76.5273C110.179 69.5904 110.169 63.6576 109.465 58.729ZM57.024 24.9197C59.9071 10.1984 72.698 6.35683 86.3905 6.94642C86.86 6.96484 87.2169 7.3794 87.1606 7.84002C86.4562 13.4411 84.3432 19.337 79.2061 22.6627C74.8016 25.5093 69.8243 26.8267 64.274 26.6148C63.194 26.5687 63.1377 26.32 64.105 25.8501C65.1944 25.325 66.5279 24.846 68.0963 24.4222C68.3874 24.3485 68.641 24.413 68.857 24.6065C68.9603 24.7078 69.0824 24.7723 69.2044 24.8184C69.4956 24.9105 69.7397 24.846 69.937 24.6341C71.3363 23.1509 73.2615 24.3577 74.7641 22.2021C74.9049 21.9902 75.0928 21.9533 75.3182 22.0915C75.5154 22.2113 75.7126 22.2297 75.9286 22.156C76.2197 22.0547 76.4075 21.852 76.4921 21.5664C76.539 21.4098 76.6142 21.2624 76.7175 21.1334C76.8208 21.0045 76.8865 21.0229 76.8959 21.1887C76.9053 21.3269 76.9428 21.4466 77.0086 21.548C77.1682 21.7691 77.3561 21.7967 77.5721 21.6309C81.3192 18.7382 83.0847 15.4586 84.7282 10.8709C84.7752 10.7603 84.7282 10.6314 84.6249 10.5669L84.3526 10.3918C84.2868 10.355 84.2399 10.3734 84.2023 10.4379C83.7703 11.2946 83.0378 11.829 82.6434 12.6489C81.5258 14.9151 80.3613 16.9142 79.1404 18.6369C77.7599 20.5807 77.1589 20.378 77.3185 18.0104C77.3561 17.5406 77.3561 17.0708 77.3091 16.601C77.2809 16.2969 77.1776 16.0114 76.9992 15.7626C76.5484 15.1362 76.2479 14.4268 76.0882 13.6254C76.0601 13.4688 75.9662 13.4135 75.8159 13.4503L75.5811 13.5056C75.4778 13.5332 75.4402 13.5885 75.4684 13.6806C75.6844 14.4453 75.9192 15.2007 76.1728 15.9377C77.0555 18.5263 76.4075 20.7834 73.393 21.4282C73.0736 21.4927 72.8201 21.6585 72.6323 21.9165C72.313 22.3495 71.881 22.5521 71.3456 22.5245C71.0451 22.5061 70.801 22.2942 70.754 22.0086C70.4817 20.2122 69.5895 19.0883 68.0869 18.6369C67.6643 18.5079 67.5798 18.2684 67.8521 17.9275L68.3968 17.2458C68.594 17.0063 68.5471 16.8221 68.2559 16.7023C68.0963 16.6378 67.9554 16.647 67.8333 16.7299C64.1238 19.3831 61.0246 22.331 58.536 25.5738C57.0615 27.4992 56.5544 27.2873 57.024 24.9197ZM67.0914 20.0003C66.7345 20.4517 66.3119 20.7281 66.1429 20.5991C65.9738 20.4701 66.1241 20.0003 66.481 19.5397C66.8378 19.0883 67.2605 18.8119 67.4295 18.9409C67.5985 19.0699 67.4483 19.5397 67.0914 20.0003ZM69.5707 21.7967C69.8806 21.9073 70.059 22.1284 70.0966 22.46C70.1248 22.764 69.9839 23.022 69.674 23.2246C69.3829 23.4181 69.1763 23.3536 69.0636 23.022C69.026 22.9206 68.9697 22.8377 68.9039 22.764C68.6973 22.5521 68.4437 22.4047 68.162 22.3218C67.9178 22.2573 67.6831 22.1928 67.4483 22.1099C67.0257 21.9533 67.0351 21.8244 67.4764 21.723C68.2371 21.5296 68.9321 21.5572 69.5707 21.7967ZM46.1864 11.7184C46.9847 9.73776 46.6466 8.47567 45.1628 7.91371C44.8623 7.80317 44.5617 7.80317 44.2518 7.9045L41.6129 8.81652C41.1527 8.97313 40.7207 8.51252 40.9179 8.07032C41.6035 6.55029 42.5614 5.30662 43.8104 4.35775C44.5524 3.78658 45.6511 4.14587 45.8859 5.03946C46.4963 7.36097 47.135 9.4706 47.7829 11.3591C48.1023 12.2896 47.905 13.0081 47.7829 13.9294H47.7736V13.8649C47.7736 13.8649 47.7736 13.8096 47.7736 13.7912C47.52 13.2661 47.1537 12.916 46.6654 12.741C46.1489 12.5567 45.9986 12.2159 46.1958 11.7184H46.1864ZM92.0346 102.782C85.3762 110.208 75.7408 115.938 65.7954 112.566C64.4337 112.105 63.0625 111.654 61.6914 111.212C60.3109 110.76 58.9116 110.327 57.5029 109.922C57.2024 109.83 56.9019 109.83 56.592 109.913C52.9763 110.945 49.3701 111.995 45.7826 113.054C44.233 113.515 42.7023 113.717 41.1715 113.671C32.5785 113.413 25.5726 110.254 20.1538 104.183C8.23629 90.8432 3.52187 75.1178 6.00117 57.0155C6.31108 54.7401 7.26899 51.7737 8.89368 48.1072C13.3545 38.0197 20.5952 31.8566 30.6157 29.618C34.776 28.6876 38.9552 28.9179 43.1437 30.3089C46.4024 31.3868 48.6376 32.0224 49.8678 32.2159C57.7753 33.4503 65.9081 32.916 74.2757 30.6037C74.7265 30.484 74.9895 30.6406 75.074 31.092C75.1773 31.6539 75.5999 32.0685 76.323 32.3541C76.7362 32.5107 76.8583 32.3909 76.6799 31.9856C76.4639 31.5065 76.1634 31.1288 75.7689 30.8432C75.5154 30.6682 75.5342 30.53 75.8347 30.4287C78.1637 29.7009 80.1265 29.4706 81.7136 29.7378C93.0489 31.6539 100.938 44.671 102.891 54.8046C106.122 71.5157 103.577 89.9036 92.0346 102.782Z" fill="black"/>
<path d="M82.0892 12.0496C82.2488 12.3444 81.9859 12.7774 81.5163 13.0077C81.0467 13.238 80.5396 13.1827 80.3893 12.8787C80.2297 12.5839 80.4926 12.1509 80.9622 11.9206C81.4318 11.6903 81.9389 11.7456 82.0892 12.0496Z" fill="black"/>
<path d="M78.2951 15.67L78.0697 13.892C78.0227 13.5512 78.173 13.3485 78.5204 13.3024C78.8867 13.2564 79.1309 13.4222 79.2718 13.7999C79.5723 14.629 79.5065 15.3199 79.0651 15.8727C78.8304 16.1767 78.342 16.0477 78.2951 15.67Z" fill="black"/>
<path d="M71.8526 16.6282C71.5803 17.7798 71.9278 18.701 72.8951 19.3827C73.158 19.5578 73.2519 19.8065 73.1674 20.1105C73.0078 20.7093 72.4912 21.0225 71.6366 21.0502C71.1671 21.0686 70.782 20.7001 70.782 20.2395L70.7538 16.4348C70.7444 16.1584 70.8571 15.9373 71.0825 15.7623C71.9278 15.1082 72.8481 14.5831 73.8436 14.1962C74.2286 14.0488 74.4258 14.1777 74.454 14.5831L74.7076 18.6273C74.7264 18.9497 74.5761 19.0695 74.2662 18.9958L73.853 18.8945C73.7027 18.8576 73.6557 18.7655 73.7027 18.6181C73.9751 17.8627 74.022 17.1625 73.8436 16.5085C73.759 16.1952 73.5524 16.0018 73.2237 15.9373C72.9514 15.8728 72.6884 15.8912 72.4255 15.9926C72.1156 16.1031 71.9184 16.315 71.8526 16.6282Z" fill="black"/>
<path d="M83.1691 33.6067C83.7044 33.8923 83.8922 34.3714 83.7326 35.0254C83.6574 35.3571 83.4508 35.5229 83.1033 35.5321C82.878 35.5413 82.6807 35.4768 82.5117 35.3387C82.3708 35.2189 82.2769 35.0439 82.23 34.7951C82.1924 34.5372 82.1642 34.2792 82.1548 34.0121C82.1454 33.6989 81.9952 33.487 81.704 33.3764C80.7367 32.9895 79.76 32.8053 78.774 32.8145C78.4734 32.8237 78.1917 32.6394 78.0884 32.3631C77.9475 31.9946 77.8818 31.6169 77.91 31.2207C77.9288 30.8154 78.1448 30.6588 78.5486 30.7417C78.9712 30.8338 79.3374 31.0457 79.6474 31.3866C79.8446 31.6169 80.0981 31.7366 80.4081 31.7643C81.9388 31.8748 83.6668 32.4736 85.5733 33.5607C85.9019 33.7541 85.8832 34.2332 85.5357 34.3898C84.9159 34.6754 84.1082 34.4451 83.1127 33.6804C82.8028 33.4409 82.8216 33.4133 83.1691 33.6067Z" fill="black"/>
<path d="M71.8714 32.4825C72.4255 32.0127 73.0547 31.6534 73.7496 31.4047C74.1347 31.2665 74.5573 31.5152 74.6136 31.9205C74.6324 32.1048 74.6794 32.2706 74.7545 32.4272C74.9893 32.9155 74.8015 33.1366 74.1816 33.0905C73.4679 33.0444 72.7823 33.0444 72.1343 33.1089C71.3642 33.1734 71.2797 32.9708 71.8714 32.4825Z" fill="black"/>
<path d="M69.5424 34.9149C61.6067 39.2079 53.2016 39.4566 44.308 35.6703C43.5098 35.3295 42.8805 34.7491 42.4204 33.92C42.3077 33.7173 42.4861 33.487 42.7115 33.5331C52.0652 35.5966 60.8461 36.4718 69.8992 33.2106C70.2185 33.0909 70.4439 33.1922 70.5848 33.4962C70.6505 33.6344 70.6693 33.791 70.6412 33.9753C70.5942 34.2516 70.6881 34.4727 70.9323 34.6386C71.6366 35.1084 72.2377 35.6335 72.7354 36.2139C73.0453 36.5547 72.9702 36.6561 72.5288 36.5087C71.693 36.2323 71.0074 35.7625 70.4815 35.1084C70.2279 34.786 69.9086 34.7215 69.5424 34.9149Z" fill="black"/>
<path d="M76.7643 34.6844C76.1163 34.6936 75.6655 34.4172 75.4025 33.8737C75.2335 33.5144 75.318 33.4315 75.6655 33.6342C76.0318 33.8461 76.3511 34.1316 76.6234 34.4817C76.83 34.7489 77.0742 34.7857 77.3653 34.5923L77.6564 34.3896C77.8724 34.2514 77.9851 34.3067 77.9945 34.5554C77.9945 34.7304 77.9006 34.841 77.6846 34.887C77.5062 34.9239 77.3277 34.8963 77.1681 34.7949C77.046 34.712 76.9051 34.6752 76.7643 34.6844Z" fill="black"/>
<path d="M79.7132 35.1265C79.9668 34.8962 80.164 34.6198 80.3988 34.408C80.6054 34.2329 80.6899 34.2698 80.6523 34.5369C80.549 35.191 80.1828 35.6885 79.5535 36.0109C79.2061 36.1859 79.1122 36.0938 79.2718 35.7438C79.3751 35.5042 79.516 35.3016 79.7132 35.1265Z" fill="black"/>
<path d="M85.6015 36.3334C85.733 35.7162 86.0335 35.1174 86.5031 34.537C86.7003 34.2883 87.0853 34.2975 87.2825 34.5462L87.5079 34.8318C87.7897 35.1819 87.7427 35.6793 87.4046 35.9649L85.6766 37.4665C85.4231 37.6784 85.1413 37.7429 84.8314 37.6508C84.5591 37.5678 84.3337 37.3744 84.174 37.0796C83.958 36.6927 84.0519 36.5821 84.4745 36.7387C84.6342 36.8032 84.7844 36.8309 84.9441 36.8401C85.3104 36.8493 85.5264 36.6743 85.6015 36.3334Z" fill="black"/>
<path d="M27.6104 37.1256C20.0692 40.6908 15.8619 45.9695 13.5234 54.5278C13.3262 55.2555 12.8379 55.6517 12.0678 55.7069C11.9645 55.7162 11.8518 55.7254 11.7485 55.7161C11.1944 55.6977 10.7718 55.2187 10.8469 54.6752C12.1147 45.601 16.7259 39.18 24.6991 35.4121C25.1498 35.2003 25.61 35.0252 26.089 34.9055C26.8309 34.7212 27.2817 34.6567 27.4413 34.7028C29.5731 35.3661 29.6295 36.1768 27.6104 37.1256Z" fill="black"/>
<path d="M88.4094 38.1301L88.5785 36.7851C88.6254 36.3706 88.8226 36.2877 89.1701 36.5364L90.1374 37.2457C90.391 37.4208 90.4098 37.6327 90.2032 37.863C89.5739 38.5723 88.8039 39.2172 87.8835 39.7791C87.4421 40.0555 87.3294 39.9634 87.5548 39.4936C87.6957 39.208 87.8835 38.9592 88.1183 38.7289C88.2779 38.5723 88.3812 38.3604 88.4094 38.1301Z" fill="black"/>
<path d="M82.2488 38.8301C82.1549 38.3695 82.3333 38.2221 82.7841 38.3787C83.31 38.5537 83.6669 38.9959 83.8547 39.6869C83.9486 40.0185 83.8171 40.1843 83.4696 40.1843C82.8404 40.1935 82.4366 39.7421 82.2488 38.8301Z" fill="black"/>
<path d="M91.4804 41.5017C91.1893 41.8795 91.1329 42.2387 91.3019 42.5796C91.7058 43.3811 91.5086 43.5008 90.7291 42.9573L89.3673 42.0084C89.0199 41.7689 89.048 41.5662 89.4331 41.4096C90.391 41.0227 91.0672 40.2765 91.4522 39.1802C91.5743 38.8394 91.7997 38.7565 92.119 38.9131C92.4101 39.0605 92.5604 39.3184 92.5698 39.6869C92.5698 39.9817 92.6825 40.2304 92.8985 40.4331C93.7249 41.207 94.4198 42.1927 94.9927 43.3903C95.1336 43.6851 95.0491 43.8877 94.7391 43.9983C94.2226 44.1825 93.8751 44.4313 93.7343 45.0024C93.5089 45.9052 93.2647 46.7988 92.9924 47.674C92.8233 48.2175 92.4852 48.4755 91.9875 48.4479C91.64 48.4202 91.471 48.236 91.4898 47.8951C91.5085 47.5174 91.687 47.2042 92.0157 46.9555C92.2599 46.7712 92.3162 46.5409 92.1847 46.2737C91.8748 45.6197 91.3395 45.2143 90.5788 45.0669C90.3065 45.0117 90.2501 44.8735 90.4192 44.6616C90.4849 44.5787 90.56 44.5234 90.6539 44.4958C90.8042 44.4405 90.9826 44.4958 91.0766 44.6339C91.3489 45.0485 91.7152 45.2604 92.1753 45.288C92.5792 45.3157 92.8421 45.1314 92.9642 44.7537C93.1426 44.2102 93.415 43.7404 93.8 43.3534C94.016 43.1231 94.0348 42.8836 93.8658 42.6257C93.4619 42.0084 92.9172 41.557 92.2317 41.2899C91.9218 41.1701 91.6776 41.2346 91.4804 41.5017Z" fill="black"/>
<path d="M84.9628 41.437C84.8595 41.0225 85.0098 40.8751 85.4324 40.9949C85.9019 41.133 86.1649 41.3541 86.2118 41.6766C86.2494 41.9069 86.0522 42.1095 85.8174 42.0911C85.3572 42.0635 85.0661 41.8424 84.9628 41.437Z" fill="black"/>
<path d="M99.7636 55.919C99.4536 55.7624 99.2658 55.9559 99.1907 56.5178C99.1531 56.8034 99.031 57.0429 98.8244 57.2364C97.8571 58.1761 97.6223 59.1986 98.1201 60.2949C98.1952 60.4607 98.0168 60.6358 97.8477 60.5528C97.0683 60.1751 96.702 59.5763 96.7302 58.7472C96.7771 57.6417 97.9229 56.8679 98.6554 55.9835C98.8338 55.7716 98.9183 55.5413 98.9183 55.2742L98.9653 52.5381C98.9747 51.8748 98.2985 51.4234 97.6787 51.6721C97.4439 51.7643 97.2749 51.7643 97.1528 51.6721C96.9556 51.5247 96.9649 51.3958 97.1997 51.2852L97.6975 51.0549C98.0449 50.8983 98.1201 50.6496 97.9416 50.3179L96.702 47.978C96.5236 47.6371 96.0916 47.499 95.7347 47.6648C95.4811 47.7845 95.2557 47.9319 95.0773 48.1254C94.8143 48.4018 94.7486 48.8071 94.927 49.148C95.0961 49.4704 95.1806 49.8113 95.1806 50.1521C95.1806 50.5759 94.9834 50.6772 94.6171 50.4561L93.9034 50.0231C93.5935 49.8297 93.5371 49.5809 93.7156 49.2769C94.4293 48.0701 95.9131 46.8725 95.8568 45.4354C95.8474 45.2235 95.9507 45.1406 96.1573 45.1867C96.2606 45.2143 96.3451 45.2511 96.4296 45.3064C96.486 45.3525 96.533 45.4078 96.5611 45.4722C97.5848 47.7385 98.5427 50.0324 99.4536 52.3539C99.9326 53.5791 99.8293 54.6477 99.7636 55.919Z" fill="black"/>
<path d="M95.3872 51.4877C96.6644 52.3444 97.2185 53.4683 97.0589 54.841C97.0213 55.1818 96.8335 55.3385 96.486 55.3292C96.3451 55.3292 96.2043 55.2648 96.0634 55.145C95.8944 54.9976 95.8004 54.8133 95.7723 54.6015C95.7253 54.1316 95.6971 53.671 95.669 53.2012C95.6502 52.9432 95.5657 52.6945 95.4342 52.4734L95.0304 51.8193C94.6265 51.1653 94.7392 51.0547 95.3872 51.4877Z" fill="black"/>
<path d="M94.1945 55.4123C94.2133 55.2649 94.3635 55.1544 94.5232 55.182C95.0773 55.2649 95.3027 55.5873 95.1994 56.1677C95.1148 56.6467 94.5044 56.8034 94.1851 56.4349C94.1006 56.3335 94.11 55.9927 94.1945 55.4123Z" fill="black"/>
<path d="M99.7635 55.9189C101.116 56.9876 100.75 59.8987 100.853 61.4924C100.872 61.8333 100.712 61.9807 100.374 61.953C100.177 61.9346 99.9795 61.8609 99.7822 61.7411C99.9607 61.3266 100.036 60.9028 100.017 60.4883C100.008 60.2027 99.8574 60.0645 99.5569 60.0737H99.2188C98.9089 60.1013 98.8056 59.9632 98.9089 59.6684C98.9934 59.4381 99.1718 59.3552 99.4536 59.4012C99.9043 59.4749 100.299 59.0972 100.224 58.655L99.7635 55.9189Z" fill="black"/>
<path d="M92.4383 57.8906C92.7201 57.43 93.415 57.4853 93.6122 57.9919C93.7061 58.2407 93.5653 58.4341 93.1802 58.5539C92.9361 58.6368 92.6637 58.5447 92.5228 58.3236C92.4008 58.1301 92.3726 57.9919 92.4383 57.8906Z" fill="black"/>
<path d="M90.0342 60.4513C89.743 60.0644 89.3486 59.8433 88.8696 59.7881C88.5409 59.7512 88.494 59.613 88.7288 59.3827C88.8039 59.3182 88.8884 59.2998 88.9823 59.3367C89.9496 59.7236 90.4849 60.221 90.5788 60.8198C90.6728 61.4002 90.4192 62.0082 89.8275 62.6255C89.4143 63.0584 89.3298 63.0032 89.5834 62.4596L90.1281 61.262C90.2502 60.9949 90.2126 60.6817 90.0342 60.4513Z" fill="black"/>
<path d="M94.4011 60.0738C94.5419 59.8066 94.9082 59.7697 95.096 60.0093C95.2557 60.2119 95.3026 60.5344 95.2181 60.9673C95.143 61.3358 94.664 61.4556 94.4198 61.1608C94.1851 60.8752 94.1851 60.5067 94.4011 60.0738Z" fill="black"/>
<path d="M99.7823 61.7409C99.3409 61.9251 99.031 62.5147 98.8432 63.5097C98.768 63.8782 98.4863 64.1822 98.1106 64.2835L97.6505 64.4125C97.2373 64.523 96.9086 64.0716 97.1433 63.7215C97.5472 63.1412 97.7538 62.5424 97.7726 61.9436C97.782 61.4737 97.998 61.354 98.4112 61.6027C98.8432 61.8699 99.3033 61.9159 99.7823 61.7409Z" fill="black"/>
<path d="M93.2272 62.653L92.9173 63.6019C92.814 63.9151 92.3632 63.9151 92.2599 63.6019C92.1379 63.2242 92.2036 62.9017 92.4759 62.6346C92.645 62.4595 92.861 62.3951 93.1145 62.4595C93.1991 62.478 93.2554 62.5701 93.2272 62.653Z" fill="black"/>
<path d="M97.5284 69.4886C98.599 67.4158 98.8056 65.2877 101.022 63.8045C101.332 63.5927 101.529 63.6756 101.595 64.0349L101.679 64.477C101.754 64.91 101.482 65.3338 101.05 65.4536C100.205 65.6839 99.6321 66.2274 99.3409 67.0657C98.7493 68.7516 97.9228 70.3729 96.8616 71.939C96.4484 72.5471 96.1667 72.4918 96.0164 71.7732C95.8474 70.9533 96.1291 70.4006 96.8616 70.0966C97.1528 69.9676 97.3782 69.7649 97.5284 69.4886Z" fill="black"/>
<path d="M96.4202 65.3061C96.5047 65.3246 96.5798 65.3522 96.655 65.389C96.6831 65.3983 96.7113 65.4167 96.7207 65.4443C96.8428 65.7299 96.8428 65.9971 96.7395 66.2642C96.5798 66.6419 96.3451 66.6972 96.0258 66.4485L94.8425 65.518C94.5889 65.3153 94.6265 64.9192 94.9176 64.781C95.4341 64.5323 95.8004 64.6152 96.0258 65.0298C96.1103 65.1864 96.2418 65.2785 96.4202 65.3061Z" fill="black"/>
<path d="M90.7948 65.5642C90.9357 65.5182 91.0108 65.555 91.0296 65.6932C91.0953 66.2275 90.7478 66.6144 89.9684 66.854C89.6866 66.9369 89.4237 66.6697 89.527 66.4026C89.6303 66.117 90.0529 65.8314 90.7948 65.5642Z" fill="black"/>
<path d="M82.0515 66.6053C82.0233 66.5224 82.0421 66.4303 82.0985 66.3658C82.3145 66.0986 82.5305 65.9604 82.7559 65.9604C83.1409 65.9697 83.2912 66.1539 83.2254 66.5224C83.1691 66.8264 82.9906 67.0567 82.6995 67.1949C82.4084 67.3331 82.23 67.2502 82.1454 66.9462L82.0515 66.6053Z" fill="black"/>
<path d="M101.604 71.3771C101.2 71.0454 100.75 71.1468 100.233 71.6719C99.5005 72.4273 99.2751 73.588 98.6647 74.5093C97.9791 75.5687 97.8946 76.3701 97.8664 77.5125C97.8382 78.7377 97.4532 78.8483 96.7113 77.8625C96.5329 77.623 96.4483 77.2177 96.4765 76.6373C96.4953 76.2596 96.6268 75.8819 96.8709 75.5042C98.1012 73.5972 99.3878 71.7363 100.74 69.9215C100.947 69.6359 101.05 69.3227 101.05 68.9818C101.05 68.4107 101.135 67.8579 101.332 67.3144C101.379 67.1762 101.52 67.1025 101.66 67.121L101.905 67.1578C101.98 67.167 102.017 67.2131 102.008 67.2868L101.604 71.3771Z" fill="black"/>
<path d="M93.4526 69.2952C93.0957 69.9309 92.6074 70.4468 91.9782 70.8613C91.9124 70.9074 91.8467 70.9074 91.7903 70.8613L91.5837 70.6863C91.3959 70.5297 91.3959 70.3823 91.5743 70.2257L94.5889 67.6647C94.9458 67.3606 95.0773 67.4436 94.9928 67.895C94.9082 68.3372 94.6359 68.6227 94.1757 68.7425C93.8658 68.8254 93.6122 69.0281 93.4526 69.2952Z" fill="black"/>
<path d="M101.604 71.3774L101.886 71.5433C102.158 71.6999 102.271 71.9394 102.205 72.2434C101.595 75.1453 101.041 78.0011 100.543 80.8017C99.9701 84.0076 99.2188 86.7897 98.2703 89.1388C96.6832 93.1094 95.0397 96.1771 93.3493 98.3604C91.7058 100.47 89.8651 102.653 87.8272 104.901C87.6676 105.076 87.3577 104.975 87.3483 104.735C87.3013 103.952 86.9257 103.409 86.2213 103.086C85.9114 102.948 85.7424 102.616 85.7987 102.285C85.8644 101.907 86.071 101.622 86.3997 101.447C86.6909 101.29 86.9444 101.345 87.151 101.612L87.4797 102.055C87.7051 102.359 87.9023 102.34 88.0808 101.999L89.311 99.6593C89.4519 99.3922 89.6679 99.2816 89.9778 99.3277L90.2408 99.3645C90.5413 99.4106 90.7761 99.3093 90.9545 99.0513C92.2223 97.1812 93.4808 95.3111 94.7486 93.441C95.3121 92.6027 95.7347 91.7091 96.007 90.7602C96.0915 90.4654 96.2418 90.2075 96.4578 89.9956C97.6505 88.8164 98.2891 87.3701 98.3924 85.6566C98.4112 85.4171 98.5051 85.2052 98.6647 85.0117C99.3879 84.1918 99.3691 83.3811 98.6084 82.5612C97.8759 81.769 96.9649 81.2715 95.8661 81.078C95.2557 80.9675 94.9928 80.2489 95.3966 79.7883C95.6502 79.4935 95.9694 79.3093 96.3545 79.2356C96.6268 79.1803 96.8335 79.2724 96.9743 79.5119L98.1576 81.5755C98.4487 82.073 99.1907 82.0453 99.4348 81.5202C99.8293 80.6635 99.8574 79.8159 99.5287 78.9776C99.4161 78.7013 99.4818 78.388 99.679 78.1761C100.609 77.2089 100.966 76.0297 100.74 74.657C100.693 74.3438 100.778 74.0674 100.994 73.8187C101.736 72.9804 101.933 72.1697 101.604 71.3774Z" fill="black"/>
<path d="M78.4735 73.1274C78.2575 72.9892 78.2293 72.6575 78.4172 72.3812C78.5956 72.0956 78.9149 71.985 79.1309 72.1232C79.3469 72.2614 79.3751 72.5931 79.1872 72.8694C79.0088 73.155 78.6895 73.2656 78.4735 73.1274Z" fill="black"/>
<path d="M89.4613 74.1409C89.2359 74.1224 89.0856 73.7171 89.1232 73.2473C89.1701 72.7682 89.3861 72.3997 89.6115 72.4181C89.8369 72.4366 89.9872 72.8419 89.9496 73.3117C89.9027 73.7908 89.6867 74.1593 89.4613 74.1409Z" fill="black"/>
<path d="M94.3353 74.1868C93.894 74.1408 93.5841 73.6617 93.6498 73.1274C93.7061 72.5931 94.1194 72.1969 94.5701 72.2522C95.0115 72.2983 95.3214 72.7773 95.2557 73.3116C95.1993 73.846 94.7861 74.2421 94.3353 74.1868Z" fill="black"/>
<path d="M93.0957 75.6979C93.0394 76.2967 92.7858 76.656 92.335 76.7942C92.0627 76.8771 91.8279 76.6007 91.95 76.352C92.1566 75.9374 92.4008 75.6334 92.6825 75.4492C92.9924 75.2465 93.1333 75.3294 93.0957 75.6979Z" fill="black"/>
<path d="M12.1335 76.5915C12.218 76.96 11.9081 77.3377 11.4573 77.439C11.0065 77.5312 10.5745 77.3101 10.4994 76.9324C10.4149 76.5639 10.7248 76.1861 11.1756 76.0848C11.6263 75.9927 12.0583 76.2138 12.1335 76.5915Z" fill="black"/>
<path d="M85.7142 77.3099C85.5734 77.5586 85.3667 77.7428 85.0756 77.8718C84.7469 78.0192 84.653 77.9271 84.7751 77.5954C85.0568 76.8308 85.6767 76.3702 86.6346 76.2136C87.2074 76.1123 87.245 76.2136 86.7379 76.4992L86.2589 76.7663C86.0241 76.8953 85.8363 77.0795 85.7142 77.3099Z" fill="black"/>
<path d="M91.2739 78.9592C91.302 79.0605 91.2175 79.1619 91.1048 79.1711C90.5601 79.1895 90.1281 78.9592 89.7994 78.4709C89.6398 78.2314 89.7149 77.9182 89.9591 77.7708C90.0905 77.6879 90.2408 77.6418 90.4098 77.6142C90.7292 77.5681 91.0297 77.78 91.0954 78.0932L91.2739 78.9592Z" fill="black"/>
<path d="M94.0818 79.1156C93.6967 79.1156 93.5841 78.9406 93.7249 78.5905C93.8752 78.2128 94.063 77.9456 94.279 77.7798C94.7392 77.4205 94.9646 77.5311 94.9646 78.1022V78.7379C94.9646 78.9498 94.7955 79.1156 94.5889 79.1156H94.0818Z" fill="black"/>
<path d="M82.1736 79.7054C82.3708 79.6501 82.5775 79.7699 82.6056 79.9725C82.6995 80.5898 82.4178 80.9306 81.7604 80.9767C81.3284 81.0135 81.0561 80.5345 81.319 80.1936C81.4787 79.991 81.7604 79.8251 82.1736 79.7054Z" fill="black"/>
<path d="M24.4268 80.9026C24.1826 80.8197 24.145 80.6907 24.3141 80.4972C24.4549 80.3314 24.6615 80.2024 24.9151 80.1011C25.1687 79.9998 25.3659 80.0735 25.5067 80.3038C25.5631 80.4051 25.5819 80.5064 25.5725 80.6078C25.5255 81.0408 25.3001 81.1882 24.8775 81.05L24.4268 80.9026Z" fill="black"/>
<path d="M86.982 82.1189C86.6345 82.0452 86.4373 81.5754 86.55 81.0871C86.6533 80.5897 87.0289 80.2488 87.3858 80.3225C87.7333 80.3962 87.9305 80.866 87.8178 81.3543C87.7145 81.8518 87.3388 82.1926 86.982 82.1189Z" fill="black"/>
<path d="M11.9551 82.1002C11.9081 81.7409 12.049 81.5198 12.3871 81.4369C12.9599 81.2987 13.4389 81.8883 13.1759 82.4042C12.9975 82.7635 12.6688 82.9293 12.1993 82.8833C11.9926 82.8648 11.8799 82.7543 11.8706 82.5516C11.8612 82.4779 11.8799 82.395 11.9175 82.3121C11.9551 82.2476 11.9645 82.1739 11.9551 82.1002Z" fill="black"/>
<path d="M95.2181 82.6715C95.3777 83.2703 95.3402 83.8414 95.1242 84.3665C94.8706 85.0022 94.4574 85.2601 93.9033 85.1496C93.5277 85.0667 93.368 84.8456 93.415 84.4679C93.5277 83.7033 93.8845 83.04 94.495 82.4688C94.8518 82.1372 95.096 82.2016 95.2181 82.6715Z" fill="black"/>
<path d="M90.9733 82.4411C91.3678 82.2476 91.5556 82.3766 91.5368 82.8096C91.4898 83.7032 91.1705 84.4402 90.5695 85.0205C90.2032 85.3706 89.9215 85.3061 89.7431 84.8363C89.3392 83.8137 89.7431 83.0122 90.9733 82.4411Z" fill="black"/>
<path d="M85.1976 83.9062C85.3855 84.2563 85.0943 84.763 84.5684 85.0393C84.0331 85.3157 83.4415 85.2604 83.2536 84.9012C83.0658 84.5511 83.357 84.0444 83.8829 83.768C84.4182 83.4917 85.0098 83.547 85.1976 83.9062Z" fill="black"/>
<path d="M94.2603 88.0975C95.2933 87.0196 95.8662 85.7575 95.9789 84.3112C95.9976 84.0164 96.223 83.7769 96.5142 83.7124C96.8616 83.6479 97.1809 83.7124 97.4721 83.9243C97.9698 84.2835 97.9135 84.5138 97.303 84.6152C97.0495 84.652 96.8053 84.8823 96.5705 85.3061C96.0352 86.2458 95.5844 87.2223 95.1994 88.2264C94.6359 89.728 93.4338 90.6585 93.0676 92.372C93.0018 92.676 92.8703 92.9339 92.6637 93.155C92.166 93.6986 91.7903 94.3158 91.5556 95.0067C91.4523 95.2923 91.2738 95.495 91.0015 95.6332C89.7149 96.2688 89.1326 97.19 89.2547 98.3969C89.3017 98.9496 89.1044 99.0601 88.6631 98.7193C88.1935 98.36 87.8084 97.927 87.5079 97.4111C86.766 96.1306 86.3246 96.2227 86.1838 97.6875C86.165 97.9086 86.1368 98.1297 86.1086 98.3508C86.0617 98.6732 85.9396 98.9588 85.733 99.2075L83.2631 102.294C82.9344 102.708 82.2864 102.717 81.9483 102.303C81.5445 101.805 81.4881 101.197 81.7793 100.479C81.9013 100.193 82.1173 100.046 82.4272 100.018L83.3664 99.9537C83.8172 99.9169 84.0144 99.6774 83.9674 99.2444L83.8641 98.2402C83.8266 97.9362 84.005 97.6414 84.2867 97.5217L85.4888 97.0242C85.8269 96.886 86.0147 96.6281 86.0617 96.2596L86.0992 95.8635C86.1462 95.4028 86.3904 95.2647 86.8318 95.4397L88.5222 96.149C88.8321 96.278 89.0575 96.1859 89.1984 95.8819C89.4144 95.3844 89.5364 94.8777 89.5646 94.3618C89.5834 94.0671 89.7337 93.8736 90.0154 93.7723C90.917 93.4683 91.5086 92.8787 91.781 92.0127C91.8655 91.7271 92.0439 91.4968 92.2975 91.331C92.9455 90.9164 93.246 90.3361 93.199 89.5806C93.1709 89.1845 92.9924 88.8713 92.645 88.6594L92.2036 88.3922C91.9124 88.208 91.7716 87.8671 91.8655 87.5355C91.9688 87.1762 92.1754 86.8906 92.5041 86.6972C92.7295 86.559 93.03 86.6603 93.1427 86.8998L93.6217 87.9869C93.7813 88.3462 93.9879 88.383 94.2603 88.0975Z" fill="black"/>
<path d="M19.1863 84.3296C19.3648 84.3019 19.4962 84.3204 19.562 84.3941C19.7874 84.6428 19.778 85.0205 19.5244 85.2416C19.2708 85.4719 18.9891 85.564 18.6698 85.518C18.3129 85.4627 18.0875 85.1126 18.2002 84.781C18.3035 84.4586 18.5195 84.3112 18.8294 84.3388C18.9703 84.3388 19.0924 84.3388 19.1863 84.3296Z" fill="black"/>
<path d="M78.4359 84.5967C78.6425 84.4493 78.9243 84.477 79.1121 84.652C79.253 84.781 79.2717 84.9652 79.1684 85.214C79.0745 85.4535 78.9337 85.5824 78.7552 85.6009C78.5298 85.6193 78.3232 85.4903 78.2575 85.2784C78.1636 84.9652 78.2199 84.7349 78.4359 84.5967Z" fill="black"/>
<path d="M24.3234 85.5461C24.2295 85.7764 23.929 85.8869 23.6566 85.7856C23.3843 85.675 23.234 85.3987 23.328 85.1683C23.4219 84.938 23.7224 84.8275 23.9947 84.9288C24.2671 85.0394 24.4173 85.3157 24.3234 85.5461Z" fill="black"/>
<path d="M88.4094 86.4947C88.5972 86.3841 88.7945 86.3381 88.9917 86.3565C89.2265 86.3841 89.3485 86.5131 89.3579 86.7342C89.3673 86.9829 89.3298 87.2132 89.2452 87.4251C89.048 87.8857 88.5503 88.1621 88.0432 88.0884C87.0195 87.9502 86.5593 87.5172 86.6439 86.7987C86.6908 86.4302 86.888 86.3012 87.2543 86.421L87.7051 86.5776C87.9492 86.6605 88.184 86.6329 88.4094 86.4947Z" fill="black"/>
<path d="M81.1781 86.7804C81.2814 86.504 81.4411 86.4672 81.6571 86.6791C82.0609 87.0568 82.0609 87.6003 81.6665 88.3096C81.5162 88.5768 81.1124 88.5307 81.0185 88.2359C80.8964 87.849 80.9527 87.3608 81.1781 86.7804Z" fill="black"/>
<path d="M75.4682 87.8305C75.5715 87.3054 75.7406 86.983 75.9566 86.8632C76.2571 86.6974 76.6328 86.9277 76.6046 87.2594C76.5576 87.895 76.3228 88.2451 75.919 88.3004C75.5434 88.3464 75.3931 88.1898 75.4682 87.8305Z" fill="black"/>
<path d="M14.1714 87.7938C14.4438 87.8675 14.7255 87.8859 15.0354 87.8491C15.458 87.7938 15.5425 87.932 15.2796 88.2728C14.9697 88.669 14.594 88.8993 14.1432 88.9546C13.8333 89.0006 13.6267 88.8716 13.5422 88.5676C13.514 88.4755 13.4952 88.3742 13.5046 88.2636C13.5234 87.8306 13.7488 87.674 14.1714 87.7938Z" fill="black"/>
<path d="M19.3929 89.6638C19.1112 89.5625 18.8388 89.5994 18.5759 89.7836C18.1814 90.0508 18.0688 89.9679 18.2284 89.5164L18.3881 89.0927C18.4914 88.8071 18.698 88.6781 19.0079 88.6965C19.3554 88.715 19.6183 88.8992 19.778 89.2401C19.9001 89.4888 19.6559 89.756 19.3929 89.6638Z" fill="black"/>
<path d="M21.3933 90.2903L22.2667 89.0466C22.5015 88.7058 22.633 88.7426 22.6424 89.1572C22.6799 90.0139 22.37 90.539 21.722 90.7325C21.1867 90.8891 21.0834 90.7417 21.3933 90.2903Z" fill="black"/>
<path d="M85.1883 90.2811C84.7093 90.4561 84.3525 90.5114 84.1271 90.4653C83.8547 90.4008 83.7608 90.2442 83.8453 89.977C84.1083 89.2308 84.5121 88.89 85.0568 88.9545C85.254 88.9821 85.4043 89.0558 85.517 89.194C85.6485 89.3598 85.6954 89.5441 85.6579 89.7375C85.6015 89.9863 85.4325 90.1889 85.1883 90.2811Z" fill="black"/>
<path d="M90.0342 90.9812C89.574 90.797 89.3956 90.2074 89.6304 89.6546C89.8652 89.1019 90.4193 88.8071 90.87 88.9914C91.3302 89.1756 91.5086 89.7652 91.2739 90.3179C91.0391 90.8707 90.485 91.1655 90.0342 90.9812Z" fill="black"/>
<path d="M24.8493 92.5106C24.6614 92.5843 24.4454 92.4737 24.3985 92.2711C24.314 91.8934 24.3515 91.5617 24.53 91.2761C24.7084 90.9905 24.9526 90.9353 25.2437 91.1195C25.4691 91.2669 25.6569 91.442 25.8072 91.6446C26.0044 91.9026 25.948 92.0868 25.6381 92.2066L24.8493 92.5106Z" fill="black"/>
<path d="M79.3938 91.7455C79.4595 92.0864 79.3938 92.418 79.1778 92.7313C78.9806 93.0261 78.727 93.0721 78.4265 92.8787C78.3232 92.8142 78.2387 92.722 78.1729 92.5931C78.0884 92.4365 78.0696 92.2799 78.126 92.114C78.2293 91.7732 78.4453 91.5429 78.7833 91.4139C79.112 91.2941 79.3187 91.4047 79.3938 91.7455Z" fill="black"/>
<path d="M88.184 92.2985C88.3155 92.7959 88.1277 93.0907 87.6112 93.1736C87.0571 93.2566 86.6533 93.1552 86.4091 92.8604C85.8362 92.1695 86.3152 91.1377 87.2261 91.1193C87.6393 91.1101 87.9587 91.5062 88.184 92.2985Z" fill="black"/>
<path d="M34.1654 91.9302C34.0997 92.5843 33.9494 93.0633 33.7146 93.3765C33.4799 93.6805 33.3108 93.6529 33.2075 93.2752C33.0291 92.5659 33.2169 92.0407 33.7804 91.6999C34.0715 91.5249 34.1936 91.5986 34.1654 91.9302Z" fill="black"/>
<path d="M16.0966 92.7131L15.6271 93.3027C15.2045 93.837 15.026 93.7633 15.0824 93.0908C15.1293 92.5381 15.3735 92.1143 15.8149 91.8103C15.8994 91.7458 15.9933 91.709 16.0966 91.709C16.2 91.7182 16.2845 91.7366 16.3502 91.7643C16.6601 91.9024 16.7165 92.1051 16.5099 92.3723C16.4253 92.4736 16.3314 92.5565 16.2093 92.621C16.1624 92.6394 16.1248 92.6671 16.0966 92.7131Z" fill="black"/>
<path d="M81.0748 95.9188C81.4787 94.6015 81.9294 93.3117 82.4366 92.0312C82.6338 91.5338 82.7747 91.5522 82.8498 92.0773C82.878 92.2431 82.8967 92.4089 82.9061 92.5748C82.9249 92.9156 82.8216 93.2565 82.615 93.5328C82.0515 94.279 81.8449 95.1358 81.9858 96.1123C82.0234 96.361 81.9388 96.5729 81.7416 96.7387C81.6383 96.8216 81.5632 96.8585 81.4974 96.8309C81.1406 96.6742 80.9621 96.2781 81.0748 95.9188Z" fill="black"/>
<path d="M29.6389 92.7589C29.8361 92.3812 30.0052 92.1232 30.1648 91.985C30.4466 91.7363 30.9067 91.8929 30.9725 92.2614C31.0006 92.4272 30.9631 92.5931 30.8598 92.7589C30.7753 92.8971 30.6344 92.9892 30.456 93.0352C30.2024 93.0997 29.977 93.1089 29.7798 93.0629C29.6483 93.026 29.5826 92.8786 29.6389 92.7589Z" fill="black"/>
<path d="M17.064 95.1083C17.2236 94.2884 17.7026 93.8002 18.5009 93.662C19.2991 93.5238 19.4118 93.7265 18.8389 94.2884L17.6744 95.4215C17.1203 95.9651 16.9231 95.8545 17.064 95.1083Z" fill="black"/>
<path d="M53.2391 94.2608C53.5021 94.3437 53.5303 94.4911 53.3236 94.7122C53.1546 94.8872 52.8917 94.9425 52.6663 94.8504C52.1497 94.6477 51.9807 94.2424 52.1779 93.6344C52.2718 93.3396 52.6757 93.2935 52.8447 93.5514C52.9104 93.6528 52.9386 93.7633 52.948 93.9015C52.9574 94.0858 53.0607 94.2055 53.2391 94.2608Z" fill="black"/>
<path d="M83.9486 94.537C83.8265 94.3804 83.742 94.2054 83.7044 94.0303C83.6387 93.7539 83.742 93.5605 84.0049 93.4407C84.1458 93.3762 84.3055 93.367 84.4839 93.4039C84.9629 93.496 85.0756 93.7447 84.822 94.1501L84.606 94.4909C84.4651 94.7212 84.127 94.7489 83.9486 94.537Z" fill="black"/>
<path d="M25.6663 98.2221C24.7929 97.0521 23.6566 96.2691 22.2761 95.8822C21.9661 95.7992 21.8347 95.6058 21.8628 95.2926C21.9098 94.7859 22.1821 94.4727 22.6799 94.3529C23.0461 94.27 23.2528 94.4082 23.3185 94.7675C23.5157 95.9743 24.4454 96.7389 26.1265 97.0429C26.4082 97.0982 26.6806 97.0429 26.9341 96.8863C27.0656 96.8034 27.1971 96.7113 27.3192 96.6099C27.5352 96.4257 27.6291 96.4717 27.6009 96.7481L27.4507 97.9734C27.4131 98.3142 27.2253 98.5445 26.8966 98.6551C26.4082 98.8117 25.995 98.6735 25.6663 98.2221Z" fill="black"/>
<path d="M48.6092 95.6703C48.3369 95.615 48.1679 95.2742 48.243 94.9241C48.3181 94.5648 48.5999 94.3253 48.8722 94.3714C49.1446 94.4267 49.3136 94.7675 49.2385 95.1176C49.1633 95.4769 48.8816 95.7164 48.6092 95.6703Z" fill="black"/>
<path d="M36.2127 95.9283C35.9685 95.8823 35.8277 95.5506 35.9028 95.1729C35.9685 94.7952 36.2221 94.5281 36.4569 94.5649C36.7011 94.611 36.8419 94.9426 36.7668 95.3203C36.7011 95.698 36.4475 95.9652 36.2127 95.9283Z" fill="black"/>
<path d="M40.1196 96.5361L39.3401 95.9189C39.0302 95.6701 39.0678 95.4675 39.434 95.3201L39.697 95.2187C39.8566 95.1542 40.0069 95.1727 40.1384 95.2924C40.4577 95.578 40.514 95.9741 40.3074 96.49C40.2792 96.5637 40.1759 96.5822 40.1196 96.5361Z" fill="black"/>
<path d="M44.2235 95.3663C44.5052 95.2466 44.8433 95.3295 45.0311 95.569C45.2753 95.8822 45.3317 96.1494 45.2002 96.3705C44.8715 96.9232 44.0357 96.8403 43.8291 96.2415C43.6882 95.8362 43.8197 95.5414 44.2235 95.3663Z" fill="black"/>
<path d="M74.2193 95.5503C74.5198 95.8635 74.3977 96.4531 73.9469 96.8677C73.4961 97.2822 72.8857 97.3652 72.5946 97.0611C72.2941 96.7479 72.4161 96.1583 72.8669 95.7438C73.3177 95.3292 73.9281 95.2463 74.2193 95.5503Z" fill="black"/>
<path d="M18.5477 98.1761C17.9561 97.8997 17.7776 97.5957 18.0124 97.2732C18.0406 97.2364 18.0688 97.2088 18.1157 97.1996L20.3978 96.4073C20.6044 96.3428 20.6514 96.4073 20.5293 96.5823L19.3741 98.4432C19.2708 98.5998 19.1487 98.6275 18.9891 98.5261C18.9046 98.4616 18.8201 98.3972 18.7355 98.3142C18.6792 98.259 18.6134 98.2129 18.5477 98.1761Z" fill="black"/>
<path d="M79.3656 98.692C78.7176 98.2958 78.3326 97.8076 78.2105 97.2456C78.1448 96.9232 78.2668 96.7021 78.5768 96.5639C79.1496 96.3152 79.638 96.3889 80.0418 96.7666C80.286 96.9969 80.4081 97.3009 80.3987 97.6694C80.3893 98.0748 80.2578 98.3972 80.0042 98.6275C79.807 98.821 79.6004 98.8394 79.3656 98.692Z" fill="black"/>
<path d="M30.0803 98.7469C29.9207 98.664 29.8173 98.5074 29.7986 98.3323C29.761 97.7704 30.024 97.3651 30.5874 97.1071C30.8973 96.9689 31.104 97.061 31.1885 97.3835C31.3106 97.8441 31.2824 98.3139 31.0946 98.793C30.9913 99.0601 30.6532 99.0417 30.0803 98.7469Z" fill="black"/>
<path d="M64.3866 99.4933C64.0391 99.3736 63.8983 98.8669 64.0767 98.3694C64.2551 97.8719 64.6871 97.5679 65.044 97.6877C65.3915 97.8075 65.5324 98.3141 65.3539 98.8116C65.1755 99.3091 64.7435 99.6131 64.3866 99.4933Z" fill="black"/>
<path d="M60.3577 99.1343C60.5549 99.7792 60.3107 100.092 59.6346 100.074C59.2026 100.065 58.8175 99.7331 58.4794 99.0882C58.348 98.8395 58.4419 98.5263 58.6954 98.3973C59.5125 97.9459 60.0666 98.1946 60.3577 99.1343Z" fill="black"/>
<path d="M70.2279 99.0327C70.0683 99.2538 69.6645 99.2445 69.3264 99.0142C68.9883 98.7839 68.8474 98.4154 69.0165 98.1851C69.1761 97.964 69.5799 97.9732 69.918 98.2035C70.2561 98.4339 70.397 98.8024 70.2279 99.0327Z" fill="black"/>
<path d="M21.337 98.9037L21.9287 98.4154C22.1259 98.2588 22.3325 98.2496 22.5391 98.397C22.6518 98.4799 22.7175 98.5905 22.7363 98.7102C22.7645 98.9221 22.7175 99.1248 22.6048 99.2998C22.2104 99.8802 21.9099 100.497 21.7033 101.152C21.6188 101.437 21.4309 101.52 21.1586 101.382C20.2852 100.94 19.7405 100.239 19.5245 99.2906C19.44 98.9313 19.5809 98.8024 19.9471 98.9037L20.5575 99.0695C20.8487 99.1524 21.1022 99.0972 21.337 98.9037Z" fill="black"/>
<path d="M54.6854 99.9358C54.197 99.7976 53.8777 99.5857 53.7181 99.2817C53.5396 98.95 53.6335 98.7381 53.9998 98.6368L54.7605 98.4157C55.1455 98.3052 55.54 98.5447 55.6057 98.9316C55.6527 99.1435 55.6339 99.3369 55.5493 99.5304C55.4085 99.862 55.0328 100.028 54.6854 99.9358Z" fill="black"/>
<path d="M35.6118 99.3738L36.2879 98.775C36.4758 98.6092 36.7857 98.7013 36.8514 98.9408C37.0205 99.5212 36.9453 99.9357 36.6166 100.184C36.4194 100.341 36.1189 100.313 35.7151 100.111C35.3394 99.9173 34.9356 99.7883 34.5036 99.7146C34.3158 99.687 34.1937 99.5857 34.1373 99.4106C34.0998 99.2909 34.0998 99.1803 34.1467 99.079C34.2406 98.8579 34.3721 98.8303 34.5505 98.9961L34.9262 99.3646C35.1516 99.5765 35.377 99.5857 35.6118 99.3738Z" fill="black"/>
<path d="M74.7076 100.544C74.3883 99.4935 74.7264 98.8486 75.7125 98.5999C75.9849 98.5354 76.1539 98.6275 76.2384 98.8855C76.5859 99.8896 76.3981 100.571 75.6749 100.94C75.1866 101.189 74.8673 101.06 74.7076 100.544Z" fill="black"/>
<path d="M49.6329 99.3919C49.6329 99.2722 49.7081 99.1616 49.8302 99.1155C50.1025 99.0234 50.3561 99.0695 50.5908 99.263C50.9571 99.567 51.0604 100.083 50.8444 100.507C50.7223 100.737 50.5439 100.866 50.2997 100.894C49.9053 100.94 49.6987 100.774 49.6799 100.378L49.6329 99.3919Z" fill="black"/>
<path d="M39.0959 99.5023C39.5185 99.1339 39.7157 99.226 39.7063 99.7787V100.516C39.6875 100.801 39.5654 101.032 39.3119 101.188C38.9926 101.4 38.6451 101.419 38.2601 101.262C37.9314 101.124 37.8656 100.912 38.0628 100.626C38.2976 100.285 38.6357 99.9077 39.0959 99.5023Z" fill="black"/>
<path d="M44.3644 100.654C44.3644 101.17 43.9324 101.594 43.4065 101.594C42.8806 101.594 42.4486 101.17 42.4486 100.654C42.4486 100.138 42.8806 99.7144 43.4065 99.7144C43.9324 99.7144 44.3644 100.138 44.3644 100.654Z" fill="black"/>
<path d="M46.1863 102.257C45.9984 102.202 45.8482 102.055 45.8106 101.87C45.6416 101.161 45.8951 100.627 46.5713 100.267C46.8718 100.111 47.0972 100.184 47.2381 100.488C47.4541 100.958 47.4541 101.465 47.2475 101.999C47.116 102.331 46.7591 102.414 46.1863 102.257Z" fill="black"/>
<path d="M24.3046 101.207L24.4079 100.931C24.5488 100.59 24.8118 100.433 25.178 100.452C25.5161 100.47 25.7697 100.599 25.9481 100.848C26.1265 101.115 26.0984 101.354 25.8448 101.566C25.1405 102.165 24.6991 102.911 24.5019 103.805C24.4267 104.146 24.2201 104.284 23.8726 104.21C22.8114 103.98 22.1071 103.473 21.7408 102.681C21.553 102.276 21.6845 102.036 22.1353 101.962L23.6285 101.732C23.9572 101.686 24.1826 101.511 24.3046 101.207Z" fill="black"/>
<path d="M71.646 105.831C71.6742 105.914 71.6085 105.997 71.5146 105.988C70.8947 105.886 70.5942 105.472 70.6036 104.735C70.613 103.537 70.8666 102.542 71.3549 101.75C71.8808 100.893 73.158 100.939 73.6276 101.824C73.7215 101.99 73.7309 102.229 73.6558 102.533C73.5712 102.911 73.3365 103.049 72.9514 102.957L72.6039 102.874C72.2377 102.791 71.956 102.902 71.7587 103.215C71.3173 103.887 71.2798 104.753 71.646 105.831Z" fill="black"/>
<path d="M68.0774 101.925C68.2934 101.852 68.5282 101.953 68.6127 102.165L68.8569 102.8C69.0635 103.335 68.8475 103.906 68.3779 104.081L67.9553 104.238C67.4857 104.413 66.941 104.127 66.7344 103.593L66.4903 102.957C66.4057 102.745 66.509 102.506 66.725 102.432L68.0774 101.925Z" fill="black"/>
<path d="M84.3994 105.859C84.2867 105.306 83.9017 105.076 83.8923 104.413C83.8735 103.455 84.437 103.252 85.5733 103.795C86.0429 104.026 86.3716 104.44 86.4749 104.938C86.7284 106.126 86.2777 106.707 85.1319 106.688C84.8314 106.679 84.5966 106.799 84.437 107.047L83.911 107.812C83.7514 108.052 83.5072 108.208 83.2255 108.263C82.1737 108.466 81.2345 108.936 80.4081 109.673C79.7319 110.29 78.6332 110.051 78.2763 109.212C77.91 108.337 77.7879 107.646 77.9006 107.14C78.3232 105.251 78.9712 105.177 79.8352 106.918C80.0043 107.259 80.2391 107.665 80.5396 108.134C80.718 108.411 80.9528 108.475 81.2533 108.337C81.6384 108.162 81.8638 107.858 81.9107 107.444C81.9483 107.14 81.845 106.882 81.6102 106.67C80.6241 105.795 80.1358 104.754 80.1358 103.556C80.1452 103.206 79.9198 102.893 79.5817 102.773L79.2999 102.672C79.0652 102.589 78.8116 102.773 78.821 103.022C78.8398 103.418 78.7928 103.786 78.6801 104.136C78.558 104.523 78.2951 104.661 77.9006 104.56L77.2526 104.385C76.8864 104.284 76.5201 104.532 76.4826 104.91C76.398 105.859 75.8909 106.292 74.9612 106.227C74.6325 106.2 74.4259 106.034 74.3413 105.712C74.2099 105.15 74.2005 104.597 74.3226 104.053C74.3977 103.713 74.6043 103.584 74.9518 103.666L75.75 103.869C76.1351 103.97 76.3793 103.832 76.4826 103.455C76.6704 102.81 77.0366 102.321 77.5813 101.999C77.9664 101.769 78.2857 101.842 78.5299 102.22C78.7177 102.506 78.9055 102.496 79.0933 102.22C79.3938 101.769 79.7132 101.75 80.0606 102.174C80.9998 103.307 82.5305 105.877 83.9862 106.246C84.3337 106.329 84.4651 106.209 84.3994 105.868V105.859Z" fill="black"/>
<path d="M37.3209 110.115C37.8937 110.134 38.4009 109.995 38.8423 109.71C39.0676 109.553 39.1616 109.351 39.1146 109.083L38.908 107.821C38.861 107.517 38.9831 107.315 39.2836 107.223C39.8565 107.038 40.3636 107.186 40.7956 107.674C40.9929 107.895 41.237 107.987 41.5282 107.95C42.4015 107.84 43.1059 108.079 43.6318 108.669C43.8572 108.918 43.8854 109.194 43.7069 109.48C43.5848 109.673 43.4064 109.811 43.1716 109.903C42.8805 110.014 42.7396 110.217 42.7396 110.521C42.7396 110.843 42.8617 111.092 43.1059 111.285C43.4064 111.525 43.3688 111.672 42.9932 111.737C41.7535 111.948 40.8426 111.976 40.2603 111.819C38.692 111.405 37.1049 111.018 35.5084 110.677C34.6537 110.502 34.1184 109.968 33.339 109.618C33.0666 109.498 32.8131 109.526 32.5783 109.71C32.0993 110.088 31.611 110.069 31.1132 109.645C30.8785 109.452 30.6061 109.323 30.315 109.258C29.8736 109.157 29.4979 108.936 29.1692 108.595C28.9626 108.374 28.7091 108.217 28.4179 108.116C26.9529 107.646 25.7226 106.891 24.7272 105.841C24.5112 105.61 24.5957 105.242 24.8868 105.122C26.0513 104.661 26.8778 103.786 27.3755 102.487C27.5633 101.981 27.9108 101.824 28.4273 102.018C28.8312 102.174 29.2256 102.165 29.62 102.008C30.1178 101.806 30.4465 101.962 30.6061 102.469C30.7658 102.994 30.8127 103.519 30.7376 104.035C30.6906 104.367 30.4934 104.505 30.1553 104.459C29.6764 104.394 29.3289 104.136 29.0941 103.694C28.9532 103.427 28.7372 103.344 28.4461 103.427C27.7512 103.62 27.2722 103.897 27.0092 104.247C25.8166 105.822 26.211 106.43 28.1738 106.062C28.4367 106.016 28.9908 106.053 29.836 106.182C30.1647 106.228 30.3432 106.412 30.3901 106.734L30.5216 107.766C30.5873 108.31 30.8409 108.411 31.2635 108.052C32.0054 107.434 32.7661 107.342 33.555 107.775C33.94 107.987 34.1654 107.886 34.2405 107.462C34.4753 106.08 35.1139 104.837 36.1657 103.722C36.3911 103.482 36.6541 103.418 36.964 103.538C37.1894 103.62 37.3115 103.796 37.3303 104.053C37.396 105.012 36.9546 105.518 36.0061 105.564C35.5835 105.583 35.2266 105.905 35.1609 106.32L34.757 108.844C34.7101 109.111 34.8134 109.304 35.0576 109.424C35.1327 109.461 35.2078 109.489 35.2924 109.498C35.5365 109.526 35.7244 109.443 35.8558 109.231L37.1988 107.029C37.2645 106.918 37.396 106.882 37.5087 106.946L37.9125 107.158C38.0534 107.232 38.1003 107.398 38.0252 107.536L36.9452 109.47C36.7198 109.885 36.8419 110.097 37.3209 110.115Z" fill="black"/>
<path d="M32.2215 105.316C32.1182 105.527 31.9773 105.675 31.7988 105.758C31.4326 105.914 31.3011 105.804 31.3856 105.426C31.6392 104.275 32.3341 103.206 33.4517 102.229C33.8461 101.889 34.0434 101.971 34.034 102.487V104.505C34.034 104.79 33.8931 104.938 33.602 104.956C33.1136 104.984 32.6535 105.104 32.2215 105.316Z" fill="black"/>
<path d="M56.9299 105.002C56.5355 104.938 56.2913 104.468 56.3758 103.952C56.4604 103.436 56.8454 103.068 57.2304 103.123C57.6249 103.188 57.869 103.657 57.7845 104.173C57.7 104.689 57.315 105.058 56.9299 105.002Z" fill="black"/>
<path d="M38.2976 106.2C38.0441 106.2 37.8468 105.592 37.8656 104.864C37.8844 104.127 38.1098 103.538 38.3727 103.547C38.6263 103.547 38.8235 104.155 38.8047 104.883C38.786 105.62 38.5606 106.209 38.2976 106.2Z" fill="black"/>
<path d="M50.788 105.675L53.2297 107.139C53.549 107.333 53.6054 107.591 53.3988 107.895C52.6381 109.037 51.4078 108.862 50.4875 109.765C50.3842 109.875 50.2809 109.875 50.1869 109.765H50.1776C50.0743 109.636 50.093 109.535 50.2245 109.452C50.7223 109.12 51.1636 108.724 51.5487 108.263C51.7271 108.051 51.7271 107.83 51.5487 107.609L49.9616 105.647C49.755 105.398 49.7925 105.186 50.0743 105.011C50.572 104.698 50.9664 104.274 51.2482 103.731C51.3984 103.436 51.7929 103.344 52.0652 103.537C52.6005 103.915 52.7977 104.357 52.6756 104.845C52.5911 105.168 52.3939 105.269 52.084 105.149C51.6802 105.002 51.2576 105.021 50.8256 105.196C50.4875 105.334 50.4781 105.5 50.788 105.684V105.675Z" fill="black"/>
<path d="M63.9827 104.441C63.654 104.395 63.4474 104.21 63.3817 103.869C63.3066 103.547 63.6447 103.271 63.9546 103.4C64.4711 103.611 64.8373 103.98 65.044 104.505C65.1754 104.864 65.0533 105.021 64.6683 104.984C64.3678 104.956 64.1424 104.781 63.9827 104.441Z" fill="black"/>
<path d="M61.6161 103.74C61.7758 103.657 61.8885 103.694 61.9542 103.869C62.0575 104.136 62.0951 104.44 62.0669 104.772C62.0387 105.094 61.8509 105.269 61.5222 105.297C61.0902 105.334 60.7427 105.214 60.4798 104.938C60.2074 104.643 60.2544 104.403 60.6112 104.228L61.6161 103.74Z" fill="black"/>
<path d="M41.2935 106.265C40.777 106.265 40.345 105.758 40.345 105.122C40.345 104.487 40.7582 103.961 41.2747 103.961C41.7912 103.961 42.2232 104.468 42.2232 105.104C42.2232 105.739 41.81 106.265 41.2935 106.265Z" fill="black"/>
<path d="M56.235 106.513C56.5731 106.799 56.5543 107.048 56.1692 107.259L55.8875 107.416C55.7278 107.499 55.5964 107.462 55.5024 107.305L54.2722 105.168C54.1501 104.966 54.2064 104.698 54.3943 104.551C54.6103 104.376 54.8169 104.302 54.9953 104.33C55.2677 104.367 55.4085 104.523 55.3991 104.79C55.3804 105.463 55.6621 106.043 56.235 106.513Z" fill="black"/>
<path d="M44.6462 105.564C44.5053 106.541 44.0169 106.974 43.1717 106.863C42.411 106.762 42.2796 106.421 42.7585 105.841C43.2375 105.26 43.8385 104.846 44.5804 104.597C44.8903 104.496 45.0124 104.597 44.9561 104.91C44.9561 104.993 44.8997 105.076 44.8246 105.159C44.7307 105.279 44.6743 105.408 44.6462 105.564Z" fill="black"/>
<path d="M48.365 106.771C49.1257 107.333 49.4826 108.162 49.4169 109.267C49.3981 109.618 49.2103 109.774 48.8534 109.737C48.7501 109.728 48.6562 109.7 48.5623 109.673C48.3463 109.608 48.2148 109.461 48.1866 109.231C48.0082 107.876 47.3602 107.121 46.252 106.955C45.3223 106.817 45.2471 106.495 46.0266 105.979L47.0784 105.269C47.3508 105.085 47.6325 105.094 47.9049 105.288C48.196 105.5 48.2899 105.767 48.1678 106.108C48.0645 106.375 48.1303 106.596 48.365 106.771Z" fill="black"/>
<path d="M72.9139 107.72C72.7918 107.176 72.5664 106.697 72.2283 106.264C72.0217 106.015 72.0499 105.785 72.3128 105.592C72.5288 105.435 72.7542 105.389 73.0078 105.454C73.3177 105.536 73.4773 105.73 73.4867 106.052C73.5055 108.77 76.0693 108.355 77.6846 109.332C77.9664 109.507 77.9945 109.719 77.7598 109.958C76.9803 110.778 76.0505 111.248 74.9518 111.377C74.6325 111.423 74.4634 111.285 74.4352 110.962C74.4165 110.686 74.3977 110.41 74.3789 110.133C74.3601 109.793 74.2756 109.544 74.1159 109.369C73.8624 109.083 73.5431 108.945 73.1768 108.954C72.8481 108.963 72.6039 109.111 72.4537 109.396C72.3316 109.627 72.2565 109.857 72.2283 110.106C72.1907 110.428 72.3128 110.658 72.6039 110.815L73.2519 111.174C73.6839 111.405 73.6746 111.617 73.2238 111.81C72.8481 111.967 72.4631 111.994 72.0593 111.893C71.7587 111.81 71.5991 111.617 71.5709 111.313C71.5239 110.732 71.3267 110.226 70.9699 109.774C70.7069 109.452 70.5754 109.185 70.566 108.973C70.566 108.816 70.5942 108.669 70.6506 108.53C70.782 108.217 71.0168 108.07 71.3643 108.097L72.4913 108.19C72.8387 108.217 72.9796 108.061 72.9139 107.72Z" fill="black"/>
<path d="M65.1379 109.13C65.1285 109.517 65.2881 109.599 65.6168 109.388L66.2179 108.991C66.4996 108.798 66.6499 108.476 66.6029 108.144C66.4339 106.863 67.3918 106.283 69.4766 106.384C69.8241 106.403 70.0683 106.725 69.9932 107.057C69.965 107.167 69.965 107.278 69.9744 107.379C70.0683 107.95 69.8241 108.218 69.2325 108.172C68.3966 108.107 67.6078 108.264 66.8659 108.641C66.5184 108.816 66.4433 109.074 66.6499 109.397L66.7907 109.618C67.0255 109.986 67.4857 110.143 67.8989 109.996C69.1761 109.526 70.0495 109.903 70.5191 111.119C70.6599 111.479 70.5191 111.672 70.1434 111.7C68.4812 111.838 66.9973 111.35 65.7107 110.235C65.5041 110.06 65.26 109.95 64.9876 109.913C62.9309 109.646 61.1184 108.807 59.5407 107.407C59.3059 107.195 59.0335 107.121 58.733 107.186L57.7094 107.398C57.3713 107.462 57.268 107.342 57.3995 107.029L57.6718 106.366C57.6906 106.301 57.7563 106.255 57.8315 106.255L60.893 106.292C61.1841 106.301 61.3156 106.44 61.2874 106.716L61.2405 107.287C61.2123 107.646 61.3532 107.914 61.6819 108.089C62.2735 108.402 62.8464 108.319 63.4005 107.831C63.8419 107.444 64.3114 107.066 64.7998 106.698C65.0533 106.504 65.1848 106.559 65.1754 106.882L65.1379 109.13Z" fill="black"/>
<path d="M44.8903 109.212C44.7682 109.111 44.6461 109.01 44.5334 108.89C44.4113 108.77 44.3456 108.641 44.3362 108.512C44.308 108.337 44.3362 108.19 44.4395 108.07C44.6461 107.831 44.8621 107.821 45.0875 108.042C45.6604 108.586 46.3178 108.991 47.0597 109.268C47.3602 109.378 47.4447 109.581 47.3226 109.867C46.9752 110.668 46.3553 111.156 45.4538 111.331C45.0969 111.405 44.956 111.267 45.0218 110.917L45.2002 110.078C45.2753 109.728 45.172 109.443 44.8903 109.212Z" fill="black"/>
</g>
<defs>
<clipPath id="clip0_2165_1599">
<rect width="110" height="120" fill="white"/>
</clipPath>
</defs>
</svg>
