<svg width="70" height="140" viewBox="0 0 70 140" fill="none" xmlns="http://www.w3.org/2000/svg">
<g clip-path="url(#clip0_2096_573)">
<path d="M69.2298 42.6066C68.2527 41.9547 67.0852 41.44 65.719 41.0626C56.0479 38.3777 46.4181 36.0531 36.8215 34.1059C36.5317 34.0459 36.4157 33.8658 36.4654 33.5655C36.8215 31.4039 37.5998 28.8734 38.817 25.9827C42.2201 17.8594 45.5652 10.0449 48.869 2.53924C49.1505 1.90448 48.9021 1.14962 48.3142 0.823662C46.6996 -0.0684401 45.0684 0.0945401 43.2468 0.0688064C33.2113 -0.0598622 23.1179 0.000183191 12.9665 0.223209C12.5525 0.231787 12.1881 0.514858 12.0557 0.926597C7.84109 14.0422 4.08192 27.3294 0.786441 40.7795C0.438677 42.1949 0.173713 43.9534 -0.000168941 46.0635C-0.0250093 46.3552 0.0826321 46.5696 0.322755 46.7155C1.65585 47.5304 2.88959 48.0622 4.04052 48.3024C8.81814 49.3146 13.5544 50.3696 18.2492 51.4762C19.1517 51.6906 19.5988 52.2825 19.5906 53.2432C19.5823 54.6071 19.4746 55.9024 19.2676 57.1119C16.5435 73.4013 13.6786 92.3328 10.6729 113.906C9.78691 120.245 8.78502 126.747 7.65065 133.421C7.39396 134.939 7.36084 136.5 7.56785 138.087C7.70033 139.108 8.49522 139.897 9.48055 139.992C11.1117 140.146 12.4779 138.139 13.248 136.946C20.1122 126.456 26.6369 116.214 32.8139 106.229C33.6502 104.882 34.6769 103.21 35.9024 101.228C46.5423 83.9521 56.9918 66.7449 67.2343 49.6148C68.0954 48.1737 68.9565 46.5954 69.8094 44.8884C70.2068 44.082 69.9584 43.0956 69.2298 42.6066ZM57.381 48.5511C56.5447 50.9015 55.5759 53.0116 54.4829 54.873C45.9379 69.5155 37.4921 84.1837 29.1458 98.8863C28.1522 100.628 27.3821 102.54 26.3637 104.308C26.2064 104.582 26.049 104.582 25.9 104.308C25.7261 103.964 25.7096 103.604 25.8503 103.227C31.0585 89.2704 36.7138 73.5815 42.808 56.1426C43.0647 55.3963 42.6589 54.5814 41.922 54.3669C41.8144 54.3412 41.715 54.3069 41.6156 54.264C40.4813 53.8523 39.6698 54.2211 39.1896 55.362C32.4413 71.4627 27.9286 82.7684 25.635 89.2619C23.5898 95.0691 21.5281 100.859 19.4415 106.641C19.2676 107.121 19.1434 107.396 19.0689 107.464C18.5307 107.919 18.3154 107.79 18.4148 107.078C21.1389 88.4384 24.0949 69.9787 27.2828 51.7164C27.5312 50.2924 27.4981 48.7913 27.4484 47.3845C27.4318 47.0929 27.3325 46.8441 27.1503 46.6297C26.579 45.9863 25.8503 45.5917 24.9643 45.4459C19.3587 44.4938 13.7945 43.5245 8.27166 42.5552C7.56785 42.4351 7.129 41.706 7.31944 41.0026C10.4079 29.4653 13.8193 18.0996 17.5619 6.88824C17.7193 6.41646 18.1498 6.0905 18.6301 6.07334C24.2937 5.8932 29.7834 5.82458 35.0992 5.85889C36.7552 5.86747 38.4112 5.94467 40.0755 6.10765C40.3985 6.14196 40.4647 6.29637 40.2908 6.57944C35.2234 14.5569 31.4725 24.207 28.4089 33.0508C27.7796 34.8608 27.3325 36.6707 27.0675 38.4807C27.0261 38.7466 27.1834 39.0039 27.4318 39.0897C36.7387 42.1349 47.3372 44.2879 56.9587 47.6504C57.3975 47.8048 57.5383 48.1051 57.381 48.5597V48.5511Z" fill="black"/>
</g>
<defs>
<clipPath id="clip0_2096_573">
<rect width="70" height="140" fill="white"/>
</clipPath>
</defs>
</svg>
