<svg width="160" height="160" viewBox="0 0 160 160" fill="none" xmlns="http://www.w3.org/2000/svg">
<g clip-path="url(#clip0_2478_4302)">
<path d="M160 139.772C155.483 137.702 150.965 135.631 146.304 133.498C146.746 130.585 148.105 129.763 150.554 130.834C153.713 132.229 156.862 133.665 160.01 135.09V139.772H160Z" fill="black"/>
<path d="M160 124.165C157.736 123.728 155.472 123.291 153.095 122.833C154.279 117.766 157.438 119.41 160 119.482V124.165Z" fill="black"/>
<path d="M113.623 142.322C107.994 144.923 102.201 147.202 96.778 150.188C90.3571 153.726 83.5965 155.963 76.4243 156.795C61.9051 158.481 48.0649 156.535 35.367 148.575C28.3389 144.174 22.7308 138.461 18.3061 131.427C17.2462 129.742 15.7645 128.243 14.2518 126.922C6.58575 120.221 2.65495 111.46 1.05999 101.627C-3.3956 74.1366 6.57546 52.1193 26.5073 33.9103C37.1678 24.1711 49.0322 16.6065 63.1399 13.3809C84.6152 8.49052 104.146 13.5994 121.721 26.5018C137.547 38.1244 148.907 53.0246 151.49 73.1793C152.19 78.6316 150.502 84.4065 149.854 90.0149C149.679 91.5444 148.897 93.0844 149.041 94.5515C151.068 113.843 142.373 128.077 128.338 139.824C121.731 145.36 114.343 149.428 106.07 151.821C105.453 151.998 104.773 152.383 104.218 152.248C102.993 151.957 101.841 151.395 100.647 150.947C101.491 150.011 102.16 148.679 103.209 148.211C106.811 146.588 110.536 145.256 114.22 143.82C114.024 143.31 113.818 142.8 113.623 142.29V142.322ZM76.2082 139.699C76.5581 139.835 76.908 140.074 77.2681 140.105C97.1999 141.697 113.89 135.392 126.372 119.181C127.741 117.401 128.585 115.081 129.233 112.875C132.227 102.751 131.507 92.4913 129.017 82.4815C125.467 68.1745 118.521 55.9172 105.247 48.5191C95.2963 42.9628 84.5123 42.557 73.4402 43.8056C55.7722 45.8034 40.121 58.5913 36.1799 75.7286C32.2388 92.8555 36.5401 108.401 47.2829 122.073C51.0593 126.88 55.6384 130.855 61.7095 132.655C70.8883 135.381 80.1699 135.329 89.4309 133.425C100.935 131.063 111.04 126.1 118.459 116.444C119.2 115.476 120.754 115.164 121.937 114.54C121.803 115.986 122.133 117.734 121.443 118.837C117.79 124.716 112.398 128.691 106.44 131.927C96.9941 137.067 86.7761 139.065 76.2082 139.689V139.699ZM87.3935 148.481C84.9754 148.648 82.5572 149.002 80.139 148.96C68.4701 148.773 57.6759 145.422 47.5813 139.585C24.8197 126.412 14.9104 104.374 18.6148 78.4964C21.0227 61.6712 29.5634 48.3214 42.3745 37.9579C56.6674 26.3978 73.1006 20.446 91.705 21.9236C93.7425 22.09 95.7696 22.3918 97.7968 22.6623C99.7622 22.9225 101.728 23.2242 103.683 23.5051C90.9436 16.4817 77.3401 15.181 63.7573 18.6147C37.991 25.1284 23.1219 43.2645 15.8159 68.1328C12.0703 80.8687 12.7701 93.9896 14.8384 107.09C18.8309 132.291 35.0274 148.762 59.9705 151.988C69.3448 153.205 78.5955 151.957 87.4038 148.481H87.3935ZM138.216 71.4521C137.259 64.2205 133.267 59.3197 128.687 54.9391C116.658 43.431 102.438 35.7728 86.1587 33.0467C63.6132 29.2696 50.4317 36.4283 40.121 57.6236C53.9097 41.2667 71.8144 36.959 91.7977 39.9453C111.863 42.942 126.99 53.9402 138.226 71.4521H138.216ZM18.2547 49.3724C1.95523 68.549 -0.205684 101.762 12.8421 118.359C6.42111 94.2914 7.00764 71.3792 18.2547 49.3724ZM35.8198 117.776C25.5915 97.1528 26.4455 76.3009 34.657 55.2721C21.5166 74.5424 20.4464 100.181 35.8198 117.776ZM129.644 50.1007C125.714 35.2838 98.2187 25.9191 83.9875 28.0626C101.758 31.2986 116.607 38.5406 129.644 50.1007ZM135.201 107.09C141.807 92.6162 138.453 73.71 125.271 62.2747C133.647 76.0616 136.168 90.7016 135.201 107.09ZM128.574 131.688C136.199 126.194 140.274 118.483 142.579 110.43C138.175 117.11 133.4 124.352 128.574 131.688ZM143.598 62.5869L146.057 82.2318C147.776 75.3644 146.458 68.8508 143.598 62.5869Z" fill="black"/>
<path d="M140.737 138.565C142.918 140.553 145.069 142.176 146.788 144.184C148.208 145.839 151.84 147.576 149.494 149.959C146.849 152.643 145.82 148.367 144.133 147.129C142.394 145.859 140.84 144.288 139.358 142.707C138.864 142.176 138.535 141.073 138.73 140.417C138.936 139.741 139.883 139.304 140.737 138.555V138.565Z" fill="black"/>
<path d="M131.507 146.099C133.102 147.326 133.946 147.743 134.45 148.419C136.22 150.781 138.01 153.133 139.461 155.692C139.945 156.535 139.41 157.971 139.338 159.136C138.329 158.762 136.991 158.678 136.384 157.96C134.326 155.526 132.361 152.956 130.735 150.219C130.282 149.449 131.126 147.888 131.497 146.109L131.507 146.099Z" fill="black"/>
<path d="M31.2406 19.2912C30.0366 21.9862 28.7298 22.4648 26.7335 20.5606C25.1489 19.0519 23.1732 17.9177 21.7634 16.2737C20.9402 15.3164 20.8991 13.6724 20.5081 12.3406C21.7429 12.5487 23.2658 12.3822 24.161 13.0481C26.6101 14.8898 28.7915 17.0957 31.2406 19.2912Z" fill="black"/>
<path d="M49.0115 8.71952C48.4353 9.52071 47.6429 10.6445 46.8403 11.7682C46.0685 10.7277 44.9881 9.79125 44.5971 8.61546C43.9899 6.82578 43.6195 4.86961 43.6195 2.98628C43.6195 1.99779 44.6074 0.998894 45.1527 0C45.9142 0.68674 47.0461 1.23821 47.3651 2.09144C48.0751 3.98517 48.3735 6.03499 49.0012 8.71952H49.0115Z" fill="black"/>
<path d="M123.974 15.8886C124.901 13.3706 125.446 11.3832 126.393 9.60392C126.722 8.97961 128.183 8.50098 128.893 8.71949C129.459 8.89637 130.056 10.3219 129.932 11.0711C129.644 12.8295 129.089 14.5776 128.348 16.1904C127.905 17.1685 126.907 17.8864 126.166 18.7188C125.425 17.7616 124.684 16.7939 123.985 15.8782L123.974 15.8886Z" fill="black"/>
<path d="M39.1125 13.6308C38.2276 14.7545 37.9292 15.5141 37.4455 15.6494C36.8384 15.8263 35.7991 15.7534 35.4493 15.3372C33.7823 13.381 32.2079 11.3208 30.829 9.15655C30.6644 8.89642 31.858 7.74145 32.424 7.00269C34.6364 9.18777 36.8487 11.3833 39.1125 13.6308Z" fill="black"/>
<path d="M139.965 19.8738C141.2 21.3201 142.538 22.6936 142.445 22.7976C140.84 24.6393 139.05 26.325 137.311 28.0418C136.611 27.2927 135.211 26.0544 135.335 25.8567C136.611 23.911 138.144 22.1525 139.965 19.8738Z" fill="black"/>
<path d="M117.039 9.26063C115.887 11.1231 115.135 12.3406 114.384 13.5475C113.448 11.6642 112.203 9.86413 111.719 7.87674C111.524 7.06514 112.985 5.84774 113.685 4.81763C114.724 6.20151 115.763 7.57499 117.039 9.26063Z" fill="black"/>
<path d="M18.9234 30.5183C16.9168 28.9888 15.291 27.7506 13.6652 26.5019C14.7353 25.8048 16.0833 24.296 16.8139 24.5562C18.625 25.2013 20.1582 26.658 21.8046 27.7922C21.002 28.5518 20.1993 29.3009 18.9234 30.5079V30.5183Z" fill="black"/>
<path d="M117.43 156.421C118.994 154.787 120.105 153.622 121.217 152.456C121.999 153.632 123.542 154.933 123.378 155.963C123.151 157.42 121.67 158.668 120.723 160.01C119.786 158.991 118.84 157.961 117.44 156.431L117.43 156.421Z" fill="black"/>
<path d="M147.127 32.3911C147.817 33.5357 149.154 34.7635 149.01 35.7936C148.856 36.9694 147.374 37.9579 146.479 39.0296C145.573 37.9995 144.071 37.0526 143.927 35.9289C143.793 34.8571 145.069 33.5981 145.728 32.4223C146.191 32.4119 146.654 32.4015 147.117 32.3911H147.127Z" fill="black"/>
<path d="M54.9695 58.4561C54.28 59.7152 54.0948 60.2042 53.7964 60.5996C51.5223 63.5547 49.2996 66.5409 46.8918 69.3815C46.3978 69.9642 45.1836 69.9122 44.2987 70.1515C44.1855 69.3607 43.7019 68.2786 44.0311 67.8208C46.4596 64.5327 48.9806 61.3071 51.6869 58.248C52.078 57.8006 53.5597 58.3313 54.9797 58.4561H54.9695Z" fill="black"/>
</g>
<defs>
<clipPath id="clip0_2478_4302">
<rect width="160" height="160" fill="white"/>
</clipPath>
</defs>
</svg>
