<svg width="140" height="140" viewBox="0 0 140 140" fill="none" xmlns="http://www.w3.org/2000/svg">
<g clip-path="url(#clip0_2478_4252)">
<path d="M140 106.204C135.127 113.711 126.977 113.744 119.678 114.295C84.6621 116.918 49.5911 116.72 14.531 115.243C12.9031 115.177 11.2752 114.923 9.65819 114.67C3.56173 113.733 0 110.558 0 104.319C0.0218511 82.2959 0.142032 60.2614 0.928672 38.26C1.25644 29.0891 6.46793 24.5587 15.5798 24.3713C34.1314 24.0076 52.6939 24.0517 71.2564 24.0406C89.819 24.0406 108.392 24.0186 126.944 24.3603C131.303 24.4375 135.652 25.9696 140 26.8294V106.193V106.204ZM73.1138 28.4718V28.0529C60.5603 28.0529 48.0069 27.9537 35.4643 28.086C28.2425 28.1631 20.988 28.2513 13.8317 29.0229C7.88825 29.6622 5.9435 31.8007 5.68129 37.8742C5.11316 50.9251 4.94927 63.9871 4.75261 77.0491C4.64336 84.754 4.57781 92.4699 4.89465 100.164C5.16779 107.042 8.36897 109.974 15.1756 110.393C19.666 110.668 24.1564 111.098 28.6577 111.109C51.9838 111.153 75.3207 111.308 98.6359 110.944C108.283 110.79 117.941 109.676 127.545 108.552C133.816 107.825 135.87 105.4 136.001 99.0725C136.406 79.2536 136.733 59.4347 136.832 39.6158C136.875 30.5992 139.104 28.6151 125.939 28.4938C108.338 28.3395 90.7367 28.4497 73.1356 28.4497L73.1138 28.4718Z" fill="black"/>
<path d="M41.0253 19.0804C37.7367 17.9892 30.5696 5.76493 32.1101 1.70856C35.7592 7.69391 38.9713 12.9628 42.1725 18.2317C41.7901 18.5183 41.3968 18.7938 41.0144 19.0804H41.0253Z" fill="black"/>
<path d="M77.0797 140C74.239 136.451 72.4145 123.653 75.2551 120.346C76.4132 127.368 77.4511 133.585 78.4781 139.791C78.0083 139.857 77.5495 139.923 77.0797 139.989V140Z" fill="black"/>
<path d="M62.4833 0.661352C62.8876 1.4109 63.4994 2.11636 63.6524 2.90999C64.4936 7.46239 65.313 12.0258 65.9249 16.6113C66.045 17.5262 65.2803 18.5623 64.9306 19.5323C64.3079 18.6836 63.2809 17.9009 63.117 16.953C62.3522 12.7974 61.7732 8.60876 61.2597 4.42011C61.1176 3.24068 61.4126 1.99511 61.5109 0.782603C61.8387 0.738512 62.1665 0.694421 62.4942 0.65033L62.4833 0.661352Z" fill="black"/>
<path d="M57.0641 138.104C55.5782 132.626 56.9985 126.971 56.6598 121.427C56.9985 121.239 57.3372 121.041 57.6759 120.853C58.3205 121.669 59.5223 122.485 59.5114 123.301C59.4786 128.206 59.1727 133.111 58.9542 138.005C58.3205 138.038 57.6868 138.071 57.0531 138.104H57.0641Z" fill="black"/>
<path d="M105.934 1.59831C103.596 7.59469 101.269 13.5911 98.9308 19.5874C98.1878 19.2898 97.4558 19.0032 96.7129 18.7056C99.0619 12.7423 101.4 6.77901 103.749 0.826721C104.481 1.08024 105.202 1.34479 105.934 1.59831Z" fill="black"/>
<path d="M67.0611 138.347C65.892 137.321 65.0617 136.958 65.018 136.506C64.6028 131.854 64.2641 127.203 64.0565 122.54C64.0347 122.044 64.9415 121.129 65.455 121.107C65.9685 121.085 66.9737 121.912 66.9846 122.386C67.0938 127.39 67.0501 132.394 67.0501 138.347H67.0611Z" fill="black"/>
<path d="M46.958 120.082C45.6906 125.571 44.609 130.388 43.4291 135.194C43.3526 135.503 42.5222 135.878 42.1289 135.789C41.7247 135.701 41.0691 135.018 41.1347 134.731C42.1726 130.08 43.287 125.45 44.4779 120.842C44.5435 120.589 45.4066 120.534 46.958 120.082Z" fill="black"/>
<path d="M112.555 135.426C110.578 130.223 108.797 125.538 106.972 120.732C110.064 120.809 110.119 120.787 113.517 129.275C114.216 131.027 116.029 133.155 112.555 135.426Z" fill="black"/>
<path d="M77.1889 2.84388C77.1889 4.75082 77.2108 6.66878 77.1889 8.57572C77.1452 11.8715 77.1343 15.1783 76.9595 18.4741C76.9267 19.0804 76.2056 19.6536 75.8014 20.2378C75.3097 19.8851 74.392 19.5213 74.4029 19.1906C74.5777 13.7123 74.8727 8.24503 75.1349 2.76672C75.8232 2.78877 76.5116 2.82184 77.1889 2.84388Z" fill="black"/>
<path d="M96.3962 122.11C99.7613 121.603 104.514 130.113 104.525 136.947C100.045 132.339 98.8873 126.938 96.3962 122.11Z" fill="black"/>
<path d="M115.417 5.01538C113.56 9.36937 111.779 13.8005 109.736 18.0994C109.354 18.9041 107.922 19.1906 106.316 20.0835C108.786 11.2543 112.555 5.29095 115.417 5.01538Z" fill="black"/>
<path d="M89.4475 135.933C88.049 131.215 86.6615 126.486 85.1428 121.361C86.3774 121.361 87.7103 121.184 87.765 121.383C89.0979 126.034 90.2888 130.73 91.5124 135.415C90.8241 135.591 90.1358 135.756 89.4475 135.933Z" fill="black"/>
<path d="M88.5952 16.3578C89.6222 10.5929 88.5952 5.07047 91.8947 0C93.5226 3.30683 91.3594 14.8146 88.5952 16.3578Z" fill="black"/>
<path d="M47.0563 4.93817C48.2472 8.96148 49.438 12.9738 50.9676 18.1324C49.1868 17.4049 47.69 17.2396 47.4933 16.6554C46.3243 12.9738 44.1938 9.33625 45.4284 5.33499C45.9746 5.20272 46.51 5.07044 47.0563 4.94919V4.93817Z" fill="black"/>
<path d="M116.423 20.1055C116.062 15.7625 118.826 12.8195 120.793 9.60081C120.913 9.41343 122.923 9.84331 123.12 10.3614C123.732 11.9266 118.542 19.4772 116.423 20.1055Z" fill="black"/>
<path d="M124.802 117.91C126.245 117.679 127.457 117.128 127.818 117.469C130.167 119.718 132.374 122.11 134.493 124.579C134.778 124.91 134.253 125.935 134.1 126.64C133.324 126.398 132.319 126.387 131.828 125.869C129.61 123.532 127.545 121.052 124.802 117.91Z" fill="black"/>
<path d="M25.7844 9.79926C27.6199 12.6652 29.4663 15.5311 31.411 18.5734C27.6854 19.4772 24.8229 15.7626 24.6372 10.6701L25.7844 9.81028V9.79926Z" fill="black"/>
<path d="M32.1867 119.398C35.1803 123.587 33.3885 129.22 29.1057 130.366C30.1218 126.751 31.0286 123.532 32.1867 119.398Z" fill="black"/>
<path d="M13.231 127.82C15.3505 124.557 17.2734 121.603 19.5241 118.131C20.6822 123.4 17.6012 128.195 13.231 127.82Z" fill="black"/>
<path d="M121.481 128.746C119.842 126.255 118.203 123.752 116.281 120.831C119.995 120.765 122.344 124.215 121.481 128.746Z" fill="black"/>
<path d="M54.2891 12.1801C56.9222 13.7784 57.2062 16.2365 56.7146 18.9922C56.1901 19.1796 55.6766 19.3669 55.1522 19.5543C54.3547 17.2836 53.5571 15.0019 52.7595 12.7313C53.273 12.5439 53.7756 12.3675 54.2891 12.1801Z" fill="black"/>
<path d="M20.2559 20.4362C17.1094 19.389 16.0277 17.0853 16.3336 13.9328L17.6556 13.1061C18.9121 15.2776 20.1685 17.438 21.425 19.6095C21.0316 19.8851 20.6492 20.1606 20.2559 20.4362Z" fill="black"/>
<path d="M23.2058 125.814C23.7193 123.686 24.2437 121.548 24.7572 119.421C25.2489 119.553 26.1666 119.795 26.1666 119.817C25.6859 121.978 25.1396 124.116 24.5934 126.255L23.2058 125.814Z" fill="black"/>
<path d="M84.4655 20.5905C83.8537 19.7859 82.6847 18.9261 82.7611 18.1876C82.9141 16.5562 83.6898 14.98 84.2142 13.3817C84.6294 13.536 85.0446 13.6903 85.4598 13.8446V19.7859C85.132 20.0504 84.8042 20.315 84.4765 20.5795L84.4655 20.5905Z" fill="black"/>
<path d="M50.3013 126.751C50.1592 126.409 49.8642 126.034 49.9079 125.726C50.192 123.995 50.5635 122.275 50.9022 120.556C51.5249 120.732 52.694 120.986 52.683 121.085C52.4317 123.069 52.0493 125.031 51.6888 127.004C51.2299 126.916 50.7601 126.839 50.3013 126.751Z" fill="black"/>
<path d="M11.2533 21.6597C9.93132 20.5023 8.57655 19.367 7.35289 18.1214C7.25456 18.0222 7.9538 17.1073 8.28156 16.5782C9.76744 17.6254 11.2533 18.6726 12.7392 19.7308C12.2475 20.3701 11.7559 21.0204 11.2642 21.6597H11.2533Z" fill="black"/>
<path d="M71.7261 32.5392C86.3336 32.5392 100.93 32.462 115.538 32.5612C127.709 32.6494 132.855 36.4302 133.532 48.4671C134.34 62.5652 134.045 76.8176 133.062 90.9157C132.363 100.935 125.698 106.359 114.478 106.998C97.4667 107.957 80.412 108.806 63.3899 108.574C49.2632 108.387 35.1255 106.766 21.0425 105.367C15.3394 104.804 12.4332 101.983 12.2365 96.2397C11.6465 78.8017 11.3297 61.3306 11.5154 43.8816C11.5919 37.1357 14.6401 34.6335 21.4249 34.2808C38.1738 33.399 54.9445 32.8037 71.7152 32.0983C71.7152 32.2416 71.7261 32.3849 71.7371 32.5392H71.7261ZM128.55 68.6828C128.015 68.8481 127.479 69.0024 126.944 69.1678C126.594 67.834 126.048 66.5223 125.939 65.1665C125.524 60.0961 125.545 54.9705 124.846 49.9441C123.623 41.1259 121.142 38.8883 112.391 38.3371C83.2198 36.4963 54.0486 36.9483 24.8774 38.3812C18.7263 38.6789 16.4866 40.3984 16.3882 46.5271C16.1369 60.9779 16.1042 75.4397 16.563 89.8685C16.8143 97.6285 19.0978 100.329 26.8549 101.299C39.8126 102.908 52.8796 104.231 65.9137 104.397C81.9852 104.595 98.0786 103.757 114.128 102.842C124.278 102.258 129.184 98.4552 129.73 89.3504C130.582 75.2523 130.232 61.055 129.916 46.9128C129.806 41.9747 127.206 39.3953 124.027 38.5245C129.795 47.8277 128.189 58.4096 128.55 68.6938V68.6828Z" fill="black"/>
<path d="M126.496 89.3945C124.879 90.8826 123.36 92.4919 121.601 93.7816C121.11 94.1453 119.951 93.5832 119.088 93.4399C119.416 92.6352 119.525 91.5109 120.126 91.081C121.743 89.9126 123.579 89.0418 125.327 88.0497L126.496 89.3945Z" fill="black"/>
</g>
<defs>
<clipPath id="clip0_2478_4252">
<rect width="140" height="140" fill="white"/>
</clipPath>
</defs>
</svg>
