<svg width="90" height="100" viewBox="0 0 90 100" fill="none" xmlns="http://www.w3.org/2000/svg">
<g clip-path="url(#clip0_2096_647)">
<path d="M89.8909 42.4498C89.0771 31.0201 84.6807 21.1957 76.685 12.9599C72.5487 8.70402 67.9594 5.58529 62.9002 3.62041C49.7613 -1.48829 36.7484 -1.18729 23.8697 4.52342C6.43515 12.2492 -1.36759 28.6622 0.19296 47.2241C1.35918 61.112 10.4708 72.7007 23.1901 78.3696C25.7406 79.5067 28.9456 80.3512 31.9493 81.4381C33.8874 82.1321 35.2214 83.0184 35.9513 84.0886C38.8459 88.3696 41.8999 92.0234 45.1216 95.0418C47.5715 97.3411 56.3391 104.122 56.5069 96.4381C56.5657 94.0217 56.423 91.3378 56.0958 88.3863C55.5001 83.0435 58.7639 80.0418 63.521 78.5953C67.7496 77.3161 71.5671 75.7274 74.9734 73.8211C86.107 67.6087 90.7803 54.8829 89.8909 42.4498ZM37.2518 61.9231C34.0887 61.9983 31.471 60.8445 29.4155 58.4615C26.6636 55.2843 24.0291 50.6438 23.8948 46.2458C23.5257 34.2642 30.2545 22.5334 42.9654 20.8779C47.6722 20.2676 51.9176 21.4214 55.7015 24.3478C63.5965 30.4432 67.8251 39.6488 65.1739 49.4231C64.2258 52.9181 61.9689 55.5518 58.4031 57.3161C52.2448 60.3763 43.989 61.7726 37.2518 61.9231ZM80.2004 54.5234C78.4889 60.7191 74.6043 64.9916 68.5383 67.3579C64.5949 68.8963 60.4167 70.5686 56.0119 72.3829C51.6155 74.1973 47.5967 77.6171 46.7997 82.0569C46.6486 82.8846 46.3969 82.9181 46.0362 82.1572C44.6602 79.2391 45.2895 76.6973 47.9155 74.5485C50.9024 72.107 53.0922 70.5769 54.4933 69.9666C58.7639 68.102 63.4119 66.3963 67.2126 64.0134C74.5539 59.4231 78.1616 52.2324 78.019 42.4415C77.9687 38.8462 76.7689 34.9749 74.4113 30.8278C67.8755 19.3144 57.0355 12.3579 43.5108 12.7676C30.8502 13.1605 20.2368 18.8796 15.5048 31.0535C10.5966 43.6873 12.669 55.1421 21.7302 65.4181C23.0139 66.8729 24.2808 68.2191 25.5225 69.4565C25.7323 69.6739 25.8581 69.9331 25.8833 70.2425C25.9168 70.6271 25.5141 70.8947 25.1701 70.7191C13.7597 65.0251 7.21543 52.4833 9.20387 39.7157C11.6705 23.9214 20.4969 14.1973 35.8674 9.79097C40.1967 8.54516 44.7105 8.1271 49.409 8.52843C57.8074 9.25586 65.0648 13.0435 71.1727 19.8913C75.8796 25.1672 79.0678 30.9448 80.729 37.2074C82.1217 42.4415 81.9455 48.2107 80.2004 54.5234Z" fill="black"/>
<path d="M51.1374 25.6438C49.8453 24.8996 48.2344 24.5568 46.3047 24.607C35.8339 24.8913 29.189 32.2909 27.8969 42.5836C27.36 46.8896 28.392 51.3127 31.0013 55.8361C33.7951 60.6772 37.3693 60.7107 42.3194 59.6989C47.6891 58.5953 54.0319 57.5334 58.034 53.5451C67.0281 44.5819 60.4 30.9699 51.1374 25.6438ZM49.5265 46.0953C49.1405 47.107 48.612 47.1906 47.9324 46.3377C47.8904 46.2959 47.8401 45.9699 47.773 45.3762C47.4709 42.5668 46.8836 37.0484 42.6466 38.0183C42.3698 38.0769 42.1432 38.2274 41.9754 38.4531C40.1128 40.9364 40.3981 45.4682 40.5659 48.3444C40.6079 49.0384 39.8947 49.5234 39.2571 49.2474C35.4899 47.5919 34.6677 42.5919 36.0856 39.2558C37.4364 36.0869 39.7856 34.2892 43.1165 33.8545C46.6906 33.3862 48.9224 34.6906 49.8117 37.7759C50.6424 40.6605 50.5501 43.428 49.5265 46.0953Z" fill="black"/>
</g>
<defs>
<clipPath id="clip0_2096_647">
<rect width="90" height="100" fill="white"/>
</clipPath>
</defs>
</svg>
