<svg width="60" height="80" viewBox="0 0 60 80" fill="none" xmlns="http://www.w3.org/2000/svg">
<g clip-path="url(#clip0_2085_116)">
<path d="M57.5428 69.0341C55.0479 64.2994 51.0859 58.1757 51.17 54.1258C51.2354 51.0932 53.9452 47.2683 55.5525 44.5489C56.7953 42.4457 57.9353 38.9142 58.9818 33.9546C59.8976 29.6601 59.5145 25.0527 57.8325 20.1126C54.0387 8.99004 46.8622 2.41631 36.3031 0.391364C31.6029 -0.508612 26.314 0.244629 21.782 1.72176C8.91487 5.91839 1.71973 14.9084 0.215292 28.7112C-0.588321 36.0187 0.906773 43.1304 4.70992 50.0563C10.6623 60.8951 23.1556 65.0624 34.4903 64.8961C36.219 64.8766 38.4804 66.1776 39.7792 67.3124C44.3486 71.3133 49.0768 75.0796 53.9733 78.6208C56.0477 80.1175 58.5894 80.9979 59.7761 78.024C60.6825 75.7448 58.6361 71.1079 57.5428 69.0341ZM51.3942 70.4427C47.2921 67.2439 43.5824 63.8592 40.2745 60.2984C39.3213 59.2713 38.2 58.7822 36.9199 58.8409C31.8459 59.0561 27.5662 59.2224 22.4735 57.4126C14.5121 54.5953 9.57832 49.577 6.70961 41.4479C2.95318 30.8144 5.8219 18.7039 14.5308 11.7487C25.1086 3.29672 42.6199 2.475 50.3383 15.7203C57.2251 27.5178 54.2816 38.4936 46.9183 49.4302C42.9937 55.2605 49.2637 64.7103 52.067 69.8167C52.7959 71.1568 52.5716 71.3623 51.3942 70.4427Z" fill="black"/>
<path d="M33.5741 26.2754C33.434 23.3505 32.051 21.394 29.4065 20.3962C29.0234 20.2495 28.5936 20.269 28.2198 20.4353C22.959 22.7538 20.9966 27.0286 22.3329 33.2698C23.6972 39.687 27.4349 42.5826 33.5554 41.9467C35.4523 41.7511 37.2091 40.7826 38.8443 39.0414C43.5726 33.9937 44.7032 27.1754 41.956 20.5136C41.5168 19.4473 41.0776 18.3908 40.6384 17.3441C40.1899 16.2681 40.5357 15.6224 41.685 15.417C42.0121 15.3583 42.3485 15.4463 42.6194 15.6616C48.1887 20.0538 49.609 28.946 46.7683 35.3045C41.3673 47.415 26.0426 52.7562 18.782 38.7088C15.3807 32.1448 16.4553 23.6439 22.0152 18.8017C25.5193 15.7398 29.7243 15.1724 33.8918 17.0507C36.7605 18.3419 38.4519 20.5821 38.9751 23.7809C39.8629 29.1416 37.966 33.2111 33.2938 35.9795C32.7892 36.2827 32.2098 36.4393 31.6212 36.4393C29.7616 36.4197 28.5095 35.8719 27.8554 34.786C26.7341 32.9176 27.0798 31.4111 28.902 30.2862L32.7144 27.9384C33.3218 27.5667 33.6115 27.0091 33.5741 26.2754Z" fill="black"/>
</g>
<defs>
<clipPath id="clip0_2085_116">
<rect width="60" height="80" fill="white"/>
</clipPath>
</defs>
</svg>
