<svg width="150" height="100" viewBox="0 0 150 100" fill="none" xmlns="http://www.w3.org/2000/svg">
<g clip-path="url(#clip0_2008_119)">
<path d="M148.55 27.8695C142.503 10.3275 126.728 1.38061 108.136 0.230095C99.0105 -0.324859 87.3952 0.121811 73.3036 1.59718C49.8131 4.0471 18.6338 13.17 6.01977 34.2041C2.92783 39.3611 0.97143 45.804 0.164243 53.5328C-0.519814 60.0027 0.889343 65.9854 4.39171 71.4672C17.9224 92.6773 48.787 92.4201 70.198 91.4591C76.2724 91.1884 83.2224 90.0785 91.0617 88.1159C93.2097 87.588 95.1113 86.7352 96.7531 85.5577C97.314 85.1381 97.6287 85.2869 97.6834 85.9908L98.6137 99.1067C98.6684 99.8782 99.0652 100.149 99.8176 99.9188C100.871 99.5804 101.87 98.9984 102.814 98.1592C107.835 93.6519 112.746 89.0363 117.535 84.2989C122.843 79.0471 128.439 74.3638 133.911 69.3963C144.801 59.5019 153.571 42.4472 148.55 27.8695ZM122.898 71.3725C117.056 75.8121 111.83 80.4683 107.247 85.3546C106.946 85.6795 106.74 86.0585 106.617 86.4645C106.22 87.7504 105.646 88.9551 104.866 90.065C104.524 90.5522 104.36 90.4981 104.36 89.9025L104.442 79.9134C104.456 78.5057 103.033 77.5311 101.706 78.0184C97.013 79.7374 92.9634 82.4174 88.2434 83.3378C73.4678 86.1938 58.569 86.7082 43.5608 84.8674C33.0674 83.5679 17.9908 78.8035 12.1079 70.7634C7.44261 64.3747 5.60934 57.8506 6.5807 51.1776C9.19379 33.2837 20.6039 23.3757 37.3222 17.2306C47.7336 13.4001 58.0355 10.896 68.2005 9.70492C74.7812 8.9334 82.1963 8.39198 90.4461 8.05359C97.6013 7.76935 102.417 7.98592 104.866 8.67622C108.204 9.62371 113.307 10.9231 115.838 13.1023C116.18 13.4001 116.577 13.5084 117.015 13.4272C118.315 13.1835 119.436 13.6031 120.38 14.686C120.586 14.9296 120.887 15.092 121.215 15.1462L122.282 15.2951C122.952 15.3898 123.363 15.7688 123.513 16.432L123.896 18.1917C124.02 18.7601 123.527 19.2745 122.952 19.1662C122.46 19.0715 122.036 19.1933 121.694 19.5181C121.215 19.9648 121.297 20.2084 121.967 20.2355C124.95 20.3709 127.59 24.8105 129.478 26.8814C129.807 27.2469 129.93 27.6665 129.834 28.1402L129.711 28.7222C129.342 30.6037 129.793 30.8202 131.038 29.3584L133.336 26.6649C133.528 26.4348 133.692 26.4483 133.829 26.7055C136.757 31.9978 137.55 37.3579 136.196 42.7991C135.512 45.5198 134.445 48.4299 132.994 51.5566C128.699 60.7336 116.755 68.4624 107.643 72.4689C107.123 72.6854 106.877 73.2675 107.069 73.7953L107.247 74.2691C107.438 74.8105 107.794 74.9459 108.314 74.6751C120.326 68.3676 133.254 60.7472 137.701 47.7937C140.15 40.6335 139.63 34.0281 136.114 27.9913C134.349 24.9729 131.79 21.6161 128.439 17.9074C125.224 14.3747 121.954 11.8571 118.629 10.3682C112.486 7.62046 106.275 6.11802 99.9818 5.84731C93.1549 5.56307 86.328 5.38711 79.5148 5.3465C79.3096 5.3465 79.2002 5.23822 79.2002 5.03518C79.2139 4.81862 79.3096 4.72387 79.5148 4.72387C89.0916 4.77801 100.666 3.87113 108.834 5.19761C117.603 6.6459 125.306 10.1381 131.941 15.7011C139.069 21.6703 142.708 28.8982 142.886 37.412C143.173 51.0964 133.925 62.994 122.898 71.3725Z" fill="black"/>
<path d="M118.451 18.6519C118.328 18.8549 116.44 17.9751 114.251 16.6892C112.049 15.3898 110.366 14.1852 110.503 13.9821C110.626 13.7791 112.514 14.6589 114.703 15.9448C116.905 17.2442 118.588 18.4488 118.451 18.6519Z" fill="black"/>
<path d="M132.091 34.177C131.613 34.2988 131.216 34.556 130.874 34.9215C130.45 35.3952 130.149 35.3275 129.971 34.7184C129.793 34.0417 129.848 33.5003 130.149 33.0942C130.778 32.2685 131.489 32.0655 132.269 32.4851C133.008 32.8776 132.885 33.9469 132.091 34.177Z" fill="black"/>
<path d="M131.024 38.2783C130.819 38.2783 130.655 38.1429 130.614 37.9534C130.573 37.7233 130.573 37.4932 130.614 37.2496C130.71 36.7623 130.997 36.5187 131.503 36.5187C131.9 36.5187 132.256 36.5999 132.584 36.7759C133.076 37.033 133.131 37.3714 132.734 37.7639C132.365 38.1294 131.804 38.3054 131.024 38.2783Z" fill="black"/>
<path d="M131.202 43.4759C131.134 42.5961 131.243 41.7298 131.517 40.8771C131.654 40.444 131.914 40.1056 132.297 39.8484C133.076 39.3205 133.692 38.7656 134.116 38.1835C134.431 37.7504 134.65 37.791 134.773 38.3189C134.869 38.7385 134.828 39.1446 134.65 39.5371C132.871 43.4218 131.489 47.6448 129.041 51.0828C127.905 52.6936 126.728 54.2637 125.511 55.8203C124.348 57.3227 123.048 58.5544 121.639 59.5425C120.025 60.6524 118.451 61.83 116.919 63.0753C116.659 63.2918 116.276 63.2648 116.043 63.0211L115.783 62.7369C115.66 62.6015 115.688 62.385 115.838 62.2902C116.946 61.5593 117.959 60.7336 118.889 59.8268C119.45 59.2718 120.421 58.5138 121.776 57.5393C122.802 56.8219 123.65 55.8879 124.321 54.751C126.359 51.2994 128.548 47.9561 130.86 44.6941C131.12 44.3286 131.243 43.9226 131.202 43.4759Z" fill="black"/>
<path d="M14.9809 48.2268C15.8291 48.1862 16.5679 47.8478 17.1835 47.1846C17.5255 46.8192 17.7855 46.8598 17.936 47.3335C18.0454 47.6583 17.9907 47.9697 17.7855 48.281C17.5803 48.5652 17.3066 48.7412 16.9646 48.8359C16.4858 48.9578 16.0069 49.0254 15.5281 49.039C15.1587 49.039 14.8304 49.242 14.6388 49.5398C13.4622 51.4753 13.4486 53.3568 14.5978 55.1841C14.8714 55.6307 15.2682 55.8338 15.8017 55.8067L18.2917 55.6984C18.6748 55.6849 18.8663 55.8608 18.88 56.2398V56.7948C18.8937 56.9978 18.7842 57.1061 18.579 57.1061L15.405 56.9978C14.7483 56.9978 14.2147 57.5257 14.2558 58.1754C14.3105 59.1229 14.6799 59.9756 15.3502 60.7201C15.6512 61.0449 15.788 61.4239 15.747 61.8706C15.5691 64.2122 15.6375 65.8229 17.0878 67.9209C18.9621 70.601 19.3315 72.9832 23.1211 74.2826C23.7231 74.4856 24.9955 74.7293 26.9519 74.9865C30.4132 75.4467 32.5474 77.4634 36.4192 77.4905C38.9228 77.5176 40.8519 78.6681 42.863 78.7087C51.8378 78.8711 60.799 78.9794 69.7601 79.02C70.0064 79.02 70.1295 79.1418 70.1432 79.3855V79.7239C70.1432 79.7239 70.1432 79.7645 70.1158 79.7645C67.0239 79.9404 63.932 80.0352 60.8263 80.0623C58.6237 80.0758 55.5454 80.2788 51.5916 80.6443C40.8929 81.6459 30.7552 79.8186 21.1647 75.1759C18.4148 73.8359 16.4311 71.7244 15.1861 68.8143C11.2185 59.556 8.75594 48.308 16.39 40.3357C16.6363 40.0785 17.0467 40.1326 17.2382 40.4304C17.5666 40.9854 17.6487 41.5403 17.4982 42.1223C17.3751 42.569 17.1014 42.8939 16.7047 43.0969C14.9672 43.9767 14.1326 45.4521 14.2147 47.5365C14.2421 48.0238 14.502 48.2539 14.9809 48.2268Z" fill="black"/>
<path d="M119.149 57.1332C118.971 56.9708 119.573 56.0639 120.476 55.0894C121.379 54.1283 122.268 53.4651 122.446 53.6275C122.624 53.7899 122.022 54.6968 121.119 55.6714C120.216 56.6324 119.327 57.2956 119.149 57.1332Z" fill="black"/>
<path d="M115.305 60.4494C114.347 62.9805 112.582 64.6319 110.01 65.4169C109.846 65.4711 109.668 65.3763 109.641 65.2004L109.572 64.8078C109.545 64.686 109.627 64.5777 109.75 64.5507C112.254 64.104 113.882 62.5609 114.607 59.8945C114.607 59.8538 114.675 59.8268 114.716 59.8403L115.058 59.9486C115.318 60.0298 115.4 60.1922 115.305 60.4494Z" fill="black"/>
<path d="M18.1686 67.1765C17.8265 67.1359 17.5939 66.4862 17.6623 65.7282C17.7308 64.9567 18.0865 64.3611 18.4285 64.4017C18.7705 64.4423 19.0031 65.092 18.9347 65.85C18.8663 66.6216 18.5106 67.2171 18.1686 67.1765Z" fill="black"/>
<path d="M106.385 67.0006C106.576 67.2848 106.33 67.7721 105.837 68.0969C105.345 68.4353 104.784 68.4895 104.606 68.2052C104.414 67.921 104.661 67.4337 105.153 67.1088C105.646 66.7705 106.207 66.7163 106.385 67.0006Z" fill="black"/>
<path d="M71.4018 74.7699C80.1714 75.176 88.5716 73.5653 96.5888 69.9378C96.794 69.843 97.0403 69.9513 97.136 70.1543L97.3139 70.5604C97.4507 70.8852 97.3139 71.2507 97.0266 71.4267C93.7021 73.3622 90.1313 74.7158 86.3143 75.4873C77.5173 77.2604 68.5835 77.8695 59.4855 77.3281C58.5415 77.274 58.4321 76.9491 59.1572 76.3536C59.5403 76.0423 59.9233 75.7174 60.3201 75.4061C61.0452 74.797 61.8934 74.4992 62.8374 74.5127C65.6694 74.5534 68.5288 74.6346 71.4018 74.7699Z" fill="black"/>
</g>
<defs>
<clipPath id="clip0_2008_119">
<rect width="150" height="100" fill="white"/>
</clipPath>
</defs>
</svg>
