<svg width="70" height="180" viewBox="0 0 70 180" fill="none" xmlns="http://www.w3.org/2000/svg">
<g clip-path="url(#clip0_2085_65)">
<path d="M69.5525 56.9711C69.3492 53.9046 68.5865 50.4894 67.2748 46.7256C65.5462 41.7515 60.5026 38.5004 55.8861 42.1515C53.4558 44.0795 52.3779 46.8794 52.6321 50.5407C53.1507 57.9762 53.2728 66.4783 52.9779 76.0264C52.9474 76.9084 52.5101 77.4212 51.6458 77.5648C50.9238 77.6776 50.4459 77.7597 50.212 77.8007C49.3477 77.9443 48.88 77.5751 48.8088 76.6931C47.4971 60.7453 46.3073 46.0487 45.2498 32.6238C44.9956 29.3727 44.7516 26.1113 44.5075 22.8602C44.3143 20.1322 43.4907 15.9991 42.0569 10.4712C40.3791 4.02029 35.9965 -2.74855 28.5531 1.14866C26.5499 2.20501 25.1568 3.47673 24.384 4.97409C20.2455 13.0249 20.6929 22.1834 20.6725 31.6905C20.642 43.7206 20.581 56.1609 20.5098 69.0115C20.4997 71.0421 20.3471 73.124 20.0624 75.2675C19.9912 75.8521 19.8082 75.8931 19.5133 75.3803C18.6998 73.9548 18.3033 72.5805 18.3338 71.2472C18.4151 66.3244 18.3236 58.5915 14.8968 55.2687C12.5276 52.9713 9.82273 52.4175 6.80269 53.597C3.30472 54.9507 1.44388 59.0941 0.7931 62.6016C-1.4338 74.7855 0.681246 95.6664 11.9988 103.686C14.6121 105.543 17.5305 106.763 20.7539 107.348C21.0793 107.409 21.303 107.707 21.2826 108.035L19.9099 127.982C19.8794 128.341 19.6862 128.516 19.3201 128.506L17.6525 128.444C17.2966 128.434 16.9712 128.526 16.6763 128.721C11.4904 132.198 10.7074 136.597 14.3274 141.92C14.5206 142.207 14.5206 142.587 14.3274 142.874C13.1377 144.617 12.253 146.658 11.6734 148.997C11.2667 150.638 12.0598 151.981 12.7411 153.407C12.8936 153.714 12.9038 154.022 12.7919 154.34C11.0633 159.273 12.5987 162.391 17.4084 163.673C18.0592 163.847 18.527 164.421 18.5575 165.098C18.7405 168.616 19.8082 171.324 21.7707 173.231C23.8756 175.293 26.2957 177.108 29.031 178.677C35.8846 182.615 44.3245 177.036 48.4631 171.744C50.1409 169.601 50.7713 167.262 50.3442 164.75C50.212 163.95 50.5374 163.139 51.1882 162.657C54.3811 160.309 56.2115 159.16 54.6252 154.648C54.1778 153.376 54.0964 151.889 54.3811 150.197C54.7879 147.745 54.3506 146.617 53.0287 144.781C52.4288 143.951 52.5406 142.802 53.2829 142.105C55.642 139.879 57.0758 134.638 54.5947 131.941C53.4863 130.741 51.5034 130.495 49.9985 129.849C49.3986 129.593 49.1037 129.141 49.0935 128.485L49.0223 110.66C49.0122 109.666 49.5511 108.743 50.4256 108.261C57.9401 104.107 63.2277 99.6969 66.4206 91.2051C70.5389 80.2929 70.3457 68.632 69.5525 56.9711ZM4.53511 75.0932C4.34191 75.0932 4.14871 73.7086 4.09786 71.9857C4.04702 70.2627 4.14871 68.8679 4.33174 68.8576C4.52494 68.8576 4.71814 70.2422 4.76899 71.9651C4.81983 73.6881 4.71814 75.0829 4.53511 75.0932ZM20.8149 101.574C20.5098 101.563 20.0014 101.41 19.2794 101.092C18.8219 100.897 18.3846 100.599 17.9677 100.22C13.3512 95.9638 10.1685 93.1844 9.0601 87.4309C7.92122 81.5543 7.00606 76.1085 6.32477 71.0934C5.98921 68.6525 6.11123 65.4835 6.68067 61.5862C6.69083 61.4837 6.75184 61.4324 6.85353 61.4427L7.11791 61.4632C7.22976 61.4734 7.28061 61.535 7.27044 61.6478C7.02639 66.0475 6.83319 70.0576 7.78903 74.4676C8.55167 78.0263 9.33465 81.5851 10.138 85.1439C10.2091 85.4721 10.3718 85.749 10.6159 85.9643L11.6022 86.8361C11.8259 87.0309 12.0191 87.2668 12.1717 87.5232C13.3309 89.4616 14.7748 91.164 16.5136 92.6101C16.7882 92.8255 17.0932 92.9383 17.4288 92.928L21.5572 92.7947C21.7606 92.7845 21.9029 92.6922 21.9944 92.5076C22.0453 92.3947 22.0758 92.2819 22.0656 92.1486C22.0554 91.9127 21.9436 91.7896 21.7097 91.7589L17.3373 91.2769C16.9814 91.2358 16.6458 91.0615 16.4119 90.7948C14.9782 89.1949 13.8291 87.2668 12.9445 85.0003C12.009 82.5902 12.4869 82.262 14.3681 84.0157C15.8323 85.3798 17.5406 86.1182 19.5032 86.231C19.8794 86.2618 20.0624 86.0772 20.0624 85.6977C20.0624 85.5439 20.0014 85.3798 19.8794 85.2259C19.7879 85.0926 19.6353 84.99 19.4218 84.8977C17.9779 84.2926 16.4831 83.8209 14.9477 83.4619C14.3376 83.3183 13.8393 82.8773 13.4427 82.1389C12.5987 80.58 11.9785 79.0109 11.5615 77.4212C10.1583 71.9651 9.37532 66.1603 9.20245 60.0068C9.18212 59.1761 9.56852 58.8582 10.3718 59.0428C10.504 59.0736 10.6159 59.1248 10.7176 59.2069C11.4599 59.8017 11.8666 60.4581 11.9378 61.176C12.3242 65.0937 12.7919 69.073 13.3512 73.1035C13.9918 77.7597 17.2661 81.9543 22.5537 80.3339C24.2518 79.8109 25.106 78.5596 25.1162 76.5803C25.228 60.2838 25.3297 43.5565 25.4212 26.3985C25.4314 23.5474 25.5534 21.1885 25.767 19.3322C26.1432 16.0196 26.5703 11.5378 28.3498 8.6867C28.5328 8.38928 28.6141 8.40979 28.5836 8.76874C26.9668 29.2189 26.6618 50.0484 26.4584 70.837C26.4482 71.2267 26.2957 72.7343 25.9907 75.3598C25.8076 76.8879 25.889 78.4263 26.2245 79.9647C26.255 80.1288 26.3364 80.1903 26.4584 80.1493C26.4889 80.139 26.5296 80.1185 26.5601 80.098C26.6008 80.0672 26.6211 80.0365 26.6109 79.9852C26.4279 78.0879 26.5703 75.9649 27.038 73.6266C27.9735 68.9704 28.4514 64.0169 28.4819 58.7556C28.5125 51.115 29.2242 43.2283 29.3869 35.4339C29.4378 33.1058 29.6615 29.865 30.0479 25.7011C30.3123 22.8602 30.4953 19.5989 30.597 15.9376C30.6478 14.2659 31.1359 12.4608 32.0816 10.5225C32.2341 10.2148 32.285 9.88663 32.2545 9.54818C32.1833 8.95335 32.1528 8.55337 32.1833 8.35851C32.4172 6.54323 32.7527 6.51246 33.2103 8.28672C33.6679 10.0917 33.5052 12.1942 32.712 14.5838C32.4172 16.8298 32.2951 19.0553 32.3358 21.2603C32.5188 30.9726 32.3155 40.6746 32.5595 50.3869C32.5799 51.515 32.1324 52.9303 32.3663 54.1713C32.5595 55.2481 32.6205 56.1814 32.529 56.9506C32.0511 61.094 33.0374 65.0732 32.529 69.473C32.3561 70.9806 32.3968 72.5395 32.651 74.1599C33.2815 78.2109 32.59 83.5542 32.6714 88.2411C32.7019 89.9026 32.712 91.5127 32.7019 93.0819C32.7019 93.328 32.8239 93.4613 33.0679 93.4819L35.2135 93.6665C35.5491 93.6972 35.7118 93.5434 35.7016 93.2152L34.9796 62.4375C34.9695 62.0888 35.0406 61.7503 35.1932 61.4324C35.6406 60.4786 35.7524 59.453 35.5389 58.3762C35.4779 58.048 35.2847 57.8429 34.9593 57.7711C33.9221 57.5352 33.4442 56.848 33.5255 55.6891C33.5459 55.2994 33.7187 54.9917 34.034 54.7764L34.8271 54.202C35.1423 53.9764 35.2948 53.6687 35.2847 53.2893L34.6644 21.5372L34.8983 7.78418C34.9084 7.015 35.0711 6.98423 35.3762 7.69188C36.2812 9.78407 36.9625 11.8557 37.4302 13.9172C39.1284 21.3219 40.1351 29.1368 40.4604 37.3722C40.7452 44.6128 41.0502 49.9766 41.3858 53.4739C42.2908 63.1451 42.6365 73.3702 42.4433 84.1593C42.4331 84.6208 42.6467 84.7747 43.0738 84.6208C45.5854 83.7081 47.9648 83.6875 50.2222 84.5695C50.6696 84.7439 50.6798 84.9593 50.2629 85.1952C48.9511 85.9541 47.5377 86.0361 46.0226 85.4516C45.7277 85.3387 45.4328 85.3182 45.1278 85.3695L42.6873 85.8208C42.3925 85.872 42.2501 86.0464 42.2399 86.3438C42.1179 92.7229 41.701 99.2559 41.7925 105.594C41.8942 113.091 41.9145 121.173 41.8535 129.839C41.8434 130.372 41.4265 130.793 40.8977 130.803L37.6641 130.823C37.0133 130.823 36.6778 130.495 36.6574 129.839L35.8338 98.4867C35.8236 98.138 35.5084 97.8816 35.1627 97.9431C34.2373 98.1072 33.373 97.8919 32.5697 97.297C32.346 97.1329 32.0206 97.2868 32.0206 97.5739C31.9291 104.353 31.3698 110.845 30.3326 117.039C29.6615 121.06 29.4276 125.111 29.2344 129.09C29.2039 129.746 28.8683 130.054 28.2074 130.003L26.3669 129.859C25.7364 129.808 25.2585 129.244 25.3195 128.608C25.7466 123.747 26.0517 119.286 26.2347 115.234C26.7228 104.209 26.9262 92.7845 26.8448 80.9492C26.8448 80.7134 26.7533 80.6621 26.5601 80.7954L23.9468 82.7543C23.6926 82.9389 23.5604 83.1953 23.5299 83.5132C23.2147 86.9386 23.113 90.3641 23.2045 93.7793C23.2452 95.4407 22.7062 96.8253 22.5842 98.2816C22.4317 100.015 21.8826 100.158 20.9267 98.7021C20.2353 97.6457 19.3608 96.7432 18.3033 96.0151C17.1949 95.2561 16.2391 94.3434 15.4154 93.2665C13.7783 91.1333 12.253 88.9283 10.8396 86.6515C10.8091 86.5899 10.7481 86.5694 10.6769 86.5797L10.3413 86.6515C10.1176 86.7028 9.98543 86.9489 10.0871 87.1643C11.6836 90.6 13.7071 93.7178 16.1577 96.5176C17.6321 98.1893 19.6964 99.1533 21.6284 100.24C21.9436 100.415 22.0351 100.681 21.9131 101.02C21.7707 101.399 21.4047 101.584 20.8149 101.574ZM44.7821 112.988C44.7821 113.153 44.6499 113.296 44.4872 113.286H44.4668C44.3041 113.286 44.172 113.153 44.172 112.988L43.8669 93.728C43.8669 93.5639 43.9991 93.4203 44.1618 93.4306H44.1821C44.3448 93.4306 44.477 93.5639 44.477 93.7177L44.7821 112.978V112.988ZM33.8611 129.182C33.8713 129.685 33.6475 130.044 33.19 130.249L32.9154 130.372C32.6714 130.475 32.3867 130.3 32.3867 130.034C32.2138 124.424 32.1426 118.691 32.1935 112.855C32.2036 111.696 32.2138 110.537 32.224 109.399C32.2646 105.409 32.6104 101.902 33.2611 98.8867C33.312 98.6405 33.4645 98.5482 33.6984 98.5995C33.7899 98.62 33.8611 98.6713 33.9323 98.7431C33.9729 98.7944 33.9933 98.8559 33.9933 98.9277C33.9729 100.353 33.556 101.779 33.5662 103.112C33.5967 111.553 33.6882 120.239 33.8611 129.182ZM19.0964 135.059C20.4793 134.967 21.7606 135.674 23.1028 135.685C30.6173 135.736 37.8776 136.054 44.8939 136.638C47.6903 136.874 47.7716 137.5 45.1583 138.515C42.9009 139.387 40.6333 139.766 38.3657 139.633C34.339 139.397 30.2106 139.141 25.9703 138.854C22.6452 138.628 20.2048 137.787 18.649 136.32C17.8253 135.551 17.9779 135.131 19.0964 135.059ZM24.0383 149.068C31.4918 149.704 39.4741 149.725 47.9851 149.14C48.341 149.12 48.5647 149.54 48.341 149.827C48.2597 149.94 48.158 150.043 48.0462 150.135C47.5886 150.525 47.1208 150.781 46.7039 150.843C40.1859 151.94 33.7391 152.453 27.3532 152.381C24.201 152.34 21.6589 151.571 18.7303 150.863C18.3439 150.771 18.0897 150.402 18.1406 150.002L18.2626 149.079C18.3338 148.535 18.8625 148.166 19.3913 148.299C21.0081 148.679 22.5639 148.935 24.0383 149.068ZM23.1028 143.643V143.294C23.113 143.141 23.2248 143.028 23.3774 143.028L40.3384 143.294C40.4808 143.294 40.5926 143.417 40.6028 143.561V143.91C40.5926 144.053 40.4808 144.166 40.3283 144.176L23.3672 143.91C23.2248 143.91 23.113 143.787 23.1028 143.643ZM43.9991 167.478C38.7013 168.821 33.312 169.252 27.8515 168.77C26.7736 168.678 25.9195 168.185 25.2789 167.303L24.5366 166.288C23.8756 165.365 24.0993 164.975 25.228 165.109C31.2783 165.837 37.3184 165.929 43.3381 165.365C43.9279 165.314 44.4465 165.755 44.477 166.35L44.5075 166.77C44.5279 167.098 44.3143 167.396 43.9991 167.478ZM50.3137 156.36C50.3951 156.36 50.4459 156.422 50.4459 156.494C50.4459 158.186 43.7144 159.57 35.3965 159.601H32.9968C24.6688 159.632 17.9169 158.299 17.9169 156.627C17.9067 156.535 17.9677 156.483 18.0389 156.483L50.3137 156.36ZM62.0584 84.6721C60.0145 91.3179 55.7234 96.1689 49.185 99.2251C48.6258 99.4815 47.9648 99.1226 47.8835 98.5072L47.4157 95.1125C47.3547 94.6715 47.5072 94.5792 47.8631 94.8459L48.9105 95.6253C49.185 95.8407 49.5002 95.9022 49.8358 95.8099C51.778 95.2766 53.2118 94.5177 54.1473 93.5331C58.3062 89.1539 61.0822 84.2208 62.4753 78.7135C63.0244 76.5495 62.9735 74.4881 62.3329 72.5087C62.2007 72.119 61.9465 71.8318 61.5601 71.6575C61.2042 71.5036 61.0618 71.6164 61.1534 72.0062C61.2855 72.5395 61.3262 73.083 61.2957 73.6471C60.7568 82.5594 56.4758 88.9898 48.4631 92.9588C47.4564 93.4511 47.1717 93.1742 47.5987 92.1383C48.5139 89.9436 49.3579 87.7489 51.4018 86.3541C56.0488 83.185 58.3367 78.2622 58.2553 71.5857C58.1435 63.7297 57.991 56.2327 57.7978 49.0844C57.7672 47.9665 58.0926 46.9819 58.7536 46.141C58.8451 46.0179 58.9671 45.9359 59.0993 45.8948C59.2112 45.8641 59.323 45.8846 59.4247 45.9564C59.5467 46.0487 59.5976 46.2025 59.5467 46.3461C59.3129 47.0537 59.2112 47.5152 59.2315 47.7204C59.8925 55.0943 60.4212 62.417 60.828 69.6678C60.8483 70.037 60.9805 70.0781 61.2144 69.7909C61.8753 69.0012 62.1194 67.9654 61.9567 66.6834C61.1229 60.3453 60.8381 54.3046 61.1025 48.5716C61.1534 47.2486 61.4279 47.1973 61.9262 48.428C62.3024 49.351 62.5566 50.4792 62.7091 51.8022C63.3192 57.3096 63.4819 63.1759 63.1972 69.4217C63.1972 69.4525 63.2786 71.3908 63.4514 75.2367C63.5836 78.0776 63.1159 81.2159 62.0584 84.6721ZM52.6728 93.0921C53.1812 92.5793 53.6998 92.2819 53.8422 92.4153C53.9846 92.5588 53.6897 93.0921 53.1812 93.5947C52.6728 94.1075 52.1542 94.4049 52.0119 94.2716C51.8695 94.128 52.1644 93.5947 52.6728 93.0921Z" fill="black"/>
<path d="M32.7222 14.5836C32.9764 14.5221 33.1899 14.5015 33.373 14.5118C33.678 14.5426 33.8509 14.7169 33.8916 15.0348L34.6745 21.537L35.2948 53.2891C35.2948 53.6685 35.1524 53.9762 34.8372 54.2018L34.0441 54.7762C33.7289 54.9915 33.556 55.2992 33.5357 55.6889C33.4543 56.8478 33.9322 57.535 34.9694 57.7709C35.2948 57.8427 35.488 58.0478 35.549 58.376C35.7626 59.4528 35.6507 60.4784 35.2033 61.4322C35.0508 61.7501 34.9796 62.0886 34.9898 62.4373L35.7117 93.215C35.7117 93.5432 35.5592 93.697 35.2236 93.6663L33.0781 93.4817C32.834 93.4611 32.712 93.3278 32.712 93.0817C32.7222 91.5125 32.712 89.9024 32.6815 88.2409C32.6002 83.554 33.2916 78.2107 32.6612 74.1597C32.407 72.5393 32.3663 70.9804 32.5391 69.4728C33.0476 65.073 32.0612 61.0938 32.5391 56.9504C32.6307 56.1812 32.5696 55.2479 32.3764 54.1711C32.1426 52.9301 32.59 51.5148 32.5696 50.3867C32.3256 40.6744 32.529 30.9724 32.3459 21.2601C32.3053 19.0551 32.4273 16.8296 32.7222 14.5836Z" fill="black"/>
<path d="M19.9608 94.3946C20.459 94.5485 20.8251 94.8664 21.0387 95.3484C21.2827 95.9125 21.1505 96.0253 20.6523 95.6869L18.3643 94.169C17.8152 93.81 17.8559 93.6972 18.4965 93.8408C18.9541 93.9434 19.4727 94.2408 19.9608 94.3946Z" fill="black"/>
</g>
<defs>
<clipPath id="clip0_2085_65">
<rect width="70" height="180" fill="white"/>
</clipPath>
</defs>
</svg>
