<svg width="101" height="101" viewBox="0 0 101 101" fill="none" xmlns="http://www.w3.org/2000/svg">
<g clip-path="url(#clip0_2239_383)">
<path d="M98.772 52.5543C99.7675 49.3249 100.848 47.0775 100.397 43.3286C100.049 40.4675 96.9689 36.5392 94.1233 35.831C92.4328 35.4155 92.4328 35.0095 94.1233 34.6034C94.3111 34.5562 94.7994 34.6979 95.5789 35.0378C95.7949 35.1322 95.917 35.0567 95.9546 34.8206C96.6026 29.9103 95.1094 24.9245 90.3291 22.781C90.0756 22.6676 89.6811 22.6015 89.1364 22.5732C87.6619 22.5166 85.7085 21.1096 84.5816 20.1842C84.2998 19.9575 84.3374 19.8914 84.6755 20.0048C86.1687 20.4486 87.5586 21.0907 88.8453 21.9217C89.1834 22.1388 89.6248 21.8839 89.6154 21.4873C89.5308 19.476 88.5072 18.2578 87.1079 16.492C84.9197 13.7252 82.2901 11.6006 79.2191 10.1086C78.7025 9.85367 78.2799 9.44763 78.017 8.94715C75.6127 4.49012 69.7807 4.77341 65.5545 5.57605C65.2164 5.64215 65.0004 5.50995 64.8971 5.17945C63.4414 0.552444 57.1304 0.76963 53.402 1.81779C53.186 1.88389 52.9888 1.83667 52.8103 1.68559C49.9272 -0.816772 45.7762 1.39286 43.0151 2.48823C42.7991 2.58266 42.5831 2.57322 42.3577 2.48823C41.4561 2.09163 40.8456 1.68559 39.8126 1.78946C36.5538 2.1294 33.9242 3.62138 31.9144 6.27482C31.1443 7.3041 30.4399 8.21061 29.7919 8.98493C29.4351 9.4193 29.2191 9.3532 29.1439 8.79607C29.0312 7.92733 28.7307 7.44574 28.2423 7.34187C28.1109 7.31354 27.6507 7.3702 26.8524 7.51184C23.9505 8.04064 21.7153 9.47596 20.1563 11.8083C19.2735 13.1303 18.2029 14.3957 16.9069 15.6138C16.7284 15.7744 16.55 15.7932 16.3622 15.6421C15.7893 15.1983 15.207 15.1228 14.6248 15.4344C10.887 17.3796 10.7273 20.8641 9.71304 24.6129C9.6473 24.8395 9.51582 25.0095 9.30921 25.1133C5.43055 27.0303 4.54775 32.0255 4.3881 36.0576C4.36932 36.6714 3.99366 37.2285 3.42078 37.4646C1.88059 38.1256 1.05414 39.3721 0.932052 41.204C0.791181 43.4231 1.02597 45.5949 1.62702 47.729C1.88998 48.6639 2.11537 49.6176 2.31259 50.6091C2.35955 50.8452 2.34077 51.0718 2.26564 51.2984C1.61763 53.0926 1.12927 54.9245 0.791181 56.7753C-0.0446568 61.3456 0.941444 65.1039 3.74009 68.0406C4.46323 68.8055 4.90463 69.5515 5.0455 70.288C5.76864 74.018 6.34152 76.8697 10.0417 79.0605C10.2484 79.1832 10.3986 79.3532 10.4925 79.5609C11.5256 81.78 11.7322 83.5175 14.3055 84.6979C15.6296 85.3116 16.6439 85.7555 17.3671 87.0869C18.1184 88.4561 19.3956 89.3532 21.1894 89.7781C21.9313 89.9575 22.4103 90.3447 22.6451 90.9585C23.4433 93.0926 24.8896 94.3485 27.0027 94.7451C29.1533 95.1511 31.3791 95.3305 33.6518 95.3022C34.065 95.3022 34.4407 95.5666 34.5722 95.9632C35.8588 99.8348 40.7799 98.475 43.9354 99.1549C44.1608 99.2021 44.3674 99.3154 44.5459 99.4665C46.997 101.591 51.3922 100.194 53.8058 98.6733C54.0124 98.5411 54.2191 98.5128 54.4538 98.5883C56.905 99.3815 58.4264 100.307 61.319 99.0321C62.3802 98.5694 63.4133 98.0218 64.39 97.408C64.5966 97.2758 64.8032 97.2285 65.038 97.2474C70.5038 97.7668 74.3167 95.5855 76.4768 90.7035C76.5707 90.4863 76.7303 90.4014 76.9651 90.4297C79.2566 90.7035 81.1067 89.8726 82.5154 87.9273C83.5391 86.5203 84.2716 85.2172 85.5489 83.9235C86.8449 82.611 87.9249 81.1285 88.7889 79.4948C89.127 78.8527 89.5308 78.3711 90.0098 78.0595C91.8881 76.8131 93.3813 76.0671 94.1233 73.6119C94.621 71.9594 95.0718 70.288 95.485 68.6072C95.7949 67.3702 96.5181 66.6431 97.2882 65.7082C99.9741 62.441 99.8333 59.1832 98.8002 55.34C98.5278 54.3296 98.5185 53.3947 98.7814 52.5543H98.772ZM86.4035 25.9254L92.0665 26.8697C92.1417 26.8886 92.2074 26.9358 92.245 27.0019L93.7194 30.0425C93.8227 30.2503 93.5973 30.4675 93.4001 30.3636L86.8543 26.9925C86.8543 26.9925 86.8073 26.9642 86.7885 26.9453L86.1969 26.3315C86.0372 26.1615 86.1781 25.8877 86.4035 25.9254ZM92.2825 34.2729C92.0853 34.4429 91.4467 34.018 90.8363 33.3286C90.2352 32.6393 89.9065 31.9311 90.1037 31.7611C90.3009 31.5912 90.9396 32.0161 91.55 32.7054C92.1511 33.3947 92.4798 34.103 92.2825 34.2729ZM80.5714 13.9708C83.1165 15.1417 84.9854 16.5203 84.7506 17.0303C84.5158 17.5402 82.2619 17.0019 79.7168 15.8216C77.1717 14.6506 75.3028 13.272 75.5376 12.7621C75.7724 12.2522 78.0263 12.7904 80.5714 13.9708ZM68.2874 7.80457C70.053 7.68181 75.4155 7.86123 76.4768 9.43818C76.5613 9.56094 76.4955 9.73091 76.3453 9.7498C74.1007 10.1086 71.875 10.1181 69.6961 9.76869C68.7946 9.62704 68.1278 9.09824 67.9681 8.22005C67.9305 8.01231 68.0808 7.82345 68.2874 7.80457ZM52.754 6.29371L55.2145 3.96132C55.2145 3.96132 55.2991 3.91411 55.346 3.90466L59.2153 3.42308C59.2153 3.42308 59.281 3.42308 59.3092 3.42308L61.4974 4.13129C61.7134 4.19739 61.704 4.50901 61.4786 4.56566L52.9512 6.68087C52.7258 6.73752 52.5756 6.45424 52.7446 6.29371H52.754ZM50.547 5.65159C50.2277 6.59588 49.5985 7.20022 48.6687 7.45518C48.0395 7.6346 47.9831 7.51184 48.4809 7.09635L50.3498 5.51939C50.5752 5.33054 50.6409 5.37775 50.547 5.65159ZM46.0015 4.24461C48.0207 3.13979 49.8802 2.66765 50.1526 3.16812C50.4343 3.67803 49.0162 4.98115 46.997 6.08597C44.9779 7.19078 43.1184 7.66293 42.846 7.16245C42.5643 6.65254 43.9824 5.34942 46.0015 4.24461ZM31.642 11.5912C33.9711 8.68275 35.7273 5.45329 39.2397 4.20684C40.1319 3.89522 40.3761 4.15962 39.9629 5.00948C38.7044 7.59683 34.2059 10.4014 31.7454 11.7139C31.6702 11.7611 31.5857 11.6573 31.642 11.5817V11.5912ZM30.5996 14.2918C32.4121 13.0359 34.375 12.0633 36.4692 11.3645C39.0801 10.4863 41.7003 9.99531 44.3111 9.90089C46.8092 9.80646 48.5372 9.70259 49.4858 9.57038C51.2044 9.34376 52.923 9.13601 54.6417 8.93771C55.9001 8.79607 57.1398 8.90938 58.3419 9.2871C59.0932 9.52317 59.1589 9.87256 58.5391 10.3541C57.8817 10.8641 57.0647 11.1285 56.0973 11.1379C50.115 11.2323 44.8464 11.5912 40.2822 12.2049C37.2487 12.611 34.1026 13.5081 30.8532 14.9056C30.7405 14.9528 30.6559 14.9245 30.5902 14.8112L30.5057 14.6318C30.4305 14.4901 30.4587 14.3674 30.5902 14.2729L30.5996 14.2918ZM17.0478 26.3032C17.1229 25.7083 17.3389 25.1606 17.677 24.679C17.8085 24.4901 17.8554 24.2824 17.8179 24.0557C17.7709 23.7819 17.7991 23.5364 17.8836 23.3286C19.7337 19.0133 21.1424 14.2163 24.4294 10.713C24.8802 10.2314 25.6785 10.4202 25.8757 11.0529C25.979 11.4117 25.9039 11.9028 25.6409 12.5354C23.9317 16.5109 20.8043 20.4202 18.1559 23.8197C18.0057 24.0085 17.9681 24.2257 18.0432 24.4618C18.0808 24.5562 18.1278 24.6506 18.1935 24.7356C18.3438 24.9245 18.3344 25.1133 18.1935 25.3022L17.3013 26.4259C17.1041 26.6714 17.029 26.6336 17.0571 26.322L17.0478 26.3032ZM13.7044 19.7215C14.2021 18.5978 14.9816 17.7857 16.0804 17.2474C16.2964 17.1436 16.3997 17.2002 16.381 17.4552C16.2401 19.1832 15.5639 20.8452 15.3855 22.441C15.0849 25.1794 14.5027 27.8518 13.6199 30.4675C13.5823 30.5713 13.5166 30.5997 13.4133 30.5713C13.31 30.5336 13.2724 30.4675 13.3006 30.373C13.9674 27.984 13.1221 26.5959 12.9249 24.5562C12.7653 22.8943 13.0188 21.289 13.7044 19.7309V19.7215ZM7.38397 33.7913L7.40275 33.5647C7.6751 30.1558 8.84903 27.4835 10.0136 27.5779H10.0605C10.1263 27.5968 10.1732 27.644 10.1638 27.7101L9.15895 40.0331C9.15895 40.0992 9.09321 40.1464 9.03686 40.137H8.9899C7.82537 40.0425 7.10223 37.2002 7.37458 33.8008L7.38397 33.7913ZM4.05001 38.9188C4.63228 38.7866 5.60899 40.9396 6.23821 43.7158C6.86744 46.5015 6.905 48.8622 6.32274 48.9944C5.74047 49.1266 4.76376 46.9736 4.13453 44.1974C3.50531 41.4117 3.46774 39.051 4.05001 38.9188ZM6.67022 58.7394C6.31334 58.8811 5.41177 57.3985 4.64167 55.425C3.87157 53.4608 3.53348 51.7422 3.88096 51.61C4.23784 51.4684 5.13942 52.9509 5.90951 54.9245C6.67961 56.8886 7.0177 58.6072 6.67022 58.7394ZM4.63228 65.3494C4.44445 65.255 4.29419 65.1039 4.20027 64.915L3.20478 62.8659C3.15782 62.781 3.186 62.7149 3.27052 62.6771L3.43957 62.6015C3.48652 62.5827 3.5147 62.6015 3.53348 62.6393C3.83401 63.4231 4.24723 64.1502 4.75437 64.8017C4.9422 65.0567 5.17698 65.1794 5.44933 65.17C5.72168 65.17 5.78742 65.0378 5.66534 64.7923C5.25211 63.9519 4.66045 63.1303 3.87157 62.3183C3.26113 61.6761 3.00756 60.8074 3.09208 59.7215C3.12965 59.4004 3.24235 59.3532 3.45835 59.5987C4.41627 60.7035 5.08307 62.0161 6.05978 63.0359C7.23371 64.2446 8.37946 65.5666 9.49704 66.9925C10.1544 67.8329 10.0042 68.0123 9.05564 67.5402L4.61349 65.34L4.63228 65.3494ZM18.0151 82.6393C16.0992 82.2238 14.0707 82.0444 13.6574 79.6554C13.6293 79.4948 13.7326 79.3532 13.8828 79.3343C15.3385 79.0888 16.5876 79.4854 17.6112 80.5336C17.9681 80.8924 18.3438 81.2229 18.757 81.4967C18.9448 81.6289 19.1608 81.6667 19.3862 81.6195C20.6353 81.3645 21.612 81.7895 22.3257 82.8848C22.4572 83.0926 22.4009 83.2342 22.1661 83.3003C20.5508 83.8008 19.1608 82.8754 18.0151 82.6299V82.6393ZM22.2506 87.0586C22.1849 87.0586 22.1191 87.0491 22.0628 87.0208L21.0673 86.6525C20.6541 86.5014 20.5977 85.9349 20.9828 85.6988L23.5091 84.1879C23.6687 84.0841 23.8659 84.0841 24.0256 84.1691L27.5098 86.0293C27.9982 86.2937 27.8103 87.0302 27.2656 87.0302L22.26 87.0586H22.2506ZM33.7927 92.4693C33.7739 92.526 33.7269 92.5638 33.6706 92.5638L24.1477 91.1851C24.0819 91.1851 24.0538 91.119 24.0538 91.0624V91.0435C24.2228 89.9009 26.4768 89.2682 29.1064 89.6459L29.3411 89.6837C31.9614 90.0614 33.9523 91.3079 33.7927 92.4505V92.4693ZM44.7713 94.0369C42.6864 95.6138 41.3434 96.8603 38.3569 95.831C37.9813 95.6988 37.6995 95.4722 37.5023 95.1228L37.4084 94.9434C37.3426 94.8301 37.446 94.6979 37.568 94.7167C38.4414 94.8489 39.3242 94.8206 40.207 94.6223C41.6064 94.3013 43.0526 93.933 44.5271 93.5364C45.4756 93.272 45.5508 93.442 44.7713 94.0369ZM48.6687 97.0397L46.5087 97.814C46.1894 97.9273 45.917 97.5685 46.1049 97.2946L47.2318 95.5194C47.2318 95.5194 47.307 95.4344 47.3633 95.4061L50.8757 93.3947C51.2232 93.2059 51.5707 93.6308 51.3171 93.933L48.8284 96.9358C48.8284 96.9358 48.7345 97.0208 48.6687 97.0397ZM52.1717 95.3966C50.9133 96.7281 49.7206 97.644 49.5139 97.4552C49.3073 97.2569 50.162 96.0199 51.4204 94.6884C52.6789 93.357 53.8716 92.441 54.0782 92.6299C54.2848 92.8282 53.4302 94.0652 52.1717 95.3966ZM60.5301 94.915L60.3611 95.0661C58.5955 96.5864 56.6796 97.2569 56.0879 96.5581L56.041 96.492C55.994 96.4353 55.994 96.3504 56.0598 96.3031L62.4084 90.8168C62.4647 90.7696 62.5493 90.7791 62.5868 90.8357L62.6432 90.8924C63.2442 91.5912 62.2957 93.3947 60.5395 94.915H60.5301ZM70.4662 92.6015C68.7288 94.3768 66.9726 95.4816 66.55 95.0661C66.1274 94.6412 67.1792 92.8565 68.9166 91.0718C70.6541 89.2965 72.4103 88.1917 72.8329 88.6072C73.2555 89.0321 72.2037 90.8168 70.4662 92.6015ZM79.482 86.5014C79.1627 87.6912 78.5241 88.5411 78.0545 88.4183C77.5849 88.2861 77.4629 87.2285 77.7822 86.0387C78.1015 84.8489 78.7401 83.9991 79.2097 84.1218C79.6792 84.254 79.8013 85.3116 79.482 86.5014ZM82.4591 82.5638C82.168 83.8952 81.6514 84.915 81.304 84.8395L81.1255 84.7923C80.778 84.7262 80.7499 83.5742 81.0316 82.2427L81.0879 81.9972C81.1067 81.8933 81.2194 81.8178 81.3227 81.8461L82.3558 82.0727C82.4591 82.0916 82.5248 82.2049 82.5061 82.3088L82.4591 82.5543V82.5638ZM86.6101 66.6525C86.1687 69.6743 85.6804 72.8376 85.4268 76.0387C85.2953 77.644 84.7976 79.306 83.9242 81.0151C83.7176 81.4023 83.2198 81.5156 82.8723 81.2512C82.7596 81.1662 82.7033 80.9113 82.7127 80.4958C82.7127 79.627 82.6939 78.8338 82.6375 78.1256C82.6094 77.8046 82.2337 77.6629 81.9989 77.8801C81.642 78.2106 81.1819 78.4939 80.609 78.7394C80.3366 78.8527 80.2897 78.7866 80.4681 78.56C82.6 75.7649 83.7927 73.7725 84.0556 72.5732C84.5816 70.1464 85.2484 68.1162 86.0466 66.4826C86.6195 65.3116 86.8073 65.3777 86.6195 66.6714L86.6101 66.6525ZM91.5594 56.2276C91.1556 58.4184 90.9959 60.628 91.071 62.8282C91.165 65.4438 91.0523 67.7007 90.7236 69.5987C90.3103 72.0444 89.7281 74.4335 89.0049 76.747C88.9768 76.8414 88.911 76.8792 88.8265 76.8508C88.7326 76.8225 88.695 76.7658 88.7044 76.6714C89.2773 73.5647 89.1834 70.458 88.432 67.3796C88.1691 66.2654 88.4508 64.3201 88.7795 62.932C89.8502 58.4089 90.2164 53.9708 88.911 49.9859C88.6574 49.2116 88.5541 49.2304 88.6199 50.052C88.9955 55.5288 87.8028 60.9868 85.3704 65.9538C83.2574 70.288 80.7686 74.4996 78.6556 78.7394C77.3126 81.4401 75.4531 83.6686 73.0583 85.4155C71.5556 86.5109 69.6116 87.6063 67.2168 88.6827C65.8926 89.2871 64.3148 89.6554 62.4741 89.7876C60.1732 89.9575 57.9193 90.4863 55.5714 90.6091C53.3456 90.7318 50.5094 91.0057 47.0816 91.4401C45.8701 91.5912 44.5365 91.4967 43.0808 91.1473C42.245 90.949 41.3246 90.8829 40.3197 90.9585C36.7228 91.2229 32.9381 88.7583 30.2145 86.5203C27.0027 83.8763 25.3686 82.5354 25.3028 82.4882C23.2837 80.9868 21.2551 79.3343 19.2078 77.5118C18.3626 76.7658 17.4046 76.5109 16.1744 76.5487C12.9907 76.6336 8.17285 74.6318 7.83476 70.9113C7.81597 70.6657 7.91928 70.5524 8.16346 70.5808C11.3847 70.9113 11.7979 76.0576 16.0992 75.6138C16.3622 75.5855 16.4185 75.4627 16.3058 75.2267C14.8877 72.526 13.8922 69.4476 13.3006 65.9726C12.8122 63.0359 12.4647 60.0709 12.2769 57.0869C12.2393 56.5581 12.2769 56.0482 12.4084 55.5383C12.5023 55.1889 12.5868 55.1889 12.6807 55.5383C13.0846 57.0586 13.5166 58.5128 13.958 59.9198C15.3479 64.339 16.5406 69.2021 18.3156 73.102C18.973 74.5468 20.1188 75.9821 21.7623 77.4268C26.0541 81.1568 29.0782 83.7252 30.8344 85.1322C33.417 87.2097 36.4317 88.6827 39.8783 89.5515C40.1225 89.6176 40.2728 89.5232 40.3479 89.2776C40.4794 88.8149 40.3103 88.5033 39.8408 88.305C32.8911 85.5666 28.9185 81.5817 22.9831 76.898C20.9922 75.3211 19.9215 73.5836 18.9918 71.0057C17.9587 68.0879 16.8599 65.1889 15.7048 62.3277C14.8314 60.1558 14.2491 57.7951 13.4602 55.5194C12.8404 53.7347 12.784 52.1105 12.9437 50.3825C13.0658 49.0888 13.479 45.9632 14.1928 41.0057C14.3806 39.7215 15.1131 38.6261 16.4091 37.7101C16.597 37.5779 16.7378 37.3891 16.8318 37.1719C20.6916 27.3513 30.1394 21.0718 40.2916 18.2484C60.6804 12.5732 80.5902 25.5194 84.2998 46.5298C84.8164 49.4099 84.807 51.9311 84.281 54.1124C83.6612 56.7186 82.7127 59.5987 81.4354 62.7432C79.529 67.4268 76.3265 71.4684 73.2085 75.3872C73.0771 75.5477 72.9925 75.7366 72.9456 75.9349L72.7014 77.1341C72.6544 77.3796 72.523 77.5685 72.3257 77.7007C71.4711 78.2673 71.0767 78.8716 71.1236 79.5137C71.1706 80.0425 71.3302 80.0897 71.6402 79.6554L80.6372 66.747C80.7405 66.5959 80.7968 66.6148 80.7968 66.7942C80.7968 68.7205 79.1533 71.459 78.4208 73.3003C78.0451 74.2352 77.5098 75.2361 76.8055 76.2937C76.1668 77.2474 75.6033 78.2389 75.1244 79.2871C74.8426 79.9009 73.8659 80.8829 72.1755 82.2522C71.6308 82.7054 70.9076 82.8471 70.3348 83.6497C70.1563 83.8952 69.9403 84.0369 69.6774 84.0841C69.405 84.1218 69.3393 84.018 69.4613 83.7725C69.5928 83.4986 69.7243 83.2437 69.837 82.9887C69.9591 82.7526 69.8934 82.696 69.6586 82.8093C69.1514 83.0642 68.8133 83.4986 68.6349 84.1313C68.4846 84.6695 68.1372 84.9717 67.6112 85.0189C67.3952 85.0378 67.245 84.9434 67.1698 84.7356C67.1323 84.6318 67.0759 84.5468 66.9914 84.4618C66.8411 84.3107 66.6721 84.2824 66.4749 84.3768C64.4182 85.3305 62.2957 86.086 60.0887 86.6525C58.8209 86.9736 57.769 86.5676 56.5857 86.8603C54.0312 87.493 51.4392 87.9368 48.819 88.2012C47.6169 88.3334 46.4617 88.0406 45.2784 87.9934C44.3956 87.9557 44.3674 88.0784 45.2033 88.3711C47.1097 89.0321 48.988 89.0605 51.195 88.7394C53.2705 88.4372 55.3648 88.2578 57.4591 88.22C58.5485 88.2012 60.2859 87.899 62.6713 87.2946C62.7371 87.2852 63.5729 87.1436 65.1695 86.8886C66.1368 86.7375 67.1511 86.3881 68.2123 85.8404C70.2784 84.7828 72.0534 83.6591 73.5466 82.4693C74.8239 81.4495 75.9039 80.0425 76.8148 78.2389C78.4396 74.9906 79.8577 71.7422 81.0786 68.4844C81.4542 67.4741 81.5481 66.3976 81.9238 65.4722C83.4546 61.6761 84.8445 57.8329 86.0936 53.933C86.8167 51.6573 86.9952 49.3532 86.6383 47.0114C84.7318 34.6129 78.7119 25.4061 68.5973 19.4099C63.8265 16.577 58.6424 15.0472 53.0076 14.8206C44.3956 14.4618 36.9858 16.171 30.7499 19.9387C28.5617 21.2607 25.6127 23.3192 21.9125 26.1332C19.142 28.2389 16.7472 31.2229 14.7375 35.0473C13.1879 38.0029 12.0703 41.3456 11.3753 45.0567C10.5677 49.4287 10.7837 54.6506 10.7649 59.4193C10.7649 59.8253 10.9433 60.7507 11.3096 62.1861C12.0327 65.085 12.7653 67.9745 13.526 70.8735C13.5917 71.1096 13.526 71.1568 13.3287 71.0057C12.784 70.5902 12.3802 70.0614 12.136 69.4287C10.4831 65.2078 8.47337 61.4117 8.52033 56.7564C8.56729 52.7432 8.69877 49.1927 8.93355 46.1237C9.15895 43.1681 11.0278 41.2607 11.6852 38.4939C12.4272 35.2739 13.1409 33.2059 13.8171 32.2994C14.6154 31.2323 15.3949 30.1558 16.165 29.0982C17.1605 27.7101 18.5316 26.5959 19.6304 25.17C19.7713 24.9906 19.837 24.7828 19.8182 24.5468C19.8182 24.4807 19.8182 24.4146 19.8182 24.3485C19.8182 24.2163 19.8558 24.103 19.9403 24.0085C22.9644 20.5713 25.8851 16.8414 30.2615 15.1889C30.3648 15.1511 30.4869 15.1606 30.5808 15.2078C30.7874 15.3116 30.8813 15.4533 30.8532 15.6138C30.8532 15.6988 30.7874 15.7744 30.6935 15.8593C27.6131 18.2578 24.7112 20.8735 21.9876 23.6875C21.6589 24.0369 21.7247 24.1218 22.1661 23.9613C23.1146 23.6025 23.9786 23.0359 24.7581 22.2333C27.2562 19.6648 30.4399 16.1804 33.8021 15.2928C37.2018 14.3957 40.1319 13.8197 42.5831 13.5553C44.8464 13.3192 47.1943 13.1492 49.6548 13.0548C51.5613 12.9793 53.4771 12.8471 55.4212 12.6676C58.1635 12.4221 60.455 12.5827 62.3145 13.1398C67.7709 14.8017 72.1285 17.0397 75.3967 19.8631C78.7683 22.7715 82.0647 26.8697 84.1308 30.9396C86.4974 35.6044 88.2442 40.3164 89.3712 45.0661C89.7281 46.5959 90.2258 48.2106 90.8644 49.9198C91.6815 52.1011 91.9069 54.1974 91.55 56.1993L91.5594 56.2276ZM15.3009 37.6252L17.6394 32.5543C17.6864 32.4505 17.8085 32.4032 17.9118 32.4505H17.9399C18.0432 32.5071 18.0902 32.6299 18.0432 32.7337L15.7048 37.8046C15.6578 37.9084 15.5357 37.9557 15.4324 37.9084H15.4043C15.3009 37.8518 15.2634 37.729 15.3009 37.6252ZM67.0102 85.0661C67.0665 85.1983 66.7284 85.4627 66.2683 85.6421C65.8081 85.831 65.3949 85.8782 65.3385 85.746C65.2822 85.6138 65.6203 85.3494 66.0804 85.17C66.5406 84.9811 66.9538 84.9339 67.0102 85.0661ZM95.8607 64.2446C95.2221 64.3579 94.4144 62.7337 94.0669 60.628C93.7194 58.5222 93.9542 56.7281 94.5928 56.6148C95.2315 56.5015 96.0391 58.1256 96.3866 60.2314C96.7341 62.3371 96.4993 64.1313 95.8607 64.2446ZM98.124 46.3126C97.9362 47.5118 97.692 47.5213 97.4103 46.3409C97.044 44.8017 96.3866 43.7819 95.4193 43.3003C94.1608 42.6488 92.7709 41.5817 91.2589 40.0803C91.2025 40.0331 91.1837 40.0425 91.1931 40.1086C91.5782 43.0076 92.6488 45.6138 94.405 47.9651C95.0718 48.8622 95.5226 50.6469 95.7198 53.3192C95.7574 53.7913 95.5602 53.933 95.1281 53.7536L94.8652 53.6403C94.3674 53.4325 94.0951 53.0548 94.0481 52.5166C93.8133 50.0614 93.6067 47.644 91.7378 45.831C91.2213 45.3305 90.7705 44.2824 90.3949 42.6771C90.0756 41.374 89.7469 40.2975 89.3994 39.4476C88.2912 36.7375 87.2393 33.678 86.056 31.2795C84.1026 27.3324 81.7829 23.7536 79.0782 20.5241C78.3269 19.627 77.4535 18.7866 76.4486 18.0123C75.7912 17.5118 74.7112 17.0019 73.2273 16.5015C70.7386 15.6516 68.4095 14.1596 66.2495 12.0066C65.9677 11.7234 65.3573 11.289 64.4181 10.713C63.0846 9.882 61.4223 9.6176 59.9666 8.83384C59.7506 8.71108 59.7224 8.56944 59.9009 8.39003C60.6146 7.67237 61.3753 7.58738 62.2018 8.10674C64.2679 9.4193 66.334 10.7413 68.3907 12.0822C69.8088 13.0076 72.091 14.103 73.7626 15.4722C74.6642 16.2087 75.4625 16.747 76.1481 17.0869C77.3126 17.6629 78.5617 18.1445 79.5759 18.8811C82.1304 20.7413 84.4783 23.4892 85.2484 26.8036C85.4644 27.7479 85.9715 28.7772 86.7604 29.882C87.5399 30.9774 88.0752 31.865 88.3663 32.5543C89.2679 34.679 90.207 36.7847 91.165 38.8811C91.2683 39.0888 91.4373 39.2399 91.6533 39.3154C95.4099 40.5808 98.9317 41.1096 98.1052 46.322L98.124 46.3126Z" fill="black"/>
<path d="M50.8381 20.8267L50.9884 26.162C51.0072 26.653 50.4531 26.9552 50.0492 26.6719L49.4951 26.2942C49.3637 26.1997 49.2791 26.0675 49.251 25.9164L48.1616 20.2979C48.0676 19.8258 48.5466 19.4292 48.9974 19.6275L50.4906 20.2979C50.6972 20.3924 50.8475 20.6001 50.8475 20.8362L50.8381 20.8267Z" fill="black"/>
<path d="M50.0492 47.8424C53.9467 39.3344 57.2431 32.0162 62.8028 23.1021C63.2724 22.3467 63.7232 22.3561 64.1176 23.1588C64.1458 23.2154 64.174 23.2721 64.2021 23.3193C64.606 24.1219 64.6247 24.9246 64.2491 25.7367C60.9151 33.0643 57.6 39.9954 54.2942 46.5015C53.8622 47.3608 53.5335 48.1635 53.2987 48.9C53.186 49.2872 53.3738 49.6838 53.7401 49.8443C61.4504 53.036 69.0387 56.0483 76.5143 59.9482C77.707 60.5809 77.9606 61.4685 77.2656 62.63L76.89 63.2626C76.1574 64.4997 75.1525 64.7829 73.8847 64.1314L52.754 53.1682C52.5755 53.0738 52.3689 53.1304 52.2656 53.3004C50.4719 55.9444 47.5323 54.1786 47.5229 51.3552C47.5229 51.1191 47.429 50.9491 47.2224 50.8358L23.6781 37.4742C23.4151 37.3231 23.2085 37.1153 23.0583 36.8509C22.26 35.4156 22.5981 34.5469 24.0913 34.2447C24.3543 34.188 24.6266 34.2258 24.8614 34.358L49.636 47.9935C49.7863 48.0691 49.9741 48.0124 50.0492 47.8519V47.8424Z" fill="black"/>
<path d="M38.7044 29.1832C38.7607 29.3154 38.7889 29.457 38.7795 29.5892C38.7607 30.1935 38.0094 30.4579 37.6244 29.9952C36.2344 28.3711 35.1356 26.6714 34.2904 24.915C34.0556 24.4334 34.3843 23.8668 34.9196 23.8385C35.4362 23.8102 35.9339 24.0179 36.4223 24.4428C36.6007 24.5939 36.7416 24.8017 36.8355 25.0189C37.4178 26.3125 38.0376 27.7006 38.6856 29.1832H38.7044Z" fill="black"/>
<path d="M75.0398 33.8293C75.2183 34.0276 75.1901 34.3297 74.9929 34.4997L74.9083 34.5753C71.9125 37.2476 69.1983 39.1078 68.8602 38.7207L68.6536 38.4846C68.3062 38.0974 70.4662 35.6045 73.4621 32.9322L73.5466 32.8567C73.7344 32.6772 74.0443 32.7056 74.2134 32.8944L75.0398 33.8293Z" fill="black"/>
<path d="M79.1814 49.4477L75.5282 48.1635C75.068 48.003 75.1149 47.3231 75.6033 47.2381L79.2566 46.5204C79.5571 46.4638 79.8294 46.6904 79.8294 46.9926V48.9945C79.8294 49.325 79.5101 49.561 79.1908 49.4477H79.1814Z" fill="black"/>
<path d="M18.8321 50.1558C18.663 50.1558 18.541 50.0236 18.541 49.8536V49.5892C18.5597 48.7488 19.6679 48.0878 21.0203 48.1161L24.5984 48.1728C25.9414 48.2011 27.0308 48.8999 27.012 49.7308V49.9952C27.012 50.1652 26.8712 50.2974 26.7021 50.2974L18.8321 50.1558Z" fill="black"/>
<path d="M85.3798 63.2248C85.3141 63.2059 85.4831 62.1011 85.7742 60.7413C86.056 59.391 86.3565 58.3051 86.4316 58.3145C86.4974 58.3334 86.3283 59.4382 86.0372 60.798C85.7555 62.1483 85.4549 63.2342 85.3798 63.2248Z" fill="black"/>
<path d="M28.8809 61.8082C29.1345 62.3559 27.8291 63.4985 25.9789 64.3484C24.1194 65.2077 22.4196 65.4626 22.166 64.9149C21.9125 64.3673 23.2179 63.2247 25.068 62.3748C26.9275 61.5155 28.6273 61.2605 28.8809 61.8082Z" fill="black"/>
<path d="M25.2089 76.3034C23.2273 74.8586 21.7059 73.0833 20.6353 70.987C20.5413 70.8076 20.5601 70.6282 20.6634 70.4488C20.8137 70.2033 20.964 70.2033 21.1048 70.4488C23.0582 73.5366 25.5939 76.1239 28.7119 78.2014C28.7964 78.258 28.8246 78.3808 28.7776 78.4658L28.5898 78.7774C28.5241 78.8813 28.4395 78.9096 28.3362 78.8246C27.7915 78.4091 27.2656 77.9842 26.7773 77.5593C26.3171 77.1627 25.8005 76.7472 25.2089 76.3128V76.3034Z" fill="black"/>
<path d="M65.639 75.6798C65.1412 75.9915 64.0612 75.1605 63.2066 73.829C62.3614 72.4882 62.0796 71.1473 62.568 70.8262C63.0657 70.5146 64.1458 71.3456 65.0004 72.677C65.8456 74.0179 66.1273 75.3588 65.639 75.6798Z" fill="black"/>
<path d="M34.2998 77.1619C33.9148 76.7937 34.6473 75.3584 35.9527 73.9419C37.2487 72.5255 38.6293 71.6756 39.0237 72.0439C39.4087 72.4122 38.6762 73.8475 37.3708 75.2639C36.0748 76.6804 34.6942 77.5302 34.2998 77.1619Z" fill="black"/>
<path d="M51.5988 80.8921C51.5988 81.317 51.2701 81.6664 50.8381 81.6759H50.3779C49.9553 81.6853 49.6078 81.3454 49.5984 80.9204L49.5139 73.9422C49.5139 73.5172 49.8426 73.1678 50.2746 73.1584H50.7348C51.1574 73.149 51.5049 73.4889 51.5143 73.9138L51.5988 80.8921Z" fill="black"/>
<path d="M69.0857 78.1916C69.6022 79.7025 69.2265 80.8167 67.9681 81.525C67.5924 81.7327 67.5173 81.6572 67.7427 81.2794C67.9399 80.9584 68.1841 80.6657 68.4564 80.4201C68.6349 80.2596 68.7476 80.0613 68.7851 79.8347C68.8884 79.2587 68.8227 78.6921 68.5691 78.1255C68.5691 78.1066 68.5691 78.0878 68.5879 78.0783L68.7664 78.0311C68.926 77.9839 69.0293 78.0311 69.0857 78.1916Z" fill="black"/>
<path d="M65.9959 79.8634L66.8599 78.7396C67.0195 78.5319 67.1134 78.5602 67.1228 78.8246C67.1416 79.3534 66.8317 79.7784 66.2025 80.1089C65.7423 80.3449 65.6859 80.26 65.9959 79.8539V79.8634Z" fill="black"/>
<path d="M29.0218 78.9287C29.0593 78.721 29.172 78.636 29.3787 78.6738C29.6792 78.7115 29.9797 78.8815 30.2708 79.1648C30.3272 79.212 30.3084 79.2403 30.2333 79.2498C30.1394 79.2498 30.083 79.2498 30.0548 79.2687C29.7167 79.4103 29.6416 79.8541 29.9046 80.128C30.2615 80.4868 30.6841 80.6473 31.1536 80.619C31.4072 80.6001 31.6702 80.6568 31.8956 80.7984C33.9899 82.0921 35.8681 83.1025 37.5398 83.8296C38.0845 84.0656 38.4977 84.5 38.7889 85.1516C38.8922 85.3876 38.8264 85.4537 38.5823 85.3688C36.9763 84.7833 35.8681 84.3111 35.2577 83.9618C33.3888 82.8758 31.5763 81.8088 29.8294 80.7606C29.1627 80.3546 28.8809 79.7502 29.0218 78.9476V78.9287Z" fill="black"/>
<path d="M65.6108 81.2606C65.7235 81.4873 65.207 81.9783 64.4557 82.3654C63.7044 82.7432 63 82.8754 62.8873 82.6487C62.7746 82.4221 63.2912 81.9311 64.0425 81.5439C64.7938 81.1662 65.4981 81.034 65.6108 81.2606Z" fill="black"/>
<path d="M58.4076 83.385C59.2998 82.7995 60.2296 82.4029 61.2157 82.214C61.4504 82.1668 61.6664 82.3651 61.6477 82.6012C61.6101 82.9884 61.441 83.3189 61.1311 83.5833C60.9715 83.7155 60.7649 83.7721 60.5676 83.7155C59.8163 83.5172 59.0275 83.4322 58.1916 83.4511C58.1634 83.4511 58.1353 83.4511 58.1165 83.4322C58.1071 83.4322 58.1071 83.4133 58.1165 83.4133H58.3043C58.3043 83.4133 58.3888 83.3944 58.4264 83.3755L58.4076 83.385Z" fill="black"/>
<path d="M39.2397 84.1972C38.9673 84.0461 38.7701 83.8384 38.6199 83.5929C38.4884 83.3757 38.5541 83.2813 38.8077 83.3096C39.3806 83.3757 39.6623 83.5834 39.6623 83.9423C39.6623 84.15 39.4275 84.3011 39.2491 84.1878L39.2397 84.1972Z" fill="black"/>
<path d="M57.7126 83.6401C57.7408 83.8384 56.0691 84.2539 53.9748 84.556C51.8805 84.8677 50.1619 84.9526 50.1337 84.7449C50.1055 84.5466 51.7772 84.1311 53.8715 83.8289C55.9658 83.5173 57.6844 83.4323 57.7126 83.6401Z" fill="black"/>
<path d="M42.6394 87.672C42.6018 87.8608 42.1041 87.9364 41.5124 87.842C40.9208 87.7381 40.47 87.5115 40.4981 87.3132C40.5357 87.1243 41.0335 87.0488 41.6251 87.1432C42.2168 87.2471 42.6676 87.4737 42.6394 87.672Z" fill="black"/>
</g>
<defs>
<clipPath id="clip0_2239_383">
<rect width="100" height="100" fill="white" transform="translate(0.5 0.542969)"/>
</clipPath>
</defs>
</svg>
