<svg width="121" height="100" viewBox="0 0 121 100" fill="none" xmlns="http://www.w3.org/2000/svg">
<g clip-path="url(#clip0_2029_343)">
<path d="M104.063 35.5869C103.558 35.4754 103.349 35.1713 103.458 34.6544C104.945 26.9613 103.657 19.9169 99.5929 13.5212C91.2077 0.354804 73.7533 -4.06441 60.3429 4.1456C57.9542 5.60516 55.7736 7.91613 53.6228 9.93315C53.3156 10.2372 52.8398 10.2778 52.4731 10.0548C47.4281 6.97349 42.383 5.71665 37.3579 6.28426C31.8569 6.90254 27.0498 8.72699 22.9364 11.7475C15.2549 17.3931 12.3409 25.2585 14.2142 35.3639C14.3332 36.0025 14.5611 36.5701 14.8981 37.0465C15.245 37.5431 15.1756 37.9587 14.6701 38.3033C8.56459 42.4489 3.76737 45.6721 1.19034 53.0408C-2.36793 63.207 3.16276 72.8766 12.9554 75.8667C14.5512 76.3532 16.2461 76.7991 18.0203 77.2046C18.4068 77.2958 18.6645 77.5289 18.7736 77.9242C20.8451 85.3538 24.6809 90.8778 32.2335 93.3915C39.4096 95.7734 45.8521 95.3173 51.5513 92.013C51.9081 91.8002 52.2451 91.8306 52.5722 92.084C53.375 92.7225 54.168 93.3611 54.9312 94.0199C57.8749 96.5336 61.7305 98.3074 66.498 99.3513C75.5176 101.308 83.8235 98.804 91.4158 91.8407C95.103 88.4452 96.3816 83.9753 97.6701 79.3635C97.9773 78.2891 98.6612 77.6202 99.7317 77.3465C109.673 74.8936 117.473 70.5758 119.624 59.9129C121.973 48.3276 115.6 38.0398 104.063 35.5869ZM45.0493 13.7138C40.2818 12.9029 35.435 14.9301 31.9461 18.3966C31.5893 18.7513 31.0144 18.6905 30.727 18.2749C30.3999 17.7884 30.3008 17.2614 30.4495 16.6937C30.7072 15.7308 31.2424 14.9301 32.0551 14.2916C35.9702 11.2103 39.9943 10.3183 44.1473 11.6258C44.8015 11.8286 45.307 12.1833 45.6737 12.68C46.308 13.5415 46.0999 13.8861 45.0493 13.7138ZM89.6516 83.7017C88.036 87.7256 85.3301 90.6447 81.5141 92.4793C79.2146 93.5739 71.216 96.4525 69.2931 94.2429C68.7182 93.5739 69.0354 92.5097 69.8878 92.307C77.6288 90.3913 82.8324 88.0094 86.7772 80.0426C87.3818 78.8162 88.1053 78.7351 88.9379 79.8196C89.0073 79.9109 89.0866 80.0122 89.156 80.1034C90.0084 81.2082 90.1769 82.4043 89.6516 83.7017ZM105.798 70.1095C104.539 70.7177 104.232 70.3933 104.856 69.1263C105.599 67.5958 106.432 66.2376 107.354 65.0517C109.861 61.7779 110.109 56.7505 110.119 52.8381C110.119 52.3313 110.615 51.9867 111.071 52.1691L111.437 52.311C112.399 52.686 112.954 53.3854 113.112 54.4193C114.292 61.9299 111.854 67.16 105.798 70.1095Z" fill="black"/>
</g>
<defs>
<clipPath id="clip0_2029_343">
<rect width="120" height="100" fill="white" transform="translate(0.109985)"/>
</clipPath>
</defs>
</svg>
