<svg width="150" height="100" viewBox="0 0 150 100" fill="none" xmlns="http://www.w3.org/2000/svg">
<g clip-path="url(#clip0_2077_395)">
<path d="M147.044 64.0326C144.128 58.4584 139.657 54.2828 133.631 51.516C127.872 48.8718 121.518 48.2899 114.572 49.76C114.111 49.8519 113.835 49.6682 113.764 49.2087C113.559 48.004 113.794 46.2276 113.753 45.4109C112.556 19.2445 92.4227 -2.38902 65.0356 0.21435C49.0248 1.72532 35.142 13.1904 29.771 28.5451C27.7147 34.4257 27.2441 41.3374 27.3054 47.708C27.3054 48.1878 26.9474 48.5962 26.4665 48.6574C20.6044 49.3312 15.2334 51.3731 10.333 54.783C1.73935 60.7554 -1.82088 72.2817 0.890214 82.2052C3.7343 92.6391 11.2844 97.4681 21.4945 99.0301C25.8527 99.6937 30.1086 100.02 34.252 100C63.6647 99.8877 93.0775 99.8366 122.49 99.8468C129.846 99.8468 138.552 98.5809 143.8 93.4558C151.31 86.1051 151.494 72.5574 147.044 64.0326ZM135.667 62.44C135.575 62.5931 135.186 62.5012 134.798 62.2562C134.419 62.001 134.194 61.6743 134.286 61.5313C134.378 61.3782 134.767 61.4701 135.156 61.7151C135.534 61.9704 135.759 62.297 135.667 62.44ZM132.792 58.2133C132.925 58.0806 133.498 58.4175 134.051 58.979C134.603 59.5405 134.941 60.1123 134.798 60.245C134.665 60.3777 134.092 60.0408 133.539 59.4793C132.987 58.9178 132.649 58.3461 132.792 58.2133ZM124.68 53.6906C124.71 53.6191 124.751 53.5987 124.823 53.6192C127.186 54.3032 129.283 55.5895 131.115 57.4987C131.237 57.6314 131.237 57.7641 131.125 57.9071L130.92 58.1521C130.787 58.3052 130.654 58.3052 130.521 58.1521C128.895 56.2838 127.002 54.8238 124.833 53.7927C124.802 53.7723 124.761 53.7621 124.731 53.7621H124.69C124.69 53.7621 124.659 53.7519 124.669 53.7212C124.669 53.711 124.669 53.7008 124.68 53.6906ZM117.876 54.344L118.173 54.1398C118.306 54.0479 118.449 54.0377 118.592 54.1194C127.554 59.2445 135.401 65.5028 142.123 72.8841C142.399 73.2006 142.747 73.3945 143.156 73.4864C143.729 73.6192 144.026 73.9969 144.046 74.6299C144.056 75.4058 143.79 75.5181 143.248 74.9668C139.555 71.2608 135.954 68.0959 132.465 65.4517C127.687 61.8274 122.818 58.2644 117.876 54.7422C117.692 54.6095 117.692 54.4767 117.876 54.344ZM77.8238 6.61558C82.6321 7.35064 89.2001 12.2715 92.9036 15.3547C96.474 18.3256 99.2158 20.5921 101.231 24.0837C101.835 25.1148 101.702 25.2169 100.832 24.3899C99.666 23.2669 98.5815 21.9703 97.1493 21.0209C90.3664 16.5186 83.8905 11.8019 77.7113 6.87081C77.435 6.65641 77.4657 6.56453 77.8238 6.61558ZM64.4729 5.6559C69.2711 4.27765 75.8698 8.56555 79.563 11.4139C86.7346 16.9167 94.4075 22.5012 102.602 28.1674C103.82 29.0148 104.71 30.342 105.283 32.1694C105.436 32.6493 105.303 32.7514 104.894 32.4553C100.208 29.0454 94.1108 25.9111 89.8958 23.1648C85.732 20.4492 81.5886 17.7029 77.4657 14.9157C74.0078 12.5778 68.5754 9.5048 64.3502 6.25825C64.1251 6.08469 64.1967 5.73758 64.4729 5.6559ZM55.7565 7.8509C57.9561 7.37106 60.0227 7.70797 61.9562 8.86162C69.5575 13.3843 77.0463 18.0704 84.4327 22.93C90.4176 26.8504 96.5252 30.5564 102.5 34.4869C104.689 35.9264 106.439 37.9887 107.063 40.3062C107.41 41.5722 107.134 41.7253 106.224 40.7759C103.697 38.1112 100.74 35.8958 97.3539 34.1398C90.5199 30.587 83.7779 26.6258 78.3251 23.1648C73.4758 20.0816 68.4424 17.3762 64.1149 14.4665C61.2912 12.5676 58.4472 10.6789 55.5826 8.79015C55.1939 8.53492 55.3064 7.95299 55.7565 7.8509ZM49.5364 11.516C49.7512 11.1791 50.0479 10.9954 50.4367 10.9647C51.1016 10.9137 51.6643 11.0158 52.1145 11.2608C56.6466 13.7621 61.0048 15.8448 65.363 18.5911C68.5856 20.6227 72.2175 22.7463 76.2585 24.9719C81.6398 27.9428 88.1259 31.7611 95.7067 36.4471C99.5227 38.8055 102.827 41.7355 106.234 44.5635C106.776 45.0229 107.083 45.7274 107.144 46.6973C107.175 47.0648 107.011 47.1771 106.674 47.0342C105.702 46.6258 105.15 45.6253 104.433 45.0842C98.7145 40.684 93.0673 36.8759 87.4916 33.66C78.7854 28.637 69.844 24.5839 61.2913 19.0505C57.4957 16.5901 53.6286 14.2623 49.6694 12.0469C49.4852 11.9448 49.4238 11.6998 49.5364 11.516ZM46.9071 14.3134C46.989 14.2828 47.0708 14.2521 47.1527 14.2317C47.8688 14.0684 48.5133 14.1602 49.076 14.4971C55.8691 18.6421 62.5803 22.7054 69.2097 26.6768C71.7162 28.1878 74.949 29.2189 77.2918 30.5462C80.0847 32.1286 86.4174 35.8856 96.2899 41.807C99.1442 43.5222 102.213 46.3603 105.62 47.953C107.093 48.637 107.738 50.0663 107.318 51.5875C107.216 51.9448 107.022 52.0163 106.725 51.7815C101.814 47.9326 96.3001 44.492 90.1925 41.4599C86.929 39.8366 84.1156 37.7131 80.8725 36.1817C68.9948 30.5564 56.8307 23.6243 46.7537 15.3241C46.4058 15.0382 46.4877 14.4869 46.9071 14.3134ZM42.0988 18.7748C42.2113 18.3358 42.4773 18.0398 42.8968 17.8866C43.2241 17.7743 43.5311 17.805 43.8175 17.9989C54.0685 24.5635 64.5548 30.7095 75.2866 36.4369C86.9596 42.6646 95.4919 47.4221 104.71 53.7212C105.886 54.5278 106.715 55.8346 107.196 57.662C107.267 57.9071 107.39 58.1214 107.574 58.295C107.656 58.3767 107.738 58.4584 107.809 58.54C108.249 58.9892 108.219 59.0811 107.738 58.8157C107.636 58.7646 107.554 58.683 107.503 58.5809C107.451 58.4788 107.359 58.4073 107.257 58.3563C104.423 57.1924 102.193 55.0178 99.4511 53.6294C94.9599 51.3527 90.6222 48.9127 86.4277 46.2991C80.8725 42.8483 76.5961 40.3062 73.5986 38.6625C67.0408 35.0587 60.5853 31.3629 54.2526 27.565C50.2627 25.1761 46.3444 22.2664 42.3852 19.5712C42.0988 19.3772 42.0067 19.1117 42.0988 18.7748ZM21.4127 91.9857C21.3308 92.3124 21.1262 92.4451 20.7886 92.3838C18.4867 91.955 16.6043 91.0668 15.1413 89.7294C13.617 88.3205 11.929 87.0546 10.0772 85.9213C9.00302 85.268 7.47867 83.6753 5.49395 81.1332C5.19727 80.7554 5.27911 80.6431 5.72925 80.8065C6.1794 80.9698 6.53747 81.2761 6.80346 81.7355C6.85461 81.8274 6.92622 81.8989 7.00807 81.9704L15.2027 88.392C15.3766 88.5247 15.5813 88.6268 15.7961 88.6779C16.9624 88.9535 17.4125 89.7805 18.456 90.3216C19.387 90.8014 20.3896 91.2302 21.4433 91.6181C21.474 91.6385 21.4945 91.6692 21.4843 91.6998L21.4127 91.9857ZM32.9118 92.9351C32.8197 92.9658 32.7276 92.976 32.6151 92.976C32.523 92.9658 32.4207 92.9351 32.3184 92.8739C25.4946 88.9229 18.855 84.6758 12.3996 80.1327C10.6297 78.8871 8.08227 77.5293 6.45562 75.4875C5.79064 74.6503 5.92363 74.4971 6.84438 75.0382C14.3331 79.3772 21.6786 84.0428 28.8912 89.0148C30.1904 89.9132 31.5818 91.0464 33.0448 92.4043C33.321 92.6595 33.2698 92.833 32.9118 92.9351ZM42.7126 93.1393C41.1064 93.1904 39.6537 92.7514 38.3544 91.8019C32.0422 87.1873 25.3003 83.175 19.0596 78.3971C16.1439 76.1613 13.2385 74.0582 10.3637 72.0775C9.52478 71.4956 9.08487 71.1791 9.05418 71.1077C8.29712 69.4027 8.68588 69.076 10.2205 70.1276C14.6707 73.2006 19.0801 76.2021 23.4383 79.122C29.9961 83.5222 36.6766 87.6978 42.8456 92.7514C43.1423 92.9964 43.0911 93.1291 42.7126 93.1393ZM52.0122 93.7417C50.0479 93.2516 47.879 92.3022 45.5055 90.8933C41.2496 88.3614 37.3927 85.2782 33.3619 82.6748C29.8938 80.439 26.4154 78.1929 22.9472 75.9571C18.8448 73.3129 13.6886 69.2496 8.68588 66.3501C8.4915 66.2378 8.39942 65.9928 8.4915 65.7784C8.74726 65.1761 9.21786 65.0638 9.91354 65.4619C17.2693 69.6784 24.2567 73.9765 30.8554 78.3665C37.3007 82.6544 45.6385 87.2383 52.6158 92.4859C54.4879 93.8948 54.2936 94.3134 52.0122 93.7417ZM67.0203 93.7621C66.0689 93.9458 65.1891 93.8948 64.3809 93.6089C60.9127 92.3838 57.3116 91.3731 54.1197 89.3925C49.9149 86.7891 45.8636 83.7774 41.6793 81.368C32.2366 75.9469 22.8245 69.6886 13.4635 62.6135C12.7781 62.0929 12.3586 61.4701 12.1949 60.7452C12.1233 60.4185 12.2973 60.1429 12.7167 59.9183C12.9827 59.7754 13.3101 59.7958 13.5658 59.9693C28.5126 70.0663 44.4109 79.9285 61.281 89.5354C63.2555 90.6585 65.2812 91.2812 67.2556 92.6595C67.6956 92.9658 67.5523 93.66 67.0203 93.7621ZM78.7138 93.2618C78.6115 93.5477 78.3762 93.6702 77.9977 93.6191C75.5219 93.3129 73.619 93.1597 71.3479 91.8427C69.2608 90.6278 67.1227 89.5048 64.9333 88.4941C62.5598 87.4017 60.4114 86.3195 58.4881 85.2475C50.1093 80.5615 43.6334 76.6717 39.0808 73.5681C35.5205 71.1485 31.8785 68.8004 28.1443 66.5237C26.9883 65.8193 26.0062 65.125 25.1775 64.4308C22.4562 62.1439 18.9778 60.296 16.2565 58.3563C15.4687 57.7948 15.5506 57.6314 16.4815 57.8662C19.1619 58.5298 21.781 59.6631 24.3488 61.2557C30.8657 65.2986 37.4644 69.4946 44.1551 73.8438C46.5388 75.3854 49.1374 76.8963 51.9303 78.3767C54.846 79.9183 57.6799 81.3374 60.4319 82.6544C63.5624 84.1551 66.3451 85.6457 68.7698 87.1465C71.7468 88.9841 74.9695 90.781 78.4274 92.537C78.6934 92.6697 78.8161 92.9862 78.7138 93.2618ZM90.8984 93.7008C86.1003 92.8637 81.9774 91.5671 77.6703 88.9943C68.8925 83.7672 59.0712 78.9994 49.608 74.0071C46.2319 72.2205 43.2139 70.148 40.1038 68.0143C37.8326 66.4624 35.3569 64.0837 32.8401 62.2766C31.8785 61.5824 30.9577 60.7759 30.0881 59.857C28.1546 57.8254 25.7095 56.1817 22.7631 54.9464C22.5482 54.8545 22.4664 54.7013 22.5073 54.4767C22.5176 54.3848 22.5585 54.293 22.6301 54.2215C22.6915 54.15 22.7733 54.1194 22.8654 54.1194C25.3412 54.1602 27.3668 54.8136 28.9526 56.0898C36.4618 62.1337 43.4083 67.2486 52.0838 71.6181C64.0228 77.6416 76.4017 84.053 89.2308 90.8626C90.1618 91.3527 90.8779 92.0775 91.3792 93.0474C91.5532 93.3843 91.2667 93.7621 90.8984 93.7008ZM103.001 94.15C101.497 94.1398 99.9933 93.7621 98.5099 93.0066C95.8091 91.6385 92.924 90.148 89.8651 88.5451C77.5476 82.0827 65.4448 75.7529 53.5467 69.5558C46.6002 65.9418 39.9504 61.3476 33.5767 55.7733C31.4795 53.9356 31.6739 53.6294 34.1804 54.8647C37.8224 56.6615 41.1678 58.5911 44.2267 60.6636C46.5491 62.2358 49.1476 63.6447 52.0326 64.8902C55.8281 66.5441 59.8385 69.076 63.2351 70.7708C71.5627 74.9055 79.8085 79.2138 87.9725 83.6753C92.791 86.3093 96.8321 89.3619 101.569 92.0061C102.254 92.3838 102.837 92.8739 103.318 93.4762C103.687 93.9254 103.584 94.15 103.001 94.15ZM111.932 93.8029C109.528 92.9249 107.41 93.221 105.221 91.6385C98.0495 86.4624 90.3664 81.8172 82.182 77.7029C76.1357 74.6605 70.1304 71.4752 64.166 68.1368C56.2578 63.7161 48.3701 59.2751 40.4824 54.8238C39.4388 54.2317 37.6587 52.833 35.1523 50.6176C34.5077 50.0459 34.2008 49.1985 34.3133 48.3512L34.4054 47.6671C34.518 46.8504 34.8965 46.6973 35.541 47.2179C37.4746 48.7595 39.0194 49.8621 40.1652 50.5155C48.4519 55.2016 56.7284 59.9183 64.9845 64.6554C69.1688 67.0546 73.4042 69.3312 77.701 71.4956C82.0081 73.66 86.2128 76.0285 90.3255 78.6013C92.5046 79.9591 94.4382 81.6845 96.4331 82.93C100.75 85.6355 104.955 88.5043 109.037 91.5365C110.101 92.3226 111.585 92.4247 112.362 93.0474C113.805 94.1909 113.661 94.4461 111.932 93.8029ZM119.309 93.6294C118.521 93.8233 117.447 93.5069 116.086 92.6799C112.935 90.7606 109.856 88.7595 106.848 86.687C106.07 86.146 103.175 84.4308 98.1621 81.5518C94.2029 79.2649 90.8472 76.0592 87.0415 73.9867C82.6833 71.6181 78.3865 69.2904 74.1408 67.0035C71.2558 65.4517 68.4117 63.8284 65.6085 62.1439C56.0737 56.3961 44.1653 50.0969 35.7661 43.1853C34.8965 42.4706 34.5077 41.5722 34.5793 40.4798C34.61 40.1021 34.784 40.0102 35.1011 40.2041C44.9531 46.0439 54.9176 51.7611 64.9845 57.3455C69.0562 59.6018 73.527 62.5829 77.9466 65.0127C82.5605 67.5446 86.5913 70.4849 90.9802 73.221C94.0596 75.1403 96.3922 77.8968 99.5841 79.5916C106.592 83.2976 113.242 87.6467 119.534 92.6186C120.147 93.0985 120.076 93.4354 119.309 93.6294ZM131.023 91.7304C129.764 91.3833 128.762 90.8218 128.035 90.0459C125.406 87.269 122.593 84.88 119.585 82.879C111.84 77.7233 105.201 73.9152 99.666 71.4344C99.2158 71.2404 98.6634 70.9443 98.0086 70.5666C97.6301 70.342 97.4971 70.4441 97.6301 70.8626C98.0086 72.1388 98.868 73.1495 100.198 73.8846C105.139 76.6411 110.142 79.4487 114.541 82.8075C118.869 86.1051 123.155 89.4844 127.401 92.9249C127.892 93.3231 127.82 93.4762 127.196 93.3741C126.347 93.2414 125.58 92.9658 124.894 92.5472C121.743 90.6278 118.439 88.4839 114.991 86.1051C110.787 83.2057 106.213 80.245 101.272 77.2128C98.7043 75.6304 95.8397 73.66 92.6683 71.2812C87.6246 67.4936 81.9774 64.5125 76.8007 61.317C73.7418 59.4282 71.3683 58.0194 69.6598 57.0699C62.2222 52.9555 54.8153 48.7902 47.4289 44.5839C43.6027 42.4093 40.2368 39.8774 36.7584 37.3047C35.7865 36.5798 35.3364 35.6202 35.408 34.4053L35.4592 33.4762C35.5308 32.2715 36.0423 32.0469 36.9937 32.7922C47.9506 41.3884 59.9204 47.9734 72.8824 54.6503C77.6089 57.0903 81.5784 59.3159 84.7805 61.3476C88.6375 63.7876 92.4637 66.2685 96.249 68.78C96.5661 68.9841 96.7912 69.3415 97.0879 69.6375C97.2822 69.8315 97.5278 69.9336 97.804 69.9438C99.1954 69.9744 100.167 70.0867 100.72 70.2909C106.52 72.4247 111.994 75.2016 117.14 78.6217C119.349 80.0918 121.784 82.1031 124.455 84.6554C126.869 86.9729 129.15 89.1679 131.309 91.2404C131.861 91.7713 131.769 91.9346 131.023 91.7304ZM135.197 91.3833C133.611 90.8218 132.189 89.8826 131.002 88.5043C128.444 85.5538 126.04 82.5625 122.961 80.2348C116.894 75.6508 110.316 71.9244 103.226 69.0556C101.037 68.1674 99.1135 67.2179 97.4562 66.1868C86.8471 59.5712 78.5092 54.6503 72.4425 51.4139C58.3244 43.8897 50.0172 39.1832 47.5107 37.3149C44.6359 35.1608 41.6896 32.9147 38.6716 30.5564C38.4362 30.3726 37.935 30.148 37.1677 29.8928C36.8403 29.7805 36.6561 29.5456 36.6254 29.2087C36.5129 28.0347 36.8403 27.0444 37.5973 26.2378C37.8326 25.9826 38.0475 26.003 38.2316 26.2991C39.2445 27.9019 40.5437 29.1985 42.109 30.1888C48.6259 34.3032 55.2859 38.1419 62.1097 41.6947C64.3604 42.8688 66.7646 44.2164 69.3324 45.7478C74.1408 48.6166 79.4095 51.1791 83.87 54.0275C87.0313 56.0592 90.0902 58.1112 93.3844 59.9387C99.4818 63.3282 105.549 66.7687 111.585 70.2501C115.216 72.343 117.979 74.1092 119.881 75.5589C123.585 78.3869 126.04 80.5104 127.237 81.9295C128.148 83.0015 129.201 84.3185 130.398 85.8601C131.902 87.8203 134.02 88.9127 135.698 90.6074C136.67 91.5875 136.496 91.8427 135.197 91.3833ZM139.187 88.7902C139.084 89.0352 138.757 89.0658 138.593 88.8616C137.846 87.9019 136.915 87.3813 135.8 87.3098C135.483 87.2894 135.176 87.1771 134.92 86.9831C131.534 84.4818 129.897 81.0719 126.787 78.3563C124.485 76.3348 122.02 74.2113 119.401 71.9755C117.283 70.1684 113.313 67.7488 107.472 64.7167C103.39 62.5931 99.3181 60.3369 95.2464 57.9581C79.5016 48.7595 64.4218 40.0816 49.9967 31.9448C45.4851 29.3925 42.7945 27.2792 40.2266 23.2363C39.5718 22.2052 39.7048 21.5722 40.6358 21.3476C40.8916 21.2863 41.1678 21.3374 41.3929 21.4905C45.4544 24.4818 49.1067 27.4119 53.3421 29.8315C73.2303 41.2047 93.0877 53.0066 112.925 65.2271C119.114 69.0352 124.495 73.3537 129.068 78.1623C130.214 79.367 131.176 80.6534 131.964 82.0214C133.283 84.3185 135.524 86.1868 138.695 87.6365C139.248 87.8917 139.412 88.2695 139.187 88.7902ZM140.404 86.3297C139.473 85.8499 138.849 85.2782 137.836 84.8494C135.677 83.9407 134.01 82.6544 132.854 80.98C132.015 79.7651 132.148 79.6426 133.263 80.6227C134.296 81.5211 135.514 82.5114 136.936 83.5936C138.01 84.4206 139.718 84.6656 140.629 86.0949C140.854 86.4522 140.782 86.5237 140.404 86.3297ZM141.519 83.5017C140.24 82.6033 138.89 81.7253 137.468 80.8575C135.974 79.9489 134.235 78.0398 132.301 77.5702C131.534 77.3864 130.849 76.9678 130.327 76.3655C125.212 70.4951 118.572 65.4313 112.331 60.5513C111.769 60.1123 111.82 59.7651 112.485 59.4997L112.884 59.3364C113.467 59.1015 113.989 59.2036 114.439 59.6426C117.815 62.93 121.887 65.564 125.283 68.8004C126.777 70.2195 128.363 71.4956 130.03 72.6084C130.992 73.2414 131.861 74.0071 132.629 74.8647C135.145 77.6824 138.01 80.0204 141.222 81.8683C141.713 82.1541 142.031 82.5421 142.174 83.0423C142.389 83.808 142.164 83.9612 141.519 83.5017ZM143.739 80.5819C140.936 78.2133 138.102 75.906 135.248 73.6498C132.353 71.3629 129.56 69.0352 126.848 66.6666C123.196 63.4915 119.206 60.5615 114.869 57.8866C114.582 57.7029 114.5 57.3251 114.684 57.0495L114.858 56.7942C115.155 56.3552 115.523 56.2838 115.963 56.5798C120.25 59.5099 124.526 62.5421 128.772 65.6763C130.378 66.8606 131.043 68.2184 132.424 69.4742C135.33 72.1388 138.399 74.7728 141.621 77.3864C142.716 78.2746 143.545 79.2445 144.097 80.296C144.476 81.0005 144.353 81.1026 143.739 80.5819Z" fill="black"/>
</g>
<defs>
<clipPath id="clip0_2077_395">
<rect width="150" height="100" fill="white"/>
</clipPath>
</defs>
</svg>
