<svg width="165" height="140" viewBox="0 0 165 140" fill="none" xmlns="http://www.w3.org/2000/svg">
<g clip-path="url(#clip0_2105_885)">
<path d="M93.3807 20.0781C93.1534 20.9303 92.7936 21.7345 92.3011 22.4813C92.1212 22.7494 91.8845 22.8931 91.572 22.9218C90.1231 23.0462 88.8731 22.625 87.803 21.6675C87.5663 21.4569 87.4432 21.1888 87.4527 20.8632C87.5474 14.9365 87.9356 9.21093 88.6269 3.70552C88.9678 1.04378 90.464 -0.18177 93.1061 0.0192972C93.3902 0.0480211 93.6742 0.0671703 93.9583 0.0863195C96.6004 0.287386 97.6515 1.70443 97.1023 4.32787C95.9375 9.85243 94.697 15.1089 93.3807 20.0781Z" fill="black"/>
<path d="M55.0758 26.2823C52.3485 20.7195 49.6023 15.1279 47.0549 9.4406C45.928 6.94162 46.6099 5.13202 49.0909 4.01179C49.2235 3.94477 49.3561 3.88732 49.4886 3.82988C51.9792 2.70007 53.6743 3.43732 54.5644 6.05119C56.4868 11.6906 58.2576 16.8705 59.8769 21.5812C60.5587 23.5823 61.9697 27.1728 59.1667 28.3505C57.358 29.1164 55.8523 27.8717 55.0758 26.2823Z" fill="black"/>
<path d="M72.0075 24.0417L71.695 18.9576C71.6287 17.8852 72.4242 16.9661 73.4848 16.8799L75.3503 16.7363C76.4962 16.6405 77.4621 17.5693 77.4431 18.7278L77.3484 24.0513C77.3295 25.1715 76.3825 26.0524 75.2746 25.9758L73.8162 25.88C72.8409 25.813 72.0643 25.0279 72.0075 24.0417Z" fill="black"/>
<path d="M135.53 19.4749C135.53 19.4749 135.616 19.5419 135.663 19.5802C137.812 21.1983 137.955 22.9792 136.07 24.9228C132.557 28.5516 129.403 31.5867 126.591 34.0283C125.473 34.9953 124.091 35.0527 122.434 34.191C120.095 32.9751 119.64 31.3187 121.08 29.2218C123.248 26.0622 126.004 22.9217 129.347 19.8004C131.316 17.9621 133.381 17.8567 135.53 19.4749Z" fill="black"/>
<path d="M105.663 24.5491L107.652 21.2938C108.191 20.4033 109.299 20.0586 110.246 20.4799L111.496 21.0448C112.405 21.4565 112.898 22.4619 112.661 23.4385L111.96 26.3875C111.724 27.3928 110.777 28.0726 109.754 27.9673L107.216 27.7183C105.691 27.5651 104.858 25.8609 105.663 24.5491Z" fill="black"/>
<path d="M42.5283 38.3559L38.0018 33.4824C37.1684 32.5824 37.2537 31.175 38.1817 30.3898L40.5775 28.3409C41.6097 27.4696 43.1817 27.776 43.8067 28.9728L46.695 34.4974C47.0264 35.1293 47.0169 35.8952 46.676 36.5176L45.9184 37.9251C45.2272 39.1985 43.5037 39.4187 42.5283 38.3559Z" fill="black"/>
<path d="M99.1194 40.4623C98.8826 40.9314 98.0209 40.9697 97.2065 40.5293C96.3921 40.0985 95.9186 39.3708 96.1648 38.9016C96.4016 38.4325 97.2633 38.3942 98.0777 38.8346C98.8921 39.2655 99.3656 39.9931 99.1194 40.4623Z" fill="black"/>
<path d="M31.1742 49.7786C30.2461 50.803 28.6836 50.8701 27.6799 49.9318L23.9393 46.4657C22.9261 45.537 22.8598 43.9572 23.7878 42.9327L24.9147 41.688C25.8427 40.6635 27.4052 40.5965 28.409 41.5348L32.1496 45.0008C33.1628 45.9296 33.2291 47.5094 32.3011 48.5339L31.1742 49.7786Z" fill="black"/>
<path d="M141.865 42.559C143.314 41.86 144.621 42.0707 145.767 43.21C146.013 43.4494 146.203 43.7462 146.335 44.0813C146.913 45.5654 146.553 46.7431 145.246 47.6335C142.888 49.2325 140.17 50.7261 137.386 49.8931C135.265 49.2516 135.028 46.4941 136.79 45.326C137.945 44.5696 139.64 43.6409 141.865 42.559Z" fill="black"/>
<path d="M114.015 48.5624C112.746 47.2986 109.886 46.6858 109.593 49.2805C109.564 49.5007 109.375 49.6731 109.157 49.6635H108.779C108.343 49.6348 108.04 49.2326 108.135 48.8018C108.409 47.5858 108.996 46.4464 109.896 45.3836C110.152 45.0868 110.455 45.0198 110.805 45.1921L114.527 46.9635C114.924 47.1549 115.095 47.6337 114.915 48.0358L114.735 48.4284C114.602 48.7156 114.233 48.7826 114.015 48.5624Z" fill="black"/>
<path d="M14.6308 61.3254C11.3448 60.0328 7.82205 58.3285 4.06258 56.2125C1.57205 54.8242 1.29743 53.0146 2.80311 50.6497C4.27091 48.3518 6.20273 47.8348 8.59856 49.089C14.4792 52.1721 18.8637 55.0636 21.733 57.7732C21.9698 57.9934 22.055 58.2711 21.9887 58.5871C21.8088 59.4871 21.3542 60.4445 20.6156 61.4499C19.9433 62.3595 19.1667 62.7041 18.2766 62.4839C17.0361 62.1871 15.8145 61.7946 14.6308 61.3254Z" fill="black"/>
<path d="M116.922 50.7744C116.288 50.5446 115.606 50.5159 114.896 50.6787C114.583 50.7457 114.394 50.9372 114.328 51.2436C113.977 52.7085 113.021 53.2064 111.449 52.7372C110.881 52.5744 110.833 52.3064 111.307 51.9521C111.525 51.7893 111.771 51.6936 112.045 51.6744C112.424 51.6457 112.775 51.4734 113.04 51.2053C113.93 50.2765 114.99 49.7404 116.212 49.5872C116.506 49.5489 116.752 49.6255 116.97 49.8265L119.081 51.7032C119.536 52.1149 119.489 52.8521 118.977 53.1872C117.869 53.9245 116.752 54.3266 115.644 54.3936C115.114 54.4223 114.858 54.1734 114.867 53.6372V53.3308C114.886 52.7947 115.161 52.5649 115.682 52.6415C116.487 52.7564 117.017 52.3734 117.282 51.5021C117.386 51.1478 117.273 50.8989 116.922 50.7744Z" fill="black"/>
<path d="M119.924 56.4039C119.725 56.2316 119.318 56.2699 118.703 56.5092C118.428 56.6145 118.116 56.8539 117.784 57.2177C116.922 58.1656 115.767 58.5295 114.318 58.3092C113.523 58.1848 113.239 57.7348 113.466 56.9496C113.494 56.8635 113.513 56.7869 113.542 56.7007C113.769 55.906 114.271 55.6379 115.038 55.8964C116.723 56.4422 118.475 56.0113 120.284 54.6039C120.559 54.3932 120.805 54.4124 121.032 54.6709C121.155 54.8145 121.193 55.006 121.146 55.2454C121.08 55.5709 121.165 55.8486 121.411 56.0784L121.903 56.5379C122.14 56.7582 122.169 56.9975 122.008 57.2752L120.483 59.7454C120.341 59.9848 120.123 60.1476 119.848 60.2146C118.892 60.4731 118.371 61.1912 118.305 62.3689C118.295 62.6848 118.134 62.8859 117.831 62.9625C116.619 63.288 115.691 62.9434 115.047 61.9189C114.867 61.6412 114.934 61.4401 115.237 61.3157C116.657 60.7316 118.03 60.1763 119.366 59.6497C120.701 59.1135 121.004 57.3518 119.924 56.4039Z" fill="black"/>
<path d="M30.3503 64.2933C30.6439 62.4071 31.4393 60.473 32.2159 58.7209C32.4905 58.1177 33.2386 57.9166 33.7689 58.3092L35.6534 59.6975C36.4109 60.2528 36.5909 61.3252 36.0606 62.1103C34.9621 63.738 33.7026 65.9689 31.3446 65.6433C30.6912 65.5476 30.2462 64.9444 30.3503 64.2933Z" fill="black"/>
<path d="M120.805 61.0001C120.672 60.7703 120.758 60.4735 120.985 60.349L123.248 59.0947C124.337 58.4915 125.474 58.4628 125.777 59.0181L125.9 59.2575C126.203 59.8128 125.568 60.7607 124.479 61.3639L122.216 62.6182C121.989 62.7427 121.695 62.6565 121.572 62.4267L120.805 61.0001Z" fill="black"/>
<path d="M156.411 58.5869C158.201 58.5677 159.943 58.8454 161.638 59.4199C163.021 59.8986 163.674 61.0667 163.598 62.9337C163.523 64.8487 163.276 65.921 161.004 66.237C156.553 66.8498 152.093 67.2902 147.614 67.5679C145.928 67.6732 144.65 67.4242 143.769 66.8115C142.434 65.8731 141.856 64.504 142.026 62.7135C142.112 61.8327 142.708 61.0858 143.542 60.7986C147.708 59.3816 151.998 58.6443 156.411 58.5869Z" fill="black"/>
<path d="M112.841 63.9776C113.049 64.4564 113.097 64.9447 112.973 65.4521C112.888 65.816 112.727 65.8543 112.491 65.567L111.184 63.9872C110.947 63.7096 111.089 63.2691 111.439 63.183C112.074 63.0298 112.547 63.2978 112.841 63.9776Z" fill="black"/>
<path d="M118.22 66.084C119.063 65.318 120.01 64.6861 121.061 64.1978C121.354 64.0542 121.582 64.1404 121.733 64.4372C121.979 64.9446 121.951 65.4138 121.648 65.8351C121.449 66.0936 121.193 66.2468 120.881 66.2851C119.47 66.467 118.182 66.9649 117.036 67.7596C116.553 68.0947 116.155 68.2383 115.824 68.1904C115.436 68.133 115.133 67.9319 114.924 67.5968C114.744 67.3 114.83 67.1276 115.18 67.0989C115.758 67.051 116.307 66.9744 116.837 66.8691C117.292 66.7638 117.756 66.5053 118.22 66.084Z" fill="black"/>
<path d="M32.8882 83.2896C32.8125 84.5056 31.7708 85.4343 30.5681 85.3577L29.678 85.3002C28.4753 85.2236 27.5568 84.1704 27.6325 82.9545L28.0019 77.0852C28.0776 75.8693 29.1193 74.9405 30.3219 75.0171L31.2121 75.0746C32.4147 75.1512 33.3333 76.2044 33.2575 77.4203L32.8882 83.2896Z" fill="black"/>
<path d="M128.617 86.9375C129.403 87.0524 130.085 86.8513 130.672 86.3439C130.985 86.0758 131.411 85.9896 131.79 86.1141L132.102 86.2098C132.32 86.2864 132.396 86.5641 132.244 86.7364C130.758 88.4216 129.479 88.6226 128.39 87.3396C128.191 87.1003 127.945 87.0045 127.642 87.0428C127.396 87.0715 127.15 87.0715 126.903 87.0428C126.648 87.0141 126.449 86.8992 126.316 86.6981C126.193 86.5354 126.127 86.363 126.108 86.1907C126.061 85.8556 126.184 85.6066 126.477 85.4438L128.466 84.3236C128.778 84.1513 129.1 84.0555 129.451 84.046C129.896 84.046 130.265 83.8545 130.568 83.5098C130.748 83.3087 131.023 83.2417 131.269 83.3374C131.761 83.5289 132.102 83.8736 132.282 84.3811C132.5 84.9651 132.33 85.1087 131.78 84.8119C130.398 84.0651 128.93 84.6779 128.163 85.9992C127.841 86.5449 127.992 86.8609 128.617 86.9471V86.9375Z" fill="black"/>
<path d="M2.20638 87.5885C6.16471 85.6927 11.1647 84.448 17.2159 83.8448C18.2575 83.7395 18.9867 84.18 19.4034 85.1566C19.8295 86.1619 20.1609 87.1768 20.3977 88.1821C20.7765 89.8481 20.142 90.8822 18.4943 91.2747L4.78214 94.6067C2.6704 95.1142 1.14578 94.3769 0.227215 92.3854C0.0851695 92.0694 0.00941193 91.763 -5.77676e-05 91.4471C-0.0474063 89.5992 0.69123 88.3162 2.20638 87.5885Z" fill="black"/>
<path d="M107.519 112.224L107.604 108.595C107.614 108.27 107.775 108.107 108.097 108.116C108.958 108.126 109.479 107.686 109.659 106.814C109.716 106.508 109.877 106.288 110.152 106.144L112.131 105.072C112.538 104.851 112.803 104.449 112.85 103.99L112.917 103.367C112.964 102.917 112.443 102.63 112.102 102.917C110.985 103.846 109.678 105.34 108.267 105.617C107.926 105.684 107.879 105.598 108.125 105.359C108.835 104.679 109.564 103.98 110.332 103.272C110.994 102.649 111.705 102.238 112.453 102.017C113.125 101.816 113.807 101.673 114.498 101.577C114.801 101.529 115.057 101.395 115.265 101.175L117.538 98.6854C118.011 98.1684 118.797 98.1109 119.337 98.5609C119.792 98.9343 120.322 99.2312 120.919 99.4514C121.222 99.5663 121.468 99.8152 121.591 100.122C121.904 100.964 121.998 101.855 121.875 102.802C121.837 103.109 121.534 103.31 121.241 103.224L119.792 102.802C119.602 102.745 119.489 102.563 119.517 102.372L119.782 100.236C119.83 99.9014 119.716 99.6429 119.441 99.4514C119.243 99.3078 119.015 99.2407 118.76 99.2503C118.438 99.2599 118.144 99.4514 118.002 99.7386L116.724 102.295C116.582 102.573 116.364 102.726 116.061 102.764L115.029 102.898C114.716 102.937 114.489 103.09 114.337 103.358L112.197 107.14C112.036 107.427 111.809 107.657 111.534 107.829L110.18 108.643C109.905 108.806 109.725 109.045 109.64 109.361C109.309 110.567 108.608 111.525 107.519 112.224Z" fill="black"/>
<path d="M85.2178 78.9141C86.3542 78.5024 86.8371 77.679 86.6762 76.4343C86.6288 76.1183 86.714 75.8311 86.9224 75.5917C87.2159 75.2566 87.5758 75.1417 88.0019 75.2566C88.3239 75.3428 88.3996 75.5343 88.2387 75.8311C87.8315 76.5683 87.5568 77.3343 87.4337 78.1386C87.3201 78.8662 86.6856 79.4024 85.9565 79.3737C84.8296 79.3258 83.7311 79.0865 82.661 78.6556C82.2538 78.4928 82.197 78.2439 82.4811 77.9088C83.0208 77.2864 83.0208 76.6928 82.4811 76.1471C82.2254 75.879 82.2727 75.697 82.6326 75.6013C83.2292 75.4385 83.8068 75.3811 84.3466 75.429C84.7538 75.4673 84.8201 75.63 84.5265 75.9268C83.589 76.8843 83.5512 77.813 84.4129 78.7226C84.6402 78.962 84.9053 79.029 85.2178 78.9141Z" fill="black"/>
<path d="M79.3465 77.918C79.034 77.6883 79.1761 76.951 79.6685 76.2616C80.1609 75.5818 80.8143 75.218 81.1268 75.4382C81.4393 75.668 81.2973 76.4053 80.8049 77.0946C80.3125 77.7744 79.659 78.1383 79.3465 77.918Z" fill="black"/>
<path d="M92.6894 78.4256C92.7841 78.1288 92.822 77.832 92.7936 77.516C92.7462 77.0086 92.8693 76.5586 93.1724 76.1564C93.4091 75.8405 93.6743 75.582 93.9678 75.3809C94.1761 75.2373 94.4602 75.3905 94.4602 75.649C94.4792 77.2671 94.072 78.7607 93.2481 80.1203C93.0871 80.3884 92.8504 80.5225 92.5379 80.5225H90.3504C90 80.5416 89.8674 80.3693 89.9337 80.0246L90.2083 78.6937C90.2746 78.3777 90.4167 78.3299 90.6439 78.5597C91.0511 78.9618 91.5152 79.115 92.036 79.0097C92.3674 78.9426 92.5852 78.7512 92.6894 78.4256Z" fill="black"/>
<path d="M90.5966 75.9268C90.6061 75.7832 90.6818 75.6492 90.7955 75.563C90.8618 75.5151 90.9281 75.4864 91.0133 75.496C91.2121 75.5151 91.3258 75.6204 91.3731 75.8119C91.4678 76.2045 91.4299 76.5013 91.269 76.7215C90.8239 77.296 90.5871 77.2194 90.5398 76.4917C90.5398 76.4822 90.5587 76.2907 90.5966 75.9268Z" fill="black"/>
<path d="M75.5682 78.301C75.18 79.1149 74.5834 79.7659 73.7879 80.2351C73.5512 80.3787 73.3334 80.3404 73.1535 80.1202L72.8504 79.7755C72.6326 79.517 72.6516 79.2872 72.8883 79.067C74.0625 77.9946 75.4451 77.0946 77.0266 76.3765C77.5095 76.1563 77.5853 76.2521 77.2728 76.6829C77.0171 77.018 76.6951 77.2957 76.3069 77.5159C75.9849 77.6978 75.7292 77.9659 75.5682 78.301Z" fill="black"/>
<path d="M97.055 77.9181C96.8561 77.65 96.7141 77.3436 96.6289 76.9894C96.5436 76.5872 96.6667 76.4915 97.0171 76.7117C97.9736 77.3149 99.072 77.8032 100.322 78.1671C100.975 78.349 101.212 79.1628 100.767 79.6703L98.9868 81.748C98.7595 82.0065 98.4944 82.0543 98.2008 81.8724C97.7368 81.5948 97.2444 81.4511 96.7236 81.432C96.4111 81.432 96.2122 81.2597 96.1459 80.9437C95.8997 79.9096 96.1648 79.1245 96.9508 78.5788C97.2065 78.3968 97.2444 78.1766 97.055 77.9181Z" fill="black"/>
<path d="M104.924 84.3237C103.911 84.0077 103.002 84.0939 102.216 84.5822C100.909 85.3961 100.474 85.0514 100.909 83.5673C101.193 82.5811 101.761 81.6237 102.623 80.6949C102.822 80.4747 103.163 80.513 103.315 80.7619C103.684 81.3747 104.082 82.0258 104.508 82.7152C104.593 82.8588 105.123 83.4045 106.08 84.3716C106.695 84.9939 106.951 85.7599 106.847 86.6886C106.648 88.4982 104.65 89.5419 103.343 90.6429C103.068 90.8823 102.879 90.8249 102.794 90.461L102.51 89.2546C102.424 88.9004 102.529 88.6036 102.813 88.3833C103.902 87.512 104.744 86.478 105.341 85.2907C105.53 84.9078 105.332 84.4386 104.924 84.3237Z" fill="black"/>
<path d="M95.4262 84.0267C95.2368 84.9842 94.8107 85.798 94.1478 86.4682C93.7785 86.8416 93.5133 86.7746 93.3713 86.2672C93.0872 85.281 93.0872 84.5342 93.3713 84.0459C93.8163 83.299 94.3467 83.0309 94.9622 83.232C95.341 83.3565 95.4925 83.6246 95.4167 84.0267H95.4262Z" fill="black"/>
<path d="M95.8996 84.7543L95.9943 83.682C96.0227 83.4522 96.1363 83.2894 96.3447 83.1937C96.4867 83.1266 96.5814 83.1075 96.6288 83.1171C97.4716 83.3756 97.6704 84.4862 96.9697 85.0224C96.7613 85.1852 96.5246 85.2426 96.2689 85.2139C96.0038 85.1852 95.8807 85.032 95.8996 84.7543Z" fill="black"/>
<path d="M87.964 85.7885C87.5094 85.4534 87.3674 85.0896 87.5473 84.6875C87.8409 84.0364 88.731 83.9598 89.1193 84.563C89.4981 85.147 89.6212 85.8173 89.4981 86.5737C89.4318 86.9375 89.2424 87.0237 88.9204 86.8417C88.6837 86.7077 88.4943 86.5066 88.3522 86.2385C88.2575 86.0566 88.125 85.913 87.964 85.7885Z" fill="black"/>
<path d="M62.3295 87.5311C61.7708 86.9949 61.8182 86.047 62.4242 85.4055C63.0303 84.7736 63.9678 84.697 64.517 85.2427C65.0758 85.7789 65.0284 86.7268 64.4223 87.3683C63.8163 88.0002 62.8788 88.0768 62.3295 87.5311Z" fill="black"/>
<path d="M100.492 86.7939C100.265 87.4832 99.8295 87.9332 99.1761 88.1535C98.8163 88.2779 98.5795 88.1535 98.4659 87.7896L97.9072 86.0471C97.7273 85.5013 98.1061 84.9364 98.6742 84.8885C99.1856 84.8502 99.6496 85.0226 100.076 85.4055C100.521 85.8173 100.663 86.2768 100.492 86.7939Z" fill="black"/>
<path d="M96.6666 89.8289C95.2651 89.3406 94.1856 91.2364 93.9394 92.2705C93.8352 92.6918 93.6742 92.7205 93.4564 92.3471C93.1723 91.8779 93.0492 91.38 93.0966 90.8534C93.125 90.5183 93.2765 90.279 93.5606 90.1162C94.5928 89.5321 95.7007 89.2066 96.8655 89.1491C97.2159 89.13 97.3106 89.2736 97.1496 89.5896C97.1022 89.6758 97.036 89.7428 96.9507 89.7906C96.8655 89.8481 96.7708 89.8577 96.6666 89.8289Z" fill="black"/>
<path d="M101.761 96.7228V94.8079C101.78 94.444 101.951 94.1951 102.292 94.0706C103.845 93.4866 105.369 92.127 106.856 89.9918C107.197 89.5035 107.623 89.3982 108.144 89.6854L108.428 89.8482C108.684 89.9823 108.769 90.3078 108.636 90.5663C107.794 92.1844 106.515 93.6015 104.82 94.8079C102.936 96.1579 101.487 97.8813 100.483 99.9782C100.218 100.524 99.4981 100.648 99.072 100.208C98.8447 99.9782 98.7595 99.7005 98.8068 99.3845C98.8542 99.0877 99.0057 98.8579 99.2708 98.7047L101.25 97.5941C101.581 97.4026 101.752 97.1153 101.761 96.7228Z" fill="black"/>
<path d="M98.7688 92.7207L98.4847 92.1558C98.2669 91.7345 98.3711 91.4377 98.8067 91.2558C99.4601 90.9781 100.009 90.5568 100.435 89.9919C100.776 89.5419 101.477 89.6281 101.695 90.1547L101.865 90.5664C102.074 91.0643 101.894 91.6388 101.449 91.9356C99.9241 92.9409 98.9866 94.3963 98.6173 96.3208C98.5889 96.4835 98.4658 96.6176 98.3048 96.6654L97.5946 96.8665C97.2821 96.9527 97.1874 96.8474 97.3105 96.5505C97.7082 95.5069 98.1817 94.5399 98.7404 93.6303C98.9203 93.3335 98.9298 93.0271 98.7688 92.7207Z" fill="black"/>
<path d="M57.4621 96.0044C57.3958 96.1098 57.3011 96.1864 57.1875 96.2247C56.3826 96.4736 56.1363 96.1481 56.4678 95.2385C57.0076 93.7831 57.339 92.2703 57.4621 90.7097C57.5 90.2597 58.0208 90.049 58.3523 90.3458L59.4413 91.3225C59.8106 91.6576 59.8674 92.031 59.6117 92.4618L57.4621 96.0044Z" fill="black"/>
<path d="M96.25 104.028C95.9849 104.181 95.3315 103.559 94.7917 102.63C94.2519 101.702 94.0341 100.821 94.2993 100.658C94.5644 100.505 95.2178 101.127 95.7576 102.056C96.2974 102.985 96.5152 103.865 96.25 104.028Z" fill="black"/>
<path d="M129.072 105.129C128.135 106.211 128.125 107.944 126.761 108.557C126.449 108.691 126.316 108.586 126.383 108.251C126.648 106.748 127.064 105.292 127.642 103.894C127.841 103.425 128.144 103.329 128.561 103.617L128.92 103.866C129.337 104.153 129.403 104.746 129.072 105.129Z" fill="black"/>
<path d="M29.3749 105.12C28.731 105.282 28.0587 105.282 27.3674 105.12C27.1117 105.062 26.9412 104.823 26.9696 104.564C26.9696 104.469 27.0075 104.382 27.0549 104.315C27.1212 104.22 27.2064 104.172 27.32 104.172L30.303 104.143C30.5965 104.143 30.767 104.287 30.8143 104.584C30.9185 105.235 30.7765 105.819 30.4071 106.336C30.1325 106.728 29.9431 106.69 29.8484 106.211C29.82 106.029 29.8295 105.838 29.8768 105.637C29.9621 105.33 29.678 105.043 29.3749 105.12Z" fill="black"/>
<path d="M25.9469 106.632C25.6344 106.45 25.4071 106.297 25.2556 106.154C24.9147 105.847 25.0094 105.282 25.426 105.11C25.6723 105.014 25.9185 104.976 26.1552 104.995C26.4582 105.024 26.695 105.167 26.856 105.435L27.8408 107.092C28.0207 107.408 27.945 107.504 27.6041 107.389C27.0169 107.197 26.4677 106.948 25.9469 106.632Z" fill="black"/>
<path d="M25.5871 108.854L26.2026 108.518C26.6098 108.298 26.7519 108.413 26.6288 108.863C26.4583 109.447 26.1079 109.773 25.5681 109.84C25.2935 109.868 25.0284 109.792 24.82 109.61C23.8825 108.767 23.6363 108.021 24.1003 107.379C24.3181 107.082 24.5549 107.063 24.8106 107.322C25.1231 107.638 25.2367 108.059 25.1704 108.566C25.1231 108.94 25.2556 109.035 25.5871 108.854Z" fill="black"/>
<path d="M21.5814 114.627C21.4489 114.828 21.1932 114.886 20.9943 114.761L20.9659 114.742C20.767 114.618 20.7102 114.349 20.8333 114.148L23.4659 109.897C23.5985 109.696 23.8542 109.639 24.053 109.763L24.0814 109.782C24.2803 109.907 24.3371 110.175 24.214 110.376L21.5814 114.627Z" fill="black"/>
<path d="M131.638 110.146C131.828 110.089 132.027 110.146 132.159 110.3C132.254 110.405 132.311 110.529 132.33 110.683C132.358 111.008 132.216 111.2 131.903 111.247C131.581 111.305 131.259 111.305 130.947 111.247C130.559 111.18 130.492 110.999 130.729 110.683C130.909 110.443 131.212 110.271 131.638 110.146Z" fill="black"/>
<path d="M153.201 96.8663C150.36 95.5642 147.746 95.1142 145.369 95.5067C143.684 95.7844 142.339 95.928 141.345 95.928C141.023 95.928 140.852 95.7653 140.833 95.4397C140.322 86.5162 139.801 80.532 139.261 77.4873C136.392 61.2009 128.617 48.7539 115.919 40.1272C110.644 36.5463 104.877 34.0664 98.6175 32.6877C89.9716 30.7823 81.1648 30.7728 72.2159 32.659C69.7538 33.176 66.3447 34.4973 61.9887 36.6229C61.7046 36.7665 61.411 36.8239 61.0985 36.7952C57.2159 36.4792 53.4849 38.9303 50.947 41.6208C50.3883 42.2144 50.6629 43.191 51.4489 43.3921C53.5417 43.9187 56.6383 41.8889 58.4659 40.9027C60.0663 40.041 61.572 39.4091 62.9641 38.9974C69.2046 37.1686 73.8826 36.2207 76.9981 36.1729C81.5341 36.0963 86.3542 36.1633 91.4584 36.3643C92.9735 36.4218 94.2235 36.9197 95.7103 37.1878C96.875 37.3984 97.9167 37.6856 98.8258 38.0495C101.07 38.9495 103.352 39.7155 105.672 40.357C105.777 40.3857 105.824 40.4527 105.795 40.558L105.739 40.807C105.672 41.0751 105.502 41.1804 105.237 41.1229C103.769 40.8261 102.623 41.2665 101.79 42.4538C101.25 43.2293 101.439 43.7559 102.358 44.0528C102.718 44.1677 103.116 44.0911 103.409 43.8613C103.987 43.3921 104.64 43.1432 105.35 43.0953C105.691 43.0761 106.004 42.8942 106.203 42.607L106.686 41.8985C106.903 41.5825 107.159 41.5442 107.453 41.7836C107.708 41.9846 107.926 42.2336 108.106 42.5208C108.267 42.7793 108.504 42.9517 108.807 43.0187C109.754 43.2293 110.634 43.5932 111.439 44.1006C114.64 46.1305 117.652 48.7252 120.464 51.8944C120.691 52.1529 120.672 52.3923 120.407 52.6125L120.208 52.7657C119.896 53.0242 119.849 53.321 120.076 53.6657C120.388 54.154 120.814 54.2976 121.354 54.0965C121.667 53.9912 121.922 54.0582 122.14 54.2976L125.71 58.3285C125.928 58.5774 126.061 58.8647 126.127 59.1807C126.269 59.937 126.657 60.7222 127.282 61.5456C127.5 61.8328 127.547 62.1392 127.424 62.4552C127.301 62.752 127.093 62.8477 126.79 62.7233C125.994 62.4073 125.331 62.6562 124.811 63.4509C124.233 64.3222 123.741 65.2222 123.324 66.151C123.172 66.5052 122.86 66.7637 122.491 66.8595L121.97 67.0031C121.638 67.0893 121.392 67.3765 121.345 67.7212C121.184 69.0329 120.417 69.7797 119.044 69.9521C118.636 70 118.343 70.2106 118.163 70.584C118.078 70.7659 118.021 70.9574 118.002 71.1489C117.964 71.5223 118.39 71.7521 118.674 71.5128L126.231 65.1648C126.316 65.0978 126.402 65.0595 126.496 65.0403C127.244 64.9158 127.585 64.4084 127.519 63.5275C127.519 63.4509 127.547 63.4031 127.614 63.3839C127.699 63.3552 127.784 63.3456 127.879 63.3552C127.974 63.3648 128.04 63.4126 128.087 63.4988L129.119 65.6914C129.28 66.0361 129.186 66.2563 128.816 66.3616L127.528 66.7159C127.339 66.7637 127.159 66.8691 127.008 67.0127L120.777 73.1404C120.502 73.4181 120.492 73.849 120.748 74.1362L120.975 74.3756C121.127 74.5479 121.392 74.5479 121.553 74.3756C123.599 72.1255 126.004 70.5936 128.769 69.7606C129.063 69.6744 129.195 69.4734 129.176 69.167C129.129 68.6308 129.252 68.1999 129.545 67.884C129.792 67.6159 130.01 67.635 130.199 67.951C130.417 68.3053 130.54 68.6882 130.568 69.1095C130.587 69.4638 130.436 69.6936 130.114 69.818C129.157 70.1723 128.58 70.9 128.371 72.0202C128.314 72.3553 128.097 72.633 127.803 72.7862L126.903 73.2362C126.686 73.3415 126.667 73.4755 126.866 73.6192C126.989 73.7053 127.169 73.7053 127.386 73.6192C127.784 73.4564 128.059 73.4755 128.22 73.6766C128.447 73.9447 128.248 74.3564 127.898 74.3468C126.487 74.3181 125.218 74.6819 124.11 75.4575C123.835 75.649 123.523 75.7543 123.191 75.783L122.263 75.8596C121.875 75.8979 121.714 76.1086 121.79 76.5011C121.903 77.1139 122.206 77.698 122.699 78.2629C122.936 78.5309 123.371 78.4448 123.475 78.1001L123.712 77.3628C123.826 77.0277 124.053 76.8171 124.385 76.7405C125.824 76.4054 127.017 75.9841 127.964 75.4671C128.523 75.1607 129.081 75.1798 129.621 75.5245L129.915 75.7064C130.398 76.0032 130.369 76.7309 129.867 76.999L123.665 80.2735C123.438 80.398 123.4 80.714 123.589 80.8863L123.873 81.1352C124.29 81.5086 124.735 81.5469 125.208 81.2406L131.828 76.999C132.169 76.7884 132.614 76.9607 132.718 77.3437C132.746 77.4682 132.784 77.6022 132.822 77.7267C133.021 78.4448 132.822 79.0288 132.244 79.4788C130.729 80.6661 129.11 81.3459 127.377 81.5182C126.913 81.5661 126.581 81.7576 126.383 82.0927C126.193 82.4182 126.278 82.5619 126.648 82.5236L129.545 82.2363C129.877 82.2076 130.17 82.0736 130.407 81.8342C131.004 81.2693 131.724 81.1448 132.566 81.4799C133.078 81.681 133.428 82.1502 133.494 82.6959L134.233 89.2354C134.271 89.58 134.11 89.9152 133.807 90.0875C133.561 90.2215 133.314 90.2694 133.059 90.2407C132.623 90.1737 132.604 90.2407 132.992 90.4418C133.873 90.8822 134.422 91.6003 134.65 92.5865C135.227 95.1333 135.805 97.728 136.383 100.361C136.553 101.146 136.449 101.184 136.08 100.476C134.422 97.3546 131.686 92.5482 128.333 91.0162C124.972 89.4843 121.43 88.8524 117.689 89.1109C117.159 89.1492 116.667 88.8237 116.496 88.3162C113.627 79.7373 108.134 73.4755 100.038 69.5212C91.7898 65.4903 79.2614 66.668 71.2122 70.1723C60.0095 75.0458 52.2159 83.1555 47.8315 94.4918C47.661 94.9227 47.3675 95.0471 46.9508 94.8844C36.0606 90.5471 26.9034 92.5386 19.4792 100.849C15.1137 105.752 12.8315 113.114 14.2425 119.865C15.8428 127.553 20.5303 132.991 28.3239 136.189C34.6402 138.784 41.2311 140.057 48.0777 140C56.7425 139.933 62.5 139.77 65.3504 139.493C87.3201 137.405 108.996 135.366 131.402 134.619C135.616 134.475 140.265 134.169 145.331 133.69C152.595 133.01 159.081 130.263 162.794 123.733C168.229 114.177 163.059 101.395 153.201 96.8663ZM131.174 126.615C131.051 127.361 130.739 127.936 130.464 127.888C130.199 127.84 130.085 127.199 130.199 126.442C130.322 125.695 130.635 125.121 130.909 125.169C131.174 125.217 131.288 125.858 131.174 126.615ZM139.46 124.92C139.318 125.198 139.11 125.418 138.835 125.561C137.595 126.203 137.955 126.959 137.169 127.716C136.97 127.917 136.724 127.85 136.449 127.534C136.25 127.304 136.25 126.959 136.449 126.73C137.462 125.59 138.239 124.403 138.788 123.187C139.82 120.899 140.379 119.692 140.464 119.558C141.638 117.615 142.822 115.747 144.025 113.957C144.697 112.942 145.227 111.592 145.606 109.917C145.71 109.457 145.947 109.38 146.297 109.677C146.629 109.964 146.875 110.328 147.036 110.769C147.131 111.027 147.083 111.305 146.903 111.515C146.136 112.425 145.568 113.459 145.189 114.637C145.085 114.962 144.896 115.24 144.64 115.47C143.636 116.332 143.617 116.561 143.267 117.825C143.182 118.122 143.03 118.39 142.813 118.629C141.686 119.865 141.392 121.454 140.682 122.67C140.256 123.407 139.849 124.164 139.46 124.92ZM146.667 127.409C146.364 127.744 146.212 127.677 146.203 127.227C146.203 124.987 147.945 122.22 149.773 120.362C151.42 118.687 152.538 116.724 154.195 115.001C154.545 114.646 154.688 114.713 154.621 115.202C154.224 118.457 150.956 121.167 149.252 123.962C148.485 125.226 147.623 126.375 146.667 127.409ZM158.475 118.199C158.39 118.773 157.936 119.654 157.131 120.841C155.852 122.727 153.693 124.03 151.913 125.485C151.676 125.686 151.402 125.772 151.099 125.743C150.445 125.686 149.962 125.916 149.659 126.423C149.422 126.816 149.309 126.787 149.309 126.318C149.309 125.772 149.536 125.389 150 125.169C150.407 124.977 150.739 124.7 151.013 124.336C154.138 120.104 155.729 117.327 154.763 112.435C154.621 111.726 154.375 111.688 154.015 112.31C152.775 114.474 151.297 116.466 149.564 118.275C147.566 120.372 146.032 122.354 144.981 124.221C144.441 125.188 143.835 126.184 143.163 127.199C142.945 127.534 142.822 127.505 142.794 127.103C142.746 126.289 142.737 125.351 142.765 124.288C142.822 122.258 144.119 120.946 144.167 118.735C144.176 118.4 144.337 118.227 144.659 118.218L145.123 118.199C145.379 118.189 145.492 118.313 145.464 118.572C145.398 119.175 145.18 119.74 144.801 120.267C143.977 121.406 143.447 122.756 143.229 124.298C143.163 124.767 143.295 124.834 143.617 124.489C144.593 123.474 145.284 122.306 145.701 120.994C145.805 120.659 145.985 120.372 146.231 120.123C148.987 117.356 151.212 114.196 152.898 110.635C153.021 110.376 152.955 110.185 152.708 110.041L152.32 109.83C152.131 109.725 151.97 109.763 151.847 109.945L146.6 117.873C146.326 118.294 145.691 118.199 145.53 117.72C145.142 116.523 145.474 115.671 146.506 115.154C146.809 115.001 147.036 114.733 147.14 114.397C147.453 113.354 147.992 112.53 148.778 111.908C149.072 111.669 149.214 111.362 149.195 110.979L149.157 110.271C148.769 110.568 148.381 110.711 148.002 110.692C147.708 110.673 147.443 110.481 147.33 110.213C146.903 109.189 146.563 108.145 146.316 107.102C146.013 105.78 145.237 105.091 143.977 105.033C143.646 105.014 143.39 105.139 143.191 105.416C142.519 106.355 142.32 107.418 142.576 108.605C142.633 108.882 142.604 109.141 142.491 109.399L140.18 114.445C140.057 114.723 140.133 114.905 140.426 114.991L140.739 115.096C141.004 115.173 141.288 115.039 141.383 114.771L143.712 108.241C143.816 107.944 143.807 107.647 143.684 107.351C143.542 107.035 143.466 106.776 143.466 106.585C143.466 105.972 144.157 105.637 144.621 106.029C145.445 106.738 145.606 107.59 145.104 108.586C144.271 110.242 143.665 111.946 143.277 113.699C143.201 114.053 143.011 114.369 142.737 114.589C141.657 115.46 140.786 115.968 139.962 117.174C137.547 120.698 135.218 124.298 132.964 127.974C132.879 128.118 132.775 128.147 132.633 128.06L132.424 127.936C132.358 127.907 132.349 127.859 132.377 127.792C133.078 126.327 133.608 124.853 133.958 123.35C134.385 121.511 135.398 120.161 136.165 118.448C136.288 118.17 136.354 117.873 136.364 117.557C136.373 117.011 136.657 116.724 137.216 116.695C137.434 116.676 137.566 116.561 137.614 116.36C137.642 116.236 137.623 116.121 137.547 116.016C137.5 115.949 137.415 115.891 137.292 115.862C136.922 115.757 136.553 115.719 136.174 115.747C135.862 115.776 135.691 115.949 135.672 116.264C135.568 117.997 134.678 119.003 132.983 119.281C132.67 119.328 132.472 119.51 132.386 119.807C132.093 120.803 131.894 121.846 131.799 122.938C131.761 123.484 131.288 123.886 130.748 123.838C130.672 123.828 130.568 123.752 130.436 123.618C130.161 123.34 129.886 123.34 129.612 123.618C129.224 124.01 128.75 124.278 128.191 124.432C127.737 124.556 127.5 125.064 127.689 125.504C128.002 126.213 128.097 126.978 127.992 127.792C127.936 128.233 127.538 128.539 127.102 128.501C126.525 128.434 126.231 128.118 126.222 127.543C126.212 126.481 126.534 125.533 127.188 124.681C127.377 124.441 127.481 124.164 127.491 123.848C127.5 123.57 127.547 123.311 127.642 123.062C127.765 122.756 127.983 122.555 128.295 122.459L129.536 122.076C129.82 121.99 130 121.799 130.066 121.511L130.852 118.428C130.919 118.17 130.862 117.93 130.701 117.71L130.511 117.48C130.398 117.337 130.407 117.203 130.53 117.059C130.975 116.571 131.515 116.245 132.14 116.063C132.443 115.977 132.661 115.786 132.784 115.489C133.087 114.752 133.087 114.005 132.784 113.248C132.661 112.933 132.462 112.885 132.188 113.086C131.165 113.861 130.455 114.637 130.066 115.412C128.665 118.189 127.121 120.611 125.436 122.679C123.655 124.863 123.04 127.266 120.739 128.922C120.521 129.085 120.313 129.133 120.133 129.066C119.801 128.941 119.735 128.74 119.943 128.443C121.525 126.213 122.869 123.857 123.958 121.368C124.081 121.081 124.271 120.841 124.527 120.659C125.871 119.702 126.487 118.361 126.364 116.638C126.345 116.322 126.468 116.092 126.733 115.939L127.443 115.537C127.737 115.364 127.936 115.116 128.049 114.8C128.475 113.555 129.1 112.425 129.905 111.401C130.104 111.152 130.246 110.874 130.313 110.558C130.455 109.936 130.663 109.428 130.938 109.055C131.193 108.701 131.25 108.327 131.089 107.915L130.852 107.284C130.672 106.834 130.474 106.814 130.256 107.245C129.271 109.131 129.205 110.989 127.017 112.31C126.724 112.492 126.544 112.751 126.496 113.105L126.345 114.168C126.297 114.484 126.117 114.666 125.805 114.713C124.64 114.905 124.271 115.566 124.697 116.705C124.915 117.299 124.593 117.95 123.996 118.141C122.566 118.582 122.093 120.41 121.269 121.425C119.858 123.149 118.892 125.121 118.371 127.352C118.305 127.63 118.324 127.898 118.428 128.166C118.475 128.29 118.494 128.405 118.475 128.52C118.447 128.702 118.362 128.74 118.21 128.654C117.822 128.405 117.405 128.3 116.979 128.348C116.686 128.376 116.581 128.252 116.686 127.974C117.453 125.82 118.172 123.589 118.826 121.282C118.93 120.899 119.441 120.295 120.36 119.462C120.597 119.252 120.71 118.984 120.701 118.668C120.691 116.82 121.515 115.575 123.182 114.953C123.475 114.847 123.674 114.637 123.778 114.34C124.186 113.191 124.422 111.085 125.805 110.788C126.117 110.721 126.316 110.529 126.402 110.223C126.544 109.696 126.364 109.275 125.881 108.959C125.616 108.777 125.407 108.547 125.256 108.27C124.091 106.106 124.508 104.268 126.506 102.745C126.761 102.544 126.847 102.295 126.752 101.979C126.629 101.587 126.392 101.338 126.061 101.242C125.89 101.184 125.682 101.223 125.426 101.347C125.322 101.395 125.227 101.433 125.123 101.481C124.924 101.567 124.82 101.51 124.811 101.29C124.773 100.39 124.384 99.7866 123.636 99.4898C123.286 99.3557 123.182 99.4611 123.324 99.8153L123.769 100.955C123.902 101.29 123.892 101.625 123.741 101.95C123.523 102.4 123.39 102.87 123.333 103.358C123.295 103.674 123.172 103.932 122.955 104.153C122.405 104.708 122.235 105.359 122.434 106.106C122.718 107.14 123.807 107.743 124.347 108.882C124.489 109.179 124.451 109.447 124.242 109.696C123.542 110.548 123.002 111.487 122.623 112.521C122.51 112.827 122.301 113.019 121.989 113.105C120.426 113.517 119.621 114.579 119.593 116.303C119.583 116.59 119.451 116.858 119.224 117.04C117.311 118.543 117.301 120.372 116.013 122.249C114.744 124.087 114.337 126.586 113.542 128.606C113.381 129.008 112.974 129.257 112.547 129.209L112.263 129.171C112.064 129.152 111.941 128.96 111.998 128.769C112.349 127.63 112.68 126.452 112.992 125.236C113.826 122 115.379 119.127 116.42 115.949C116.752 114.924 117.358 114.12 118.229 113.555C118.485 113.383 118.684 113.153 118.816 112.866C119.025 112.396 119.148 111.898 119.195 111.391C119.224 111.037 119.384 110.769 119.678 110.587L121.042 109.754C121.458 109.495 121.724 109.045 121.742 108.547L121.809 106.575C121.828 106.029 121.591 105.866 121.108 106.106C119.527 106.881 118.816 108.289 118.987 110.319C119.025 110.769 118.826 110.96 118.381 110.893L118.134 110.855C117.85 110.817 117.576 110.903 117.367 111.094C115.881 112.463 114.905 113.813 114.441 115.135C113.608 117.5 112.983 119.032 112.557 119.711C111.297 121.741 110.066 124.537 108.864 128.108C108.722 128.539 108.438 128.817 108.011 128.96L107.775 129.037C107.386 129.162 107.235 129.027 107.32 128.616C107.879 126.021 108.646 123.436 109.64 120.86C110.208 119.357 110.104 117.394 110.909 116.178C111.866 114.713 112.794 113.201 113.693 111.64C114.773 109.763 116.25 108.088 118.125 106.613C118.636 106.211 118.939 105.589 118.93 104.928L118.911 104.086C118.902 103.511 118.201 103.243 117.831 103.674L113.703 108.432C113.504 108.653 113.362 108.911 113.258 109.198C112.974 109.974 112.5 110.615 111.847 111.123C111.591 111.324 111.392 111.563 111.241 111.841L109.242 115.479C109.129 115.68 108.958 115.805 108.722 115.834C108.589 115.853 108.456 115.834 108.324 115.814C108.116 115.757 107.964 115.824 107.86 116.016L106.023 119.51C105.871 119.798 105.956 120.152 106.231 120.324L106.534 120.516C106.771 120.659 106.951 120.611 107.074 120.372C107.472 119.606 107.765 118.543 107.955 117.193C108.04 116.58 108.797 116.36 109.195 116.82C109.489 117.165 109.574 117.605 109.441 118.132C109.375 118.438 109.157 118.783 108.788 119.175C107.377 120.65 106.411 122.373 105.89 124.355C105.095 127.371 104.186 128.74 101.563 129.908C101.231 130.062 101.108 129.956 101.212 129.602C101.326 129.2 101.553 128.874 101.894 128.616C102.15 128.434 102.339 128.194 102.472 127.907C103.475 125.763 104.735 123.417 104.46 121.435C104.214 119.692 104.1 115.786 106.07 115.039C107.102 114.646 107.585 113.708 107.519 112.224C106.733 112.559 106.08 112.597 105.559 112.339C104.366 111.736 104.271 110.06 105.388 109.323C106.165 108.815 106.667 107.877 106.885 106.518C106.913 106.364 106.856 106.269 106.695 106.24L106.402 106.182C106.402 106.182 106.335 106.182 106.326 106.221C105.994 108.078 104.962 109.361 103.22 110.07C102.775 110.252 102.557 110.539 102.576 110.951C102.595 111.276 102.765 111.439 103.087 111.448C103.873 111.468 104.394 111.793 104.65 112.435C104.773 112.741 104.744 113.028 104.545 113.296C103.116 115.24 102.349 117.423 102.244 119.845C102.235 120.161 102.102 120.401 101.847 120.583C100.852 121.262 100.445 122.239 100.625 123.522C100.672 123.838 100.625 124.144 100.502 124.441C99.5644 126.682 98.3334 128.74 96.8087 130.607C96.5909 130.885 96.3353 130.914 96.0606 130.713C95.9659 130.646 95.8902 130.559 95.8334 130.454C95.6913 130.176 95.7481 129.966 96.0133 129.803C96.411 129.564 96.6856 129.209 96.8372 128.74C97.7462 125.973 98.6175 123.197 99.4508 120.41C100.057 118.39 99.7728 116.399 100.256 114.321C100.36 113.871 100.189 113.574 99.7633 113.43L99.1951 113.239C98.7122 113.076 98.4849 113.239 98.5038 113.766C98.5322 114.503 98.3807 115.259 98.0398 116.054C96.5531 119.568 95.2462 123.149 94.1193 126.797C94.0247 127.093 93.8637 127.352 93.6364 127.572C92.4622 128.654 91.4489 129.889 90.6061 131.297C90.5209 131.431 90.4167 131.459 90.2841 131.383L90.0568 131.239C90.0568 131.239 90.0095 131.191 90.0284 131.163C91.3068 128.893 92.2822 126.557 92.964 124.154C93.8258 121.138 94.6023 118.199 95.2936 115.336C95.3599 115.029 95.5019 114.752 95.7103 114.512C96.2027 113.938 96.6004 113.316 96.894 112.645C97.036 112.329 96.9413 112.147 96.6004 112.1C95.9281 111.994 95.3883 112.291 94.9906 112.99C93.2765 115.996 91.9413 119.156 90.9849 122.478C90.1421 125.418 89.3277 127.496 87.8694 129.851C86.0228 132.829 85.5872 132.637 86.5815 129.257C87.9546 124.575 89.2425 119.616 90.4262 114.397C90.5682 113.785 90.5303 113.181 90.322 112.578C90.2084 112.262 89.7822 112.243 89.6402 112.54C87.0928 117.624 85.0663 123.005 83.5606 128.702C83.2008 130.052 82.4716 131.143 81.3731 131.967C80.9659 132.264 80.8334 132.177 80.9943 131.689C82.7841 126.05 84.2803 120.487 85.483 115.01C85.625 114.35 85.3883 114.139 84.7633 114.388L84.5076 114.493C83.9394 114.723 83.5512 115.135 83.3523 115.719L78.8826 128.75C78.7595 129.085 78.5322 129.305 78.2008 129.41C77.1591 129.746 76.4489 130.483 76.0606 131.622C75.947 131.957 75.8144 132.178 75.6534 132.264C75.5019 132.35 75.3504 132.369 75.1894 132.321C74.858 132.235 74.7728 132.043 74.9432 131.737C77.8031 126.586 79.8296 121.052 81.0228 115.135C81.1459 114.493 80.9091 114.273 80.2936 114.464C80 114.551 79.6781 114.838 79.3277 115.326C77.0455 118.467 75.4925 121.128 74.6875 123.302C74.2519 124.48 73.6459 126.969 72.8788 130.751C72.7841 131.22 72.519 131.565 72.0928 131.785L70.3031 132.704C69.8959 132.915 69.7822 132.809 69.9432 132.379C70.8618 130.071 71.7235 127.984 72.2917 125.418C73.0019 122.162 74.0436 118.898 75.3978 115.613C75.5682 115.211 75.4072 114.752 75.0284 114.541L74.7728 114.407C74.536 114.273 74.233 114.35 74.0909 114.589C72.8883 116.59 71.9034 118.869 71.1459 121.425C70.4925 123.656 68.93 127.218 66.4584 132.11C66.2784 132.474 65.9754 132.762 65.6061 132.905L64.6497 133.288C64.1288 133.499 64.0057 133.355 64.2803 132.857C67.2917 127.428 69.3656 121.751 70.5114 115.834C70.6724 115.02 70.4167 114.857 69.7538 115.355C69.1383 115.824 68.6648 116.456 68.3428 117.27C66.6004 121.578 64.9527 125.753 63.3997 129.793C62.6515 131.756 61.3258 133.106 59.4224 133.834C59.1383 133.939 58.8731 133.901 58.6364 133.719C56.5531 132.149 55.8807 130.301 56.6099 128.166C57.7747 124.767 59.3466 120.86 61.3447 116.466C61.4962 116.14 61.2311 115.767 60.8712 115.814L60.625 115.843C60.1421 115.901 59.7159 116.178 59.4603 116.58C58.2103 118.601 57.1023 120.832 55.9565 122.967C54.4319 125.81 53.8637 128.865 54.2425 132.149C54.2803 132.465 54.2046 132.742 54.0057 133.001C53.5417 133.614 52.8788 133.949 52.0171 134.016C51.6383 134.045 51.5625 133.901 51.7993 133.595C52.8599 132.178 53.1724 130.492 52.7273 128.539C52.0076 125.341 54.5834 120.018 56.2027 117.796C56.5152 117.366 56.6951 116.858 56.733 116.274C56.7519 115.977 56.4205 115.795 56.1932 115.977C53.3428 118.16 52.0076 119.884 51.0606 123.589C50.5209 125.695 49.4034 128.51 49.858 130.636C49.9243 130.942 49.8864 131.239 49.7538 131.517C49.4603 132.12 49.4034 132.752 49.5834 133.393C49.6686 133.69 49.555 133.853 49.2519 133.882C46.108 134.179 42.983 133.815 39.8675 132.781C39.536 132.666 39.5171 132.513 39.8106 132.331C40.786 131.708 41.6478 131.785 42.3959 132.58C42.6137 132.819 42.8788 132.934 43.1913 132.924C43.5796 132.924 43.8921 132.723 44.1288 132.35C44.2993 132.072 44.4981 132.053 44.7254 132.283C44.8296 132.388 44.9053 132.522 44.9527 132.675C45.0379 132.934 45.1989 133.106 45.4356 133.202C46.8561 133.767 47.7936 133.317 48.2481 131.871C48.3144 131.67 48.2671 131.498 48.1061 131.354C47.983 131.239 47.9356 131.057 47.983 130.895C48.5038 129.219 48.7879 127.486 48.8163 125.715C48.8258 125.389 48.9016 125.073 49.0341 124.786C49.5171 123.771 49.8012 122.708 49.8769 121.588C49.9148 121.081 49.7822 121.023 49.4792 121.435C47.661 123.895 46.6099 125.83 46.3163 127.237C46.0038 128.702 45.483 130.052 44.7444 131.287C44.6402 131.459 44.3845 131.45 44.2993 131.268C43.4375 129.324 43.7027 127.792 44.8675 125.935C46.0417 124.049 47.2538 122.182 48.5038 120.343C48.769 119.951 48.8258 119.606 48.6743 119.3C48.5133 118.984 48.286 118.926 47.9925 119.108C45.483 120.688 44.5171 123.934 43.3807 126.452C42.9546 127.4 42.8125 127.361 42.9641 126.327C43.1345 125.121 43.4659 123.781 43.9489 122.297C44.0625 121.942 43.6837 121.626 43.3618 121.818L42.8883 122.105C42.4716 122.354 42.2349 122.727 42.1875 123.216C41.9887 125.293 40.4451 128.041 41.733 129.947C42.3391 130.827 42.2159 131.019 41.3542 130.531L39.1951 129.286C38.9394 129.142 38.8637 128.932 38.9584 128.654C39.4224 127.275 39.5455 125.944 39.3372 124.671C39.1288 123.388 37.6231 122.823 36.6383 123.647C35.2747 124.795 35.5398 127.429 35.5682 128.98C35.5777 129.372 35.3978 129.612 35.019 129.707L34.072 129.956C33.7974 130.023 33.5417 129.803 33.5701 129.525C33.769 127.524 34.1762 123.264 31.8561 122.507C31.43 122.364 31.1364 122.507 30.9754 122.928L29.8675 125.877C29.7917 126.069 29.9337 126.27 30.1326 126.27H30.5114C30.6156 126.28 30.6724 126.222 30.6819 126.117C30.7671 125.322 30.947 124.69 31.2311 124.24C31.4962 123.819 32.1213 123.905 32.2728 124.374C32.6516 125.552 32.7841 126.749 32.661 127.965C32.6326 128.319 32.4622 128.405 32.1591 128.223C31.894 128.06 31.6856 127.85 31.5247 127.572C31.3637 127.304 31.1269 127.132 30.8334 127.046C29.9053 126.787 29.1478 126.71 28.5701 126.825C27.5853 127.007 27.519 127.371 28.3712 127.907L31.4394 129.851C31.7046 130.014 31.9887 130.109 32.2917 130.129C32.8883 130.176 33.3334 130.425 33.6459 130.875C33.8258 131.134 34.0815 131.287 34.394 131.316C34.8201 131.354 35.1705 131.22 35.4641 130.914C35.6724 130.684 35.9281 130.617 36.2216 130.713C37.4432 131.096 38.3997 131.651 39.1004 132.369C39.4129 132.695 39.3466 132.829 38.9016 132.762C36.6572 132.446 34.7159 131.957 33.0777 131.297C31.1648 130.521 29.1762 129.583 27.1023 128.463C26.0701 127.907 25.4735 127.17 24.6402 126.375C24.394 126.136 24.4129 125.925 24.697 125.734C24.8769 125.609 25.0758 125.514 25.2936 125.456C25.7008 125.341 25.9186 125.494 25.9375 125.925L25.9849 126.787C26.0038 127.18 26.3826 127.448 26.7519 127.323L27.4716 127.084C27.7841 126.978 27.9925 126.682 27.983 126.356C27.9735 126.04 27.9167 125.743 27.8031 125.475C27.6231 125.035 27.7273 124.681 28.1156 124.422C28.911 123.895 29.1856 123.091 28.93 122.009C28.7879 121.387 28.4944 121.31 28.0493 121.76C27.3296 122.488 26.7993 123.436 26.4489 124.594C26.3447 124.939 25.9186 125.064 25.6629 124.824C25.2273 124.432 25.019 123.915 25.0284 123.254C25.0284 122.9 24.8864 122.641 24.5739 122.469C24.1762 122.249 24.0247 121.875 24.1288 121.368C24.1856 121.109 24.3372 120.889 24.5644 120.765C25.1421 120.449 25.3694 119.97 25.2652 119.348C25.2368 119.185 25.1516 119.051 25.019 118.955C24.9432 118.898 24.858 118.869 24.7728 118.878C24.5644 118.878 24.4508 118.984 24.4224 119.185C24.2993 120.209 23.769 120.678 22.8409 120.592C22.4716 120.554 22.2633 120.353 22.2065 119.979C21.9697 118.534 22.4527 117.691 23.6743 117.471C23.8826 117.433 23.9773 117.184 23.8542 117.011L22.983 115.795C22.8599 115.633 22.7084 115.575 22.5095 115.623L22.0266 115.738C21.6667 115.824 21.4205 116.044 21.2974 116.399C20.9091 117.49 20.8997 118.505 21.2784 119.443C21.9034 121.014 22.822 122.603 24.0341 124.211C24.1194 124.326 24.1572 124.48 24.1194 124.623L23.9489 125.265C23.8637 125.6 23.7122 125.638 23.4849 125.37C20.9565 122.392 19.7633 119.271 19.8864 115.996C19.9906 113.325 21.0701 110.204 23.144 106.632C23.7027 105.675 24.394 104.852 25.2273 104.172C26.2311 103.348 26.8656 102.132 27.9072 101.443C33.0872 98.044 38.4754 97.6227 44.0815 100.179C46.3069 101.194 47.8125 103.09 49.536 104.813C50.5398 105.819 52.2444 105.215 52.4148 103.808C52.6989 101.5 53.1345 99.193 53.7216 96.8759C54.2993 94.6067 55.2368 92.4907 56.5341 90.5184C58.8163 87.0428 61.4016 84.0842 64.2803 81.6523C67.1118 79.2586 70.805 77.1139 75.3409 75.2086C75.9849 74.9405 76.714 74.7394 77.5379 74.5958C78.5606 74.4234 79.2519 73.8298 80.2273 73.7053C84.4319 73.1596 88.6364 73.1404 92.8315 73.6383C93.4091 73.7053 94.1951 73.9543 95.1894 74.366C96.3258 74.8351 97.3769 74.7777 98.3807 75.4192C101.165 77.2001 103.513 79.1916 105.426 81.4033C107.784 84.1129 109.138 87.5885 109.489 91.8205C109.517 92.0982 109.441 92.3567 109.28 92.5961C107.775 94.6737 106.051 96.5121 104.091 98.1302C102.907 99.1068 102.339 100.351 101.837 101.711C101.099 103.693 100.265 104.488 98.5796 105.464C98.3807 105.579 98.3334 105.742 98.4375 105.953L98.5417 106.173C98.5985 106.278 98.6837 106.307 98.7879 106.249C100 105.665 101.203 104.421 102.386 102.515C103.087 101.405 104.905 99.4898 107.85 96.7802C108.078 96.5695 108.248 96.3206 108.352 96.0238C108.646 95.2195 109.025 94.7025 109.489 94.4823C110.104 94.2046 110.284 94.3769 110.038 95.0089C109.47 96.4738 109.479 97.8238 108.475 99.2121C107.775 100.189 107.169 101.223 106.648 102.305C106.515 102.582 106.307 102.793 106.032 102.927C105.388 103.243 104.905 103.712 104.583 104.344C104.441 104.622 104.233 104.842 103.958 104.995C103.494 105.263 103.068 105.551 102.661 105.866C102.367 106.106 102.225 106.355 102.244 106.623C102.273 106.987 102.453 107.092 102.784 106.948C104.119 106.364 105.095 105.416 105.729 104.124C105.871 103.846 106.089 103.664 106.383 103.597C106.572 103.549 106.761 103.492 106.941 103.425C107.112 103.358 107.263 103.253 107.405 103.09C108.57 101.749 109.337 100.83 111.174 100.275C113.617 99.5377 115.653 97.278 117.301 95.411C117.538 95.1429 117.86 94.9706 118.21 94.9131C123.902 94.0514 129.384 99.2025 131.506 104.105C132.585 106.594 133.201 108.327 133.352 109.294C133.636 111.075 134.574 112.885 136.174 114.723C136.61 115.221 137.386 115.202 137.794 114.675C139.29 112.751 140.833 109.179 140.455 106.508C140.379 105.972 140.559 105.168 141.004 104.095C142.008 101.673 146.051 101.165 148.21 101.424C156.241 102.391 159.621 110.951 158.475 118.199ZM37.4148 128.022L37.6989 129.133C37.7841 129.468 37.6516 129.631 37.3106 129.621C37.0739 129.621 36.8466 129.525 36.6288 129.324C36.3069 129.056 36.2311 128.597 36.4394 128.233L37.4053 126.538C37.5853 126.232 37.7084 126.251 37.7652 126.605C37.8031 126.844 37.7368 127.065 37.5758 127.266C37.3959 127.486 37.3485 127.744 37.4148 128.022Z" fill="black"/>
</g>
<defs>
<clipPath id="clip0_2105_885">
<rect width="165" height="140" fill="white"/>
</clipPath>
</defs>
</svg>
