<svg width="151" height="120" viewBox="0 0 151 120" fill="none" xmlns="http://www.w3.org/2000/svg">
<g clip-path="url(#clip0_2001_196)">
<path d="M34.4546 14.4922C34.6492 14.9042 34.4763 15.3957 34.0727 15.5909L34.0439 15.6054C33.6332 15.8005 33.1431 15.627 32.9486 15.2223L26.2182 1.19263C26.0236 0.780633 26.1966 0.289126 26.6001 0.0939692L26.6289 0.0795131C27.0397 -0.115644 27.5297 0.057829 27.7242 0.462599L34.4546 14.4922Z" fill="black"/>
<path d="M39.5853 10.712C39.5925 10.777 39.542 10.8276 39.4772 10.8348H39.4411C38.9872 10.871 38.49 8.96278 38.3314 6.57752L38.2594 5.54391C38.1008 3.15866 38.3458 1.20709 38.7998 1.17095H38.8358C38.9007 1.16372 38.9583 1.21431 38.9655 1.27937L39.5853 10.712Z" fill="black"/>
<path d="M40.8896 14.1453C41.1922 13.7839 41.3436 13.3141 41.3003 12.837C40.9905 9.36031 40.7671 5.73183 40.6158 1.96602C40.6014 1.6263 40.8824 1.34441 41.2211 1.35164H41.4805C42.0786 1.37332 42.5686 1.8576 42.5902 2.46476L43.073 14.8609C43.073 15.1283 42.9577 15.2512 42.6911 15.2439C42.0642 15.2223 41.4733 14.991 40.9112 14.55C40.8392 14.4995 40.8103 14.4272 40.8319 14.3404C40.8536 14.232 40.868 14.167 40.8896 14.1453Z" fill="black"/>
<path d="M52.7002 4.82109C51.5328 7.80628 50.5456 11.1818 49.7385 14.9476C49.6881 15.1717 49.4791 15.3234 49.2485 15.2945L49.0251 15.2728C48.8954 15.2584 48.809 15.1427 48.8306 15.0126C49.5728 10.2349 50.8771 6.36067 52.7578 3.39717C54.2855 0.99023 55.1647 1.20707 55.4025 4.05492C55.6547 7.05456 55.2079 10.5529 54.0693 14.5573C53.8604 15.3018 53.4136 15.7427 52.7146 15.88C52.4624 15.9306 52.3615 15.8294 52.412 15.5764C53.0605 12.0419 53.3487 8.48571 53.2767 4.92229C53.2551 3.91759 53.0605 3.88868 52.7002 4.82109Z" fill="black"/>
<path d="M64.4171 5.61619C63.7037 5.103 63.6749 3.93206 64.3451 3.00687C65.0152 2.08168 66.1322 1.74196 66.8383 2.26238C67.5517 2.77557 67.5806 3.94651 66.9104 4.8717C66.2402 5.79689 65.1233 6.13661 64.4171 5.61619Z" fill="black"/>
<path d="M106.925 2.65991C112.467 6.88832 115.609 13.3357 117.345 20.1301C117.41 20.3831 117.237 20.6288 116.985 20.665C116.632 20.7156 116.329 20.4987 116.091 20.0145C115.169 18.1496 114.283 16.3137 113.432 14.5139C111.566 10.5457 109.058 7.15576 105.916 4.35851C105.491 3.98265 105.441 3.56342 105.765 3.0936L105.967 2.8117C106.183 2.49367 106.623 2.42139 106.925 2.65991Z" fill="black"/>
<path d="M30.0302 17.4919C27.7459 13.6827 24.1934 7.77737 25.1229 5.63064C25.2454 5.34152 25.649 5.32707 25.7931 5.60896C27.3568 8.59414 28.9637 11.6588 30.6139 14.7886C30.9454 15.4174 31.0823 16.1258 31.0102 16.8197C30.9886 17.0726 30.9094 17.2967 30.7796 17.4991C30.5995 17.7738 30.196 17.7738 30.0302 17.4919Z" fill="black"/>
<path d="M12.6782 10.4879C11.9648 9.96023 11.8567 8.88325 12.4476 8.08817C13.0313 7.28586 14.0833 7.06902 14.8039 7.60389C15.5173 8.13154 15.6254 9.20852 15.0345 10.0036C14.4508 10.8059 13.3988 11.0228 12.6782 10.4879Z" fill="black"/>
<path d="M12.5196 13.726C15.9713 15.9378 18.9618 18.6267 21.4767 21.7998C21.7649 22.1612 21.7937 22.5443 21.5559 22.949L21.4622 23.1081C21.3109 23.361 20.965 23.4044 20.7633 23.1948C18.8393 21.1854 16.6991 19.3278 14.3499 17.6147C13.2186 16.798 12.3827 15.5909 11.6261 14.4416C11.4387 14.1597 11.5468 13.7766 11.8495 13.6249C12.044 13.5309 12.2674 13.5598 12.5196 13.726Z" fill="black"/>
<path d="M19.7112 33.3647C14.7895 30.206 9.65166 27.4232 4.2976 25.0018C3.52656 24.6549 3.30318 23.6719 3.83642 23.0286L4.11745 22.6888C4.74438 21.9227 5.45777 21.8432 6.25043 22.4431C10.8695 25.9776 15.575 28.9772 20.3814 31.4492C20.9002 31.7167 21.066 32.1287 20.8858 32.6852L20.7849 32.9888C20.5904 33.5743 20.2301 33.7044 19.7112 33.3647Z" fill="black"/>
<path d="M14.876 41.6335C10.1128 41.4528 5.78199 40.9035 1.1053 42.0311C0.838676 42.0961 0.658526 41.9949 0.57926 41.7275C0.0316046 39.9422 2.49606 39.0893 3.79313 39.1037C7.53305 39.1543 11.1793 39.5157 14.7318 40.2024C15.1138 40.2747 15.366 40.6361 15.3155 41.0192L15.2723 41.2938C15.2435 41.4962 15.0705 41.6408 14.876 41.6335Z" fill="black"/>
<path d="M15.2578 49.541C11.8494 50.459 8.74362 52.0853 5.7099 53.9646C5.32078 54.2031 4.80915 53.9646 4.7443 53.5092C4.73709 53.4369 4.73709 53.3646 4.7443 53.2851C4.83077 52.6418 5.13342 52.1576 5.64505 51.8468C8.46259 50.1337 11.6548 48.8544 15.2218 48.0014C15.4524 47.9508 15.6902 48.0665 15.7911 48.2761C15.8704 48.4424 15.9064 48.623 15.8848 48.8037C15.8487 49.1941 15.6398 49.4398 15.2578 49.541Z" fill="black"/>
<path d="M132.997 33.8706C126.951 32.9165 121.164 33.8634 115.645 36.7185C114.881 37.116 114.276 37.8822 113.562 38.3592C113.339 38.511 113.223 38.4532 113.231 38.1858C113.303 32.1937 111.595 26.6642 108.1 21.5974C103.063 14.2971 95.9435 10.7698 87.0729 10.2349C81.5459 9.90241 74.4624 10.5312 69.5983 13.3357C64.4893 16.2775 60.1153 20.3831 56.4618 25.6379C56.4042 25.7246 56.2817 25.7463 56.2024 25.6812C51.2519 22.0455 45.8906 21.4384 40.1114 23.8598C32.4226 27.0762 27.5009 33.9284 25.93 41.9371C25.4184 44.5537 25.5409 47.9581 25.2094 50.9794C25.1806 51.2468 25.0365 51.4131 24.7843 51.4926C21.311 52.5623 18.8609 53.7044 17.4341 54.9114C8.2393 62.6599 7.16561 75.2801 14.4581 84.5681C19.7689 91.3191 28.1639 93.4442 36.5589 94.1959C37.4164 94.2682 38.0865 94.9765 38.1226 95.8439C38.4036 103.144 38.591 110.437 38.6702 117.73C38.6774 118.432 38.6918 118.815 38.7135 118.887C39.1963 120.361 39.7079 120.369 40.2483 118.916C43.174 110.972 46.8418 102.942 52.3688 96.3426C53.7019 94.7452 55.0711 93.6971 57.3121 93.6899C60.4251 93.6827 65.7071 93.7839 73.1581 93.9935C82.2449 94.2392 91.3316 94.4995 100.418 94.7669C108.021 94.991 114.203 94.8464 118.959 94.3332C122.721 93.9212 125.711 93.3068 127.924 92.4828C136.91 89.129 143.352 83.2526 147.236 74.8608C149.282 70.4373 150.111 65.674 150.428 60.8023C151.221 48.8254 145.895 35.9017 132.997 33.8706ZM16.0866 69.0784C15.9353 69.223 15.8416 69.4181 15.82 69.635L15.6182 71.442C15.6038 71.5359 15.5246 71.6082 15.4309 71.6082H15.1643C15.0706 71.6082 15.0346 71.5649 15.0562 71.4781L15.8056 67.7051C15.8416 67.5027 15.9641 67.3798 16.1659 67.3437C16.2452 67.3292 16.3316 67.3292 16.4253 67.3509C16.6055 67.4015 16.6991 67.5172 16.6991 67.7051C16.6991 68.2183 16.4974 68.6736 16.0866 69.0784ZM17.8665 67.9725C17.6575 68.24 17.499 68.2111 17.3909 67.893C17.1171 67.1052 17.2684 66.3534 17.8521 65.6523C18.0322 65.4355 18.1547 65.4644 18.2268 65.7318C18.4502 66.6209 18.3349 67.3726 17.8665 67.9725ZM24.1862 68.5869C24.0925 68.7242 23.9844 68.7315 23.8763 68.6014C23.6529 68.3195 23.5665 68.0737 23.6025 67.8641C23.6457 67.6328 23.9195 67.5388 24.0925 67.6906C24.3879 67.9436 24.4168 68.2472 24.1862 68.5869ZM26.1822 64.4091C26.0309 64.5103 25.721 64.3079 25.4905 63.961C25.2527 63.614 25.1878 63.2526 25.3391 63.1514C25.4905 63.0502 25.8003 63.2526 26.0309 63.5996C26.2687 63.9465 26.3336 64.3079 26.1822 64.4091ZM26.9461 59.7831C26.5858 60.1807 26.4272 60.6722 26.4705 61.2721C26.4849 61.5034 26.4272 61.5251 26.3047 61.3299C26.2038 61.1854 26.175 61.0119 26.2255 60.8168C26.4921 59.8121 26.3552 58.8796 25.8219 58.034C25.6994 57.8388 25.5193 57.7593 25.2887 57.7882L24.7843 57.8605C24.5897 57.8822 24.4888 57.8027 24.4816 57.6075C24.4672 57.3834 24.4528 57.2606 24.4456 57.2461C24.1141 56.5016 23.9916 56.5305 24.0853 57.3473C24.1645 58.034 24.4816 58.6845 25.0221 59.3061C25.159 59.4579 25.231 59.6386 25.2527 59.8337C25.3752 61.0191 24.914 61.9154 23.8835 62.5226C23.8259 62.5587 23.7538 62.5443 23.7106 62.4937L23.5737 62.3274C23.4872 62.2262 23.5016 62.1395 23.6097 62.06C24.3951 61.4745 24.6546 60.7517 24.3951 59.8916C24.3087 59.6097 24.1573 59.5663 23.9484 59.7759C23.8115 59.906 23.7466 60.0867 23.7394 60.3253C23.7322 60.5855 23.6457 60.8168 23.48 61.0264C23.1413 61.4601 22.7522 61.5396 22.327 61.2721C22.01 61.0697 21.592 61.1492 21.3614 61.4528L21.1524 61.7203C20.9146 62.0383 21.0299 62.4937 21.3902 62.6671C21.7577 62.8406 22.1469 62.9273 22.5432 62.9273C22.8675 62.9201 23.0332 63.0791 23.0548 63.4044C23.0909 63.9899 22.9395 64.4958 22.6008 64.9223C22.4423 65.1174 22.2838 65.1174 22.1325 64.9151C21.6497 64.2573 21.4191 63.2671 20.6408 62.9996C20.2589 62.8768 19.9202 62.9346 19.6176 63.1803C19.423 63.3321 19.423 63.4839 19.632 63.6285C20.4751 64.2139 20.9363 65.0741 21.0155 66.2161C21.0371 66.498 20.9507 66.5341 20.7561 66.339L18.7096 64.2718C18.5655 64.1344 18.4142 64.12 18.2556 64.2429C16.065 65.8764 14.6094 67.9653 13.896 70.5096C13.7519 71.0228 13.86 71.4998 14.2203 71.9552C14.3356 72.0925 14.3572 72.2515 14.2851 72.4322C14.1914 72.678 14.0906 72.678 13.9969 72.4322C11.5613 66.4763 16.8288 59.3639 21.6713 56.3137C22.1397 56.0173 22.7738 55.88 23.5737 55.8872C24.2438 55.9017 24.8203 56.1113 25.3175 56.5088C26.1678 57.1955 26.7587 58.0918 27.083 59.1832C27.1478 59.4073 27.1046 59.6097 26.9461 59.7831ZM29.8213 60.6288C29.6051 60.4192 29.5618 60.1156 29.7204 59.9494C29.8789 59.7831 30.1816 59.8121 30.3977 60.0217C30.6139 60.2313 30.6572 60.5349 30.4986 60.7011C30.3401 60.8674 30.0374 60.8384 29.8213 60.6288ZM30.8373 64.8789C30.7364 65.1897 30.6139 65.197 30.477 64.9006C30.3113 64.5537 30.3905 64.2284 30.7004 63.9248C30.7797 63.8453 30.9094 63.8959 30.9238 64.0043C30.9598 64.3007 30.931 64.597 30.8373 64.8789ZM31.003 55.8655C30.6139 56.0173 30.4266 55.8872 30.4482 55.4752C30.4626 55.15 30.6355 54.8825 30.9742 54.6657C31.2552 54.485 31.6228 54.6657 31.6516 54.9982C31.6876 55.3885 31.4714 55.6776 31.003 55.8655ZM32.9775 67.5244C32.8189 67.6545 32.5163 67.5316 32.3001 67.2642C32.0839 66.9895 32.0407 66.6715 32.1992 66.5414C32.3578 66.4113 32.6604 66.5341 32.8766 66.8016C33.0928 67.0762 33.136 67.3943 32.9775 67.5244ZM33.309 61.4528C33.0784 61.5685 32.8838 61.6046 32.7253 61.554C32.401 61.4601 32.3866 61.0119 32.6964 60.8963C32.891 60.824 33.0784 60.8168 33.2585 60.8746C33.5251 60.9613 33.5612 61.3299 33.309 61.4528ZM40.4213 35.3018C39.8952 36.2197 39.5493 37.2172 39.3836 38.3086C39.3116 38.7784 39.0593 39.0097 38.6342 38.9881C38.3676 38.9736 38.2955 38.8507 38.418 38.6122C39.117 37.2389 39.5133 36.039 39.6214 35.0199C39.6574 34.6946 39.571 34.6657 39.3764 34.9187C37.4956 37.369 36.249 39.4073 35.6365 41.0264C34.9303 42.9057 34.2313 45.1825 33.5323 47.8641C33.4891 48.0231 33.3882 48.0809 33.2297 48.0448L33.0495 48.0014C33.0495 48.0014 33.0063 47.9797 33.0135 47.9508C33.345 46.404 33.6044 44.85 33.799 43.2887C34.0151 41.554 34.7069 40.0072 35.3915 38.4026C36.4436 35.9451 38.1514 34.2248 40.5077 33.2345C41.2211 32.9382 41.9345 32.6491 42.6479 32.3744C43.5199 32.0347 43.6784 32.2443 43.1235 32.996C42.5975 33.7116 41.8697 34.3187 40.9401 34.803C40.7239 34.9187 40.5438 35.0921 40.4213 35.3018ZM42.1435 108.356C41.9345 108.869 41.8264 108.854 41.812 108.298L41.7472 105.609C41.74 105.262 41.8841 105.168 42.1867 105.334C42.3309 105.414 42.4173 105.537 42.4534 105.717C42.6191 106.549 42.511 107.43 42.1435 108.356ZM43.3829 35.9451C43.1307 36.5233 42.8497 37.0509 42.5326 37.5208C42.3237 37.8243 42.2516 37.7954 42.302 37.4268C42.5903 35.4825 43.3757 35.4319 44.5647 34.1959C44.7233 34.0296 44.8313 33.8272 44.8818 33.6032C44.9178 33.4225 45.0115 33.2996 45.1628 33.2273C45.3574 33.1261 45.4366 33.1839 45.4006 33.408C45.2349 34.391 44.716 35.0777 43.8441 35.4752C43.6351 35.5692 43.4766 35.7282 43.3829 35.9451ZM44.3485 31.4998C44.5215 31.2035 44.8241 31.0589 45.0187 31.1745C45.2133 31.2902 45.2277 31.6227 45.0547 31.919C44.8818 32.2154 44.5791 32.3599 44.3846 32.2443C44.19 32.1286 44.1756 31.7962 44.3485 31.4998ZM51.3239 93.2056L51.2519 93.3213C47.4471 99.2194 44.2477 103.925 44.0963 103.824L43.9306 103.715C43.7865 103.621 46.7481 98.764 50.5457 92.8659L50.625 92.7503C50.6682 92.6852 50.7547 92.6708 50.8195 92.7141L51.2807 93.0105C51.3456 93.0538 51.3672 93.1406 51.3239 93.2056ZM46.7625 31.0011C46.7625 31.0011 46.8202 31.0011 46.8202 31.03L46.9355 32.6418C46.9427 32.8009 46.8706 32.8948 46.7193 32.9237L46.5031 32.9671C46.323 33.0032 46.2149 32.931 46.1933 32.743C46.0852 31.9985 46.2725 31.4203 46.7625 31.0011ZM47.1517 34.0224L47.5624 33.0828C47.6849 32.8009 47.7858 32.8081 47.8579 33.1044C47.966 33.5237 47.8002 33.8851 47.3462 34.1886C47.094 34.3549 47.0292 34.3043 47.1517 34.0224ZM48.2182 34.9548C48.3407 34.4778 48.6577 34.1959 49.1694 34.1164C49.3927 34.0802 49.5657 33.9646 49.6738 33.7694L49.89 33.3936C50.0052 33.1912 50.1782 33.0972 50.4088 33.1044C50.8556 33.1189 51.1294 33.4225 51.2375 34.0079C51.3095 34.3838 51.0789 34.7452 50.7114 34.8392C50.1494 34.991 49.8107 34.897 49.7026 34.5717C49.5801 34.2176 49.4648 34.2176 49.3567 34.5717C49.2342 34.9837 48.9532 35.2295 48.528 35.2945C48.2542 35.3451 48.1533 35.2295 48.2182 34.9548ZM51.3239 37.1232C51.2303 37.2533 51.0357 37.2316 50.9709 37.0943L50.8844 36.9208C50.8844 36.9208 50.8772 36.8558 50.906 36.8341C51.6554 36.1764 52.2463 35.4102 52.6787 34.5356C52.7291 34.4272 52.8084 34.4055 52.9093 34.4633L53.075 34.5573C53.1254 34.5862 53.1399 34.6223 53.1038 34.6729L51.3239 37.1232ZM53.9685 42.9057C53.6875 42.9057 53.4641 42.6816 53.4641 42.3997C53.4641 42.1178 53.6875 41.8937 53.9685 41.8937C54.2496 41.8937 54.473 42.1178 54.473 42.3997C54.473 42.6816 54.2496 42.9057 53.9685 42.9057ZM54.6387 36.3643L53.1831 38.1641C52.9597 38.4387 52.8588 38.4026 52.8804 38.0484C52.9021 37.593 53.039 37.1883 53.284 36.8196C53.3921 36.6606 53.4569 36.4872 53.4857 36.2992C53.5362 36.0029 53.6587 35.7933 53.8677 35.6848C54.1631 35.5258 54.4153 35.5475 54.6099 35.7571C54.8044 35.9523 54.8116 36.1547 54.6387 36.3643ZM56.5339 38.8363C55.9358 38.6122 55.6115 38.4749 55.5755 38.4243C55.28 38.0701 55.3593 37.9111 55.8205 37.9617C56.2456 38.005 56.5123 38.2653 56.6348 38.7495C56.6564 38.8435 56.6276 38.8724 56.5339 38.8363ZM56.8365 35.4391C55.943 34.3477 55.1143 33.314 54.3433 32.3383C54.1847 32.1359 53.9253 32.0564 53.565 32.0997C53.3344 32.1286 53.1326 32.0636 52.9525 31.9118C52.0373 31.1384 50.9564 30.5457 49.6954 30.1409C48.8955 29.888 48.074 29.8157 47.2165 29.9313C46.5175 30.0253 45.8258 30.0687 45.134 30.047C44.6007 30.0325 44.0531 30.0976 43.491 30.2421C37.928 31.6733 34.2385 35.1789 32.4298 40.7662C31.7453 42.8912 31.0247 44.8139 30.931 47.0835C30.8517 49.2519 30.8373 51.4131 30.9022 53.567C30.9166 54.0513 30.8157 54.0802 30.5923 53.6465C30.1671 52.8153 29.8645 51.666 29.6771 50.1988C28.7548 42.8767 30.6716 36.5088 35.4275 31.0806C40.061 25.7897 47.2598 24.6621 53.2263 28.7604C55.6331 30.4156 56.8654 32.6274 56.923 35.4102C56.923 35.5041 56.8942 35.5114 56.8365 35.4391ZM58.2345 40.9396C58.0399 41.0119 57.7445 40.7156 57.5787 40.2819C57.4202 39.841 57.449 39.429 57.6436 39.3567C57.8382 39.2844 58.1336 39.5808 58.2993 40.0144C58.4579 40.4554 58.4291 40.8674 58.2345 40.9396ZM74.6065 23.4261C74.5417 23.4911 74.4696 23.5345 74.3831 23.5562C74.0877 23.6357 73.8931 23.5273 73.8067 23.2309L73.5472 22.3563C73.4896 22.1539 73.3022 22.0022 73.0861 21.9877C72.8194 21.966 72.56 21.9877 72.3078 22.0528C72.0988 22.1033 72.0412 22.2262 72.1493 22.4214L73.2302 24.3874C73.2302 24.3874 73.2302 24.4525 73.1941 24.4669L73.0212 24.532C72.9059 24.5681 72.8266 24.532 72.7906 24.4163C72.5672 23.7152 72.0916 23.2237 71.3638 22.9418C71.0756 22.8334 70.9603 22.9273 71.0179 23.2382C71.0828 23.5634 71.1188 23.8959 71.126 24.2429C71.1332 24.4814 71.0179 24.5681 70.7801 24.5103C70.1676 24.344 69.5911 24.5392 69.0651 25.0885C67.4438 26.7582 66.1395 28.4062 65.1667 30.0181C64.6983 30.7915 64.5758 30.7409 64.7992 29.8663C65.3324 27.7412 66.3124 26.0715 67.7464 24.85C68.6039 24.12 69.4903 23.3972 70.391 22.6816C71.4071 21.8865 72.524 21.2432 73.7562 20.7589C74.0084 20.665 74.1381 20.7445 74.1453 21.0119C74.1525 21.1782 74.1237 21.3444 74.0444 21.5034C73.9508 21.713 73.9724 21.9154 74.1093 22.1033L74.6425 22.8262C74.8011 23.0358 74.7867 23.2382 74.6065 23.4261ZM76.898 22.5081C76.9701 22.8334 76.8836 22.884 76.6458 22.6527C76.199 22.2262 75.8748 21.7347 75.6658 21.1782C75.5937 20.983 75.6442 20.8168 75.8099 20.6939L76.6602 20.065C76.898 19.8916 77.0133 19.9494 76.9989 20.2457C76.9917 20.4264 76.9052 20.5855 76.7467 20.7228C76.6098 20.8457 76.5593 20.9902 76.5954 21.1709L76.898 22.5081ZM79.1463 20.3614C78.6851 20.889 78.4401 21.4456 78.4113 22.0238C78.3897 22.3997 78.2744 22.4286 78.0582 22.1178C77.8492 21.8142 77.8492 21.5179 78.051 21.2215C78.1735 21.0408 78.2095 20.8384 78.1591 20.6216C78.051 20.1807 78.2311 19.8337 78.6851 19.588C78.8941 19.4796 79.0598 19.4723 79.1751 19.5808C79.2256 19.6314 79.2616 19.7036 79.2832 19.7904C79.3336 20 79.2904 20.1951 79.1463 20.3614ZM80.9406 21.554C80.8109 21.7419 80.6884 21.7419 80.5659 21.554C80.5226 21.4817 80.501 21.3878 80.5082 21.2794C80.5154 21.1203 80.4866 20.9685 80.4362 20.8168L80.2344 20.2385C80.1551 20 80.2344 19.841 80.4722 19.7615L80.8469 19.6458C81.0343 19.588 81.1568 19.653 81.2072 19.8482C81.3874 20.477 81.2937 21.0481 80.9406 21.5612V21.554ZM81.8341 16.8702C81.5459 16.863 81.2649 16.7691 80.9982 16.5884C80.7821 16.4366 80.6524 16.4944 80.6019 16.7546L80.5298 17.1738C80.4794 17.4557 80.3137 17.6292 80.0326 17.6798C79.8165 17.7159 79.6075 17.7232 79.3985 17.7015C79.1679 17.6726 78.9806 17.6726 78.8292 17.7015C74.2678 18.7062 70.3045 20.6361 66.9538 23.4984C63.5597 26.3968 61.9312 31.0083 60.8359 35.2945C60.7998 35.4391 60.6269 35.4969 60.5044 35.4102C60.3819 35.3162 60.3026 35.1644 60.2522 34.9548C59.4595 31.1095 60.1801 27.5967 62.4212 24.4163C66.4926 18.6122 72.0124 15.1861 78.9734 14.1236C79.1391 14.0947 79.7084 14.1019 80.674 14.138C81.3009 14.1597 81.8918 14.0079 82.4466 13.6827C82.67 13.5598 82.843 13.6032 82.9727 13.82C83.1528 14.1236 83.1168 14.485 82.8646 14.9114C82.6124 15.3379 82.425 15.8655 82.2881 16.5016C82.2377 16.7474 82.0863 16.8702 81.8341 16.8702ZM83.16 21.6263C83.0087 21.8721 82.8502 21.8793 82.6772 21.6552C82.6124 21.5757 82.5691 21.4817 82.5475 21.3805C82.4394 20.983 82.3818 20.7734 82.3746 20.7589C82.2665 20.4337 82.2881 20.1156 82.4322 19.8048C82.5403 19.5591 82.7061 19.5157 82.9222 19.6747C83.578 20.159 83.6572 20.8095 83.16 21.6263ZM83.9527 16.8486C83.7293 17.0148 83.4699 17.0726 83.1672 17.022C82.915 16.9859 82.7997 16.8341 82.8141 16.5811C82.879 15.5403 83.3474 13.6754 84.5724 13.4514C85.0192 13.3719 85.3867 13.4369 85.6821 13.661C85.8911 13.8272 86.0064 14.0802 85.9848 14.3404L85.8118 16.6968C85.7902 17.0365 85.329 17.1305 85.1777 16.8196C85.012 16.4799 84.9399 16.0824 84.9471 15.6126C84.9543 15.2367 84.839 15.2006 84.6084 15.4969C84.4283 15.721 84.3202 15.9812 84.2842 16.2703C84.2481 16.5088 84.14 16.6968 83.9527 16.8486ZM86.9936 21.6914C86.9288 21.901 86.8351 22.06 86.7198 22.1539C86.5036 22.3346 86.3595 22.2913 86.2946 22.0094C86.1793 21.5251 85.9488 21.1276 85.6101 20.824C85.4155 20.6577 85.2426 20.6722 85.0768 20.8674C84.9543 21.0191 84.8462 21.1782 84.7526 21.3589C84.6012 21.6552 84.5364 21.6335 84.5436 21.3083C84.5436 20.9685 84.4931 20.6071 84.3562 20.2385C84.2626 19.9928 84.349 19.8482 84.6084 19.7976C84.7454 19.7687 84.8895 19.7831 85.0408 19.8337C85.1489 19.8699 85.2642 19.9566 85.3939 20.1012C85.7037 20.4337 86.0352 20.6288 86.3883 20.6939C86.8495 20.7806 87.1305 21.2432 86.9936 21.6914ZM87.2242 16.9642C87.0585 17.1594 86.8567 17.2244 86.6117 17.1666C86.5324 17.1449 86.4604 17.116 86.3955 17.0726C86.1865 16.9281 86.1289 16.7329 86.2082 16.4944C86.2946 16.2559 86.3667 16.0101 86.4316 15.7644C86.6333 14.962 86.2442 14.4488 86.4964 13.7766C86.691 13.2707 87.3972 13.2345 87.6278 13.726C88.197 14.9114 88.0673 15.9884 87.2242 16.9642ZM89.0906 17.434C89.0401 17.622 88.9104 17.7304 88.7159 17.7665C88.6078 17.781 88.5141 17.7521 88.4276 17.6726C88.3195 17.5714 88.2763 17.4485 88.2907 17.3039L88.6582 14.0513C88.6942 13.7405 88.8456 13.661 89.1194 13.8128C89.3284 13.9212 89.4725 14.0802 89.5518 14.2754C89.667 14.5356 89.8184 14.5645 90.0129 14.3621C90.2651 14.1019 90.575 13.9863 90.9425 14.0079C91.2091 14.0296 91.3388 14.1742 91.346 14.4416C91.346 14.6151 91.31 14.7886 91.2452 14.962C91.1587 15.1861 91.0002 15.3524 90.7768 15.4463C89.912 15.8294 89.35 16.4872 89.0906 17.434ZM94.3149 21.9371C93.8754 22.06 93.7528 21.9154 93.9618 21.5034C94.1276 21.1782 94.3221 20.8601 94.5455 20.5638C94.9058 20.0795 95.0932 20.1373 95.1148 20.7372C95.1292 21.3805 94.8626 21.7853 94.3149 21.9371ZM96.7289 22.7322C96.5632 22.6816 96.4046 22.6021 96.2677 22.4792C96.138 22.3636 96.0948 22.2262 96.1452 22.06C96.1741 21.9516 96.2245 21.8504 96.3038 21.7636C96.383 21.6697 96.4407 21.6841 96.4911 21.7998C96.5272 21.8721 96.5344 21.9588 96.5127 22.06C96.4911 22.1684 96.5127 22.2551 96.592 22.3274L96.8298 22.5659C97.0099 22.7539 96.9739 22.8117 96.7289 22.7322ZM99.042 26.0282C98.8331 25.9776 98.6385 25.8547 98.4728 25.6595C98.3503 25.5222 98.4367 25.2981 98.6241 25.2837C98.7898 25.2765 98.9484 25.3415 99.0997 25.4788C99.2654 25.4861 99.3663 25.5656 99.3879 25.7029C99.424 25.9053 99.2438 26.0715 99.042 26.0282ZM100.757 29.4254C100.462 28.8833 100.073 28.4062 99.5969 28.0014C99.3951 27.828 99.4528 27.5027 99.6978 27.416C99.7843 27.3798 99.8779 27.3798 99.9716 27.416C100.181 27.4738 100.296 27.6111 100.325 27.828C100.361 28.0809 100.44 28.3122 100.57 28.5291C100.671 28.6953 100.829 28.811 101.045 28.8905C101.384 29.0134 101.607 29.0712 101.723 29.064C102.537 29.035 102.616 29.2663 101.968 29.7506C101.802 29.8807 101.571 29.9096 101.276 29.8374C101.038 29.7795 100.865 29.6422 100.757 29.4326V29.4254ZM101.968 35.4174C102.22 35.3451 102.386 35.4319 102.479 35.6704C102.775 36.4293 102.753 37.1521 102.414 37.846C102.321 38.034 102.054 38.034 101.968 37.846C101.651 37.1594 101.478 36.6173 101.456 36.2342C101.434 35.7933 101.6 35.5258 101.968 35.4174ZM102.717 39.1326C103.049 39.1182 103.236 39.5013 103.02 39.747C102.883 39.906 102.652 39.9205 102.328 39.7831C102.263 39.7615 102.227 39.6892 102.249 39.6169C102.342 39.3061 102.494 39.1471 102.717 39.1326ZM102.811 47.0546C102.681 47.1991 102.443 47.1558 102.371 46.975C102.205 46.5558 102.292 46.2595 102.631 46.0788C102.847 45.9631 102.998 46.021 103.092 46.245C103.178 46.4763 103.092 46.7438 102.811 47.0546ZM102.551 44.5464C102.033 44.4741 101.831 44.2212 101.953 43.7947C101.989 43.6574 102.112 43.5634 102.256 43.5562C102.796 43.5417 103.092 43.6718 103.135 43.9537C103.185 44.3007 102.897 44.597 102.551 44.5464ZM102.955 32.6274C102.45 32.5696 102.054 32.3889 102.069 32.2154C102.083 32.0419 102.508 31.9479 103.02 31.9985C103.524 32.0564 103.921 32.2371 103.906 32.4105C103.892 32.584 103.467 32.678 102.955 32.6274ZM106.572 37.9472C105.881 37.9183 105.326 37.687 105.333 37.434C105.347 37.1811 105.917 36.9931 106.608 37.022C107.3 37.0509 107.855 37.2822 107.848 37.5352C107.833 37.7882 107.264 37.9761 106.572 37.9472ZM106.947 39.5735C106.882 39.6386 106.81 39.7109 106.738 39.7831C106.731 39.7831 106.644 39.9133 106.493 40.1446C106.457 40.1951 106.414 40.2385 106.363 40.2747C106.327 40.2963 106.291 40.2963 106.255 40.2747C106.154 40.2024 106.082 40.1012 106.032 39.9711C105.967 39.7904 106.061 39.5952 106.241 39.5446L106.825 39.3711C107.134 39.2772 107.17 39.3495 106.947 39.5735ZM107.192 51.5649C107.041 51.7311 106.839 51.8178 106.572 51.8251C106.306 51.8323 106.133 51.7022 106.061 51.442C106.032 51.3408 106.032 51.2324 106.061 51.1167C106.111 50.8565 106.262 50.7047 106.522 50.6686C106.825 50.618 107.055 50.7047 107.221 50.9288C107.387 51.1456 107.379 51.3552 107.199 51.5649H107.192ZM107.805 49.3169C107.776 49.4254 107.689 49.4976 107.581 49.4976C106.961 49.4904 106.342 49.4037 105.722 49.2374C105.225 49.1001 105.218 48.9555 105.715 48.811C106.19 48.6664 106.868 48.6375 107.754 48.7242C107.891 48.7315 107.941 48.8037 107.905 48.9338L107.805 49.3169ZM108.05 48.2255C108.05 48.2255 108.05 48.2472 108.035 48.2472C108.021 48.2472 108.028 48.2472 108.021 48.2544C108.014 48.2544 108.014 48.2472 108.014 48.24V48.2038C108.014 48.2038 108.006 48.146 107.992 48.1243C107.797 47.8641 107.588 47.6111 107.372 47.3581C107.221 47.1774 107.185 46.9751 107.278 46.7582C107.603 45.9559 107.668 45.1247 107.487 44.2645C107.437 44.026 107.509 43.8309 107.711 43.6935C107.819 43.614 107.934 43.5706 108.064 43.5634C108.331 43.5417 108.446 43.6646 108.41 43.932C108.222 45.3704 108.1 46.8016 108.05 48.2255ZM109.224 38.2363C109.102 39.7036 108.95 41.1565 108.777 42.5949C108.712 43.108 108.525 43.1586 108.201 42.7466C107.805 42.2335 107.833 41.6624 108.287 41.0408C108.424 40.8529 108.439 40.6577 108.331 40.4554C108.021 39.8843 108.006 39.3206 108.287 38.7785C108.395 38.5688 108.446 38.352 108.424 38.1207L108.194 35.3596C108.172 35.1138 108.042 34.9837 107.79 34.962C107.336 34.9331 106.904 34.897 106.507 34.8536C105.909 34.7886 105.65 34.5139 105.722 34.0369C105.758 33.7839 105.902 33.6176 106.147 33.5526L106.652 33.4152C106.889 33.3502 106.99 33.1984 106.961 32.9526C106.882 32.2732 106.572 31.7456 106.032 31.3625C105.938 31.2974 105.902 31.2035 105.931 31.0878C105.945 31.0228 105.96 30.9577 105.967 30.8782C105.967 30.8276 105.96 30.7842 105.938 30.7336C105.254 29.0278 104.49 27.3581 103.654 25.7246C103.258 24.9512 102.681 24.4019 101.924 24.0766C101.708 23.9826 101.586 23.8236 101.55 23.5996C101.398 22.6093 100.75 22.1106 99.5897 22.1033C99.2582 22.0961 98.9844 21.8431 98.9628 21.5106C98.9123 20.7662 98.5376 20.4698 97.8242 20.6361C97.572 20.6939 97.4495 20.5999 97.4567 20.3469C97.4639 20.1084 97.4135 19.8916 97.3054 19.6892C97.1829 19.4579 97.0028 19.3856 96.7505 19.4723C96.6425 19.5085 96.5488 19.5663 96.4623 19.6386C96.3254 19.747 96.1668 19.7904 95.9867 19.7687C95.4751 19.7036 95.122 19.2483 94.9274 18.4026C94.8049 17.8533 94.5671 17.7954 94.214 18.2291C93.8537 18.67 93.3349 18.7857 92.6575 18.5616C92.4269 18.4821 92.3765 18.3448 92.5062 18.1352C92.8809 17.5497 93.1043 16.8919 93.1764 16.1474C93.2124 15.7788 93.0899 15.721 92.8161 15.9595C92.1171 16.5811 91.6055 17.2822 91.2956 18.0629C91.1731 18.3665 90.82 18.4966 90.5318 18.352C90.1787 18.1785 90.085 17.8749 90.2435 17.4485C90.5822 16.5016 91.0506 15.6993 91.6487 15.0415C91.973 14.6801 92.3693 14.579 92.8305 14.7452C98.5665 16.8196 103.034 20.4481 106.234 25.6306C108.655 29.5555 109.628 33.6538 109.224 38.2363ZM115.861 47.7701C115.854 47.7051 115.868 47.6183 115.911 47.5244C115.947 47.4449 115.962 47.3581 115.955 47.2714C115.918 46.7365 116.106 46.4113 116.517 46.2884C116.776 46.2089 116.913 46.3101 116.92 46.5775C116.942 47.1341 116.675 47.575 116.113 47.893C115.969 47.9725 115.882 47.9364 115.861 47.7701ZM117.583 50.5746C117.425 51.2541 117.079 51.5721 116.553 51.5215C116.286 51.4998 116.228 51.3697 116.38 51.1456C116.653 50.7481 116.956 50.4807 117.28 50.3289C117.547 50.206 117.648 50.2855 117.583 50.5746ZM120.12 46.3028L119.918 46.2739C119.781 46.2522 119.73 46.18 119.752 46.0499C119.803 45.7607 119.766 45.5439 119.651 45.3921C119.485 45.1753 119.291 45.1536 119.075 45.3343C118.477 45.8186 118.131 46.4546 118.044 47.2425C118.023 47.4955 117.907 47.5461 117.706 47.387C117.54 47.2569 117.432 47.0979 117.396 46.91C117.36 46.7582 117.41 46.5847 117.54 46.3896C117.893 45.8619 118.275 45.3704 118.693 44.9006C118.851 44.7127 119.053 44.6476 119.291 44.6982C119.947 44.8355 120.264 45.3343 120.242 46.1944C120.242 46.2739 120.199 46.3101 120.12 46.3028ZM121.618 45.0958C121.489 45.2909 121.186 45.2475 121.114 45.0163C121.049 44.7922 121.064 44.5681 121.172 44.3296C121.237 44.1778 121.309 44.0188 121.388 43.8598C121.503 43.6212 121.618 43.6212 121.727 43.867C121.921 44.2934 121.885 44.7054 121.618 45.0958ZM123.701 44.7054C123.492 44.7271 123.269 44.279 123.204 43.6935C123.139 43.108 123.261 42.6165 123.463 42.5949C123.672 42.5732 123.896 43.0213 123.96 43.6068C124.025 44.1923 123.903 44.6838 123.701 44.7054ZM123.773 41.2071C123.852 41.1709 123.903 41.1998 123.91 41.2866C123.989 41.8865 123.903 42.2696 123.665 42.4286C123.542 42.5153 123.369 42.4431 123.348 42.2913C123.261 41.7058 123.406 41.3444 123.773 41.2071ZM125.877 44.0766C125.755 44.5464 125.567 44.5753 125.33 44.1489C125.106 43.7658 125.121 43.3393 125.38 42.8768C125.459 42.7394 125.495 42.6021 125.502 42.4503C125.517 42.2118 125.589 41.9877 125.719 41.7925C125.877 41.554 125.971 41.5829 126 41.8648C126.086 42.696 126.043 43.4333 125.877 44.0766ZM127.138 43.7297C126.944 43.2815 127.174 42.9129 127.816 42.6165C127.952 42.5515 128.046 42.5949 128.104 42.7322C128.298 43.202 128.205 43.5923 127.83 43.9031C127.599 44.0911 127.254 44.0043 127.138 43.7297ZM128.169 78.2653C127.996 78.2869 127.801 77.8966 127.736 77.3907C127.671 76.8847 127.751 76.4582 127.916 76.4293C128.089 76.4077 128.284 76.798 128.349 77.3039C128.414 77.8099 128.334 78.2364 128.169 78.2653ZM130.071 45.3777C129.876 45.3777 129.725 44.7344 129.74 43.9537C129.754 43.1731 129.92 42.5443 130.114 42.5443C130.309 42.5443 130.46 43.1876 130.446 43.9682C130.431 44.7488 130.266 45.3777 130.071 45.3777ZM132.716 43.1008C132.665 43.8164 132.456 44.4452 132.082 44.9801C131.844 45.3271 131.772 45.2981 131.88 44.8861C132.046 44.2645 132.262 43.6574 132.536 43.0574C132.672 42.7539 132.737 42.7683 132.716 43.1008ZM133.307 71.9841C133.213 72.2804 132.781 72.2298 132.759 71.919C132.73 71.507 132.759 71.1312 132.838 70.7987C132.946 70.3433 133.04 70.3506 133.119 70.8131C133.155 71.0228 133.184 71.2396 133.206 71.4709C133.206 71.5432 133.242 71.6155 133.278 71.695C133.328 71.7889 133.343 71.8901 133.307 71.9841ZM134.46 76.3065C134.186 76.3065 133.977 75.9234 133.991 75.4752C134.006 75.0271 134.243 74.6729 134.517 74.6802C134.791 74.6802 135 75.0632 134.986 75.5114C134.971 75.9595 134.733 76.3137 134.46 76.3065ZM135.677 44.1706C135.231 44.8717 134.748 45.3271 134.222 45.5367C133.854 45.6885 133.775 45.5873 133.991 45.2475C134.46 44.5175 134.935 44.0549 135.425 43.8598C135.821 43.708 135.901 43.8092 135.677 44.1706ZM136.931 67.987C136.895 67.828 136.816 67.6906 136.708 67.5678C136.643 67.5027 136.592 67.4232 136.556 67.3365C136.492 67.1991 136.499 67.069 136.585 66.9606C136.621 66.9028 136.672 66.8522 136.729 66.816C136.859 66.7365 136.974 66.751 137.082 66.8666C137.551 67.3798 137.688 67.9653 137.508 68.6303C137.436 68.8977 137.335 68.9122 137.198 68.6664C137.075 68.4568 136.989 68.2255 136.931 67.987ZM139.958 49.4181C139.475 49.3892 139.086 49.2085 139.093 49.0134C139.107 48.811 139.511 48.6736 139.994 48.7026C140.477 48.7315 140.866 48.9122 140.858 49.1073C140.844 49.3097 140.44 49.447 139.958 49.4181ZM141.226 51.3119C141.356 51.2757 141.485 51.2757 141.608 51.3191C141.918 51.4131 142.055 51.6082 142.026 51.8974C141.99 52.2226 141.81 52.3889 141.485 52.3816C141.219 52.3816 140.988 52.3094 140.786 52.1576C140.577 51.9985 140.585 51.6733 140.801 51.5215C140.938 51.4275 141.075 51.3552 141.226 51.3119ZM139.172 47.64C139.136 47.6979 139.093 47.734 139.043 47.7557C138.891 47.8063 138.805 47.7557 138.769 47.5967C138.718 47.3581 138.625 47.1485 138.495 46.9606C138.358 46.7654 138.171 46.6353 137.94 46.5775C137.241 46.4113 136.866 46.021 136.823 45.3921C136.809 45.168 136.888 45.1319 137.054 45.2837L139.115 47.1919C139.259 47.3292 139.28 47.4738 139.172 47.64ZM137.969 72.2443C137.767 72.2877 137.479 71.7962 137.335 71.1384C137.191 70.4879 137.241 69.9169 137.443 69.8735C137.645 69.8301 137.933 70.3216 138.077 70.9794C138.221 71.6299 138.171 72.2009 137.969 72.2443ZM138.819 50.7264C139.316 50.4807 139.792 50.3795 140.246 50.4301C140.505 50.4517 140.57 50.5818 140.44 50.8059C140.26 51.1095 140.066 51.3769 139.85 51.6082C139.432 52.0564 139.035 52.0853 138.653 51.7022C138.365 51.4058 138.444 50.9143 138.819 50.7264ZM138.531 55.5692C138.516 55.3162 138.999 55.0849 139.612 55.056C140.217 55.0271 140.722 55.2078 140.736 55.4608C140.75 55.7138 140.268 55.9451 139.655 55.974C139.05 56.0029 138.545 55.8222 138.531 55.5692ZM139.533 60.4409C139.497 60.3903 139.468 60.3325 139.439 60.2819C139.36 60.1156 139.374 59.9494 139.468 59.7904C139.677 59.4507 139.886 59.2049 140.102 59.0603C140.383 58.8869 140.664 58.8724 140.959 59.017L142.487 59.7904C142.79 59.9422 142.775 60.0434 142.437 60.0795C141.399 60.2024 140.613 60.3758 140.087 60.5999C139.857 60.7011 139.669 60.6505 139.533 60.4409ZM142.235 62.9852C141.68 62.9057 141.147 62.9635 140.628 63.1586C140.534 63.1948 140.44 63.137 140.426 63.0358L140.412 62.8045C140.397 62.6816 140.455 62.5587 140.556 62.4864C141.103 62.1034 141.673 62.0311 142.256 62.2551C142.422 62.313 142.523 62.4214 142.573 62.5804C142.682 62.9057 142.566 63.0358 142.235 62.9852ZM145.182 64.1706C145.182 64.1706 144.771 65.197 143.986 67.1558C143.575 68.1749 143.287 69.2447 143.121 70.365C143.063 70.7264 142.638 70.8854 142.372 70.6469C142.163 70.4662 142.047 70.1699 142.026 69.7579C141.947 68.4207 141.759 67.1052 141.449 65.8041C141.399 65.5656 141.276 65.3704 141.089 65.2186C140.779 64.9657 140.549 64.6621 140.383 64.3079C140.268 64.0694 140.34 63.9248 140.599 63.8887C140.887 63.8453 141.176 63.8598 141.457 63.9248C141.702 63.9899 141.853 64.1417 141.918 64.3802C142.004 64.7199 142.026 65.0379 141.975 65.3343C141.903 65.7318 141.975 66.1077 142.199 66.4546L142.653 67.1413C142.912 67.5461 143.1 67.5172 143.208 67.0473C144.245 62.6455 144.166 58.1857 142.963 53.6682C142.725 53.4875 142.638 53.2562 142.71 52.9599C142.768 52.7286 142.768 52.4973 142.718 52.266C141.593 47.2642 138.812 43.5923 134.373 41.2432C133.472 40.7662 132.363 40.9252 131.483 40.253C131.029 39.906 130.374 40.2602 130.424 40.8312C130.46 41.1854 130.41 41.4167 130.28 41.5396C130.143 41.6769 130.071 41.648 130.071 41.4528C130.071 40.506 129.617 40.0434 128.702 40.0506C128.543 40.0506 128.421 40.1229 128.334 40.2602L128.219 40.4481C128.097 40.6361 127.96 40.6433 127.816 40.477C127.232 39.7904 126.576 39.6964 125.848 40.1951C125.661 40.3253 125.466 40.3325 125.265 40.2168C124.703 39.8916 124.191 39.9566 123.737 40.412C123.571 40.5782 123.377 40.6433 123.146 40.6216C121.921 40.4843 121.208 41.0625 121.013 42.3563C120.977 42.6093 120.84 42.6816 120.61 42.5587C120.429 42.4648 120.343 42.313 120.343 42.1178C120.343 41.9949 120.415 41.8215 120.559 41.5974C120.61 41.5106 120.66 41.4239 120.696 41.3299C120.811 41.0914 120.747 41.0119 120.494 41.0987L118.916 41.6263C118.621 41.7203 118.534 41.9154 118.65 42.2045L119.176 43.5417C119.313 43.8959 119.226 43.961 118.916 43.7441C118.426 43.4044 118.152 42.9273 118.087 42.3274C118.059 42.0744 117.929 42.0022 117.691 42.0961C117.439 42.1973 117.266 42.3852 117.18 42.6671C116.935 43.4405 116.884 44.2429 117.028 45.0596C117.071 45.2981 116.978 45.3849 116.74 45.3126C115.782 45.0307 115.501 44.4091 115.911 43.4478C116.149 42.8984 116.012 42.7828 115.501 43.1008C114.83 43.5273 114.196 43.9682 113.598 44.438C112.294 45.4499 111.977 47.2353 111.343 48.7098C110.946 49.6277 111.163 49.8157 111.991 49.2591C112.193 49.129 112.445 49.1651 112.748 49.3603C112.95 49.4904 113.166 49.5121 113.389 49.4326C113.786 49.288 114.095 49.0061 114.319 48.5797C114.333 48.5508 114.355 48.5435 114.376 48.558L114.535 48.6592C114.643 48.7242 114.657 48.8037 114.578 48.8977C114.131 49.4832 113.504 49.8012 112.697 49.859C111.854 49.9241 111.235 50.6758 111.328 51.5143C111.379 51.9985 111.393 52.4973 111.364 53.0032C111.314 53.82 111.105 53.8634 110.73 53.1406C110.312 52.331 110.283 51.3842 110.651 50.2927C110.73 50.0687 110.701 49.8518 110.572 49.6567L110.428 49.4326C110.305 49.2374 110.269 49.0278 110.319 48.8037C111.292 44.4597 113.829 41.3444 117.943 39.4723C125.135 36.198 133.717 35.6776 139.785 41.0119C146.205 46.657 147.603 56.227 145.182 64.1706ZM114.348 45.4066C114.427 45.515 114.477 45.6234 114.513 45.7463C114.571 45.9559 114.535 46.1438 114.412 46.3173L112.741 48.652C112.683 48.7315 112.611 48.7459 112.524 48.6953L112.359 48.5941C112.359 48.5941 112.337 48.5508 112.359 48.5146L114.319 44.8645C114.319 44.8645 114.326 44.8572 114.326 44.8645C114.326 44.8645 114.328 44.8669 114.333 44.8717C114.312 44.9223 114.297 44.9873 114.283 45.0596C114.254 45.1825 114.276 45.2981 114.348 45.4066Z" fill="black"/>
</g>
<defs>
<clipPath id="clip0_2001_196">
<rect width="150" height="120" fill="white" transform="translate(0.5)"/>
</clipPath>
</defs>
</svg>
