<svg width="211" height="120" viewBox="0 0 211 120" fill="none" xmlns="http://www.w3.org/2000/svg">
<g clip-path="url(#clip0_2085_5)">
<path d="M41.0929 20.1931C38.348 14.7547 35.812 8.267 34.4214 2.46364C34.2123 1.59678 34.4486 0.88505 35.1303 0.319314C35.3576 0.136818 35.603 0.0364457 35.8848 0.00907138C37.0755 -0.0913012 37.8208 0.437936 38.1207 1.59678C39.6296 7.45489 41.7019 13.3495 44.3288 19.2806C44.5196 19.7277 44.4106 20.2478 44.0561 20.5672C43.5562 21.0143 42.9199 21.1603 42.1473 21.0052C41.6928 20.9139 41.302 20.6128 41.0929 20.1931Z" fill="black"/>
<path d="M182.35 6.93474L183.632 7.05336C184.086 7.09898 184.35 7.35448 184.414 7.80159L185.168 12.9936C185.313 14.0247 184.123 14.6908 183.332 14.0156C181.487 12.4552 180.841 10.3292 181.405 7.63735C181.496 7.19023 181.905 6.88911 182.35 6.93474Z" fill="black"/>
<path d="M30.1494 27.8307C30.7675 28.5424 30.6857 29.6374 29.9768 30.267L29.6041 30.5864C28.886 31.2069 27.7953 31.1248 27.1772 30.413L12.507 13.4044C11.889 12.6927 11.9708 11.5977 12.6797 10.9681L13.0524 10.6487C13.7705 10.0191 14.8612 10.1104 15.4793 10.8221L30.1585 27.8307H30.1494Z" fill="black"/>
<path d="M59.4443 12.7837C59.3443 13.4225 58.7444 13.8513 58.1082 13.7509L57.0902 13.5867C56.4539 13.4863 56.0267 12.8841 56.1267 12.2454L56.9993 6.87998C57.0992 6.24125 57.6991 5.81238 58.3354 5.91276L59.3534 6.077C59.9897 6.17737 60.4169 6.77961 60.3169 7.41834L59.4443 12.7837Z" fill="black"/>
<path d="M201.874 21.2151C201.247 21.9359 200.156 22.0089 199.438 21.3793L199.338 21.2972C198.62 20.6676 198.548 19.5726 199.175 18.8518L203.274 14.1525C203.901 13.4317 204.992 13.3587 205.71 13.9883L205.81 14.0704C206.528 14.7 206.601 15.795 205.974 16.5158L201.874 21.2151Z" fill="black"/>
<path d="M8.62579 38.9992C8.32584 39.8022 7.43508 40.2128 6.62613 39.9208L1.50884 38.0229C0.708977 37.7218 0.290867 36.8184 0.590815 36.0154L0.772602 35.5227C1.07255 34.7197 1.9633 34.3091 2.77226 34.6011L7.88955 36.499C8.68941 36.8002 9.10752 37.7035 8.80757 38.5065L8.62579 38.9992Z" fill="black"/>
<path d="M199.402 35.1305C193.648 29.8016 185.659 27.7303 177.369 28.2504C177.024 28.2686 176.697 28.0953 176.533 27.7941C175.87 26.617 175.142 25.4308 174.333 24.2537C167.326 14.0431 158.145 9.21608 146.793 9.78182C139.003 10.1651 131.641 13.1945 125.56 18.0671C125.206 18.35 124.715 18.35 124.36 18.0671C117.08 12.2638 108.636 9.17046 99.0375 8.77809C89.1573 8.38573 80.5225 11.0045 73.151 16.6345C68.4427 20.2388 64.7434 24.6461 62.0529 29.8655C60.9622 31.9915 59.8351 34.0811 58.6717 36.1159C58.5263 36.3714 58.2263 36.4901 57.9446 36.4171C52.1365 34.8841 46.392 35.0757 40.7021 36.9919C28.7587 41.0159 21.2146 49.3013 18.0787 61.8661C15.7155 71.2737 17.2789 82.406 24.4049 89.5233C31.7218 96.8231 41.2384 99.8343 51.3912 100.729C58.7262 101.376 66.5067 101.614 74.7417 101.44C94.0292 101.039 113.671 101.221 133.677 101.997C134.668 102.033 135.64 102.152 136.576 102.353C137.04 102.453 137.331 102.736 137.44 103.21C138.194 106.55 138.967 109.525 139.749 112.134C141.557 118.157 146.556 122.938 152.574 117.856C157.491 113.704 160.418 108.731 161.363 102.928C161.408 102.672 161.618 102.49 161.872 102.49C175.933 102.444 194.63 102.134 203.601 89.1218C206.991 84.2035 209.127 78.6192 210.027 72.3504C211.809 59.8677 208.637 43.6895 199.402 35.1305ZM204.056 70.5985C202.647 68.299 201.111 66.0726 199.447 63.91C199.084 63.4264 198.547 63.1709 197.848 63.1253C197.693 63.1162 197.539 63.1435 197.393 63.2165C197.12 63.3625 197.02 63.7093 197.175 63.983C199.129 67.3044 201.329 70.2974 203.774 72.9527C204.065 73.272 204.201 73.7192 204.137 74.148L203.71 76.9585C203.647 77.4056 203.465 77.4512 203.174 77.1045L191.794 63.7184C191.521 63.399 191.112 63.1435 190.622 62.9793C190.431 62.9154 190.231 62.9063 190.031 62.9519C189.649 63.034 189.567 63.2439 189.785 63.5633C193.521 69.029 197.339 73.856 201.247 78.0443C201.874 78.7287 202.092 79.5225 201.892 80.435L201.329 82.9626C201.12 83.8842 200.802 83.9298 200.374 83.0812C199.529 81.4387 198.72 79.9788 197.393 78.537C194.176 75.024 191.094 71.4015 188.158 67.6512C187.468 66.7661 186.65 66.4467 185.65 66.9668C185.095 67.2497 184.441 66.8847 184.395 66.2642L184.232 63.9648C184.214 63.6819 184.086 63.472 183.85 63.3352C183.423 63.0705 182.977 63.326 182.505 64.1016C182.223 64.567 182.287 65.1692 182.668 65.5707C185.841 68.883 189.04 72.6698 192.276 76.9311C193.03 77.9166 193.985 78.5827 194.657 79.6594C195.575 81.1102 196.539 82.5337 197.548 83.9298C198.938 85.846 198.566 87.1235 197.175 88.7933C196.957 89.0579 196.53 88.9667 196.43 88.6291C195.803 86.4847 195.384 84.5138 193.621 82.8713C190.022 79.5408 186.75 75.5806 183.141 72.2683C181.414 70.6897 179.778 68.9925 178.224 67.1949C178.115 67.0672 177.915 67.0489 177.769 67.1493L177.578 67.2862C177.351 67.4504 177.288 67.7698 177.424 68.0162C179.569 71.8395 182.65 74.5221 185.032 78.1173C185.195 78.3637 185.422 78.5462 185.704 78.6557C186.404 78.9294 186.913 78.975 187.468 79.5225C190.64 82.6706 192.739 86.4117 193.748 90.7551C193.785 90.9102 193.739 91.038 193.612 91.1384L191.476 92.7352C191.394 92.79 191.349 92.7717 191.34 92.6805C190.903 89.0944 189.767 86.0559 187.931 83.5739C187.413 82.8713 186.831 82.5428 186.195 82.5793C185.777 82.6067 185.513 83.0264 185.659 83.4097C186.986 86.8406 189.285 92.8903 185.313 95.2354C184.913 95.4726 184.732 95.354 184.777 94.8887C185.068 92.0235 184.895 89.0305 184.268 85.919C184.041 84.7875 183.377 84.3678 182.278 84.6598C181.887 84.7601 181.614 85.116 181.614 85.5266L181.705 95.4726C181.705 95.7555 181.569 95.9015 181.296 95.9289L179.578 96.0749C179.278 96.1023 179.105 95.9563 179.078 95.6551L177.951 85.2073C177.869 84.4317 177.433 84.0849 176.66 84.1853L175.352 84.3587C174.615 84.459 174.352 84.8605 174.543 85.5814C175.424 88.8937 175.861 92.3611 175.851 96.0019C175.851 96.6224 175.352 97.1242 174.733 97.1151H173.515C173.125 97.1151 172.797 96.8049 172.77 96.4125C172.597 94.0309 172.443 91.7132 172.297 89.4412C172.143 87.0778 170.598 85.3441 169.743 83.1268C169.153 81.603 168.335 80.6449 166.735 80.362C165.499 80.143 165.271 80.5263 166.062 81.5117C167.162 82.8987 168.189 84.4043 169.143 86.0194C169.298 86.284 169.334 86.5577 169.234 86.8588C168.589 88.8663 169.234 92.7078 169.58 95.2536C169.671 95.9015 169.407 96.3212 168.78 96.5129L167.926 96.7866C167.407 96.9417 167.08 96.7592 166.935 96.2391C166.262 93.8119 166.417 91.0745 165.862 88.9028C165.444 87.2603 164.626 83.8568 163.035 83.1816C162.745 83.0538 162.599 83.1542 162.608 83.4736C162.699 87.7987 163.799 91.9505 163.672 96.2756C163.663 96.595 163.499 96.7866 163.19 96.8687C162.781 96.9691 162.363 96.9326 161.954 96.7592C161.654 96.6315 161.454 96.3577 161.427 96.0293C161.145 92.5527 160.4 89.0944 159.191 85.6361C159.1 85.3715 159.109 85.116 159.209 84.8514L159.572 83.9207C159.763 83.4279 159.645 83.3184 159.2 83.6013C158.8 83.8568 158.554 84.2492 158.464 84.7784C157.627 89.8792 157.182 94.2773 157.136 97.9728C157.055 104.278 155.528 108.731 151.01 112.618C150.601 112.974 150.192 113.22 149.765 113.357C149.511 113.448 149.247 113.257 149.247 112.983C149.265 104.762 148.856 96.6041 148.011 88.4922C147.929 87.744 147.538 87.2603 146.82 87.0413C146.656 86.9957 146.484 86.9866 146.302 87.0231C145.866 87.1052 145.557 87.4885 145.566 87.9356C145.729 94.2408 145.911 100.491 146.102 106.705C146.157 108.256 146.975 110.592 148.547 113.704C148.729 114.078 148.611 114.525 148.256 114.744C148.156 114.808 148.047 114.845 147.938 114.854C147.193 114.89 146.475 114.534 146.029 113.905C143.921 110.967 141.966 105.902 142.966 102.079C143.293 100.811 143.412 99.4602 143.33 98.0276C143.121 94.5054 142.548 91.0563 141.612 87.671C141.53 87.3698 141.366 87.1417 141.103 86.9775C140.548 86.6307 139.967 86.5577 139.358 86.7676C139.04 86.868 138.885 87.087 138.894 87.4155L139.049 97.4071C139.058 97.9728 138.794 98.1645 138.258 97.982C137.622 97.7538 137.158 97.252 136.858 96.4946C136.813 96.3577 136.776 96.2117 136.749 96.0658L135.349 87.4063C135.277 86.9318 134.822 86.6034 134.34 86.6855L133.513 86.8315C132.959 86.9318 132.595 87.4793 132.732 88.0359C133.395 90.8555 133.631 93.7481 133.441 96.7319C133.413 97.0877 133.222 97.2885 132.868 97.3158C132.232 97.3706 131.623 97.3158 131.041 97.1516C130.796 97.0786 130.614 96.8687 130.577 96.6041C130.287 94.3503 130.268 92.1512 130.514 89.9978C130.632 88.9119 130.405 87.9082 129.832 86.9957C129.632 86.6946 129.369 86.4939 129.05 86.4026C128.341 86.2019 127.932 86.4665 127.823 87.2056C127.36 90.2259 127.342 93.2006 127.76 96.1296C127.869 96.9052 127.533 97.2611 126.76 97.179L125.524 97.0512C124.788 96.9691 124.224 96.3486 124.224 95.6004C124.224 92.3793 124.069 89.5872 123.779 87.2056C123.715 86.6672 123.406 86.3935 122.861 86.3844L121.724 86.3661C121.261 86.357 121.034 86.5942 121.052 87.0687L121.443 96.6954C121.452 97.0056 121.306 97.1607 120.997 97.1607L118.525 97.1425C118.171 97.1334 117.98 96.9509 117.952 96.595C117.743 93.5564 117.452 90.4723 117.062 87.3425C116.98 86.6855 116.789 86.2475 116.507 86.0376C116.171 85.7913 115.762 85.7548 115.262 85.9372C114.971 86.0467 114.807 86.2566 114.78 86.5669C114.444 89.7879 114.48 92.8995 114.871 95.9015C114.953 96.5585 114.671 96.887 114.008 96.887H112.408C111.853 96.887 111.599 96.6041 111.653 96.0475C111.935 93.1185 111.917 89.797 111.59 86.065C111.535 85.4171 111.19 85.0795 110.545 85.0339L109.826 84.9791C109.254 84.9335 108.972 85.2073 108.99 85.7821L109.245 96.4034C109.245 96.5585 109.172 96.6315 109.018 96.6224L105.618 96.5585C105.518 96.5585 105.482 96.5129 105.509 96.4125C106.382 92.863 106.3 89.2039 105.255 85.4354C105.182 85.1616 104.946 84.9518 104.655 84.9153C104.309 84.8696 103.964 84.9153 103.618 85.0704C103.328 85.2073 103.155 85.4901 103.164 85.8095L103.5 96.4399C103.509 96.5767 103.437 96.6497 103.3 96.6497L99.4828 96.5585C99.3101 96.5494 99.1738 96.4125 99.1738 96.2391L99.0556 85.8369C99.0556 85.4263 98.8557 85.2255 98.4466 85.2164L96.7197 85.189C96.4379 85.189 96.2107 85.4263 96.2197 85.7091L96.6106 96.741C96.6197 96.8779 96.547 96.9417 96.4106 96.9417L91.9569 96.887C91.8114 96.887 91.7478 96.814 91.7751 96.668C92.5113 92.0052 92.4386 87.6892 91.5478 83.7017C91.4297 83.1816 91.0752 82.9534 90.5026 83.0173C89.8663 83.0812 89.5391 83.4279 89.5118 84.0667C89.3573 88.4739 89.4573 92.5801 89.8299 96.3851C89.8481 96.522 89.7845 96.5859 89.6482 96.595L85.5216 96.8049C85.3489 96.814 85.258 96.7227 85.2671 96.5494C85.358 93.6294 85.3853 90.6183 85.3489 87.5067C85.3307 85.9555 85.7307 84.5868 86.0579 83.1177C86.1579 82.6523 85.9761 82.406 85.5034 82.3786C83.731 82.2691 82.8221 83.1542 82.7948 85.0248C82.7312 88.9667 82.3313 93.9853 83.6765 96.5859C83.8128 96.8596 83.731 97.0056 83.4311 97.0239C72.9511 97.763 62.3802 97.6626 51.7093 96.7319C49.3915 96.5311 46.8374 96.1205 44.0561 95.5091C37.9389 94.1678 32.758 91.3482 28.4951 87.0596C21.769 80.2708 20.4692 71.4471 22.8597 62.3771C25.3684 52.8417 31.0038 46.1441 39.7659 42.2843C44.9377 40.0031 53.7816 38.826 58.3081 42.7588C61.5167 45.551 63.1891 42.0014 63.5618 39.2549C63.9253 36.5266 64.8979 33.8712 66.4885 31.3072C78.341 12.1086 102.61 7.96599 120.534 21.3064C120.879 21.5619 120.906 21.8448 120.616 22.1641C119.334 23.5602 117.889 25.8323 116.298 28.9895C115.689 30.2122 115.971 31.1521 117.162 31.8182L117.743 32.1467C118.843 32.7671 119.725 32.539 120.388 31.4623C124.815 24.3176 130.786 19.3446 138.285 16.5342C151.274 11.6615 163.981 16.3152 170.607 28.6245C170.807 28.9895 170.671 29.4548 170.298 29.6465L165.862 31.9733C165.026 32.4113 164.399 33.1778 164.144 34.0902C163.926 34.8841 163.935 35.5958 164.181 36.2346C164.608 37.3569 165.917 37.8588 166.98 37.2839C174.643 33.123 182.114 32.3565 189.395 34.9753C199.02 38.4519 204.237 50.5331 204.946 59.9316C205.21 63.4082 205.337 66.8482 205.328 70.2426C205.319 71.8577 204.901 71.9763 204.056 70.5985Z" fill="black"/>
<path d="M30.1949 79.7596C30.6766 81.466 31.122 83.1632 31.5401 84.8513C31.8582 86.1561 31.4856 86.4025 30.4221 85.5904C26.541 82.6613 25.1776 73.573 25.223 69.2753C25.2321 68.1803 25.7229 67.8792 26.6955 68.381C26.7955 68.4358 26.8682 68.4723 26.8955 68.4905C27.868 68.9924 28.4043 69.7862 28.5224 70.8721C28.8588 74.0201 29.4223 76.9766 30.1949 79.7596Z" fill="black"/>
<path d="M37.5391 89.0397C37.8936 89.286 38.2117 89.4959 38.4753 89.6875C39.2479 90.2259 39.5478 90.0251 39.357 89.1035C38.8298 86.5669 38.7298 83.7747 39.0661 80.727C39.3024 78.5735 39.9205 78.4549 40.9203 80.3711C42.0565 82.552 41.6384 84.8879 42.0565 87.1691C42.3837 88.9393 42.6019 90.6274 42.72 92.2333C42.7473 92.5892 42.5837 92.717 42.2474 92.6348C38.5935 91.7132 35.3577 90.1529 32.549 87.9447C32.1309 87.6162 32.1673 86.9775 32.6218 86.7037C32.7672 86.6216 32.9308 86.5668 33.1035 86.5395C33.4216 86.503 33.5398 86.3296 33.4671 86.0194C32.749 82.6979 32.2218 79.0207 31.8855 74.9966C31.8219 74.2028 32.1855 73.8195 32.9762 73.8378H33.458C34.6032 73.8652 35.2304 74.4491 35.3395 75.5897L36.4484 87.1691C36.5211 87.9629 36.8847 88.5834 37.5391 89.0397Z" fill="black"/>
<path d="M180.851 80.1155L183.586 80.0608C183.75 80.0608 183.868 80.2342 183.805 80.3893C183.496 81.1558 183.005 82.0044 182.332 82.926C182.05 83.3183 181.66 83.4917 181.178 83.4278C180.923 83.3913 180.669 83.2271 180.423 82.9442C180.214 82.707 180.105 82.3785 180.078 81.9679C180.06 81.6485 180.042 81.3291 180.023 81.0098C180.023 80.7269 179.923 80.4623 179.76 80.2342C178.36 78.2358 176.688 76.3926 174.752 74.7046C174.388 74.3852 174.643 73.7921 175.124 73.8377L176.033 73.9198C176.633 73.9654 177.151 74.2027 177.588 74.6224C178.724 75.69 179.705 77.0314 180.542 78.6373C180.696 78.9202 180.678 79.2031 180.496 79.4677C180.314 79.7505 180.514 80.1247 180.851 80.1155Z" fill="black"/>
<path d="M173.134 75.5349C174.461 77.7614 175.215 79.5498 175.397 80.9094C175.515 81.8128 175.215 82.3603 174.506 82.561C174.188 82.6523 173.979 82.5337 173.888 82.2143C173.797 81.8767 173.815 81.5391 173.934 81.1832C174.034 80.9186 174.006 80.654 173.87 80.3985L172.534 77.9439C172.252 77.4238 172.188 76.8854 172.325 76.3197L172.497 75.6262C172.634 75.0787 172.843 75.0513 173.134 75.5349Z" fill="black"/>
<path d="M54.1725 94.4232C54.1725 94.6057 54.0271 94.7608 53.8362 94.7608L51.5639 94.7791C51.3821 94.7791 51.2276 94.6331 51.2276 94.4414L51.1003 76.5021C51.1003 76.3196 51.2458 76.1645 51.4366 76.1645L53.709 76.1462C53.8908 76.1462 54.0453 76.2922 54.0453 76.4839L54.1725 94.4232Z" fill="black"/>
<path d="M61.2168 94.3046C61.2259 94.7791 60.8532 95.1806 60.3805 95.1897L59.5443 95.208C59.0717 95.2171 58.6718 94.843 58.6627 94.3685L58.2627 79.1757C58.2536 78.7012 58.6263 78.2998 59.099 78.2906L59.9352 78.2724C60.4078 78.2633 60.8078 78.6374 60.8168 79.1119L61.2168 94.3046Z" fill="black"/>
<path d="M45.9376 94.2043C45.5922 94.2134 45.3013 93.9397 45.2922 93.5929L45.2468 92.3337C44.9923 84.9609 45.2104 78.9568 45.7467 78.9385L46.7101 78.9112C47.2373 78.8929 47.8827 84.8514 48.1372 92.2334L48.1826 93.4926C48.1917 93.8393 47.919 94.1313 47.5736 94.1404L45.9376 94.2043Z" fill="black"/>
<path d="M63.7255 94.5875L64.3163 79.486C64.3163 79.2853 64.489 79.121 64.6889 79.1119L65.7342 79.048C65.9524 79.0298 66.1341 79.194 66.1523 79.413L67.0703 95.0803C67.0794 95.3358 66.8522 95.5365 66.6068 95.4818L64.0436 94.989C63.8527 94.9525 63.7255 94.7791 63.7255 94.5875Z" fill="black"/>
<path d="M73.251 95.6278C73.2692 96.0657 72.9238 96.4399 72.4694 96.449L71.3786 96.4764C70.9333 96.4946 70.5697 96.1387 70.5606 95.6916L70.1698 81.6486C70.1516 81.2106 70.497 80.8365 70.9514 80.8274L72.0422 80.8C72.4875 80.7817 72.8511 81.1376 72.8602 81.5847L73.251 95.6278Z" fill="black"/>
<path d="M78.0229 95.7921C77.6866 95.8103 77.3957 95.5457 77.3775 95.1989L77.0867 88.0634C76.9413 84.6416 77.323 81.8494 77.9411 81.822L78.5773 81.7946C79.1954 81.7673 79.8135 84.5229 79.9498 87.9356L80.2498 95.0803C80.2679 95.4179 79.9953 95.7099 79.659 95.7282L78.0229 95.7921Z" fill="black"/>
<path d="M154.283 89.5688C154.719 94.0582 155.637 103.995 152.71 106.45C152.392 106.714 152.147 106.66 151.974 106.276C151.083 104.232 152.128 100.774 152.237 98.4107C152.292 97.3431 152.183 95.7189 151.91 93.5563C151.647 91.4576 151.556 89.3498 151.656 87.2329C151.665 86.9317 151.801 86.6945 152.065 86.5211C152.619 86.1561 153.074 86.2656 153.41 86.8496C153.901 87.68 154.192 88.5924 154.283 89.5688Z" fill="black"/>
</g>
<defs>
<clipPath id="clip0_2085_5">
<rect width="210" height="120" fill="white" transform="translate(0.5)"/>
</clipPath>
</defs>
</svg>
