<svg width="105" height="118" viewBox="0 0 105 118" fill="none" xmlns="http://www.w3.org/2000/svg">
<g clip-path="url(#clip0_2028_317)">
<path d="M103.76 45.1801C101.34 24.0001 87.91 7.34006 66.99 2.60006C46.41 -2.06994 23.55 1.94006 10.72 19.5801C-2.30999 37.4801 -2.59999 60.0001 11.1 77.4201C16.07 83.7401 22.15 88.0101 29.34 90.2401C29.83 90.4001 30.09 90.9301 29.9 91.4101C26.08 101.05 18.58 107.53 10.3 113.46C9.32001 114.16 8.94001 114.94 9.15001 115.79C9.35001 116.59 10.06 117.16 10.89 117.18C21.55 117.45 31.61 114.61 41.07 108.66C45.67 105.77 49.38 102.86 52.21 99.9301C54.36 97.7001 56.93 96.1601 60.1 96.1901C67.56 96.2601 76.3 94.9501 82.52 90.8001C98.16 80.3501 105.87 63.6601 103.76 45.1801ZM50.39 79.3401C47.14 79.3401 44.5 76.7001 44.5 73.4501C44.5 70.2001 47.14 67.5601 50.39 67.5601C53.64 67.5601 56.28 70.2001 56.28 73.4501C56.28 76.7001 53.64 79.3401 50.39 79.3401ZM68.28 42.6701C66.43 46.4901 64.13 49.3701 61.39 51.3001C58.87 53.0601 56.44 54.0901 55.41 56.8401C55.03 57.8501 54.69 58.8501 54.38 59.8401C54.25 60.2801 53.86 60.5901 53.4 60.6201C51.49 60.7601 47.29 60.6501 45.92 59.0001C44.33 57.0801 46.46 52.1501 47.73 50.6001C50.54 47.2101 54.72 44.7001 55.46 39.3901C56.52 31.7101 48.58 29.1101 43.29 33.4501C41.44 34.9701 38.92 39.7801 35.79 38.6801C29.02 36.2901 33.27 28.2201 36.94 25.2301C42.6 20.6201 52.44 19.6201 59.37 22.0601C68.07 25.1201 72.46 34.0901 68.28 42.6701Z" fill="black"/>
</g>
<defs>
<clipPath id="clip0_2028_317">
<rect width="103.22" height="116.4" fill="white" transform="translate(0.890015 0.800049)"/>
</clipPath>
</defs>
</svg>
