<svg width="100" height="160" viewBox="0 0 100 160" fill="none" xmlns="http://www.w3.org/2000/svg">
<g clip-path="url(#clip0_2356_2175)">
<path d="M99.9315 85.3773C99.4225 81.6697 97.6673 78.8393 94.6812 76.8712C93.4731 76.0752 92.5765 75.4487 91.999 74.9917C91.8015 74.8369 91.7103 74.6379 91.7255 74.3946C92.0446 69.7731 90.6465 65.7486 87.5237 62.3358C87.3565 62.1516 87.2653 61.9304 87.2425 61.6872C87.1818 60.928 87.1286 59.5718 87.0906 57.6037C86.969 52.0313 82.8356 48.9503 78.3374 46.0683C78.1247 45.9282 78.0943 45.7587 78.2387 45.5597C79.1429 44.3066 80.4801 43.061 80.8677 41.7416C81.278 40.3706 81.1868 38.7416 80.5865 36.8473C80.5257 36.6557 80.6093 36.4493 80.7841 36.3534C83.5194 34.8203 83.4814 31.8793 82.9496 29.1668C82.638 27.5968 81.8402 26.2332 80.5485 25.0833C80.3586 24.9138 80.351 24.7443 80.5181 24.56C81.9998 22.8794 82.5241 21.2579 82.1062 19.6879C81.2704 16.57 79.3784 14.5577 76.4303 13.6585C76.0504 13.5405 75.83 13.1646 75.9212 12.7887C77.0458 8.31457 79.0517 4.59226 81.939 1.62917C82.3873 1.1648 82.3341 0.766771 81.7718 0.435081C81.0196 -0.00717284 80.2674 -0.110365 79.5076 0.125503C78.5046 0.442452 77.7448 1.05424 77.2357 1.94611C75.6401 4.73231 74.1432 7.85757 72.7376 11.3145C72.5552 11.7568 72.0081 11.9337 71.5978 11.6757C69.3108 10.2384 67.3504 10.5774 65.7016 12.7076C65.5497 12.9066 65.3445 13.0098 65.0938 13.0172C61.9101 13.113 60.1625 12.2064 57.1537 14.5798C56.9637 14.7272 56.8345 14.941 56.7889 15.1769C56.713 15.5896 56.5686 15.9656 56.3558 16.3046C56.1963 16.5552 55.9759 16.6216 55.6948 16.5036C53.932 15.7518 51.9489 15.8624 49.7454 16.8279C45.8171 18.5454 42.3979 19.4962 40.9467 23.8893C40.316 25.7983 39.9665 27.6263 39.8981 29.3658C39.8753 29.9187 39.5258 30.4051 39.0015 30.6189C33.2345 32.9481 30.0584 36.9505 29.4886 42.6334C29.4658 42.8693 29.291 43.0683 29.0479 43.1273C19.7705 45.3386 15.8118 51.1616 17.1871 60.5963C17.2251 60.8396 17.1263 61.0091 16.906 61.1196C11.5948 63.67 9.13299 67.864 9.52809 73.6944C9.54329 73.9376 9.44451 74.1293 9.23936 74.2693C8.83666 74.542 8.19841 74.9327 7.33221 75.4339C4.48288 77.0776 2.44656 79.311 1.20806 82.1341C0.197495 84.4264 -0.174817 87.2495 0.0759238 90.6032C0.425441 95.2985 1.0181 99.979 1.84631 104.645C4.37651 118.834 6.64077 130.354 8.6543 139.192C9.69525 143.747 11.7164 148.155 15.3483 150.72C22.6882 155.909 32.7102 158.497 41.5773 159.484C55.9759 161.091 69.7211 158.976 82.8128 153.138C85.5861 151.907 88.0328 149.976 90.1603 147.344C91.8015 145.317 92.6601 142.413 93.0704 139.988C94.6736 130.546 96.5731 118.259 98.769 103.126C99.1793 100.289 99.3921 97.2223 99.7264 94.2666C99.8024 93.5811 99.8176 92.7334 99.7796 91.731C99.696 89.5492 100.175 87.161 99.9315 85.3773ZM83.8917 69.9647C83.8006 70.945 83.7018 71.8885 83.5878 72.7951C83.4586 73.8197 83.1851 74.7116 82.7748 75.4855C81.9694 76.9744 80.427 79.709 78.5958 80.1292C78.2919 80.1955 78.2615 80.1439 78.5122 79.967C79.5076 79.252 80.3206 78.4486 80.9512 77.5567C81.2932 77.0776 81.4527 76.5027 81.4375 75.8246C81.4299 75.5076 81.3387 75.4855 81.164 75.7509C80.4422 76.8491 79.7279 77.6378 79.0289 78.1022C76.7266 79.6427 74.47 81.0137 72.2589 82.2299C71.7498 82.51 71.4383 82.3699 71.3167 81.8171L71.1951 81.2496C71.1116 80.8515 71.3471 80.4609 71.7346 80.3356C75.6097 79.1046 78.1323 77.1366 81.2324 74.918C82.0606 74.3283 82.2885 73.5765 83.0103 72.8615C83.1091 72.7657 83.1623 72.6698 83.1699 72.574C83.1775 72.4929 83.1699 72.4045 83.1471 72.3234C83.1091 72.1981 83.0331 72.176 82.9268 72.2497L82.6912 72.3971C82.5013 72.5224 82.4329 72.4782 82.4937 72.2571C82.714 71.402 83.1167 70.6134 83.6866 69.891C83.8462 69.6846 83.9145 69.7067 83.8917 69.9647ZM71.0052 79.0162C71.5598 77.8884 72.3349 77.0924 73.315 76.6427C73.7405 76.4511 74.0369 76.0531 74.0901 75.6034L74.1736 74.9548C74.204 74.6968 74.3408 74.5273 74.5915 74.4462C76.5367 73.805 78.4058 72.9868 80.1914 71.9917C80.4346 71.859 80.5181 71.9254 80.4422 72.1834C80.3282 72.574 80.0774 72.8394 79.6899 72.972C79.4544 73.0531 79.2568 73.1784 79.0973 73.3627C77.9044 74.6895 76.4303 75.5519 75.2982 76.8639C74.1736 78.1685 73.4062 79.3405 71.6358 79.7606C71.1875 79.8638 70.8076 79.4216 71.0052 79.0162ZM78.8085 29.4027C79.3404 29.528 79.6519 29.8965 79.7431 30.5083C79.7887 30.7958 79.6975 30.84 79.4696 30.6557C79.3708 30.5747 79.2416 30.5452 79.0973 30.5747C78.9529 30.5968 78.8617 30.6779 78.8237 30.8179L78.611 31.7614C78.5426 32.0562 78.3526 32.2036 78.0411 32.211C77.5092 32.2331 77.1369 31.9972 76.9242 31.5181C76.8254 31.2896 76.8862 31.1275 77.1217 31.0317C77.7448 30.7663 78.1475 30.3167 78.3298 29.6754C78.3982 29.4395 78.5578 29.3511 78.8085 29.4027ZM77.1293 17.6461H77.1749C77.2433 17.624 77.3117 17.6609 77.3193 17.7272L78.0563 20.8746C78.0715 20.9409 78.0259 20.9999 77.9651 21.0146L77.9119 21.0294C77.2053 21.1841 76.4607 20.6018 76.2631 19.7247L76.21 19.511C76.0048 18.6338 76.4151 17.8009 77.1293 17.6461ZM75.868 37.2232C76.02 37.179 76.3087 37.6655 76.5063 38.3141C76.7114 38.9627 76.7494 39.5229 76.5899 39.5672C76.4379 39.6114 76.1492 39.1249 75.9516 38.4763C75.7465 37.8276 75.7085 37.2674 75.868 37.2232ZM74.0141 24.8327C74.394 24.2431 75.017 23.9482 75.3969 24.1841C75.7769 24.4126 75.7693 25.0833 75.3894 25.6804C75.0094 26.2701 74.3864 26.5649 74.0065 26.329C73.6266 26.1005 73.6342 25.4298 74.0141 24.8327ZM74.7967 42.685C74.6979 43.0388 74.4928 43.3042 74.166 43.4885C73.9457 43.6138 73.8545 43.5548 73.8925 43.3116C73.8925 43.2452 73.9229 43.1789 73.9533 43.1199C73.9913 43.0536 74.0141 42.9872 74.0217 42.9356C74.0445 42.7661 74.0597 42.5892 74.0825 42.4123C74.1204 42.1322 74.2724 42.0511 74.5383 42.1617C74.6219 42.1986 74.6979 42.2649 74.7587 42.3607C74.8119 42.4565 74.8271 42.5597 74.7967 42.685ZM73.3454 34.0979C73.5506 33.8694 73.7557 33.8694 73.9609 34.0979C74.09 34.2527 74.1888 34.4149 74.242 34.5992C74.2724 34.7024 74.318 34.7982 74.3864 34.8793C74.7511 35.3068 74.6903 35.7048 74.2116 36.0733C73.7177 36.4493 72.9959 36.1913 72.8591 35.6016C72.7452 35.093 72.9123 34.5918 73.3454 34.0979ZM68.6117 15.8108C68.6649 15.3317 68.9917 14.8894 69.5843 14.4766C69.7895 14.3366 70.0174 14.2776 70.2682 14.3071C70.9824 14.3882 71.3091 14.7862 71.2407 15.5086C71.2255 15.7076 71.3395 15.8992 71.5371 15.9803C72.1221 16.2088 72.3197 16.5994 72.1373 17.1596C71.9474 17.7272 71.613 18.0368 71.1192 18.0957C70.838 18.1326 70.6633 18.0147 70.5873 17.7567C70.4125 17.1744 70.5417 16.7321 70.9824 16.4152C71.4991 16.0393 71.4383 15.796 70.8076 15.6781C70.2758 15.5823 69.8047 15.7444 69.402 16.1646C68.7865 16.8058 68.5206 16.6879 68.6117 15.8108ZM70.0402 42.4492C70.1086 42.6777 70.025 42.7809 69.7743 42.7661L68.6953 42.7072C68.5662 42.6998 68.4522 42.6408 68.3686 42.5524C68.0951 42.2502 68.1559 41.9258 68.5434 41.5794C69.174 41.0192 69.8427 40.7833 70.5417 40.8792C71.1192 40.9529 71.1571 41.1445 70.6633 41.4467C70.6101 41.4762 70.5113 41.5057 70.3593 41.5426C70.1694 41.5794 70.0554 41.6973 70.0174 41.8816C69.9794 42.0806 69.987 42.2723 70.0402 42.4492ZM67.7152 29.6533C67.396 29.4911 67.3732 29.0489 67.6772 28.8572L68.8625 28.1128C69.2044 27.899 69.4779 27.9654 69.6679 28.3118L70.6937 30.1324C70.9444 30.582 70.4429 31.0759 69.9794 30.8326L67.7152 29.6533ZM67.1149 21.3021C67.396 20.9262 68.1938 21.022 68.9005 21.5158C69.5995 22.0097 69.949 22.7099 69.6679 23.0932C69.3868 23.4691 68.589 23.3733 67.8823 22.8795C67.1833 22.3856 66.8338 21.6854 67.1149 21.3021ZM66.773 35.8375C66.7958 35.491 67.1757 35.2773 67.5024 35.4247C68.0875 35.6974 68.3154 36.0807 68.1862 36.5819C67.9963 37.2969 67.5784 37.7023 66.9325 37.7981C66.7654 37.8203 66.621 37.6876 66.6362 37.5254L66.773 35.8375ZM61.3707 17.2555C61.3707 16.9385 61.6442 16.6805 61.9785 16.6879H62.4268C63.7413 16.71 64.805 17.3144 64.7898 18.0441V18.2063C64.7747 18.9287 63.6957 19.4962 62.3812 19.4815H61.9329C61.5986 19.4667 61.3403 19.2014 61.3403 18.8771L61.3707 17.2555ZM60.6032 24.5969C61.0287 23.8377 62.1153 23.6165 63.0271 24.103C63.9464 24.5821 64.3416 25.5919 63.9085 26.3511C63.483 27.1103 62.3964 27.3315 61.4846 26.845C60.5652 26.3659 60.1701 25.3561 60.6032 24.5969ZM63.7793 38.55C63.4146 38.9554 62.9131 39.1249 62.67 38.9259C62.4268 38.7195 62.5256 38.2183 62.8979 37.8055C63.2626 37.4001 63.7641 37.2306 64.0072 37.4296C64.2504 37.636 64.1516 38.1372 63.7793 38.55ZM60.0562 33.7515C60.8464 32.211 61.9557 31.1496 63.3918 30.582C63.8021 30.4199 63.8629 30.501 63.5665 30.8253L62.9435 31.5329C62.8067 31.6877 62.7307 31.8793 62.7231 32.0857V34.9825C62.7155 35.2699 62.5712 35.4395 62.2824 35.4911C61.515 35.6385 60.8616 35.4911 60.3297 35.0562C59.8814 34.695 59.7902 34.2601 60.0562 33.7515ZM59.8206 42.0511L61.6062 41.4688C62.1533 41.2846 62.4192 41.4762 62.3964 42.0364L62.3812 42.5597C62.366 42.9357 62.1685 43.142 61.7886 43.1789C61.0515 43.2526 60.3753 43.1273 59.7522 42.8103C59.4255 42.6408 59.4635 42.1691 59.8206 42.0511ZM56.2267 31.8203L54.16 32.1963C53.5065 32.3216 52.8987 31.8203 52.9215 31.1717L53.005 28.2086C53.0202 27.6853 53.4533 27.2504 54.0004 27.2283L55.5656 27.1472C56.1051 27.1251 56.5762 27.4936 56.6598 28.0096L57.0701 30.6631C57.1537 31.2086 56.7813 31.7171 56.2267 31.8203ZM55.2465 40.2526C54.8894 40.3853 54.5475 40.4001 54.2207 40.2895C53.97 40.201 53.9016 40.0463 54.0308 39.8178C54.5475 38.8743 54.9426 37.7539 55.0641 36.9505C55.2389 35.7711 55.672 35.6827 56.3482 36.6778C57.4804 38.3436 57.1157 39.5377 55.2465 40.2526ZM52.382 20.7861C52.4352 20.2038 52.8835 19.7321 53.4685 19.6215L54.3879 19.4446C54.9274 19.3488 55.4744 19.5699 55.7708 20.0195L56.6294 21.2873C57.1157 22.0171 56.7509 22.99 55.8923 23.248L53.97 23.8229C53.0582 24.0956 52.154 23.3807 52.2376 22.4593L52.382 20.7861ZM51.9641 44.056C52.4048 43.8423 52.7923 43.9012 53.1266 44.2477L53.5521 44.6899C53.8484 44.9921 53.7876 45.169 53.3545 45.2206C51.9717 45.3828 49.2211 45.5155 48.4005 44.174C48.2562 43.9381 48.3245 43.857 48.5981 43.9234C49.2059 44.0781 49.791 44.2772 50.3609 44.513C50.604 44.6088 50.8471 44.6015 51.0827 44.4835L51.9641 44.056ZM50.7332 36.3461C50.6648 38.093 50.0341 39.5082 48.8564 40.6064C48.6665 40.7834 48.5145 40.9897 48.4081 41.2256C48.2941 41.4688 48.127 41.6679 47.8914 41.8226C47.6331 41.9922 47.2912 41.9406 47.086 41.7121C46.5466 41.0929 46.2426 40.319 46.1818 39.3829C46.0299 37.0537 47.048 35.6458 49.2439 35.152C50.0265 34.9751 50.7636 35.5721 50.7332 36.3461ZM44.8674 24.6706L46.5162 21.7443C46.8733 21.1031 47.2836 21.0736 47.7471 21.6559C48.241 22.2971 48.3625 23.1301 48.1042 24.162C48.051 24.3757 47.9066 24.501 47.6863 24.5453L45.1409 25.0318C44.7838 25.1055 44.6926 24.9875 44.8674 24.6706ZM44.0923 29.8671C44.2747 29.13 44.723 28.5993 45.4296 28.2676C46.1894 27.9211 47.1088 27.7148 48.1802 27.6484C48.4081 27.6337 48.5981 27.8327 48.5677 28.0538C48.3929 29.3437 48.3625 30.6115 48.4765 31.8498C48.5069 32.1373 48.3929 32.3584 48.1422 32.5058L46.273 33.6041C46.0603 33.7294 45.8551 33.722 45.65 33.5746C44.2443 32.5501 43.7276 31.3118 44.0923 29.8671ZM33.8879 41.5794C34.4274 37.577 36.6385 35.1446 40.506 34.2822C41.4254 34.0758 42.2384 34.9014 41.9876 35.7859C41.6381 37.0095 41.0986 38.0635 41.3798 39.3608C41.9648 42.1249 43.1805 44.3214 45.0421 45.9577C47.4583 48.0879 53.1038 48.2869 56.2723 47.852C57.0397 47.7415 57.7767 47.7488 58.4833 47.8594C59.2508 47.9847 60.0258 47.9257 60.8084 47.6825C61.9557 47.3287 63.0423 47.3803 64.068 47.8447C64.296 47.9479 64.5619 47.9626 64.7974 47.8741L65.808 47.5203C66.1955 47.3803 66.4083 47.5056 66.4311 47.911C66.4767 48.6628 66.0815 49.3041 65.2533 49.8348C65.2077 49.8643 65.1926 49.9233 65.2153 49.9749L65.3521 50.2402C65.3901 50.3287 65.4585 50.3581 65.5497 50.3213L67.6088 49.6432C67.9355 49.5326 68.0115 49.6211 67.8291 49.9085C67.32 50.6972 66.6058 51.2132 65.6864 51.4711C65.4661 51.5375 65.3673 51.4564 65.3977 51.2353C65.4129 51.0952 65.3977 50.9699 65.3597 50.8741C65.2457 50.6161 65.147 50.6235 65.0634 50.8815C64.6683 52.0829 63.8553 52.422 62.6244 51.8913C62.4116 51.7955 62.252 51.8544 62.1381 52.0608C61.9785 52.3483 61.781 52.5178 61.5378 52.5841C61.2643 52.6505 61.1731 52.5547 61.2719 52.2967C61.591 51.4711 61.3707 50.8888 60.6184 50.5572C60.4057 50.4613 60.3221 50.5203 60.3753 50.7488L60.702 52.2525C60.7552 52.5031 60.6564 52.6505 60.3981 52.7021C59.1748 52.9158 57.9591 53.1296 56.7509 53.336C56.7054 53.3434 55.8316 53.4392 54.1372 53.6087C52.5643 53.7709 51.0751 54.3089 49.6618 55.2229C49.4339 55.3777 49.4567 55.4662 49.7302 55.503C52.3592 55.8568 54.5171 55.8863 56.2039 55.5988C57.9743 55.2893 59.4559 55.0976 60.6488 55.0313C64.5087 54.7954 68.6117 53.8077 69.098 49.6505C69.1284 49.422 69.0828 49.2157 68.9537 49.024C68.399 48.1616 67.6392 47.6014 66.6742 47.3434C66.545 47.3066 66.4691 47.1665 66.5222 47.0486L66.6058 46.8422C66.6362 46.7759 66.6894 46.7538 66.7578 46.7759C68.6649 47.4319 69.6679 48.4786 69.7667 49.9159C69.8806 51.5449 69.3488 52.9306 68.1862 54.0731C67.3884 54.847 66.0967 55.4957 64.3112 56.0337C60.003 57.3163 55.6036 57.6922 51.0979 57.1688C45.0573 56.4686 40.0653 54.0731 36.1218 49.9749C34.1539 47.9331 33.4093 45.1395 33.8879 41.5794ZM13.6311 71.9843C13.9123 68.6158 15.3559 65.2473 19.1778 64.5987C19.4286 64.5545 19.6641 64.5987 19.8844 64.724C22.3843 66.1392 24.4206 68.0925 27.3155 69.3161C28.6224 69.8689 30.37 70.3259 32.5583 70.6871C35.6507 71.203 38.766 71.7558 41.8965 72.3455C42.983 72.5519 44.0847 72.6477 45.1865 72.6404C49.2819 72.5888 53.3773 72.6698 57.4804 72.8762C57.7387 72.891 57.8451 72.773 57.8071 72.5224L57.5336 70.8787C57.4956 70.6355 57.3436 70.5102 57.0853 70.5102C51.1967 70.5175 44.6774 70.9229 39.2599 69.7583C34.8909 68.8222 30.7803 67.2522 26.9128 65.0336C21.822 62.1073 19.0183 56.2106 22.6578 51.0141C24.1622 48.8619 26.2214 47.513 28.8275 46.9675C29.3366 46.8643 29.8609 47.1002 30.104 47.5425C31.8136 50.653 33.5992 53.5424 35.4684 56.218C35.9623 56.9182 36.8664 57.6848 37.7554 57.7733C38.9559 57.8986 39.1079 57.5742 38.2113 56.7929C37.0336 55.7684 36.3346 54.7143 36.099 53.6308C36.0306 53.3286 36.1142 53.2844 36.3346 53.4981C38.576 55.6283 41.0303 57.3015 43.6972 58.5103C46.1666 59.6307 49.016 60.272 52.2452 60.4268C58.4226 60.729 70.0858 60.5079 73.0491 53.793C73.619 52.5031 74.1204 51.2353 74.5687 49.9822C74.8499 49.1862 75.3742 48.965 76.1568 49.3188C80.5561 51.2942 82.8356 54.648 82.8432 59.4465C82.8508 65.6822 79.538 69.8836 72.9123 72.0433C70.5189 72.832 68.1483 73.3111 65.808 73.4806C65.071 73.5322 64.1212 73.6944 62.9435 73.9671C61.9861 74.1882 61.0059 74.2841 60.003 74.2472C53.6965 74.0261 47.0708 73.8271 40.1337 73.6428C37.7478 73.5765 35.3772 73.3258 33.0293 72.891C31.6997 72.6477 31.5781 72.9131 32.6646 73.6944C32.9306 73.8787 33.5612 74.0998 34.5566 74.3578C42.7095 76.4732 50.9991 77.2914 59.4331 76.8049C61.3479 76.6943 63.217 76.4585 65.0406 76.0826C66.3703 75.8098 67.738 75.6256 69.1588 75.515C70.6557 75.4044 72.0537 75.117 73.3682 74.66C73.543 74.5936 73.7253 74.7337 73.7025 74.918L73.6266 75.5666C73.6038 75.7951 73.4822 75.9646 73.2694 76.0752C72.1069 76.6575 70.9064 77.2693 69.6603 77.9032C68.3002 78.596 67.4948 79.5174 65.6484 79.3405C65.3977 79.3184 65.1622 79.3552 64.9418 79.4658C64.0376 79.9154 63.2626 80.4756 62.6168 81.1464C61.9405 81.8392 62.4344 82.9817 63.4222 82.9965C63.6045 83.0038 63.7869 83.166 63.9692 83.4903C64.1212 83.763 63.9237 84.1021 63.6045 84.1095C62.4572 84.1463 61.3479 84.4264 60.2613 84.935C60.003 85.0529 59.813 84.9866 59.6915 84.736L59.5851 84.5075C59.4559 84.2421 59.3267 84.2421 59.2052 84.5149L59.038 84.8908C58.924 85.134 58.7341 85.2593 58.4529 85.2593C53.7573 85.2225 49.2287 85.2667 44.8598 85.392C42.6335 85.4583 40.8251 85.3478 39.4346 85.0751C37.6946 84.7286 34.8149 84.0947 33.3637 83.0112C33.0445 82.7753 32.771 82.6058 32.5431 82.51C27.9234 80.5935 22.4222 78.4855 18.5548 75.3455C17.5518 74.5273 17.3542 73.5617 17.9697 72.4487C18.0761 72.2571 17.9621 72.0286 17.7418 71.977C17.1871 71.8517 16.792 72.0654 16.5564 72.6035C16.2373 73.348 16.4729 74.3873 17.2631 75.7288C18.8359 78.397 21.1078 80.2913 24.0939 81.4191C27.2167 82.5984 30.3852 83.6377 33.6068 84.5443C43.0058 87.1831 52.3744 87.7949 61.7126 86.3871C64.8278 85.9227 68.8245 85.0603 73.7101 83.8146C78.8465 82.51 83.1927 80.0481 85.5785 75.7656C87.2046 72.8467 87.1666 70.4881 85.229 67.7682C84.9175 67.3333 84.8719 66.8247 85.0999 66.2424C85.1986 65.9844 85.3202 65.9771 85.457 66.2129C85.6469 66.5373 85.7457 66.8763 85.7533 67.2375C85.7609 67.4807 85.8445 67.6945 85.9888 67.8935C88.1999 70.8197 88.3367 73.8934 86.3991 77.1145C84.4996 80.2766 81.9998 82.5026 78.8921 83.7778C71.3851 86.8662 64.3036 88.4878 57.6551 88.6426C54.1676 88.7236 49.4491 88.5246 43.4997 88.0603C35.3012 87.419 27.7942 85.3551 20.9634 81.8761C17.567 80.1439 13.2968 76.0678 13.6311 71.9843ZM68.8701 83.2397C68.5358 83.306 68.2166 83.0923 68.1635 82.768C68.1255 82.5689 68.1483 82.3626 68.2318 82.1635C68.3306 81.9351 68.2698 81.7508 68.0647 81.6107C67.8139 81.4486 67.5328 81.4486 67.2137 81.6181C66.8414 81.8171 66.6134 82.1488 66.5374 82.6205C66.4918 82.8933 66.5906 83.0996 66.8262 83.2544L67.0389 83.3945C67.1605 83.4756 67.1529 83.5272 67.0161 83.564C65.4281 83.9915 64.1896 83.5493 63.2854 82.2446C63.1334 82.0309 63.141 81.8319 63.3158 81.6328C63.7869 81.08 64.3947 80.8368 65.1394 80.8884C65.3749 80.9105 65.5345 80.8147 65.6257 80.6009L65.8992 79.9596C66.036 79.628 66.2259 79.5911 66.4766 79.8565L66.6362 80.026C66.735 80.1366 66.8642 80.166 67.0085 80.1144L70.1466 78.913C70.4505 78.795 70.5569 78.8909 70.4657 79.1931C70.0174 80.7041 71.2559 82.7827 68.8701 83.2397ZM84.0817 85.6721C83.9069 85.6721 83.7398 85.7532 83.6182 85.8637C83.1623 86.2912 82.6532 86.6082 82.0834 86.8146C81.6123 86.9915 81.5591 86.9104 81.9162 86.564C82.562 85.9669 83.2535 85.4362 84.0057 84.9719C84.1501 84.8908 84.2413 84.7655 84.2944 84.6107C84.3324 84.4706 84.4084 84.3969 84.5072 84.3822C84.6516 84.3674 84.7275 84.4264 84.7503 84.5665C84.8491 85.2814 84.6288 85.65 84.0817 85.6721ZM79.272 88.3551C79.6899 88.8047 79.7355 89.3281 79.4088 89.9325C79.2796 90.1757 79.0517 90.3526 78.7781 90.4263L78.2919 90.5516C77.8968 90.6548 77.7904 90.5295 77.9803 90.1757L78.6262 88.9964C78.7554 88.7531 78.7098 88.5541 78.4742 88.3993C77.8436 87.9792 77.7524 87.5443 78.1855 87.0799C78.5958 86.6451 79.0973 86.5419 79.6899 86.763C79.9711 86.8735 80.0015 87.0283 79.7963 87.2347L79.2872 87.7507C79.0897 87.9497 79.0821 88.1487 79.272 88.3551ZM75.4045 90.5737C75.4805 90.6474 75.5337 90.7359 75.5641 90.8465C75.5717 90.8981 75.5565 90.9202 75.5033 90.9128C74.9259 90.8465 74.4244 90.6327 73.9913 90.2568C73.7937 90.0873 73.7785 89.8956 73.9533 89.6966C74.356 89.2175 74.8727 88.9816 75.5033 88.9816C75.7693 88.9743 75.8376 89.0922 75.7237 89.3281L75.321 90.1462C75.2374 90.3084 75.2678 90.4484 75.4045 90.5737ZM78.421 142.067C78.1627 144.75 77.7144 147.411 77.0761 150.042C77.0761 150.079 77.0382 150.101 77.0002 150.094L76.8026 150.049C76.6734 150.027 76.6203 149.954 76.6431 149.836C77.0154 147.558 77.1749 145.281 77.1217 142.996C77.0989 142.015 77.1445 140.991 77.2585 139.929C77.3725 138.905 77.4257 137.88 77.4181 136.848C77.4181 136.605 77.4789 136.376 77.6004 136.163C78.4742 134.659 78.4438 132.934 78.7857 131.777C79.0593 130.841 79.2872 129.912 79.462 128.976C79.5076 128.725 79.5988 128.49 79.7355 128.268L81.2704 125.784C81.3843 125.6 81.5363 125.549 81.7414 125.63L83.2915 126.219C83.4966 126.3 83.5954 126.448 83.5878 126.662L83.4131 129.278C83.3979 129.522 83.2991 129.721 83.1091 129.89C82.8356 130.133 82.5848 130.237 82.3645 130.214C81.6199 130.126 81.0272 130.804 81.2172 131.504C81.4755 132.463 81.5287 133.192 81.0576 134.158C80.4422 135.426 79.8723 136.708 79.348 138.005C78.8845 139.155 78.573 140.512 78.421 142.067ZM93.9594 106.922C93.1919 113.114 92.2802 119.283 91.224 125.438C90.373 130.377 89.5448 137.865 87.5617 143.674C87.2957 144.448 86.7563 145.155 85.9281 145.782C85.7229 145.937 85.6393 145.892 85.6925 145.642C85.9812 144.182 86.3156 142.738 86.6879 141.315C87.9492 136.568 88.5039 131.63 89.1345 126.743C89.1573 126.588 89.0661 126.441 88.9142 126.389C88.4583 126.219 88.086 126.345 87.7896 126.78C87.2425 127.576 86.7259 128.386 86.2396 129.212C85.7761 130.001 85.4038 130.87 85.1227 131.836C83.565 137.106 82.4177 142.465 81.6807 147.905C81.5591 148.826 81.1488 149.534 80.4574 150.042C80.237 150.204 80.1458 150.153 80.1686 149.887C80.4725 146.652 81.0196 143.467 81.8022 140.335C82.3265 138.241 82.2581 136.141 82.9192 134.136C83.5954 132.101 84.0893 129.816 84.9859 127.878C85.4798 126.794 85.7381 125.328 85.7609 123.477C85.7837 121.723 86.3384 118.922 87.4325 115.082C87.82 113.733 87.7212 111.994 87.1514 109.856C87.0906 109.613 86.931 109.51 86.6727 109.546C86.5511 109.569 86.4295 109.583 86.308 109.605C86.0724 109.65 85.9281 109.554 85.8901 109.318C85.8065 108.839 85.8749 108.397 86.0952 107.976C86.2092 107.763 86.3915 107.63 86.6423 107.593C87.8808 107.409 88.1923 106.156 88.9521 106.038C89.2409 105.994 89.3245 106.104 89.2105 106.362C88.671 107.549 88.3823 108.758 88.3291 110.003C88.2455 112.325 88.1999 113.512 88.1923 113.556C87.8428 116.099 87.4553 118.635 87.0298 121.163C86.8019 122.512 87.0298 123.662 87.0678 125.033C87.0754 125.335 87.159 125.364 87.3261 125.106C88.086 123.957 88.671 122.77 89.0813 121.554C90.5934 117.072 91.7103 112.502 92.4321 107.844C92.6981 106.156 92.5309 104.645 92.5765 102.972C92.5841 102.728 92.6829 102.5 92.85 102.323C93.2223 101.932 93.3743 101.438 93.2983 100.841C93.2375 100.37 93.0704 100.333 92.7968 100.723C92.4777 101.173 92.303 101.652 92.265 102.161C92.2498 102.367 92.1662 102.559 92.0294 102.714L90.0235 104.999C89.8335 105.22 89.6892 105.19 89.6056 104.91C89.4764 104.461 89.3852 104.018 89.3397 103.569C89.3093 103.325 89.1725 103.244 88.937 103.34C88.3671 103.561 87.9416 103.93 87.6756 104.453C87.5617 104.667 87.3869 104.785 87.1438 104.807C86.5207 104.881 85.9433 105.05 85.4038 105.308C85.0391 105.492 85.0543 105.64 85.4418 105.758C85.9129 105.898 86.232 106.2 86.3915 106.65C86.4751 106.886 86.3156 107.144 86.0648 107.18C85.4342 107.276 84.9327 107.593 84.5604 108.131C84.4008 108.36 84.2793 108.345 84.1805 108.087C84.1425 107.999 84.1045 107.917 84.0513 107.844C83.9069 107.637 83.7778 107.645 83.6714 107.873C83.6334 107.962 83.5878 108.043 83.5346 108.116C83.4283 108.271 83.2839 108.315 83.1091 108.249C82.3265 107.962 81.5895 108.028 80.9056 108.441C80.6853 108.573 80.5333 108.758 80.4498 108.994C79.7127 111.072 79.272 112.863 79.1277 114.367C78.8465 117.382 78.535 120.389 78.1855 123.396C77.8284 126.507 77.7752 129.3 78.0107 131.784C78.1095 132.824 78.0031 133.73 77.6764 134.512C77.3193 135.374 76.8938 136.214 76.4075 137.047C75.9212 137.865 75.8148 138.956 75.1158 139.782C74.9563 139.973 74.8499 140.187 74.8119 140.43C74.394 142.9 74.1584 145.376 74.0901 147.86C74.0445 149.519 73.6949 151.008 72.6692 152.143C72.0233 152.858 71.7954 152.755 71.9702 151.818C72.5704 148.678 72.8743 145.347 72.8895 141.824C72.8895 140.939 72.8591 140.298 72.7756 139.9C72.4716 138.47 72.0689 138.448 71.5599 139.833C71.0432 141.241 70.7316 142.774 70.6253 144.433C70.4429 147.182 70.025 149.821 69.364 152.349C69.2576 152.762 69.0069 153.057 68.6117 153.234C68.3382 153.359 68.2166 153.278 68.2394 152.983C68.5965 149.099 68.5662 145.015 68.1635 140.733C68.1407 140.526 68.0267 140.438 67.8139 140.467C67.6696 140.489 67.5708 140.607 67.5328 140.814C67.2669 142.155 66.9933 143.954 66.7122 146.209C66.6438 146.784 66.4311 147.713 66.0891 148.995C65.5573 151.008 66.4766 154.501 63.3006 154.634C63.0195 154.649 62.9207 154.524 63.0195 154.266C63.7337 152.379 63.8857 150.293 63.483 148.015C63.369 147.352 62.556 147.072 62.0317 147.507C61.629 147.846 61.3631 148.406 61.2263 149.18C60.8996 151.037 60.7628 152.902 60.816 154.774C60.816 155.025 60.702 155.165 60.4513 155.194C56.3027 155.718 52.1312 155.946 47.9446 155.895C46.5466 155.872 45.1941 155.533 43.7352 155.438C43.4845 155.423 43.3857 155.298 43.4389 155.054C43.5605 154.457 43.5301 153.801 43.3477 153.079C42.9526 151.479 43.2261 149.401 42.5727 148.155C41.5393 146.217 40.9239 146.335 40.7263 148.516C40.582 150.064 40.6352 153.632 41.98 154.678C42.5499 155.113 42.4663 155.342 41.7445 155.364C40.9315 155.386 40.0501 155.15 39.1079 154.642C38.8876 154.524 38.7432 154.347 38.69 154.111C38.1961 152.099 38.2873 150.079 37.7934 148.104C37.4135 146.578 37.2615 145.023 37.3375 143.453C37.3527 143.15 37.178 142.87 36.8892 142.745L36.6689 142.649C36.4333 142.553 36.2966 142.627 36.2738 142.878C36.1294 144.462 35.8863 146.077 35.5595 147.72C35.3012 149.032 35.5975 150.986 36.4561 153.573C36.5625 153.89 36.4561 154.022 36.1066 153.963L34.5718 153.713C34.2755 153.661 34.0475 153.418 34.0247 153.123L33.0977 141.941C33.0749 141.625 32.9002 141.462 32.5735 141.44L32.2771 141.418C31.92 141.396 31.7452 141.551 31.7377 141.897C31.6693 144.912 31.6541 147.978 31.6921 151.089C31.6921 151.649 31.958 152.099 32.1252 152.629C32.2239 152.961 32.1024 153.108 31.7452 153.064C31.3122 153.02 30.9398 152.887 30.6283 152.666C30.408 152.511 30.2712 152.268 30.2636 152.01L30.1876 149.6C30.1876 149.364 30.1116 149.143 29.9825 148.944C29.3366 147.89 28.6604 146.895 28.668 145.642C28.6756 144.072 28.5312 142.443 28.2349 140.74C28.1893 140.467 27.9385 140.276 27.6574 140.283L27.2851 140.305C27.0648 140.313 26.89 140.497 26.9052 140.711C27.0648 143.224 27.1559 145.634 27.1711 147.949C27.1787 149.172 27.5054 150.403 28.1513 151.642C28.2881 151.9 28.0221 152.187 27.741 152.091L26.4189 151.642C26.115 151.538 26.001 151.339 26.0846 151.037C26.4189 149.784 25.6743 147.477 25.3931 146.18C24.8537 143.703 24.9904 140.983 24.2382 138.337C23.9571 137.342 23.638 137.327 23.296 138.308C23.2125 138.566 23.2049 139.059 23.2808 139.789C23.6456 143.209 23.6608 146.519 23.3264 149.725C23.2808 150.204 23.0833 150.271 22.7414 149.924L22.5058 149.681C22.2247 149.401 22.0651 149.032 22.0423 148.634C21.8676 144.927 21.3129 141.005 20.3631 136.87C20.2872 136.524 19.9984 136.251 19.6413 136.185L19.345 136.126C19.1018 136.082 18.8815 136.281 18.9119 136.517C19.193 138.956 19.421 141.374 19.6109 143.769C19.7553 145.583 20.3403 147.05 20.8798 148.76C20.9558 148.988 20.8874 149.04 20.6671 148.914C18.2432 147.47 16.678 146.32 15.9714 145.465C14.6569 143.895 13.5931 141.448 12.7649 138.131C11.7164 133.907 10.8046 129.662 10.0372 125.386C9.03421 119.792 8.2212 115.539 7.60575 112.613C6.5268 107.519 5.54663 102.478 4.66524 97.4876C4.58166 96.9938 4.72603 96.9127 5.11353 97.2518C7.97046 99.7874 11.1009 101.829 14.5049 103.384C17.1719 104.601 20.7354 105.64 25.2108 106.495C42.0408 109.716 59.0228 109.524 76.1492 105.927C82.1745 104.66 86.7639 102.323 91.8699 99.4557C92.812 98.9323 93.6022 98.21 94.2329 97.2886C94.6812 96.6326 94.9091 96.699 94.9167 97.4876C94.9471 100.613 94.2785 104.328 93.9594 106.922ZM94.1873 93.3747C93.3135 94.6646 91.6343 96.0282 89.1497 97.4655C85.7305 99.4557 82.0986 100.974 78.2463 102.021C69.022 104.534 59.6383 105.831 50.0873 105.927C47.1544 105.957 43.6364 105.795 39.541 105.448C34.7237 105.035 31.221 104.623 29.0403 104.203C23.7975 103.193 20.0592 102.227 17.8253 101.291C12.4686 99.065 4.62725 94.8931 4.18655 88.3404C3.89782 83.9842 6.48121 80.4314 10.2955 78.2127C10.5614 78.058 10.7666 78.1169 10.911 78.3749C13.0385 82.0898 15.8194 83.9473 20.1124 85.532C26.2745 87.8097 32.6722 89.2838 39.2903 89.9693C39.3738 89.9767 39.4042 90.0209 39.3966 90.102L39.3663 90.301C39.3587 90.3526 39.3283 90.3821 39.2751 90.3747C31.5401 89.8366 24.0711 88.2666 16.868 85.65C15.8042 85.2593 14.9988 84.7581 14.0338 84.2127C13.7831 84.0726 13.6235 84.1389 13.5703 84.4117C13.5323 84.6033 13.5855 84.8613 13.7299 85.0235C14.3606 85.7458 14.9 86.2102 15.3483 86.4092C25.2032 90.8833 35.8787 93.043 47.3824 92.8882C47.7319 92.8808 48.013 92.7481 48.2334 92.4828C48.6817 91.9447 49.6466 91.731 50.4368 91.7752C56.5686 92.0921 62.6699 91.7457 68.7333 90.7285C69.3184 90.6327 70.4657 90.3158 72.1829 89.7777C72.4184 89.704 72.6008 89.7703 72.7148 89.9841L73.3758 91.1929C73.5202 91.4435 73.467 91.6499 73.2239 91.812C72.6236 92.2174 72.5172 92.7113 72.9123 93.3083C73.2618 93.8317 74.0749 93.7506 74.3028 93.1757C74.3864 92.9766 74.5156 92.7776 74.7055 92.586C74.9107 92.3796 75.1538 92.3354 75.4197 92.4533C75.6705 92.5639 75.9288 92.6081 76.2024 92.586C76.4227 92.5713 76.6279 92.4386 76.7342 92.2469C76.9926 91.7678 77.3573 91.3772 77.8284 91.075C78.0563 90.9202 78.2843 90.9202 78.5198 91.0602C79.2796 91.5098 79.9711 91.4361 80.6017 90.8465C80.7461 90.7064 80.8829 90.7212 81.0044 90.8833L81.1868 91.1413C81.3767 91.3993 81.7718 91.3919 81.9466 91.1265C83.0331 89.4976 84.2489 88.3182 85.6013 87.6033C85.8977 87.4485 85.966 87.5074 85.8065 87.7949L84.2868 90.5221C84.1577 90.7433 83.9829 90.9128 83.7474 91.0234C82.7368 91.5025 81.3919 91.871 81.4375 93.1978C81.4527 93.5442 81.6427 93.8612 81.9466 94.0454C82.2125 94.2076 82.3493 94.4213 82.3493 94.6941C82.3569 95.3648 81.9846 95.9471 81.2476 96.4557C81.0576 96.5884 80.8601 96.5958 80.6701 96.4852C80.4042 96.3304 80.3662 96.124 80.5485 95.8808C80.7081 95.667 80.936 95.5049 81.2324 95.4017C81.4603 95.328 81.5439 95.1806 81.4755 94.9521C81.2096 94.0086 80.6929 93.1093 79.9407 92.2617C79.7355 92.0258 79.5912 92.0553 79.5152 92.3575C79.3176 93.1093 78.8085 93.6621 77.9955 94.0159C76.7266 94.5614 75.4349 95.0552 74.1204 95.4901C73.5582 95.6744 73.1935 95.9324 73.0187 96.2493C72.7376 96.7579 72.8515 97.2813 73.3606 97.8046C73.6342 98.0847 73.6266 98.3574 73.3454 98.6301L73.1403 98.8291C72.8895 99.0724 72.6768 99.0429 72.5172 98.7407C72.0537 97.8783 72.0993 97.2149 72.6616 96.7432C72.8667 96.5589 72.8439 96.4262 72.578 96.3378C71.9702 96.124 71.5143 96.1167 71.2027 96.3083C70.4201 96.78 69.6147 97.2297 68.7865 97.6498C68.5662 97.7604 68.4066 97.9225 68.3078 98.1436C68.2166 98.3427 68.0951 98.5048 67.9507 98.6449C67.7304 98.8439 67.51 98.8513 67.2745 98.667L66.5982 98.1436C66.3855 97.9741 66.1879 97.9962 66.0132 98.2026C65.185 99.1387 64.1668 99.6915 62.9511 99.8758C62.8979 99.8758 62.594 99.8684 62.0241 99.8316C61.515 99.7947 61.1731 100.06 60.9907 100.613C60.892 100.915 60.7096 100.974 60.4437 100.797L59.9802 100.495C59.7598 100.355 59.5395 100.348 59.3115 100.488C59.0456 100.65 58.8405 100.871 58.6961 101.144C58.6429 101.254 58.5517 101.291 58.4302 101.262C58.3618 101.239 58.3086 101.203 58.263 101.136C58.2402 101.114 58.2326 101.085 58.2402 101.048C58.339 100.465 58.3086 99.8758 58.149 99.2714C58.073 98.9766 58.2782 98.6744 58.5897 98.6301C58.8557 98.5933 59.114 98.6006 59.3571 98.667C59.6155 98.7407 59.8434 98.6891 60.041 98.5122L61.4466 97.2297C61.629 97.0675 61.8417 96.9717 62.0849 96.9496C62.6927 96.8832 63.0499 96.5589 63.1486 95.9766C63.1942 95.7039 63.0727 95.5933 62.7915 95.6449C62.404 95.7113 62.0925 95.9103 61.8569 96.242C61.7278 96.4336 61.5454 96.5663 61.3251 96.6474L54.4563 99.1756C54.1903 99.2714 54.0004 99.4557 53.894 99.721C53.3925 100.981 52.4504 101.881 51.0675 102.419C50.9383 102.47 50.794 102.382 50.794 102.242C50.794 101.836 50.9459 101.468 51.2574 101.144C51.379 101.011 51.5386 100.9 51.7057 100.834C52.2452 100.606 52.6859 100.274 53.0202 99.839C53.2406 99.5515 53.1646 99.382 52.8075 99.3156C51.5994 99.1166 50.8243 99.8611 50.4672 101.564C50.4064 101.866 50.1481 102.102 49.8366 102.139C49.4947 102.183 49.2819 102.338 49.1983 102.603C49.0844 102.979 49.2211 103.126 49.6086 103.031C50.49 102.817 51.3562 102.868 52.2148 103.178C52.4504 103.266 52.6935 103.289 52.9442 103.244C54.084 103.053 55.0034 103.554 56.0291 103.502C59.4863 103.318 61.8873 103.09 63.2322 102.817C65.0558 102.441 66.3855 102.22 67.2137 102.146C68.8473 101.991 70.4581 101.711 72.0309 101.298C72.5096 101.173 73.4974 100.945 74.979 100.62C76.0352 100.392 77.0002 100.075 77.8816 99.6694C78.4742 99.3967 79.1125 99.1977 79.7963 99.0871C80.389 98.9839 81.0652 98.7997 81.8326 98.5343C84.8643 97.4655 87.6908 96.0282 90.3122 94.2076C95.4562 90.6327 95.5246 84.021 90.4794 80.2471C90.2742 80.0923 90.0539 80.0702 89.8259 80.1808C89.2333 80.4609 88.823 80.9105 88.6026 81.537C88.5266 81.7508 88.4127 81.9498 88.2607 82.1267L86.0344 84.7139C85.966 84.795 85.8901 84.8023 85.8065 84.7434L85.6545 84.6254C85.6545 84.6254 85.6241 84.5812 85.6469 84.5591C87.2805 82.9301 88.6102 81.0579 89.636 78.9351C89.7576 78.6845 90.0539 78.5739 90.3122 78.6771C91.0948 78.9867 91.7939 79.4216 92.4017 79.9891C94.628 82.0456 95.7221 84.7213 95.6993 88.016C95.6842 90.1462 95.1827 91.93 94.1873 93.3747ZM85.9205 91.5983C86.3156 91.9373 86.1104 92.7997 85.457 93.5147C84.8035 94.2297 83.9525 94.5319 83.5498 94.1928C83.1547 93.8538 83.3599 92.9914 84.0133 92.2764C84.6668 91.5614 85.5178 91.2592 85.9205 91.5983ZM78.3754 97.812C78.2159 97.9962 77.8436 97.952 77.5548 97.7161C77.2661 97.4729 77.1597 97.1265 77.3269 96.9422C77.4865 96.7579 77.8588 96.8021 78.1475 97.038C78.4362 97.2812 78.5426 97.6277 78.3754 97.812ZM55.4896 100.871L55.8696 100.959C56.0291 100.996 56.1887 100.9 56.2419 100.753C56.447 100.156 56.6446 99.6768 56.8345 99.3304C57.2828 98.5417 57.5184 98.5933 57.5412 99.4925L57.5943 101.07C57.6019 101.409 57.4348 101.571 57.0853 101.549L54.3271 101.387C53.9092 101.365 53.6585 100.915 53.8788 100.561C54.3271 99.8463 54.9274 99.4188 55.6872 99.2861C55.786 99.2714 55.8848 99.323 55.9227 99.4188C55.9531 99.5146 55.9151 99.6178 55.824 99.6694C55.482 99.8537 55.2845 100.134 55.2237 100.495C55.1933 100.701 55.2845 100.827 55.4896 100.871ZM88.7774 85.0898C88.5494 84.994 88.4811 84.8318 88.5646 84.6033L88.785 84.0505C88.8838 83.7999 89.0357 83.763 89.2409 83.9473C90.1603 84.7434 90.6086 85.8711 90.601 87.3232C90.601 87.6106 90.4794 87.677 90.2286 87.5074C90.0083 87.3527 89.7652 87.3305 89.4992 87.4411C89.3321 87.5074 89.1725 87.6549 89.0281 87.8834C88.6102 88.5246 88.1847 89.0406 87.7516 89.4165C85.8901 91.0381 85.6393 90.8243 86.9842 88.7679C87.4249 88.0971 87.82 87.4337 88.1771 86.7925C88.3215 86.5345 88.519 86.4829 88.7774 86.6377L88.9825 86.763C89.2637 86.9325 89.4232 86.8588 89.4612 86.5419C89.5448 85.7974 89.3169 85.3183 88.7774 85.0898ZM89.2105 90.9644C88.6026 91.4656 87.9416 91.6867 87.744 91.4509C87.5389 91.2224 87.858 90.6253 88.4735 90.1241C89.0813 89.6229 89.7424 89.4018 89.9399 89.6376C90.1451 89.8661 89.8259 90.4632 89.2105 90.9644Z" fill="#010101"/>
<path d="M31.6618 53.5641C31.6162 53.66 30.9248 53.4683 30.1194 53.1293C29.3064 52.7902 28.6833 52.4364 28.7289 52.3406C28.7745 52.2447 29.4659 52.4364 30.2713 52.7754C31.0844 53.1145 31.7074 53.4683 31.6618 53.5641Z" fill="#010101"/>
<path d="M28.3869 54.788C28.6757 54.6553 28.9872 54.5448 29.3139 54.4563C29.5571 54.39 29.747 54.4268 29.8762 54.5669C29.9446 54.6406 29.9902 54.729 30.0054 54.8322C30.051 55.0755 29.9674 55.2597 29.747 55.385C29.2835 55.6578 28.8124 55.6135 28.3338 55.2376C28.1742 55.1123 28.2046 54.8764 28.3869 54.788Z" fill="#010101"/>
<path d="M32.8317 55.6206C32.3303 55.7827 31.882 55.8491 31.4869 55.8122C30.3243 55.7164 30.2939 55.4805 31.3957 55.0899C31.8744 54.9203 32.353 54.9351 32.8469 55.1267C33.3028 55.3036 33.2952 55.4658 32.8317 55.6206Z" fill="#010101"/>
<path d="M25.7198 58.3113C28.4856 61.4292 33.2193 63.2498 37.1399 64.5692C37.4515 64.6724 37.7098 64.8345 37.915 65.0483C38.1277 65.2768 38.1733 65.5348 38.0441 65.8222C37.9378 66.0655 37.6794 66.2055 37.4059 66.1687C34.1766 65.7264 31.2513 64.8272 28.63 63.4709C26.4113 62.3284 22.4678 59.0705 26.0238 56.675C26.077 56.6381 26.1301 56.6381 26.1681 56.6897V56.7044C26.1985 56.756 26.0618 56.9329 25.7578 57.2204C25.4463 57.5152 25.4311 57.9943 25.7122 58.3113H25.7198Z" fill="#010101"/>
<path d="M49.0692 63.5742C49.0996 63.7658 48.9628 63.9427 48.7577 63.9722L42.36 64.8199C42.1624 64.8493 41.9801 64.7093 41.9497 64.5177V64.4439C41.9117 64.2523 42.0485 64.0754 42.2536 64.0459L48.6513 63.1983C48.8489 63.1688 49.0312 63.3088 49.0616 63.5005V63.5742H49.0692Z" fill="#010101"/>
<path d="M66.8947 64.127C66.9099 64.3333 66.5832 64.5324 66.1653 64.5692C65.7398 64.6061 65.3826 64.466 65.3675 64.267C65.3523 64.0606 65.679 63.8616 66.0969 63.8247C66.5224 63.7879 66.8795 63.9279 66.8947 64.127Z" fill="#010101"/>
<path d="M65.375 69.4633C64.2049 69.5002 63.4679 70.0309 63.1639 71.0554C63.0652 71.4166 62.8752 71.7114 62.5941 71.9547C62.161 72.3306 61.7127 72.3748 61.2492 72.0947C60.5198 71.6525 60.6033 70.5984 61.386 70.252L65.9449 68.2618C66.3856 68.0628 66.8719 68.4461 66.7655 68.9105L66.3324 70.7753C66.2412 71.1733 65.9981 71.4387 65.5954 71.5787C65.1243 71.7409 64.6152 71.6893 64.0757 71.424C63.7642 71.2692 63.7794 71.166 64.1213 71.107C64.828 70.9817 65.3522 70.6058 65.6941 69.9719C65.8841 69.6255 65.7777 69.4559 65.375 69.4633Z" fill="#010101"/>
<path d="M60.3905 80.5419C60.5349 80.7631 60.0714 81.2938 59.3496 81.736C58.6353 82.1783 57.9363 82.3626 57.7995 82.1414C57.6552 81.9203 58.1187 81.3896 58.8405 80.9473C59.5547 80.5051 60.2537 80.3208 60.3905 80.5419Z" fill="#010101"/>
<path d="M68.7942 81.4337C68.8854 81.1462 69.0525 80.903 69.2957 80.7113C69.4705 80.5713 69.6148 80.6008 69.7212 80.7924C69.7896 80.903 69.782 81.043 69.706 81.1978C69.5616 81.4853 69.3489 81.6548 69.0677 81.7211C68.8094 81.7727 68.7182 81.6769 68.7942 81.4337Z" fill="#010101"/>
<path d="M13.0157 85.4211C13.0917 85.4211 13.1601 85.4506 13.2208 85.4875C13.3272 85.5538 13.3576 85.6865 13.2968 85.7897L13.1601 86.0108C13.0309 86.2098 12.8561 86.2688 12.6358 86.1877C12.0811 85.9887 11.6176 85.6128 11.2529 85.06C11.0706 84.7799 11.1389 84.6914 11.4581 84.7946C11.8 84.9052 12.1343 85.0526 12.4458 85.2369C12.6358 85.3474 12.8257 85.4064 13.0157 85.4211Z" fill="#010101"/>
<path d="M8.34287 88.5908C9.29264 90.8832 11.5569 92.7775 13.6996 94.0306C15.47 95.0625 18.0002 96.0133 18.7448 98.0551C18.8132 98.2393 18.6232 98.4162 18.4333 98.3425C13.9427 96.5588 5.75188 93.6252 7.3779 87.3525C7.44628 87.1019 7.54506 87.0872 7.68182 87.3083C7.94016 87.7211 8.16051 88.1486 8.34287 88.5908Z" fill="#010101"/>
<path d="M66.9251 95.9692C67.2366 96.0061 67.533 95.8881 67.8141 95.608C68.3688 95.0552 68.7563 94.4508 68.969 93.7801C69.1438 93.2125 69.6908 92.8218 70.3063 92.8292C70.3747 92.8292 70.4203 92.8882 70.4431 92.9987C70.4811 93.1388 70.4507 93.2567 70.3595 93.3599C70.1543 93.6031 70.0252 93.8759 69.9568 94.1854C69.6681 95.4827 68.6727 96.3893 67.6773 96.2567C67.2214 96.1903 66.8719 96.3967 66.6288 96.8685C66.5224 97.0822 66.3476 97.1928 66.1045 97.2001C65.0635 97.2296 64.1366 97.5171 63.316 98.0699C63.1108 98.21 62.9892 98.3942 62.9436 98.6301C62.8677 98.9986 62.6853 99.2861 62.4042 99.4999C62.123 99.7063 61.9407 99.6399 61.8647 99.3082C61.7051 98.5932 61.9103 97.9815 62.4726 97.4655C62.6777 97.2738 62.9512 97.1633 63.2324 97.1559C64.2961 97.1191 65.2231 96.7579 66.0209 96.0577C66.1805 95.9102 66.1957 95.7481 66.0665 95.5712C65.9373 95.4016 65.9297 95.2174 66.0285 95.0331C66.1273 94.8636 66.2793 94.753 66.4844 94.7014C66.7959 94.6351 66.9023 94.7456 66.8035 95.0331L66.6364 95.5343C66.5528 95.7923 66.6516 95.9323 66.9251 95.9692Z" fill="#010101"/>
<path d="M70.3973 94.4582C70.7088 93.9275 71.0659 93.5074 71.4686 93.2052C71.5978 93.1094 71.6966 93.1241 71.7726 93.2641L71.9321 93.5737C71.9777 93.6548 71.9701 93.7285 71.9017 93.7948C71.4307 94.2592 70.9596 94.5246 70.4961 94.5909C70.3669 94.613 70.3365 94.5688 70.3973 94.4582Z" fill="#010101"/>
<path d="M23.8736 98.3279C24.3979 98.4679 24.9297 98.5048 25.454 98.4384C25.7048 98.409 25.9327 98.4532 26.1455 98.5785C27.7335 99.4998 29.6254 100.171 31.8137 100.583C32.5051 100.716 33.0066 101.085 33.3182 101.682C33.4321 101.917 33.3637 102.006 33.0978 101.947C30.2333 101.291 27.4143 100.605 24.6334 99.8831C24.0028 99.721 23.5469 99.5441 23.2657 99.3524C22.3312 98.7185 22.5439 97.3254 23.6228 96.979C24.0256 96.8537 24.3143 96.979 24.4966 97.3623C24.6638 97.7013 24.5498 97.8635 24.1623 97.8561C24.0331 97.8561 23.9116 97.9004 23.7976 97.9888C23.6076 98.1436 23.638 98.2615 23.8736 98.3279Z" fill="#010101"/>
<path d="M36.0916 100.561C35.9244 100.532 35.8257 100.37 35.8561 100.215L35.8864 100.075C36.0156 99.5072 36.6387 99.1607 37.2769 99.2934L37.786 99.404C38.4242 99.5367 38.8421 100.112 38.713 100.679L38.675 100.812C38.6446 100.974 38.4774 101.077 38.3179 101.04L36.0916 100.561Z" fill="#010101"/>
<path d="M40.2628 99.9566C40.1944 99.9345 40.1337 99.9198 40.0653 99.9124C39.9969 99.905 39.9893 99.8829 40.0425 99.8387C40.4376 99.4996 40.9619 99.4628 41.6153 99.7355C41.9724 99.8829 42.0712 100.333 41.7977 100.605C41.1746 101.232 40.3616 101.49 39.3662 101.394C39.3054 101.387 39.2523 101.342 39.2371 101.283L39.1763 100.981C39.1383 100.826 39.2067 100.738 39.3662 100.716C39.7689 100.664 40.0957 100.532 40.3464 100.31C40.5212 100.148 40.4984 100.03 40.2628 99.9566Z" fill="#010101"/>
<path d="M47.6257 100.532C46.6835 100.804 45.7337 100.863 44.7687 100.709C44.6092 100.679 44.518 100.524 44.5788 100.377C44.632 100.252 44.7155 100.141 44.8371 100.053C44.8675 100.03 44.8979 100.023 44.9283 100.023L48.4843 100.001C48.7882 100.001 49.0237 100.126 49.1833 100.377C49.3581 100.642 49.3808 100.885 49.2669 101.099C49.1377 101.335 48.9857 101.35 48.811 101.143C48.6438 100.93 48.4615 100.76 48.2563 100.628C48.0664 100.502 47.8536 100.465 47.6257 100.532Z" fill="#010101"/>
<path d="M44.8977 101.247C45.9083 101.652 46.8808 101.704 47.8154 101.402C48.0358 101.335 48.1421 101.402 48.1421 101.637V101.851C48.1497 102.131 48.013 102.33 47.747 102.448C46.5845 102.95 45.5891 102.773 44.7457 101.91C44.5102 101.667 44.4418 101.483 44.5254 101.357C44.6166 101.217 44.7381 101.18 44.8977 101.247Z" fill="#010101"/>
<path d="M78.1476 110.202L78.368 110.327C78.5047 110.409 78.5275 110.512 78.444 110.644C77.9273 111.463 77.8285 112.362 78.1476 113.335C78.1628 113.386 78.1476 113.423 78.0868 113.445L77.9045 113.512C77.7373 113.578 77.6234 113.526 77.5626 113.364C77.3574 112.834 77.327 112.281 77.4562 111.713C77.5094 111.477 77.4714 111.256 77.327 111.05C76.8939 110.431 76.2633 110.173 75.4351 110.283C75.2831 110.305 75.1995 110.239 75.1843 110.099C75.1843 110.025 75.1843 109.959 75.2147 109.893C75.2375 109.848 75.2907 109.812 75.3591 109.775C76.1797 109.421 77.0231 109.133 77.8969 108.912C78.14 108.846 78.3376 108.721 78.4971 108.522C79.257 107.534 80.2979 106.929 81.6276 106.716C81.8935 106.664 81.9619 106.76 81.8252 106.996L81.7188 107.18C81.6124 107.357 81.4301 107.482 81.2249 107.527C80.2447 107.718 79.5153 108.234 79.0518 109.082C78.9682 109.237 78.8543 109.362 78.7099 109.458C78.5199 109.583 78.33 109.708 78.14 109.834C77.9425 109.959 77.9425 110.084 78.14 110.202H78.1476Z" fill="#010101"/>
<path d="M32.7027 129.543L31.3426 131.253C31.1982 131.43 31.0159 131.504 30.7879 131.474C30.1421 131.393 29.785 130.981 29.709 130.221C29.0859 124 28.7972 119.394 28.8428 116.401C28.8504 115.715 29.1163 115 29.6406 114.256C30.0889 113.615 30.6892 113.217 31.449 113.077C35.3089 112.376 36.8589 116.814 37.0641 119.983C37.33 124.096 37.5959 128.6 37.8619 133.494C37.8847 133.958 37.6567 134.172 37.178 134.135L36.3042 134.062C35.8104 134.025 35.552 133.767 35.5216 133.288C35.476 132.484 35.1797 131.629 34.625 130.723C34.4959 130.509 34.3135 130.361 34.078 130.266C33.7056 130.111 33.4169 129.882 33.2042 129.565C33.0446 129.329 32.8774 129.322 32.7027 129.543Z" fill="#010101"/>
<path d="M76.2708 134.939C76.3772 134.961 76.4304 135.027 76.4228 135.131C76.4228 135.241 76.362 135.285 76.2556 135.263C74.7588 134.998 73.999 135.551 73.9838 136.922C73.9838 137.194 73.8546 137.268 73.6039 137.135C72.9276 136.789 72.7453 136.428 73.0568 136.037C73.8698 135.027 74.9412 134.659 76.2708 134.939Z" fill="#010101"/>
<path d="M46.6378 154.332C46.4478 154.346 46.2807 154.206 46.2655 154.022V153.926C45.84 148.258 45.8628 143.644 46.3034 143.614L47.1544 143.555C47.5951 143.526 48.2942 148.088 48.7121 153.757V153.852C48.7349 154.037 48.5905 154.199 48.4006 154.214L46.6378 154.332Z" fill="#010101"/>
<path d="M58.3619 154.221C58.3619 154.531 58.1035 154.789 57.7844 154.781H56.6599C56.3407 154.781 56.0824 154.531 56.0824 154.228L56.052 145.663C56.052 145.354 56.3103 145.096 56.6295 145.103H57.754C58.0731 145.103 58.3315 145.354 58.3315 145.656L58.3619 154.221Z" fill="#010101"/>
<path d="M52.9367 154.45L50.8928 154.015C50.7636 153.993 50.7104 153.912 50.7332 153.787C51.0827 151.944 49.9506 149.895 50.6876 147.949C50.984 147.175 51.6374 146.887 52.42 147.035C52.6784 147.086 52.8151 147.234 52.8227 147.484L53.2254 154.214C53.233 154.413 53.1418 154.494 52.9367 154.45Z" fill="#010101"/>
<path d="M81.1412 56.5126C80.4573 54.5888 79.1656 52.923 77.2585 51.5225C76.6962 51.1098 75.906 51.1982 75.4577 51.7142C75.2906 51.8985 75.283 52.2007 75.4425 52.6061C75.4957 52.7535 75.6705 52.982 75.9592 53.2916C76.2783 53.638 76.3771 54.036 76.2631 54.4856C76.2023 54.7215 76.2935 54.8689 76.5367 54.9353L76.8102 55.009C77.0609 55.0753 77.2281 55.2301 77.2965 55.4733C77.4712 56.063 77.3725 56.5348 77.0153 56.8959C76.7418 57.1687 76.643 57.1244 76.7266 56.7485C76.8254 56.2989 76.7114 55.9819 76.3847 55.7829C76.1264 55.6281 75.9744 55.6945 75.9212 55.9819C75.8528 56.3505 75.9592 56.6895 76.2251 56.9918C76.3847 57.176 76.3999 57.3677 76.2707 57.5741C75.6629 58.5691 75.3133 59.4094 74.318 60.1391C73.2694 60.8983 72.2665 61.7165 71.3015 62.5863C70.6784 63.1465 69.949 63.1833 69.2424 63.5592C69.136 63.6182 69.098 63.7435 69.1588 63.8467L69.2804 64.0457C69.3791 64.2079 69.5767 64.2742 69.7515 64.2079L72.7983 63.0433C73.0491 62.9474 73.2618 62.7779 73.4062 62.5494L74.4472 60.9057C74.5763 60.6993 74.8043 60.574 75.0474 60.5666H75.754C76.0352 60.5519 76.096 60.6625 75.9212 60.8762C74.9714 62.0482 74.4927 63.5666 73.505 64.4732C72.6768 65.2324 71.689 65.7115 70.5493 65.9179C70.3061 65.9621 70.0858 66.0579 69.8958 66.198L68.7485 67.053C68.5357 67.2078 68.513 67.3921 68.6725 67.6058C68.7637 67.7164 68.8929 67.7901 69.0676 67.827C69.3032 67.8786 69.4855 68.0039 69.6071 68.2176C70.0022 68.9179 69.8198 69.4117 69.0676 69.7065C68.361 69.9866 67.9659 70.4141 67.8823 70.9891C67.8443 71.2471 67.9659 71.365 68.2318 71.3576C70.2377 71.2839 71.7878 70.3847 73.6341 69.6844C74.9866 69.1685 75.9972 68.682 76.6658 68.2176C78.8161 66.7213 80.2902 64.7902 81.088 62.4241C81.787 60.3455 81.8022 58.3775 81.1412 56.5126ZM78.1399 56.6453C78.2159 56.3726 78.3298 56.3579 78.4894 56.5937C78.7705 57.0139 78.8921 57.4782 78.8541 57.9868C78.9833 58.0974 79.0441 58.2301 79.0441 58.3775C79.0441 58.5765 78.9605 58.6133 78.8009 58.5028C78.1399 58.031 77.9195 57.4119 78.1399 56.6453ZM76.605 59.6232C76.8862 59.3136 77.2129 59.1514 77.3345 59.2472C77.456 59.3504 77.3117 59.6821 77.0229 59.9843C76.7418 60.2939 76.4151 60.4561 76.2935 60.3602C76.1719 60.2571 76.3163 59.9254 76.605 59.6232ZM79.1732 60.9352C78.0487 63.5813 76.1719 65.8295 73.5506 67.6795C73.0187 68.0555 72.464 68.2397 71.8866 68.2324C71.651 68.225 71.4535 68.3134 71.3091 68.4977C71.0508 68.8147 70.7164 68.94 70.3061 68.8736C70.0402 68.8294 69.9642 68.6894 70.0706 68.4461L70.5341 67.3921C70.6329 67.171 70.8076 67.0604 71.0583 67.053C71.4003 67.0457 71.689 66.9351 71.9245 66.7287C72.1981 66.4855 72.388 66.3307 72.4944 66.2791C74.3712 65.3061 76.1416 64.1563 77.798 62.8221C78.0335 62.6379 78.0031 62.5494 77.6992 62.5641C76.7798 62.601 76.0124 63.0359 75.3969 63.8688C75.3209 63.972 75.2374 63.9794 75.1462 63.8983L74.9258 63.714C74.8271 63.6329 74.8271 63.5445 74.9182 63.456C75.4273 62.9769 75.9136 62.5052 76.3923 62.0556C77.0153 61.4659 77.9727 61.1489 78.5046 60.5371C79.6063 59.2694 79.8267 59.402 79.1732 60.9352Z" fill="#010101"/>
<path d="M27.1257 119.349C26.8901 117.617 26.5102 115.907 25.9859 114.227C25.2337 111.838 23.4785 110.327 21.4422 109.045C20.7584 108.61 19.8694 108.625 19.2007 109.074L16.7465 110.703C16.1538 111.101 15.3408 110.747 15.2497 110.055L14.9685 108.013C14.9305 107.762 14.7862 107.666 14.5354 107.718C14.1859 107.799 13.8288 107.932 13.4565 108.116C13.2285 108.227 13.0386 108.19 12.8866 107.991C11.7241 106.494 10.364 105.227 8.80638 104.195C8.63922 104.084 8.41128 104.224 8.44927 104.423C9.49022 110.106 10.8579 115.738 12.5447 121.317C12.6207 121.561 12.7423 121.723 12.9094 121.789C13.2057 121.914 13.3881 121.826 13.4641 121.524L13.5553 121.126C13.6236 120.838 14.0263 120.801 14.1555 121.067L17.9546 128.777C18.3117 129.492 19.2311 129.742 19.9226 129.307C23.0986 127.302 22.3312 124.295 22.1184 121.192C22.1108 121.126 22.1488 121.081 22.2172 121.074H22.2248C22.2932 121.067 22.3388 121.104 22.3464 121.17C22.6275 122.946 22.8783 124.737 23.1138 126.529C23.1442 126.772 23.2658 126.956 23.4709 127.081C24.4815 127.693 25.0969 128.357 25.3173 129.086C25.5908 129.963 25.9175 130.826 26.2899 131.659C26.5482 132.226 26.9965 132.462 27.6271 132.352C27.9083 132.307 28.1134 132.064 28.1058 131.791C28.0146 127.656 27.6879 123.506 27.1257 119.349ZM20.5456 111.212C19.8466 112.266 19.4895 113.629 19.4819 115.295C19.4591 118.878 19.8086 122.799 20.5304 127.059C20.5684 127.288 20.4696 127.384 20.2341 127.347L20.0061 127.31C19.6338 127.258 19.4059 127.052 19.3147 126.698C17.8938 121.332 16.6477 114.47 18.6385 111.411C19.0488 110.792 19.3907 110.416 19.6566 110.276C21.1611 109.517 21.4574 109.826 20.5456 111.212Z" fill="#010101"/>
<path d="M76.4153 113.364C76.1721 113.283 75.9822 113.136 75.8454 112.915L75.3515 112.126C75.192 111.868 74.9184 111.706 74.6145 111.676C69.7593 111.19 70.01 115.627 69.3489 118.9C69.0526 120.367 68.8703 121.716 68.8171 122.961C68.6727 126.197 68.4068 129.455 68.0269 132.75C68.0041 132.956 67.8217 133.104 67.609 133.096L67.3734 133.082C66.9707 133.059 66.758 132.853 66.7428 132.462C66.6592 130.376 66.7352 128.423 66.9783 126.588C67.5406 122.305 69.083 114.772 63.2248 113.158C62.9741 113.092 62.7385 113.114 62.5106 113.232C60.0259 114.551 59.3573 116.519 59.3193 119.372C59.2661 124.045 59.1826 128.688 59.0762 133.31C59.061 133.797 58.8482 133.907 58.4303 133.634C58.3467 133.583 58.2708 133.531 58.1872 133.48C57.7693 133.207 57.5565 132.831 57.5489 132.337C57.473 128.703 57.4578 125.143 57.4957 121.642C57.5185 119.711 57.2526 118.244 56.7055 117.249C55.9609 115.9 54.8516 114.772 53.3775 113.851C52.8912 113.549 52.2606 113.586 51.8199 113.939C50.361 115.111 49.548 116.593 49.3733 118.384C48.9022 123.322 49.0845 128.364 49.9203 133.502C49.9659 133.789 49.8444 133.922 49.548 133.914L48.2715 133.87C47.9144 133.863 47.7397 133.686 47.7321 133.347C47.6333 128.843 47.4129 124.273 47.071 119.644C46.9418 117.794 46.3264 116.49 44.9967 115.31C42.0638 112.708 39.1993 116.814 39.1461 119.541C39.0625 123.846 39.1841 128.224 39.5184 132.669C39.5792 133.465 40.0199 133.878 40.8329 133.9L42.1626 133.937C42.4817 133.944 42.6641 133.797 42.7172 133.494L43.6138 128.047C43.6366 127.907 43.6746 127.9 43.7354 128.025C44.4572 129.58 43.9026 131.01 44.4496 132.381C44.7232 133.082 45.0727 133.73 45.4982 134.342C45.6425 134.548 45.8553 134.703 46.106 134.769C47.5421 135.175 48.9402 135.116 50.2851 134.6C50.4902 134.519 50.6346 134.386 50.7181 134.195L51.6603 132.05C51.7667 131.814 51.9339 131.637 52.1618 131.512C52.7773 131.18 53.4611 131.018 54.2057 131.025C54.4565 131.025 54.6236 131.143 54.7072 131.371C54.9731 132.116 55.3379 132.875 55.8013 133.656C56.2117 134.335 56.8651 134.711 57.7541 134.777C58.8786 134.858 59.684 134.482 60.1703 133.656C60.8542 132.499 61.3784 132.175 62.6245 131.932C62.9209 131.88 63.1184 131.983 63.2172 132.256L63.6807 133.472C63.7643 133.701 63.9314 133.797 64.1746 133.774C64.6153 133.738 64.942 133.516 65.1623 133.126C65.3219 132.831 65.7854 132.949 65.7702 133.281C65.7246 134.416 66.2565 134.799 67.3734 134.438C68.8475 133.966 69.0222 132.602 69.5009 131.408C69.5997 131.18 69.7593 131.003 69.9796 130.885C71.4613 130.111 72.9809 130.074 74.5309 130.774C74.7589 130.878 74.888 131.047 74.9184 131.283C74.9564 131.571 75.0248 131.843 75.1236 132.101C75.2072 132.293 75.3363 132.426 75.5263 132.499C75.6707 132.551 75.815 132.58 75.9594 132.58C76.2481 132.588 76.4837 132.367 76.4761 132.086C76.4305 129.418 76.4305 127.037 76.8864 124.244C77.2207 122.187 77.5702 119.512 77.9425 116.217C78.1097 114.713 77.6006 113.762 76.4153 113.364ZM54.069 129.374C53.7574 129.499 53.4383 129.558 53.1116 129.551C52.7545 129.536 52.6557 129.374 52.8153 129.064L52.9444 128.806C53.0508 128.607 53.104 128.394 53.0964 128.165C53.028 125.534 53.0356 122.902 53.1116 120.271C53.1344 119.357 53.3167 118.561 53.6435 117.883C53.7118 117.728 53.7498 117.735 53.7574 117.905L53.7878 128.003C53.7878 128.069 53.803 128.136 53.841 128.202L54.2361 128.902C54.3577 129.123 54.3045 129.278 54.069 129.374Z" fill="#010101"/>
</g>
<defs>
<clipPath id="clip0_2356_2175">
<rect width="100" height="160" fill="white"/>
</clipPath>
</defs>
</svg>
