<svg width="130" height="140" viewBox="0 0 130 140" fill="none" xmlns="http://www.w3.org/2000/svg">
<g clip-path="url(#clip0_2346_1602)">
<path d="M123.857 78.8146C122.43 77.822 120.343 76.851 120.056 74.8981C119.438 70.7012 117.884 67.0544 115.403 63.9364C113.667 61.7785 111.687 59.707 109.462 57.7218C107.279 55.7798 104.798 54.2801 102.03 53.2335C100.827 52.7696 99.9009 52.2625 99.262 51.7015C96.9197 49.6623 95.1842 46.3932 92.2776 45.0554C87.6994 42.9623 82.9828 42.4768 78.1064 43.642C77.8509 43.7067 77.6699 43.6204 77.5528 43.3723C75.4979 39.0134 71.9631 36.629 66.9377 36.2406C66.3308 36.1867 66.0434 35.863 66.086 35.248C66.5438 27.5554 66.3202 19.8195 62.8599 12.5369C60.3792 7.3257 57.76 3.40924 52.9688 0.722743C50.7223 -0.539587 48.7739 -0.205124 47.1343 1.71534C45.6011 3.51713 45.7076 5.11393 47.443 6.50573C50.0409 8.59882 53.4692 4.52052 55.8435 7.76806C61.2203 15.0939 63.4881 23.4663 62.6363 32.8744C62.5511 33.8131 62.4553 34.5144 62.3382 34.9567C62.2637 35.2264 62.104 35.4099 61.8484 35.5177C60.6879 35.9925 59.5061 36.4348 58.3136 36.834C55.2154 37.8914 53.959 41.0526 52.1703 43.6851C52 43.9333 51.7657 44.0951 51.457 44.1275C44.7706 45.0877 41.5339 50.0939 41.1719 56.999C41.14 57.6031 40.6289 58.0671 40.0434 58.0347C33.0589 57.7218 28.8853 60.6457 24.6265 66.0834C24.4774 66.2884 24.2432 66.4071 23.9877 66.4287C22.2096 66.5797 20.2506 66.9465 18.1212 67.5507C13.7027 68.7915 10.9557 71.5643 9.86973 75.88C9.64615 76.7755 9.43321 77.7141 9.22027 78.6743C9.16703 78.9441 9.01797 79.1383 8.78374 79.2678C5.3767 81.1451 1.62895 82.99 3.67317 87.6725C3.77964 87.9207 3.72641 88.1256 3.51347 88.2767C1.52248 89.7224 0.383247 91.4919 0.0744839 93.5634C-0.55369 97.7819 2.64041 99.109 5.96228 100.393C6.20716 100.49 6.36687 100.673 6.39881 100.943C6.71822 102.939 6.73951 105.097 7.72969 106.791C9.60356 109.974 12.4783 111.085 16.3644 110.136C16.6306 110.071 16.8755 110.103 17.1097 110.222C17.7272 110.535 18.217 111.02 18.5683 111.678C21.475 116.976 24.339 122.435 27.1711 128.035C28.9385 131.541 31.8878 134.044 36.0188 135.544C44.0573 138.479 52.2235 139.957 60.5069 139.957C67.2039 139.957 71.6437 139.903 73.805 139.773C79.3841 139.428 85.027 138.101 90.7551 135.803C94.2899 134.379 97.2285 132.383 98.7829 129.103C101.7 122.975 104.596 117.127 107.482 111.57C107.875 110.804 108.312 110.103 108.78 109.434C108.951 109.186 109.238 109.067 109.536 109.121C114.083 109.931 115.722 107.837 117.202 103.899C117.309 103.608 117.617 103.446 117.905 103.522C121.525 104.493 123.857 103.392 124.943 100.22C125.422 98.8069 125.017 96.962 125.475 95.322C125.975 93.5526 128.435 92.8621 129.319 91.125C131.64 86.5828 127.381 81.2098 123.835 78.7607L123.857 78.8146ZM50.8288 3.74371C50.2858 4.05659 49.7215 4.07817 49.5618 3.79765C49.4127 3.51713 49.7215 3.04241 50.2538 2.72952C50.7968 2.41664 51.3611 2.39506 51.5208 2.67558C51.6699 2.9561 51.3611 3.43082 50.8288 3.74371ZM5.61093 94.5128C5.08923 94.4589 4.61011 94.2431 4.20552 93.887C4.03517 93.736 4.00323 93.4986 4.12035 93.3152C4.39717 92.8837 4.67399 92.6895 4.91887 92.7218C5.11052 92.7542 5.13181 92.8405 4.98276 92.9592C4.86564 93.0563 4.8124 93.175 4.82305 93.326C4.82305 93.5957 5.12117 93.7468 5.34475 93.6065C5.40864 93.5634 5.47252 93.531 5.54705 93.4879C5.7174 93.4015 5.91969 93.4447 6.04746 93.585C6.15393 93.7144 6.19652 93.8655 6.18587 94.0381C6.15393 94.3941 5.96228 94.556 5.60028 94.5128H5.61093ZM9.62485 94.3294C9.25221 94.5883 8.89021 94.707 8.51756 95.0307C8.35786 95.171 8.21945 95.2249 8.10233 95.2141C7.47416 95.1602 7.41027 94.9444 7.93198 94.5883C8.34721 94.297 8.87956 94.1352 9.53968 94.1028C9.83779 94.1028 9.85909 94.1784 9.61421 94.3402L9.62485 94.3294ZM11.4455 91.5998C11.2006 91.9234 10.8918 92.0853 10.7321 91.9666C10.5831 91.8479 10.647 91.4919 10.8812 91.1682C11.1261 90.8445 11.4348 90.6827 11.5946 90.8014C11.7436 90.92 11.6797 91.2761 11.4455 91.5998ZM62.0507 44.7641C62.6363 44.9043 63.1793 45.1093 63.6691 45.3682C63.9565 45.5193 64.3079 45.4546 64.4995 45.1848L67.4594 41.031C67.8534 40.4808 68.5667 40.2758 69.1736 40.5455C72.4848 41.9912 74.1351 44.7101 74.1351 48.6913C74.1351 51.2052 73.6666 53.4709 71.1326 54.4096C70.0253 54.8195 68.95 54.8195 67.8853 54.4096C66.9164 54.0427 66.9377 53.7298 67.9385 53.4709C68.1621 53.417 68.4283 53.2983 68.7584 53.1256C68.9926 52.9962 69.1629 52.8128 69.2801 52.5646C70.2489 50.4823 70.5045 48.3245 70.0466 46.0803C69.8337 45.023 69.2162 44.6777 68.588 43.8686C68.4176 43.6528 68.2154 43.6204 67.9918 43.793C67.2465 44.3541 66.8632 45.1525 66.8419 46.1666C66.8419 46.4472 66.7035 46.6306 66.4586 46.7277C66.0647 46.8787 65.6707 46.8571 65.2661 46.6414C65.0425 46.5227 64.8083 46.4903 64.5528 46.5551C63.5307 46.8356 62.3276 46.6845 60.9221 46.0911C60.081 45.7243 59.7297 45.1093 59.8574 44.2246C59.9 43.9333 60.0597 43.7822 60.3579 43.7822C60.7837 43.7822 61.1351 43.9657 61.3906 44.3325C61.561 44.5591 61.7739 44.6993 62.0401 44.7641H62.0507ZM66.6715 51.3131C66.3308 51.421 66.2776 51.3454 66.5331 51.0757C67.4701 50.0507 67.7575 49.0581 68.1515 47.8929C68.2579 47.6016 68.3751 47.5908 68.5241 47.8605L68.9074 48.5834C69.0458 48.8316 69.0458 49.0905 68.9074 49.3494C68.4176 50.3313 67.6724 50.9786 66.6715 51.3023V51.3131ZM61.3906 39.6824C61.6887 39.5961 61.7739 39.6824 61.6355 39.9737C61.2096 40.8907 60.624 41.5705 59.8894 41.9912C59.7084 42.0991 59.6445 42.0452 59.6977 41.8402C60.0065 40.6318 60.5708 39.9089 61.3906 39.6824ZM13.5536 98.5587C13.5536 98.5587 13.6068 98.494 13.6494 98.4724C13.7346 98.4293 13.7985 98.3753 13.8304 98.2998C13.9795 98.0409 14.1605 97.9653 14.416 98.0517C14.778 98.2027 14.778 98.699 14.4373 98.8716C14.1711 98.9903 13.9262 98.9903 13.692 98.8716C13.5217 98.7853 13.4684 98.6774 13.5536 98.5587ZM15.0335 107.33C14.7248 107.309 14.5012 107.19 14.3308 106.953C14.2563 106.856 14.1285 106.629 13.9262 106.273C13.8624 106.154 13.8198 106.025 13.7772 105.906C13.6814 105.593 13.7559 105.539 14.0114 105.734C14.4799 106.09 14.8845 106.5 15.2252 106.974C15.4062 107.222 15.3423 107.352 15.0335 107.32V107.33ZM16.9393 100.846C16.6093 101.267 16.226 101.515 16.0769 101.396C15.9279 101.278 16.0769 100.846 16.3964 100.414C16.7264 99.9937 17.1097 99.7456 17.2588 99.8642C17.4078 99.9829 17.2588 100.414 16.9393 100.846ZM21.5708 106.92C21.2727 106.996 20.9533 107.028 20.6339 107.007C20.5061 107.125 20.3783 107.158 20.2612 107.115C20.0802 107.061 20.0696 106.964 20.208 106.845C20.6232 106.5 21.081 106.413 21.6027 106.607C21.9115 106.726 21.9115 106.823 21.5814 106.91L21.5708 106.92ZM34.8902 130.883L32.2604 128.704C32.2604 128.704 32.1859 128.628 32.1539 128.585L23.2743 112.099C23.0614 111.689 23.5618 111.29 23.9025 111.592L29.0344 116.134C29.0344 116.134 29.1089 116.21 29.1408 116.275L35.529 130.398C35.71 130.797 35.2309 131.164 34.9009 130.894L34.8902 130.883ZM23.3063 106.597C23.3701 106.413 23.7641 106.381 24.2113 106.532C24.6584 106.672 24.9565 106.942 24.9033 107.125C24.8394 107.309 24.4455 107.341 23.9983 107.19C23.5511 107.05 23.253 106.78 23.3063 106.597ZM26.5855 106.219C26.7452 106.187 26.9475 106.586 27.0434 107.093C27.1392 107.611 27.086 108.042 26.9262 108.075C26.7665 108.107 26.5642 107.708 26.4684 107.201C26.3726 106.683 26.4258 106.251 26.5855 106.219ZM29.4709 110.049L29.6412 110.233C29.7158 110.308 29.7264 110.384 29.6625 110.47C29.5774 110.589 29.4709 110.653 29.3538 110.675C29.1302 110.707 28.9918 110.61 28.9385 110.394C28.8214 109.941 28.8746 109.51 29.0876 109.121C29.1834 108.938 29.2792 108.938 29.3644 109.121C29.4389 109.262 29.4389 109.434 29.3644 109.65C29.3218 109.801 29.3431 109.941 29.4709 110.06V110.049ZM41.8001 133.235L40.3202 132.588C39.7878 132.35 39.3832 131.897 39.2022 131.347C37.8181 127.226 36.7641 124.399 36.0294 122.888C34.9754 120.73 34.1236 118.681 33.4635 116.728C33.1228 115.692 33.4635 114.678 34.4856 114.332C35.199 114.084 35.9762 114.386 36.3595 115.045C37.8394 117.569 38.9574 119.986 39.7452 122.985C40.6183 126.341 41.4914 129.588 42.3644 132.728C42.5241 133.3 42.3325 133.472 41.7895 133.235H41.8001ZM36.647 108.517C36.647 108.442 36.6576 108.355 36.6896 108.28C36.8067 107.881 36.8599 107.654 36.8599 107.6C36.8599 107.525 36.8599 107.449 36.8812 107.384C36.8812 107.276 36.9344 107.244 37.0409 107.266C37.1687 107.298 37.2858 107.363 37.3816 107.46C37.5733 107.643 37.6265 107.859 37.5307 108.107C37.4242 108.42 37.1793 108.614 36.8173 108.679C36.7002 108.69 36.6363 108.636 36.6363 108.517H36.647ZM39.5536 110.448L39.6175 110.416C41.0016 109.704 42.2473 109.391 42.407 109.726L42.5348 109.984C42.7051 110.319 41.7256 111.16 40.3521 111.873L40.2882 111.905C40.2031 111.959 40.0859 111.927 40.0434 111.829L39.4791 110.707C39.4365 110.621 39.4791 110.502 39.5536 110.459V110.448ZM48.3054 134.994L46.4742 134.109C46.3038 134.023 46.176 133.872 46.1228 133.677L42.0876 118.54C41.9492 118.033 42.4283 117.558 42.9287 117.731L46.2719 118.842C46.5061 118.918 46.6764 119.123 46.7084 119.371L49.2211 134.271C49.3063 134.81 48.7633 135.231 48.2841 134.994H48.3054ZM47.0491 100.997C47.0491 100.997 47.0278 100.997 47.0065 100.997C46.9426 100.997 46.8681 100.997 46.8042 101.008C46.1015 101.127 45.3562 101.191 44.5577 101.213C44.0147 101.213 43.9934 101.137 44.5045 100.954C44.6535 100.9 44.7919 100.846 44.941 100.803C45.0794 100.76 45.2285 100.76 45.3775 100.792C45.9205 100.878 46.4635 100.943 47.0065 100.997C47.0278 100.997 47.0384 100.997 47.0491 100.997C47.0491 100.997 47.0491 101.008 47.0278 100.997H47.0491ZM50.5626 110.621C50.6584 110.556 50.7862 110.578 50.8501 110.675L50.9565 110.815C51.0204 110.912 50.9991 111.042 50.9033 111.107L45.5479 114.947C45.452 115.012 45.3243 114.991 45.2604 114.894L45.1539 114.753C45.09 114.656 45.1113 114.527 45.2072 114.462L50.5626 110.621ZM44.7174 105.647C45.0049 105.475 45.0581 105.539 44.8771 105.82C44.6109 106.241 44.2489 106.446 43.7592 106.446C43.493 106.446 43.4717 106.381 43.7059 106.241L44.7174 105.647ZM54.8534 135.857C54.4807 135.684 54.1826 135.555 53.959 135.447C52.9901 135.005 52.4045 134.26 52.181 133.203C51.1588 128.369 50.5307 123.892 50.2964 119.749C50.2964 119.554 50.4135 119.382 50.6052 119.339C51.3185 119.177 51.8296 118.929 52.149 118.583C52.3513 118.368 52.3513 118.152 52.1703 117.925C51.968 117.677 51.7018 117.505 51.3718 117.418C51.1056 117.343 51.0204 117.181 51.1056 116.933C51.2547 116.49 51.5954 116.296 52.1277 116.328C52.2235 116.328 52.2342 116.382 52.149 116.447C52.1384 116.469 52.1171 116.48 52.1064 116.501C52.0638 116.533 52.0425 116.577 52.0425 116.609C52.0425 116.695 52.0638 116.782 52.1277 116.846C52.2448 116.987 52.3832 116.997 52.5323 116.879C53.1285 116.382 53.6928 116.339 54.2039 116.738C54.502 116.976 54.7256 117.386 54.8853 117.979C55.2366 119.295 55.5986 120.482 55.6306 121.874C55.769 126.449 55.9606 130.786 56.2162 134.886C56.2907 135.965 55.8329 136.278 54.864 135.835L54.8534 135.857ZM51.7551 110.287C51.6805 110.157 51.9361 109.877 52.3087 109.682C52.6814 109.477 53.0434 109.434 53.1179 109.574C53.1924 109.704 52.9369 109.984 52.5642 110.179C52.1916 110.384 51.8296 110.427 51.7551 110.287ZM57.9836 112.606C56.1523 112.531 54.9385 111.937 54.3636 110.794C54.2039 110.481 54.2784 110.416 54.5765 110.589L57.9729 112.606C58.2391 112.606 58.5266 112.714 58.846 112.962C59.0589 113.124 59.2825 113.146 59.5167 113.049C59.7829 112.941 60.0384 112.822 60.3046 112.703C60.5921 112.585 60.6347 112.639 60.443 112.887C60.0491 113.361 59.538 113.61 58.8886 113.61C58.5266 113.61 58.2178 113.275 57.9729 112.606H57.9836ZM63.0835 135.328C63.0835 135.63 62.8386 135.878 62.5298 135.878H59.6445C59.3464 135.889 59.1015 135.652 59.0909 135.339L58.8566 120.148C58.8566 119.705 59.3357 119.425 59.7084 119.673L62.9451 121.799C63.1048 121.906 63.2006 122.079 63.2006 122.273L63.0728 135.328H63.0835ZM60.7731 115.789C60.837 115.649 61.2416 115.692 61.6887 115.886C62.1359 116.08 62.4447 116.361 62.3808 116.501C62.3169 116.641 61.9123 116.598 61.4651 116.404C61.018 116.21 60.7092 115.929 60.7731 115.789ZM63.7649 117.353C63.7223 116.987 64.2866 116.62 65.0319 116.533C65.7772 116.436 66.416 116.663 66.4586 117.03C66.5012 117.397 65.9369 117.763 65.1916 117.85C64.4463 117.947 63.8075 117.72 63.7649 117.353ZM69.3972 135.253C69.3652 135.544 69.1523 135.781 68.8755 135.846L66.6609 136.342C66.2244 136.439 65.8198 136.105 65.8304 135.652L66.2244 122.888C66.2244 122.673 66.3415 122.468 66.5118 122.349L70.0679 119.835C70.5471 119.5 71.1965 119.878 71.1326 120.472L69.4185 135.263L69.3972 135.253ZM71.9631 113.394C73.2514 112.703 74.3906 112.358 74.529 112.606C74.6568 112.854 73.7305 113.62 72.4422 114.311C71.1539 115.001 70.0147 115.347 69.8763 115.099C69.7485 114.85 70.6748 114.084 71.9631 113.394ZM76.0196 133.3L74.1138 135.76C73.4963 136.558 72.2399 136.019 72.3677 135.015L74.3906 119.436C74.4545 118.972 74.8271 118.605 75.285 118.583L78.8517 118.271C79.5331 118.217 80.0655 118.864 79.8845 119.533L76.2006 132.955C76.158 133.084 76.1048 133.203 76.0303 133.3H76.0196ZM83.036 110.211C82.9402 110.049 82.9828 109.833 83.1425 109.747L83.4725 109.553C83.7068 109.402 83.8452 109.467 83.8771 109.747L84.0794 111.301C84.1113 111.581 84.0262 111.819 83.8239 112.013C83.1638 112.649 82.5143 113.135 81.8755 113.448C80.4381 114.171 79.1498 113.771 78.0213 112.272C77.9787 112.218 77.9893 112.153 78.0425 112.099L78.2022 111.937C78.3513 111.786 78.5217 111.775 78.7027 111.916C79.9164 112.93 81.1408 113.156 82.3759 112.574C83.4832 112.056 83.7068 111.268 83.0466 110.222L83.036 110.211ZM79.7461 135.177C78.9263 134.843 79.991 130.149 82.131 124.701C84.2817 119.242 86.6773 115.088 87.4971 115.422C88.3169 115.757 87.2522 120.45 85.1122 125.898C82.9615 131.358 80.5659 135.512 79.7461 135.177ZM89.7436 128.93C89.7436 128.93 89.701 129.006 89.6797 129.038L85.8362 133.807C85.57 134.131 85.0696 133.85 85.1973 133.451L90.8828 116.372C90.9041 116.285 90.9574 116.221 91.0319 116.167L94.8222 113.761C95.1204 113.577 95.4823 113.879 95.3546 114.214L89.7436 128.93ZM91.9901 109.456C92.0114 109.38 92.0753 109.326 92.1498 109.305L94.4922 108.442C94.5667 108.42 94.5774 108.442 94.5561 108.506C94.5241 108.571 94.4815 108.636 94.407 108.701C93.8214 109.218 93.172 109.618 92.448 109.887C92.2776 109.952 92.1498 109.92 92.0327 109.779C91.9475 109.693 91.9369 109.585 91.9795 109.456H91.9901ZM94.9819 107.33V106.597C94.9819 106.478 95.0458 106.413 95.1629 106.413C95.2588 106.413 95.3226 106.456 95.3546 106.564C95.4611 106.91 95.4185 107.201 95.2375 107.438C95.0671 107.654 94.9819 107.622 94.9819 107.341V107.33ZM103.297 110.783C100.476 116.631 97.846 122.187 95.3972 127.452C95.0458 128.207 94.4815 128.941 93.7043 129.664C93.502 129.847 93.3849 129.815 93.3636 129.524C93.2997 128.758 93.3742 128.024 93.5978 127.355C95.0778 122.867 97.0581 117.958 99.5282 112.649C99.656 112.369 99.7199 112.056 99.6986 111.754C99.624 110.804 99.8796 110.125 100.455 109.704C100.891 109.38 101.008 109.467 100.774 109.974C100.476 110.632 100.391 111.247 100.518 111.829C100.614 112.261 100.774 112.283 100.998 111.905C101.434 111.15 101.988 110.567 102.637 110.168C103.553 109.607 103.776 109.801 103.297 110.783ZM101.157 105.313C101.104 105.216 101.53 104.86 102.115 104.493C102.701 104.137 103.223 103.91 103.276 104.007C103.329 104.104 102.903 104.46 102.318 104.827C101.732 105.183 101.21 105.41 101.157 105.313ZM112.794 103.468C112.134 104.007 111.464 104.266 111.283 104.05C111.112 103.835 111.495 103.22 112.156 102.68C112.816 102.141 113.486 101.882 113.667 102.098C113.848 102.313 113.455 102.928 112.794 103.468ZM113.753 99.7563C113.667 99.9506 113.337 99.9829 113.029 99.8319C112.72 99.6808 112.55 99.4003 112.645 99.2061C112.731 99.0119 113.061 98.9795 113.369 99.1306C113.678 99.2816 113.848 99.5621 113.753 99.7563ZM106.055 92.4413C104.074 92.8729 102.903 93.1534 102.552 93.3044C99.0278 94.8365 98.1441 98.9687 94.8009 100.932C87.1032 105.485 80.6085 102.734 73.262 99.3679C70.7281 98.2135 68.2899 98.6127 65.3513 98.7206C61.1883 98.8824 56.2801 95.7428 52.7559 93.4231C52.0106 92.9376 50.7755 92.8729 49.0294 93.2181C46.9959 93.6281 45.2604 94.297 43.0778 94.1999C35.3267 93.8331 28.7788 90.9092 25.5528 83.5942C24.9778 82.2887 24.6904 81.1235 24.6797 80.0877C24.6584 77.3797 24.2751 77.3257 23.5192 79.9259C23.2424 80.8861 22.9975 81.8464 22.7846 82.7958C22.7207 83.0547 22.8059 83.2489 23.0294 83.3784C23.3914 83.5942 23.615 83.8855 23.6896 84.2631C23.7747 84.6192 23.4873 84.9536 23.1253 84.9213C21.262 84.7594 20.8042 85.0399 21.7305 85.752C21.8583 85.8599 22.0286 85.8923 22.1883 85.8491C24.0835 85.4176 25.1695 86.011 25.4463 87.6509C25.5847 88.4385 25.1163 89.1938 24.371 89.4419C20.4529 90.6827 17.3865 87.3272 15.2784 84.371C12.8296 80.9401 12.7764 76.4949 15.4807 73.215C17.4611 70.8091 20.719 70.1941 23.7002 70.2264C23.9664 70.2264 24.158 70.3451 24.2645 70.6041C25.2014 72.6756 25.5847 75.0816 27.1072 76.6568C28.9918 78.6096 31.1531 80.174 33.6019 81.3716C33.8681 81.5011 34.1769 81.3932 34.3153 81.1343C34.4643 80.843 34.475 80.584 34.3366 80.3467C34.2301 80.1633 34.2301 79.969 34.3366 79.7856C34.6347 79.2785 34.7731 78.9764 34.7731 78.8901C34.7305 77.2718 34.294 77.1531 33.4422 78.5233C33.3357 78.6959 33.1441 79.052 32.8673 79.6022C32.6863 79.9583 32.1859 79.9906 31.9623 79.6562C31.5045 78.998 31.0466 78.3615 30.5675 77.7573C29.3218 76.1821 27.1711 76.031 27.9909 73.01C28.1826 72.298 28.321 71.3161 28.4062 70.0862C28.7682 64.5298 33.6871 61.9835 38.5954 61.8217C40.6289 61.7462 42.5454 61.4657 44.3448 60.9586C45.0688 60.7536 45.5798 60.0846 45.5905 59.3186C45.665 54.3125 45.4414 49.8781 50.7862 47.634C51.1588 47.4829 51.5741 47.7311 51.6167 48.1411C51.9467 51.6583 53.8419 53.9564 57.3128 55.0245C60.5921 56.0387 62.9025 56.5566 64.2547 56.5458C66.8845 56.535 70.1425 57.3118 72.389 56.8263C76.3497 55.9632 78.362 53.158 78.4365 48.4324C78.4365 47.6016 79.1072 46.9435 79.9271 46.9219C82.5995 46.8787 85.7723 46.5874 88.1253 47.5153C90.7018 48.5295 92.7141 50.342 94.1195 52.9422C94.4283 53.5033 95.0991 54.1506 96.1425 54.8519C96.7387 55.2619 97.5692 55.6072 98.6339 55.9092C103.638 57.3118 106.853 61.6491 110.388 65.0153C112.677 67.1947 114.2 69.0828 114.988 70.6796C119.055 79.0088 115.861 90.3806 106.055 92.4629V92.4413ZM119.364 97.1454C119.246 97.1454 119.119 96.6491 119.087 96.0233C119.044 95.4083 119.108 94.8904 119.225 94.8797C119.342 94.8797 119.47 95.376 119.502 96.0017C119.545 96.6275 119.481 97.1454 119.364 97.1454ZM120.418 99.3248C120.098 99.26 119.885 98.9795 119.939 98.7206C119.992 98.4509 120.301 98.2998 120.62 98.3645C120.939 98.4293 121.152 98.7098 121.099 98.9687C121.046 99.2385 120.737 99.3895 120.418 99.3248ZM122.142 90.9092C121.983 90.7258 121.908 90.51 121.908 90.2511C121.908 89.9922 121.876 89.7656 121.802 89.5282C121.759 89.3664 121.759 89.1938 121.802 89.0211C121.834 88.8809 121.961 88.7838 122.1 88.7946C122.249 88.7946 122.355 88.9133 122.366 89.0643L122.462 90.7798C122.483 91.1142 122.377 91.1574 122.153 90.9092H122.142Z" fill="black"/>
<path d="M52.7879 63.1596C52.6708 63.289 52.543 63.3645 52.4153 63.3861C52.2662 63.4077 52.1384 63.3645 52.0107 63.2674L50.6159 62.113C50.3923 61.9296 50.1368 61.8756 49.86 61.9404C48.8804 62.2101 47.9116 62.2856 46.932 62.167C46.751 62.1454 46.5594 62.1669 46.389 62.2425C46.2826 62.2856 46.2187 62.3612 46.1548 62.4475C46.059 62.6201 46.1548 62.8467 46.3465 62.8898C48.1032 63.3322 49.6257 64.26 50.9034 65.6411C51.0205 65.7705 51.0524 65.9539 50.9992 66.1158L50.8288 66.6013C50.7543 66.8171 50.6478 66.8387 50.4988 66.6552C49.3702 65.2526 48.018 64.1306 46.421 63.2674C46.1867 63.1488 46.059 62.9438 46.0483 62.674C45.9632 60.0739 46.8469 57.9268 48.7101 56.2006C48.9869 55.9416 49.2744 55.9416 49.5512 56.2006L49.7322 56.384C49.8493 56.4919 49.8706 56.6753 49.7748 56.794C48.6782 58.2397 47.837 59.5883 47.2195 60.8723C46.8362 61.6706 47.0279 61.8649 47.8051 61.4549C48.3055 61.1959 48.8379 60.883 49.4021 60.4946C49.6151 60.3544 49.7748 60.4083 49.86 60.6457C49.9026 60.7536 49.9558 60.8507 50.041 60.937C50.222 61.1204 50.3817 61.1096 50.5201 60.883C50.7011 60.5702 50.6904 60.2789 50.4775 60.0199C50.3178 59.8257 50.2752 59.6099 50.371 59.3726L50.9353 57.765C51.308 56.7184 52.6495 56.4703 53.3735 57.301C54.2465 58.3152 54.6937 59.4912 54.7044 60.8507C54.7044 61.4117 54.6192 61.5088 54.4062 61.1528C54.2891 60.9478 54.2252 60.7212 54.2465 60.4623C54.2891 59.8257 54.0762 59.2539 53.661 58.8871C53.6184 58.8439 53.2883 58.5742 52.6921 58.0563C52.2449 57.6787 51.9574 57.7758 51.819 58.3476C51.3505 60.376 51.9894 61.757 53.7461 62.5014C53.991 62.6093 54.1507 62.7819 54.2359 63.0301C54.3956 63.5372 54.3317 63.9795 54.0442 64.3464C53.81 64.6485 53.6397 64.6161 53.5119 64.2493L53.1818 63.2243C53.0967 62.933 52.9476 62.9006 52.7453 63.1272L52.7879 63.1596Z" fill="black"/>
<path d="M70.1958 59.1786C72.6446 59.6641 74.6569 60.4733 76.2113 61.6062C76.733 61.9838 76.7969 62.4261 76.403 62.9332L76.1474 63.2569C75.8174 63.6885 75.2105 63.764 74.7953 63.4295C73.5709 62.4693 72.4104 62.2643 71.3031 62.8253C71.0369 62.9656 70.7175 62.8685 70.5471 62.6204L69.2375 60.6244C68.7797 59.9339 69.3866 59.0276 70.1958 59.1894V59.1786Z" fill="black"/>
<path d="M59.1441 61.7249C58.846 61.4444 58.4733 61.3149 58.0475 61.3149C57.6429 61.3149 57.3767 60.8941 57.5577 60.5273C57.8026 60.0202 58.5266 60.0202 59.7403 60.5273C60.294 60.7647 60.4856 61.1639 60.3046 61.7465C60.1662 62.2104 59.8362 62.7714 59.3145 63.408C58.9844 63.8288 58.6437 63.9475 58.2817 63.7748C58.0155 63.6454 58.0155 63.5051 58.2604 63.3541C58.6863 63.0951 59.0163 62.7714 59.2399 62.3938C59.3783 62.1457 59.3464 61.9299 59.1441 61.7249Z" fill="black"/>
<path d="M81.5668 62.2967C80.8108 62.3398 80.0229 62.5772 79.2031 63.0087C79.0647 63.0843 78.9795 63.0411 78.9369 62.8901L78.8624 62.6311C78.7879 62.3722 78.9369 62.1025 79.1818 62.0161L82.3227 60.9588C82.5676 60.8725 82.7379 60.9588 82.8124 61.207C83.0893 62.0593 82.855 62.7498 82.0991 63.2569C81.801 63.4619 81.7158 63.3972 81.8329 63.0519C81.8862 62.9009 81.9075 62.7606 81.9075 62.6203C81.9075 62.383 81.7903 62.2751 81.5561 62.2859L81.5668 62.2967Z" fill="black"/>
<path d="M34.7306 68.716C33.602 71.2299 31.9837 73.323 29.8755 75.0169C29.5668 75.2542 29.1196 75.2434 28.8321 74.9737C28.6937 74.855 28.5979 74.6932 28.5234 74.5314C28.4169 74.2724 28.5127 73.9703 28.747 73.8301C30.8338 72.5462 32.2605 71.2838 33.0058 70.0647C34.1769 68.1442 35.4013 66.1158 36.7003 63.9688C36.7429 63.8933 36.8067 63.8825 36.8706 63.9256L37.2113 64.1306C37.3285 64.2061 37.3497 64.2925 37.2859 64.4111C36.4022 65.9108 35.4439 67.1516 34.7199 68.7376L34.7306 68.716Z" fill="black"/>
<path d="M30.0246 76.3979L30.1204 75.88C30.1737 75.5779 30.3334 75.3621 30.6102 75.2219C31.2277 74.909 31.8452 74.5961 32.4734 74.294C34.8371 73.1396 35.5291 70.3668 36.8493 67.5939C37.1368 67.0005 37.946 66.0835 39.2769 64.8535C39.4579 64.6809 39.6176 64.7132 39.7347 64.9398C39.7666 64.9938 39.7773 65.0693 39.7773 65.1556C39.7773 65.2419 39.7453 65.3174 39.6814 65.4037C39.2449 66.0295 38.7871 66.6337 38.3186 67.2379C37.0729 68.8347 36.3489 70.7767 35.4333 72.557C34.9435 73.5172 34.2195 74.2832 33.2826 74.8766C32.3137 75.5024 31.3768 76.0958 30.4718 76.6892C30.0991 76.9373 29.9501 76.8402 30.0353 76.3871L30.0246 76.3979Z" fill="black"/>
<path d="M32.9951 65.5765C32.3989 66.1375 31.9198 66.5583 31.5365 67.3028C31.4939 67.3891 31.4406 67.4106 31.3874 67.3675C31.3874 67.3675 31.3661 67.3459 31.3448 67.3243C31.3235 67.292 31.3235 67.2596 31.3448 67.2164C31.7175 66.5044 32.2179 65.8894 32.8354 65.3607C32.8993 65.3068 32.9525 65.3176 33.0058 65.3823C33.059 65.447 33.059 65.5118 33.0058 65.5657L32.9951 65.5765Z" fill="black"/>
<path d="M44.6961 76.7003L46.9533 81.3073C47.5815 82.5912 47.3259 82.8178 46.1654 81.987C44.8984 81.0699 43.4078 80.8326 42.3325 79.4839C40.3095 76.9485 37.8075 70.7339 41.3849 68.5869C43.6101 67.249 46.3251 68.3711 47.475 70.6152C47.7305 71.1223 47.6773 71.5107 47.3259 71.7912C47.0917 71.9639 46.8681 71.9639 46.6339 71.7912C46.208 71.4568 45.846 71.0684 45.5479 70.6152C45.3988 70.3887 45.1965 70.2268 44.9516 70.1405C44.1212 69.8384 43.4611 69.9679 42.9713 70.5181C41.8001 71.8236 42.8329 74.0246 43.5675 75.3948C43.7485 75.7077 44.1638 75.7724 44.4086 75.5027L45.9738 73.8088C46.3783 73.3665 47.0917 73.7657 46.9533 74.3483C46.6445 75.6861 45.9844 76.3227 44.9942 76.2472C44.6322 76.2256 44.5258 76.3658 44.6855 76.7003H44.6961Z" fill="black"/>
<path d="M52 73.0317C51.5528 73.0856 51.0737 72.2333 50.9353 71.122C50.7969 70.0107 51.0524 69.0613 51.5102 69.0073C51.9574 68.9534 52.4365 69.8057 52.5749 70.917C52.7133 72.0283 52.4578 72.9777 52 73.0317Z" fill="black"/>
<path d="M59.4316 69.5899C62.1892 71.2298 65.0639 73.1826 68.077 75.4376C69.4291 76.4625 73.2195 79.3325 72.5274 81.3177C72.389 81.7169 71.9099 81.8679 71.5798 81.609C68.4496 79.2246 65.2874 76.9049 62.0933 74.6392C60.3792 73.42 58.9418 72.0606 57.8026 70.5501C56.8976 69.3741 57.1744 68.8993 58.6331 69.1475C58.6757 69.1475 58.9525 69.2985 59.4422 69.5899H59.4316Z" fill="black"/>
<path d="M80.7362 72.0066L78.8943 72.3411C78.33 72.449 77.9041 71.834 78.181 71.3269L78.7772 70.2696C78.8198 70.1941 78.8837 70.1078 78.9688 70.0538L80.2358 69.1475C80.683 68.8238 81.3112 69.1475 81.3005 69.7193L81.2792 71.3485C81.2792 71.683 81.0343 71.9527 80.7256 72.0174L80.7362 72.0066Z" fill="black"/>
<path d="M20.0057 74.5962L22.0073 73.6468C22.4652 73.431 22.9762 73.8302 22.9017 74.3373C22.8378 74.7473 22.742 75.071 22.6036 75.3083C22.3906 75.6751 21.9435 75.8262 21.5602 75.6644L20.0163 75.0278C19.6863 74.8875 19.6863 74.7473 20.0163 74.5962H20.0057Z" fill="black"/>
<path d="M53.3735 78.9443C52.2449 80.7677 52.1491 83.1197 53.0541 85.9896C53.3309 86.8743 53.086 87.0793 52.2981 86.583C50.946 85.7523 49.6364 84.5547 48.3907 82.9795C48.2203 82.7637 48.1777 82.5371 48.2629 82.2782C49.136 79.5377 49.9345 75.7399 53.4267 75.2652C55.2687 75.0171 57.0361 75.0171 58.7289 75.2652C59.3039 75.3515 59.751 75.837 59.8043 76.4197L59.9001 77.5309C59.9533 78.2107 59.6872 78.4049 59.0696 78.1028C57.4087 77.2936 54.5553 77.0131 53.3841 78.9335L53.3735 78.9443Z" fill="black"/>
<path d="M25.0418 76.7111C24.8927 76.8945 24.5201 76.8405 24.222 76.5924C23.9239 76.3334 23.7961 75.9774 23.9451 75.794C24.0942 75.6106 24.4668 75.6645 24.765 75.9127C25.0631 76.1716 25.1908 76.5276 25.0418 76.7111Z" fill="black"/>
<path d="M18.1957 76.1177C18.4512 76.4629 17.9508 77.2829 17.0778 77.941C16.2047 78.61 15.2997 78.8689 15.0442 78.5237C14.7887 78.1784 15.2891 77.3584 16.1621 76.7003C17.0352 76.0314 17.9402 75.7724 18.1957 76.1177Z" fill="black"/>
<path d="M36.7215 78.2755C36.3701 77.736 35.9656 77.2289 35.5077 76.7758C35.4226 76.6895 35.4226 76.6139 35.5077 76.5276C35.5823 76.4413 35.6674 76.4413 35.7526 76.5276C36.3169 77.0995 36.9451 77.6173 37.6265 78.0705C37.8501 78.2215 37.914 78.4157 37.8288 78.6747C37.5839 79.4083 37.19 79.9802 36.6576 80.4117C35.7633 81.1346 35.561 80.9728 36.0507 79.9262C36.1466 79.7212 36.3595 79.3975 36.7002 78.9444C36.8705 78.7286 36.8812 78.5128 36.7215 78.2863V78.2755Z" fill="black"/>
<path d="M87.8379 79.1063C87.0926 78.7071 86.6135 78.1244 86.4112 77.3153C86.3366 77.0347 86.4431 76.8837 86.7199 76.8513C87.6249 76.7434 88.3596 76.8513 88.8919 77.1858C89.3497 77.4771 89.5201 78.0813 89.2752 78.5668C88.9239 79.2573 88.4447 79.4407 87.8379 79.117V79.1063Z" fill="black"/>
<path d="M18.8665 79.1277C18.76 78.8471 18.7281 78.6098 18.7919 78.4264C18.8878 78.1243 19.2817 78.0595 19.484 78.2969C19.8566 78.7608 19.9312 79.2571 19.7182 79.7966C19.6118 80.0771 19.452 80.1095 19.271 79.8505C19.1007 79.6348 18.9729 79.3866 18.8771 79.1277H18.8665Z" fill="black"/>
<path d="M19.7609 81.145C19.8035 81.9974 19.516 82.6231 18.8665 83.0439C18.4087 83.346 18.2916 83.2381 18.5258 82.731C18.7601 82.2024 19.0475 81.6413 19.3776 81.0587C19.6012 80.6487 19.729 80.6919 19.7609 81.145Z" fill="black"/>
<path d="M56.8444 83.0659L58.6651 84.2203C58.8354 84.3282 58.8567 84.5548 58.7076 84.6951L58.5373 84.8677C58.4734 84.9324 58.3989 84.954 58.3137 84.9108C56.6102 84.2851 55.8436 83.0875 56.014 81.3288C56.0565 80.9836 56.2482 80.811 56.5889 80.8218L59.1974 80.8865C59.5594 80.8865 59.8256 81.2317 59.7617 81.577L59.6978 81.9546C59.6126 82.4617 59.3252 82.6559 58.8354 82.548C58.2605 82.4186 57.6323 82.4078 56.9509 82.5372C56.4505 82.6235 56.4079 82.807 56.8444 83.0767V83.0659Z" fill="black"/>
<path d="M35.8592 89.0214C35.8698 88.8703 35.9124 88.7193 35.9763 88.579C36.0615 88.3632 36.1786 88.3524 36.3063 88.5466L37.733 90.7584C37.8715 90.9958 37.8076 91.0929 37.552 91.0605C34.7199 90.7153 32.4202 89.4961 30.6421 87.403C30.2375 86.9175 29.5987 86.2486 28.7576 85.3962C28.172 84.8028 27.6184 84.026 27.1073 83.0658C26.9902 82.85 27.0221 82.6666 27.2138 82.5155L27.7355 82.1271C28.0017 81.9221 28.1507 81.9976 28.1614 82.3321C28.2253 83.9505 29.2048 85.9357 30.9509 85.9357C31.1958 85.9357 31.3768 86.0436 31.4726 86.2809C32.1327 87.7914 33.421 88.8164 35.3375 89.3666C35.6462 89.4529 35.8059 89.345 35.8379 89.0214H35.8592Z" fill="black"/>
<path d="M105.821 85.4502C105.714 85.5689 105.363 85.407 105.043 85.1049C104.724 84.7921 104.554 84.4576 104.66 84.3389C104.767 84.2202 105.118 84.3821 105.437 84.6842C105.757 84.997 105.927 85.3315 105.821 85.4502Z" fill="black"/>
<path d="M97.3456 85.0616C97.8567 85.4716 98.4742 85.7953 99.2089 86.0434C99.3899 86.1082 99.4963 86.2484 99.5176 86.4534C99.5176 86.5289 99.507 86.5937 99.4644 86.6476C99.4325 86.6908 99.3899 86.7123 99.3366 86.7016L96.2384 86.3563C95.9509 86.3239 95.8551 86.1729 95.9615 85.9032C96.1319 85.45 96.4407 85.1479 96.8985 84.9861C97.0582 84.9321 97.2392 84.9645 97.3669 85.0724L97.3456 85.0616Z" fill="black"/>
<path d="M40.9697 90.4994L42.0132 90.672C42.3113 90.7152 42.5987 90.5425 42.6946 90.2512L43.0353 89.1831C43.0885 88.9781 43.2163 88.935 43.4079 89.0213L43.6315 89.1292C43.738 89.1831 43.7699 89.2694 43.738 89.3881L42.9607 91.5675C42.8649 91.848 42.6839 91.9128 42.4177 91.7941C41.4169 91.3086 40.5119 91.1252 39.7134 91.2223C38.7445 91.3517 38.6487 91.1144 39.4259 90.5317C39.9902 90.0894 40.3522 89.3665 40.5013 88.3523C40.6503 87.3382 40.9591 87.295 41.4382 88.1905C41.5127 88.3092 41.2679 88.8918 40.7142 89.9168C40.5332 90.2512 40.629 90.4346 40.9804 90.4886L40.9697 90.4994Z" fill="black"/>
<path d="M45.8353 90.1866C45.9099 90.0787 46.0589 90.0679 46.1547 90.1434L46.2612 90.2189C46.7829 90.6289 46.9107 91.3626 46.5487 91.8481L46.3996 92.0423C46.027 92.5278 45.303 92.5818 44.7813 92.1718L44.6748 92.0963C44.579 92.0099 44.5577 91.8697 44.6322 91.7618L45.8353 90.1866Z" fill="black"/>
<path d="M56.8337 91.6972C56.8763 92.0425 57.0253 92.3446 57.2915 92.6035C58.0475 93.3264 59.4103 93.3048 60.3792 94.2219C60.5389 94.3729 60.4217 94.6534 60.1982 94.6319C57.8878 94.47 56.5249 93.3156 56.0884 91.1901C56.0245 90.8665 56.1523 90.6615 56.4611 90.5967L58.2072 90.176C58.5372 90.0896 58.8779 90.2515 59.0376 90.5536L59.5167 91.4814C59.6232 91.6864 59.5593 91.8267 59.357 91.913C59.2719 91.9454 59.176 91.9562 59.0802 91.9346C59.027 91.9346 58.995 91.8914 58.9737 91.8483C58.5479 90.8665 57.9303 90.6075 57.1531 91.0607C56.9082 91.2009 56.8018 91.4167 56.8231 91.6972H56.8337Z" fill="black"/>
<path d="M62.8386 93.4986C62.7321 93.6389 62.3382 93.531 61.9549 93.2397C61.5716 92.9592 61.348 92.6031 61.4545 92.4629C61.561 92.3226 61.9549 92.4305 62.3382 92.7218C62.7215 93.0023 62.9451 93.3584 62.8386 93.4986Z" fill="black"/>
<path d="M70.3874 94.3726C70.3661 94.5237 69.9615 94.5992 69.4931 94.5237C69.014 94.4589 68.652 94.2863 68.6733 94.1353C68.6946 93.9842 69.0991 93.9087 69.5676 93.9842C70.0467 94.049 70.4087 94.2216 70.3874 94.3726Z" fill="black"/>
<path d="M78.1277 94.7719C78.2023 94.9553 77.6912 95.3222 76.9885 95.5919C76.2858 95.8616 75.6789 95.9264 75.6044 95.743C75.5299 95.5595 76.0409 95.1927 76.7436 94.923C77.4463 94.6533 78.0532 94.5885 78.1277 94.7719Z" fill="black"/>
<path d="M64.4357 96.5519C64.3612 96.7677 63.6478 96.7029 62.828 96.4224C62.0188 96.1419 61.4226 95.7319 61.4865 95.5161C61.561 95.3004 62.2744 95.3651 63.0942 95.6456C63.9034 95.9261 64.4996 96.3361 64.4357 96.5519Z" fill="black"/>
<path d="M82.8764 96.0341C84.0475 97.1885 85.0484 96.8972 86.4538 97.3827C86.7199 97.469 86.7519 97.6201 86.539 97.8251C86.0172 98.3214 85.421 98.5911 84.7396 98.6558C84.5054 98.6666 84.2924 98.6234 84.0795 98.5156L82.2482 97.5445C82.163 97.5014 82.1311 97.4259 82.163 97.3288L82.6209 96.088C82.6741 95.9477 82.7593 95.9262 82.8657 96.0341H82.8764Z" fill="black"/>
<path d="M91.0425 97.7603C91.2768 97.9437 91.3726 98.2027 91.3407 98.5371C91.2874 99.0442 91.1596 99.0658 90.9787 98.5803C90.6167 97.674 90.0417 97.4367 89.2645 97.8682C89.1474 97.9222 89.0196 97.8898 88.9557 97.7927C88.9025 97.7172 88.8812 97.6309 88.9238 97.5445C88.9451 97.5014 88.977 97.4582 89.0196 97.4367C89.9246 96.7461 90.9467 96.4225 92.0646 96.4548C92.3628 96.4548 92.4905 96.6167 92.4373 96.9188C92.4373 97.0051 92.3947 97.0914 92.3415 97.1669C92.2031 97.3503 92.0327 97.3935 91.8411 97.2856C91.6068 97.1669 91.3619 97.1346 91.1277 97.2101C90.7338 97.3288 90.7018 97.5122 91.0319 97.7603H91.0425Z" fill="black"/>
<path d="M88.9877 98.5591C89.1048 98.3865 89.2645 98.3541 89.4455 98.4728C89.6159 98.5807 89.6265 98.8288 89.4668 98.9475C88.5937 99.6272 87.6568 100.177 86.6347 100.587C85.6871 100.965 84.6437 100.997 83.5151 100.663C80.8001 99.8646 78.1916 98.8073 75.6789 97.491C75.5405 97.4154 75.4873 97.3399 75.5086 97.2644C75.5086 97.232 75.5192 97.1997 75.5511 97.1781C75.5831 97.1349 75.6363 97.1134 75.7002 97.1349C76.4136 97.3507 77.1269 97.4155 77.8615 97.3399C78.1171 97.3076 78.3087 97.4047 78.4258 97.6312C79.6077 99.7351 81.769 99.6164 83.8878 99.6056C84.1539 99.6056 84.3882 99.6704 84.6118 99.8106C86.4537 100.922 87.2416 98.8504 88.977 98.5699L88.9877 98.5591Z" fill="black"/>
<path d="M99.5069 60.1385C98.027 56.5997 94.9287 56.5026 91.724 55.866C91.3833 55.8013 91.1171 55.5639 91 55.2295C90.0205 52.2732 88.3169 50.2665 85.8681 49.2199C84.8992 48.8099 83.8239 49.4681 83.7281 50.5254L83.5258 52.7156C83.5045 52.9853 83.6109 53.1472 83.8771 53.2227C85.2932 53.568 86.9861 53.719 86.8902 55.6718C86.8902 55.9416 86.7731 56.1573 86.5495 56.3192C85.8894 56.8155 85.4209 57.4413 85.1441 58.2289C84.9631 58.7683 85.0589 59.2107 85.4316 59.5451C85.6232 59.7178 85.751 59.9335 85.8149 60.1817L86.3366 62.3287C86.4963 62.9761 87.2948 63.2027 87.7526 62.7279C88.977 61.4548 89.8075 60.0199 90.244 58.4231C90.3186 58.121 90.638 57.9591 90.9361 58.0454C92.5757 58.5417 94.0237 59.2215 95.2588 60.0954C98.6339 62.4366 98.4316 66.8062 96.8452 70.2156C96.7494 70.4206 96.4832 70.4961 96.2915 70.3667C96.1212 70.248 96.0147 70.043 95.9402 69.7409C95.2481 66.6983 93.3636 65.2526 90.276 65.4144C88.2743 65.5223 85.8149 65.2634 82.887 64.6592C81.407 64.3463 78.4259 64.5729 73.9222 65.3065C70.6748 65.846 67.321 66.4718 63.9033 67.1731C63.1155 67.3349 62.8493 68.3383 63.4455 68.8778C66.2457 71.3916 69.1736 71.7369 72.208 69.9351C73.3579 69.2446 74.3906 68.8022 75.3063 68.608C77.4889 68.1441 79.8632 67.5615 82.4398 66.8386C83.3235 66.5905 84.4095 66.5149 85.7191 66.6012C86.9115 66.6876 88.0933 66.6012 89.2752 66.3099C89.7543 66.202 90.1482 66.7199 89.914 67.1515C89.2113 68.4893 89.0622 69.9675 89.4668 71.5643C89.5307 71.834 89.6691 72.039 89.8927 72.2008C91.8304 73.7005 93.5872 73.4092 95.1523 71.3269C95.2375 71.219 95.3227 71.2082 95.4291 71.2945L95.5888 71.424C95.7485 71.575 95.7698 71.8124 95.6314 71.9742C94.2686 73.571 92.8206 74.8981 91.2981 75.9554C90.5102 76.4949 90.5954 76.7646 91.543 76.7538C93.321 76.7323 95.6101 73.8623 96.9304 72.6863C100.55 69.428 101.37 64.616 99.4963 60.117L99.5069 60.1385ZM93.4594 70.3235C92.4373 70.5501 91.362 69.5251 91.724 68.4354C91.8092 68.1657 91.9901 68.1009 92.2457 68.2304C92.8632 68.5649 93.3317 69.1367 93.6511 69.9675C93.7256 70.1617 93.6511 70.2803 93.4594 70.3235Z" fill="black"/>
<path d="M110.995 69.2881C110.495 68.6407 109.504 68.7163 109.1 69.4283C107.897 71.543 106.438 73.6901 104.724 75.8263C102.808 78.2323 105.065 81.0483 106.928 82.645C107.141 82.8177 107.322 82.7853 107.471 82.5695C108.45 81.1777 108.993 80.0988 109.132 79.3436C109.473 77.3584 109.313 75.9989 108.631 75.2221C107.982 74.4885 107.907 73.6901 108.418 72.8377C108.525 72.6651 108.621 72.5032 108.727 72.3306C109.228 71.4783 109.76 71.4567 110.346 72.2551C111.155 73.3772 111.527 74.4129 111.474 75.3732C111.368 77.1965 110.952 79.678 110.207 82.8177C110.143 83.0874 110.228 83.1629 110.484 83.0442C111.432 82.6019 112.081 81.933 112.432 81.0483C114.168 76.6571 113.699 72.7298 111.016 69.2773L110.995 69.2881ZM107.311 75.0063C107.492 74.8121 107.673 74.8013 107.865 74.974C108.003 75.0926 108.046 75.2761 108.003 75.5026C107.982 75.5889 107.918 75.6753 107.844 75.7184L107.588 75.8587C107.247 76.0529 107.077 75.945 107.088 75.5458C107.088 75.3408 107.162 75.1682 107.311 75.0063ZM108.312 77.2721L107.631 80.0341C107.545 80.347 107.226 80.5412 106.917 80.4656L106.789 80.4333C105.618 80.1312 104.862 79.0738 105.107 78.0704L105.182 77.8007C105.427 76.7973 106.577 76.2255 107.758 76.5168L107.886 76.5492C108.195 76.6355 108.387 76.9592 108.312 77.2721Z" fill="black"/>
<path d="M89.733 91.33L89.1048 83.1302C89.0942 82.8713 88.9558 82.7526 88.7002 82.7526C85.5274 82.9252 83.792 81.4471 83.4619 78.3075C83.43 78.0378 83.2809 77.8975 83.0147 77.9083C81.0131 77.9622 79.4586 78.7175 78.362 80.1848C77.4783 81.3608 76.8182 82.1053 76.3604 82.4289C73.5921 84.4034 70.3129 85.2233 67.3743 87.133C66.1499 87.9206 66.4267 89.8087 67.8321 90.1971C70.398 90.9092 73.8796 90.8661 76.5201 90.6071C79.6503 90.2942 78.8411 94.5128 81.7903 94.707C82.0672 94.7286 82.2269 94.5991 82.3014 94.3294C82.5676 93.3691 82.706 92.8728 83.5364 92.2147C85.3677 90.7798 86.3686 89.1398 88.5299 88.1688C88.8174 88.0393 89.1368 88.2659 89.1048 88.5788C89.009 89.5606 89.1687 90.4884 89.5733 91.3839C89.6904 91.6429 89.7437 91.6213 89.7224 91.3408L89.733 91.33ZM87.5397 86.8417C87.4971 87.1222 87.3374 87.2733 87.0606 87.3056C86.0491 87.4351 85.059 87.4243 84.0794 87.2841C82.8976 87.1114 81.6626 87.4567 80.4488 87.0683C80.2039 86.9928 79.9484 86.9928 79.6929 87.0683C78.0106 87.5646 76.3391 88.0717 74.6675 88.6003C73.3153 89.0319 71.8993 89.0643 70.5045 89.129C70.3554 89.129 70.2703 89.0643 70.2064 88.924C70.1851 88.8485 70.1744 88.773 70.1851 88.7082C70.1851 88.6543 70.217 88.6219 70.2703 88.6003C73.507 87.2517 76.6052 85.6549 79.5864 83.7992C80.172 83.4323 80.534 82.8066 81.1196 82.5153C81.3432 82.4074 81.6093 82.4721 81.7477 82.6771C82.674 84.0149 84.122 84.8457 86.0811 85.1694C87.2097 85.3528 87.6888 85.9138 87.5291 86.8525L87.5397 86.8417Z" fill="black"/>
<path d="M100.423 81.8357C100.327 81.7278 100.156 81.717 100.05 81.8141L99.869 81.9652C99.7838 82.0407 99.7625 82.127 99.837 82.2241C101.029 83.918 103.052 85.0401 101.679 87.5216C101.541 87.7589 101.349 87.9208 101.104 88.0071C99.6773 88.5142 98.7191 89.5499 97.335 89.7441C96.6429 89.8412 95.8124 89.8844 94.8862 89.8844C93.8747 89.8844 93.4062 90.3591 93.4701 91.2978C93.4807 91.5675 93.6085 91.7941 93.8321 91.9451C96.5897 93.8764 99.113 92.6464 101.636 91.1144C104.937 89.1076 102.382 83.8317 100.423 81.8249V81.8357ZM98.7297 91.0712C97.8141 91.3949 97.0262 91.492 96.9517 91.2978C96.8878 91.1036 97.5692 90.6828 98.4742 90.3483C99.3898 90.0247 100.178 89.9276 100.252 90.1218C100.316 90.316 99.6347 90.7368 98.7297 91.0712Z" fill="black"/>
</g>
<defs>
<clipPath id="clip0_2346_1602">
<rect width="130" height="140" fill="white"/>
</clipPath>
</defs>
</svg>
