<svg width="141" height="141" viewBox="0 0 141 141" fill="none" xmlns="http://www.w3.org/2000/svg">
<g clip-path="url(#clip0_2209_81)">
<path d="M72.4102 0.570116C33.7653 -0.533588 1.5788 29.8946 0.528667 68.5422C-0.521464 107.181 29.9498 139.413 68.5947 140.516C107.24 141.62 139.426 111.192 140.476 72.5442C141.526 33.9056 111.055 1.67382 72.4102 0.570116ZM120.812 110.133C111.843 121.376 98.8647 130.224 84.9592 132.862C78.2734 134.136 71.6313 134.504 65.0417 133.975C46.9707 132.512 30.2561 123.081 19.3435 108.724C5.86684 90.9752 2.58517 69.1254 10.5049 48.0294C11.9401 44.1979 14.2766 39.7471 17.5145 34.6683C20.1836 30.4688 23.054 26.9334 26.1256 24.062C37.7296 13.2134 51.3988 7.28208 67.142 6.28605C73.2065 5.9002 78.9297 6.42065 84.3116 7.84739C107.222 13.9043 126.413 30.1907 132.486 53.9248C137.553 73.7646 133.51 94.2235 120.812 110.133Z" fill="black"/>
<path d="M46.8745 20.3105C42.7352 22.3474 38.2634 25.1471 33.4678 28.6915C28.6109 32.2897 24.7342 37.0635 20.4987 41.4245C19.9736 41.9718 19.0635 41.6488 18.976 40.8861C18.8622 39.89 19.081 38.903 19.6411 37.9249C25.128 28.2787 33.2578 21.9885 42.4902 16.7751C49.316 12.9256 57.4458 10.4489 66.8882 9.35422C68.1921 9.20167 68.901 9.80288 68.9972 11.1489L69.0235 11.4539C69.0848 12.3154 68.5159 13.0871 67.6933 13.2576C60.2636 14.774 53.324 17.125 46.8745 20.3105Z" fill="black"/>
<path d="M86.5345 73.5942C87.0508 73.0289 87.4358 72.4277 87.7071 71.7906C88.8273 69.1166 89.7636 66.4784 90.525 63.8762C92.9053 55.7106 87.9346 48.4872 80.5837 45.0863C72.9703 41.5598 64.3767 43.1302 57.3408 47.4104C49.6661 52.0675 44.8793 58.7794 42.989 67.5283C39.1648 85.1696 50.5762 98.7192 67.4571 100.316C79.5598 101.456 92.9928 93.9185 102.278 85.4299C102.768 84.9902 103.52 85.062 103.905 85.6003C103.958 85.6721 104.01 85.7439 104.054 85.8157C104.684 86.7938 104.64 87.736 103.932 88.6423C100.956 92.4559 97.7796 95.4529 94.4105 97.6155C86.0882 102.955 77.5121 106.122 67.3958 105.673C52.6852 105.036 40.7575 95.9554 37.6684 80.9433C35.6294 70.974 37.6946 61.7137 43.8641 53.1443C48.1872 47.1502 53.7354 42.7981 60.5087 40.0882C72.7165 35.1978 88.4597 38.2667 94.4542 51.4752C97.5784 58.3667 96.9483 65.4734 92.5465 72.7866C89.3173 78.1705 82.8503 81.2753 77.2496 83.5275C73.6529 84.9722 70.3537 85.0979 67.3346 83.9134C55.8531 79.4088 56.912 63.5173 69.4436 61.8752C75.3506 61.1035 78.9385 68.4615 73.0578 71.3688C72.1564 71.8085 71.5964 71.5393 71.3601 70.5433L70.765 67.9949C70.5287 66.963 69.4786 66.3618 68.4985 66.6938C66.0219 67.5193 64.1929 70.31 64.508 72.9481C65.0943 77.9283 70.4062 79.9113 74.6942 78.6102C76.5232 78.0539 78.1072 76.8425 79.4461 74.9671C83.3841 69.4755 83.2703 61.8752 77.7134 57.5322C70.6512 52.0047 60.8938 55.7914 56.3082 62.5661C53.7529 66.3439 52.6415 70.2741 52.974 74.3479C54.0242 87.2873 63.7116 92.4828 75.2893 89.7998C87.4621 86.9822 100.16 78.1616 102.251 64.7376C103.66 55.7016 101.359 47.859 95.3556 41.2009C86.8233 31.7342 75.6656 30.0203 63.6854 33.2686C47.7759 37.5757 33.8966 50.542 30.4662 67.4386C29.1448 73.9442 29.5823 80.2433 31.7614 86.3272C36.0932 98.432 44.468 106.005 56.8858 109.056C63.8691 110.77 71.1325 110.941 78.676 109.559C92.3452 107.064 104.107 98.9615 110.828 85.8247C119.22 69.4396 117.758 46.9527 104.273 33.6096C93.6316 23.093 80.6975 19.5396 65.4618 22.9494C53.0965 25.7132 42.2014 32.0662 32.759 42.0085C29.1273 45.8401 26.0207 50.4523 23.4216 55.8542C18.2234 66.6938 16.3069 79.2563 20.8138 90.5446C26.467 104.74 37.047 112.933 50.7075 117.904C68.5597 124.4 88.1797 121.421 103.695 110.214C112.158 104.094 118.03 96.0362 121.303 86.0311C126.597 69.8972 125.267 53.4493 117.207 38.7692C115.781 36.1759 114.415 33.6455 113.094 31.1868C112.919 30.8548 113.015 30.6484 113.374 30.5856C114.345 30.4061 115.212 30.7292 115.964 31.5637C122.615 38.9486 126.86 47.3117 128.697 56.6528C129.852 62.5302 130.141 68.1654 129.555 73.5583C127.63 91.3522 118.809 106.687 104.317 116.262C83.3841 130.09 57.9972 130.386 36.7933 117.222C29.6349 112.78 23.8766 107.001 19.5098 99.8947C9.05228 82.8725 11.7914 62.5213 22.739 46.5041C26.1344 41.5329 30.0287 36.499 34.7542 32.7212C47.2333 22.7251 62.0927 16.3092 77.5296 16.4708C83.3228 16.5336 89.0373 17.8167 94.673 20.3292C99.3986 22.4379 103.888 25.7311 108.141 30.1908C116.069 38.509 120.462 48.5231 121.32 60.2331C122.484 76.1605 116.594 91.6842 105.358 102.12C90.9013 115.544 70.3187 119.008 51.9414 113.354C44.1967 110.977 37.6421 106.113 32.2602 98.782C22.7127 85.7529 21.8639 69.0179 29.3811 54.8133C32.8553 48.2539 37.1695 42.8789 42.3414 38.6884C61.1213 23.4968 90.8575 19.7819 104.29 44.9248C108.43 52.6687 109.27 61.6509 106.399 69.9511C105.201 73.4327 103.162 77.004 100.3 80.6561C94.7255 87.7719 85.7994 92.2764 76.9783 94.7171C70.1087 96.6105 63.7379 96.0452 57.8659 93.0302C50.935 89.4678 47.5221 80.1087 47.6971 72.9392C47.8459 66.8822 49.9636 61.6868 54.0417 57.3347C61.7426 49.1243 74.5717 46.4233 82.8503 55.1812C87.6634 60.26 88.1184 66.6669 86.2194 73.4147C86.0794 73.9083 86.1844 73.9711 86.5345 73.5942Z" fill="black"/>
</g>
<defs>
<clipPath id="clip0_2209_81">
<rect width="140" height="140" fill="white" transform="translate(0.502441 0.542969)"/>
</clipPath>
</defs>
</svg>
