<svg width="160" height="160" viewBox="0 0 160 160" fill="none" xmlns="http://www.w3.org/2000/svg">
<g clip-path="url(#clip0_2096_465)">
<path d="M85.5896 9.80644L87.9473 1.15191C88.153 0.396968 88.9047 -0.093352 89.6879 0.015608L90.8826 0.179048C91.7846 0.303574 92.3938 1.15969 92.2039 2.03915L90.3525 10.468C90.1943 11.1607 89.593 11.6588 88.873 11.6899L87.172 11.7522C86.1118 11.7989 85.3127 10.8182 85.5896 9.80644Z" fill="black"/>
<path d="M37.8896 14.8419C38.57 15.7836 38.3485 17.0834 37.3911 17.7527L37.2329 17.8616C36.2835 18.5232 34.9543 18.3053 34.2739 17.3713L30.4129 12.0323C29.7325 11.0906 29.9541 9.79081 30.9114 9.12149L31.0696 9.01253C32.019 8.35099 33.3482 8.56891 34.0286 9.50285L37.8896 14.8419Z" fill="black"/>
<path d="M124.531 16.7721C123.978 17.7139 122.751 18.0252 121.802 17.4804L121.636 17.387C120.686 16.8422 120.362 15.6436 120.916 14.7019L123.867 9.71309C124.421 8.77136 125.647 8.46005 126.596 9.00485L126.763 9.09824C127.712 9.64304 128.036 10.8416 127.483 11.7833L124.531 16.7721Z" fill="black"/>
<path d="M159.383 15.3089C160.198 16.1183 160.198 17.418 159.383 18.2119L152.713 24.7728C151.898 25.5744 150.577 25.5744 149.762 24.7728L149.596 24.6094C148.781 23.8 148.781 22.5002 149.596 21.7064L156.266 15.1454C157.081 14.3438 158.402 14.3438 159.217 15.1454L159.383 15.3089Z" fill="black"/>
<path d="M9.59697 23.0763C10.3961 23.8779 10.3802 25.1699 9.55741 25.9559L9.05896 26.4307C8.23614 27.2168 6.92278 27.2012 6.1316 26.3918L3.42577 23.66C2.62668 22.8584 2.64251 21.5664 3.46533 20.7803L3.96378 20.3056C4.7866 19.5195 6.09996 19.5351 6.89114 20.3445L9.59697 23.0763Z" fill="black"/>
<path d="M158.774 73.9682C158.149 60.3326 147.642 37.5677 130.165 41.0545C129.888 41.1089 129.714 41.0078 129.634 40.7432C127.166 32.2832 120.615 25.4732 112.996 20.3054C108.296 17.1066 103.47 15.3321 98.5253 14.9819C89.411 14.3281 83.2952 18.4063 76.9262 24.7961C76.7363 24.9829 76.5385 24.9984 76.3328 24.835C74.972 23.7765 73.8485 22.5935 72.4165 21.6285C64.117 16.0326 55.1055 15.2776 45.374 19.3636C37.7549 22.5702 29.3922 29.8471 26.6547 38.0503C26.2116 39.3889 25.8635 40.3696 25.6024 40.9922C25.4996 41.2335 25.3176 41.3658 25.0565 41.3813C10.7995 42.2997 -0.656774 54.4099 0.0315508 68.598C0.640758 80.926 9.18548 92.3669 19.5974 98.1106C23.5928 100.313 27.794 101.115 32.193 100.5C32.4461 100.461 32.6439 100.547 32.7863 100.757C35.3577 104.563 38.467 107.87 42.1222 110.672C42.2488 110.773 42.4862 110.906 42.8422 111.061C43.1349 111.194 43.3723 111.365 43.5464 111.567C43.7283 111.777 43.6967 111.949 43.4514 112.081C40.168 113.863 38.7202 116.626 39.1079 120.377C39.3848 123.039 41.1254 124.969 44.3217 126.176C45.0575 126.448 45.0259 126.604 44.2426 126.627C43.7125 126.643 43.1745 126.611 42.6444 126.534C39.6775 126.098 37.0033 130.199 36.5286 132.643C36.4653 132.978 36.3071 133.032 36.046 132.807C35.1361 132.028 34.7405 131.608 33.4667 131.507C28.6485 131.102 25.9189 133.336 25.2939 138.208C25.1673 139.196 24.9695 140.154 24.6926 141.088C24.6214 141.337 24.4711 141.523 24.2416 141.648C22.3507 142.714 20.4835 143.819 18.6322 144.956C18.2445 145.197 17.8014 145.82 17.303 146.824C16.3852 148.699 14.8741 149.641 13.0543 150.481C12.8091 150.59 12.635 150.762 12.5163 150.995C10.6175 154.762 12.2553 158.327 16.2349 159.603C19.3284 160.591 22.0342 159.727 24.3603 157.003C24.8587 156.42 25.1436 155.75 25.5233 155.104C25.6578 154.887 25.9268 154.793 26.1642 154.894C32.0347 157.268 38.3246 155.066 38.9338 148.256C39.361 143.485 35.5713 139.547 31.0853 138.317C30.8242 138.247 30.6976 138.083 30.6897 137.819C30.6818 137.188 30.9666 136.706 31.5521 136.371C33.2373 135.414 34.519 135.71 35.3972 137.251C37.4543 140.846 41.7425 135.896 43.2062 139.687C43.4039 140.2 44.116 140.239 44.3771 139.757C44.749 139.041 44.7727 138.293 44.4404 137.523C44.3375 137.282 44.1477 137.149 43.8866 137.126C42.3675 136.986 41.4814 136.2 41.2282 134.768C40.8247 132.449 41.695 131.079 43.847 130.659C46.4104 130.16 49.0846 132.246 49.6068 134.565C50.2081 137.204 48.7048 139.936 46.1335 140.932C44.0211 141.757 41.0621 140.838 38.7914 140.286C38.4274 140.193 38.0714 140.473 38.0793 140.838C38.1347 146.255 42.5337 147.376 47.0275 146.162C51.4977 144.956 54.0611 141.788 54.7178 136.659C54.7494 136.402 54.8839 136.324 55.1292 136.41C56.8619 137.025 58.555 137.149 60.2086 136.776C68.9669 134.807 70.3673 124.635 64.6392 118.805C64.3939 118.548 64.4493 118.416 64.8053 118.408C69.1014 118.323 72.9465 116.867 76.3249 114.042C76.6176 113.801 76.9262 113.77 77.2506 113.949C77.9943 114.353 78.8092 114.813 79.6953 115.334C86.2304 119.163 93.3431 120.113 100.859 118.089C113.075 114.805 122.83 109.575 129.144 98.4297C129.445 97.8927 129.903 97.6748 130.513 97.7759C134.904 98.4686 139.358 97.8927 143.86 96.0559C153.172 92.2657 159.232 83.9691 158.774 73.9682ZM17.3425 156.443C17.034 156.614 16.5118 156.28 16.1795 155.704C15.8472 155.12 15.8314 154.513 16.132 154.342C16.4406 154.171 16.9628 154.505 17.2951 155.081C17.6274 155.665 17.6432 156.272 17.3425 156.443ZM21.52 153.019C21.3142 153.719 21.0611 153.735 20.7683 153.065L19.1148 149.275C18.8062 148.551 19.0436 148.17 19.8427 148.123L20.7209 148.069C21.1481 148.045 21.5279 148.326 21.6228 148.73C21.9709 150.186 21.9393 151.61 21.52 153.019ZM33.356 147.905C33.1424 149.976 31.3939 151.493 29.4476 151.306C27.5013 151.112 26.093 149.275 26.2987 147.213C26.5123 145.15 28.2608 143.625 30.2071 143.812C32.1534 144.006 33.5617 145.843 33.356 147.905ZM151.898 68.31C152.278 69.6409 152.381 70.8628 152.215 71.9758C152.175 72.217 152.072 72.4505 151.898 72.6295C149.374 75.3924 147.309 77.7973 143.868 79.7197C140.972 81.3308 138.274 83.3465 135.378 85.051C133.994 85.8759 132.38 87.8294 130.497 88.0707C129.642 88.1797 129.547 87.9618 130.204 87.417L137.095 81.7744C137.285 81.6187 137.523 81.5409 137.76 81.5565C138.1 81.572 138.385 81.4631 138.614 81.2218C140.387 79.3539 142.918 78.1553 144.699 76.7311C147.705 74.3262 149.469 73.3845 150.34 69.4541C150.458 68.9015 150.814 68.4579 151.392 68.1155C151.653 67.9598 151.819 68.0221 151.898 68.31ZM141.827 77.4938C141.684 77.3537 143.251 75.5325 145.331 73.4234C147.42 71.3142 149.224 69.7265 149.374 69.8588C149.517 69.9989 147.95 71.8201 145.869 73.9293C143.781 76.0384 141.977 77.6261 141.827 77.4938ZM150.506 61.9047C151.242 62.8854 151.582 64.442 150.624 65.4226C146.265 69.8822 142.214 74.0227 138.472 77.8285C137.072 79.2605 135.418 80.6303 133.527 81.9378C131.304 83.4866 129.096 85.0354 126.913 86.5842C125.544 87.557 123.788 89.1136 121.636 91.2539C119.594 93.2774 116.944 95.6824 114.151 96.9276C113.922 97.0288 113.684 97.0366 113.447 96.9432C112.988 96.7719 112.592 96.8576 112.252 97.1922C111.785 97.6514 111.532 97.8927 111.477 97.9316C106.405 101.481 101.239 104.897 95.9936 108.189C93.8416 109.536 91.6421 110.011 89.4031 109.606C88.509 109.442 88.4853 109.209 89.3319 108.89C90.7006 108.376 91.9744 107.761 93.1453 107.053C97.8924 104.166 102.283 101.333 106.318 98.562C108.099 97.3401 110.061 96.2661 112.189 95.3243C112.434 95.2154 112.656 95.2387 112.861 95.4022C112.972 95.4878 113.099 95.5267 113.241 95.5345C113.344 95.5345 113.463 95.5111 113.581 95.4333C116.778 93.4954 119.294 90.5379 121.849 87.8372C123.044 86.5764 124.365 85.3545 125.813 84.1637C127.221 83.0196 128.582 81.8522 129.896 80.6692C131.233 79.4707 132.143 77.7584 133.503 76.3809C133.598 76.2875 133.693 76.2875 133.788 76.3809L133.931 76.521C133.931 76.521 133.962 76.5677 133.938 76.591C133.298 77.3304 132.855 78.0153 132.609 78.6535C132.412 79.1749 132.546 79.2761 133.013 78.9726C135.624 77.2681 137.728 74.6686 139.762 72.972C142.254 70.8862 144.722 68.598 147.159 66.1153C148.33 64.9245 149.232 63.5469 149.873 61.9904C149.976 61.7257 150.332 61.679 150.506 61.9047ZM119.816 96.0014C118.368 97.7759 116.509 99.4882 114.246 101.138C109.175 104.843 104.341 107.73 99.7279 109.793C98.8102 110.205 97.8054 110.236 96.7452 109.878C96.7373 109.878 96.7215 109.886 96.7135 109.886C96.7215 109.878 96.7215 109.87 96.7294 109.87C96.7294 109.87 96.7373 109.87 96.7452 109.87C96.761 109.87 96.7847 109.863 96.8006 109.847C97.4098 109.544 97.9715 109.225 98.4937 108.882C105.511 104.282 112.49 99.8306 119.412 95.5423C120.441 94.9041 120.575 95.0519 119.816 95.9937V96.0014ZM146.708 55.0091C146.811 55.2037 146.866 55.445 146.866 55.7174C146.866 55.9742 146.787 56.2077 146.621 56.4178C144.366 59.2741 141.692 62.8309 138.583 67.0881C138.369 67.3761 138.306 67.6874 138.393 68.0143C138.424 68.1544 138.599 68.2089 138.709 68.1155C142.27 65.2358 145.157 61.8425 147.365 57.9355C147.737 57.2895 148.077 57.2973 148.401 57.9666L148.749 58.6826C149.058 59.3131 148.995 60.0524 148.583 60.6206C145.743 64.5431 142.388 68.1544 138.519 71.4621C138.393 71.5711 138.25 71.6411 138.1 71.6645C137.981 71.6878 137.871 71.7034 137.752 71.7111C137.57 71.7345 137.412 71.8123 137.293 71.9446L133.891 75.7349C133.828 75.8049 133.749 75.8594 133.662 75.8828C133.116 76.0384 132.625 76.3108 132.182 76.6922C129.737 78.8247 127.269 80.9416 124.777 83.0508C122.712 84.8019 120.726 86.662 118.803 88.6389C116.817 90.6935 114.863 92.6626 112.941 94.5461C112.759 94.7251 112.553 94.764 112.323 94.6706C112.086 94.5772 111.849 94.5383 111.619 94.5616C111.406 94.585 111.216 94.655 111.042 94.7873C110.259 95.3399 109.412 95.7991 108.502 96.1649C108.051 96.3439 107.98 96.2427 108.281 95.8691C109.879 93.8612 112.039 92.6237 113.692 90.7402C114.325 90.0164 114.99 89.3315 115.678 88.67C115.86 88.491 115.995 88.2809 116.066 88.0318C116.264 87.3703 116.287 87.0512 116.873 86.592C118.613 85.2222 120.409 83.7279 122.269 82.1168C122.767 81.681 123.258 81.2451 123.732 80.8093C125.987 78.7624 128.013 77.0035 129.824 75.5325C131.114 74.4974 132.245 73.4545 133.234 72.4194C134.666 70.9095 136.866 69.5942 137.53 67.7497C138.219 65.8351 139.587 64.1696 140.307 62.5819C140.885 61.3055 141.376 60.0991 142.349 59.0017C143.48 57.7331 144.501 56.3945 145.411 54.9702C145.869 54.2542 146.305 54.2698 146.708 55.0091ZM61.2134 130.464C59.8842 131.958 56.6957 131.818 54.6862 131.935C54.4251 131.95 54.251 131.834 54.1719 131.585C53.9266 130.783 53.8396 130.005 53.9108 129.265C54.0769 127.483 53.088 126.495 51.7509 125.506C49.6463 123.942 47.5181 122.401 45.3661 120.899C44.4246 120.245 43.8787 119.319 44.0765 118.167C44.385 116.431 45.5639 115.544 47.6209 115.513C53.9029 115.427 58.5155 117.848 61.4665 122.774C62.7957 124.993 63.0964 128.347 61.2134 130.464ZM123.566 92.6704C122.134 97.6125 119.761 101.457 116.461 104.22C111.73 108.174 105.97 111.139 99.8308 112.159C98.3038 112.415 96.6898 112.945 95.234 112.984C90.5424 113.093 86.4361 111.917 82.9233 109.458C81.7444 108.633 81.8552 108.275 83.2477 108.384C83.5088 108.407 83.7936 108.415 84.0942 108.407C84.3712 108.4 84.6322 108.291 84.8221 108.088C86.6498 106.158 88.8967 105.247 90.843 103.52C91.7529 102.702 92.3621 102.601 93.4855 102.313C93.7387 102.251 93.9444 102.119 94.1106 101.916C94.7672 101.107 95.6375 100.609 96.7056 100.422C96.9667 100.375 97.2041 100.274 97.4098 100.111C99.2849 98.671 101.761 96.9977 102.766 94.764C103.146 93.9234 103.613 93.114 104.166 92.3357C104.317 92.1178 104.515 91.9388 104.752 91.8143C105.432 91.4485 105.939 90.9582 106.263 90.3433C106.5 89.8919 106.358 89.6506 105.844 89.6195C104.752 89.5572 104.135 90.0787 103.984 91.1839C103.7 93.3708 101.492 94.5071 100.1 96.0871C98.8972 97.4491 97.4414 98.313 96.0094 99.4259C94.3242 100.741 92.5836 101.208 90.7164 102.173C90.4237 102.321 90.3683 102.259 90.5503 101.986C91.9348 99.8462 93.6754 98.2196 95.78 97.1144C96.1518 96.9198 96.7135 96.3361 97.4573 95.3788C97.5522 95.2543 97.5522 95.1298 97.4652 94.9975C97.4098 94.9274 97.3465 94.8729 97.2674 94.8418C97.1962 94.8185 97.1329 94.8185 97.0696 94.8574C94.0077 96.5307 91.5946 98.7099 89.8461 101.387C89.2765 102.251 88.3904 102.952 87.1798 103.489C86.175 103.932 85.5896 104.5 84.925 105.271C84.4898 105.769 84.0784 105.785 83.6908 105.325C83.5879 105.201 83.4692 105.193 83.3347 105.294C83.1211 105.465 82.8758 105.551 82.5989 105.543C82.2745 105.535 82.2112 105.411 82.4011 105.154C82.686 104.757 83.0499 104.64 83.485 104.804C83.7145 104.889 83.7857 104.819 83.7066 104.594C83.6591 104.454 83.6512 104.306 83.6908 104.15C83.7145 104.033 83.7699 103.924 83.8727 103.815C85.0358 102.539 86.3887 101.387 87.9156 100.36C88.4062 100.025 88.4774 99.5738 88.1372 98.9978C87.9156 98.6165 87.5042 98.3908 87.0612 98.4063C85.9773 98.4297 85.376 98.9745 85.2573 100.041C85.2256 100.336 85.0832 100.617 84.8617 100.819C82.0609 103.419 79.2206 105.901 75.8581 107.824C72.274 109.878 69.4337 112.696 65.106 113.015C64.5205 113.054 64.4651 112.906 64.9319 112.563C69.8214 109.022 74.2678 105.473 78.2791 101.932C79.1652 101.146 80.6131 100.422 81.5071 99.3403C81.7365 99.0601 81.6732 98.8889 81.3093 98.8188C80.8029 98.7177 80.352 98.7877 79.9564 99.029C77.5987 100.461 75.4704 101.776 73.3896 103.582C71.206 105.489 69.0065 107.372 66.7833 109.248C64.8528 110.874 62.3606 113.108 60.169 113.077C59.8921 113.077 59.6864 112.96 59.5519 112.719C59.4016 112.431 59.3778 112.143 59.4807 111.855C59.5756 111.606 59.7497 111.435 59.995 111.334C61.2371 110.843 61.9966 110.493 62.2815 110.283C65.6123 107.8 68.6584 105.068 71.4354 102.103C71.649 101.87 71.6174 101.691 71.3246 101.558L69.315 100.648C69.0381 100.531 68.8245 100.593 68.6663 100.842C67.5903 102.539 66.0791 102.983 65.0743 104.018C63.3891 105.738 61.6406 107.481 59.813 109.248C59.2117 109.832 58.6262 110.026 58.0487 109.824C57.7243 109.715 57.5186 109.824 57.4236 110.143L56.7828 112.244C56.6404 112.727 56.1498 113.023 55.6435 112.937L54.8839 112.805C54.1956 112.688 54.0453 112.345 54.4171 111.77C56.1261 109.154 58.8952 108.353 60.7149 106.376C61.9887 104.991 63.1913 103.465 64.3227 101.807C64.4968 101.551 64.5126 101.27 64.3702 100.951C64.2594 100.702 63.9271 100.632 63.7214 100.819C62.1311 102.29 60.6833 103.777 59.3937 105.286C59.1009 105.637 58.5629 105.886 57.7955 106.041C57.1467 106.174 56.6166 106.368 56.1973 106.641C54.7969 107.536 52.8269 108.579 52.3522 110.158C52.281 110.4 52.3047 110.579 52.4313 110.695C52.6449 110.89 52.8506 110.89 53.0642 110.695C53.5627 110.252 53.9504 109.956 54.2352 109.793C54.4804 109.66 54.52 109.707 54.3539 109.933C53.3649 111.271 52.1465 111.435 50.7065 110.415C48.2618 108.688 46.1889 107.108 44.4879 105.676C42.2172 103.769 39.8041 100.632 37.2486 96.2738C36.7422 95.4022 35.5001 95.0831 34.5428 95.0909C30.3732 95.1453 26.9079 94.8107 24.1625 94.0713C22.857 93.7211 21.4171 92.935 19.8427 91.7209C11.7014 85.4479 4.71533 75.3769 5.98121 64.6988C6.6458 59.1029 9.21713 54.5889 13.7031 51.1488C18.2128 47.701 23.4979 46.2145 29.0124 47.81C29.7324 48.0201 30.484 47.5765 30.6422 46.8527C32.6202 37.7001 38.3958 28.6875 47.1383 24.7027C52.637 22.1888 59.2829 21.1848 64.7025 23.6676C67.7485 25.0607 70.13 26.5083 71.8389 28.0026C73.445 29.4113 74.9799 30.5398 76.4515 31.3959C77.1161 31.7851 77.9705 31.6216 78.4452 31.0146C81.0482 27.6757 84.205 25.0529 87.9077 23.1461C95.598 19.1846 102.893 19.6905 109.792 24.656C112.11 26.3293 114.404 27.7069 116.184 30.0106C118.028 32.4077 119.238 34.1511 119.816 35.2407C121.153 37.7701 121.952 41 122.229 44.9225C122.253 45.1949 122.348 45.4362 122.522 45.6464L123.97 47.3508C124.484 47.9656 125.37 48.1446 126.098 47.7789C128.384 46.6348 130.829 45.802 133.416 45.2728C137.76 44.3933 140.395 45.9499 143.599 48.0746C144.611 48.7439 144.509 49.0942 143.282 49.1253C141.898 49.1564 141.178 50.4873 140.157 51.2189C136.961 53.507 133.306 55.7485 130.529 58.5036C128.44 60.5739 126.201 62.6597 125.109 65.4304C124.8 66.2164 123.598 67.6485 121.509 69.711C121.272 69.9444 121.09 70.318 120.971 70.8395C120.908 71.1274 120.939 71.3843 121.058 71.61C121.169 71.8201 121.454 71.8668 121.628 71.7111C122.095 71.2831 122.474 70.8161 122.783 70.2947C123.171 69.6253 123.716 68.9716 124.421 68.3334C126.058 66.8391 127.862 65.3759 129.824 63.9361C130.9 63.15 131.747 62.1694 132.372 60.9942C132.554 60.6595 132.506 60.6284 132.23 60.9008C130.03 63.1578 128.084 64.6054 126.399 65.2436C125.37 65.625 125.275 65.4693 126.122 64.7766C128.028 63.2123 129.927 61.6012 131.826 59.9435C132.332 59.5076 133.155 59.2897 133.527 58.9395C136.383 56.27 139.453 54.0441 142.728 52.254C143.179 52.0049 143.67 51.9115 144.184 51.966C144.556 52.0127 144.611 52.1684 144.35 52.433L118.605 78.8869C118.439 79.0582 118.455 79.3383 118.653 79.4862C118.78 79.5796 118.922 79.6107 119.072 79.5796C119.215 79.5563 119.341 79.4862 119.46 79.385C120.702 78.2721 122.925 76.0851 126.137 72.8397C129.089 69.8666 133.915 65.5627 140.616 59.9201C140.711 59.8423 140.798 59.8112 140.869 59.8267C140.933 59.8423 140.988 59.8812 141.043 59.9357C141.099 59.9979 141.107 60.068 141.059 60.138C138.844 63.5236 136.945 66.0063 135.371 67.5707C133.59 69.3374 131.874 71.1274 130.204 72.9253C128.384 74.8866 126.074 76.77 124.065 78.7858C122.158 80.7003 119.998 82.3814 118.147 84.4361C115.124 87.775 111.991 90.6157 108.937 93.7444C107.861 94.8574 106.769 95.8147 105.662 96.6163C104.372 97.5658 103.17 98.4141 102.07 99.1691C98.9447 101.309 95.9777 103.348 93.1532 105.286C92.908 105.458 92.8051 105.395 92.8447 105.1C92.908 104.679 93.1453 104.345 93.5567 104.103C93.6912 104.018 93.715 103.909 93.62 103.777C93.5647 103.706 93.5093 103.652 93.446 103.605C93.3589 103.551 93.2877 103.559 93.2165 103.629C90.9775 105.971 88.4378 107.645 85.5975 108.649C85.2731 108.765 85.2573 108.905 85.5579 109.077C88.8255 110.952 92.275 111.676 95.8986 111.248C98.1851 110.976 99.6805 110.766 100.4 110.633C101.69 110.392 103.138 109.933 104.76 109.24C109.633 107.178 114.04 104.158 117.98 100.181C119.436 98.7177 120.734 96.4451 121.873 93.3631C122.039 92.9039 122.419 92.5536 122.894 92.4058L123.194 92.3124C123.542 92.2034 123.669 92.3202 123.566 92.6626V92.6704ZM67.1393 104.827C67.7881 103.917 68.5318 103.092 69.3783 102.36C69.4812 102.274 69.5445 102.173 69.584 102.049C69.6078 101.971 69.6552 101.901 69.7264 101.839C69.9084 101.691 70.0825 101.652 70.2486 101.737C70.5176 101.878 70.5414 102.049 70.3119 102.243C69.3388 103.107 68.3894 103.979 67.4558 104.866C67.3767 104.936 67.2975 104.967 67.2263 104.944L67.1551 104.921C67.1156 104.897 67.1077 104.866 67.1393 104.827ZM151.075 80.9494C150.743 82.3737 149.675 83.9302 147.863 85.6113C143.322 89.8219 138.33 92.2501 132.024 90.9815C130.244 90.6235 128.226 89.9308 125.971 88.8957C125.718 88.779 125.718 88.4209 125.979 88.3042L126.596 88.024C126.992 87.845 127.467 87.9073 127.815 88.1719C128.915 89.0202 129.722 89.4638 130.252 89.5028C134.326 89.8141 138.124 90.0943 141.771 87.9384C144.675 86.2262 148.971 83.0663 150.585 79.8987C150.854 79.3617 150.751 79.2761 150.276 79.6574C147.072 82.2258 143.385 84.7786 139.2 87.3236C137.704 88.2342 136.225 88.7089 134.753 88.7478C133.622 88.779 133.575 88.5688 134.603 88.1096C135.932 87.5259 137.143 87.0045 138.33 86.1484C140.838 84.3505 142.784 82.9262 145.877 80.9494C148.923 78.9959 150.166 76.7856 152.223 73.9837C152.389 73.758 152.5 73.7892 152.539 74.0616C152.84 76.0073 151.558 78.848 151.075 80.9494Z" fill="black"/>
<path d="M97.4415 26.0104C97.038 26.921 95.7484 26.9755 95.2736 26.096L94.4667 24.6017C94.2847 24.2593 94.4271 23.8312 94.7831 23.6678C96.0253 23.0996 97.3228 22.9128 98.6678 23.1074C99.0634 23.1619 99.2137 23.6444 98.921 23.9168C98.3118 24.4616 97.8133 25.1621 97.4415 26.0104Z" fill="black"/>
<path d="M106.326 26.5006C104.736 26.8041 100.828 27.2088 100.772 24.8195C100.749 24.1268 101.097 23.7843 101.801 23.7921C103.763 23.8155 105.369 24.3214 106.627 25.302C107.086 25.66 106.904 26.3916 106.326 26.5006Z" fill="black"/>
<path d="M92.2356 25.0141C92.5204 25.52 91.8479 26.4228 90.7403 27.0221C89.6326 27.6292 88.5012 27.6992 88.2164 27.1933C87.9316 26.6874 88.6041 25.7846 89.7117 25.1854C90.8194 24.5783 91.9508 24.5082 92.2356 25.0141Z" fill="black"/>
<path d="M52.1941 26.1038L51.4662 28.6644C51.395 28.8979 51.126 29.0224 50.9044 28.9134L48.4676 27.7616C48.159 27.6137 48.167 27.1778 48.4676 27.0377L51.6323 25.6368C51.9409 25.4967 52.2811 25.7769 52.1861 26.1038H52.1941Z" fill="black"/>
<path d="M54.0771 25.9403C54.172 25.5746 54.5439 25.3488 54.9236 25.4422L57.0836 25.9715C58.6026 26.3373 59.6707 27.2946 59.465 28.104L59.4017 28.3452C59.2039 29.1547 57.8035 29.5127 56.2845 29.1391L54.1246 28.6176C53.7448 28.5243 53.5233 28.1507 53.6103 27.7849L54.0771 25.9403Z" fill="black"/>
<path d="M108.866 27.2555C109.056 26.9364 109.483 26.8274 109.808 27.0142L109.871 27.0531C112.324 28.4774 113.945 30.2363 113.51 30.9679L113.4 31.1469C112.956 31.8785 110.615 31.3182 108.162 29.8939L108.099 29.855C107.774 29.6682 107.664 29.2557 107.853 28.9288L108.866 27.2555Z" fill="black"/>
<path d="M46.6875 27.6447C46.8773 27.6058 47.0593 27.7459 47.0593 27.9404C47.0593 28.9911 46.727 29.676 46.0624 29.9951C45.7697 30.1352 45.4611 30.1196 45.1367 29.9562C44.7649 29.7694 44.575 29.4815 44.5513 29.0845C44.5196 28.5631 44.7332 28.2128 45.2 28.0494C45.6985 27.8782 46.1969 27.7459 46.6875 27.6447Z" fill="black"/>
<path d="M84.8776 29.4658C84.9726 29.4502 85.0675 29.4269 85.1625 29.4035C85.3761 29.3491 85.4868 29.4347 85.4789 29.6526C85.4789 30.0184 85.3365 30.3141 85.0754 30.5398C84.5453 31.0068 83.7462 31.0068 83.2241 30.532C82.781 30.1273 82.6544 29.7148 82.8364 29.2868C82.9551 29.0222 83.1529 28.921 83.4298 28.991C83.6988 29.0611 83.952 29.17 84.1814 29.3257C84.395 29.4736 84.6245 29.5203 84.8776 29.4658Z" fill="black"/>
<path d="M61.0711 33.7698C60.5014 33.2717 60.7784 32.0498 61.6882 31.0536C62.5981 30.0574 63.7927 29.6449 64.3624 30.143C64.932 30.6411 64.6551 31.863 63.7453 32.8592C62.8354 33.8554 61.6407 34.2679 61.0711 33.7698Z" fill="black"/>
<path d="M116.651 33.3185L117.348 35.918C117.474 36.4083 117.031 36.8753 116.525 36.7741L114.104 36.2838C113.708 36.206 113.463 35.8246 113.558 35.4432L114.214 32.8438C114.317 32.4235 114.792 32.1978 115.196 32.3846L116.264 32.8671C116.453 32.9605 116.596 33.124 116.651 33.3185Z" fill="black"/>
<path d="M119.531 42.1441C119.547 42.222 119.547 42.2998 119.531 42.3776C119.523 42.3932 119.515 42.4087 119.5 42.4165C119.128 42.7045 118.788 42.759 118.495 42.5955C118.289 42.4788 118.186 42.3076 118.186 42.0741L118.226 38.564C118.226 38.4006 118.439 38.3383 118.534 38.4628L119.887 40.1829C120.069 40.4241 120.125 40.681 120.046 40.9689C119.982 41.2102 119.84 41.4904 119.61 41.7939C119.531 41.9029 119.508 42.0196 119.539 42.1441H119.531Z" fill="black"/>
<path d="M136.779 47.4755C132.609 47.1409 128.725 50.3318 125.821 53.6862C125.243 54.3478 124.421 54.8926 123.337 55.3206C123.076 55.4218 123.004 55.344 123.107 55.0872C123.938 53.0403 124.531 51.7483 124.895 51.2113C126.573 48.7441 132.008 46.9307 134.951 46.2225C135.204 46.1602 135.458 46.1602 135.703 46.2225L140.308 47.3588C140.766 47.4755 140.925 48.0281 140.592 48.355C138.844 50.075 137.238 51.328 135.766 52.0985C133.804 53.1259 132.174 54.1143 130.885 55.0716C127.324 57.6866 123.044 61.3368 121.058 65.4617C120.924 65.7341 120.599 65.8586 120.314 65.7419L120.125 65.6641C119.903 65.5707 119.824 65.2983 119.966 65.1037C122.933 60.9087 125.014 58.2859 126.193 57.2352C128.543 55.1728 130.758 53.1414 132.847 51.1568C134.136 49.9349 135.687 49.1566 136.961 47.997C137.301 47.6857 137.238 47.5144 136.779 47.4755Z" fill="black"/>
<path d="M104.372 47.8256C107.624 47.1017 110.187 48.884 110.456 52.145C110.876 57.2272 110.346 62.0838 108.874 66.7146C108.708 67.2594 108.233 67.6563 107.664 67.7341C106.089 67.9676 104.451 67.8975 102.75 67.5317C101.469 67.2516 100.978 66.4733 100.844 65.2747C100.377 61.2821 100.1 57.1728 100.005 52.9311C99.9416 50.1915 101.397 48.4871 104.372 47.8256Z" fill="black"/>
<path d="M81.5942 49.3356C85.3365 47.1097 88.9838 48.713 89.5455 53.0325C90.2022 58.0446 90.1706 63.0256 89.4664 67.9678C89.3794 68.5982 88.8572 69.0807 88.2084 69.1274C86.6657 69.2286 85.1466 69.213 83.6434 69.0885C82.2588 68.9717 81.3331 68.2168 81.0483 66.9326C80.3283 63.7105 79.8932 59.8035 79.7349 55.2039C79.6637 53.0714 79.6163 50.5186 81.5942 49.3356Z" fill="black"/>
<path d="M46.8457 48.9075C53.2779 49.3978 51.4345 65.3682 50.7778 69.174C50.6671 69.7733 50.1765 70.2403 49.5673 70.3181C48.1036 70.4971 46.5213 70.5516 44.8044 70.4893C43.5544 70.4504 42.7711 69.8434 42.4546 68.6837C41.2837 64.3798 40.5558 59.9903 40.2789 55.5151C39.9861 50.7442 42.1698 48.5417 46.8457 48.9075Z" fill="black"/>
<path d="M62.5822 68.1C61.5062 64.1074 60.9444 59.461 60.897 54.1531C60.8653 50.9388 62.9145 49.0942 66.1504 49.0398C69.6632 48.9853 70.7313 50.8143 71.119 54.0441C71.6966 58.9084 71.4513 63.8194 70.399 68.7927C70.2883 69.3219 69.8294 69.711 69.2835 69.7422C67.7565 69.8278 66.1583 69.7811 64.4889 69.6099C63.4525 69.5009 62.8195 68.995 62.5822 68.1Z" fill="black"/>
<path d="M18.9725 55.1805C18.5452 55.6941 17.6512 55.6552 16.9787 55.1026C16.3062 54.5501 16.1163 53.6939 16.5436 53.1881C16.9708 52.6744 17.8648 52.7133 18.5373 53.2659C19.2098 53.8185 19.3997 54.6746 18.9725 55.1805Z" fill="black"/>
<path d="M15.4517 59.3598C15.6179 61.0409 14.8425 62.1227 13.1177 62.6052C12.7142 62.722 12.3186 62.4029 12.3582 61.9904C12.4373 61.1732 12.6589 60.2937 13.0228 59.3364C13.3076 58.5737 13.7507 58.2235 14.352 58.278C15.0245 58.348 15.3884 58.706 15.4517 59.3598Z" fill="black"/>
<path d="M20.5232 85.1446C20.5865 85.2691 20.5232 85.417 20.4045 85.4792C19.4234 85.9151 18.3949 85.8684 17.493 85.1835C12.6589 81.4944 7.36588 69.3454 11.2427 63.8662C11.4009 63.6405 11.6066 63.5861 11.8677 63.6872C12.1446 63.804 12.3899 63.9596 12.5956 64.1464C12.7934 64.3254 12.8962 64.5511 12.9041 64.8157C12.9912 71.8203 15.2539 78.031 19.6845 83.4479C20.0643 83.9149 20.2304 84.5609 20.5232 85.1446Z" fill="black"/>
<path d="M14.7396 66.4733C14.7238 66.3799 14.7871 66.2865 14.882 66.2709L14.977 66.2554C15.9026 66.1075 16.7888 66.7301 16.947 67.6485L16.9866 67.8664C17.1448 68.7926 16.5198 69.6643 15.5862 69.8199L15.4912 69.8355C15.3963 69.8511 15.3093 69.7888 15.2934 69.6954L14.7396 66.4733Z" fill="black"/>
<path d="M108.178 71.4388C109.792 73.19 109.602 75.9529 107.751 77.5951C105.907 79.245 103.098 79.1672 101.484 77.4083C99.8705 75.6571 100.06 72.8942 101.912 71.2521C103.755 69.6021 106.564 69.6799 108.178 71.4388Z" fill="black"/>
<path d="M82.4724 77.6573C80.8426 76.1086 80.8347 73.5091 82.4566 71.8591C84.0785 70.2092 86.7132 70.1391 88.3509 71.6879C89.9807 73.2367 89.9886 75.8362 88.3667 77.4861C86.7448 79.1361 84.1102 79.2061 82.4724 77.6573Z" fill="black"/>
<path d="M70.7392 75.0891C70.7392 77.2916 68.9274 79.0739 66.6884 79.0739C64.4494 79.0739 62.6376 77.2916 62.6376 75.0891C62.6376 72.8865 64.4494 71.1042 66.6884 71.1042C68.9274 71.1042 70.7392 72.8865 70.7392 75.0891Z" fill="black"/>
<path d="M51.2763 75.2992C51.2763 77.4084 49.5436 79.1128 47.3995 79.1128C45.2554 79.1128 43.5227 77.4084 43.5227 75.2992C43.5227 73.19 45.2554 71.4856 47.3995 71.4856C49.5436 71.4856 51.2763 73.19 51.2763 75.2992Z" fill="black"/>
<path d="M22.2321 86.094C24.479 87.2692 23.221 90.6392 20.6655 89.5418C20.4203 89.4406 20.3886 89.1137 20.6022 88.9658C21.5437 88.3199 21.8919 87.456 21.6624 86.3664C21.6229 86.1796 21.5358 86.0161 21.4171 85.8683L21.2589 85.6892C21.1402 85.5569 21.164 85.5102 21.3459 85.5569C21.4804 85.5881 21.607 85.6426 21.7178 85.7282C22.0105 85.9461 22.1767 86.0706 22.2321 86.094Z" fill="black"/>
<path d="M28.4113 90.0867C29.2024 90.0322 29.6059 90.3902 29.6297 91.1763C29.6297 91.2853 29.6297 91.3942 29.6297 91.5032C29.6534 92.3126 29.2499 92.7173 28.4271 92.7095L25.0725 92.6706C24.7956 92.6706 24.5503 92.5149 24.4316 92.2737C23.8224 91.044 25.1516 90.3124 28.4033 90.0867H28.4113Z" fill="black"/>
<path d="M55.6277 102.765L59.7735 97.8461C59.9554 97.6281 60.264 97.5425 60.5409 97.6359L60.8257 97.7293C61.0868 97.8227 61.1739 98.1496 60.9761 98.3442L56.3714 102.913C56.1973 103.084 56.1261 103.286 56.1657 103.528L56.2844 104.29C56.3318 104.625 56.1973 104.734 55.873 104.625C53.0722 103.714 52.099 107.614 49.7967 106.29C46.1494 104.197 43.2932 101.271 41.2124 97.527C41.1491 97.4258 41.1254 97.309 41.1412 97.1923C41.2124 96.593 41.4735 96.2973 41.9166 96.3128C42.2726 96.3206 42.6128 96.4996 42.8185 96.7876C44.3692 98.8967 47.5023 103.901 49.6068 104.384C49.7967 104.43 49.947 104.532 50.0578 104.687C50.4059 105.178 50.9123 105.357 51.569 105.224C52.4788 105.045 52.8902 104.08 53.4203 103.38C53.5785 103.17 53.7922 103.037 54.0533 102.998C54.346 102.952 54.6387 102.952 54.9315 103.006C55.2084 103.061 55.4457 102.975 55.6277 102.765Z" fill="black"/>
<path d="M49.8046 102.306C49.7571 101.909 49.9312 101.738 50.3347 101.8C50.6274 101.847 50.8252 101.994 50.9439 102.236C51.1813 102.749 51.1575 103.247 50.8806 103.738C50.6828 104.072 50.485 104.072 50.2714 103.753C50.0261 103.388 49.8679 102.905 49.8046 102.306Z" fill="black"/>
<path d="M57.6848 124.689C56.9569 124.168 56.2211 123.755 55.4695 123.452C55.1293 123.312 54.9315 122.954 54.9948 122.588C55.153 121.716 55.0976 120.899 54.8207 120.129C54.7258 119.864 55.0106 119.615 55.2638 119.755C57.9459 121.234 59.5678 123.288 60.1374 125.911C60.4855 127.514 60.0267 129.561 58.5234 130.449C58.0092 130.752 57.5344 130.76 57.0914 130.449C56.5771 130.098 56.4347 129.406 56.7749 128.884L58.0962 126.845C58.563 126.129 58.381 125.18 57.6848 124.681V124.689Z" fill="black"/>
<path d="M30.0253 150.645C29.0521 150.731 28.1818 149.929 28.079 148.847C27.9761 147.773 28.6882 146.824 29.6613 146.738C30.6345 146.652 31.5048 147.454 31.6076 148.536C31.7105 149.61 30.9984 150.559 30.0253 150.645Z" fill="black"/>
</g>
<defs>
<clipPath id="clip0_2096_465">
<rect width="160" height="160" fill="white"/>
</clipPath>
</defs>
</svg>
