<svg width="145" height="120" viewBox="0 0 145 120" fill="none" xmlns="http://www.w3.org/2000/svg">
<g clip-path="url(#clip0_2096_525)">
<path d="M144.092 67.2162C141.758 57.0795 136.056 48.7106 126.586 44.9702C126.289 44.8507 126.086 44.5688 126.052 44.2443C125.509 37.7883 123.761 30.8626 119.45 25.7217C114.121 19.3852 106.815 16.6355 98.5504 17.8396C97.931 17.9335 97.32 17.6175 97.023 17.0624C95.9963 15.1154 94.6471 13.305 92.9669 11.6226C85.033 3.68925 75.8008 -0.179235 65.2533 9.9319e-05C59.6105 0.0940361 54.1543 1.22982 48.8848 3.40744C35.0111 9.14613 26.288 21.0419 23.9969 36.4988C23.9036 37.0881 23.4369 37.5492 22.8514 37.6261C4.50574 40.0855 -4.70101 59.1205 2.40134 75.5595C4.24269 79.8208 8.43452 85.3118 13.11 86.5842C13.9755 86.8148 14.8156 87.0966 15.6302 87.4126C15.8933 87.5236 16.0799 87.7115 16.1733 87.9762C16.657 89.3169 17.0982 90.6747 17.4885 92.0496C19.4657 99.001 23.4114 105.354 28.6045 109.812C36.0378 116.191 47.0011 118.745 56.1484 114.842C57.8879 114.099 59.602 113.254 61.2991 112.306C61.664 112.101 62.1222 112.161 62.4192 112.451C69.6913 119.522 80.383 122.22 89.7425 117.968C95.6908 115.261 99.8487 110.939 103.582 105.636C103.854 105.252 104.338 105.064 104.804 105.167C118.347 108.164 132.891 104.612 140.324 91.7593C144.813 83.9967 146.069 75.8156 144.092 67.2162ZM127.571 95.7473C126.476 96.5928 125.466 97.2162 124.524 97.6175C124.185 97.7627 123.99 97.6517 123.947 97.2845L123.914 97.0112C123.854 96.5586 124.024 96.2085 124.406 95.9608C125.636 95.1666 126.807 94.4835 127.8 93.305C129.701 91.059 131.881 88.8302 133.239 86.3622C135.14 82.8865 136.379 79.2486 136.947 75.4484C137.066 74.6542 136.862 74.5603 136.336 75.1666C135.632 75.9779 134.86 76.7635 134.41 77.8139C133.137 80.7772 131.584 83.5526 129.752 86.1402C126.434 90.8114 122.844 94.8933 118.983 98.3776C118.466 98.8302 117.829 99.1205 117.151 99.1974C116.709 99.2486 116.294 99.2315 115.895 99.1461C115.649 99.0949 115.581 98.7789 115.776 98.6252C120.316 95.0898 124.287 89.9745 129.251 83.2452C131.635 80.0086 133.545 76.0462 135.725 72.3741C136.43 71.1786 136.438 69.6585 135.751 67.8054C135.598 67.3955 135.411 67.3784 135.199 67.7542C133.816 70.1026 132.017 71.9215 130.6 74.2785C129.93 75.3887 129.183 76.3622 128.343 77.1991C125.458 80.1026 122.649 83.0659 119.925 86.0975C119.781 86.2597 119.679 86.4561 119.628 86.6696C119.569 86.9343 119.467 87.1564 119.306 87.3528C117.286 89.7952 115.42 92.1948 113.697 94.5603C113.154 95.3033 112.475 95.457 111.652 95.0214C111.194 94.7738 111.245 94.0992 111.728 93.9198C113.994 93.0829 115.504 91.486 116.183 89.1632C116.438 88.2665 116.871 87.4638 117.49 86.7635C120.01 83.8857 122.734 80.7601 125.662 77.404C127.231 75.6021 127.707 73.305 129.472 71.7422C131.075 70.3161 134.673 67.1649 134.639 64.8421C134.631 63.9967 134.342 63.2452 133.791 62.5876C133.612 62.3656 133.46 62.1265 133.332 61.8703L131.483 57.9079C131.287 57.4809 130.693 57.4467 130.447 57.8396C128.793 60.4527 127.851 63.2196 126.408 65.9352C125.186 68.2409 124.134 70.7004 123.252 73.322C123.141 73.638 123.472 73.9284 123.769 73.7832C124.389 73.4843 124.669 72.9805 124.609 72.2717C124.592 72.0325 124.626 71.802 124.72 71.5799C125.543 69.5731 126.731 67.3955 128.267 65.03C128.504 64.6713 129.039 64.7055 129.225 65.0983L129.59 65.8754C129.845 66.4049 129.862 67.0197 129.633 67.5663L127.766 71.9984C127.656 72.2631 127.486 72.4852 127.257 72.6645C125.899 73.7319 125.594 75.3033 124.737 76.4476C122.997 78.7448 121.173 81.059 119.28 83.3818C119.255 83.4245 118.44 84.4835 116.854 86.5671C114.096 90.1965 110.515 93.0744 106.094 95.2093C105.653 95.4228 105.458 95.7559 105.5 96.217C105.534 96.5501 105.721 96.7465 106.052 96.7977L107.604 97.0454C107.825 97.0795 108.046 97.1649 108.232 97.3016C108.869 97.7542 109.548 97.9933 110.269 98.0189C110.719 98.036 110.905 97.8225 110.829 97.3869L110.795 97.1649C110.77 96.9856 110.837 96.9173 111.016 96.96C111.211 97.0112 111.355 97.1393 111.44 97.3528C111.533 97.5834 111.711 97.72 111.957 97.7456C112.119 97.7712 112.271 97.7456 112.424 97.6773C112.56 97.6175 112.687 97.4894 112.814 97.293C113.96 95.4997 115.581 94.4408 116.735 92.8097C117.371 91.9045 117.948 90.3246 119.263 90.2392C119.951 90.1965 120.392 89.4792 120.112 88.8472C119.603 87.7029 119.917 86.8916 121.062 86.4134C121.359 86.2853 121.605 86.0975 121.801 85.8498C124.015 83.0573 126.417 80.4612 129.005 78.0445C130.261 76.8831 130.999 75.2862 132.348 74.065C132.424 73.9881 132.509 73.9881 132.586 74.065L132.764 74.2443C132.823 74.3041 132.815 74.3468 132.755 74.3895C132.009 74.8934 131.559 75.6192 131.398 76.5671C131.27 77.3443 130.855 78.1641 130.167 79.0095C127.511 82.2631 124.754 85.3203 122.267 88.5996C121.665 89.4023 121.045 90.1624 120.409 90.8797C119.577 91.8276 118.449 93.3562 117.032 95.4484C116.09 96.8233 114.944 97.4467 113.985 98.7191C113.816 98.9497 113.595 99.0863 113.315 99.1461C109.997 99.8208 106.781 99.5304 103.667 98.2922C103.404 98.1897 103.133 98.1641 102.853 98.2238C100.68 98.685 99.1359 99.7951 98.211 101.554C96.1151 105.551 93.6288 108.839 89.5049 110.521C88.2236 111.042 86.9592 111.52 85.7034 111.947C82.394 113.083 79.1271 113.109 75.8941 112.024C71.9484 110.709 69.2415 109.317 66.8826 105.534C66.3055 104.62 65.2788 103.92 63.8108 103.433C63.5308 103.339 63.2253 103.399 63.0047 103.578C61.8591 104.518 60.7985 105.423 59.4323 106.072C56.4369 107.498 53.467 108.617 50.5225 109.436C49.8861 109.616 49.2752 109.522 48.6897 109.155C48.5115 109.044 48.3248 109.035 48.1466 109.138C47.6799 109.411 47.0435 109.505 46.2458 109.419C44.4215 109.232 42.5716 109.035 40.6963 108.822C40.1278 108.762 40.0345 108.514 40.4163 108.079L42.0031 106.268C42.3171 105.91 42.6735 105.85 43.0723 106.089L43.4287 106.294C43.7002 106.456 43.9717 106.448 44.2348 106.277C46.6616 104.723 45.3294 102.22 48.1636 101.068C48.4521 100.957 48.5539 100.743 48.4775 100.436C48.4012 100.145 48.2399 99.9318 47.9854 99.7952C47.7308 99.6671 47.4847 99.6756 47.2471 99.8378C46.6786 100.222 46.0422 100.427 45.3379 100.453C45.0579 100.461 44.7948 100.555 44.5657 100.717C43.6832 101.332 43.0129 102.118 42.5631 103.083C42.4444 103.339 42.2662 103.57 42.037 103.74C40.9254 104.603 40.0684 105.645 39.4659 106.883C39.0841 107.652 38.5071 107.865 37.7349 107.515C33.3309 105.534 30.1913 102.605 28.3245 98.7277C27.4929 97.0027 26.7632 95.1837 26.1268 93.2708C24.9049 89.6329 24.5994 85.4997 23.8611 81.597C23.5896 80.1538 22.6392 79.5304 21.01 79.7268C18.5662 80.0257 15.8508 80.3844 13.687 78.8302C10.9547 76.8746 9.07942 74.9361 7.94236 71.708C4.81122 62.7926 7.05139 51.4604 15.4011 46.2512C20.0087 43.3818 24.6588 43.3733 29.7416 43.9454C30.7768 44.0565 31.6508 43.2025 31.566 42.1606C30.7598 33.0659 32.5672 24.5603 39.0417 17.4553C43.7172 12.3229 49.4449 8.94971 56.2078 7.32717C68.2572 4.43221 80.5018 6.81479 88.9788 16.2768C90.608 18.0957 91.4735 20.41 91.5668 23.211C91.6093 24.4151 92.7378 25.2691 93.8919 24.9787C96.5902 24.2956 99.5602 23.4843 102.259 23.5953C107.053 23.7917 111.041 25.568 114.24 28.9326C118.356 33.2537 119.543 40.7089 120.137 46.3878C120.273 47.7285 121.037 48.6679 122.437 49.2059C128.351 51.4689 132.62 55.1837 135.242 60.3502C137.312 64.4322 138.381 69.0863 138.449 74.3041C138.568 82.8865 134.945 90.0343 127.571 95.7473Z" fill="black"/>
<path d="M39.5253 25.0469C39.1689 25.1408 39.0332 25.0042 39.1265 24.6455C39.5253 23.0998 40.2126 21.5968 41.1715 20.1451C41.3327 19.8974 41.5533 19.7779 41.8418 19.7693C42.334 19.7523 42.6904 19.9487 42.911 20.3586C44.0056 22.391 41.2054 24.6028 39.5253 25.0469Z" fill="black"/>
<path d="M102.522 26.7292C102.64 27.4465 101.291 28.2749 99.5093 28.5738C97.7273 28.8727 96.183 28.5396 96.0642 27.8223C95.9454 27.105 97.2946 26.2766 99.0765 25.9777C100.858 25.6788 102.403 26.0119 102.522 26.7292Z" fill="black"/>
<path d="M37.684 26.8573C37.8622 26.6524 38.1592 26.6097 38.3798 26.7549C39.1181 27.2502 39.7036 27.8821 40.1278 28.6507C40.637 29.59 40.2381 30.7685 39.2623 31.1955C38.6768 31.4517 38.0659 31.4261 37.4125 31.1272C37.2088 31.0333 37.0561 30.8539 37.0052 30.6404C36.6233 29.1289 36.8524 27.8736 37.684 26.8573Z" fill="black"/>
<path d="M36.0548 36.4903L36.0124 35.252C35.9954 34.7055 36.4706 34.2614 37.0222 34.3297L38.2526 34.4749C38.8635 34.5517 39.2199 35.2093 38.9569 35.7644L38.2101 37.3442C37.9301 37.9164 37.1664 38.0359 36.7337 37.5577L36.2839 37.071C36.1397 36.9087 36.0633 36.7038 36.0548 36.4903Z" fill="black"/>
<path d="M113.807 40.3928C113.884 40.5892 113.909 40.8027 113.901 41.0247C113.892 41.2297 113.807 41.409 113.646 41.5627C112.933 42.2545 112.093 42.3911 111.117 41.9726C110.854 41.8616 110.685 41.6567 110.608 41.3749C110.43 40.6661 110.489 40.0171 110.786 39.4449C111.117 38.7873 111.89 38.497 112.568 38.7617C113.349 39.0691 113.553 39.6669 113.807 40.3928Z" fill="black"/>
<path d="M89.1231 40.5039C90.9305 41.2212 91.8724 42.7242 91.9573 45.0128C92.2882 54.2101 91.9148 63.322 90.8372 72.3314C90.7693 72.8694 90.5062 73.4245 90.0565 74.0052C89.8783 74.2272 89.6492 74.3724 89.3777 74.4407C87.2818 74.9787 85.2368 74.8591 83.2427 74.0991C82.9796 73.9966 82.8014 73.8087 82.7081 73.544C82.3347 72.5022 82.1396 71.7421 82.1141 71.2554C81.7577 64.2101 81.588 56.4219 81.5965 47.8907C81.5965 45.1239 81.9529 43.2537 82.6741 42.2801C84.3203 40.0342 86.4672 39.4449 89.1231 40.5039Z" fill="black"/>
<path d="M58.8044 53.6038C56.7679 54.1504 55.3169 57.0026 52.7373 57.4894C49.0291 58.1811 44.0736 55.6448 45.7962 50.9651C48.5115 43.6124 59.3984 41.4177 65.7371 44.2614C73.3146 47.6517 75.5632 57.1734 69.9883 63.5441C68.8767 64.825 67.7227 66.0718 66.5432 67.293C64.7612 69.1461 64.1927 70.9651 63.6411 73.3306C63.4545 74.1248 62.8096 74.7225 62.0119 74.8421C59.8312 75.1751 57.8456 74.7823 56.0381 73.6636C55.7242 73.4672 55.5205 73.1427 55.4951 72.7755C55.1557 68.6337 56.4454 65.2008 59.356 62.4766C60.9088 61.0334 62.3174 59.4621 63.5648 57.7627C64.1842 56.9172 64.2012 56.0974 63.6157 55.2947C62.4023 53.6209 60.7985 53.0573 58.8044 53.6038Z" fill="black"/>
<path d="M114.597 47.9334C113.807 47.4979 113.621 46.3279 114.172 45.3117C114.724 44.304 115.818 43.8343 116.599 44.2699C117.388 44.7054 117.575 45.8753 117.023 46.8916C116.472 47.8992 115.377 48.3689 114.597 47.9334Z" fill="black"/>
<path d="M22.1132 49.0009C21.4768 50.7174 20.4161 51.1188 18.9312 50.2221C18.3117 49.8464 18.2184 48.9753 18.7445 48.4715C19.3639 47.8822 20.0767 47.5321 20.8743 47.4296C21.7399 47.3101 22.4187 48.1726 22.1132 49.0009Z" fill="black"/>
<path d="M124.194 57.2331L123.023 56.7976C122.692 56.6695 122.581 56.4389 122.692 56.0973L123.396 53.9197C123.506 53.5781 123.727 53.4842 124.041 53.6464C125.102 54.1588 125.959 54.9103 126.629 55.9009C126.799 56.1571 126.816 56.4218 126.671 56.6951C126.29 57.4039 126.06 58.1896 125.984 59.0435C125.959 59.257 125.755 59.3937 125.56 59.3339L125.297 59.257C124.974 59.1631 124.745 58.8727 124.728 58.5312L124.694 57.9163C124.686 57.5832 124.516 57.3527 124.194 57.2331Z" fill="black"/>
<path d="M125.509 60.6662C125.042 62.6303 124.16 63.6209 122.87 63.6465C122.607 63.6465 122.395 63.4245 122.42 63.1598L122.598 61.4518C122.624 61.1359 122.793 60.9992 123.107 61.0334C123.829 61.1102 124.457 60.8967 124.983 60.3758C125.5 59.8549 125.678 59.9574 125.509 60.6662Z" fill="black"/>
<path d="M117.974 70.4612C118.254 70.8113 117.982 71.4945 117.38 71.9983C116.769 72.4936 116.047 72.6132 115.759 72.263C115.479 71.9129 115.75 71.2297 116.353 70.7259C116.964 70.2306 117.685 70.111 117.974 70.4612Z" fill="black"/>
<path d="M15.4861 73.45C15.6558 73.356 15.834 73.3133 16.0122 73.3219C16.988 73.356 17.5056 74.5003 16.9286 75.3202C16.5298 75.8838 16.097 76.4218 15.6218 76.9427C15.3503 77.2331 14.8836 77.2245 14.629 76.9256C14.1114 76.3193 13.755 75.6447 13.5599 74.9103C13.4411 74.4662 13.7211 74.0221 14.1623 73.9367C14.629 73.8513 15.0703 73.6891 15.4861 73.45Z" fill="black"/>
<path d="M96.0896 98.275C94.7319 99.8293 93.0857 101.102 91.1595 102.092C90.888 102.229 90.6758 102.459 90.5401 102.733C89.9885 103.843 89.5303 104.979 88.6563 105.892C87.7483 106.84 86.8659 107.805 86.0088 108.796C84.8718 110.12 83.6329 110.401 82.0291 110.512C81.8934 110.521 81.8255 110.461 81.834 110.325V110.068C81.834 109.915 81.9103 109.863 82.0546 109.906C82.9286 110.188 83.4292 109.898 83.565 109.052C83.6159 108.736 83.7856 108.506 84.0826 108.369C84.2947 108.275 84.5154 108.249 84.7615 108.309C85.0245 108.378 85.2706 108.335 85.4997 108.173C86.2888 107.6 86.8659 106.875 87.2477 105.986C87.375 105.688 87.2732 105.525 86.9592 105.5C86.5943 105.465 86.2804 105.611 86.0003 105.944C85.7458 106.26 85.4827 106.533 85.2197 106.781C84.0572 107.848 83.7686 107.652 84.3711 106.183C84.7275 105.32 85.7033 104.475 86.5943 103.954C89.42 102.297 91.9741 100.29 94.2567 97.942C95.3683 96.7891 96.6411 95.7217 98.0582 94.7567C100.12 93.3476 102.029 91.6738 103.786 89.7268C103.973 89.5304 104.007 89.2315 103.879 88.9838C103.565 88.369 103.226 87.72 102.869 87.0453C102.589 86.5159 102.7 86.0633 103.217 85.696C103.497 85.4911 103.777 85.4911 104.057 85.7046C104.719 86.2084 105.11 86.9087 105.237 87.8224C105.305 88.3177 105.89 88.5398 106.264 88.2067C107.01 87.5406 107.545 86.7208 107.867 85.7473C107.969 85.4484 107.969 85.1495 107.859 84.8506C107.172 82.9633 107.672 81.1956 109.369 79.5475C109.514 79.4108 109.734 79.4108 109.878 79.5475L110.082 79.7609C110.337 80.0257 110.354 80.2989 110.133 80.5978C109.14 81.9556 108.665 83.2366 108.699 84.4578C108.708 84.8592 109.166 85.0812 109.488 84.8506C110.167 84.3639 110.778 83.8088 111.321 83.1683C112.772 81.4603 114.41 80.5124 115.513 78.4458C115.7 78.1042 115.598 77.9334 115.207 77.942C114.944 77.942 114.69 78.0018 114.435 78.1042C114.257 78.1811 114.07 77.9932 114.147 77.8139L114.359 77.293C114.554 76.8233 114.834 76.7635 115.199 77.1136L115.462 77.3613C115.657 77.5492 115.852 77.5406 116.039 77.3442C116.523 76.8404 117.083 76.4902 117.711 76.2938C117.991 76.1999 118.169 76.3024 118.245 76.5927C118.415 77.3015 118.271 77.8993 117.821 78.3861C116.879 79.4023 115.963 80.4783 115.072 81.6311C112.781 84.5773 109.437 86.661 106.764 89.3083C104.151 91.9044 101.571 94.4919 99.0171 97.0624C98.177 97.9078 97.4303 99.0522 96.7684 100.495C95.1816 103.98 92.5766 106.832 88.9363 109.052C88.6223 109.24 88.5375 109.163 88.6733 108.822C88.826 108.437 89.0891 108.147 89.4709 107.968C89.7255 107.848 89.9376 107.677 90.1073 107.447C90.9898 106.268 91.9062 105.115 92.8481 103.98C92.9075 103.911 93.3488 103.262 94.1719 102.024C94.944 100.871 96.6496 99.9744 96.5732 98.4373C96.5478 97.9761 96.3866 97.9164 96.0896 98.2665V98.275Z" fill="black"/>
<path d="M65.3551 82.6728C65.2109 85.2091 62.818 87.1391 60.0093 86.9854C57.2006 86.8317 55.0283 84.6455 55.1726 82.1007C55.3168 79.5644 57.7097 77.6344 60.5184 77.7881C63.3271 77.9418 65.4994 80.128 65.3551 82.6728Z" fill="black"/>
<path d="M91.2189 83.0658C91.2189 85.6277 89.1569 87.7028 86.6113 87.7028C84.0656 87.7028 82.0037 85.6277 82.0037 83.0658C82.0037 80.5039 84.0656 78.4287 86.6113 78.4287C89.1569 78.4287 91.2189 80.5039 91.2189 83.0658Z" fill="black"/>
<path d="M112.908 79.1203C113.307 78.8214 113.392 78.8983 113.154 79.3338C112.942 79.7352 112.628 80.1195 112.221 80.4867C111.813 80.8453 111.728 80.777 111.958 80.2817C112.17 79.8291 112.484 79.4363 112.908 79.1203Z" fill="black"/>
<path d="M33.3564 82.3655C33.3564 83.4245 32.5079 84.2784 31.4557 84.2784C30.4035 84.2784 29.5549 83.4245 29.5549 82.3655C29.5549 81.3066 30.4035 80.4526 31.4557 80.4526C32.5079 80.4526 33.3564 81.3066 33.3564 82.3655Z" fill="black"/>
<path d="M92.8992 90.9564C93.0604 91.2809 93.1453 91.6395 93.1453 92.0238C93.1453 92.3483 93.018 92.6558 92.7974 92.8949C89.9208 95.9606 86.8236 98.8471 83.5058 101.571C83.2767 101.751 83.2173 101.708 83.3106 101.435L84.1846 98.9752C84.2864 98.6933 84.4646 98.4713 84.7277 98.3176C86.8745 97.0025 88.9365 95.2433 90.9136 93.0401C91.3803 92.5191 91.3888 91.9982 90.9221 91.4773C90.7184 91.2467 90.5572 90.9905 90.4384 90.6916C90.3536 90.4696 90.4978 90.222 90.7354 90.2134L91.6943 90.1622C91.9658 90.1451 92.2119 90.017 92.3816 89.812C93.6375 88.2749 94.5878 86.6267 95.2412 84.859C95.3939 84.4406 95.954 84.3552 96.217 84.7224C97.5917 86.6097 94.2314 89.0264 93.0604 90.0682C92.7804 90.3244 92.7295 90.6233 92.8992 90.9564Z" fill="black"/>
<path d="M33.679 86.3535C33.8148 86.2851 33.959 86.251 34.1118 86.251C35.3507 86.2595 35.6816 86.9854 35.1131 88.4115C34.9943 88.7104 34.7821 88.9666 34.5106 89.1459C33.4075 89.8718 32.4316 90.7343 31.5916 91.7506C30.9721 92.5106 29.8011 92.4593 29.2411 91.6566C28.5538 90.666 28.5453 89.2911 29.623 88.6336C31.0061 87.7796 32.3553 87.0196 33.679 86.3535Z" fill="black"/>
<path d="M39.6783 92.502C38.677 93.1852 38.0406 93.5695 37.472 94.7394C37.3532 94.9956 37.1581 95.1664 36.8865 95.2518C34.7058 95.935 33.5008 97.6685 31.4049 98.198C30.8194 98.3432 30.2763 97.8308 30.3951 97.233C30.5479 96.4645 30.9297 95.8496 31.5407 95.3884C33.1784 94.1587 34.8755 92.9376 36.6489 91.7249C37.6927 91.0161 38.6939 90.9649 39.6698 91.5883C40.0007 91.8018 40.0007 92.28 39.6783 92.502Z" fill="black"/>
<path d="M41.0867 99.3594L41.8843 98.8214C42.1304 98.6592 42.3765 98.6592 42.6226 98.8214C42.8262 98.958 42.945 99.163 42.9874 99.4448C43.0299 99.6925 42.9705 99.9316 42.8262 100.145C41.8249 101.64 40.7048 103.074 39.4744 104.458C38.6174 105.431 37.667 105.525 36.6318 104.731L33.7213 102.502C33.2885 102.178 33.1697 101.563 33.4582 101.093C34.2983 99.7181 35.5032 98.7958 37.0646 98.309C37.2852 98.2407 37.4634 98.1126 37.5991 97.9247C37.7773 97.6685 37.8198 97.3867 37.7264 97.0879C37.6246 96.7292 37.981 96.4218 38.3204 96.5669L38.5835 96.6865C38.8635 96.8146 39.135 96.789 39.3896 96.6267C39.8054 96.3534 40.2466 96.2766 40.6963 96.3961C40.9849 96.473 41.214 96.7036 41.2903 97.0025C41.4855 97.7796 41.3582 98.5054 40.9085 99.1801C40.6624 99.5387 40.7218 99.5985 41.0867 99.3594Z" fill="black"/>
<path d="M61.1719 100.239C61.2398 99.8804 61.452 99.6413 61.8168 99.5303C62.3005 99.3851 62.4023 99.5303 62.1393 99.9487C61.5538 100.88 60.9343 101.699 60.281 102.425C59.9331 102.801 59.8058 102.741 59.8906 102.237C59.984 101.631 60.3064 101.136 60.8495 100.751C61.0192 100.632 61.138 100.444 61.1719 100.239Z" fill="black"/>
<path d="M46.6446 108.087C46.3222 108.446 45.7706 108.48 45.4142 108.155L45.3124 108.061C44.9475 107.737 44.9221 107.182 45.2445 106.823L51.4983 99.8035C51.8208 99.4448 52.3723 99.4107 52.7287 99.7352L52.8305 99.8291C53.1954 100.154 53.2209 100.709 52.8984 101.067L46.6446 108.087Z" fill="black"/>
<path d="M68.4439 102.331C67.9433 101.597 67.3662 101.409 66.7044 101.776C66.3056 101.99 65.9831 101.913 65.7285 101.546L65.491 101.187C65.2618 100.854 65.3297 100.606 65.6946 100.444L66.8486 99.9231C67.1626 99.7865 67.4511 99.8206 67.7226 100.017C68.707 100.726 69.3603 101.776 69.6828 103.168C69.7337 103.407 69.8779 103.604 70.0816 103.732C70.1749 103.792 70.2768 103.817 70.3871 103.817C70.5483 103.817 70.5738 103.877 70.455 103.988C69.8016 104.611 69.2246 105.303 68.7324 106.063C68.673 106.157 68.5966 106.174 68.5118 106.097L68.3336 105.952C68.3336 105.952 68.3081 105.892 68.3336 105.875C69.4622 105.081 69.4961 103.903 68.4439 102.331Z" fill="black"/>
<path d="M53.3991 106.405C51.9905 107.301 50.4886 107.985 48.8849 108.446C48.8849 108.446 48.8792 108.446 48.8679 108.446L48.783 108.19C48.7321 108.053 48.7745 107.959 48.9103 107.908C50.7686 107.173 52.0415 105.995 52.7458 104.381C53.4755 102.69 55.5629 101.136 57.3788 102.024C57.5995 102.135 57.8371 102.195 58.0746 102.22C58.7874 102.289 58.9826 102.596 58.6601 103.151C58.5413 103.348 58.3886 103.518 58.2019 103.646C57.2685 104.295 56.3945 105.021 55.5714 105.816C55.1302 106.242 54.7229 106.388 54.1543 106.268C53.8828 106.208 53.6282 106.26 53.3991 106.405Z" fill="black"/>
<path d="M72.2624 108.002C74.4686 107.242 77.9646 106.413 77.9137 103.587C77.9052 102.955 78.1768 102.775 78.7453 103.04L79.9248 103.587C80.4085 103.8 80.6036 104.176 80.5273 104.697C80.4594 105.115 80.2812 105.585 80.0012 106.089C79.8569 106.345 79.6448 106.473 79.3478 106.473C77.1585 106.473 76.3863 107.754 75.0966 109.163C74.5874 109.718 73.8068 109.932 73.094 109.71C72.2879 109.453 71.5666 109.095 70.9302 108.625C70.3107 108.164 70.2429 107.634 70.735 107.045C71.9739 105.534 73.5946 104.21 75.5887 103.057C75.8348 102.912 75.9621 102.98 75.9536 103.271L75.9281 104.475C75.9281 104.765 75.7924 104.961 75.5123 105.064C74.0444 105.585 72.8818 106.447 72.0078 107.651C71.7278 108.036 71.8127 108.155 72.2624 108.002Z" fill="black"/>
</g>
<defs>
<clipPath id="clip0_2096_525">
<rect width="145" height="120" fill="white"/>
</clipPath>
</defs>
</svg>
