<svg width="145" height="160" viewBox="0 0 145 160" fill="none" xmlns="http://www.w3.org/2000/svg">
<g clip-path="url(#clip0_2086_141)">
<path d="M142.265 58.3116C140.893 57.6701 140.893 57.0286 142.265 56.3781C143.337 55.8722 143.891 55.2307 144.073 54.029C146.599 36.5825 143.719 20.5365 138.375 3.56882C137.967 2.28586 137.394 1.2378 136.64 0.424655C136.413 0.189746 136.14 0.0542221 135.813 0.0180823C134.595 -0.0903371 133.223 0.289131 131.706 1.14745C121.674 6.84851 113.477 11.3569 106.717 18.079C99.0019 25.7406 98.1477 39.1936 98.8474 49.9362C99.1109 53.9748 99.2109 57.5165 99.1382 60.5613C99.0746 63.1724 98.0023 65.5125 95.9214 67.5905C95.6124 67.9067 95.4307 67.8435 95.3671 67.4008C94.9128 64.0669 94.522 60.7781 94.1949 57.5346C93.059 46.1415 94.8401 35.2092 99.538 24.7377C100.22 23.2198 100.501 21.9821 100.274 20.4551C100.156 19.6691 99.3744 19.1541 98.593 19.3619C95.7306 20.1299 93.0681 21.3315 90.6055 22.9578C84.9444 26.6802 78.5926 30.8996 73.504 35.146C58.6832 47.5329 60.8913 69.4065 63.3993 87.1331C63.5083 87.9282 63.3448 87.9914 62.9086 87.3228C58.2652 80.2304 55.4846 72.3971 54.585 63.8139C54.4396 62.4496 53.7127 61.6545 52.3951 61.4287C49.669 60.9679 46.325 64.2476 44.6712 66.0184C35.0027 76.3092 27.9785 89.5725 27.8967 104.001C27.8785 106.685 27.8604 108.889 27.8513 110.615C27.8422 112.594 27.4242 112.684 26.5973 110.877C25.9158 109.368 25.2706 107.787 24.6436 106.125C24.5436 105.854 24.3528 105.619 24.1075 105.456C23.2079 104.887 22.2356 104.851 21.2087 105.366C14.6389 108.645 17.9102 115.476 21.0179 119.831C24.1711 124.231 26.6155 127.953 26.461 133.383C26.461 133.663 26.3156 133.808 26.043 133.817L25.7885 133.835C25.7431 133.835 25.7158 133.808 25.7068 133.763C25.3887 131.404 24.5709 129.299 23.2533 127.447C21.2996 124.709 19.2278 123.011 15.8838 122.686C15.0751 122.604 14.339 123.137 14.1664 123.923C13.7029 125.956 16.22 127.736 17.5376 128.965C21.2723 132.443 20.9361 136.346 22.0629 140.873C22.1356 141.171 22.0538 141.406 21.8176 141.596C20.5272 142.608 19.1551 143.511 17.7103 144.297C13.3667 146.673 9.04135 149.068 4.72506 151.489C1.83542 153.106 -2.40817 155.826 1.7082 159.286C3.39837 160.714 6.00632 159.702 7.74192 158.789C13.5121 155.745 19.3823 152.356 25.3524 148.616C25.6613 148.426 26.0612 148.499 26.2792 148.788C27.8967 150.947 29.5233 152.989 31.168 154.913C32.5219 156.503 34.6119 158.048 36.4566 156.287C37.5561 155.23 36.8928 153.576 36.1113 152.573C34.9027 151.019 33.676 149.366 32.4311 147.613C32.2584 147.369 32.2766 147.044 32.4765 146.827L32.6673 146.619C32.7673 146.511 32.9309 146.52 33.0308 146.628C34.9027 148.77 36.5747 150.468 38.0377 151.706C40.891 154.118 49.46 158.03 52.3224 153.414C52.8585 152.555 52.4223 151.426 51.4409 151.146C47.6062 150.043 42.5812 148.652 40.0277 145.716C38.3739 143.827 38.6465 143.493 40.8365 144.731C46.0887 147.694 51.9225 148.327 57.5382 148.191C62.1453 148.074 73.5948 146.195 75.076 140.747C75.1578 140.457 75.1124 140.15 74.9488 139.897C74.2309 138.786 73.2859 138.099 72.1228 137.855C67.8519 136.952 63.5356 136.103 59.5283 134.792C59.4374 134.765 59.4101 134.711 59.4556 134.63L59.601 134.377C59.6918 134.205 59.8372 134.142 60.0281 134.178C63.5447 134.874 67.1431 135.362 70.8142 135.624C80.2374 136.301 89.0335 134.259 97.1936 129.507C104.163 125.441 110.724 120.671 116.876 115.187C118.866 113.416 120.411 111.591 121.501 109.702C123 107.109 120.047 106.432 118.339 105.745C117.857 105.555 117.875 105.438 118.384 105.375C124.763 104.616 131.569 98.0835 134.713 93.1323C139.602 85.4074 142.955 75.731 144.773 64.094C145.218 61.2299 144.382 59.2964 142.265 58.3116ZM136.095 18.9011C136.74 18.2235 137.131 18.341 137.249 19.2716L137.694 22.6506C137.794 23.4367 137.449 24.2227 136.803 24.6835C133.696 26.9061 130.606 29.5443 127.535 32.5981C127.026 33.1131 126.463 33.1764 125.863 33.8359C125.654 34.0618 125.59 34.0257 125.672 33.7275C127.371 27.5114 131.242 23.9788 136.095 18.9011ZM134.904 13.6247C134.986 13.4982 135.159 13.4621 135.286 13.5524L135.531 13.7151C135.658 13.8054 135.695 13.9681 135.604 14.0945L127.798 25.6864C127.717 25.8129 127.544 25.849 127.417 25.7587L127.171 25.596C127.044 25.5057 127.008 25.3431 127.099 25.2166L134.904 13.6247ZM124.654 13.8867C125.063 13.5163 125.163 13.5795 124.954 14.0855C124.391 15.504 123.282 16.5882 122.737 18.0428C121.71 20.8075 120.102 23.8342 119.756 26.7073C119.602 27.9361 119.429 29.1197 119.22 30.2671C119.12 30.8544 119.184 30.8724 119.42 30.3304C120.32 28.2342 120.402 26.0839 121.41 24.1414C123.473 20.1751 125.563 16.3894 127.671 12.7845C128.889 10.7155 129.207 10.842 128.634 13.182C127.498 17.8531 125.772 22.6326 123.455 27.5114C121.292 32.0741 119.229 36.1037 117.257 39.5821C116.585 40.7657 116.212 40.6844 116.131 39.3201C116.04 37.6758 116.767 35.9862 116.649 34.2967C116.385 30.6014 116.558 27.2314 117.167 24.1866C117.566 22.1628 119.302 21.1418 120.293 19.3981C121.474 17.311 122.928 15.4769 124.654 13.8867ZM117.121 16.7779C117.557 16.3985 117.639 16.4617 117.357 16.9677C117.167 17.311 116.93 17.6272 116.64 17.9073C116.421 18.1241 116.267 18.3771 116.167 18.6662C115.676 20.166 115.249 21.4942 115.149 23.1476C114.995 25.5689 114.295 27.7193 114.613 30.1135C115.068 33.5649 115.267 37.1608 115.222 40.8922C115.213 41.5969 115.049 42.2926 114.713 42.9883C114.341 43.7653 113.904 44.4701 113.396 45.1025C112.823 45.7982 112.505 45.6988 112.432 44.8043C112.06 40.4134 111.678 36.0585 111.306 31.7308C110.779 25.6412 112.714 20.6539 117.121 16.7779ZM108.916 25.4334C109.525 24.5209 109.806 24.6112 109.743 25.7045C109.552 29.3726 109.706 33.0679 110.188 36.7813C110.424 38.5793 110.56 40.323 110.588 42.0126C110.633 44.4791 110.96 47.7136 109.325 49.0508C109.152 49.2044 108.997 49.1773 108.879 48.9785C107.743 47.0812 107.516 45.2922 108.207 43.6117C108.652 42.5366 108.552 41.3982 107.916 40.1875C107.725 39.8171 107.598 39.8442 107.544 40.2507C107.444 40.9916 107.489 41.7054 107.671 42.383C107.753 42.6811 107.743 42.9703 107.644 43.2503C107.035 45.0302 107.035 46.8282 107.634 48.6442C107.725 48.9243 107.725 49.2134 107.634 49.4935L105.617 55.6463C105.463 56.1251 105.308 56.1251 105.163 55.6463C102.328 46.0241 103.118 34.0889 108.916 25.4334ZM84.6991 39.8261C85.6804 36.2663 87.3343 33.2306 89.8604 30.746C90.4329 30.1858 90.651 30.3032 90.5329 31.0893C89.2334 39.4918 88.9881 47.6504 89.7786 55.5559C90.1876 59.6488 90.8509 64.5457 91.7687 70.2287C91.8777 70.9244 91.696 71.6382 91.2598 72.1893C90.2602 73.4723 89.3697 74.8546 88.5882 76.3273C88.1339 77.1766 87.7704 77.1404 87.4978 76.2189C83.9812 64.4825 81.3823 51.8606 84.6991 39.8261ZM77.484 40.6934C78.1656 39.0581 78.4927 39.1214 78.4836 40.9012C78.42 47.822 79.4377 55.1223 81.5368 62.802C82.8181 67.5092 83.8903 72.0718 84.7536 76.4809C84.9535 77.4928 84.6082 78.5318 83.854 79.2275C82.5454 80.4292 82.0275 81.8657 82.3001 83.5282C82.3092 83.5733 82.291 83.5914 82.2456 83.5914H82.0093C81.8912 83.6095 81.8367 83.5553 81.8276 83.4468C81.7185 81.6128 80.6917 80.0587 80.3101 78.6493C78.1656 70.7979 76.8934 65.5396 76.5026 62.8923C75.2487 54.5079 74.658 47.5419 77.484 40.6934ZM78.4563 86.7356C78.0747 87.1602 77.6476 87.4042 77.5022 87.2686C77.3568 87.1421 77.5567 86.6904 77.9384 86.2748C78.32 85.8501 78.7471 85.6062 78.8925 85.7417C79.0379 85.8682 78.838 86.32 78.4563 86.7356ZM71.4594 48.9695C71.7229 48.2647 71.8592 48.2918 71.8683 49.0417C71.941 54.6524 72.877 60.9408 74.5853 66.3527C76.1846 71.4123 77.4659 76.1195 78.42 80.4743C78.7926 82.2091 78.3291 84.0883 77.0115 86.1031C76.7934 86.4284 76.5935 86.4193 76.4118 86.076C76.1573 85.6062 75.9665 85.1002 75.8393 84.5672C75.703 83.9889 75.5394 83.6185 75.3668 83.4649C75.1305 83.2571 74.8397 83.1577 74.5035 83.1668C74.1855 83.1758 73.9674 83.3294 73.8493 83.6185C73.1314 85.3442 72.9315 87.1241 73.2495 88.9672C73.295 89.2473 73.2677 89.5183 73.1496 89.7803L72.5135 91.2711C72.4135 91.506 72.0864 91.506 71.9865 91.2711C71.0868 89.0937 70.3145 87.0066 69.6784 85.028C68.3244 80.7725 68.2517 76.0111 67.9337 71.4665C67.4157 64.0849 68.597 56.5859 71.4594 48.9695ZM49.0056 70.825C49.1419 70.2739 49.2873 70.2739 49.4509 70.8069C51.0411 76.0382 53.1584 81.0706 55.8208 85.8863C58.4106 90.5754 60.9277 95.6982 63.9718 100.387C64.1626 100.686 64.2171 100.948 64.1172 101.164C63.99 101.454 63.781 101.526 63.4993 101.381C63.2721 101.264 63.0358 101.191 62.7996 101.164C62.5906 101.146 62.4634 101.246 62.4361 101.454C62.427 101.535 62.427 101.616 62.4361 101.697C62.5451 102.628 62.218 102.809 61.4456 102.24C60.4733 101.517 59.6464 101.164 58.9649 100.134C57.0112 97.18 54.7031 94.2436 53.2492 91.2079C50.4686 85.3894 47.4336 77.4928 49.0056 70.825ZM44.4349 75.0082C44.6984 74.5293 44.8983 74.5564 45.0256 75.0895C46.6612 81.7754 49.9688 88.913 53.5945 94.8399C55.6573 98.21 57.4474 101.761 58.9649 105.483C59.1921 106.043 59.0194 106.206 58.4651 105.971C57.3292 105.483 56.257 104.336 55.7299 103.179C53.6309 98.5894 51.1229 94.1984 48.2242 90.0062C45.8525 86.582 42.1359 79.0468 44.4349 75.0082ZM40.7547 81.667C43.8261 85.8682 47.2064 89.8617 49.7871 94.2617C52.3769 98.6979 55.3574 103.089 56.3206 108.302C56.3933 108.7 55.9753 108.998 55.6209 108.808C54.8667 108.41 54.2033 107.832 53.6127 107.082C48.7148 100.803 44.4258 94.1352 40.7547 87.0789C39.9005 85.4255 39.4553 83.7721 39.4098 82.1097C39.3735 80.5466 39.8187 80.393 40.7547 81.667ZM37.1018 88.4251C37.2472 88.1992 37.3471 88.0456 37.3925 87.9734C37.9923 87.0247 38.5648 87.0428 39.1009 88.0276C42.9719 95.1742 47.8062 102.592 53.5945 110.281C53.7944 110.543 53.8853 110.877 53.849 111.211C53.7763 111.762 53.5673 112.07 53.2129 112.124C52.3314 112.259 51.5591 111.997 50.8866 111.329C45.5708 105.98 40.9274 99.3032 36.9564 91.3073C36.4657 90.3224 36.5111 89.3557 37.1018 88.4251ZM35.8296 92.265C35.9932 91.6596 36.1931 91.6506 36.4293 92.2288C36.602 92.6715 36.6474 93.1504 36.5565 93.6473C36.4838 94.0539 36.5475 94.4333 36.7474 94.7947C39.7551 100.369 42.3177 104.417 44.4258 106.929C46.0524 108.862 47.6335 110.778 49.1783 112.675C49.6962 113.316 49.6781 113.949 49.1147 114.554L48.7603 114.934C48.0969 115.638 47.4699 115.611 46.8793 114.843C45.2073 112.666 43.0628 110.561 41.5271 108.474C39.2281 105.366 37.1745 102.185 35.3662 98.9328C35.0663 98.3816 34.9572 98.4178 35.0481 99.0412C35.6569 103.008 38.9373 106.956 40.8547 110.552C40.991 110.814 41.1909 111.022 41.4544 111.175C43.4808 112.359 45.0801 114.003 46.2705 116.117C46.3522 116.253 46.325 116.352 46.1887 116.433L45.8888 116.614C45.8888 116.614 45.8252 116.614 45.807 116.596C44.4076 114.563 42.9992 113.045 41.5907 112.033C40.4367 111.211 40.2458 111.392 41.0182 112.576C41.6089 113.488 42.254 114.428 42.9537 115.394C43.1082 115.62 43.0719 115.801 42.8447 115.946C42.7629 115.991 42.6902 116.036 42.6175 116.09C42.4903 116.19 42.4721 116.298 42.563 116.433L44.026 118.71C44.0805 118.792 44.0805 118.9 44.026 118.972L43.2082 120.093C43.1264 120.21 43.0446 120.201 42.9628 120.075L33.676 104.39C33.5397 104.155 33.4852 103.902 33.5215 103.622C34.0576 99.7098 34.83 95.9241 35.8387 92.265H35.8296ZM32.9581 105.311C32.9854 104.869 33.5215 104.679 33.8305 104.995C34.1122 105.275 34.2121 105.637 34.1303 106.061C34.0849 106.359 34.1122 106.64 34.2121 106.92C36.0022 111.537 38.0559 115.702 40.3731 119.424C41.2181 120.779 40.9183 122.198 39.5007 122.984C39.3462 123.065 39.1736 122.921 39.2281 122.758C39.4916 121.936 39.4644 121.186 39.1281 120.508C37.965 118.141 36.4929 115.458 34.7028 112.458C33.3761 110.245 32.8218 107.832 32.9581 105.311ZM29.3052 118.286C29.2325 117.969 29.3597 117.78 29.6777 117.716C30.9227 117.482 31.8223 117.834 32.3856 118.774C33.4034 120.481 34.1758 122.677 34.7119 125.378C35.0299 127.041 34.2121 128.802 33.158 129.995C32.7673 130.438 32.5492 130.365 32.522 129.778C32.2857 125.568 30.2502 122.324 29.3052 118.286ZM37.5925 133.817C35.6751 135.091 33.8759 136.066 32.213 136.762C31.1498 137.205 31.068 137.06 31.9495 136.337C36.5475 132.57 41.1727 128.631 45.8161 124.511C50.1142 120.689 55.2847 117.129 59.4465 113.054C65.3984 107.209 70.4508 102.113 74.5853 97.7673C81.0279 90.991 87.4524 84.4949 93.8587 78.2879C93.8859 78.2608 93.9405 78.2698 93.9677 78.2969L94.1313 78.4686C94.1313 78.4686 94.1585 78.5228 94.1313 78.5499C90.9054 81.5585 87.9976 84.6756 85.426 87.9011C84.1357 89.5183 82.7726 91.1717 81.3369 92.8432C73.0587 102.483 67.6702 108.501 65.1622 110.904C58.665 117.12 52.1134 122.848 45.5072 128.098C43.0991 130.004 40.4548 131.91 37.5925 133.817ZM93.1408 87.63C93.7678 87.6752 94.3766 87.8469 94.9673 88.1541C95.3489 88.3619 95.3307 88.5155 94.9128 88.6329C93.4316 89.0395 92.3775 89.9882 91.7505 91.4789C91.6324 91.7771 91.4234 92.0029 91.1417 92.1565L88.2339 93.7738C87.934 93.9455 87.6977 94.1894 87.5251 94.4876C87.2616 94.9483 86.8617 95.1833 86.3256 95.2013C85.8713 95.2013 85.7804 95.0387 86.053 94.6683C87.9431 92.1023 90.0512 89.8436 92.3684 87.892C92.5865 87.7023 92.8409 87.612 93.1408 87.63ZM75.8666 106.378C76.7116 107.146 77.4659 107.606 78.111 107.769C85.5532 109.594 93.1045 110.235 100.765 109.684C101.828 109.603 102.6 109.621 103.1 109.73C104.254 109.973 104.254 110.181 103.082 110.353C99.3653 110.886 95.4034 111.374 91.2053 111.808C89.9967 111.934 88.2339 111.871 85.9076 111.618C83.7631 111.383 81.664 111.491 79.6104 111.943C79.3196 112.006 79.047 111.952 78.7925 111.799C77.3205 110.886 75.7303 110.434 74.031 110.452C73.3222 110.461 72.8134 109.784 73.0133 109.106C73.3404 108.022 74.0583 107.1 75.1669 106.332C75.4122 106.161 75.6394 106.179 75.8666 106.378ZM67.3885 116.171C67.9064 116.307 68.1609 116.632 68.1699 117.156C68.1699 117.256 68.1154 117.301 68.0155 117.274L67.0977 117.084C66.7796 117.021 66.6797 116.831 66.7796 116.533C66.8069 116.452 66.8432 116.379 66.9069 116.316C67.0432 116.171 67.1976 116.126 67.3885 116.171ZM57.2747 143.638C53.0402 144.469 49.2964 143.556 46.0524 140.891C45.2255 140.223 45.2891 140.132 46.2341 140.611C47.3427 141.171 48.4422 141.786 49.7326 142.093C52.5404 142.752 55.0393 143.087 57.2293 143.096C59.0648 143.096 59.083 143.285 57.2747 143.638ZM65.9982 141.099C66.1526 141.126 66.2435 141.207 66.2799 141.361C66.2889 141.433 66.2799 141.514 66.2435 141.596C66.2072 141.668 66.1526 141.713 66.0799 141.722C63.6901 142.237 61.9091 142.373 60.755 142.12C58.038 141.542 54.5214 141.162 52.2951 139.717C50.3596 138.461 48.5513 136.952 46.8884 135.199C46.6975 135 46.7339 134.684 46.952 134.521L47.2155 134.323C47.3155 134.25 47.4154 134.259 47.5154 134.341C49.3237 136.075 52.2678 138.705 54.6486 139.183C58.3561 139.933 62.1362 140.575 65.9982 141.099ZM110.724 112.892C107.616 115.702 103.791 117.644 99.2472 118.728C93.4407 120.12 87.9249 121.114 82.6818 121.701C81.873 121.791 81.2551 122.469 81.246 123.282V123.652C81.246 124.339 81.9003 124.836 82.5636 124.646C84.0266 124.222 85.5441 123.996 87.098 123.969C89.2879 123.923 91.3234 123.282 93.5406 123.155C95.5125 123.047 95.6306 123.454 93.8768 124.375C89.9876 126.426 86.2166 127.727 82.5545 128.296C79.1106 128.829 73.6766 128.929 66.2708 128.604C64.7714 128.54 64.0627 127.917 62.7178 127.781C62.2907 127.736 62.2089 127.555 62.4724 127.221C62.845 126.742 63.3175 126.634 63.8718 126.914C64.6624 127.312 65.5075 127.655 66.4071 127.935C66.7706 128.052 67.0068 127.935 67.1068 127.565L67.3612 126.661C67.443 126.381 67.343 126.2 67.0704 126.101C66.2617 125.803 65.4984 125.929 64.7805 126.48C64.3898 126.778 64.199 126.688 64.2171 126.191C64.2353 125.83 64.1263 125.523 63.89 125.261C63.681 125.044 63.3266 125.116 63.2085 125.387C63.1721 125.477 63.1176 125.55 63.0449 125.613C62.7632 125.857 62.4815 125.866 62.1817 125.64C60.7914 124.574 59.4283 124.583 58.1107 125.676C57.6564 126.056 57.5746 125.992 57.8654 125.477C58.2743 124.764 58.7377 124.104 59.2557 123.517C59.4647 123.273 59.7373 123.155 60.0644 123.165C61.1094 123.174 61.9454 123.544 62.5724 124.276C62.845 124.592 62.9995 124.538 63.0449 124.131C63.0631 123.96 63.1267 123.815 63.2357 123.707C63.4447 123.49 63.6992 123.427 63.99 123.526L64.9168 123.851C65.2349 123.969 65.5347 123.923 65.8073 123.725C66.7433 123.065 67.7701 122.83 68.8969 123.029C69.2149 123.083 69.4966 123.002 69.742 122.794L69.9419 122.604C70.0964 122.46 70.2599 122.46 70.4235 122.595C71.732 123.67 74.2309 122.948 75.9847 123.526C76.5117 123.698 76.848 123.517 76.9843 122.984L77.1024 122.532C77.2114 122.116 76.9116 121.71 76.4845 121.674C72.3772 121.348 68.6334 121.231 65.253 121.312C64.3625 121.339 63.4629 121.213 62.5633 120.942C62.1726 120.824 62.1362 120.644 62.4543 120.382L65.98 117.472C66.1708 117.31 66.4707 117.427 66.507 117.671C66.6433 118.53 67.0159 119.008 67.6247 119.108C68.0518 119.171 68.3608 119.008 68.5516 118.611C69.2331 117.165 70.5961 116.605 72.6589 116.93C73.0951 116.994 73.1314 117.156 72.7679 117.409C72.0319 117.915 71.4867 117.644 70.7234 117.698C70.3417 117.725 70.1963 117.924 70.2963 118.286C70.3417 118.43 70.4053 118.557 70.5053 118.674C70.6416 118.828 70.8597 118.891 71.0596 118.828L77.7385 116.732C77.8748 116.686 77.9384 116.542 77.8929 116.415L77.8021 116.162C77.684 115.828 77.3386 115.629 76.9933 115.684C74.6853 116 72.7952 116.09 71.314 115.964C70.4871 115.891 70.3872 115.575 71.0141 115.015C71.1323 114.916 71.1595 114.78 71.1141 114.617C70.996 114.193 70.8506 114.184 70.6598 114.581C70.1963 115.548 69.3785 115.819 68.1881 115.385C67.7429 115.223 67.6792 114.626 68.0882 114.373C69.0605 113.786 69.742 113.009 70.1509 112.061C70.478 111.293 71.4776 111.094 72.0773 111.681L73.8856 113.443C74.14 113.687 74.3218 113.642 74.4308 113.307L74.5217 113.027C74.6126 112.756 74.7943 112.63 75.076 112.657L81.5913 113.262C81.8276 113.289 82.0457 113.38 82.2183 113.542C82.3365 113.66 82.4728 113.759 82.6091 113.84C82.7272 113.913 82.8453 113.949 82.9816 113.958C84.7354 114.048 86.8254 113.669 89.2425 112.81C89.5151 112.72 89.7968 112.892 89.8422 113.172L90.0331 114.401C90.0785 114.663 90.233 114.798 90.4965 114.807C95.3762 114.952 100.438 114.699 105.699 114.039C107.398 113.822 109.007 113.344 110.515 112.594C111.324 112.187 111.396 112.286 110.724 112.892ZM138.839 66.949C138.248 69.0361 136.667 70.8521 134.096 72.379C130.225 74.6829 126.29 76.6706 122.283 78.3421C117.594 80.2936 113.314 82.2181 109.434 84.1064C109.252 84.1967 109.134 84.3774 109.134 84.5762V84.9376C109.143 85.1183 109.225 85.1816 109.397 85.1183C118.493 82.0013 127.653 79.4263 136.022 74.6107C136.276 74.4661 136.585 74.6739 136.54 74.963C135.468 81.8296 131.842 83.6908 125.545 87.1602C122.837 88.66 120.029 89.9611 117.13 91.0723C108.325 94.4514 99.229 96.7011 89.8604 97.8124C89.3061 97.8757 88.7518 97.9118 88.1975 97.9028C86.8072 97.9028 85.5805 96.8818 84.1811 97.2613C83.3814 97.4781 83.1543 98.0383 83.4905 98.9508C83.6086 99.249 83.4905 99.3935 83.1815 99.3845C82.7999 99.3664 82.6091 99.5562 82.6091 99.9447C82.6091 100.333 83.018 100.532 83.3269 100.333C84.0721 99.8543 84.8354 99.5923 85.744 99.6104C89.6605 99.7278 94.3039 99.3213 99.6561 98.3997C110.588 96.5295 120.547 93.6834 129.516 89.8707C130.506 89.4461 130.67 89.6629 130.016 90.5122C119.938 103.486 101.355 105.411 86.2257 105.339C83.3996 105.329 80.7735 104.923 78.3655 104.119C77.8748 103.956 77.8021 103.685 78.1474 103.297L84.7081 95.9512C84.9807 95.644 85.4533 95.5808 85.7986 95.8157L87.1434 96.7192C87.5433 96.9902 87.7341 96.8818 87.7159 96.403C87.6977 95.8789 87.834 95.4001 88.1157 94.9754C88.2793 94.7225 88.5247 94.5327 88.8063 94.4243C90.2239 93.9184 91.7868 93.3943 93.2771 93.1685C98.2113 92.4366 103 91.2621 107.644 89.6448C107.998 89.5274 108.116 89.2834 107.998 88.9311L107.916 88.651C107.889 88.5787 107.843 88.5516 107.762 88.5697C103.718 89.5635 99.7561 90.6025 95.8669 91.6958C94.9128 91.9578 93.8405 91.9307 92.6501 91.6144C92.4229 91.5512 92.3593 91.2621 92.5411 91.1175C94.1131 89.8617 95.776 88.7775 97.548 87.874C100.038 86.6 103.5 85.9676 106.38 84.7931C106.753 84.6395 106.926 84.3594 106.898 83.9528L106.862 83.5372C106.835 83.221 106.489 83.0312 106.208 83.1848C104.554 84.0883 103.318 84.7569 101.319 85.1273C99.7379 85.4165 98.2295 85.9315 96.8028 86.6633C96.5302 86.7988 96.2394 86.844 95.9396 86.7988C95.3126 86.7085 94.7038 86.4645 94.0949 86.067C93.8405 85.8953 93.7951 85.6785 93.9677 85.4255C95.0763 83.745 96.3394 82.7692 97.757 82.4982C100.728 81.929 102.655 80.122 105.444 79.2185C114.777 76.1827 124.245 72.4152 133.85 67.9248C135.277 67.2562 136.767 66.7503 138.33 66.4069C138.648 66.3346 138.93 66.6328 138.839 66.949ZM137.112 54.0832C132.142 59.8204 125.926 63.9042 118.466 66.3437C115.604 67.2743 113.114 69.0542 110.37 70.31C108.589 71.1232 107.853 72.7224 106.162 73.4632C105.844 73.5987 105.853 73.671 106.208 73.662C108.661 73.5987 112.968 70.7618 114.613 69.5963C116.022 68.6024 117.403 67.8254 118.766 67.2743C119.257 67.0755 119.32 67.1659 118.957 67.5544C118.003 68.5663 116.776 69.3614 115.258 69.9486C115.122 70.0028 115.095 70.0932 115.177 70.2106L115.313 70.4094C115.358 70.4907 115.431 70.5088 115.522 70.4817C122.346 68.1687 128.925 65.3408 135.277 62.0069C135.695 61.781 136.395 61.7178 136.658 61.5732C137.667 61.0492 137.721 61.1305 136.822 61.8262C133.741 64.2024 130.797 66.9852 127.398 68.7289C124.245 70.3462 121.737 71.5117 119.875 72.2164C113.523 74.6378 106.698 77.3573 99.3835 80.384C98.7111 80.6641 98.5112 80.4743 98.7747 79.7967L99.5653 77.7548C99.8197 77.1043 100.301 76.7881 101.001 76.8152C102.482 76.8604 103.573 76.4357 104.263 75.5232C104.817 74.7914 105.054 74.0144 104.954 73.2012C104.636 70.7166 105.535 68.6747 107.644 67.0755C107.898 66.8858 108.098 66.931 108.234 67.2201C108.37 67.5092 108.57 67.7622 108.825 67.97C109.07 68.1597 109.297 68.1416 109.488 67.8977C111.442 65.4583 114.277 64.2205 117.067 62.6484C117.539 62.3864 117.694 61.7901 117.412 61.3383L117.276 61.1215C117.158 60.9317 116.912 60.8595 116.712 60.9498C113.968 62.1515 110.279 63.9314 108.498 66.0636C108.443 66.1268 108.38 66.163 108.298 66.1811C108.207 66.1991 108.189 66.172 108.234 66.0997C108.861 65.2053 109.652 63.8591 110.624 62.0792C112.414 58.7634 115.449 55.7366 119.002 54.1465C125.699 51.1469 132.196 48.2467 138.512 44.1087C138.93 43.8376 139.475 44.1629 139.43 44.6598C139.121 47.7407 139.202 51.6709 137.112 54.0832ZM137.249 41.7415C130.742 45.8614 123.882 50.2615 117.221 52.7551C116.876 52.8906 116.758 52.7822 116.876 52.4298C117.739 49.882 118.521 47.6504 120.974 46.2048C121.892 45.6536 122.764 45.1115 123.573 44.5694C126.235 42.7896 128.898 40.9374 131.542 39.0129C131.578 38.9858 131.588 38.9497 131.56 38.9136L131.415 38.6967C131.306 38.5251 131.079 38.4708 130.897 38.5793C127.744 40.4856 124.427 41.6421 120.929 42.0397C120.483 42.0939 120.411 41.9583 120.729 41.6331C122.728 39.6002 124.791 37.8384 126.917 36.3386C128.734 35.0556 129.661 33.4745 131.079 31.8392C132.851 29.8063 135.041 28.3336 137.658 27.4301C137.93 27.3307 138.239 27.4934 138.303 27.7825C139.057 31.026 138.194 33.9624 135.713 36.5916C135.386 36.9349 135.459 37.0704 135.931 36.9891L139.184 36.4651C139.484 36.4199 139.648 36.5374 139.693 36.8355C139.975 38.8955 139.157 40.5308 137.249 41.7415Z" fill="black"/>
</g>
<defs>
<clipPath id="clip0_2086_141">
<rect width="145" height="160" fill="white"/>
</clipPath>
</defs>
</svg>
