<svg width="241" height="81" viewBox="0 0 241 81" fill="none" xmlns="http://www.w3.org/2000/svg">
<g clip-path="url(#clip0_2215_94)">
<path d="M239.738 1.52116C238.234 0.295911 236.299 0.234029 234.523 1.29839C230.677 3.61274 226.818 6.3974 222.96 8.04344C214.01 11.8924 204.838 12.7093 195.358 14.3306C189.169 15.3825 185.988 19.4915 182.586 23.5014C172.206 35.692 161.517 48.1796 150.509 60.9766C143.765 68.8231 132.165 71.4345 126.469 61.1994C125.125 58.786 125.508 56.7934 127.64 55.2093C131.228 51.2736 134.938 47.2266 140.313 51.6078C144.591 55.1103 141.83 63.2415 135.506 62.0905C135.099 62.0162 134.865 61.7687 134.815 61.3603C134.717 60.5558 134.791 59.8504 135.025 59.2192C135.099 59.0335 134.988 58.8355 134.791 58.786C131.783 58.0929 129.81 56.9048 128.885 55.2093C128.577 54.6523 128.355 54.6895 128.22 55.2959L128.035 56.1127C127.949 58.9098 128.922 61.2613 130.957 63.1672C136.085 67.9939 143.839 65.5558 146.169 59.6152C147.18 57.0286 147.229 54.3429 146.305 51.5335C144.48 46.0014 135.481 45.036 130.796 46.942C126.025 48.885 123.264 51.9667 122.512 56.1746C121.76 60.3454 122.672 64.0583 125.249 67.3132C127.012 69.5533 128.972 70.9766 131.129 71.6078C133.977 72.437 137.429 72.6227 141.472 72.1647C144.53 71.8182 148.388 69.3924 152.333 69.937C154.466 70.234 156.032 70.692 157.03 71.3231C161.85 74.3677 166.942 76.7192 172.292 78.39C186.555 82.8454 202.865 79.8999 216.426 73.9964C217.141 73.687 217.166 72.6845 216.463 72.338C208.043 68.2167 199.746 63.5756 191.573 58.4147C191.24 58.2043 191.252 58.0187 191.635 57.8825C200.498 54.5533 207.784 50.7415 213.492 46.4221C219.101 42.1771 224.119 36.8553 228.544 30.4568C233.969 22.6103 237.408 13.1796 240.416 3.78601C240.675 2.96918 240.404 2.06571 239.738 1.52116ZM204.665 17.8949C210.829 16.6325 216.968 15.036 222.454 11.9667C223.108 11.5954 223.169 11.6697 222.627 12.2019C216.981 17.6845 211.643 23.5756 206.625 29.8999C205.972 30.7167 205.047 31.3603 203.852 31.8306L207.192 24.6152C207.365 24.2439 207.649 23.984 208.031 23.8479C209.855 23.1672 211.014 21.8924 211.495 20.0113C211.815 18.786 211.581 18.6746 210.792 19.6523C209.67 21.0632 208.869 22.338 207.316 23.6251C205.54 25.0855 204.197 26.9048 203.272 29.0707C203.112 29.4419 202.865 29.739 202.532 29.9494C201.324 30.692 200.77 31.8182 200.856 33.3281L195.974 34.9494C195.506 35.1103 195.358 34.9494 195.53 34.4915C195.912 33.4642 196.689 33.0311 197.86 33.192C198.292 33.2538 198.514 33.0558 198.526 32.6226V32.2761C198.538 31.9915 198.588 31.7068 198.686 31.4469L203.716 18.687C203.889 18.2538 204.209 17.9816 204.665 17.8949ZM222.368 16.8429L216.364 24.1821C216.155 24.442 215.785 24.4791 215.526 24.2687L215.489 24.2316C215.243 24.0212 215.206 23.6375 215.403 23.39L221.407 16.0509C221.616 15.791 221.986 15.7538 222.245 15.9642L222.282 16.0014C222.528 16.2118 222.565 16.5954 222.368 16.8429ZM158.756 58.2291C163.256 53.8726 167.607 47.6474 170.985 43.7365C177.507 36.2241 184.065 28.7489 190.685 21.3231C192.682 19.083 195.271 17.9816 198.464 18.0063C198.945 18.0187 199.068 18.2291 198.859 18.6499C198.267 19.838 197.49 20.8776 197.084 22.1152C195.949 25.6796 194.667 29.1821 193.225 32.6226C191.709 36.2489 187.209 39.9865 184.189 42.041C175.67 47.8702 167.299 53.39 159.052 58.6127C157.745 59.442 157.646 59.3058 158.756 58.2291ZM207.229 72.2266C208.253 72.7835 208.179 73.1424 207.032 73.2786C203.642 73.7118 200.326 74.1573 197.084 74.6276C195.851 74.8132 194.593 74.5162 193.582 73.7984L188.294 70.0731C185.372 68.7241 182.611 67.4618 179.985 66.2736C178.826 65.7415 177.753 64.6895 176.755 63.1177L173.241 63.2786C169.974 65.5187 166.424 66.7192 162.59 66.8801C161.456 66.9296 161.32 67.3256 162.183 68.0558C162.22 68.0929 162.639 68.1548 163.465 68.2662C164.587 68.291 165.672 68.6375 166.782 68.5261C174.425 67.734 181.945 71.3108 187.788 75.5806C188.984 76.4593 188.848 76.8306 187.369 76.6944C183.19 76.3108 178.937 75.5187 174.597 74.3429C169.087 72.8454 164.686 70.9395 161.394 68.6004L159.952 67.7217C159.545 67.4618 159.557 67.2637 160.013 67.1028L172.65 62.6226C178.283 60.9642 181.908 60.0236 183.498 59.8009C185.52 59.5162 187.517 60.0484 189.49 61.3727C195.271 65.2712 201.176 68.885 207.229 72.2266ZM201.928 48.5756L185.988 55.3702C184.694 56.0261 183.326 56.2118 181.896 55.9271L154.392 64.3306C154.195 64.3925 154.071 64.3306 154.01 64.1202L153.886 63.7489C153.837 63.6004 153.886 63.5014 154.034 63.4519C158.781 61.9791 163.182 60.1969 167.213 58.1053C169.469 56.942 172.267 55.333 175.596 53.2662C179.997 50.5434 186.445 46.3108 191.955 47.1524C195.271 47.6598 198.575 48.0063 201.867 48.2167C202.397 48.2538 202.409 48.3652 201.928 48.5756ZM217.844 36.8182C214.515 40.7415 210.57 43.6375 205.997 45.5063C205.614 45.6672 205.232 45.692 204.825 45.5929C203.186 45.2093 201.571 44.8256 199.968 44.4543C198.033 44.0088 194.692 43.786 192.091 42.7093C191.758 42.5731 191.437 42.5608 191.104 42.6845C190.969 42.734 190.821 42.7588 190.685 42.7588C190.5 42.7712 190.488 42.7093 190.624 42.5979C192.202 41.2241 193.459 40.4444 194.396 40.234C199.623 39.083 207.365 37.8083 217.634 36.4345C218.041 36.3726 218.115 36.5088 217.844 36.8182ZM234.092 9.42957C232.144 14.3677 229.999 19.0707 227.669 23.5632C226.276 26.2365 224.513 28.6004 222.393 30.6672C221.197 31.8429 219.718 32.5236 217.955 32.7217C215.822 32.9568 213.702 33.0682 211.618 33.0311C211.236 32.5731 210.915 32.4618 210.657 32.6969C210.188 33.1177 209.646 33.3776 209.017 33.4766C208.487 33.5632 208.401 33.4147 208.758 33.0063L215.218 25.9023C215.366 25.7538 215.6 25.7291 215.773 25.8652C215.884 25.9519 215.945 26.0509 215.982 26.1746C215.995 26.2241 215.982 26.2736 215.97 26.3108C214.897 28.4395 213.258 30.1103 211.063 31.3108C210.78 31.4717 210.669 31.8306 210.817 32.1276C211.076 32.6226 211.31 32.6969 211.532 32.3627C213.332 31.0385 214.897 29.4915 216.241 27.7217C218.805 24.3306 220.124 22.5979 220.198 22.5236C224.131 17.9197 227.731 11.3231 232.798 8.32809C234.314 7.42462 234.745 7.79591 234.092 9.42957Z" fill="black"/>
<path d="M223.095 24.4297C224.242 22.4991 225.401 20.6797 226.572 18.9842C227.003 18.353 227.09 18.3901 226.806 19.0956C225.968 21.2367 224.846 23.0931 223.441 24.6773C222.417 25.8283 222.306 25.754 223.095 24.4297Z" fill="black"/>
<path d="M220.371 29.1447C220.371 29.2932 220.346 29.4418 220.309 29.5903C220.248 29.813 220.112 29.9739 219.902 30.0606C218.916 30.4814 218.152 30.6918 217.622 30.6794C216.315 30.667 216.167 30.2338 217.178 29.3922C218.879 27.969 220.383 26.7561 221.678 25.7536C221.924 25.5556 222.269 25.5804 222.504 25.7908C222.972 26.2363 223.206 26.6323 223.206 26.9913C223.206 27.4244 222.997 27.6472 222.578 27.6843C221.949 27.7338 221.394 27.9195 220.901 28.2289C220.568 28.4393 220.383 28.7363 220.371 29.1447Z" fill="black"/>
<path d="M171.084 47.388C170.554 47.9078 170.024 48.3286 169.494 48.6504C169.013 48.9474 168.951 48.8731 169.284 48.4276C170.862 46.3112 172.489 44.5291 174.178 43.1058C174.486 42.8459 174.708 42.5117 174.844 42.1281C175.054 41.4474 175.436 40.9152 175.99 40.5439C176.385 40.2716 176.508 40.3707 176.36 40.8286C175.719 42.8088 174.597 44.4424 172.982 45.7172C172.403 46.1751 171.762 46.732 171.084 47.388Z" fill="black"/>
<path d="M171.294 70.8898C171.072 70.865 170.862 70.7908 170.677 70.6546C170.418 70.4814 170.431 70.3205 170.702 70.1843C171.059 70.0111 171.441 70.0606 171.848 70.3452C173.13 71.2363 174.548 71.818 176.114 72.1027C176.385 72.1398 176.447 72.2759 176.299 72.5111L176.114 72.8081C176.114 72.8081 176.077 72.8452 176.052 72.8329C174.486 72.7338 173.118 72.1893 171.959 71.1868C171.762 71.0259 171.54 70.9269 171.294 70.8898Z" fill="black"/>
<path d="M1.27908 1.52116C2.78309 0.295911 4.71858 0.234029 6.4938 1.29839C10.3401 3.61274 14.1987 6.3974 18.0574 8.04344C27.0075 11.8924 36.1794 12.7093 45.6596 14.3306C51.8482 15.3825 55.0288 19.4915 58.4313 23.5014C68.8115 35.692 79.4998 48.1796 90.5086 60.9766C97.252 68.8231 108.853 71.4345 114.548 61.1994C115.892 58.786 115.51 56.7934 113.377 55.2093C109.789 51.2736 106.079 47.2266 100.704 51.6078C96.426 55.1103 99.1875 63.2415 105.512 62.0905C105.919 62.0162 106.153 61.7687 106.202 61.3603C106.301 60.5558 106.227 59.8504 105.992 59.2192C105.919 59.0335 106.029 58.8355 106.227 58.786C109.235 58.0929 111.207 56.9048 112.132 55.2093C112.44 54.6523 112.662 54.6895 112.797 55.2959L112.982 56.1127C113.069 58.9098 112.095 61.2613 110.061 63.1672C104.932 67.9939 97.178 65.5558 94.848 59.6152C93.8371 57.0286 93.7878 54.3429 94.7124 51.5335C96.537 46.0014 105.536 45.036 110.221 46.942C114.992 48.885 117.753 51.9667 118.505 56.1746C119.257 60.3454 118.345 64.0583 115.769 67.3132C114.006 69.5533 112.045 70.9766 109.888 71.6078C107.04 72.437 103.589 72.6227 99.545 72.1647C96.4876 71.8182 92.629 69.3924 88.6841 69.937C86.5513 70.234 84.9857 70.692 83.9871 71.3231C79.1669 74.3677 74.0755 76.7192 68.7252 78.39C54.4617 82.8454 38.1519 79.8999 24.5912 73.9964C23.8762 73.687 23.8515 72.6845 24.5542 72.338C32.9742 68.2167 41.2709 63.5756 49.4443 58.4147C49.7771 58.2043 49.7648 58.0187 49.3826 57.8825C40.5189 54.5533 33.2331 50.7415 27.5252 46.4221C21.916 42.1771 16.8986 36.8553 12.4728 30.4568C7.04855 22.6103 3.60906 13.1796 0.601048 3.78601C0.342162 2.96918 0.613376 2.06571 1.27908 1.52116ZM36.352 17.8949C30.1881 16.6325 24.0488 15.036 18.5628 11.9667C17.9095 11.5954 17.8478 11.6697 18.3902 12.2019C24.0364 17.6845 29.3744 23.5756 34.3919 29.8999C35.0453 30.7167 35.9699 31.3603 37.1657 31.8306L33.8248 24.6152C33.6522 24.2439 33.3687 23.984 32.9865 23.8479C31.162 23.1672 30.0031 21.8924 29.5224 20.0113C29.2018 18.786 29.4361 18.6746 30.225 19.6523C31.3469 21.0632 32.1482 22.338 33.7015 23.6251C35.4767 25.0855 36.8205 26.9048 37.7451 29.0707C37.9053 29.4419 38.1519 29.739 38.4848 29.9494C39.6929 30.692 40.2477 31.8182 40.1614 33.3281L45.0432 34.9494C45.5117 35.1103 45.6596 34.9494 45.487 34.4915C45.1049 33.4642 44.3282 33.0311 43.157 33.192C42.7256 33.2538 42.5037 33.0558 42.4913 32.6226V32.2761C42.479 31.9915 42.4297 31.7068 42.3311 31.4469L37.3013 18.687C37.1287 18.2538 36.8082 17.9816 36.352 17.8949ZM18.6491 16.8429L24.6528 24.1821C24.8624 24.442 25.2322 24.4791 25.4911 24.2687L25.5281 24.2316C25.7747 24.0212 25.8117 23.6375 25.6144 23.39L19.6107 16.0509C19.4011 15.791 19.0313 15.7538 18.7724 15.9642L18.7354 16.0014C18.4889 16.2118 18.4519 16.5954 18.6491 16.8429ZM82.2612 58.2291C77.7615 53.8726 73.4098 47.6474 70.0319 43.7365C63.5104 36.2241 56.952 28.7489 50.3319 21.3231C48.3348 19.083 45.7459 17.9816 42.553 18.0063C42.0722 18.0187 41.9489 18.2291 42.1585 18.6499C42.7502 19.838 43.5269 20.8776 43.9337 22.1152C45.0679 25.6796 46.35 29.1821 47.7923 32.6226C49.3087 36.2489 53.8084 39.9865 56.8287 42.041C65.3473 47.8702 73.718 53.39 81.9654 58.6127C83.2721 59.442 83.3707 59.3058 82.2612 58.2291ZM33.7878 72.2266C32.7646 72.7835 32.8386 73.1424 33.9851 73.2786C37.3752 73.7118 40.6915 74.1573 43.9337 74.6276C45.1665 74.8132 46.4239 74.5162 47.4348 73.7984L52.7235 70.0731C55.6452 68.7241 58.4067 67.4618 61.0325 66.2736C62.1914 65.7415 63.2639 64.6895 64.2624 63.1177L67.7759 63.2786C71.0428 65.5187 74.5932 66.7192 78.4272 66.8801C79.5614 66.9296 79.697 67.3256 78.8341 68.0558C78.7971 68.0929 78.3779 68.1548 77.5519 68.2662C76.4301 68.291 75.3453 68.6375 74.2357 68.5261C66.5924 67.734 59.0724 71.3108 53.229 75.5806C52.0331 76.4593 52.1688 76.8306 53.6481 76.6944C57.8273 76.3108 62.0804 75.5187 66.4198 74.3429C71.9304 72.8454 76.3315 70.9395 79.623 68.6004L81.0654 67.7217C81.4722 67.4618 81.4599 67.2637 81.0038 67.1028L68.3676 62.6226C62.7338 60.9642 59.1094 60.0236 57.5191 59.8009C55.4973 59.5162 53.5002 60.0484 51.5277 61.3727C45.7459 65.2712 39.8408 68.885 33.7878 72.2266ZM39.0888 48.5756L55.0288 55.3702C56.3233 56.0261 57.6917 56.2118 59.1217 55.9271L86.6253 64.3306C86.8226 64.3925 86.9458 64.3306 87.0075 64.1202L87.1307 63.7489C87.1801 63.6004 87.1308 63.5014 86.9828 63.4519C82.2366 61.9791 77.8355 60.1969 73.8043 58.1053C71.5482 56.942 68.7498 55.333 65.4213 53.2662C61.0202 50.5434 54.5727 46.3108 49.0621 47.1524C45.7459 47.6598 42.442 48.0063 39.1505 48.2167C38.6204 48.2538 38.608 48.3652 39.0888 48.5756ZM23.1735 36.8182C26.502 40.7415 30.447 43.6375 35.0206 45.5063C35.4028 45.6672 35.7849 45.692 36.1918 45.5929C37.8314 45.2093 39.4463 44.8256 41.049 44.4543C42.9844 44.0088 46.3253 43.786 48.9265 42.7093C49.2594 42.5731 49.5799 42.5608 49.9127 42.6845C50.0484 42.734 50.1963 42.7588 50.3319 42.7588C50.5168 42.7712 50.5291 42.7093 50.3935 42.5979C48.8156 41.2241 47.5581 40.4444 46.6212 40.234C41.3941 39.083 33.6522 37.8083 23.3831 36.4345C22.9762 36.3726 22.9023 36.5088 23.1735 36.8182ZM6.92527 9.42957C8.87309 14.3677 11.0181 19.0707 13.3481 23.5632C14.7412 26.2365 16.5041 28.6004 18.6245 30.6672C19.8203 31.8429 21.2996 32.5236 23.0625 32.7217C25.1953 32.9568 27.3157 33.0682 29.3991 33.0311C29.7812 32.5731 30.1018 32.4618 30.3607 32.6969C30.8291 33.1177 31.3715 33.3776 32.0003 33.4766C32.5304 33.5632 32.6167 33.4147 32.2592 33.0063L25.7993 25.9023C25.6514 25.7538 25.4172 25.7291 25.2446 25.8652C25.1336 25.9519 25.072 26.0509 25.035 26.1746C25.0227 26.2241 25.035 26.2736 25.0473 26.3108C26.1199 28.4395 27.7595 30.1103 29.9538 31.3108C30.2374 31.4717 30.3483 31.8306 30.2004 32.1276C29.9415 32.6226 29.7073 32.6969 29.4854 32.3627C27.6855 31.0385 26.1199 29.4915 24.7761 27.7217C22.2119 24.3306 20.8928 22.5979 20.8188 22.5236C16.8862 17.9197 13.2865 11.3231 8.21971 8.32809C6.70337 7.42462 6.27189 7.79591 6.92527 9.42957Z" fill="black"/>
<path d="M17.9218 24.4297C16.7753 22.4991 15.6165 20.6797 14.4453 18.9842C14.0138 18.353 13.9275 18.3901 14.2111 19.0956C15.0494 21.2367 16.1712 23.0931 17.5766 24.6773C18.5998 25.8283 18.7108 25.754 17.9218 24.4297Z" fill="black"/>
<path d="M20.6462 29.1447C20.6462 29.2932 20.6709 29.4418 20.7079 29.5903C20.7695 29.813 20.9051 29.9739 21.1147 30.0606C22.1009 30.4814 22.8652 30.6918 23.3953 30.6794C24.7021 30.667 24.85 30.2338 23.8391 29.3922C22.1379 27.969 20.6339 26.7561 19.3395 25.7536C19.0929 25.5556 18.7477 25.5804 18.5135 25.7908C18.045 26.2363 17.8108 26.6323 17.8108 26.9913C17.8108 27.4244 18.0204 27.6472 18.4395 27.6843C19.0682 27.7338 19.623 27.9195 20.1161 28.2289C20.449 28.4393 20.6339 28.7363 20.6462 29.1447Z" fill="black"/>
<path d="M69.9333 47.388C70.4634 47.9078 70.9935 48.3286 71.5236 48.6504C72.0044 48.9474 72.066 48.8731 71.7332 48.4276C70.1552 46.3112 68.5279 44.5291 66.839 43.1058C66.5308 42.8459 66.3089 42.5117 66.1733 42.1281C65.9637 41.4474 65.5815 40.9152 65.0268 40.5439C64.6323 40.2716 64.509 40.3707 64.657 40.8286C65.298 42.8088 66.4198 44.4424 68.0348 45.7172C68.6142 46.1751 69.2553 46.732 69.9333 47.388Z" fill="black"/>
<path d="M69.7237 70.8898C69.9456 70.865 70.1552 70.7908 70.3401 70.6546C70.599 70.4814 70.5867 70.3205 70.3155 70.1843C69.9579 70.0111 69.5758 70.0606 69.169 70.3452C67.8869 71.2363 66.4691 71.818 64.9035 72.1027C64.6323 72.1398 64.5706 72.2759 64.7186 72.5111L64.9035 72.8081C64.9035 72.8081 64.9405 72.8452 64.9651 72.8329C66.5308 72.7338 67.8992 72.1893 69.058 71.1868C69.2553 71.0259 69.4772 70.9269 69.7237 70.8898Z" fill="black"/>
</g>
<defs>
<clipPath id="clip0_2215_94">
<rect width="240" height="80" fill="white" transform="translate(0.502441 0.542969)"/>
</clipPath>
</defs>
</svg>
