<svg width="75" height="160" viewBox="0 0 75 160" fill="none" xmlns="http://www.w3.org/2000/svg">
<g clip-path="url(#clip0_2071_116)">
<path d="M70.3559 103.028C67.6099 101.518 64.3725 100.866 60.6533 101.074C55.6045 101.348 50.9507 101.773 46.6823 102.339C45.0925 102.556 44.9287 102.169 46.1813 101.197C49.438 98.6473 52.7717 95.8903 56.1922 92.9256C60.3931 89.2811 62.8212 87.5721 64.0738 83.3517C65.4805 78.6402 64.0352 74.3442 59.0346 72.7108C49.438 69.5478 43.4738 78.2626 39.9377 85.4572C39.851 85.646 39.5812 85.9293 39.1476 86.3164C38.9068 86.5241 38.743 86.779 38.6562 87.0812C37.8758 89.7626 37.0761 92.5291 36.2474 95.371C35.5537 97.7315 34.8407 97.7692 34.0988 95.4749C33.8965 94.8234 34.1181 93.6904 34.7636 92.0759C36.5269 87.676 38.8971 83.871 40.4484 79.6316C43.5894 71.0207 47.6555 64.4493 51.5481 56.8959C53.2631 53.5629 55.0167 48.6155 52.8777 45.0842C48.6383 38.0596 39.2729 40.2784 36.7967 47.2181C35.1394 51.8634 33.6941 57.8684 32.4608 65.2235C32.2681 66.3848 31.8924 67.5651 31.3335 68.7642C31.1119 69.2268 30.9867 69.2079 30.9385 68.6886C30.6013 64.5059 30.5916 60.2477 30.9288 55.9045C31.4491 49.2008 34.6962 44.8954 38.3961 39.4853C39.9473 37.2287 42.2791 32.4889 45.4008 25.2471C47.7904 19.7237 51.8757 5.17393 44.7167 1.12342C39.0609 -2.06789 34.4457 2.02983 32.7017 7.07173C31.6033 10.2725 30.5338 13.5016 29.4836 16.7495C29.3776 17.0611 29.1752 17.1461 28.8766 17.0045C28.549 16.8534 28.2503 16.6551 27.9805 16.4191C24.9647 13.7659 20.8023 14.559 18.3839 17.401C10.8203 26.2479 20.0797 38.1729 25.2056 45.5186C25.774 46.3305 26.0727 47.4824 25.9475 48.4077C25.0803 55.1208 25.1959 61.7773 26.2943 68.3959C26.3714 68.868 26.2558 68.9152 25.9571 68.5376C25.485 67.9333 25.1381 67.2535 24.9165 66.4887C23.8759 62.9197 21.8911 55.5835 18.9716 44.4894C17.6709 39.5325 14.6069 36.4734 9.78933 35.312C5.19336 34.2073 1.84033 39.1643 1.5031 42.9693C1.01171 48.5116 2.32209 54.3372 5.45351 60.446C6.56155 62.5987 9.20159 66.0921 13.3929 70.9263C16.2738 74.2498 19.1065 77.63 21.9007 81.0668C23.7603 83.3611 24.9936 85.24 25.5813 86.7129C26.4581 88.894 26.8821 91.1317 26.8339 93.426C26.8339 94.1058 26.6412 94.153 26.2943 93.5582C21.7947 85.8821 16.5532 78.8574 10.5698 72.5031C8.26698 70.0577 5.77147 69.8027 3.0929 71.7477C-1.64759 75.194 -0.250495 82.5397 2.72677 86.6468C7.01441 92.5668 12.6702 97.5993 19.7039 101.754C20.7927 102.405 20.706 102.707 19.4245 102.679C16.0329 102.594 4.43219 101.98 2.40881 105.748C2.07158 106.371 1.89814 107.041 1.88851 107.768C1.74398 116.766 2.47625 126.142 4.08532 135.895C4.94285 141.116 5.81965 146.338 6.71572 151.559C7.09149 153.731 7.71777 155.827 8.61384 157.838C9.60626 160.057 13.4411 160.151 15.4837 159.896C21.2166 159.197 27.3831 159.481 32.509 159.008C38.9935 158.423 45.3719 158.008 51.6637 157.772C54.6024 157.658 56.1922 156.129 56.4524 153.183C57.1654 145.082 58.0133 136.131 58.9864 126.34C59.0442 125.755 59.4971 125.283 60.0848 125.198C67.4075 124.074 74.8073 122.526 75 114.028C75.0964 109.996 74.2677 105.162 70.3559 103.028ZM55.325 84.7585L55.9417 78.6402C55.9995 78.0171 56.4716 77.5072 57.1075 77.3939C57.387 77.3467 57.6664 77.3467 57.9458 77.4034C59.0538 77.6111 59.5356 78.2626 59.4007 79.3578C59.1598 81.3123 58.0229 83.6821 56.6065 85.2967C55.6045 86.4297 55.1805 86.2503 55.325 84.7585ZM32.4801 29.2882C33.7327 23.321 34.8985 17.4199 36.6907 11.5754C37.317 9.53603 38.2901 7.66656 39.6101 5.97648C40.2557 5.14561 41.5082 5.07008 42.2501 5.82542C47.3182 10.9428 36.5076 31.8091 33.4822 37.172C32.3934 39.1076 31.8249 38.966 31.7671 36.7566C31.7093 34.349 31.9502 31.8563 32.4801 29.2882ZM23.9048 74.552L23.7314 74.8163C23.6832 74.8824 23.6447 74.8824 23.5965 74.8163C21.5153 72.0499 19.7232 69.5006 17.1217 66.8192C12.7955 62.3343 9.6448 57.1225 7.6696 51.1742C6.59046 47.9356 6.01235 43.6774 8.33442 41.3359C9.05706 40.6088 10.2615 40.6466 10.9359 41.4114C12.4679 43.1392 13.5085 45.0654 14.0577 47.1897C16.4376 56.5465 19.0102 65.7806 23.9145 74.3159C23.9626 74.4009 23.953 74.4764 23.9048 74.552ZM26.2462 36.7944C26.1402 37.8046 25.8415 37.8707 25.3405 36.9738C23.5869 33.8485 22.209 30.865 21.207 28.0041C20.4458 25.8419 20.4265 21.2816 23.5001 20.5262C23.8374 20.4413 24.165 20.4885 24.4637 20.6679C25.8704 21.5082 26.6123 22.6978 26.6797 24.2463C26.8532 28.108 26.7087 32.2907 26.2462 36.7944ZM49.7848 78.6686C50.4978 77.8471 50.7773 77.9699 50.6135 79.0368C50.2762 81.3406 50.0643 83.871 49.9679 86.6374C49.8234 90.7823 46.0946 94.1153 42.5681 95.777C42.2501 95.9281 41.884 95.7109 41.8744 95.371C41.6913 89.9137 46.0657 82.974 49.7848 78.6686ZM33.2509 77.5356C35.7175 70.6808 37.606 63.6751 38.9164 56.5088C39.5041 53.3269 42.0382 45.7357 46.48 46.5949C47.8 46.8498 48.6575 48.0867 48.4263 49.3802C47.9831 51.8068 47.1641 54.12 45.9693 56.3199C41.7588 64.0716 38.2227 71.7289 35.361 79.2728C34.9467 80.3492 34.4553 81.4161 33.8868 82.4736C32.8173 84.428 32.3259 84.3053 32.3934 82.0865C32.4416 80.6608 32.7499 78.9424 33.2509 77.5356ZM6.51338 82.0959C5.82928 81.0573 5.49205 79.7544 5.48242 78.187C5.48242 77.7999 5.5595 77.4222 5.70403 77.054C6.16651 75.8738 6.8217 75.7605 7.6696 76.7141C12.0247 81.5955 15.6186 86.373 18.4513 91.0656C19.7135 93.1522 21.0046 95.1728 22.3343 97.1366C22.5655 97.4765 22.5077 97.5426 22.1512 97.3255C15.8306 93.4638 10.618 88.3936 6.51338 82.0959ZM50.0546 153.202C45.8152 153.608 41.6046 153.391 37.5578 153.863C34.4553 154.221 31.4588 154.401 28.5682 154.401C24.5311 154.401 20.5133 154.561 16.5339 154.892C15.4452 154.977 14.4913 154.665 13.6819 153.948C12.6991 153.07 12.8726 152.645 14.1926 152.673C24.4733 152.9 34.542 151.87 44.7457 151.672C45.5839 151.653 47.3279 151.531 49.9583 151.313C50.4786 151.276 50.7484 151.512 50.7773 152.022L50.7965 152.361C50.8254 152.881 50.5749 153.155 50.0546 153.202ZM53.928 130.683C53.899 132.392 53.5618 134.111 52.9259 135.848C52.4152 137.264 52.8488 138.671 52.7621 139.785C52.5887 141.985 52.2033 144.081 51.6155 146.083C51.471 146.574 51.0374 146.923 50.5267 146.98C48.2239 147.253 45.8537 147.225 43.628 147.508C37.8662 148.245 31.3721 148.207 26.3232 148.538C21.7273 148.84 17.2373 148.991 12.834 148.981C12.2078 148.981 11.8223 148.679 11.6778 148.084C9.12451 137.698 7.55398 126.038 6.9855 113.112C6.91806 111.545 7.09149 110.195 7.51544 109.071C7.63106 108.759 7.85267 108.58 8.1899 108.523C10.4638 108.165 12.5257 107.976 14.366 107.966C27.0266 107.881 38.2034 107.655 47.906 107.277C49.4572 107.211 51.2012 107.069 53.1379 106.833C53.4751 106.786 53.6678 106.937 53.716 107.268C54.0725 109.722 54.2266 112.036 54.1977 114.207C54.1303 119.75 54.0339 125.235 53.928 130.683ZM65.7888 118.89C63.7847 119.532 62.0022 119.655 60.0077 120.042C59.6512 120.108 59.4874 119.976 59.5163 119.627C59.6223 118.211 60.1426 117.257 61.0869 116.775C62.7634 115.916 64.1797 114.991 65.3456 114.009C67.9567 111.819 65.3649 109.175 62.7056 109.203C62.3876 109.203 62.0986 109.298 61.8384 109.496C61.2314 109.977 60.7978 110.412 60.5184 110.808C59.7668 111.894 59.3622 111.781 59.314 110.468C59.2851 109.59 59.3911 108.495 59.6416 107.173C59.8054 106.276 60.345 105.814 61.2603 105.795C64.3628 105.748 66.9643 105.936 68.6601 108.316C70.9436 111.507 70.3077 117.436 65.7888 118.89Z" fill="black"/>
<path d="M51.0375 126.048L50.2763 128.125C50.0933 128.616 49.6019 128.927 49.0719 128.871C46.2585 128.587 43.3872 128.314 40.5448 128.38C30.6881 128.597 21.342 129.182 11.649 129.399C10.7722 129.428 10.3386 129.003 10.3386 128.144V127.152C10.3386 126.557 10.8011 126.057 11.3985 126C22.4596 124.915 33.7713 124.858 44.8517 125C46.6342 125.018 48.5131 125.094 50.4883 125.226C51.0375 125.255 51.2206 125.528 51.0375 126.048Z" fill="black"/>
<path d="M29.9943 142.127L27.6241 138.992C26.5835 137.614 26.6413 135.716 27.7686 134.403L29.5993 132.27C31.1987 130.4 34.1567 130.523 35.5923 132.515L37.9722 135.81C38.9935 137.236 38.8683 139.162 37.6735 140.446L35.8332 142.419C34.2241 144.147 31.4107 144.006 29.9943 142.127Z" fill="black"/>
<path d="M42.6162 138.615C41.8068 136.585 41.4021 135.291 42.9149 133.431C44.6299 131.326 46.9713 130.24 49.5631 131.571C51.1529 132.402 51.1625 134.677 51.8274 136.179C51.943 136.452 51.9334 136.755 51.7985 137.01C50.411 139.7 49.8522 143.543 45.6031 142.495C43.5797 141.995 43.3003 140.361 42.6162 138.615Z" fill="black"/>
<path d="M19.9834 143.855C17.2085 144.836 14.0096 143.024 12.8341 139.813C11.649 136.603 12.9401 133.214 15.715 132.232C18.49 131.25 21.6888 133.063 22.8643 136.273C24.0494 139.483 22.7583 142.873 19.9834 143.855Z" fill="black"/>
</g>
<defs>
<clipPath id="clip0_2071_116">
<rect width="75" height="160" fill="white"/>
</clipPath>
</defs>
</svg>
