<svg width="698" height="726" viewBox="0 0 698 726" fill="none" xmlns="http://www.w3.org/2000/svg">
<g clip-path="url(#clip0_208_135)">
<path fill-rule="evenodd" clip-rule="evenodd" d="M251.383 246.978C210.811 246.978 219.969 264.297 231.666 286.41C168.404 286.41 148.518 304.371 128.818 322.164C116.531 333.262 104.316 344.295 81.692 350.862C69.9169 354.277 55.1317 353.867 41.3873 353.487C19.3566 352.877 0 352.341 0 367.744C0 395.272 51.6717 420.944 74.1989 429.059C121.411 446.147 156.48 449.046 211.958 449.046C218.476 449.046 221.191 448.431 223.922 447.812C226.384 447.255 228.859 446.694 234.143 446.577C233.565 449.095 232.759 451.434 231.965 453.735C230.569 457.78 229.214 461.71 229.214 466.294C229.214 484.943 253.254 481.057 263.717 478.62C262.609 483.379 261.536 487.779 260.531 491.904L260.53 491.909C252.417 525.197 248.655 540.631 265.127 583.182C287.001 639.697 278.284 658.807 269.849 677.299C265.516 686.798 261.257 696.135 261.257 710.295C261.257 717.254 271.529 725.082 278.505 725.082C303.723 725.082 335.559 691.534 351.692 672.574C382.238 636.661 407.919 572.973 418.987 525.442C420.835 526.68 422.585 528.079 424.313 529.46C430.166 534.138 435.765 538.614 444.047 535.946C455.927 532.107 458.42 523.412 458.42 508.195C512.728 544.56 542.262 541.852 568.869 539.413C589.53 537.519 608.426 535.786 635.787 552.636C643.311 557.275 648.375 562.31 653.343 567.249C656.971 570.857 660.548 574.413 664.995 577.727C671.365 582.441 677.513 584.177 683.31 582.688C692.069 580.427 696.234 574.239 697.492 566.157V553.52C694.944 532.02 681.646 505.742 677.815 498.329C669.231 481.715 656.273 466.204 644.178 451.726C643.64 451.083 643.105 450.441 642.571 449.802C631.957 437.125 620.554 427.296 608.518 416.921L608.515 416.918C605.545 414.358 602.536 411.765 599.492 409.088L549.643 375.133C550.256 374.299 551.873 373.071 553.94 371.502C562.627 364.906 579.261 352.274 562.679 337.461C558.267 333.519 556.667 333.412 555.437 333.329C554.106 333.24 553.208 333.18 549.643 328.311C557.336 326.257 566.915 317.346 572.513 311.748C596.683 287.568 603.428 263.543 609.792 240.876C617.715 212.655 625.048 186.539 664.677 164.848C668.737 162.623 672.082 160.96 674.837 159.59C686.877 153.604 687.658 153.215 687.658 136.069C687.658 104.305 593.233 119.921 553.721 137.662C531.679 147.568 516.295 154.886 497.383 167.587C495.255 169.015 493.209 170.374 491.215 171.698L491.214 171.699C484.315 176.28 478.036 180.451 471.105 185.671C467.612 188.294 464.328 190.977 461.086 193.627C456.197 197.621 451.404 201.539 446.133 205.053C446.133 184.492 440.288 177.979 426.417 177.979C416.568 177.979 414.398 181.096 411.596 185.121C409.937 187.504 408.057 190.205 404.232 192.766C401.786 187.668 399.826 182.627 397.856 177.559C392.951 164.941 387.982 152.156 375.279 137.925C359.029 119.682 344.043 110.762 330.675 102.805C307.144 88.7985 288.629 77.7783 277.071 24.142C274.173 10.7722 268.79 3.03222 262.411 0.5H252.545C234.055 7.10926 213.71 48.9944 219.157 118.989C221.179 144.9 223.863 164.434 230.225 186.786C230.899 189.153 231.541 191.463 232.17 193.729L232.171 193.734C234.426 201.854 236.524 209.413 239.406 217.045C240.197 219.133 241.04 221.445 241.923 223.87C244.765 231.673 248.028 240.631 251.351 246.962L251.383 246.978ZM324.053 121.537C350.219 138.148 377.269 155.332 388.656 213.414C378.58 226.283 371.239 241.075 367.085 256.883C363.199 271.647 362.036 287.135 362.737 303.801C362.45 303.485 362.161 303.17 361.87 302.857C351.521 243.134 343.642 226.409 325.812 188.56L325.026 186.891C319.627 175.425 313.293 161.971 305.698 144.685C300.992 133.999 295.721 123.87 290.521 113.901L290.517 113.894C282.187 97.8969 274.062 82.2945 269.133 65.8765C282.414 95.0943 302.98 108.155 324.029 121.522L324.053 121.537ZM257.726 25.9665C254.615 60.0323 269.095 87.8839 284.21 116.957L284.463 117.444L284.464 117.445C289.572 127.258 294.757 137.221 299.288 147.504C306.87 164.737 313.254 178.317 318.703 189.908L319.466 191.532C336.029 226.671 343.872 243.325 353.262 294.464C334.812 278.14 311 266.509 292.591 263.787C287.878 262.956 283.257 261.67 278.791 259.949C270.304 243.643 263.074 226.712 257.164 209.305C236.882 150.14 230.01 84.4057 245.243 42.5364L246.04 40.4581C248.723 33.5303 252.53 24.9702 256.336 19.6111C256.903 21.7056 257.367 23.8266 257.726 25.9665ZM525.755 321.989C575.107 294.678 583.48 264.494 591.6 235.224L591.608 235.192C599.267 207.599 606.718 180.772 640.749 157.231C620.781 167.21 604.726 183.143 588.141 199.602L588.129 199.614L587.242 200.491C579.486 208.173 571.598 215.984 563.244 223.256C547.955 236.562 536.791 246.786 527.315 255.474L527.31 255.479C496.886 283.355 483.196 295.899 431.175 322.692C431.19 322.731 431.204 322.77 431.218 322.809C445.552 317.673 459.495 314.416 473.565 313.548C490.67 312.497 507.806 315.005 525.755 321.989ZM433.012 313.822C443.289 290.884 447.149 263.899 443.999 245.178C443.479 241.753 443.245 238.29 443.298 234.826C457.169 220.903 472.169 208.153 488.146 196.707C538.75 160.189 599.516 134.541 644.06 136.826L646.139 136.961C653.664 137.511 663.195 138.657 669.47 140.736C669.323 140.827 669.175 140.917 669.027 141.007C631.728 146.483 608.037 169.999 583.2 194.653L583.006 194.845C575.193 202.595 567.266 210.458 558.642 217.961C544.469 230.279 533.072 240.72 523.353 249.625L523.346 249.632L522.601 250.314C493.711 276.829 480.168 289.19 433.012 313.822ZM459.885 483.151C502.089 522.966 533.829 521.445 564.55 519.964C592.312 518.624 619.361 517.321 651.122 540.073C635.819 525.64 616.732 515.901 597.049 505.859L597.039 505.854L596.712 505.687L596.711 505.686C586.839 500.644 576.814 495.523 566.82 489.561C550.097 479.608 536.56 471.987 524.998 465.505C488.201 444.842 472.121 435.811 428.207 392.202C428.035 392.166 427.863 392.131 427.691 392.095C438.25 405.425 446.539 418.89 452.113 433.406C458.191 449.25 460.848 466.2 459.909 483.143L459.885 483.151ZM439.958 394.013C464.994 396.63 491.934 391.881 508.77 382.945C511.87 381.373 515.095 380.063 518.413 379.027C535.977 387.84 552.783 398.089 568.659 409.669C619.28 446.33 662.75 496.083 674.447 539.131L674.893 540.914C676.733 548.232 678.628 557.645 678.628 564.27C678.183 563.899 677.743 563.523 677.309 563.142C660.32 530.289 630.954 515.305 600.177 499.603L599.977 499.501C590.048 494.429 579.974 489.284 570.363 483.557C553.115 473.285 539.738 465.768 528.382 459.398L528.308 459.356C494.126 440.158 478.076 431.143 439.958 394.013ZM285.622 583.56C274.562 554.767 263.137 525.026 288.012 472.154L288.02 472.146C304.199 467.751 319.28 460.021 332.294 449.452C344.135 439.833 354.216 428.016 363.477 414.136C363.511 414.451 363.546 414.765 363.582 415.08C336.355 469.55 332.767 487.673 324.674 528.827L324.632 529.041L324.631 529.043L324.63 529.049C322.075 542.012 319.068 557.274 314.864 576.079C312.331 587.426 310.572 598.702 308.836 609.85C305.65 630.33 302.55 650.229 294.799 668.334C304.662 633.07 295.267 608.635 285.623 583.564L285.622 583.56ZM280.606 702.791C280.164 703.768 279.748 704.757 279.357 705.756C285.663 703.685 294 698.94 300.355 694.91L301.908 693.915C339.126 669.301 372.778 612.422 391.698 552.867C397.453 534.944 401.79 516.597 404.67 497.994C402.269 494.365 399.539 490.963 396.516 487.833C383.175 474.656 370.741 451.051 365.528 426.86C342.642 473.787 339.086 491.857 331.588 529.957L331.387 530.977L331.386 530.981V530.985L331.385 530.988C328.905 543.546 325.985 558.33 321.688 577.552C319.203 588.7 317.459 599.848 315.747 610.885C310.512 644.513 305.505 676.634 280.606 702.791ZM278.926 421.327C286.093 406.93 302.752 390.192 321.927 379.426L321.943 379.417C322.423 379.149 322.903 378.881 323.387 378.62L323.862 378.359L323.885 378.383C325.702 385.169 328.829 391.534 333.091 397.119C336.591 401.817 340.946 405.812 345.927 408.897C338.41 419.463 330.367 428.509 321.242 435.923C305.077 449.054 285.146 457.248 258.286 459.907H258.079C253.5 460.342 250.825 461.938 249.411 462.782C248.521 463.313 248.13 463.546 248.078 463.005C247.943 461.603 253.851 454.596 260.452 446.768C267.253 438.702 274.642 429.927 278.926 421.327ZM244.861 306.055C186.501 298.825 161.776 319.066 137.839 338.663C117.835 355.061 98.2923 371.061 64.1059 373.681C82.4439 374.678 101.019 371.628 120.097 368.493L120.273 368.464L120.276 368.463C131.31 366.649 142.512 364.808 154.083 363.715C173.298 361.836 188.826 359.916 202.02 358.284L202.049 358.281C243.59 353.144 261.883 350.882 322.065 359.728C322.35 359.596 322.636 359.465 322.922 359.335V359.248C306.916 354.748 292.607 348.848 279.819 340.59C265.913 331.608 254.012 319.85 244.861 306.055ZM311.479 365.25C290.139 377.723 271.595 396.822 263.271 413.539C261.127 417.575 258.604 421.398 255.738 424.958C237.392 427.98 218.838 429.578 200.245 429.736C137.735 430.42 73.1557 416.318 38.1187 388.679L36.6853 387.524C30.8564 382.754 23.7296 376.32 19.7959 371.001C21.3818 371.089 22.964 371.231 24.5399 371.425C56.557 386.018 88.0714 380.853 121.042 375.448L121.26 375.412C132.289 373.581 143.493 371.741 154.776 370.635C174.711 368.693 189.765 366.83 202.559 365.247L202.904 365.204L202.914 365.203C241.538 360.435 259.809 358.179 311.479 365.25ZM425.126 373.469C430.386 374.95 435.762 375.981 441.196 376.551C463.086 378.94 486.37 375.014 500.591 367.473C509.152 362.926 520.212 360.107 530.381 357.519L531.014 357.358C540.694 354.892 549.236 352.716 549.906 351.531C550.172 351.062 549.714 351.021 548.675 350.929C547.036 350.784 543.949 350.51 539.976 348.219C516.509 334.682 495.463 329.737 474.592 331.019C461.167 331.815 447.638 335.255 433.464 340.622C433.278 344.591 432.85 348.546 432.182 352.463C431.151 358.534 429.333 364.444 426.775 370.045C426.244 371.181 425.694 372.312 425.126 373.437V373.469ZM382.286 421.526C381.464 417.422 380.898 413.27 380.59 409.096C384.67 407.895 388.653 406.382 392.502 404.573C397.867 402.049 402.904 398.883 407.505 395.145C420.182 409.828 429.881 424.233 435.797 439.658C443.242 459.143 444.835 480.699 438.982 507.175C437.99 511.625 438.664 514.658 439.024 516.276C439.253 517.308 439.354 517.765 438.815 517.647C437.429 517.344 432.596 509.548 427.205 500.853C421.655 491.879 415.619 482.14 408.755 475.371C397.312 464.104 386.578 443.105 382.286 421.526ZM343.164 308.969C347.18 312.621 350.882 316.603 354.233 320.874L354.201 320.85C347.943 324.138 342.175 328.285 337.064 333.169C334.093 336.06 331.466 339.285 329.237 342.78C314.163 338.671 300.857 333.32 289.255 325.827C271.728 314.512 257.729 298.068 246.852 273.271C245.002 269.06 242.648 267.011 241.4 265.925C240.612 265.239 240.266 264.938 240.768 264.719C242.066 264.154 250.571 267.594 260.07 271.44C269.817 275.39 280.44 279.682 289.995 281.099C305.905 283.488 326.967 294.087 343.164 308.969ZM416.423 308.149L416.797 307.353C425.891 287.326 429.442 263.994 426.775 248.148C425.212 238.815 425.95 227.649 426.633 217.322L426.671 216.742L426.676 216.673C427.383 206.46 428.015 197.326 427.085 196.293C426.725 195.892 426.544 196.313 426.134 197.269C425.485 198.781 424.26 201.634 420.834 204.694C400.632 222.73 389.341 241.157 384.022 261.359C380.04 276.393 379.339 292.621 380.677 310.546C381.824 310.227 383.01 309.909 384.229 309.59L384.571 309.463C397.264 306.174 408.022 305.25 416.423 308.149ZM406.103 377.379C397.225 388.113 383.019 396.538 362.02 398.282C351.023 399.198 332.494 378.414 338.283 357.512C341.03 347.574 349.28 337.596 366.44 329.912C372.636 327.199 379.047 325.007 385.607 323.358C409.503 317.179 422.722 321.344 417.594 352.129C416.053 361.41 412.089 370.12 406.103 377.379Z" fill="#6C2C00"/>
</g>
<defs>
<clipPath id="clip0_208_135">
<rect width="698" height="725" fill="white" transform="translate(0 0.5)"/>
</clipPath>
</defs>
</svg>
