<svg width="165" height="160" viewBox="0 0 165 160" fill="none" xmlns="http://www.w3.org/2000/svg">
<g clip-path="url(#clip0_2119_1164)">
<path d="M163.986 73.3069C152.083 73.3173 139.93 73.8166 127.536 74.8047C127.442 74.8151 127.4 74.7735 127.389 74.6799L127.358 74.4094C127.348 74.295 127.4 74.2326 127.515 74.2222C139.668 73.1925 151.592 71.1539 163.276 68.1064C164.425 67.8048 164.916 67.0767 164.739 65.9221C164.645 65.2981 164.039 64.8716 163.412 64.9965C157.758 66.1094 152 66.9103 146.137 67.4095C141.664 67.7839 133.983 68.7408 123.084 70.2802C122.875 70.3114 122.687 70.1762 122.645 69.9682L122.582 69.6145C122.551 69.4065 122.634 69.2817 122.833 69.2401C126.992 68.3976 131.131 67.4303 135.248 66.359C139.334 65.2877 143.483 64.9652 147.705 64.6116C148.739 64.518 149.899 64.0708 151.206 63.2491C151.53 63.0515 151.571 62.7914 151.352 62.4898C150.934 61.8969 150.244 61.6993 149.272 61.9177C146.336 62.5626 143.41 63.2283 140.504 63.9251C140.452 63.9355 140.431 63.9251 140.421 63.8731L140.358 63.6131C140.327 63.4571 140.421 63.3011 140.578 63.2595C143.117 62.625 145.228 61.6785 146.91 60.42C148.175 59.4735 149.607 58.7454 151.195 58.2461C154.09 57.3413 157.068 56.426 160.109 55.5003C161.259 55.157 161.823 54.6162 161.813 53.8673C161.792 53.1288 161.154 52.5672 160.423 52.64C158.186 52.8688 156.222 53.2224 154.518 53.7009C143.702 56.7692 133.064 60.4408 122.624 64.7156C122.112 64.9236 121.61 64.8924 121.119 64.6324C120.9 64.518 120.722 64.4244 120.607 64.362C120.095 64.0812 120.105 63.8315 120.628 63.5923C129.667 59.5255 137.881 55.8435 145.291 52.5255C147.726 51.4334 153.003 49.0828 153.118 46.4513C153.128 46.0873 152.972 45.9625 152.627 46.0769C146.942 47.8555 141.842 50.0189 137.328 52.5672C135.603 53.5449 134.077 54.2833 132.771 54.7722C129.061 56.1659 125.435 58.1213 121.777 59.7231C121.443 59.8687 121.38 59.7959 121.6 59.5047C123.397 57.1436 129.249 55.1882 132.04 53.8881C134.391 52.796 137.171 51.2358 140.389 49.1868C144.141 46.8049 148.165 44.5791 152.46 42.4989C153.233 42.1245 153.682 41.4276 153.818 40.4083C153.829 40.3043 153.829 40.2003 153.818 40.1066C153.735 39.3578 152.919 38.9313 152.251 39.2746C144.946 43.0502 137.411 46.8361 129.563 50.0917C124.808 52.0575 120.294 54.481 116.04 57.3621C115.758 57.5597 115.403 57.5909 115.089 57.4557L114.692 57.2892C114.525 57.2164 114.494 56.9876 114.64 56.8732C120.011 52.7232 125.55 49.2492 131.256 46.4513C137.213 43.539 142.908 39.597 148.687 36.279C150.474 35.2493 150.349 34.5837 148.311 34.282C147.882 34.2196 147.088 34.4797 145.928 35.0517C139.815 38.068 133.806 41.2716 127.891 44.6623C127.358 44.964 126.773 45.0992 126.146 45.068C125.655 45.0368 125.634 44.9327 126.093 44.7559C127.64 44.1943 129.009 43.4662 130.2 42.5613C132.803 40.5955 136.774 37.3504 142.124 32.8155C143.786 31.4113 144.716 29.6952 144.904 27.6773C144.988 26.7308 143.932 26.1068 143.148 26.6372C139.836 28.8631 136.606 31.2241 133.461 33.7308C130.117 36.3831 127.118 38.5985 124.474 40.3771C121.37 42.4469 118.298 44.5687 115.256 46.7217C115.152 46.7945 115.058 46.7737 114.974 46.6801C114.891 46.5761 114.901 46.4825 114.995 46.3993C117.535 44.0799 120.085 41.6772 122.655 39.1809C122.812 39.0353 123.032 38.9625 123.241 38.9937C123.355 39.0041 123.47 39.0145 123.585 39.0041C123.826 38.9937 124.035 38.9209 124.233 38.7753C125.79 37.6208 127.212 36.331 128.518 34.8957C131.914 31.1513 135.321 27.4589 138.728 23.8081C139.271 23.2257 139.292 22.3312 138.77 21.7279C138.488 21.3951 138.122 21.1663 137.652 21.031C137.171 20.8958 136.659 20.9998 136.272 21.3223C129.04 27.3237 122.457 33.4603 116.584 41.2404C116.552 41.282 115.737 42.5301 114.138 44.9848C112.78 47.0858 111.024 48.8332 108.871 50.2373C108.735 50.3309 108.631 50.3101 108.537 50.1853H108.526C108.432 50.0501 108.453 49.9357 108.568 49.8421C110.669 48.0323 112.435 45.9729 113.867 43.6534C115.706 40.6891 116.636 39.1809 116.667 39.1393C120.022 34.3236 123.523 29.6223 127.17 25.0251C129.02 22.6848 130.984 19.5021 131.967 17.3179C132.332 16.517 132.238 15.8513 131.684 15.3312C131.423 15.0712 131.131 15.0504 130.827 15.2688C130.096 15.7889 129.417 16.4234 128.79 17.1618C118.956 28.6862 110.92 38.5153 104.702 46.6593C104.608 46.7737 104.503 46.7945 104.378 46.7009L104.137 46.5345C104.002 46.4409 103.981 46.3161 104.075 46.1705C106.698 42.2493 109.174 38.2761 111.515 34.2612C113.031 31.661 115.277 28.2182 118.266 23.9225C120.513 20.6774 122.655 17.1306 124.693 13.2718C124.86 12.9598 124.86 12.6478 124.683 12.3357C124.359 11.7533 123.899 11.4516 123.303 11.4204C122.791 11.3996 122.258 11.6805 121.704 12.2525C117.399 16.777 113.72 21.7695 110.658 27.2301C109.572 29.1543 107.063 34.0012 103.134 41.7708C103.113 41.8124 103.082 41.8228 103.04 41.802L102.768 41.6772C102.518 41.5628 102.444 41.3756 102.559 41.1363L116.166 10.786C116.479 10.0891 116.072 9.27781 115.319 9.11139C113.908 8.79936 112.801 9.38182 112.017 10.8484C108.746 16.9746 106.604 23.3505 103.803 29.1543C101.744 33.4291 99.8109 38.068 98.0239 43.071C97.9717 43.2166 97.8672 43.2686 97.7209 43.2166L97.4283 43.1126C97.4283 43.1126 97.3865 43.0918 97.3969 43.0606C99.5079 36.7055 101.682 30.3608 103.928 24.0266C105.736 18.93 106.499 13.8855 108.297 8.97618C108.579 8.2065 107.92 7.41601 107.105 7.56163C106.771 7.62403 106.457 7.71765 106.154 7.85286C105.161 8.28971 104.493 9.02818 104.158 10.0579L93.896 41.3964C93.8542 41.5316 93.6975 41.6148 93.5616 41.5732L93.2063 41.4692C93.2063 41.4692 93.1436 41.4276 93.1541 41.386C93.9379 38.12 94.7216 34.8541 95.5159 31.5778C97.6477 22.7992 99.1735 13.6047 101.702 4.69093C101.828 4.24368 101.838 3.87964 101.734 3.57801C101.535 2.98515 101.034 2.74592 100.25 2.88114C99.7273 2.97475 99.2989 3.32838 99.1212 3.82764C97.9403 7.16639 96.4773 10.4427 95.5681 13.9687C93.4049 22.3832 91.4716 30.8497 89.7891 39.3578C89.7577 39.5346 89.6532 39.6074 89.4756 39.5762L89.2039 39.5346C88.9844 39.5034 88.8381 39.3058 88.859 39.0873C89.5801 31.713 90.4893 24.2762 91.6074 16.777C92.0986 13.4278 92.1718 10.0163 91.8269 6.53192C91.597 4.26448 91.2103 4.23328 90.6565 6.44871C89.9354 9.34021 89.4965 12.1589 89.3606 14.9048C89.1934 18.1291 88.8277 18.1499 88.2738 14.9672C87.5005 10.5467 87.1765 5.63743 87.3124 0.228859C87.3124 0.0520404 87.2288 -0.0207673 87.0615 3.49248e-05L85.0446 0.208057C84.867 0.228859 84.7729 0.322469 84.752 0.488886C83.3935 9.43383 84.6998 19.0236 85.1387 28.0726C85.3163 31.8586 84.5744 36.0502 84.6893 40.1378C84.6998 40.2835 84.6266 40.3563 84.4803 40.3667H84.4699C84.3236 40.3771 84.24 40.3043 84.2295 40.1586C83.2158 28.8215 82.129 16.4026 80.9899 2.90194C80.8959 1.80982 80.4779 0.977738 79.7463 0.416079C79.5582 0.280864 79.3283 0.218458 79.0671 0.228859C78.5445 0.260062 78.1474 0.696908 78.1474 1.21696C78.1474 3.14116 78.0743 4.97176 77.8966 6.69834C77.3323 12.0133 77.5936 17.4115 77.8339 22.872C77.9698 25.878 78.6177 31.713 79.7881 40.3979C79.809 40.5747 79.6941 40.7307 79.5164 40.7515L79.2029 40.7931C79.2029 40.7931 79.1402 40.7931 79.1298 40.7307C77.604 30.5688 75.8588 20.5838 73.8837 10.7756C73.8105 10.4115 73.5911 10.1931 73.2149 10.1307L71.5324 9.87067C71.0935 9.79786 70.8949 9.54824 70.9472 9.10099L71.3129 6.10548C71.3965 5.4086 70.8531 4.79494 70.1425 4.78454C70.0484 4.78454 69.9648 4.78454 69.8708 4.79494C69.4632 4.84694 69.2647 5.07577 69.2542 5.48141C69.1811 8.2585 69.3796 10.6404 69.8603 12.6062C72.0026 21.4159 73.9464 30.8185 75.6916 40.8139C75.7439 41.1468 75.5767 41.4692 75.2631 41.6148L75.0228 41.7292C74.9287 41.7708 74.8242 41.7188 74.7929 41.6252L64.8128 5.87665C64.5307 4.88855 63.8828 4.37889 62.8482 4.34769H62.357C61.7195 4.31649 61.2493 4.91975 61.406 5.53342C64.4157 16.9642 67.1955 28.4678 69.7349 40.0338C69.7767 40.2107 69.7036 40.3355 69.5155 40.3875L69.2647 40.4499C69.1915 40.4707 69.1393 40.4499 69.1184 40.3771C66.6521 32.5034 63.6424 24.0474 60.0788 15.0296C59.2324 12.8974 58.4381 10.4843 57.6962 7.81125C57.4558 6.93756 57.0274 6.25109 56.4003 5.76224C55.3135 4.90935 54.8432 5.16938 54.9791 6.54232C55.1776 8.63294 55.5852 10.7236 56.1913 12.8142C58.8771 22.0711 62.2003 31.8482 66.1505 42.1349C66.3595 42.6653 66.5371 43.227 66.6834 43.8198C67.0283 45.1928 66.8193 45.2864 66.0669 44.0903C64.2381 41.1884 62.5556 37.964 60.9985 34.438C57.6857 26.9597 54.6133 19.2109 51.7708 11.2124C51.4887 10.4323 50.8617 10.0267 49.8689 10.0059C49.4613 9.99548 49.1165 10.2867 48.8239 10.8796C48.688 11.1604 48.6567 11.4828 48.7612 11.7741C51.6559 20.5422 54.6969 28.9671 57.8634 37.0279C58.8771 39.597 59.8489 42.6445 60.7686 46.1705C60.779 46.2017 60.7686 46.2121 60.7372 46.2225L60.4864 46.3057C60.4028 46.3369 60.2983 46.2953 60.2669 46.2121L44.5392 12.679C44.2257 12.0029 43.5151 11.5973 42.7627 11.6805C42.6477 11.6909 42.5328 11.7013 42.4178 11.7117C41.9162 11.7637 41.6027 12.2629 41.7594 12.7414C45.5007 23.7145 50.1615 34.2924 55.742 44.4959C56.2018 45.3384 56.1077 45.4008 55.4598 44.6935C53.3593 42.3949 51.7604 39.3058 50.3183 36.9239C46.1381 30.0072 42.0416 22.3416 38.0391 13.9167C37.7047 13.2198 37.1195 12.8038 36.273 12.6686C35.9491 12.6166 35.6878 12.8142 35.4788 13.2406C35.3012 13.6047 35.2907 14.0207 35.4475 14.3847C37.5793 19.2837 39.6067 24.1098 41.5295 28.8631C44.0376 35.0621 47.6743 40.5123 51.6977 45.848C51.7917 45.9625 51.7708 46.0665 51.6559 46.1601C51.5409 46.2641 51.426 46.2537 51.3319 46.1497C47.8206 42.2909 44.5706 38.2344 41.5922 33.9596C38.5094 29.5495 35.9386 26.6372 32.2392 23.4753C32.0407 23.2985 31.7167 23.4441 31.7167 23.7145C31.7062 24.349 31.863 24.9419 32.187 25.4931C35.9177 32.0354 39.5962 37.6 43.2434 42.1661C45.1662 44.5791 47.3608 46.8049 49.8375 48.8436C49.8584 48.8436 49.8584 48.8748 49.8375 48.8956L49.639 49.1348C49.5554 49.2284 49.4613 49.2388 49.3568 49.166C40.7249 42.4365 34.1516 34.0636 29.6371 24.0266C28.8951 22.3832 28.1636 22.3832 27.4216 24.0266C26.6378 25.7635 27.7038 27.2717 28.4248 28.7903C32.5318 37.4128 37.9555 45.0992 44.6751 51.8703C44.7064 51.9015 44.7064 51.9327 44.6751 51.9639L44.487 52.1615C44.3302 52.3279 44.1735 52.3383 43.9958 52.1823C38.5303 47.4914 34.9981 43.955 33.4201 41.594C30.3164 36.9447 26.5542 32.8987 22.1442 29.4559C21.2037 28.7174 20.3677 28.4574 19.6361 28.655C18.7165 28.9151 18.3821 30.0488 19.0091 30.7665C21.1932 33.2523 23.3146 35.8214 25.3838 38.4737C28.0173 41.8644 30.2432 44.3295 32.0511 45.8792C34.3815 47.8867 37.2345 49.8941 40.589 51.9223C40.6204 51.9431 41.8848 52.5359 44.3929 53.6905C46.4725 54.637 48.155 56.0411 49.4404 57.8821C49.8062 58.3918 49.7226 58.4854 49.1896 58.1525L14.7767 36.7471C14.5573 36.6119 14.296 36.5599 14.0348 36.6015C12.8016 36.7991 12.6449 37.4336 13.5541 38.5049C14.6304 39.7634 15.8218 40.9179 17.1281 41.958C20.4931 44.6519 23.7327 47.481 26.8573 50.4557C27.035 50.6325 27.0141 50.7678 26.7841 50.8718C26.4811 51.007 26.2303 51.2462 26.0317 51.579C25.7809 52.0263 25.875 52.588 26.2721 52.9208C30.1491 56.1763 34.2561 59.1406 38.6035 61.7929C39.9515 62.6146 41.7908 62.9058 42.9926 63.7171C43.4001 63.9979 43.3688 64.0604 42.8985 63.9251C37.0673 62.1986 31.8735 59.1198 27.3276 54.6994C26.4184 53.8153 25.3838 51.6415 24.5582 51.1838C19.5003 48.3859 14.4005 45.6816 9.24853 43.0502C8.71556 42.7797 8.08854 43.1542 8.07809 43.747C8.05719 44.6727 8.48565 45.4528 9.35303 46.0873C13.251 48.9268 17.3162 51.6102 21.5485 54.1169C21.9561 54.3561 21.9666 54.6058 21.5903 54.8762C21.4127 55.0114 21.3604 55.2194 21.444 55.5003C21.4858 55.6667 21.5903 55.8227 21.768 55.9787C23.022 57.1228 24.4224 58.0901 25.969 58.8806C26.0631 58.9326 26.084 59.0054 26.0317 59.099L25.8854 59.3279C25.8854 59.3279 25.8332 59.3799 25.8018 59.3591C24.2029 58.6206 22.7817 57.7573 21.5381 56.7588C20.3468 55.8019 18.9673 55.0322 17.4102 54.4602C13.6272 53.056 9.89645 51.579 6.21794 50.0293C5.75812 49.8421 5.22516 50.1021 5.12065 50.5909C5.0057 51.1422 5.24606 51.7559 5.71632 52.1199C9.27988 54.8762 12.6344 57.05 15.7695 58.6414C24.1193 62.885 33.3051 66.463 43.3479 69.3857C43.4001 69.3961 43.421 69.4377 43.4106 69.4897L43.327 69.7394C43.2852 69.8538 43.2016 69.8954 43.0866 69.8642C32.1661 66.2758 21.2455 62.8642 10.3249 59.6087C8.23485 58.9846 5.98803 58.7662 3.58446 58.9534C2.57078 59.0366 1.787 59.8687 1.77655 60.8776C1.7661 61.8449 2.33042 62.4378 3.4695 62.6562C9.72924 63.8211 15.3306 65.2877 20.2632 67.0455C25.5197 68.9177 30.7866 70.6963 36.0745 72.3916C36.1267 72.402 36.1372 72.4332 36.1267 72.4852L36.0431 72.7453C36.0013 72.8701 35.8655 72.9429 35.7296 72.9013L5.34011 63.9667C5.24606 63.9355 5.1938 63.9355 5.1938 63.9771V64.3932C5.18335 64.4556 5.21471 64.5076 5.26696 64.5388C11.882 68.1272 18.8419 70.8627 26.1362 72.7557C29.9297 73.7438 33.7023 74.087 37.4539 73.8062C38.8229 73.7022 39.7948 73.9102 40.3905 74.4406C40.6204 74.6487 40.4636 75.0335 40.1501 75.0231C35.4161 74.8775 30.6926 74.5967 25.969 74.1702C22.6667 73.8686 19.5316 72.9637 16.2607 72.2356C11.8298 71.2475 6.52099 69.3961 1.46304 68.5952C0.470264 68.4392 0.0627019 68.8449 0.261258 69.833L0.32396 70.1762C0.522516 71.1955 1.13908 71.7988 2.17366 71.9756C6.32244 72.7141 10.0114 73.671 13.2196 74.8567C18.821 76.9265 23.8894 77.1449 29.3549 76.5833C31.2778 76.3857 34.9667 76.6353 40.4218 77.3321C40.4427 77.3321 40.4532 77.3426 40.4427 77.353L40.4114 77.665C40.3905 77.8002 40.3069 77.8626 40.171 77.8418C37.5584 77.5298 34.9354 77.3113 32.3124 77.1761C28.4144 76.9785 23.5028 78.1122 19.4271 77.5402C14.5677 76.8641 8.3707 76.0424 0.856926 75.0751C0.292609 75.0023 0.0104503 75.2519 0.0104503 75.8136C0.0104503 76.3753 0.0104503 76.9161 0 77.4674C0 78.029 0.282158 78.3515 0.836025 78.4347C12.6971 80.1301 24.809 81.2326 37.1927 81.7526C37.433 81.763 37.6525 81.8358 37.8301 81.9606C38.0914 82.1271 38.06 82.2103 37.757 82.2207C33.4201 82.3247 29.1668 82.075 24.8822 82.5639C17.9432 83.3648 10.9833 83.9576 4.01292 84.3529C3.68896 84.3633 2.94699 84.2905 1.7661 84.1241C1.32719 84.0617 1.12863 84.2489 1.17043 84.6961L1.38989 86.9532C1.42124 87.338 1.7452 87.6396 2.13186 87.65C15.247 88.0661 28.0904 87.9933 40.6517 86.7555C40.7144 86.7555 40.7562 86.7763 40.7667 86.8492L40.798 87.1092C40.8294 87.3068 40.7458 87.4212 40.5472 87.4524C37.0464 88.1181 33.5246 88.6173 29.9819 88.9502C25.2062 89.3974 21.6739 89.8239 19.3958 90.2503C13.7004 91.3008 8.10944 92.4761 2.60213 93.7867C2.13186 93.9011 1.89151 94.1923 1.90196 94.6812V96.3037C1.91241 96.6886 2.25727 96.9798 2.63348 96.9278C12.5717 95.5029 19.5316 94.2755 23.5341 93.2458C26.3243 92.5281 28.9578 92.0185 31.4136 91.7273C31.8003 91.6753 31.8003 91.7169 31.4345 91.8417L2.61258 101.4C2.00646 101.598 1.69295 102.024 1.67205 102.659L1.6407 103.699C1.63025 104.313 2.21547 104.749 2.80068 104.562C7.26297 103.116 11.7462 101.806 16.2711 100.61C23.0638 98.8104 29.1355 95.5237 35.8341 93.6515C37.7674 93.121 39.7112 92.6322 41.6654 92.1849C41.7803 92.1641 41.843 92.2057 41.8744 92.3201L41.958 92.5802C42.0312 92.8506 41.8849 93.1314 41.6236 93.2146C36.0327 95.0972 30.5776 97.3751 25.2584 100.027C18.4135 103.439 11.2132 105.613 3.99202 108.286C3.33365 108.525 2.93654 109.191 3.02014 109.877C3.08284 110.356 3.4068 110.72 3.98157 110.959C4.30553 111.094 4.62949 111.094 4.95345 110.98C7.21072 110.148 9.52023 109.482 11.8716 108.972C16.5219 107.974 21.6112 106.393 25.8123 104.229C30.8389 101.64 36.1163 99.4969 41.634 97.7807C41.8535 97.7079 42.0103 97.7807 42.1043 97.9991L42.2088 98.2799C42.2611 98.3944 42.2193 98.488 42.1043 98.54C36.3775 101.067 31.6435 103.616 27.9023 106.195C22.1024 110.2 16.9295 112.925 12.3732 114.37C11.8925 114.526 11.5267 114.922 11.4117 115.421C11.2968 115.92 11.3281 116.357 11.5267 116.731C11.997 117.636 12.6971 117.896 13.6481 117.491C24.0984 113.029 34.2248 107.911 44.0167 102.139C44.0481 102.118 44.0794 102.128 44.1003 102.16L44.2466 102.378C44.3302 102.513 44.3093 102.617 44.1735 102.7C34.5069 109.409 24.6627 115.806 14.6409 121.88C13.8362 122.369 13.4705 123.066 13.5541 123.971C13.6272 124.824 14.5677 125.323 15.3306 124.896C20.0228 122.234 25.1434 120.341 29.4908 117.512C34.7995 114.048 40.0978 110.564 45.3962 107.079C45.9814 106.705 46.368 105.977 47.0473 105.696C47.434 105.54 47.528 105.644 47.3504 106.018C47.0891 106.559 46.7233 107.027 46.2322 107.433C43.7659 109.492 41.2683 111.51 38.7498 113.497C33.6918 117.46 28.08 122.598 22.186 126.706C21.1305 127.445 20.932 128.36 21.6112 129.452L21.8202 129.816C22.4995 130.908 23.2937 131.012 24.2238 130.107C30.5985 123.887 38.1959 118.843 45.5529 113.861C45.6261 113.809 45.6992 113.819 45.7619 113.892C45.8142 113.975 45.8142 114.038 45.741 114.1C43.421 116.128 41.0279 118.063 38.5721 119.914C33.1275 124.012 29.6475 130.107 25.7078 135.495C25.3943 135.922 25.5719 136.525 26.0735 136.722L26.6483 136.941C27.1186 137.118 27.662 136.982 27.9859 136.587C32.1034 131.647 36.482 127.06 41.122 122.806C41.4668 122.483 41.8639 122.358 42.3029 122.421C42.6477 122.473 42.9403 122.379 43.2016 122.14C45.3753 120.081 47.319 117.876 49.0224 115.515C49.8584 114.339 50.893 113.466 51.9067 112.717C53.1294 111.812 53.213 111.905 52.1575 112.997C49.2837 115.941 47.2145 119.561 44.7064 122.847C43.7973 124.033 43.9122 125.728 43.003 127.143C39.9411 131.896 36.9314 136.681 33.974 141.496C33.8172 141.746 33.6396 141.892 33.4305 141.944C33.0021 142.037 32.8767 141.892 33.0648 141.486C33.9949 139.531 34.6114 137.346 35.6983 135.568C37.966 131.865 40.3487 128.391 42.8672 125.156C43.2225 124.699 43.327 124.189 43.1911 123.627C43.1598 123.513 43.1389 123.399 43.1075 123.284C42.9717 122.723 42.6895 122.639 42.2611 123.035C39.0737 126.009 36.2939 129.629 33.9217 133.904C32.7408 136.015 32.9707 138.397 32.0825 140.644C31.6226 141.809 31.863 143.129 32.7095 144.055L33.4932 144.918C34.3711 145.875 35.0921 145.771 35.6565 144.606C37.2658 141.257 39.3141 137.887 41.8012 134.486C44.6437 130.586 47.2877 126.561 49.7226 122.4C50.9035 120.413 52.3665 118.604 53.6937 116.69C53.7146 116.659 53.746 116.638 53.7773 116.648H53.8296C53.9027 116.648 53.9132 116.7 53.8818 116.763C51.6663 120.726 49.4613 124.699 47.2563 128.682C44.487 133.696 40.3905 139.51 37.433 145.23C36.9419 146.167 37.2345 146.624 38.2899 146.614H38.5617C39.6276 146.603 40.4741 146.177 41.1115 145.334C47.4235 137.003 53.2652 128.37 58.6367 119.425C58.689 119.332 58.7621 119.311 58.8562 119.363H58.8666C58.9607 119.415 58.9816 119.488 58.9398 119.581C54.2162 129.722 49.6076 139.916 45.1244 150.171C44.696 151.159 45.0095 151.742 46.0859 151.908L46.8174 152.022C48.0296 152.21 48.8761 151.742 49.3568 150.608C50.9035 146.988 52.3874 143.525 53.8087 140.207C56.0137 135.089 58.1455 128.766 60.6118 123.149C60.6745 123.014 60.779 122.962 60.9149 123.014H60.9253C61.0716 123.066 61.1239 123.159 61.0925 123.315C59.9639 127.549 58.6785 131.73 57.2364 135.859C55.836 139.884 52.9099 146.458 51.426 152.199C51.1961 153.104 51.4364 153.853 52.1575 154.446L52.6069 154.82C53.516 155.58 54.1222 155.392 54.4357 154.248C55.1463 151.648 55.9719 149.12 56.9229 146.676C60.6745 136.899 63.8723 127.85 66.4953 119.519C66.5789 119.269 66.8715 119.165 67.091 119.311L67.3314 119.467C67.3314 119.467 67.4045 119.561 67.3941 119.633C65.6907 127.122 63.6006 134.517 61.1239 141.809C59.5459 146.437 58.4172 151.086 57.7171 155.736C57.6544 156.141 57.832 156.38 58.25 156.443L59.943 156.682C60.3819 156.744 60.8104 156.474 60.9462 156.048C64.0813 146.468 66.9551 136.91 69.5573 127.361C69.5991 127.226 69.6827 127.174 69.8185 127.205H69.829C69.9857 127.237 70.038 127.33 70.0066 127.486C67.9584 137.305 66.5162 147.217 65.6802 157.213C65.5757 158.429 66.1191 158.887 67.3105 158.575C67.4045 158.554 67.4986 158.533 67.5717 158.523C68.6376 158.409 69.4737 157.504 69.5677 156.36C70.4769 145.511 71.7623 135.505 73.4343 126.342C73.4552 126.217 73.5702 126.134 73.6956 126.155C73.8105 126.165 73.9046 126.269 73.9046 126.394C73.7583 132.957 73.4239 139.614 72.8909 146.354C72.5879 150.181 72.7551 153.926 72.7133 157.618C72.7028 158.357 73.0686 158.742 73.8105 158.762L75.075 158.794C75.8379 158.814 76.2873 158.45 76.4127 157.701C77.7608 149.776 78.4609 142.017 78.5341 134.413C78.5445 132.323 78.9417 130.076 79.0044 127.881C79.0044 127.715 79.088 127.632 79.2552 127.632H79.2656C79.4328 127.632 79.5269 127.715 79.5373 127.881C80.4674 138.147 81.084 148.382 81.3661 158.575C81.3766 159.085 81.6378 159.397 82.1499 159.49C85.0864 160.031 86.6122 158.96 86.7167 156.266C86.8316 153.115 86.748 150.223 86.4554 147.592C85.7135 140.997 84.9088 134.601 84.0414 128.412C83.801 126.737 83.9369 126.706 84.449 128.318C84.8774 129.66 85.2118 131.21 85.4626 132.988C85.6821 134.58 85.9747 136.119 86.33 137.617C87.4482 142.329 88.4619 148.736 89.3606 156.849C89.4965 158.128 90.2698 159.23 91.3984 159.792C91.6388 159.906 91.8896 159.979 92.1717 159.99C93.4049 160.062 93.9588 159.501 93.8334 158.284C92.8824 149.11 91.4089 140.061 89.392 131.147C89.0158 129.483 88.9217 127.694 88.7963 126.103C88.6814 124.72 88.8068 124.699 89.1725 126.04L97.6164 156.734C97.9717 158.013 99.3198 158.731 100.574 158.325L101.222 158.117C102.1 157.837 102.612 156.911 102.361 156.016L93.8542 125.312C93.8124 125.156 93.8647 125.063 94.0215 125.021L94.3454 124.938C94.429 124.917 94.4813 124.948 94.5022 125.021C97.5432 134.309 100.846 143.369 104.388 152.199C104.858 153.385 105.642 154.685 106.719 156.089C107.502 157.098 109.091 156.869 109.551 155.673C109.927 154.675 109.592 152.73 109.122 151.586C106.928 146.125 104.764 140.051 102.622 133.363C101.838 130.919 100.887 128.558 99.7796 126.28C99.7482 126.228 99.7796 126.155 99.8423 126.124L100.093 126.03C100.177 125.999 100.239 126.03 100.271 126.103C102.34 130.752 104.116 135.453 105.6 140.207C107.032 144.752 109.08 148.611 111.662 152.522C112.215 153.364 113.072 153.791 114.253 153.822C114.797 153.832 115.204 153.312 115.047 152.792C113.386 147.134 111.16 141.621 108.38 136.244C108.317 136.119 108.349 136.026 108.464 135.953H108.474C108.547 135.911 108.61 135.922 108.652 135.984C111.745 140.675 114.515 145.543 116.97 150.608C117.524 151.742 118.245 152.095 119.154 151.69C119.886 151.357 120.189 150.473 119.813 149.765C115.737 142.183 110.721 135.204 105.956 128.048C105.35 127.143 105.026 126.124 104.973 125.011C104.963 124.626 105.047 124.595 105.245 124.928C107.325 128.516 109.551 131.896 111.944 135.058C114.859 138.917 117.796 142.745 120.753 146.551C121.83 147.935 123.042 149.006 124.39 149.776C124.766 149.984 125.216 149.63 125.09 149.214C124.233 146.291 122.645 143.837 121.203 141.153C117.848 134.923 113.971 129.026 109.572 123.461C109.54 123.409 109.53 123.367 109.54 123.326C109.551 123.305 109.551 123.284 109.561 123.253C109.603 123.159 109.655 123.139 109.728 123.211C111.923 125.219 113.898 127.413 115.643 129.816C119.175 134.653 122.655 139.51 126.083 144.409C126.71 145.303 127.462 145.855 128.34 146.073C128.769 146.177 129.166 145.792 129.072 145.366C127.609 138.387 123.115 132.51 119.322 126.654C119.249 126.54 119.259 126.436 119.374 126.353H119.384C119.499 126.269 119.604 126.28 119.687 126.394C122.666 130.336 125.947 134.018 129.532 137.44C130.399 138.262 130.566 138.147 130.012 137.076C127.504 132.146 123.773 127.632 119.886 124.616C117.597 122.837 115.612 120.663 113.908 118.073C113.877 118.021 113.877 117.98 113.929 117.938C114.023 117.855 114.107 117.865 114.18 117.948C116.814 120.621 119.353 123.159 122.342 125.51C126.794 128.994 131.141 132.489 135.384 135.974C136.324 136.754 137.631 137.45 139.303 138.085C139.94 138.324 140.588 137.731 140.389 137.076C140.212 136.462 139.888 135.942 139.428 135.495C130.911 127.351 122.405 119.155 113.908 110.896C113.752 110.74 113.741 110.584 113.888 110.408L114.065 110.21C114.138 110.116 114.222 110.106 114.316 110.179C121.913 116.003 129.49 121.87 137.056 127.777C138.352 128.786 139.794 129.743 141.382 130.638C142.176 131.085 143.138 130.419 142.992 129.525C142.866 128.766 142.427 128.027 141.675 127.32C136.795 122.754 131.883 118.24 126.94 113.767C126.856 113.694 126.856 113.611 126.929 113.518C127.003 113.414 127.086 113.414 127.18 113.486C131.925 117.241 137.004 120.497 142.417 123.243C143.807 123.95 145.301 124.345 146.879 124.418C147.245 124.428 147.433 124.262 147.443 123.898C147.579 120.029 140.107 115.213 137.369 113.653C131.716 110.418 125.884 107.048 119.896 103.543C119.844 103.512 119.823 103.46 119.855 103.397L120.011 103.096C120.085 102.94 120.21 102.898 120.367 102.971C128.278 106.414 136.293 109.451 144.434 112.103C147.799 113.195 151.352 113.84 154.863 114.589C155.448 114.714 155.898 114.662 156.201 114.433C156.629 114.121 156.796 113.642 156.702 112.997C156.65 112.644 156.473 112.363 156.19 112.155C154.957 111.25 153.933 110.605 153.108 110.22C145.939 106.788 137.171 102.752 126.804 98.1239C125.864 97.6975 124.244 96.8758 121.934 95.6485C121.819 95.5861 121.788 95.4925 121.84 95.3676L121.966 95.0972C122.101 94.7956 122.321 94.702 122.634 94.8164C126.052 96.0853 129.511 97.2814 132.991 98.4152C140.734 100.922 148.572 104.521 156.744 106.757C157.486 106.954 157.779 106.684 157.601 105.946C157.423 105.165 156.504 104.458 154.853 103.834C150.871 102.316 147.381 100.755 144.392 99.1432C142.73 98.2383 142.835 97.9367 144.705 98.2175C149.575 98.956 154.612 100.007 159.827 101.359C160.12 101.442 160.423 101.296 160.548 101.036L160.715 100.672C161.06 99.9753 160.872 99.4657 160.151 99.1432C157.173 97.8327 154.372 96.751 151.77 95.9085C144.465 93.537 144.601 92.9754 152.177 94.2339C154.132 94.5564 156.953 94.7852 160.621 94.8996C160.987 94.91 161.269 94.754 161.447 94.4315C161.593 94.1507 161.551 93.8283 161.321 93.4434C161.144 93.1522 160.883 92.9546 160.559 92.861C156.514 91.6649 152.575 90.8328 148.76 90.3647C141.34 89.4598 133.701 88.3469 125.853 87.026C125.446 86.9532 125.132 86.6203 125.08 86.2147L125.048 85.9443C125.017 85.7258 125.205 85.5282 125.425 85.549C137.746 86.3707 150.004 86.4747 162.199 85.8818C162.92 85.8506 163.307 85.4658 163.338 84.7481L163.443 82.8863C163.474 82.1375 163.119 81.7318 162.366 81.6694C150.422 80.6293 138.237 80.2341 125.811 80.4733C125.571 80.4837 125.456 80.3693 125.456 80.13V79.7764C125.456 79.6828 125.508 79.6204 125.602 79.61C138.132 78.6843 150.662 77.6754 163.213 76.6041C164.153 76.5209 164.707 76.0216 164.875 75.0959L164.979 74.4823C165.094 73.8686 164.613 73.3069 163.986 73.3069ZM118.109 93.1626C112.414 112.165 91.9836 122.879 72.4729 117.085C52.9622 111.292 41.749 91.1968 47.4444 72.194C53.1398 53.1912 73.5702 42.4781 93.0809 48.2715C112.592 54.0649 123.805 74.1598 118.109 93.1626Z" fill="black"/>
</g>
<defs>
<clipPath id="clip0_2119_1164">
<rect width="165" height="160" fill="white"/>
</clipPath>
</defs>
</svg>
