<svg width="538" height="547" viewBox="0 0 538 547" fill="none" xmlns="http://www.w3.org/2000/svg">
<g clip-path="url(#clip0_208_133)">
<path fill-rule="evenodd" clip-rule="evenodd" d="M237.767 26.9512C233.879 24.3474 231.668 22.3803 230 20.896C225.506 16.8965 224.951 16.4024 206.121 16.4024C152.764 16.4024 102.286 50.3665 67.0014 85.6256C47.9488 104.67 36.0026 119.002 23.2555 144.735C10.1334 171.243 2.28571 197.01 0.411133 222.504V246.235C2.49874 274.047 12.025 301.688 29.9273 329.739C38.9167 343.824 72.4718 384.272 87.4428 388.26C87.0074 393.485 86.3778 395.043 85.8425 396.367C85.2676 397.789 84.8014 398.942 84.8014 404.083C84.8014 449.38 117.981 483.778 150.71 506.963C181.675 528.896 223.819 543.364 267.744 546.5H303.25C375.353 541.234 445.471 503.044 472.814 414.981C482.187 384.877 483.039 362.271 483.039 322.326C519.372 319.309 564.047 231.153 518.247 136.802C462.214 21.3445 358.337 -36.8442 237.767 26.9512ZM395.965 241.591L365.034 237.237L360.861 221.983C383.184 215.613 401.02 212.79 416.968 214.341C434.81 216.071 450.77 223.416 468.663 237.594C470.124 238.672 471.947 239.139 473.746 238.897C475.546 238.656 477.181 237.724 478.306 236.299C479.431 234.875 479.958 233.068 479.775 231.262C479.593 229.456 478.716 227.791 477.329 226.62C457.211 210.703 439.011 202.429 418.288 200.41C400.263 198.651 380.687 201.72 356.48 208.657C349.596 193.731 337.154 184.615 322.551 179.866C335.137 170.315 352.92 160.874 372.132 155.709C391.823 150.418 412.836 149.736 430.729 158.359C431.561 158.793 432.471 159.054 433.406 159.129C434.341 159.204 435.282 159.09 436.172 158.795C437.062 158.499 437.883 158.028 438.588 157.409C439.292 156.79 439.865 156.035 440.273 155.191C440.681 154.346 440.914 153.428 440.96 152.491C441.006 151.555 440.864 150.618 440.541 149.738C440.218 148.857 439.722 148.05 439.082 147.365C438.441 146.68 437.67 146.13 436.813 145.749C415.477 135.464 391.09 136.095 368.51 142.17C342.731 149.093 319.022 163.29 305.137 176.263C299.134 175.64 293.005 175.572 286.939 175.977C288.53 162.895 293.433 141.774 304.007 123.586C312.187 109.501 323.767 97.4186 339.795 93.1581C341.554 92.6455 343.042 91.465 343.941 89.8691C344.841 88.2733 345.08 86.3889 344.608 84.6189C344.136 82.8488 342.99 81.3338 341.416 80.3977C339.841 79.4617 337.962 79.179 336.182 79.61C315.945 85.0378 301.698 99.6084 291.874 116.565C279.636 137.724 274.265 163.038 272.797 177.783C269.414 178.422 266.101 179.198 262.895 180.096C255.107 182.284 248.651 184.793 243.054 187.785C233.567 170.121 228.069 153.098 228.36 137.884C228.658 122.887 234.784 109.416 248.639 98.6369C250.108 97.4945 251.063 95.8154 251.294 93.969C251.525 92.1225 251.013 90.26 249.871 88.7911C248.728 87.3222 247.049 86.3672 245.203 86.1363C243.356 85.9054 241.494 86.4174 240.025 87.5598C222.54 101.168 214.786 118.329 214.377 137.551V137.645C214.026 155.779 220.407 175.553 231.385 195.672C224.869 201.163 219.362 207.899 213.474 216.352C183.49 186.41 152.976 126.244 188.764 90.457C404.818 -125.597 602.799 222.998 479.597 303.307C472.439 283.65 455.099 265.918 435.885 256.306L395.965 241.591ZM353.147 321.056C354.071 319.867 354.958 318.643 355.806 317.383C360.055 311.548 363.107 304.698 365.183 297.396C381.863 313.649 394.83 327.078 404.503 351.671C405.18 353.402 406.518 354.793 408.222 355.538C409.925 356.283 411.855 356.32 413.586 355.642C415.317 354.964 416.708 353.626 417.452 351.923C418.197 350.219 418.234 348.29 417.556 346.559C406.235 317.77 391.402 303.336 372.114 284.567L371.31 283.784C370.307 282.807 369.291 281.817 368.266 280.816C369.024 273.229 368.985 265.602 368.366 258.479C407.971 261.683 462.359 281.809 463.134 329.091C467.846 618.74 108.864 540.757 105.541 403.827L110.304 406.954C161.267 440.245 220.99 400.035 251.852 358.283C256.101 358.261 260.497 358.119 264.981 357.833C260.58 375.635 255.785 391.196 248.528 404.927C239.718 421.559 227.073 435.738 206.623 448.332C205.84 448.814 205.159 449.447 204.62 450.193C204.081 450.939 203.695 451.783 203.482 452.678C203.27 453.574 203.236 454.502 203.382 455.411C203.528 456.319 203.852 457.19 204.335 457.973C204.818 458.756 205.45 459.437 206.196 459.976C206.942 460.514 207.787 460.901 208.682 461.114C209.577 461.326 210.506 461.36 211.414 461.214C212.322 461.067 213.193 460.744 213.976 460.261C236.787 446.201 250.974 430.225 260.926 411.479C269.518 395.27 274.798 377.174 279.751 356.373C287.521 355.319 295.363 353.782 302.994 351.646C303.298 354.466 303.629 357.419 303.974 360.473L303.978 360.508C307.454 391.453 312.175 433.478 300.02 451.646C299.036 453.189 298.695 455.056 299.071 456.846C299.447 458.637 300.51 460.209 302.031 461.226C303.553 462.242 305.412 462.622 307.21 462.284C309.009 461.946 310.603 460.917 311.651 459.417C326.667 436.965 321.616 392.036 317.901 358.996L317.897 358.957C317.426 354.77 316.977 350.781 316.597 347.07C325.769 343.406 334.337 338.68 341.736 332.659C342.48 335.506 343.287 338.505 344.128 341.632V341.633L344.194 341.88C350.181 364.142 358.064 393.454 358.064 413.601V425.274C358.064 427.136 358.804 428.922 360.121 430.239C361.438 431.556 363.223 432.295 365.086 432.295C366.948 432.295 368.734 431.556 370.05 430.239C371.367 428.922 372.107 427.136 372.107 425.274V413.601C372.107 391.642 363.927 361.232 357.715 338.166L357.52 337.439L357.518 337.432L357.517 337.428C355.827 331.14 354.309 325.489 353.147 321.056ZM107.103 379.098L107.094 379.091C105.766 378.176 104.409 377.241 103.018 376.288C-89.9701 231.809 100.036 25.8264 219.259 37.4488L173.86 75.571C127.481 119.462 160.985 195.681 202.175 234.783C198.81 241.087 195.694 247.84 193.014 254.819C192.72 254.745 192.422 254.67 192.12 254.594C170.213 249.089 117.205 235.754 126.254 132.465C126.348 130.646 125.732 128.862 124.536 127.49C123.34 126.117 121.657 125.262 119.843 125.106C118.029 124.95 116.225 125.505 114.813 126.654C113.4 127.803 112.489 129.455 112.271 131.263C102.197 246.167 163.159 261.765 188.538 268.141C186.596 274.897 185.145 281.73 184.338 288.453C162.141 289.732 110.268 287.86 87.6714 221.584C87.4005 220.685 86.9515 219.85 86.3513 219.127C85.7511 218.405 85.0118 217.811 84.1774 217.381C83.343 216.95 82.4305 216.692 81.4942 216.621C80.5579 216.55 79.6169 216.668 78.7272 216.968C77.8374 217.268 77.017 217.744 76.3149 218.367C75.6127 218.99 75.043 219.749 74.6398 220.597C74.2365 221.445 74.0079 222.365 73.9674 223.303C73.927 224.241 74.0756 225.178 74.4044 226.057C99.8904 300.821 157.872 303.86 183.654 302.558C183.975 313.512 186.462 323.774 191.867 332.443C173.725 343.538 129.145 360.959 86.4618 301.33C85.9253 300.581 85.2464 299.945 84.464 299.458C83.6816 298.971 82.811 298.643 81.9019 298.493C80.9928 298.343 80.0629 298.373 79.1655 298.582C78.268 298.791 77.4205 299.175 76.6714 299.711C75.9222 300.248 75.2861 300.927 74.7993 301.709C74.3125 302.492 73.9846 303.362 73.8343 304.271C73.6839 305.18 73.7141 306.11 73.9231 307.008C74.1321 307.905 74.5159 308.753 75.0524 309.502C126.289 380.993 180.923 356.277 201.13 343.204C207.615 348.753 216.13 353.055 227.047 355.668C214.666 369.804 197.753 384.008 180.183 391.557C146.306 406.119 131.793 396.115 107.103 379.098ZM263.704 335.499C194.293 340.432 196.074 285.448 224.508 237.603L224.465 237.637C229.161 229.529 234.795 222.001 241.252 215.21C260.696 195.476 325.454 186.018 338.15 225.435C360.62 295.187 336.727 330.318 263.704 335.499Z" fill="#6C2C00"/>
</g>
<defs>
<clipPath id="clip0_208_133">
<rect width="538" height="546" fill="white" transform="translate(0 0.5)"/>
</clipPath>
</defs>
</svg>
