<svg width="647" height="657" viewBox="0 0 647 657" fill="none" xmlns="http://www.w3.org/2000/svg">
<g clip-path="url(#clip0_208_141)">
<path d="M291.391 308.641C276.269 319.865 280.397 330.726 287.006 342.544V342.535C289.965 347.833 304.059 359.314 310.482 359.137C381.637 357.206 327.19 282.064 291.391 308.641Z" fill="#6C2C00"/>
<path fill-rule="evenodd" clip-rule="evenodd" d="M204.46 117.079C211.227 122.503 217.827 127.793 224.745 132.426V132.373C233.524 94.678 237.209 80.8491 261.492 48.4695C308.371 -14.0672 343.329 0.132022 369.102 10.6004C374.797 12.9136 380.044 15.0447 384.871 16.1253C392.918 17.9257 402.504 18.7995 412.673 19.7265C460.345 24.0722 520.819 29.585 495.556 137.21C494.538 141.564 492.911 146.122 491.24 150.803C488.607 158.18 485.866 165.863 485.226 173.532C508.064 162.582 593.288 183.419 615.825 212.937C629.438 230.771 629.186 240.232 628.836 253.392C628.643 260.641 628.421 269.012 630.469 280.522C633.922 299.922 637.279 309.705 640.056 317.796C644.163 329.761 647 338.028 647 368.226C647 415.223 567.464 431.293 523.612 431.293C525.637 439.982 528.41 447.25 531.219 454.612C536.94 469.606 542.809 484.989 542.809 513.549C542.809 578.249 523.07 586.562 496.181 597.887C491.201 599.985 485.975 602.186 480.584 604.867C466.997 611.608 455.282 621.182 443.795 630.57L443.755 630.603L443.603 630.727C442.534 631.6 441.466 632.472 440.399 633.34C415.931 653.468 408.915 656.126 383.702 656.126C340.145 656.126 313.402 599.639 298.689 568.563C297.743 566.563 296.846 564.669 295.998 562.902L288.911 569.485C261.705 594.6 226.738 623.223 186.359 623.223C157.434 623.223 150.01 623.02 130.698 599.375C118.592 584.566 98.9921 573.604 81.3522 563.739C71.0066 557.953 61.335 552.543 54.2447 546.956C22.4409 521.912 30.8126 484.979 47.4055 454.079C54.4034 441.075 60.0977 434.331 68.71 424.13C69.2452 423.496 69.7916 422.849 70.3503 422.186C82.6904 407.563 95.554 396.402 105.833 387.484C116.569 378.168 124.486 371.3 126.038 365.489C72.9637 361.103 1.97659 286.218 0.31996 230.876C-0.273952 211.143 9.80299 199.475 19.3563 188.412L19.3583 188.41L19.3613 188.407C19.9238 187.755 20.4845 187.106 21.0411 186.457C30.5123 175.42 37.1797 159.3 43.9917 142.831C57.2124 110.868 70.9777 77.589 106.841 77.589C155.192 77.589 180.846 98.1517 204.46 117.079ZM245.235 152.899C274.337 181.957 302.03 218.35 316.852 252.536C326.663 254.564 336.198 258.253 345.104 263.191C351.698 246.35 350.701 234.05 349.603 220.52V220.515C347.884 199.254 345.955 175.388 366.94 130.486C367.321 129.662 368.712 125.924 369.89 122.575C370.194 121.713 370.74 121.961 371.115 122.13C371.43 122.273 371.624 122.361 371.45 121.689C370.966 119.628 371.308 117.459 372.402 115.646C373.497 113.833 375.258 112.521 377.307 111.99C379.357 111.459 381.534 111.751 383.371 112.803C385.208 113.856 386.561 115.586 387.139 117.623C387.653 119.607 386.643 123.824 385.199 127.917C383.905 131.62 382.222 136.049 381.655 137.361C362.529 178.28 364.283 199.994 365.842 219.253V219.259C367.172 235.671 368.374 250.513 358.993 272.271C366.794 278.204 373.836 285.083 379.804 292.544C432.072 244.847 492.844 133.808 477.359 74.825C469.812 46.0745 448.033 44.4541 419.571 42.3362C398.42 40.7625 373.578 38.914 348.141 25.4538C311.403 6.01719 254.989 81.4073 248.239 123.585C246.677 133.291 245.674 143.078 245.235 152.899ZM391.028 309.704C422.974 281.576 452.837 237.724 472.416 196.238C525.127 182.772 612.397 211.068 608.127 250.862C605.138 278.699 612.491 302.281 618.808 322.545C627.398 350.099 634.075 371.515 610.235 389.142C563.079 424.011 445.546 410.723 382.275 383.995C394.05 373.472 399.56 360.194 400.042 346.15C404.408 344.575 411.894 342.711 420.864 340.48C445.953 334.243 481.664 325.358 506.469 306.568C512.442 302.436 518.864 298.994 525.613 296.309C526.839 295.861 527.375 294.944 527.733 294.332C528.027 293.829 528.201 293.533 528.536 293.873C529.288 294.629 530.181 295.23 531.165 295.641C532.149 296.052 533.204 296.265 534.27 296.268C535.336 296.272 536.392 296.065 537.378 295.66C538.365 295.255 539.261 294.66 540.018 293.908C540.774 293.157 541.375 292.263 541.786 291.28C542.197 290.296 542.41 289.241 542.413 288.175C542.417 287.109 542.21 286.052 541.805 285.066C541.4 284.08 540.805 283.183 540.053 282.427C535.331 277.687 527.881 278.219 520.103 281.063C510.624 284.518 499.284 291.649 496.706 293.607C474.443 310.421 440.699 318.82 416.975 324.72L416.887 324.741L416.886 324.742C409.818 326.502 403.55 328.063 398.424 329.662C396.917 322.941 394.409 316.219 391.028 309.704ZM269.332 390.958C263.406 435.342 272.53 492.19 287.529 537.646L287.493 537.69C258.48 583.845 175.772 623.312 151.499 591.57C134.049 568.752 112.266 556.697 93.7086 546.427C68.7209 532.599 49.5809 522.007 54.7408 492.73C61.0307 457.215 101.375 413.717 148.646 380.327C152.113 377.865 155.618 375.47 159.162 373.143C187.743 377.565 216.927 376.091 244.917 368.811C247.232 371.533 250.034 374.462 253.158 377.436C239.853 388.529 218.508 408.806 200.737 428.574C184.906 446.176 171.591 463.779 168.34 475.296C168.003 476.492 167.817 477.298 167.711 477.821L167.171 479.061C166.704 480.056 166.444 481.135 166.406 482.233C166.368 483.331 166.554 484.425 166.951 485.449C167.349 486.474 167.95 487.407 168.718 488.192C169.486 488.978 170.406 489.599 171.421 490.019C172.436 490.439 173.526 490.648 174.625 490.635C175.724 490.621 176.808 490.385 177.813 489.94C178.817 489.496 179.721 488.852 180.47 488.048C181.219 487.244 181.797 486.296 182.169 485.262C182.244 485.067 182.32 484.872 182.397 484.678C182.458 484.524 182.519 484.371 182.581 484.217C182.806 483.65 183.032 483.084 183.241 482.507C183.36 482.13 183.452 481.745 183.515 481.355L183.976 479.655C186.457 470.858 198.399 455.425 212.803 439.408C231.31 418.832 253.443 397.922 265.593 388.131C266.828 389.092 268.076 390.037 269.332 390.958ZM361.537 396.788C358.545 398.057 354.723 399.463 350.346 400.818C350.792 402.399 351.365 404.163 352.049 406.116C358.746 425.305 374.595 457.135 384.189 469.086C392.79 479.845 399.87 487.815 406.72 495.526L407.983 496.947C413.271 502.897 418.475 508.753 424.17 515.64C425.515 517.303 426.149 519.429 425.936 521.557C425.723 523.685 424.679 525.643 423.031 527.007C421.383 528.37 419.264 529.029 417.134 528.839C415.004 528.65 413.034 527.628 411.652 525.996C405.912 519.059 400.605 513.088 395.201 507.011L394.901 506.673C387.696 498.55 380.294 490.205 371.53 479.283C361.005 466.162 343.854 431.931 336.723 411.485C335.908 409.288 335.203 407.055 334.609 404.791C319.149 407.822 301.44 408.676 288.459 402.59C281.372 469.919 316.418 597.4 367.57 629.07C392.854 644.722 409.794 630.867 431.899 612.787C448.319 599.357 467.589 583.596 495.246 575.863C533.57 565.153 527.971 474.446 495.618 429.575L461.847 426.075C426.092 420.857 389.85 410.838 361.555 396.788H361.537ZM233.905 350.597C224.592 331.846 220.963 314.902 226.516 298.952C174.364 288.341 150.796 258.964 121.387 222.301C117.223 217.1 112.909 211.732 107.727 205.469C107.007 204.652 106.459 203.7 106.114 202.668C105.77 201.636 105.636 200.545 105.721 199.46C105.806 198.376 106.109 197.319 106.61 196.353C107.111 195.388 107.801 194.532 108.639 193.839C109.478 193.145 110.446 192.626 111.489 192.314C112.531 192.002 113.626 191.902 114.707 192.021C115.789 192.14 116.835 192.475 117.785 193.006C118.735 193.537 119.568 194.253 120.236 195.112C124.241 199.919 128.499 205.232 132.697 210.469L134.079 212.193C162.287 247.335 184.716 275.277 234.735 283.982C239.229 278.097 245.228 272.32 252.926 266.604C264.754 257.612 278.911 252.195 293.721 250.995C261.882 188.194 174.922 100.507 114.521 98.5316C85.0491 97.5698 76.487 119.367 65.7384 146.729C57.974 166.495 49.0688 189.165 30.3167 208.259C1.12629 237.963 57.4075 313.566 95.8113 332.028C140.469 353.502 187.83 361.263 233.905 350.632V350.597ZM256.106 356.515C241.665 330.699 232.665 306.984 265.682 282.453C343.889 224.374 462.795 388.531 307.382 392.766C293.349 393.147 262.573 368.084 256.106 356.515Z" fill="#6C2C00"/>
</g>
<defs>
<clipPath id="clip0_208_141">
<rect width="647" height="656" fill="white" transform="translate(0 0.5)"/>
</clipPath>
</defs>
</svg>
