<svg width="619" height="655" viewBox="0 0 619 655" fill="none" xmlns="http://www.w3.org/2000/svg">
<g clip-path="url(#clip0_208_128)">
<path fill-rule="evenodd" clip-rule="evenodd" d="M179.883 116.305C179.883 133.036 182.552 149.477 184.685 162.623C186.034 170.938 187.17 177.934 187.281 182.852C136.867 156.176 67.7569 127.501 25.6328 183.831C9.77852 205.021 1.10685 230.9 0 256.549V267.697C1.09889 293.179 9.79445 317.649 26.4848 336.258C39.8785 351.197 64.1417 373.023 88.7233 375.07C85.344 380.113 82.3181 382.365 78.7414 385.027C76.7389 386.518 74.5633 388.137 72.0569 390.446C46.1294 414.335 32.043 428.708 32.043 463.801C32.043 532.896 117.924 599.498 197.927 565.616C208.963 560.942 216.386 555.483 224.154 549.771L224.156 549.769C227.334 547.432 230.57 545.052 234.135 542.666C234.135 613.537 262.396 653.574 332.716 653.574C351.947 653.574 371.353 647.387 384.476 641.264C399.008 634.487 409.87 624.661 420.874 613.569C450.927 583.269 451.006 553.416 451.006 515.568C455.754 516.675 461.836 519.632 468.985 523.107C497.482 536.961 542.925 559.052 588.328 505.017C623.197 463.53 626.16 400.137 593.973 355.314L572.346 332.603C569.122 329.79 565.207 327.302 561.339 324.844C555.749 321.292 550.26 317.804 547.111 313.492C568.723 308.452 603.266 280.573 612.041 260.14C637.523 200.705 586.369 108.948 492.884 108.948C457.91 108.948 424.933 131.11 402.366 146.276L402.362 146.279C401.294 146.996 400.251 147.697 399.231 148.38C399.231 145.74 399.237 143.097 399.243 140.454C399.358 88.3089 399.473 36.2653 354.758 12.9302C341.455 5.95105 326.882 1.72356 311.909 0.5H293.379C233.41 5.32556 179.883 56.3841 179.883 116.305ZM355.777 36.0705C379.801 52.6415 384.778 112.945 377.277 165.636H377.309C343.742 193.757 308.45 233.755 301.697 271.942C300.465 264.852 299.442 257.532 298.627 250.139C295.139 218.542 295.442 185.711 299.304 163.518C302.378 164.569 305.38 164.8 307.768 163.868C312.785 161.925 315.039 156.128 310.579 144.606C309.881 142.766 309.007 140.998 307.968 139.326C304.528 133.911 300.275 131.785 296.644 131.116C294.018 130.632 291.312 130.843 288.793 131.73C288.479 131.843 288.178 131.987 287.893 132.16C279.659 137.367 280.145 144.853 284.341 151.502C286.463 154.72 289.163 157.517 292.304 159.751C287.917 182.653 287.423 217.523 291.102 250.967C291.992 259.025 293.126 267.006 294.51 274.725C292.847 275.381 291.236 276.169 289.692 277.086L260.843 241.157C249.758 226.115 231.977 210.77 211.273 197.161C202.45 164.76 198.381 132.255 200.061 110.254C205.508 39.2557 293.109 -7.09669 355.777 36.0705ZM297.798 290.556C288.258 296.054 281.965 308.409 280.343 321.595C280.042 324.044 279.902 326.521 279.932 328.988C280.067 340.012 283.599 350.839 291.343 358.029C293.094 359.654 295.061 361.094 297.252 362.308C297.326 362.349 297.401 362.39 297.476 362.431C305.077 366.56 315.35 367.993 328.678 365.105C330.116 364.793 331.589 364.431 333.099 364.017C334.1 363.742 335.053 363.422 335.958 363.06C335.979 363.051 335.999 363.043 336.019 363.035C347.51 358.398 351.308 346.903 349.923 334.302C349.653 331.848 349.187 329.352 348.543 326.857C346.642 319.491 343.19 312.13 338.665 305.865C337.276 303.943 335.787 302.124 334.211 300.44C334.081 300.302 333.951 300.164 333.82 300.027C332.059 298.188 330.194 296.518 328.241 295.058C319.584 288.589 311.703 286.679 304.934 287.913C302.648 288.329 300.489 289.104 298.469 290.183C298.244 290.303 298.02 290.428 297.798 290.556ZM371.593 279.996C373.008 279.026 374.434 278.064 375.868 277.109C402.361 259.503 431.656 244.7 453.156 237.956C453.626 241.173 454.797 243.936 456.724 245.64C460.793 249.191 466.94 248.53 475.126 239.269C476.431 237.817 477.591 236.241 478.59 234.563C481.847 228.997 481.791 224.259 480.732 220.732C479.95 218.17 478.518 215.855 476.575 214.011C476.31 213.764 476.016 213.55 475.699 213.374C467.314 208.509 460.944 212.371 456.963 219.139C455.075 222.491 453.822 226.162 453.268 229.969C430.892 236.586 399.653 252.161 371.679 270.763C362.726 276.714 354.091 282.989 346.164 289.395C345.871 289.563 345.58 289.734 345.29 289.906H345.282C338.872 283.114 329.26 276.807 320.414 274.084C330.765 219.099 417.442 150.522 465.65 133.163C532.499 109.091 610.918 169.673 597.198 244.796C593.057 267.474 557.646 290.32 523.604 304.988C482.159 287.005 418.072 270.038 371.593 279.996ZM378.312 342.06C382.649 343.472 387.01 344.987 391.363 346.586C421.209 357.559 450.457 372.466 468.604 385.82C466.287 388.097 464.75 390.685 464.511 393.257C464.017 398.608 468.206 403.203 480.517 404.35C482.452 404.541 484.402 404.541 486.338 404.35C492.764 403.697 496.562 400.846 498.784 397.9C500.386 395.767 501.412 393.258 501.762 390.613C501.794 390.261 501.794 389.907 501.762 389.554C500.759 379.903 493.855 376.997 486.043 377.793C482.208 378.235 478.488 379.382 475.07 381.177C456.532 367.059 425.525 351.053 393.967 339.451C384.004 335.786 373.969 332.554 364.235 329.952C361.598 319.35 358.96 311.156 356.319 305.37H356.303C404.964 277.922 519.543 315.563 559.358 346.403C618.523 392.23 606.889 489.123 538.487 517.949C517.417 526.828 478.646 509.763 447.821 489.354C439.559 441.493 416.241 373.207 378.312 342.06ZM336.44 393.554C337.085 396.428 337.7 399.326 338.283 402.24C344.518 433.414 347.082 466.15 345.179 488.59C342.025 487.81 339.039 487.849 336.714 488.98C331.888 491.361 330.152 497.333 335.615 508.426C336.472 510.193 337.498 511.874 338.681 513.442C342.583 518.515 346.994 520.251 350.673 520.609C353.338 520.86 356.022 520.412 358.461 519.311C358.768 519.17 359.059 518.996 359.329 518.793C367.077 512.901 365.946 505.487 361.168 499.22C358.781 496.208 355.86 493.66 352.552 491.703C354.917 468.507 352.361 433.685 345.768 400.734C344.18 392.795 342.354 384.952 340.305 377.392C350.732 373.167 359.439 365.755 363.119 354.119C408.46 386.887 436.02 491.656 432.691 542.555C428.033 613.489 341.117 661.036 277.764 618.426C259.226 605.98 251.582 567.758 252.107 526.852H252.123C286.87 494.454 328.683 440.894 336.44 393.554ZM269.946 381.827C268.14 383.647 266.306 385.457 264.45 387.253C241.612 409.358 215.47 429.218 195.563 439.761C194.519 436.679 192.863 434.171 190.665 432.833C186.047 430.022 180.075 431.798 173.704 442.389C172.696 444.046 171.848 445.795 171.172 447.613C168.958 453.688 169.882 458.339 171.57 461.651C172.796 464.039 174.631 466.061 176.889 467.512C177.179 467.69 177.486 467.84 177.805 467.958C186.939 471.255 192.545 466.294 195.228 458.896C196.475 455.262 197.04 451.428 196.892 447.589C217.684 437.022 245.586 416.031 269.745 392.644C275.88 386.707 281.78 380.607 287.272 374.474C295.644 379.822 306.241 382.568 318.821 381.822C316.313 437.715 243.635 518.363 199.289 543.455C137.512 578.364 49.9517 531.885 50.8834 455.44C51.1621 432.634 79.0961 405.52 113.52 383.773H113.6C159.044 394.905 226.019 400.637 269.946 381.827ZM265.638 318.757C256.648 316.756 247.367 314.24 238.108 311.35C207.762 301.874 177.805 288.425 159.02 275.995C161.226 273.598 162.635 270.946 162.747 268.366C162.978 262.999 158.566 258.611 146.208 258.086C144.279 257.987 142.346 258.075 140.435 258.349C134.056 259.304 130.385 262.354 128.299 265.428C126.797 267.641 125.897 270.207 125.687 272.873C125.661 273.207 125.661 273.543 125.687 273.876C127.152 283.512 134.208 286.076 141.995 284.897C145.785 284.242 149.422 282.892 152.722 280.916C171.936 294.118 203.716 308.563 235.815 318.589C245.617 321.65 255.464 324.305 265.012 326.391C264.673 338.027 267.148 349.661 272.747 359.223C225.439 389.069 116.235 372.179 70.6471 348.617C7.3017 315.881 -1.2107 217.188 62.9947 176.274C100.222 152.553 212.85 208.055 245.498 252.384L276.107 290.487C270.588 298.581 267.025 308.49 265.638 318.757Z" fill="#6C2C00"/>
</g>
<defs>
<clipPath id="clip0_208_128">
<rect width="619" height="654" fill="white" transform="translate(0 0.5)"/>
</clipPath>
</defs>
</svg>
