<svg width="180" height="180" viewBox="0 0 180 180" fill="none" xmlns="http://www.w3.org/2000/svg">
<g clip-path="url(#clip0_2119_1189)">
<path d="M50.5422 18.88C50.0896 17.6818 50.1558 16.6963 50.741 15.9013C51.3151 15.1286 52.0437 14.8598 52.938 15.095C55.0687 15.6773 54.7927 18.6336 54.4946 20.2238C54.4174 20.6381 54.1634 20.8397 53.755 20.8173C52.0658 20.7277 50.9949 20.0782 50.5422 18.88Z" fill="black"/>
<path d="M154.828 47.1111C154.409 48.0965 153.272 48.5444 152.3 48.1189L152.035 48.0069C151.064 47.5702 150.622 46.428 151.042 45.4425L152.123 42.923C152.543 41.9375 153.68 41.4896 154.652 41.9151L154.917 42.0271C155.888 42.4638 156.33 43.606 155.91 44.5915L154.828 47.1111Z" fill="black"/>
<path d="M23.7587 58.7011C23.8691 58.7795 23.9022 58.9251 23.8359 59.0371L23.571 59.4402C22.7319 60.7504 20.3693 60.6944 18.2937 59.317L16.5273 58.1636C14.4517 56.7862 13.436 54.625 14.2751 53.326L14.5401 52.9117C14.6063 52.7997 14.7498 52.7661 14.8602 52.8445L23.7587 58.7011Z" fill="black"/>
<path d="M8.78811 89.72C7.06583 84.8264 14.805 85.1623 15.5558 89.5184C15.6331 89.9328 15.5447 90.3135 15.3018 90.6606C14.4407 91.9036 13.3919 92.8443 12.1664 93.4602C11.7359 93.673 11.228 93.5834 10.8968 93.225C9.95837 92.2284 9.2518 91.0526 8.78811 89.72Z" fill="black"/>
<path d="M170.395 89.4063L172.217 90.5261C172.901 90.9404 172.835 91.9707 172.117 92.3066L169.6 93.4712C169.313 93.6056 168.971 93.5944 168.695 93.4264L164.687 91.1308C163.804 90.6269 164.157 89.2495 165.184 89.2495H169.887C170.064 89.2607 170.24 89.3055 170.395 89.4063Z" fill="black"/>
<path d="M14.1756 116.472L11.0292 119.059C10.709 119.317 10.2895 119.384 9.9141 119.238L7.04364 118.13C6.17146 117.783 6.06106 116.584 6.84492 116.092L8.07038 115.319C8.20287 115.241 8.34639 115.185 8.50095 115.162L13.3035 114.457C14.4406 114.289 15.0589 115.745 14.1756 116.472Z" fill="black"/>
<path d="M22.9636 124.435C20.314 125.845 17.576 126.73 14.7497 127.088C14.0983 127.178 13.5794 126.54 13.7671 125.901C14.1867 124.457 14.9926 123.505 16.196 123.035C19.1879 121.837 22.235 121.232 25.3483 121.198C25.9776 121.198 26.364 121.904 26.0107 122.441C25.26 123.606 23.9462 123.908 22.9636 124.435Z" fill="black"/>
<path d="M24.7633 142.318C24.3106 142.161 23.9242 141.837 23.6924 141.4C23.2618 140.605 23.3943 139.944 24.0788 139.407C24.3106 139.216 24.8627 139.004 25.7238 138.746C27.0155 138.365 28.1637 137.682 29.1573 136.697C29.7645 136.092 30.3497 135.846 30.9348 135.969C31.4868 136.081 31.818 136.641 31.6524 137.178C31.0673 139.071 30.1068 140.638 28.7819 141.859C27.8214 142.755 26.4745 142.912 24.7633 142.318Z" fill="black"/>
<path d="M149.419 145.431L150.777 147.145C151.008 147.447 151.13 147.817 151.097 148.186L151.008 149.552C150.942 150.526 149.982 151.176 149.065 150.851L147.696 150.37C147.089 150.157 146.692 149.563 146.714 148.914L146.813 146.305C146.857 144.927 148.569 144.356 149.419 145.431Z" fill="black"/>
<path d="M58.3367 165.375L61.6708 165.219C62.6534 165.185 63.3269 166.215 62.9074 167.111L61.7371 169.597C61.4721 170.168 60.8318 170.459 60.2246 170.303L58.5906 169.855C58.149 169.743 57.7957 169.384 57.6743 168.936L57.1443 167.055C56.9125 166.226 57.4976 165.409 58.3367 165.375Z" fill="black"/>
<path d="M81.0354 175.543C80.0528 175.868 78.9488 175.14 78.5734 173.931C78.187 172.721 78.6618 171.478 79.6333 171.154C80.6159 170.829 81.7199 171.557 82.0953 172.766C82.4817 173.976 82.007 175.219 81.0354 175.543Z" fill="black"/>
<path d="M179.581 105.566C177.207 104.368 174.778 103.27 172.305 102.273C170.826 101.68 168.32 99.8546 164.798 96.8199C161.717 94.1659 158.604 92.3742 155.259 90.3026C153.879 89.4403 151.969 89.4515 150.732 88.0181C150.423 87.6486 150.501 87.4358 150.975 87.3798C152.907 87.0999 154.508 86.5624 155.844 85.0618C158.836 81.7023 162.38 79.5747 166.487 78.69C170.097 77.9173 170.263 78.3765 166.984 80.0898C164.787 81.2432 162.016 82.9565 158.659 85.2522C158.361 85.4537 158.019 85.5545 157.666 85.5657C156.308 85.5993 156.186 86.148 157.301 87.2007C157.721 87.6038 158.361 87.671 158.869 87.3686C164.279 84.0428 169.887 81.5344 175.705 79.8434C176.07 79.7427 176.346 79.5299 176.556 79.2051C177.03 78.4549 177.041 77.6822 176.567 76.8983C176.379 76.5736 176.103 76.372 175.739 76.2712C174.513 75.9465 173.277 75.7225 172.018 75.5993C170.483 75.4425 169.313 74.8826 167.977 74.2667C166.763 73.7068 166.299 72.1951 166.984 71.0304C168.529 68.4325 171.521 63.5836 166.123 62.6206C160.591 61.6239 154.839 61.8815 149.474 60.325C149.087 60.2018 149.043 60.0114 149.352 59.7538C150.015 59.1939 150.291 58.858 151.207 58.7348C155.414 58.1637 159.256 57.8614 162.877 54.9722C163.638 54.3675 163.793 53.6284 163.351 52.7662L163.086 52.2287C162.81 51.6911 162.148 51.4896 161.64 51.7919C159.752 52.8781 157.887 53.8748 156.032 54.7818C153.283 56.1144 150.534 57.8725 147.763 60.045C146.835 60.7729 145.488 60.0338 145.588 58.8468C146.261 50.5265 147.1 42.2734 146.89 34.0316C146.791 30.4257 146.813 26.8311 146.957 23.2365C146.99 22.475 146.957 21.6575 146.879 20.7841C146.802 19.9442 145.963 19.4179 145.179 19.7091C143.91 20.1906 142.651 20.7729 141.392 21.456C139.372 22.5534 137.274 23.3821 135.077 23.9532C133.852 24.2667 131.633 24.5243 128.409 24.737C125.274 24.9498 122.171 25.3306 119.091 25.9017C117.413 26.204 115.878 26.9319 114.498 28.0741C112.677 29.5859 110.855 31.1312 109.033 32.7214C108.57 33.1245 108.283 33.0237 108.161 32.419C108.128 32.2846 108.106 32.1503 108.073 32.0159C107.952 31.4112 108.139 30.9185 108.614 30.5377C110.579 28.9812 112.633 27.335 114.774 25.5993C116.751 23.9756 118.705 22.8893 120.615 22.3406C122.944 21.6575 125.351 21.288 127.835 21.2096C130.22 21.1312 130.65 20.1682 129.138 18.2981C128.332 17.3238 127.184 16.8759 125.693 16.9655C125.329 16.9767 125.042 17.1447 124.843 17.4582C123.805 19.082 122.458 20.2578 120.813 20.9856C120.129 21.288 119.356 20.7505 119.411 19.989C119.588 17.2454 120.261 13.7852 119.301 11.2544C119.168 10.9073 118.926 10.6609 118.572 10.5265C118.12 10.3586 117.7 10.4145 117.292 10.6945C116.993 10.9073 116.784 11.2656 116.662 11.7695C116.298 13.2365 116.088 14.7147 116.011 16.2264C115.845 19.4291 114.752 20.4929 112.522 22.3742C111.915 22.8781 111.01 22.643 110.712 21.9151C109.122 18.0405 109.906 13.8412 110.237 9.88823C110.27 9.57468 110.204 9.26113 110.06 8.99237C109.552 8.06292 108.912 7.71577 108.15 7.95094C107.477 8.1637 107.101 8.62283 107.002 9.31712C106.262 14.4571 106.296 19.3731 107.101 24.054C107.3 25.1962 107.002 26.0248 106.207 26.5288C105.743 26.8311 105.125 26.7191 104.783 26.2712C103.337 24.3675 102.211 22.2286 101.416 19.8546C99.2629 13.4269 97.8387 6.60715 94.6701 0.660901C94.1844 -0.257352 92.8706 -0.212559 92.44 0.739289C88.3441 9.77624 83.6078 18.1749 78.2091 25.9353C77.8007 26.5176 77.4915 26.4728 77.2707 25.7897L76.8291 24.4235C76.6304 23.8076 76.6966 23.1357 77.0058 22.5758C78.5183 19.7874 79.9756 15.9465 81.3667 11.0304C81.6647 9.98901 81.2673 9.4291 80.1964 9.36191L79.4677 9.31712C78.3306 9.23873 77.6351 9.76504 77.4032 10.8961C76.8622 13.5164 76.6304 16.6631 76.7298 20.3362C76.7518 21.3328 76.2771 21.7359 75.3056 21.5232C71.585 20.7057 70.0725 13.7404 69.5536 10.4481C69.399 9.4515 68.836 9.04836 67.8755 9.21633C67.5001 9.28352 67.2793 9.50749 67.2131 9.88823C66.5617 13.8076 67.191 17.3798 69.123 20.5937C69.9731 20.7505 70.4699 21.1984 70.6355 21.9375C70.7349 22.3966 70.5914 22.5086 70.1939 22.2734C69.5646 21.9039 69.2003 21.344 69.123 20.5937C69.0126 20.7729 68.9022 20.8961 68.7808 20.9521C68.6814 20.9968 68.56 20.9633 68.3944 20.8401C65.3583 18.5108 61.991 17.3574 58.2815 17.3798C57.9282 17.3798 57.6964 17.559 57.5749 17.8949L56.9236 19.7762C56.8573 19.9778 56.9788 20.1794 57.1775 20.213C60.1142 20.6497 63.0178 21.5232 65.8882 22.811C69.5867 24.4795 73.0975 26.1592 76.4427 27.8725C76.796 28.0517 76.8954 28.3317 76.7298 28.7012L76.4979 29.2387C76.3544 29.5859 76.1115 29.6867 75.7692 29.5187C69.1341 26.3272 63.5919 24.5803 59.1647 24.2667C55.2234 23.9868 51.282 23.6956 47.3406 23.4157C43.2006 23.1133 39.9658 22.1839 36.6868 20.1122C35.925 19.6307 34.9535 20.2578 35.0639 21.1536C35.5607 25.3865 35.8919 29.1715 35.627 33.5948C35.2185 40.3585 34.9425 47.1335 34.81 53.9084C34.81 53.9756 34.7879 54.0316 34.7437 54.0764C34.6885 54.1547 34.6113 54.1995 34.5229 54.2107C34.4567 54.2219 34.3904 54.1771 34.3794 54.11C33.2975 47.7494 31.6966 41.9823 29.5659 36.7975C29.4334 36.484 29.2015 36.2152 28.8924 36.0584C27.8436 35.5321 27.0487 35.8121 26.5188 36.8983C26.32 37.3014 26.309 37.783 26.4967 38.1973C29.2899 44.2779 31.1888 49.6531 32.2045 54.3339C32.8448 57.3014 32.1051 57.7046 29.9964 55.5433C27.3026 52.7886 24.4763 49.821 21.5175 46.6295C21.0538 46.1256 20.4908 45.9353 19.8173 46.0472C18.1171 46.3384 19.1991 48.6788 23.0521 53.0797C23.7477 53.8748 24.4874 54.6363 25.2712 55.3641L28.8814 58.746C29.5659 59.3843 29.4555 59.7762 28.5391 59.9218C25.0725 60.4929 22.0143 62.8222 18.901 63.7292C15.4123 64.7594 11.5372 65.2186 8.43485 67.2902C7.37499 67.9957 7.54059 69.6083 8.71086 70.101L10.0246 70.6385C10.3779 70.7841 10.5215 71.0528 10.4663 71.4336C10.2123 73.0797 9.52784 74.5579 8.41277 75.8681C8.18093 76.1368 7.88284 76.2936 7.52955 76.3384L1.5347 77.0103C0.960613 77.0775 0.463802 77.4582 0.242997 78.0181C-0.342135 79.5187 0.143635 80.4929 1.72239 80.9409C2.14192 81.0528 2.74913 81.0976 3.53299 81.0752C8.18093 80.9073 11.5151 81.4672 15.8981 83.7964C19.1549 85.5321 22.4891 87.0775 25.8784 88.4325C26.0551 88.4996 26.0882 88.7348 25.9447 88.858C22.5995 91.6239 19.3978 94.5019 16.3617 97.4918C13.3698 100.426 8.7219 102.486 2.41792 103.673C1.3691 103.875 1.03789 104.479 1.40222 105.487C1.5347 105.834 1.76655 106.07 2.1088 106.215C5.35463 107.525 8.46797 109.082 11.4599 110.874C16.8475 114.099 19.8284 115.868 20.4025 116.17C24.5205 118.399 28.8703 120.773 33.4299 123.292C34.7879 124.043 34.8873 124.939 33.717 125.969C31.1777 128.22 25.4147 130.101 22.1689 131.243C21.2857 131.557 19.4751 132.766 16.7261 134.871C15.9201 135.487 15.7987 136.215 16.3838 137.055L16.6377 137.425C17.1014 138.097 18.0619 138.141 18.5808 137.514C20.2037 135.532 21.4844 134.334 22.4228 133.92C26.6733 132.049 31.1115 130.123 35.7594 128.141C36.1017 127.996 36.3004 128.108 36.3446 128.488C36.8524 133.225 37.1615 138.197 37.2719 143.404C37.3382 146.473 37.9564 150.538 38.9059 152.833C40.9263 157.749 42.8583 162.531 44.691 167.201C45.254 168.634 47.164 168.847 48.0251 167.581C49.6701 165.174 51.2378 163.785 54.2187 163.001C58.8335 161.781 63.4483 160.493 68.0632 159.16C68.2619 159.104 68.4385 159.284 68.3944 159.485C67.5774 162.833 68.5048 166.058 68.4385 169.004C68.4054 170.56 68.3613 172.038 68.3281 173.427C68.295 174.379 68.7587 174.86 69.6971 174.894L70.7459 174.927C71.596 174.961 71.9604 174.547 71.8389 173.684C71.1655 168.824 70.9888 163.852 71.32 158.768C71.3752 157.996 71.7396 157.436 72.4351 157.1L73.7379 156.473C74.5217 156.092 74.9081 156.35 74.875 157.234C74.7646 160.213 75.2062 163.024 76.1998 165.667C76.5973 166.719 77.2707 166.954 78.2312 166.383C78.3637 166.305 78.4851 166.215 78.6066 166.114C79.3132 165.543 79.6223 164.603 79.3905 163.707C78.5956 160.672 78.4962 158.152 79.1034 156.159C79.7548 154.02 81.0796 151.814 83.1 149.563C83.1993 149.44 83.3208 149.44 83.4422 149.541C83.5637 149.653 83.5747 149.765 83.4864 149.899C82.2168 151.747 81.8855 153.852 82.5148 156.193C83.6961 160.616 85.0983 164.412 86.7212 167.581C86.7322 167.615 87.4498 168.69 88.8519 170.806C90.2651 172.957 90.8171 175.521 90.4969 178.488C90.4086 179.295 91.0269 180 91.8328 180H93.6103C94.6591 180 95.443 179.015 95.2111 177.973C94.1071 173.035 94.8468 169.071 95.9618 162.934C96.4697 160.135 95.8073 157.693 95.6306 154.838C95.6086 154.401 95.741 154.345 96.017 154.67C97.1984 156.014 97.8829 157.458 98.0705 158.992C98.1037 159.362 98.2693 159.664 98.5453 159.899C99.4616 160.706 99.9695 161.322 100.069 161.758C100.831 165.084 101.482 168.466 102.023 171.882C102.166 172.811 103.028 173.449 103.955 173.315C104.739 173.192 105.346 172.598 105.777 171.512C105.92 171.154 105.876 170.818 105.666 170.504C102.63 166.014 100.786 162.161 100.146 158.925C99.4174 155.252 98.6667 151.714 97.9049 148.32C97.8497 148.108 97.9049 148.085 98.0484 148.253C99.6051 150.045 100.941 152.005 102.056 154.121C103.425 156.742 104.595 158.768 105.578 160.213C108.194 164.054 110.38 168.141 112.158 172.475C112.5 173.304 113.107 173.684 113.991 173.606C114.09 173.595 114.178 173.572 114.278 173.561C114.874 173.427 115.216 172.8 115.028 172.217C112.809 165.252 109.652 158.97 105.567 153.36C105.291 152.99 105.368 152.867 105.81 153.013C106.042 153.091 106.24 153.225 106.384 153.416C107.62 155.039 109.111 156.361 110.855 157.369C111.153 157.537 111.297 157.794 111.297 158.13V158.903C111.297 159.216 111.429 159.519 111.65 159.72C114.642 162.565 118.042 165.084 121.873 167.29C122.911 167.884 124.026 168.074 125.23 167.861C125.605 167.805 125.837 167.581 125.936 167.201C126.046 166.742 126.069 166.282 126.002 165.823C125.947 165.454 125.748 165.196 125.395 165.062C121.034 163.483 117.093 161.434 113.593 158.892C111.65 157.492 111.816 157.167 114.079 157.94C118.517 159.429 123.353 161.042 128.597 162.777C132.704 164.121 135.442 166.585 138.588 169.362C139.703 170.336 141.437 169.619 141.558 168.13C142.22 160.135 142.795 152.598 143.269 145.521C143.611 140.392 143.468 135.801 142.861 131.747C142.585 129.967 143.093 129.709 144.362 130.952C147.707 134.233 151.019 137.089 154.298 139.53C157.655 142.016 160.393 144.468 163.561 146.988C164.179 147.481 164.765 147.447 165.317 146.876L165.537 146.641C166.089 146.07 166.045 145.555 165.416 145.095C158.229 139.754 152.885 135.275 149.363 131.68C148.513 130.818 147.752 129.72 147.067 128.41C146.89 128.074 146.979 127.828 147.321 127.671C148.502 127.145 149.761 126.898 151.097 126.932C151.483 126.943 151.825 127.055 152.135 127.279C155.59 129.799 159.09 131.96 162.645 133.763C162.987 133.931 163.362 133.987 163.727 133.931C164.842 133.752 165.482 133.326 165.648 132.654C165.924 131.579 165.537 130.862 164.511 130.493C159.819 128.836 155.778 126.965 152.377 124.894C152.079 124.715 152.112 124.256 152.444 124.132C156.208 122.654 160.072 122.128 164.047 122.565C165.063 122.677 166.045 122.441 166.995 121.859C167.889 121.299 168.242 120.168 167.591 119.328C167.359 119.026 167.05 118.88 166.664 118.892C163.473 118.981 160.437 118.253 157.412 119.205C155.093 119.933 152.543 121.322 150.169 121.658C149.341 121.781 148.513 121.87 147.663 121.938C147.277 121.971 147.222 121.837 147.476 121.546C148.315 120.616 149.176 120.056 150.048 119.843C153.25 119.093 156.44 118.287 159.62 117.447C162.104 116.786 164.179 115.611 166.178 114.032C170.263 110.795 174.171 108.892 177.891 108.298C179.117 108.108 179.812 107.469 179.989 106.394C180.055 106.014 179.923 105.734 179.581 105.566ZM153.78 84.2107C152.94 84.6139 152.223 84.849 152.179 84.737C152.124 84.6251 152.753 84.2107 153.592 83.8076C154.431 83.4045 155.149 83.1693 155.193 83.2813C155.248 83.3933 154.619 83.8076 153.78 84.2107ZM155.358 80.101C152.653 82.3966 149.706 83.1357 146.537 82.307C144.141 81.6799 141.392 79.821 138.29 76.7415C137.904 76.3496 137.97 76.2264 138.5 76.3608C140.244 76.7975 142.165 77.5254 144.252 78.522C145.665 79.2051 147.498 79.7538 149.75 80.1794C151.682 80.5377 153.239 79.7651 154.994 79.3619C156.131 79.1044 156.253 79.3507 155.358 80.101ZM148.381 103.505C148.127 103.393 148.083 103.225 148.248 102.99L149.551 101.322C149.805 100.986 150.147 100.851 150.567 100.918C150.876 100.963 151.119 101.131 151.295 101.434C151.428 101.658 151.472 101.949 151.428 102.296C151.329 103.024 151.174 103.572 150.986 103.92C150.777 104.334 150.467 104.446 150.048 104.256L148.381 103.505ZM146.846 107.716C145.544 108.69 144.329 109.272 144.152 109.015C143.976 108.757 144.892 107.772 146.195 106.809C147.498 105.834 148.712 105.252 148.889 105.51C149.065 105.767 148.149 106.753 146.846 107.716ZM150.236 97.727C148.524 97.0103 147.023 96.9991 145.72 97.7046C145.389 97.8726 145.157 97.783 145.036 97.4358C144.782 96.7415 144.782 96.036 145.036 95.3082C145.168 94.9386 145.422 94.7594 145.797 94.7706C148.039 94.793 149.695 95.5545 150.766 97.0663C151.351 97.8949 151.174 98.1189 150.236 97.727ZM161.751 73.4157C159.156 75.3418 156.418 76.7639 153.161 76.9319C148.922 77.1447 145.014 76.3272 141.448 74.4683C141.061 74.2667 140.851 73.9868 140.807 73.6172C140.752 73.1469 140.962 72.9677 141.414 73.0797C145.599 74.1212 149.971 75.017 154.508 75.7785C154.939 75.8457 155.259 75.5993 155.48 75.0394C155.678 74.5243 155.38 73.9644 154.85 73.8524L141.889 70.9856C141.381 70.8737 141.392 70.1234 141.911 70.0338C145.047 69.4739 147.939 70.6833 150.975 71.0304C153.813 71.3552 156.628 71.7583 159.443 72.2175C160.05 72.3182 160.647 72.1391 161.243 72.0831C163.02 71.9151 163.186 72.3518 161.751 73.4157ZM148.116 64.8042C153.316 65.1962 158.483 65.8009 163.616 66.6184C164.588 66.7751 166.023 66.4504 167.171 66.8871C167.668 67.0775 167.679 67.2902 167.204 67.5254C165.78 68.2197 164.787 69.2163 164.202 70.5041C164.113 70.7057 163.881 70.7953 163.683 70.7057C163.451 70.5937 163.307 70.3921 163.23 70.0898C163.164 69.8098 162.932 69.5971 162.656 69.5523C157.666 68.802 152.753 68.0741 147.928 67.3574C145.853 67.0439 144.362 65.5209 141.978 67.3798C141.9 67.4358 141.834 67.4358 141.779 67.3574C141.724 67.279 141.724 67.2119 141.801 67.1559C143.744 65.5433 145.433 64.6027 148.116 64.8042ZM139.284 54.0204C139.416 47.615 139.516 41.0416 139.571 34.3003C139.582 33.55 139.902 32.8446 140.465 32.3518L141.105 31.7919C141.459 31.4896 141.989 31.7359 142 32.2063C142.121 39.4067 141.933 46.6855 141.448 54.0428C141.26 56.9431 140.377 59.5859 138.809 61.9823C138.599 62.2846 138.5 62.6318 138.511 63.0013C138.566 64.6139 138.058 65.9577 136.987 67.0327C136.656 67.3574 136.557 67.3014 136.7 66.8535C137.076 65.6777 137.661 64.8826 137.815 63.5948C138.191 60.3026 139.217 57.3014 139.284 54.0204ZM134.382 63.0237C132.869 66.204 129.646 68.1301 126.886 70.4145C126.069 71.0752 125.748 70.8849 125.925 69.8434C126.024 69.3171 126.256 68.69 126.643 67.9621C126.963 67.3462 127.427 67.0327 128.034 67.0215C128.365 67.0103 128.685 66.8535 128.906 66.5848C129.999 65.2298 130.783 63.8636 131.235 62.4974C133.874 54.5355 134.647 46.2152 133.576 37.5478C133.41 36.1592 132.019 35.297 130.728 35.7673C121.686 39.0484 112.887 41.7471 105.191 47.7942C104.938 47.9957 104.639 48.1189 104.319 48.1749L101.968 48.5556C101.659 48.6004 101.614 48.5108 101.835 48.2869C107.731 42.1391 113.692 39.1827 121.553 35.8121C126.278 33.7852 130.529 33.0685 134.294 33.662C134.724 33.7292 135.044 33.942 135.276 34.3115C135.861 35.2634 136.204 36.4056 136.292 37.7606C136.822 45.7337 137.893 55.6217 134.382 63.0237ZM119.908 132.229C119.72 131.613 119.952 131.288 120.582 131.277H120.924C121.597 131.266 121.995 131.59 122.105 132.273C122.569 135.196 123.088 138.208 123.662 141.322C123.916 142.688 123.496 143.483 122.403 143.707C121.432 143.908 120.46 143.315 120.195 142.341L119.279 139.048C119.157 138.612 118.903 138.298 118.506 138.108C116.408 137.066 115.669 135.118 116.276 132.24C116.618 130.661 117.115 130.605 117.788 132.072L120.096 137.111C120.195 137.324 120.438 137.413 120.648 137.313L120.979 137.156C121.189 137.055 121.255 136.898 121.189 136.674L119.908 132.229ZM122.492 124.009C122.558 123.326 122.823 122.867 123.297 122.654C123.596 122.52 123.739 122.621 123.717 122.957L123.573 124.771C123.529 125.353 123.275 125.465 122.823 125.107C122.547 124.894 122.436 124.535 122.492 124.009ZM113.24 108.455C112.953 108.197 112.997 108.119 113.372 108.22C115.15 108.735 116.331 109.284 118.252 108.858C123.518 107.716 127.051 104.479 128.873 99.1379C130.253 95.0954 130.584 90.9745 129.866 86.7639C129.855 86.6855 129.8 86.6407 129.712 86.6407L129.436 86.6631C129.182 86.6855 129.083 86.8199 129.116 87.0663C129.524 90.1906 129.414 93.4269 128.784 96.7751C128.784 96.8311 128.74 96.8647 128.685 96.8647H128.299C128.221 96.8647 128.177 96.8199 128.188 96.7415C128.332 92.6206 128.475 88.0965 124.7 85.4761C121.001 82.9117 116 82.6542 109.696 84.6811C108.956 84.9162 108.824 84.7259 109.298 84.0988L111.44 81.2096C111.882 80.6161 112.467 80.269 113.207 80.1906C119.257 79.4963 123.739 77.9061 128.232 83.3149C133.3 89.4291 134.636 96.2488 132.24 103.763C131.467 106.182 129.546 108.6 127.338 110C122.425 113.102 117.733 112.587 113.24 108.455ZM123.419 96.2488L123.165 95.7897C122.734 94.9946 122.304 94.9946 121.851 95.7673C120.924 97.3686 119.621 98.1973 117.954 98.2757C114.554 98.4213 111.153 98.4773 107.753 98.4437C107.223 98.4325 106.814 98.3429 106.538 98.1525C106.152 97.895 106.152 97.3238 106.527 97.0439C110.248 94.3339 115.249 94.8378 119.599 94.8378C120.339 94.8378 120.637 94.4683 120.471 93.718L120.283 92.867C120.107 92.0719 119.621 91.6575 118.815 91.6127C114.587 91.3888 110.678 91.568 107.09 92.1391C106.097 92.307 105.147 92.1503 104.187 92.0383C103.789 91.9823 103.635 91.7695 103.723 91.3776C103.834 90.9073 104.165 90.6161 104.728 90.4929C108.548 89.6867 112.39 89.026 116.265 88.522C118.429 88.2309 120.405 87.391 121.962 89.3283C122.812 90.3809 123.286 91.7471 123.397 93.4269C123.496 95.0058 123.905 96.6855 124.611 98.4437C124.777 98.8468 124.777 99.2947 124.633 99.6979C123.827 101.882 122.26 103.528 119.908 104.636C118.661 105.23 117.225 105.286 115.602 104.815C114.2 104.424 112.644 104.076 110.943 103.796C110.734 103.763 110.667 103.64 110.734 103.449L110.866 103.08C110.943 102.845 111.164 102.688 111.407 102.699C116.099 102.8 120.559 101.971 123.309 98.0853C123.728 97.4918 123.761 96.8871 123.419 96.2488ZM97.938 126.047C96.3593 127.458 93.8311 128.444 90.3534 129.015C84.1598 130.023 81.7531 126.63 79.6444 121.546C77.337 115.98 77.6792 110.493 80.6601 105.107C81.4219 103.752 81.6427 103.83 81.3225 105.353C80.0308 111.624 80.2405 119.911 85.5178 123.852C87.0413 124.983 88.863 125.454 90.9937 125.241C94.4493 124.905 97.0659 123.875 99.3733 121.019C101.073 118.914 102.509 116.63 103.668 114.166C103.723 114.043 103.756 113.92 103.745 113.785C103.745 113.763 103.756 113.752 103.789 113.752H103.8C103.8 113.752 103.867 113.785 103.856 113.83C103.293 118.97 101.316 123.035 97.938 126.047ZM101.89 127.425C99.031 131.221 94.8026 132.867 89.1942 132.363C87.6596 132.217 86.3348 131.736 85.2197 130.918C85.1645 130.885 85.0872 130.851 84.9989 130.829C84.8885 130.795 84.8222 130.762 84.8002 130.717C84.5021 130.202 84.5904 130.123 85.0651 130.471C89.3819 133.684 97.9932 130.079 101.515 127.055C102.752 125.991 102.873 126.114 101.89 127.425ZM69.112 135.689L62.0462 137.805C61.0085 138.119 60.6441 137.749 60.9643 136.697C61.0968 136.26 61.3507 135.902 61.7261 135.622C64.6628 133.483 63.9672 130.963 64.6186 127.906C65.0271 125.98 65.4908 125.969 65.9876 127.873C66.5617 130.045 66.8487 131.624 68.3833 133.404C68.7697 133.864 69.123 134.368 69.4322 134.927C69.6419 135.308 69.5315 135.566 69.112 135.689ZM74.8088 139.619C76.7408 140.034 76.7187 140.314 74.7535 140.437C72.7663 140.56 70.5141 142.15 68.295 142.509C67.0475 142.699 65.8662 142.912 64.7401 143.147C63.7023 143.36 63.6581 143.236 64.6186 142.766C66.915 141.646 72.1812 139.037 74.8088 139.619ZM32.3922 107.66C33.4851 109.575 34.7769 110.717 35.9582 112.475C36.19 112.822 36.1127 112.957 35.7042 112.889C35.1301 112.8 34.7217 112.52 34.4788 112.061C33.6728 110.594 33.176 109.698 31.3875 109.328C28.3735 108.712 25.7901 107.615 23.6373 106.025C23.0852 105.611 23.0852 105.207 23.6483 104.793L26.596 102.632C27.1591 102.217 27.7111 102.24 28.2521 102.677C29.875 103.987 31.255 105.655 32.3922 107.66ZM29.8419 97.5814C30.151 97.4918 30.4712 97.6822 30.5595 97.9957C30.8907 99.2387 30.8686 100.325 30.4932 101.232C30.3387 101.602 30.0848 101.714 29.7204 101.557C28.0534 100.84 28.0534 98.0965 29.8419 97.5814ZM35.4393 94.2891C35.5386 92.1391 36.2452 89.8882 37.5811 87.5366C39.2481 84.6139 40.6613 82.5086 41.8426 81.1984C42.5381 80.4257 43.9954 79.6531 46.2256 78.8692C46.7003 78.7012 46.7665 78.802 46.4022 79.1603C45.9275 79.6307 45.232 79.9778 44.8014 80.4369C40.9925 84.4907 37.559 90.1682 37.9012 95.98C38.0668 98.8356 38.9059 102.363 40.4184 106.562C42.7037 112.901 46.9653 116.63 53.203 117.749C55.6208 118.175 58.69 117.38 61.4169 117.626C61.5715 117.637 61.5715 117.671 61.4169 117.727C57.7405 119.172 54.0973 119.541 50.465 118.836C39.5794 116.73 34.9866 104.155 35.4282 94.2891H35.4393ZM42.0303 71.7135C42.1186 71.6016 42.6706 71.9039 43.2558 72.3966C43.8409 72.8782 44.2383 73.3709 44.139 73.494C44.0507 73.606 43.4986 73.3037 42.9135 72.811C42.3284 72.3294 41.9309 71.8367 42.0303 71.7135ZM54.6824 132.71C55.2454 130.93 55.6208 129.16 55.7864 127.391C55.8306 126.921 55.952 126.473 56.1618 126.047C56.9456 124.39 57.9393 123.841 59.1427 124.401C59.3745 124.513 59.4739 124.782 59.3745 125.017C57.9503 128.276 56.8021 134.894 59.4628 137.57C59.7167 137.828 59.8713 138.13 59.9155 138.5C60.048 139.743 60.622 140.594 61.6377 141.064C62.0794 141.266 62.0794 141.456 61.6267 141.635C59.9486 142.318 58.3036 142.531 56.6917 142.262C56.3274 142.206 56.0624 142.005 55.9079 141.658C54.5941 138.836 53.6998 135.79 54.6824 132.71ZM67.754 112.497C63.7906 114.065 59.3635 114.513 54.4947 113.841C48.1355 112.957 46.1814 109.586 43.7636 103.74C40.8159 96.5736 41.5114 89.9106 45.8392 83.7516C46.2918 83.0909 47.0867 81.7247 48.2018 79.6419C49.4162 77.3798 51.2378 76.0024 53.6557 75.4985C54.4616 75.3306 56.217 75.1178 58.8998 74.8714C59.3524 74.8266 59.4407 74.9834 59.1537 75.353C52.4523 83.9756 42.9025 86.0136 47.7822 100.179C50.2663 107.413 56.206 110.806 63.8789 108.948C65.9434 108.444 68.6373 107.167 71.9825 105.118C73.7378 104.043 74.6873 102.173 76.4758 100.963C76.8512 100.706 76.9616 100.795 76.8181 101.232C76.0342 103.617 74.886 105.868 73.3956 108.007C71.9273 110.09 70.0394 111.59 67.754 112.497ZM95.3988 32.587C94.1844 33.5612 93.0472 34.6251 91.9874 35.7561C91.2035 36.596 90.3534 37.335 89.415 37.9621C88.5538 38.5444 87.781 39.1044 87.0965 39.6531C86.7764 39.9106 86.6329 39.8434 86.677 39.4291C86.8095 38.1413 87.5161 37.4806 88.7857 37.447C89.15 37.4358 89.4702 37.3126 89.7462 37.0775C91.9432 35.2074 93.4999 32.9005 94.4383 30.1794C94.5597 29.8098 94.7805 29.7538 95.0897 29.989C95.6196 30.4033 95.8735 30.9521 95.8625 31.6575C95.8514 32.0383 95.6969 32.3518 95.3988 32.587ZM96.5911 33.494C96.7015 33.3709 96.8892 33.3709 97.0107 33.494L97.0769 33.5612C97.1873 33.6732 97.1983 33.8636 97.0769 33.9868L88.6422 42.755C88.5318 42.8781 88.3441 42.8781 88.2226 42.755L88.1564 42.6878C88.046 42.5758 88.035 42.3854 88.1564 42.2622L96.5911 33.494ZM94.2506 52.7774C100.853 54.2219 105.909 58.4661 107.62 65.2634C109.442 72.5198 107.256 78.7348 101.051 83.9196C100.842 84.0988 100.643 84.0764 100.466 83.8524L100.279 83.6172C100.279 83.6172 100.256 83.55 100.301 83.5164C103.006 81.5232 104.573 79.1156 105.015 76.2824C105.401 73.83 105.313 71.1088 104.739 68.1301C102.696 57.4694 91.2256 53.3709 81.6206 56.372C73.0644 59.0484 68.2508 68.2645 70.0394 76.8871C70.1056 77.2343 69.9952 77.3126 69.6971 77.1223L67.4228 75.6665C67.0254 75.4089 66.7494 75.0058 66.6611 74.5355C66.1642 72.0159 66.2747 69.4963 67.0143 66.9543C70.9778 53.3709 81.8635 50.0786 94.2506 52.7774ZM127.603 44.9834C127.404 43.4045 126.841 43.2589 125.914 44.5467C125.45 45.2074 124.755 45.8233 123.938 46.1032C120.25 47.3686 116.453 48.7796 112.533 50.3362C111.484 50.7505 110.678 50.9521 110.104 50.9185C108.614 50.8401 108.504 50.4145 109.795 49.6419C115.128 46.4056 120.416 43.8076 125.638 41.8255C125.98 41.7023 126.267 41.4896 126.499 41.1984C127.338 40.1794 128.266 39.4851 129.281 39.1156C129.756 38.9476 130.264 39.2947 130.275 39.7986C130.407 44.1323 130.385 48.2085 130.198 52.0271C129.966 56.8087 128.773 61.288 126.632 65.4649C126.521 65.6777 126.234 65.7001 126.091 65.5097C125.693 64.9722 125.572 64.3003 125.737 63.494C126.411 60.1906 127.769 56.9543 127.901 53.7292C128.045 50.6161 127.945 47.7046 127.603 44.9834ZM121.94 56.8871C121.023 58.6452 121.145 60.5489 120.272 62.3854C119.974 63.0125 119.798 62.9789 119.765 62.2846C119.698 61.232 119.743 60.0898 119.908 58.8692C119.93 58.7012 119.853 58.5444 119.72 58.4549L119.4 58.2421C119.257 58.1525 119.157 58.1861 119.091 58.3429C118.793 59.0596 118.495 59.6195 118.186 60.0338C117.689 60.6945 117.457 60.6049 117.49 59.7762C117.568 57.7718 117.137 55.8121 116.199 53.886C116.033 53.5388 116.309 53.1357 116.695 53.1805L118.241 53.3709C118.705 53.4269 119.091 53.774 119.202 54.2331C119.345 54.8266 119.4 55.4537 119.345 56.1144C119.312 56.5176 119.444 56.596 119.765 56.3384C119.897 56.2376 119.985 56.092 120.041 55.9241C120.67 53.6732 121.432 51.5008 122.326 49.3843C122.591 48.7684 123.419 48.69 123.783 49.2499L124.103 49.7426C124.6 50.5153 124.655 51.3104 124.269 52.1391C123.386 54.0204 122.613 55.5993 121.94 56.8871ZM123.452 67.2678C122.988 68.6228 122.337 69.6307 121.995 69.5075C121.652 69.3955 121.752 68.1973 122.216 66.8311C122.679 65.4761 123.331 64.4683 123.673 64.5915C124.015 64.7035 123.916 65.9017 123.452 67.2678ZM113.814 58.8916C115.448 64.1883 116.121 69.3507 115.834 74.3899C115.823 74.5691 115.647 74.6923 115.47 74.6251L115.095 74.4907C114.697 74.3451 114.421 73.9868 114.366 73.5612C113.35 65.1962 112.136 59.6083 107.742 53.9532C107.466 53.606 107.554 53.4605 107.985 53.5164C110.866 53.8636 112.809 55.6553 113.814 58.8916ZM95.6417 75.9688L92.5614 75.6889C92.0536 75.6329 91.8107 75.8681 91.8328 76.3944C91.8659 77.0663 91.6893 77.7718 91.3139 78.4996C91.071 78.9812 90.9496 78.9588 90.9606 78.4101C90.9717 77.5142 91.1152 76.6855 91.3801 75.9353C91.5016 75.5657 91.4464 75.2298 91.1925 74.9498L90.9385 74.6587C90.8061 74.5131 90.5632 74.5243 90.4528 74.6923C88.0791 78.0405 86.412 81.344 85.4736 84.6251C84.9989 86.2488 84.6898 86.2264 84.5242 84.5355C84.1377 80.4929 85.4736 77.0215 88.5318 74.1323C90.2099 72.5534 92.0094 71.8479 93.9304 72.0383C96.0502 72.2511 97.5958 73.662 98.5563 76.2824C99.7155 79.4067 95.8846 82.1503 93.5992 83.7404C93.4005 83.886 93.1245 83.8076 93.0031 83.5836L92.8816 83.3149C92.6939 82.9341 92.7712 82.6318 93.1245 82.3966C95.0897 81.0864 96.1826 79.2611 96.4035 76.8983C96.4587 76.3272 96.2047 76.0136 95.6417 75.9688ZM92.1198 94.849C91.1373 96.0696 89.9339 96.372 88.4876 95.7449C87.0855 95.1402 86.6439 93.3373 87.5933 92.1279C88.4766 90.9968 89.5364 90.2018 90.7729 89.7314C91.1814 89.5635 91.4905 89.6867 91.7003 90.0786C92.5614 91.6911 93.4116 93.2141 92.1198 94.849ZM92.6829 106.954L92.2634 110.291C92.2413 110.459 92.0978 110.571 91.9322 110.549L91.7666 110.527C90.9717 110.426 90.3976 109.72 90.4969 108.959L90.6404 107.794C90.7398 107.033 91.4685 106.495 92.2634 106.596L92.429 106.618C92.5946 106.641 92.705 106.786 92.6829 106.954ZM92.6387 121.131C92.981 121.333 92.9589 121.467 92.5725 121.523C87.9246 122.217 85.043 120.067 83.928 115.084C83.7403 114.256 83.6741 113.46 83.7072 112.699C83.7293 112.262 83.8065 112.251 83.939 112.677C85.3963 117.425 88.7967 118.88 92.6387 121.131ZM92.2413 117.985C89.7793 115.577 87.9135 113.08 87.218 109.631C86.8537 107.805 86.39 105.98 85.838 104.144C85.7496 103.83 85.9042 103.494 86.1912 103.371L86.4672 103.248C86.6549 103.169 86.7764 103.225 86.8426 103.416C87.3505 104.894 88.1012 106.26 89.1059 107.525C89.3267 107.805 89.4591 108.13 89.5033 108.5C89.7572 110.717 90.5742 112.464 91.9542 113.74C93.0914 114.793 94.8909 114.58 95.741 113.281C97.7062 110.314 97.8608 107.257 96.2158 104.11C95.9839 103.662 96.0281 103.214 96.3703 102.777C96.6243 102.453 96.8671 102.453 97.1211 102.766C99.4726 105.734 100.742 109.485 98.9317 113.102C97.7945 115.398 96.0833 117.111 93.798 118.242C93.2791 118.5 92.6608 118.399 92.2413 117.985ZM99.7486 70.6721C98.2141 69.2947 96.7788 68.5332 95.454 68.3989C90.0664 67.8726 85.7938 69.5971 82.6252 73.5948C81.1348 75.4761 80.9471 77.7046 80.9692 80.0898C81.0023 83.5724 80.5938 83.6284 79.7548 80.2466C78.9488 76.9991 79.0703 73.6732 80.1191 70.2802C80.2405 69.8882 80.4282 69.8434 80.7042 70.1458C80.9361 70.4033 81.1017 70.7057 81.201 71.064C81.3225 71.5232 81.455 71.5344 81.5985 71.0752C83.6409 64.7483 90.6073 65.2634 95.9618 66.3832C98.479 66.9095 99.8811 68.2645 100.179 70.4369C100.234 70.9073 100.091 70.9856 99.7486 70.6721ZM70.0614 83.4829C70.1608 83.6284 70.0504 83.8188 69.8848 83.8076C64.6297 83.6396 58.8998 80.5041 55.6098 86.7303C53.0926 91.5008 52.2204 98.1525 57.2327 101.635C59.6174 103.292 64.1991 101.725 66.8819 101.21C69.4542 100.728 69.5978 101.12 67.2904 102.385C64.2984 104.032 61.5053 104.983 58.9218 105.23C54.7597 105.633 51.9775 99.821 51.5028 96.4504C50.5754 89.8994 52.8056 84.6139 58.2042 80.5937C59.1316 79.8882 60.1473 79.6307 61.2624 79.7986C63.6912 80.1682 68.5158 81.1984 70.0614 83.4829ZM63.9341 58.8356C63.901 56.3496 68.03 53.9868 70.3264 53.2029C70.5031 53.1469 70.6245 53.2029 70.6907 53.3709L70.8011 53.6396C70.8011 53.6396 70.8011 53.718 70.757 53.7292C68.008 54.8378 65.9655 56.6072 64.6297 59.0148C64.177 59.8546 63.9452 59.7874 63.9341 58.8356ZM64.2984 87.7942C64.3095 88.0405 63.6581 88.2645 62.8411 88.2981C62.0242 88.3317 61.3507 88.1525 61.3507 87.9061C61.3397 87.6598 61.991 87.4358 62.808 87.4022C63.625 87.3686 64.2984 87.5478 64.2984 87.7942ZM68.7145 98.2421C64.2322 98.0181 56.6144 97.5702 57.2658 91.5456C57.31 91.1648 57.4977 90.8849 57.8289 90.6945C58.7452 90.1906 59.7388 89.9554 60.7877 89.989C61.1078 89.989 61.2182 90.1682 61.1189 90.4705C61.0747 90.5937 61.0085 90.6945 60.9201 90.7841C60.7987 90.9073 60.7545 91.064 60.7987 91.2432C61.3949 93.55 64.8836 97.5254 67.4559 96.8871C70.0062 96.2712 72.2253 96.0584 74.0911 96.2488C74.6763 96.3048 74.7315 96.5064 74.2347 96.8535C72.7442 97.8949 70.9115 98.3541 68.7145 98.2421ZM66.8377 92.9341C66.3298 93.1693 65.7447 93.1581 65.2369 92.9005L62.4768 91.5008C61.98 91.2544 61.991 91.0192 62.4989 90.7953C66.374 89.1044 73.7268 86.8087 76.6966 91.512C77.0389 92.0607 76.9064 92.2622 76.2771 92.1055C72.9761 91.288 69.8296 91.568 66.8377 92.9341ZM70.9778 50.2578C69.377 50.4481 67.5001 50.4369 65.3252 50.2242C64.9388 50.1906 64.7953 49.9778 64.8946 49.6083C64.9277 49.4963 64.9609 49.3843 64.994 49.2611C65.1596 48.7572 64.9829 48.4101 64.4861 48.2421L58.7783 46.26C58.3698 46.1256 57.9172 46.3272 57.7516 46.7415C56.7911 49.1156 58.5906 50.4593 59.1758 52.5422C60.1032 55.8233 60.9864 58.9364 61.8365 61.8591C62.9074 65.5657 62.3774 65.8233 60.2467 62.6094C57.9503 59.1267 57.2989 55.1178 55.6429 51.2992C54.4506 48.522 54.4285 46.2936 54.3402 43.4269C54.3291 43.0461 54.5168 42.8558 54.8922 42.8558C56.2722 42.8558 57.4204 43.0461 58.3588 43.4157C62.5651 45.1066 66.8377 46.7751 71.1876 48.4101C73.6164 49.3283 73.5502 49.9442 70.9778 50.2578ZM74.5217 74.0876C74.0691 75.2522 73.9255 76.7527 74.1022 78.578C74.1243 78.7796 73.9697 78.97 73.771 78.9812L73.3294 79.0036C73.2631 79.0036 73.219 78.9812 73.2079 78.914C72.4241 74.5691 73.2079 70.381 75.5705 66.3496C78.717 60.9856 83.6078 58.6004 90.243 59.1715C94.6922 59.5523 97.7283 61.4896 99.3733 64.9722C100.345 67.0439 100.113 67.1895 98.6667 65.4313C97.938 64.5467 96.8561 63.6844 95.4319 62.867C85.8932 57.3798 77.7455 65.8233 74.5217 74.0876ZM111.142 126.226C111.904 123.304 112.544 120.359 113.041 117.391C113.107 116.999 113.041 116.63 112.875 116.282L112.312 115.129C112.025 114.547 112.147 114.446 112.666 114.815C114.333 116.002 114.101 119.53 113.648 121.49C113.107 123.785 112.611 126.103 112.158 128.421C111.23 133.147 106.163 136.518 101.979 137.783C101.747 137.861 101.581 137.884 101.493 137.873C101.195 137.839 101.184 137.738 101.438 137.581C106.24 134.748 109.497 132.531 111.142 126.226ZM126.676 95.1178C126.841 95.1178 127.018 95.9913 127.062 97.0775C127.106 98.1637 127.018 99.0484 126.852 99.0596C126.687 99.0596 126.51 98.1861 126.466 97.0999C126.422 96.0136 126.51 95.129 126.676 95.1178ZM107.168 37.3238C109.663 35.5769 111.816 33.4157 114.267 32.0831C117.844 30.1346 121.652 29.0932 125.682 28.9476C129.723 28.8132 132.152 28.6228 135.353 28.5668C135.939 28.5668 136.06 28.7908 135.74 29.2723L135.464 29.6755C135.199 30.0674 134.768 30.3138 134.305 30.325C128.111 30.4929 122.414 31.8143 117.236 34.3003C111.816 36.9095 107.179 39.3731 103.326 41.6911C101.548 42.755 99.4395 44.4683 96.9996 46.8087C96.8561 46.9319 96.7347 46.9319 96.6132 46.7863L96.2599 46.3832C96.2599 46.3832 96.2268 46.2936 96.2599 46.26C98.2141 44.5019 100.113 42.8334 101.979 41.2768C103.602 39.9218 105.324 38.6004 107.157 37.3238H107.168ZM105.302 32.1279L106.516 33.3597C106.715 33.5724 106.715 33.9084 106.516 34.1099L103.006 37.6486C97.5848 43.1021 92.7933 47.1223 92.3075 46.6295L92.1309 46.4504C91.6451 45.9465 95.6417 41.12 101.062 35.6553L104.573 32.1279C104.772 31.9151 105.103 31.9151 105.302 32.1279ZM91.9984 10.2018C92.1971 9.78744 92.3848 9.78744 92.5504 10.2242C92.9037 11.12 93.0803 11.9375 93.544 12.8222C96.2379 17.9845 98.9427 23.2701 101.659 28.69C101.824 29.026 101.857 29.4179 101.747 29.7874C101.559 30.3921 101.228 30.7953 100.764 30.9856C100.201 31.2208 99.561 30.9633 99.3402 30.3921C96.7236 23.8636 94.2617 17.7046 91.9432 11.9263C91.7113 11.344 91.7224 10.7729 91.9984 10.2018ZM81.1569 29.8098L90.1436 13.7068C90.9165 12.307 91.1814 12.4078 90.9275 13.9868C90.4748 16.9319 90.8502 20.1458 88.7747 22.643C87.6265 24.0204 86.5777 25.6441 85.6171 27.4918C85.0872 28.5108 84.9106 29.5523 85.0872 30.6273C85.308 31.9151 85.6834 33.0461 86.2244 34.0092C86.39 34.3115 86.5776 34.3227 86.7874 34.0316C88.8188 31.1536 89.956 28.0517 90.1878 24.7259C90.254 23.7628 90.6846 23.1021 91.4685 22.7326C91.8549 22.5422 92.164 22.6318 92.4069 22.9789C93.4226 24.4235 93.8421 26.0248 93.6544 27.7942C93.6103 28.1749 93.4336 28.4661 93.1135 28.6564C90.519 30.3138 88.587 33.886 86.7322 36.3048C86.4562 36.6631 85.8932 36.5288 85.7938 36.092C85.1866 33.4605 83.7624 31.7023 81.5212 30.8289C81.1238 30.6721 80.9471 30.1906 81.1569 29.8098ZM79.6444 32.251L79.6775 32.2286C79.8873 32.0831 80.1743 32.1279 80.3289 32.3406L85.032 39.0036C85.1755 39.2163 85.1314 39.5075 84.9216 39.6643L84.8885 39.6867C84.6787 39.8322 84.3917 39.7874 84.2371 39.5747L79.534 32.9117C79.3904 32.699 79.4346 32.4078 79.6444 32.251ZM48.6655 28.1301C55.4221 28.6564 61.991 29.8658 68.3613 31.7695C69.6419 32.1503 70.7459 32.7886 71.6733 33.6732C74.4886 36.3608 76.7739 39.0708 78.5514 41.8143C78.706 42.0607 78.6618 42.2622 78.43 42.4302L78.1871 42.587C78.1319 42.6206 78.0987 42.6094 78.0656 42.5534C75.3939 38.3541 71.9824 35.6665 67.8313 34.4683C62.256 32.8669 55.7975 31.7247 49.6701 30.7505C48.8863 30.6273 48.3674 30.1794 48.1355 29.4067C48.0914 29.2611 48.0472 29.1155 48.0031 28.97C47.8154 28.3541 48.0362 28.0741 48.6655 28.1301ZM48.1576 34.6699C48.3453 34.3451 48.6213 34.2107 48.9856 34.2667C53.7329 35.0058 58.3367 35.3418 62.797 36.8871C68.9243 39.0036 73.3294 41.064 77.8227 45.1514C78.2754 45.5545 78.5293 46.0136 78.5956 46.5288C78.706 47.3686 77.8007 47.9509 77.0941 47.503C70.1167 43.0349 62.3333 39.821 53.7329 37.839C52.9491 37.6598 52.1321 37.9845 51.6905 38.6676C46.7886 46.1816 52.1321 59.8098 56.7138 66.3944C57.9282 68.1413 57.5749 68.5668 55.665 67.6822C53.8765 66.8423 52.2315 65.4201 50.719 63.3933C44.8455 55.4985 42.9577 43.494 48.1576 34.6699ZM41.7101 30.4257C41.8095 30.0674 42.2621 29.9666 42.4829 30.2578C42.6044 30.4145 42.6927 30.5489 42.77 30.6497C43.2226 31.2432 43.4214 31.9263 43.3441 32.6766C42.9797 36.2376 42.5933 39.4291 42.1849 42.2399C40.849 51.1648 43.4876 61.9599 49.372 68.8468C49.9793 69.5635 49.8247 69.989 48.9084 70.1346L48.3784 70.213C47.5946 70.325 46.9542 70.0674 46.4574 69.4403C41.4783 63.1581 39.0715 55.9465 39.2481 47.8278C39.3806 42.0719 40.1976 36.2712 41.7101 30.4257ZM37.7467 73.5164C38.8728 73.5724 39.745 74.2891 39.7118 75.129C39.6677 75.9688 38.7293 76.6072 37.6142 76.5624C36.4881 76.5064 35.6159 75.7897 35.649 74.9498C35.6932 74.11 36.6316 73.4717 37.7467 73.5164ZM35.1412 72.1615C31.2661 72.4526 27.5013 72.587 23.8691 72.5534C23.0411 72.5534 23.03 72.4414 23.8249 72.2175C26.6623 71.4224 29.6211 70.8513 32.6792 70.5041C34.0372 70.3474 34.9756 70.4257 35.4724 70.7281C36.8745 71.568 36.7641 72.0383 35.1412 72.1615ZM33.5735 56.7975L33.9157 56.4056C34.0813 56.2152 34.2028 56.2488 34.269 56.4952L34.8652 58.8132C35.0308 59.4403 34.9204 59.4963 34.534 58.97L33.5403 57.5926C33.3416 57.3126 33.3527 57.0551 33.5735 56.7975ZM11.7911 69.8546C17.6755 67.4806 23.9353 65.4985 30.5705 63.8972C30.6147 63.8972 30.6588 63.8972 30.692 63.9196C31.5089 64.5131 33.1098 66.0472 35.5055 68.522C35.6159 68.6452 35.5938 68.69 35.4393 68.6788C31.7297 68.4325 29.058 68.6788 27.413 69.3731C23.9133 70.8737 14.3855 74.8714 11.4488 71.176C11.0955 70.7281 11.2612 70.0674 11.7911 69.8546ZM15.6993 79.0148C14.5843 78.1749 14.7167 77.727 16.1189 77.671L19.0224 77.559C19.2653 77.5478 19.3647 77.4134 19.3205 77.1783C19.2874 77.0327 19.2101 76.9095 19.0887 76.8311C19.0335 76.7863 19.0335 76.7415 19.0997 76.7079C19.7953 76.3496 20.281 76.1592 20.535 76.1256C25.3816 75.5433 30.1068 75.0954 34.7106 74.7818C35.1301 74.7594 35.2185 74.9162 34.9756 75.2634C34.5892 75.8121 34.6002 76.3608 34.9977 76.9319C35.2626 77.3126 35.1633 77.503 34.6996 77.503C31.6525 77.4806 28.8372 78.914 26.0992 79.0708C24.1893 79.1715 22.3345 79.1379 20.5239 78.9476C18.6581 78.7572 18.5367 79.1267 20.1596 80.0786C22.9748 81.7359 26.4746 82.3406 30.6588 81.9039C30.9349 81.8703 31.1005 81.7247 31.1667 81.4672C31.4648 80.3586 32.3922 79.9666 33.9709 80.2914C34.4346 80.3921 34.4898 80.5937 34.1365 80.9073C32.8779 82.0271 31.5641 83.1021 30.1952 84.1323C29.4003 84.7259 28.6054 84.9834 27.8215 84.905C23.9574 84.5019 18.6912 81.2544 15.6993 79.0148ZM40.6392 120.079L40.3853 120.426C40.0651 120.862 39.6566 120.952 39.1819 120.717C33.3416 117.783 27.1701 115.521 21.9481 111.523C20.2479 110.224 18.36 107.973 16.1409 106.652C15.4896 106.26 15.3902 105.342 15.9533 104.815C19.9498 101.086 23.6704 97.1895 27.1039 93.1133C27.4461 92.699 28.1969 92.2511 29.3561 91.7919C29.4996 90.7953 29.886 90.1458 30.5153 89.821C30.8134 89.6755 30.9238 89.765 30.8686 90.0898C30.7692 90.7057 30.2614 91.2768 29.3561 91.7919C29.6652 92.2846 29.7535 92.6542 29.6321 92.8893C28.5833 94.7818 27.3357 96.5064 25.8674 98.0629C25.0062 98.9812 23.9795 100.314 22.7982 102.049C21.8046 103.505 20.5791 104.703 19.1108 105.633C18.8127 105.823 18.7685 106.249 19.0335 106.495C22.3676 109.541 25.9778 112.285 30.2724 113.808C34.004 115.129 37.4376 117.021 40.5619 119.474C40.7496 119.619 40.7827 119.899 40.6392 120.079ZM47.6718 156.372L47.3848 156.652C47.3075 156.73 47.2192 156.742 47.1198 156.674C40.1424 151.4 40.5399 140.616 41.4231 132.385C41.8095 128.791 43.1233 125.935 45.3865 123.819C45.7067 123.516 45.795 123.584 45.6736 124.009C44.8014 126.954 44.7683 130.694 44.4923 133.08C43.8078 138.992 43.4324 151.154 47.6829 155.879C47.8375 156.047 47.8375 156.215 47.6718 156.372ZM48.8863 153.169C47.8485 144.961 47.5173 136.63 47.8816 128.175C47.9589 126.17 48.1466 124.703 48.4226 123.763C48.5882 123.225 48.9415 122.979 49.4935 123.013L50.0676 123.069C50.5423 123.102 50.6858 123.348 50.5092 123.785C49.9682 125.174 49.7033 126.26 49.7143 127.055C49.8578 133.561 50.9618 140.112 53.0264 146.708C53.203 147.268 53.5673 147.637 54.1193 147.817C54.8701 148.063 55.6429 148.052 56.4378 147.783C61.6157 146.025 66.7715 144.782 71.8831 144.043C73.4508 143.808 75.2504 143.27 77.2928 142.408C77.5357 142.307 77.7786 142.307 78.0215 142.419L79.5781 143.136C79.8873 143.281 79.8762 143.416 79.5561 143.539L50.7521 154.312C49.913 154.625 48.9967 154.065 48.8863 153.169ZM80.2074 147.111C77.1934 150.011 73.6826 152.374 69.675 154.211C65.5129 156.114 59.794 158.231 54.1745 159.709C53.1478 159.978 52.1652 160.381 51.2489 160.907C50.9066 161.098 50.4761 160.974 50.2994 160.627C50.2332 160.504 50.2111 160.37 50.2442 160.213C50.3105 159.866 50.5092 159.664 50.8404 159.597C51.5139 159.474 51.9886 159.25 52.2756 158.936C53.6115 157.503 55.2123 156.439 57.056 155.756C62.3333 153.808 65.7116 152.161 70.0283 150.75C73.5391 149.597 76.0232 148.097 79.0813 146.473C79.2248 146.394 79.3794 146.35 79.534 146.338C79.6996 146.327 79.8321 146.316 79.9204 146.316C80.3178 146.338 80.4945 146.831 80.2074 147.111ZM91.9542 170.694C89.0065 164.367 86.5114 157.357 84.469 149.664C84.3696 149.306 84.3917 148.959 84.5352 148.612C84.9437 147.57 85.5067 146.798 86.2244 146.271C86.6991 145.924 86.8426 146.036 86.666 146.607C86.3016 147.783 86.1912 148.88 86.3568 149.877C87.1407 154.569 88.6311 159.015 90.8281 163.192C92.1198 165.655 92.3848 167.895 92.7823 170.437C93.1024 172.486 92.8264 172.576 91.9542 170.694ZM88.8298 143.92C88.8078 143.337 88.9403 143.304 89.2163 143.808C90.1547 145.476 90.7619 147.223 91.0379 149.037C91.6672 153.136 92.0867 157.257 92.2744 161.389C92.2854 161.546 92.2082 161.635 92.0426 161.658C91.877 161.68 91.7886 161.613 91.7555 161.456C91.1041 158.096 90.3092 154.883 90.1216 151.366C90.0112 149.239 89.9891 147.301 89.139 145.308C88.9513 144.871 88.8409 144.401 88.8298 143.92ZM79.8762 136.025C77.348 134.681 75.0848 131.848 73.0865 127.537C71.5077 124.132 71.298 121.042 72.4461 118.276C72.943 117.089 73.3183 117.133 73.5502 118.399C74.1574 121.568 75.3828 124.58 77.2376 127.425C81.6316 134.2 87.7589 136.54 95.3767 134.065C98.6777 132.99 103.237 129.944 103.469 126.394C103.491 126.025 103.591 125.678 103.756 125.353C106.119 120.683 107.013 115.846 106.428 110.851C106.329 109.967 106.549 109.877 107.112 110.56C110.259 114.412 109.409 120.101 108.095 125.073C106.748 130.157 103.867 133.852 99.4395 136.148C92.9368 139.541 86.4231 139.496 79.8762 136.025ZM134.382 160.538C129.447 158.712 124.236 156.91 118.727 155.129C113.505 153.46 107.422 149.631 100.466 143.662C100.19 143.427 100.146 143.013 100.367 142.733L100.566 142.475C100.786 142.173 101.217 142.139 101.493 142.397C105.699 146.406 109.53 149.216 112.986 150.829C116.397 152.408 123.165 154.86 133.3 158.186C133.477 158.242 133.598 158.354 133.675 158.522L134.525 160.381C134.57 160.482 134.481 160.571 134.382 160.538ZM137.241 155.868C137.164 156.417 136.91 156.506 136.502 156.126L136.016 155.666C135.795 155.454 135.519 155.286 135.232 155.185C129.171 153.046 123.132 150.941 117.104 148.869C113.715 147.693 110.502 145.588 107.477 142.531C106.605 141.646 106.781 141.142 108.018 141.019L109.166 140.896C110.259 140.784 111.341 141.142 112.169 141.87C114.035 143.516 116.331 144.67 119.058 145.342C122.977 146.305 126.886 147.257 130.794 148.197C130.926 148.231 131.015 148.175 131.059 148.052C131.103 147.917 131.059 147.828 130.926 147.783C128.762 147.055 128.111 145.599 128.001 143.281C127.725 137.313 127.415 131.344 127.051 125.375C126.974 124.076 126.941 123.404 126.952 123.36C127.625 120.37 128.387 120.347 129.237 123.292C129.458 124.043 129.679 125.207 129.9 126.798C130.772 133.113 131.39 139.519 131.776 146.014C131.876 147.593 132.218 148.892 132.814 149.888C133.642 151.266 134.559 152.318 135.574 153.024C135.972 153.292 136.082 153.203 135.894 152.766C135.707 152.307 135.475 151.859 135.199 151.434C135 151.12 134.901 150.773 134.901 150.403C134.823 140.605 134.062 130.874 132.615 121.198C132.571 120.896 132.902 120.672 133.156 120.851C134.183 121.557 134.879 122.587 135.243 123.92C138.147 134.435 138.809 145.084 137.241 155.868ZM138.831 107.245C135.519 114.3 126.135 120.191 118.307 117.178C117.402 116.831 117.435 116.607 118.396 116.518C133.421 115.107 139.493 105.667 136.336 91.0192C135.298 86.204 132.682 82.6206 128.486 80.269C126.786 79.3171 126.875 79.0931 128.74 79.6083C137.959 82.1055 141.006 90.7841 140.531 99.8098C140.388 102.677 139.814 105.151 138.831 107.245ZM142.32 128.5C142.265 129.015 142.121 129.037 141.9 128.578C141.613 127.985 141.459 127.413 141.448 126.842C141.437 126.271 141.591 126.226 141.889 126.708C142.243 127.279 142.386 127.873 142.32 128.5ZM140.487 114.457C140.487 114.457 140.454 114.457 140.443 114.424L140.322 114.121C140.266 113.976 140.31 113.875 140.443 113.808C143.534 112.307 146.659 110.885 149.827 109.552C152.808 108.287 155.16 106.73 157.754 104.972C157.975 104.815 158.151 104.625 158.284 104.39C158.361 104.278 158.427 104.166 158.494 104.043C158.615 103.819 158.759 103.796 158.935 103.976C159.112 104.155 159.322 104.278 159.554 104.334C159.995 104.435 160.26 104.267 160.348 103.808L160.613 102.441C160.691 102.005 160.547 101.68 160.183 101.445C158.284 100.235 156.142 99.5971 154.453 98.4437C153.018 97.4694 151.638 96.4392 150.324 95.353C150.004 95.0954 150.048 94.9946 150.456 95.0618C152.322 95.3754 154.089 96.036 155.778 97.0439C158.681 98.7908 161.596 100.515 164.533 102.206C165.184 102.587 165.681 103.225 166.012 104.11C166.156 104.479 166.034 104.603 165.67 104.491C165.019 104.3 164.378 104.065 163.749 103.796C163.418 103.651 163.12 103.718 162.866 103.976C160.293 106.63 157.279 108.6 153.846 109.911C149.441 111.59 144.992 113.102 140.487 114.457ZM152.146 98.802C154.265 100.482 157.599 103.113 154.806 105.476C154.42 105.801 154.199 105.711 154.122 105.207C153.934 103.964 153.901 103.091 153.194 101.971C152.565 100.974 152.124 99.9778 151.881 98.9812C151.803 98.6676 151.892 98.6116 152.146 98.802ZM166.123 110C164.235 112.061 162.203 113.494 160.028 114.312C155.314 116.092 151.616 117.581 148.944 118.78C146.791 119.743 145.378 119.451 143.17 119.284C142.761 119.25 142.728 119.127 143.082 118.903C146.073 117.021 149.904 115.89 152.234 114.838C154.961 113.606 157.677 112.397 160.404 111.21C162.755 110.191 164.566 109.597 165.847 109.451C166.421 109.384 166.509 109.563 166.123 110Z" fill="black"/>
</g>
<defs>
<clipPath id="clip0_2119_1189">
<rect width="180" height="180" fill="white"/>
</clipPath>
</defs>
</svg>
