<svg width="667" height="679" viewBox="0 0 667 679" fill="none" xmlns="http://www.w3.org/2000/svg">
<g clip-path="url(#clip0_208_139)">
<path fill-rule="evenodd" clip-rule="evenodd" d="M256.28 150.79C251.441 147.546 246.546 143.774 241.69 140.031C229.368 130.537 217.297 121.234 207.029 121.234C179.684 121.234 189.066 149.743 195.847 170.346C197.405 175.079 198.825 179.395 199.631 182.852C169.555 180.351 137.281 164.386 111.665 150.052C110.741 149.535 109.587 148.835 108.248 148.022C97.2174 141.33 73.5847 126.994 62.0394 143.921C53.172 156.92 60.6375 168.73 69.6752 183.028C71.1232 185.318 72.6115 187.673 74.0794 190.106C77.0064 194.947 79.7089 199.7 82.4599 204.539C85.5241 209.928 88.6489 215.425 92.2111 221.265C96.1065 227.648 100.302 232.747 104.362 237.681C107.514 241.512 110.584 245.243 113.369 249.398C79.98 250.139 87.2183 287.437 110.908 293.76V298.689C105.529 299.137 100.639 300.429 94.9228 301.939C84.7741 304.621 72.0196 307.992 49.2907 308.547C38.7542 308.82 28.2508 309.848 17.8609 311.621C5.54223 313.954 0 319.488 0 333.193C0 349.309 18.3997 356.721 32.5098 362.405C34.9786 363.4 37.3161 364.341 39.4007 365.267C43.3502 367.022 48.0396 369.515 53.0926 372.2C65.4408 378.763 79.9604 386.48 91.16 387.412C89.9022 392.124 85.2102 395.566 80.3295 399.146C72.3248 405.018 63.8126 411.263 69.1106 424.09C72.4391 432.132 77.4637 435.365 87.9191 437.476C93.8798 438.679 99.7609 440.149 105.609 441.612C109.011 442.462 112.402 443.31 115.789 444.101C106.842 457.46 92.1355 468.13 78.8205 477.791C63.0568 489.228 49.243 499.251 49.243 510.647C49.243 538.965 78.545 534.06 103.375 529.903C108.568 529.034 113.566 528.197 118.059 527.704C131.732 526.202 142.954 523.438 154.621 520.565C158.045 519.722 161.507 518.87 165.08 518.037C163.981 522.759 162.675 525.57 161.468 528.168C159.434 532.548 157.683 536.319 157.683 547.611C157.683 552.588 164.403 562.398 174.938 562.398C183.807 562.398 189.134 560.004 194.585 557.555C199.413 555.385 204.337 553.172 211.902 552.54C210.538 568.955 205.552 585.242 201.097 599.792C191.673 630.579 184.628 653.59 219.3 653.59C226.589 653.59 246.775 633.827 263.534 617.42C273.101 608.052 281.552 599.779 285.846 596.902C287.662 604.73 290.202 608.846 294.542 615.312C307.474 634.471 322.261 629.55 334.357 608.44C339.74 599.06 344.159 592.562 352.393 587.044L369.115 636.86C369.294 637.509 369.477 638.178 369.665 638.865L369.667 638.872C373.84 654.14 380.435 678.268 396.755 678.268C417.792 678.268 422.007 657.051 425.526 639.338C425.737 638.277 425.945 637.229 426.154 636.199C426.993 632.067 427.951 627.768 428.935 623.353C432.398 607.817 436.179 590.855 436.179 574.757C438.862 576.552 441.723 579.405 444.715 582.39C450.523 588.184 456.829 594.473 463.293 594.473C485.067 594.473 483.698 575.951 482.585 560.897C481.484 546.013 480.634 534.519 502.654 547.675C505.598 549.435 510.382 553.097 516.183 557.537C544.325 579.079 596.385 618.93 578.183 548.631C572.887 528.214 565.442 512.001 556.946 495.892C575.722 495.892 590.979 490.541 594.714 474.392C597.921 460.559 590.191 451.179 582.904 442.335C580.673 439.627 578.484 436.97 576.662 434.251C579.231 434.251 582.388 434.324 585.967 434.407C615.258 435.087 672.753 436.423 666.452 403.561C662.988 385.509 610.051 348.139 598.847 345.527V340.598C623.544 338.542 623.537 324.799 623.532 313.997V313.524C623.532 303.339 611.395 298.339 599.527 293.449C591.157 290 582.921 286.607 579.17 281.489L624.933 255.745C627.681 254.109 630.554 252.592 633.423 251.077C646.984 243.915 660.48 236.788 660.48 217.347C660.48 196.144 595.027 198.545 562.847 199.725C557.236 199.931 552.636 200.1 549.572 200.1C550.086 198.174 551.7 195.517 553.611 192.373C559.071 183.388 566.951 170.42 558.498 159.13C552.349 150.912 542.806 152.829 530.623 155.276C523.764 156.653 516.069 158.199 507.671 158.199C509.68 154.014 511.482 149.882 513.278 145.764L513.279 145.763C515.413 140.871 517.538 136 519.989 131.085C523.3 124.459 526.49 118.805 529.76 113.011L529.762 113.009C531.407 110.092 533.073 107.14 534.785 104.011C535.647 102.43 536.715 100.688 537.853 98.8344C541.873 92.2807 546.754 84.3251 546.419 77.1435C546.082 71.6925 543.662 66.5798 539.66 62.8637C535.657 59.1476 530.38 57.1127 524.919 57.1804C504.161 57.1804 451.771 97.1062 428.081 115.16C421.9 119.871 417.672 123.092 416.471 123.727C401.333 58.7201 379.995 88.9601 367.313 106.933C364.218 111.319 361.639 114.975 359.791 116.337C342.21 83.1111 337.415 55.6117 333.952 35.757C330.017 13.1909 327.804 0.5 310.5 0.5C293.531 0.5 286.603 20.5162 278.264 44.6092V44.6106C276.226 50.5005 274.103 56.634 271.728 62.7783C263.77 83.3738 256.289 123.431 256.28 150.79ZM256.28 150.79V150.841L256.32 150.817L256.28 150.79ZM325.245 281.457C316.521 280.732 308.077 281.481 301.351 284.889H301.327C271.784 224.18 267.659 123.6 291.501 64.7612C297.195 50.713 301.105 40.0205 303.871 32.4532C307.434 22.7089 309.102 18.1465 310.249 18.274C311.258 18.3862 311.864 22.1339 313.002 29.1814C313.603 32.9023 314.353 37.543 315.389 43.0541C319.506 64.9284 324.921 93.6508 337.901 115.151C349.176 133.784 362.968 171.202 368.16 208.317C372.635 240.376 371.799 266.487 355.65 288.473C349.912 286.463 343.266 284.475 336.414 283.088C336.66 253.395 335.52 227.12 332.996 204.264C330.389 180.683 326.307 160.609 320.749 144.04C320.515 143.343 320.147 142.698 319.665 142.143C319.182 141.588 318.595 141.133 317.937 140.805C317.279 140.477 316.563 140.281 315.829 140.23C315.096 140.178 314.359 140.272 313.661 140.505C312.964 140.738 312.319 141.106 311.764 141.589C311.209 142.071 310.754 142.658 310.426 143.316C310.098 143.974 309.902 144.691 309.851 145.424C309.799 146.158 309.893 146.894 310.126 147.592C315.429 163.364 319.339 182.663 321.855 205.491C324.298 227.637 325.428 252.959 325.245 281.457ZM484.471 172.198C481.814 184.228 478.984 197.041 466.423 223.933C441.467 233.002 416.891 245.021 395.627 259.585C399.085 253.436 401.549 247.988 403.802 242.996C409.902 229.507 414.289 219.808 436.036 208.142C437.343 207.44 438.318 206.247 438.746 204.826C439.174 203.405 439.02 201.873 438.317 200.565C437.615 199.258 436.422 198.283 435.002 197.856C433.581 197.428 432.048 197.582 430.741 198.284C405.649 211.749 400.609 222.89 393.593 238.401L393.534 238.533C390.966 244.176 388.105 250.462 383.665 257.779C386.032 241.813 385.441 224.049 382.939 206.271C382.613 203.963 382.321 202.376 382.11 201.229C381.807 199.577 381.672 198.841 381.843 198.185C381.981 197.658 382.318 197.182 382.924 196.325C383.211 195.919 383.559 195.427 383.974 194.804C409.942 156.001 444.883 120.996 479.92 101.008C486.337 97.3453 491.986 94.0874 496.934 91.2338L496.938 91.2316C516.948 79.6922 525.496 74.7632 526.974 76.3638C528.077 77.5573 525.249 82.3816 520.313 90.8018V90.8032L520.312 90.8041C518.333 94.1803 516.015 98.1346 513.476 102.665C490.953 142.846 487.852 156.888 484.471 172.198ZM417.786 304.181C437.529 298.236 455.305 292.06 471.113 285.654C493.096 276.741 511.307 267.355 525.747 257.497C526.973 256.66 527.816 255.371 528.092 253.913C528.367 252.455 528.052 250.947 527.216 249.721C526.38 248.495 525.091 247.651 523.632 247.376C522.174 247.1 520.666 247.415 519.44 248.252C505.675 257.637 488.156 266.643 466.885 275.27C445.475 283.944 420.291 292.215 391.332 300.083C390.622 300.275 389.957 300.605 389.374 301.055C388.792 301.504 388.304 302.064 387.938 302.702C387.825 302.899 387.725 303.102 387.637 303.31C383.444 300.754 379.111 298.432 374.657 296.356C421.081 248.14 511.692 217.69 576.988 218.184C624.67 218.542 641.233 220.134 641.289 222.523C641.276 224.693 630.361 230.729 616.127 238.6C596.031 249.714 569.32 264.486 557.336 277.197C547.589 287.533 530.405 301.054 510.083 313.357C510.063 313.36 509.907 313.325 509.625 313.256C509.445 313.213 509.214 313.156 508.933 313.087H508.932C501.648 311.294 460.962 301.28 417.786 304.181ZM408.173 343.162C408.125 343.391 408.075 343.619 408.022 343.847C440.67 358.18 470.181 383.24 495.097 411.851C526.14 413.408 541.075 410.744 554.903 408.278C573.038 405.043 589.269 402.148 637.435 409.557C643.167 410.44 647.665 411.379 650.894 412.053C654.698 412.848 656.742 413.275 656.972 412.809C657.238 412.267 655.056 410.521 650.34 406.746C644.99 402.465 636.38 395.574 624.384 384.872C573.723 339.786 475.229 310.435 405.155 320.412C406.954 323.948 408.116 327.738 408.62 331.613C430.586 338.462 444.515 338.683 456.014 338.854C473.047 339.117 485.27 339.308 507.607 356.962C508.182 357.416 508.662 357.98 509.019 358.619C509.377 359.259 509.605 359.963 509.69 360.691C509.775 361.419 509.717 362.157 509.517 362.862C509.317 363.567 508.981 364.226 508.526 364.802C508.072 365.377 507.509 365.857 506.869 366.214C506.229 366.572 505.525 366.8 504.797 366.885C504.069 366.97 503.331 366.912 502.626 366.712C501.921 366.512 501.262 366.176 500.687 365.721C481.321 350.416 470.69 350.249 455.887 350.026C444.116 349.847 429.967 349.629 408.173 343.162ZM389.517 372.976C419.872 416.346 428.804 474.366 430.405 484.766L430.406 484.771C430.561 485.782 430.647 486.342 430.677 486.392C449.788 500.479 468.899 511.197 482.15 516.261C517.381 529.698 539.106 550.568 551.96 562.916C558.15 568.862 562.284 572.833 564.877 573.045C565.268 573.075 565 572.53 564.504 571.52C563.828 570.143 562.729 567.902 562.297 565.082C554.86 515.895 503.562 439.872 467.267 403.713C448.411 384.944 426.712 368.349 402.425 357.647L397.242 363.802C397.244 363.805 397.246 363.807 397.248 363.81C414.766 388.081 431.388 408.732 447.112 425.762C462.687 442.643 477.286 455.857 490.908 465.402C492.121 466.246 492.949 467.539 493.21 468.994C493.471 470.449 493.142 471.948 492.298 473.161C491.453 474.375 490.161 475.203 488.706 475.463C487.25 475.724 485.751 475.396 484.538 474.551C470.204 464.502 454.995 450.766 438.91 433.343C423.468 416.604 407.113 396.352 389.845 372.586L389.517 372.976ZM334.444 511.619C344.164 538.542 350.707 549.048 357.14 559.377C364.936 571.896 372.571 584.155 385.503 625.067C387.004 629.817 388.326 634.183 389.509 638.092L389.512 638.101L389.514 638.108L389.515 638.11L389.516 638.116C399.537 671.223 399.613 671.475 414.966 593.765C427.603 529.941 415.507 436.162 377.341 381.679L371.121 384.455C371.608 385.296 371.87 386.257 371.87 387.245C371.87 413.021 376.465 427.35 380.206 439.02L380.255 439.172C385.463 455.392 389.198 467.042 379.634 493.837C379.135 495.239 378.099 496.384 376.755 497.022C375.411 497.659 373.869 497.737 372.467 497.238C371.066 496.738 369.921 495.703 369.283 494.358C368.645 493.014 368.568 491.472 369.067 490.071C377.38 466.805 374.132 456.684 369.61 442.591L369.609 442.588L369.585 442.513C367.115 434.803 364.298 426.009 362.512 413.837C359.665 445.948 348.846 480.861 334.404 511.619H334.444ZM240.418 479.074C233.59 506.595 233.136 519.384 232.678 532.25C232.137 547.46 231.593 562.776 220.51 602.667C219.187 607.423 217.923 611.722 216.805 615.527L216.804 615.529V615.531C213.355 627.265 211.288 634.297 213.104 635.508C215.82 637.321 227.225 626.108 255.689 598.122L255.691 598.121L255.692 598.12L260.325 593.566C307.864 546.879 351.541 458.41 348.276 391.067C345.322 391.319 342.356 391.326 339.408 391.089C339.306 391.29 339.19 391.484 339.063 391.673C322.224 416.437 308.483 439.108 297.839 459.684C287.312 480.054 279.88 498.289 275.543 514.39C275.159 515.825 274.222 517.049 272.936 517.793C271.65 518.536 270.122 518.739 268.686 518.355C267.251 517.972 266.027 517.034 265.284 515.749C264.54 514.463 264.338 512.934 264.721 511.499C269.265 494.65 276.989 475.671 287.893 454.564C291.209 448.151 294.824 441.535 298.738 434.714C281.644 451.301 261.464 466.401 240.418 479.074ZM180.385 399.723C158.45 419.665 150.93 430.342 143.852 440.392C134.871 453.143 126.602 464.884 90.499 493.256C86.4078 496.471 82.7331 499.249 79.5847 501.628C71.5966 507.666 66.9957 511.143 67.5742 512.717C68.3598 514.855 78.7007 513.483 103.087 510.247C108.544 509.522 114.704 508.705 121.618 507.812C190.585 498.902 284.063 446.139 319.673 385.278C317.449 384.049 315.328 382.648 313.329 381.088C290.823 392.949 280.346 403.545 271.792 412.201C259.848 424.321 251.216 433.024 223.019 436.886C221.549 437.09 220.058 436.702 218.875 435.806C217.691 434.911 216.912 433.582 216.708 432.112C216.505 430.643 216.893 429.152 217.788 427.968C218.683 426.785 220.012 426.006 221.482 425.802C245.928 422.418 253.406 414.853 263.821 404.302L263.938 404.185C268.574 399.52 273.767 394.295 280.959 388.609C250.539 398.1 214.836 401.366 180.385 399.723ZM174.58 300.393C145.365 304.762 133.274 309.408 121.855 313.797C107.421 319.344 94.06 324.479 48.5504 328.12C43.6995 328.508 39.4113 328.805 35.693 329.063H35.6893C24.1005 329.865 18.0439 330.285 17.7126 331.887C17.35 333.642 23.8465 336.813 37.4544 343.457L37.4566 343.458L37.4576 343.459H37.4587L37.4612 343.46C45.0769 347.179 54.9196 351.984 67.0325 358.236C126.476 388.886 237.512 396.243 299.79 365.156C297.622 361.343 295.794 357.346 294.327 353.212C285.323 352.257 276.064 350.391 266.689 347.743C247.986 345.423 230.782 343.984 215.079 343.425C192.146 342.613 172.48 343.674 156.082 346.61C154.624 346.871 153.121 346.542 151.906 345.695C150.69 344.848 149.861 343.553 149.6 342.095C149.339 340.637 149.668 339.135 150.515 337.919C151.362 336.703 152.657 335.874 154.115 335.613C171.304 332.508 191.756 331.374 215.47 332.213C219.514 332.356 223.655 332.557 227.893 332.815C209.53 323.977 191.426 312.852 174.58 300.393ZM270.51 241.412C238.658 217.841 194.576 199.662 168.752 195.226C143.397 190.856 117.931 175.941 98.7896 164.73L98.7731 164.72C86.6376 157.585 77.4961 152.226 77.1616 152.425C76.8272 152.624 82.8074 164.075 99.6252 196.007C132.528 258.46 219.149 327.053 290.179 337.684C289.27 332.814 288.065 324.821 287.748 316.776C271.063 303.976 258.847 299.017 248.652 294.891C232.877 288.52 221.577 283.926 207.085 259.392C206.33 258.114 206.113 256.589 206.483 255.151C206.853 253.714 207.778 252.482 209.056 251.727C210.333 250.972 211.859 250.756 213.296 251.126C214.733 251.495 215.965 252.421 216.72 253.698C229.252 274.956 239.117 278.948 252.849 284.504L252.906 284.527C262.415 288.38 273.612 292.916 288.326 303.31C288.751 300.612 289.405 298.165 290.354 296.141C281.945 280.016 275.312 261.375 270.51 241.427V241.412ZM302.812 315.676C302.73 313.492 302.688 311.238 302.688 308.914V308.89C302.688 305.45 303.357 302.917 304.552 301.158C306.742 297.941 311.288 296.444 317.093 296.141C324.292 295.775 333.035 297.256 341.954 299.756C362.777 305.617 383.497 316.399 388.354 322.052C395.967 330.915 394.9 341.562 388.991 351.006C383.083 360.45 372.659 368.628 360.961 373.023C349.662 377.268 337.303 377.849 327.095 372.339C314.478 365.535 304.652 349.186 302.95 318.643C303.077 318.08 303.118 317.495 303.065 316.909C303.027 316.486 302.942 316.073 302.812 315.676ZM222.903 488.975L222.939 488.956H222.907L222.903 488.975ZM222.903 488.975C220.133 502.146 218.369 515.508 217.628 528.946C214.293 530.142 210.848 531.33 207.364 532.532L207.347 532.538L206.886 532.697L205.151 533.299C195.419 536.681 185.467 540.139 176.388 544.235L176.451 544.044C180.385 532.537 186.31 516.906 192.68 503.226C202.892 498.995 213.009 494.223 222.903 488.975ZM463.906 575.163C461.422 552.716 464.615 538.096 469.345 527.075C458.882 522.297 446.252 515.13 433.153 506.371C433.95 514.573 434.459 522.791 434.682 530.953L437.867 540.684C438.56 541.974 451.906 562.446 462.831 574.128L463.906 575.163ZM507.679 427.108C519.876 442.688 531.012 459.07 541.012 476.144C544.436 476.383 547.796 476.534 551.037 476.574C559.358 476.669 566.637 476.008 571.653 474.185C574.591 473.118 576.431 471.724 576.431 469.948C576.511 466.907 574.384 462.344 569.352 455.878C564.319 449.412 559.239 442.874 556.006 438.622C552.024 433.375 548.975 429.345 548.298 428.167L548.059 427.729L544.332 425.229C532.176 426.644 519.94 427.272 507.703 427.108H507.679ZM564.733 331.457C573.782 329.557 582.728 327.2 591.537 324.394C597.397 322.459 602.239 320.412 605.209 318.318C605.641 318.014 606.211 318.459 606.555 318.727C606.806 318.924 606.936 319.025 606.802 318.668C606.451 317.657 603.744 316.016 597.883 313.596C589.388 310.075 580.885 305.881 572.588 301.788L572.537 301.763L572.019 301.508C567.841 299.453 563.717 297.425 559.749 295.552C550.195 303.947 540.065 311.663 529.434 318.644C541.408 322.285 553.183 326.554 564.71 331.433L564.733 331.457ZM514.535 210.101C523.443 200.141 531.781 189.685 539.507 178.783C541.219 176.306 542.692 174.005 543.926 171.919C535.334 174.005 525.779 175.629 516.271 177.23C510.052 178.281 503.857 179.332 498.099 180.471C494.81 193.134 490.597 205.539 485.494 217.586C495.121 214.672 504.836 212.163 514.535 210.101ZM377.493 177.971C385.002 167.423 393.066 157.283 401.652 147.592C399.343 135.727 395.943 119.666 392.893 107.658L392.097 104.56C384.731 115.708 376.728 128.361 369.864 140.529C369.073 141.925 368.301 143.308 367.547 144.677C371.441 155.593 374.758 166.706 377.485 177.971H377.493ZM261.703 179.722C252.944 172.42 226.363 152.179 208.638 140.361L207.436 139.565C210.772 151.382 215.399 168.041 219.181 181.769C219.768 183.957 220.341 186.08 220.889 188.106C221.828 191.579 222.69 194.769 223.409 197.52C238.239 204.012 252.546 211.639 266.202 220.334C265.109 213.926 264.193 207.447 263.455 200.896C262.664 193.873 262.08 186.807 261.703 179.699V179.722ZM158.773 288.027C152.037 282.453 145.507 276.624 139.248 270.628C130.823 270.038 119.006 269.425 109.172 269.226C114.81 274.091 121.371 279.761 126.969 284.65C130.736 287.947 134.136 290.925 136.572 293.147C143.437 291.283 150.906 289.54 158.773 288.027ZM127.248 393.289C116.952 398.521 106.162 404.437 97.5143 409.956C93.7908 412.253 90.2549 414.841 86.9395 417.696C99.2741 419.463 112.27 422.991 124.764 426.383C127.726 427.179 130.656 427.976 133.523 428.772C141.662 417.928 150.62 407.725 160.318 398.25C149.17 397.111 138.07 395.455 127.248 393.313V393.289ZM325.406 529.567L325.402 529.576L325.398 529.567H325.406ZM295.545 575.983C306.717 561.333 316.701 545.815 325.402 529.576C331.572 544.622 338.315 557.909 344.509 567.789C333.313 576.357 322.285 588.318 312.729 607.7C310.539 604.515 308.015 600.414 305.339 595.636C302.162 589.926 298.802 583.269 295.545 575.983Z" fill="#6C2C00"/>
</g>
<defs>
<clipPath id="clip0_208_139">
<rect width="667" height="678" fill="white" transform="translate(0 0.5)"/>
</clipPath>
</defs>
</svg>
