<svg width="691" height="691" viewBox="0 0 691 691" fill="none" xmlns="http://www.w3.org/2000/svg">
<g clip-path="url(#clip0_208_137)">
<path fill-rule="evenodd" clip-rule="evenodd" d="M294.145 127.875H288.491C283.321 108.527 198.971 37.4405 138.682 37.4405C126.578 37.4405 116.064 46.155 116.064 57.2263C116.064 68.2078 121.617 73.4093 129.322 80.6268C136.275 87.1399 144.981 95.2946 152.941 110.82C161.339 127.198 161.024 145.512 160.747 161.62C160.534 173.981 160.343 185.043 164.131 192.932L53.4913 203.894C45.809 204.972 31.2391 207.347 31.2391 224.054C31.2391 237.696 39.1662 242.769 47.8916 248.353C49.3148 249.264 50.7594 250.188 52.1942 251.166C56.6444 254.206 58.2154 255.586 60.31 257.427C61.4572 258.435 62.7615 259.582 64.7818 261.214C67.7271 263.586 71.9496 266.778 76.853 270.484C96.495 285.331 127.061 308.435 130.205 320.197C100.544 327.103 42.3195 369.378 21.0631 397.668C4.62059 419.5 -15.6311 461.566 22.7621 461.566C30.8115 461.566 36.565 458.293 43.3928 454.408C53.3557 448.74 65.6061 441.771 90.6148 441.771C104.728 441.771 120.575 446.974 135.642 451.92C143.591 454.53 151.322 457.068 158.467 458.734C149.754 476.902 144.991 505.968 140.892 530.979C140.033 536.225 139.203 541.292 138.371 546.044C137.682 549.949 136.82 553.843 135.98 557.638C131.252 579.001 127.209 597.271 158.467 597.271L265.892 529.344C269.61 573.995 286.07 630.503 312.278 663.909C319.704 673.372 333.37 690.5 347.903 690.5C371.67 690.5 370.044 677.948 367.516 658.438C365.11 639.868 361.888 614.995 378.961 588.638L379.28 588.143C384.926 579.371 397.421 559.957 404.474 554.786L478.566 599.445C485.259 603.624 489.293 606.616 492.182 608.76C499.209 613.973 499.462 614.161 514.74 614.161C527.967 614.161 532.379 596.458 529.474 585.57C528.329 581.243 526.997 576.337 525.554 571.018C516.633 538.151 503.431 489.506 503.431 464.315C539.12 472.628 569.429 475.469 608.142 472.902C655.816 469.741 684.965 451.801 690.035 435.514V425.767C687.477 418.377 678.708 412.22 663.014 409.324L661.667 409.077C643.113 405.676 636.012 404.375 622.237 396.38C605.283 386.552 583.414 357.467 574.115 339.901C591.734 328.103 603.949 316.35 616.288 304.477C624.824 296.264 633.42 287.993 643.904 279.611C645.414 278.405 647.037 277.207 648.684 275.99C656.358 270.322 664.586 264.245 664.586 255.048C664.586 231.071 642.87 230.093 607.512 228.5C593.393 227.864 577.099 227.13 559.143 224.794C558.558 224.718 557.977 224.642 557.399 224.566L556.738 224.479C543.014 222.683 531.231 221.14 517.571 221.14C518.288 218.058 521.826 211.156 526.381 202.267C532.911 189.527 541.532 172.704 546.939 157.197C555.097 133.593 584.693 28.9178 534.452 28.9178C521.471 28.9178 518.314 35.4971 513.017 46.5347C508.623 55.6916 502.757 67.9169 488.587 81.9996C475.921 94.5916 462.595 98.7739 448.457 103.212C439.743 105.946 430.721 108.778 421.355 113.734C418.628 108.049 416.48 102.486 413.958 95.9547C409.781 85.1387 404.578 71.6679 394.024 50.5945C387.995 38.5458 385.237 32.5625 379.856 19.5364C375.143 8.10891 367.296 -1.99409 352.544 2.30836C339.849 6.01288 334.576 22.0642 328.003 42.0701C325.954 48.3084 323.778 54.9312 321.212 61.684C316.854 73.1481 312.744 83.6073 308.195 93.9022C307.323 95.8799 306.226 98.2527 305.028 100.846C300.987 109.591 295.79 120.838 294.145 127.875ZM322.609 173.503C317.411 165.491 311.793 157.553 305.828 149.807V149.798C315.52 133.556 330.483 98.9445 343.125 65.6302C348.67 51.0329 353.795 36.5178 357.869 23.7292C363.599 39.6219 370.503 52.8601 377.217 65.7328L377.335 65.959C387.063 84.603 396.39 102.498 400.628 126.998C387.127 136.05 374.074 149.186 362.061 170.141C362.017 170.07 361.972 170 361.927 169.929L361.815 169.751L361.808 169.739C361.639 169.471 361.471 169.203 361.294 168.935C350.296 151.935 341.207 148.921 332.839 154.32C327.505 157.8 324.737 164.879 322.609 173.503ZM383.592 239.93C383.677 232.89 383.111 225.857 381.902 218.92C380.17 209.279 377.265 199.886 373.252 190.95C386.15 164.834 400.446 150.373 415.208 141.147C426.997 133.777 439.086 129.75 451.013 125.778L451.107 125.746L451.114 125.744C473.417 118.318 495.211 111.062 514.121 87.9116C505.853 101.275 495.077 113.29 484.037 125.6C476.848 133.575 469.54 141.723 462.836 150.264C451.401 164.83 442.187 175.972 434.348 185.452L434.061 185.798C410.932 213.783 399.602 227.504 379.763 269.885C382.141 259.798 383.488 249.878 383.592 239.93ZM369.918 297.372C370.293 297.794 370.759 298.134 371.286 298.364C371.57 298.487 371.864 298.576 372.164 298.629C372.338 298.788 372.497 298.956 372.64 299.132L372.886 299.424C375.27 302.867 374.823 310.267 372.749 320.316C372.009 323.86 371.16 327.358 370.182 330.784C369.19 334.243 368.173 337.309 367.131 339.983C364.08 347.857 360.527 353.767 356.718 358.069C353.509 361.892 349.341 364.793 344.642 366.473C341.966 367.345 339.159 367.74 336.347 367.643C330.48 367.337 324.816 365.394 319.996 362.034C315.694 359.12 312.689 355.74 311.775 353C311.695 352.795 311.646 352.578 311.629 352.359C311.779 343.952 313.444 335.641 316.543 327.824H316.58C319.32 321.071 323.515 315.005 328.866 310.057L329.305 309.628C332.311 306.959 335.641 304.679 339.216 302.841C343.009 300.883 347.041 299.426 351.21 298.51C360.464 296.482 366.467 296.201 369.918 297.372ZM385.658 275.85C405.802 232.374 416.937 218.913 440.002 191.03L440.239 190.743C448.182 181.142 457.533 169.84 469.038 155.188C475.777 146.591 482.86 138.694 489.836 130.917L489.914 130.83C511.318 106.955 531.776 84.1336 536.278 50.4832C537.846 56.3191 538.973 62.2648 539.65 68.2702L539.897 70.3072C544.108 112.035 522.879 170.406 490.907 219.733C480.981 235.178 469.812 249.786 457.511 263.415C454.499 263.598 451.478 263.538 448.476 263.233C431.026 261.154 406.584 265.744 385.658 275.85ZM301.204 279.454C264.746 245.48 255.286 230.476 235.363 198.842L235.04 198.331L235.039 198.329C228.523 187.998 220.86 175.849 210.562 160.412C204.524 151.342 199.071 141.878 193.709 132.561L193.649 132.458C185.992 119.178 178.508 106.199 169.392 94.8052C183.71 118.915 183.765 141.043 183.816 163.674C183.88 192.384 183.953 222.017 222.803 259.488C238.78 257.868 254.92 259.608 270.185 264.594C280.903 268.097 291.117 273.121 301.204 279.454ZM305.843 273.031C302.776 249.971 306.087 225.258 313.547 209.292C313.602 209.17 313.658 209.046 313.714 208.922L313.715 208.921C313.744 208.856 313.773 208.792 313.802 208.727C313.838 208.649 313.873 208.57 313.908 208.492C313.924 208.456 313.939 208.421 313.955 208.386C313.977 208.335 314 208.284 314.022 208.233C315.027 205.805 315.875 203.315 316.562 200.779C309.65 188.6 301.965 176.877 293.551 165.683C290.957 162.212 288.287 158.771 285.54 155.361C248.59 109.423 199.674 70.8644 158.723 61.9215L157.042 61.5744C150.876 60.2787 144.618 59.4724 138.325 59.1628L138.694 59.5024C169.218 74.2792 184.521 100.844 200.523 128.642L200.658 128.875C205.848 137.889 211.126 147.053 217.13 156.046C227.452 171.52 235.336 184.017 242.022 194.631L242.029 194.641C261.43 225.435 270.722 240.183 305.843 273.031ZM357.412 277.812C361.623 264.567 364.08 252.016 364.208 239.72C364.267 234.479 363.888 229.242 363.076 224.063C361.917 216.817 359.959 209.722 357.238 202.907C353.935 194.693 349.826 186.826 344.971 179.422C342.947 176.289 343.469 173.242 343.746 171.63C343.917 170.628 343.994 170.18 343.308 170.607C342.678 171.128 341.024 179.331 339.188 188.456L339.153 188.63C337.574 196.445 335.89 204.779 333.278 212.097C332.62 213.969 331.89 215.751 331.095 217.486C330.867 217.961 330.647 218.455 330.428 218.957C324.573 232.604 322.307 253.669 325.468 273.309C326.175 277.781 327.21 282.196 328.565 286.517C329.14 286.198 329.716 285.887 330.291 285.604C332.499 284.46 334.768 283.438 337.087 282.544C340.335 281.28 343.676 280.273 347.081 279.529C348.159 279.292 349.218 279.073 350.26 278.881C352.762 278.406 355.147 278.049 357.412 277.812ZM264.174 283.036C278.561 287.731 292.2 295.844 306.194 306.614C305.408 307.728 304.659 308.87 303.929 310.057C301.886 313.374 300.114 316.851 298.63 320.453C298.466 320.836 298.311 321.22 298.165 321.604C296.957 324.674 295.941 327.816 295.123 331.013C291.591 330.903 288.068 330.592 284.572 330.081C264.202 327.103 244.096 318.087 233.071 307.966C231.09 306.174 229.003 304.502 226.822 302.96C220.686 298.774 214.315 294.943 207.74 291.487C199.519 286.956 192.156 282.891 191.955 282.169V282.023C191.858 281.486 192.246 281.685 193.042 282.094C194.481 282.833 197.252 284.256 200.898 283.256C210.199 280.613 219.763 279.008 229.417 278.47C241.185 277.838 252.969 279.386 264.174 283.036ZM274.808 390.753C281.396 381.959 289.129 374.082 297.8 367.332L297.773 367.405C299.402 369.611 301.237 371.657 303.253 373.516C305.061 375.194 306.991 376.736 309.027 378.129C310.379 379.052 311.803 379.929 313.283 380.742C317.282 382.954 321.554 384.631 325.99 385.729C325.98 385.751 325.97 385.773 325.959 385.796C325.945 385.825 325.931 385.854 325.916 385.883C325.901 385.915 325.884 385.946 325.868 385.977C325.857 385.998 325.846 386.019 325.834 386.04C316.691 404.41 301.883 420.752 288.83 428.06C286.348 429.481 283.959 431.058 281.677 432.782C275.991 437.215 270.545 441.947 265.363 446.959C258.493 453.381 252.327 459.09 251.587 459.09C250.776 459.052 251.093 458.74 251.812 458.033C252.98 456.885 255.207 454.694 255.387 450.941C255.762 441.078 257.257 431.291 259.845 421.766C262.906 410.605 267.976 400.095 274.808 390.753ZM363.049 378.394C367.561 391.941 373.097 403.825 380.496 414.02C387.145 423.259 395.396 431.232 404.858 437.56C413.235 443.109 422.225 447.671 431.651 451.152C435.169 452.485 436.561 455.312 437.29 456.793C437.74 457.707 437.938 458.108 438.228 457.327C438.492 456.624 434.948 448.987 430.975 440.465C427.912 434.145 425.168 427.675 422.753 421.081C421.749 418.22 420.934 415.296 420.314 412.329C417.373 397.613 406.466 378.449 391.805 364.043C388.602 360.869 385.167 357.937 381.528 355.273C379.996 358.378 378.26 361.379 376.331 364.254C374.77 366.577 373.058 368.796 371.206 370.895C370.019 372.246 368.795 373.488 367.552 374.648C366.13 375.981 364.629 377.23 363.058 378.385L363.049 378.394ZM391.278 326.345H391.247L391.275 326.363L391.278 326.345ZM391.278 326.345C407.471 326.608 422.095 325.109 435.496 320.864C446.154 317.465 456.128 312.208 464.955 305.335C473.025 299.014 480.314 291.756 486.668 283.713C489.035 280.78 492.135 280.331 493.756 280.096C494.751 279.953 495.189 279.89 494.561 279.383C493.985 278.917 485.609 279.922 476.291 281.046C468.326 282.014 459.794 283.036 451.966 282.872C450.002 282.826 448.083 282.699 446.229 282.48C431.431 280.726 410.028 285.074 391.841 294.419C393.239 298.734 393.876 303.259 393.723 307.792C393.632 311.99 393.21 316.175 392.462 320.307C392.243 321.585 391.996 322.883 391.722 324.216C391.577 324.932 391.432 325.639 391.278 326.345ZM219.926 322.207C217.026 319.668 213.901 317.399 210.59 315.428C193.39 319.034 176.495 323.967 160.057 330.181C104.865 350.862 52.9156 385.172 31.5678 421.337L30.3985 423.31C27.3496 428.615 24.717 434.149 22.5244 439.862L24.4497 438.762C47.822 415.454 77.295 409.316 108.116 402.911C118.457 400.755 128.971 398.564 139.357 395.686C157.272 390.715 171.235 387.219 183.087 384.252L183.091 384.251L183.788 384.076C218.822 375.347 235.727 371.091 277.143 348.454C254.668 344.275 232.696 333.87 219.944 322.178L219.926 322.207ZM283.287 354.087C273.981 361.775 265.917 370.023 259.168 379.243C249.804 392.038 243.183 406.631 239.721 422.104C191.705 447.522 163.474 438.291 136.082 429.334L136.042 429.32C115.384 422.551 95.171 415.931 69.3032 420.808C82.1245 416.339 95.7618 413.501 109.686 410.602L109.724 410.594C120.174 408.447 130.807 406.237 141.449 403.286C159.253 398.354 173.548 394.772 185.698 391.73C222.115 382.642 239.296 378.344 283.287 354.087ZM481.471 316.945L481.437 316.974L481.425 316.971L481.471 316.945ZM613.539 417.026C593.086 405.611 581.671 389.499 570.032 373.069C553.28 349.421 535.971 324.996 481.437 316.974C469.712 327.029 456.082 334.621 441.361 339.298C430.082 342.884 418.275 344.786 405.735 345.474C456.434 352.064 472.836 358.8 507.79 373.155L508.184 373.316C519.47 377.952 532.748 383.407 550.301 390.087C560.242 393.879 569.939 398.317 579.519 402.701L580.199 403.012L580.206 403.015C591.391 408.137 602.379 413.169 613.539 417.026ZM661.252 431.447C630.498 434.697 604.285 422.694 576.929 410.156L576.743 410.07C567.276 405.732 557.679 401.334 547.497 397.467C530.232 390.881 516.502 385.245 504.837 380.449L504.82 380.441C471.541 366.777 455.407 360.153 408.904 353.851C424.491 370.471 436 391.694 439.369 408.566C440.32 412.719 441.656 416.773 443.361 420.678C458.989 427.791 475.13 433.719 491.647 438.409C548.365 454.678 610.563 458.039 649.185 441.743L651.011 440.958C656.716 438.489 662.214 435.569 667.454 432.225L663.873 431.759C662.99 431.66 662.116 431.556 661.252 431.447ZM364.775 425.365C373.915 438.085 385.556 448.806 398.984 456.871L398.957 456.889C408.247 510.811 390.534 534.834 373.379 558.091C360.965 574.908 348.806 591.402 344.809 615.879C344.809 603.21 346.263 590.302 347.746 577.143L347.748 577.129L347.79 576.75C348.964 566.294 350.156 555.676 350.671 544.692C351.53 526.285 352.598 511.569 353.512 499.073L353.515 499.025C356.229 461.477 357.507 443.801 348.038 393.901C352.532 405.415 357.954 415.87 364.775 425.365ZM346.954 664.997C333.185 636.164 336.483 606.843 339.925 576.245L339.972 575.831C341.145 565.423 342.337 554.856 342.824 544.307C343.738 525.289 344.77 510.793 345.656 498.47L345.659 498.427C348.264 462.489 349.526 445.076 340.977 398.836C330.013 418.881 313.337 436.49 298.31 444.95C294.833 447.027 291.555 449.422 288.518 452.102C286.592 469.387 285.999 486.794 286.746 504.17C289.075 563.052 305.372 623.113 332.94 654.719L334.365 656.281C338.487 660.911 342.965 665.211 347.757 669.143L347.071 665.562C347.032 665.374 346.993 665.185 346.954 664.997ZM156.275 310.943C166.223 307.29 176.262 304.111 186.264 301.398C179.778 297.214 174.855 292.811 173.348 287.312C170.708 277.73 176.316 269.956 195.846 264.585L196.44 264.428L199.208 263.68L199.391 263.635C183.926 246.772 175.312 231.188 170.516 216.417C146.921 213.747 125.763 216.841 103.831 220.049L103.511 220.096C87.715 222.417 71.5331 224.796 53.5732 225.287C64.1512 232.759 75.9167 241.611 87.6823 250.864C114.895 272.322 142.847 296.409 156.193 310.924L156.275 310.943ZM501.293 239.017C496.936 245.347 492.368 251.558 487.591 257.596C487.316 257.941 487.042 258.287 486.769 258.632L486.75 258.656L486.745 258.661C486.245 259.291 485.746 259.922 485.243 260.547C494.122 259.862 501.686 260.273 506.664 264.265C514.429 270.513 514.438 280.105 501.74 295.853C500.599 297.269 499.457 298.648 498.297 299.982C524.038 305.399 541.495 314.597 554.74 325.614C573.649 314.561 588.191 300.795 603.245 286.536L603.522 286.273H603.523C615.31 275.12 627.395 263.687 642.114 252.829C628.466 252.582 612.755 251.805 596.732 250.645C560.029 248.005 520.841 243.493 501.293 239.017ZM460.982 448.805C466.764 450.906 472.629 452.915 478.639 454.742V454.669C480.311 474.537 487.939 512.939 496.616 548.638C500.48 564.578 504.628 580.08 508.647 593.398C493.828 582.635 479.283 574.562 465.092 566.688L465.09 566.687L464.992 566.633C446.613 556.439 428.892 546.592 412.449 531.556C419.465 515.095 423.32 495.017 420.305 467.522C421.785 468.131 423.289 468.74 424.818 469.349C443.717 476.519 452.825 473.532 456.369 464.206C458.278 459.182 457.164 453.153 454.716 446.439C456.789 447.243 458.881 448.037 460.982 448.805ZM267.325 503.467C267.015 494.725 267.006 486.01 267.325 477.405C267.404 475.237 267.499 473.076 267.608 470.92C261.799 475.56 256.236 478.684 250.7 478.419C240.752 477.954 235.098 470.198 236.085 450.001C236.149 448.595 236.231 447.197 236.331 445.818V445.754C215.321 455.272 197.737 458.615 182.108 458.542C171.265 481.507 167.693 503.604 163.993 526.568L163.99 526.59C161.433 542.414 158.812 558.638 153.845 576.005C164.505 567.911 176.956 559.042 189.808 550.328C218.582 530.816 249.86 511.56 267.389 503.467H267.325Z" fill="#6C2C00"/>
</g>
<defs>
<clipPath id="clip0_208_137">
<rect width="691" height="690" fill="white" transform="translate(0 0.5)"/>
</clipPath>
</defs>
</svg>
