<svg width="100" height="140" viewBox="0 0 100 140" fill="none" xmlns="http://www.w3.org/2000/svg">
<g clip-path="url(#clip0_2358_2331)">
<path d="M99.7878 28.1707C100.259 27.1324 99.9215 25.9024 98.9939 25.2554L94.9223 22.4599C94.5214 22.1883 94.4035 21.8129 94.5607 21.3417L95.7555 17.9311C95.9677 17.3161 95.7948 16.8608 95.2288 16.5573C92.6506 15.1835 89.7344 13.8496 86.4802 12.5717C86.2051 12.4599 85.8907 12.5317 85.6863 12.7554L84.2557 14.3129C84.1299 14.4487 83.9806 14.5046 83.7919 14.4806L80.2941 14.0413C80.0268 14.0014 79.8382 13.7698 79.8617 13.4982C80.1604 10.471 80.6556 7.57168 81.3709 4.79213C81.4967 4.28894 81.2373 3.77775 80.7657 3.58606C78.2425 2.61162 75.8215 1.86082 73.5027 1.34165C72.5437 1.126 71.6004 1.0621 70.6808 1.13398C70.1306 1.18191 69.6589 1.57328 69.5174 2.10842L68.6371 5.27136C68.5742 5.51897 68.417 5.59884 68.1733 5.52695C66.1375 4.88798 64.4239 4.94389 62.6789 6.25379C60.5723 7.82727 58.2378 8.99341 55.5338 8.59405C55.4395 8.57807 55.3609 8.4982 55.3609 8.40235C55.2587 6.78894 55.2037 5.16753 55.1879 3.52216C55.1722 1.28574 54.6534 0.127593 52.3425 -0.000202771C50.283 -0.104037 47.7756 0.215452 46.1485 0.838455C44.5843 1.4375 43.8925 2.75539 44.0891 4.78414C44.1048 4.99181 44.0104 5.10363 43.8061 5.11961C41.9039 5.27935 39.868 5.72663 37.6986 6.45347C36.2758 6.94069 35.5212 7.77935 35.4505 8.97743C35.3011 11.4615 35.4348 14.265 35.8592 17.38C35.8907 17.5877 35.8042 17.6835 35.592 17.6675L34.4208 17.5557C34.1535 17.5317 34.0042 17.388 33.9491 17.1244C32.8565 11.5893 31.536 6.86082 29.9639 2.94708C29.5552 1.92472 28.6198 1.54932 27.5351 1.86082C24.6896 2.6835 21.9306 3.75379 19.2659 5.07168C18.6842 5.35922 18.4013 5.83047 18.4249 6.5014C18.5821 10.9503 20.5393 15.0717 22.2293 19.2809C22.3158 19.4966 22.2136 19.7442 22.0013 19.8241L18.7628 21.134C18.4956 21.2378 18.3148 21.1579 18.2048 20.8944C17.2065 18.5062 15.4379 14.4247 13.3785 12.6675C12.9069 12.2682 12.2387 12.2202 11.7121 12.5557C8.72512 14.5046 5.67529 16.757 2.55471 19.3289C2.04378 19.7442 1.9809 20.2234 2.34248 20.7746L5.9897 26.2618C6.08403 26.4056 6.06831 26.5333 5.93468 26.6372C4.14251 28.1627 1.06123 30.3113 0.0629603 32.4279C-0.0235041 32.6116 -0.0077833 32.7873 0.0944019 32.9551C3.40363 38.0749 6.50063 43.3225 9.37753 48.7059C9.79413 49.4886 9.89632 50.2075 9.67623 50.8385C8.71726 53.5381 8.36354 56.11 8.61507 58.5701C9.18888 64.2889 9.83344 70.0078 10.533 75.7107C12.223 89.5286 13.9051 103.346 15.5794 117.164C15.9095 119.904 16.3104 122.628 16.7899 125.351C17.2694 128.067 18.5349 130.176 20.5943 131.685C26.4267 135.966 32.6915 137.596 40.3396 138.81C46.2742 139.752 52.2639 140.128 58.2928 139.936C61.5234 139.832 65.5479 139.329 70.3742 138.434C75.7507 137.436 80.4591 135.599 84.5072 132.939C85.1125 132.54 85.985 132.14 86.5902 132.156C89.53 132.196 92.6192 132.14 95.8576 131.981C96.3293 131.957 96.7144 131.709 97.0131 131.254C97.1232 131.094 97.1468 130.902 97.0839 130.679C97.0288 130.463 96.8323 130.319 96.628 130.335C94.2856 130.439 91.9432 130.375 89.6086 130.144C89.1842 130.104 88.909 129.68 89.0584 129.289C89.1056 129.161 89.3178 129.073 89.7029 129.033C92.2419 128.746 94.7808 128.674 97.3275 128.81C97.524 128.81 97.6813 128.738 97.7913 128.578C97.9799 128.322 98.1136 128.019 98.1765 127.691C98.2158 127.492 98.145 127.364 97.9485 127.308C95.4803 126.597 92.5877 126.725 90.0331 126.749C89.7187 126.749 89.4436 126.525 89.3807 126.214L89.3414 126.006C89.3099 125.83 89.4278 125.655 89.6165 125.631C92.9493 125.327 96.007 125.303 98.7817 125.535C98.9861 125.551 99.1511 125.479 99.2612 125.303C99.3477 125.176 99.3791 125.032 99.3477 124.856C99.3084 124.648 99.1983 124.529 99.0018 124.473C97.9092 124.177 96.966 123.77 95.8105 123.762C93.8218 123.762 91.8331 123.73 89.8366 123.682C89.7029 123.682 89.6086 123.666 89.5693 123.642C89.1842 123.434 89.2077 123.275 89.6322 123.179C90.7798 122.923 91.896 122.604 93.1065 122.596C94.7179 122.58 96.2035 122.54 97.5791 122.468C98.1293 122.444 98.5931 122.22 98.9625 121.797C99.0961 121.653 99.1354 121.469 99.0804 121.246C99.0175 120.974 98.7817 120.783 98.5066 120.783L90.0802 120.751C89.6401 120.751 89.4907 120.535 89.6322 120.112L89.7422 119.784C89.8837 119.345 90.1746 119.121 90.6226 119.097C92.4384 118.993 94.2934 118.938 96.1721 118.938C96.7066 118.938 96.9267 118.682 96.8245 118.187C96.793 118.027 96.6673 117.891 96.5022 117.851C94.2934 117.324 92.2654 117.148 90.434 117.316C90.0645 117.348 89.8995 117.18 89.9466 116.805C91.1886 105.088 92.1947 93.5541 93.4131 81.8768C94.2777 73.5381 95.0244 65.1835 95.6297 56.8289C95.8812 53.4503 94.4978 51.0541 92.8314 48.2985C92.5013 47.7474 92.4384 47.0845 92.6585 46.4774C94.9144 40.2953 97.0839 34.1771 99.8193 28.1707H99.7878ZM86.5667 16.7809C86.6767 16.5254 86.9754 16.4055 87.2191 16.5174L91.7859 18.5621C92.6192 18.9375 92.5956 19.249 91.7152 19.5046C90.9449 19.7282 90.0645 20.1436 89.0663 20.7666C88.6497 21.0222 88.2016 21.2378 87.7379 21.3976C87.5335 21.4694 87.4863 21.4135 87.6042 21.2298C87.7614 20.9822 87.8715 20.6867 87.9501 20.3752C87.9972 20.1755 87.9186 20.0797 87.7221 20.1036C87.5728 20.1116 87.4392 20.2314 87.3055 20.4471C86.7946 21.2937 86.3308 22.1643 85.9221 23.0749C83.4539 28.5461 81.6225 34.225 80.4041 40.1196C80.4041 40.1595 80.3727 40.1835 80.3334 40.1915C80.2705 40.2075 80.2233 40.2155 80.1761 40.2075C80.1368 40.2075 80.1054 40.1675 80.0975 40.1116C79.8303 38.3305 79.8224 36.9647 80.0661 35.9982C81.7718 29.3528 83.9334 22.9471 86.5667 16.773V16.7809ZM79.1464 16.757L82.3692 17.9391C82.4871 17.979 82.55 18.1148 82.5185 18.2346L77.5901 36.6851C77.5508 36.8209 77.4093 36.9008 77.2835 36.8528L75.7743 36.3337C75.6643 36.2937 75.6014 36.1819 75.6171 36.0621L78.832 16.9407C78.8556 16.7889 79.0128 16.7011 79.1543 16.757H79.1464ZM75.3027 7.50778L74.8547 7.78734C74.666 7.90715 74.4616 7.94708 74.2494 7.89117C72.8031 7.53973 72.1664 6.58127 72.3472 5.00778C72.3786 4.80012 72.4887 4.70427 72.693 4.70427C74.1708 4.75219 75.6643 5.09564 77.1735 5.71865C77.4879 5.85443 77.6215 6.09405 77.5665 6.42951C76.1359 15.9263 74.2966 25.4151 72.0642 34.904C72.0406 34.9998 71.9856 35.0397 71.8913 35.0238L71.7419 34.9998C71.7419 34.9998 71.7026 34.9758 71.7026 34.9519C72.0249 32.0365 72.2843 29.0094 72.4808 25.8544C72.6773 22.6835 73.4319 18.2746 74.7603 12.6356C75.1534 10.9663 75.1062 9.28095 75.625 7.7474C75.7586 7.35603 75.6564 7.26817 75.3106 7.49181L75.3027 7.50778ZM70.4293 38.3624L76.4818 40.1755C77.1813 40.3832 77.6687 41.0461 77.653 41.7969L77.3857 59.6084C77.3857 59.9439 77.2285 60.1675 76.9141 60.2634L76.4032 60.4391C76.128 60.527 75.8529 60.3273 75.8529 60.0397C75.8529 58.011 75.8058 55.1835 75.7193 51.5573C75.7036 50.9902 75.6093 50.471 75.4363 50.0078C75.3656 49.8241 75.3892 49.6484 75.5149 49.4966C75.625 49.3608 75.7586 49.241 75.908 49.1532C76.073 49.0493 76.0966 48.9295 75.9787 48.7778C75.7743 48.5222 75.4992 48.3624 75.1612 48.3145C74.9647 48.2826 74.8547 48.1627 74.8389 47.9631C74.8232 47.8273 74.8861 47.7234 75.0119 47.6516C75.3263 47.4679 75.6407 47.404 75.963 47.4439C76.1673 47.4758 76.3403 47.2921 76.3088 47.0925L76.2695 46.8049C76.2381 46.5813 76.0259 46.4375 75.8136 46.5014L75.2398 46.6611C74.9647 46.741 74.8232 46.6372 74.8389 46.3417C74.8861 45.2554 74.7996 44.2171 74.5953 43.2107C74.5638 43.0749 74.6739 42.9391 74.8154 42.9551L75.004 42.971C75.1534 42.987 75.2791 43.0829 75.342 43.2266C75.5385 43.6979 75.7665 44.1212 76.018 44.4806C76.1909 44.7282 76.2774 44.6963 76.2695 44.4008C76.2302 43.1388 75.6093 42.4199 74.3988 42.2522C73.9193 42.1883 73.4948 42.5557 73.4869 43.0509C73.4083 47.6995 73.4476 52.2921 73.5813 56.8369C73.597 57.5397 73.542 58.7218 73.4241 60.3912C73.3926 60.7506 73.1411 61.0541 72.8031 61.142L71.5454 61.4535C71.1838 61.5413 71.0031 61.3976 70.9873 61.0222L70.2013 38.5461C70.2013 38.3704 70.272 38.3065 70.4371 38.3624H70.4293ZM62.844 10.6068C62.844 10.1436 63.1505 9.73622 63.5907 9.63239C64.8012 9.33686 66.106 9.1851 67.5052 9.1851C67.7253 9.1851 67.851 9.43271 67.7253 9.6244C67.1043 10.503 64.416 11.2618 63.4807 11.4455C63.0641 11.5333 62.8518 11.3576 62.844 10.9183V10.6148V10.6068ZM63.5907 12.4998C65.3986 12.995 69.1401 12.6835 69.4703 10.0238C69.486 9.9359 69.5253 9.89596 69.6196 9.91194C69.6747 9.91194 69.6982 9.95187 69.6982 10.0158C69.6118 10.8624 69.3995 11.7171 69.376 12.5477C69.2345 17.38 69.2973 22.2123 69.5803 27.0286C69.7375 29.7043 69.4074 32.2202 69.1008 34.8241C69.0773 35.0078 68.8493 35.0797 68.7314 34.9279L68.527 34.6723C68.4249 34.5445 68.3698 34.3688 68.3934 34.2011C68.6607 31.3417 68.7314 28.7298 68.6056 26.3496C68.5978 26.15 68.6921 26.0461 68.8808 26.0541C68.9908 26.0541 69.0773 26.0222 69.148 25.9503C69.2895 25.8225 69.2659 25.7346 69.0851 25.6867C68.6214 25.5669 68.3934 25.2634 68.417 24.7602C68.4956 21.7091 68.0082 18.8257 66.955 16.102C66.9157 16.0142 66.8528 15.9663 66.7506 15.9663C66.6956 15.9663 66.6484 15.9822 66.6012 16.0142C66.5855 16.0301 66.5777 16.0381 66.5855 16.0541C66.672 16.5733 66.6641 17.0924 66.5698 17.6196C66.4676 18.2266 66.4362 18.7059 66.4755 19.0733C67.0886 24.7123 67.175 30.4471 66.7191 36.2857C66.6641 36.9487 66.3183 37.348 65.6737 37.4678L65.4851 37.5078C65.092 37.5797 64.7226 37.2762 64.7147 36.8608C64.6597 34.0094 63.858 31.3337 63.6457 28.5062C63.2606 23.4183 62.9776 18.2985 62.7732 13.1547C62.7496 12.5637 63.0248 12.3401 63.5907 12.4918V12.4998ZM68.362 62.2202C68.362 62.3081 68.2991 62.38 68.2126 62.38L66.5148 62.4599C66.4283 62.4599 66.3576 62.396 66.3576 62.3081L65.3514 39.7602C65.3514 39.6723 65.4143 39.6004 65.5008 39.6004L67.1986 39.5206C67.2851 39.5206 67.3558 39.5845 67.3558 39.6723L68.362 62.2202ZM61.5313 35.7985L62.6789 62.5238C62.6789 62.6036 62.616 62.6835 62.5296 62.6835L59.3697 62.8273C59.2832 62.8273 59.2125 62.7634 59.2125 62.6755L58.0648 35.9503C58.0648 35.8704 58.1277 35.7905 58.2142 35.7905L61.3741 35.6468C61.4605 35.6468 61.5313 35.7107 61.5313 35.7985ZM56.7836 11.3896L58.5443 11.2778C59.0002 11.2458 59.2439 11.4615 59.2753 11.9407L60.3758 31.4774C60.4072 31.9966 60.1636 32.2602 59.6526 32.2762L59.3382 32.2921C58.7723 32.3081 58.4343 32.0286 58.3321 31.4615C57.8369 28.8177 57.4046 26.9567 57.043 25.8784C56.705 24.872 56.5242 24.0573 56.4928 23.4423C56.3198 19.5206 56.1783 15.7746 56.0683 12.1883C56.0526 11.6851 56.2963 11.4215 56.7836 11.3896ZM55.2194 29.0733C55.3294 29.0573 55.5574 29.9599 55.7146 31.094C55.8797 32.2282 55.919 33.1627 55.801 33.1787C55.691 33.1947 55.4631 32.2921 55.3058 31.1579C55.1408 30.0238 55.1015 29.0893 55.2194 29.0733ZM55.4395 41.2618C55.2901 44.3129 55.2194 47.2202 55.2351 49.9838C55.2508 51.3576 55.1251 53.2187 54.8657 55.5669C54.6692 57.348 54.5827 59.2171 54.622 61.1819C54.622 61.6931 54.5198 62.2682 54.2919 62.8832C54.2132 63.0909 54.0718 63.1548 53.8674 63.0829C53.7888 63.0509 53.7259 62.995 53.6709 62.9151C53.6316 62.8353 53.6159 62.7394 53.6237 62.6116C53.8517 60.6947 53.9696 58.7698 53.9539 56.8448C53.9381 54.6803 54.4884 52.6915 54.4884 50.5429C54.4884 46.9327 54.5984 43.4503 54.8106 40.0956C54.8499 39.4567 54.6534 39.3768 54.2368 39.848C52.7591 41.4934 51.9259 41.9407 51.9495 44.4167C51.9495 45.4072 51.9337 46.0861 51.8944 46.4535C51.2106 51.8688 50.3381 57.2682 49.2691 62.6595C49.2062 63.003 49.0018 63.1468 48.6559 63.1068L47.2096 62.8912C46.8716 62.8353 46.7144 62.6356 46.7459 62.3001C47.2096 56.3257 47.7363 50.3113 48.3258 44.241C48.5931 41.5014 48.6559 38.6979 48.7974 35.9343C48.7974 35.7586 48.9939 35.6388 49.159 35.7107C50.4874 36.3417 51.8158 36.9647 53.1442 37.5797C54.8185 38.3624 55.5259 39.4487 55.4395 41.2618ZM52.201 33.8656L49.9922 32.5717C49.8114 32.4678 49.6778 32.3001 49.6228 32.1084L48.0035 26.9806C47.8542 26.4934 48.1529 25.9822 48.6559 25.9024L51.7608 25.4151C52.2167 25.3432 52.649 25.6787 52.7041 26.15L53.4272 33.0669C53.498 33.7458 52.7827 34.2171 52.201 33.8736V33.8656ZM47.3747 3.8097L51.5722 3.29852C51.8394 3.26657 52.0674 3.47424 52.0831 3.73782C52.3346 9.54453 52.932 15.3273 52.7905 21.134C52.7512 22.7314 52.2796 22.8832 51.3599 21.5813C50.9905 21.0621 50.7468 20.4471 50.6368 19.7522C49.9608 15.6468 49.3319 11.8528 48.7581 8.3704C48.5538 7.16433 48.0586 5.33526 47.1703 4.36082C46.8795 4.04133 46.9424 3.85763 47.3747 3.80171V3.8097ZM39.7894 9.29692C41.0549 8.9375 44.2305 8.24261 45.2445 9.42472C45.779 10.0477 46.1799 11.2298 46.4315 12.9631C46.8874 16.0621 47.3826 19.1212 47.9485 22.1324C47.98 22.2921 47.9013 22.4599 47.7599 22.5477L46.7773 23.0988C46.4865 23.2586 46.3135 23.1707 46.2664 22.8432L45.1423 15.1036C45.0873 14.7522 44.71 14.5605 44.3956 14.7362L44.1912 14.864C43.6567 15.1675 43.4131 15.6308 43.4445 16.2458C43.5624 18.2266 44.1284 20.4071 44.3327 22.0605C45.0087 27.364 45.9127 32.6196 45.7162 37.9631C45.6847 38.618 45.5118 38.6659 45.2052 38.0909C44.262 36.3976 43.9083 33.7458 43.4209 31.8448C43.1222 30.6627 42.7528 28.9535 42.3362 26.7011C41.6995 23.3065 40.8899 19.9519 39.8995 16.6532C39.2706 14.5605 39.0348 12.7474 38.854 10.6787C38.799 10.0477 39.192 9.46465 39.7973 9.29692H39.7894ZM41.8803 46.2937C41.8646 46.118 41.786 45.9902 41.6287 45.9183L41.4715 45.8385C41.3694 45.7825 41.3143 45.7027 41.2986 45.5909L41.0628 43.1468C41.0235 42.6835 41.2279 42.4119 41.6838 42.3321L44.9223 41.773C45.386 41.6931 45.5904 41.8928 45.5511 42.356L43.8218 61.5413C43.7668 62.1484 43.2165 62.5877 42.627 62.4918C42.5013 62.4758 42.3912 62.4599 42.289 62.4359C41.3379 62.2841 40.9056 61.725 40.9999 60.7506C41.3615 56.7171 41.6445 52.7714 41.8567 48.8976C41.9196 47.7155 41.9274 46.8528 41.8881 46.2937H41.8803ZM36.6531 20.7746C37.1876 20.7107 37.6828 21.0781 37.8086 21.6052L41.5108 38.1468C41.6209 38.642 41.4322 38.9215 40.937 38.9934L40.4733 39.0573C39.9152 39.1372 39.5536 38.9056 39.3728 38.3704L35.0889 25.3033C34.9553 24.888 34.405 24.8241 34.1771 25.1915C33.6269 26.0621 33.4932 26.9327 33.7605 27.8193C33.8155 28.003 33.9177 28.1627 34.0592 28.2985C34.2871 28.5222 34.3972 28.8017 34.3736 29.1292C34.3579 29.3129 34.4129 29.4806 34.5544 29.6004C34.633 29.6803 34.6802 29.7602 34.6959 29.848C34.743 30.0557 34.6723 30.1116 34.4915 29.9998C33.9806 29.6963 33.2731 29.5845 32.9352 29.1851C32.5814 28.7698 32.4635 28.2905 32.5893 27.7314C32.6286 27.5317 32.6207 27.3401 32.5578 27.1563C32.1412 25.9583 31.3316 24.1052 31.7011 22.8752C31.764 22.6755 31.874 22.5238 32.0391 22.4279C33.5404 21.5014 35.081 20.9503 36.6767 20.7746H36.6531ZM38.5318 61.3257V61.4215C38.5239 61.4934 38.4532 61.5493 38.3824 61.5413L37.6042 61.4854C37.5335 61.4854 37.4785 61.4215 37.4863 61.3496V61.2538C38.1623 51.9407 38.9326 44.4087 39.2156 44.4327H39.2392C39.5143 44.4487 39.1999 52.0126 38.5239 61.3337L38.5318 61.3257ZM34.0513 60.527C34.0513 60.7266 33.9649 60.8065 33.7683 60.7666C32.6207 60.5429 31.874 59.9679 31.536 59.0493C31.1194 57.8992 30.7735 55.9183 30.4906 53.0988C29.7753 46.0222 29.2722 39.6723 28.9814 34.0413C28.9578 33.5541 29.1857 33.3065 29.6731 33.3065L33.8705 33.3225C34.3579 33.3225 34.7823 33.6819 34.8609 34.1771C35.3797 37.1324 36.1579 40.0557 36.2287 43.1468C36.2758 45.0397 36.6138 47.2602 35.9928 49.0094C35.9928 49.0254 35.9693 49.0413 35.9535 49.0333C35.9378 49.0333 35.9221 49.0174 35.9221 49.0014C35.9221 46.0062 35.4819 42.8033 34.8845 39.9519C34.7745 39.4327 34.4679 39.1931 33.9491 39.2091C33.8234 39.2091 33.7212 39.257 33.6504 39.3369C33.2574 39.7202 33.0845 40.1995 33.1317 40.7826C33.674 47.5797 33.9806 54.1691 34.0592 60.5429L34.0513 60.527ZM21.6162 8.33846C21.4668 7.83526 21.6398 7.4998 22.135 7.33207L27.2128 5.63079C27.4171 5.56689 27.6294 5.67072 27.6923 5.8704L31.9212 18.1068C32.0312 18.4263 31.9369 18.65 31.646 18.7937L31.4024 18.9135C31.1508 19.0413 30.9858 18.9615 30.915 18.6819C30.1761 15.7186 28.9735 12.6995 27.3228 9.61641C27.0556 9.12919 26.7176 9.07328 26.3167 9.44868L26.0652 9.68031C25.7429 9.98382 25.6407 10.4471 25.8058 10.8544C27.1813 14.249 28.0145 16.9008 28.3132 18.7937C28.8556 22.2921 29.3744 25.7825 29.8617 29.273C29.8932 29.4966 29.7988 29.5845 29.5866 29.5445C29.4844 29.5286 29.4058 29.4647 29.3665 29.3608C27.1263 23.7937 25.004 18.2186 23.0075 12.6356C22.5516 11.3816 22.0957 9.9359 21.6319 8.33047L21.6162 8.33846ZM19.7611 24.6723C20.9087 23.9215 22.2057 23.3385 23.6442 22.9231C23.8328 22.8672 23.9586 22.9391 24.0215 23.1308C25.0905 26.2778 25.6407 28.4423 25.68 29.6244C25.7507 31.6132 25.8372 33.4663 25.9394 35.1915C25.9787 35.7825 25.9001 35.8065 25.7193 35.2314C24.7603 32.2282 23.7542 28.2186 21.514 25.8544C21.3804 25.7107 21.2153 25.6308 21.0266 25.6068L19.9498 25.479C19.1323 25.3832 19.0694 25.1116 19.769 24.6643L19.7611 24.6723ZM18.3777 30.0238C18.7628 29.7921 19.0773 29.5046 19.3288 29.1532C19.8004 28.5062 20.1699 28.5621 20.4293 29.3209C21.8598 33.4343 23.4476 38.2186 25.2084 43.6659C26.7883 48.5701 26.8984 53.642 27.6294 58.7059C27.6451 58.8097 27.6058 58.8576 27.5036 58.8816L27.2835 58.9215C27.2049 58.9295 27.1578 58.8976 27.142 58.8177C26.2381 54.0893 25.4914 50.4631 24.9175 47.9311C24.7446 47.1723 24.5088 46.4455 24.2022 45.7586C22.5123 41.8688 21.0109 37.6516 19.6747 33.0988C19.5961 32.8193 19.4467 32.7714 19.2423 32.987L17.8589 34.3369C17.6545 34.5445 17.631 34.7602 17.8039 34.9998C18.0633 35.3512 18.2441 35.6947 18.3384 36.0142C20.2956 42.38 21.9699 48.8257 23.3533 55.3353C23.5577 56.3017 23.99 57.0685 24.6503 57.6356C24.8389 57.7953 24.8075 57.8672 24.5638 57.8433C22.6223 57.6755 20.7751 54.7123 20.1699 53.0589C17.7331 46.4135 15.2807 39.8241 12.8282 33.2586C12.7654 33.0988 12.8361 32.9151 12.9933 32.8512C14.8169 32.0206 16.617 31.0701 18.3855 30.0078L18.3777 30.0238ZM6.53207 20.503L11.9557 16.5653C12.3959 16.2378 12.7339 16.3337 12.954 16.8369C14.2667 19.872 15.3593 22.7714 16.2397 25.5429C16.4047 26.0861 16.2868 26.741 15.9174 27.3321C15.8545 27.4359 15.768 27.5238 15.6816 27.6036C15.2964 27.9231 15.0292 27.8433 14.8641 27.372C13.3706 22.9551 12.2623 20.4071 11.547 19.7123C11.3977 19.5605 11.2247 19.5365 11.0282 19.6084C10.423 19.856 10.2107 20.3912 10.3994 21.1979C10.9732 23.618 11.8143 25.7985 12.9304 27.7314C13.2055 28.2107 13.1505 28.6579 12.7811 29.0653L12.4903 29.3848C12.0737 29.848 11.7278 29.7921 11.4448 29.233C10.0378 26.3656 8.3714 23.594 6.46919 20.9103C6.35128 20.7506 6.37486 20.6068 6.53207 20.495V20.503ZM6.029 35.3033C5.47878 34.3369 4.91283 33.4902 4.3233 32.7474C4.13465 32.5158 4.18967 32.1643 4.43334 32.0046L7.82903 29.7202C8.02554 29.5845 8.2928 29.6803 8.36354 29.896C11.0204 37.3161 13.7636 44.6723 16.6012 51.9647C16.7978 52.4678 16.9864 53.0509 17.1593 53.7218C17.2851 54.1931 17.1908 54.249 16.8764 53.8736C15.6894 52.4439 14.6833 50.9503 13.8422 49.4008C11.2876 44.6723 8.68582 39.9758 6.02114 35.3113L6.029 35.3033ZM91.7231 61.0222C90.0803 77.9551 88.4531 94.888 86.8575 111.829C86.4959 115.719 85.8749 119.744 85.4976 123.658C85.2304 126.358 84.0277 128.386 81.874 129.76C77.4565 132.58 72.4337 134.345 66.8213 135.064C59.0002 136.054 51.1241 136.198 43.193 135.487C36.7003 134.904 30.6714 133.115 25.1062 130.12C22.1428 128.522 20.4528 126.118 20.0598 122.907C19.3838 117.436 18.81 111.941 18.024 106.509C17.4344 102.46 16.8371 97.7873 16.2239 92.4838C15.3593 84.9918 14.4396 77.4998 13.4807 70.0158C12.9697 66.0062 12.5374 60.9503 12.1916 54.8321C12.1758 54.5605 12.2859 54.4966 12.5138 54.6324C15.375 56.3576 18.4091 57.9072 21.624 59.2889C28.3761 62.1883 35.8592 64.1532 44.0576 65.1835C46.5179 65.487 49.5599 65.6468 53.1757 65.6627C57.2788 65.6787 61.6649 65.7905 65.4772 65.3592C71.3804 64.6883 77.0949 63.1947 82.6129 60.8784C85.8513 59.5286 88.6968 57.6755 91.165 55.3193C91.8095 54.7043 92.1161 54.848 92.0846 55.7426C92.0296 57.3241 91.9039 59.0893 91.7152 61.0222H91.7231ZM90.4025 43.3784C89.027 47.6595 87.8636 51.094 86.8889 53.6739C86.4252 54.9199 85.5369 55.8544 84.2321 56.4854C84.0356 56.5733 83.9806 56.5254 84.0592 56.3257C84.405 55.4631 84.8059 54.5605 85.2854 53.618C85.7963 52.6036 86.1736 51.7011 86.4252 50.8944C87.3134 47.995 88.1387 45.1196 88.909 42.2762C89.6086 39.6563 91.4087 34.9998 92.0139 31.0222C92.1082 30.4151 91.8724 30.0078 91.3143 29.7841L90.8584 29.6084C90.2217 29.3528 89.9073 29.5765 89.923 30.2714C89.9545 32.1803 89.7422 33.8576 89.2863 35.3033C89.192 35.5988 89.0584 35.7826 88.8855 35.8624C88.6575 35.9663 88.4531 35.9183 88.2645 35.7426C88.1073 35.5829 88.0837 35.6068 88.2095 35.7905C88.5239 36.2778 88.8304 36.725 89.137 37.1324C89.3257 37.388 89.2706 37.5397 88.9641 37.5797L88.3588 37.6675C87.6357 37.7714 87.502 38.1148 87.9422 38.7059C88.3274 39.2171 88.3824 39.7522 88.1073 40.3113C87.9972 40.5349 87.8165 40.6388 87.5728 40.6308L87.2191 40.6148C87.0147 40.6148 86.8811 40.7027 86.8103 40.9024C85.5212 45.0158 84.2007 49.1452 82.833 53.2746C82.4557 54.4008 82.3928 56.7969 81.1037 57.8113C80.412 58.3544 80.1526 58.1947 80.3334 57.3241C81.198 53.1627 82.0469 48.9215 82.8644 44.6084C83.6976 40.1835 84.5229 36.6691 85.3326 34.0733C86.3937 30.6627 87.6278 27.2841 89.0427 23.9055C89.2549 23.4024 89.6243 23.2027 90.151 23.3145C90.2375 23.3305 90.3632 23.4583 90.5204 23.6979C90.6305 23.8576 90.7484 23.9854 90.8899 24.0733C92.3755 25.0397 93.869 25.9982 95.3624 26.9567C95.4175 26.9966 95.441 27.0525 95.4253 27.1244C95.4096 27.1803 95.3782 27.2282 95.3231 27.2442C95.2917 27.2602 95.2602 27.2602 95.2131 27.2442C93.7589 26.8768 90.827 26.5413 89.6165 27.6915C89.4986 27.8033 89.5222 27.8592 89.6794 27.8672L95.4332 27.9311C95.7476 27.9311 95.9598 28.2666 95.8419 28.5701C93.7825 33.5222 91.9746 38.4663 90.4025 43.3864V43.3784ZM87.3212 44.1532C87.3841 44.3768 87.1798 44.6404 86.8653 44.7362C86.5431 44.8321 86.2365 44.7202 86.1658 44.4966C86.1029 44.273 86.3073 44.0094 86.6217 43.9135C86.9439 43.8177 87.2505 43.9295 87.3212 44.1532ZM87.2112 41.9647C87.2819 41.757 87.392 41.733 87.5492 41.8848C87.6985 42.0365 87.7614 42.2522 87.73 42.5477C87.7064 42.7714 87.4706 42.9151 87.2741 42.8193C87.0697 42.7234 87.0461 42.4359 87.2112 41.9647ZM86.3308 45.3512C86.4645 45.3113 86.5902 45.4391 86.5431 45.5749L85.3247 49.2011C85.2697 49.3688 85.1596 49.4806 85.0024 49.5445C84.9238 49.5765 84.8688 49.6164 84.8216 49.6803C84.7195 49.8241 84.7588 49.9119 84.9317 49.9279C85.1046 49.9439 85.1989 49.9679 85.2304 49.9838C85.7099 50.3353 85.6548 50.5509 85.0732 50.6308C84.7981 50.6707 84.5937 50.5429 84.4522 50.2554C84.3657 50.0717 84.3736 49.896 84.4837 49.7202C85.2225 48.5381 85.7099 47.2602 85.9378 45.8704C85.985 45.5749 86.1186 45.3992 86.3387 45.3353L86.3308 45.3512Z" fill="black"/>
<path d="M45.2209 10.5432C45.2759 11.294 44.9615 11.8051 44.2698 12.0767C43.5231 12.3802 42.5798 12.4681 41.4558 12.3483C41.0785 12.3083 40.7955 11.9889 40.8034 11.6055C40.8034 11.1821 41.0313 10.8467 41.4794 10.5831C42.3676 10.0799 43.1929 9.69652 43.9633 9.42495C44.7257 9.15339 45.1345 9.42495 45.2052 10.2476L45.2209 10.5352V10.5432Z" fill="black"/>
<path d="M91.1177 25.511L92.6819 25.7665C92.7369 25.7825 92.7684 25.8145 92.7684 25.8704C92.7684 25.9343 92.7526 25.9902 92.7291 26.0301C92.7133 26.0701 92.674 26.094 92.6269 26.102C91.9037 26.1979 91.1963 26.1499 90.4967 25.9662C90.3002 25.9103 90.1823 25.7905 90.1194 25.5908C90.0094 25.2074 90.0329 24.848 90.1744 24.5126C90.2609 24.3129 90.3552 24.3129 90.4338 24.5126C90.5203 24.7282 90.6067 24.9359 90.6775 25.1435C90.7561 25.3512 90.8976 25.471 91.1098 25.503L91.1177 25.511Z" fill="black"/>
<path d="M93.1222 31.2617C92.9728 31.2298 92.8942 31.0062 92.9414 30.7665C92.9964 30.5269 93.1536 30.3512 93.303 30.3831C93.4523 30.4151 93.5309 30.6387 93.4838 30.8784C93.4287 31.118 93.2715 31.2937 93.1222 31.2617Z" fill="black"/>
<path d="M33.1237 36.1902L31.473 36.3659C31.2372 36.3899 31.1271 36.2781 31.1428 36.0464L31.1586 35.7828C31.1743 35.5832 31.2686 35.4634 31.4572 35.3915L33.4695 34.6966C33.6975 34.6167 33.8311 34.6966 33.8861 34.9282L34.5071 37.6678C34.5071 37.6678 34.5071 37.7237 34.4914 37.7237L34.342 37.7477C34.2241 37.7717 34.1062 37.6838 34.0905 37.556C34.0512 37.1247 33.9176 36.7493 33.6896 36.4378C33.5481 36.2381 33.3595 36.1582 33.1237 36.1822V36.1902Z" fill="black"/>
<path d="M19.2422 63.3945C17.2221 62.5239 13.622 60.607 13.9285 57.8434C13.9521 57.6278 14.1879 57.508 14.3687 57.6198C21.2623 61.7572 28.4153 64.5527 35.8433 65.9904C38.5316 66.5175 41.4242 67.1725 44.1675 67.4041C46.7929 67.6278 49.3947 67.8514 51.9414 68.0591C55.6987 68.3706 60.8708 68.123 67.4421 67.3083C74.2964 66.4616 80.7891 64.3051 86.9045 60.8386C88.0049 60.2156 88.8539 59.337 89.7971 58.5543C90.2845 58.1549 90.4495 58.2508 90.2845 58.8658C89.6635 61.1741 90.2923 62.5399 87.8006 63.8818C79.6965 68.2188 71.2544 70.5751 62.4822 70.9345C56.9642 71.1661 50.6602 71.262 45.3073 70.7188C40.1115 70.1837 35.4582 69.2891 31.3472 68.0112C28.1716 67.0207 24.1313 65.4792 19.2422 63.3945Z" fill="black"/>
<path d="M22.8266 112.915C22.8659 113.227 22.6536 113.514 22.3471 113.554L22.1113 113.586C21.8047 113.626 21.5217 113.411 21.4824 113.099L15.0369 64.6806C14.9976 64.3691 15.2098 64.0815 15.5164 64.0416L15.7522 64.0096C16.0588 63.9697 16.3417 64.1854 16.381 64.4969L22.8266 112.915Z" fill="black"/>
<path d="M79.2329 128.067C79.6809 127.883 79.9953 127.468 80.0739 126.981C80.7185 122.604 81.0486 118.139 81.6067 113.722C82.0705 109.992 82.267 106.15 82.6679 102.548C83.9098 91.4296 85.0731 79.8082 86.1657 67.6916C86.2208 67.1405 86.5273 66.6532 87.0068 66.3817C87.3684 66.182 87.8164 65.9264 88.3667 65.6229C88.8776 65.3353 89.0977 65.4871 89.0426 66.0702C87.8714 78.7139 86.7474 91.4935 85.6784 104.401C85.1124 111.214 84.2006 118.059 83.4696 124.992C83.2338 127.236 82.0941 128.762 80.0503 129.561C76.9534 130.775 74.0371 131.701 71.3096 132.34C69.7375 132.708 68.1811 132.843 66.6326 132.755C66.4361 132.739 66.3261 132.524 66.4283 132.364C66.6484 131.997 66.9706 131.773 67.403 131.677C71.679 130.775 75.6249 129.569 79.2329 128.075V128.067Z" fill="black"/>
<path d="M20.5391 65.7986C20.6256 65.7826 20.6885 65.8386 20.6963 65.9264L20.7121 66.0063C21.6396 74.0414 22.1112 80.583 21.7732 80.6229L21.223 80.6868C20.885 80.7267 19.8553 74.2491 18.9277 66.2219V66.1341C18.912 66.0542 18.9671 65.9823 19.0378 65.9743L20.5313 65.7986H20.5391Z" fill="black"/>
<path d="M22.6065 67.4763C22.4965 66.8692 22.6694 66.7654 23.1331 67.1568C23.2353 67.2367 23.6441 67.5801 24.3594 68.1871C24.8153 68.5705 25.0825 69.1376 25.0747 69.7446C25.0747 73.0354 25.2869 76.0146 25.7271 78.6664C25.8135 79.2255 25.8135 79.7606 25.7192 80.2718C25.4913 81.4299 25.2162 81.4379 24.8939 80.3117C24.603 79.3213 24.4065 78.4108 24.2886 77.5961C23.8249 74.4172 23.2668 71.0386 22.6144 67.4763H22.6065Z" fill="black"/>
<path d="M82.377 71.4935C80.9936 71.837 79.6416 72.2683 78.3132 72.7954C76.5996 73.4664 75.0747 73.8817 73.4083 74.3609C73.2118 74.4168 73.0703 74.345 72.9838 74.1613C72.8424 73.8657 72.9288 73.6021 73.2511 73.3705C75.6407 71.6533 79.0364 70.6549 81.929 69.6565C82.5107 69.4568 82.8644 69.1453 83.2652 68.714C83.4853 68.4823 83.5718 68.5223 83.5325 68.8418L83.1631 71.4775C83.1238 71.7331 83.0059 71.797 82.7936 71.6453L82.6443 71.5414C82.5657 71.4775 82.4713 71.4616 82.377 71.4855V71.4935Z" fill="black"/>
<path d="M29.3113 81.1901C28.8318 80.0958 28.5489 79.2332 28.4388 78.5942C27.9515 75.6869 27.4641 72.5719 26.9689 69.2332C26.8825 68.6022 27.1026 68.4505 27.6449 68.762L28.148 69.0495C28.6511 69.345 28.9104 69.7843 28.9262 70.3754C29.0048 73.6661 29.2956 77.0128 29.8065 80.4073C29.8458 80.7029 29.8065 80.9664 29.665 81.206C29.5393 81.4377 29.4214 81.4377 29.3113 81.1901Z" fill="black"/>
<path d="M38.9168 74.1215C38.6338 74.1934 38.2644 73.7221 38.0993 73.0592C37.9342 72.3963 38.0285 71.8052 38.3115 71.7333C38.5945 71.6614 38.9639 72.1327 39.129 72.7956C39.2941 73.4586 39.1997 74.0496 38.9168 74.1215Z" fill="black"/>
<path d="M82.9037 72.7075C82.9037 72.6676 82.9273 72.6037 82.9823 72.5159C83.0609 72.3881 83.0924 72.404 83.0845 72.5478L82.7937 75.7187C82.778 75.9024 82.6836 76.0302 82.5186 76.0941L73.0232 79.8401C72.8738 79.904 72.7952 79.8561 72.7717 79.6884L72.7402 79.4488C72.7088 79.2091 72.811 78.9695 73.0153 78.8337C76.0416 76.8609 79.0993 75.2075 82.1806 73.8897C82.6443 73.69 82.943 73.2187 82.9116 72.6996L82.9037 72.7075Z" fill="black"/>
<path d="M45.0872 74.1056C44.9772 74.4251 44.5449 74.5529 44.1126 74.4012C43.6802 74.2494 43.4208 73.874 43.5309 73.5545C43.6409 73.235 44.0733 73.1072 44.5056 73.259C44.9379 73.4107 45.1973 73.7861 45.0872 74.1056Z" fill="black"/>
<path d="M50.3538 73.2191L50.9434 73.5146C51.1241 73.6025 51.2028 73.7542 51.1792 73.9539C51.1477 74.2334 50.9827 74.4571 50.684 74.6168C50.3538 74.8005 49.9451 74.6009 49.8822 74.2255C49.8272 73.9219 49.8429 73.6504 49.9137 73.4028C49.9923 73.1632 50.1416 73.0993 50.3538 73.2111V73.2191Z" fill="black"/>
<path d="M82.9743 80.5913C83.0057 80.6791 82.9585 80.767 82.8799 80.7989L72.4649 84.5449C72.3784 84.5689 72.292 84.529 72.2605 84.4491L71.8675 83.3229C71.8361 83.235 71.8832 83.1472 71.9618 83.1152L82.3769 79.3692C82.4633 79.3452 82.5498 79.3852 82.5812 79.4651L82.9743 80.5913Z" fill="black"/>
<path d="M80.5455 85.2713C80.3176 85.1116 80.0346 85.1036 79.7988 85.2394C77.8494 86.3975 75.5778 87.2921 72.9995 87.9071C72.7166 87.971 72.4257 87.8432 72.2842 87.5876C72.1742 87.38 72.2214 87.2442 72.4336 87.1483C75.8922 85.6787 79.17 84.3928 82.2827 83.2985C82.4556 83.2346 82.5342 83.2985 82.5028 83.4822L82.1805 85.7426C82.1491 85.9503 82.0469 86.0221 81.8504 85.9503C81.3394 85.7506 80.9071 85.5269 80.5534 85.2793L80.5455 85.2713Z" fill="black"/>
<path d="M31.1587 89.1773C31.0015 89.2093 30.6949 88.2109 30.4748 86.9569C30.2547 85.7029 30.1918 84.6565 30.349 84.6326C30.5063 84.6006 30.8128 85.599 31.0329 86.853C31.253 88.107 31.3159 89.1534 31.1587 89.1773Z" fill="black"/>
<path d="M72.292 90.3913C75.4991 89.952 78.4467 88.3865 81.4258 87.1085C81.6538 87.0127 81.8503 87.0127 82.0075 87.1085C82.149 87.1964 82.1804 87.396 82.0625 87.5238C79.4293 90.3673 75.7663 91.0222 72.0012 91.4536C71.8125 91.4695 71.6632 91.3098 71.6946 91.1261L71.7261 90.9424C71.7811 90.6229 71.9697 90.4312 72.292 90.3913Z" fill="black"/>
<path d="M81.4731 88.9216C81.6303 88.8577 81.7561 88.8418 81.8662 88.8897C82.0234 88.9536 82.0705 89.1692 81.9605 89.297C81.8583 89.4168 81.7247 89.4568 81.5675 89.4248C81.4338 89.3929 81.3631 89.337 81.3317 89.2331C81.2845 89.0814 81.3317 88.9775 81.4731 88.9216Z" fill="black"/>
<path d="M80.1131 93.4823C78.2737 94.0414 76.3794 94.6644 74.4221 95.3593C73.4239 95.7187 71.7103 95.8305 71.6946 94.273C71.6946 94.0334 71.8046 93.9455 72.0326 94.0094L72.5199 94.1452C72.7243 94.2011 72.9208 94.2011 73.1173 94.1372C75.2318 93.4583 77.3462 92.8034 79.4764 92.1724C80.1209 91.9807 80.6554 91.5094 81.3 91.2538C81.4965 91.174 81.583 91.2459 81.5672 91.4615L81.3393 94.257C81.3157 94.5046 81.245 94.5206 81.1271 94.305L80.8362 93.7938C80.6633 93.4983 80.4196 93.4024 80.1052 93.4903L80.1131 93.4823Z" fill="black"/>
<path d="M80.797 95.9104C81.1193 95.7746 81.2293 95.8785 81.1271 96.2139L80.5926 98.027C80.5062 98.3306 80.3018 98.5143 79.9952 98.5861C77.1498 99.1532 73.9742 100.104 71.0187 99.7842C70.8222 99.7683 70.6807 99.6564 70.5942 99.4727C70.4527 99.1612 70.437 98.8417 70.5392 98.5222C70.6021 98.3226 70.72 98.2667 70.9008 98.3545C71.3724 98.5702 71.7811 98.658 72.1348 98.6261C74.2572 98.4104 77.1498 97.5079 80.797 95.9184V95.9104Z" fill="black"/>
<path d="M79.9639 100.855C80.4356 100.703 80.6006 100.855 80.4513 101.342L80.0583 102.652C79.9246 103.099 79.6181 103.339 79.17 103.363C78.3997 103.419 77.315 103.594 75.9001 103.89C75.4757 103.978 75.0197 103.858 74.5481 103.53C74.4381 103.451 74.3831 103.331 74.3831 103.163C74.3831 102.836 74.5403 102.62 74.8468 102.524L79.9718 100.855H79.9639Z" fill="black"/>
<path d="M71.2546 103.315C72.0957 102.971 73.0704 102.14 73.9979 102.436C74.2809 102.524 74.3202 102.907 74.0687 103.059L71.5376 104.561C71.0896 104.824 70.5157 104.624 70.3271 104.137L69.9812 103.275C69.8791 103.019 69.9577 102.939 70.2092 103.019C70.39 103.075 70.5708 103.163 70.728 103.275C70.8852 103.378 71.0581 103.402 71.2389 103.323L71.2546 103.315Z" fill="black"/>
<path d="M78.3054 107.22C75.4599 108.315 72.583 108.818 69.6747 108.738C69.4782 108.738 69.3367 108.57 69.3367 108.37V107.867C69.3524 107.62 69.4782 107.484 69.7218 107.444C73.1254 106.933 76.5289 106.134 79.9246 105.056C80.2312 104.96 80.3491 105.072 80.2783 105.383L79.846 107.292C79.7989 107.5 79.6731 107.58 79.4766 107.54C79.2486 107.5 79.0364 107.404 78.8399 107.276C78.6748 107.164 78.5019 107.14 78.3132 107.22H78.3054Z" fill="black"/>
<path d="M79.2092 109.042C79.8144 108.73 80.0109 108.898 79.783 109.553L79.3585 110.759C79.162 111.326 78.769 111.654 78.1873 111.757L68.7706 113.395C68.3618 113.467 68.1575 113.291 68.1575 112.868V112.412C68.1496 112.021 68.3383 111.821 68.7313 111.813C72.182 111.789 75.6799 110.871 79.217 109.042H79.2092Z" fill="black"/>
<path d="M77.9988 115.487L68.5349 117.3C68.2991 117.34 68.0947 117.133 68.134 116.901L68.2205 116.414C68.2362 116.278 68.3384 116.166 68.472 116.134L78.9342 113.403C79.2486 113.323 79.4923 113.698 79.2879 113.954L78.2032 115.367C78.156 115.431 78.0774 115.479 77.9988 115.495V115.487Z" fill="black"/>
<path d="M22.3706 116.078C25.7506 119.297 29.4686 121.246 33.7682 123.163C33.8232 123.187 33.8468 123.251 33.8311 123.315L33.7761 123.475C33.7367 123.594 33.611 123.658 33.4931 123.618C29.3428 122.308 25.6248 120.216 22.3392 117.34C22.1898 117.205 22.0798 117.037 22.0169 116.853C21.9383 116.614 21.9383 116.39 22.0012 116.174C22.0641 115.935 22.1898 115.895 22.3706 116.07V116.078Z" fill="black"/>
<path d="M78.7533 116.845C79.3507 116.613 79.4372 116.733 79.0206 117.22C78.6747 117.636 78.5411 118.283 78.6354 119.169C78.6511 119.369 78.5647 119.473 78.3681 119.465C77.928 119.449 77.5585 119.377 77.1105 119.505C74.3043 120.295 71.6003 120.918 68.9907 121.366C68.6606 121.43 68.3226 121.326 68.071 121.11L67.733 120.815C67.5051 120.615 67.6073 120.239 67.8981 120.176C71.5453 119.377 75.169 118.267 78.7612 116.853L78.7533 116.845Z" fill="black"/>
<path d="M23.2667 121.158C23.9349 121.477 24.6266 121.597 25.2475 122.013C27.983 123.842 30.8834 125.343 33.949 126.525C34.5228 126.749 34.9551 126.965 35.246 127.172C35.6547 127.476 35.6075 127.588 35.1123 127.508C31.0407 126.885 27.4642 125.247 24.3908 122.596C24.0056 122.268 23.4711 122.021 22.7715 121.845C22.575 121.797 22.4414 121.685 22.3628 121.501C22.1348 120.998 22.0955 120.479 22.2291 119.936C22.2842 119.728 22.3864 119.704 22.52 119.872C22.7165 120.128 22.858 120.415 22.9287 120.735C22.968 120.926 23.0859 121.062 23.2589 121.15L23.2667 121.158Z" fill="black"/>
<path d="M67.002 125.352C66.8526 125.384 66.7976 125.32 66.8212 125.168L67.0491 124.074C67.0727 123.962 67.1749 123.874 67.2849 123.882C68.0317 123.914 68.6605 124.002 69.4072 123.818C72.2055 123.123 76.1829 122.62 78.1008 120.336C78.5332 119.824 78.6747 119.896 78.5253 120.551C77.8021 123.786 72.8344 124.912 70.0675 125.016C69.0928 125.048 68.071 125.168 67.002 125.352Z" fill="black"/>
<path d="M27.1812 129.001C24.4458 127.843 22.7794 125.966 22.1899 123.354C22.1741 123.299 22.1899 123.251 22.2449 123.203L22.41 123.075C22.465 123.035 22.4964 123.051 22.5121 123.107C22.9759 124.321 23.8327 125.311 25.0903 126.086C27.4799 127.556 29.3585 128.522 30.7263 128.993C32.7228 129.68 34.4521 130.391 35.922 131.142C37.4469 131.917 37.3762 132.132 35.7097 131.773C33.1001 131.222 30.2546 130.295 27.1812 129.009V129.001Z" fill="black"/>
<path d="M75.9629 127.684C73.7463 128.243 70.9401 128.866 67.5444 129.561C67.0885 129.657 66.6248 129.585 66.216 129.361L65.7837 129.129C65.5636 129.01 65.6186 128.69 65.8623 128.642C69.0772 128.027 72.0091 127.308 74.6424 126.502C76.3245 125.982 77.4957 125.064 78.156 123.738C78.2896 123.458 78.3682 123.482 78.3761 123.786C78.4547 125.958 77.6529 127.26 75.9629 127.684Z" fill="black"/>
<path d="M37.3761 124.345C37.3761 124.625 37.1481 124.864 36.8652 124.864C36.5822 124.864 36.3542 124.633 36.3542 124.345C36.3542 124.058 36.5822 123.834 36.8652 123.834C37.1481 123.834 37.3761 124.066 37.3761 124.345Z" fill="black"/>
<path d="M65.0762 125.12C65.3985 125.232 65.5242 125.567 66.098 125.639C66.3103 125.663 66.3496 125.751 66.2002 125.919C66.1373 125.983 66.0587 126.031 65.9487 126.054C65.3513 126.198 64.9347 126.046 64.691 125.591C64.4316 125.104 64.5574 124.952 65.0762 125.12Z" fill="black"/>
<path d="M38.7519 128.594C38.7047 128.746 38.1624 128.69 37.565 128.466C36.9597 128.251 36.5195 127.947 36.5667 127.803C36.6139 127.652 37.1562 127.708 37.7536 127.931C38.3589 128.147 38.799 128.45 38.7519 128.594Z" fill="black"/>
<path d="M64.6045 132.844C64.4394 132.891 64.2272 132.612 64.1329 132.236C64.0386 131.861 64.0936 131.518 64.2665 131.47C64.4316 131.422 64.6438 131.701 64.7381 132.077C64.8325 132.452 64.7774 132.796 64.6045 132.844Z" fill="black"/>
<path d="M39.978 133.027C39.9308 133.139 39.5064 133.067 39.0269 132.867C38.5474 132.668 38.2015 132.404 38.2487 132.284C38.2958 132.172 38.7203 132.244 39.1998 132.444C39.6793 132.644 40.0251 132.907 39.978 133.027Z" fill="black"/>
</g>
<defs>
<clipPath id="clip0_2358_2331">
<rect width="100" height="140" fill="white"/>
</clipPath>
</defs>
</svg>
