<svg width="111" height="110" viewBox="0 0 111 110" fill="none" xmlns="http://www.w3.org/2000/svg">
<g clip-path="url(#clip0_2105_810)">
<path d="M101.819 24.5608C91.0994 7.86145 72.8735 -0.770833 52.8801 0.0512899C37.3054 0.688435 21.2109 7.6662 11.4482 20.0391C-0.529153 35.2176 -2.16148 56.007 4.02472 74.217C6.31206 80.9584 11.5521 88.4089 17.8111 93.5883C20.8158 96.0752 23.9349 98.9218 26.8981 100.833C40.2478 109.476 54.4605 112.004 69.5361 108.417C86.452 104.389 98.3981 94.2254 105.27 78.4201C113.006 60.6212 112.382 40.993 101.819 24.5608ZM80.3697 12.8558C85.0587 15.7847 89.2487 19.2067 92.9604 23.1016C93.5115 23.677 93.6155 24.5505 93.1996 25.2288C91.4009 28.1782 89.1656 31.0761 86.4831 33.9125C86.244 34.1694 86.0049 34.1694 85.7761 33.8919C82.1268 29.4524 77.8952 25.1569 73.0606 21.0154C72.8007 20.7893 72.7903 20.553 73.0398 20.3166C75.348 18.0558 77.365 15.6613 79.1013 13.123C79.382 12.712 79.9434 12.5887 80.3697 12.8558ZM36.3801 43.2641C36.2969 43.1408 36.3593 42.9661 36.5049 42.9147C40.175 41.7329 43.6892 40.1092 47.0474 38.0642C48.347 37.2729 49.7298 36.6871 51.1958 36.3172C51.4661 36.2452 51.6845 36.3172 51.8508 36.533L62.7053 50.396C63.3395 51.2079 63.2251 51.8964 62.3622 52.4719C57.9226 55.4212 53.192 58.0623 48.1599 60.3848C47.9208 60.4876 47.7336 60.4362 47.5984 60.2204L36.3801 43.2641ZM41.2251 63.4369L28.2809 68.2155C27.4907 68.5135 26.607 68.1744 26.2119 67.4345L18.2478 52.3075C17.7903 51.4442 18.1958 50.3652 19.1211 50.0055L30.2043 45.6483C30.9425 45.3605 31.7846 45.6277 32.2213 46.2751L42.0361 60.9706C42.6287 61.8646 42.2336 63.067 41.2251 63.4369ZM40.3725 19.5767C39.9255 19.2376 39.9567 18.9704 40.4765 18.7649C43.0654 17.7372 45.3319 16.0827 47.2969 13.791C47.5257 13.5341 47.8168 13.4108 48.1599 13.4416C50.5512 13.6471 52.7657 14.3151 54.7932 15.4353C58.1722 17.2953 61.5824 19.2581 65.0342 21.3443C65.2109 21.447 65.2317 21.6937 65.0654 21.8273C61.416 24.7766 57.538 27.8699 53.348 30.0177C53.0361 30.1821 52.7449 30.1615 52.4642 29.9457C48.1807 26.7703 44.7081 22.8241 40.3725 19.5767ZM56.176 34.3235C55.8744 34.005 55.9264 33.5014 56.2799 33.2445L67.5814 25.0952C68.1117 24.7047 68.8291 24.6739 69.3905 25.0233C74.0172 27.8699 78.1136 32.6279 81.6381 36.8207C81.9085 37.1393 81.8981 37.6223 81.5966 37.9306C77.5105 42.1851 73.1126 45.8332 68.382 48.8648C68.1949 48.9881 67.9349 48.947 67.8102 48.7621C64.2648 43.6546 60.3867 38.8349 56.176 34.3235ZM46.1949 7.05988C46.1949 7.05988 46.2468 7.01878 46.2884 7.01878C50.0937 6.98795 53.8574 6.15555 57.4652 6.45357C63.8489 7.0085 68.9019 7.82035 74.3707 10.0504C75.5351 10.5334 75.7119 11.2424 74.8905 12.1982L70.6174 17.2028C69.7336 18.2305 68.7459 18.3538 67.6334 17.5625C61.2497 13.01 54.4085 9.5057 46.4444 7.69703C46.3404 7.6662 46.2468 7.60454 46.1949 7.51205C46.0805 7.3168 46.0805 7.17293 46.1949 7.05988ZM33.7913 13.0511C36.1514 11.1602 38.6051 10.6258 41.1627 11.4377C42.2544 11.7768 43.3357 12.0954 44.4274 12.3831C44.8121 12.4859 44.864 12.6811 44.5833 12.9586C42.8678 14.6953 40.8612 15.8874 38.5531 16.5348C38.2204 16.6273 37.8981 16.5965 37.5758 16.4526C36.0994 15.7847 34.8206 14.87 33.7393 13.7191C33.5209 13.4827 33.5313 13.2566 33.7913 13.0511ZM32.7828 20.9229C32.8763 20.8099 33.0427 20.7893 33.1674 20.8613C39.2913 24.3861 43.0342 28.0959 47.4737 32.9465C47.6712 33.1623 47.6192 33.5014 47.3697 33.6453C43.2005 36.0808 38.8442 38.1053 34.3007 39.7187C33.9368 39.842 33.5417 39.7187 33.3234 39.4001L25.0578 26.9861C24.8187 26.6161 24.9018 26.3489 25.3073 26.1948C28.3121 25.0233 30.7969 23.266 32.7828 20.9229ZM22.0947 18.9087C24.7979 16.4115 27.21 17.2439 30.1627 18.6826C31.5871 19.3712 31.5247 19.8644 29.9652 20.1419C29.5077 20.2241 29.0398 20.2652 28.572 20.255C28.2705 20.2447 27.969 20.368 27.7402 20.5838L24.8499 23.3687C24.5484 23.6565 24.0389 23.5948 23.831 23.2249L21.9387 19.998C21.7308 19.6486 21.7932 19.1862 22.0947 18.9087ZM20.7639 29.6169L28.6863 41.589C28.9047 41.9282 28.8319 42.1851 28.4576 42.3495L18.3518 46.7684C17.9671 46.9431 17.5096 46.7787 17.3225 46.3985C16.106 43.9013 15.1807 40.9108 14.5257 37.427C13.7771 33.45 16.1684 30.3979 19.8281 29.288C20.1816 29.175 20.5559 29.3086 20.7639 29.6169ZM13.4964 29.4216C13.7979 27.2533 15.0455 25.7837 17.2497 25.0233C17.9983 24.7663 18.5493 24.8794 18.9028 25.3624C19.1211 25.6604 19.0795 25.9379 18.7884 26.1742C18.6117 26.3181 18.4141 26.4517 18.1958 26.5647C16.5011 27.4177 15.0975 28.4453 13.9954 29.6477C13.5691 30.1101 13.4028 30.0382 13.4964 29.4216ZM9.32718 39.9653C9.46234 38.9993 9.64949 38.9891 9.89901 39.9345L12.1448 48.6285C12.1863 48.7826 12.0824 48.9368 11.9264 48.9676L8.77614 49.4609C8.24589 49.5533 8.01716 49.3273 8.08994 48.8032L9.32718 39.9653ZM11.365 71.021C9.20242 65.8108 8.14192 60.1896 8.17312 54.1675C8.18351 53.7873 8.37066 53.5304 8.73455 53.3968L12.7582 51.9683C12.8622 51.9375 12.9765 51.9786 13.0181 52.0814C15.8149 58.8228 18.6221 64.5776 21.4293 69.3357C21.6476 69.6954 21.4293 70.1681 21.003 70.24L12.6958 71.7404C12.1344 71.8431 11.5833 71.5451 11.365 71.021ZM26.1287 87.9259C25.4113 88.039 24.6627 88.0081 23.8725 87.8232C23.3943 87.7204 22.9576 87.484 22.5937 87.1449C19.433 84.2161 16.5115 80.496 13.8291 75.9846C13.6107 75.6249 13.7147 75.4399 14.141 75.4297C15.8773 75.3988 18.7988 74.6178 22.8848 73.0661C23.2591 72.9222 23.5606 73.0147 23.7894 73.3332C26.2119 76.6731 27.7922 79.0675 28.52 80.5063C29.7053 82.839 31.192 84.9457 32.9699 86.8161C33.1778 87.0421 33.0219 87.4018 32.71 87.4018C30.641 87.371 28.4472 87.5457 26.1287 87.9259ZM37.5862 96.2499C36.7336 96.5274 36.0578 96.5068 35.5691 96.1677C33.6457 94.8626 31.9406 93.9788 30.4538 93.5163C29.4661 93.2183 28.7279 92.684 28.2393 91.9338C28.0417 91.6357 28.1249 91.4508 28.4888 91.3891C30.4954 91.05 32.4916 90.9883 34.4775 91.2144C34.8206 91.2555 35.1221 91.3994 35.3612 91.646C36.4321 92.7045 37.2743 94.0096 37.8981 95.5717C38.0332 95.9108 37.9293 96.1369 37.5862 96.2499ZM37.8877 85.9837C34.675 81.4517 31.8158 76.8375 29.3206 72.1206C29.1334 71.7609 29.3518 71.3293 29.7572 71.2574C34.7998 70.353 39.5616 68.6574 44.0219 66.1705C44.3442 65.9958 44.7393 66.078 44.9576 66.376C48.2015 70.9285 50.7071 76.0771 52.4746 81.8217C52.641 82.3663 52.2355 82.911 51.6741 82.9212C51.2062 82.9315 50.7799 82.839 50.3744 82.6335C50.0521 82.4691 49.9378 82.2122 50.0417 81.8525C50.1665 81.4312 50.1249 81.0612 49.9066 80.7426C49.6051 80.3007 49.4907 80.3418 49.5635 80.8659C49.7506 82.243 49.21 83.1679 47.8376 83.6406C44.8536 84.658 41.8073 85.5418 38.6986 86.2817C38.3555 86.3639 38.0852 86.2611 37.8877 85.9837ZM51.6429 101.768L51.5597 102.128C51.5389 102.21 51.4869 102.251 51.3933 102.262C49.4283 102.406 43.3461 101.943 42.2128 99.5076C42.0465 99.1479 42.1504 99.0349 42.5247 99.189C43.5124 99.5898 44.4794 100.032 45.4047 100.535C46.4444 101.09 48.4198 101.378 51.3414 101.398C51.6013 101.398 51.7052 101.522 51.6429 101.768ZM53.7743 97.8222C53.296 98.3669 52.8073 98.819 52.2979 99.1993C51.9132 99.487 51.3518 99.3637 51.1334 98.9424C50.8111 98.3258 50.2913 97.8428 49.5843 97.5036C49.1892 97.3084 49.0124 97.0001 49.054 96.5788C49.0852 96.1163 48.9397 95.7155 48.6174 95.3559C48.503 95.2223 48.3574 95.1298 48.1911 95.0578L47.3697 94.7187C46.7043 94.431 46.7251 94.2254 47.4425 94.1124L49.1996 93.8247C49.6051 93.7527 49.8338 93.5266 49.9066 93.1258C50.0209 92.499 50.3432 92.2112 50.8839 92.2626C51.2166 92.2934 51.4765 92.1701 51.6637 91.8927C51.9444 91.4816 51.986 91.0294 51.7884 90.5464C51.6533 90.1868 51.4661 90.1662 51.2374 90.4745C51.0191 90.7622 50.8215 91.05 50.6448 91.348C50.4576 91.646 50.1977 91.8516 49.8754 91.9646C48.3782 92.5093 47.0058 92.5298 45.7478 92.0263C45.2903 91.8413 45.1656 91.9749 45.3631 92.4168C45.5087 92.7456 45.675 93.0436 45.8622 93.3211C46.0597 93.6294 45.9973 93.7116 45.6542 93.5677C44.6977 93.167 43.9491 92.5298 43.3981 91.6769C43.1901 91.3377 43.107 91.3686 43.1589 91.7693C43.4293 93.9891 44.6561 95.5922 46.8395 96.5788C47.193 96.7432 47.3905 97.0104 47.4217 97.3906C47.4737 97.8941 47.2969 97.9866 46.8915 97.6784L43.1381 94.7495C42.8366 94.5132 42.6183 94.2254 42.4831 93.8863L41.537 91.5124C41.0691 90.3409 41.4642 89.6935 42.7431 89.5599C46.6107 89.1694 50.0937 88.3267 53.2024 87.0421C53.5039 86.9188 53.847 87.0627 53.951 87.3607C54.9179 90.0326 55.8121 95.5408 53.7743 97.8222ZM49.6363 64.0844C49.4595 63.7863 49.5323 63.5808 49.8546 63.4678C55.2402 61.5152 60.761 58.6584 65.1797 55.1335C65.4189 54.9485 65.7724 54.9896 65.9387 55.2363C69.7128 60.7137 72.4784 66.4994 74.2147 72.5933C74.3187 72.9222 74.1835 73.2819 73.8924 73.4668C70.3782 75.738 66.5937 77.6186 62.5389 79.1189C61.2601 79.5814 60.0644 80.3727 58.7648 80.9379C58.4529 81.0715 58.2346 80.979 58.0994 80.6604C55.7601 74.8747 52.9425 69.3562 49.6363 64.0844ZM76.3461 89.8476C76.1173 91.6152 75.8886 93.3828 75.6599 95.1503C75.4416 96.8665 74.589 97.8325 73.3518 98.9013C73.1542 99.076 72.9151 99.189 72.6344 99.2301C71.8754 99.3329 71.1892 99.6926 70.5654 100.319C70.4718 100.412 70.347 100.453 70.2119 100.443L69.4841 100.34C69.141 100.289 69.0682 100.124 69.2865 99.8467C69.9312 98.9938 70.6901 98.593 71.5739 98.6649C71.8962 98.6957 72.1665 98.593 72.4056 98.3772L74.1627 96.7637C74.4434 96.4966 74.6306 96.178 74.7242 95.7977L75.6495 91.8104C75.7223 91.4919 75.7327 91.163 75.6599 90.8445C75.5039 90.1765 75.5247 89.5188 75.7015 88.8816C75.8262 88.4397 75.9926 88.4295 76.2005 88.8303C76.3565 89.1077 76.3981 89.4468 76.3461 89.8476ZM72.7175 92.4681C72.8007 90.9575 73.0398 89.7346 73.2582 89.7449C73.4765 89.7654 73.5909 90.9986 73.5077 92.5092C73.4245 94.0199 73.1854 95.2428 72.9671 95.2325C72.7487 95.212 72.6344 93.9788 72.7175 92.4681ZM76.3149 87.0524C76.2733 87.3504 75.9822 87.556 75.6807 87.5046C71.1268 86.6619 71.3036 92.6428 71.5739 95.5922C71.6674 96.5479 71.2724 97.1542 70.399 97.4112C69.9935 97.5242 69.848 97.3906 69.9623 96.9898C70.5966 94.7187 70.8149 92.6326 70.5966 90.7109C70.295 88.1212 69.7648 88.0698 68.985 90.5567C68.4756 92.1701 68.2884 93.9685 68.4028 95.9622C68.4236 96.3321 68.33 96.7124 68.1221 97.0412C67.4671 98.0894 67.571 98.9732 68.4236 99.6926C68.7355 99.9597 68.7355 100.227 68.434 100.504C67.7062 101.172 66.8329 101.47 65.8139 101.398C65.4708 101.378 65.1485 101.429 64.8262 101.563C62.8196 102.375 60.709 102.673 58.4737 102.436C58.193 102.406 58.0786 102.262 58.1098 101.984L58.1514 101.645C58.1826 101.388 58.4217 101.224 58.6712 101.265C61.0105 101.666 63.0795 101.419 64.8574 100.535C65.1485 100.391 65.4812 100.35 65.7932 100.422C66.1986 100.515 66.5729 100.453 66.916 100.247C67.2175 100.073 67.3527 99.8056 67.3215 99.4562C67.1032 97.1851 67.1032 94.9037 67.3215 92.6223C67.3839 91.9543 67.1656 91.3069 66.7289 90.8034L65.9075 89.8579C65.71 89.6318 65.3357 89.7654 65.3357 90.0634L65.2941 99.0554C65.2941 99.3431 65.1485 99.487 64.847 99.487H64.5143C64.4415 99.4767 64.4104 99.4356 64.4 99.3637L64.2856 90.7931C64.2752 90.1457 63.9945 89.9915 63.433 90.3204L63.0691 90.5362C62.4765 90.8856 62.2062 91.3994 62.2478 92.0776L62.5597 96.7843C62.5909 97.2878 62.4349 97.3495 62.1022 96.9693C61.8111 96.6301 61.4472 96.3732 61.0209 96.1985C60.813 96.1163 60.7506 95.9725 60.8442 95.7669C60.8754 95.695 60.9274 95.623 60.9898 95.5511C61.0625 95.4792 61.0937 95.3867 61.0729 95.2839L59.3262 85.5315C59.2639 85.1821 59.4718 84.843 59.8045 84.7196C65.0342 82.9212 70.0871 80.7426 74.9737 78.1735C75.2752 78.0091 75.6495 78.1735 75.7431 78.4921C76.5228 81.1742 76.71 84.0208 76.3253 87.0524H76.3149ZM79.2052 70.5586C76.9907 64.2591 74.1211 58.3192 70.5966 52.7288C70.503 52.5746 70.5342 52.3794 70.6693 52.2663L84.4557 41.6096C84.83 41.3218 85.3707 41.4143 85.6098 41.8151C88.7705 46.9637 91.5569 52.8007 94.2497 58.607C94.4264 58.9975 94.3432 59.4599 94.0209 59.7579C90.6627 62.9128 86.9718 65.7183 82.969 68.1744C81.7629 68.9143 80.8584 69.8289 79.7771 70.723C79.5068 70.9388 79.3196 70.8874 79.2052 70.5586ZM86.1296 92.5606C85.2251 93.8246 84.227 94.6673 83.9151 94.4412C83.6032 94.2152 84.0918 93.0231 84.9964 91.7591C85.9009 90.4951 86.899 89.6524 87.2109 89.8785C87.5228 90.1045 87.0342 91.2966 86.1296 92.5606ZM95.9132 79.4786L93.813 84.8532C93.6259 85.3362 93.2828 85.7473 92.8461 86.035C91.193 87.0935 89.8829 88.5117 88.8952 90.2895C88.8017 90.4642 88.6769 90.495 88.5001 90.3923H88.4897C88.3858 90.3204 88.365 90.2381 88.4378 90.1354C89.1344 89.0358 89.7166 87.854 90.1741 86.6002C90.2157 86.4872 90.226 86.3742 90.2157 86.2611L90.1221 85.4904C90.0909 85.2335 90.1325 85.2232 90.2468 85.4493C90.3196 85.5829 90.382 85.7267 90.434 85.8603C90.538 86.0967 90.7147 86.1892 90.9642 86.1481C91.796 86.0248 92.3886 85.6548 92.7421 85.0279C93.5947 83.5378 94.3952 81.5545 95.1334 79.0778C95.1646 78.9956 95.2478 78.9545 95.3206 78.9751L95.726 79.0984C95.9236 79.16 95.986 79.2834 95.9132 79.4786ZM89.8622 83.8872C90.1013 82.9212 90.5795 82.2841 91.3177 81.9861C91.8272 81.7703 91.9416 81.9039 91.64 82.3663C91.193 83.0754 90.7147 83.6406 90.1845 84.0825C89.8829 84.3291 89.7686 84.2675 89.8622 83.8872ZM95.778 77.3205C95.5805 77.6288 95.3206 77.7111 94.9879 77.5569C94.7695 77.4439 94.6032 77.2794 94.4888 77.0431C94.3225 76.6834 94.1457 76.6834 93.9482 77.0328C93.2724 78.2763 92.347 79.345 91.1722 80.2493C90.7875 80.5474 90.5587 80.4549 90.4964 79.9719L90.4444 79.6122C90.4028 79.2936 90.2676 79.2525 90.0493 79.4889L87.8971 81.76C87.6372 82.0272 87.3565 82.0683 87.0446 81.873L86.7846 81.7086C86.4935 81.5339 86.3064 81.6059 86.2128 81.9244L85.8177 83.4248C85.7449 83.7331 85.7553 84.0414 85.8697 84.3394C86.192 85.2026 86.2544 86.1789 86.0777 87.2682C86.0049 87.669 85.8177 87.9465 85.5058 88.1212C85.1211 88.3267 84.934 88.2137 84.9236 87.782C84.9132 87.6485 84.8612 87.5354 84.7468 87.4635C84.5597 87.3402 84.3829 87.3607 84.227 87.5149C82.8546 88.9022 82.0748 90.567 81.8773 92.5092C81.8461 92.8484 81.9501 93.1258 82.1996 93.3519L82.9274 94.0096C83.1665 94.2254 83.1977 94.5851 83.0105 94.842C82.8338 95.0989 82.5947 95.3148 82.3036 95.4689C81.7421 95.7772 81.451 95.6128 81.4198 94.9756C81.3574 93.3211 81.5446 89.2927 82.6778 87.8951C82.8962 87.6176 83.1769 87.4326 83.52 87.3402C84.9444 86.9291 85.7346 85.326 85.3187 83.7228C84.7988 81.7189 84.7364 79.8177 85.1211 77.9988C85.1939 77.6597 85.1419 77.6494 84.9756 77.9474C84.279 79.1806 83.9775 80.4343 84.071 81.6983C84.123 82.4691 83.9255 83.1782 83.4576 83.805L82.6674 84.8635C82.2932 85.3671 82.054 85.3157 81.9501 84.6888L80.6504 76.5909C80.4945 75.6455 80.8272 74.9158 81.6485 74.4123C85.4226 72.0795 89.0512 69.644 92.555 67.1262C93.6674 66.3246 94.2497 65.2559 95.1646 64.3927C95.9236 63.6836 96.2771 63.8377 96.2251 64.8757C96.1107 67.1159 97.244 69.274 97.3688 71.1032C97.5143 73.323 96.9841 75.3988 95.778 77.3205ZM98.1485 55.8734C96.0795 49.6972 93.0748 43.9629 89.2799 38.5677C88.916 38.0539 88.9784 37.3654 89.4151 36.9132C91.7128 34.5804 93.865 31.8161 95.882 28.6303C96.0795 28.322 96.2771 28.322 96.485 28.6303C99.9888 33.7994 102.245 39.729 103.253 46.4087C103.461 47.755 103.441 48.9984 103.191 50.1186C102.702 52.3691 100.28 53.962 98.8971 55.9865C98.6996 56.2742 98.2629 56.2125 98.1485 55.8837V55.8734ZM103.784 58.1548C103.316 61.0014 102.9 63.6425 102.546 66.0575C102.016 69.6645 101.517 69.6645 101.029 66.0472C100.852 64.7626 100.8 62.9026 100.852 60.4567C100.852 59.7785 101.143 59.2236 101.673 58.7919L103.014 57.7129C103.659 57.1888 103.919 57.343 103.784 58.1548Z" fill="black"/>
<path d="M92.0453 71.7713C91.6398 72.2954 91.4319 72.8606 91.4111 73.4669C91.3903 73.8163 91.2863 74.1349 91.1096 74.4329L89.9035 76.4368C89.7268 76.7348 89.5812 76.7143 89.4773 76.3854C88.6351 73.806 89.4149 72.1001 91.8374 71.278C92.1389 71.1752 92.378 70.9903 92.534 70.7231L93.7816 68.6883C94.0103 68.3184 94.2599 68.2978 94.5406 68.6267L94.998 69.161C95.2164 69.418 95.2788 69.7057 95.1956 70.0243L94.1455 74.2582C94.1247 74.3507 94.0727 74.4021 93.9791 74.3918L93.6776 74.3712C93.5529 74.3712 93.4385 74.2788 93.4073 74.1554L92.8667 71.9357C92.7107 71.2986 92.4404 71.2472 92.0453 71.7713Z" fill="black"/>
<path d="M85.7864 77.3515C85.672 77.3515 85.568 77.3413 85.4641 77.3104C85.2769 77.2693 85.1418 77.1254 85.1106 76.9405C84.9026 75.7176 85.2769 74.7824 86.2438 74.1247C86.7117 73.7958 86.9196 73.9192 86.8573 74.4844L86.5142 77.5673C86.5038 77.7009 86.431 77.742 86.3062 77.7009C86.2127 77.6701 86.1295 77.6084 86.0671 77.516C86.0047 77.4029 85.9111 77.3515 85.7864 77.3515Z" fill="black"/>
<path d="M46.9121 78.7079C46.6314 79.0265 46.5274 79.3862 46.5898 79.7767C46.6418 80.1467 46.5274 80.4447 46.2259 80.6605C44.8951 81.6573 43.3875 82.0786 41.7136 81.9451C41.4953 81.9245 41.3393 81.8217 41.2354 81.647C41.0482 81.3285 41.1314 80.9791 41.4849 80.6194C41.6096 80.4858 41.776 80.3933 41.9631 80.3522C44.1465 79.8178 45.8308 78.7182 47.0057 77.0637C47.4112 76.4985 48.2949 76.5807 48.5756 77.2178C48.9499 78.0502 49.0435 78.8621 48.8459 79.6637C48.7108 80.2391 48.3989 80.3419 47.931 79.972C47.6087 79.715 47.4423 79.3554 47.432 78.8929C47.432 78.6155 47.0889 78.5024 46.9121 78.7079Z" fill="black"/>
<path d="M51.6427 95.5818C51.31 95.6537 50.9149 95.1604 50.7589 94.4719C50.603 93.7834 50.7485 93.1668 51.0812 93.0949C51.4139 93.0229 51.809 93.5162 51.965 94.2047C52.1209 94.8933 51.9754 95.5098 51.6427 95.5818Z" fill="black"/>
</g>
<defs>
<clipPath id="clip0_2105_810">
<rect width="110" height="110" fill="white" transform="translate(0.5)"/>
</clipPath>
</defs>
</svg>
