<svg width="291" height="201" viewBox="0 0 291 201" fill="none" xmlns="http://www.w3.org/2000/svg">
<g clip-path="url(#clip0_2252_846)">
<path d="M152.222 30.5653C152.248 31.4063 151.597 32.1207 150.768 32.1568H150.571C149.742 32.193 149.037 31.5329 149.001 30.6919L147.984 2.14374C147.958 1.30275 148.609 0.588371 149.438 0.5522H149.635C150.464 0.516028 151.169 1.17615 151.205 2.01714L152.222 30.5653Z" fill="black"/>
<path d="M191.401 43.8854C191 44.4189 190.25 44.5274 189.724 44.1205L189.679 44.0843C189.153 43.6774 189.046 42.9178 189.447 42.3842L201.098 26.7944C201.499 26.2609 202.248 26.1524 202.775 26.5593L202.819 26.5955C203.346 27.0024 203.453 27.762 203.051 28.2955L191.401 43.8854Z" fill="black"/>
<path d="M172.552 35.6287C172.382 36.1622 171.811 36.4425 171.294 36.2707L170.759 36.0898C170.232 35.918 169.947 35.3483 170.125 34.8148L175.032 19.6319C175.201 19.0984 175.772 18.8181 176.289 18.9899L176.825 19.1707C177.351 19.3425 177.636 19.9122 177.458 20.4458L172.552 35.6287Z" fill="black"/>
<path d="M187.806 24.443C188.02 24.5515 188.118 24.8047 188.02 25.0307L187.975 25.1302C185.487 30.6192 183.256 34.9507 182.971 34.8241L182.168 34.4534C181.892 34.3177 183.667 29.7692 186.156 24.2892L186.2 24.1898C186.298 23.9637 186.557 23.8733 186.78 23.9727L187.815 24.452L187.806 24.443Z" fill="black"/>
<path d="M214.193 61.7627C213.604 62.1154 212.855 61.9074 212.507 61.3196L212.48 61.2744C212.132 60.6776 212.329 59.9089 212.917 59.5653L233.703 47.1676C234.291 46.8149 235.041 47.0229 235.388 47.6107L235.415 47.6559C235.763 48.2527 235.567 49.0214 234.978 49.365L214.193 61.7627Z" fill="black"/>
<path d="M202.668 45.341C202.293 45.7389 201.678 45.7569 201.285 45.3862L201.249 45.35C200.857 44.9702 200.83 44.3463 201.205 43.9484L207.003 37.6727C207.378 37.2748 207.993 37.2567 208.386 37.6274L208.422 37.6636C208.814 38.0434 208.841 38.6674 208.466 39.0653L202.668 45.341Z" fill="black"/>
<path d="M161.178 25.6185C161.08 26.1339 160.598 26.4775 160.09 26.3871H160.027C159.519 26.2876 159.18 25.7903 159.269 25.2748L160.562 17.8778C160.661 17.3624 161.142 17.0187 161.651 17.1092H161.713C162.222 17.2086 162.561 17.706 162.471 18.2214L161.178 25.6185Z" fill="black"/>
<path d="M206.388 55.8945C205.977 56.2653 205.353 56.2291 204.987 55.8222L204.969 55.8041C204.603 55.3972 204.639 54.7551 205.041 54.3844L216.129 44.2383C216.539 43.8676 217.164 43.9037 217.529 44.3107L217.547 44.3287C217.913 44.7357 217.877 45.3777 217.476 45.7485L206.388 55.8945Z" fill="black"/>
<path d="M139.884 26.6585C139.893 26.749 139.849 26.8304 139.76 26.8394L138.841 27.0022C138.198 27.1197 137.351 25.3925 136.959 23.1409L136.138 18.4025C135.754 16.1508 135.959 14.2337 136.611 14.1162L137.529 13.9443C137.619 13.9353 137.69 13.9896 137.708 14.0709L139.893 26.6495L139.884 26.6585Z" fill="black"/>
<path d="M120.322 9.20614C120.393 9.18805 120.518 9.15188 120.696 9.11571C121.829 8.84443 122.632 9.25135 123.114 10.3184C126.504 17.9505 129.305 25.3114 131.49 32.3919C131.793 33.3866 131.446 33.9925 130.438 34.2005L130.099 34.2638C129.545 34.3813 128.992 34.0739 128.787 33.5404C125.915 25.9896 123.23 18.3303 119.438 11.1684C118.885 10.1285 119.18 9.47742 120.313 9.20614H120.322Z" fill="black"/>
<path d="M181.33 39.6807C181.151 39.8887 180.821 39.8887 180.589 39.6807C180.348 39.4727 180.295 39.1472 180.473 38.9392C180.652 38.7312 180.982 38.7312 181.214 38.9392C181.455 39.1472 181.508 39.4727 181.33 39.6807Z" fill="black"/>
<path d="M161.133 33.8022C160.919 33.7208 160.821 33.4405 160.928 33.1783C161.026 32.916 161.276 32.7713 161.499 32.8527C161.713 32.9341 161.811 33.2144 161.704 33.4767C161.606 33.7389 161.356 33.8836 161.133 33.8022Z" fill="black"/>
<path d="M139.688 32.8981C139.376 32.7805 139.233 32.3826 139.376 31.9847C139.519 31.5959 139.876 31.3698 140.197 31.4783C140.509 31.5959 140.652 31.9938 140.509 32.3917C140.366 32.7805 140.009 33.0066 139.688 32.8981Z" fill="black"/>
<path d="M119.474 33.7033C119.028 33.8932 118.511 33.6852 118.323 33.2331L114.568 24.2988C114.38 23.8466 114.586 23.3222 115.032 23.1323L115.085 23.1142C115.531 22.9243 116.049 23.1323 116.236 23.5844L119.992 32.5187C120.179 32.9708 119.974 33.4953 119.528 33.6852L119.474 33.7033Z" fill="black"/>
<path d="M111.258 37.9077C110.625 38.2785 109.804 38.0705 109.438 37.4284L100.607 22.2094C100.232 21.5673 100.446 20.7444 101.08 20.3646L101.124 20.3375C101.758 19.9667 102.579 20.1747 102.944 20.8168L111.776 36.0358C112.15 36.6779 111.936 37.5008 111.303 37.8806L111.258 37.9077Z" fill="black"/>
<path d="M203.364 68.1742C203.256 68.0566 203.256 67.8758 203.372 67.7673L203.488 67.6588C203.908 67.2609 204.55 67.2609 204.925 67.6588L205.112 67.8577C205.487 68.2646 205.46 68.9067 205.041 69.3136L204.925 69.4221C204.809 69.5306 204.63 69.5306 204.514 69.4221L203.364 68.1832V68.1742Z" fill="black"/>
<path d="M206.771 72.9123C206.584 72.4511 206.86 71.8905 207.396 71.6644C207.931 71.4383 208.52 71.6282 208.707 72.0985C208.894 72.5596 208.618 73.1203 208.083 73.3464C207.547 73.5724 206.959 73.3825 206.771 72.9123Z" fill="black"/>
<path d="M204.068 75.6793C203.337 74.1602 202.454 72.7133 201.419 71.3298C201.285 71.1489 201.249 70.9771 201.312 70.8143C201.401 70.5611 201.544 70.5159 201.758 70.6696C203.408 71.8181 204.175 73.491 204.068 75.6884V75.6793Z" fill="black"/>
<path d="M210.562 76.2588C211.116 76.3402 211.303 76.6476 211.124 77.1812C211.044 77.4163 210.901 77.561 210.687 77.6243C210.473 77.6876 210.268 77.6695 210.054 77.57C209.626 77.3711 209.233 77.1088 208.859 76.7923C208.636 76.5934 208.662 76.4577 208.948 76.3764C209.483 76.2136 210.018 76.1684 210.571 76.2588H210.562Z" fill="black"/>
<path d="M100.919 41.0634C100.375 41.4794 99.6169 41.3618 99.2065 40.8193L92.0968 31.252C91.6954 30.7004 91.7935 29.9317 92.3376 29.5157L92.3822 29.4796C92.9264 29.0636 93.6846 29.1812 94.095 29.7237L101.205 39.291C101.606 39.8426 101.508 40.6113 100.964 41.0273L100.919 41.0634Z" fill="black"/>
<path d="M85.4777 36.8766C85.5312 36.8224 85.6204 36.8224 85.665 36.8766L94.2913 45.187C95.5312 46.3806 96.2003 47.6918 95.7899 48.1169L95.6383 48.2706C95.2368 48.7046 93.9077 48.0897 92.6766 46.8961L84.0415 38.5857C83.988 38.5315 83.988 38.441 84.0415 38.3958L85.4688 36.8676L85.4777 36.8766Z" fill="black"/>
<path d="M72.0611 42.7552C72.2663 42.4659 72.6499 42.4116 72.9353 42.6196L81.517 49.04C85.0228 51.6624 87.6008 54.1582 87.2797 54.6104L86.6017 55.5508C86.2716 55.9939 83.1673 54.2396 79.6615 51.6082L71.0709 45.1787C70.7944 44.9707 70.7319 44.5729 70.946 44.3016L72.07 42.7552H72.0611Z" fill="black"/>
<path d="M235.951 120.749C235.835 120.984 235.46 121.011 235.121 120.821C234.782 120.631 234.612 120.297 234.728 120.071C234.844 119.836 235.219 119.809 235.558 119.998C235.897 120.188 236.066 120.523 235.951 120.749Z" fill="black"/>
<path d="M232.043 127.196C232.445 127.233 232.739 127.603 232.677 128.01C232.632 128.327 232.516 128.589 232.32 128.824C231.793 129.439 231.142 129.647 230.366 129.466L222.748 127.667C222.534 127.612 222.391 127.404 222.418 127.169L222.454 126.943C222.507 126.527 222.739 126.346 223.149 126.392L232.043 127.205V127.196Z" fill="black"/>
<path d="M80.6873 63.2365C80.4732 63.5801 80.0183 63.6977 79.6793 63.4806L70.384 57.7204C70.0361 57.5033 69.9291 57.0512 70.1432 56.6985L70.161 56.6624C70.3751 56.3187 70.8301 56.2012 71.1691 56.4182L80.4643 62.1785C80.8122 62.3955 80.9193 62.8476 80.7052 63.2003L80.6873 63.2365Z" fill="black"/>
<path d="M234.648 142.226C234.389 142.931 233.631 143.293 232.935 143.031L218.466 137.65C217.77 137.397 217.422 136.61 217.672 135.914L217.726 135.76C217.984 135.055 218.743 134.693 219.438 134.956L233.908 140.336C234.603 140.589 234.951 141.376 234.702 142.072L234.648 142.226Z" fill="black"/>
<path d="M76.9496 72.6688C76.7177 73.2656 76.0397 73.555 75.4509 73.3108L64.8443 68.9341C64.2556 68.6899 63.9701 68.0027 64.211 67.4149L64.2467 67.3245C64.4786 66.7276 65.1566 66.4383 65.7453 66.6824L76.3519 71.0592C76.9407 71.3033 77.2261 71.9906 76.9853 72.5784L76.9496 72.6688Z" fill="black"/>
<path d="M68.2074 78.9084C68.136 79.4058 67.6989 79.7494 67.2083 79.6771L60.7676 78.7909C60.277 78.7276 59.938 78.2664 60.0094 77.7781V77.7148C60.0896 77.2174 60.5268 76.8738 61.0174 76.9461L67.4581 77.8323C67.9487 77.8956 68.2877 78.3568 68.2163 78.8451V78.9084H68.2074Z" fill="black"/>
<path d="M231.365 157.571C230.892 158.304 229.929 158.503 229.215 158.024L214.443 148.176C213.729 147.706 213.524 146.72 213.997 145.997L214.033 145.942C214.505 145.21 215.469 145.011 216.182 145.49L230.955 155.338C231.669 155.808 231.874 156.794 231.401 157.517L231.365 157.571Z" fill="black"/>
<path d="M217.378 161.623C217.119 161.976 216.628 162.048 216.281 161.786L208.743 156.062C208.395 155.8 208.332 155.302 208.582 154.95L208.618 154.904C208.876 154.552 209.367 154.479 209.715 154.742L217.253 160.466C217.601 160.728 217.663 161.225 217.413 161.578L217.378 161.623Z" fill="black"/>
<path d="M213.301 174.029C212.846 174.518 212.088 174.545 211.606 174.093L202.686 165.647C202.204 165.185 202.177 164.417 202.623 163.928L202.668 163.883C203.123 163.395 203.881 163.368 204.363 163.82L213.283 172.266C213.765 172.727 213.792 173.496 213.346 173.984L213.301 174.029Z" fill="black"/>
<path d="M203.408 182.792C202.775 183.316 201.838 183.217 201.321 182.575L191.267 170.023C190.75 169.372 190.848 168.432 191.481 167.907L191.526 167.871C192.159 167.347 193.096 167.446 193.613 168.088L203.667 180.64C204.184 181.291 204.086 182.231 203.453 182.756L203.408 182.792Z" fill="black"/>
<path d="M189.43 187.196C188.805 187.567 188.002 187.35 187.645 186.726L182.507 177.846C182.141 177.213 182.355 176.408 182.971 176.037L183.042 175.992C183.667 175.621 184.47 175.838 184.827 176.462L189.965 185.342C190.331 185.975 190.116 186.78 189.501 187.151L189.43 187.196Z" fill="black"/>
<path d="M86.0397 132.514C86.0664 132.668 85.5937 132.894 84.9603 133.021C84.3358 133.156 83.8006 133.138 83.7738 132.985C83.7471 132.831 84.2199 132.605 84.8532 132.478C85.4777 132.342 86.0129 132.361 86.0397 132.514Z" fill="black"/>
<path d="M85.7899 140.336C85.5937 140.228 85.558 139.902 85.7186 139.631C85.8702 139.351 86.1557 139.224 86.3519 139.333C86.5482 139.441 86.5839 139.767 86.4233 140.038C86.2716 140.318 85.9862 140.445 85.7899 140.336Z" fill="black"/>
<path d="M89.6347 146.919C91.9897 149.577 94.541 151.82 97.2975 153.638C98.2252 154.253 98.136 154.551 97.0299 154.56C96.7979 154.56 96.3787 154.334 95.7632 153.873C92.4447 151.404 89.715 148.402 87.5562 144.875C86.9853 143.935 86.2716 143.428 85.7007 142.515C85.6026 142.352 85.5758 142.153 85.6383 141.981L85.781 141.547C85.8613 141.321 85.9594 141.312 86.0843 141.502C87.2707 143.338 88.2342 145.354 89.6258 146.928L89.6347 146.919Z" fill="black"/>
<path d="M174.461 187.747C174.033 187.946 173.007 186.581 172.15 184.7C171.303 182.819 170.964 181.137 171.392 180.938C171.82 180.739 172.846 182.105 173.703 183.986C174.55 185.867 174.889 187.548 174.461 187.747Z" fill="black"/>
<path d="M164.586 199.531L158.85 179.365C158.582 178.434 159.537 177.611 160.402 178.036L161.41 178.533C161.686 178.669 161.901 178.904 161.99 179.202L168.19 199.069C168.43 199.856 167.788 200.634 166.985 200.525L165.513 200.326C165.076 200.272 164.719 199.956 164.586 199.531Z" fill="black"/>
<path d="M101.347 156.712C101.098 157.074 100.339 156.965 99.6258 156.477C98.9211 155.989 98.5464 155.301 98.7962 154.94C99.0459 154.578 99.8042 154.687 100.518 155.175C101.223 155.663 101.597 156.35 101.347 156.712Z" fill="black"/>
<path d="M66.6285 164.607C65.9505 165.032 65.0584 164.806 64.6481 164.109L64.6302 164.073C64.2199 163.377 64.434 162.482 65.1209 162.066L83.0781 151.061C83.756 150.636 84.6481 150.862 85.0584 151.558L85.0763 151.594C85.4866 152.29 85.2725 153.186 84.5856 153.602L66.6285 164.607Z" fill="black"/>
<path d="M154.621 194.919C154.666 195.389 154.327 195.805 153.854 195.841H153.818C153.355 195.886 152.944 195.543 152.909 195.072L152.24 187.467C152.195 186.997 152.534 186.581 153.007 186.545H153.042C153.506 186.5 153.917 186.843 153.952 187.314L154.621 194.919Z" fill="black"/>
<path d="M143.328 198.002C143.292 198.707 142.694 199.259 141.99 199.223H141.927C141.232 199.178 140.687 198.572 140.723 197.866L141.481 183.443C141.517 182.738 142.115 182.186 142.819 182.222H142.882C143.578 182.268 144.122 182.873 144.086 183.579L143.328 198.002Z" fill="black"/>
<path d="M79.0638 172.32C78.6267 172.727 77.9487 172.691 77.5473 172.248L77.4938 172.184C77.0923 171.741 77.128 171.054 77.5651 170.647L88.93 160.139C89.3671 159.732 90.0451 159.769 90.4465 160.212L90.5 160.275C90.9014 160.718 90.8658 161.405 90.4286 161.812L79.0638 172.32Z" fill="black"/>
<path d="M99.1262 166.669C99.3046 166.479 99.5633 166.38 99.822 166.398C100.375 166.434 100.652 166.823 100.634 167.564C100.634 167.736 100.571 167.908 100.473 168.052L90.0451 182.774C89.7061 183.253 89.0727 183.416 88.5464 183.163L88.2699 183.036C87.3956 182.611 87.2172 181.987 87.7346 181.146C90.8033 176.209 94.5946 171.389 99.1352 166.678L99.1262 166.669Z" fill="black"/>
<path d="M132.623 194.629C132.534 195.262 131.945 195.705 131.321 195.614H131.24C130.607 195.506 130.179 194.918 130.268 194.276L131.945 182.638C132.034 182.005 132.623 181.562 133.248 181.652H133.328C133.961 181.761 134.389 182.349 134.3 182.991L132.623 194.629Z" fill="black"/>
<path d="M110.384 198.228C110.072 199.06 109.153 199.467 108.341 199.159L108.279 199.132C107.458 198.816 107.057 197.884 107.36 197.062L114.666 177.592C114.978 176.76 115.897 176.353 116.709 176.661L116.771 176.688C117.592 177.005 117.993 177.936 117.69 178.759L110.384 198.228Z" fill="black"/>
<path d="M99.7596 184.872L105.362 175.766C105.487 175.567 105.71 175.458 105.942 175.486L106.521 175.558C106.941 175.612 107.182 176.064 106.976 176.444L101.936 185.984C101.793 186.265 101.463 186.373 101.178 186.256L100.036 185.758C99.6971 185.604 99.5722 185.198 99.7685 184.881L99.7596 184.872Z" fill="black"/>
<path d="M122.463 193.662C122.364 194.096 121.918 194.367 121.49 194.258L121.089 194.159C120.661 194.051 120.393 193.616 120.5 193.173L122.338 185.487C122.436 185.053 122.882 184.782 123.31 184.89L123.711 184.99C124.14 185.098 124.407 185.532 124.3 185.975L122.463 193.662Z" fill="black"/>
<path d="M205.005 77.4339C204.853 76.7919 204.541 76.2041 204.068 75.6796C204.05 76.0052 204.14 76.3759 204.336 76.7828C204.523 77.1717 204.336 77.6329 203.952 77.7866C202.124 78.5191 201.624 77.452 201.446 75.7972C201.267 74.2418 200.322 73.446 198.6 73.4189C198.404 73.4189 198.234 73.3466 198.083 73.229L196.129 71.6375C196.066 71.5923 196.022 71.529 195.995 71.4657C195.879 71.2034 195.692 70.9954 195.442 70.8508C195.273 70.7423 195.281 70.7242 195.469 70.8055C196.298 71.122 196.994 71.5651 197.583 72.1168C198.511 73.012 198.876 72.8131 198.671 71.529L198.529 70.6247C198.484 70.3715 198.35 70.1906 198.127 70.0731C195.576 68.7619 193.176 67.1975 190.937 65.3979C189.893 64.566 188.671 64.2766 187.601 63.5532C181.776 59.6196 176.513 56.6897 171.811 54.7455C162.034 50.7124 151.624 49.3741 140.571 50.7124C134.612 51.4358 128.743 52.8103 122.989 54.8178C122.909 54.845 122.864 54.8178 122.837 54.7455C122.819 54.7003 122.837 54.6641 122.882 54.646C133.881 50.0161 146.762 47.8639 158.546 50.0885C163.551 51.0289 168.743 52.2406 173.471 54.2843C182.712 58.2812 191.526 63.3362 199.911 69.431C200.286 69.7023 200.536 69.6119 200.661 69.1688C200.759 68.798 200.5 68.2645 199.893 67.5773C197.958 65.416 195.843 63.4628 193.533 61.7266C188.011 57.5759 182.168 54.013 175.977 51.0379C175.763 50.9385 175.71 50.7847 175.808 50.5677L175.888 50.405C175.888 50.405 175.933 50.3507 175.977 50.3688C177.833 51.1645 179.688 51.9784 181.526 52.8103C184.577 54.1758 187.529 56.0296 190.598 57.6483C193.203 59.0137 195.433 60.6414 197.842 62.2149C198.85 62.884 199.804 63.8335 200.723 65.0905C200.946 65.3889 201.383 65.3979 201.624 65.1176C202.008 64.6384 201.945 64.2947 201.446 64.0777C200.063 63.508 199.037 62.658 198.359 61.5367C197.886 60.7499 197.253 60.0627 196.468 59.4839C184.238 50.405 170.759 45.0064 156.04 43.2883C151.686 42.7819 145.924 42.7366 141.963 42.8904C134.488 43.1888 127.173 44.8346 120.027 47.8277C106.289 53.579 95.6918 62.8931 88.2431 75.7881C88.2253 75.8153 87.8684 76.593 87.1637 78.0941C86.5482 79.4143 85.6294 80.4723 84.4072 81.2771C84.2467 81.3856 84.2199 81.5213 84.318 81.6841C84.3626 81.7564 84.4251 81.8107 84.5143 81.8378C84.6213 81.874 84.7641 81.874 84.9514 81.8197C86.6285 81.3676 88.6178 81.0511 90.9104 80.8612C94.0147 80.608 97.137 80.3728 100.295 80.1468C102.48 79.993 105.612 79.8574 109.679 79.7579C113.988 79.6494 118.047 79.3058 122.373 79.3058C127.86 79.3058 133.06 79.0888 141.232 79.2335C143.604 79.2787 146.388 78.8356 149.037 78.9712C150.946 79.0616 152.525 79.0616 153.765 78.9622C155.603 78.8175 157.182 78.7542 158.502 78.7632C162.373 78.8084 166.165 78.7813 169.884 78.6818C170.411 78.6728 170.464 78.501 170.045 78.1845C167.851 76.5116 165.817 74.4769 163.729 72.6593C158.484 68.0837 152.998 63.8335 147.262 59.8818C147.208 59.8547 147.208 59.8095 147.235 59.7552L147.333 59.6105C147.378 59.5382 147.431 59.5292 147.503 59.5653C150.455 61.3106 153.292 63.1463 156.022 65.0814C160.884 68.5268 165.754 72.8492 170.625 76.9004C171.713 77.8047 172.748 78.3563 173.711 78.5552C174.934 78.8084 176.12 78.8808 177.28 78.7904C177.752 78.7451 177.833 78.5552 177.503 78.2026C175.754 76.3126 173.917 74.5854 171.972 73.012C165.201 67.5411 158.136 62.5223 150.741 57.9557C150.313 57.6935 149.965 57.3498 149.688 56.9248C149.546 56.7078 149.59 56.6626 149.813 56.7801C151.196 57.5397 152.552 58.3355 153.89 59.1584C155.326 60.0446 156.673 60.8494 157.94 61.5638C165.326 65.7054 171.945 70.697 177.797 76.5206C178.992 77.7143 180.081 78.4286 181.053 78.6728C182.427 79.0255 183.801 78.926 185.157 78.3834C185.38 78.293 185.442 78.0036 185.273 77.8318C178.992 71.4114 172.034 65.7777 164.407 60.967C163.033 60.1079 161.633 59.3121 160.188 58.5887C160.116 58.5525 160.099 58.4983 160.125 58.4169C160.161 58.3355 160.215 58.3084 160.286 58.3355C163.158 59.3031 165.023 60.4696 168.35 62.4138C174.398 65.9496 178.698 69.7656 184.3 74.8929C185.174 75.6887 185.87 76.6291 186.521 77.4882C186.816 77.877 187.208 78.1212 187.69 78.2116L189.992 78.6366C190.393 78.709 190.678 78.2568 190.446 77.9222C189.224 76.0775 187.815 74.4136 186.218 72.9397C179.43 66.6368 172.124 61.4734 164.3 57.4312C163.711 57.1328 163.738 57.0514 164.38 57.1961C165.076 57.3589 165.915 57.7116 166.869 58.2451C176.289 63.4447 185.29 69.3949 192.445 77.3073C193.185 78.1393 194.122 78.5281 195.228 78.501L196.521 78.4648C197.601 78.4377 197.779 78.0217 197.039 77.2169C195.424 75.4445 193.685 73.7445 191.811 72.1077C191.758 72.0625 190.357 70.7784 187.61 68.2464C185.843 66.6187 183.908 65.208 181.82 63.9963C181.802 63.9782 181.802 63.9692 181.82 63.9601L181.909 63.8155C181.945 63.7431 182.008 63.7341 182.07 63.7702C189.162 67.9118 195.719 72.7769 201.749 78.3563C202.775 79.3058 204.059 79.134 204.889 78.0398C205.023 77.8589 205.076 77.651 205.023 77.4249L205.005 77.4339ZM104.22 78.9079C103.997 79.1521 103.203 78.7813 102.427 78.0579L102.32 77.9584C101.544 77.2531 101.107 76.4844 101.321 76.2403L101.392 76.1589C101.392 76.1589 101.49 76.1137 101.535 76.1499L104.282 78.6818C104.282 78.6818 104.327 78.7813 104.282 78.8265L104.211 78.9079H104.22ZM109.813 78.284L109.795 78.302C109.661 78.4286 109.456 78.4196 109.331 78.302L103.248 71.9269C103.123 71.7912 103.132 71.5832 103.248 71.4566L103.265 71.4385C103.399 71.3119 103.604 71.321 103.729 71.4385L109.813 77.8137C109.938 77.9494 109.929 78.1574 109.813 78.284ZM116.495 77.6781C115.754 77.3526 115.005 76.7286 114.238 75.8153C112.213 73.3827 109.911 70.8689 107.333 68.2736C107.083 68.0204 107.128 67.9661 107.449 68.0927C107.913 68.2826 108.323 68.5629 108.653 68.9427C111.178 71.7912 113.934 74.4498 116.923 76.9366C118.529 78.2749 118.386 78.5191 116.486 77.6781H116.495ZM126.584 78.076L126.566 78.0941C126.432 78.2387 126.218 78.2478 126.075 78.1212L112.106 65.3527C111.963 65.2171 111.945 65.0001 112.079 64.8554L112.097 64.8373C112.231 64.6926 112.445 64.6836 112.587 64.8102L126.557 77.5786C126.7 77.7143 126.718 77.9313 126.584 78.076ZM134.853 77.7414C134.719 77.9042 134.496 77.9132 134.345 77.7866L117.262 62.5042C117.119 62.3686 117.101 62.1425 117.226 61.9888H117.235C117.369 61.826 117.592 61.817 117.744 61.9436L134.827 77.226C134.969 77.3616 134.987 77.5877 134.862 77.7414H134.853ZM144.05 78.4196C143.988 78.4919 143.881 78.501 143.81 78.4377L122.909 60.768C122.837 60.7047 122.819 60.5962 122.891 60.5239L123.158 60.1983C123.221 60.126 123.328 60.1169 123.399 60.1802L144.3 77.8499C144.372 77.9132 144.389 78.0217 144.318 78.0941L144.05 78.4196ZM152.338 78.0036C151.909 78.0036 151.508 77.8951 151.133 77.66C150.732 77.4158 150 76.7919 148.939 75.8062C144.434 71.5923 139.769 67.5863 134.934 63.7793C133.141 62.3686 130.625 60.8494 128.591 59.1584C128.529 59.1132 128.52 59.0589 128.573 59.0047L128.68 58.86C128.68 58.86 128.734 58.8238 128.761 58.8419C131.347 60.4063 133.81 62.0702 136.156 63.8335C141.847 68.1289 147.28 72.7588 152.436 77.7323C152.614 77.9132 152.587 77.9946 152.338 77.9946V78.0036ZM153.069 70.0821C155.424 72.1529 157.815 74.1876 160.241 76.2041C160.866 76.7195 161.428 77.2712 161.936 77.8589C162.025 77.9675 162.008 78.0488 161.874 78.1031L161.597 78.2207C161.517 78.2478 161.437 78.2478 161.356 78.1935C156.521 74.9924 152.231 70.9141 147.842 67.1161C144.728 64.4304 140.785 61.7718 137.503 58.9233C136.744 58.2632 136.789 58.1999 137.637 58.7243C143.283 62.2239 148.422 66.0129 153.069 70.0821Z" fill="black"/>
<path d="M285.317 91.7756C283.658 89.8223 281.624 88.1313 279.215 86.7025C276.084 84.8397 272.275 82.7237 267.788 80.3635C267.173 80.038 267.066 79.5858 267.467 79.0071C268.555 77.4246 269.84 75.9687 271.321 74.6213C276.753 69.6478 283.042 65.3615 290.179 61.7534C290.527 61.5726 290.607 61.1204 290.348 60.822C290.125 60.5779 289.769 60.3789 289.26 60.2342C284.88 58.9501 280.5 58.0187 275.852 57.7565C264.47 57.1145 253.23 58.2358 242.132 61.1023C237.003 62.4316 231.802 63.9418 226.53 65.6509C223.97 66.4828 221.463 67.8031 219.019 69.6116C218.841 69.7473 218.885 70.0276 219.099 70.0909L219.314 70.1542C219.59 70.2446 219.884 70.2175 220.143 70.0909C225.371 67.4323 230.875 65.9312 236.664 65.5785C241.615 65.2801 246.227 66.2658 250.5 68.5174C263.194 75.2272 255.701 94.0091 250.099 102.663C242.159 114.943 223.979 118.958 210.536 120.107C205.228 120.559 200.678 121.056 195.692 121.291C185.942 121.771 177.842 121.951 171.41 121.852C161.847 121.698 152.177 121.499 142.516 121.129C142.516 121.129 142.516 121.129 142.507 121.12V120.921C142.507 120.83 142.543 120.785 142.641 120.776C146.075 120.441 149.528 120.251 152.98 120.206C170.17 119.935 187.28 119.383 204.55 117.647C213.328 116.77 221.33 115.278 228.555 113.171C237.958 110.431 245.237 105.349 249.751 96.08C251.356 92.7884 252.534 89.6143 253.265 86.5669C254.122 83.0402 254.496 76.4028 251.678 73.4639C247.485 69.1143 240.884 67.8573 235.157 68.3456C228.198 68.9334 222.347 71.0675 219.091 77.7049C218.894 78.1119 219.162 78.5911 219.608 78.6273C225.076 79.0975 230.295 78.6002 235.79 78.1119C241.214 77.6326 245.986 76.5203 250.901 74.6756C251.223 74.558 251.553 74.8655 251.455 75.2001C250.366 78.8353 239.278 80.8066 236.04 81.2588C224.844 82.8232 213.595 82.8594 202.311 83.1578C189.911 83.4924 167.529 83.6009 135.165 83.4743C120.777 83.411 106.397 83.8541 92.0343 84.7583C80.4911 85.4727 67.9755 87.7244 57.1637 92.716C53.7649 94.2895 50.7676 96.2427 48.029 98.7024C47.3689 99.2992 47.2886 99.2268 47.7971 98.4853C52.7748 91.233 60.839 87.1999 69.0281 85.1291C69.1173 85.102 69.1708 85.0115 69.1352 84.9302L69.0816 84.7674C69.037 84.6227 68.8943 84.5232 68.7426 84.5504C65.1476 85.0658 61.4277 86.1871 57.5919 87.9052C52.6856 90.0755 48.7783 93.349 45.8613 97.6986C42.9889 101.976 40.4376 107.203 38.2074 113.361C35.4242 121.047 35.5847 128.752 38.7159 136.465C38.8229 136.736 39.1708 136.791 39.3582 136.565C42.7212 132.387 46.8247 130.406 52.1771 128.453C58.1539 126.274 64.434 125.017 71.0174 124.691C72.5963 124.61 75.8256 124.402 80.7141 124.067C84.1931 123.832 87.913 124.067 91.5437 123.986C105.683 123.651 119.813 123.697 133.952 124.122C138.243 124.257 142.694 124.303 147.324 124.257C153.997 124.203 160.661 124.257 167.333 124.438C172.917 124.583 178.52 124.42 184.122 124.438C188.1 124.438 192.347 124.067 196.477 123.968C199.626 123.905 202.712 123.344 205.87 123.046C211.107 122.566 215.335 121.861 220.081 121.092C230.482 119.392 242.177 115.549 249.465 107.393C251.026 105.638 252.935 102.283 255.397 102.03C266.646 100.864 275.745 98.7566 285.165 92.915C285.558 92.6708 285.638 92.1373 285.344 91.7937L285.317 91.7756ZM106.655 120.297C103.792 120.414 100.937 120.622 98.0914 120.921C94.1842 121.327 90.5178 121.047 86.6909 121.346C83.4616 121.599 80.3127 121.671 77.244 121.563C76.2538 121.526 76.227 121.327 77.1459 120.975C77.3332 120.902 77.7435 120.839 78.3858 120.776C82.5161 120.369 86.3965 120.007 90.7052 120.016C96.0486 120.016 101.303 119.7 106.655 120.043C106.736 120.043 106.771 120.089 106.771 120.161C106.771 120.242 106.736 120.288 106.664 120.288L106.655 120.297Z" fill="black"/>
<path d="M211.597 125.913C211.704 125.506 211.633 125.153 211.374 124.828L211.249 124.683C211.053 124.439 210.893 124.457 210.768 124.747C209.438 128.002 208.091 131.23 206.735 134.413C205.38 137.605 203.917 140.255 202.347 142.362C196.637 150.003 190.473 155.836 183.818 159.869C172.614 166.66 160.223 169.924 146.646 169.68C144.916 169.644 143.239 169.264 141.508 169.083C141.446 169.083 141.41 169.038 141.419 168.975C141.419 168.912 141.454 168.876 141.517 168.885C142.097 168.939 142.712 168.984 143.337 169.011C149.867 169.346 156.405 168.758 162.962 167.257C167.547 166.199 172.355 164.155 176.914 162.292C179.965 161.053 183.471 158.937 187.458 155.953C189.537 154.398 191.972 152.246 194.782 149.515C200.429 144.017 204.327 137.307 207.083 130.019C207.565 128.725 207.877 127.369 208.011 125.967C208.047 125.56 207.726 125.226 207.324 125.262L205.763 125.407C205.281 125.452 205.076 125.714 205.139 126.202C205.308 127.414 205.629 129.178 204.728 130.227C204.345 130.67 203.622 130.462 203.533 129.874L202.98 126.175C202.873 125.506 202.516 125.28 201.883 125.515L201.401 125.687C200.634 125.958 200.411 126.474 200.75 127.224C201.196 128.228 201.901 129.15 202.873 129.973C203.488 130.498 203.64 131.402 203.221 132.107C203.194 132.162 203.149 132.207 203.114 132.261C202.784 132.74 202.427 132.749 202.061 132.288C201.124 131.077 200.188 129.747 199.269 128.3C198.662 127.333 197.61 126.139 196.735 125.768C196.414 125.633 196.138 125.66 195.906 125.868C195.727 126.022 195.701 126.202 195.826 126.41C196.432 127.459 197.012 128.526 197.574 129.621C198.395 131.221 199.465 132.433 200.634 133.717C200.937 134.052 201.089 134.513 201.017 134.965L200.803 136.484C200.759 136.801 200.339 136.882 200.188 136.611C198.778 134.088 197.128 131.673 195.781 129.078C195.335 128.219 194.8 127.477 194.175 126.844C193.925 126.582 193.622 126.474 193.256 126.51C189.028 126.899 184.782 127.143 180.518 127.233C169.911 127.459 159.314 127.468 148.716 127.27C143.818 127.179 138.716 127.351 133.854 127.215C118.172 126.781 103.649 126.718 90.277 127.034C87.2618 127.107 84.1842 127.414 81.0352 127.948C80.607 128.02 80.3929 128.508 80.6338 128.87C81.3385 129.946 82.3019 130.878 83.5419 131.655C84.0236 131.954 84.0682 131.881 83.7114 131.456L82.5963 130.145C82.4536 129.982 82.4893 129.928 82.6945 129.982C83.649 130.227 84.5143 130.516 85.2993 130.832C86.0308 131.122 86.6106 131.013 87.3688 131.149C87.5919 131.194 87.7792 131.294 87.9398 131.447C88.4572 131.936 89.0013 132.144 89.5455 132.089C96.3608 131.402 103.194 130.959 110.036 130.769C110.134 130.769 110.188 130.814 110.188 130.914C110.188 131.013 110.152 131.067 110.054 131.077C103.738 131.673 97.1012 132.46 90.1342 133.428C89.2868 133.545 88.3234 133.853 87.2529 134.359C86.2805 134.82 85.2903 135.146 84.2912 135.345C84.0147 135.399 83.9344 135.553 84.0682 135.806L84.211 136.104C84.3091 136.303 84.5499 136.412 84.764 136.348C85.8256 136.05 86.5482 135.281 87.6275 136.15C88.2252 136.638 88.9746 136.792 89.8755 136.629C96.3608 135.453 102.971 134.667 109.715 134.26C109.795 134.26 109.84 134.287 109.849 134.368C109.858 134.45 109.822 134.495 109.751 134.504C102.9 135.48 96.12 136.701 89.4295 138.193C89.0459 138.284 88.814 138.682 88.93 139.07C89.1084 139.667 89.4473 140.165 89.9469 140.581C90.1432 140.743 90.3483 140.779 90.5803 140.68C92.1325 140.056 94.0415 139.577 96.2984 139.233C102.195 138.356 108.1 137.524 114.015 136.755C114.068 136.746 114.104 136.774 114.113 136.837C114.113 136.891 114.095 136.918 114.041 136.936C106.397 138.537 98.7515 140.146 91.1155 141.747C90.723 141.828 90.5178 142.253 90.6873 142.624L90.8479 142.95C91.0798 143.429 91.4545 143.637 91.9808 143.565C98.0379 142.742 104.149 142.064 110.322 141.557C112.561 141.376 114.791 141.53 117.021 141.639C117.083 141.639 117.119 141.675 117.11 141.729C117.11 141.828 117.057 141.874 116.967 141.874C115.326 141.792 113.685 141.828 112.043 141.982C105.861 142.561 99.5544 143.601 93.1137 145.093C92.6945 145.192 92.4536 145.654 92.6231 146.051C92.6766 146.187 92.748 146.314 92.8461 146.404C93.3457 146.947 93.9077 147.164 94.5232 147.073C100.411 146.205 106.397 145.78 112.489 145.78C114.336 145.78 116.12 146.124 117.833 146.802C117.913 146.838 117.94 146.901 117.904 146.983C117.877 147.073 117.815 147.1 117.726 147.064C116.575 146.639 115.603 146.422 114.309 146.467C108.207 146.666 102.222 147.426 96.3697 148.755C95.2814 148.999 95.2636 149.316 96.3162 149.705C97.1548 150.012 97.574 150.926 98.6445 151.097C99.376 151.215 100.116 151.197 100.866 151.061C105.54 150.184 110.215 149.37 114.907 148.611C115.406 148.529 115.879 148.556 116.298 148.692C116.611 148.791 116.602 148.891 116.281 148.963C111.713 150.048 107.396 150.98 103.337 151.757C102.801 151.857 102.204 151.884 101.544 151.848C101.089 151.821 100.777 152.309 101 152.725C101.526 153.693 102.347 154.371 103.479 154.76C103.694 154.832 103.836 154.76 103.925 154.561C104.568 153.105 107.11 153.195 108.466 153.141C114.38 152.888 119.742 152.49 124.568 151.947C125.745 151.812 125.763 151.92 124.63 152.255C119.108 153.892 111.16 153.168 104.657 154.66C103.899 154.832 103.863 155.103 104.559 155.465C104.96 155.673 105.371 155.881 105.799 156.08C108.707 157.445 112.15 158.937 116.12 160.565C119.037 161.768 122.025 162.5 125.112 162.971C132.891 164.146 141.044 164.553 149.572 164.182C149.599 164.182 149.608 164.191 149.617 164.218V164.381C149.635 164.499 149.572 164.562 149.465 164.562C141.383 165.041 133.114 164.824 124.666 163.911C122.463 163.676 120.107 163.133 117.61 162.301C114.942 161.406 112.213 160.565 109.421 159.769C108.529 159.516 107.619 159.182 106.691 158.793C105.71 158.368 104.755 157.979 103.818 157.626C103.488 157.509 103.123 157.59 102.882 157.834L102.712 158.006C102.552 158.178 102.614 158.458 102.828 158.54C103.801 158.919 104.791 159.353 105.79 159.842C106.343 160.113 106.735 159.959 107.271 159.797C107.565 159.706 107.717 159.815 107.717 160.131V160.719C107.744 160.999 107.877 161.18 108.145 161.261L112.025 162.365C112.204 162.419 112.373 162.509 112.516 162.627C113.221 163.233 113.961 163.694 114.728 164.02C121.544 166.868 130.232 169.192 140.821 170.973C148.198 172.212 155.959 171.905 164.113 170.033C180.536 166.271 193.506 157.771 203.007 144.514C206.86 139.143 209.724 132.939 211.606 125.913H211.597ZM160.848 158.413C160.777 158.494 160.661 158.494 160.571 158.422L150.643 149.126C150.562 149.054 150.562 148.927 150.634 148.846L150.848 148.611C150.919 148.529 151.035 148.529 151.124 148.602L161.053 157.898C161.133 157.97 161.133 158.096 161.062 158.178L160.848 158.413ZM190.973 128.517L191.579 128.074C191.66 128.011 191.767 128.038 191.829 128.12L199.126 138.392C199.189 138.474 199.162 138.591 199.082 138.645L198.475 139.088C198.395 139.152 198.288 139.125 198.225 139.043L190.928 128.771C190.866 128.689 190.893 128.572 190.973 128.517ZM189.537 132.306C192.24 133.835 194.559 137.334 196.753 140.119C196.994 140.427 197.11 140.77 197.11 141.159C197.11 141.611 197.03 142.036 196.851 142.434C196.789 142.579 196.584 142.588 196.504 142.452C194.559 138.835 192.168 135.553 189.305 132.605C188.716 131.999 188.787 131.908 189.528 132.315L189.537 132.306ZM186.834 134.513L186.851 134.495C186.985 134.368 187.199 134.386 187.324 134.522L193.256 141.322C193.381 141.467 193.364 141.684 193.23 141.801L193.212 141.819C193.078 141.946 192.864 141.928 192.739 141.792L186.807 134.992C186.682 134.847 186.7 134.63 186.834 134.513ZM183.025 135.833C183.069 135.761 183.14 135.743 183.212 135.797C184.55 136.801 185.959 137.705 187.199 138.826C189.278 140.716 191.463 142.534 193.765 144.261C193.979 144.415 194.059 144.695 193.961 144.939C193.863 145.201 193.702 145.4 193.479 145.554C193.239 145.717 193.025 145.699 192.819 145.491C189.715 142.235 186.423 139.152 182.935 136.24C182.855 136.186 182.846 136.113 182.9 136.023L183.025 135.824V135.833ZM179.082 137.37C179.126 137.307 179.18 137.307 179.242 137.343C182.962 139.993 186.53 143.049 189.92 146.513C190.223 146.82 190.313 147.281 190.152 147.688C190.099 147.824 190.036 147.978 189.965 148.167C189.795 148.592 189.59 148.611 189.34 148.24C187.735 145.807 185.727 143.556 183.301 141.503C182.079 140.463 180.669 139.143 179.082 137.533C179.037 137.488 179.028 137.434 179.082 137.379V137.37ZM174.193 137.524C174.193 137.524 174.238 137.497 174.256 137.515C179.224 141.087 183.524 145.256 187.164 150.012C187.262 150.13 187.271 150.293 187.208 150.419L187.066 150.718C186.967 150.926 186.691 150.962 186.548 150.781C182.784 146.223 178.636 141.946 174.104 137.958C174.015 137.877 174.006 137.786 174.077 137.696L174.202 137.524H174.193ZM170.982 139.929C171.017 139.875 171.071 139.866 171.124 139.902C176.191 143.266 180.268 147.426 183.346 152.372C183.444 152.535 183.435 152.734 183.328 152.888L183.176 153.105C183.042 153.304 182.739 153.295 182.614 153.087C179.465 148.204 175.558 143.935 170.884 140.291C170.812 140.237 170.803 140.165 170.857 140.092L170.982 139.911V139.929ZM168.752 142.697L168.769 142.678C168.921 142.516 169.171 142.516 169.331 142.678L178.796 152.282C178.948 152.436 178.948 152.689 178.796 152.852L178.778 152.87C178.627 153.032 178.377 153.032 178.216 152.87L168.752 143.266C168.6 143.113 168.6 142.859 168.752 142.697ZM154.157 139.721C154.211 139.676 154.256 139.658 154.3 139.64C154.336 139.64 154.372 139.64 154.407 139.658C160.991 143.863 167.467 149.045 173.827 155.203C173.988 155.366 173.97 155.628 173.792 155.763L173.587 155.917C173.23 156.188 172.882 156.161 172.552 155.854C171.437 154.796 170.322 153.729 169.206 152.653C163.836 147.462 160.348 144.315 158.725 143.23C157.182 142.19 155.665 141.123 154.157 140.038C154.015 139.938 154.015 139.83 154.157 139.721ZM150.259 141.539C150.259 141.539 150.259 141.53 150.268 141.53C151.633 142.443 152.864 143.348 153.961 144.243C158.859 148.24 162.534 151.405 164.996 153.747C166.173 154.868 167.315 156.143 168.43 157.572C168.653 157.852 168.636 158.115 168.368 158.359L168.216 158.503C168.074 158.639 167.851 158.612 167.735 158.458C167.458 158.078 167.155 157.717 166.843 157.391C163.132 153.629 159.108 149.65 154.782 145.437C153.479 144.161 151.74 143.004 150.33 141.593C150.313 141.575 150.286 141.557 150.268 141.548C150.268 141.548 150.259 141.548 150.259 141.539ZM115.299 156.966C114.3 157.102 113.408 157.066 112.623 156.858C112.391 156.794 112.391 156.731 112.623 156.668C116.744 155.528 120.964 155.121 125.281 155.465C126.111 155.121 126.905 155.004 127.636 155.112C127.984 155.167 127.993 155.23 127.636 155.302C126.878 155.456 126.093 155.519 125.273 155.465C121.936 156.017 118.609 156.523 115.29 156.975L115.299 156.966ZM130.116 159.317L119.501 160.231C119.403 160.231 119.322 160.167 119.314 160.068L119.296 159.824C119.287 159.724 119.358 159.643 119.456 159.634L130.072 158.72C130.17 158.72 130.25 158.784 130.259 158.883L130.277 159.127C130.286 159.227 130.215 159.308 130.116 159.317ZM131.312 158.54C130.812 158.458 130.429 158.259 130.464 158.087C130.491 157.916 130.919 157.843 131.41 157.925C131.909 158.006 132.293 158.205 132.257 158.377C132.231 158.549 131.802 158.621 131.312 158.54ZM139.653 158.657C139.59 158.739 139.465 158.748 139.394 158.684L139.287 158.603C131.017 151.45 124.452 145.482 124.639 145.256L124.764 145.111C124.951 144.894 131.811 150.51 140.09 157.662L140.188 157.744C140.268 157.807 140.277 157.934 140.206 158.015L139.653 158.666V158.657ZM146.914 158.874L146.798 159.037C146.735 159.127 146.655 159.136 146.575 159.073C144.684 157.563 142.98 156.089 141.472 154.66C137.297 150.69 133.007 147.019 128.591 143.646C128.511 143.592 128.502 143.519 128.555 143.438C128.618 143.348 128.68 143.33 128.769 143.375C135.585 147.272 140.661 152.047 146.869 158.295C147.021 158.449 147.048 158.702 146.914 158.883V158.874ZM135.567 143.131C135.487 143.085 135.478 143.022 135.522 142.95C135.567 142.868 135.62 142.85 135.701 142.886C138.181 144.171 140.438 145.545 142.686 147.381C147.128 150.998 151.339 154.714 155.317 158.512C156.209 159.362 156.058 159.679 154.844 159.462C154.586 159.417 154.166 159.118 153.587 158.594C147.761 153.286 142.24 147.363 135.567 143.14V143.131Z" fill="black"/>
<path d="M78.6178 140.074C79.7061 136.14 78.5821 131.944 77.3064 128.029C77.2351 127.812 77.0834 127.712 76.8515 127.739C73.3011 128.119 69.3493 127.974 66.1378 128.454C60.0094 129.367 54.0861 131.058 48.368 133.518C45.9059 134.576 43.8631 136.185 42.2484 138.347C40.9282 140.11 44.1575 142.479 45.4509 143.239C51.7043 146.937 58.2877 147.887 65.2101 146.078C65.5491 145.988 66.1289 145.725 66.9407 145.282C67.1369 145.174 67.2708 145.011 67.351 144.803L69.9291 138.093C70.0718 137.723 70.2145 137.723 70.3662 138.093C70.4554 138.301 70.5178 138.527 70.5625 138.753C70.6249 139.052 70.6963 139.061 70.7944 138.762C70.9104 138.41 70.9014 138.039 70.7765 137.677C70.6963 137.469 70.6695 137.243 70.6784 137.017L70.9014 130.796C70.9014 130.57 71.0977 130.389 71.3207 130.407L71.5616 130.425C71.963 130.452 72.293 130.778 72.3109 131.194C72.4179 133.391 72.293 135.588 71.963 137.795C71.6151 140.056 69.8131 142.045 68.5999 144.071C68.5285 144.188 68.4215 144.306 68.2966 144.387C68.0736 144.532 67.9487 144.613 67.9398 144.622C67.2618 145.183 67.3332 145.319 68.1628 145.047C72.7926 143.528 74.4697 135.588 74.6302 131.338C74.6392 131.031 74.5143 130.823 74.434 130.534C74.3626 130.307 74.434 130.127 74.6392 130C74.9068 129.828 75.1298 129.919 75.2904 130.244C76.6731 133.002 76.8336 136.004 75.7721 139.269C73.0067 147.778 64.8533 150.274 56.4144 149.849C50.0629 149.532 44.3715 146.964 39.8756 142.325C34.9603 137.261 32.6945 131.031 33.0513 123.616C33.1762 121.183 33.2297 119.601 33.979 117.657C34.0593 117.458 33.8988 117.25 33.6936 117.268C26.9674 117.928 20.5268 119.836 14.3715 122.974C8.48395 125.985 3.88983 130.434 0.714097 136.221C0.589208 136.457 0.526764 136.656 0.526764 136.809C0.526764 137.09 0.776541 137.289 1.04416 137.234C9.22436 135.552 19.0905 135.815 26.3073 140.065C26.4857 140.164 26.5303 140.318 26.4233 140.499C25.558 142.045 24.7105 143.546 23.5955 145.02C18.475 151.838 14.3002 159.226 11.0798 167.175C10.5446 168.495 10.2056 169.779 10.0629 171.045C10.0183 171.416 10.384 171.696 10.723 171.552C11.7667 171.118 12.7569 170.666 13.7025 170.177C28.1093 162.753 43.8006 158.033 59.4028 154.027C67.3867 151.983 76.1914 148.972 78.6534 140.065L78.6178 140.074ZM53.8452 133.771C54.0682 133.717 54.2913 133.68 54.5232 133.671C54.7373 133.662 54.9157 133.563 55.0495 133.4C55.219 133.192 55.4331 133.093 55.6918 133.084C55.8702 133.084 55.9237 133.165 55.8434 133.328C55.7988 133.409 55.7721 133.5 55.7453 133.581C55.7275 133.644 55.7186 133.717 55.7453 133.789L55.8256 134.033C55.897 134.268 55.8524 134.295 55.6829 134.124C55.3261 133.753 54.9514 133.717 54.5589 133.997C54.3359 134.16 54.1664 134.241 54.0682 134.241C53.9434 134.241 53.8452 134.205 53.7471 134.133C53.5508 133.961 53.5865 133.834 53.8363 133.78L53.8452 133.771ZM47.4313 136.619C47.5473 136.601 47.6632 136.665 47.806 136.791C48.029 136.999 48.1093 137.225 48.0468 137.46C48.0112 137.587 47.9398 137.623 47.8149 137.569C47.5027 137.397 47.3064 137.18 47.2261 136.927C47.1726 136.746 47.244 136.646 47.4224 136.619H47.4313ZM46.8158 141.249C46.3519 141.159 46.0308 141.05 45.8345 140.924C45.0674 140.39 45.1387 140.191 46.0665 140.309C46.2181 140.327 46.4947 140.607 46.8872 141.141C46.9674 141.24 46.9407 141.285 46.8158 141.258V141.249ZM49.4474 135.95C49.6347 135.824 49.9915 136.041 50.2413 136.429C50.4911 136.818 50.5446 137.225 50.3662 137.352C50.1789 137.478 49.822 137.261 49.5723 136.873C49.3225 136.484 49.269 136.077 49.4474 135.95ZM49.1976 140.056C48.8229 139.929 48.5732 139.622 48.4304 139.151C48.3591 138.907 48.4304 138.862 48.6267 139.007C48.8854 139.197 49.1352 139.477 49.3582 139.839C49.5009 140.074 49.4474 140.146 49.1887 140.056H49.1976ZM52.079 135.218C51.8381 134.874 51.7757 134.512 51.9184 134.413C52.0611 134.304 52.3733 134.503 52.6142 134.847C52.855 135.191 52.9175 135.552 52.7748 135.652C52.632 135.751 52.3198 135.561 52.079 135.218ZM51.8738 137.487C51.6329 137.433 51.6329 137.37 51.8738 137.307C52.7034 137.09 53.4349 137.325 54.0682 138.003C54.1931 138.139 54.2021 138.283 54.0861 138.428L53.979 138.564C53.8988 138.654 53.8096 138.663 53.7203 138.591C52.9443 137.994 52.8907 137.732 51.8827 137.496L51.8738 137.487ZM51.6864 142.723C51.3564 142.642 51.1244 142.443 51.169 142.289C51.2047 142.135 51.508 142.081 51.8292 142.172C52.1592 142.253 52.3912 142.443 52.3466 142.606C52.3109 142.759 52.0076 142.814 51.6864 142.723ZM55.7632 135.706C55.9148 135.661 56.1735 136.05 56.343 136.574C56.5036 137.108 56.5125 137.569 56.3608 137.623C56.2092 137.668 55.9505 137.279 55.781 136.755C55.6204 136.221 55.6115 135.76 55.7632 135.706ZM54.541 142.723C54.2734 143.112 53.8809 143.175 53.3724 142.886C53.3278 142.859 53.31 142.796 53.3457 142.741C53.6222 142.398 53.9255 142.226 54.2734 142.226C54.6748 142.226 54.7641 142.389 54.541 142.723ZM58.3412 135.824C58.3769 135.652 58.4483 135.634 58.5553 135.778C58.7516 136.041 58.8675 136.375 58.9211 136.791C58.9478 137.071 58.8408 137.144 58.5999 137.008C58.2877 136.836 58.1985 136.448 58.3501 135.824H58.3412ZM59.0103 139.169C58.5285 139.215 58.1182 139.043 58.0914 138.799C58.0736 138.554 58.4483 138.319 58.9389 138.274C59.4206 138.229 59.831 138.401 59.8577 138.645C59.8756 138.889 59.5009 139.124 59.0103 139.169ZM61.4634 137.126C61.0174 135.57 60.5624 133.753 60.0986 131.7C60.054 131.51 60.1967 131.329 60.384 131.329H60.6249C60.9639 131.311 61.2583 131.537 61.3475 131.872C61.8381 133.744 62.0611 135.48 61.9987 137.062C61.9541 138.211 61.7667 138.229 61.4545 137.126H61.4634ZM61.8024 143.465C61.6686 143.465 61.5437 143.076 61.517 142.597C61.4991 142.108 61.5794 141.71 61.7132 141.701C61.847 141.701 61.9719 142.09 61.9987 142.57C62.0165 143.058 61.9362 143.456 61.8024 143.465ZM65.4509 144.315C64.9514 144.333 64.4251 141.204 64.2823 137.334C64.1396 133.463 64.4251 130.307 64.9335 130.28C65.4331 130.262 65.9594 133.391 66.1021 137.261C66.2449 141.132 65.9594 144.288 65.4509 144.315ZM67.7703 140.933L67.5384 140.906C67.1994 140.86 67.4402 136.475 68.0736 131.103V131.031C68.1004 130.868 68.252 130.76 68.4126 130.778L69.3046 130.886C69.4652 130.904 69.5723 131.049 69.5544 131.212V131.284C68.9121 136.665 68.1271 140.987 67.7881 140.951L67.7703 140.933Z" fill="black"/>
</g>
<defs>
<clipPath id="clip0_2252_846">
<rect width="290" height="200" fill="white" transform="translate(0.5 0.542969)"/>
</clipPath>
</defs>
</svg>
