<svg width="200" height="200" viewBox="0 0 200 200" fill="none" xmlns="http://www.w3.org/2000/svg">
<g clip-path="url(#clip0_2105_825)">
<path d="M81.7846 6.65157L81.0454 1.78522C80.9016 0.836433 81.6614 -0.0205352 82.6266 -0.000131153L84.0847 0.0406768C84.865 0.0610808 85.5119 0.642595 85.5941 1.40774L86.1999 6.52915C86.3231 7.57996 85.3682 8.44713 84.3208 8.22268L82.9963 7.93703C82.3699 7.8044 81.8873 7.2943 81.7846 6.65157Z" fill="black"/>
<path d="M119.489 8.50828C118.195 8.14101 117.671 5.99859 118.339 3.73374C118.996 1.4587 120.577 -0.0818045 121.861 0.295669C123.154 0.662941 123.678 2.80536 123.011 5.0702C122.353 7.34525 120.772 8.88575 119.489 8.50828Z" fill="black"/>
<path d="M102.608 39.0636C102.557 39.9206 101.828 40.5735 100.965 40.5327L99.1992 40.4409C98.3367 40.3899 97.6795 39.6554 97.7206 38.8086L99.7023 2.39766C99.7536 1.54069 100.483 0.887763 101.345 0.928571L103.111 1.02039C103.974 1.0714 104.631 1.80594 104.59 2.65271L102.608 39.0636Z" fill="black"/>
<path d="M70.0792 12.9053C70.3975 13.9255 70.0278 14.456 68.9497 14.4866L67.1631 14.5479C66.2492 14.5785 65.4072 14.0684 65.017 13.2522C64.0108 11.1404 63.1175 8.80413 62.3371 6.24342C62.2241 5.87615 62.2549 5.52928 62.45 5.19262C63.1277 4.03979 64.0108 3.5909 65.0889 3.83575C67.5224 4.37646 69.0832 9.81412 70.0792 12.9053Z" fill="black"/>
<path d="M138.197 16.7822C137.714 17.5678 136.688 17.8228 135.887 17.3433L134.85 16.721C134.059 16.2415 133.802 15.2111 134.285 14.4256L138.033 8.28396C138.515 7.4984 139.542 7.24335 140.343 7.72285L141.38 8.34517C142.171 8.82466 142.427 9.85506 141.945 10.6406L138.197 16.7822Z" fill="black"/>
<path d="M90.7692 39.3593C90.9129 40.4612 90.1325 41.4712 89.0236 41.614L88.3151 41.7058C87.2062 41.8486 86.1896 41.0733 86.0459 39.9715L82.8423 15.8131C82.6985 14.7113 83.4789 13.7013 84.5878 13.5585L85.2963 13.4667C86.4053 13.3238 87.4218 14.0992 87.5655 15.201L90.7692 39.3593Z" fill="black"/>
<path d="M114.426 40.4711C114.159 41.5015 113.102 42.134 112.055 41.879L111.141 41.6545C110.093 41.3995 109.457 40.3385 109.724 39.2979L115.864 14.9967C116.131 13.9561 117.189 13.3338 118.236 13.5888L119.15 13.8133C120.197 14.0683 120.834 15.1293 120.567 16.1699L114.426 40.4711Z" fill="black"/>
<path d="M66.8549 20.1795C66.6187 19.6184 66.8857 18.9655 67.4607 18.7308L67.8714 18.5574C69.5348 17.8739 71.4344 18.639 72.1121 20.2611L81.2095 41.9608C81.8872 43.5931 81.0966 45.4703 79.4332 46.1538L79.0225 46.3272C78.4475 46.5619 77.7903 46.2966 77.5541 45.7253L66.8549 20.1795Z" fill="black"/>
<path d="M134.1 51.2138C133.361 52.2136 131.954 52.4278 130.937 51.6933L130.824 51.6117C129.818 50.8771 129.603 49.4693 130.342 48.4695L151.094 20.4038C151.833 19.404 153.24 19.1897 154.256 19.9243L154.369 20.0059C155.375 20.7404 155.591 22.1483 154.852 23.1481L134.1 51.2138Z" fill="black"/>
<path d="M47.9925 23.9849C47.284 22.7607 47.5407 21.2202 48.6086 20.2918L48.9166 20.0266C49.9229 19.1594 51.4734 19.4348 52.0997 20.5979C55.9707 27.7699 59.0717 32.9831 61.4128 36.2171C64.4418 40.4204 67.245 44.7154 69.8017 49.0921C69.9763 49.3879 69.9763 49.6838 69.8223 49.9898C69.2883 51.0406 68.4155 51.4895 67.2039 51.3161C66.8651 51.2651 66.5878 51.1019 66.3722 50.8366C59.6261 42.3995 53.4961 33.4422 47.9925 23.9849Z" fill="black"/>
<path d="M121.583 43.9195L130.28 23.6686C130.763 22.5566 131.584 22.1485 132.755 22.4443L133.556 22.6382C134.829 22.9544 135.25 23.74 134.829 24.9744C132.447 31.9118 129.295 38.1656 125.362 43.7461C124.571 44.8785 123.524 45.3274 122.23 45.103C121.676 45.0112 121.368 44.4296 121.583 43.9195Z" fill="black"/>
<path d="M34.7469 24.8011C36.7184 26.3926 38.5872 29.9735 40.0657 31.6976C45.5386 38.0637 51.1244 44.3379 56.8128 50.5203C57.2646 51.01 58.0758 52.2241 59.2361 54.1727C59.7803 55.0806 59.6365 55.8764 58.8048 56.5395L57.5829 57.5291C56.8334 58.131 55.7347 57.978 55.1802 57.2026C53.8249 55.3153 52.5003 53.3973 50.919 51.663C44.2243 44.3277 37.6117 36.8701 31.071 29.2798C30.1777 28.2392 30.1366 26.7293 30.9888 25.6581L31.379 25.1684C32.375 23.9135 33.5045 23.7911 34.7469 24.8011Z" fill="black"/>
<path d="M174.227 25.4947C175.388 24.6276 176.517 24.6582 177.616 25.5968L178.17 26.0763C178.889 26.6884 178.848 27.8004 178.098 28.3717C167.923 36.064 160.458 42.0526 155.714 46.3476C149.687 51.8057 145.333 55.3458 142.653 56.9883C141.072 57.9575 139.593 57.8045 138.207 56.5496C137.951 56.315 137.91 56.0395 138.094 55.7437C138.721 54.7235 139.552 53.7747 140.569 52.8871C152.182 42.8075 163.395 33.6767 174.227 25.4947Z" fill="black"/>
<path d="M150.19 62.7627C148.947 63.5482 147.561 63.7829 146.052 63.4768C145.538 63.3748 145.374 62.8341 145.549 61.8547C145.61 61.5078 145.816 61.1916 146.103 60.9773C155.724 53.9788 165.181 47.4291 174.494 41.3181C175.696 40.5325 176.763 40.6753 177.698 41.7568C178.139 42.2669 178.191 43.0014 177.852 43.9706C177.708 44.3787 177.441 44.7255 177.092 44.9602C167.728 51.418 158.764 57.3556 150.19 62.7627Z" fill="black"/>
<path d="M27.9085 45.4703C28.3089 44.9908 29.0174 44.9296 29.5 45.3275L31.6255 47.1026C35.4041 50.2346 37.9506 53.3768 37.3242 54.1216L36.3898 55.2336C35.7635 55.9784 32.2005 54.04 28.4321 50.908L26.2964 49.1328C25.8138 48.7349 25.7522 48.0208 26.1527 47.5515L27.9085 45.4703Z" fill="black"/>
<path d="M27.3232 60.3447C24.7152 59.2632 22.7848 57.9574 21.5218 56.4169C21.3062 56.1516 21.2241 55.8456 21.2959 55.5089C21.4191 54.8458 21.6861 54.2235 22.1071 53.6419C22.3125 53.3563 22.5897 53.2543 22.9285 53.3257C24.8487 53.7542 26.779 54.9274 28.2371 56.1822C29.1509 56.9678 29.4282 58.0696 29.0791 59.4673C28.884 60.2324 28.0523 60.6507 27.3232 60.3447Z" fill="black"/>
<path d="M191.714 60.9671L154.677 74.9643C154.349 75.0867 154.041 75.0459 153.763 74.8419C152.993 74.3012 152.49 73.5564 152.233 72.5974C152.151 72.2608 152.233 71.9853 152.5 71.7609C154.01 70.4754 155.653 69.4348 157.45 68.6492C167.522 64.2318 178.006 60.0592 188.921 56.1518C190.738 55.4989 191.991 56.0702 192.679 57.8657L192.874 58.3962C193.275 59.4164 192.751 60.5693 191.714 60.9671Z" fill="black"/>
<path d="M36.7697 80.4836L4.35368 66.4864C3.35768 66.058 2.9983 64.8337 3.60411 63.9359L3.98403 63.3748C4.90815 62.0078 6.69478 61.5079 8.20417 62.1914C11.3564 63.6197 14.3239 65.201 17.4864 66.4354C24.7459 69.292 32.3442 72.6689 40.2814 76.5558C41.4725 77.1373 41.6778 77.9637 40.8872 79.0349L40.5689 79.4634C39.5729 80.8101 38.3099 81.1467 36.7697 80.4836Z" fill="black"/>
<path d="M48.0747 70.3018C47.4791 71.1689 44.5322 70.1895 41.4826 68.1185C38.433 66.0475 36.4513 63.6705 37.0468 62.8033C37.6424 61.9361 40.5893 62.9155 43.6389 64.9865C46.6885 67.0575 48.6702 69.4346 48.0747 70.3018Z" fill="black"/>
<path d="M171.496 74.9135C174.361 73.9035 177.246 73.2301 180.162 72.8731C181.59 72.6996 182.195 73.322 181.98 74.74L181.877 75.393C181.702 76.4846 181.066 77.1171 179.967 77.2701L170.788 78.576C170.192 78.6678 169.648 78.2291 169.597 77.6374C169.484 76.3009 170.12 75.393 171.496 74.9135Z" fill="black"/>
<path d="M162.265 82.1973L160.93 82.4524C160.088 82.6054 159.349 81.8913 159.482 81.0547L159.678 79.8917C159.77 79.3204 160.242 78.8919 160.828 78.8613L162.491 78.7695C163.446 78.7184 164.093 79.7182 163.651 80.5548L163.128 81.5546C162.953 81.8913 162.635 82.1259 162.265 82.1973Z" fill="black"/>
<path d="M14.1185 84.2585C12.6296 83.7382 12.2189 82.7792 12.8966 81.3612L13.1841 80.7593C13.7694 79.5452 15.1248 78.8821 16.4493 79.1779C18.0101 79.5146 19.2936 80.29 20.3101 81.504C21.0802 82.4222 20.7824 83.8199 19.7043 84.3504C18.236 85.0645 16.3672 85.0339 14.1185 84.2585Z" fill="black"/>
<path d="M200 87.1147C200.061 87.5432 199.764 87.9512 199.332 88.0125L193.736 88.849C192.052 89.1041 190.553 88.5226 190.41 87.533L190.379 87.3595C190.225 86.3801 191.477 85.3701 193.172 85.1151L198.768 84.2785C199.199 84.2173 199.599 84.5132 199.671 84.9417L200 87.1147Z" fill="black"/>
<path d="M33.0117 88.4205L30.0237 88.3491C29.3871 88.3287 28.8942 87.7778 28.9456 87.1453L29.0893 85.5844C29.1509 84.8804 29.8492 84.4214 30.5268 84.6254L33.3197 85.5028C33.751 85.6354 34.059 86.0231 34.0898 86.472L34.1514 87.2371C34.1925 87.89 33.6688 88.4409 33.0117 88.4205Z" fill="black"/>
<path d="M184.978 88.5635C184.998 89.8082 183.992 90.8386 182.729 90.859L159.01 91.1854C157.757 91.2058 156.72 90.206 156.7 88.9512V88.8288C156.679 87.5841 157.686 86.5537 158.948 86.5333L182.668 86.2068C183.92 86.1864 184.957 87.1862 184.978 88.4411V88.5635Z" fill="black"/>
<path d="M2.21783 95.4704C0.400395 95.3888 -0.297828 94.4706 0.123159 92.7159C0.153963 92.6241 0.174499 92.5119 0.205303 92.3996C0.605755 90.6959 1.69416 89.9001 3.44999 90.0328L37.2112 92.4915C37.8683 92.5425 38.2174 92.8995 38.2688 93.5525L38.4125 95.6745C38.4433 96.1948 38.0429 96.6335 37.5295 96.6437C24.4172 96.9599 14.2314 96.0009 2.21783 95.4704Z" fill="black"/>
<path d="M157.285 100.979L157.193 97.9801C157.172 97.3067 157.501 96.9701 158.179 96.9599C169.453 96.8273 180.871 97.2965 192.422 98.3882C194.414 98.5718 198.799 98.5412 198.296 101.694C198.131 102.673 197.32 103.418 196.324 103.499C195.041 103.612 193.819 103.632 192.648 103.571C181.744 102.979 170.305 102.459 158.322 102.02C157.655 101.989 157.306 101.643 157.285 100.979Z" fill="black"/>
<path d="M38.2687 103.907C38.3201 104.652 37.7451 105.305 36.9955 105.356L25.7828 106.101C25.0333 106.152 24.3864 105.581 24.3248 104.836L24.2735 104.081C24.2221 103.336 24.7971 102.683 25.5467 102.632L36.7593 101.887C37.5089 101.836 38.1558 102.408 38.2174 103.152L38.2687 103.907Z" fill="black"/>
<path d="M15.5252 105.479C15.7511 106.754 14.4163 108.06 12.5372 108.396C10.6582 108.733 8.9537 107.958 8.7278 106.672C8.50191 105.397 9.83675 104.091 11.7158 103.754C13.5948 103.418 15.2993 104.193 15.5252 105.479Z" fill="black"/>
<path d="M161.002 107.448C163.241 107.101 169.74 107.162 169.093 110.937C169.032 111.283 168.826 111.457 168.467 111.447C165.715 111.416 163.148 110.763 160.776 109.508C160.468 109.345 160.283 109.09 160.222 108.743C160.181 108.488 160.201 108.253 160.283 108.029C160.407 107.692 160.643 107.499 161.002 107.448Z" fill="black"/>
<path d="M189.198 115.629C184.701 115.303 178.396 114.272 174.299 112.181C173.991 112.028 173.796 111.773 173.704 111.436C173.55 110.834 173.601 110.263 173.847 109.722C174.001 109.406 174.248 109.263 174.607 109.314C179.32 109.916 184.198 110.753 189.26 111.804C190.338 112.018 190.954 112.742 191.118 113.956C191.19 114.436 190.882 114.905 190.204 115.364C189.917 115.558 189.557 115.66 189.198 115.629Z" fill="black"/>
<path d="M9.20014 116.823C19.8275 113.671 29.6745 111.855 38.7412 111.385C39.4291 111.345 40.0555 111.793 40.2403 112.457L40.6921 114.038C40.918 114.854 40.6099 115.323 39.768 115.456C30.6808 116.833 21.0597 118.772 10.9046 121.251C9.41576 121.608 8.46084 121.057 8.06039 119.588C8.00905 119.425 7.96798 119.261 7.9269 119.098C7.6086 117.925 8.02958 117.17 9.20014 116.823Z" fill="black"/>
<path d="M156.453 118.353C154.954 117.874 154.431 116.894 154.872 115.395C154.913 115.252 154.944 115.109 154.954 114.966C155.067 114.068 155.971 113.477 156.844 113.742C164.781 116.109 172.769 118.333 180.819 120.414C182.431 120.832 184.002 121.373 185.543 122.036C185.861 122.169 186.097 122.404 186.231 122.73C186.549 123.536 186.58 124.372 186.313 125.24C186.22 125.536 185.974 125.76 185.656 125.821C183.859 126.137 182.236 126.097 180.809 125.709C175.685 124.311 167.563 121.863 156.453 118.353Z" fill="black"/>
<path d="M24.9 129.188C30.917 126.76 37.7761 123.475 44.327 120.802C44.6454 120.669 44.9329 120.72 45.1896 120.955C46.2266 121.924 46.586 123.138 46.2882 124.607C46.2164 124.944 46.0315 125.178 45.7235 125.332C33.4943 131.402 20.6388 136.768 7.16717 141.42C5.77073 141.9 4.54884 141.563 3.5015 140.4C3.32694 140.206 3.2448 139.982 3.23453 139.716C3.18319 138.482 3.46043 137.747 4.06624 137.513C11.4181 134.605 18.3593 131.83 24.9 129.188Z" fill="black"/>
<path d="M151.905 126.066C156.022 127.484 159.77 129.514 163.425 131.82C171.691 137.023 180.059 142.267 188.51 147.551C189.722 148.316 189.865 149.235 188.941 150.316L188.14 151.255C187.278 152.285 186.261 152.469 185.081 151.816C179.926 148.969 175.449 146.286 171.65 143.766C166.66 140.451 160.612 136.594 153.506 132.197C152.49 131.575 151.443 130.891 150.364 130.157C149.646 129.657 149.276 129.116 149.266 128.514C149.245 127.851 149.584 127.158 150.282 126.443C150.703 126.015 151.33 125.872 151.905 126.066Z" fill="black"/>
<path d="M52.1409 132.677C52.449 133.187 52.2847 133.84 51.7713 134.146L29.9929 147.204C27.6415 148.612 25.208 148.908 24.5611 147.847L24.4892 147.725C23.8423 146.674 25.2388 144.664 27.6004 143.256L49.3788 130.198C49.8922 129.892 50.5494 130.055 50.8574 130.565L52.1409 132.677Z" fill="black"/>
<path d="M190.43 135.666C189.978 136.89 188.089 137.329 186.2 136.646C184.321 135.962 183.161 134.411 183.602 133.177C184.054 131.953 185.943 131.514 187.832 132.197C189.711 132.881 190.872 134.432 190.43 135.666Z" fill="black"/>
<path d="M158.476 146.154C157.85 146.868 156.751 146.94 156.033 146.317L144.686 136.483C143.968 135.86 143.896 134.769 144.522 134.054L144.594 133.973C145.22 133.259 146.319 133.187 147.038 133.81L158.384 143.644C159.103 144.267 159.175 145.358 158.548 146.072L158.476 146.154Z" fill="black"/>
<path d="M166.485 165.803C167.492 166.874 167.44 168.547 166.362 169.557L166.29 169.629C165.212 170.639 163.528 170.588 162.512 169.506L136.914 142.42C135.907 141.349 135.959 139.675 137.037 138.665L137.109 138.594C138.187 137.584 139.871 137.635 140.887 138.716L166.485 165.803Z" fill="black"/>
<path d="M48.4958 148.388C47.6128 148.949 46.8838 149.072 46.3088 148.745C45.6516 148.357 45.477 147.49 45.9391 146.888C47.6744 144.644 54.6053 136.472 57.4803 139.237C58.0143 139.747 58.0143 140.594 57.4803 141.114C54.5334 144.032 51.5352 146.46 48.4856 148.388H48.4958Z" fill="black"/>
<path d="M40.9076 170.689C42.3759 168.18 44.0804 165.874 45.9595 163.589C51.3091 157.07 56.7922 150.663 62.4293 144.348C62.7271 144.011 63.1583 143.817 63.6101 143.828C64.9963 143.828 65.7459 144.644 65.8588 146.286C65.8896 146.664 65.7767 147.041 65.5303 147.327L43.6389 173.791C43.3617 174.117 43.0125 174.27 42.5916 174.24C40.4558 174.087 39.9116 172.373 40.9076 170.689Z" fill="black"/>
<path d="M144.861 164.497C145.302 165.221 144.984 166.17 144.193 166.497C141.914 167.435 139.059 163.344 137.458 160.947C134.593 156.672 131.677 152.408 128.709 148.153C127.888 146.98 128.032 145.95 129.151 145.052L129.418 144.828C129.962 144.379 130.773 144.471 131.225 145.021C136.205 151.132 140.754 157.621 144.861 164.497Z" fill="black"/>
<path d="M43.5671 148.817C44.368 148.602 44.8095 148.909 44.8814 149.725C45.0149 151.275 44.1832 152.51 42.3658 153.438C41.2568 154.01 39.9323 153.255 39.8706 152.02C39.7988 150.561 41.0309 149.49 43.5671 148.817Z" fill="black"/>
<path d="M128.832 161.855C131.41 167.303 133.494 172.679 135.106 177.974C135.24 178.413 135.24 178.882 135.116 179.331C134.665 180.994 133.761 181.789 132.406 181.728C131.779 181.698 131.235 181.31 131.009 180.728C127.795 172.557 124.674 164.915 121.645 157.784C120.834 155.866 120.269 153.622 119.663 151.581C119.56 151.245 119.643 150.969 119.91 150.755C120.813 150.02 121.809 149.827 122.898 150.184C123.226 150.296 123.483 150.5 123.657 150.806C125.721 154.346 127.344 158.692 128.832 161.855Z" fill="black"/>
<path d="M65.8384 175.27C65.366 176.26 64.6165 176.954 63.5794 177.331C63.1584 177.484 62.4191 177.749 61.3615 178.147C60.4066 178.494 60.1088 178.198 60.4682 177.26C63.6821 168.578 67.4299 159.937 71.7322 151.326C72.2559 150.285 73.067 149.939 74.1862 150.296C74.3095 150.326 74.4327 150.367 74.5559 150.408C75.2438 150.632 75.6443 151.357 75.4389 152.05C73.7653 157.733 70.5719 165.466 65.8384 175.27Z" fill="black"/>
<path d="M170.654 154.825C169.976 155.784 168.21 155.713 166.711 154.672C165.212 153.622 164.555 151.999 165.243 151.04C165.921 150.081 167.687 150.153 169.186 151.193C170.685 152.244 171.342 153.866 170.654 154.825Z" fill="black"/>
<path d="M118.339 193.103C116.275 193.012 115.114 191.951 114.858 189.91L110.412 154.152C110.299 153.193 110.72 152.693 111.685 152.642L113.174 152.571C114.016 152.52 114.765 153.122 114.899 153.948C116.449 163.507 117.794 172.934 119.869 182.157C120.587 185.319 121.039 188.186 121.224 190.747C121.316 192.073 120.228 193.185 118.893 193.124L118.339 193.103Z" fill="black"/>
<path d="M79.7925 187.523C79.505 188.686 78.468 189.502 77.2666 189.512H76.5684C75.0898 189.523 74.484 188.798 74.7509 187.36C76.7429 176.535 79.2175 165.721 82.185 154.917C82.3185 154.458 82.76 154.152 83.2426 154.193L85.3578 154.377C85.9841 154.428 86.2511 154.764 86.1587 155.387C84.5363 166.027 82.4109 176.74 79.7925 187.523Z" fill="black"/>
<path d="M102.639 165.599C102.721 166.64 101.951 167.548 100.904 167.639H100.739C99.6921 167.741 98.7782 166.976 98.6858 165.936L97.8952 156.784C97.813 155.744 98.5831 154.836 99.6305 154.744H99.7947C100.842 154.642 101.756 155.407 101.848 156.448L102.639 165.599Z" fill="black"/>
<path d="M91.2415 175.882C90.7589 175.862 90.3892 175.454 90.4098 174.974L90.8513 165.997C91.1593 159.916 91.8781 155.009 92.4634 155.04L94.5375 155.142C95.1228 155.172 95.3589 160.12 95.0612 166.201L94.6196 175.178C94.5991 175.658 94.1884 176.025 93.7058 176.005L91.2415 175.882Z" fill="black"/>
<path d="M37.4575 157.57C38.2995 158.56 38.1866 160.049 37.1906 160.896L27.1793 169.394C26.1833 170.241 24.6842 170.129 23.8319 169.129L23.4725 168.711C22.6306 167.721 22.7435 166.231 23.7395 165.385L33.7508 156.886C34.7468 156.04 36.2459 156.152 37.0982 157.152L37.4575 157.57Z" fill="black"/>
<path d="M149.759 180.31C148.588 181.187 146.627 180.565 145.395 178.923C144.152 177.28 144.101 175.24 145.282 174.362C146.452 173.485 148.413 174.107 149.646 175.75C150.888 177.392 150.939 179.433 149.759 180.31Z" fill="black"/>
<path d="M100.031 197.572C100 198.939 98.8705 200.031 97.4844 200H97.2995C95.9236 199.969 94.8352 198.837 94.8558 197.47L95.1433 182.636C95.1741 181.269 96.3035 180.178 97.6897 180.208H97.8745C99.2505 180.239 100.339 181.371 100.318 182.738L100.031 197.572Z" fill="black"/>
<path d="M60.5195 187.503C59.7289 189.155 58.5686 190.492 57.0284 191.522C56.7409 191.716 56.4328 191.757 56.094 191.655C50.5185 189.91 55.7654 184.564 57.7471 182.769C58.2195 182.351 58.9588 182.381 59.3797 182.851C60.8481 184.473 61.228 186.023 60.5195 187.503Z" fill="black"/>
<path d="M152.891 85.2583C150.128 75.6378 145.836 67.9965 139.994 62.3344C129.911 52.5711 118.072 47.3171 104.487 46.5723C97.5255 46.1948 90.492 47.5925 83.5303 49.3268C73.4368 51.8569 65.8385 56.9681 58.4764 64.5584C51.6584 71.5876 47.1302 80.3613 44.8918 90.9C43.1976 98.8677 43.6596 106.672 46.2882 114.293C49.728 124.291 55.9402 134.381 64.4523 140.727C76.1373 149.429 91.5906 151.806 106.11 150.031C120.105 148.327 132.098 142.257 142.089 131.841C146.945 126.77 150.498 119.996 152.726 111.508C155.17 102.173 155.221 93.4301 152.891 85.2583ZM113.595 80.6572C115.402 75.5154 119.612 72.3119 123.011 73.4954C126.399 74.6788 127.683 79.8002 125.865 84.9318C124.058 90.0736 119.848 93.2771 116.449 92.0936C113.061 90.9102 111.778 85.7888 113.595 80.6572ZM68.9394 84.0851C70.531 78.9024 74.7717 75.5868 78.4373 76.6886C82.0927 77.7904 83.7664 82.8914 82.1852 88.074C80.5936 93.2567 76.3529 96.5723 72.6873 95.4705C69.0319 94.3687 67.3582 89.2677 68.9394 84.0851ZM133.248 109.712C127.436 122.547 118.02 130.555 105.011 133.738C98.6345 135.299 91.796 134.371 84.4749 130.953C76.8971 127.413 71.26 121.832 67.5635 114.212C67.1734 113.416 67.4506 112.457 68.2001 111.977L68.8573 111.549C69.7609 110.967 70.5002 111.131 71.0649 112.039C72.2252 113.895 73.56 115.925 75.0694 118.139C77.9547 122.383 81.7436 125.454 86.4156 127.352C94.5376 130.657 102.28 130.871 109.642 127.994C119.181 124.261 124.356 117.588 129.397 109.07C129.901 108.213 130.917 107.815 131.872 108.08L132.57 108.274C133.197 108.447 133.515 109.131 133.248 109.712Z" fill="black"/>
</g>
<defs>
<clipPath id="clip0_2105_825">
<rect width="200" height="200" fill="white"/>
</clipPath>
</defs>
</svg>
