<svg width="120" height="120" viewBox="0 0 120 120" fill="none" xmlns="http://www.w3.org/2000/svg">
<g clip-path="url(#clip0_2041_512)">
<path d="M119.153 26.8846C116.935 14.1882 108.376 2.82948 95.3079 0.599904C84.8777 -1.17565 75.3268 1.22419 66.647 7.79942C64.6223 9.33175 62.3475 11.464 59.8307 14.1963C59.5483 14.4963 59.2821 14.48 59.0482 14.1395C53.2886 5.78874 45.2299 1.11879 34.8804 0.129665C32.2507 -0.121669 29.9839 -0.0162706 28.0882 0.462076C18.7712 2.78084 11.6483 7.72645 6.70346 15.307C-1.00829 27.1278 -1.71009 45.532 2.76692 58.1798C4.79972 63.9118 8.35713 69.5547 12.0194 74.6868C18.6986 84.0267 26.846 93.1477 36.4695 102.042C43.4633 108.503 51.6268 114.292 60.9681 119.392C62.6621 120.316 64.2431 120.178 65.7193 118.97C72.2695 113.603 78.1985 108.195 83.5064 102.747C88.7497 97.3555 94.59 90.4803 101.027 82.1133C107.263 74.0139 112.079 66.0036 115.475 58.0825C119.798 47.9967 121.025 37.5947 119.153 26.8846ZM112.272 55.8367C110.675 60.0121 108.787 63.8794 106.609 67.4467C96.4453 84.124 83.4902 99.0906 67.7521 112.33C66.5663 113.327 64.0011 115.808 62.3475 114.949C56.2571 111.779 50.4088 107.928 44.8105 103.396C34.7594 95.2557 25.765 85.9968 17.8355 75.6111C11.5435 67.3738 6.24366 58.5771 4.69486 48.2237C3.17832 38.0487 4.88846 24.7118 10.8336 16.1907C16.0043 8.78043 25.9586 2.68355 35.6629 4.16723C44.7056 5.55362 51.5058 10.102 56.0635 17.8204C56.8298 19.1176 57.58 20.3418 58.306 21.485C58.5077 21.8012 58.8949 21.939 59.2498 21.8093C59.4434 21.7363 59.5967 21.6147 59.7016 21.4282C63.6785 14.5773 69.2203 9.68037 76.327 6.72922C88.1286 1.82415 100.374 3.2754 108.844 12.9153C118.572 23.9902 117.338 42.6133 112.272 55.8367Z" fill="black"/>
<path d="M114.232 28.0441C112.538 15.8746 103.149 6.80226 90.718 6.51038C80.3362 6.26716 71.9307 10.0858 65.5015 17.9583C63.3881 20.5446 61.7828 24.0876 60.0081 27.1279C59.629 27.7846 59.274 27.7684 58.9433 27.0793C54.4663 17.5123 48.8116 9.72908 38.4055 7.15088C34.0818 6.07257 30.1936 6.11311 26.733 7.25628C16.569 10.6209 10.1802 19.0366 7.80859 29.4548C5.00945 41.7864 6.78413 53.1937 13.1326 63.693C19.4811 74.1761 26.2894 81.9674 34.9369 90.9749C41.0675 97.3556 49.2875 103.801 59.6048 110.303C62.1619 111.917 64.6545 111.714 67.0907 109.703C72.3743 105.333 77.1901 100.834 81.522 96.1962C86.37 91.0074 90.8954 85.8429 95.1143 80.7108C98.1635 77.0056 100.809 72.814 103.512 68.7359C105.988 64.9983 107.811 61.8283 108.981 59.2176C110.981 54.7666 112.506 50.0885 113.563 45.1672C114.797 39.4109 115.015 33.7031 114.232 28.0441ZM31.5892 35.7544C25.0874 36.4516 19.2956 32.0897 18.6422 26.001C17.9968 19.9122 22.7481 14.4153 29.2418 13.718C35.7435 13.0208 41.5354 17.3826 42.1888 23.4714C42.8341 29.5602 38.0829 35.0571 31.5892 35.7544ZM107.126 53.8504C106.69 55.4152 105.875 58.3096 104.601 59.2744C103.77 59.8906 103.391 59.6798 103.455 58.6501C103.56 57.0529 104.335 52.6992 106.69 53.1451C107.093 53.218 107.239 53.4532 107.126 53.8504ZM109.215 48.1508C108.981 48.7021 109.11 49.2291 108.852 49.7237C108.715 49.975 108.521 50.0399 108.263 49.9102C107.23 49.3994 106.851 48.5724 107.126 47.4292C107.19 47.1536 107.36 47.032 107.634 47.0725C108.19 47.1536 108.674 47.3563 109.086 47.6725C109.255 47.7941 109.296 47.9562 109.215 48.1508ZM110.489 43.3755C110.473 43.7727 110.143 44.0808 109.747 44.0565L109.392 44.0403C109.005 44.0241 108.699 43.6917 108.715 43.2944L109.126 34.1572C109.142 33.7599 109.473 33.4518 109.868 33.4761L110.223 33.4923C110.61 33.5086 110.917 33.841 110.901 34.2382L110.489 43.3755ZM110.425 29.6899L109.78 29.7629C109.376 29.8034 109.021 29.5115 108.997 29.1062L108.682 24.1524C108.674 23.9903 108.812 23.8525 108.973 23.8768L109.271 23.9092C109.65 23.9579 109.941 24.2578 109.981 24.6308C110.159 26.2199 110.457 27.6792 110.869 29.0089C110.998 29.4223 110.852 29.6494 110.425 29.6899Z" fill="black"/>
</g>
<defs>
<clipPath id="clip0_2041_512">
<rect width="120" height="120" fill="white"/>
</clipPath>
</defs>
</svg>
