<svg width="131" height="81" viewBox="0 0 131 81" fill="none" xmlns="http://www.w3.org/2000/svg">
<g clip-path="url(#clip0_2248_665)">
<path d="M26.725 5.91309C26.9954 6.55608 26.6814 7.29465 26.036 7.56401L25.9139 7.61615C25.2685 7.88551 24.5185 7.5727 24.2569 6.92971L22.3469 2.3419C22.0765 1.69891 22.3905 0.96034 23.0359 0.690979L23.158 0.638845C23.8034 0.369485 24.5534 0.68229 24.815 1.32528L26.725 5.91309Z" fill="black"/>
<path d="M108.479 7.19007C108.243 7.74617 107.598 8.01553 107.031 7.78093L106.708 7.6419C106.141 7.4073 105.88 6.75562 106.115 6.19952L107.537 2.83687C107.772 2.28077 108.418 2.01141 108.985 2.24601L109.307 2.38504C109.874 2.61964 110.136 3.27132 109.9 3.82742L108.479 7.19007Z" fill="black"/>
<path d="M130.352 13.4547C130.709 14.1672 130.413 15.0274 129.698 15.3836L120.235 20.041C119.52 20.3885 118.656 20.1018 118.299 19.3893L118.273 19.3285C117.915 18.616 118.212 17.7557 118.927 17.3995L128.389 12.7422C129.105 12.3946 129.968 12.6813 130.326 13.3938L130.352 13.4547Z" fill="black"/>
<path d="M15.2914 20.0148C14.8379 20.6143 13.9745 20.7447 13.3727 20.2928L8.15733 16.4088C7.55556 15.957 7.42474 15.0968 7.87825 14.4973L7.9393 14.4104C8.39281 13.8108 9.25622 13.6805 9.85799 14.1323L15.0733 18.0163C15.6751 18.4681 15.8059 19.3284 15.3524 19.9279L15.2914 20.0148Z" fill="black"/>
<path d="M122.991 33.0658C122.677 33.0658 122.415 32.8225 122.415 32.5097V31.6842C122.398 30.963 123.61 30.3548 125.11 30.3374H126.549C128.058 30.3027 129.288 30.8762 129.296 31.606V32.4315C129.305 32.7443 129.061 32.9963 128.747 33.005L122.991 33.0658Z" fill="black"/>
<path d="M12.2389 33.3961C12.1779 34.1173 11.5412 34.6387 10.8261 34.5865L1.70355 33.8045C0.988403 33.7437 0.447681 33.1094 0.508731 32.3969V32.2926C0.578501 31.5714 1.21516 31.0501 1.93031 31.1022L11.0528 31.8842C11.768 31.9451 12.3087 32.5794 12.2476 33.2919V33.3961H12.2389Z" fill="black"/>
<path d="M127.046 45.5784L122.886 45.2047C122.267 45.1439 121.91 44.4662 122.232 43.9274L122.721 43.0933C122.895 42.7979 123.235 42.6415 123.575 42.6849L127.849 43.2671C128.538 43.3626 128.826 44.1968 128.346 44.6921L127.735 45.3177C127.561 45.5001 127.299 45.5957 127.046 45.5697V45.5784Z" fill="black"/>
<path d="M11.8028 44.4485C11.8202 45.1262 11.2708 45.6997 10.5905 45.7171L1.79069 45.9169C1.11043 45.9343 0.534821 45.3869 0.517378 44.7092V44.631C0.499936 43.9532 1.04066 43.3797 1.72964 43.3624L10.5295 43.1625C11.2097 43.1451 11.7853 43.6925 11.8028 44.3703V44.4485Z" fill="black"/>
<path d="M130.16 60.4624C129.785 61.1575 128.913 61.4182 128.215 61.0533L119.206 56.2569C118.499 55.8833 118.238 55.0144 118.613 54.3193L118.648 54.2497C119.023 53.5546 119.895 53.294 120.593 53.6589L129.602 58.4552C130.308 58.8289 130.57 59.6978 130.195 60.3929L130.16 60.4624Z" fill="black"/>
<path d="M16.7914 56.5C17.1664 57.143 16.9484 57.9598 16.3117 58.3334L6.92759 63.7988C6.28221 64.1725 5.4624 63.9639 5.08739 63.3209L5.04378 63.2514C4.66876 62.6084 4.8868 61.7917 5.52345 61.418L14.9076 55.9526C15.553 55.579 16.3728 55.7875 16.7478 56.4305L16.7914 56.5Z" fill="black"/>
<path d="M29.7513 68.9433C29.3153 69.4907 28.5303 69.5863 27.9809 69.1519L27.8239 69.0302C27.2745 68.5958 27.1873 67.8138 27.6146 67.2664L29.2368 65.2244C29.6728 64.677 30.4577 64.5814 31.0072 65.0159L31.1642 65.1375C31.7136 65.572 31.8008 66.354 31.3735 66.9014L29.7513 68.9433Z" fill="black"/>
<path d="M102.234 68.6734C101.685 69.1339 100.664 68.8385 99.9492 68.0043C99.2428 67.1702 99.112 66.1101 99.6614 65.6496C100.211 65.1891 101.231 65.4845 101.946 66.3187C102.653 67.1528 102.784 68.2129 102.234 68.6734Z" fill="black"/>
<path d="M121.971 74.0778C121.517 74.6166 120.706 74.6774 120.174 74.2256L113.825 68.8644C113.293 68.4126 113.223 67.6132 113.677 67.0745L113.816 66.9094C114.27 66.3707 115.081 66.3098 115.613 66.7617L121.962 72.1228C122.494 72.5746 122.564 73.374 122.11 73.9128L121.971 74.0778Z" fill="black"/>
<path d="M18.9281 69.7773C19.3642 70.3247 18.745 71.5412 17.5415 72.497C16.3379 73.4615 15.0123 73.8004 14.5762 73.2616C14.1401 72.7142 14.7593 71.4978 15.9629 70.542C17.1664 69.5775 18.4921 69.2386 18.9281 69.7773Z" fill="black"/>
<path d="M36.7371 77.0589C37.1818 77.641 36.9115 78.5881 36.1353 79.1616C35.3678 79.7351 34.3823 79.7177 33.9462 79.1355C33.5015 78.5534 33.7718 77.6063 34.548 77.0328C35.3155 76.4593 36.301 76.4767 36.7371 77.0589Z" fill="black"/>
<path d="M96.2949 80.3693C95.6845 80.8125 94.6117 80.3693 93.8879 79.3875C93.164 78.4056 93.0681 77.25 93.6698 76.8068C94.2803 76.3637 95.353 76.8068 96.0769 77.7887C96.8008 78.7705 96.8967 79.9262 96.2949 80.3693Z" fill="black"/>
<path d="M100.385 13.6982C90.661 10.1878 80.3873 14.0197 74.1952 22.17C71.9102 25.1677 70.0351 28.3218 68.5612 31.6323C68.4653 31.8583 68.2036 31.9538 67.9769 31.8583C67.7588 31.7627 67.5844 31.615 67.4449 31.4151C65.8925 29.1038 64.218 26.7665 62.4039 24.4031C56.6828 16.9392 47.5341 10.935 37.6703 12.3253C31.7398 13.1681 26.5244 15.7227 23.4807 20.9796C19.7305 27.4355 19.7131 34.1609 23.4109 41.1382C25.6697 45.3871 30.9985 47.681 35.3766 49.0104C40.0076 50.418 44.5688 52.095 49.0516 54.0501C57.5287 57.7342 63.6337 64.2076 69.1281 72.0711C69.6165 72.7663 70.6718 72.6968 71.0555 71.9321C71.666 70.7243 72.2242 69.5252 72.7562 68.3348C76.1051 60.7754 82.5938 55.0319 90.2075 52.0777C93.5914 50.7656 97.298 49.3927 101.318 47.9504C107.17 45.865 111.06 42.1374 112.325 35.6901C114.191 26.1843 109.621 17.0348 100.377 13.6982H100.385ZM28.1902 37.341C27.6844 37.732 26.821 37.4627 26.2628 36.7502C25.6959 36.029 25.6523 35.134 26.1494 34.743C26.6553 34.352 27.5187 34.6214 28.0768 35.3339C28.6437 36.0551 28.6873 36.95 28.1902 37.341ZM34.4085 22.4306C30.2746 24.7506 29.2106 27.7831 27.7716 31.893C27.7018 32.1102 27.5536 32.2406 27.3442 32.2927C26.568 32.4752 26.1145 32.2058 25.975 31.4673C25.1552 27.2357 28.5391 22.2308 32.0712 20.3105C32.8736 19.8761 33.6846 19.9282 34.5219 20.4669C34.6091 20.5278 34.6876 20.5973 34.7574 20.6842C35.3417 21.3967 35.2196 21.9875 34.4172 22.4393L34.4085 22.4306Z" fill="black"/>
</g>
<defs>
<clipPath id="clip0_2248_665">
<rect width="130" height="80" fill="white" transform="translate(0.5 0.542969)"/>
</clipPath>
</defs>
</svg>
