<svg width="61" height="60" viewBox="0 0 61 60" fill="none" xmlns="http://www.w3.org/2000/svg">
<g clip-path="url(#clip0_2010_190)">
<path d="M60.4383 16.1868C60.1787 12.5347 59.4867 9.61304 58.3868 7.41002C55.569 1.77876 47.6844 -1.97934 41.6535 1.11903C37.4146 3.29849 34.325 7.06837 32.4094 12.4405C32.2611 12.8528 32.0757 12.8763 31.8656 12.4876C27.3548 4.24096 13.9089 -0.518513 5.61642 6.04344C-0.0684457 10.5319 -0.50099 18.755 1.79767 25.1638C4.65246 33.0923 10.7575 39.4658 17.2457 44.8968C23.3136 49.9743 29.3816 54.9694 35.4249 59.8703C35.672 60.0705 36.0428 60.047 36.2529 59.8114C42.1231 53.2965 48.1169 46.5343 52.4547 39.1713C56.7184 31.926 61.0438 24.7986 60.4383 16.1868ZM12.0057 7.79879C10.6586 8.76482 9.79355 9.86044 9.4228 11.0974C9.17563 11.9339 8.71837 12.5583 8.03866 12.9942C7.63083 13.2533 7.48253 13.1591 7.59376 12.7114C8.11281 10.473 9.38572 8.69413 11.4001 7.37467C11.5484 7.26865 11.6844 7.29221 11.7956 7.4218L12.0181 7.68098C12.0181 7.68098 12.0428 7.77522 12.0057 7.79879ZM32.3476 24.6101L31.9151 24.6926C31.7297 24.7279 31.6308 24.6572 31.6432 24.4805C31.7297 22.2068 31.8904 20.0038 32.1252 17.8479C32.1375 17.6947 32.224 17.624 32.3847 17.6358H32.3971C32.5454 17.6594 32.6195 17.7301 32.6195 17.8714C32.5577 19.9331 32.5824 22.0536 32.6689 24.2213C32.6689 24.4334 32.5701 24.563 32.3476 24.6101ZM44.3105 7.31577C38.9841 8.10509 38.1066 18.0481 35.4743 21.123C35.1283 21.5353 34.9676 21.4764 34.98 20.9462C35.1901 15.0912 37.3898 10.3906 41.5917 6.82097C42.5062 6.04344 43.4702 5.99631 44.4712 6.6796C44.9532 7.02125 44.9038 7.2333 44.3105 7.31577Z" fill="black"/>
</g>
<defs>
<clipPath id="clip0_2010_190">
<rect width="60" height="60" fill="white" transform="translate(0.5)"/>
</clipPath>
</defs>
</svg>
