<svg width="71" height="60" viewBox="0 0 71 60" fill="none" xmlns="http://www.w3.org/2000/svg">
<g clip-path="url(#clip0_2005_93)">
<path d="M67.4675 8.84225C60.0316 -3.09389 45.0252 -0.858614 35.0734 7.08046C34.7589 7.33372 34.4556 7.31169 34.1748 7.03641C25.3461 -1.79457 10.2836 -3.31411 2.91514 8.28068C-2.66734 17.0676 2.26366 29.7855 9.19402 36.5024C12.6761 39.8828 16.1693 43.2412 19.685 46.5776C23.8859 50.5857 27.66 54.9241 30.996 59.5818C31.4116 60.1544 32.2877 60.1434 32.6696 59.5488C38.8587 50.0902 48.8105 42.8118 58.2457 36.7006C61.9187 34.3222 65.5467 31.6024 67.6247 28.6073C71.7357 22.7053 71.2303 14.8984 67.4675 8.84225ZM29.3786 8.89731L29.1876 9.1836C29.0865 9.32674 28.963 9.34876 28.8169 9.26067C20.6398 4.28361 10.6767 8.47888 7.61026 16.9685C7.21713 18.0366 6.88016 18.0146 6.57689 16.9245C6.27361 15.8344 6.45333 14.5571 7.10481 13.0705C11.2383 3.58991 21.763 3.73305 29.3449 8.74315C29.401 8.78719 29.4123 8.84225 29.3786 8.89731ZM63.48 22.6613C62.6263 24.1038 62.1995 23.9937 62.1995 22.32C62.2107 20.415 62.4354 17.8935 61.6154 16.0546C60.1215 12.6962 57.4707 10.4939 53.6629 9.46989C46.6651 7.58697 40.8693 9.15056 36.264 14.1607C35.9719 14.48 35.6687 14.491 35.3654 14.1937L35.0397 13.8744C34.8599 13.6982 34.8375 13.4009 35.006 13.2027C42.5541 4.16249 59.5374 1.36565 64.1988 14.7883C65.1536 17.5191 64.9177 20.2498 63.48 22.6613Z" fill="black"/>
</g>
<defs>
<clipPath id="clip0_2005_93">
<rect width="70" height="60" fill="white" transform="translate(0.5)"/>
</clipPath>
</defs>
</svg>
