<svg width="101" height="101" viewBox="0 0 101 101" fill="none" xmlns="http://www.w3.org/2000/svg">
<g clip-path="url(#clip0_2209_97)">
<path d="M98.6792 15.4995C95.4831 7.14529 89.4817 2.24578 80.6672 0.800955C70.7742 -0.821452 61.0923 5.40988 55.9583 13.8286C54.1297 16.8152 52.559 19.834 51.2462 22.877C51.1134 23.1837 50.9571 23.1918 50.7852 22.9093C48.1361 18.5021 45.3386 15.1363 42.4082 12.8116C32.609 5.04666 19.4263 4.51393 9.32232 11.9479C-1.34424 19.7936 -1.649 34.4921 4.71968 45.3647C6.97802 49.2149 9.73648 53.2507 12.9951 57.4561C24.1539 71.8801 36.0864 84.8352 48.816 98.7427C49.4177 99.4046 50.1053 99.9454 50.8711 100.365C51.0977 100.486 51.3322 100.551 51.5822 100.543C52.6059 100.518 53.6061 99.8808 54.5751 98.6135C60.5531 90.8163 67.4375 83.2289 73.5249 75.585C80.3702 66.9887 87.1062 58.6668 92.92 49.2552C99.0074 39.4078 103.008 26.824 98.6792 15.4995ZM51.2931 49.5135C51.7541 49.8122 52.3637 49.7072 52.7153 49.2714C53.5514 48.2059 54.2547 47.1727 54.8252 46.1799C57.568 41.3611 60.2327 36.502 62.8192 31.5944C64.0539 29.2617 65.5464 27.4778 67.2187 25.5326C67.4922 25.2178 67.9611 25.1855 68.2658 25.468C72.7981 29.6814 69.985 34.6859 67.0546 38.762C61.5064 46.4705 56.1692 53.848 51.0352 60.8946C50.8711 61.1287 50.6992 61.1287 50.5195 60.9107C45.1354 54.3807 39.6341 47.4714 34.0234 40.1827C31.2259 36.5504 28.8347 31.4168 32.906 27.4617C33.1013 27.2761 33.3201 27.2034 33.578 27.2438C36.0083 27.6231 39.1262 31.8123 40.8141 34.0805C44.0414 38.3988 47.1046 43.0804 50.0037 48.1413C50.3319 48.7144 50.7617 49.1664 51.2931 49.5135ZM74.8689 27.4456C74.2125 25.6133 73.3139 23.7649 72.173 21.9165C71.8917 21.4564 71.9698 21.077 72.3996 20.7703C74.15 19.5272 76.8147 18.0259 78.9324 18.8089C84.3555 20.8106 84.0273 27.0581 82.5817 31.8688C80.8235 37.7127 76.885 43.2095 72.4543 49.1584C65.3354 58.7072 58.3416 68.1672 51.465 77.5222C51.2697 77.7886 51.0743 77.7967 50.8633 77.5465C43.6194 69.0308 36.2818 60.2811 28.8347 51.2812C25.6308 47.4068 22.9661 43.8714 20.8328 40.667C18.09 36.5504 16.2536 30.8357 19.1918 26.1622C21.0985 23.1353 24.0758 22.2958 28.1314 23.6519C28.694 23.8375 28.7878 24.1685 28.4205 24.6447C22.974 31.6832 27.0765 38.5441 32.0386 44.9692C38.1728 52.9117 43.8695 60.0551 49.1285 66.3995C49.4958 66.8353 49.949 67.134 50.496 67.2954C50.8711 67.4084 51.2697 67.2793 51.5197 66.9726C57.5758 59.361 63.5616 51.4749 69.477 43.3145C70.3835 42.0634 71.2275 40.7638 72.0089 39.4159C74.1735 35.6625 76.4318 31.8123 74.8689 27.4456ZM94.8033 31.5298C92.67 40.8768 87.1218 49.5377 81.472 57.0202C72.3371 69.1035 62.6942 80.9043 52.5512 92.4226C51.887 93.1732 51.215 93.1894 50.5195 92.471C38.7902 80.3554 27.6 67.5134 16.9491 53.961C13.6358 49.7476 10.682 45.4858 8.47056 41.1432C3.61004 31.5702 5.25887 19.9308 14.7298 14.6358C24.2321 9.33272 36.1645 12.1497 42.8224 20.3748C46.331 24.7012 49.824 29.5361 48.8238 35.5657C48.7456 36.0419 48.5737 36.0823 48.3158 35.6706C46.3388 32.5549 43.8382 29.746 41.4158 26.9451C36.1177 20.8429 27.0921 15.556 19.2231 19.6725C12.1433 23.3694 11.1352 32.2643 14.3235 38.9961C15.7066 41.9181 17.3789 44.6059 19.3403 47.0517C27.2797 56.9637 35.5863 67.1421 44.268 77.5787C46.4638 80.2262 48.4878 83.5195 51.3165 85.5213C51.4181 85.5939 51.5588 85.5697 51.6369 85.4728C59.6935 74.6972 67.7032 63.8811 75.6816 53.0166C80.3937 46.5996 86.0122 39.2867 87.9658 31.3603C89.6615 24.5075 87.6141 16.2905 80.5187 14.0224C71.6572 11.1892 62.7098 22.0295 58.9824 28.7693C57.8728 30.7792 56.7397 32.7164 55.5754 34.5971C55.3487 34.9603 55.1924 34.9361 55.0909 34.5163C54.708 32.8939 54.6611 31.3119 54.9502 29.7783C56.81 19.9712 62.1628 10.939 71.1571 7.08879C77.5727 4.33635 85.0744 5.89418 89.8725 11.0278C94.8971 16.4035 96.4756 24.2169 94.8033 31.5298Z" fill="black"/>
</g>
<defs>
<clipPath id="clip0_2209_97">
<rect width="100" height="100" fill="white" transform="translate(0.5 0.542969)"/>
</clipPath>
</defs>
</svg>
