<svg width="146" height="160" viewBox="0 0 146 160" fill="none" xmlns="http://www.w3.org/2000/svg">
<g clip-path="url(#clip0_2105_776)">
<path d="M91.5268 14.6452C91.0649 15.9241 89.6501 16.5876 88.3701 16.126L87.3018 15.7414C86.0217 15.2798 85.3576 13.8759 85.8196 12.5874L89.7945 1.62517C90.2564 0.346252 91.6712 -0.31725 92.9512 0.144316L94.0195 0.528955C95.2996 0.990521 95.9636 2.39445 95.5017 3.68299L91.5268 14.6452Z" fill="black"/>
<path d="M56.5906 15.6356C56.9563 17.1357 56.042 18.6454 54.5406 19.0204L53.8477 19.1935C52.3463 19.5685 50.8256 18.6454 50.4599 17.1453L47.2742 4.18298C46.9085 2.68289 47.8228 1.17318 49.3242 0.798162L50.0172 0.625075C51.5186 0.250052 53.0392 1.17318 53.4049 2.67327L56.5906 15.6356Z" fill="black"/>
<path d="M132.372 18.1355C133.344 19.1933 133.277 20.8376 132.228 21.8088L121.179 31.9921C120.121 32.9634 118.475 32.896 117.503 31.8479L116.916 31.2132C115.944 30.1555 116.011 28.5112 117.06 27.54L128.109 17.3566C129.167 16.3854 130.813 16.4527 131.785 17.5009L132.372 18.1355Z" fill="black"/>
<path d="M28.7378 35.6273C28.2373 36.1658 27.3904 36.1851 26.8514 35.685L18.5649 27.8769C16.9095 26.3191 16.409 24.1651 17.4388 23.0689L17.8238 22.665C18.8632 21.5688 21.0383 21.9438 22.6937 23.5016L30.9802 31.3001C31.5192 31.8098 31.5481 32.656 31.038 33.1849L28.7378 35.6273Z" fill="black"/>
<path d="M140.139 52.3782C140.736 53.7245 140.13 55.2919 138.782 55.8784L133.027 58.417C131.68 59.0132 130.111 58.4074 129.524 57.0612L129.418 56.8112C128.821 55.4649 129.427 53.8975 130.775 53.311L136.53 50.7723C137.878 50.1762 139.446 50.782 140.033 52.1282L140.139 52.3782Z" fill="black"/>
<path d="M18.7669 59.9846C18.1606 61.3597 16.563 61.9943 15.1867 61.3982L5.11003 57.0229C3.73375 56.4267 3.09854 54.8208 3.69525 53.4458L3.95511 52.8496C4.56144 51.4745 6.15908 50.8398 7.53536 51.436L17.612 55.8113C18.9883 56.4075 19.6235 58.0133 19.0268 59.3884L18.7669 59.9846Z" fill="black"/>
<path d="M13.7911 86.7937C13.8007 87.9668 12.8576 88.938 11.6834 88.9573L2.67503 89.0631C1.50086 89.0727 0.528805 88.1303 0.509557 86.9572V85.8417C0.480684 84.6686 1.42387 83.6973 2.60766 83.6781L11.616 83.5723C12.7902 83.5627 13.7622 84.5051 13.7815 85.6782V86.7937H13.7911Z" fill="black"/>
<path d="M134.981 86.2072L143.825 87.6689C145.173 87.89 145.904 89.3709 145.269 90.5729L144.393 92.2364C143.979 93.0153 143.104 93.4288 142.237 93.2654L133.45 91.5537C132.103 91.2845 131.42 89.7748 132.103 88.5824L132.921 87.1785C133.335 86.4573 134.163 86.063 134.981 86.2072Z" fill="black"/>
<path d="M19.3348 115.161C19.9797 116.334 19.5562 117.796 18.3917 118.44L11.1157 122.459C9.95113 123.104 8.47861 122.681 7.83378 121.517L7.5643 121.027C6.91947 119.853 7.34294 118.392 8.50748 117.748L15.7835 113.728C16.948 113.084 18.4205 113.507 19.0654 114.67L19.3348 115.161Z" fill="black"/>
<path d="M122.787 117.824C123.855 116.814 125.481 116.718 126.665 117.584C130.371 120.295 133.758 123.103 136.829 125.998C137.897 127.007 138.003 128.113 137.146 129.306C136.925 129.623 136.694 129.931 136.472 130.248C135.625 131.431 134.634 131.565 133.489 130.661L122.575 121.988C121.064 120.786 121.006 119.517 122.402 118.19L122.787 117.824Z" fill="black"/>
<path d="M35.3207 147.961C34.5989 149.009 33.1553 149.278 32.1062 148.557L31.2208 147.951C30.1717 147.23 29.9022 145.797 30.6241 144.74L35.571 137.547C36.2928 136.499 37.7364 136.229 38.7855 136.951L39.6709 137.556C40.72 138.278 40.9895 139.71 40.2676 140.768L35.3207 147.961Z" fill="black"/>
<path d="M109.014 150.567C109.505 151.894 108.831 153.365 107.503 153.855L106.579 154.201C105.251 154.692 103.779 154.019 103.288 152.692L99.5919 142.758C99.1011 141.431 99.7748 139.96 101.103 139.47L102.027 139.124C103.355 138.633 104.828 139.306 105.318 140.633L109.014 150.567Z" fill="black"/>
<path d="M125.76 69.1675C125.279 65.6865 124.74 62.9748 124.153 61.0228C120.775 49.9163 114.75 41.2139 106.098 34.9347C94.8568 26.7899 82.0276 24.0398 67.6104 26.7034C47.6303 30.3959 33.1264 43.8006 26.2258 62.6671C22.7225 72.235 21.3559 82.274 22.1258 92.7747C23.4155 110.545 33.0013 123.728 50.5272 128.094C53.8861 128.931 57.2738 129.681 60.6808 130.335C62.5768 130.69 63.5585 131.45 64.1456 133.2C64.6364 134.681 64.9829 136.191 65.185 137.739C65.8684 142.922 66.8693 148.038 68.1878 153.096C68.7749 155.375 69.9683 157.509 71.7584 159.509C72.384 160.202 73.4908 160.163 74.049 159.413C74.4629 158.865 74.8478 158.202 75.2232 157.413C79.5541 148.249 84.1161 139.797 88.9186 132.056C89.6982 130.796 90.7953 129.902 92.2101 129.354C102.662 125.305 110.852 118.517 116.781 108.968C124.105 97.1692 127.666 82.9856 125.76 69.1675ZM118.051 91.7938C113.393 108.16 101.834 120.161 85.425 125.479C84.4914 125.777 83.8562 126.507 83.5194 127.652C81.6907 133.777 79.0152 139.508 75.5023 144.845C74.9345 145.711 74.8382 146.691 74.4725 147.557C74.1356 148.355 73.8662 148.336 73.664 147.499C73.3176 146.057 73.0673 144.489 72.9133 142.807C72.538 138.835 71.6911 134.739 70.3822 130.517C68.8134 125.459 66.5902 125.373 61.855 124.777C57.2835 124.209 52.606 122.95 47.8131 121.017C26.4086 112.372 26.9765 86.005 31.9811 67.5905C33.8771 60.6093 36.4949 54.8974 39.8538 50.4644C46.7737 41.3197 56.0034 35.4635 67.5526 32.8865C76.4359 30.896 84.7128 31.396 92.3834 34.3769C98.8701 36.9059 104.164 40.4927 108.254 45.1372C116.194 54.1762 120.15 64.7441 120.121 76.841C120.111 81.9856 119.418 86.9762 118.051 91.7938Z" fill="black"/>
<path d="M107.417 48.2527C102.498 42.4639 96.0598 38.4733 88.1197 36.2712C73.741 32.2902 56.8022 37.8482 46.3021 48.3585C42.0866 52.5799 38.8817 58.0033 36.697 64.6191C30.9609 81.9759 28.526 104.641 44.7526 116.613C50.3924 120.767 60.3825 124.113 68.2552 123.411C68.5728 123.382 68.8711 123.45 69.1406 123.632C70.9596 124.834 72.2589 128.238 72.9807 130.219C74.0971 133.258 74.3281 137.047 74.7804 140.364C74.9441 141.499 75.2905 141.556 75.8295 140.547C76.8015 138.729 77.7159 136.806 78.582 134.777C79.8332 131.854 80.2855 128.383 81.3057 125.18C81.556 124.373 82.1719 123.738 82.9611 123.45C96.4159 118.584 108.013 110.256 113.143 96.1883C118.841 80.5623 118.33 61.09 107.417 48.2527ZM66.9559 96.6306C66.0993 97.9672 64.1456 97.948 63.3179 96.5922C62.8463 95.8229 62.5768 95.0151 62.4902 94.1689C62.1533 90.8514 61.7587 87.4666 61.3064 84.0241C61.2583 83.6683 61.0658 83.4856 60.7097 83.4664C57.6492 83.2933 54.7522 83.6779 52.0286 84.6203C51.6243 84.7645 51.4511 85.0434 51.4992 85.4665C51.9323 88.9186 51.9804 92.4188 51.6436 95.9671C51.6147 96.2844 51.4511 96.5152 51.1527 96.6595C50.2769 97.0826 49.4011 97.1595 48.5253 96.8806C48.2077 96.7845 47.9671 96.6018 47.7939 96.3229C47.4089 95.6979 47.1779 95.0632 47.0913 94.3997C46.2925 87.7551 45.6188 78.4757 45.0509 66.5615C44.9739 65.0422 46.1288 63.7344 47.6495 63.619C47.7457 63.6094 47.842 63.6094 47.9382 63.5998C48.9776 63.5806 49.9112 64.2537 50.1903 65.2537C51.2105 68.8693 51.6436 73.1581 51.4992 78.1199C51.4896 78.2545 51.6243 78.3603 51.7591 78.3314C54.656 77.7256 57.5048 77.4468 60.2958 77.4949C60.5365 77.5045 60.6519 77.3795 60.6423 77.1391L60.344 64.8883C60.2958 62.869 61.2486 62.1285 63.1928 62.667C63.3852 62.7151 63.5777 62.7536 63.7702 62.7824C65.0406 62.9363 66.0512 63.9267 66.2052 65.196C67.0232 71.6195 67.3986 77.7929 67.3216 83.7164C67.3023 85.2069 67.3697 86.7262 67.5141 88.2743C67.7547 90.8899 68.3899 94.3709 66.9559 96.6306ZM82.759 92.3996C82.5858 94.3901 82.7494 96.496 80.1508 96.6018C79.1884 96.6402 78.3607 95.9383 78.2356 94.9863C77.6292 90.2456 77.1384 85.7165 76.7823 81.3797C76.4647 77.6006 76.6764 74.937 77.3983 73.3985C78.2644 71.5522 81.4886 71.0906 82.3933 73.1484C82.8264 74.1581 83.067 75.2255 83.1151 76.3313C83.3365 81.7066 83.2113 87.0627 82.759 92.3996ZM82.2585 69.129C80.4973 70.6002 77.841 70.331 76.3203 68.5135C74.7997 66.7057 75.0018 64.0421 76.763 62.5613C78.5243 61.09 81.1806 61.3593 82.7013 63.1767C84.2219 64.9845 84.0198 67.6481 82.2585 69.129ZM94.1542 61.7535C94.2986 59.5803 95.338 58.4649 97.2628 58.4072C99.6786 58.3495 100.545 61.1862 100.651 63.0709C100.968 68.927 100.756 75.6678 100.006 83.2933C99.8807 84.553 99.2166 85.0915 98.0039 84.9184C97.1762 84.7934 96.5122 84.1587 96.3774 83.3317C95.1936 76.2448 93.673 68.8213 94.1542 61.7535ZM100.198 95.9767C98.5044 96.5825 96.5795 95.5632 95.9058 93.6881C95.2321 91.813 96.0694 89.7937 97.7729 89.1879C99.4668 88.5821 101.392 89.6013 102.075 91.4765C102.749 93.3516 101.911 95.3709 100.208 95.9767H100.198Z" fill="black"/>
</g>
<defs>
<clipPath id="clip0_2105_776">
<rect width="145" height="160" fill="white" transform="translate(0.5)"/>
</clipPath>
</defs>
</svg>
