<svg width="185" height="201" viewBox="0 0 185 201" fill="none" xmlns="http://www.w3.org/2000/svg">
<g clip-path="url(#clip0_2266_926)">
<path d="M113.64 7.24116C115.38 7.34218 117.059 7.35228 118.708 7.26136C120.598 7.17044 120.779 7.67556 119.241 8.79695L115.189 11.7166C114.525 12.1914 114.324 12.8279 114.586 13.6159L116.566 19.4551C116.677 19.7885 116.466 20.1421 116.124 20.2027C115.712 20.2734 115.259 20.1623 114.777 19.8693C113.158 18.8894 111.539 17.8488 109.93 16.7274C109.508 16.4446 108.955 16.4345 108.522 16.7173L103.153 20.2431C102.892 20.4149 102.55 20.3138 102.419 20.031C101.273 17.5356 105.777 13.5047 102.751 11.464C101.293 10.474 100.046 9.32228 99.0206 7.99885C98.7793 7.68567 99.0206 7.23105 99.4127 7.25126C101.534 7.35228 105.546 7.70587 106.572 5.37219C107.235 3.86691 107.879 2.38183 108.502 0.927068C108.623 0.644197 108.935 0.492659 109.236 0.553274C109.498 0.603787 109.709 0.81594 109.87 1.14932C110.604 2.73542 111.348 4.40234 112.092 6.13998C112.373 6.77644 112.977 7.19064 113.661 7.24116H113.64Z" fill="black"/>
<path d="M160.677 63.8653C162.447 63.0369 164.307 62.1781 166.268 61.3295C166.982 61.0163 167.163 61.2083 166.801 61.8953C164.971 65.3907 162.407 68.3609 159.089 70.8259C156.002 73.1192 150.713 73.9476 146.822 74.7255C143.825 75.3114 140.256 75.564 136.968 76.1601C136.143 76.3116 136.013 76.0792 136.586 75.463C138.446 73.4728 140.547 70.9067 142.94 69.5833C143.674 69.1792 144.539 68.8862 145.555 68.7145C150.582 67.8659 155.62 66.2495 160.667 63.8754L160.677 63.8653Z" fill="black"/>
<path d="M158.918 72.4223C159.531 72.1799 159.672 72.3415 159.33 72.9173C156.796 77.221 152.06 81.7268 147.143 83.1007C145.313 83.6159 143.071 84.0503 140.437 84.3837C135.862 84.9697 131.458 85.4647 127.235 85.8587C126.863 85.8991 126.641 85.4445 126.913 85.1717C128.25 83.8281 129.628 82.4137 131.055 80.9388C132.393 79.5648 133.67 78.7768 135.6 78.5647C142.82 77.7868 150.582 75.7359 158.918 72.4223Z" fill="black"/>
<path d="M149.044 85.162C144.74 89.4758 141.764 92.8399 136.244 93.6785C133.418 94.1129 130.281 94.5372 126.832 94.9514C123.927 95.305 121.252 93.9411 118.316 94.9009C118.095 94.9716 117.914 94.7392 118.024 94.5372C119.01 92.7591 120.397 91.2134 122.187 89.9001C123.233 89.1323 124.671 88.6373 126.511 88.3948C135.47 87.2027 142.317 85.9298 149.768 83.1314C150.471 82.8687 150.632 83.0607 150.25 83.7072C150.019 84.1214 149.617 84.6064 149.054 85.1721L149.044 85.162Z" fill="black"/>
<path d="M173.568 103.721C171.356 104.872 169.304 106.61 166.871 107.196C166.469 107.297 166.127 106.903 166.268 106.509L168.259 101.165C168.54 100.397 168.289 99.5281 167.625 99.0532C165.805 97.7399 164.196 96.3862 162.779 94.9819C162.467 94.6687 162.668 94.1232 163.111 94.103L170.099 93.7595C170.36 93.7494 170.601 93.5777 170.702 93.3352L173.035 87.8495C173.698 86.2836 174.342 86.2937 174.955 87.8798L176.825 92.6684C177.187 93.5979 177.861 94.0626 178.856 94.0525L184.618 94.0222C184.879 94.0222 185.06 94.2848 184.97 94.5273C184.839 94.8708 184.618 95.1536 184.316 95.3961C182.979 96.4468 181.561 97.6793 180.053 99.0734C179.47 99.6089 179.249 100.447 179.5 101.205L180.958 105.721C181.511 107.428 180.998 107.863 179.409 107.034C177.72 106.145 175.991 105.054 174.231 103.771C174.03 103.62 173.809 103.599 173.578 103.721H173.568Z" fill="black"/>
<path d="M139.361 95.2847C135.972 98.7498 130 103.508 124.741 103.781C120.468 104.013 115.591 104.185 110.131 104.296C109.779 104.296 109.478 104.185 109.246 103.943C109.086 103.761 109.086 103.478 109.267 103.316L115.491 97.5072C115.682 97.3254 115.913 97.2446 116.174 97.285C116.838 97.386 117.481 97.4163 118.095 97.386C125.616 96.9718 132.524 95.9514 138.808 94.335C140.125 93.9915 140.316 94.3148 139.361 95.2948V95.2847Z" fill="black"/>
<path d="M116.687 113.702L99.9255 113.399C99.4429 113.399 99.2217 112.802 99.5636 112.479L105.365 106.963C105.456 106.882 105.566 106.832 105.687 106.822L128.029 104.983C128.582 104.943 128.823 105.66 128.371 105.973L116.999 113.621C116.908 113.681 116.798 113.712 116.697 113.712L116.687 113.702Z" fill="black"/>
<path d="M177.962 31.3252C177.891 31.305 177.73 31.3252 177.489 31.3959C166.398 34.4671 157.299 38.8819 146.61 45.6506C143.061 47.8934 140.356 49.8937 138.516 51.6515C129.919 59.8346 121.332 70.3311 113.459 79.0193C102.671 90.9302 92.2034 103.124 82.0882 115.611C79.0315 119.379 75.6933 122.824 72.5159 126.441C71.8925 127.148 71.2892 127.996 70.696 128.976C70.5753 129.178 70.5854 129.441 70.7161 129.643C72.1439 131.744 74.1146 133.058 76.6384 133.603C80.1174 134.361 83.5863 134.513 87.0352 134.048C88.4931 133.856 90.1824 133.371 92.0827 132.603C95.0992 131.391 98.1659 130.401 100.841 128.572C102.037 127.764 103.234 126.915 104.43 126.016C104.561 125.915 104.601 125.744 104.511 125.612C104.43 125.471 104.249 125.42 104.108 125.491C103.425 125.834 102.701 126.016 101.947 126.077C98.6687 126.309 94.5462 126.269 89.5589 125.946C88.8752 125.905 88.282 125.673 87.7993 125.259C87.548 125.036 87.5882 124.925 87.92 124.915C90.293 124.844 92.8771 124.834 95.6723 124.875C99.453 124.925 102.027 124.642 103.405 124.036C107.246 122.319 111.408 119.783 115.883 116.439C116.858 115.712 116.737 115.378 115.521 115.439C111.348 115.661 106.491 115.712 100.921 115.58C100.096 115.57 98.6989 115.358 96.718 114.974C96.4566 114.924 96.2153 114.944 95.9639 115.015L94.6668 115.378C94.0937 115.54 94.0032 115.399 94.3853 114.934C101.424 106.65 108.271 99.0123 114.958 92.0213C125.374 81.1308 137.139 69.2603 150.24 56.4199C155.097 51.6616 160.426 47.0852 165.524 42.5997C168.611 39.8922 168.822 40.1043 166.157 43.226C162.306 47.7621 158.204 52.4597 153.86 57.309C153.669 57.511 153.719 57.5918 153.991 57.5312C155.539 57.1978 156.967 56.3997 158.435 56.0967C162.728 55.2177 166.911 53.9145 170.983 52.187C171.094 52.1365 171.154 52.187 171.175 52.288L171.205 52.5406C171.205 52.6214 171.185 52.6921 171.104 52.7325C165.574 55.5006 159.772 57.6626 153.689 59.1981C152.422 59.5214 151.386 60.0366 150.592 60.764C149.003 62.2188 147.747 63.8453 146.842 65.6233C146.651 65.987 146.982 66.4114 147.375 66.3204C153.096 65.0374 158.857 63.2695 164.679 61.0065C166.288 60.3801 167.555 59.5315 168.47 58.4506C169.837 56.8442 170.732 55.4299 171.164 54.2176C171.999 51.8738 172.713 50.1665 173.296 49.1057C174.643 46.6609 175.749 43.6301 176.584 40.0235C177.197 37.3767 177.771 34.6692 178.313 31.8809C178.374 31.5677 178.253 31.3757 177.941 31.2949L177.962 31.3252ZM135.872 61.5823C131.357 66.2497 127.426 69.7856 127.094 69.4623C126.762 69.139 130.171 65.098 134.695 60.4306C139.21 55.7633 143.141 52.2274 143.473 52.5507C143.805 52.8739 140.396 56.915 135.872 61.5823ZM151.809 49.9038C150.592 52.2981 149.285 54.0762 148.873 53.8741C148.461 53.6619 149.114 51.5505 150.331 49.1562C151.547 46.7619 152.854 44.9839 153.267 45.1859C153.679 45.3981 153.025 47.5095 151.809 49.9038Z" fill="black"/>
<path d="M84.069 9.11008C82.792 8.4029 80.962 9.43336 79.8861 10.1708C76.2664 12.6056 73.9236 15.9192 71.3797 19.3743C70.2133 20.9604 69.1576 22.6071 68.2023 24.3346C61.8778 35.7404 55.8348 47.6109 50.0633 59.936C48.364 63.5729 47.6803 67.3108 48.0222 71.1498C48.1931 73.1602 48.9271 74.6756 51.0286 74.6958C51.662 74.6958 52.1949 74.7463 52.6374 74.8372C53.4015 74.9887 53.5121 75.3423 52.9792 75.9081C51.3906 77.5851 49.9829 79.3429 48.7662 81.1917C47.7205 82.7778 47.4289 84.475 46.7553 86.2632C46.3531 87.3138 45.6291 87.7584 44.5834 87.5967C42.2104 87.233 42.1602 84.3336 43.0349 82.6667C43.1757 82.404 43.3768 82.2828 43.6785 82.2828L45.7095 82.303C46.534 82.303 46.6346 82.0302 46.0313 81.4746C42.502 78.2115 40.6318 74.1907 40.4106 69.402C40.3201 67.3007 41.0843 64.8761 41.406 62.6838C41.4664 62.2696 41.3859 62.2393 41.1647 62.5929C38.6208 66.6845 36.449 71.0589 34.6391 75.6959C34.5989 75.797 34.5486 75.8071 34.4682 75.7464C34.3877 75.6959 34.3375 75.605 34.3274 75.5141C34.2872 75.3524 34.2168 75.3221 34.0861 75.4333C34.0157 75.4838 33.9755 75.5747 33.9654 75.6959C33.7342 77.6457 33.523 79.6157 33.3722 81.616C33.3521 81.8989 33.2214 81.9595 32.9901 81.7777C32.789 81.616 32.6482 81.3938 32.5477 81.0907C32.4572 80.7674 32.2863 80.535 32.0349 80.4037C31.7835 80.2724 31.6427 80.3532 31.6226 80.626C30.9691 87.1219 31.9142 93.1733 34.4481 98.7802C34.7698 99.4975 35.0514 99.4874 35.2927 98.7297C35.8356 97.0224 36.9718 95.7798 38.7113 95.0221C39.2342 94.7897 39.5459 94.9918 39.6464 95.6282C39.6867 95.8909 39.6464 96.1637 39.5358 96.4061C38.4298 98.6287 37.3439 100.922 36.2982 103.296C36.0468 103.862 35.9362 104.428 35.9462 105.034C35.9462 105.296 36.0669 105.498 36.2781 105.65C36.4892 105.791 36.7205 105.832 36.9618 105.751C37.193 105.68 37.4143 105.468 37.6355 105.115C39.1638 102.68 40.6921 100.225 42.1903 97.77C42.3311 97.5477 42.5221 97.4164 42.7735 97.376C43.226 97.3053 43.6785 97.2547 44.1209 97.2446C50.928 97.1032 54.7489 93.1935 58.8513 88.4352C59.163 88.0715 59.3943 87.6876 59.5551 87.2633C59.6356 87.031 59.4144 86.7986 59.1831 86.8895C56.4884 87.9301 53.5624 88.4251 50.4052 88.3948C49.2388 88.3948 48.9372 87.8695 49.5103 86.8491C50.9884 84.2326 52.567 81.717 54.2361 79.2924C54.3869 79.0803 54.588 78.959 54.8494 78.9388C61.6365 78.3832 65.9199 73.6148 69.3385 68.2908C70.0725 67.1593 69.8413 66.9168 68.6649 67.5533C66.3824 68.7959 63.5168 69.7354 60.0478 70.382C59.7964 70.4325 59.706 70.3315 59.7864 70.089C61.5359 64.5831 65.8193 64.765 70.0122 62.4717C70.344 62.2899 70.6557 62.0272 70.9574 61.6736C71.993 60.4714 73.0186 59.2591 74.0342 58.0569C74.366 57.673 74.4967 57.2992 74.4163 56.9557C74.3459 56.6627 74.004 56.5415 73.7728 56.7436C72.3148 58.0064 70.8066 58.6731 69.2581 58.7237C68.2526 58.7641 68.2224 58.5822 69.1475 58.1983C73.3605 56.4203 76.6585 54.2886 78.398 49.7526C79.5242 46.7926 80.7307 43.883 81.9977 41.024C82.5507 39.7915 82.9931 38.5489 83.335 37.2659C83.6869 35.9727 84.0991 34.6897 84.5717 33.437C86.4419 28.5272 90.0114 12.4237 84.069 9.08988V9.11008ZM79.1521 23.9406C80.3989 21.0917 81.4849 18.8085 81.5854 18.8489L81.7664 18.9298C81.8569 18.9702 80.9218 21.3139 79.675 24.173L79.6448 24.2437C79.6247 24.3043 79.5543 24.3245 79.494 24.3043L79.1823 24.1629C79.132 24.1427 79.1018 24.0719 79.122 24.0214L79.1622 23.9507L79.1521 23.9406ZM57.6548 67.9069L55.2919 70.8669C54.9299 71.3215 54.1858 71.1397 54.0853 70.5537L53.1904 65.6843C53.0898 65.0984 53.7032 64.6639 54.2059 64.967L57.4637 66.8764C57.8257 67.0886 57.9162 67.5735 57.6548 67.8968V67.9069ZM62.6822 59.2187L59.9975 63.8759C59.8367 64.1487 59.4646 64.1588 59.2736 63.9164C57.7553 61.8655 55.3321 58.1175 55.5231 55.5414C55.5633 54.9251 55.7845 54.8544 56.1465 55.3595L58.8714 59.0166C59.1228 59.3399 59.4244 59.4106 59.7864 59.2288C60.4199 58.9055 61.0433 58.5519 61.6667 58.1983C63.2754 57.2689 63.6073 57.6023 62.6822 59.2187ZM66.9958 51.0659L64.472 55.5211C64.3513 55.7434 64.0296 55.7232 63.929 55.4908C62.8632 52.9349 61.5862 50.4901 60.0981 48.1362C60.078 48.1059 60.0981 48.0857 60.1082 48.0655L60.2891 47.9341C60.3696 47.8735 60.45 47.8836 60.5103 47.9644C62.0689 49.894 64.3815 50.5204 66.7846 50.682C67.046 50.7022 67.1164 50.8235 66.9857 51.0659H66.9958ZM69.0771 47.9341C68.9162 48.2069 68.5241 48.217 68.3431 47.9442C66.6639 45.3883 65.2864 42.8526 64.2307 40.3471C63.5972 38.8318 63.8486 38.66 64.9848 39.842L68.9665 43.9739C69.2279 44.2467 69.6905 44.2063 69.8815 43.8729C71.1283 41.8322 71.43 40.4987 70.4446 38.064C69.6502 36.0839 68.2727 33.4168 68.3833 31.3054C68.3833 31.0932 68.6749 31.0326 68.7755 31.2144L71.4098 35.7404C71.7215 36.2859 72.4958 36.3263 72.8678 35.8111C74.5168 33.5178 74.8285 31.0427 73.8029 28.3655C73.0287 26.3248 72.3952 24.2538 71.9126 22.1626C71.8925 22.0615 71.9327 21.9908 72.0333 21.9706L72.2846 21.8898C72.2846 21.8898 72.3651 21.8898 72.3852 21.9403L75.2307 27.7695C75.4218 28.1534 75.6731 28.1938 75.9748 27.8705C78.3276 25.3752 77.3523 19.8794 76.6786 16.8486C76.6585 16.7274 76.6987 16.6567 76.8194 16.6264C76.93 16.586 77.0205 16.6264 77.0506 16.7375C77.8349 18.9298 78.2472 21.2028 78.2773 23.5466C78.2773 23.7992 78.3477 24.0214 78.4784 24.2437C78.8304 24.8296 78.8404 25.4762 78.4986 26.1834C76.9602 29.295 75.5625 31.9317 74.3258 35.4373C73.6521 37.3366 72.8678 39.1853 71.9729 40.9937C70.8971 43.1455 70.3541 45.7419 69.0671 47.924L69.0771 47.9341ZM75.3111 48.9747L72.1238 50.4295C71.7216 50.6113 71.6109 50.5002 71.7819 50.0961C72.164 49.197 72.727 48.4292 73.4912 47.8129C73.9638 47.429 74.6174 47.4088 75.1201 47.7422L75.3815 47.924C75.9848 48.3281 75.9547 48.6716 75.3011 48.9747H75.3111ZM82.9227 36.3869L76.1155 40.9937C76.015 41.0543 75.8943 41.0341 75.834 40.9432L75.653 40.6805C75.5927 40.5896 75.6128 40.4583 75.7033 40.3976L82.5105 35.7909C82.611 35.7303 82.7317 35.7505 82.792 35.8414L82.973 36.1041C83.0333 36.195 83.0132 36.3263 82.9227 36.3869ZM83.1942 29.002L78.6092 31.962C78.5187 32.0226 78.398 32.0024 78.3377 31.9014L78.2572 31.7701C78.1969 31.6792 78.2271 31.5579 78.3176 31.4973L82.9026 28.5373C82.9931 28.4767 83.1137 28.4969 83.1741 28.5979L83.2545 28.7292C83.3148 28.8201 83.2847 28.9414 83.1942 29.002Z" fill="black"/>
<path d="M160.154 5.56352C151.507 9.72577 142.287 13.9991 134.715 19.2019C124.64 26.1121 115.852 33.7395 108.352 42.0842C105.104 45.7009 101.896 49.3176 98.729 52.9343C92.0827 60.5415 85.8587 69.0681 79.7051 77.2815C76.4071 81.6862 73.6621 85.6666 71.4501 89.253C68.9866 93.2435 66.4327 97.3552 63.7581 101.588C62.1996 104.063 61.4756 106.033 61.6164 107.478C62.0487 112.075 62.27 116.651 62.3001 121.207C62.3202 124.177 65.2361 125.764 67.5387 126.673C68.0214 126.865 68.4336 126.754 68.7554 126.349C80.8212 111.671 92.9374 97.2946 105.104 83.2015C110.342 77.1299 117.29 69.6338 123.082 62.8045C123.756 62.0064 127.054 58.2988 132.986 51.6513C145.062 38.1139 155.217 23.445 161.039 6.34142C161.371 5.36147 161.079 5.10891 160.144 5.55342L160.154 5.56352ZM67.6393 115.348H67.5789C66.6639 115.368 65.8193 111.812 65.6886 107.407V107.124C65.5479 102.72 66.2014 99.1231 67.1265 99.1029H67.1868C67.2572 99.1029 67.3276 99.1535 67.3376 99.2444L67.78 115.206C67.78 115.287 67.7197 115.348 67.6393 115.358V115.348ZM78.036 94.9912C77.1009 101.78 75.7335 107.195 74.9894 107.094C74.2453 106.993 74.3962 101.396 75.3313 94.6174C76.2664 87.8285 77.6338 82.4135 78.3779 82.5146C79.122 82.6156 78.9711 88.2124 78.036 94.9912ZM86.3213 86.5354C84.8432 94.7184 83.0534 101.245 82.3395 101.113C81.6156 100.982 82.239 94.2436 83.717 86.0505C85.1951 77.8674 86.9849 71.3412 87.6988 71.4725C88.4227 71.6038 87.7993 78.3422 86.3213 86.5354ZM100.076 60.7436C99.0005 70.836 96.5471 80.1405 92.7061 88.6468C92.4145 89.2934 92.0224 89.8086 91.5096 90.1824C91.1979 90.4148 91.0873 90.344 91.1677 89.9601C93.2189 79.2919 95.9941 68.9064 99.5032 58.7938C99.7848 57.9957 99.9758 58.0159 100.066 58.8544C100.147 59.4606 100.147 60.0869 100.086 60.7436H100.076ZM109.387 55.763C107.98 62.3297 106.079 68.866 103.666 75.3519C103.354 76.2106 102.962 76.9481 102.51 77.5744C101.534 78.9181 101.192 78.7665 101.474 77.14C103.123 67.482 106.25 57.9351 109.096 48.57C109.548 47.085 109.84 47.1153 109.99 48.661C110.182 50.6714 109.97 53.0354 109.387 55.7731V55.763ZM114.254 62.4812C113.409 64.7947 112.645 66.502 111.941 67.6234C111.831 67.8053 111.579 67.8255 111.438 67.6739L111.278 67.5123C111.278 67.5123 111.237 67.4315 111.237 67.3911C112.363 60.4708 114.073 53.7021 116.375 47.0749C117.572 43.5996 118.678 40.4072 119.693 37.5179C120.407 35.4771 120.739 35.5479 120.669 37.7098C120.588 40.2455 120.116 43.246 119.241 46.7011C118.034 51.4796 116.375 56.743 114.254 62.4913V62.4812ZM120.025 58.5109C119.352 58.2685 121.363 50.8027 124.52 41.8316C127.677 32.8606 130.794 25.7888 131.478 26.0313C132.151 26.2737 130.14 33.7395 126.983 42.7106C123.826 51.6816 120.709 58.7534 120.025 58.5109ZM130.533 46.4788C130.281 46.9738 129.98 47.3173 129.587 47.5295C129.386 47.6305 129.155 47.4588 129.205 47.2466C130.201 42.9833 131.267 39.306 132.403 36.2146C134.233 31.2139 136.033 26.1727 137.792 21.081C137.822 21.0002 137.883 20.9598 137.973 20.98L138.174 21.0305C138.426 21.081 138.597 21.3235 138.556 21.5861C138.054 25.8696 137.34 29.3853 136.435 32.1534C134.856 36.9521 132.835 41.9024 130.533 46.499V46.4788ZM140.427 32.5272C139.773 34.1032 138.908 35.4266 137.863 36.5076C137.641 36.7299 137.581 36.6894 137.672 36.3965C138.084 35.0225 138.567 33.6385 139.109 32.2645C140.145 29.5773 141.513 25.0412 143.182 18.6766C143.212 18.5453 143.282 18.5049 143.413 18.5251L143.634 18.5655C143.684 18.5655 143.715 18.6059 143.715 18.6665C143.393 23.445 142.307 28.072 140.427 32.5474V32.5272ZM144.439 29.5368C144.408 29.648 144.298 29.7187 144.177 29.6884L143.906 29.6076C143.795 29.5773 143.725 29.456 143.755 29.3449L146.258 20.1415C146.289 20.0304 146.399 19.9596 146.52 19.9899L146.791 20.0708C146.902 20.1011 146.972 20.2223 146.942 20.3334L144.439 29.5368Z" fill="black"/>
<path d="M183.351 123.965C180.827 119.854 172.924 120.187 168.259 121.005C165.292 121.531 162.346 122.137 159.41 122.864C157.761 123.268 156.203 123.289 155.418 125.198C154.343 127.845 153.639 130.3 153.317 132.573C153.277 132.825 153.166 133.038 152.975 133.209C151.909 134.199 150.693 134.684 149.335 134.624C148.923 134.603 148.732 134.129 149.003 133.825C150.431 132.26 151.638 130.562 152.623 128.744C153.347 127.41 154.604 126.38 155.197 124.955C155.429 124.4 154.906 123.834 154.343 124.026C148.511 125.976 142.86 127.734 137.39 129.3C134.434 130.138 131.598 131.219 128.683 132.159C123.886 133.714 124.882 137.018 126.46 140.564C126.581 140.827 126.44 141.14 126.169 141.231L121.936 142.584C121.634 142.685 121.503 142.564 121.523 142.251C121.664 140.271 122.137 138.382 122.951 136.573C123.544 135.27 123.233 134.997 122.016 135.745C119.573 137.25 118.537 139.584 118.909 142.726C119 143.514 118.266 144.14 117.512 143.928L115.852 143.473C115.33 143.332 114.807 143.696 114.756 144.241C114.586 146.312 113.56 147.504 111.68 147.818C110.946 147.929 110.001 148.454 109.387 147.525C109.045 146.989 109.075 146.292 109.488 145.787C110.916 144.049 112.605 142.534 114.565 141.21C115.511 140.574 115.953 139.675 115.883 138.503C115.863 138.24 115.742 138.058 115.511 137.937C112.414 136.311 109.478 136.23 106.723 137.705C101.112 140.715 96.9694 144.827 94.2847 150.03C93.5507 151.434 93.8926 151.778 95.3003 151.071L105.084 146.09C105.466 145.888 105.707 146.009 105.818 146.423C106.039 147.252 106.099 148.07 106.029 148.878C105.958 149.616 105.576 150.111 104.893 150.373C101.172 151.768 97.6531 153.232 94.3451 154.758C94.2546 154.798 94.1741 154.869 94.1239 154.96C93.9228 155.334 93.9931 155.556 94.3551 155.627C95.6421 155.869 97.1102 155.889 98.3268 156.304C101.182 157.253 104.008 157.93 106.823 158.365C109.699 158.799 112.836 158.274 115.822 158.082C116.798 158.011 116.838 157.789 115.943 157.385C115.531 157.193 115.169 156.97 114.867 156.708C114.022 155.95 114.133 155.748 115.209 156.122C116.828 156.688 118.638 156.718 120.619 156.213C123.203 155.556 125.696 155.132 128.089 154.96C128.823 154.91 128.884 154.667 128.28 154.243C125.767 152.475 123.384 150.333 121.131 147.818C120.025 146.585 120.236 145.676 121.795 145.09L123.132 144.595C124.691 144.009 126.038 144.332 127.164 145.565C128.843 147.403 131.337 149.363 133.891 149.697C135.54 149.919 137.199 149.99 138.888 149.929C140.145 149.878 140.226 149.565 139.109 148.969C137.189 147.939 135.299 146.565 133.428 144.847C133.087 144.534 133.107 144.191 133.499 143.807C133.76 143.554 134.142 143.494 134.474 143.645C135.922 144.362 137.4 145.181 138.908 146.08C141.824 147.828 145.354 147.888 148.521 146.666C149.345 146.343 149.345 146.039 148.501 145.746C147.576 145.423 146.55 145.221 145.424 145.161C144.992 145.14 144.569 144.958 144.268 144.645L143.242 143.605C142.95 143.312 143.011 143.201 143.413 143.281C144.971 143.615 146.429 144.039 147.787 144.554C150.11 145.423 151.688 145.211 153.89 144.554C161.27 142.342 167.273 140.079 171.888 137.755C174.704 136.341 177.67 134.381 180.797 131.896C183.15 130.027 185.161 126.895 183.361 123.976L183.351 123.965ZM133.177 138.604C133.177 138.927 132.996 139.21 132.704 139.341L130.311 140.463C129.638 140.786 128.934 140.109 129.205 139.412L130.402 136.402C130.432 136.301 130.492 136.22 130.563 136.139L131.769 134.826C132.282 134.27 133.207 134.634 133.207 135.381L133.187 138.604H133.177ZM140.859 134.523L140.145 137.099C140.075 137.331 139.914 137.533 139.693 137.624L137.571 138.614C136.837 138.958 136.093 138.129 136.505 137.432L139.049 133.139C139.401 132.553 140.286 132.613 140.537 133.26L140.829 133.997C140.899 134.159 140.909 134.341 140.859 134.523ZM146.761 133.634L146.349 134.391C145.374 136.149 143.805 137.139 142.86 136.614L142.749 136.553C142.699 136.523 142.669 136.452 142.699 136.392L146.55 129.471C146.58 129.421 146.651 129.401 146.701 129.431L146.811 129.502C147.757 130.037 147.737 131.886 146.751 133.634H146.761ZM153.267 140.473C151.608 139.634 150.391 138.725 150.532 138.432C150.683 138.139 152.131 138.584 153.79 139.422C155.449 140.261 156.665 141.17 156.525 141.463C156.374 141.756 154.926 141.311 153.267 140.473ZM164.488 138.826L164.297 139.099C164.257 139.15 164.206 139.16 164.156 139.119C162.266 137.907 160.617 137.109 159.219 136.725C157.942 136.371 156.947 135.977 156.263 135.523C155.358 134.927 155.439 134.704 156.514 134.856C159.31 135.26 161.964 136.482 164.468 138.553C164.568 138.634 164.579 138.725 164.498 138.826H164.488ZM163.724 130.754C161.984 132.189 159.802 131.371 157.872 132.007C157.158 132.239 156.444 132.542 155.72 132.906C155.429 133.048 155.097 132.825 155.117 132.502C155.137 132.229 155.268 131.856 155.489 131.643C156.826 130.33 158.204 128.613 159.631 126.501C160.195 125.673 161.039 125.056 162.155 124.652C162.376 124.572 162.427 124.632 162.296 124.834L159.058 129.875C158.696 130.431 158.847 130.734 159.511 130.785C160.657 130.865 162.055 130.077 162.96 129.178C165.373 126.774 167.736 124.713 170.038 122.975C170.571 122.571 171.175 122.44 171.868 122.571C172.301 122.652 172.311 122.743 171.888 122.874C170.4 123.319 169.153 124.289 168.168 125.794C166.911 127.713 165.433 129.37 163.714 130.764L163.724 130.754ZM168.369 134.007C166.811 133.25 165.604 132.522 165.664 132.391C165.735 132.26 167.042 132.775 168.6 133.533C170.159 134.29 171.366 135.018 171.305 135.149C171.235 135.28 169.928 134.765 168.369 134.007ZM178.143 131.401C178.112 131.502 178.002 131.573 177.891 131.542L168.128 128.875C168.027 128.845 167.957 128.734 167.987 128.623L168.208 127.814C168.238 127.713 168.349 127.643 168.46 127.673L178.223 130.34C178.324 130.37 178.394 130.482 178.364 130.593L178.143 131.401Z" fill="black"/>
<path d="M69.3185 134.351C64.834 129.947 60.8925 125.118 54.6283 123.218C42.7635 119.632 29.853 123.905 21.7588 133.2C15.0723 140.868 12.7295 150.182 14.7304 161.143C14.9014 162.103 15.1226 163.012 15.3941 163.881C15.4745 164.124 15.4443 164.346 15.2835 164.548C13.4334 167.033 9.63261 169.953 12.2569 173.499C13.4334 175.095 14.6299 176.631 15.8566 178.126C15.9672 178.247 15.9471 178.429 15.8365 178.54C11.6335 182.702 7.20938 187.198 2.55397 191.986C1.48815 193.088 0.673701 194.371 0.110627 195.835C-0.0301415 196.199 -0.0301415 196.593 0.110627 196.957C0.874799 198.927 3.66 202.028 5.78159 199.735C9.75327 195.452 13.916 191.299 18.2698 187.289C19.2954 186.349 20.1601 185.177 21.0248 184.137C21.4069 183.662 22.1007 183.601 22.5733 183.995C24.182 185.359 26.7963 187.43 28.9179 187.511C31.2406 187.592 33.7442 184.207 34.8704 182.349C35.0413 182.056 35.3028 181.955 35.6346 182.046C42.492 183.904 49.5103 183.288 56.7096 180.177C64.4519 176.833 69.9419 171.468 73.1594 164.053C77.4227 154.233 77.1915 142.06 69.3285 134.351H69.3185ZM55.3623 130.704C55.5332 129.543 56.9208 129.048 57.7855 129.856L66.1612 137.675C66.3422 137.847 66.4729 138.059 66.5534 138.291L66.9254 139.423C67.2874 140.524 66.2718 141.585 65.1557 141.272L55.493 138.564C54.7891 138.362 54.3367 137.675 54.4473 136.948L55.3623 130.704ZM24.2826 137.726C29.4206 130.624 36.4892 126.562 45.4984 125.532C46.6648 125.401 47.9015 125.461 49.1986 125.724C49.6209 125.805 49.8924 125.987 50.0131 126.249C50.1136 126.492 49.9427 126.764 49.6813 126.775C41.6675 127.088 33.6638 129.815 27.5705 135.139C26.4142 136.15 25.3786 137.059 24.4435 137.887C23.9106 138.362 23.8502 138.312 24.2725 137.726H24.2826ZM27.7918 184.106L27.7113 184.187C27.2689 184.632 23.9809 182.066 20.3712 178.439L20.1098 178.176C16.5001 174.549 13.9361 171.256 14.3886 170.801L14.469 170.721C14.469 170.721 14.5796 170.68 14.6299 170.721L27.7918 183.945C27.7918 183.945 27.842 184.066 27.7918 184.106ZM31.0294 178.924C30.768 179.53 30.3356 180.096 29.7525 180.621C29.6821 180.692 29.5715 180.702 29.491 180.641C26.002 178.106 22.1208 174.398 17.8475 169.528C17.2844 168.872 17.1235 167.963 17.4453 167.154C17.576 166.841 17.8274 166.599 18.1994 166.437C18.5714 166.275 19.0038 166.366 19.2753 166.68C23.066 171.064 26.9773 175.095 30.9892 178.772C31.0395 178.813 31.0495 178.873 31.0194 178.934L31.0294 178.924ZM36.5596 171.701C36.5093 171.802 36.4591 171.892 36.3987 171.983C35.6848 173.095 34.2772 173.569 32.97 173.155C28.8475 171.852 25.9115 169.347 24.182 165.629C23.6692 164.528 23.7396 163.255 24.353 162.214L25.0568 161.022C25.7406 159.85 26.3036 159.911 26.7259 161.214C27.4097 163.295 28.3548 164.76 29.5815 165.599C31.3411 166.791 33.332 167.902 35.5843 168.912C36.6501 169.387 37.1026 170.66 36.5697 171.711L36.5596 171.701ZM44.5331 162.578C44.1008 163.891 43.3567 164.871 42.2809 165.508C42.0395 165.649 41.7479 165.72 41.4664 165.689C37.8668 165.316 34.6794 164.225 31.8841 162.426C28.2945 160.113 31.6026 153.768 33.7141 151.465C33.875 151.293 34.1565 151.364 34.2068 151.596C34.5889 153.172 35.0112 154.789 35.4636 156.446C36.449 160.133 42.6529 158.294 44.4929 161.861C44.6035 162.083 44.6236 162.346 44.5432 162.588L44.5331 162.578ZM51.1292 156.769C50.5661 157.234 49.8421 157.446 49.1182 157.375C46.4335 157.092 39.4454 155.941 38.6008 153.031C37.4042 148.909 38.3796 145.565 41.5468 142.989C41.8384 142.757 42.2708 142.918 42.3412 143.282L43.4472 149.081C43.5578 149.677 44.0204 150.152 44.6136 150.273C46.1218 150.596 48.1328 151.081 50.6465 151.748C53.4518 152.485 52.8586 155.334 51.1292 156.769ZM60.068 146.919C60.0479 147.02 60.0177 147.131 59.9875 147.242C59.6859 148.475 58.9117 149.03 57.6548 148.919C55.3824 148.727 52.2453 148 48.2334 146.737C45.9308 146.01 45.8805 143.494 46.1319 141.272C46.4838 138.14 47.8613 135.887 50.2443 134.523C50.5259 134.362 50.8878 134.564 50.8878 134.897C50.8778 137.13 50.8275 141.433 53.6529 142.151C54.8897 142.464 56.4583 142.979 58.3687 143.686C59.897 144.252 60.4702 145.333 60.078 146.939L60.068 146.919ZM72.6064 154.587C71.2792 162.962 67.2974 168.993 60.6713 172.65C60.5707 172.701 60.4903 172.68 60.4299 172.579L60.3193 172.408C60.3193 172.408 60.2992 172.357 60.3294 172.337C63.7179 170.135 66.2417 167.185 67.9007 163.507C70.6155 157.466 71.249 152.344 71.5104 146.04C71.5305 145.454 71.6512 145.444 71.8624 145.979C72.8679 148.505 73.1092 151.374 72.5964 154.597L72.6064 154.587Z" fill="black"/>
</g>
<defs>
<clipPath id="clip0_2266_926">
<rect width="185" height="200" fill="white" transform="translate(0 0.542969)"/>
</clipPath>
</defs>
</svg>
