<svg width="125" height="120" viewBox="0 0 125 120" fill="none" xmlns="http://www.w3.org/2000/svg">
<g clip-path="url(#clip0_2118_1136)">
<path d="M121.8 39.3007C118.611 36.6187 114.642 35.916 109.902 37.2125C104.133 38.7861 91.9353 43.9919 90.3955 50.5139C90.3555 50.6822 90.2455 50.7911 90.0756 50.8207L82.9267 52.4339C82.8167 52.4636 82.7267 52.335 82.7867 52.236C86.5661 46.1593 89.5557 39.7956 91.7653 33.1449C92.0752 32.1948 93.1351 31.2051 94.0449 30.7399C102.184 26.5931 112.952 16.716 108.073 6.73003C105.833 2.12796 100.124 -0.138427 95.3147 0.0001293C85.9762 0.297037 82.5468 7.80879 82.9967 16.1915C83.1967 19.9127 84.4265 24.1288 86.6761 28.8496C87.076 29.6908 87.116 30.5024 86.7961 31.2744C85.2063 35.0946 83.4266 39.2612 81.4569 43.7643C77.5776 52.6517 71.4485 58.9659 64.8396 65.9036C64.4397 66.3292 64.1697 66.2599 64.0197 65.6958C63.9697 65.5177 64.0297 65.1911 64.2097 64.716C69.6288 50.0587 70.3287 33.6595 62.9899 19.4871C61.0202 15.6669 58.1407 13.1333 54.3513 11.8764C49.652 10.3127 45.0728 12.688 43.1631 17.2801C40.9534 22.6146 42.3832 30.156 44.1029 35.728C45.0128 38.6673 47.7523 45.4863 52.3316 56.1948C54.3113 60.8166 55.3811 64.9832 55.5511 68.7144C55.7811 73.93 50.082 78.2946 46.7425 81.4517C46.3326 81.8476 46.1526 81.7585 46.2026 81.1944C46.5125 78.1065 46.8125 74.9989 47.0924 71.8616C47.7023 65.1218 46.4725 58.8471 43.423 53.0377C41.1634 48.7226 35.8442 44.7836 31.035 47.6142C25.176 51.0781 27.9255 63.2018 30.2651 68.1799C33.1147 74.2269 36.8041 79.502 39.0237 84.5791C39.5736 85.836 39.3637 86.9544 38.3938 87.9342L33.9246 92.4273C32.9747 93.3774 32.2348 93.2389 31.7049 92.0117C28.7454 85.262 24.3161 79.5119 18.427 74.7713C16.0374 72.8414 13.1179 71.7824 10.9882 74.4447C9.77841 75.9391 9.46846 77.6315 10.0584 79.5119C12.488 87.3601 17.7971 93.041 25.9658 96.5346C26.4557 96.7424 26.6957 97.2966 26.5057 97.7915C26.4857 97.841 26.3258 97.9894 26.0258 98.217C17.9671 104.531 9.57845 110.489 0.849843 116.091C0.159954 116.526 -0.149997 117.368 0.0799665 118.14C0.569888 119.772 1.66971 120.327 3.36944 119.802C6.149 118.931 8.78857 117.754 11.2782 116.279C18.887 111.766 26.3758 106.342 33.7346 100.018C34.1945 99.6125 34.8844 99.6125 35.3443 100.018C40.2735 104.314 53.9014 115.457 60.5403 108.807C62.09 107.263 62.6 104.818 61.5901 102.859C57.8607 95.5944 50.2619 94.1494 42.7231 93.2092C42.2632 93.1498 42.2132 92.9717 42.5632 92.6847L52.2116 84.5296C52.4516 84.3218 52.8115 84.3218 53.0515 84.5296C57.1708 88.043 61.2402 91.5267 65.2495 94.961C69.0889 98.2467 78.3974 102.107 80.7471 95.1886C83.3866 87.4195 69.9088 81.808 63.9897 80.5214C62.14 80.1156 60.2803 79.7989 58.4206 79.5515C58.1107 79.5119 57.9907 79.1259 58.2307 78.9181L68.1691 70.3473C68.579 69.9911 69.1389 69.8624 69.6588 70.001C73.1483 70.9412 76.1778 72.3366 79.3673 74.5337C84.7264 78.2352 88.5658 81.1548 94.0449 82.7779C99.4841 84.3911 105.033 83.53 104.743 76.7407C104.543 71.9803 100.374 68.7935 96.2646 66.7251C89.6256 63.3898 82.6868 62.4793 75.4379 64.0133C74.868 64.1321 74.768 63.9737 75.158 63.5383C77.2676 61.163 79.2373 59.4805 81.057 58.4908C85.7463 55.9473 93.495 55.6109 99.2541 55.9078C103.363 56.1255 107.343 56.2542 111.202 56.2937C117.291 56.363 123.96 54.2847 124.91 47.3568C125.35 44.0908 124.31 41.3989 121.8 39.2909V39.3007ZM100.644 8.00673C101.054 7.61085 102.014 7.90776 102.784 8.66982C103.553 9.44178 103.853 10.3919 103.453 10.7878C103.043 11.1836 102.084 10.8867 101.314 10.1247C100.544 9.35271 100.244 8.4026 100.644 8.00673ZM24.4161 88.9337C24.0561 89.1911 22.3264 87.5185 20.5467 85.1927C18.767 82.8669 17.6072 80.7589 17.9571 80.4917C18.317 80.2344 20.0468 81.9069 21.8265 84.2327C23.6062 86.5585 24.766 88.6665 24.4161 88.9337ZM52.5516 101.879C52.7715 101.414 53.6314 101.344 54.4713 101.721C55.3111 102.107 55.8111 102.799 55.5811 103.274C55.3611 103.74 54.5013 103.809 53.6714 103.433C52.8315 103.047 52.3316 102.354 52.5616 101.879H52.5516ZM41.6333 65.4484C41.2534 65.5374 40.4035 63.37 39.7436 60.6187C39.0837 57.8673 38.8538 55.5515 39.2337 55.4624C39.6136 55.3733 40.4635 57.5407 41.1234 60.2921C41.7833 63.0434 42.0133 65.3593 41.6333 65.4484ZM65.0996 87.855C65.3995 87.5284 66.6593 88.1816 67.9291 89.3098C69.1889 90.4381 69.9688 91.6257 69.6688 91.9523C69.3689 92.2789 68.1091 91.6257 66.8393 90.4975C65.5795 89.3692 64.7996 88.1816 65.0996 87.855ZM62.43 37.6678C62.0101 37.7568 61.1902 35.7181 60.5903 33.1053C59.9904 30.4925 59.8404 28.3053 60.2603 28.2063C60.6803 28.1172 61.5001 30.156 62.1 32.7688C62.7 35.3816 62.8499 37.5688 62.43 37.6678ZM93.515 72.2574C93.915 71.822 95.2048 72.3366 96.3846 73.4055C97.5644 74.4743 98.1943 75.7016 97.7943 76.1271C97.3944 76.5626 96.1046 76.048 94.9248 74.9791C93.745 73.9102 93.1151 72.683 93.515 72.2574ZM103.853 46.9708C103.673 48.2476 102.864 48.7721 101.414 48.5643C100.984 48.5049 100.874 48.2871 101.094 47.9111C101.464 47.2876 102.044 46.7432 102.824 46.288C103.633 45.8228 103.983 46.0504 103.853 46.9708Z" fill="black"/>
</g>
<defs>
<clipPath id="clip0_2118_1136">
<rect width="125" height="120" fill="white"/>
</clipPath>
</defs>
</svg>
