<svg width="75" height="160" viewBox="0 0 75 160" fill="none" xmlns="http://www.w3.org/2000/svg">
<g clip-path="url(#clip0_2041_510)">
<path d="M30.5787 29.841C30.8856 31.0036 31.2034 31.0147 31.5213 29.8521C32.7378 25.423 33.9106 20.8168 35.0285 16.0445C35.4888 14.0625 36.278 12.2355 37.3849 10.5746C37.5932 10.2645 37.8891 10.0874 38.2617 10.0542C41.747 9.68877 43.4568 13.9517 43.5335 16.7974C43.8075 26.1317 40.388 34.3033 34.9737 41.6888C34.3928 42.4749 34.2284 43.3386 34.4805 44.2908L35.1491 46.7822C35.4121 47.7677 35.7957 47.812 36.2999 46.9372C40.2565 40.0389 43.8185 33.0078 46.9641 25.8659C48.082 23.3414 50.3507 20.2632 53.5182 22.2895C53.836 22.4888 54.0114 22.7767 54.0552 23.1531C55.3157 33.5282 45.6708 47.8895 38.5796 54.5441C37.8781 55.1974 37.5822 56.1829 37.8233 57.113L38.7878 60.9441C39.0399 61.9517 39.4783 62.0403 40.0921 61.2099C45.8571 53.4258 51.1289 45.1324 55.9185 36.3075C57.409 33.5614 59.6559 32.0888 62.1548 34.7794C62.4068 35.0562 62.5493 35.3774 62.5822 35.7538C63.0206 41.8106 58.8886 49.3178 55.6554 54.5995C52.1811 60.2908 47.8299 64.6646 42.6129 67.7206C41.7361 68.2299 41.4182 68.9829 41.6484 69.9794L42.6677 74.3642C42.8979 75.3497 43.3582 75.4936 44.0706 74.7739C49.8685 68.9275 53.7812 64.4652 55.8089 61.387C58.0118 58.032 60.5546 54.4888 63.4371 50.7462C64.8948 48.8306 66.5059 48.1663 68.2486 48.7421C69.6624 49.196 70.331 50.9455 69.8488 52.3075C65.1688 65.5393 56.9487 75.3386 45.1995 81.6832C44.8378 81.8825 44.6296 82.2701 44.6515 82.6798L44.9255 87.1863C44.9693 87.8839 45.8461 88.1607 46.2626 87.6071C47.7203 85.6915 49.2109 84.1857 50.7124 83.1116C55.4691 79.6791 59.9189 75.8258 64.0728 71.5407C66.0894 69.459 68.6651 66.2479 72.1723 66.9898C73.3231 67.2445 74.0903 68.3185 73.9697 69.4922C73.7615 71.4521 73.0162 73.3787 71.712 75.25C65.8264 83.7649 58.1653 91.9476 48.0053 94.9372C47.1394 95.1919 46.5695 96.0223 46.6243 96.9303L46.8983 101.326C46.975 102.577 47.5559 102.887 48.619 102.234C55.0636 98.2701 60.171 94.3171 63.9522 90.3863C64.9057 89.3898 66.7361 87.9836 69.4323 86.1677C70.8571 85.2154 72.6107 84.9165 73.9697 85.8466C74.7808 86.4002 75.1425 87.4189 74.8466 88.3601C73.8273 91.5601 72.6107 92.9663 70.1776 95.9227C64.2481 103.131 57.0912 108.08 48.7177 110.793C48.1587 110.981 47.8957 111.358 47.9066 111.945L48.0272 116.606C48.0381 117.049 48.4875 117.359 48.893 117.193C55.4691 114.602 60.6423 111.292 66.495 107.416C68.2157 106.287 71.164 104.626 73.3121 105.323C74.7479 105.799 75.4165 107.471 74.715 108.822C69.4761 118.821 59.4586 123.339 48.8273 125.199C48.3779 125.276 48.1477 125.542 48.1368 126.007L47.3915 156.778C47.3477 158.561 46.4489 159.59 44.6953 159.867L43.9719 159.978C42.9088 160.144 41.9662 159.303 41.9991 158.217L42.8431 126.528C42.854 126.074 42.6348 125.841 42.1854 125.808C32.5077 125.21 20.7146 122.342 14.292 115.001C14.018 114.702 13.7988 114.392 13.6344 114.071C12.7028 112.31 13.8865 110.162 15.8593 110.018C18.3034 109.852 20.7036 110.284 23.0601 111.314C28.9566 113.894 35.4011 117.238 41.5498 118.323C42.0978 118.411 42.6019 118.002 42.6239 117.437L42.8211 111.989C42.8431 111.59 42.6567 111.391 42.2512 111.38C40.8264 111.369 39.6208 111.757 38.2289 111.48C29.3073 109.686 21.5914 105.633 15.0701 99.3331C13.4919 97.805 13.2946 96.1884 14.6865 94.5607C14.9277 94.2839 15.2345 94.1178 15.6072 94.0625C17.7115 93.7857 19.5967 94.0182 21.2736 94.7379C27.4989 97.4396 33.8996 100.296 40.5853 102.057C41.3415 102.256 41.7251 101.957 41.7142 101.171L41.6813 96.8971C41.6703 96.0998 41.2758 95.7012 40.4866 95.7123C34.6887 95.7787 29.68 94.8043 25.4603 92.7891C20.4406 90.3974 14.1605 86.832 10.5436 82.2701C10.0395 81.6389 9.89698 80.7864 10.171 80.0113C11.0368 77.5974 15.1907 78.4832 16.9334 79.1365C23.8163 81.7054 30.9075 84.1746 38.196 86.5331C38.8317 86.7324 39.4564 86.1677 39.3249 85.5033L38.2946 80.277C38.1412 79.5019 37.4507 78.9594 36.6725 78.9926C26.3371 79.513 17.2074 76.4902 9.30513 69.913C7.72687 68.6064 6.36782 67.1559 5.23893 65.5725C4.35116 64.3213 4.74573 62.5718 6.0719 61.841C7.93512 60.8002 10.1491 60.7559 12.7028 61.7192C19.7063 64.3434 26.9071 67.023 34.3051 69.758C35.6423 70.2562 36.1135 69.8133 35.719 68.4293L34.2832 63.4133C33.9434 62.1953 33.1434 61.4978 31.9049 61.3317C21.9312 59.9697 12.3082 56.0722 5.9075 48.2216C2.83867 44.4459 6.6747 41.3123 10.5217 42.6742C16.9772 44.9774 23.3012 48.0998 29.4936 52.0528C30.0416 52.4071 30.7541 51.9864 30.7102 51.3331C30.4472 46.6272 28.0031 43.1614 23.356 42.0542C13.7001 39.7621 5.30469 30.8265 1.23849 21.9462C0.416484 20.1635 0 18.3254 0 16.432C0 15.0147 1.26041 13.9407 2.64139 14.1621C4.40596 14.4389 5.86366 15.2472 7.01447 16.576C11.2451 21.4147 15.651 26.2756 20.2433 31.1365C21.427 32.3877 22.5888 33.4286 23.7286 34.2812C25.1754 35.3552 25.537 35.0673 24.8246 33.4064C21.6791 26.0652 18.9719 19.023 16.7142 12.2798C15.1907 7.75105 14.6975 4.46247 15.2345 2.39188C15.9579 -0.45379 19.2459 -0.918842 20.5173 1.84932C24.737 11.0507 28.0907 20.385 30.5787 29.841Z" fill="black"/>
</g>
<defs>
<clipPath id="clip0_2041_510">
<rect width="75" height="160" fill="white"/>
</clipPath>
</defs>
</svg>
