<svg width="130" height="126" viewBox="0 0 130 126" fill="none" xmlns="http://www.w3.org/2000/svg">
<g clip-path="url(#clip0_2117_1014)">
<path d="M93.3306 54.8617C98.5844 50.3747 104.17 46.0667 110.086 41.9379C112.991 39.9082 115.204 38.2269 116.714 36.8837C122.962 31.3521 128.362 26.4173 129.006 17.3338C129.357 12.3692 129.688 7.33502 130 2.21126C130.068 1.04722 129.532 0.480119 128.401 0.500018C128.119 0.500018 127.68 0.718897 127.066 1.15666C122.865 4.14137 118.527 6.90721 114.053 9.46412C112.377 10.4292 111.899 11.2748 111.646 13.1353C110.603 20.7762 108.517 29.0538 105.398 37.9682C105.213 38.5154 104.842 38.8536 104.296 38.983L103.975 39.0626C103.731 39.1223 103.517 38.9133 103.565 38.6646C104.608 33.6403 105.778 28.626 107.074 23.6216C108.088 19.6918 108.634 15.6126 109.306 11.5932C109.355 11.2848 109.043 11.0659 108.78 11.2152C103.78 14.2098 98.5454 16.7468 93.0577 18.8461C92.7555 18.9655 92.5703 19.1943 92.5021 19.5226C91.9855 22.2387 91.5858 24.9548 91.3227 27.6709C90.884 32.148 89.5487 39.6695 87.3165 50.2354C87.1898 50.8423 86.8876 51.3298 86.4198 51.6979C86.1371 51.9168 85.9616 51.8471 85.8837 51.4989C85.64 50.4145 85.5912 49.3201 85.7375 48.2257C86.9364 39.0327 88.2523 29.7304 89.6851 20.3285C89.7339 20.0201 89.4317 19.7912 89.149 19.9106L74.7035 26.1984C74.3721 26.3377 74.1381 26.5765 73.9919 26.9048C72.8807 29.5314 72.9002 33.1628 72.5493 35.0133C70.7168 44.5147 68.7479 54.0558 66.6327 63.6169C66.506 64.184 66.1746 64.8008 65.6287 65.4674C65.4045 65.736 65.1316 65.8753 64.8002 65.8753C64.4396 65.8852 64.1569 65.5569 64.2056 65.1888C64.8684 59.6472 65.4045 55.8864 65.8042 53.9165C67.5392 45.5096 68.8843 37.3314 69.8493 29.3722C69.8981 28.9742 69.8981 28.6957 69.8688 28.5365C69.7811 28.0987 69.5472 27.9793 69.1573 28.1783C62.8702 31.3521 57.2265 34.685 52.2359 38.197C51.4074 38.784 50.9493 39.57 50.8518 40.5649C50.1987 47.0616 48.8828 54.2249 48.2688 59.9656C47.567 66.4623 46.9236 73.0287 46.3485 79.6448C46.2998 80.2915 45.8807 80.8387 45.2861 81.0675C45.1691 81.1173 45.0424 81.1571 44.9157 81.2068C44.5453 81.3461 44.1554 81.0675 44.1651 80.6596C44.4088 72.76 45.0911 63.5572 46.2218 53.051C46.6604 48.9818 47.2453 45.042 47.9568 41.2514C48.0348 40.8634 47.8984 40.7639 47.5572 40.943C40.0225 44.833 35.2366 50.6234 33.2092 58.2941C32.4586 61.1296 31.7763 64.0845 31.1622 67.1587C29.4759 75.5756 29.8463 82.9976 29.8756 91.1061C29.8853 92.8472 30.0998 93.7725 28.5792 94.9266C22.1362 99.8314 15.3033 105.672 8.10006 112.437C6.04337 114.377 3.46033 117.521 0.370434 121.869C-0.282637 122.784 -0.0389538 124.077 0.896789 124.684L1.46213 125.052C2.57333 125.779 4.02568 125.609 4.94193 124.644C14.0167 115.103 23.3936 106.756 33.0727 99.6026C33.3554 99.3937 33.6575 99.3738 33.9694 99.5529C40.2955 103.204 46.8749 106.259 53.698 108.716C56.437 109.701 58.7471 110.198 60.6089 110.208C65.7457 110.218 71.7013 107.95 76.2826 105.92C76.5847 105.791 76.6335 105.383 76.3898 105.164C75.1129 104.04 73.4558 103.771 72.3056 103.184C66.545 100.2 60.1897 96.6676 54.4486 94.9962C51.2222 94.051 47.8594 93.4143 44.3698 93.0661C43.9215 93.0263 43.7265 92.4691 44.0384 92.1408C44.75 91.3946 45.7052 90.9668 46.6215 90.4296C55.4623 92.5686 64.1374 96.8268 73.1537 101.383C75.1519 102.398 77.2475 103.304 79.4407 104.119C80.0548 104.348 80.7273 104.328 81.3317 104.07C87.531 101.344 93.4086 97.762 98.9841 93.3248C99.5007 92.9168 99.3057 92.0911 98.6624 91.9816C89.8898 90.34 81.1855 88.3502 72.5493 85.9823C68.2118 84.7984 59.5562 83.0175 54.2634 84.5895C56.2226 83.1668 58.2208 81.7739 60.297 80.4308C63.6013 78.2818 66.9739 76.6103 70.4244 75.4065C71.0093 75.2075 71.1847 75.3966 70.9605 75.9835C70.7071 76.6103 70.2587 77.1376 69.6056 77.5455C67.276 79.0081 64.7222 80.2815 61.9442 81.3759C60.297 82.0226 60.3652 82.3609 62.1295 82.3907C62.958 82.3907 63.9619 82.331 64.9562 82.5599C75.2981 84.9377 85.6595 87.2658 96.0404 89.5342C98.4187 90.0515 102.123 90.748 103.975 88.599C106.772 85.3655 109.287 81.7639 111.539 77.7943C111.821 77.2968 111.451 76.67 110.886 76.6999C105.593 76.9685 100.125 77.1774 94.8707 76.5407C87.1118 75.5955 79.4114 74.7101 71.7598 73.8743C71.5356 73.8445 71.4381 73.5759 71.5844 73.4067L72.4519 72.372C72.6176 72.183 72.8223 72.0736 73.0659 72.0636C75.727 71.9243 77.8519 71.9542 79.4212 72.1532C90.5526 73.5958 100.612 74.143 109.609 73.8147C111.704 73.7351 113.127 72.9789 113.878 71.5363C115.935 67.5467 117.738 63.1691 119.297 58.3936C119.385 58.115 119.161 57.8365 118.878 57.8762C117.104 58.1051 115.486 58.4334 114.014 58.8612C107.377 60.8013 99.7638 61.0798 92.9505 61.5375C90.9328 61.6668 88.34 62.214 86.7317 63.3184C82.9692 65.9151 78.9826 67.9745 74.7815 69.4868C74.0309 69.7554 73.9724 69.646 74.606 69.1585C78.5634 66.134 82.4818 63.3681 86.3515 60.8709C88.1353 59.7168 90.0555 59.09 92.1317 58.9905C100.895 58.5428 110.145 57.4285 119.873 55.6377C120.184 55.588 120.428 55.4288 120.613 55.1602C121.062 54.5234 121.383 53.8071 121.578 53.0211C123.606 44.6838 125.468 36.5156 127.164 28.5066C127.29 27.8898 127.144 27.8102 126.715 28.2579C121.11 34.088 115.408 39.2218 109.609 43.669C105.252 47.0019 100.446 50.6234 95.1924 54.5234C94.7147 54.8816 94.1981 55.1801 93.6523 55.4188C92.3266 56.0058 92.2194 55.8168 93.3209 54.8716L93.3306 54.8617Z" fill="black"/>
</g>
<defs>
<clipPath id="clip0_2117_1014">
<rect width="130" height="125" fill="white" transform="translate(0 0.5)"/>
</clipPath>
</defs>
</svg>
