<svg width="81" height="80" viewBox="0 0 81 80" fill="none" xmlns="http://www.w3.org/2000/svg">
<g clip-path="url(#clip0_2085_83)">
<path d="M52.2869 1.33346C50.172 0.827311 48.1155 0.46717 46.1176 0.243299C36.8971 -0.788457 27.2002 1.48919 19.2754 7.70893C7.75608 16.7514 0.0988148 29.2687 0.516788 45.991C0.951479 63.1609 9.11867 75.4447 24.1072 78.2479C30.5022 79.4354 37.6411 80.0194 45.5325 80C55.3381 79.9805 63.5638 77.148 70.4269 68.6506C76.964 60.5621 80.3162 50.8967 80.4917 39.6544C80.801 18.8538 69.1312 5.33394 52.2869 1.33346ZM64.358 68.0277C59.9776 72.6414 52.6882 74.7146 46.6276 74.8996C37.6997 75.1721 30.2179 74.5978 24.1741 73.167C15.9985 71.2398 10.3224 66.0323 7.14584 57.5349C2.13016 44.1319 5.67457 29.3174 14.3851 18.8538C16.5669 16.2355 19.2587 13.7924 22.452 11.5439C27.15 8.24427 32.2576 6.4241 37.7665 6.10289C45.0309 5.68435 53.5325 6.22943 60.2618 10.0352C70.6693 15.924 75.8355 25.9204 75.7435 40.0438C75.6683 50.6631 70.8365 61.2045 64.358 68.0277Z" fill="black"/>
<path d="M56.3997 16.6541C57.57 17.1116 58.0381 17.9779 57.8041 19.2433C57.7456 19.5645 57.5867 19.7981 57.3443 19.9635C56.4498 20.5378 55.5637 20.8298 54.686 20.8298C50.3976 20.8298 45.5825 20.6254 40.2325 20.2458C34.3307 19.8273 28.5961 20.0317 22.7361 19.6423C22.0841 19.5937 21.5825 18.9221 21.6411 18.1628L21.6745 17.754C21.7581 16.6152 22.2847 15.9825 23.2628 15.856C26.757 15.4082 30.2597 15.0384 33.779 14.7561C39.6808 14.2792 46.0507 15.4569 51.919 15.4958C52.9556 15.5056 54.4519 15.8852 56.3997 16.6541Z" fill="black"/>
<path d="M57.3276 40.6471C43.1834 40.9683 29.0058 40.4427 14.8114 40.3648C13.8668 40.3551 13.3318 39.81 13.198 38.7199C13.1729 38.5544 13.1562 38.3987 13.1311 38.2429C12.989 37.3377 13.5408 36.4714 14.3265 36.3644C15.5972 36.1794 16.8678 36.0626 18.1301 36.0042C25.0601 35.683 31.4551 35.5565 37.3318 35.6149C39.104 35.6343 40.8344 35.9945 42.64 35.9653C48.6672 35.8777 55.8145 35.9653 64.0904 36.2475C65.4196 36.2865 66.5481 36.6953 67.476 37.4642C67.7101 37.6589 67.8271 37.9217 67.8354 38.2624C67.8689 39.3428 67.384 40.0339 66.3725 40.3551C64.7592 40.8515 63.1876 41.0559 61.6411 40.9488C58.8072 40.7444 57.3694 40.6471 57.3276 40.6471Z" fill="black"/>
<path d="M55.6641 61.9443C54.778 62.3239 53.8751 62.7424 52.9472 62.7424C42.6902 62.7619 32.4582 62.5185 22.2513 62.0221C21.4906 61.9832 20.872 61.2727 20.8302 60.3869L20.8051 59.9197C20.7382 58.6154 21.2649 57.934 22.3934 57.8659C28.6045 57.5447 34.7403 57.2527 41.152 57.642C45.2147 57.8854 49.3527 57.9438 53.5658 57.8172C54.8699 57.7783 56.2743 58.3429 56.617 59.8224C56.8177 60.7178 56.408 61.6328 55.6641 61.9443Z" fill="black"/>
</g>
<defs>
<clipPath id="clip0_2085_83">
<rect width="80" height="80" fill="white" transform="translate(0.5)"/>
</clipPath>
</defs>
</svg>
