<svg width="121" height="136" viewBox="0 0 121 136" fill="none" xmlns="http://www.w3.org/2000/svg">
<g clip-path="url(#clip0_2265_922)">
<path d="M102.008 60.9812C99.2988 62.9681 96.3001 64.8358 93.0114 66.5842C92.2817 66.9816 92.0418 66.7829 92.3017 65.9981L95.3905 56.61C95.5904 56.0139 95.3905 55.3483 94.9207 54.9509L88.2134 49.3181C87.2538 48.5034 87.4038 48.1061 88.6633 48.116L96.6599 48.1458C97.5396 48.1458 98.3392 47.659 98.7191 46.8742C99.9086 44.48 100.998 42.0162 101.978 39.473C102.158 39.006 102.358 38.7279 102.587 38.6385C102.987 38.4696 103.267 38.5888 103.437 38.9862L107.146 47.8478C107.226 48.0464 107.375 48.1458 107.595 48.1458L117.071 48.0961C118.341 48.0961 118.491 48.4935 117.511 49.2982L110.504 55.1198C109.954 55.5768 109.734 56.3219 109.964 57.0074L112.973 66.0279C113.093 66.3756 112.713 66.6935 112.393 66.5246C109.185 64.9351 105.966 63.0774 102.747 60.9613C102.488 60.7924 102.248 60.8024 101.998 60.9812H102.008Z" fill="black"/>
<path d="M102.827 92.9407C102.637 92.7817 102.348 92.7817 102.158 92.9407C99.4687 95.1064 96.5499 97.0337 93.4013 98.6928C93.2013 98.802 92.9714 98.7524 92.8215 98.5934C92.6516 98.4047 92.6216 98.1563 92.7215 97.8384C93.6811 94.7786 94.6307 91.828 95.5804 88.9967C95.8203 88.2814 95.5404 87.4966 94.9006 87.0992C92.4117 85.5395 90.1726 83.7215 88.1734 81.6551C87.8136 81.2875 88.0635 80.6815 88.5733 80.6517L97.6295 80.2841C98.0893 80.2742 98.4891 79.996 98.6691 79.5788L102.408 71.0152C102.537 70.7271 102.947 70.7172 103.077 71.0152L106.966 79.5887C107.355 80.4431 108.245 80.9497 109.185 80.8504C112.073 80.5424 114.732 80.4729 117.151 80.6219C118.491 80.7014 118.611 81.1286 117.511 81.8935C115.222 83.483 112.963 85.2216 110.744 87.1091C109.994 87.7549 109.704 88.7881 110.014 89.7219L112.813 98.1265C112.903 98.3947 112.733 98.6828 112.453 98.7325C112.223 98.7722 112.004 98.7325 111.804 98.6331C108.375 96.8946 105.376 94.9971 102.837 92.9307L102.827 92.9407Z" fill="black"/>
<path d="M66.1826 39.463C73.9094 29.9159 83.8853 24.0545 96.0802 21.8789C98.6191 21.4318 101.018 21.2828 103.297 21.4318C108.665 21.7994 113.503 22.9021 117.831 24.7599C118.561 25.0778 119.311 25.2765 120.06 25.3659C120.33 25.4056 120.54 25.1175 120.42 24.8791C119.44 22.8326 117.861 21.1537 116.262 19.5343C107.046 10.2456 93.5712 3.74841 80.6566 1.56281C68.5017 -0.503563 56.7766 0.440215 45.5013 4.38421C42.5025 5.43727 39.6237 6.59961 36.8748 7.89109C34.4558 9.02363 32.1368 10.2952 29.9177 11.7159C15.6237 20.8159 5.298 36.4528 1.9394 52.8646C-4.26802 83.1946 9.29633 114.459 37.8544 128.238C44.8515 131.615 51.5687 133.751 58.026 134.645C67.8719 136.016 78.8574 135.857 88.2035 133.265C100.578 129.827 111.914 122.873 119.97 112.829C120.29 112.432 120.43 112.174 120.38 112.044C120.16 111.349 119.72 111.15 119.051 111.458C111.204 115.005 102.847 117.061 94.4009 115.412C81.5362 112.899 71.5304 106.282 64.3634 95.5631C56.6766 84.0391 54.3076 71.5315 57.2763 58.0504C58.7957 51.1161 61.7645 44.9269 66.1726 39.4828L66.1826 39.463ZM73.9294 3.50004C74.0593 2.94371 74.4592 2.55627 74.819 2.64568C75.1789 2.73509 75.3588 3.25168 75.2289 3.80801C75.0989 4.36435 74.6991 4.75179 74.3392 4.66238C73.9794 4.5829 73.7995 4.05638 73.9294 3.50004ZM63.8136 2.62581C64.4334 2.62581 64.9232 3.1126 64.9232 3.72854C64.9232 4.34448 64.4334 4.83127 63.8136 4.83127C63.1939 4.83127 62.7041 4.34448 62.7041 3.72854C62.7041 3.1126 63.1939 2.62581 63.8136 2.62581ZM53.298 4.43389C54.1277 4.02657 54.9873 4.07624 55.2072 4.5233C55.4271 4.98028 54.9373 5.66577 54.0977 6.07308C53.268 6.48039 52.4084 6.43072 52.1885 5.98367C51.9686 5.52668 52.4584 4.8412 53.298 4.43389ZM42.4525 8.82494C42.4525 8.29841 42.7224 7.9805 43.2422 7.88116C43.792 7.78182 44.3617 7.83149 44.9715 8.02024C45.2014 8.08978 45.2913 8.34808 45.1714 8.54677C44.6216 9.39121 43.9519 9.9078 43.1622 10.1065C42.7924 10.1959 42.4325 9.91773 42.4425 9.55016V8.82494H42.4525ZM34.7157 12.2325C35.3955 12.2325 35.9452 12.7789 35.9452 13.4544C35.9452 14.13 35.3955 14.6764 34.7157 14.6764C34.036 14.6764 33.4863 14.13 33.4863 13.4544C33.4863 12.7789 34.036 12.2325 34.7157 12.2325ZM26.1993 18.6899C26.6491 17.8157 27.3188 17.2494 28.2284 16.9911C29.0181 16.7626 29.268 17.0308 28.9581 17.7859C28.5683 18.7793 28.1485 19.5443 27.6987 20.0907C27.5287 20.2894 27.3188 20.3688 27.0589 20.3092C26.6691 20.2298 26.3792 19.9814 26.1693 19.5542C26.0294 19.2661 26.0394 18.978 26.1893 18.68L26.1993 18.6899ZM20.4817 24.3923C20.7416 24.1439 21.0714 24.0446 21.4513 24.1141C22.121 24.2234 22.3509 24.6009 22.151 25.2268C21.991 25.7136 21.8011 26.1905 21.5712 26.6276C21.4013 26.9455 21.1814 27.174 20.9015 27.3131C20.5317 27.4919 20.2818 27.3925 20.1318 27.0051C19.722 25.8825 19.8419 24.9983 20.4817 24.3824V24.3923ZM14.7241 33.4625C15.3538 32.2406 16.1835 31.4061 16.5833 31.6147C16.9831 31.8134 16.7932 32.9757 16.1635 34.1977C15.5337 35.4196 14.7041 36.2541 14.3042 36.0455C13.9044 35.8468 14.0943 34.6845 14.7241 33.4625ZM6.21762 61.6467C6.71741 61.6666 7.08725 62.6302 7.03727 63.8025C6.99729 64.9748 6.54748 65.9086 6.04769 65.8887C5.54789 65.8689 5.17805 64.9052 5.22803 63.733C5.26801 62.5607 5.71782 61.6268 6.21762 61.6467ZM7.14723 74.5417C7.03727 75.5749 6.63744 76.3796 6.23761 76.3398C5.83777 76.3001 5.60787 75.4358 5.71782 74.4026C5.82778 73.3694 6.22761 72.5647 6.62745 72.6045C7.02728 72.6442 7.25718 73.5085 7.14723 74.5417ZM7.32715 54.0369C6.89733 53.9177 6.77738 53.0236 7.03727 52.0102C7.30716 50.9969 7.87692 50.2816 8.29675 50.3909C8.72657 50.5101 8.84652 51.4042 8.58663 52.4175C8.31674 53.4309 7.74698 54.1462 7.32715 54.0369ZM9.26635 87.0393C8.95648 87.1188 8.44669 86.1452 8.12682 84.8736C7.80695 83.602 7.79696 82.5092 8.10683 82.4297C8.4167 82.3502 8.92649 83.3238 9.24635 84.5954C9.56622 85.867 9.57622 86.9598 9.26635 87.0393ZM9.68617 42.7215C9.78613 41.4995 10.2259 40.5259 10.6758 40.5657C11.1256 40.6054 11.4155 41.6287 11.3155 42.8506C11.2155 44.0726 10.7757 45.0461 10.3259 45.0064C9.87609 44.9667 9.58621 43.9434 9.68617 42.7215ZM12.6649 95.2253C12.2951 95.3942 11.6154 94.669 11.1356 93.616C10.6558 92.5629 10.5758 91.5794 10.9456 91.4105C11.3155 91.2416 11.9952 91.9668 12.475 93.0199C12.9548 94.0729 13.0348 95.0564 12.6649 95.2253ZM17.293 103.55C17.0031 103.719 16.1735 102.815 15.4538 101.544C14.7341 100.272 14.3742 99.0998 14.6641 98.9408C14.954 98.7719 15.7836 99.676 16.5033 100.948C17.223 102.219 17.5829 103.392 17.293 103.55ZM22.5908 108.935C22.3509 109.154 21.4613 108.577 20.6116 107.663C19.762 106.739 19.2522 105.816 19.5021 105.597C19.742 105.378 20.6316 105.955 21.4813 106.869C22.3309 107.792 22.8407 108.716 22.5908 108.935ZM25.6195 113.028C25.3397 113.256 24.6 112.809 23.9602 112.044C23.3205 111.279 23.0306 110.465 23.3105 110.236C23.5904 110.008 24.3301 110.455 24.9698 111.22C25.6095 111.985 25.8994 112.799 25.6195 113.028ZM44.3317 125.367L44.0319 125.843C43.9719 125.933 43.8519 125.963 43.762 125.903L28.8382 116.565C28.7482 116.505 28.7182 116.386 28.7782 116.296L29.0781 115.82C29.1381 115.73 29.258 115.71 29.348 115.76L44.2718 125.098C44.3617 125.158 44.3917 125.277 44.3317 125.367ZM51.8986 113.068L51.8786 113.088C51.7686 113.217 51.5687 113.237 51.4388 113.127L42.9523 106.024C42.8224 105.915 42.8024 105.716 42.9123 105.587L42.9323 105.567C43.0423 105.438 43.2422 105.418 43.3721 105.527L51.8586 112.631C51.9885 112.74 52.0085 112.939 51.8986 113.068ZM55.4071 25.9222C51.6887 29.0715 48.47 32.5585 45.7312 36.3733C39.8836 44.5296 35.7053 54.315 35.0356 64.3092C34.7557 68.4916 34.7857 73.1409 35.1156 78.2473C35.4554 83.3536 36.6849 88.5791 38.804 93.9438C40.0135 96.9937 42.0527 99.9244 43.762 102.855C43.8219 102.954 43.812 103.024 43.712 103.093C43.612 103.163 43.5421 103.143 43.4721 103.054C41.8428 100.918 39.9536 98.5137 37.8844 96.8645C37.1947 96.3181 36.1951 96.3678 35.5654 96.9837L31.9069 100.6C31.0173 101.484 30.5875 101.305 30.6274 100.054L30.6974 98.0765C30.6974 97.8381 30.5575 97.6196 30.3276 97.55L28.2684 96.8844C27.7087 96.6956 27.3888 96.1194 27.5487 95.5532C27.7486 94.828 28.2884 94.4405 29.1581 94.4008C31.1072 94.3213 33.2364 94.0332 35.5554 93.5464C36.0252 93.4371 36.385 93.0596 36.435 92.5728C36.595 91.1423 36.385 89.7415 35.8453 88.3805C34.056 83.9497 33.0564 79.8169 32.8665 75.9822C32.6066 70.9553 32.3967 65.0542 33.2464 60.0671C33.6462 57.7325 34.156 55.4178 34.7857 53.1328C35.6054 50.1425 36.8449 46.9933 38.5142 43.6752C40.9931 38.7278 43.4821 34.6745 46.8107 30.5914C56.2268 19.0277 69.1514 12.6001 84.1252 12.1431C86.5441 12.0636 86.5741 11.7357 84.2351 11.1297C77.5179 9.40114 70.3809 10.1363 63.4138 10.8118C59.8953 11.1496 56.7666 11.8152 54.0077 12.8186C44.8915 16.1069 37.3546 20.5874 31.3771 26.2501C29.0381 28.4754 26.6591 31.2471 24.2301 34.5454C15.1539 46.9039 11.8253 61.9447 14.4442 77.1644C14.7041 78.6744 15.7436 82.2211 17.5629 87.7844C19.2722 93.0099 22.5508 97.699 26.1493 102.557C29.8178 107.524 34.056 112.005 38.844 116.008C38.884 116.048 38.884 116.088 38.854 116.118L38.7341 116.277C38.7341 116.277 38.6541 116.326 38.6041 116.296C27.6987 109.909 19.8819 101.057 15.1739 89.7216C13.1647 84.9034 11.7353 79.658 10.8757 73.9953C9.44627 64.5973 10.9456 55.1893 14.1543 46.1091C15.8936 41.2015 18.3126 36.6813 21.3913 32.5386C32.3167 17.8852 49.1997 7.39437 67.8319 6.38105C70.8907 6.2221 74.0294 6.19229 77.258 6.32144C86.7141 6.68902 95.8303 9.70911 104.627 15.4016C105.336 15.8586 105.986 16.3553 106.596 16.8818C106.816 17.0805 106.646 17.4282 106.356 17.3785C101.668 16.5639 97.2997 15.8387 93.2314 15.183C79.5671 13.0074 65.7828 17.1202 55.4471 25.9024L55.4071 25.9222ZM22.211 84.6451C21.7511 84.5656 21.1414 84.5259 20.3617 84.5358C19.4221 84.5358 19.1222 84.1484 19.4521 83.3635C19.5121 83.2046 19.632 83.0854 19.792 83.0158C21.2514 82.3502 22.5908 81.7343 23.2905 80.2342C23.5504 79.6878 23.8303 79.1712 24.1202 78.7043C24.3401 78.3665 24.8399 78.3665 25.0498 78.7043C26.3592 80.8799 26.899 82.5092 29.9277 83.294C30.0377 83.3238 30.0977 83.4033 30.1277 83.5126C30.1277 83.5821 30.1277 83.6516 30.1077 83.7212C30.1077 83.741 30.0877 83.7609 30.0677 83.7609C27.8386 83.7609 26.2992 84.2875 25.4196 85.3504C24.7499 86.175 24.0702 86.9896 23.3905 87.8142C23.2205 88.0129 23.1106 87.9831 23.0606 87.7347C22.9307 87.1486 22.9207 86.5028 23.0306 85.7677C23.1306 85.1219 22.8607 84.7345 22.211 84.6252V84.6451ZM19.2122 64.2098C18.3426 63.3256 17.5429 62.3521 16.8332 61.3089C16.8132 61.2891 16.8232 61.2593 16.8332 61.2295L16.9831 61.0904C17.1531 60.9314 17.313 60.9314 17.4829 61.0904C18.9823 62.4315 20.6916 63.2859 22.6108 63.6435C24.7499 64.0509 27.0289 62.9183 29.1381 62.3024C29.388 62.2229 29.5579 62.3024 29.6579 62.5607L29.7378 62.7594C29.7378 62.7594 29.7378 62.819 29.7078 62.8388C28.3584 63.6237 27.3988 64.4979 26.839 65.4616C25.7195 67.369 27.9985 68.7896 28.4384 70.5282C28.6283 71.2633 28.4184 71.4123 27.7886 70.9653C25.6195 69.4354 23.8703 68.4518 20.9215 68.8294C19.712 68.9883 18.5425 69.1671 17.4429 69.3857C17.1731 69.4354 17.1231 69.3559 17.273 69.1274C18.3126 67.6571 21.2414 66.2961 19.2022 64.2098H19.2122ZM22.131 47.0032C21.9511 46.1886 21.7911 45.4137 21.6512 44.6686C21.4613 43.6056 21.6812 43.5063 22.3309 44.3805C23.1506 45.4932 25.5596 47.8278 27.1589 48.3345C28.2684 48.6921 29.8178 47.9272 30.9273 48.0563C32.0768 48.1954 32.1068 48.4338 30.9873 48.7617C30.3576 48.9504 29.7578 49.3677 29.198 50.0134C29.0381 50.2022 28.9581 50.4207 28.9581 50.679C28.9581 51.9109 29.0781 53.1229 29.298 54.3051C29.298 54.325 29.298 54.325 29.278 54.3349H29.258C29.258 54.315 29.258 54.2952 29.258 54.2753C29.258 54.2554 29.258 54.2455 29.238 54.2356C27.2389 50.7585 22.9406 51.7817 19.692 52.5467C19.3022 52.646 18.9923 52.2288 19.1922 51.8811C19.8419 50.7486 20.6116 49.775 21.5112 48.9703C22.061 48.4835 22.3109 47.7285 22.151 46.9933L22.131 47.0032ZM27.8386 36.1945L32.3467 34.0387C32.4267 33.999 32.4867 33.9294 32.4967 33.84L32.8365 29.7569C32.8565 29.5185 33.1764 29.439 33.2963 29.6377L35.8953 33.6016C35.9352 33.6513 35.9752 33.691 36.0352 33.7009L39.8636 34.7739C40.1135 34.8434 40.1235 35.1812 39.8836 35.2607L36.8648 36.2342C36.7849 36.264 36.7249 36.3336 36.6949 36.4031L35.4854 40.6452C35.4155 40.8836 35.0756 40.8935 34.9956 40.6452L33.7262 36.9694C33.6862 36.87 33.5962 36.8005 33.4863 36.8005L27.9386 36.6714C27.6687 36.6714 27.5887 36.3038 27.8386 36.1945ZM43.812 21.8987L44.2118 20.3291C44.3117 19.882 44.8415 19.6734 45.2314 19.9218L45.9611 20.3887C46.161 20.5179 46.2709 20.7265 46.2709 20.955V23.5181C46.2609 24.1638 45.4313 24.432 45.0414 23.9254L43.9419 22.465C43.812 22.3061 43.782 22.0974 43.8219 21.8987H43.812ZM56.1468 14.6366C56.9465 13.9213 57.8061 13.5836 58.076 13.8816C58.3359 14.1697 57.9061 14.9943 57.1064 15.7096C56.3067 16.4248 55.4471 16.7626 55.1772 16.4646C54.9173 16.1765 55.3471 15.3519 56.1468 14.6366Z" fill="black"/>
</g>
<defs>
<clipPath id="clip0_2265_922">
<rect width="120" height="135" fill="white" transform="translate(0.460022 0.5)"/>
</clipPath>
</defs>
</svg>
