<svg width="160" height="120" viewBox="0 0 160 120" fill="none" xmlns="http://www.w3.org/2000/svg">
<g clip-path="url(#clip0_2356_2136)">
<path d="M158.715 69.9605C157.84 67.2012 155.549 62.8106 154.552 58.8489C151.498 46.6652 148.5 34.4629 145.566 22.2513C144.402 17.404 142.475 10.9533 139.784 2.88987C139.029 0.606019 137.521 -0.316843 135.267 0.10264C133.507 0.428904 131.123 1.31448 128.125 2.74072C118.142 7.49486 108.262 11.1863 97.6371 15.7913C80.7357 23.1089 63.499 29.5596 46.6069 36.9146C43.534 38.2569 40.2654 39.301 37.0621 40.6433C33.719 42.0509 25.5989 45.7517 12.711 51.7643C8.89305 53.5447 4.8423 55.4837 1.7507 59.1658C-0.56801 61.9344 -0.148966 66.2877 0.540127 69.5503C1.01504 71.7969 2.45841 74.5748 4.85161 77.8934C15.7467 92.9481 31.8752 106.689 49.0746 113.456C56.2077 116.262 63.8063 118.182 71.8706 119.217C85.5779 120.979 100.272 119.758 113.7 115.964C124.344 112.953 135.174 107.425 146.172 99.3988C156.601 91.7922 162.831 82.9644 158.715 69.9605ZM54.8388 50.366C54.6153 50.1423 54.8202 49.583 55.2951 49.1075C55.7607 48.6414 56.3287 48.4457 56.5522 48.6787C56.7757 48.9025 56.5709 49.4618 56.0959 49.9372C55.6303 50.4033 55.0623 50.599 54.8388 50.366ZM55.2858 57.6929C54.336 58.8116 51.98 58.0192 50.7881 57.4413C50.3876 57.2455 50.4063 57.143 50.8532 57.115C51.6075 57.0777 52.3152 57.2641 52.9578 57.6743C53.2092 57.8328 53.4792 57.8701 53.7679 57.7675C54.2056 57.6184 54.6433 57.4972 55.0995 57.3946C55.4534 57.3201 55.5186 57.4226 55.2858 57.6929ZM55.2206 44.6983C55.4068 44.4653 55.5093 44.2042 55.5186 43.9059C55.5279 43.6263 55.6303 43.4212 55.8259 43.2907C56.0959 43.1136 56.217 43.1788 56.2077 43.5051C56.1518 44.6331 55.9749 45.528 55.6769 46.2084C55.1461 47.411 54.8016 47.3644 54.6619 46.05C54.6153 45.6491 54.8016 45.2017 55.2206 44.6983ZM51.7379 45.1551C52.0545 44.1017 52.6132 43.3653 53.4047 42.9644C53.7679 42.7873 53.9169 42.8899 53.8703 43.2907L53.6003 45.5C53.5537 45.8356 53.3675 46.0034 53.0323 46.0127C52.5853 46.022 52.2035 45.9008 51.8869 45.6491C51.7379 45.528 51.682 45.3322 51.7379 45.1551ZM50.7415 46.6186C50.8253 47.2805 50.6018 47.7559 50.7322 48.427C51.1512 50.599 50.8253 52.6312 49.7544 54.5328C49.6241 54.7659 49.4471 54.8032 49.2329 54.6447C47.4916 53.4235 46.7559 51.7363 47.0167 49.5829C47.0539 49.238 47.2308 48.9211 47.5009 48.6974L50.248 46.4228C50.5366 46.1898 50.6949 46.2551 50.7415 46.6186ZM29.4541 49.4804C34.5012 47.1779 39.6043 45.0619 44.7538 43.1322C45.9551 42.6848 46.9608 41.8645 48.1621 41.4077C50.3783 40.5781 50.6111 40.9603 48.8698 42.5543C45.7409 45.4161 43.3012 47.5601 43.4501 52.5566C43.5712 56.854 45.2567 58.6624 48.8977 60.7505C55.4255 64.5072 64.3557 61.72 68.9466 56.2854C72.9973 51.4846 73.1277 44.922 68.4437 40.5501C67.1307 39.3289 65.5384 38.5086 63.6667 38.0984C61.6739 37.651 59.8301 37.623 58.1446 38.0052C55.8631 38.5273 55.77 38.2662 57.8559 37.2129C59.1503 36.5603 61.3479 36.3832 62.8844 35.7027C73.0998 31.1816 82.1045 27.4063 89.8988 24.3767C97.6371 21.3657 104.528 18.4573 110.572 15.6515C112.127 14.9337 114.185 14.3278 116.764 13.8523C117.062 13.7964 117.267 13.9176 117.369 14.2066L117.751 15.2599C117.863 15.5676 118.068 15.7913 118.366 15.9125C118.692 16.0523 119.036 16.0896 119.399 16.0243C119.725 15.9591 119.912 15.7633 119.949 15.4277C120.014 14.8032 119.697 14.3278 119.008 13.9829C118.729 13.843 118.589 13.6193 118.58 13.3117C118.58 12.7431 118.906 12.3236 119.576 12.0719C124.782 10.0956 129.81 7.84909 134.671 5.34151C134.969 5.18304 135.342 5.34151 135.444 5.66778C138.592 15.6701 141.367 25.7097 143.76 35.7773C145.892 44.7356 148.397 53.7871 150.409 62.8479C150.567 63.575 150.288 64.0225 149.561 64.1809L149.17 64.2648C148.742 64.3581 148.332 64.0784 148.257 63.6496C147.075 56.4345 145.25 49.1075 142.791 41.6594C142.698 41.3891 142.54 41.3424 142.316 41.5102L142.084 41.6874C141.981 41.7619 141.916 41.8831 141.907 42.0229C141.786 48.1567 141.897 51.9787 142.242 53.4981C143.127 57.376 143.993 61.3378 144.84 65.3928C144.905 65.7004 144.84 65.9707 144.635 66.2131C143.955 67.0241 143.22 67.7419 142.447 68.3664C134.746 74.4909 126.309 79.3476 117.137 82.9458C114.362 84.0365 109.557 85.4347 102.721 87.1313C100.747 87.6254 98.5217 87.5788 96.8269 87.8584C93.9029 88.3338 91.2769 88.6042 88.9396 88.6508C86.9934 88.688 84.3674 88.5389 81.0616 88.194C65.8829 86.6373 52.8926 79.6272 42.1558 68.9537C40.014 66.8283 37.9281 64.3767 35.8887 61.5895C33.421 58.2336 30.5436 54.6261 28.9513 50.7482C28.7091 50.1609 28.8768 49.7414 29.4541 49.4804ZM59.0386 42.8619C59.0013 42.3678 59.3179 41.939 59.737 41.9018C60.156 41.8738 60.5378 42.2467 60.575 42.7407C60.6123 43.2348 60.2957 43.6636 59.8766 43.7009C59.4576 43.7288 59.0758 43.356 59.0386 42.8619ZM152.448 86.0034C151.172 88.166 148.732 90.6736 145.129 93.5168C127.017 107.788 106.325 114.882 83.0451 114.789C78.6032 114.771 74.748 114.463 71.4702 113.857C64.7748 112.617 60.5005 111.685 58.6661 111.06C55.5093 109.988 52.5015 108.963 49.652 107.984C48.9908 107.761 48.8698 107.369 49.2795 106.8L50.099 105.663C50.4528 105.178 51.1047 105.039 51.6168 105.337C51.9241 105.514 52.2407 105.607 52.576 105.617C53.0788 105.635 53.2558 105.402 53.1068 104.927C52.8926 104.237 52.4922 103.706 51.9055 103.323C51.6355 103.146 51.3468 103.09 51.0302 103.156C49.4564 103.482 48.609 104.414 48.5066 105.952C48.4321 106.922 47.3426 107.453 46.5324 106.912C45.7502 106.381 45.2474 105.84 44.3162 105.486C42.2861 104.712 40.908 103.323 38.9059 102.447C36.5406 101.412 35.0413 99.5387 33.0486 98.2057C31.3631 97.0777 30.4505 96.4531 30.3108 96.3413C26.586 93.3676 23.0381 90.1982 19.6578 86.8423C12.5061 79.7298 7.33794 73.7638 4.8423 64.8148C4.51638 63.6123 4.96336 62.3445 5.96906 61.6174C11.4073 57.6743 17.6371 54.8778 23.4758 51.4193C23.7924 51.2329 24.1928 51.3355 24.3697 51.6431C31.8566 64.5445 40.6938 75.218 53.5072 83.1229C58.8616 86.4228 64.9331 88.8092 71.7216 90.2914C76.1076 91.2516 80.2142 91.8761 84.0415 92.1837C88.6696 92.5473 93.9681 91.7456 98.9594 91.5312C99.9744 91.4939 100.254 91.2049 100.943 90.5804C101.166 90.3753 101.427 90.3101 101.725 90.3846C102.498 90.5804 103.271 90.6084 104.062 90.4778C109.696 89.5736 115.144 87.9889 120.386 85.7237C130.22 81.4823 139.607 75.8705 148.546 68.9071C149.394 68.2546 150.437 67.8258 151.684 67.63C152.001 67.5834 152.234 67.6953 152.392 67.9656C155.921 74.0807 155.94 80.0933 152.448 86.0034Z" fill="#010101"/>
<path d="M125.694 12.2863L129.326 11.0186C130.118 10.7389 130.993 11.1398 131.3 11.9321L131.719 13.0228C132.036 13.8431 131.617 14.7566 130.797 15.0642L128.739 15.81C128.423 15.9219 128.087 15.9405 127.762 15.8473L125.778 15.2693C124.316 14.8405 124.26 12.7897 125.694 12.2863Z" fill="#010101"/>
<path d="M108.821 18.0844L110.199 17.0404C110.432 16.8633 110.758 16.8819 110.981 17.0684L112.015 17.9539C112.332 18.2149 112.304 18.709 111.978 18.942L111.102 19.5573C110.944 19.6691 110.739 19.7064 110.562 19.6505L109.016 19.1844C108.523 19.0353 108.411 18.3921 108.821 18.0844Z" fill="#010101"/>
<path d="M137.726 23.1646C139.318 25.1408 139.011 28.0306 137.036 29.6153L135.612 30.7619C133.638 32.3559 130.76 32.0483 129.168 30.0721L128.479 29.2144C126.886 27.2382 127.194 24.3485 129.168 22.7637L130.592 21.6172C132.567 20.0231 135.444 20.3307 137.036 22.307L137.726 23.1646Z" fill="#010101"/>
<path d="M138.545 33.8384C138.675 34.2206 138.145 34.752 137.362 35.0316C136.571 35.302 135.826 35.2088 135.695 34.8359C135.565 34.4537 136.096 33.9223 136.878 33.6427C137.67 33.3724 138.415 33.4656 138.545 33.8384Z" fill="#010101"/>
<path d="M86.4813 36.7935C86.4999 37.0825 86.2857 37.3435 85.997 37.3621H85.876C84.5723 37.474 83.4548 36.7655 83.371 35.7961V35.5723C83.2779 34.5935 84.2743 33.7173 85.578 33.6148H85.699C85.9877 33.5868 86.2485 33.8012 86.2671 34.0995L86.4813 36.7935Z" fill="#010101"/>
<path d="M121.69 43.822C121.811 43.822 121.96 43.9339 122.128 44.1483C122.342 44.4466 122.277 44.6516 121.932 44.7542C121.737 44.8194 121.56 44.7915 121.401 44.6796C120.61 44.1017 120.703 43.8127 121.69 43.822Z" fill="#010101"/>
<path d="M88.4367 47.9047C88.297 49.8623 86.1832 51.3072 83.7061 51.13C81.2291 50.9529 79.3295 49.2284 79.4691 47.2708C79.6088 45.3132 81.7227 43.8683 84.1997 44.0455C86.6767 44.2226 88.5764 45.9471 88.4367 47.9047Z" fill="#010101"/>
<path d="M34.1101 49.9462C39.0641 47.1776 40.6751 51.2886 38.226 55.1198C38.0397 55.4181 37.7697 55.5393 37.4251 55.4834C35.6931 55.2131 34.3522 54.141 33.4023 52.2487C32.9833 51.4097 33.2999 50.403 34.1101 49.9462Z" fill="#010101"/>
<path d="M98.5403 54.8405C98.5123 55.1948 98.0002 55.4464 97.4042 55.3998C96.8082 55.3532 96.3426 55.027 96.3613 54.6821C96.3892 54.3278 96.9014 54.0761 97.4973 54.1227C98.0933 54.1694 98.5589 54.4956 98.5403 54.8405Z" fill="#010101"/>
<path d="M133.768 58.4664C133.703 58.2147 133.852 57.9444 134.113 57.8698L134.383 57.7953C135.37 57.5249 136.338 57.9071 136.543 58.6529L136.72 59.2961C136.925 60.0418 136.292 60.8715 135.304 61.1418L135.034 61.2164C134.774 61.2909 134.504 61.1325 134.438 60.8808L133.768 58.4664Z" fill="#010101"/>
<path d="M24.0717 77.1196C24.2393 76.784 24.5187 76.5416 24.9191 76.3925C25.0309 76.3458 25.1519 76.3645 25.2544 76.4391L25.7479 76.8213C25.9807 76.9984 25.9621 77.1569 25.7013 77.278C24.9098 77.6416 24.109 77.856 23.2988 77.9212C22.9822 77.9492 22.6935 77.8746 22.4328 77.6975C17.6464 74.5467 13.9402 66.9308 12.0312 62.2885C11.6774 61.4402 11.9008 60.7784 12.6924 60.3123L13.0742 60.0886C13.8564 59.6318 14.3313 59.8555 14.4896 60.7411C15.7002 67.1825 19.1829 71.8527 22.8332 77.2035C23.1498 77.6602 23.8296 77.6136 24.0717 77.1196Z" fill="#010101"/>
<path d="M8.04566 63.631C8.05498 63.37 8.11085 63.1556 8.22259 62.9785C8.39021 62.7175 8.772 62.7175 8.93031 62.9785C11.7984 67.7792 14.6945 72.6359 17.6092 77.5392C20.4121 82.2467 24.0531 86.4975 28.5322 90.2821C28.8581 90.5525 28.9047 91.0279 28.6533 91.3635L28.4484 91.6245C28.2901 91.8296 27.9921 91.8575 27.8059 91.6804C24.2673 88.3525 20.766 84.9687 17.3112 81.5383C13.0183 77.2782 7.77561 69.9419 8.04566 63.631Z" fill="#010101"/>
<path d="M46.4579 63.407C46.5976 63.668 45.9178 64.3392 44.9214 64.9078C43.925 65.4858 42.9938 65.7375 42.8541 65.4671C42.7144 65.2061 43.3942 64.535 44.3906 63.9663C45.387 63.3884 46.3182 63.1367 46.4579 63.407Z" fill="#010101"/>
<path d="M57.8 72.123C57.7069 72.5984 57.1109 72.8874 56.4684 72.7569C55.8258 72.6357 55.3789 72.1417 55.472 71.6663C55.5651 71.1908 56.1611 70.9019 56.8036 71.0324C57.4461 71.1536 57.8931 71.6476 57.8 72.123Z" fill="#010101"/>
<path d="M23.0939 74.1926L22.8797 74.407C22.6656 74.6215 22.4514 74.6121 22.2558 74.3791C22.1627 74.2765 22.1068 74.146 22.0882 73.9876C22.0417 73.6706 22.1813 73.5215 22.4979 73.5494C23.0753 73.5867 23.634 73.5122 24.1741 73.3164C24.5 73.1952 24.7608 73.1579 24.947 73.2232C25.1053 73.2791 25.2357 73.363 25.3381 73.4842C25.6268 73.8291 25.543 74.0062 25.0867 73.9969L23.662 73.9689C23.4478 73.9689 23.2522 74.0342 23.0939 74.1926Z" fill="#010101"/>
<path d="M95.9889 78.3781C95.8585 78.3222 95.7374 78.229 95.6629 78.0985C95.5326 77.8747 95.514 77.651 95.6164 77.4366C95.7654 77.1197 95.9982 77.0358 96.3148 77.1943C96.7338 77.4087 97.0504 77.7163 97.2646 78.1264C97.4415 78.462 97.3484 78.6205 96.9666 78.6112C96.678 78.6112 96.352 78.5366 95.9889 78.3781Z" fill="#010101"/>
<path d="M67.5125 80.1398C67.1494 79.9254 67.1587 79.7296 67.5498 79.5618C68.062 79.3381 68.4438 79.5339 68.7138 80.1398C68.8721 80.5033 68.7604 80.6338 68.3786 80.5313C68.1365 80.4661 67.8478 80.3355 67.5125 80.1398Z" fill="#010101"/>
<path d="M36.0749 86.5813C35.9259 86.516 35.7863 86.4321 35.6652 86.3109C35.3113 85.9567 35.4045 85.3508 35.8608 85.1364C36.5126 84.8194 37.1551 84.9872 37.779 85.6398C38.0584 85.9287 38.0863 86.3855 37.8442 86.7118C37.5928 87.038 37.1551 87.1312 36.792 86.9448C36.5126 86.7957 36.4288 86.7211 36.0749 86.5813Z" fill="#010101"/>
<path d="M45.6943 92.0161C46.5789 92.6686 48.013 92.8737 49.0373 93.9457C49.2422 94.1601 49.4936 94.2906 49.8009 94.3279C50.6669 94.4305 51.3467 94.8313 51.8496 95.5491C52.0451 95.838 51.9893 95.9033 51.6727 95.7542C49.8382 94.9245 48.0968 93.9364 46.4672 92.7898C46.2251 92.6127 45.9737 92.594 45.7036 92.7339C45.2473 92.9669 44.7817 93.144 44.2882 93.2466C43.9809 93.3118 43.776 93.1906 43.6829 92.883C43.4873 92.2305 43.4873 91.5966 43.6643 90.9907C43.7574 90.6737 43.9343 90.6178 44.1857 90.8322C44.6793 91.2517 45.1821 91.6432 45.6943 92.0161Z" fill="#010101"/>
<path d="M32.0428 94.4861C31.9776 94.4302 31.9869 94.3276 32.0428 94.2624L32.108 94.2064C32.8064 93.5259 34.1194 93.7404 35.032 94.6819L35.3299 94.9988C36.2332 95.9403 36.4101 97.2547 35.7024 97.9352L35.6465 97.9911C35.5814 98.0564 35.4789 98.0564 35.4231 97.9911L32.0428 94.4861Z" fill="#010101"/>
<path d="M53.9914 96.7885C54.5129 96.8724 54.9599 97.0774 55.3324 97.413C55.5931 97.6461 55.5559 97.8139 55.2113 97.8978C54.0846 98.1867 53.3303 97.8232 52.9485 96.7978C52.7809 96.341 52.9112 96.2385 53.3303 96.4808L53.6283 96.658C53.74 96.7232 53.8611 96.7698 53.9914 96.7885Z" fill="#010101"/>
<path d="M103.709 99.8835C103.82 99.725 103.951 99.5852 104.1 99.464C104.211 99.3708 104.36 99.3055 104.537 99.2775C105.366 99.1377 106.186 98.9792 107.014 98.8021C107.312 98.7369 107.545 98.5784 107.722 98.336C107.899 98.0937 108.122 97.9165 108.392 97.814C108.774 97.6742 108.951 97.8047 108.923 98.2055C108.877 98.9792 108.56 99.436 107.973 99.5758C104.724 100.312 101.678 101.422 98.3541 101.729C95.7932 101.962 93.2511 102.27 90.7089 102.652C90.5412 102.68 90.4202 102.605 90.355 102.447L90.1688 102C90.0663 101.748 90.1594 101.608 90.4295 101.58C92.5061 101.394 94.564 101.207 96.6034 101.03C96.9945 100.993 97.2925 100.89 97.5067 100.713C97.6463 100.601 97.7674 100.471 97.8698 100.331C98.0281 100.107 98.233 100.061 98.4844 100.182C98.8104 100.359 99.1549 100.359 99.5088 100.182C99.7788 100.061 100.067 100.033 100.365 100.107C101.241 100.35 102.116 100.415 102.991 100.303C103.289 100.266 103.532 100.126 103.709 99.8741V99.8835Z" fill="#010101"/>
<path d="M58.7219 99.5666C58.5356 99.8928 58.0514 99.9581 57.651 99.7157C57.2506 99.4734 57.0829 99.0166 57.2785 98.6996C57.4647 98.3734 57.949 98.3081 58.3494 98.5505C58.7498 98.7929 58.9174 99.2496 58.7219 99.5666Z" fill="#010101"/>
<path d="M43.7481 102.652L41.4481 101.878C41.4481 101.878 41.2618 101.785 41.0849 101.683C40.0978 101.095 39.595 100.35 39.567 99.4455C39.567 99.1006 39.9023 98.8582 40.2282 98.9794C41.5412 99.4828 42.7331 100.238 43.804 101.245C44.847 102.205 46.2438 101.608 46.877 102.978C47.0446 103.342 46.9422 103.603 46.5604 103.743C45.6012 104.106 44.9308 103.957 44.5303 103.286C44.3534 102.978 44.0927 102.773 43.7481 102.652Z" fill="#010101"/>
<path d="M63.0799 100.247C63.7131 99.8462 64.2626 99.7623 64.7188 100.005C65.0448 100.172 65.2031 100.452 65.2124 100.853C65.2124 101.067 65.1658 101.272 65.0727 101.45C64.933 101.748 64.6909 101.878 64.365 101.85C63.797 101.785 63.3686 101.664 63.0799 101.487C62.4374 101.067 62.4374 100.657 63.0799 100.247Z" fill="#010101"/>
<path d="M66.9538 101.869C67.0376 100.834 67.2704 100.275 67.6522 100.191C68.9652 99.9207 69.943 101.375 69.2073 102.494C68.8348 103.062 68.2109 103.099 67.3356 102.605C67.0748 102.456 66.9258 102.167 66.9538 101.869Z" fill="#010101"/>
<path d="M74.6549 101.981L74.4407 103.258C74.3942 103.594 74.1986 103.761 73.8541 103.761C73.3047 103.761 72.8018 103.65 72.3269 103.417C72.0289 103.258 71.973 103.053 72.1686 102.783C72.5876 102.186 73.1929 101.739 73.9937 101.431C74.3476 101.301 74.7201 101.599 74.6549 101.981Z" fill="#010101"/>
<path d="M81.2758 104.516L86.7047 104.563C87.0493 104.563 87.2542 104.74 87.31 105.085L87.3659 105.439C87.4125 105.747 87.2821 105.905 86.9748 105.896C84.6654 105.868 82.3746 105.616 80.1118 105.122C79.8045 105.057 79.6462 104.861 79.6462 104.544C79.6369 102.652 80.5308 101.738 82.3467 101.804C83.1662 101.832 83.2313 102.074 82.5422 102.521L80.9871 103.547C80.0187 104.181 80.1118 104.507 81.2758 104.516Z" fill="#010101"/>
<path d="M76.9177 102.68L76.9735 102.27C77.0015 102.112 77.1132 101.972 77.2622 101.916C77.5602 101.795 77.7744 101.823 77.9048 101.99C77.9979 102.102 78.0444 102.233 78.0444 102.391C78.0444 102.951 77.9792 103.501 77.8489 104.032C77.7744 104.349 77.5788 104.526 77.2622 104.554C76.8711 104.6 76.4893 104.554 76.1261 104.461C75.7909 104.367 75.735 104.19 75.9678 103.929C76.1075 103.771 76.2565 103.64 76.4148 103.519C76.6942 103.305 76.8618 103.025 76.9177 102.68Z" fill="#010101"/>
<path d="M58.6008 108.404L58.4425 108.711C58.3028 108.982 58.1073 109.028 57.8652 108.842L54.0379 105.85C53.8144 105.672 53.8424 105.57 54.1217 105.542C54.6618 105.477 55.146 105.598 55.5744 105.915C55.8165 106.101 56.0866 106.213 56.3939 106.26C57.232 106.39 58.07 106.474 58.9174 106.521C59.6903 106.558 60.0535 107.043 60.0256 107.984C60.0256 108.404 59.8207 108.525 59.4389 108.348L59.1595 108.208C58.9081 108.087 58.7219 108.152 58.6008 108.404Z" fill="#010101"/>
<path d="M62.2233 108.87L61.8787 108.954C61.5994 109.028 61.4038 108.935 61.3014 108.665C61.2176 108.441 61.1896 108.208 61.2269 107.975C61.2734 107.649 61.4597 107.444 61.7763 107.341C62.2978 107.183 62.8286 107.145 63.378 107.229C63.6946 107.285 63.8808 107.471 63.9274 107.788L64.0298 108.413C64.095 108.805 64.2999 108.888 64.6258 108.665C65.7246 107.919 66.8421 107.891 67.9781 108.581C68.2668 108.758 68.4624 109 68.5648 109.308L69.049 110.706C69.1887 111.098 69.049 111.247 68.6486 111.163C68.1364 111.06 67.7453 110.771 67.4753 110.287C67.2052 109.802 66.5813 109.634 66.1064 109.923C64.691 110.79 63.648 110.557 62.9869 109.215C62.8286 108.888 62.5678 108.777 62.2233 108.87Z" fill="#010101"/>
<path d="M73.1556 110.575C73.1743 110.809 73.1929 111.051 73.2208 111.293C73.2488 111.62 73.1091 111.741 72.7925 111.675L70.3341 111.181C69.9802 111.116 69.9243 110.948 70.1665 110.678C70.6414 110.147 70.7252 109.569 70.4179 108.935C70.241 108.562 70.5855 108.161 70.9766 108.273C72.9321 108.823 74.8225 109.41 76.6384 110.044C77.821 110.464 78.9943 110.585 80.149 110.389C82.0673 110.063 84.0228 110.007 86.0156 110.212C86.2857 110.24 86.4998 110.436 86.565 110.697C86.6395 111.032 86.6581 111.359 86.6302 111.685C86.6023 112.058 86.3974 112.235 86.0249 112.225L74.7852 111.974C74.5152 111.974 74.3383 111.834 74.2545 111.582C74.0962 111.088 73.8447 110.687 73.5095 110.398C73.2394 110.165 73.1184 110.221 73.1556 110.575Z" fill="#010101"/>
<path d="M116.913 30.3334C115.367 24.4793 108.467 21.2259 101.502 23.0717C94.5361 24.9174 90.1408 31.1537 91.6866 37.0078C93.2324 42.8619 100.133 46.1152 107.098 44.2695C114.063 42.4238 118.459 36.1875 116.913 30.3334ZM99.099 38.2942L97.3949 38.4713C97.0597 38.4993 96.7803 38.3968 96.5568 38.1451C94.117 35.3578 93.7446 31.135 97.2273 28.8978C99.248 27.5928 99.4435 27.8258 97.7953 29.5876C97.0597 30.38 96.6499 31.2096 96.5847 32.0766C96.5382 32.6452 96.7896 33.4375 97.339 34.4723C97.8698 35.4883 98.4751 36.7188 99.1735 38.173C99.1921 38.229 99.1549 38.2942 99.099 38.2942ZM100.812 29.9978C100.207 30.669 99.5646 31.0605 99.3597 30.8927C99.1642 30.7156 99.4901 30.0257 100.086 29.3546C100.691 28.6834 101.334 28.2919 101.539 28.4597C101.734 28.6368 101.408 29.3266 100.812 29.9978ZM104.928 31.9181C104.807 32.3562 104.481 32.6545 104.202 32.5799C103.923 32.5054 103.783 32.0859 103.904 31.6384C104.025 31.2003 104.351 30.902 104.63 30.9766C104.91 31.0512 105.049 31.4706 104.928 31.9181ZM106.8 28.5436C106.083 29.5037 105.832 29.4012 106.055 28.2173C106.111 27.9283 106.353 27.5182 106.791 26.9962C107.024 26.7165 107.163 26.7538 107.228 27.108C107.303 27.5834 107.163 28.0682 106.8 28.5436Z" fill="#010101"/>
<path d="M136.347 41.6593C134.494 39.2822 132.045 38.4805 128.981 39.2542C126.626 39.8508 125.983 43.6262 126.141 45.5931C126.234 46.6651 126.961 47.5786 127.985 47.8956C131.468 48.9862 134.224 47.9515 136.254 44.7728C136.534 44.3346 136.692 43.8313 136.72 43.2626C136.766 42.5635 136.636 42.0321 136.347 41.6593ZM132.297 42.5262C132.231 43.3838 131.71 44.0363 131.133 43.9897C130.546 43.9431 130.127 43.216 130.201 42.3677C130.267 41.5101 130.788 40.8576 131.365 40.9042C131.952 40.9508 132.371 41.6779 132.297 42.5262Z" fill="#010101"/>
<path d="M93.6515 63.174C90.5692 57.4411 82.6633 55.6979 75.9958 59.2868C69.3284 62.8851 66.423 70.4451 69.5146 76.1873C72.5969 81.9203 80.5029 83.6634 87.1703 80.0745C93.8378 76.4763 96.7431 68.9163 93.6515 63.174ZM74.4407 69.6154C74.0776 71.2747 74.7387 72.5145 75.2974 73.9967C75.4744 74.4721 75.1764 74.9848 74.6828 75.0687C74.3197 75.134 73.9379 74.9382 73.5188 74.4814C69.3284 69.9044 72.7273 66.735 76.5266 64.1528C76.8432 63.9384 77.0109 64.013 77.0202 64.3952C77.0202 64.4884 77.0109 64.5816 76.9829 64.6842C76.9084 64.9359 76.7501 65.1037 76.4987 65.1876C74.9901 65.7376 74.7387 68.2451 74.4407 69.6154ZM77.8769 67.0053C77.8583 67.3502 77.7558 67.6019 77.5603 67.7511C77.2716 67.9748 76.8526 67.835 76.7687 67.4807C76.6291 66.8935 76.7687 66.4647 77.1692 66.1943C77.4858 65.9799 77.9048 66.2036 77.9048 66.5858C77.8955 66.6604 77.8862 66.8002 77.8769 67.0053ZM80.0745 63.3232C80.0838 63.23 80.1025 63.1274 80.1304 63.0156C80.1583 62.8851 80.1677 62.7546 80.149 62.6147C80.0838 62.1953 80.2328 61.9156 80.596 61.7571C80.9406 61.6173 81.043 61.7198 80.9219 62.0648C80.7729 62.4936 80.6053 62.913 80.4191 63.3232C80.1677 63.8639 80.0559 63.8639 80.0745 63.3232ZM81.8345 67.0146C81.7973 67.1451 81.7414 67.2663 81.6669 67.3875C81.6017 67.4901 81.5552 67.5926 81.5272 67.7045C81.462 67.9375 81.3596 68.1426 81.2106 68.3197C80.9778 68.6087 80.8288 68.5621 80.7822 68.1985C80.745 67.8816 80.7357 67.574 80.745 67.2757C80.7543 67.0613 80.8102 66.9028 80.9126 66.7816C81.0523 66.6231 81.2199 66.5299 81.4248 66.5206C81.8066 66.4926 81.9369 66.6511 81.8345 67.0146ZM83.9111 63.4164C83.5014 63.2766 83.1661 62.8757 82.9054 62.2139C82.8588 62.0927 82.9333 61.9622 83.0637 61.9436C83.9018 61.8597 84.3488 62.2232 84.3953 63.0529C84.4233 63.4164 84.2557 63.5376 83.9111 63.4164Z" fill="#010101"/>
<path d="M129.708 58.8861C126.989 52.4167 118.133 49.9744 109.92 53.4328C101.706 56.8819 97.2552 64.936 99.9743 71.4053C102.693 77.8747 111.549 80.317 119.762 76.8586C127.976 73.4002 132.427 65.3648 129.708 58.8861ZM108.029 72.8595C106.726 72.9248 105.655 72.4214 104.807 71.368C103.885 70.2121 104.053 70.0071 105.329 70.7621C105.86 71.0884 106.809 71.5265 108.16 72.0951C109.24 72.5519 109.193 72.8129 108.029 72.8595ZM109.65 64.6004C109.575 64.9173 109.38 65.0572 109.054 65.0105C107.88 64.8521 107.219 65.4114 107.07 66.6885C107.033 66.9961 106.903 67.2478 106.679 67.4622C106.139 67.9842 105.524 68.3478 104.826 68.5528C104.5 68.6554 104.286 68.5435 104.183 68.2173L103.28 65.4207C103.178 65.1038 103.187 64.7868 103.289 64.4699C103.96 62.4843 104.91 60.8623 106.139 59.6225C106.66 59.0912 107.564 59.4174 107.638 60.1539C107.759 61.3471 107.499 62.3631 106.837 63.2114C106.688 63.4072 106.679 63.6775 106.8 63.8826C106.958 64.1529 107.191 64.2462 107.499 64.1809C107.657 64.1529 107.796 64.069 107.89 63.9385C107.973 63.836 108.039 63.7241 108.085 63.6123C108.29 63.1835 108.858 63.1089 109.175 63.4631C109.556 63.9013 109.715 64.2741 109.65 64.6004ZM113.71 56.0523C114.203 56.0523 114.557 56.2014 114.762 56.4904C114.92 56.7234 114.911 57.0497 114.753 57.4505C114.408 58.3268 114.082 58.8954 113.775 59.1564C112.462 60.2564 112.127 60.014 112.778 58.42C112.881 58.1683 113.142 57.8048 113.561 57.32C113.7 57.1616 113.738 56.9751 113.682 56.7607C113.644 56.6395 113.598 56.5463 113.542 56.4997C113.216 56.2014 113.272 56.0523 113.71 56.0523ZM111.084 57.1616C110.86 57.2734 110.804 57.4412 110.916 57.6743C111.018 57.87 111.056 58.0844 111.037 58.3081C111.018 58.5598 110.888 58.6903 110.637 58.6997C110.534 58.709 110.432 58.6717 110.329 58.6064C110.106 58.448 110.069 58.2522 110.218 58.0192C110.376 57.7675 110.441 57.4971 110.404 57.1895C110.357 56.7794 110.599 56.3972 110.981 56.2573C111.465 56.0802 111.968 55.9963 112.48 56.0057C113.076 56.015 113.104 56.1548 112.574 56.4251L111.084 57.1616ZM115.563 64.2089L114.054 64.4979C113.728 64.5631 113.514 64.7495 113.402 65.0572C113.281 65.4207 113.076 65.7376 112.797 66.008C112.546 66.2597 112.378 66.2037 112.313 65.8495C112.21 65.2995 112.248 64.7775 112.425 64.2741C112.527 63.9758 112.732 63.8174 113.048 63.7987L115.283 63.6496C115.432 63.6402 115.526 63.7148 115.563 63.8546L115.628 64.1063C115.647 64.1623 115.628 64.1995 115.563 64.2089Z" fill="#010101"/>
<path d="M152.42 71.8153C151.899 69.634 149.915 69.895 148.462 71.0975C142.493 76.0101 135.64 80.5126 127.901 84.6049C114.408 91.7454 100.17 95.1851 85.1869 94.9148C62.5492 94.5046 42.9008 83.682 29.3703 65.3366C27.0889 62.2511 24.854 59.2588 22.647 56.341C22.3211 55.9122 21.7996 55.6978 21.2688 55.7724C20.7287 55.8563 20.3935 56.0707 20.2538 56.4156C19.7789 57.6834 19.8534 58.802 20.4866 59.7808C22.3956 62.7265 24.2021 65.4671 25.9062 68.0027C27.7873 70.7899 29.8545 73.3347 32.1081 75.6372C35.8236 79.4312 38.8034 82.1998 41.057 83.9523C44.4279 86.5624 49.5216 89.6293 56.3288 93.1437C59.3552 94.7097 62.7355 95.9122 66.4696 96.7605C70.7159 97.7207 74.8225 98.6156 78.7988 99.4359C81.2479 99.9393 84.1532 99.9859 86.8351 100.508C87.1331 100.564 87.4218 100.536 87.7104 100.415C88.4368 100.126 89.1724 100.088 89.9267 100.321C90.2247 100.405 90.5227 100.424 90.8207 100.377C92.8041 100.06 95.6723 99.7528 99.4157 99.4545C100.636 99.352 101.66 98.7834 102.479 97.73C102.712 97.4224 102.926 97.441 103.113 97.7766L103.69 98.8113C103.83 99.063 104.016 99.1003 104.239 98.9045C104.901 98.3359 105.552 97.9817 106.195 97.8605C115.107 96.1546 123.823 92.6216 132.325 87.2522C132.38 87.215 132.455 87.2709 132.446 87.3361C132.287 88.0726 131.84 88.6226 131.086 89.0048C129.298 89.8903 127.501 90.7946 125.694 91.6988C125.378 91.8572 125.117 92.0716 124.912 92.3606C124.475 92.9572 123.851 93.2462 123.031 93.2182C122.677 93.2089 122.333 93.3021 122.025 93.4886C120.489 94.4114 118.915 95.2877 117.304 96.1173C116.42 96.5834 115.554 96.4156 114.613 97.0868C114.38 97.2546 114.306 97.4783 114.399 97.758C114.445 97.8791 114.511 98.0003 114.604 98.1029C114.818 98.3359 114.846 98.5876 114.688 98.8579C113.998 100.032 113.831 101.487 114.194 103.221C114.268 103.575 114.483 103.705 114.827 103.621L118.478 102.671C118.803 102.577 119.148 102.773 119.25 103.099L119.362 103.435C119.502 103.864 119.353 104.143 118.925 104.274C116.122 105.132 113.207 105.905 110.162 106.604C109.445 106.772 109.175 107.182 108.569 107.546C108.299 107.695 108.02 107.751 107.713 107.723L105.832 107.509C105.524 107.471 105.236 107.518 104.956 107.658C102.638 108.767 97.7116 109.438 90.1595 109.69C89.4891 109.718 89.0328 110.044 88.7906 110.678L88.5485 111.303C88.2971 111.946 88.5206 112.253 89.2097 112.216C93.158 112.002 97.1715 111.685 101.241 111.247C103.345 111.023 105.524 110.622 107.769 110.044C109.91 109.485 112.052 108.926 114.194 108.376C124.949 105.57 134.764 99.324 143.89 92.836C147.233 90.459 149.645 88.026 151.144 85.537C153.314 81.9295 153.733 77.3525 152.42 71.8153ZM117.546 98.8579C117.341 99.1842 116.95 99.4266 116.373 99.6037C116.028 99.7062 115.665 99.5105 115.572 99.1656C115.488 98.8579 115.665 98.513 116.084 98.1122C116.559 97.6741 117.016 97.6554 117.453 98.0656C117.705 98.2986 117.742 98.569 117.546 98.8579ZM118.748 97.9351L118.645 97.6927C118.394 97.1148 118.803 96.3877 119.558 96.0521L119.697 95.9961C119.902 95.9029 120.135 95.9961 120.228 96.2012L120.917 97.7859C121.01 97.991 120.917 98.2241 120.712 98.3173L120.573 98.3732C119.818 98.7088 118.999 98.513 118.748 97.9351ZM121.429 103.724C120.712 103.938 120.023 103.724 119.874 103.249C119.735 102.773 120.191 102.204 120.908 101.99C121.625 101.776 122.314 101.99 122.463 102.465C122.603 102.941 122.146 103.51 121.429 103.724ZM122.361 97.4037C121.886 96.7978 121.821 96.1639 122.174 95.5021C122.295 95.269 122.491 95.1851 122.742 95.2411C123.05 95.3156 123.31 95.3995 123.506 95.4928C123.748 95.6046 123.888 95.8097 123.925 96.0987C124.009 96.7698 123.739 97.2639 123.115 97.5715C122.817 97.7207 122.566 97.6647 122.361 97.4037ZM124.428 102.102C124.335 102.279 124.214 102.438 124.065 102.577C123.86 102.764 123.618 102.801 123.329 102.699C123.003 102.577 122.91 102.363 123.04 102.037C123.255 101.505 123.59 101.077 124.028 100.741C124.326 100.517 124.54 100.582 124.661 100.937C124.763 101.226 124.679 101.608 124.428 102.102ZM125.052 95.1292C125.098 94.9428 125.108 94.7563 125.098 94.5606C125.07 94.3368 125.089 94.1131 125.145 93.8801C125.229 93.5258 125.35 93.5072 125.508 93.8335C125.946 94.7563 126.16 95.6792 126.151 96.6021C126.151 96.8724 125.825 97.0122 125.62 96.8351C125.07 96.3597 124.884 95.7911 125.052 95.1292ZM126.151 101.207C125.927 101.356 125.629 101.263 125.545 101.011C125.462 100.75 125.471 100.489 125.573 100.238C125.676 100.005 125.75 99.7994 125.806 99.6223C125.881 99.3893 126.169 99.3147 126.346 99.4918C126.961 100.116 126.896 100.685 126.151 101.207ZM131.077 95.1665C130.565 95.9029 129.838 96.2851 128.907 96.3317C128.581 96.341 128.404 96.1826 128.395 95.8563L128.367 95.2317C128.358 94.8775 128.507 94.775 128.833 94.9241C129.177 95.0826 129.522 95.1292 129.866 95.0733C130.192 95.008 130.332 94.8216 130.295 94.4953C130.201 93.703 129.913 92.9665 129.429 92.2954C129.298 92.1183 129.307 91.9411 129.466 91.7827C129.587 91.6522 129.736 91.6149 129.903 91.6615C130.062 91.7081 130.183 91.8386 130.22 92.0064C130.378 92.7801 130.667 93.5072 131.105 94.1877C131.319 94.514 131.31 94.8402 131.077 95.1665ZM133.023 86.898C132.948 86.7489 134.001 86.0218 135.37 85.2574C136.738 84.493 137.921 83.9989 138.005 84.1388C138.079 84.2879 137.027 85.015 135.658 85.7794C134.289 86.5438 133.107 87.0378 133.023 86.898ZM135.826 92.7708C135.537 93.1064 135.183 93.3767 134.764 93.5725C134.476 93.7123 134.289 93.6284 134.224 93.3114C133.973 92.1649 133.638 91.0462 133.2 89.9556C133.153 89.8158 133.191 89.7319 133.33 89.6852H133.34C133.498 89.6293 133.591 89.6852 133.638 89.8437C133.796 90.431 134.047 90.9717 134.373 91.4657C134.55 91.7361 134.811 91.9318 135.118 92.0437C135.239 92.0903 135.37 92.1089 135.5 92.0996C136.133 92.0716 136.245 92.2954 135.826 92.7708ZM140.547 89.4242C139.225 89.6386 138.107 90.2259 137.204 91.1767C136.971 91.4284 136.822 91.3818 136.757 91.0462C136.711 90.8225 136.729 90.6081 136.813 90.3937C136.878 90.2166 137.027 90.0674 137.26 89.9649C137.791 89.7132 138.349 89.4802 138.918 89.2658C139.197 89.1632 139.402 88.9768 139.532 88.7065C139.635 88.4734 139.793 88.3243 139.998 88.2683C140.165 88.2217 140.342 88.259 140.519 88.3709C140.724 88.5107 140.854 88.6599 140.91 88.837C141.013 89.1632 140.892 89.359 140.547 89.4242ZM140.119 83.0295C139.337 83.5142 138.647 83.8125 138.592 83.71C138.526 83.6074 139.113 83.132 139.886 82.6566C140.668 82.1719 141.357 81.8736 141.413 81.9761C141.478 82.0786 140.892 82.554 140.119 83.0295ZM142.735 87.737C142.326 88.1844 141.786 88.3616 141.525 88.1378C141.264 87.9048 141.385 87.3455 141.795 86.8887C142.205 86.4412 142.745 86.2641 143.006 86.4879C143.266 86.7209 143.145 87.2802 142.735 87.737ZM143.667 80.8295C142.959 81.4168 142.316 81.799 142.233 81.6964C142.158 81.5939 142.661 81.0439 143.369 80.466C144.076 79.8787 144.719 79.4965 144.803 79.599C144.877 79.7016 144.374 80.2516 143.667 80.8295ZM146.823 85.3972C146.581 86.0031 146.134 86.3667 145.492 86.4972C145.259 86.5438 145.194 86.4599 145.296 86.2455C145.38 86.0684 145.52 85.9565 145.715 85.9099C145.846 85.8819 145.957 85.8074 146.032 85.7141C146.19 85.5091 146.386 85.3413 146.609 85.2108C146.861 85.0709 146.926 85.1362 146.823 85.3972ZM146.116 78.5736C145.967 78.4338 146.33 77.7999 146.926 77.1474C147.522 76.4949 148.127 76.066 148.276 76.2059C148.425 76.3457 148.062 76.9796 147.466 77.6321C146.87 78.2846 146.265 78.7135 146.116 78.5736ZM149.319 83.1413C149.254 83.6167 148.947 84.0362 148.397 84.3998C148.136 84.5769 148.09 84.5303 148.267 84.2693L149.105 83.0574C149.3 82.7778 149.366 82.8057 149.319 83.1413Z" fill="#010101"/>
</g>
<defs>
<clipPath id="clip0_2356_2136">
<rect width="160" height="120" fill="white"/>
</clipPath>
</defs>
</svg>
