<svg width="136" height="121" viewBox="0 0 136 121" fill="none" xmlns="http://www.w3.org/2000/svg">
<g clip-path="url(#clip0_2209_88)">
<path d="M135.419 117.643C134.692 115.859 133.539 113.582 131.959 110.811C124.312 97.3608 117.113 84.897 110.347 73.4276C96.3598 49.6994 82.3287 26.1685 68.6943 2.03031C67.6071 0.102298 65.271 0.0188011 64.1838 1.97718C56.103 16.5967 47.0599 32.6812 37.0618 50.2383C26.454 68.8657 16.0078 87.4247 5.73054 105.915C3.99685 109.028 2.41743 112.155 0.999628 115.297C0.595591 116.193 0.433976 117.134 0.529475 118.121C0.551514 118.379 0.65436 118.599 0.830667 118.789C1.70486 119.723 2.88759 120.186 4.3862 120.178C10.3292 120.14 13.9876 120.11 15.354 120.087C19.2695 120.034 23.2143 120.019 27.1813 120.049C60.5327 120.284 95.7648 120.444 132.878 120.543C134.207 120.55 135.074 119.821 135.463 118.364C135.529 118.121 135.515 117.878 135.419 117.643ZM37.914 114.204L7.69931 114.516C7.49362 114.516 7.36138 114.295 7.45688 114.106C12.6506 103.82 18.1676 93.9754 23.993 84.5706C24.3824 83.9482 24.757 83.9558 25.117 84.5934C29.4218 92.1385 32.9113 100.093 36.408 108.261C37.2381 110.204 37.7964 112.117 38.0756 113.999C38.0976 114.136 38.0389 114.204 37.914 114.204ZM50.4538 114.053L45.576 114.341C45.0177 114.379 44.5035 114.037 44.2904 113.506C39.3832 101.065 34.5715 89.1478 29.9655 76.6309C29.5981 75.6213 29.7377 74.4751 30.3768 73.1923C34.2923 65.3436 38.6192 58.0414 43.0342 50.5495C43.1665 50.3218 43.4897 50.3597 43.5778 50.6026C43.9672 51.6729 44.2757 52.7736 44.4961 53.897C45.3997 58.4969 46.171 63.8483 46.8101 69.9435C48.2573 83.9178 49.7339 98.3096 51.2252 113.119C51.284 113.703 51.0268 114.015 50.4538 114.053ZM65.3077 113.817C65.3004 114.098 65.1608 114.25 64.8816 114.258L58.2481 114.402C57.2637 114.425 56.7201 113.939 56.6099 112.929C54.3179 91.5768 52.2757 70.8696 50.4906 50.8228C50.1747 47.3235 49.8882 43.7483 49.6311 40.0896C49.5723 39.2167 49.7633 38.3438 50.182 37.5847L62.5823 15.3822C62.766 15.0558 62.8688 15.0786 62.8982 15.4581C63.192 19.557 63.3683 22.9728 63.4345 25.7054C63.9928 49.4109 64.5731 73.2606 65.1681 97.2621C65.3224 103.418 65.3665 108.937 65.3077 113.817ZM78.2075 113.362C78.1561 113.908 77.708 114.326 77.1791 114.333L71.6695 114.432C71.4124 114.432 71.2581 114.311 71.192 114.06C70.9789 113.256 70.8394 112.421 70.7879 111.548C70.5308 107.32 70.3472 103.228 70.2517 99.2737C69.6419 74.3461 69.113 49.3426 68.6576 24.2556C68.5914 20.4983 68.6208 17.2191 68.7604 14.403C68.8118 13.272 69.1498 13.1733 69.7742 14.107C71.2581 16.3462 72.6465 18.6917 73.9321 21.1511C75.7613 24.6503 78.6263 29.6374 82.5418 36.1122C82.9091 36.7118 83.2396 37.4178 83.5261 38.2224C83.7612 38.8676 83.8494 39.5583 83.798 40.3098C82.3287 59.8252 80.8889 79.2648 79.4711 98.636C79.1479 103.008 78.7291 107.919 78.2075 113.362ZM90.6299 114.121C90.4609 114.303 90.2479 114.409 90.0054 114.44C87.9485 114.66 86.112 114.652 84.5032 114.417C83.8347 114.318 83.5188 113.916 83.5702 113.218C84.7383 96.4727 86.0532 79.1965 87.5298 61.3889C87.8751 57.252 88.2497 53.229 89.359 49.3806C89.572 48.6443 89.8806 48.5987 90.2699 49.2591C94.3911 56.1817 98.3507 63.0512 102.156 69.8752C103.155 71.6666 104.059 73.3821 104.867 75.0292C105.109 75.5226 105.146 76.0388 104.977 76.5625C101.245 88.3128 96.1174 100.283 91.7612 112.216C91.4967 112.937 91.1221 113.574 90.6299 114.121ZM127.302 114.531C125.928 114.721 124.687 114.812 123.57 114.812C114.468 114.796 105.734 114.705 97.3516 114.546C96.8888 114.538 96.7492 114.311 96.9255 113.87C100.378 105.278 104.183 96.6928 108.099 88.2141C108.665 86.992 109.436 85.9369 110.398 85.064C110.633 84.8591 110.986 84.9046 111.155 85.1703C116.327 93.3833 121.278 101.877 126.009 110.652C126.611 111.768 127.125 112.914 127.552 114.106C127.64 114.356 127.559 114.493 127.302 114.531Z" fill="black"/>
<path d="M60.4151 93.1103C60.6135 93.0952 60.7898 93.2621 60.7971 93.4671L61.2011 101.088C61.495 106.735 61.3995 111.328 60.9881 111.351L60.18 111.396C59.7687 111.419 59.1957 106.865 58.8945 101.217L58.4978 93.5961C58.4831 93.3912 58.6447 93.209 58.843 93.2014L60.4151 93.1103Z" fill="black"/>
<path d="M24.1252 107.973C22.6192 107.813 21.532 106.325 21.701 104.64C21.8626 102.963 23.2216 101.726 24.7276 101.885C26.2335 102.044 27.3208 103.532 27.1518 105.217C26.9902 106.895 25.6311 108.132 24.1252 107.973Z" fill="black"/>
<path d="M112.396 109.066C111.162 110.03 109.362 109.734 108.371 108.39C107.379 107.047 107.577 105.172 108.811 104.2C110.046 103.236 111.845 103.532 112.837 104.876C113.829 106.22 113.631 108.094 112.396 109.066Z" fill="black"/>
</g>
<defs>
<clipPath id="clip0_2209_88">
<rect width="135" height="120" fill="white" transform="translate(0.5 0.542969)"/>
</clipPath>
</defs>
</svg>
