<svg width="106" height="120" viewBox="0 0 106 120" fill="none" xmlns="http://www.w3.org/2000/svg">
<g clip-path="url(#clip0_2337_942)">
<path d="M100.638 51.1185C107.61 39.7395 107.146 24.7015 98.8607 14.1651C88.0322 0.372084 69.6601 -4.39512 54.3487 4.56237C39.5243 13.2238 33.341 30.615 39.8489 46.3513C41.0624 49.2891 43.0101 52.1206 44.8728 54.8382C45.0738 55.1342 45.1047 55.5062 44.9656 55.8326C44.6641 56.531 44.2313 57.2446 43.6593 57.9581C40.9232 61.3893 38.2644 64.8964 35.6906 68.4642C35.5824 68.616 35.4356 68.7375 35.2501 68.8134C33.511 69.5421 32.143 70.5973 31.1382 71.9713C30.8831 72.3205 30.4735 72.5482 30.0329 72.571C25.8205 72.7987 23.6332 75.486 21.1599 78.363C15.2085 85.2709 9.45801 92.2395 3.89305 99.2461C0.747301 103.209 -0.597565 107.444 1.5434 112.227C3.14333 115.802 7.37115 119.013 11.2512 119.772C17.9368 121.078 22.4893 116.675 26.1452 111.521C28.6726 107.968 31.3237 104.499 34.083 101.121C35.0336 99.9596 35.652 98.7147 36.5254 97.576C38.0016 95.6403 39.5552 93.5983 41.2092 91.4576C42.5541 89.7041 44.3395 86.8119 43.8912 84.5573C43.7521 83.8589 43.6825 83.2061 43.6903 82.5988C43.6903 82.409 43.7675 82.2496 43.8989 82.113C44.2699 81.7486 44.6177 81.369 44.9733 80.9895C46.3413 79.494 45.6766 77.49 47.4157 76.1995C47.8485 75.8807 48.2427 75.5087 48.606 75.0912C51.373 71.8802 54.0782 68.6236 56.7215 65.3063C57.0925 64.8432 57.7109 64.661 58.2751 64.8432C62.0546 66.0502 65.9424 67.0447 69.8301 67.1054C79.1437 67.2572 87.2979 64.365 94.2928 58.4364C96.8975 56.2273 99.0152 53.783 100.646 51.1185H100.638ZM38.1639 87.8367C36.0771 90.615 34.2839 93.5376 32.0966 96.3463C31.1459 97.5684 30.2107 98.8589 29.2986 100.218C26.6244 104.195 23.3395 107.885 20.3483 111.551C19.1349 113.039 18.1301 114.018 17.3108 114.481C13.5235 116.637 7.34796 113.965 6.0031 110.033C4.84373 106.617 6.04947 104.287 8.39139 101.523C10.9265 98.5249 13.3844 95.5264 15.7418 92.5355C19.3281 87.9885 23.0767 83.4946 26.9954 79.0689C29.2832 76.4956 31.8338 77.1408 34.3148 79.0538C37.2519 81.3235 41.3174 83.6388 38.1717 87.8442L38.1639 87.8367ZM48.8378 60.8048L49.8349 61.321C50.0359 61.4197 50.09 61.5715 50.0049 61.7764C49.1006 63.8792 47.6707 65.367 46.5346 67.1206C46.179 67.6595 46.2486 68.115 46.7278 68.487C46.9056 68.616 47.0833 68.6236 47.2688 68.5021C48.2427 67.8645 49.062 67.1737 49.7344 66.407C51.1875 64.737 52.6947 63.0973 54.2328 61.4728C54.2559 61.4424 54.2791 61.4424 54.3101 61.4728L54.4337 61.5791C54.5187 61.655 54.5265 61.7385 54.4492 61.8296L47.408 70.2557C47.2534 70.4303 47.0988 70.4455 46.9133 70.2936C45.5607 69.1018 44.2313 68.0998 42.9251 67.2876C42.4845 67.0143 42.3918 66.4222 42.7241 66.035C44.9887 63.3706 47.0679 60.6757 48.9615 57.9505C49.1857 57.6241 49.4639 57.571 49.7963 57.7987L50.0822 57.9885C50.4069 58.2086 50.4378 58.4591 50.1827 58.7552L48.7451 60.41C48.606 60.577 48.6369 60.7061 48.8301 60.8124L48.8378 60.8048ZM41.0314 77.7557C40.7532 78.1352 40.2044 78.2187 39.8257 77.9379L36.2085 75.3189C35.822 75.0381 35.737 74.5067 36.023 74.1347L37.1437 72.6393C38.2721 71.1363 40.1117 70.5745 41.2556 71.4095L42.1367 72.0396C43.2729 72.867 43.2883 74.7572 42.1599 76.2678L41.0392 77.7633L41.0314 77.7557ZM53.0657 56.0831C40.4286 46.1008 38.419 27.9429 48.5828 15.5315C58.7466 3.12006 77.2346 1.14638 89.8717 11.1287C102.509 21.1109 104.518 39.2688 94.3546 51.6803C84.1908 64.0917 65.7028 66.0654 53.0657 56.0831Z" fill="black"/>
<path d="M18.7021 103.975L15.9582 101.789C15.9582 101.789 15.9118 101.728 15.9273 101.683C16.1746 101.007 16.5224 100.407 16.9707 99.9062C17.0094 99.8683 17.048 99.8607 17.0944 99.8835C18.0374 100.384 18.8412 100.984 19.5136 101.675C19.6837 101.842 19.9078 101.933 20.1474 101.925C20.4952 101.91 20.7116 101.781 20.8121 101.538C21.0131 101.03 20.8971 100.612 20.4643 100.271L18.7175 98.889C18.3156 98.5702 18.2847 98.221 18.6325 97.8414L19.2354 97.1886C19.5291 96.8698 19.8382 96.847 20.1783 97.1127L22.3888 98.8587C22.5357 98.9801 22.7598 98.9573 22.8912 98.8283L23.0226 98.6916C23.2545 98.4487 23.2622 98.0768 23.0458 97.8339L20.8585 95.3667C20.7116 95.1997 20.673 95.0176 20.7348 94.805C20.8353 94.4938 21.0517 94.266 21.3686 94.1218C21.5309 94.0535 21.7164 94.0611 21.8633 94.1446C22.6362 94.6 23.4864 94.9644 24.4139 95.2529C24.6689 95.3288 24.9085 95.2984 25.125 95.1466C25.295 95.0327 25.3182 94.7974 25.1636 94.6532C24.5685 94.099 23.9965 93.4917 23.4477 92.8465C23.0381 92.3531 23.0149 91.9052 23.3859 91.4953C23.5173 91.3435 23.6796 91.3055 23.8728 91.3738C24.1588 91.4725 24.383 91.6092 24.5685 91.7913C24.7926 92.0039 25.0477 92.0419 25.3259 91.8976L25.4959 91.8141C25.7201 91.7003 25.7433 91.5484 25.5655 91.3738C24.9704 90.7969 24.9858 90.0226 25.6196 89.0661C25.8438 88.717 26.122 88.6714 26.4544 88.9295L27.892 90.0454C28.0929 90.2048 28.263 90.182 28.4098 89.9771L28.5489 89.7949C28.7576 89.4988 28.7422 89.218 28.4948 88.9523C27.8997 88.3146 27.5442 87.6087 27.4514 86.842C27.3818 86.2726 28.0311 85.9007 28.5026 86.2347L29.9015 87.2291C30.5662 87.6998 30.7749 87.5479 30.5199 86.7812C30.3112 86.1739 29.8242 85.6122 29.0359 85.1036C28.9277 85.0353 28.9045 84.8986 28.974 84.7924L29.1673 84.5191C29.2446 84.4204 29.3991 84.4204 29.4687 84.5191C29.716 84.8531 30.0175 85.0732 30.373 85.1795C31.2928 85.4604 31.4706 85.2099 30.9218 84.428C30.829 84.3065 30.7131 84.1775 30.574 84.056C30.4117 83.9118 30.3189 83.7752 30.3035 83.6385C30.2803 83.4639 30.3344 83.3349 30.4735 83.2286C30.5585 83.1679 30.6899 83.1375 30.8522 83.1451C31.2232 83.1755 31.6019 83.1906 32.0039 83.1982C32.6222 83.2058 32.7072 83.0009 32.2589 82.5834C31.6947 82.052 31.2851 81.384 31.03 80.5869C31.03 80.5641 31.0532 80.5413 31.0609 80.5641C31.4242 80.9816 31.656 81.3005 32.2589 81.4523C34.1603 81.9229 35.8684 82.9325 37.3679 84.4735C37.4993 84.6102 37.5688 84.7772 37.5688 84.9745C37.5688 85.6046 37.4065 86.1056 37.1051 86.4776C35.7834 88.14 34.5854 89.8784 33.5033 91.7003C32.8541 92.7934 31.9729 93.6512 31.2619 94.6684C26.4775 101.447 21.9019 107.277 17.535 112.151C16.7852 112.986 15.7109 113.411 14.3119 113.426C14.1496 113.426 14.0259 113.358 13.9487 113.206C13.1139 111.521 10.772 108.127 12.6888 106.419C12.8279 106.29 12.9902 106.268 13.168 106.359C13.8791 106.723 14.5051 107.171 15.0539 107.695C15.4636 108.082 15.8423 108.059 16.1901 107.619L16.3679 107.383C16.5997 107.095 16.5688 106.822 16.2828 106.571C15.3785 105.789 13.7091 104.408 14.0955 103.072C14.2346 102.601 14.8143 102.419 15.2008 102.723L17.2181 104.271C17.4499 104.446 17.7282 104.552 18.0219 104.56C18.2229 104.56 18.4161 104.537 18.6093 104.491C18.988 104.393 19.0267 104.226 18.7252 103.99L18.7021 103.975Z" fill="black"/>
<path d="M25.7897 82.9706C26.4621 81.7484 27.6292 79.9266 29.1209 80.1391C29.4533 80.1923 29.5151 80.3365 29.3064 80.6022L26.8949 83.5779C26.7713 83.7449 26.6012 83.798 26.3925 83.7525C26.1838 83.6993 25.9983 83.5931 25.8438 83.4412C25.7124 83.3046 25.6892 83.1452 25.7819 82.9782L25.7897 82.9706Z" fill="black"/>
<path d="M23.2391 85.3921L23.9192 84.9594C24.4448 84.633 25.125 85.0429 25.0554 85.6578L24.9472 86.5915C24.9163 86.8268 24.7849 87.0242 24.5762 87.138L23.0226 88.011C22.3347 88.3981 21.5927 87.5935 22.0488 86.9558L23.0304 85.5819C23.0845 85.5059 23.154 85.4376 23.2391 85.3845V85.3921Z" fill="black"/>
<path d="M17.7668 92.019L20.8817 89.0357C21.0131 88.8991 21.2295 88.9218 21.3377 89.0737L21.7705 89.7037C21.8478 89.8176 21.8401 89.9694 21.7473 90.0681L19.0421 93.0362C18.9339 93.1501 18.7639 93.1653 18.6402 93.0742L17.79 92.4669C17.6354 92.3606 17.6277 92.1481 17.7591 92.019H17.7668Z" fill="black"/>
<path d="M14.6597 98.5402C14.5979 98.6161 14.4897 98.6237 14.4124 98.5705L13.5004 97.8721C13.4231 97.819 13.4076 97.7051 13.4695 97.6292L16.1051 94.3195C16.1669 94.2436 16.2751 94.236 16.3524 94.2891L17.2645 94.9875C17.3417 95.0407 17.3572 95.1545 17.2954 95.2304L14.6597 98.5402Z" fill="black"/>
<path d="M7.5644 104.924C9.68218 102.89 11.0116 101.166 11.5449 99.7469C11.6608 99.4357 12.0241 99.2915 12.3255 99.4281C12.9207 99.6862 13.2067 100.134 13.168 100.757C13.1526 100.946 13.0675 101.106 12.9207 101.227C12.4492 101.592 12.0009 101.736 11.6067 102.191C10.6097 103.368 9.67445 104.529 8.79333 105.676C8.6001 105.926 8.3605 105.979 8.07453 105.835C7.8813 105.736 7.70353 105.6 7.54895 105.425C7.38663 105.25 7.38663 105.083 7.55668 104.924H7.5644Z" fill="black"/>
<path d="M93.0329 18.2565C84.415 6.55867 67.8128 3.92457 55.9332 12.3583C44.0613 20.7996 41.4256 37.1204 50.0436 48.8107C58.6616 60.5086 75.2637 63.1427 87.1433 54.709C99.0153 46.2677 101.651 29.9468 93.0329 18.2565ZM70.7731 55.4377C58.5224 55.0126 48.9538 44.8633 49.3866 32.7631C49.8195 20.6629 60.0992 11.1892 72.3421 11.6143C84.5927 12.0394 94.1614 22.1887 93.7286 34.2889C93.2957 46.3891 83.016 55.8628 70.7731 55.4377Z" fill="black"/>
<path d="M72.2725 18.5374C67.6119 18.545 63.2527 20.6097 60.0837 23.8815C59.7978 24.1776 59.3727 24.299 58.9707 24.2003C58.5379 24.1016 58.2133 23.9043 57.9969 23.6006C57.4713 22.8871 57.5486 21.9078 58.1746 21.2854C63.5 15.9944 69.7374 14.2029 76.8868 15.9109C78.0153 16.1765 78.9891 16.5789 79.8084 17.1027C80.3881 17.4746 80.6122 18.1958 80.3495 18.8334C80.0326 19.5698 79.4838 19.8506 78.7032 19.6685C76.5467 19.175 74.514 18.5374 72.2725 18.545V18.5374Z" fill="black"/>
<path d="M63.6314 48.0743C71.5383 50.215 77.0569 49.175 83.2943 43.9447C83.9976 43.3526 84.7241 43.4741 85.4661 44.3015C85.7985 44.6659 85.8681 45.0682 85.6671 45.5161C85.2884 46.427 84.6855 47.2013 83.8817 47.8465C77.7911 52.7276 70.8968 53.7828 63.1831 51.0044C62.4179 50.7312 62.0933 50.1998 62.217 49.4103L62.2865 48.9321C62.3947 48.1502 62.8508 47.8617 63.6237 48.0743H63.6314Z" fill="black"/>
</g>
<defs>
<clipPath id="clip0_2337_942">
<rect width="105" height="120" fill="white" transform="translate(0.5)"/>
</clipPath>
</defs>
</svg>
