<svg width="81" height="120" viewBox="0 0 81 120" fill="none" xmlns="http://www.w3.org/2000/svg">
<g clip-path="url(#clip0_2284_1033)">
<path d="M79.109 96.608C77.7022 94.3008 75.119 92.4534 72.6868 91.2374C64.8497 87.34 59.4051 84.9549 53.4518 80.4339C47.6654 76.0533 47.3554 71.4933 47.2124 64.9224C47.1567 62.1475 47.1726 60.2222 47.276 59.1309C48.0787 50.2527 48.651 42.5359 48.9928 35.9727C49.1915 32.1299 49.1041 28.1078 48.7543 23.9221C48.341 19.0503 48.1582 15.5193 47.9118 11.279C47.8005 9.52517 47.3475 7.78694 47.0534 6.00974C46.807 4.45859 46.2745 3.28159 44.9709 2.5177C42.4116 1.0367 38.493 0.841832 35.4965 0.436506C33.7002 0.187074 31.9118 0.0545638 30.1473 0.0233848C26.801 -0.0233836 23.4548 -0.0155889 20.1165 0.0389743C18.1056 0.0701532 15.2442 0.615785 14.187 2.5177C12.3112 5.86944 12.2953 9.61871 11.9059 13.3134C11.6992 15.2855 11.3495 17.3121 10.8487 19.3777C9.78365 23.7895 8.92523 28.2481 8.29732 32.7457C7.54222 38.1319 6.81098 43.518 6.11947 48.9042C5.24515 55.67 3.90189 62.1319 2.60631 68.7418C2.60631 68.7574 2.24068 70.3865 1.50944 73.6213C0.595378 77.6746 0.317187 81.5408 0.666913 85.2355C1.13587 90.1072 3.72702 93.5758 8.44833 95.6492C9.36239 96.0468 11.3972 96.8262 14.5686 97.9799C16.9848 98.8607 19.8224 100.31 23.0653 102.329C28.0171 105.408 32.9292 108.534 37.8095 111.714C42.0062 114.442 46.4573 116.656 51.1547 118.371C60.4622 121.762 70.962 119.938 76.7245 111.8C79.9357 107.256 82.0579 101.433 79.1249 96.6002L79.109 96.608ZM74.189 95.5947C76.033 96.4911 75.9933 99.0322 75.3415 100.568C75.0633 101.23 74.9521 101.199 75.0156 100.49C75.1269 99.1179 74.8408 97.6447 74.1413 96.0779C74.0857 95.9688 73.9903 95.8909 73.8631 95.8753L73.4896 95.8207C73.3306 95.7895 73.275 95.8597 73.3306 96.0156C73.6247 96.7795 74.038 97.4109 74.0221 98.2527C73.9903 99.4141 73.9585 100.576 73.9108 101.721C73.887 102.244 74.2923 103.202 73.8234 103.857C73.6883 104.036 73.6326 104.013 73.6485 103.795C73.8154 101.332 73.5372 98.9776 72.8298 96.7405C72.5755 95.9298 73.426 95.2205 74.197 95.5947H74.189ZM72.4722 100.872C72.4245 101.059 72.3847 101.059 72.353 100.872C72.1304 99.4998 71.5979 97.9799 70.7394 96.3118C70.7076 96.2338 70.7315 96.1949 70.811 96.1871C73.2273 95.9454 72.8219 99.5232 72.4642 100.88L72.4722 100.872ZM71.6535 104.995C71.5661 105.19 71.5184 105.182 71.5025 104.964C71.4309 103.615 71.2084 102.563 70.8428 101.807C70.6123 101.347 70.4533 100.911 70.3738 100.513C70.0956 99.0789 69.6585 98.2839 68.6888 97.2472C68.5139 97.0523 68.6093 96.7405 68.8716 96.6781L69.8651 96.4521C70.0638 96.4131 70.1989 96.4833 70.2625 96.6703C70.7633 98.089 71.0097 99.5544 70.9938 101.051C70.9779 102.594 72.4324 103.265 71.6455 104.987L71.6535 104.995ZM47.6257 79.974C47.7608 79.8181 47.9277 79.7869 48.1105 79.8961C48.6272 80.2001 49.0723 80.582 49.4379 81.0341C49.5651 81.19 49.573 81.3459 49.4538 81.5174C49.2153 81.8759 48.9133 82.1488 48.5397 82.3514C48.3569 82.4527 48.1741 82.4449 47.9992 82.3358C47.6018 82.102 47.4588 81.8136 47.5621 81.455C47.5939 81.3537 47.5939 81.2524 47.5621 81.151C47.4111 80.5742 47.427 80.1767 47.6177 79.974H47.6257ZM46.9739 78.1267C47.1488 78.3527 47.2521 78.6021 47.2918 78.875C47.3236 79.0698 47.268 79.2413 47.1249 79.3816L46.3937 80.1377C46.2427 80.2858 46.0758 80.317 45.885 80.2312C45.7022 80.1533 45.5512 80.0286 45.4319 79.8727C45.3048 79.7012 45.2809 79.5219 45.3684 79.327L45.8214 78.2826C45.8453 78.228 45.8214 78.2046 45.7737 78.1812C45.7022 78.1656 45.6465 78.1501 45.6147 78.1501C45.4319 78.1501 45.3842 78.0799 45.4876 77.924C45.6147 77.7213 45.7419 77.6044 45.877 77.5654C46.0917 77.5109 46.1473 77.581 46.044 77.7759C45.9804 77.885 45.9645 77.9942 45.9883 78.1111C46.0201 78.267 46.1075 78.3059 46.2427 78.228L46.5686 78.0487C46.7275 77.963 46.8706 77.9864 46.9819 78.1267H46.9739ZM44.3589 43.9233C44.2953 43.9078 44.2397 43.8688 44.1841 43.8142C44.1682 43.7986 44.1682 43.7752 44.1602 43.7519C44.1443 43.1906 44.1205 42.8243 44.0648 42.645C43.9535 42.2865 44.0966 42.1306 44.4702 42.1695C44.8835 42.2085 45.2094 42.0292 45.4637 41.6239C45.6068 41.3901 45.9724 41.4758 45.9883 41.7486C46.0837 43.5804 46.0201 45.3186 45.8135 46.9867C45.6068 48.6392 45.0822 48.7639 44.2556 47.353C43.9615 46.8542 43.9059 46.1215 44.0807 45.1705C44.1205 44.9912 44.192 44.8353 44.2953 44.695C44.4225 44.5235 44.494 44.3365 44.502 44.1338C44.502 44.0247 44.4622 43.9545 44.351 43.9233H44.3589ZM45.3207 10.0708H45.3286C45.4558 10.0708 45.5591 10.1565 45.5671 10.2813L45.9963 19.9857C45.9963 20.1026 45.9088 20.2118 45.7817 20.2196H45.7658C45.6386 20.2196 45.5353 20.1338 45.5273 20.0091L45.0981 10.3046C45.0981 10.1877 45.1855 10.0786 45.3127 10.0708H45.3207ZM45.7419 28.9575C46.2029 28.9575 46.6003 30.571 46.6242 32.5742C46.656 34.5775 46.2983 36.2066 45.8453 36.2144C45.3842 36.2144 44.9868 34.6008 44.963 32.5976C44.9312 30.5943 45.2809 28.9652 45.7419 28.9575ZM42.1254 3.49984L43.262 4.79376C43.3336 4.87951 43.3415 4.99643 43.2938 5.09776L42.658 6.29815C42.5387 6.5164 42.197 6.46963 42.1413 6.2202L41.6406 3.72589C41.5849 3.46086 41.9426 3.29717 42.1254 3.49984ZM41.7439 10.7489C41.7598 10.6398 41.8234 10.5931 41.9347 10.5931H42.0857C42.0857 10.5931 42.1175 10.632 42.1175 10.6866C42.0857 12.152 42.2288 13.3914 42.0459 14.9347C41.8949 16.1897 41.9585 17.429 42.2208 18.6762C42.2526 18.8087 42.2526 18.9334 42.2208 19.0425C42.197 19.1283 42.1652 19.2218 42.1413 19.3076C42.1016 19.4401 42.0857 19.5804 42.0857 19.7285L42.1016 20.0481C42.1016 20.1806 42.0539 20.2741 41.9426 20.3287C41.879 20.3599 41.8075 20.3677 41.736 20.3443C41.6565 20.3209 41.6088 20.2663 41.6088 20.1884C41.5055 19.2062 41.4896 18.2319 41.5611 17.2809C41.6247 16.3378 41.6247 15.4492 41.5452 14.6229C41.426 13.368 41.4896 12.0741 41.7519 10.7334L41.7439 10.7489ZM39.4786 3.18805C39.7807 3.19584 39.9953 3.81163 39.9714 4.55992C39.9476 5.30822 39.6932 5.90841 39.3912 5.90062C39.0892 5.89282 38.8746 5.27704 38.8984 4.52874C38.9223 3.78045 39.1766 3.18025 39.4786 3.18805ZM37.6823 10.6008L38.6123 10.5853C38.6997 10.5853 38.7633 10.6476 38.7712 10.7334L38.9461 20.3521C38.9461 20.43 38.8746 20.5002 38.7951 20.508L37.8651 20.5235C37.7777 20.5235 37.7141 20.4612 37.7062 20.3754L37.5313 10.7567C37.5313 10.6788 37.5949 10.6086 37.6823 10.6008ZM35.886 2.91523L36.4344 2.8139C36.657 2.76713 36.8795 2.91523 36.9193 3.14128L37.4439 5.83046C37.4836 6.05651 37.3405 6.26697 37.11 6.30594L36.5616 6.40728C36.339 6.45404 36.1165 6.30594 36.0767 6.0799L35.5522 3.39071C35.5124 3.16466 35.6555 2.95421 35.886 2.91523ZM34.6143 10.9906C34.6778 12.0896 34.4155 13.103 34.4871 14.0851C34.6619 16.2988 34.6301 18.5125 34.3917 20.7184C34.3679 20.9289 34.2645 20.9834 34.0658 20.8899L33.8671 20.8042C33.7399 20.7418 33.6763 20.6405 33.6922 20.5002C33.8433 19.0659 33.732 17.6473 33.3743 16.252C33.3505 16.1585 33.2948 16.1195 33.1915 16.1351L33.0405 16.1663C33.0405 16.1663 33.0007 16.1819 33.0087 16.2053C33.4538 17.5538 33.4697 18.8867 33.0564 20.1962C33.0246 20.2975 33.0325 20.3988 33.0882 20.4846C33.12 20.5391 33.1677 20.5859 33.2392 20.6093C33.3028 20.6405 33.2948 20.734 33.2233 20.7496L32.6192 20.9211C32.349 20.999 32.2139 20.8977 32.2218 20.6249C32.2774 18.1617 32.3967 15.7064 32.5954 13.2589C32.651 12.5729 32.5 11.7077 32.3808 11.1309C32.341 10.9282 32.4205 10.8113 32.6351 10.7879L34.1294 10.6086C34.4314 10.5697 34.5904 10.7022 34.6063 10.9984L34.6143 10.9906ZM31.737 2.86846C31.737 2.58785 31.9754 2.35401 32.2695 2.36181H32.9848C33.271 2.3696 33.5094 2.60344 33.5015 2.89185L33.4697 5.83826C33.4697 6.11887 33.2312 6.35271 32.9372 6.34492H32.2218C31.9357 6.33712 31.6972 6.10328 31.7052 5.81488L31.737 2.86846ZM30.4175 11.3258C30.2109 14.6229 30.1155 17.4914 30.1393 19.9311C30.1393 20.1338 30.0519 20.2663 29.8532 20.3287C29.5591 20.43 29.265 20.4222 28.955 20.3131C28.7245 20.2351 28.661 20.087 28.7881 19.8844C29.0186 19.4868 29.0186 19.0581 28.7881 18.606C28.7086 18.4657 28.7086 18.302 28.7722 18.1539L28.8517 17.9747C28.8835 17.8967 28.8835 17.8266 28.8358 17.7564C28.5099 17.3433 28.494 16.938 28.7802 16.556C28.8915 16.4001 28.9391 16.2364 28.9312 16.0494L28.7404 12.0195C28.7166 11.4661 28.9709 11.0919 29.4955 10.897C29.575 10.8659 29.6465 10.8425 29.7181 10.8191C30.2188 10.632 30.4493 10.8035 30.4255 11.318L30.4175 11.3258ZM28.2794 2.42416C28.3033 2.05781 28.6292 1.7772 29.0107 1.80059L29.273 1.81617C29.6465 1.83956 29.9327 2.16694 29.9088 2.53329L29.6783 5.71354C29.6545 6.0799 29.3286 6.36051 28.9471 6.33712L28.6848 6.32153C28.3112 6.29815 28.0251 5.97077 28.0489 5.60442L28.2794 2.42416ZM26.5785 15.8467C26.499 16.3534 26.4195 16.8678 26.34 17.3823C26.3082 17.5693 26.3241 17.7486 26.3957 17.9357C26.65 18.5515 26.6739 19.1906 26.4672 19.8532C26.4116 20.0403 26.2844 20.087 26.1175 19.9935C25.7916 19.822 25.4419 19.7129 25.0604 19.6817C24.8616 19.6661 24.7663 19.5648 24.7663 19.3699C24.7663 18.4424 24.7663 17.5148 24.7822 16.6028C24.806 14.5372 25.2432 12.5261 25.1955 10.4138C25.1955 10.1332 25.4657 9.9305 25.736 10.0162C25.8552 10.0552 25.9585 10.1254 26.038 10.2345C26.3162 10.6164 26.4593 11.0607 26.4672 11.5128C26.4831 12.9081 26.7772 14.4826 26.5705 15.8545L26.5785 15.8467ZM23.7091 2.34622H25.8631C26.0698 2.34622 26.189 2.43975 26.2129 2.64242C26.3718 3.95193 26.1572 5.16791 25.5929 6.29035C25.4737 6.53199 25.2909 6.59435 25.0445 6.48522L24.8378 6.39948C24.6152 6.30594 24.496 6.06431 24.5517 5.83046L24.8219 4.64566C24.8855 4.38064 24.7981 4.17019 24.5676 4.02209C24.0827 3.7103 23.7171 3.28159 23.4786 2.71257C23.3674 2.47093 23.4548 2.35401 23.725 2.35401L23.7091 2.34622ZM22.8587 9.6343C23.3912 9.82137 23.5661 10.2189 23.3753 10.8269C22.8189 12.6587 22.6202 14.4982 22.7792 16.3534C22.7951 16.5404 22.7633 16.7353 22.6917 16.9146C22.4533 17.4836 22.4215 18.037 22.5805 18.5671C22.6759 18.8711 22.4056 19.1673 22.0797 19.0971C20.5378 18.7619 20.9908 16.6418 21.1577 15.5427C21.2372 15.0283 21.3326 14.2722 21.4598 13.2822C21.6108 12.0896 21.9287 10.9282 22.4374 9.80578C22.5169 9.61871 22.66 9.55635 22.8507 9.6343H22.8587ZM20.5695 5.30042C20.9829 4.1546 21.0941 3.22702 20.8875 2.53329C20.7921 2.21371 21.0782 1.91751 21.4041 1.97986L21.579 2.01104C22.0002 2.09679 22.199 2.34622 22.191 2.77493L22.1513 4.70802C22.1513 5.12894 21.9367 5.40175 21.5313 5.52647L20.9511 5.70575C20.5536 5.83046 20.4185 5.70575 20.5616 5.30822L20.5695 5.30042ZM18.6699 8.25463L19.3852 8.18448C19.6157 8.16109 19.7827 8.37155 19.7032 8.58201L18.4314 12.1286C18.8845 12.1442 19.1627 11.9571 19.2501 11.5752C19.2978 11.3725 19.3614 11.3647 19.4488 11.5596C19.5204 11.7233 19.5363 11.9104 19.4806 12.1286C19.2024 13.3134 19.0435 14.506 19.0196 15.7142C19.0037 16.4079 18.9322 17.1095 18.7971 17.7876C18.7494 18.037 18.6143 18.0994 18.3838 17.9747C17.9863 17.7486 17.7956 17.3745 17.8353 16.8522C17.883 16.1117 17.891 15.3634 17.8592 14.6151C17.8274 14.0617 18.0261 13.2355 18.4394 12.1286C18.2645 12.2377 18.1374 12.2377 18.034 12.1286C17.9784 12.0663 17.9466 11.9649 17.9466 11.8246C17.9466 10.71 18.0499 9.65768 18.2327 8.66775C18.2725 8.41832 18.4235 8.28581 18.6778 8.26242L18.6699 8.25463ZM16.8895 3.39071C17.0802 2.76713 17.5253 2.34622 17.883 2.44755C18.2407 2.55667 18.3679 3.14908 18.1771 3.77265C17.9863 4.39623 17.5412 4.81715 17.1836 4.71582C16.8259 4.60669 16.6987 4.01429 16.8895 3.39071ZM15.7767 14.506C15.8403 13.7889 15.9277 13.7811 16.0231 14.506C16.0787 14.8957 16.0787 15.4024 16.039 16.0104C16.039 16.1117 15.9834 16.1507 15.88 16.1429C15.7767 16.1429 15.729 16.0883 15.729 15.987C15.729 15.34 15.7529 14.849 15.7846 14.506H15.7767ZM14.966 7.33485C14.9739 7.2569 15.0455 7.18675 15.1329 7.19454L15.4985 7.22572C15.5859 7.23352 15.6495 7.30367 15.6416 7.38941L14.8865 16.0104C14.8785 16.0883 14.807 16.1585 14.7196 16.1507L14.3539 16.1195C14.2665 16.1117 14.2029 16.0416 14.2109 15.9558L14.966 7.33485ZM12.9868 24.226C13.0504 24.0312 13.1458 24.0156 13.2571 24.1949C13.7181 24.912 13.4796 26.0578 13.6863 26.8451C13.7419 27.0399 13.8691 27.1413 14.0758 27.1569C14.5129 27.188 14.807 26.9854 14.958 26.5489C15.0534 26.2761 15.1806 26.0578 15.3316 25.9097C15.5382 25.707 15.6257 25.7538 15.578 26.0344L15.5382 26.315C15.4985 26.5333 15.5939 26.6892 15.8085 26.7671C16.6192 27.0867 17.2074 26.8841 17.5889 26.1669C17.6922 25.9643 17.7797 25.9643 17.8353 26.1981C18.0817 27.1647 18.8924 27.6869 20.2516 27.7493C20.3549 27.7493 20.4503 27.6947 20.4821 27.6012C20.5378 27.4765 20.6172 27.4531 20.7285 27.5388C20.7842 27.5856 20.8318 27.6479 20.8477 27.7181L20.9113 27.8974C20.967 28.0766 21.0862 28.1858 21.2611 28.2325C23.1528 28.7392 25.0683 29.1133 27.0077 29.355C27.0633 29.355 27.8025 29.4953 29.2332 29.7603C30.4096 29.9786 31.6098 29.7759 32.7226 29.9318C34.4076 30.1812 36.0926 30.4151 37.7777 30.6255C38.6043 30.7347 39.2163 30.7113 39.6058 30.5632C40.2894 30.2981 40.7106 29.7759 40.8457 28.973C40.8775 28.7704 40.9888 28.7236 41.1637 28.8483C41.275 28.9263 41.3624 29.0354 41.426 29.1601C41.5055 29.3316 41.6247 29.4563 41.7995 29.5265C42.499 29.8383 42.7692 30.3995 42.6023 31.2179C42.5626 31.4206 42.5626 31.5609 42.6023 31.6466C42.6421 31.7246 42.6977 31.7791 42.7692 31.8103C42.9362 31.8961 43.0792 31.8727 43.1905 31.7324C43.8264 30.9373 44.0648 30.0331 43.8979 29.0276C43.8582 28.7626 43.9138 28.7314 44.0887 28.9497C44.494 29.4407 44.5417 29.963 44.2397 30.5242C44.1443 30.6957 44.1125 30.875 44.1443 31.0698C44.2715 31.8493 44.2397 32.6054 44.041 33.3615C43.9853 33.5486 44.0251 33.7278 44.1364 33.8837C44.4146 34.2891 44.6371 34.7567 44.7961 35.279C44.8517 35.4816 44.7166 35.6843 44.5099 35.7233C42.0459 36.1364 39.5184 36.2689 36.9193 36.1052C28.3271 35.5518 19.9973 33.4784 11.9138 29.885C11.731 29.8071 11.6277 29.6044 11.6595 29.4095C11.9377 27.6401 12.3748 25.9175 12.963 24.2338L12.9868 24.226ZM10.9044 35.3881C10.9521 35.1932 11.0554 35.1621 11.2064 35.2868C12.3828 36.2144 13.9724 37.0562 15.9595 37.8045C24.9093 41.164 33.6684 42.7541 42.2288 42.5749C42.5944 42.5749 42.809 42.7385 42.8646 43.0893L43.6118 47.47C43.6674 47.7817 43.5323 47.961 43.2144 48.0078C33.43 49.4031 22.8189 47.4622 13.8135 43.6817C12.661 43.2062 11.5084 42.7385 10.34 42.2865C10.1493 42.2085 10.0539 42.076 10.0618 41.8733C10.0936 39.6674 10.3798 37.5083 10.9123 35.3803L10.9044 35.3881ZM15.888 46.9009C15.888 47.696 15.7846 48.5456 15.578 49.4576C15.578 49.4654 15.57 49.4732 15.5541 49.4732C15.5541 49.4732 15.5382 49.4732 15.5382 49.4576C15.3872 48.4131 15.729 47.8597 15.8164 46.9009C15.8562 46.3787 15.88 46.3787 15.888 46.9009ZM9.21137 48.8886C9.26701 48.7093 9.49751 48.6548 9.62469 48.7873C9.69622 48.8652 9.73596 48.9588 9.75186 49.0601C9.78365 49.255 9.88698 49.3953 10.0539 49.481L11.1667 50.0188C11.3733 50.1202 11.4846 50.0578 11.4925 49.8318L11.6833 44.2351C11.6833 44.1494 11.731 44.1026 11.8184 44.1026H11.9774C11.9774 44.1026 12.0092 44.126 12.0092 44.1494C11.8979 47.127 11.9218 49.0367 12.0807 49.8707C12.1523 50.2605 12.3907 50.4709 12.804 50.4865C13.0027 50.4865 13.1458 50.4086 13.2094 50.2215C13.7658 48.7015 14.0519 47.1348 14.0519 45.5213C14.0519 45.4355 14.0917 45.3966 14.187 45.3966C14.2745 45.3966 14.3142 45.4433 14.3142 45.5291C14.2268 47.0179 14.044 48.4989 13.7658 49.9721C13.6783 50.432 13.8691 50.7282 14.3222 50.8763L16.1264 51.4609C16.5636 51.6012 16.802 51.4453 16.8497 50.9932C16.9769 49.6369 17.0564 48.2806 17.1041 46.9243C17.1041 46.8386 17.1518 46.7996 17.2392 46.7996C17.3266 46.7996 17.3664 46.8464 17.3664 46.9243C17.3823 48.4209 17.2869 49.9097 17.0961 51.3985C17.0643 51.6168 17.1518 51.7649 17.3664 51.8428C17.8989 52.0455 18.3361 51.8584 18.6699 51.2504C18.7017 51.188 18.7812 51.1647 18.8448 51.1958C18.9083 51.227 18.9481 51.305 18.9163 51.3673C18.6381 52.0611 18.8448 52.4742 19.5442 52.6067C19.9337 52.6846 20.1642 52.5209 20.2198 52.1312L20.8716 47.9143C20.8716 47.9143 20.8875 47.8831 20.9113 47.8909C20.9272 47.8909 20.9431 47.9065 20.9431 47.9221C21.118 50.0344 19.4091 52.9808 22.9143 53.4407C26.5308 53.9162 28.9709 54.1734 30.2268 54.2124C33.3584 54.3137 36.4583 54.3839 39.5263 54.4462C39.9555 54.4618 40.2735 54.8282 40.2019 55.2491C40.1463 55.5609 40.2178 55.7869 40.4086 55.9428C40.5914 56.0909 40.655 56.052 40.5914 55.8259C40.4324 55.2569 40.4722 54.7191 40.7106 54.2124C40.7981 54.0175 40.9332 53.9708 41.1319 54.0643C41.3624 54.1734 41.5293 54.3371 41.6326 54.5632C41.7121 54.7425 41.8631 54.8282 42.0539 54.8282C42.3082 54.8282 42.5229 54.7502 42.6898 54.571C42.8169 54.4463 42.9521 54.4307 43.0951 54.5398C43.3415 54.7269 43.5959 54.836 43.8741 54.8672C44.1046 54.8983 44.2158 54.797 44.2158 54.571C44.2158 53.8928 44.4384 53.3238 44.8597 52.8561C45.1299 52.5599 45.2571 52.6145 45.2491 53.012C45.2094 55.0776 45.0266 57.1432 44.7166 59.2244C44.6848 59.4271 44.5815 59.5518 44.3828 59.6064C43.9933 59.7311 43.6118 59.6765 43.2541 59.4349C43.0951 59.3335 42.9203 59.318 42.7454 59.3959C42.0698 59.6921 41.3783 59.8714 40.655 59.9415C37.6823 60.2066 34.6937 60.3391 31.7052 60.3469C23.3515 60.3469 15.7767 58.1332 8.97292 53.7057C8.64704 53.4875 8.46423 53.1289 8.48808 52.747C8.57551 51.492 8.81396 50.1981 9.18753 48.873L9.21137 48.8886ZM44.1205 65.9747C44.1523 66.1461 44.0251 66.3176 43.8423 66.3332L42.8964 66.4268C42.7216 66.4424 42.6262 66.3722 42.6023 66.1929C42.4911 65.1562 42.8726 64.3534 43.731 63.7843C43.9694 63.6285 44.2953 63.7532 44.3669 64.0338C44.4781 64.4937 44.0012 65.2887 44.1284 65.9669L44.1205 65.9747ZM43.0395 71.3998L44.2715 70.215C44.3748 70.1137 44.5497 70.1526 44.5974 70.293C44.8994 71.1504 44.9232 72.0312 44.6768 72.912C44.6292 73.0913 44.5179 73.1848 44.3351 73.2082L43.1031 73.3875C42.9203 73.4109 42.7772 73.4966 42.6659 73.6291C41.426 75.1335 39.3197 75.8818 36.4583 77.2615C32.7067 79.062 28.6609 79.6934 24.3291 79.1556C22.8984 78.9841 21.6903 78.5164 20.7206 77.7447C19.2024 76.5599 17.8194 75.4063 16.5954 74.2761C16.0072 73.7304 16.0708 73.6369 16.7941 73.9799C17.6446 74.3774 18.7176 74.6346 20.0291 74.7515C25.1398 75.2036 29.6783 74.9074 33.6684 73.8474C37.9605 72.7093 40.9093 71.9844 42.5228 71.6726C42.7295 71.6336 42.8964 71.5401 43.0474 71.3998H43.0395ZM6.15921 64.5716L7.47864 58.7645C7.50248 58.6554 7.62966 58.6086 7.71709 58.6788C13.0663 63.0361 20.4026 64.8522 27.111 65.7019C30.7275 66.1617 35.3455 65.8967 40.9729 64.9068C41.4578 64.821 41.6883 65.0237 41.6724 65.507C41.6724 65.6005 41.6565 65.6863 41.6326 65.772C41.4419 66.3878 40.9093 66.8789 40.2337 67.0659C34.0022 68.8197 28.2556 70.2696 21.8651 69.4433C16.6351 68.7652 11.5641 67.4557 6.66791 65.507C6.29433 65.3589 6.07973 64.9613 6.16716 64.5716H6.15921ZM4.84774 71.3141C4.93517 70.8854 5.20541 70.7061 5.65052 70.7684C11.0315 71.5401 14.8865 75.1491 18.9083 78.1968C20.2675 79.2257 19.7986 81.3615 19.6396 82.7256C19.6237 82.8815 19.584 82.8815 19.5283 82.7411C18.9719 81.2056 18.2804 79.8961 17.4697 78.8438C14.8388 75.4609 9.13189 73.7772 4.91927 73.2705C4.66493 73.2394 4.49006 73.0055 4.5457 72.7561L4.85569 71.3141H4.84774ZM13.6624 92.2118C13.5114 92.3365 13.3366 92.4222 13.1458 92.469C12.7802 92.5547 12.4066 92.6872 12.033 92.8509C11.7151 92.999 11.731 93.0458 12.0728 92.9756C12.3351 92.9289 12.5815 92.9367 12.8199 92.999C13.0266 93.0614 13.0902 93.1783 12.9948 93.3732C12.7643 93.8564 12.3987 94.0279 11.89 93.8876C8.06681 92.8275 4.32315 89.5927 3.77471 85.5005C3.66344 84.6587 3.23423 83.9805 3.25807 83.1309C3.30576 80.6678 3.52037 78.2358 3.90189 75.835C3.99727 75.2426 4.34699 74.9854 4.95107 75.0555C8.47218 75.4765 13.0425 76.3339 15.4747 79.1322C16.1344 79.8961 16.659 80.5041 17.0564 80.9717C18.0102 82.0864 17.891 82.2189 16.6908 81.3459C16.1264 80.9328 15.5541 80.6522 14.9819 80.4885C13.9645 80.2001 12.6371 80.6833 11.5402 80.8704C10.7454 81.0107 9.64058 80.6288 8.79806 81.4862C8.64704 81.6343 8.68678 81.7122 8.89344 81.7356C9.29086 81.7668 9.68033 81.7824 10.0777 81.798C10.4593 81.798 10.8487 81.7512 11.2382 81.6343C12.2556 81.3303 13.2889 81.2134 14.3222 81.2913C14.4334 81.2913 14.497 81.3537 14.4891 81.4706C14.4891 81.5174 14.4652 81.5641 14.4255 81.6187C14.3937 81.6499 14.3539 81.6733 14.2983 81.6811C13.0902 81.9305 11.89 82.2423 10.7057 82.6242C10.5944 83.1932 10.2685 83.4972 9.72802 83.5284C9.49751 83.544 9.44982 83.4739 9.61674 83.3024C9.91878 82.9906 10.2765 82.7645 10.7057 82.6242L10.6898 82.2969C10.6898 82.0786 10.5785 82.0007 10.3639 82.0786C9.73596 82.2969 9.30675 82.6866 9.06036 83.24C8.97292 83.4349 8.82985 83.5596 8.61525 83.6142C7.09712 84.0195 5.68231 84.6275 4.36289 85.4459C4.22777 85.5239 4.14828 85.672 4.15623 85.8279L4.18803 86.3423C4.18803 86.4826 4.37084 86.5372 4.46622 86.4359C5.73795 84.9627 7.18455 85.1108 8.87754 84.5028C9.72802 84.2066 10.4195 84.1988 11.2303 83.7701C12.041 83.3413 12.8835 82.9204 13.7658 82.4917C14.0917 82.3358 14.1393 82.3904 13.9009 82.6632C13.114 83.5596 12.4861 84.0429 12.0092 84.1208C9.32265 84.5807 6.98584 85.6096 4.99876 87.1997C4.66493 87.4648 4.70467 87.5505 5.12593 87.457C5.95256 87.2621 6.80303 87.0205 7.6694 86.7165C8.81396 86.3189 9.83929 85.5317 10.9918 85.1341C11.572 84.9393 11.6436 85.0562 11.1985 85.4693C10.4434 86.1864 9.32265 86.8412 7.86016 87.4336C7.44684 87.5973 7.24019 87.8623 7.23224 88.2209C7.23224 88.4313 7.33557 88.5326 7.54222 88.5326C10.0857 88.5326 10.9839 86.9503 12.6451 85.672C12.804 85.5473 12.9073 85.3992 12.9471 85.2043C12.9948 85.0094 13.0822 84.8379 13.2094 84.682C13.885 83.8792 14.7037 82.9984 15.6495 82.0396C15.7449 81.9383 15.9039 81.9461 15.9993 82.0474L16.1105 82.1721C16.2218 82.2969 16.19 82.4839 16.0549 82.5697C14.8706 83.3569 14.1393 84.3313 13.877 85.5005C13.7896 85.9136 13.5114 86.2644 13.1299 86.4592L11.1031 87.5037C10.8726 87.6285 10.8805 87.7298 11.1269 87.8155C11.4925 87.9402 11.8582 87.8701 12.2158 87.5895L12.2794 87.722C12.3192 87.7921 12.2794 87.8701 12.2158 87.9013C11.0077 88.4781 9.73596 88.9536 8.38475 89.3277C8.18604 89.3823 8.00323 89.3511 7.83631 89.2264C7.38326 88.9068 6.99379 88.938 6.65996 89.3355C6.52484 89.4914 6.50894 89.6551 6.62022 89.8344C7.76478 91.6505 10.96 89.9591 12.4384 89.2653C13.2809 88.8756 14.2904 89.0939 14.958 88.5716C16.3887 87.4414 17.3823 85.9448 17.9386 84.0974C18.1135 83.5284 18.0022 83.0296 17.6287 82.6008C17.5969 82.5619 17.5969 82.4995 17.6287 82.4683L17.7399 82.3592C17.7399 82.3592 17.7638 82.3436 17.7797 82.3592C18.1056 82.6398 18.3758 82.9594 18.6063 83.3102C18.7176 83.4817 18.7494 83.6687 18.7176 83.8636C18.344 85.9214 17.3664 87.6285 15.7767 88.9769C15.2283 89.4446 14.5606 89.2498 14.0042 89.6161C12.5099 90.5827 10.9839 91.1673 9.40213 91.3699C8.94113 91.4323 8.90139 91.5882 9.29086 91.8454L9.94262 92.2741C10.3082 92.5157 10.6977 92.5703 11.119 92.43C12.9153 91.8376 13.885 90.9412 14.9819 90.0292C15.9675 89.203 16.0946 89.3199 15.3713 90.3644C14.9501 90.9724 14.3778 91.5726 13.6465 92.1806L13.6624 92.2118ZM16.9213 83.8402C15.9277 85.025 15.8721 87.379 14.1791 87.9169C12.8199 88.3456 12.7325 88.1663 13.9247 87.4024C15.3634 86.467 15.2283 84.2611 16.659 83.5284C17.2789 83.2088 17.3664 83.3102 16.9213 83.8402ZM21.6028 93.4589C21.4757 93.6538 21.3008 93.7863 21.0782 93.872C20.1642 94.2306 19.7827 94.8932 19.9416 95.8597C19.9814 96.0702 19.8462 96.2728 19.6396 96.343L19.417 96.4131C19.0832 96.5145 18.7414 96.2962 18.6937 95.9532C18.6143 95.3219 18.4871 94.3865 17.7081 94.2384C17.3902 94.176 17.3584 94.254 17.5969 94.4566C17.9386 94.7295 18.0181 95.127 17.8433 95.6259C17.7876 95.774 17.7002 95.8051 17.573 95.7194L17.4061 95.6103C17.271 95.5245 17.2233 95.353 17.2869 95.2049C17.3266 95.0958 17.3584 94.9867 17.3664 94.8698C17.3664 94.6203 17.2551 94.519 17.0007 94.5736C16.7464 94.6359 16.5318 94.7762 16.3808 95.0023C16.1741 95.2907 15.9357 95.3297 15.6495 95.1192L15.5144 95.0101C15.2362 94.8074 15.2044 94.5736 15.4111 94.3008C17.581 91.4479 19.8065 87.9013 19.9496 84.2144C19.9496 84.0117 20.0609 83.9493 20.2516 84.0195C25.8472 86.0773 31.1965 85.7967 36.2834 83.1699C39.3912 81.5719 41.9824 80.3482 44.4781 78.6645C44.653 78.5398 44.7643 78.5866 44.804 78.7892C45.1061 80.2468 45.8612 81.4706 47.0613 82.4761C47.3793 82.7334 47.3554 83.2166 47.0137 83.4427C41.2829 87.3478 36.1006 89.0627 28.6371 90.4735C28.5894 90.4813 27.7469 90.5749 26.1175 90.7308C24.2178 90.9178 22.7156 91.822 21.6108 93.4433L21.6028 93.4589ZM26.3957 97.4109C26.3798 97.2783 26.5705 97.1458 26.8169 97.1224C27.0633 97.0991 27.27 97.1848 27.2859 97.3251C27.3018 97.4576 27.111 97.5901 26.8646 97.6135C26.6182 97.6369 26.4116 97.5512 26.3957 97.4109ZM37.4677 99.609C34.9719 100.388 33.2789 101.963 32.3887 104.34C32.3013 104.566 31.9913 104.613 31.8482 104.403C31.4747 103.873 31.0296 103.374 30.497 102.906C30.0837 102.548 29.6704 102.657 29.2412 103.218C29.1776 103.304 29.0425 103.327 28.955 103.265L28.812 103.171C28.6768 103.078 28.6292 102.898 28.7086 102.75C29.0822 102.08 29.5989 101.737 30.2506 101.729C30.4732 101.729 30.5686 101.62 30.5368 101.402C30.5288 101.316 30.497 101.246 30.4493 101.176C30.3381 101.004 30.187 100.965 30.0042 101.067C29.6306 101.269 29.2332 101.394 28.7961 101.449C28.6053 101.472 28.4622 101.565 28.3748 101.737C28.0807 102.259 27.6992 102.353 27.2064 102.002C26.6421 101.612 26.4752 101.121 26.6977 100.537C26.7851 100.31 26.8487 100.318 26.8805 100.552C26.9203 100.778 26.9123 101.012 26.8646 101.254C26.8328 101.472 26.9839 101.667 27.2064 101.682C27.4131 101.698 27.5879 101.643 27.7389 101.503C28.0887 101.191 28.2079 100.817 28.0887 100.373C27.9853 100.007 27.8264 99.796 27.5959 99.7415C27.4528 99.7025 27.4369 99.6401 27.5402 99.5388C28.6212 98.5411 29.6942 97.5512 30.7752 96.5534C32.3887 95.0646 33.8194 95.1971 35.7509 94.6437C42.1016 92.8275 49.2869 89.4992 53.4915 84.2767C53.6028 84.1442 53.7936 84.1208 53.9367 84.2299C55.4707 85.4303 57.1557 86.3891 59.0077 87.114C59.9535 87.4882 59.9535 87.8623 59.0077 88.2364C58.8328 88.3066 58.5387 88.5015 58.1175 88.8366C57.9347 88.9769 57.887 88.9458 57.9585 88.7275C58.0142 88.556 58.1095 88.4079 58.2288 88.291C58.3559 88.1585 58.3559 88.026 58.2049 87.9169C57.3624 87.2699 56.4324 86.8568 55.3912 86.6697C55.1925 86.6385 55.0812 86.7165 55.0574 86.9113C54.9064 88.1429 55.3991 88.9769 56.5517 89.4134C56.806 89.507 56.8298 89.8422 56.5993 89.9747C52.657 92.2118 48.7146 94.4566 44.7881 96.7093C42.3957 98.0734 40.0509 98.7905 37.4836 99.5934L37.4677 99.609ZM44.5735 112.611C44.2238 112.611 43.9218 112.517 43.6833 112.361C42.3162 111.48 40.9809 110.584 39.6773 109.68C39.5502 109.586 39.4707 109.446 39.4627 109.29C39.4548 109.119 39.5263 108.963 39.6853 108.838C39.8761 108.682 40.0032 108.729 40.0668 108.955C40.1463 109.22 40.3132 109.469 40.5676 109.695C40.7663 109.867 40.814 109.836 40.7027 109.594C40.6709 109.516 40.6788 109.446 40.7186 109.384C40.806 109.251 40.9093 109.243 41.0206 109.36C42.197 110.584 43.4051 111.597 44.6451 112.4C44.8676 112.548 44.8438 112.618 44.5735 112.611ZM52.7285 111.473C52.7126 111.512 52.6729 111.535 52.6252 111.512L52.4503 111.441C52.3549 111.402 52.3231 111.34 52.3708 111.254C53.1577 109.43 53.7459 107.567 54.1433 105.673C54.1831 105.471 54.1195 105.416 53.9367 105.525C53.571 105.743 53.3008 106.047 53.11 106.445C53.0305 106.616 52.8875 106.718 52.7047 106.757C50.8845 107.115 50.2327 108.776 49.2869 110.116C49.1677 110.288 49.0087 110.389 48.81 110.444L47.8959 110.662C47.5859 110.74 47.5303 111.145 47.8005 111.309C49.0087 112.01 50.2407 111.738 51.6237 112.424C51.7906 112.509 51.9416 112.533 52.0688 112.509C52.1562 112.494 52.2437 112.47 52.3231 112.424C52.4742 112.361 52.5377 112.4 52.5219 112.556C52.5219 112.642 52.4901 112.728 52.4583 112.805C52.3788 112.985 52.2437 113.032 52.0608 112.954C51.2819 112.611 50.4791 112.385 49.6446 112.26C48.6033 112.104 47.8164 111.909 47.2918 111.667C45.0663 110.67 42.9521 109.477 40.957 108.082C40.7981 107.973 40.7742 107.84 40.9173 107.692C43.4846 104.98 45.9327 102.93 48.2457 101.534C51.6873 99.4609 55.0812 97.3329 58.8646 95.8831C61.5194 94.862 63.2203 93.0692 63.9595 90.4891C64.0549 90.1539 64.4364 89.9903 64.7464 90.1539L70.652 93.2485C70.8825 93.3732 70.8746 93.4667 70.6282 93.5447C69.9526 93.7473 69.2849 93.8487 68.649 94.1526C65.112 95.8285 61.7976 97.8629 58.6977 100.248C56.7822 101.729 55.4548 103.514 54.7871 105.868C54.2546 107.747 53.579 109.61 52.7523 111.465L52.7285 111.473ZM51.417 109.727C51.1786 109.976 50.7494 109.828 50.7335 109.477C50.6778 108.464 51.1706 107.825 52.196 107.56C52.2596 107.544 52.4026 107.482 52.6331 107.365C52.6808 107.334 52.7365 107.318 52.7921 107.31C52.8477 107.295 52.8716 107.31 52.8477 107.365C52.5298 108.269 52.0529 109.048 51.425 109.719L51.417 109.727ZM51.7509 110.958C51.6873 111.137 51.2024 111.114 50.6858 110.927C50.1612 110.74 49.7876 110.444 49.8512 110.272C49.9148 110.093 50.3997 110.116 50.9163 110.303C51.4409 110.49 51.8145 110.787 51.7509 110.958ZM55.1528 114.247C55.4707 111.044 55.725 107.638 57.2273 104.831C57.7916 103.771 58.6818 102.742 59.882 101.737C62.2109 99.796 64.802 98.2917 67.6555 97.2238C67.8383 97.1536 68.0052 97.1848 68.1403 97.3329C68.9749 98.1825 69.5869 99.1647 69.9764 100.264C70.2149 100.934 70.3261 101.893 70.3102 103.132C70.2943 104.107 70.3102 105.089 70.3579 106.071C70.3579 106.133 70.3341 106.157 70.2705 106.164C70.2148 106.164 70.1831 106.141 70.1751 106.086C69.889 103.499 69.6028 100.568 68.0767 98.4475C67.6396 97.8318 67.5045 97.8941 67.6793 98.619C68.3231 101.324 68.7444 104.114 68.9511 106.998C69.0146 107.965 68.9113 107.996 68.6172 107.061C67.8542 104.629 67.727 101.924 66.0817 99.6323C65.9784 99.492 65.8671 99.4765 65.7399 99.5856C65.6684 99.6479 65.6525 99.7337 65.6922 99.8584C66.2804 101.784 66.6301 103.156 66.7255 103.958C66.9242 105.65 67.1388 107.334 67.3693 109.017C67.3693 109.041 67.3693 109.056 67.3375 109.064L67.1627 109.095C67.0753 109.111 67.0117 109.072 66.9958 108.986C66.2168 105.798 65.7876 103.117 64.3569 100.778C64.341 100.763 64.3251 100.755 64.3013 100.763L64.1423 100.825C64.0708 100.856 64.0549 100.903 64.0867 100.981C64.3092 101.48 64.5397 101.979 64.7861 102.47C64.8656 102.626 64.8577 102.758 64.7623 102.883C64.6272 103.054 64.5397 103.039 64.5 102.82C64.4444 102.594 64.341 102.392 64.1821 102.236C64.0231 102.08 63.9357 102.103 63.9118 102.329C63.8323 103.101 63.888 103.686 64.0867 104.091C64.8656 105.712 65.3425 107.209 65.5253 108.581C65.6525 109.516 65.5412 109.547 65.1835 108.659C64.4364 106.804 63.6257 104.987 62.7434 103.202C62.2029 102.111 62.036 102.166 62.2268 103.358C62.4255 104.613 62.9103 106.079 63.6734 107.77C63.9516 108.37 64.1105 109.017 64.1423 109.703C64.1582 109.937 64.0867 109.96 63.9436 109.766C62.6878 108.082 61.7817 106.071 61.2571 103.732C61.1855 103.436 60.9232 103.226 60.6133 103.226C60.5656 103.226 60.5338 103.257 60.502 103.311C60.4543 103.413 60.4543 103.506 60.502 103.608C60.8517 104.247 60.963 104.925 60.8358 105.626C60.804 105.821 60.8199 106.008 60.8994 106.196L62.2983 109.649C62.6401 110.483 62.4334 110.639 61.7022 110.093C60.812 109.438 59.9615 108.596 59.1587 107.56C59.0395 107.404 58.9759 107.232 58.9679 107.037C58.9521 106.609 58.8567 106.203 58.6659 105.837C58.5705 105.642 58.4434 105.619 58.2764 105.767C58.0062 106.008 57.9029 106.32 57.9585 106.687C57.9903 106.874 57.9108 106.936 57.728 106.881C57.5055 106.819 57.267 106.718 57.0206 106.585C56.8855 106.515 56.8139 106.554 56.8139 106.71V106.952C56.8139 107.03 56.8457 107.076 56.9093 107.115C57.4896 107.427 57.9347 107.583 58.348 108.129C59.2541 109.313 60.9789 111.691 62.6321 111.27C63.0931 111.153 63.1567 111.27 62.8229 111.597C62.3778 112.034 61.7976 112.221 61.0743 112.143C60.8755 112.127 60.7245 112.042 60.5974 111.893C59.5879 110.67 58.3162 109.586 56.7901 108.62C56.7345 108.581 56.647 108.62 56.6391 108.69L56.4722 110.288C56.4722 110.374 56.504 110.42 56.5835 110.444C57.0047 110.545 57.3544 110.787 57.6485 111.169C57.7757 111.34 57.7519 111.48 57.5849 111.597C57.2193 111.854 56.814 111.777 56.3688 111.379C55.8602 110.919 55.6694 111.013 55.7966 111.691C55.8125 111.792 55.9078 111.956 56.0748 112.182C56.194 112.33 56.2258 112.501 56.1622 112.681C55.9317 113.343 55.7171 113.897 55.5104 114.341C55.1686 115.082 55.0494 115.05 55.1289 114.24L55.1528 114.247ZM68.2119 110.327L67.6714 110.989C67.5919 111.091 67.5522 111.075 67.5522 110.95C67.5681 110.444 67.735 110.163 68.0688 110.093C68.339 110.031 68.3947 110.108 68.2198 110.327H68.2119ZM58.7772 114.528C58.9838 114.006 59.3733 113.725 59.9376 113.694C61.2412 113.616 62.4573 113.25 63.57 112.603C63.6336 112.564 63.6893 112.579 63.7211 112.642C63.7608 112.712 63.737 112.766 63.6734 112.805C62.3937 113.499 61.0107 113.951 59.5482 114.146C59.3415 114.177 59.1587 114.263 59.0156 114.419L58.8487 114.59C58.7136 114.739 58.6898 114.715 58.7613 114.528H58.7772ZM58.5308 112.844C58.5308 112.611 58.5864 112.392 58.6739 112.197C58.7613 112.003 58.9123 111.925 59.119 111.948L60.041 112.081C60.1682 112.096 60.2397 112.166 60.2476 112.299C60.2476 112.361 60.2317 112.424 60.184 112.486C60.1364 112.548 60.0728 112.572 59.9933 112.556L59.6277 112.462C59.4449 112.408 59.2859 112.462 59.1667 112.618C59.0554 112.751 58.9362 112.876 58.7931 112.977C58.6103 113.109 58.5228 113.063 58.5228 112.844H58.5308ZM57.4021 114.209C57.2591 114.544 56.7663 114.551 56.6152 114.224C56.5596 114.107 56.6947 113.733 57.0365 113.102C57.108 112.969 57.2988 112.969 57.3703 113.102C57.569 113.437 57.577 113.811 57.4021 114.216V114.209ZM76.6292 106.086C74.6977 110.116 71.6138 113.226 67.3932 115.401C64.0072 117.147 59.3097 117.475 55.574 116.672C55.4707 116.648 55.4389 116.594 55.4548 116.5L55.4945 116.352C55.5104 116.259 55.574 116.227 55.6694 116.243C59.6197 117.061 63.2601 116.672 66.5904 115.089C72.8298 112.104 76.3669 107.474 77.2014 101.184C77.3524 100.053 77.4796 100.053 77.583 101.184C77.734 102.828 77.416 104.457 76.6371 106.086H76.6292Z" fill="black"/>
</g>
<defs>
<clipPath id="clip0_2284_1033">
<rect width="80" height="120" fill="white" transform="translate(0.5)"/>
</clipPath>
</defs>
</svg>
