<svg width="140" height="141" viewBox="0 0 140 141" fill="none" xmlns="http://www.w3.org/2000/svg">
<g clip-path="url(#clip0_2205_4)">
<path d="M138.32 55.4454C129.917 17.7078 92.5298 -6.13382 54.8063 2.20611C17.0712 10.5345 -6.71026 47.8909 1.68047 85.6401C10.0828 123.378 47.4702 147.219 85.2053 138.879C122.929 130.551 146.71 93.1946 138.32 55.4454ZM55.9884 8.90578C62.8725 7.34638 68.6904 7.09225 68.9801 8.32822C69.2583 9.57575 63.904 11.8513 57.0199 13.4107C50.1358 14.9701 44.3179 15.2243 44.0282 13.9883C43.75 12.7408 49.1043 10.4652 55.9884 8.90578ZM35.9156 16.7259L36.5298 16.4025C37.6076 15.8365 38.6507 15.8942 39.659 16.5642C43.101 18.8513 46.6589 19.9602 50.7152 19.3711C58.7815 18.2045 67.856 15.282 74.6705 10.3612C75.9106 9.47179 77.2202 8.69786 78.5993 8.03945C79.5844 7.5774 80.1292 7.78532 80.2335 8.66321C80.2682 8.94044 80.1755 9.21766 79.9785 9.41403C72.9901 16.4256 64.4023 20.7573 54.2037 22.4091C47.1689 23.5526 41.0381 22.2936 35.7881 18.6434C34.7798 17.9388 34.8262 17.3035 35.9156 16.7259ZM25.2417 25.5163C25.2765 25.3893 25.3113 25.2738 25.346 25.1583C25.6474 24.0493 26.2268 23.8761 27.0844 24.65C29.3676 26.7292 31.6739 28.2193 34.0033 29.1088C52.0017 36.0394 74.2417 24.0493 88.2881 12.3596C89.3891 11.4355 90.8493 10.8926 92.159 11.0427C92.495 11.0774 92.6689 11.4701 92.4603 11.7358C85.808 20.2028 74.995 26.6137 65.2136 30.7837C53.2997 35.8662 36.5182 38.0147 26.053 28.3464C25.207 27.5724 24.9404 26.6253 25.2417 25.5163ZM17.9172 34.3299C18.1606 34.018 18.659 34.122 18.7633 34.5147C18.9835 35.3579 19.25 36.2243 19.5861 37.1137C22.1358 43.8596 32.9603 46.8051 39.207 47.0939C63.9272 48.2837 84.3129 32.4239 101.813 16.0906C102.253 15.6863 102.717 15.6517 103.204 16.0097L103.47 16.2061C103.748 16.4025 103.806 16.8068 103.586 17.0724C96.2964 25.8975 87.4884 33.5213 77.1739 39.9437C67.6242 45.8926 56.3477 50.4091 45.048 50.6517C35.4288 50.8596 26.5629 49.82 19.3311 43.3629C15.9934 40.3827 15.5182 37.3678 17.9172 34.3299ZM9.37584 51.4025C9.43378 50.9982 9.92054 50.8365 10.2103 51.1137C15.0431 55.7457 21.6954 57.6286 28.7417 58.3216C38.755 59.3035 48.4205 58.2639 57.7268 55.1913C66.4073 52.315 72.0745 50.0741 74.7517 48.4685C77.452 46.8513 80.2219 45.2226 83.0729 43.5823C92.3907 38.2226 100.77 30.98 108.57 23.1484C109.045 22.6632 109.555 22.617 110.099 22.9982C110.435 23.2408 110.517 23.5411 110.32 23.9107C109.589 25.2853 109.033 26.1863 108.662 26.6137C103.053 33.1632 96.7484 38.9272 89.7599 43.9058C84.7301 47.4751 78.3328 50.7094 72.5613 53.9091C67.1258 56.9239 59.6623 59.4074 50.1705 61.3711C43.356 62.7804 35.6838 62.9998 27.1424 62.0295C21.8924 61.4289 16.9321 59.5807 12.2616 57.1434C10.0133 55.9652 9.05133 54.0477 9.37584 51.4025ZM9.15564 65.4833C9.59604 64.5477 10.9056 64.4668 11.4619 65.3447C12.1921 66.5114 11.601 67.8282 9.68875 69.2952C9.10928 69.7342 8.77319 69.5956 8.69206 68.8678C8.5414 67.5626 8.70365 66.4421 9.15564 65.4833ZM8.39074 81.8051L8.26325 81.6434C7.83445 81.0774 7.93875 80.2688 8.51822 79.8299L21.9967 69.7111C22.5646 69.2837 23.3758 69.3992 23.8162 69.9652L23.9437 70.1269C24.3725 70.6929 24.2682 71.5015 23.6888 71.9404L10.2103 82.0592C9.64239 82.4866 8.83113 82.3711 8.39074 81.8051ZM12.3311 96.1632C12.505 94.6731 13.2351 93.3909 14.5447 92.3051C22.3676 85.8018 30.6076 78.3167 39.2881 69.8497C40.6209 68.5444 42.197 67.5741 44.0397 66.9157C44.2484 66.8348 44.457 66.8117 44.6656 66.8464C44.9437 66.8926 45.0712 67.216 44.8974 67.4355C43.1242 69.6071 41.2931 71.6632 39.404 73.6038C31.8129 81.4239 23.1209 89.1286 13.351 96.7408C12.9106 97.0873 12.2616 96.7177 12.3311 96.1632ZM17.9636 106.051C17.6043 105.485 17.6159 104.827 18.0099 104.076C18.4272 103.279 18.9719 102.574 19.6325 101.95C31.3146 91.15 40.9338 81.9784 48.4785 74.4355C51.9205 70.9932 55.5133 67.8744 59.2335 65.0906C61.0993 63.6929 61.4354 63.9817 60.2186 65.98C59.6623 66.8926 59.048 67.6896 58.3874 68.3711C54.7484 72.0559 51.1325 75.8447 47.25 79.2639C43.6225 82.4751 40.25 86.2061 36.8195 89.2903C33.9801 91.8546 31.4421 94.6153 28.4752 97.0642C25.7748 99.2936 22.7964 102.32 19.5166 106.155C19.0993 106.652 18.3113 106.594 17.9636 106.051ZM24.6159 113.548C24.0712 113.201 23.909 112.716 24.1407 112.081C24.5811 110.902 25.3113 109.851 26.3195 108.939C43.3444 93.518 58.0861 78.5015 70.5447 63.8893C72.9669 61.0592 76.0844 58.518 78.808 55.9767C80.9636 53.9668 81.4735 54.3134 80.3262 57.0279C80.2914 57.1203 79.7467 57.7441 78.7037 58.8876C70.8808 67.4355 63.0464 75.9833 55.2235 84.5427C54.0298 85.8365 52.1987 87.6616 49.7186 90.018C47.2037 92.4206 44.6656 95.3084 42.4636 97.4569C37.0629 102.701 31.3957 108.038 25.4503 113.467C25.1954 113.709 24.9172 113.733 24.6159 113.548ZM32.8096 121.01C32.2997 121.518 31.4189 121.206 31.3378 120.49C31.2335 119.508 31.5811 118.607 32.3692 117.787C44.9437 104.861 58.0977 92.2012 69.9421 78.848C78.0546 69.7111 85.9702 60.3546 94.5232 51.622C99.6457 46.3893 104.444 40.8909 109.74 35.8084C112.093 33.5559 114.422 31.1995 116.705 28.7507C116.786 28.6583 116.937 28.6352 117.041 28.716L117.331 28.947C117.609 29.1665 117.667 29.5477 117.47 29.8365C116.068 31.9388 114.654 33.7408 113.205 35.2424C99.4835 49.5543 85.2864 65.1368 70.6027 81.9899C68.6556 84.2193 66.5811 86.4718 64.3676 88.7474C61.702 91.5081 59.1871 94.5576 56.5679 97.1335C51.3874 102.239 46.3229 107.437 41.351 112.739C38.6854 115.581 35.6722 118.226 32.8096 121.01ZM42.846 127.063C42.3709 127.432 41.8957 127.548 41.409 127.398C40.8758 127.236 40.6788 126.589 41.0149 126.15C42.5331 124.198 44.0629 122.361 45.6043 120.64C61.0993 103.233 75.6788 86.6913 89.3311 71.0279C96.899 62.3414 107.805 51.1946 122.025 37.5758C122.291 37.3216 122.709 37.3101 122.987 37.5527C123.277 37.8068 123.404 38.0956 123.392 38.4074C123.358 39.1121 123.149 39.6434 122.778 40.013C109.068 53.5394 98.1391 64.8942 90.0033 74.089C76.2119 89.6715 62.096 105.797 47.6672 122.465C46.207 124.152 44.596 125.688 42.846 127.063ZM53.2417 131.001L52.1987 131.152C51.7003 131.221 51.596 131.048 51.8858 130.632C58.1209 121.726 63.4172 114.865 67.7748 110.059C75.6325 101.373 83.7798 92.3051 92.2053 82.8447C103.528 70.1269 114.642 59.1302 126.626 47.5097C127.02 47.1286 127.68 47.3018 127.831 47.8332C127.866 47.9718 127.889 48.1104 127.877 48.2606C127.843 49.1731 127.483 50.0163 126.881 50.6055C108.303 68.8909 95.2533 81.8629 80.9172 99.1896C76.9884 103.937 72.9321 108.558 68.7484 113.074C63.5679 118.642 59.3146 124.36 54.7599 130.135C54.3659 130.632 53.856 130.921 53.2417 131.001ZM65.3411 132.399C64.8775 132.907 64.2748 133.219 63.5331 133.346C63.0927 133.427 62.9537 133.254 63.1275 132.838C63.8576 131.048 64.808 129.5 65.9669 128.171C75.3891 117.44 86.202 104.734 98.4172 90.0526C103.818 83.5493 112.116 75.117 123.323 64.7556C126.081 62.2144 128.399 59.8117 131.748 57.8827C131.899 57.7903 132.084 57.8365 132.177 57.9866C132.351 58.2523 132.281 58.5989 131.945 59.0031C130.485 60.8051 129.013 62.4569 127.53 63.947C122.593 68.9371 117.424 74.0774 112.023 79.3794C95.4619 95.6319 79.1904 117.152 65.3411 132.399ZM128.99 90.6649C126.359 94.3959 123.033 98.3117 119.012 102.412C109.474 112.15 100.503 120.894 92.101 128.645C91.0927 129.581 89.9454 130.308 88.6821 130.817C88.1027 131.048 87.9636 130.898 88.2649 130.355C89.4239 128.264 90.8725 126.416 92.6225 124.799C95.6126 122.026 97.6871 119.924 100.19 117.521C108.083 109.967 117.123 101.119 127.333 90.9767C127.657 90.6533 128.051 90.4685 128.503 90.4338L128.851 90.4107C128.99 90.3992 129.071 90.5493 128.99 90.6649ZM132.177 74.1236C129.106 77.6005 125.884 80.9965 122.523 84.2886C111.363 95.216 100.538 106.582 89.8527 117.891C86.2136 121.737 82.5513 125.7 78.8775 129.777C77.8808 130.886 76.7798 131.822 75.5861 132.572C74.4388 133.3 74.1258 133.035 74.6242 131.775C75.0762 130.632 75.7599 129.546 76.6755 128.53C90.1772 113.478 104.108 98.8431 118.467 84.6236C122.685 80.4421 127.298 76.7457 131.667 72.6451C131.887 72.4487 132.05 72.4718 132.177 72.7375L132.328 73.0262C132.513 73.3843 132.455 73.8233 132.177 74.1236Z" fill="black"/>
</g>
<defs>
<clipPath id="clip0_2205_4">
<rect width="140" height="140" fill="white" transform="translate(0 0.542969)"/>
</clipPath>
</defs>
</svg>
