<svg width="140" height="141" viewBox="0 0 140 141" fill="none" xmlns="http://www.w3.org/2000/svg">
<g clip-path="url(#clip0_2205_2)">
<path d="M118.054 19.9164C116.46 18.3463 114.316 16.0894 111.795 16.1581C111.438 16.1679 111.148 16.3151 110.906 16.5898C110.114 17.522 109.583 18.5916 109.303 19.8084C106.811 30.9068 101.489 40.386 93.3461 48.2363C87.4153 53.9474 78.4613 57.1169 70.5118 54.2516C63.3157 51.661 57.7424 46.9802 53.7918 40.1995C48.4792 31.0834 44.6638 22.3303 42.3456 13.9403C42.2491 13.5969 42.3939 13.2338 42.6934 13.0376C43.0894 12.7922 43.4178 12.7628 43.6883 12.9492C44.7121 13.6361 45.4656 14.4702 45.9389 15.4515C49.8991 23.6649 53.2219 32.8988 58.7662 40.6019C64.7453 48.9232 74.4431 53.859 84.1698 48.1676C95.0074 41.8187 102.957 29.425 104.155 16.4328C104.628 11.389 101.779 7.14985 96.2341 7.90544C95.8091 7.96432 95.5097 8.35683 95.558 8.77878C95.7222 10.2409 95.8671 11.7226 96.012 13.2142C96.7461 21.0547 91.6654 25.8433 85.3869 29.0718C83.6386 29.9746 83.4261 29.69 84.7494 28.2181C87.5699 25.0779 90.3131 22.5658 90.9506 17.9832C91.5108 14.0287 91.279 10.3685 90.2551 6.98303C89.0381 2.9892 83.8125 2.09623 80.2869 2.43968C79.9584 2.46912 79.7749 2.65556 79.7266 2.97939C79.4658 4.88308 79.8425 6.91434 79.263 8.49421C78.5579 10.4273 77.138 11.4969 75.013 11.7128C70.6663 12.1642 71.8834 5.93306 72.7817 3.74479C73.255 2.59669 72.5595 1.29158 71.3425 1.07569C69.9998 0.830373 68.7055 0.732245 67.4402 0.781309C54.719 1.26214 43.3502 4.77514 33.324 11.3203C18.642 20.9075 8.68344 33.831 3.44817 50.0909C-6.80987 81.9532 6.48115 113.845 34.116 131.184C45.3883 138.259 59.423 141.282 72.7237 140.693C90.6415 139.898 106.193 133.284 119.378 120.832C132.62 108.34 139.488 92.767 139.971 74.1226C140.521 52.8974 133.219 34.8319 118.054 19.9164ZM90.458 33.1245C90.7767 32.8007 90.8926 32.8693 90.8153 33.3109C90.4869 35.2441 89.7142 36.7454 88.5068 37.815C85.4931 40.4841 81.4363 42.8785 77.3408 42.5841C70.7243 42.1032 65.8078 39.2281 62.5913 33.9782C62.3884 33.6446 62.3111 33.2913 62.3691 32.9086C62.456 32.3983 63.0742 32.1923 63.4316 32.575C69.0339 38.6099 75.2738 41.8285 83.4164 38.0407C86.15 36.7749 88.4972 35.1361 90.458 33.1245ZM61.4322 4.84383C62.2049 4.07843 63.4992 4.50038 63.7117 5.56998C64.9095 11.703 67.0345 21.7416 75.9112 20.0636C79.8136 19.3276 83.0011 15.6085 84.4693 11.9189C84.5755 11.6441 84.9329 11.5754 85.1358 11.7913C85.3579 12.0367 85.5125 12.3801 85.5994 12.8119C87.4443 22.0261 77.3988 26.6971 70.2606 23.5962C63.7407 20.7799 60.4952 13.9894 60.6305 6.74752C60.6498 5.99194 60.9202 5.3541 61.4322 4.84383ZM133.731 60.6201L133.818 62.3766C133.866 63.3481 133.49 64.0742 132.669 64.5551C129.558 66.3901 126.274 68.2251 123.26 70.433C118.479 73.9361 113.65 77.3706 108.772 80.7266C101.595 85.6723 93.7614 89.0577 85.2903 90.8928C85.0971 90.932 84.9136 90.8143 84.8556 90.6278L84.7977 90.3825C84.7784 90.304 84.8074 90.2549 84.875 90.2451C86.7005 89.8428 88.4585 89.1853 90.1392 88.2924C98.5234 83.8177 106.975 77.8318 115.495 70.325C120.44 65.9583 126.033 62.4158 132.263 59.6977C133.18 59.2954 133.673 59.5996 133.731 60.6201ZM114.896 23.6845C115.379 23.4098 116.016 23.6256 116.325 24.1653C116.634 24.7149 116.489 25.3821 116.006 25.6569C115.524 25.9317 114.886 25.7158 114.577 25.1761C114.268 24.6265 114.413 23.9593 114.896 23.6845ZM59.9446 60.9832C60.0509 60.6397 60.2634 60.5612 60.5628 60.7379C63.9339 62.6906 67.4788 65.2714 71.2555 65.8503C76.6647 66.6746 81.7647 65.4186 86.5653 62.0724C93.5875 57.1856 99.045 50.5914 104.164 43.6635C108.047 38.4038 113.447 32.4965 120.218 31.103C121.261 30.897 122.314 31.3483 122.893 32.2413C124.024 34.0174 124.593 34.9006 124.593 34.9006C125.221 35.8917 124.961 36.402 123.801 36.451C118.528 36.6571 111.853 42.535 108.53 46.4111C105.623 49.8063 102.377 53.5352 98.7842 57.5879C91.3563 65.9485 78.5482 72.5525 67.4981 67.283C64.3975 65.8013 61.9344 63.9663 60.1089 61.7976C59.8964 61.5523 59.8384 61.2776 59.9446 60.9832ZM41.1382 42.1032L41.1962 42.064C41.2638 42.0149 41.3507 42.0345 41.399 42.1032L49.2423 53.3193C49.2906 53.3782 49.2713 53.4763 49.2037 53.5254L49.1554 53.5647C48.3923 54.1044 46.0258 52.0338 43.8525 48.933L43.6979 48.7073C41.5246 45.6064 40.3848 42.6528 41.1382 42.1032ZM31.0637 48.3344C32.2711 49.4825 33.0052 50.6993 32.6768 51.0427L32.5802 51.1605C32.5223 51.2194 32.416 51.2292 32.3581 51.1703L27.9535 47.0097C27.8955 46.9508 27.8859 46.8527 27.9535 46.7938L28.0501 46.676C28.3688 46.3228 29.6149 46.9704 30.8319 48.1185L31.0637 48.3344ZM29.1705 22.2224C29.412 21.9476 29.7694 21.8789 29.9722 22.0654C30.1751 22.2518 30.1461 22.6247 29.9046 22.8897C29.6632 23.1644 29.3058 23.2331 29.1029 23.0467C28.9001 22.8602 28.9291 22.4873 29.1705 22.2224ZM27.2677 32.7025C29.1319 32.3493 29.9722 33.3011 30.3683 34.9889C30.4649 35.4109 30.0882 35.7936 29.6728 35.6954C28.5234 35.4207 27.5768 34.7828 26.8523 33.7721C26.5626 33.3698 26.7847 32.7908 27.2677 32.7025ZM29.2768 92.2371C25.7802 90.8535 23.0756 89.411 23.2205 89.0283C23.3654 88.6358 26.3211 89.4405 29.8177 90.8339C33.3143 92.2175 36.0189 93.66 35.874 94.0427C35.7291 94.4352 32.7734 93.6305 29.2768 92.2371ZM35.3331 79.1075C34.8501 78.9603 33.8649 78.5972 32.3774 77.9987C27.5381 76.0459 23.1046 73.9852 19.0767 71.8068C18.1204 71.2867 17.2511 70.5115 16.4687 69.4615C16.15 69.0395 16.2466 68.9218 16.7392 69.0886C17.9949 69.54 18.8449 70.6979 20.033 71.2376C24.9881 73.4946 30.1751 75.8693 35.6035 78.3519C38.8394 79.8337 38.7524 80.0888 35.3331 79.1075ZM51.4446 111.657L49.8025 112.314C49.619 112.383 49.4934 112.334 49.4065 112.157C49.3582 112.049 49.3582 111.932 49.4162 111.814C49.4645 111.725 49.5417 111.667 49.648 111.618C50.2951 111.372 50.894 111.333 51.4446 111.49C51.6088 111.539 51.6088 111.588 51.4446 111.657ZM54.2071 101.177L54.2361 100.921C54.2457 100.774 54.381 100.666 54.5259 100.686L65.2282 101.962C65.3731 101.981 65.4697 102.119 65.46 102.256L65.4311 102.511C65.4214 102.658 65.2862 102.766 65.1413 102.747L54.4389 101.471C54.294 101.451 54.1974 101.314 54.2071 101.177ZM57.5009 112.913C56.7861 113.129 56.052 113.276 55.3082 113.384C55.2889 113.384 55.2793 113.394 55.2599 113.394H55.2213C55.144 113.403 55.0571 113.423 54.9798 113.433C54.9702 113.433 54.9605 113.423 54.9605 113.403H54.9509C54.9509 113.403 54.9509 113.394 54.9605 113.394H55.2213C55.2213 113.394 55.2793 113.394 55.2986 113.384C55.3662 113.374 55.4242 113.335 55.4628 113.256C55.9168 112.412 56.5929 112.147 57.5009 112.471C57.9549 112.628 57.9549 112.775 57.4912 112.913H57.5009ZM62.7555 113.246C62.4077 113.776 61.9538 113.933 61.3839 113.727C61.0844 113.619 61.0651 113.472 61.3259 113.286C61.664 113.06 62.031 112.883 62.427 112.775C62.9583 112.628 63.0646 112.785 62.7555 113.246ZM65.8271 113.521C65.8271 113.6 65.7884 113.659 65.7112 113.698C65.3731 113.855 65.122 113.933 64.9384 113.924C64.2043 113.884 64.1271 113.639 64.7066 113.188C64.8901 113.04 65.1413 112.952 65.4504 112.913C65.7015 112.883 65.8271 112.991 65.8271 113.246V113.521ZM68.9277 113.659C68.8697 113.776 68.7731 113.855 68.6572 113.894C68.2902 114.002 67.9714 113.963 67.7106 113.767C67.3146 113.472 67.3532 113.266 67.8265 113.148L68.5413 112.962C68.7441 112.913 68.889 112.991 68.9663 113.197C69.0146 113.345 69.0049 113.492 68.9277 113.659ZM71.5356 113.345C71.2555 113.629 70.9947 113.747 70.7533 113.678C70.3572 113.56 70.2413 113.05 70.5504 112.766C70.8305 112.52 71.13 112.491 71.4487 112.677C71.6805 112.824 71.7288 113.148 71.5356 113.345ZM71.5067 103.228L70.6953 102.58C70.2606 102.227 69.8356 102.227 69.401 102.58C69.1209 102.815 68.8021 102.933 68.4447 102.923C67.0248 102.913 66.9572 102.599 68.2419 101.981C69.2947 101.481 70.3669 101.53 71.4584 102.128C71.8351 102.335 71.9993 102.639 71.951 103.051C71.9027 103.375 71.7578 103.434 71.5067 103.228ZM65.3345 82.699C60.1765 81.2369 55.9844 79.2056 52.7679 76.6052C46.3542 71.424 40.7519 66.3508 32.5319 63.0929C28.5234 61.4934 24.2733 59.9038 19.7722 58.3043C15.5318 56.7931 12.0448 54.5656 9.3306 51.6119C9.18571 51.4451 9.05048 51.2684 8.93457 51.082C8.384 50.189 8.16184 49.2666 8.25843 48.3148C8.34537 47.4807 8.70275 47.3237 9.34992 47.8438C12.8755 50.6797 15.8988 52.6717 18.4392 53.8296C24.2347 56.4693 32.7831 58.2944 39.8343 62.1313C47.2718 66.1742 53.3474 73.0039 60.5918 76.566C66.6867 79.5687 73.2163 80.2556 80.1903 78.6169C94.3699 75.2903 103.923 64.2901 114.229 54.8698C118.354 51.1114 122.942 48.4522 128.013 46.8919C129.336 46.4798 130.292 46.9213 130.862 48.2068L131.809 50.3264C132.311 51.4549 131.983 52.2007 130.824 52.5834C125.328 54.3987 120.517 57.1267 116.393 60.7673C108.888 67.3811 102.01 72.739 95.7415 76.8506C87.2318 82.4341 75.3124 85.5251 65.3345 82.699ZM82.9141 90.775C82.9141 90.9222 81.9579 91.0988 80.7602 91.1675C79.5528 91.2362 78.5772 91.1675 78.5772 91.0301C78.5772 90.8829 79.5334 90.7063 80.7312 90.6376C81.9386 90.5689 82.9141 90.6376 82.9141 90.775ZM75.1868 112.972C74.955 113.619 74.4624 113.855 73.7186 113.678C73.593 113.649 73.4771 113.58 73.3902 113.472C73.3033 113.364 73.2453 113.227 73.2163 113.08C73.1681 112.844 73.3516 112.618 73.5931 112.628C73.9504 112.628 74.2982 112.56 74.6362 112.422C74.9743 112.285 75.3124 112.618 75.1868 112.972ZM73.4482 102.835C73.0521 102.825 72.8493 102.619 72.8493 102.227C72.8493 101.864 73.0232 101.648 73.3612 101.579C74.076 101.432 74.7715 101.491 75.4573 101.775C75.747 101.903 76.0465 101.922 76.3459 101.834C79.4562 100.951 82.6051 100.225 85.7829 99.6556C87.029 99.4398 88.2557 99.6949 89.521 99.7439C89.8398 99.7538 90.1102 99.9697 90.2068 100.274C90.4097 100.951 90.3227 101.226 89.946 101.108C89.8398 101.078 89.7432 101.02 89.6562 100.951C89.3761 100.715 89.0477 100.549 88.6903 100.441C88.3329 100.333 88.0432 100.441 87.8113 100.725C87.1449 101.569 86.121 102.07 84.759 102.236C80.3255 102.766 76.5488 102.963 73.4482 102.835ZM84.392 122.578C83.8221 122.618 83.3391 122.471 82.9238 122.147C82.4891 121.813 82.1028 121.852 81.7454 122.264C81.3204 122.765 80.8181 122.902 80.2386 122.696C79.6107 122.471 79.6107 122.245 80.2482 122.029L83.8414 120.861C84.3244 120.704 84.8267 121.018 84.9039 121.528L84.9522 121.862C85.0198 122.304 84.8363 122.549 84.392 122.578ZM124.217 106.584C119.397 110.401 115.659 112.864 113.012 113.973C110.105 115.189 107.207 116.396 104.3 117.594C102.88 118.172 101.402 118.624 99.8853 118.928C98.8808 119.134 97.8762 119.33 96.862 119.536C95.9057 119.723 94.9398 120.027 93.9642 120.429C91.8585 121.293 89.5114 121.617 86.9227 121.401C86.8454 121.401 86.8068 121.352 86.8068 121.273L86.7875 120.282C86.7875 120.282 86.7971 120.223 86.8358 120.214C87.5409 119.988 88.217 119.909 88.8449 119.968C89.3761 120.017 89.9267 119.929 90.4966 119.703C91.9938 119.115 93.5296 118.624 95.104 118.222C105.294 115.611 114.925 111.137 124.014 104.798C124.284 104.611 124.458 104.68 124.545 104.984L124.632 105.308C124.777 105.828 124.642 106.25 124.217 106.584ZM129.529 93.2577C122.836 98.8706 114.596 103.591 104.821 107.418C102.426 108.35 100.359 108.909 98.0887 109.684C94.5728 110.891 90.9506 111.735 87.2125 112.196C86.8454 112.246 86.5557 112.108 86.3432 111.794C86.2659 111.686 86.1596 111.657 86.0341 111.716C85.9085 111.765 85.8119 111.853 85.7346 111.961L85.3772 112.452C85.1937 112.717 84.9329 112.883 84.6142 112.932C82.8272 113.237 78.384 114.238 76.8482 113.305C76.4811 113.089 76.5584 112.54 76.9641 112.422C79.9971 111.568 82.8562 111.029 85.5414 110.803C86.1983 110.754 86.8358 110.607 87.454 110.371C88.0625 110.146 88.7096 109.949 89.3761 109.792C93.2301 108.909 96.6591 107.81 99.6535 106.495C107.545 103.021 117.272 97.3987 128.844 89.6171C129.143 89.4208 129.5 89.3521 129.848 89.4306C130.727 89.6171 131.113 89.9802 130.988 90.5002C130.688 91.7759 130.196 92.6983 129.529 93.2577ZM126.487 83.3467C115.697 90.0881 107.352 95.0828 96.3211 99.4986C95.0171 100.019 93.2784 99.9696 92.2932 100.617C91.5784 101.088 91.2597 100.892 91.3466 100.029L91.5301 98.1346C91.5591 97.7912 91.8392 97.5066 92.1773 97.4772L93.1625 97.3889C93.4426 97.3594 93.6455 97.644 93.5392 97.9089C93.433 98.1543 93.3074 98.38 93.1625 98.586C92.8824 98.9884 92.979 99.1846 93.462 99.1846C95.8285 99.1846 98.9967 96.6038 100.658 95.2398C104.541 92.031 108.965 90.0979 112.452 87.4288C118.354 82.9051 124.371 78.558 130.505 74.3777C131.2 73.8969 131.925 73.4946 132.678 73.1609C133.277 72.896 133.953 73.2885 134.021 73.946C134.62 79.1468 130.273 80.972 126.487 83.3467Z" fill="black"/>
</g>
<defs>
<clipPath id="clip0_2205_2">
<rect width="140" height="140" fill="white" transform="translate(0 0.771484)"/>
</clipPath>
</defs>
</svg>
