<svg width="125" height="120" viewBox="0 0 125 120" fill="none" xmlns="http://www.w3.org/2000/svg">
<g clip-path="url(#clip0_2058_2)">
<path d="M68.3309 2.68225C68.6809 1.63577 69.251 0.274328 70.4012 0.0406471C71.8214 -0.253994 72.3915 0.995689 72.4915 2.27585C72.9816 8.11786 73.6817 13.9396 74.6119 19.7308C74.8119 20.9601 74.7919 23.0023 74.5619 25.8369C74.1518 30.795 69.231 31.872 65.3004 31.4453C64.0802 31.303 63.11 30.3378 62.95 29.0983C62.74 27.5337 62.76 25.9589 62.99 24.3739C63.9602 17.7597 65.7404 10.5258 68.3309 2.68225Z" fill="black"/>
<path d="M54.2486 10.5054C55.7789 15.1993 57.9492 19.558 59.9896 24.0284C61.7999 28.0111 59.2594 30.0228 55.7389 30.7442C53.1485 31.2826 52.5784 29.2202 52.1483 26.9443C51.2282 22.1183 50.8481 17.2517 50.9981 12.3444C51.0281 11.3284 50.8581 10.2108 51.8083 9.60116C52.7184 9.02204 53.9086 9.46908 54.2486 10.5054Z" fill="black"/>
<path d="M81.6631 30.9069C79.5728 29.8401 79.0827 28.2653 80.1729 26.1724C82.3232 22.0575 84.2835 18.4609 86.0538 15.3621C86.5539 14.4782 87.204 13.8482 88.0041 13.4622C88.9243 13.0253 89.9744 13.706 89.9644 14.7322C89.9144 19.7004 89.0043 24.7601 87.224 29.9011C86.4739 32.0652 85.0836 32.6341 83.0533 31.608L81.6631 30.9069Z" fill="black"/>
<path d="M36.5858 30.8862C40.4765 35.0722 39.1563 41.3003 35.0856 44.7953C34.8256 45.0188 34.5355 45.0798 34.2155 44.968C26.8143 42.3467 20.6733 27.9297 17.9529 20.7059C17.6828 19.9744 17.8728 19.4054 18.523 19.0092C19.1731 18.6028 19.8832 18.6231 20.6433 19.06C27.7944 23.1951 33.1153 27.1372 36.5858 30.8862Z" fill="black"/>
<path d="M41.3566 20.5437C45.2372 19.4667 47.9476 29.4032 48.2077 31.8213C48.3977 33.5384 47.6576 34.5747 45.9873 34.9303L45.5572 35.0217C44.387 35.2656 43.2269 34.5442 42.9268 33.3656C41.9166 29.4947 41.2165 25.5018 40.8065 21.3667C40.7665 20.9298 40.9465 20.6555 41.3566 20.5437Z" fill="black"/>
<path d="M106.447 22.4332C107.487 21.9963 109.768 20.7873 111.368 20.7466C113.198 20.706 113.638 21.4782 112.698 23.0733C109.148 29.1287 102.827 36.9315 96.2055 40.1421C93.6551 41.3816 91.7848 40.6196 90.5946 37.8561C90.0245 36.5048 89.9545 35.306 90.3846 34.2391C90.9547 32.8472 91.8048 31.6585 92.955 30.6933C97.0456 27.2491 101.536 24.4957 106.447 22.4332Z" fill="black"/>
<path d="M100.746 45.3441C105.657 43.048 110.288 42.1945 114.618 42.7736C115.539 42.9057 116.209 43.7084 116.179 44.6431C116.089 47.8435 108.047 51.4097 103.667 53.208C101.056 54.2748 99.416 53.4213 98.7259 50.6477L98.5659 49.9771C98.1058 48.0975 99.0159 46.1468 100.746 45.3441Z" fill="black"/>
<path d="M28.1845 53.1675C22.8737 50.6072 19.8132 48.9207 19.013 48.118C16.4026 45.4764 16.9427 44.2267 20.6233 44.3791C24.1039 44.5112 27.7044 45.8015 31.435 48.2298C32.5452 48.9613 32.8953 50.4345 32.2252 51.5521C32.1751 51.6435 32.1251 51.7451 32.0951 51.8467C31.425 53.6552 30.1148 54.0921 28.1845 53.1675Z" fill="black"/>
<path d="M0.860144 64.1705C10.6117 60.0557 20.2032 58.3184 29.6347 58.9788C30.4649 59.0397 31.265 59.3039 32.0451 59.7712C32.3652 59.9744 32.5852 60.2996 32.6452 60.6755C33.3553 65.1459 33.4254 70.7847 27.4144 71.0387C25.4441 71.1301 21.8835 71.0387 16.7227 70.7644C14.4523 70.6425 12.262 70.3478 10.1516 69.8703C7.52121 69.281 1.99032 68.4784 0.310056 66.3651C-0.270037 65.6336 6.2451e-06 64.5261 0.860144 64.1705Z" fill="black"/>
<path d="M102.106 64.2314C109.508 64.2314 118.659 66.2838 124.58 71.2012C125.3 71.8007 125.06 72.9691 124.17 73.2332C117.159 75.3059 110.928 76.84 103.547 76.1593C97.0656 75.5599 99.1659 69.2505 100.506 65.3795C100.746 64.6988 101.386 64.2416 102.106 64.2314Z" fill="black"/>
<path d="M16.5826 85.5575C20.7833 82.1641 26.7142 78.476 32.1651 77.5108C32.4952 77.4499 32.8052 77.5108 33.0953 77.6835C34.9056 78.7707 36.1057 80.3048 36.6858 82.286C36.7658 82.5603 36.6458 82.8448 36.3958 82.9667C31.665 85.334 26.6842 86.9088 21.4534 87.6708C19.9732 87.8842 18.763 88.3414 17.0827 87.9147C16.0125 87.6404 15.7225 86.2484 16.5826 85.5575Z" fill="black"/>
<path d="M110.368 92.3037C106.017 89.9974 102.896 88.7578 99.5558 87.2338C96.7654 85.9638 95.8752 83.7693 96.8854 80.6501C97.0954 79.9999 97.5255 79.7154 98.1856 79.7865C100.056 79.9999 101.716 80.7213 103.186 81.9506C106.097 84.3992 109.147 87.0713 112.318 89.9466C112.848 90.4241 113.048 91.1861 112.818 91.8668C112.658 92.3342 112.258 92.5882 111.618 92.6288C111.248 92.6593 110.838 92.5475 110.368 92.3037Z" fill="black"/>
<path d="M45.8173 92.2735C43.0269 99.1315 31.035 103.714 24.1839 106.355C23.5538 106.599 22.8937 106.67 22.1835 106.579C21.8135 106.528 21.5834 106.132 21.7335 105.776C24.914 98.1358 29.8448 90.4447 36.7759 85.9032C37.666 85.3139 38.5262 85.2123 39.3363 85.5984C41.7267 86.716 43.747 88.1689 45.3973 89.957C45.9673 90.5768 46.1374 91.481 45.8173 92.2735Z" fill="black"/>
<path d="M100.616 105.745C101.276 107.534 101.886 109.423 102.436 111.415C102.717 112.41 101.756 113.304 100.806 112.929C99.236 112.319 97.8758 110.45 96.3855 109.454C90.7746 105.684 85.1037 102.535 82.3833 95.9105C82.0332 95.0368 82.2533 94.0309 82.9334 93.3909C85.2437 91.2471 87.7642 89.53 90.4946 88.2397C90.8046 88.0975 91.0947 88.1178 91.3847 88.2905C93.005 89.2862 94.1052 90.3937 94.6753 91.6027C96.8656 96.2255 98.8459 100.94 100.616 105.745Z" fill="black"/>
<path d="M58.3793 95.9105C61.3697 97.1094 62.3699 98.9992 61.3597 101.59C58.7893 108.194 53.8485 114.585 49.4978 119.675C48.9978 120.254 48.0676 120 47.9076 119.248C47.4575 117.084 47.3775 114.676 47.6775 112.024C48.1876 107.544 48.6377 103.307 49.0278 99.3243C49.1778 97.8308 49.5879 96.2966 50.238 94.7421C50.428 94.2849 50.8881 94.0005 51.3781 94.0513C53.5485 94.2849 55.8789 94.9047 58.3793 95.9105Z" fill="black"/>
<path d="M66.9106 101.895C66.4506 100.869 66.0905 99.883 65.8204 98.9585C65.6704 98.4606 66.0705 97.9628 66.5906 98.0034C69.251 98.2371 71.8614 98.0542 74.4218 97.465C75.1119 97.3024 75.752 97.8714 75.692 98.5927C75.282 103.378 74.8619 108.102 74.4418 112.786C74.3518 113.751 74.1518 114.646 73.8317 115.458C73.5517 116.159 72.6115 116.281 72.1815 115.662C71.2913 114.402 70.7012 113.183 70.4112 112.014C69.5711 108.631 68.4009 105.258 66.9106 101.895Z" fill="black"/>
<path d="M94.7251 48.9714C91.9647 42.8246 83.7634 37.9986 77.9624 35.4382C74.3418 33.8431 70.5813 33.1014 66.6706 33.2234C60.4496 33.4164 54.3787 34.4019 49.1978 37.582C40.4564 42.9567 35.7057 51.1558 34.9556 62.1591C33.9754 76.4847 44.267 86.8784 56.8491 91.7451C70.7213 97.0994 82.0931 94.0311 90.9445 82.5401C98.8958 72.2378 100.156 61.0517 94.7251 48.9714ZM88.6441 73.2538C83.2433 85.0598 68.961 89.9671 56.729 84.1962C44.4971 78.4355 38.9562 64.1809 44.3571 52.3648C49.7579 40.5589 64.0402 35.6516 76.2722 41.4123C88.5041 47.1731 94.045 61.4276 88.6441 73.2437V73.2538Z" fill="black"/>
<path d="M57.2992 56.2156C59.4496 51.6233 63.2902 50.9832 68.141 51.4201C76.1723 52.1414 78.4326 60.0967 75.7722 67.2189C74.582 70.3888 72.2516 71.9941 68.7911 72.0246C64.4804 72.0652 61.0898 71.5877 58.4994 67.9301C55.809 64.1607 55.4089 60.2593 57.2992 56.2156Z" fill="black"/>
</g>
<defs>
<clipPath id="clip0_2058_2">
<rect width="125" height="120" fill="white"/>
</clipPath>
</defs>
</svg>
