<svg width="160" height="160" viewBox="0 0 160 160" fill="none" xmlns="http://www.w3.org/2000/svg">
<g clip-path="url(#clip0_2071_124)">
<path d="M83.9086 20.112C83.9086 21.0532 83.1556 21.8169 82.2085 21.8169H81.013C80.0737 21.8247 79.3052 21.0686 79.2975 20.1352L79.1965 1.71279C79.1965 0.771613 79.9495 0.00787102 80.8966 0.00787102H82.0921C83.0314 0.000156458 83.7999 0.756183 83.8077 1.68965L83.9086 20.112Z" fill="black"/>
<path d="M61.4817 22.7347C61.8776 23.9845 61.179 25.3114 59.9214 25.7048L59.7429 25.7588C58.4853 26.1523 57.1501 25.4579 56.7542 24.2082L51.227 6.68842C50.8311 5.43866 51.5298 4.11175 52.7873 3.71831L52.9659 3.66431C54.2235 3.27087 55.5587 3.96518 55.9546 5.21494L61.4817 22.7347Z" fill="black"/>
<path d="M106.04 25.6818C105.621 26.893 104.294 27.541 103.067 27.1244L102.834 27.0472C101.608 26.6307 100.964 25.3115 101.383 24.0926L107.725 5.80135C108.144 4.59016 109.472 3.94214 110.698 4.35872L110.931 4.43587C112.158 4.85245 112.802 6.17164 112.383 7.39055L106.04 25.6818Z" fill="black"/>
<path d="M33.9002 30.1101C32.0682 26.8237 28.6525 22.087 23.6533 15.9076C22.1007 13.9867 24.9497 11.6954 27.0844 13.3926C28.7845 14.7427 30.2983 16.3165 31.6102 18.1062C35.1966 22.9973 38.294 27.896 40.9101 32.7948C41.5854 34.0522 41.3137 35.0551 40.1027 35.8112C39.9708 35.896 39.8699 35.9655 39.8 36.004C38.8995 36.5749 37.6963 36.3126 37.114 35.4254C36.004 33.7282 34.9327 31.9539 33.9002 30.1101Z" fill="black"/>
<path d="M122.925 34.6924C129.251 30.38 135.066 25.8284 140.383 21.0377C141.082 20.4128 142.13 20.3665 142.875 20.9451C143.038 21.0762 143.209 21.2151 143.38 21.3617C144.583 22.4186 144.591 23.4832 143.411 24.5632C137.092 30.326 130.99 35.0859 125.114 38.8429C124.081 39.5063 123.018 39.5218 121.939 38.8892C121.721 38.7657 121.582 38.5883 121.527 38.3569C121.139 36.8139 121.605 35.595 122.925 34.6924Z" fill="black"/>
<path d="M25.5319 51.2171C24.9652 52.1428 23.7542 52.4437 22.8227 51.8805L4.34713 40.7638C3.41559 40.2007 3.11284 38.9972 3.67952 38.0714L4.11424 37.3617C4.68093 36.436 5.89193 36.1351 6.82348 36.6983L25.299 47.8149C26.2306 48.3781 26.5333 49.5816 25.9667 50.5073L25.5319 51.2171Z" fill="black"/>
<path d="M154.38 57.9825C148.93 59.5332 143.488 60.7829 138.062 61.7164C137.48 61.8167 136.882 61.6701 136.409 61.3229C135.687 60.7829 135.299 60.158 135.252 59.4406C135.182 58.43 135.64 57.8051 136.626 57.5582C141.54 56.3085 146.5 55.1976 151.507 54.2178C152.804 53.9632 153.992 54.0404 155.086 54.4493C155.614 54.6421 155.917 55.0201 155.987 55.5756C156.15 56.8331 155.614 57.6354 154.38 57.9825Z" fill="black"/>
<path d="M21.8368 71.4137C21.4098 72.6171 21.1692 73.8129 19.5235 73.8129C18.6618 73.8206 17.8001 73.7898 16.954 73.728C12.2264 73.404 7.11068 72.6943 1.59129 71.5911C0.620937 71.3982 0.0930631 70.8119 -9.10356e-05 69.8322C-0.0156167 69.6316 0.0231975 69.4465 0.116352 69.269C0.760668 68.0424 1.63011 67.4638 2.74019 67.5487C8.94271 68.0038 14.5863 68.783 19.671 69.8862C20.5093 70.0713 21.1692 70.3568 21.6505 70.7425C21.8756 70.9199 21.9377 71.1437 21.8368 71.4137Z" fill="black"/>
<path d="M159.992 90.4608C159.946 91.5948 158.991 92.482 157.85 92.4357L141.074 91.8263C139.933 91.7877 139.04 90.8311 139.087 89.6971V89.5582C139.134 88.4242 140.088 87.537 141.229 87.5833L158.005 88.1927C159.146 88.2313 160.039 89.1879 159.992 90.3219V90.4608Z" fill="black"/>
<path d="M19.4847 95.5912C14.1284 97.8593 9.23002 99.6336 4.79744 100.922C4.39377 101.045 3.95905 101.038 3.56315 100.914C2.15807 100.49 1.47494 99.8574 1.52152 99.0242C1.58362 97.921 1.93295 97.2421 2.5695 96.9721C7.72403 94.7889 12.9329 93.0531 18.2039 91.7802C18.6464 91.6722 19.1121 91.7416 19.5003 91.9731C20.6336 92.652 20.9131 93.5854 20.3464 94.7735C20.1679 95.1438 19.8574 95.4292 19.4847 95.5912Z" fill="black"/>
<path d="M129.741 114.6C129.228 114.276 129.081 113.597 129.407 113.088L130.331 111.661C130.967 110.689 133.296 111.059 135.532 112.494L145.934 119.151C148.17 120.586 149.474 122.538 148.837 123.51L147.913 124.937C147.587 125.446 146.904 125.593 146.392 125.269L129.741 114.6Z" fill="black"/>
<path d="M28.5984 113.643C29.2583 114.669 28.9478 116.035 27.9153 116.691L11.559 127.043C10.5265 127.699 9.15251 127.398 8.49267 126.365L8.36847 126.172C7.70862 125.146 8.01914 123.78 9.0516 123.124L25.4079 112.772C26.4404 112.116 27.8144 112.417 28.4742 113.45L28.5984 113.643Z" fill="black"/>
<path d="M131.052 145.35C131.712 146.284 131.479 147.58 130.54 148.243L130.02 148.606C129.081 149.261 127.776 149.038 127.109 148.097L114.028 129.528C113.369 128.594 113.601 127.298 114.541 126.635L115.061 126.272C116 125.616 117.304 125.84 117.972 126.781L131.052 145.35Z" fill="black"/>
<path d="M42.7966 131.279C35.5073 138.392 31.0591 142.99 25.5786 149.462C24.6936 150.504 23.6767 150.596 22.5355 149.732C21.177 148.706 21.0528 147.495 22.1552 146.083C27.4417 139.325 33.2716 133.439 39.6293 128.417C40.6307 127.622 41.57 127.692 42.4472 128.61L42.8431 129.026C43.4486 129.667 43.4331 130.669 42.7966 131.279Z" fill="black"/>
<path d="M100.94 137.535C102.392 143.105 104.084 149.092 106.033 155.487C106.46 156.914 106.002 157.948 104.643 158.588C104.402 158.704 104.162 158.781 103.921 158.827C103.145 158.966 102.369 158.581 102.012 157.878C101.297 156.482 100.793 155.248 100.506 154.191C98.5881 147.155 97.2684 142.01 96.5465 138.754C96.3447 137.813 96.3059 136.1 97.2141 135.398C99.1005 133.948 100.552 136.039 100.94 137.535Z" fill="black"/>
<path d="M60.2552 139.417C58.6328 144.1 57.0492 148.829 55.5044 153.589C54.8057 155.734 53.9052 161.497 50.2256 159.63C48.5178 158.758 49.2941 156.019 49.7987 154.607C52.0732 148.15 54.3632 141.956 56.6688 136.038C56.8784 135.506 57.577 135.313 58.7648 135.444C58.9899 135.468 59.184 135.552 59.347 135.684C60.4959 136.617 60.7986 137.859 60.2552 139.417Z" fill="black"/>
<path d="M81.6185 140.096C81.1915 145.52 81.1061 150.851 81.0906 156.282C81.0828 157.832 80.3143 158.727 78.7695 158.966C78.5754 158.997 78.3814 159.02 78.1873 159.036C77.2169 159.128 76.3786 158.38 76.3553 157.408C76.2311 150.704 76.037 143.992 77.3489 137.342C77.4033 137.088 77.543 136.903 77.7681 136.771C78.7074 136.239 79.6545 136.201 80.6248 136.648C80.8655 136.756 81.0363 136.933 81.1372 137.173C81.5331 138.106 81.6961 139.086 81.6185 140.096Z" fill="black"/>
<path d="M133.389 68.2814C131.386 60.5591 128.188 53.9477 123.794 48.4472C114.968 37.4077 103.246 30.7655 88.6284 28.5205C81.4633 27.4173 73.8014 27.7799 65.6427 29.5928C57.6469 31.3749 49.4727 35.6256 43.4797 40.779C35.8333 47.3595 30.5934 55.8763 27.76 66.3141C26.417 71.2669 26.0444 77.076 25.8969 82.4299C25.5398 95.1589 30.508 107.602 39.676 116.505C45.4515 122.114 52.2673 126.256 60.1233 128.926C69.4154 132.089 81.0131 132.073 91.0737 130.646C97.2142 129.774 103.316 127.56 109.394 123.996C118.966 118.387 125.859 110.92 130.082 101.601C135.151 90.4221 136.254 79.3209 133.389 68.2814ZM126.705 98.345C122.179 109.4 113.71 117.153 103.176 122.399C92.3236 127.807 79.7633 128.686 67.9172 126.372C47.6562 122.414 31.983 106.839 30.3528 85.9014C30.1587 83.4019 30.3295 79.8223 30.8807 75.1628C32.7049 59.5485 39.7769 47.8686 52.0887 40.1309C56.9172 37.0991 61.637 34.9853 66.2559 33.7896C77.9856 30.7577 89.2883 31.5523 100.172 36.1734C106.856 39.0123 113.757 43.4482 118.438 48.941C125.882 57.6816 129.919 67.3093 130.532 77.8243C130.913 84.3431 129.632 91.1782 126.705 98.345Z" fill="black"/>
<path d="M121.877 65.6973C116.652 54.5112 108.346 46.1949 96.3058 42.4996C89.2959 40.3473 82.3093 39.6144 75.3538 40.3164C62.3433 41.6279 52.4845 48.2161 44.7216 58.6925C38.1388 67.572 35.872 79.0744 37.6807 90.1525C40.5375 107.657 54.8754 119.707 72.3807 122.353C77.279 123.094 82.6897 122.754 87.4018 122.199C93.418 121.497 99.6127 119.337 106.002 115.726C113.78 111.337 119.292 105.312 122.529 97.6356C127.047 86.9509 126.829 76.3049 121.877 65.6973ZM69.392 51.572C60.3094 54.3492 53.6877 60.6751 49.5191 70.5575C49.2086 71.3058 48.6574 71.5913 47.8656 71.4215C47.3533 71.3135 47.0272 70.8738 46.8875 70.1023C46.8331 69.8246 46.872 69.5392 46.9806 69.2769C49.4725 63.7301 52.8338 59.0705 57.0723 55.2904C59.1761 53.4157 62.6383 51.3251 67.459 49.0339C68.2896 48.6404 68.9805 48.8024 69.5472 49.5122C69.6404 49.6279 69.7568 49.7745 69.8966 49.9519C70.3468 50.5151 70.0906 51.356 69.392 51.572ZM120.145 85.0069C119.517 95.6453 114.874 103.977 106.203 109.987C103.308 112 99.5118 113.906 94.8231 115.703C93.9459 116.043 93.3792 115.757 93.1307 114.855L93.0531 114.554C92.9056 114.014 93.2006 113.458 93.7207 113.265C100.622 110.735 107.779 107.101 111.963 101.123C115.511 96.0541 117.382 90.1448 117.591 83.3791C117.894 73.3039 114.937 64.8564 108.703 58.0368C103.719 52.5826 97.3072 49.0184 90.0567 47.815C87.3164 47.3598 83.7532 47.0204 79.3595 46.7967C79.08 46.7812 78.8549 46.5729 78.8316 46.2952L78.7229 45.1457C78.6919 44.7986 78.8549 44.6134 79.212 44.598C89.3192 44.1891 100.661 47.0358 108.02 54.3801C116.784 63.1129 120.829 73.3193 120.145 85.0069Z" fill="black"/>
</g>
<defs>
<clipPath id="clip0_2071_124">
<rect width="160" height="160" fill="white"/>
</clipPath>
</defs>
</svg>
