<svg width="145" height="140" viewBox="0 0 145 140" fill="none" xmlns="http://www.w3.org/2000/svg">
<g clip-path="url(#clip0_2119_1141)">
<path d="M70.6398 13.0444L70.5872 1.17641C70.5872 0.588268 71.0614 0.0946444 71.6515 0.0736392L73.6539 0.000120814C74.2862 -0.0208844 74.8131 0.504247 74.792 1.1344L74.3178 12.8448C74.2967 13.3595 73.9173 13.8006 73.401 13.8741L71.915 14.1156C71.2511 14.2207 70.6504 13.706 70.6398 13.0444Z" fill="black"/>
<path d="M50.5852 15.1027C50.9435 16.0164 50.4903 17.0352 49.584 17.3923L49.2152 17.5393C48.3089 17.8964 47.2761 17.4448 46.9178 16.531L42.6602 5.65033C42.3019 4.7366 42.755 3.71785 43.6613 3.36076L44.0302 3.21372C44.9365 2.85663 45.9693 3.30824 46.3276 4.21147L50.5852 15.0922V15.1027Z" fill="black"/>
<path d="M98.8937 18.0224C98.6197 18.8521 97.724 19.2932 96.8914 19.0202L96.4699 18.8836C95.6373 18.6106 95.1947 17.7178 95.4687 16.8881L98.3563 8.3075C98.6303 7.47779 99.5261 7.03668 100.359 7.30975L100.78 7.44628C101.613 7.71935 102.055 8.61207 101.781 9.44178L98.8937 18.0224Z" fill="black"/>
<path d="M124.281 19.7136C124.608 20.0392 124.608 20.5748 124.281 20.9004L124.144 21.0369C118.179 26.8764 112.836 31.0984 112.214 30.4683L111.635 29.8801C111.013 29.25 115.344 23.9987 121.309 18.1592L121.446 18.0227C121.783 17.6971 122.31 17.6971 122.637 18.0332L124.292 19.7136H124.281Z" fill="black"/>
<path d="M31.426 30.678C32.0267 31.3397 32.0794 32.0434 31.6052 32.8101C31.5314 32.9361 31.4471 33.0621 31.3628 33.1777C31.1099 33.5453 30.5935 33.6188 30.2562 33.3247L20.8137 25.2797C20.0022 24.5865 19.8652 23.7883 20.4132 22.8746C20.5291 22.6961 20.6661 22.5595 20.8453 22.465C21.9835 21.8873 22.9846 22.0029 23.8383 22.8326C26.357 25.2587 28.8862 27.8738 31.426 30.678Z" fill="black"/>
<path d="M137.792 41.9683C138.118 42.8085 137.707 43.7642 136.864 44.0898L127.106 47.9443C126.262 48.2804 125.303 47.8603 124.977 47.0201L124.924 46.8835C124.597 46.0433 125.008 45.0876 125.851 44.762L135.61 40.9075C136.453 40.5714 137.412 40.9915 137.739 41.8318L137.792 41.9683Z" fill="black"/>
<path d="M10.1591 43.1975C15.2598 45.4346 18.5583 47.0625 20.0548 48.0708C21.0243 48.7219 21.351 49.3941 21.0349 50.0978C20.7503 50.7174 20.0759 51.0535 19.4119 50.9065C15.5864 50.0768 12.2246 48.8795 9.32654 47.3041C8.31484 46.7474 7.95653 45.9177 8.24107 44.8149L8.45184 44.0167C8.69423 43.082 9.26331 42.8089 10.1591 43.1975Z" fill="black"/>
<path d="M132.027 67.6892C136.295 66.6704 140.405 66.4709 144.347 67.0695C144.726 67.1325 145.011 67.4581 145 67.8467V70.1258C144.979 70.6719 144.705 70.9345 144.157 70.9135C140.532 70.777 136.79 70.5879 132.944 70.3568C131.785 70.2833 131.173 69.8002 131.121 68.9075C131.089 68.3403 131.469 67.8257 132.027 67.6892Z" fill="black"/>
<path d="M1.18507e-05 71.7749L0.0421661 68.8447C0.0421661 68.3826 0.463708 68.0255 0.927405 68.099L16.1556 70.5146C16.5666 70.5776 16.8512 70.9557 16.7985 71.3653L16.5877 73.0457C16.535 73.4553 16.1662 73.7494 15.7657 73.7179L0.706095 72.5416C0.30563 72.5101 -0.0105267 72.174 1.18507e-05 71.7749Z" fill="black"/>
<path d="M20.4659 91.2887C20.7926 92.2445 20.2656 93.2947 19.3066 93.6098L11.6135 96.1725C10.6545 96.4875 9.60062 95.9729 9.28446 95.0172L9.22123 94.8386C8.89453 93.8829 9.42146 92.8326 10.3805 92.5175L18.0736 89.9549C19.0326 89.6398 20.0865 90.1544 20.4026 91.1102L20.4659 91.2887Z" fill="black"/>
<path d="M137.065 95.9204C136.864 96.5715 136.179 96.9286 135.526 96.7396L126.326 93.9564C125.672 93.7673 125.303 93.0742 125.504 92.423L125.915 91.0787C126.115 90.4275 126.8 90.0704 127.453 90.2595L136.654 93.0426C137.307 93.2317 137.676 93.9249 137.476 94.576L137.065 95.9204Z" fill="black"/>
<path d="M23.7749 119.1C23.1636 119.72 22.1625 119.73 21.5407 119.131L21.3299 118.921C20.6976 118.312 20.6871 117.314 21.2983 116.695L29.1179 108.681C29.7292 108.062 30.7303 108.051 31.3521 108.65L31.5629 108.86C32.1846 109.469 32.1952 110.467 31.5945 111.086L23.7749 119.1Z" fill="black"/>
<path d="M121.446 121.568C122.015 122.219 121.952 123.196 121.299 123.763L121.236 123.815C120.582 124.383 119.602 124.32 119.033 123.668L110.729 114.248C110.16 113.596 110.223 112.62 110.866 112.053L110.929 112C111.582 111.433 112.562 111.496 113.131 112.147L121.436 121.568H121.446Z" fill="black"/>
<path d="M43.6508 131.409C43.2292 132.196 42.2597 132.501 41.4693 132.081L41.2058 131.944C40.426 131.535 40.1204 130.558 40.5314 129.77L45.3791 120.559C45.8006 119.772 46.7702 119.467 47.5606 119.887L47.824 120.024C48.6039 120.433 48.9095 121.41 48.4985 122.198L43.6508 131.409Z" fill="black"/>
<path d="M92.6445 122.576C93.0976 122.482 93.5508 122.765 93.6562 123.227L94.4992 127.155C95.4372 131.503 95.4056 135.2 94.436 135.4L93.9407 135.505C92.9817 135.715 91.4325 132.354 90.4946 128.006L89.6515 124.089C89.5567 123.627 89.8517 123.175 90.3154 123.07L92.6445 122.576Z" fill="black"/>
<path d="M71.7466 138.414C71.715 139.317 70.9562 140.032 70.0499 139.99L69.523 139.969C68.6167 139.937 67.9106 139.181 67.9422 138.278L68.2689 128.983C68.3005 128.08 69.0593 127.366 69.9656 127.408L70.4925 127.429C71.3988 127.46 72.1049 128.216 72.0733 129.119L71.7466 138.414Z" fill="black"/>
<path d="M116.461 38.2714C99.0307 14.4409 65.8237 9.00056 42.2911 26.0988C18.7585 43.1971 13.8159 76.3749 31.2467 100.195C48.6775 124.025 81.8845 129.466 105.417 112.367C128.95 95.2691 133.892 62.0913 116.461 38.2714ZM102.519 109.269C80.7041 124.666 50.2688 119.205 34.5453 97.0756C18.8217 74.9465 23.7643 44.5204 45.5791 29.1236C67.394 13.7267 97.8293 19.1881 113.553 41.3171C129.276 63.4462 124.334 93.8723 102.519 109.269Z" fill="black"/>
<path d="M112.436 57.481C108.347 44.8988 99.9582 33.8816 87.4805 28.9453C75.0767 24.0406 58.099 23.6415 47.1179 32.2642C38.0863 39.3639 32.5957 48.5852 30.6566 59.9386C27.9377 75.8606 34.1238 92.2236 47.6448 101.235C61.2395 110.299 78.9022 114.647 93.5613 106.738C105.681 100.195 112.489 87.2979 114.238 73.4345C114.87 68.4457 114.27 63.1314 112.436 57.481ZM89.0719 104.407C83.6867 106.455 78.6176 107.179 73.8647 106.591C57.5827 104.564 43.4188 96.1726 36.8428 81.0909C34.0079 74.5897 33.344 67.3954 34.851 59.508C35.7889 54.6243 38.5711 48.9213 43.2186 42.3992C52.0499 30.0061 68.2055 27.4645 82.0532 31.5605C94.7732 35.3309 103.373 43.649 107.873 56.5147C109.453 61.0414 110.212 65.3264 110.149 69.3699C109.928 83.2229 102.635 99.2709 89.0719 104.407Z" fill="black"/>
<path d="M102.73 70.9348C101.897 59.2139 95.8272 47.1358 86.0369 40.3616C77.859 34.7007 67.078 32.3691 57.6249 35.4464C52.4927 37.1163 48.0348 40.1936 44.241 44.6992C34.9143 55.7585 34.5455 71.4914 42.0806 83.4959C45.8007 89.4194 51.1543 93.862 58.1413 96.8343C69.0593 101.466 84.8882 103.734 94.257 94.8598C100.296 89.1463 103.32 79.3159 102.73 70.9348ZM95.3213 86.3841C88.6715 100.951 68.4691 97.2649 56.9715 91.4464C52.2292 89.0413 48.1824 84.9348 44.8206 79.1058C38.4342 68.0571 40.7949 53.5529 50.0372 44.7412C59.7959 35.4464 75.7512 37.61 85.784 45.5079C97.5661 54.7607 101.434 72.9933 95.3213 86.3841Z" fill="black"/>
<path d="M94.1621 69.6533C93.9302 58.342 88.6609 50.6751 78.3437 46.6526C66.3614 41.9894 52.5453 44.6991 47.687 58.0059C45.2737 64.6331 45.611 71.0922 48.7093 77.3727C51.1964 82.4035 54.6846 86.0899 59.1741 88.411C66.4351 92.1709 77.5744 94.0194 84.7511 90.228C92.2968 86.237 94.3307 77.7508 94.1621 69.6533ZM81.4315 87.1612C80.072 87.8649 78.3016 88.1799 76.1095 88.0959C67.5311 87.7493 59.1108 85.0712 54.1156 78.0449C49.2784 71.2497 49.173 61.5243 54.1577 54.9916C62.3567 44.2475 83.1071 48.6271 88.0076 60.7471C91.5064 69.4223 90.7265 82.267 81.4315 87.1612Z" fill="black"/>
<path d="M80.6937 61.346C76.2148 54.7924 67.6891 52.8074 61.6716 56.9034C55.6435 60.9995 54.3894 69.6221 58.8789 76.1758C63.3577 82.7294 71.8834 84.7144 77.9009 80.6184C83.929 76.5223 85.1831 67.8997 80.6937 61.346ZM73.0321 78.1607C68.9643 79.7571 64.0428 76.9424 62.051 71.8697C60.0592 66.8074 61.7453 61.4091 65.8238 59.8127C69.8916 58.2163 74.8132 61.031 76.8049 66.1037C78.7967 71.166 77.1106 76.5643 73.0321 78.1607Z" fill="black"/>
<path d="M72.3789 75.2408C69.3754 75.892 66.2876 73.3818 65.4656 69.6324C64.6542 65.883 66.4352 62.3331 69.4387 61.6819C72.4422 61.0307 75.53 63.5409 76.352 67.2903C77.1634 71.0397 75.3824 74.5896 72.3789 75.2408Z" fill="black"/>
</g>
<defs>
<clipPath id="clip0_2119_1141">
<rect width="145" height="140" fill="white"/>
</clipPath>
</defs>
</svg>
