<svg width="120" height="140" viewBox="0 0 120 140" fill="none" xmlns="http://www.w3.org/2000/svg">
<g clip-path="url(#clip0_2413_195)">
<path d="M99.5856 20.6823L99.4282 20.4014C99.2235 20.0892 99.3023 19.8707 99.6485 19.7146C99.7587 19.6521 99.8689 19.6521 99.9948 19.6989C100.152 19.7614 100.262 19.855 100.31 20.0111C100.42 20.3077 100.561 20.6043 100.719 20.8696C100.845 21.0882 101.034 21.2755 101.317 21.4472C102.466 22.1808 103.426 23.1018 104.197 24.21C104.418 24.5222 104.732 24.7408 105.094 24.8344C108.825 25.9583 111.847 28.7524 112.539 32.6235C112.949 34.9336 114.601 36.4009 115.735 38.2116C118.489 42.6447 116.223 48.264 119.732 52.9936C119.953 53.2902 120.047 53.618 120.032 53.9926L119.386 64.7318C119.386 65.0284 119.276 65.3094 119.119 65.5591C116.128 70.4136 112.351 74.2847 107.802 77.1256C107.078 77.5783 106.228 77.8124 105.378 77.8124C102.828 77.8124 100.199 78.2495 97.4607 79.1236C96.5793 79.4046 95.1784 79.2329 93.2582 78.6397C92.8962 78.5305 92.5184 78.5617 92.1879 78.7334C88.4418 80.6065 84.743 83.0884 81.2645 84.6649C77.6601 86.3039 73.7251 87.2717 70.9549 90.2999C69.8059 91.533 69.0032 94.0774 68.5153 97.8704C67.3977 106.471 67.7912 114.978 69.6957 123.407C70.1837 125.546 70.3883 127.778 70.3253 129.979C70.3253 130.182 70.4827 130.338 70.6874 130.353H71.0808C71.191 130.369 71.254 130.322 71.254 130.213L71.0808 126.81C71.0651 126.42 71.3799 126.108 71.7734 126.108C72.403 126.108 72.7965 126.451 72.9224 127.154C72.9854 127.513 73.2057 127.622 73.552 127.466C73.8983 127.325 74.2288 127.169 74.5436 127.013C74.8899 126.857 75.063 126.951 75.063 127.341C75.063 128.949 75.3148 130.416 75.8343 131.758C76.0389 132.273 76.2435 132.289 76.4796 131.789C78.1637 128.059 79.0609 123.891 79.1081 119.271C79.1081 118.959 79.3757 118.693 79.6905 118.693H80.0053C80.1942 118.693 80.3044 118.771 80.3201 118.959C80.7923 123.36 80.6349 127.669 79.8322 131.899C79.7535 132.351 79.9266 132.508 80.3673 132.383L82.4135 131.758C82.8227 131.649 83.0745 131.368 83.1847 130.947C83.2634 130.634 83.4208 130.416 83.6727 130.229C83.9875 130.026 84.255 130.072 84.4754 130.353C84.6013 130.51 84.7587 130.619 84.9318 130.634C85.2152 130.666 85.3883 130.556 85.4513 130.291L86.8364 124.328C87.0095 123.548 87.1984 123.548 87.4345 124.297C88.127 126.732 86.4271 129.511 86.616 132.18C86.6475 132.57 86.8364 132.804 87.2141 132.913C87.6233 133.038 87.9854 133.257 88.2529 133.538C88.552 133.85 88.489 134.068 88.0641 134.162C87.1354 134.381 86.2225 134.615 85.3096 134.865C83.4523 135.38 81.5163 134.943 79.5331 135.38C79.1239 135.473 79.0452 135.692 79.3127 136.004C79.722 136.503 80.1784 136.894 80.6978 137.206C81.0284 137.393 81.3432 137.378 81.6422 137.128C81.9098 136.909 82.2089 136.784 82.5237 136.784C82.8699 136.784 82.9486 136.925 82.7598 137.222C82.3977 137.737 81.8626 138.033 81.1228 138.142C77.8332 138.595 74.5436 139.11 71.2382 139.688C69.5226 139.984 68.0116 139.688 66.6737 138.751C66.3589 138.533 66.0126 138.439 65.6349 138.517C62.7388 139.017 59.8269 139.11 56.8836 138.814C55.4513 138.673 54.1134 138.252 52.8385 137.549C52.5237 137.362 52.2089 137.393 51.9413 137.643C51.5478 138.002 51.1071 138.236 50.6506 138.361C50.2099 138.486 49.9423 138.33 49.8479 137.877L49.5803 136.441C49.4859 135.957 49.234 135.848 48.8248 136.129L48.3684 136.425C47.8647 136.753 47.5814 137.222 47.5499 137.83C47.5184 138.47 47.3768 139.063 47.0934 139.563C46.936 139.875 46.574 140.031 46.2278 139.938L45.8343 139.828C45.5195 139.75 45.4093 139.376 45.6139 139.126C46.3064 138.314 46.4166 137.534 45.9287 136.8C45.0158 135.458 43.0798 135.317 42.0725 136.535C41.4271 137.315 40.2152 137.955 38.4523 138.423C37.3033 138.736 36.595 138.423 36.3274 137.471C36.2173 137.081 36.296 136.753 36.5478 136.441C37.8857 134.865 39.8689 134.599 40.9077 133.241C41.9623 131.883 41.8678 130.447 40.6244 128.964C40.2309 128.496 40.5772 127.778 41.191 127.793C42.765 127.825 43.7094 128.746 44.0084 130.588C44.1029 131.134 44.701 131.446 45.2204 131.181C46.9833 130.307 48.0536 129.12 48.4628 127.637C48.9035 126.108 49.3285 126.108 49.7849 127.637C50.2886 129.339 50.7136 131.056 51.0913 132.788C51.595 135.083 52.1931 135.099 52.8857 132.867L55.892 123.236C56.4114 121.597 56.6317 119.88 56.553 118.163C56.2068 110.264 55.7818 102.101 55.2781 93.6871C55.1994 92.2979 54.7272 90.0814 53.8615 87.0532C50.9969 77.0476 43.8196 67.5571 35.8552 61.1573C35.4145 60.8139 34.9896 60.7046 34.5646 60.8295C34.2498 60.9232 34.234 61.0636 34.5016 61.2353C34.6118 61.2978 34.7062 61.3602 34.8007 61.4227C34.8794 61.4851 34.9266 61.5475 34.9109 61.6568C34.8164 66.5269 28.1428 65.4186 25.53 63.7016C24.0819 62.7651 23.3893 62.609 21.8626 63.1553C21.5321 63.2646 21.1858 63.3114 20.8552 63.2646L9.14486 61.5319C8.70414 61.4695 8.32639 61.2978 8.01159 61.0168L1.05461 54.898C0.550942 54.4453 0.377805 53.7429 0.629641 53.1185C1.57403 50.7927 1.49533 48.545 0.377805 46.3441C0.173188 45.9382 0.0787491 45.4855 0.125968 45.0329C0.487983 40.5374 4.24979 36.9941 7.36626 34.0907C7.66532 33.8254 7.99585 33.6849 8.38935 33.6849C9.12912 33.6849 10.105 33.7786 11.3484 33.9503C11.679 33.9971 11.8678 33.8878 11.9151 33.6225C11.978 33.2635 11.8206 33.123 11.4586 33.2166C9.94758 33.6225 8.78284 33.2166 7.94863 32.0147C7.72828 31.6869 7.63384 31.3279 7.71254 30.9377C8.15325 28.6275 9.44391 27.5504 11.6003 27.7221C11.978 27.7534 12.1984 27.3319 11.978 27.0353C11.0021 25.7398 11.0021 24.4598 11.978 23.1642C16.7629 16.8581 21.9413 12.7216 27.5289 10.786C28.0011 10.6143 28.3002 10.3021 28.3946 9.81825C28.7094 8.47585 29.3232 7.71099 30.2204 7.5549C34.1553 6.83687 37.6968 5.27594 40.8447 2.88771C41.5058 2.38821 42.9224 1.98237 45.0945 1.67019C48.8878 1.12386 52.6968 0.827282 56.5058 0.796064C56.9465 0.796064 57.3558 0.686798 57.7335 0.452659C59.0557 -0.312198 60.4093 -0.234151 61.8259 0.671189C62.1721 0.905329 62.5971 0.967766 63.0063 0.842892C63.6517 0.63997 64.2183 0.764845 64.7062 1.20191C65.1784 1.63897 65.0997 1.87311 64.4544 1.96676C63.5258 2.07603 62.786 2.43504 62.2036 3.05942C61.9203 3.35599 61.936 3.65257 62.2351 3.93354C62.786 4.46425 63.4156 4.83888 64.1081 5.07302C64.5174 5.2135 64.8322 5.07302 65.0368 4.69839L65.9497 2.98137C66.2802 2.357 67.0357 2.07603 67.6811 2.357L71.9308 4.10524C72.2771 4.26133 72.6391 4.26133 73.0011 4.13646C75.6296 3.16868 77.6443 3.55891 79.0294 5.32277C80.1155 6.712 81.0284 7.64856 81.7996 8.11683C84.318 9.69338 86.8836 11.1763 89.4964 12.5343C89.8427 12.7216 90.0788 13.0182 90.1732 13.3928C90.2834 13.8455 90.2834 14.2825 90.1732 14.7352C90.0788 15.1098 89.8427 15.344 89.4649 15.4376C88.2687 15.703 87.702 16.3273 87.7493 17.2951C87.7807 18.0444 88.615 18.497 89.276 18.1068L92.1879 16.3586C92.5027 16.1712 92.8804 16.0932 93.2424 16.1556C96.1858 16.6551 98.106 18.1536 98.9875 20.6667C99.0662 20.8853 99.2236 21.0101 99.4439 21.0257C99.7902 21.0257 99.8689 20.9009 99.6957 20.6043M53.5625 6.89931C52.5394 6.64956 51.7682 7.00857 51.2802 7.99196C51.1071 8.33537 50.8238 8.58511 50.446 8.70999C49.7692 8.92852 49.1711 8.81925 48.6359 8.35098C48.2897 8.03879 48.1637 7.67977 48.2897 7.2271L48.6517 6.0408C48.7776 5.58812 48.6045 5.36959 48.148 5.32277C46.1333 5.16667 44.5751 6.02519 43.4576 7.8827C42.9696 8.69438 42.9539 9.34997 43.3789 9.91191C43.6936 10.3177 44.0399 10.349 44.4019 9.97434C44.8112 9.55289 45.3306 9.2251 45.9602 8.97535C46.4009 8.80365 46.7786 9.30314 46.5111 9.67777L43.8353 13.4396C43.489 13.9391 43.2687 13.8923 43.2057 13.2679C43.1742 12.8621 43.1585 12.4562 43.1428 12.0192C43.1428 11.6445 42.9539 11.4728 42.5761 11.4728C41.5216 11.5041 40.7031 11.1138 40.0735 10.3177C39.7587 9.91191 39.3495 9.7402 38.8301 9.80264C36.2645 10.1304 34.4387 11.0046 33.3369 12.4094C33.0378 12.784 32.6916 12.8621 32.2666 12.6279L31.6212 12.2845C31.2435 12.0816 30.8972 12.1284 30.5982 12.425C30 13.0182 29.2918 13.4864 28.4576 13.8611C28.0483 14.0328 28.0168 14.2825 28.3002 14.5947L29.764 16.1712C30.2676 16.7176 30.1574 17.0141 29.4019 17.0454L27.1669 17.1702C26.5058 17.2015 25.9707 17.7166 25.9234 18.3722C25.892 18.7156 25.9235 19.0434 26.0021 19.4024C26.1281 19.9799 26.5058 20.2609 27.0882 20.2453H29.6223C30 20.2141 30.2047 20.0267 30.2204 19.6521L30.2519 19.1058C30.2834 18.6531 30.5037 18.5283 30.913 18.7468C31.8731 19.2775 32.5971 18.9653 33.1323 17.8258C33.3211 17.4044 33.5258 16.9673 33.7304 16.5146C33.9035 16.1556 34.1868 15.9683 34.5646 15.9683C35.6034 15.9371 36.6108 15.8122 37.6181 15.5781C38.2162 15.4376 38.5625 15.422 38.6727 15.5157C39.6013 16.3429 39.4439 16.7176 38.2005 16.6395C37.1931 16.5771 36.3747 16.9985 35.7136 17.9039C35.4932 18.2161 35.3988 18.5907 35.4932 18.9653C35.7136 20.0736 36.0284 20.9789 36.3904 21.6501C36.5635 21.9779 36.8468 22.1964 37.2089 22.2745C37.6181 22.3525 37.8227 22.1964 37.8385 21.775C37.8699 20.3858 38.4366 19.3868 39.5541 18.7624C41.4743 17.6697 41.8836 18.0912 40.7975 19.9955C40.5457 20.4482 40.4513 20.9633 40.4985 21.5252C40.5457 22.0247 40.3726 22.5242 39.9948 22.8833L39.7272 23.1486C39.617 23.2579 39.5856 23.3827 39.6643 23.5388C39.7272 23.6481 39.8217 23.7105 39.9318 23.7418C40.1365 23.8042 40.2939 23.7418 40.404 23.5701C41.1123 22.415 42.1039 21.5408 43.3789 20.9321C43.7409 20.7604 43.9297 20.8696 43.9297 21.2911C43.9297 21.494 43.851 21.6969 43.7094 21.9155C43.489 22.2433 43.5835 22.4462 43.9612 22.5086C44.3232 22.5711 44.7482 22.4618 45.2204 22.212C46.5583 21.5096 47.5656 20.8696 48.2582 20.3077C48.5887 20.0424 48.573 19.777 48.211 19.5585C47.5814 19.1682 46.8888 19.137 46.1491 19.4804C45.787 19.6521 45.4408 19.6209 45.1102 19.418C44.9056 19.2931 44.7797 19.1058 44.701 18.8873C44.5436 18.4658 44.701 18.2473 45.1574 18.2161C46.4638 18.1536 47.6916 18.4346 48.8406 19.0746C49.2498 19.2931 49.6905 19.3868 50.1627 19.3087C51.5163 19.1058 52.3663 19.6209 52.6811 20.9009C52.7598 21.2287 53.0431 21.4628 53.3893 21.494C54.3652 21.5565 54.8217 22.134 54.7587 23.2267C54.7272 23.5545 54.6328 23.851 54.4439 24.132C53.7986 25.0373 53.7356 25.9115 54.2865 26.7544C54.5541 27.1602 54.8374 27.1914 55.1522 26.8012L56.7734 24.8032C57.2771 24.1788 57.1826 23.2735 56.5688 22.774C55.9707 22.2745 55.5929 21.6501 55.3883 20.9165C55.2781 20.5106 55.0735 20.1984 54.7272 19.9799L53.2477 19.0277C52.1931 18.3565 52.744 16.7332 54.0819 16.5146C54.2865 16.4834 54.5384 16.4834 54.8374 16.5146C55.2152 16.5459 55.4513 16.3898 55.5614 16.0152C55.9077 14.8288 56.6475 14.1264 57.7493 13.8923C59.7325 13.4864 61.0861 13.1274 61.8101 12.8465C62.2981 12.6591 62.6758 12.706 63.0063 13.0026C63.3211 13.2991 63.6517 13.3303 63.998 13.1118C64.9266 12.5655 65.5405 11.9411 65.8867 11.2699C66.7524 9.52167 67.6968 9.55289 68.6727 11.3324C69.4597 12.784 70.5614 13.5177 71.9623 13.5645C72.3715 13.5645 72.4974 13.3928 72.3558 13.0182L71.7577 11.4884C71.6317 11.1763 71.7419 10.9421 72.0567 10.8329L72.3715 10.708C72.7965 10.5519 73.2529 10.8172 73.3316 11.2543C73.5363 12.3314 74.0084 12.5655 74.7325 11.9723C75.1889 11.5821 75.5667 11.6602 75.85 12.1909C76.1018 12.6435 76.3537 13.0494 76.6527 13.424C78.148 15.2659 78.7619 15.0162 78.51 12.6591C78.4471 12.0504 77.9276 11.2075 76.999 10.1148C75.7083 8.63194 74.3705 8.56951 73.0011 9.95873C72.6391 10.3177 72.4502 10.2553 72.4502 9.7402C72.4502 8.74121 72.0095 7.96074 71.1595 7.36759C70.6874 7.0554 70.3883 7.16467 70.2781 7.7266L69.9318 9.42802C69.8374 9.8963 69.5856 10.0212 69.1606 9.78703C68.2162 9.28753 67.9014 8.3978 68.2005 7.08662C68.2949 6.69639 68.1375 6.49347 67.744 6.49347H67.4135C67.0672 6.49347 66.7682 6.712 66.6895 7.03979L66.2802 8.5695C66.1543 9.08461 65.8552 9.19388 65.3988 8.92852L61.6213 6.60273C61.2907 6.39981 61.0074 6.43103 60.7556 6.72761C60.5195 7.00857 60.2361 7.13345 59.8899 7.11784C59.4806 7.08662 59.2603 6.8837 59.2131 6.47786C59.1029 5.68178 58.6622 5.2135 57.9067 5.08863C57.4502 5.01058 57.2299 5.19789 57.2771 5.66617L57.4974 7.8983C57.5446 8.44463 57.2928 8.67877 56.7577 8.58511L56.1595 8.49146C55.9077 8.46024 55.7188 8.25732 55.6874 7.99196L55.53 6.10323C55.4985 5.60373 55.2309 5.33838 54.7272 5.29155C54.2865 5.24472 53.956 5.43203 53.7199 5.86909C53.6569 5.97836 53.6412 6.07201 53.6569 6.18128C53.6569 6.32176 53.7041 6.44664 53.7671 6.58712C53.9402 6.8837 53.8458 6.99296 53.5153 6.91492M68.4523 12.9869C68.4838 12.7996 68.0431 12.5343 67.445 12.425C66.8468 12.3001 66.3274 12.3626 66.2802 12.5499C66.2487 12.7372 66.6895 13.0026 67.2876 13.1118C67.8857 13.2367 68.4051 13.1743 68.4523 12.9869ZM59.276 17.4824L59.5436 15.0005C59.5908 14.5479 59.4019 14.4074 58.9612 14.5323C58.7409 14.5947 58.552 14.7508 58.3946 14.9381C58.1428 15.2503 58.0955 15.6093 58.2215 15.9995C58.615 17.1702 58.8038 18.3878 58.8196 19.6677C58.8196 20.058 58.6937 20.3858 58.4103 20.6667C57.1984 21.9155 57.1511 23.1642 58.2844 24.413C59.6853 25.9895 60.3306 25.7241 60.2047 23.6325C60.126 22.3838 60.425 21.3067 61.0704 20.4326C61.3222 20.1048 61.3379 19.7614 61.1333 19.418C60.8343 18.8717 60.4093 18.5126 59.7954 18.3097C59.4019 18.1848 59.2288 17.9039 59.276 17.498M23.8143 19.5429C23.9088 19.5585 23.9875 19.496 24.0189 19.4024C24.1763 18.4502 24.1134 17.4512 23.8458 16.4054C23.7356 16.0152 23.4838 15.8591 23.0746 15.9527C21.7367 16.2493 20.9339 17.0766 20.6349 18.419C20.5562 18.7312 20.6978 18.9341 21.0284 18.9965L23.8301 19.5429M64.0452 19.3712C63.7461 18.9185 63.6359 18.4034 63.6989 17.7946C63.7461 17.4044 63.573 17.1702 63.1795 17.1234C62.7702 17.061 62.3925 17.1234 62.0147 17.2639C61.5111 17.4668 61.5111 17.6853 62.0147 17.8883L62.3453 18.0131C62.723 18.1692 62.9749 18.4346 63.085 18.8248C63.3211 19.5897 63.6674 20.2921 64.0924 20.9945C64.3128 21.3379 64.6275 21.4628 65.021 21.3691C67.744 20.7448 66.3904 18.0912 68.893 17.6073C69.1763 17.5449 69.381 17.2951 69.3652 17.0141L69.3337 16.4678C69.3337 16.1869 69.0819 15.9683 68.7986 16.0152C67.7755 16.1244 66.8469 16.499 66.0284 17.1234C65.7136 17.3576 65.5405 17.6697 65.509 18.06C65.4617 18.6375 65.2571 19.1058 64.8951 19.4804C64.5803 19.7926 64.297 19.777 64.0452 19.4024M56.5688 18.2629C56.6317 18.0288 56.6475 17.7946 56.6317 17.5449C56.6317 17.5293 56.6317 17.5136 56.6003 17.498C56.4901 17.4512 56.3956 17.4356 56.2855 17.4824C56.1123 17.5449 56.0336 17.6385 56.0651 17.8258C56.1753 18.6375 56.0966 19.4492 55.8762 20.2921C55.829 20.495 55.9077 20.6043 56.0966 20.6511L56.4114 20.7292C56.5688 20.7604 56.6475 20.6979 56.6632 20.5575C56.7262 20.1204 56.6947 19.7458 56.5845 19.3712C56.4743 19.0121 56.4743 18.6531 56.5688 18.2785M62.9434 58.3945C62.9434 58.8471 63.0693 59.0344 63.2739 58.9876C64.4859 58.6442 65.6664 58.1759 66.7996 57.5672C67.1459 57.3642 67.3977 57.4579 67.5394 57.8481C67.7283 58.3945 67.807 58.9564 67.7912 59.5652C67.7912 60.0647 67.9486 60.1583 68.3264 59.7837C68.7671 59.3622 69.2865 59.1281 69.9004 59.0969C70.3096 59.0657 70.4985 59.253 70.467 59.6432C70.3411 61.4851 71.1438 62.4841 72.8752 62.6246C73.2844 62.6558 73.4576 62.4685 73.3631 62.0783C72.9854 60.4861 72.1669 59.5027 72.2613 57.895C72.34 56.2248 72.7965 54.6482 73.5992 53.1809C73.7094 52.978 73.6622 52.8844 73.4418 52.8375L73.0011 52.7751C72.7335 52.7283 72.466 52.8531 72.34 53.0717L69.8059 57.1145C69.5856 57.4579 69.0347 57.3018 69.0662 56.896C69.1134 55.7097 68.7514 54.7263 67.9959 53.9458C67.445 53.3995 67.0672 53.4931 66.8311 54.2268C66.5321 55.1477 65.9654 55.7721 65.1155 56.0687C64.7692 56.1935 64.5016 56.4901 64.4229 56.8491C64.2026 57.8013 63.7146 58.3164 62.9749 58.3945C62.7702 57.1925 62.3453 56.1311 61.6842 55.257C61.4324 54.9448 60.9917 54.8511 60.6454 55.0541L59.2603 55.8657C58.9455 56.0374 58.5992 55.7253 58.7566 55.4131C59.2603 54.4141 59.3232 53.3995 58.9297 52.3849C58.7723 52.0102 58.8983 51.7917 59.3075 51.7605C60.4565 51.6512 61.1648 50.9488 61.4481 49.6532C61.5111 49.4035 61.6213 49.3567 61.8101 49.544C61.9675 49.7001 62.062 49.8874 62.1249 50.1059C62.2036 50.4649 62.4397 50.7303 62.786 50.8708C63.0693 50.9956 63.3684 50.98 63.6674 50.8239C64.0294 50.6522 64.2183 50.3557 64.2655 49.9498C64.3442 48.8572 64.0452 47.8738 63.3526 46.9528C63.1165 46.6406 63.085 46.3284 63.2739 45.985L63.9193 44.7051C64.0924 44.3617 64.0452 44.0807 63.7461 43.8466C63.1008 43.3159 62.5027 42.7695 61.9203 42.1764C61.6055 41.8486 61.4796 41.5052 61.5425 41.1774C61.6527 40.6154 61.9675 40.475 62.4712 40.7403L63.2424 41.1462C63.6045 41.3491 63.8248 41.2242 63.8878 40.8184L64.1396 38.9921C64.2498 38.0867 65.3831 37.7121 66.0284 38.3521L67.2876 39.6008C67.6496 39.9599 67.9172 39.8974 68.1218 39.4291C68.2949 39.0389 68.3264 38.3677 68.1847 37.4467C68.1533 37.119 68.3579 36.8068 68.6727 36.6975C70.5772 36.0575 72.1039 34.9024 73.2372 33.2166C73.4576 32.8888 73.3631 32.6703 73.0011 32.561C71.4743 32.1084 70.5142 31.2967 70.0892 30.1104C69.6171 28.8304 69.9633 28.5338 71.1595 29.2519C72.0882 29.8294 73.4418 30.204 75.1889 30.3757C75.5509 30.4069 75.6454 30.2665 75.488 29.9231C75.0473 28.9553 75.1102 27.8626 75.7083 26.6763C75.8815 26.3173 76.1963 26.1456 76.6055 26.1768C77.4082 26.2393 78.0536 26.5827 78.5572 27.1758C78.8091 27.4724 79.1081 27.6441 79.4859 27.6909C80.5877 27.8314 81.2487 28.5338 82.1616 28.5182C82.6338 28.5182 83.0273 28.3933 83.3579 28.1592C83.531 28.0343 83.7041 27.8002 83.8615 27.4568C84.0189 27.1134 84.1763 26.9105 84.381 26.848C84.5069 26.8012 84.6328 26.7856 84.7745 26.8168C85.0892 26.8948 85.2781 27.0978 85.3411 27.4412C85.6244 29.1894 86.6475 29.8918 88.3789 29.564C88.7409 29.486 89.0399 29.2987 89.2603 29.0177L90.2047 27.7846C90.4565 27.4412 90.8028 27.3319 91.2278 27.4412C91.8731 27.6129 92.424 27.9095 92.8647 28.2997C93.211 28.6119 93.4156 28.5494 93.4943 28.0812C93.6359 27.3787 93.9035 26.8948 94.3127 26.6139C94.7062 26.3485 94.8164 26.4422 94.6748 26.8948C94.0924 28.565 94.4229 29.9699 95.6349 31.1094C96.0126 31.4684 96.3747 31.4528 96.7209 31.0625L98.6727 28.8616C98.893 28.6275 99.2708 28.7211 99.3495 29.0177L99.4596 29.4079C99.6013 29.9231 99.5384 30.4694 99.2708 30.9221L98.4995 32.2801C98.0903 32.9669 98.2792 33.1854 99.0347 32.8888L101.632 31.8898C101.994 31.7493 102.356 31.7806 102.686 31.9835C103.048 32.202 103.395 32.2488 103.725 32.124C104.119 31.9679 104.323 31.7025 104.386 31.2967C104.575 29.6577 104.276 28.2841 103.489 27.1602C103.143 26.6607 102.608 26.5358 101.868 26.7544C101.522 26.8636 101.254 26.7544 101.081 26.4422C100.892 26.0988 100.624 25.8334 100.278 25.6305C99.8374 25.3651 99.6171 25.49 99.6013 25.9895L99.5384 27.3163C99.5384 27.488 99.4282 27.5817 99.255 27.5817L98.7671 27.5504C98.6412 27.5504 98.5467 27.488 98.531 27.3475C98.4523 26.8012 98.3736 26.2861 98.2477 25.771C98.0903 25.1466 97.8227 24.7252 97.4135 24.5222C96.8311 24.21 96.3117 24.2257 95.8867 24.5847C95.7136 24.7095 95.5877 24.6939 95.4932 24.5066C94.9423 23.4452 93.9665 22.8364 92.5814 22.6959C92.1879 22.6491 91.8573 22.4774 91.6055 22.1808C91.3379 21.8843 91.1491 21.5252 91.0231 21.1194C90.913 20.7448 90.6611 20.5575 90.2676 20.5575C89.4334 20.5575 88.8983 21.0101 88.6779 21.9155C88.5992 22.2277 88.4261 22.2901 88.1428 22.1184C88.0168 22.0403 87.9224 21.9155 87.828 21.775C87.6233 21.3691 87.3085 21.0882 86.8993 20.9165C84.1921 19.7302 81.7209 19.3087 79.4544 19.6677C74.4334 20.4794 70.6716 23.1018 68.2005 27.5348C67.4607 28.8616 65.1942 31.2186 61.4166 34.6371C59.638 36.2292 56.7577 39.7101 58.7566 42.0203C59.5908 42.9881 60.0158 43.4876 60.0315 43.5032C60.3778 44.2212 60.5037 44.9704 60.4408 45.7665C60.4093 46.2192 60.2047 46.3128 59.8427 46.0475C59.3547 45.7041 59.1501 45.2514 59.1816 44.6895C59.2131 44.0651 58.977 43.9246 58.4418 44.2524C57.5604 44.8144 57.1669 45.4075 57.2928 46.0319C57.3715 46.4377 57.6076 46.6875 57.9854 46.7967C59.0399 47.0933 59.4964 47.7645 59.3705 48.8259C59.3075 49.3411 59.0242 49.5284 58.5205 49.3879L57.828 49.2006C57.4817 49.1069 57.1826 49.2006 56.9308 49.4503C55.7661 50.6054 55.5772 52.0258 56.3956 53.6804C57.1039 55.1165 58.1585 56.1935 59.5436 56.9428C59.8899 57.1301 59.8899 57.3486 59.5751 57.5672C59.4177 57.6764 59.2603 57.7701 59.0557 57.8325C58.7094 57.9574 58.5677 58.2227 58.6464 58.5818C58.8983 59.5808 59.2445 60.4081 59.7167 61.0793C60.2361 61.8285 60.5037 61.7505 60.5352 60.8295C60.5509 59.5339 61.3537 58.7066 62.9434 58.332M62.8962 22.1184C62.6129 20.136 62.2508 20.1204 61.7944 22.0716C61.7314 22.3681 61.6999 23.0237 61.6842 24.0227C61.6842 24.3974 61.5583 24.7095 61.2907 24.9905C60.9444 25.3339 60.787 25.7398 60.8343 26.2236C60.8657 26.8012 61.0546 26.848 61.4009 26.3797C62.5656 24.7252 63.0693 23.3203 62.8962 22.134M65.8238 23.0706C64.5803 23.4764 64.0609 24.4598 64.2498 26.0207C64.297 26.411 64.7849 26.5671 65.0525 26.2549C66.595 24.4754 68.4366 22.9769 70.53 21.7594C70.6716 21.6813 70.7031 21.5565 70.6244 21.4316L70.467 21.1194C70.467 21.1194 70.467 21.1194 70.4355 21.1194C69.3337 21.6189 68.232 22.134 67.1302 22.6335C67.0672 22.6647 66.6265 22.8052 65.808 23.0862M50.8867 24.2569C50.9182 24.6627 50.808 25.0842 50.5247 25.4588C50.3044 25.771 50.3044 26.0832 50.5247 26.411C51.233 27.4256 52.2089 28.128 53.468 28.5026C53.6097 28.5338 53.7199 28.5026 53.7671 28.3777L53.9402 28.0655C53.9402 28.0655 53.9402 27.9563 53.8773 27.9563C52.7755 27.6909 52.02 27.0822 51.6108 26.1612C51.4534 25.8022 51.5006 25.4588 51.7209 25.1466C52.0672 24.6783 52.319 24.2413 52.4922 23.851C52.9959 22.6803 52.0357 21.4004 50.7765 21.5721C49.1081 21.7906 48.1637 22.5086 47.9276 23.6949C47.6916 24.9125 48.0378 25.131 48.9979 24.3193C49.3914 24.0071 49.7692 23.8042 50.1627 23.7262C50.5719 23.6481 50.808 23.8198 50.8552 24.2413M25.0578 24.8656C25.2309 24.4442 25.4985 24.1164 25.8605 23.8822C26.3484 23.5701 26.3169 22.8676 25.7975 22.5867C25.0578 22.1964 24.3337 22.0091 23.6097 22.0403C23.2162 22.0403 22.8857 22.2121 22.6496 22.5242C22.2876 22.9769 21.8626 23.3359 21.3432 23.6013C20.9969 23.773 20.6191 23.8042 20.2571 23.6793C18.3841 23.0237 16.7157 23.3203 15.2361 24.6003C15.1102 24.7095 15.0945 24.8969 15.1889 25.0217C15.2991 25.1622 15.4722 25.1934 15.6139 25.0998C17.3295 24.0227 18.4785 24.1788 19.0609 25.5368C19.1711 25.771 19.3127 25.9895 19.5174 26.1768C19.8794 26.5202 20.2886 26.6139 20.7136 26.4734C21.0913 26.3641 21.3117 26.0988 21.3589 25.7085C21.5321 24.5222 22.1616 23.6793 23.2477 23.1798C23.6254 23.0081 23.8615 23.1174 23.9402 23.5388C24.0662 24.0696 24.0819 24.5847 24.0189 25.1466C23.9875 25.5368 23.8301 25.8646 23.5782 26.1456C22.8857 26.9417 22.5866 27.8938 22.7125 29.0021C22.7755 29.4079 22.9801 29.5328 23.3579 29.3455C24.2708 28.8772 24.8217 28.1748 25.042 27.2539C25.1994 26.6295 25.9707 26.3797 26.4586 26.7856C28.6464 28.5963 30.6926 28.565 32.5814 26.6607C32.8489 26.3797 33.1637 26.3017 33.5258 26.4578C34.0137 26.6451 34.3442 26.77 34.5331 26.8168C35.9812 27.1134 36.2173 26.7231 35.2414 25.6149C34.7062 25.0061 34.0294 24.3193 33.1952 23.5701C32.8962 23.3047 32.5656 23.211 32.1721 23.3203C30.8657 23.6793 30 24.5222 29.5908 25.8646C29.5279 26.0832 29.4019 26.2393 29.2445 26.3017C28.914 26.4422 28.7094 26.3329 28.6464 25.9895C28.5363 25.3964 28.2844 24.8812 27.9067 24.4286C27.6391 24.132 27.3715 24.1164 27.0882 24.3974C26.5845 24.8969 26.0336 25.209 25.404 25.3651C24.9633 25.4744 24.8059 25.3027 24.9948 24.8812M18.5887 27.8782C18.7933 27.7534 18.9193 27.6129 18.9822 27.5192C19.1868 27.1446 18.9822 26.6919 18.5572 26.5827C17.5342 26.3329 16.6999 26.5046 16.0546 27.1134C15.7083 27.4256 15.5982 27.7846 15.6926 28.2372C15.8185 28.7836 16.1018 29.1738 16.5425 29.4236C16.8573 29.5797 17.2351 29.6109 17.5656 29.4548C17.9591 29.2675 18.1637 28.9709 18.1952 28.5807C18.1952 28.2841 18.3369 28.0499 18.5887 27.8938M59.1816 31.9054C59.0557 31.9054 58.8825 31.9991 58.6779 32.2176C58.4733 32.4362 58.3789 32.6391 58.3946 32.842C58.4261 33.2947 58.6622 33.4508 59.1029 33.2947C61.5583 32.4049 61.5268 30.6099 62.8017 28.6899C63.0378 28.3309 62.9591 28.206 62.5499 28.3153C61.3537 28.6275 60.6139 29.5328 60.3148 31.0469C60.1889 31.6557 59.8112 31.9367 59.1973 31.9054M44.7482 29.6265C44.4649 30.0323 44.5908 30.3913 45.126 30.6723C45.3463 30.7972 45.5037 30.9533 45.6296 31.1718C45.8028 31.4996 46.0546 31.6713 46.3537 31.6869C46.7944 31.7181 47.0777 31.5308 47.1879 31.0938C47.4555 30.2352 47.1879 29.5953 46.4166 29.205C45.8343 28.9084 45.126 29.0958 44.7482 29.6421M49.2183 31.1874C49.2813 31.7493 49.5803 31.9054 50.084 31.6869C50.7293 31.3903 51.0441 30.8128 51.0284 29.9855C51.0284 29.6265 50.8552 29.3455 50.5247 29.1582C50.3044 29.0177 50.0368 28.9397 49.7535 28.9397C49.3285 28.9397 48.998 29.2987 49.0452 29.7045L49.2026 31.1874M22.6653 40.834L23.4838 43.3939C23.5625 43.6593 23.8143 43.8466 24.0819 43.8622C24.2078 43.8622 24.318 43.831 24.4439 43.7997C24.6643 43.7217 24.7744 43.55 24.7744 43.3159C24.7744 43.1598 24.743 43.0037 24.6485 42.8632C24.4754 42.5354 24.5069 42.2388 24.7587 41.9578C25.2781 41.3647 25.9549 41.0057 26.7734 40.8964C27.1826 40.8496 27.403 41.0213 27.4345 41.4427L27.5446 43.0037C27.5761 43.4563 27.8122 43.6749 28.2687 43.6749L31.4166 43.6436C31.7629 43.6436 31.8731 43.4719 31.7944 43.1441L31.6685 42.6447C31.5425 42.1608 31.7314 41.9578 32.2194 42.0203C32.7545 42.0983 33.2897 42.2856 33.8091 42.5666C34.1711 42.7695 34.3442 42.6759 34.3127 42.2544C34.2813 41.5364 33.935 40.9745 33.3054 40.5374C32.9906 40.3189 32.7702 40.0379 32.6758 39.6789C32.5027 39.0545 32.4555 38.3989 32.5499 37.7433C32.6129 37.3063 32.8489 37.119 33.2739 37.1346L34.7849 37.2282C35.1312 37.2594 35.3516 37.1033 35.4303 36.7599C35.5247 36.3853 35.7136 36.0887 35.9969 35.8546C36.3432 35.5892 36.5478 35.6517 36.6265 36.0887C36.7209 36.6195 36.8468 37.1346 36.9885 37.6653C37.0987 38.0555 37.3348 38.1492 37.6968 37.9462C38.6569 37.3999 39.3337 36.6195 39.743 35.5736C39.8217 35.3395 39.9161 35.3395 40.0263 35.5736C40.0735 35.6985 40.1207 35.8078 40.1522 35.9326C40.2624 36.2917 40.4985 36.6038 40.8133 36.8224C41.6475 37.3999 42.3085 38.1492 42.765 39.0857C42.9696 39.476 42.8752 39.5696 42.4817 39.3511C41.6317 38.8516 40.8605 38.1804 40.1837 37.3687C39.8374 36.9629 39.68 37.0097 39.743 37.5404C39.8531 38.6643 40.3096 39.5384 41.0808 40.194C41.3799 40.4437 41.7262 40.5062 42.1039 40.3813C42.9854 40.0691 43.9455 39.9755 44.9686 40.1003C45.3621 40.1316 45.4722 39.9755 45.3463 39.6164C44.3232 36.8536 42.8122 32.4205 39.7272 31.5308C38.2162 31.0938 36.658 31.1562 35.0683 31.7025C34.7062 31.8274 34.3757 31.7806 34.0452 31.562C32.9749 30.7816 31.7944 30.6567 30.488 31.1874C30.0945 31.3591 30 31.6089 30.1889 31.9679C30.7713 33.1074 31.7157 33.6849 33.0063 33.7473C33.4156 33.7473 33.51 33.9347 33.2582 34.2624C32.9906 34.6215 32.6286 34.8868 32.1879 35.0741C31.8101 35.2146 31.5111 35.121 31.2592 34.8088C30.2361 33.4664 29.1344 32.4049 27.9696 31.6713C26.7891 30.9221 25.2309 31.203 24.3967 32.3113L19.8007 38.4614C19.5803 38.7735 19.297 38.836 18.9507 38.6331C18.4471 38.3521 17.9119 38.3677 17.3453 38.6955C17.2508 38.7579 17.1721 38.7267 17.1407 38.6331C17.0934 38.5082 17.0777 38.3833 17.0934 38.274C17.1249 38.1023 17.2194 37.9775 17.4082 37.8838C18.3684 37.4468 19.0137 36.7443 19.36 35.7453C19.5331 35.2458 18.8878 34.918 17.424 34.7463C17.062 34.6995 16.8731 34.2937 17.062 33.9971C17.3295 33.5912 17.7388 33.2635 18.3054 33.0293C18.5887 32.9044 18.7146 32.5766 18.5887 32.3113L18.4313 31.9679C18.2267 31.5152 17.7073 31.2967 17.2194 31.4684C16.1491 31.8586 15.488 32.3893 15.2361 33.0918C14.3862 35.4488 13.6307 37.8058 12.9539 40.1784C12.8437 40.5842 12.6076 40.8964 12.2613 41.1306L10.9392 41.9891C10.3883 42.3481 10.4355 42.5822 11.0808 42.6915C11.4429 42.7539 11.8364 42.7539 12.2613 42.6915C12.8437 42.6134 13.0955 42.8632 13.0168 43.4407L12.765 45.3607C12.6863 46.0319 12.3085 46.2972 11.6317 46.1411L10.467 45.8758C10.0105 45.7665 9.72723 45.9538 9.61705 46.4065C9.11338 48.4513 9.23929 50.5117 9.9948 52.619C10.1207 53.0092 10.1994 53.3839 10.2152 53.7897C10.2152 54.4765 10.5142 54.7575 11.0966 54.6326C12.0095 54.4297 12.1039 54.0395 11.3956 53.4307C10.7975 52.9312 10.3568 52.1195 10.0578 50.98C9.96332 50.6054 10.0105 50.262 10.1994 49.9186C10.4985 49.3879 10.4985 48.8416 10.1994 48.2484C10.042 47.9206 10.1207 47.6552 10.4513 47.4835C11.8049 46.7655 13.4733 46.3909 14.3232 45.0953C15.0945 43.8934 15.4722 42.6915 15.4408 41.4583C15.425 40.1159 15.8028 39.9755 16.6055 41.0681C17.1879 41.8486 18.0693 42.7383 19.234 43.6905C19.6275 44.0027 20.1942 43.9246 20.4618 43.5188L22.2718 40.8028C22.4607 40.5218 22.6024 40.553 22.6968 40.8652M106.181 34.6371C106.731 34.7619 107.298 34.2624 107.455 33.5444C107.629 32.8264 107.298 32.1396 106.747 32.0303C106.196 31.9054 105.63 32.4049 105.472 33.123C105.299 33.841 105.63 34.5278 106.181 34.6371ZM95.509 40.4437C96.1071 41.7237 96.3747 43.0973 96.3117 44.5646C96.3117 44.7363 96.3904 44.83 96.5635 44.8456C96.6895 44.8456 96.7839 44.8456 96.8941 44.7831C97.0829 44.7051 97.2089 44.5646 97.2876 44.3773C97.807 42.9881 98.7199 42.1139 100.011 41.7393C100.436 41.6144 100.53 41.0681 100.168 40.8184C99.5856 40.4125 99.1134 39.913 98.7514 39.3199C97.5866 37.4624 95.6506 36.5414 93.5887 35.9014C93.2267 35.7766 92.9277 35.8702 92.6758 36.1668C92.4397 36.4321 92.1721 36.557 91.8888 36.5414C91.4639 36.5102 91.3852 36.3229 91.637 35.9951C91.9675 35.558 92.1092 35.0897 92.062 34.559C92.0305 34.0751 91.7629 33.841 91.2907 33.8098C90.4093 33.7786 90.0001 34.2156 90.0315 35.1678C90.0315 35.5268 89.6223 35.7141 89.3547 35.48C88.8983 35.0741 88.3789 34.7619 87.8122 34.5902C87.403 34.4654 86.9938 34.6527 86.8049 35.0273L86.2697 36.1668C85.9549 36.838 85.5772 36.8692 85.1679 36.2448L84.1449 34.7151C83.956 34.4342 83.5625 34.4029 83.3421 34.6683L83.106 34.9336C82.6811 35.4331 82.5709 35.9795 82.7912 36.6038C83.2005 37.837 83.8458 38.9765 84.6957 40.0223C84.9476 40.3501 84.8689 40.5218 84.4596 40.5218C83.8773 40.5218 83.3421 40.4125 82.8542 40.1315C82.4922 39.9286 82.2246 39.6321 82.0829 39.2574L81.3432 37.275C81.17 36.8224 80.871 36.6975 80.4303 36.9473C78.2267 38.2116 75.8815 39.1326 73.3789 39.7413C72.9696 39.835 72.8594 40.0691 73.0168 40.4437L74.1658 43.1598C74.339 43.5968 74.2131 43.7217 73.7723 43.55C73.5677 43.4719 73.3789 43.3315 73.19 43.1598C72.7335 42.7227 72.4187 42.4886 72.2456 42.4417C71.5373 42.2388 70.9707 42.5198 70.53 43.2222C70.4198 43.4095 70.4198 43.5968 70.53 43.7685L70.7188 44.0807C70.9392 44.4085 70.8605 44.6739 70.5142 44.8456C70.2152 45.0017 69.9161 45.0173 69.6013 44.908C69.381 44.83 69.3023 44.5802 69.4282 44.3773C69.5069 44.2524 69.6013 44.1119 69.6957 43.9714C69.9476 43.5656 69.8846 43.5032 69.5226 43.8153C68.169 44.9548 67.9172 46.5782 68.7986 48.7011C69.0189 49.2474 68.531 49.7937 67.9644 49.6688C66.8154 49.4191 66.0599 49.981 65.6821 51.3234C65.5247 51.901 65.6821 52.3068 66.1228 52.5722C66.4848 52.7751 66.7839 52.7127 67.0515 52.4161C67.5394 51.8698 68.106 51.6512 68.7199 51.8073C69.0504 51.8854 69.2865 51.7917 69.4439 51.4795C70.3253 49.7157 71.8364 48.2172 73.9612 46.984C74.3075 46.7655 74.5436 46.8592 74.6223 47.2806C74.6538 47.4835 74.5908 47.6865 74.4177 47.905C74.2131 48.1391 74.2288 48.3577 74.4806 48.545C74.5908 48.623 74.7167 48.6855 74.8741 48.7011C75.2519 48.7635 75.4722 48.6074 75.5037 48.2172C75.5509 47.7801 75.8028 47.5304 76.2435 47.4523C77.1092 47.2806 77.723 47.5772 78.1008 48.3577C78.1795 48.5138 78.148 48.7011 78.0221 48.8103C77.9277 48.8884 77.8175 48.9508 77.6916 48.982C77.2351 49.1069 77.2351 49.2162 77.6916 49.2942C78.3998 49.4191 78.9822 49.3723 79.4701 49.1381C79.8479 48.9352 80.021 48.6386 80.0053 48.2172L79.9423 47.2338C79.9109 46.8123 80.1942 46.4377 80.5877 46.3128C81.2645 46.1099 81.9098 46.1724 82.5079 46.4845C82.8542 46.6562 83.106 46.9684 83.2477 47.3118C83.4995 47.9674 83.6727 48.4201 83.7986 48.6855C84.3967 49.903 84.8374 49.8405 85.105 48.5138C85.5457 46.3441 87.0567 45.5792 89.6223 46.2192C89.764 46.2504 89.8584 46.2192 89.9214 46.0787L90.1102 45.6416C90.1889 45.4543 90.0473 45.2358 89.8427 45.2358C87.6548 45.2046 86.5058 44.2212 86.3642 42.2856C86.3327 41.8642 86.5216 41.6144 86.9465 41.5364C88.489 41.2398 90.0945 40.8496 91.7786 40.3657C92.1407 40.2564 92.424 40.3657 92.6286 40.7091C92.9749 41.3179 93.3998 41.8174 93.9193 42.2232C94.3757 42.5822 94.6433 42.4886 94.7535 41.911L95.021 40.4906C95.0997 40.0067 95.2571 39.9911 95.4618 40.4437M98.3736 35.5112L99.8217 36.5882C100.152 36.838 100.262 36.7599 100.136 36.3697C99.9004 35.5892 99.3652 35.1522 98.5467 35.0429C97.9014 34.9649 97.8542 35.121 98.3579 35.4956M106.086 37.8058C105.63 38.0711 105.315 38.2272 105.079 38.2897C103.678 38.6643 103.678 38.9296 105.142 39.1013C105.567 39.1482 105.944 38.914 106.275 38.3989C106.48 38.0867 106.763 37.8994 107.141 37.8682C107.959 37.7902 108.305 37.275 108.195 36.3853C108.148 35.9483 107.629 35.7609 107.33 36.0575C107.03 36.3541 106.826 36.6507 106.731 36.9785C106.621 37.3375 106.417 37.6028 106.086 37.7902M45.3621 43.2846C45.5982 43.55 45.8815 43.7061 46.2278 43.7373C46.6685 43.7529 46.936 43.5656 47.0147 43.1285C47.0934 42.7227 47.0147 42.3637 46.7944 42.0203C46.574 41.7081 46.2907 41.552 45.8972 41.5676L42.1984 41.7237C41.8049 41.7549 41.6003 41.9578 41.6003 42.3481C41.6003 42.7539 41.6947 43.1754 41.9308 43.6124C42.2771 44.2368 43.1742 44.19 43.4576 43.55C43.6307 43.1441 43.9455 42.9412 44.3862 42.9256C44.7797 42.8944 45.0945 43.0349 45.3463 43.3159M90.488 43.6749C90.7556 43.8153 91.1963 43.4876 91.4953 42.9568C91.7786 42.4261 91.8101 41.8642 91.5425 41.7393C91.275 41.5988 90.8343 41.9266 90.5352 42.4573C90.2519 42.9881 90.2204 43.55 90.488 43.6749ZM39.0662 44.7051C39.2708 45.7665 39.9004 46.266 40.9707 46.188C41.5058 46.1567 41.6003 45.9226 41.2382 45.548L38.8615 42.91C38.6254 42.6447 38.4995 42.6915 38.4995 43.0349C38.4995 43.3939 38.6097 43.7373 38.7986 44.0495C38.9245 44.2524 39.0189 44.4709 39.0662 44.7207M98.6727 48.9976C98.7986 48.5606 99.0504 48.2328 99.4282 47.9518C99.743 47.7333 100.105 47.6709 100.467 47.7801C101.191 47.9986 101.931 48.0143 102.655 47.8113C103.033 47.7021 103.395 47.7489 103.741 47.9362C104.528 48.3733 105.205 48.982 105.787 49.7625C106.039 50.1059 106.228 50.0747 106.385 49.7001L106.653 49.0601C106.716 48.8884 106.684 48.7011 106.574 48.5606C105.567 47.5148 104.37 46.8904 102.97 46.6719C102.56 46.6094 102.23 46.4377 101.947 46.1255C101.254 45.3607 100.75 44.5022 100.451 43.5032C100.357 43.191 100.231 42.9568 100.074 42.8632C99.8689 42.7071 99.6328 42.6603 99.381 42.7383C98.9875 42.8476 98.7514 43.0973 98.6569 43.4876C98.0116 46.1255 96.9413 48.3264 95.4775 50.0903C95.1312 50.4961 95.2257 50.6991 95.7608 50.7147C97.3033 50.7147 98.2477 51.4795 98.6097 52.9936C98.6412 53.1653 98.7514 53.2746 98.9245 53.337C99.0819 53.3995 99.2393 53.3995 99.381 53.337C99.6957 53.2278 99.8374 52.9936 99.7587 52.6658L99.5698 51.8229C99.4596 51.3234 99.6643 51.0737 100.184 51.1049C100.829 51.1361 101.427 51.2766 102.009 51.4951C102.372 51.6356 102.466 51.5264 102.293 51.1829C101.6 49.8249 100.546 49.2474 99.1134 49.4659C98.7041 49.5284 98.5625 49.3567 98.6727 48.9664M18.6674 46.7499L15.9759 46.6562C15.8028 46.6562 15.6926 46.7187 15.6611 46.906C15.4565 47.983 15.6611 48.9664 16.2435 49.8405C16.5583 50.3088 16.936 50.5117 17.3925 50.4337C17.8017 50.3713 17.9906 50.1371 17.9906 49.7313C17.9906 48.8259 18.2582 47.9518 18.8563 47.1245C19.0137 46.8904 18.9665 46.7655 18.6674 46.7499ZM32.2194 48.3264C31.7629 48.5918 31.4166 48.9196 31.1805 49.3254C30.9917 49.6688 31.1333 50.0903 31.4953 50.2464C32.2981 50.6054 33.211 50.7771 34.2655 50.7771C35.0368 50.7771 35.4775 50.4181 35.5877 49.6688C35.8552 47.8894 35.1784 46.9684 33.5258 46.9372C33.2739 46.9372 33.1008 47.0465 32.9906 47.2806L32.8332 47.6396C32.723 47.9362 32.4869 48.186 32.2194 48.3264ZM20.9025 47.4992C20.4303 47.5772 20.2571 47.8582 20.3673 48.3108C20.4145 48.4825 20.6978 48.6386 21.2015 48.7635C22.1459 49.0133 22.8699 48.8572 23.3736 48.3108C23.6884 47.983 23.6254 47.7489 23.2005 47.6084C22.5079 47.3743 21.7367 47.3274 20.9025 47.4835M41.5373 48.2484C40.9549 48.8103 40.4827 48.9196 39.7587 48.9664C39.3967 48.9664 39.2236 49.185 39.2708 49.544L39.381 50.4025C39.4282 50.7927 39.8531 51.0269 40.2152 50.8552C41.3642 50.3088 42.0567 49.4191 42.3243 48.2172C42.4502 47.7177 42.3085 47.624 41.8836 47.9362C41.7577 48.0455 41.6317 48.1547 41.5216 48.264M109.313 52.5566C108.935 51.4639 108.636 50.3869 108.431 49.3411C108.416 49.2162 108.368 49.1225 108.305 49.0757C108.211 48.9976 108.101 48.9508 107.991 48.904C107.739 48.8259 107.597 48.904 107.581 49.1693C107.455 50.7303 107.959 51.9166 109.108 52.697C109.313 52.8531 109.376 52.8063 109.297 52.5566M89.9528 55.7565C90.3778 56.7711 91.0231 57.5516 91.9046 58.0979C92.2508 58.3008 92.6758 58.0042 92.5814 57.614C92.2823 56.1779 91.4009 55.5536 89.9371 55.7565L89.5751 53.1966C89.5279 52.8844 89.638 52.8219 89.8899 53.0248C90.5509 53.6024 91.275 53.7117 92.062 53.3839C92.5342 53.1653 92.5971 52.8844 92.2351 52.5254L89.276 49.4035C89.0084 49.1381 88.615 49.0445 88.2687 49.2006L85.1679 50.5586C84.0504 51.0425 83.7199 52.4317 84.5069 53.3526C85.2624 54.258 86.1438 54.6326 87.1354 54.4921C87.4974 54.4297 87.828 54.4921 88.1428 54.695L89.9214 55.7565M27.2141 51.62C27.5289 51.7917 27.702 51.542 27.7335 50.8708C27.7493 50.4493 27.4659 50.0591 27.041 49.981C25.829 49.7157 25.1207 50.0903 24.9318 51.1205C24.8531 51.542 25.0263 51.7761 25.467 51.8073C25.892 51.8385 26.3012 51.7761 26.679 51.6044C26.8521 51.5264 27.041 51.542 27.2141 51.62ZM82.1774 50.9956C81.9885 50.4493 81.3904 50.1527 80.8238 50.34L80.6191 50.4025C80.0525 50.5898 79.7692 51.1829 79.9581 51.7293L80.4775 53.2902C80.6664 53.8365 81.2645 54.1331 81.8154 53.9458L82.02 53.8834C82.5866 53.696 82.8699 53.1029 82.6811 52.541L82.1616 50.98M13.6149 52.3849C13.7409 52.3849 13.851 52.338 13.9612 52.3068C14.2131 52.2132 14.2918 52.0415 14.1816 51.8073C13.8825 51.1205 13.3474 50.902 12.5761 51.1361C12.3715 51.1986 12.2298 51.3546 12.1826 51.5576C12.0252 52.2444 12.2141 52.5722 12.7493 52.4785C12.8437 52.4785 13.127 52.4317 13.5992 52.3849M32.4397 53.5556C32.5499 53.3683 32.1564 52.9468 31.5583 52.6346C30.9759 52.3224 30.4093 52.1976 30.2991 52.3849C30.1889 52.5722 30.5824 52.9936 31.1805 53.3058C31.7629 53.618 32.3295 53.7429 32.4397 53.5556ZM77.2351 59.2217C76.212 57.6452 76.6055 57.1613 78.3841 57.7857C78.9979 58.0042 79.5961 58.0667 80.1627 57.9574C80.9654 57.8169 81.0126 57.5516 80.3044 57.1457L79.4701 56.693C79.0924 56.4901 78.8091 56.1467 78.6517 55.7721C78.3684 55.1009 78.0378 54.4453 77.6443 53.8365C76.6527 52.2444 75.9917 52.3693 75.6454 54.2268C75.5352 54.8667 75.1889 55.3662 74.6066 55.6784C73.127 56.4901 73.2215 58.6598 74.7797 59.7056C75.9602 60.5017 77.2036 61.251 78.51 61.9534C78.872 62.1563 79.2026 62.1095 79.5016 61.8129C79.8951 61.4383 80.0997 60.97 80.0997 60.4237C80.0997 59.8305 79.8479 59.6744 79.3285 59.971C78.5415 60.4081 77.8489 60.1583 77.2351 59.2374M109.942 53.4931C109.832 54.6326 109.391 55.4911 108.62 56.0687C108.4 56.2248 108.4 56.3965 108.62 56.5682L108.919 56.7867C109.045 56.896 109.171 56.8804 109.313 56.7555C110.383 55.7565 110.745 54.6638 110.367 53.4307C110.304 53.1965 109.958 53.2434 109.942 53.4775M96.0284 57.333C96.6895 57.333 97.2089 56.4901 97.2089 55.4599C97.2089 54.4297 96.6737 53.6024 96.0284 53.6024C95.383 53.6024 94.8479 54.4453 94.8479 55.4755C94.8479 56.5057 95.383 57.333 96.0284 57.333ZM99.3495 60.3924L99.0032 60.5798C98.531 60.8295 98.5625 60.9856 99.0976 61.0324C100.577 61.1885 101.459 61.9378 101.742 63.2802C101.821 63.686 102.041 63.7797 102.419 63.5767C102.639 63.4675 102.796 63.2802 102.907 63.0616C103.08 62.7026 103.048 62.3904 102.828 62.0626C102.419 61.5163 102.356 60.9544 102.655 60.3924C102.828 60.049 102.828 59.7056 102.655 59.3622C102.545 59.1437 102.387 59.0344 102.198 59.05C100.86 59.1749 100.483 58.5974 101.081 57.3174C101.821 55.7409 101.364 54.8043 99.6957 54.5389C98.8615 54.3985 98.1533 55.1633 98.3579 55.9906L98.6097 56.9428C98.7199 57.3018 98.6097 57.614 98.2949 57.8481C97.6181 58.3476 97.3348 59.0188 97.4292 59.8773C97.4922 60.3768 97.6181 60.4081 97.8227 59.9554C97.9959 59.5808 98.2634 59.331 98.6569 59.1905C98.9402 59.0813 99.255 59.1905 99.4124 59.4715L99.5698 59.7837C99.6957 60.0022 99.6013 60.2832 99.381 60.4081M51.1386 71.5219C51.3589 71.8497 51.8626 71.7092 51.8783 71.319L52.1459 60.7046C52.1459 60.7046 52.1459 60.5641 52.0987 60.5017L49.2813 55.3038C49.1868 55.1321 48.9665 55.0541 48.7933 55.1165L42.4974 57.333C42.2613 57.4111 42.1512 57.7076 42.2928 57.9262L51.1386 71.5219ZM89.5908 57.0833C89.5436 56.8179 89.1344 56.6618 88.6779 56.7399C88.2215 56.8179 87.8752 57.0833 87.9224 57.3486C87.9696 57.614 88.3789 57.7701 88.8353 57.692C89.2918 57.614 89.638 57.3486 89.5908 57.0833ZM83.106 60.0803C83.531 60.3612 84.318 59.9086 84.8846 59.0657C85.4513 58.2228 85.5614 57.3174 85.1365 57.0364C84.7115 56.7555 83.9245 57.2081 83.3579 58.051C82.7912 58.894 82.6811 59.7993 83.106 60.0803ZM94.0452 62.8275C92.6601 62.2031 92.1721 61.4227 91.9675 59.9398C91.9046 59.5495 91.6842 59.331 91.2907 59.2686C89.3232 59.0032 88.1113 59.7212 87.6706 61.4539C87.5604 61.8441 87.7178 62.0314 88.127 62.0002C89.1973 61.9378 90.2676 61.8909 91.3379 61.8909C91.6055 61.8909 91.8416 61.9534 92.0147 62.047C92.5971 62.406 92.7702 63.0773 93.3054 63.3426C93.5572 63.4675 93.8091 63.4831 94.0294 63.3894C94.4544 63.2177 94.4544 63.0304 94.0294 62.8275M104.717 61.8441C104.323 61.9065 104.15 62.3592 104.37 62.6714L105.157 63.7641C105.519 64.2479 105.756 64.2011 105.897 63.6236C106.181 62.4841 106.684 61.5944 107.44 60.8919C107.676 60.6734 107.739 60.3144 107.597 60.0334C107.298 59.4091 106.983 59.2842 106.668 59.6744C106.558 59.7993 106.495 59.9554 106.448 60.1271C106.259 61.0793 105.677 61.6568 104.717 61.8441ZM110.902 62.3124C111.264 62.2968 111.516 61.6724 111.469 60.9388C111.422 60.1895 111.107 59.612 110.745 59.6276C110.383 59.6432 110.131 60.2676 110.178 61.0012C110.226 61.7505 110.54 62.328 110.902 62.3124ZM64.4072 62.4529C64.6905 62.6558 65.3358 62.25 65.871 61.5319C66.4061 60.8139 66.6108 60.0803 66.3432 59.8773C66.0599 59.6744 65.4145 60.0803 64.8794 60.7983C64.3442 61.5007 64.1396 62.25 64.4072 62.4529ZM30.7398 62.0158C30.5195 61.1573 30.0315 60.7671 29.3075 60.8295C28.851 60.8607 28.7409 61.0793 28.9927 61.4539C29.4019 62.1251 29.9843 62.5934 30.7398 62.8431C31.1963 62.9992 31.3064 62.8431 31.0861 62.4373C31.0074 62.2812 30.8815 62.1251 30.7398 62.0002M95.7923 61.3758C95.4775 61.1573 95.2886 61.2353 95.1942 61.5944L95.0997 61.969C95.021 62.2656 95.1312 62.4685 95.3988 62.5934C96.0756 62.9055 96.7209 63.2646 97.3505 63.6548C97.7125 63.8733 97.807 63.7953 97.6338 63.405C97.2718 62.6246 96.658 61.9534 95.7923 61.3602M86.0336 62.6402C86.1753 62.2812 85.8133 61.9378 85.467 62.0783C84.6171 62.4217 83.8301 63.6548 83.1218 65.7777C83.0116 66.0899 83.1218 66.1679 83.4208 66.043C83.9245 65.8401 84.255 65.3562 84.381 64.6226C84.4439 64.2636 84.6485 63.9982 84.9791 63.8265C85.467 63.5767 85.8133 63.2021 86.0494 62.6402M59.2603 83.9781C59.5436 85.3205 61.4009 85.4922 61.936 84.2435L63.148 81.465C63.211 81.3245 63.2582 81.1684 63.2582 81.028L64.2341 69.8517C64.2813 69.3054 64.0137 68.7747 63.5258 68.5093L57.6076 65.1533C56.553 64.5601 55.2624 65.4811 55.5142 66.6674L59.2445 83.9937M92.7545 65.7621C92.5499 65.325 91.7629 65.2626 90.9917 65.6216C90.2204 65.9806 89.7797 66.6206 89.9843 67.0576C90.1889 67.4947 90.9759 67.5571 91.7472 67.1981C92.5184 66.8391 92.9591 66.1991 92.7545 65.7621ZM89.3705 70.7258C89.5908 70.4917 89.5121 70.0858 89.2288 69.8361C88.9297 69.5707 88.5363 69.5551 88.3159 69.7893C88.0955 70.0234 88.1742 70.4292 88.4576 70.679C88.7566 70.9443 89.1501 70.96 89.3705 70.7258ZM67.7283 82.7294C70.53 80.1226 72.1826 76.6418 73.2844 73.036C73.6779 71.7873 73.2844 70.9131 72.0882 70.3512L71.6003 70.1171C70.9549 69.8205 70.1994 70.1483 69.9633 70.8351C68.7514 74.5501 67.8227 78.4368 67.1774 82.4484C67.0829 83.0572 67.2561 83.1508 67.7283 82.7294ZM97.3977 74.1911C97.9014 74.0506 98.1533 73.395 97.9644 72.7238C97.7755 72.0526 97.2089 71.6312 96.7052 71.7716C96.2015 71.9121 95.9497 72.5677 96.1386 73.2389C96.3274 73.9101 96.8941 74.3316 97.3977 74.1911ZM74.8584 80.825C74.5436 81.7148 75.488 82.5265 76.3222 82.0738L84.9318 77.5471C85.7661 77.0944 85.6087 75.8769 84.7115 75.6428L78.3054 73.9726C77.786 73.8477 77.2351 74.1287 77.062 74.6282L74.8584 80.825ZM59.4019 135.177C62.0305 130.947 62.062 124 61.4481 119.208C60.85 114.494 60.3778 109.78 60.0158 105.082C60.0158 104.988 59.9686 104.926 59.9056 104.91C59.8741 104.91 59.8427 104.895 59.8112 104.879C59.6853 104.879 59.6066 104.941 59.5908 105.098C58.8983 111.482 60.5824 117.491 59.9371 123.985C59.5751 127.606 59.2131 131.274 58.851 135.005C58.7724 135.817 58.9455 135.879 59.3705 135.177M48.4628 132.757C48.7146 132.757 48.8878 131.883 48.8563 130.806C48.8248 129.745 48.6202 128.871 48.3841 128.871C48.1323 128.871 47.9591 129.745 47.9906 130.822C48.0063 131.883 48.2267 132.757 48.4628 132.757Z" fill="black"/>
<path d="M31.4639 15.297C31.999 15.8278 32.1564 16.3585 31.9518 16.9204C31.7787 17.4199 31.5111 17.4823 31.1491 17.0765C30.3306 16.1556 29.9214 15.141 29.8899 14.0483C29.8899 13.5488 30.063 13.4551 30.488 13.7205C30.7556 13.8922 30.9287 14.1576 31.0232 14.5322C31.1019 14.8288 31.2435 15.0785 31.4796 15.297H31.4639Z" fill="black"/>
<path d="M42.8122 14.8601C42.9066 15.0786 42.4659 15.4845 41.8206 15.7498C41.1753 16.0152 40.5929 16.062 40.4827 15.8435C40.3883 15.625 40.829 15.2191 41.4743 14.9538C42.1196 14.6884 42.702 14.6416 42.8122 14.8601Z" fill="black"/>
<path d="M51.2486 15.2502C51.469 15.5311 51.2171 16.0931 50.6977 16.4989C50.1783 16.9047 49.5645 17.014 49.3441 16.733C49.1237 16.4521 49.3756 15.8901 49.895 15.4843C50.4144 15.0784 51.0283 14.9692 51.2486 15.2502Z" fill="black"/>
<path d="M83.2475 28.1902L81.2014 27.5815C80.7921 27.4566 80.5718 27.1912 80.5403 26.7542C80.5403 26.5356 80.5403 26.3327 80.619 26.161C80.7921 25.7552 81.0754 25.6303 81.4847 25.802C82.6966 26.3327 83.279 27.1288 83.2318 28.1902H83.2475Z" fill="black"/>
<path d="M73.1742 25.8179C73.3159 25.974 72.9853 26.4579 72.4344 26.9106C71.8835 27.3633 71.3641 27.5974 71.2225 27.4569C71.0808 27.3008 71.4114 26.8169 71.9622 26.3643C72.5131 25.9116 73.0326 25.6775 73.1742 25.8179Z" fill="black"/>
<path d="M86.7733 28.7522C86.6159 28.6429 86.8677 28.0654 87.3242 27.4878C87.7806 26.9103 88.2686 26.5356 88.426 26.6449C88.5834 26.7542 88.3315 27.3317 87.8751 27.9093C87.4186 28.4868 86.9307 28.8614 86.7733 28.7522Z" fill="black"/>
<path d="M26.0966 35.3241C25.8133 35.3866 25.4356 34.809 25.2939 34.0598C25.1365 33.2949 25.2624 32.6237 25.5457 32.5769C25.8291 32.5145 26.2068 33.092 26.3485 33.8412C26.5059 34.6061 26.38 35.2773 26.0966 35.3241Z" fill="black"/>
<path d="M26.9621 34.9807C27.1825 34.7153 27.4658 34.5592 27.8121 34.528C28.2685 34.4968 28.4259 34.6997 28.2685 35.1368C27.7963 36.4324 26.8519 37.1348 25.4196 37.2597C24.9789 37.2909 24.8372 37.1036 24.9789 36.6977C25.1993 36.0733 25.6242 35.6675 26.2538 35.4646C26.5371 35.3709 26.7732 35.1992 26.9464 34.9651L26.9621 34.9807Z" fill="black"/>
<path d="M86.49 53.3368C86.2696 53.4929 86.0492 53.5085 85.8446 53.3993C85.5771 53.2588 85.5298 52.8842 85.7502 52.6812C86.2853 52.1974 86.8205 52.1193 87.3714 52.4471C88.2685 52.9934 88.1899 53.3212 87.151 53.4149C87.1038 53.4149 86.8992 53.4149 86.5057 53.3368H86.49Z" fill="black"/>
<path d="M46.0073 124.89C45.8813 124.734 45.7869 124.5 45.7554 124.188C45.6767 123.657 46.2434 123.282 46.7155 123.563C47.1563 123.829 47.172 124.266 46.747 124.859C46.5267 125.202 46.2748 125.218 46.023 124.89H46.0073Z" fill="black"/>
<path d="M94.2024 133.241C93.8404 133.943 93.3368 134.552 92.7072 135.067C92.4711 135.27 92.2192 135.333 91.9516 135.286C91.4795 135.208 91.3535 134.942 91.5424 134.521L92.7544 132.008C92.9433 131.618 93.2581 131.368 93.683 131.243L95.2255 130.79C95.682 130.665 95.9181 130.822 95.9338 131.29C95.9338 131.462 95.8551 131.664 95.682 131.867C95.4774 132.117 95.2413 132.304 94.9579 132.461C94.6274 132.648 94.3598 132.913 94.1867 133.241H94.2024Z" fill="black"/>
</g>
<defs>
<clipPath id="clip0_2413_195">
<rect width="120" height="140" fill="white"/>
</clipPath>
</defs>
</svg>
