<svg width="110" height="80" viewBox="0 0 110 80" fill="none" xmlns="http://www.w3.org/2000/svg">
<g clip-path="url(#clip0_2086_166)">
<path d="M6.74707 38.0576C7.07248 38.5221 7.76669 38.5538 8.12465 38.1104C22.6055 20.5438 46.3388 8.46672 70.1481 10.1136C73.3914 10.3353 76.6455 10.5992 79.8996 10.9054C88.8918 11.7393 97.7864 15.5082 105.108 20.1426C106.193 20.8288 106.8 22.0429 106.681 23.2991C106.616 23.9114 106.453 24.5026 106.204 25.0727C105.444 26.7301 104.305 27.0363 102.787 25.9806C96.9729 21.9162 90.5514 18.9919 83.5117 17.1973C78.0773 15.8037 71.6884 15.7721 65.5381 15.3498C62.9131 15.1703 58.8997 15.5609 53.487 16.5005C40.1885 18.823 27.4975 26.3501 17.7243 35.334C15.1102 37.7409 12.1164 41.3408 9.12258 44.0856C8.17888 44.9513 6.73622 45.0463 5.69491 44.2968C3.67735 42.8505 1.36693 40.0107 0.444931 38.1104C-1.11704 34.88 1.73573 30.33 4.02446 27.9336C22.7573 8.25558 45.8724 -1.02391 73.3697 0.0845595C75.474 0.179571 77.1336 0.865768 79.1512 1.01356C89.0654 1.71032 97.8081 4.529 105.39 9.45906C108.764 11.6655 110.293 14.4841 109.957 17.9362C109.751 20.1321 108.015 21.0083 106.193 19.4142C99.4135 13.4707 91.365 9.7441 82.069 8.24502C68.5211 6.07031 56.3832 6.31312 43.3559 10.4092C30.5781 14.4314 19.3839 21.2405 9.7734 30.8156C8.26566 32.3147 5.27187 35.9357 6.74707 38.0576Z" fill="black"/>
<path d="M67.306 25.896C77.5456 25.0725 88.0022 26.7405 96.2351 32.4201C98.0248 33.6553 98.3286 35.1649 97.1245 36.9596L96.875 37.3291C95.7144 39.0709 94.3151 39.261 92.6772 37.9202C90.1065 35.7983 86.5703 34.2676 82.058 33.3491C64.7678 29.8231 46.4037 34.7849 32.2374 44.6555C30.426 45.9118 28.7555 47.2842 27.2478 48.7727C25.8702 50.124 24.3082 51.4647 22.5727 52.7843C21.4012 53.6711 20.2297 53.6078 18.9715 53.1116C18.0929 52.7527 17.7132 51.7392 18.1688 50.9158C19.0474 49.3217 20.1755 47.8543 21.5422 46.503C33.9838 34.2148 49.2348 27.3423 67.306 25.896Z" fill="black"/>
<path d="M70.4408 42.3119L71.0808 42.0163C71.3736 41.8896 71.6773 41.8368 72.0028 41.8474C78.3917 42.1113 84.3033 43.9482 89.7377 47.3369C91.7336 48.5827 92.6772 50.2295 92.5796 52.2881C92.5688 52.5943 92.4603 52.8793 92.2651 53.1538C91.0936 54.8112 89.6292 55.1068 87.872 54.0406C79.075 48.7093 69.3669 48.0654 58.7477 52.1192C53.7146 54.0406 49.5168 56.8909 46.1651 60.6703C44.538 62.4966 43.4425 64.9141 42.13 67.0994C41.3924 68.3346 40.568 69.0524 39.6677 69.253C37.3139 69.7703 34.537 67.7012 34.5804 65.2836C34.5913 64.323 35.3722 62.8661 36.9125 60.9131C43.475 52.5837 51.9791 47.1258 62.4248 44.5499C62.9238 44.4338 63.2926 44.0221 63.3468 43.5154L63.4661 42.4808C63.542 41.8579 62.9563 41.3618 62.3272 41.5095C57.9558 42.5441 53.617 42.9136 49.3433 44.4866C42.2276 47.1047 36.1749 51.2958 31.1853 57.0493C30.0463 58.3689 28.7447 58.5378 27.2803 57.556C25.7834 56.5531 26.9983 54.0933 30.9141 50.1767C32.1615 48.9416 33.474 47.7803 34.8733 46.7141C35.2312 46.4396 35.5892 46.1651 35.9471 45.9012C44.2451 39.7043 54.1919 37.0334 65.7874 37.878C68.4232 38.068 69.7683 39.4193 69.8442 41.9424C69.8442 42.3541 70.0503 42.4808 70.4408 42.3119Z" fill="black"/>
<path d="M63.2275 58.1472C56.6542 58.1472 51.3282 63.035 51.3282 69.0736C51.3282 75.1121 56.6542 79.9999 63.2275 79.9999C69.8008 79.9999 75.1267 75.1121 75.1267 69.0736C75.1267 63.035 69.8008 58.1472 63.2275 58.1472ZM63.6288 73.5708C60.5482 73.8558 57.8365 71.8078 57.5545 68.9891C57.2724 66.1704 59.5286 63.6368 62.5983 63.3412C65.6789 63.0562 68.3907 65.1042 68.6727 67.9229C68.9547 70.7416 66.6985 73.2752 63.6288 73.5708Z" fill="black"/>
</g>
<defs>
<clipPath id="clip0_2086_166">
<rect width="110" height="80" fill="white"/>
</clipPath>
</defs>
</svg>
