<svg width="165" height="80" viewBox="0 0 165 80" fill="none" xmlns="http://www.w3.org/2000/svg">
<g clip-path="url(#clip0_2014_57)">
<path d="M153.63 54.6659C156.675 47.9777 156.38 41.3817 152.707 34.8962C149.163 28.6134 140.949 23.2702 133.75 26.3103C127.105 29.1293 124.798 37.7704 132.052 41.1053C134.544 42.2476 137.017 41.9528 139.675 41.7317C140.801 41.6396 141.65 42.7451 141.299 43.8137C139.177 50.2992 132.052 51.0546 126.92 47.7013C114.202 39.355 117.488 21.6488 132.199 18.2218C142.979 15.6977 151.618 18.5351 158.134 26.734C165.074 35.4673 167.141 46.3563 162.527 56.8216C150.566 83.869 113.926 81.1974 90.1696 78.1574C69.7915 75.541 22.5379 69.0556 1.21837 68.3738C0.387741 68.3738 -0.0183448 67.9316 0.000113624 67.1025L0.0370305 64.9284C0.0370305 64.0072 0.535408 63.5097 1.45833 63.4544C29.589 61.7041 86.201 72.5931 115.218 72.3904C129.966 72.2983 147.188 68.7792 153.63 54.6659Z" fill="black"/>
<path d="M104.456 31.8561C104.641 18.9035 82.2877 19.7879 91.1662 35.1541C92.126 36.8123 91.6461 37.5309 89.7449 37.3098L88.9696 37.2177C86.9392 36.9597 85.3887 35.9648 84.3366 34.2144C80.2942 27.4894 81.6047 21.9989 87.1792 17.5585C96.2422 10.2992 108.831 17.0795 111.341 27.2315C113.501 35.8174 111.84 43.3162 106.413 49.7649C102.075 54.8869 95.024 58.2218 85.2595 59.7511C71.471 61.9067 28.8505 56.6189 13.2531 51.6626C12.2563 51.3494 11.6103 50.3729 11.7026 49.3595L11.8318 47.7013C11.8872 47.0564 12.4779 46.5958 13.1054 46.688C27.3738 48.991 68.7945 53.3208 81.5309 51.9206C92.9751 50.6861 104.327 45.1587 104.493 31.8377L104.456 31.8561Z" fill="black"/>
<path d="M64.4569 10.0229C63.8478 9.00953 62.7034 8.43836 61.5405 8.53049C57.5165 8.78843 56.3906 10.5941 58.1072 13.9473C58.8455 15.366 57.775 17.0611 56.1691 17.0427L52.7727 17.0058C50.7238 16.969 48.9149 15.7714 48.0474 13.9289C45.74 8.86213 46.866 4.93767 51.4252 2.17397C56.7413 -1.05035 62.2234 -0.663433 67.8717 3.3163C83.0815 14.0026 74.3506 30.7322 61.1528 37.8073C53.6218 41.8608 45.2232 42.911 35.9755 40.9579C24.439 38.5259 14.9329 32.0772 7.42033 21.5752C6.90349 20.8935 6.62661 20.0459 6.60815 19.18C6.60815 17.4665 7.10653 16.103 8.17712 15.145C9.76455 13.7078 11.2043 13.8736 12.4226 15.6424C20.1566 26.7341 34.868 35.8912 48.7488 33.0537C59.104 30.9533 71.6557 21.6857 64.4569 10.0413V10.0229Z" fill="black"/>
</g>
<defs>
<clipPath id="clip0_2014_57">
<rect width="165" height="80" fill="white"/>
</clipPath>
</defs>
</svg>
